<svg xmlns="http://www.w3.org/2000/svg" preserveAspectRatio="xMidYMid meet" viewBox="0 0 2048 1462"><path d="M654.68 0h739.83c.69 11.567-1.33 25.397-2.19 37.345a4340 4340 0 0 1-6.71 80.547c-1.11 13.289-2.85 29.203-3 42.181 4.26 2.55 53.73 2.231 60.56.931 28.86-5.494 47.24-48.748 61.41-71.316 2.1-3.34 5.09-5.835 9.1-6.43 11.58 4.968 3.69 40.738 2.27 51.698-.73 5.648-1.79 12.104-3.18 17.618a402 402 0 0 1-8.66 29.05c-1.85 5.45-5.76 15.516-6.54 20.513l6.9-.823c11.89 8.386-1.35 42.443-5.66 53.753-18.55 6.476-51.81.983-71.92 2.457-29.63 2.171-44.23.73-71.87-10.056 18.51 22.098 88.23 65.869 115.95 77.635 13.5 5.73 23.75 2.651 37.56-.013 10.89-2.1 25.14-3.14 35.15-7.396 23.53-9.999 50.12-58.611 58.59-61.174 1.13-.344 3.43-.784 4.43.008 10.91 8.621-10.82 75.026-16.76 88.366-1.88 4.229-7.89 8.773-8.67 12.75-.3 1.556.08 3.87.22 5.46.12 1.293-.15 1.975-.79 3.101-3.97 6.922-20.55 9.188-27.57 11.238-2.92.855-6.58 1.97-8.09 4.717 1.96 1.463 39.25-.267 44.38.15 40.93 3.324 66.39-5.044 93.67-37.454 8.53-10.146 17.26-21.993 25.77-32.316 1.88-2.118 4.68-3.257 7.76-3.044 14.08 10.873-6.47 67.891-10.76 82.145l-18.58 62.358c-4.17 13.758-8.09 30.753-13.99 43.821-.21.462-1.74 2.464-2.03 2.536-16.85 4.12-84.5-1.391-97.16 2.273-1.51 2.473-9.2 37.211-10.71 43.081-4.88 18.927-11.07 38.1-15.29 57.206-1.05 4.772-7.02 22.443-7.02 25.593 0 16.115-.29 33.617.1 49.722.26 10.877-1.03 21.436-.89 31.528.27 20.324.83 40.677.15 61.005-4 123.191-6.03 246.436-6.09 369.696l-.69 99.86c-.09 13.66-1.11 34.98-.02 47.93 2.23 2.74 90.95-.4 104.38.37 23.3 1.33 52.79 3.59 76.02 3.43l102.6-1.33c7.75-.04 15.24-1.42 22.91-1.48 8.57-.08 16.68 5.42 10.03 14.04-6.72 3.49-58 1.06-69.63 1.13-7.76.04-17.15.79-24.9 1.01-20.19.66-40.39.77-60.58.33-20.61-.53-42.2-3.14-62.48-3.28-32.33-.24-64.55.69-96.96.66-.69 4.03-.67 5.54-2.86 9.05-7.11 5.49-92.3 1.79-107.34 2.99-7.43.59-2.48 13.88-6.86 18.97-3.84 1.95-6.02 1.18-10.1 1.21-56.35.36-112.82.43-169.2 1.4-2.36.04-4.28 1.1-5.89 2.63 3.55 5.09 15.46 11.01 21.03 15.77 9.2 8.41 21.69 20.41 26.37 31.91 2.08 6.34-5.15 13.2-10.75 13.78-28.08 2.89-57.53 3.29-85.6.4-1.63-.17-10.26-6.7-12.11-8.07-2.23 1.51-13.32 8.41-15.59 8.62-26.55 2.36-53.74.05-80.39-.27-6.19-.3-12.42-5.64-10.97-12.29 2.04-9.41 9.32-14.88 15.57-22.08 10.13-11.66 22.79-20.41 35.21-29.76-14.46-1.02-28.14.09-42.45-.01l-96.63-.43c-6.754-.02-34.545-.61-39.5.74l-.392 1.55c4.962 6.22 12.039 10.71 17.937 16.01 5.374 4.83 10.419 10.23 15.716 15.19 5.891 5.52 12.777 10.62 12.699 19.5-.029 3.25-1.155 6.46-3.639 8.65-7.487 6.6-82.396 3.72-95.504 3.51a144 144 0 0 1-4.811-4.72c-10.501-10.91-.337-19.02.913-30.63.997-9.26.919-20.04 1.136-29.47-5.356-.13-10.614 0-15.97.1-.475 14.49 1.897 38.82 8.401 51.64-1.37 2.08-2.741 4.21-4.309 6.15-4.426 5.47-8.295 6.13-14.982 6.79-13.438 1.32-80.064 3.67-87.706-3.24-4.069-3.68-3.508-9.54-3.586-14.54 6.147-9.19 20.393-21.23 28.824-28.6 5.958-5.21 17.963-9.56 20.378-17.76-14.255-6.8-143.394.73-169.169-2.42-2.987-.36-7.272.64-10.729-.43-6.263-6.84-.984-12.22-4.133-19.38-6.063-5.1-77.501-1.22-91.072-2.44-12.092-1.09-17.694 5.76-25.437-7.62-.187-.32-45.091-.22-48.406-.22l-166.496-1.09c-24.828-.06-50.06.09-74.758-.79-7.352-.26-28.652 2.4-30.416-6.99 5.568-10.24 34.164-6.14 43.898-6.09l68.736.08 209.149.8c2.861-3.72.137-126.01.005-139.76l-3.937-307.291-2.585-157.771c-.385-16.254.794-58.971-3.799-71.541-3.728-10.204-30.194-112.16-31.153-112.995-13.827 2.595-49.179.639-65.028.442-5.717-.072-26.961 1.235-30.463-2.842-9.12-10.617-37.877-121.151-42.198-140.487-2.691-12.041-6.629-27.226-6.046-39.548.175-3.704 1.229-6.362 4.009-8.789 2.554-.378 4.186-.57 6.141 1.512 21.819 23.24 39.335 52.577 68.094 68.312 25.078-2.579 75.593.262 103.739.117l.539-1.002c-10.861-2.297-27.764-6.317-36.929-11.878-16.464-9.988-41.865-96.124-33.338-108.454 5.524-1.879 8.004 2.606 11.589 6.608 13.059 14.576 29.582 39.81 46.756 49.28 18.458 10.178 40.828 12.044 60.978 15.877l2.98-1.141c34.82-13.54 65.553-34.627 94.284-58.044 3.044-2.481 14.425-10.219 15.568-12.803-4.226-3.171-24.637-1.229-31.194-1.197l-60.013.07c-6.23.04-22.715.736-27.728-.533-5.709-4.676-7.84-17.651-10.127-24.871-2.325-7.344-7.687-19.154-3.224-25.885 3.29-2.22 6.294-2.251 10.197-2.737-9.977-20.182-24.14-93.649-22.324-116.71 2.051-2.802 1.179-1.892 4.783-3.326 12.66 1.535 41.792 65.49 62.159 78.166 6.613.637 64.237 1.206 68.409-.337 1.112-21.08-1.98-40.124-2.905-60.82C658.98 67.307 656.204 33.434 654.68 0"/><path fill="#fefefe" d="M1012.91 0h18.77c22.8 28.046 45.9 58.894 69.93 85.514C1215.32 211.5 1337.9 332.28 1485.6 418.128c6.11 3.552 39.78 22.978 41.8 26.797-5.24 2.843-78.05 2.57-80.6.736-66.19-47.636-131.63-98.363-191.88-153.458a1947 1947 0 0 1-147.21-152.67c-30.22-34.513-60.24-68.435-84.06-107.68-6.16 6.446-13.3 18.853-19.61 26.795C888.651 203.88 756.408 337.56 603.567 443.282c-6.914 4.782-72.164-.813-84.295 3.212-1.521.505-8.223-.928-10.118-1.871l.589-1.508c11.294-4.107 39.249-22.533 51.749-28.878 11.889-8.053 28.817-14.688 40.173-23.16 18.432-13.932 39.914-24.907 58.256-38.618 113.813-85.082 215.129-186.418 306.35-295.08C982.185 38.424 998.968 20.055 1012.91 0m110.56 0h55.14c67.16 79.42 135.67 154.322 222.59 212.831 3.45 2.319 19.62 11.524 20.62 13.579.18 5.173-.08 10.522-3.09 14.94-5.27 3.168-22.68 1.891-29.21 1.241-41.71-4.145-74.03-36.785-103.15-62.822C1225.39 125.257 1175.34 62.503 1123.47 0M864.031 0h57.105c-4.651 4.476-15.927 19.508-20.524 25.27a1891 1891 0 0 1-36.47 44.177c-54.077 63.049-113.917 124.717-182.233 172.112-2.312 1.604-47.95 1.641-51.692-.508-3.725-3.806-4.868-11.138-6.192-16.482 4.342-2.934 13.317-7.168 18.394-9.878a215 215 0 0 0 25.976-16.503c38.313-28.446 69.502-58.491 103.164-92.06 7.496-7.296 14.226-16.198 21.668-23.462 19.451-18.985 37.583-38.12 53.917-59.87C853.134 14.82 858.873 8.83 864.031 0"/><path fill="#fefefe" d="M666.701 0H847.83c-16.648 21.824-74.642 87.452-98.577 107.725-1.985 1.681-39.569-.719-45.933-.435-4.259.19-25.273 1.665-28.857-1.071-1.169-23.724-4.317-48.442-5.241-71.99 6.265-3.986 119.104 1.212 133.919-1.764 4.947-.993 7.136-5.451 6.115-10.172-2.321-2.26-5.481-3.389-8.765-3.548-33.225-1.613-66.655.213-99.932-.5-10.787-.232-21.511.78-32.226-.674zm528.949 0h186.15c-2.92 7.009-2.79 10.61-3.23 18.143-7.63-.545-20.35.319-28.55.269l-70.15.074c-13.76.129-28.96-.472-42.72.291-3.16.176-3.65 1.256-4.95 3.203-.17 1.865.02 11.042 2.89 11.138 36.15 1.2 72.68-.649 108.91.83 9.02.369 24.25-1.328 32.49.945 3.19 7.474-1.98 34.512-1.97 43.938 0 6.8.72 18.843-3.11 24.167-7.33 5.272-55.12 1.83-66.68 3.316-12.01 1.543-23.27-13.067-31.72-21.525a1402 1402 0 0 1-50.38-53.42c-9.18-10.366-17.5-21.14-26.98-31.369m-147.1 0h58.8c9.73 17.391 35.43 41.237 43.62 56.974-6.75 7.646-18.32 25.767-24.78 34.93-13.23-10.62-28.52-31.493-39.54-45.256Q1067.78 23.173 1048.55 0M938.732 0h57.525l-49.801 60.177c-8.363 10.002-17.174 18.762-24.849 29.394-5.088-8.02-20.458-26.727-26.837-34.564C906.153 38.317 925.993 18.395 938.732 0m486.148 444.885c.98.918 4.96 5.174 4.93 5.823-.67 12.924-1.32 36.024.32 48.282 7.31 7.657 90.94-.515 98.22 3.482 1.47 6.256.6 35.386.53 43.522-.31 39.775-2.09 79.787-2.54 119.562l-6.68 619.234c-.02 4.87.63 12.28-2.41 15.3-4.38-1.02-20.54.01-26.21.15-22.84.55-47.95-.58-70.61 1.59-1.61-1.7-1.4-5.23-1.41-7.55-.11-18.26 1.09-36.68 1.41-54.96.57-33.28.54-66.51.47-99.79-.02-10.45 2.66-26.58-.7-36.32-4.32-12.51-1.05-116.029-.88-138.716l4.24-373.211.67-77.245c.01-3.435-1.31-20.633-1.15-21.388 3.16-15.446-.02-32.394 1.8-47.765m-804.408 3.706c2.408 6.407 2.066 117.424 2.227 132.439l4.676 497.26.501 158.7c.182 15.97-.709 46.95.749 61.57-9.809.6-23.897.02-34.108.04l-66.553.22c-.776-11.58.404-24.27.081-35.87-.518-18.6-.453-37.12-.692-55.68l-2.386-211.742-5.091-399.251c-.318-30.421-1.351-61.167-1.424-91.501 4.428-4.709 82.405 1.221 92.158-2.785 12.619-5.182-1.524-38.464 9.862-53.4m235.085 212.777c9.737-1.127 21.146-.874 30.907-.988 38.03-.444 55.938 7.762 89.2 24.584 4.352 10.138 7.58 37.208 10.016 49.225 9.764 48.167 16.01 97.155 24.11 145.586 3.22 19.198 5.61 39.869 9.58 58.75-1.76 2.828-2.65 4.811-4.04 7.805-7.5 1.578-31.737 7.371-37.602 6.076-2.955-8.242-5.418-51.037-6.312-61.859L960.62 761.726c-.965-11.593-1.343-26.789-3.582-38.263-.401-2.06-1.601-2.016-3.361-2.683-2.705 1.238-2.733 2.828-2.996 5.689-1.444 15.714 2.474 38.092 3.872 54.251 1.311 15.166 16.018 176.993 13.653 179.439-6.229 6.441-65.859 11.569-77.453 11.942-21.864 4.763-95.995-.48-116.097-7.426 1.069-17.733 3.202-36.629 4.698-54.453l11.739-137.343c.711-8.499 7.254-50.536 1.173-54.381-2.709 2.377-4.54 7.473-4.908 10.895-2.286 21.225-3.778 43.179-5.749 64.418a6905 6905 0 0 0-13.874 162.857c-12.114-1.253-19.281-1.89-30.896-6.285.113-16.894 6.093-50.58 8.407-68.377l12.057-90.625c3.214-26.104 8.106-78.921 16.905-102.298 18.769-14.396 57.651-24.833 81.349-27.715M726.984 367.042l.71.832c1.779 10.831.741 38.305.714 50.322l-.156 105.864 2.551 433.671c-.003 9.144-8.966 29.119-9.483 39.874-.348 7.265-7.542 44.475 3.184 45.365 3.875-2.01 5.119-6.04 8.777-9.94 1.664 3.68.463 62.4-.654 67.02-6.952 3.37-71.276 1.92-84.187 1.78-4.333-1.74-9.368 4.73-8.766-11.27 1.445-38.42.023-77.25-.103-116.055l-2.347-375.024c-.176-22.975.031-45.78.327-68.712.037-2.88-1.944-4.931-1.848-7.427.861-22.345 2.556-63.142-.795-84.242 13.471-11.637 27.941-21.366 42.204-32.26 16.524-12.621 33.249-27.878 49.872-39.798m590.896-3.388c2.14 1.55 9.49 8.288 12.3 10.556 15.69 12.684 31.14 25.816 46.85 38.463 7.84 6.308 27.3 17.068 32.09 24.141 2.09 13.744.54 40.973.4 54.879l-.5 97.838-4.11 350.854c-.31 17.666 2.37 152.045-.24 159.765-8.07 1.67-44.38 1.76-52.87.42-5.25 1.17-33.22 2.55-36.43-.63 2.64-11.93-.56-59.63-.05-74.97.23-6.67-2.04-15.58-1.03-24.37l2.15.58.66 1.77c-1.99 6.29 4.16 22.69 8.17 27.67l1.15-.42c.39-2.53.3-4.07 2.1-5.82 2.97 3.52-.36 14.43 10.94 14.7 18.94-13.46-7.27-82.024-15.55-98.415l8.54-7.454c-3.71-16.076-6.44-37.786-8.65-54.54-1.96-14.882-6.31-38.676-6.55-52.836-.63-36.311.38-73.68.61-110.074l.45-143.865-.53-148.407c-.01-20.009-.68-39.815.1-59.835"/><path fill="#fefefe" d="M777.596 322.858c3.036 4.593 5.2 96.594 5.773 110.479l9.57 237.471c-12.287 5.034-16.361 6.382-26.517 14.746-5.065 16.066-7.042 32.245-9.602 48.853a2327 2327 0 0 0-8.311 57.099c-.923 7.125-1.889 23.613-3.413 29.618l-1.007.413-.286-2.295c-1.211-17.597-.752-44.184-.573-62.318l.213-70.859c-.018-68.099-1.469-136.925-.961-204.979q.445-41.423.328-82.849c.048-13.301 1.287-31.119-.63-43.778 3.61-4.458 28.897-25.67 35.416-31.601m488.594-1.478c3.38 1.537 32.37 27.791 37.33 32.166-2.16 32.16-.39 80.423-.28 113.654q.165 105.885-.99 211.762c-.19 11.146-.61 23.045-.43 34.09.17 10.701 1.32 21.488.41 32.335-.07 2.659.12 7.01-.94 9.233-2.87-12.062-10.87-65.412-17.23-70.655-8.47-6.984-19.52-9.87-28.27-16.384-2.96-7.44 1.26-80.179 1.79-93.862l8.09-208.304c.53-14.799-.26-29.044.52-44.035"/><path fill="#fefefe" d="M1215.44 659.496c22.87 10.841 41.56 17.798 64.19 30.325 3.48 27.327 14.48 60.027 20.78 92.939 7.8 40.704 18.23 104.933 22.26 147.673.09.918-3.91 3.089-5.17 3.886-7.12 3.333-14.86 5.487-22.55 7.012-9.71-19.458-19.51-55.632-26.22-77.417-20.76-67.385-42.69-134.576-53.29-204.418m-78.43 1.455.93.245c1.54 2.864-2.29 21.97-3.01 26.1-12.4 71.416-36.28 140.86-63.82 207.746-5.49 13.329-12.94 33.368-20.45 45.173-8.08-.107-10.15-.739-17.88-2.957-.72-.322-5.06-2.202-4.94-3.084 10.18-73.151 25.9-146.432 46.36-217.805 2.29-7.98 4.83-16.588 6.26-24.708 10.49-9.897 42.47-24.857 56.55-30.71m11.57-4.915c21.41 7.555 37.36 6.61 59.07 2.178 3.73 41.408 21.68 96.956 31.82 137.327-8.37 2.041-20.1 3.084-28.69 3.526-29.09 4.004-65.09.689-93.98-3.706 9.42-36.044 20.23-71.153 25.89-108.068 1.13-7.33 2.02-25.676 5.89-31.257m130.71-463.521a533 533 0 0 0 47.1 38.775c-2.8 5.723-8.52 13.593-8.26 19.35l1.75.602c4.12-1.072 6.76-4.321 9.8-7.343 20.11 23.15 76.32 61.3 103.8 77.695 14.91 8.899 53.14 24.654 70.2 31.539 5.24 2.115 41.67 8.466 50.09 9.927l-19.96 6.836c-22.53 8.064-51.51 11.765-75.41 11.024-28.19-.873-173.89-128.351-200.15-155.657 6.95-11.181 15.44-20.222 21.04-32.748m-513.582-.444c3.05 7.221 17.004 24.993 22.38 33.408-58.181 59.786-127.719 111.221-197.953 155.769-25.97-3.083-42.694 3.76-66.465-11.2-4.385-2.76-15.391-5.553-20.894-6.893l-10.223-3.151-.242-.755-2.384-.225c2.191.207 5.207.239 7.269-.58 3.893-1.926 10.871 1.598 14.211 1.087 60.167-9.265 115.88-43.78 161.79-82.403 13.283-11.174 26.038-20.768 39.031-32.6 2.96 5.059 8.076 12.554 13.799 14.587 3.388-.616 2.514-.638 5.521-3.325 1.242-5.514-8.71-15.437-12.594-22.786l-.527-1.013c2.65-2.535 5.945-5.076 8.944-7.25 13.882-10.064 26.003-20.75 38.337-32.67m939.762 147.726c.81 4.892-35.62 129.487-39.07 135.824l-1.58-.771c-.1-6.977-9.89-40.044-14.61-46.83-5.92-3.582-108.21-1.87-124.27-2.098-4.05-.823-45.84-27.242-50.98-31.068 5.96.196 12.31.26 18.22.752 36.38 3.024 72.85.65 109.31.796 6.92.027 18.68.417 25.25-.597 29.5-4.559 60.84-33.526 77.73-56.008m-1360.025 1.698c2.979 2.157 8.537 9.456 11.299 12.59 9.05 10.353 34.516 40.301 48.251 40.458 44.58.508 89.132-.002 133.684 1.251 6.977.197 13.203 1.219 20.307.951l1.18-.051.537.91c-6.117 5.842-43.373 25.513-52.424 30.272-5.977 1.234-32.014.488-39.707.373a4856 4856 0 0 0-52.473-.187c-5.728-.013-17.983-.556-22.904.59-2.288 3.081-2.51 6.644-3.226 10.528 1.595 2.055 3.333 4.121 4.985 6.144-.759.519-1.413.98-2.148 1.544l-.824.643c-4.719 3.644-7.327 21.877-8.623 28.543-10.112-23.864-35.548-109.913-37.914-134.559m303.752 775.135c4.324 1.28 19.494.59 25.284.58l78.385.19c5.095.03 17.883-1.76 21.465 1.11-.134 2.99.285 29.34-2.21 29.73-14.646 2.28-95.462-3.08-102.243 2.05-2.799 4.54-2.865 9.12-2.099 14.24-.275.93.219 3.16.001 4.18-2.99 13.9-11.739 98.49-27.083 97.18 2.337-21.14-1.743-141.48.97-147.17 2.637-2.23 3.839-1.9 7.53-2.09m704.643-.89c10.38 2.8 42.83-1.05 52.15 1.71 1.44 2.99-.54 147.55-1.48 149.32-6.09-4.96-10.22-24.09-12.15-32.01-8.02-32.18-8.54-54-13.8-84.82-6.19-5.48-13.65-1.71-20.96-2.45-15.32-1.53-56.43 3.68-69.11-.89-1.53-3.3-.37-24.84 1.64-28.7 7.66-1.69 50.13-.83 62.48-2.03z"/><path fill="#fefefe" d="M1526.01 459.745c2.86 1 15.14.497 19.23.523l70.85.095c6.51-.005 25.4-.682 30.3.281 3.19 5.574 6.14 20.379 7.24 26.926-12.75-.586-25.34-.069-38.07-.195-15.1-.15-29.71-.811-44.81.046-5.96-1.066-31.72.077-38.79.212-28.31.54-60.69-1.049-88.68.19.22-6.739.01-19.481 1.45-25.143 5.35-4.118 68.15-.603 81.28-2.935m-1088.782-.088c5.88 1.818 24.109.677 31.411.626l87.071.102c8.059-.04 39.141-.756 44.349.231 2.214 4.18-.259 11.745 1.478 16.516 1.231 3.381 1.214 6.15-.651 9.174-6.488 4.506-22.974.279-32.117 1.502-2.698-.418-8.084-.01-11.21-.013-36.912-.147-73.866.021-110.78-.289-15.704-.131-33.7.799-49.197-.453-.365-.691 3.19-21.783 3.624-24.284 3.599-3.353 26.143-1.867 34.658-2.933zm238.834 832.063c1.891 1.43 115.588-.35 127.612.69 3.332.28 6.617-.34 10.768 1.27 1.45 3.89.909 21.62-.235 25.43-4.071 1.89-24.988 1.66-30.788 1.81-2.519-.74-22.924-.35-26.724-.35-15.714-.04-104.016 1.7-111.563-1.4-.187-.51-.375-1.01-.562-1.51.652-5.41-1.592-20.37.466-24 7.848-4.56 21.245.13 31.026-1.94m315.093.01c5.365 2.39 65.415-.14 77.265.74 2.57 1.81 1.78 1.81 2.64 6.04 4.02 6.24 32.37 8.62 40.53 11.82.94 3.05 1.93 6.97-.18 9.52-8.23 1.27-45.78.5-57.11.57-4.56-.77-19.56.13-25.23.13-19.89-.04-39.768.03-59.65.22-9.424.04-24.561.51-33.623-.19-2.383-4.17-2.439-22.03-.727-26.56 10.733-5.38 44.808 2.24 56.085-2.29m409.615.87 2.09.51c.69 1.78.47 22.94.58 26.81-55.15 1.01-112.29.05-167.65.34l-2.19-.38c-1.56-1.7-3.9-8.78-2.04-9.44 20.61-7.35 28.83-2.55 46.09-17.86 4.05.3 8.08.37 12.14.32 36.95-.37 74.06 1.49 110.98-.3m-478.13-18.29c.505-.15 2.665-.36 3.326-.44 2.034 3.4.693 35.76.332 42.29-.637 11.5 5.484 55.88-1.481 62.99-6.094 3-15.372 4.32-21.835 2.86-4.895-.08-14.33.13-14.206-6.91.575-32.56 1.407-64.72 1.093-97.33 9.547-.49 23.618-1.62 32.771-3.46m-254.484-27.67c32.025 4.29 72.446-2.38 104.986 1.54-.582-.07 10.994 13.79 16.142 15.79 5.611 2.19 22.461 6.18 25.721 8.83-.179 3.58.45 2.09-1.79 4.71-4.583 1.81-11.084.86-16.458.93-36.8-1.14-72.971-.25-109.757-1.35-10.084-.3-25.212 1.18-34.535-.44 9.913-8.67 12.084-17.68 15.691-30.01m153.995 27.16c11.275 1.57 24.569 2.32 36.064 3.14-.296 22.68-1.382 44.83-.122 67.65.493 8.93 1.527 23.03 1.088 32.31-.9 1.4-1.656 2.58-2.268 3.53-10.024 2.64-26.399 4.6-35.222-1.82-2.969-5.07-2.362-21.15-1.682-27.23 2.435-21.74 2.252-43.47 1.521-65.3-.146-4.37-.469-7.97.621-12.28M1503.56 118.743l.93 1.087c-1.2 17.318-14.23 64.362-23.1 80.25-2.81 5.044-46.95.745-54.37 1.716-2.02.265-5.37 4.792-6.8 6.553-8.62-5.224-16.4-10.833-24.63-16.65-6.76-4.564-11.48-8.635-17.68-13.883 3.49-5.032 63.52 1.206 74.29-3.08 23.97-9.542 39.16-35.316 51.36-55.993M1280.82 1245.98c22.11 1.89 53.27.42 72.41.68 36.92.48 22.44-4.06 37.27 25.81.74 1.5 1.62.64 1.9 3.49l-2.12 1.9c-8.58.87-113.11-.12-113.47-.39-.47-5.89.85-26.98 4.01-31.49M544.226 119.795c3.248 3.247 8.351 11.136 10.926 15.1 3.663 5.641 29.003 41.18 34.606 41.812 26.596 2.999 55.081-.214 81.761.544-4.538 4.486-10.832 9.313-15.876 13.407a790 790 0 0 1-22.195 13.428c-19.27-1.275-55.954 1.256-70.977-3.007a651 651 0 0 1-18.245-81.284m452.97 1127.815c3.324.84 9.234.03 13.294.13 18.12.4 37.21-1.29 55.13.94 4.1.51 3.59 23.35 2.5 26.83-5.77 5.35-47.87.28-59.03 2.57-15.038-2.79-60.48 2.58-73.451.06-5.111-13.34 32.955-7.36 36.874-26.86 4.752-4.4 17.626-3.35 24.683-3.67m-315.127-84.83c8.016 2.09 80.62.51 91.922.34.49 9.45 1.765 23.41-.523 32.58-.26 1.04-2.027 1.6-3.325 2.29-7.125-.65-15.266.16-22.624.22l-46.166.11c-6.083.02-17.249.47-22.729-.76-.934-3.72.579-31.48 3.445-34.78m289.812-.05q24.792.63 49.589.51c11.99-.08 32.24-.65 43.56.7-.14 10.35 1.48 20.47.61 30.58-.2 2.28-.32 1.74-2.23 3.1-19.53-.94-39.34-.11-58.9-.2-9.645-.04-21.312.54-30.728-.7-2.783-4.41-1.913-27.28-1.901-33.99m-221.738 44.87c3.586 1.65 16.199-1.56 23.194 1.86 4.027 5.9 1.774 6.97.869 13.5-.726 5.24 1.305 9.77-2.609 14.33-6.376 2.03-66.522 1.39-76.31 1-6.997-.21-22.52 2.57-24.552-4.77 3.125-8.18 2.066-18.65 5.092-23.98 4.115-2.14 63.99-1.26 74.316-1.94m363.677-404.488c34.27 5.148 93.36 8.778 126.89-.885 3.13 6.754 5.89 9.899 3.81 16.31-3.09 3.344-7.49 4.319-11.94 5.899-33.54 11.304-93.91 13.214-124.58-5.946 1.71-5.604 3.55-9.957 5.82-15.378M980.432 1207.09c9.292 2.48 77.538-2.69 84.918 2.39 1.03 2.93 2.82 25.15 1.88 28.56l-2.06 1.14c-30.34-1.14-62.63-.19-93.147-.45.17-10.22-1.838-20.12 1.001-29.2 2.662-2.58 3.136-1.89 7.408-2.44m59.548-90.47c6.62 1.54 17.46-1.37 22.69 2.92 2.04 5.42.79 23.15.38 29.47-20 .09-48.09 1.73-67.651.02-7.553.56-14.867 2.01-21.347-1.7-3.614-4.73-1.959-21.4-2.227-29.85 17.158-1.65 47.635.28 68.155-.86m249.14 89.93c25.75.88 56.84-.45 83.21-.75.83 7.5 7.43 27.81 1.75 32.16-2.72-.02-4.79.21-7.3-.82-4.13.99-20.19.43-25.4.46-20.44.13-40.96-.79-61.4.35.53-9.45.89-20.65 2.36-29.85 1.84-1.75 3.71-1.3 6.78-1.55m-188.78-364.067c45.19 21.451 107.7 22.167 152.49-.234 2.23 4.959 6.1 12.87 6.47 18.087l-1.72 1.531q-.78.445-1.59.857c-25.52 12.975-94.5 14.71-123.38 9.193-13.57-2.592-26.09-6.355-39.33-10.744 2.84-6.32 4.8-12.174 7.06-18.69m185.88 320.557c10.89.24 75.15-.44 79.87 1.69 2.78 7.54 1.86 21.71 4.02 30.51.21.76-.12.92-.57 2-2.64.86-77.32-.12-86.43-.17 1.46-9.2 2.28-24.34 3.11-34.03m-67.7 147.42c3.21-.48 2.33-.82 4.81.39 1.93 4.49 1.15 20.66 1.19 26.96.19 32.53 8.85 47.46-30.77 42.6-4.21-.52-8.83-.73-12.44-2.82-.92-2.31 3.92-26.08 4.26-31.35.72-11.27 1.44-23.07 2-34.42 10.32-.39 20.64-.85 30.95-1.36M761.941 966.368c4.515.662 12.137 5.583 12.241 10.625.206 9.976-.659 20.122-.393 30.107.829 31.08-1.2 62.68-.614 93.67l-12.464.9c-3.573.39-9.089-.47-12.822-.88-.3-22.51-.461-52.97.238-76.16.136-4.49 4.642.49 9.568-3.4 3.725-9.07 3.997-42.994 4.246-54.862M1121.4 1310.89l35.38 1.82c1.01 1.37.73 9.92.84 12.65.71 18.33 2.53 33.54 5.93 51.5-8.42 6.03-29.61 4.28-40.05 3.38-2.87-10.9-4.57-58.39-2.1-69.35M886.139 66.635c3.147 1.193 21.028 27.304 25.375 32.706-9.255 10.588-20.225 23.566-30.868 32.619-.535.417-1.776.505-2.594.657-3.11-1.956-18.463-26.46-21.931-31.639 10.114-12.897 18.899-22.271 30.018-34.343m275.301.896c1.87 1.684.59 1.185 1.59 2.496 8.65 11.326 20.15 21.525 29.21 33.198-8.37 5.981-19.71 22.17-26.2 30.844-7.72-5.736-18.41-20.735-30.96-30.581 5.88-8.651 19.59-29.071 26.36-35.957m-353.92 85.238c5.911 6.071 18.128 23.355 24.98 31.622-10.788 9.737-20.444 21.194-31.763 30.994-6.087-1.561-18.818-23.416-25.053-30.693 9.679-11.203 21.152-21.536 31.836-31.923m167.709 928.811c13.488 2.97 79.901-1.34 86.021 2.27 1.06 6.4 2.85 11.94.16 17.69-3.03 1.77-4.91.96-8.98.78-5.61.74-19.37.15-25.88.2-18.14.15-36.337-.25-54.514.27-.097-5.58-.581-12.47.155-17.9.291-2.15.818-1.88 3.038-3.31m225.391-968.891c7.34 9.077 21.22 24.773 29.53 32.424-7.44 9.572-15.84 22.023-23.86 30.448-10.05-9.363-20.94-20.879-31.34-30.747 8.4-9.841 17.5-21.879 25.67-32.125m-354.288-1.043c7.573 12.25 16.732 21.777 24.297 34.43-10.318 8.546-19.315 19.234-29.993 28.503-.913-.936-6.557-9.586-7.806-11.464-5.39-8.102-9.733-13.436-16.373-20.468 8.251-6 23.161-23.137 29.875-31.001m392.318 43.841c7.81 4.216 24.84 22.694 30.71 30.077-6.23 10.504-14.83 19.162-21.49 30.03-9.48-7.215-22.39-20.485-31.32-29.215 7.82-10.36 15.15-19.882 22.1-30.892m71.24-35.887c9.38 2.049 55.43-2.29 61.2-.068.63 6.046-1.96 25.07-2.27 33.138-.61 5.755.05 6.305-4.9 8.666-12.14.128-43.98-30.586-54.22-40.165zm124.44 96.649c8.04.385 57.82-.573 60.56 2.295-.05 6.609-4.3 17.296-6.84 23.525-4.29 2.581-48.35 1.006-55.97.877 3.58-8.287 5.36-11.756 2.67-21.633-.78-2.899-.83-1.776-.42-5.064"/><path fill="#fefefe" d="M1247.8 826.074c2.11 2.73 2.45 4.567 1.8 7.727-2.44 3.155-7.1 5.351-10.83 6.692-44.14 15.869-91.04 14.297-133.49-3.932-1.5-1.192-1.04-.85-2.1-2.561.91-3.262.87-4.357 3.32-6.406l3.23 1.141c44.56 15.621 94.72 18.209 138.07-2.661M675.145 122.116c4.946-.032 57.13.23 57.86.658-3.897 5.319-14.471 14.772-19.693 19.679-7.024 7.379-18.07 16.845-25.983 23.431a804 804 0 0 1-7.705-4.789c-2.398-10.816-2.019-25.701-4.231-37.675zm296.781 928.054c26.353 1.11 61.594.12 88.544.22.73 8.92 3.39 13.83-5.6 16.63-10.3-3.21-77.151 2.81-82.483-1.99-1.015-5.07-.628-9.7-.461-14.86m620.554-762.506c1.69 6.292-14.39 55.476-19.93 60.306-11.61 1.972-41.46-3.911-53.7-5.237-.95.011-7.11-1.289-8.56-1.488l.2-1.036c4.89-2.067 8.64-3.281 13.99-3.777 30.17-2.797 52.81-24.349 68-48.768M552.799 218.453c7.086-.897 9.282.712 15.273.459 14.188-.599 27.014-.262 41.122.135 1.924 5.476 5.529 18.344 6.039 23.8-10.463.262-43.854 2.109-54.325-.754-2.456-.672-7.713-19.044-8.109-23.64m743.491 737.248c8.7 40.971 4.05 82.969 5.87 124.439.27 6.26.67 13.7.41 19.85-1.63 2.35-10.68 2.21-13.45.73-1.46-10.15.93-27.48 1.09-38.48.54-35.53 4.26-71.176 6.08-106.539m-270.37-13.052c4.35 1.975 9.11 3.326 13.69 4.767-2.37 13.147 1.43 51.498-8.66 60.894-2.45-4.33 6.52-26.293 3.65-30.967l-2-.419c-5.21 3.324-10.37 20.881-8.65 26.896l-.74 1.02c-.18 6-.32 7.14-1.99 12.89-3.49-2.37-.09-20.132-3.1-23.662-4.25 2.625-5.69 13.352-10.34 17.462l-1.07-1.04c-1.4-6.62.27-8.13.35-14.073.27-19.638 10.45-35.758 18.86-53.768M861.205 637.558c16.648-2.208 38.783 1.686 53.417-.326 2.378 8.653 3.45 12.008 9.333 18.72-13.103-2.063-18.299-3.138-31.205-3.101-22.097-.254-38.622-.418-60.266 4.985 4.213-6.095 8.663-13.544 12.662-19.902 5.784.116 10.274-.037 16.059-.376m-19.072-41.774c1.61 1.193 8.098 8.778 10.271 11.018 8.082 8.335 18.716 11.535 30.198 11.271 15.424-.353 25.543-6.388 35.902-17.14-.826 4.203-1.534 8.589-2.271 12.825l-.945 16.618c-18.002-2.977-38.265-1.892-56.54-1.172-4.647.183-8.745 1.299-13.353.095-.83-2.504-2.492-27.438-3.262-33.515M455.136 292.735c21.083 20.67 30.962 37.151 61.9 44.461 3.088.729 10.711 1.221 11.758 3.992l-4.014 1.8c-10.746 1.963-24.949-.421-33.785.422-23.065 2.202-19.97-.22-27.399-20.47-3.976-10.839-5.875-20.32-8.46-30.205m859.314 650.538c9.01 1.395 26.57 69.387 25.12 81.097l-.99.14-1.83-3.78c-2.55-7.98-12.54-29.761-18.33-33.247-15.89-9.579-10.74-21.516-15.37-37.138-.41-1.36 0-1.349.61-2.878 3.59-1.423 7.18-2.821 10.79-4.194m-575.012 16.029c4.643 1.098 10.205 1.99 14.017 4.597 2.683 7.551-.586 39.781-1.24 49.201-1.955-7.69-2.605-22.837-7.203-27.381l-2.105.273c-3.05 3.05-3.442 6.986-4.518 11.348-5.088 9.64-9.389 22.9-13.097 33.43 2.636-30.53 5.837-41.772 14.146-71.468M1548.49 500.6c2.83-.049 8.98-.015 11.32 1.419-.85 8.458-13.34 56.255-15.79 65.398l-3.14 5.045c1.81-21.469-.13-51.861 2.39-70.723zm-1048.42 2.056c2.922.184 1.728-.326 3.872 1.106 1.727 19.999 1.078 44.257 2.245 65.403-2.395-4.705-3.079-7.876-4.44-12.955-3.011-6.597-12.466-44.589-13.548-52.143 3.3-1.832 7.88-1.369 11.871-1.411m325.161 64.872c10.655 6.212 11.724 17.196 12.604 28.972.162 2.164-3.412 4.556-4.986 5.692-15.913-2.839-20.9-23.001-7.618-34.664m109.746.966c18.223.11 9.142 24.808-.739 33.614-2.957.081-3.314.078-6.182-.557-8.634-7.243 1.433-25.876 6.921-33.057m661.233-127.966c10.26 1.635 32.15-.301 43.68-.056 2.87 1.852 1.9.614 3.03 3.841l-1.29 1.72c-9.65 2.198-31.25-1.048-43.38.44-10.76-.794-21.58-.264-32.24-.422-8.47-.125-6.83-1.33-16.46-.343-2.62-1.532-1.85-.531-3.15-2.707 9.21-4.715 38.96.847 49.81-2.473M865.902 1292.83c4.246.5 12.595.19 17.159.16l-.281 26.91c-5.813.19-11.853.07-17.686.05-.051-9.42-.254-17.74.808-27.12m259.888-715.31c17.18 3.655 12.74 19.93 8.88 31.959-15.99-.717-18.7-20.653-8.88-31.959m104.6.463c18.18-.869 15.74 23.415 4.31 29.872-.99.547-1.81.471-3.07.629-5.42-3.805-5.75-14.202-7.17-21.54 2.07-3.403 3.58-5.713 5.93-8.961m-355.507-84.456c28.208-2.933 50.345 4.416 57.744 34.502.658 2.674 1.639 6.964.197 9.287-2.464-2.491-2.155-3.828-3.107-7.589-5.013-18.84-17.754-27.909-36.387-32.053-11.777-2.618-18.358-.546-29.884.491l.179-1.269c4.392-1.99 6.57-2.342 11.258-3.369M1010.2 954.155c.43.273.85.545 1.28.817-1.35 4.798-4.32 7.585-6.35 12.551-2.02 4.951-2.92 13.502-5.586 17.341l-1.354-2.145c-3.278-7.343-6.08-15.772-8.809-23.402 6.823-1.457 14.029-3.432 20.819-5.162m169.67-453.883c14 .776 20.05 8.927 23.5 21.757.76 2.83.36 10.514-1.89 12.72-4.88-7.372 7.16-25.418-19.47-31.184-17.09 3.405-24.06 16.171-21.49 32.562l-1 .161c-6.88-7.19-3.38-18.822 1.85-26.147 5.1-7.145 10.21-8.693 18.5-9.869m-76.58 854.518c1.79 5.71 4.41 22.13-.44 26.34-3.67.76-5.67-.44-9.23-1.77-2.93-1.92-4.61-3.44-5.24-6.9 1.38-6.97 9.38-12.65 14.91-17.67m-158.942-.35c5.989 4.28 11.512 11.39 16.269 17.13l-5.608 7.49c-4.032 2.06-7.732 3.34-11.066-.07-1.898-6.81-.429-17.28.405-24.55m298.812.94c4.72 3.23 12.29 10.43 16.2 14.39l-6.53 6.94c-3.44 2.86-6.25 4.86-10.49 3.03-3.11-5.46-.2-17.77.82-24.36m-442.361 1.27 1.352 1.47c.362 7.21 2.261 17.41-3.561 22.45-3.565.12-4.226.33-7.493-.82l-6.406-8.39c5.898-5.98 9.376-9.6 16.108-14.71m366.051-19.59c4.34-.02 5.18-.06 9.29 1.2 2.09 4.05-2.83 27.52-3.41 34.77l-.09 1.2-.02 1.48-.41-.33c-1.78-10.38-5.17-28.33-5.36-38.32M414.085 442.848c2.645 1.144 44.739-.15 52.43.553l.642 1.704c-2.627 1.372-2.439.842-5.91.671-14.077-.121-27.009 2.206-41.032-.263-4.572-.805-10.964 2.289-17.401-.04l.28-1.285c3.344-1.658 6.674-.104 10.991-1.34m747.765 99.903 2.51 1.624c-1.52 3.833-11.13 8.766-13.93 13.236-3.87 6.165-8.25 14.636-9.59 21.673l-1.24-.208c-1.03-18.237 7.08-27.848 22.25-36.325m38.22 2.996c13.65-.034 21.18 17.34 23 28.774-3.26-1.674-6.81-10.349-9.96-14.606-4.76-6.414-7.22-8.802-13.04-14.168M1164 1312.15c4.86-.24 11.97-1.43 15.7.81 1.51 3.74.85 3.78.3 8.06-4.82-2.28-5.91-1.32-11.95-.69-3.34-2.41-2.81-3.51-4.05-8.18m-94.71-608.412c.49 3.15-9.07 40.144-11.08 42.558.39-1.987.55-1.979.2-3.825-1.81-9.702 5.62-30.417 10.88-38.733m-23.4 249.706c6.99 4.121 9.01 10.764 10.72 18.193-12.1 1.797-10.72-9.755-10.72-18.193"/></svg>