<svg xmlns="http://www.w3.org/2000/svg" preserveAspectRatio="xMidYMid meet" viewBox="0 0 2048 1462"><path d="M1840.92 136.557c1.57.065 5.09.152 5.97 1.499 24.13 37.685 53.49 76.665 53.09 123.674-.52 59.948-43.59 95.419-82.81 133.537 7.8-4.03 14.8-8.394 23.4-10.649 29.47-7.729 61.94-2.421 70.12 31.275 6.57 27.058-.98 47.395-14.27 70.368 29.63 32.562 16.44 67.476-3 100.904a50.83 50.83 0 0 1 14.63 21.232c9.08 25.802 2.12 48.364-8.96 71.29 33.21 35.406 29.3 74.518-.72 110.715 9.02 9.118 17.12 18.799 20.1 31.581a72.44 72.44 0 0 1-9.13 54.588l.83 1.55c9.52 17.954 12.32 29.086 8.81 49.59-4.17 24.335-13.95 42.204-36.07 53.893 29.07 39.386 54.92 99.416 26.86 145.676 14.94 21.88 23.57 54.72 3.31 76.14 5.14 5.36 11.78 13.86 13.72 21.05 12.89 47.65 2.34 86.46-44.54 104.49 5.98 3.98 10.6 6.3 10.93 14.43-2.34 3.06-8.15 3.36-10.93 1.81-14.72-8.16-33.06-18.18-47.47-26.19l-110.51-61.84-410.3-228.18c-6.67 6.35-9.79 3.63-13.26 7.97-.5 3.51 2.69 8.34 4.48 11.86 23.39 11.72 23.44 30.52 32.6 53.24 6.37 15.77-.06 18.62-.76 32.11 4.1 10.36 14.8 10.25 18.36 17.59 9.61 19.79 18.18 42.44 24.22 63.63 1.36 4.74.11 14.65 1.72 21.67l.31 1.31c16.61 4.51 21.01 9.99 28.55 25.31 6.47 13.16 12.79 26.48 19.14 39.71-.76 14.05-4.75 15.06 2.02 27.46 6.21.9 17.88 2.69 21.08 8.36 5.3 9.41 39.43 51.22 29.43 59.1-12.55.91-34.79-47.97-41.66-49.92.54 3.27 1.76 15.73 2.47 17.07 4.17 7.85 19.49 25.58 20.87 33.44-1.78 3.49-.86 2.28-4.18 4.55-10.03.12-17.82-22-24.31-28.38-1.74-1.72-6.83-3.18-10.8-5.94l-.84-.59-.65 1c-.01 8.84 18.14 22.65 21.04 34.62-.63 3.61.11 2.29-2.77 4.73-1.17.23-3.78.99-4.75.42-8.89-5.17-21.95-28.71-26.26-37.83-1.24-6.72.9-10.95-1.6-17.52-5.51-14.49-15.69-13.92-22.29-18.81-12.73-9.43-31.24-51.47-33.71-66 1.61-4.23 2.85-9.54 4.03-14-3.58-5.52-4.1-8.03-5.48-14.24-7.76-4.84-16.24-9.72-19.54-18.71-6.46-17.67-24.51-43.38-18.57-62.22-.98-2.36-4.82-11.75-6.13-13.35-6.41-7.47-14.22-13.02-18.32-22.28-3.3-7.28-5.91-14.92-8.61-22.44-5.49-15.27-9.04-23.59-3.6-39.2-5.12-11.58-9.28-21.11-16.37-31.62-35.02-.17-59.74-27.33-66.18-60.482-.83-4.297-.39-9.413-2.7-13.204-.03.033 22.55 338.556 23 374.846.16 12.81 7.16 58.84-.68 65.06-11.78-.94-9.84-39.64-10.42-49.82l-4.33-73.86c-2.35-44.61-6.59-91.03-8.51-135.09l-.54.26-2.32 1.13c-10.82 5.27-35.1 12.05-47.11 14.69-84.86 18.69-188.946 12.23-270.813-15.57-.84 36.49-1.895 72.97-3.163 109.45-.989 49.07-2.656 98.13-5.001 147.16-.164 2.93-1.658 4-3.753 5.93l-3.422-.17c-8.037-4.96-4.195-15.16-4.064-23.56l1.814-81.37 5.012-163.69 2.768-84.49c.461-11.95.359-30.69 2.652-41.61-3.849 3.54-9.172 9.97-13.473 14.05-16.722 15.87-29.78 20.93-50.809 27.4-2.153 6.9-4.699 13.97-7.055 20.82 2.655 8.94 3.414 14.55.367 23.69-8.142 24.42-8.131 42.4-31.33 56.66l-3.62 14.94c.434.69.855 1.39 1.263 2.09 8.172 14.06-14.115 59.23-23.54 71.59-1.167 1.53-6.932 4.88-8.938 6.03-2.066 5.58-3.595 9.18-6.2 14.51 4.833 18.05-.544 27.14-8.637 44.01-9.623 20.05-11.79 31.6-33.01 39.35-1.528 2.39-8.664 13.11-9.056 14.73-3.764 15.63-9.461 28.1-18.507 41.38-2.486 3.65-4.499 6.88-9.255 7.83-3.597-1.16-2.351-.31-4.736-3.19-1.066-7.03 11.353-20.67 16.075-30.45l.546-1.15c-4.515 3.09-8.804 5.31-13.624 7.9-1.409 5.16-2.334 8.11-6.712 11.59-2.557-.15-3.696-.46-5.701-2.92-5.205-6.39 3.811-7.74 4.142-15.79-3.567-5.56-2.446-5.21-.651-11.33l-1.152-.02c-11.243 8.1-24.769 47.81-36.992 47.66l-1.674-1.95c-2.125-11.15 24.685-47.44 33.64-55.67 2.264-2.08 8.423-4.24 11.508-5.32 3.623-4.75 8.673-11.12 11.506-16.27 2.123-3.85.016-11.69 1.842-16.47 6.221-16.29 14.989-34.3 22.804-49.8 6.749-13.4 14.901-9.83 22.671-27.59-4.002-8.09-1.71-18.92 1.789-26.94 7.691-17.62 10.582-40.71 25.835-53.5 6.25-5.24 7.691-8.24 10.536-15.74-2.245-7.84-3.216-12.53-.421-21.04 5.838-17.8 10.143-38.65 19.127-55.09 1.17-2.14 9.626-7.03 12.082-8.51 1.178-5.71 4.193-15.58 5.818-21.49-8.305 3.68-17.14 8.94-25.419 13.1-38.039 19.08-76.013 39.11-113.593 59.06l-276.935 147.81a4974 4974 0 0 1-122.246 63.86c-14.591 7.41-41.764 22.42-55.888 27.9-3.62-.86-2.33-.11-4.847-2.91-1.185-4.01-.452-6.16.237-10.3-4.836-3.05-9.394-6.64-13.313-10.9-18.873-20.54-23.142-58.56-7.984-82.23 1.813-2.83 6.565-6.83 9.206-9.13-15.256-15.06-24.123-29.4-24.339-51.26-.183-18.54 2.852-25.27 15.045-37.95-20.318-24.12-26.435-48.42-8.021-76.16-16.203-21.88-14.272-39.81 1.203-61.29 10.011-13.893-23.628-23.159 1.972-58.672-25.168-21.06-34.756-38.894-35.313-72.602-.403-24.419 6.112-44.6 23.307-62.286-13.387-17.438-25.699-43.469-16.95-65.731.769-1.956 5.616-7.182 7.232-8.984-.423-4.319-5.22-4.736-6.374-7.211-10.476-22.486-16.328-60.433 7.341-76.924-17.273-19.901-24.562-72.046-3.897-91.365 3.076-2.875 7.328-4.804 11.117-6.55-31.19-47.588-7.704-157.439 69.307-129.015 4.47 1.65 12.984 9.133 17.371 9.011.786-2.803 1.482-53.722-.806-56.221-6.203-6.773-33.23-25.983-30.04-37.758 8.987-5.55 24.643 13.324 29.483 20.102.007-20.779 3.864-27.644 25.382-27.857 24.917 13.324 18.143 35.457 18.519 59.995 6.559 5.953 14.398 11.55 21.124 17.741 15.226 14.013 30.602 27.981 45.753 42.061 6.972-18.221 15.756-20.426 33.502-14.321 13.555 13.378 7.247 25.511 8.979 42.24 1.004 8.11 10.464 15.899 16.826 20.734 38.458 29.228 76.39 66.19 115.7 93.64-5.665-6.703-9.727-10.913-7.31-20.437 7.778-9.701 17.896 10.411 19.72 17.112-1.214 3.312-1.325 4.261-3.608 6.813-1.488-.047-2.718-.074-4.207-.027 6.455 6.601 23.143 19.004 31.035 25.297l70.906 55.494c55.182 42.689 109.211 86.629 164.673 128.835 3.314-9.521 5.696-19.164 8.096-28.941-10.964-9.306-26.131-29.264-35.714-41.066a2929 2929 0 0 1-55.153-68.981c-12.23-15.675-25.053-30.818-37.117-46.58-3.907-5.105-9.462-12.811-4.173-18.213 3.588-1.132 8.112-.613 10.629 2.474 42.373 51.994 83.576 105.232 125.921 157.249 7.319-24.286 11.817-46.875 24.404-69.354 20.271-36.202 44.534-54.584 83.833-65.875-13.804-16.867-31.988-25.287-42.916-42.16-13.886-18.657-11.883-59.94 2.634-77.139 21.865-25.903 21.963-30.691 26.206-63.481 5.922-21.509 25.279-43.167 39.041-59.218 32.435-37.827 76.143-69.296 128.411-54.32 40.12 11.493 57.23 37.638 75 72.219 9.96 19.368 25.69 35.713 28.77 58.477 3.18 19.802-.22 36.945 1.96 56.585 1.76 16.155 8.56 31.464 8 47.504-.83 19.642-6.76 38.933-12.13 57.737 5.16 1.893 12.02 2.601 17.41 3.599 10.87 2.012 18.02 4.466 27.64 9.568 58.03 30.775 59.92 66.401 77.19 120.66 10.68-18.697 164.79-242.22 170.29-245.901 2.2-1.472 4.23-1.415 6.74-1.027 3.19 2.286 2.24 1.033 3.56 4.727-.89 7.553-53.35 79.961-62.28 92.584a6282 6282 0 0 0-61.89 89.821c-16.34 23.745-36.39 51.894-51.9 75.944.06 7.442 7.86 32.398 10.48 40.922 22.13-19.735 138.32-138.621 149.49-142.478 2.54-.877 3.56-.804 5.88.358 4.87 9.259-7.7 17.541-13.87 23.473q-13.83 13.17-27.45 26.537c-36.91 36.377-72.52 72.158-110.37 107.66 1.05 5.128 2.83 10.999 4.25 16.122 8.47-5.812 19.75-15.53 27.88-22.184l54.63-45.336a13351 13351 0 0 0 203.73-175.386c19.21-17.045 36.65-37.753 57.04-53.964 6.88-5.473 12.5-12.319 19.94-17.727l.97-.695-1.04-2.117c6.93-23.601-9.87-31.981 16.67-48.923 11.62 1.604 15.46 4.547 20.53 14.887l17.71-18.285c-4.05-11.527-9.21-24.825-15.67-35.053-16.49-25.746-40.44-43.827-42.58-76.432-3.73-56.894 48.29-75.816 76.07-115.182 2.77-4.462 4.35-15.094 11.79-13.377 10.44 2.407.4 24.685-1.68 30.035-5.85 15.012-13.7 28.637-18.87 43.818 17.67-23.992 39.06-34.761 58.66-56.542 7.98-8.87 12.29-28.226 17.69-31.747 3.93-.038 2.44-.298 6.07 1.93 2.25 4.301.26 23.028.19 28.896-.15 11.294.96 21.777 1.99 33.017 2.98-7.888 7.3-19.687 11.19-27.026 11.8-22.031 24.79-43.54 26.32-69.242.83-13.836-2.62-28.382-4.43-42.112-.67-5.095-.19-5.402 2.86-9.596"/><path fill="#fff" d="M1100.48 632.967c66.56-.704 122.32 13.599 145.32 83.403 9.13 27.733 15.63 55.126 23.11 83.24 7.77 29.228 15.8 58.389 24.07 87.48 8.59 31.007 19.12 69.296 2.37 98.892-7.53-17.256-8.38-30.834-23.77-44.495-4.91-4.358.29-17.529.09-24.733-.46-16.913 7.36-43.55-3.24-57.902-13.38-14.365-59.06-15.217-78.09-15.75-.42-12.1-7.44-82.229-12.44-87.456-3.35-1.427-2.16-1.479-5.25-.791-6.84 9.175 4.84 74.143 6.9 88.923-6.04 1.602-11.96 2.002-18.16 3.103-10.25 1.819-13.54 13.001-15.08 21.974-2.01 11.664-5.72 24.112-2.67 35.876 2.43 9.347 9.84 8.722 16.86 12.859 4.47 2.77 4 15.719 5.07 20.128 1.31 5.129 6.95 8.269 11.11 10.958 5.92 56.144 10.06 122.104 12.29 178.384-22.84 6.74-40.6 13.27-64.98 17.77-68.63 12.67-158.152 8.98-225.272-10.11-11.344-2.55-17.854-4.97-28.218-9.44-.839-17.83.769-43.17 1.514-61.64l4.958-111.289c10.424-13.211 9.274-16.224 9.836-32.894 8.434-1.21 19.014-5.33 19.543-15.158.783-14.556-2.007-34.706-6.752-48.452-1.844-5.341-15.784-4.814-20.644-5.526-6.263-5.833 6.659-79.909-.438-92.103-10.881-4.335-8.552 10.816-8.985 14.943-2.538 24.218-3.718 49.481-4.181 73.873-16.888-.522-59.551.39-72.903 8.909-28.804 18.379-19.849 89.761-4.553 114.261-5.924 17.237-10.953 30.876-14.624 48.686-3.96-3.06-8.559-6.53-10.915-11.12-20.34-39.558-3.928-100.165 6.074-140.967 6.647-26.343 14.28-51.008 21.504-77.342 16.243-59.201 29.384-128.001 97.253-148.449 7.733-2.33 56.071-7.949 62.85-6.192 1.341 2.625 1.212 4.259 1.456 7.266 8.299 11.626 15.881 20.318 28.904 26.548 22.993 11 51.513 13.203 75.583 4.576a78.4 78.4 0 0 0 44.5-40.243m754.26-458.575 1.11 1.082c56.06 85.735 32.01 141.736-41.83 203.176 1.89-14.412-.99-23.899-18.57-21.935-34.27 3.826-13.52 44.56-22.69 57.992-11.24 16.483-35.97 33.271-49.04 49.92l-.75.969c-5.25-8.815-9.34-22.771-14.75-30.394-30.47-42.947-64.07-66.736-26.47-120.046 10.92-12.767 25.15-25.462 37.62-36.895-11.57 22.004-16.1 46.894-11.53 71.428 1.26 6.747 5.61 12.189 12.88 10.223 5.17-5.823 2.17-17.784 3.53-25.424 3.68-20.542 21.62-37.945 36.67-50.36-7.47 11.036-25.61 42.779-23.07 56.31.62 3.312 2.68 4.308 5.13 5.618 8.89-1.436 9.4-19.812 12.63-26.723 4.14-8.871 30.18-54.41 34.54-57.441 4.21 8.406 1.54 40.639 16 46.897 3.24.229 3.45.357 6.12-1.227 3.56-4.307 4.42-9.782 5.01-15.192 2.56-23.638 18.81-41.939 27.91-63.288 7.36-17.253 9.82-35.949 9.55-54.69"/><path fill="#fff" d="M1796.92 369.102c7.76 4.256 3.8 11.361 4.42 18.406 1.67 19.056 1.34 38.141 1.37 57.24.03 9.831 1.47 19.965 1.45 29.749-.13 44.277 2.62 88.454 2.47 132.733-.02 5.869.79 11.361 1.4 17.056.33 3.069-1.81 6.433-1.69 9.984l6.02 241.104 2.39 77.714c.16 6.244 1.28 11.646 1.72 17.776.12 1.796-1.66 3.933-1.57 6.626 1.69 53.24 3.98 107.81 5.21 160.98l2.07 90.75c.34 17.52.42 43.87 1.88 61.02-.49 1.94-.97 3.88-1.41 5.84-.27.03-.54.11-.81.1-4.33-.05-24.18-12.04-26.86-15.88-1.7-2.46-3.72-124.31-3.95-135.64-2.35-99.16-3.23-198.343-2.65-297.523 0-9.834-1.41-19.678-1.7-29.405-.15-4.945 1.62-11.931 1.47-17.175-.33-28.723-1.98-57.882-1.48-86.601 1.85-101.889-2.17-203.738-.13-305.608.34-16.886-5.33-29.697 10.38-39.246M233.317 343.999c2.732.63 6.305 1.08 8.238 3.304a16.33 16.33 0 0 1 4.038 11.427c-.786 21.303.094 44.284.161 65.701l1.064 141.024 4.37 367.129c.947 58.733 2.547 117.306 2.354 176.076-.113 34.31 1.123 69.08.929 103.52-.141 25.04 1.568 50.81.517 75.74-5.134 3.25-18 12.19-23.388 12.39l-.238-2.2c-1.948-10.51-1.567-34.78-1.589-46.41l.027-83.38.259-377.857-.003-136.95c.075-17.474-1.682-35.714.862-52.861-.844-5.691-1.991-6.88-1.806-12.777 1.929-61.338 1.482-123.212 1.554-184.617l.135-34.299c-.015-6.619-1.758-20.338 2.516-24.96m820.193 70.699c2.32 2.111 5.89 11.029 7.4 14.539 8.1 18.802 19.25 39.078 33.48 53.916 1.32 1.381 16.51 10.21 18.86 11.588 4.46 30.831-19.27 22.546-22.1 30.922-10.07 29.826-28.39 49.954-61 58.931-14.4 3.965-29.72-4.98-43.567-14.518-11.326-7.852-18.077-16.213-22.714-29.136-2.196-6.118-5.243-14.671-9.827-19.267-1.844-1.85-9.041-1.476-11.442-2.954-17.589-14.274 16.307-39.284 28.958-41.854 1.036 1.868 1.279 2.688 3.1 3.844 3.548-1.34 10.773-4.474 14.24-4.76 6.545-.54 16.562 7.905 20.552-1.071-.99-11.876-14.044-9.971-22.802-9.855 26.372-14.653 47.672-26.622 66.862-50.325"/><path d="M1052.1 463.354c10.76-.78 23.23 1.304 30.03 11.76.85 1.317.27 1.61-.32 3.022-3.54 1.502-6.15.341-10.05-.572-10.73-2.375-27.23 2.236-33.51-3.895.55-8.183 7.32-8.893 13.85-10.315m-51.37 77.05c16.23 2.55 27.24 3.42 43.84 1.111 1.66-.232 2.43 1.41 3.1 2.542-.46 2.962-1.92 3.858-4.18 6.125-9.79 3.821-45.07 8.169-42.76-9.778m-16.777-56.41c15.083-.42 18.387 14.904 3.312 19.222-12.133-2.07-12.543-12.835-3.312-19.222m70.577 1.005a9.31 9.31 0 0 1 9.32 2.147 9.315 9.315 0 1 1-15.44 9.169 9.32 9.32 0 0 1 6.12-11.316m-35.43 6.445 3.77 2.771c3.38 6.021-.78 16.885-2.48 24.019l-3.4-.274c-6.45-6.171-1.3-19.505 2.11-26.516"/><path fill="#fff" d="M342.858 446.714c4.718.909 11.576 1.609 11.894 7.909 2.936 58.178 3.251 116.449 5.45 174.683.916 24.255-.656 46.656 2.633 71.134-2.697 3.744-1.857 5.521-1.604 9.831 1.078 18.315 2.329 37.205 2.587 55.537l5.438 293.342c1.314 54.67 4.545 113.64 3.804 168.04-7.172 4.21-14.601 7.86-22.02 11.62-1.233-17.85-.157-42.42-.479-61.17l-1.949-167.4-3.668-324.669-2.469-180.073c-.094-10.726-1.88-52.65.383-58.784m1329.902 45.782c3.43.767 3.85.684 6.39 2.922 3.52 10.537 1.18 137.794 1.33 158.863l4.34 329.692c.09 5.989-.88 12.381-.77 18.227.46 23.24 1.16 46.54.15 69.77-.13 2.96 1.79 8.15 1.65 9.98-.26 13.2-1.65 27.93-1 41.06 1.56 31.36.56 63.44 1.74 94.69l-1.16 1.11-3.57-.59c-5.19-2.8-11.19-5.21-14.03-10.27-.79-5.85.23-40.29.17-49.31l.25-151.7 2.69-322.487.89-128.313c.01-13.27-2.98-52.645.93-63.644M842.853 859.551c11.383-.684 16.408-.657 27.454 1.948.876 3.115 2.881 9.347 1.926 12.537-.616 2.056-48.214 3.574-56.875 8.502-.831.473-.75 1.168-1.003 2.045 6.95 11.143 42.287-2.518 57.535 2.56 1.525 1.94 1.407 13.577.427 13.965-11.827 4.692-48.321 1.795-57.46 8.848-1.486 3.479-1.246 1.715-.707 5.492 8.916 8.089 44.256-4.597 58.444-2.054 1.626 2.135.379 6.595.014 10.072l-19.252 4.28c-2.884.302-28.58 5.043-31.07 7.336-1.51 1.391-1.277 4.196-1.076 6.276 6.884 5.765 40.046-6.068 54.012-5.551l.981.046c-12.503 11.154-29.279 12.567-45.007 17.696-5.632 1.837-29.066 12.112-33.639 8.132-6.903-6.006-9.597-23.222-10.06-32.655-2.864-58.396-1.938-66.291 55.356-69.475m334.797-4.363c12.22 2.613 36.34-1.772 50.43 2.482 5.39.366 30.92 4.975 32.16 10.797 4.35 20.386-1.87 64.174-4.69 83.951-1.35.435-2.7.849-4.06 1.243-18.28 5.246-58.37-8.67-73.82-17.251l-.64-3.684c3.71-4.653 43.23 9.875 54.2 5.016 1.82-2.734 1.45-1.246.95-4.661-4.05-5.192-9.36-5.073-16.17-6.374-7.44-1.707-36.79-4.722-40.15-9.511-1.48-2.103-1.93-3.055-1.62-5.56 7.94-7.6 45.22 5.929 58.02-.077 2.05-3.062 1.49-1.722 1.79-5.439-8.29-11.254-67.55 2.13-59.45-20.241 3.75-10.35 52.1 3.449 62.41-2.63 1.98-3.334 1.57-1.787 1.23-6.01-5.55-5.443-53.56-6.079-63.58-6.165 1.34-5.468 1.11-10.529 2.99-15.886M370.417 506.509c5.162 2.773 17.577 13.726 22.88 18.192 17.134 14.429 33.28 28.972 50.835 42.971l66.77 52.176c13.507 10.727 27.339 22.763 40.767 33.088l79.979 61.232c7.18 5.563 27.744 19.495 31.752 25.661-14.93-3.565-132.56-87.766-149.565-99.116-6.221-4.151-25.476-16.457-33.093-21.467-15.388-10.122-31.543-22.503-46.881-33.048-20.867-14.347-42.196-28.5-62.698-43.302-.726-12.342.017-23.827-.746-36.387m689.083 79.614c2.06 1.291 1.27.805 1.19 3.697-.39 15.703-1.15 35.49 4.58 50.149 4.15 2.074 8.39 4.352 12.53 6.5-28.57 20.783-56.23 26.058-89.332 11.575-7.341-3.601-11.597-6.557-17.808-11.749 2.775-.961 7.352-2.356 9.313-4.394 10.799-11.222 8.914-39.489 9.055-55.069 26.212 17.439 44.362 12.128 70.472-.709M258.343 410.538c4.46 1.968 18.412 15.58 22.692 19.433 14.566 13.11 28.584 26.331 44.174 38.265 3.407 2.607 2.381 28.113 2.375 33.486l-.261.497-1.433.238c-20.326-13.591-38.868-29.268-60.267-41.641-9.691-5.604-5.873-37.496-7.127-48.949zM1657.82 547.006c-.76 6.241-.86 6.837 0 12.939l.37 2.707c-7.08 9.6-120.17 103.18-130.28 108.438-8.2 6.865-31.23 26.578-38.93 30.747l-.5-.844c10.09-6.996 25.68-23.732 35.97-32.505l2.22 1.204c1.1-6.209 35.79-34.622 43.26-41.757 28.58-27.301 59.51-53.508 87.89-80.929M859.513 957.684c1.097.427 2.948.695 3.054 1.982 2.862 34.798-23.046 59.064-52.401 71.374l-2.111-.01c-1.669-4.28 3.155-19.34 4.551-24.74 39.555-12.278 31.188-39.084 46.907-48.606m345.257 3.019c9.15 6.379 9.98 19.872 16.77 29.129 8.86 12.068 21.48 14.308 35.33 16.508 1.86 4.5 3.45 7.56 5.73 11.86-27.38 9.29-58.07-32.1-57.83-57.497m567.25-525.949c2.37 2.88.67 12.937.27 17.281-6.63 4.781-14 8.624-20.7 13.627-7.71 5.752-14.32 11.896-21.36 18.373-1.18-2.118-1.46-3.019-2.23-5.242 1.61-3.114 39.58-39.767 44.02-44.039m-448.11 736.196c4.1 5 7.1 6.25 12.75 9.09 5.31 11.2 12.8 23.41 10.62 36.17-.54 3.15-.45 6.16-.45 9.34l-1.11.18c-3.83-3.04-19.22-42.67-22.43-49.67-.47-1.02.24-3.9.62-5.11m391.61-680.141c1.16 1.563 4.51 9.614 5.51 11.896-7.99 8.282-17.02 15.427-25.36 23.744-.84 1.166-.25.729-1.9 1.084-.82-3.655-.58-11.479-.58-15.581 6.69-7.223 14.97-14.449 22.33-21.143m-326.5 760.821c5.98 3.56 30.4 52.61 29.87 59.89-1.95.27-1.51.18-3.52-.09-10.65-10.68-21.6-45.24-26.35-59.8m-633.579-126.91c3.744 4.22-13.637 47.74-19.436 52.19l-1.725-2.02c.859-9.58 13.596-45.41 21.161-50.17m105.952-609.894c1.121 1.533-1.382 16.522-2.11 18.593-8.788 25.011 5.883 36.65 10.564 55.549-22.385-17.989-20.972-50.715-8.454-74.142M673.808 1313.86c4.334 4.58-13.442 29.1-16.338 34.33-3.297 5.96-8.351 10.87-13.765 14.97l-1.44-.44c.049-6.31 24.861-41.93 31.543-48.86m48.86-147.09c-.467 19.12-9.947 40.45-21.384 55.56l-.638.2-.823-.95c1.661-8.57 16.562-49.46 22.845-54.81M838.59 964.269l.858 1.099c-3.351 9.956-13.097 22.077-22.937 26.396l-1.101-1.845c.224-4.155 4.521-15.738 6.026-20.633 4.549-2.034 12.114-3.716 17.154-5.017m46.66-103.874c6.749 3.935 9.558 34.355 8.63 42.628-.259 2.309-5.514 4.033-7.524 4.772-1.434-8.43-.944-34.513-2.376-44.754zm515.87 452.325c5.09 3.43 23.43 32.06 28.16 38.8 2.34 3.34 1.54 5.32-.06 8.58-5.42-5.41-26.57-34.84-30.36-42.71-.79-1.63 1.11-3.25 2.26-4.67m-110.05-240.11c4.12 3.11 5.63 4.47 10.42 6.41 3.78 9.95 9.58 23.06 8.88 33.44-2.62.83-1.39.9-3.82-.03-6-7.22-13.19-30.26-15.48-39.82M1163.1 858.587c1.31 2.524-.93 27.803-.57 32.475.34 4.255 1.07 11.494-1.59 14.864-12.37-6.014-4.28-42.041 2.16-47.339m96.81 105.923c5.95 4.433 17.55 40.94 18.55 49.23-2.29-.33-5.16-.41-6.06-2.29-4.55-9.57-13.84-37.427-12.49-46.94m-474.639 71.13.967 1.15c2.353 8.03-8.381 39.75-15.422 45.16l-1.197-2.04c2.531-11.88 8.216-34.73 15.652-44.27m-69.952 187.88c.876.83 1.076 1.41 1.724 2.49-.782 7.77-14.17 37.04-18.819 44.21-6.958-7.13 12.086-39.24 17.095-46.7m-31.45 36.75 1.919.79c.977 5.12-21.631 44.49-27.079 50.72-.65.77-.217.43-1.422.85 1.523-8.16 20.005-46.21 26.582-52.36m673.821-36.79c2.12.79 3.2.75 4.34 2.58 5.2 8.35 19.93 31.46 18.83 40.54l-2.16-.84c-6.48-8.69-20.62-31.36-21.01-42.28m-78.67-200.28 2.34 1.27c2.54 5.8 13.79 32.7 14.48 37.45l-1.47 1.67c-7.19-4.05-16.22-27.97-17.82-35.81-.47-2.29 1.05-3.06 2.47-4.58m34.77 101.27c5.37 2.67 14.32 22.51 16.87 28.73 1.98 4.85 3.25 7.28 1.19 12.13-1.17.27-.68.13-2.19-.5-7.39-13.33-14.29-24.97-15.87-40.36m30.26 32.13c5.71 3.77 17.75 41.33 20.07 49.47-10.15-10.07-13.06-22.79-18.84-35.69-1.31-2.93-.78-9.66-1.23-13.78m20.57 112.91c.85.51 2.72 1.67 3.06 2.55 5.59 14.28 19.03 38.77 23.13 52.43-6.8-3.27-25.57-45.91-26.19-54.98m-607.517-198.93 1.213 1.42c.619 8.4-12.453 41.28-16.176 50.72l-.885-.53c-1.608-5.76 12.43-45.33 15.848-51.61m553.317-6.93c4.45 4.78 19.84 47.93 17.67 53.66-6.39-13.05-17.28-39.42-17.67-53.66m-621.741 218.87c3.564 2.6 3.426 1.63 4.465 5.02-1.485 7.03-6.318 14.22-9.986 20.66-9.589-3.54 2.234-19.72 5.521-25.68M797.74 978.875l.431.478c1.909 6.135-8.167 35.587-10.992 42.407l-1.374-1.36c-1.622-6.18 9.36-34.859 11.935-41.525m-67.096 210.175 4.174 1.74a1700 1700 0 0 0-8.909 25.4l-3.385-2.89c-1.83-5.18 5.531-18.24 8.12-24.25m31.499-92.37c3.804.52 3.795-.16 5.75 2.01.191 4.1-3.219 12.97-4.533 17.96-5.951-2.92-6.911-3.34-4.636-10.56.996-3.16 2.254-6.31 3.419-9.41m44.635-111.834c-.097 5.676-7.463 38.224-9.488 44.354-3.691-6.74 6.46-36.689 9.488-44.354"/><path fill="#9d9c9c" d="M710.275 1272.67c.399.38.87 1.45 1.164 2.01-1.09 4.91-13.615 29.11-16.534 35.48l-.924-.59c4.288-12.08 10.839-25.14 16.294-36.9"/><path fill="#fff" d="m746.917 1176.4 2.19 1c1.111 3.66-5.21 16.99-7.053 21.21l-.68.78c.278-7 2.452-16.61 5.543-22.99m37.618-93.66c.856 7.49-5.669 21.73-8.88 28.56-1.469-6.99 5.886-21.52 8.88-28.56m599.255 197.73 2.51 1.13c3.36 4.86 6.44 11.84 7.84 17.58-3.31-3.02-8.75-14.33-10.35-18.71"/><path d="M226.54 132.596c.653-.026 4.486-.097 4.79.084 60.772 36.205 92.119 108.359 112.153 173.305 2.349 7.616 7.568 38.46 8.721 40.005.113-.1 19.677-38.317 22.955-43.57 16.829-26.963 38.827-50.141 66.428-66.277 5.102-2.982 11.323-6.859 17.205-7.939 3.366-.618 4.855.338 7.423 2.202.948 4.329-.577 6.796-2.961 10.316-14.587 21.533-25.35 44.525-25.079 71.119.234 23.012 11.475 44.241 17.862 66.163 7.999 27.453 12.069 52.676 12.26 81.285a206 206 0 0 0 9.107-13.233c23.443-37.819 33.793-72.362 15.038-115.37-2.759-6.327-7.208-11.698-2.705-18.06l2.476-.392c4.495 1.462 8.073 4.354 11.324 7.729 39.838 41.361 57.286 86.928 57.856 143.7 17.626-19.792 19.669-26.807 22.092-52.046.146-1.52 2.149-2.263 3.445-2.819 7.315 2.902 11.268 20.563 13.377 27.311 8.988 28.752-.008 54.527-16.231 78.438-4.943 7.286-7.289 18.955-7.127 27.597-.831 28.719 21.173 37.094 31.173 58.869 1.146 2.496 1.229 5.667 4.442 7.704.932-8.023-.771-21.854 8.039-25.086 14.789 4.68 18.916 72.635 2.905 85.483-3.626.837-1.944 1.052-5.226-.61-3.53-5.43 3.508-24.784 3.637-32.952.098-6.217.123-11.843-.068-18.152-2.804 7.624-7.847 21.905-16.24 23.872-6.923-3.294.421-20.394-2.382-26.331-7.382-15.638-19.302-23.227-28.883-38.725 1.696 6.839 4.688 14.445 1.491 20.569l-1.96.478c-12.49-7.335-12.231-43.63-10.449-56.183 2.099-14.79 4.032-24.667 11.613-37.58 9.077-15.143 20.385-37.023 14.304-55.203-9.389 16.519-15.214 21.92-28.955 35.135-4.487 4.315-8.611 20.826-15 22.636-1.892-.613-2.966-.512-3.832-2.316-3.299-7.548 2.342-16.404 3.896-23.677 3.593-16.823 2.446-34.969.001-51.852-4.203-29.036-18.669-55.046-33.88-79.647a110 110 0 0 1 3.41 24.35c1.415 41.684-26.476 81.049-49.608 113.95-1.512 2.152-3.348 2.312-5.607 2.237-1.177-.965-2.905-1.921-3.028-3.403-1.631-19.638-.138-43.245-3.508-62.664-12.732-73.372-47.29-96.703-12.294-171.911-35.02 24.421-55.066 53.982-72.545 92.381-4.863 10.073-8.195 20.772-12.791 30.929-1.714 3.786-9.332 4.533-10.223 1.445-5.717-19.812-7.811-39.803-13.251-60.031-16.132-59.989-41.335-117.376-88.59-159.317 22.436 50.461 9.695 80.206-31.648 114.801-26.708 22.35-61.242 48.622-51.627 89.257 1.683 7.112 10.585 19.622 2.585 25.749-17.382 1.643-17.855-40.318-16.042-51.36 8.326-50.73 64.022-67.382 87.646-107.882 15.464-26.509.777-61.204-9.958-86.517-1.333-3.188.424-5.406 2.044-7.994m1358.17 171.122c1.78-.022 3.47-.112 5.25-.197 6.41 2.917 9.21 13.389 13.4 18.95 4.81 6.386 9.39 13.306 14.08 19.73 30.01 41.129 30.92 82.723 21.24 131.208l3.72-9.601c2.34-6.021 6.31-12.619 13.71-9.399 4.63 8.885-9.31 29.506-11.46 38.556-1.79 7.514-.47 15.968-4.67 23.081-11.97 7.154-12.93-11.932-13.23-18.743-2.02-46.612 15.8-87.064-9.46-131.086-5.93-10.322-12.63-20.523-18.57-30.838 1.41 5.913 2.37 10.348 2.89 16.413 4.1 48.495-3.15 91.336-27.83 133.8-9.92 17.082-19.31 31.296-26.23 49.954-4.66 12.564-.64 34.112-6.06 40.614-6.93 3.506-9.68-.565-13.44-6.083-9.9-17.944-12.25-37.273-12.32-57.373-2.87 7.034-5.72 17.154-7.71 24.592-9.11 34.092-19.11 69.183-16.76 104.807.76 11.523 6.37 16.41-.34 27.733l-1.48.351c-1.73-1.166-4.66-3.803-5.37-5.706-11.93-31.812-1.87-77.678 6.07-109.03 5.41-21.272 11.93-42.44 19.03-63.21 2.47-7.235 5.08-23.207 11.4-27.011 3.35-.708 3.79-.567 7.07.463 6.78 7.402.85 24.216.37 33.494-.34 6.421.58 42.334 3.9 45.31 5.53-22.989 16.85-41.483 28.59-60.821 34.52-56.845 34.18-107.476 22.75-170.788-1.11-6.128-1.37-5.485 1.46-9.17m-241.18-103.645c5.27-.413 6.02-.963 9.32 2.942 1.64 6.891-4.7 17.815-7.17 24.792a3153 3153 0 0 1-20.63 58.209l-70.46 201.1c-8.9 25.843-17.13 51.896-26.86 77.448-1.62 4.271-3.05 8.604-5.33 12.582-4.43.888-5.24.699-8.67-1.599-4.21-8.138 10.86-41.962 14.47-52.518 28.96-85.946 58.9-171.559 89.82-256.823 4.24-11.726 19.45-58.903 25.51-66.133m-670.993 89.724c1.51.506 7.842 2.586 8.325 3.531 26.587 53.429 49.973 106.744 75.078 161.347 23.911 52.005 52.452 105.348 72.504 158.913.942 2.517-2.611 6.112-4.188 7.724-2.06-.229-3.972-.491-5.655-1.804-2.395-1.867-4.114-4.469-5.473-7.147-13.374-26.346-24.64-53.984-37.043-80.819-12.705-27.489-107.106-226.312-107.189-235.981-.023-2.634 1.979-4.007 3.641-5.764m727.513 16.7c3.87.568 4.77.486 7.44 3.057 3.51 7.945-9.77 29.044-13.52 37.219l-62.5 134.576-58.35 124.819c-5.04 10.602-15.07 36.976-22.24 44.277-3.43-.622-3.83-.767-6.69-2.768-1.03-1.981-1.58-2.261-1.49-4.526.3-7.164 5.13-13.911 8.14-20.322 9.49-20.202 19.24-40.268 28.73-60.465l63.21-136.449 34.71-75.014c4.56-9.942 15.88-38.268 22.56-44.404M742.814 179.319c2.373.281 4.878.957 7.232 1.507 5.019 3.636 17.156 44.721 19.839 52.864l24.003 71.622c15.478 46.112 32.784 92.009 46.423 138.684 1.144 3.915-.369 5.965-2.106 9.969-3.075.862-3.95 1.446-6.774.424-4.641-5.29-11.601-29.725-14.4-38.03l-21.151-61.927c-17.844-51.879-35.428-103.909-52.571-156.044-2.955-8.987-4.536-11.503-.495-19.069M643.92 443.011c2.246-.122 5.754-.697 7.748.476 2.015 1.185 130.304 216.109 132.141 224.548.788 3.623-.4 5.821-2.391 8.763-1.885-.089-4.222.175-5.886-.74-4.664-2.564-10.617-14.289-13.545-18.95-11.388-18.125-119.14-197.114-120.817-205.774-.682-3.522.838-5.475 2.75-8.323m176.96-340.36c5.404.578 8.016 1.886 9.264 7.366 6.91 30.349 12.376 61.002 19.284 91.357l20.166 92.317c3.813 17.686 8.135 36.354 10.733 54.285.427 2.943-1.241 5.475-2.693 8.058-3.615.199-4.838.621-7.852-1.032-3.359-4.068-14.58-61.386-17.012-72.835l-22.05-102.66c-4.636-22.057-10.974-46.956-14.092-69.423-.402-2.897 2.241-5.329 4.252-7.433m100.076-48.274c4.941 1.175 8.209 2.95 8.793 8.415 1.644 15.398 2.966 30.866 4.3 46.291l8.209 102.354c2.495 30.524 6.935 61.703 7.71 92.566.075 3.007-1.942 4.712-3.875 7.266-9.811-1.162-9.05-6.714-9.921-15.497-2.176-21.932-3.713-43.966-5.524-65.937l-7.934-92.361-4.08-47.468c-.802-9.135-1.791-18.718-1.916-27.897-.038-2.795 2.453-5.492 4.238-7.732M1028.77 1264.38c1.91.17 6.79.51 7.05 1.46 11.46 42.13 21.25 86.26 31.38 128.95.73 3.07-2.24 6.25-2.75 6.82-3.75 1.35-2.16 1.3-5.97.23-7.64-6.16-20.61-75.08-24.17-89.27l-1.39-2.72c-2.1 2.13-11.26 70.34-13.49 79.47-1.52 6.23-1.27 18.73-12.37 13.23-1.67-2.76-1.68-2.74-1.46-6.14.69-10.24 2.57-20.44 4.29-30.55 5.44-31.93 9.88-64.04 15.23-95.98.4-2.38 1.95-3.93 3.65-5.5M1141.5 63.784c3.23 1.996 4 2.156 5.77 5.334-.65 25.05-8.27 69.271-11.68 95.828l-10.89 82.157c-1.79 13.709-5.87 56.084-11.62 66.489-5.03-.167-6.73.095-9.85-3.816-.76-6.308 8.41-65.395 9.75-76.097l13.74-102.777c2.42-19.223 5.16-42.921 8.16-62.38.31-2.034 4.36-3.557 6.62-4.738m-114.7-29.181c4.03.41 4.8.306 7.6 2.942 1.98 3.902.54 25.802.46 31.77q-.675 49.758-2.28 99.493c-.87 33.244-.35 77.507-2.96 109.471-2.74 4.174-5.88 4.411-9.91 2.339-4.6-6.256-2.58-19.031-2.46-26.967q.405-26.452 1.23-52.893l3.51-157.755c.08-3.65 2.32-5.49 4.81-8.4m222.1 94.349c4.67-.169 6.11-.188 8.96 3.482 1.22 5.116-11.7 51.093-13.95 59.453a5978 5978 0 0 1-25.43 94.012l-11.8 45.117c-2.02 7.786-4.73 19.836-7.83 26.897-5.97.289-9.09.866-11.29-5.131 1.17-10.599 7.05-30.136 10.03-40.865l15.04-55.555 21.38-79.883c2.24-8.365 9.93-43.039 14.89-47.527"/><path d="M1592.04 563.797c5.07.976 5.67.091 9.21 3.006.2 1.656.7 3.701-.96 4.916-19.76 14.406-31.9 22.842-42.55 46.22-3.06 1.566-4.97 1.282-8.4 1.333-3.41-1.863-3.3-4.291-1.7-7.971 9.36-21.525 23.29-37.255 44.4-47.504"/></svg>