<svg xmlns="http://www.w3.org/2000/svg" preserveAspectRatio="none" style="display:block" viewBox="0 0 2048 1462"><path fill="#fefefe" d="M0 0h2048v1462H0z"/><path d="M370.417 116.289c3.618.316 7.623-.091 11.417.376 28.165 3.472 45.252 16.583 55.33 42.115-2.022 7.376-8.651 16.768-12.81 24.16 18.071 4.455 41.501 6.455 60.238 8.497l62.448 7.307 259.465 29.949a36153 36153 0 0 0 504.105 58.835 8334 8334 0 0 0 159.24 18.527c11.61 1.253 52.93 6.343 62.31 5.264 4-6.693-8.48-36.866-11.32-45.621 19.87-20.53 60.3-28.194 86.7-17.414 24.29 9.922 24.73 25.615 32.42 47.697 5.92 17.011 11.67 34.838 18.66 51.204 14.48 5.544 5.42 19.35 9.25 30.371 7.12 20.511 14.03 41.075 21.01 61.636l31.1 94.505 114.69 353.02c34.5 105.786 70.37 211.563 104.43 317.213 14 43.42-101.85 53.24-119.95 19.44-9.25-17.26-15.52-40.42-21.55-58.59-7.34.5-20.92-.14-28.56-.32-21.79-.61-43.58-1.35-65.37-2.23-28.28-.89-57.96-.17-86.43-1.05-12.85-.4-64.17-4.28-73.74-2.64-5.01 6.2-8.37 65.94-11.24 77.73-2.43 9.98-7.66 7.31-16.96 5.8l-255.4-42.3c-26.87-4.48-53.72-9.67-80.54-14.4-3.25-.57-7.25-1.37-9.86.18-1.3 8.86-1.12 19.39-1.47 28.49-.62 15.63-1.33 31.25-2.13 46.87 30.36 1.48 64.84 1.77 95.39 2.55l241.28 5.63 263.19 5.96c56.81 1.45 116.47 4.68 173.07 4.44-3.43-10.97-12.99-30.57-12.33-40.65 1.79-3.36 7.77-5.16 12.19-7.52 4.47 10.89 15.7 45.52 21.24 52.12-1.63 19.04-3.78 38.04-6.42 56.96-48.25-3.42-92.89-3.54-141.1-4.86l-196.45-5.76-412.79-12.14-183.65-5.48c-21.087-.63-42.716-.28-63.741-1.29-4.838-.97-17.665-.76-23-1.03-20.528-1.02-42.045-.15-62.375-.99a15537 15537 0 0 0-323.043-9.93c.32 6.04.586 12.09.799 18.14-26.303.21-49.421-1.36-75.062-1.84l-185.741-3.35-109.592-1.23c-16.928-.32-37.41.87-53.533-2.73-4.195-10.1-3.556-61.59-3.857-74.91l-1.669-60.82c-1.495-55.31-7.156-112.97-2.882-168.4 2.064-26.766 11.137-53.25 20.541-78.289-13.564-13.564-20.88-32.665-21.138-51.733-.683-50.505 94.064-222.127 126.023-270.348 17.437-26.31 37.412-52.475 59.332-75.163 13.884-14.372 28.718-28.559 44.799-40.484 49.966-37.05 115.733-62.23 178.182-63.399l-.036.18c18.108-14.318 24.199-21.221 37.716-39.693-3.749-28.624-5.41-40.623 3.967-69.331-10.045-.906-36.588-4.152-45.21-7.026-7.025 8.048-19.674 31.942-26.624 41.825-15.476 22.005-30.018 45.437-45.154 67.638-4.787 1.923-21.123 6.051-28.671 8.761-31.6 11.346-49.78 22.734-78.009 40.159 4.612-10.021 8.846-14.958 14.11-23.97 10.916-18.688 24.709-37.775 34.91-56.544-31.538-1.088-65.344-1.052-97.098-1.672-12.709 16.342-30.867 47.247-43.38 65.285-50.89 73.36-100.733 153.399-154.105 224.656-3.57-3.008-7.868-6.009-11.683-8.788 5.027-5.542 18.051-25.414 23.112-32.748l53.188-77.798q55.592-80.29 109.614-161.644c18.224-27.746 35.704-56.534 53.925-84.078a10544 10544 0 0 1 80.573-118.629 486 486 0 0 0-4.812-5.331c-13.118-14.289-25.15-21.688-44.923-23.177-23.386-1.761-26.404 13.56-38.939 30.265-17.548 23.385-33.419 48.371-50.408 72.322a11240 11240 0 0 0-118.356 168.37c-17.474 25.272-37.114 52.247-53.414 77.955-4.136-2.854-8.669-6.804-12.598-10.06 24.722-37.594 53.569-80.525 79.907-116.867-7.996.296-15.006 1.601-21.545-3.097l-.105-1.672c5.672-4.828 17.958-2.015 24.624-.97 7.871-8.969 16.716-23.43 24.105-33.66a3297 3297 0 0 0 60.553-85.06c10.264-14.745 24.895-37.627 35.723-50.645-11.267-2.115-23.671-2.609-35.217-3.955l-86.416-9.955c-5.733-.66-13.013-1.044-16.507-5.45-1.276-14.887 19.132-3.101 27.98-6.95 2.025-2.499 1.97-2.331 2.244-5.527-5.536-8.317-22.732-1.525-25.568-11.371.784-3.037.698-3.528 2.918-5.512 5.468-1.487 136.662 12.661 153.587 15.006 9.738-12.186 18.529-27.673 28.072-40.295 10.793-14.278 18.101-16.448 34.804-19.022"/><path fill="#fefefe" d="m711.977 255.694 604.803 73.138c75.99 9.215 157.7 16.529 233.11 27.773 5.27 12.319 8.83 29.19 13.17 42.547l-480.89-63.519a9579 9579 0 0 1-194.512-26.914c-30.945-4.322-69.172-7.764-99.034-13.678 2.682 8.198 5.343 16.26 7.474 24.628 1.954 7.67 2.958 17.92 5.84 25.015 9.012 3.335 43.595 6.388 55.608 8.045 31.795 4.385 65.088 8.022 96.806 12.546l423.988 57.975 144.75 18.936c21.36 2.839 44.47 5.073 65.53 8.792-.6 9.575-5.49 29.981-7.6 40.263l-13.56 69.066-49.81 264.245a11799 11799 0 0 0-33.86 197.678c-3.98 24.26-7.77 47.59-12.72 71.76-3.09 15.11-4.37 31.35-8.58 46.41-26.69-5.78-54.12-9.01-81-13.18l-115.1-19.02-399.484-67.3a17847 17847 0 0 0-275.178-45.946c-11.36-1.756-59.772-10.294-66.915-9.534-.868 8.376 5.798 27.96 7.591 36.64 1.461 7.09 2.711 14.37 3.962 21.53a60214 60214 0 0 1 807.144 139.33c18.74 3.22 174.73 27.46 177.94 31.43.46 4.37-.79 8.38-1.79 12.69-16.21-3.68-35.16-6.04-51.8-8.54-26.46-3.94-52.89-8.1-79.29-12.47l-338.33-57.78-318.728-54.49-128.105-22.08c-14.51-2.55-51.033-10.45-63.854-11.17-3.563 2.37-1.98 8.01-1.46 11.94 6.07 1.98 12.027 3.97 18.193 5.66-2.166 2.48-10.132 12.33-12.382 13.48l-3.473-1.6-.483.95c1.041 2.78.96 5.96 2.583 7.77l2.755-1.02c3.993 2.54 11.232 10.76 14.869 14.54-3.27 4.44-6.4 8.8-10.002 12.99-2.096.31-3.439-.87-5.366-2-.488 3.87-.647 9.96 1.465 13.29 5.905 1.16 11.58.61 17.536.66 28.925.28 57.717-.48 86.619-1.1l100.336-1.17c42.44-.76 88.315-2.1 130.632-1.24 20.135.41 71.434 12.42 93.6 16.31 44.245 7.76 95.685 13.7 138.855 24.23-64.79-3.83-137.757-4.46-202.892-5.69l-241.73-4.62-87.549-1.7c-6.98-.09-29.321-.86-35.204.34-1.76 1.97-1.219 1.24-1.241 4.65 3.684 4.71 8.7 4.7 14.382 4.75 49.784.48 99.622 1.34 149.403 2.34l180.74 2.98c34.973.77 74.421 3.1 109.187 2.77.618 22.97-3.013 50.98-3.021 75.96-12.93-1.26-27.955-.99-41.121-1.32l-69.926-2.05-211.815-6.49-77.965-2.39c-17.566-.49-39.382-.65-56.678-2.24-14.954-82.58-19.783-182.66-44.325-260.384 28.984-22.747 36.665-54.921 41.767-89.44l51.235 8.015c33.748 5.061 30.917 3.518 59.281 20.675 27.023 16.346 79.085 28.865 108.145 13.056a136 136 0 0 0 9.3-5.646c11.061 3.827 24.144 2.964 35.765 2.979 31.604.041 65.937-7.22 95.348-18.622 21.085-8.174 36.475-15.481 58.739-21.439-2.501 8.547-16.829 56.082-15.898 61.163 11.355 8.251 47.902 11.104 62.903 14.008 15.87 3.072 33.48 5.937 49.5 8.549a9927 9927 0 0 1 168.29 28.796c22.65 3.84 49.73 6.89 71.32 11.19-2.18 8.27-9.22 24.96 3.34 26.55 4.11.52 8.14 1.25 11.79-1.05 2.5-3.92 4.22-17.11 5.91-23.17 8.44 1.45 49.11 12.55 42.33-5.38-2.08-5.49-34.46-4.45-38.55-9.45 9.48-48.915 21.42-97.834 30.85-146.764 2.54-13.158 19.03-74.448 17.28-82.732-7.87-5.007-74.38-13.043-86.86-14.955l-115.52-18.48a3156 3156 0 0 1-46.9-7.786c-5.13-.872-19.57-3.635-23.93-3.587-2.1 1.585-2.9 3.452-3.36 6.047-.37 2.075-.3 3.495 1 5.22 6.12 8.102 223.99 34.466 253.02 41.994-9.02 25.408-16.14 70.75-21.88 97.679-8.59 40.288-16.69 81.239-25.33 121.494-17.23-4.111-35.46-6.629-52.95-9.702-93.74-16.466-188.28-29.881-281.66-48.402 5.076-18.309 11.298-38.864 15.504-57.212 13.311-4.287 14.989-10.903 20.292-22.837 1.502-3.379 4.271-6.408 6.404-9.419 10.46 13.005 20.97 25.692 32.19 38.071 6.68 7.378 18.14 15.503 22.54.714l.09-.906c3.93-1.483 6.25-1.946 9.09-5.015.48-1.499 1.35-3.052.19-4.418-12.05-14.196-40.2-49.638-52.27-60.892-.79-4.416-1.84-11.975-3.67-15.803-2.43-5.072-10.061-8.024-13.735-12.536-20.673-25.385-42.823-50.764-65.599-74.26-7.6-7.841-19.27-14.411-27.759-21.352-3.527-2.566-9.534-7.028-13.767-6.574-1.134 7.479 16.114 42.318 21.637 49.201 14.602 18.203 29.651 37.748 46.112 54.304-31.631 2.4-35.029 9.817-61.008 25.683-21.66 13.228-63.754 12.665-86.252.682-21.709-11.563-47.624-28.466-67.301-43.863-10.733-8.398-17.138-19.7-22.571-31.935-19.432-44.767-31.41-92.284-50.147-137.277-11.615-27.499-26.049-54.181-41.34-79.759-5.115-8.531-12.152-16.916-16.477-24.338 9.811-12.322 21.501-20.068 30.965-31.942 5.162 5.04 9.235 6.468 16.021 8.781 25.317 8.626 54.912-1.744 73.041-20.439a94.34 94.34 0 0 0 24.799-47.513c8.872-5.086 18.79-30.853 21.261-40.251 6.136-23.338 2.441-47.932-10.108-68.545-14.687-24.123-30.578-34.352-54.505-46.572"/><path d="M778.72 415.818c4.213.168 27.29 4.268 33.115 5.12l84.415 12.105 354.97 49.517c27.58 3.734 55.14 7.415 82.71 11.249 19.83 2.757 46.31 7.731 65.81 8.624 3.57-8.138 2.97-15.37 5.75-23.631 2.04-6.06 9.85-6.488 14.6-3.152 3.96 7.893-2.67 17.021-2.25 26.618 4.49 7.109 48.71 1.183 33.87 17.838-7.67 3.534-24.96-.21-33.94-1.439-1.59 11.938-6.11 27.122-8.7 39.434a5555 5555 0 0 1-30.85 142.1c-2.47 10.649-8.03 40.133-12.87 48.041-8.21 2.647-185.59-26.216-205.32-28.893-8.1-.506-50.13-6.93-56.04-10.926-2.17-6.981 12.89-64.478 15.15-73.912-14.14-2.383-28.92-3.887-43.19-6.03l-135.524-20.075c-16.205-2.356-32.26-4.531-48.603-7.211-6.823-1.118-9.359 14.544-12.105 19.572-6.655 12.185-29.102 83.401-36.267 86.836-10.896-.162-37.122-5.318-49.479-6.949-22.533-3.495-45.151-6.252-67.77-9.074-14.051-1.753-12.462-7.703-15.108-19.102 21.14 1.59 41.904 5.097 62.835 8.403 19.739 3.118 40.52 5.703 60.089 9.382 5.922-12.058 15.132-38.305 19.918-51.315a3110 3110 0 0 1 28.601-75.184c9.277-23.629 19.054-46.507 28.797-69.872 3.947-9.468 14.615-33.552 15.865-41.917-6.613-5.031-121.879-15.675-140.711-20.48-5.11-1.305-8.478-.754-13.775-4.244l-.428-2.452c1.136-3.898 3.619-5.949 6.435-8.981"/><path fill="#fefefe" d="M1168.66 484.659c72.85 11.142 147.51 18.866 220.25 30.718-14.2 72.188-30.89 145.003-44.48 217.115-11.19-3.309-35.42-6.05-48.05-8.417-54.49-10.216-119.11-14.64-172.29-27.956 2.63-6.019 8.08-35.512 9.91-44.066a3153 3153 0 0 0 18.2-88.773c4.72-24.806 9.69-54.448 16.46-78.621m-221.92-31.241c15.597 2.599 41.319 6.374 56.46 7.546-2 8.35-13.759 39.042-9.537 44.402 7.137 2.234 79.217 13.388 82.417 12.306 5.92-6.075 10.86-34.227 13.02-44.123 19.81 3.772 41.92 5.845 61.92 8.307-8.03 33.199-16.3 76.361-22.34 110.313-2.14 6.811-4.49 18.914-6.26 26.37-23.92-3.831-47.99-6.464-71.86-10.025l-157.13-23.838c5.561-17.682 19.115-47.618 26.514-65.792 8.472-20.81 17.732-45.558 26.796-65.466"/><path fill="#fefefe" d="M1021.62 464.166c15.03 1.312 35.39 4.546 50.39 7.123-1.27 5.822-5.17 24.22-7.27 28.821-14.52-3.128-34.62-4.043-51.95-7.57 3.19-8.935 5.1-18.284 8.83-28.374m645.42-39.612c3.58 7.155 12.23 35.161 15.62 44.769a4258 4258 0 0 1 48.04 145.285l99.44 308.646a6415 6415 0 0 0 43.98 135.146c8.27 24.99 15.5 49.21 25.14 73.82-15.8-3.99-28.31-4.84-44.48-3.13-18.07 3.1-29.81 5.03-44.91 15.68-3.3-10.8-6.81-21.28-10.42-31.98-52.8-156.341-106.17-312.291-150.6-471.276-4.13-14.78-8.56-35.282-14.3-48.79 2.01-9.058 3.5-20.551 5.3-29.999l18.27-96.461c1.66-8.56 6.31-35.537 8.92-41.71M541.718 1256.48c5.883.89 25.443.94 32.802 1.14l60.872 1.96 208.275 5.47 745.263 20.71 245.07 5.5 63.55 1.97c13.05.42 29.25.52 41.88 2.37-.54 8.54-2.28 16.44-3.91 24.82-18.74-.87-38.65-.73-57.57-1.16l-129-3.06-405.02-10.62-697.806-19.8c-9.323-.2-100.448-2.97-101.831-4.85-3.114-4.24-3.479-19.22-2.575-24.45M1586.47 858.527c8.2 4.383 14.21 12.12 21.73 16.762 40.11 24.788 77 55.322 117.7 79.084 7.44 13.784 13.37 36.054 17.13 51.507l-31.02.34c-1.75.36-12.92-.47-15.37-.56-12.48-.51-24.97-.93-37.45-1.27-28.22-.65-56.42.14-84.6-1.3-3.86-.2-6.13.13-8.57-2.1-1.72-8.613 16.32-127.589 20.45-142.463m-638.252-56.156.764-.081c27.555.457 36.422-5.644 57.108 12.861-6.239.879-22.425-1.093-31.337-.717-3.011 1.834-1.885.626-3.508 3.751 3.309 6.097 13.631 1.753 21.814 7.434 1.589 2.481 1.419 2.746 1.178 5.844-4.726 5.665-9.405-.204-17.338 1.489-1.263 2.413-.849 1.108-.785 4.19 2.898 3.894 7.125 2.686 12.598 6.614 1.711 3.329 1.395 1.844 1.122 5.647-3.276 1.779-11.611.159-17.93 1.219-2.822 2.01-2.225 1.006-3.348 3.904 3.352 5.526 14.347 2.781 13.959 11.11-4.148 6.77-15.435 10.99-22.906 13.277-30.228 9.253-59.351 21.324-89.877 29.445-25.187 9.099-68.353 11.101-94.877 10.44 23.694-28.993 35.949-52.673 26.52-90.992 20.051 10.659 39.959 12.218 62.238 11.108 34.702-1.727 50.783-32.574 84.605-36.543M765.482 344.882c4.583 13.411-3.455 34.154-9.571 45.974-4.538-.291-9.722-1.305-13.527.645-2.097 3.007-1.751 1.7-1.998 5.171 1.628 1.695 1.99 1.976 3.27 4.023-2.751 1.095-2.767.996-4.962 2.897-1.008 5.232 2.854 8.525 2.083 12.221-6.41 30.671-36.941 55.421-68.695 53.201-14.116-.987-21.311-6.637-30.199-16.817-7.2 4.909-35.505 32.148-40.236 39.957-18.275-16.244-36.19-37.978-55.726-50.341-3.558-2.583-9.49-6.02-13.387-8.432 19.143-15.432 23.787-18.074 37.594-38.16 28.318 16.615 51.558 12.074 80.573 2.111a31.5 31.5 0 0 0 3.847 13.286c7.491 13.758 29.743 7.514 22.28-2.763-3.661-2.022-7.217-2.107-11.42-2.651-2.284-2.372-2.62-6.346-3.349-9.787 6.361-13.143 26.805-35.947 41.747-17.245 1.269 1.588.09 6.537 2.496 9.949 13.233 3.554 51.557-32.088 59.18-43.239m-362.941-126.21c12.13 4.024 51.473 6.308 66.305 8.102l187.12 22.653c-23.859 4.092-36.542 11.358-57.295 23.051-11.808-3.323-53.931-7.74-69.057-9.831-15.005-1.862-33.69-5.759-48.628-5.269-5.369.175-14.512 14.629-17.468 19.545-9.464 15.734-22.037 30.688-31.319 46.362-31.838-.23-66.629-.551-98.334-1.731 3.899-5.383 7.378-11.408 11.129-16.949 19.31-28.521 37.999-57.585 57.547-85.933m1180.469 80.585c14.89-1.121 32.65 3.518 45.47 11.22 13.11 29.223 22.56 70.242 35.51 101.709-7.21-.046-17.83-1.645-25.23-2.542l-60-7.957c-9.18-30.625-18-59.049-26.55-89.976 11.32-8.468 17.16-9.644 30.8-12.454m-568.65 881.623c14.39 2.31 80.76 2.5 95.19 1.51.76 6.56-1.5 68.3-2.9 74.9l-2.38 1.2c-13.39-.38-27.92-1-41.28-1.3-10.41-.23-41.47.44-50.22-1.97-3.2-7.05.93-61.84 1.59-74.34m584.43-396.489c29.13 18.873 60.28 38.003 90.05 56.172 2.83 6.666 26.16 79.65 25.93 81.266-2.17.067-5.69-2.668-7.74-3.988-38.08-25.317-79.95-54.044-119-77.55 3.35-14.991 6.56-43.908 10.76-55.9m28.3-160.695c3.41 5.72 13.65 42.659 15.71 50.551 9.45 36.209 21.87 73.875 31.08 109.875-9.37-1.082-17.71-1.727-27.13-2.301-17.43-.718-29.79-1.985-46.75-6.048.81-5.152 1.64-10.429 2.62-15.546 8.59-45.046 13.84-91.98 24.47-136.531M330.244 329.001l96.736 2.033c-5.739 8.036-28.039 45.033-32.424 48.484l-1.74-.592c-23.815-.331-72.557.561-94.309-2.339 11.118-15.067 20.98-31.994 31.737-47.586M1866.45 1180.59c17.95-1.63 38.62 6.25 52.95 16.7.64 3.86 2.18 8.85 3.26 12.75-13.79 10.48-19.22 13.25-36.47 16.9-20.04 1.45-32.18.18-50.22-9.2-3.68-6.34-7.36-12.96-2.84-19.94 6.33-9.75 22.64-14.23 33.32-17.21M1573.6 258.258c7.86-1.444 25.3 1.203 32.47 5.531 12.08 7.291 14.31 17.409 17.77 29.823-15.02-6.189-23.5-7.942-39.33-8.03-19.37.261-20.65 3.466-37.6 12.759-12.05-33.028-6.53-34.117 26.69-40.083m-444.7 924.732c5.45-.21 17.39-.08 22.41 1.77 2.27 6.34-.44 61.34-.73 72.99-4.31 3.71-15.37 1.77-22.59 1.94-.33-25.81 1.61-51.77.91-76.7m742.78-36.49c13.64.82 19.27 1.9 31.79 5.94 3.92 6.49 5.65 12.65 7.91 19.78-21.15-7.73-37.58-10.49-59.68-4.6-12.95 4.1-17.06 6.47-28.03 14.01-2.35-7.24-4.81-13.41-7.63-20.45 22.5-11.97 29.92-13.64 55.64-14.68M361.798 133.211c25.384.239 43.728 4.395 55.852 29.189-1.875 3.628-4.516 9.956-7.683 11.814l-1.808-1.949c-15.807-20.934-38.875-23.483-62.892-23.54 5.525-9.272 6.871-11.165 16.531-15.514m180.99 704.643c10.357 9.085 20.216 18.757 30.788 27.681 3.951 3.336 23.918 17.788 24.548 21.326l-2.355-.308c-9.555-1.614-51.868-7.633-57.493-11.248 1.076-10.905 2.217-27.168 4.512-37.451m1085.862-47.737c15.94.772 31.85 2.227 47.81 2.92 1.58 8.068 4.85 19.012 7.08 27.203-2.67.268-46.74-26.425-54.89-30.123M558.398 1079.65c5.575 4.47 11.243 10.7 16.272 15.91-3.823 3.48-8.995 10.52-12.347 14.79-3.207-2.73-12.413-12.77-15.625-16.1 3.633-5.26 7.571-9.74 11.7-14.6m18.438 18.03c2.383 1.76 13.418 12.72 16.298 15.49-4.359 4.72-7.999 9.19-12.029 14.16-5.327-5.06-10.981-10.09-16.425-15.06zm12.597-14.94c8.54 1.2 11.496 6.85 17.437 13.78l-11.09 13.77c-3.249-1.05-13.289-12.02-16.251-15.07 2.936-3.08 7.167-8.92 9.904-12.48m19.526 16.78c4.012 2.42 11.91 10.9 15.591 14.61l-11.095 14.36c-4.314-3.1-11.702-11.35-15.573-15.52zm276.239-847.559c9.294.21 23.933 2.755 33.55 4.156l-1.382 10.658c-4.858.323-27.706-2.907-32.669-4.23-.895-2.561.138-7.524.501-10.584m829.762 837.849c3.59 2.8 10.06 9.88 13.47 13.41l-13.76 13.36c-3.43-2.61-10.86-10.09-14.31-13.37 4.51-3.54 10.3-9.34 14.6-13.4m-96.11 27.97c4.19 3.44 9.53 9.7 13.31 13.87l-13.41 12.99a516 516 0 0 0-14.3-14.54c4.77-3.91 9.69-8.28 14.4-12.32m82.22-102.89c5.98 3.87 9.51 7.9 14.39 12.98-4.23 4.52-9.23 9.1-13.74 13.4-2.07-.69-11.46-10.6-13.7-12.84 4.91-4.5 9.17-8.07 13.05-13.54m-1.27 59.83c2.73 2.03 10.75 10.32 13.59 13.13l-14.9 13.09c-4.33-4.44-8.96-8.84-13.41-13.18 5.24-4.29 9.77-8.47 14.72-13.04m30.24 31.11c2.72 1.9 11.21 10.9 14 13.74l-14.05 12.63c-3.07-2.09-10.39-10.28-13.3-13.38zm-47.82-16.26c3.06 1.09 11.55 10.82 14.27 13.72-3.71 3.69-8.97 8.08-12.96 11.62l-.66.11c-2.99-.74-11.03-9.76-13.76-12.55zm48.81-43.89c2.53 1.06 11.91 11.37 14.46 14.03-5.3 3.87-8.93 6.99-13.86 11.36-3.01-1.19-11.24-10.29-14.04-13.17 4.01-4.05 9.13-8.38 13.44-12.22M1001.5 267.025c8.35.857 27.33-.415 31.82 5.871.34 3.434-.73 5.083-2.09 8.266-8.5-.993-26.45-.705-31.487-6.377-.667-3.064.497-4.795 1.757-7.76m634.11 836.705c3.29 1.39 10.81 10.05 13.65 13.1-4.93 3.97-9.65 8.17-14.41 12.34-2.37-1.39-10.96-10.8-13.43-13.37 4.66-3.67 9.65-8.17 14.19-12.07m46.46 16.04c3.94 2.8 10.11 9.8 13.66 13.57l-13.1 12.53c-2.75-2.05-11.29-10.96-14.16-13.82 4.47-3.77 9.23-8.3 13.6-12.28M918.433 724.461c1.302.323 2.876.688 3.705 1.79 6.724 8.942 55.22 61.723 55.151 68.151-8.717-1.836-23.794-25.794-30.534-33.632-9.555-11.111-19.443-22.375-29.03-33.452zM695.786 1102.65c5.429.23 8.723.85 14.091 1.83l6.99 7.03-10.252 10.31c-2.214 2.09-.94 1.54-3.919 1.75-4.787-2.6-9.87-8.08-13.893-12zm377.604-828.365c9.5 1.184 23.45-.436 29.55 5.243 1.47 3.277.25 6.06-.65 9.746-9.82-1.434-20.69-2.282-30.25-4.39-.91-2.108.79-7.962 1.35-10.599m674.47 756.445c7.13 3.74 7.95 9.97 10.78 18.01-5.03 2.32-7.42 4.78-11.57 8.42-4.5-4.44-8.98-9.12-13.41-13.64 4.6-4.29 9.51-8.57 14.2-12.79M924.407 257.741c6.486.109 27.138 1.808 32.711 3.746.761 2.463-.351 7.102-.802 9.876-3.086.523-28.926-2.99-32.589-3.957-1.237-3.366-.14-6.029.68-9.665m805.733 817.879c2.98 1.19 12.1 11.15 14.82 13.96l-13.35 10.88c-2.34.32-11.97-10.39-14.18-12.6zm-155.53-2.93c2.76 1.36 10.63 9.51 13.3 12.11-4.36 4.39-9.9 9.14-14.55 13.33-4.36-4.03-8.88-9.08-12.98-13.46 4.78-3.84 9.54-7.99 14.23-11.98m79.62-42.98c2.58 1.11 11.31 10.58 13.77 13.13l-13.35 12.11c-2.23-.46-11.67-10.64-14.01-12.99zm17.61-14.95c1.07.8 10.34 11.8 11.99 13.72-3.97 4.18-9.1 8.63-13.41 12.57l-13.44-13.62zm-33.6-1.15c4.08 2.04 11.17 9.99 14.63 13.6l-13.4 11.99-.97.22c-3.97-2.78-8.85-8.67-12.26-12.45 5.28-5.11 7.61-7.51 12-13.36m59.84 92.04c3.6 1.96 10.88 9.67 14.16 12.91-4.16 3.98-9.19 8.16-13.57 11.98-2.92-.82-11.07-9.94-13.9-12.81 4.46-4 8.9-8.03 13.31-12.08m-90.93-61.94c3.53 1.86 10.7 9.69 13.87 12.92l-13.9 11.65c-3.27-1.13-10.93-9.94-13.74-12.99zm29.7 29.91c2.44.93 10.78 10.58 13.15 13.14-4.2 4.27-9.12 8.51-13.6 12.53-3.93-2.94-9.63-9.24-13.21-12.95zM847.418 247.692c4.219-.003 28.355 2.756 31.205 4.248.817 3.544-.224 6.613-.997 10.253-8.219-1.68-26.297-1.797-32.015-4.638.828-3.63 1.275-6.193 1.807-9.863m837.022 812.398c3.92 2.97 9.76 8.96 13.48 12.55l-14.43 13.23c-2.58-2.04-10.01-10.6-12.6-13.47 4.35-4.12 9.09-8.27 13.55-12.31m-33.59 58.73c4.38 4.27 8.82 8.97 13.11 13.37-4.58 4.11-9.21 8.62-13.71 12.86l-13.46-13.54c4.11-4.22 9.57-8.76 14.06-12.69m-540.31-840.008a2022 2022 0 0 0 31.08 3.471c-1.18 4.287-1.68 7.194-2.41 11.553-8.54-1.983-22.92-3.213-32.06-4.242.88-3.277 2.34-7.469 3.39-10.782m603.78 842.098c3.47 3.02 9.69 9.74 13.17 13.26-4.12 4.18-8.65 8.44-12.88 12.56l-14.55-13.41c4.7-3.85 9.65-8.38 14.26-12.41m-137.99-78.25c4.46 3.82 8.91 8.45 13.1 12.62-4.08 4.1-9.88 8.98-14.29 12.92-4.88-4.15-8.57-8.19-12.92-12.83 4.44-3.43 9.89-8.79 14.11-12.71m12.95 45.03c3.46 1.74 9.94 9.48 12.92 12.73-3.84 3.97-9.15 8.51-13.32 12.29-4-2.52-9.95-9.15-13.48-12.79 4.17-3.97 9.48-8.37 13.88-12.23m78.36-12.94c3.61.93 10.21 9.38 13.04 12.59-4.35 4.38-9.06 8.63-13.6 12.84-4.46-4.27-8.64-8.9-12.84-13.43zm-29.54-30.78c3.94 3.48 9.61 9.49 13.51 13.36l-13.91 12.63-13.14-13.11c4.47-3.99 9.17-8.7 13.54-12.88m-124.07-719.2c9.03.958 18.08 1.803 27.13 2.534l2.93 11.621c-6.64.617-24.56-.232-30.36-3.129-1.16-3.265-.17-7.409.3-11.026m106.26 763.93c2.13.68 11.58 10.56 13.88 12.83l-13.66 11.18-.86.08c-3.11-1.34-10.21-9.28-13-12.14zm125.46 32.97c3.68 2.57 9.63 9.76 12.75 13.4l-12.95 12.39c-4.31-3.76-9.47-9.02-13.69-13.06zm-136.52-107.81c4.34 3.49 8.98 8.67 12.89 12.78l-14.15 12.75c-4.24-4.28-8.49-8.83-12.67-13.19zm42.56 74.83c2.59 1.86 10.53 10.83 13.16 13.72l-13.29 12.05c-3.61-2.51-9.88-9.37-13.2-12.79 4.51-4.12 8.97-8.67 13.33-12.98m94.81-26.93c2.1 1.35 10.7 11.12 13.02 13.68-3.42 3.81-8.62 8.65-12.36 12.35l-13.79-14.25zm-1124.455 26.17c9.647 3.59 8.24 3.11 16.277 10.04l-11.654 12.91c-2.253-.44-13.014-11.32-15.479-13.7 3.558-3.99 5.905-7.87 10.856-9.25m983.505-14.17c3.43 1.43 10.47 9.49 13.39 12.59a438 438 0 0 0-14.41 12.14c-4.22-3.91-8.73-8.91-12.73-13.14 4.07-3.75 9.42-7.98 13.75-11.59m-32.78 28.15c4.67 4.41 9.29 8.87 13.87 13.38-4.25 3.64-9.14 7.41-13.53 10.96l-1.26.34c-3.92-3.03-8.71-9.22-12.03-13.19 3.79-3.74 8.86-7.93 12.95-11.49m93.88 2.75c4.14 2.95 9.61 9.03 13.3 12.86-4.41 4.22-9.18 8.46-13.69 12.61l-13.2-13.12c4.6-3.78 9.21-8.26 13.59-12.35m48.28-44.03c3.45 1.55 10.55 9.38 13.6 12.48l-12.74 12.35c-2.51-.5-11.45-10.53-13.9-13.08 4.55-3.87 8.67-7.67 13.04-11.75m-29.23-29.94c2.94 1.95 10.26 9.81 13.09 12.71l-13.85 12.77c-3.07-2.66-9.56-9.86-12.65-13.09zm60.44 61.05c1.86.8 10.59 10.49 12.77 12.8-4.24 4.37-8.55 8.68-12.92 12.92l-13.58-13.76c4.65-3.76 9.24-7.97 13.73-11.96m-142.33 10.92c2.12 1.13 11.17 10.77 13.44 13.1-4.62 3.67-9.26 7.53-13.84 11.27l-.65.07c-3-.78-9.74-8.53-12.35-11.22zm-12.86-45.02c2.93 1.37 10.84 10.68 13.45 13.56-5.4 3.82-9.01 6.55-14 10.88-3.14-.77-10.2-8.88-13.13-11.83 4.36-3.49 9.54-8.68 13.68-12.61m78.81-12.87c3.21 2.63 9.69 9.91 12.79 13.22-4.67 3.98-9.27 8.05-13.78 12.21-2.09-1.16-10.56-10.31-12.77-12.6 4.36-3.69 9.52-8.83 13.76-12.83m47.11-14.06c4.01 2.66 9.12 8.69 12.57 12.41l-13.8 12.12c-3.96-2.79-9.45-8.41-13.1-11.92zm-93.02-1.9 12.55 13.48c-3.74 3.87-9.22 8.29-13.41 11.87-2.07-1.4-10.77-10.49-13.04-12.79zM964.441 261.631c10.34 1.378 21.173 2.601 31.277 5.006l-2.285 9.67c-5.533-.232-24.735-2.706-29.667-4.044-1.083-3.297.04-7.045.675-10.632m688.689 798.009c3.29 1.64 10.36 9.52 13.31 12.57-4.28 3.56-8.57 7.52-12.74 11.26l-1.44.28c-3.63-2.26-9.17-8.87-12.3-12.29zm-64.97 58.09c2.03.81 10.3 10.1 12.38 12.32-4.18 4.16-9.12 8.33-13.58 12.26-2.87-1.32-10.39-10.39-12.9-13.23 4.95-3.39 9.52-7.45 14.1-11.35m112.49-72c2.65 1.86 10.32 9.5 13.04 12.1l-13.15 12.46c-2.87-1.64-10.64-9.69-13.42-12.43zm-1030.094 53.93c3.926 1.64 9.89 8.82 13.03 12.27-4.123 4.56-7.644 8.37-11.261 13.39l-14.128-12.96zm141.766-856.393c9.055 1.878 22.021 2.854 31.425 3.802-1.493 2.639-3.409 7.318-4.706 10.224-2.914.823-25.007-2.741-28.983-4.248-.532-3.069 1.176-6.65 2.264-9.778m-171.67 856.793c3.826 2.72 9.492 8.73 13.012 12.24-3.408 4.69-7.236 9.3-10.888 13.83-3.874-2.44-10.15-8.85-13.706-12.25zm26.284-872.492c7.952.018 24.528.146 30.509 4.431 1.34 3.384.553 3.764-.326 7.786-4.202 1.214-25.939-.984-30.391-2.651-1.248-3.065-.314-6.14.208-9.566m955.534 831.562c2.51 1.95 9.93 9.8 12.55 12.45-4.6 4.08-9.21 8.46-13.74 12.64l-12.73-13.06zm-408.88-768.185c9.33 1.021 19.51 2.622 28.87 3.897l-1.96 10.401c-7.97-.728-23.29.584-28.45-5.166-1.13-3.429.23-5.593 1.54-9.132m267.3 30.578c8.35.681 21.84.049 27.07 5.256 1.31 3.263.22 6.41-.48 10.032-7.1-2.527-20.71-3.277-28.97-4.358zm111.79 707.197c2.59 1.56 10.45 10.08 13 12.71l-13.14 10.8c-3.78-.46-10.23-8.35-13.08-11.44zm139.44-12.12c4.73 2.09 9.75 7.8 13.51 11.64-3.58 3.84-9.04 8.44-13.06 12.04-3.24-.82-10.12-9.17-12.88-12.14 4.04-3.48 8.48-7.85 12.43-11.54M775.685 239.342c7.055 1.324 22.18 2.088 30.952 3.274l-2.805 10.604c-9.676-1.648-20.893-2.59-31.211-4.245zM1577.8 1014.66c3.61.92 10.49 8.43 13.51 11.43l-12.62 11.26-1.71.37c-3.71-2.47-8.33-7.92-11.51-11.38zm-538.61-743.767c8.89.656 21.07-.889 26.86 4.216 1.51 3.21.3 6.116-.53 9.784-9.3-.997-18.36-1.868-27.57-3.515.98-3.787 1-6.613 1.24-10.485m209.33 24.768c8.34.344 20.42 1.992 28.99 2.916-1.47 3.837-2.07 6.7-2.98 10.655-10.32-.945-19.97-2.568-30.75-3.381zm33.16 3.417c7.62.853 23.23-.099 28.09 5.198.81 3.029-.64 5.263-1.91 8.329-7.54-.26-22.26.027-27.18-4.955-1.17-2.959.05-5.338 1-8.572m479.08 807.642c3.86 4.06 7.66 8.18 11.39 12.35-3.64 4.58-7.55 8.99-11.39 13.41-2.81-1.9-10.01-10.08-12.73-13.06zm-444.58-803.74c9.24 1.069 18.91.4 26.58 4.485 2.13 3.598 1.21 4.124.74 9.038-10.2-.452-19-1.507-29.15-2.726.35-4.545.79-6.412 1.83-10.797m233.98 819.01c3.33-2.15 5.09-3.3 8.17-5.95 3.57 4.17 7.62 9.13 11.3 13.1l-6.13 5.72-7.13 7-5.96-6.98c-2.16-2.49-2.46-2.99-3.13-6.29.51-3.44.84-3.65 2.88-6.6m-369.77-834.48c7.12.394 24.74-.614 27.52 6.543-.62 3.155-.62 4.199-2.25 6.883-8.86-1.354-19.52-2.343-28.53-3.44zm-547.665-64.229c8.138 1.305 21.361 2.117 28.264 4.071 1.537 2.459-.022 5.986-.759 9.705-8.721-1.548-24.174-.503-29.27-5.824-.798-3.011.501-4.942 1.765-7.952m-448.893-48.53c9.69 2.183 20.792-.033 27.909 5.116 1.131 3.709.345 3.987-.758 8.129-8.059-.128-21.552-1.88-30.723-2.38zm555.525 61.289c6.676-.13 23.402 1.812 30.755 2.461l-2.575 9.977c-9.393-1.073-21.426.159-28.945-4.602-1.395-3.274-.449-3.73.765-7.836m708.323 81.202c8.28 3.603 21.21-.323 26.47 5.78.83 3.272-.32 5.504-1.37 8.817-9.64-1.222-18.05-2.339-27.57-4.192.67-4.649.87-5.889 2.47-10.405m-301.2-33.642c3.71.282 25.15 2.596 27.18 4.164-.15 3.269-.2 6.078-.15 9.35-8.17-.275-20.98-2.222-29.44-3.283zm-442.365-51.912c9.169.233 20.611 2.018 29.907 3.235l-2.667 10.529c-8.293-1.746-22.855-1.78-27.462-5.271-1.28-3.833-.548-4.224.222-8.493m-138.937-17.033c9.923 2.224 20.736.123 26.553 4.483 1.674 4.163.652 4.556-.544 9.664-8.553-.471-17.022-2.046-25.484-3.422-1.178-2.208-.608-7.895-.525-10.725m849.152 100.083c7.6.622 21.83-.273 26.34 4.409.89 3.155.06 4.516-.96 7.819-7.95.271-20.55 1.127-26.59-3.605-1.06-3.79-.1-4.395 1.21-8.623m-814.731-95.822c8.916.977 18.958-.351 25.157 4.335 1.509 3.953.595 4.407-.45 9.058-9.293-.565-18.331-1.793-27.564-2.944zM1761.86 1077.7c5.46 4.22 7.21 7.03 9.99 13.08l-10.82 11.58c-4.16-4-8.13-8.66-11.98-13 5.63-4.28 7.87-6.51 12.81-11.66m-204.18 8.87c2.03 1.26 11.3 11.31 13.54 13.66l-10.61 8.75c-1.56 1.66-.64 1.01-3.01 1.75-3.27-1.86-5.49-5.91-7.73-9.18 1.84-8.01 2.26-9.11 7.81-14.98m44.44 46.07c2.9 1.37 14.43 14.03 16.85 16.75l-.77.9c-2.84.27-2.7.25-5.44-.6-6.05.62-16.47 1.58-21.14-2.29l-.13-2.65c1.72-4.54 6.93-8.67 10.63-12.11m172.49-11.04c3.51 2.31 7.61 7.2 10.58 10.45-4.13 4.75-7.89 8.69-12.3 13.18-2.69-1.76-8.12-7.31-10.7-9.81 4.16-4.34 8.4-9.3 12.42-13.82m-391.87-810.754c7.52.606 17.78 2.308 25.45 3.378l-2.05 10.171c-8.97-1.697-19.41-.194-24.91-5.038-.9-4.01-.04-4.211 1.51-8.511m314.44 824.824c3.52 1.48 14.62 13.04 17.96 16.38l-9.89-.31c-5.57.15-14.62 1.12-18.71-2.38l-.12-2.14c1.83-4 7.33-8.42 10.76-11.55m-31.91-1.07c3.82 1.29 12.92 9.97 12.49 15.12-3.1 2-3.41 1.34-7.51 1.35-7.96.36-11.84-.12-19.65-.99 4.38-5.27 9.82-10.56 14.67-15.48m-94.31-2.97c4.92 2.01 10.96 8.25 10.52 14.27-2.86 3.49-3.33 2.76-8.58 4.01-5.09-.68-12.2-.54-12.52-6.6 1.73-4.2 7.08-8.45 10.58-11.68m62.91 2.09c4.39 3.09 13.68 10.09 11.15 15.78-3.12 2.11-6.79 1.45-10.79 1.36-4.04-1.45-7.51 1.46-12.31-4.22 1.25-3.37 8.93-10.02 11.95-12.92M443.915 200.752c7.567 2.346 18.293-.22 23.44 4.575.325 2.624.257 4.378.22 7.03l-1.496 1.226c-8.604-1.069-20.633.298-25.074-3.93-.443-4.075.775-4.682 2.91-8.901m907.205 106.717c8.58.776 16.92 2.145 25.62 2.925l-2.28 9.796c-8.37-.481-19.39-2.077-27.91-3.086 1.57-3.189 3.09-6.402 4.57-9.635m378.02 829.141c4.5 1.9 13.28 9.21 12.48 15-3.48 2.32-4.98 1.44-9.87 1.42-5.56.12-8.9.98-12.8-2.73l-.01-2.47c1.84-4.06 6.79-8.06 10.2-11.22M505.723 208.251c8.886.709 15.943 1.37 24.764 2.747l-3.025 10.42a399 399 0 0 0-24.612-2.824zM251.65 183.239c7.368.111 20.11 1.937 27.886 2.852l-2.795 9.113c-7.479-.701-21.672-.853-27.135-5.128-.397-3.588.06-2.954 2.044-6.837m223.069 21.164c7.302.158 17.701 1.999 25.156 3.088l-1.583 10.458c-8.465-1.946-18.236-.833-23.862-4.877-1.615-3.594-.67-4.191.289-8.669m249.958 902.257c8.111 2.05 17.857.45 22.357 5.46-.454 3.63-1.722 4.22-4.172 7.43-1.969 3.2-1.214 3.11-4.024 4.31-6.991-2.3-13.301-7.03-16.061-14.08zM536.103 211.831c8.531 1.329 16.242-.163 22.471 3.761 1.857 3.451.905 4.48.358 9.065-3.511.36-19.725-2.399-23.618-3.092-.938-2.999.161-6.486.789-9.734M1759.82 1137.7c5.57 4.19 10.86 10.03 15.21 15.46-1.22 1.43-4.9-1.32-8.43.23-5.6-.04-15.97 2.38-16.78-4.84 1.84-4.17 6.48-7.69 10-10.85m-716.88-257.964c-13.21-14.295-26.99-30.475-40.47-44.283l.54-1.626 1.93-.872c3.95 1.78 40.11 44.766 45.6 51.742l4.83 5.63-.09.906c-3.83-3.016-9.31-7.742-12.34-11.497"/><path fill="#8a8989" d="M1042.94 879.736c2.56.785 3.6 2.398 5.44 4.406l2.16.555 4.83 5.63-.09.906c-3.83-3.016-9.31-7.742-12.34-11.497"/><path fill="#fefefe" d="M1558.98 1056.89c2.84 2.09 11.15 10.57 14.11 13.45-2.41 2.25-5.5 4.82-8.03 7.02l-4.58 2.98c-3.65.2-2.15.76-4.75-1.36-2.22-6.44 1.18-15.56 3.25-22.09M218.376 178.84c8.883 1.476 19.935.195 25.66 4.141 1.187 3.374.185 3.662-1.494 7.734-7.433-.442-17.75-.222-23.786-3.06-1.899-3.377-.963-4.313-.38-8.815m197.519 19.19c7.049.497 13.595 1.379 20.581 2.296-1.034 3.878-1.299 5.446-3.241 9.043l-2.469.167c-7.977-.337-13.748-.671-21.453-2.697 2.072-3.312 4.15-5.793 6.582-8.809m231.883 894.62c7.145 1.15 12.691 1.83 19.57 4.3-2.237 3-5.155 6.11-7.658 8.94-1.661 1.72-1.503 1.68-3.73 2.52-5.468-1.82-9.726-4.79-11.131-10.85-.341-1.47 1.941-3.61 2.949-4.91m914.082-65.06c2.8 2.12 10.69 10.54 13.56 13.47-3.47 2.36-6.61 5.12-9.84 7.81-3 2.05-2.17 2.09-5.36 2.42l-1.29-2.05c-.85-5.48.68-16.59 2.93-21.65m-999.259 87.03c4.12 3.34 12.41 9.47 13.867 14.04-2.617 2.17-4.584 1.43-8.723 1.56-4.968-.73-10.129 1.71-13.339-3.26.979-3.92 5.514-8.94 8.195-12.34m32.281.87c3.25 1.37 10.791 9.86 13.65 12.91-1.798 1.32-8.138 1.25-10.778 1.39-3.153.37-11.227.13-14.772.11 3.6-4.72 8.057-9.81 11.9-14.41m161.345-3.24c5.318.45 23.265 3.56 28.01 5.32-.432 2.05-3.255 4.03-5.117 5.76-6.952 6.83-20.227-5.59-22.893-11.08m141.466-410.839c6.215 1.896 19.042 11.285 19.32 18.288l-3.355 3.247c-1.347 1.615-.808 1.094-2.649 2.184-5.849-2.82-10.982-17.742-13.316-23.719m887.727 435.259c4.82 3.34 8.36 10.59 5.86 16.43-3.89 1.99-4.66 1.18-9.53.93a7.4 7.4 0 0 1-4.01-1.66c-1.99-1.65-1.44-1.09-1.75-3.67 1.71-4.28 6.19-8.54 9.43-12.03m-12.83-41.57c3.23 3.63 6.08 11.55 5.93 16.84-1.24 2.7-1.26 3.05-3.51 4.83l-1.72-.96-10.36-11.57zm-1086.843 19.44c3.161 1.98 10.757 7.94 11.785 11.66-2.04 2.04-2.406 1.34-6.282 1.58-5.808.17-11.219.07-17.031-.05 4.224-4.43 7.617-8.47 11.528-13.19m33.476-.4c3.741 2.34 10.879 7.1 11.234 11.63-3.227 2.15-5.192 1.35-9.707 1.37l-12.88-.22zm1038.717-62.37c3.64 2.68 7.62 13.51 6.21 18.12-2.11 1.82-.93 1.41-3.58 1.42l-11.28-12.02c2.7-2.9 5.57-5.07 8.65-7.52M655.7 1115.44c3.156 1.49 13.093 8.53 11.495 12.42l-5.06.43h-16.224zm1020.24-102.19c8.22.58 14.15.6 22.34.47l-6.49 6.92c-7.62 8.58-11.14 1.92-16.27-5.33zm-1113.252 65.19c6.273.64 15.755 1.2 20.924 4.03l.357 1.73-3.154 4.2c-2.703 3.07-1.645 2.84-4.794 3.26-5.485-2.75-9.832-8.21-13.333-13.22m1018.262-66.23c5.69.03 19.25-1.07 23.11 1.87l-2.1 2.66-8.62 7.42c-3.99-4.03-8.28-8.02-12.39-11.95m-954.412 104.28c3.02 2.11 9.793 7.2 10.837 10.54l-.928 1.37-5.6.7c-3.848-.25-9.51-.1-13.507-.12zm987.052-103.6c4.79-.07 15.62-.82 19.24 1.23l.14 1.7-2.72 2.91c-1.85 2.11-2.75 3.63-5.42 4.4-4.86-1.52-7.63-6.05-11.24-10.24m93.5 1.85c4.99 0 15.52-.76 19.62.96l.31 1.56-3.15 3.33-6.23 5.27zm-62.13-.84c4.12-.1 18.07-1.52 19.94 1.8l-2.79 3.02-7.18 6.52c-3.94-4.04-6.44-6.93-9.97-11.34m-854.751 104.11c4.422.16 18.547 2.4 21.594 5.63l-.908 1.29c-6.159.51-13.284 1.79-18.815-.66-2.493-3.07-1.817-1.66-1.871-6.26m-38.531-3.5c3.139 2 8.246 6.36 9.14 10.19l-2.875 1.3c-4.183.23-9.799-.13-14.095-.29zM288.577 186.279l10.258 1.238c-1.942 3.347-4.076 6.552-6.183 9.799-5.295-.943-11.069-1.409-9.571-8.394 2.534-1.954 2.385-1.878 5.496-2.643M1545.31 1134.52c4.63 3.27 8.85 8.03 7.92 13.84-4.21 0-6.35.5-9.39-1.77-1.21-3.36.57-8.27 1.47-12.07m17.43-122.88c3.35-.05 8.29-.63 10.91 1.01-.86 3.16-2.7 4.07-5.34 6.67-1.44 1.54-5.1 4.65-6.81 6.21zm-887.395 86.04c5.165.04 12.744.17 14.886 5.3l-1.961 3.93c-1.28 1.05-1.067.8-2.64 1.46-3.681-2.09-7.465-7.26-10.285-10.69m-76.548-13.13c4.461.39 11.638.44 14.698 3.5l-1.045 2.39c-1.547 1.23-2.159 1.59-3.877 2.58-3.909-1.2-6.747-5.4-9.776-8.47m1140.623-68.18c4.46-.48 6.63-1.17 9.94 1.48.96 3.47.56 4.07-.29 7.73-4.03-1.27-8.14-5.28-9.65-9.21m-189.26 105.62c-3.26-3.98-1.83-8.7-1.06-13.58l1.07-.82.53.13c2.74 3.23 4.03 3.56 4.15 7.1-1.37 1.97-3.72 5.11-4.69 7.17"/></svg>