<svg xmlns="http://www.w3.org/2000/svg" preserveAspectRatio="xMidYMid meet" viewBox="0 0 2048 1462"><path d="M0 1189.93c25.32-1.08 53.802-2.13 79.122.61 46.618 5.03 93.248 10.46 139.852 15.59 44.355 2.99 89.182-3.94 133.348.82 27.289 3.07 54.121 10.18 81.144 14.43 38.957 6.14 78.538 7.83 117.871 9.51 45.978 1.96 90.942-10.17 136.5-10.07 41.143.09 83.068 7.03 124.225 2.94 32.644-3.08 65.154-6.89 97.984-7.62 48.888-1.27 96.324 8.47 144.504 15.15 127.36 14.46 253.14-32.63 380.54-19.16 12.29 1.3 27.16-.55 39.71.25 72.95 4.42 146.61-5.77 219.7-6.48 47.2-.45 94.88 2.96 142.04 5.22 11.87.57 60.97.87 66.67 10.66-1.67 4.1-10.24 4.66-14.36 4.68-97.33.53-193.5-8.56-290.93-.73-14.62 1.17-29.41 2.18-44.06 2.61-85.4 3.35-171.03-8.51-256.31 2.24-79.44 10.02-158.68 26.49-239.21 16.94-49.17-5.58-96.57-17.27-146.399-15.36-8.453.32-16.992 1.79-25.337 2.05-24.406.75-48.272 2.2-72.413 5.34-47.908 6.23-97.505-3.9-145.69-1.83-37.854 1.88-75.262 11.42-113.526 9.6-54.149-.81-99.91-6.6-153.163-15.49-13.69-2.11-27.628-6.75-41.313-8.44-44.435-5.69-88.978 1.09-133.273-1.47-47.88-2.78-95.932-9.04-143.688-13.96-29.923-3.08-53.529-3.56-83.538-2.56zm2048-393.94c-16.81 4.879-45 7.806-61.66 3.791-19.04-4.457-38.33-11.522-58.12-10.799-38.11 1.393-71.72 20.275-110.6 10.732-6.55-1.606-14.59 1.041-21.79-2.701-3.86-2.007-8.29-2.522-10.47-7.083l.96-1.818c9.17-4.862 36.97-2.68 48.59-1.942 33.69 2.143 62.59-14.321 95.93-13.689 12.37.234 27.25 2.823 38.81 6.636 29.43 9.706 49.33 7.041 78.35-1.038z"/><path d="M1453.12 211.585c3.71 1.522 23.62.953 29.35 1.672 70.49 8.857 145.56 46.4 182.75 109.177 20.92 35.306 30.95 77.254 35.82 117.598 1.09 9.019 3.03 51.535 6.95 55.758 6.04 6.493 73.44.659 85.36.629 16.01-.04 31.69 2.309 47.78 1.449 24.71-1.321 49.46-6.256 74.18-5.984 19.47.214 38.09 5.725 57.33 7.416 13.04 1.145 26.25-1.02 39.35-.7 7.66.187 21.24-.101 26.69 5.837.77.844 2.51.622 3.66.706l.61.804c-2.1 1.378-3.3 2.374-4.41 4.659-.09.187-.18.379-.27.568-2.86 1.636-4.08-.933-7.3-.479a59 59 0 0 1-2.56 5.707c-20.91 2.402-41.4 5.417-62.56 3.514-18.74-1.686-36.26-6.668-55.29-5.875-26.47 1.104-51.71 11.74-78.16 11.528-12.43-.1-24.99-4.278-36.99-7.28-30.25-7.571-58.24-5.112-88.01 3.558-4.71 15.12-3.8 66.471-5.08 86.115 16.33-2.527 34.7-3.185 51.14-.845 26.02 3.703 50.04 12.096 76.82 10.398 20.06-1.271 40.16-8.638 59.3-14.399 28.03-8.435 62.62-12.221 91.46-6.019 5.25 1.129 13.66 3.385 16.72 8.154l-.77 1.397c-7.81.988-15.7 2.811-23.55 3.258-16.18.921-32.01-.355-48.19 2.322-42.7 7.064-80.41 26.657-124.81 20.289-10.33-1.481-20.48-4.52-30.6-7.018-13.1-3.233-53.7-8.332-65.61-1.125-6.23 9.663-1.87 64.843-.12 78.557 53.94 1.062 92.98-28.33 142.87-32.031 39.55-2.934 90.28 33.513 132.63 30.64 8.99-.61 45.86-2.699 52.53.035l.57 2.245c-.34 1.011-.86 2.562-1.7 3.264-18.58 15.553-72.44 10.7-92.78 5.027-28.82-8.037-61.91-25.615-92.19-24.843-20.82.53-52.35 13.245-72.43 19.59a257.6 257.6 0 0 1-67.46 12.427c2.74 11.928 5.32 25.061 10.83 36.017 9.52 18.894 24.62 34.739 31.56 54.992 3.52 10.27 4.72 19.947 5.86 30.641 30.49.461 69.12 3.599 99.42 6.205 34.4 2.958 88.3 5.645 119.7 17.231 27.43 34.305-74.85 23.676-80.12 35.852 6.29 4.164 22.37 12.697 22.15 20.862-2.79 4.913-9.19 10.039-14.83 11.541-45.52 12.12-94.22 10.505-140.77 13.4-12.13.755-44.94 6.219-55.12 9.728-.44 5.104 7.96 9.159 7.28 17.561-1.47 18.341-61.59 22.075-65.87 25.325 9.04 4.88 74.17 2.16 87.53.275 25.54-3.597 53.15-10.512 79.78-9.686 46.7 1.449 92.2 13.921 139 15.441 15.63.51 33.27-.35 47.97 3.67 1.54.41 1.9 2.67 2.25 3.91l-1.3 1.73c-13.04 6.13-56.71 5.85-72.7 4.73-40.86-2.86-83.88-15.59-125-13.32-45.73 2.87-87.89 14.18-134.32 10.7-17.7-1.33-33.61-2.1-51.33-5.04-4.64-.76-34.16-6.99-34.92-6.92-19.1 1.69-152.97 3.88-160.65 10.07.15 5.43 6.91 6.99 7.71 13.59-5.87 15-26.35 18.8-40.42 22.21a337.7 337.7 0 0 1-113.52 8.63c-20.65-1.95-41.37-5.91-61.94-7.38-47.74-3.43-96.86-6.42-144.76-4.99-1.29.32-39.37.9-43.21.88-12.45-.06-30.531 2.66-41.935 2.47-45.172-.75-99.743-2.88-142.219-17.54-9.201-9.7-7.5-12.49 1.77-21.39-25.348-6.18-64.387-.25-91.19.96-35.808 1.72-70.082.85-105.836-3.12-12.624-1.4-41.25-.54-49.773-12.968-2.115-3.084.61-9.017 1.741-12.525-6.715-6.53-79.006-2.307-91.731-1.088-35.34 3.386-68.586 15.903-104.411 14.971-40.728-1.059-81.337-14.71-122.062-14.163-38.153.512-71.8 10.612-111.529 7.932-25.767-1.738-50.384-12.261-76.507-13.947-9.444-.61-46.68 8.516-51.597 5.485l.154-1.655c21.464-30.297 111.549-1.687 141.587-2.228 45.789-.826 84.273-13.726 130.508-7.862 35.206 4.465 93.196 19.317 127.211 8.386l.241-1.284c-2.503-1.825-24.268-4.968-31.984-9.624-5.151-3.109-7.074-6.558-8.41-12.238-.668-2.841-10.041-4.704-12.605-5.257-10.997-2.374-22.742-5.066-33.991-5.365-31.724-.842-157.778 11.787-176.963-5.551-1.896-1.714-3.288-4.178-3.275-6.781.027-5.266 4.233-8.789 7.745-12.097-25.128-2.38-118.762-4.506-131.44-21.252-3.892-16.255 31.155-22.77 41.85-25.04-8.485-2.087-36.961-1.546-41.022-7.446l.978-2.164c12.71-6.512 259.408-9.47 288.785-8.218 6.025-28.9 9.072-62.426 13.759-91.851 18.452-115.845 30.824-246.643 77.52-354.97-104.189 26.784-187.665 90.967-299.121 99.374-11.301.852-73.825 1.889-80.024-4.27-1.736-1.724-2.435-2.688-2.592-5.085 6.968-2.882 65.766-3.097 80.29-5.183 24.059-3.454 49.325-6.782 73.101-14.536 28.362-9.25 57.978-20.799 85.516-32.137 20.485-8.434 40.503-18.905 61.217-27.172 29.224-11.664 57.631-20.515 87.769-29.326 11.438-3.345 20.736-13.052 34.354-16.938 32.268-9.21 66.447-18.104 99.381-24.307 78.906-14.838 159.468-28.634 240-24.749 46.022 2.22 87.328 8.694 131.227 21.94.223.067 35.225-11.871 41.728-13.109 19.805-3.772 38.755-4.839 59.015-2.696 36.46 3.799 66.06 18.15 89.4 46.709 5.16 6.315 8.27 12.53 13.5 18.915 2.1.66 4.72.407 6.94.12 36.42-6.264 51.91-50.891 73.53-76.134 30.64-35.778 70.05-63.509 111.64-85.024 18.77-9.711 48.29-16.333 68.76-20.951 11.41-2.572 33.07-2.358 45.71-3.576"/><path fill="#fefefe" d="m1618.57 380.209 2.98.583c1.56 1.043 2.43 1.924 3.2 3.667 1.95 4.433 2.47 10.458 3.17 15.262 4.35 30.082-6.48 57.498-23.47 81.7-5.01 7.142-12.84 13.901-15.89 22.125-1.26 3.402-2.09 6.298-.58 9.634 2.66.676 4.51-.029 6.87-1.367 7.59-4.302 12.41-11.338 17.41-18.235 19.24-26.541 23.79-41.769 32.73-72.69 1.32 2.835 2.78 5.771 3.69 8.765 7.1 23.373-16.02 57.881-29.71 75.856-4.19 5.503-10.83 11.843-13.71 18.057-1.22 2.622-1.04 3.554-.07 6.174 2.17 1.431 3.83 2.241 6.5 1.778 11.04-1.915 30-33.901 35.17-44.39 3.18-6.462 5.19-14.31 9.35-20.138.6 1.894.91 3.715.89 5.711-.29 29.826-27.65 79.476-41.98 105.728-12.63 23.138-26.5 46.562-41.55 68.2-5.74 8.249-12.46 15.702-18.47 23.738-8.03 10.748-15.3 22.236-22.73 33.411a4337 4337 0 0 0-107.88 173.672c-6.9 11.644-21.36 40.768-29.56 48.668-62.23-.049-124.64-.109-186.85.914 50.93-55.242 98.09-113.928 147.08-170.888l53.47-63.002c14.83-17.23 44.17-48.753 54.18-68.302 5.1-9.975 4.43-24.452 5.47-35.396 1.38-14.595 4.13-29.195 10.69-42.435 10.72-21.662 26.64-39.935 39.59-60.217 9.91-15.526 17.61-32.564 28.13-47.741 3.55-5.117 13.66-19.012 19.27-20.901l1.49 1.402c1.45 20.036-10.66 37.492-17.42 55.299-1.46 3.843-3.32 9-1.53 12.904 2.02 1.781 2.26 1.996 5.08 2.399 6.06-2.163 11.74-5.828 16.6-10.004 32.13-27.582 44.93-58.278 48.39-99.941"/><path fill="#fefefe" d="M1339.31 361.079c4-.392 8.02-.27 11.99.363 9.76 1.624 18.78 5.797 24.61 14.08 8.55 12.133 7.37 25.334 4.82 39.087 26.78 33.643 71.99 70.241 113.59 82.439-.94.953-1.86 1.93-2.75 2.933-26.44 29.745-43.28 75.716-40.83 115.523-.64.951-1.29 1.89-1.99 2.799-8.38 10.914-27.07 16.845-38.88 24.149-11.36 7.02-22.94 14.118-33.78 21.892-9.24 6.631-17.99 14.179-27.81 19.933-6.95 4.069-15.6 8.846-23.64 10.012-3.89-2.897-5.9-10.462-8.46-14.754-11.04-18.539-26.19 5.171-41.36.363-2.41-.766-2.64-2.248-3.72-4.324-4.03-17.52-4.85-33.467-4.3-51.318.13-4.376 1.03-11.297-2.62-14.552-1.75-1.56-2.82-1.607-5.04-1.385-.77.566-1.32.944-1.85 1.758-12.3 18.918-3.98 51.94-.25 72.721-17-1.124-34.22-2.855-48.17-13.701-7.06-5.496-13.26-12.862-16.42-21.284-7.78-20.761-11.67-70.068-14.48-94.601a4336 4336 0 0 0-11.3-90.175c10.94.79 22.01 1.747 32.96.604 29.4-3.071 63.11-21.576 87.67-37.457-1.72-11.419.56-22.8 6.34-32.799 9.91-17.122 27.02-27.295 45.67-32.306"/><path d="M1377.63 536.89c.29.073.58.142.87.218 3.13.833 4.78 1.414 6.36 4.325 5.53 10.16 11.42 57.028 7.37 67.887-.65 1.761-2.36 3.399-4.11 4.026-2.12.755-2.5.341-4.44-.537-4.2-5.58-4.28-13.067-4.99-19.763-.68-4.398-1.23-8.73-2.85-12.901-4.92 1.676-8.73 4.768-14.31 3.348-3.03-.77-5.22-2.844-6.68-5.543-2.31-4.228-3.89-10.643-2.11-15.218 1.22-3.102 3.8-4.975 6.88-6.019 6.41-2.171 9.73-.543 15.28 2.417.31-7.96-1.47-15.025 2.73-22.24m28.08-22.767c2.15-.13 4.72-.446 6.83.023 4.44.988 8.38 6.711 10.59 10.422 11.67 19.561 18.2 60.159 12.64 82.563-2.47 1.932-2.96 2.28-6.06 2.641-2.59-1.48-3.62-2.225-4.89-5.116-3.92-8.911-2.86-21.39-5.07-31.099-4.01-17.607-11.64-34.751-15.24-52.23-.53-2.61.27-4.789 1.2-7.204"/><path fill="#fefefe" d="M1150.26 630.409c1.03.207 2.14.798 3.11 1.2 3.7 10.952 4.44 24.861 5.95 36.37l9.8 79.407a4159 4159 0 0 0 11.82 88.966c4.37 29.831 9.67 59.999 11.17 90.136-39.11 1.147-78.42.419-117.56.378-29.39-.031-58.97 1.028-88.305-.612-.861-.399-1.401-1.135-2.055-1.81-5.647-20.755-41.358-253.074-40.122-258.064 6.697-4.494 24.94-6.179 33.631-7.834 34.581-6.584 69.011-13.144 103.851-18.271l45.05-6.449c7.56-1.055 15.43-1.554 22.87-3.232.27-.059.53-.123.79-.185m-109.82-170.745c21.44-1.887 44.45-.077 65.84 1.832 8.21.733 40.27 3.27 45.12 9.065 1.37 5.004 5.96 40.002 3.94 43.629-8.69.738-19.45-2.326-28.25-3.531-8.4-1.148-16.73-1.573-25.19-1.718-50.14-.857-98.82 4.925-148.148 13.497-12.81 1.776-25.737 5.093-38.477 7.505-2.793-10.373-.205-24.575-4.784-33.787-1.966-1.308-2.874-2.112-5.307-2.205-1.419-.055-3.522.602-4.522 1.657-6.846 7.222-.85 29.473-.497 39.175-8.943 1.999-17.701 4.256-26.477 6.893.978-18.363-1.313-36.349 1.194-54.714 54.523-12.9 109.204-26.352 165.558-27.298"/><path fill="#fefefe" d="M1077.77 523.2c5.31 1.115 11.51.461 16.98.607 13.64.362 51.14.404 61.81 6.965 6.27 11.599 5.38 34.907 7.67 48.567-19.09-1.623-37.89-3.222-57.08-2.908-36.8.601-72.89 6.319-109.221 11.392-24.957 3.241-49.658 9.345-74.473 13.649-1.003-18.166-5.867-36.453-7.703-54.686q.365-.143.731-.283c28.454-10.685 88.096-17.943 120.176-20.451 12.72-.996 29.12.953 41.11-2.852m-60.1-129.553c38.08-2.983 74.88 2.431 112.02 10.228 10.43 15.14 16.7 30.357 18.76 48.74-11.86-1.67-23.68-3.889-35.59-5.112-39.97-4.105-79.37-3.141-119.289.441a847 847 0 0 0-117.305 24.117c2.302-18.372 7.804-37.08 13.89-54.532 41.44-11.142 84.581-21.043 127.514-23.882m100.55 197.937c4.39 1.311 11.93.104 16.78.284 10.34.383 20.65 2.349 30.97 2.263.75 6.211 1.6 12.408 2.57 18.59-18.19.823-36.84 4.371-54.92 6.806a1820 1820 0 0 0-145.379 24.681c-12.676 2.345-25.266 5.625-37.746 8.839-.592-12.07-4.592-23.562-4.561-35.757a840.8 840.8 0 0 1 192.286-25.706m-110.4-245.195c1.54-.086 3.08-.161 4.63-.226 30.25-1.302 59.93 2.439 85.04 20.77 8.54 6.229 16.02 13.764 23.78 20.909-34.97-9.863-72.15-9.858-108.14-8.876-37.689 4.178-74.052 10.677-110.977 19.246a196 196 0 0 1 4.181-5.218c22.249-26.673 67.302-43.609 101.486-46.605m-251.428 1.182c21.938-3.557 114.663 2.76 135.911 9.514 3.063.973 6.385 2.005 7.928 5.019l-.932 1.791c-2.37 1.341-4.666 2.167-7.43 2.11-3.996-.083-8.269-1.416-12.274-1.967a1135 1135 0 0 0-29.71-3.551c-18.035-1.97-36.347-2.2-54.217-4.374-20.512.678-41.236.102-61.706 1.609-14.786 1.09-74.51 10.804-82.061 7.84l-.602-1.451c.222-.275.43-.563.665-.827 9.161-10.271 86.659-14.831 104.428-15.713m143.914 201.667 1.19.589c2.237 7.61 6.954 46.188 6.659 54.68-4.184 5.632-18.136 6.842-24.809 8.288l-1.313.075-1.332-1.2c-3.417-17.889-5.167-37.917-5.906-56.142 8.559-1.186 17.153-4.049 25.511-6.29m8.576 72.026c3.513 3.584 6.321 28.371 7.624 34.937-8.754 2.631-17.53 4.855-26.199 7.808-4.816-9.874-6.509-25.921-7.63-36.883 8.87-1.604 17.51-3.483 26.205-5.862m689.298-245.808c1.33.436 2.17 1.044 3.32 1.824.35 3.454 1.4 6.741 1.92 10.168 3.37 22.518-12.41 49.365-25.37 66.99l-1.32 1-.64-.803c2.56-7.889 5.26-15.819 6.93-23.955 3.82-18.681 3.4-39.141 15.16-55.224m-467.83 603.039c8.73 3.867 21.87-.881 29.97 5.275l-.75 1.469c-6.71 3.261-15 3.043-22.35 3.56-7.01-.456-25.34-.882-30.52-5.444 3.85-4.373 17.91-4.332 23.65-4.86m311.3-10.094c12.52.261 25.02-1.668 37.49.526 2.74.482 6.44.939 8.07 3.24l-1.73 1.44c-4.9-.094-9.51 1.748-14.5 1.935-10.7.546-22.06.252-32.76-.478-2.79-.19-7.07-.172-8.95-2.336 3.08-3.071 8.23-3.418 12.38-4.327m-478.435 26.075 2.636.984c7.955-1.649 18.689-1 26.895-.871 3.999.063 10.074-.039 12.964 2.926-2.7 2.595-10.468 3.245-14.343 3.875-3.615 1.09-34.272 1.34-37.865.35-2.663-.73-6.458-1.99-7.848-4.374 5.247-2.066 11.933-2.51 17.561-2.89m-169.282-40.027c3.717-.011 7.359-.571 11.12-.443 5.797.197 23.96.08 27.966 4.372-3.086 3.59-10.908 3.372-15.396 3.811-10.915-2.926-30.209 2.813-39.649-3.871l.718-1.154c5.101-1.584 9.93-2.233 15.241-2.715m-491.79-63.934c8.971 1.241 19.5-1.432 27.828 3.566l-.212 1.558c-4.992 3.426-10.654 3.26-16.484 3.576-7.985-.04-24.587 1.266-30.75-3.651l.807-1.563c5.363-2.643 12.403-1.545 18.206-3.292.203-.061.404-.129.605-.194m496.846 2.789c8.771 3.408 20.942-1.255 30.473 2.43 1.004.387.54.153 1.175 1.556-2.278 2.363-7.085 2.125-10.319 3.056-.413.119-.823.247-1.235.37-10.515 1.196-26.622 2.395-36.137-2.693l.377-1.302c2.173-1.09 3.927-1.771 6.375-1.957 3.171-.24 6.179-.838 9.291-1.46m-319.727-15.725c10.754-.195 17.546.94 27.549 5.305-7.44 1.526-14.678 2.892-22.303 2.813-9.094-.348-18.028-.433-26.741-3.379l-.101-1.099c7.356-2.001 13.912-3.408 21.596-3.64M662.181 927.5c9.813.333 23.054-2.108 31.995 2.67l-.126 1.51c-4.149 2.439-9.147 2.639-13.83 3.255-9.605.102-25.205 1.266-33.621-3.273.143-.177.262-.376.429-.529 2.062-1.875 7.878-2.438 10.632-2.606 1.432-.088 2.378-.067 3.742-.619.272-.11.519-.272.779-.408m671.539 32c.96-.042 1.91-.062 2.87-.061 6.16.006 16.66-.282 21.2 4.289l-.93 1.682c-5.19 2.104-15.08 1.938-20.64 1.052-3.29 1.916-26.65-1.121-32.23-1.532 9.87-2.88 19.55-4.326 29.73-5.43m337.29-57.024c.38-.078.75-.185 1.14-.233 6.12-.76 23.78-1.132 28.48 3.327l-.86 1.553c-4 2.073-8.61 1.941-13.01 2.206-8.31-1.076-17.78-.236-26.36-.997l-1.02-1.724-.63.955.29-1.219c4.01-2.679 7.48-2.688 11.97-3.868m-1094.069 9.008c3.515.574 7.304-.02 10.874.05 6.761.133 12.89 1.686 19.33 3.602-5.588 1.429-11.321 3.236-17.093 3.564-7.943.258-21.914 1.607-28.762-2.958l.493-1.461c4.549-2.315 10.141-2.339 15.158-2.797m69.45-36.883c9.489.521 15.904.831 24.876 4.613-7.485 1.99-15.386 2.619-23.06 3.532-5.738.628-15.625-.879-20.873-3.077l.483-1.25c5.871-2.403 12.338-2.892 18.574-3.818m1161.889 18.82.89.406c6.46-1.308 17.04-1.331 23.37.682 2.2.697 2.76.685 3.83 2.686-1.82 1.956-3.59 2.245-6.13 2.851-8.11.43-16.41.808-24.46-.492-2.54-.411-4.25-.592-5.79-2.699 2.42-2.342 5.09-2.561 8.29-3.434m-1380.126 9.971c7.047-1.328 17.915-.835 24.607 1.573 1.066.383.95.752 1.417 1.723-2.713 2.481-7.064 2.771-10.579 3.491-9.202-.193-18.518-.173-27.377-2.974l-.53-1.314c3.811-1.945 8.269-2.061 12.462-2.499m1254.036-52.875c4.33.259 9.65.744 13.3 3.202l.33 1.792c-3.69 2.749-9.26 2.289-13.68 2.068-4.52.21-9.97.476-14.38-.412-2.11-.425-3.13-.662-4.25-2.452 4.56-4.298 12.76-3.9 18.68-4.198m-507.95 153.063c4.01.46 8.03.85 12.05 1.18l1.52 2.77 1.21-1.24-1.49-1.14 1.48.94-.29 1.13c-6.94 3.96-14.29 3.18-21.97 3.04-4.2-.13-9.22-.43-12.89-2.61l.56-1.25c6.66-2.09 12.89-2.37 19.82-2.82m-674.619-59.179c9.863-.638 18.673 1.111 28.242 3.166-3.795 1.053-7.748 1.564-11.63 2.211-8.757.784-17.059 1.055-25.516-1.778l-.55-1.313c2.862-1.963 6.094-1.944 9.454-2.286m325.883-85.961c10.601 1.045 23.514-3.064 33.36 2.69l-1.067 1.682c-9.023.569-24.752 3.584-32.494-1.843zm623.216 37.853c1.04.317 16.59 1.202 17.98 1.145.29-.012.58-.054.87-.081l1.08 1.509c-.87 2.459-.79 2.39-3.1 3.598l-1.88-.664c-5.84 1.544-11.51 1.446-17.41.308-2.44-.469-4.55-.698-5.98-2.773 2.12-2.218 5.54-2.431 8.44-3.042m160.12 24.1c4.31.496 10.84.246 14.09 3.448v1.416c-2.61 1.542-6.45 1.835-9.42 2.416-5.7-.219-12.06.295-16.84-3.268l.49-1.573c3.47-2.282 7.67-2.173 11.68-2.439m-48.54-54.124c6.11-.629 11.79-.771 17.76.953 1.81.523 1.83.42 2.7 2.029l-2.06 1.646c-2.23.063-4.34.41-6.53.785-8.02 1.65-18.27-.552-26.39-1.388 4.84-1.951 9.38-3.125 14.52-4.025m-681.188 47.652c7.253 1.031 17.051-.97 23.509 2.867l-.825.937-.553-.139-.792.901-1.604-.079c-2.571.492-5.197.999-7.813 1.154-4.38.26-15.159.213-18.48-2.823 1.591-2.34 3.89-2.223 6.558-2.818m751.668 33.9c2.93-.281 6.01-.391 8.95-.063 2.94.327 6.76 1.074 8.63 3.332-1.93 2.208-4.6 2.377-7.35 2.923-8.19.155-16.32-1.528-24.26-3.324 4.66-1.303 9.24-2.152 14.03-2.868m-706.608-56.286a566 566 0 0 0 15.526 1.763l.851 1.278 1.312-.434c-1.591 1.171-2.478 1.473-4.461 1.675-2.32.237-4.465.671-6.728 1.221-4.732.315-10.227.614-14.895-.228-2.184-.395-4.252-.593-5.564-2.452 3.697-2.22 9.682-2.198 13.959-2.823m435.838 102.711c3.81.433 7.48.642 10.98 2.313l.13 1.38c-5.34 3.261-11.27 3.061-17.28 2.691-3.32-.39-6.3-.6-9.31-2.188l.69-1.573c3.5-2.164 8.96-2.026 12.91-1.433.24.036.48.08.71.12zm-659.707-19.679c2.396.051 4.811.095 7.199.297 2.74.232 5.557.726 7.327 2.882-2.201 2.228-5.213 2.35-8.175 2.888-4.737.155-9.48-.568-14.18-1.091l-.915-2.273-1.174 1.382-.038-.715c2.974-2.404 6.259-2.413 9.956-3.37m519.547-116.68 1.68 1.012c2.7-.585 5.49-.753 8.25-.678 2.3.062 4.68.467 6.3 2.215l-1.31 2.018c-5.67.463-14.86 1.899-19.88-1.356l.47-1.556zm-322.737 90.521c5.576-.69 11.665-.224 17.028 1.508l.085 1.558c-.462.121-.921.251-1.385.363-4.616 1.107-12.096.872-16.191-1.628z"/><path d="M740.984 1079.56c5.724.79 12.456-.31 18.363-.25 14.539.15 29.921.64 44.335 2.57 30.198 4.03 59.891 11.59 89.908 16.8 30.507 5.31 63.308 7.48 94.253 6.04 29.897-1.39 59.597-8.85 89.247-13.14 37.28-5.4 80.61-7.97 118.33-8.34 20.55-.2 39.59 4.85 59.63 8.68 31.26 5.98 63.24 12.31 95.09 13.76 40.6 1.85 81.8-2.37 122.05-7.25 22.33-2.7 43.97-6.48 66.55-7.06 35.84-.91 78.26 9.48 114.42 13.98 26.27 3.26 53.18 2.41 79.52 6.19 4.9.7 11.87 1.74 15.55 5.23l-.43 1.54c-22.69 12.85-133.72-3.17-164.81-7.14-9.45-1.2-18.68-4.5-28.24-4.74-28.5-.71-56.52 5.39-84.71 8.27-10.31 1.47-20.67 1.76-31.02 2.71-48.55 4.49-92.56 6.1-141.02-1.97-31.51-5.25-74.89-16.39-105.35-16.31-36.25.11-75.54 2.9-111.51 7.7-50.01 6.67-84.15 15.39-135.85 12.21-47.217-2.9-91.314-14.73-137.775-21.01-27.475-3.71-56.068-4.12-83.746-2.56-33.602 1.9-57.038 16.54-86.957 28.38-44.77 17.71-80.613 31.13-129.03 37.17-6.856.86-19.997 4.43-26.542 3.1-2.277-.47-3.377-.83-4.684-2.7.174-.25.313-.52.521-.74 3.99-4.21 49.152-14.11 56.805-16.1 19.17-4.97 40.33-9.91 58.7-17.09 36.813-14.39 73.571-36.25 112.081-43.92 11.75-2.33 24.375-3.01 36.321-4.01m-487.042-20.97c5.395 1.34 14.671-.02 20.452.05 10.128.06 20.244.69 30.303 1.87 40.101 4.79 79.467 15.77 119.661 20.15 24.672 2.69 52.462 1.93 77.156.53 9.778-.55 83.212-11.15 85.569-10.52.669.18 1.909 1.28 2.539 1.7l.12 1.96c-.865.99-1.547 1.74-2.637 2.5-29.027 20.11-116.949 20.74-151.051 18.07-31.616-2.48-64.038-7.75-95.072-14.17-21.785-2.85-42.739-9.44-64.998-9.13-45.101.64-85.462 14.32-128.387 25.75-45.714 12.18-92.033 18.5-139.23 13.25a113 113 0 0 1-4.109-3.95l.12-2c1.71-1.47 2.305-2.05 4.54-2.38 4.68-.68 10.106.23 14.924.11 12.637-.31 25.459-.82 38.03-2.19 25.629-2.8 50.285-7.98 75.103-14.76 38.484-10.52 76.915-23.85 116.967-26.84"/></svg>