<svg xmlns="http://www.w3.org/2000/svg" preserveAspectRatio="none" style="display:block" viewBox="0 0 2048 1152"><path fill="#fefefe" d="M0 0h2048v1152H0z"/><path d="M306.42 82.54c10.257-.565 38.43-2.156 46.586 1.497 13.951 6.249 21.425 3.405 36.885 3.327l69.309-.151 287.431-.048 589.369.033c120.29-.804 240.59-.852 360.89-.146 1.22-1.05 4.45-3.773 6.05-3.89 25.82-1.87 52.24.327 78.18.029 4.85-.056 11.4.814 15.65 3.373 2.88 5.502.74 72.803 1.1 82.988.09 2.317-3.38 8.978-3.41 10.041-.48 16.361 1.15 35.216.87 51.53-1.11 63.585-.18 127.203.49 190.781.2 18.795-.97 38.35-.66 57.3.11 6.763.65 13.314.64 19.794-.01 10.348-.98 21.06-.9 31.44.02 2.738-.33 2.916.94 5.019 10.94.663 31.49-5.718 45.04-5.888 16.75-.211 23.19 4.386 38.12 5.776 5.87-8.27 12.61-19.427 20.92-25.42 2.97-2.14 10.46-3.545 11.51 1.33 9.62 44.719 30.17 71.183-29.23 42.04-8.58 6.302-17.57 11.259-26.61 18.152 1.09 20.542 6.19 51.253 8.04 72.683 1.23 14.324 4.93 55.653 7.78 68.46 5.9 5.514 41.84-2.986 42.53 9.292 2.05 36.44.28 76.733.11 113.426-.04 9.861-3.87 33.929 4.4 38.621 2.58-.194 4.04-.561 6.35.488 1.57 2.669 1.18 4.901 1.12 8.07-3.17 2.866-4.49.079-10.47 1.833-5.52 7.053-.74 46.36-3.07 56.454-4.66 20.248-52.62 11.503-67.99 12.884-7.05.634-27.41-1.175-30.75-5.431-7.61-9.711 1.83-53.869-3.44-61.859-3.87-1.843-9.59-1.418-14.03-1.441-.54 16.592 2.04 47.884-1.29 61.927-1.11 4.695-84.36 5.266-91.24-.323-4-3.258-1.99-49.409-2.63-56.379-16.52 1.193-30.99.013-47.38-.073l-92.41-.257-81.6.531c-13.22.104-45.53 1.723-56.5-1.779 4.06 19.87 8.95 40.586 9.37 60.909-.52 12.979 2.49 21.933-13.97 21.54-14.33-.342-29.84-.298-43.98-.069-10.18-13.804-19.06-30.998-27.75-45.83-3.6-6.136-8.3-14.049-11.61-20.261-1.07-1.996-.35-10.872-1.98-15.384-8.2-.922-19.12-.262-27.67-.316l-60.7.212c-26.83.18-61.82-1.741-88.23.63-3.74 4.963 6.6 91.443 4.73 109.103l-.12 1.052c8.85 4.96 17.86 12.56 26.51 17.3 12.58 6.88 28.09 12.92 41.49 18.41 9.64 3.34 12.64 3.02 12.96 13.11 2.96 1.27 10.79 1.13 14.27 1.14 50.69.11 101.38-.34 152.07-.34 12.97 0 25.99-.5 38.9.05 2.79.11 5.14 2.04 7.19 3.74 2.36 6.65-8.19 9.78-13 9.65-17.84-.5-35.59-.43-53.42-.53l-108-.17-509.92-.47-157.208-.13c-30.082.13-60.163.41-90.247.24-5.488-.03-13.634-1.1-15.973-6.67 2.224-7.52 32.569-5.46 39.039-5.44l48.655-.07 148.032-.04c21.466-.09 42.977-.16 64.48-.37 14.413 1.04 3.827-7.99 12.815-11.59 22.722-9.09 61.869-20.48 78.189-39.291.572-5.364.916-10.837 1.111-16.231 1.117-30.956 3.948-62.256 4.107-93.201-59.981-1.138-120.831.202-180.908-.666-7.786 19.892-29.188 55.648-40.488 75.294-.95 1.652-5.234 5.059-6.952 6.362-9.538-.076-49.222.951-52.621-3.292-8.126-10.144 3.48-67.654 5.422-78.847l-274.188-.019c-3.849 4.409 1.113 54.429-3.601 60.413-9.77 4.68-67.716-.268-81.517 1.904-1.327.209-9.583-1.194-10.336-2.493-5.003-8.635 1.293-53.5-3.739-59.098-3.096-.241-3.423-.734-6.06.454-3.029 16.011 2.048 40.364-1.455 55.399-7.419 9.063-63.999 6.406-77.25 6.55-4.321.047-15.357-5.531-19.829-8.083-.819-8.353-.719-52.528-2.661-55.526a562 562 0 0 0-11.549-1.686c-2.76-1.781-2.902-2.348-4.178-5.421.2-3.715-.35-2.482 1.728-5 4.592-2.094 10.315-2.176 15.422-2.598.96-10.619.077-31.781.054-43.431a3184 3184 0 0 1 .486-102.04c12.578-2.043 26.543-1.711 39.756-3.721-2.055-8.633-1.328-35.469-1.357-45.383l-.482-74.599c-8.962.567-64.686 4.482-65.89-3.312-1.473-9.543-5.598-58.663-2.83-66.289 14.999-18.971 107.876-9.739 136.762-13.674 1.865-4.347 1.279-29.944 1.253-36.072q-.027-27.27.281-54.539l.883-168.342c.163-26.262.689-52.923.975-79.227.046-4.236-3.289-5.896-3.596-7.544-2.217-11.907-1.672-78.976 1.155-86.606 7.726-7.648 37.426-4.976 50.47-5.584"/><path fill="#fefefe" d="M1256.15 263.536c17.88.585 182.28-1.875 186.27.905 1.84 15.413 2.26 47.861 2.86 64.223l4.46 127.729c3.87 107.922 9.94 217.384 12.65 325.032-31.64-1.327-310 1.595-316.02-1.823-1.64-5.464-1.98-15.447-2.38-21.407-3.01-44.541-8.66-88.824-13.32-133.209-.76-7.3-1.85-16.683-3.69-23.651l-.29-1.066c2.88-7.712 4.21-10.772 8.29-17.908 3.43-.942 16.17-6.29 19.88-8.19 25.08-13.146 60.22-27.308 72.22-55.021 6.6-15.26-.19-39.993-12.78-49.841-24.21-18.923-72.99-59.902-101.77-67.218a237 237 0 0 0-33.81-5.743c-4.92-.456-23.29-1.142-26.53-2.295-2.09-3.135-1.73-6.701-2.05-10.295-2.04-15.668 12.26-19.157 20.95-28.464 5.74-6.153 1.57-13.759-3.92-18.324 10.52-16.09 12.63-37.865-9.98-45.902-4.68-1.666-10.92-.33-15.92.387-12.89-21.299-37.62-13.634-47.866 6.279a48.46 48.46 0 0 0-3.014 36.748c-14.745 10.825-16.488 21.453 1.109 30.569 12.021 6.227 9.731 17.007 8.34 28.921-2.895.583-5.869.864-8.815 1.044-16.341.998-31.866 3.234-47.931 6.295-15.444 2.82-21.873 5.613-34.365 14.227-63.29 43.676-145.02 90.715-33.258 147.108 12.389 6.252 49.534 20.047 49.279 35.858-.298 18.429-2.702 38.944-4.16 57.529l-9.896 125.858c-6.929-.926-24.534-.328-32.191-.329l-71.073.06-151.427-.229c-18.346.06-54.476-.949-71.147.681-.082-37.593 3.416-82.179 4.899-120.472l10.464-260.393 3.833-88.125c.487-10.793 2.27-39.104 1.279-48.454 40.526 1.113 81.456.706 121.964.776l223.596-.433 210.53-.734c31.37-.199 63.43.262 94.73-.703M460.029 99.528l843.571-.117 269.59-.048 76.44.196c14.57.08 33.36.847 47.45-.59-1.32 16.454-.49 42.939 0 59.982-10.25.832-27.65.486-38.55.542-13.8.071-31.91.778-45.28-.015-23.77 1.108-54.63.071-79.05.153-62.4.329-124.81.323-187.21-.021l-554.649-.147-295.792-.065-98.836.371c-8.304.02-36.437.678-42.496-.519-1.102-1.546-.167-51.602-.565-59.125 34.046-1.343 70.744.579 105.377-.597m-122.628 77.04 1.398-.249 1.159 1.081c.488 34.923-.614 72.707-.697 107.904l-.892 330.663.323 229.811c-.164 26.574 1.518 65.323-.356 90.429-2.799 2.093-54.369 1.305-62.089 1.269-2.996.469-3.715.755-6.305-.704-1.555-4.527-.23-89.786-.216-100.746l-.425-235.513c3.26-.236 8.044-.095 10.479-2.512 4.231-4.198.98-64.069.961-73.463-3.842-1.876-6.469-3.206-10.078-5.474-2.26-12.247-.051-29.025-.297-41.657-.329-16.929-.08-33.785-.007-50.71q1.389-124.546 1.416-249.098c20.281-1.338 44.447-.189 65.626-1.031m1379.339-.189c7.84 1.428 53.38.444 63.21.331-.91 25.422.53 59.484.53 85.908l-.05 186.074.49 55.951c.13 7.311 2 30.341-1.2 35.939-29.22 1.063-29.1 18.625-17.6 40.831 4.32-.381 14.46-1.82 18.1-.658 1.32 5.414 1.2 61.092 1.23 71.701l.41 199.387c.17 13.631.2 27.263.11 40.895-.16 11.539-.77 29.073.52 40.229-.22 1.379-.75 2.139-1.42 3.354-3.24 1.078-60.6.273-65.45-.714-2.23-3.467-1.18-63.166-1.17-71.674V732.739l.26-548.542c0-5.661-.91-4.887 2.03-7.818m-516.4 35.126c67.34 1.214 135.2-1.023 202.59.315 11.89.236 25.45-.968 37.13.595 2.34 4.449 2.22 29.238 3.12 37.477-24.79 1.124-53.56.564-78.59.639l-126.18.584-361.7 1.453c-78.903-.705-158.169 1.143-237.111.327-11.288-.117-22.504.526-33.786.016a666 666 0 0 0 1.353-40.79l400.334-.119c63.17-.027 129.86 1.089 192.84-.497"/><path fill="#fefefe" d="M1037.87 384.451c1.63 5.732-.3 17.615 6.94 20.215 4.77 1.714 12.62 1.491 17.87 2.08 23.24 2.61 48.5 2.387 68.3 16.586 20.22 14.729 63.25 40.814 78.34 58.626a32.4 32.4 0 0 1 7.17 14.492c2.82 13.521-3.09 26.023-13.35 34.745-4.48 3.81-10.93 10.163-16.7 11.293-3.38-1.807-20.99-21.288-25.31-25.883 5.94-8.423 31.85-31.65 30.56-40.248-2.15-1.781-2.43-1.225-5.7-1.349-7.23 2.963-15.57 12.948-21.26 18.815-17.45-11.918-51.43-36.25-73.33-37.068-4.18-.156-5.86 7.354-5.12 10.812 5.99 27.845 10.06 65.264 18.27 92.02-27.82-6.413-60.79-7.762-89.31-7.813-21.183-.647-46.366 3.125-67.144 7.197 2.559-13.165 18.946-92.733 16.948-98.982-11.218-9.944-69.571 24.287-81.211 32.567-4.736-4.979-18.845-21.925-25.369-13.299.025 7.799 24.533 29.84 31.469 37.577-8.989 9.578-16.675 17.158-26.185 26.121-72.748-45.051.484-78.073 38.477-108.544 24.997-20.048 47.506-23.736 78.83-26.432 23.305-2.006 30.005 4.744 30.225-22.104 1.05.478 2.13.896 3.22 1.251 9.33 3.117 15.01 1.549 23.37-2.675m416.95-173.667c5.57 1.492 32.82.54 40.1.385 2.23 37.848 2.67 79.285 4.03 117.58 3.2 70.686 5.72 141.401 7.55 212.135 2.93 94.18 8.24 192.799 8.99 286.704-.04 2.224-.14 3.478-.45 5.68-3.39 1.323-34.99.926-37.17-.925.45-10.403-1.77-39.866-2.28-52.1l-4.03-109.286a38597 38597 0 0 1-16.74-460.173M352.562 543.275c5.917 3.038 40.824 40.551 48.594 47.743 7.891 7.303 40.312 37.941 44.73 45.43 1.272 40.603-.472 118.969.323 163.631.025 1.404-2.578 2.073-2.312 7.316 7.566 9.47 58.722 2.48 71.941 4.867 5.431.98 4.046 19.485 2.23 21.818l-166.341-.077c1.241-24.103.058-57.655.047-82.535l.691-135.667c.029-14.079-1.705-60.69.097-72.526m204.08-331.21c6.708.007 34.359-1.049 37.676 2.915-.595 45.058-3.001 89.95-4.846 134.965l-9.603 235.432a11866 11866 0 0 1-6.958 170.049c-.915 20.986-1.081 59.177-3.47 77.711-2.688 1.805-1.799 1.248-5.684 1.145-7.65.658-23.741-.108-32.841.228 1.987-8.783 2.496-45.485 2.829-56.886l3.286-93.232a21480 21480 0 0 1 12.874-322.469l3.598-92.228c.606-16.267 1.12-41.967 3.139-57.63M1700.68 537.796c2.28 5.835.97 41.51.97 49.749l-.04 104.756c.04 41.909 1.83 99.582-.77 140.456-27.43.809-64.2 1.007-91.18.103-2.19-3.779-.79-19.884-1.52-25.008-.43-2.982-4.02-7.991-3.9-11.028 1.07-25.616-1.07-143.655.77-161.499.55-5.271 85.73-85.834 95.67-97.529m-684.14 350.725c1.47-.473 44.64.733 49.92.82 7.18 19.635 13.73 89.49 22.74 111.829.94 2.35 10.18 2.91 13.51 3.16-1.56 14.43-2.24 31.03-2.59 45.49-16.59.31-47.14-.59-61.88.9-7.46.43-78.986-.24-81.329-2.16-1.592-8.87-1.374-34.18-1.977-45.22 4.465.17 10.539 1.06 14.339-1.73 4.014-2.94 21.351-100.639 22.953-112.925 8.104.383 16.224.328 24.314-.164m-276.3-94.927c6.385 2.978 97.459-1.51 110.808.401 12.633 1.809 42.998-2.92 57.183.884 2.568 3.954-.651 33.621-1.149 40.151l-151.25.055c-54.676 1.06-119.282.898-173.907-.329.996-13.345.937-27.775 1.349-41.27 11.444.613 153.463 1.435 156.966.108m406.8-.986c7.41 2.161 47.87 1.184 58.1 1.16l171.17-.107 50.16-.046c8.33-.04 28.36-.602 35.85 1.047 1.77 2.412 2.26 29.725 2.44 34.586.14 1.319-.1 1.962-.34 3.28-4.35 2.599-23.13.999-29.65 1.023l-65.81.312-219.01.586c-1.49-13.358-1.66-28.089-2.91-41.841m679.26-65.574c19.62.31 39.24.398 58.87.264.9 9.486-.49 37.335-.44 48.737a5475 5475 0 0 1-1.9 162.099c-1.94 2.589-2.23 1.963-5.98 2.866-11.19-.858-45.14.809-51.89-2.645-.49-1.535.88-209.88 1.34-211.321m-1595.772 9.383 1.857.016c3.588 3.261 1.773 14.036 1.776 19.176l.251 33.928.159 85.2c.01 19.86-.421 42.501.705 62.1-12.086.952-26.84.465-39.499 1.099-4.442.145-10.97.678-15.095-.376-.981-4.254-.817-8.289-.878-12.628-.763-54.158-.478-108.296-2.796-162.425-.348-8.131-.404-15.664-1.617-23.751 11.886-1.76 42.142-2.054 55.137-2.339M1699.91 472.734c2.81 3.9 2.07 47.76-.17 50.144-15.16 16.167-32.33 31.863-48.29 47.449l-124.81 122.601-.65.396-1.03-.71c-.86-4.173-2.32-47.11-.4-49.053 17.58-17.796 36.35-35.371 54.42-52.783zm-1347.165 3.662c4.385 2.33 36.959 35.815 42.52 41.369l50.487 49.53c20.968 20.564 42.624 40.355 63.02 61.452 6.093 6.302 11.62 10.943 17.256 17.744-1.454 11.805-1.296 33.463-1.63 46.196l-2.011-.16c-19.485-18.787-47.445-47.046-65.799-65.111l-70.958-69.442c-10.45-10.294-23.369-22.255-33.071-32.817-1.061-8.628-.657-39.801.186-48.761M1620.53 845.555c7.03-.832 77.07-.048 79.92 1.405 1.49 6.801 1.33 21.039.54 28.12-44.47-.568-88.95-.697-133.42-.386-15.54-.013-39.76.986-54.32-.027-23.18.318-70.84-1.661-91.82.765-1.15-9.866-2.17-19.746-3.07-29.637 51.81 2.357 105.35-1.045 157.31.219 14.37.349 30.63.302 44.86-.459m-1268.566-.085c11.49.957 28.708.594 40.648.664l83.88-.046c51.167.001 107.561 2.05 158.422.565-1.68 6.389-2.618 11.616-3.751 18.082l-1.904 10.076-184.859.184-57.276-.174c-9.098-.019-27.042-.464-35.404 1.085.41-9.838.227-20.53.244-30.436"/><path fill="#fefefe" d="M1822.72 576.17c1.03-.068.84.116 2.05.764 1.01 4.833 1.46 9.294 1.93 14.195 2.88 30.452 7.21 60.77 9.53 91.277.73 9.685 2.53 20.207 2.19 29.865-3.54 2.331-22.78-1.913-23.66 4.194-1.24 8.693-1.42 19.083-1.67 27.891-.8 25.039-1.23 50.09-1.27 75.143.01 9.986 1.95 48.637-2.33 54.62-3.28 1.961-6.69 1.11-10.57.699l-1.99-.675c-1.88-3.962-1.32-203.598-1.36-222.86l-.23-47.015c-.11-7.966-1.1-15.11-.49-22.945zM1617.21 427.6c22.55 2.405 59.29-.673 84.73 1.144-.09 4.871-.08 24.305-1.88 26.348-14.18 16.098-42.62 42.761-57.39 57.137-12.11 12.567-26.14 25.678-38.71 38.071 1.29-7.975.73-24.95.7-33.825l-.08-59.236c0-6.933-.42-21.626.91-27.663 2.82-2.289 7.87-1.869 11.72-1.976m-1260.383.844c26.903-1.097 61.4-.308 88.551-.004 1.036 10.131 1.403 116.531-.116 120.795-17.122-18.833-41.427-39.635-59.713-58.061-7.844-7.903-25.054-25.303-32.886-31.599-.051-6.46-1.026-23.662.929-29.912.337-1.075 1.779-.97 3.235-1.219M231.96 601.455c8.028-.385 16.109-.384 24.15-.455-1.85 70.304.858 195.304.306 271.31l-1.742 2.011c-3.663.975-2.135 1.089-5.737-.568-2.392-3.939-1.53-3.742-1.322-9.204.621-7.394.009-27.482-.002-35.766l-.026-70.862c-.029-5.671.471-28.077-2.888-32.09-3.598-4.301-15.21-2.937-21.158-2.685-1.98-26.781-.564-55.628-2.45-82.666-.79-11.33-1.656-25.787-1.382-37.009 3.184-1.765 8.411-1.739 12.251-2.016m269.135-173.373q16.886.042 33.768.409c-.842 3.808-1.144 18.642-1.358 23.409l-2.251 49.819-3.265 77.36c-.566 12.897-1.919 31.546-1.553 43.91-.176 1.368-.613 2.021-1.215 3.268l-1.878-.352c-4.084-4.517-20.171-17.448-20.328-21.676-2.154-57.812-2.812-118.482-1.92-176.147m1027.985-.501a460 460 0 0 0 19.11.392c-1.52 54.987 2.56 111.735.35 166.748-.47 11.564-5.11 14.187-13.2 21.632-3.75 3.849-8.35 7.906-12.34 11.588.08-7.085.04-14.46-.31-21.533-2.94-59.567-4.45-118.972-6.05-178.566 4.53.11 7.92.012 12.44-.261M715.589 847.455c12.038 1.509 53.041.705 66.588.655l124.217-.163c-.284 8.069-.93 19.117-1.962 26.957-37.035-.281-74.43.425-111.481.434-25.062.006-49.756-.243-74.836.587.262-8.785-1.143-19.804-2.526-28.47m435.291-.691c14.97.881 33.48.253 48.81.213l84.89-.102c11.07-.001 38.46-.621 47.95.646 1.11 4.687 1.28 21.304 1.34 26.557-14.1 1.614-42.24.649-57.1.734q-61.815.341-123.63-.002c-1.39-7.898-1.77-19.745-2.26-28.046M461.125 427.722c9.718.371 17.607.469 27.318.165 2.291 34.58-.278 77.304.817 112.612.252 8.138.972 48.835.367 53.735-8.549-10.128-21.52-22.515-31.16-32.117a7685 7685 0 0 0-.543-89.83c-.135-12.601-.588-27.68.107-40.36.146-2.668 1.122-2.796 3.094-4.205m1098.775.238c6.67-.255 24.7-.396 30.7.558 2.6 5.806 1.35 117.906 1.3 132.528-4.67 5.333-10.02 10.513-15.04 15.551l-16.35 16.151c.9-11.622 1.79-157.38-.61-164.788m31.33 216.843c.86 4.405.61 41.068.45 48.117-.8 34.955.35 70.852-.11 105.593-5.61.419-12.13.364-17.82.455l-12.58.042c-.68-12.859-.11-29.775-.09-43.03l.04-80.275c9.72-9.988 21.12-20.443 30.11-30.902m-1132.585 3.944c3.892.283 29.579 26.263 30.018 29.841 1.378 11.23.444 25.812.455 37.428q.33 41.937-.226 83.872c-10.807-1.332-18.989-.914-29.704.447zm196.574 198.724c6.821.699 17.297-.917 23.695 1.225 2.485 4.275-5.698 40.197-6.678 47.739-.894 6.877-2.518 28.277-6.998 32.891l-3.027-.297c-8.864-.649-19.192-.368-28.199-.326 4.684-23.587 7.102-58.109 12.468-79.875 2.3-1.845 5.543-1.348 8.739-1.357m722.761-.989c7.35.979 16.94-.52 26.22.572 3.29 25.019 7.15 49.922 12.07 74.661.68 3.429 1.32 5.575-.46 8.15l-31.3.241c-3.86-19.258-5.62-39.556-9.65-58.88-1.52-7.287-3.06-15.96-3.72-23.342 2.18-1.632 3.68-1.177 6.84-1.402m169.57-158.723c2.21 3.349 1.32 29.928 1.29 36.04-.1 25.054 0 50.104.08 75.158-7.24.064-14.96.393-22.09-.648 1.1-9.738.01-26.085-.37-36.405q-1.08-25.981-1.41-51.984c7.2-8.546 14.28-14.668 22.5-22.161m-448.52-218.101c10.82 2.579 46.31 26.339 57.25 33.243-5.98 7.042-12.33 14.852-18.89 21.246-7.7 7.905-17.28 13.517-23.53 21.423-4.64-17.19-12.51-58.146-14.83-75.912M502.523 689.84c6.47 6.598 13.676 14.315 20.766 20.059.554 8.577-2.243 86.067-4.269 89.025l-3.528.6c-5.566-.342-8.58-.095-14.179.387-.469-14.166-1.294-99.626 1.21-110.071m449.201-218.856c1.47 2.94-11.191 65.404-13.57 72.771a686 686 0 0 1-21.855-20.409c-7.903-7.026-15.903-14.749-23.653-22.002 16.759-9.612 41.392-22.796 59.078-30.36m78.506 205.606c4.24 7.678 15.55 90.769 17.77 105.22-7.02-.551-13.19-.617-20.2-.684-3.55.526-10.45.38-16.07 1.155 3.06-23.388 8.17-47.154 11.67-70.538 1.69-11.284 3.99-24.172 6.83-35.153m-20.78 117.086q20.28.597 40.56-.022c1.44 7.639 8.76 35.852 5.8 41.016l-3.56.451-49.99-.078c2.22-13.744 4.3-27.766 7.19-41.367m10.94-471.206c4.7-.008 11.35-.66 15.86-.026 9.92 1.396 7.51 15.374 13.54 24.337 2.92 1.723 5.58 1.267 9.08 1.209.57 4.616-9.28 5.49-10.25 6.223-2.94 2.209-7.2 10.606-9.85 14.365-3.75 3.282-6.97 6.32-12.04 7.122-3.78.617-7.65-.28-10.78-2.497-14.71-10.42-13.73-35.29-3.38-48.217 2.16-2.707 4.61-2.188 7.82-2.516m-8.2-149.799c13.86.797 33.26.137 47.82.303a570 570 0 0 0 .19 27.117l-18.95-.022c-9.64-.197-42.564 1.108-49.237-1.546-.953-4.28-.231-20.759-.11-26.078 6.251.582 13.917.289 20.287.226M1003 847.56c11.81 1.119 43.51.086 56.74-.101 1.39 5.713 6.82 22.903 3.32 27.361l-3.81-.071c-16.76.978-46.91.153-64.215-.193.595-6.371 2.7-18.892 4.808-25.226.437-1.312 1.507-1.249 3.157-1.77M898.824 525.558c4.516 1.045 28.386 24.958 33.383 30.229 1.661 6.787 7.333 29.946 5.666 35.427-2.241-.53-4.952-7.721-8.39-11.626l-.641-.716c-12.946-11.941-36.481-21.102-52.88-29.542a478 478 0 0 0 22.862-23.772M1527.8 810.911c6.49 1.129 60.49.87 67.88.329l.37 19.762-1.09 1.516c-5.17 1.032-60.28 1.451-66.99.442.13-7.071-.11-14.915-.17-22.049m-376.47-284.359c4.6 1.391 19.3 18.52 23.44 23.056-9.83 6.618-49.02 23.07-53.3 27.28-1.51 4.488-3 11.051-6.22 14.135l-1.42-.651c-1.49-6.59.59-11.812 1.45-17.98 3.02-21.775 22.28-29.605 36.05-45.84m-49.13-354.167c11.03.892 39.06-.988 47.5 1.092 2.21 3.389 1.71 19.706 1.41 24.29-.12 1.689-1.76 1.996-3.37 2.776-7.98.192-42.1-.372-48.74-1.113-.64-2.576-.46-23.89.34-25.98zm-201.369-.136c8.751.496 45.791-.822 50.063 2.195.919 5.045 3.419 22.841-.961 25.472-15.882-.554-33.858.221-49.954.386-.054-5.689-.956-24.448.852-28.053m444.079 674.836c3.62-.047 10.62-.542 13.65.703 2.03 11.739 15.21 89.102 13.95 96.498-9.7-13.969-17.02-30.787-26.15-45.328.08-13.442.94-39.294-1.45-51.873m400.57-737.995c19.49-1.017 22.5 10.537 22.66 26.506-5.36 8.286-6.96 10.66-16.24 13.418-25 1.552-32.69-28.755-6.42-39.924M693.471 847.653c3.63.067 6.737-.289 9.806 1.437 2.67 11.504.568 26.618 4.317 41.465-7.214 11.616-17.15 31.292-23.611 43.887l-4.406 8.212c-2.276-10.558 11.524-77.815 13.894-95.001M296.601 111.7a19.4 19.4 0 0 1 26.326 19.373 19.402 19.402 0 1 1-26.326-19.373M1631.03 259.703c3.97 1.63 3.68.802 5.68 3.878-.15 7.373-61.86 59.873-70.86 71.14-4.37-1.181-3.05-.275-5.87-3.096-.17-.9-.32-1.822-.23-2.742.47-5.048 63.65-63.053 71.28-69.18m-505.85 772.717c19.18-.86 42.29 1.04 61.71.55 6.11-.16 27.41 9.9 33.95 12.7-3.07-.19-7.7.13-10.89.26-20.96-1.73-41.97-2.86-62.99-3.39-7.78-.27-26.5-.18-33.29-1.49-1.08-2.79-.8-3.39-.07-6.35 2.98-2.57 6.92-1.96 11.58-2.28m-196.716-.05c4.195-.13 12.691-1.33 15.77 1.61.065 2.69-.258 3.44-.947 6.08-4.126 1.88-77.977 4.74-89.078 5.54-7.108.2-14.219.27-21.33.23 9.465-4.29 33.968-12.08 43.913-12.46 16.004-.61 35.864 1.57 51.672-1M490.535 260.634c2.475.859 2.741 1.026 4.561 2.909l-.079 2.732c-4.577 7.017-64.858 63.021-72.164 68.244-2.616-1.354-3.787-2.368-4.34-5.112 3.222-6.49 63.535-62.23 72.022-68.773m1120.595-53.683c3.29 2.435 2.46 1.201 3.77 4.59-.89 4.826-57.81 59.345-65.43 65.005-4.14-1.545-4.89-1.461-4.99-5.639 2.27-5.765 59.07-59.38 66.65-63.956m-1140.441-2.3c2.364.667 2.496 1.006 4.293 2.821.111 2.567.252 3.505-1.551 5.676-17.784 21.404-45.695 39.42-63.307 60.259-3.313-1.412-4.265-1.895-5.246-5.026 2.013-6.968 56.136-54.663 65.811-63.73M912.424 1002.9c10.432.43 19.375-.26 30.44.57.954 4.96 1.049 10.58 1.294 15.66-7.547.01-19.224 1.53-27.403 2.08-10.822.85-21.395.78-32.233.83 13.245-6.02 16.636-10.74 27.902-19.14m203.176.43c9.6.55 19.81-.15 29.69.16 5.05 3.07 19.29 12.47 23.98 15.82l.26 1.72c-12.68.22-44.47-.18-56.13-1.51.16-4.71-.18-12.65 2.2-16.19m-482.537-62.241c8.453.089 26.302-2.469 31.643 3.151 2.012 3.75.989 9.473.65 13.912-10.255-1.129-21.972-1.06-32.396-1.236zm753.047 1.275c11.08-.699 21.75.909 32.69-.478.51 4.262 1.68 12.308 0 15.84-10.12-.602-24.97 1.94-31.92-2.218-2.52-4.178-1.76-8.035-.77-13.144m-314.07-769.388c4.38-.222 9.56-.161 14.01-.228.06 5.253.57 23.006-.29 27.151-3.88.134-8.38.741-11.64-1.106-4.86-5.24-2.25-16.709-2.08-25.817m-99.941-.744 4.429 1.151c3.801 4.132 3.275 20.524 1.304 25.491l-2.603 1.013-11.224-.405c.078-9.077-1.874-16.646.955-24.843 2.821-2.613 2.539-1.831 7.139-2.407M147.985 536.437l2.313.812c2.849 3.51 2.845 43.984.07 48.192l-1.563-.042c-1.624-11.518-2.518-32.902-2.918-45.517z"/></svg>