<svg xmlns="http://www.w3.org/2000/svg" preserveAspectRatio="none" style="display:block" viewBox="0 0 2048 1462"><path fill="#fefefe" d="M0 0h2048v1462H0z"/><path d="M750.126 36.155c15.365-1.035 39.135 4.66 48.855 17.532 14.072 18.633 7.789 48.092 5.287 69.667 6.884 3.071 30.724 14.8 37.168 13.1 1.36-26.856 4.595-17.231 18.519-35.363 2.42-3.151 11.342-27.541 14.488-33.856 15.013-30.13 42.123-31.162 70.189-18.29 35.827 18.59 6.903 54.438 16.438 85.899 5.48 2.168 13.579 3.973 19.461 5.472 5.725-3.285 9.795-7.476 16.005-10.955 16.264-9.11 40.334-9.067 56.314.699 5.14 3.145 5.81 6.711 11.74 6.94 9.72-6.566 7.95-22.616 5.89-32.648-7.6-37.023 3.97-58.575 44.36-61.646 35.98-2.736 40.05 30.481 52.64 55.628 3.01 6.02 15.71 13.605 18.62 21.105 1.74 4.447 1.55 9.961 1.75 14.666 2.66 2.193 24.1 5.257 27.34 3.682 3.37-4.238 2.02-8.877 2.31-13.59 1.64-27.176-8.01-60.975 21-76.91 13.66-7.499 28.21-9.661 42.92-5.993 25.33 6.315 25.34 34.115 37.28 52.664 11.01 15.204 17.32 19.192 27.52 37.217 6.03-.144 12.87-.876 18.95-1.385-4.92-16.095-11.52-37.862 1.66-51.466 16.86-17.388 53.42-33.99 74.6-14.516 12.83 11.802 17.03 42.286 17.84 58.774 8.97 1.777 31.74 3.076 41.82 4.013l.07-1.327c.29-7.022 7.16-39.975 10.37-46.954.91-1.97 3.61-6.021 5.92-6.244 14.98-1.447 72.64-7.375 83.56-.887.31 6.44-13.6 71.394-15.63 83.824a6430 6430 0 0 1-107.13 510.864c-5.35 21.485-48.34 174.08-46.91 184.337 1.33-.288 2.39-.921 3.56-1.613l3.12.898c9.02-10.221 22.88-15.845 36.52-12.456 10.25 2.544 16.25 10.766 21.36 19.441l-.87.251c-17.1-14.048-23.44-13.29-44.21-8.018-.8 1.986-1.64 3.959-2.5 5.917-5.25 11.767-9.91 11.46-20.1 6.1-4.46 11.308-7.23 29.092-9.79 41.343-4.43 21.281-8.42 41.572-14.22 62.555 1-.218 2.01-.414 3.02-.59 5.38-.949 18.42-3.141 22.63-.225 1.92 5.811-5.27 14.704.07 21.878 6.66-2.461 15.18-5.966 20.47-10.775 2.66-5.161-1.38-23.748-2.4-30.508-5.6-37.161 9.02-62.891 49.09-64.179 35.35-1.136 52.45 35.125 48.52 65.885-4.57 35.904-6.8 23.989 20.1 38.837a61.6 61.6 0 0 1 13.9 10.734c26.29 26.717 34.02 81.377 27.91 118.237-.73 4.43-2.01 6.49-2.08 11.39 2.01 2.03 8.4 1.52 12.25 1.87 20.59 1.87 39.98 3.01 60.28-1.88 5.1-1.23 22.2-6.39 26.1-4.39l.62 2.44c-6.79 13.45-64.36 18.09-78.1 14.49-3.47-.91-19.07-1.23-22.44-.7-7.43 12.25 1.81 32.42-8.68 50.2-3.48 5.9-9.56 14.14-16.15 16.79-2.65 1.07-5.74.95-8.33 1.98-.5.2-1.8 1.04-2.01 1.55-2.13 5.22-.55 22.71-.52 29.51.08 16.78 1.88 131.22-.81 135.96-3.01 5.28-7.12 8.52-13 10.11-8.46 2.29-21 3.68-28.75-1.12-26.87-16.67-23.74-107.2-30.19-137.2-.99 18.05-3.84 36.85-5.6 54.91-1.93 19.67-2.98 40.11-6.96 59.42-4.96 24.03-38.36 33.89-55.15 15.66-1.85-2.02-4.45-5.97-4.81-8.98 4.01-51.87-.13-110.26.93-161.56-15.46-2.06-22.89-5.58-34.07-16.68-3.47-11.94-3.31-17.91-2.03-30.06-12.55-18.15-3.25-102.86 3.37-126.17 5.09-17.91 11.79-27.19 25.8-38.518l-6.81-13.526-8.64-3.37c-5.09 18.481-11.08 36.904-16 55.374-3.5 12.46-4.79 26.58-8.39 38.9-12.72 43.44-18.79 87.89-25.43 132.54-1.17 8.63-1.01 18.14-1.36 26.78-.49 12.31-.22 21.94-15.31 22.43-14.79.48-30.17 1.35-44.96 1.48-28.19.24-60.6 4.75-88.38 2.68-2.94 2.4-6.71 5.49-10.43 6.75-19.59 6.62-49.97 3.16-70.23.45-13.02-2.3-25.73-6.55-39.07-6.84-32.18-.69-64.47-.23-96.674-.65-5.059-.16-10.354 3.81-15.027 4.65-7.765 1.4-16.217 3.12-24.014 3.98-20.542 2.26-41.929 3.68-62.528 1.75-3.931-.37-15.461-6.76-18.835-9.37-19.59-1.09-40.831.27-60.61.05-3.529 1.66-9.58-4.69-10.081-4.71-30.268-1.18-61.967.61-92.069-1.55-6.015-17.79-8.623-33.93-12.74-52.15-8.883-39.3-16.138-78.89-24.632-118.29-.197 8.13 3.183 54.46 4.345 62.49-1.395 2.86-3.778 6.73-5.415 9.59 5.467 24.19-7.925 56.65-36.45 52.69-1.392 19.97-1.025 40.33-.891 60.37.055 35.47.975 70.93 2.76 106.35-17.656 13.22-31.091 13.98-51.4 6.03-16.71-7.78-13.244-37.06-16.366-50.22-4.167-17.56-1.547-65.35-6.452-78.14-1.984 1.08-13.903 111.74-20.625 122.75-4.053 6.63-7.455 10.8-15.625 13.27-8.432 2.55-22.189.53-29.767-3.5-5.362-2.86-6.388-8.66-7.671-13.78-1.612-6.44.911-14.93.516-20.82-1.3-19.37-.929-42.46-.979-61.38-.03-11.63 2.397-74.4.49-80.55-25.234 2.04-33.334-36.74-33.152-55.97-.002.15-6.083-11.42-6.528-12.32-39.927.03-54.039.36-91.942-13.39 4.23 18.29 2.624 14.38 14.023 25.8 2.759 2.77-2.772 25.82-1.897 31.22 2.541 15.69-1.869 145.6 2.902 153.7 11.161 9.23 21.466 2.68 30.672-5.21 3.116-10.14 5.967-29.13 7.827-39.99 4.977-30.01 9.602-60.08 13.875-90.2 1.495-10.1 3.609-37.39 9.774-43.52 9.264-.86 9.058 20.46 9.872 26.67 1.62 12.36 2.433 24.89 3.288 37.31q2.48 31.995 5.427 63.93c.912 10.02 1.763 21.66 3.351 31.59 1.527 9.56 11.285 7.51 17.958 11.38 1.902 3 1.56 1.43 1.227 4.83-5.521 6-16.289 3.98-22.338-.16a20.63 20.63 0 0 1-7.81-10.51c-1.131-3.45-2.2-17.45-2.654-21.87a938 938 0 0 1-4.112-47.53c-.723-11.71-1.479-31.08-3.253-42.19l-.752-.43c-2.788 21.03-15.302 117.41-23.906 129.51-4.573 6.43-11.591 10.42-19.306 11.72-11.613 1.96-20.637-2.63-29.884-9.09-4.021-14.04-1.667-60.53-1.988-76.95-.385-19.66-.213-42.24-.865-62.29-.293-9.02 1.493-25.32.112-33.61-14.141-2.47-25.527-13.13-34.771-23.53-.255-13.91.942-23.86.874-36.59-27.532 3.7-55.82 5.09-82.95-1.85-5.403-1.38-9.455-.39-14.509-3.38-.714 1.45 1.202 4.49 2.066 6.1 10.572 19.11 4.042 42.55 5.187 63.03 1.082 19.34 1.285 38.01.796 57.42-.633 25.14 1.369 51.6-.715 76.65l.83.43c6.567 3.3 15.494 5.57 22.786 2.95 9.853-3.57 12.316-17.25 14.212-26.26 9.197-43.72 15.364-87.9 21.69-132.09.763-5.33 1.614-15.25 3.791-19.6 3.075-1.89 1.625-1.55 5.361-1.06 1.579 1.39 3.196 3.21 3.365 5.39 2.7 34.96 6.331 70.02 9.775 104.92 1.004 10.18 2.988 34.85 7.687 42.65 2.683 2.26 4.214 2.12 7.748 2.51l1.287.14c5.602.36 13.823-.77 13.081 7.18-5.389 6.33-23.413 4.46-28.719.57a17.27 17.27 0 0 1-5.977-7.87c-3.055-8.38-2.679-17.86-4.254-26.45-4.52-24.64-3.512-52.19-7.528-76.42-2.109 4.52-1.397 9.66-2.227 14.52-3.89 22.8-10.984 103.08-24.861 116.9-5.378 5.36-14.757 8.74-22.289 8.43-7.129-.3-19.221-3.19-23.912-8.96-2.414-2.97-2.605-8.63-2.799-12.35-1.368-26.27.5-53.48.586-79.84.073-22.52-2.23-52.18.991-73.93a98 98 0 0 1-7.637-2.78c-22.995-9.64-31.995-21.03-28.081-46.69.889-5.44.966-16.02-7.007-15.83-34.21.8-57.132-3.12-88.99-15.02 1.398 14.92 10.691 20.39 10.002 35.41-2.342 51.03 3.831 101.86.33 152.88-.504 7.34-2.23 18.8 4.763 23.22 12.157 1.53 23.756 1.86 27.319-13.09 10.802-45.34 13.06-92.6 21.153-138.43 1.161-6.57.579-28.06 6.126-31.11 3.842.87 6.356 1.85 6.866 6.15 2.257 19.01 2.707 38.96 5.34 57.88 4.688 33.68 6.111 67.36 9.892 101.09 6.031 1.34 16.167 2.09 16.11 9.66-6.768 8.22-24.928 1.38-26.2-7.39-4.97-34.29-6.354-69.67-9.51-104.22-.317-3.47-.864-5.69-1.996-8.99-.063 18.53-11.712 112.86-20.256 127.59-4.323 7.45-10.988 11.55-19.226 13.61-8.648 2.16-15.797-.43-23.252-4.97-3.096-1.88-7.18-4.63-8.302-8.23-2.511-8.06-.007-19.06.062-27.45l.143-96.55c-.058-8.18.123-34.32-1.389-40.56-14.402 1.61-26.933-13.27-33.824-24.23.046-17.32 3.497-22.66-6.011-35-1.115-1.44-.149-30.69.011-35.99.496-16.38-.52-35.672.2-52.346 1.397-17.875 13.561-56.691 26.535-69.102a97.6 97.6 0 0 1 27.936-18.373c2.485-1.062 12.013-4.178 13.395-6.23 5.217-7.743-13.348-45.947 2.042-72.367 5.904-10.136 14.09-19.104 25.768-22.134 13.673-3.549 32.427 2.625 44.169 9.574 31.79 18.813 11.186 50.854 19.177 78.5 2.44 8.443 10.594 9.481 17.513 13.33 2.939 1.635 4.917 3.334 5.879 6.63l-1.17 1.592c-7.253 1.178-23.246-8.804-28.329-14.24l-.816-.884c-5.191-16.206-3.092-40.698-3.928-57.88-12.377-20.11-33.553-27.276-56.992-21.81-31.545 5.237-11.299 83.289-17.748 85.49-64.105 21.872-58.698 89.822-63.374 145.58-.976 11.65-5.35 31.35 17.605 31.92.135-2.04-.054-4.01.315-6.04 2.142-11.76.008-24.45 1.25-36.49 1.243-12.03 18.029-82.811 23.777-90.085.694-.878 1.111-.639 2.172-.754 6.92 10.442-12.043 80.369-14.53 95.219-1.663 9.92-3.628 23.86-5.175 33.85 24.541 13.71 54.886 18.55 82.586 18.66 5.373.02 9.245.87 14.656.14 7.28-5.7.912-48.38.794-58.73-.053-4.69 1.693-13.782 2.829-18.213 6.429-25.074 10.739-58.367 36.517-70.86 8.807-4.268 18.075-8.685 26.472-13.38 1.57-.623 1.866-5.037 1.601-6.44-5.605-29.747-10.008-59.664 18.916-79.38 16.868-11.498 33.443-.969 50.474 3.401 2.733.701 13.006-7.035 15.948-8.986-3.118-26.553-10.312-48.531 7.571-73.957 20.711-29.445 78.087-9.118 82.591 23.383 1.201 8.668-1.367 28.96-4.442 37.38-1.474 4.034 1.902 5.155-2.257 10.045l-2.02-.517c-4.017-5.458 1.628-37.344-3.533-52.564-10.18-9.768-13.549-12.147-26.871-16.712-52.659-18.042-47.702 43.953-43.739 76.249.458 3.73-15.705 9.694-18.557 10.713 33.778 24.837 7.206 45.46 17.75 81.871 3.954 1.811 13.232 6.271 12.703 11.211-3.484 1.33-6.777.227-9.964-1.325-22.93-10.875-8.491-52.248-15.515-68.207-9.583-21.771-58.242-36.737-69.367-6.678-9.483 25.622-2.035 40.427-3.528 63.786-.382 5.963-35.586 13.81-45.234 37.44a127 127 0 0 0-7.195 23.978c-3.721 18.319-12.324 82.102-9.215 103.262.822 5.59 13.076 8.44 18.915 10.12 1.177-14.79.615-31.11 2.199-45.66 2.212-15.78 7.152-31.31 11.113-46.729 2.56-9.969 4.998-28.824 12.068-35.999l2.349.441c4.452 13.52-21.687 104.077-19.856 127.027 12.587 15.27 79.211 14.93 98.207 11.32 1.768-6.01-1.017-52-.906-61.83.152-13.33 3.461-24.39 6.546-37.136 5.826-24.08 12.993-42.909 36.524-54.345 7.57-3.678 15.978-7.552 23.301-11.935-1.924-26.811-7.778-52.246 10.938-75.586 18.207-22.703 49.139-14.398 69.115 1.742 20.96 16.936 8.932 50.658 10.354 75.604 5.644 2.755 24.005 10.667 24.372 17.402-4.754 1.225-21.809-6.772-25.247-10.508-17.317-18.813 4.507-54.445-16.423-72.381-11.729-10.05-29.247-13.074-44.236-12.444-28.395 15.026-23.45 48.67-20.616 75.479.143 1.352-.479 5.027-1.603 5.985-11.251 9.592-27.037 12.358-36.773 24.282-9.444 10.957-13.208 22.626-15.51 36.818-5.451 33.603-10.828 69.633-9.645 103.733 4.723 3.11 11.538 7.12 17.226 7.23 3.084-3.14 2.309-21.36 2.345-26.51.231-32.2 13.147-62.68 20.045-93.722.401-1.806 4.133-2.719 5.663-2.906l1.188 1.206c4.904 15.902-29.213 113.562-16.569 124.682 14.884 13.1 66.254 12.42 87.376 12.91 1.648-17.44.712-29.97.524-47.11 1.05-18.9 5.822-39.66 12.313-57.12 8.08-21.72 19.976-34.414 41.146-42.978 3.868-1.564 9.322-4.893 12.972-7.055-13.802-57.577 14.222-123.594 79.5-76.429 19.562 14.134 11.25 55.186 12.358 78.702 16.189 6.827 34.605 16.419 42.593 32.17 3.22 6.35 5.595 11.97 9.295 18.07L586.37 720.168l-46.618-194.787a17947 17947 0 0 1-55.77-257.183c-3.434-16.86-6.448-33.505-9.76-50.677-8.19-42.465-12.508-86.719-24.385-128.336-1.596-5.593-4.732-12.776-3.571-18.476 3.734-4.472 14.789-4.343 18.958-3.394 30.919 7.038 79.943-16.387 79.709 32.267-.033 6.779 3.722 21.915 4.322 29.831l.093 1.318c9.057-1.896 15.483-1.821 24.667-2.034 4.018-17.442 13.345-45.046 28.62-55.452 21.792-14.846 57.215-2.56 71.164 18.035 8.498 12.546 6.212 27.652 3.304 41.636 14.283-6.818 25.248-10.306 38.649-19.75-1.758-30.597-2.585-68.363 34.374-77.011"/><path fill="#fefefe" d="M459.322 79.263c13.516 2.929 51.908-.274 68.461 1.853 2.174 1.902 5.156 13.847 5.635 17.079 8.122 54.902 17.822 109.052 28.853 163.445l61.675 291.76c8.842 40.476 15.873 84.115 26.843 124.074 38.636 140.733 69.523 283.636 106.584 424.676 7.62 28.15 14.966 56.38 22.038 84.68 3.529 14.17 9.613 38.19 11.122 52.46-5.925-.19-11.855-.25-17.783-.17-2.687.41-16.453.11-19.808.07l-41.363-.62c-6.874-30.48-12.662-66.17-19-97.41l-36.892-173.092c-4.844-22.628-10.344-46.517-14.638-69.277-3.758-19.916-18.785-71.98-18.141-89.564l.048-1.152c-.859-1.537-1.893-2.347-3.164-3.554a6552 6552 0 0 0-45.233-196.914c-6.784-28.081-14.862-56.39-21.219-84.635-3.638-16.168-6.052-33.503-9.859-49.629-4.622-19.582-10.587-39.042-13.884-58.95-.973-5.874-3.575-12.444-3.363-18.36l3.555-2.314-.493-1.717-3.994-1.746c-7.311-7.931-61.304-300.312-60.921-300.914l3.056-.671.214-1.063-3.585.575c-3.872-2.443-4.687-4.382-4.744-8.92"/><path d="M612.016 723.116c3.893.46 4.336.351 7.622 2.272 1.419 3.312 1.324 1.824.222 5.393-2.324-.538-7.252-5.354-7.844-7.665"/><path fill="#fefefe" d="M1570.03 80.439c5.32-.394 12.3-.197 17.76-.199-15.78 67.978-24.02 136.505-37.56 204.729-6.09 30.641-13.94 62.844-20.6 93.656l-37.28 172.363c-30.31 134.518-71.54 265.784-97.76 401.139-4.4 22.733-12.09 44.636-18.36 66.893-3.92 13.89-6.1 28.61-9.9 42.24-13.15 47.14-21.56 94.67-26.75 143.3-.79 7.19-1.41 30.6-3.84 34.84-10.78 2.76-61.37 2.55-75.34 3.05 2.71-10.49 4.69-20.64 6.8-31.27 6.78-26.96 14.22-54.06 21.37-80.95 2.46-11.73 9.67-25.96 11.69-37.44 10.44-59.52 22.99-118.877 36.72-177.751l87.08-361.639c2.02-8.683 3.03-17.281 4.87-25.5l34.55-156.349c2.98 3.585 6.67 8.382 11.65 8.385l.68-2.348c-3.39-4.153-8.18-2.052-11.06-6.332.27-6.457 4.41-23.181 6.54-29.551 2.23-1.353 2.6-.593 6.09.07l.2-1.083c-14.44-5.271 2.02-17.853.09-26.508-2.33-10.464 3.09-7.717 4.51-11.319-2.11-6.017-2.82-7.049-.64-12.839 3.02-2.531 1.81-1.779 6.66-1.866l.37-1.695c-2.51-4.802-.33.768-5.13-2.756-.71-4.36.21-11.49 1.83-15.578l2.77.847c-.51-8.328-.52-18.764 3.27-26.389l2.52.624.73-1.176c-.86-1.996-1.78-4.088-2.38-6.184-1.08-3.773 27.13-147.169 30.38-153.25 3.33-1.825 40.68-1.875 47.47-2.164"/><path d="M1291.27 1143.94c3.52.04 11.6 3.26 14.55 5.95-6.06-.35-11.24-.23-14.55-5.95"/><path fill="#fefefe" d="M1043.32 852.581c24.69-2.502 53.34 6.511 75.39 17.382.63 13.079 5.46 28.217 6.47 41.888 3.06 41.72 5.22 82.993 10.72 124.479 1.06 18.73.24 37.9 1.37 56.58 1.45 24.06 10.98 97.38-.94 117.84-5.3 2.69-33.43 1.07-40.98.87-2.63-14.77-4.37-31.06-6.5-46.05l-12.35-82.53c-2.1-13.53-5.29-27.48-7.86-41.09-5.61-29.77-9.02-60.566-15.6-90.064-2.33-10.469-12.7-55.645-27-31.714-14.05 27.079-17.35 68.597-24.08 98.328-9.454 41.75-15.396 82.97-19.471 125.48-2.147 22.4-8.073 44.47-8.196 67.29-8.607 1.07-36.049 2.47-43.157-2.5-6.402-12.46-4.891-65.67-5.642-80.76-2.987-60.04 6.091-120.47 10.206-180.528l3.037-44.286c.575-8.059 1.802-16.812 1.54-24.816 33.073-15.451 67.223-21.576 103.043-25.799"/><path fill="#fefefe" d="M1175.11 466.836c8.47 1.349 13.35 2.177 22 2.259-9.97 53.289-17.63 111.051-57.05 151.639-9.74 10.037-23.2 19.68-34.51 28.263-.33-8.044-.09-14.837-7.86-19.622l-2.05.541c-6.51 8.097 9.72 101.194 11.96 119.632 4.17 34.453 11.21 72.15 13.21 107.164-17.12-7.008-40.93-16.928-59.51-17.198-37.72-.548-85.708 7.897-119.463 25.421 3.635-15.886 4.898-45.149 6.869-62.158a4434 4434 0 0 1 12.426-94.281c2.451-17.468 4.443-34.917 7.692-52.258.88-7.187 3.965-19.915-3.786-23.943l-2.33 1.124c-5.875 7.522-5.07 11.799-5.935 21.359-19.964-13.632-37.37-27.985-52.321-47.349-26.17-33.895-38.732-77.411-49.467-118.285-1.328-5.06-3.008-11.419-2.395-16.563 1.612-1.402 13.385-2.859 18.766-4.958l1.237-.492c12.189 39.409 30.306 87.67 56.889 120.088 19.153 23.357 41.495 24.772 68.84 26.862 5.848 8.827 13.058 17.182 21.738 23.299 25.66 18.072 39.17-8.221 50.63-26.342 11.98-.029 24.6.521 34.69-6.496 39.19-27.241 60.3-93.857 69.73-137.706m312.61 425.437c22.97-2.709 35.81 5.266 43.85 27.099 6.45 17.531 2.06 33.909 1.44 52 10.56 20.407 37.9 19.886 47.34 42.588 12.49 30.05 13.19 67.11 15.43 99.13.5 7.11 2.48 24.41.2 30.28-3.69 1.02-12.19-.25-16.44-.68 1.38-18.67-10.26-112.06-28.2-114.1-2.01 2.65-2.45 5.43-1.71 8.89 1.52 7.14 4.61 15.75 6.57 22.81 4.77 17.21 18.4 69.84 16.15 86.13-6.22 4.44-1.45 3.18-2.74 7.83-10.59 4.42-55.12 11.2-66.36 9.71-26.87 2.09-54.26-4.25-80.14-6.55.79-28.24 9.87-65.08 14.39-93.62 1.21-7.65 7.29-26.91 6.42-31.22-2.62-3.48-1.37-2.91-4.77-3.46-14.16 6.89-25.93 118.32-28.29 120.7-5.3-.64-8.68.39-13.43-.79-6.11-6.1-.56-75.72.27-86.26 2.83-26.53 9.88-52.78 34.08-67.593 4.45-3.969 24.88-10.78 25.16-16.917 1.45-31.916-17.65-78.425 30.78-85.977m-944.635-.998c12.195.062 26.071 3.756 35.674 11.635 15.385 12.624 13.076 29.919 13.682 47.814.291 8.597.944 16.746 1.717 25.336 9.235 9.51 27.024 17.047 35.461 27.4 22.353 27.42 28.62 110.3 25.79 144.13l-14.94-2.13c-1.439-14.66-15.991-111.32-27.422-116.53l-1.921.79c-3.915 7.75 19.174 101.75 18.852 121.88-.039 2.4-.217 5.38-2.155 7.04-5.917 5.08-72.142 6.81-83.896 5.83-10.658.87-60.488-.5-63.055-13.4-5.696-28.62 23.627-102.94 17.935-126.98-2.243-2.68-.854-1.96-4.263-2.32-4.151 2.88-20.227 78.33-21.523 89.36-.644 5.48.417 31.52-1.878 35.12-5.143 1.27-12.406-3.88-15.909-7.32-3.267-3.22-2.66-17.2-1.92-21.53 6.383-37.38 3.175-82.7 25.313-115.05 7.355-9.93 31.198-19.424 39.237-26.159.98-2.72-.488-7.422-1.18-10.451-5.251-23.019-3.22-68.734 26.401-74.465m-63.421 274.905c46.482 18.76 94.892 10.27 144.172 6.55-11.182 23.24-8.212 73.89-8.609 101.13-.432 29.67-.409 63.07 1.464 92.59-14.775 5.68-22.507 5.01-37.169-.71-7.12-19.91-11.788-94.65-13.045-118.98-1.116-11.53-2.402-47.6-5.287-55.68-2.882-2.07-1.496-1.62-5.141-1.5-2.257 1.43-3.45 1.76-4.181 4.91-2.723 11.76-3.996 25.7-5.524 37.67a1755 1755 0 0 1-13.071 90.09c-2.355 14.52-3.988 37.04-12.358 48.56-8.128 3.5-28.267 8.56-28.483-5.29-.159-10.11-.3-20.39-.362-30.51l-.621-123.2c-.076-6.5 2.989-14.76.254-19.86q-1.126-.705-2.22-1.47c-7.235-5.05-8.245-15.86-9.819-24.3"/><path fill="#fefefe" d="M1570.96 1161c-.12 7.78-12.56 24.6-12.93 34.95-.68 18.65.14 37.56-.23 56.15-.79 39.38-.92 78.25-.53 117.61-39.12 13.44-36.42-17.35-40.77-46-5.1-31.73-9.07-63.62-11.91-95.63-1.16-11.83-2.15-23.76-3.62-35.54-.56-4.51-6.55-4.98-10.12-4.02-3.83 3.97-7.41 56.14-7.47 64.23a2194 2194 0 0 1-7.83 71.4c-1.33 11.3-2.38 24.66-5.08 35.26-3.05 11.96-20.51 14.92-30.25 10.19-1.35-.65-4.64-2.76-4.82-4.34-1.52-12.83 1.19-26.1.71-39.04-.54-45.64-1.07-91.33-1.66-136.95-.05-3.34-6.36-16.9-7.93-21.04 9.14 1.96 23.89 5.56 32.68 6.6 24.26 2.87 96.07 6.58 111.76-13.83m-528.71-649.673c10.36 5.778 13.71 22.743 17.15 33.307 12.72 38.943-31.37 17.943-19.85 49.995 3.16 8.794 7.02 13.723 15.57 17.517-7.09 12.253-11.14 20.154-26.09 16.756-6.94-5.217-13.41-10.409-19.29-16.805 5.15-10.765 7.44-20.459 10.43-31.919-3.28-12.157-11.04-15.526-20.314-24.883 27.744-10.8 30.154-17.992 42.394-43.968M678.575 736.553c11.572 3.282 45 2.73 57.921 3.542 27.443 2.812 55.002 1.027 82.345 1.808 40.79 1.165 80.479-3.275 121.197-2.081 1.99.058 2.022.863 3.002 2.288.902 9.829-6.501 9.175-13.286 9.343-13.124 1.522-28.186.901-41.589 1.34a2113 2113 0 0 1-97.044 1.725c-20.648-.169-53.204-2.715-75.137-1.856-.647.026-1.108 3.243-3.957 3.114-10.086-.457-14.815-1.966-24.829-.186-5.802-7.968-7.295-9.442-8.623-19.037"/><path fill="#fefefe" d="M1027.52 488.203c33.22-3.968 50.46 7.442 38.11 42.194-3.3-11.072-5.16-14.655-10.43-24.791-4.72-1.701-10.09-3.322-14.91-4.892-19.43 11.496-5.98 28.865-45.395 45.125-16.033 12.479 10.785 25.914 12.265 33.442-15.104 8.837-28.012-16.546-28.931-28.691-1.168-15.438-3.734-27.237 6.293-40.66 10.807-14.469 26.248-18.87 42.998-21.727M647.065 607.906c10.757-.279 23.793 1.434 34.785 2.102a1790 1790 0 0 0 68.784 2.943c46.193.692 93.241.129 139.46.345 5.936.027 9.107 5.824 12.752 10.416-3.379.364-6.79.972-10.096.418-13.611 1.1-33.236.389-47.296.406l-83.001-.122c-29.862-.299-59.65-.936-89.478.144-6.295.228-13.467-.27-19.814-.559-3.826-2.59-5.115-11.559-6.096-16.093m680.145 131.565c6.41-.141 12.89-.408 19.27-.992 16.17-1.479 12.63 6.86 9.03 17.734-53.85-.382-110.05-3.31-163.91-5.123-14.97-.504-37.38.838-50.83-.618-7.78.079-17.04 2.131-22.19-3.694-.84-3.678-1.14-2.687-.21-5.926 1.68-.822 46.02 1.115 51.87 1.384 39.92 1.832 79.83-.171 119.71-1.731 12.27-.48 25.19 1.393 37.26-1.034m-612.341 128.44c27.309.906 54.493 4.926 81.977 5.235 23.839.276 47.681.134 71.515-.427 19.733-.536 39.651-1.725 59.353-1.097l-1.042 12.058-9.422.28c-10.611-.774-23.202.336-33.989.833-14.763.678-29.54.967-44.318.866-15.729-.152-31.935-.861-47.693-1.167-6.877-.134-17.709-2.169-24.038-1.693-.407.67-2.03 3.44-2.994 3.345-14.462-1.436-28.83-.908-43.327-1.553-5.025-2.737-7.562-11.515-6.022-16.68m597.301-257.239c2.32.927 61.47-.744 69.14-.688-.03 4.73.26 9.787-1.03 14.287-4.16 1.6-129.06-1.607-145.03-2.535-26.29-.015-52.58-.428-78.86-1.238.94-1.288 4.23-6.201 5.71-6.231 45.72-.901 91.41.575 137.23-2.284 4.31-.27 8.83.135 12.84-1.311M744.605 995.515c52.83 3.169 106.885 7.155 160.032 4.281 3.186-.172 7.75-1.498 10.907-2.404.322 3.588 1.375 10.818.32 13.878-33.993 5.99-81.573-.67-116.367-.12-14.253.22-37.622 2-50.934-.79-1.242-5.2-2.432-9.73-3.958-14.845m563.975-125.091c6.2-.304 15.98-1.731 20.22 3.504 1.42 5.456-.77 8.154-3.52 13.009-17.6.34-43.89-.949-61.96-1.476l-109.1-3.606c-1.54.922-16.57-.017-19.57.089-1.75.062-2.05-1.242-3.06-2.771-.24-3.512-.69-2.683.74-5.374 6.54-1.122 14.21.424 20.9.614 42.88 1.212 85.73-.557 128.59-2.281 8.92-.358 17.9-.577 26.76-1.708m-21.01 126.04c1.86-.434 9.78-.185 12.17-.158-1.3 5.734-2.2 10.984-3.17 16.784-43.56-.55-88.68-2.69-132.32-4.09-7.02.17-14.96 1.53-18.94-5.45l.7-1.7c5.48-4.12 27.24-1.56 35.63-1.7q52.995-.877 105.93-3.686M932.821 1222.71c14.887 1.51 24.288 2.61 39.118 1.72-1.316 6.75-.911 16.78-4.066 22.52-7.462 5.35-42.911 7.1-53.768 7.7-9.412.04-29.977 1.87-36.813-5.04.898-11.17 43.079-6.7 49.478-14 3.545-4.05 4.462-7.86 6.051-12.9m-153.68-98.96c11.022 1.88 18.635 1.57 29.685 2.34a951 951 0 0 0 101.729 1.76c.424 3.8.943 6.32.277 10.11-2.545 3-1.752 2.05-6.582 3.03-25.322.68-49.129-.08-74.344-1.58-6.703-.4-14.989 1.48-21.721 1.72-7.926.29-17.027-.62-24.997-1.26-2.619-3.43-4.937-11.86-4.047-16.12m320.989 100.2c11.01.33 24.4 1.1 35.14-.04 11.13 30.75 50.54 9.16 50.88 27.19l-2.65 1.7c-16.62 4.23-46.11.64-63.28-1.53-25.48-3.22-19.01-7.51-20.09-27.32m149.57-97.45c6.77-.9 15.04-2.93 19.27 2.87 1.37 4.33-.12 8.75-1.06 13.4-14.15.27-33.9-1.34-48.52-2.03-12.57-.59-30.16-1.06-42.16-2.39-4.47 1.32-22.92-.15-25.1-6.23l1.43-2.46c4.19-1.21 44.69-1.14 51.93-1.25 14.75-.24 29.49-.87 44.21-1.91m-61.87-736.307c1.52.382 2.83.366 3.47 1.432 2.77 4.589 1.61 19.821 1.56 25.426 4.73-4.531 8.32-11.048 13.31-16.617l1.57-.029c3.57 4.858-6.71 53.876-10.22 57.742-3.21 1.043-1.69 1.081-4.71.164l-14.28-2.495c1.56-5.612 2.78-11.025 4.06-16.693-4.98-5.848-13.47-14.757-14.77-22.227l1.45-.648.58.306-1.88.595 2.23-.438c5.6 3.333 8.24 6.491 12.66 11.157.7-14.675 1.12-23.393 4.97-37.675m-338.113 1.047c.386.187.802.324 1.158.562 4.246 2.84 10.036 30.139 12.399 37.042 2.775-4.798 5.42-10.237 10.694-12.266 3.298.805 2.162-.098 3.838 2.347-2.351 6.582-9.304 12.725-13.033 20.383l-.434.914c1.174 5.945 3.816 13.122.078 18.074-3.142 1.099-3.452 1.017-6.847 1.025-3.034.272-6.236 1.121-8.404-.939-3.139-10.82-18.071-49.898-16.93-57.09 4.614-1.906 8.466 13.267 15.297 14.938 3.189-4.963-.607-16.995 2.184-24.99m211.853 736.17c1.58-.42 4.68.06 6.28.4 2.11 3.08 1.71 7.04 1.84 11-12.63 1.53-45.64 1.45-60.81 2.14-4.24-.33-8.25.51-11.224-1.22-1.793-2.9-.843-7.11-.527-10.81 21.251-.5 43.301-.48 64.441-1.51m-868.325-33c6.799 3.36 6.175.87 12.686 6.92 7.524 6.99 10.225 21.91 10.024 31.97-4.098.5-13.228-4.5-15.89-7.66-8.17-9.69-7.238-19.44-6.82-31.23m448.053 62.2c4.663.83 8.479 2.03 13.005 3.37-1.858 15.66-3.033 20.11-14.915 30.5-3.555 1.86-5.92 3.55-9.537 1.5-1.623-3.9-.469-8.22.119-12.61 6.99-9.01 8.262-11.75 11.328-22.76m757.442 5.07c4.98.9 10.95.46 16.09.29 2.21 9.82 7.69 22.04 8.82 31.71-12.2-3.3-15.22-4.82-24.34-13.6-.34-5.8-.94-12.69-.57-18.4M60.823 1066.32c18.092 4.55 19.869 18.36 23.461 34.16-22.868-3.62-23.138-14.5-23.46-34.16m267.357 50.32c2.912 1.73 11.48 6.19 12.427 8.89 3.275 9.37 5.912 18.52 8.199 28.15-4.938.01-16.902-9.81-21.077-13.19zm1252.999 39.37c7.99-.41 11.43 1.49 9.93 10.92-1.47 9.15-6.84 19.57-14.42 25.23-2.4 2.28-1.43 2.02-4.21 2.39-2.39-4.09 8.78-26.56 8.7-38.54m-561.89-159.812c9.38-.242 18.76-.352 28.15-.331.91 3.681 1.39 6.353 1.99 10.053l-.85 1.15c-7.12 1.24-22.91.98-30.73 1.07zM457.986 1155.45c4.654 1.44 6.933 2.31 11.363 4.34.507.88 1.044 1.81.736 2.86-2.68 9.22 2.074 19.27 5.425 28.87-9.675-4.06-17.935-26.22-17.524-36.07"/><path d="M1879.11 778.582c9.9.523 21.2 4.191 28.59 9.904 27.22 21.048 15.14 52.182 15.94 80.715.17 6.029 11.73 9.559 17.18 11.709 32.42 12.797 43.33 41.849 50.11 73.357 3.36 18.428.89 37.655.92 56.473.03 14.89 5.75 37.19-2.23 49.21.36 4.38.95 11.14.26 14.86-2.74 14.89-17.64 39.65-35.26 36.46-1.45-.26-1.61 6.99-1.77 8.54-1.68 15.83-1.04 31.75-1.18 47.62-.3 23.34-.47 46.68-.5 70.02.05 11.19.56 22.33.53 33.52-.03 16.1-18.24 20.25-31.12 19.83-7.96-.26-12.71-3.27-19.25-7.44-13.96-25.84-17.14-92.67-21.25-123.42-5.94 35.88-9.46 72.17-15.74 107.89-.84 4.81-9.32 8.06-13.26 9.94 9.5-42.41 11.58-86.52 18.86-129.38 2.41-14.16 4.69-28.51 6.42-42.76-3.85 12.76-7.72 24.6-21.26 31.17-2.4 1.17-12.65 6.97-15.22 6.22-8.96-2.6-2.46 13.84-3.49 18.29-1.51 47.55 1.15 95.1.83 142.64.31 12.9-17.67 13.03-24.95 15.09-11.31 3.21-31.75-5.15-34.47-17.67-8.54-39.33-14.05-92.19-17.14-131.49-6.37 24.92-10.73 115.12-19.96 126.44-3.65 4.47-9.88 8.76-15.77 9.02-2.83.12-5.08-.38-7.18-2.35-1.9-1.78-3.17-3.62-3.35-6.22 7.68-9.87 15.35 10.59 21.05-27.75 6.85-46.12 10-93.08 18.5-138.81l1.93-1.87c6.81-1.13 10.33 7.79 11.38 13.39 9.63 51.44 11.44 104.26 20.52 155.77 1.68 9.52 24.81 12.79 32.2 8.68 9.61-5.33 1.26-20.15 3.83-28.38 1.14-4.57.3-17.01.42-22.72.47-28.84.56-57.69.29-86.53-.06-11.6-.88-24.19-.46-35.62.29-7.81 16.26-18.19 11.5-29.38-5.23-1.83-8.6.44-13.61 2.51-18.99 7.86-42.27 8.05-62.2 4.1-3.04-.6-11.73-2.77-14.21-1.64-1.28 3.02.47 8.99.61 13.14.5 15.3-14.57 52.11-34.99 44.84l-.86-.32c-2.8 2.46-2.06 42.54-2.21 49.08-.52 23.75 1.55 46.97-.65 70.81-1.29 10.27 4 47.94-2.2 55.02-12.52 14.26-46.45 10.96-53.19-8.52-12.68-36.62-15.35-80.21-17.01-118-5.41 10.44-7.07 58.12-10.04 72.68-4.93 24.23-.34 42.95-31.52 49.03-6.26-2.37-7.04-2.81-12.28-6.64l.2-3.28c3.15-2.13 13.36-1.48 17.95-1.62l7.71-6.71c3.82-12.33 4.84-27.18 6.71-39.9l11.51-82c1.07-7.9 2.41-32.63 7.88-36.96 13.44-1.41 7.95 16.08 9.49 24.88l.2 1.04c1.85 44.51 10.05 96.51 17.01 140.89 2.28 2.74 7.78 9.13 10.87 9.99 18.89 5.21 24 5.21 23.99-13.89-.05-58.82 2.29-117.24 3.56-176 .79-8.12 17.36-27.96 12.57-35.39-5.07-7.86-4.64-16.53-5.81-26.58-2.24-19.27-5.63-38.12-11.44-56.77-2.58-8.29-10.22-25.73-6.82-33.96l1.6-.631c11.6 5.111 26.87 72.781 27.52 88.391.31 7.37-2.19 25.54.92 29.69 3.47 1.34 15.8.76 19.15-.51 2.3-17.72-.84-21.34-2.42-38.64-2.89-31.85-1.96-78.654-24.79-103.967-10.54-11.682-30.55-15.95-38.72-27.707l-.71-1.033c-3.15-22.483 6.95-43.98-7.72-65.909-13.66-20.413-31.25-19.873-52.23-11.617-34.84 13.706-11.23 53.594-16.52 80.276-5.73 1.944-38.59 17.511-40.86 16.458 7.66-9.779 37.24-18.48 37.23-23.664-.06-31.077-17.59-68.302 19.46-86.252a49.4 49.4 0 0 1 37.88-2.498c23.82 8.295 39.44 39.949 35.18 62.308-8.32 43.667-1.62 23.575 28.98 47.537a77.6 77.6 0 0 1 20.28 24.476c10.94 20.552 15.73 50.452 17.18 73.662.73 11.62-3.54 33.47.52 41.92 2.79 2.25 8.36 2.24 12.03 2.93 27.26 5.1 58.63 1.9 80.71-15.56-7.47-29-10.07-61.38-18.17-90.545-1.54-5.525-9.08-26.616-2.85-29.443 7.56 1.959 8.84 15.185 10.99 21.805 10.65 32.873 15.6 69.693 20.96 103.873 3.03 3.84 7.73-.63 10.76-2.87 2.13-1.57 5.87-5.64 5.85-8.31-.13-14.58-2.9-29.34-4.81-43.79-.71-5.45.74-14.5.17-20.25-2.25-22.937-7.69-53.5-22.15-71.821-10.11-12.803-24.11-16.48-34.39-27.116-5.39-6.565-3.13-22.778-1.95-30.508 4.47-29.364-11.47-53.629-42.36-54.985-15.56-.683-22.98.689-35.1 11.242-5.41 16.469-2.89 35.69-1.92 52.325.83 14.222 6.22 21.668-9.68 26.705-5.05 1.6-17.92 13.459-23.56 12.177 2.64-1.688 2.64-1.647 4.69-3.991-.61-7.163-4.39-3.357-4.21-12.606.27-17.202 2.65-34.991 1.85-52.13-.35-7.456-15.53-15.694-8.47-24.871 4.43-2.313 4.17-.628 8.25-1.576 3.58-.832 3.01-3.138 7.38-1.996 1.88 2.503 13.54 41.279 13.88 44.517-1.38 1.089-3.2 2.557-4.54 3.504-9.58 6.767-6.95 22.471-7.8 32.361-.14 1.678-.4.616.78 2.351 2.25-.111 12.63-5.794 17.55-7.247l1.11-.32c-3.69-17.118-9.43-64.466.41-76.934 28.37-35.962 95.37-10.052 92.19 37.196-.32 4.636-.76 14.529-.08 18.042 3.32-1.29-.12-2.611 4.9-6.196 5.27-3.768 11.11-7.047 16.65-10.327-7.49-41.038-16.47-90.956 41.33-92.724"/><path fill="#fefefe" d="M1872.65 790.336c53.22 1.759 40.54 46.231 43.77 82.563 13.95 14.389 29.34 18.946 39.34 28.694 26.83 26.151 25.52 113.217 26.18 149.687-5.91 2.65-13.15 5.34-19.24 7.79 5.19-37.2-10.52-95.577-20.99-132.317-.45-1.609-2.91-2.13-4.26-2.381l-1.13 1.034c-2.15 6.297 1.9 22.815 2.71 31.239 4.67 18.061 15.38 83.855 11.37 101.805-2.18 9.79-59.41 12.43-69.4 6.68-4.79-10.38-2.12-36.16-2.36-48.64-.38-20.057-9.93-53.477-20.12-71.007-4.99-8.591-13.16-14.914-20.14-21.005-7.13-6.234-19.17-9.763-24.13-14.84-2.74-5.878-.58-11.469.82-17.962a99.7 99.7 0 0 0 29.02-16.224c-.89-4.06-1.65-8.148-2.27-12.257-2.29-14.614-6.94-49.117 2.52-60.728 7.5-9.211 17.36-10.989 28.31-12.131m68.19 285.994c3.33-.51 2.03-.96 4.24.66.09 8.66-2.54 21.4-3.05 31.07-1.43 30.93-2.55 61.88-3.37 92.84-.34 12.63-.47 25.27-.41 37.9.1 10.06 1.43 22.45.25 32.15-1.09 9.02-20.27 8.19-26.56 6.32-5.57-4.93-7.41-15.98-8.64-23.13-.75-10.57-4.03-28.42-5.34-39.88a5486 5486 0 0 0-10.65-93.96c-.65-5.25-1.45-17.01-5.23-19.95-3.02 1.1-4.37 4.01-6.29 6.85-1.14-4.72 3.75-23.46 5.81-28.62 2.44-.69 13.62 1.2 19.1 1.18 16.19-.08 24.42-.41 40.14-3.43m-220.3 47.59c3.8.13 10.72.05 13.36 2.45 1.54 7.98-8.88 23.69-14.85 28.98l-1.42 1.22c-3.98.71-5.68 1.64-7.99-1.83-.44-8.55 8.11-19.49 10.63-29.7zm256.31-57.94c1.85 15.98-7.62 27.68-21.71 33.92-1.16-2.11 1.13-19.52 1.5-22.62 6.18-5.41 12.81-8.05 20.21-11.3m-112.49 32.73 1.43.36c1.38 4.4-5 17.15-7.11 22.06l-14.23 9.39-2.47-.83c-1.59-4.03 4.24-15.69 5.79-22.47l.3-1.34c6.51-2.09 10.27-4.1 16.29-7.17"/><path d="M1661.51 728.245c38.37-4.726 57.64 34.093 49.79 67.013-1.26 5.296-.76 13.779-.13 19.292 4.12 4.331 8.02 6.681 6.53 12.888l-2.02.983c-36.44-4.934 12.14-83.487-49.11-88.384-10.92 1.957-23.74 6.481-33.6 11.532-24.97 12.782 6.13 64.344-16.53 76.846l-2.06-.961c-.34-4.933 5.7-3.746 5.53-10.009-1.31-48.264-16.84-70.463 41.6-89.2M481.273 773.202c39.22-.185 68.223 20.065 60.549 60.892-.966 5.14.041 18.014-5.868 19.253-16.682-11.441 18.154-41.256-30.436-63.603-59.979-21.831-45.1 50.179-51.01 57.7-13.097-5.761-6.501-40.885-.708-50.987 7.386-12.88 13.663-18.749 27.473-23.255m1074.537-.58c42.76 8.523 54.02 39.482 40.7 78.692-2.55 2.433-1.1 1.662-4.5 2.45-5.62-5.287-1.22-19.011-1.52-26.781-.93-24.032-14.53-43.224-40.71-41.529-37.02 5.711-36.89 26.199-33.95 56.335.15 1.547-4.46 16.52-5.72 17.782-3.02-.044-1.66.416-4.12-1.707.77-1.984 4.75-12.102 4.67-13.728-1.83-39.438-2.28-66.785 45.15-71.514m-969.801 65.595c8.356 1.385 16.78 4.108 22.805 10.378 4.821 5.017 10.335 16.974 3.755 22.068l-2.384-.619c-3.845-3.353-3.575-5.279-5.283-9.881-19.787-19.806-29.424-6.706-41.173-11.208l-.073-1.483c5.693-6.774 13.919-8.457 22.353-9.255"/></svg>