<svg xmlns="http://www.w3.org/2000/svg" preserveAspectRatio="xMidYMid meet" viewBox="0 0 2048 2048"><path d="m1022.75 85.403.17-.03c61.29-.313 122.32 14.086 182.77 22.034 12.96 1.704 24.48 2.981 36.39 5.977 118.39 29.779 231.55 84.169 330.01 156.151 29.18 21.341 55.38 47.129 81.38 72.115 14.25 13.184 29.59 25.942 42.6 40.341 147.61 163.428 225.51 379.581 231 598.61.47 18.817-1.45 37.359-1.42 56.339.15 86.97-21.01 170.04-46.7 252.49-10.57 33.95-26.58 65.35-38.36 98.45-2.3 6.48-1.27 32.55-2.17 41.5-6.98 69.85-1.14 149.77-45 209.06-44.74 58.59-121.5 55.44-187.23 62.1-10.84 2.2-17.49 15.24-25.38 23.89-15.38 16.88-45.98 33.94-56.98 52.92-5.03 8.68.2 35.4-6.07 43.81-7.66 3.69-20.9 3.85-29.16 1.76-14.23-3.59-6.78-12.49-10.51-18.53-12.92 6.35-32.56 19.95-46.98 27.85-52.47 28.72-111.61 60.22-168.62 78.93a508.6 508.6 0 0 1-75.66 18.41c-11.18 1.83-22.99 2.61-33.83 4.57-35.87 6.49-76.3 14.11-112.72 15.79-38.61 1.86-76.527-4.2-114.455-8.99-107.77-13.6-208.396-50.41-305.299-99.52a899.7 899.7 0 0 1-245.727-198.13c-13.236-15.03-24.908-31.65-37.166-47.46-6.015-7.77-11.887-16.69-18.821-23.58-21.34 11.77-38.59 45.08-52.118 65.05-19.551 28.86-40.874 58.1-56.797 89.1-11.571 22.53-20.828 47.59-30.896 70.82-18.312 39.52-36.397 79-46.15 121.68-1.925 8.43-6.303 32.57-19.242 19.5-9.936-22.34 75.449-205.94 90.838-236.27 8.461-16.67 31.403-47.61 42.729-65.09 17.138-26.46 36.174-60.86 61.299-79.66-3.594-11.26-28.59-48.44-35.853-60.66C71.266 1158 107.891 740.504 348.916 430.051 463.88 281.971 637.414 151.56 828.031 110.208c43.796-9.501 90.619-22.391 136.76-22.954 19.321-.498 38.729.7 57.959-1.85"/><path fill="#fefefe" d="M974.611 223.417c266.999-12.796 540.159 136.151 681.129 361.938a962 962 0 0 1 54.68 98.355c55.41 117.733 84.5 253.479 71.44 383.55-2.87 28.6-9.61 61.03-16.08 88.97-11.74-5.63-20.54-5.98-33.14-8.74-23.56-4.88-48.49-8.58-72.45-10.47-27.47-2.16-46.96-3.03-73.2-12.6-17.27-6.31-41.63-10.11-59.84-10.63-14.33-.42-28.65.53-42.8 2.82-9.04 1.39-21.38 3.8-30.15 4.31-17.37 1.02-36.15-1-53.41-.88-27.25.18-53.15 1.16-80.48.46.8-8.69 11.88-70.02 14.95-76.27 4.83-2.88 17.31-3.23 24.41-5.79 9.58-3.46 20.18-9.31 24.28-19.4 14.06-34.576-20.21-85.164-32.18-118.414-10.44-28.995-15.33-50.101-16.41-80.85-.17-4.89-.79-12.524.35-16.853 1.29-4.895 9.1-12.603 10.4-17.311 5.12-18.514-8.83-16.634-13.46-27.478-1.82-4.261-2.45-18.083-3.67-23.264-3.6-15.304-8.37-35.727-14.64-49.83 11.8-38.257 16.55-95.295 6.44-134.906-12.2-47.799-38.65-74.79-80.09-99.059-27.56-16.142-35.25-14.987-63.97-23.722-43.04-13.085-82.51-18.967-126.17-27.171-42.52-7.987-81.734-18.317-125.772-19.876-10.765-1.756-24.879 1.473-35.067.529-25.263-2.34-37.317-.503-61.915 5.94-37.644 10.007-77.703 32.068-109.228 54.641-23.577 16.882-52.414 39.663-74.433 58.744-57.788 50.077-105.458 115.658-143.294 181.916-12.356 21.638-27.506 45.988-31.419 71.631 1.924 18.403.411 47.9 4.343 65.083 11.418 49.903-1.33 79.754-17.63 126.485-23.939 68.635-58.945 130.075-64.639 204.715-1.335 17.5-3.949 35.91-1.639 53.85 6.49 38.81 13.728 77.58 15.518 116.97.407 45.34-18.548 92.05-27.435 136.85-12.128-13.87-25.421-38.33-34.647-54.95-59.957-107.96-100.348-233.08-106.887-356.56-11.678-220.516 51.209-415.311 199.155-580.056a741.26 741.26 0 0 1 398.462-226.451c50.94-10.502 89.529-13.502 140.588-16.226"/><path fill="#fefefe" d="M1212.73 576.461c8.36-.213 12.67-.163 20.94.711 7.13 7.071 15.37 18.759 21.3 26.822 29.09 39.53 50.92 87.432 59.81 135.773.71 3.825 4.89 14.614 4.93 16.995.68 44.666-2.51 77.793 8.77 121.766 10.8 42.065 37.13 77.921 42.55 119.857.47 3.625-.8 10.605-1.46 14.455-13.91 14.26-24.15 10.53-41.45 16.66-1.74.62-6.75 3.79-7.33 5.59-8.41 26.29-9.35 55.31-17.09 81.91.03-.1-1.38 2.51-1.77 2.54-38.11 2.64-88.47-1.63-125.78 2.74-20.09 2.35-48.49 12.03-65.35 16.86-35.2 10.22-70.3 20.81-105.27 31.77-27.466 8.82-52.659 17.84-80.679 25.73-3.499-7.62-12.151-37.37-15.025-46.42-5.895-20.68-14.134-43.78-19.041-63.87 9.222-.64 27.907-1.52 30.559-11.87-.581-2.05-.746-4.27-3.421-4.65-19.383-2.73-33.714 3.7-52.674-7.84-28.806-17.54-44.691-51.85-53.124-83.509-6.576-24.691-12.713-63.553.079-87.511 5.06-9.475 12.849-11.743 22.191-13.931 27.702 9.283 40.483 30.156 55.762 53.831 3.893 6.033 7.367 12.944 13.248 17.086 6.164 1.049 43.207-8.857 44.598-15.063 3.115-13.901 2.89-29.117 7.638-43.525 3.916-11.884 7.904-24.012 11.979-35.805a3264 3264 0 0 1 35.21-95.531c12.97-8.542 37.1-36.978 48.02-49.438 32.77-37.388 61.24-77.096 95.54-113.256 18.01-18.98 40.92-18.189 66.34-18.877"/><path d="M1271.42 750.605c22.09.302 25.7 5.438 25.6 26.581-2.35 4.606-5.44 11.637-11.13 12.329-10.03 1.263-20.47-1.824-30.52-2.261-15.96-.693-30.92 1.733-46.34 5.466-6.93 2.544-18.45 8.693-23.11.806-.02-7.41 4.44-11.648 9.02-17.102 17.29-20.574 50.68-24.885 76.48-25.819"/><path fill="#fefefe" d="M1523.73 1129.47c6.57-.88 14.36.4 20.93 1.19 100.54 12.04 180.68 92.91 205.04 189.08 2.84 10.77 6.39 21.5 8.19 32.5 12.48 76.48-8.03 157.1-53.4 219.63-32.42 44.68-84.78 75.65-137.67 89.64-11.95 3.16-22.93 2.57-34.62 4.19l-.98.14c-39.6 8.03-109.25-20.04-138.33-47.01-11.11-9.4-21.62-18.42-31.25-29.48-122.82-141.17-85.17-411.3 117.08-455.53 14.32-3.13 30.26-3.39 45.01-4.35"/><path d="M1507.63 1144.42c50.68-4.69 104.33 16.87 143.58 47.78 43.74 34.44 79.94 101.21 90.19 155.34a274.9 274.9 0 0 1-42.55 205.02c-30.79 45.13-75.36 74.36-127.12 91.42-6.66 2.19-20.01 4.41-27.31 5.78-16.74 3.71-43.95 3.02-60.46-1.17-181.55-46.12-229.64-303.65-112.52-435.25 32.8-36.86 86.52-66.35 136.19-68.92"/><path fill="#fefefe" d="M1464.28 1173.28c16.08-2.27 35.67-.31 51.38 3.32 54.15 12.49 101.48 42.75 130.93 90.48 24.3 39.37 34.36 91.74 29.8 137.67-1.35 13.63-4.61 27.38-7.75 40.69a223.5 223.5 0 0 1-102.74 140.61c-33.18 20.32-79.1 30.48-117.32 21.46 12.79-1.59 26.16-.43 39.31-1.98 25.24-1.98 50.11-13.31 70.89-27.12 69.34-46.09 105.48-140.42 89.38-221.73-8.37-42.28-30.85-86-61.85-116.82-43.75-43.5-93.21-54.92-152.79-53.63 11.26-8.27 16.96-10.57 30.76-12.95"/><path fill="#fefefe" d="M1438.07 1200.45c42.87-2.99 82.43 6.65 117.68 31.32 40.51 28.36 69.76 76.68 78 125.32 9.47 55.9-.82 115.05-34.08 161.75-26.38 37.04-64.18 63.51-109.57 70.73-29.13 4.63-71.6 5.31-96.25-13.08-3.56-2.65-11.56-9.81-12.22-14.22 15.87-3.47 33.82-1.85 50-2.33 27.18-.8 54.83-2.85 81.96-4.85 10.56-.77 21.54-.51 31.99-2.14 17.78-2.79 32.91-21.82 42.68-35.78 32.64-46.68 43.62-103.6 33.25-159.37-9.2-49.5-36.58-94.63-78.27-123.09-42.16-28.79-100.21-32.09-149.17-22.76l3.43-1.67c13.1-6.49 26.16-8.05 40.57-9.83"/><path fill="#fefefe" d="M1524.4 1254.33c5.29-.42 10.6-.43 15.89-.55 4.87 3.01 9.27 5.67 12.19 10.81 2.33 4.08 3.25 8.65 1.69 13.16-2.03 5.88-5.41 7.97-10.74 10.79-3.99 1.04-8.09.82-12.08-.09-8.65-1.97-13.71-9.42-17.97-16.52.31-4.15.04-10.53 2.59-13.95 2.04-2.73 5.32-3.05 8.43-3.65m-431.26 21.95 1.28.77c2.88 6.53-1.61 129.23-1.85 148.15-.06 21.1.04 42.21.31 63.31.11 16.01-.34 32.15.95 48.11-9.19-1.98-19.25-2.21-28.62-3.1-24.41-2.32-48.86-3.68-73.282-5.75L730 1506.71a2083 2083 0 0 0-32.533-2.77c-2.823-23.33-1.036-47.29-1.203-70.76-.172-24.1-1.795-48.61-.579-72.65.28-5.53.702-11.27 2.716-16.46 14.575-6.19 64.389-11.48 83.387-14.7l189.018-30.78c40.934-6.71 81.924-12.85 122.334-22.31"/><path d="M850.964 1352.53c4.086.23 8.276-.74 12.395-.82 4.63-.09 8.044.35 11.528 3.59 1.351 2.66 1.818 4.6 1.126 7.53-1.705 7.2-3.994 10.07-10.031 14.1-3.389.19-6.774.63-10.15.99-6.459-.02-17.33 1.38-23.361-.68-1.615-.54-1.737-1.01-2.376-2.53-2.124-5.05-2.206-12.9-.325-18.02 6.181-4.23 13.978-3.75 21.194-4.16m-14.244 97.9c8.967.71 18.36-.35 27.213.89 3.808.53 7.705 1.69 9.859 5.16 2.732 4.4 1.259 11.25-.364 15.78-.953 2.66-1.891 3.58-4.339 4.83-9.91-.17-32.445 1.53-38.985-6.49-3.477-4.26-.276-12.18.806-17.16 2.177-2.23 2.732-2.27 5.81-3.01m21.099-48.9c4.585-.14 10.436-1.13 14.05 2.3 2.356 2.23 3.523 5.11 3.592 8.34.101 4.68-1.912 11.09-5.394 14.33-2.219 2.06-19.156.57-23.318.48-4.655.13-9.726 1.02-13.57-2.12-2.794-2.29-4.586-6.86-4.713-10.39-.129-3.58.92-7.37 3.661-9.84 4.614-4.15 19.411-2.81 25.692-3.1m-140.648 42.75c9.262-.34 22.234-.41 31.046 2.31 3.358 1.03 6.721 3.07 8.049 6.5 1.198 3.09.126 7.15-1.204 10.07-1.082 2.37-1.206 2.59-3.525 3.47-1.845.04-3.69.07-5.535.08-9.858.18-19.519-1.21-29.288-2.39-.904-1.95-1.76-3.92-2.57-5.9-1.129-2.83-1.579-4.72-.145-7.63 1.071-2.18 2.162-4.3 3.172-6.51m77.512-86.95c3.423-.55 7.77-1.1 11.215-.76 2.549.25 4.589 1.41 6.007 3.6 3.02 4.65.416 12.84-.704 17.83l-16.952 1.16c-5.608.18-13.823-1.27-18.96 0-1.607.4-.427.56-2.062.01.09-4.36-.864-12.07 1.554-15.83 3.396-5.29 14.282-5.24 19.902-6.01m-58.144 5.09c3.446-.25 6.897-.42 10.351-.52 3.833-.08 7.424 1.6 10.061 4.39 1.857 1.97 3.153 4.63 2.748 7.39-.329 2.24-1.759 4.26-3.433 5.72-5.258 4.59-11.385 3.37-17.817 3.03-6.318-.07-13.128.84-19.358-.12-1.817-2.32-3.051-4.52-3.601-7.47-.476-2.54-.142-5.08 1.536-7.14 4.025-4.95 13.692-4.76 19.513-5.28m43.148 40.56c8.24.51 18.112-1.94 25.956.56 2.592.82 4.644 2.28 5.728 4.87 1.437 3.44.876 11.5-.813 14.65-.708 1.33-2.119 1.44-3.437 1.94-7.852-.07-16.922 1.18-24.573-.53-3.467-.78-6.546-2.23-8.373-5.45-1.63-2.87-2.011-7.39-.836-10.48 1.112-2.93 3.77-4.2 6.348-5.56m-52.459 1.23c7.403-.22 23.327-2.31 28.814 4.12 1.586 1.86 2.333 4.22 1.771 6.63-.947 4.07-4.318 8.66-7.935 10.63l-2.224-1c-7.047 1.85-21.179.91-27.617-2.29-2.803-1.4-5.285-3.67-5.97-6.85-.511-2.37.203-3.73 1.613-5.58 2.943-3.87 7.004-4.84 11.548-5.66m49.789 44.54c8.612.47 19.734-.88 27.783 2.09 2.831 1.04 5.148 3.1 6.025 6.05 1.397 4.71-1.253 9.44-3.038 13.68-8.362-.34-18.053.04-26.181-2.13-4.017-1.07-6.488-2.41-8.535-6.13-.906-5.25.989-9.32 3.946-13.56"/><path fill="#fefefe" d="M1744.43 1537.51c8.04 5.43 48.66.94 61.11 1.31 2.63.08 4.84-.18 6.68 1.76 1.13 14.92-6.24 40.7-11.69 54.66a127.53 127.53 0 0 1-68.38 70.73c-32.26 14-128.66 16.51-167.9 19.69-24.02 1.96-47.86 5.81-71.87 7.94-20.06 1.77-40.28 2.49-60.38 3.89-39.76 2.75-79.56 6.11-119.43 6.85-15.53.29-30.97-.52-46.49-.81-13.1-.24-26.26 1.28-39.35.42-14.16-.92-31.54-5.84-44.77-11.05-27.72-10.92-43.48-32.95-55-59.48-10.63-25.78-10.41-53.68-16.7-80.42 8.46.41 16.99-.55 25.46-.67l59.53-1.22c32.81-.83 65.54-.1 98.34-1.58 4.64 5.2 8.51 11.18 12.99 16.55a262 262 0 0 0 30.2 30.32c11.17 9.48 23.77 16.7 35.13 25.79 12.1 9.68 23.61 20.48 36.83 28.65 10.94 6.75 23.36 11.08 35.43 15.33 41.96 14.75 81.93 20.71 125.66 10.2 57.35-13.78 111.01-50.12 147.01-96.55 10.3-13.3 18.8-27.99 27.59-42.31m-269.06 203.84c2.17-.41 3.28-.67 5.33.25 3.87 5.75.62 18.7 1.14 25.81.03.37.07.75.1 1.12-20.04 17.11-43.24 31.48-65.44 45.64-58.47 37.32-150.95 73.94-219.28 87.61-95.24 19.05-227.766 17.18-323.613.81-14.76-2.52-29.385-6.58-44.021-9.8 6.035-.46 12.101-.71 18.144-1.05 43.938-3.21 93.058-13.46 131.785-35.03 11.717-6.53 23.235-19.53 36.205-22.91 8.51-2.22 18-1.41 26.76-1.63 13.41-.34 27.05-.7 40.43-1.73 27.66-2.13 55.36-7.62 82.63-12.65 2.05 10.33-3.74 31.81 2.26 38.66 4.07 4.65 12.76 5.12 18.57 5.6 6.3.53 14.18.5 19.13-4.07 7.5-6.94 5.81-37.64 6.66-48.62 34.57-11.07 69.55-21.68 102.66-36.71 11.69-5.3 23.06-11.07 34.39-17.11 9.13-4.86 18.38-10.66 28.19-13.93 5.58 1.39 11.09 2.77 16.84 3.11 10.35.6 72.09-.93 81.13-3.37m-777.934-224.31c12.94 2.35 26.486 2.92 39.589 3.9 25.021 1.88 50.049 3.16 75.093 4.64 58.574 3.45 117.163 9.6 175.612 14.77 34.22 3.02 72.7 4.03 106.12 10.37 3.74 12.39 3.76 25.89 5.56 38.65 5.43 38.5 18.42 73.4 44.62 102.52-12.26-1.37-25.77-6.18-37.94-8.94-41.79-9.46-83.15-20.05-124.674-30.55l-132.687-33.73c-21.36-5.3-92.683-20.47-107.715-29.36-5.481-3.24-10.858-8.96-15.007-13.75-15.818-18.3-22.06-35.69-28.571-58.52M1709.76 463.424c10.02 8.479 30.39 39.097 38.16 50.551 41.66 61.468 73.46 125.252 99.27 194.79 11.68 31.447 17.96 59.835 27.24 91.021-1.34 5.03-2.4 10.648-3.54 15.78-10.58 47.869-26.77 97.775-55.01 138.587-4.99 8.041-9.71 13.2-13.74 21.913.36-16.791-2.29-36.078-4.09-53.068-9.93-93.905-40.63-186.239-82.34-270.664-12.79-25.884-28.58-50.964-44.09-75.244 5.83-13.627 15.9-26.604 20.36-37.861 8.12-20.511 13.5-53.286 17.78-75.805M1039.15 123.2c5.48-.239 11.76-.541 17.2-.241 45.9 2.78 92.47 3.318 137.65 12.907 76.87 16.315 152.75 36.478 222.66 73.461 15.77 8.346 31.88 15.918 46.39 26.363-21.14 25.549-59.23 34.709-90.56 42.931-7.88 1.723-15.99 2.963-24.11 4.757-8.96-2.769-29.78-13.748-41.7-18.569-47.13-19.068-88.67-34.489-139.01-44.107-22.05-4.214-31.02-7.527-54.85-8.859-10.11-9.956-36.57-5.403-49.99-6.075-22.48-1.125-45.23-1.73-67.721-1.656-6.056.019-37.048 2.726-40.452 1.642.156-.98 21.465-15.678 24.123-17.642 23.93-17.678 40.39-42.868 60.37-64.912m-34.33-.63c3.65-.51 9.29-.485 13.13-.587-10.23 11.3-19.166 24.156-28.937 34.897-19.561 19.968-44.941 34.429-69.206 47.977-5.942 3.245-12.894 3.268-19.506 4.214-90.106 12.9-177.489 40.461-258.665 81.659-17.415 8.839-35.087 20.675-52.24 28.36-25.998-4.56-52.382 3.238-77.058 11.281-11.105 3.62-23.537 8.742-35.142 10.34-5.098.273-9.818 3.407-13.6-.725 1.226-3.358 12.417-12.664 15.67-15.629a778 778 0 0 1 77.896-63.25c52.788-37.952 117.95-77.469 179.551-98.752 52.429-16.107 106.831-27.1 160.999-35.062 35.544-5.225 71.584-2.088 106.168-4.647z"/><path fill="#fefefe" d="M803.061 1624.63c24.764 5.25 49.182 11.57 73.819 17.34 4.039 23.79 3.472 49.8 4.137 73.93.258 9.33-.383 20.13 1.515 29.28.45 2.17 1.323 3.5 2.709 5.19 4.247 2.5 8.783 3.41 13.687 3.65 5.689.28 12.789-.38 17.008-4.7 2.042-2.09 2.752-4.34 3.07-7.16 1.042-9.27-.013-19.44-.049-28.79-.083-20.13-.021-40.25.185-60.38 14.523 4.7 29.555 7.94 44.302 11.87 39.926 10.65 79.916 20.37 120.026 30.23 27.9 6.86 55.87 16.73 84.09 21.65l2.47.81c2.18 5.45-1.59 70.25-1.9 82.61-58.65 15.14-143.95 16-204.618 9.61-24.508-2.58-48.926-7.27-73.282-11.04-3.254-12.34-9.034-24.44-13.892-36.23-20.101-48.74-43.329-94.44-73.277-137.87M1479.72 244.682c57.5 39.421 110.09 75.879 158.83 126.447 20.38 21.156 39.59 43.948 60.09 64.562-14.2 41.759-8.42 78.645-35.89 122.203a1420 1420 0 0 0-29.89-41.128c-62.52-78.441-131.73-142.722-217.68-194.893-13.64-8.276-26.25-17.312-40.57-24.448 45.5-15.787 68.07-13.952 105.11-52.743M526.323 1657.16c10.163 4.3 20.393 14.3 29.496 20.68a897 897 0 0 0 59.418 39c80.74 47.98 186.279 90.96 278.809 106.82 29.596 5.07 65.174 7.36 95.163 6.67-23.333 18.94-65.34 32.73-94.45 37.62-32.607 6.59-72.236 9.13-105.11 3.67-77.169-12.82-191.83-76.87-254.2-123.22-20.422-15.18-38.756-31.84-57.461-49.01-12.221-11.22-26.932-22.57-36.598-36.04 29.202 8.71 57.105 5.72 84.933-6.19m32.23-1322.098c2.951-.441 2.822-.5 5.731.038-.928 3.492-14.684 11.368-18.616 14.012-39.047 26.252-72.013 54.852-104.814 88.504a788.86 788.86 0 0 0-206.159 378.142c-11.619 49.901-19.791 109.946-19.152 161.296-13.729 17.931-27.734 43.756-39.696 63.596l-.745 1.39-.656-.99c.363-38.01-.094-78.409 3.717-116.259A956.3 956.3 0 0 1 347.058 475.91c18.188-25.303 35.321-48.62 56.185-71.865 13.546-15.091 32.55-33.203 44.169-49.4 4.813 2.019 11.464 5.179 16.64 4.811 22.336-1.589 44.559-11.764 66.088-17.54 10.272-2.756 18.16-3.743 28.413-6.854m568.037 815.158 1.42.35c.06.64.13 1.28.2 1.91-7.12 9.26-13.42 18.67-18.36 28.95-11.19 23.3-7.9 49.98-12.64 74.11l-.3 1.49c-51.78 8.77-105.449 21.17-157.433 29.76l-172.765 28.85c-21.274 3.73-42.662 6.33-63.757 11.09l-1.778-1.35c-1.677-6.36 1.911-15.53 4.764-21.25 14.117-28.3 43.168-34.42 71.085-43.49q30.66-10.185 61.424-20.04l168.04-53.88c39.83-12.44 79.95-23.84 120.1-36.5m753.79-297.701c6.74 5.91 15.07 117.967 15.8 132.58 6 120.831-15.3 217.881-55.76 332.181-1.32-11.44-1.48-29.43-3.31-39.1.78-10.39-3.53-28.62-5.36-38.82-5.19-28.9-18.82-50.01-40.91-68.88-3.21-2.75-7.56-7.9-6.88-12.51 2.61-17.21 7.11-36.16 10.29-53.42 6.85-37.26 8.62-67.73 8.83-105.177 26.47-24.531 51.89-74.424 63.98-108.292 3.27-9.167 9.19-31.907 13.32-38.562m-682.94 284.811c7.05-.87 19.82-.87 26.99-.7 59.72 1.43 120.12.52 179.74 1.6-55.56 18.7-83.92 42.44-115.1 90.92-5.45 9.68-9.57 18.65-15.53 28.44-13.29-.35-26.57-.66-39.85-1.15-38.76-1.41-79.84 2.66-118.37-1.04l-.82-1.27c-.47-6.88.49-12.92.91-19.66 3.56-56.71 24.36-88.97 82.03-97.14m-914.908 196.22c4.208 3.17 20.01 40.43 23.822 48.13 9.882 19.96 21.483 40.23 33.11 59.24 39.241 64.14 86.488 125.08 141.499 176.45 9.657 9.01 18.846 18.51 29.62 26.22-8.926 3.92-17.755 5.77-27.35 7.28-12.321.73-23.642-1.62-35.164-5.85-12.893-4.73-29.363-12.35-40.193-20.78-32.425-25.26-94.207-119.93-115.17-157.46-13.648-24.44-25.353-49.68-37.12-75.05 8.581-10.66 20.471-43.62 26.946-58.18m-66.901-327.05c.956 5.53.476 29.26.701 37.04.811 23.08 2.688 46.1 5.625 69 6.642 48.49 15.242 91.23 30.546 137.91a941 941 0 0 0 13.763 39.27c2.716 7.08 6.264 13.46 8.261 20.75-6.334 10.98-11.236 22.46-16.432 33.94-3.129 6.92-7.296 19.53-11.372 25.27l-1.539-.73-1.43-4.25c-8.995-25.13-20.643-49.6-29.303-74.98-10.69-28.96-14.484-59.03-21.523-88.71-10.428-43.97-13.377-85.67-15.433-130.67 13.498-20.79 24.169-42.77 38.136-63.84m492.252-335.581c2.843.385 3.683.84 6.347 1.84 4.295 5.609-6.778 21.283-10.624 26.619-92.877 128.835-42.251 291.123-46.801 436.942-.203 6.51-1.694 12.97-1.137 19.34 2.384 9.26-1.622 15.31-2.295 24.49-7.055 52.17-20.184 104.7-41.975 152.75-2.897 6.39-6.801 15.94-10.907 21.35-4.814-.72-6.819-.89-9.666-5.23-.353-1.75-.732-3.45.119-5.14 7.359-14.62 14.957-27.81 20.381-43.45a594 594 0 0 0 26.479-109.05c5.612-41.94 7.3-84.32 5.042-126.57-1.969-38.79-8.147-79.566-9.227-118.233-1.18-42.23.597-95.776 8.404-137.041 7.525-39.779 25.889-83.2 48.395-116.461 4.801-7.094 10.281-17.463 17.465-22.156"/><path fill="#fefefe" d="M1651.55 1152.97c69.21 10.86 149.18 2.42 164.42 92.45 1.42 8.37 3.2 14.84 2.71 23.67-23.41-.59-47.35-1.69-70.6-2.02-16.51-31.49-35.66-60.18-62.01-84.2-10.2-9.31-24.86-20.35-33.82-29.2zm-270.69 565.6 1.21-.13.58.62c-34.03 22.14-128 63.83-167.41 70.66l-1.07-.84c-1.86-17.45 1.79-49.14 3-67.72zm-159.25-222.16c14.3-.92 28.6.15 42.9-.53 5.89 13.09 13.85 25.03 20.4 37.79-9.4 1.78-19.1 1.05-28.63 1.34-27.6.74-55.23.94-82.84.59-20.69 0-41.36.43-62.03 1.26-1.1-13.06-1.59-25.76-.62-38.84 36.7-.75 74.29 1.79 110.82-1.61m9.31-56.98c6.22-.35 12.61 0 18.86.06 2.9 14.09 5.31 27.79 10.38 41.36-40.02 1.06-80.26.69-120.31 1.02-9.88-.13-19.69-.12-29.57.26-.3-13.33-.32-26.67-.07-40 13.51-1.09 27.17-.62 40.72-.64 26.69-.04 53.37.17 79.99-2.06m-63.28-112.9c21.9.69 62.04 4.43 82.15.59-1.12 13.84-3.82 27.52-5.04 41.35-17.5.14-34.99.42-52.49.85-12.86-.16-25.68.51-38.53.46-14.46-.06-28.72-1.08-43.18.36-.17-14.23.11-28.47.85-42.69 18.48-1.53 37.66-.52 56.24-.92m-51.98-54.17c16.5-.17 33.07-.91 49.57-.57 34.02.7 68.75 2.54 102.73.63-4.61 11.37-9.13 22.65-12.84 34.35-.82 1.49-1.76 2.91-2.66 4.35-3.38 1.31-124.86-.16-141.67-.45.87-5.6 1.95-34.5 3.08-36.63.38-.72 1.19-1.12 1.79-1.68m127.26 112.03c.1.04.22.05.31.12 2.88 2.4 3.88 34.35 4.84 40.62l-132.32-.07c-1.68-.06-2.74-.26-4.33-.69-3.69-6.45-1.47-30.51-1.38-38.89 11.92-.96 24.22-.55 36.17-.59 32.12-.13 64.66 1.07 96.71-.5M747.561 836.628c10.688 5.491-3.072 25.986-5.191 34.705-12.277 50.539-8.84 101.595-5.113 152.877 1.095 15.07 3.253 30.03 3.688 45.13a474 474 0 0 1-10.226 116.01c-2.649 12.46-3.176 23.22-11.492 32.04-2.928-1.61-6.362-3.89-9.253-5.69 11.99-34.21 19.512-107.77 17.751-144.53-3.202-66.8-16.987-141.579 3.611-206.906 3.262-10.349 6.411-18.721 16.225-23.636M1770.78 1282.57c16.15-1.36 33.33-1.4 48.76 3.92.78 7.35 2.08 14.39 3.27 21.66.57 3.45 1.39 7.67-1.28 10.51-3.45 3.66-11.36 2.12-15.91 1.88-12.83-.24-25.78.4-38.63.46-3.39-12.87-8.31-25.31-12.96-37.76 5.58-.16 11.17-.39 16.75-.67m37.59 203.02c3.47.09 6.6 1.27 9.88 2.3-.6 10.89-1.26 23.44-4.83 33.77-6.58 4.37-37.84 3.23-47.17 3.37l-17.13.08c6.34-12.23 9.22-25.63 15.5-37.85 14.68-.74 29.11.54 43.75-1.67m-35.72-150.2c17.01-.98 34.09-.18 51.06.98.66 9.11 4.05 30.29-.92 37.64-15.38-2.47-31.35-.12-46.41-2.99-2.57-2.79-4.66-25.63-5.1-31.38-.18-2.41-.18-2.52 1.37-4.25m9.88 51.72c10.93-.32 25.93-2.56 36.42.46 2.5.72 3.47 1.08 4.6 3.51 2.88 6.19.62 26.53-1.81 33.21l-2.5 1.16c-10.13-.5-20.06.65-30.07.3-4.17-.15-7.66-.85-10.52-4.16-3.97-4.59-3.38-24.16-1.49-29.6 1-2.89 2.93-3.45 5.37-4.88m-9.24 51.3c10.33-.08 37.79-2.34 46.17 2.1 1.28.68 1.33 1.55 1.49 2.9.46 3.91-1.42 26.82-3.45 29.25l-3.75-.01c-15.91-.99-32.07.31-48.01.56 3.47-11.18 5.06-23.33 7.55-34.8m-290.32 272.01.81.42c.18.56.46 1.1.54 1.69.46 3.43-1.07 8.09-2.65 11.11-4.42 2.43-18.06.63-23.63.68a630 630 0 0 0-55.8 3.35l-2.07.11-.7-1c4.1-4.65 10.12-8.05 15.24-11.55 22.35.29 45.98-2.7 68.26-4.81m-802.52-255.59c2.405 2.6.832 18.3.737 22.45-8.51 12.47-15.678 31.43-27.721 40.92-2.525 1.99-3.559 2.07-6.704 1.78-2.39-2-3.884-2.75-4.89-5.75 2.686-7.06 32.42-51.29 38.578-59.4m869.18 248.59c3.81-.58 8.07-.39 11.95-.56-8.38 9.16-17.69 17.2-27.23 25.11-3 2.44-6.2 4.6-9.36 6.82 1.94-9.68 3-19.58 4.31-29.37 6.78-.49 13.56-1.31 20.33-2"/></svg>