<svg xmlns="http://www.w3.org/2000/svg" preserveAspectRatio="xMidYMid meet" viewBox="0 0 2048 1462"><path d="M1017.28 50.514c6.02-.128 12.03-.148 18.04-.058 101.1 1.917 209.94 62.385 279.29 133.929 33.48 34.531 63.68 78.244 85.75 120.954 7.98 15.44 16.81 30.397 23.1 46.675 10.92 32.376 25.31 64.116 32.4 97.595 3.47 14.884 4.39 30.418 7.24 45.386 14.57 76.642 11.32 152.644 9.68 230.385 4.6.351 9.53.453 14.16.628-1.31-13.274-.28-26.604-.22-39.965.08-18.251-4.02-51.899 7.57-66.998a16.56 16.56 0 0 1 11.5-6.338c2.54-.255 5.07.54 7 2.198 15.88 13.555 6.92 78.023 15.8 85.399 7.4-.696 11.01-7.01 15.9-11.553 17.01-15.801 22.64-49.543 47.53-54.599 3.31-.672 9.96.026 13.18 1.793 15.07 10.509 28.74 22.987 43.31 34.166 12.32 9.184 25.35 17.101 37.77 26.345 19.53-16.745 40.01-32.401 58.96-49.815 4.75-4.364 9.38-9.156 14.88-12.573 14.5 2.643 38.2 27.949 53.16 35.574 10.44 5.318 26.01 15.87 35.68 22.68-.49-17.238-1.5-61.263 24.98-56.344 8.88 1.649 12.9 12.289 13.32 20.41 1.41 27.32 4.07 54.532 1.89 81.889-3.32 26.195 5.32 41.376 6.47 64.984.69 28.891-11.92 64.344-5.2 92.348 6.38 26.592 2.35 46.544.75 73.31-1.22 23.056-1.9 46.141-2.05 69.231-.36 25.58 1.11 51.95 1.72 77.53 1.4 16.25-2.74 38.76-.82 54.42 3.86 31.48-1.15 57.07-2.92 87.86.4 25.92.05 51.41-.55 77.31-.6 25.99 9.82 39.01-27.72 30.24-39.99-9.34-77.7-17.23-119.28-15.84-12.1.41-28.85-5.01-40.86-6.97-30.91-7.91-62-6.27-93.15-11.48-37.76-7.77-79.74-11.33-116.38-19.56-10.68-2.4 2.38-117.71-3.82-131.14-8.69.58-13.24-2.73-13.49 6.44-.41 15.39 1.56 116.36-3.98 122.65-14.26 8.05-42.2-1.53-53.36-1.4l-332.24 3.98c-3.12 18.32-1.73 18.19-10.57 34.71 20.68 9.43 30.88 31.16 15.48 50.5-9.09 11.41-18.4 22.4-33.92 24.13-12.38 1.39-28.27 2.44-31.17-14.03-2.75-21.12 2.48-46.98-.38-67.9l-1.64-1.11c-6.53-8.26-.4-14.7-6.48-19.56l-.8.38c-.09 2.6-.45 14.75-1.06 15.43-7.99 8.79-4.72 9.33-4.94 20.41-.36 18.31 1.5 37.82-.85 55.99-1.77 13.71-25.67 12.06-35.177 9.62-11.771-3.56-28.878-26.23-33.805-36.66.836-20.26 6.297-26.18 23.538-37.15-8.409-12.18-7.298-16.91-8.134-31.91-45.974-3.25-93.219 1.94-139.084 1.84-65.91-.14-131.947-1.79-197.836-3.11-15.514-.31-27.108 1.4-42.904-1.9-4.622-33.43.387-74.86-2.938-109.23-.433-4.48 1.229-11.49 1.284-16.75-2.978-6-5.894-1.14-12.976-4.63-6.432 9.74 3.446 110.39-4.827 127.01-2.51 5.04-50.882 10.97-59.272 12.4-41.767 7.12-83.256 13.04-125.445 16.81-7.154 1.3-14.723 2.57-21.756 4.37-30.065 7.7-60.902 4.85-91.46 9.82-27.794 4.51-54.773 12.32-82.875 15.26-4.45.47-8.243.88-11.844-2.12-1.63-2.45-2.044-4.63-2.06-7.54-.039-7.12 1.743-14.18 1.789-21.3.099-15.26-.942-30.55-1.135-45.8-.176-13.9.583-27.82.343-41.7-.175-10.13-2.932-20.14-3.307-30.26-.718-19.37 1.329-39.28 1.532-58.72.162-15.5-1.437-30.98-1.36-46.49.138-27.75 2.474-55.49 2.176-83.25-.231-21.51-.252-43.197-1.209-64.683-.673-15.118-2.515-30.321-2.356-45.454.145-13.746 4.54-27.062 4.386-40.57-.212-18.569-3.174-37.172-4.494-55.698-1.719-24.144 4.171-38.582 5.202-60.885.986-21.337-4.974-112.307 6.799-124.976 3.019-3.248 7.067-4.604 11.447-4.542 4.087.058 7.63 1.81 10.353 4.83 11.178 12.397 9.61 39.462 9.194 55.311 13.545-7.619 40.179-24.91 52.121-34.523 7.045-5.672 13.481-12.206 20.275-18.185 2.905-2.557 8.649-8.179 12.818-7.599 7.634 1.06 46.761 39.197 54.127 47.317 5.554 6.123 10.412 12.82 15.298 19.477 12.304-5.435 20.035-10.773 30.659-17.823 14.978-9.938 60.729-52.382 75.072-51.542 16.77 12.457 33.188 50.479 46.17 68.689 4.61.365 8.481.938 13.006-.048 7.796-7.726-1.588-74.624 17.241-81.874 2.148-.826 8.198-1.216 9.724.23 20.922 19.822 4.538 83.197 11.698 105.465 3.132 1.911 8.099 1.39 12.047 1.42 1.38-15.874-1.759-33.282-1.066-48.913 1.166-26.302-.528-53.421.364-79.451 1.048-34.738 8.428-69.761 12.902-103.739 4.946-37.565 8.96-60.861 26.032-94.923 8.011-15.983 12.857-39.691 21.335-56.893 37.676-76.437 85.214-146.817 152.172-200.581 19.194-15.574 40.841-26.766 62.014-38.98 52.57-30.327 114.425-48.814 175.542-50.093"/><path fill="#fefefe" d="M1504.4 627.723c8.1 6.648 2.32 73.972 12.24 86.176 7.58 1.303 23.09-.29 31.53.111 22.87 1.091 45.89 1.577 68.74 2.368l208.55 6.817c8.5.212 28.23 3.541 34.56.354 7.11-6.835-1.13-63.841 8.39-72.481l1.82 1.29c5.14 10.097 5.44 53.342 5.84 67.16.37 12.915-3.01 28.07-1.23 42.479 1.92 15.686 6.41 30.719 6.28 46.398-1.31 22.222-5.63 45.941-7.06 68.069-.92 14.198 6.64 33.262 6.06 48.017-.55 13.972-2.31 27.773-3.07 41.771-1.08 24.15-1.64 48.318-1.66 72.498-.19 26.48 1.29 53.21 1.57 79.65.24 22.7-2.44 45.94-.25 68.68 2.06 21.35-.7 41.87-3.23 63.01-1.11 9.87-.42 23.93-.37 34.15.02 13.33-1.28 58.91.04 68.53-36.77-3.49-72.45-17.96-110.11-16.31-32.48 1.42-61.6-9.41-93.42-13.19-20.79-2.75-41.94-1.67-62.53-6.14-36.06-7.83-71.97-9.85-108.08-17.74 1.22-13.29.29-25.89.47-39.16l.36-94.09.67-343.489.3-133.432c.09-13.751-2.2-50.145 3.59-61.496"/><path d="M1522.74 739.135c11.4-.405 22.79.455 34.19.707 20.51.267 41.01.703 61.51 1.308 50.24 1.378 100.38 2.242 150.62 4.252 26.19 1.048 62.86-1.088 87.57 3.617 2.95 3.026 2.77 7.447 2.69 11.494-.17 9.662-1.75 19.379-2.62 29.001-1.18 13.096-1.74 26.496-1.96 39.645-.16 9.228.61 18.615.68 27.878.12 13.641-.35 27.273.01 40.915.25 9.528 1.16 19.107.97 28.635-.39 20.93-3.75 41.795-4.22 62.834-.46 20.689 2.5 41.089 2.32 61.649-.28 34.09-4.5 68.11-5.35 102.24-.34 13.74 1.18 27.34 1.19 41.04l-.38 124.67c-.22 1.15-.43 2.41-.89 3.49-1 2.37-2.23 3.7-4.72 4.43-23.25 6.81-85.41-13.73-112.8-17.55-19.79-2.77-40.61-4.51-60.56-5.89-10.18-.7-20.5-.7-30.61-2.01-22.49-2.9-44.39-9.36-66.92-12.42-20.18-2.74-41.07.21-59.57-9.66 2.67-51.91-.86-103.15-.88-155 0-20.65 2.1-41.01 2.58-61.6.68-28.8-.06-57.4-.36-86.171-.12-11.213.53-22.427.42-33.643l-.75-146.032c.02-11.36-2.02-42.067 1.1-51.589 1.11-3.375 3.79-4.635 6.74-6.24"/><path fill="#fefefe" d="M1840.79 829.714c2.81 11.85.4 50.874.5 66.441.1 13.959 1.69 28.131.55 42.048-18.11 21.661-39.06 42.602-60.83 60.585-18.5 15.292-37.96 29.172-56.08 45.022-17.66 15.43-33.74 32.59-51.26 48.19-27.58 24.56-56.67 47.57-85.09 71.13-19.5 16.17-38.16 33.3-57.82 49.3l-1.03-.19c-3.07-7.54-2.74-95.44-2.13-108 23.53-17.46 44.18-38.6 67.04-56.96 17.57-14.11 37.08-25.66 54.46-40.05 13.28-10.996 25.68-23.111 38.62-34.515 12.04-10.604 24.76-20.531 36.46-31.498 11.19-10.48 21.67-21.739 33.09-31.967 12.63-11.324 26.06-21.765 38.72-33.06a445.5 445.5 0 0 0 44.8-46.476m-54.91-69.765c19.74.019 39.51 1.257 59.23 1.903l-4.14 46.012c-16.13 21.481-35.54 42.071-55.81 59.733-11.43 9.955-23.57 19.091-34.92 29.142-11.58 10.266-22.1 21.819-33.43 32.398-11.87 11.089-24.54 21.259-36.73 31.994-13.03 11.475-25.63 23.447-38.97 34.571-15.59 13.008-32.6 23.578-48.85 35.668-10.92 8.13-21.03 17.29-31.2 26.32-10.53 9.69-20.75 19.71-32.36 28.12.26-23.18 1.27-46.36 1.41-69.53.07-12.08-1-24.181-.59-36.238 11.74-13.287 26.83-20.607 39.65-32.462 16.23-15.01 31.77-30.744 48.61-45.111 22.39-19.116 46.08-36.72 68.42-55.822l71.39-61.365c9.56-8.305 18.48-17.335 28.29-25.333m52.59 202.852c1.03 14.237-.5 29.098-.27 43.429.34 20.11 2.44 39.68 1.26 59.86-9.11 12.86-19.64 23.12-30.74 34.18-10.33 10.29-20.11 20.71-31.39 29.99-22.49 18.5-48.03 34.01-71.73 51.02-6.93 4.97-14.21 9.81-20.74 15.3-9.08 7.65-17.46 16.24-26.93 23.4-25.13 18.99-51.74 35.17-75.36 56.25-15.22-1.95-30.32-3.04-45.6-4.23-2.75-.19-5.62-.88-8.35-1.32.41-13.12 2.24-26.59.98-39.68 21.65-16.41 41.52-35 62.4-52.36 30.15-25.06 61.16-49.42 90.29-75.69 14.95-13.48 28.56-28.52 43.62-41.84 21.93-19.38 45.8-36.23 68.04-55.09 15.69-13.3 30.27-28.397 44.52-43.219m-187.62-206.359c38.01.171 75.87 2.022 113.85 2.765-16.87 16.675-35.11 31.705-53.17 47.035-12.52 10.629-24.4 22.059-37.06 32.511-9.05 7.48-18.68 14.277-27.83 21.649a1554 1554 0 0 0-57.26 48.721c-19.95 18.969-36.45 34.296-59.49 49.701.95-24.215-1.56-48.603-1.98-72.829-.22-12.91 1.67-26.139.18-38.983 18.8-14.422 38.26-28.233 56.63-43.183 17.7-14.405 38.57-34.996 58.18-45.933 2.42-1.349 5.24-1.374 7.95-1.454m186.19 335.328c2.59 3.88.14 16.19-.24 21.2-2.13 28.56-1.97 56.81-.38 85.38-6.99 5.94-12.24 13.79-19.32 19.62-7.67 6.31-16.22 11.7-24.14 17.71-14.78 11.21-28.87 22.7-44.14 33.34-11.51 8.03-23.57 15.45-34.76 23.87-14.6-.59-29.14-2.22-43.69-3.47-17.57-1.5-34.22-2.39-51.54-6.13-6.37-1.17-12.65-2.42-18.93-4.01 13.62-14.35 40.29-28.84 56.99-41.55 14.27-10.86 27.2-23.37 41.46-34.15 27.38-20.7 57.34-38.59 84.07-59.98 19.57-15.65 36.76-34.28 54.62-51.83m-3.47 129.05.53.5c1.96 6.13 1.98 81.01 2.04 92.38-26.6-1.21-53.22-6.6-78.89-13.56a382 382 0 0 0-22.89-5.09c13.32-9.08 27.12-17.51 40.26-26.85 8.77-6.24 16.83-13.58 25.26-20.29 11.34-9.03 22.84-17.43 33.69-27.09m-304.66-466.945c31.39-.3 62.89.543 94.27 1.042-13.85 10.43-26.94 21.583-40.1 32.857-16.98 14.418-36.27 28.909-55.05 40.888.48-24.926.77-49.856.88-74.787M537.511 634.754c.123.118.266.218.37.353 2.324 3.042 2.563 9.533 2.833 13.27 1.053 14.552-.126 29.38.138 43.978.296 16.391 2.022 32.745 2.233 49.136.329 25.563-1.797 51.166-1.951 76.727l-.353 229.792c.023 27.2 2.222 54.09 2.76 81.2.457 23-1.404 46.01-1.517 69-.165 33.42 1.307 66.92-.146 100.31-10.991.92-22.376 3.6-33.299 5.37l-71.277 11.25c-21.909 3.27-44.111 4.21-65.984 7.56-18.102 2.77-35.997 8.16-54.181 10.09-21.941 2.32-43.973 2.11-65.939 5.1-26.374 3.59-51.656 11.1-78.242 14.22l.078-.77c2.318-24.95-1.042-49.66-.718-74.59 1.758-23.02-2.453-44.16-2.175-66.75.213-17.34.938-34.66.823-52-.11-16.66-1.145-33.35-.825-50 .441-22.92 2.556-45.95 2.269-68.88-.329-26.28-.526-53.114-1.793-79.354-.62-12.828-2.7-25.714-2.786-38.546-.09-13.497 5.002-26.492 4.878-40.186-.224-24.854-6.647-50.036-5.258-74.7.969-17.217 6.4-32.679 6.634-50.917.265-20.615-3.938-90.485 3.086-107.203l1.247.035c9.816 13.297 1.668 57.647 6.776 74.239 2.51 5.138 15.734 3.213 19.967 3.043 39.095-1.001 78.524-3.921 117.598-4.516 55.572-.479 110.888-4.016 166.369-6.492 11.118-.496 31.97 1.272 41.618-2.93 2.841-3.39 2.713-10.04 2.867-14.402.739-20.949.56-41.673 3.9-62.437"/><path d="M520.111 737.684c.18-.012.362-.06.542-.035 2.073.29 4.007 1.482 5.531 2.839 3.907 9.653 1.594 53.152 1.646 66.208l-.864 226.084c.018 25.51 2.027 51.07 2.182 76.61.229 37.66-1.453 75.32-1.833 112.98-.16 15.8 2.462 43.66-1.711 58.09-.898.96-1.646 1.46-2.869 1.95-13.209 5.3-32.008 5.07-46.183 6.87-25.776 3.25-51.465 7.02-77.276 10.04-18.771 2.19-37.707 3.54-56.415 6.18-32.635 4.6-64.642 13.24-97.421 16.47-10.809 1.07-37.58 8.52-46.751 4.61-2.039-2.16-2.271-2.63-2.878-5.54 3.074-14.65-1.914-51.39-2.335-68.42-.324-13.15.683-26.04.938-39.14.161-8.31-.81-16.61-.466-24.93.606-14.61 2.487-29.04 2.067-43.71-.781-27.29-6.366-54.6-7.232-82.07-.746-23.67 4.531-47.02 4.299-70.536-.238-24.106-5.151-47.917-5.943-71.947-.529-16.086 2.375-32.214 2.277-48.354-.247-40.773-2.359-81.561-2.077-122.357.189-.046.378-.096.568-.139.317-.072.635-.133.952-.204 10.963-2.425 23.121-1.668 34.356-2.153l71.109-2.65c75.12-2.376 150.636-7.105 225.787-6.746"/><path fill="#fefefe" d="M202.61 827.51c12.601 9.669 28.097 31.009 41.833 43.301 12.895 11.539 26.428 22.362 39.332 33.911 11.293 10.106 21.859 20.965 33.103 31.117 22.534 20.346 45.996 40.043 69.355 59.446 21.296 17.695 43.908 33.835 65.369 51.365 8.842 7.22 17.913 14.35 26.332 22.06 11.974 10.96 23.195 23.19 36.977 31.9 2.014 37.52-1.997 74.5-1.678 112-32.539-30.92-66.845-59.21-100.41-88.9-33.284-29.45-65.569-60-99.214-89.04-19.817-17.11-41.112-32.38-60.951-49.463-17.012-14.647-32.588-31.149-48.649-46.817-4.958-20.863-.432-39.327-.479-60.217-.039-16.734-1.762-34.021-.92-50.663m38.659-67.041a987 987 0 0 1 19.006-.412c9.059 8.801 19.626 15.862 29.153 24.137 39.466 34.281 80.058 66.845 120.347 100.131 18.841 15.567 35.904 33.201 54.125 49.476 15.717 14.038 33.536 27.157 47.914 42.479 1.945 2.073 2.216 3.907 2.405 6.678.688 10.079-.17 20.692-.351 30.812-.412 23.05-.914 46.42 1.272 69.37-6.793-5.28-12.867-11.08-19.01-17.09-20.607-18.51-42.359-36.24-64.278-53.18-11.095-8.57-22.575-16.635-33.449-25.498-36.44-29.702-70.902-61.259-105.65-92.856-14.518-13.202-29.808-25.568-44.158-38.945-15.837-14.765-31.113-31.126-45.683-47.159-1.122-6.741-.416-14.079-.518-20.929-.124-8.319-.74-16.647-1.27-24.949 13.366-1.252 26.802-.067 40.145-2.065m-36.376 198.967c9.828 6.049 32.536 31.664 44.347 41.404 15.577 12.84 32.012 24.57 47.449 37.62 30.846 26.08 59.929 54.1 90.052 80.98 22.691 20.26 46.396 39.29 69.151 59.45a1054 1054 0 0 1 36.04 33.34c7.23 7.15 13.788 15.2 21.625 21.68.729 11.87.044 23.91-.571 35.76l-8.223 1.79c-10.621 1.57-21.92 3.82-32.646 4.16-17.237.54-100.443-71.99-118.406-85.32-28.171-20.91-58.462-38.89-85.547-61.32-22.839-18.91-43.379-40.29-64.853-60.66-3.124-22 2.288-45.98 3.661-68.04.836-13.43-.483-27.502-2.079-40.844m-.285 130.064c5.581 3.18 11.005 10.17 15.769 14.73 12.915 12.37 25.833 25.46 39.817 36.6 28.154 22.45 59.221 41.63 88.254 62.97 17.196 12.64 32.945 27.38 49.748 40.57 15.434 12.12 31.796 22.62 47.692 34.06l-13.813 2.36a2640 2640 0 0 1-59.486 7.09c-13.953 1.43-28.479 2.02-42.134 5.28-14.984-8.78-29.058-19.66-43.089-29.88-23.49-17.11-47.74-34.59-68.957-54.49-3.594-3.38-8.468-7.95-9.672-12.91-2.983-12.28 2.084-33.64 1.955-47.44-.183-19.66-5.431-39.18-6.084-58.94m146.973-333.035c15.272-.822 30.784-.363 46.093-.773 24.32 14.798 45.983 35.127 68.022 53.134 15.627 12.769 32.05 24.355 48.322 36.267 1.245 12.211 1.138 106.188-2.04 111.246-11.646-6.745-23.438-19.02-33.409-28.11-16.547-14.53-32.124-30.102-48.721-44.581-28.689-25.03-58.795-48.531-88.104-72.856-20.437-16.963-40.028-34.841-60.544-51.707zM209.328 1218.75c4.784 3.5 9.051 8.2 13.517 12.15a383 383 0 0 0 21.137 17.2c13.878 10.63 27.81 21.33 42.022 31.51 6.593 4.72 15.37 8.95 20.921 14.7.762.78.491 1.13.477 2.17-4.098 2.22-8.984 2.31-13.552 2.84-26.96 6.97-55.4 10.02-83.057 13.01-.012-31.29-6.385-62.2-1.465-93.58m272.848-466.183c8.276-.645 23.954-2.362 31.167 1.584 1.141 7.217.418 14.925.356 22.224-.145 17.012-1.01 34.606.591 51.542-11.236-8.307-22.648-16.225-33.733-24.767-19.946-15.568-39.143-32.422-58.55-48.678 20.003-1.165 40.255-.192 60.169-1.905M1002.63 96.36c2.48-.43 13.23-.668 16.31-.803.98 21.364-.05 52.504-.46 74.048l-2.32 111.521c-.55 22.936-1.5 45.983-.86 68.883.27 9.828 14.69 16.11 21.46 7.639 2.51-3.145 3.79-6.472 3.84-10.472.41-31.779 1.1-63.502 1.87-95.29l2.07-95.28c.42-18.592 1.52-40.563.85-58.859 27.37-2.22 85.68 18.312 113.47 27.7-4.02 10.481-8.74 28.057-12.21 39.428a4379 4379 0 0 1-21.03 67.105l-27.46 85.158c-3.19 9.733-17.62 41.845-7.43 50.001 14.71 11.764 22.45-11.857 25.34-22.45 1.95-7.159 5.16-16.415 7.59-23.804a4325 4325 0 0 0 33.79-104.862c3.43-11.006 21.55-72.515 26.31-77.074 8.78 1.639 68.86 53.275 78.28 62.291-7.99 14.82-27.4 43.849-37 58.692l-51.4 81.071c-7.75 12.291-15.62 24.594-23.39 36.863-8.76 12.909 9.42 29.25 19.56 15.816 10.29-13.623 19.32-28.978 28.47-43.451a5423 5423 0 0 0 46.27-72.973c10.41-16.834 24.65-41.408 36.2-56.913 21.37 20.886 37.4 45.843 54.3 70.377-27.24 25.144-54.07 52.331-81.12 77.884-10.62 10.042-51.01 47.633-56.72 56.391.36 10.567 5.72 22.892 19.04 15.092 7.78-4.557 15.99-15.415 22.99-21.608 5.61-4.962 11.36-11.069 16.87-16.363l91.68-87.432c11.54 26.002 21.34 44.226 31.71 71.592-45.7 27.081-93.18 52.276-138.37 80.441-13.63 8.49-4.7 32.936 13.94 22.11 44.53-25.872 88.09-53.182 133.23-78.058 4.49 10.586 15.88 51.497 18.39 63.048-47.14 13.614-94.98 29.176-141.66 44.268-2.93.947-5.67 3.669-7.16 6.343a13.2 13.2 0 0 0-.79 11.046c2.76 7.206 9.67 8.847 16.51 6.701 36.03-11.321 71.87-23.314 108.33-33.332 10.46-2.876 19.78-6.4 29.67-10.799 1.04 9.578 6.99 45.889 9.01 54.041-47.6 5.073-96.42 8.953-143.89 16.143-7.22 1.095-10.69 10.645-8.05 17.381a12.68 12.68 0 0 0 10.04 8.015c7.22 1.067 22.61-2.18 29.7-2.852 18.11-1.718 100.59-17.051 112.87-11.217 2.82 5.964 2.73 43.026 2.28 51.287a380 380 0 0 0-37.97-15.853c-7.22-2.616-19.15-6.865-26.89-7.127-22.67-.765-49.56 13.932-71.81 19.613-10.77 2.753-18.34 6.213-29.9 4.992-10.36-1.095-14.89-5.825-23-8.424-1.24.705-2.06 1.352-3.03 2.403-10.29.334-9.5-8.357-8.93-16.901 2.37-35.39-5.27-69.017-19.92-101.121-80.22-156.501-289.267-146.77-364.805 8.346-15.258 31.33-19.17 63.97-17.726 98.618-17.404-3.603-37.668 4.751-53.745 11.376-2.781-2.579-5.685-4.393-8.815-6.518-8.843-.357-19.611.618-28.726.427-35.329-.74-78.232 2.687-113.007.227 2.692-17.566 4.291-38.88 5.933-56.77 13.053 1.523 26.367 4.691 39.444 6.495 31.725 4.421 63.36 9.788 94.953 15.006 19.944 3.294 22.546-21.559 7.898-25.184-14.138-3.5-30.868-6.017-45.348-8.524a5768 5768 0 0 1-93.556-16.789c.563-17.819 5.344-38.786 9.446-55.969 11.993 3.468 25.42 9.318 37.464 13.422 33.848 11.535 67.361 24.308 101.13 35.945 6.557 2.26 13.368-2.363 15.961-8.291a10.88 10.88 0 0 0-.126-9.113c-1.336-2.786-4.21-5.264-7.023-6.422-45.946-18.928-93.662-34.244-139.906-52.421 5.426-20.875 14.893-44.154 22.496-64.643 6.322 3.851 12.498 8.296 18.791 12.289 38.435 24.391 76.373 49.989 115.537 73.154 14.439 5.895 24.648-12.808 11.449-22.062-36.988-25.93-75.766-49.182-113.037-74.726-7.365-5.047-14.843-10.099-22.53-14.619 8.429-23.856 19.133-44.251 31.514-66.232C723.729 313.696 830.9 420.282 844.198 425.73c10.544.026 18.996-12.472 11.083-20.926-15.24-16.282-31.833-31.633-47.895-47.136l-87.636-84.84c11.924-20.6 38.194-50.524 54.383-68.994l77.175 123.328c11.18 17.749 21.98 35.564 33.497 53.57 11.668 18.243 29.184 11.905 26.531-6.862-.544-3.843-14.366-23.313-17.649-28.712-20.993-34.518-43.765-68.25-64.451-102.997-10.932-18.516-27.419-39.169-32.817-59.326 3.175-2.015 7.435-7.193 10.756-9.942 22.717-18.806 47.676-35.636 75.278-45.995l45.767 160.829 14.11 51.188c1.416 5.144 2.381 10.625 3.931 15.697 5.427 17.755 29.886 16.653 25.447-4.545-2.226-10.633-5.359-20.915-8.314-31.38l-14.433-51.19c-14.066-49.421-27.943-99.987-42.695-149.148 17.78-9.07 75.242-18.889 96.364-21.988"/><path fill="#fefefe" d="M1013.99 64.47c3.64-.703 28.21.018 33.38.43 98.25 8.585 201.27 67.741 266.96 140.887 67.59 75.26 122.36 189.019 134.73 290.312 2.3 18.846 7.1 38.177 8.17 56.792 5.19 90.051.23 180.323 1.91 270.502.47 25.472-4.63 50.199-4.41 75.314.24 28.818 4.96 57.732 3.98 86.624-.89 25.429-6.79 52.359-5.48 77.789 3.35 64.85 7.18 129.75 4.23 194.71-.62 13.61.33 27.25-.58 40.96-6.55-.06-14.1 1.51-19.53-1.71-3.91-5.7-1.15-12.14-.11-19.1 4.56-30.39 2.51-56.57-1.01-86.69-.22-15.94 1.91-32.62 1.63-48.47-.51-28.57-3.54-57.32-.86-85.94 2.25-23.95-3.15-47.22-3.15-71.38.01-27.167 1.41-54.008 3.84-81.063 1.5-36.355-4.11-75.183-2.5-111.651 3.26-99.88 9.46-209.643-10.97-308.095-23.07-97.276-61.41-199.024-130.95-272.953-25.02-26.608-72.23-66.567-103.79-86.184-34.22-21.266-106.43-40.687-146.36-42.582-14.43-.763-26.99-1.442-41.74-.015-46.139 4.46-101.507 19.858-143.507 38.873-16.731 7.574-49.61 30.866-63.194 42.958-49.212 43.808-92.178 100.452-120.563 159.874-10.173 21.295-17.05 43.471-25.672 65.047-13.789 34.506-25.317 71.078-32.856 107.447-3.296 15.901-5.864 44.335-7.353 60.578-2.043 22.301-5.601 51.097-5.771 73.207-.08 34.956 2.157 69.838 4.62 104.709 1.244 17.616-.089 37.76-.194 55.552-.048 8.173-1.505 17.088-1.699 25.405-.671 28.739-.875 57.457-2.077 86.178-.526 18.72 4.381 39.384 3.591 58.446-.829 12.613-.613 26.765-2.169 39.259-4.875 29.12 2.588 58.02 2.361 86.46-.24 30.1-2.701 57.18.951 87.62 1.734 14.46-5.586 37.74-5.031 53.94.804 23.43 3.504 48.46 1.582 71.64-7.406-.02-12.927-.08-20.375-.79.144-49.75-1.574-98.74-.542-148.72-2.495-28.04 4.402-64.8 1.696-92.12-5.402-54.54-5.16-102.886.404-157.26 1.598-15.623-3.18-39.708-3.423-56.643-.484-33.862-.08-67.722.769-101.593.355-21.038-2.794-44.077-2.121-64.924.825-25.573-1.156-52.691.005-77.933 2.441-53.106 12.731-106.688 21.854-158.976 4.415-12.704 10.823-24.552 15.827-37.129 6.938-17.439 12.907-38.911 21.053-55.447 24.269-49.268 54.625-101.31 91.181-142.357 73.151-82.137 172.315-136.443 283.263-141.789"/><path fill="#fefefe" d="M1063.25 825.976c7.6 3.012 14.26 7.064 20.5 12.36 26.86 22.77 30.22 96.022 33.16 129.216.97 11.087 5.31 91.108-.15 96.548-2.79 2.78-11.62 1.1-15.34.78-1.14-17.76-2.63-35.22-5.51-52.81-3.51-21.475-8.33-42.27-9.7-64.088-.99-15.811 4.75-53.081 2.44-63.687-.47-2.166-2.31-4.766-4.24-5.865-1.53-.867-1.95-.667-3.51-.221-5.36 5.123-6.16 17.004-6.87 24.271-2.19 22.589-2.44 45.985.72 68.502 4.74 33.638 14.68 68.478 12.29 102.678l-.6.36c-.33.19-.67.38-1 .57-.73.42-1.46.84-2.2 1.24-24.76 13.33-110.194 9.2-138.007.99l-1.041-.15c-1.882-2.67-1.276-6.79-1.38-10.05-.836-26.17 5.394-49.21 9.777-74.749a764 764 0 0 0 5.177-36.244c1.521-13.131 4.443-69.109-3.52-77.471-1.098-1.153-2.053-1.634-3.651-1.51-1.415.109-3.566.943-4.506 2.069-4.209 5.045-.243 30.845-.141 38.785a310 310 0 0 1-1.964 39.597c-2.824 24.768-8.926 48.783-12.777 73.333-1.616 10.31-.898 21.36-2.945 31.41-.57 2.8-1.522 4.73-3.307 6.95-1.716.88-2.522 1.65-4.541 1.14-2.654-.66-4.903-3.27-6.286-5.5-2.18-3.51-3.493-7.95-3.91-12.04-1.243-12.18.643-25.89 1.349-38.15 2.442-42.415 5.12-86.035 13.441-127.716 3.669-18.377 8.108-37.332 24.472-48.641 5.412-3.74 11.636-6.168 17.172-9.872 5.713 4.448 11.327 9.255 18.422 11.261 10.909 3.085 20.436-2.643 29.636-7.708 4.51 3.864 9.09 7.525 14.91 9.155 13.53 3.789 23.24-8.472 33.63-14.743m248.05-162.438c4.06.032 8.65 1.074 12.53 2.199 16.03 4.644 31.68 11.521 47.55 16.814 17.59 5.864 36.18 10.158 53.22 17.413-1.15 10.756-.85 21.913-1.29 32.737a2294 2294 0 0 0-2.35 75.096c-21.78-5.371-44.33-10.835-66.4-14.794-15.94-2.86-32.13-3.86-47.85-8.059-18.96-5.063-34.97-18.953-54.54-21.684-17.33-2.42-34.73.968-51.37 5.581-37.44 12.365-73.01 23.12-112.43 26.935-2.2-23.4-19.79-28.555-22.58-53.454 15.05-5.802 30.55-10.486 45.58-16.303 12.76-4.938 24.68-11.377 37.85-15.346 23.32-7.032 47.59-10.663 70.85-18.246 26.3-8.575 64.89-28.26 91.23-28.889m-535.953 50.995c26.169-2.444 51.885 14.678 76.436 22.289 15.255 4.729 31.187 5.845 46.604 9.673 21.169 5.256 39.549 14.36 61.827 15.667-4.39 9.722-10.886 18.752-13.69 29.135-2.746 10.169-.902 18.909 4.215 27.941-25.262-2.436-49.388-7.374-73.885-13.924-17.841-4.771-36.558-11.945-54.982-13.224-11.838-.822-22.795 1.576-34.117 4.616-16.445 5.266-32.96 10.917-49.786 14.818-16.393 3.799-33.082 6.095-49.436 10.133-23.673 5.846-46.81 13.461-70.545 19.179-.316-26.625 2.556-53.224 2.803-79.906 17.976-6.374 37.381-8.173 55.498-14.335 20.759-7.062 41.905-14.28 62.337-22.179 6.68-2.583 12.806-7.351 19.737-9.166 5.07-1.328 11.685-.55 16.984-.717M947.14 1092.21c41.089 9.44 95.21 8.32 136.34-.83-4.57 27.5-5.83 55.61-7.3 83.41l-4.71 87.54c-1.23 22.38-1.03 46.96-6.12 68.72-6.42.05-30.39 1.4-34.39-3.47-4.67-5.69-8.81-123.22-9.26-139.83-.41-6.88-1.77-55.29-3.1-58.26-1.1-2.47-2.63-3.39-5.06-4.37-2.32.18-3.4.07-5.28 1.57-2.56 2.03-3.14 5.56-3.4 8.63-1.39 16.43.25 33.94.25 50.47-.01 30.83-1.28 61.47-2.52 92.25-.7 17.17-.51 34.88-2.793 51.88-11.836.1-22.069 1.95-33.962-.5-2.913-15.85-2.732-32.67-4.084-48.75a5691 5691 0 0 1-8.702-113.98c-1.652-24.91-1.943-49.79-5.909-74.48"/><path fill="#fefefe" d="M1099.34 604.055c17.01-.936 49.04 16.611 66.41 22.512 22.66 7.698 76.97 18.332 99.27 20.212 9.03.761 67-19.305 78.96-22.761 21.02-6.075 60.42 11.569 78.51 22.301-.39 5.793 1.06 9.701 1.51 15.738.54 7.356.81 14.379 1.05 21.746-21.83-4.304-46.81-13.765-68.02-21.069-27.96-9.63-39.49-17.21-69.74-9.086-23.67 7.01-45.93 16.821-69.2 24.791-20.46 7.006-43.11 11.346-64.11 16.51-6.77 1.663-14.95 3.429-21.86 2.891-13.85-1.077-27.2-6.756-40.6-10.168-11.31-2.964-22.76-5.271-33.89-8.828-18.8-30.437-46.1-40.792-74.507-14.404-9.497-4.536-15.95-7.011-26.057-9.532 15.476-4.275 29.258-10.036 44.194-15.619 33.36-12.469 63.82-25.199 98.08-35.234m-285.278 23.249c8.539.453 40.357 12.273 50.675 15.196a18296 18296 0 0 1 95.511 27.315c5.249 1.518 9.788 4.127 14.367 7.056-18.185 29.249-9.507 41.009-9.49 72.322-23.263-.857-39.376-10.056-60.39-15.357-14.04-3.542-31.143-6.182-45.826-9.497-19.118-4.785-42.026-18.111-62.03-23.331-10.801-2.818-33.994 1.638-40.736.42-22.937-4.144-61.044-14.855-82.503-22.611 27.89-12.229 57.558-22.166 85.633-34.132 18.356-7.823 34.913-14.47 54.789-17.381m422.768 149.134c23.58-2.443 42.21 15.486 64.05 21.065 17.23 4.404 34.63 6.111 52.04 9.298 22.85 4.184 45.74 9.709 68.13 15.946.77 8.427.63 16.848.59 25.3-51.71-.267-104.38-.866-155.88 3.202-4.54.536-9.07 1.016-13.62 1.442-17.05 1.489-49.27-12.721-67.61-16.852-10.19-2.296-20.93-3.259-31.27-4.775-13.45-1.973-26.85-4.373-40.31-6.25-8-1.115-16.84-1.03-24.6-3.104-1.64-.439-2.68-1.187-3.95-2.264-.88-3.553.68-5.672 2-8.99 26.47-3.093 51.34-7.559 77.05-14.923 24.52-7.024 47.66-17.379 73.38-19.095m-422.466 28.849c11.438-2.195 57.235 13.282 71.662 16.784 15.955 3.874 32.138 7.659 48.598 8.27-10.891 12.102-17.161 24.106-21.387 39.667-11.217-.072-22.448.844-33.664 1.177a3887 3887 0 0 0-67.847 2.245c-23.839 1.163-48.996 3.446-72.691.387-18.918 1.254-39.22-1.022-58.224-1.692-21.331-.751-43.083-.178-64.292-2.315l1.597-14.899c23.28-4.015 45.557-12.619 68.411-18.406 20.85-5.278 42.433-7.939 63.127-13.705 21.56-6.007 42.585-13.76 64.71-17.513m659.196-6.128c3.35-.135 7.98-.823 11.13.348 1.28.473 1.24.2 1.65 1.273 2.88 7.58 1.02 27.04.75 35.789a2731 2731 0 0 0-1.01 133.324c.35 28.595 1.66 56.927.89 85.537-.14 5.27-.18 50.88-.86 52.28-.67 1.36-3.87 1.96-5.38 2.47-1.86.32-3.92.82-5.8.85-2.66.05-3.43-.33-5.29-2.17-2.11-6.87-1.86-15.22-2.12-22.38-.63-17.43-.86-34.84.62-52.25 1.4-16.46 4.12-32.83 4.44-49.383.56-28.962-3.58-57.952-3.67-86.934-.05-16.539 2.4-33.167 3.47-49.669 1.06-16.279.85-32.774 1.18-49.085m-909.817-2.887c1.791-.259 2.623-.212 4.298.483 2.418 5.067.678 13.475.261 19.053-1.982 26.527 3.388 53.04 3.706 79.536.327 27.298-4.565 54.756-4.602 82.192-.037 27.264 3.508 53.924 4.429 81.034.349 10.25-.277 20.57-.637 30.82-.266 7.58.014 15.68-1.452 23.13-2.475 2.25-5.023 1.47-8.246 1.4l-3.087 1.08-1.374-.9c-2.75-16.91-1.314-36.24-1.602-53.51-.491-33.17-.662-66.358-.515-99.54.279-20.945 1.384-41.896 1.469-62.836.119-29.324-4.256-72.617-.86-99.764 2.624-1.923 5.063-1.794 8.212-2.178m1198.147-146.3c12.27 5.387 23.28 17.652 34.5 25.251 15.49 10.493 32.38 19.177 47.53 30.2 2.02 1.467 3.02 1.811 3.43 4.27-19.69-.67-39.4-.894-59.1-.672-30.34.301-60.6-3.22-90.96-3.118 7.38-5.71 14.02-12.552 21.15-18.611 14.53-12.348 29.54-24.281 43.45-37.32M617.571 671.283c20.274 6.434 39.936 15.687 59.967 22.95 18.093 6.561 37.2 11.394 55.782 16.401l-.988.534c-7.866 4.323-16.46 6.951-24.916 9.878-13.018 4.562-26.072 9.526-39.309 13.394-15.794 4.616-31.868 8.233-47.574 13.158.403-25.472-3.595-50.719-2.962-76.315m-334.314-23.267c12.26 12.608 49.638 42.069 54.502 56.842-3.464 3.495-73.124 3.417-86.185 5.004-6.969-2.787-41.093 4.795-52.222.248l.209-1.314c7.82-4.179 14.887-9.853 22.226-14.826 21.581-14.623 41.551-29.156 61.47-45.954m1312.023-1.043c13.36 5.401 36.91 27.751 49.71 37.477 9.83 7.472 20.39 13.962 30.31 21.354-13.05-.372-26.86-.179-39.71-2.625-27.27-2.324-55.27-2.113-82.65-3.332 4.53-5.092 8.87-10.193 12.67-15.868 7.81-11.669 15.82-32.361 29.67-37.006m-1142.435-2.06c8.111 3.035 29.438 44.843 35.164 55.057l-85.258 4.313a1692 1692 0 0 1-33.625 1.718c30.734-15.676 55.694-41.211 83.719-61.088m648.435 191.994c9 .823 18.2 2.983 27.17 4.372 16.29 2.525 32.86 4.342 49.02 7.574 12.58 2.516 24.97 6.381 37.48 9.308-3.63 1.036-7.37 1.747-11.06 2.553-14 2.907-28.43 4.278-42.6 6.218-14.7 2.013-29.55 4.635-44.38 5.394-3.07-12.501-7.76-25.106-15.63-35.419M615.116 650.022c31.596.562 63.224-.54 94.826.218l-15.192 5.283c-13.205 5.234-26.388 10.008-40.056 13.901a936 936 0 0 1-37.149-12.331c-1.9-2.12-1.905-4.342-2.429-7.071m455.594 712.418c4.78 2.8 7.95 8.71 11.08 13.23-6.7 13.05-14.19 23.72-26.99 31.3-6.25.09-12.66.5-18.85-.55.24-10.26.09-20.56.12-30.83 4.44.72 9.38.8 13.69 2.05 4.04 1.17 4.3 4.56 6.31 8.14 1.23.88 2.52 1.92 4.04 2.2 1.87.34 3.25.03 4.68-1.24 5.18-4.6 5.01-17.88 5.92-24.3m-110.849 2.29c3.775 2.79 1.757 14.41 3.206 19.09.998 3.23 3.48 5.88 6.536 7.31 2.23 1.05 3.319.84 5.472-.11 2.519-3.15 3.144-7.2 4.13-11.04 3.061-2.41 9.096-1.97 12.88-1.7 2.103 2.89 1.04 20.27 1.22 24.93-.759 2.08-.974 2.18-2.795 3.47-6.893 1.17-12.671-.19-19.26-2.19-7.83-7.48-14.548-17-21.416-25.41 2.523-5.65 5.66-9.99 10.027-14.35M1063.2 695.65c17.39 1.776 35.03 8.363 51.45 14.066l-12.4 4.68c-12.04 4.16-24.03 8.217-36.29 11.681.32-9.958-.92-20.649-2.76-30.427m-286.508 515.38c2.146.06 4.729.02 6.742.83 5.835 2.33 43.063 32.41 45.172 37.8.96 2.45-.011 3.87-.972 6.07-1.14 0-2.27-.02-3.404-.15-8.841-1.05-40.24-27.93-46.038-35.66-2.487-3.31-2.062-5.04-1.5-8.89m36.812-204.17c11.086 5.38 18.693 28.95 23.053 40.08 1.917 4.89 4.483 9.31 2.22 14.51-1.352-.2-2.65-.39-3.888-1.01-9.432-4.68-18.636-29.8-21.386-39.73-1.351-4.88-2.566-9.29.001-13.85m-117.399-1.32c1.367.04 2.836.07 4.187.29 6.334 1.03 23.209 24.79 26.809 30.89 2.172 3.68 2.814 5.6 1.742 9.81-.909.22-.939.27-2.036.26-5.735-.08-9.747-4.96-13.171-8.96-6.925-8.09-18.333-21.44-17.531-32.29m86.046 95.93c1.526-.02 3.264-.04 4.679.6 7.712 3.5 22.655 25.36 25.768 33.35 1.277 3.27 1.091 3.9-.244 6.94-.897.18-.887.23-1.941.18-5.153-.25-10.694-7.57-13.561-11.32-5.458-7.12-15.829-20.79-14.701-29.75m544.119-191.759 3.26 1.181c1.71 1.946 2.47 2.823 2.19 5.528-1.05 10.303-18.83 24.634-26.71 30.555-1.05-.334-2.01-.637-2.93-1.264-1.99-1.356-1.73-1.691-2.13-3.993 3.14-10.991 18.38-23.645 26.32-32.007M671.388 1194.46c1.662.17 3.473.31 5.018.99 8.752 3.81 16.93 21.64 19.965 30.22 1.22 3.45 1.083 5.6-.499 8.86l-4.338-.53c-4.688-3.12-8.121-9.29-10.966-14.02-4.231-7.04-11.215-17.39-9.18-25.52m540.962 18.23c2.76.04 3.3.15 5.66 1.57.32 1.02.87 2.01.67 3.08-1.85 9.99-20.02 23.29-28.26 28.88l-3.88-.82c-2.16-1.99-2.05-2.11-2.43-4.85 2.66-7.53 21.68-21.8 28.24-27.86m59.69-81.13 3.37 1.71c.85 1.57 1.34 2.11 1.22 3.9-.72 10.05-16.54 26.54-23.84 33.14-.89.01-1.52.06-2.41-.16-2.01-.48-2.55-1.97-3.22-3.67 1.08-11.14 16.66-27.47 24.88-34.92m-75.28-22.96c1.39.26 2.1.6 3.14 1.52 1.26 1.12 1.66 2.26 1.61 3.94-.34 10.25-18.67 26.24-26.37 32.45-.82-.34-1.33-.52-2.11-1.03-1.43-.95-2.3-2.17-2.29-3.9.03-7.99 20.2-27.01 26.02-32.98m179.88-36.12 3.36 2.1c.75 1.5 1.07 2.5.84 4.21-1.34 9.9-16.44 25.3-24 31.46-1.54-.75-2.45-1.72-3.65-2.91-.45-1.32-.76-2.34-.56-3.75 1.54-10.75 15.71-24.61 24.01-31.11m-457.88 9.68c2.852-.2 6.426-.73 9.16.23 1.825.65 3.596 2.05 4.433 3.78 2.429 5-2.377 13.68-4.072 18.57-2.452 7.08 4.09 16.65 7.155 22.91l.12 1.63-1.184 1.08c-.893-.21-1.623-.37-2.378-.92-14.187-10.46-11.678-31.9-13.234-47.28m357.73-65.49c2.78.44 3.37.4 5.56 2.32.28 1.33.54 2.51.21 3.85-2.38 9.77-16.09 22.71-24.29 28.02l-2.51-.15c-2.23-1.52-2.13-1.43-2.7-4.08 2.71-10.18 16.45-22.3 23.73-29.96m76.64-21.041c2.43.785 2.72 1.066 4.4 2.998.29 1.453.55 2.773.25 4.253-2.01 10.07-13.81 23.86-22.14 29.5l-2.16-.85c-1.23-1.48-1.91-1.91-1.87-3.93.17-8.41 15.39-26.36 21.52-31.971M659.688 1103.52c.206.02.41.05.616.07.318.03.636.04.953.07 5.965.53 8.791 4.67 12.353 9.04 6.258 7.67 13.448 17.86 12.46 28.1-4.623-.25-6.308-1.61-9.335-4.95-6.503-7.17-17.611-22.31-17.047-32.33m208.061 72.15c5.978.81 11.564 2.85 17.18 4.97 5.633 2.12 13.115 5.1 15.744 10.91-.068 3.28-.317 3.77-2.133 6.53-8.902-1.81-27.459-8.98-33.777-15.52-.206-2.9 1.382-4.59 2.986-6.89m233.241-97.19c3.53 1.39 7.31 1.59 11.06 2 .14 19.23.81 31.79-12.22 47.22-1.48-5.14 4.21-16.89 5.58-22.71.6-2.54 1.12-5.25-.31-7.58-2.51-.13-3.46.76-5.63 1.98-1.71-6.89-.26-14.18 1.52-20.91m112.29-107.879c.85.279 1.44.421 2.23.928 1.55.996 2.08 2.689 2.03 4.427-.23 7.751-17.71 23.153-23.44 28.504-1.23-.42-2.36-1.13-3.51-1.74-.96-1.74-1.49-2.39-1.23-4.456 1.18-9.227 16.8-22.037 23.92-27.663M824.932 921.17c1.17.153 2.421.235 3.525.68 5.307 2.143 10.184 12.442 11.975 17.637 1.806 5.241 3.814 10.801 1.259 16.103-.89-.204-1.262-.258-2.06-.532-5.069-1.737-8.954-8.84-11.147-13.42-2.987-6.239-6.011-13.739-3.552-20.468m211.678 423.5c6.83.13 13.69.58 20.51.88l-.11 15.52c-6.92.07-13.85.02-20.78-.15.35-5.44.49-10.8.38-16.25m-63.15-.24c5.441.89 15.15-.61 19.138 2.55 1.887 3.82 1.016 8.57.794 12.74-.131.14-.234.32-.394.43-3.437 2.44-14.563 1.02-19.056 1.01-.492-5.49-1.123-11.25-.482-16.73m406.35-184.72 2.88 2.59c1.12 3.25.61 5.86-.22 9.1-2.19 8.59-7.12 17.69-14.82 22.33-1.44-1.17-2.15-2.26-3.13-3.81-.05-1.64 0-2.93.48-4.52 2.2-7.24 8.12-21.98 14.81-25.69M718.709 911.485c1.609.259 3.434.517 4.883 1.298 6.341 3.418 12.374 17.424 14.187 23.856.967 3.432.288 4.285-1.293 7.247-.775-.035-.905.01-1.737-.324-6.053-2.43-11.852-13.312-14.336-18.914-2.097-4.73-3.691-8.034-1.704-13.163M1293.6 1231.81c1.36 1.02 2.14 2.42 3.05 3.83-.04 1.24.15 2.71-.41 3.82-3.86 7.61-13.94 13.29-21.75 15.97-.47-.32-.9-.59-1.32-1.01-1.97-2.01-1.73-2.54-1.73-5.11 3.57-8.35 14.43-13.7 22.16-17.5m-87.5-327.731c.94.183 2.05.332 2.96.686 2.25.877 2.42 1.911 3.21 4.073-.62 8.709-9.28 16.096-15.38 21.534-2.62-1.715-3.34-1.888-4.58-4.875.62-7.799 8.95-15.578 13.79-21.418"/></svg>