<svg xmlns="http://www.w3.org/2000/svg" preserveAspectRatio="xMidYMid meet" viewBox="0 0 2048 1152"><path d="M159.216 130.94a61911 61911 0 0 1 647.285 7.809l1081.589 14.77c-4.12 19.435-8.2 56.991-11.13 77.899l-22.88 162.647a23495 23495 0 0 1-79.42 515.179c-5.38 32.222-11.34 65.479-15.98 97.726-70.62.04-141.98 1.59-212.68 2.52l-364.5 4.2-910.124 10.36c-7.024-36.619-12.337-84.323-17.377-121.731a17198 17198 0 0 1-26.568-201.026 30302 30302 0 0 1-68.215-570.353"/><path fill="#fefefe" d="M179.444 151.389c59.796-.086 122.149 2.285 182.179 3.16l445.738 7.067 1058.519 14.427c-7.4 36.839-13.74 78.646-20.31 116.109l-60.77-.343c-14.12 14.049-39.35 41.15-54.54 52.744-4.02 3.073-42.55 13.845-50.46 16.15-41.85 54.556-90.82 145.545-120.88 208.645-39.36-4.213-83.58-11.175-123.42-16.274-19.67-1.547-45.52-6.063-66.09-8.399-21.66-91.527-61.56-206.67-136.11-267.462-78.63-64.127-206.18-84.807-305.22-74.863-117.728 10.217-207.631 52.3-282.418 146.356-73.066 91.89-98.459 177.117-87.442 293.728-5.803.41-11.43 1.066-17.202 1.719-9.835-18.848-18.486-37.548-28.051-56.407a1503 1503 0 0 0-95.898-162.089c-17.56-25.648-32.171-20.29-49.813-42.001-35.37-43.527-56.897-100.228-92.414-142.485-.969-1.153-75.616-19.03-85.422-22.235-3.848-18.786-6.96-47.718-9.976-67.547"/><path fill="#fefefe" d="M190.58 229.362c19.558 6.707 58.569 15.955 79.153 19.174 9.409 13.811 18.722 28.759 28.572 43.117 5.71 8.322 11.591 23.966 18.11 34.154 8.239 11.153 42.268 69.142 51.441 74.012 40.874 21.7 36.252 26.6 61.711 63.342 40.888 59.008 68.188 121.741 101.789 184.392-37.394 21.238-76.529 40.256-112.61 60.821 2.094 23.525 5.327 23.121 9.758 43.43l23.057 107.568c3.483 16.008 11.42 48.236 12.861 63.343l.226 1.683c-6.315-15.038-14.311-23.197-31.693-26.615-7.928-1.559-23.025-1.23-29.828 3.322-5.393 3.61-5.718 14.608-6.53 20.989-12.017 7.901-14.721 10.964-18.514 24.47-7.439-1.349-13.559-1.808-21.049-.421a46.36 46.36 0 0 0-29.828 19.396c-7.831 11.553-9.298 23.026-6.724 36.381l-29.207.14c-.946-19.114-7.45-58.789-10.085-79.043l-19.758-155.152a27597 27597 0 0 0-70.852-538.503"/><path d="M249.331 367.493c3.804.258 6.649.51 7.996 4.636 2.972 9.099 5.68 18.414 8.417 27.587l17.815 59.951c7.007 23.401 50.634 154.032 44.218 169.228-2.414-1.537-3.889-1.888-4.82-4.362-3.228-8.58-5.706-18.147-8.08-26.941a1399 1399 0 0 0-12.583-44.859c-17.771-59.011-36.836-117.782-53.349-177.239-.953-3.434-.812-4.743.386-8.001m96.088 151.019 4.116.469c12.329 6.804 44.458 90.807 50.366 106.881 4.994 13.585 17.958 35.558 15.542 49.92-2.556-.56-2.652-.617-4.858-2.069-5.808-13.966-13.938-28.851-19.143-42.57-13.583-35.798-26.615-70.532-45.797-103.839-.909-1.577-.403-6.834-.226-8.792"/><path fill="#fefefe" d="M946.715 210.425c8.408-.896 24.291-.779 32.979-.866 71.106-.715 161.126 19.051 221.756 56.435 90.33 55.694 133.99 178.289 156.69 277.438-13.26-2.098-26.99-3.891-40.32-5.793-25.14-99.36-114.9-203.168-212.65-233.767-32.99-10.325-85.47-6.528-119.228 1.681-20.531 4.992-49.663 20.027-68.617 30.321-95.086 60.738-160.607 153.138-173.695 266.785-32.164 1.833-42.482 8.464-65.16 30.144l-110.418 9.003a320 320 0 0 1-2.589-23.747c-7.558-99.742 29.355-194.982 93.679-270.249 30.954-36.22 78.31-79.024 121.643-99.009 49.029-22.611 112.315-34.284 165.93-38.376m842.775 90.636c15.94-.591 38.64.511 54.93.86-4.8 23.716-8.56 52.185-12.21 76.275l-19.17 127.635-47.1 311.261L1751 922.189c-2.82 20.003-5.52 43.4-9.44 62.95-4.85.26-24.85 2.158-27.78-2.023 12.87-3.773 32.18-7.296 21.52-27.235-2.94-5.511-11.93-6.638-17.77-7.825 7.01-7.297 15.53-15.49 20.95-23.912 12.38-19.246 1.49-41.032-16.83-51.317-22.19-12.459-40.9-11.791-64.4-5.869-47.71-47.241-86.29 74.663-26.04 57.662l5.88 15.038c-16.99.036-21.87 3.088-22.4 21.257-16.86-2.851-27.18-3.711-44.18-4.246-14.52-13.767-29.42-17.444-48.82-11.76-3.72-17.511-7.11-20.006-20.9-29.712-.06-10.663 27.48-9.033 33.95-19.077 1.9-17.004-35.27-20.632-32.97-.506.21 1.877-5.83 4.542-8.13 5.808 1.02-31.041 4-65.768 5.94-97.155 3.71 7.931 11.01 34.049 17.84 36.974 9.1-7.932 63.54-104.075 74.93-122.184 9.32-14.833 38.55-61.99 47.31-78.15-6.15-9.391-22.84-50.305-29.56-63.846-13.14-2.351-27.75-4.28-41.07-6.323 35.39-71.152 69.58-137.835 116.67-201.937 15.1-4.939 32.07-7.767 46.45-14.316 13.47-6.136 44.09-41.129 57.34-53.424"/><path d="M1718.53 451.405c2.05.094 2.85.569 4.72 1.339l.95 2.479c-1.73 8.052-32.82 57.41-39.13 67.295 3.26 45.916-14.16 108.776-24.01 155.072l-12.1 55.682c-2.08 9.3-4.79 22.884-7.98 31.611l-3.71-1.234c-1.45-1.786-2.52-3.017-2.04-5.604 11.3-60.636 25.85-120.797 36.97-181.5 3.4-18.558 4-37.532 3.93-56.342 12.79-21.858 27.64-48.628 42.4-68.798"/><path fill="#fefefe" d="m1460.93 791.468 1.78.634c.39 3.93-1.52 24.074-1.97 28.985-1.91 20.776-2.95 42.691-5.77 63.281-3.75-3.681-10.93-9.006-17.89-8.268-11.49 1.217-10.98 25.681-13.24 28.547-3.38 4.281-16.16 6.379-23.91 17.14l-33.13 5.182c-3.52.65-8.14 1.004-11.79 1.384.59-6.822 1.05-13.701 1.27-20.544 1.09-34.43 3.67-69.059 3.92-103.489 33.26-3.655 66.93-9.36 100.73-12.852m-137-198.588c64.65 6.824 130.79 19.972 195.51 27.895 11.55 1.414 24.45 3.365 35.86 5.712-7.03 12.925-18.55 30.395-26.5 43.312l-6.02 9.228c-20.68-8.914-43.51-11.349-57.71 9.536-12.99-14.307-22.33-17.636-41.08-19.865-15.09-39.94-44.34-64.857-86.23-68.622-3.79-.341-10.63.691-13.39-.983zm355.92 279.524c19.08-1.639 50.98 9.211 54.2 31.646 2.19 15.324-15.75 27.812-24.07 38.497-2.85 3.67-3.9 5.283-3.28 10.023 5.21 5.966 18.65 4.211 22.81 12.842l-.93 2.152c-18.37 15.814-32.78-16.717-47.83 3.378-2.68 4.004-5.6 9.967-7.91 14.341l-10.76.52c-10.45-39.138-17.57-15.302-34.3-20.565-4.08-3.783-4.7-8.973-2.04-13.859 7.74-4.852 31.37 5.599 19.2-19.406-16.78-34.48-2.21-55.363 34.91-59.569"/><path d="M1704.27 904.588c5.92-2.16 12.46.9 14.58 6.822 2.13 5.922-.96 12.446-6.89 14.544-5.89 2.083-12.36-.984-14.47-6.862-2.12-5.878.92-12.36 6.78-14.504m-34.32 13.076c3.95-1.132 8.2-.032 11.1 2.873 2.91 2.905 4 7.156 2.87 11.102a11.3 11.3 0 0 1-8.33 7.88c-5.96 1.365-11.93-2.265-13.45-8.186-1.53-5.922 1.94-11.982 7.81-13.669m-18.71-21.985c5.3-2.067 11.27.564 13.32 5.869 2.04 5.305-.61 11.265-5.92 13.297-5.28 2.023-11.21-.612-13.25-5.893s.58-11.216 5.85-13.273"/><path fill="#fefefe" d="M1593.36 623.81c4.21 7.449 11.02 37.714 14.95 48.643a2406 2406 0 0 0-43.7 72.439c-6.3 10.77-20.75 36.923-27.78 45.681-5.2-12.766-11.37-33.258-16.22-47.086 8.65-12.746 18.49-29.754 26.61-43.13zM418.529 936.592c2.7.274 1.655-.294 3.384 1.446.782 17.636 7.173 2.648 16.665 6.726 10.307 4.428 8.155 15.01 11.429 23.755 2.389 1.881 1.325 1.619 3.925 1.325.662-1.981 1.159-3.31 1.991-5.228 9.232-2.807 27.78-3.932 37.038-1.205 13.92 4.101 18.01 20.577 13.616 32.996-4.65 4.603-48.918 3.234-57.854 3.234l-5.195-.055c2.708-5.721 8.302-9.692 3.383-17.373-3.537-2.136-1.928-1.605-6.3-1.758-3.193 3.285 1.073 5.639-2.111 11.749-7.53 8.366-31.551-.157-42.31.672-2.937.227-21.554.01-22.967-.951l-.414-2.271c2.564-5.895 10.714-7.375 15.349-11.067 3.375-2.689-3.729-10.249-3.453-13.981.774-10.47 17.523-16.448 25.258-21.073 2.615-1.563 6.413-5.009 8.566-6.941"/><path d="M413.462 953.223c10.728-.123 20.419 4.963 21.972 16.446a16.94 16.94 0 0 1-3.529 12.888c-4.377 5.465-9.093 6.25-15.628 7.075-30.212-1.869-31.688-30.014-2.815-36.409m60.496 16.003c24.83-2.546 36.428 19.666 10.746 27.648-24.402 1.689-35.671-16.278-10.746-27.648"/><path fill="#fefefe" d="M1344.38 806.329c2.41-.541 2.53-.62 4.9-.091 4.69 9.994-8.41 118.211-1.48 131.875 4.43 2.325 38.57-3.794 46.06-4.784 1.38 13.289.06 14.043 9.68 24.942l-16.64 2.525c-11.49 2.021-23.05 3.936-34.41 6.547-10.79-7.577-19.91-10.212-32.43-13.205 2.59-48.478 4.92-96.97 6.98-145.473 5.6-.529 11.73-1.537 17.34-2.336m136.37-55.952c3.14-.542 3.54-.762 6.55-.037 3.74 4.385 1.09 19.149.64 26.037l-148.9 20.367c-3.61.747-6.28 1.797-9.49.359-4.02-4.924-1.54-17.853-1.21-25.545 50.73-7.6 101.53-14.661 152.41-21.181m-365.18 108.834c31.25-2.437 33.06 24.552 19.94 46.373-8.92 14.828-21.32 20.925-37.65 24.811-43.61 2.713-34.4-56.259 17.71-71.184m-574.309-132.69c.409-.031 1.626.401 2.095.541.848 2.992-.275 7.135-.837 10.386-9.692 1.052-89.002 7.753-91.367 8.832-2.306 5.208 10.442 51.998 12.578 60.86a7059 7059 0 0 1 23.1 98.219c1.477 6.218 7.759 20.07 4.242 24.32l-4.275-.677-10.962-2.543c-9.902-61.646-28.711-127.862-38.892-190.265a4094 4094 0 0 1 104.318-9.673m712.849 57.066a714 714 0 0 0 32.56 12.568c-4.11 30.562-5.72 81.974-7.7 114.092.09 2.061-.1 2.521-.59 4.454-1.86.253-15.02-5.987-22.64-7.333-.31-5.395-.39-10.836-.38-16.242.11-35.843-1.47-71.708-1.25-107.539m66-235.736c38.32 5.772 78.36 10.335 116.89 15.434l145.69 19.651-5.87 8.76c-1.09 1.974-1.19 1.92-2.86 3.285-8.4-.559-21.26-2.903-29.94-4.098l-55.74-7.441c-53.38-7.067-113.37-14.386-166.41-23.014z"/><path fill="#fefefe" d="m655.661 815.367 3.35-.241c3.916 3.951 3.941 15.461 4.47 21.459-13.868.749-31.115 3.116-45.242 4.676l-104.37 12.293h-2.664c-2.408-3.146-4.75-15.405-5.905-20.219 49.793-6.251 100.825-10.909 150.361-17.968m4.279-79.896 13.332-.98c1.657 16.81 7.249 45.741 10.047 63.227a6144 6144 0 0 1 16.322 107.575c.927 6.211 5.335 28.944 3.086 32.451-5.208.611-10.244.97-15.464 1.352-5.324-49.664-14.657-101.081-20.731-150.838-.934-7.657-7.359-48.316-6.592-52.787m663.85-164.774c29.23 5.185 67.32 9.444 97.21 13.525l148.25 20.319-4.13 6.64c-.88 1.716-1.84 4.154-3.43 5.308-3.86 2.8-216.43-30.651-237.48-33.571zM767.665 917.275c13.93-1.587 22.148-.629 35.133 4.266.103 5.064-.402 17.122 3.321 20.416 2.541 2.247 4.585 2.255 6.904 5.966-.778 9.573-31.704 14.122-39.779 14.927-59.381 1.382-65.656-35.671-5.579-45.575m378.115 30.065c23.45-2.426 45.57 9.833 57.79 29.533-7.05 5.459-10.49 8.424-14.75 16.214l-14.34-.004c-15.77.455-38.11 1.164-50.4-9.594-21.38-18.702 3.46-33.718 21.7-36.149m150.4-147.861c7.35 2.666 13.64 5.433 20.79 8.603-1.83 45.061-3.2 102.957-7.18 147.068-.59-.208-3.57-1.725-3.75-2.183-4.74-11.624-8.61-19.051-17.33-28.076.63-22.283 2.57-45.399 3.92-67.717 1.15-18.979 1.85-38.852 3.55-57.695m-628.293 70.026c1.58 1.918 2.995 15.329 3.455 18.805-47.368 4.469-101.803 11.93-149.115 18.236l-4.775-19.887c48.765-4.48 101.141-11.73 150.435-17.154M471.555 754.432c2.78-.389 3.727-.84 6.009.46 3.199 8.79 11.01 46.252 13.596 57.363 9.494 40.791 19.64 82.134 28.705 122.954-2.926 1.109-4.214.232-7.733-.446l-9.343-2.161c-1.252-7.569-3.361-16.331-5.284-23.788-12.952-50.245-22.154-103.711-36.859-153.306 2.569-.504 8.074-.827 10.909-1.076m187.136 88.963c3.877-.521 2.637-.886 5.416.676 2.403 4.763 2.694 12.409 3.263 17.928-47.51 6.419-97.813 11.303-145.949 17.306-2.696.059-2.882.159-5.09-1.204-2.732-4.493-3.381-11.718-4.25-17.1a9276 9276 0 0 0 146.61-17.606m-4.208-56.884 1.192-.101c2.424 3.096 3.421 16.588 3.966 21.328-9.972 1.717-23.848 2.695-34.335 3.973l-70.379 8.71c-16.824 1.959-34.22 3.446-50.865 6.088-.751-2.651-1.351-5.992-1.923-8.739l-2.913-13.131a855 855 0 0 0 55.887-7.216c18.099 19.176 41.297 18.186 54.261-5.731 14.882-1.901 30.177-4.084 45.109-5.181m261.174 63.797c12.493-1.286 39.294-1.474 49.761 4.884 29.647 18.009-2.833 27.981-18.22 30.614-16.742 1.574-41.244 1.964-55.998-7.135-27.47-16.943 10.628-26.267 24.457-28.363m-246.98 45.081c.371-.106 2.095-.05 2.602-.047 2.442 3.067 3.007 14.226 3.472 18.875-46.908 5.766-97.23 10.209-143.68 18.022l-1.771-.199c-2.455-2.579-4.737-14.317-5.841-18.786 14.863-.542 40.063-4.411 55.688-6.399a5543 5543 0 0 0 89.53-11.466m480.313-29.192q2.025-.12 4.05-.079c22.39.491 49.86 12.569 64.97 29.411 5.94 6.622 8.61 12.736 1.09 19.389-23.57 5.138-49.92-3.247-70.79-14.138 4.85-13.705 4.77-21.162.68-34.583m-285.374 23.166c1.947-.291 8.347-.203 10.655-.223 6.26 12.409 14.746 15.213 27.337 19.832-12.537 17.984-31.254 20.795-51.692 21.156-8.893-.271-49.681-4.885-35.93-22.086 9.442-11.811 34.787-16.778 49.63-18.679"/><path fill="#fefefe" d="M682.864 733.194c3.345-.234 6.673-.791 9.713.558 3.065 11.327 7.302 43.445 9.635 57.13l23.011 133.869c-4.584 5.086-5.536 6.262-8.526 12.454l-1.566 8.041c-9.464-57.351-16.452-115.189-26.136-172.528-2.198-13.012-4.619-26.467-6.131-39.524m18.476-8.173c3.924-.261 6.912-.841 9.865 1.431 3.004 9.564 6.617 33.878 8.615 44.879a3809 3809 0 0 1 17.103 97.634c1.07 6.447 7.598 39.994 7.822 44.435l-2.119 1.867-9.392 3.863c-.936-5.139-1.667-10.455-2.496-15.634-9.518-59.505-21.373-118.754-29.398-178.475m295.785 113.31c35.935-4.164 90.405 22.604 30.075 35.542-8.78 1.043-13.34.646-21.32.155-20.767-1.278-15.472-6.389-26.955-19.933-1.62-1.911-8.053-5.218-10.827-6.662 11.354-5.525 16.593-7.348 29.027-9.102m486.045-49.975c3.63-.341 4.87-1.11 7.63.372.45 5.515-2.15 32.075-2.79 39.099-2.24 24.792-2.36 54.086-5.5 78.371-2.39 1.051-5.14-.1-7.88-.792-4.02-1.122-7.5-1.285-11.63-1.647 3.89-24.602 4.59-54.746 7.42-79.844 1.22-10.842 1.12-22.191 3.25-32.998 2.11-2.074 6.27-2.115 9.5-2.561M576.718 687.129c11.759-.684 23.189 4.396 25.822 16.91 5.876 27.933 5.642 59.609-4.223 86.593-1.537 4.202-7.673 7.12-11.705 8.154l-1.106-1.026c.388-4.579 3.821-6.833 4.934-9.289 8.922-22.196 8.26-53.225 6.014-76.964-1.251-13.23-7.338-15.237-18.751-13.133-14.255 8.533-15.559 26.984-17.306 42.255-1.806 15.789-1.343 35.92 8.995 48.71 2.972 3.677 6.811 5.037 9.84 8.712l-.539 1.108c-36.335 4.529-31.037-91.812-12.691-107.11 3.737-3.117 6.297-3.652 10.716-4.92m127.814 260.378c.305-.023 1.439.626 1.795.802 1.39 4.22 3.704 11.058-2.707 11.896-31.542 4.124-63.645 5.862-95.4 7.586-7.71.418-20.83 6.432-27.257 11.03-2.265-.309-2.275-1.191-4.086-3.415q-.763-.783-1.474-1.611l-.675-.781c-3.886-4.45-6.3-10.006-8.976-15.323 41.196-4.813 97.632-7.759 138.78-10.184m420.438-18.603c5.15 3.157 6.96 6.309 10.12 11.332-9.12 3.122-16.25 6.176-21.37 14.751-11.28 18.928-5.26 28.557 10.14 38.677l-25.73.362c-7.8-6.407-10.86-9.816-20.81-12.089.16-4.924-.84-13.797-.1-17.945 2.01-11.213 3.64-15.105 4.18-26.932 18.64 3.674 27.22.699 43.57-8.156m-450.049-7.361c1.662 1.645 3.161 14.216 3.628 17.263-39.072 3.053-80.213 7.251-119.029 9.378-6.87-3.824-9.169-4.583-16.473-6.728l-12.994-2.695c44.633-5.722 100.366-13.751 144.868-17.218m558.259-8.378c28.7-1.874 54.07 14.667 63.51 41.907-5.39 2.118-7.46 3.271-12.43 6.3-3.22 2.88-3.27 4.566-7.58 7.453-4.03.916-11.41-2.66-16.1-4.292-5.67-21.175-11.89-28.42-29.9-39.878.91-3.594 1.71-7.816 2.5-11.49m360.27-327.681c3.31.646 4.94.638 7.48 2.827-.84 4.192-85.01 145.109-91.05 150.597-3.29-.934-6.53-1.554-9.09-3.804 1.24-3.68 15.24-24.85 18.2-29.656a5365 5365 0 0 1 47.82-76.604c8.11-12.891 19.8-30.305 26.64-43.36m-80.96 376.993c24.96-1.383 44.18 3.047 58.85 24.578-10.45.008-20.9.242-31.34.702-7.85.086-53.55 1.336-57.48-.799-2.51-4.431-.88-9.579.4-14.218 12.04-3.253 18.26-4.952 29.57-10.263M624.653 646.412l11.929-.331c-27.184 14.717-41.655 12.117-72.167 14.688-6.009.506-16.878.665-22.269 2.872-22.39 9.167-42.003 27.374-64.387 36.602-1.701.701-10.161 1.351-12.519 1.525l-14.183 1.49c18.113-10.823 38.677-20.834 57.246-31.355 8.64-4.895 25.036-15.02 33.598-17.92 3.525-1.194 23.939-2.77 28.503-3.153zM1021.05 918.57c10.01-.802 28.74-1.082 37.94 2.532 29.67 11.655-8.94 23.538-19.21 25.699-19.08 2.55-30.03 1.525-48.106-4.285 14.726-8.533 14.216-8.313 20.496-22.381 2.14-1.759 5.85-1.431 8.88-1.565m-410.329 58.844c16.494-1.853 57.206-4.85 58.958 18.303-3.479 2.554-27.638 1.694-33.43 1.803-18.171.891-41.728.349-60.34.481 11.467-15.583 15.342-19.167 34.812-20.587M1253.28 749.6c10.45 2.505 18.45 6.522 28.2 9.552 12.8 3.98 23.83 7.575 36.42 12.268.08 7.893-.45 17.304-.7 25.305-1.85.112-56.26-20.939-63.08-23.277-.77-8.25-.78-15.557-.84-23.848M911.015 936.733c4.944-.386 15.677 3.882 15.956 9.528.97 19.597-20.193 26.938-34.806 30.279-6.977-3.898-11.402-5.477-18.925-7.938-8.849-2.764-12.651-2.183-20.847-4.165-2.03-1.785-1.892-2.586-2.432-5.426 1.189-3.798 3.704-2.772 9.491-3.231 21.33-1.692 34.944-5.033 51.563-19.047m393.315 26.42c24.4-1.089 41.92 6.635 54.13 28.03-6.99.002-14.2.228-21.21.364-12.37.518-26.36.393-38.86.545-4.93-9.017-7.18-11.009-15.17-17.168 7.72-7.669 10.57-9.438 21.11-11.771m-485.696-3.954c2.359 1.835 2.521 2.219 3.75 4.961-.118 4.759-1.389 5.271-5.292 8.005-10.862 7.61-16.411 11.847-22.665 23.739l-46.677.365c-1.401.014-1.443-.2-2.858-.702-.576-4.824 8.421-18.734 11.364-23.784 25.198.89 39.906-.738 62.378-12.584m246.936 6.747c1.09.216 1.21.468 2.23 1.096 1.56 4.177 1.14 10.277 1.13 14.893-22.94 16.509-50.36 11.144-78.15 11.13.025-8.795.551-15.049 2.796-23.499q1.261.38 2.537.703c20.367 5.202 50.837 6.653 69.457-4.323M805.339 742.863l1.49.726c.814 3.964.243 13.233.112 17.66-3.487 2.139-7.947 4.54-11.618 6.363-20.389 10.126-40.29 23.444-60.635 33.321l-3.594-19.476c24.742-12.46 49.659-25.767 74.245-38.594m39.328 230.542c10.662-1.706 49.669 3.438 43.709 19.76-4.079 3.279-30.111 1.931-37.126 1.945l-48.353.865c11.098-17.128 22.429-20.591 41.77-22.57m-483.068-19.062c3.285-.022 4.803-.237 7.863 1.162-2.275 4.809-6.057 37.212-6.818 45.215l-25.894.34c-18.946 1.05-8.408-41.43 24.849-46.717m864.551-22.268c.81.457 1.6.939 2.38 1.446 12.34 8.016 19.22 16.193 22.34 30.499-9.69.146-17.82.873-27.18 3.396-3.77 1.015-9.34 3.445-12.74 3.774l-.96-1.768c-8.38-12.85-15.56-12.948-25.29-23.256-1.18-1.243-.77-1.599-.52-3.098 8.39-4.499 26.51 6.352 41.23-10.148zM540.145 704.401c2.906-.48 4.277-1.043 6.858.257 1.162 2.856-.79 7.853-1.703 11.119-33.512 1.919-72.478 6.586-106.06 9.839-3.074.54-3.576.856-6.319-.278-2.22-2.94-1.93-7.879-2.124-11.788 35.91-1.794 73.625-5.498 109.348-9.149m264.005 66.415 1.608.807c.99 4.807.435 12.523.273 17.65-21.654 10.477-44.377 26.017-66.801 37.276-1.148-5.154-2.189-12.302-3.114-17.647 22.395-12.849 45.467-25.455 68.034-38.086m695.71-26.262c5.63.762 7.02 1.539 12.23 3.991 6.62 16.713 12.49 35.595 18.82 52.83l-7.89 13.504-5.15 8.541c-5.84-16.059-13.51-32.88-18.92-48.891-1.2-3.558.59-24.806.91-29.975m-259.47 227.818c11.29-1.437 44.14 6.303 46.6 18.084-3.66 3.375-29.41 1.948-36.84 2.003-16.91.683-35.37.43-52.4.507 12.05-12.404 25.5-18.928 42.64-20.594M770.725 733.279c7.327-.667 25.759.828 33.708 1.249-16.341 9.687-36.101 19.318-53.168 28.416a1016 1016 0 0 1-21.665 11.107l-3.209-19.178c9.229-4.777 35.329-18.754 44.334-21.594m34.077 64.69.762.742c.873 4.23.062 11.948-.225 16.524-13.13 9.271-47.041 28.342-61.897 36.396a1196 1196 0 0 1-3.365-16.882zm-80.513 162.732c1.53.177 20.134 8.196 25.702 9.604-7.454 9.382-9.724 14.567-14.333 25.683l-11.158.123-27.261.093a69.46 69.46 0 0 1 27.05-35.503m-250.937-18.282c13.274 2.752 84.933 14.465 86.723 24.814-3.107 2.528-3.077 1.759-7.82 2.213-3.356.395-8.609 2.854-12.486 3.806-7.861 1.928-14.954 1.027-23.029.745-9.131-15.781-20.412-21.298-38.537-20.225zm434.385-28.666 1.183 1.371c.858 4.291 1.695 7.666-.582 11.681-4.755 8.384-19.539 15.439-28.353 17.524-20.909 4.947-45.715 5.738-64.688-5.078-2.325-2.402-4.161-5.663-4.128-9.074 4.154-1.8 15.504 3.823 20.708 4.583 30.135 4.401 54.982 1.916 75.86-21.007m74.799-14.799c5.136.64 15.948 1.61 20.144 3.453l.45 1.693c-7.004 19.712-47.73 21.005-65.329 18.681-5.416-.31-19.442-2.381-19.844-8.88 6.004-5.711 36.869 5.542 64.579-14.947M1491.18 680.15c11.94-.731 17.12 1.021 27.52 6.086-2.21 3.37-6.06 9.642-7.95 13.141-5.25 9.715-8.67 3.524-20.16 6.537l-.97.264c-5.02 2.323-8.43 4.935-12.9 8.104-3.65-2.354-7.3-4.965-10.87-7.449 5.88-15.641 7.96-23.085 25.33-26.683"/><path fill="#fefefe" d="M585.97 668.444c1.365-.338 2.483-.095 3.886.058-15.44 10.13-28.325 10.661-37.175 25.872-16.048 1.413-33.909 2.65-49.721 4.826l-3.119-.429-.058-.736c12.145-7.372 37.784-23.827 50.446-26.15 6.493-1.191 27.656-2.698 35.741-3.441M802.775 825.87l1.552.314c1.231 3.475.635 11.264.539 15.32a1432 1432 0 0 1-57.296 34.268l-2.832-16.077a3718 3718 0 0 0 58.037-33.825m268.145 115.234c5.98 7.117-6.23 17.889-13.44 20.059-24.62 7.4-53.27 6.272-76.515-4.797-.619-3.588-1.446-7.06 1.461-9.674 5.855.13 17.704 6.015 26.024 7.303 24.23 3.755 42.05 1.15 62.47-12.891m-99.995 7.345c3.062 11.279-3.583 3.341 6.712 15.38-4.278 12.673-37.452 10.235-48.886 10-3.046.196-3.211.72-5.421-.501 7.073-11.255 9.82-8.483 12.455-23.532 13.516.429 21.764.442 35.14-1.347m660.025-81.283a72 72 0 0 1 3.37-.273c4.11-.252 8.52-.463 11.73 2.389 1.06 7.595-11.62 14.545-15 22.769-3.38 8.21-1.33 15.527-2.92 22.405-27.37 8.973-22.83-34.964 2.82-47.29M542.455 773.48l1.931.425c2.589 4.267 4.947 11.883 6.671 16.81-16.225 2.004-32.538 3.154-48.728 5.61-3.236-.115-2.169.32-4.813-1.246-2.589-4.547-3.498-11.408-4.53-16.693 16.091-1.211 32.912-3.584 49.469-4.906m-2.502-26.001.467.219c2.132 3.045 2.352 12.939 2.801 17.47-17.077 2.057-34.592 3.594-51.799 5.577l-4.944-18.27c16.822-.955 36.496-3.353 53.475-4.996m437.994 134.424 1.583 1.135c.707 11.81-12.582 16.163-21.96 18.02-21.575 4.272-52.156 4.213-71.036-8.087-1.94-2.492-3.581-6.703-1.698-9.51 26.131 12.616 68.226 15.241 93.111-1.558m-175.146-29.934.727.739c1.033 3.694.62 11.335.571 15.462l-52.592 32.442-2.022-16.109c16.553-11.342 35.895-22.533 53.316-32.534M562.093 977.281c15.491-.596 9.481 12.516 6.526 21.107-11.594.919-30.446.563-42.579.697-3.099.124-5.458.614-7.981-.971-2.159-3.317-1.145-10.166-1.067-14.734 7.205.072 14.822 1.175 22.012 2.024 8.496-4.11 13.55-6.703 23.089-8.123M1574.54 966.73c15.39.012 28.54 2.162 43.76 3.935 4.04 4.384 7.07 5.033 9.67 9.009.58 2.834 1.06 4.009.3 6.828-14.73.669-30.9.467-45.75.532-5.32-8.221-9.42-11.544-7.98-20.304m-430.05-59.165c19.07 7.788 35.94 13.885 56.67 16.304 6.64.775 19.81-5.335 21.15-.455-1.79 2.679-3.46 4.136-5.73 6.374-19.74 11.353-58.5-3.718-77.53-12.605 1.43-2.866 3.8-6.741 5.44-9.618M676.387 712.479c1.816-.115 17.182 7.69 19.847 8.975-19.214 3.128-42.519 4.494-62.472 7.093l-17.553 2.036-1.498-12.933a2310 2310 0 0 1 61.676-5.171m764.783-.304c21.81-2.363 33.87 7.003 42.93 25.648-10.32 2.158-11.19 4.192-18.04-3.658-9.83-7.637-24.06-11.365-35.98-6.625l-5.9 2.28c-.69-3.424-1.63-7.032-2.46-10.45 7.73-3.926 11.32-4.963 19.45-7.195M802.067 878.091c2.02 3.165-.867 11.695 4.55 23.498-1.659 3.48-2.571 7.102-3.644 10.805-3.323-.845-10.345-1.831-11.843-3.825 1.803-1.501 2.591-2.237 4.152-3.987l-.421-1.142c-7.319-.62-14.341 5.542-25.572 5.825l-.526.01a369 369 0 0 0-19.174 2.547c16.584-12.126 34.846-23.203 52.478-33.731m603.593 89.169c3.78-.374 4.25-1.083 7.07.585-.77 8.114-10.05 8.416-14.41 21.955-9.98.737-19.42.91-29.39 1.103-2.39-1.165-6.91-11.606-9.44-15.693 14.93-2.849 30.95-5.168 46.17-7.95m-402.65-50.142.83 1.869c-.55 3.836-1.61 5.51-4.512 8.054-18.431 16.158-42.016 15.637-64.44 14.716-4.162-5.056-5.269-6.205-10.714-9.885-5.715-2.276-8.091-3.907-12.709-7.886 30.383 8.57 64.159 12.648 91.545-6.868M646.663 760.379c3.294-.484 2.547-.833 5.318.194 2.727 4.308 3.299 12.923 4.042 18.337-10.747 1.78-24.822 2.817-36.065 4.294l-8.901.999c2.199-7.923 3.41-12.227 4.379-20.35 10.168-.718 21.049-2.24 31.227-3.474M1064.7 877.943c10.3 1.599 4.83 2.799 1.61 10.832-3.58 8.954-4.28 15.401-4.21 24.78-15.24-3.193-26.21-1.181-40.89-5.575-4.08-.822-7.61-.967-10.14-3.822l.99-2.212c24.54-6.768 35.82 3.664 52.64-24.003"/><path fill="#fefefe" d="m1054.37 873.034 1.36.457c-4.09 24.104-50.39 19.043-67.549 17.388-.499-2.535-.96-10.591-1.21-13.56 23.939 5.324 44.689 4.897 67.399-4.285m553.84-275.377c4.59 7.962 15.02 34.977 18.79 44.206l-10.44 16.708-1.36 1.222c-1.67-1.3-13.13-41.032-15.29-47.091zM429.558 924.322c6.635.259 12.919 7.334 17.961 11.479 4.946 4.066 20.937 12.202 21.017 18.223-3.155 2.07-9.444 2.71-13.43 3.399-5.39-13.533-10.214-20.112-25.07-20.497l-1.025-.838c-.387-1.439-1.341-5.241-2.167-6.151-8.164-8.978-29.851 17.089-38.197 16.017l-1.225-1.641c-1.181-13.086 32.201-18.667 42.136-19.991m501.044 58.046c17.638-1.373 24.726-1.345 36.775 11.752-9.314-.067-17.899.248-27.21.654l-41.088.316c10.645-10.164 17.359-11.021 31.523-12.722m486.278-283.307c4.62-.662 11.49 3.844 15.78 6.172-15.43 5.572-23.07 10.055-33.98 22.149-6.33-2.61-14.5-4.959-13.03-12.802 5.2-7.053 22.69-12.648 31.23-15.519m-778.065 38.557c3.395-.521 6.859-1.504 9.816.078 2.801 2.859 2.847 10.485 3.369 14.906-7.014.458-15.082 1.533-22.164 2.324-3.896.752-9.003 1.064-13.06 1.424l.452-16.411c6.38-.981 15.009-1.631 21.587-2.321m788.305-60.948c13.47 2.809 35.35 9.135 32.25 27.034-2.86.406-17.26-.979-21.66-1.018-7.19-9.225-7.62-14.644-10.59-26.016m-762.294-30.669 1.363.22c-.468 2.406-4.713 6.619-6.635 8.854-15.783 4.382-51.391 26.73-62.689 27.66-2.047-1.639-2.157-1.734-3.564-3.922 2.616-4.474 62.382-29.228 71.525-32.812m-21.154 47.625c3.418-.434 5.75-1.069 8.949.094 1.592 2.186 6.786 8.068 7.308 9.513-2.692.795-28.332 2.912-33.381 3.453l-13.469 1.324c-.903-3.971-1.232-7.582-1.679-11.618a1834 1834 0 0 1 32.272-2.766m50.866 277.832 4.54-.159c.751 1.72-4.055 8.458-5.167 11.07-2 4.697-3.422 9.103-4.927 13.956-3.95.411-6.376.819-10.331.252l-.998-1.855c-2.379-11.432-2.601-10.874-9.59-20.402l.633-1.159c8.375-.853 17.39-1.218 25.84-1.703m691.902-240.99c4.01 1.66 4.22 1.03 6.47 4.035.41 4.648-3.19 11.844-5.02 17.027-8.79 1.141-17.62 2.831-26.63 3.971-2.77.307-3.16.527-5.56-.6-.33-2.49 2.72-7.185 4.11-9.731 14.61-1.543 19.61-.979 26.63-14.702m-665.693-4.523a1296 1296 0 0 1 35.702 5.083l-9.796 5.277c-7.552 4.084-13.537 7.048-21.376 10.545zm719.173 6.154c5.82-.375 19.13 2.769 20.92 9.173-3.83 1.835-16.34 2.712-21.3 3.228-6.95.714-14.51 1.911-21.49 2.887 7.49-9.039 10.7-11.988 21.87-15.288"/><path fill="#fefefe" d="M1373.43 717.143c10.61 8.595 11.81 15.359-1.28 21.335-4.42.563-5.81 1.257-9.11-.524-1.96-4.022.64-12.553 1.63-17.506zm-790.171 27.315c3.061-.333 2.242-.72 4.169.713 1.351 4.084.2 11.054-.234 15.588-4.199.307-8.881 1.019-13.102 1.569-1.763.037-2.196-.215-3.868-.721-1.729-3.891-.536-11.339-.19-15.908zm828.551-19.83c-1.35-.819 8.48 10.758 7.63 9.144a222 222 0 0 0-9.73 14.504l-2.81.581c-2.93.537-7.55 1.677-9.72.256.43-6.329 10.18-19.703 14.63-24.485M427.619 905.042c12.562 1.701 33.728 12.538 26.441 28.168-7.601-3.704-8.284-11.827-13.207-18.075-4.166-2.032-4.216-1.042-9.815-.046-1.743-1.627-2.692-7.249-3.419-10.047M1311.2 725.306c.85.375 2.62 1.064 2.88 1.99 1.94 6.981 3.65 24.206 2.64 30.697l-1.42 1.029-4.69-2.383c-3.8-5.87-3.86-20.372-3.06-27.351.28-2.482 1.3-2.455 3.65-3.982m-731.218 44.049c3.114-.483 3.859-.888 6.539.4 2.01 3.662-.157 10.96-1.03 15.542-1.575 1.358-5.055 3.592-6.904 4.864-3.267-4.564-7.884-12.41-7.064-18.024 2.654-2.978 3.322-2.109 8.459-2.782m70.442-100.327.831.506q-1.319 6.645-2.57 13.302a1068 1068 0 0 1-29.271 3.293l-.595-1.026c3.116-2.316 26.308-13.279 31.605-16.075m845.586 40.901c2.29-.093 2.23-.004 4.43.837l.43 2.038c-1.98 6.302-7.69 13.143-11.74 18.644-2.63-5.976-7.41-8.886-5.76-15.435 2.81-3.007 8.59-4.603 12.64-6.084m-57.5 262.811c4.56.26 9.84.963 14.44 1.458-6.48 5.337-8.71 7.109-11.8 14.85l-15.27.142a492 492 0 0 1 12.63-16.45m-301.83-46.291c7.78 1.555 24.64 9.055 33.02 11.653 3.59 1.113 3.6 1.732 4.6 4.284-4.76.255-17.57-4.056-31.72-3.401-1.98-5.802-2.59-7.413-5.9-12.536M585.457 721.331l1.711.574c1.201 3.053.881 8.346.886 11.832-4.248.843-9.46 1.422-13.819 2.024-1.661.111-1.17.045-2.868-.518-.891-3.37.836-8.417 1.754-11.966zM1637.14 974.35c3.39-.344 6.56-1.002 9.66.405 2.97 2.337 3.92 7.306 5.06 11.095-11.18.405-14.43.787-14.72-11.5m-296.88-237.682c4.88.03 7.16-.32 10.6 2.928 1.08 3.476-.74 7.549-1.9 11.199-1.41 1.252-1.13.842-3.53.981-5.26-3.253-6.12-9.5-5.17-15.108M824.65 953.423c4.122.641 9.96 1.127 13.281 3.302 2.58 3.964 1.78 3.451 2.094 8.802l-9.666 1.244zm865.23 20.992c3.46.909 8.84 1.766 10.91 4.307-.14 3.585-.63 3.07-3.32 6.471l-13.18-.042zm-706.579-3.589c.976 3.472-1.035 14.47-1.632 18.731l-6.536-5.379-7.398-4.162c6.356-2.614 10.311-4.804 15.566-9.19m-571.417-65.472c5.547 1.892 9.501 4.96 9.559 11.128l-2.709 2.057c-8.045-1.36-13.169-5.689-6.85-13.185m875.946-176.705c2.08.199 4.94-.004 5.89 1.489 3.08 4.861 2.16 15.664 1.96 21.18-4.47-3.902-6.62-16.584-7.85-22.669m157.62 162.135c1.71 2.719 3.57 7.155 2.64 10.322-2.91 2.633-3.13 1.862-7.84 2.449l-1.35.091-.43-1.235c2.16-5.179 3.65-7.028 6.98-11.627m19.31 82.908c1.74.042 3.5.288 5.24.486l1.48 2.018c.61 3.392-.68 7.442-1.49 10.881-6.31-6.144-7.38-5.319-5.23-13.385m-137.97-249.708c2.45-.182 4.17-.631 6.19.588.98 3.611-1.68 8.444-3.22 12.432-.62 1.693-.84 1.841-1.9 3.244-1.49-3.197-1.05-12.23-1.07-16.264"/></svg>