<svg xmlns="http://www.w3.org/2000/svg" preserveAspectRatio="xMidYMid meet" viewBox="0 0 2048 1462"><path d="M420.531 0H1682.86q.09 1.74.09 3.484c0 4.614-.89 10.574-1.4 15.302-7.1 65.317-15.04 130.97-28.1 195.379-1.9 9.394-2.38 19.93-4.03 29.549a1570 1570 0 0 1-25.27 118.317c-6.13 24.614-17.69 75.12-35.39 92.48-3.95-.254-5.01-.447-8.78.57l.34.534c14.81.27 26.24.754 40.94-.897 5.85 7.04 19.15 32.822 24.36 42.297a7358 7358 0 0 1 53.93 99.406 22860 22860 0 0 0 155.95 281.406c6.22 11.158 50.28 85.479 50.26 92.302-.01 2.609-1.02 4.469-3.1 6.013-2.2 1.623-4.5 1.772-7.1 1.444-7.25-3.193-27.66-43.578-32.75-52.497a3835 3835 0 0 1-53.29-94.327c-31.8-58.093-65.33-116.57-96.76-174.677l-67.07-123.987c-8.97-16.3-23.34-44.008-33.16-58.796l-.77-1.149-37.12 1.078c-1.42 7.155-6.31 29.962-10.54 34.939-2.56 3.009-7.93.08-8.92 3.367-3 9.874-4.22 30.037-6.11 41.146-5.79 33.994-25.93 145.664-51.96 165.655-3.07 2.351-6.65 4.122-10.61 3.397-6.44-1.178-9.81-6.726-13.06-11.785-3.1 16.847-10.35 44.753-23.95 56.26-6.49 5.486-11.07 4.7-18.73 3.81-13.19-12.046-11.52-19.301-12.33-36.89-5.79 16.084-17.47 54.83-42.87 36.703-6.96-4.975-7.62-17.773-8.37-25.852-5.06 11.303-13.8 32.693-30.39 29.484-12.62-2.441-12.7-23.915-13.09-34.053-1.55-40.507 10.87-78.043 20.67-116.678-11.28 13.834-26.7 30.935-42.72 38.994-7.35 3.694-20.87-.497-21.09-9.075-1.23-48.373 44.75-94.036 68.48-133.734 9.66-16.155 19.74-30.911 29.24-46.153-86.04-.627-172.08-.8-258.11-.519-11.77 16.41-12.56 21.618-28.25 6.144-6.98 10.966-12.21 22.275-18.95 33.526 10.35 11.487 31.52 32.398 25.3 50.884-3.72 11.075-18.95 9.947-27.57 13.453-3.24 5.125 3.81 18.625-5.83 25.45-9.3 6.584-18.14 5.621-28.38 5.106-5.09 30.907-21.95 21.585-40.993 25.363-3.257.647-1.693 11.648-7.995 15.801-12.326 8.124-30.479 3.551-43.681 1.449-10.201 19.453-42.484 64.158-65.481 29.217-1.504-2.285-2.761-7.717-3.482-10.525-9.476 8.138-12.624 11.372-24.808 13.644-15.042-3.951-24.887-10.126-24.396-27.557-2.128 2.308-4.849 5.605-7.274 7.469-17.682 13.587-41.274 7.772-44.729-16.093-8.641.56-16.327 1.556-24.3-2.442-17.13-8.589-15.421-25.733-7.538-39.81-15.601-14.701-43.792-51.902-57.294-69.36-17.412 7.933-20.149-8.545-33.611-21.679-9.352 6.338-14.654 5.721-24.196.056-18.472-10.967-36.357-24.465-51.778-39.416-28.914-1.245-63.743-.432-92.945-.357q-68.355.504-136.703-.597c-8.202 18.922-16.489 44.137-23.639 63.956l-32.123 87.041-113.568 310.223a6141 6141 0 0 0-28.095 77.487c-3.025 8.46-11.173 37.27-18.99 44.07-1.624 1.41-4.254.57-6.297-.06-9.149-8.65 1.117-25.21 4.68-35.27l29.994-82.897 90.14-245.333 55.545-153.153c5.357-14.824 24.833-71.133 31.739-81.463 7.767-2.693 68.229-1.634 80.006-1.643q35.875-.087 71.745-.712c-.734-9.819-.017-77.273 2.686-82.748 4.652 2.762 17.549 17.115 22.184 21.682 23.863 23.518 63.888 71.1 91.207 87.403l1.182.697c-17.608-17.592-34.47-35.848-51.811-53.696-23.969-24.671-48.927-49.696-71.025-76.051-13.953-16.641-26.776-34.204-39.52-51.774-10.989-15.15-35.796-50.799-40.511-67.96C391.276 197.013 413.884 41.432 420.531 0"/><path fill="#fefefe" d="M757.813 0h76.14c-.941 25.93-4.857 54.244-7.404 80.203-5.169 52.684-12.658 104.195-23.617 156.045-7.639 36.141-17.628 72.023-24.529 108.333-1.116 5.872-1.565 8.207 1.989 12.868-6.846-.52-37.37-22.273-44.077-28.239 4.82 1.822 8.773 3.481 13.45 5.709 5.306 2.527 15.003 10.139 20.541 6.799 1.24-5.523-2.397-10.07-5.289-14.465-.802-23.777.294-48.918-.237-72.912z"/><path fill="#fefefe" d="M688.415 0h57.98c3.46 14.997 3.451 57.477 4.102 74.69a4701 4701 0 0 1 3.193 139.234c.287 28.7 1.082 51.525-.096 80.619-10.789-39.493-17.809-73.334-26.514-113.224a5739 5739 0 0 1-18.785-85.812C701.946 64.503 696.303 30.282 688.415 0m447.605 0h95.53c-16.69 17.704-33.03 42.107-49.23 60.73-6.05 6.956-13.03 18.938-19.62 24.579-4.06-2.859-23.11-74.268-26.68-85.309M780.392 357.449l.802.328c10.677 4.455 40.221 21.039 49.278 20.794 7.346-3.57 8.643-18.513 24.441-18.383l1.14 1.119c-1.733 2.455-1.755 2.405-4.142 4.286-8.185 7.244-12.645 13.664-18.999 22.538l-1.219-.585c-13.646-6.445-34.807-10.685-45.938-16.542-.034-8.439 2.844-5.249-5.363-13.555m-4.076 22.672c15.497 4.495 36.517 9.877 51.051 15.688-7.684 11.998-58.177 66.565-40.141 76.401 34.126 18.611 73.859-14.187 95.321-39.579 47.779 9.735 90.777 20.721 132.413 49.017 11.41 7.754 87.88 57.667 69.85 79.667-17.25 12.975-40.43-14.368-52.01-20.864-9.96-5.592-40.428-31.669-47.516-23.676-.177 1.969-.576 4.313 1.095 5.872 4.624 4.314 12.4 7.982 17.801 11.373 14.15 8.873 47.6 29.512 54.76 43.904 1.7 3.41 2.63 7.098 1.19 10.773-1.45 3.691-5.34 6.469-8.85 8.008-18.89 8.289-72.929-40.378-94.658-47.393-2.978-.962-4.931.689-7.477 2.01 2.637 14.763 66.565 36.777 74.755 54.326 1.1 2.35 1.42 5.031.45 7.478-1.92 4.822-6.61 6.588-10.98 8.595-24.794-.469-52.585-22.319-75.808-30.841-5.681-2.084-15.995-9.132-21.366-5.289-.439 2.943-.442 6.499 2.518 7.928 17.953 8.665 36.682 16.218 54.086 26.045 5.481 3.095 10.896 7.742 11.083 14.409-4.385 14.655-32.317 7.324-42.239 3.151-2.839-1.194-4.13-9.445-13.354-11.678-12.65-3.063-17.521-.464-28.59 5.188-.524-6.759-.395-13.274-5.727-18.111-14.226-12.905-31.114-3.514-42.264 6.823.182-10.738-3.009-22.53-15.139-25.284-12.307-2.794-21.624 3.526-31.752 9.449-9.852-33.094-33.438-24.771-53.649-7.261-8.515-7.525-56.542-65.601-61.626-76.357 10.03-14.384 17.881-30.365 26.65-45.226 16.522-28.002 38.967-69.749 60.123-94.546m615.574 91.719c39.78 1.943 116.16 19.782 152.97 35.204-4.28 28.508-28.9 196.51-57.56 203.716-20.79-12.588 14.87-97.893 5.94-116.37-2.78-1.632-1.31-1.365-4.59-.669-5.37 3.769-7.46 32.028-9.14 40.122-7.81 37.523-12.14 77.209-28 112.429-11.42 22.915-22.17 16.253-22.71-6.945-1.15-49.27 17.82-95.624 23.28-143.857.27-2.455-1.13-4.137-2.83-5.583l-2.16.436c-.66.55-1.45 1.219-2.39 2.005-9.65 33.183-18.07 83.714-28.48 114.809-4.59 13.751-14.37 44.32-24.16 54.968-1.36.876-2.49 1.88-4.13 1.54-11.08-2.29-10.17-18.157-10.3-26.177-.35-21.015 3.91-40.906 9.43-60.999 7.5-27.32 15.33-54.391 21.85-81.945.58-2.48-.4-3.884-1.76-5.681-3.67-.867-2.31-1.046-5.68.068-3 4.575-9.49 30.162-11.38 36.642-11.95 40.988-19.98 84.537-36.65 123.816-1.7 3.604-5.46 11.013-9.56 12.048-11.7 2.954-10.32-15.945-10.27-22.869.31-43.63 14.3-85.253 25.16-127.034 1.77-6.829 6.07-12.892 5.1-19.957-1.85-2.728-.79-1.884-4.35-2.869l-2.75 1.027c-10.85 14.819-25.27 33.246-38.24 45.573-7.65 7.265-17.15 18.989-25.63 16.315-18.47-20.19 85.41-153.819 98.49-178.793zm58.7-401.047.8.875c1.08 6.291-7.82 47.953-9.63 56.802-9.65 47.136-20.01 94.115-32.23 140.655-7.44 28.358-15.71 55.963-21.01 84.843-1.9 9.463-4.73 18.707-6.03 28.287-1.7 12.502 6.91 13.302 16.62 14.217-4.65 18.895-11.62 40.114-16.87 59.432-37.88-.057-75.88-.21-113.75-.01-24.2.128-50.2 2.271-74.45-.001.1-6.578.37-38.918-6.08-40.145-3.81 3.078-7.89 10.199-10.73 14.57l-1.58 2.113c-4.68 6.185-17.82 26.012-27.13 18.22-3.5-2.93-3.77-8.325.1-11.663l1.72.25c1.28 2.867 1.57 4.235 3.91 6.175 4.76-.472 7.37-6.143 10.3-9.395 30.2-32.089 56.22-68.01 84.99-101.04 24.12-27.694 43.71-54.282 65.8-83.289z"/><path fill="#fefefe" d="M960.543 356.404c1.474-.24 7.381-.366 9.205-.449 31.862 17.696 90.802 81.355 115.242 110.221-3.45 8.671-15.28 29.881-20.25 39.471a319.6 319.6 0 0 0-134.509-73.887c-13.139-3.548-27.794-6.444-41.186-9.354 1.334-4.409 4.029-12.241-.939-14.714-6.957 1.553-14.989 20.584-21.297 27.042-12.481 12.775-25.586 24.006-43.292 28.991-6.595 1.857-25.27 5.934-29.391-1.237 2.941-8.92 23.465-33.898 29.261-41.826 7.673-10.493 31.401-47.734 41.194-51.193 24.503-8.655 70.482-10.677 95.962-13.065m452.067 34.403c8.99 1.175 17.59 1.709 26.88 3.124 51.77 7.884 86.8 25.436 130.36 52.63-1.65 8.603-10.53 44.367-13.22 50.916-2.41.755-4.85-.441-7.35-1.266-25.04-5.2-55.76-16.984-82.67-23.249a551 551 0 0 0-42.93-8.083c-9.13-1.377-21.25-2.599-29.78-4.932-1.24-6.06 15.21-60.975 18.71-69.14M724.946 337.63c8.2 3.717 39.371 23.594 49.332 29.501-35.994 41.025-67.06 98.965-93.106 147.278-1.808 2.92-2.231 3.444-4.714 5.816-6.44-3.573-31.346-27.581-38.562-33.84 19.914-62.199 40.98-102.821 87.05-148.755m295.744-23.127c48.95 18.816 92.28 69.582 123.01 110.226-5.1 8.326-11.77 15.074-17.77 22.757-6.14 7.868-12.18 15.874-18.21 23.829l-1.66 2.082c-3.63-1.248-23.62-27.147-28.26-32.444-27.67-31.573-57.29-59.761-89.954-86.078 9.05-10.128 24.984-29.653 32.844-40.372m-33.852-230.19 2.924 1.075c4.178 3.67 14.788 51.153 16.718 60.907 4.75 24.083 12.84 49.712 20.98 73.153 3 8.637 3.53 24.608 4.8 33.343-9.06 15.637-19.51 30.394-28.62 45.977-2.06 3.514-3.52 6.243-1.34 9.845 2.54 1.139 4.12 1.514 5.69 3.797-1.07 3.966-2.15 4.073-5.28 7.253-5.721 6.378-15.385 23.228-23.611 24.28l-.7-1.29c2.193-18.004 5.379-35.77 7.054-53.855 3.768-40.68 4.349-82.504 3.851-123.33-.145-11.893-4.266-75.6-2.466-81.155M589.997 39.369c.974.453 2.146.939 2.981 1.615 8.594 6.96-2.871 95.639-2.165 112.505 52.939 52.562 104.902 109.317 157.321 162.606 2.826 2.873 4.33 3.475 4.753 7.799-8.861.004-48.411-42.543-55.542-49.833-8.634-10-19.909-21.112-29.133-30.976a4350 4350 0 0 0-82.655-85.905c-18.168 16.774-44.745 34.888-69.811 22.66-6.03-12.492-4.177-22.017 8.965-29.015 18.938-10.084 39.257-8.545 59.312-2.635 1.902-33.632 4.072-68.305 1.111-101.674-.239-2.7 2.956-5.285 4.863-7.147"/><path d="M553.358 151.38c7.967-.518 16.401 1.093 24.259 2.449-10.984 10.51-22.097 15.871-36.042 21.005-35.955 5.755-23.202-21.449 11.783-23.454"/><path fill="#fefefe" d="M1078.76 166.184c4.5.383 14.37-.638 16.56 3.168-18.8 24.98-34.07 42.673-51.51 69.064-1.35 2.389-1.49 3.008-3.85 4.506-1.49-2.36-.77-11.626-1.66-16.162-2.18-11.062-4.12-16.949-8.81-27.004 8.98-21.014 27.28-30.701 49.27-33.572"/><path d="M1076.44 174.17c4.27-.329 3.01-.848 6.11 1.082l.47 2.423c-2.18 5.569-29.31 29.425-35.74 34.887-4.6.899-6.63.325-9.32-3.431-1.33-18.113 23.1-31.754 38.48-34.961"/><path fill="#fefefe" d="M825.614 603.949c37.852-1.745-6.246 51.215-26.004 54.71-13.006-2.555-15.34-7.89-15.649-20.015 8.031-10.492 30.553-27.054 41.653-34.695m52.324 12.254c27.57 1.568 2.801 33.539-7.293 41.453-8.505 6.668-8.065 11.01-20.313 13.64-37.27-11.972 13.133-52.166 27.606-55.093m-96.232-25.234c20.599 6.562 11.073 23.666.027 33.741-8.873 8.095-9.952 11.398-22.443 11.55a63 63 0 0 1-3.435-1.501c-28.643-13.695 10.315-39.214 25.851-43.79m133.352 43.134c7.033.006 19.227 1.587 17.448 11.741-2.477 14.13-18.39 26.24-29.199 34.698-11.534 1.262-19.044-5.95-16.852-17.663 1.793-9.579 20.167-23.451 28.603-28.776"/><path d="M1443.56 788.332c10.98-1.543 30.8 17.967 40.84 24.917a4141 4141 0 0 1 87.29 61.145c22.71 16.536 44.89 33.973 67.59 50.553 61.98 45.254 126.85 86.253 188.6 131.863 13.92 10.59 29.07 20.24 42.74 31.11 17.4 13.84 34.09 27.01 53.2 38.47 1.98 1.19 3.51 3.45 4.33 5.64-.12 1.39-.01 3.03-.71 4.26-4.66 8.17-106.34 37.71-123.64 43.31-21.29 6.9-42.39 14.77-63.86 21.08-25.43 7.47-51.18 14.78-76.78 21.65-16.65 4.47-33.42 8.29-49.92 13.33-40.01 12.23-79.16 27.26-119.2 39.22-21.61 7.24-141.6 44.8-156.49 43.09-7.55-8.4-21.56-33.62-27.89-44.18a3139 3139 0 0 0-44.88-72.82c-56.8-89.52-117.75-178.54-172.73-269.293l-25.01-41.436c-4.56-7.584-12.54-20.05-15.43-27.949l.92-1.578c12.03-8.882 139.28-34.827 160.06-37.847 22.13-3.215 67.72-8.332 93.04-11.927 44.92-6.38 93.62-16.932 137.93-22.608"/><path fill="#fefefe" d="M1434.67 807.311c6.13-1.157 8.41-.18 13.45 3.491 59.39 43.319 115.88 90.412 175.32 133.689 43.09 31.274 87.77 60.359 131.36 90.899 37.69 26.41 73.89 54.74 110.63 82.34-7.35 2.35-19.48 7.88-27.15 11.02a489 489 0 0 1-41.72 15.05c-41.26 12.86-86.07 23.81-127.74 35.5l-195.19 56.63c-23.25 7.52-45.17 16.57-68.29 24.17-15.21 5.01-29.78 9.63-44.51 16.09-6.52-6.74-23.99-32.44-29.54-40.46l-56.18-82.22a6714 6714 0 0 1-146.18-218.408c-14.01-21.426-33.5-45.489-45.65-66.469 61.18-18.309 139.92-26.647 203.4-35.533 49.69-6.958 98.75-17.24 147.99-25.789"/><path d="M1466.3 952.069c10.32-1.195 11.71 2.23 16.95 10.215.53 20.293-6.65 51.716-10.08 72.116-6.01 36.78-12.53 73.48-19.54 110.08-5.92 30.44-12.3 58.69-17.53 89.55-10.81 11.93-21.69 28.97-38.69 17.08-5.12-9.83-5.07-12.08-5.85-23.41-4.17-2.12-10.36-5.57-9.35-11.23 4.45-25.1 9.03-50.3 13.57-75.4.61-3.37 1.45-3.9 3.74-5.96 6.7-1.4 9.36 2.32 12.1 7.84 5.6-2.31 33.53-170.017 54.68-190.881"/><path fill="#fefefe" d="M1467.63 979.741c.85 9.959-7.83 49.099-10.36 62.309-10.67 55.65-20.5 114.78-33.83 169.73-3.08-.99-6.77-2.49-9.86-3.64-.63-.37-1.83-1.12-1.73-1.7 6.52-35.49 18.09-71.32 26.12-106.77 9.31-41.09 16.4-79.71 29.66-119.929m-59.58 242.069c5.53 1.87 9.93 3.85 15.27 6.23-2.52 2.98-5.79 6.21-8.52 9.06-3.23 2.63-2.63 3.01-6.04 3.35l-1.9-1.62c-2.28-6.25-.73-10.96 1.19-17.02"/><path d="M1434.39 859.26c13.44-3.399 20.81 14.172 1.18 17.811-20.16 3.737-40.6 6.658-60.75 10.401a13525 13525 0 0 0-165.48 31.318c-5.92.887-11.61-.688-13.98-6.742.26-6.032 11.06-10.332 16.09-11.39 73.97-15.545 148.64-27.69 222.94-41.398m240.87 163.9c5.24-.64 9.77-.08 12.04 5.59 2.57 6.42-4.1 9.95-9.22 11.78-14.78 5.31-30.2 8.91-45.28 13.46-46.73 13.95-93.7 27.07-140.89 39.37-5.48.63-11.05 1.89-13.64-5.12-1.1-3-.59-4.9.84-7.68 9.89-6.54 84.04-25.15 100.71-29.75 29.2-8.06 66.72-20.87 95.44-27.65m-273.25-127.821c8.66-1.392 16.32 1.252 13.58 11.552-2.01 2.424-2.07 2.961-5.61 3.829-16.35 4.011-33.71 6.148-50.22 9.37l-123.74 23.835c-8.49 1.24-17.59 1.245-15.99-10.564 6.36-8.899 61.31-15.727 74.45-18.537 35.33-7.556 71.89-13.48 107.53-19.485m240.36 104.861c16.87-1.808 17.77 13.97 4.19 17.62-50.23 13.54-103.08 22.57-153.31 35.61-13.58 3.99-19.91-13.83-3.39-17.4 51.1-11.07 101.7-23.48 152.51-35.83m-34.74-26.906c13.57-1.158 16.94 12.93 6.18 16.263-12.07 3.736-26.28 6.428-38.71 9.195l-74.19 16.388c-2.63-.01-8.79.05-11.14-1.52-6.4-3.89-4.58-12.39 2.33-14.575 21.21-6.707 44.09-10.502 65.81-15.161 16.68-3.575 33.02-8.224 49.72-10.59m-227.36-20.053c6.5-1.055 12.02-.668 15.31 5.711-.02 6.488-2.25 9.658-8.6 10.935-11.53 2.322-23.16 4.14-34.75 6.242-25.41 4.413-50.75 9.3-75.99 14.658-7.29 1.789-16.59.791-14.95-9.036 7.05-9.518 35.71-12.858 48.01-15.224 23.63-4.547 47.29-8.976 70.97-13.286m349.12 107.939c1.28 0 2.88.58 3.98 1.2a8.7 8.7 0 0 1 4.06 5.22c.68 2.41.27 5.14-1.17 7.19-5.03 7.12-94.9 30.83-107.15 32.89-4.62-.6-9.76-2.44-11.95-6.71 1.43-9.28 21.76-14.19 29.54-16.33 27.35-7.54 55.09-17.03 82.69-23.46m-151.22-116.95c16.36-1.29 12.93 15.75-.6 18.91-25.77 6.015-52.18 11.36-78.29 15.47-8.21-.122-13.14-6-8.81-13.47 4-3.428 76.11-18.298 87.7-20.91M1408.6 1097.1c2.73-.27 3.28.07 5.82.9 18.41 16.35-37.39 23.49-45.18 25.24-5.13.04-6.18-.7-10.22-3.94-1.54-3.39-1.42-1.85-.41-5.49 7.21-9 37-13.28 49.99-16.71M639.281 796.066c24.279-1.641 62.009 8.582 87.557 11.285 76.421 8.086 152.685 16.611 228.253 30.817 18.012 3.387 36.455 8.687 54.539 13.514 5.02 1.34 24.93 4.346 28.4 10.462.98 10.002-24.99 47.734-29.51 55.802-8.4 14.99-14.798 26.902-22.784 39.52-48.533 76.674-98.116 152.624-147.038 229.004a3809 3809 0 0 0-45.053 71.38c-11.552 18.83-24.387 43.57-38.912 59.41-3.427 3.74-51.102-12.89-57.712-14.98a8663 8663 0 0 0-87.623-27.35l-81.054-24.14c-17.364-5.26-35.262-11.32-52.534-16.29a11600 11600 0 0 1-149.801-42.82c-14.791-4.47-29.307-9.84-44.072-14.42-29.774-9.25-60.229-17.02-89.648-27.29-6.69-2.34-21.165-6.38-25.326-11.8-1.001-1.3-1.18-3.62-.846-5.23 1.817-8.71 250.472-182.035 277.427-201.461 28.658-20.654 56.087-42.863 85.117-63.024a2901 2901 0 0 1 110.62-72.389"/><path fill="#fefefe" d="M640.287 813.706c19.58.286 49.617 8.475 70.175 10.489 17.785 1.742 35.743 3.414 53.488 5.461a4930 4930 0 0 1 115.846 14.996c36.63 5.011 92.808 13.751 128.154 24.674-10.897 16.384-21.177 34.082-32.091 50.69A7690 7690 0 0 1 824.5 1146.1a2407 2407 0 0 1-71.309 99.38c-6.836 9.02-13.625 19.79-20.736 28.04-32.616-12.8-70.141-24.22-103.703-35.05-78.949-27.97-160.587-45.84-240.876-69.17-23.159-6.73-46.625-12.71-69.88-19.14a616 616 0 0 1-49.105-15.74c-12.979-4.76-31.895-12.59-44.711-15.1 40.165-29.57 80.42-59.12 120.639-88.62 31.778-23.31 66.539-43.604 98.682-66.431 38.701-27.484 75.792-57.181 113.653-85.783 28.02-21.153 56.647-41.743 83.133-64.78"/><path d="M411.156 1024.76c13.63-.42 106.408 26.27 125.696 31.36 35.848 9.34 71.81 18.25 107.877 26.72 8.691 2.12 60.987 12.99 65.225 17.28 1.639 1.67 2.778 3.59 2.776 5.95-.004 3.8-3.358 6.59-5.842 9.06-16.314-.1-52.496-13.13-69.968-16.3-18.849-3.42-41.484-9.34-60.241-13.99a3544 3544 0 0 1-91.771-24.36 3969 3969 0 0 0-50.361-13.13c-8.425-2.09-31.904-3.71-29.114-16.25.726-3.25 3.096-4.54 5.723-6.34M442.97 1000c9.421.49 46.213 9.85 57.376 12.04 56.994 11.2 114.368 24.34 170.689 38.55 20.297 5.12 41.267 9.33 61.634 14.28 2.556.76 6.03 1.74 7.79 3.84 5.203 6.22.985 10.4-3.768 14.59-4.443-.24-18.895-4.29-24.145-5.49l-58.533-13.32c-51.514-12.09-102.487-23.17-154.509-34.28-19.544-5.5-43.029-7-61.2-15.15-6.101-2.74 1.547-12.34 4.666-15.06m35.521-27.01c6.837-.118 22.235 3.464 29.534 4.705a3485 3485 0 0 1 98.734 18.645c53.045 10.36 106.882 17.54 159.429 30.82 13.12 3.32 14.301 10.54 4.009 18.75-7.679.76-36.828-7.75-46.003-9.56-78.681-15.58-157.825-29.26-236.781-43.428-11.53-2.07-21.757-9.846-8.922-19.932M652.44 862.269c12.633-.142 25.885 1.506 38.448 2.868 23.88 2.591 199.349 28.625 208.038 40.372 1.258 1.7 1.724 3.584 1.377 5.676-.622 3.747-2.673 5.399-5.696 7.402-15.498-1.831-30.401-5.636-45.959-8.622-60.759-11.733-121.609-22.746-183.164-29.454-5.336-.582-18.342-1.222-18.788-8.728-.27-4.547 2.397-6.886 5.744-9.514m32.718 32.842c17.638 1.661 180.166 26.093 186.836 35.485 1.301 1.83 1.536 3.33 1.144 5.473-.693 3.788-3.534 5.588-6.5 7.593l-2.375-.156c-20.16-3.156-40.007-8.384-60.239-11.809-37.173-6.294-74.547-11.562-111.529-18.761-3.43-.995-9.85-1.516-12.005-4.684-3.79-5.573-.266-10.091 4.668-13.141m-172.191 49.688c14.596.936 125.825 16.55 131.915 23.124 1.578 1.703 2.058 3.905 1.683 6.12-.673 3.975-3.587 6.511-6.597 8.831-24.032-3.055-49.856-8.822-74.206-12.226-16.936-3.01-34.257-5.018-51.113-8.384-8.344-1.666-9.427-12.59-1.682-17.465M359.763 1060.82c29.415 3.73 82.166 25.07 111.351 34.28 5.793 1.82.601 10.9-2.645 14.02-6.303 1.29-103.062-27.52-111.751-33.15-4.195-6.33-2.025-10.15 3.045-15.15m348.559-104.97c9.313-1.177 98.974 14.901 113.406 21.575.909.421 3.038 3.552 3 5.294-.088 4.009-1.756 5.9-4.262 8.793-5.771 1.235-111.015-19.41-113.052-20.808-2.382-1.634-3.154-3.56-3.71-6.276.487-4.093 2.045-5.454 4.618-8.578"/></svg>