<svg xmlns="http://www.w3.org/2000/svg" preserveAspectRatio="xMidYMid meet" viewBox="0 0 2048 2048"><path d="M983.236 149.615C1474.53 126.751 1891.3 506.576 1914.01 997.88c22.71 491.3-357.25 907.95-848.56 930.5-491.093 22.54-907.512-357.21-930.208-848.29-22.697-491.081 356.919-907.621 847.994-930.475"/><path fill="#fefefe" d="M1006.51 171.571c479.55-9.936 876.22 371.062 885.61 850.629 9.38 479.57-372.07 875.8-851.65 884.64-478.8 8.83-874.251-371.88-883.623-850.67-9.373-478.794 370.875-874.679 849.663-884.599"/><path d="M995.434 217.028c449.426-16.65 827.236 334.234 843.796 783.662 16.55 449.43-334.41 827.17-783.84 843.64-449.303 16.46-826.907-334.38-843.461-783.68-16.555-449.302 334.207-826.976 783.505-843.622"/><path fill="#fefefe" d="M996.691 267.43c16.089-1.632 51.339 0 67.799.825 99.44 4.982 213.39 33.706 302.63 78.616a320.5 320.5 0 0 0-82.7-8.787 344 344 0 0 0-86.62 13.762c-41.55 12.358-80.99 31.76-119.35 51.764-69.54 36.272-141.392 78.629-195.619 136.012-23.071 24.414-40.1 44.469-42.249 78.962-2.251 36.129 3.521 68.21 15.54 102.465 2.315 6.6 10.204 19.778 11.088 25.075 1.454 8.707 1.505 22.992 1.788 32.245a741 741 0 0 0 2.68 48.768c2.459 26.335 7.988 49.46 11.006 74.821 1.872 25.333-5.607 50.875-8.509 75.847-5.034 43.325-6.906 87.065-8.652 130.615-.003 5.53 2.314 14.72 6.916 18.23 9.305 7.09 31.147.34 42.463-.88 25.229 20.43 1.713 40.21 38.439 61.51-1.958 41.65 10.758 26.84 25.965 53.84 16.209 28.79 15.519 74.68 55.504 87.25 46.57 14.64 94.51-3.65 136.36-22.66 17.44 26.39 40.09 76.85 51.82 106.1-14.03 6.5-25.03 12.85-37.46 22.26a164.2 164.2 0 0 0-36.8 38.39c-59.04 84.45-86.56 251.9-100.52 354.49-33.45.12-64.081.34-97.602-3.18a802 802 0 0 1-316.674-102.22c-16.503-9.69-37.389-22.43-52.446-34.21 12.631-9.82 22.083-20.24 33.486-31.28a203.7 203.7 0 0 1 58.903-40.43 1150 1150 0 0 0-17.888 28.73c5.467-5.32 29.518-30.87 33.304-32.85 16.149-8.42 52.683-15.61 71.013-19.52a602 602 0 0 0-65.305 109.32c-4.948 10.81-9.16 20.18-13.427 31.3 8.636-12.93 17.403-30.08 25.406-43.82a787 787 0 0 1 45.226-70.27c5.729-7.97 16.695-23.08 23.724-29.37 13.703-3.8 32.195-7.45 46.255-10.07-22.369 40.99-46.119 120.33-48.879 167.57 4.702-16.08 7.917-33.26 12.708-49.39 12.071-40.64 27.197-83.56 47.293-120.89 10.539-2.6 21.446-4.72 32.094-6.92-12.006 43.79-17.969 111.18-11.754 156.23 2.027-29.23 2.067-57.66 6.116-87.17 3.459-25.22 8.784-47.28 15.331-71.86l15.986-3.79c-.574 20.56-1.637 34.06 3.826 54.12.686-23.52.031-31.85 3.381-56.03 31.511-9.81 72.244-29.05 76.271-66.55 2.552-23.77-24.893-40.31-41.356-53.83-47.959-39.37-98.981-73.56-153.818-102.54-38.501-20.34-45.626-23.08-88.423-24.55-19.001-36.73-48.473-83.9-97.455-75.18-11.996 2.14-24.157 9.87-31.075 20.01-37.675-.91-53.179 15.53-62.045 50.36-43.311-9.18-88.715-14.51-132.547-20.95-21.083-3.09-42.202-4.17-63.247-6.87-20.008-58.1-35.66-136.87-39.191-198.12-13.339-204.491 56.105-405.753 192.706-558.504C600.438 365.075 784.498 279.535 996.691 267.43"/><path fill="#fefefe" d="M894.55 647.395c5.597 4.773 15.668 25.221 20.882 32.1 32.398 42.748 73.058 76.853 115.938 108.634 14.19 10.519 29.9 21.043 43.6 32.265 14.29 11.698 25.66 29.658 38.41 43.113 31.48 33.569 62.14 56.33 82.02 99.714 31.82 69.459 11.47 224.039 51.74 281.149-4.03-15.59-8.67-32.54-10.99-48.39-7.86-53.91-3.13-108.49-5.3-162.99-3.53-88.769-37.72-123.565-97.97-179.472 27.05 14.295 64.76 37.657 83.5 62.109 62.3 81.263 19.39 189.903 33.73 282.113 3.15 20.23 7.98 33.61 15.77 51.66-5.85-29.61-7.36-72.73-4.44-102.63 6.78-69.38 21.37-131.14-4.45-199.408 29.56-15.872 51.26-92.32 102-78.829 36.3 9.653 27.81 50.721 20.3 77.048-11.75 31.46-33.64 66.049-62.33 84.729-7.13 4.64-25.2 12.73-29.71 17.01 9.09 11.56 33.45-1.71 42.81-7.89 40.48 46.03 78.83 66.99 135.99 86.31 4.02 56.68 32.2 129.71 61.93 178.33-31.86 30.69-163.61 63.87-211.14 77.91-25.07 7.63-50.03 15.65-74.86 24.05-10.45-36.22-35.49-79.3-52.79-112.71 19.25-11.88 30.77-20.74 44.85-38.64l-2.29-4.61c-.85-1.74-1.73-3.45-2.71-5.08-4.29-7.13-14.71 3.93-19.99 8.37-38.36 32.32-93.99 61.55-145.38 59.73-52.53-1.87-47.62-46.11-65.968-81.19-5.322-10.18-16.366-20.12-24.455-28.98.419-4.62 1.111-9.49 1.684-14.11 6.186-1.44 23.264-6.1 24.113-13.04-5.073-5.2-34.363.25-41.066-7.77-15.575-18.64-2.257-34.4-26.54-54.25 9.194-2.57 14.24-3.47 22.249-8.8l-.141-2.14c-9.623-3.94-55.384 5.53-68.036 7.72.353-41.57 4.415-86.44 9.053-127.52 4.868-34.763 13.83-63.596 6.169-99.138-16.512-76.605-14.32-159.086-6.182-236.477"/><path d="M930.698 798.403c25.554-3.474 54.177 4.656 74.102 20.858 3.06 2.496 5.17 4.784 5.48 8.705-4.07 2.132-20.948-5.954-28.46-8.166-13.542-2.475-15.794-2.17-28.994-1.218-12.893.931-40.682 11.905-50.712 7.231-2.003-1.976-2.943-3.541-3.33-6.349-2.453-17.808 19.45-19.751 31.914-21.061m-22.403 56.316c11.205-.941 11.659 8.79 19.043 9.75 18.633 2.423 52.931-1.85 68.083 13.495l-.167 1.742c-5.33 2.611-22.879-1.151-29.552-2.188l3.202 14.706c.858 8.394 2.603 25.666-5.455 30.378-15.304-.779-22.67-33.003-24.783-44.861-14.213-1.305-29.53-5.903-30.371-23.022"/><path fill="#fefefe" d="M552.126 1278.22c35.588-.77 75.817 67.97 81.75 98.31 2.869 14.67 4.755 29.76 8.009 44.16 4.895-38.88-.184-64.92-17.262-100.32 16.367 19.53 32.564 50.06 46.999 66.38-4.14-22.41-8.365-30.24-18.243-50.6 25.347-2.11 57.746-7.28 81.702 3.06 20.861 9 41.67 19.45 61.3 30.9 25.319 14.75 149.003 95.26 156.839 118.35 1.659 4.89.437 10.66-1.809 15.14-8.673 17.31-31.15 27.93-48.548 33.76 7.237-14.7 15.641-29.44 22.116-44.33l-.768.55c-13.628 10.04-24.874 31.12-28.821 47.45l-13.674 3.45c10.347-23.71 16.761-38.26 31.781-59.67-21.409 13.97-34.087 40.01-43.373 63.35-9.24 2.44-16.888 4.21-26.266 6.02 6.205-9.14 51.909-71.39 51.839-73.29l-1.702-.28c-16.146 7.26-53.195 58.89-62.983 74.99a906 906 0 0 1-35.001 7.35c17.73-21.98 38.252-42.21 59.128-61.2 6.267-5.7 27.05-20.18 30.357-25.73l-1.002-1.22c-19.969-.56-92.97 74.66-105.046 92.53-19.367 3.93-38.683 8.1-57.942 12.52l-11.376 2.59c7.119-7.72 14.602-15.62 21.444-23.1 38.105-41.64 85.368-70.2 135.814-94.19l.957-2.58-1.057-1.4c-7.129-.7-22.627 7.01-29.249 9.86-58.787 25.3-102.583 69.63-145.822 115.12-3.971 4.18-22.801 9.99-29.753 12.7a156.7 156.7 0 0 0-28.989 15.11c-30.742 20.65-42.47 41.32-71.268 60.78-15.634-10.97-31.632-24.73-46.179-37.22a785.4 785.4 0 0 1-203.939-269.14c-10.185-21.96-20.342-44.98-27.407-68.18 66.827 5.27 158.375 17.03 223.98 31.12 6.129 60.47 32.404 90.04 87.215 113.72-7.45-9.88-17.543-18.69-27.719-25.33-26.055-16.4-40.23-38.62-46.463-68.79-6.085-29.47-6.222-65.26 30.431-72.7"/><path d="M760.063 1409.32c16.243-2.49 31.45 8.6 34.046 24.83 2.596 16.22-8.392 31.5-24.601 34.2-16.361 2.73-31.815-8.38-34.435-24.76s8.595-31.76 24.99-34.27m170.599 86.97c2.733 1.25 1.789.58 3.652 3.12 1.227 6.07-1.018 8.71-4.194 14.25-3.309-.88-2.03 0-4.046-2.63-.788-5.76 1.737-9.8 4.588-14.74"/><path fill="#fefefe" d="M1609.35 547.752c8.39 6.074 28.89 32.469 35.67 42.025 107.43 151.339 159.2 348.58 135.22 533.053-2.63 20.24-6.89 40.01-9.88 60.07-4.54-8.84-8.58-15.63-13.72-24.06-30.48-47.83-77-83.8-121-118.28 22-46.76 36.19-81.197 44.54-132.58 21.55-132.6 6.33-249.566-70.83-360.228m-123.44 582.068c5.17.93 10.36 1.78 15.56 2.56 40.73 55.68 33.51 116.91 92.02 164.7 46.85 38.27 93.91 35.12 149.54 30.19-9.37 26.17-17.67 50.58-28.01 76.51l-14.04 35.49c-27.19-44.24-104.83-117.6-152.66-139.3-12.97-27.48-27.88-52.49-39.17-81.71-11.99-31.02-17.32-56.09-23.24-88.44m-883.904 127.36c32.264 1.2 53.722 31.08 66.459 57.78-5.346.16-11.324.75-16.708 1.15l-6.55.53c-17.103-22.64-33.337-40.9-59.373-52.98 6.298-3.81 9.01-4.81 16.172-6.48"/></svg>