<svg xmlns="http://www.w3.org/2000/svg" preserveAspectRatio="none" style="display:block" viewBox="0 0 2048 1462"><path fill="#fff" d="M0 0h2048v1462H0z"/><path d="M694.063 181.526c19.004-2.7 49.276 4.396 66.883 8.371 7.425 1.677 36.813 1.012 45.659.958 182.08-1.896 364.175-.929 546.225 2.899 55.37 1.153 110.86.005 166.03 4.335 16.49 1.294 33.01 2.36 49.51 3.64l142.94 10.523 165.88 11.629c23.33 1.682 47 2.519 70.29 4.546 5.93.516 13.38 2.313 17.56 6.823 3.65 13.876-14.06 84.245-17.83 103.622a3318 3318 0 0 1-31.28 146.651c-4.83 20.24-9.71 44.763-16.62 64.035 10.24 2.371 34.62 3.386 41.37 9.525 2.93 12.009-9.85 136.725-11.86 158.63a28372 28372 0 0 1-38.05 402.347c-3.43 39.64-7.12 79.24-11.09 118.83-1.84 19.88-3 42.3-6.07 61.76-1.4 1.46-5.81 5.39-7.65 5.52-102.31 7.11-203.96-5.55-305.93-15.31l-260.16-25.17-291.34-29.03c-70.375-7.12-143.511-15.92-213.731-21.9-2.508 15.14-10.125 87.2-16.665 94.47-1.886 2.09-6 2.14-8.703 2.35-11.252.87-22.932.27-34.221.22l-67.52-.47a9228 9228 0 0 1-252.859-4.18l-171.769-4.23c-29.22-.69-58.469-1.08-87.665-2.45-10.289-.49-15.617-4.87-14.691-15.63 1.189-13.82 4.216-27.79 6.682-41.47a2755 2755 0 0 1 15.993-85.42c1.647-8.37 4.624-21.02 5.021-29.78.001-.01-.472-2-.792-2.06-20.528-3.96-55.114-1.29-73.766-7.27-4.789-1.53-12.761-46.08-14.747-54.7.773-3.47 2.28-6.74 4.418-9.58 3.03-4.05 8.167-9.14 11.618-13.38 9.296-11.43 18.534-22.91 27.818-34.35a7438 7438 0 0 1 74.182-91.697c14.098-16.887 38.932-41.688 45.644-61.463 36.504-107.537 83.372-220.324 177.382-290.305 27.544-20.504 61.07-41.175 94.606-49.912-1.984-3.908-9.138-13.394-12.198-17.814-10.588-15.296-13.793-33.038-15.01-51.153-3.321-36.213 21.501-71.888 45.978-96.679 23.264-23.564 21.751-26.116 31.718-56.233a188.3 188.3 0 0 1 38.429-66.129c22.798-25.051 56.38-42.258 90.381-43.919"/><path fill="#fff" d="M424.43 580.72c11.475 2.661 24.974 2.513 36.799 3.716 20.095 2.044 40.299 4.901 60.23 8.165 72.903 11.935 169.584 40.407 237.278 70.139 10.043 4.411 19.271 9.565 27.978 16.281 26.337 20.315 208.231 183.467 215.435 202.141 4.4 11.415 9.2 22.579 13.31 34.127 4.66 13.072 11.02 40.269 17.79 50.002 2.78.933 1.44.998 4.14-.249 6.04-13.589-24.58-77.788-27.85-98.102 7.51-16.887 15.52-36.594 23.41-52.883 15.46-31.955 30.73-63.705 45.72-95.861 8.09-17.345 18.59-51.986 28.6-66.26 36.02 6.582 65.93 17.101 100.69 26.741-2.2 16.194-17.49 61.768-22.88 78.096-13.21-4.381-91.96-30.482-102.45-29.459-1.65 2.424-1.33 1.094-.77 4.175 1.51 1.723 4.15 3.669 6.37 4.114 15.63 3.127 30.78 9.398 46.04 13.442 15.82 4.196 32.83 12.098 48.59 15.105-1.04 5.304-2.74 10.852-4.22 16.093a2842 2842 0 0 1-30.21 102.715c-14.91 48.569-31.6 105.051-61.1 147.402-6.81 9.78-19.9 19.01-30.13 25.13-23.72 14.19-50.35 10.31-75.961 2.83-8.372-3.25-26.694-7.6-37.971-11.63a1369 1369 0 0 1-114.011-46.936 1962 1962 0 0 1-85.313-42.885c-10.07-5.449-20.081-11.082-30.297-16.247-5.641-2.853-10.968-9.804-17.202-6.955-4.718 10.867 47.735 33.709 56.37 38.134-7.949 25.189-14.566 52.589-22.119 78.179-14.101 47.78-27.396 96.95-35.717 146.08-5.453 32.2-6.002 65.92-9.19 98.02-10.31.72-29.034-.35-40.271-.59l-82.06-1.53-300.07-5.19c-33.959-.61-73.073-3.02-106.14-2.71 3.103-11.36 5.363-28.3 7.429-40.31 3.973-23.22 8.281-46.39 12.921-69.49 15.462-73.34 32.744-148.58 52.815-220.876 36.204-130.419 83.991-285.056 194.017-372.664"/><path d="M446.514 646.688c4.036.205 4.035.164 6.608 2.347 1.408 4.768-15.399 31.765-18.818 38.265a1035 1035 0 0 0-49.903 110.094c-5.644 14.601-12.856 39.95-18.791 52.405-3.782-.1-4.861-.299-6.963-3.307-.106-4.653 5.75-20.704 7.557-26.003a936 936 0 0 1 80.31-173.801m290.642 59.651c3.62 1.218 3.676 1.478 5.231 4.275.158 8.249-8.501 21.006-12.071 29.441a521 521 0 0 0-22.771 67.862c-4.948 18.251-8.573 38.191-11.39 56.942-1.672 11.126-1.571 29.601-4.593 39.752-2.796-.055-2.902.138-5.353-1.378-3.466-6.815-.952-25.708.168-33.743 6.71-48.1 18.47-96.36 38.659-140.675 2.825-6.201 7.492-17.778 12.12-22.476"/><path fill="#fff" d="M1896.65 563.448c9.05 1.699 19.58 2.873 28.83 4.094-4.25 33.861-6.78 70.766-9.66 104.862l-11.73 130.882-23.83 245.784c-4.25 47.81-8.76 95.61-13.54 143.38-.86 9.03-4.28 60.08-7.3 64.34-7.33 1.39-72.14-5.03-81.29-5.88l-111.9-9.79-620.53-59.98-157.629-15.93c-22.68-2.22-47.753-5.17-70.288-6.49l-8.685-2.03c5.159-19.71 12.744-42.41 28.735-56.97 37.71-34.34 78.875-18.51 125.392-17.76 50.415.11 112.285 4.26 155.105-26.77 12.72-9.23 1.75-23.26-5.97-31 2.94-7.64 7.93-15.34 11.44-22.88 11.63-24.934 20.8-50.581 29.2-76.8 18.82-58.7 36.16-117.864 53.62-176.989 19.72 1.291 39.5 5.13 58.95 8.625 54.21 9.74 108.26 23.832 161.81 36.875l234.28 54.83 81.74 19.123c14.44 3.397 40.85 11.705 54.65 8.547 8.62-11.994 22.55-58.514 27.76-74.575a5421 5421 0 0 0 70.84-237.498"/><path d="M1404.42 841.8c3.09-.091 10.13 1.589 13.76 2.053l36.23 4.417c41.81 5.085 358.25 44.09 365.37 52.554 1.61 1.921 1.96 5.016 1.54 7.407-1.04 5.977-4.71 12.893-6.9 18.659-7.59 19.971-15.66 39.725-23.44 59.617-9.13 23.353-83.13 220.823-95.03 228.683-10.02 6.63-38.38-2.18-49.59-4.57-2.35-.22-4.68-.48-7.02-.79-20.17-2.75-49.27-9.11-69.65-13.17l-122.65-24.47a5137 5137 0 0 1-153.56-30.96c-20.13-4.24-41.27-6.89-60.98-12.66-4.55-1.33-9.45-3.36-12.22-7.45-1.85-2.73-2.31-6.91-1.58-10.08 2.29-9.85 154.74-231.645 170.65-253.017 4.58-6.145 8.56-11.976 15.07-16.223"/><path fill="#fff" d="M1408.49 859.956c24.95 3.417 49.13 5.559 73.91 8.684a11951 11951 0 0 1 242.61 32.655c24.32 3.645 51.56 6.876 75.48 11.27-9.38 21.267-19.23 50.582-27.83 72.768a6407 6407 0 0 1-55.37 136.817c-9.42 22.89-21.52 54.98-31.86 76.72-16.46-2.54-32.86-5.44-49.2-8.68-8.87-.91-26.47-4.63-35.75-6.32l-82.11-15.61c-94.02-17.83-187.86-36.56-281.53-56.18 6.26-13.43 33.97-48.88 43.79-63.55l89.07-132.235c12.57-18.304 25.24-38.901 38.79-56.339"/><path d="M1561.53 922.735c2.69-.029 10.66 2.591 14.47 3.366 11.44 2.324 30.67 2.927 41.06 7.137-2.6 7.282-9.58 19.922-13.28 27.414l-23.74 49.178-41.21 86.63c-3.21 6.79-16.39 37.51-20.28 39.89-9.33-3.38-57.09-10.6-58.74-15.89 2.91-8.2 9.68-20.41 13.8-28.45l25.86-50.14 39.72-78.619c5.17-10.326 14.66-33.344 22.34-40.516m151.36 22.777c8.38 2.457 36.49 8.661 41.28 12.256-2.93 11.962-12 31.182-16.91 43.042a4485 4485 0 0 1-33.27 78.67c-11.55 26.88-22.47 54.29-33.96 81.21-1.67 3.92-1.96 4.35-5.11 5.97-9.3-2.24-37.67-6.66-43.82-10.08-.03-.26-.08-.52-.08-.78-.05-11.6 78.08-186.084 87.39-204.267 1.19-2.32 2.6-4.216 4.48-6.021m-259.18 7.35c9.86 1.807 50.42 8.192 56.46 12.041.86 6.456-50.87 103.797-57.61 118.207-2.37 5.08-14.45 30.43-17.78 35.31l-2.07.37-62.47-13.03c6.06-12.65 16.46-29 23.51-41.82 16.33-29.61 32.16-59.5 47.48-89.658 3.26-6.386 7.65-16.921 12.48-21.42m161.02 36.151c16.02-.503 32.82 5.239 48.22 1.181 2.02-.533 1.54-.209 3.41 1.081-.58 3.96-9.24 21.565-11.65 26.895-19.97 44.11-37.69 89.51-57.55 133.61-6.73.53-44.85-8.29-54.08-10.16 20.73-40.44 37.71-84.48 58.12-125.21 4.65-9.28 8.18-18.282 13.53-27.397m-264.45 11.707c4.63-.29 44.36 5.48 48.99 8.59-.3 5.27-45.33 89.47-49.67 93.21l-1.82-.3c-16.31-4.33-33.87-5.97-50.02-10.43-2.48-.69-2.6-1.46-3.28-3.26 1.05-4.31 51-82.6 55.8-87.81m222.12-94.764 2.54.701.92 1.979-.96 2.082c-7.02 5.363-43.37 15.266-54.65 19.252-10.44-5.138-24.37-10.01-35.48-13.538-21.44 8.538-60.74 23.079-82.52 29.834-3.11-1.729-2.25-.697-3.67-3.714.37-.76.75-1.52 1.12-2.28 21.61-10.293 67.16-22.976 86.44-32.172 10.13 4.587 25.04 11.117 35.6 13.789 15.49-4.042 35.01-10.889 50.66-15.933m54.46 15.419c1.05.084 1.29.073 2.21.231 5.43.935 17.99 30.448 22.04 36.297 7.84-2.322 24.32-7.984 32.47-7.021 1.51.178 1.51.975 2.49 2.546l-.9 3.041c-11.45 2.611-26.98 7.21-38.16 8.385-4.45-6.314-21.2-36.218-20.15-43.479"/><path fill="#fff" d="M1429.85 260.392c25.07 3.577 67.16 4.171 94.33 6.219l202.13 14.403c30.22 2.116 59.17 3.616 89.5 6.285 17.66 1.575 35.33 2.903 53.02 3.984 11.9.793 28.41 1.494 39.65 3.948-1.27 9.56-4.55 22.885-6.68 32.648a3884 3884 0 0 1-14.9 64.835c-9.1 38.352-19.45 87.205-31.57 123.886a3257 3257 0 0 1-53.27-9.262c8.72-37.804 23.36-83.716 30.23-120.13 9.9.299 26.12 4.365 36.16 2.993 1.09-.15 1.06-1.064 1.58-2.447l-.88-1.658c-6.07-3.886-25.92-5.195-34.65-6.361 2.23-8.832 16.21-52.853 11.69-57.887l-1.09.408c-1.57 1.57-4.35 5.108-4.79 7.267-3.31 16.44-9 32.372-13.18 48.562-13.81.206-62.12-6.015-75.89-8.615 3.4-13.093 7.46-35.651 9.84-49.368.23-1.369-1.13-3.505-2.26-4.636-5.68 3.509-12.23 42.65-15.51 53.185-53.38-4.559-107.49-11.47-160.82-16.699-18.4-1.805-36.68-4.647-55.09-6.114 6.12-14.31 11.68-38.869 16.93-54.513.3-.889-.46-2.968-.78-3.872l-1.74-.451c-6.56 5.072-18.45 47.258-21.81 57.801-9.59-1.17-48.46-7.477-54.15-1.922l.45 2.424c4.52 2.761 43.35 5.677 51.41 6.44-4.24 11.124-8.96 27.462-12.79 39.306a5545 5545 0 0 1-22.13 66.548c-27.43-5.795-57-8.26-84.72-12.955-2.02-.343-4.38.629-6.13 1.61l-.3 1.463c8.47 7.201 71.14 12.18 88.1 16.794l1.4.391-5.84 15.614c-8.07-1.405-17.48-3.678-25.25-.803l.15 1.164c4.31 4.223 17.34 5.877 23.52 6.965-10.83 27.5-20.8 68.339-29.37 97.501-10.72-2.555-81.03-17.469-86.39-14.676-.87 3.252-1.09 1.809.25 4.518 7.21 2.927 14.44 3.344 21.9 5.057 19.28 4.426 41.89 6.781 60.64 11.932 1.14 1.385 1.05 2.443.57 4.262-10.18 38.283-19.11 76.912-25.23 116.048-.4 2.579.63 3.534 2.23 5.05l2.54-.114c.66-.652 1.33-1.305 2-1.957 5.43-35.532 14.02-71.111 22.66-105.838 2.33-9.334 3.1-13.975 9.18-15.447 7.77 3.618 11.94 1.049 18.33 4.056.2.53.41 1.06.62 1.59-4.13 6.997-8.22 14.385-11.01 22-15.82 42.991 7.6 87.57 50.38 102.054 33.01 11.175 65.53 7.234 95.46-10.105 4.44-2.569 12.44-4.884 14.33-10.138-2.42-6.839-56.02-58.423-65.01-67.243 24.68 3.024 52.35 9.276 77.08 14.217-8.7 42.176 5.57 67.985 41.96 88.99l-2.51 9.002c-1.13 4.082-2.77 11.461-.55 15.357l1.48-.781c4.97-7.559 5.45-12.09 7.84-20.753 42.66 9.28 56.58 2.558 89.78-22.819-4.32 16.305-10.45 32.52-14.47 48.971-.97 3.976-1.3 6.881 2.77 8.977 5.96-4.055 16.02-53.355 20.24-63.398 4.04-9.615 9.49-21.731 13.41-31.375l14.05 2.996c-4.17 11.187-7.13 24.084-10.84 35.591-9.45 29.241-18.02 59.058-28.19 88.037-34.31-6.476-63.73-14.59-97.43-23.031l-143.4-35.396c-64.66-15.36-129.54-30.039-194.17-45.525-13.18-3.157-26.72-5.447-39.69-9.343l52.43-170.09c8.95-28.812 18.65-57.494 27.28-86.368a8132 8132 0 0 1 34.7-114.4c6.09-19.996 13.07-45.857 20.28-64.859m-549.143 32.686c79.416.496 159.133.998 238.533 2.908 7.32.176 14.7.749 22.01.779l112.38 1.068c20.24.209 49.75-.267 69.03 1.634-3.23 7.541-9.55 31.738-12.3 35.634-2.67 3.768-62.95-.782-70.07-1.121l-113.9-5.156c-8.77-.421-31.02-3.194-38.29-1.772-1.82 1.74-3.86 7.433-4.16 9.592-1.41 10.364-19.18 67.362-16.57 72.035 5.9 3.551 53.62 5.671 64.02 6.366l81.85 5.947c22.52 1.502 51.97 5.411 72.85 5.535l-5.31 18.886c-53.57-1.626-107.47-8.346-161.43-12.433-45.58-3.453-97.18-8.221-143-9.832-5.071-.179-19.169 65.22-22.277 74.367-4.668 13.74-5.459 29.113-12.608 43.782.296 3.204-.079 2.028 3.082 4.759 8.202 1.779 5.14-4.836 7.711-4.712 20.239.969 143.132 11.39 150.942 14.731.79 5.642-.96 23.412-1.45 30.178-12.96-3.173-54.71-6.713-69.55-7.984-27.71-2.373-58.706-7.3-85.751-8.804-.885-2.631-1.027-4.036-3.238-5.674l-2.182.399c-5.228 3.943-18.101 49.189-16.59 54.936 1.261 1.477 2.042 2.855 4.175 3.133 11.354 1.475 23.845 2.787 35.148 4.14L1048 636.442c12.73 1.479 34.98 3.279 46.66 5.926l1.41.329c-6 8.267-13.48 26.23-17.93 36.257-18.44-1.695-42.93-6.301-59.36-7.135-60.318-9.403-123.556-13.352-184.233-19.724-20.418-2.144-48.294-2.565-67.059-5.874-1.328-3.241-6.841-6.932-8.462-9.26-5.914-8.494-27.901-28.656-32.585-36.029l1.058-.784c15.367 3.256 40.196 3.548 56.623 5.66 32.945 3.522 66.109 7.07 99.016 10.708 13.558 1.499 11.413 1.099 13.747-7.683 2.504-9.419 5.31-15.413 6.802-25.637 1.211-8.302 6.297-18.982 7.631-27.628 13.642-59.48 30.402-118.375 44.188-177.777 2.666-11.491 17.233-55.119 12.001-62.85l-2.08.653c-5.172 4.898-7.517 19.423-9.387 26.931l-10.703 43.293-34.62 136.253c-4.993 20.254-15.204 66.968-21.923 85.546-16.21-1.07-32.755-3.425-48.971-5.026-39.641-3.914-79.459-7.542-118.912-13.007-6.076-.841-9.491-3.215-14.551-6.327-.202-5.168 23.342-31.381 28.236-36.987l1.662 1.033.812.466c.839.49 2.032 1.229 2.933 1.544 53.073 18.554 76.736-32.596 92.323-73.596 13.112 1.237 15.143-.032 26.253-6.708-7.025 22.761-14.133 46.001-19.746 69.207-.883 3.653-1.64 6.8 1.128 9.489l1.923-.44c2.391-2.392 3.848-5.236 4.863-8.425 6.918-18.492 10.004-40.945 16.599-59.204 15.471-42.834 25.255-86.515 37.92-130.135.719-2.476.471-3.578-.847-5.465l-2.467.313c-2.059 1.539-4.107 3.71-4.881 6.197-7.257 23.331-11.714 47.734-20.162 70.701-33.18-3.484-17.744-19.946-17.821-44.037 24.744-28.768 30.032-46.402 25.619-84.132"/><path d="M1000.05 320.388c11.68 7.513 66.23 1.368 75.02 7.159.7 2.26 1.04 5.674.48 7.869-2.58 10.072-15.08 69.885-20.44 73.926-11.75-.321-71.511-2.924-78.02-7.312.118-2.326 1.349-8.736 2.224-10.92 6.17-15.4 11.087-59.746 20.736-70.722"/><path fill="#fff" d="M1003.85 330.032c13.54 4.773 43.01.518 58.4 4.214 7.08 1.7 3.11 9.225 1.56 14.378-5.21 17.376-6.53 34.833-15.13 51.053-16.68 2.116-47.76-4.857-62.687-2.393 3.308-8.929 5.101-18.874 7.4-28.215a1371 1371 0 0 1 10.457-39.037m521.31 22.855c71.29 7.802 145.96 14.526 216.73 23.493-6.41 36.056-16.19 80.345-24.93 116.013l-9.16-1.547c-20.97-1.639-61.6-9.308-84.14-12.914l-133.27-20.023c9.02-30.46 21.26-61.294 30.05-91.977 1.23-4.29 2.91-8.963 4.72-13.045"/><path fill="#fff" d="M850.901 245.152c77.016.063 154.569 1.945 231.599 2.607l162.99 2.631c41.99.688 86.92.944 128.63 2.957-1.89 11.394-8.44 32.593-11.79 44.126a5104 5104 0 0 0-17.24 60.614 7808 7808 0 0 1-50.6 171.587c-16.32 51.636-36.94 110.743-51.14 162.204-5.72-.755-11.45-1.47-17.18-2.145-6.8-2.847-3.61-4.855-3.04-11.873.99-12.387-4.03-14.564-14.59-16.827l4.89-10.639c8.78 1.733 14.24 2.545 23.14 3.358 6.45-13.054 13.66-41.342 17.87-56.342l23.12-82.088 31.82-116.161c5.15-18.086 30.5-100.399 28.7-112.143-2.22-1.705-5.81-4.176-8.62-4.233-15.45-.318-31.43-.15-46.85-.079-18.6.086-37-.655-55.58-.907l-253.187-3.604c-14.984-.28-83.122-.593-99.226-2.093-.399-.038-19.174-25.606-23.716-30.95m629.889 243.775c25.02 5.424 55.83 10.082 81.48 14.682 49.18 9.2 98.45 17.984 147.79 26.351-2.84 16.575-10.03 42.595-11.43 57.114-23.96 10.605-38 17.399-53.3 40.319-1.78-2.796-3.37-6.921-4.42-10.076-15.24-45.713-66.36-72.438-112.65-58.022-21.7 6.759-32.77 17.757-49.11 32.359-9.21-1.627-17.24-3.128-26.33-5.319 7.99-35.605 19.14-64.382 27.97-97.408m-952.335 36.092c.58-.015 21.81 5.175 23.743 6.312 10.738 6.322 92.702 8.218 94.555 10.637 16.902 22.067 30.484 37.446 48.946 56.371 16.087 16.49 36.228 32.105 49.078 48.446-22.68-7.921-44.522-17.298-67.532-24.359-7.531-3.151-29.641-9.405-38.109-11.889-64.642-18.956-135.735-33.974-203.227-37.888 3.521-2.203 6.655-4.771 9.982-7.249 24.556-18.289 53.393-31.166 82.564-40.381m1189.495 78.202c80.93-3.643 81.83 88.208 19.54 116.478-29.82 13.53-66.55-.196-79.58-31.375l-.27-.741c-11.15-31.434 4.9-64.754 36.31-75.915-5.55 16.101-14.45 60.332-18.25 79.485-.2.987 1.1 1.311 2.3 1.932l1.88-.651c5.58-6.502 18.96-72.065 21.66-85.485 5.41-1.103 11.01-2.485 16.41-3.728M764.131 408.074c7.718-.652 8.772.638 15.016 5.201 10.961-.447 42.013 5.839 53.383 8.751-13.653 39.382-33.298 138.379-92.665 108.144-14.477-7.373-21.555 6.748-30.333 17.384l-16.908 21.863c-9.962-9.2-18.86-20.75-29.457-30.84 37.907-14.594 58.87-36.512 84.242-67.372-.128.155 6.566-2.437 7.153-2.672 1.684-2.827 1.373-1.509.755-5.136-2.4-3.724-7.336-6.253-11.206-8.663-9.656-20.185 1.235-37.758 20.02-46.66"/><path fill="#fff" d="M1161.95 513.08c7.57.518 18.89.804 25.55 4.818 19.96 12.287 24.71 40.249 33.74 60.391 3.03 9.747 3.91 20.634-1.86 29.224-10.62 15.804-17.95 32.821-26.72 49.263-17.09-4.233-52.28-14.075-70.78-18.926-3.38-.886-4.1-21.388-4.39-26.79-1.45-22.285-.57-55.051 5.56-76.546 3.67 8.632 17.69 38.292 25.2 42.198 18.49 9.617 23.74-31.032 25.93-41.846 5.27 6.136 18.87 28.455 25.13 29.31 2.25-1.805 1.6-.689 2.21-3.333-11.75-19.537-19.97-35.732-39.57-47.763m588.69-135.78 75.2 9.082c-11.12 34.993-20.83 81.033-30.61 117.325l-.44.982c-4.06 1.841-61.02-9.413-70.46-11.23 3.22-14.318 21.41-107.117 26.31-116.159M224.306 909.761c.632 2.345-7.573 28.603-8.885 33.518l-21.954 85.121c-3.537 14.04-7.547 33.1-12.094 46.45-3.795-.38-8.285-.53-12.146-.66-21.079-.7-42.534-3.99-63.534-4.59l-10.062-1.03c16.362-23.45 41.014-51.49 59.578-74.346 20.319-25.012 47.108-61.84 69.097-84.463m754.272-472.075c17.975-.66 58.822 3.509 77.072 5.011l120.76 9.913c30.35 2.786 71.8 3.586 100.33 7.649-1.68 7.533-2.54 11.118-5.37 18.377-21.7-.124-292.1-21.473-295.764-24.552-.288-4.917 1.726-11.44 2.972-16.398m112.732-97.027c10.32 1.579 37.72 1.97 48.99 2.466l100.13 4.957c17.98.861 48.93 1.597 66.18 4.323-1.64 8.66-3.82 14.585-7.11 22.577-31.18-3.456-68.4-3.841-100.05-5.925-37-2.435-76.67-5.067-113.75-5.921 2.01-7.247 3.8-15.128 5.61-22.477m-8.7 34.427c7.54 2.111 35.51 3.052 45.13 3.579l115.83 6.561c11.03.615 43.51 1.57 51.41 3.423 1.03 2.768-3.01 21.436-5.95 23.594-40.09-1.706-82.88-6.371-123.16-9.076l-51.79-3.309c-12.66-.791-24.78-.997-37.21-3.531 2.11-6.095 4.09-14.831 5.74-21.241m411.21 90.018c7.66 4.036 87.37 13.529 101.67 15.66l119.88 19.087c-.67 6.657-1.1 17.001-4.79 22.315l-2.8.435a10756 10756 0 0 0-152.97-27.816c-22.16-4.004-51.01-8.251-72.03-13.305 2.85-8.356 1.66-14.315 11.04-16.376m299.76 79.971c10.96 2.956 40.05 6.816 52.28 8.742l-15.88 59.879c-3.57 13.684-7.11 29.286-11.58 42.548-.82 2.494-2.93 11.137-5.81 11.504-3.81.484-8.34.457-11.81-1.326-1.62-6.21.11-10.63.22-16.759.39-20.38-8.99-35.465-21.62-49.935a5403 5403 0 0 1 14.2-54.653m-852.237 37.863c6.031 1.377 19.952 2.637 26.521 3.362a4614 4614 0 0 0 53.056 5.565c25.74 2.7 55.22 7.908 80.66 8.358.18 8.914 3.61 17.946.73 25.67-2.62 2.03-2.27 1.3-6.6 1.147a7191 7191 0 0 0-118.375-14.48c-13.616-1.501-29.231-3.946-42.538-4.835 2.045-8.384 4.777-16.238 6.546-24.787m21.171-81.959c12.345 2.789 32.57 3.329 46.066 4.675 32.46 3.238 67.53 8.282 99.93 9.7-.57 5.168-1.88 21.955-3.9 25.141l-2.8.423a6328 6328 0 0 1-145.926-13.844c2.009-9.515 3.891-16.757 6.63-26.095m754.306 30.334c22.61 4.862 46.46 8.848 69.26 12.677-3.58 17.64-7.84 34.091-12.28 51.527-26.32-14.259-37.57-15.376-67.57-10.93 3.5-17.498 7.81-35.775 10.59-53.274m-160.76 114.175c3.59 1.577 52.82 50.985 57.79 57.04-7.34 5.127-15.24 9.102-23.47 12.545-19.57 6.836-32.54 7.377-52.58 6.74 3.16-6.378 15.59-65.108 18.26-76.325M970.771 468.365c8.995 3.302 25.714 2.631 35.689 3.909 32.39 4.152 65.84 4.107 98.14 8.121 3.32 3.955 11.29 14.781 12.57 19.591l-2.25 1.865c-9.23-2.218-45.16-4.773-57.09-5.705-30.4-2.373-62.466-6.662-92.598-8.537 2.438-6.623 2.916-13.118 5.539-19.244m150.159 13.725c5.62.02 14.88 1.603 20.9 2.173l45.94 3.929c22.8 1.95 58.48 3.177 79.77 6.695-.09 2.236-3.76 13.151-4.64 15.947-.43 1.948-.98 3.792-1.52 5.712-3.08 2.169-55.1-3.291-58.78-5.945-22.45-16.175-42.93-6.476-68.6-10.737-2.78-3.866-11.4-14.598-13.07-17.774M853.864 714.932c20.662-.42 180.366 17.94 198.436 24.317.19 3.125-1.38 5.011-2.92 8.202l-1.78.825c-11.2-2.483-37.74-4.373-50.301-5.709a7219 7219 0 0 1-97.328-10.731c-4.739-.528-13.387-1.573-18.017-1.48-14.053.28-17.635-7.481-28.09-15.424m869.476-213.64c20.47 3.045 49.92 7.889 70 12.281-1.53 7.648-3.53 15.164-5.45 22.721-22.52-3.713-47.48-7.339-69.53-12.261 1.92-6.396 2.94-15.258 4.98-22.741m77.68 13.305c10.84 1.077 42.19 7.168 52.88 9.926-2.68 7.723-4.52 13.198-6.47 21.211-17.85-2.807-35.04-5.292-52.94-8.33a419 419 0 0 1 6.53-22.807m-584.99 13.172c13.73 2.254 27.97 2.437 41.41 5.761-4.78 15.251-8.29 28.174-12.25 43.63l-4.51 15.836c-3.1-10.721-19.26-55.486-24.65-65.227M848.621 425.767c4.043.154 14.736 3.543 19.278 4.856-5.669 15.212-6.814 21.098-18.261 32.724-3.067 2.641-7.437 5.925-11.294 3.611-1.811-6.818 7.548-32.771 10.277-41.191m87.734 331.747c7.981 1.041 14.779 2.304 22.656 3.839l-7.827 13.668c-8.618-1.523-14.594-1.931-23.301-2.503 2.869-4.949 5.664-10.013 8.472-15.004m29.135 5.054c6.447 1.133 15.346-.284 19.193 4.493.192 3.995-2.099 7.402-3.974 11.139-7.397-.105-16.337-.985-23.823-1.523 1.966-4.333 5.902-9.971 8.604-14.109m19.577 20.952c7.629 5.179 13.931 1.916 18.343 5.978.3 3.981-2.55 7.964-4.576 11.728l-21.813-1.843c2.329-5.25 4.706-11.275 8.046-15.863m-31.685-1.04c7.502.723 15.514 1.056 23.073 1.503l-6.529 14.132c-5.735-.431-16.711-2.902-22.086-4.608 1.62-3.531 3.757-7.515 5.542-11.027m22.195 23.556c6.905-.38 12.711.859 19.418 2.095-1.89 4.363-4.951 9.728-7.252 14.028-8.397-1.502-11.752-1.911-20.318-2.261 2.05-5.13 4.763-9.523 8.152-13.862M837.689 390.912l.901 1.184c-.57 6.226-2.803 14.386-4.302 20.628-6.538-1.727-14.707-2.963-21.472-4.168-.552.036-3.137-.378-3.856-.479l-.382-.867c13.417-5.387 17.455-7.665 29.111-16.298m72.793 361.856 18.796 3.264c-2.972 5.557-4.864 9.016-8.467 14.137-2.055 1.269-1.972 1.107-4.425 1.084-4.492-1.917-8.727-7.014-12.228-10.671zm83.109 13.661c5.783 1.551 15.489 2.66 21.669 3.553l-6.13 11.448-21.803-2.128c1.987-3.434 4.488-9.126 6.264-12.873m9.109-16.108c7.49.919 14.99 1.748 22.49 2.486l-6.41 11.133c-6.7-1.429-14.59-2.462-21.442-3.526zm-59.065-6.045c7.21.115 17.998-.919 23.265 3.289.565 3.486-.437 3.74-2.478 7.404-6.986-.676-17.492-.199-22.733-3.746-.932-3.074.074-3.331 1.946-6.947m48.376 84.675c5.444.571 11.549-.393 12.969 5.173-.95 3.951-1.94 5.017-4.28 8.28l-1.184-1.09c-9.519.231-6.171 4.188-14.159-3.865zm10.899-20.169 14.19.227c-2.83 4.301-6.41 9.095-7.75 13.973-4.5.427-10.06 1.964-12.501-2.318.363-3.824 3.841-8.388 6.061-11.882m-26.991-61.64 19.564 2.471c-1.865 3.792-3.004 6.44-5.662 9.807-6.768-1.973-15.12-1.323-18-4.118.271-3.875 1.614-4.545 4.098-8.16m257.561-133.379.93 1.507c-.32 5.935-3.68 20.425-6.76 26.064-.45.831-5.7.841-7.28.946l-.57-.946c-.11-5.424 9.94-22.798 13.68-27.571M925.623 777.398c7.524.93 14.318 1.775 21.793 3.16l-6.011 10.017-1.098 2.078c-4.367-.738-14.441-11.088-14.684-15.255m-8.631-37.537c5.701.493 15.413.335 19.018 4.11-.09 3.42-.903 3.314-3.415 6.432-4.576.535-15.78-.801-17.732-5.755zm96.038 49.002c2.82.733 8.56 1.492 11.67 1.986-1.64 5.339-2.17 7.634-5.15 12.385-4.3-.123-8.83-.818-13.11-1.371zm9.42-18.179 13.7 1.602c-2.28 4.038-5.24 8.017-7.93 11.836-2.6-.963-9.32-1.267-12.45-1.515zm-136.89-33.443c5.326-.604 19.983-.581 23.492 3.896l-2.222 4.407c-7.939-1.101-13.894-3.936-21.107-2.231l-1.088.267c-1.023-2.536-.188-2.896.925-6.339m146.06 16.166c4.21.343 8.54 1.25 12.7 2.02-1.88 3.774-3.36 6.117-5.62 9.646-3.49-.07-7.6.307-10.43-1.349-.35-3.807 1.59-6.358 3.35-10.317m-85.046 47.459c5.912.493 14.756.411 19.077 3.84.462 3.202-.564 3.632-2.426 6.966l-.709 1.587c-3.033.078-12.861-9.638-15.942-12.393"/></svg>