<svg xmlns="http://www.w3.org/2000/svg" preserveAspectRatio="xMidYMid meet" viewBox="0 0 2048 1462"><path d="M1050.89 204.189c18.49-.567 22.19 5.83 35.82 15.481 30.6 21.664 36.22 30.696 26.82 69.868 23.07 18.861 15.24 48.618-8.25 62.723-.22 8.813-.98 15.165-3.4 23.602 69.08 50.437 73.59 160.566 88.32 238.002 3.24 17.014 4.11 35.138 7.42 52.379 6.09 5.9 9.82 11.346 10.54 20.04 1.99 6.865-3.03 10.47-3.89 13.068-3.81 11.481 11.97 25.803-10.78 30.095-.5 30.181-1.92 79.679-34.09 94.138-.42 21.96.45 45.938.83 68.041l2.58 129.294c.27 13.15 3.25 75.34-1.18 83.29-2.83 2.63-5.02 2.85-8.76 3.89.2 11.48 1.53 25.75 2.31 37.41 26.99 5.41 85.14 30.55 111.64 42.13 16.73-15.91 54.44-43.21 75.29-53.02 11.61-37.2 27.64-107.01 25.05-145.641-.58-8.564-22.6-40.051-28.56-53.099a3675 3675 0 0 1-87.1-207.074c-12.53-32.08-30.51-72.85-35.39-106.783-3.28-22.731 15.18-55.01 29.78-72.641-3.65-5.015-5.46-8.572-6.98-14.508-16.84-7.562-28.39-21.822-24.7-41.082 1.68-12.471 14.1-19.129 19.94-27.554 49.67-71.709 88.97-45.058 127.13 18.745 6.1-1.088 12.34-1.735 18.49-2.46-3.56-5.718-8.7-14.469-8.85-21.267-.71-32.364 45.67-78.091 76.58-79.565a39.16 39.16 0 0 1 18.79 3.614c17.54 8.321 51.38 45.914 68.91 61.582 8.41-2.585 16.83-5.102 25.41-7.096 38.23-8.889 56.87-1.816 89.21 18.373 23.2 14.48 45.64 31.692 66.71 49.071 42.67 35.197 142.33 127.941 164.53 172.772 3.69 7.446 5.29 13.837 4.98 22.159-.56 15.31-5.54 30.943-9.06 45.803-7.48 31.669-30.82 120.336-27.77 148.954 2.5 23.551 17.1 63.037 24.51 87.324l28.94 95.413c13.19 42.52 23.01 72.25 33.12 115.74 22.86 1.11 46.82-1.94 69.63-.04 4.33.37 5.72 7.66 4.33 11.61-4.68 3.33-45.96 2.05-54.04 2.04-45.23-.17-90.47-.07-135.7.28-9.53.03-58.75-2.3-62.92 2.26.52 3.57 24.96 26.58 28.51 43.06 5.79 26.88-4.25 42.35-30.72 46.05 6.17 2.38 14.5 4.66 16.73 11.44-2.45 10.24-12.05 6.09-18.48 4.43-9.37-2.42-26.09-11.53-35.25-12.21-17.06-1.25-35.71-.74-52.87-.74l-104.74.44c-11.88 38.93-40.79 55.21-79.55 56.91-38.62 1.7-71.53-12.09-105-29.62-42.09 12.79-106.48 2.19-149.49-4.36-6.32-.97-33.36-6.67-37.53-6.47-20.61 1-29.06 7.92-52.91 5.89-27.96-2.69-34.16 5.96-60.99 12.49-17.55 4.76-35.22 7.38-53.32 8.74-95.886 7.25-188.199-18.95-283.244-17.63-24.511.34-49.708 9.35-73.398 15.44a306.1 306.1 0 0 1-103.199 8.4c-34.744-2.83-80.871-22.04-113.779-35.55-15.165 4.5-20.469 3.41-34.563-3.34-11.359 3.75-31.95 16.84-42.836 8-4.64-11.44 12.877-18.47 20.681-21.58-10.347-3.83-22.422-9.24-32.745-13.55q-1.098.585-2.202 1.14c-46.493 23.73-123.263 12.16-100.022-55.14-16.524-7.38-37.124-18.97-53.592-24.69-2.714-.94-27.496-.27-32.605-.26l-94.898-.05c-11.234-.01-22.317.03-33.541.55-5.414.25-10.04-2.6-11.599-7.84 1.275-4.87 4.596-6.48 9.658-6.41 35.347.5 71.803-.55 107.033.53-.112-12.54 11.676-45.27 15.874-58.64l47.378-150.097c5.945-19.141 20.771-64.379 22.325-82.032.963-34.64-7.983-77.914-17.996-111.029-19.239-63.625-31.586-71.075 9.337-129.821 48.365-69.43 104.638-129.769 169.296-184.723 27.451-23.332 55.834-46.45 93.424-49.426 15.496-1.242 28.838 2.048 43.711 5.584 9.495-17.981 31.601-53.013 50.238-61.769 8.636-4.056 21.126-3.212 30.364.493 23.868 9.969 58.955 33.705 70.414 57.084 14.919 30.437-23.938 44.523-38.944 58.463-12.124 11.264-8.424 29.759-29.58 38.959-17.524 55.301-46.571 109.259-69.018 162.96-20.56 49.183-41.734 98.325-61.837 147.739-2.561 6.295-8.802.773-10.876 4.805-7.845 15.251-16.773 47.001-29.313 58.28-.703 39.132-10.112 85.349-16.373 124.21-.6 3.72-1.741 6.29.868 9.48l1.843-1.1c5.392-9.71 3.4-17.2 4.992-27.68 8.285-54.498 44.901-168.287 89.087-202.108.018-5.847-.066-35.978 1.224-41.256 9.844-40.289 35.893-81.137 55.912-117.475 2.767-5.022 6.376-18.009 9.669-20.465l3.004 1.349c2.343-1.463 1.496-.456 2.402-3.289l-3.238-2.834c-1.536-8.089 7.241-9.46 13.21-11.447 3.538-4.163 6.813-9.429 10.185-13.93 22.683-30.282 46.361-63.378 73.604-89.458 14.985-14.345 52.671-11.264 72.556-9.373 4.392-6.46 8.91-13.147 13.345-19.572 23.367-33.848 45.906-75.106 93.464-50.234 14.823 7.752 21.04 13.233 32.872 24.64 10.099-25.024 26.857-58.435 50.091-73.442-5.97-9.145-9.556-14.655-14.459-24.427-3.044-1.575-6.153-3.163-9.015-5.037-39.386-25.786-29.937-84.573 17.334-93.574 2.132-9.003 4.139-16.629 8.988-24.637 15.702-25.935 53.029-32.114 77.879-16.474 7.57-6.585 10.24-7.513 20.03-10.128"/><path fill="#fefefe" d="M488.429 441.38c16.631-2.107 35.852 3.836 51.4 10.233 25.964 10.681 49.479 27.937 61 54.387 1.662 3.815 3.355 10.991 2.157 14.941-13.56 44.676-35.885 88.271-54.686 130.871-26.214 59.401-49.723 120.639-75.596 179.808-15.028-4.478-32.549-11.193-47.628-16.527 3.941-19.52 11.673-46.566 17.26-65.86 15.1-52.14 34.154-109.789 55.919-159.529a598 598 0 0 1 17.379-38.372c4.461-8.954 23.095-36.417 17.556-44.715l-1.336-.114c-19.493 7.769-55.619 110.948-66.937 132.952-2.823 5.489-12.118 17.237-16.309 22.889l-25.158 34.407c-12.23-10.018-24.47-18.621-36.683-28.283-31.828-25.178-63.73-49.448-96.817-72.965 11.683-9.105 21.829-23.217 33.032-34.32 38.537-38.192 81.215-82.274 128.207-109.591 10.164-5.909 25.844-8.908 37.24-10.212m236.059 65.026c34.43-1.729 76.891 7.032 109.006 19.066 25.378 9.51 34.4 16.999 45.86 41.787-4.518 29.021-7.143 72.934-8.514 102.234-6.49 2.596-8.209 4.195-13.021 8.877-2.983 9.944-3.945 13.831-.141 23.484-30.635 57.789-61.847 109.241-95.842 164.894-10.512-7.202-21.555-16.187-31.305-24.392-3.015-11.149-4.554-26.502-5.956-38.217 18.237-31.031 40.412-78.716 55.308-111.45 6.322-14.975 42.885-99.287 38.55-109.67-.657-1.574-1.228-1.4-2.699-2.031-4.96 1.427-5.42 2.214-7.319 7.293-16.7 44.66-32.602 96.286-56.88 137.414-53.41-25.02-117.865-47.11-177.162-49.957 11.28-16.635 21.537-34.446 33.077-50.829 22.69-31.95 45.908-63.579 71.859-92.982 17.66-20.009 19.039-23.159 45.179-25.521m860.252-59.047c2.87-.346 5.89-.801 8.78-.709 51.58 1.649 181.73 128.594 217.89 166.828-36.48 16.925-94.08 47.215-126.86 70.876-35.23-63.561-77.61-124.849-126.14-179.023-1.37-1.521-3.04-1.369-4.85-1.539-3.21 1.634-2.09.757-4.12 3.799-.09 2.445-.35 3.884 1.43 5.951 20.15 23.509 38.51 46.937 56.72 72.023 43.77 55.522 87.75 139.357 112.44 204.69-15.46 6.235-35.29 17.034-50.58 24.845-1.82-3.951-4.64-8.558-6.99-12.295-25.54-40.772-44.82-85.576-72.53-124.968-19.7-27.999-43.42-53.58-65.23-79.995-24.61-29.319-64.29-69.672-33.2-108.744 21.16-26.588 60.96-37.255 93.24-41.739M857.788 724.41c6.879 4.601 8.911 5.867 17.01 7.275.327 35.539-.115 70.003 31.934 92.606 1.482 71.987-3.087 147.57-2.363 219.899.169 16.93-2.327 41.01.689 57.69.672 3.72 5.487 5.95 8.712 7.57l.444 16.71c-13.555 1.99-30.858 5.91-44.601 8.62-15.256-10.77-31.5-18.48-48.36-26.32-7.933-3.58-14.267-6.4-22.491-9.32-8.852-17.99-15.604-32.47-23.146-51.16-13.294-32.94-16.663-73.279-41.03-99.328.289-8.384 1.39-15.879 1.39-24.537 2.883-4.889 6.307-9.524 9.566-14.179 41.334-59.049 77.882-122.119 112.246-185.526m429.262-198.505c7.05 1.098 21.68 9.601 28.07 13.305 40.09 23.216 74.33 59.674 103 95.667 11.29 14.171 21.58 29.203 32.94 43.331-7.64 5.27-16.49 9.84-24.14 15.108-19.43 13.37-40.24 33.033-48.3 55.432-7.8-7.802-21.26-17.414-27.32-25.649-2.14-2.911-8.97-19.982-11.05-24.496a5298 5298 0 0 0-31.44-65.364c-3.82-7.84-16.06-35.494-22.24-38.321-3.58 1.042-2.29.295-4.79 3.448-1.51 5.432 11.14 28.358 14.22 34.626l30.73 62.694c15.73 34.007 26.39 67.912 38.92 103.182 2.49 7.003 12.74 35.494 12.92 41.64.33 11.442-4.42 36.559-6.23 48.972-8.75 6.142-25.97 12.631-36.22 16.604-8.22-22.642-20.45-50.336-29.91-72.877a3618 3618 0 0 1-51.63-126.846c-8.83-23.081-30.28-72.768-26.89-96.319 4.56-31.711 33.68-65.427 59.36-84.137m-198.32-142.563c19.2 1.248 47.83 46.166 53.82 63.845 23.62 69.669 34.38 148.919 44.02 221.397a547 547 0 0 1-28.6 3.661c-4.32-66.654-18.18-135.353-29.97-201.042a12.33 12.33 0 0 0-6.22-8.689c-9.4 2.449-.03 38.13 1.4 45.755 4.38 22.423 8.33 44.929 11.83 67.506 8.02 56.65 14.83 110.59 16.18 167.84-26.5 6.501-83.41 10.077-110 9.198-8.06-13.994-4.97-30.653-4.95-46.737l-.1-69.522.08-183.414c5.6-6.792 11.85-16.508 16.91-23.97 7.08 8.671 15.75 24.48 20.57 29.534 10.45.564 10.71-19.703 11.79-27.701 2.11-15.477 3.73-32.026 3.24-47.661"/><path d="M1112.08 640.585c5.59-.586 10.33-2.426 13.78 2.393.26 2.804.47 3.243-.99 5.694-7.92 3.83-37.22 4.012-46.85 4.356-7.04.229-9.91 1.897-14.24-3.641-.31-9.547 39.63-8.167 48.3-8.802"/><path fill="#fefefe" d="M966.943 379.883c2.787 13.997 1.038 75.774 12.885 81.451 5.721-1.891 21.162-27.15 25.872-33.868 6.39 7.661 13.39 17.974 19.22 26.258 1.43 15.474.29 32.821.24 48.553l-.04 90.834-.08 89.937c.03 16.839.42 34.736-.64 51.565-.17 2.787-4.76 14.868-5.96 18.129-32.564 1.704-72.009.489-104.019-5.535a941 941 0 0 1 6.436-98.648c11.985 2.873 46.451 4.261 59.671 4.399 3.589.037 4.671-1.537 6.56-3.792.027-9.134-42.352-8.747-50.33-9.377l-14.048-1.496c2.293-43.578 12.82-88.398 18.927-131.59 1.088-7.699 10.696-33.443 1.624-36.811-1.535.241-2.949.422-4.186 1.446-5.784 4.785-23.882 131.744-26.049 148.331-2.454 18.781-4.104 37.658-6.363 56.465-8.043-1.403-16.676-2.568-24.788-3.806-.214-21.543 2.361-55.319 5.415-76.648 10.326-72.114 9.594-172.984 79.653-215.797m598.067 284.716c16.92 12.848 75.94 128.896 94.84 156.969-9 23.391-30.7 69.579-33.54 91.931-2.63 20.619 18.05 118.331 22.84 145.701 6.29 35.96 11.05 75.31 19.69 110.46.65 2.78.65 2.89.63 5.75-2.74 2.49-4.92 2.08-9.16 2.79-8.85-29.31-23.96-58.71-35.31-86.25-2.42-5.88-2.47-44.89-3.93-55.96a563 563 0 0 0-50.39-171.949c23.4-74.329 20.3-84.849-12.84-152.925 6.43-15.576 7.09-30.115 7.17-46.517M530.301 917.686c4.42 13.421-1.201 39.081-2.54 53.681-2.333 25.448-7.266 58.493-9.977 83.143-3.008 27.34-22.833 118.54-19.85 140.76-10.254-9.62-13.916-16.04-21.233-27.79-26.333-43.39-31.7-81.17-31.946-130.45 37.291-32.29 63.956-75.557 85.546-119.344m1212.789 12.887c2.25 1.52 85.47 218.197 92.69 240.787l-17.06 7.3c-9.75 4.46-19.46 7.57-24.58 17.12-10.5-.54-22.1-.32-32.66-.19-3.91-82.68-13.76-165.78-19.61-248.37-.36-5.195-.2-11.633 1.22-16.647M1037.77 256.68c16.64 18.026 29.18 32.711 49.99 46.876 3.09 3.727 11.99-.078 14.52 3.829 11.53 17.85-6.44 26.551-19.39 26.657-3.46 6.593-7.43 18.396-10 25.702-9.73 27.634-42.81 31.042-66.69 21.531-20.735-9.732-24.552-29.902-32.817-49.894-30.014 3.79-26.481-24.081-19.327-28.108 5.282-.077 10.15 3.877 14.609 6.846 2.443-.655 1.396-.005 3.001-2.357.071-1.376.254-6.034.928-6.97 5.79-8.034 35.206 3.901 38.736-5.961-1.4-3.023-2.32-3.343-5.18-5.028 15.49-10.52 24.56-15.363 31.62-33.123"/><path d="m1026.09 289.608 3.93.919c8.02 6.251 3.22 44.546-1.04 52.793-3.46-1.164-5.18-1.344-7.41-4.194-1.58-6.575 2.39-43.513 4.52-49.518m24.35.768c5.45-.471 17.75.114 20.4 5.68-1.6 2.335-1.45 1.67-4.78 2.832-6.43.138-22.24.542-26.3-4.879 2.86-3.152 6.55-3.146 10.68-3.633m-35.35 55.093c4.93.004 15.52 2.034 19.25 5.732 1.71 1.699 1.09 3.322.98 5.582-9.21 1.511-20.5.255-20.23-11.314m-23.635-37.866a7.133 7.133 0 0 1 9.895 1.848 7.133 7.133 0 1 1-11.75 8.091 7.135 7.135 0 0 1 1.855-9.939m63.925-.786c9.9.563 15.45 5.892 6.3 13.275-6.18-.104-10.26-.692-10.93-7.466 1.32-3.389 1.66-3.466 4.63-5.809"/><path fill="#fefefe" d="m1110.17 1107.48 32.32.3c1.94 36.96 4.78 78.76 4.96 115.17-11.32-1.86-33.59-3.13-45.69-4.21-13.03-1.35-27.78-2.56-40.56-4.72l-2.6-106.05c16.96-.41 34.5-.27 51.57-.49m-177.617 1.94c4.927-.79 16.293-.45 21.626-.51 17.914-.18 36.048 1.08 53.931.04.26 5.21.49 10.66.4 15.87-.47 29.2 1.7 59.74-.35 88.81l-11.922 1.14a2690 2690 0 0 1-70.631 5.31c-.778-10.67-.307-27.84-.383-39.16l-.578-69.68c2.065-1.79 5.054-1.59 7.907-1.82m-234.482-17.94a1271 1271 0 0 0 30.753 3.74c14.916 20.46 36.817 49.72 54.226 67.4-16.066 4.94-32.692 10.76-48.711 16.05-18.573 5.25-46.758 17.88-63.48 21.3zm625.779 116.96c13.7-.62 40.18-.82 53.61.2-12.96 4-47.9 7.82-40.38 26.42 1.77 1.59 4.31 1.91 6.65 1.99 38.11 1.29 77.89.84 115.82 4.33 5.83 5.08 29.83 21.39 32.13 24.77l-.96 1.45c-11.04 4.79-29.73 14.97-41.57 20.72-38.72-7.7-67.6-16.49-104.31-30.93-15.43-6.07-28.56-9.83-44.18-17.18 7.26-7.95 18.28-22.46 23.19-31.77m22.71-709.427c5.64.317 20.41 13.838 24.79 17.694 47.3 41.631 80.69 94.881 107 151.537-5.09.812-8.94 1.747-13.94 3.007-4.06-5.154-7.81-10.596-11.61-15.955-25.05-36.725-66.45-82.735-101.52-110.569-11.38-9.028-34.41-21.608-47.36-28.541 11.35-6.458 29.99-12.442 42.64-17.173M698.043 1207.42c9.572-.87 36.791.54 48.109.63l51.634.17c10.198.03 25.979-.4 35.467 1.54l.191 1.19c-3.714 4.66-8.89 8.31-13.619 11.99-23.863-.24-62.301 8.95-85.929 14.24a961 961 0 0 1-66.431 12.9c-36.411 5.65-32.283 5.06-66.241-5.49-19.189-6.24-33.468-9.87-54.153-8.37-9.382-8.6-22.564-18.25-32.841-26.18 20.301-1 44.687 1.14 64.258-2.29-.744 8.17-5.318 19.98 1.875 25.46 8.053 1.02 15.961.19 24.054.09 34.521-.42 69.123.52 103.611-1.21a59.5 59.5 0 0 0 15.706-2.92c2.034-2.91 1.462-1.31 1.571-5.02-4.845-9.68-21.051-10.49-28.726-15.61zm1035.277 12.14c.99-.17 5.5-.9 6.16-.71 8.17 2.34 19.51 16.47 23.82 22.73 5.85 8.52 11.96 19.27 9.96 29.51-.93 4.77-4.98 9.93-9.05 11.83-33.42 15.54-83.27-5.69-115.03-14.63 3.55-4.08 6.72-7.22 8.82-12.2 19.55 4.52 40.21 9.03 60.15 11.76 4.41.6 9.26.31 12.48-3.05.78-3.21.73-3.6-.37-6.72-4.61-5.46-55.8-12.61-66.4-14.88 1.86-8.8 2.17-13.91 2.5-22.65 22.06-1.27 44.69.42 66.96-.99M520.909 823.773c1.956 2.029 4.618 60.791 5.445 69.088-22.188 48.785-39.542 80.313-76.658 119.809l-1.778 1.57-.947-1.05c2.172-51.028 43.936-148.896 73.938-189.417M1556.21 980.694c11.72 40.276 32.47 77.886 52.97 114.386-.01 23.85-7.13 60.4-13.76 83.16l-4.87 15.43-14.89.37c-3.93-35.7-6.59-72.76-10.37-108.71-2.83-27.01-10.2-79.43-9.08-104.636M429.695 1052.82c1.127 1.4 1.582 16.01 1.859 19.71 2.706 36.08 22.275 97.72 48.798 123.35q-15.548.42-31.102.45c-27.569.11-28.212-6.78-52.517-11.63 6.962-37.67 14.07-83.32 22.111-120.11 3.681-3.62 7.371-7.89 10.851-11.77m942.125-557.291c10.65-1.559 26.95.505 36.59 5.496 10.81 5.595 20.92 16.178 29.1 25.095 32.84 35.779 56.88 76.224 75.59 120.83 2.11 5.044 4.93 9.081 6.75 14.392l-1.64.594c-7.27.426-17.29.687-24.19 2.19-25.31-59.301-72.27-126.417-122.48-166.714zm-340.76 299.634 3.51 1.668c7.08 10.571 4.96 260.879 8.07 295.349 1.14 12.69 5.98 22.05 6.43 35.37l-9.32-1.98c-7.51-1.46-13.12-2.2-20.67-3.06-.54-16.6 4.63-22.17 4.63-39.47-.43-66.5.5-132.994 2.77-199.453.75-23.248 1.16-66.529 4.58-88.424M309.989 1026.56l1.025.83c1.861 3.96-6.5 118.67-7.609 132.73-12.325 10.82-17.325 18.43-25.953 31.88-5.464-5.72-10.282-8.4-17.057-12.38-4.954-2.2-10.771-3.47-16.07-4.82 5.229-17.37 16.688-44.27 24.48-61.62 10.884-24.23 27.501-64.79 41.184-86.62m1140.911 275.7c14.2 2.84 31.68 1.9 46.38 1.79 16-.1 32-.11 48.01-.05a68.4 68.4 0 0 1-10.69 19.73c-11.58 14.73-26.31 20.22-44.34 22.5-35.76 5.38-65.79-6.54-97.28-21.13 16.31-5.74 43.13-15.07 57.92-22.84m-959.76 8.17c5.737-.95 26.497 1.15 33.295 1.64a2668 2668 0 0 0 45.576 2.64c30.297 1.49 60.559.98 90.797 3.45 10.236.84 16.732 4.23 27.217 5.01l.796.06c-1.271 1.4-20.137 6.28-23.532 7.26-48.252 11.74-100.37 15.1-147.385-1.9-15.286-5.53-30.854-9.85-45.692-16.71zm239.966-342.538c12.66 17.413 20.585 60.918 28.346 82.478 5.628 15.63 11.711 27.47 18.367 42.55l-16.059-4.51c-9.823-2.92-17.884-4.28-27.948-5.84-8.011-11.58-17.095-22.37-24.477-34.38 9.554-27.58 14.399-52.33 21.771-80.298m123.125 308.078c2.29-.29 2.171-.32 4.418.17 3.743 10.04 5.461 13.87 16.475 17.36 24.004 7.61 49.132 3.02 71.364-7.74 23.898 4.07 47.858 7.76 71.872 11.08-14.18 4.66-39.27 7.36-54.281 8.85-30.46 2.29-59.206 3.65-89.728 4.66-32.676 1.08-48.984-.03-81.396-6.16 18.819-8.15 43.672-22.22 61.276-28.22m710.649-391.505c2.36 2.877 4.65 8.306 6.11 11.906 19.37 47.607 32.2 98.068 37.65 149.179.4 3.74 1.8 16.27.61 19.19l-1.56-2.1a570 570 0 0 1-14.73-27.03c-17.04-33.21-25.94-61.416-31.35-98.502-3.63-24.89-4.52-28.479 3.27-52.643m-509.62 417.745c7.11 1.75 31.75 11.87 41.13 14.97-6.56 3.24-20.45 6.97-27.71 8.84-51.23 13.2-110.789 9.04-163.438 4.38-9.239-.83-37.386-1.76-43.548-5.79l.25-1c.497.05.994.1 1.491.14 65.413 2.8 128.826-7.34 191.825-21.54m-568.075-67.8c8.72-1.03 26.885-1.63 35.292.73 2.322.65 7.571 4.3 9.756 5.8-10.201 3.54-26.601 9-36.146 14.17-18.046 9.78-35.513 20.4-53.678 30.28-2.86 1.46-8.747 3.15-12.055 4.21-10.576-9.4-20.015-17.2-29.311-27.94 33.285-16.07 49.15-23.76 86.142-27.25m136.361 35.94c2.653-.24 9.344-.83 11.661-.17 20.616 5.89 43.06 15.62 63.393 23.07-40.01 12.31-46.503 11.03-87.686 10.02a1779 1779 0 0 1-79.643-3.68c15.624-3.53 26.534-9.38 41.154-15.09 15.102-5.9 35.027-12.25 51.121-14.15m-337.053-61.86c5.537-.28 12.46-1.7 15.697 3.31-.618 6.3.068 10.91 7.21 11.63 11.809 1.18 27.067-.81 38.858-1.77 12.384 12.82 22.119 20.64 33.611 35-4.658 3.39-11.255 7.27-16.253 10.41l-5.429 4.11c-29.474-14.87-57.167-30.59-87.216-45.26 3.46-7.18 5.555-16.02 13.522-17.43m1003.717 42.65c35.62 12.07 70.61 28.78 107.11 38.85 9.81 2.7 20.51 4.24 29.76 8.39-4.94 1.3-7.78 1.73-12.84 2.41-67.2 6.23-82.71-9.13-139.81-33.39 5.64-5.4 10.47-10.55 15.78-16.26m93.93-120.24 1.95.64c2.22 5.07 9.59 49.34 12.34 60.2-13.53 2.03-34.03 1.38-48.25 1.32l-18.1-.19c9.58-14.96 16.01-31.97 22.38-48.48 7.91-4.25 20.87-9.38 29.68-13.49m-841.481 121.24c5.117-.59 21.297 14.13 28.971 18.98-36.023 11.87-44.762 23.41-86.38 23.05-11.49.03-20.121.02-31.503 1.25 30.808-18.62 53.521-34.74 88.912-43.28M1717.65 802.969l1.38-.02c1.47 2.061 8.81 16.199 9.46 18.489 2.7 9.481 27.48 39.108 27.66 45.17-5 9.026-17.85 1.293-25.43-1.892-24.7-12.449-34.22-21.488-49.89-44.331 11.06-3.93 25.95-11.914 36.82-17.416M1443.8 464.134c13.8.988 17.01 6.244 23.49 17.328l12.99 3.667c-7.58 12.972-9.02 24.961-11.64 39.499-2.86 2.657-6.39 3.028-10.31 3.988-7.25-2.884-23.86-23.35-35.74-31.877 10.13-14.55-4.13-27.436 21.21-32.605M464.702 1209.49c9.174-.31 21.088.37 30.469.67l8.282 9.2c-39.179-2.82-68.158 8.62-101.859 26.67l-7.663 4.07c-9.995-12.7-16.468-17.78-26.826-29.21 18.664-1.81 40.519-.33 59.689-2.88 6.735-.89 9.878-4.93 14.068-6.86 3.912-1.79 18.627-1.57 23.84-1.66m-196.115 31.02c7.318 2.44 69.689 35.42 72.256 39.03l-3.109 1.02c-34.172 9.37-81.179 9.06-69.147-40.05m335.479-788.491c18.257-.836 11.722 11.358 23.18 15.66 3.652-.344 7.516-4.166 11.18-6.196 3.464-.036 2.247-.481 4.978 1.298 3.552 8.476-9.528 19.861-13.583 27.273-2.624 4.796-3.136 6.314-4.792 11.705-3.43 6.458-4.357 7.709-9.176 13.386-5.992-17.422-15.348-31.52-25.411-46.724-2.605-3.935 9.403-13.575 13.624-16.402M1621.07 1118.89c7.67 10.93 22.09 50.32 27.39 63.79-3.85 3.39-9.69 9.75-14.21 10.28-10.24.4-18.75.67-28.97.3 8.58-26.71 11.83-46.98 15.79-74.37M993.363 386.583c23.237 12.055 44.677 14.728 68.637 2.11-4.58 12.959-7.3 17.944-14.27 29.294-5.35 8.116-10.99 17.246-17.32 24.49-15.43-20.111-25.83-33.487-37.047-55.894M1498.43 588.05c7.97 2.524 46.34 50.265 53.34 59.602 1.33 18.27 2.47 29.649-.66 47.886-.95.095-1.17-.137-2.2-.466-7.74-13.132-14.28-23.866-19.33-38.275-5.42-15.48-13.26-30.547-20.08-45.444-3.14-6.858-9.01-16.366-11.07-23.303m-674.833 651.11c20.078-.93 38.975-.15 57.613 7.67-7.824 4.55-27.509 13.41-35.89 16.23-24.051 7.93-31.163 4.67-55.298-3.18 14.45-7.21 22.671-15.03 33.575-20.72m195.983-101.89c10.54 1.27 18.77 2.65 29.19 4.7.3 17 .76 34 1.38 50.99-9.89-.33-20.13-.32-30.05-.42zm-303.184 120.15c12.444-1.92 29.58 2.35 41.41 6.53-11.407 7.37-28.467 17.2-41.027 21.27l-10.403-4.22a432 432 0 0 0-46.607-16.33c15.019-3.05 41.129-5.68 56.627-7.25m457.454-525.802c3.33-.392 4.91-.464 8.26-.385 2.24 4.811.35 15.401-.2 20.757-2.21 21.302-4.05 38.032-17.82 55.427-1.02.995-1.93 1.561-3.08 2.386l-.78-.778c-2.08-15.417 1.41-60.197 1.76-77.002 4.46.08 7.42-.063 11.86-.405m-305.089-49.775c7.292-.22 27.21 3.52 37.195 4.391-1.139 9.206 1.352 31.12-5.133 36.577-3.376.207-3.697.138-7.042-.559-10.123-.036-16.248-.255-26.055-2.695l-2.223-12.457c5.015.035 8.993.827 12.918-1.559 1.118-2.938 1.078-3.042.204-6.169-5.058-4.614-11.028-1.671-13.284-8.869.681-4.405.978-4.909 3.42-8.66M748.706 1098.81c11.679 3.88 27.456 6.66 38.168 11.35 1.156 1.93 27.387 42.96 27.011 41.19l-2.095 1.42-14.42 4c-17.923-20.08-32.165-36.71-48.664-57.96m467.284 209.52c7.73-.88 24.38.46 32.85.91 16.27.87 32.55 1.55 48.83 2.04 21.49.6 44.95-4.25 62.48 9.4-29.11 5.81-118-.93-144.53-10.09zm-59.73-147.88c14.34 2.65 82.48 26.59 89.98 33.36-20.3-.73-41.11-.49-61.22-2.53-6.34-5.48-20.35-13.48-27.8-17.95-.91-4.39-.85-8.41-.96-12.88m37.41-481.992c2.16 3.68 3.53 9.009 1.83 13.077-4.91 4.05-9.51-1.08-12.74 5.22-.01 2.708-.27 3.594 1.29 5.803 3.35 1.759 6.22 1.139 10.1.907.39 2.064.75 4.135 1.07 6.211 1.71 11.661-11.37 10.24-19.69 10.919l-13.25.592c-1.51-9.026-2.11-27.831-2.92-38.055 12.37-1.591 21.79-2.593 34.31-4.674M778.844 1267.72c10.494 1.88 22.601 7.65 37.963 10.14-14.661 8.34-26.108 13.78-41.603 20.6-4.023 2.4-31.881-5.99-38.083-7.68 14.009-7.01 28.638-14.49 41.723-23.06M422.472 825.597c13.388 5.319 25.803 10.02 39.805 13.456-4.102 10.611-10.506 24.902-15.349 35.105l-6.586 13.057c-5.07-15.93-15.732-40.837-19.054-58.217zm462.725-92.211q9.296 0 18.584-.416c-.433 24.557 2.623 51.663 2.118 77.382-19.368-15.83-21.003-53.544-20.702-76.966m131.533 501.624c12.52 2.8 25.04 7.63 36.91 12.48.78 7.53 1.49 13.94 2.79 21.43 9.48 1.93 21.59 2.65 30.67 6.49 2.26.96 2.04 2.28 2.73 4.81-19.38-3.41-52.77-12.34-71.96-17.37-1.55-10.27-1.91-17.52-1.14-27.84M866.312 497.892c13.722.001 9.437 6.434 16.737 8.379l3.21-2.468 1.13.677c.264 5.451-3.775 35.971-6.759 39.137l-2.266-1.777c-9.338-9.607-17.295-14.212-26.913-21.932-7.422-5.956 9.218-18.474 14.861-22.016m624.498 718.038c15.79 2.86 36.68.97 52.71 2.55 9.96.98 25.02 6.97 34.99 10.6-2.31 4.01-3.45 5.18-6.44 8.51-3.59 2.42-7.17 4.31-10.95 6.4-18.02-4.81-48.3-21.05-70.31-28.06M435.936 729.888c.083 3.925-10.486 36.281-12.141 43.241-3.274 13.77-6.707 29.069-9.792 43.06-1.609-3.77-2.96-8.047-4.299-11.951-2.805-9.889-6.611-20.514-9.612-30.749 9.703-9.575 25.675-31.745 35.844-43.601m430.909 419.162c4.332.25 22.714 13.51 27.989 16.92a115.6 115.6 0 0 0-28.725 19.19 1292 1292 0 0 1-28.424-26.55c9.533-2.74 19.693-6.37 29.16-9.56m35.054 60.38 12.985-.72c-.324 4.68-.051 8.15.235 12.82-6.511 5.21-13.768 10.25-20.565 15.14l-14.098-4.1c-8.978-4.02-13.138-7.79-20.681-13.92 12.865-5.57 28.139-8.52 42.124-9.22m363.811-2.58c1.95-.01 40.3 1.01 39.34.74l.6 1.3-.18-.93c-.46 5.23-11.85 18.28-15.87 23.37l-1.96 1.83c-3.21.82-20.73-7.47-25.97-8.52-4.46-.89-7.99-1.61-12.9-2.21 6.01-5.28 11.22-9.97 16.94-15.58m332.29 31.08c13.13 2.68 33.12 10.46 48 14.21-4.22 5.04-7.13 10.01-13.06 11.17-12.46-1.8-25.15-3.72-37.49-6.17-5.22-1.04-10.28-2.17-11.08-7.97 2.51-5.94 8.08-8.25 13.63-11.24m-363.33-4.82c15.99 2.7 28.37 4.88 43.07 12.38-4.58 5.15-10.17 10.79-14.96 15.85-3.73-.51-22.28-10.19-27.44-12.24-6.41-2.55-10.56-3.87-17.4-5.81 5.52-3.49 11.1-6.88 16.73-10.18m248.47-6.53c3.28 1.84 14.64 6.21 18.54 7.74 12.21 4.8 22.51 9.29 34.24 15.12-2.68.91-6.1 1.7-8.9 2.42-6.55 1.82-14.01 5.14-20.39 7.76-3.53-2.72-23.9-17.92-25.38-20.39 1.33-4.91 1.68-6.37 1.85-11.47zm-114.56-322.545c2.38 2.627.49 10.42-.05 14.314-1.94 14.034-2.56 27.483-2.67 41.652-4.1-5.306-5.6-7.602-8.78-13.507-5.72-10.6-10.27-20.639-15.24-31.573 8.46-2.394 18.59-7.232 26.74-10.886M1158.9 1213.54c10.74 3.25 43.97 12.15 51.72 15.28-.99 2.72-3.62 4-6.09 5.71-3.65 1.74-10.95 4.25-14.99 5.76-13.13-3.34-19.6-.5-28.93-9.14q-.975-8.79-1.71-17.61m-367.536-39.57c2.823.73 17.097 15.4 21.267 19.13l-58.529.21c-7.343-.02-14.942.21-22.306.34 20.287-6.41 39.558-12.44 59.568-19.68m542.526-18.01c.11 5.95-13.8 30.84-17.66 36.93-10.93.47-22.58.36-33.58.43 1.09-4.1 45.33-33.84 51.24-37.36m27.28-405.568c5.31 2.68 11.8 11.074 20.6 15.855 1.81 6.41 4.44 12.236 7.03 18.358-1.03 10.53-2.12 17.777-4.13 28.173l-.83 1.897-.72.007c-2.85-4.518-19.93-56.394-21.95-64.29m-99.43 528.498c6.4-.52 36.98 14.64 43.87 18.35-11.38-.34-22.7-.42-34.11-.82-14.99-.42-29.37-1.28-44.43-.93 14.1-5.34 21.78-8.83 34.67-16.6m112.65-215.13c1.69 1.7 8.45 44.78 10.02 51.39-6.19 2.08-9.86 3.65-15.8 6.42-2.74 1.58-4.54 3.09-7.57 2.84-.34-1.72 12.12-55.25 13.35-60.65M979.307 375.785c2.044 2.647 4.16 14.885 6.172 19.178 4.406 9.401 9.767 17.002 15.491 25.605-5.039 4.268-6.721 5.883-10.906 10.944l-7.047 10.464c-1.507-12.904-7.007-55.142-3.71-66.191m218.533 877.465c.66.04 1.33.09 1.99.14 10.37.82 40.57 9.19 47.07 16.82l-.35 1.59-3.45 2.13c-3.97 2.06-10.26 4.54-14.53 6.37-8.03-9.63-26.65-20.06-30.73-27.05M452.691 675.922c-1.075 22.614-41.379 66.981-56.891 85.727-.309-2.184-.911-3.374.079-4.978 4.566-7.395 10.617-15.232 15.65-22.382zm278.886 181.47c8.132 7.271 14.629 12.191 23.486 18.424-3.747 6.928-5.701 10.109-10.402 16.408-3.109 4.018-6.286 9.4-9.038 13.79-.523-17.162-3.235-31.967-4.046-48.622M717.929 1300.2c5.162-.87 23.13 5.61 28.819 7.5-7.997 2.55-21.918 9.35-28.528 7.59-10.002-1.21-21.529-3.14-31.255-5.73 10.002-3.45 20.691-6.91 30.964-9.36m287.171-27.89c6.9 1.02 22.29 6.29 29.53 8.14 12.16 3.1 23.76 5.69 36.03 8.31-14.79 1.12-18 .1-32.43-2.63-23.39-1.26-45.398-7.1-68.675-9.07 11.935-1.99 23.203-1.7 35.545-4.75m-181.395-109.16c6.598 8.88 17.824 20.98 25.531 29.22-4.971.53-10.57.84-15.607 1.23-8.72-8.02-17.312-16.81-25.728-25.2zm252.585-782.504c3.76 11.782-.85 44.368-2.29 58.054l-5.53-7.425c-2.95-3.211-6.2-7.655-8.92-11.175 7.82-14.47 11.03-23.832 16.74-39.454m7.37 872.934c6.9 2.76 23.37 17.46 32.04 22.27 7.63 4.24 30.93 10.95 34.84 14.61-13.16-.13-35.91-3.99-48.57-7.62.76-6.59.56-8.43-.21-15.1-8.91-6.08-16.29-3.22-18.1-14.16m471.66 5.66c2.88-.11 3.61-.39 5.99 1.25l.03 1.95c-3.95 5.94-15.34 12.19-21.76 16.08l-8.76-3.32-12.39-5.62c12.06-4.23 24.39-7.68 36.89-10.34m-745.619-139.78c5.758 1.18 37.789 16.36 40.432 20.21l-2.349 1.34c-6.431 1.58-12.968 3.37-19.388 5.04-5.903-8.89-11.944-18.39-18.695-26.59m288.609 176.62c9.78.2 38.45 6.83 49.85 8.59l-17.91 2.82c-16.87 5.84-26.82-.88-43.35-7.54 3.7-1.1 7.73-2.6 11.41-3.87m542.19-77.19 12.98 1.27c-.29 7-1.16 12.14-2.26 19.01l-11.47-3.41q-9.9-2.685-19.74-5.58zm-384.8-706.724c10.71-1.43 11.29 1.238 16.73 9.924l-12.59 11.518c-2.64 3.16-4.15 6.428-8.39 5.142-4.58-6.969.09-20.031 4.25-26.584M788.076 1240.34c3.377-.38 3.88-1 6.52.16-1.641 4.36-22.661 14.34-27.795 16.89l-10.054-4.49c-4.007-1.35-9.983-2.79-14.202-3.94 11.636-1.38 31.709-6.54 45.531-8.62m788.454 25.11c12.4 3.93 23.44 6.27 36.17 8.77l-14.97 3.83c-11.1 2.01-21.61 4-32.93 3.81 5.04-6.27 7.44-9.53 11.73-16.41m-374.38-59.83c4.08-.67 38.55.17 45.29.16l-9.79 7.33-9.09 7.35c-10.01-2.77-18.69-7.91-26.41-14.84m-296.46-29.84c11.046 2 9.411 8.26 8.976 17.41l-21.915-.54-13.369-.88c9.039-5.17 17.778-10 26.308-15.99m598.99 101.14c1.48.15 18.08 11.04 21.54 12.83-6.62.43-13.33.45-19.97.55l-25.21-.36c7.98-4.68 15.26-9.08 23.64-13.02m96.37-69.87c8.59.78 20.43.22 29.08-.08-4.31 3.84-5.73 4.86-10.68 7.83-2.05 1.18-4.11 2.32-6.19 3.43-5.43 2.88-12.62 6.09-15.66-.93.06-4.24 1.56-6.44 3.45-10.25m35.32 72.94c7.57 2.88 23.28 6.31 33.12 9.58-9.5.21-19.22.19-28.74.27-8.15.09-19.43.05-27.72-.01 5.4-3.34 14.58-5.15 22.14-9.2zm-725.101-138.66 2.057-.1c3.137 4 2.654 14.46-4.623 16.76-4.109-.17-6.017-2.19-9.237-4.69-3.648-2.27-7.943-5.38-11.565-7.85 7.564-1.5 15.724-2.78 23.368-4.12M388.785 1269.8l1.567.44c6.32 8.53 11.425 14.26 19.632 20.88l-9.216-3.01c-9.139-3.16-15.472-6.26-24.181-10.44zm630.155-62.37c9.39-.42 22.23.25 31.6.85-.03 4.8-.33 9.01 2.47 12.87-6.16-1.81-30.05-9.76-34.07-13.72m-453.384 42.69c7.196-.06 30.603 6.16 36.744 9.88l-.556 1.25-12.562 3.12c-9.932-4.35-15.051-7.39-23.626-14.25m-328.092-41.77c5.997-.61 22.038-.21 27.942.72l.431 1.19-3.668 6.3-1.712 2.6c-4.183.95-18.013-8.21-22.993-10.81m535.49 103.71c4.409-.34 16.818 3.03 20.986 5.02-2.031 1.23-6.094.41-8.704.15-8.081-.09-16.078-.06-24.128-.8 3.961-1.27 7.948-2.88 11.846-4.37m802.336-103.7c4.45-.66 6.19-1.38 9.41 1.72l-.05 2.34c-2.62 2.72-1.25 2.07-4.89 2.45-3.09-.81-10.17-2.55-12.1-4.73 2.53-1.85 4.15-1.43 7.63-1.78m-871.037-142.67c2.174 2.46 9.652 11.09 10.038 13.91-4.28-.64-8.556-1.3-12.83-1.99zm280.555 188.14c2.32 2.09 2.32 4.98 1 7.5-3.776 2.12-8.108 2-12.456 2.27l-.815-.7c2.9-3.45 8.322-6.53 12.271-9.07m-683.12-71.12.91.94c1.599 6.79 1.37 9.91-5.375 12.09-.608-.6-1.332-1.66-1.872-2.38.82-3.8 3.956-7.36 6.337-10.65"/><path fill="#454547" d="M1025.26 1224.91c8.35.21 20.05 5.36 27.41 9.08-6.56-.88-21.46-6.07-27.41-9.08"/></svg>