<svg xmlns="http://www.w3.org/2000/svg" preserveAspectRatio="xMidYMid meet" viewBox="0 0 2048 1152"><path d="M82.52 77.463c7.371-9.32 15.005-12.755 27.042-12.601 20.041.255 40.002.16 60.05.104q71.137-.384 142.272.47l282.608.433 982.468 2.31 280.01 1.188c33.56.085 67.2.134 100.76.698 8.21.138 13.93 7.344 18.05 13.5.69 8.268-.14 15.793-.21 24.037l-.42 54.698-3.08 224.803-6.2 437.834-1.53 155.201c-1.1 60.222 11.79 70.942-61.9 71.752-50.1.55-100.92-.24-151.07-.44l-288.98-.34-195.67-.03c-13.98-.04-27.96.1-41.94.41-8.39.16-20.03 1-27.94-.29-1.9-3.25.22-7.64-.49-10.69-4.47-19.18-53.75-13.25-60.72-19.18.87-4.42 1.91-9.4-.63-13.43-2.71 2.71-.9 10.53-.36 14.34-.37 3.06.07 4.95 1.74 7.24 11.56-.63 48.86.49 51.19 14.83-2.93 18.74-97.51 46.59-113.23 32.63-5.58-8.13 5.19-58.26-2.19-66.57l-1.69.21c-.11 5.56 1.08 30.29-.38 32.9-8.66 15.38-62.25 6.65-73.546 1.99-.412-3.09-1.69-16.92-1.289-19.66.987-6.76 2.281-11.23 2.587-18.63-2.125-.29-1.413-.23-3.738 1.46-8.036 14.63 5.258 62.04-6.308 70.88-12.366 3.49-30.728 1.79-45.447-1.04-12.731-2.44-67.386-17.8-64.87-36.81 2.118-16.01 47.961-10.41 53.192-13.6 1.161-2.59.932-3.11.281-5.92l-1.897-.86c-21.292 5.27-30.574-1.84-53.22 12.17l-5.461 9.22c.598 3.89 1.635 5.76.3 8.92-6.064 3.35-36.544.43-45.931.33l-92.435-.16-478.501-1.77-130.189-.82c-7.912-.01-24.386 2.39-28.507 1.63a24.17 24.17 0 0 1-16.132-10.87c-6.414-9.97-3.284-79.456-3.066-95.567l.663-90.877.461-149.893 2.228-418.825c.63-50.255-1.238-101.404 1.074-151.856.797-17.383-1.503-39.102 2.191-55.459"/><path fill="#fefefe" d="M163.072 99.158c15.118-1.453 53.895-.218 70.023-.017l102.565.257 388.49 2.224 698.8 2.631c158.93 1.541 317.87 1.748 476.81.622l-426.77 227.718-195.55 105.799c-31.72 17.153-69.89 39.761-102.08 54.763-9.21-39.545-12.14-82.553-22.75-122.079-5.68-21.144-11.17-33.45-29.98-45.861-3.9-15.986-10.71-30.278-28.37-16.149-4.06-1.397-8.75-2.696-12.91-3.953 2.33-7.253 4.44-17.894 6.17-25.561 22.16-9.543 30.41-23.852 2.71-34.278-6.47-19.606.41-43.012-22.76-57.547-29.54-18.532-73.966-4.222-78.678 32.526-.899 7.013 2.413 25.055-.674 29.993-11.924-1.101-19.737 4.141-17.988 17.223 1.568 11.725 15.258 9.786 22.032 14.273 1.716 4.188 3.054 18.14 3.698 23.422-5.019 1.593-10.834 3.875-15.86 5.697-16.979-15.222-27.412-7.275-27.975 13.603-9.679 6.522-17.601 13.547-23.706 23.68-15.798 26.219-40.522 170.347-42.183 205.914-.389 8.331.09 15.92 2.152 24.027-11.436 7.793-29.362 17-41.954 23.856a5107 5107 0 0 1-63.053 34.041c-11.092 5.812-26.939 13.421-36.923 19.952 9.514.867 18.697.17 28.215.101l55.983-.588c34.409-.148 69.379.521 103.794-.937 4.554-.193.974-18.934 3.465-22.867l3.685.663c2.05 6.314-6.319 86.34-7.056 97.52l-6.119 87.967c-1.123 16.259-1.769 34.097-3.526 50.081l-286.499.993c-34.369-.079-68.598.771-103.051.081l-109.894.144c-6.223-.051-55.124-.997-58.008.428-59.529 29.418-117.807 63.169-177.016 93.612-22.29 11.461-43.571 24.554-66.324 35.232 2.657-26.313.112-70.636.052-98.342l-1.122-213.866-2.862-568.824c20.596 10.897 48.858 29.876 69.898 42.422a17648 17648 0 0 0 200.974 120.131c27.08 16.082 58.372 36.667 85.36 51.001-1.052 5.305-1.18 20.195-1.407 26.522a1837 1837 0 0 0-1.559 62.366l-2.452 134.342c11.231-3.485 53.296-8.552 67.177-10.632l171.577-24.473 66.995-9.851c11.286-1.663 39.299-9.393 46.166-.073 10.597 14.381-27.971 15.535-33.895 16.349a4165 4165 0 0 0-50.067 7.558 11345 11345 0 0 1-207.351 30.662c-9.728 1.365-54.954 6.408-59.89 8.829-1.296 4.914-1.428 44.132-1.58 52.066a6379 6379 0 0 0-2.084 136.659c3.455 2.959 8.069 5.708 11.958 8.189 33.169-15.543 66.024-34.713 98.3-51.919l171.772-90.973 85.245-44.686c14.117-7.282 30.404-14.884 43.763-23.217 4.499-2.806 2.03-21.299 3.077-29.095l.14-1.005c-5.006-4.774-8.903-7.396-14.687-11.005-38.763-24.184-78.69-46.665-117.508-70.716a22515 22515 0 0 0-353.285-211.765 12490 12490 0 0 0-233.64-135.86"/><path d="M893.404 680.541c4.883-1.366 35.218-.62 41.051-.221-3.345 20.738-4.22 49.136-6.091 70.522-1.131 12.926-4.666 45.136-3.777 56.175-24.164 1.459-60.804.161-86.197.296q-94.474 1.256-188.956.959l-93.874.917c-8.542.094-37.946.942-43.825-.449-16.057 1.692-37.303.263-55.165 1.26 13.039-9.388 41.247-22.171 56.249-30.257 59.783-32.225 119.714-64.2 179.17-97-.899.495 34.971.189 38.055.134l115.187-1.732c15.395-.255 33.117.461 48.173-.604"/><path fill="#fefefe" d="m1929.77 125.84.86.107c.87.73 1.42.751 1.39 1.882-2.7 135.486-5.35 271.135-8.17 406.665l-4.99 288.305c-.33 16.34-1.4 175.628-2.81 177.471-20.3-10.559-39.22-21.94-58.96-33.183a7955 7955 0 0 1-103.84-59.872c-11.03-6.441-62.04-37.132-70.21-39.384-10.84-2.988-75.02-.76-90-.735l-326.9.966-93.21-.154c-8.7-.101-22.54.632-30.1.004-2.47-2.325-1.83-3.082-2.43-7.151-1.44-38.379-2.19-77.422-5-115.738l-5.63-77.875c-.47-6.172-2.77-31.417-2.2-35.436l2.99-1.585c5.67 2.638 1.28 13.845 4.13 20.957 2.27 1.476 5.73 1.995 8.41 1.982 52.99-.255 105.65-1.399 158.63.014-8.64-6.859-28.65-17.226-38.83-23.121a2608 2608 0 0 0-87.94-49.729c13.75-22.273 4.67-52.445 1.13-79.224a18230 18230 0 0 0 268.69 30.963c28.47 2.853 56.93 5.885 85.37 9.096 11.84 1.361 31.43 3.143 42.54 5.866.78-14.807.18-31.84.13-46.869l-.04-72.712c-.15-34.173 1.35-73.126.05-106.736 3.08-4.989 133.29-73.108 149.11-81.471 69.72-36.948 139-74.718 207.83-113.303"/><path d="M1189.34 522.774c10.88-.206 45.97 5.526 58.22 6.99 29.8 3.562 60.14 8.097 89.94 11.813l147.05 17.599c21.22 2.432 68.98 7.048 87.96 11.753.72 40.083-.16 81.228.21 121.431.09 10.125 1.06 47.088.27 53.613-3 9.384-10.31 11.634-19.07 12.925l-.54-.23c-15.09-6.622-32.42-17.122-47.38-25.225l-97.27-53.054-135.48-74.125c-26.91-14.555-60.42-31.274-86.17-46.74-.4-10.047-3.36-28.74 2.26-36.75m82.67 154.793c3.12.537 19.9.214 24.04.175l57.96-.918c11.65 10.001 46.44 28.776 60.41 36.764l96.97 55.666c19.43 11.036 41.69 22.438 60.19 34.587-47.31-.911-100.3.507-147.83 1.011-3.38-.149-7.05-.633-10.37-.597-77.68.856-155.41 1.441-233.11 1.639-11.79.03-24.2.333-35.9-.604-1.68-10.099-8.39-121.676-7.03-124.82 9.7-2.708 35.93-1.596 46.99-1.67 29.23-.094 58.46-.505 87.68-1.233"/><path fill="#fefefe" d="M953.393 632.831c43.864 5.41 118.817 3.931 162.517-.321 2.16 13.476 2.99 31.517 4.11 45.404 2.63 31.965 4.74 63.97 6.31 96.005 2.7 46.243 4.12 92.553 4.24 138.875.2 22.822.43 60.845-2.12 83.141-20.01 11.145-33.91 12.625-54.91 2.542-2.93-16.218-4.59-62.879-5.63-82.102-2.9-53.73-9.52-109.017-12.08-162.295-2.01-16.452-1.15-40.974-5.2-57.101-.58-1.189-3.15-2.731-4.3-3-27.58-6.428-23.36 4.201-25.41 22.442a4043 4043 0 0 0-4.95 43.914c-7.17 65.222-12.23 130.539-19.554 195.739-1.482 13.187-1.558 27.136-4.675 39.994-11.185 14.992-41.779 7.942-56.741 1.971-5.409-90.764 4.55-185.435 11.311-276.054 2.191-29.357 6.034-59.91 7.082-89.154m84.757-278.274c16.55-2.544 55.2 2.911 56.95 24.25 2.65 32.365.29 66.639-.05 99.251-23.35 8.225-46.29 9.875-70.8 10.087-22.09-.037-36.381-1.329-57.489-7.154.456-25.286.979-50.883 3.793-76.053 1.539-9.83.186-26.777 7.502-34.254 13.417-13.71 42.674-15.445 60.094-16.127m-94.804 167.655c2.988.847 8.138 3.174 11.196 4.453 1.513 35.866-.645 53.688 42.959 55.043 30.369.943 75.069 2.145 102.059-13.161 6.44-3.649 6.05-33.796 6.4-42.206 7.62.285 15.24-.325 22.72-1.819 2.03 19.21 3.66 38.46 4.9 57.737 1.15 12.083 1.26 24.297 1.53 36.435-55.59 9.427-145.366 8.834-200.762.673 1.269-8.53 1.61-23.099 2.358-32.25q2.83-32.502 6.64-64.905"/><path fill="#fefefe" d="m1092.51 490.006 2.28.37c2.19 4.193-1.54 61.71-1.96 70.653-2.08.855-4.19 1.649-6.31 2.381-24.75 8.497-91.976 12.622-116.419.685-5.421-15.757-4.19-54.982-3.877-72.48 38.026 10.941 88.626 9.94 126.286-1.609m26.36-155.179c6.41 5.104 12.04 10.694 15.92 18 5.31 9.994 8.06 22.318 10.54 33.309 5.59 24.747 30.47 162.427 25.3 178.755-3.45 10.89-15.68 20.802-25.49 26.032-1.61-20.431-2.46-40.303-5.01-60.676a1654 1654 0 0 0-4.71-60.094c-.7-7.225-.39-20.903-7.78-23.69-3.24 1.309-6.55 4.553-5.9 8.345 3.38 19.699 4.61 39.707 6.41 59.627-8.3.318-13.94.411-22.08 1.989-.12-38.388 1.59-77.81 1.27-116.338-.07-7.89-2.62-26.028-1.57-31.491 1.52-7.969 9.56-25.249 13.1-33.768m-162.967.94c3.187 1.656 12.743 20.817 15.131 25.316-10.526 11.679-8.855 25.322-11.144 39.758-5.777 36.433-1.483 75.661-5.638 111.754-2.434 1.714-2.441 1.045-6.083.559-10.607-8.891 14.102-83.1 1.688-86.037-.62.3-1.212.619-1.752 1.055-8.66 6.995-14.275 74.932-15.771 88.733a2060 2060 0 0 0-6.872 79.051c-7.29-2.109-17.905-5.721-22.3-12.301-10.181-15.244-5.006-50.359-1.605-69.189 9.179-50.823 17.656-109.005 34.948-157.525 2.276-6.387 13.923-17.085 19.398-21.174m78.587-145.613c59.1-5.698 44.78 77.993 37.55 113.138-7.06-1.223-21.92-3.717-28.81-2.747-5.82-1.594-30.18 1.317-36.98 2.326-3.71-41.884-26.214-101.583 28.24-112.717"/><path d="M1030.35 196.25c10.44-1.299 24.01 2.207 31.36 10.001 9.66 10.245 11.43 27.818 11.11 41.592-.32 14.078-3.24 34.245-13.35 44.796-4.1 3.914-9.4 3.324-14.72 3.163-6.83.616-19.98 1.514-25.95-1.334-9.93-13.699-12.23-43.499-13.83-59.835-2.1-21.392 5.02-32.912 25.38-38.383"/><path fill="#fefefe" d="M1024.87 311.371c3.39.511 14.61-.064 18.79.079 17.62.601 32.4 1.944 48.78 8.69-3.58 6.336-9.18 21.317-12.14 28.627-8.64-2.945-13.97-4.091-23.06-4.658-18.69-1.901-40.47-.201-58.796 3.824-4.552-8.432-8.975-18.619-13.036-27.421 16.192-5.884 22.422-7.352 39.462-9.141m-82.142 714.909c18.159 5.53 19.741 6.42 38.189 2.36.175 13.68.555 27.35 1.137 41.02-18.193 2.92-30.363 1.11-47.824-4.02-15.58-3.34-32.941-11.69-45.669-21.34 12.911-6.19 36.06-4.7 51.461-5.55.881-4.16 1.783-8.32 2.706-12.47m79.812-222.335c10.93 5.035 20.03-.318 25.01 3.179 3.3 14.546 5.89 60.643 6.72 76.787l-7.31-11.873c-30.59-18.077-29.31 18.287-31.38 37.161.47 7.24-2.59 26.456-3.07 34.843-.12 2.051-1.34 2.941-2.83 3.807-1.18-1.661-1.09-6.175-.83-8.217 4.63-36.008 7.11-72.286 10.61-108.419.85-8.774 1.13-18.746 3.08-27.268m99.06 223.175 1.21-.23c1.8 2.2 1.45 6.68 2.53 10.97 1.25 1.43 1.88 2.71 3.96 2.65 18.2-.5 28.89-.77 46.42 5.35-15.98 7.2-29.03 11.89-45.5 17.33a182.3 182.3 0 0 1-46.48 6.89c-.11-13.05.76-27.34 1.08-40.53 16.83 1.98 20.74 2.46 36.78-2.43M963.846 313.46c10.122 2.989 16.989 24.3 21.488 33.039 1.643 3.193 1.516 4.225.207 7.251-2.184.769-2.068.764-4.374.62-7.72-5.936-19.152-30.364-17.321-40.91m141.524.08c11.65 6.81-3.99 35.383-8.43 45.239-2.76-1.716-4.1-2.312-5.92-5.107.23-1.706 13.24-38.171 14.35-40.132m16.39 697.76c.37.71.65 2.28.85 3.15-5.65 7.12-31.99 8.42-38.57 1.74 3.05-2.81 4.98-.61 9.98-.18 8.81.76 19.23-2.51 27.74-4.71m-178.875 1.96c16.398 2.68 21.963 2.74 38.15 1.02l.846 1.23-1.104 2.5c-10.157 2.08-31.573 5.97-37.892-4.75m37.095-752.115c3.407.031 6.611-.26 9.573 1.418 1.944 3.419 1.259 3.042 1.035 7.63-6.259-2.013-9.575-2.355-10.608-9.048m109.58-3.936c3.08.387 4.37.295 6.96 2.024.1 3.299-.71 3.27-2.94 6.49-2.57 1.579-1.79 1.645-4.24 1.414-1.47-2.918-.35-6.458.22-9.928"/></svg>