<svg xmlns="http://www.w3.org/2000/svg" preserveAspectRatio="xMidYMid meet" viewBox="0 0 2048 1152"><path d="M788.79 55.533c28.901.98 58.646 1.532 87.567 1.7 18.7.11 37.524-1.157 56.449-.94l466.684 1.985c14.38.042 28.97.977 43.28.858 18.3-.154 36.17-.513 54.51.113l103.01 3.283c8.86.267 17.01 1.29 26.26 1.484 30.13 1.058 59.93-1.146 89.95-1.463 39.19-.414 79.13 1.316 118.39.833 5-.062 5.78 19.338 6.2 23.52 8.25 79.798 4.28 159.642 4.42 239.62 1.73 44.736 5.97 88.556 7.19 133.373.95 34.9-.75 68.376-.95 103.144-.25 42.922 1.84 86.036 1.57 129.007-.1 18.61-.67 37.215-1.71 55.797-1.04 15.951-3.03 43.302-3.32 57.646-.76 37.759 9.93 274.597 1.27 296.147-9.19 8.44-111.66.77-131.7.63l-359.19-1.13c-28.65.14-61.7-2.18-88.9-1.48-6.96-1.21-46.07-.93-54.15-1l-137.43-.13c-52.76-.2-106.503-3.04-159.344-3.42-32.926-.23-66.83 1.6-99.671 1.46l-140.386-.7c-33.813-.34-67.753-1.48-101.568-.91-35.075.58-70.243 3.31-105.278 5.15-30.315 1.59-60.712 2.26-91.048 3.79-19.194.96-166.258 4.97-173.804-.7-2.844-3.42-2.885-6.5-3.428-10.68-2.902-22.32-.525-45.66-1.371-67.52-1.401-36.177-.172-70.864.356-106.934.479-32.726 4.795-71.492 4.146-103.584-.873-43.226-4.796-86.063-5.525-129.91-.737-44.373 2.21-86.515 2.422-130.132-.344-40.784-4.193-84.043-1.655-124.618 3.159-48.632 6.568-97.873 5.825-146.674-1.709-71.679-4.745-147.9 8.95-218.283.358-1.84 11.895-1.75 13.79-1.767 36.947-.349 73.595-1.985 110.582-1.557 16.46.19 34.298-1.718 50.928-2.305a3114 3114 0 0 1 125.827-2.82l154.122-.194c6.657.05 13.24.364 19.884.629 32.361 1.288 64.491-.497 96.846-1.318"/><path fill="#fefefe" d="m1332.18 416.098 1.36.173c3.02 2.893 7.35 9.758 9.86 13.453-.61 10.17.68 35.721.87 46.808.86 36.56 1.34 73.129 1.43 109.699-.05 64.373-1.28 129.206.19 193.648.47 20.133-.13 56.908 3.09 75.282 7.5 9.063 58.03.571 69.4 5.654 7.52 10.236-1.73 40.999 3.27 51.583 4.18 8.854 26.41 5.104 35.27 5.484 24.09 1.035 48.83-.715 72.75 1.012 2.15.156 2.46 6.458 2.37 8.03.66 22.101-2.91 46.06.86 67.718.37 2.087 3.56 5.878 4.75 6.108 21.55 4.1 44.91.18 66.84 1.32 16.9.14 36.01 5.48 52.62 5.4 34.43-.99 68.96 2.1 103.35 2.17 13.28.03 69.63-5.67 80.01-.79 2.77 10.71-.44 67.14-1.11 81.95-19.11.89-38.24 1.21-57.36.96-19.8-.4-41.2-2.04-60.7-1.98-33.97.11-69.2 3.06-103.23 2.81-32.3-.24-68.02-2.83-100.21-2.86-250.13 1.61-500.27.29-750.365-3.95-11.052-.11-23.263-.43-34.255.19-50.655 2.89-101.508-1.49-152.118.15l-170.76 6c-39.029 1.27-76.556 2.71-115.612 1.83-19.074-3.21-57.792 2.1-76.168-2.72-3.636-4.11-3.859-72.58-3.387-82.7 32.295-2.78 61.142 1.01 93.002 1.26 16.893.08 34.516-2.43 51.321-2.24 34.244.4 68.341-1.99 102.492-4.38 13.005-.91 48.511 1.41 58.785-1.83 4.969-6.669 3.791-70.399 3.898-84.113 24.928 2.248 53.215-1.378 78.444.086 6.911.401 21.799.102 27.375-3.555 4.004-7.344 2.614-42.314 2.621-52.425 12.781-.607 64.41.836 71.134-4.571 6.109-15.53 4.246-160.895 4.132-185.91l-.291-188.951c-.041-19.743-.952-39.544-.816-59.146 5.439 4.569 10.534 13.728 17.773 10.451 2.703-2.886 3.601-8.957 4.571-13.031 7.288 1.742 32.177 7.517 37.148 10.492 2.938 9.721-8.924 66.245 2.154 72.417 7.387-3.098 30.72-54.815 35.998-65.16 14.733 3.325 31.737 4.866 46.298 8.776q-.658 6.255-1.102 12.529c-.763 10.21-3.945 54.042 1.161 59.968l2.362-.105c10.256-5.927 32.594-53.88 37.265-66.098 11.68 3.016 28.092 3.041 40.152 5.69.301.066 2.471.89 2.48.938 4.578 23.104 5.338 49.928 13.187 72.424.842 2.413 3.05 2.834 4.759 3.164 1.815-.977 2.902-1.496 3.658-3.723 7.779-22.889 14.126-46.187 21.774-69.143 13.867 1.169 29.83 1.352 44.15 2.268-.25 5.294-1.76 18.941 1.2 22.768 19.96.542 22.49 5.995 37.12 19.555-.21-14.327-.29-28.657-.22-42.986 10.23-.095 36.2-3.068 43.01-2.19 8.8 8.661 21.16 72.15 34.57 66.275 6.56-9.17 7.94-58.543 5.78-72.191 17.01-1.723 30.05-3.582 46.67-7.473 7.41 11.546 35.78 66.718 48.15 67.871 6.21-7.636-5.74-59.747-6.59-73.671 11.28-3.698 32.75-7.518 47.19-11.677 9.01 15.2 19.48 44.804 32.77 56.21 1.94 1.666 3.88.909 5.84.32 11.42-11.227 1.28-55.44 5.51-67.246 2.4-2.417 6.69-3.15 10.1-4.079"/><path d="M1028.24 492.574c11.96-.972 29.22 18.746 39.31 26.631 13.62.258 23.81 2.391 13.86 17.878 3.3 18.356-4.16 19.824-20.12 23.205l-3.24 10.424a109.56 109.56 0 0 1 51.5 46.498c3.32 5.825 5.48 12.242 8.87 18.184 16.53 28.965 28.44 62.17 49.92 87.911 2.94 3.527 15.08 9.038 19.71 11.545 3.74 5.22-.99 9.817-4.29 13.74 1.65 2.676 4.38 7.142 4.82 10.194 1.97 13.707-18.18 22.136-28.45 23.911-8.82-2.543-47.52-63.201-54.31-73.795 3.47 26.878 15.66 87.117 14.87 111.773-.47 14.568-40.64 96.08-50.37 114.363-1.15 2.158-4.36 4.979-6.35 6.608-1.97 9.854-2.9 19.617-4.43 29.509-1.92 12.477-3.4 21.063-16.56 24.336 9.87 21.001 33.52 49.681-5.08 55.741-23.13.5-51.391 6.98-49.229-24.14 1.1-15.84-3.109-34.837-5.609-50.525a1163 1163 0 0 1-6.036-46.164c-5.108-46.871-6.74-95.281-4.175-142.378 1.32-24.243 6.024-48.508 4.967-73.004-.303-7.028 2.47-19.245 3.904-26.213-17.945 30.785-36.858 64.71-61.457 90.822-7.735 8.212-28.465-9.803-33.057-16.895 1.812-3.948 4.97-9.082 7.204-12.955-17.137-14.399 3.93-14.806 10.087-21.917 24.359-28.139 42.861-67.216 60.552-99.912a52 52 0 0 1-.214-2.729l-.045-1.051c-.188-3.653 1.234-5.405 3.075-8.409 12.958-21.142 23.642-33.01 47.103-42.296-2.99-13.767-2.12-9.879-12.23-20.591-2.54-2.69-1.66-6.212-1.49-8.127.34-3.955-15.765-9.16-16.892-14.987-.685-3.543-.341-3.758 1.229-6.986 1.392-2.86 7.79-1.211 9.462-2.286 5.551-3.896 8.671-12.43 12.231-17.779 3.37-5.075 15.72-8.133 20.96-10.134"/><path fill="#fefefe" d="M1056.26 579.51c32.9 14.141 27.88 22.674 47.28 42.68l.8.813c-6.28 6.709-9.87 8.038-18.04 11.964-5.45-10.274-8.11-20.983-13.35-31.388-3.1-1.816-2.03-1.825-4.8-1.242-1.42 2.937-.49 8.549.65 11.464 13.77 34.959 23.94 66.313 30.52 103.424-18.91 9.362-56.73 14.121-77.73 14.707-15.48-.223-21.51-.405-36.409-3.956-1.274-37.314 17.499-83.427 23.929-119.909.25-1.431-1.85-2.577-2.79-3.214-16.842 4.961 2.48 52.091-33.536 17.522 14.178-20.771 19.193-29.853 42.426-41.583 13.19 15.17 29.98 17.05 41.05-1.282"/><path fill="#fefefe" d="M1106.52 632.737c2.96.356 4.93 5.42 6.63 8.379 16.35 28.451 28.19 61.198 49.56 86.31 1.62 1.908 13.98 11.014 16.52 12.91-4.03 1.591-6.25 1.807-8.13 5.056 1.15 5.648 7.81 8.187 10.64 15.851-4.37-1.33-5.52-3.389-9.17-2.804-1.26 4.291 1.31 4.917 2.67 11.186-6.95 1.218-4.42-3.251-10.22-3.907-2.91 2.233-2.36 3.064-3.7 7.319l-1.4.565c-6.65-5.106-48.81-69.903-54.32-81.106-4.74-9.636-13.72-38.124-17.24-49.531 8.24-3.855 10.75-5.028 18.16-10.228m-135.083-.203c7.286 6.558 10.65 8.988 19.845 12.274-.812 4.198-2.837 12.496-3.864 16.256-4.256 15.584-62.016 109.654-71.529 110.892l1.285-5.402-1.703-1.358c-3.016-.149-3.925.654-6.393 2.295l-.74.955-.871-.963c.497-2.96.71-3.6 1.929-6.374l.309-.689-1.311-1.441c-3.802.198-9.417 5.085-12.829 7.522 3.358-8.46 9.63-15.131 11.017-21.978-3.027-3.036-3.138.954-8.08-2.205 2.506-2.477 5.024-3.889 7.638-6.117 19.725-16.812 30.733-41.779 43.155-63.922 7.483-13.341 15.179-26.257 22.142-39.745m72.373 143.037c6.91 2.384 16.08 40.588 18.6 49.057-7.51 14.588-14.45 32.701-21.12 48.105-1.15 3.084-3.22 6.713-4.8 9.705-.62-27.547-.41-55.212.71-82.749.3-7.42.6-19.58 6.61-24.118m-13.37 211.498 1.29.333c2.17 3.119 5.37 13.898 6.77 18.148-8.56.63-29.26 2.71-32.74 11.76 4.42 2.76 27.05-3.41 36.21-4.19 3.4 1.68 7.2 12.26 8.81 16.13-13.64 2.03-38.76.92-53.739.72a2181 2181 0 0 1-2.089-38.368c15.048-1.005 20.688.531 35.488-4.533m5.52-471.241c5.91 4.018 7.42 13.665 9.61 19.306l1.48.469 3.38-2.993 1.4.352c5.87 12.901-9.7 23.292-20.94 24.766l-13.14-5.888c-3.57-5.067-9.92-13.444-4.86-18.964 3.32-1.233 5.62-.428 9.04.3 1.9-2.554 1.17-2.57.69-6.513 1.49-2.455 9.58-7.471 13.34-10.835"/><path d="M1040.65 539.828c3.05.92 3.53 2.832 3.36 5.464-3.1 5.874-10.17 7.081-16.17 6.346-2.82-2.852-3.61-2.661-4.15-6.034 3.8-3.141 9.26-.508 16.96-5.776"/><path fill="#fefefe" d="M1038.07 916.529c3.67 2.429 4.8 8.156 7.47 11.515 3.34 4.197 6.33 7.717 9.53 12.104 2.01 8.736-3.36 31.904-5.44 41.351-.66 1.879-.9 1.881-2.37 3.166-4.08.78-3.21 1.267-6.26-.337-.74-3.554-.17-14.49-.39-19.279-.75-16.188-1.72-32.341-2.54-48.52m3.94-352.941c1.99 4.125 6.71 7.898 5.88 12.52-1.67 9.295-12.14 7.401-18.55 6.17-7.42-5.003-6.63-8.609-6.19-17.47 2.22-1.884 4.48-.072 7.69.241 4.19.408 7.18-.38 11.17-1.461m-41.95-360.111c17.38-1.089 35.49.414 53 1.253.64 18.053-.92 37.97-.04 56.011.14 2.778 1.44 3.738 3.29 4.937 8.28-.15 34.04-23.244 42.4-29.735 16.35 13.787 35.07 25.973 49.64 38.528-6.78 14.829-10.7 32.591-16.43 47.977-1.62 4.323-3.28 9.9 1.37 12.419 8.3-.349 45.4-25.793 55.12-32.315 18.89 14.864 25.01 20.016 46.28 31.162-1.42 10.031-16.26 56.875-9.3 60.715 9.76-.681 43.63-28.843 51.86-36.353 13.2 8.158 27.5 13.165 41.85 22.693 2.36 7.99 5.57 20.401 9.34 27.366-28.09 6.196-57.71 15.546-87.36 22.236a1143 1143 0 0 1-184.6 25.671c-82.509.618-156.059-7.105-236.587-24.522-32.083-6.939-57.76-10.219-89.332-20.777.352-10.02 3.266-24.978 4.394-36.093a2707 2707 0 0 0 41.609-18.753 52 52 0 0 0 2.873 3.218c6.222 6.367 41.513 35.723 49.204 35.783l1.689-1.782c3.008-11.485-6.029-49.384-9.44-62.997 17.125-9.136 27.43-16.475 43.566-26.856q1.23.954 2.491 1.865c12.551 9.068 33.689 19.659 47.302 28.211 1.895 1.19 3.514 1.054 5.497.739 4.717-6.936-10.536-51.674-13.451-62.147 18.503-12.651 31.593-22.144 49.059-36.663 10.997 9.696 24.307 22.446 36.656 30.461 2.803 1.819 4.418.615 6.437-1.253 2.333-6.466 1.314-49.639 1.613-60.999m792.87-22.915c5.13 1.974 34.48 33.1 40.18 38.812 2.18 2.188 1.4 33.193 1.11 38.686-2.92 54.889.12 108.767 4.76 163.441.5 5.928 2.25 29.813-.8 34.116-7.34 4.914-24.36 1.077-34.53 1.481-54.3 2.154-104.98-1.482-158.72-8.141-32.1-3.977-72.24-4.177-104.69-4.591a112 112 0 0 0-6.93 4.651c-31.37 22.851-66.43 38.015-100.15 56.892-.37-34.63-1.88-69.799-2.26-104.531 5.67 8.884 14.47 20.413 26.18 20.434 7.65-3.418 5.84-8.718 4.72-15.905-.88-8.586-8.45-32.861-11.27-42.85 18.23-8.194 64.17-25.951 78.31-35.543.77 9.734-1.39 51.37 8.69 52.762.36-.297.53-.421.88-.786 7.14-7.454 1.43-80.172 1.23-94.739 4.81 8.791 18.11 36.439 24.26 38.232 15.87 4.627 32.95-66.695 35.87-74.546 1.18-1.087 17.96-3.168 21.33-3.812 4.23 11.664 36.27 93.435 49.25 45.774 4.46-16.405 7.74-42.096 9.55-59.303 5.65-3.01 14.7-5.908 21-8.129 9.88 11.755 44.44 64.487 55.73 65.882 1.88-.893 4.11-1.815 4.81-3.986 5.88-18.24 5.21-69.58 1.29-86.278 11.78-5.331 19.2-11.693 30.2-18.023m-1533.672-2.78c10.052 8.682 21.142 14.568 32.793 20.872-1.974 13.662-9.84 84.568 3.038 91.735 7.364 4.097 52.928-57.977 57.906-65.967 7.401 2.829 13.345 4.808 20.938 7.083.552 9.415 1.948 19.732 3.33 29.176 12.286 83.987 33.155 30.093 54.93-15.615l19.884 4.542c1.577 13.735 21.362 71.626 35.79 72.796 4.759-2.683 21.07-34.95 24.336-41.414-1.938 22.132-2.039 45.206-2.224 67.452-.076 9.117-2.892 32.346 6.379 35.682 9.696-4.146 6.243-47.54 6.24-58.687 19.299 12.893 60.94 30.317 82.876 40.694-4.961 7.796-6.874 13.664-9.339 22.307-2.867 8.833-7.788 20.73-6.094 29.56 2.132 3.059.938 2.233 4.434 3.168 9.109-1.384 21.863-12.799 28.67-19.05l-2.484 105.002c-13.931-9.571-29.72-16.853-44.167-25.72-9.987-6.129-53.434-36.357-60.586-38.643-15.816-5.057-157.686 12.709-187.385 14.314-12.572.679-24.917.117-37.473-.001-6.311-.059-12.705.595-18.996.358-3.985-.15-7.772-1.017-11.883-1.003-13.155.044-31.85 2.337-44.31-.599-2.495-3.654-.816-31.758-.081-37.719 8.178-66.338 2.83-131.266 3.318-197.511.053-7.245 33.192-32.414 39.9-42.417zm1042.822-111.2c2.93.78 25.7.657 30.41.772 63.02 1.532 125.71.593 188.68 3.857-7.2 57.56.11 117.65 4.12 174.862.08 1.13-2.2 1.679-3.07 1.993-10.58-3.951-9.83.146-17.56-.603-10.72-1.04-18.02 1.02-28.72 1.763-6.36.442-13.14-.039-19.51-.115-86.01-.968-161.53-19.075-239.67-54.045-58.14-27.452-127.98-80.451-171.43-128.165 47.9.57 95.82.52 143.72-.146 2.35 24.468.49 51.154 1.98 75.826.59 9.896-6.26 30.781 3.43 35.78.89-.345 2.1-.609 2.75-1.312 6.59-7.2 1.08-95.945.4-110.029l63.39.076c12.19.094 29.39 1.053 41.08-.514m-748.829 2.147c1.807.701 27.626.237 31.78.32 74.087 1.47 148.453.318 222.559-.547 14.586-.17 29.955-.414 44.36.848l1.104 1.306c.799 32.828-3.267 86.173-.911 116.505-13.374 4.846-34.251 15.083-48.87 21.112a498.1 498.1 0 0 1-205.027 40.692c-18.066-.295-35.938-3.585-54.01-3.745-5.852-.052-11.707-.315-17.558-.439 2.018-13.199 2.772-28.135 4.14-41.491 4.749-46.352 4.838-87.902 1.913-134.296 7.371.154 13.165.27 20.52-.265"/><path fill="#fefefe" d="M467.172 70.49c12.576 1.47 44.555-2.514 52.835.573 2.163 4.375 1.711 16.208 2.052 21.547 3.258 51.051-4.959 101.444-7.553 152.008-44.71 1.952-151.475-25.661-193.091-45.803-35.93-17.321-65.83-39.528-99.237-61.156-.489-6.854 2.7-56.231 4.618-61.4 1.195-.376 25.952.38 30.667.17 54.789-2.437 109.391-.09 164.189-4.465 14.399-1.15 30.162.338 44.457-1.344zm1064.168 1.335c5.16.324 11.45 1.04 16.61 1.69 41.96 5.28 82.89 4.295 124.97 4.233l68.9.546c16.59-.004 33.17-.284 49.76-.839 12-.494 23.33-1.757 35.33-1.27 2.89 3.52 5.09 56.543 5.51 65.344-16.6 6.171-47.69 28.341-63.91 39.292-30.83 23.414-74.33 30.184-110.02 43.668-3.93 1.486-9.65 3.326-13.71 4.256-34.94 7.99-70.35 14.706-106 18.569-4.45-26.833-13.33-154.54-7.44-175.49m83.06 439.869c3.13 18.964 18.41 43.891 41.04 40.582 13.85-2.027 21.75-15.035 29.28-25.629 10.33 20.624 16.27 30.454 40.72 32.942 13.78-6.431 23.16-15.207 30.49-28.297.96 3.448 2.25 8.217 3.63 11.44a36.2 36.2 0 0 0 20.01 19.156c28.15 10.677 39-14.188 46.66-35.137 2.54 12.386 2.66 14.721 13.29 22.961-.14 22.984.56 45.816.75 68.787.19 23.042-.36 45.558 1.33 68.555-5.3-.201-12.02.714-17.4 1.271-.05-23.916-10.16-47.506-35.74-54.566-15.74-4.344-29.71 3.292-42.89 11.318-.73-.411-1.81-1.132-1.94-2.078-1-9.465-2.57-17.452-5.46-26.475-8.31-25.889-38.79-28.191-59.85-15.205-23.06 14.222-26.32 33.773-32.5 57.599-5.06-2.554-10.14-3.218-15.82-3.176-33.29.291-42.54 28.671-53.19 54.24-6.4 15.371 4.94 25.851 15.15 35.534-8.05 1.335-17.84 1.493-25.99 1.042l-.9-1.153c-1.43-8.474-1.55-31.344-1.89-41.203l-2.79-87.302c-.36-11.414-3.31-61.381-1.9-69.582 2.43-.254 11.16 2.453 14.05 3.242 23.96-6.787 29.39-18.098 41.86-38.866m-1173.185-.117c2.372 1.758 7.196 17.211 9.977 21.52 7.502 11.623 16.166 14.893 28.401 18.279 6.105-.977 8.326-1.756 14.202-3.876-1.513 30.882-.443 64.52-1.808 95.656-.663 15.112.701 35.226-2.478 49.471-7.86-23.292-17.045-49.727-44.311-56.989-18.291-4.872-34.598 1.427-50.405 10.394-3.457-19.675-8.04-36.336-21.467-52.059-20.492-23.998-53.997-29.832-78.542-7.758-23.054 20.732-28.762 50.181-30.597 80 .28.978.839 12.83 1.047 15.014a49 49 0 0 0-4.204-.847c-16.351-2.687-31.538-.089-45.177 9.646-1.456-28.206.494-61.425.064-90.012-.244-16.25 1.777-35.384-.568-51.41 9.24-10.407 11.903-14.335 18.394-26.684 2.838 16.036 6.878 33.627 24.649 39.073a25.58 25.58 0 0 0 19.779-1.844c13.322-7.12 17.59-21.574 21.615-34.787 8.976 21.137 17.466 30.989 40.155 34.612 18.468-7.512 22.66-20.644 28.549-38.273 1.041 3.292 2.297 6.458 3.472 9.739 5.152 14.394 25.83 26.856 40.683 20.502 14.057-6.012 22.927-25.626 28.57-39.367m361.19-292.543c2.563.494 4.218 6.241 5.633 9.016 6.857 13.448 17.823 26.409 27.111 38.414-5.432 5.59-13.485 10.865-19.364 16.224-16.382 14.933-35.523 28.643-52.026 42.813-20.756 17.822-40.192 35.697-63.517 50.774-3.272 2.115-19.434 7.623-24.07 9.263-39.085-13.326-81.984-32.861-119.73-50.091-7.008-3.199-25.753-11.877-31.478-16.145-3.375-6.693 1.193-54.032 2.223-64.454 7.125.567 35.206-1.456 37.35 4.272 2.218 21.111 5.429 40.969 12.877 60.982 1.875 5.039 2.808 17.034 9.102 16.446 10.379-7.374 30.767-64.681 36.361-78.876 13.876-1.474 19.546-2.049 33.724-1.743 2.899 12.459 23.038 64.356 35.233 66.014 14.132-3.948 18.369-59.644 17.947-73.357 8.245-1.158 21.133-4.913 29.026-7.573l7.001 16.134c4.677 10.628 18.771 43.32 29.133 47.35 12.935-1.458 14.715-67.185 15.15-80.525 4.225-1.42 8.219-3.189 12.314-4.938m448.205 2.496 11.15 4.505c3.38 18.562 1.17 55.057 9.03 73.442.74 1.716 2.48 1.697 4.11 1.949 12.66-5.096 33.97-45.884 41.9-58.865 9.75 1.978 19.46 4.101 29.14 6.367-1.78 15.705 2.35 61.772 16.19 69.974 15.55 1.407 28.17-48.908 33.37-61.02 3.77-2.942 28.11-.226 34.44.202 8.18 22.423 23.99 59.377 36.99 80.23.85 1.361 1.5 1.006 3.15 1.081 5.78-6.634 17.14-64.691 18.91-77.169 2.85-7.775 22.82-.861 28.8-5.994l1.8.539c7.88 8.541 8.53 51.142 9.44 63.744-4.7 1.736-9.67 3.748-14.2 5.897-45.71 21.679-92.75 39.911-140.03 57.992-3.23-1.115-6.48-1.224-9.89-2.467-20.14-7.344-35.98-22.401-52.5-35.587a2203 2203 0 0 1-95.79-81.017c14.15-17.041 20.96-25.438 33.99-43.803M870.015 68.62c6.019 1.905 123.112-.67 137.425-1.008-11.992 14.657-45.171 43.324-60.913 54.972-29.817 20.466-52.139 38.523-83.953 58.476-.706-15.969.956-33.376.758-49.458-.246-19.988-2.076-41.6-1.127-61.454 2.15-1.951 4.221-1.341 7.81-1.528m633.955 468.858c3.45 4.044 9.23 9.503 14.55 10.946 2.72.739 4.01-.018 7.6 1.276 2.17 9.992 2.24 40.756 2.35 51.872.07 21.751.43 43.5 1.09 65.242-2.12 1.56-3.55-.826-6.95-1.049-2.88-.19-8.69 3.251-10.41 2.696-5.68-1.829-8.48-8.041-15.49-8.214-17.78-.438-13.88 14.83-19.53 20.009-13.45-7.454-16.41 1.039-22.11.714-1.06-8.504-.58-21.193-.71-30.13-.39-20.225-.65-40.452-.8-60.681-.07-4.913-.38-15.436-.67-20.374-.01-.196 7.73-5.372 8.85-7.091 2.2-3.394 3.42-7.433 4.69-11.268 20.09 14.648 28.35 6.322 37.54-13.948m-954.157-2.568c1.52 1.687 5.173 14.484 8.057 17.515 4.957 5.21 11.728 5.647 17.94 6.597 5.866-3.306 7.746-4.816 12.31-9.743 3.228 7.2 4.875 9.47 10.738 14.747-.706 27.258-.209 54.752-.392 82.028-.057 8.436-.393 19.016.954 27.177l-12.235-.401c-3.798 2.185-7.4 4.08-11.296 6.087-6.277-15.342-6.25-19.464-23.869-20.359-12.589 5.136-16.62 9.272-26.616 18.098-2.465-43.175 1.387-89.141-1.451-132.042 3.007.988 6.855 1.913 9.985 2.745 7.592-3.87 10.476-5.878 15.875-12.449m81.743-14.1c7.318 3.311 63.014 32.399 64.159 34.38 1.7 8.832-1.433 22.922-11.631 25.072-7.599-.936-7.655-9.236-12.982-12.457-3.231-1.953-4.632 6.552-12.143 8.461-9.126-4.095-3.208-11.186-9.804-16.642-1.975.33-15.392 10.244-16.275 11.87.774 3.149.073 2.087 2.594 4.025 3.237-.151 5.651-2.155 8.507-3.95 6.464 2.052 3.027 3.94 9.048 10.683 8.14 3.89 11.917-2.241 16.708-2.075 14.284.494 9.7 38.955 9.505 48.82-2.505 24.034.704 51.616-2.903 79.108-7.616-12.01-8.201-14.79-21.692-18.552-10.942 2.535-12.588 3.898-21.279 10.502-1.168-18.116-1.007-39.543-1.261-57.9zM1060.18 97.468c11.16 10.141 24.33 21.654 36.04 31.018-4.09 27.139-6.09 58.781-10.66 86.023-6.92-.902-17.94-19.996-24.9-23.621-7.08-.216-7.85 3.615-10.95 3.565-16.11-.263-31.8-1.561-47.97-1.159l-4.128-3.677c-10.03-1.66-23.102 18.473-32.707 24.052-1.128-1.188-3.94-38.761-4.665-44.447 0-8.248-3.987-30.109-5.536-38.235 12.605-9.155 24.883-20.766 36.871-31.044 2.95 13.335 5.521 46.764 5.643 60.253-6.765 2.161-11.235 3.1-9.669 11.281 3.589 5.116 9.984 8.476 16.481 6.322 2.27-.755 2.42-3.583 3.08-5.863 8.25-7.508 47.69 5.55 55.83 1.511 5.88-9.427-4.38-8.451-8.96-13.548-1.29-3.135 5.24-55.98 6.2-62.43m306.7 320.07c2.95 1.67 48.49 45.295 52.95 49.957 2.42 2.531 2.19 36.565 2.25 43.704-8.54 5.546-24.24 14.417-33.18 18.744l-32.18 16.11c-1.53-10.232-1.33-29.627-1.5-40.52q-.39-34.36-1.68-68.696c7.85-6.152 9.79-10.414 13.34-19.299m-671.791-3.565c.572.481.775.609 1.277 1.25 2.65 3.385 1.458 114.967.623 130.058-10.544-4.405-18.534-7.725-28.621-13.261-10.227-4.889-27.494-13.66-36.609-20.066.615-14.23.485-31.6.053-45.791 9.106-9.471 23.85-20.063 34.567-28.384a792 792 0 0 0 28.71-23.806"/><path fill="#fefefe" d="M1525.31 462.007c4.41 4.094 2 38.254 4.69 46.854 1.76 5.63 3.28 10.698 5.66 16.451-17.2 37.689-23.07 2.908-33.56.203-5.11 3.09-6.63 12.927-9.15 19.404-16.02 13.887-16.11.813-28.36-3.138-2.77 1.382-1.85.757-3.32 4.467-1.39 5.149-4.31 15.361-11.68 14.832-9.03-.647-10.21-12.237-15.38-18.252-1.8-2.099-1.21-23.622-1.21-27.462 19.72-15.369 46.39-24.676 67.5-38.352 8.1-5.241 16.29-10.505 24.81-15.007m-123.38 110.904c2.67 2.782 6.73 5.482 10.48 6.529 4.49 1.251 5.01.035 9-2.097l1.26.493c1.86 15.954-.17 51.973-.03 68.944.09 11.506.64 46.275-.95 55.884-8.18-10.958-15.56-15.239-29.12-11.2-8.68 4.544-11.27 10.882-15.32 19.192-1-11.922-4.36-125.159-2.59-128.948 13.55 7.138 19.05 3.114 27.27-8.797m138.8-40.419c2.31 1.168 5.18 4.542 7.09 6.531-1.27 33.707 1.88 80.645 2.95 115.439l2.91 137.66c1.09 42.561 4 85.307 2.57 128.07-.67 20.085 1.4 44.474-.34 63.875-.08.853-.28.82-.89 1.723-2.64.409-10.9 1.731-10.96-3.149-1.36-110.351-1.39-221.528-4.42-331.943l-2.72-74.689c-.35-10.058-.83-20.279-1.14-30.331-.11-3.637 3.22-9.731 4.95-13.186m-1027.14-2.768.858.918c2.623 9.861.715 47.128.609 59.986l-1.646 148.088c-1.484 82.041-.469 167.671-3.543 249.405l-11.569-1.483c-.972-5.451.046-34.577.217-42.054l.929-67.213 3.686-232.616c.666-33.742 2.565-70.118 2.67-103.481 4.205-4.77 5.179-5.833 7.789-11.55m411.42-322.07c3.019 1.349 20.968 18.634 23.656 22.006-13.018 11.597-35.744 26.628-50.271 37.317-5.269 3.878-13.698 7.97-19.21 11.867-6.653 4.705-12.855 12.997-19.346 17.407-39.645 26.932-82.032 51.355-125.847 70.59-2.463.948-4.281 2.075-6.642 1.322 2.159-4.177 19.127-16.196 24.192-20.443l58.526-49.022c7.524-6.177 23.72-19.86 31.691-24.309 26.502 27.223 26.548 9.282 26.11-17.449 14.566-10.039 42.533-36.475 57.141-49.286M526.358 458.67c3.867 1.547 25.958 16.769 31.408 20.15a1078 1078 0 0 0 62.355 35.376c.365 9.785.871 19.598.437 29.378-7.688 3.504-8.422 16.45-18.275 14.637-4.559-3.498-4.843-7.04-5.755-12.451-.421-3.812-.395-7.249-2.679-10.276-6.897-3.195-11.926 14.414-21.115 15.687-14.622 2.025-12.666-21.668-19.94-26.469-9.563.057-12.424 14.481-20.158 14.979-17.09.578-9.438-29.136-8.452-38.501 1.316-12.486 4.576-30.437 2.174-42.51m92.869 98.022c2.102 10.587 1.189 32.676 1.568 44.174.944 28.643 1.195 57.466 1.214 86.126l-.013 128.577c-.02 28.995.342 60.286-1.017 89.124-3.403.262-7.301.988-10.277-.282-2.219-3.515-1.433-4.037-1.486-8.915 1.195-50.385 1.662-101.303.923-151.683-.869-59.224-3.114-118.418-2.236-177.683 6.934-2.531 7.757-3.187 11.324-9.438m813.893 1.881c3.15 3.454 7.96 5.404 10.76 8.723 1.27 1.512 1.69 305.92 1.14 334.272-.39 1.661-.74 2.098-1.55 3.578-3.27 1.512-7.62 1.02-11.37.935l1.42-237.114c.21-33.643-1.78-77.7-.4-110.394M1023.93 66.907c.91.034 5.59.218 6.04.632 8.5 7.716 17 17.104 25.48 24.783-7.37 15.645-6.14 52.792-10.48 67.792-3.52 1.378-10.17.587-14.22.378-8.1.176-16.99-.383-25.16-.74-2.35-18.672-2.54-48.098-8.909-65.207 7.879-9.448 20.319-18.609 27.249-27.638m186.66 205.714c30.68 25.484 59.55 53.151 91.38 77.451 8.39 6.405 19.58 15.222 26.74 22.605-7.3-2.127-10.52-3.369-17.43-6.538-14.33-5.696-30.06-15.5-43.65-23.132-27.17-15.257-53.87-30.844-78.5-50.083 4.49-5.516 15.91-15.323 21.46-20.303M1103 133.55c12.95 11.635 34.44 27.931 49.18 37.542-9.39 11.317-23.2 24.614-33.84 34.92-6.79 6.81-18.03 16.749-25.79 22.678-.85-2.31 9.91-84.23 10.45-95.14m254 448.788c4.12 1.719 3.28-.162 6.43 2.597 1.05 4.988 1.07 22.887 1.18 28.969l.94 58.708c1.1 59.123 3.25 116.507 5.17 175.45-3.84-.034-6.84-.186-10.67-.506-2.87-3.758-4.65-241.434-3.05-265.218M947.028 135.585c.461.206 1.245 1.002 1.676 1.389 4.473 29.85 6.079 56.536 6.68 86.659-7.678-7.417-15.992-14.446-24.071-21.448-12.983-10.467-22.08-19.067-33.704-30.718 15.644-11.941 33.351-24.211 49.419-35.882M697.639 578.879c1.511 15.899-2.013 263.993-4.204 268.561l-9.538-.055c-.57-14.665.403-32.095.948-47.025a5271 5271 0 0 0 3.218-90.035l.894-81.026c.045-12.822-.295-27.203.533-40.076.193-2.994 4.465-5.131 7.626-9.597zm428.271-368.045c24.24 14.923 35.47 27.405 56.18 43.133-.87 10.611-1.06 21.553-1.39 32.217-3.32-2.079-6.76-4.539-10.01-6.78-12.65-10.134-25.5-18.887-38.52-28.48-9.27-6.827-17.22-14.474-27.05-20.662 7.15-7.077 13.17-12.913 20.79-19.428"/><path fill="#fefefe" d="m1420.14 521.738 1.07.454c1.26 2.699 2.35 41.582.16 46.442-1.38 3.066-1.61 2.932-4.13 4.126-8.1-.269-11.56-7.53-18.34-11.271-7.07 5.732-2.92 25.685-25.38 10.912-5.41 1.09-19.21 14.24-16.38-13.475.61-6.006 27.32-17.405 34.18-20.941 9.03-4.662 19.29-10.552 28.82-16.247M1197.73 198.1c13.57 5.925 30.44 14.858 44.83 21.415-10.22 14.92-18.77 27.102-30.77 40.847-7 8.023-14.77 14.72-22.8 21.652.35-3.489.52-7.038.69-10.546 1.2-24.568 4.85-48.985 8.05-73.368M640.341 379.42c27.783 12.616 20.742 4.518 45.101 27.291-8.035 9.086-20.072 18.635-29.548 26.553a1535 1535 0 0 1-23.399 18.294c-.786-13.677-.422-27.411-.328-41.096.093-13.493.452-19.814 8.174-31.042M853.21 198.222c4.457 4.699 6.154 74.522 6.338 84.413-8.489-7.466-13.129-13.19-19.967-22.057-14.745-17.649-17.971-26.872-29.324-43.364 10.398-5.882 30.914-13.028 42.953-18.992m558.14 180.741c11.36 3.69 8.46 70.416 7.04 72.099-3.87-1.812-14.57-11.436-18.45-14.764-9.56-8.954-20.54-17.976-29.56-27.307 10.84-23.69 16.98-20.6 40.97-30.028m-251.54-202.341c4.92 1.65 26.4 15.563 32.09 18.856-3.44 12.621-6.3 35.318-8.58 49.136l-9.89-9.705c-8.29-8.193-29.85-23.036-40.41-30.609a469 469 0 0 1 26.79-27.678m-268.399-.751c2.765.948 22.027 21.559 25.532 25.176-10.655 8.949-24.821 22.975-35.671 32.762-4.336 3.94-9.24 7.244-14.022 10.639-1.713-16.601-2.707-33.761-5.705-50.129 9.938-6.303 19.861-11.959 29.866-18.448M572.989 257.42c11.503 1.748 30.585 2.565 42.041.781-6.15 12.601-13.173 32.492-19.072 46.399-3.044 7.188-5.953 13.348-9.412 20.351-7.41-25.315-13.174-41.054-13.557-67.531m867.111 1.66c13.62-.527 27.71.7 41.46.947a624 624 0 0 1-10.12 48.812c-1.68 4.597-2.73 10.564-3.75 15.444-2.06-8.076-7.75-17.282-11.37-25.137-5.94-12.876-12.17-26.483-16.22-40.066m-658.439-32.909c4.013 5.488-4.99 58.354-7.3 66.64-4.909-6.159-6.55-8.997-10.363-15.852a1498 1498 0 0 1-17.602-37.757c11.402-4.532 23.584-9.458 35.265-13.031m490.079 3.087c10.08 3.75 24.85 7.966 35.42 11.297-5.98 12.408-11.33 21.475-18.39 33.293-2.45 4.094-7.57 12.241-11 15.168l-1.48-1.158c-2.95-7.088-4.06-48.065-4.55-58.6M524.553 734.03c10.421 1.207 70.362 5.436 74.939 8.054 1.167 3.383 2.218 8.371-.141 11.435l-2.617.073c-8.784.898-28.45-.926-38.018-1.078-9.193-.146-24.791.242-33.25-.92-2.44-3.399-1.248-13.135-.913-17.564m1000.787 1.48c1.36-.137 2.96-.008 4.35.042l1.15 1.797c.14 4.282.66 9.886-.52 13.868-7.38 1.793-52.95-.314-64.2.402l-.89.061c-3.4.182-5.63.625-8.71-.78-2.1-3.953-1.21-7.289-1.1-12.222 15.15 1.302 53.28-2.115 69.92-3.168m306.47-579.453c2.3 2.721 2.97 46.403 1.88 51.413a444 444 0 0 1-14.89-13.211c-7-6.605-13.39-12.73-20.93-18.765 10.22-6.033 25.07-12.515 33.94-19.437m-1612.191-2.182c5.637 2.484 27.89 16.956 33.499 20.847l-18.048 17.633c-5.394 5.143-10.214 9.674-15.907 14.483-.623-8.9-.318-43.496.456-52.963M483.772 726.68c3.54.544 4.351.986 6.156 3.252.419 4.692 1.027 9.923-1.896 13.878-3.068 1.739-12.893.582-17.63.706l-11.941-.252c7.442-5.815 17.366-12.187 25.311-17.584m936.318 15.985.54.191c1.35 2.289 1.23 2.518 1.15 5.284-5.7 5.253-30.95 2.159-40.59 2.509l-2.32-.275c-1.41-3.032-1.31-1.698-.32-5.005 3.78-3.26 33.68-2.576 41.54-2.704m-785.661-.224c9.766.828 29.707-2.743 38.534 1.392 1.669 2.853 1.243 1.616.751 5.748-8.435-.058-35.303 2.131-40.382-1.987-.252-3.655-.629-2.349 1.097-5.153"/></svg>