<svg xmlns="http://www.w3.org/2000/svg" preserveAspectRatio="xMidYMid meet" viewBox="0 0 2048 1462"><path d="M1021.56 128.528c214.39-3.368 183.83 301.356 181.82 445.186-.19 13.333-3.29 29.641-.29 42.282.3 1.282 20.18 10.098 22.69 11.181q22.5 9.755 45.15 19.135c38.2 15.428 69.73 28.304 98.41 59.344 7.71 8.344 29.94 35.566 28.96 46.007-.41 4.322-4.93 7.364-8.57 9.054-12.78 5.935-28.37 8.848-41.92 13.004-34.16 10.472-94.94 31.277-122.34 53.298-27.57 22.164-34.14 41.092-37.97 74.61 24.35-34.143 19.11-45.384 60.21-68.101 69.94-38.663 149.69-51.885 223.05-80.307-.85-4-1.54-9.497-2.17-13.655-58.69-13.503-65.89-58.969-79.03-109.556l-3.06-.88c-12.37-3.424-16.3-7.734-20-19.922-4.64-15.235 14.55-21.471 13.37-31.192-2.67-22.122-2.52-45.936-6.6-67.685-1.03-5.503-12.38-16.243-15.36-21.579-14.48-22.714-25.96-46.897-32.37-73.022-8.17-33.361-2.64-59.477 15.15-88.32 15.01-23.824 41.64-46.411 68.19-55.66 20.07-6.99 35.63-7.445 55.64-4.292 2.06.323 11.22-13.123 14.38-15.389 10.24-7.34 22.07-12.833 34.52-15.441 13.7-3.27 23.83-2.822 37.22-3.568 47.1-2.622 97.96 15.352 137.83 40.672a190 190 0 0 1 84.62 118.139c22.43 100.411-54.99 231.651-107.24 313.823.3 16.044 1.49 32.517 2.45 48.567 30.8 12.073 60.01 29.179 89.46 44.274 17.66 9.051 35.06 18.546 52.67 27.69 12.57 6.533 25.85 12.536 37.81 20.145 6.32 4.019 11.6 8.22 16.05 14.254 42.91 58.225 71.52 208.366 85.31 282.576 6.26 33.65 12.76 66.58 17.33 100.52 2.09 15.47 9.65 36.94 7.1 52.24-.7 4.14-2.4 7.92-5.98 10.3-2.91 1.94-6.11 2.99-9.6 3.04-53.15.43-106.31-.03-159.45-1.38-57.07-1.01-116.52-.46-173.68-.13-5 .48-11.01-2.07-15.75-1.85-63.64 3.04-127.94-.33-191.73.31-11.46.12-36.05 1.41-45.81-.41-16.16 1.11-33.7-.32-50.02-.3-51.59.06-103.54-1.05-155.09-1.28l-599.415-2.78-74.053-.55c-12.552.02-56.744 2.09-65.865-.85-11.783-3.81-13.967 1.51-25.19.95-29.238-1.46-58.612-.8-87.879-.99l-144.981-.73h-54.923c-10.913.02-26.236.61-36.462-1.01-1.733-1.93-4.526-4.92-5.506-7.25a12.6 12.6 0 0 1-.916-5.68c1.219-16.01 7.867-47.49 10.491-64.92a7372 7372 0 0 1 27.773-172.97c9.645-54.111 19.026-105.489 39.267-156.703 24.58-62.196 66.151-81.721 124.253-105.423 28.994-11.827 59.165-25.671 88.82-37.78 32.668-71.708-58.854-216.575-57.712-298.357 1.707-122.168 87.864-216.436 212.153-218.194 43.668-.618 78.774 12.444 109.515 43.014 32.725 3.988 63.359 8.529 88.801 31.428 76.242 68.621 33.557 146.012-17.1 207.515.715 21.557-2.477 42.567-6.995 63.614 8.461 11.637 11.329 8.673 15.201 25.429-3.521 14.838-9.113 20.097-23.541 24.232-4.033 7.765-6.124 16.716-8.899 25.243-11.083 34.062-27.033 71.057-64.007 83.148-4.989 1.632-9.764.918-14.535 3.896-1.364 2.839-4.187 26.677-3.93 29.65 7.184 4.674 37.446 15.986 47.007 19.775 10.565-14.513 17.903-32.702 28.098-47.286 15.954-22.822 34.611-50.698 55.082-69.67 4.327-4.011 21.877-10.348 28.506-13.387 28.947-13.267 58.849-24.647 87.605-38.338 1.792-26.873 2.442-55.021 3.612-82.059l4.747-97.049c2.455-54.995 5.509-127.661 20.875-180.546a209.2 209.2 0 0 1 35.683-71.111c34.146-43.574 66.965-53.788 119.06-59.993"/><path fill="#fff" d="M384.918 762.062c25.459 5.648 49.802 8.84 76.161 6.454 7.346-.665 32.271-7.433 37.988-6.294 20.465 4.078 46.676 9.711 66.676 15.659 9.584 2.85 28.69 11.333 38.319 15.193l57.058 22.551 53.758 22.227c39.855 16.41 69.005 24.925 89.297 66.39 23.944 48.93 32.553 100.208 45.003 152.518l37.15 153.08c5.706 23.37 10.502 46.98 16.81 70.1-21.745.96-209.046.2-214.056-2.55-3.398-9.69-4.594-168.47-3.526-186.51a644 644 0 0 1 9.785-77.59 439 439 0 0 1 12.805-52.723c2.517-8.369 6.377-16.437 8.734-24.295 1.564-5.211-6.682-16.511-13.758-7.672-4.081 5.631-8.933 12.981-11.41 19.512-33.096 87.298-29.364 182.028-27.313 273.738.424 19 .826 37.81 2.396 56.16-20.073 1.38-47.845.44-68.454.36-39.466.18-78.933-.02-118.396-.59-82.299-.67-164.73-.62-247.033-1.06-3.264-.02-9.133.11-11.452-1.62-.509-5.87-1.407-13.55-1.275-19.35.5-22.03-2.011-47.35-3.579-69.32a3191 3191 0 0 0-18.939-190.942c-1.405-11.295-2.421-21.563-6.103-32.428-.484-1.427 1.027-6.197.553-8.234-4.388-18.871-7.227-38.078-12.466-56.773-1.423-5.081-2.337-8.74-5.016-13.396 7.619-12.918 30.259-40.443 42.801-48.785 19.603-13.04 50.543-24.276 72.857-34.129 31.529-13.921 62.145-28.388 94.625-39.681M1027.3 145.603c3.94 1.619 16.75 1.235 21.91 1.836 96.74 11.264 126.32 118.733 134.29 198.936-9.98-4.324-13.23-4.196-23.35-1.773-5.07-5.57-12.12-10.913-17.85-15.918-22.37-19.538-41.3-42.767-57.65-67.49-4.11-6.225-14.14-32.768-23.94-25.765-11.29 25.211 66.02 104.12 84.4 120.549-.6-.542-1.12 8.428-1.1 8.911 1.95 3.148 1 2.088 4.47 3.913 7.97.036 26.61-19.202 31.14-2.034 8.51 32.237-7.93 57.455-41.69 59.396-3.02.174-8.34 20.539-9.9 24.399-17.31 45.503-55.41 92.218-110.65 86.523-40.834-4.211-76.152-46.943-88.427-83.535-1.619-3.206-7.482-28.932-9.557-29.315-26.387-4.863-43.871-15.115-40.128-47.559 3.499-30.328 26.678-6.259 35.438-14.27 2.21-5.642.332-10.147-4.633-13.252-17.004-10.637-33.268-2.115-43.184 11.799 5.62-48.399 11.75-105.098 39.007-146.88 21.471-33.907 51.531-56.925 91.424-64.663 9.7-1.883 21.08-1.78 29.98-3.808"/><path d="M1050.1 188.71c12.78-.305 12.51 7.335 9.09 17.026-5.03 14.271-12.26 26.106-19.88 39.132-15.33 26.221-36.26 45.07-58.936 64.628-19.092 16.467-32.089 26.892-55.004 37.738-.978.195-1.498.31-2.497.353a7.78 7.78 0 0 1-5.916-2.329c-1.348-1.396-2.045-4.06-1.878-5.962.446-5.088 28.93-22.282 34.305-26.455 32.477-25.216 63.696-53.723 84.246-89.861 5.7-10.038 8.55-26.306 16.47-34.27m-58.886 25.214c21.086-.58 6.2 20.249.295 28.259-19.06 25.858-45.834 57.373-76.2 69.995-4.804.589-2.86.838-7.372-.964-1.72-2.115-2.616-2.502-2.554-5.712.116-6.094 13.561-13.863 18.859-17.973 18.532-14.372 33.504-27.764 47.294-46.836 5.097-7.049 14.136-21.489 19.678-26.769m104.076 16.892c6.46.349 8.49 4.965 11.36 10.006 7.5 13.175 15.81 26.029 26.94 36.464 5.97 5.605 18.43 8.844 18.67 18.212-1.3 4.066-3.1 5.133-6.29 8.019-17.35-4.6-36.92-28.476-47.15-43.103-6.13-8.755-15.6-22.349-3.53-29.598M993.785 462.584c7.005 2.122 14.675 8.57 25.605 11.6 16.01 4.438 32.48-11.985 45-7.585 3.8 4.218-1 8.451-4.26 11.77-21.22 12.736-45.52 14.6-66.379.057-6.909-4.818-5.202-10.784.034-15.842m-19.017-129.111a89 89 0 0 1 3.688-.169c5.953-.168 10.566.109 15.054 4.352 1.361 4.101 1.246 2.361.438 6.605-5.023 5.091-16.865 1.493-24.952 3.533-7.384 1.862-9.702 2.683-16.709 5.929-4.389 2.936-6.453 4.897-11.642 4.069-3.055-2.188-2.18-.967-3.26-4.613 2.173-15.044 25.039-19.269 37.383-19.706m105.282-.137c11.46.543 33.25 4.146 36.12 17.742-1.13 3.569-.21 2.401-3.46 4.351-4.27.537-5.2-.141-9.01-1.998-14.64-7.597-17.6-5.145-33.37-7.183-3.63-.47-4.87-1.558-6.63-4.202 1.17-7.869 10.06-7.875 16.35-8.71m-108.877 43.721q1.311.387 2.594.859c3.64 1.311 7.026 3.099 8.607 6.908a7.95 7.95 0 0 1-.089 6.23c-1.912 4.23-5.895 5.465-9.909 7.052-12.291-.991-17.434-15.366-1.203-21.049m109.587 1.974a9.726 9.726 0 0 1 12.84 11.398 9.72 9.72 0 0 1-7.02 7.138c-5.02 1.296-10.17-1.564-11.72-6.504a9.725 9.725 0 0 1 5.9-12.032M1033 437.443c2.28-.38 1.11-.397 3.51.749 4.67 10.245-5.09 14.102-13.88 13.451-3.94-2.342-7.35-4.731-7.08-9.524 4.97-5.71 10.63-1.991 17.45-4.676"/><path fill="#fff" d="M1009.9 942.754c7.14 5.53 19.2 19.085 27.35 25.999 19.81 16.819 39.69 31.077 61.63 44.877 1.78 30.08-.86 66.87-.35 97.56.13 8.14-.23 48.76-1.48 53.76-6.97 27.91-17.79 58.42-24.97 86.6-2.04 8-6.3 19.86-6.38 27.48l-.01 1.06c-3.93 3.74-44.49 1.51-52.46 1.29-2.06.79-63.41.18-67.799-.86-4.019-5.67-10.421-237.85-14.866-265.7l-.235-1.42c9.834-9.01 20.822-16.477 30.606-25.034 16.202-14.17 34.097-30.17 48.964-45.612m-41.836-155.717c8.406.12 8.01-.042 12.93 6.811-9.438 11.752-63.159 76.304-63.839 83.18-.249 2.52.654 3.282 2.295 5.017 2.538.869 6.579 2.015 8.772.201 8.176-6.849 14.099-16.203 21.032-24.278 18.039-21.011 35.735-42.427 53.806-63.376 5.25-6.076 11.17-6.875 17.86-2.322 8.77 19.468-74.33 90.359-63.012 105.668 18.142 6.999 63.852-78.143 78.242-80.872 2.46 1.425 3.92 2.937 4.64 5.777 5.22 20.664-52.055 71.226-62.585 90.41-1.77 3.223-2.212 5.24-1.163 8.68 7.821 5.966 16.157-5.087 21.109-10.206 5.519-5.707 10.879-11.781 16.209-17.685 5.08-5.758 17.41-23.586 25-17.96.38 1.473.66 2.828.43 4.357-3.2 21.11-95.236 99.832-115.626 116.236-6.072 4.885-54.33 41.915-59.218 41.385 1.601-5.61-4.256-20.53-5.484-27.08-5.909-31.486-15.702-60.786-26.457-90.875 8.903-24.477 22.445-48.388 32.753-72.346 2.732-6.351 9.717-25.82 15.723-27.971 1.627.52 4.338 1.7 4.836 3.63 4.676 18.098-13.933 38.43-10.266 56.153.573 2.768 7.303 2.764 7.94 2.174 22.238-20.582 61.932-79.174 84.073-94.708M162.702 913.795c1.446 7.016 2.39 17.079 3.459 24.532l7.37 51.302a3745 3745 0 0 1 26.647 286.641c-20.288 2.34-49.367-1.81-68.323.3-8.303-.82-26.859 1.22-33.447-.73-1.298-8.59 8.387-51.14 7.155-58.76-1.844-.52-1.778-.4-3.16-1.7l.212-2.04 2.897 1.04c1.808-2.03 28.535-186.11 34.955-206.67 6.569-21.033 13.564-69.308 22.235-93.915M1092.7 530.782c2.59 3.635 2.52 19.149 3.1 24.69 3.75 35.946 8.77 36.72 37.47 52.297-.87 7.722-3.45 45.265-6.98 48.532-18.25 7.142-159.349 7.188-180.526.147-4.076.749-20.545-1.301-24.966-2.26-3.074-5.076-5.408-37.19-6.502-45.831 11.535-5.833 26.931-10.936 36.666-19.173 12.958-10.962 12.045-39.474 13.013-56.532 46.975 30.366 82.505 29.026 128.725-1.87m323.97-34.098c25.67 4.684 24.12 45.17 19.57 64.409-2.01 8.526-20.58 21.669-8.55 28.402a9.46 9.46 0 0 0 7.63.661c6.96-2.429 11.84-13.036 15.23-19.367 18.93 41.236 38.24 85.883 73.33 116.876 34.74 30.692 82.24 25.017 124.86 21.611-.67 10.838 4.25 36.579-.47 42.379-2.43.615-43.66-5.001-49.02-5.469-23.92-1.682-48.09-.662-72 .34-8 .335-32.65 3.88-38.46 3.005-.83-1.415-8.03-71.098-10.27-81.399-3.53-4.333-7.2-7.043-12.33-3.935-6.65 9.508-.32 43.819 1.45 56.696-8.8-2.145-17.49-5.074-24.41-11.11-37.36-32.59-45.95-134.561-50.73-181.35 4.4 4.327 8.07 8.516 14.43 9.239 11.93-4.987-2.87-23.058 9.03-39.993z"/><path fill="#fff" d="M920.747 671.58c62.756 6.15 126.183 11.207 189.393 5.524 5.23-.47 10.7-1.585 15.83-2.688.33 13.515-2.08 25.04-3.02 38.164-2.11 29.336-8.28 64.673-8.84 93.454-8.21 12.22-4.15 10.505-8.31 20.117-3-1.16-4.72-4.404-7.02-7.32-12.83-17.703-35.61-49.5-54.01-62.669-2.5-1.79-9.87-3.164-13.15-3.822-6.6 2.7-8.6 3.84-14.28 8.051-5.86-9.27-10.51-13.128-19.674-18.825l-12.185 1.755c-10.058 8.367-11.591 13.341-16.86 25.032-6.866-4.357-9.827-5.769-17.575-7.986l-11.271 3.742c-2.254 2.518-5.067 6.408-7.198 9.168-5.669-30.564-7.1-69.41-11.83-101.697"/><path fill="#fff" d="M1034.14 770.211c11.72 3.68 23.12 20.781 30.86 30.529a2489 2489 0 0 1 39.27 51.126c5.15 6.955 12.28 20.609 20.49 22.824 21.6-2.399-4.5-40.683-1.58-54.126 2.24-2.896 1.12-1.981 5.01-3.131 16.78 4.338 37.62 91.087 46.73 108.857 1.8 3.51-27.28 84.66-31.06 92.22-8.03-3.65-12.75-6.19-20.31-10.62a484 484 0 0 1-102.13-76.555c12.92-14.901 51.95-49.775 27.2-68.742-7.83-6.006 3.21-17.198 7.56-25.484 8.02 9.93 16.02 20.151 24.21 29.967 3.71 4.455 7.76 9.115 13.95 7.52 2.36-2.765 2.33-2.986 3.28-6.589-5.85-13.763-38.19-51.772-49.44-65.888-.75-.946-6.6-3.768-8.12-4.505-2.95-7.522-8.14-14.213-9.4-21.742-.35-2.063 1.93-3.876 3.48-5.661m116.81 298.079c4.73 2.8 19.42 17.42 24.42 22.13 40.49 38.13 81.2 65.56 130.56 90.65-.04 8.41-1.17 68.18-3.03 70.28-4.27.42-9.49-2.23-13.65-3.93-47.1-18.36-90.23-48.6-128.11-81.78-10.63-9.3-21.31-19.2-32.41-27.88 5-19.17 15.77-49.82 22.22-69.47M650.063 497.836c29.467 1.962-2.188 38.612 21.349 38.353 3.868-1.495 6.532-5.165 9.318-8.329.327 34.751-17.393 113.421-34.04 145.789-12.948 25.175-24.037 37.338-50.187 46.146 1.233-10.11 6.534-43.104 4.837-50.767-1.921-2.799-1.997-2.866-5.311-3.958-4.922.248-8.758 2.524-9.652 7.591-1.6 9.082-2.599 18.455-3.722 27.606a2315 2315 0 0 1-6.978 54.554c-.437 3.227-.32 3.94-2.017 6.586-6.151 1.057-48.948-10.798-58.422-13.247 9.468-8.777 20.458-18.551 28.113-29.005 22.436-30.639 71.321-116.973 76.567-152.149 3.516 10.489 12.253 33.964 26.598 19.239 1.468-7.048-6.041-10.589-8.323-16.043-10.718-25.618-2.607-51.572 11.87-72.366m215.23-92.843c6.405 9.874 10.152 18.015 19.987 25.779 2.666 2.659 19.49 6.778 20.517 9.285 8.934 21.807 15.469 43.734 30.22 62.9 3.284 4.267 7.362 8.286 10.174 12.916.332 13.648.961 42.463-4.102 54.866-3.912 9.583-22.655 16.645-32.314 20.162-17.398 5.963-38.049 15.114-55.218 22.219 3.561-44.856 4.333-92.575 6.935-137.674 1.363-23.623 1.141-46.779 3.801-70.453m312.557 581.496c34.38 36.081 85.67 81.441 131.23 102.411-1.92 9.3-1.71 55.08-2.29 68.66l-10.06-3.85c-40.74-18.44-88.07-56.12-120.96-86.69-5.07-4.72-14.28-11.43-18.21-16.31-.65-7.19 16.36-56.61 20.29-64.221m-54.38 167.981c2.08 1.39 12.3 11.43 14.56 13.76 9.48 9.75 17.63 16.91 27.9 25.56 28.32 23.86 58.31 44.43 91.44 61.13 14.4 7.26 30.16 13.3 44.96 20.29.87 2.85.81 2.7.12 5.64-5.22 5.31-14.46 1.36-21.63 2.25-5.21 1.42-95.47-.48-105.43-.89-8.15-8.64-20.25-15.42-27.66-23.2-11.3-11.89-32.96-27.28-42.49-39.62-1.64-5.32 14.79-57.79 18.23-64.92m64.2-734.689c.94 6.384.48 38.262.51 45.926.22 47.989-2.45 96.699-3.36 144.547-14.11-5.227-32.12-14.055-46.13-20.462-8.47-3.018-13.53-5.484-20.94-10.487-4.21-15.08-7-46.801-7.57-63.244 11.91-14.099 21.94-29.667 29.15-46.824 3.15-7.474 6.22-19.946 9.48-27.563-.38.877 11.02-1.631 14.35-3.226 10.39-4.971 16.43-10.887 24.51-18.667m20.82 487.842c3.5 3.201 12.42 13.254 16.7 17.491a511 511 0 0 0 48.43 42.635c8.14 6.184 16.4 12.671 24.83 18.482 2.65 1.827 7.69 1.343 8.13 2.69 3.87 11.649 2.77 64.679 1.03 74.069l-1.61.66c-4.3-.78-8.01-3.5-11.85-5.81-29.55-16.73-88.47-64.679-109.44-91.695 8.72-20.57 13.6-37.23 23.78-58.522m714.83 219.297.71.29c2.33 3.32 11.21 60 12.7 68.49-18.11 8.53-49.88 19.62-69.39 27.32l-13.36 4.96c.21-18.79 3.45-55.31 5.29-74.4 20.57-8.15 44.42-17.09 64.05-26.66m13.69 93.07c1.59-.3 1.36-.11 3.1.27 3.15 5.33 9.34 57.9 10.81 68.1-12.94-1.56-37.53.64-51.94.05-5.65-.23-29.02-1.03-33.27-.67-5.03-.75-11.24 2.57-16.95-3.24-.82-2.89 2-25.17 2.42-30.56 28.39-9.91 57.32-23.67 85.83-33.95m-689.94-364.214c2.15 1.062 8.68 8.111 10.76 10.247 26.11 26.796 38.41 64.483 46.71 99.933-5.88-3.966-11.36-8.022-17.05-12.225a793 793 0 0 1-47.91-40.052c-7.72-7.067-14.51-14.631-22.32-21.657 9.36-18.175 13.11-25.325 29.81-36.246M891.643 616.984c1.586 1.762 1.63 3.484 2.291 6.019l-.533 2.282c-3.65 1.526-10.86 4.633-14.063 6.116a5695 5695 0 0 1-80.99 37.499c-13.585 6.151-61.553 26.012-69.3 33.952-20.32 20.825-47.919 69.471-61.195 94.605-3.493.733-4.107-.097-7.813-1.274-2.039-1.093-2.064-.921-3.199-2.891 1.215-7.605 23.391-40.035 28.521-48.1 11.722-18.427 26.079-37.45 40.253-54.134 2.504-2.947 8.868-7.186 12.506-8.715 32.695-13.742 64.682-29.096 97.539-42.463 18.739-7.624 37.854-13.788 55.983-22.896M1906.38 1046.83l1.22.32c3.25 4.8 11.73 49.01 11.88 56.48-2.42 3.86-36.69 15.51-44.75 18.65l-14.03 5.82c.39-15.5 3.14-50.07 5.13-64.68 13.03-4.98 28.27-10.36 40.55-16.59m-36.08-127.042c5.72 5.009 29.13 92.762 32.6 106.722l-14 4.2c-7.27 2.4-14.77 5.25-21.99 7.87.02-14.62 1.5-30.69 2.17-45.569a1016 1016 0 0 0 1.22-73.223m-770.81 315.152c6.21 7.54 11.17 14.13 18.22 21.02 9.18 8.99 19.37 17.08 27.75 26.76-4.08-.23-8.16-.53-12.25-.43-9.1-1.57-34.8.09-47.03-.74 4.88-14.52 8.42-31.22 13.31-46.61M992.478 756.597c6.23 3.678 8.272 7.993 11.902 14.086-4.757 1.683-5.71 2.511-9.755 5.429l-2.24 1.794c-3.108-.668-5.671-4.282-8.021-6.848 2.703-6.09 4.451-8.816 8.114-14.461m-43.469 20.959c1.653.723 1.026.363 2.225 1.972-2.672 4.745-7.691 9.422-11.573 13.412l-1.151.375c.356-4.701 7.184-11.818 10.499-15.759"/><path d="M1850.1 759.756c19-.44 66.48 66.78 66.04 87.403-.1 5.105-1.18 5.124-4.17 8.375-7.73-.566-9.24-4.746-11.89-11.462-5.17-13.106-12.13-25.099-19.07-37.006-5.54-9.488-35.02-32.53-35.89-40.512.76-3.577 2.21-4.333 4.98-6.798m-475.88-527.758c1.7.029 2.56.308 4.22.652 2.78 2.196 3.07 2.252 4.07 5.494-.24 6.563-7.07 10.946-12.61 13.146-27.62 10.971-35.51 30.88-53.33 50.748-9.71-.105-14.11-5.762-8.77-14.558 14.29-23.552 39.49-47.629 66.42-55.482M274.567 535.839c9.767 2.764 7.506 8.597 5.069 16.045-5.246 15.719-7.506 31.557-6.976 48.101.34 10.592 5.431 18.229-3.721 25.97-2.819-.636-7.823-1.666-8.51-4.952-5.107-24.413-2.791-53.526 5.465-77.061 1.77-5.046 4.234-6.395 8.673-8.103"/></svg>