<svg xmlns="http://www.w3.org/2000/svg" preserveAspectRatio="none" style="display:block" viewBox="0 0 2048 1462"><path fill="#fefefe" d="M0 0h2048v1462H0z"/><path d="M1076.17 114.488c132.74 1.895 268.29-.01 401.29.261l104.67.047c18.72-.017 44.14-.872 62.05.806 12.24 12.677-5.93 88.858-19.77 100.312-10.67 8.828-21.71 7.001-33.74 6.457-3.2 19.723-10.75 40.305-14.96 59.615-4.21 19.329 2.87 17.825-18.66 28.167-1.04 5.049-1 23.863-1.4 30.924 50.67-35.032 127.34-12.783 153.94 42.028 10.93 22.509 9.14 46.3 1.31 69.267 1.11-.215 2.22-.421 3.34-.619 51.66-9.121 73.24 49.259 46.39 86.939-12.13 17.01-27.66 18.644-46.83 21.385-2.01 4.061-2.84 5.767-4.23 10.145 134.71 128.632 189.78 315.62 220.14 494.058 1.23 7.22 1.82 14.82 2.86 22.06.51 3.57.76 7.22-1.06 10.41-2.93 5.17-1.71 9.27-1.75 14.93-.45 56.48-9.35 121.03-49.7 163.88-49.54 51.09-130.51 40.12-194.48 37.23-31.75-1.3-63.52-2.03-95.29-2.18-70.5-.9-141.77 3.43-212.22 4.43-4.33 19.21-16.99 26.47-36.05 27.57-59.48 3.42-118.98-5.35-175.81-22.82-9.17-2.44-42.21-4.82-40.26-19.9 3.84-29.62 84.92-38.47 103.67-39.05 4.39-10.71 19.56-64.4 21.14-75.4-21.01 1.59-46.84 1.41-68.07 1.55l-106.86.61a9510 9510 0 0 1-407.452-1.13c-1.975 2.82-3.964 6.1-5.831 9.03 1.238 10.92 2.15 20.46 2.762 31.42 14.679 14.4 46.843 27.37 66.533 33.24 11.383 3.24 21.905 4.77 33.893 6.76 9.621 1.6 45.173 2.38 37.415 19.86-6.782 15.28-22.885 20.61-37.569 25.85 4.488 9.35 2.792 17.99-6.102 23.96-25.653 17.21-61.979 15.15-91.172 9.76-15.438-2.85-30.442-8.78-46.206-10.16-21.621-1.72-43.738 1.44-65.392-1.87-17.923-2.74-23.744-8.14-33.981-22.22-37.929 1.4-88.006-3.01-127.799-3.39-18.509-.27-37.022-.12-55.525.44-58.785 2.14-115.527 7.43-162.758-34.23-43.856-38.68-53.784-89.62-56.369-145.09-.039-.83-5.94-4.07-5.868-9.54.132-10.09 1.349-19.87 2.266-29.9 1.708-18.13 3.288-36.28 4.738-54.43 8.06-96.326 25.813-323.194 88.937-392.25-25.423-49.857 7.925-82.672 19.667-128.49 13.401-52.295 5.038-111.564 54.891-147.723 23.681-17.177 57.124-21.67 85.324-16.036 16.232 3.242 56.606 13.786 69.862 21.385a42.3 42.3 0 0 1 13.414 12.198c16.216 23.044 16.171 51.398 11.058 78.165-1.149 6.509-5.422 13.61-4.089 20.296 3.589 17.993 26.73 26.564 1.751 41.552-3.472 22.668-13.219 59.539-41.686 59.636-4.824.016-9.404-1.461-14.144-.138-3.394 4.665 1.774 6.488.886 12.76-1.323 9.351-3.81 16.475-7.539 24.944a785 785 0 0 1 50.853 88.459c9.94 20.056 26.589 56.19 38.232 74.319 3.482-1.443 7.463-3.38 10.947-4.964 8.872-17.004 18.311-30.594 30.488-45.472 7.458-9.112 13.721-19.123 20.815-28.558a19140 19140 0 0 0 4.799-241.39q.264-27.844 1.074-55.677c.279-11.01 1.019-30.627-.142-41.033-12.383-9.856-20.308-19.135-21.108-35.442-.473-9.645-.844-20.9.162-30.444-23.657-22.799-31.669-55.075-36.115-86.843-7.135-.669-17.197-.316-24.566-.269-15.742-15.111-21.357-48.667-23.796-70.047-.723-6.332-2.837-22.628 1.385-27.587 1.853-2.178 6.937-2.233 9.934-2.274 19.236-.267 38.607-.139 57.849-.122l108.634.062 297.7-.182q74.64.345 149.28-.307"/><path fill="#fefefe" d="M1297.33 368.809c18.43-1.425 197.41-2.57 203.22 1.074-3.36 7.069-11.03 23.883-11.88 31.45-1.83 16.33-1.58 38.523 3.11 54.142 4.2 13.964 7.83 23.438 8.78 37.849-2.69 6.709-6.41 9.434-8.74 16.57-.08 6.02 21.63 29.662 27.06 38.643l.67 1.128c-.24 9.537.52 49.327-.79 55.168-7.92 8.827-36.83-.899-48.22 5.113-2.48 3.179-2.29 1.973-2.31 5.324 4.44 4.222 41.97 2.742 51.18 2.758.97 12.412-.27 39.172-.41 53.613-.24 25.413.57 56.737-2.03 81.774-.25 2.462-13.13 27.858-15.21 32.299-8.8-5.94-31.53-26.954-36.55-29.065-7.85-22.52-32.79-65.702-48.62-82.452-4.46-1.078-11.74-2.027-16.46-2.792-23.27-130.311-109.37-218.91-233.7-259.752-21.68-7.124-39.86-13.107-62.55-16.928-23.31-4.892-71.13-9.877-93.91-8.022-82.101 6.689-160.662 36.174-226.641 84.437a262 262 0 0 0-24.689 20.895c-10.311 9.809-19.727 21.327-31.012 29.807-2.485 1.867-7.329-2.331-9.797-2.198-25.297 1.36-50.718-1.275-75.947-.059-1.8.087-1.753 1.008-2.737 2.494.039 3.339-.131 3.675 1.777 6.2 6.324 1.977 74.628 1.703 82.531.252-68.245 81.606-63.017 190.571-65.018 290.501a9872 9872 0 0 0-2.412 164.067c-.058 15.245-.104 30.501-.852 45.731-.58 11.83 2.403 31.69-1.4 42.4l-1.95.64c-3.165-2.15-4.838-5.33-5.403-9.12-9.085-60.21-17.148-120.956-29.333-180.65-4.711-23.084-12.706-48.067-25.008-68.162 22.785-16.155 50.457-39.764 61.304-66.612 2.801-6.933-3.692-17.035-3.023-19.915 6.313-27.203 7.893-37.281-22.108-44.109-16.37-20.626-31.327 7.06-40.109 18.232-7.863-10.415-10.264-12.193-22.315-6.096-.478-25.907 1.295-52.783.957-78.201 14.137.49 29.672 1.343 43.796.169 3.898-.325 7.041-1.458 7.65-5.567-5.877-8.123-35.842-.068-48.827-4.912l-1.829-1.918c-1.038-20.463 1.012-57.192.389-76.152 5.34.679 11.824 2.174 12.697-4.973-3.061-5.091-6.271-4.171-11.777-4.304.232-16.873-.379-56.864 1.459-72.521 5.683-4.415 44.617 3.093 54.721-2.86 1.802-2.812 1.425-1.499 1.08-5.079-1.437-1.628-2.503-2.91-5.168-2.975-15.17-.368-35.232 1.502-50.095.015-.947-5.429-.575-62.572 1.106-67.854 6.092 1.417 24.592.238 30.411.586 16.101.964 113.541-1.81 121.848 1.475 6.899 6.799-4.126 34.077 5.182 39.113 5.182-1.229 5.783-3.352 6.015-8.897.439-10.481-.347-21.693-.808-32.158 13.557 1.06 34.164.51 48.299.553l95.25-.046 276.896-.137 81.37-.234c14.43-.044 35.51-.738 49.18.818 2.69 2.542-2.38 55.838 2.9 66.94 2.74 1.866 1.6 1.354 5.39 1.276 7.03-5.768 3.9-57.286 3.41-68.786"/><path d="M1352.07 436.314c16.8 2.564 123.11-2.002 129.34 2.925.58 3.597.78 1.92-.49 5.232-2.49 2.291-3.21 2.182-6.67 2.921-7.44-.554-23.35-.041-31.32-.04l-62.93-.057c-8.94.017-30.21 2.067-36.62-3.252-1.38-3.308-1.42-1.758-.37-4.796 2.86-2.518 5.21-2.397 9.06-2.933m4.49 82.728c22.52.79 45.04 1.164 67.57 1.122 8.47.034 35.96-3.312 39.82 3.943-1.07 4.668-1.6 5.245-6.02 5.857-15.07-2.033-96.27 2.483-102.48-3.372-.79-3.489-.27-4.026 1.11-7.55m-571.33-86.358c2.174.248 2.415.762 4.395 2.023 1.275 3.531 1.158 2.017.393 5.742l-1.892 1.866c-21.327 1.516-58.259.331-78.065 1.148-3.199-.518-3.035-.447-5.576-2.46-1.038-3.374-.883-2.015-.008-5.634l2.092-1.771c21.506-1.436 58.397-.292 78.661-.914"/><path fill="#fefefe" d="m1698.28 579.993 2.1.142c9.52 6.803 36.19 38.274 44.42 48.41 104.99 129.307 147.17 299.497 175.66 459.855-46.62 19.83-122 32.82-172.39 27.34-9-9.22-18.01-19.7-27.15-29.22a1297 1297 0 0 0-63.55-61.89l.16-.45c15.96-45.955 7.85-91.858-13.29-134.514-2.84-5.723-5.25-10.177-11.48-12.339-20.49-5.43-26.86-17.914-32.16-37.206 17.63-26.422 32.93-55.419 50.08-82.295 1.46-2.29 1.65-3.713 1.5-6.36-3.29-6.01-9.43-7.339-13.34-.952-18.76 30.017-36.1 63.356-56.31 92.322-13.18 18.894-40.15 66.575-61.42 74.828-33.63-8.429-46.63-15.56-67.44-44.743-11.54-16.184-24.04-33.369-36.45-48.937 11.54-9.548 24.17-19.658 36.72-27.853 6.01 6.987 26.42 36.096 34.3 35.829 10.56-9.855 47.95-86.953 56.31-103.364 43.06-84.608 61.39-118.189 153.73-148.603m-665.39 179.494q2.16.98 4.26 2.124c31.62 17.196 29.01 66.413 38.19 71.125 8-2.081 17.28-31.164 23.98-40.805l.75-1.067c19.01 34.542 15.78 85.416 17.52 124.218.2 4.346.11 4.576 2.71 7.101 3.79.797 2.4 1.013 5.83-.209 6.16-6.35 13.65-29.575 17.31-39.173 34.01 53.154 44.41 98.182 38.28 161.859-1.17 12.17-8.29 41.01-7.29 50.32 9.71 17.92 82.05 7.7 100.24 4.43-6.34 24.13-12.83 48.23-19.47 72.28-23.47 1.26-46.41 1.03-69.87 1.31-31.35.67-62.71 1.07-94.07 1.18-86.66 1.24-173.338 1.63-260.01 1.16-44.578.02-89.723-1.94-134.339-2.46-9.187-.1-20.912-1.14-29.875-.12-3.034-7.43-17.848-79.36-15.938-84.78 3.272-.45 1.946-.87 4.276.56-.061 7.95.223 13.41.84 21.26 26.343 11.2 70.5 9.8 98.479 5.98 8.445-1.4 15.063-5.91 23.727-6.54 15.969-1.14 110.899 7.25 117.769-2.38-1.375-6.71-5.397-14.1-8.222-20.54a123.8 123.8 0 0 1-8.257-26.15c-5.943-30.83 6.871-82.621 24.399-108.921 1.841 10.46 14.395 47.388 26.252 47.276 2.532-6.098-.64-32.778-.238-42.38.848-20.305 1.795-32.185 6.498-52.061 9.376-39.62 33.3-53.116 44.675-92.351 11.327 26.42 6.314 38.759 11.49 63.829 1.774 2.187.642 1.463 3.672 1.959 4.722-2.721 11.542-17.888 14.802-23.265 19.35-31.948 25.92-57.258 21.63-94.769"/><path d="M1030.5 956.731c7.04 4.094 6.68 6.935 8.14 14.546 2.56 13.42 4.05 28.257 8.35 41.193 2.58-7.33 10.61-29.88 16.98-32.937 17.76 4.649 24.97 40.957 29.83 56.097l.92.03c.35-.82.72-1.64 1.09-2.46 1.9-4.17 2.42-5.6 6.66-7.21 1.5.29 3.58.49 4.45 2.05 6.64 11.94 14.17 26.81 14.19 40.57l1.26 1.16c1.49-.68 6.94-3.12 8.16-3.19 13.5-.73 11.03 30.18 10.93 37.29 5.84 2.99 17.9-3.85 25.3 3.36.86 3.5.11 4.46-1.2 8.04-2.43 1.78-91.44 11.25-100.57 11.56-21.48 3.97-158.355 13.74-163.913-10.52 5.748-15.23 29.541 4.9 38.919-.22 1.562-4.02 1.011-7.2.864-11.53-.556-16.29 2.898-26.38 13.987-38.14 3.155 1.97 4.196 2.51 7.66 3.86 1.829-14.01 4.317-34.4 11.628-47.02 1.323-2.29 3.371-2.17 5.421-2.33 4.247 1.33 6.479 3.75 9.758 6.69 2.027-2.83 3.223-11.05 4.492-15.26 6.584-21.79 17.974-42.118 36.694-55.629"/><path fill="#fefefe" d="M1025.84 979.621c3.69 3.649 6.19 54.769 21.39 59.409 1.68-.82 3.3-1.45 4.1-3.37 4.68-11.29 10.9-24.64 15.03-35.881 12.75 21.801 14.11 39.421 14.23 63.531.02 3.51.53 8.14 3.26 10.6l2.35-.3c6.24-4.79 12.23-19.05 16.2-26.76 2.72 7.41 4.83 14.81 6.43 22.54 1.53 7.41-5.88 23.63 3.4 25.82 4.62-1.23 9.23-5.69 13.83-8.64l1.58.45c2.06 5.4-.68 13.15-2.11 19.08-10.03 2.27-25.24 3.26-35.74 4.15-14.08 2.74-126.137 12.17-134.92 6.76-1.766-6.69-.569-22.25 1.562-28.85 5.27.52 6.65 8.64 14.967 8.05 1.438-1.22 2.9-2.8 3.099-4.77 1.724-17.06 3.032-33.94 6.493-50.8 4.244 8.35 4.526 25.47 14.054 27.46 6.905-5.4 4.86-17.8 5.885-25.68.67-3.91 2.14-8.06 2.84-11.93 3.67-20.35 10.58-33.955 22.07-50.869M254.197 641.496c15.296.506 25.326.82 41.881 3.291 29.383 4.388 65.182 20.788 94.429 18.387 5.548-.456 9.478-7.365 12.015-11.676 24.18 36.804 53.756 99.508 73.023 139.722-4.058 2.272-9.625 4.693-13.945 6.712-11.806-34.072-29.441-72.383-44.438-105.107-.811-1.768-6.752-2.267-9.382 1.6-.92 6.881 11.025 32.205 14.49 40.732a2903 2903 0 0 1 26.669 67.669c-20.532 9.159-45.087 21.246-65.46 29.454-12.553-21.751-57.987-144.715-67.942-153.025-3.908-.399-2.514-.753-5.9.798-5.221 8.218 11.205 39.594 15.43 49.46l32.835 76.997c3.775 8.738 8.193 17.999 11.41 26.863 2.493 6.867-6.836 11.606.861 18.433 10.131-1.539 36.79-15.311 47.584-20.007 27.498-11.964 55.195-25.646 83.154-36.451 7.652 12.934 14.204 26.623 22.245 39.314-7.115 6.932-25.556 20.573-34.026 26.925-26.663 19.995-55.907 42.784-83.737 60.886-36.155 27.256-67.983 40.24-95.229-5.384-29.554-49.49-50.285-101.387-71.219-154.891-2.819-7.206-12.612-34.491-16.269-38.496-4.394-1.807-7.768-.862-9.352 3.768 1.662 10.652 12.494 38.403 17.107 49.896 21.134 52.645 42.601 108.622 74.11 156.067 5.444 8.197 10.245 12.478 18.008 18.178a1389 1389 0 0 0-98.494 170.159c-24.559 3.73-72.049 1.07-96.442-5.35 15.835-139.54 15.851-288.63 67.104-421.041 11.876-30.682 24.354-53.228 59.48-53.883m212.406-513.331c28.421 2.256 76.947.812 106.725.8l196.301-.063 607.921-.619 159.19-.053c26.96-.03 71.67-1.048 97.88 1.096-1 26.063-5.5 50.921-17.58 74.219-1.86 2.544-4.24 4.956-7.57 4.919-11.12-.126-22.24-.394-33.36-.58l-66.39-.629-304.72-2.184-724.919-3.516c-6.676-13.444-21.647-61.599-13.478-73.39m99.183 177.433c5.809 1.7 47.14.71 55.089.713l120.882.511 557.893 1.022c77.77.223 164.41-1.935 241.32.711-.32 9.464-.13 19.13-.81 28.574-.32 4.355-1.01 4.409-3.73 6.536-3.65 1.341-15.44 8.294-16.78 8.429-23.68 2.379-51.33 1.54-74.97 1.545l-109.86.513-387.547.628a18736 18736 0 0 1-366.591.613c-5.738-.055-17.258.026-21.841-2.891-9.584-6.1-12.771-37.191-7.984-45.525 2.374-1.172 11.552-1.166 14.929-1.379m-48.296-90.757c12.712 1.883 55.668 1.208 71.044 1.24l150.49.269 629.156 3.789 141.19 1.117c11.78.058 57.69-.506 65.33 1.153l.89 2.726c-1.42 4.263-7.33 2.698-11.71 3.021a106.3 106.3 0 0 0-19.12 3.292c-23.68 6.185-37.85 16.222-56.75 30.546-8.84-8.151-15.05-14.092-25.8-19.94-48.4-24.87-104.5-17.012-144.88 19.308-46.37-41.015-103.06-48.93-158.21-19.044-5.29 2.868-24.2 17.687-26.85 16.595-10.81-5.018-20.04-14.336-30.56-20.001-46.28-24.922-101.34-14.811-139.55 20.325-52.202-47.172-108.158-43.194-161.971-1.181-29.143-27.937-53.693-38.775-94.74-35.765-38.839 2.848-58.233 17.203-86.22 41.992-17.931-21.697-44.339-34.557-71.486-40.643-6.911-1.55-31.609-1.236-34.953-5.714 1.296-2.542 1.069-1.764 4.7-3.085m486.05 186.565c32.75-3.699 76.79 2.755 109.08 9.555-10 30.607-18.77 69.194-27.54 100.91-10.47-3.027-20.11-3.702-30.83-5.329.06.019-12.25-.398-13.48-.476-22.11-1.415-45.513 2.7-67.012 6.464-7.064-30.295-19.563-71.529-28.083-101.618 13.885-3.961 43.837-8.533 57.865-9.506m-202.666 74.33c4.368 2.884 51.427 81.891 57.662 92.244-35.005 27.544-52.021 46.775-77.242 84.046-4.58-3.067-9.252-6.473-13.776-9.663-22.792-14.265-44.813-31.252-68.728-44.909 18.361-45.965 60.231-95.515 102.084-121.718m459.106-2.648c5.61 3.13 14.94 10.606 20.03 14.782 36.81 30.233 61.58 62.249 81.24 105.104-21.35 15.743-44.41 27.369-66.71 41.526l-18.16 10.571c-14.12-25.777-48.88-60.39-72.83-77.345 12.75-20.173 24.82-41.437 37.26-61.843 6.48-10.619 12.16-22.567 19.17-32.795M672.175 944.662c14.653 1.641 28.71 2.379 43.332 3.61 15.258 1.284 29.712 3.404 45.116 3.821 2.954 16.923-.527 66.047.295 85.297.277 6.48-.404 58.1-1.216 62.51-23.854 6.87-66.409 6.48-90.48-.37l1.319-102.168c.186-13.238-.09-40.73 1.634-52.7m449.085-531.047c6.58.6 17.75 4.311 24.34 6.081 36.38 9.779 75.63 27.362 107.07 48.217-14.82 24.673-30.69 50.181-44.32 75.383-4.87 6.849-7.68 11.481-10.67 19.296-25.85-20.91-71.89-40.323-103.7-49.129 6.61-20.394 10.76-42.907 16.9-63.623 3.56-11.99 7.01-24.186 10.38-36.225M695.789 604.898c6.44 5.127 18.646 12.729 25.802 17.565 18.514 12.509 36.559 24.239 54.518 37.661-15.828 32.461-10.498 70.138-12.107 105.287-.343 7.502.401 16.945-.596 24.152-3.447.794-6.784-.162-10.355-.794-9.806-1.741-74.967-11.971-78.317-15.219-1.246-9.184.008-27.048.346-37.099 1.608-47.835 5.022-86.076 20.709-131.553M434.415 403.379c1.197.759 2.014 1.332 2.847 2.504 19.736 27.765 16.372 37.87 10.465 69.436-2.742 14.65 4.674 24.547 12.846 35.215-2.364 2.136-5.925 4.732-8.514 6.743-6.053 15.489-6.905 40.208-21.53 51.704-12.587 9.895-35.319-2.809-49.018-4.613-2.697 1.938-3.036 3.53-2.471 6.584 2.417 3.132 9.08 5.826 13.393 8.397-9.236-.494-26.868-4.176-36.606-5.955-3.547-.842-6.75-1.739-10.234-2.744 2.859-20.111 1.89-28.229-.517-47.76 2.559-2.715 3.072-3.174 4.894-6.362-.336-11.86-30.374.774-29.369-36.589a88 88 0 0 1 1.619-3.203c13.915-26.02 27.17 12.072 36.783 6.087 27.645-17.209 60.483-50.373 75.412-79.444"/><path d="M437.806 451.205c3.954-.056 6.336-.261 9.749 1.64 1.77 2.522 1.915 2.397 1.919 5.36-4.55 5.719-13.414 3.248-20.694 5.95-4.61 1.412-7.16 2.733-11.301-.24-.044-8.73 13.966-11.232 20.327-12.71m-2.776 21.311c12.274 2.383 11.69 17.972 2.911 24.623-11.355-5.551-9.919-15.988-2.911-24.623m-20.492 53.086c6.436 2.718 21.943 5.107 23.962 10.338l-1.396 2.884c-7.765 2.283-18.715-.449-23.317-7.428-.633-3.713-.72-2.209.751-5.794m-84.275-45.932c9.702.896 18.078 3.996 14.569 15.09-4.162-2.084-12.679-5.778-15.065-9.599-1.054-1.687-.084-3.363.496-5.491"/><path fill="#fefefe" d="m934.634 414.141 1.934.198c11.563 33.371 17.707 67.637 28.182 99.948-24.434 8.034-46.653 16.377-69.078 29.195-10.238 5.852-19.723 12.36-29.913 18.4l-9.539-14.74c-1.757-3.516-3.971-7.073-6.088-10.396-14.09-22.124-27.208-44.88-41.087-67.119 8.735-4.789 18.209-11.287 27.077-15.977 24.805-13.118 71.509-34.637 98.512-39.509M673.829 785.812c11.279.527 36.178 5.728 48.167 7.682 12.43 2.025 29.789 4.615 41.496 7.327-1.662 30.415.195 64.608-1.319 95.467-.677 13.786.868 31.666-1.52 45.116l-1.823.649c-26.334-4.577-60.661-4.272-88.14-8.426 1.795-12.382 1.508-37.718 1.766-51.142a9528 9528 0 0 0 1.373-96.673m838.921-284.338c2.34-43.67-33.93-69.801 12.03-103.08 6.16 10.258 15.29 21.568 25.03 28.48 21.46 15.234 41.34 17.625 53.83 43.064.43-.149.87-.28 1.3-.449 7.79-3.095 9.72-22.32 24.33-17.028 2.29.829 3.55 2.416 4.43 4.637 1.8 4.552 1.32 9.13-.66 13.516-4.9 10.866-16.46 15.125-23.32 23.949-2.43 3.116-15.72 44.187-15.21 47.362 3.07 3.575 4 1.763 8.09 3.781-1.45 5.169-11.42 10.93-15.96 13.491l-1.16.65c2.6-3.266 6.24-6.953 6.95-10.814l-1.02-1.498c-3.25-.456-4.04.669-7.43 3.136-25.91 18.825-36.15 16.368-55.68-9.48a239 239 0 0 1-2.99-4.051c-1.21-2.991-16.24-23.373-19.01-27.34 2.31-2.743 4.6-5.261 6.45-8.326"/><path d="M1525.31 537.14c.47-3.16.07-4.674 3.4-6.531 5.57-3.109 14.91-10.604 20.97-10.692.21 3.749.92 4.904-1.8 7.818-5.89 6.314-14.2 9.397-22.57 9.405m-2.12-71.273c11.37 3.928 13.35 17.801 7.59 27.397-11.18-2.677-15.54-18.779-7.59-27.397m7.24-18.724c4.78.472 8.93.381 10.37 5.532-4.6 5.461-14.29 2.668-21.54 6.682-2.39 2.324-2.52 2.387-5.55 3.741-3.43-.508-2.08.273-4.24-2.269.73-10.257 12.89-11.979 20.96-13.686"/><path fill="#fefefe" d="M535.364 280.243c9.001-.82 32.195-.047 41.978.023l88.723.943 251.904 1.327L1339 284.203c71.86.319 149.96-2.003 221.26.771.27 2.709-1 7.299-2.84 9.43-11.07.908-26.71.528-38.16.544l-78.33-.221-281.95-.313-424.299-.975c-63.28-.294-125.7.276-189.011-1.436-3.192-3.723-8.975-7.749-10.306-11.76m57.674 947.687.906.24c5.427 4.28 1.531 20.72 15.131 28.97 39.737 24.09 80.055 50.35 126.094 60.39 4.93 1.07 12.931 1.85 17.176 3.79l.308 1.86c-5.586 14.23-48.968 12.46-61.897 12.05-24.504-2.11-38.167-7.66-62.286-12.18-23.23-4.35-68.416 5.99-87.614-10.6-13.348-11.54-1.354-33.26.991-47.11.843-4.98.545-10.79.385-15.93 13.834-6.96 35.917-15.36 50.806-21.48m764.032-448.766c9.62 7.811 24.13 21.343 33.62 30.046.48 11.034-.19 34.766-.83 45.838-26.25 10.668-42.2 34.654-56.6 57.515l-.27.468c-2.04 1.588-25.2 2.697-30.79 3.343-.28-42.039-.32-84.079-.1-126.118 19.03-2.574 36.58-5.486 54.97-11.092m8.57-176.911c5.87 6.878 18.41 55.573 20.9 65.784-2.56-1.698-7.69-5.752-10.64-4.392-11.7 5.398-21.99-11.813-27.83 5.3-.84 2.442-6.74 3.476-9.42 4.894-6.96 1.63-2.39 13.233-3.73 14.396-11.66 10.047-7.28 19.62 2.44 36.737-3.31 1.333-5.67 1.867-7.88 4.591-1.32 8.922 16.65 33.691 22.45 41.721-4.08 1.193-8.61 2.059-12.79 2.964-12.42 2.654-24.19 5.313-36.83 6.881-1.5-30.694 2.87-66.871-4.93-96.21-2.26-8.481-10.44-23.555-14.68-31.669 5.65-5.416 20.2-13.756 27.46-18.147zm-751.55 86.282c2.959 1.091 1.863.188 3.583 2.552-2.177 13.723-45.721 51.633-41.889 61.003l2.03.681c9.538-1.966 31.872-29.611 38.487-38.011 2.787-3.538 9.913-15.046 12.78-17.131l5.175.912.919 1.559c-2.886 16.979-51.467 56.891-46.779 64.693l2.016.282c14.237-4.618 42.326-40.692 51.552-53.55-4.51 19.5-17.421 34.136-31.421 47.618-4.22 4.063-9.836 9.479-12.371 14.696.911 3.442.034 2.086 2.457 4.37 5.728-.3 15.731-11.256 20.26-15.566 6.915-6.389 13.55-14.203 19.863-21.278-7.373 21.386-40.5 54.309-60.044 65.785-12.453 7.311-32.115 11.253-45.711 18.325l-1.199.636c-4.791-7.578-18.116-32.602-20.506-40.753 8.822-21.46 18.961-31.544 32.622-49.489 5.958-7.827 8.415-13.074 15.502-21.259-3.149 11.371-17.218 36.544-16.908 40.084 1.583 2.809.452 1.861 3.523 2.916 4.637-.909 9.383-5.735 13.2-8.76 21.724-17.214 36.701-38.003 52.859-60.315m991.75 187.159c7.76 7.335 11.64 10.241 21.75 13.858a143 143 0 0 1 3.87 6.618c18.02 32.935 28.4 84.392 17.58 121.12l-12.7-12.22c-16.1-14.677-32.4-28.81-49.29-42.542-12.82-10.425-11.87-30.3-12.82-47.079 15.49-15.629 19.05-21.259 31.61-39.755"/><path fill="#fefefe" d="M1358.7 671.765c11.27 6.931 33.43 57.093 45.03 67.388 1.32 1.172 3.28.376 4.62-.189 3.71-10.431-27.67-55.459-33.99-67.12 13.8 8.245 35.68 42.191 45.57 56.573 3.35 4.872 7.91 14.89 12.11 18.451 3.65 1.047 2.15 1.16 5.55-.183 6.01-10.251-10.83-21.895-13.24-34.901l1.06-1.294c6.42 2.806 23.03 34.57 24.98 42.519 1.87 7.586 2.45 20.718 2.53 28.955-15.19 10.014-27.87 18.223-41.79 30.016-8.04-7.743-14.72-13.653-23.29-20.813-3.53-3.201-9.69-9.076-13.06-11.985-5.67-4.894-27.55-33.16-27.63-38.736 6.73 4.433 12.83 14.025 19.25 18.043 3.67.005 2.05.554 4.98-1.813.6-1.883 1.64-4.037.18-5.892-13.4-17.01-26.91-30.265-32.62-51.889 6.68 6.886 33.47 46.937 38.95 46.552.45-14.308-37.64-54.854-31.9-62.938 11.45 4.193 36.93 64.485 49.16 58.379 3.24-9.808-34.6-54.399-36.45-69.123m175.09-106.475c17.99 13.532 17.75 9.54 37.47 9.149 4.49 2.784 21.98 34.523 27.13 42.153-19.57 21.807-30.78 40.528-45.37 65.884-7.47 13.926-13.8 28.209-21.05 42.223-.74-24.621.61-54.454.91-79.511.26-22.275-1.09-58.829.91-79.898m-886.805 637.68c5.606 6.33 2.471 24.75 8.37 34.19 11.208 17.94 75.799 38.13 97.525 42.46 11.454 2.28 23.259 2.07 34.617 4.81l.119 1.8c-6.206 7.38-28.919 13.95-38.372 17.05-22.873 7.2-119.767-46.02-135.915-61.88-2.156-7.15-3.466-12.68-5.033-19.9 12.683-6.86 25.551-12.65 38.689-18.53m566.685-964.589c31.55-5.259 71 10.064 93.46 32.502-23.7.038-50.31.14-73.88-.759-10.47.165-87.14 1.222-90.8-.61 17.08-15.345 47.8-28.988 71.22-31.133m-510.295-3.09c34.101-4.032 65.08 7.721 88.109 33.16-17.833 1.155-35.839-.667-53.698.05-4.444.178-8.56.263-12.966-.543-4.528-.127-9.505-.046-14.069.057-25.109.564-51.629-1.647-76.593.076 22.395-17.987 39.5-29.52 69.217-32.8m337.455 3.216c.8.303.51.291 1.35.22 34.32-2.863 54.18 11.66 80.1 31.262-24.51.317-49.02.327-73.52.028-23.91-.546-56.213 1.02-78.546-.418l.414-1.319c18.937-15.781 45.512-27.773 70.202-29.773m358.11 3.05c.82.117 9.62.078 11.14.131 25.27.89 48.66 9.402 66.16 28.199-10.95 1.636-62.03 1.195-74.45.685-7.41 1.915-63.81-.201-74.98-.538 22.5-18.509 43.15-26.597 72.13-28.477m-519.577-3.02c13.906-.138 23.509.854 36.399 6.359 7.153 3.055 31.405 16.916 34.224 24.12l-1.513 1.063c-17.281-1.143-45.34-.666-61.721-1.131-24.687.388-53.114.515-77.656-.219 18.364-17.104 45.314-28.532 70.267-30.192m552.557 828.243c7.61 8.58 15.75 19.68 23.59 28.64 6.07 6.94 21.2 23.63 25.19 30.26-10.59 2-21.19 3.94-31.8 5.81-13.25 1.93-28.86 4.54-41.93 7.16 8.33-23.57 17.71-48.03 24.95-71.87M516.76 233.783c12.113.936 25.269 2.002 37.017 5.213 8.35 2.283 48.742 18.802 45.897 28.448l-5.095.574c-16.422-1.681-48.876-1.213-66.697-1.426a112.7 112.7 0 0 1-11.122-32.809m1047.78 8.577c2.34-.298 3.89-.795 5.97.24 1.88 4.629-3.75 21.053-5.06 28.074-18.16.379-38.66.536-56.7-.097-2.9.401-3.93.295-6.88.137l-.64-1.183c10.41-13.825 46.86-25.376 63.31-27.171m-244.22 682.051c3.32-.304 3.86-.507 7 .334.36 2.881-4.87 12.801-6.43 16.86-6.86 17.907-12.02 35.864-17.74 54.119-.45 1.564-.67 1.688-1.49 3.127-.88-2.25.23-65.63.96-72.684 4.48-1.653 12.66-1.558 17.7-1.756M459.397 1066.59c2.501 2.31 13.987 44.17 15.9 51.12-5.101-1.39-10.413-3.23-15.464-4.9l-22.447-6.61c8.021-12.58 13.917-27.32 22.011-39.61M1590.86 854.711c1.88 1.589 4.89 7.815 6.25 10.355-13.67 18.908-21.68 40.803-43.89 47.174l-4.15.839-.73-.799c16.05-17.792 28.97-37.717 42.52-57.569m-125.46-83.217c9.61 8.34 19.92 18.164 29.23 26.908-2.02 4.638-4.76 9.689-7.1 14.242l-1.4 1.23c-3.9-2.214-21.31-23.598-25.17-28.143 1.55-4.209 3.1-9.842 4.44-14.237m99.01 149.584.59.094c1.52 1.745 3.41 21.184 4.26 25.907l-9.46-6.851c-3.88-3.01-11.95-8.031-12.16-12.805 3.24-2.885 12.09-4.89 16.77-6.345m-160.53-92.666c3.2 2.823 15.36 18.82 15.48 22.07-5.69.136-10.61.161-16.29-.041-.19-7.623.32-14.454.81-22.029"/></svg>