<svg xmlns="http://www.w3.org/2000/svg" preserveAspectRatio="xMidYMid meet" viewBox="0 0 2048 1462"><path d="M251.266 139.426c51.663-1.73 109.377 1.381 162.106.838l130.266-.772c31.771-.351 64.715-.466 96.501.036 9.289.147 29.953 5.244 40.083 7.521a4795 4795 0 0 1 59.769 13.766c7.375 1.736 25.338 6.332 32.266 6.538 28.872.857 58.691-.153 87.657-.227a15055 15055 0 0 1 212.736-.723l180.81 3.169c26.67.62 54.68 3.533 81.28 2.143 7.61-.398 23.86-4.444 31.67-6.253 16.77-3.836 33.51-7.853 50.2-12.049 24.39-6.204 40.53-11.037 65.95-11.455 52.32-.86 104.5-.112 156.8-.002l191.27.435c15.88.053 65.53-3.19 77.36 2.134 9.02 10.322 5.09 73.816 4.63 90.237l-3.73 114.732-6.18 166.243c-.41 11.644-.8 78.911-4.24 82.729-13.74 1.737-46.16 1.178-61.2 1.119-30.82.111-61.65-.107-92.47-.654 10.68 24.07 22.82 49.847 38.37 71.203 5.94 8.162 17.61 17.965 24.25 26.206 27.01 33.546 30.2 63.745 30.69 104.651 25.01 11.357 41.88 28.257 53.93 52.857 24.03 49.045 23.2 100.477 10.12 152.512-7.05 28.03-15.23 55.13-19.48 83.71-4.89 32.9-6.94 66.21-12.33 98.94-1.47 8.9-3.29 21.11-6.07 29.4 9.48-1.25 31.72-6.6 38.24 1.52 1.07 3.98 1.26 2.5-.11 5.96-16.1 14.16-136.29 8.61-161.25 9.18-27.11.62-64.26 1.47-92.1 2.05-.2 7.12-.25 11.11-1.63 18.21-1.1 2.4-3.84 7.44-6.67 7.69-54.91 4.91-113.17 6.28-167.97 8.09a30556 30556 0 0 1-610.717 14.47c-125.573.53-251.149-.21-376.707-2.22-19.166-.23-149.205-1.3-159.816-6.74-4.891-4.64-3.758-16.36-3.961-23.66-28.857 1.55-196.232 9.01-213.43.67-2.396-1.16-3.087-2.68-3.916-5.1.26-3.71 3.278-7.51 7.073-7.56 14.889-.21 29.829-.07 44.731-.09-5.722-47.57-18.842-99.34-21.772-148.16-.48-7.99-19.044-42.93-22.817-55.76-17.008-57.835-28.172-125.922-11.137-184.965 16.091-54.674 71.379-94.31 128.445-73.409 40.677 14.898 63.615 52.535 81.984 89.83 25.122-61.145 53.886-106.838 98.464-155.298-33.998 1.088-59.506-5.43-85.214-29.393-24.889-23.201-36.467-50.04-39.644-83.487-15.502-1.767-58.52-.128-67.594-7.634-3.966-10.737.117-91.991.334-108.176l3.741-258.711c.182-12.54-2.035-72.556 1.855-81.007 5.81-4.874 20.317-4.607 28.574-5.284"/><path fill="#fefefe" d="M1463.66 158.015c29.9-1.681 61.14-2.183 91.09-1.682 41.13.687 84.9-1.162 125.76 1.843-2.53 8.782-1.4 42.83-1.66 54.618l-2.64 148.091c-.34 20.361.74 50.054-1.41 69.567-37.39-30.031-65.22-34.327-112.74-30.501-34.21 2.755-110.66 34.307-76.77 78.406-2.89 16.435-4.14 27.28-4.55 44.297-.28 11.957.06 25.575-1.88 37.719-1.53 9.607-14.02 29.912-8.63 38.852 2.23 3.703 10.68 5.146 14.84 6.055 7.8 46.592 16.83 76.523 72.1 72.274 15.31 34.604 2.66 29.448-18.24 46.641-70.14 57.695-100.22 146.521-149.49 220.84-8.92-6.486-16.13-12.162-24.23-19.53-24.99-22.726-41.84-51.28-62.1-77.91-4.65-6.105-7.66-4.141-13.38-7.8-14.63-19.082-28.54-39.124-46.6-55.243-5.16-4.607-12.37-6.629-17.84-10.834-14.48-11.077-18.36-15.496-36.12-19.857.85-7.04 1.87-10.481-2.95-16.499-9.24-11.543-30.6-12.092-44.39-13.492-6.75-.687-17.38-1.138-24.11-1.164-8.77.24-17.53.604-26.29 1.092-3.88.373-7.75.793-11.62 1.262-13.75 1.754-34.68 5.86-43.39 17.105-2.98 20.005 16.64 82.85 18.8 107.326 3.26 10.644 5.3 37.226 11.43 45.771 16.82 23.455 75.3 10.958 94.53 3.851 12.16 5.269 26.09 9.973 35.47 18.832-6.67 9.702-9.79 9.389-13.66 21.698 2.9 16.686 16.81 42.719 24.1 59.37 13.08 29.847 25.49 72.907 41.24 99.897-11.4 1.55-27.45 1.23-39.46 1.38l-59.87.74-71.44.55c-14.72.13-41.39 1.66-54.5-2.18-1.57-1.84-5.66-6.63-7.57-7.72-26.448-14.95-68.95-16.09-97.751-9.09-18.404 4.47-39.322 14.61-56.839 14.31-33.011-.57-65.328-3.13-97.987-6.34-27.225-2.67-54.722-4.45-81.637-7.52 1.812-4.67 4.566-10.18 6.713-14.87 19.296-42.19 35.215-85.78 53.724-128.272 1.616-3.711 6.155-12.064 9.57-14.248 26.788-17.138 53.689-27.504 77.171-49.838 4.435 7.28 9.324 21.344 17.129 24.946 18.498 8.537 51.083 5.823 70.761.856 4.956-1.251 16.501-6.811 17.582-11.137 11.228-44.978 18.619-91.499 26.506-137.231 3.679-21.332-7.839-23.69-24.688-30 32.245-1.634 63.283-1.23 95.506-1.225 19.63.003 39.25-1.249 58.89-.946 6.82-.911 19.93-.676 27.34-.694 31.96-1.047 65.92-.228 98.02-.362l139.4-1.03c11.6-.013 90.48 1.179 96.99-1.743 5.55-6.991 4.51-45.594 4.92-57.407a6020 6020 0 0 0 3.01-133.013c2.88-122.915 4.16-245.863 3.84-368.811"/><path d="M1627.98 356.628c12.14.263 13.07 5.981 14.91 16.397-2.57 4.909-3.14 6.01-6.79 10.171-12-1.4-12.53-.993-16.69-12.342 2.34-7.734 2.67-8.939 8.57-14.226"/><path fill="#fefefe" d="M1634.14 732.13c4.75-.433 7.07 1.138 11.49 2.648 15.79 5.403 26.18 22.209 32.58 36.864 10.52 24.077 14.24 56.954 3.99 81.841-5.85 14.2-13.25 26.395-20.36 39.903-31.08 59.024-72.66 109.684-112.61 162.774-28.73 38.17-58.31 77.44-92.4 111.17-11.71 11.59-26.26 21.72-41.4 28.42-22.75 10.06-38.26 7.29-61.03-1.78-49.52-19.74-83.46-77.49-104.15-123.9-8.96-20.1-17.7-45.63-26.61-66.82-8.17-22.989-20.62-40.142-27.37-63.098 24.56-24.345 41.63-36.626 76.25-39.748 21.93 24.537 36.43 64.328 59.35 91.197 23.65 27.729 44.66 33.659 71.08 56.489 11.85 10.24 14.61 30.02 23.28 40.84 7.36 2.84 12.05-3.71 10.26-10.36-5.6-20.8-20.3-40.29-37.46-53.07 20.25-26.263 35.59-47.731 53.66-74.965 39.38-59.323 108.66-200.355 181.45-218.405m58.88-574.238c68.2.421 134.52 1.675 202.79 1.078-.18 57.284-3.14 117.972-4.73 175.675l-5.05 233.753-.06 14.684-146.28-.03c-16.89-31.844-22.33-82.09-36.19-115.956-1.95-4.782-10.39-17.004-13.6-21.705 1.05-19.405.58-43.553.78-63.373l1.46-122.308 1.14-65.582c.16-8.604 1.04-28.571-.26-36.236"/><path d="M1729.05 354.854c7.33.032 11.95.784 15.42 8.391a15.45 15.45 0 0 1 .19 12.564c-1.87 4.526-3.9 6.478-8.2 8.406-18.3 2.328-22.13-19.262-7.41-29.361"/><path fill="#fefefe" d="M775.84 760.978c4.371 1.209 7.029 1.953 9.511 5.524-4.793 8.1-34.81 8.784-36.949 21.519 5.062 10.476 15.334 1.256 24.231-.305 9.775-1.715 42.138-14.737 50.905-9.865.922 2.682.701 2.757.115 5.453-2.13 2.881-6.298 3.473-9.777 5.591-1.528 2.783-1.363 3.06-1.136 6.367 2.269 5.202 10.648 6.084 10.26 11.195-1.042 13.71-21.564 8.036-.429 25.602-1.78 4.165-7.719 12.808-10.407 17.017 2.114 3.498 6.041 8.46 8.594 11.883-16.807 29.975-68.052 36.904-84.559 61.597-11.282 16.877-24.02 52.817-32.038 72.792-23.352 58.172-55.097 133.742-94.978 181.582-13.373 16.04-30.142 29.65-51.707 31.34-14.35 1.12-30.55-3.12-41.464-12.76-39.896-35.24-58.743-152.1-67.912-204.965-3.99-23.002-9.131-46.949-10.427-70.263-5.88-34.379 1.276-85.986 20.667-115.552 6.773-10.326 16.141-19.311 28.569-21.862 10.741-2.205 22.247-.239 31.375 5.91 42.515 28.637 46.172 174.007 56.828 225.852-12.628 17.13-75.906 91.47-73.511 107.17.391 2.56 1.096 3.28 3.172 4.61 6.555-1.25 14.329-14.97 18.698-20.9a2060 2060 0 0 1 30.463-40.38c41.379-53.62 83.407-101.292 118.849-159.701a802 802 0 0 0 27.443-49.794c19.891-40.241 31.365-75.652 75.614-94.657m-122.733-604.25c9.316.623 22.269 4.701 31.922 6.589 26.263 5.136 52.084 11.217 78.087 17.509.309 42.201-1.463 87.215-2.183 129.727a24401 24401 0 0 1-5.642 273.892c-.999 39.918-3.228 84.416-3.23 124.196-11.237 1.952-32.619 1.38-44.798 1.404-22.942-.121-45.885.157-68.817.833-.418-29.869.771-63.165.774-93.694 2.441-3.679 8.002-11.379 7.605-15.592-.985-10.467-10.425-35.635-22.591-35.393l-1.425 1.791c-1.9 10.874 5.402 23.164 10.24 32.761-4.731 8.186-13.96 20.711-19.581 28.835-4.06.583-9.687 1.493-13.632.506-7.557-1.889-10.535-8.954-18.429-7.331-3.277 2.587-2.285 1.24-3.803 5.08.928 17.632 28.743 10.419 32.207 14.813.177 7.645-9.553 25.813-16.951 28.884-10.157 4.216-21.81 3.666-32.057.046-4.364-2.584-11.251-7.222-16.28-6.881l-1.077 1.483c-.453 26.374-17.869 46.536-7.135 74.662 3.531 9.252 7.166 24.298 9.726 33.909a640 640 0 0 0-17.499-18.882c-29.617-30.501-61.861-38.371-102.766-38.958 25.718-16.393 60.277-37.565 80.897-59.673 5.131-5.502 12.396-18.957 16.222-25.973 7.965 3.008 21.145 6.757 24.767-4.179-1.754-7.741-16.771-7.199-22.356-14.04-7.37-9.025-4.624-33.075 10.396-32.519 5.514.204 4.745 8.824 11.157 10.221 6.76-1.26 50.108-29.517 57.394-36.829 7.746-7.774 13.727-15.316 20.436-24.427.319 7.921-1.468 25.492 3.567 30.549 3.04.032 11.797-2.713 13.495-4.868 19.286-24.479 19.858-58.656 3.437-82.581-1.007-25.11 1.264-57.275 1.558-83.003.879-77.126 5.658-155.866 6.365-232.867"/><path d="M681.604 195.573c4.082.314 4.664.107 7.796 2.431 4.098 10.194-1.682 384.139-2.195 419.496-.048 3.253-.37 5.852-1.638 9.037-3.734.798-4.325 1.132-7.958.43-3.107-2.561-4.579-6.914-4.427-10.819.829-21.339.944-42.816 1.195-64.132l1.437-144.503 1.192-149.015c.295-18.39.468-37.071.838-55.482.081-4.022 1.265-4.461 3.76-7.443m42.373 11.11c4.516.205 6.427.035 8.908 3.818 1.119 21.875.202 49.754-.307 71.942a7161 7161 0 0 1-2.137 92.801l-2.974 118.565c-.226 9.665-.329 70.094-3.787 74.993-3.193 1.191-4.365.394-8.07-.209-3.798-4.981-2.243-28.304-2.171-36.356q.446-43.97 1.761-87.922l3.38-150.828c.546-26.397.791-53.117 1.606-79.54.076-2.469 2.316-5.232 3.791-7.264"/><path fill="#fefefe" d="M243.025 156.456c20.973-1.45 49.628-.38 71.011-.08 37.804.871 75.621 1.038 113.432.501-1.293 24.778-1.104 52.221-1.732 77.275a11832 11832 0 0 1-4.412 142.081c-.671 21.536-.609 42.223-1.559 63.96-9.796 13.217-19.804 24.032-28.716 38.429-10.541 17.029-20.258 38.8-32.517 54.259-15.936 17.45-39.221 33.714-62.22 38.962-8.421 1.922-9.247 5.19-13.233 12.604-5.995 2.052-43.366-1.012-53.321-1.124 1.073-18.558.751-39.018 1.176-57.823l2.298-158.817c.142-17.054-.053-36.689 1.061-53.608 2.436-37.018 1.847-73.611 2.491-110.685.251-14.458-1.379-29.348-.267-43.76 2.278-2.424 2.178-1.647 6.508-2.174"/><path d="M379.674 364.427c6.569-.544 12.383 4.229 13.129 10.778s-3.844 12.508-10.367 13.457a12.203 12.203 0 1 1-2.762-24.235"/><path fill="#fefefe" d="m1240.67 1114.56 15.78-.68c25.83 46.33 63.44 93.54 119.27 101.66 32.52 4.72 59.78-10.23 83.73-30.82 7.15-6.16 13.95-13.57 21.46-19.11l.89-.65c6.62 3.37 18.21 7.69 25.47 10.68l49.1 20.37c17.31 7.31 43.52 20.8 60.54 25.65-53.35 2.22-106.73 3.7-160.12 4.41-95.54 2.7-191.1 4.24-286.67 4.61l-455.63 7.75c-93.431.28-186.862-.46-280.277-2.22-9.733-.1-79.727.22-83.559-2.46 5.84-4.96 33.347-18.73 41.786-23.85 26.598-16.15 59.335-33.94 84.717-51.85 11.193 20.41 15.312 37.19 35.954 53.07 11.753 10.76 46.414 16.96 60.886 9.72 18.753-10.73 35.257-7.39 56.138-8.38 63.509-3.78 127.063-17.82 189.609-29.17 34.412-6.25 49.181-11.21 85.511-9.13 28.007 1.6 68.377-6.54 94.805-15.56 13.48-4.6 24.32-10.65 33.17-22.37-.78-12 .53-10.05 7.71-20.12 30.03 1 64.32-.33 94.71-.58 34.36-.28 70.77.1 105.02-.97m205.92-953.217c2.01-.455 1.03-.542 2.98.421 2.72 9.647.52 92.302.35 108.247-.57 94.65-1.99 189.292-4.24 283.917-1.03 48.377-4.41 102.315-3.55 149.987-6.14.438-12.46.517-18.61.354-31.77-.845-64.07.817-95.77-.252l-2.22-.061c-.46-.495-.91-.99-1.36-1.485-.02-21.973.88-53.197 1.5-74.229l11.67-336.586c1.14-34.711.95-70.68 2.5-104.872 16.65-5.345 38.4-9.494 55.87-13.811 15.01-3.709 36.02-9.494 50.88-11.63"/><path d="M1369.19 244.35c3.31 1.736 4.2 2.029 6.39 4.998 5.06 20.19-6.86 368.544-11.53 385.121-1.66.553-3.46 1.002-5.16 1.468-1.3-.344-2.88-.453-3.52-1.549-5.28-9.083-1.66-35.46-1.27-45.524l3.4-86.664c3.38-77.426 7.22-154.684 6.15-232.155-.16-11.201-1.62-18.514 5.54-25.695m44.46-14.538c1.44.021 3.03-.025 4.43.276 1.41.303 3.03 1.007 3.83 2.223 5.16 7.887-9.18 260.806-14.07 285.848-3.16 1.212-3.56 1.259-6.93.918-4.86-3.284-4.95-6.773-4.46-12.381 1.17-13.374 1.93-26.771 2.72-40.174l7.68-131.602c1.56-31.314 1.86-63.09 3.6-94.445.23-4.154.94-7.092 3.2-10.663"/><path fill="#fefefe" d="M1070.37 432.399c31.37-1.349 67.35-.429 99.14-.391l149.6-.274c-1.94 48.356-4.6 96.992-6.11 145.407-1.06 33.844-.66 68.031-3.1 101.814l-157.08.022c-10.38.023-85.26 1.269-88.08-.844-1.02-8.007.01-27.293.26-36.017l1.85-68.281 2.36-87.68c.28-15.073-.14-39.527 1.16-53.756m-266.384-.471c15.115 2.513 53.045.654 70.512.84 52.458.558 106.112-1.82 158.512.263-2.23 56.581-1.23 114.247-3.71 170.852-.96 21.787.91 53.784-1.95 74.381l-2.1.853-229.451.845a9177 9177 0 0 0 4.245-166.06c.248-11.237.825-77.368 3.942-81.974M583.555 155.543l55.628-.733c1.501 28.762-2.246 67.758-2.855 97.513a7807 7807 0 0 1-2.861 121.647c-.634 24.573-.854 50.769-2.508 75.145-24.509-20.577-87.664-43.286-120.407-46.057-32.222-.619-49.608 6.909-75.754 24.169 1.677-89.459 6.89-180.916 7.248-270.282 43.619.543 98.209-.037 141.509-1.402"/><path d="M471.615 361.173c6.396-1.996 13.214 1.496 15.331 7.853 2.118 6.357-1.242 13.24-7.558 15.479a12.3 12.3 0 0 1-16.142-14.136 12.3 12.3 0 0 1 8.369-9.196"/><path fill="#fefefe" d="M1076.05 209.37c6.53.762 24.61.421 31.97.457l61.93.223 156.01 1.217c.87 17.587-.51 43.963-1.06 61.845l-4.54 119.65c-10.24 2.001-30.06 1.484-41.18 1.516l-65.78.01c-46.99-.304-94.45.822-141.67.448l2.56-118.422c.41-21.657.33-45.49 1.76-66.944m-268.655-1.88c6.983 2.345 57.107 1.066 68.231 1.13l160.384 1.104c.08 59.322-3.74 126.316-2.07 184.836l-230.907-.542c.072-22.775.739-176.916 4.362-186.528M202.031 789.508c14.41.825 26.202 3.268 38.367 11.464 28.077 18.917 53.321 55.125 60.295 88.3-6.857 20.723-18.943 47.932-27.523 68.602a3524 3524 0 0 1-53.425 124.446c-4.496 9.96-10.565 22.51-13.856 32.64-8.283-17.11-13.956-37.14-20.205-55.24-19.739-57.15-35.667-115.744-36.42-176.716-.323-26.11 3.959-65.896 22.626-86.283 7.388-8.069 20.029-7.21 30.141-7.213m423.597-146.749c1.834 15.703-3.976 64.409.104 76.838 2.63 3.198 4.172 4.175 8.399 4.199 11.153.062 22.303-.127 33.456-.2l121.08-.494c9.607-.071 52.267-1.719 58.904.339-5.57 2.005-11.561 2.188-17.28 3.994-15.885 5.017-29.132 9.833-41.989 20.642-49.192-12.034-85.82 69.018-102.301 104.403-12.313 27.692-42.02 71.55-58.702 98.055-4.589-9.455-9.603-21.882-13.803-31.692a1529 1529 0 0 1-56.687-157.371c-10.409-34.977-15.388-41.485-1.355-76.5 40.891 9.024 58.817-1.527 70.174-42.213m322.288 449.661c.765.17 9.993.32 11.213.36 13.983.5 21.617.68 35.066 5.04-13.879.15-72.942-.44-79.751 11.17.262 14.24 19.756 4.57 28.591 3.99 27.608-1.84 56.557-4.66 83.805 1.31-10.59 4.1-21.6 6.99-32.836 8.59-17.199 2.42-53.465 2.73-72.167 5.94-2.523.43-3.816 6.46-.578 10.32 14.962 5.94 79.611-2.73 97.701-5.75-49.467 27.33-99.617 27.89-154.978 27.33-6.604-.07-20.413 3.18-27.247 4.53-21.378 5.13-44.122 8.19-65.632 12.57-55.592 11.33-103.153 17.89-159.821 19.65a459 459 0 0 0 44.86-65.29c6.208-11.18 11.733-23.3 17.913-34.78 11.546.11 25.778 2.6 37.687 3.45 38.606 2.76 77.161 7.29 115.851 8.91 10.873-.67 28.59 2.67 38.943 1 29.418-4.76 50.556-15.99 81.38-18.34m548.514-603.135c3.21 1.655 15.55 13.135 20.14 16.59 7.13 5.37 12.93 9.105 20.54 13.954-8.11-2.771-40.08-8.605-35.05 7.741 7.59 6.277 14.46-.806 22.73.332 6.59.906 13.72 9.402 19.79 4.796.98-4.019.94-2.326-.38-6.688 4.3-.304 22.51 14.743 27.73 17.681 5.05 2.841 7.3 4.209 13.12 6.564 6.95-7.597 15.58-17.225 26.24-2.003 8.12 11.617-4.35 27.81-11.86 36.555-4.66 5.418 1.57 17.262 2.63 23.716 1.93 11.744 40.54 76.619 39.3 83.241l-2.98.921c-22.69.518-40.98 4.47-62.14 13.013.24-16.951-.86-28.039-11.03-42.652-32.31.712-50.83 2.7-61.16-31.548 10.51-2.841 36.56-11.986 38.81-24.07-1.23-3.923-.37-2.475-3.54-5.421-9.17-1.642-16.22 8.57-25.18 12.332-4.23 1.775-8.79 3.154-13.15 4.512-1.84-9.745-2.03-16.965-4.53-27.275-4.26-.326-9.36-.346-13.7-.474 16.1-38.808 7.77-60.651 13.67-101.817"/><path d="M1508.11 537.487c10.64.856 10.59 9.899 5.53 17.349-4.41-.094-5.28-.384-8.04-3.525-1.7-5.425.02-9.063 2.51-13.824"/><path fill="#fefefe" d="M1626.6 1238.53c2.21-.56 1.07-.58 3.48.52 1.38 2.84 1.38 2.93.77 6.12-2.39 2.36-9.19 2.03-13.23 2.27-119.63 6.46-239.36 10.82-359.14 13.08-257.89 8.02-515.934 9.79-773.907 5.31-40.441-.62-80.706.42-121.077-3.65-7.779-.79-19.319 1.97-25.391-3.41-1.355-3-1.329-2.83-1.341-6.11 3.53-2.33 5.526-.66 9.7-1.68 33.76 1.81 67.283 1.81 101.032 2.33a9757 9757 0 0 0 167.624 1.74c184.038 1.6 368.089-.39 552.05-5.99 57.94-1.44 117.88-1.56 175.97-2.41 94.5-2.04 188.99-4.74 283.46-8.12M812.457 181.738c2.659.224 7.948-.294 10.96-.324 43.807-.187 87.69-.787 131.493-.707 20.061.036 40.586 1.519 60.8 1.798 81.81.687 163.62 2.02 245.41 4.001 8.18.191 60.31.122 64.38 1.761.64 3.31.49 3.543-.23 6.92-3.84 2.412-39.15.954-45.61.879l-65.23-.165-316.056-1.436c-14.637.005-95.814-.656-104.619 2.567l-1.077.402c-.73 3.167-.778 25.66-.82 30.138l-.705 66.847c-1.454 101.713-5.552 275.702-8.563 383.336l-1.096 1.586c-4.266.543-9.952.886-14.113-.131l-1.328-1.747c-.136-19.001 1.007-47.334 1.34-65.558l6.748-299.215c.929-42.73 2.938-88.181 2.731-130.723 11.474.064 24.17.157 35.585-.229M1835.61 820.256c18.61 8.15 22.76 62.423 22.1 81.21-2.22 63.671-15.67 126.674-27.53 189.104-7.78 40.95-14.62 81.71-24.56 122.19-.46 1.83-.8 2.9-1.44 4.68-3.02 2.09-7.11 1.22-11.09.99 1.49-15.69 3.55-31.42 5.1-47.16 9.23-93.77 15.84-189.747 12.17-284.082 16.31-24.979 20.67-37.922 25.25-66.932M147.634 807.03c-.035 1.532-6.686 19.406-7.842 24.48-17.692 77.646 7.579 162.949 32.06 236.34 5.542 16.61 18.211 60.14 25.154 66.67-14.776 29.14-18.672 60.76-26.644 91.41-2.631-2.16-15.994-88.37-16.909-99.14-.732-31.59-5.8-44.94-18.481-72.93-27.752-61.242-50.18-202.027 12.662-246.83"/><path fill="#fefefe" d="M1865.39 841.539c12.85 9.686 24.79 48.455 27.9 64.442 10.81 55.694-11.24 107.409-22.5 160.609-10.39 49.14-8.8 102.68-23.07 151.42-.26.88-5.49.38-6.49.34-1.72.62-17.42.48-20.42.5 5.75-22.86 8.22-40.12 12.51-62.75l17.55-93.9c11.98-67.875 33.3-153.423 14.52-220.661m-635.18-148.837c12.53.973 73.64-.973 79.31.984.87 4.067.53 5.709.11 9.736-5.83 3.008-142.87 1.967-163.91 2.175l-302.527 3.481c-6.99.803-70.948.986-76.977-.544-.926-3.325-.189-10.635.021-14.406l306.733-1.107 102.32-.034c17.12-.001 38.3.685 54.92-.285m64.69 168.771c3.78 3.236 20.21 27.999 24.28 33.598 27.26 37.538 55.92 62.944 97.51 83.271a2803 2803 0 0 1-20.16 26.088c-2.14 3.17-7.87 9.45-10.59 12.59-53.46-32.603-62.54-66.846-95.9-116.875 3.16-15.368 4.36-23.017 4.86-38.672m-112.99-83.298c26.71-.987 35.23 3.16 57.17 17.874 9.12 16.175 9.12 71.166 10.93 93.303-17.84 5.664-28.01 9.485-42.84 21.454-4.96-12.335-8.96-29.245-12.2-42.336-.55-2.282-1.02-4.579-1.43-6.89-2.94-17.695-.77-24.428 9.12-38.251-10.4-9.536-20.63-12.223-34.17-14.93-4.94-.987-7.74-.876-10.78-4.976-.51-3.697-.77-2.223.71-5.635 12.8-10.277 48.07 18.877 61.39 17.725.87-.47 2.11-1.128 2.57-2.058 8.58-17.089-41.34-24-43.09-30.874zm356.07-35.073.2.255c-.17-1.164-38.99 81.725-39.16 95.224-.13 9.704-22.18 44.581-28.72 55.388a1749 1749 0 0 1-45.27 72.151c-4.06-2.224-9.09-4.443-13.34-6.446-3.31-2.008-7.11-4.702-10.37-6.905 31.51-46.692 54.98-96.012 83.6-144.2 13.11-22.075 35.25-47.057 53.06-65.467M1052.17 432.37c1.03-.116 2.2.144 3.29.286 2.57 5.415.04 27.898-.09 35.042l-3.06 122.905c-.57 20.649-.52 70.495-2.97 88.775l-5.9 2.106c-1.48-1.097-1.69-1.39-3-2.688-.87-22.299.42-48.156.85-70.777l1.64-104.093c.22-10.782.17-61.311 1.8-69.464 2.62-2.398 3.28-1.721 7.44-2.092m-247.495-25.298c30.943 3.892 220.255-1.713 227.715 3.515 1.5 3.094.82 4.523.12 8.04-74.588 1.787-154.798.301-229.945.519-.26-4.742-.835-8.564 2.11-12.074m246.485-197.583c3.92-.166 7.53-.805 10.4 1.346-1.16 47.151-2.45 131.873-4.53 181.693-.05 1.246-1.82 1.499-3.36 2.066-3.13.129-5.84.653-8.46-.794-.85-9.658.2-29.686.39-39.978l1.5-79.367.85-40.908c.06-5.452-.15-18.459.53-23.138zm582.41 497.952c4.1-.249 8.23-1.099 11.52.9 2 3.022 1.35 5.711 1.17 9.495-47.4-1.254-88.89 47.895-114.72 82.625-1.64 2.537-5.17 6.604-7.23 9.124 5.09-17.256 28.9-66.739 39-83.025 19.43-8.042 49.6-17.316 70.26-19.119m-562.9-297.865c16.67-1.635 50.75-.477 68.92-.366l107.1-.209c23.24-.003 46.65.291 69.89-.334 1.83-.049 2.34 1.124 3.31 2.358.01 3.885.38 2.338-1.57 5.876l-2.35.668c-76.6 1.876-154.3-.978-231.03.411-4.27.077-9.18.307-13.32-.624-1.79-2.637-1.07-4.039-.95-7.78M879.231 746.582c21.578-2.278 42.013-1.872 62.271 6.079-14.952 7.15-40.781 8.876-57.256 9.626-26.519.222-35.426 3.692-61.601-3.361 15.611-7.99 39.109-11.172 56.586-12.344m240.369-.116c9.03-.195 18.06.12 27.06.944 4.56.423 17.08 1.342 19.64 4.415-5.49 5.277-48.55 6.982-57.55 7.129-10.05.117-38.68.304-47.69-4.011l.76-1.232c15.02-4.943 41.72-6.309 57.78-7.245m140.6 79.076c2.95 1.746 10.51 11.277 12.27 14.334 9.95 17.261 8.47 28.634 4.39 46.388-1.68.129-3.37.229-5.06.298-3.64.125-5.08-.005-7.47-2.248-2.6-9.989-4.73-47.89-4.13-58.772m-181.86-32.967c.85.439.72.317 1.58 1.058 4.66 4.02 9.91 55.953 10.92 65.575.49 4.597-.09 5.817-2.93 9.329l-4.27-1.922c-1.97-2.507-9.55-58.661-11.13-67.311.77-3.383 2.98-4.482 5.83-6.729m-155.307 5.681c3.645 1.746 3.436.936 5.05 3.814-.099 8.307-4.581 61.506-7.82 67.632-3.01.764-4.748-.316-6.848-2.173-1.04-10.099 5.27-52.137 6.67-64.295.131-1.137 2.117-3.901 2.948-4.978"/><path fill="#fefefe" d="M1170.48 821.388c5.21-.144 8.38 2.849 12.46 5.869-.99 3.684-1.62 7.35-3.79 10.395-3.55 1.211-3.8.362-7.93-.896-6.91-1.629-10.47-1.307-13.94-7.86-.01-7.473 7.49-7.151 13.2-7.508m-10.95 25.774c6.88 1.432 24.39 8.948 16.18 17.697-7.06-2.804-20.66-3.041-21.48-11.861 1.31-3.522 2.06-3.806 5.3-5.836m-.55 26.814c8.18-.101 8.46.568 15.35 4.934 1.98 4.903 2.29 6.69 3.28 11.909-9.39-3.335-18.87-5.782-18.63-16.843"/></svg>