<svg xmlns="http://www.w3.org/2000/svg" preserveAspectRatio="none" style="display:block" viewBox="0 0 2048 1462"><path fill="#fefefe" d="M0 0h2048v1462H0z"/><path d="M757.414 287.311c-1.178-12.994-2.779-27.385-1.552-40.335 8.485-89.495 79.453-182.294 173.408-190.352 40.158-3.445 74.07 3.284 105.78 28.979 9.22 7.303 17.38 19.631 24.65 29.214 33.26 11.172 49.85 35.941 39.34 71.772-3.8 12.947-13.09 21.317-21.24 31.453-4.98 6.113-9.21 14.695-12.72 21.855-14.32 29.253-12.22 47.424-8.58 78.299-5.86 12.007-7.32 10.745-19.99 11.689-31.21 32.518-70.127 70.084-119.395 51.707-5.705 9.915-16.441 31.388-17.483 42.553-2.649 28.369 5.169 60.653 5.368 89.806.057 8.342-2.081 40.634-.573 44.466 14.351 36.473 42.451 82.043 66.551 112.001l116.962 42.086c40.45 14.478 84.61 30.467 122.72 50.167a566 566 0 0 1 78.3 49.715c6.25 4.677 32.57 26.85 35.66 32.086l.08 2.137c-16.86 11.661-46.65-19.82-59.18-28.821-48.67-34.962-103.68-58.996-159.62-79.751-33.13-12.292-67.16-26.602-100.57-37.51 6.54 6.373 16.99 12.553 24.85 17.443 44.84 27.897 91.57 50.825 139.47 72.929 18.67 8.611 37.69 20.21 56.91 27.92 11.87 4.765 25.81 8.895 38.13 13.043 20.28 6.828 38.76 17.447 56.44 29.499 7.25-12.969 9.03-16.396 25.53-12.745 6.25 1.383 14.13-4.15 19.34.437-.54 8.862-21.83 18.62-11.54 27.981l1.89-.062c7.61-9.482 9.8-24.565 29.91-28.073 2.59-.451 5.9-.491 8.02 1.127-.23 12.414-24.6 10.177-16.38 47.082l11.73 11.775c-4.61-17.855-5.34-30.672 3.7-47.458 9.47-17.575 22.97-8.12 35.65-12.135 1.92-3.07 1.73-26.686 2.23-32.264 1.82-20.586-12.56-36.034-23.75-51.933-34.67-8.439-58.41-20.8-77.78-52.377-4.67-7.611-23.47-43.732-10.01-51.145 5.03-2.777 15.87 1.527 20.73 3.645 29.29 10.391 58 38.843 69.97 67.582 8.86 21.289 4.81 23.623 19.88 44.705-.64-22.893-1.05-51.797-1.66-75.052-.1-3.912-12.31-25.85-14.73-33.158a132.45 132.45 0 0 1 3.57-91.955c2.63-6.376 14.02-31.83 23.78-16.882 26.5 40.575 23.58 94.814.84 136.429-2.51 4.742-.71 72.004.11 81.056 8.07-13.19 11.17-20.683 15.22-35.809 9.34-33.739 34.03-63.338 66.7-76.515 6.29-2.539 30.69-12.329 29.71 1.775-3.68 53.226-47.49 82.947-91.87 98.391-5.48 9.09-15.96 26.003-18.68 35.66-1.74 6.167-2.05 45.064 3.3 48.767 11.56.322 65.43-2.452 70.97 2.193-2.61 2.639-6.48 3.879-9.5 6.174-16.34 12.384-15.1 28.653-12.95 46.612 2.74-4.452 5.05-8.177 7.29-12.919 3.41-7.226 6.58-23.762 12.48-28.484 1.36 1.288 1.48 2.168 2.15 3.95 5.63.032 4.18-20.983 23.37-18.317 6.91.96 7.63-2.353 17.46 3.56 5.89-2.263 10.96-4.731 17.24-3.258 1.81 1.598 2.03 1.248 2.5 3.184-11.87 11.201-19.98 18.598-21.15 37.225-.9 14.111 9.65 35.706 17.89 46.951l1.36.505c9.28-19.524-10.26-66.372 7.83-86.468 3.79-4.21 15.16-2.852 19.1-.404-.61 6.238-17.15 11.266-3.45 22.488 2.63-3.74 2.26-5.806 4.06-9.205 4.48-8.439 14.68-14.431 24-15.715 7.22-.996 16.73-2.748 23.5.319.81.982 2.53 2.724 1.9 4.124-12.68 28.201-16.14 53.216-7.92 84.029 2.52-17.057 3.98-47.377 12.08-59.603-2.63-8.006-5.71-14.772-1.69-22.828a99 99 0 0 1 2.66-4.859c5.2-.505 10.84-1.176 16-1.526-13.26 12.858-12.87 17.321-6.19 34.595 11.19-14.957 14.66-26.986 32.3-36.283 7.26-.266 12.64-.378 19.97-.005 1.97 1.42 6.57 4.293 7.46 6.207a95 95 0 0 1-4.17 3.071c-8.02 15.845-6.1 23.909-1.77 40.901 2.97-14.195 4.31-38.376 16.08-48.071 4.64-3.824 12.87-2.615 17.39 1.603.96 2.906-3.18 12.652-3.5 16.945-.33 4.405-.42 8.174-.43 12.62 8.08-17.295 8.64-20.084 23.1-32.31 2.83-.448 8.9-1.598 11.65-1.262 17.95 2.186 27.46-8.446 44.37 1.483l.77 1.29c-2.71 3.729-7.51 4.28-11.44 7.067-11.44 8.106-10.42 30.745-8.51 43.37 4.38-13.239 14.17-52.564 34.38-50.03 6.18.776 16.64-5.45 20.92-1.072-.19 7.838-4.06 13.694-2.71 20.652 2.36 12.158 9.95 24.73 16.21 35.568 3.27-19.685 2.48-42.29 8.05-58.551 10.44-3.565 14.13-3.177 25.32-2.575-6.64 24.244-4.22 31.538-6.51 54.145-2.19 21.634-14.34 55.623-23.41 75.473 7.92-.029 13.43-.075 21.36-.941 8.07-10.664 16.32-24.11 14.92-38.288-.56-9.523-7.15-23.486-7.84-32.214-1.05-13.354 1-37.356 8.14-48.696 4.29-6.821 17.58-12.066 25.54-10.452l1.18 1.656c-.97 4.715-4.22 8.937-6.15 13.768-5.73 14.29-4.53 28.86-2.29 43.673 2.17-7.573 14.83-52.733 18.36-56.858 3.82-1.348 7.32-.437 11.84-.951 5.33 3.124 5.02 8.041 4.57 13.684-.97 12.095-1.56 23.725-1.54 35.871-.14 61.028-.89 122.049-2.26 183.069-.09 3.76-3.27 13.6-2.72 16.21 8.52 40.97-7.5 105.95 2.25 144.57-5.41 12.25 1.12 10.1-.67 15.95-3.04 2.13-6.43 3.56-7.29 6.43 2.54 1.38 2.44 1.28 5.37 1.47l.83 1.2c-4.01 6.27-9.63 10.97-13.37 17.32l.89 1.71c3.55.68 4.13.59 7.79.39 1.99 3.93-2.62 7.19 4.88 11.4-3.15 4.29-9.58 3.79-6.56 8.86-3.8 2.16-3.76 2.9-7.82 2.91-7-4.92-4.73-17.4-15.95-15.41l-.86 1.37c.85 2.29 1.61 2.61 3.53 4.09l-.21 1.46c-2.39.7-3.54 1.03-6 1.38-.19 4.42.59 9.64-1.44 12.96-4.02 1.75-6.87-.79-8.05-.31-4.92 1.98-9.82 6.24-15.34 7.49-5.92-2.56-14.51-7.97-19.64-2.48-1.3 6.61 11.59 10.2 14.56 15.35l-.62 1.81c-3.9 1.62-10.92 1.74-14.89.53-1.68-2.39-1.59-2.27-2.16-5.16-1.65 2.2-3.16 4.12-4.93 6.23-2.29.05-4.58.1-6.87.13-1.52 3.86 2.93 7.24 6.36 7.67 3.46-3.42 8.11-9.77 12.21-5.03l.44 3.39c-2.94 3.26-6.3 7.38-10.36 8.33-4.3-2.15-3.12-2.37-7.1-1.82 1.06 3.9 2.47 5.1 1.4 8-8.58 3.79-12.59-5.41-22.34-1.53-2.2 6-1.68 6.12-8.32 7.04-3.62 5.86 1.66 3.47-3.26 8.59-1.77-.46-2.78-.68-4.61-.57-1.62 4.07 6.8 13.24-6.58 11.01-4.83-5.59 1.63-21.13-8.11-24.27-.72 3.55-1.92 7.37-1.54 10.82l3.04 4.48-.99.88 1-.55c-2.47.45-3.95.18-6.43-.21-3.06 1.45-1.97.32-3.21 3.62l.85.21c3.48.85 8.17 4.31 8.71 7.92-2.28 2.39-2.12 2.3-5.32 3.09-3.16-.83-4.35-2.79-6.59-5.31-3.26-.61-3.47-.47-6.79.27-4 5.3 2.82 5.45-7.05 9.18-4.47-.87-3.89-4.83-8.47-4.85-5.5-.03-9.42 5.51-15.03 5.24-8.01 0-14.29-2.74-22.35-2.72-12.62.04-24.16 3.72-36.5 4.88-6.73.51-11.99-3.47-18.6-3.65-5.48-.16-12.9 2.3-18.08 2.1-8.05-.31-14.09-2.49-22.59-2.26-15.03.41-29.4 1.3-44.31 3.37-17.76-.56-65.94 2.79-79.71-3.19-16.13 5.54-17.24.16-31.36 5.01-1.74.6-3.64 1.12-5.4 1.66-17.19-7.99-35.26-.57-52.21-1.95-14.76-1.2-13.42-6.28-30.3-.05-.18.07-27.13.54-29.03.57l-127.6 1.73c-4.82.07-10.13-.53-14.87-.93-18.8-1.6-36.51-.06-55.03 2.68-5.41.81-14.35-5.54-19.52-1.47-7.14 3.41-23.12-1.45-31.35-.93-9.01-.05-19.49 2.01-27.47 1.92-13.54-.15-27.6-1.54-41.26-1.15-5.42.16-13.75 2.73-19.46 1.95-.87-.12-4.29-2.43-5.6-2.4-16.2.29-34.14 1.95-50.071 3.19-10.799.84-24.937 1.07-35.343.98-1.912 1.63-1.961 2.18-4.558 1.97-6.337-.49-12.423-3.11-18.782-3.25-14.322-.33-30.206 2.27-43.185 1.91-7.309-.2-14.634-2.41-21.87-2.42-3.76-.01-4.126 2.28-7.062 3.21-3.623 1.15-7.805-3.14-11.402-2.66-3.09.41-6.026 2.88-9.19 3.41-5.795.98-13.717-.77-19.729-.88-12.198-.21-25.897.02-38.028.96-6.579.51-13.658 3.91-20.024 3.75-4.915-.13-9.168-3.6-14.506-3.57-7.6.04-15.167 1.38-22.756 1.38-6.77-.01-13.543-1.1-20.32-.89-11.228.34-25.038 4.68-35.645.74-3.288-1.23-50.607-1.06-57.825-.67-6.204.34-12.938.95-18.922 2.67-15.717-5.97-12.776-1.79-28.362-1.05-3.026.14-10.994-3.7-14.864-3.11-7.132 1.07-13.948 3.13-21.079 4.11-5.417.74-3.358-2.74-7.462-2.06-.226.2-2.45 2.16-2.452 2.16-12.526-.58-24.944.79-37.415 1.63-1.781.12-4.455-2.37-6.06-3.1-1.988-.7-9.02 4-10.744 3.88-9.497-.63-4.217-6.27-16.626-1.49-6.727-2.41-1.187-11.02-15.69-3.34-4.194 2.22-9.887-6.78-15.433-8.24-1.794 1.01-1.723 1.08-3.093 2.65-6.94-.45-15.699-.31-17.758-7.34l-2.263-.36c-2.088 2.23-1.418 1.94-1.831 5.77l-1.698-.48c-1.821-4.85-1.139-5.77-4.659-8.65-4.308-.38-2.068-.18-5.156 1.53-1.516.84-11.353-5.54-12.523-4.27-8.77 9.58-9.515-3.06-17.997-4.6-2.282-.41-11.187 1.86-13.872.88-4.919-1.42-13.642-8.91-17.979-10.4-1.787-.62-10.955 2.9-14.783-.33-.626-.53-3.398-.38-4.67.05-5.206-3.77-9.951-9-15.228-10.96l-1.731.34c-2.773 5.91.385 5.51-3.808 7.67-3.587-1.92-2.843-4.74-3.682-4.9-4.595-.87-5.056 2.47-9.2-.13l.067-1.53c2.436-2.08 5.941-4.49 6.904-7.34-.509-2.46-.332-2.39-2.155-4.07-5.778.72-5.986 10.23-13.655 6.45-2.173-7.45 4.225-11.73-2.195-17.09-4.618-.86-4.405-.02-7.061 3.89-3.961 1.02-12.423-3.21-12.766-7.34-1.662-19.98-11.416-7.85-17.36-8.8-1.328-2.68-1.269-5.44.332-8.03-.836-2.84-.694-5.81-.729-8.75-1.676 2.92-3.11 6.67-5.622 8.01l-1.205-.84c.11-2.31.392-2.52 1.39-4.56l-1.299-2.77c-11.052-1.89-7.752 5.25-16.857-2.59-1.728.87-1.871 1.76-2.764 3.54-4.112-.31-4.227-2.16-5.39-5.96l-1.394.01c-1.204 3.56-1.435 4.71-3.467 7.79-3.518.91-5.206-1.29-7.145-4.1-.165-5.77 10.324-11.33 14.773-10.27 1.476 2.05 2.409 3.43 3.694 5.6 7.448-1.01 4.819-8.96 5.11-14.39-1.956.33-3.487 1.42-4.942 2.74l.341 2.39-1.688.05c-2.919-4.08-1.787-3.93-5.432-4.64-3.445 1.49-3.875 2.19-6.658 4.86-6.157-4.06 1.485-2.68-7.093-6.99 3.122-3.78 4.724-.91 5.782-5.1-1.119-2.36-1.453-3.79-3.714-5.03-2.84.9-3.454 2.6-5.258 5.27l-3.621.59c-1.413 5.22 5.524 8.94 9.46 12.18l-.716.63c-5.362-.44-6.063-.84-10.743-3.22l-2.53.37c-1.449 2.31-3.078 5.67-5.352 6.8-8.236-1.16-5.334-8.43-11.9-11.76.588-5.2 3.813-2.77 2.598-6.58-5.77-1.48-8.374 1.87-12.677-.43-.963-2.61-.296-4.85.144-7.63l-.973-1.45c-7.152.46-12.505 12.37-21.625 11.2l-1.671-2.16c2.362-10.29 20.102-10.42 15.42-22.82l-2.524-.6c-4.189 4.36.372 8.76-6.312 9.83-3.456-1.87-5.065-2.32-7.098-5.67-.019-10.41 13.246-12.42-1.2-18.02-2.677-4.14-2.227-9.02 1.668-11.81 7.688-5.51 2.85-14.44.187-22.97l-3.289-1.27c.27-3.44 4.05-4.32 4.118-6.66.815-27.78-.374-55.52-.175-83.28.022-3.07-1.778-5.28-3.276-7.65.925-13.69 3.626-27.53 3.381-41.39-.12-6.79-2.644-14.04-2.884-20.97-1.386-39.99 10.918-76.36 15.637-114.819 2.421-19.729-15.007-53.443-3.589-75.137 2.119-.66 2.993-.32 5.159.052 1.707-.836 3.226-1.614 5.013-2.289l5.638 2.305c4.115-.138 4.086-1.617 7.826.263 1.066 3.749-2.978 17.656-2.827 23.023.594 21.207 6.782 37.568 14.334 56.664.697-24.534 2.397-44.477 16.721-65.443 3.126-4.575 5.225-11.019 10.514-13.29l1.336-.583c5.91-2.522 16.422-4.424 22.621-2.244 2.471 4.96-7.937 24.122-10.538 29.785-18.011 39.215-19.35 54.371-5.479 94.326l16.851-.241c.849-17.627-1.927-22.746-5.321-39.565-4.123-20.426-4.492-47.855 5.041-66.704 2.32-4.587 5.004-10.537 7.811-15.017 1.145-1.827 3.245-1.229 5.394-1.136 8.73 8.028-3.145 43.939 1.346 56.863l1.545.704c7.159-8.154-2.051-66.981 18.307-58.245 2.443 2.62 3.57 10.011 4.458 13.93 16.103 12.461 17.964 16.105 29.248 33.184-2.868-10.558-5.783-21.988-9.444-32.318-1.964-5.543-8.587-10.372-7.176-15.285 16.496-12.396 34.002 22.913 38.849 35.215l1.575-1.176c-3.898-10.274-8.035-25.012-11.81-33.852 21.698-6.33 15.655-1.845 26.948 14.538 3.231 4.688 16.507 33.614 18.286 34.993 2.971-11.95-14.749-45.946-12.366-52.793 5.082-1.284 11.523-1.463 16.858-1.8 5.71 11.343 9.878 20.427 14.028 32.411 4.235-6.079 14.737-18.469 17.099-22.986-1.517-2.035-2.351-2.96-4.112-4.795 1.04-6.869 25.513-4.056 31.794-3.617 2.499-2.204 2.683-2.571 5.788-3.445 2.384 1.186 3.606 1.965 5.838 3.434l5.982-3.801c5.239 1.593 9.501 3.944 15.124 5.679 21.472 29.331 23.819 26.85 37.939 61.132.775-18.335-2.464-32.955-11.551-49.273-2.519-4.525-9.27-10.472-6.929-15.251 5.336-2.274 16.372.058 21.734 1.831 15.439 15.329 22.98 44.227 22.84 65.646-.149 22.854-3.178 35.601 13.28 54.286 8.192-26 16.118-51.79 2.122-77.554-5.634-10.37-12.254-20.194-18.463-30.22-3.236-5.227-7.651-6.306-6.735-12.965 5.751-5.515 24.998 1.56 29.553 6.895 8.034 9.411 17.691 19.489 22.043 31.229 1.366 3.78 5.176 16.028 6.848 18.542 3.358-8.247-4.636-30.694-8.744-39.001-3.099-6.266-14.48-11.394-17.133-18.381 2.424-5.748 28.162-3.659 34.939-3.757l.97.642c5.468 3.658 30.062 26.711 29.205 26.406 6.363-12.341-17.344-19.887-15.566-27.673 6.458-3.684 14.541-1.451 21.315.29 2.75-13.796 3.914-28.666 5.634-42.698 13.191-107.614 41.243-208.591 85.909-307.267-14.838-30.047-14.235-70.635-5.676-102.373 4.598-17.054 17.354-32.072 27.393-45.809 17.114-29.803 21.387-51.121 59.662-60.234"/><path fill="#c0c0c2" d="M297.368 888.902c2.991 7.777 8.889 20.831 8.415 28.781-2.755-1.395-6.963-21.885-9.99-27.605z"/><path fill="#fefefe" d="M612.707 809.511c8.623-.305 23.979.572 33.411.713q40.195.417 80.377 1.542a3400 3400 0 0 1 207.24 10.636c18.532 1.701 36.858 4.527 55.5 6.631 44.455 5.016 88.225 9.34 131.605 21.668 30.57 8.687 74.35 23.499 91.77 52.485 4.13 6.88 5.7 16.144 2.99 23.743-6.54 18.364-22.04 30.785-38.67 39.203-98.18 42.548-234.858 15.544-339.654 12.947-41.783-1.036-82.308-10.471-123.219-16.28-59.494-8.448-123.532-32.182-112.06-105.924 1.156-7.412 4.635-42.115 7.762-46.82zm191.115-454.025c13.094 5.154 70.275 57.069 78.341 70.085.929 14.504 8.465 85.317 6.826 94.085-3.929-2.182-27.442-78.886-33.909-92.744-4.575-9.803-10.35-19.266-17.954-27.026-8.001-8.165-17.891-14.071-29.597-14.046-14.002.03-26.695 7.566-36.295 17.286-12.156 12.308-20.264 29.848-21.249 47.166-3.043 53.465 50.808 159.002 78.131 205.752 8.106 13.869 22.533 27.79 27.62 42.862 2.572 7.619-.463 24.367-.462 33.309.357 7.095-.244 62.384-1.325 65.414-7.288.625-14.665.15-21.965-.218-64.061-3.227-128.039-4.384-192.168-5.084-10.228-.111-20.223-.517-30.468.142 2.671-16.809 5.22-42.243 8.588-57.616 23.002-104.976 53.951-217.365 118.723-304.545a514 514 0 0 1 40.645-47.523c7.437-7.676 19.607-18.362 25.728-26.262z"/><path fill="#fefefe" d="M802.179 402.207c40.262-3.505 56.145 81.286 67.34 110.944 22.3 59.078 46.763 118.749 89.904 166.076 21.034 23.074 40.707 36.659 66.867 53.12a991 991 0 0 0 86.59 49.288c16.06 8.028 32.4 15.115 48.55 22.774 22.56 10.707 43.26 24.43 66.98 32.686 8.73 3.039 21.84 5.761 29.81 9.333 31.81 14.251 81.52 40.828 98.73 72.073-10.01-9.18-63.03-52.083-73.37-52.45-2.92 1.63-2.77 1.513-4.36 4.474-.15 6.139 4.58 8.713 9.35 12.215 20.18 14.834 40.23 29.322 56.07 48.934-17.73-10.965-37.92-29.084-57.02-38.516-3.31-1.636-4.97-1.239-7.88-.016-2.6 4.423-1.09 6.291 1.61 10.304 6.6 5.343 52.71 38.685 53.61 40.764-15.73.177-54.13-43.285-64.49-33.235-.65 3.164-.79 4.449.78 7.268 4.42 7.916 41.17 28.426 43.26 34.811-7.94 3.204-46.16-20.675-54.22-25.679-16.99-9.583-24.22-25.757-35.72-39.925-35.31-43.509-93.51-54.597-145.37-65.144-14.16-2.88-25.02-.873-38.05-7.946-37.49-20.351-76.742-38.959-110.566-65.18-72.574-58.683-118.181-145.192-150.553-231.14-14.698-39.024-30.165-98.029 22.148-115.833M941.333 72.384c38.703-1.533 74.607 10.125 99.027 42.025 4.08 5.33 8.4 11.127 12.75 16.193 29.33 7.251 40.37 29.719 27.33 57.275-1.75-14.294-4.69-37.028-20.52-44.065-1.79-.452-3.25-1.604-4.75.088-15.25 17.151-27.21 41.749-50.59 50.248-46.114 16.759-81.654-4.188-128.319 17.48-35.652 14.184-76.006 53.293-96.441 86.06a130 130 0 0 1-3.853-17.193c-7.57-50.181 8.72-92.767 38.296-132.875 20.719-28.096 51.408-56.374 85.173-67.185 12.912-4.134 28.317-6.029 41.897-8.051"/><path fill="#fefefe" d="M1058.43 159.872c2.84 3.65 5.22 11.254 6.35 15.809 8.1 32.618-16.42 52.18-23.76 81.936-4.64 18.772-3.47 38.11-1.52 57.066-4.46-.26-9.08.003-13.55.151-16.29 21.174-27.454 31.937-49.894 45.083-34.131 19.995-74.497 12.39-81.742-30.601-1.25-7.416-3.362-23.664-13.928-16.639-8.525 14.157 6.494 49.479 21.351 58.843a2348 2348 0 0 0-15.027 34.595c-3.184-3.412-6.989-7.079-10.31-10.433-10.211-10.119-24.245-21.988-35.33-31.077-8.651-7.093-17.887-13.013-26.539-20.631 17.002-17.637 38.383-46.743 48.438-69.021 26.141-13.077 65.308-35.289 86.175-55.808 8.288-1.346 16.8-1.093 25.11-1.914 12.134-1.198 24.634-3.771 36.436-6.788 3.48 2.076 13.54 6.624 15.68 9.178 3.17 3.799 12.41 17.679 18.85 8.16 2.09-12.365-12.17-21.34-21.53-25.386 16.3-14.253 25.72-22.181 34.74-42.523"/><path d="M988.566 238.502c9.66.515 12.304 11.729 21.514 16.953 8.64 4.898 19.64.036 23.06 8.982-.69 3.886-1.75 4.889-4.15 7.97-18.31 4.869-54.991-15.746-40.424-33.905m-23.64 68.924c8.408.521 9.566 9.984 13.754 17.028 6.614 4.061 17.806 5.268 18.637 12.353-1.366 3.591-2.243 3.872-5.438 6.344-10.946-.734-17.465-2.304-25.42-10.168-7.526-7.441-10.133-17.97-1.533-25.557"/><path fill="#fefefe" d="M760.189 301.231c4.373 3.017 11.207 22.315 13.337 27.783-2.787 11.059-7.963 35.772-12.347 44.636-4.91 9.928-23.323 27.232-30.952 37.052-13.895 17.886-28.15 38.166-39.052 57.979-1.38 2.178-2.71 4.801-4.818 6.107-4.933-17.18-6.355-54.42-1.002-70.722a108 108 0 0 1 7.335-16.848c5.724-10.38 15.161-21.175 20.49-30.951 16.115-29.564 16.405-39.353 47.009-55.036M873.87 718.379c24.995 26.433 43.23 43.442 73.93 64.047 9.131 6.127 43.989 24.445 48.249 29.029-2.183.948-2.417.397-5.282-.106-27.549-4.688-54.854-6.248-82.596-9.201-10.554-1.124-24.375.434-34.308-2.99-1.361-6.434-1.214-72.361.007-80.779m658.62-42.195c3.61-.144 3.96-.829 6.13.839.35 3.278-.14 6.601-1.49 9.591-13.75 30.456-31.81 47.851-61.23 60.961-2.46.837-2.98 1.214-5.57.668l-.82-1.959c.26-4.885 1.86-8.239 3.87-12.606 12.02-26.219 31.18-47.788 59.11-57.494M918.979 215.407c3.409-.429 9.632-.151 13.268-.087-11.689 10.232-45.296 30.846-59.822 37.942-22.647 11.063-48.463 19.714-67.314 38.127-1.431 1.519-5.093 5.358-6.931 5.517 28.738-37.486 71.361-77.532 120.799-81.499m409.601 460.251q5.13 1.697 10.08 3.868c34.29 14.865 50.51 36.463 63.85 70.216-36.75-8.895-65.42-37.106-73.93-74.084m104.64-101.101c20.56 17.964 13.4 83.858 1.66 105.844l-1.73.221c-2.76-6.378-5.65-12.912-7.76-19.526a113.77 113.77 0 0 1 7.83-86.539m356.54 281.527c-.83 5.071-3.58 10.238-4.33 16.074-2.21 17.227-2.51 35.559-11.27 50.978-9.64 16.979-21.9 32.706-33.21 48.317-2.95-17.976 14.1-41.151 20.47-57.928 5.92-15.607 10.2-31.961 17.45-46.987 1.95-4.047 7.32-7.89 10.89-10.454M428.691 887.593c2.986 2.758 8.89 13.939 10.118 17.967 7.986 26.201 4.88 45.828-6.533 69.506-4.096.147-7.325.68-10.997-.953-7.376-12.209 6.166-37.204 7.872-49.284 1.703-12.053 1.245-25.241-.46-37.236m1270.939-23.899 1.14 1.783c-1.03 10.187-2.55 22.47-2.81 32.586-.46 17.651 3.88 60.15-5.39 73.875-2.88 1.569-5.83.959-9.26.779 1.6-8.305 5.33-25.837 5.16-33.691-.63-29.535-9.01-49.89 11.16-75.332m-344.96 74.479 11.08-.099c5.92 16.206 8.74 23.877 16.94 39.086-4.44.088-11.85.009-15.92.823-7.95-.087-15.89-.32-23.83-.699-2.5-6.441-3.45-9.727-5.02-16.469 16.25-.286 20.55-7.949 16.75-22.642M596.776 924.71c1.019.945.566.418 1.373 1.573 10.625 15.212 26.275 30.048 43.35 37.38 5.706 2.45 17.531 5.778 21.772 8.624l-1.156.69c-11.866.34-21.529.459-33.358-.067-10.753-8.525-38.617-31.869-31.981-48.2m935.644 2.117c4.91 5.101 10.8 39.67 10.99 47.739-4.67.244-9.48.354-14.16.517l-14.47.071c4.73-14.691 11.88-33.921 17.64-48.327m-61.93-73.269c3.45.404 7.07.927 9.74 3.072 2.35 5.015-3.57 11.76-5.39 18.093-5.26 18.32 1.75 32.68-1.18 52.96-.88 3.111-1.76 5.56-4.22 7.365l-.98-.665c-5.56-29.95-4.7-51.591 2.03-80.825m-907.001 62.198c1.674 2.161 9.482 25.44 12.649 32.051 4.45 9.286 13.151 18.486 15.613 23.732l-1.027 1.067-14.7-.688c-19.788-22.022-16.291-28.14-12.535-56.162m273.088-628.644c-.222 7.132-41.759 54.681-49.382 62.099-4.306-19.427 32.966-53.641 49.382-62.099M405.603 854.667c6.958 18.137 1.644 51.334-8.401 67.752-.898-.381-1.404-1.358-1.597-2.255-4.47-20.819.419-47.563 9.998-65.497m-36.076 63.221c6.106 4.919-.177 43.674-13.84 45.749-8.017-19.403-5.172-35.392 13.84-45.749m884.113 25.405c5.43 2.892 9.93 5.648 15.16 8.91-5.58 7.289-16.53 23.447-25.23 25.509-5.36.421-12.04.447-17.51.622 13.99-12.453 18.53-19.304 27.58-35.041m252.53-21.67 1.11 1.199c.23 6.987-14.06 44.728-18.22 51.534-2.91 1.691-6.38 1.119-9.92 1.019-2.81-15.712 18.4-40.201 27.03-53.752m-80.32-61.713c1.02 5.209-5.33 25.014-6.28 32.827-1.6 13.01-1.76 14.976-.45 28.194l-.7.772-2.24-4.548c-.33-1.816.03-.12-.49-1.564-7.99-22.022-13.84-42.632 10.16-55.681m398.05 73.972.39.255c5.38 10.71 7.53 25.612 9.44 37.556l-11.48.327c-4.23.018-7.21.213-11.37-.801-.12-2.47 10.89-33.415 13.02-37.337m19.27-49.349c9.81 8.087 14.7 47.355 10.31 59.978-5.31-18.642-19.05-40.958-10.31-59.978m-44.56 46.073c3.43 9.446-4.47 32.47-9.37 41.333l-12.99-.306-1.49-.595c-.04-1.728 21.31-36.561 23.85-40.432m-418.03-9.988c9.85 4.209 30.71 44.624 30.78 54.99-11.36-4.874-28.86-43.103-30.78-54.99m-994.694-59.707c-.021-.91-13.434 39.575-14.249 41.994-3.615 1.587-8.044 3.939-11.658 5.743.156-11.35 17.199-39.68 25.907-47.737m-140.69 25.671c13.165 7.668 11.69 29.625 6.229 41.713l-1.448 1.588-1.13-.474c-3.252-9.91-3.021-31.469-3.651-42.827m43.909 48.157c6.124 4.099 7.59 36.113 2.628 42.415-2.585-.116-5.235-.318-7.824-.483l-.489-1.051c4.886-14.685 2.385-29.142 5.685-40.881m-58.865 6.925c11.423 10.996 11.075 21.715 11.078 36.499-3.297-.304-5.155.167-7.083-1.741-2.972-10.338-6.225-24.182-3.995-34.758m1367.91-2.847c4.65 7.43 5.26 27.243 2.25 35.365-2.18 1.708-5.55 1.677-8.43 1.999l-1.97-1.127c-.3-3.035 6.95-31.44 8.15-36.237m-1449.275 15.92c5.392 4.519 11.902 15.416 11.68 22.634l-1.758 1.456c-5.989.428-9.17 1.943-12.972-2.921-1.278-5.13 1.772-15.282 3.05-21.169m1469.295-25.98c1.35 1.218 3.93 10.816 4.56 13.089 3.5 12.55 1.41 18.68-4.67 29.666l-1.52 1.282c-2.17-5.406 1.81-34.612 1.63-44.037m4.36-67.937c.24 1.725-2.75 13.407-3.43 16.652-2.07 9.913-1.97 19.769-3.55 29.259l-1.45-.956c-4.87-19.732-5.34-28.778 8.43-44.955M146.877 1251c8.744-.18 20.927 3.39 27.475 9.61 1.066 1.02.462 2.58.3 4.05a91 91 0 0 1-3.688-.35c-7.371-.83-19.737-4.9-24.507-10.94zM1664.63 940.337c1.48 8.553-2.24 25.121-7.41 32.464-2.47 1.766-6.55 1.259-9.8 1.249l-.03-1.499c7.86-9.451 12.31-20.971 17.24-32.214m-1398.187 5.311c1.114 2.742-.438 16.868-1.026 20.509-.907 5.609-.597 9.097-4.883 12.391-9.525-8.324-.102-25.21 5.909-32.9m1181.007-90.071c1.18 1.058.66.543 1.22 2.386-2.89 10.09-7.19 26.665-13.44 34.447l-.76-.389c-1.79-9.291 5.05-30.301 12.98-36.444m-7.59 70.243c1.4-3.399 1.58-5.381 4.19-7.414 3.4 3.152 3.17 18.382 3.44 23.819.75 8.798.5 16.353.31 25.146-.88-4.384-4.01-18.569-4.06-22.378-2.24-4.414-3.16-13.999-3.88-19.173m-210.47 205.87c6.47 6.91.6 24.92-3.06 32.34-8.05-5.18-.38-25.71 3.06-32.34m134.76-67.69c9.7-1.37 24.71 4.5 30.94 11.98-9.96 3.25-24.6-4.31-30.94-11.98m-1213.293 42.32c6.394-.42 25.654-.16 28.412 7.03l-1.516 1.23c-7.816 1.69-23.984.46-26.896-8.26M316.01 952.599c6.632 4.477 10.707 16.405 9.078 24.331-1.345-.136-4.451-.385-5.556-.831-6.654-2.683-5.147-18.605-3.522-23.5m917.88-22.996c1.77 1.13 1.73 1.174 3.1 2.783-.8 15.464-29.05 38.065-41.28 45.713l-1.56-.444c1.1-2.168 12.57-9.067 15.4-11.655 11.47-10.512 20.08-21.533 24.34-36.397m-199.42 208.137c5.78 5.03.65 22.97-3.91 28.84-7.43-6.35-1.04-22.23 3.91-28.84m56.88 113.9 2.06 1.2-.14 2.16c-5.57 8.15-12.51 13.26-21.66 16.81l-1.29-.32-.62-1.42c3.96-7.98 13.98-14.48 21.65-18.43m448.8-8.07c8.14 2.72 10.33 21.3 11.1 28.6-10-.62-11.42-21.14-11.1-28.6m-582.297 35.45c3.587-.13 3.022-.66 5.539.92-1.389 5.71-14.668 10.84-19.863 12.45-3.391.23-3.779.8-6.421-.45l.785-2.14c5.089-4.73 13.305-8.74 19.96-10.78M715.79 1103.49c9.611 4.95 13.205 15.28 15.197 25.25-11.043-.91-14.453-16.5-15.197-25.25m105.65 55.21c.468.17 1.84 1.06 2.33 1.35l-.001 2.31c-4.525 7.02-13.271 12.27-21.075 14.91l-2.188-1.03c1.253-6.72 15.337-14.64 20.934-17.54m898.41-115.82c9.09 1.3 20.99 7.14 21.91 17.22-9.2-.83-19.88-7.8-21.91-17.22m-828.869 215.27c3.895-.4 6.821-.97 9.885.91l-.756 1.96c-4.067 3.29-9.666 5.51-14.876 5.77q-8.456.87-16.923 1.59c8.099-5.9 12.998-7.44 22.67-10.23m234.319 37.42c8.72 5.41 14.7 15.82 14.92 26.07-8.94-6.91-16.93-13.43-14.92-26.07m-683.052 65.99c7.188 5.72-.697 22.13-4.963 27.95-1.791-.97-1.136-.58-2.398-2.5-1.059-8.88 2.718-18.04 7.361-25.45m1449.702-162.8c1.84 1.22 1.03.46 2.02 2.7-1.16 7.94-7.44 15.84-13.45 20.87l-2.02-.72c-2.29-7.7 8.02-18.4 13.45-22.85m21.35 47.23c11.71-.82 20.58 2.67 27.87 11.93-11.99-.69-20.49-1.39-27.87-11.93M466.532 951.804c1.629 1.887 7.805 18.086 7.824 21.472l-2.106.743c-3.301.222-6.069.801-8.991-.516-2.994-5.034 1.463-14.359 3.273-21.699M913.92 1198.01c7.936-.93 27.439 2.5 30.913 10.64l-1.069.04c-11.07.33-21.708-2.96-29.844-10.68m-247.105 143.95.648.75c1.724 8.09-9.609 17.84-15.913 21.46l-1.182-1.05c-.409-8.59 9.447-17.44 16.447-21.16m-93.683-20.43c7.523 5.56.024 21.01-5.002 26.54-1.106-.59-1.17-.98-2.054-2.06-1.055-8.56 2.104-17.59 7.056-24.48m638.198-299.98c5.17-.23 16.6.81 19.21 5.71-2.89 2.47-4.96 1.97-9.32 2.58-4.12-.05-15.72-2.16-17.33-6.16 2.87-2.36 3.28-1.71 7.44-2.13m-353.187 20.24 2.23.29.295 1.77c-3.072 6.61-12.525 14.03-19.359 16.56l-2.084-.11-.751-1.24c2.519-7.39 13.056-13.92 19.669-17.27m-509.96 267.38c5.023-.23 10.352-.56 14.865 1.8l.458 1.55c-2.551 2.81-5.772 3.11-9.606 4.08-5.215.55-10.764.55-15.314-2.22l-.344-1.69c2.684-2.6 6.103-2.76 9.941-3.52m1365.337-6.03c8.5.01 21.51 3.98 25.91 11.91-7.97.35-25.03-1.73-25.91-11.91M364.812 1067.33c10.306 3.28 16.255 14.45 17.31 24.66-10.57-5.81-14.437-13.56-17.31-24.66m313.706 168.22c8.429 6.13 13.785 15.89 13.588 26.37a20.5 20.5 0 0 1-5.295-3.74c-6.242-6.05-8.49-14.19-8.293-22.63m1204.352 55.78c.55-.06 1.1-.1 1.65-.14 12.86-.86 17.73 1.73 27.1 10.01-11.26-.23-21.39-.19-28.75-9.87m-39.56-147.07c7.28 2.85 14.58 16.98 11.66 25.01-7.76-4-12.49-16.57-11.66-25.01M758.469 1255.4c8.926 3.64 13.768 14.95 14.912 23.93-9.615-1.33-14.474-15.49-14.912-23.93m231.979-239.18c3.82-.24 4.34-.39 7.983.49l.568 1.22c-3.349 4.34-11.607 6.65-16.696 8.2l-13.661.06c7.703-4.73 12.938-8.73 21.806-9.97m-671.903 137.05c3.776-.06 3.266-.64 5.922 1.04l-.621 1.88c-5.212 4.71-10.577 7.33-17.398 8.74-2.547.12-3.334.35-5.671-.75l-.077-1.6c4.378-5.17 11.578-7.4 17.845-9.31m1131.295-115.85c4.57-.43 10.62-.48 15.31-.65-6.93 5.01-10.18 7.56-18.41 9.73-3.12.8-7.65 2.5-10.41 1.15l.43-1.68c4.33-4.2 7.73-5.69 13.08-8.55m-95.56 210.28c.53.08 2.39.74 2.98.93.59 7.01-13.88 13.18-20.05 14.13l-2.59.52-.46-1.79c3.23-4.99 14.56-10.73 20.12-13.79m-938.059-213.12c4.374.64 9.343-1.23 11.876 3.39-2.157 2.76-8.429 3.35-12.094 3.93-3.726.71-10.508 1.47-12.999-1.67 2.645-4.39 8.473-4.74 13.217-5.65m1345.729 310.66c7.74-1.76 23.59.33 27.64 8.2-9.18 1.38-21.59-.47-27.64-8.2m37.91-328.36c9.4.43 19.94 4.12 24.15 13.25-9.93 1.39-19.33-4.89-24.15-13.25m-874.69 88.89c9.746 2.41 15.811 11.88 18.339 21.02-10.771-4.02-16.024-9.72-18.339-21.02m443.54 82.24c6.35.5 23.98 1.97 24.72 10.3-6.77 1.08-20.46-2.53-24.98-7.98zM259.717 1300.75c8.765 2.79 16.986 7.32 19.668 16.76-10.844.02-17.332-6.67-19.668-16.76m853.483-231.02c1.21.49.93.56 1.91 1.78-1.2 6.17-13.2 14.36-18.82 16.82-6.68-6.19 12.8-16.25 16.91-18.6m400.39-7.62c3.37 1.06 6.88 2.59 9.48 5.04a23.4 23.4 0 0 1 7.28 16.72c-7.69-4.23-15.57-12.8-16.76-21.76m-1076.015 37.65c6.018 6.78-4.673 18.96-8.774 23.9l-1.392-1.2c-2.362-6.85 4.768-18.35 10.166-22.7m1477.135 175.05c6.79.15 21.77 2.53 23.05 10.49-11.44 2.72-16.43-1.29-23.05-10.49m-776.82-66.42c8.78-1.02 21.66-.82 26.36 8.33-7.84.2-22.23-.43-26.36-8.33m615.78-74.99c3.8-.37 11.84.63 14.02 4.2-2.51 2.71-3.77 2.42-7.65 3.62-5.88-.57-11.32-1.05-16.48-4.15l-.1-1.45c2.97-2.03 6.48-1.89 10.21-2.22m-1374.9 153.61c8.557-.38 23.132 1.05 27.221 9.89-11.439.34-19.224-1.71-27.221-9.89m-57.204 57.26c3.576.35 2.869-.25 5.26 1.66l-.608 1.75c-5.614 4.32-9.684 5.55-16.429 7.11-4.113-1.23-3.695-.36-5.276-3.1 2.684-5.06 11.752-6.43 17.053-7.42m327.589-157.52 1.062.41.467 2.05c-3.579 8.58-10.964 13.15-19.013 16.94l-1.339-1.15c2.194-6.89 12.619-14.77 18.823-18.25m313.157 63.62c9.031-.57 21.506-.35 27.258 7.79-8.377.19-22.871.92-27.258-7.79m-719.053-172.82c9.717-.07 19.131 10.96 22.038 19.63-9.298-1.67-17.133-12.38-22.038-19.63m54.147-47.34c3.615-.46 8.934-.69 12.341.57l.397 1.33c-2.604 3.16-6.91 4.16-10.946 5.65-3.298.17-11.509.2-13.455-2.3 3.185-3.16 6.969-3.51 11.663-5.25m77.36 333.4 1.389.88c1.49 6.86-8.697 15.76-14.533 18.23l-1.925-1.73c.313-6.92 9.916-13.58 15.069-17.38m1170.264-320.22c9.66 3.9 15.23 9.66 16.96 20.24-9.1-1.46-14.97-12.02-16.96-20.24m-1318.037 58c7.038 3.04 7.737 17.27 7.299 23.87-2.648.59-1.419.78-3.795-.63-4.487-6.62-4.747-15.57-3.504-23.24m4.077 52.66c1.46.92 1.145.79 2.324 2.12-2.019 6.39-14.258 9.43-20.083 10.61l-1.47-.09-.294-1.31c4.732-6.7 11.858-9.58 19.523-11.33m147.45 12.71 1.587.45.398 1.64c-3.407 6.19-11.363 11.32-18.076 13.38-1.73-.05-1.138-.01-2.819-.73.654-6 13.836-12.61 18.91-14.74m15.281-217.934c2.358 2.485-1.434 19.95-2.184 24.587-1.804 1.844-4.278 1.576-7.377 2.001l-.761-.812c-.323-3.334 7.821-18.936 9.91-24.635zm860.689 218.654c7.41 4.27 8.55 16.36 5.17 23.48-8-3.35-6.34-16.89-5.17-23.48m-378.71-78.17c8.344 1.39 11.846 15.44 13.531 22.31-8.85-2.34-13.196-13.95-13.531-22.31m819.6 132.26 1.08 1.03c.79 9.07-.49 16.1-4.91 24.04-1.93-1.12-1.23-.65-2.6-2.68-1.18-9.84.99-14.32 6.43-22.39M535.305 953.739c1.317 1.297 6.131 15.553 5.82 18.043l-2.897.709c-3.719-.177-5.202.418-7.72-1.551-.993-4.884 2.817-12.044 4.797-17.201m751.825 6.816 2.74 2.585c1.08 5.712-4.2 14.188-9.37 16.285l-3.19-1.443-.44-1.8c1.73-5.297 6.75-11.059 10.26-15.627M481.288 1376.07c8.096.59 18.876 6.09 20.418 14.66-6.79-1.38-18.939-7.29-20.418-14.66m1433.002-316.44c5.21 6.27-2.29 18.67-6.38 24.03l-1.29-1.69c-1.56-7.76 3.65-15.97 7.67-22.34m-359.38-202.57.49.828c-.5 1.715-7.93 12.634-10.33 18.581-6.48-10.048.84-15.657 9.84-19.409m8.35 94.669c7.41 9.683 10.93 8.565 4.08 20.827l-.32.671-.91-.458c-1.87-4.276-2.1-15.234-2.85-21.04M768.746 1374.77c4.66 4.99-6.015 14.37-9.589 17.44-1.437-1.48-.81-.67-1.279-3.16 1.595-6.09 6.389-10.04 10.868-14.28m1105.054-338.6c2.58-.18 2.66.07 4.94 1.15l.05 2.01c-3.04 3.69-4.52 3.99-8.85 5.64-3.04-1.05-3.58-1-5.27-3.5l.44-1.72c2.93-2.69 4.78-2.71 8.69-3.58M260.622 1322.53l1.422 1.21c1.126 4.18-2.738 8.91-5.376 11.92-.862.98-2.629.52-4.009.48.144-3.92-1.619-4.48-.616-8.07 5.509-.13 5.619-1.43 8.579-5.54m682.952-230.72c6.165 1.65 11.567 7.15 13.069 13.36-8.238-.64-12.175-5.46-13.069-13.36m371.366-123.354c4.54 1.215 7.15 3.396 5.57 8.529l-3.19 1.043c-3.94-.092-5.24.629-7.59-1.527.44-3.182 3-5.46 5.21-8.045m623.21-9.762c1.51 1.596 3.56 6.209 3.62 8.489.15 5.054-2.73 5.164-6.17 6.205-1.75-.973-1.65-.983-2.97-2.518.38-3.342 3.82-8.704 5.52-12.176m-89.67 381.506c3.97.81 6.31.66 7.71 4.66-2.48 2.7-1.6 1.85-5.68 2.94-3.64-.95-5.35-1.41-7.22-4.18 1.81-2.82 1.33-1.95 5.19-3.42"/><path d="M220.045 1326.63c8.433.82 12.598 5.64 9.791 13.96-7.707-3.37-10.85-5.29-9.791-13.96m-97.493-46.93c5.135-.78 6.985.24 11.076 3.4l-.57 1.64-2.604.25c-1.818 4.16-1.82 4.21-5.943 5.06-3.142-1.49-2.06-.67-4.002-3.91.009-4.73-.622-3.08 2.043-6.44"/></svg>