<svg xmlns="http://www.w3.org/2000/svg" preserveAspectRatio="none" style="display:block" viewBox="0 0 2048 1152"><path fill="#fefefe" d="M0 0h2048v1152H0z"/><path d="M1018.3 42.425c23.28-2.57 56.64 1.429 80.16 3.632 119.46 11.189 236.27 59.673 326.75 138.794-1.07-18.475 2.55-45.123 5.07-63.833-21.95-21.332-47.73-36.674-79.51-30.319-7.19 1.439-19.84 7.662-24.31.242 3.98-11.865 39.36-12.311 50.18-11.718a79 79 0 0 1 7.44-5.36c26.57-16.832 53.33-17.001 82.91-10.184 44.03-33.067 121.32-4.95 159.63 24.133 4.88 3.707 10.12 7.088 15.19 10.55 28.91-24.086 66.45-36.703 101.76-17.28 43.96-24.983 85.56-25.989 131.65-5.29 21.33 9.58 71.88 47.35 79.69 68.811-.67 2.861-.97 3.036-2.83 5.42-1.26.52-1.97 1.061-3.38.797-2.95-.559-32.11-31.514-37.4-35.988-17.27-14.611-37.07-27.178-58.7-34.18-34.3-11.109-66.99-7.549-98.98 8.694 13.45 9.286 24.32 23.402 34.62 36.006 9.92-4.287 21.28-9.109 31.94-10.667 76.94-11.25 134.33 77.58 145.79 143.467.77 4.407 1.75 10.079-.86 13.737-3.08 1.359-6.52.462-10.03.024-5.99-68.904-72.74-173.423-154.77-138.183-2.42 1.038-2.71 3.071-3.3 5.25.69 2.054 1.34 4.542 3.74 5.375 34.51 11.997 69.56 27.448 93.35 56.339 24.26 29.469 41.44 69.137 37.56 107.919l-1.78 1.216c-8.67 1.128-10.42-3.032-10.41-11.553.02-42.561-24.78-87.612-59.19-112.186-15.87-11.331-33.56-18.428-51.2-26.045 7.88 11.147 18.15 33.676 25.07 46.977 8.78.081 44.53 1.795 45.96 12.86-.51.854-3.41 4.926-4.34 4.706-12.92-3.066-22.96-4.749-36.32-4.551 12.86 32.061 25.52 65.484 31.47 99.763.58 3.361-.37 4.283-2.09 6.596-3.64 1.235-2.15 1.214-5.66.321-5.09-3.793-6.29-18.376-8.09-25.021-7.31-27.006-18.36-54.922-28.14-81.141-.83.037-1.67.085-2.5.146-20.09 1.478-36.29 12.015-49.06 26.861 7.65 7.77 16.55 18.117 22.2 27.366 4.83 7.896 18.02 32.937 16.08 41.444-6.37 7.076-9.92-.118-11.99-5.898-7.33-20.495-16.38-38.641-32.98-53.229-5.46 7.697-11.03 18.452-13.72 27.471 2.83 8.976 8.56 29.272 9.11 37.733-1.45 2.439-2.77 2.857-5.25 4.236-8.22-.107-9.44-15.784-11.03-22.701-2.8 9.074-1.89 22.321-13.16 24.026-8.84-3.788 4.19-37.967 7.29-45.384-3.5-12.875-11.7-40.616-17.55-51.772-6.92-1.906-9.71-2.705-16.99-3.219-12.93 17.074-24.29 41.586-33.53 61.051-4.3 9.052-10.96 33.249-16.59 39.883-3.29.832-3.75.666-7.02-.339-.59-.674-2.19-2.681-2.06-3.384 4.43-23.886 32.47-79.043 43.51-97.244-29.39 4.431-61.79 23.484-76.09 50.053 2.55 15.043 7.26 42.678 8.04 57.492 4.11 2.015 15.72 1.206 20.73.824 44.63-3.402 88.33-1.529 132.99-.801l128.01 1.649c17.68.263 35.36.3 53.03.111 10.07-.185 32.97-2.405 41.37 1.335 2.2 2.465 1.78 1.27 1.67 4.44-5.2 3.892-30.52 2.58-38.6 2.627-22.25.291-44.5.18-66.74-.333-111.62-1.997-231.37-6.442-342.45 3.864 13.39 27.736 27.48 54.315 40.13 82.775a583.6 583.6 0 0 1 43.27 143.648c5.15 29.438 6.42 59.534 7.69 89.238.11 2.511 11.45 2.249 14.07 2.236 45.01-.234 89.92.096 134.9 1.861 31.05.908 62.77-.699 93.8-.421 4.93.045 8.37 2.131 12.5 4.512.12 13.522-1.5 27.2-2.26 40.696-.96 17.275-1.26 34.683-1.56 51.984-.55 32.237 1.18 315.098-4.08 320.208-1.51 1.46-3.69 2.36-5.73 2.73-11.3 2.06-24.87 1.06-36.48 1.36-35.7.95-70.91 1.14-106.61.34-26.44-.59-53.03 1.48-79.46 1.07-31.95-.49-63.89-2.55-95.82-3.11-22.21-.4-44.7 1.08-66.93 1.52-20.5.41-41.13-.21-61.59.65-42.93 1.8-85.84 6.14-128.75 8.2-50.32 2.32-100.69 3.18-151.06 2.6-21.27-.04-47.02.62-67.89-.55-20.5.37-41.42.86-61.9.59-12.29.3-26.12-2.17-38.219-1.58-40.064 1.98-79.702-3.04-119.789-2.42-21.907.34-43.533 1.69-65.434 1.96-48.804.23-97.608-.3-146.395-1.58-46.793-1.47-94.467-6.06-141.236-7.76-84.439-3.07-169.165 2.42-253.662-.3-55.466-.11-45.066 9.76-48.485-40.13-6.58-96.023.232-191.628-1.747-287.664-.52-25.202-8.459-64.849-.06-87.356 2.144-5.745 75.226-3.736 84.733-3.672 39.847.537 79.701.391 119.542-.439-.236-22.521-1.031-43.401.827-65.94 7.703-93.426 33.007-170.001 79.016-250.871a463.5 463.5 0 0 0-87.253-10.143 1952 1952 0 0 0-73.432-.406c-84.435 1.719-168.88 8.614-253.467 3.513-8.142-.491-39.244 3.409-38.905-6.178 5.029-6.496 9.589-2.982 16.855-2.912l69.849 1.001c87.02 1.179 173.854-5.055 260.785-4.492 11.813.076 24.956.013 36.633 1.273-.007-24.892 1.71-35.593 5.183-60.179-18.182-27.873-45.465-44.266-78.336-47.196 6.624 11.804 42.621 84.24 40.785 94.281-2.95 2.705-1.518 1.898-5.768 2.783-1.91-.612-3.386-.586-4.164-2.598-12.648-32.723-26.536-62.532-43.53-93.267-9.177.746-11.646 1.633-20.683 4.14-5.488 11.074-13.618 42.895-17.336 56.359 3.063 7.53 14.664 29.816 8.856 36.328-8.163 1.013-10.458-10.119-13.127-16.749-.778 6.074-.181 14.598-6.823 15.935-4.105-1.58-2.821-.539-5.295-3.715-1.588-8.161 3.123-25.938 5.038-34.823-3.669-10.668-7.785-18.27-13.399-27.957-11.14 10.898-20.072 25.173-27.661 38.73-3.092 5.522-8.653 20.208-13.337 22.622-8.258-.817-3.816-15.068-1.437-19.643 9.903-19.039 21.04-35.554 36.14-50.91-15.994-17.46-28.594-25-51.153-31.538-11.699 27.994-23.436 54.578-30.222 84.214-1.034 4.516-3.274 17.568-5.812 20.467-14.321 4.897-6.654-17.571-5.144-23.56 7.029-27.872 16.9-55.378 28.594-81.632-4.905.01-8.662.243-13.527.744-9.01.928-24.898 14.702-29.666 2.163.437-1.627 1.153-3.236 2.663-4.063 15.234-8.341 28.813-10.772 45.106-8.804 5.395-13.759 18.32-35.16 26.337-48.059-10.5 3.771-20.582 7.781-30.603 12.603-47.719 22.958-77.333 70.295-82.408 122.407-.486 4.988-1.181 9.98-1.895 14.948-3.128.356-5.348.954-8.174-.273-5.594-6.096-2.315-17.429-1.072-24.75 12.887-75.866 59.679-118.897 131.686-139.908 1.657-1.968 4.491-6.48 6.045-8.825-15.52-5.961-36.791-12.504-53.886-8.041-55.403 14.542-95.724 75.607-105.54 129.455-1.314 7.205.502 14.991-9.196 16.545-6.197-3.619-4.504-11.514-3.398-17.715 11.14-62.487 66.958-146.445 138.725-141.217 13.885 1.011 26.338 5.671 39.049 10.978 12.684-14.339 17.702-22.815 33.169-37.155-11.576-8.387-26.387-10.62-40.016-12.786-55.315-8.817-106.196 24.352-141.783 63.654-5.295 5.848-12.884 16.628-18.737 5.241.085-.611.18-1.574.565-2.093 49.145-66.14 134.792-106.927 211.426-61.372 34.075-20.152 74.743-7.796 101.104 19.175 48.939-41.685 115.273-69.552 176.302-36.973 34.382-9.013 60.258-5.752 87.894 16.858 11.999-1.19 45.318-1.103 49.817 12.324-4.936 5.93-21.519-1.472-30.883-2.134a79.1 79.1 0 0 0-24.061 1.83c-16.714 3.934-39.04 17.106-48.003 31.583 2.516 18.24 5.48 48.064 1.757 65.624 14.164-13.058 37.175-34.12 53.17-44.29 87.883-55.87 187.37-95.176 292.296-99.871 17.677-.791 34.942-.756 52.612-2.374"/><path fill="#fefefe" d="M1018.54 51.393c1.03-.065 1.93-.119 2.96-.142a594.1 594.1 0 0 1 296.12 70.325c131.91 70.059 218.5 194.635 275.22 329.717 29.82 71.013 40.39 139.078 42.51 215.551-162.62 3.524-325.6 2.083-488.28 5.351-4.79.096-16.67.971-19.93-2.161l.26-2.488c5.9-6.247 77.07-4.345 91.02-4.595 38.47-.687 77.2-1.536 115.71-2.082 27.63-.392 51.93 2.742 79.32-4.038-.22-15.442-2.45-34.488-4.16-50.027-9.16-83.224-29.65-156.929-80.26-224.906-49.96-67.084-133.74-123.925-217.2-135.452-20.29-45.846-42.02-19.508-58.14-34.958-5.48-5.247-5.41-12.236-5.69-19.278 11.99-15.135 9.96-31.523 17.94-41.141 10.55-4.097 66.85 6.514 80.52 9.091 27.93 5.198 52.33 17.509 78.06 28.36 58.27 24.574 107.52 60.408 149.87 107.132a504.4 504.4 0 0 1 120.56 233.794c6.23 29.591 11.57 57.46 14.22 87.677 1.42 8.962-.02 29.032 5.49 36.261 4.64 6.089 35.68 3.029 41.61-1.097 2.5-3.587 3.16-7.578 3.44-11.871 4.48-67.12-45.05-221.102-77.87-280.378-15.16-27.371-35.88-52.922-56.29-76.59-13.69-15.882-28.87-30.041-44.28-44.213a493.93 493.93 0 0 0-235.57-121.704c-26.91-5.474-58.58-8.698-85.82-10.667-3.64-1.494-7.57-6.19-10.34-7.346-16.23-6.763-42.1-8.407-54.58 5.88-109.981 15.46-205.861 36.309-291.387 113.948-21.856 19.841-48.068 42.919-66.119 66.298-71.487 92.585-121.873 210.92-133.615 327.665-.739 8.007-3.157 40.151 1.082 45.012 6.905 4.404 51.241 5.748 52.903-2.327 3.242-15.747 1.641-35.449 4.183-51.749 17.006-109.051 60.39-217.714 129.59-304.167C732 249.481 770.515 221.656 827.592 193.28c56.82-28.248 98.99-38.874 161.702-44.727-.296 1.887-1.038 7.525-.456 9.133 3.931 10.848 9.216 27.435 15.682 36.436-.61 12.126-1.48 14.498-9.972 22.968-29.684 6.838-38.873 2.087-53.688 32.187a343.97 343.97 0 0 0-168.249 107.882c-59.383 70.004-85.88 166.803-86.752 257.357-.11 11.443-.779 23.335.228 34.705.269 3.036.746 8.511 3.435 10.44 8.969 6.431 247.917-1.027 255.141 4.941.607 2.769.892 3.224.191 5.863-2.391 1.156-66.437 1.292-74.686 1.135-146.883-2.794-294.156-.032-440.973-1.185-3.996-126.4 26.021-230.937 92.835-339.433 55.252-89.723 116.552-163.94 213.759-211.122 62.325-30.25 115.655-52.493 185.592-61.762 33.153-4.394 64.007-4.18 97.159-6.705"/><path fill="#fefefe" d="M1022.6 222.412c13.11-1.252 58.84 1.117 69.33 8.596 19.5 13.909 46.32 184.32 50.24 216.761-6.3-.863-14.27-.023-20.73.388-3.46-25.147-10.85-50.352-13.29-76.377-1.05-11.187-5.52-73.744-8.45-79.739-2.84-2.439-1.47-1.937-5.12-1.954l-1.81 1.801c-2.75 9.356 11.05 135.881 12.75 153.7a608 608 0 0 0-62.76-3.205c-34.24 2.254-49.758-1.669-87.743 5.38 4.578-39.132 4.545-81.294 8.032-120.743.614-6.949 5.634-30.264-2.328-33.155-2.558.788-5.119 6.513-5.244 9.016-2.473 49.522-11.227 98.485-18.999 147.394-6.815-1.124-12.302-1.961-19.196-2.564 4.496-38.958 19.706-184.066 40.062-208.793 10.429-12.668 49.086-14.976 65.256-16.506m-10.37 229.143c28.46-1.617 61.76.267 90.15 1.869l10.2 155.09c2.38 32.635 6.59 78.323 6.41 110.889-18.15 1.85-38.71 1.601-57.02 1.454-1.11-21.507-5.23-46.921-7.46-68.928l-14.17-141.077c-.72-7.549.35-20.765-9.08-21.918-2.97 2.613-3.8 6.512-4 10.479-2.59 52.283-4.63 104.918-8.22 157.149-1.42 20.723-1.07 42.574-3.61 62.761-10.69-.325-48.694 2.624-56.588-.88-9.921-16.735-3.04-228.128-1.417-262.931 19.711-2.445 34.83-3.765 54.805-3.957m-50.922 277.359c2.146.163 3.436.563 5.527 1.099 3.999 4.379 2.302 19.687 2.138 26.014-29.807 38.933-69.599 24.954-106.087 44.388-24.084 12.828-40.519 56.834-58.972 74.849-13.089 12.778-40.019 8.39-55.86 14.568-10.3 4.018-16.707 15.307-25.355 21.829-19.023 9.03-27.139 12.429-27.275 36.774-.197 35.399-26.919 52.245-44.274 79.515-4.073 6.39-4.166 21.99-11.143 27.68-3.265.59-6.976-1-7.584-4.62-6.502-38.74 55.157-64.776 43.082-101.452-16.296-49.502-59.954 5.572-72.705 28.991-2.183 4.736-5.554 11.701-11.118 12.754-9.76-9.678 10.896-39.066 18.071-47.423 15.66-18.235 36.602-32.312 60.267-37.516 11.221-2.333 22.509-3.481 33.289-7.631 16.123-6.151 27.406-22.777 45.413-24.758 19.408-2.045 39.882.444 53.424-16.94 7.39-9.179 11.366-21.499 7.761-33.065-2.073-7.267-5.613-12.619-13.349-14.205-25.458-5.221-48.876-.256-71.068 12.921-10.426 6.19-28.102 13.82-39.101 5.684-1.441-1.066-1.072-1.123-1.255-2.833 3.43-5.33 15.902-7.103 22.484-10.146 8.428-3.928 17.544-8.399 25.946-12.078 33.976-14.873 69.602-6.289 104.97-6.772 7.357-.1 22.596-12.451 31.224-14.594 44.772-11.118 73.87-1.106 91.55-53.033m217.592-10.143c11.92 1.018 29.58 11.3 40.46 17.907 37.84 22.973 81.42 26.412 123.95 16.256 9.59-2.29 63.03-29.64 66.02-9.636-.99 1.794-3 3.754-5.03 4.078-33.11 5.29-62.1 18.154-93.4 29.925a357.34 357.34 0 0 0 167.72 53.478c17.02 1.188 40.42-1.519 56.39 2.198 28.96 6.736 48.86 22.852 80.57 22.758 35.4-.104 53.08-13.887 90.27-10.936 7.59-.254 26.05 1.076 29.94 8.475-2.21 5.658-8.55 4.622-13.13 3.296-14.43-4.177-79.87 2.276-89.8 11.751v1.793c8.32 6.339 38.73 2.061 49.23 9.965l.11 1.596c-5.81 5.445-18.33 3.313-25.3 3.463-44.74.968-76.09-25.947-116.27-37.382-11.11-3.162-33.26-1.39-45.46-2.15-15.33.251-30.1-2.098-45.07-4.173-36.48-5.053-62.02-10.352-95.38-25.881-31.32-14.58-60.59-29.563-90.08-47.947-9.3-5.793-25.46-8.678-35.79-12.623-17.54-6.164-36.64-14.64-48.96-29.103-2.22-2.603-1.52-4.202-.99-7.108"/><path fill="#fefefe" d="M1034.23 554.689c1.29 3.804 3.08 28.844 3.64 34.633 2.97 30.138 8.11 62.6 10.11 92.628.02 19.709-1.79 39.155-.23 58.884 1.73 21.857 11.66 39.404 1.41 60.751-4.59 12.101-14.83 21.958-19.95 33.405-7.65 17.104 20.54 27.111 25.18 40.022 6.79 18.906-10.14 37.14-16.33 53.2 3.56 27.627 23.34 20.262 26.5 47.269 3.3 28.249-17.65 42.409-20.73 68.519-.92 7.78 10.42 25.5 3.27 27.98-6.14-1.58-7.18-6.49-9.75-11.44-16.02-30.81 20.98-55.66 15.17-86.196-1.27-6.715-6.12-12.739-11.8-16.316l-.89-.557c-48.067-10.46-30.31 51.759-42.899 55.439l-2.243-1.43c-.901-1.3-1.625-2.68-1.859-4.22-5.351-35.283 9.731-43.186 26.651-67.229 6.86-13.256 22.46-43.07 20.02-57.081-2.17-12.473-17.34-19.027-28.95-16.545-19.41 4.147-10.34 31.264-17.232 42.225-2.809 1.593-1.573 1.438-4.464.711-4.293-4.919-2.91-19.431-2.004-25.982 4.727-34.143 42.39-53.17 44.15-88.297.82-16.464.56-33.614-3.87-49.603-1.61-5.455-5.65-10.636-6.24-16.305-.31-2.958 3.4-4.876 3.66-8.196.75-9.28.61-18.642 1.2-27.929 2.05-32.833 3.82-65.682 5.29-98.546.36-7.28 1.22-34.207 3.19-39.794m62.82 269.064c5.4 1.023 13.44 1.018 18.22 3.388 3.42 1.699 5.87 16.696 17.15 23.14 15.5 8.85 31.92 6.404 45.97 20.263 4.78 4.721 13.89 14.731 13.71 21.526-.04 1.515-.55 1.601-1.65 2.599-7.86.819-13.86-8.404-18.36-13.651-18.4-21.442-64.08-17.084-45.62 19.224 7.77 15.296 17.15 31.901 27.85 45.386 8.34 10.478 21.3 9.218 31.81 13.62 32.99 13.817 35.8 60.142 66.62 78.752 6.14 3.71 24.61 6.75 20.46 16.4-3.26 2.01-8.89 1.45-12.45.6-27.66-6.62-45.86-42.29-59.88-64.478-13.8-21.72-41.08-38.082-59.09-9.49-14.64 23.248 8.56 57.268 26.27 72.408 6.14 5.24 25.21 14.22 26.81 19.84-.8 3.43-.06 2.4-2.54 4.16-8.07 1.06-23.32-8.4-30.05-13.32-22.57-16.53-43.93-47.88-36.9-77.028 2.46-11.51 14.12-22.453 12.32-34.569-1.69-11.349-14.76-41.607-29.6-39.918-9.36 1.067-6.14 16.811-10.39 24.801-3.32 2.449-6.49 1.134-8.25-2.332-8.24-16.294 4.28-34.045 6.85-50.821-2.62-8.182-5.39-13.335-7.52-22.215 18.03-12.435 17.49-19.777 8.26-38.285m11.84-93.952c1.36.025 4.45.011 5.48.666 1.67 1.068 3.16 8.392 4.36 10.914 9.3 19.477 29 37.324 48.26 46.5 12.49 5.95 26.55 9.83 37.35 18.295 9.85 7.714 11.84 23.22 19.89 32.428 8.75 10.008 23.47 11.787 35.39 18.92 7.78 4.652 17.1 15.708 24.4 19.354 15.42 7.708 28.59 1.631 47.29 9.845 16.31 7.163 35.05 22.849 45.79 37.355.86 1.161-.12 2.458-.62 3.296-13.31 5.392-43.41-42.718-66.11-32.934-14.51 6.255-9.99 21.25-7.53 32.557 5.53 25.446 30 42.794 50.77 55.409 12.99 8.682 53.63 43.694 45.96 60.714-2.6 2.42-1.52 2.05-4.66 2.71-7.48-2.52-8.5-17.7-18.6-27.89-12.7-12.82-18.43-14.93-33.6-24.385-18.23-11.364-32.14-27.225-42.55-45.944-10.75-16.936-5.57-44.64-18.75-58.941-9.99-10.832-24.18-21.07-38.04-25.854-6.78-2.337-14.64-5.813-20.48-9.812-12.53-8.589-17.82-25.098-29.68-34.507-7.85-6.29-17.49-9.327-26.41-13.684-21.75-11.282-48.57-22.793-60.09-45.446.6-6.861.51-24.39 2.18-29.566m-162.919 96.541c2.627-.392 4.69-.786 7.305-.025.264 4.754-7.099 9.432-7.027 15.686.127 11.102 11.477 21.251 10.56 40.627-1.606 33.968-25.73 50.951-27.624 75.717-.921 12.045 6.907 20.417 10.974 31.041 7.25 18.932 1.136 44.572-4.862 63.202-1.924 5.98-5.873 17.11-11.805 20.16l-1.703-.81c-1.228-2.49-1.262-6.91-.757-9.63.927-5 3.491-10 5.089-14.84 4.903-14.86 9.349-34.89 5.523-50.38-2.249-9.104-6.659-13.451-14.537-18.085-10.591-.31-16.388.864-25.026 7.137-6.389 13.476-6.442 26.388-8.121 40.808-1.362 1.03-2.335 1.33-3.946 1.76-1.483-.53-2.396-.61-3.333-1.94-3.099-4.43-3.915-16.1-3.085-21.36 6.172-39.102 28.116-36.817 48.02-62.822 8.399-10.974 14.617-28.855 16.763-42.534 1.272-8.104.975-17.446-4.15-24.271-3.139-4.181-7.758-6.553-12.9-7.163-5.812-.69-11.949.707-17.281 2.978-26.488 11.282-25.89 40.867-34.164 46.131-1.273.809-1.59.318-2.935-.068-.664-.916-1.32-1.896-1.695-2.973-2.178-6.265.581-14.568 2.802-20.412 8.268-21.757 20.667-30.889 41.778-38.575 6.01-2.188 12.375-4.288 17.479-8.271 5.342-4.167 6.834-10.578 10.147-16.21 2.022-3.437 4.912-3.977 8.511-4.878m-379.02 69.296c.196.044.395.071.587.131 2.669.828 3.064 1.346 4.485 3.625.056 1.09-.053 2.033-.468 3.059-2.21 5.47-9.749 12.843-13.519 17.561-14.645 18.326-105.411 128.136-122.545 131.796-2.834.6-3.885-.06-6.18-1.46-1.081-2.5-1.352-3.01-.281-5.7 3.695-9.26 14.603-18.82 21.472-26.13 10.572-11.26 57.901-58.566 57.956-69.357-5.553-2.809-20.315 2.987-26.641 4.511-41.191 6.297-56.379-14.869-91.387-17.555a98.5 98.5 0 0 0-42.47 6.368c-5.901 2.336-13.745 7.22-20.05 7.434-2.477.085-3.058-.662-4.709-2.241l-.007-2.061c1.878-3.25 5.132-5.139 8.331-6.911 22.504-12.463 50.31-20.253 75.628-12.616 11.639 3.511 22.599 9.039 34.272 12.457 32.096 9.399 66.477-1.093 93.293-19.651 10.857-7.513 20.631-16.906 32.233-23.26m238.485-177.353c8.111-.55 19.602-2.619 23.49 6.413l-.764 1.656.752-1.345-3.778 2.545.599-.035c-22.215.891-49.76 6.05-68.639 16.103-35.63 18.973-59.57 14.024-97.444 16.42-16.663 1.055-39.924 14.917-58.964 16.291-37.241 2.687-70.878-21.685-108.537-17.318-19.793 2.08-38.031 10.504-56.801 16.381-7.058 2.209-41.229 13.828-44.042 3.458 1.211-2.925 2.898-3.498 5.669-5.171 20.888-5.898 40.32-11.013 60.57-18.905-7.204-5.407-31.434-9.407-30.258-18.558 8.695-5.069 35.392 9.908 47.028 11.807 14.418 2.354 30.62-2.116 43.577-.324 23.461 3.246 48.874 12.79 72.473 15.209 22.352 2.292 43.318-10.135 66.014-14.259 20.143-3.661 47.535 1.09 64.618-3.989 30.031-8.927 51.917-22.4 84.437-26.379M592.489 371.644c8.247 1.616 25.889 6.737 33.751 9.329-17.701 35.608-34.399 71.685-46.644 109.593-3.101 9.6-5.114 18.572-9.183 27.939l-2.366.861c-11.224-2.096-25.085-3.05-36.628-4.117 13.173-41.359 40.571-106.284 61.07-143.605m-316.23-222.598c12.702 1.711 41.446 39.45 49.357 50.126-3.879 9.158-7.23 15.573-10.805 25.326-12.647 3.557-20.451 10.432-31.426 16.503l-1.536-.538c-14.976-18.133-30.828-26.615-53.135-32.843 10.447-19.591 17.924-33.242 30.241-51.694 6.506-3.143 10.224-5.175 17.304-6.88m1496.661.676c22.27.123 39.31 41.823 48.33 58.793-23.82 4.036-33.96 10.359-51.39 26.278-1.92 2.46-1.78 3.108-4.42 4.053-10.55-6.25-18.54-10.665-29.59-16.162-3.68-6.711-7.65-16.386-11.28-23.732 13.69-20.648 28.52-34.853 48.35-49.23M545.444 92.886c11.312 12.335 22.571 58.861 28.228 76.548-6.257 13.361-11.07 30.706-15.358 44.988-3.742-7.084-6.161-11.342-10.67-17.948-11.661-14.987-20.514-21.506-36.316-31.837-3.15-8.508-7.796-18.692-11.399-27.18 12.7-18.1 27.325-32.107 45.515-44.571m-82.067 115.539c8.578 5.614 45.413 102.196 51.308 118.48-3.206 5.221-7.816 16.185-13.459 17.397-7.412-.954-14.752-2.255-22.12-3.502-7.241-19.466-22.013-50.083-31.782-68.531 2.659-20.381 9.619-44.155 16.053-63.844m20.92-44.747c6.787 2.493 11.665 4.013 17.805 7.927 18.978 42.515 27.646 68.781 37.212 114.237-6.056 7.366-11.348 17.229-16.112 25.585l-1.503.07c-2.332-2.922-2.406-5.266-3.592-8.627-13.478-38.189-30.714-74.89-48.063-111.412 2.919-8.178 9.82-19.871 14.253-27.78M1503.39 94.306c14.57 7.846 37.26 28.924 46.7 42.597-3.1 7.263-11.2 20.773-15.37 29.025-12.4 7.736-18.99 14.616-28.46 25.49-4.73 5.761-9.62 12.456-14.18 18.436-3.68-12.69-12.16-31.049-14.29-40.64 9.25-33.127 9.47-43.851 25.6-74.908m81.32 113.297c5.42 3.833 16.48 53.07 18.89 62.732-12.74 28.434-21.7 36.754-29.16 68.62-5.95.856-13.71 1.151-19.82 1.556-2 .068-2.86.032-4.86-.134-5.22-4.234-8.14-11.473-11.28-17.6 13.72-47.005 27.77-71.754 46.23-115.174m-20.5-44.734 1.44.286c3.47 3.146 12.04 22.047 14.4 26.964-2.58 4.925-4.87 9.832-7.15 14.903-15.68 34.946-31.74 68.823-43.24 105.432-3.39-4.291-13.16-20.193-15.8-24.952 6.16-39.988 15.85-75.885 32.3-112.903 5.33-3.29 12.39-6.762 18.05-9.73m-177.4 693.035c1.67-.112 3.53-.289 5.19-.056 11.95 1.664 85.8 81.649 96.24 95.681 10.82 14.552 17.48 32.062 28.72 46.138 14.81 18.553 34.94 14.373 55.63 16.913 3.53.44 5.32 1.28 7.51 4.04l-.72 2.08c-3.35 2.33-6.49 1.74-10.21 2.71-2.11.54-2.78.67-3.9 2.51.2.79.18.91.51 1.58 2.17 4.35 8.16 5.95 12.41 7.55.92.66 1.83 1.33 2.63 2.14 1.14 1.13 2.63 2.9 2.58 4.46l-1.47 1.01c-8.88 1.43-36.21-10.39-45.47-13.98-6.85-2.66-16.57-6.12-21.72-11.44-9.32-9.67-13.69-23.892-21.37-34.938-6.16-8.856-13.5-16.978-20.29-25.361-13.45-16.639-26.04-32.433-41.11-47.707-8.18-8.284-43.16-37.648-46.44-45.906-1.08-2.738.12-4.962 1.28-7.424m108.15-441.911.64.232c6.58 5.973 39.51 115.208 41.97 128.232l-26.06 4.181c-1.15.093-2.28-.008-3.44-.061-1.84-3.129-5.94-28.922-7.42-34.84-5.06-20.262-20.49-71.06-31.51-86.727 8.62-3.466 17.52-6.882 25.82-11.017m120.76-260.782c17.74-.404 31.6 1.532 48.65 5.725-17.73 21.176-31.81 47.922-43.33 72.901-3.04 7.331-6.53 14.109-10.09 21.194-5.61-21.988-9.73-39.797-19.18-60.645 3.78-6.997 18.85-36.344 23.95-39.175m-1195.837 2.207c4.873-.902 10.492-.424 15.502-.224 8.303 13.137 14.52 25.919 22.229 38.851a387.6 387.6 0 0 0-18.542 61.049l-5.175-11.703c-12.373-28.239-27.744-59.003-47.653-82.855 12.976-3.551 20.188-4.323 33.639-5.118m316.906 49.366c4.091 2.654 8.852 21.662 10.244 26.825-30.132 24.328-41.017 36.713-65.363 66.521l-12.895-6.323c-4.958-1.851-12.053-5.644-16.961-8.083 15.069-19.908 65.592-63.96 84.975-78.94M475.576 823.44c23.58-4.79 62.436 11.448 88.229 8.792 8.821-.908 30.298-7.45 36.542-4.352l.37 1.669c-4.349 7.066-12.114 8.353-19.419 10.514-35.042 10.37-66.023-2.807-101.504-3.115a146.6 146.6 0 0 0-61.122 14.584c-7.727 3.727-15.575 8.299-23.451 11.536-.886.364-1.943-.478-3.136-1.051-3.96-7.312 3.139-6.229 4.233-12.529-7.325-4.545-20.197 1.29-26.495-6.956l.252-1.485c7.281-6.474 37.382-2.653 50.112-5.246 19.225-3.916 36.118-9.817 55.389-12.361M1304.7 192.325c17.01 5.192 78.82 59.946 93.16 74.379-7.36 3.104-12.07 5.505-19.09 9.359-1.91 1.231-4.57 3.31-6.48 4.709-26.26-27.126-52.57-47.946-83.67-68.99 8.32-7.687 10.35-10.221 16.08-19.457m218.66 710.569c16.5 1.305 51.2 26.852 67.23 36.079 10.49 6.042 21.36 11.503 32.83 15.434 28.79 9.864 58.5 3.739 87.39 10.506 8.17 1.913 20 4.998 24.62 12.445.3 3.309-.1 3.617-1.88 6.477-11.19-2.721-22.27-7.222-33.75-8.478-25.04-2.738-50.13.56-74.8-5.903-7.98-2.067-15.69-5.1-22.94-9.033-20.81-11.127-39.04-26.377-60.02-37.519-6.12-3.255-19.11-8.433-22.68-14.519.62-2.954 1.81-3.54 4-5.489m168.49-167.564c7.13.024 30.77-.776 31.72 8.395-.92 1.417-1.94 3.457-4.04 3.579-10.05.589-52.57-3.462-54.82 9.576 2.96 4.529 11.29 4.162 17.74 6.078 2.6 2.786 2.01 1.478 2.6 4.911l-1.08 1.457c-16.55 4.151-64.54-12.861-82.19-16.353-14.28-2.822-20.03-2.917-35.03-2.761-13.52 1.049-25.45 4.072-38.62 6.843-4.3.904-16.16 1.756-16.88-4.306 5.01-5.922 53.82-14.222 63.64-15.026a107.5 107.5 0 0 1 21.64.524c14.17 1.845 33.87 10.916 46.28 9.845 16.16-1.394 31.07-9.346 49.04-12.762m-609.18-618.067c34.34 2.705 83.12 12.074 114.89 23.752-3.51 6.25-5.97 13.412-8.52 20.143-2.46 1.798-5.81.087-8.57-.898-33.21-11.866-67.36-14.765-102.1-19.528 1.12-7.85-.42-18.246 4.3-23.469m-112.99.162c.378-.117 2.151.016 2.492.031.849 1.986 1.585 17.851 2.215 22.487-17.263 3.392-34.435 5.357-51.864 9.182-20.826 4.57-37.349 9.89-57.312 16.724-2.84-8.115-5.291-15.476-7.714-23.719 39.702-11.741 70.624-20.086 112.183-24.705m567.83-52.263c17.17-3.125 52.43 14.263 67.32 23.02-20.2 5.633-25.45 7.886-39.19 24.095l-9.47 13.745c-19-21.198-22.23-24.895-46.18-41.806 9.68-10.552 14.13-14.165 27.52-19.053M373.886 164.757c13.432 8.873 40.768 61.369 46.683 78.146-7.352-6.57-12.537-9.713-20.872-14.949-16.611-8.018-30.109-11.161-48.62-10.898-4.087-5.503-8.532-12.551-12.387-18.353 10.052-19.633 17.363-23.13 35.196-33.946m1301.724-.243c15.4 3.134 27.08 21.254 34.66 33.569-4.48 7.02-8.16 10.486-12.34 18.653-18.15.233-30 5.113-46.29 12.403-9.31 4.857-15.05 9.144-22.85 15.942a320.5 320.5 0 0 1 46.82-80.567M498.952 67.274c17.763-1.526 29.947 1.282 41.337 15.733-12.197 6.344-45.582 40.518-45.382 40.455l-2.969-3.249c-12.225-19.536-24.328-29.86-48.206-31.571a175.5 175.5 0 0 1 55.22-21.368"/><path fill="#fefefe" d="m974.607 729.102 22.49.408c.135 13.307 2.238 74.019-.57 80.539-7.399 4.11-40.581 5.776-51.757 7.051a430 430 0 0 1-28.964 3.401c24.422-13.18 46.413-14.795 59.973-39.838.159-16.125-.8-35.278-1.172-51.561m109.103 1.3 15-.063c-1.64 11.106-.38 24.719-.9 34-2.12 38.017 15.56 31.869 41.52 50.426 2.54 1.812 6.73 4.122 8.01 6.896l-2.55.217c-18.82-3.001-48.82-6.227-65.94-10.27q.33-20.337-.12-40.671c-.35-12.354-1.37-26.074-.54-38.263 1.95-2.289 2-1.67 5.52-2.272M438.108 99.237c26.53-.721 37.774 15.16 49.325 36.171-1.469 2.375-2.998 4.885-4.514 7.208-4.567 7.002-5.278 7.721-13.238 6.669-7.822-2.503-18.071-4.188-26.242-4.996-9.132-11.965-17.162-23.591-26.664-35.748 8.521-6.262 11.363-6.966 21.333-9.304m1182.272-.406.81-.236c3.64 1.707 8.45 5.886 11.74 8.513-10.78 12.834-18.05 22.129-27.14 36.385-11.76.805-19.2 1.997-30.55 4.814l-2.17.261c-3.17-2.971-7.11-9.753-9.58-13.65 14.66-26.566 26.19-35.175 56.89-36.087M580.54 76.02l1.05.227c14.989 13.151 18.956 24.06 24.709 42.703-9.794 10.562-15.902 19.596-23.835 31.658l-1.045.402c-1.921-.963-6.808-18.875-7.878-22.207-4.715-14.68-10.809-28.448-17.074-42.482 7.292-3.682 16.398-7.16 24.073-10.3m888.24 1.554c9.07 3.258 15.77 6.076 24.56 10.071-13.99 27.824-15.79 36.227-24.35 65.931-8.06-11.049-17.16-24.187-26.04-34.373 6.32-19.735 11.9-26.714 25.83-41.63M342.909 131.422c3.688-.001 11.917 10.864 16.601 14.946-12.895 15.208-18.771 24.979-28.394 41.876l-9.438-12.762c-6.809-9.502-21.617-24.426-30.565-32.054 18.82-6.425 32.333-9.414 51.796-12.006m1361.871 1.21c12.81-1.496 42.52 8.084 55.23 12.087-8.98 6.876-20.03 17.749-27.79 25.86-4.84 5.776-9.61 11.061-14.69 16.627-9.8-17.186-14.77-24.969-26.94-40.545 4.74-4.978 9.2-9.302 14.19-14.029m-692.32-5.004 14.7 2.933c-1.53 10.282-1.59 29.43-1.29 39.875-4.02 1.075-5.8 1.377-9.31 3.652l.57 1.289c4.37 1.351 18.24 3.479 21.67.5l-.26-2.005c-2.18-1.855-6.55-5.501-6.5-8.199.05-3.169-.86-8.177.9-10.599 4.75 5.234 9.05 4.379 13.78-.898l-.18-1.506c-5.02-1.841-10.34 1.915-14.58.231l-.74-2.458c1.3-5.558 2.58-4.883 7.35-5.036 2.27.887 6.74-.639 7.8.154 11.07 8.312 1.3 31.422-4.63 39.783-23.71 11.756-33.13 3.321-39.08-18.81-1.14-4.243-6.534-4.351-4.24-11.957 6.21-3.522 4.94-7.819 7.61-14.014 1.95-4.524 4.05-8.633 6.43-12.935"/><path d="M1010.18 152.345c3.41-.612 6.66-1.329 9.38 1.386-.9 2.894-.49 1.924-3.56 4.037-3.48 1.188-5.3 1.878-8.5.013.19-3.307.17-2.302 2.68-5.436"/><path fill="#fefefe" d="M335.621 83.306a62 62 0 0 1 5.369-.409c24.898-.744 40.714 7.714 58.067 24.199-2.599 2.376-12.587 11.348-15.434 10.956a401 401 0 0 0-34.275-.031c-10.855-11.517-17.925-18.744-30.92-27.942l-.299-1.775c3.728-3.358 12.387-4.26 17.492-4.998m1366.529 1.148c8.1.813 22.08-1.178 28.52 4.88-.03 2.866-6.06 6.284-8.55 8.615-7.8 7.328-15.34 14.909-22.91 22.472-4.99-.548-10.87-.611-15.95-.792a1549 1549 0 0 0-17.27-1.409c-5.55-4.81-9.92-8.042-15.87-12.327 18.07-12.966 29.57-18.911 52.03-21.439M607.407 133.659c4.477 12.412 2.361 50.093 2.163 64.795-3.612 3.879-13.446 14.771-17.397 17.084-.214-13.298-3.407-32.111-6.447-44.955 5.238-14.496 12.498-24.579 21.681-36.924m-2.014-63.339c21.674-1.444 33.328-.47 51.654 12.383-8.323 3.51-15.449 6.363-23.253 10.892-5.808 4.12-12.936 10.204-18.606 14.795-5.073-15.507-9.84-23.234-19.687-35.883 2.202-1.294 7.106-1.76 9.892-2.187m-298.392 25.3c6.45 2.26 22.488 18.317 28.128 23.821-8.967 3.154-29.635 7.619-39.971 10.277-6.492 2.129-14.873 6.184-20.827 1.914l-.188-2.757c3.458-9.311 23.994-28.751 32.858-33.255M1431.69 70.486c7.54-.356 16.45.925 23.8 2.589-10.32 12.24-16.16 19.998-21.59 35.082l-10.84-8.258c-11.23-8.734-19.51-14.053-33.69-17.108 13.21-7.2 27.22-11.626 42.32-12.305m8.56 65.955c8.45 6.307 15.46 22.174 22.75 30.891-2.46 15.297-4.56 27.562-5.31 43.047-3.74-.264-13.83-12.131-16.96-15.483-2.51-18.732-3.22-39.742-.48-58.455m304.01-39.244c.19.09.39.18.58.27 6.47 5.345 34.08 27.252 29.49 35.302-6.32 2.541-14.46-1.154-21.09-3.255-9.52-3.585-27.18-6.643-37.38-7.892 9.31-11.394 16.3-16.362 28.4-24.425m-728.2 7.094c20.97-1.846 26.71.88 42.45 13.371-.42 4.672-1.06 9.639-1.58 14.331-10.73-14.563-11.13-8.694-27.58-9.164-4.99-.876-9.15-3.498-14.43-3.206-8.79.485-13.68 13.052-19.733 21.087.256-17.8-.527-33.103 20.873-36.419M795.938 1027.19l1.783.08c2.309 1.42 2.544 1.66 3.656 4.13-2.048 6.5-22.889 12.88-29.314 17.86-5.634 4.36-9.462 10.83-14.933 15.53-2.357.13-2.513-.21-4.387-1.5-.918-4.19 2.244-7.36 2.047-11.57-.008-.16-.027-.31-.04-.47-5.832.42-11.067 4.04-16.783 4.11-.919.01-1.797-1.22-2.462-1.85l.052-2.37c7.263-11.61 46.692-20.58 60.381-23.95M1526.67 185.8l1.08 1.63c-7.28 18.445-13.7 37.47-18.02 56.854-.79 3.539-4.2 21.67-5.94 23.221l-.72-2.734-7.19-39.328c11.04-18.824 15.16-24.926 30.79-39.643m112.93-64.821c10.51.09 37.48 19.679 30.68 27.888-3.54.965-6.94-.542-10.65-1.612-16.88-3.842-21.07-4.066-38.67-4.331 6.31-9.29 9.67-14.928 18.64-21.945m-1233.457-4.051c7.426 4.43 17.382 19.659 22.788 27.247-11.246.839-18.248.614-30.168 2.098-6.146.901-14.767 4.432-19.992 1.166l-.187-1.858c3.117-5.69 9.519-11.638 14.186-16.713 9.6-1.393 11.506-2.277 13.373-11.94m115.441 69.706c13.309 6.243 26.498 33.093 32.053 45.792l-4.549 32.354-.731 2.717-1.014-.002c-3.475-9.789-4.059-20.019-6.97-29.077-5.514-17.153-12.428-34.905-18.789-51.784m398.875 268.792c3.49.402 8.165 1.407 11.724 2.071-1.408 20.937 6.689 25.85 5.56 49.788-3.225-7.388-3.919-20.16-9.146-25.438l-1.552.693c-1.52 4.668-1.377 7.177-1.503 12.113.288 7.867 4.116 25.921 2.651 30.408l-1.298-.699c-10.625-19.278-7.703-47.459-6.436-68.936m685.781-162.79c3.59 3.488 5.43 37.415 5.94 44.016-7.33 1.081-12.02 1.229-19.43 1.422-1.47.143-2.34-.249-3.74-.674-1.96-8.62 12.79-36.622 17.23-44.764m-1162.905-.025c3.514 2.734 21.32 39.799 22.184 44.817l-1.492 1.443c-6.193-1.704-16.726-2.486-23.44-3.179.204-13.635.224-29.867 2.748-43.081m683.015 162.148c3.64-.097 7.74-.636 10.81.95 3.41 11.386 6.99 58.307-1.8 66.887l-1.33-.43c-1.63-3.567-.18-7.4.72-11.384.73-4.58.96-9.224.69-13.853-.24-4.567-.25-11.199-3.64-14.235l-1.74.858c-3.95 5.328-4.69 10.819-6.46 17.335-1.69-21.311 7.21-25.333 2.75-46.128m346.17-263.032c4.69 4.426 16.93 53.758 15.03 60.549l-15.57-19.469c-2.36-18.461-2.92-22.962.54-41.08m-895.28.944c2.864 6.655 3.744 28.97 4.039 36.675-3.808 3.825-11.124 13.461-14.804 18.055l-1.207 1.248-1.116-.931c-1.976-9.955 8.112-45.038 13.088-55.047m438.15 5.627c8.39 2.052 15.1.854 23.43-.633.49 3.101 2.57 12.718 2.41 15.054l-2.98.295c-12.42-.13-17.09.054-29.31 2.288 3.03-6.478 4.28-10.238 6.45-17.004m493.02-136.917c2.65-.339 9.48-.355 12.44-.45-13.13 7.359-15.03 13.043-21.48 16.912l-2.12-.796c-5.08-3.007-11.07-5.611-16.46-8.124 11.48-5.1 15.26-6.25 27.62-7.542m-979.559-2.017c7.784-.62 34.037 2.604 38.126 9.171l-3.221 1.881c-4.926 1.913-8.469 3.85-13.086 6.318-6.804-8.896-11.392-13.33-21.819-17.37M1740.34 237.345c7.71 1.777 12.78 6.715 18.6 11.828-2.38 3.592-4.56 7.652-6.68 11.435l-1.84 2.845-1.3-.123c-2.42-4.934-6.66-19.699-8.78-25.985M450.784 156.548c7.127.632 14.362 2.584 21.351 4.236-2.208 3.87-3.872 7.45-5.768 11.482-.808 2.434-.884 3.288-2.565 5.128-4.293-1.015-10.756-16.434-13.018-20.846m-143.866 83.529.635 1.364c-1.465 5.665-4.577 19.554-7.371 23.843l-1.286-.043-1.49-2.729-7.52-11.581c4.296-2.139 12.682-7.974 17.032-10.854m1287.632-84.728 1.99-.23.72 1.203c-2.16 5.723-6.54 12.666-9.83 17.903l-1.7.213c-2.35-4.933-5.54-10.586-8.13-15.485 7.02-2.076 9.63-2.693 16.95-3.604"/><path fill="#fefefe" d="M1044.17 130.139c2.92 1.757 3.93 6.387 4.54 9.565-2.69 2.853-5.95-.788-10.96 1.129-1.42.973-2.31 1.225-3.89 1.821l-1.76-1.088c-1.06-2.909-1-6.112.17-8.981.9-2.268 6.67-.029 11.9-2.446m-682.231-.768c3.25-.222 8.484-1.024 11.126.37-.629 3.18-1.791 3.433-4.422 6.112-.242.281-1.623 1.211-2.019 1.491-2.956-1.416-5.524-4.691-4.685-7.973"/><path d="M303.467 406.3c3.697 1.324 3.671 5.062 3.548 8.493-.374 10.438-.557 20.874-.698 31.314a398 398 0 0 1 3.689-7.859c2.114-4.276 9.595-16.371 15.356-13.342.642 2.516-14.626 39.592-16.051 44.838-.182.67-2.421.316-3.171.286-2.539-2.746-1.963-3.771-2.762-8.132l-3.354-2.394c-5.126 1.684-1.846 3.406-6.858 5.174-5.801-3.672-11.305-28.368-16.252-35.907-1.323-2.017-2.556-6.875-1.556-9.369l1.951.144c7.498 5.643 10.478 10.51 15.587 18.149 2.917-12.742 3.741-20.069 10.571-31.395m-81.532 132.997c7.124 4.607 4.225 21.899 3.738 30.1 3.243-6.19 11.201-23.108 18.425-24.34l1.548 1.132c-.009 3.136-1.815 6.096-3.403 8.798-7.188 12.229-7.63 27.552-12.434 40.086-3.023 2.067-1.781 1.766-4.947 1.884-2.415-2.422-2.656-6.289-3.374-9.867-1.397 1.467-2.459 7.409-3.008 9.77l-.582 2.149c-2.359 2.4-1.193 1.856-4.33 2.211-2.698-2.344-4.422-9.527-4.486-12.224-.262-11.071-17.314-32.633-15.155-41.692l1.921.244c9.96 7.221 14.699 15.106 19.788 25.837.506-12.639 2.198-22.225 6.299-34.088M1778.33 424.558c2.93 3.454 1.26 27.649 1.04 33.937 6.89-9.65 9.68-12.487 19.57-18.249-3.13 10.594-9.38 19.022-14.2 28.903-3.27 6.709-6.02 13.879-8.74 20.835-2.54 1.913-1.35 1.386-4.93 1.642-3.01-1.246-3.82-2.576-5.86-5.024.38-20.432-9.36-37.41-13.72-56.581-.32-1.423-.25-.938.66-2.231 7.06 1.452 15.79 24.201 18.02 30.935 1.14-10.822 1.8-25.374 8.16-34.167M1893 551.508l1.89.816c.84 2.435-2.72 26.955-3.16 32.347 3.86-3.559 10.85-12.096 15.62-8.664.38 2.416-13.64 32.007-18.61 31.461-2.89-2.604-3.2-3.287-4.61-6.836l-.36-.928c.66 4.466-.77-.179-1.59 7.325-9.62.251-9.65-4.506-9.82-12.546-.33-15.403-8.42-27.307-11.62-42.18 10.24 8.177 12.47 13.202 17 25.221 3.43-10.719 7.24-17.97 15.26-26.016m-188.83-11.277 2.58 1.404c3.82 5.544 2.28 27.567 2.14 35.582 6.85-9.85 9.14-11.564 19.7-16.777-1.04 2.745-20.49 43.393-21.12 44.212-4.65-.156-7.22.513-11.73-.888-1.91-3.357-10.24-39.543-10.84-43.887 6.31 5.101 9.44 10.451 13.92 17.112.59-13.229.99-24.301 5.35-36.758m206.81-125.398c12.1.603 9.2 9.061 16.78 16.931.72-3.248 1.08-6.502 3.39-8.854 2.72-.14 1.65-.4 4.2 1.839.59 3.326 2.09 7.607 2.92 11.652 2.79-1.81 7.41-16.647 12.69-20.955l1.36.508c.69 4.347-2.52 13.568-3.91 18.281-2.93 10.329-5.03 29.355-7.34 41.128-10.18-10.408-13.63-11.693-18.5-26.723-3.57-11.02-7.68-22.851-11.59-33.807M347.368 572.578c1.756.512 1.237.38 2.794 1.51.626 3.885-6.136 43.313-8.046 48.123l-1.875.554c-2.466-1.217-3.51-5.194-5.749-8.308l-2.493 1.51-2.869-1.146c-3.465-3.662-3.501-8.452-4.406-13.66-1.534-7.424-7.078-18.905-6.13-25.547l1.39-.446c5.231 4.007 11.257 13.398 14.929 19.036 3.412-9.112 5.336-14.712 12.455-21.626m52.688-174.294a195 195 0 0 1 4.455-.222c3.686-.132 7.269-.415 10.078 2.203.372 3.062.284 2.058-1.889 5.362-3.941.081-9.448.317-12.715-1.773-1.418-3.086-1.291-1.659.071-5.57m-211.172 48.775c5.46-.095 11.855-1.585 14.759 3.351l-1.102 3.811c-3.973.008-10.472.607-13.46-1.48-1.423-2.995-1.159-1.661-.197-5.682m1487.266 47.904c4.32 1.043 6.58.96 7.75 5.503-2.02 2.553-1.73 1.848-5.42 2.652-3.81.115-7.86.781-9.13-3.388 2.34-3.589 2.25-2.711 6.8-4.767"/></svg>