<svg xmlns="http://www.w3.org/2000/svg" preserveAspectRatio="none" style="display:block" viewBox="0 0 2048 1462"><path fill="#fefefe" d="M0 0h2048v1462H0z"/><path d="M244.285 169.86c-18.135-57.081 57.91-33.486 76.582-.807-.064 4.973-.079 9.639-.506 14.602l1.119.926c4.323-2.662 2.769-3.409 5.064-7.219 9.712-14.556 28.167-24.303 44.162-30.811 7.173-2.918 16.645-4.258 24.202-1.526 8.456 3.056 9.797 21.489 8.387 28.888-2.876 15.089-2.683 30.125-4.961 45.584 2.731-3.32 6.219-7.944 7.762-12.031 9.734-25.776 44.479-26.92 49.429 3.217 4.92-5.187 14.711-14.613 22.605-15.361 2.16-.205 4.995 1.585 5.93 3.185 6.563 11.238 4.712 24.939 3.325 37.091.05-.436 9.886 4.182 13.585 7.306-1.259 13.306-6.336 8.147-7.49 13.661 29.239 11.099 26.046 27.806 42.032 49.262 2.114 2.836 7.925 7.454 11.271 8.883l1.093-.946c-1.688-14.548-27.959-35.461-3.622-48.495 3.61-1.933-6.935-27.178 16.356-28.158 16.195-.682 21.192 6.902 33.688 16.402 2.889 2.062 15.2-2.968 14.615 10.986.159 2.719.434 7.6.575 10.924 2.965-1.54 4.032-5.453 6.172-8.715 11.988-18.266 33.2-31.081 55.378-28.272 5.842.74 11.297 13.098 8.927 18.2-1.999 5.401 6.118 14.307 6.37 19.493.976 7.97-12.439 34.829-10.54 39.35 5.983-8.049 4.51-10.589 14.016-18.701 7.809-1.44 15.308-3.305 22.194 1.754 3.968 2.915 6.666 5.305 6.383 10.344 4.552.844 13.911-11.297 22.685-.125 8.429 10.732-.398 19.227 1.856 27.349 3.994 1.611 7.409.828 10.449 3.613 2.862 6.858 2.848 10.25-2.895 14.938l.387 1.266c6.419 2.609 12.233 4.347 17.251 9.358 11.922 11.906 15.348 26.699 18.075 42.596-2.786 7.285-5.372 10.916-9.766 17.375 15.475 13.897 18.351 28.499 19.652 48.672 1.521 23.563-19.985 13.89-31.907 9.747 11.303 38.337-7.083 22.805-14.356 26.833-2.315 8.672 6.749 26.159-8.242 34.538-5.907 3.301-12.662 4.29-19.317 4.457l-3.132-1.87c-3.157.857-7.646 8.818-11.398 10.73-4.372 2.227-9.666 3.301-14.384 4.38-12.026-6.32-14.016-10.809-21.897-22.12l-20.974 63.283c-3.067 9.233-8.204 22.663-10.557 31.732-2.108 8.12-10.677 50.134-8.173 55.551 3.272.57 1.781.767 4.664-.241 3.83-7.765.802-33.947 11.557-34.215 39.606-.987 29.511 3.611 35.712-36.582 11.472-1.481 30.257-1.066 42.343-1.141 5.911-42.068 5.234-32.552 44.367-32.965.875-6.408 4.339-40.82 8.021-43.867 7.924-1.78 16.332-1.234 24.415-1.332 25.688-.313 51.767.803 77.416-.225-13.721-16.89-18.411-24.132-2.692-43.115-3.136-10.182-1.4-22.495 2.92-32.249 8.754-19.763 44.811-23.746 61.92-14.553a26.93 26.93 0 0 1 13.008 16.313c.738 2.531 2.164 12.921 4.238 14.112 5.824 3.346 123.836 1.997 137.286 1.147 3.15-12.639 4.51-24.281 16.38-31.635 10.29-6.371 29.3-6.593 40.49-3.683a37.67 37.67 0 0 1 23.24 17.749c6.58 11.265 7.02 22.327 4.23 34.698 8.23 6.516 8.99 9.282 11.18 19.622-4.14 11.643-3.73 13.577-12.6 22.298 5.17 4.378 97.62-1.193 108.22 2.601 6.84 2.448.11 35.325 5.25 41.345 7.88 1.936 27.56.138 37.01 1 .06 11.266.44 22.528 1.14 33.772 40.88.45 42.23-8.085 40.82 35.318 12.71-.166 25.56-.52 38.26-.31 9.59.159 12.85 1.894 12.87 11.324 0 4.214-.08 8.427-.23 12.637 4.61-.382 9.22-.802 13.82-1.26 2.9-40.676-19.41-91.522-32.27-131.598-5.27 3.934-12.42 9.472-18.01 12.587-13.04.056-17.51.854-27.25-8.597-15.23 16.863-31.82-3.191-30.33-19.443.33-3.631 1.99-14.287.79-16.21-26.18-.689-22.21-.055-17.51-24.271-3.22-2.315-10.66.862-13.89.059-43.6-10.844-8.34-49.343.02-67.365-22.09-20.559-1.83-53.389 19.04-66.134 3.67.122 18.79 3.445 20.85 1.113l-1.54.284-.97-1.601-.05 1.596-.95-1.873c-2.38-.68-9.93-.913-12.53-.933-12.42-4.746-8.86-20.927 7.68-17.948.73-3.278-2.93-15.374-3.5-21.057 11.19-26.236 24.04 5.87 24.26-9.639 3.47-4.97 8.82-8.788 14.85-9.86 5.14-.95 10.43.314 14.59 3.479 5.49 4.115 9.38 13.025 11.49 13.164 1.58-18.509-15.84-31.034-5.32-45.788 1.24-1.751 5.72.833 5.26-2.684-1.6-12.019-2.17-27.328 14.97-26.612 13.91.581 29.16 8.994 39.24 18.464 4.29 3.965 6.96 16.468 9 16.469 7.06-14.877 8.48-22.108 25.67-27.152 37.46-10.996 42.6-1.052 41.01 33.22 9.95-7.727 17.77-19.251 30.39-20.528 6.17-.624 13.21.337 19.38-1.158.08-2.511.33-1.244-1.51-3.707-7.06-.323-19.67.019-21.51-8.596 2.12-9.672 8.64-9.89 16.65-10.418-3.21-8.148-7.35-20.832-3.58-29.229 4.42-9.871 10.51-15.337 21.1-9.632 4.63 2.49 10.98 8.943 15.17 10.264 5.55-26.691 31.95-19.871 40.84-.33 2.1 4.618 4.6 10.041 8.14 13.686 1.38-22.839-3.73-43.392-1.13-65.845 1.25-10.806 9.65-13.349 19.09-11.824 18.02 2.338 35.1 11.974 47.17 25.486 2.59 2.969 6.51 15.635 9.74 21.134.43-3.398.73-7.073 1.37-10.413 2.09-10.893.81-21.571 15.14-15.983 2.07-.97 7.66-7.977 9.96-10.278 13.54-13.592 45.94-26.369 57.37-3.632 3.5 6.957-5.81 20.436-2.63 26.468 3.83.977 6.53.936 8.43 4.854 8.25 17.042-4.13 33.092-15.28 43.555 1.01 3.781 1.89 6.929 2.53 10.824 10.26-10.339 12.73-11.87 26.93-14.871 16.01 4.982 22.11 11.867 35.12 21.768 10.66 8.12 18.24 11.122 25.42 23.071-1.7 4.313-2.13 5.871-4.77 9.641-3.33 4.747-11.05 6.133-11.73 8.98 17.67 14.056 32.39 28.308 41.71 49.354 3.13 7.071 9.02 14.784 5.49 22.688-6.3 6.866-14.87 2.475-22.4.545 21.52 19.829 34.71 36.87 35.19 67.541.57 36.605-11.83 19.655-29.75 20.18l-.6.878c10.86 11.741-4.49 11.274 6.67 19.618 1.76 4.993-.26 5.605-3.79 9.101.24 5.823 3.68 9.121 4.09 14.908 1.78 25.228-12.56 24.084-29.24 12.36.3 7.409.45 11.927-.12 19.413-2.31 3.228-3.82 5.529-6.64 8.373 3.42 6.863 4.73 9.855 5.52 17.443 1.68 16.036-9.17 27.59-25.58 20.796a190 190 0 0 1-7.54-3.395c-8.03 9.719-15.24 12.782-28.13 14.548-10.83 1.482-31.87-3.088-40.48-9.988-3.26-2.612-8.21-11.378-12.62-15.394-25.07 48.128-34.89 100.361-31.99 154.319.49 9.083.5 18.295 2.11 27.226.85 4.731 15.88 4.245 16.65 2.756 2.31-4.453 1.25-14.409 6.1-18.567 5.63-4.568 12.67-3.386 19.07-5.914 4.53-1.792 2.64-5.777 6.79-9.206 4.18-3.463 13.21-2.499 16.02-5.64l.09-1.325c.14-1.857.23-5.831 1.65-7.071 7.76-6.773 24.25-13.936 33.58-7.006 4.83 6.951.44 8.258 5.93 10.256l6.39-1.121c10.8-1.86 15.33 4.328 20.5 12.487l9.77-5.052c-3.92-3.034-10.74-1.75-10.63-10.775 3.89-5.804 13.56-3.928 20-3.595-3.48-3.243-7.35-6.185-7.62-11.297-.1-1.791.42-3.221 1.56-4.632 3.5-4.312 14.89-7.118 20.3-7.234 4.15-.089 7.04.808 10.19 3.432.98.817 2.61 2.649 3.88 2.518 1.23-.128.8-.074 2.07-.811l1.07 1.251c9.38-7.865-7.41-43.045 12.86-41.663 2.39.163 6.25 2.645 7.4 4.816 2.77 5.828 4.87 25.528 4.37 32.018-1.53 20.137-2.21 38.907-4.43 59.018-1.84 16.563-1.49 37.271-1.5 54.212l.16 154.467c.58 58.692 2.37 120.765-2.47 178.115-5.51 65.37-26.21 134.01-88.57 164.44-40.93 19.97-74.74 28.47-119.52 34.62-69.86 14.3-137.46 17.16-208.47 20-22.26.89-45.16-2.4-67.08-2.03l-144.71 3.05c-17.1.39-34.85 1.96-51.97 1.97-6.9 0-15.11-2.26-22.14-2.48-6.93-.77-17.77 1.9-24.27.96-38.59-5.54-77.29-1.59-115.97-2.31-30.6-.57-61.82-2.95-92.519-2-19.523.59-37.268 3.96-57.245 1.83-8.313-.89-20.31 1.68-29.11.7-30.108-2.46-59.914 1.35-89.973 2.6-6.246.27-8.024 2.21-13.953-1.15-20.133 4.1-39.449.8-60.125-.04-21.896-1.02-44.327 2.86-65.819-1.85.216.05-11.93 1.18-13.589 1.16-29.807-.35-59.9-3.2-89.661-2.06-13.088.5-25.297 1.46-38.429 1.28a1399 1399 0 0 1-223.389-20.4c-29.584-5.08-60.599-9.4-88.608-20.63-15.229-6.1-29.896-16.01-43.555-25.03-36.423-24.04-52.081-65.25-60.28-106.27-5.234-26.18-7.738-53.36-8.762-80.04-1.677-43.74-.618-87.633-.204-131.367l.379-161.643c-.076-40.833-3.28-81.243-4.277-122.1-.178-7.313.087-42.548 15.793-34.595 9.279 4.698 9.591 41.607 13.847 44.944 2.908-.833 2.033-.9 3.962-2.722 4.256-4.02 15.571-6.029 21.45-5.811 15.638.579 27.892 11.902 10.859 23.535 7.482.486 14.201.172 20.086 5.134 2.574 7.13-8.54 9.41-8.965 14.703 3.238 1.758 5.221 1.487 8.914 1.608 8.84-10.885 17.46-25.916 33.352-15.105 2.642-6.796 4.574-10.751 11.796-13.403 14.53-5.335 23.753 7.596 29.345 17.546 16.455.051 17.719 2.544 26.255 16.225-.236-.378 22.298 9.698 24.363 10.674 2.272-3.096 1.067-4.791.896-8.184-2.408-47.965 3.936-103.912-24.03-146.053-3.026-4.56-10.816-16.269-15.395-18.415-10.209 15.391-12.444 21.994-32.184 26.196-7.886 1.679-17.264 1.847-24.261-2.863a312 312 0 0 0-3.527-5.816c-19.271-1.243-30.772 6.982-48.219-11.73-8.978-9.63-.689-17.566 6.519-23.664q1.311-1.107 2.637-2.197c-.82-3.538-7.835-5.308-9.439-11.944-1.319-5.455 3.348-10.466 1.707-14.043-11.497.275-29.048 10.623-31.378-8.903-.43-3.606 4.228-11.73 6.485-15.147-4.005-5.662-9.021-8.038-7.642-17.144.844-5.579 8.25-15.455 8.302-18.341-9.893-.432-20.982 5.532-27.856-1.673-4.069-4.264-2.873-23.878-2.001-29.679 3.454-22.989 18.305-41.008 34.944-55.896-7.263 1.505-15.334 4.216-21.958 1.098-5.588-7.907 3.904-22.58 7.722-30.556 9.276-19.375 22.309-31.593 40.641-42.229-7.122-2.706-10.053-3.704-16.339-7.778-1.099-3.727-2.197-7.246-2.996-11.058 4.012-7.278 7.437-11.053 14.473-15.657 30.494-19.95 39.828-42.899 76.227-17.442 2.093-2.776 1.578-1.239 1.488-4.804-4.366-10.029-30.084-20.353-20.096-45.892 1.836-4.692 5.575-8.496 9.277-11.919"/><path fill="#fefefe" d="M968.227 763.942c6.657-.756 13.577-.281 20.272-.173 6.166 15.433 13.461 30.276 19.741 45.606 5.43 13.238 6.21 28.693 16.65 39.688 2.4 2.533 4.37 3.383 7.81 3.462 1.98-.703 3.15-1.339 4.38-3.09 6.98-9.891 11.07-24.31 15.92-35.436 4.5-10.33 9.75-20.275 14.16-30.65 2.04-4.804 3.85-12.27 6.9-16.345 1.22-1.631 2.26-1.506 4.15-1.877 2.83 1.303 3.15 2.18 3.5 5.285 1.76 15.483-1.82 37.275-2.15 53.755q-2.28 121.103-2.31 242.233c-.03 6.03-1.84 34.8-.78 38.19.26.81.84 1.48 1.25 2.22 2.7.73 4.48 1.35 6.67 3.12 2.79 4.97 1.33 10.41.52 15.77-8.45 2.81-20.2 3.78-26.72 10.27-2.63 2.61-4.37 6.64-4.26 10.37.06 2.41 1.26 4.38 3.05 5.92 8.18 7.01 35.78 4.92 46.22 3.63 3.29-.41 8.16-1.23 10.65-3.48 9.02-8.14 1.47-36.53 7.34-44.12 2.37-.34 4.29-.79 6.51-1.73 4.97-5.78 13.5-124.884 15.14-142.298 5.37 34.638 9.5 69.478 14.43 104.188 1.49 10.52 1.54 24.91 5.47 34.63 1.9 4.69 5.43 5.12 8.62 8.41 2.77 2.86 1.66 10.47 1.55 14.32-7.89 1.42-17.48 3.29-24.26 7.73-3.26 2.13-5.97 4.89-6.57 8.89-.47 3.15.57 6.26 2.49 8.74 2.78 3.58 7.01 3.98 11.23 4.39 9.99.98 40.76 1.94 48.15-4.85 6.06-5.57 1.64-32.12 1.56-40.45 2.41-2.82 5.22-1.28 8.12-3.99 2.98-10.17.82-49.17.91-61.76l-.11-156.125c-.15-27.129.85-54.229-.64-81.332 7.47-.092 16.29-1.291 23.53.46 1.76 9.942-6.63 22.333-3.02 32.219 5.44 3.933 5.31 10.779 10.68 14.896 1.66 1.279 3.67 2.074 5.79 1.739 3.2-.505 5.55-3.056 7.37-5.541 9.07-12.373 6.41-27.859 4.31-41.924 18.63-1.173 37.95-.151 56.66-.036 31.48.157 62.97.152 94.46-.014l230.87-2.649c29.12-.06 265.93 2.074 274.26 8.917 1.05 12.114-1.6 102.117-4.31 109.579-7.33-3.89-12.29-12.024-19.32-16.624-15.82-10.363-32.88-18.414-48.93-28.313-10.16-6.268-20.27-14.227-29.43-21.903-12.38-10.365-22.16-24.264-34.14-35.217-3.48-3.181-7.47-6.469-12.47-6.108-2.97.215-6.02 1.485-7.87 3.906-1.2 1.58-1.63 3.36-1.36 5.313.26 1.854 1.21 3.19 2.36 4.61 6.91 8.519 15.4 15.907 22.91 23.914 7.02 7.486 13.03 17.129 21.4 23.113 1.26.902.72.253 1.41 1.897-9.14-.092-19.16-3.223-28.22-4.91a340 340 0 0 0-38.57-4.953 622 622 0 0 0-40.23-1.84c-17.67-.226-34.75 1.532-52.06-3.417-18.32-5.238-62.07-28.659-78.78-24.494-2.45.611-4.01 2.124-5.02 4.391-1.06 2.365-1.62 5.697-.44 8.113.79 1.611 2.01 3.054 3.58 3.932 7.27 4.06 18.59 5.479 26.63 8.49 13.61 5.103 26.74 12.687 40.71 16.748 8.29 2.411 17.27 4.506 25.69 6.483 2.98.703 5.75.613 8.67 1.838l-.78 1.242c-12.67 5.014-20.57 11.674-34.89 15.25-29.11 7.269-60.95 3.966-90.57 3.088-10.82-.32-22.09 1.593-32.18-3.255-15.13-7.263-60.93-38.061-73.69-39.226-1.93.554-3.18 1.031-4.63 2.479-1.81 1.805-3.34 4.358-3.2 7.004.59 11.673 30.36 20.456 38.48 28.234-4.81 1.143-10.66-1.243-15.79-1.194-16.41.158-65.31 3.453-78.85 9.656-.38.177-.76.376-1.14.559-3.06 1.468-4.84 2.408-6.77 5.246-.73 2.823-1.12 5.484.52 8.096 1.35 2.149 3.95 3.767 6.45 4.164 8.07 1.284 20.88-3.108 29.18-4.363 13.76-2.082 28.91-4.257 42.84-4.194 12.5.057 25.5 2.945 38.02 3.957 39.83 3.219 113.57 8.162 151.73.851 9.85-1.889 20.34-5.748 29.29-10.233 13.5-6.764 21.77-18.218 33.94-26.216 10.09-6.634 75.47 2.272 89.33 5.119 41.6 8.55 74.89 15.27 106.33 45.991 5.68 5.552 11.9 11.212 16.22 17.922 8.05 12.499 4.76 24.381 4.21 38.257-.17 4.518.64 8.928-.28 13.388-5.96.14-14.26-10.65-18.92-14.312-3.3-2.595-7.19-4.716-10.84-6.774-19.19-10.814-39.98-15.192-61.28-19.654-4.25-5.373-6.47-12.405-10.05-18.301-8.64-14.26-36.74-38.803-52.57-42.128-3.22-.678-6.2-.055-8.92 1.806-2 1.367-3.82 3.594-4.21 6.042-.48 3.02 1.11 5.89 3.35 7.838 3.41 2.961 9.12 4.633 13.05 7.264 13.6 9.109 24.05 20.501 33.65 33.645l-.54 1.616-4.04-1.271c-.82.405-1.62.908-2.57.898-12.18-.128-27.8-3.535-40.36-5.017l-66.65-7.865c-3.35-.368-6.72.082-10.01-.296-9.31-1.069-18.7-5.809-28.02-2.313-1.47.552-2.63 2.277-3.21 3.717-1.1 2.746-1.26 5.976.2 8.629 1.13 2.036 3.16 3.684 5.33 4.49 5.49 2.042 12.36 2.696 18.19 3.735 27.43 4.894 63.33 5.11 88.93 12.979l1.1.345c-14.9 6.971-29.88 13.987-45.69 18.697-7.73 2.3-19.26 1.93-25.78 6.61-2.45 1.75-4.04 4.01-4.56 6.96-.5 2.82 1.66 6.09 3.31 8.22 1.53 1.99 2.68 2.64 5.15 2.88 6.08.6 13.18-1.65 19.08-3.12 27.94-6.95 58.2-18.39 80.79-36.723 22.65 4.27 54.53 9.25 74.42 19.753 9.95 5.25 19.16 12.83 27.44 20.41 2.5 2.29 9.73 7.66 9.87 10.79-8.01 4.75-55.06.94-65.45-1.24-8.85-1.85-17.29-6.09-26.14-7.44-3.54-.54-6.52-.48-9.8 1.04-2.73 3.55-3.7 7.8-3.19 12.22.76 1.53 1.42 2.75 2.9 3.68 2.95 1.85 7.01 2.06 10.3 3.12 4.44 1.43 8.47 3.63 13.07 4.91 24.38 6.81 64.47 12.06 89.25 5.17 1.48-.41 1.82-.59 3.39-.44 2.43 19.66-.03 48.87-3.58 68.42-1.79 1.33-2.56 1.11-4.63.25-9.01-3.75-17.73-9.97-26.55-14.36-14.53-7.24-29.89-13.25-44.9-19.42-23.78-9.78-48.54-17.57-72.83-26.01-13.96-4.85-27.72-10.79-41.93-14.87-14.4-4.15-46.56-8.8-57.69-13.92-18.41-8.47-36.19-28.89-54.03-40.35-18.85-12.114-39.44-28.739-62.5-30.924-3.51-.334-7.54.031-10.25 2.541-1.87 1.734-3.74 4.613-3.75 7.246-.01.875.16 1.786.42 2.619 2.39 7.596 13.18 6.981 19.5 9.033 22.26 7.238 50.98 29.825 68.25 46.155-17.88-6.72-49.36-9.58-68.63-12.45-19.24-2.86-38.7-6.81-58.1-8.3-9.15-.71-37.31-1.33-44.71 1.25-3.06 1.06-4.17 2.43-5.54 5.21-.03 2.17.13 3.99 1.01 6 4.51 10.24 39.03 6.32 49.3 6.6 7.2.19 14.36 3.75 21.52 4.91 26.65 4.33 53.36 8.07 79.47 15.32 18.78 5.21 37.01 13.14 55.74 18.7 12.65 3.75 26.08 6.25 38.91 9.56 20.55 5.3 41.83 12.22 61.38 20.47-13.26 12.41-27.85 17.37-45.43 17.1-4.79.45-21.64 4.82-25.77 3.36-26.44-9.34-50.57-20.32-77.82-28.45-7.57-2.39-34.82-13.29-40.39-5.13-12.24 17.97 24.35 20 32.72 24.18 7.13 3.56 46.07 11.26 46.77 18-5.14 4.81-52.88-1.55-63.36 1.06-12.12 3.01-8.61 17-2.34 18.06 22.33 3.76 47.44 2.91 70.06 1.77 8.5-.43 14.99-3.9 23.32-4.9 19.83-3.33 47.01-3.98 65.58-8.84 13.38-3.5 36.75-16.28 50.63-22.51 32.46 13.99 66.74 20.8 97.1 41.17 5.86 3.93 12.64 6.98 17.89 11.8-.74 6.58-12.01 33.27-15.27 31.94-7.22-2.95-51.51-13.61-63.37-13.89-12.72-.29-22.68-1.55-35.23-.66-15.5 1.11-28.16 2.51-43.3 3.68-17.16.87-31.08 1.04-47.95 4.37-5.36 1.09-43.97 2.71-46.36 6.03-14.29 19.84 12.65 17.52 21.66 16.23 28.11-4 52.8-6.3 80.76-6.5 8.01-.06 19.27-2.04 26.25-1.21-1.95 4.82-16.88 25.49-21.77 28.15-9.41 5.13-29.77 5.33-34.98 15.69-.57 5.76 3.06 9.42 8.25 11.49 20.62-4.08 41.29-6.69 55.25-24 13.55-16.82 21.78-32.91 46.27-26.57 12.14 3.14 21.52 3.78 30.78 13.56l.86.92c-50.68 51.21-116.41 45.49-179.52 60.7l-.98.25c-4.77-5.91-10.39-10.32-15.69-14.99-35.79-31.5-76.26-56.64-121.64-71.04-5.07-4.97-9.87-22.87-13.21-27.79-26.14-38.58-60.23-60.96-102.7-77.44-5.63-2.18-27.86-34.77-38.3-41.56-13.86-9.37-29.33-21.27-44.11-29.13-12.37-6.59-36.62-35.088-46.54-18.93-3.93 20.38 94.52 65.01 87.56 78.09-4.92.4-16.08-5.66-21.95-6.72-32.4-5.85-59.98-14.91-90.93-25.76-15.97 7.74-11.62 17.13 2.8 22.8 36.51 14.35 75.27 18.6 111.62 33.42 19.02 7.71 40.67 13.29 59.07 22.27 23.26 11.34 43.13 32.48 57.69 53.49 1.77 2.56 2.01 3.61 1.46 6.45-6.21-1.81-11.88-3.79-18.78-4.84-12.26-3.71-54.66 2.22-63.18-2.36-26.75-14.4-52.31-44.22-85.21-50.88-13-2.64-18.15 8.87-8.25 16.32 5.71 4.31 13.34 6.78 19.6 10.27 7.67 5.6 38.87 19.71 35.7 30.01-3.09.75-28.41-1.08-34.37-1.05-19.19.1-38.73-2.47-58.21-2.38-12.34.06-10.02 2.3-21.77 2.73-12.59.74-27.92-1.66-39.8 2.42-5.65 1.95-5.17 11.31-2.15 15.68 5.88 4.46 43.8.78 53.45 1.31 4.45-.24 8.3-2.83 12.73-2.46 44.96 3.74 91.85 7.63 136.92 7.27 30.69-.24 49.72-10.07 80.48 7.25 4.39 7.19 41.26 71.95 30.57 78.62-6.82 1.22-43.56 2.92-47.44.45-34.12-21.66-68.1-64.09-111.05-65.38-4.57.43-6.74 14.68-4.16 15.71 13.19 5.3 66.73 35.27 72.6 47.36l-.9 1.39c-8.5 2.3-18.62.17-27.07 1.34-27.35 4.83-56.54 1.42-83.97 2.94-76.21 4.21-151.46.31-227.68-1.34-1.67-.52-1.18-.49-2.81-.28-19.4 2.56-39.37 1.52-58.91 1.17-8-.15-13.22 2.24-21.71-1.16-1.94-.77-4.02 3.98-6.2 3.25-1.68-.57-4.41-2.12-6.19-2.77-14.38.03-34.089 2.78-48.21 1.43-20.858-1.99-38.141-.92-58.767-.59l-96.35 1.45c-9.754.23-20.877 2.11-30.183 1.96-23.585-.36-47.384-2.1-70.836-3.2-15.078-.71-33.419 1.56-49.544 1.02l-52.271-1.32c-11.326-.36-22.326-1.41-33.664-1.07 18.267-18.18 42.138-35.75 66.124-45.57 11.436-4.68 10.87-19.6.161-21.94-2.304.81-4.68 1.41-7.096 1.77-11.051 1.72-50.42 26.29-60.087 34.24-8.632 7.1-25.19 24.03-35.463 30.44-4.065-.53-48.078.53-48.662-1.42-4.419-14.75 28.356-72.92 33.683-80.75 28.703-8.5 55.07-5.27 83.959-3.91 16.9.79 37.667-1.21 55.119-1.62 26.593-1.77 52.97-3.84 79.597-5.17 11.734-.59 59.686 7.61 65.205-.48a10.02 10.02 0 0 0 1.573-7.55c-2.799-14.96-18.369-6.84-26.123-10-17.533-7.17-136.95 4.74-143.048.83l.479-1.84c1.069-.43 2.143-.92 3.235-1.29 4.064-1.38 33.221-22.67 38.875-26.78 7.485-5.44 17.913-4.03 26.049-8.46 2.109-1.15 4.268-3 4.84-5.45.729-3.11-.885-6.71-2.487-9.29-17.938-13.38-62.197 21.07-76.476 31.37-6.027 4.34-26.939 15.65-33.367 17.85-6.715 2.29-31.726.54-40.784 1.08-9.946.58-20.676 1.81-30.526 2.33a335 335 0 0 0 4.564-7.81c12.85-22.23 45.911-48.4 70.228-56.88 20.875-7.27 43.095-16.47 64.013-23.75 23.828-8.29 53.847-8.28 77.237-19.65 8.898-4.32 39.716-14.31 22.773-28.25-11.734-4.21-31.066 10.77-40.634 13.02-32.637 7.69-58.414 10.24-89.275 23.77 2.926-3.87 11.093-14.82 14.565-17.13 26.03-17.36 54.245-32.23 77.143-53.86 8.465-7.99 2.967-17.75-7.178-15.98-8.73 2.51-15.147 9.98-22.473 15.18-15.455 10.98-31.18 20.14-47.294 30.08-8.62 6.27-25.688 20.24-31.458 28.98-15.137 22.94-16.81 21-41.345 31.31-24.629 10.36-51.04 33.75-67.429 54.83-8.922 11.48-15.019 25.53-23.257 37.91-52.381 17.87-97.812 45.32-134.107 87.41a96 96 0 0 1-5.079-.65c-7.561-1.22-15.841-3.1-23.457-4.5-46.171-8.48-118.985-16.58-148.769-57.55a75 75 0 0 1 3.57-3.9c9.685-9.67 39.958-9.78 53.547-9.67 10.535 21.63 33.45 44.84 58.17 47.17 6.619.62 26.494 4.37 26.086-7.59-.465-13.62-20.935-11.47-29.794-13.98-9.488-1.75-28.994-22.97-29.251-30.18 3.081-1.5 10.571-.16 15.086.04 13.334.48 26.657 1.22 39.963 2.2 14.617 1.13 61.175 7.53 72.562 2.98 6.613-5.86 4.415-17.49-2.462-17.58-62.466-.84-173.867-26.37-229.135 6.95-6.876-10.84-13.616-27.76-14.882-40.5 30.588-22.78 76.515-34.75 113.279-46.36 13.176 6.28 25.916 15.22 39.836 19.58 23.595 7.38 148.375 23.55 165.745 13.27 2.088-1.24 3.316-3.1 3.734-5.49.537-3.07-.66-6.21-2.608-8.57-6.416-7.76-18.564-1.48-26.947-2.83-10.508-1.69-21.714-.48-32.299-2 11.765-15.77 71.498-20.02 77.189-29.77 1.304-2.24 1.519-5.51.842-7.98a7.1 7.1 0 0 0-3.454-4.33c-14.784-8.08-94.084 22.8-111.251 33.2-1.757 1.06-10.542.19-12.926.11-17.824-.55-35.754-1.54-51.504-10.9-2.779-1.61-8.469-2.53-12.881-5.31 14.26-10.94 116.053-38.15 139.539-44 10.281-2.56 28.163-9.03 38.66-11.72 18.64-4.65 37.425-8.7 56.324-12.15 14.204-2.5 28.21-4.75 42.48-6.86 9.452-1.39 30.202 2.8 34.12-6.32a10.34 10.34 0 0 0 .161-7.85c-6.881-17.38-113.42 8.29-131.255 7.79-7.605-.21-37.157 7.83-40.761 6.19 2.218-6.14 42.015-33.43 49.089-38.715 6.448-5.248 25.253-4.816 30.193-10.151 6.453-8.601 2.058-17.094-8.212-16.106-46.388 4.462-76.492 46.162-113.449 69.292-9.987 5-21.356 5.74-31.945 8.56-28.325 7.54-57.937 12.74-85.241 23.73-38.032 15.31-78.318 25.61-113.313 47.51-5.11 3.2-11.607 4.31-15.518 9.3-1.459 1.84-3.391 3.73-5.746 2.99-3.216-8.25-7.343-67.46-2.372-73.12 4.88 2.67 14.66 8.65 19.77 8.31 16.272-1.08 88.919-9.22 96.53-23.77 1.077-5.91-2.921-10.71-8.277-12.65-3.427-1.24-9.977 3.27-13.952 3.94-5.108.77-8.537.55-13.446 2.32-17.781 6.44-41.966 8.59-60.482 9.77l-10.411-8.69c21.445-26.05 71.006-40.118 103.141-46.87 2.04-.428 10.277-.29 11.631.876 24.287 20.904 53.922 32.884 85.924 34.924 6.798.43 12.195 2.4 17.254-.55 3.88-4.42 4.24-14.57-1.064-15.87-15.905-3.91-33.07-3.67-48.103-11.494-5.004-2.604-21.032-6.716-21.546-12.45 21.456-7.521 54.094-6.155 77.324-13.259 8.924-2.729 23.369-2.769 32.408-5.255 4.233-1.164 5.323-9.613 3.351-13.957-8.913-8.366-50.278 1.721-62.022 3.324-19.158 2.615-38.886 4.396-58.145 6.143-10.749.975-28.124 4.415-37.981 3.076 8.189-11.666 17.489-19.663 29.289-27.392 5.502-3.604 18.12-10.135 19.679-16.378a7.36 7.36 0 0 0-1.099-5.974c-11.148-16.355-52.042 24.125-60.744 33.678-2.088 2.292-16.721 21.022-17.59 21.198-32.103 6.478-60.096 15.625-85.257 37.67-.549-12.896-.271-28.54-.139-41.54 5.609-6.255 10.654-14.758 16.169-20.398 41.498-42.942 111.483-55.195 168.994-54.808 6.548.044 16.651-1.782 22.783-1.106 8.074.889 19.379 11.51 25.979 16.252 40.964 29.431 90.016 25.322 137.62 23.97 14.403-.409 28.299-.396 42.572-1.792 18.535-2.022 38.917-8.304 57.502-7.816 20.31 1.059 39.626 7.685 59.594 10.898 5.689.915 13.579.193 14.301-7.008 1.118-11.149-8.742-11.995-17.349-14.196-20.597-5.267-41.568-9.113-62.916-9.024-3.93.005-12.64.147-16.196-.407 3.127-2.066 3.954-3.078 7.703-3.046 3.163-11.703 27.081-10.995 32.04-23.01.874-2.117.664-4.32-.445-6.313-1.425-2.561-4.03-4.817-6.875-5.585-12.115-3.271-48.662 24.456-59.522 31.226-7.345 4.578-15.925 9.89-24.376 11.849-19.138 4.437-92.518 4.963-111.106.144-7.734-2.006-15.718-5.219-22.754-8.997-3.607-1.936-7.634-6.222-11.522-7.007-1.594-.322-2.465-.641-3.901-1.438 3.939-1.694 11.181-1.866 15.806-2.847 19.568-4.149 37.247-13.051 56.03-19.682 11.255-3.975 22.857-6.054 34.147-10.021 6.129-6.389 3.188-17.154-4.609-16.892-34.686 1.166-62.279 23.002-97.515 26.405-34.017 3.285-66.953 2.788-101.002 4.921-12.927.762-30.81 6.826-42.355 6.222l-.133-.878c12.65-11.069 25.583-22.018 37.484-33.901 5.315-5.307 14.752-16.801 5.508-23.045-3.933-2.657-5.235-2.738-9.093.183-6.227 4.714-11.522 10.71-17.396 15.863-14.595 12.145-30.388 28.052-44.968 39.529-15.996 12.591-41.971 22.16-59.292 33.881-4.504 3.048-18.223 16.688-20.64 17.137-.873-23.808-.975-47.866-1.165-71.688-.055-6.993-3.545-34.044-.402-38.907 8.006-2.058 34.891-1.896 44.108-2.226l99.12-3.402c58.84-1.478 117.578-2.985 176.41-5.126 30.663-1.117 61.135.928 91.618 1.164l253.974.667c-6.5 19.163-3.011 25.93 1.612 45.507 33.681 16.813 16.844-36.285 27.521-43.333l2.869 1.112 2.179-1.557c-.01 40.778-5.583 84.428-5.654 125.507.241 9.995-1.478 20.115-1.198 30.06.381 13.514 9.028 10.095 17.593 10.604 6.816 6.098-4.703 119.425 6.097 133.035 5.367 6.76-3.055 35.43 5.448 44.05 6.103 6.19 30.4 3.73 39.353 3.77 7.579-.48 21.633-.02 21.401-10.11-.368-15.93-20.005-17.31-31.928-17.26.698-3.67 1.992-17.59 2.443-18.6 2.46-.99 3.587-1.15 6.213-1.66 2.075-1.86 2.391-2.13 2.67-5.15 3.037-32.99 7.968-65.7 12.837-98.45.661-4.453 2.157-18.609 3.599-21.945l2.253-.749c6.787 5.505 10.707 117.234 17.743 126.214 18.309-.02-2.877 44.21 17.033 47.16 13.428 1.99 28.788 2.38 42.263.69 3.976-.5 10.605-4.44 10.599-8.83-.021-16.48-18.216-17.49-28.673-18.58-.331-6.35-3.379-17.16 1.842-21.71 2.356.63 3.469 1.12 5.657 2.06.489-.64.977-1.28 1.466-1.91 1.727-36.33-.893-94.83-.608-129.07 3.563-.116 8.499-1.113 12.122-1.715.03-13.382-2.012-33.027-2.918-46.55-2.218-33.098-5.479-66.822-9.199-99.806-2.441-21.636-6.835-43.739-9.283-65.537"/><path fill="#fefefe" d="M918.221 531.533c2.221 4.409 3.878 20.875 4.601 26.713 13.16 1.049 34.438 9.464 43.971 19.041 5.667 5.692 12.633 19.632 14.908 27.537C998.99 664.895 1011 726.36 1028.91 786.267c0 0-1.18 2.384-1.3 2.631-3.87 3.354-12.44 4.774-17.76 6.114-4.4-8.754-9.54-21.659-13.617-30.984a3100 3100 0 0 1-31.493-75.2c-4.42-11.148-15.443-44.156-21.485-52.015l-1.828.028c-4.485 12.623 19.282 52.717 20.109 65.645.47 7.342 1.967 53.846.404 57.18-6.656 3.95-23.071 3.337-31.189 3.524-32.144.085-56.224.186-88.267-5.592-2.004-24.43 1.708-58.961 2.118-84.158.141-8.687 1.983-17.763 1.674-26.859-1.937-2.035-1.085-1.413-4.379-1.918-7.302 5.442-6.296 90.246-7.023 104.65-.639 12.656-1.613 27.403-4.589 39.689-.388 1.602-1.991 3.092-3.423 3.844-4.38 2.302-11.003 2.22-15.595.691-2.822-.94-5.781-2.742-6.979-5.601-2.705-6.458 11.416-122.165 14.104-136.204 3.377-17.639 7.199-36.835 14.943-53.129 8.656-18.213 21.449-31.855 41.665-36.468 6.575-1.501 13.24-1.94 19.643-4.186 3.276-3.978 1.358-11.618 2.915-13.16 8.698-8.618 14.681 3.643 20.663-13.256m283.509 232.691c.95-.175 1.87.031 2.83.14 4.2 14.287 1.68 93.729 1.58 114.313l-.14 161.483c-.16 19.8 2.21 41.06-.11 60.62-3.91 2.85-28.4 1.29-34.55 1.21-4.37-16.7-6.18-34.02-8.45-51.1-2.87-20.4-5.6-40.81-8.19-61.245-2.57-19.717-7.32-40.678-7.3-60.54.03-33.787 5.58-68.649 8.83-102.274.48-4.977 1.74-11.345-1.63-15.425l-3.1.31c-5 5.89-5.2 33.503-5.74 42.327-1.36 7.802-1.39 16.022-2.12 23.926l-4.95 50.322c-5.82 57.518-11.87 115.199-16.06 172.849-12.39-.54-25.08.1-37.46.74-.52-17.22.57-34.64.66-51.88-.06-41.59.13-83.186.56-124.776q.27-48.374 1.53-96.732c.47-19.548.31-39.437 2.64-58.863 37.57 2.144 74.19 2.26 111.17-5.405"/><path fill="#fefefe" d="m1158.64 545.666.89-.259 1.35 1.196c2.85 12.73 4.8 14.412 17.3 18.229 20.31 6.201 35.41 19.407 43.64 38.973 11.36 27.667 16.07 57.851 21.59 87.175 5.97 31.684 12.97 65.802 15.91 97.824l-16.97 4.356c-11.04-21.644-22.03-61.797-25.81-86.417-1.52-9.89 2.04-53.098-5.16-58.037l-2.17.59c-3.41 5.237-.24 25.674-.08 32.875.59 24.582-.13 49.178-2.16 73.683-23.85 5.477-51.63 7.209-75.98 7.514-3.35.042-26.02-.145-28.18-1.169-5.9-.223-12.09-.708-18.01-1.073 1.37-8.725-.6-16.723.97-23.774 2.53-11.378 7.96-25.177 12-36.271a2090 2090 0 0 0 16-45.501c1.87-5.423 5.41-14.814 2.76-20.277l-1.72.117c-7.16 6.306-7.08 15.3-10.08 23.824-15.65 44.526-30.31 90.187-49.65 133.275-6.61-1.519-10.04-2.23-16.75-2.811-3.06-27.266 12.67-78.763 17.5-106.72 4.17-24.139 12-52.477 18.49-76.155 4.17-15.186 13.04-31.059 28.03-37.224 7.75-3.413 16.26-5.427 22.83-10.814 3.89-3.196 3.16-8.06 3.17-12.719 10.1-.04 20.2-.176 30.29-.41m-316.361 218.6c30.072 5.531 53.103 7.067 83.891 6.471 10.255-.199 23.941-1.538 33.512-1.072 6.559 5.78 24.693 191.329 20.641 199.131-4.315 1.419-7.956 1.933-12.416 2.693-13.53-.46-32.22 2.882-47.452 3.032-30.032.297-61.351-7.058-90.312-7.78 2.357-50.496 2.645-101.323 7.226-151.832 1.13-12.464 2.266-39.383 4.91-50.643m-443.45-259.327c.981-.01 4.482-.081 5.131.755 5.151 6.622 13.058 18.861 20.677 22.318 10.072 4.571 29.165 1.484 39.758.253 3.113 3.632 2.514 3.597 2.881 9.094 3.246 4.9 11.906 8.1 17.693 8.678 1.551.155.303-.63 2.913.142 2.764 6.497-10.228 23.743-9.023 31.294 2.932 18.366 24.645 10.106 34.393 9.48 18.184 21.447 41.874 4.634 58.396-8.459 28.279 39.144 18.971 76.799 15.406 121.42-8.627-2.844-16.705-5.951-25.577-8.739a86 86 0 0 0 .149-5.251c-.13-19.46-17.665-47.368-37.089-25.978-5.809 6.926-7.848 14.566-10.898 23.025-5.969-14.845-18.928-35.453-36.363-20.531-6.252 5.35-5.631 15.409-6.08 23.08-10.364 5.137-15.264-8.651-21.064 19.516-11.919-18.065-13.506-19.152-33.893-25.959-23.053 6.809-12.635 7.346-16.69 20.745-3.437 3.83-14.147 4.562-20.949 6.117l-8.647 8.748c-1.139 6.064-2.189 9.201-4.208 15.086-2.87-12.034-3.081-23.801-4.183-35.883-4.98-54.572 14.939-104.646 28.291-156.405a994 994 0 0 1 8.976-32.546m1250.341 5.945c2.02-.027 1.89-.037 3.76.739.25.517 5.8 20.026 6.82 23.162 15.91 49.067 30.75 98.271 28.69 150.511-.23 5.856.6 18.467-.85 23.618-5.24-.244-12.94-11.418-19.93-8.326-7.92 3.506-11.38-11.167-20.63-8.848-1.38.347-2.62.309-3.88-.32.15-8.836.85-10.96-6.74-15.983l-1.02-.671a135 135 0 0 0-5.57-.404c-15.69-.748-23.93 5.812-32.94 16.984-1.46 1.812-3.46 1.044-5.71.835-6.71-4.762 2.68-8.401-1.29-17.607-3.07-2.752-7.76-2.555-11.89-3.135-4.23-4.175 8.05-30.265-21.04-26.358-18.71 2.514-11.08 18.611-24.92 19.472l-1.19-1.315.88-6.383c-3.61-5.463-8.44-5.813-9.91-10.33-.02-2.169.9-7.941.13-9.798-4.93-11.836-23.73-14.456-29.28-1.749-2.36 5.397.27 12.643 1.9 17.993-13.58 8.234-16.25 19.874-21.71 34.508 1.53-38.572 4.62-80.813 30.59-111.65 11.08 18.835 40.56 36.267 56 13.157l14.72 2.832c11.96-4.615 13.91-6.712 20.69-17.528.16-3.993.14-8.314.18-12.339-2.26-3.712-4.89-7.634-7.26-11.319 11.68-6.901 9.53-10.929 18.52-20.488 2.88-1.057 2.31-.862 6.04.867 16.11 7.454 23.4-17.127 36.84-20.127m-314.86 217.509c37.31-1.241 76.2.837 113.69-.467 15.54-.541 31.06.661 46.82-.153 5.42 14.326 5.23 25.069 8.67 39.793-13.4.678-31.19.059-45.12.217l-101.5 1.175c-9.4-14.586-14.88-24.891-22.56-40.565"/><path d="M1374.89 743.211c14.56-.384 25.4 5.826 31.71 18.958-8.52.644-19.03-6.621-26.09-10.87-3.64-2.191-4.23-4.333-5.62-8.088m67.18 1.33c7.57 1.195 18.66 7.567 21.1 15.14l-1.91 3.602c-3.58-.518-16.51-8.048-18.64-11.695-1.63-2.783-1.21-4.061-.55-7.047"/><path fill="#fefefe" d="M958.899 523.101c43.421-1.288 93.681-.209 137.501-.086l3.7 11.622c-16.87 10.367-17.91 44.192-29 60.362-3.29 4.796-5.76 21.5-10.99 24.497-6.23-5.146.81-54.01-6.37-71.069l-.48-1.113c-6.96-12.034-22.1-19.851-35.49-13.719-18.568 8.5-16.89 29.871-17.28 46.529-.14 6.296 1.11 35.625-.35 39.146-2.655.855-2.965.623-5.589-.125-2.186-2.896-7.695-21.472-10.112-27.22-14.73-35.032-33.748-31.702-61.563-42.495 25.883-2.673 27.907 3.785 36.023-26.329m5.803 456.374 3.728-.206 1.398 1.362c1.734 10.529 1.471 116.359-.331 119.039-9.951 3.3-25.218 1.98-35.659 1.11-7.371-36.47-9.255-81.11-13.536-118.805 14.946.264 29.536-.988 44.4-2.5m-115.563-2.667c16.818-.045 33.395 4.17 50.39 3.506-.321 10.103-2.666 20.466-4.026 30.486-3.764 27.77-8.732 55.87-10.788 83.8-.309 2.84-.094 4.44-1.884 6.71-10.797.71-22.391-.93-33.211-1.67zm596.531-202.394c9.74 2.838 61.63.115 76.14-.107 3.79-.058 10.79-1.039 14.24.097 1.43.472 1.96.782 2.58 2.11 1.13 2.41 1.39 20.215.34 22.783-2.98.85-63.4 1.298-71.81 1.348-30.82 1.979-62.36.341-93.29 1.006-4.43-8.698-9.18-17.265-13.77-25.884 8.94-.033 82.66.516 85.57-1.353m-486.231-285.39c17.937.317 127.601-1.188 136.951 1.908.35 5.1-1.95 16.946-2.64 23.177l-.1 1.542c-3.79.964-9.62.095-14.15.158-39.66.559-79.622.143-119.298.01-.987-9.913-1.263-16.904-.763-26.795m369.531 207.572c24.48.748 49.78.201 74.34.153 18.41-.036 39.41.586 57.6-.674.17 8.153.53 16.201-.29 24.314l-1.5.808c-17.52-1.298-39.52-.026-57.19.335-23.39.362-46.79.47-70.18.323-3.79-6.845-9.17-16.896-11.22-24.342 1.81-.95 6.17-.832 8.44-.917M1179.19 549.52c4.92.747 28.82.541 34.85.546l70.04-.019c.41 7.51.7 27.832-.29 34.903-1.85 1.051-6.57.568-9.14.55-3.46-.856-13.15-1.242-17.68-2.018-5.16-.884-35.55 1.561-38.14-.959-9.98-9.726-16.87-16.343-30.48-21.547-6.96-2.727-15.75-4.84-19.68-7.736l.31-1.446c3.54-2.479 5.95-2.158 10.21-2.274m124.33 112.751c7.35-.621 17.72-.141 25.31-.191 19.44-.204 38.89-.172 58.33.096 8.21.066 21.21.535 28.96-.259-.57 9.27 1.97 17.315-.84 25.752-2.86 2.597-3.02 1.745-7.76 1.752-22.08-1.764-67.01 2.462-90.97-.28-2.6-.297-11.33-20.281-13.91-25.464z"/><path d="M1347.02 668.262c7.28-.658 16.77 1.727 22.77 6.014 4.15 2.957 3.82 5.041 4.63 10.316-4.53-.559-14.1-5.084-18.48-7.402-5.63-2.985-7.19-3.436-8.92-8.928"/><path fill="#fefefe" d="M783.528 547.776c30.638 2.381 65.122-.732 96.01.242 3.54.112 7.301-.842 9.251 2.567l-.733 1.553c-11.363 2.96-14.769 3.448-27.054 7.564-14.759 6.999-19.241 12.819-29.422 25.099-18.083-2.75-35.019 2.43-52.993 1.338.919-12.513 2.052-26.156 4.941-38.363m776.222 696.584c20.57 4.52 63.39 28.67 76.42 46.02 1.9 2.53 2.98 4.4 2.59 7.6-2.54 1.94-4.73 1.78-7.8 2.14-9.63 1.38-34 3.57-42.88 1.33-2.63-.66-5.12-2.2-6.58-4.53-3.29-5.26-4-14.03-5.96-20.03-3.75-11.47-9.31-22.38-15.79-32.53m-1085.33-1.41 1.271.58c-5.084 14.49-16.787 45.38-24.057 57.69-3.97 2.79-36.686-.2-43.514-.51l-9.71-1.54c23.524-24.92 45.264-40.74 76.01-56.22m809.3-616.82c19.69-.508 39.76 1.172 59.5.861 7.49-.118 15.7-.2 23.06.9-.46 8.587-.29 18.612-.26 27.277-5.64.141-32.15 1.247-34.51-1.568l1.34-3.177c-.6-9.722-11.22-11.857-19.11-13.548l-1.27.985c-.03 3.248.74 4.015 2.39 6.986 4.12 1.699 12.1 3.786 12.59 8.489-4.47 3.233-22.65 1.891-28.95 1.773-3.09-5.388-13.15-24.19-14.78-28.978M642.127 729.566c4.911 1.124 12.681-1.06 19.287.85 1.721 4.875-2.052 28.122-2.594 35.407-10.127-.022-22.028-.323-31.995.316-5.651-.458-13.745-.165-19.588-.126l2.624-35.949c10.798.232 21.474-.175 32.266-.498m42.108-.067c1.99.885 33.541-.335 38.158-.502-1.561 3.839-4.885 18.768-5.398 19.277-7.203 7.142-6.323 6.277-8.434 17.437q-21.556.274-43.114.229c1.744-14.208 2.395-21.809 2.797-36.045 5.333.031 10.666-.101 15.991-.396m-54.44 43.422h68.709c-1.359 4.282-1.899 9.354-3.392 13.406-1.441 3.912-7.505 5.15-11.139 6.463.048 2.158.204 3.75-.945 5.684-10.834 1.563-42.616 1.786-53.923.732-3.457-5.113-.014-20.071.69-26.285m419.055-144.337c3.95-.264 7.97-.319 11.93-.425a564 564 0 0 1-6.37 27.84c-14.52-.188-32.62-.831-46.76.323l-3.63-.648c-4.197-3.821-6.5-19.942-8.426-26.857 15.786.01 38.006.689 53.256-.233M747.646 771.526a2653 2653 0 0 1 49.591-.72l-.721 17.249c-14.328-1.726-29.326-.767-43.753-.659-16.19.053-32.397 1.313-48.565 1.126l-1.506-2.128c-.935-4.549.412-9.029 1.358-13.482 14.537-.293 29.041-1.172 43.596-1.386M562.93 730.007l41.365.037c-.695 6.813-2.712 31.224-4.573 35.894-14.122-.428-28.074-.131-42.195-.061.723-11.526 3.267-24.554 5.403-35.87m175.189-137.52c13.928 1.342 46.369.954 61.012.401-2.575 16.758-6.801 6.7-11.49 19.028-.278 2.552-.157 4.94-1.736 6.794-6.443.59-49.941 1.304-52.286-1.04.903-8.341 2.837-16.931 4.5-25.183m-21.275 70.11c7.915 2.065 42.133-1.479 45.591-.065l-1.248 1.382c-6.427 7.219-5.535 7.168-8.924 15.965.116-.302-5.656 2.345-7.436 4.666-.891 2.523-.971 2.74-2.36 5.011-6.506 3.065-33.214 1.638-42.186 1.551-.521-8.112 1.205-19.957 2.447-28.146 4.918.041 9.201-.111 14.116-.364m-27.658 35.195c4.66 2.256 10.817-1.128 15.614 1.354 2.488 6.212.962 16.223.289 23.073-5.162 1.864-35.388.787-44.192 1.28-4.908-.596-8.409 1.454-12.393-1.71.068-4.851.025-19.232 1.436-22.708 11.569-1.993 28.727 1.219 39.246-1.289m-6.239-35.056c2.097 1.382 8.679-.186 13.152.459l.751 1.268c-.192 6.431-2.91 20.515-5.284 26.469l-1.898 1.411c-5.316-1.465-21.044-.873-25.503-.326-6.436-.529-14.647-.482-21.227-.626 1.547-9.7 2.998-18.607 5.076-28.2 6.93-.028 30.141.765 34.933-.455M574.373 772.542l50.635.51c-1.573 7.178-.568 21.135-5.021 26.541l-3.707.044c-15.492-.647-30.978.762-46.461-.08 1.65-8.46 1.856-17.286 2.625-25.868zM1266.42 591.91c14.56.524 44.22-.365 56.33 1.318 2.76 3.689 1.55 21.557 1.43 26.942-40.02-6.08-35.09 15.891-57.76-28.26m8.79 178.651c5.54 1.645 65.09.802 72.83-.62 2.67 5.496 5.5 10.766 8.68 15.986-5.65.131-11.32.119-16.97.169-11.11.165-66.05 3.048-72.63-.487-2-3.776-3.07-9.322-2.49-13.58 3-1.774 7.16-1.359 10.58-1.468m-169.66-291.513c16.98 1.404 5.14 8.261 8.71 17.274 6.12 15.458 18.67-1.131 24.4 17.752-2.76 5.589-11.2-3.02-17.76-.268-.44 8.192 10.39 10.772 16.66 11.805l.93.548q.975 6.66 2.22 13.274c-7.88.066-27.93 2.792-32.25-3.979-10.03-15.724-5.36-39.01-2.91-56.406M692.57 626.326c5.998.895 32.906-.009 41.445.082-1.042 6.804-.724 25.871-4.171 29.649a1071 1071 0 0 1-44.271-.051c1.851-8.217 2.268-17.603 3.845-25.93.526-2.78.739-2.217 3.152-3.75M374.219 488.393c1.637 1.208 2.066 2.101 3.174 3.767-2.998 20.4-10.998 41.421-16.62 61.59-2.256 8.097-10.161 39.533-13.019 45.599-.676-1.665-.737-5.608-.876-7.597-.205-3.973-3.393-33.073-3.243-33.227 10.769-11.05 8.581-26.215 5.077-44.202 15.82-7.325 18.116-10.132 25.507-25.93m1300.641 4.185c.98.91.58.424 1.23 1.418 7.22 11.034 10.83 14.928 23.17 18.518-.97 12.42.79 66.475 3.24 78.72-.63 1.703-.11 1.046-1.5 2.029-7-15.049-33.04-86.901-26.14-100.685m-724.068-12.204c2.236 1.182 5.383 67.529-13.98 60.827-2.763-.956-5.165 1.33-9.243-1.413l-.941-5.705c-.383-7.811.797-11.689 1.02-18.266.122-3.616-6.008-5.327-5.47-13.238 3.248-2.574 11.232-.729 14.366-2.567 8.508-4.988 2.338-11.079 4.454-16.585 2.783-2.683 5.79-2.537 9.794-3.053M758.935 749.459c12.675-.786 27.92-.626 40.791-.818-.401 4.77-.524 10.858-2.507 15.083-3.979 1.054-33.311.794-38.977.685-10.251 1.062-31.947.914-43.208 1.4.745-3.456 1.518-7.338 4.014-9.968 7.121-7.506 29.1-6.017 39.887-6.382m266.345-86.854c6.38 3.365 22.27-1.607 25.63.199 2.36 6.348-2.08 20.914-3.74 27.999-2.73-.134-5.55-.155-8.29-.209-8.55-.539-19.19-.375-27.93-.447l-5.96-26.801c6.96-.44 12.95-.076 20.29-.741m-268.485 64.774c15.307-.318 30.619-.363 45.928-.136-3.227 21.241-12.171 14.29-31.967 14.822-15.272.661-30.317 1.854-45.662 2.333 3.137-15.823 4.902-16.03 21.819-16.605 3.137-.106 6.702-.285 9.882-.414m-152.984-29.735c13.407 1.205 26.445.269 39.904 1.065 2.164 4.012-.385 19.064-1.074 24.297q-22.574.693-45.159.675c1.074-9.007 3.799-17.333 6.329-26.037m657.509 52.515c5.92 1.048 22.02.768 28.52.75q23.625-.147 47.25-.016c2.06 4.599 5.42 9.659 8.13 14.01-27.42-.429-54.98.043-82.44-.212zm-723.535 23.249 29.399-.674c-1.276 6.95.368 21.41-4.683 26.238-2.307.318-4.221.541-6.528.159-9.667-.242-19.895 1.495-29.417-.061l-.888-1.307c-.492-7.39.513-15.042 2.472-22.171 2.609-2.248 6.343-1.958 9.645-2.184M1745.35 517.745c2.33 3.499 1.8 13.453 3.63 18.062 1.28 3.227 2.68 5.511 4.43 8.455-9.97 21.988-17.03 37.737-23.12 60.908l-.59.391-1.11-1.014c-.97-8.141-.1-15.701-.54-22.658-1.72-27.456 3.72-40.736 17.3-64.144M741.127 626.341c12.744-.46 27.346-.177 40.239-.24-.744 1.765-3.519 10.645-4.228 11.156-5.692 4.098-5.725 3.086-8.281 10.004-4.538 16.603-11.584 6.048-24.536 8.318-2.22.389-2.562.451-4.547-.424-1.18-3.73.942-23.584 1.353-28.814m516.853 103.722 68.67.347c2.11 3.615 6.97 9.416 5.87 13.409l-3.71.548-69.5-.32c-.2-5.615-.4-8.465-1.33-13.984m-3.88-21.785c17.67 1.082 44.17.379 62.59.421 1.93 4.281 7.15 10.483 4.41 14.467l-4.76.284c-10.25.078-46.9.884-58.38-.431-2.43-.278-3.48-10.978-3.86-14.741m171.07-171.816c7.27 5.697 5.16 11.661 18.39 17.224.59 20.188-.13 40.584.1 60.793.04 4.042.06 8.275-.39 12.285l-.81 1.661c-8.1-26.925-11.6-57.85-20.31-84.995-.87-2.699 1.45-4.792 3.02-6.968m-104.45 255.984c11.24 2.25 27.97.404 39.74.345l6.52 9.118c-22.64-.3-45.29-.297-67.93.011-10.62-.944-25.63 2.496-35.34-1.061-2.39-.873-3.2-1.472-4.14-3.743 5.87-7.841 54.28-.639 61.15-4.67m-556.452-86.084c13.142-.673 26.751-.295 39.913-.063-.318 4.562.031 9.598-2.657 12.94-4.011 2.303-12.47.907-17.557.578-8.252.373-37.8 2.237-44.082.62.5-4.159.646-5.328 2.022-9.257 4.782-4.527 15.726-4.412 22.361-4.818M646.199 521.647c10.78 14.964-15.882 74.897-23.428 91.783l-1.225-.334c2.93-19.463 5.449-37.569 5.849-57.304.497-5.526 1.562-8.292 6.627-10.984 9.944-5.284 10.065-13.146 12.177-23.161m-343.174-7.921 1.425 1.22c13.771 36.714 16.194 42.719 17.951 84.018-1.006-.982-2.732-6.536-3.351-8.268-6.601-17.578-14.948-28.956-25.393-44.419 12.733-10.152 6.28-19.887 9.368-32.551m946.885 173.387c17.85-.376 37.19.025 55.16.037 2.55 4.059 9.11 10.905 6.08 14.874l-4.92-.161c-14.58.516-38.32-.148-53.05-.716zm-492.567-1.827c14.203-1 34.71-.494 48.98.534-.409 5.25.044 9.4-2.964 13.32l-4.111-.123c-6.579-.197-46.963 1.004-49.581-1.134-.995-5.499 2.662-10.548 7.676-12.597m488.727-18.757c10.53.231 39.92-1.261 48.41.992 4.8 3.35 6.49 7.99 8.66 13.236-9.16-.253-47.68.51-53.76-1.389-2.76-3.867-2.97-8.126-3.31-12.839m235.7-113.735c3.74 4.044 6.56 8.994 9.47 13.697-8.72 19.967-14.67 35.286-20.03 56.408-.41 1.935-.23 1.28-1.32 3.028-1.35-5.924-.13-46.747.11-54.91 5.49-6.619 8.09-10.472 11.77-18.223m-897.757-4.249c2.901 2.097 11.867 19.484 13.294 23.995 2.258 7.141 2.664 41.755.332 45.933l-.82-.921c-3.247-15.63-7.516-31.492-19.149-42.761 4.172-10.661 3.638-15.719 6.343-26.246m128.68 148.27c8.088 1.446 19.158-1.157 26.322 2.467 2.075 2.706 1.649 1.233 1.455 4.527-5.617 9.752-5.949-.25-8.467 14.999-.52 1.851-.701 1.845-1.916 3.381-6.556 1.255-14.303.906-21.065.87.205-6.254.013-22.209 3.671-26.244m300.157.092c11.12.605 21.59.58 32.74.566-1.51 5.534-2.8 12.74-3.99 18.465-.56 3.209.01 2.451-1.86 4.675-5.39 1.609-14.31.84-20.38.699zm-219.685-33.274c1.881.538 12.745.276 15.2.272q-.183 2.759-.413 5.514c-.233 2.704-.377 7.087-2.235 8.65-7.309.551-20.018.08-27.496-.692-6.134 1.009-10.764 1.236-16.884.454l-.48-1.323c8.156-17.369 18.131-9.422 32.308-12.875m449.235-16.374c13.21.754 30.19.471 43.78.821 1.97 3.281 4.17 7.917 5.95 11.443-4.37.836-43.16 1.07-46.42-.165-2.13-4.403-2.44-7.307-3.31-12.099m16.79-19.694c6.1.514 11.24.633 17.37.71 2.17 3.769 4.44 8.457 6.46 12.384-7.23.74-12.33.207-18.8.73-7.4-.736-16.65.591-21.75-1.885-3.18-3.028-3.54-7.001-4.63-11.46 7.4 0 13.93-.064 21.35-.479M701.93 796.111c29.058-3.657 61.716-1.141 91.187-1.889 1.619-.041 4.086 2.334 5.49 3.412l-.019 1.215c-7.915 2.496-77.035-.135-91.434.259-5.094.111-10.152.678-14.819-1.194l.383-.058.646-1.388c2.499-.578 5.927-.379 8.566-.357m511.2-22.88 13.27-.294c3.04 7.431 8.59 17.679 8.82 25.569l-2.29 1.649c-4.98.009-14.22 1.109-18.03-2.389-3.12-2.859-1.46-19.44-1.77-24.535M791.027 644.446c1.237.394 18.905-.428 21.407-.509-.968 4.52-1.351 9.461-3.109 13.628l-2.3.86c-3.833-.952-5.285-1.073-9.226-.807-8.264.084-17.379 2.435-22.254-1.228-1.217-3.708.155-6.95 1.168-10.898zm440.853-35.448c11.43.29 24.06.023 35.59.028 2.02 3.681 6.39 9.186 3.68 12.668l-4.64-.145c-9.8-.526-20.19-.156-30.07-.237-2.76-3.213-3.52-8.11-4.56-12.314m-128.9-68.307c.62.465 1.25.93 1.87 1.394 5.8 5.556 10.45 2.561 17.49 8.328l-.41 1.525c-6.71 4.994-10.83 5.947-18.67 8.938-5.74 2.823-8.18 4.248-13.47 7.852 3.3-12.457 4.96-18.196 13.19-28.037m148.27 49.863c2.56.22 3.16.33 5.67.947 3.51 2.576 4.58 6.303 6.42 10.426-8.13.022-17.38.326-25.37-.646l-8.72.695-5.91-10.997c9.81.119 18.13.193 27.91-.425m-230.16 137.889c5.91-.229 12.67-.057 18.65-.046-2.35 8.492-4.03 16.712-5.86 25.322-.62 1.989-.5 1.909-2.1 3.218l-2.19-.512c-4.81-5.487-7.32-20.64-8.5-27.982m73.97 380.157c5.85-.09 11.63-.02 17.47.27l-2.89 21.18c-4.62-.97-10.92-.51-14.13-4.34-2.75-3.29-.94-13.05-.45-17.11m-152.051-.51c5.386.06 10.788-.11 16.175-.18.015 7.02.568 13.68-.479 20.69-4.663.11-9.236.94-13.239-1.68-2.943-4.82-2.138-13.15-2.457-18.83M807.138 799.5c3.048.882 6.187 1.284 9.307 1.846.118.321.256.635.354.963 2.198 7.305-11.248 22.502-14.748 28.94l-.536 7.582c-4.265-20.634-1.208-21.215 5.623-39.331m219.302-.294 1.75.589 5.09 24.498c-3.25-3.91-6.69-7.632-10.15-11.365.94 7.287 2.62 14.076 4.57 21.133.53 2.396.87 4.477.84 6.935l-.94-.263c-2.2-3.634-3.78-7.344-5.23-11.331-2.12-5.873-7.28-21.806-3.79-27.714.75-1.272 6.24-2.075 7.86-2.482M802.365 626.367c7.129-.216 9.854-1.558 14.539 3.948l-.706 2.356c-6.029 5.398-8.505 4.811-16.536 4.91-5.38.111-11.226 1.689-14.82-2.647l.423-1.874c5.654-6.268 8.759-5.851 17.1-6.693m53.79 481.893c5.325-.28 10.996-1.47 15.479 1.94 2.484 4.9.086 10.18-1.328 15.14-.554.86-1.425 1.1-2.315 1.58-2.52-.61-4.115-.4-6.588-.5-2.356-.11-3.057-.57-4.661-2.23-1.71-4.74-.795-10.9-.587-15.93m395.005-310.267.9.616c2.92 5.847 3.47 13.912 4.49 20.315-3.22 5.008-4.76 11.318-6.62 16.945.58-4.742 1.7-9.875-1.29-13.997-1.68.43-2.65.947-4.05 1.975-.94 2.742-2.14 5.246-3.45 7.826l-.47-.354c2.47-7.87 3.88-28.301 5.22-31.27.61-1.364 3.83-1.673 5.27-2.056m-69.14 311.467c2.83-.3 6.44-.77 9.26-.42 2.62.33 3.52 1.26 5.25 3.14 1.69 4.44.84 10.26.62 14.98-1.23.39-2.28.54-3.58.6-2.97.15-6.92.4-9.18-1.81-3.63-3.55-2.47-11.7-2.37-16.49M969.31 720.753c1.745 1.55 15.5 33.055 15.32 34.988-3.909-.609-9.175-.984-13.201-1.382-2.683-3.547-2.072-27.445-2.119-33.606M810.597 608.549c3.459-.349 6.318-1.132 9.206.462.952 2.749-.807 6.939-1.705 9.969l-17.95.374c-2.826.674-3.944.469-6.106-.644-1.09-9.646 10.033-9.962 16.555-10.161m-.47-17.376c6.012.43 12.302.495 18.346.65-1.479 3.319-2.923 7.886-5.711 9.731-6.802-.046-16.833 3.223-19.428-3.361.695-6.02 1.349-5.679 6.793-7.02m404.643 150.525c3.21 2.676 6.31 14.085 7.93 18.497 1.32 3.578 1.62 3.72.31 6.196-3.34.071-4.71.264-7.91-.519-3.75-4.293-.81-16.557-.33-24.174m-179.83 53.879c5.36.712 10.97 3.083 16.48 4.062l-4.68 11.116c-.5.732-1 1.001-1.73 1.484a38 38 0 0 1-2.15-1.98c-3.5-3.54-7.99-9.592-7.92-14.682M471.787 250.849c6.02 3.611 16.126 1.03 20.22 4.236l-.421 1.028-1.343-.255c-5.145.129-17.467 3.248-19.832-1.727z"/></svg>