<svg xmlns="http://www.w3.org/2000/svg" preserveAspectRatio="xMidYMid meet" viewBox="0 0 2048 1462"><path d="M1264.63 96.6c20.46-2.283 53.28.311 70.81 13.468 49.62 37.231 72.07 132.56 39.91 186.584-7.09 11.92-29.73 21.659-42.99 23.855 7.7 12.736 8.27 9.983 19.53 19.713 5.77 4.982 6.32 9.738 6.62 16.824 11.59 13.632 26.46 26.018 36.8 40.663 36.8 52.103 63.26 133.073 78.02 194.347l129.76-.285c29.73-.057 59.93-.726 89.57-.051 6.25-26.859 14.19-44.588 36.05-63.091 21.34-18.07 46.95-27.43 75.04-24.039 7.42.895 12.79 3.989 18.43 4.49 5.95-9.902-6.13-236.308-3.69-261.501 1.13-11.74-7.39-71.673 5.13-73.972 11.89 4.688 8.48 25.057 8.77 35.815l1.73 65.725 5.04 231.981 14.52 843.304c12.51-.47 56.63-11.21 64.36-1.2.59 3.68.85 2.24-.65 5.55-6.79 6.1-24.31 4.37-33.71 5.67-19.51 2.7-39.05 6.25-58.83 5.71-22.53-.62-44.4-4.87-67.17-4.97-19.83-.09-39.11 3.84-58.65 4.02-21.16.19-43.04-2.37-64.3-2.18-22.97.2-46.09 5.53-68.94 5.58-20.45.04-41.49-6.04-61.97-5.58-25.36.55-48.99 9.36-74.55 8.49-33.04-1.12-62.74-15.58-96.23-13.5-12.07.76-24.95.2-36.98 2.15-24.39 3.95-48.62 9.47-73.48 8.81-29.08-.21-53.84-6.26-82.3-9.22-25.79-2.68-49.64 4.49-75.72 4.44-20.71-.04-40.93-6.01-60.68-5.56-27.811.29-53.922 10.17-81.649 12.11-45.716 3.77-93.537-11.04-138.945-1.25-75.53 16.27-144.207-8.89-218.864-11.52-36.731-1.3-73.668 8.43-110.339 10.52-30.841 1.77-61.121-6.71-91.807-7.53-22.248-.52-44.261 3.07-66.429 4.3-53.539 2.97-107.384-3.52-160.761-6.97-2.491-.16-4.022-2.53-5.596-4.21.494-2.89.635-3.07 2.018-5.7 8.179-7.26 46.267-1.69 59.776-1.22 1.047-9.56 1.008-25.32 1.271-35.45.685-25.57 1.141-51.15 1.369-76.72l3.871-214.59L212.005 312c.397-15.443 1.678-128.108 4.034-133.439 1.264-2.861 3.351-4.24 6.142-5.386 11.79 2.093 6.841 41.769 6.558 52.56l-1.293 62.231c-2.08 70.831-5.265 150.284-4.899 220.403a72.5 72.5 0 0 1 9.402-2.678c46.258-10.243 90.686 11.076 111.835 53.661 5.203 10.476 7.24 20.152 9.778 31.422 22.293 1.524 58.021.732 80.878.743l135.814.232c15.673-50.245 32.682-103.371 57.835-149.767-62.941.635-104.705-51.697-76.962-111.292 21.396-45.964 58.691-80.638 86.278-122.776 13.736-20.982 17.769-44.869 35.03-63.376 38.315-40.054 106.414-60.954 158.576-37.854 15.175 4.85 42.677 25.999 40.374 45.06-2.223 18.39 2.595 35.352 2.824 53.555-.206 8.704-5.125 25.447-3.295 33.544 3.931 17.396 23.94 26.359-5.259 35.48-.617 29.078-10.596 43.874-38.846 51.823-4.709 5.328-26.987 38.55-28.952 44.219 5.689 8.027 2.934 9.51-.249 18.421-1.697 4.75-3.747 9.519-5.587 14.217 22.469 26.939 49.079 65.541 66.106 96.549 27.443 49.979 45.71 65.09 94.321 92.414l89.672.055c15.75.003 32.19.252 47.94-.415 6.95-.294 18.05-7.13 24.43-10.644 49.11-27.072 63.67-61.047 90.16-107.278 9.96-17.39 37.94-59.859 51.01-75.217-8.8-21.494-12.74-26.503 11.27-33.823-3.11-10.37-12.09-31.712-16.63-41.299-37.8 11.246-70.21-8.018-70.42-48.972a85 85 0 0 1-5.05-1.321c-24.45-7.421-2.59-23.389-1.46-30.34 4.44-27.52-7.14-40.835 2.95-70.701-2.2-4.834-3.48-8.039-4.07-13.398a39.12 39.12 0 0 1 8.61-29.19c17.89-22.081 56.57-30.115 83.77-32.823"/><path fill="#fff" d="M1576.04 653.873c5.78 1.156 13.49.201 18.85.5 13.96.779 57.12-1.976 68.37.861 3.29 3.838 2.79 98.801 2.91 111.081l3.23 363.415c.2 14.81 2.03 142.36-.61 146.61l-2.03-.32c-7.53 1-78.38.81-85.21-.3-2.49-72.59-1.14-149.25-2.05-222.39a35225 35225 0 0 1-3.46-399.457m-1194.111.047q43.57-.174 87.136.426c.721 50.947-6.146 620.384-7.162 622.114-7.236 1.23-17.685.86-25.257.86-7.167.51-55.309.73-61.131-.6-1.561-21.15-.055-55.59.201-77.94l1.739-144.84zm541.434-.558c15.759.32 61.124-.674 74.283 1.055 2.644 5.613 1.392 105.726 1.391 120.473l-.101 339.87-.051 103.99c-.047 18.34-.741 39.27.018 57.39-9.433 1.07-16.551.78-26.037.63l-52.29.14c-.56-21.23.164-45.89.246-67.41l.942-169.87 1.057-270.484c.277-37.991-.608-78.083.542-115.784m131.367.041c14.56 1.758 56.45-1.411 66.8 1.413 3.02 7.85 1.41 120.557 1.41 137.365l.48 369.649c0 14.9 2.15 103.37-.63 114.26-2.76 1.39-6.77.98-10.04.97-13.01-.64-50.37 1.15-61.2-.97-1.42-17.79-.7-42.87-.71-61.28l.05-106.84.78-333.711-.07-89.106c.01-8.718-.2-20.613.53-29.436.12-1.446.81-1.312 2.6-2.314M726.568 419.13c12.455-2.018 26.59 8.039 33.464 17.715 25.174 35.507 19.132 84.165 17.068 125.31-2.801 44.621-4.408 88.543-.474 133.175 1.958 22.211 7.632 50.662 5.921 72.357-2.338 29.66-39.202 33.041-62.761 29.639-6.545-1.236-14.484-2.486-20.261-5.891-14.906-9.833-20.288-37.162-24.826-52.744-20.978-72.027-49.443-296.179 51.869-319.561m448.752 234.069c21.97 2.891 60.09-.385 84.86 1.427.24 34.456-6.79 69.381-8.4 103.706-.62 13.204 8.68 23.98 7.07 37.257-1.62 13.39-3.64 26.619-5.55 39.944a3680 3680 0 0 0-9.34 68.584c-11.38 89.896-19.85 177.423-18.3 268.243.5 29.67 1.12 63.52 4.88 92.98 3.31 3.39 5.39-1.11 10.51 5.81-1.46 9.6-54.34 5.88-64.68 5.79-1.29-49.43-.32-103.51-.4-153.27l-.57-266.689-.56-136.716c-.06-15.608-1.09-52.916.48-67.066m140.93-236.053c31.01-.305 55.9 43.798 63.69 70.092 14.79 49.874 11.71 105.951 7.05 157.107-3.76 32.332-7.92 65.427-16.18 96.982-7.32 27.993-7.23 48.005-37.36 57.119-26.34 4.226-64.03-1.423-68.33-32.924-1.96-14.357 1.65-40.949 3.82-55.966 8.82-61.086 1.38-120.817 0-181.956-.69-31.011-.42-62.58 18.05-89.354 7.77-11.307 15.53-18.395 29.26-21.1M786.085 653.253c11.296-.523 78.044-.537 85.349 1.425 2.324 12.792 1.127 46.689 1 61.864l-.478 103.495-2.883 451.213c-.093 2.07.031 2.04-.877 3.87-6.603 3.24-42.2 1.86-52.581 1.81-4.379-16.92 9.154-8.25 11.36-15.87 8.696-30.07 2.766-92.26 1.203-120.06-4.601-81.85-16.254-158.397-26.378-239.109-4.79-38.187-6.331-73.89-15.19-111.053 12.867-21.426 6.571-47.101 4.481-70.71-1.958-22.117-5.245-44.624-5.006-66.875m932.245 29.956c10.51.12 22.59.602 32.92.068-15.45 29.354-7.12 56.695 8.37 83.399-28.54 31.094-19.58 70.573 1.59 102.625-27.11 27.018-21.55 74.651.58 102.754-25.19 34.845-22.74 71.545 2.43 105.855-24.81 32.03-25.69 71.76.91 103.14-17.14 18.74-21.74 42.44-20.1 66.98 3.37 20.06 10.2 38.36 24.47 53.36-14.03.78-33.71.86-47.74.27-.56-8.25-.01-21.57-.1-30.39l-.62-79.47-2.08-295.719q-.975-73.863-1.2-147.734c-.08-9.9-1.43-57.772.57-65.138m-1417.98 1.305c9.909-.23 20.519.091 30.49.234-1.719 15.612-.69 57.629-.747 74.61l-1.032 137.586a37477 37477 0 0 1-6.173 405.946c-15.441.01-30.881-.29-46.311-.89 6.593-8.25 10.565-13.63 15.663-22.82 12.571-22.37 13.632-58.21 3.823-82-2.828-6.86-6.926-13.32-11.063-19.46 21.099-32.42 22.311-73.39-.544-105.19 22.444-32.3 24.435-70.81 2.717-103.935 19.678-36.199 23.408-66.043.587-102.182 20.086-32.25 23-68.595.945-100.77 11.606-20.135 18.044-39.499 12.69-62.859-.814-3.551-3.749-15.206-3.523-17.727zm485.917-78.392c49.79.606 99.586.629 149.377.068l179.916-.148 88.98.051c17.79.039 37.72-.394 55.29.757.42 8.841.87 17.048.67 25.905.32 2.582.58 3.137-.63 5.469-5.94 2.677-427.865.306-474.88.886.174-11.448.451-21.584 1.277-32.988M357.221 1291.52c5.502 1.25 13.879.22 19.686.22q28.35.03 56.7-.33l208.794-.26 718.639-.03 232.4.12 72.38-.28c11.58-.06 23.7-.93 35.21-.05 2.89.23 5.05.06 6.98 2.32.53 2.83.85 4.51-.23 7.23-4.73 2.93-11.07 1.78-16.53 1.64l-1000.283.53-256.538.18-62.959-.11c-9.976.01-21.705 1.41-31.429-.46l-1.236-2.33c.155-2.75-.091-4.85 1.419-7.23 5.091-1.82 11.587-1.16 16.997-1.16m657.769-638.45c4.95.196 18.38-.349 21.55 2.602 1.41 12.617.39 53.664.4 68.353l-.66 159.084-.19 257.191c-.03 42.07 1.44 95.3-.58 136.62l-12.17.11c-3.05.12-6.65-.11-9.73-.23-.87-8.49-.44-23.66-.4-32.78l.12-56.19.28-193.819.36-221.802.07-72.144c.03-14.176-.32-33.165.95-46.995m123.46 1.167c7.23.581 13.04-.813 20.64.72 1.2 2.361 2.23 569.283 1.92 622.183-5.38.01-16.51.56-21.2-.71-1.51-2.35-1.22-1.1-.96-3.84-1.17-17.45-.11-47.48-.11-66.15l-.22-126.43-.06-216.57c-.41-47.07-.59-94.142-.52-141.214-.05-10.249-1.38-62.813.51-67.989m548.04-1.361c10.89 5.667 1.68 17.153 5.41 28.626 3.22 2.611 5.06.492 10.17 2.43 1.47 6.056 1.08 41.957 1.11 51.219l.64 107.913 2.4 287.436c.4 48.14 1.82 98.16 1.05 146.13-6.72.59-15.44.25-22.33.18.37-150.59-4.36-455.152-5.07-619.564-.01-2.122 4.53-3.568 6.62-4.37m-792.395.509c3.962 1.362 9.485-1.423 14.166 2.159.88 11.36.218 29.588.121 41.514l-.386 70.546-1.061 235.336-.734 204.08c-.034 12.31 1.534 60.89-.598 68.76-3.34 1.83-6.51 1.04-10.838.98-2.777.24-7.712-.01-10.659-.06-.815-10.04-.264-27.07-.204-37.71l.62-69.15 1.044-172.139.809-207.651q-.343-42.518.378-85.031c.131-16.629-.362-33.4.591-49.984 1.885-1.897 3.469-1.384 6.751-1.65"/><path fill="#fff" d="M698.331 364.726c8.31 3.356 27.439 17.261 38.858 22.109 6.623 4.333 35.957 11.473 39.947 16.218 34.705 41.272 28.979 111.131 22.111 160.92-1.62 11.742-2.512 21.492-4.937 28.348-3.574 1.669-2.195 1.578-5.86 1.251-1.469-2.501-1.497-2.296-1.348-5.603 1.576-32.491 4.522-62.896 2.751-95.712-1.612-31.313-14.237-68.752-44.893-82.457-12.51-5.592-26.097-2.231-37.901 3.055a97.2 97.2 0 0 0-19.262 14.013c-41.881 39.454-45.758 111.669-46.996 165.079l-57.962-.066c6.045-14.945 10.431-34.243 16.198-49.994 20.539-56.099 52.929-137.873 99.294-177.161m651.409 1.131c4.48.159 17.3 16.36 20.63 20.315 33.78 40.14 52.03 91.161 70.37 139.645 8.11 21.452 12.84 44.718 20.28 66.436-6.32-.033-54.29 1.022-56.49-.492-1.92-12.631-1.05-30.486-2.16-44.206-4.3-53.073-14.28-96.745-55.68-132.807-28.2-19.716-53.43-8.35-70.71 18.83-24.56 38.606-19.29 82.7-18.59 126.029.12 7.136 2.49 25.875.46 31.897l-1.7-.246c-1.92-1.781-3.04-3.926-3.51-6.508-10.6-58.015-16.92-129.773 13.86-182.515 6.88-2.404 14.81-4.335 22.13-6.888 23.12-8.056 40.3-17 61.11-29.49M355.484 653.693c3.875-.164 8.116-1.025 10.779 2.037 1.014 10.727.182 28.557.083 39.788l-.405 67.352-3.338 242.73c-.268 66.99-.984 133.99-2.149 200.97-.13 11.38.492 62.97-1.34 69.88l-2.868.93-17.097-.12c-.376-38.25.508-75.74.93-113.94l2.88-218.264 1.818-166.581c.202-27.981.283-55.965.383-83.944.032-9.081.722-9.038 8.202-11.022 4.435-5.433 2.378-21.898 2.122-29.816m128.578.527c5.011-.007 13.498-.82 17.427 1.398 2.148 2.491 2.781 4.477 2.701 7.869-.395 16.815-.763 33.718-.893 50.526l-1.505 137.184-.969 207.383c-.687 70.45-2.596 143.44-2.059 213.67.009 1.78-.173 2-.696 3.72-4.364 2.38-14.668 1.34-20.092 1.11-1.078-38.65.204-80.34.811-119.08l1.787-148.32 1.655-188.844c.241-53.495-.12-113.393 1.833-166.616m375.639-467.334c5.969 7.105-4.112 43.192-.781 55.635 2.769 10.341 2.298 8.775 7.905 18.932a765 765 0 0 0-10.783 3.477c-4.465 10.952-1.933 21.376-6.656 30.866-11.395 22.891-33.771 17.803-52.308 20.513-5.596.818-23.028 37.174-26.574 45.85-13.746-4.635-36.486-16.298-48.948-24.378l-2.03-1.996c1.253-4.146 10.791-21.111 13.488-26.484a372 372 0 0 0 17.006-40.094c5.073-.141 9.216-.086 13.231-3.462 1.404-3.331 1.412-2.08.769-5.267-3.46-2.864-9.33-2.432-13.645-4.665-7.349-3.647-7.203-26.412 2.058-27.268 8.975-.83 16.079 10.545 23.177 15.554l.861.599c24.643-10.053 66.801-36.887 83.23-57.812"/><path d="M847.906 209.145c2.916-.315 3.601-.304 6.534-.072 2.541 2.439 1.809 1.004 2.348 4.415-2.567 4.732-14.128 6.453-20.581 8.781-2.485 1.266-4.103.953-6.454.041-1.269-3.049-1.175-1.504-.07-4.8 6.119-6.031 9.969-6.132 18.223-8.365m-9.199 56.311c11.86.786 10.897 10.309 5.547 18.156-8.996-.598-10.25-11.695-5.547-18.156m-1.005-33.907c11.188.466 11.495 7.7 5.65 15.69-9.497-2.076-10.048-8.111-5.65-15.69"/><path fill="#fff" d="m1542.98 654.344 18.23.101c.82 22.21.5 44.44.76 66.668.83 57.828 1.26 115.661 1.31 173.495l3.86 380.422-1.06 1.32c-7.12.77-10.91.6-18.13.28-2.31-143.09-3.57-286.192-3.8-429.299-.24-63.646-2.44-129.479-1.17-192.987m-147 431.306c4.95 7.12 7.77 16.78 10.8 24.87l56.74 152.76c2.03 5.58 7.9 6.89 9.42 11.68l-1 1.55c-21.42 1.66-43.56.34-65.08.41q-38.28-.3-76.56-.15c.34-3.83-.31-7.76-.69-11.56 7.29-.5 16.54-.1 23.27-2.92 10.83-12.75 36.94-149.47 43.1-176.64m-744.891-4.05c5.085 15.21 6.399 32.74 9.302 48.59 4.209 22.99 9.563 46.11 15.291 68.78 4.589 18.15 9.776 36.4 15.863 54.1 2.646 7.69 7.743 16.31 9.304 24.01-24.94 1.3-50.588-.04-75.597.04l-52.896-.22c13.247-15.93 21.746-42.88 29.356-62.3 8.982-22.93 18.258-45.84 26.604-69 7.674-21.3 14.449-42.94 22.773-64m535.261-897.724c8.99 7.175 18.82 12.02 27.8 19.19 9.51 7.593 29.34 37.019 42.22 34.399 3.08-1.741 4.09-4.341 5.93-7.491 11.21-4.972 25.94-6.55 25.68 9.602-.25 15.383-13.17 16.981-20.73 22.967-1.28 6.807 6.37 16.395 10.15 21.895 12.05 17.55 22.18 27.9 42.11 35.386 2.21 5.453 8.29 13.607 7.42 18.193l-2.82 1.91c-12.46 6.8-30.67 15.688-44.05 19.184-2.05-4.948-19.22-45.054-25.72-47.434-3.87-1.417-21.37 4.45-30.55 2.845-27.5-4.802-30.42-21.77-32.26-45.802-.44-6.343-9.29-6.564-14.9-6.971 22.11-31.169 2.64-41.303 9.72-77.873"/><path d="M1191.55 210.984c6.95-.46 15.93.908 20.62 6.528.99 3.893 1.04 2.232-.61 6.389-5.96.247-14.8-2.012-19.75-5.73-1.82-3.596-1.32-2.277-.26-7.187m8.25 21.782a7.48 7.48 0 0 1 7.65.473 7.48 7.48 0 0 1 3.22 6.958 7.483 7.483 0 0 1-14.23 2.351 7.475 7.475 0 0 1 3.36-9.782"/><path fill="#fff" d="m641.407 653.455 1.651-.322c2.949 1.672 3.515 1.771 4.229 5.677 7.184 39.322 13.019 79.028 26.178 116.982-23.235-2.007-52.715-6.277-75.457-10.548-51.975-12.351-50.304-31.426-33.907-76.265 3.975-10.87 7.886-23.591 11.293-34.649 21.008-.821 45.662.611 66.013-.875m758.143.405 73.66.064c4.74 17.847 10.57 35.185 14.7 53.388 7.73 34.073-2.03 45.189-34.44 53.902-24.23 7.165-54.64 10.898-79.8 14.071 10.05-25.718 14.59-60.006 20.27-87.654 2.28-11.074 2.72-21.954 5.61-33.771M355.089 605.009c94.397-1.979 192.112 2.66 286.486.72a1140 1140 0 0 0 2.855 30.037c.429 1.918.469.971-.51 2.841-4.794 1.317-58.842.452-68.635.454l-220.22-.003zm1048.391.022c6.38 1.865 43.77 1.099 52.68 1.079l149.73-.223c12.03-.033 76.83-1.532 83.98.948 3.28 5.699 2.51 25.333 1.7 32.107l-291.95.037c.52-7.989 2.02-26.738 3.86-33.948M256.536 517.524c16.913-2.328 41.695 9.857 53.926 21.057 17.989 16.473 27.53 35.401 28.978 59.709-11.897-.391-24.718-.163-36.69-.158l-81.767.798c-.648-24.571.612-51.693 1.364-76.339 13.032-4.299 20.929-4.925 34.189-5.067m1525.914.695c16.02-1.327 27.01.13 41.36 7.95 1 24.217 1.37 48.455 1.11 72.691q-34.335.138-68.67-.07-24.96.209-49.92-.202c2.84-14.288 6.93-29.517 15.66-41.327 14.68-19.851 36.02-34.904 60.46-39.042M220.672 610.282c37.219 1.62 81.728.615 119.432.549.151 15.637.466 39.963.244 56.549l-1.367 1.69c-13.29.671-31.59.127-45.26.116q-37.087-.038-74.172.434.405-29.673 1.123-59.338m1569.558 3.222c11.32-.188 23.25-.621 34.48.316.16 9.88 2.42 46.994.24 53.579-8.22 2.452-68.77 1.528-81.2 1.514l-36.43.052c-.45-15.401.32-41.48-1.29-55.369 28.06.492 56.14.461 84.2-.092"/><path fill="#fff" d="m519.652 653.903 43.076.066c-3.356 10.775-7.355 21.452-10.544 32.252-7.452 25.238-21.304 50.286 1.142 71.569-4.988 16.726-8.527 33.667-12.736 50.586-6.135 24.659-12.041 48.912-17.007 73.864a540 540 0 0 1-8.281 41.362c-.53-15.681.498-33.525.735-49.477l1.354-101.588q.196-44.331 1.011-88.655c.16-7.14-.305-23.849 1.25-29.979m967.398.381c13.57-.474 27.29-.184 40.89-.03-.17 20.33.79 41.465.87 62.004l1.57 194.338-.65-.84c-2.98-9.181-6.46-33.154-9.06-44.46-8.62-37.443-17.16-71.589-29.17-108.071 22.22-22.989 8.34-51.602 2.82-78.935-1.54-7.619-4.41-16.877-7.27-24.006M274.551 1086.67c.749.3 1.27.39 1.804 1.02 9.231 10.89 11.605 31.86 10.152 45.56-3.888 36.65-33.776 63.89-60.969 85.57l-7.51 5.19c.242-30.42.773-60.84 1.594-91.25 20.141-13.29 38.57-28.35 54.929-46.09m1497.069 2.04a313 313 0 0 0 56.58 46.27c-.35 10.58 2.27 85.17-.18 87.96l-2.52-1.32c-24.43-17.25-53.87-43.86-62.88-73.39-6.73-22.03-1.31-39.99 9-59.52M275.802 1190.19c9.077 11.64 12.622 27.73 12.771 42.2.235 22.72-8.123 46.03-24.341 62.29-10.412 10.45-19.452 7.64-33.299 7.61-4.582.48-9.542-.08-14.152-.27.523-19.83 1.696-39.88.883-59.7 21.758-14.8 40.899-32.34 58.138-52.13M1769.19 879.578c11.81 12.74 39.94 36.932 55.63 43.164 1.21 30.728 1.17 58.987.99 89.798l-6.77-4.37c-40.1-30.456-84.44-76.025-49.85-128.592m.62 104.867c5.72 2.495 25.44 22.205 32.41 27.865 7.54 6.12 15.5 11.54 23.57 16.92 1.07 18.93 1.22 37.85 1.39 56.8.08 9.97.79 20.47-.32 30.36l-1.23.35-3.86-2.86c-13.57-11.21-26.07-19.15-37.73-32.94-24.98-29.54-35.56-61.85-14.23-96.495m3.37 209.265c16.94 18.26 35.96 35.07 56.9 48.64-.15 19.73.86 39.44.77 59.18l-15.36.33c-9.13-.13-18.26-.18-27.39-.16-14.76-14.21-25.65-32.42-28.34-52.95-2.5-19.11 1.54-39.61 13.42-55.04m-4.97-415.783c18.54 19.503 32.75 31.397 55.33 45.425.05.564.1 1.128.14 1.692.6 8.947 2.77 76.803-.48 80.557l-1.83-.542c-34.28-24.1-73.74-57.486-64.35-105.132 1.72-8.734 5.75-15.133 11.19-22m4.32-93.558c2.65.593 9.11-.351 12.12-.66a597 597 0 0 0 37.83 38.744c-.3 4.359-.37 8.705-.21 13.07.87 23.629.25 47.344 1.72 70.947l-9.52-6.224c-21.87-13.917-48.8-41.847-55.16-67.824-3.18-12.944-3.92-44.426 13.22-48.053M277.572 981.51c5.197 3.041 7.074 15.652 8.391 21.23 11.038 46.82-25.478 81.85-59.292 107.39-3.414 1.8-3.09 2.29-6.437 2.24-.723-4.42-.051-20.64.064-26.06q.506-28.41 1.541-56.82c18.678-11.29 43.215-29.937 55.733-47.98m-.28-100.839c1.128.432 2.566 1.038 3.144 2.237 26.158 54.227-12.597 94.855-52.281 125.322-1.153 1.03-4.883 3.4-6.358 4.39.037-28.903 1.253-57.599 1.238-86.584 19.515-10.468 40.409-28.113 54.257-45.365m1.228-103.592c5.911 7.167 8.941 20.498 10.299 29.602 5.833 39.098-28.349 75.738-57.587 97.177l-7.417 4.032c-.253-24.286.926-59.926 2.257-84.085 21.032-17.164 33.742-23.977 52.448-46.726m-17.38-93.219a306 306 0 0 0 15.863 2.198c28.919 44.751-1.837 79.395-35.965 108.242-4.359 3.744-10.575 8.308-15.22 11.946-.946-23.115.918-53.251 1.546-76.647.375-13.942 22.934-37.087 33.776-45.739m514.81 115.963 1.114.924c2.512 5.846 8.396 46.802 7.46 52.13a30 30 0 0 0-.464-2.519c-1.182-5.268-9.962-31.233-16.73-29.593-5.393 10.16 9.115 34.941 4.501 43.996-3.848-7.564-7.66-36.448-14.78-36.594-8.992 10.651 5.074 37.387.069 44.598l-2.106-.969c-3.223-3.411-3.263-7.814-3.947-12.564-.458-4.941-1.652-14.84-5.798-17.691-12.099 2.257-.296 26.589-5.373 33.769l-1.85.226c-4.906-5.705-2.996-25.082-10.064-31.136-8.328 4.388-.781 24.087-5.313 29.608l-1.841-1.169c-5.286-8.202-7.594-52.751-7.63-64.307 22.841 5.055 42.662 3.506 62.752-8.709m494.61-1.06c22.4 12.679 40.88 14.563 65.79 11.933-.71 20.192-3.66 41.936-7.48 61.783-2.47 2.82-1.38 2.342-4.59 3.343-2.63-3.78 4.54-29.573-2.64-34.452l-2.12.742c-4.56 4.768-4.35 30.757-11.25 34.479-4.15-5.243 4.36-27.364-.76-37.302l-1.67-.461c-2.88 2.153-3.34 3.74-4.94 6.933-1.6 7.546-5.24 22.047-9.17 28.57-3.78-6.146 9.1-42.204 1.69-46.369-6.97 3.54-13.04 27.197-16.41 35.343-4.75-4.899 13.83-37.073 4.03-44.171l-2.11.819c-5.17 5.504-10.03 23.109-13.36 31.831.33-14.369 2.09-39.267 4.99-53.021m65.85-452.921c5.32-.289 6.55.184 8.9 4.607-1.13 13.285-62.96 34.356-75.07 37.57-3.75.637-3.49 1.272-5.93-.213-1.27-3.058-1.72-5.498-2.45-8.695 20.13-6.721 57.4-20.79 74.55-33.269m-623.404-.861c14.273 14.627 55.079 30.165 75.15 35.217-1.632 3.967-2.553 6.987-5.352 10.239-27.226-6.886-53.076-20.676-77.1-34.959zm595.554 922.489 3.99-.1 1.38 1.33c.95 2.65 1.2 3.88.4 6.6-5.37 4.11-44.18 1.76-53.58 1.72l-5.81-.36-.78-1.14c-.07-2.59.07-3.78 1.5-5.97 14.32-3.55 36.83-.12 52.9-2.08m212.29.13c2.86-.39 6.57-1.29 9.42-.82 2.09.34 2.25 1.05 3.33 2.69.04 2.89.36 4.35-1.03 6.93-9.61 1.86-20.52.64-30.32.52-3.85.08-7.57.22-11.39-.47-1.8-1.44-2.07-1.29-2.33-3.55 4.61-4.88 25.33-4.66 32.32-5.3"/><path d="M521.965 1275.99c4.4.05 14.892-.33 18.503 1.28l-1.164.53-.025-1.2c-2.195 2.2-4.425 1.56-8.279 1.56-3-.02-6-.06-8.999-.13z"/><path fill="#929493" d="M522.001 1278.03c-3.57-.2-7.86.42-10.645-1.12 3.304-1.41 6.911-.98 10.609-.92z"/></svg>