<svg xmlns="http://www.w3.org/2000/svg" preserveAspectRatio="xMidYMid meet" viewBox="0 0 2048 1462"><path d="M1063.59 578.44c31.77.637 26.18 16.261 45.7 30.204 5.37 3.839 13.41 4.328 19.39 7.186 13.96 6.675 13.52 22.181 21.18 33.254 5.61 8.114 13.6 11.569 17.43 21.524 3.36 8.718.74 17.645 3.11 26.122 1.17 4.176 4.29 7.829 5.74 12.031 5.41 15.705 1 27.666-5.93 41.777 11.19 16.533 17.99 41.048 11.11 60.409-2.09 5.889-6.19 11.274-7.47 17.433-1.91 9.204-.29 19.641-1.47 29.098-1.3 10.416-5.69 21.201-14.36 27.617-9.88 7.317-21.01 7.545-32.66 5.956-2.07 5.244-5.22 9.807-9.55 13.446-8.84 7.447-18.98 6.216-29.61 5.231a972 972 0 0 0-1.97 38.545c11.79-1.739 23.67.132 35.22 2.724 14.51 3.257 28.11 8.976 42.08 13.919 25.09 8.879 55.46 16.777 77.07 32.607 17.03 12.467 23.83 29.907 32.07 48.437 5.2 11.7 10.86 23.25 15.21 35.3 10.46 28.94 16.36 62.54 19.24 93.18 1.24 13.17.85 26.44 2.27 39.61 2.07 19.31 3.68 38.49 5.51 57.79 1.34 14.14 3.25 28.28 3.84 42.48.99 24-2.93 47.75.9 71.76-38.32-.84-76.67.2-114.99-.81-.87-36.82-3.75-73.38-5.23-110.16-.87-21.84.17-43.99-1.59-65.71-.41-5.04-1.24-11.08-5.24-14.53-2.41-.01-2.47.26-4.38 1.78-5.4 12.22 7.37 163.32 7.9 188.71-24.71 1.84-50.48.41-75.32.43l-156.04-.06h-89.892c.922-34.1-.654-68.08-.834-102.17-.135-25.56 1.393-51.79.058-77.26-.172-3.28-.38-7.64-2.329-10.38-1.012-1.43-1.215-1.11-2.801-1.38-.928.47-1.117.51-1.977 1.29-1.673 1.51-2.533 4.71-2.716 6.87-1.07 12.59.819 25.84.764 38.53-.211 48.27 1.198 96.36 1.954 144.6-25.092-.28-50.185-.41-75.279-.38-14.551-.02-29.415.59-43.909-.67-.171-.24-.374-.45-.512-.7-2.768-5.03-.218-17.66-.182-23.54.139-22.76-.379-45.55.647-68.3 1.137-25.2 4.074-50.49 6.009-75.65 1.337-17.37 1.716-34.66 4.024-51.98 3.708-27.83 8.59-57.34 17.486-83.97 6.559-19.63 27.21-63.48 41.631-77.02 23.061-21.647 87.345-40.149 117.84-49.014 8.863-2.576 32.556-5.27 37.196-7.64 4.36-8.387.535-33.628-.253-42.98-6.639 6.987-12.412 10.552-21.401 14.057-7.053-2.588-11.784-7.287-18.283-10.546-7.405-3.714-15.682-5.834-22.53-10.638-21.864-15.341-10.635-40.782-20.304-55.813-6.698-10.411-22.504-10.092-29.319-20.977-2.988-4.772-3.162-10.425-3.319-15.89-.988-34.451 18.898-36.216 25.233-60.065 2.834-10.67-2.964-21.324-.52-32.042 4.641-20.362 23.696-29.96 32.578-47.648 6.206-12.358 6.541-29.692 15.876-40.191 4.077-4.584 10.453-6.854 15.439-10.326 8.271-5.758 15.317-13.2 23.916-18.543 17.431-10.83 38.789-11.033 58.269-6.611 13.04-5.139 24.06-9.725 38.28-10.313"/><path fill="#fefefe" d="M1000.67 709.49c3.02 1.858 5.91 5.663 8.49 8.214 7.1 7.026 20.54 20.247 30.56 21.012 7.44-1.892 12.98-10.39 17.87-15.886 2.3 6.883 4.77 12.7 8.92 18.674 8.76 12.621 34.3 38.741 49.76 41.607 6.38 1.184 13.24-.577 19.77.558 1.56 1.656 2.46 2.848 2.8 5.155 1.4 9.41-4.44 19.508-9.85 26.665-5.08 2.495-12.43 1.657-16.53 4.799-16.59 12.689-17.13 40.583-27.61 57.779-6.47 10.624-17.9 19.36-27.06 27.741-6.61 5.219-13.88 10.176-22 12.646-10.46 3.182-19.09.818-28.67-3.813-31.812-15.387-36.658-42.138-50.242-71.551-2.582-5.591-5.208-12.58-8.967-17.465-4.966-6.454-12.984-8.766-19.867-12.501-4.563-2.475-8.358-6.513-9.717-11.61-1.25-4.688-.514-11.178 1.841-15.456 4.416-2.578 10.79-1.818 15.818-2.45 18.91-2.374 52.308-58.348 64.684-74.118"/><path d="M1027.78 802.288c1.74.505 3.94 1.061 5.12 2.519 5.17 6.37 7.19 43.405 6.24 52.272-.51 4.736-2.4 6.363-5.94 9.238-1.92-.108-3.96-.174-5.82-.71-2.59-.744-4.47-2.201-5.64-4.643-1.06-2.202-1.45-4.418-1.37-6.842.21-6.514 5.33-45.843 7.41-51.834m32.18-23.701c11.34.626 26.35-.002 36.3 6.166 2.71 1.682 5.19 3.398 5.95 6.619l-1.14 1.765c-3.66 1.054-5.71.072-9.31-.88-7.54-2.008-15.1-3.539-22.9-4.063-6.66-.446-14.42.528-20.81-1.325-1.92-1.812-2.21-1.777-2.51-4.536l1.77-2.001c4.29-1.825 8.07-1.763 12.65-1.745m-59.44-.02c2.13-.227 4.27-.41 6.4-.236 4.7.383 10.85.917 13.97 4.559l-.85 1.825c-8.97 5.207-27.651 2.864-38.822 5.23-4.809.218-10.034 2.309-14.764 1.807-2.368-.252-4.683-.455-6.222-2.316 8.93-8.857 28.239-10.079 40.288-10.869m65.68 17.327q1.71-.068 3.42-.101c5.71-.101 10.57.763 14.74 5.136 1.68 1.761 2.63 3.954 2.34 6.412-.47 3.971-3.08 6.573-6.04 8.938-1.73.761-3.53 1.664-5.38 2.068-2.59.567-5.86-.262-8.05-1.684-2.83-1.833-4.48-4.818-5.01-8.107-.85-5.322.95-8.604 3.98-12.662m-83.887 1.125c5.063-.257 11.153-.813 15.312 2.629 1.785 1.479 3.025 3.661 3.045 6.011.04 5.387-3.676 9.662-7.235 13.256-1.247.408-2.614.877-3.932.947-2.762.148-6.829-1.896-8.833-3.679-2.738-2.436-4.104-6.291-4.079-9.904.029-4.107 3.031-6.573 5.722-9.26m31.277 83.426c8.53 1.184 22.35-2.514 29.81 1.28 1.76.895 1.75 1.419 2.27 3.182l-1.36 2.414c-8.53 2.227-22.43 2.558-30.74-.54-2.05-.765-2.32-1.018-3.22-2.952.91-2.287 1.05-2.21 3.24-3.384m105.89-88.15c.73.026 1.47.03 2.19.107 2.87.305 3.86 1.435 5.51 3.553.96 4.235-.83 8.692-1.97 12.763-2.83-.273-3.64-.227-6.02-1.91-1.71-4.306-.3-9.958.29-14.513m-190.383 1.167c.815.088 1.279.109 2.033.277 2.304.511 4.2 2.192 5.332 4.227 1.812 3.257 1.404 6.454.396 9.864-1.274-.387-2.587-.779-3.79-1.358-2.098-1.01-4.125-3.1-4.798-5.358-.853-2.863-.48-5.063.827-7.652"/><path fill="#fefefe" d="M1071.67 910.952c1.64 2.152.01 29.995.77 35.615.91 6.824 2.35 16.133 8.12 20.547 3.06-.185 5.87-3.073 8.55-4.457 2.34-1.205 3.24-1.735 5.69-.891.73 2.762.45 4.447-1.11 6.964-9.3 15.027-40.86 33.81-57.43 36.93-15.66 2.95-34.19-5.32-46.749-13.921-7.2-5.273-22.889-17.968-25.181-26.733l1.245-1.02c2.14.803 4.592 1.94 6.886 2.073 2.097.121 3.657-.542 5.159-1.992 7.429-7.173 7.337-38.752 7.327-49.362 11.568 9.063 24.143 18.734 39.533 18.914 16.59.193 35.53-11.437 47.19-22.667"/><path fill="#fefefe" d="M1107.13 962.878c2.83.42 5.34.961 8.02 1.976.09.591.19 1.002.15 1.582-.85 10.187-25.9 34.474-34.58 41.064-18.46 14.02-44.28 23.24-67.45 20.13-32.181-4.32-50.664-24.8-69.032-49.115-2.277-3.316-5.154-7.777-5.258-11.857l1.636-1.234c9.639-1.209 24.151 22.705 31.149 29.454 5.653 5.452 12.512 10.272 19.318 14.162 16.697 9.55 36.087 11.38 54.557 6.2 26.67-7.48 48.32-28.818 61.49-52.362"/><path d="M360.415 309.628c24.756-17.197 49.008-37.717 73.355-55.695 7.957-6.847 23.354-13.477 30.564-20.331 30.597-29.088 62.838-50.409 98.83-72.13 14.496-8.748 29.909-23.427 44.883-33.018 33.088-21.196 66.628-42.05 100.114-62.67 8.127-5.066 42.788-25.877 54.371-26.02 2.042-.025 4.448 3.14 5.526 5.523-.851 8.549-30.373 16.465-39.071 21.383-23.118 14.594-49.126 29.071-71.533 44.526-46.708 32.219-95.07 63.994-141.684 96.177-55.24 38.139-107.818 85.046-160.689 126.507-2.922 2.291-13.337 13.077-16.052 12.993-1.226-1.104-2.343-1.646-2.455-3.02.18-8.477 5.358-20.635 8.599-28.53 13.217-32.19 18.214-68.667 31.139-100.532 6.259-15.432 24.66-29.859 32.106-46.105 7.149-15.594 11.546-27.44 5.985-44.737-3.079-10.73-12.31-23.971-25.114-17.645-24.115 11.915-41.488 48.208-52.535 71.797-6.056 14.21-9.502 34.314-18.039 47.32-32.806 49.982-70.527 100.235-81.147 160.601-1.934 10.997-2.93 22.106-5.026 33.222-6.056 32.117-19.782 58.825-33.666 87.918 18.561-.626 31.209-.373 49.061 9.087 39.422 20.891 71.382 66.921 92.738 105.348 4.167 7.499 10.109 26.717 12.948 35.404 10.308-2.461 24.086-4.139 33.633-8.831 89.342-43.909 162.709-114.75 242.471-173.102 12.271-8.977 40.214-28.514 54.035-31.562 2.977.91 1.824.03 3.427 2.907-4.176 7.718-31.539 21.893-39.866 28.721-29.17 22.747-57.994 47.616-87.844 69.379-64.343 46.91-122.695 111.872-204.193 125.961.311 6.334.653 9.985 1.693 16.222-4.809 12.236-10.339 19.165-20.221 28.114-38.615 34.969-84.363 61.586-120.42 99.408-3.796 3.981-8.751 6.92-12.765 10.657-.204 1.533-.815 4.611.423 5.717 5.152 5.218 16.295 11.932 20.503 17.508 13.174 17.453 31.142 36.719 43.293 54.359l.756 1.109c12.202-14.031 32.012-42.658 44.553-58.673A6473 6473 0 0 1 434.69 693.733c31.962-39.194 62.093-80.402 99.764-114.432 6.732-6.082 31.024-30.149 40.073-28.38 23.51 4.597 22.269 22.274 19.878 40.82 11.103-13.253 36.014-36.207 53.168-37.834a24.76 24.76 0 0 1 18.768 6.215c10.156 9.171 8.777 18.687 9.472 30.54 13.204-17.093 35.376-53.888 62.684-39.783 11.687 5.373 20.986 32.114 18.246 43.538-5.053 21.064-26.337 53.425-38.044 71.692l-9.612 20.316c3.161-4.306 7.913-10.364 10.318-14.906 6.096-9.017 13.573-16.687 24.546-19.148 7.983-1.791 17.295-1.006 24.151 3.757 6.358 4.418 9.116 11.072 10.438 18.399 12.362 68.501-117.98 219.777-157.333 276.482l6.422-5.037c21.118-16.339 37.512-20.594 63.474-14.343 10.801 2.6 19.487 6.672 26.327 15.743a42.73 42.73 0 0 1 8.123 31.564c-5.618 37.414-45.457 36.544-69.206 62.504-17.407 19.03-29.606 34.61-43.289 56.74-4.965 8.04-13.28 21.6-18.702 28.61-20.637 26.66-47.953 51.08-75.304 70.65-9.191 6.57-18.344 11.55-27.569 18.49 5.156 11.71 28.809 37.63 36.915 50 9.088 13.87 14.31 24.94 21.962 39.56a1283 1283 0 0 0 26.274 47.34c7.746 13.06 17.297 25.38 23.596 39.12 1.759 3.83-4.872 8.4-8.757 8.99-12.435-2.11-57.143-88.9-65.483-105.5-10.667-21.23-21.892-32.66-35.888-51.09a780 780 0 0 1-30.999-44.49 784 784 0 0 1-38.564-66.09c-3.858-7.6-11.99-29.19-16.357-34.84-37.073-47.91-69.491-100.177-109.711-145.459-6.303-7.096-16.897-13.12-23.425-20.842-21.399-25.312-41.473-51.505-62.31-77.241-7.632-9.405-23.516-9.951-21.303-24.93l.121-.773c-28.756-44.207-49.365-58.602-92.812-85.312-2.285-6.527 6.27-12.851 6.294-20.913.117-39.379 1.351-78.794.674-118.169-.144-8.384-.47-18.122-1.751-26.321l-.199-1.22c7.73-7.542 17.344-15.652 25.501-23.001 20.337-18.325 32.996-31.462 57.769-43.619 6.397-12.017 10.887-27.547 16.498-39.904 18.007-39.66 25.897-79.136 35.937-121.075 8.758-36.586 38.257-66.408 54.265-100.151 19.436-40.97 36.696-83.86 59.894-122.966 28.466-49.518 84.185-48.527 83.268 15.214-.1 6.995-7.676 21.116-11.173 28.277a860 860 0 0 1-24.436 47.404c-3.996 7.089-15.285 24.635-17.532 30.533-7.147 18.756-13.313 41.676-19.336 61.166"/><path fill="#fefefe" d="m724.342 564.219 8.719 2.619c2.254 3.08 4.542 6.419 5.973 9.967 1.624 4.025 2.41 7.527 1.551 11.851-3.62 18.219-14.989 34.364-23.915 50.327-25.025 44.754-51.323 88.215-82.021 129.398-9.085 12.188-41.61 49.896-45.527 60.013-1.742 4.498-1.426 8.899.751 13.185a17.55 17.55 0 0 0 10.29 8.83c3.557 1.14 8.612 1.027 11.829-1.05 11.627-7.509 30.872-37 39.3-48.896 14.984-21.148 30.889-41.522 45.321-63.081 12.496-18.668 23.505-38.732 36.774-56.796 3.081-4.195 7.681-10.606 12.487-12.925 2.172-1.047 4.754-1.274 6.988-.304 4.003 1.738 6.249 6.151 7.632 10.067 17.576 49.762-114.871 209.987-146.195 254.367-13.937 19.746-24.585 41.313-37.456 61.698-7.608 12.051-15.24 24.171-23.026 36.101-5.179 7.94-11.564 16.06-15.467 24.65-1.054 2.32-1.594 4.22-.494 6.63 1.221 2.69 3.979 4 6.611 4.88 12.077-2.6 31.143-38.44 38.647-49.56 15.586-23.098 53.493-64.68 81.493-69.748 10.724-1.941 25.327.808 34.211 7.25 5.676 4.116 9.32 10.103 10.312 17.063 2.647 18.569-17.703 27.465-31.18 34.185-47.411 23.63-69.166 72.82-98.714 113.03-8.742 11.9-18.87 22.33-29.394 32.65-9.157 8.98-18.753 16.73-28.981 24.44-5.61 4.23-35.468 23.71-37.364 26.44-.153.21-.286.45-.429.67-5.344-1.05-47.147-72.55-50.841-82.7-11.642-32-26.905-47.85-47.061-75.5-23.96-32.85-48.579-68.447-75.227-98.935-8.637-9.881-21.418-18.823-31.173-28.592 3.886-4.069 7.191-8.024 10.543-12.533 16.609-22.341 33.912-44.111 50.942-66.132l94.338-119.653c17.668-22.513 117.651-151.415 139.385-150.849 2.319 1.147 3.454 1.647 4.49 4.216 7.585 18.807-66.658 129.943-80.975 151.034-13.01 19.168-28.572 36.314-38.295 57.483 2.061 3.263 2.489 4.399 5.654 6.585 2.832.186 5.7.102 7.581-2.255 56.89-71.275 94.427-159.356 171.82-212.657 3.86-2.658 4.84-2.755 9.122-1.965 2.475 2.025 5.201 5.249 5.296 8.878.73 27.787-28.977 68.308-41.798 93.445-7.542 11.314-15.567 21.946-22.974 33.383-22.038 34.031-38.887 70.612-65.794 101.305-2.17 2.475-2.522 4.451-1.845 7.388 3.907 5.02 8.732 7.266 13.803 2.147 29.195-29.472 46.921-68.978 68.783-103.82 15.328-24.427 33.378-46.225 50.302-69.495 16.264-22.397 31.1-46.606 49.291-67.481 5.408-6.205 8.434-8.012 15.907-11.248"/><path d="M1282.14 40.18c3.51.088 8.21.3 11.41 1.741 43.5 19.576 84.23 45.298 124.93 70.055 3.16 2.161 6.7 4.129 9.74 6.421 35.65 26.817 72.71 50.761 109.62 75.619 14.54 9.79 28.88 25.293 43.16 36.169 35.17 26.802 70.14 53.619 107.1 77.942-6.05-17.552-10.78-41.349-18.52-57.45-13.58-23.811-24.34-49.743-37.67-73.528-12.19-21.74-24.34-47.961-7.72-72.18a29.8 29.8 0 0 1 19.35-12.637c39.22-7.213 66.82 56.906 79.93 84.595 3.98 8.402 8.45 16.551 12.22 25.053 6.49 14.632 12.27 29.759 19.86 43.864 15.87 29.485 38.7 55.783 50.69 87.111 8.68 22.692 11.96 46.638 18.36 70.002 6.72 24.502 16.56 47.816 26.05 71.34 4.21 10.415 8.06 23.537 14.15 32.937 3.93 6.059 72.42 54.39 82.93 61.479.46 9.763-.07 20.944-.05 30.937l-.3 83.679c0 9.805.28 41.287 2.11 50.675 2.56 2.294 3.26 2.59 4.4 5.685-.14 1.116-.3 2.439-.49 3.967-4.6 3.61-15.18 9.812-19.84 12.501-29.16 16.842-54.2 45.471-73.79 72.699 2.97 18.38-12.96 17.526-22.4 29.19-22.08 27.304-44.03 54.772-66.17 82.066-3.42 4.214-11.23 6.266-15.08 10.438-41.73 46.457-72.27 102.01-111.49 150.5-4.19 8.3-8.55 17.71-12.04 26.28-9.34 24.37-25.28 44.88-38.25 67.14-20.08 35.6-50.09 65.44-69.71 101.18-14.22 25.91-27.73 52.53-42.62 78.2-5.14 8.87-11.14 22.81-20.85 27.36-8.08 3.79-14.33-6.95-8.89-13.78 19.85-29.91 36.61-61.67 53.5-93.32 21.26-41.21 53.42-74.1 77.25-113.55 14.29-23.65 29.2-44.09 38.81-70.44 1.66-4.54 6.64-14.97 9.37-18.58 27.3-36.12 52.21-73.91 78.79-110.558 14.05-19.444 27.55-38.516 47.46-52.56 5.16-3.643 7.35-5.306 10.18-11.001l.53-1.088c-18.56-21.237-34.57-48.402-51.92-70.513-32.68-41.613-69.25-84-101.86-125.163-22.53-28.433-114.32-148.638-142.76-152.451-1.42.723-2 .556-2.47 2.189-5.09 17.583 63.4 122.758 75.64 140.357 12.26 17.619 32.87 41.297 42.06 59.45 2.43 4.788 4.23 10.104 2.5 15.396-2.54 1.992-.69.903-3.08 1.36-3.5.673-11.56-5.108-13.64-7.993-5.73-7.987-11.88-17.355-17.63-25.646-12.63-18.234-25.97-35.809-38.53-54.046-8.9-12.923-17.01-29.332-26.2-41.829-5.6-7.615-15.31-17.636-21.68-25.152-11.79-13.922-24.23-28.843-37.44-41.314-7.31-6.902-28-24.266-37.71-24.011-2.22 1.044-3.41 1.502-4.33 4.033-8.21 22.499 61.24 126.739 75.34 149.04 10.2 16.126 19.89 32.584 30.46 48.475 8.09 12.172 23.15 30.077 28.92 42.092.93 1.947.91 3.914.14 5.926-.66 1.721-1.82 3.045-3.51 3.784-3.85 1.68-6.8.315-9.95-2.128-5.23-4.07-9.22-10.673-13.1-16.013-17.96-24.68-32.13-50.437-48.33-76.156a671 671 0 0 0-38.73-55.358c-9.04-11.636-18.89-22.975-27.66-34.87-14.96-20.375-27.61-42.755-44.76-61.43-4.65-5.064-11.31-7.326-17.54-9.869-11.21 3.371-12.09 3.923-15.8 14.953 5.4 26.495 16.01 37.025 27.5 59.664 19.6 38.609 41.42 69.603 67.55 104.028 16.52 25.051 35.39 48.153 53.17 72.231 16.47 22.318 19.15 34.287-13.1 34.972-14.1-9.576-28.31-33.364-39.21-47.245-17.68-22.788-36.04-44.824-52.07-68.882-6.8-10.209-13.18-20.006-19.31-30.618-4.8-8.304-24.7-40.484-35.43-35.06-6.38 7.956-8.74 30.16-5.14 39.494 14.26 36.893 40.22 77.077 62.38 109.035 12.08 20.831 26.73 38.701 41.34 57.317 35.77 45.587 67.37 91.557 93.3 143.458 5.36 10.72 29.25 32.31 26.95 44.38-1.22 1.19-1.28 1.58-3.06 1.92-17.25 3.26-49.01-54.97-60.3-68.432a227.7 227.7 0 0 0-38.59-36.086c-11.69-8.62-26.26-16.044-41.18-13.236-20.77 3.908-31.56 17.235-27.99 38.368 16.33 21.116 43.2 21.786 60.32 39.666 13.85 16.13 35.1 36.4 45.89 54.58 20.25 34.15 41.26 62.43 71.82 88.1 12.44 10.44 29.26 19.63 38.53 32.95 2.77 3.96 2.35 11.94-2.81 13.98-6.01-.54-19.25-12.39-24.82-16.8-21.5-17.03-53.38-42.88-69.44-65.42-22.62-32.37-43.01-67.33-71.34-95.25-21-20.68-59.65-17.94-65.1-54.054-4.07-26.977 15.95-47.705 41.36-52.301 22.17-4.011 42.74 6.983 59.98 19.56-41.14-63.951-93.33-119.226-128.97-187.579-15.72-30.136-31.88-51.025-23.16-88.384 2.61-11.192 6.26-15.772 15.65-21.661 29.22-2.359 34.15 18.832 50.98 36.991l.91.974c-14.85-35.225-49.92-73.348-51.09-112.757-.49-16.25 16.46-28.999 32.4-27.453 28.09 2.725 37.63 29.953 53.4 47.663l.96 1.061c-5.69-19.143-10.58-34.281 8.67-46.721 1.82-.079 9.31-.397 10.65-.189 25.39 3.937 52.3 32.633 67.56 50.905-4.34-9.518-11.28-21.949-11.24-32.502.02-5.378 2.69-9.951 6.62-13.53 3.43-3.132 7.82-4.607 12.46-4.314 39.27 2.481 149.56 150.233 178.71 186.097 24.69 30.382 50.84 59.968 74.61 91.041 18.16 23.744 33.6 50.433 53.52 72.742l.88.975c19.57-21.76 43.1-61.141 68.5-73.975-7.88-12.905-29.1-30.113-40.82-39.755-29.16-24-101.52-73.944-119.06-104.864l1.23-14.046c-28.64-3.389-69.49-27.095-94.15-42.51-27.05-16.905-55.23-44.394-80.69-64.248l-111.15-86.525c-18.08-13.919-44.16-30.168-58.44-46.73 4.23 1.346 9.9 4.522 13.83 6.784 100.92 58.121 182.35 146.431 285.65 201.134 9.67 5.12 35.7 16.439 45.27 17.013 5.39-9.712 9.89-22.621 15.13-33.011 8.08-16.027 18.91-27.323 28.52-41.416 26.1-38.282 60.62-66.393 106.9-75.324 2.91-.561 5.02-.139 7.06-2.212-11.16-18.904-27.53-62.373-32.99-84.254-3.61-14.435-4.56-35.792-9.47-52.153-5.31-17.681-11.49-33.289-18.74-50.38-13.16-31.389-36.97-57.961-53.49-87.276-18.63-34.545-24.23-67.997-48.04-100.531-12.2-16.672-34.07-39.307-51.5-8.133-5.84 10.446-.49 32.099 2.87 42.493 2.67 8.262 8.68 17.12 14.94 23.392 23.76 23.133 30.23 51.661 39.18 82.288 6.07 20.767 12.65 42.975 22.04 62.737 1.85 3.896 4.94 10.659 3.23 14.845-4.66 1.382-8.7-1.104-12.32-4.101-54.3-44.96-108.59-90.162-164.42-133.207-12.54-9.663-25.18-16.113-37.88-24.922a4430 4430 0 0 0-112.92-77.225c-27.81-18.015-56.71-34.891-86.81-48.808-6.52-3.016-28.29-5.963-25.87-14.159 2.25-2.524 3.97-2.755 7.24-3.864"/><path fill="#fefefe" d="M1424.22 807.599c7.58 4.338 16.84 17.92 20.69 25.819l-1.4-.199c-7.5-4.89-15.19-17.604-19.29-25.62"/><path d="M796.56 30.843c5.716-.579 17.111 1.351 23.268 1.856 7.843.642 14.835.666 22.69.73l99.46.342c8.205-.008 35.571-1.873 40.79-.043 2.455 4.567 1.96 10.907 2.578 16.009 6.556 54.175 32.194 105.582 26.374 161.591-2.57 24.769-20.336 41.326-20.626 66.878-.408 35.925 13.296 66.753 19.466 101.341 2.07 11.847 6.02 45.229-14.494 43.475-49.298-4.216-51.092-83.902-65.583-118.787-.462-1.111-2.554-.553-3.502-.475-21.173 14.053-51.808 123.868-62.6 154.198-7.553 21.227-16.405 42.074-25.03 62.886-5.505 13.281-10.331 27.987-19.051 39.501-4.742 6.261-11.155 12.254-19.347 13.046-6.093.59-15.069-1.417-19.701-5.505-6.043-5.334-6.808-14.231-5.815-21.741 2.359-17.839 12.874-36.789 19.145-53.699 7.82-21.091 50.554-144.795 49.31-156.787-.34-3.279-1.58-5.221-4.157-7.174-6.637-2.301-13.001 2.532-16.669 7.763-15.531 22.146-26.86 46.478-39.801 70.004a3444 3444 0 0 1-55.335 96.372c-11.371 21.346-23.523 40.168-46.406 48.176-9.012-4.212-9.827-4.987-14.926-13.592.23-3.458.92-9.945 2.207-13.063 9.537-21.261 19.295-43.111 30.079-63.774 18.556-35.555 35.062-73.252 54.053-108.399l-7.557-19.839c-9.466 10.152-17.975 22.397-27.33 32.943-18.581 20.947-37.1 41.777-55.341 63.032-9.793 10.932-16.677 23.24-27.451 33.384-5.485 6.453-21.52 9.891-28.185 2.997-15.567-16.1.698-37.899 9.399-48.933 29.503-37.414 56.69-74.302 87.816-109.916-3.213-6.413-8.578-16.588-3.306-22.952l2.059.421c4.485 4.438 5.152 8.855 6.36 14.829 6.006-6.889 19.116-21.299 14.794-30.69-5.744-4.579-12.083-1.467-16.863 3.166-21.891 21.219-41.342 45.894-61.52 68.779-12.137 13.765-22.401 28.686-36.554 40.592-12.72 10.701-19.917 3.442-27.973-6.756-1.876-12.307-.175-23.544 7.46-33.717 16.487-22.517 38.972-40.946 55.87-63.111 16.756-21.979 35.585-44.153 50.945-67.09 32.191-48.074 59.485-99.959 86.938-150.843 4.714-8.736 8.449-17.952 13.485-26.46z"/><path fill="#fefefe" d="M765.487 302.77c22.738.442.43 27.411-4.984 34.713l-1.689.846c-3.259-3.336-2.414-9.344-6.396-16.144 4.048-8.012 6.768-13.042 13.069-19.415"/><path d="M1223.44 32.574c3.67-.798 29.05-.528 33.85-.389a2720 2720 0 0 0 59.61 118.598c13.46 25.36 26.89 50.823 42.92 74.683 9.88 14.704 22.64 30.068 34.54 43.284 18.16 20.169 72.99 70.003 75.05 96.561.46 6.009-.99 14.007-5.19 18.518-1.79 1.93-4 3.054-6.66 3.091-20.84.29-62.29-59.166-75.23-75.168-6.9-8.521-13.95-16.385-22.03-23.802-.51 6.639.84 13.315.46 16.338-4.35-1.422-16.07-16.593-16.71-21.777 1.38-2.593 1.83-3.081 2.1-5.919-2.65-6.727-12.35-12.934-19.61-12.136-5.18 2.976-6.26 8.837-2.96 13.712 7.49 11.074 17.81 19.961 26.21 30.511 21.69 27.436 42.24 55.793 63.48 83.6 13.59 17.8 30.77 37.544 35.22 59.81a58.7 58.7 0 0 1-5.06 12.63c-6.29 11.353-12.71 10.596-21.93 3.254-18.03-14.368-31.71-32.297-46.91-49.283-14.22-15.883-29.93-30.742-43.33-47.466-5.54-6.787-18.1-26.001-23.47-29.709-3.81-.174-3.34.435-6.95 3.061l-1.8-.292c-3.02-3.817-7.85-9.974-8.99-14.72-1.31-5.45 2.7-2.807 5.52-7.479-1.16-7.271-13.32-25.779-22.88-17.493-3.98 11.737 13.15 32.198 18.33 42.428 27.94 55.201 61.31 107.664 87.18 163.925 3.13 6.816 3.65 13.374 4.08 20.736-6.35 19.188-26.61 12.525-37.39 1.928-26.91-26.457-43.5-63.52-61.98-96.111l-48.4-84.713c-6.23-10.982-19.37-45.273-31.57-16.595 3.99 16.677 9.46 30.26 14.68 46.348a3935 3935 0 0 0 31.52 95.199c4.27 12.453 10.49 25.372 13.8 37.944 6.48 24.671 18.54 46.72-13.44 56.296-6.22-2.044-9.82-3.108-14.15-8.441-9.48-11.674-16.59-29.818-22.7-43.777-19.54-44.266-35.99-89.795-53.28-134.869-7-18.259-22.16-72.064-36.86-79.95-7.39 1.496-8.53 19.219-10.89 25.948-9.94 28.24-15.35 66.382-40.48 85.48-15.04 11.429-37.04 10.012-36.51-14.046.98-44.296 24.53-83.309 23.75-127.831-.27-15.348-8.42-31.087-13.61-45.304-10.91-26.995-1.83-50.46 2.7-76.753 5.03-29.204 12.7-52.165 23.26-79.583 4.13-10.726 7.33-27.935 10.08-39.417 45.61-2.189 95.66.573 142.63-.86M725.588 132.803c2.17.223 1.366.053 3.371 1.144.754 3.501-9.809 23.087-13.308 26.52-9.381 9.206-20.836 17.371-30.94 25.559-10.89 8.825-24.253 20.275-34.755 29.036-14.875 12.408-69.748 54.082-78.037 67.754-1.825 8.825 20.03 32.142 14.713 46.968l-2.059.025c-6.297-5.607-7.489-10.68-10.348-18.384-3.588-7.119-27.409-50.714-28.294-54.32l1.171-1.855c7.832-2.796 11.196 6.165 14.479 11.792 18.567-17.44 36.212-32.805 56.059-48.865 35.626-28.825 69.618-60.112 107.948-85.374"/><path d="M1317.76 129.708c16.8 3.878 151.34 118.844 171.56 137.507 3.73-5.155 6.88-10.656 12.9-12.836l.99 1.337c-.69 10.215-12.3 26.362-16.96 36.882-4.48 10.114-6.82 14.696-10.21 25.658-1.34 4.231-5.31 11.787-7.33 17.148-4.97-4.342-8.09-7.268-12.56-12.105 8.9-10.429 18.53-29.809 24.88-41.917-23.99-23.196-52.11-41.484-76.8-63.64-22.23-19.957-45.59-38.788-68.33-58.033-6.04-5.106-16.53-22.185-18.14-30.001M471.777 351.61l3.205 1.623c1.588 2.104 1.811 4.775 1.684 7.31-2.323 46.271-17.643 84.49-41.814 123.375-15.841 25.484-23.331 41.061-44.827 63.254-2.544-2.109-2.597-2.196-3.829-5.209.648-6.917 27.077-41.676 32.856-52.666 13.175-22.393 23.013-46.779 32.899-70.327 4.007-9.543 17.447-64.738 19.826-67.36m1103.213.242c5.13 2.408 7.17 11.042 8.3 16.109 13.88 61.888 37.9 116.367 77.15 166.126 2.29 2.895 1.65 7.456.54 10.897-16.04-6.495-53.06-69.757-61.04-85.913a296 296 0 0 1-14.48-35.823c-4.34-13.212-16.34-59.836-10.47-71.396m-271.76-2.331c12.02-.332 20.91 24.014 27.69 33.67 9.46 13.473 47.29 44.397 52.43 56.78l-.7.984c-11.57-7.16-22.57-18.628-34.59-25.617-2.05.991-8.19 4.172-9.41 1.374-5.43-12.387-34.94-56.691-35.42-67.191M708.338 389.37c2.221.628 2.416 1.054 4.136 2.567 1.853 4.175 1.582 14.833.746 19.413-4.47 24.475-24.519 16.896-45.532 31.749-2.952 1.006-1.528 1.076-4.406-.309l-.15-2.299c1.685-2.703 3.709-5.072 5.876-7.397 13.366-14.341 25.838-29.499 39.33-43.724m701.872-23.042c12.44 2.198 32.19 31.35 46.47 32.655 6.05.552 16.43-9.804 21.1-13.82-1.55 5.301-2.39 8.48-4.8 13.421a991 991 0 0 1-11.51 17.835c-18.02-15.018-43.95-28.672-51.26-50.091m-585.423-15.707c2.082 1.382 4.657 4.847 6.398 6.918-7.892 15.808-15.302 23.564-27.454 35.536-1.976 1.117-.905.863-3.37.489l-.972-2.444c1.304-8.366 18.635-34.278 25.398-40.499m102.84 49.006c2.1 1.451 1.963 1.408 3.418 3.536-.94 3.22-35.413 48.55-39.931 53.359l-2.275-1.353-.615-2.591c2.001-8.653 31.828-45.333 39.403-52.951m287.173-49.655c10.57 3.255 30.06 30.518 31.82 41.011-12.5-6.962-36.59-24.041-31.82-41.011m-93.58 49.568c9.05 1.103 31.21 37.948 36.6 46.135 2.8 4.264 2.99 5.377 1.48 9.825-7.01-2.455-30.16-43.872-37.89-50.841-1.62-1.454-.74-3.306-.19-5.119m200.45 636.9c1.67.13 2.99.51 4.57 1 6.84 6.41 19.62 34.48 20.21 43.82-.19.02-.37.05-.56.06-2.71.13-5.02-.14-6.91-2.26-7.77-8.74-17.21-30.98-17.31-42.62M832.816 678.325c1.308.419 2.468 1.035 3.694 1.644l.403 2.181c-4.178 11.34-21.495 39.246-29.34 49.381-1.806-.911-2.786-1.448-4.064-3.087 1.904-10.708 22.165-38.855 29.307-50.119m381.374 4.107 3.28.349c3.36 2.423 5.29 6.154 7.37 9.664 4.75 8.038 18.94 28.967 16.6 38.139-2.79-.466-4.19-.746-5.95-3.227-4.47-6.297-22.33-38.53-21.3-44.925m-127.67-244.846c3.17.549 4.24.229 6.47 2.966 6.93 8.515 25.11 37.843 24.46 47.766-2.96-.181-2.86-.065-5.36-1.57-3.93-6.945-8-15.398-11.7-22.521-2.84-5.451-14.39-21.72-13.87-26.641M755.514 785.475c1.948 1.514 2.241 1.728 3.073 4.028-1.276 11.221-13.514 32.943-21.772 40.467-.549-.241-1.39-.574-1.845-.945-1.046-.852-1.452-1.538-1.451-2.85.001-5.968 17.06-36.108 21.995-40.7m-33.408 257.045 3.491 1.2.978 2.3c-1.089 10.28-12.9 31.37-18.703 40.34-1.618-.84-2.523-1.64-3.729-3.01-1.467-11.67 11.962-30.87 17.963-40.83m235.385-605.182c1.693.274 2.495.777 4.05 1.503l.514 2.431a548 548 0 0 0-14.874 27.675c-2.929 5.856-6.179 13.778-9.698 19.005-3.023-1.179-1.964-.21-3.557-2.66.293-9.722 17.77-38.09 23.565-47.954m465.719 710.222 2.51.55c5.18 3.8 8.94 11.42 11.92 17 3.46 6.47 9.04 15.12 6.85 22.39-6.63-2-10.07-8.68-13.28-14.42-3.6-6.43-10.04-18.14-8-25.52M578.064 387.219c6.364 2.36 18.986 13.208 21.138 19.808-.622 4.038-1.002 3.453-3.821 6.832-2.239.934-2.402.805-4.753.862-6.116-4.264-12.168-14.67-14.741-21.928-.799-2.254.645-3.285 2.177-5.574m43.851 761.721 2.479 1.34c.813 1.47 1.302 1.92 1.299 3.67-.016 9.45-10.635 28.92-17.32 35.66-2.044-1.25-2.118-1.39-3.054-3.6.705-8.54 11.047-30.84 16.596-37.07m549.045-657.668c1.89.014 4.3-.115 5.53 1.336 6.48 7.691 22.92 30.313 22.89 39.79-.9-.056-2.97-.196-3.51-.787-6.33-6.994-23.47-32.525-24.91-40.339m118.53 293.143c.37.039.76.052 1.13.116 3.49.588 5.44 3.909 7.29 6.641 3.35 4.928 16.51 26.261 16.83 30.851.06.979-.52 2.679-.72 3.696l-3.04-.108c-1.11-.681-1.87-1.202-2.62-2.311-4-5.947-19.89-33.096-18.87-38.885m-131.8-207.04c3.85 2.02 24.8 30.273 25.89 34.84.47 1.979-.72 3.186-1.66 4.804-.28-.168-.56-.329-.83-.505-5.71-3.731-24.43-28.56-25.41-35.027-.26-1.787.99-2.712 2.01-4.112m109.61 344.113 3.19.367c3.46 2.245 5.95 7.703 8.09 11.19 2.51 4.081 12.24 19.115 12.36 23.473.02.945-.62 2.572-.86 3.544-2.52-.192-4.6-1.585-6.21-3.466-5.69-6.617-16.91-26.5-16.57-35.108m109.46-601.626c8.01 5.402 25.01 29.18 30.69 37.503-4-.184-6.39-.355-9.59-3.094-7.74-6.646-21.44-24.034-21.1-34.409m6.95 799.428c2.6.75 3.49 1.4 4.9 3.75 4.04 6.75 16.35 26.26 14.46 33.59l-3.5-.37c-3.44-2.11-5.38-5.55-7.37-8.96-4-6.86-10.58-20.14-8.49-28.01M777.597 920.418c.978.227 1.989.746 2.921 1.128l.726 2.29c-1.64 9.584-11.205 26.723-18.436 33.089-2.042-.744-2.43-.832-3.756-2.52.212-8.039 13.483-27.025 18.545-33.987m-147.526-546.44c3.336 2.301 3.166 1.371 3.769 4.301-3.735 8.207-17.486 16.49-25.34 21.104-1.821-.45-1.777-.611-3.468-1.532l-.658-2.35c1.731-4.829 19.884-16.899 25.697-21.523M890.353 581.54c1.42.749 1.976 1.316 2.859 2.654-1.434 7.857-20.48 27.01-26.489 34.159-1-.324-1.766-.887-2.65-1.446l-.398-2.24c3.514-10.272 18.611-25.748 26.678-33.127m-16.709-88.093c2.521 1.375 1.579.411 2.867 3.046-1.138 5.771-17.505 30.343-21.558 36.012l-2.47-.763-.862-1.753c1.546-8.997 16.268-28.515 22.023-36.542m116.327-31.065c1.451.901 2.072 1.525 3.352 2.624 2.56 9.796-9.543 27.101-17.696 32.287-1.988-1.004-1.877-.89-2.913-2.86.925-5.472 9.503-14.908 12.27-20.184 1.82-3.471 3.56-8.169 4.987-11.867m65.419-.132c.78.186 3.36.779 3.9 1.841 5.16 10.072 11.91 18.897 17.72 28.465q-.03 2.607-.06 4.036c-11.21-1.734-23-23.687-21.56-34.342m373.14 818.14c4.32 2.26 5.78 6.65 7.73 10.85 3.21 6.92 8.39 16.96 5.66 24.4-5.89-2.79-8.26-9.3-10.63-15.06-2.59-6.27-5.5-13.67-2.76-20.19m-309.12-940.166c6.62 2.414 22.28 29.038 21.88 35.799-2.8-.007-4.8-.406-6.26-3.041-4.86-8.79-16.67-22.917-15.62-32.758M646.462 1191.33c2.889.84 3.557.57 5.161 3.23.521 9.33-7.206 20.46-11.658 28.42-2.285-.05-2.377.06-4.091-1.41-1.328-8.36 7.197-22.26 10.588-30.24m14.797-68.76c1.375.96 2.415 1.38 2.955 3.07 2.568 8.04-7.263 23.28-11.165 29.84-2.376-.9-2.511-.88-3.823-3.04-.015-8.21 6.97-23.44 12.033-29.87m733.321 65.78 2.83.82c1.43 1.19 2.03 2.17 2.85 3.84 3.4 6.91 10.63 20.33 8.16 27.65-.17-.05-.33-.08-.49-.13-4.71-1.45-5.91-4.25-8.04-8.5-3.4-6.76-7.78-16.26-5.31-23.68m-101.03-324.842c1.93.324 3.81.646 5.2 2.179 5.46 6.019 15.44 22.246 14.94 29.837-2.77-.616-4.26-1.312-6.02-3.601-5.17-6.708-15.15-19.85-14.12-28.415m-202.96-332.205 2.91.711c5.66 5.121 16.32 24.631 13.69 32.294-1.73-.616-1.99-.905-3.61-1.868-4.04-7.369-14.07-23.858-12.99-31.137M616.308 1284.31c2.028 1.13 3.877 1.71 4.467 4.23 1.811 7.71-4.823 20.02-9.157 26.03-1.301-.6-2.404-1.39-3.587-2.19-1.966-6.15 5.981-21.62 8.277-28.07m139.243-423.676c2.009 1.151 2.665 1.169 3.517 3.392-2.044 9.263-10.244 17.803-15.928 25.129-2.424-.677-2.444-.596-3.822-2.686.296-7.446 11.57-20.025 16.233-25.835m651.899 474.886 2.21.69c.95.9 1.53 1.56 2.1 2.76 3.52 7.41 8.85 19.1 6.11 27.15l-3.42-1.55c-2.82-3.05-4.57-7.5-5.86-11.4-1.8-5.45-3.88-12.28-1.14-17.65m-770.196 1.91c2.051.86 2.671 1.58 3.963 3.29 1.767 9.02-4.426 20.4-8.721 28.01-1.14-.54-2.134-1.35-3.161-2.09-2.021-6.94 5.135-22.55 7.919-29.21m319.825-806.876c1.693 1.417 1.245 1.1 2.489 3.041-.368 7.28-10.871 22.932-15.667 28.857-2.653-2.378-2.059-1.188-2.722-4.414 1.679-5.648 11.553-23.085 15.9-27.484M786.697 423.519c2.687.58 1.58-.06 3.422 2.001-.375 5.608-12.267 19.605-16.215 24.5l-2.864-1.171-.982-2.338c.824-6.054 12.251-17.91 16.639-22.992m140.909-77.966 2.421.606.832 1.807c-.939 6.651-12.381 18.741-17.098 24.365-2.548-.654-1.427-.058-3.387-2.012.248-5.607 13.142-19.999 17.232-24.766m-263.233-12.57c2.899 2.137 2.496 1.162 3.166 3.969-2.181 6.607-13.067 14.631-18.662 19.326-2.361-1.42-1.308-.497-2.802-3.33.632-5.156 13.964-15.881 18.298-19.965m593.187 500.411c4.79 2.171 8.35 6.738 11.27 10.997 2.83 4.128 5.1 7.111 4.14 12.195-.28-.054-.56-.088-.83-.162-4.91-1.346-9.43-7.306-11.97-11.48-2.64-4.314-3.86-6.591-2.61-11.55m-8.73-66.928c4.68 2.547 10.07 11.505 12.38 16.399 1.62 3.443 1.08 4.244-.1 7.661-4.88-2.007-9.16-8.266-11.39-12.905-2.19-4.552-2.53-6.423-.89-11.155M904.664 517.491c6.194 3.314 2.387 7.293-.507 12.023-2.402 3.928-5.519 7.988-8.206 11.774-3.059-.099-1.885.487-3.826-1.368-.326-5.379 9.13-17.479 12.539-22.429m348.276-88.936c3.11 3.608 9.3 14.984 10.9 19.646 1.1 3.177.45 2.953-1.21 5.99-6.44-3.759-9.86-13.071-11.82-20.085-.72-2.593.68-3.522 2.13-5.551m-465.219 407.84c.622.184.88.219 1.476.619 1.102.738 1.996 1.872 2.092 3.182.373 5.077-7.382 12.794-10.5 16.617h-2.842l-1.149-1.334c-.171-6.261 7.246-14.185 10.923-19.084m354.669-317.018c6.22 1.118 14.93 17.371 15.72 22.988-8.35-.324-16.73-16.092-15.72-22.988m-316.917 88.157c1.049.22 1.904.687 2.87 1.141l.324 2.185c-1.773 5.736-5.677 10.592-10.022 14.623l-2.561-1.121-.519-2.168c1.572-6.017 5.637-10.358 9.908-14.66m401.807 2.033c1.73.235 3.62.428 4.83 1.689 4.35 4.501 7.67 9.059 7.57 15.382-.88-.053-1.12-.034-1.9-.176-3.07-.556-5.34-3.57-7.02-6.016-2.18-3.166-4.24-6.991-3.48-10.879m-210.73-348.064 2.09 1.751c.36 4.302-6.46 12.105-9.45 16.107l-1.6-1.307c-1.45-6.6 4.3-12.698 8.96-16.551M796.688 772.69c.427.246.898.481 1.226.865 1.147 1.34 1.365 2.375 1.034 4.084-.709 3.651-4.522 6.056-7.377 8.017l-1.254-.594c-.74-1.056-1.588-1.644-1.396-3.015.545-3.899 4.944-6.955 7.767-9.357m234.672-511.259c6.16 1.85 8.31 6.501 8.01 12.874-5.39-1.862-8.06-7.42-8.01-12.874"/></svg>