<svg xmlns="http://www.w3.org/2000/svg" preserveAspectRatio="none" style="display:block" viewBox="0 0 2048 1462"><path fill="#fefefe" d="M0 0h2048v1462H0z"/><path d="M500.426 113.417c29.309-2.624 71.201 6.466 98.043 18.703 72.072 32.859 88.508 100.304 73.208 172.353-2.161 10.173-9.196 26.72-9.531 36.752-1.079 32.334 1.884 68.529-12.204 98.645-4.598 9.833-19.398 31.995-30.412 35.896-3.59-.332-2.106.36-4.666-2.021-1.334-4.423-.927-11.552-.9-16.436-4.614 5.404-7.653 8.292-12.93 13.122 31.621 28.689 56.32 103.102 73.654 142.263 10.915 24.663 31.507 65.446 46.349 86.888 33.206-22.051 66.369-48.955 99.369-71.825 13.902-9.635 36.93-28.728 51.301-34.408 7.205-2.848 37.436-.142 47.125.443 1.656 1.178 3.767 2.707 5.162 4.147 31.778 32.712 63.478 65.743 94.156 99.472 12.75 14.014-4.13 20.338-14.28 29.156-7.493 6.511-17.071 13.266-24.985 19.386a332 332 0 0 1 1.496 4.083c5.276 14.73 9.453 31.771 10.452 47.393 5.2 81.288-31.727 183.95-65.892 256.031 10.012 7.19 21.664 13.65 32.361 19.93 21.565-1.23 34.875 2.92 55.148 4.31 29.4 2.02 73.47 1.66 101.97-6.34 11.12-3.12 38.01-15.91 49.33-21.05-8.07-13.09-20.22-28.05-29.18-42.06-39.26-61.392-77.77-127.078-80.53-201.87-1.21-32.615 5.91-62.556 28.71-86.801 18.06-19.199 42.87-30.467 69.26-30.362 41.46.165 64.36 14.102 92.63 40.985 17.94-13.226 37.61-15.372 58.91-17.386 8.13-31.336 16.79-61.922 26.03-92.895 24.42-81.829 36.27-153.669 129.27-180.513-27.31-13.348-31.99-26.897-41.81-53.967-20.19-1.12-24.93-4.482-19.77-24.786-6.72-10.138-10.7-16.863-15.35-27.962 1.19-3.133 3.24-7.422 4.65-10.582-17.64-40.649-33.58-51.831-15.46-100.893 29.84-80.785 130.84-120.303 209.57-90.708 65.08 24.467 100.91 100.362 108.65 165.385 5.06 41.998.8 86.096 18.57 125.504 52.02 22.269 104.25 39.07 133.17 93.471a230 230 0 0 1 17.02 40.294c10.92 34.68 20.39 79.899 27.18 115.996 17.24 91.527 62.2 213.633-21.18 286.077.68 40.543-1.11 85.123.64 125.183 16.56 7.31 33.81 14.71 46.81 27.59 67.53 66.9-22.63 143.65-86.63 163.79-67.36 21.19-138.81 27.97-208.95 33.91a3964 3964 0 0 1-279.94 13.56c-1.17 2.16 1.31 7.66.82 10.18-1.45 8.47-11.73 12.02-19.48 12.03-71.27.09-142.28 5.5-213.51 7.14-8.59.2-18.67-1.42-27.15-3.09-8.82-1.73-17.58-4.65-26.65-4.74-29.3-.19-58.613.29-87.912-.08l-210.648-3.41c-143.337-1.62-290.85 7.42-432.697-10.08-56.913-9.52-154.763-21.99-193.397-68.65-37.866-45.72 22.194-103.27 56.923-128.9-3.788-19.64-4.628-36.85-4.1-56.69-2.52-1.55-4.939-3.88-7.189-5.86-.136-14.77 2.027-38.68 3.039-53.75a5079 5079 0 0 1 6.108-88.535c9.863-127.327 18.135-280.929 70.819-398.912 32.199-72.107 72.391-93.368 142.812-118.469-7.288-12.726-9.596-20.838-15.169-33.887.122 7.156 4.424 26.15-.694 29.982-25.136-3.823-33.849-20.562-41.115-43.242-3.028 7.857-5.181 20.072-10.793 25.896-3.131 1.308-1.66 1.344-4.55.291-5.572-6.005-8.794-21.422-9.341-29.442-2.649-35.141 17.305-67.711 29.57-98.662 32.052-80.89 63.687-139.196 158.71-146.973"/><path fill="#fefefe" d="M378.46 430.889c4.172.788 15.462 20.84 19.292 25.99 18.154 24.409 67.121 89.011 103.11 69.884 21.616-11.488 16.443-62.007 21.521-85.25 18.677 7.192 46.817 17.721 61.23 31.953 42.776 42.238 59.324 108.633 85.127 162.398 14.255 29.702 23.59 45.339 39.96 73.194-9.914 7.543-20.684 15.303-30.272 23.213-9.963 8.22-1.905 10.984-2.126 16.967-3.036 4.552-35.449 28.452-41.189 30.895-5.742-4.685-5.739-5.22-12.504-3.678-2.97-2.677-5.645-23.201-6.655-28.287-9.949-50.082-19.838-100.08-33.235-149.395-3.733-13.738-5.485-29.138-11.287-42.09-1.111-2.479-3.615-3.337-5.959-3.81-5.224 1.53-7.327 8.305-6.157 13.074 13.431 54.742 26.532 109.73 37.341 165.071 3.44 17.607 7.588 35.544 9.922 53.312-30.868 2.243-86.332 16.962-118.264 23.418-2.9-29.877-8.825-66.108-14.333-95.304-9.147-46.761-17.185-94.786-34.1-139.481-4.524-11.957-15.658-52.219-28.024-56.256-4.049.438-2.581-.194-5.641 2.249-4.027 8.845 6.055 22.828 9.349 31.513 30.96 81.616 47.158 175.792 57.875 261.774-12.787 3.963-56.244 15.257-59.195 27.538.496 3.196.396 3.049 2.571 5.417 3.519 1.582 4.143 1.227 8.162.708 52.415-21.293 106.837-32.633 162.312-42.354 11.311-1.983 21.212-3.61 32.707-3.808 33.583 19.117 36.923 66.371 31.582 100.551a942 942 0 0 0-44.317 22.25c-56.722-11.552-107.839 9.816-159.954 28.759a10132 10132 0 0 0-95.508 35.581c-24.899-16.162-26.134-28.868-31.369-57.157-5.687-30.729-9.337-61.769-13.521-92.717l-13.722-99.42c-1.726-11.869-3.511-23.707-5.508-35.543-.796-4.715-2.017-6.938-7.188-7.479-2.342-.246-4.206 1.273-5.943 2.615-3.139 6.181 1.021 26.069 2.115 33.83l7.598 53.948a7998 7998 0 0 0 14.192 104.117c4.584 31.544 8.756 81.091 32.582 102.784-52.742 18.447-96.043 33.567-144.224 62.287 2.709-52.26 7.994-107.962 12.072-161.106 8.95-116.647 18.367-249.406 65.95-357.821 23.701-54.003 58.27-84.689 113.625-104.334M186.423 1151.76c1.21.52 16.462 22.86 22.189 27.68 64.526 54.32 167.745 34.83 247.767 31.38 62.06-2.67 127.75-11.19 192.687-13.05-4.309 6.06-9.304 12.27-13.938 18.32-16.824 21.96-6.81 58.65 20.411 66.59 21.426 5.54 44.459 7 66.466 10.17 71.592 10.3 150.22 27.63 218.221-4.63a4491 4491 0 0 1 73.184 34.41l.26.74c-5.48 2.89-80.625-.18-92.332-.3-64.033-.67-128.051-2.96-192.089-3.08-88.736-.16-177.603 1.89-266.311.33-35.422-.62-71.237-2.18-106.517-5.58-53.544-5.16-181.878-22.96-216.082-65.17-6.304-7.78-8.935-16.64-7.732-26.6 3.45-28.55 32.451-54.23 53.816-71.21m1677.717-49.49c9.06 3.04 26.39 15.24 33.04 21.95 54.58 55.06-31.91 116.92-82.07 132.19-49.99 15.22-104.23 22.08-156.83 27.55-51.65 5.51-103.43 9.65-155.29 12.43-60.35 3.45-127.44 7.39-187.82 6.19-9.41-9.38-27.11-22.21-38.21-29.44-12.41-7.93-29.58-16.9-40.79-25.12 58.49.18 189.73 21.08 197.16-65.47 55.66 38.34 99.15 40.82 165.87 40.7l73.16-.07c58.38-.12 144.91 6.11 179.44-52.31 12.44-21.06 12.63-44.96 12.34-68.6"/><path fill="#fefefe" d="M1342.71 1125.43c17.45-1.78 34.36-1.53 50.42 7.06 22.61 10.95 33.22 48.2 19.78 69.44-20.78 31.09-67.03 32.75-100.84 31.96-34.54-.8-68.77-.47-103.09-2.84-6.21-.43-12.94-4.72-18.11-7.84-26.48-13.38-58.09-30.7-83.64-45.49-2-3.23-3.99-7.72-5.67-11.22 3.16-4.31 6.43-8.26 9.81-12.39 6.92-2.38 25.57-6.14 33.5-7.52 63.93-11.12 133.2-17.36 197.84-21.16M641.69 224.793c10.526 12.439-10.013 72.404-9.16 86.914l.048.744c.492 8.291 8.229 25.867 5.198 33.136-1.329 3.189-14.324 4.433-18.602 5.036-9.75 12.729-18.118 33.483-30.68 49.094-14.682 24.244-40.844 10.2-61.044 13.518-30.018 4.93-17.679 81.366-30.897 96.656-22.31 25.807-96.538-67.031-96.805-82.764 3.672-5.974 10.633-.417 14.991 2.275 22.723 9.307 22.068 1.701 20.07-17.364 3.673 6.16 13.753 24.183 21.929 21.159 4.908-6.232 2.8-15.453 2.017-23.125 4.876 8.82 18.479 34.277 29.751 31.343 3.068-4.206 1.504-25.707 1.52-32.061a617 617 0 0 1 2.297-50.785c2.7-29.07 5.009-30.355 11.878-56.371-2.205-6.007-6.921-13.213-7.925-19.37-1.303-7.991 1.247-27.213 11.712-27.878 5.628-.358 13.182 8.399 17.137 12.229 11.341-3.816 23.368-2.849 35.376-4.049 12.43-1.242 18.631-2.766 30.039-6.706 6.792 1.586 20.158 4.861 26.414 7.744 4.904 2.26 8.709 6.8 15.207 9.28 3.876-.322 2.709.293 5.546-1.819 1.449-2.867 2.126-3.546 1.791-6.569-3.897-7.11-19.912-13.729-27.572-16.743 14.113-8.472 18.006-12.116 29.764-23.524"/><path d="M592.978 280.211c10.708-.216 29.379 3.484 35.486 15.946.916 1.869-.48 4.35-1.48 6.087a126 126 0 0 1-5.468-.191c-3.167 2.07-2.629 3.291-3.924 7.72-3.234 2.596-5.263 3.397-9.264 3.146-7.807-4.757-4.545-15.21-2.203-22.334-5.322.525-20.752 3.483-20.484-4.666 2.255-3.325 3.865-3.881 7.337-5.708m-18.193 77.118c4.935 2.693 17.861 9.975 20.322 14.242-.372 3.48-.584 2.736-3.035 6.011-7.529-.401-17.963-6.025-20.352-13.615.48-4.158.303-2.844 3.065-6.638m-65.659-92.917c3.023.25 3.21.331 6.046 1.489 4.337 5.782-1.119 10.412-5.095 15.058l-4.033-.361c-2.776-2.077-1.921-.756-2.744-4.036.605-4.41 3.467-8.275 5.826-12.15"/><path fill="#fefefe" d="M1562.89 281.735c4.37.247 11.85-.212 14.54 2.221 20.53 18.563 2.34 32.627-3.72 50.124-2.97 8.594-3.27 26.959-3.86 35.598-3.49 50.314 26.2 81.493 34.24 130.328-9.63 9.953-44.05 42.27-58.04 40.405-23.47-3.127-12.69-61.214-19.31-78.36-4.57-11.876-2.48-12.097-11.82-22.333l-.48-1.223c5.47-3.553 10.08-5.393 10.15-12.203-1.06-1.62-2.19-4.117-4.22-3.896-20.37 2.228-36.42 10.389-57.28 2.001-12.17-4.894-22.62-16.246-27.42-28.754-2.65-6.916-3.02-15.034-6.12-22.135-5.15-2.005-14.74-1.954-21.25-2.813 3.37-11.562 5.54-29.754 10.9-40.05.77-1.478 1.63-1.1 3.71-1.344 5.07 4.192 9.22 18.35 16.04 23.779a22.36 22.36 0 0 0 16.84 4.678c11.77-1.665 20.73-11.832 24.23-22.676 2.7-8.351 1.32-14.81-.21-23.216 17.13-6.424 39.34-12.473 57.28-17.183.86-.226 7.79.054 9.21.273 6.46.998 10.61-7.274 16.59-13.221"/><path d="M1473.27 373.729c3.62.303 4 .475 6.86 2.71 4.17 9.075-8.64 18.068-16.06 20.928-3.52-.432-4.97-.76-7.08-3.462.68-6.066 10.77-13.562 16.28-20.176m93.17-83.161c11.63.195 10.53 6.29 8.22 15.114-2.92.424-3.1.555-5.6-.751-3.33-4.456-2.62-8.676-2.62-14.363"/><path fill="#fefefe" d="M1102.87 1193.31c11.88 5.18 38.72 20.93 51.91 27.99 60.45 32.4 114.93 58.03 164.9 105.95-24.82 1.89-51.15 1.17-76.35 2.03-4.92.58-12.01.76-17.1.85-47.97.82-97.7 7.54-145.32 2.48-14.2-1.52-35.14-13.38-48.1-20.36 3.94-8 11.69-18.73 16.26-26.89 15.53-27.72 41.27-63.95 53.8-92.05m286.89-689.932c5.93 2.343 11.72 5.629 17.73 8.197 34.4 14.716 76.37 31.32 114.2 33.383l.52.505c17.28 16.651 28 12.373 48.09 3.134 11.16 3.242 23.69 2.321 35.39 2.203-4.13 24.99-10.14 43.165-19.46 66.992-11.38-.732-23.14-1.341-34.47-2.334a887.5 887.5 0 0 1-135.69-20.47c.29-6.254 4.31-50.875-12.96-36.432-3.03 7.511-1.33 23.814-1.15 33.012-15.41-2.954-29.06-7.615-43.48-13.625 8.45-26.473 15.17-51.572 31.28-74.565M779.879 1207.05c4.33.85 11.73 5.54 15.883 7.72 42.158 22.1 85.135 45.51 129.129 63.8-46.418 17.89-90.303 13.05-138.716 8.1-40.955-6.32-83.454-11.06-124.244-18.39-5.652-1.01-15.41-8.28-17.259-13.59-19.41-55.74 70.754-43.38 101.047-42.63 11.75.29 21.47.92 33.016-4.47zm676.841-432.684c37.37-4.993 104.42 23.21 143.28 34.663.54.664 1.06 1.34 1.57 2.029 14.17 19.182 17.56 51.384 14.06 74.788-32.03-16.774-65.93-19.907-100.62-9.771-5.17-6.784-9.1-13.293-13.58-20.514-10.01-2.381-35.35-3.714-42.52-6.336 2.57-2.672 28.18-2.708 34.36-4.48 1.34-4.425 1.38-5.525-.33-9.12-9.91-8.178-42.34-.493-52.76 5.655-2.64-2.895-4.6-6.188-6.75-9.481 9.56-3.275 16.08-4.781 25.94-6.239 6.55-.971 16.7-1.538 22.39-3.729 4.91-5.677.66-11.774-5.94-12.017-15.56-.574-41.96 4.156-54.31 13.618-2.33-3.562-3.55-5.297-5.2-9.323 5.18-16.576 62.02-6.601 62.4-22.059-8.78-17.55-61 4.29-74.85 8.291-1.73.499-2.58-.587-3.54-1.526-1-15.68 45.35-23.225 56.4-24.449m-40.75-163.843c50.73 11.94 114.29 19.837 165.62 22.003-4.78 22.022-3.58 45.418 1.99 67.133-15.3 3.221-147.33-5.964-162.47-13.048-3.09-5.689-5.04-65.845-5.14-76.088m4.03 93.025c13.77.471 37.56 4.713 52.64 6.206 38.64 4.08 77.46 6.156 116.32 6.218 13.85 28.21 20.34 46.888 11.72 77.695-10.12-2.671-20.9-7.358-30.99-10.555-51.35-16.262-83.22-31.808-138.39-20.743l-5.77-4.537c-3.51-19.858-3.43-34.824-5.53-54.284m-648.486 32.801c4.878-.282 11.15.623 15.874 2.005-.086.1-59.413 14.565-65.377 31.62.205 3.701-.36 2.462 1.725 5.196 12.579 4.644 49.331-38.022 92.863-16.709-1.383.799-12.451 1.065-15.813 1.31-13.494.984-62.552 13.093-66 26.971.693 3.535-.018 2.697 2.252 4.583 9.964.793 32.727-12.347 43.719-14.926 10.243-2.404 31.017-6.958 40.571-1.737 2.185 3.067 1.78 1.605 1.607 5.286-5.139 4.975-32.926 8.113-41.66 11.375-6.681 2.496-8.921 3.31-15.762 6.78-23.048 12.552-30.045 35.495-49.322 54.535-15.65 15.457-27.979 24.213-46.171 36.758.054-35.227-4.226-65.838-29.07-93.104 22.758-16.61 61.951-48.791 86.012-57.526-6.47 4.115-20.31 10.52-16.956 19.051 6.359 4.2 13.299-1.585 19.19-5.162 14.495-8.801 25.174-14.359 42.318-16.306m1097.776-59.933c1.78 1.346 16.44 72.128 18.41 80.688-34.32.877-86.43 7.064-121.63 10.757-3.74.349-5.43.658-9.2-.103-4.09-4.114-11.1-42.529-12.55-49.875 27.61-14.529 93.01-36.961 124.97-41.467m-17.7-76.936 1.9.488c4.7 15.787 9.92 44.317 13.56 61.276-42.91 11.667-74.5 17.353-116.49 36.782-3.11 1.458-6.65 2.694-9.9 3.919a1519 1519 0 0 0-6.67-35.403c5.62-12.777 11.4-30.072 12.81-43.977 41.84-12.805 60.84-17.891 104.79-23.085m-658.04 196.324c48.81 13.573 103.02 148.329 122.8 194.439 12.4-7.929 25.78-14.528 37.94-22.712 22.63-15.231 48.03-30.511 69.07-47.818-10.11-13.975-19.04-24.893-31.03-37.143 21.27 6.787 35.38 5.713 55.3-3.867a737 737 0 0 0 3.94 32.113c-50.66 39.701-80.91 60.639-137.15 92.574-55.17 30.56-109.63 58.89-168.72 81.21-5.64 2.13-17.72 8.17-22.79 7.7-1.34-1.88-.91-3.65-.8-6.06 2.65-3.8 84.54-38.84 94.68-43.67 31.1-14.84 61.78-30.34 91.21-48.276-8.04-14.123-14.81-32.373-21.98-47.941-18.31-39.87-37.22-81.303-63.65-116.448-9.64-12.819-21.7-18.015-31.61-27.828.17-3.787.16-2.647 2.79-6.273m575.6 24.601c8.36.99 20.36 1.398 29.24 2.126a86 86 0 0 1 3.33 3.455c31.84 35.12 35.71 82.979 33.74 127.711-4.87 1.862-9.52 2.821-14.59 4.009-14.15 3.239-32.18 4.685-46.59 5.469 9.5-35.218 5.5-80.208-3.6-115.207-1.88-7.234-11.62-21.843-7.38-27.033zm-71.87-1.019 45.84 1.102c22.93 44.704 25.59 94.115 15.52 142.558-10.47-.157-40.62-2.019-50.37-6.475-.32-.146-1.6-1.347-1.59-1.426 1.33-11.647 4.21-32.774 4.71-43.572 1.15-25.007-1.25-46.354-6.97-70.526-1.69-7.166-5.37-13.705-7.14-21.661"/><path fill="#fefefe" d="m896.708 607.743 15.695.254c25.128 24.598 48.592 50.705 73.071 75.941 6.826 7.038 14.133 14.528 19.996 22.372a16617 16617 0 0 0-246.583 190.643c-3.335-1.393-18.939-14.962-19.393-19.326 4.162.082 8.253 3.527 11.949 5.95 21.488-16.067 43.9-35.703 65.209-52.545l106.436-83.518c10.217-8.036 48.567-36.564 53.876-44.716-3.745-9.886-69.516-82.67-80.256-95.055m926.182-91.299c2.28 1.046 4.36 5.513 5.61 7.788a203.6 203.6 0 0 1 21.26 61.628c-27.75.16-57.18 7.557-83.75 14.936l-16.6 5.339c1.12-26.361-1.88-48.766-6.71-74.453 16.44-3.28 32.69-8.82 49.42-11.292 10.27-1.517 20.46-2.757 30.77-3.946m-201.55 295.797a652 652 0 0 0 57.88 4.962c18.21 43.585 21.17 77.307 13.62 124.599-.82 1.593-.43 1.029-1.87 2.202-3.61-2.4-7.15-5.34-10.37-8.236-15.98-14.347-33.19-27.191-49.6-40.956 1.18-20.257 2.4-40.564-2.28-60.51-1.73-7.412-5.7-14.489-7.38-22.061m-135.76-363.926c37.08-8.13 27.58 57.401 31.61 81.459-24.94-5.049-41.33-8.399-65.07-16.821-19.22-5.891-34.93-15.765-52.02-21.061 22.94-25.257 52.18-38.633 85.48-43.577m361.15 517.698c.65.059 1.82.511 2.5.733 2.1 7.2 1.59 74.404 1.39 85.654-37.83-4.86-46.18-12.76-74.32-38.23l-44.46-37.804c33.7 5.352 83.11 2.361 114.89-10.353m-432.48-751.49c6.7 6.672 12.42 14.826 19.28 21.282 26.66 25.079 52.09 36.63 85.04 50.231-13.48 4.132-27.66 8.767-41.35 11.845l-2.9.479c-22.27-12.021-41.9-1.618-57.74 14.47-4.83.057-12.59 1.771-17.56 2.7-.95-36.06-6.15-67.209 15.23-101.007"/><path d="M1446.59 266.372c6.42-.791 24.01-1.108 27.63 5.273a6.03 6.03 0 0 1 .44 5.009c-1.72 4.85-7.67 4.887-12.03 4.713-13.75-.547-22.38-.063-35.06 5.614-6.08 2.916-18.87 10.158-22.98.728 1.02-14.38 30.38-20.107 42-21.337"/><path fill="#fefefe" d="M1883.57 772.509c2.73-.21 3.22-.409 5.76.765 5.49 13.834 8.15 59.111 8.45 74.423-27.27-22.217-49.14-32.12-83.56-38.71-13.7-3.177-31.99-3.962-45.96-4.067-2.86-6.289-5.74-14.906-8.15-21.536 40.05-4.45 83.22-7.645 123.46-10.875m-529.84-179.487c17.31 5.892 29.67 9.501 47.57 13.83 1.73 15.55 1.63 50.918 2.08 68.082l-14.76-2.101c-20.56-4.436-34.19-7.979-53.78-15.588a4101 4101 0 0 0 18.89-64.223m468.11 233.516c29.23 7.098 51.68 19.373 73.06 40.573-4.54 23.468-9.02 36.59-21.83 57.29-5.51 8.567-12.67 16.158-21.28 21.638.63-39.325-5.58-87.378-29.95-119.501m-106.48-386.217c41.13 15.124 69.92 32.668 101.36 62.725-4.76.165-10.16.691-14.96 1.055-17.73 1.199-44.45 8.531-61.46 13.369-8.84-31.138-13.24-46.39-24.94-77.149m-384.28 232.126c24.2 8.579 47.4 14.767 72.83 18.084 1.45 17.898 2.72 36.097 5.03 53.886l-7.22-7.806c-14.29-13.913-26.91-24.834-47.98-14.52-13.01-6.508-19.94-7.842-34.24-9.547zm197.9 328.203c2.65.55 2.99.77 5.45 1.98 4.4 5.44 8.58 29.55 10.54 38.07 9.3-2.97 41.99-16.2 48.59-15.02 2.88 2.24 2.11 1.01 3 4.43-3.76 11.78-42.4 16.57-48.82 22.2-27.34 23.96-58.44 37.72-90.28 54.91-14.34 6.83-29.06 14.1-43.67 20.23-3.67-1.69-7.44-4.13-10.93-6.24 10.73-5.83 25.91-12.42 37.32-18.03a1603 1603 0 0 0 51.46-27c14.91-8.12 31.17-16.38 43.03-28.5-2.78-12.44-6.77-24.96-8.67-37.51-.82-5.4.03-5.81 2.98-9.52m-319.34 102.72c4.51-.85 22.01-.76 27.3-.67 35.6.62 77.44 2.3 112.63 7.17-11.31 1.38-26.41 1.65-38.06 2.32-22.07 1.28-44.11 3.02-66.1 5.21-20.42 1.87-40.8 4.26-61.1 7.16-9.35 1.36-58.52 10.81-62.93 10.11-.43-6.36 14.8-12.09 19.92-14.37 21.58-9.61 45.05-13.92 68.34-16.93m-228.512-14.32c47.842 7.44 75.032 6.57 124.082-.48 1.32 4.4 3.05 9.14 1.89 13.53l-2.31 1.11c-30.59 6.67-57.2 5.61-86.45 10.06-12.27-8.38-25.489-15.92-37.212-24.22m745.082-371.848c3.17 2.971 18.72 74.271 23.9 87.408l-12.73.15c-4.75.122-9.6-.508-14.33-.98 3.83-21.543-.33-43.244-4.51-64.308-1.05-5.268-3.38-14.813-3.09-19.702 3.12-1.972 6.97-2.066 10.76-2.568M1104.4 1119.34l3.2-.39 1.04 1.5c.42 11.58-13.29 28.87-20.71 37.52-5.24-2.31-20.51-12.32-26.53-15.94l-24.55-15.88c20.09-.72 48.32-3.79 67.55-6.81m-411.112 49.33c5.377.66 62.406 24.66 70.223 28.31-9.338.44-20.016.24-29.261-.91-24.714-.65-44.323-1.67-68.643 2.47 8.649-9.77 18.672-19.83 27.681-29.87m573.202-364.023c9.91-.007 10.3 4.519 27.91 2.646q1.35 1.063 2.67 2.171c10.92 9.182 35.05 29.319 45.7 41.121.12 1.438.23 2.672.32 3.702-9.67-1.251-67.73-36.284-77.45-43.633-1.02-3.108-.7-2.12.85-6.007m178.98-496.495c3.57-.262 10.49-1.025 13.65.107a14.87 14.87 0 0 1 8.43 7.86c5.39 12.089-2.97 24.382-14.22 29.109-9.26-2.268-10.26-14.338-16.06-21.27-2.15-2.577-3.96-4.538-6.37-6.868 5.05-5.299 7.96-6.444 14.57-8.938m17.17 557.757c10.72.978 18.87 1.387 29.24 4.803l7.68 11.239-13.89 7.086c-6.22 3.169-13.42 8.431-19.29 12.458-1.8-11.553-2.69-23.886-3.74-35.586m-551.905-67.792c-.06 1.202.083 1.103-.478 2.114-13.274 23.931-32.465 36.295-57.44 44.048l.128-1.399c14.926-13.445 41.188-32.78 57.79-44.763m454.805-64.005c3.82-.428 6.97-1.012 10.43.889 7.37 4.043 31.44 26.368 33.65 32.99l-1.84 2.652c-1.02-.096-3.43-.2-4.16-.809-12.38-10.266-26.97-23.498-38.98-33.874zm242.01-215.364c1.27 4.101.78 12.454.68 17.07-6.52.607-13.21.827-19.76 1.128-.37-2.675 16.07-15.615 19.08-18.198m-397.31 237.645c9.51 1.059 11.75 10.886 11.76 19.251-10.68.959-10.68-11.294-11.76-19.251m-18.98-12.086c7.7 2.484 12.35 15.85 11.11 22.885-8.36-1.473-12.39-16.124-11.11-22.885m39.59 23.122c8.06 1.512 11.97 11.864 12.21 19.123-9.19-1.282-12.68-10.76-12.21-19.123m21.61 11.171c6.16.922 11.81 6.527 12.67 12.739l-2.25.422c-6.44-1.733-9.68-6.684-10.42-13.161m468.83-90.959c2.54 7.299 6.05 12.159-.93 16.913-2.97-1.477-2.58-.722-3.87-3.145-.32-4.239 2.87-9.738 4.8-13.768"/></svg>