<svg xmlns="http://www.w3.org/2000/svg" preserveAspectRatio="none" style="display:block" viewBox="0 0 2048 1152"><path fill="#fefefe" d="M0 0h2048v1152H0z"/><path d="M980.118 86.456c29.462-1.754 64.592.582 94.232.813l223.01 2.971c7.23.114 19.85-1.06 28.8-1.064l120.75.064 298.49 1.1 105.15-.226c8.54-.005 44.58-.777 50.96 1.133 5.04 14.393 3.49 140.608 3.68 163.138l2.78 463.862.75 156.349c.15 18.932.87 37.967.96 56.868.06 12.72-.95 26.17-1.09 39.042l-.25 67.934c-.11 8.79.22 19.87-.51 28.27a9903 9903 0 0 1-108.97-45.71c-18.52-7.86-38.25-17.08-57.35-23.151-3.25-1.032-10.46-.859-14.13-.801-.18 8.272-.35 14.632.39 22.852-23.65 12.68-67.97 10.24-93.74 6.61-.9-.12-4.54-3.01-5.45-4.07-2.98-3.46-7.27 4.18-11.39 3.56-16.48.68-34.55.25-51.01-.84-8.31-.55-22.25-4.29-30.23-4.31-20.18-.07-37.02 1.14-57.29-1.09-11.89-1.31-28.73-8.55-37.57-8.95-32.25-1.48-65.31-.31-97.5-.27q-101.325.795-202.65-.6c-12.95-.2-102.73-2.14-108.11.16-3.19.96-61.3-1.22-70.447-1.19-59.338.2-118.653 2.08-178.016 2.06-55.092-.02-110.337-1.8-165.407-1.01-18.283.26-34.386 8.86-52.406 10.83-17.137 1.86-34.15-1.12-51.22-.12-13.38.77-26.639 3.42-40.048 4.1-14.437.73-29.061-.57-43.451.56-8.979.7-17.912 2.76-26.868 3.82-27.307 3.26-55.431 2.01-81.871-5.98l-.841-24.722c-3.689-.969-7.239-2.324-10.829-3.615-39.091 18.197-78.429 33.907-118.229 50.477-6.429 2.67-46.67 19.86-51.036 20.37l-.728-1.52c1.497-15.55-.387-51.68-.657-68.777a2873 2873 0 0 1-.166-126.093c.208-12.515-.139-24.959-.377-37.468-.108-5.686 1.879-7.288 3.335-12.487-.556-.475-2.707-2.361-2.71-3.057-.445-98.205 1.841-196.965 2.571-295.348l1.1-218.305c.167-57.872-.895-147.874 2.543-207.916.129-2.255 3.057-3.354 4.937-4.205 5.175 1.674 88.594-.709 100.616-.8l199.623-.748c15.97.076 24.948 2.725 42.174.118 10.86-1.644 30.968 1.873 42.822.186 4.305-.613 9.155-.263 12.124 2.798 4.966-4.372 11.661-1.933 17.387-2.423 39.667-3.392 407.305 1.669 413.363-3.179"/><path fill="#fefefe" d="M619.034 162.253c8.363 2.403 59.961.316 72.824.672 20.7.571 45.17.108 66.275.713 1.27.361 7.106-1.756 7.616-1.625 8.558 2.203 16.278 1.806 25.102 1.759l116.222.16 305.027-.331c42.47-.06 87.6 1.066 129.76.21 22.68-.497 45.36-.781 68.05-.852 2.9.01 24.74.506 25.64.804 1.96 7.863-3.48 29.883-2.55 39.016 2.02 22.31-.66 44.009-.6 66.081.24 88.733 10.98 176.913 9.75 265.731-.2 14.53 2.81 50.235.53 61.991-2.35.406-6.06-.892-7.53-2.766-34.16-43.557-71.79-85.48-105.91-128.872-.72-8.347.53-16.889-1.05-24.992-2.09-10.704-16.85-4.959-23.06-8.75-2.09-10.148 37.14-40.975-2.98-58.605l-15.25.645c-14.27 9.771-26.06 42.586-30.84 44.333-2.74 1.002-7.15-.81-10.49.444-12.23 4.59-24.08 14.626-35.46 21.314q-55.68-.23-111.36.636c-3.56-10.843-4.25-24.142-9.67-34.396-8.82-16.682-25.43-29.318-43.45-34.539a68.4 68.4 0 0 0-53.131 5.908c-32.281 18.085-42.848 55.199-36.011 89.948 4.783 24.307 18.666 37.563 11.063 64.587l-1.028.52c-1.537-2.804.011-15.617-.608-20.19-2.041-15.078-12.265-27.507-13.038-43.019-.205-4.12-.581-5.656-3.597-8.291-5.978-1.161-23.254-.575-30.14-.552l-58.68.142c-22.609.05-191.992-1.732-199.137 2.077-3.436 10.528-2.17 67.963-2.253 83.016q.306 111.039-.81 222.073c28.145-1.339 60.603.478 89.241-.256 24.364.203 48.833-.478 73.178.344 3.879.131 11.512.52 12.079 5.036-.923 1.093-2.239 2.675-3.846 2.703-38.306.662-76.675.859-114.993.74-21.356-.066-43.047.353-64.37-.313-.598-59.369.468-121.12.409-180.771l-.173-143.136c14.38 1.184 48.508.262 64.204.325l147.536-.045 60.974.03c8.672.026 24.896 2.902 29.605-4.66-.3-3.842.231-2.384-2.019-5.522-3.057-1.581-7.506-1.783-10.968-1.767-64.569.295-129.296-.294-193.836-.079l-64.979-.022c-10.847.038-21.727-.063-32.555.529-6.275.343-9.688 3.858-9.927 10.156-.469 12.331-.305 24.725-.29 37.072l.052 66.744c.063 75.451.739 153.759-.215 228.944l6.934 4.162 129.702-.019c17.266-.007 39.274.801 56.155-.055-.483 5.768-.412 10.809-.376 16.563-26.879 1.096-205.028-2.594-213.762 1.909-2.411 1.243-2.654 2.121-3.312 4.537.321.925 1.776 4.136 2.902 4.195 16.392.858 33.02.514 49.453.528l149.79-.155c.144 15.808 2.8 22.598 12.227 34.463-18.564 1.43-51.184.272-70.772.175-42.055-.208-84.408.193-126.369-.704-5.514-.118-11.853-.223-15.993 3.751-1.388 2.973-1.333 3.372-.559 6.579l1.48 1.404c69.488.62 209.561.235 270.79 1.001-2.546 6.215-3.785 13.069-5.228 19.654-6.896-.408-19.669.166-26.882.271q-27.764.575-55.534.504-92.124-.936-184.252-.836c3.004 29.23 4.014 77.442 3.024 108.655-.041 1.28-2.116 1.885-3.284 2.388l-1.516-.915c-1.408-3.533-1.634-33.767-1.591-39.779.202-28.424-2.339-56.076-3.458-84.395a1441 1441 0 0 1-.908-80.174c.212-25.022 4.877-51.436 4.291-75.519-1.27-52.198-1.524-103.032-.867-155.17l.352-70.427c.498-34.517 3.062-68.902 4.417-103.364 1.548-39.363 1.983-78.995 2.573-118.395.172-11.553-2.398-95.329-.804-99.582.613-1.636 1.525-1.64 3.044-2.302m-306.326-1.125c20.341 1.617 45.639.441 66.418.569l154.928.581c6.285.069 41.769-.265 44.296 2.318-1.306 9.708-.362 31.59-.275 42.041 1.117 37.47 1.089 75.042 2.051 112.488 2.211 33.453-2 66.885-1.78 100.337.259 39.266 2.718 81.315.534 120.503-3.427 61.478.148 120.735 3.641 182.03 1.786 31.351-.845 65.256-.145 96.729 2.701 57.3 2.342 114.585 6.865 171.73.221 2.784.286 4.285-1.19 6.589-9.264 4.617-58.862 8.437-65.496 3.427-.397-4.013-1.691-12.875-.967-16.463-2.949-6.072 2.691-7.319.163-11.536-2.5-6.468-.809-16.6-1.097-24.358-.393-10.563.811-8.562-3.356-18.956.855-1.849 1.188-2.195 2.407-3.73-5.805-4.823 2.299-11.508.913-14.564-3.022-6.665-3.446-2.588-2.37-10.938.861-6.674 1.608-13.736 2.369-20.323l-1.767-1.259c-1.948-4.573 3.216-8.157 2.211-15.468-1.438-.375-1.334-.359-2.422-1.384-.266-4.518 2.22-16.878 2.896-22.516-1.108-1.734-1.3-1.976-2.781-3.438l-.364-.355c1.592-.982 1.732-.828 2.752-2.317l-2.396-2.451c-1.093-3.322 3.235-11.737 2.897-12.569-3.982-9.797 1.05-21.628 2.522-32.306l-2.499-1.392c.619-5.535.266-11.232.895-16.506.92-7.73 2.155-12.461.202-20.406-.304-1.235 2.068-5.951 2.585-8.112 1.603-6.706-4.901-17.44-.973-23.202 4.661-4.196-1.22-10.565-.448-12.831 2.174-6.381 5.093-6.003 2.604-14.119-1.809-6.492 1.571-9.184 2.107-16.828l-2.022-.493c-.609-3.471.328-3.438 2.628-7.193l-2.008-6.775c.778-2.372 1.128-3.015 2.33-5.222-.828-12.867 1.596-25.373 1.52-38.369-.114-19.379-.696-39.42-1.798-58.824.475-6.434 1.976-13.792 1.826-20.224-2.21-94.607 13.075-188.074 8.218-282.755-.989-19.278.212-38.954-3.034-58.097-1.217-7.182-3.896-17.455-12.609-17.838-8.451 2.25-11.416 17.81-11.837 25.235-2.107 37.135-2.951 74.224-3.03 111.414-.045 21.295-2.653 43.103-2.819 64.468-.171 24.671-.058 49.098-.442 73.771-.538 34.589-4.749 68.06-6.417 102.545-1.29 26.661.649 52.284-.039 78.675l-2.613 122.26c-2.478 84.94-4.475 162.341 1.527 247.589-17.444 4.34-41.73 3.65-59.491 2.51 5.001-38.815 3.898-74.05 3.363-112.652q-.291-42.07.213-84.138c.675-37.361 4.711-73.197 6.233-110.263.832-27.646-1.252-55.153-1.072-82.821.384-59.183 3.754-118.171 5.695-177.287-.868-36.54 2.868-74.482-.983-111.724-1.857-17.965 7.082-122.273-12.533-127.948-17.052 3.024-11.396 59.606-12.059 71.697-1.763 32.14-3.661 64.17-1.134 96.349.613 7.81-.73 15.988-.623 23.871.08 5.8 1.99 13.207 1.721 18.671-1.846 37.425-2.62 74.338-1.806 111.818 1.282.743 1.23.741 2.226 1.85.705 5.873-2.035 12.54-1.972 20.142l1.142 113.936c.003 7.673-4.966 16.245-.109 25.885-.769 3.826-1.559 12.236-1.504 15.698.437 27.735-2.592 54.744-4.245 82.275.463 19.052-.358 37.664.461 56.75 1.157 26.983-2.48 51.844-4.773 78.953-.755 8.919-2.98 92.658-8.177 95.108-9.551 4.51-54.296 2.61-66.463.72 5.228-59.374-.647-122.643 1.983-182.435 4.641-88.605 14.46-171.213 8.174-260.633-7.077-100.656 4.698-204.796 1.752-306.099-.745-25.606 1.918-50.587 3.115-75.993-1.477-2.853-.544-2.035-3.447-3.125l-2.682 1.218c-14.442 16.868-12.607 113.812-13.816 139.641l-4.507 113.31c-1.113 24.322-3.303 44.297-3.52 69.529-.525 61.192 3.957 119.343 1.821 180.893-1.707 49.199-8.584 92.3-8.723 143.843-.12 44.462.289 102.695-.192 148.137-.022 2.122-2.974 3.656-4.9 4.436l-2.07-1c-3.645-7.288-1.188-144.149-1.144-162.947l-.535-260.527-.31-291.443c.013-35.493-1.075-72.121-.42-107.387m1279.452.497c6.44 1.463 22.27.373 30.13.421 38.39.164 76.79-.171 115.18-1.004-1.26 20.73-.48 49.668-.43 70.757l-.13 120.47-.97 433.029.07 137.38c-.01 19.37.2 40.223-.52 59.644-.08 2.246-1.63 3.366-3.11 4.578-5.47-3.817-3.41-26.308-3.35-33.989.89-53.537.13-107.09-2.28-160.581-1.77-35.568-5.94-70.177-6.93-106.122-1.41-50.854 1-100.835.99-151.47 0-43.735-4.58-87.346-5.59-131.511l-3.07-100.801c-.61-21.291 2.93-116.203-14.83-123.388l-1.89.824c-1.01 2.583-1.69 6.489-1.47 9.214 3.33 41.4 1.49 82.685 2.03 124.118.46 34.552.79 69.228 1.76 103.761.76 27.039 2.97 54.248 3.13 81.346-.15 33.895-2.58 68.163-3.77 102.082-.62 22.649-.6 45.311.05 67.958 1.07 42.367 5.26 78.33 8.13 120.07 4.86 70.698 2.45 142.092 4.46 212.749.11 3.95.07 5.69-2.36 8.21-13.26 5.37-52.48 4.25-67.98 3.37-3.85-36.064-4.39-71.962-6.41-108.114.07-13.624-4.11-29.481-3.81-42.908.32-14.118.57-27.398.16-41.613-.68-16.397 1.28-34.249.21-50.5-2.25-34.505-4.04-67.73-4.13-102.37l1.98-.304c1.31-4.125-3.23-10.796-3.09-16.778.36-15.234.8-30.675.9-45.902.07-11.737-.74-23.208-.69-35.09.13-10.081 1.01-20.184.67-30.265-.17-5.193-.84-10.385-.68-15.587.4-13.748 2.1-27.586.39-41.302l2.1-1.98c-.38-3.866-2.45-4.143-.88-7.869l3.44-.661-.36-1.365-2.38.699c-3.18-5.11-.23-9.589.85-13.844-.77-1.446-3.03-3.505-2.98-5.101.53-18.118-.13-36.101.04-54.234-.17-6.671 2.46-12.561.59-19.044-2.69-9.383-.47-22.76 2.16-31.786-4.35-3.877-1.26-10.016-1.35-16.86-.43-28.833-4.25-58.139-1.94-86.803.89-10.933-.44-36.157-10.16-43.17-15.6-.458-14.13 71.847-14.1 82.511-.15 14.988 1.2 31.099.76 45.79-.93 30.747-2.15 60.094-1.49 90.913.86 40.661 4.03 82.065 4.6 122.612.27 29.857.39 59.715.34 89.573-.18 19.94-.98 40.296-.51 60.168.69 28.667 3.79 56.718 4.37 85.494.93 37.26 1.45 74.53 1.54 111.802-.18 24.469-1.6 48.389.14 72.888 1.06 14.887.37 30.338 2.28 45.17-16.96.5-39.01-.69-55.93-2.28-.19-24.618 2-49.85 2.48-74.51 1.12-58.599.13-117.051-2.52-175.593-1.56-20.836 1.63-45.479-.43-65.919-4.52-44.852-2.52-87.661-2.63-132.337-.09-36.592-5.26-75.083-6.29-112.132l-4.27-144.474-1.77-60.682c-.44-15.725 1.26-54.078-12.03-64.356-6.85-.765-11.13 9.021-11.73 14.599-4.3 40.222-5.43 83.449-5.37 123.946.05 39.155 5.13 79.827 6.82 118.956 1.02 23.621 1.33 46.895 2.58 70.475 1.38 5.743-1.99 18.636-1.21 23.331 5.07 30.211-.74 59.709.32 90.153.55 15.952 3.73 31.462 2.86 47.079-.52 9.354.7 2.926 2.54 7.479l-2.58.675v11.081l1.64-.361 1.08.956c-4.1 10.466.4 15.642.82 26.162l2.11 67.663c.2 7.924-.46 18.625.2 26.099.92 10.251 5.76 15.87.95 27.499-.05.121 3.23 9.928 3.46 10.867.03.149-2.84 5.73-2.97 6.397-.54 1.821-1.45 3.229-.25 5.001 5.03 7.439-.09 16.817 1.07 25.114.5 3.594 2.45 8.53 3.51 12.444-1.73 2.253-1.98 2.596-2.84 5.293l3.72 6.045c-5.43 9.089-4.94 8.842-.49 13.931.04.05-2.55 6.728-1.12 10.831l2.45.263c-5.96 5.016-3.45 3.19-4.04 8.144-.78 6.647-1.66 63.866-3.55 66.161-10.95 4.52-54.25-1.059-66.63-4.979.01-15.474 1.55-33.574 2.16-49.375l4.57-110.997c1.29-29.107-.49-60.912.55-90.768 1.39-40.057 3.81-80.293 4.66-120.279 1.03-48.284-3.46-97.36-3.25-145.871-.65-20.785 2.97-43.45 1.96-64.065-3.09-62.911-2.4-125.311.14-188.238.85-20.926.29-42.831.72-63.958 18.9.694 40.7.053 59.6-.194 11.33-.148 49.63 1.926 59.12-.561"/><path fill="#fefefe" d="M999.214 105.55c20.696-2.424 58.726 1.112 80.716 1.33l136.56.463c26.28.314 52.13 2 79.3 2.007l402.76-2.257 106.42-.203c25.41-.255 60.51-2.263 85.17 1.535 1.84 15.373-.14 32.21.1 47.424.27 17.756.13 34.941.07 52.651l.73 185.577 2.04 654.683c-5.06-2.4-9.77-3.86-15.05-5.6l.12-339.592c.36-43.526.38-87.054.05-130.58-.08-8.957-.19-18.005.29-26.951.33-6.174-1.32-10.897-2.24-16.924 1.31-1.734 2.5-3.601 2.53-5.808.29-21.62-.4-43.463-.59-65.067l-1.79-140.088-1.69-162.771c-.19-9.596.58-25.285.24-33.146-.42-.414-.83-.829-1.25-1.243-43.25 6.844-86.54 19.665-129.81 27.213-2.22.387-8.05-.555-9.27-.776-21.5-3.899-44.45-1.998-66.66-2.425-66.17-1.274-132.85.137-199.02.529l-442.7-1.074c-45.46-.165-93.593 2.726-139.106 1.999-14.819 1.549-54.693-.658-72.456-.706l-186.225-.789-224.939.77q-34.112.544-68.216 1.476c-5.457.159-25.373 1.777-29.31 1.05-31.715-5.853-63.523-14.445-95.196-20.941-5.857-1.201-30.048-8.463-34.055-4.634-1.12 7.446.553 14.356.504 21.634l-1.035 97.73-2.409 197.518a3789 3789 0 0 0-.368 43.437c.038 5.484.628 10.766.723 16.22.424 1.938-2.767 12.492-2.317 13.316 5.95 10.898.758 16.745.786 24.989.097 27.808-.48 55.163-1.226 82.929-.152 5.658 1.018 11.538 1.015 17.202.163 3.681-2.557 7.55-2.146 10.82.392 3.116 2.321 7.714 3.08 10.8-.05-.204-2.483 6.585-2.407 8.308.297 6.719 1.387 13.202 1.562 19.916-.204 8.762-1.05 17.358-1.305 26.237-.173 6.035 2.194 16.732 1.973 21.284-.406 9.099-1.178 18.103-1.087 27.237.741 74.274.535 148.54.533 222.805 0 18.496-.529 36.776.565 55.196-5.72 2.88-10.579 4.9-16.466 7.31 1.898-18.35-.086-59.903-.236-79.364l-.13-153.388 3.53-440.883c.048-22.135 1.982-265.868 2.03-265.963 6.79-.893 13.547-.969 20.383-1.107 53.402-1.077 107.622 2.172 160.942 1.65l494.018-1.22 86.585-.857c26.508-.038 48.371.482 75.38-.888"/><path fill="#fefefe" d="M1075.08 547.121c30.4 15.5 64.92 35.852 82.73 66.196 14.46 24.642 26.19 63.223 32.54 91.498 2.75 12.342 3.37 25.528 6.15 37.797 6.4 28.326 23.21 67.67-9.29 86.818-5.17 3.045-16.23 7.71-22.26 6.138-1.71-5.395-2.68-20.712-3.41-27.369a5395 5395 0 0 1-6.37-59.506c-1.1-10.713-2.49-28.696-4.85-38.758-48.67-19.855-120.65-21.727-172.558-16.601-26.38 3.217-49.244 7.763-73.827 17.805-3.511 10.829-5.228 36.541-6.435 49.049a3719 3719 0 0 1-7.898 77.199c-6.746-.541-11.96-.824-18.541-2.56-19.186-4.71-24.426-23.445-23.658-41.263.89-20.654 8.482-40.409 10.635-61.255 1.877-18.168 6.437-38.957 12.063-56.368 9.924-30.711 21.803-62.748 44.17-86.758 16.764-17.728 41.022-30.304 62.612-41.203 32.457 11.16 65.987 12.938 98.197-.859m710.65-396.931c3.29.076 2.8-.485 4.47 1.235-.66 4.432.23 23.435.39 28.967l2.48.909c-6.75 12.249 4.36 19.864-2.99 37.488l2.27 1.6c-.46 7.652-.82 14.48-.86 22.146-.09 13.184 2.43 28.177-.41 40.867a99 99 0 0 0 2.87 4.466c-.9.685-3.07 2.013-2.94 3.164.55 4.79 1.53 10.601 1.79 15.332.27 1.325-2.7 11.093-2.71 11.067 4.94 6.792 1.77 10.887.34 18.102 1.12.647 2.23 1.305 3.34 1.972l-3.16.819.42.942 1.99.702.54 1.583c-.88 1.054-2.33 2.755-2.48 4.409-.01.077 3.3 4.342 3.3 4.305.71 1.987-3.17 20.723-3.16 20.739 5.81 5.63-.21 12.795.34 19.537l2.27.591c.9 1.906-1.47 5.864-2.44 8.87 1.16 1.864 2.21 3.411 3.47 5.199-7 5.527 3.16 22.385-.87 29.815-.44.807-2.13 1.037-3.01 1.318l.62 2.102 2.5.658.66 1.419c-1.97 2.579-2.35 3.134-3.62 6.117l2.52-.461c1.38 1.565.31 25.117.23 29.211l-2.4 2.295c-1.13 3.654 2.72 21.856 3.59 26.404-1.31 1.256-1.56 1.475-2.67 3.006.1 4.391.57 7.392.93 11.638.18 2.152-1.65 4.367-.95 7.478l2.17-.446c.9 2.603-2.56 1.858-3.07 6.906 4.97 6.916 3.22 5.865.72 13.205l3.34 1.108-.44 1.492c-1.63.67-1.57.779-2.84 2.042l2.2 1.336c.74 5.123-3.12 7.219-2.36 11.432l1.56.045c1.53 2.338-.62 9.583-1.29 13.141l2.4 1.997c-5.9 14.623-.91 7.04-.18 16.57-.44.456-2.4 2.571-2.52 2.907-1.63 4.539 1.02 20.267 1.67 24.721-6.53 8.731 1.68 5.355 1.27 9.874-1.24 13.607-5.82 10.749.05 23.758-5.33 5.913-.12 6.975-1.34 15.887-1.61.947-1.6 1.018-2.9 2.378l2.53 1.649c.19 1.508-.15 3.608-.95 5.235-.8 1.619 2.91 3.681 2.66 4.213-1.64 3.574-5.24 8.667-4.33 12.79l2.69 1c1.17 3.544-.63 11.594-1.16 16.006 1.11.358 2.2.726 3.3 1.105l-.1 2.139-2.67 2.185c-.37 3.408 1.91 18.613 2.28 23.933l-2.83.318c-.28 2.714-.13 6.19.67 8.708 1.44 1.68-1.57 13.714-1.22 14.171 6.14 7.985 1.83 12.631-.56 21.029.11-.416 3.36 7.361 3.6 8.011-1.41.525-1.4.317-3.05.17-.5 3.214 1.82 6.915 2.83 11.334l-.34.682c-2.68 5.395-2.08 5.354-.4 10.414-.92 1.547-.92 1.582-1.41 3.312l2.04.952c-.84-.377-1.04-.069-2.34.202l.3 1.23 2.63.865-1.15.322c-3.75 7.515.54 48.515 1.6 57.534.12 1-1.32 1.428-2.5 2.068-.58 2.041.91 9.623 1.23 12.199 1.12 8.979.41 4.316-2.25 7.093 1.68.962 2.7 1.153 3.5 2.576-1.17.373-2.32.77-3.47 1.188l.39 1.349 2.02-.156.62 1.006-2.54 1.967c-.33 4.373 1.82.452 3.16 7.954l-3.35 3.055c1.09.418 2.07.755 3.18 1.137-.69 5.463-2.12 15.32-1.83 20.582.07 1.242 2.1 7.402 2.57 10.908-1.84 1.2-2.47 1.369-3.2 3.443l2.72.916c-.64 3.026-1.16 4.233-2.3 7.052 1.56 1.37 2.04 1.59 2.72 3.594-.66 2.463-3.04 10.832-3.19 12.873-.57 7.758 4.46 13.054-.34 19.953-4.84 1.4-38.45-13.368-45.05-16.586-1.56-65.983-.13-137.348-.09-203.758l.52-417.062c.07-68.539 1.17-138.611.1-207.009 8.66-3.809 27.65-7.806 37.66-10.215"/><path fill="#fefefe" d="M1013.2 701.566c36.07-2.624 94.32 4.479 127.6 17.111 3.68 47.298 11.16 95.246 14.56 143.391a2262 2262 0 0 1-118.61.037c-33.3-.323-67.238 1.425-100.657.751-12.34-.248-25.366.367-37.619-.63 2.885-46.467 9.471-95.97 13.471-143.01 35.423-13.05 64.201-15.355 101.255-17.65M263 151.533c8.576.806 30.33 6.545 39.356 8.988-1.333 55.123.2 111.457-.002 166.58l.163 422.29c.129 47.174.755 95.927.199 142.988l-.344 57.485c-.078 8.915-.794 27.655.482 35.631-12.672 6.836-32.141 15.435-45.33 20.125-.412-.93 1.571-7.325 1.203-11.28l-1.464 1.645-.714.006c.642-16.042 2.99-110.293.095-119.621l-.028-.161c2.649-18.528.669-35.236.432-53.76-.085-6.677 1.676-13.827 1.762-19.387.179-11.459-.175-23.561-.102-35.031.113-17.847-3.678-34.013.48-51.286-2.056-5.949-4.455-4.144-1.901-10.863 1.597-4.201 4.13-10.038 4.423-14.451l-.695-.712c-1.035 1.823-1.17 2.309-2.909 3.575-1.242-2.319.225-25.776.747-30.212l.141-1.141-2.162.103-.887-.885.521-1.879 2.725-.649.539-1.154c-.532-5.578-.869-5.919-2.885-10.85l-.218-.545-.31-.751 2.505-3.924c-7.201-9.08 3.85-4.81-.498-15.676-.827-2.067-1.446-7.077-1.663-9.536 1.563-1.545 1.936-1.946 3.237-3.703-.867-1.97-1.063-1.522-3.534-2.811.127-1.49.272-2.442.605-4.005 3.473-16.276-.757-35.006-.032-51.666 1.081-8.2 2.848-12.966 1.569-21.471-1.563-10.389-2.544-12.775 1.769-22.048-6.964-14.974 2.667-29.916-3.236-45.615.378-3.844 1.715-8.842 1.632-12.612-.533-24.285.57-48.48.036-72.769-.083-3.796 2.134-10.4.407-13.186-4.917-7.931 3.896-35.755-.137-41.591l-1.867.398-.295-1.042c1.581.03 1.568.163 2.877-.672.504-3.737 1.559-10.408 1.415-13.816-.142-3.367-3.102-5.51-2.47-9.701l3.116-1.407-.079-1.668-2.356.974c-.957-6.304 3.018-13.495 1.209-19.807-.655-2.283-1.177-6.699-1.576-9.245 1.82-.762 2.518-.88 3.782-2.429l-3.314.295-1.16-1.08.272-1.777 2.929-.955c-1.589-4.848-.816-4.092.892-9.921-.989-.5-1.86-1.002-2.821-1.554l-.566-2.23a70 70 0 0 1 2.797-2.061l-1.632-42.998 2.528-1.975-.22-2.036c-1.541-.802-1.6-.691-2.612-2.068.88-8.626 1.78-17.416 1.816-26.089.032-7.722-2.408-12.196-.887-19.975zm1109.21 652.592c9.22-19.779 62.72-168.205 70.58-172.011 2.25 7.614-2.47 58.683-1.4 71.924 6 74.416 4.59 148.077-.28 222.457-.59 8.995-.87 61.895-3.6 65.22l-1.46-.082c-1.16-2.177-1.61-4.712-1.49-7.17 1.61-34.543.99-69.344 2.05-103.84-65.19.889-131.05-1.153-196.32-.419-20.4.229-46.9 1.829-66.57-.656-1.26-2.112-4.96-15.404-6.54-19.368 18.49.805 36.91.098 55.32.17l121.5.488c25.44.105 58.74.654 84.69-.221 1.94-.065 2.67-2.118 3.73-3.844-1.12-7.861-18.29-6.553-24.73-6.632-22.36-.273-44.76-.161-67.12-.182l-155.14-.207c12.79-4.681 20.61-10.652 27.77-22.354 1.22-2 7.59-11.355 9.82-11.322 24.3.359 50.68-1.529 74.8-.061l.08 1.725c-3.21.698-6.29 1.182-8.72 3.536a10.7 10.7 0 0 0-3.29 8.318c1.44 25.028 59.02 14.164 75.95 15.646 10.29.9 35.84-2.544 34.01-17.73-4.31-9.475-19.96-6.214-26.91-10.374l-.26-1.682 1.21-1.131c3.09 1.214 26.87.875 31.88.691 8.15-.3 31.39 4.028 34.49-4.285-.2-1.301-.39-2.446-1.24-3.5-4.12-5.088-53.14-2.566-62.81-3.104"/><path fill="#fefefe" d="M1329.97 507.881c3.48 2.656 22.02 26.334 25.95 31.077 18.66 22.529 36.81 45.729 56.21 67.669-1.41 9.379-1.93 11.354 3.36 18.852-16.65 44.822-37.34 89.465-53.48 134.692-5.14 14.399-11.69 30.827-17.92 44.732-16.13-.521-33.89-.266-50.12-.335-16.31-1.174-33.83.555-50.24-.159-5.97-.26-12.08-.57-18 .374.53-5.906.38-12.292.38-18.254 12.29.925 94.31 1.482 99.54-2.5 5.3-9.762 3.42-54.027 3.5-68.372l.54-135.881c.02-20.376-1.16-52.447.28-71.895m-313.84-115.699c47.86-1.804 66.55 34.368 58.87 76.507-4.98 27.339-18.1 38.086-8.76 69.112-11.71 3.868-19.05 5.616-31.29 6.828-18.98 2.289-30.59.369-48.377-5.873 4.598-26.427 2.895-34.588-7.135-59.082-10.087-24.631-4.719-62.383 18.397-77.788 6.365-4.245 11.125-6.521 18.295-9.704m233.28 34.803c18.32 6.548 37.79 29.932 50.26 44.149-5.39 21.787-2.56 51.238-8.05 74.603-5.99-13.021-9.21-18.501-17.75-30.004-16.83-24.491-49.35-46.529-79.05-53.155 18.43-11.378 36.36-24.554 54.59-35.593"/><path fill="#fefefe" d="M1311.11 483.89c2.3 1.967 4.08 5.042 5.8 7.615l-.02 179.563c.26 34.524 0 69.05-.77 103.567-25.37-1.416-62.22-.071-88.87-.204l-1.34-.451c-1.52-3.057-1.53-1.939-.79-4.642 5.87-4.128 68.65 1.626 79.88-2.771 3.02-.86 3.45-4.257 3.49-7.195 1.09-71.197-.02-142.498.68-213.707.12-11.772-1.42-53.069 1.94-61.775m-91.58-1.478c18.99 11.216 26.07 18.63 41.27 34.083-3.88 4.32-5.24 5.617-9.9 9.061-9.71 3.628-18.82 3.757-27.55-2.599a26.94 26.94 0 0 1-10.66-17.67c-1.43-9.525 1.4-15.5 6.84-22.875m71.64-45.81c11.71 11.895 32.52 38.737 44.26 52.719 28.63 34.114 59.27 69.794 86.64 104.817.35 3.058-.14 2.557-2.51 5.595-2.77-1.011-4.97-4.115-6.79-6.441-40.25-51.377-83.3-100.611-124.14-151.386-.89-1.105 1.83-4.279 2.54-5.304m131.62 193.334c1.83.448 3.44 1.016 5.22 1.614 1.96 5.017-24.39 65.247-28.17 74.694a7254 7254 0 0 0-43.85 113.083c-1.66-.183-3.34-.539-4.99-.846-1.84-8.331 65.51-164.542 71.79-188.545M1291.9 382.962c40.42 3.397 1.31 37.278-11.19 48.202l-.63.665c-3.72.298-10.94-6.259-14.42-9.011 7.44-10.157 17.36-35.266 26.24-39.856m-193.58 61.949c.22 1.409.75 3.204 1.11 4.625 4.49 3.633 25.92 2.321 32.94 2.31l59.91-.24c-3.94 2.662-8.25 5.32-12.27 7.905-8.49-.012-76.84-1.429-79.18.25-1.13 3.596-1.28 4.276-3.97 7.096-.28-3.18 1.38-16.478 1.46-21.946m198.81 382.679c4.2-.384 22.22-.467 25.78.12 9.55 1.574 56.56-1.822 61.49 1.62-.91 2.104-.89 1.526-3.53 2.885-11.84 3.576-77.44 8.28-84.57-2.192zm136.21-222.378c3.76.671 6.8 2.047 8.77 5.433 1.79 7.255-2.39 10.303-8.11 13.144a99 99 0 0 1-1.76-.559c-5.83-1.921-14.93-6.805-7.37-14.695.89-.925 6.9-2.807 8.47-3.323M826.36 814.743c1.064.048 5.12.517 5.319.946 5.431 11.73 7.698 19.322 17.495 27.982-17.447-2.662-21.154-13.243-22.814-28.928m495.07.694c6.74 1.861 12.79-3.722 19.88 2.12-5.85.739-13.57 1.232-19.3-.259z"/><path fill="#4c4c4d" d="M1297.82 816.015c3.95-.019 19.82-.981 21.9-.397l-.08 1.107c-3.23 1.734-17.41 1.247-21.74 1.015z"/></svg>