<svg xmlns="http://www.w3.org/2000/svg" preserveAspectRatio="none" style="display:block" viewBox="0 0 2048 2048"><path fill="#FFF" d="M0 0h2048v2048H0z"/><path d="M998.421 166.582c474.159-11.918 868.269 362.679 880.429 836.838 12.16 474.16-362.24 868.46-836.39 880.85-474.493 12.4-869.133-362.32-881.297-836.82-12.164-474.491 362.757-868.942 837.258-880.868"/><path fill="#FFF" d="M986.465 192.612c459.715-18.397 847.385 339.162 866.145 798.858 18.76 459.7-338.5 847.65-798.18 866.77-460.189 19.14-848.671-338.6-867.45-798.8-18.779-460.209 339.264-848.41 799.485-866.828"/><path d="M1006.39 234.615c436.01-7.795 795.79 339.372 803.54 775.395 7.76 436.02-339.44 795.76-775.46 803.47-435.969 7.71-795.652-339.43-803.406-775.39-7.753-435.967 339.358-795.682 775.326-803.475"/><path fill="#FFF" d="M975.971 277.426c9.32-.829 23.384-.658 33.099-.808-15.756 57.22-40.245 125.509-59.241 182.856a25397 25397 0 0 1-106.626 315.757c-14.299 1.515-35.417 1.798-50.517 2.429l-118.928 4.152a27036 27036 0 0 1-335.007 14.492c-10.835.582-21.798.897-32.625.263 10.046-27.694 19.974-55.405 32.291-82.183 117.038-254.446 359.519-419.029 637.554-436.958"/><path d="M684.487 730.586c7.59-.652 19.891-3.544 24.91 3.171.818 3.256 1.146 3.246.041 6.311-5.115 5.417-35.38 5.003-44.294 5.368l-73.898 3.041c-6.208.478-27.04 2.218-22.837-9.947 5.496-4.792 34.214-4.634 43.175-5.017z"/><path fill="#FFF" d="M1044.44 276.837c284-.014 550.09 190.817 663.42 447.155 4.99 11.279 21.26 46.808 22.44 58.26-65.12.985-132.91-.782-198.33-.742l-195.33-.284c-42.78.206-85.56.131-128.33-.223a42845 42845 0 0 1-163.87-504.166"/><path d="M1136.98 382.666c10.68 2.892 23.23 26.243 28.85 36.191 26.44 47.157 45.01 97.322 61.29 148.944 15.31 48.543 28.39 100.512 34.51 151.164.44 3.638-.91 5.746-3.27 8.274l-5.37-1.815c-4.32-3.467-7.55-29.223-8.73-35.779a629 629 0 0 0-9.54-44.215c-20.06-81.795-48.79-173.46-96.26-244.295-2.4-3.595-5.32-7.405-6.3-11.619.62-3.57 2.12-4.37 4.82-6.85m124.15 119.176c11.39-.945 16.64 15.096 20.22 23.993 9.16 22.816 31.26 121.179 22.3 141.234-1.4-.05-4.46-.281-5.7-.404-6.38-.633-5-14.93-5.73-22.025-3.84-37.176-10.39-75.461-21.83-111.125-1.18-3.68-10.26-19.981-12.59-24.999.34-3.808.64-3.043 3.33-6.674"/><path fill="#FFF" d="M301.39 816.529c13.182 8.355 29.089 20.949 41.621 30.515a8986 8986 0 0 1 71.436 55.322l204.809 161.344c30.436 24.45 60.292 50.87 91.022 74.69l-103.737 423.33c-6.51 25.02-13.764 49.49-20.408 74.41-23.365-16.17-49.602-38.77-70.491-58.15a764.66 764.66 0 0 1-209.683-327.62c-37.668-117.26-46.44-252.689-20.843-373.325 2.999-14.136 9.948-48.207 16.274-60.516"/><path d="M660.844 1174.8c8.318.08 10.67 3.34 8.342 11.17-8.338 28.06-17.161 55.94-26.103 83.82l-30.631 97.59-15.707 49.7c-2.894 9.15-7.804 26.27-12.218 34.09-4.446.12-5.955.27-8.588-3.15-1.345-6.71 21.617-74.55 25.582-87.02l38.3-121.53c3.566-11.12 16.839-57.86 21.023-64.67m-165.151-153.26c14.235 3.29 75.299 64.83 91.063 75.82 4.727 3.3 13.311 12.18 17.98 16.3 5.209 4.6 2.074 9.36-2.289 13.12-8.424-2.3-25.825-19.47-32.948-25.75l-40.094-35.08c-11.733-10.37-24.779-21.66-36.19-32.51-1.419-1.35-1.803-3.64-2.082-5.5.917-3.45 1.95-3.98 4.56-6.4"/><path fill="#FFF" d="M1736.74 800.896c3.11 4.082 12.88 44.176 14.73 51.929a724.8 724.8 0 0 1-2.65 348.115 762.36 762.36 0 0 1-208.75 359.42c-13.71 13.33-48.56 45.52-63.81 54.44-10.24-26.71-19.01-60.08-27.15-87.97-27.85-94.4-56.4-188.59-85.62-282.57a2670 2670 0 0 0-21.55-67.09c-3.61-10.79-11.66-32.6-13.55-43 10.58-5.48 27.72-20.44 37.39-28.4l54.4-44.88 216.04-177.208 67.11-55.809c10.63-8.764 22.31-19.163 33.41-26.977"/><path d="M1675.06 895.539c5.09.382 6.07.686 8.13 5.483-.36 7.852-16.47 20.631-22.35 26.322l-40.76 39.408-131.95 127.488c-5.15-.42-6.85-1.61-8.18-6.36 1.06-6.78 49.68-51.27 58.13-59.51 30.13-29.71 60.43-59.253 90.88-88.631 15.22-14.733 31.2-29.334 46.1-44.2m-261.65 323.351c10.42-.14 11.62 4.15 15.91 13.39 23.98 51.63 38.18 108.09 43.86 164.65.67 6.64 1.2 11.02-1.05 17.5-1.98.24-5.09.8-6.67-.07-4.72-2.59-6.18-25.57-6.87-30.75a542.5 542.5 0 0 0-30.26-120.51c-4.85-13.03-10.43-23.98-16.06-36.63-1.2-2.69.03-4.99 1.14-7.58"/><path fill="#FFF" d="M1014.94 1358.95c7.08 5.67 19.51 13.03 27.49 18.34 17.41 11.57 35.35 22.72 52.7 34.43 84.91 57.36 173.04 110.76 258.28 167.57 23.61 15.73 71.26 43.66 90.63 60.71-11.65 10.34-43.3 29.5-57.37 37.63-109.51 63.3-216.85 92.64-342.21 98.13-148.492 3.25-307.728-36.24-430.546-121.58 25.457-16.06 52.41-37.44 76.895-55.67l101.308-74.31 138.846-102.56c27.086-19.96 58.27-41.35 83.977-62.69"/><path d="M1045.57 1440.52c7.05.45 23.83 11.85 30.71 16.1l51.14 31.88a9601 9601 0 0 1 114.93 71.91c20.31 12.73 41.03 25.03 61.12 38.09 4.09 2.66 5.67 3.33 7.27 7.38-.05 3.77-1.17 4.54-3.55 7.49-3.7-.03-6.07-.84-9.24-2.58-17.86-9.77-255.42-158.79-255.87-161.16-.69-3.67 1.41-6.38 3.49-9.11"/><path fill="#FFF" d="m1539.55 886.154.78.445c-14.4 22.083-34.45 43.582-50.36 64.368-6.08 7.938-39.23 44.4-41.03 50.133 1.08 2.49 1.27 2.69 1.68 5.32-5.95 8.53-11.02 6.68-16.61 11.68-19.41 17.35-38.95 35.28-60.51 49.96-3.24 2.21-13.42 12.21-16.01 12.38 3.27-3.52 6.99-7.16 9.51-11.19l-.91-1.64c-5.51-2.4-6.63-3.3-11.44-7.01-13.35 16.94-28.29 32.92-41.97 50.36 8.23-5.33 13.17-7.86 22.12-11.67-7.67 6.42-18.92 14.54-24.95 21.67-8.66-2.84-15.78-5.7-24.16-9.13 9.39-11.87 23.74-28.28 31.63-40.51l-10.12-8.05c-11.02 10.78-26.87 29.77-37.62 41.78-6.62-2.28-11.15-4.05-17.54-6.9 18.04-21.33 35.8-43.17 53.6-64.67 4.79-5.79-8.1-20.35 3.11-21.82 4.51 2 3.07 1.3 6.06 6.44 6.69-6.64 15.29-17.68 21.48-25.187-2.39-2.357-6.09-5.125-8.78-7.276-20.04 25.513-44.49 49.013-65.19 74.123-8.69 10.54-18.02 21.33-27.34 31.27-6.98-1.93-12.56-4.37-19.25-7.12 10.28-12.75 21.96-25.19 32.62-38.4l-5.88-9.52c-13.59 13.05-25.35 29.51-39.55 43.29-14.17-4.01-14.83-5.45-22.61-15.99-3.95-.34-5.37 1.2-9.37 3.18-4.14-2.03-9.17-5.12-13.25-7.47 3.48-3.85 7.4-7.74 11.03-11.49-1.7-3.76-3.77-7.31-5.77-10.93-5.26 5.27-11.07 12.84-15.86 18.74-6.32-2.33-12.09-4.97-18.23-7.72 10.03-7.79 17.96-18.69 27.05-26.53 6.02-5.18 25.04-11.57 33.52-14.75l-14.99 18.17 4.83 7.04c26.38-27.76 17.4-28.51 56.71-40.06-6.45 10.93-37.82 45.21-48.03 57.37.77 3.47 1.59 8.99 3.95 11.36 3.27-1.68 10.31-10.42 13.29-13.43 20.13-20.36 38.25-43.3 58.34-63.518 2.59-2.599 29.95-11.508 36.11-13.753-5.11 8.555-12.67 14.483-15.5 23.151-1.07 3.246 1.82 6.687 3.79 9.41 29.37-30.496 22.11-37.544 67.91-51.101-5.67 7.894-9.57 12.486-16.11 19.718 2.88 3.465 5.8 6.22 9.01 9.369 27.52-31.768 25.63-35.122 66.17-49.643-7.74 9.38-15.38 18.835-22.94 28.362 2.75 4.748 5.55 9.463 8.41 14.142 12.57-16.067 26.93-32.972 40.61-48.136 8.75-9.696 28-14.956 40.63-19.178a644 644 0 0 0-14.03 16.997c3.67 5.029 5.46 6.617 9.89 10.746 7.86-9.262 15.75-18.444 23.85-27.511 10.65-11.928 23.67-14.882 38.22-19.671"/><path d="M1379.82 973.591c3.41 1.097 7.82 8.322 10.12 11.559-18 22.27-42.1 52.49-61.22 73.65-.99.83-.35.55-2.04.4-2.22-6.13-3.34-8.96-6.37-14.84l34.61-41.48c7.58-9.209 16.74-20.974 24.9-29.289m76.91-39.948c1.75 1.382 8.57 10.912 10.39 13.358-7.06 6.698-16.47 18.913-22.94 26.652a3800 3800 0 0 1-31.7 36.967c-3.99-3.27-7.68-6.56-11.53-9.98 13.28-17.326 40.69-50.937 55.78-66.997m-60.85 73.967c1.73.55.86.08 2.45 1.69-1.54 6.78.39 8.06 4.45 12.79a326 326 0 0 1-23.74 27.59c-.16-.13-4.89-7.64-8.58-11.05 8.94-10.64 15.01-21.44 25.42-31.02m-125.91-3.05c2.85 1.5 6.38 5.47 8.77 7.89-5.5 6.32-11.86 12.81-17.65 18.94l-1.63 1.21c-2.71-1.67-4.2-5.59-5.74-8.61 4.44-6.48 10.96-13.45 16.25-19.43"/><path fill="#FFF" d="M1026.05 1261.06c19.24 7.68 45.99 22.4 66.3 31.4 22.31 9.88 56.15 24.85 76.74 36.17 5.19 2.85 35.93 40.72 40.9 46.75-12.27-3.43-38.38-18.19-50.9-24.61-31.78-16.29-61.74-32.79-94.81-46.6l-6.68 16.01c10.63 6.62 31.11 15.15 43.36 20.9l95.59 44.63c10.18 4.87 35.36 16.34 43.15 23.06 15.87 13.71 33.55 36.44 47.52 52.88-18.9-12.71-48.66-30.38-69.16-40.63 1.77 8.42-1.1 12.22-5.5 19.23 17.51 7.66 85.39 38.4 95.98 50.47 13.58 15.49 32.49 45.4 49.14 63.32-4.54-2.59-8.79-5.47-13.2-8.26-43.19-27.35-85.52-55.98-128.5-83.63-15.99-10.29-32.47-19.9-48.4-30.26l-76.51-50.86c-9.54-6.23-65.97-40.26-66.73-47.25 3.15.28 5.39.93 8.42 1.69l.85-1.43-1.82-2.5c-3.25-.43-3.65-.21-6.28-2.22-4.2-6.52-2.73-17.33-2.5-25.53 8.05 4.98 11.93 7.06 20.64 10.52 2.6-7.72 3.77-9.99 7.87-16.86-6.54-4.24-18.44-9.16-25.87-12.51z"/><path d="M1052.71 1340.67c4.63.95 26.93 11.48 32.05 13.81 41.66 19 81.83 41.06 122.86 61.21-2.85 2.69-3.39 3.3-5.3 6.7l-4.04 7.34c-43.93-23.44-108.43-56.1-145.57-89.06"/><path fill="#FFF" d="m1005.79 1264.14.99.63c1.14 3.43.7 11.03.66 14.98-6.8 2.06-13.566 4.25-20.284 6.57-2.668 3.82-5.887 10.18-8.203 14.44-2.962-.16-7.377-.86-9.849.6l-.648-.62 2.375 4.23c-1.168 2.32-1.394 2.65-2.042 5.13 4.689.64 29.577-9.28 36.361-11.48.11 6.49-.14 13.14-.29 19.64-24.418 11.22-53.253 13.37-77.443 28.48-5.355 3.34-48.231 14.25-55.444 14.97-6.808 7.52-12.895 17.81-18.225 26.55 6.849-1.86 13.642-4.4 20.283-6.91 43.296-16.36 87.389-29.61 131.029-45.09-24.084 26.64-62.037 42.12-95.011 53.76 2.616 3.73 5.704 7.61 8.482 11.26l-16.694 13.61c-16.982 11.84-34.054 25.6-51.331 36.59 2.455-6.23 3.706-8.66 7.032-14.45-21.802 7.26-48.63 14.4-71.035 19.89 10.32-16.14 73.488-103.58 83.886-110.76 14.806-10.23 54.145-20.56 72.79-26.89 5.954-8.18 8.362-12.86 15.975-19.73a925 925 0 0 1-68.186 20.4c5.043-7.47 10.414-17.22 17.587-22.73 7.187-5.52 84.114-29.1 97.235-33.07"/><path d="M884.921 1397.06c1.735 1.49 2.048 7.38 2.524 10.32-19.986 7.43-43.692 11.33-61.084 21.04l-.718.17-.202-.99 9.219-12.42c12.761-5.55 36.117-12.92 50.261-18.12"/><path fill="#FFF" d="M792.701 1016.29c8.124-1.99 23.721 5.43 31.37 8.81-4.814 1.74-9.763 3.14-14.75 4.28-24.07 5.49-48.278 12.33-72.498 16.97 10.443.31 25.281 4.16 33.763 3.49 26.215-2.07 54.904-10.44 80.572-15.6 4.053 2.12 14.811 6.66 15.793 10.72-4.313 7.36-75.295 18.13-89.531 22.32l-1.479.44c6.254.42 14.585.63 20.55 2.47 3.664 1.13 3.429 2.46 4.838 5.82 6.709 2.69 22.947-3.85 28.679-7.95 2.734-1.95 9.972-8.75 12.156-9.24 10.988-2.46 14.452.73 23.974 4.27 1.054.39 10.166-.21 12.1-.34 1.295-6.4 2.918-10.27 5.259-16.36a869 869 0 0 0 52.147 15.76c-12.998 5.1-31.135 8.68-44.711 13.26-22.076 7.44-42.853 15.41-65.704 20.51-3.332.12-2.163.74-4.07-1.01.348-1.96.533-3.06.665-5.04-7.725-1.14-49.393 12.46-61.138 13.48-8.982.78-12.265-2.14-18.139-1.88-9.859.44-23.085 2.45-33.037 3.79-6.337-3.78-10.831-7.43-16.037-12.54 23.441-4.22 51.241-6.81 75.418-10.33l.099-.91c.836-6.76 1.042-6.79 4.244-12.8-3.067-.61-37.417 5.21-43.148 6.06-14.862 2.19-32.081 6.91-47.068 10.03-5.851-4.7-10.331-9.57-15.086-15.3 18.963-4.53 37.265-8.99 56.36-13.23-1.829-3.04-2.825-4.63-4.994-7.42-8.961-1.13-63.202 3.43-73.809 4.45l-11.69-9.31c37.838-8.22 74.311-14.85 112.624-20.71 15.562-2.38 30.781-4.15 46.278-6.96M905.61 670.539c14.517 12.141 27.836 34.75 39.258 44.667 4.472.98 7.682 1.074 9.761 5.436l-2.074 2.749-.053 1.781c12.42 13.965 25.101 29.653 34.206 46.026 1.384 2.488 1.001 8.263-.365 11.056-8.771 4.263-33.145-36.368-40.183-37.917l-.825 1.286c6.221 20.68 28.947 48.704 43.155 65.53l.284 16.852c-24.312-21.395-45.807-45.91-66.428-70.797-1.931-2.33-2.053-2.629-4.745-3.337.259 1.552.007 1.126.987 2.317 23.272 28.283 41.514 64.74 66.434 91.008l.108 18.742c-14.512-16.839-35.598-41.162-48.19-58.87-2.236 4.451-2.8 5.192-6.112 8.932l-1.509.636-.433 1.817c8.752 17.765 43.441 47.395 56.382 66.023.706 9.805-.157 20.582-.671 30.475-20.756-22.575-34.419-44.378-52.91-67.722-20.627-26.04-41.027-51.323-61.358-77.748l7.697-19.516c3.868 6.019 31.756 42.875 36.045 45.477 2.381-7.659 2.092-8.118 9.039-11.722l1.032-.524c-13-16.475-28.698-36.557-38.689-55.146 2.678-7.747 5.069-15.831 7.497-23.677 9.889 7.865 22.97 24.115 30.47 34.183 4.141-2.954 7.205-5.775 10.966-9.139-11.06-11.741-26.406-29.448-34.697-43.248 1.874-7.569 2.364-8.617 5.921-15.63m122.4 549.721c18.05 5.9 75.01 32.1 90.47 44.42 4.46 3.55 33.33 39.77 39.81 47.44-11.52-3.19-117.89-58.27-130.27-67.06-.36-7.91-.08-16.81-.01-24.8M629.428 975.329c8.957-1.125 9.241-.545 16.857 4.407 8.793-.943 20.624-3.434 29.547-5.047 12.047 4.877 23.402 9.007 35.659 13.35-21.008 5.484-31.12 7.181-52.373 7.254 7.203 2.161 11.689 3.628 18.222 7.397-5.746 1.5-9.206 2.11-15.018 2.99-4.253.45-60.696 1.55-61.863.95-.865-2.62-1.107-3.53-2.401-6.01-5.257-1.582-17.346-1.514-23.417-1.695-3.041-2.931-6.251-6.462-9.197-9.551 20.704-3.681 43.784-11.379 63.984-14.045M1634.25 854.132l.89.605c-45.53 35.634-92.8 78.783-138.64 112.825-.43-.161-.87-.321-1.3-.482 3.8-6.854 13.35-19.183 18.08-26.005 14.38-20.717 29.8-40.781 44.16-61.533 26.31-9.22 50.11-17.403 76.81-25.41m-624.53 360.848.92.89c1.16 7.71.17 19.02-.58 26.82-22.799 7.49-62.995 29.88-87.041 35.07l-.943-.73 1.739-3.45c10.493-14.83 22.11-38.75 36.192-47.79 2.232-1.44 12.169-3.75 15.348-4.52l4.177 9.64a747 747 0 0 0 30.188-15.93m-89.628-585.478c4.001 3.832 13.938 17.709 18.081 22.737 18.985 23.044 35.114 45.257 51.782 69.984.929 7.449-.156 18.855-2.545 26.034l-1.621.127c-25.584-31.113-44.954-65.273-73.834-98.758 2.695-7.471 4.695-13.017 8.137-20.124m139.378 515.138c9.64 6.23 67.74 84.7 77.47 96.88 23.39 29.28 50.75 61.93 73.81 92.21 8.82 11.58 20.86 23.8 30.42 35.14 12.87 15.26 23.12 28.59 34.93 44.57-8.09-2.81-31.96-28.58-38.6-36.53-35.29-42.22-67.58-87.1-102.45-129.72-19.73-24.13-39.47-48.29-56.95-74.14-5.89-8.74-14.03-19.15-18.63-28.41M931.904 591.534c15.395 20.381 29.361 41.947 43.394 63.266 4.658 7.077 9.939 14.833 15.65 21.022-.007 5.531-.071 16.633-1.845 21.586l-1.464-.039c-21.654-22.292-44.194-59.644-62.494-85.882 1.541-5.72 4.741-14.144 6.759-19.953M727.945 995.322c5.305-.376 30.084 8.508 36.031 10.778-20.418 2.39-42.913 7.51-63.569 10.74-20.067 3.14-40.227 5.65-60.178 9.08-9.532 1.49-16.916 2.77-26.618 3.04-2.657-1.25-3.055-2.29-4.853-4.66l.252-1.66c28.773-7.4 58.264-11.74 86.843-20.05 10.382-3.021 21.454-5.492 32.092-7.268m215.523-440.706c2.586 2.432 6.119 8.454 8.418 11.522 11.938 15.932 24.883 43.886 39 56.777.238 4.757 1.739 19.222-1.009 22.622l-2.537-.705c-10.375-9.941-44.82-55.275-51.421-68.05 2.247-8.507 4.317-13.908 7.549-22.166m85.922 625.444c6.34 2.17 31.95 14.33 35.71 17.89 7.33 6.93 33.21 39.32 37.26 47.38l-73.38-39.66c-.05-8.75-.15-16.85.41-25.61M904.459 843.715c7.801 5.533 68.233 87.36 77.28 99.77-.1 7.708-.928 16.478-1.49 24.251l-.396.466-1.219-.337c-5.55-9.992-14.469-23.032-20.736-33.436a5138 5138 0 0 1-53.439-90.714m-273.203 90.337a96 96 0 0 1 2.936-.1c16.92-.253 37.696 12.922 54.176 18.265 35.895 11.637 72.705 20.047 107.535 34.774 3.707 1.568 10.975 3.307 13.606 5.847l-1.578 1.236c-7.436.443-34.625-7.608-42.978-10.033-26.994-7.835-53.491-18.612-80.32-27.196a2569 2569 0 0 0-34.632-10.82c-5.396-1.604-20.048-3.85-21.15-8.917zm327.121-422.445c3.423 2.912 12.958 24.343 15.876 29.555 6.31 11.275 7.696 16.714 19.316 24.149-.287 5.926-.14 25.574-2.175 30.115l-1.278-1.021c-14.252-19.705-29.38-38.413-39.887-60.23zM600.968 951.189c2.743-.012 30.717 8.732 35.633 10.168-18.404 5.48-46.385 8.949-66.047 11.949l-21.45 3.177c-4.376-3.104-8.981-7.382-13.072-10.957 19.401-2.922 45.598-9.567 64.936-14.337m370.169-480.68c3.377 3.111 19.608 32.285 25.795 40.192.049 6.211.728 24.662-1.726 29.213l-1.989-.321c-12.618-12.301-22.942-32.049-29.059-48.397 2.835-7.173 4.724-13.287 6.979-20.687m-126.65 984.551.889.18-.268 1.23c-33.869 27.92-39.123 28.78-81.625 36.13l-.653-.03-.413-1.29c2.745-5.75 6.471-10.43 10.234-15.57 11.054-.87 59.812-16.28 71.836-20.65m-12.435-458.875c13.067 3.35 103.324 35.785 108.283 40.255l-.182 2.32c-3.898 1.36-1.868 1.08-6.37.26-34.728-9.87-77.282-24.87-111.337-36.81zm-299.52-66.803c5.154-1.263 33.599 8.473 40.463 10.615-14.102 2.503-25.428 5.17-39.884 6.722l-20.954 2.157a554 554 0 0 1-20.024-14.907c13.837-1.166 26.621-2.772 40.399-4.587m479.278 247.728c1.79 3.25-.1 15.8-.51 20.47l-47.198 19.28-.483-.49c.49-4.28 3.985-7.35 5.879-11.06 9.631-18.85 23.76-20.9 42.312-28.2m-13.422-785.431c2.112 7.16.123 74.686-.577 85.754l-6.027-11.526c-4.204-7.252-7.678-13.121-11.092-20.741 4.763-16.135 11.664-38.195 17.696-53.487m-491.32 500.379c20.495 1.007 54.671 19.504 76.1 23.691 3.294.644 14.215 4.612 17.163 6.014l-.682 1.494c-9.142 1.34-89.893-24.26-93.697-28.742zm273.154 215.362 11.377-.26c-15.481 5.85-40.338 13.42-56.09 17.76l-2.912.1c-3.058-2.84-5.213-5.15-8.014-8.24 23.85-6.04 31.717-8.12 55.639-9.36m228.608-261.253c1.93 17.714 3.62 78.898-.31 95.658l-.89.71c-6.3-4.346-2.71-22.242-2.66-29.394.15-19.456 2.28-39.667 2.07-59.061zm21.84 304.323c9.94 5.61 22.56 24.62 27.7 34.83-22.74-11.69-30.31-6.29-27.7-34.83M450.039 900.285c7.155-.423 39.962 9.054 45.026 13.779l-2.345 1.076c-5.973 1.934-11.747 3.329-17.829 4.854-5.142-4.435-22.546-16.354-24.852-19.709m322.447 606.725 2.247.11c-2.173 4.92-33.538 25.48-40.167 29.82l-1.646.72c.126-2.52 10.504-18.81 12.948-23.23 8.843-2.1 17.866-4.87 26.618-7.42M411.807 863.024c11.747.193 47.015 12.628 59.728 16.837 3.945 1.307 4.557 2.031 5.903 5.164-10.623 3.107-54.976-15.707-65.631-22.001m598.173-215.408c2.62 2.951 5.28 5.864 7.99 8.737.1 9.94-.79 20.819-1.4 30.812l-1.8.314c-7.33-5.556-5.06-30.795-4.79-39.863m-.09 68.992c3.41 3.034 6.53 8.767 8.95 12.791l-2.13 20.074-.61.109c-3.03-1.402-4.57-3.924-6.84-6.626-.28-8.787-.07-17.584.63-26.348m-1.39 55.757c1.9 1.815 5.06 6.201 6.79 8.459.36 9.923-.01 19.859-1.12 29.727l-6.16-5.818c-.02-10.792.14-21.583.49-32.368m3.37-172.689c2.1 2.166 6.8 8.534 8.88 11.185.22 3.409-.72 14.203-.99 18.182q-5.085-7.23-10.26-14.397c.41-5.468 1.32-9.624 2.37-14.97m-.45 551.074 1.16.91c1.23 3.29.59 7.34.36 10.97-7.58 2.92-11.29 4.57-18.414 8.42-.767-.59-.332-.15-.882-1.65 4.982-7.68 10.836-12.84 17.776-18.65m116.54-123.58.45 1.14c-3.31 4.23-6.78 8.87-11.43 11.86-2.87 1.84-3.91.69-7.18-.5l-3.4-1.9-.22-1.26c4.28-4.2 15.72-7.27 21.78-9.34"/><path fill="#7C7D82" d="M1007.04 854.08c-.2-6.752-.44-8.927 1.08-15.546l.65.297c.11 2.476.07 4.861.06 7.336z"/><path d="M1186.49 92.775c8.65.286 45.21 14.959 55.65 18.87 117.39 43.987 222.54 98.765 323.44 173.477a1032.6 1032.6 0 0 1 303.05 357.392c7.35 14.194 22.72 42.155 27.69 58.034.72 2.288-1.8 4.539-3.4 6.442-2.06.082-5.93.222-7.08-1.381-6.04-8.381-14.5-27.462-19.01-36.509a1045.6 1045.6 0 0 0-164.23-241.687c-105.7-116.035-241.65-207.005-384.7-270.403-43.18-19.139-88.36-34.641-132.23-51.99-2.06-.814-2.66-3.763-3.12-5.59.87-3.962.94-3.743 3.94-6.655M140.887 1257.41c1.994.54 3.008 1.01 4.927 1.79 3.292 3.67 13.412 54.02 15.727 63.08 60.497 236.73 220.967 437.67 446.675 534.06a722.6 722.6 0 0 0 101.814 34.09c11.629 3.03 24.432 4.97 35.509 8.88 5.191 1.83 1.593 9.12-1.553 12.05-32.852-5.35-71.223-16.64-102.408-27.97a755.7 755.7 0 0 1-279.389-177.86 823.6 823.6 0 0 1-208.448-362.08c-6.414-22.76-15.248-54.57-17-78.49-.239-3.27 1.939-5.37 4.146-7.55"/></svg>