<svg xmlns="http://www.w3.org/2000/svg" preserveAspectRatio="none" style="display:block" viewBox="0 0 2048 2048"><path fill="#FEFEFE" d="M0 0h2048v2048H0z"/><path d="M1004.04 62.602c13.27-1.506 28.64-.505 42.15.088a821 821 0 0 1 89.95 8.033c208.48 31.233 405.74 160.938 551.68 308.666 16.96 17.175 35.89 33.075 52.28 50.512 8.36 8.892 20.14 24.696 27.6 34.789 5.89.005 13.77-1.038 19.84-1.674 62 30.055 115.73 163.713 136.48 227.156 37.66 115.127 28.58 235.434-27.45 342.598 5.03 12.76 13.02 27.23 18.7 40.3 17.18 38.9 29.24 81.26 30.8 123.74 2.17 58.99-.45 114.03-20.19 170.16-7.4 21.79-13.29 46.51-22.99 67.46-20.86 44.92-43.48 86.74-71.96 127.2-25.49 36.23-18.69 32.75-63.88 32.32-4.75 5.17-14.76 21.26-19.33 27.87a451 451 0 0 1-28.21 36.26c-27.96 32.75-64.89 68.48-97.27 96.61a978.2 978.2 0 0 1-341.03 195.76c-43.01 14.68-84.3 26.89-129.13 34.92-34.86 6.25-69.18 8.13-104.32 10.87-15.81 2.22-21.09-1.38-35.48-1.71-243.196-5.64-464.767-139.96-635.174-305.24-23.647-22.93-47.9-46.13-71.524-68.96-6.879-6.65-11.341-16.17-19.045-23.32-6.173-.1-15.652.72-22.011 1.12-26.359-19.47-69.058-86.53-85.21-116.64-6.708-12.5-15.878-34.2-21.286-47.62-7.956-19.74-14.414-41.97-20.909-62.13-27.318-84.8-36.861-172.05-9.783-258.3 5.651-18 12.29-36.32 19.968-53.66 3.826-8.64 8.72-16.67 12.448-25.27l.421-.99a442 442 0 0 1-15.397-31.95c-72.403-166.591-28.734-328.378 68.493-474.515 14.531-21.84 30.424-49.358 55.356-60.168 9.03.511 15.217 1.69 23.929 3.791 5.837-6.623 11.111-13.642 16.683-20.5a1123 1123 0 0 1 107.784-117.082c31.492-29.484 60.107-51.565 94.153-77.239 97.132-73.245 203.381-129.803 320.797-162.894 56.601-15.952 113.57-24.389 172.067-30.361"/><path fill="#FEFEFE" d="M1012.7 398.381c5.31-1.841 73.22 2.093 80.66 3.522 153.77 29.636 282.91 117.272 402.75 213.731 53.12 42.753 99.89 97.164 149.73 143.856 5.2 5.32 9.68 12.225 14.88 17.409 34.49 34.388 66.09 71.651 96.94 109.314 72.94 89.065 146.3 192.037 152.92 311.057.73 13.21 1.03 26.58 1.18 39.8-2.59 93.58-40.35 188.3-89.14 267.22-11.52 18.64-29.17 46.39-43.92 62.6-12.05.01-22.96-.57-34.86-2.6 3.35-6.35 11.11-17.38 15.33-23.77l28.29-43.29c24.07-37.28 46.88-86.61 60.62-128.78 34.49-105.85 37.55-209.12-14.63-310.33-43.98 50.86-78.58 109.7-125.55 158.54-9.84 10.23-19.99 20.93-29.46 31.5a2083 2083 0 0 1-140.15 143.77c-61.29 58.09-118.59 109.49-191.08 154.01-43.27 26.57-79.62 49.78-128.02 68.59-72.17 28.06-149.95 47.95-227.831 41.09-59.048-5.19-109.168-15.14-164.083-37.64-89.386-37.57-170.919-90.96-248.541-148.46-32.256-23.98-63.271-54.94-92.541-82.38a2297 2297 0 0 1-213.829-228.01c-46.395-57.48-85.08-109.63-114.128-178.267-69.948-164.57-5.49-339.412 94.56-475.48 18.599-25.294 23.177-22.647 46.44-1.921-15.441 20.948-32.764 44.08-46.4 66.536-33.995 55.985-65.094 126.349-77.677 190.586-5.66 28.893-6.743 75.324-4.849 104.566a305.3 305.3 0 0 0 21.606 94.536c54.311 133.204 177.196 257.774 276.304 360.044 60.662 64.37 131.564 117.26 202.773 169.3 33.894 21.97 66.738 44.11 99.175 68.11 118.925 87.99 337.641 98.42 462.951 20.1a297 297 0 0 0 30.93-22.39c4.54-3.71 19.48-16.8 23.37-18.33 38.69-15.2 74.33-39.4 106.96-64.94 8.23-6.44 18.28-14.55 25.29-22.59-14.24-13.86-25.16-21.16-41.84-31.46 4.63-7.86 9.52-20.86 12.96-29.67a333.4 333.4 0 0 0 22.31-100.36c7.53-126.07-27.42-240.74-126.55-324.651-13.18-11.154-27.52-21.779-39.39-34.287 6.4-14.915 19.9-21.526 30.94-33.139 28.41-29.875 51.97-65.543 64.03-105.218 2.81-9.23 4.87-22.891 6.53-32.421 1.33-12.144 1.21-27.531 5.72-38.784 2.65-6.616 54.77-45.357 64.65-54.674-7.24-6.646-8.4-8.862-16.96-14.154-14.08 10.058-36.35 26.783-48.92 37.919-.46-8.471-.87-16.944-1.24-25.42 16.88-10.431 28.53-23.364 43.15-32.811l3.43 1.423c3.91-1.168 9.07-4.469 12.76-6.606 15.27 8.927 31.72 24.202 45.63 35.825 123.35 103.106 235.13 232.2 329.88 361.238-21.89 36.09-49.81 72.05-76.05 105.16a2043.5 2043.5 0 0 1-203.1 221.98c-24.23 22.71-48.81 45.9-76.64 64.18-5.78 3.79-18.6 8.22-17.49 15.62 10.82 12.98 25.81 5.75 36.17-2.88 128.82-107.36 243.46-234.58 340.02-371.59 18.16-25.76 26.05-35.51 2.07-62.21-6.94-7.996-15.78-19.974-22.5-28.598a2526 2526 0 0 0-198.71-226.576c-56.93-58.313-108.64-106.061-175.79-152.871a2739 2739 0 0 0-80.22-53.068c-8.92-5.721-19.8-11.642-28.19-17.329-7.56-5.115-18.42-15.965-26.16-22.239a320.6 320.6 0 0 0-73.26-44.64c-44.13-19.201-83.08-27.278-130.86-30.416-103.265-6.781-205.99 10.934-288.238 77.99a219 219 0 0 0-25.874 24.992c-19.739 22.569-21.815 25.714-49.144 40.396-13.021 6.997-60.718 36.245-58.981 52.815 2.033 19.387 31.267 42.567 45.335 56.369.337 12.612.276 38.561 1.886 50.605 7.447 55.721 27.092 111.417 58.399 158.268 4.311 6.452 10.464 12.023 15.087 17.85 10.128 12.767 19.516 22.954 30.926 34.417-7.517 10.418-31.717 28.995-42.198 38.325a362 362 0 0 0-58.671 67.04c-19.733 28.66-39.368 74.52-48.574 108.24-11.696 42.82-12.595 92.5-9.831 136.63 2.561 40.89 12.508 77.02 25 115.78 3.373 10.44 19.293 27.33 9.391 37.34-3.643 3.69-9.596 6.33-14.851 6.25-7.346-5.3-23.323-22.48-33.637-30.7-24.49-21.07-52.307-41.51-75.392-64.06-95.141-92.95-195.031-197.2-269.709-307.18 25.111-26.52 48.201-56.475 72.645-83.769 92.75-103.566 181.65-211.746 289.832-299.971 20.287-16.544-9.58-23.936-22.246-26.092-16.309 8.89-40.571 31.925-54.484 44.536-112.477 101.949-210.91 219.717-307.7 336.266-2.138 2.58-4.98 3.49-8.178 3.29-7.785-4.55-12.6-15.596-16.034-23.73 7.106-7.365 13.256-15.918 19.703-23.895 18.725-23.245 36.601-47.02 56.099-69.643 40.033-46.45 78.873-94.071 121.579-138.144a4426 4426 0 0 1 114.166-113.154c14.158-13.615 34.335-29.112 46.756-44.096.947-1.646 2.268-4.496.93-6.317-6.844-9.185-20.127-15.237-30.041-20.763-46.583-25.969-95.032-47.628-146.278-62.591-10.254-2.994-21.17-5.912-31.272-9.399l-.597-1.807c3.848-1.256 22.612 4.522 27.269 5.646 64.547 15.578 122.457 47.577 180.078 79.31 5.704 3.142 11.993 2.309 18.5 1.943 17.536-14.458 36.841-28.371 55.486-41.362 91.276-63.592 193.567-125.038 305.75-140.293 17.869-2.43 36.03-2.454 53.763-5.214"/><path fill="#FEFEFE" d="M1007.7 124.396c10.4-2.198 31.27 1.486 42.83 1.504 73.29.112 151.94 16.449 220.85 41.896 130.62 48.24 250.18 134.469 351.09 229.253 22.79 21.402 50.85 44.853 68.47 70.72-67.56 10.291-165.71 49.336-217.54 93.965-30.83-17.421-58.18-41.17-87.6-60.781-56.7-37.802-116.42-70.436-181.12-92.43-18.66-7.032-35.43-12.982-55.02-16.73-30.94-5.922-57.81-11.328-89.41-13.385-9.78.103-21.38-1.681-32.31-1.302-23.13 1.713-50.238 1.29-72.961 5.216-96.468 16.667-191.858 67.133-272.428 119.043a1147 1147 0 0 0-49.729 34.149c-11.17 8.25-25.903 21.317-38.329 26.735-12.957-12.747-32.771-20.378-48.728-28.846-54.74-29.049-108.271-44.319-167.895-60.276 44.185-51.749 87.01-94.92 140.461-137.387 15.184-12.064 30.099-26.154 45.66-37.944A882 882 0 0 1 819.735 164.43c16.358-5.461 31.618-12.038 48.474-16.455 22.149-5.864 45.135-7.994 67.607-12.085 24.214-4.407 47.426-8.731 71.884-11.494M1466.88 1506.8c48.92 25.46 100 49.88 152.5 66.77 21.35 6.86 45.62 8.14 66.53 14.33-23.77 31-47.4 55.61-74.95 83.2-106.85 107.53-230.58 181.96-374.44 228.07-238.86 76.55-466.346 19.6-666.972-124.55-63.244-43.24-122.869-97.94-176.972-151.99-5.124-5.12-24.125-20.85-22.894-26.93 11.088-3.85 26.198-6.66 37.786-9.08 63.114-13.23 121.445-41.24 178.371-70.63 13.864-7.16 19.986.69 31.162 8.53 99.913 70.11 205.458 136.63 329.063 156.45a441 441 0 0 0 33.422 3.93c9.799.74 21.194.47 30.524 3.18 7.83 2.65 16.87-.03 24.97.07 36.41.49 70.84-5.28 106.12-13.6 15.56-3.67 32.12-2.65 46-12.42 8.51-5.98 23.27-8.25 33.08-12.36 14.43-5.02 28.95-10.53 42.95-16.59 49.56-21.47 94.61-48.37 139-78.99 22.47-15.51 43.76-29.44 64.75-47.39M321.642 529.44c17.647-.307 49.252 3.163 66.161 6.941 34.305 7.665 138.682 45.036 163.032 65.734-28.716 23.943-54.549 51.193-81.395 76.709-53.613 50.958-100.525 102.459-149.237 157.821-32.959 38.076-64.502 78.075-97.066 115.39-19.3-49.849-19.627-114.705-12.378-167.01 10.969-79.14 47.758-152.078 88.04-220.053 4.337-7.318 17.839-31.839 22.843-35.532m1512.218 588.27c3.74 3.9 8.75 24.76 10.28 30.83 26.18 104.09-7.74 215.85-56.15 308.24-13.44 25.66-32.15 53.37-47.77 78.45-61.81-6.93-107.79-20.2-164.94-43-22.14-8.79-40.37-15.06-62.51-25.29a2409 2409 0 0 0 321.09-349.23m-1610.659 11.92c7.433 7.42 29.074 36.78 37.868 47.54a1864 1864 0 0 0 86.32 99.64 3161 3161 0 0 0 130.412 131.65c9.094 8.5 53.965 47.13 57.737 54.32.658 1.26.979 1.23.449 2.34-3.714 7.8-49.381 26.62-58.896 30.96-17.624 8.5-133.221 51.58-148.913 44.49-13.762-6.22-54.844-76.11-64.184-94.68-48.103-95.63-73.953-211.49-40.793-316.26M1729.34 520.198l4.1-.35c6.44 3.618 33.58 46.609 38.83 56.006 50.29 90.1 90.26 188.555 77.86 293.732-2.77 23.474-7.89 43.617-13.9 66.213-16.45-19.179-30.34-39.162-45.99-58.897-11.59-14.619-24.69-29.27-37.01-43.378a2742 2742 0 0 0-146.8-156.405c-27.1-26.528-54.98-50.665-81.86-77.268 25.06-16.354 66.26-33.561 93.91-46.634 32.53-15.378 75.6-24.751 110.86-33.019m-715.8 597.222c29.72-.71 72.69 11.22 95 31.52 59.87 54.46 35.32 138.75-37.18 165.89-17.66 6.61-31.15 6.65-49.61 7.28q-1.995.21-3.99.33c-28.6 1.86-63.666-9.94-85.715-29.66-45.619-40.8-51.818-98.8-5.524-141.96 19.6-18.28 60.006-31.86 87.019-33.4m.25-469.039c44.28-3.766 97.23 23.63 106.19 70.29a85.36 85.36 0 0 1-13.8 64.215c-19.49 28.349-45.14 39.936-77.65 46.031-38.223 1.868-70.952-11.692-91.917-44.819-43.41-68.594 1.668-128.431 77.177-135.717"/><path fill="#FEFEFE" d="M172.039 1052.5c5.173 5.29 19.414 29.84 23.588 37.24-3.086 15.1-9.787 31.68-13.125 46.82-4.977 22.58-11.054 52.91-11.429 76.17-1.44 89.38 28.645 186.16 71.079 264.25 13.702 25.21 35.074 52.22 49.906 76.37-7.006 7.58-10.385 9.75-19.071 14.63l-10.785 4.82c-34.485-37.62-71.514-109.54-89.974-156.84-7.991-20.48-15.712-46.6-21.697-67.91-30.212-107.56-23.626-193.73 21.508-295.55M1780.31 487.033c11.12 3.335 38.85 54.126 45.97 66.084 27.21 45.737 47.23 92.571 63.59 143.12 26.96 83.327 27.3 174.66 1.02 258.287-2.83 9.013-13.83 54.886-28.59 35.131-3.3-6.959-12.09-19.756-16.51-26.653 4.17-8.72 7.34-16.552 10.22-25.789 43.87-140.753-9.05-286.974-87.08-404.916-6.24-9.419-14.58-20.38-19.6-30.386 13.25-7.087 16.12-10.202 30.98-14.878M318.468 471.145c14.804-25.531 48.208-60.913 68.792-82.194 95.084-98.305 215.916-187.599 342.922-240.35a794.7 794.7 0 0 1 186.55-53.673c29.945-4.994 61.715-10.301 92.008-12.06 12.15-.706 31.24 1.41 44.26 2.12 94.76 5.165 172.13 29.123 258.98 65.029 35.62 15.734 60.94 29.571 94.56 47.438-7.99-2.53-14.53-5.985-21.88-9.919-24.16-12.924-49.05-24.083-74.1-35.149-74.89-32.91-164.48-52.476-245.94-56.576-17.92-.902-38.65-2.436-56.4-1.566-216.283 10.602-411.419 117.95-566.73 263.918-33.557 31.55-77.135 74.223-102.689 113.531-5.401-.708-14.612-.513-20.333-.549M1709.49 1589.29c10.76-2.39 13.84-1.89 24.63-.49-134.42 166.27-307.34 291.17-514.87 346.56-45.29 12.1-75.58 20.93-123.16 25.92-108.549 11.4-210.027-4.55-312.491-41.16-32.53-11.63-70.877-26.61-101.504-42.85-19.77-9.49-48.339-24.65-66.307-37.06 4.174 1.48 17.395 9.26 22.102 11.8a885 885 0 0 0 44.793 22.97c179.607 89.99 374.837 104.87 564.847 40.51 138.73-46.98 258.06-115.94 363.96-218.14 30.06-28.56 73.67-73.73 98-108.06M557.978 1480.85c6.857.76 8.872 3.1 13.985 7.88-18.699 6.33-56.43 25.68-77.321 34.49-55.462 23.4-96.003 33.91-154.424 45.73-2.527.3-5.858.97-8.027-.25a10.55 10.55 0 0 1-4.725-5.63c2.439-2.02 63.592-15.7 72.878-18.58 51.587-15.97 111.016-36 157.634-63.64M1724.73 485.42c3.57-.337 8.29-.073 11.98 0a578.1 578.1 0 0 0-177.31 60.679c-18.68 10.009-39.22 22.884-58 33.627-3.22-.019-7.95-4.939-10.43-7.164 77.91-51.757 141.4-77.043 233.76-87.142m-404.82 75.049c13.32 5.194 51.95 35.912 63.81 46.625-5.8 4.315-11.56 8.689-17.27 13.122-7.4 6.279-15.13 13.596-22.36 20.166-6.74-33.347-6.96-47.472-24.18-79.913m45.4 874.951c6.5 1.31 19 10.32 24.44 14.64-19.64 17.05-32.62 26.03-54.17 40.11-6.3 3.8-11.54 6.53-18.12 9.84 22.29-21.49 35.29-34.18 47.85-64.59m123.24 50.44c8.43 2.05 31.97 13.93 41.58 18.15 30.69 13.49 58.51 23.73 90.5 33.93 17.89 5.6 36.07 10.21 54.47 13.8 8.73 1.66 40.6 6.34 47.13 9.2l.32 2.25c-3.26-.29-6.51-.64-9.76-1.08-69.71-9.02-134.62-30.94-197.95-60.62-4.52-2.12-25.62-10.39-27.56-12.91zM690.886 602.931c.854 4.367-6.12 28.638-7.742 34.073l-8.432-6.963-8.916-8.337c7.891-6.858 16.509-12.829 25.09-18.773m-13.892 846.809c3.615 2.22 14.85 18.05 16.792 22.87l-.686.92-2.593-1.02c-6.904-4.66-15.48-11.85-22.782-17.12z"/></svg>