<svg xmlns="http://www.w3.org/2000/svg" preserveAspectRatio="none" style="display:block" viewBox="0 0 2048 1462"><path fill="#fefefe" d="M0 0h2048v1462H0z"/><path d="M643.635 112.418c24.918-3.081 64.663 6.239 86.696 17.774 54.14 28.345 85.268 67.946 104.541 124.302 72.453 27.939 54.299 111.149 7.684 154.887-6.075 20.881-23.801 58.586-26.458 75.647.88 2.572 2.751 7.417.725 9.814-8.781 10.387-17.958 22.323-27.553 31.848-5.391 5.351-9.834 3.79-15.904 12.244l-.709.997c23.141 50.398 19.471 157.415 19.31 215.102-.182 64.995-.479 134.596-2.855 199.548 4.636.116 9.238.332 13.813 1.132 24.058 4.207 135.503 45.087 150.434 56.827 13.099 10.3 23.422 28.98 33.07 42.56 9.805-.04 20.401.5 30.261.83-22.626-18.7-52.425-48.92-52.985-80.874.298-16.533 3.073-33.745 5.944-50.083 17.23-98.037 28.619-197.951 58.751-293.165 14.9-47.083 33.44-95.515 67.91-131.83 8.65-9.112 22.45-17.402 33.19-23.762-2.99-19.711-1.6-8.971-10.04-12.856-18.38-9.336-35.94-27.332-46.19-44.934-19.7-33.812-6.12-70.881 7.41-103.88 1.33-3.25 3.21-7.634 4.19-10.853 17.68-58.237 63.54-135.594 135.89-115.033 10.91-9.925 24.71-19.605 39.28-22.482 108.77-21.482 202.6 39.351 230.84 145.996 10.88 41.095 7.02 71.564-13.65 107.367 175.88 31.452 224.18 272.711 262.46 416.02 13.24 49.563 32.86 108.214 11.35 157.798-9.43 21.741-24.96 35.331-41.32 51.471 17.54-.33 35.08-.48 52.61-.46 12.22.03 27.9-1.35 39.76.71 3.7.64 7.89 8 9.84 11.37 9.65 16.67 18.58 33.89 27.85 50.81 17.25 31.52 34.72 62.91 52.41 94.18l51.23 91.27c8.94 15.77 18.63 31.45 27.18 47.43 2.49 4.66 3.83 7.56 2.12 12.45-4.8 5.27-43.54 2.97-52.88 2.89l-57.6-.17-125.99.22c-15 .13-30.01.31-45.01.29-130.78-.24-261.71-17.38-392.35-19.94-47.89-.94-98.98 3.46-146.93 6.79l-144.42 10-69.925 4.62c-7.39.47-34.577 2.58-39.984 1.41-20.993-4.54-46.243-13.1-67.025-19.2l-177.019-52.59c-14.722-4.42-35.202-11.04-49.625-14.42-6.193-1.46-41.02 6.43-48.841 7.95l-104.496 20.43c-112.029 21.72-224.681 39.34-339.042 40.98-8.154.12-30.047 1.68-36.087-1.47-1.132-1.81-2.74-4.31-1.857-6.35 9.618-22.24 29.017-52.09 40.845-72.1l47.823-82.7c8.887-15.41 68.59-124.15 73.752-127.85 2.251-.3 3.633-.23 5.393-1.64 1.086-6.55-1.403-56.259-1.734-65.15a3227 3227 0 0 1-3.132-140.635c.571-63.436 2.665-142.296 15.365-204.843 3.46-17.04 18.279-48.981 27.142-63.816 13.855-23.193 35.414-44.36 54.662-63.278-3.534-9.978-7.068-20.889-7.783-31.28-3.649-53.031 43.939-93.102 79.495-124.79 14.362-14.499 34.426-33.974 44.485-51.874 24.595-43.765 26.307-83.866 62.048-122.961 37.657-41.192 75.353-64.091 131.635-68.695"/><path fill="#fefefe" d="M462.189 932.026c3.484 3.365 8.688 43.127 9.803 50.319-15.326 2.625-51.862 23.155-53.861 39.405l1.872 1.62c16.313-2.59 30.652-26.31 51.41-29.427 13.969-2.098 28.507-.987 42.604-2.716 27.481-3.37 54.816-7.554 82.356-10.597 43.851-4.846 88.163-8.108 132.177-11.146 21.78-1.503 45.068-5.596 66.796-3.639 21.778 1.962 133.789 42.615 149.777 55.375 6.235 4.98 40.658 54.35 45.768 63.48 5.812 10.39 23.029 46.72 23.899 57.25-1.79 2.89-4.55 3.8-7.83 3.09a14.25 14.25 0 0 1-8.613-5.71c-5.332-7.54-7.935-19.78-13.008-27.52-13.501-20.62-29.152-39.56-41.162-61.2-2.495-4.5-7.305-6.24-11.287-2.17-2.577 15.64 36.783 46.33 23.459 67.06-3.333 5.19-12.941 11.11-18.294 7.35.109-3.35.546-6.83.355-9.95-.649-10.55-17.455-46.04-24.427-51.41-3.71-.86-2.244-1.06-5.525.45-1.856 2.58-2.106 3.22-1.976 6.4 6.848 14.77 19.211 28.75 21.1 45.62 1.173 10.47-5.894 22.09-17.016 22.72-3.2-3.46-2.191-14.22-4.82-19.19-4.929-9.33-12.44-29.32-20.478-35.32-3.561-.8-2.324-1.03-5.409.15-5.489 13 37.862 56.95 7.068 62.59-12.938-3.18-23.802-40.85-32.423-46.15-24.412-15.02-59.382-10.41-77.606-39.27-3.294-5.22-10.253-16.16-17.242-14.96-2.59 3.04-2.052 4.18-2.769 8.55-4.568 2.66-21.288 7.07-27.243 8.67-55.124 14.87-107.941 38.9-161.656 56.96-30.517 10.26-125.835 38.53-152.966 21.17-50.625-32.4-72.967-117.73-90.991-172.508 41.557-.759 100.738-16.201 138.158-35.346M1687.42 1060.76c35.61.63 71.73-.05 107.54.44l155.42 278.38-140.13.28c-46.22.03-93 .41-139.17-.17l-82.51-120.65c-14.19-20.72-30.35-45.32-45.42-64.96 17.53-8.5 27.46-17.04 39.31-32.47 32.47 4.43 47.31-.62 59.39-30.84 16.82-9.8 29.79-18.57 45.57-30.01m-477.73 107.62c33.47-4.12 75.17 10.89 106.06 21.42 58.63 20.01 106.01 18.61 166.32 11.19 22.48-2.77 47.39-3.6 70.75-6.92 8.94 12.99 17.76 26.06 26.45 39.21-12.03 2.63-47.05 11.77-57.16 11.59-26.69-.46-50.93-22.37-80.94-20.09-18.5-.16-37.63 15.46-55.05 16.72-41.51 2.99-81.7-4.09-123.65-.55a431 431 0 0 0-47.3 6.58c-21.75 4.44-44.08 11.13-66.29 10.65-30.35-.65-29.05-36.66-45.38-54.98-10.52-11.8-31-14-46.23-14.68-18.2-.81-63.896-1.49-77.061 11.38-16.687 16.33 24.671 35.63 24.331 52.37-8.679 14.45-82.385 5.56-97.113 15.75-7.085 4.9-8.569 25.74-9.831 34.61-17.495-2.46-34.326-7.91-51.341-12.37-34.21-8.97-68.83-20.54-103.051-28.91 2.269-16.96.76-23.75-9.124-36.98-4.636-5.08-22.764-26.07-26.388-25.74-24.726 2.23 16.3 36.28 18.48 41.45 2.457 5.83 1.866 13.04 1.867 15.77-37.588-12.35-77.356-23.38-114.423-36.4-24.709 5.15-55.892 9.39-81.226 13.66a4075 4075 0 0 0-125.529 22.78c12.908-17.94 39.643-45.21 55.349-63.52 18.046-1.15 40.153-4.44 58.516-6.44l106.052-10.83c-4.028 9.36-18.837 28.25-10.013 36.19 4.602 1.19 8.306 1.44 10.975-3.02 6.726-11.26 12.687-23.47 19.12-34.94 74.79 14.61 130.153 28.89 207.963 24.99-1.91 8.31-4.055 16.69-5.873 24.99-1.542 7.05-7.409 23.02 1.225 26.75 9.126-.37 10.072-7.06 11.933-15.01 2.949-12.59 5.838-25.11 8.921-37.68 53.973-4.49 107.909-9.88 161.991-13.05 41.63-2.44 84.91 5.68 125.87-3.68 17.07-3.89 33.11-10.8 50.8-12.26"/><path d="M927.57 1238.57c7.613-.45 19.117-2.5 24.491 3.35.071 3.58.482 2.2-1.285 5.3-7.219 3.73-28.557 2.66-38.627 3.52-7.207.16-19.667 1.76-24.19-4.87l.502-1.55c7.891-5.94 28.862-5.42 39.109-5.75m547.65-28.25c8.29.29 27.75-.49 33.21 5.37.57 3.8.58 2.37-1.14 6.26-7.7.14-29.94 0-34.43-6.2.4-3.69-.02-2.31 2.36-5.43m-944.356-6.21c7.818-.16 27.858-2.34 32.773 3.88-.219 3.2.018 2.07-2.5 4.97-6.752 1.65-25.942 2.31-31.012-2.61-.917-3.71-.862-2.23.739-6.24m713.296-19.8c8.19-.26 16.99-1.44 22.31 5.97-3.43 3.25-1.73 2.3-7.22 3.04-6.25-.2-13.73 1.34-19.15-.63-2.17-2.59-1.66-1.11-1.38-4.66 2.38-3.14 1.38-2.13 5.44-3.72"/><path fill="#fefefe" d="M244.84 1067.29q50.618.33 101.213 1.86c10.393 24.6 32.78 60.15 54.417 76.35 24.51 18.35 46.819 13.76 74.218 9.71-9.69 11.78-21.403 22.89-31.212 34.52-32.334 38.32-68.633 76.45-100.493 114.81a729 729 0 0 1-31.209 4.46c-69.313 10.82-146.433 15.39-216.464 17.84 5.905-11.2 14.899-25.45 21.417-36.7l55.992-96.38 47.949-84.95c7.349-12.92 16.252-29.48 24.172-41.52m892.98-688.805c3.57 3.474 11.03 19.419 14.68 24.495 12.83 17.535 25.61 33.51 41.52 48.648 25.51 24.273 58.19 38.28 93.52 39.37 2.4.074 2.7-.406 4.13-1.988-.12-5.347-8.46-7.92-14.03-11.163-21.65-12.582-43.16-35.457-54.76-57.606 9.15 8.456 17.65 17.807 26.97 26.34 24.57 22.475 52.8 40.745 85.68 47.977 9.51 2.093 21.84 6.617 29.25-1.9q1.86-2.121 3.66-4.283c8.35-1.075 11.48 9.796 15.15 14.16.53.628 6.72 2.831 8 3.278 20.39-17.098 21.87-53.508 40.66-71.593 9.27-8.931 18.62-.372 24.13 7.58 10.44 27.437-8.08 60.945-31.52 75.363-5.29 3.257-10.94 5.796-16.35 9.023-16.53 31.143-39.57 81.737-69.37 101.566-20.21 13.455-56.18 30.898-80.61 24.329-28.13-7.563-64.89-38.48-80.93-63.196-5.13-7.903-13.93-34.071-17.34-43.881-14.6-42.04-29.45-88.725-28.13-133.655.31-10.299 3.28-22.854 5.69-32.864"/><path d="M1210.53 514.365c2.83.227 4.34.012 6.47 1.839 2.89 5.873-4.7 43.601-5.53 53.806 4.83 2.676 9.96 4.718 12.33 9.525-.35 4.226.17 2.575-2.86 6.41-14.88-4.856-22.06-9.011-18.57-26.187 2.95-14.544 4.12-31.157 8.16-45.393m72.14 75.464c3.72-.021 4.63.233 7.01 2.848.82 6.639-7.26 12.783-12.34 15.964-10.91 6.835-21.71 7.691-34.11 4.869-3.8-1.783-9.21-6.053-5.15-10.167 22.4-5.523 17.45 13.677 44.59-13.514m-139.59-125.693c11.18-.719 33.63 2.806 39.3 13.557.23 4.271.45 2.578-1.85 6.938-9.33-2.273-19.08-9.501-28.71-11.423-4.64-.925-7.36 1.938-10.77-2.277-.29-3.335.25-3.731 2.03-6.795m23.93 34.813c14.35-.566 17.53 10.895 8.18 20.468-12.56 1.928-14.8-11.01-8.18-20.468m107.01 2.788c12.86 1.506 14.72 13.342 5.79 21.221-13.8-1.718-16.33-12.892-5.79-21.221"/><path fill="#fefefe" d="M835.611 344.701c5.838 33.025-3.743 75.498-18.583 105.245-4.911 2.81-12.86 6.788-16.363 10.846-.77 3.764-1.085 2.533.385 5.457 3.777 1.604 6.021-.346 10.914.178-1.068 16.518-13.757 17.379-19.91 30.6-2.405 5.563 1.219 7.392-.982 13.419-3.548 9.711-12.447 8.577-16.222 12.049-26.48 24.361-53.421 48.987-87.761 61.644-22.789 8.4-43.632-6.004-64.007-14.638-42.869-19.084-63.222-67.09-72.62-110.185-.657-3.01-2.336-4.539-4.937-5.824-3.417 1.054-1.981.144-4.374 2.966-1.883 6.887 2.085 19.872 3.94 26.546 10.4 37.404 30.928 77.139 68.132 93.605 1.834.812 1.555.775 2.015 2.5l-2.583 1.85c-28.021 15.501-50.46 12.076-80.556 7.178.862-36.1-4.354-65.655-7.16-101.128-.885-11.2 5.527-38.863 7.953-51.114 36.253 15.092 78.487 10.22 116.28 5.698 16.758 11.153 37.39 19.824 54.933 29.986 8.505 4.927 16.449 8.576 18.826-4.604-.531-1.836-.709-3.491-2.4-4.626-13.947-9.363-31.671-16.956-46.341-25.39 23.888-5.199 45.795-12.388 69.236-18.727 3.872-1.047 13.042 2.536 16.834 3.27 7.953 1.539 11.516 11.311 16.435 13.165 3.361-.65 3.835-.725 6.404-2.954 2.363-10.521-18.838-19.137-27.193-21.16 33.13-15.857 58.662-35.632 79.705-65.852"/><path d="M738.499 472.879c4.491.046 6.659.78 9.301 4.336.201 9.38-13.579 16.291-15.913 24.567l1.127 1.875c2.498 1.528 16.536 7.562 18.04 2.795 1.181-7.046 2.345-9.949 6.218-15.715 6.049-9.007 25.805-21.766 24.884-.794-9.664 17.022-19.788 22.439-37.86 28.034-32.267-4.928-31.949-33.933-5.797-45.098m-60.041 56.463c8.78 1.617 9.944 13.393 19.997 17.954 6.118 2.775 12.74.799 16.763 5.123.854 3.721.637 2.475-1.178 6.712-10.082.031-15.089-.498-23.957-5.644-8.592-4.985-17.984-13.756-11.625-24.145m73.541-82.391c3.668 1.332 4.721 1.672 7.079 4.676 1.678 7.226-2.632 9.744-8.234 13.246-12.292-5.492-8.569-12.733 1.155-17.922"/><path fill="#fefefe" d="M1185.16 1082.74c4.89 3.4 8.08 10.42 14.59 11.77 12.07 2.76 24.68 2.15 36.93 3.01 39.84 2.79 79.28-.66 119.1-.35-10.92 15.23-25.25 28.63-14.92 47.86-16.4 25.93 1.22 27.17 18.98 26.83-1.02.02 12.32 5.66 15.08 6.4 11.25-2.02 12.25-7.7 22.51-.65 5.06 3.48 13.43.63 19.13-1.46 23.83 22.57 56.4-12.32 81.21-18.7 8.42-2.17 21.48-.79 30.67-.42 5.83 9.08 11.53 16.4 16.67 26.15-23.86 1.97-47.71 4.11-71.55 6.4-26.9 2.64-60.12 6.41-86.67 3.85-77-7.39-126.94-52.29-205.18-33.21.55-15.11 3.14-30.19 4.44-45.25.53-6.04 1.35-13.37-4.12-17.33-3.17-.48-3.28-.51-6.23.89-2.63 2.6-2.76 5.68-3.53 9.46-2.11 16.47-5.96 41.41-6.53 57.39-46.09 12.77-83.77 3.48-131.16 6.5-53.371 3.41-106.549 7.86-159.817 12.39a961 961 0 0 1 7.06-28.92c13.601.82 8.832-1.53 19.039-5.88 12.238-5.23 21.989-.81 32.173-13.69.591-.75 20.019-2.83 23.75-5.52 7.848-5.65 10.87-13.42 13.192-22.01 16.242 26.81 15.638 53.2 50.943 45.71 2.59-.55 32.12 10.77 34.82-1.77-4.16-8.08-21.23-4.03-30.54-7.09-1.17-3.17-1.21-11.68-2.36-14.99-3.03-8.68-8-18.9-11.88-27.28 34.39 1.77 71.75 2.3 106.17 3.03 5.04 8.87 13.93 34.76 23.1 37.07 3.82-.85 2.44-.09 5.22-2.89 2.89-8.92-8.84-29.36-13.26-38.66 28.91-1.06 29.72-1.75 52.97-18.64"/><path d="M1251.55 1129.67c7.19.79 33.2 7.69 36.95 14.4.02 3.74.03 2.55-2.46 6.24-5.33-.08-31.75-10.25-36.08-13.62-.67-3.87-.41-2.73 1.59-7.02m-1.19-12.92c8.55-.34 24.49 4.5 30.68 10.61 1.35 3.74.92 2.58-.22 7.15-6.38.62-23.91-6.18-29.08-10.66-2.09-1.81-1.5-4.74-1.38-7.1m-48.13 9.39c7.24-.28 20.73-2.34 25.43 3.34.01 4.08.14 2.66-2.04 6.55-6.22-.29-20.8.8-24.89-3.65-.52-3.81-.59-2.35 1.5-6.24"/><path fill="#fefefe" d="m648.163 756.126 1.893.183c2.558 3.242 5.458 38.715 6.109 45.311 5.288 53.517 2.63 107.57 1.005 161.202-4.631.627-9.595 1.034-14.276 1.366-40.296 2.855-80.008 8.242-119.979 14.138l-1.262-.431c-1.774-2.988-.559-17.127-.392-21.412 2.377-61.036 1.218-122.291-8.894-182.627 49.007-1.703 88.203-4.626 135.796-17.73m387.387 445.284c15.57-2.6 39.47.98 53.99 7.71 11.78 14.01 17.11 45.67 35.92 56.66 24.85 14.52 76.75-2.91 103.94-7.78a357.6 357.6 0 0 1 52.63-5.59c37.04-1.34 72.6 5.97 109.19 2.41 18.79-1.83 35.65-15.92 54.67-16.62 23.77-.93 49.38 21 72.72 20.23 20.12-.66 48.09-8.79 68.03-13.71 9.74 11.75 25.78 36.21 34.06 49.65-34.76 1.16-79.88-1.05-114.87-2.81l-113.83-6.63c-19.55-1.22-38.96-2.59-58.53-3.56-58.89-2.92-117.28 3.78-175.88 8.5-46.57 3.54-93.15 6.77-139.76 9.7-34.421 2.23-71.619 4.79-106.028 4.36l5.161-25.34c48.349-4.11 151.557 7.16 74.648-68.93 14.209-6.38 28.549-6.9 43.939-8.25"/><path d="M1046.29 1218.02c7.93-.48 24.78-.81 30.41 4.69 1.26 3.93.84 2.76-.4 7.44l-1.06.04c-7.19.22-24.67-.38-29.89-5.36-.84-3.89-.67-2.53.94-6.81"/><path fill="#fefefe" d="M1270.72 1294.44c42.49-2.22 95.74 2.14 139.13 4.62 74.27 4.25 145.42 8.6 219.9 8.65 7.2 10.53 15.2 22.83 23.23 32.54-23.08-.08-52.71-2.5-76.12-3.77-42.42-2.14-84.81-4.64-127.19-7.51-56.29-3.93-107.72-8.23-164.17-8.03-38.01-.2-76.59 3.4-114.53 5.57l-265.671 16.91c2.111-8.89 2.939-17.14 4.034-26.2 35.31 1.49 82.696-2.95 118.457-5.22zm-619.755-194.35c3.938-.25 17.099 1.8 21.53 2.39 27.031 3.61 56.037 2.84 82.81 7.04-2.483 11.69-6.083 24.37-8.905 36.21-8.247-.45-34.797-3.38-40.181.8-1.063 3.56-1.154 2.08.129 5.44 7.611 7.27 43.94 9.13 52.396 3.58 5.898-3.87 12.031-36.47 13.903-44.72 16.236 1.68 62.743 5.74 77.273 2.04a806 806 0 0 0 20.496 31.73c-4.231 10.8-8.407 28.8-11.473 40.5-51.445 1.59-82.375-1.81-133.176-9.99-23.347-4.68-49.273-11.13-72.386-14.6 2.953-6.79 5.686-14.62 8.301-21.61 5.812.2 24.904 3.09 26.99-3.99-4.302-6.63-25.633-7.52-32.265-5.55-7.634 2.27-17.639 25.04-21.576 32.34-14.697.6-32.482 2.74-47.395 4.19l-71.167 7.04c-13.799 1.49-27.89 3.67-41.687 4.37 7.298-9.1 17.234-18.13 25.265-27.73 49.434-9.68 103.54-31.82 151.118-49.48"/><path d="M801.202 1129.45c7.763-.06 24.725-.99 30.474 3.72l.108 2.1c-3.79 4.81-6.72 3.92-12.534 3.98-8.321-.17-28.266 1.49-34.01-3.85.471-7.15 10.33-5.79 15.962-5.95m-241.375 14.82 7.24-.18c7.31-.17 22.057-1.64 27.097 3.18-.059 3.62.305 2.23-2.393 5.47-6.488 1.49-28.253 2.09-33.056-2.65-.679-3.47-.678-2.12 1.112-5.82"/><path fill="#fefefe" d="M1545.44 1053.21c13.18-1.92 39.2 24.16 47.98 33.52-17.84 22.9-34.18 57.9-67.06 59.37-12.42.54-23.43-1.62-35.51 2.46-13.5 4.57-49.95 31.61-62.45 24.4l-.3-1.97c6.39-12.37 56.84-33.84 55.86-44.91-12.57-8.27-57.3 40.96-83.33 43.23l-1.1-1.06c2.69-9.89 62.26-49.44 62.98-58.26-5.27-4.59-17.27 4.78-21.43 7.83-11.25 8.39-61.91 61.56-72.76 46.79 2.52-5.41 43.41-41.61 51.1-47.83 4.03-3.26 16.17-10.16 18.36-13.29-.18-3.67.38-2.29-1.92-5.09-20.46-5.17-77.92 74.22-89.78 62.04-.41-2.97-.23-5.68 1.84-8.07 10.32-11.92 41.59-41.92 54.19-49.24 22.8-13.25 63.18-32.63 87.72-40.86 5.55-1.85 44.45-6.56 55.61-9.06m-386.41-100.171c14.22-.817 33.66 14.376 42.06 24.404 9.42 11.238 17.29 101.747 8.29 106.987-20.5 1.58-16.56-27.24-22.51-40.83-5.17-11.82-21.08-29.16-29.8-39.9-1.33-1.63-4.14-1.32-5.96-.96-7.01 10.28 28.75 37.1 29.47 54.58-5.97 8.31-35.86-11.74-40.77-17.32-4.2-4.76-14.24-17.38-20.13-16.51l-.81 1.65c1.35 8.2 2.85 9.8 8.01 15.95 11.28 11.14 24.41 20.5 39.63 25.42 4.65 1.5 12.83-.16 15.6 3.9-1.93 4.93-8.9 6.4-13.45 6.65-18.42 1.02-34.69-9.63-46.41-22.98-3.03-3.45-8.51-8.34-13.48-7.95l-.73 1.32c3.31 22.42 37.36 34.9 56.06 39.74-27.96 1.84-51.1-7.42-66.08-31.89-.9-21.83 5.96-44.58 16.1-63.637 11.56-21.742 21.46-31.242 44.91-38.624M618.136 1235.46c13.53 6.62 64.209 21.45 80.517 26.52a3742 3742 0 0 0 118.224 35.37c27.268 7.67 50.593 14.49 78.523 19.58-.503 5.06-1.589 21.13-3.929 24.34l-2.716-.41c-26.882-7.38-56.322-17.1-83.334-25.21l-113.426-33.43c-25.861-7.83-57.379-18.55-83.144-24.89 2.789-8.32 4.896-14.2 9.285-21.87m-20.773.88 1.795.15c-.142 2.97-6.07 16.37-7.544 20.61-25.308 6.7-59.92 12.58-86.001 17.56l-133.381 25.39c-1.219.05-1.349-.14-2.583-.49 1.013-4.95 16.667-20.75 21.155-25.58 63.373-14.29 142.197-26.5 206.559-37.64m833.807-173.79c10.43-.46 19.25-.66 29.68-.46-7.08 2.77-20.2 8.06-27.32 8.45-31.06 1.67-32.72-4.05-60.27 12.57-12.12-1.81-46.36.64-60.34 1.25-22.38.98-41.68.96-64.17.54l-26.96-.92c.13-6.3.45-11.46 1.01-17.74zM644.007 711.195c2.879 1.589 3.506 17.143 3.866 21.237-35.295 13.597-99.946 17.436-137.682 17.734-2.139-2.522-4.145-18.88-4.781-23.094a498.2 498.2 0 0 0 138.597-15.877m-6.124-45.074 1.21.234c2.955 3.686 2.864 16.476 3.1 21.718-54.632 14.049-83.331 16.463-139.205 16.009l-1.033-.454c-1.958-3.014-2.229-6.877-2.855-10.537l6.844-11.6c49.083-1.385 82.827-.303 131.939-15.37m-5.237-45.148 2.231.28c1.54 2.416 2.238 17.377 2.542 21.47-31.197 12.762-81.287 15.742-114.67 15.46l-3.638-.592c-1.986-4.241 2.982-16.304 4.502-21.673 35.723.454 75.332-2.095 109.033-14.945m493.704 156.52c3.3.26 3.13.222 6.02 1.859 7.84 11.799 31.6 150.908 26.95 158.693-3.6.664-10.22-4.155-13.28-6.357-24.43-17.603-52.29-22.362-81.83-25.535-6.58-.128-12 .285-17.88-2.757-.03-.653-.26-2.998-.04-3.381 8.14-5.644 19.28-3.223 28.51-2.561 27.99 2.008 51.59 9.58 75.33 24.517.59-34.247-13.81-77.057-19.48-111.264-1.27-7.671-7.42-26.831-4.3-33.214m516.71 90.635 3.96.036c3.09 2.012 2.17.83 3.5 4.24-1.88 5.405-12.92 8.119-18.4 9.973-36.29 12.273-56.77 42.649-80.45 70.211-25.26 29.383-49.15 60.982-74.94 89.802-3.04.82-4.18.23-6.25-1.79-.68-6.3 7.76-13.83 11.88-18.79l25.79-31.331a3030 3030 0 0 1 38.65-46.486c27.35-32.858 52.2-64.572 96.26-75.865M995.329 1070.94c31.621-.94 69.151.46 100.901 1.07 7 7.49 21.4 15.53 24.3 21.48-8.23.65-28.54-.29-37.33-.55-25.64-.78-51.28-1.77-76.9-2.97-3.62-6.37-7.273-12.71-10.971-19.03m-597.47-426.655c.733.185 3.414.971 3.72 1.349 7.952 9.825 13.645 24.834 21.6 35.079 18.355 23.774 44.403 41.286 61.05 66.297 5.951 8.94 20.732 44.344 14.66 54.194-2.414-.644-6.707-2.069-7.279-4.875-6.138-30.123-13.344-46.449-36.122-67.937-21.996-20.75-47.868-46.372-58.944-74.992-1.622-4.191-.575-5.54 1.315-9.115m334.213 428.875c7.178-.99 35.537 2.18 45.045 2.53 13.732 15.53 30.284 18.96 49.414 24.75a2168 2168 0 0 0-44.777-4.63c-32.954-3.07-66.623-4.87-99.758-7.76 15.612-5.23 34.17-10.58 50.076-14.89m-34.161-483.14c4.708 5.651-12.047 65.812-13.887 78.043-3.495 23.228-3.838 47.878-7.474 70.603-1.744 2.699-3.342 2.764-6.624 3.837-4.896-6.773-1.735-20.969-1.195-29.329 2.612-40.483 11.378-78.993 21.103-118.234zM261.474 841.411c3.838.652 4.662.467 7.227 3.08 3.273 7.808 5.879 18.412 7.813 26.762 6.579 28.415 14.947 56.305 21.904 84.601.591 2.402.173 4.397-.716 6.635-8.186-2.099-11.67-11.509-13.055-18.83-3.054-16.154-27.466-91.459-23.173-102.248m1239.866-17.898c4.33-.179 6.91-.133 8.71 4.49 12.56 32.386 25.42 64.774 36.9 97.553.66 1.886-.19 4.186-.91 5.953-2.59-.08-6.41-.047-7.54-2.877-13.01-32.644-24.7-65.89-37.38-98.682-1.13-2.921-.54-3.61.22-6.437M1398.4 1081.24c7.42-.46 15.68-.14 23.18-.03-27.61 14.12-40.2 24.33-62.27 45.9-3.11 3.27-6.19 7.45-10.52 7.81l-1.38-1.45c-.61-17.34 34.63-48.11 50.99-52.23M628.929 584.784l1.398.314c11.884 11.963-10.735 17.475-18.379 19.445a247.5 247.5 0 0 1-82.83 7.5c-.595-4.258.334-8.222.995-12.516a161 161 0 0 0 8.418 2.246c37.77 8.719 59.103 2.355 90.398-16.989m585.801 400.689c23.21 12.342 22.36 35.667 12.54 56.387-1.52 2.88-3.79 6.02-5.63 8.76.7-25.31-1.51-40.84-6.91-65.147"/></svg>