<svg xmlns="http://www.w3.org/2000/svg" preserveAspectRatio="none" style="display:block" viewBox="0 0 2048 1462"><path fill="#fefefe" d="M0 0h2048v1462H0z"/><path d="M1168.59 173.44c9.54-.565 29.15.065 39.4.001l89.63-.427c86.8-.12 173.6.647 260.39 2.301l193.81 2.343c35.83.57 77.94.265 113.15 3.653 5.34 25.683 5.34 81.173 6.18 109.922a9034 9034 0 0 1 5.1 181.8 30121 30121 0 0 1 12.92 556.637c.06 13.2.04 78.68-2.7 84.25-3.31 6.74-17.53 4.85-24.18 4.96l-336.66 8.69c-11.65.22-71.89-.78-77.97 1.51-6.13 6.44-9 25.91-12.49 34.83-13.8 35.33-15.73 75.48-53.19 93.69-.16 11.73 1.9 39.82-3.6 48-6.43 4.05-9.55.03-13.92-4.74-7.48 1.79-14.81 1.76-22.36 3.21-5.89 1.13-4.59 4.85-9.14 8.35l-2.18-.32c-2.96-2.21-3.43-4.15-4.95-7.54l-11.93 3.31c-2.9-.69-5.72-1.64-8.57-2.55-17.2 4.44-37.97 2.87-55.43 5.25-1.41.19-2.63 4.79-3.2 6.6l-1.75.65c-3.24-4.56-5.16-7.24-11.16-7.46-6.61-.24-6.94 3.23-11.08 7.16l-1.85-.41c-1.56-2.7-1.96-4.15-4.62-5.42-2.95.12-2.79.14-5.28 1.81-1.29 3.08-1.45 3.59-3.43 6.21-3.25.88-2.29 1.13-4.96.14-1.06-2.91-1.23-3.33-2.91-5.9-4.2-1.96-115.33 4.54-132.49 4.51-27.95-.05-55.96-1.03-83.906-1.84-9.688-.27-22.222-2.54-31.582-.99-8.295 9.22-6.451-.78-19.134-1.48-30.096-1.65-60.357-3.78-90.426-6.01-5.642-.48-17.992-.32-18.797-7.54-3.109-27.89-.142-58.48-3.506-86.18-22.494 24.46-47.278 30.84-75.284 44.49-35.726 17.41-72.152 20.63-109.61 7.12-50.184-18.1-54.336-93.86-37.642-135.88l-314.206-.65-79.883-.26c-11.626-.06-29.806 1.04-40.666-1.23-2.038-3.54-11.385-37.18-11.518-41.99-.618-22.32.806-45.63.954-67.99q.927-93.48 2.94-186.945l7.937-489.011a5490 5490 0 0 1 2.656-102.972c.253-6.804 2.692-33.579 1.364-38.268l1.148-1.538c18.366-9.992 245.438-11.69 287.488-12.535l264.034-4.727c81.011-1.556 163.363-4.682 244.242-5.759l122.727-1.63c26.23-.223 56.07.328 82.09-1.205"/><path fill="#fefefe" d="m1210.87 225.866 101.76 5.31a8241 8241 0 0 1 285.38 22.656q67.065 7.063 133.98 15.508c16.25 2.057 52.34 8.608 67.26 7.629-.57 18.99-4.25 46.051-6.28 65.921l-10.65 105.837c-2.48 23.289-3.97 46.89-6.27 70.278l-25.01 260.282c-4.98 53.944-14.76 120.394-15.9 173.961-8.91-1.793-24.24-2.27-33.74-2.896-15.98-1.11-31.94-2.394-47.89-3.851l-175.52-16.418c-21.61-2.075-45.52-3.214-66.65-5.858-12.08-11.866-23-21.127-37.01-30.585 12.62.965 61.07 6.512 69.56 2.578 4.05-8.272 8.77-75.757 10.05-89.711l9.97-108.006 16.02-167.516c2.64-27.065 27.81-238.298 24.28-251.562-11.22-5.379-94.21-9.203-112.35-10.471-41.25-2.883-86.44-7.18-127.69-9.223-4.99-1.049-16.81-2.088-20.62 1.841-2.31 11.234-11.61 102.701-10.07 110.18.38 1.823 1.23 3.061 2.89 3.932 5.38 2.816 192.87 18.197 215.55 19.156 3.24.137 6.99.151 10.08-.958 2.76-.992 3.49-1.721 4.79-4.261-.33-2.6-3.7-6.954-6.44-7.235-70.47-7.232-141.79-10.053-212.18-18.031-.65-7.9 1.06-21.122 1.84-29.297 1.98-20.795 5.1-41.246 4.98-62.216 22.2.743 46.51 3.122 68.81 4.795 33.84 2.222 67.66 4.651 101.47 7.286 19.8 1.443 46.83 4.383 66.15 4.169a34490 34490 0 0 0-40.14 399.458c-5.99 64.838-11 131.027-18.12 195.662-23.22-.702-53.21-2.776-76.64-4.636-7.55-.6-29.38-12.5-40.41-15.223-38.37-9.472-76.89-12.87-116.27-14.652-5.24-18.643-6.33-28.675-23.52-38.641 3.21-16.829 11.13-45.473 18.25-60.313 49.43 6.883 87.69-46.039 60.53-89.425 9.53-19.169 20.49-45.387 25.63-66.224 21.48-87.11-6.88-174.804-80.95-227.852.93-28.208 4.83-60.417 6.97-88.793 1.26-16.717 2.29-36.246 4.12-52.585"/><path d="M1551.39 277.916c11.77-.324 28.53 1.692 40.59 2.885l61.68 6.233c17.21 1.723 103.28 7.428 113 12.923.95 3.261 1.12 8.324.76 11.718-5.83 55.411-10.45 110.973-16.43 166.355-.4 3.738-1.28 7.619-3.05 10.951-4.44 1.928-6.47 2.225-11.32 2.018-32.16-1.374-64.08-5.492-96.11-8.066l-70.27-5.547c-6.54-.576-36.59-2.278-38.99-6.434-.22-23.416 5.6-65.196 7.52-88.702 1.1-13.502 7.87-95.875 12.62-104.334"/><path fill="#fefefe" d="M1560.56 296.218c3.63.698 30.88 31.268 35.42 36.337 14.55 16.269 32.91 33.256 46.18 50.246-16.36 12.113-32.46 25.037-48.67 37.413-12.19 9.05-37.28 30.255-47.99 36.537a3887 3887 0 0 0 15.06-160.533m192.45 18.028c1.31 2.683-13.11 143.561-14.64 161.917-10.81-13.384-22.04-25.165-33.09-39.139-14.5-18.052-29.3-33.453-43.92-52.639 31.12-24.074 59.55-47.079 91.65-70.139m-103.23 77.521c6.67 5.708 22.68 25.665 28.84 33.12 14.82 17.948 28.82 34.441 44.77 51.492-26.87-1.171-56.18-4.592-83.15-7.015-23.15-2.511-60.04-2.898-80.84-6.87 18.49-15.71 42.31-31.775 61.42-47.223 9.92-8.024 19.65-14.244 28.96-23.504m-72.05-98.342c37.57 3.764 75.12 7.645 112.77 10.45 15.68 1.168 31.32 2.677 46.91 4.711-9.65 9.815-25.07 18.979-35.87 29.032-8.92 5.471-40.09 29.745-49.23 37.327-7.97-7.238-74.02-78.652-74.58-81.52"/><path d="M1532.02 493.956c11.87 1.503 32.56 1.639 45.89 2.76l109.27 9.984c12.51 1.034 45.79 2.246 55.89 6.207 3.48 4.481-4.34 76.202-5.29 86.809-1.67 20.66-3.6 41.299-5.78 61.911-1.15 11.374-1.93 36.514-9.51 44.137-7.22.919-16.43-.157-23.88-.5-57.41-2.638-114.41-10.561-171.82-13.692-6.27-.851-18.49-.826-17.45-10.242 6.66-59.911 11.42-120.041 18.61-179.885.38-3.215 1.66-5.396 4.07-7.489"/><path fill="#fefefe" d="M1540.17 511.893c5.75 4.74 16.39 17.391 21.93 23.086 19.64 20.159 39.4 46.435 59.08 65.72-17.25 13.453-34.68 26.071-51.52 40.127-14.26 9.674-32.86 25.512-46.17 33.049 1.61-10.498 2.27-23.001 3.51-33.843 4.86-42.558 8.21-85.61 13.17-128.139m189.05 19.895 1.45.79c-.39 11.172-2.25 27.079-3.26 38.549-1.82 21.934-3.9 43.844-6.27 65.726-1.71 14.884-5.35 39.33-5.29 53.53-12.76-11.764-23.6-24.56-34.66-37.882-12.73-16.117-28.73-33.479-42.24-49.899 7.44-6.969 27.24-21.801 35.74-28.347 17.72-13.639 36.62-29.521 54.53-42.467M1554.2 508.76c12.31-.363 39.06 2.656 52.11 3.838 38.14 3.451 74.93 7.282 113.22 9.396-9.96 10.581-27.69 22.314-39.46 32.295-16.17 12.045-33.2 26.036-49.13 38.617-6.07-5.58-14.05-15.317-19.86-21.491-19.37-20.561-36.81-42.823-56.88-62.655m73.56 101.888 2.2.365c21.33 23.313 48.26 59.545 70.22 80.598-25.36-1.12-56.33-2.679-81.34-5.832-11.82-1.386-25.13-1.872-37.17-2.968-14.19-1.292-29.52-3.549-43.6-3.051 30.29-23.046 60.15-45.082 89.69-69.112"/><path d="M1512.08 707.193c45.07 3.838 90.05 9.051 135.11 13.253 13.55 1.265 63.67 4.172 73.1 7.632 2.38.874 5.61 4.562 6.36 6.964 1.59 5.112-15.23 150.419-17.67 165.779-.79 4.952-1.68 9.731-4.03 14.215-7.85 7.724-17.85 5.192-28.31 4.434-30.13-2.183-60.24-5.439-90.33-8.21l-56.27-5.162c-43.97-4.116-42.16.908-37.73-43.479l5.79-55.529c1.95-20.503 4.04-40.993 6.28-61.466 1.02-9.414 1.88-31.751 7.7-38.431"/><path fill="#fefefe" d="M1520.98 725.975c3.17 2.713 18.13 20.247 21.98 24.584l55.42 62.909c-13.05 11.505-34.33 25.684-48.99 37.6-13.86 11.337-32.81 22.575-45.52 34.434 1.75-42.788 9.94-88.907 13.19-131.827.57-7.543 1.58-21.068 3.92-27.7m190.84 18.971.85 1.133c-3.3 32.798-6.94 65.559-10.94 98.279-2.23 19.613-4.02 41.151-6.84 60.435-10.42-12.95-23.93-29.102-35.2-41.076-13.89-15.984-27.04-31.221-41.28-47.042 6.49-6.247 16.5-13.674 23.69-19.415 22.82-18.204 46.6-34.457 69.72-52.314m-104.94 78.944c10.1 8.867 22.19 23.954 31.12 34.411l42.06 48.905c-26.3-3.227-53.37-4.749-79.03-7.977-28.31-2.876-56.62-4.879-85.18-7.857 16.54-10.823 27.07-19.638 42.61-31.529 15.88-12.15 32.43-23.732 48.42-35.953m-70.79-100.913c52.22 5.549 112.41 8.959 163.03 16.048a2835 2835 0 0 0-40.57 29.822c-13.29 10.042-37.93 26.951-48.85 37.697z"/><path d="M1283.83 672.108c35.76 3.626 71.99 5.309 107.69 9.574 9.34 1.115 37.68.926 43.54 5.714 1.15 2.811.91 3.13.3 6.257-2.6 3.53-1.23 2.363-5.45 4.261-10.81-1.262-25.21-1.86-36.35-2.799l-65.35-5.896c-9.34-.782-42.85-2.041-49.39-6.937-1.92-3.24-1.56-1.766-1.3-5.576 2.74-3.683 1.47-2.428 6.31-4.598"/><path fill="#fefefe" d="M905.124 262.392c4.027-.448 15.969-.441 20.53-.559l4.328 63.2c.888 15.1 1.336 33.065 2.852 47.753a1065 1065 0 0 1-26.617 27.804c-.193-12.185-2.119-29.509-3.216-41.842l-6.074-66.545c-2.944-1.299-6.175-2.765-9.409-2.576-16.473.964-33.035 2.218-49.498 3.18a5651 5651 0 0 0-109.921 6.764l-72.605 5.609c-14.303 1.018-32.275 1.282-46.113 3.388-1.258 12.189 1.303 39.149 2.246 52.718a6820 6820 0 0 0 8.94 112.81l22.887 306.032c.99 13.068 6.73 103.124 9.753 106.875 9.781 3.905 82.832-4.404 96.37-7.462-2.093 4.646-21.779 35.042-25.287 35.531-55.753 7.778-112.8 9.56-168.856 15.87-16.31 1.836-34.926 2.505-50.806 5.56l-.843.17c-4.692-.988-41.422 3.14-48.096 3.772l-121.418 10.732c-11.864 1.06-42.578 5.052-52.568 5.14-2.255-3.223-5.219-93.454-5.891-104.489l-21.691-308.33c-3.309-53.582-6.735-106.429-11.985-159.884-2.318-23.596-2.448-46.15-7.293-69.792 11.62.483 29.153-1.203 41.005-1.989 31.329-2.078 62.666-6.114 93.878-9.522a13235 13235 0 0 1 179.149-17.232 6321 6321 0 0 1 225.627-16.456c42.255-2.241 88.704-2.677 130.622-6.23"/><path d="M576.748 605.367c2.686-.393 5.697-.909 8.358-.301a6.75 6.75 0 0 1 4.327 3.15c3.637 6.235 8.785 101.276 10.079 115.233a8813 8813 0 0 1 9.053 97.073c1.451 15.686 6.742 55.374 3.657 68.442-4.78 4.954-108.569 12.623-123.977 14.231l-91.112 8.977c-23.49 2.474-45.745 5.614-69.382 7.048-4.944.756-14.186 2.06-16.327-3.23-5.714-14.115-5.344-38.557-6.552-53.225a5154 5154 0 0 1-9.944-132.868c-1.161-16.414-6.913-78.024-3.718-90.271 2.866-2.84 10.32-5.157 14.179-5.631 26.589-3.263 54.115-6.109 80.705-8.889l128.112-13.557c20.758-2.142 41.9-3.67 62.542-6.182"/><path fill="#fefefe" d="M302.08 651.396c7.326 2.655 127.781 104.018 138.873 113.833-21.861 24.467-42.585 50.794-64.301 74.699-16.151 18.555-38.278 44.082-55.313 61.456-4.531-42.385-7.382-91.112-10.341-133.487zm274.699-25.658c3.587 3.612 7.564 78.036 8.334 87.327l13.795 161.782c-18.072-16.044-43.282-35.269-62.494-50.98-2.532-2.262-5.36-4.845-8.031-6.924-22.699-17.677-44.769-36.001-67.65-53.453 6.014-8.98 21.052-25.214 28.395-33.924 21.655-25.686 45.205-49.997 66.113-76.348 7.012-8.837 15.979-17.945 21.538-27.48m-21.38-4.342c1.7-.318 7.957-.625 10.019-.779-20.693 25.367-44.586 51.482-65.974 76.49-16.004 18.713-32.772 39.568-49.753 57.109-21.668-18.882-44.943-35.607-65.716-53.909-16.986-14.838-50.217-43.114-68.369-54.76 78.815-9.215 160.69-16.21 239.793-24.151M451.741 773.702c5.234 4.575 11.292 9.499 16.836 13.758 39.054 30.005 76.708 64.44 116.533 93.252-41.133 4.451-85.011 7.759-126.627 11.891-36.39 6.396-83.929 6.431-120.698 12.705 8.862-13.399 31.283-36.725 43.11-50.393 23.439-27.09 46.974-54.536 70.846-81.213"/><path d="M561.605 310.371c3.736-.844 5.19-1.074 7.471 2.126 1.062 20.008 4.788 45.436 6.605 66.21l11.288 142.582c.678 8.642 4.662 50.702 3.351 56.394-6.492 7.491-40.076 8.467-50.623 9.521l-70.99 7.138-172.955 18.178c-2.118-.025-2.886-.566-4.782-1.45-2.097-2.503-2.425-5.034-2.81-8.163-4.926-40.126-7.466-80.76-11.312-121.022-3.836-40.159-9.213-81.188-10.611-121.447-.105-3.032-.566-9.959 1.521-12.361 9.051-10.416 261.307-34.237 293.847-37.706"/><path fill="#fefefe" d="M556.909 328.006c1.601 2.711 19.401 216.71 18.941 231.139l-1.182.383c-19.762-12.843-45.811-34.519-66.066-49.134-22.87-17.283-47.231-34.977-70.4-51.873 7.703-10.666 28.555-32.255 38.52-43.146 26.072-28.498 53.359-59.789 80.187-87.369m-279.805 31.479c6.272 2.944 36.489 25.247 43.132 30.065 32.414 23.502 66.41 46.894 98.478 70.738-21.086 22.574-42.285 47.566-63.068 70.746-7.923 8.262-50.252 59.782-54.14 62.048-2.143-4.282-21.278-212.804-24.402-233.597m151.715 108.951c3.923 1.421 34.964 24.56 39.671 28.117 32.58 24.625 65.799 49.043 98.137 73.946-3.966.918-7.983 1.274-12.023 1.713-38.168 4.146-76.497 7.087-114.571 12.032-40.371 5.291-86.139 7.169-125.946 13.45 32.042-33.404 61.437-70.651 92.779-104.791 7.302-7.954 15.388-16.002 21.953-24.467M530.63 326.412c1.923-.331 9.124-.572 11.433-.696-9.025 9.905-19.05 19.37-28.189 29.264a4449 4449 0 0 0-86.833 96.44c-15.238-13.282-55.838-42.241-72.474-53.33-20.188-15.299-44.197-29.009-64.833-44.041a10270 10270 0 0 1 240.896-27.637"/><path fill="#fefefe" d="M1847.32 187.528c3.94-.496 6.73-1.105 10.65-.4.47.486.93.971 1.39 1.456-.25 5.834-.56 24.77-.63 29.471-.43 29.664-.34 59.333.29 88.994 1.04 93.648 2.99 187.283 5.85 280.892q3.24 95.519 4.89 191.078c.43 24.443 1.7 52.248 1.37 76.233-22.18-.46-44.35-.643-66.53-.551-9.67-.012-32.77.257-41.64-1.204-.35-7.807 3.07-34.044 3.9-43.281l9.39-105.355 22.4-259.507c4.48-53.123 9.81-106.028 11.64-159.39.67-19.559-.38-17.042-18.98-20.559-8.21-1.551-16.76-2.91-25.04-4.236a3234 3234 0 0 0-211.33-25.42 6497 6497 0 0 0-297.83-21.339c-9.37-.444-45.46-3.965-52.83-2.039-13.05 3.408-10.43 133.324-19.91 145.898-33.73-15.943-58.63-25.763-96.3-29.134-55.3-4.949-96.806 1.739-142.296 33.865-.999-13.072-4.879-109.896-9.64-113.968-11.201-3.338-95.748 2.008-112.25 2.937a7597 7597 0 0 0-431.642 33.554c-56.146 6.483-108.284 11.439-164.327 22.444-1.602 29.237.083 61.349 1.567 90.657a8703 8703 0 0 0 5.75 101.853l9.115 170.079c3.73 60.507 8.822 122.484 10.762 183.021-24.971-.648-50.647 1.28-75.686.197-3.648-.158-5.992-1.002-9.675-.348-1.768-3.976.425-86.417.6-95.465l4.962-322.957 1.404-120.609c.321-31.796 1.4-82.249-3.699-112.662 31.641 1.888 70.355 1.651 102.041 1.509l170.386-2.174 628.048-11.463c148.33-2.045 296.69-1.876 445.01.504 107.25 1.195 221.96 4.957 328.82-2.581"/><path fill="#fefefe" d="M876.056 304.594c3.555-.537 4.38-.736 7.904-.185 2.849 5.241 9.085 101.277 9.273 112.067-1.846 3.632-5.68 8.176-8.259 11.594-55.155 73.095-16.963 141.925 11.754 216.99-8.489 6.326-12.084 11.615-15.361 21.622-17.454.603-40.948 3.506-59.09 4.939a3257 3257 0 0 0-102.839 9.338c-9.538 1.03-39.375 1.574-43.689 9.972 1.567 4.495 3.877 5.55 8.7 5.43 23.972-.597 47.562-4.183 71.47-6.373a6860 6860 0 0 1 123.615-10.208c2.687 29.111 18.745 56.296 49.471 61.503 6.543 1.108 13.745.823 19.984 2.931-4.185.538-5.335 1.379-8.481 2.652-.822.333-9.455-3.934-10.964-4.229-14.702-2.867-17.364-.395-29.857 5.587-.626.299-8.011-1.72-9.536-2.182-10.004-3.029-20.32 1.515-28.656 6.86-2.598 1.666-4.164 2.824-6.712 2.094-14.123-2.441-21.044 1.029-31.664 9.85-8.355-2.804-19.563-2.784-27.688.814-23.177 10.265-21.94 42.556-27.638 62.959-3.339 11.954-9.128 25.57-13.781 37.207-16.717 4.669-68.348 6.429-89.402 9.392.04-18.707-3.195-46.665-4.671-65.92l-11.892-146.44c-8.821-113.06-14.719-230.409-26.234-342.775 62.932-3.26 125.96-8.99 188.925-12.062 21.371-1.043 44.077-3.25 65.318-3.427"/><path d="M850.571 329.483c5.779-.83 13.497 1.665 11.982 8.637-6.723 6.52-34.449 6.341-44.548 6.996l-51.986 3.777c-31.525 2.076-65.416 5.694-96.253 7.437-6.802.025-10.283 1.358-15.042-3.685-.774-6.358 8.577-8.037 13.664-8.609 22.765-2.56 45.802-4.111 68.664-5.787zm-36.348 119.041c8.12-.774 19.114-2.75 23.833 5.733-.071 3.52-1.887 5.75-5.641 5.967-15.154.876-30.357 1.345-45.528 2.066l-98.639 5.167c-7.55.52-14.444 2.163-20.213-2.614-1.359-3.338-1.393-1.761-.241-4.886 5.144-4.759 9.797-3.612 16.211-4.186 43.356-3.882 86.799-4.971 130.218-7.247m14.477 39.84c5.82-.792 8.455 1.267 10.877 6.177.056 3.533.624 2.103-1.213 4.606-8.332 4.278-138.895 10.097-154.614 11.015-5.167.234-15.037-.478-11.662-8.361 6.434-4.717 48.15-6.268 59.653-7.053zm3.985 116.053c3.284-.56 3.388-.545 6.541.387 2.69 2.086 2.717 2.191 3.782 5.358-.219 1.635-.097 2.672-1.182 3.999-4.767 5.827-132.202 13.894-149.59 15.699-5.414.661-7.525-.7-9.318-5.37.28-1.282.331-2.502 1.032-3.395 1.223-1.558 3.377-3.249 5.418-3.519 15.173-2.005 31.413-3.107 46.597-4.441zm-10.894-76.037c6.836-2.142 17.677.806 13.951 9.49-5.627 4.433-41.826 6.045-50.996 6.851l-94.499 8.577c-6.241.638-9.456.767-13.101-4.632-.456-3.367-.845-1.888 1.166-4.589 10.085-5.547 123.717-13.216 143.479-15.697m-56.442-156.816c6.7-.69 21.952-1.637 15.255 10.167-5.095 3.007-91.421 9.091-103.784 10.181-6.46.278-10.279 1.732-14.321-3.775-.393-3.789-.647-2.28.937-5.724 5.976-4.616 87.238-9.545 101.913-10.849m-24.064 39.987c4.365-1.524 9.367 1.186 11.393 5.409-.229 1.54-.023 2.222-1.174 3.375-6.347 6.364-60.302 6.231-72.754 6.709-6.753.52-9.618 1.492-13.403-4.211.174-1.496-.032-1.885 1.043-3.062 6.937-7.595 62.348-7.548 74.895-8.22m97.429 156.869c2.924-.381 4.478 1.323 6.49 3.154 1.25 3.609 1.285 2.075-.012 5.556-7.488 6.892-58.635 8.969-71.963 10.459-6.773.806-9.051-3.559-7.085-9.54 4.32-4.612 62.27-8.599 72.57-9.629m-1.105-166.956c1.696-.096 3.304.009 4.999.079 3.075 1.635 3.068 1.947 4.691 5.217-.763 9.64-34.6 7.484-43.741 8.827l-1.118.171-.724-.015-1.206-.037c-5.897-.153-7.198.62-10.433-3.991-1.136-10.383 38.499-9.442 47.532-10.251M724.128 580.405c5.662-.645 6.742-1.6 10.059 2.753.53 3.74.86 2.258-1.101 5.359-7.873 5.231-31.362 6.537-41.795 7.8-5.569.078-7.985.912-11.201-4.174-.651-8.628 14.513-8.355 20.961-9.198 7.607-.993 15.431-1.677 23.077-2.54"/><path fill="#fefefe" d="M169.139 866.228c8.729 1.155 30.49.694 40.193.577q23.721-.27 47.443.056c-.309 8.353.955 22.878 1.429 31.573l1.983 43.469c.357 6.899.943 26.552 7.196 31.027 2.714 1.943 17.812 2.141 21.902 1.885 49.148-3.074 98.162-8.831 147.181-13.375a10187 10187 0 0 0 274.63-27.1c-19.714 27.797-35.625 54.921-54.176 83.36-12.078 20.42-25.961 43.68-35.864 65.32l-456.094 1.1c1.826-16.08 1.506-40.41 1.701-57.08q.232-53.05 1.116-106.098c.241-16.82-.025-38.244 1.36-54.714m1592.781.604c8.55.555 106.23 1.148 108.59 2.482 2.54 8.766 2.36 37.825 2.56 48.968l2.2 107.398c.18 13.49-.75 41.41.69 52.86l.16 1.22-405.65 3.54-13.63.58c.38-2.18.72-4.36 1.02-6.55 7.39-53.88 2.03-88.156-30.97-131.667 7.26.196 15.94.946 23.17 1.85 45.49 5.692 94.22 6.329 139.27 12.801-1.25 14.488-6.43 28.322 2.69 41.526 9.16 13.27 26.65 18.11 41.7 20.66 26.52 4.5 58.16 1.46 80.51-14.87 12.21-8.918 10-19.002 13.09-31.746 1.78-7.338 16.08-.126 21.86-4.504 7.31-5.539 10.64-89.954 12.74-104.548m-847.538-112.54c4.666-.289 9.77-.296 14.315.774l.823 1.35c-15.512 16.629-31.839 44.233-39.5 65.95-3.064 8.683-6.452 32.978-3.135 41.832 11.76 10.7 28.379-53.55 49.123-56.163l1.481 1.316c1.746 10.929-18.045 48.678-23.594 59.394-27.968 7.377-45.826 11.924-72.713 22.973-23.167-8.632-54.73-12.598-79.169-8.615 4.043-9.84 7.384-15.652 10.958-26.289 2.749-6.767 4.546-14.027 7.345-20.754 7.681-18.465 2.628-42.936 17.935-57.837 4.015-3.908 16.185-4.76 19.197-.718-2.528 5.795-8.373 13.26-6.22 19.138 3.127 2.907 1.718 2.399 5.515 2.91 13.351-5.237 13.492-34.244 32.36-32.389 3.809 6.834-21.288 28.541-11.724 38.694 16.395 4.427 26.923-57.203 49.724-47.151-.232 7.547-34.737 45.615-22.19 55.788 2.447.158 6.632-.33 7.996-2.584 8.585-14.194 24.308-51.902 41.473-57.619m230.308 389.158c15.19-.99 38.39-.44 54.2-.56 1.03 33.37 2.15 70.85 1.12 104.15-17.95.48-36.11 1.67-54.26 2.17-16.02.84-32.02 1.02-48.01 1.96-.7-8.9-.34-24.45-.51-34.16a6101 6101 0 0 1-1.12-72.86c13.32-.91 34.24-.28 48.58-.7m-52.85-164.39c14.29-.14 85.58-1.027 94.7 2.67 5.74 10.071 4.81 46.84 7.04 60.66 1.25 7.73 4.38 35.34.86 40.32l-3.6.27c-20.46-2.39-44.54-1.45-65.25-1.71-8.15-.11-22.04.73-29.59-.63-2.97-7.87-3.61-86.483-4.16-101.58m-62.82 166.49c3.16-.61 2.19-.86 4.91.11 1.89 3.92 3.61 92.75 4.48 107.24-6.53-.93-15.61-.47-22.4-.5-12.21-.11-24.418-.29-36.626-.53-2.293-.36-1.356.14-2.936-1.49-2.23-8.59-4.339-92.13-2.847-101.45 4.867-2.67 46.439-3.02 55.419-3.38m-1.11-164.97 1.38.591c1.94 7.413 3.92 93.479 2.68 100.489-3.96 2.96-49.882 4.48-59.15 5.45-1.971-.45-1.032-.08-2.64-1.56-.103-33.27-2.552-68.44-3.319-101.911q30.538-1.29 61.049-3.059m67.34-163.105c21.26.898 56.42-1.946 76.07 8.53 8.14 4.338 9.07 13.553 10.93 22.057-40.88-1.861-85-3.338-125.63 1.707-26.28 1.744-57.482 7.221-84.047 10.678 5.011-11.553 6.35-14.409 14.595-24.49 45.112-12.046 59.422-15.869 108.082-18.482m156.26 325.865c12.8.81 41.34 2.01 53.27.94.06 21.84 2.36 45.45 2.27 67.5-.04 9.48 1 21.57-.29 30.7-14.07 1.46-38.47 1.72-53.78 2.64-1.36-33.88-.65-67.91-1.47-101.78m-147.98-279.89c18.94-1.448 53.24.083 73.23.433.65 14.011 3.32 43.016 5.74 56.45q-10.875-.052-21.75-.231c-20.2.136-50.01-.403-69.71 1.804-1.58-15.606-1.64-40.777-2.17-56.988zm142.19 119.528c14.55-.056 33.19 2.558 48.64 3.173.82 9.993 8.14 95.699 5.93 99.259l-2.53-.08c-12.37-.64-35.18-.19-46.21-2.01-2.25-2.94-5.72-89.408-5.83-100.342M965.733 750.98c6.543 3.458 13.897 8.89 20.4 12.867 52.637 32.191 133.087 37.419 186.327 4.391-3.06 9.659-5.44 17.768-7.85 27.596l-1.89 10.326c-44.97-10.605-129.82-3.563-173.527 14.592-8.463-22.193-12.066-47.925-23.46-69.772m-75.006 239.368 9.989-.872c.587 31.654 1.62 71.154 4.497 102.204q-16.92 1.08-33.794 2.73c-3.557.37-6.493 1.07-9.771-.12-1.14-4.75-1.518-20.25-1.896-26.35-1.498-24.23-1.869-48.53-3.097-72.791 11.264-1.209 22.838-3.109 34.072-4.801"/><path fill="#fefefe" d="M1601.09 961.471c35.94 2.229 76.52 6.925 113.12 9.982-3.85 13.825.99 18.349-12.4 26.865a91.4 91.4 0 0 1-25.8 8.932c-19.4 3.75-48.57 2.45-65.78-8.601-16.63-10.689-5.91-22.07-9.14-37.178M906.292 1151.67l.638.04c1.454 2.5 1.718 25.21 1.951 30.3a1853 1853 0 0 0 4.281 67.02l-39.412-2.22c-2.335-.06-2.172-.02-4.073-1.38-1.11-4.27-1.884-24.63-2.155-30.47-.98-21.08-1.347-40.64-4.005-61.72 13.64-.15 28.687-1.27 42.775-1.57m114.938-281.23c2.4-.358 3.09-.689 5.24.435l1.52 53.729c-19.34.605-38.916 2.159-58.239 3.492l-3.79-.066c-2.562-3.4-2.575-42.744-2.682-50.035 17.61-3.558 40.021-5.758 57.951-7.555m307.6 119.352c11.87 2.674 22.59 2.931 34.23 5.711-.13 7.737 1.44 20.597 2.03 28.887 1.03 16.2 1.9 32.4 2.61 48.61.15 3.46.94 12.59-.99 14.68-10.11-.28-20.57-.94-30.7-1.45-3.09-31.58-3.59-64.36-7.18-96.438m8.23 156.378c7.22-.41 23.84 1.19 31.51 1.72-1.12 13.1.33 83.85-2.6 90.06l-1.72.45c-7.26-.16-18.19.43-25.19 1.93.84-26.75-.77-66.84-2-94.16m-97.22-278.106c15.09 2.062 29.43 3.853 44.17 7.779.35 12.137 4.95 38.409 4.42 47.915l-1.67 1.102c-15.43-1.855-29.69-2.15-45.18-2.638-1.45-8.824-6.12-49.162-1.74-54.158M838.629 998.405c2.497-.601 2.613-.851 5.051.092 3.042 8.183 5.062 85.063 5.707 98.563l-15.281 2.02-3.506-.41c-1.026-1.71-4.492-85.26-6.014-98.03 4.783-1.114 9.185-1.61 14.043-2.235m56.463-108.263 2.306-.087c2.696 3.289 1.738 37.541 1.781 43.826-13.081.739-30.999 3.595-43.968 5.676-2.41-2.977-2.966-30.308-3.163-35.851 9.94-2.118 30.61-10.228 43.044-13.564m-43.317 264.388c2.045 5.02 4.37 79.17 4.916 89.88-6.495-.07-12.989-.21-19.48-.43-1.229-1.33-1.857-2.62-1.958-4.45-1.344-24.44.004-59.37-3.621-83.02zm331.675 129.04c4.58-.73 12.42-.51 17.3-.51l.28 15.73c-6.75.98-18.4 1.23-25.66 1.61-21.36 1.05-42.74 1.79-64.13 2.21-3.82.24-9.48 1.46-12.07-1.09-.64-4.1-1.35-9.62-.5-13.68 7.77-3.88 69.03-1.6 84.78-4.27M962.259 782.626c5.83 12.606 9.359 29.84 12.727 43.623-9.742 9.842-15.071 20.895-16.277 34.794l-19.07 3.521c-2.533.429-5.191.773-7.744 1.145-.686-1.791 3.202-7.884 4.373-10.506 6.993-15.66 12.643-32.11 17.205-48.595-1.527-2.801-4.537-6.769-6.464-9.481 6.783-5.063 9.66-8.347 15.25-14.501m-21.113 202.867c4.264-.355 7.81-1.069 11.772.321 2.467 3.942 4.801 99.356 3.742 101.696l-2.43.16c-2.893.24-8.696 1.15-10.972-.01-3.018-15.79-2.377-43.16-2.946-59.71-.381-11.08-1.713-30.531-1.046-40.992zm-40.108-329.826c.666.817 46.338 78.055 46.033 74.4l-2.422.785c-24.916-4.014-39.88-12.771-47.527-38.208-4.145-13.789-2.931-24.341 3.916-36.977m141.622 323.095c5.4 2.107 7.04.034 13.57 1.378.96 7.069 1.27 37.53 1.27 45.86.01 10.72 2.23 47.82.99 56.22l-2.29.63c-4.14.22-8.31 1.03-11.23-1.55-.67-5.17-1.54-27.94-1.23-32.43.67-9.79-4.15-65.878-1.08-70.108m52.4 115.208c14.82.77 92.93-.91 101.41 2.24 1.82 3.84 1.44 8.25 1.53 12.64-11.47.19-96.48 1.31-102.73-.32-.94-4.15-.41-10.12-.21-14.56m-150.377 55.23 14.383-.28c2.681 28.13 2.908 72.46 4.212 101.89-4.115.48-9.934.1-14.215-.04-.465-32.35-2.748-69-4.38-101.57m110.587-5.21 3.24.23c.51.49 1.02.98 1.54 1.46 1.36 28.03 2.06 78.92 2.75 104.99-2.69 1.79-7.11 1.7-10.56 1.99-1.76-.07-.88.09-2.6-1.17-.78-3.1-2.78-99.9-2.04-104.73 2.24-2.42 3.87-2.03 7.67-2.77M922.676 987.522c1.671-.705 1.963-.437 3.821-.185.798 1.784 3.791 99.703 2.735 102.173l-3.007.62c-3.78-.04-5.21 0-8.868-.84-1.456-7.48-5.597-95.482-4.112-99.941 2.552-2.047 5.937-1.676 9.431-1.827m395.964-105.293c11.12 2.623 25.54 8.598 36.41 12.876-.12 11.8 1.72 24.695 2.29 36.613l-33.69-3.885c-.48-12.048-3.72-32.62-5.01-45.604m-98.84 98.708 13.05.31c.01 30.623 6.29 71.743 4.42 102.003l-2.09 1.36c-3.7-.25-4.78-.11-8.12-1.49-3.33-9.81-6.94-88.875-7.26-102.183M918.969 1150.31l14.091-.35c-.581 30.57 4.719 71.18 3.036 100.26-3.725-.08-5.749.14-9.224-1.26-3.329-3.62-7.049-85.94-7.903-98.65m153.171-6.18c3.76.24 7.53.44 11.3.58 2.17 33.05.79 72.93 2.04 107.07-3.96.21-5.85.49-9.77-.54-.83-3.51-.91-28.19-1.05-33.2zm-3.51-165.112 12.38.726c-.37 5.326-.5 10.768-.27 16.104 1.15 27.562-.15 55.742 1.23 83.232l-1.02 2.34c-3.38.17-4.47.78-7.94.37-2.03-2.53-4.09-94.507-4.38-102.772m159.55 164.002c3.49-.01 7.87-.47 10.47 1.5 1.02 6.17 1.09 23.06 1.25 29.85.46 23.58.69 47.16.68 70.74-2.55 1.17-5.28.99-7.92.4-.66-.68-1.31-1.37-1.97-2.05-1.31-25.89-.85-76.57-2.51-100.44m-115.55-209.524c9.03-.828 61.82-.961 69.52.294l1.44 1.998c.4 3.701 1.15 4.426-.48 7.139-5.36 2.501-17.48 1.224-23.89.946-4.08.327-15.73-.34-21.29-.236-14.47.09-28.98.783-43.44.455-5.28-.119-4.71-5.893-3.42-9.497 5.97-2.641 14.51.37 21.56-1.099M977.432 1286.85c20.589.57 41.188.73 61.778.47.68 4.39.72 10.88.88 15.51-7.67 1.35-53.138-.75-62.731-1.24.202-5.02.138-9.72.073-14.74M1306.2 987.875c3.97-.012 7.26.002 10.29 2.376 1.64 11.979 2.26 27.729 3.07 40.009 1.35 18.6 2.51 37.22 3.48 55.84-3.49-.12-4.38-.22-7.75-1.09-1.83-2.17-8.85-88.754-9.09-97.135M1012.79 1096.4c4.28-.59 16.02-1.2 20.09-.14.86 3.11 1.28 10.93.18 13.99-6.7 1.81-31.01 1.64-40.81 2.66-7.022-.15-14.467.46-21.512.89-.135-5.08-.099-9.58.038-14.66a1035 1035 0 0 0 42.014-2.74m167.78 165.11c6.23-.4 14.73-1.91 19.44 1.48.19 3.79.76 3.31-.86 5.97-12.31 2.69-66.01 3.65-81.4 4-5.82.21-15.86 1.59-19.87-1.89.1-3.88-.52-3.45 1.33-6.09 5.28-1.32 24.6-1.58 31.38-1.76q25.005-.525 49.98-1.71m-76.68-139.91c19.91-.24 39.81-.26 59.72-.08 7.84.02 26.14-.44 33 .68 1.99 2.73 1.46 4.14 1.73 7.94-17.01-.15-94.38 2.69-102.16.06-1.33-2.92-1.46-5.84.79-8.17 3.14.19 3.78.06 6.92-.43m143.39-444.874c13.66 21.695-11.61 56.642-37.06 60.162l-2.28.188-.45-1.33c1.39-2.98 10.16-13.404 13.3-17.768 10.04-13.98 17.58-26.75 26.49-41.252m-156.03 280.658c5.23.417 19.2-.218 25.03-.288 14.92-.106 29.83-.105 44.75.005 6.5.021 17.74-.346 23.73.817 1.93 1.686 2.23 5.193 2.81 7.879l-1.64 1.049c-10.65.554-31.54-.565-42.46-.688-6.83-.077-46.66.341-50.62-.73-1.97-2.95-1.39-4.119-1.6-8.044m-39.68-89.98 1.05-.061c.5.571 1 1.141 1.49 1.712.66 15.766.25 38.487 1.71 53.58l-11.64 1.358-3.06-.841c-2.9-5.197-2.4-45.066-2.49-53.38 3.5-1.989 8.73-1.982 12.94-2.368m250.09 409.016c3.7-.49 2.66-.91 5.33.66 1.48 3.88.71 10.16.49 14.55-17.26 1.34-34.32 1.98-51.57 3.64-2.84-.1-3.64-.16-5.26-2.27.61-4.45.84-8.17 2.56-12.32 3.97-1.06 41.52-3.6 48.45-4.26m-92.62-409.502c5.32-.475 11.43.015 16.83.291.01 17.969 1.32 35.071 2.99 52.958-4.49.765-8.85 1.855-12.85-.205-2.03-5.095-7.17-46.381-6.97-53.044m-261.288 13.404c1.824-.329 1.233-.196 3.214.341 1.641 4.234 1.773 41.209 1.487 47.396-2.282 2.091-5.581 1.777-8.924 2.011-2.722-.027-2.795.109-5.415-.965-1.527-10.418-1.705-35.118-2.086-46.654zm303.678 216.438c15.94-.22 35.55 1.69 51.03.26.38 4.03 1.94 12.9-.78 15.82-6.86-1.74-42.2-2.92-49.79-2.2-.22-4.58-.32-9.28-.46-13.88M922.023 884.289l1.945.658c.142 7.837 1.636 40.258.61 45.295-3.389 1.852-6.772 1.672-10.711 1.929l-1.357-.446c-2.655-3.578-2.56-38.416-2.706-45.185zm277.837 95.644c3.34.028 4.31-.187 7.31 1.054 1.88 4.455 6.09 91.883 6.9 103.633-1.93-.68-3.73-1.45-5.62-2.25-2.51-30.65-3.46-61.45-7.68-91.971-.5-3.603-.77-6.835-.91-10.466m116.2 164.867c3.64.07 4.6-.11 7.93 1.1 1.26 4.28 2.29 93.08 1.46 94.93l-4.23 1.47c-2.74-11.4-1.11-27.27-1.66-39.09-.88-19.27-1.46-39.29-3.5-58.41m-310.7-207.216c6.3-.455 18.44-2.503 22.95 1.212.67 3.012.71 2.88.26 5.909-4.13 3.346-32.352 3.489-40.327 4.057-5.562.342-18.878 2.946-22.161-1.1.162-3.14-.323-5.237 1.362-7.249 5.851-1.477 30.493-2.347 37.916-2.829M872.027 1281.12c14.2 1.91 29.355 2.77 43.661 3.29.331 4.62 1.306 9.83 2.059 14.46-12.008-.11-32.852-2.21-45.174-3.12-.529-4.89-.488-9.71-.546-14.63m202.483-415.756 1.57-.081 1.33 1.359c-.31 17.788 1.2 36.803.52 53.985-2.12 1.578-5.27 1.458-8.03 1.691l-1.39-.582c-1.76-2.415-3.48-52.729-1.72-55.315zm167.01 69.094c8.48 2.161 35.48 1.607 48.43 3.88.52 3.455 1.95 9.689.68 12.33-13.14-1.084-34.81-3.508-47.32-3.118-.28-4.01-1.17-9.017-1.79-13.092M951.135 756.74l1.803.543c2.488 3.282 3.512 7.682 4.805 11.703-12.793 8.684-26.553 24.317-39.169 31.933l-2.257 1.295-.736-.812c5.497-16.395 20.912-34.855 35.554-44.662M839.93 910.021c2.159 3.295 2.159 26.41 2.299 31.545-6.419.514-13.447 1.44-19.9 2.151-1.975-2.004-2.192-18.094-2.401-21.944 7.149-5.674 11.602-8.321 20.002-11.752m370.9 232.769 4.2.49c2.26 3.05 3.1 92.29 2.87 102.11-1.37 2.33-1.45 1.72-4.71 2.96-1.43-3.58-1.07-8.99-1.11-12.86-.29-29.44.37-59.04-2.33-88.38-.08-.91.72-3.38 1.08-4.32M1018 1123.57c6.03 1.47 11.18-3.45 16.41 1.51.75 3.77 1.19 2.9-.21 5.64-6.5 3.78-34.51 3.06-44.599 3.96-6.618-.62-12.995 1.56-17.244-1.2-.254-3.11-.605-3.97.739-6.62 7.592-2.2 34.114-2.18 44.904-3.29m-116.155-18.9 2.156-.01c1.698 2.69 1.784 9.44 2.059 12.95-13.721.39-27.118 1.9-40.817 2.85-.682.14-1.108-.18-1.981-.47-1.483-4.11-1.759-7.88.078-11.9 4.923-2.95 30.843-3.08 38.505-3.42m111.895-145.179c5.21-.074 10.81-2.2 14.99.605.24 3.583.4 4.042-.55 7.418-5.46 1.232-35 2.204-43.426 2.815-5.307.413-12.648 1.544-17.39-.238-1.356-2.873-.896-2.175-.656-5.781 2.994-3.269 39.922-4.37 47.032-4.819m-208.57 43.639c2.938-.27 3.875-.27 6.821-.07 3.087 3.42 4.626 76.03 6.398 87.72-.587 2.55-.455 2.81-.071 5.49l.111.73-1.203 1.59c-3.17-7.02-12.15-85.53-12.056-95.46m531.01 95.07c10.36.69 20.36.98 30.75 2.04 1.51 2.41 1.14 13.24 1.21 16.8-10.16-1.05-21.14-1.57-31.4-2.23-.52-6.06-.59-10.51-.56-16.61m-359.801 167.22c18.926.2 41.691-.54 60.031.49 2.45 1.69 2.06 3.11 2.93 6.7l-.91 1.07c-3.46 1.45-53.734.6-60.036-.09-2.167-3.12-1.615-4.06-2.015-8.17m211.771-400.249c3.86-.282 4.55-.429 8.28.27.6.517 1.19 1.035 1.78 1.552.15 10.866 3.48 43.978 5.11 52.753l.24 1.252c-2.42-.014-4.88-.227-7.3-.396-3.74-3.497-7.6-47.677-8.11-55.431m107.24 11.703c2.87.255 7.98 1.438 10.97 2.035 1.28 9.145 3.19 41.756 5.58 48.111-4.09-.326-6.71-.183-10.33-2.098-.88-3.042-5.65-42.589-6.22-48.048m-398.11 69.511c1.709.009.847-.127 2.55 1.161-.136 2.562-.094 3.861.078 6.425-2.712 3.522-33.995 6.649-40.766 7.558-1.796.273-2.176.122-3.999-.099-1.613-2.637-.64-7.022-.31-10.348 12.842-1.995 29.28-3.286 42.447-4.697m404.81 308.875 3.93.3c2.07 2.47 1.43 4.21 1.59 8.04-15.32 1.11-31.36 1.56-46.83 2.5-3.17.5-6.02 1.16-8.53-.25-.43-3.85-1.03-3.42.55-6.02 9.06-4.01 35.65-2.19 49.29-4.57m-58.17-295.473c13.18 2.019 34.84 1.005 46.76 3.933 2.11 2.466 1.85 5.495 2.13 8.933-3.36.636-44.59-3.232-47.36-4.178-1.97-2.698-1.51-5.203-1.53-8.688m116.55 311.853 3.09-.38 1.71 1.57c1.41 4.33.53 10.21.17 14.91-7.34 0-13.96.8-21.22 1.56-2.32.01-2.51-.05-4.78-.55-.99-4.56-2.24-8.13-.41-12.27 5.65-5.7 13.93-2.32 21.44-4.84m-34.33-330.428c6.05 1.161 14.1 1.385 20.23 1.576 12.31.384 12.17 4.923 12.9 15.151-6.15-.661-29.5-2.434-32.82-5.292-1.02-4.717-.68-6.644-.31-11.435m-74.7 181.268c10.4 1.89 37.28 1.08 50.68 2.27 2.11 2.67 1.53 3.39 1.84 7.22-16.83-.19-33.45-1.29-50.73-1.44-1.9-2.14-1.61-5.07-1.79-8.05m-381.281 136.55c11.559 2.18 31.897.86 42.589 3.26 1.757 2.35 1.475 5.46 1.624 8.51-4.818.41-37.701-2.7-43.018-3.83-1.57-2.16-1.173-5.14-1.195-7.94m23.97-289.595c2.45-.455 2.294-.502 4.707.05 2.079 3.226 1.65 1.764 1.717 5.517-3.19 3.659-31.554 5.871-38.332 6.794-2.413.396-2.521.574-4.936-.14-2.332-3.261-2.077-1.914-1.895-5.369 4.134-4.035 31.102-6.05 38.739-6.852m7.285 161.205c.488-.13 2.786-.2 3.443-.23 1.719 1.8 1.605 3.93 2.142 6.76-4.798 3.21-29.692 3.02-37.989 3.85-3.287 0-2.834.52-5.01-1.03-.613-3.76-.994-2.59.636-5.28 7.291-3.86 27.23-3.14 36.778-4.07m-65.394 148.15c10.35.02 13.706.56 23.917 2.16-.025 4.42.943 9.03 1.68 13.4-6.096.58-18.977-.74-24.941-1.91-.436-3.96-.501-9.53-.656-13.65m491.84-311.958c12.06 1.788 19.59 3.376 31.86 3.267l1.38 12.105c-9.26-1.252-24.85-1.695-31.57-6.654-1.93-3.225-1.61-4.938-1.67-8.718M840.858 1110.46c2.932-.35 3.648-.35 6.601-.16 2.774 1.83 3.008 2.14 4.315 5.2-.993 8.7-5.874 7.83-13.014 7.64-2.932.42-8.014.82-8.658-3.4-1.4-9.18 4.499-8.85 10.756-9.28m102.644-9.96c3.684-.36 8.113-1.32 11.743.26 4.395 1.91 4.471 11.12 1.625 13.9-4.706.76-8.97.97-13.716 1.26-.18-3.92-1.525-12.98.348-15.42m105.798 186.45c5.69.56 10.21-.68 14.35 2.85 1.93 3.92 1.34 8.7 1.3 13.26-4.76.15-10.13-.17-14.94-.35.32-6.8.52-9.16-.71-15.76m-98.929-1.02c6.044.61 9.685-1.14 14.535 2.5 1.7 3.82 1.133 8.56 1.062 12.9-4.386-.19-10.656-1.07-15.168-1.57-.319-4.52-.336-9.28-.429-13.83m412.939-35.38c1.09-.14 1.02.12 2.35.7.5 3.69 1.08 3.49-.2 6.34-5.11 2.57-18.98 2.7-25.3 3.02-1.27-1.79-.78-4.01-.28-5.91 3.53-3.5 17.96-3.74 23.43-4.15m-318.4-155.2 15.15-.38c-.35 5.89-.56 9.18-.01 15-5.83.03-8.99 1.66-13.66-1.49-1.82-3.73-1.41-8.78-1.48-13.13M839.984 953.394l1.724.644 2.151 10.267-1.441.054c-7.19.235-9.255.647-16.426 2.246l-2.8-1.261c-4.582-12.045 8.366-11.036 16.792-11.95m84.226 147.956c2.369.31 3.122.27 5.297 1.4 1.999 4.91 2.793 8.21.707 13.49l-2.042.74c-10.931.36-15.064-4.65-8.674-14.62zm-88.06 155.58c7.114.29 14.941-.63 21.175 2.2 2.224 3.35 1.492 2.64 1.605 7.39-7.884-.65-14.122 1.37-21.191-2.21-2.069-3.21-1.439-3.26-1.589-7.38m4.372-280.606c3.319.028 1.828-.487 4.495 1.929.242 3.016.413 1.499-1.144 4.592-4.593 3.268-9.019 3.309-14.641 4.016-2.474.38-2.321.325-4.763-.32-1.238-3.737-1.308-2.253-.213-5.77 3.84-3.064 11.116-3.58 16.266-4.447m235.538 311.206c3.29-.26 6.21-.85 9.2.3 2.9 3.71 1.91 9.87 1.86 15.11-3.73.13-6.47.63-9.77-.93-2.75-4.11-1.61-9.15-1.29-14.48m153.74-6.24c4.48-.32 6.16-.94 9.57 1.24 2.46 4.27.92 8.93.03 14-3.79-.22-6.88.12-9.65-2.19-2.01-4.43-.91-7.9.05-13.05m107.25-154.42c5.03.46 28.31 1.86 30.37 3.7l-.14 4.85c-7.84-1.27-22.35-.15-29.3-3.71-1.01-.52-.81-3.21-.93-4.84m-257.66-32.96 2.07.63c2.7 3.54 2.9 11.06.29 14.68-.72.99-3.87.9-5.2 1.03l-3.32-1.27c-3.58-8.45-3.05-13.14 6.16-15.07m147.87 2.06c4.07.07 7.42-.85 10.51 1.4 1.99 3.33 1.24 8.79 1.14 13-4.01.05-7.31.66-10.35-1.6-2.04-3.42-1.36-8.53-1.3-12.8M950.985 941.415c2.541-.056 2.624 1.479 3.315 3.372-1.483 8.667-6.99 7.447-14.45 7.325l-1.918-.667c-.645-3.542-.8-3.789.038-7.195 3.435-3.245 7.869-2.595 13.015-2.835m264.875-7.342c5.33-.194 10.06-1.517 13.79 2.429.38 3.636.71 4.494 2.02 7.964l.37.96c-4.3 1.178-10.2.5-14.79.24zm-408.111-5.35.942.924c3.312 10.229 3.914 15.379-7.473 17.259l-1.604-.495c-4.101-8.176 2.448-12.475 8.135-17.688m32.834 206.667c3.474-.46 4.535-.63 8.002-.3 2.869 2.05 1.974.74 3.009 3.88l-1.381 2.47c-2.776 2.2-5.67 1.7-9.41 1.75-1.971.25-3.972.4-5.951.58-3.131-1.63-1.904-.49-3.731-3.62l.714-2.16c3.689-2.95 3.295-2.07 8.748-2.6m87.133 150.35c3.777-.04 5.605-.32 9.208.92 1.787 1.95 2.391 9.1 4.274 13.2-4.134.05-8.993-.84-13.153-1.43zM1040.07 958.3c5.51.168 10.97-1.583 15.47.505 2.03 3.071 1.25 3.941 1.08 8.2-5.21-.068-10.31 1.303-14.73-.641-2.36-3.265-1.64-3.564-1.82-8.064m1.05-22.329c5.44.686 9.75-1.204 14 .7 2.26 3.257 1.59 4.256 1.8 8.675-5.42-.403-10.83.842-15-1.319-1.81-3.482-1.11-3.756-.8-8.056m-123.726 8.29c3.171-.264 4.502-.729 7.154.708 2.342 3.722 1.999 2.135 1.803 6.059-2.033 2.676-1.04 1.84-5.236 2.586q-3.272.48-6.559.842c-3.297-1.995-4.004-3.152-3.414-7.01 2.562-3.218 1.167-2.223 6.252-3.185m27.39 182.729c5.608.95 7.256-.54 13.312 1.1 1.67 2.67 1.03 2.54.857 6.41l-1.422.77c-5.113 1.18-11.898 3.22-14.792-2 .264-3.3.294-3.41 2.045-6.28m369.556-29.22c4.46-.13 5.42-.45 8.22 1.95 2.07 4.1 1.62 10.04 1.67 14.83-3.46-.53-4.45-.46-7.41-2.14-1.7-2.36-1.79-2.55-1.95-5.43zm-12.51-158.743c4.28-.324 6.94-.953 10.15 1.653 1.91 3.581 1.44 7.416 1.46 11.613-3.73-.081-5.19.124-8.72-1.299-2.58-3.119-2.44-7.672-2.89-11.967M949.189 1264.46c5.21.27 8.432-1.01 13.509.86 2.826 3.09 2.07 3.06 2.762 7.66-4.656.29-10.636 1.23-14.626-.67-2.422-3.22-1.641-3.21-1.645-7.85m268.481-306.1c4.29-.124 8.67-.775 12.35 1.051 2.41 2.607 2.06 5.234 2.31 8.96-4.06-.012-8.07.298-11.87-.942-2.7-3.039-2.09-4.429-2.79-9.069m-272.13 6.294 5.089-.135c2.922 1.995 1.975.928 3.354 4.303-.79 3.312.092 2.105-2.431 3.944l-2.689-.621c-2.518.842-4.455.846-7.08 1.051-3.451-1.513-2.376-.498-4.281-3.603l.538-2.231c2.816-2.701 3.14-2.012 7.5-2.708m100.48 158.316c5.77.29 10.22-1.35 14.24 2.29.58 3.09.17 3.88-.55 7.04-6.28-1.51-6.66.56-12.24-1.05-2.08-3.08-1.39-4.08-1.45-8.28M809.075 958.309l1.46 1.237c1.41 8.728.516 9.833-7.315 11.238l-1.363.004c-2.394-3.188-2.238-6.659-.67-10.164 2.973-2.675 3.273-1.906 7.888-2.315m239.775 307.361c4.69-.01 7.33-.66 12.04.41 3.08 2.81 2.38 3.23 3.44 7.82-4.6.42-9.46 1.48-13.41-.4-2.4-3.42-1.71-3.36-2.07-7.83M923.589 966.693l1.225-.283 1.585 1.09c.304 3.913.681 2.417-1.324 5.666-2.509 1.841-4.229 1.52-7.514 1.666-3.595.383-5.041.101-6.578-3.049l1.35-2.415c3.356-3.08 6.714-2.613 11.256-2.675m380.841-2.179c2.83.204 7.37.038 10.33.027l1.3 11.528c-3.88-.457-6.41-.388-9.69-2.451-2.28-2.666-1.82-5.4-1.94-9.104m-233.29-7.327c5.24-.194 5.7-.642 8.86 2.19.93 3.87.81 2.364-.36 6.417l-1.42.324c-2.49.136-4.61.194-7.1.175-3.56-2.343-2.81-1.124-4.03-4.598 1.21-2.797 1.38-2.823 4.05-4.508m-147.1 171.833c6.05.58 4.653-.16 7.954 3.39.602 3.13.953 2.34-.262 4.57l-2.665.57c-3.749.52-5.417 1.18-8.685-.59-2.503-2.96-2.143-1.64-1.915-4.91 2.341-2.75 1.516-1.88 5.573-3.03m270.97-194.935c3.54-.136 4.68-.196 8.15.413 2.87 3.12 2.16 5.606 2.27 10.552-3.61.01-4.7.222-8.04-.906-2.58-3.703-1.9-5.045-2.38-10.059m17.47 347.645c1.71.14 2.75.45 4.4.86 1.73 2.57 1.72 2.82 1.75 5.96l.1 8.71c-3.01.53-3.56.87-6.25-.25-2.26-4-.61-10.23 0-15.28m-135.22-160.02c2.22.08 2.32.19 4.47.86 2.6 3.93 2.24 4.48.14 8.42l-3.15.73c-2.64-.01-2.82-.04-5.41-.62-2.34-2.95-1.93-1.59-1.97-5.08 2.35-3.75.99-2.51 5.92-4.31m-4.08-187.191c2.29.282 3.23.288 5.42 1.191 2.24 3.569 2.02 2.103 1.65 5.793-2.5 3.07-1.51 2.094-6.11 3.266l-4.03-1.175c-1.8-2.664-1.94-2.756-1.78-5.836 1.8-3.099.67-2.129 4.85-3.239M925.6 1263.11c3.98.03 7.035-.37 10.474 1.47 2.055 3.39 1.439 3.55 1.624 7.76-3.766.11-6.501.58-9.879-.94-2.391-3.37-1.76-3.86-2.219-8.29m149.77 2.05c3.67-.29 5.92-.76 9.45.32 2.36 3.29 1.69 3.78 2.02 8.21-3.69.22-7.1.8-10.5-.43-1.8-3.13-1.11-4.07-.97-8.1m247.91 9.27 1.85 1.46c1.74 5.84 2.21 11.76-2.65 15.78l-2.75-2.16c-1.69-6.61-2.24-11.05 3.55-15.08m-95.24-152.54c3.8.06 5.73-.13 9.37 1.09 2.34 3.47 1.64 3.52 1.84 8.08-3.54.06-6.54.45-9.79-.79-2-3.16-1.34-4.23-1.42-8.38m-19.49-26.36c2.73.18 2.81.05 5.37 1.28 2.31 3.5 1.98 8.38 2.23 12.82l-5.17-.7c-3.43-3.73-2.47-7.91-2.43-13.4m-10.93-137.608c3.66-.25 4.28-.346 7.83.274 2.29 3.231 1.56 4.419 1.74 8.986-3.48.03-4.26.038-7.65-.616-2.25-2.956-1.6-4.358-1.92-8.644m32.69 302.048c4.5-.17 7.25-.93 10.32 2.42-.28 2.64-.37 2.54-1.82 4.6-3.45.65-4.06.95-7.43.34-1.94-3.2-1.26-3.19-1.07-7.36M806.603 981.275l3.857.668c2.224 2.894 1.75 1.532 2.138 5.108-1.805 4.219-.566 2.774-5.101 5.215-3.319-1.082-3.105-1.969-4.155-4.783.921-4.71-.002-3.112 3.261-6.208M1209.11 1121.4c1.85.24 3.51.59 5.34.94 2.46 3.1 1.77 4.4 2.17 8.98l-5.2-.74c-2.53-3.04-1.85-4.58-2.31-9.18m111.09 132.16c2.15.21 3.16.44 5.24.9 1.72 2.65.79 4.77.46 8.62-3.17-.21-3.33-.17-6.1-1.6-1.2-3.46-.43-3.98.4-7.92"/><path d="M1809.47 1155.24c2.34.16 3.04.1 5.29.99 4.69 8.35-16.53 44.89-22.21 51.51-12.27 14.31-87.03 96.3-97.46 97.85-4.16-1.22-6.37-4.21-9.49-7.4-3.8-3.89-14.99-13.86-15.21-19.15-.43-10.71 87.61-94.94 99.6-103.41 9.07-6.41 34.25-14.26 39.48-20.39"/><path fill="#fefefe" d="M1769.79 1191.7c3.66 3.32 7.06 6.11 10.92 9.21-7.35 9.05-19.23 21.09-27.45 29.73a5181 5181 0 0 1-57.04 58.75c-3.37-2.02-8.13-7.23-11.1-10.23 26.23-29.77 56.89-59.12 84.67-87.46m24.77-15.56c-.43 4-4.32 11.23-6.99 14.16l-1.41-.19c-2.66-3.1-3.41-2.86-2.93-6.76 2.54-3.62 7.15-5.19 11.33-7.21"/></svg>