<svg xmlns="http://www.w3.org/2000/svg" preserveAspectRatio="xMidYMid meet" viewBox="0 0 2048 1462"><path d="M219.483 76.997c8.122-1.07 17.865 1.514 26.06 2.141 30.584 2.343 59.977 11.129 89.727 16.36a3872 3872 0 0 0 182.238 29.35c16.937 2.464 34.294 3.148 51.436 5.351 14.603 1.877 29.196 4.735 43.648 6.486a4685 4685 0 0 0 180.805 17.493 4085.4 4085.4 0 0 0 733.243-14.415c74.24-8.276 148.99-20.773 223.29-29.461 31.83-3.724 64.1-12.043 96.45-16.848 8.39 3.343 22.26 4.681 23.2 14.713-3.92 11.38-38.09 24.286-46.21 21.51l-1.58.866c-2.28 7.142-.55 17.447.3 24.963 5.15 45.448.7 92.267-1.88 137.807-.9 15.877 1.35 31.65.88 47.523-2 43.765-8.21 87.39-11.5 131.008.44.615.87 1.23 1.3 1.844 4.74 1.862 10.47 1.08 15.53 1.32 5.51.26 11.59 2.4 16.89 3.93 25.61 7.406 46.47 19.845 64.28 39.725 32.94 36.771 40.77 92.838 38.06 140.5-.46 7.937-1.4 15.492-4.03 23.028-1.84 5.261-4.37 10.283-5.31 15.817-2.28 13.487-1.98 27.614-3.71 41.235-1.79 14.028-15.36 85.021-23.57 91.614-1.69 1.358-2.24 1.111-4.25.877-1.18-1.051-3.39-2.658-3.29-4.16 1-10.425 5.41-22.08 8.13-32.296 10.22-38.526 16.49-78.346 13.87-118.271-.27-7.068 1.14-15.107.53-22.088-2.68-30.457-2.1-56.263-14.14-85.073-12.81-30.659-28.63-52.163-60.86-65.101-11.68-4.688-29.5-8.243-38.39-15.177l-1.48.187c-2.94 8.452-3.93 37.021-4.54 47.624l-4.95 76.89c-.49 8.31-.06 16.838-.81 25.103-2.79 30.66-9.32 60.174-12.14 90.902-.69 1.521-2.77 27.043-2.43 26.69-7.37 7.68-2.15 11.821-4.2 21.51-3.31 15.672-5.56 32.5-7.7 48.478-.03.198-4.06 4.793-3.88 5.958.17 5.383 1.98 12.228.94 17.456-10.49 12.425 4.82 10.567-8.22 20.763-.8 2.537-.84 21.487-.9 25.448-.87.884-2.37 2.612-2.6 3.951-1.05 6.219-1.13 11.141-2.28 17.558-1.92 10.775-4.67 21.964-6.42 32.795-.08.513 2.34 3.273 2.08 5.21-.54 4.095-2.84 8.236-4.13 12.13-.02.064 1.74 6.918 1.75 6.898-1.52 4.69-2.82 9.854-3.89 14.609-3.62 16.152-7.43 31.502-10.31 47.852-2.72 15.48-3.83 30.73-5.67 46-.29 2.39-6.65 15.14-8.03 21.91.63 1.2 1.64 3.53 1.44 4.84-2.99 18.93-6.89 40.49-10.74 59-4 23.84-7.82 45.85-15.07 69.14-1.79 5.72 5.13 5.53-.97 14.84-6.54 9.97-2.66 53-17.88 55.77-10.86-2.63-26.34-4.63-38.22-5.52a8981 8981 0 0 0-239.84-16.56 9472 9472 0 0 0-311.6-12.73c-34.54-.78-67.69-1.05-102.17-.22-12.466.31-29.197-2.28-43.676-2.01-16.146.3-32.588 1.65-48.34 1.74-33.598.18-67.098.8-100.705.9-17.723.05-37.606 2.61-55.425 3.07-10.204.25-20.565-.75-31.126-.37a7294 7294 0 0 0-289.543 18.84c-13.856 1.21-27.877 2.62-41.645 4.58-16.676 2.38-53.341 11.49-68.082 8.88-4.66-.83-7.74-3.52-10.201-7.49-1.345-2.17-2.048-4.54-1.314-7.05 4.663-15.94 44.388-16.78 56.095-24.75 1.676-1.14 1.855-2.42 1.628-4.36-.751-6.42-4.124-12.84-5.865-19.08-3.272-11.73-10.73-45.85-8.099-56.73 2.332-9.66-7.1-21.01-8.721-31.06-1.145-7.09 1.651-14.81.794-22.05-1.157-9.78-5.733-19.4-7.471-29.16-2.834-15.92-.255-33-4.123-48.49-1.38-5.52-6.903-21.66-5.536-25.97.42-1.33 2.683-1.72 2.718-3.5.151-7.69-8.698-16.33-5.35-24.44l2.283-.61c.622-2.43-5.894-16.718-6.321-22.389-1.03-13.666-2.096-27.958-3.554-41.549-.788-7.343-6.562-20.387-7.487-28.058-.75-6.216.132-13.975-.546-20.35-.55-5.174-4.052-5.611-4.188-10.599 2.764-6.085 2.087-5.592.754-11.898-8.192-38.73-10.539-78.851-18.465-117.792-2.174-8.077 5.38-8.318-1.255-16.116-5.075-5.964-1.02-22.623-2.373-29.677-6.771-33.836-5.938-68.259-7.939-102.501-1.453-24.863-3.782-50.056-3.861-75.001-14.412 1.076-29.04-1.005-43.249 2.281-9.52 2.642-29.632 10.48-37.122 17.504-6.505 10.202-20.555 22.333-25.659 32.95-21.101 43.882-31.145 94.29-34.569 142.717-.697 9.863-6.974 7.654.296 21.256.109 4.898-3.228 13.741-3.533 18.187-.649 9.484 7.659 66.375-4.836 68.676-.473-.33-1.49-.988-1.89-1.439-7.828-8.823-12.53-53.126-12.826-64.473-1.404-53.837-3.883-106.169 15.888-157.235 2.773-7.163 5.031-15.478 8.209-22.482 2.312-4.94 5.981-9.51 8.385-14.352 17.913-36.076 46.588-67.095 87.864-74.359 11.599-2.041 28.214-2.089 40.222-2.67-.051-16.186-1.981-30.171-3.154-45.974-.07-11.947 1.056-23.633.302-35.597-.431-6.837-3.418-13.842-3.648-20.343-.337-9.509 1.602-19.618 1.067-29.179-.218-3.887-3.615-6.796-3.367-10.848-1.036-19.881-2.74-40.452-3.932-60.254-1.175-19.524 1.806-39.572-5.004-57.797-1.004-2.689 1.652-5.582 3.22-7.953-4.362-12.58-2.228-9.936-1.527-23.108l2.505-48.8c.721-15.543-.36-44.165 2.328-57.958-9.487-6.067-19.747-7.263-25.666-13.433-1.273-3.968-.91-2.658.348-7.33"/><path fill="#fefefe" d="M659.691 167.357c30.842 4.892 63.221 7.47 94.251 10.908 44.779 4.961 89.181 8.848 134.153 10.168 28.597.84 56.901 6.463 86.248 3.538 3.131-.312 6.543 1.825 9.513 2.33 24.294-.837 49.174.195 73.544 1.146 19.49.76 38.58-2.293 57.27-1.804 26.12.684 50.08.926 76.21-.725 7.67-.915 10.33 10.672 14.85 14.443 10.96 9.146 75.84 77.062 83.38 77.582 1.98-.683 2.97-.925 4.32-2.594a9.68 9.68 0 0 0 2.01-7.351c-1.29-9.284-67.75-71.933-80.96-81.852l82.4-4.385c11.97-.744 42.47-4.098 53.26-2.374 4.15 21.295 12.26 47.37 18.75 68.087 8.23 22.358 14.21 47.551 23.64 69.283 9.21 21.213 20.18 43.367 29.62 64.649 5.52 11.317 13.98 22.639 19.48 33.758 23.89 48.28 57.63 88.726 91.46 130.103 7.05 8.626 22.11 17.541 30.75 25.574 5.97 5.552 14.28 12.734 20.78 17.899 24.97 11.602 42.63 29.997 63.75 46.317 17.4 13.451 40.32 19.545 59.91 28.305 18.96 8.474 32.3 14.757 53.03 17.828-1.65 14.239-6.43 70.588-11.26 81.441-32.5 73.021-63.7 136.783-78.02 216.825-1.31-.455-9.72-3.34-9.86-4.107-2.41-12.456-8.16-16.67-16.64-25.564.73-1.982 1.32-3.13 2.12-4.982 27.55-63.651 52.14-157.193 27.62-224.8-7.74-21.274-27.5-50.885-49.6-58.424-77.25-26.351-215.64 13.507-174.91 120.143-.45 3.371-5.19 10.352-6.89 13.916-2.72 5.842-3.9 14.307-4.45 20.664-3.46 40.197 6.43 85.344 39.01 111.942 2.53 2.064 8.89 6.03 9.75 8.701-1.6 1.839-10.95 5.033-14.19 6.14-14.3 4.887-37.31 20.117-44.84 33.359-36.38 12.557-110.6 29.806-136.86 61.196-31.95 38.19-39.29 107.3-50.04 154.45-2.94 12.92-2.87 30.55-7.08 43.3-5.31 1.26-65.3-.01-71.52-.94-2.44-2.8-1.82-10.46-1.95-14.14-1.27-35.98-1.97-73.48-3.89-109.34-3.6-59.34-7.98-118.63-13.16-177.854-3.04-32.657-8.6-65.596-12.6-98.161-.81-6.569-7.08-32.106-4.66-36.942 2.26-.166 7.44-.366 8.89 1.432 5.18 6.394 18.58 104.938 27.57 122.905 1.03 2.066 2.93 3.569 4.69 5.005-1.88 7.831-9.46 35.983-1.62 40.011 6.61-1.484 7.4-10.596 11.6-12.128 4.69 5.607 4.63 30.715 8.68 39.602 5.99 13.17 21.77 10.44 33.05 6.27 2.78-1.03 13.85-7.36 15.12-9.86 12.5-24.649-3.51-51.427-7.39-75.892-.49-3.087 7.13-4.654 7.6-8.824 1.03-9.118-3.64-25.343-5.79-34.352-14.66-61.411-34.3-126.832-61.83-183.609-17.18-35.45-37.31-62.226-75.16-75.889-10.03-3.622-19.36-5.478-29.3-8.632-2-2.735-1.49-1.467-1.49-5.15 10.07-7.284 33.48 16.936 57.52-10.652 9.03 6.18 21.29 10.721 31.08 6.917 33.66-12.719 36.92-52.546 10.61-74.976-23.97-20.439-27.7-30.577-36.5-59.727-12.76-42.284-45.98-65.335-90.07-50.492-10.15-3.705-17.85-5.322-28.87-5.362a70.5 70.5 0 0 0-50.301 20.838c-14.835 15.001-19.609 28.963-19.537 49.114 3.513 20.023 17.297 22.31 8.504 41.725l-1.074.732c-15.763 10.855-29.564 23.582-33.615 43.191-3.067 14.853 9.908 31.632 24.542 33.745 9.237 1.335 18.695-7.589 25.566-12.972 15.548 21.894 21.477 6.33 30.645 13.814l-.052 1.839c-4.809 5.093-28.99 11.546-38.631 15.747a133 133 0 0 0-22.805 12.642c-10.791 7.483-16.819 14.734-26.079 22.959-10.412 9.249-63.609 78.872-74.365 71.315-6.875-15.592 18.779-154.327 25.644-159.178 7.135 1.28 13.471 9.817 19.728 7.406 14.458-5.573 31.486-34.292 27.422-49.065-8.68-10.934-31.527-24.16-43.235-33.405-51.931-40.444-94.874-95.981-129.938-150.93-26.132-40.953-34.505-65.458-77.861-21.049-23.917 24.499-41.461 56.878-54.215 88.528-6.949 17.245-15.382 42.594-9.353 60.498 4.073 11.376 31.178 14.307 41.549 16.481a2062 2062 0 0 1 49.773 10.942c45.376 11.021 80.609 22.989 123.997 38.499-9.532 10.745-46.631 48.759-49.871 57.883a20.48 20.48 0 0 0 1.143 16.577c4.275 8.188 13.773 13.558 22.356 16.124a3687 3687 0 0 0-8.56 41.246c-6.672 34.207-12.181 86.566 7.87 117.564 22.44 34.692 74.083 34.132 103.54 9.392 6.01-5.048 11.827-10.857 18.515-15.517l1.161-.801c-6.332 36.759-10.552 73.999-16.519 110.472-15.994 97.759-25.454 195.514-22.52 294.604.192 6.47-2.51 2.19-3.018 8.34l2.174 1.78c2.169 6.72 1.646 24.62 1.811 32.36.117 5.52 3.179 8.74 3.426 15.09l-1.553 1.45c-4.289 1.17-51.875 2.94-55.477 1.73.103-2.16.268-2.64-.335-4.74l-1.736.13c-.817 1.56-.915 1.78-1.23 3.46l-.235 1.31c-6.403.8-9.949.9-16.436.89-1.92-5-2.176-19.7-3.341-26.01-1.072-5.82-5.207-19.89-3.649-24.69l2.785-1.08.01-1.68-3.657-2.1c-4.215-5.46-16.495-84.84-25.436-96.03-.787-.98-2.612-8.19-2.689-10.04l3.338-2.25-1.14-1.03-3.586 1.29-1.581-1.72c-2.822-16.04-25.735-44.06-38.025-55.54 7.591-18.24 16.276-48.463 21.309-67.718 5.626-21.523 3.695-54.166.209-76.288-3.115-19.761-16.62-39.396-39.164-35.326-11.965 2.061-17.045 17.798-22.521 27.291-3.179-.064-7.126-.157-10.262.088-11.208.876-13.091 20.102-14.682 28.527-5.595 29.623 1.669 57.473 6.086 86.664-16.697-6.467-18.659-15.834-32.293-24.788-10.528-6.913-24.447-14.56-35.533-21.139 16.436-24.349 25.331-43.05 26.519-73.153 13.547-7.341 23.353-17.772 19.078-33.49-6.779-24.922-11.727-57.525-20.712-80.89 9.647-27.386 10.686-52.994-7.311-77.442a71.25 71.25 0 0 0-46.855-28.453 70.9 70.9 0 0 0-48.846 10.194c-4.783 3.004-11.258 7.885-16.525 8.844-29.454 5.365-53.794.977-79.959 20.26-22.524 16.6-40.12 45.361-43.675 73.137-5.776 45.122 8.681 83.46 31.136 121.611 5.417 9.204 8.275 19.794 15.427 29.301-10.244 9.154-25.268 19.566-36.594 28.222-4.304-17.741-6.294-36.101-10.383-53.997-9.163-40.094-24.671-77.452-42.76-114.241-3.76-7.646-7.788-18.611-12.48-25.038-1.005-1.377-2.96-2.784-3.272-5.032-2.747-19.779-7.868-45.394-8.805-64.822 11.18-8.449 37.561-15.889 52.487-24.825 12.11-7.25 20.805-17.868 31.807-26.434 6.572-5.117 14.517-8.269 21.139-13.327 18.651-14.243 34.666-30.659 51.879-46.43 4.309-3.948 9.282-6.57 13.727-10.219 5.69-4.669 10.843-11.264 15.609-16.874 8.614-10.141 15.862-21.634 23.569-32.481 21.475-30.222 42.108-60.666 58.736-93.954 8.385-16.787 17.805-32.986 25.942-49.889 1.971-4.095 5.465-16.293 8.225-18.749 1.189-1.059 2.517-1.529 3.376-2.969 2.113-3.543 3.283-8.48 5-12.326 8.292-18.572 17.188-37.199 23.059-56.723 2.74-9.111 4.502-33.582 10.042-39.319 6.633-6.869 12.909-50.525 18.338-63.936"/><path d="M1009.44 237.455c6.5.933 11.51 3.5 12.03 10.988 2.27 32.658 1.42 65.58.15 98.249-.1 2.453-3.97 4.421-5.79 5.484-2.49-.696-7.91-2.485-8.22-5.631-1.67-18.516.24-37.664.19-56.3-.03-11.591-4.46-43.91 1.64-52.79m-120.86 37.24c3.265.277 3.632.388 6.157 2.466 1.507 2.542 2.387 4.688 1.181 8.036-9.189 25.529-22.098 50.56-34.533 74.676-.562 1.091-3.52 2.882-4.55 3.48-4.366-1.587-11.586-4.573-9.327-10.757 4.274-10.048 9.77-21.85 15.063-31.389 6.684-12.046 15.116-40.035 26.009-46.512m-96.781-84.035c18.106 8.52.352 20.321-9.118 27.64-12.227 9.451-28.297 25.564-42.18 31.13-31.295-5.322 44.819-54.884 51.298-58.77m346.191 91.957c14.33 1.168 19.21 31.326 24.5 42.98 2.96 6.52 8.5 24.928 7.17 31.306-1.67 3.201-3.58 3.946-6.68 5.877-1.92-.889-4.95-2.013-6.28-3.732-2-2.582-24.82-66.927-24.57-68.631.52-3.651 3.22-5.573 5.86-7.8"/><path fill="#fefefe" d="M1797.93 134.128c4.81.856 3.58-.676 7.42 1.861 4.48 6.855-.4 12.644-.69 21.917-.3 9.812.72 20.732.23 30.118.67 7.846-4.87 26.644-3.92 33.565 2.56 18.704-2.67 31.474-5.78 49.708-.67 3.905.74 14.024.37 19.128l-9.65 122.816c-1.07 12.971-4.16 27.93-5.89 41.106-1.79 13.661-2.53 25.818-3.65 39.507l-.81-.074c-1.76-3.437-13.91-20.018-18.07-27.099a296.4 296.4 0 0 1-37.13-103.274c-.86-5.352-1.9-11.884-6.39-15.133-3.68-.089-2.26-.34-5.64 1.692-2.58 5.801 1.97 25.239 3.47 32.004 9.21 41.406 32.95 98.469 62.63 129.267-5.69 24.374-1.16 49.289-6.72 74.626-9.66-7.511-21.79-21.519-31.11-30.497-46.65-44.967-85.67-92.695-122.93-145.688a566 566 0 0 1-18.22-27.17c-5.17-8.384-17.25-29.619-23.08-35.387-3.71-.857-2.42-1.088-5.65.111l-.92 2.075c-.02 9.129 13.86 29.69 18.97 37.807a1000 1000 0 0 0 87.58 117.766c29.88 33.887 64.91 68.044 96.63 101.068a219 219 0 0 1-1.23 10.22c-2.2 2.952-.97 2.142-4.42 3.098-4.14-.669-17.92-9.984-22.7-12.879-24.42-15.17-43.75-24.917-69.26-44.241-23.95-17.37-45.71-38.304-69.58-55.493-3.05-2.195-6.73 2.719-7.08 6.284 2.18 4.17 16.66 15.53 20.95 19.263 35.81 31.214 73.02 59.242 114.66 82.305 12.16 6.731 23.04 13.997 35.99 19.908-.64 8.281 2.01 25.09-5.2 29.603-12.38 2.461-69.34-28.077-83.66-34.861-17.65-8.362-30.37-25.293-46.05-36.839-13.21-9.733-28.8-16.607-41.33-27.276-12.11-10.307-23.01-22.119-33.88-33.695-40.74-37.884-67.85-85.674-96.47-132.673-6.37-10.453-11.4-22.455-17.55-32.521-34.47-56.399-50.96-119.786-75.03-180.485 20.19-5.039 22.68-1.196 41.66-2.662 16.43-1.25 34.25-5.135 50.53-5.973 56.55-2.912 111.18-6.196 166.8-18.032 9.92-2.111 25.03-.316 35.67-1.741 20.58-2.754 41.25-5.629 61.88-7.996 7.58-.845 16.54-4.908 24.27-5.862 17.29-2.135 33.23-4.236 49.98-9.272M260.599 99.59a3416 3416 0 0 0 295.864 55.707c27.692 3.76 55.366 9.043 83.569 10.973-9.516 27.194-15.942 55.102-25.782 81.932-20.202 55.082-52.131 104.495-78.644 156.453-4.834 9.474-9.778 18.49-15.215 27.638a595.4 595.4 0 0 1-103.985 129.16c-28.437 27.204-56.269 46.846-91.69 64.757-11.671 5.902-23.607 13.865-34.638 20.985 6.234-8.94 21.868-18.923 30.81-26.145 40.227-32.489 73.758-71.416 103.817-113.328 4.593-6.405 14.477-18.573 13.439-26.432-2.485-3.247-1.285-2.602-4.727-3.771-4.952 1.356-15.89 19.708-20.181 25.48a876 876 0 0 1-49.145 61.341c-15.551 17.437-51.696 50.283-71.314 64.452-1.335-9.836-1.279-32.275-1.909-43.801 22.054-17.292 35.185-31.242 53.787-52.386 8.599-9.905 16.627-21.331 24.416-31.992a851.1 851.1 0 0 0 120.753-242.929c5.234-16.965 11.21-39.491 14.584-57.177.409-2.142-.596-4.662-1.616-6.592-2.908-2.242-1.635-1.913-4.911-1.905-8.106 5.054-13.647 39.845-17.01 51.265-31.364 106.484-84.624 215.53-160.143 297.781-5.838 6.359-23.15 24.707-29.378 28.303-3.215-19.419-1.683-40.814-2.794-60.326-.843-14.824-2.326-25.816-2.408-41.031a138 138 0 0 0 8.037-16.297 491 491 0 0 0 35.992-141.61c.727-7.406 4.497-28.719-5.243-31.312-6.682 3.252-6.189 17.385-6.427 24.012-1.357 37.733-11.212 73.626-22.464 109.433-3.871 12.32-6.4 21.093-12.565 32.571-2.211-24.418-3.011-46.883-3.756-71.288-.618-12.124-3.625-24.688-4.228-36.748-1.983-39.631-4.039-79.113-4.232-118.785-.941-18.583-4.439-37.024-6.161-55.5-1.937-20.789-1.972-42.259-4.502-62.888M955.93 884.415c11.493-.939 25.851-.659 37.55-.683 44.28-.09 91.57 2.146 133.9 16.062 2.65 39.063 8.87 82.066 11.98 121.936 5.3 73.27 8.92 146.65 10.87 220.09-5.87.23-11.52.07-17.39-.18-30.44-1.27-61.11-.12-91.54-1.48.89-32.04-1.89-72.47-3.75-104.74-1.92-33.39-2.86-98.26-17.59-126.66-11.61-14.746-22.54 4.03-25.433 14.88-6.847 24.56-7.703 50.25-10.152 75.37-3.985 40.87-5.91 81.42-5.779 122.47.015 4.9.711 13.68-.816 17.91-3.715 2.03-90.197 1.37-102.643 1.86-.783-17.86-3.024-36.45-3.286-54.17-1.259-85.22.597-181.47 16.645-265.061 6.523-1.257 31.631-7.986 29.474-17.512-6.672-4.265-22.021 4.652-28.403 7.785l2.768-19.972c24.354-5.79 38.639-6.421 63.595-7.905M710.123 332.826c23.78 46.613 87.696 126.424 129.704 158.143-6.187 11.903-16.425 27.164-23.956 38.475-15.51-7.778-26.376-11.471-42.587-17.205-53.827-17.793-90.337-27.697-145.952-38.427 40.457-26.089 71.391-73.887 79.184-121.369.982-5.983 1.937-13.233 3.44-18.999zm304.197 113.113 2.69-.143c3.87 2.182 4.54 7.926 7.36 10.622 7.66 7.3 23.74 9.243 33.24 9.848-2.27 10.731-5.26 21.828-2.53 32.561 5.49 21.578 23.39 10.337 32.94 16.007 2.43 3 1.89 2.877 2.32 6.562 2.6 22.223-48.23 18.768-47.88 39.555 1.59 3.764 2.94 4.336 6.32 6.567.22 10.25 4.49 41.033.54 48.321-.98 1.138-2 2.24-3.05 3.303-9.58 9.56-29.49 15.103-39.38 4.894-8.271-8.544-5.18-37.746-4.65-49.09-13.019-6.694-23.544-14.031-28.835-28.854-6.408-17.951-2.178-55.467 5.15-73.065 6.721-16.141 20.772-21.654 35.765-27.088"/><path d="M1003.85 487.027c1.39.381 2.99 1.021 4.37 1.521 6 7.601-3.39 13.878-8.868 19.595l.269 1.522 4.399 1.383c1.54 2.233.91 2.024.43 5.656-25.817-2.909-.45-13.969-.58-28.388zm-23.761 43.611c10.948.138 6.185 7.819 25.841 7.683l.85 1.198-1.06 2.22c-10.309 3.146-27.053 4.815-25.631-11.101m43.241-45.678c5.44-.09 9.15-.255 12.02 4.878-.93 3.95-.17 2.471-3.07 5.555-4.67-.519-9.7-.194-12.46-4.196.34-3.283 1.12-3.654 3.51-6.237m-36.128-1.891c1.837.224 3.003.565 4.782 1.002 2.422 2.56 1.858 1.109 2.064 4.362-2.282 3.519-1.246 2.327-6.101 4.317-1.753-.488-3.243-1.077-4.945-1.703-2.314-2.694-1.852-1.224-1.945-4.357 2.345-2.971 1.943-2.114 6.145-3.621"/><path fill="#fefefe" d="M598.697 763.965c3.353 4.159 17.543 67.074 18.494 76.783 1.474 15.055-15.707 12.448-21.388 18.073-1.725 4.309 2.502 9.501 2.176 14.203-1.732 24.903-12.486 45.033-28.339 62.359a348.9 348.9 0 0 0-108.478-16.53c-7.491.028-41.475 2.577-44.982 1.652l5.304-4.004.555-.347c15.842-10.064 58.478-6.399 75.952-1.387 5.772 1.655 17.081 4.211 22.754 3.255 11.009-6.215 23.954-40.172 27.723-52.378 6.616 3.037 19.812 4.753 21.788-4.495l-1.652-2.408c-3.863-2.365-7.353-1.751-12.03-1.677-9.825-9.348-12.813-23.079-7.68-35.367 7.449-17.833 19.904.737 25.892 3.97 1.679.087 3.956.336 5.005-1.713 8.181-15.985 7.956-38.56 14.326-55.811.44-1.192 3.479-3.391 4.58-4.178m96.09 91.553c10.257.379 18.138 3.905 21.848 14.043 8.378 22.892 9.111 60.377 4.25 84.23-3.527 17.306-14.795 44.679-20.918 62.229-8.093-6.89-23.149-14.09-33.096-19.691-1.283-.682-4.372-2.55-4.514-4.002-2.979-30.406-12.347-60.052-6.607-90.773 1.14-6.1.301-16.334 5.96-18.549 4.391 5.214-3.947 22.228.942 29.688 13.022 3.571 15.688-30.164 18.385-38.694 3.435-10.862 3.753-12.589 13.75-18.481m300.769 248.952c.912-18.67 7.274-73.46 14.424-89.21 4.14 8.89 6.68 19.09 8.17 28.77 2.63 17.16 12.69 142.07 9.17 151.24-.28.75-.63 1.49-.93 2.24-.18.45-.31.92-.47 1.39l-.28.83c.74 4.57 4.42 9.81 4.31 11.38-.59 8.66.33 20.89.06 28.87-11.43 1.19-25.76.48-37.577.38-2.227-2.07-2.755-3.03-2.825-6.61-.1-5.07 2.281-10.65 3.492-15.54-.92-1.25-1.61-2.18-2.07-2.81 1.003-14.65-.327-39.66.966-53.3l2.407-1.02c-.56-6.16-3.418-26.37.154-31.82-1.214-6.23.38-18.07.999-24.79m-551.81-174.016c64.77-1.101 123.837 5.338 175.195 47.452a373.4 373.4 0 0 0-53.577-15.478c-45.736-10.044-90.544-14.336-137.382-13.557-15.697.261-34.358.349-49.675 3.486 21.768-22.938 32.796-19.303 65.439-21.903M310.542 795.536c6.411 3.989 25.654 60.911 28.147 71.545 6.629 28.279 14.489 59.543 17.833 88.332l-6.138 2.665c-4.83 1.645-11.696 4.433-16.591 3.294-4.233-6.363-2.348-22.471-3.833-30.052-7.379-37.645-9.209-76.219-16.805-113.922-1.461-7.254-3.24-14.39-2.613-21.862m1146.488 1.965c4.95 3.232 10.43 7.622 15.01 11.412 3.81 13.529 3.69 22.42 5.17 36.244a898 898 0 0 0 7.54 53.91c.66 3.643 5.41 26.578 4.38 28.128l-4.08-1.899c-34.9-28.662-43.58-86.937-28.02-127.795m89.65 150.963c26.87-1.157 74.01 5.393 96.48 21.801 2.52 1.835 3.87 3.499 4.36 6.407-2.06 1.126-30.03-5.273-34.76-6.351-22.3-5.085-43.41-6.559-66.16-6.761-38.2-.565-67.5 7.986-103.14 18.608 33.6-28.717 59.96-31.243 103.22-33.704m189.81-93.983c1.7 1.133 1.19.795 2.49 2.499-4.43 10.225-8.2 35.31-10.38 46.888-3.88 20.626-7.71 42.02-11.03 62.75-1.2 7.484-3.63 29.161-5.97 34.632-2.42.17-10.59-3.224-13.4-4.276l-12.79-4.755c1.66-11.883 6.56-22.06 9.96-33.362 10.87-36.084 26.35-69.693 41.12-104.376M846.342 498.25c11.054 5.119 31.743 21.571 41.931 29.283 9.429 7.137-10.001 30.585-16.931 35.851-1.111-.247-39.276-27.698-45.328-31.321 10.94-13.718 14.077-17.978 20.328-33.813m368.428 425.989c6.78 4.528 18.64 54.618 13.56 64.435-2.6-4.159-2.38-19.391-7.32-26.166-3.36-.694-3.84-1.049-6.76.324-4.2 7.659 6.46 21.949 1.62 35.808l-1.29-.089c-3.57-4.383-5.39-21.972-6.81-29.37-1.06-3.721-.28-2.848-2.77-5.308-3.85-.648-2.5-.971-5.62.601-3.19 6.407 2.07 26.493 3.09 35.816l-.92.66c-12.73-7.058-8.4-41.491-15.17-49.639-3.27-2.206-4.75-1.978-8.72-2.187l-1.38-.067c-.9-1.794 1.49-13.905 1.87-17.717 11.83-2.883 23.69-3.834 36.62-7.101M811.442 540.551c11.136.869 17.211 6.192 26.024 12.504-14.022 15.73-31.438 36.762-44.493 53.432-3.713-1.465-7.58-8.835-10.498-10.367-5.443-2.857-8.265-2.89-13.831-6.531l-.867-.575c10.474-14.362 31.423-32.494 43.665-48.463M647.741 1167.17c4.158 5.62 19.972 76.08 18.3 80.85-2.842 2.39-4.714 2.09-8.493 2.35-7.114-16.93-15.584-60.99-19.709-79.83zm196.003-606.398c.811 2.736-10.386 46.672-12.888 50.184-6.725 1.464-17.082.217-24.899.822l-.954.082c-1.369-.09-.831.006-2.096-.802 6.394-9.219 33.272-42.042 40.837-50.286m-82.411 37.163c8.023.179 17.023 7.089 21.408 13.479-11.689 1.78-18.451-1.244-21.408-13.479"/></svg>