<svg xmlns="http://www.w3.org/2000/svg" preserveAspectRatio="xMidYMid meet" viewBox="0 0 2048 1462"><path d="M1519.21 80.326c12.28 2.466 28.58 2.318 41.71 3.997 61.42 7.86 126.17 33.72 163.47 85.458 16.27 22.55 22.69 58.784 22.63 86.562 54.95-58.165 152.75-76.282 210.62-10.203 35.97 40.516 30.35 101.444 13.53 148.847-44.87 126.844-179.74 204.913-302.92 239.984-67.93 19.34-141.8 33.143-193.86 83.59-6.82 6.607-12.67 13.539-19.97 19.767-7.02 47.389-29.06 91.079-67.75 119.756-26.38 19.632-64.17 42.115-97.97 36.196-60.24-10.55-63.95-77.754-17.05-109.443 13.96-9.429 33.94-17.699 49.77-15.545 3.22 2.046 2.42.873 3.26 4.171-3.67 9.259-23.09 10.576-32.56 15.414-14.13 6.777-21.19 13.901-29.72 26.906-13.98 19.026-7.79 48.493 13.72 59.542 26.79 13.76 62.4-3.485 84.64-17.968 26.51-17.262 42.49-33.035 56.7-61.001 15.85-31.213 28.24-65.859 16.76-100.732-8.92-27.091-33.29-49.612-58.13-62.238-47.03-23.892-100.33-27.602-152.1-27.241-75.95.53-157.86 20.029-222.62 60.522-16.782 10.497-45.848 33.933-60.643 48.219-37.394 36.105-74.074 74.7-116.983 104.614-18.489 12.89-51.315 32.99-72.582 39.8-6.202 16.485-11.171 40.445-18.264 55.503-9.135 19.274-21.293 37.54-31.061 56.402-26.773 51.695-58.256 100.945-85.528 152.255 39.524-17.34 70.584 11.07 86.621 45.3 15.662-12.35 27.038-7.95 43.848-1.65 11.003-26.88 23.164-56.57 43.362-77.98 25.161-26.66 62.17-18.2 85.475 5.78 2.726-5.11 5.918-12.4 8.315-17.7 29.689-65.69 88.418-60.29 113.221 4.59a77 77 0 0 1 4.889-5.12c64.3-61.98 121.76-30.14 118.89 57.21 11.01-4.74 13.84-4.01 25.72-4.1 13.25-19.69 28.52-39.82 50.69-49.86 46.04-20.85 86.92-12.87 109.36 34.32 11.05-16.43 32.65-37.85 49.36-48.1 39.26-24.08 96.79-39.39 125.42 8.39 29.98-33.31 69.1-71.03 118.24-67.47 28.41 2.06 42.51 19.93 59.36 40.12q1.005-1.77 2.13-3.48c40.34-61.413 133.33-81.173 144.25 13.78.65 5.65 1.41 6.16-1.87 10.82-3.54 1.67-2.02 1.49-5.84 1.12-3.42-2.28-4.76-5.82-5.34-9.74-11.87-80.878-76.65-61.865-116.76-13.43-3.46 4.18-12.42 17.85-16.49 20.51-1.65-.17-4.02-.13-4.95-1.62-10.18-16.27-22.52-34.3-41.48-41.63-38.83-14.46-81.57 16.04-106.9 43.27-5.97 6.41-17.97 23.94-24.86 26.96-7.78-1.56-13.64-18.75-20.19-24.86-8.88-8.3-23.76-13.45-35.62-12.81-29.2 1.83-55.65 14.19-77.94 32.35-19.1 15.55-29.19 37.06-44.67 53.62l-2.37-.53c-5.31-5.86-4.56-14.84-6.58-22.05-8.2-29.38-38.25-42.94-66.44-36.51-31.59 7.21-52.33 23.89-69.21 50.29 14.33 6.46 32.37 17.28 37.66 33.45.85 2.57 2.39 11.25 3.97 12.43 11.94 8.88 16.97 7.93 27.11 20.1l2.57 3.72c.59.84 4.83 6.77 5.02 6.83 6.5 2.12 14.52 1.64 21.34 2.88 32.01 5.85 43.13 37.74 44.73 66.63.33 5.95-1.55 18.03 1.31 22.26 5.51-.9 33.81-39.16 64.31-42.84 34.51-4.16 28.72 31.92 35.55 37.24 1.4-.57 13.78-18.4 16.23-21.39 4.06-5.01 8.57-9.63 13.47-13.81 12.33-10.37 28.79-19.68 45.27-20.78 3.6-.24 7.12.76 10.66.74 5.32-.03 23.65-27.45 28.43-33.11 20.3-24.01 50.91-45.28 82.88-47.72 25.52-1.96 46.14 10.69 64.84 26.58 3.36-4.33 6.99-8.45 10.89-12.3 19.16-18.78 43.69-34.84 71.42-34.02 15.47.46 27.51 4.53 38.43 15.98 18.16 19.04 18.67 54.32 20.68 79.24.38 4.76.65 12.17.98 17.16l-2.2 3.62c.6 13.62.53 27.49.9 41.14.07 2.52-3.01 1.97-3.22 8.13l2.21-.66c1.46 3.17-3.26 2.46-3.04 7.63 1.75 1.09 2.73 1.4 3.4 3.32-.5.64-1 1.27-1.49 1.92-4.63 6.09.66 4.41 1.78 12.85-6.88 5.15 1.36 22.43-5.3 27.95-7.26 6.02-35.01 3.33-44.25 3.17-33.13-.57-65.16-.6-98.18-.35-16.5.13-34.47 1.7-50.38-1.32.69.13-6.9 2.02-7.72 2.17l-.66-2.22-1.38-.49c-1.1 2.12-.26 1.42-2.16 2.49-.52-.41-2.36-1.79-2.85-2.06-2.44-1.31-9.6 2.32-12.67 2.41-4.6.14-9.03-3.37-13.9-3.11-11.35.62-23.2 2.81-34.5 3.32-3.66.16-13.37-2.45-17.36-2.65-2.53-.12-5.87 2.79-10.11 2.78l-193.48-.37c-23.25-.05-48.31-1.71-71.18-.15-21.65 1.48-44-.77-65.82-1.01-21.17-.24-42.4 1.81-63.52.04l-.72 1.79-1.4-.42-2.05-4.67-1.04-.09.11 3.91-1.14.94-.85-2-1.37-.41-1.28 2.24c-5.04 1.47-13.1-1.35-18.35-1.16-1.74.14-5.8 2.32-7.3 2.25-17.77-.84-35.62-1.37-53.41-2.1-5.06-.21-7.75 2.08-12.92 1.81-.72-.6-2.91-2.75-3.77-2.89-3.913-.63-10.939 2.1-15.36 2.2-6.226.15-12.845-.98-19.157-1.1-6.251-.12-12.588.85-18.812.47-4.138-.25-8.199-1.6-12.309-1.73-11.238-.35-54.729 6.74-62.884 1.05-2.667-1.86-44.423 3.3-53.908.51-14.309-4.22-10.255 1.95-18.538 1.87-3.956-.03-7.135-3.16-11.25-2.49-10.653 1.73-22.114 2.46-32.898 1.98l-.538-1.72c-2.374-.83-15.852 2.11-19.974 2.6-4.284-3.28-11.484-3.08-16.539-2.22-13.35 2.24-50.222-3.82-60.277 3.31-3.501-.61-3.737-1.6-6.726-4.08-7.37-.25-15.725 2.15-23.176 1.99-11.021-2.54-5.786-1.98-15.196-.25-14.914 2.74-35.629-5.25-51.83-.53-6.445 1.88-12.28 1.01-16.904-1.38-4.797.55-12.73 1.18-17.059 2.6-2.079 3.04-2.606 4.26-5.7 6.22-3.837 0-2.582.5-5.579-1.37-.199-.85-.394-1.7-.637-2.54-.174-.6-.968-2.74-1.505-2.98-8.658-3.88-74.371 4.55-84.863-1.37-.306-.17-.597-.38-.913-.53-1.243-.61-2.411-.56-3.679-.09-2.898 1.06-5.859 2.14-8.955 2.43-8.722.83-18.103-.32-26.903-.33-13.243-.01-30.66 1.84-43.455-.12l.235-2.1c-2.014-1.62-7.648 4.32-9.516 3.43-10.339-6.17-20.836.83-29.376-.09-17.777-1.92-32.64-1.58-50.451-.66l-1.949-1.98q-2.212.27-4.428.51c-49.374 5.23-104.221-1.87-154.032-.26l-2.621-2.11c-.92-5.49 1.218-14.08 2.816-19.57 25.649-88.17 51.446-176.45 84.067-262.35 4.415-11.63 9.771-26.74 15.406-37.3 23.249-9.99 56.532-21.51 80.812-29.35-7.076-3.23-14.263-4.15-20.99-6.92-31.559-13.009-44.977-49.778-41.104-81.611 3.584-29.454 23.368-42.855 29.548-71.021 8.94-40.738-6.082-79.982 10.829-119.327 15.152-39.203 40.048-68.969 78.839-86.68a138.77 138.77 0 0 1 105.671-3.865c37.41 14.231 69.4 49.543 52.72 91.251 9.058 14.042 18.354 31.443 21.64 47.858 1.729 8.639 1.902 17.071 5.322 25.774 3.205 8.158 13.595 10.674 16.916 18.405 6.977 16.239-9.299 18.295-10.401 21.452-5.748 16.475-2.174 40.139-8.447 57.502-8.732 24.168-28.548 39.595-52.605 46.66-5.144 1.511-16.435 3.072-19.909 4.86-1.558 4.783-2.764 14.29-2.153 19.285 21.098 6.774 12.333 9.101 16.298 24.477 2.532 9.82 25.978 11.45 33.875 12.9 4.086.74 8.548 2.33 13.211 4.14 8.013-8.82 18.607-25.289 25.888-35.641l49.616-71.122 36.063-51.818c3.42-4.923 16.525-23.195 18.444-27.637 7.891-18.35 15.655-36.866 23.106-55.403 14.037-34.92 28.939-69.833 42.291-105 2.372-1.506 5.308-3.109 7.779-4.547 1.402-5.992 4.479-18.801 7.253-24.803 9.887-21.392 22.21-57.404 43.191-69.461 4.411-2.535 13.405-.986 15.986-2.078 5.922-2.505 10.83-5.762 17.116-8.561 8.431-22.62 6.841-77.122 7.093-102.716.84-64.475-.319-128.959-3.475-193.362-1.59-30.275-3.882-60.715-5.472-90.965-1.08-7.478 11.51-7.112 17.162-9.125 49.277-17.551 91.616-17.897 142.339-9.93 72.651 11.411 116.541 36.071 164.341 90.442 23.62-3.352 58.29-21.887 77.94-35.213 73.65-49.95 148.12-102.088 237.22-120.987a264 264 0 0 1 48.04-6.105c9.51-.356 31.59.68 39.46-1.622"/><path fill="#fefefe" d="M1850.57 220.327c2.05.352 8.57.131 10.96.058 26.11-.8 60.06 10.672 78.57 29.727 21.12 21.749 28.48 46.458 28.39 76.217-.16 48.147-18.83 89.299-45.28 128.418-56.16 83.052-152.75 135.419-246.82 164.143-57.71 17.623-125.53 28.71-177.3 62.336-15.07 9.79-31.36 25.489-44.03 38.073-2.79-21.294-4-34.441-16.6-52.925-29.46-43.243-80.25-60.962-129.56-69.999-25.81-4.732-52.4-4.654-78.37-4.866-98.5-.808-202.97 28.845-278.276 94.423-44.014 38.329-83.468 86.31-131.843 120.997-8.58 6.152-54.837 35.153-62.816 33.812l.565-3.459c10.853-46.54 31.789-92.924 40.093-140.423.331-1.892 8.13-13.433 9.77-16.475 11.21-20.791 19.791-42.086 22.066-65.818 2.779-23.715-8.14-21.733-6.95-41.163 6.467-.385 21.639-5.019 29.044-6.792l72.927-17.361c75.24-17.71 150.93-34.449 226.84-48.965 9.08-2.299 19.3-3.62 28.17-6.343 76.61-23.528 159.34-26.172 238.61-12.533 82.88 14.261 169.05 53.581 254.74 31.432 13.5-3.49 27.26-6.487 39.87-12.838 55.19-26.113 116.14-69.724 138.49-128.957 2.01-5.322 6.68-26.116 3.45-31.671-1.45-2.508-2.94-2.229-5.3-2.592-4.3 6.874-7.34 15.902-11.32 23.299-17.33 32.214-69.4 49.197-101.44 30.309-12.33-7.264-25.22-24.242-18.26-39.124 4.34-9.291 9.51-17.977 13.09-27.556 5.65-15.039 8.65-33.001 15.81-47.419 29.42-37.959 57.37-50.159 102.71-55.965"/><path d="M1840.17 283.227a71.67 71.67 0 0 1 51.76 12.959c46.95 33.637 20.8 100.346-7.38 137.767-74.61 99.103-204.65 161.01-329.02 140.006-52.29-8.83-101.9-34.848-154.94-42.342-150.53-22.213-299.6 16.145-427.82 96.012-12.356 7.696-24.312 15.443-36.074 23.992-5.475 3.979-29.476 24.49-33.251 25.073-4.273-4.31-1.898-8.522 1.385-12.293l7.161-6.55c29.507-26.82 55.069-41.02 89.289-60.164 84.94-47.528 171.06-76.259 268.46-82.933 53.38-3.659 91.5-3.606 144.96 6.766 63.37 12.291 114.14 40.869 178.41 43.671 90.02 3.924 175.95-34.878 241.05-95.183 31.16-31.413 66.78-70.373 69.13-116.624 2.14-42.051-29.51-67.156-69.31-59.082-6.89 1.397-12.89 7.905-17.99 2.109-.27-8.376 17.72-11.991 24.18-13.184"/><path fill="#fefefe" d="M1508.21 98.62c9.79 1.382 27.35.536 38.72 1.477 39.52 3.323 77.13 13.557 111.37 33.383 81.37 47.114 90.05 141.618 43.01 216.905-17.56 30.742-43.92 52.807-78.28 62.394-27.88 7.777-76.43 1.694-84.14-32.036-6.38-27.973 18.19-73.153 48.32-77.024 6.44-.827 13.08-.472 19.86-1.8l.83-1.648c-2.05-7.535-14.97-10.004-21.83-9.629-49.5 2.707-84.81 85.299-45.56 119.829 17.37 15.28 39.51 18.957 62.13 18.202 42.71-2.124 72.51-23.563 100.05-53.949 3.57 10.39 5.64 12.862 12.13 21.634-20.13 21.98-43.68 36.905-71.83 46.494-98.28 33.485-151-27.53-242.09-35.677-72.28-6.465-137.83 13.621-204.34 39.341-.97-26.734-6.86-54.459-14.51-80.007 6.72-1.185 13.61-1.575 20.41-2.931 31.06-6.194 61.64-19.068 89.34-33.998 19.47-10.494 41.48-19.483 61.98-26.928q3.945-1.192 7.92-2.302c29.62-8.264 74.88-12.953 104.27-2.217 5.49 2.007 17.28 9.752 23.17 13.075 3.27-.985 1.95-.072 3.99-2.973-.35-14.043-30.34-24.417-41.78-26.578-53.19-10.051-103.8 6.013-151.14 29.353-32.26 15.904-64.27 34.541-100.23 40.852-5.12.907-15.81 3.238-20.54 2.397-1.52-1.815-18.56-44.393-22.74-52.543 36.51-11.375 70.23-33.672 103.13-52.443 87.26-49.782 184.86-103.188 288.42-74.041 5.25 1.477 17.97 6.068 22.34 3.757 5.03-17.503-65.86-25.34-77.92-26.038-129.97-7.521-229.57 89.971-342.58 137.828-7.29-12.837-13.96-21.987-20.77-33.723 6.23-4.923 26.13-9.976 34.77-14.254 65.06-32.18 119.95-80.082 187.18-108.806 29.79-14.389 60.13-22.658 92.18-29.953 23.09-5.257 41.96-2.628 63.84-5.302z"/><path d="M1498 210.658c4.6.61 16.55.499 22.7 1.082 41.55 3.982 76.64 6.684 111.07 33.409 32.22 25.005 33.34 69.566 10.29 101.599-1.96 2.727-3.9 3.848-7.13 4.115-1.88-1.911-3.27-4.874-2.35-7.227 7.62-17.451 12.68-29.889 12.39-49.215-.48-32.163-35.84-54.859-64.22-62.098-22.69-5.788-65.57-11.375-89.13-9.702l-.63.05a474.2 474.2 0 0 0-178.84 44.805c-10.88 5.025-46.79 27.048-55.45 23.882-1.73-2.471-1.42-1.154-1.09-4.045 4.4-6.271 17.09-12.33 24.34-16.29a486.7 486.7 0 0 1 158.98-55.25c14.95-2.453 29.11-3.784 44.27-3.867 4.6-.025 10.43.005 14.8-1.248m-101.48 123.871c8.9-.89 18-.045 26.88.817 7.58.736 33.68 6.642 31 16.712-.86.683-1.88 1.489-3.05 2.418-9.25-2.546-23.35-6.852-32.54-7.593-40.09-3.233-71.92 7.676-108.21 20.587-14.89 5.927-30.06 11.586-45.36 16.455-4.37 1.393-8.22.957-12.16-1.324l-.26-1.445c.48-.951.89-1.742 1.65-2.509 8.14-8.215 91.7-36.386 106.55-39.81 11.74-2.706 23.52-3.526 35.5-4.308"/><path fill="#fefefe" d="M939.52 1043.09c46.261 5.43 46.804 60.64 53.415 65.31 2.923-1.33 8.375-12.01 10.915-14.95 40.64-47.2 97.14-53.8 103.63 20.71.45 5.2 1.15 33.83-7.27 31.59-35.23-9.36-61.93.52-85.24 28.16-21.576-31.89-41.55-51.39-82.22-50.82-35.259.71-66.455 33.07-86.764 59.2-29.486-22.88-55.288-27.31-87.822-8.54 14.227-45.92 54.69-126.39 108.204-68.72 4.143 4.47 8.657 12.36 14.351 13.62 13.989-9.98 5.642-63.41 58.801-75.56m875.34-637.929.33.282-.26 1.51c-25.07 30.804-43.28 43.879-76.55 64.237-123.49 75.559-224.84 6.033-351.17-8.55-41.87-4.834-93.23-3.146-135.5 1.658-18.56 2.109-38.42 8.448-56.52 10.403.72-4.412.9-10.236 1.18-14.807-.05-1.292.13-1.002.94-2.476 15.86-3.796 39.61-11.34 55.59-16.112 64.88-20.043 136.36-30.7 202.37-8.625 37.08 12.401 63.84 28.113 104.85 33.719 50.86 6.952 97.91-6.673 140.42-35.331 10.66-7.184 18.91-16.834 29.25-24.442a57 57 0 0 0 5.15 2.352c27.12 10.884 53.74 7.463 79.92-3.818M484.708 744.978c22.37 24.483 14.668 43.33 25.574 69.767.617 1.494 12.722 10.945 15.743 14.392l-.433 2.687c-3.368 4.925-12.986 5.224-13.189 11.026-.413 11.762-.236 21.644-1.933 33.368-3.875 2.332-13.049 5.906-17.134 4.444-5.428-1.941-17.486-11.269-22.653-4.822-.296 4.439 5.818 10.69 9.395 12.886 9.034 5.547 19.053 4.443 28.935 2.26-5.507 28.271-24.16 40.381-50.006 48.184-19.009 5.278-26.549-1.476-26.606 23.711-.008 3.209-1.398 10.819-1.893 14.397-4.255.713-9.799 2.008-13.846 1.338-.179-5.273 3.988-15.99 4.83-22.285 1.849-13.829-.423-29.876-2.8-43.605-3.721-21.49 10.156-24.713 14.006-42.575 2.755-12.781-.218-33.371-.514-47.417-.839-24.834 19.03-44.941 35.331-61.354 5.66-5.7 12.276-9.602 17.193-16.402"/><path d="M484.875 790.231c4.725-.579 10.139-1.235 14.383 1.061 1.122 2.737.805 1.802.378 5.062-4.293 5.833-18.373 6.492-28.12 10.702-4.587 2.806-8.904 6.307-13.614 2.182-.349-12.333 17.52-17.074 26.973-19.007m3.558 25.744c11.265 3.268 10.993 12.995 1.166 18.056-9.079-4.499-9.24-12.258-1.166-18.056"/><path fill="#fefefe" d="M639.802 1131.56c29.471 2.21 46.77 28.18 54.102 52.65.962 3.21 2.928 4.73 5.963 5.88 2.875-.95 10.428-10.35 16.839-14.38l1.19-.74c6.844-.18 16.105-.66 20.641 5.18-.367 2.91-23.877 26.44-27.646 30.97-6.044 7.26-12.06 15.41-17.635 23.13-19.408-17.02-50.498-18.28-72.003-4.7-25.234 18.39-26.645 50.95-32.326 54.81-14.321-8.31-23.095-7.99-37.585-.43a2246 2246 0 0 0 21.161-69.23c5.427-18.19 7.901-32.05 18.6-48.25 13.647-20.66 21.811-33.97 48.699-34.89m294.779-843.832c16.705-1.962 36.663.327 43.959 18.64 1.817 4.561 2.883 16.192.147 20.244-22.904 35.809-51.896 69.407-75.427 104.629-20.323 30.42-42.28 56.851-63.45 86.29-7.554 9.858-14.297 20.162-22.501 29.52 6.924-20.096 11.751-41.401 18.512-61.207 6.041-17.698 14.864-37.185 21.927-54.607 14.456-35.243 29.904-70.253 47.882-103.862 5.512-10.304 17.537-38.412 28.951-39.647m134.639 100.79c3.94.762 8.91-.176 13.6 1.227 24.04 7.2 34.61 19.72 21.77 44.281-16.57 9.643-34.09 17.054-50.91 25.719-28.33 14.588-53.32 26.127-83.125 37.494-32.159 12.266-69.103 23.473-100.103 37.757-11.99 5.748-21.112 9.154-33.642 13.408l143.476-107.726c21.124-15.648 44.634-33.583 67.024-47.537 5.61-3.496 15.46-4.277 21.91-4.623m-64.62-55.152c25.31-.592 47.76 18.663 34.85 43.826-7.5 14.614-34.73 28.993-48.244 39.248-37.33 28.336-76.059 55.509-112.55 84.889-8.259 6.182-16.449 13.093-24.402 19.699 12.215-18.878 28.731-36.067 41.009-54.671 23.659-35.848 49.048-70.308 73.626-105.528 5.512-7.899 13.179-19.451 20.51-25.275 5.576-1.439 9.449-1.674 15.201-2.188M812.169 185.513c3.071-.055 10.793 1.935 13.692 3.152 23.563 9.717 35.146 33.267 31.462 58.238-10.407 70.535-18.031 145.956-34.202 215.338-3.389 11.249-1.54 15.677-8.244 25.852.685-9.265.654-30.023.77-40.189.668-58.639.504-120.438-2.424-178.96a1017 1017 0 0 0-3.454-45.177c-.886-9.173-2.067-19.125-2.337-28.336-.166-5.644 1.365-6.634 4.737-9.918m322.071 251.993c28.35-.315 37.5 16.471 36.67 42.297-14.75.47-54.49 7.861-70.38 10.5-35.5 5.894-72.38 11.041-107.304 18.913-11.055 2.742-24.679 5.036-35.935 6.631 44.279-17.282 86.839-36.557 129.249-57.994 22.94-11.601 19.7-16.709 47.7-20.347M890.862 237.613c8.198 3.733 17.909 10.748 22.101 19.007 2.84 4.453 5.891 21.476 3.655 25.754-20.644 39.5-43.533 78.307-61.282 119.37-.543 3.429-3.308 10.847-6.139 12.894-1.029-.812-1.16-1.23-1.576-2.473-.786-2.348-.393-6.377-.094-8.784 1.782-14.368 5.881-35.725 8.492-49.229 2.543-13.147 14.265-109.267 16.882-113.639 4.74-1.891 12.658-2.344 17.961-2.9M767.041 581.738l2.1.228c1.611 1.393 1.319.597.127 2.938-5.067 9.954-22.779 32.417-20.879 42.899 2.455 2.929 1.163 2.049 5.023 3.178 1.565-.59 1.731-.677 2.978-1.708l.982-.826c.361 4.262.159 5.905 4.13 7.869 6.005-.495 13.578-10.004 18.613-14.743-2.939 4.862-7.513 10.696-6.355 16.115 2.363 2.769 2.775 3.034 5.987 4.767 4.738-1.608 22.962-30.623 27.053-36.547-4.569 17.268-13.259 23.855-16.896 36.408.653 3.933-.05 2.923 2.236 5.687 9.261 2.872 16.756-18.365 19.886-25.299 1.775-4.166 3.708-8.384 5.552-12.531-1.508 33.108-14.694 53.151-29.678 81.091-16.249-13.985-42.143-19.41-62.172-25.693-4.327-8.012 12.961-39.447 16.954-48.683 5.473-12.654 12.978-27.002 24.359-35.15m-516.28 538.592c2.157.36 2.759.73 4.749 1.58 2.72 7.97-51.797 189.72-55.418 211.33-.185 1.11-2.854 9.53-3.419 11.33-2.817-1.11-2.701-1.03-4.918-3.08-1.097-5.22 52.091-200.95 59.006-221.16m879.269 22.65c18.7-.02 36.6 5.33 48.67 21.2 2.45 3.21 4.56 7.08 3.84 11.13-2.77 1.74-15.2.64-19.71.58-11.3 1.63-12.24 3.26-22.5 7.11-2.42-.52-7.53-11.59-10.48-14.93-4.94-5.59-9.76-10.55-14.95-15.83 5.23-4.73 8.74-6.53 15.13-9.26m-644.932-118.42c3.575.22 4.162.09 7.362 1.49l.072 1.52c-18.636 16.46-114.106 13.9-139.299 8.31-3.298.32-4.727-.61-6.239-3.29l1.003-2.04c2.566-1.38 58.866 3.4 69.479 3.07 24.845-.78 43.537-4.13 67.622-9.06m-43.683-34.572 1.831-.433.825 1.375-2.505 3.529c-11.377.773-15.616 2.47-27.905 1.902-2.965 1.34-4.097 1.611-6.822.038l.455-1.706c7.95-5.48 24.853-2.732 33.484-4.563zm411.009-821.777c5.112-.31 10.061-1.232 14.398 1.298l-2.389.693 1.308.031c-2.495.73-5.168.013-7.799-.415-4.157.699-11.038 2.299-14.831 1.774 2.786-1.97 5.959-2.495 9.313-3.381m112.072 98.813c7.579.357 20.026 9.481 23.981 15.523l-1.404.443c-4.88-4.928-16.354-11.885-22.577-15.966m-73.418-52.809c6.942.303 20.624 4.55 24.217 11.022-7.098-3.747-14.225-6.946-22.076-8.725l-1.286-.284z"/><path d="M1787.48 650.493c13.26-.854 31.13 1.899 44.04 4.168 87.4 15.351 156.1 107.756 93.18 188.787-16.57 21.33-28.51 27.114-53.65 35.602-31.01 10.472-70.39-3.368-79.57-36.565a54.1 54.1 0 0 1 5.04-41.278c9.08-15.635 20.99-23.922 38.08-28.456 3.64 1.766 3.88 1.765 5.47 4.755-3.38 9.309-29.75 10.092-36.94 41.042a38.2 38.2 0 0 0 5.15 29.719c19.05 29.748 61.24 21.157 86.15 4.695 18.09-11.955 34.58-38.91 37.89-60.072 3.69-23.666-1.84-52.442-16.27-71.719-27.28-38.938-71.34-55.262-117.08-58.927-10.6-.849-40.42 2.098-45.92 1.19-2.38-3.391-3.63-5.464-1.81-9.254 5.24-3.465 29.21-3.597 36.24-3.687M1160.02 767.55c8.78 1.624 37.56-1.757 38 10.371-4.42 6.746-25.04 3.366-34.17 3.62-28.4.657-56.55 5.417-83.58 14.133-105.811 34.885-173.581 99.01-261.365 162.139-24.751 17.8-47.925 34.151-75.319 47.887-6.489 3.44-22.425 12.41-29.031 10.25l-1.209-2.84c.137-1.1.29-3.77 1.394-4.34 43.396-22.658 84.029-48.515 122.537-79.19 86.282-68.729 175.963-141.189 288.213-159.548 11.08-1.811 23.36-1.997 34.53-2.482"/><path d="M1772.08 717.568c42.53-1.392 90.48 9.459 110.96 51.635 7.63 15.702 6.7 30.64.06 46.419-2.31 5.489-3.8 9.543-9.6 12.026-3.61-.237-2.22.495-4.48-1.945-1.95-7.846 2.13-11.235 4.87-18.513 4.47-11.894-1.38-28.226-6.19-39.159-5.8-13.158-27.68-27.269-41.19-31.394-47.97-14.651-115.87-1.689-162.45 12.828-30.25 9.43-63.41 24.972-90.95 38.591-43.93 20.274-86.72 55.198-125.61 83.626-3.75 2.741-8.68 6.135-12.89 3.262l-.36-2.716c.63-1.576 1.34-3.016 2.64-4.153 91.09-79.91 214.15-144.475 335.19-150.507M1256.47 654.5c48.8-1.622 128.08 12.688 143.27 69.005 2.23 8.239 5.62 26.228 1.12 33.728-2.79 1.65-1.34 1.433-4.5.649-5.85-6.534-5.57-24.477-8.3-33.873-4.19-14.415-19.18-28.896-31.73-35.824-55.05-30.395-128.27-23.483-186.09-8.949-47.39 10.437-103.28 35.956-143.34 63.501-5.4 3.717-12.41 11.689-18.33 11.751-2.13-1.997-2.04-2.501-2.75-5.487.95-1.751 2.51-3.86 3.97-5.202 44.81-41.114 123.27-70.787 181.59-82.452a363.7 363.7 0 0 1 65.09-6.847"/><path d="M1672.54 832.352c5.9-.96 10.02-1.04 11.45 5.894-1.94 6.67-10.78 7.252-17.27 8.558-121.18 24.38-231.14 78.06-323.32 160.706-2.48 1.89-2.37 1.78-5.45 2.49-3.41-1.08-2.42-.22-4.04-2.94.08-9.164 29.93-31.564 37.56-37.745a690.2 690.2 0 0 1 250.02-126.339c15.69-4.097 34.95-8.777 51.05-10.624m-562.57 32.94c5.44-.526 10.77-1.018 13.41 4.545-3.51 8.698-39.06 16.298-51.09 21.451-69.16 29.632-130.479 70.061-186.972 118.402-3.344 3.46-8.831 7.15-12.196 1.64.18-2.38 1.275-6.1 2.975-7.76 55.815-54.583 157.803-124.047 233.873-138.278"/></svg>