<svg xmlns="http://www.w3.org/2000/svg" preserveAspectRatio="none" style="display:block" viewBox="0 0 2048 1462"><path fill="#fefefe" d="M0 0h2048v1462H0z"/><path d="M990.85 223.5c72.47-4.933 144.72 32.743 181.15 96.056 7.02 12.211 10.49 27.125 19.68 37.98 14.3 16.884 58.54 44.601 67.93 62.507 57.9 17.807 84.9 62.451 112.24 113.168 13.11-3.395 34.64-5.977 48.61-8.028 25.18-3.698 51.05-7.882 76.22-11.025 7.66-6.313 14.49-13.959 21.42-21.064 31.02-31.816 98.55-4.29 126.58 20.409 68.65 60.496 85.85 168.844 99.32 255.049 17.01 108.827 26.48 219.885 35.16 329.728 15.35 18.32 34.41 37.39 50.57 55.5a5702 5702 0 0 1 72.3 81.54c9.23 10.72 19.38 22.61 30.52 36.72 17.53 22.19 52.73 56.28 61.98 83.31.67 1.96-2.36 7.08-4.16 8.64-4.51 4.37-31.55 9.01-37.18 7.73-21.32-4.85-45.46-4.05-67.19-4.09l-345.59-.78c-26.15-.05-52.38-.03-78.53-.1-4.57-.01-6.84 3.62-10.63 3.31-7.48-.6-17.92-3.49-25.2-3.42-12.16.11-24.51.36-36.68.47l-65.11.03-204.51-1.44c-49.05 1.16-103.28-.5-152.754-.53l-395.304-1.1c-8.715 0-17.535.17-26.255.31-39.789.64-79.634-.74-119.437-.18l-61.289.88c-8.912.21-18.821 1.27-27.565 1.14-15.275-.23-30.756-1.31-46.066-1.68l-92.747-1.57c-28.011-.58-56.281.03-84.301-.51-16.618-.33-26.608-7.98-17.258-24.82 9.424-16.97 21.059-31.88 32.106-47.74q22.773-32.895 44.925-66.21l75.105-114.28c6.987-10.45 23.996-36.75 31.512-45.22 7.739-8.72 66.884-5.77 80.996-5.82l156.121.53c-5.221-21.75-4.917-34.54-3.331-56.94 5.649-79.813 23.362-159.015 41.627-236.766 14.522-61.817 29.383-124.584 51.049-184.336a458 458 0 0 1 36.835-77.699c28.36-47.985 61.364-75.526 116.094-89.56 14.773-24.779 13.349-45.593 45.182-55.115 1.049-5.04 2.543-12.038 4.551-16.651C841.915 267.492 911.892 227.147 990.85 223.5"/><path fill="#fefefe" d="M1124.98 1076.43c9.7 2.78 192.15 1.83 202.07.39 12.28 16.15 24.8 35.37 42.66 45.05 18.73 10.14 48.08 18.41 69.06 12.49 15.18-4.27 29.81-15.73 36.83-29.84 3.83-7.68 6.57-15.94 10.85-23.39l.52-.89c29 3.34 63.32 1.44 92.55.91 29.81-.54 59.42.15 89.31.4 19.22.16 40.66-1.95 59.68.01 5.78.6 14.08 5.82 19.32 8.87 1.56 29.96 5.05 66.48 5.11 96.21-16.23-1.72-41.07-1.01-60.45-.99-18.26.03-96.1-4.73-108.07 1.36-10.01 5.1-31.89 52.83-32.06 65.06-.19 13.77 5.29 17.57 19.66 18.82 20.75 1 41.88-.07 62.73.11 30.86.28 61.73 1.45 92.62.15 28.4-.84 78.25 4.97 106.95-2.92 1.44-.4 3.31-7.27 2.87-9.35-4.43-21.01-7.33-49.57-20.65-66.79-6.25-6.76-23.94-5.61-32.29-5.3.4-17.03-2.58-40.91-3.63-58.81 14.28 19.14 34.74 37.95 50.03 56.74 40.12 49.32 87.48 96.24 124.72 147.57l-675.04-2.31c-65.97-.06-128.75-1.12-195.08-.25l-174.998-1.4c-39.258-.27-78.39.8-117.493.54a16027 16027 0 0 0-317.747-1.56 326.7 326.7 0 0 1 25.897-51.79c-2.57-39.69.884-80.57-.308-120.38-.281-9.37-1.204-14.83-5.426-23.28 1.928-5.95 8.133-17.85 4.319-23.58-3.667-4.66-15.779-7.7-21.176-7.89-50.795-1.72-101.766-.02-152.597-.11-3.058-.01-7.793.33-9.979 2.57-6.338 6.5-11.335 14.3-16.727 21.6l-27.568 37.59c-8.379 11.33-17.447 20.94-24.769 33.1.976 8.68-2.716 32.03-2.676 42.61.114 30.18.739 61.79-2.267 91.79-38.301.34-76.604.13-114.899-.62 7.544-15.72 29.925-46.07 40.365-61.78a8931 8931 0 0 1 83.324-122.96c14.757-21.48 30.679-43.07 44.528-65.11 51.186.39 102.375.29 153.559-.3 24.604-.17 48.787.14 73.371-.93 4.192 13.3 12.291 29.44 21.867 39.46a59.95 59.95 0 0 0 43.037 18.75c38.627.42 61.689-31.95 85.333-55.04 10.088-1.28 31.167-1.16 41.913-1.31l82.402-.64c61.539-.77 123.125-2.09 184.663-1.99 47.932.09 95.862.7 143.782-.64"/><path d="M1059.48 1089.57c25.59-1.69 51.57.19 77.22.87 44.07 1.29 88.17 1.54 132.24 2.52 18.38.4 20.77 15.33 26.01 30.04 7.71-.1 26.55-3.17 32.49 2.44 1.43 1.35 56.75 142.66 60.92 154.09.9 2.46 1.93 5.18 1.97 7.83.04 3.38-1.48 6.79-3.81 9.19-2.9 2.98-6.87 4.48-10.95 4.8-11.44.9-23.57-.12-35.05-.35-21.03-.46-42.07-.75-63.1-.89-80.28-.27-160.55-1.04-240.81-2.29-.63 1.34-2.9 6.57-4.01 6.64-17.87.99-38.653.02-56.785-.06-4.367-.02-3.21-5.02-8.565-6.53l-194.823-.75-76.154-.64c-16.297-.13-32.838.22-49.101-.82-3.74-.24-11.364-.36-14.232-3.04-2.722-2.54-3.307-6.72-3.154-10.23.454-10.36 7.429-24.05 11.667-33.54 6.368-14.27 60.974-122.51 66.601-126.88 7.572-5.87 20.606-3.34 29.181-1.82 4.933-8.33 7.095-17.99 12.768-25.61 3.615-4.86 18.383-2.16 24.686-1.91 12.789.45 25.585.66 38.382.64 28.272-.21 56.46-1.86 85.149-1.85 54.058.01 107.26.4 161.26-1.85"/><path fill="#fefefe" d="M1086.41 1105.46c43.96-.87 92.82 3.81 137.14 3.06 14.23-.24 33.16 1.15 46.9-.47 18.58 43.18 33.86 79.72 55.44 121.98-13.81-2.42-56.51-3.94-72.64-4.87-60.66-2.6-122.4-3.18-182.84 2.4-16.92 1.56-38.09 2.24-54.3 5.97-.5-27.84.5-55.68-1.06-83.49-.79-13.98-1.52-27.96-2.17-41.94zm-324.886 1.95c29.757 5.32 94.431.64 127.462.24 36.043-.44 72.258.33 108.15.19-.28 20.74 2.528 44.33 2.598 65.1.066 19.5-.449 39.7-.745 59.24-16.151-.29-36.285-2.03-52.296-3.97-44.12-3.3-90.916-2.84-135.179-1.32-33.491 1.15-75.183 1.93-108.048 7.69 14.333-27.29 27.149-60.53 40.666-88.64 5.006-10.4 11.649-29.62 17.392-38.53"/><path fill="#fefefe" d="m717.767 1134.08 13.596.85c-11.221 23.33-21.111 46.71-32.185 71.01-7.639 18.96-22.248 39.39-24.307 59.84-.929 9.23 26.371 5.89 31.876 5.9l73.96.06c39.309-.33 78.936 2.02 118.375 1.01 29.816-.75 60.483-1.39 90.172.06 2.049.11 2.47 1.63 3.125 3.03l-1.432 2.69c-4.162 2.68-4.18 1.77-9.972 1.84-15.697 1.43-44.672.42-61.373.19l-87.489-.43-112.521-.01c-22.359.01-50.664.73-72.486-1.28 10.817-32.21 31.648-67.82 47.03-98.32 5.783-11.47 16.854-36.36 23.631-46.44m589.383 1.13c3.29.28 4.52.56 7.74 1.34 1.92 2.7 3.97 9.21 5.19 12.48 16.91 45.39 35.8 90.01 52.62 135.44-17.01-.85-37.52-.48-54.76-.61l-85.16-.87-211.9-2.42c-4.4-.21-6.1.32-7.89-3.84l1.05-1.94c2.63-1.72 5.69-2.67 8.83-2.72 4.92-.13 13.1.56 18.6.65l55.23.55 203.74-.26c13.89-.05 28.24.68 42.11.64 3.91 0 9.07-3.27 11.35-6.56 2.93-4.22 2.42-8.89 1.25-13.69-2.4-9.91-10.8-22.08-14.46-30.42-7.74-17.66-36.46-69.17-39.07-85.26 1.51-2.35 1.71-1.66 5.53-2.51"/><path fill="#fefefe" d="M1146.2 1240.54c23.19-1.45 170.65 1.38 187.38 7.09 3.04 1.03 3.93 1.51 5.41 4.28l-1.22 2.16c-7.41 4.7-32.2 2.89-42.04 2.95l-87.71-.09c-18.49.5-186.46.69-192.77-3.9l.41-1.87c9.85-7.1 110.36-9.6 130.54-10.62m-303.345 1.97c5.221-.66 25.446-.2 31.824-.17 30.742.17 61.65 1.8 92.269 4.45 6.201.53 26.378 1.51 31.434 2.87l.689 2.01-1.152 2.02c-2.032 1.19-5.337 2.26-7.662 2.13-42.778-2.45-89.924 3.44-132.132.59-48.809-1.31-97.916.2-146.757-1.05-4.295-.11-13.003.35-15.623-3.13l2.134-1.67c11.289.05 29.595-2.85 42.06-3.66 34.258-2.43 68.576-3.89 102.916-4.39m707.695-738.529c13.96-.458 49.59 10.794 61.35 18.302 77.51 49.459 93.14 180.364 104.34 261.627a3263 3263 0 0 1 18.53 148.475c4.14 43.117 6.29 86.765 10.42 129.895-10.29-2.1-25.94-1.47-36.94-1.54l-57.04-.21c-16.98.07-35.28-2.13-52.41-1.7-36.26.93-71 1.5-107.32-.14 3.22-18.07 3.4-33.12 2.72-51.29-3.91-20.379-2.37-47.158-5.61-69.889-10.16-71.3-28.86-141.023-47.67-210.47-5.74-21.157-13.2-50.474-20.55-70.455 16.18 6.177 31.6 14.706 47.45 21.722 29.75 13.16 136.42 59.439 165.36 48.304 4.23-1.628 9.36-5.173 11.13-9.428 1.51-3.64.66-6.844-.7-10.357-3.72-9.627-8.75-19.096-13.16-28.44-11.58-24.1-23.33-48.12-35.24-72.057-4.02-8.207-8.1-17.01-12.03-25.244-15.84-33.211-17.26-46.856-52.59-62.293 7.24-6.903 11.07-10.273 19.96-14.812"/><path d="m1498.79 737.275 4.65 1.824c1.41 1.992 2.17 3.973 1.56 6.443-2.72 11.059-1.13 57.908-8.02 64.478-1.66-.492-3.98-1.335-4.42-2.913-4-14.329 1.97-57.245 6.23-69.832m68.61 124.139c2.45.242 2.45.166 4.84 1.205 5.78 7.859 14.71 51.843 8.57 60.308-4.22-1.071-3.42-.235-6.08-2.935-2.46-7.143-9.57-52.247-7.33-58.578"/><path fill="#fefefe" d="M1166.89 371.044a85 85 0 0 1 1.97-.05c2.86-.03 8 .054 10.37 1.437 23.72 13.835 49.2 40.401 68.39 58.824 4.57 50.622-.31 96.783 16.45 146.746 8.09 24.127 20.62 33.094 30.65 54.138 38.33 80.481 80.31 158.761 120.9 238.075l33.85 67.013c7.3 14.632 16.88 32.416 22.1 47.874 10.42 33.079 6.6 68.989-5.94 100.649-13.32 40.38-52.42 40.8-85.52 22.58-48.85-26.88-70.72-111.742-87.39-158.713a8502 8502 0 0 1-37.77-107.405c-11.41-31.572-22.07-66.632-32.31-98.791-10.6-33.281-24.02-73.517-29.9-107.673-33.27-35.354-28.34-79.251-38.22-123.078-4.16-18.463-61.06-59.444-45.63-77.82l2.14.122c18.13 15.919 45.71 39.726 62.82 57.672 1.7 1.782 2.43 6.593 6.67 9.133 3.81.45 4.27.728 7.55-.871 4.09-5.859.05-17.01-4.35-21.601-20.11-21.002-43.6-38.676-64.74-58.714 1.93-4.015 4.38-7.894 6.67-11.725 22.31 14.562 55.22 40.244 75.05 59.695 1.16 1.138 6.81 15.657 8.81 19.158 11.28 3.243 12.82-8.491 10.26-15.575-9.53-26.317-61.86-61.667-84.65-75.533 3.7-4.153 7.16-8.624 12.37-10.49 9.04-.241 51.99 42.666 62.38 50.632 2.6 1.998 7.93 10.898 11.7 14.241 3.63.77 3.94.561 7.66-.261 16.47-16.751-55.35-64.549-66.78-76.85l.22-1.626zm-359.719 3.363c7.087-.137 12.612.52 19.561 1.644l1.235 1.728c-1.409 2.009-15.263 13.24-18.277 14.716-16.768 8.211-55.072 64.693-42.835 83.057 3.441 2.069 1.978 1.79 5.779 1.743 6.7-4.381 4.806-9.3 7.389-16.335 9.553-26.017 27.237-50.791 51.609-64.697 4.295-2.45 12.406-4.769 17.065-3.18 1.014 5.473-7.024 11.788-10.833 16.124a234 234 0 0 0-16.535 20.918 231.6 231.6 0 0 0-25.046 45.483c-3.231 7.863-10.012 23.553 1.246 27.731 2.55-.605 5.26-1.539 6.306-4.196 6.712-17.039 12.549-34.274 23.286-49.54 5.195-7.387 26.52-39.335 34.859-41.061 3.246 1.465 2.123.675 4.228 3.928 2.714 17.803-29.969 59.607-34.222 77.299-2.689 11.186 9.866 34.672 12.203 49.062 2.815 17.325 3.76 28.886 1.395 46.59-.282 12.118-12.998 26.834-14.676 36.863-5.41 32.348-17.307 59.578-28.326 90.186l-39.331 110.086c-13.647 38.442-25.406 76.62-40.685 114.687-24.046 57.743-36.903 109.717-83.476 155.147-67.458 65.81-108.363 3.03-109.765-66.06-.154-7.57.479-32.391 3.3-38.671 11.435-25.447 27.765-49.623 41.665-73.843l73.97-126.782c12.968-22.012 26.481-43.607 38.678-66.085 8.747-16.12 17.579-32.777 25.316-49.388 4.489-9.637 8.328-19.631 13.015-29.164 8.414-17.116 21.176-31.573 27.774-49.765 15.011-41.386-8.858-106.669 3.194-136.408 3.564-8.792 8.507-17.153 12.554-25.747 7.795-16.554 13.986-36.114 26.395-49.906 2.633-2.926 8.366-4.661 11.985-6.164"/><path fill="#fefefe" d="M994.611 522.799c5.539 1.783 17.509 10.074 25.559 12.843 47.1 16.188 78.44 7.624 120.1-11.87 3.65 22.003-.69 26.627-12.6 45.461-24.23 38.298-54.51 75.432-91.5 102.05-17.14 12.337-26.01 11.459-45.482 7.512q2.157-.239 4.303-.566c11.719-1.824 36.419-17.66 33.879-31.559-7.03-7.996-26.1 9.549-32.435 14.263-1.166-21.349-7.376-49.922-11.835-70.938-.904-4.26-8.828-2.676-11.977.106-2.835 6.441.572 21.143 1.676 29.139 2.656 16.109 5.097 32.26 7.774 48.36.533 3.204 3.211 5.194 4.248 9.238l.015-.012c-17.168 2.676-124.789-89.385-119.627-107.441 5.13-.158 14.663 4.943 19.6 5.959 15.309 3.149 38.947 2.165 53.173-3.999 22.024-9.544 31.624-22.715 40.207-43.549 20.172 38.829 41.931 54.311 86.871 49.199 5.87-.667 10.29-4.891 8.86-11.012-4.44-5.184-19.51-2.089-27.86-2.676a56.7 56.7 0 0 1-20.48-5.186c-13.3-6.262-27.274-20.391-32.134-34.339z"/><path d="M910.931 589.223c8.918-.347 33.433 2.366 35.15 13.137-1.11 3.552-2.303 4.231-5.075 6.817-8.519-2.424-37.052-2.512-36.272-14.628 1.747-3.259 2.779-3.439 6.197-5.326m162.459 2.006c5.53-.199 7-.168 10.21 4.468 1.41 9.568-17.16 12.641-24.47 14.649-6.5-.144-12.5-2.257-10.9-10.083 4.79-5.961 17.65-7.615 25.16-9.034"/><path fill="#fefefe" d="M432.185 1115.61c12.553 3.25 31.668-1.86 52.05 2.92-11.713 28.9-23.427 51.2-35.515 78.72-17.805-.56-36.144-2.36-54.065-3.22-22.621-.99-45.263-1.4-67.905-1.24-9.979.99-46.363.1-58.454.09 6.384-10.79 16.786-22.03 24.291-32.38 10.764-14.85 21.441-30.36 32.896-44.67l60.396.23c13.845.11 33.007.71 46.306-.45m705.075-532.041c.44.408.97 1.378 1.32 1.945-2.98 42.505-27.03 109.346-68.44 126.173-51.28 20.831-117.877 22.788-154.994-24.563-12.735-16.248-17.753-26.309-25.836-44.866-4.261-8.714-6.048-15.555-8.317-24.76 30.274 29.478 94.654 90.648 140.437 78.121 43.39-11.872 92.17-75.586 115.83-112.05M583.459 714.753c27.662 15.909 33.064 25.286 67.163 37.446-9.581 15.192-19.496 33.173-28.767 48.809a6164 6164 0 0 0-61.201 104.785c-6.605 10.129-18.783 32.217-25.127 43.262 8.496-71.328 31.131-164.311 47.932-234.302m831.151-16.743c.32.24.64.479.95.718 18.81 52.366 50.76 201.961 56.42 247.777-6.67-12.455-12.43-24.964-18.29-37.816a5561 5561 0 0 0-60.47-117.479c-10.35-19.54-26.26-47.247-34.65-66.545 5.26-3.496 14.81-7.22 20.85-9.986q17.7-8.115 35.19-16.669m-96.86-121.681c68.27 11.647 143.61 50.644 206.6 79.338 11.22 5.114 102.44 49.182 104.23 53.935l-2.5 3.524c-47.23.904-179.72-60.086-226.1-82.826-12.93-6.335-83.29-39.527-86.02-50.245-.37-1.452.03-1.59.66-2.831zM742.612 925.777c5.757 6.731 29.971 119.393 32.992 135.213-19.1-.26-38.203-.26-57.303-.01l-34.059-.12c20.462-28.28 47.302-100.393 58.37-135.083M473.235 1343.54c8.502-.44 17.249-.52 25.764-.43 50.652.53 101.371-.02 152.001.14l382.43 1.23c38.04-.08 76.1-.36 114.14-.34 46.09.02 92.65 1.6 138.7 1.08 49.8-.74 99.62-.63 149.42.33 22.44.26 57.55-.48 79.51 2.73l-1.1.5c-27.95 1.36-53.14.96-80.92 1.15-53.76.51-107.52.42-161.27-.29-27-.25-54.54-1.11-81.46-.97-239.636 1.4-479.277 1.14-718.908-.78l-.777-.85zm803.415-389.695c3.71 3.956 18.34 52.405 21.89 61.175 5.89 14.56 11.41 30.22 18.86 44.82-6.18.3-12.45.03-18.64-.14-7.64-.85-32.59.21-41.57.31 7.46-35.25 11.56-71.786 19.46-106.165M261.665 1208.14c50.372 1.91 101.726-1.5 152.349 2.91 6.689.59 22.74.74 28.277 3.04 1.803 2.54 1.387 4.7 1.383 7.93-40.112-1.45-81.039-1.27-121.193-1.98-19.855-.35-40.704.2-60.439-.7-2.202-3.11-1.351-7.73-.377-11.2m25.479 76.42c9.724.45 21.034-.14 30.998-.28 38.245-.52 76.204.02 114.34 2.96 2.198.17 2.852 1.18 4.26 2.66.153 3.51.605 2.01-.882 4.77-5.429 1.28-22.452.85-28.762.55-34.806 3.13-77.371-.99-112.778-.48-5.097.07-32.702.33-34.879-2.27-.078-3.42-.732-4.66.958-7 3.17-.66 22.263-.8 26.745-.91m-28.252-49.92c5.869.98 41.684.89 50.521.98l102.628 1.26c6.662.06 32.375-.29 37.116 1.4 1.892 3.14 1.789 6.59 2.125 10.34-2.914.24-19.138-.84-23.134-.93-22.438-.5-45.426-2.6-67.837-3.01-22.321-.41-45.211.73-67.579.65-9.02-.03-23.875.84-32.41-.71-1.892-2.51-1.392-6.56-1.43-9.98m.473 75.19c54.253 3.83 110.89.57 165.395 1.69 6.664.14 16.117.48 22.405-1.24.36 3.81.663 6.91-.711 10.46-6.769 1.72-39.73.62-48.367.63-45.664.04-92.936-.82-138.56-2.93-1.119-2.38-.372-5.59-.162-8.61m.543-49.61c50.42 1.83 101.281-2.03 151.815 2.69 6.429.6 26.077.86 31.234 2.74l1.555 4.17c-6.556 3.26-100.07-3.5-116.706-1.34-5.049.66-64.399-.06-67.632-1.31-1.42-3.17-.804-2.87-.266-6.95M962.72 526.064l.648.521c-17.549 31.414-40.486 41.025-76.152 32.62l-2.981-1.379c2.47-2.212 30.933-4.352 41.56-9.134 17.642-7.939 22.538-9.884 36.925-22.628m712.07 822.436c19.18-1.22 41.81 0 61.78-.25 21.53-.37 43.07-.47 64.61-.29 4.14.03 29.28-.53 31.07 1.6l-1.31 1.5c-47.48 2.78-97.03-.12-144.58-.62-3.58-.04-7.08.21-10.67 0zM486.371 1176.59l1.339 1.52c1.504 10.85-2.849 18.95-7.489 28.56-5.266 10.91-9.552 22.93-14.997 33.58l-2.281-14.15c9.303-17.79 15.054-31.96 23.428-49.51m1073.099 170.87c10.33-1.08 35.44-.33 46.07-.29 14.19.07 36.56-.18 50.17 1.37-5.54 3.39-90.87 1.43-96.24-1.08m289.77 1.01c9.53-.36 46.29-1.75 52.81 1.95-9.34 1.86-46.32 4.22-52.81-1.95m73.2 1.02c6.26-.8 44.63-1.93 48.58.68l.26 2.37c-9.69-.33-42.68.55-48.84-3.05"/><path fill="#6f7071" d="M155.714 1344.43c12.764-.84 38.58-.05 51.726.65l.111 1.83c-10.776.46-45.128-.75-56.914-1.3 1.747-1.24 2.93-1.06 5.077-1.18"/><path fill="#fefefe" d="M114.482 1342.93c4.374.05 16.141.15 19.243 2.43l-1.478.75c-4.724-.1-16.019 1.49-19.096-1.47z"/><path d="M1025.16 74.35c1.7.343 5.73 1.67 4.94 4.11-4.84 14.984-20.91 89.127-28.52 96.626-1.48-1.026-5.297-3.62-5.132-4.927 2.363-18.755 21.072-82.826 28.712-95.809M595.092 278.462c3.406 2.631 2.95 1.533 4.381 5.054-1.399 7.344-27.026 72.177-30.915 76.647-1.408-.432-4.488-1.336-4.607-2.222-1.818-13.523 25.099-73.939 31.141-79.479m650.988-98.011 2.39.761c1.39 1.517 2.45 2.095 2.39 4.458-.34 13.263-18.52 67.875-25.42 75.973-2.77-1.518-3.14-1.552-4.83-4.094-.62-4.933 21.83-71.698 25.47-77.098m-75.69-75.98c2.71.166 3.43.003 5.69 1.556 2.05 6.872-16.5 62.636-20.19 73.137-3.3-.314-4.33-.685-6.15-3.239-1.45-10.95 14.56-60.245 20.65-71.454M713.372 64.388c2.597 1 2.979 1.584 4.939 3.466.995 5.65-22.451 61.851-26.519 67.934l-3.793-1.681c-1.118-1.503-1.986-2.049-1.634-4.216 1.814-11.182 20.843-59.36 27.007-65.503M844.394 115.3c3.628 1.118 2.723.323 5.089 2.839.835 9.079-17.384 59.473-22.205 69.488-3.793-.29-4.861-.914-6.229-4.254.439-10.893 18.156-57.704 23.345-68.073m570.996 217.17c2.82.136 6.29.303 6.86 3.709 2.34 13.977 9.57 56.052 5.02 67.423-8.88-1.033-9.15-8.444-8.98-16.32.23-10.796-6.76-46.92-2.9-54.812M497.833 785.765c1.287.407 5.921 2.167 5.497 3.757-4.518 16.953-12.944 45.845-21.777 60.552-1.631-.45-3.462-1.104-5.091-1.637-.673-1.061-1.43-1.781-1.353-2.719.904-11.002 16.283-53.482 22.724-59.953m237.284-514.387c4.072 1.255 3.168.337 5.416 3.208-.191 6.323-13.334 63.109-16.43 68.004-4.222-.989-3.006-.053-5.118-3.115-2.249-11.717 9.956-55.642 16.132-68.097m622.123-138.86c2.64.275 2.62.365 4.92 1.39 3.34 5.394-9.83 62.35-13.89 66.915-2.57-.822-6.22-2.321-5.74-5.57 1.68-11.269 9.01-55.638 14.71-62.735M550.331 466.61c3.674.314 4.704.525 6.185 3.738-.979 6.311-17.701 53.851-20.669 60.226-4.159-.874-3.765-.457-5.78-3.668-1.748-12.325 13.635-48.942 20.264-60.296M449.736 930.401c3.642.109 4.473.342 6.713 2.975 1.253 7.227-10.611 48.374-14.341 55.01-4.466-.872-3.714-.057-6.618-2.699-1.111-6.629 11.026-49.037 14.246-55.286m854.954-630.983c3.18.34 3.69.175 5.99 2.139 2.58 9.746-6.14 48.289-9.56 59.028-3.79.015-5.22.355-7.21-2.976.34-6.756 8.34-51.759 10.78-58.191"/></svg>