<svg xmlns="http://www.w3.org/2000/svg" preserveAspectRatio="none" style="display:block" viewBox="0 0 2048 1462"><path fill="#fefefe" d="M0 0h2048v1462H0z"/><path d="M1913.28 61.47c8.11.335 47.64 23.438 58.6 26.91 8.53 2.704 4.01 14.74 2 21.207l-313.03 973.523c-26.1 82.71-52.96 165.18-80.58 247.39-4.61 13.6-19.55 61.84-25.45 70.81-13.8 2.63-66.9 1.46-82.99 1.44l-171.34-.02-672.51.18-254.253.02c-39.184.08-79.883 1.3-118.78-1.03-7.949-.48-2.475-64.09-2.018-72.39a2502 2502 0 0 1 33.856-310.52c7.607-43.842 19.881-106.17 36.881-146.673-10.346-3.701-12.046-4.432-19.531-12.335-.906 13.018-2.678 24.702-14.947 32.043a29.63 29.63 0 0 1-22.895 3.011c-12.306-3.401-18.329-12.026-24.29-22.386-30.206 47.519-48.393 14.157-53.343-24.583-8.285 14.341-26.445 41.425-45.581 18.24-8.988-10.889-6.413-29.228-4.063-42.468-5.676 3.982-15.054 9.401-21.575 7.057-25.767-9.261-12.152-49.575-6.353-63.949-6.588 2.791-17.754 7.487-24.673 5.244-39.704-12.87 24.997-62.435 27.206-70.75-2.551-1.861-15.288 5.033-18.907-2.936-12.897-28.4 19.19-57.273 39.892-71.732-16.235-6.095-17.676-16.889-9.432-31.222 13.544-23.546 30.892-30.447 55.572-37.173-48.413-35.595 40.478-33.775 42.784-35.113.912-5.362-3.78-10.538-3.849-15.745-.257-19.425 31.325-16.969 43.095-17.039-8.915-4.858-23.697-11.895-16.258-24.644 11.18-19.159 45.159-7.203 59.769-11.905-.62-5.938-19.598-18.923 1.537-26.059 19.232-6.494 45.271-.892 62.966 7.329a139 139 0 0 1 6.994-4.272c12.656-7.28 31.045-13.301 45.624-9.045 13.049 3.81 13.355 8.915 18.839 19.018 2.663.753 5.16-3.153 7.878-3.711 20.906-4.286 20.114 13.001 24.345 23.464 13.931 6.543 24.896-7.474 18.144 26.749 25.742-3.978 30.533 9.517 24.495 31.458a34.5 34.5 0 0 1 6.633 4.196c5.545 4.464.93 13.331 10.656 19.418 12.91 8.081 3.804 20.586-4.27 28.511 24.225 12.207 9.64 18.576 9.174 30.849 2.108 2.116 10.817 1.637 13.897 3.105 26.861 12.801 11.546 38.368-9.14 46.038 18.773 53.156 18.703 118.444-53.408 122.502.332 21.01 1.52 40.663 1.356 61.898 38.988 6.827 88.628 34.537 119.945 58.367 60.1 48.853 108.667 111.973 185.517 135.543 10.58 2.83 27.489 10.01 37.858 3.52 20.445-12.79 38.611-29.07 56.765-44.819 9.054-7.856 19.226-16.505 27.374-25.238 3.809-16.646 13.088-43.127 18.473-60.13l31.861-99.616c6.153-19.007 12.824-37.532 18.537-56.709-29.876 17.145-34.034 29.058-53.021 55.608-7.854 10.982-36.237 10.121-33.172-12.483 3.538-26.081 26.331-40.276 46.798-53.115 11.087-6.955 21.563-10.087 31.327-18.847.521-2.758.317-2.758-.688-5.285-1.007-.931-2.68-2.421-4.135-2.427-43.474-.122-80.234 23.708-109.442 53.991-22.023 21.748-48.153 47.775-82.073 41.965-19.772-3.387-31.063-18.396-21.51-37.923 15.026-30.718 44.499-48.028 70.561-68.23 9.43-7.309 21.895-17.641 12.368-30.394-4.943-5.974-10.599-6.656-18.334-6.595-28.987.229-66.29 34.049-91.957 8.486-2.369-2.36-2.716-8.069-1.935-11.148 3.631-14.317 20.528-16.065 31.014-23.177 3.047-2.079 3.087-3.804 3.431-6.795-1.154-2.602-1.706-3.848-4.38-5.25-3.485-1.829-10.051-1.646-13.918-1.4-36.118 2.3-52.612 33.902-83.426 42.27-9.357 2.542-19.208 2.041-27.698-2.912-6.126-3.574-10.532-8.4-12.218-15.494-1.891-7.959.509-15.143 4.679-21.888 23.66-38.274 92.547-44.89 132.05-53.974 16.161-3.716 41.358-10.296 50.167-25.453 2.369-4.077 3.455-8.792 1.901-13.358-3.163-9.29-13.439-15.421-21.802-19.304-44.494-20.656-76.356-11.619-119.18 3.976-17.911 6.523-42.466 13.357-60.69 4.557-5.578-2.693-10.905-7.154-12.731-13.267-1.902-6.366.148-13.135 3.156-18.805 19.756-37.246 85.29-48.515 97.158-71.661 1.432-2.794 2.17-6.261.968-9.267-17.167-42.931-122.389 26.431-169.162 6.617-9.412-3.987-15.758-12.489-19.317-21.827-5.464-14.335-4.636-29.503 1.712-43.415 8.375-18.356 24.414-32.402 41.914-41.832 46.475-25.045 99.22-18.22 147.63-3.091 12.343 3.857 24.216 10.267 36.764 13.173 8.407 1.947 18.403 2.722 26.598-.509 5.211-2.055 10.592-6.28 12.65-11.608 1.405-3.636.844-7.707-.809-11.165-10.59-22.159-54.748-22.941-75.613-29.886-8.092-2.694-17.841-7.653-21.534-15.844-1.762-3.909-1.475-7.842-.011-11.784 2.912-7.847 9.111-13.202 16.697-16.362 22.126-9.219 52.05-4.27 74.478 2.585 62.402 19.075 118.891 63.316 159.815 113.421a539 539 0 0 1 29.688 40.707c11.329 17.451 22.618 48.486 41.665 56.892 2.64 1.167 8.7 1.704 10.9-.086 20.91-17.024-2.76-52.101 5.07-73.438 1.04-3.085 3.93-7.373 7.21-8.251 28.69-7.685 24.47 50.035 36.6 54.084 3.7-2.09 4.68-13.351 3.89-17.177-8.21-39.962-31.71-77.592-32.96-118.788-.17-12.145 7.89-25.862 21.21-26.417 34.69-1.447 57.59 46.766 62.26 75.285 3.21 19.629-.29 42.994-2.37 62.709 5.42-13.142 9.71-26.653 14.69-39.968a5292 5292 0 0 0 45.93-128.863c6.02-17.41 22.42-66.784 30.28-80.986 14.3-2.906 52.61-5.725 68.92-7.437l157.96-15.905z"/><path fill="#fefefe" d="m1869.09 136.588 14.23-1.11-238.09 739.574-97.41 300.458-35.6 109.92c-10.75 33.66-21.76 69.72-33.96 102.74l-625.262.01c14.813-49.55 33.586-104.18 50.225-153.55 6.359-21.06 14.715-42.44 20.461-63.63 14.529-14.52 29.76-28.04 43.762-43.43 31.126-34.19 62.484-72.38 88.894-110.33a3359 3359 0 0 0 41.67-61.801c7.86-12.114 23.41-37.838 32.44-47.391 24.13-25.523 70.57-37.09 95.69-64.693 9.36-10.287 10.6-15.645 10.06-28.743 11.69-9.836 21.22-20.867 10.93-35.639 11.7-12.582 13.25-17.68 1.68-31.319 3.09-2.994 6.41-5.992 9.57-8.931 10.79-.461 24.16-2.419 23.97-16.854a13.77 13.77 0 0 0-4.8-10.236c-8.88-7.749-40.39-4.322-52.31-3.284-1.33-2.135-2.75-4.774-4.54-6.541-6.29-6.183-123.85-9.738-141.36-9.732 9.03-21.525 18.52-54.361 25.99-77.205a7458 7458 0 0 1 37.68-110.87l60.63-179.644c13.92-40.083 31.78-86.912 44.35-126.848z"/><path fill="#fefefe" d="M1232.14 725.362c6.18-.782 8.9-.226 11.28 6.114-4.33 15.769-76.67 23.62-89.78 33.118-1.18 1.978-1.87 3.027-1.59 5.442a6.9 6.9 0 0 0 3.16 5.037c4.47 2.773 69.66-17.259 81-20.236 2.64 2.977 3.92 4.033 5.33 7.79-2.8 12.279-72.96 27.845-81.99 35.103-1.26 3.483-1.62 3.878-1.08 7.392 9.77 12.077 64.03-22.04 77.21-17.626.95 1.272 1.65 1.675 1.67 3.332.18 15.407-64.51 34.652-71.65 43.031-1.91 2.242-1.86 4.672-1.5 7.417 9.8 9.845 47.81-19.088 56.76-15.885-3.42 17.261-62.21 44.263-76.83 53.156a103.8 103.8 0 0 0-19.66 15.351c-19.52 19.415-39.15 55.479-55.13 79.291-41.75 62.201-131.247 181.371-197.022 216.941-51.704 23.06-121.48 6.66-174.131-5.44 22.589-52.03 48.078-97.93 68.946-152.75 19.115 8.46 30.021 11.93 50.184 16.95-4.824 12.32-27.548 63-27.089 72.4.12 2.45 1.538 3.76 3.242 5.32 1.55.22 2.132.54 3.622-.12 10.019-4.48 27.772-62.47 33.189-75.05 34.361-13.82 114.973-92.149 144.793-120.469 28.406-27.257 58.606-53.599 83.246-84.386 20.7-27.47 26.55-74.678 58.84-91.95 13.98-7.479 36.18-12.062 51.49-15.668 20.52-4.831 42.86-11.004 63.49-13.605m686.1-645.58c14.06 5.965 28.92 13.292 42.82 19.83-9.42 31.3-19.99 62.939-29.8 94.195a25974 25974 0 0 1-100.6 314.053l-148.77 463.762-87.03 266.268-30.95 94.52c-4.51 13.89-12.81 41.89-18.01 54.13-3.36 2.55-3.11 1.78-7.82 1.96-14.38.47-29.48.08-43.91-.07 24.07-68.67 45.96-142.89 68.84-212.44l248.54-769.679c35-107.923 69.34-219.868 106.69-326.529"/><path fill="#fefefe" d="M447.85 1079.73c10.388 1.15 44.313 26.19 56.42 32.51 83.765 43.71 168.438 89.78 263.998 100.39 25.683 2.85 49.177 5.08 74.926.98-4.405 17.92-12.285 39.35-18.245 57.13a5390 5390 0 0 0-24.017 74.25c-4.448 14.27-9.622 28.6-14.15 42.99l-173.587.04c-4.977-59.59-6.178-120.08-8.728-179.81-.469-10.98-.545-21.8-1.64-32.76-22.003-11.14-149.947-67.49-158.09-88.42.01-3.56.92-4.22 3.113-7.3M1898.58 77.44c1.92-.227 1.8-.284 3.56.475.7 5.94-10.17 34.369-12.75 41.708-72.17 9.693-156.95 16.441-230.16 23.285l-211.45 20.779c-42.72 3.708-85.4 7.755-128.05 12.14-21.8 2.147-47.13 4.055-68.54 7.016-2.1-3.911-4.47-7.252-6.97-10.909-6.25-8.076-14.46-18.132-19.8-26.569 15.6-3.398 53.39-5.822 71.5-7.694l167.91-16.304zM459.365 522.098c19.981 6.474 38.837 40.763 45.256 60.069 3.647 8.989 5.529 21.575 11.786 29.04 7.425 8.856 33.88-1.079 36.652 12.82 2.95 14.795-18.947 10.448-24.278 18.354-1.066 7.391 7.295 27.44 9.717 37.455-13.454 1.721-25.148 1.67-38.495-.862-9.092-1.725-21.703-9.808-30.25-10.585-11.713 8.494 2.17 36.96 8.289 46.076 6.261 9.328 34.515 30.29 44.463 21.86.722-2.094 1.693-4.179.317-6.49-3.687-6.194-16.56-8.917-22.191-12.034-12.439-6.887-17.814-20.279-21.907-32.722 22.395 10.693 38.416 9.66 62.025 7.718 1.454 24.986-.285 44.209-21.635 60.454-10.421 5.044-18.934 6.422-30.457 5.959-3.598-.145-7.348-.574-10.528 1.19-3.901 5.211-.863 19.389-.492 26.374a1078 1078 0 0 1 1.11 42.653 254 254 0 0 0-66.918-18.122c-3.647-9.394-5.73-12.433-12.148-20.265 18.615 1.589 32.377-8.176 30.711-28.484-1.086-13.247-9.227-20.516-19.025-28.326a203 203 0 0 0 5.131-5.315c33.901-36.005-33.603-8.322-35.438-43.167-2.34-44.441 47.876-15.325 48.755-51.115.135-5.485-7.036-10.631-11.018-13.446 19.296-20.931 4.13-20.158 4.405-31.459 17.051-7.623 27.054-13.209 13.904-33.149 14.513-6.446 24.834-13.235 11.949-28.537z"/><path d="M471.314 582.08c5.719-.837 8.976-.908 12.85 3.783.396 5.671-3.85 7.993-8.612 9.82-12.949 4.97-17.372 8.809-25.766 19.699-14.739 10.101-17.256-17.253 21.528-33.302m-72.121 90.157c5.592-.418 14.523-1.803 16.924 4.594-.83 3.169-1.575 3.43-4.206 5.694-5.992 2.042-14.151 2.984-16.444-4.442.713-3.315 1.105-3.425 3.726-5.846m81.173-57.375a7.33 7.33 0 1 1 7.614 12.508 7.328 7.328 0 0 1-7.614-12.508"/><path fill="#fefefe" d="M1212.55 157.559c3.56 2.599 19.18 25.764 23.76 31.453-4.53 9.197-11.85 31.445-15.73 42.197-12.89 35.691-24.66 72.081-37.06 108a19517 19517 0 0 0-118.59 352.615l-10.68-.385c-2.66-.044-7.19.47-10 .696-4.38-6.201-7.66-9.143-13.39-14.076 4.17-15.627 12.38-36.578 17.89-52.508l35.75-103.044zm-184.58 567.674c3.79-.716 12.15 3.519 17.42 5.232l-35.85 108.129c-4.36 13.344-14.282 46.464-19.539 56.949-2.536 5.058-33.21 33.421-39.904 39.814l-10.639 10.137c10.683-36.254 23.964-74.419 35.539-110.55 11.058-34.517 22.341-71.543 34.343-105.644q9.285-2.203 18.63-4.067M901.319 1187.88c1.84 5.52-56.847 172.18-63.138 200.28l-35.842-.14c-.141-4.1 53.058-163.19 57.825-178.1 17.665-5.15 27.073-11.23 41.155-22.04m159.331-454.878c15.23 3.076 34.6 5.682 49.01 9.609-45.98 32.493-37.94 66.944-71.87 106.672-6.54 7.716-17.69 18.709-24.94 26.352 5.94-21.35 15.93-49.153 23.03-70.493 5.58-16.773 17.49-58.026 24.77-72.14M495.539 1150.82l5.022 1.16c1.362 1.23 3.767 3.31 3.225 5.31-18.577 68.58-65.34 184.35-111.128 234.49-5.108-.75-6.632-.83-8.371-5.81.293-7.4 10.132-17.46 14.438-23.9 27.656-41.39 48.25-86.74 66.806-132.78 6.268-15.8 12.18-31.74 17.731-47.81 2.783-8.22 6.62-25.38 12.277-30.66m-31.514-13.26c2.745.81 2.934 1 5.334 2.64 11.037 21.38-77.603 195.48-99.895 213.81-4.639-1.03-5.546-1.3-7.53-5.47.031-2.25.511-5.24 1.878-7.03 11.142-14.56 19.624-30.65 28.833-46.54a679 679 0 0 0 50.308-106.9c4.351-11.63 14.274-43.8 21.072-50.51m52.904 70.93c1.394.51 3.528 1.27 4.669 1.98 1.732 1.07 3.051 3.87 2.883 5.76-2.18 24.56-38.817 134.91-51.983 147.85-13.263-3.75-7.356-11.45-3.128-21.19 13.965-32.2 24.52-65.22 34.791-98.71 3.217-10.49 4.756-28.68 12.768-35.69m384.364-749.691c40.958-1.69 128.647 93.418 111.087 117.85-1.22-.347-4.68-1.318-5.26-2.559-20.136-43.346-50.342-83.393-96.526-100.845-3.657-1.381-10.12-3.773-11.827-7.026.003-3.687.548-4.101 2.526-7.42M545.694 1250.57c3.518.2 4.071.02 6.97 1.77 6.126 9.55-23.754 112.06-32.75 122.94-2.804-.11-3.209-.36-5.899-1.33-1.002-1.29-2.394-2.59-2.107-4.31 4.297-24.54 13.798-48.32 20.024-72.6 2.386-9.31 8.843-40.66 13.762-46.47m386.019-608.278a47 47 0 0 1 1.8-.211c12.069-1.156 55.386 2.266 59.678 19.952.487 2.008-1.392 3.696-2.787 4.902-7.222 1.882-22.01-7.052-29.958-9.11-5.751-1.489-7.735-1.8-13.882-2.3-13.036-1.24-25.989 3.17-37.843 7.916-5.72 2.29-13.634 6.127-19.7 4.793-1.493-.329-1.425-1.587-1.954-3.025 1.074-13.736 33.704-21.201 44.646-22.917m198.357 63.678c9.83.083 75.75 3.834 79.63 7.121l-.87 1.877c-4.01 2.539-9.06 3.157-13.78 4.123-26.81 5.509-42.72 7.732-70.1 10.825 3.98-9.637 4.14-13.686 5.12-23.946M872.257 578.38c9.331-.604 18.534 1.171 27.551 3.403 8.308 2.057 41.36 15.138 36.301 27.588l-2.328.757c-3.977-.337-6.085-2.018-9.56-4.052-20.646-11.723-33.199-16.017-56.663-13.786-5.161.491-11.787-.457-15.814-4.142-.269-7.446 15.063-9.31 20.513-9.768m176.263 126.236 59.03 1.261c-3.42 9.382-4 11.454-2.61 21.225-20.69-3.993-41.09-6.784-61.54-10.734 2.45-4.342 3.4-7.096 5.12-11.752M818.545 478.824c17.423.395 58.443 21.742 65.929 40.285 1.03 2.549-1.251 5.193-2.618 7.231-8.179-2.385-22.663-17.011-31.542-22.645-7.57-4.804-32.943-12.603-35.651-18.628.719-3.777.843-2.895 3.882-6.243m219.865-61.376c3.04.56 6.66 1.634 7.29 5.076 2.01 11.069 4.7 38.567.16 48.222-1.41-.012-3.22-.195-4.67-.296-6.87-5.188-5.92-45.486-2.78-53.002"/><path d="M864.195 813.798c.489.143 2.05 1.083 2.568 1.375l.147 2.22c-2.641 4.388-6.726 6.837-10.322 10.712-33.036 35.601-35.906 96.709-84.153 117.85-7.321 3.207-14.762 2.849-21.701-.415-9.103-9.325-7.276-23.862-2.162-34.568 19.634-41.096 74.828-80.855 115.623-97.174M395.769 166.401c44.393-3.15 110.571 15.329 140.273 50.122 2.967 3.475 9.244 13.906 3.95 17.17-6.812-.709-10.149-4.692-15.076-9.269-5.364-3.927-12.467-8.46-19.226-9.865-10.134-2.107-22.857-2.46-33.407-2.74-31.068-.824-67.764-1.352-95.485-17.029-3.221-1.977-7.787-6.083-8.106-10.092-1.241-15.598 16.385-17.322 27.077-18.297m327.603 555.534c1.621.186 2.027.511 3.612 1.143l.597 1.889c-1.668 3.815-9.177 9.346-12.699 13.269a111 111 0 0 0-12.427 17.034c-17.737 29.749-33.887 110.763-77.012 107.574-28.227-25.491 27.862-90.485 47.31-108.147 16.221-14.729 29.307-25.987 50.619-32.762m187.486-563.793c5.123-.431 8.426-.808 13.215 1.55 20.185 9.943 43.298 36.476 50.756 57.366 11.634 32.583 10.337 55.817-3.234 86.367-2.631 2.589-1.402 2.076-4.739 2.7l-1.537-1.379c-2.077-5.245-.8-10.497-1.468-16.014-4.528-37.915-38.247-62.891-54.996-95.025-6.452-12.378-10.319-25.596 2.003-35.565M737.62 82.247c31.539 1.89 73.086 35.87 86.316 63.472 4.022 8.391 16.671 40.327 6.561 45.586-2.826-.371-3.348-1.11-5.539-2.904-8.744-12.256-14.432-18.768-27.46-29.268-22.906-18.62-62.673-29.597-74.647-58.33-4.299-10.317 5.5-16.918 14.769-18.556m387.34-12.304c2.78.334 5.78.749 8.22 2.153a20.9 20.9 0 0 1 9.71 12.671c9.95 36.058-24.06 74.764-30.04 108.819-.57 3.263-5.02 10.896-6.82 14.123-2.95 4.08-3.99 5.987-9.1 5.093-2.39-6.776 8.03-24.584 7.55-33.537-1.48-27.569-8.86-93.724 20.48-109.322m-250.62 4.68c17.716 2.922 23.827 29.475 13.923 43.4-11.93.636-16.467-22.452-17.879-31.4-.856-5.428.597-7.95 3.956-12m2.118 793.157c3.903-.288 4.34-.528 7.701 1.132 6.637 8.261-9.086 34.257-15.838 39.635-3.996.356-4.549.659-7.952-1.077-1.076-1.419-2.08-2.24-2.219-3.885-.727-8.591 13.5-29.658 18.308-35.805m-133.425-30.965c4.375.205 5.488-.126 8.813 2.446 4.853 10.122-14.648 27.666-22.293 33.092-3.953-.037-4.622.048-7.837-2.168-5.799-10.469 13.928-26.491 21.317-33.37m265.787-672.901c1.99.073 3.67.288 5.64.505 10.68 8.318 1.12 31.029-5.79 39.864l-3.71.44c-10.622-4.673-5.184-33.885 3.86-40.809m-589.745 162.28c7.695-.682 25.792-1.978 26.508 8.756-2.34 5.111-6.422 6.428-11.372 8.469-7.781 1.835-27.901 3.806-26.961-8.711 2.747-4.915 6.856-6.63 11.825-8.514M1032.64 124.93c18.95-.992 25.4 26.829 16.31 39.642-1.6-.005-2.29-.188-3.9-.436-5.1-4.407-11.92-23.554-14.27-30.518-1.17-3.478.1-5.686 1.86-8.688M625.903 575.108c5.962-.487 8.165.065 11.307 5.286.395 9.372-16.411 14.316-23.985 17.171-5.891.625-8.026-.231-10.621-5.22.209-10.721 14.635-14.257 23.299-17.237m2.345 143.711c4.824-.339 6.489.152 9.372 3.748.793 8.771-15.584 20.2-21.999 24.739-3.44.312-5.284-.312-8.124-2.034-4.762-9.698 13.659-22.237 20.751-26.453m125.237-194.527c4.64.292 8.838.098 11.528 4.473-.309 9.779-11.917 12.631-19.642 14.321-5.296.223-8.695-.037-11.313-4.979.383-9.867 11.655-12.524 19.427-13.815"/></svg>