<svg xmlns="http://www.w3.org/2000/svg" preserveAspectRatio="xMidYMid meet" viewBox="0 0 2048 1462"><path d="M618.704 92.34c13.605-3.141 40.337 2.898 52.762 9.261 6.916 2.677 16.39 9.211 23.249 11.183 11.443 3.271 23.619 2.626 34.274 8.648 46.787 26.441 19.543 76.718 14.967 116.666-.923 8.061-2.173 16.094-3.527 23.987 31.276 1.254 60.895 1.109 92.018-3.011 33.814-4.477 60.481-11.383 94.707-10.678a124 124 0 0 1 3.988-8.317c7.074-13.395 18.935-24.871 33.53-29.559 10.99-3.541 24.102-1.108 26.775 11.901 3.648 17.751-10.497 36.738-19.802 50.848 23.49 91.871 31.765 194.671 35.015 289.422 1.55 45.325-1.85 89.531-5 134.643 11.98-.924 28.01-2.207 39.94-1.469 62.97 3.899 124.68 55.525 170.23 95.112 12.21 10.61 32.18 28.097 42.62 39.466 24.6.97 50.35-.331 74.96-.905 19.47-.454 39.24.971 58.68.5 25.99-.629 51.34-2.354 77.39-2.013a14168 14168 0 0 1 335.65 324.845c45.31 45.67 92.22 88.88 133.19 138.67 6.97 8.48 27.33 28.83 29.29 38.02-1.9 8.47-11.16 9.76-18.62 10.33-22.88 1.75-45.7.48-68.61.48l-108.38.73-225.19 1.18-86.93.61c-14.55.19-28.35 1.07-43.14 1.03-14.15-.14-31.44 1.11-45.81 1.73-27.94 1-55.88 2.24-83.8 3.7l-223.9 8.85a6061 6061 0 0 1-161.755 5.61c-44.436.85-88.908.5-133.389 1.41l-174.387 4.93c-33.954.72-70.809 8.36-105.347 8.05-18.694-.16-31.889-8.76-48.341-16.18-57.682-26.01-111.351-64.32-154.614-111.07-49.851-53.88-112.791-131.02-147.287-196.01a629 629 0 0 1-42.7-104.156c-5.336-16.878-12.476-37.199-13.4-54.678-1.21-22.885 29.892-17.429 44.602-17-.467-5.333-1.33-9.557-2.357-14.818 6.649-17.013 15.837-23.382 30.471-34.056-15.626-58.453-13.058-146.526-9.197-207.034 3.78-59.244 2.113-109.656-1.945-168.981-3.378-49.395-1.592-102.439 2.997-151.768-11.599-3.227-16.632-4.37-23.339-14.496-13.469-20.336-3.419-38.248 21.583-35.14 14.764 1.836 22.812 9.94 35.811 12.82l1.293.277c57.008-16.853 105.172-22.358 164.07-23.049 18.156-.213 37.208-2.371 55.527-2.844a1529 1529 0 0 1 86.834 1.047c1.66-98.559 25.407-164.215 116.097-144.986-.356-.076 15.73-3.415 18.247-3.738"/><path fill="#fefefe" d="M435.422 648.656c1.211.043 8.593-1.261 8.889.124 12.205 56.937 28.858 111.947 60.066 161.613 12.239 19.479 30.066 51.443 54.596 56.145 28.764 5.079 59.17-4.397 79.986-24.905 59.97-59.086 119.646-117.789 177.264-179.186 2.906 5.96 13.577 26.48 14.276 32.173 4.182 34.046 6.722 68.554 10.524 102.679.351 3.153-.083 4.111-1.663 6.583-35.564 26.226-73.039 50.343-109.429 77.031-24.3 17.822-64.926 51.273-90.268 66.212-27.112 9.746-61.05 13.491-88.559 19.224-46.882 9.769-93.008 16.289-140.086 21.35-.006-29.849 4.142-69.464 5.466-100.374a7138 7138 0 0 1 7.735-147.185c1.654-28.778 2.91-60.646 5.501-89.176 1.906-2.514 1.386-1.701 5.702-2.308"/><path fill="#fefefe" d="M740.826 613.013c-6.657-29.93-7.681-65.925 2.55-94.695 1.495-4.205 1.502-9.329 3.676-13.032l1.099.521c1.053 7.619-.139 24.922 3.945 28.748 7.173 1.222 8.226-3.882 8.913-9.182 1.737-13.416 1.111-86.426 7.754-93.892l1.733.175c5.367 9.109-6.916 86.663 4.205 95.334l2.547.423c3.683-2.881 4.766-6.277 5.068-11.005 1.926-30.174.085-60.697 2.987-90.823.247-2.567 1.553-3.374 3.25-5.095 2.625.464 1.806.32 4.073 2.539 2.879 15.062-4.963 94.421 5.613 103.133 3.424.65 1.801.841 5.024-.71 4.468-6.567-1.945-87.122 4.177-94.877 11.152 5.298 7.777 70.691 8.568 82.9.347 5.371 6.833 6.467 11.043 4.904 3.263-3.745 1.996-2.746 1.473-7.431-1.472-13.197-1.381-28.154-1.708-41.412-2.11-10.33-1.061-22.064-2.646-32.863-1.074-7.312-3.885-8.342-4.367-12.045l2.529-.395 1.792 1.601c1.925 4.571 4.766 28.723 4.555 33.896 1.363 11.542 7.731 27.259 8.726 35.895 3.629 31.495 7.864 83.723.284 114.015-5.057 20.214-55.991 70.724-72.068 87.091a3689 3689 0 0 1-80.375 80.521c-13.715 13.522-27.684 27.24-41.12 40.65-18.417 18.384-34.53 34.443-61.892 36.81-10.508.909-23.923.835-32.818-6.829-36.165-35.285-62.738-95.869-77.365-143.44-5.108-16.612-10.26-46.388-15.025-58.209a4050 4050 0 0 1 122.95-11.887c6.913 27.282 17.525 61.579 23.164 88.513-2.153 3.428-4.032 5.691-4.465 9.666 1.202 3.835.328 2.533 3.163 5.105l2.997.104c14.717-8.649 40.32-33.319 51.728-43.964a3902 3902 0 0 0 54.894-51.567c7.879-7.452 23.117-21.104 29.369-29.191"/><path fill="#fefefe" d="M547.379 411.821c.898.304.865.148 1.438.79 32.156 36.008 103.409 50.712 143.051 21.779 19.394 13.645 34.269 28.037 48.989 46.503-9.916 30.978-19.506 55.588-17.618 88.456.912 15.866.488 23.98 3.743 40.003-6.558 8.092-26.009 24.643-35.032 33.068a4881 4881 0 0 1-77.91 72.417c-3.101-11.527-20.961-75.26-19.821-80.775 6.44-3.436 14.015 1.712 19.452-5.351 3.123-7.911-14.166-69.258-17.556-80.938-8.209-27.749-23.293-69.43-48.269-88.54-2.411-1.844-4.924-1.839-7.647-1.117-5.412 8.306 5.349 15.105 11.097 23.601 4.319 6.385 12.235 16.456 15.441 23.668 12.913 29.051 30.038 81.452 32.429 112.503l.083 1.142c-28.47 4.54-66.319 5.718-96.083 9.548-11.998 1.544-60.271 6.737-70.269 6.366-3.309-7.389 11.013-96.953 14.268-110.559 5.281-22.068 31.903-59.542 50.699-73.566 16.241-12.117 33.468-25.514 49.515-38.998m-143.807-159.18c9.725.617 18.697-.358 27.887-.007 15.962.609 31.767 1.082 47.724 1.57-2.034 7.222-6.656 17.255-9.448 24.603-10.593 27.882-16.287 53.818-4.967 82.537-83.209 16.507-138.641 31.087-217.44 62.156-16.459 6.226-34.17 13.734-50.402 20.642-6.184-25.604-10.31-46.041-10.841-72.652-.41-20.508 1.105-39.38 1.862-59.763.406-10.959-.43-22.992-.289-34.267 22.401-5.794 37.279-10.481 60.981-14.351 32.487-5.303 57.864-5.51 90.454-6.536 20.945-.659 43.176-3.176 64.479-3.932M95.554 891.211l1.478-.013c9.18 2.046 34.418-.738 40.439 5.309 2.204 2.214 14.289 26.942 14.248 28.278-6.647.761-23.684.254-27.403 2.412-2.231 2.922-1.741 1.513-2.024 5.175 5.809 8.912 23.849.836 34.949 3.455 5.941 4.976 16.599 25.262 21.058 33.127-9.096.479-39.576-2.175-44.905 3.322-.327 3.645-.754 2.038 1.209 5.018 8.806 5.107 36.393 1.5 48.089 2.081 4.569 1.955 19.612 29.045 25.436 37.075-13.079 2.74-46.027-1.11-55.456 5.88l-.216 1.65c9.065 9.27 49.827 3.51 63.265 2.92 4.324 9.87 17.918 27.01 24.929 36.3-13.026-.33-26.703.86-39.746 1.37-8.162.32-17.247-2.1-23.379 3.61-1.38 3.3-1.405 1.74-.26 4.84 6.797 4.98 59.004.58 70.887.15 9.659 12.28 19.498 23.18 27.951 36.34-19.476 1.98-38.598 4.02-58.2 5.11-2.119.12-3.555 4.36-2.96 6.72 7.378 7.15 36.796 1.35 47.338 1.36 7.177 0 15.656-1.63 22.115-4.88 7.677 8.8 15.11 17.81 22.288 27.02-21.329 3.01-45.142-.47-66.168 3.54-3.28.63-1.132 6.89 1.013 9.05 8.86 2.41 62.9-.78 73.853-2.1 4.343 4.46 25.837 25.62 26.589 30.11-3.965 1.98-39.883 1.75-46.813 3-5.155.93-4.144-1.63-7.143 4.19.104 2.3-.247 3.44 1.688 5.09 6.916 5.9 45.9-2.21 56.55-2.46 10.556-.24 26.918 20.48 34.512 27.89-10.729 1.02-62.439.72-66.111 4-1.556 3.95-1.835 2.89-.952 6.26 7.809 5.33 65.265.88 76.139.25 5.341 4.49 10.788 9.46 16.046 14.1l8.792 7.18c-9.817.24-69.141.33-72.188 2.6-2.005 1.5-2.527 2.72-2.972 5.07l1.593 2.18c10.769 5.78 69.366 1.76 83.772-.74 7.3 7.35 27.921 23.35 32.49 30.28-1.968 5.88-49.819-1.73-57.066 4.68-2.849 2.52-.446 6.66 2.008 8.59 7.795 1.45 60.388-1.14 69.303-2.26 6.19 3.59 29.916 22.36 34.485 27.17-7.713-.45-67.043.52-70.413 1.49-2.43 2.96-1.793 1.53-2.266 5.49 2.052 4.59 3.728 4.77 8.91 4.88 24.639.57 52.227 1.83 76.44-2.5 9.912 6.06 19.966 11.66 29.884 17.82-21.145.59-46.441 5.36-67.674 4.28-12.029-.61-36.437-13.69-47.659-19.01-73.596-34.85-127.73-83.79-179.597-146.47-47.273-57.14-95.252-119.55-125.244-188.13-9.664-22.095-17.641-46.316-24.882-69.672-3.917-12.633-11.237-31.751-11.716-44.912-.083-2.286 1.762-3.056 3.667-4.565m1290.376-48.774c24.78.559 49.1-.403 73.35.237 17.13 12.965 44.6 41.018 60.49 56.461l88.96 85.59a9165 9165 0 0 1 221.23 216.345c31.36 31.54 62.67 61.75 90.6 96.51 7.49 9.32 16.28 16.96 23.31 26.95-12.44 2.2-69.82 1.36-84.8.88-4.21-5.75-22.27-24.29-27.68-28.93 11.21 1.76 50.79 8.12 58.55 1.23l-.01-2.04c-.53-.73-2.35-2.95-2.89-3.08-8.69-2.11-58.27-6.06-64.14-5.04-12.16-12.25-23.56-25.48-36.18-37.11 8.64 1.36 60.46 6.39 65.27 3.98 2.32-2.71 2.17-1.68 2.04-4.43-7.02-7.41-61.53-8.05-75.29-9.36-10.24-9.06-28.74-29.89-38.85-40.59 9.95 2.33 50.94 11.09 57.54 4.81-.64-10.8-57.09-13.2-67.43-13.01l-9.79-10c-6.61-7.94-21.63-21.24-25.71-27.65 6.49-1.86 62.73 17.28 71.47 6.99-.65-3.65-3.51-6.09-7.25-6.49-25.01-2.7-47.06-9.62-72.41-9.18-9.96-9.04-25.56-24.59-34.22-34.52 10.16 2.19 64.52 15.7 69.57 8.08-4.73-9.87-65.26-15.99-77.77-16l-.37-.57c-8.77-13.16-24.86-29.09-36.25-41.12 12.69 2.38 61.82 15.05 69.95 7.85l-.89-1.84c-11.11-8.06-61.84-14.31-76.86-15.35-10.77-10.2-22.74-23.44-33.5-34.23 10.82 2.25 27.06 6.21 38.33 6.54 2.52.07 3.46-1.9 4.53-3.55-.14-1.34-.31-4.12-2.35-4.6-10.02-2.36-35.53-6.02-44.17-8.37-9.23-2.51-31.85-28.657-40.56-36.904 10.81 2.229 52.19 10.773 60.3 5.871l.12-1.673c-8.13-9.065-53.44-12.296-66.97-12.562-10.23-12.117-28.56-29.179-40.67-39.231l.68.251c8.2 3.018 57.14 15.012 59.99 4.938-5.55-8.882-55.11-12.488-66.44-12.601l-.03.024c-3.01-2.645-22.72-20.203-23.38-22.589 4.76-.701 8.4 1.099 13.19 1.658 11.04 1.287 26.51 4.329 37.47 3.426 2.49-1.642 1.65-.545 2.55-3.426-4.45-12.287-53.43-7.534-65.25-13.708-5.24-2.731-14.36-11.841-18.9-16.056 11.46 1.893 47.71 9.135 57.01 4.305 2.06-2.798 1.72-1.31 1.27-4.551-11.82-7.94-56.63-7.239-71.95-10.028.47.085-15.11-10.428-16.39-11.354zM971.252 221.878c2.593-.155 3.4.33 5.802 1.204 9.603 11.962-19.134 40.457-18.942 43.9 1.285 22.961 9.684 48.696 12.64 72.43 3.2 25.681 8.299 51.487 10.422 77.316-54.893-17.525-110.607-36.31-167.423-46.747-12.379-2.274-25.277-3.997-37.74-5.775-10.251-1.731-77.471-8.012-80.351-10.805 3.621-2.516 13.51-9.346 16.059-12.374 16.294-19.355 22.332-44.974 27.909-68.422 53.246 4.94 108.637-4.116 161.26-11.321 13.271-1.817 21.114 2.625 33.555 1.909 2.743-.158 6.024-8.427 7.084-11.347 5.556-15.305 14.813-23.749 29.725-29.968"/><path fill="#fefefe" d="M684.151 178.684c2.898 1.419 9.734 8.713 13.487 11.37 10.762 7.62 22.726 10.94 35.066 14.99-.625 4.129-.681 10.208-.843 14.529l-.584.025c-5.7.288-14.892.843-18.824 5.147-.376 1.805.087 3.844.925 5.442 4.31 8.224 10.218-.761 16.954 1.616 1.055 2.623-.23 15.785-.334 19.975-7.928-.204-9.342-.629-16.335-4.382-9.966 1.009-8.06 30.65-8.522 39.574 3.052 1.279 5.007 2.518 8.204 2.056 7.382-5.668 1.22-14.671 5.221-25.218 3.433-1.958 5.257-1.472 8.243.772.8 2.771.029 5.395-.662 8.32-4.94 20.916-13.453 54.145-32.577 66.527-16.047 10.391-38.483-4.959-54.148-8.823-3.056-.754-3.494.24-6.01 1.989-3.015 7.988 13.349 14.415 19.221 17.544.275 21.054.285 45.194 10.66 64.274 3.013 5.54 12.263 12.177 12.928 15.985-35.738 17.068-92.209 1.027-118.488-27.438 2.424-3.414 3.745-5.696 5.745-9.135 19.845-32.739 29.709-67.058 21.303-105.259-.554-2.52-3.968-28.278-8.781-26.856-15.254 4.504-34.412 4.1-39.485-14.494-3.098-11.356 7.95-17.555 17.368-19.424 9.196-1.757 14.484-.543 22.136 4.693 44.218-2.55 78.071-22.659 108.132-53.799"/><path d="M665.126 213.28c8.994-1.591 28.344-1.778 27.361 11.621-1.879 3.025-.815 2.206-3.881 3.579l-1.801-1.095c-12.794-6.11-19.983 1.646-28.189-3.974-1.437-3.504-1.177-2.021-.559-5.88 2.833-3.422 2.422-2.525 7.069-4.251m12.218 81.598c4.222-.137 8.573 1.588 12.785 2.648 6.594 1.658 17.683 1.13 21.101 7.262-.072 3.258-.142 3.345-2.126 6.05-9.207 2.83-26.45.254-32.355-8.122-.972-3.55-.511-4.13.595-7.838m-12.819-50.945c5.56-.343 19.887.012 23.381 4.59.869 4.009.777 2.425-.834 7.023-6.418 1.031-18.608 1.296-23.212-3.822-1.103-3.521-.596-4.077.665-7.791m-106.169-7.956c6.616 1.891 12.432 3.951 13.129 11.471-1.474 3.313-1.48 3.517-4.304 5.62-4.754-1.986-13.997-8.003-14.83-13.362 2.305-3.08 1.742-2.151 6.005-3.729"/><path fill="#fefefe" d="M823.534 1264.16c26.167 8.61 60.001 16 86.944 22.98l140.792 37.12c-11.94 7.87-26.93 14.66-38.42 23.02-33.008-.83-75.83 2.75-111.044 2.95-12.853 1.72-43.493 1.11-57.491 1.29-35.694.45-73.103 1.54-108.673 1-18.832-12.39-35.624-18.5-56.855-25.55 16.836-4.73 30.829-11.72 46.856-17.67 34.091-12.68 65.206-30.12 97.891-45.14m553.096-45.45c3.93-2 8.84-4.09 12.96-5.8 25.44-10.53 49.14-22.66 73.25-35.91 6.73 7.66 14.54 18.61 21.19 26.84 20.93 5.49 118.52 37.49 133.22 48.85-.58 2.86-.6 2.77-.26 5.67 1.81 2.65 12.1 8.51 15.8 11.05-8.37-1.73-15.14-5.85-23.14-4.85-3.29 2.14-2.45 2.19-3.69 6.77l-4.2.97-2.2 2.22c.37 10.78 22.27 13.68 26.15 19.05l-1.74.91c-5.83-2.06-24.55-9.51-29.66-6.39.8 10.39 18.61 10.52 22.33 16.67-.91 1-1.25 1.85-2.16 1.68-7.76-1.43-17.98-6.7-26.01-5.64l-1.37 1.37c1.33 4.44 3.77 6.53 7.81 8.59 4.79 2.28 9.67 3.64 13.47 6.58-2.8.57-12.21-1.98-15.46-2.71-9.37 1.06-114.01-25.61-130.46-28.56-63.55-11.42-57.34-25.06-85.83-67.36m-214.04-68.46c10.44.57 50.1 11.23 58.84 16.54 17.59 10.69 53.31 36.48 68.41 50.2-17.25 5.38-34.55 10.84-51.75 16.38-8.74 2.82-33.58 13.86-41.78 12.74-17.65-2.43-37.35-8.43-55.06-12.48-26.71-7.16-53.52-13.9-80.44-20.23-16.27-3.98-46.36-11.74-62.791-13.01 44.931-18.31 116.231-39.08 164.571-50.14m35.58 113.88c2.97.65 6.49.68 9.56 1.31 49.93 10.13 98.63 26.62 147.62 40.44 19.94 5.63 40.25 9.31 60.14 14.71-27.72 10.79-32.16 11.19-61.22 12.79-19.18.9-38.35 1.95-57.52 3.13-32.14-.39-66.72 3.03-99.01 3.54-9.5.15-30.86 1.34-39.69.06-25.23-3.65-52.35-14.77-77.46-19.01 37.86-20.38 79.03-36.4 117.58-56.97m-349.8-775.726c-1.228-3.037-3.434-7.196-2.985-10.024 3.033 1.978 3.855 4.284 5.615 7.506 11.789 52.763 16.202 80.835 16.164 134.276 5.965 9.743 18.148 21.774 25.74 31.837 21.697 28.759 54.879 68.464 71.362 99.833-30.307.565-49.018 6.576-75.747 19.668-18.476-31.614-49.451-85.536-61.867-119.878 12.385-15.88 22.912-31.339 24.575-52.085 2.378-29.652 2.427-60.861-.607-90.508-.716-6.988-1.777-13.723-2.25-20.625m-719.8-223.33c25.139 1.644 21.796 5.596 43.151 13.756 4.81 37.858-1.31 75.612 1.809 115.023 2.097 26.501 20.215 71.212 18.225 91.286-6.081 61.32-30.632 127.098-14.062 189.082 4.76 17.805 14.852 37.571 15.684 56.587-2.602 41.213-10.8 84.4-1.074 125.234.734 3.062-.12 4.037-1.606 6.335-2.808 1.653-3.261 2.204-6.369 2.198l-.671-1.803c-5.462-30.014-7.95-53.698-5.275-84.396.895-10.276 4.541-38.654 3.975-47.434-1.333-20.71-15.81-47.482-18.789-69.57-7.634-56.582 6.658-108.584 16.194-163.741 1.364-7.889 2.021-32.716-2.781-39.165-7.233-.889-15.3 9.732-22.704 5.283-1.903-4.076-3.097-103.825-1.84-118.673.996-11.776 4.505-34.737 4.057-47.562-.042-1.203-.885-5.043-1.681-5.4-12.371-5.553-13.782-1.61-24.835-10.626-3.405-7.92-4.069-8.49-1.408-16.414"/><path fill="#fefefe" d="M1511.68 1150.25c16.87 6.23 35.3 9.67 52.67 14.27l94.25 25.06c2.16.84 7.04 2.53 8.67 3.8l.06 1.57 2.15.27c-6.38 1.65-6.67-1.64-12.28-2.13-4.97-.05-13.27-4.98-18.9-.65.52 6.95 18.37 13.12 24.47 16.38-6.77-1.47-18.84-5.52-24.89-3.68l-.87 1.37c2.7 5.25 15.35 12.38 20.79 15.86-3.49-1.09-21.06-6.46-23.74-6.07l-1.41 1.61c1.59 9.97 12.54 9.93 14.52 14.16-6.47-.73-15.26-3.35-20.26-.25.72 4.9 5.14 7.07 9.42 8.95l-.12 2.25c-9.4-.73-30.52-10.86-40.89-14.81-27.8-10.6-55.15-21.54-83.89-29.59-5.45-1.53-14.41-4.12-19.09-7.38-4.46-3.87-15.7-15.3-16.37-21.2 4.36-5.63 10.14-.87 14.77-3.32 6.76-3.6 14.8-11.29 20.94-16.47M228.823 1021.06c11.13 1.23 47.727 12.21 61.271 15.71l76.755 20.14c11.364 2.94 38.312 9.25 47.709 13.53-12.449 5.02-25.296 12.32-37.11 18.84-21.668 11.87-44.637 23.51-66.591 35.29-20.17-21.58-40.723-47.72-58.71-71.08-6.865-8.91-18.301-23.01-23.324-32.43m219.902 245.7c8.706.58 37.214 8.2 46.802 10.53 37.346 9.04 74.501 20.23 110.887 32.58 14.538 4.93 34.45 10.61 47.876 16.7-6.598 2.47-14.235 6.51-20.655 9.68-22.173 10.43-40.377 30.12-67.618 15.74-41.489-21.89-81.613-54.72-117.292-85.23m-118.546-118.58c57.812 18.93 117.542 32.07 173.961 53.35-9.162 7.45-21.171 12.44-31.895 19.65-14.051 9.47-27.032 20.24-40.718 29.29-11.988-10.61-97.512-92.87-101.348-102.29m747.581-106c5.9 2.05 91.08 81.17 102.36 90.97-14.86-2.12-54.6-15.54-72.61-20.48-13.63-3.33-31.86-9.39-45.76-13.43l-78.189-22.14c27.909-16.51 62.689-26.17 94.199-34.92m-65.06-290.798c5.05.318 10.1 1.72 14.28 4.68 93.82 66.16 177.42 145.117 265.87 218.066 13.95 11.505 42.89 35.082 54.94 45.842 17.4 15.54 143.32 115.57 145.46 126.34-1.4 3.01-.39 1.78-3.28 3.69l-2.47-1.44c-14.83-10.58-34.1-28.08-48.42-40.41a3540 3540 0 0 0-71.27-60.53l-267.39-224.595a1098 1098 0 0 0-57.97-45.677c-3.42-2.533-17.47-11.536-18.47-14.456-3.47-10.14-11.53-1.27-18.97-5.281l.05-2.549c2.11-2.478 4.12-2.486 7.64-3.68M858.465 1181.79c5.859-.21 74.027 17.98 84.066 21.33-14.185 4.48-28.809 8.36-42.889 13.08a1323 1323 0 0 0-75.89 28.44l-9.378 3.91c-24.051-7.62-48.713-12.76-72.458-20.24 39.22-5.04 84.357-23.61 116.549-46.52M156.858 901.497c11.352 2.328 30.695 9.389 42.964 12.935a3864 3864 0 0 1 101.492 29.773 2735 2735 0 0 0-33.477 15.868c-18.528 9.105-40.679 20.147-58.371 30.722-5.846-7.571-14.04-22.349-19.109-30.997a3098 3098 0 0 1-33.499-58.301M1653.65 1274.33c8.65 2.88 23.08 11.29 32.53 15.19 29.24 12.06 61.35 28.13 90.84 38.55-11.75.37-25.19.02-37.07-.01-30.61-.14-61.02.58-91.61.8-10.78.07-21.7-.18-32.38 1.46 16.12-22.35 22.88-31.41 37.69-55.99M296.541 849.396c14.442-2.423 89.245 2.218 107.704 4.008l-.266 18.363c-34.484.762-67.464 2.389-102.166 2.588-5.362.535-10.878.703-16.263.619-31.53-.488-62.964.836-94.476 1.243 22.938-14.345 78.224-24.009 105.467-26.821m1033.369 50.248c3.22.613 6.91 2.387 10.07 3.548 42.3 15.548 83.82 33.052 125.86 49.263 10.26 3.958 20.33 8.571 31.16 10.719-6.09.688-11.98 1.114-17.82 3.021-17.64 2.444-47.08 6.631-64.12 10.014-13.58-10.555-31.12-28.071-44.7-39.715-11.2-9.608-31.36-26.664-40.45-36.85m-327.78 77.099c3.21.227 6.76 1.112 7.14 4.635-1.88 2.811-24.426 18.682-29.72 23.442-46.377 41.72-95.508 83.51-143.876 122.8-30.981 25.16-89.819 78.22-125.841 90.57-4.032.5-2.728.9-5.963-.73.858-2.46 47.794-34.95 53.701-39.51 69.452-53.62 136.687-110.18 202.025-168.71 12.554-11.249 28.566-24.474 42.534-32.497m481.05 329.347c7.24-1.81 72.3 16.4 84.07 17.78 2.67.32 15.22 3.67 16.69 5.68-2.79 1.03-26.02.39-30.69.33-30.49-.65-54.74 1.72-83.83-9.01-5.21-1.92-16.93-3.27-22.84-4.18 10.63-3.58 25.34-7.15 36.6-10.6m81.79-208.95c-1.12-.7-2.24-1.4-3.36-2.12-2.86-1.84-7.09-4.18-7.81-7.48 4.7 1.07 8.27 3.99 12.4 6.67 17.4 7.9 36.56 16.65 54.26 23.76-13.04 3.12-31.09 5.58-45.08 8.25-11.73 2.24-37.23 8.93-47.22 9.7 10.75-8.72 22.33-17.59 32.08-27.45 4-4.05 4.78-5.54 4.73-11.33M847.222 727.753c4.456 3.244 25.467 43.184 29.63 50.957-2.977 2.466-6.422 4.777-9.596 7.021-4.597 2.958-9.176 5.192-14.043 7.673-2.366-20.464-4.884-45.359-5.991-65.651M398.001 923.927c1.757-.22.901-.325 2.525.692.721 7.283-.534 20.387-1.236 27.946-11.53-1.356-22.771-4.205-34.053-6.883l-11.381-2.56c13.373-6.519 30.113-12.864 44.145-19.195M292.847 650.762c2.737 1.636 2.63 2.241 2.603 5.033-4.947 8.073-40.439 29.035-49.977 34.624l-1.667-.56c-2.161-2.583-1.636-1.119-1.511-4.579 4.892-7.416 41.15-28.888 50.552-34.518m101.882 56.921c2.001.035 1.872.136 3.517 1.336l.043 2.488c-4.208 8.37-36.458 35.983-44.863 40.34-8.836-3.128 3.189-12.674 6.627-15.567 11.339-9.542 22.635-19.988 34.676-28.597m-34.05-262.12c8.335 3.953 41.781 27.671 47.983 34.776.414 3.85.201 2.784-1.645 6.841-5.266-2.925-47-32.979-48.823-35.59.049-3.691-.036-2.468 2.485-6.027m-134.02 50.405c6.039 1.633 37.438 28.203 44.177 34.453 1.597 1.483.055 5.309-.6 7.353-6.667-.963-39.871-29.756-45.312-35.691-.244-3.684-.269-2.416 1.735-6.115m-71.526 346.857c2.676 1.6 4.196 9.05 5.141 12.31-7.818 7.586-14.125 13.814-20.902 22.328-16.524-10.793 7.202-27.616 15.761-34.638m758.298-391.083c2.877.088 1.539-.27 4.113 1.274l.473 2.132c-3.928 5.723-35.433 23.517-44.131 29.588-4.205-.362-3.298.374-5.605-2l.293-2.28c4.709-6.064 36.035-23.198 44.857-28.714M341.248 569.701c10.024.031 33.218 19.076 40.874 25.913 2.14 1.911 1.482 4.287 1.241 6.678-6.703-.254-33.401-20.544-39.98-25.75-2.794-2.211-2.266-3.905-2.135-6.841M1679.57 1205.53c9.51 4.27 19.65 7.29 30.02 11.94l.32 1.17-8.84 1.6c-5.21.43-20.44 3.58-23.25 2.52-1.09-3.83 1.03-12.64 1.75-17.23M908.562 592.221c8.451.023 31.331-2.006 36.429 2.525.14 3.654.513 1.962-1.25 5.242-9.546-.162-18.986.222-28.518.213-4.224-.004-7.347-.264-8.595-4.608zm382.088 250.333c.76-.181 1.73-.058 2.57-.029l-.52.956c-6.61 2.329-10.26 3.051-17.21 4.396-3.15-1.722-4.02-1.447-5.21-4.013 3.23-1.564 15.78-1.186 20.37-1.31"/><path fill="#acadaf" d="M1605.96 1271.33c7.54 1.76 16.92 6.11 23.55 10.1-3.42.48-18.72-7.88-26.39-8.94l-1.36-.19zm30.37-30.56c3.71 1.31 14.77 4.42 17.02 6.34l-.38 1.09c-2.59.39-15.12-3.89-16.76-5.18z"/></svg>