<svg xmlns="http://www.w3.org/2000/svg" preserveAspectRatio="xMidYMid meet" viewBox="0 0 2048 1462"><path d="M711.595 142.297c2.99-7.343 5.514-12.229 14.196-13.417 18.321-3.65 41.737 2.811 59.511.873 18.141-1.979 33.417-.689 51.359-1.234 161.5-6.493 323.119-9.647 484.749-9.461 8.24.081 47.57-.631 52.26 2.31 4.85 7.28.98 86.249 1.25 100.846.63 34.622-1.92 71.676-1.63 106.485a9579 9579 0 0 0 6.6 279.525l1.15 43.687c.12 4.971-.13 15.495.91 19.801-.48 8-1.01 13.255.08 21.295l.6.399c1.09-3.674 2.42-9.479 2.31-13.285 2.27-9.148 3.25-23.032 4.28-32.623a865 865 0 0 1 4.62-35.12c6.09-42.067 58.56-416.446 65.56-426.102a22.3 22.3 0 0 1 10.52-2.873c125.99-2.335 251.94-5.265 377.92-3.896 10.25.111 20.38 17.824 19.51 28.256-2.27 27.165-8.58 53.663-13.32 80.434l-27.36 157.891c-4.35 24.536-13.91 70.699-15.84 94.052l-.1 1.258c10.78 12.138 18.28 23.669 18.85 40.621.2 37.277-6.26 77.018-13.13 113.834-5.23 28.012-6.43 46.103-7.94 74.59a7996 7996 0 0 1-4.52 80.414l-8.72 132.885c-3.73 51.808-7.21 96.728-1.4 148.678.82 7.32.24 32.26 1.67 36.83 5.14 1.29 33.03-.24 40.26-.49l94.35-2.4c10.66-.19 55.68-3.15 61.57 5.12l-.83 1.87c-10.34 8.24-55.77 7.09-70.21 7.45-27.83.96-55.67 1.66-83.51 2.1-8.17.1-34.49-.16-40.83 1.06-5 8.72-3.27 52.73-2.92 64.52.18 6.39 98.57 2.8 101.7 16.49-8.7 5.87-86.58 2.45-100.5.8l-1.26-.15c-4.38 6.89-4.04 36.36-4.93 45.72-.6 6.32-3.19 21.49-2.14 27.25 6.35 5.5 100.12-4.05 108.69 7.49l-.52 1.51c-10.98 8.28-65.98 6.69-81.9 6.86l-101.97 1.81c-58.61 1.53-117.26 1.7-175.88.52-53.13-1.08-106.28-4.03-159.44-4.4-35.95-.25-71.66.29-107.56.41-50.5-.01-101-.73-151.47-2.17-15.62-.37-31.52-1.08-47.22-2.54-19.67-1.51-39.18-5.49-58.93-3.73-42.255 3.77-84.429 4.21-126.815 4.71l-268.484.87c-86.572.71-173.151.04-259.703-1.99l-84.011-2.18c-10.523-.31-31.169-.89-41.283-1.66-19.226-1.45-117.174 4.82-127.503-2.65l-.059-1.78c8.665-11.82 96.409-9.27 115.705-8.04-19.424-22.25-19.757-36.9-22.14-65.72-13.367.65-95.894 3.17-101.64-7.26l.95-1.56c11.45-5.25 85.044-4.23 101.075-4.04-.123-8.17.528-66.96-1.629-69.55-23.903-.33-48.4-1.15-72.284-2.09-12.807-.5-63.393 2.4-70.834-5.74.158-.22.286-.46.475-.66 10.275-10.49 121.679-2.95 144.143-5.99 1.339-4.71 1.023-12.33 1.188-17.39 2.009-61.46 5.147-122.94 9.894-184.259.697-9.004 1.686-17.32 2.959-26.683 2.157-15.872 8.434-32.984 7.062-49.071-1.176-6.256-7.865-24.788-10.111-32.917a2741 2741 0 0 1-21.322-84.421c-3.847-16.339-9.461-37.353-10.237-53.819-1.282-27.21 11.005-41.292 28.067-59.761-11.286-44.934-21.527-95.807-31.292-141.425a8841 8841 0 0 1-36.65-173.724c-6.191-31.307-13.322-62.482-19.768-93.743-2.896-14.042-6.533-28.396-8.286-42.619-.734-5.949-.259-11.602 2.143-17.146 1.325-3.059 4.322-8.392 7.567-9.487 13.547-4.574 63.386-2.209 81.977-2.353l151.075-1.236c75.716-.724 151.651-3.398 227.387-2.796 5.344.042 13.142.248 17.885 2.779 7.087 13.422 15.591 56.407 19.2 73.38a3199 3199 0 0 0 13.457 59.628 4356 4356 0 0 0 29.919 115.733c8.085 28.945 17.308 58.154 24.065 87.458 16.346 70.894 27.318 142.609 43.499 213.683 1.319-17.316-2.358-50.527-2.654-69.371l-5.066-226.61-4.229-210.805c-.449-18.037.325-64.582-2.187-79.748"/><path fill="#fff" d="M1212.19 132.623c14.84 2.426 29.17-.315 43.74-.27l105.88.877c1.48 57.317-1.97 118.634-2.51 176.069-.21 22.164 1.12 44.248 1.49 66.399l1.6 117.694c1.45 63.731 3.34 127.452 5.68 191.157a4677 4677 0 0 1 4.55 148.374c.35 20.783 1.18 43.851.76 64.505-31.81 1.013-66.26-.712-98.45-.428-29.55.26-61.33 1.433-90.65.099 2.49-28.986 11.33-65.039 14.87-94.476 11.66.985 23.92-.291 35.85-.246 24.63.094 50.05.16 74.62-1.43 2.29-.12 11.17-1.805 12.36-3.62 4.21-6.428 4.28-25.112 4.2-32.181-.31-24.726-.33-49.063-1.08-73.623l-3.25-124.02c-1.21-84.192-3.44-168.367-6.72-252.504-.91-25.685-2.11-51.36-3.58-77.019-.55-10.354-.71-20.945-1.47-31.274-.32-4.46-.49-4.009-3.14-7.085-8.37-3.921-125.31-2.264-143.41-2.185l-167.856.119a5338 5338 0 0 0-151.841 2.904c-19.649.529-41.076.067-60.522 2.861-9.498 1.364-6.675 11.607-6.513 18.525.725 30.791 1.049 61.627 1.964 92.44l9.351 368.5 1.74 67.764c.315 12.088.274 35.782 3.156 46.353 13.512 2.39 26.645 1.293 40.676 2.82-9.219 15.961-13.312 29.739-19.453 46.428-3.405 9.254-9.985 42.443-13.257 46.927-4.707 2.687-52.997 4.309-55.445.857.255-7.852-.725-12.722-.977-20.395l-1.997-58.047-4.544-161.429c-4.3-135.748-7.446-271.53-9.437-407.331-.271-12.395-3.739-98.113-1.446-103.4 5.141-1.109 35.113-.062 41.857.029a1298 1298 0 0 0 52.989-.719l258.035-7.179 91.5-1.708c13.33-.298 27.53.173 40.68-1.132"/><path fill="#fff" d="M674.404 846.489c18.439.064 36.202-.33 54.488-.418 8.144 82.738-12.974 58.341 65.223 62.818 3.072.175 2.7 4.997 2.565 7.954-1.798 39.103 5.135 90.147 48.19 104.297 12.855 4.2 29.247 1.04 41.132-5.22-.589 38.48-9.226 77.85-18.181 115.29-6.783.73-16.266.61-23.451 1.03-31.708 1.88-55.38 7.2-79.306 29.18-21.13 3.84-63.42.76-86.386 1.96-7.718.4-18.515-1.31-25.548.73-8.618-2.16-22.964.21-30.423-.57-22.331-2.34-142.117 4.6-154.432-1.58-1.938-6.44-2.316-29.07-2.704-37.07-.847-16.44-1.841-32.87-2.981-49.28-4.299-57.88-12.053-137.589-24.92-194.169 5.47-13.255 7.702-19.727 11.217-33.439 16.047-.656 39.038-.004 55.764-.145q84.881-.102 169.753-1.368m836.676-2.723c2.97 1.267 59.75.431 68.09.448-.62 7.214-1.56 15.646-1.26 22.884.15 3.563 4.15 5.296 7.32 7.392 1.44 2.353-3.92 142.05-2.22 159.62 1.2 12.41 3.19 128.91 1.68 131.64-13.86 1.18-32.35.64-46.61.59l-81.16-.23c-56.41.21-114.5 3.05-170.14 2.45l-5.88-10.57c-20.59-32.8-56.4-29.45-90.33-27.21-3.79-43.19-18.73-111.62-19.54-156.119-.13-6.668 10.28-60.844 12.57-62.543l117.18-.397 42.46.302c8.15.013 16.63-.221 24.74.341 4.28.296 9.87 5.061 14.4.779 7.83-7.402 3.79-21.212 4.97-30.365 1.51-11.704-.76-24.962 1.04-36.231 6.3-5.58 106.23 1.182 122.69-2.781m154.32-318.833c1.51-.235 21.19 7.532 25.75 8.774 19.92 5.424 53.72 10.841 70.87-3.379 79.9 30.349 48 82.491 43.17 148.477-3-21.453-9.32-45.033-12.65-66.768-.67-4.397-1.9-8.188-5.66-10.583l-2.45.582c-5.86 6.335.15 37.468 1.49 47.36 1.94 14.691 4.09 29.355 6.43 43.989 1.31 8.397 3.95 22.554 4.03 30.669.14 13.078-1.87 27.952-2.5 41.215-1.49 31.512-4.56 64.021-5.29 95.461-13.35 2.687-34.93 3.46-48.69 4.029a982 982 0 0 1-107.84-.534 308 308 0 0 1-38.65-4.289c2.08-45.523 6.06-89.946 7.06-135.76 2.12-1.274 5.5-3.584 6.72-5.646 10.07-17.027 54.01-105.712 47.87-119.48-1.52-.773-1.64-1.16-3.43-.823-14.07 2.646-42.73 93.535-54.01 109.462l-.64.879c-14.12-5.237-38.96-18.275-46.36-32.196 5.07-26.761 28.23-94.464 43.85-116.49 5.61-7.905 58.09-29.395 70.93-34.949M512.22 190.576c11.315.518 65.894-1.177 72.276 1.156 6.702 9.364 25.021 103.324 30.069 123.084 18.124 70.952 37.856 141.667 56.389 212.514 12.019 50.778 19.344 102.225 30.019 153.309 7.428 35.544 15.967 70.009 25.675 105.048.98 3.535 1.119 24.332 1.521 29.792-13.595 1.415-46.435.989-62.054 1.293a8713 8713 0 0 1-137.179 1.503c-23.819.126-51.135-.64-74.372.619 2.851-15.614 6.729-44.425 7.615-60.081 31.537 1.534 67.32-1.205 98.934-1.47 30.909-.26 61.962.437 92.884-.833 8.739-.359 25.796-.049 33.41-1.677 3.875-4.869 3.58-6.287 2.293-12.444-2.295-10.982-5.211-21.822-7.558-32.803l-18.068-84.844-18.063-84.189c-4.61-21.6-8.815-44.542-14.83-65.717-14.314-50.39-32.791-101.414-46.034-152.056-4.404-14.568-17.858-88.703-20.554-92.197-.91-1.181-2.971-3.395-4.458-3.615-9.421-1.393-20.304.198-29.931.266l-71.816.21c-92.223.468-184.881 2.412-277.121 4.275-3.744.075-6.243.101-9.274 2.287-2.704 6.391 2.43 24.388 3.948 31.857a2754 2754 0 0 0 12.527 58.165l31.315 144.051c6.946 31.574 15.416 68.461 20.45 100.138 1.362 8.565-1.911 58.494-2.518 70.523-5.614 3.454-6.485 3.738-11.592 8.429-33.175-147.683-61.863-296.556-92.864-444.69-.686-3.28-1.847-5.949-.35-8.252 8.012-1.409 24.123 1.835 33.344 1.678 115.084-1.958 230.937-2.517 345.967-5.329"/><path fill="#fff" d="M390.507 646.877c20.457 10.166 47.086 26.259 56.562 47.535 3.529 7.925 5.861 21.743 5.378 29.951-1.429 24.289-11.487 110.951-19.021 130.715-3.422-5.971 9.391-105.863 8.564-122.063-.243-4.754-.891-6.913-5.447-8.81-3.746.744-2.382.064-5.223 2.513-2.396 6.754-4.205 32.383-5.252 41.872a1048 1048 0 0 0-5.042 59.466c-.375 5.887-1.818 24.702-1.156 29.797 1.987 15.297 6.199 32.311 8.844 47.741a1350 1350 0 0 1 12.506 92.423c-16.671 3.183-48.597 3.313-66.149 3.753-53.121 1.32-103.62-.43-156.394-6.335 3.756-34.478 6.861-62.547 14.461-96.754.763-4.993 8.858-36.922 8.524-38.485-6.62-31.026-12.488-64.439-17.054-96.063-1.486-10.29-2.611-30.959-10.668-35.73-12.626.283-6.088 23.241-4.822 30.954 5.499 33.51 9.977 66.953 17.433 100.105.288 1.282-1.061 8.224-1.397 9.943-11.505-32.086-20.005-74.007-28.341-107.544-2.04-8.205-6.139-26.445-7.068-34.12a68.3 68.3 0 0 1 .684-21.841c4.8-23.726 28.623-39.528 47.653-51.998-.995 37.001-4.359 82.799 1.604 118.671 13.284 9.086 93.016 5.203 102.293 4.451 49.007-3.975 54.569 12.447 52.372-39.703a2543 2543 0 0 0-2.48-50.062c-.689-11.673-1.989-27.787-1.437-39.031zM1700.68 194.506c33.25-.454 66.51-.542 99.76-.264 13.7.126 29.19-.438 42.55.79-.91 12.736-4.11 28.428-6.37 41.377l-11.58 66.211-37.77 222.402c-7.84-3.063-15.71-6.049-23.6-8.96-6.1-19.142-3.17-22.647 8.3-34.593 2.15-2.243 9.21-19.927 10.53-24.28 8.51-27.922 12.29-48.189-1.35-75.035a2408 2408 0 0 0 14.52-95.986c1.61-11.564 8.92-50.677 3.01-59.233-6.46-1.456-13-1.706-19.59-1.619-35.08.46-70.19 1.392-105.27 1.892-40.92.438-81.83 1.196-122.74 2.273-10.97.343-39.96.607-48.39 3.285-10.5 10.716-46.88 297.855-53.34 336.891l-.12.383c-1.89 19.568-4.98 39.826-7.46 59.405l-12.4 105.543c-8.03 69.483-15.62 53.896 55.75 55.448 11.59.252 92.93-1.608 97.11 2.287.97 6.42-.69 19.749-1.68 26.258-20.2.919-188.76 2.12-192.17-.63-5.82-38.051 2.11-75.4 7.19-112.937l25.19-176.693a9617 9617 0 0 1 30.21-206.918c5.83-39.243 11.56-85.562 19.47-123.976l131.05-2.11c32.85-.341 66.41-.145 99.19-1.211m-617.43 75.135c7.73 1.241 24.52-.087 33.46.023 32.25.398 66.9-1.854 98.94.161 7.36 14.012 16.38 22.458 27.63 33.341-1.25 28.804.67 62.025.78 91.116.08 21.565.33 43.085.74 64.648-13.38-8.243-14.9-10.642-30.47-16.912-.58-7.034-.98-12.796-2.36-19.765 7.99-12.185 15.92-25.038 20.08-39.109-4.38-12.355-12.51-27.539-17.96-39.764-1.06-2.384-6.38-7.153-6.98-9.507-1.51-5.873-.94-12.356-2.49-18.227-1.06-4.033-3.82-5.471-7.58-4.468-4.63 5.039-4.28 8.17-4.07 14.587-8.59 12.721-21.11 35.72-26.57 50.415-.77 2.076-.28 14.035-1.24 17.869-1.57 6.293-9.5 10.281-14.82 13.631 10.92-26.447 32.31-72.846-4-88.923-27.84 4.335-41.67 22.829-58.44 44.275-.2-5.477-.41-11.524-1.26-16.859-2.88-17.944-15.47-44.182-36.27-45.449-17.32-1.056-28.35 18.435-32.67 32.601-1.81 5.944-3.74 13.199-2.14 19.348.51 1.97.75 2.19.54 4.299-2.47-.806-14.12-11.336-17.4-13.792a97.3 97.3 0 0 0-23.688-12.817c-43.893-16.093-35.064 43.476-23.166 66.56-19.091-8.876-44.925-16.15-62.51.02-16.298 27.011 12.056 61.284 36.499 71.366-24.465 9.645-58.457 12.12-60.637 46.336 14.939 23.597 32.939 30.293 59.945 31.675-23.827 19.723-41.719 40.826-38.587 73.316 11.839 16.249 24.349 14.562 41.973 10.624l.17.872c7.647 37.951 18.681 50.02 48.838 70.176-2.249 4.326-6.397 10.635-9.044 14.947-22.832 2.334-62.323 1.202-86.165.729-4.989-4.5-10.086-12.008-15.259-17.621-2.262-20.943-1.902-56.203-2.717-78.559l-5.343-168.136c-.992-41.413-1.712-102.019-6.205-142.288 15.234-16.704 15.523-18.696 27.616-37.366 17.151-1.81 41.952-1.125 59.971-1.21q43.308-.128 86.609-.995c18.14-.233 38.36.106 56.25-1.168m-704.379-26.062c9.627.112 21.91-1.18 31.373-.409 55.304 4.714 100.738 56.034 134.52 95.865 22.341 26.342 46.286 57.771 57.435 90.63 21.148 62.327 34.175 128.221 46.752 192.756 7.717 39.596 19.57 80.457 26.198 119.988q-15.514.543-31.036.755c.072-14.145-11.564-66.789-15.617-84.591-12.552-55.141-24.185-117.456-40.059-171.528a425 425 0 0 0-18.643-51.408 356 356 0 0 0-19.052-35.875c-29.789-48.713-105.817-124.216-162.159-137.784-61.556 34.622-118.871 113.77-115.452 186.608.453 9.632-.365 19.968 1.669 29.446-13.762 12.42-24.419 28.495-28.87 46.621-5.036-28.724-14.994-69.47-21.789-98.405 11.434-38.352 19.879-81.557 46.106-112.961 24.586-29.44 50.792-54.008 87.63-66.15 11.991-3.953 8.889-2.497 20.994-3.558M1456.19 1258.61c14.22 4.96 122.11-3.68 130.7 2.04 1.66 3.47-.73 6.7-.25 12.47 1.87 3.91 5.38 4.17 8.77 7.47.86 3.38 1.05 2.15-.18 5.01-10.96 7.42-105.91 8.14-57.08 42.56 8.05 5.68 21.43 9.99 30.44 14.14-4.22.72-8.53.39-12.78.33-36.11-.49-72.17-2.47-108.26-3.53-18.98-.56-37.97-.38-56.94-1.15-13.9-.56-27.83-.23-41.73-.97-3.79 1.38-166.52 1.46-179.89.12l-.76-1.13c14.57-13.6 33.24-26.98 48.26-40.62 12.27-11.15 23.25-22.32 34.92-34.08 14.38 2.25 198.83-.7 204.78-2.66m-984.067 7.45c21.387-.32 42.969.74 64.378.92 63.424.55 126.755 1.49 190.191 1.16 10.379-.05 66.648-2.4 71.874-.02 7.167 3.27 17.111 17.29 23.525 23.23 17.181 15.9 36.45 30.03 55.352 43.8-6.107-.41-9.632-.78-15.669-.03-49.279 1.5-107.179.67-156.718.53l-156.479.24c-31.281-.15-68.146-1.6-98.738-.89a219 219 0 0 0 5.282-5.24c17.676-18.1 17.336-40.04 17.002-63.7m247.168-89.33c3.44 1.04 30.567.64 36.967 1.01 1.997 4.85-.933 15.36.051 19.79 4.903 22.1 16.696 38.01 29.368 55.39-24.015 2.72-56.433.97-81.402 1.47-56.875 1.13-114.325-1.63-171.027-1.53-9.136.13-54.965-.46-61.218-2.26-2.799-15.65-2.688-54.5-4.206-73.18 28.6 1.99 66.758-.04 95.656.09l107.416.11c8.418 0 42.058.73 48.395-.89m655.889 3.89c-2.35-1.46 197.1 2 211.24.62-.92 11.58.92 49.38 1.15 63.02-12.88-.61-38.97.28-52.22.12-8.38-.09-53.9-.81-58.55.13-7.28.82-15.84.15-23.42.13-11.38.08-22.76.3-34.13.67-52.29 1.76-104.62 2.35-156.94 1.77 9.76-11.72 20.09-27.62 24.72-42.08 2.24-7 .74-13.65 1.52-21.4 6.18-1.29 15.43-.56 21.91-1.02 18.7-1.31 45.59.39 63.72-1.83z"/><path fill="#fff" d="m1730.53 240.448 56.56-.594c-6.43 41.025-12.43 85.423-17.94 126.456-14.1-9.499-25.39-16.327-42.95-17.705-2.15-101.065-135.33-123.478-184.39-25.038a92.8 92.8 0 0 0-5.16 61.683c1.48 5.424 4.42 11.602 5.55 16.02l.25 1.038c-20.99-2.119-36.02-.488-55.68 8.217 4.81-41.486 11.2-81.221 18.28-122.323 2.38-13.819 5.67-29.506 7.45-43.157zM390.788 276.139c12.62 3.651 39.81 21.133 50.932 28.949 62.255 43.753 122.311 120.745 135.289 197.029-15.609-24.072-46.217-29.224-72.171-21.135 1.363-56.185-11.816-89.032-52.999-127.644-14.256-11.733-41.375-34.093-58.781-39.577-22.238 19.087-56.888 64.417-60.459 93.443-2.467 20.051 1.472 47.744 13.712 64.607q-1.235-.636-2.483-1.246c-18.644-9.08-37.786-6.286-56.837.33.117-19.585-2.092-36.414 2.608-55.671 10.269-42.074 30.946-76.251 61.959-106.128 14.926-14.38 20.953-21.531 39.23-32.957m820.082 89.484c2.88 4.522 6.64 12.046 9.29 16.959-4.74 13.391-13.26 24.683-21.56 36.002.65 7.804 2.7 16.12 3.15 23.899 2.88 49.953 8.06 99.714 5 149.803-.67 11.07-.86 22.609-3.18 33.474-21.44-12.108-36.91-14.948-60.05-8.971l1.91-17.687c7.44-39.988 16.99-79.64 23.5-119.884 3.55-21.97 19.92-48.484 11.95-70.124-4.3-11.685-7.29-28.138.78-38.905l1.25.257c.9 4.037-1.73 7.582-2.46 11.781-1.48 8.537 2.24 23.928 11.91 25.879 3.28-.47 4.89-1.148 7.12-3.707 12.74-14.621 11.98-21.228 11.39-38.776M830.589 214.501c16.519-1.266 33.847.183 50.952-1.129-5.2 42.542-18.796 77.365-57.38 100.564-10.148 5.438-19.719 11.067-30.904 13.916.11-36.157-1.685-76.173-2.152-112.792 13.164.154 26.33-.033 39.484-.559m478.091 448.244c.45.588.89 1.175 1.34 1.762 2.03 35.145 1.23 88.064 2.8 121.062-22.13 2.225-54.51-.01-72.57 2.614-4.81.089-6.4 1.064-9.62-2.601-1.11-4.566 1.49-22.081 2.64-27.364 10.57-48.814 37.94-69.798 75.41-95.473M1206.3 211.163c13.41-.006 81.82-.652 90.08 1.634 1.29 6.454.95 19.985 1.33 27.429l3.71 80.533-.33 2.775-1.75.551c-40.73-16.557-90.58-66.968-93.04-112.922M798.241 508.647c1.147.956 6.547 9.222 7.205 10.716 6.334 14.379 26.941 31.649 42.533 35.279 1.489 36.285 1.573 72.739 3.5 109.046.287 5.415.294 10.617-.348 16.016-5.795-.345-15.02-11.18-20.464-14.457-8.218-4.949-20.334-7.392-27.607-13.278-4.144-3.354-5.209-128.83-4.819-143.322m3.203 158.639c2.58.362 4.964 1.144 7.277 2.315 39.255 19.864 58.247 43.016 73.147 82.811-11.47 7.024-14.98 6.329-26.571 16.879-4.213 3.767-10.19 11.39-13.977 15.96-5.372.742-29.167.77-33.973-.616-3.618-7.57-5.044-100.9-5.903-117.349m37.64-347.334c.055.05.118.092.164.15 3.793 4.802 4.94 103.184 5.126 117.76-23.981 12.457-31.731 20.855-46.213 43.879-3.224-25.47-2.726-58.996-3.454-85.286-.428-15.462-1.65-39.607-1.048-54.205 19.356-7.459 28.242-10.654 45.425-22.298m63.4-107.817c6.09 1.865 81.418-.351 92.748-.427 5.008 19.796 22.238 36.507 40.158 45.447q-11.82.453-23.64.723c-39.442 1.416-87.339 1.298-126.629 1.121 5.527-12.574 7.377-22.981 9.546-36.392.558-3.452-.397-6.65 1.255-9.295zM1257 314.512c14.48 9.488 26.85 19.295 43.64 24.489 3.25 13.895 2.35 28.184 2.68 42.484l1.81 65.528c.31 8.972-.22 16 .62 25.09-13.46-22.871-26.16-30.325-48.41-42.526.89-9.518-.26-21.045.02-30.651.79-26.492-2.04-58.478-.36-84.414m48.38 204.14c1.91 2.74 4.82 117.682 3.63 129.709-16.5 10.503-20.59 10.861-39.04 24.751-4.56-3.205-5.16-86.653-7.54-99.973-.49-2.737-1.09-8.508-1.67-11.674 19.69-15.499 31.5-13.639 44.62-42.813m-205.89-307.857c6.27 1.468 84.43 1.381 91.88.178 2.04 13.993 7.17 32.905 14.29 45.033-14.3.126-28.61.146-42.91.058-10.81.017-97.49 1.948-100.24.481 13.95-10.501 21.6-18.11 29.59-34.013 2.39-4.758 3.07-9.232 7.39-11.737m382.67 313.919c6.27 2.959 20.6 22.981 23.54 29.223 5.52 11.7 9.06 24.68 14.65 36.931 8 17.519 17.35 33.678 25.56 51.015-2.69 10.757-5.67 26.124-8.84 36.01 8.12 21.535 27.15 27.499 45.91 38.899-8.39 9.505-11.63 13.19-23.95 15.853-39.22-4.938-55.51-129.222-64.45-160.239-3.43-11.916-29.2-22.642-25.77-33.196 6.66.271 15.83 12.095 20.59 5.606.68-8.197-3.03-13.231-7.24-20.102M809.156 915.466c10.581 6.596 27.874 17.919 39.667 20.807 7.414 1.815 17.61 2.389 26.182 4.559 4.701 6.817 9.86 47.825 9.62 57.711-.077 3.147-1.46 3.737-3.458 5.367-7.492 2.25-16.091 5.04-23.904 4.5-41.539-2.89-49.649-61.139-48.107-92.944M280.838 244.207c3.593-.397 44.914-.291 46.736.228-53.355 33.681-78.646 63.457-100.53 121.973-2.495 6.121-6.609 22.297-9.013 29.926-3.239-16.185-7.833-31.32-10.741-48.084 9.156-24.984 11.533-41.964 28.605-63.841 9.302-11.919 30.023-37.796 44.943-40.202m858.452 88.807c6.94-.379 10.93.847 12.31 8.726 6.15 35.08-16.31 64.472-33.76 92.047-5.12-5.046-7.84-7.426-13.59-11.721-7.53-6.036-16.71-10.116-25.46-14.092 3.16-3.595 4.69-5.945 6.72-10.298 12.11-25.957 27.52-51.153 53.78-64.662M861.772 1202.6c2.488 1.13 4.496 3.65 6.751 5.37 13.361 10.24 27.915 13.26 44.252 16.26 10.234 1.89 22.316 5.71 32.698 6.78 62.937 6.49 128.277 9.55 190.577-3.55 16.39-3.48 37.4-15.11 52.25-22.55-.16 4-.67 8.78-1 12.85.08 1.92-.13 1.9-1.12 3.61-7.71 4.41-61.34 19.75-69.81 21.1-53.31 8.5-214.237 11.38-254.141-24.66-.585-5.64-1.235-9.6-.457-15.21m387.448-597.187c.51.683 1.01 1.366 1.51 2.049 1.18 24.028 3.47 57.355 3.88 80.479-5.44 5.958-11.86 13.823-16.14 20.64-8.81 14.046-9.46 7.188-23.04 9.701-2.28-3.713 1.98-67.411 3.32-74.004-2.81-7.371-3.84-17.636-2.35-25.251 3.04-15.597 16.41-.45 32.82-13.614m-336.549-203.93a61 61 0 0 1 5.826-.171c25.195.631 44.786 18.213 60.814 35.389-7.067 12.372-13.311 21.736-17.174 35.574l-.725-.023c-3.961-2.867-10.011-4.791-14.714-6.897a131.6 131.6 0 0 1-21.197-11.92c-14.559-10.097-48.853-46.495-12.83-51.952m48.877-60.696c36.684 6.489 50.972 35.348 66.202 65.477-7.63 2.5-13.37 4.391-20.77 7.648-7.213 3.932-12.332 8.217-18.3 13.762a38 38 0 0 1-1.831-1.992c-13.134-15.172-45.658-68.018-25.301-84.895m-16.503 140.764c8.457-1.022 15.631-3.639 14.12 6.919-1.822 12.729 1.17 26.263 4.524 38.594-20.442 5.997-43.625 7.171-64.171 1.204-5.746-2.807-19.922-12.151-19.24-18.133 2.601-22.796 50.577-27.534 64.767-28.584m102.285-167.642c32.93 2.24 31.4 70.603 20 89.264-2.87 1.366-8.13.746-11.58.64l-15.17.155c-5.37-28.677-26.69-70.298 6.75-90.059M459.125 242.44c12.28.29 24.267-1.44 35.063 3.852 25.093 12.302 58.853 40.538 72.231 64.892 1.784 3.247 11.901 39.566 14.518 47.066l-.239 1.009c-1.221-.37-79.366-95.478-95.781-99.146-1.192-.266-22.737-15.451-25.792-17.673M1579.43 1303.22c3.73.81 6.26.6 10.11.28 12.82-1.08 26.91 10.61 39.84 13.57 7.43 1.7 12.94 1.51 20.35 2.17.8 2.02.47 16.52 1.1 22.08-3.7 2.22-26.56 1.35-33.45 1.74l-.31.14c-13.29-.22-63.49-22.27-77.03-30.47 15.29-4.31 24.18-6.19 39.39-9.51m-534.29-596.074 3.77-.086c1.07 1.995 2.15 3.99 3.23 5.984 5.68 11.546 10.96 16.476 21.48 23.398-22.72 6.315-55.11 5.303-78.79 5.601-9.42-.837-20.031-2.796-29.475-4.339 10.694-9.382 14.84-17.543 24.108-27.421 1.319-1.405 16.537.738 20.437.883 11.88.497 23.77-.859 35.24-4.02m212.95-261.428c39.73 18.218 51.26 50.191 22.85 85.274-5.34 5.396-11.42 9.032-17.91 12.829l-1.04-.324c-1.75-10.61-.7-24.446-1.46-35.337-1.45-20.573-1.3-42.067-2.44-62.442m434.94 568.852c2.2 4.69 10.74 142.83 10.09 152.28l-12.45-.01c-3.99-.77-5.34-.26-7.54-2.84-1.2-7.23.11-20.08-.44-28.88-3.05-48.48-4.74-73.19 10.34-120.55m-17.7 246.52c9.65-.05 21.76.62 31.84.73 1.94 3.84 1.6 8.07 1.73 12.5 4.88 3.2 9.85 6.26 14.9 9.17-11.32 1.72-35.99 4.94-44.49 12.63-12.23 11.07 7.38 26.31 15.49 33.38 3.76 3.6 9.13 7.43 13.38 10.64v.87c-1.77-.11-3.17-.19-4.93.18-13.22 2.7-26.71.69-40.54 1.4 1.68-18.94.89-35.86 3.07-57.16l7.95-4.1c.39-6.83.68-13.45 1.6-20.24"/><path fill="#fff" d="M1712.89 1298.19c11.29.21 38.84 18.62 56.91 14.5 1.71-.39 1.42-.74 3.31-.1 1.71 4.82-.71 21.24-1.34 27.1-7.5 1.05-11.3 1.68-18.96 1.39-2.53.5-13.14.43-16.34.48-17.67-11.22-34.56-19-47.17-37.11 7.8-1.94 15.8-4.18 23.59-6.26M842.911 452.7l.71.305c3.223 4.289 3.911 76.656 3.814 87.038-6.157-2.652-11.225-6.009-16.591-9.953-11.911-10.305-16.052-20.845-22.606-34.81 6.599-19.34 17.429-31.575 34.673-42.58m123.857 85.953c2.602.85 3.564 2.408 3.832 4.922-2.923 4.545-11.086 8.334-14.303 11.887-15.979 17.645-26.29 37.95-27.325 61.472-8.026 1.564-14.945 3.141-23.155 3.044-4.42-3.034-7.959-6.284-7.03-12.248 3.716-23.933 22.553-42.187 42.448-54.181 8.814-5.313 17.444-8.106 25.533-14.896m278.182-13.884c3.5 3.367 2.13 59.039 5.36 71.331-7.82.89-15.51 2.052-23.36 1.599-2.97-.255-4.12-.489-7.01-1.235-1.42-2.076-1.02-47.596.45-53.201.34-1.298 5.25-.823 5.98-1.343 6.72-4.805 12.69-11.319 18.58-17.151m-176.3-314.337c4-.483 9.96-.695 11.84 3.178-.74 10.815-20.89 29.314-30.81 33.437-3.69 1.529-13-5.276-16.51-7.501-13.7-9.877-16.89-13.337-25.17-28.047 19.9-.631 40.75.324 60.65-1.067m612.95 971.728c6.04-.32 16.62-.52 22.36.49 1.04 3.03 3.34 60.3 2.67 64.51-6.11-.05-23.82.9-27.84-2.56-1.43-9.5 1.97-50.62 2.81-62.44m-578.4-523.43c5.02.945 8.13 1.092 13.25 1.349a5072 5072 0 0 1-17.71 57.87c-7.54.135-15.42.528-22.99.794-1.12.007-3.12-.329-4.31-.485-5.66-3.684-6.24-9.261-8.15-15.875 17.19-12.61 30.76-23.484 39.91-43.653m61.93-246.267c3.99.612 4.81 4.286 6.22 7.604-2.39 13.779-8.4 36.999-12.69 50.544-3.68 1.857-7.01 4.154-10.9 3.811-2.91-1.751-3.07-3.117-4.5-6.427-4.14-9.689-10.19-17.54-16.3-26.031 6.74-4.239 31.75-24.129 38.17-29.501m528.36 78.978c17.42 13.511 29.9 20.702 51.89 13.463 1.84 4.952 4.19 10.783 5.8 15.718l-9.68 4.311c-17.35 2.517-44.44-1.511-60.53-8.939 7.63-8.564 13.07-12.629 12.52-24.553m-577.68 85.527c-.06-.06 14.97 26.834 15.92 28.635-1.18 10.599-2.95 16.98-2.78 27.856-3.07 4.98-5.02 7.557-8.71 12.129-2.13-.453-6.84-.809-9.2-1.062-2.54-3.084 1.41-15.208 1.13-21.101-.74-15.109-1.47-23.005-7.5-36.811 3-3.005 7.78-6.812 11.14-9.646m152.87 588.872c.99 1.29.66.83 1.07 2.54-6.79 10.2-20.61 21.95-29.32 30.78l-63.42 63.46c-23.5 23.19-46.26 47.41-69.77 70.62-1.83 1.8-2.86 2.37-5.41 2.85l-1.58-1.8c.02-.57.05-1.15.08-1.72 29.52-30.19 59.91-59.55 90.03-89.13 26.27-25.8 51.65-52.19 78.32-77.6m5.69 14.87c1.05.99.76.86 1.38 2.3-.21 8.45-26.39 30.48-33.28 37.68-23.22 24.26-48.13 47.12-71.48 71.26-13.76 14.23-27.64 28.61-40.42 43.7-2.11.35-3.91.65-5.37.89-.78-.8-.56-.72-.96-1.91 5.11-7.35 10.24-10.72 15.62-16.71 13.52-15.05 28.38-28.7 42.8-42.94a3440 3440 0 0 0 91.71-94.27m-5.84 31.33c0 .45.05.89-.01 1.33-2.93 20.61-97.86 104.72-119.49 121.67l-.25-.71c1.57-8.43 97.41-95.65 108.87-111.52 1.38-1.92 8.74-8.84 10.88-10.77m-51.13-734.083c9.02 3.54 22.09 12.138 28.43 19.359-3.48 6.525-8.53 13.796-12.64 20.066-4.13 4.063-9.33 8.517-13.69 12.452.21-9.976-1.35-41.73-2.1-51.877m-6.14 253.046c4.59-.089 9.96.151 14.62.245-5.93 22.291-7.8 33.851-8.94 57.016-4.98-.161-10.17-.622-15.16-.991q4.365-28.197 9.48-56.27m-37.71 505.707c2.36-.15 3.19.11 5.45.54l.08 1.2c-20.95 20.63-41.9 41.3-62.87 61.9-10.67 10.5-21.49 23.79-32.41 33.58-3.2.04-2.42.52-4.25-1.14 1.07-3.59 88.12-92.87 94-96.08m-30.58 10.63.7.74c-1.82 2.99-4.19 5.35-6.6 7.87-24.74 25.94-50.88 50.5-75.16 76.89 0 0-3.25.71-3.56.78-1.67-1.27-1.65-1.12-2.47-3.04 3.03-4.02 12.8-13.25 16.77-17.19 10.18-10.11 20.3-20.27 30.37-30.49 10.48-10.66 20.62-22.29 31.39-32.64 2.09-2.01 5.68-2.48 8.56-2.92m-31.78 7.03 1.96-.09.03 1.14c-25.08 25.32-48.97 50.31-74.82 75.06-1.56-.8-2.5-1.68-3.84-2.78.8-2.51 12.62-13.38 15.5-16.26 13.14-13.18 26.22-26.43 39.22-39.75 5.07-5.28 9.98-11.13 15.07-16.32zm497.4 30.45c8.87 2.31 20.95 4.11 30.19 4.75 3.17.22 8.5-2.48 13.6-.95.98 3.49-.19 7.58-.84 11.31-1.36 2.23-2.22 4.69-5.12 4.9-10.84.77-29.89-5.85-38.21-12.18-1.34-3.22-.48-3.92.38-7.83m161.29-2.38c3.27-.35 2.49-.77 4.75.63 7.72 20.72-20.34 15.29-30.89 11.57-4.73-1.92-9.68-3.23-12.22-7.53l.51-1.89c5.53-3.1 27.95-1.8 37.85-2.78m-816.939-25.28 10.464.79c-19.689 21.13-49.093 45.51-71.004 67.39-1.718 1.57-1.583 1.47-3.872 1.95-2.878-2.17-2.075-.8-2.768-4.08 2.205-4.35 28.658-25.31 33.73-31.29 6.815-8.04 32.279-24.68 33.45-34.76m31.193.79c2.616 1.56 2.354.87 3.404 3.17-24.246 22.29-58.216 50.48-79.545 74.55-2.747-1.55-2.236-.76-3.551-3.19 4.385-7.3 70.741-68.39 79.692-74.53m21.736 4.8c2.11.61 1.11.12 2.7 2.05-.72 2.33-9.754 9.11-12.486 11.48a880 880 0 0 0-41.712 38.75c-2.453 2.4-17.649 18.24-19.174 19.17-1.906-.24-3.5-.28-5.201-1.16 3.495-7.98 66.315-64.96 75.873-70.29M886.788 729.673c8.784 2.302 40.415.364 51.721 1.5 3.399.342 6.343-1.93 10.225-.773l.137 1.217-4.041 2.139c-19.409.613-31.58 9.529-49.91 13.368-2.814-7.247-4.303-10.726-8.132-17.451m776.532-302.021 1.1-.551c7.47 17.67 8.68 37.364 21.66 53.804 1.97 2.493 5.98 8.009 7.41 10.536-7.64-1.945-19.88-12.643-23.94-19.91-8.46-15.148-7.52-27.577-6.23-43.879M935.551 1255.6c2.304-.25 1.599-.16 3.986.43-.122.9-58.972 55.12-64.811 59.86-2.182-1.14-2.136-.97-3.328-3.1.635-2.29 6.71-8.13 8.626-9.48 9.992-7.01 46.625-46.17 55.527-47.71m-75.526-109.35c2.341 1.4 1.558.42 2.383 3.06-3.239 16.77-55.724 54.49-69.272 68.5-1.991 2.06-7.297 6.01-9.775 7.83-.829-.93-3.803-3.91-2.447-4.89 12.084-9.3 26.621-19.89 37.395-30.55 11.831-11.71 37.894-28.8 41.716-43.95m-20.111.72c3.072-.07 3.563-.09 6.545.53-8.614 13.2-55.959 50.7-69.84 61.48l-.586.56-1.818-.1-1.702-2.21c.655-4.77 24.87-19.79 30.562-24.69 13.424-11.57 24.387-23.41 36.839-35.57m417.726 6.14c.75.56 2.32 2.4 3.04 3.19-.37 3.69-53.26 53.56-60.9 60.87-.69.56-.19.26-1.72.34-1.17-9.58 10.47-15.27 16.86-21.85 14.01-14.44 29.21-27.6 42.72-42.55m-351.419 93.66c2.951.85 9.57 4.05 12.637 5.44-9.676 6.29-47.701 42.59-56.119 51.88l-1.95 2.25c-2.728-.86-1.57-.05-3.181-3.02 1.011-8.56 41.863-36.55 49.234-50.14-.367-2.01-.577-2.97-.608-5.02zm331.029-101.25c3.36.55 6.08.53 8.45 2.75-1.01 2.81-37.48 36.54-42.37 41.12-2.49 2.85-1.68 2.76-4.77 3.78l-.85-1.74c2.5-13.79 27.77-29.35 39.54-45.91m-383.492 33.36c.453 2.82-4.092 15.71-5.257 18.76-9.876-6.3-9.959.83-16.952 5.69-10.301 7.18-29.767 29.69-39.767 33.75-1.274-.23-1.34-.61-2.557-1.59.397-2.82 57.953-49.93 64.533-56.61M189.219 245.473c3.048-.639 7.436-.788 10.646-1.004 6.816 6.725 22.742 17.314 28.457 25.899.763 1.146-.491 2.778-1.285 4.462l-2.335 1.473c-5.275-1.026-29.94-25.606-35.483-30.83M1012.72 1278.93l.69 1.37c-.99 2.95-3.41 5.68-5.71 7.73-15.969 14.28-31.456 28.87-46.43 44.17-.79.8-4.6 1.4-5.829 1.58l-1.013-1.8c4.837-8.64 48.552-45.32 58.292-53.05m68.18-22.26c.78.23 2.35.98 3.17 1.34-.07.28-48.54 51.02-54.08 57.06l-.8.39-1.08-1.52c1.43-8.32 42.57-49.68 52.79-57.27m-267.537-105.93c2.922.1 3.466-.42 5.29 1.02-3.032 3.86-19.974 22.38-23.013 21.95-12.3-1.76-11.731 7.1-23.693 12.51.897-6.08 8.244-22.74 14.84-22.83-1.49 2.03-1.457 1.88-2.092 4.3 5.308 9.37 21.614-13.24 28.668-16.95m34.392 51.01c.537 2.26.929 9.28-.997 10.46-12.491 7.62-35.476 33.91-46.283 39.39l-1.316-2.71c2.397-10.18 40.665-33.78 48.596-47.14m45.651 41.94c3.21 1.31 3.347.77 5.124 3.12-16.516 15.39-35.18 31.62-50.778 47.55l-.584.09c-2.85-1.21-1.68-.32-3.595-2.83 3.557-4.01 15.192-14.13 19.643-18.04 11.746-10.33 19.713-18.27 30.19-29.89M187.543 254.457c5.939 3.631 24.888 21.657 28.789 28.101 1.848 3.051 1.295 2.536.434 5.962l-1.93.838c-4.062-1.887-14.393-15.535-24.248-22.001zm662.101 968.173c2.16.56 2.047.67 3.773 2.14-.844 3.25-35.079 33.7-39.811 38.04-1.504-.05-1.018-.17-2.668-1.35-.194-5.55 31.911-30.87 38.706-38.83m14.559 9.83c.716.69 1.714 1.93 2.398 2.72-.446 2.17-36.737 33.93-41.869 38.84-1.965-2.55-1.782-1.62-2.209-4.49 13.78-12.62 28.275-23.99 41.68-37.07m13.199 8.28c1.24.33 1.135.47 2.254 1.27-2.12 6.18-39.381 33.53-43.554 43.62-2.207-1.93-2.406-2.07-3.931-4.53 1.599-1.93 10.053-8.72 12.706-11.08zm135.388 60.25c4.2 4.75-18.874 23.49-22.722 26.88-4.182 3.69-5.94 4.83-11.63 4.72l-.564-1.45c7.616-7.85 26.066-22.74 34.916-30.15m130.26-762.63 1.39 1.196c1.23 3.673-4.52 28.795-6.36 30.471l-4.02-2.549c-1.85-.905-2.82-1.583-4.49-2.704-.73-5.846 6.78-11.769 9.53-16.921 1.64-3.054 2.77-6.266 3.95-9.493m73.21-80.18c8.99 2.958 27.21 10.245 28.6 21.168-4.13-1.311-22.08-10.75-26.8-13.207-.39-3.183-.55-4.209-1.56-7.265zM527.02 242.34c4.319-.262 9.736-.21 14.151-.293 5.645 5.589 7.916 7.558 14.435 12.066.693 2.792 2.392 7.638 3.315 10.532-7.011-3.227-22.783-17.018-31.901-22.305m-334.659 36.174c3.403 2.732 14.961 14.945 17.187 19.073 1.322 2.451-.437 5.199-1.513 7.853l-1.223.952c-7.64-3.397-13.274-19.84-14.451-27.878M1215.16 1144.03l6.73 1.4-.04 1.01c-4.19 5-14.87 13.84-20.39 18.83l-1.69 1.2c-1.79-1.21-1.31-1.36-2.09-4.06 1.36-6.35 12.59-12.44 17.48-18.38M212.905 244.439c11.183-1.242 16.427 4.309 23.729 12.746 1.385 1.601.7 1.961.26 4.166-.862.214-2.315.27-3.257.349-4.992-3.137-19.118-12.269-20.732-17.261M1056.86 1259.27c-.8 4.36-22.55 27.73-27.31 31.44-.97-8.71 18.45-29.3 27.31-31.44M530.601 252.714c6.05 2.441 21.569 17.129 27.666 22.382 1.633 3.8 2.078 6.222 3.01 10.199-7.541-6.359-21.665-22.214-29.91-29.42zm668.959 110.013a42.6 42.6 0 0 1-6.25 30.822c-2.66-11.119-.01-21.466 6.25-30.822M241.125 242.923q6.27.831 12.51 1.856l-8.95 8.26c-2.838-1.845-7.787-4.519-9.257-7.249 1.338-2.342 2.1-1.808 5.697-2.867"/><path fill="#fff" d="M509.71 242.471c8.553-1.398 19.28 4.961 21.677 12.839-2.202-.597-18.1-10.798-21.677-12.839m512.23 1018.779c3.3-.22 5.85-.69 8.96.31.28 2.76-.49 2.57-2.86 5.6l-3.38 3.25-1.19-.38c-.37-3.34-.8-5.49-1.53-8.78m-7.04 60.71c-.22 3.11-.32 4.75-.95 7.77-3.33 2.07-4.25 1.43-8.52 1.59l-.73-.99c2.42-3.36 6.7-5.91 10.2-8.37"/><path fill="#6d6b6f" d="m1151.02 501.988 1.81-1.867c-1.06 8.461-1.76 16.018-4.18 24.229l-.55.062c.66-8.713 1.83-14.153 2.92-22.424"/><path fill="#fff" d="M1151.02 501.988c-.18-3.141-.85-7.871 1.54-10.257 1.44 3.065.65 4.615.27 8.39z"/></svg>