<svg xmlns="http://www.w3.org/2000/svg" preserveAspectRatio="xMidYMid meet" viewBox="0 0 2048 1152"><path d="M1003.75 57.454c2.7-.535 12.72-.553 16.01-.51 45.65.611 83.97 13.757 116.02 47.118 39.85 41.469 46.13 90.275 45.11 144.962 2.93 2.598 7.16 5.796 10.35 8.144 19.09 14.036 36.49 31.524 55.61 45.328 33.93-20.79 95.98-58.553 114.43 2.109 36.32-37.102 66.26-59.439 115.81-80.924 54.43-23.603 127.37-35.07 185.2-15.554 7.72 2.672 21.19 11.397 23.53 19.922 12.86 46.714-74.76 75.393-102.23 85.895 64.72.272 165.1 1.442 223.34 35.108 8.69 5.462 17.73 15.102 19.52 25.443 4.64 26.834-28.14 41.34-48.74 48.379-9.2 3.145-20.44 6.366-30 8.285-45.16 9.06-91 15.271-136.79 20.057-35 3.73-69.69 8.68-104.81 11.157-10.61.747-21.16 1.738-31.78 2.327-9.6.713-20.4.855-29.82 2.401l-1.13.192c30.6 25.925 61.59 55.43 91.64 82.395a29488 29488 0 0 0 233.49 209.092 233 233 0 0 1 76.77-17.435c107.17-6.248 185.22 62.117 175.69 171.666-.87 10.016-3.3 30.321-10.22 37.562-5.96 6.236-29.52 3.133-38.44 4.091-21.97.332-42.66.091-64.53-.096-28.99.289-57.91.219-86.91.237l-345.83.123c-44.01.286-88.03-.241-132.03 1.108 38.12 29.177 73.66 56.734 113.2 84.354l53.84 37.28c8.92 6.04 31.57 18.14 34.6 27.62-2.44 13.2-19.3.85-25.17-2.94-84.72-54.8-163.88-116.614-241.95-180.351a1877 1877 0 0 1-58.53-49.371c-9.69-8.42-21.2-18.235-31.12-26.55-1.86-1.559-7.33.893-11.29.888-10-.015-6.8-14.268-11.17-18.855-2.29 1.48-8.12 10.535-10.11 13.354 11.57 8.367 83.87 67.329 85.98 77.133.75 3.474-5.58 9.668-7.48 12.808 9.79.193 23.03-.38 30.71 6.191 36.68 31.354 74.83 60.981 111.66 92.073 5.49 4.64 4.09 17.04 3.89 23.6 5.23-2.14 16.16-7.1 22.52-2.52 19.86 14.31 39.5 29.48 59.89 43.07 4.05 2.7 9.98 6.56 12.61 10.14l-.6 2.14c-2.63 1.97-5.94 2.02-9.45 1.98-27.98-.32-56.1-.32-84.05-.32l-185.68.18-598.509.74-93.84.07c-9.722.07-47.714 1-55.581-.76l-.82-1.5c1.117-5.48 19.078-19.22 24.189-23.54a1662 1662 0 0 1 47.446-38.76c14.637-11.61 29.212-23.53 43.969-35 8.947-6.95 13.941-4.72 25.079-2.88-1.171-4.41-2.073-9.241-3.002-13.739a80 80 0 0 1 4.103-5.08c5.9-6.661 15.701-13.822 22.97-18.866 20.924-14.519 32.745-22.437 58.657-24.09-10.269-11.151-13.188-16.567.336-26.612 12.606-9.364 25.216-18.984 38.106-28.125a3195 3195 0 0 1 150.035-101.927c5.979-3.8 25.712-14.751 30.59-20.607.733-.88-.149-8.877-1.309-11.568-3.134-.69-32.148 16.631-36.756 19.137-128.817 70.059-237.821 166.852-350.206 259.527-14.409 11.89-91.398 81.82-104.351 74.32l-.12-2.13c5.69-13.02 157.02-135.02 177.735-153.115-9.264-.604-23.438.073-33.026.139l-60.84.028-215.073-.026-142.936.128c-30.69.099-61.888.317-92.607-.348-2.604-.056-11.54-.892-12.839-2.718-3.684-5.184-3.253-16.516-2.823-22.517 5.595-78.046 46.46-157.356 105.175-208.525 56.544-49.278 126.338-90.917 203.616-85.689 57.132 3.865 94.052 24.183 131.327 65.617l102.79-101.632c21.421-20.827 45.331-43.032 65.923-64.469-81.842.455-166.538 2.138-247.939-5.782-44.777-4.356-130.165-10.637-154.717-51.989-1.191-24.214 11.476-33.724 32.365-43.237 41.471-18.887 87.456-17.21 132.102-19.755-33.053-8.908-120.758-13.178-142.61-26.211-2.87-1.712-5.371-4.076-5.982-7.526-.401-2.269.604-4.639 1.953-6.416 22.652-29.843 189.411-43.287 228.736-45.175a1025 1025 0 0 1 43.302-1.224c9.54-.066 27.283.164 36.129-1.204l.968-.156c-48.232-9.567-161.634-16.341-199.92-39.234-5.851-3.499-12.94-9.211-14.383-16.308-.776-3.822-.085-7.337 2.066-10.598 10.144-15.374 50.936-23.929 68.167-27.293a547 547 0 0 1 62.854-8.524c44.926-3.036 212.397-4.73 246.935 19.013 5.255 3.612 10.961 8.947 12.056 15.535 1.223 7.362-2.342 12.576-6.368 18.359 14.038-1.787 34.737-7.375 49.899-9.852 31.401-5.128 50.779-4.386 81.942-3.271-16.411-53.15-1.837-100.979 32.935-142.764a176.86 176.86 0 0 1 120.542-62.357"/><path fill="#fefefe" d="M1207.95 311.726c3.12.265 7.5.199 10.44 1.472 44.95 19.453 78.02 50.608 116.34 79.969 57.82 44.296 110.06 92.063 164.08 140.977a16562 16562 0 0 0 160.64 144.608c30.99 27.436 64.91 60.128 96.78 85.645-21.38 9.221-44.14 24.912-62.55 39.006a267.1 267.1 0 0 0-95.04-47.858c-81.69-21.923-141.08-1.966-212.07 38.893-46.28 28.585-82.8 61.481-118.63 102.525-24.34-21.297-52.91-45.244-76.18-67.341 2.6-16.166.47-30.252.85-46.148.67-27.85 3.9-59.179-28.7-70.584-6.54-2.287-15.81-3.698-21.04-8.396l-.04-1.925c4.86-6.141 28.15-3.586 30.41-16.825-1.31-10.465-15.28-9.377-22.8-9.252 12.93-6.981 8.58-17.242 12.46-18.723 30.53-11.639 81.34-20.986 98.03-50.868 6.74-14.154-12.2-32.778-21.13-41.075-44.27-41.126-84.95-83.891-114.7-136.983-11.45-20.435-20.84-40.826-30.55-62.338 13.09-13.94 12.85-32.71 23.72-46.341 20.75-24.49 41.8 18.528 54.54 31.137 6.11 6.037 14.41 15.611 21.95 18.771 28.94 12.13 13.41-43.526 13.2-57.265z"/><path d="M1442.05 656.646c9.26.285 69.33 51.316 69.98 57.86l-4.38 3.54c5.84 5.812 26.39 4.949 18.52 18.398-12.15-.933-20.17-3.86-23.86-15.272-.1-.308-14.43-7.758-16.38-9.056-4.53-2.999-1.64-4.459-5.35-7.461-4.59-3.34-14.99-5.791-16.95-11.689.81-.948 3.16-3.164 2.33-4.173-7.78-9.44-34.08-16.647-23.91-32.147m-90.22-165.67c12.94-.163 23.9 12.616 34.71 19.284 8.25 5.094 15.22 7.698 18.14 17.516.37 1.26 16.17 3.704 16.35 11.71-2.5 2.073-3.27 2.019-6.55 2.423l-1.3-1.253-2.47 1.008c-3.6-.12-15.54-3.242-16.36-5.791-3.41-10.651-21.54-11.278-23.99-18.915l1.66-2.784c-2.85-4.071-18.79-7.052-22.81-16.787.15-3.877.17-2.81 2.62-6.411m226.88 204.491c9.76 1.998 31.54 17.288 37.8 26.636 5.74 2.51 12.92 4.953 16.64 9.855.43 3.137.71 1.829-1.59 4.953-6.88-.69-20.04-1.423-26.11-4.742-.68-1.969-1.08-3.383-1.58-5.408-4.71-1.868-10.55-4.121-14.04-7.702-3.11-11.854-13.76-7.465-15.95-16.881.81-3.469 2.24-4.368 4.83-6.711M1175.3 394.403c9.27 1.418 21.46 16.998 26.86 24.67 1.29 1.835-.62 4.7-1.48 6.371 3.44 2.891 6.22.581 10.09 4.641 1.54 3.961 1.12 2.738-.01 7.45-3.51.703-7.14 1.906-10.3.439-4.93-4.076-24.32-28.294-27.17-35.555-1.28-3.276.48-5.471 2.01-8.016m114.24 263.051c5.14.989 8 4.257 11.26 8.042 6.5 7.542 13.79 13.106 21.66 19.021.76 3.344.84 1.919-1.26 5.749-8.2.125-12.83 2.826-17.85-4.774-5.75-8.718-15.92-17.152-13.81-28.038"/><path d="M1317.09 690.598c6.11-.046 20.29 5.199 22.27 11.134l-1.49 2.942c-8.78 2.053-25.06-2.31-20.78-14.076m104.53-146.735c4.75 1.305 12.01 2.631 14.15 7.475-.46 3.807.27 2.386-3.1 5.211-5.01-.33-14.16-4.551-13.71-10.545zm224.62 205.944c5.13.406 13.06 3.108 12.91 9.181l-2.17 1.932c-5.11-.853-13.69-2.472-16.01-7.347 1.57-2.817 1.87-2.259 5.27-3.766m-307.26-36.779c5.25-.051 10.01.063 13.65 4.389.76 3.473.79 2.019-.89 5.892-6-.358-13.45-.701-14.42-8.215zm20.07 19.53c6.46-.071 13.56 5.36 13.56 12.027-7.87.142-13.11-4.179-13.56-12.027m-151.41-290.5c4.01-.514 8-.414 11.48 1.737 2.18 3.603 1.7 2.14.93 6.902-4.38-.904-9.68-2.955-12.72-6.361z"/><path fill="#fefefe" d="M895.13 308.1c1.545-.158 6.982-.664 6.745 1.77-1.689 18.807-3.674 56.824 23.758 57.323 23.916.435 50.285-31.266 67.327-46 15.16-13.985 27.87-13.228 35.83 7.147 10.23 26.196 18.39 41.722 48.02 45.524 13.52 38.751 38.8 85.37 63.91 118.78 23.82 32.159 58.72 62.678 75.04 99.516 9.72 21.948-64.8 32.486-77.66 35.463a955 955 0 0 0-44.26 10.959c2.13-12.325 4.55-32.17 5.42-44.548 11.25-6.469 19.74-15.266 18.13-29.593-.33-2.96-1.65-8.016-4.48-9.451-5.53-2.802-2.88-9.573-4.41-14.54-.96-3.227-1.76-3.3-4.44-4.705-13.06-.655-13.54 8.063-15.64 17.918-2.7 1.05-9.8 3.379-11.59 4.892-12.55 10.623-24.15 34.289-32.48 49.005-8.82-12.722-14.82-25.007-26.56-35.664-19.285-17.499-28.794-19.417-53.178-18.837q1.596-1.443 3.138-2.943c10.856-10.608 14.148-25.429 14.323-40.065 8.878-1.719 24.007-3.438 26.787-13.852-3.12-14.215-27.128-11.19-37.582-10.545-9.739-8.709-23.231-22.788-37.714-12.286-5.463 3.961-7.353 10.432-8.839 16.75.878 4.452 2.115 7.577 3.67 11.844-9.551 17.621-10.674 25.067 3.689 39.182l-3.674 12.611c-6.869.879-12.156 1.727-18.845 3.94-19.133 6.329-33.385 33.102-41.343 50.805-11.525 30.13-55.298 97.516 15.271 82.329l.889.672c-.005 7.074-.219 17.101.227 23.868 2.251 34.168 6.6 27.309-22.044 42.74A1065 1065 0 0 0 794.74 797.6c-14.132 9.018-31.27 21.368-45.32 29.295-58.529-97.816-161.237-136.37-263.276-77.167-1.492-2.182-2.838-4.764-3.973-7.161-5.841-12.33-12.905-22.995-20.734-34.103 36.059-33.539 72.366-70.545 107.589-105.251a13874 13874 0 0 0 147.017-145.635l75.308-77.436c10.765-11.009 25.895-27.906 37.478-37.159 17.417-13.913 44.796-28.819 66.301-34.883"/><path d="M810.468 530.962c2.074-.016 3.993.318 6.042.603 10.675 10.047-22.448 39.9-28.571 46.925 1.875 2.562 2.227 2.81 2.973 5.809-2.586 6.027-14.418 15.61-18.302 21.2-10.038 14.451-21.009 25.079-34.052 36.692-6.794 6.049-6.314 12.455-16.591 14.494-1.76-.611-2.465-1.466-3.831-2.713-1.403-6.706 12.188-15.84 16.775-20.562 2.067-2.128 23.881-24.451 23.758-25.525-.177-1.557-2.673-3.742-2.794-5.323-.263-3.418 12.326-12.112 14.656-15.59 2.351-3.511-2.319-4.425-.187-8.405 3.629-6.776 19.039-18.267 20.406-22.7.393-1.271-1.007-3.226-.461-5 2.133-6.923 14.082-16.378 20.179-19.905m-104.212 14.749c3.629-.184 4.403.513 5.848 3.272-.746 12.315-29.325 34.397-38.718 41.866-7.69 6.114-6.972 10.738-15.029 17.328-2.379-.298-2.744-.724-4.835-2.047-2.436-7.851 6.224-10.633 12.048-13.649l-1.269-3.434c3.975-9.301 9.716-7.136 11.296-9.136 10.443-13.229 17.155-23.702 30.659-34.2m293.46-154.102c2.004.081 3.294.357 5.274.719l1.43 2.247c.7 7.321-5.05 14.57-8.411 20.65-1.955 3.53-4.034 4.069-7.597 5.606-3.602-2.401-3.469-1.547-5.017-5.01 1.451-4.602 9.07-6.879 9.348-8.646 1.442-9.172-1.914-7.026 4.973-15.566m-288.16 268c3.356.556 4.247 2.205 5.437 4.918-.557 6.793-5.978 11.629-12.05 13.892-3.493-2.028-4.086-2.885-5.128-6.021 1.157-5.76 7.013-9.188 11.741-12.789m266.061-238.15c3.257.162 6.748.17 9.114 2.403.696 4.199-1.152 7.284-2.565 11.964-1.574.117-2.306-.099-3.86-.327-6.296-4.505-5.96-8.016-2.689-14.04M647.62 608.821l2.298 1.857.134 2.185c-1.736 3.705-6.638 7.048-9.971 9.732-3.283-2.582-3.702-3.182-3.199-7.019 2.29-3.22 7.047-4.991 10.738-6.755M970.343 444.71c1.77.007 2.405.376 4.024 1.001l.548 2.163c-1.217 3.637-3.794 5.984-6.391 8.832-3.459-1.422-4.041-2.327-4.46-5.692 1.555-3.53 3.131-4.222 6.279-6.304"/><path fill="#fefefe" d="M504.252 232.543c3.112.866 48.903-.176 56.209.039 34.578.736 69.094 3.258 103.412 7.555 19.134 2.514 37.607 5.373 49.929 21.434-21.536 28.512-37.788 19.741-63.993 35.705-1.309.798-.987 1.712-1.043 3.22 4.973 5.88 24.907-.54 31.871-2.553 69.047-19.959 121.627-28.771 194.088-22.153-16.034 16.019-27.959 28.87-43.095 45.665-12.008-.516-40.201-1.59-49.713 4.452l.02 1.986c6.882 5.515 30.934 4.415 40.497 4.672a4794 4794 0 0 1-113.578 116.19c-23.75 23.89-48.176 49.644-73.239 72.105-7.193.713-20.097.27-27.68.22l-48.155-.265c-80.277-.281-158.475-.065-238.036-12.419-157.407-26.848-75.317-80.297 24.74-81.731 15.56-.223 81.499 1.06 91.505-5.333 1.545-2.295 1.181-3.151.989-6.104-1.658-2.921-2.587-4.038-6.192-5.346-11.811-4.172-24.774-6.038-37.107-8.203-38.063-6.683-76.536-10.817-114.679-17.02-11.079-1.801-21.223-2.977-31.871-6.722 41.523-27.869 192.694-38.166 246.246-39.707 25.783-.49 51.603-.23 77.386-.968 6.015-.173 11.036-.304 15.246-4.863 5.17-16.551-66.683-23.624-78.586-25.337a2874 2874 0 0 1-91.486-13.868c-14.956-2.622-66.39-12.189-72.436-25.028-.037-1.804-.38-3.77 1.204-4.841 37.396-25.293 117.392-28.938 157.547-30.782M1587.9 210.549c18.89-1.941 43.01 1.286 61.27 6.409 8.89 2.494 31.71 13.943 24.95 26.196-21.96 39.403-76.97 50.642-116.72 63.404-9.47 3.038-30.35 4.54-33.31 14.269 2.55 5.255 10.28 6.062 15.54 6.617 21.94 2.316 45.1.37 67.22.663 51.55.681 148.68 5.65 192.25 33.713 5.41 3.487 12.09 8.057 13.26 14.904.66 3.799-.56 7.771-2.85 10.813-26.61 35.456-188.55 46.823-238.47 53.613a2320 2320 0 0 1-86.69 8.589c-15.59 1.251-40.3 2.182-54.97 4.509-3.14-2.061-13.42-11.301-16.72-14.124a1285 1285 0 0 0-32.15-26.81c-38.6-30.95-89.95-67.98-124.62-102.632 23.6-12.66 73.31-48.737 91.24-9.431 3.42 7.507-1.28 23.409 6.78 26.511 5.97-.708 17.16-15.603 21.63-20.522 9.35-10.284 19.1-18.395 29.86-27.052a313.17 313.17 0 0 1 182.5-69.639M1010.81 69.43l1.57-.136c43.9-.602 79.4 9.02 111.47 39.949 37.5 36.169 45.1 82.159 45.55 132.176-30.47-21.133-101.34-80.239-133.17-87.672-12-2.802-23.54 1.375-33.68 7.661-17.994 11.25-38.393 30.89-54.24 45.612a2685 2685 0 0 1-62.946 57.349c-7.021-.633-14.286-.611-21.35-.721-18.946-46.663-4.672-96.709 27.164-133.666 32.993-38.3 69.807-56.053 119.632-60.552m-64.737 505.813c1.059-.198 2.864-.494 3.918-.457 45.402 1.593 53.809 79.605 52.829 113.729-15.043 2.959-37.239 4.799-52.568 6.227-16.091 1.337-36.57 3.123-52.47 3.198-1.235-9.769.183-22.831 1.08-32.803 3.133-34.845 4.251-81.724 47.211-89.894M986.88 909.98c24.68.16 164.98 20.587 165.05 47.516-2.95 5.466-15.52 6.837-21.56 7.557-30.38 3.623-60.96 4.656-91.43 7.612a1206 1206 0 0 0-166.805 27.665c-22.406 5.45-48.904 11.85-69.24 22.76 23.525 2.52 70.733-2.29 97.161-2.97 91.466-2.59 183.684-3.91 273.724 14.97 9.53 2 47.43 9.23 49.37 19.95-.41.83-.76 1.58-1.45 2.22-6.45 5.97-61.1 4.9-73.46 5.35a2294 2294 0 0 0-234.007 19.08c-44.365 5.73-96.641 18.51-139.482 18.4l-2.663-.56c3.914-2.18 10.528-2.81 14.998-3.77 124.615-26.88 252.584-36.97 379.834-40.17 16.68-.42 33.77-.32 50.45-1.32-127.39-43.28-281.441-24.45-414.174-23.72-4.752.03-9.766-.54-13.14-4.14-.263-9.51 35.72-20.58 43.675-23.11 65.535-20.8 135.108-30.352 203.329-37.353 35.87-3.681 72.97-3.504 108.44-9.521-28.8-22.247-81.05-28.731-116.13-35.31-13.28-2.492-32.741-1.975-42.49-11.136m12.541-209.603c1.569-.428 2.809-.159 4.439.004 4.94 3.905 22.6 61.254 26.3 71.683-15.4 5.941-29.7 11.709-46.13 13.568-3.048-9.224-12.891-32.501-17.513-40.888-5.941-4.157-10.208-6.39-17.386-6.281l-1.007 1.364c2.27 4.073 2.298 3.194 6.82 5.946.187 6.148-.501 13.701-.863 19.978.082 7.138-.84 17.018-1.374 24.243-15.957-.188-34.138 1.352-50.503 1.79-1.349-27.528-6.315-54.519-6.997-83.184a930 930 0 0 0 104.214-8.223m114.709-23.973c20.08.144 11.25 5.781 28.29 10.657 2.1.601 12.81-.119 15.74-.288-10.01 4.673-12.98 2.877-24.07 3.717-4.33 4.435-3.03 8.143-1.2 13.461 7.24 20.703 33.31 13.935 43.81 32.07 6.99 11.48 5.9 24.279 5.29 37.362-.92 19.842 1.89 41.044-2.23 60.593-.28 1.334-.2.831-1.39 1.563-4.01-16.072-1.91-35.342-6.52-51.457-1.04-3.652-5.48-8.23-9.58-6.523-3.07 6.362 4.23 24.956 4.05 34.13l-1.14.96-2.14-.962c-4.35-13.007-12.18-36.603-9.98-48.7 2.98-16.356-23.69-37.242-30.73-28.028 12.82 17.488 25.41 12.87 19.02 41.444-1.14 3.628-2.11 6.698-2.57 10.484-.98 7.984 3.22 32.384-1.84 38.254l-2.29-.359c-2.35-13.28-4.79-57.553-16.06-63.842-10.16 7.77 12.72 71.206 3.43 74.777-1.87-1.38-3.47-3.061-3.69-5.529-1.64-18.286-4.81-36.335-10.36-53.889-3.33-10.543-7.19-21.172-6.8-32.486.73-21.117 19.23-43.451 12.75-64.909l-1.53-.766c-3.45 3.107-19.29 50.259-21 57.606-5.12-3.81-7.76-6.01-12.47-10.339 3.62-14.29 4.05-29.195 7.71-42.171 6.18-2.142 20.28-4.98 27.5-6.83M948.579 798.64c1.715-.405 1.646-.282 3.345.287 3.071 15.971-7.985 103.185-11.191 121.211-4.757.264-27.044.319-30.18-1.38 2.023-33.591-3.619-85.392-6.891-119.745 12.539 1.3 32.04.291 44.917-.373m81.461-18.659.83.005c2.34 1.866 3 10.023 3.62 13.643-14.57 31.528-22.34 51.162-39.615 82.969-6.463-1.672-11.786-3.061-18.108-5.265-3.336-1.503-7.636-2.939-11.147-4.214 8.356-19.256 17.458-38.879 24.363-58.677 1.427-4.09-.417-9.064.976-12.802 1.224-3.285 33.541-13.191 39.081-15.659"/><path fill="#fefefe" d="M973.79 563.217c8.268-.441 12.341-.889 20.064 2.813 21.646 10.376 33.346 32.754 44.206 52.57-3.34 6.933-5.83 10.464-10.67 16.192-2.55 2.664-6.9 6.804-10.39 7.904-11.28-8.101-12.91-37.596-22.372-50.909-6.944-9.774-12.619-12.813-20.435-21.492-1.66-1.844-.784-4.653-.403-7.078m101.76 11.51c.37 6.602.51 8.889 4.46 14.131-2.58 14.265-7.56 33.317-12.07 47.069-4.21 9.994-9.46 21.123-19.86 25.872-6.6 3.02-10.22.911-16.46-1.488-3.64-2.513-7.94-8.083-10.93-11.619 16.36-11.388 29.11-29.85 38.7-47.096 5.27-9.484 9.36-18.336 16.16-26.869m-154.487-10.594c2.577-.231 2.457-.225 4.95.505 3.968 6.53-11.932 14.056-17.771 22.405-12.559 17.959-16.405 33.168-18.406 54.389-3.084-.858-6.061-1.88-9.097-2.889-3.999-1.588-8.026-4.103-11.776-6.292 3.788-11.117 11.914-28.975 17.837-38.741 9.502-15.663 16.279-24.681 34.263-29.377m165.457 42.618c.69 7.549-3.01 29.26-4.09 37.462-4.19 31.677-10.1 63.351-15.14 94.816-5.47 34.181-9.86 68.644-16.22 102.762-2.74 14.719-4.6 32.106-8.46 46.294-.8-.659-1.6-1.226-2.09-2.155-1.26-2.354 33.26-219.358 37.71-243.752 2.18-11.951 5.18-23.693 8.29-35.427m-220.698 32.074c9.852 6.51 11.106 6.861 22.732 7.988-.781 10.169.939 22.444-3.609 31.483-1.019 2.025-6.26 3.47-8.559 4.218-36.631 8.241-16.738-27.274-10.564-43.689m29.813 216.091c1.137.065 1.502.366 2.629.813 2.567 10.132-34.784 20.14-38.181 30.786 8.779 7.198 38.111 4.413 39.978 13.972l-1.065 1.219-2.233-.125c-9.812-.913-38.862-4.998-45.186-11.872-1.656-4.837-.286-7.613 3.798-10.666 11.997-8.965 27.245-16.951 40.26-24.127m62.603 36.46 19.727 9.509-5.983 8.075c3.757 4.895 14.745 12.77 14.238 17.77-14.096 4.216-24.425-12.454-33.881-21.75 1.348-4.441 3.876-9.35 5.899-13.604m-19.72-389.721c11.497-.986 7.909 3.472 19.323 8.892l.945.441c-3.568 7.583-6.437 13.466-11.538 20.129-4.039 2.734-11.879 1.281-14.009-2.652-3.965-7.32 3.576-18.109 5.279-26.81m160.922 59.762c4.77-.129 5.64.002 7.82 3.893.49 3.892-1.43 8.743-2.63 12.622-4.14 3.972-5.17 4.84-10.12 7.665l-4.58-.698c-2.65-1.69-3.79-4.039-4.5-6.985-3.05-12.611 5.2-13.901 14.01-16.497m-131.934-42.271 2.674 1.08c2.147 7.974-6.407 23.942-13.17 28.401-4.591 3.027-6.936 2.458-11.825 1.515-1.756-.888-2.724-1.512-4.369-2.598.211-3.306-.187-2.008 1.771-4.931 22.199-3.747 12.732-15.889 24.919-23.467M917.321 942.85c6.201.679 11.999.906 18.217 1.182 1.041 4.928 2.394 9.868.209 14.571-5.74.302-13.132-.084-18.993-.225zm61.633-449.304c8.144.238 13.67.577 21.756 1.448-9.047 4.408-16.981 5.3-26.501 8.19-3.297 1.639-15.569-.205-16.03-5.602 4.788-4.634 14.083-3.868 20.775-4.036m-32.898-16.471c5.896 2.011 9.623 6.654 13.695 11.149-3.933 1.459-8.8 2.817-12.871 4.071-3.696.816-5.299 1.299-9.109 1.197-3.088-1.796-2.11-.721-3.578-4.174.715-7.137 5.705-10.264 11.863-12.243m131.324 263.258c8.75 4.545 15.39 16.238 16.91 25.826l-1.19 1.103c-5.99-5.126-12.19-10.192-18.26-15.238zM960.713 876.334c2.943.677 19.639 7.448 23.264 8.84l.389.981-2.237 4.349c-.643.552-2.034 1.447-2.79 1.969-6.42-.943-10.541-2.983-15.375-7.376-3.758-3.414-2.988-3.862-3.251-8.763m-24.379-318.811c10.794 1.919 15.163-.046 23.653 1.391 2.73 2.294 1.885 2.153 2.412 6.845-8.526-.371-16.545 1.034-24.03-.967-2.475-2.671-1.691-2.709-2.035-7.269m123.386 135.421.39.45c1.28 4.851-1.73 16.164-3.82 20.841l-2.11-.467c-2.87-2.902-5.14-6.547-7.43-9.947 5.55-3.813 8.58-5.595 12.97-10.877M915.077 928.486c6.984.973 13.429-.025 19.873 1.577 1.333.332 1.621 3.5 1.99 5.188-3.991 1.707-15.29 2.719-19.194.104-1.991-1.333-2.127-4.514-2.669-6.869m120.183-214.019c4.81 1.179 16.8 9.355 19.46 13.944 1.33 2.279.44 3.537-.21 6.31-4.58-2.688-10.93-7.817-14.61-11.593-4.02-4.123-4.55-3.758-4.64-8.661m-22.4-61.57c2.55 1.773 11.19 9.854 11.42 12.97l-2.49 1.217c-4.42 1.154-4.43 1.928-8.08.708-3.77-4.617-3.4-7.158-3.21-13.102zm20.85 200.286c1.29.846.76.59 1.57 2.455l-1.06 2.01c-5.17 2.353-13.93 4.27-19.67 5.731l-.63-.514-.03-1.927c3.88-5.38 12.6-5.838 19.82-7.755m110.52-189.871c1.64-.233 2.33-.115 3.96-.041l-.69 1.251c-5.44 2.789-6.68 3.118-12.73 4.054-2.45-.46-3.23-.339-4.77-2.094 3.08-1.906 10.33-2.585 14.23-3.17"/></svg>