<svg xmlns="http://www.w3.org/2000/svg" preserveAspectRatio="xMidYMid meet" viewBox="0 0 2048 1462"><path d="M582.571 100.334c44.225-5.539 100.936 31.311 81.688 82.589-2.78 7.409-9.518 11.997-11.457 21.448-1.846 8.999 5.037 25.834 1.331 31.737-3.808 2.239-8.641 1.996-13.307 2.428-2.557 2.476-1.83 2.929-2.263 7.193-3.608 3.261-2.325-.513-6.064 1.468.959 2.005.739 2.513.675 4.734-8.199 15.251-14.093 12.191-28.668 9.958l-2.95 3.908c2.801 4.202 10.404 7.855 14.413 11.524 29.412 26.907 41.162 64.066 47.276 102.413 6.281 39.39 9.273 79.415 12.915 119.167 21.563 16.769 42.501 38.973 64.792 56.104 6.921-21.754 51.744-79.311 67.677-100.931l57.77-79.255a4751 4751 0 0 0 32.735-45.747c5.654-7.953 13.41-19.585 19.617-26.483 31.595-2.881 77.084-.408 109.439-.863 67.18-.944 135.88 1.185 202.92-.589 19.7 24.308 40.33 57.159 58.67 83.092 30.23 42.273 60.75 84.344 91.54 126.211 9.36 12.913 18.95 26.293 27.13 40.043 2.35 3.945 18.16-1.747 19.52 3.602 5.39 21.151 3.04 45.224 4.29 67.175 1.65 30.283 1.87 60.734 2.67 91.111l5.1 148.957 4.36 107.445c.64 16.215 2.16 38.607 1.59 54.347 36.84 1.14 75.91-.21 112.97.12 18.37.16 40.01-.72 58.12.56-1.44-9.57-1.71-21.22-3.65-30.527-1.93-9.833-5.57-19.784-7.16-29.664-4.15-25.705-7.35-50.69-18.32-74.635-2.81-6.132-5.5-14.571-7.97-21.131l-34.35-91.609a11046 11046 0 0 0-77.61-206.901l-51.48-129.322c-11.79-29.2-23.59-58.242-34.99-87.739-4.55-11.773-6.65-19.842 7.65-26.92 6.94-3.181 18.51-2.044 21.88 5.746 20.11 46.537 39.07 93.633 58.49 140.454 29.07-42.582 79.96-23.343 82.54 24.359 13.72 9.669 30.59 17.489 24.93 36.643 10.31 11.077 30.02 24.946 35.5 34.02 10.61 17.568 18.69 47.837 24.46 67.787A1634 1634 0 0 1 1676 796.936a4650 4650 0 0 1 12.64 72.266c1.59 9.476 4.05 31.664 6.91 39.962 12.4 36.046 24.57 80.657 40.21 114.876l39.25-.14c5.25 7.84 11.05 19.84 15.46 28.34 9.76 18.82 18.95 37.82 28.79 56.63a5458 5458 0 0 0 86.55 158.47c1.56-21.33 3.88-51.19 3.11-72.17-14-26.84-31.97-50.51-55.62-69.52-8.81-7.08-24.26-18.27-31.47-25.95l-.96-1.05c16.85 6.01 29.71 12.44 43.75 23.73-8.34-18.61-14.94-27.43-28.86-41.91l1.1.33c24.53 7.39 39.65 41.75 51.24 63.35 6.2-18.7 2.6-24.53-2.43-43.23 10.5 13.3 20.36 32.18 9.93 48.57-2.97 4.67 10.92 24.64 13.98 25.75 1.97-6.71 3.16-34.02 3.8-42.81 1.3-16.25 2.95-32.47 4.93-48.65-15.91-14.68-32.48-27-48.63-42.84 17.85 4.67 27.08 12.93 41.11 24.3-2.62-6.91-35.09-70.453-39.23-76.053-11.43-.578-27.62-12.697-38.47-19.334 13.09 2.007 22.18 6.363 34.36 11.377-11.46-25.251-25.98-48.505-35.12-75.343 21.86 23.817 71.22 121.183 88.42 153.953 4.27-35.52 16.36-79.524 28.65-113.238 2.88-7.926 17.66-47.28 23.26-49.797l1.11 1.089c-.23 8.682-14.24 50.264-17.75 61.746-6.27 20.473-10.73 34.882-14.95 56.67 13.22-13.42 21.01-18.322 38.88-21.599-9.45 6.059-14.73 10.099-23 17.579-5.53 5-13.45 13.1-19.58 16.58-5.92 23.22-4.87 51.39-9.05 75.26-2.03 11.6-1.43 20.79-4.08 33.19l1.04.29c4.41-4.06 9.95-14.42 13.61-19.99 8.96-13.69 21.65-31.71 34.42-42.04l.95-.77c-6.05 9.13-49.55 78.67-50.34 84.72-4.67 35.74-5.21 83.86-6.82 120.84 6.46-19.45 29.34-64.63 39.93-81.92 5.75-9.49 22.89-35.47 34.37-35.8.65 4.87-11.76 18.36-15.25 22.55 6.25-2.57 36.55-15.46 41.62-10.24-.99 1.28-24.42 12.05-27.9 13.67-25.49 11.93-31.99 25.81-42.88 50.66-8.3 18.95-16.77 38.94-24.96 58.58 4.74 6.51 7.3 9.97 11 17.3 11.92-17.77 24.26-37.96 36.29-55.65 1.99-2.92 11.71-10.23 15.56-10.21-.34 3.39-14.52 24.29-17.56 29.03 6.01-2.26 26.16-10.88 29.52-3.67-2.69 2.04-18.46 10.52-22.13 12.3-19.23 9.31-23.78 21.82-35.77 38.12 7.65 11.93 22.37 32.37 23.99 46.6.79 6.97-12.01 8.24-16.97 8.25-74.26.05-148.55-.46-222.82-.6l-437.11-.25-1164.898.42c-4.298-.02-26.404-.51-28.399-1.81-13.461-8.79 19.458-43.79 24.097-51.87-7.506-10.61-12.926-20.27-22.724-29.14-7.285-6.59-33.775-17.07-36.807-22.37l1.375-1.66c6.831-.71 22.16 6.48 29.08 9.29-4.203-5.23-20.526-27.2-22.138-33.06l.781-.91c21.031 6.44 47.127 64.77 59.95 67.48l1.457-1.29c2.347-15.68-30.268-92.82-39.265-110.22-11.255-7.6-37.535-20.37-50.506-26.46 16.375-.6 26.51 1.97 40.65 10.22-13.134-19.17-17.066-21.69-32.336-38.26.655.22 1.308.45 1.96.68 33.06 11.99 52.83 55.43 66.563 85.58 5.057 11.1 8.636 23.49 14.17 34.94l.627 1.29c-.727-38.9-.865-78.32-3.275-117.11-19.935-17.05-37.065-53.46-42.757-79.26 14.471 18.21 27.726 38.56 40.526 58.06.013-10.46-2.137-27.6-3.597-38.48-2.977-22.21-5.497-47.95-9.855-69.71-13.244-9.23-25.779-17.44-37.504-28.609 14.606 3.163 21.813 5.719 34.061 14.959-5.792-22.436-8.65-36.188-17.004-59.205-5.92-16.311-16.086-40.393-19.07-56.122 9.192 10.956 16.517 25.374 22.357 38.316.37-11.858.567-20.607 2.368-32.255 8.179 20.592.948 34.988 5.04 47.213 13.305 39.746 24.185 76.333 28.061 118.733 2.517.5 7.526-16.61 8.46-19.57 7.96-25.22 54.726-123.626 74.107-133.55l1.576.704c.946 5.861-5.269 16.125-8.329 21.253-8.64 14.481-16.657 28.026-23.453 43.51 15-8.799 21.408-11.64 37.817-15.981-10.418 12.006-32.714 24.548-46.816 32.153-8.451 13.311-21.862 49.111-27.906 64.791 6.137-5.89 34.354-32.34 42.063-29.32-3.676 7.69-45.445 52.63-53.854 62.11.176 4.43.706 9.54 1.247 13.97 2.751 22.53 3.577 45.55 6.389 68.03 10.094-12.59 14.701-24.23 26.121-37.29 1.306-15.75 6.129-47 15.506-59.54l1.104 1.26c-.81 14.51-2.856 30.86-4.138 45.61 12.245-13.42 35.364-32.46 51.942-39.4-10.669 17.92-28.599 32.56-42.838 48.46-18.744 20.93-32.022 41.57-45.562 66.28-.094 18.42.671 37.23.492 55.78-.077 8.04-.389 32.72.741 39.24 2.644-3.64 7.346-14.86 9.306-19.39 29.63-68.37 66.386-133.63 98.353-200.98 8.664-18.25 16.604-35.65 26.14-53.49 15.291-1.52 50.374-.44 67.177-.17 11.198-75.759 9.559-149.511 13.596-225.543 4.743-89.318 23.367-178.199 41.296-265.611 12.492-60.906 25.697-121.007 46.185-179.897 6.976-19.9 17.294-43.184 25.761-62.685-8.636-31.315 3.688-35.257 22.902-56.258 5.825-6.367 16.042-23.162 21.248-30.99-7.16-15.212-6.141-25.145-.905-41.006 10.453-31.662 33.825-56.467 67.825-60.616"/><path fill="#fefefe" d="M606.783 1036.13c15.37.91 32.299.31 47.845.35 13.145.02 30.236 1.06 43.012-.01-.138 14.08-.9 28.48-1.49 42.58 19.279 24.17 37.419 50.44 57.837 73.59 1.224 1.39 50.333.79 57.271.85 44.867.65 89.74.69 134.608.12l357.554.65c11.22.07 86.24.9 91.81-1.47 5.48-5.79 14.7-20.17 19.69-27.32l34.19-48.7c0-9.94-3.47-31.08-1.08-37.89 7.38-1.49 30.49-.97 38.82-.97 24.31-.14 48.63-.09 72.95.14 14.43.12 45.23.55 58.66-1.38.32 13.09 3.12 31.95 4.62 45.33 1.55 13.88 3.04 33.21 5.75 46.54 5.67 1.73 16.02 3.15 13.7 10.71-11.4 11.24-54.03 13.13-57.92 31.86-.15.74.26 2.9 1.38 3.48 15.78 8.19 54.2.7 73.01 1.35 5.47.19 23.68-2.19 26.18-5.38 1.77-2.26 3.06-6.18 3.7-9.06-1.18-9.35-2.08-12.84-6.31-21.26-5.43-.04-8.6.13-13.89-1.18l-.48-.94c5.64-1.06 10.74.27 16.37 1.3 1.27.93 5.19 11.28 5.9 13.62 1.49 4.03 4.13 9.61 1.68 13.24-11.65 17.22-23.64 15.08-30.54 37.5 29.97 34.48 106.54-6.4 107.67-48.1.32-9.67-4.9-18.45-6.99-27.77-.92-4.14 1.67-13.41.67-16.55-6.89-21.78-13.69-52.22-23.3-72.44l29.18.04c12.65 24.22 25.01 47.23 35.51 72.45 3.57 8.56 11.71 21.1 16.56 29.45-15.71-11.97-28.15-23.27-47.22-29.01l.83.87c15.7 16.43 43.47 35.36 57.99 53.55 3.94 4.93 15.47 26.9 19.57 33.86-10.96-6.62-19.95-10.01-31.19-15.67 7.32 8.24 14.9 15.33 22.24 23.64a517 517 0 0 1 63.84 88.49c-2.4 8.07-5.17 22.72-9.14 28.87-.93-7.4-5.5-35.01-9.11-41-4.13 1.33-7.06 28.51-8.49 34.54-1.32-3.9-21.29-55.33-21.71-55.64-1.98 1.56-1.93 4.15-2.61 7.18-15.03-16.49-19.32-20.7-41.95-25.38 4.99 3.95 10.14 6.79 14.4 10.08 9.06 7 20.92 20.67 27.16 30.53-6.16-3.29-22.42-12.56-29.07-10.88 2.51 4.45 14.47 9.4 17.86 12.65 5.56 5.33 13.15 12.59 18.28 18.2.52 13.09.86 19.76-1.43 32.88-1.95-7.76-6.94-30.32-10.85-35.47-3.06 1.19-10.14 31.46-12.43 38.02-2.39-9.99-4.02-19.76-6.27-29.43-4.22 14.25-5.35 25.25-12.85 38.08-.95-8.33-4.83-47.26-9.7-51.39-4.7 4.94-9.1 32.21-13.08 42.59-2.52-15.62-1.59-45.79-3.43-64.61-4.83 15.2-6.84 27.64-9.71 43.28-4.36-15.38-9.97-32.36-17.29-46.63-2.91 16.82-5.12 28.88-5.7 45.95-5.74-12.41-10.92-24.54-18.83-35.76-1.52 34.92 3.65 40.59 6.08 71.68-6.76-13.27-14.74-31.32-20.35-45.32-2.42 19.3-3.02 28.51-2.52 47.88-3.16-3.24-8.65-8.56-11.4-12.02-1.7-2.14-3.39-6.29-5.78-9.45l-1.13.5c-1.96 6.51-.87 22.23.89 28.85-2.94 1.85-6.34 1.31-9.92 1.3-110.61-.08-221.32-.49-331.93-.44l-681.214.64c-13.051-41.7-43.668-44.44-81.29-54.82-15.606-4.3-31.709-7.87-47.206-12.57 5.607-25.11 12.262-49.96 17.137-75.23 1.09-5.65 2.429-11.24 3.946-16.79 14.878-1.23 15.042-1.28 27.427-9.59 14.128.49 10.533 1.78 20.852 5.56 1.336.49 23.387-7.15 29.507-4.39 1.196.54 8.874.9 11.272-.93-.073-.81-.219-.92-1.292-1.67-5.899-4.14-13.549-6.89-20.749-5.97-3.467.44-15.063 3.2-17.347 2.82-7.447-1.22-10.75-4.23-19.185-3.62-9.402.68-14.491 7.04-22.764 7.56-1.767.11-3.998.17-5.786.2 1.682-10.09 13.152-79.54 17.238-82.29 2.952-1.99 6.206.34 9.398-2.15l.287-3.02c-2.295-2.62-5.413-1.89-8.97-1.86-1.488-2.34 9.247-62.95 10.562-71.98"/><path d="M1478.84 1302.32c11.24-.93 15.84 1.45 25.83 6.36 27.27-5.34 29.66 3.01 55.02 9.49 5.59 1.43 20.97-2.1 25.55 1.51-1.08 2.18-4.76 3.84-7.08 4.54-31.69 9.6-43.29-16.66-76.38-4.28-9.46-6.86-11.71-9.13-23.12-7.42-3.57 2.08-8.01 5.21-11.53 7.55-12.01-2.64-17.24-2.11-28.75 2.05-25.94-8.92-33.82-4.05-58 7.55-2.74 1.32-2.45 1.09-4.61.17-.8-4.93 1.23-7.28 5.59-9.61 18.27-9.75 35.73-16.39 55.83-8.34 21.45-5.08 18.02 2.19 41.65-9.57m-435.63-29.14c11.42-2.25 34.76 3.17 40.76 13.35l-.43 1.51c-5.89 2.39-21.23-4.12-29.03-5.05-17.36-2.07-14.82.64-27.88 10.89-9.15 7.18-15.02-5.96-24.09-7.03-10.65-1.25-19.064 5.13-26.907 11.08-13.29-5-16.781-6.88-30.879-5.99-16.581-.15-29.712 14.76-36.271 15.17-3.02-7.53 13.941-17.57 19.356-19.8 17.348-7.14 29.348-6.16 46.41.43 17.962-13.36 27.371-14.41 47.151-3.07 7.19-6.58 12.44-9.49 21.81-11.49m178.56-90.01c6.17-.32 30.38 2.56 30.58 10.56-4.26 2.27-23.98-.77-32.6-.81-5.11 2.63-9.07 6.01-13.56 9.56-7.38-3.37-12.09-5.26-19.75-7.95-8.3 1.87-11.31 3.28-19.03 7.05-14.75-2.81-20.43-5.84-36.51-2.13-6.67 1.96-22.47 11.03-26.92 7.52l.38-1.61c6.82-8.74 19.68-14.17 30.16-16.52 11.08-2.48 20.15.31 30.61 3.34 16-9.17 22.46-9.25 38.51-.49 7.21-4.45 10.08-6.05 18.13-8.52m-425.373 86.15c6.39-.02 32.001-.05 30.775 10.28-15.626 6.07-21.211-13.89-49.412 8.44l-10.012-4.35c-7.653 1.78-11.392 3.62-17.95 7.73-8.056-5.72-10.408-6.79-20.057-9.2l-14.241 6.46q-4.005-1.83-8.031-3.63c-12.044-1.9-13.825-1.28-25.68 1.48-2.741.63-5.645 1.13-8.102-.5l-.176-1.74c6.581-12.02 32.064-8.51 42.583-5.38 14.981-7.4 19.926-6.16 34.788 1.23 8.902-6.14 15.499-5.64 25.321-3.32 7.835-4.68 11.204-6.17 20.194-7.5M1462 1200.15c14.03-1.02 17.33.75 29.87 6.3 10.3-1.41 50.24-3.29 51.86 10.16-2.86 3.71-7.06 2.03-11.61.63-15.13-4.67-25.68-4-41.04-.53-5.98-2.79-10.66-4.65-16.86-6.93-11.01-2.51-15.26 3.49-23.02 10.2-11.85.58-18.49-3.71-30.09-5.02-8.66-.98-13.78 4.65-19.54 4.05-2.47-2.26-1.78-.9-2.18-4.19 14.06-16.01 29.86-5.17 45.05-4.57 4.36.17 9.91-7.1 17.56-10.1m-186.1 55.88c11.21-.23 14.2.69 24.28 5.91 9.26-3.53 34.27-3.6 38.05 5.76-1.32 3.04-.34 1.89-2.87 3.73-12.6-4.41-23.71-4.86-35.45 1.47-15.4-8.65-18.34-9.29-34.56-2.13-1.26.07-.71.16-1.93-.29-32.82-11.99-37.65 6.06-54.89 3.42l-.5-1.52c10.26-16.76 39.85-15.59 56.46-11.75 3.81-1.8 7.47-3.12 11.41-4.6m-370.329-68.69c15.576-1.1 15.751 4.09 28.611 5.5 4.089.45 18.564-9.59 27.493-5.63 3.143 1.39 8.55 3 10.627 6.9l-.837 1.66c-5.141 1.45-9.97-2.08-18.063-.77-5.297.05-17.951 10.06-22.345 8.61-10.226-3.38-10.759-7.43-23.233-7.02-1.395.64-2.808 1.23-4.202 1.86-7.125 3.23-35.285-.76-46.296-.12-6.178.36-11.79 3.59-17.705 3.64l-1.246-2.01 1.148-2.22c14.343-11.02 41.075-7.95 58.337-5.96 2.749-2.07 4.675-2.92 7.711-4.44m610.069-116.49c9.58.41 15.09 2.68 23.2 7.39 15.39-4.88 13.35-1.38 27.58 3.45 5.42 1.84 13.93-3.46 21.91 2.43l-.02 2.63c-8.56 13.25-34.12-2.97-43.51-.11-9.5 3.45-13.78-2.19-24.72-6.43-32.9 6.41-10.9 20.28-13.29 28.03-2.14.67-3.27 1.24-5.38-.18-7.81-5.25-10.34-17.6-5.56-25.52 4.74-7.86 11.78-9.4 19.79-11.69m213.9 182.3c8.83-1.27 28.28-.89 29.04 11.23-4.37.93-15.58-5.15-24.93-2.77-7.45 1.89-10.81 4.42-17.74 7.01-9.97 3.72-18.68-1.12-27.38-5.2-5.11 1.52-14.52 6.39-19.79 8.85-8.44 2.16-26.12.3-30.09-8.67 4.81-4.75 17.37 2.71 24.83 1.06 6.67-1.48 10.08-5.36 15.83-8.06 7.71-3.63 16.61-.75 23.9 2.37 8.74 3.73 18.12-1.83 26.33-5.82M672.891 1121.09c8.761-.02 11.106.26 18.765 4.42 5.919-1.7 9.125-2.39 15.21-3.37 2.04.75 4.046 1.59 6.009 2.52 4.379 2.07 10.381 4.88 12.078 9.59-7.454 3.87-18.175-5.06-29.393-.31-6.423 3.99-9.683.83-16.428-2.62-10.56-5.41-24.416 9.61-33.335 5.89l.383-2.1c7.684-9.62 15.064-10.87 26.711-14.02m1112.159-22.82c8.42.03 10.87.36 14.98 7.95-4.1-1.25-12.59-4.58-14.98-7.95"/><path fill="#fefefe" d="M571.961 266.743c65.028 25.368 75.044 84.302 81.555 145.733l5.716 51.991c1.859 18.24 2.542 42.378 12.179 58.664 13.198 22.673 34.136 45.966 49.731 66.181 19.992 25.915 36.214 41.049 67.416 50.819 5.028 1.574 49.333 46.902 48.978 50.172-7.279-1.172-38.298-32.64-48.088-28.267.7 3.988 37.945 36.279 43.641 42.99l.882 1.053c-18.835-8.311-38.037-24.449-60.996-35.604 16.035 19.153 31.453 27.785 45.19 42.84-7.155-3.201-14.076-7.448-21.431-10.568-32.598-13.828-57.336-40.506-83.463-63.682a5704 5704 0 0 1-50.254-45.318c-14.093-12.787-35.94-31.027-45.867-46.461-27.739-42.661-29.366-165.386-42.682-179.253-3.515-1.356-1.795-1.282-5.331-.382-4.721 4.611-2.426 13.452-1.48 19.505 6.783 43.388 11.02 87.171 22.254 129.743 2.583 12.02 12.256 27.005 13.014 39.007.806 12.751-.316 29.001-.786 41.884-.799 21.923.322 44.759-1.46 66.489-34.142-31.368-102.039-56.575-147.512-62.132-8.685-1.061-18.226-1.953-26.992-2.472-6.833-.404-17.713.279-23.959-1.1-1.003-8.788 5.815-37.374 7.986-47.802 9.706-46.628 18.599-93.638 32.28-139.285 10.586-35.318 20.991-72.82 37.441-106.027 5.709 8.486 10.953 15.151 20.669 19.335a29.05 29.05 0 0 0 22.631.277c11.167-4.623 14.89-13.338 19.248-23.585 22.354-2.113 25.412-16.104 29.49-34.745"/><path fill="#fefefe" d="M616.882 569.721c15.936 14.174 31.263 29.575 46.976 44.107 17.44 16.129 35.213 31.565 52.954 47.356-3.075 31.276-3.498 62.143-5.18 93.439-4.599 85.543-7.261 171.653-12.364 257.137.147 2.51-.282 9.39-.388 12.2-28.142-1.47-61.331-.81-89.802-.97 1.714-18.59 4.544-37.952 5.041-56.611 3.513-131.892-3.135-264.922 2.763-396.658m423.438-256.182q.36.233.72.461c.3.188.61.365.91.556 1.65 1.058 147.57 1.273 164.34 1.587 3.87.073 7.77-1.574 11.29.111 1.31 7.27-17.6 34.223-10.99 44.555l2.24.41c6.44-5.161 13.46-29.444 19.46-38.297 3.24 1.316 38.44 52.445 42.81 58.696 40.01 57.18 85.33 112.095 124.41 169.743-8.03.824-16.06 1.496-24.11 2.015-3.11.211-25.63 1.883-26.87.304-17.67-22.564-37.9-47.56-52.33-71.785-1.4-.71-2.58-.855-4.13-1.032-5.21-14.305-26.53-37.948-36.25-52.033-14.56-21.097-31.51-48.492-49.15-66.33-5.66-5.727-47.53-4.507-57.55-4.471-3.03 1.818-.19 1.988-5.11 3.972-1.61-1.306-2.29-2.561-3.44-4.263l-2.36-.413c-1.73.909-2.35 1.218-3.89 2.438l-1.11.881-2.64-2.079c-5 .216-.71 1.415-4.6 3.681-7.22-7.906-24.47.625-31.92-3.554l-1.48.973c-3.9-1.043-20.04-.843-25.83-1.068l-1.84 2.721c-4.21.398-3.57-3.245-7.95-3.768l-1.51 2.138c-4.5 2.405-31.7-.65-38.31.779-1.78.385-.5-1.887-3.98-2.652l.45 2.789c-4.97 1.838-12.949-1.625-18.096-3.408l-.682 2.71c-17.644-2.076-30.208-3.377-46.72 3.609-7.977 9.17-14.309 20.132-21.663 29.705-22.713 29.566-42.317 60.859-63.375 91.314l-34.993 50.426c-9.369 13.61-19.071 23.33-18.367 40.429.443 10.732.373 21.916.476 32.669-17.616-16.185-39.541-30.392-56.951-46.36 3.518-4.129 9.525-14.736 13.25-20.149a3214 3214 0 0 1 30.963-43.387c42.076-57.842 84.872-117.215 127.714-174.341 4.916 7.768 13.997 28.59 19.741 32.638 2.24-1.436 1.533-.946 2.854-3.684.27-8.769-11.666-26.885-16.396-35.158 10.784-2.637 23.965-1.498 35.367-1.587l56.058-.477c5.63-.099 17.83 1.018 21.54-2.014"/><path d="M766.492 552.02c8.921.114 35.08-2.74 40.426 3.123-1.174 6.064-3.372 5.491-8.559 6.591-8.032-1.159-33.47 1.237-37.413-4.923 1.575-3.12 2.234-2.792 5.546-4.791"/><path fill="#fefefe" d="M284.606 1035.99c12.721 1.35 45.628 1.43 58.729.49-5.343 71.97-15.062 145.38-18.977 217.68-1.034 19.11-3.137 39.36-3.462 58.39-8.226 13.05-8.277 19-9.409 34.26-7.026-17.88-14.678-33.49-19.083-52.39-1.278-5.49-6.994-31.96-9.602-34.1-7.415 3.13-8.752 32.1-13.991 40.26-6.258-8.17-1.457-44.36-7.393-50.87l-2.277.55c-10.06 9.21-16.856 36.48-20.451 49.75a1384 1384 0 0 1-8.782-58.45c-13.281 24.73-18.773 51.03-24.877 78.14-7.787-16.56-10.547-27.43-16.111-44.5-2.673 6.89-3.701 10.05-5.291 17.25-3.12 16.23-6.385 36.27-6.854 52.66-7.015-17.56-9.109-24.79-13.253-43.4-6.594 14.64-7.475 30.34-11.172 46.33-1.425-3.07-3.091-6.59-4.424-9.6-8.203-18.49-8.115-12.3 1.987-26.2 11.463-15.79 12.146-40.32 31.254-50.45 3.435-1.83 2.125-8.75 1.646-11.81 1.845-2.38 26.586-14.43 31.702-18.02 5.235-3.67 6.839-4.59 12.3-9.66-21.272 5.37-21.561 3.47-43.258 14.32 3.032-4.28 6.232-10.74 9.253-15.62 1.104-.16 2.066-.32 3.168-.54l1.251-.25c11.891-2.34 66.006-54.3 74.01-68.41-17.473 9.54-51.274 35.29-65.815 48.69 19.363-32.69 34.81-73.54 52.724-107.59 9.135-17.36 19.143-38.95 26.458-56.91M1391.84 555.872c1.46 1.096.83.631 1.7 2.718-1.01 6.153-.76 11.023-.87 17.182-1.1 57.375-3.12 116.195-3.71 173.413-2 130.306-2.96 260.625-2.89 390.945-6.8-.01-41.58.75-45.54-1.68 1.4-.82 1.77-.99 3.27-1.47l1.28-.41c.84-3.43-.91-6.57-2.23-10.07 1.62-3.03 4.79-14.93 3.89-15.61-5.98-3.37-2.01-11.3-.18-18.26 2.47-9.44-3.37-36.05-1.57-43.06 3.76-16.19-3.51-15.13-2.35-21.38l3.55 2.03 1.31-.51c.82-5.36-3.48-10.58-3.16-13 1.75-13.41 5.77-8.98.05-20.785.29-3.714 1.12-3.027 3.31-6.868-.5-.779-2.79-4.259-2.66-4.899 3.5-17.788 3.09-37.713 2.25-55.642-.44-9.529 2.02-16.332-4.14-23.056-.69-.75 3.57-6.691 3.57-6.882.18-5.971-.63-12.253-1.21-18.22 1.36-2.562 1.53-2.854 2.34-5.606-1.13-.895-1.4-1.17-2.37-2.235l3.12-2.94c-3.35-12.208-2.71-5.537-.04-16.996.24-1.033-4.08-4.526-4.76-6.489-.93-2.653 3.4-9.423 3.31-11.155-.41-7.619-1.36-17.216-2.51-24.636l-2.12-.348c-.28-7.031 7.85-15.325 1.82-24.997-.53-.853 3.26-15.061 2.22-17.484-1.05-2.433-2.68-1.576-2.89-3.754 2.56-.023 1.57.443 3.25-.998l-2.38-.792c-3.54-5.771 1.28-9.618 1.74-13.181.88-6.896-4.2-16.47-2.84-24.14 1.48-2.041 2.24-2.667 2.35-5.19l-2.34.092c.86-5.952 4.26-25.142 2.76-30.068l-3.06.249-.36-1.689 1.92-.711.74-.233.47-12.092c-1.32-1.117-2.31-2.065-3.55-3.255.44-7.311 2.94-17.892 2.16-25.077-.19-1.754-3.09-2.06-2.53-7.125 8.65-11.311 2.37-10.387.59-23.094.3-.504 2.79-3.945 2.78-4.021-1.59-15.404-5.19-35.391-2.23-50.392.83-4.213 19.04 1.939 22.88 2.192 9.81.647 17.23-4.321 25.86-8.321m-945.507 196.9c3.422.09 6.354-.297 9.06 1.535 2.709 8.024 8.368 38.61 10.178 48a10091 10091 0 0 1 18.826 101.651c6.175 33.512 13.632 67.045 17.469 100.942.705 6.24-3.114 22.25-4.083 28.87-2.69 18.37-6.688 36.71-8.269 55.24a3681 3681 0 0 0-10.359 230.6c-26.611-6.93-60.052-15.14-85.063-24.83 1.651-6.56 3.733-13.48 5.578-20.03 1.577-5.23 6.847-25.35 10.334-28.31 8.856 2.25 7.584-1.81 15.173-3.77 8.522-2.19 13.337 12.6 22.115 11.33l.681-1.17c.468-6.62-1.8-10.84-6.841-15.05-9.677-8.07-19.83-5.96-29.62-.73 19.62-65.42 37.839-134.22 56.595-200.12 4.197.26 8.075.56 12.286.42 4.697-2.09 8.687-8.17 7.039-13.39-2.862-1.34-12.515-.86-16.285-.84 3.307-13.58 11.719-36.655 12.987-49.599.757-7.727-4.672-34.634-6.289-44.079a8043 8043 0 0 0-24.816-133.196c-1.757-9.47-7.231-35.693-6.696-43.474m313.671-56.19c17.455 11.754 18.179 15.937 41.663 22.986 1.056 4.379-2.136 9.239-1.839 14.763.491 9.151 1.456 20.398 1.709 29.638-.797.899-3.207 3.056-2.332 4.584 6.157 10.757 1.708 10.166 1.355 18.606l2.401.181c.737 1.206-.763 5.033-1.453 6.866-2.195 5.834.107 15.241 1.151 21.843l-2.268 1.32c-.006 8.056 1.97 18.281 1.971 26.56.142 1.981-3.101 9.089-2.265 10.478 3.895 6.478 1.6 12.654.317 20.785 7.358 5.605-.729 4.349.741 11.269l2.708-.299.096 1.268-2.015.508-.912 1.525 2.231.058c.704 2.664-1.687 6.488-2.678 9.497-1.51 4.588 1.114 5.579 3.555 10.638-1.099 1.956-1.171 1.539-3.365 2.843-.047 9.603-1.369 34.36 1.094 42.809l1.925-2.009.351 3.049c-.742.538-3.283 2.777-3.051 3.711 1.694 6.818.687 13.162.214 20.041l2.492-.337.935 1.892c-.564 1.534-1.045 3.102-1.619 4.629-3.295 8.757-1 68.046-1.448 82.996.973.45 1.929.83 2.962 1.12-1.232 2.84-1.629 4.27-2.461 7.27l1.15.27-.069 1.51-2.577 2.14 2.047.86c1.759 7.57-.218 14.47.074 22.49l-2.231 3.45c.612 8.2 3.525 23.01 1.008 30.7-4.511 1.46-35.158 1.76-40.149-.08-.294-.83-.668-1.75-.67-2.65-.336-140.846.217-281.649-3.806-422.512-.176-6.153-.72-12.513 3.058-17.266m654.636-142.285 2.91.215c.37.517.74 1.033 1.12 1.55-.56 13.936-.39 47.941-.01 59.679l16.04 457.969c-9.4 14.21-20.6 30.69-30.93 44.05-1.27 2-1.25 2.34-3.36 3.5-1.33-3.79-.61-20.44-.64-25.37-.13-31.63.01-63.26.41-94.89l2.54-329.383c.24-14.593-1.52-109.53 2.71-115.253 1.12-1.506 7.15-1.75 9.21-2.067M729.132 672.435c5.467 3.562 12.783 10.288 17.38 14.772-.989 39.359-.291 78.828-.198 118.202l-.06 222.371c-.209 26.87 1.407 60.09.164 85.97-.315 2.36-.215 2.54-1.328 4.74-5.594-5.24-28.776-37.26-34.261-45.06 2.138-73.489 7.285-148.809 10.507-222.413l4.825-114.352c.874-21.096 1.293-43.296 2.971-64.23M1578.2 560.038c16.95-1.317 25.74 13.502 30.87 27.453 16.02 43.538 22.96 92.372 36.62 136.446-13.13 7.36-56.1 22.837-69.35 16.233-6.13-6.194-15.35-36.36-18.13-45.735 10.44 3.743 14.66 4.113 25.85 4.625 3.53-1.75 7.68-3.423 10.36-6.316 11.84-12.78 11.63-41.854 10.78-58.454.34-6.84-.21-14.967-.53-21.904-.39-8.382.54-19.166-9.26-21.913-6 2.444-3.4 17.597-3.63 23.654-.84 21.391 2.85 48.276-7.87 67.604-2.37 4.267-9.46 4.877-13.89 5.72-23.63-18.501-35.05-52.725-46.88-79.735 6.18 6.887 30.69 40.403 40.66 34.849 6.49-11.415-5.23-19.929-12.56-27.246 1.74-25.742.98-43.841 26.96-55.281M1394.92 336.39l3.3 1.214c2.57 2.935 12.81 29.251 15.11 34.657A14045 14045 0 0 1 1515.2 624.81c18.53 47.792 209.41 550.95 209.25 552.43-.29 2.72-2.11 3.53-4.06 5.2-1.99-.17-2.2-.36-4.09-1.08-5.18-7.73-14.19-33.17-17.84-42.83l-30.7-81.63a4556 4556 0 0 0-41-105.221c-6.44-15.755-13.86-30.391-20.24-46.313-5.17-12.946-7.49-27.479-12.44-40.401-37.39-97.559-71.35-196.515-109.89-293.614-30.54-76.945-62.29-153.579-92.54-230.535-.45-1.156 2.42-3.529 3.27-4.426M588.516 182.835c11.131.808 12.218 5.846 14.255 15.491 17.531 2.67 25.226 3.902 41.902-2.346-3.882 14.066-2.048 18.436-1.841 32.674-6.111 1.05-14.688 1.936-20.301 3.88 2.404 1.47 4.266 2.345 6.814 3.563l.137 1.23c-3.333.8-3.689-.469-7.934-1.451l-.971 1.993c1.334 6.248 5.885 3.914 6.119 10.156-1.837 3.654-3.585 4.557-6.83 7.042-3.016-.118-10.905-1.745-14.259-2.358-2.961-2.77-5.163-5.74-8.871-6.052-3.021 3.731-.054 8.378-4.329 15.196-6.386-2.313-12.896-3.703-19.499-5.264.551-12.486-2.598-30.515.911-42.447.438-1.492 10.262 1.519 12.213.993 2.716-.732 1.622-.123 3.577-2.666-.659-4.321-25.304-15.107-1.093-29.634"/><path fill="#fefefe" d="M1534.1 496.643c.62.384 1.86 1.515 2.47 2.032 1.12 3.725-.82 5.645-1.88 9.24-1.94 6.591 6.05 12.177 8.72 16.355.87 1.356-2.34 3.542 2.37 10.021 6.99 9.621 14.04 10.87 24.95 13.095-26.6 14.111-29.93 29.747-30.95 58.578-5.62-9.299-14.35-31.41-10.74-41.808l5.95-2.618c2.94-3.276 4.12-5.734 4.69-10.105-3.2-.701-10.15 2.754-13.67 4.195-3.12-.844-4.68-3.33-7.29-5.958 2.83-4.578 11.84-18.978 7.06-23.227-.93-.18-1.86-.361-2.78-.542-5.23 3.718-9.32 14.712-14.53 17.725-8.37 4.847-17.17-16.701-19.27-21.42 10.62-6.255 13.45-10.885 16.24-22.763 7.94 4.645 19.22 13.702 26.4 4.555.07-3.523-.01-4.6 2.26-7.355"/><path d="m1506.39 521.386 1.94.827c2.83 5.713-.76 9.292-5.45 12.415l-2.18-2.712c.63-3.819 3.44-7.191 5.69-10.53"/><path fill="#fefefe" d="M338.493 1262.37c14.911 2.2 32.347 1.86 49.13 4.21-5.367 14.88-6.768 21.44-8.526 37.04 10.641 6.34 27.17 9.62 33.007 17.1-11.093 1.76-67.498-4.59-77.791-8.21 1.612-16.69 2.7-33.42 4.18-50.14m157.374 8.88c9.612.45 41.961.39 49.09 2.36 2.773 5.72-3.989 24.58-3.793 31.43.28 9.81 25.6 7.06 24.422 19.23-18.596.31-53.584-5.57-72.709-8.13.348-13.13 1.445-31.85 2.99-44.89m194.965-741.725c3.034 1.354 12.013 9.82 14.824 12.492 36.442 34.63 87.472 64.037 119.657 102.319-8.972-4.661-16.713-11.68-26.205-15.726-9.608-4.095-20.642-3.568-29.716-8.992-15.291-9.14-65.664-72.726-78.56-90.093m525.918 558.625c16.52-1.7 45.15 14.75 48.12 31.34-6.31-.34-11.55-5.54-16.64-9.04-9.8-6.74-18.84-14.77-29.86-19.56-.01 0-1.48-2.5-1.62-2.74m-152.5-99.909c4.79-.589 22.18.844 23.95 5.79-4.2 4.041-17.01 3.241-23.12 3.323-5.56.653-17.62 3.326-21.58-.842 2.35-5.267 15.54-7.211 20.75-8.271M916.023 1089.83l1.989 1.67-.36 2.07c-11.04 8.93-23.213 22-32.771 31.55-.937-.95-1.466-1.74-2.284-2.82 1.86-14.56 21.673-26.2 33.426-32.47m839.597 44.18.93.57c1.1 8.94-21.39 17.56-28.93 19.21-.98-3.52-1.35-4.22-1.18-7.78 2.55-4.05 20.77-7.97 29.18-12M121.96 1340.76c2.748 2.52 7.867 16.31 9.599 20.53l-12.775.42-11.456-.06a693 693 0 0 0 14.632-20.89m1794.56-26.27c4.12 2.27 6.97 10.42 8.83 14.76-4.39 5.52-6.67 9.2-10.35 15.18-1.78 2.35-.72 1.74-2.97 2.67-2.56-6.31 2.29-25.88 4.49-32.61m-790.07-269.35c8.75-.37 30.3 1.75 34.09 11.01l-.83 1.58-2.28.2c-6.73-2.21-30.33-7.22-34.19-9.51l.09-1.38zm-119.5 35.77 1.53 1.47-.1 1.82c-4.19 4.97-21.193 14.4-27.384 18.05l-1.908-1.31.131-1.85c5.869-8.63 18.359-14.23 27.731-18.18m128.1 27.66c9.89-.18 25.9 1.39 27.61 13.69-3.17-.46-25.85-9.03-28.13-11.38zM817.601 652.856c6.561 2.035 12.731 7.172 16.035 13.247-6.832-3.168-11.242-7.642-16.035-13.247"/><path d="M837.772 303.018c9.818-5.693 21.838-12.144 32.356-14.564 29.2-6.717 59.861-12.961 66.425-48.596 4.454-30.378 21.588-63.797 57.95-55.104 16.227 3.879 32.927 19.074 51.387 7.363 33.14-21.029 46.27-87.084 96.32-77.299 16.76 3.276 25.97 26.084 30.28 39.944 4.41 12.364 5.02 36.391 18.85 42.071 1.09.346 4.31 1.118 5.51 1.372 28.89-7.225 61.3-36.225 91.97-21.605 14.32 6.826 12.98 31.055 11.71 44.604-1.63 17.445-15.35 48.475 1.59 61.616 26.19 14.413 59.78-4.905 88.35.045 8.16 1.414 13.96 4.198 21.43 6.922 14.86 5.418 29.79 26.907 28.04 43.337l-1.17.234c-3.48-5.498-3.69-10.534-6.1-16.002-6.38-14.483-20.45-24.238-35.77-27.421-10.23-2.129-16.35-1.981-26.76-1.47-21.94 1.062-62.18 14.093-77.7-7.953-17.11-26.557 22.81-86.643-17.47-99.219-25.02-7.809-78.67 44.844-96.76 14.373-16.48-27.753-16.22-100.732-70.48-63.601-29.46 20.158-37.89 74.526-81.73 69.977-22.81-2.514-38.888-25.588-64.487-5.79-27.299 21.112-12.772 59.048-45.061 80.55-14.318 9.534-30.387 10.758-46.791 15.361a132.2 132.2 0 0 0-29.425 12.024c-16.864 10.076-26.18 21.272-38.57 35.814 2.573-10.681 26.315-31.202 36.106-36.983M150.28 1102.63c4.494 2.29 6.155 6 8.954 10.33.604-4.08.732-5.45 2.272-9.36l.946.51c1.219 3.7 2.12 8.42-.043 11.89l-1.374-.54-1.506-.04c-4.976 2.56-3.594 1.02-5.71 5.53-.649-1.17-.396-.62-.927-2.02l-.39-1.05-4.222-1.22-.912-1.96c.661-6.98 3.857-2.73 2.912-12.07"/></svg>