<svg xmlns="http://www.w3.org/2000/svg" preserveAspectRatio="xMidYMid meet" viewBox="0 0 2048 1462"><path d="M0 0h2048v1462H0z"/><path fill="#fefefe" d="M0 623.417c36.256-15.332 36.066-13.222 56.173 12.424 3.279 4.183 32.811.291 45.066 9.972 9.262 7.316 17.731 23.902 26.578 32.158 15.133-.175 25.552-17.007 50.513-8.821 34.538 11.326 38.936 31.987 61.007 55.426 2.443 2.594 18.512-10.792 21.676-12.578a46.17 46.17 0 0 1 35.252-4.203c26.195 7.425 36.393 28.084 44.671 52.651 1.962 5.823 4.557 19.293 7.649 24.109 9.222 14.362 22.412-9.083 43.666-2.149 28.202 9.2 43.099 37.925 52.283 64.198 4.427 12.664 5.448 23.535 12.296 35.383 15.737 7.427 16.343-18.867 27.941-26.613 12.289-8.206 22.733-10.941 37.52-9.395 44.359 4.636 73.55 38.308 80.944 80.897 1.116 6.3 3.561 31.516 7.419 34.843 10.499 9.054 18.972-11.685 32.133 7.681 1.94 3.158 6.883 4.215 4.109 8.027-76.87 105.663-124.583 225.803-171.786 346.623-3.597 9.21-16.357 37.18-16.587 45.69 5.068 6.12 32.355-4.37 40.957-5.58 41.456-5.85 91.596-6.55 129.718 12.97 3.031-1.58 6.107-3.08 9.224-4.48 45.245-19.92 127.989-18.82 175.029-.59a70 70 0 0 1 5.347-2.42c39.457-15.77 100.491-17.52 140.41-.44a164 164 0 0 1 8.31-3.05c39.962-13.25 105.502-16.53 143.892 3a305 305 0 0 1 6.66-2.2c36.65-11.63 98.94-14.11 133.98 4.04 1.79-.62 3.58-1.23 5.39-1.83 34.84-11.46 91.69-14.63 125.47 2.36.61-.22 1.22-.44 1.84-.65 22.85-7.86 68.47-11.21 92.88-6.48 9.91 1.92 15.77 4.49 24.58 8.77 25.49-7.03 53.63-9.57 79.36-4.55 2.52.49 3.73-.17 5.44-1.72.64-7.3-39.25-106.45-45.07-120.72a1626.5 1626.5 0 0 0-89.9-189.46c-10.13-17.85-20.84-35.91-31.79-53.26-6.33-10.021-13.44-19.51-19.82-29.618 6.46-7.746 8.76-9.72 17.85-14.104 4.13 3.898 6.75 7.061 12.54 7.276 14.38-4.344 10.15-31.939 14.08-45.705 2.36-12.362 6.79-22.512 12.83-33.552 17.93-32.981 81.65-65.666 108.41-25.361 3.76 5.66 14.43 26.248 20.68 18.739 10.02-12.023 13.58-42.912 22.73-57.73 4.04-6.533 5.06-10.704 9.98-16.477 11.9-15.528 29.9-26.825 50.03-23.299 6.98 1.223 20.41 8.924 26.09 5.99 6.71-3.465 9.48-23.844 11.62-31.354 1.55-5.43 3.51-10.734 5.86-15.869 17.28-37.388 56.1-43.002 86.81-20.931 9.16 6.579 17.25-8.99 21.28-15.44 18.9-30.279 52.21-52.803 86.41-30.544 2.06 1.337 11.16 4.078 12.84 2.157 5.55-6.348 9.7-14.134 14.97-20.918a87.8 87.8 0 0 1 13.5-13.694c14.8-11.848 24.34-.66 33.47-2.866 6.41-1.549 18.85-19.982 31.02-23.341 13.5-3.726 22.22-1.197 34.57 4.427V1462H0z"/><path d="M478.886 1021.47c3.303.34 3.133.28 5.95 2.04 2.146 2.71 3.158 6.88 3.67 10.17 2.977 19.12 20.272 137.82 12.422 149.02-1.977-.28-3.94-.64-5.909-.99-1.515-1.54-2.122-1.71-2.296-3.99-1.756-22.89-2.921-45.81-5.354-68.68a1049 1049 0 0 0-7.023-52.78c-1.358-8.98-2.847-18.19-4.05-27.2-.528-3.96.421-4.21 2.59-7.59m1083.094-.14c2.97.71 3.3 1.09 5.9 2.82.06.11 1.38 2.62 1.38 2.62-5.18 47.87-12.03 95.69-13.43 143.87-.14 4.67-2.47 6.02-4.47 7.83-3.19-.88-7.12-1.93-7.12-6.08-.01-10.23 1.1-20.63 1.93-30.85 1.97-26.75 4.59-53.46 7.87-80.09 1.15-9.45 2.98-33.79 7.94-40.12m112.36-134.607c1.52.034 3.19-.018 4.69.277 1.31.262 2.36.931 3.02 2.097 2.63 4.653-8.12 131.243-11.48 141.523-4.19-.01-5.33 0-8.17-2.32-2.63-6.71 5.3-68.272 5.64-80.119.22-7.657 4.15-56.34 6.3-61.458m-1306.569.689c3.902.329 4.533.106 7.368 2.482 2.921 4.883 3.639 95.079 6.755 109.26.857 3.896 1.716 25.636.806 30.016-10.617.82-10.868-6.22-10.549-16.01.908-27.811-12.18-102.309-4.38-125.748m16.156 215.148c2.447.2 3.332.56 5.616 1.26 5.8 7.33 8.361 100.23 8.584 115.35l-2.623 3.86c-2.063-.12-3.397-.65-5.347-1.26-3.71-4.76-3.207-18.15-3.532-24.55-1.518-29.84-4.43-59.69-5.041-89.56-.033-1.64 1.377-3.8 2.343-5.1m1273.633-2.13c2.18.64 7.36 2.3 7.22 5.11-1.82 36.29-5.39 72.67-7.95 108.93-.15 2.13-1.7 4.28-3.06 5.83-3.62-1.01-8.04-1.66-7.83-6.26 1.63-36.3 5.6-72.75 8.81-108.95.12-1.36 1.93-3.62 2.81-4.66m244.81-313.976c3.46-.042 5.86-.153 8.32 2.027 1.65 2.954.81 7.348.6 10.799-1.53 24.891-2.88 49.759-1.6 74.696.36 6.91 1.53 17.872-.04 24.312-2.15.42-3.39.344-5.54.338-1.49-.897-2.88-1.337-3.32-3.154-4.05-16.765-3.48-96.878 1.58-109.018M260.797 978.425c1.95.58 3.451 1.551 5.225 2.545 5.004 6.621 6.408 87.82 8.205 101.85.625 4.89-.801 5.74-3.993 8.87-3.064-1-3.181-1.07-5.683-3.06-1.48-5.12-2.61-34.6-3.043-41.77a2177 2177 0 0 0-4.392-58.998c-.505-5.73.184-5.326 3.681-9.437M136.582 785.844c2.18.531 7.773 2.149 7.907 4.628 1.275 23.527 7.647 86.224-.389 106.982-2.68-.052-8.048-.246-8.293-4.013-.593-9.108 1.211-17.885 1.272-27.198a598 598 0 0 0-.911-40.52c-.588-9.384-4.007-32.467.414-39.879M1781.5 974.956c1.85.32 3.53.819 5.34 1.309 2.12 2.63 2.43 3.53 2.2 7.127-2.17 33.498-4.29 67.058-6.91 100.518-.2 2.59-1.39 4.45-3.2 6.22-9.19-1.64-6.89-17.18-5.63-23.82 3.12-16.47 2.26-80.352 8.2-91.354M245.466 795.664c8.608-.441 10.361 3.132 10.375 11.24.03 16.563 9.373 80.14 4.027 91.782-4.81-.255-3.74.473-7.253-1.867-2.156-4.042-8.737-95.31-7.149-101.155m1545.914.752c3.41.548 4.4.396 6.89 2.545 2.6 6.015-5.09 87.709-7.02 98.251-2.92.185-3.74.029-6.68-.383-1.61-1.314-2.69-1.856-2.66-4.28.56-7.633.63-22.459 2.06-29.407 2.28-10.962 2.11-60.137 7.41-66.726"/><path fill="#fefefe" d="M0 0h2048v531.732c-15.26 3.001-41.22 2.258-57.02 1.609-90.77-3.764-185.58-20.571-268.72-57.885-19.82-8.895-46.14-25.529-64.37-38.252-105.66-73.748-191.89-179.736-244.82-297.063-3.07-6.805-6.86-25.738-11.7-32.638-9-3.953-67.76-1.73-75.35-.27-5.95 3.727-8.78 16.797-11.16 23.818a242 242 0 0 1-10.9 26.946c-37.78 79.777-103.05 148.162-175.24 197.754-11.26-46.813-30.74-120.237-89.38-125.25-.51-4.888-1.26-10.735-1.27-15.563 3.74-1.242 8.06-2.534 11.57-4.257 19.77-9.699 25.82-33.821 8.32-49.09-1.11-16.776-2.22-36.302-15.6-48.195-9.77-8.692-18.61-5.165-29.82-4.867-3.76.1-11.09-4.46-15.521-3.128-27.3 3.453-32.442 37.066-31.936 59.571-26.061 28.926-3.102 42.785 23.364 52.679l.01 12.241c-57.401 13.906-64.473 78.007-79.342 124.138-19.674-11.262-38.956-27.37-55.702-42.483-54.034-48.765-96.68-109.676-127.708-175.319-4.371-9.247-6.831-20.707-12.296-29.368-11.391-1.707-67.876-2.482-76.068-.419-5.061 4.535-2.58 10.824-4.515 16.65-11.478 34.548-28.766 67.941-47.18 99.08a715.8 715.8 0 0 1-111.545 141.455c-99.348 98.405-198.714 148.567-336.909 167.64A827 827 0 0 1 0 538.837z"/><path fill="#fefefe" d="M1404.82 159.854c52.96 101.669 106.28 178.258 194.66 253.563 97.02 82.676 201.82 118.982 327.53 131.889 40.95 4.205 79.73 7.337 120.99 3.578v5.383c-70.61-1.517-141.05-2.92-211.69-3.09-14.66-.035-37.87-10.863-52.55-15.971-118.07-41.074-223.49-128.029-302.14-223.566a871 871 0 0 1-48.05-65.104c-7.61-11.325-18.43-31.164-27.28-40.322.77-9.954-.6-36.338-1.47-46.36m404.29 450.642 147.93-.511c-21.21 9.575-28.72 15.46-44.51 32.226a65.7 65.7 0 0 0-48.15-6.546c-27.75 7.139-42.53 28.03-55.96 51.104-8.59-4.598-13.74-7.49-23.34-10.035a84.55 84.55 0 0 0-65.13 9.287c-24.37 14.591-36 38.251-42.49 64.834-37.68-4.125-65.99 16.224-84.17 48.193-6.37 11.215-10.38 22.625-15.34 34.455-39.75-22.309-75.51-17.674-113.01 9.299-33.74 24.266-41.41 54.762-47.15 93.62-16.01 4.348-18.42 6.55-30.3 17.972-5.99-7.065-12.75-17.177-18.87-24.827a412.5 412.5 0 0 0-45.9-48.814c-57.15-52.226-114.63-78.16-190.7-92.917-15.94-3.092-34.59-6.716-50.62-6.977 1.31-54.66 5.04-111.005 6.83-165.989 25.59.652 234.36-3.514 239.02-1.141 1.88.951 3.4 7.425 6.4 9.129 3.89 2.206 70.1 1.828 75.75-.146 4.17-1.458 3.89-5.382 5.74-8.764 7.64-3.435 355.37-2.027 393.97-3.452m-945.878 5.935q40.03-.484 80.066-.494c2.055 16.511 2.503 49.041 3.505 67.448a5500 5500 0 0 0 7.566 103.096 504.74 504.74 0 0 0-292.017 171.745c-10.814-13.348-14.413-18.892-32.083-21.363-3.246-24.995-9.377-48.602-24.829-69.056a122.9 122.9 0 0 0-82.282-47.001c-20.982-2.75-38.942 1.083-55.809 13.945-12.542-38.159-37.885-79.941-82.374-82.094l-15.62.52c-13.734-60.035-67.569-101.073-125.56-65.194l-.392-.562c-26.458-37.796-67.258-73.907-112.899-41.849-9.222-10.212-7.42-12.218-20.501-21.94l336.498-3.796a8562 8562 0 0 1 119.608-1.149c9.122-.079 56.926-2.105 61.678 1.303.766 2.159 2.46 7.057 5.194 6.905 12.243-.677 73.817 1.896 81.42-2.123 1.855-2.991 3.91-6.747 7.936-6.829 46.748-.945 94.219.42 140.895-1.512"/><path fill="#fefefe" d="M1028.61 794.437c1.03-.113 2.49-.406 3.5-.22 10.76 1.995 1.76 51.733 8.69 59.296 3.28 3.579 8.79 4.494 13.43 4.773 6.5.391 16.11-.666 20.89-5.554 5.92-6.056 4.57-44.781 5.1-55.729 52.36 3.714 112.25 19.629 159.1 43.937 107.54 55.799 172.98 174.72 227.84 278.14 12.92 24.37 41.81 82.89 49.98 108.81-13.94-22.44-26.44-46.14-40.53-68.67-46.02-73.56-92.87-135.79-158.43-193.045a536.4 536.4 0 0 0-71.23-52.69c-79.23-49.133-143.06-56.479-234.2-50.319-32.621 3.138-61.84 8.791-93.403 17.862-190.078 54.632-300.345 190.262-393.383 353.992 4.04-12.86 13.24-32.17 19.087-45.26 22.85-52 49.459-102.27 79.616-150.4 81.721-128.731 181.17-203.975 331.219-237.551 1.748 15.982 1.389 31.772 2.37 47.451.897 14.327 12.618 15.877 23.601 12.464 9.137-2.838 10.403-2.304 15.569-10.545-.5-9.667-.136-45.236 3.134-52.912 4.79-3.416 21.53-3.458 28.05-3.83m-37.8-552.897c1.518.208 13.76 5.159 17.93 6.094 13.17 2.952 20.06.313 31.18-6.731 36.08 3.961 58.68 44.326 68.55 75.85 16.9 54.023 24.06 110.849 32.9 166.566-7.6 1.555-13.58 3.337-20.96 5.542a1597 1597 0 0 1-37.33-135.018c-3.48-16.21-6.6-32.494-9.36-48.84-1.4-7.821.2-17.325-7.37-20.959-1.65.467-2.09.188-3.02 1.77-7.83 13.258 25.22 130.278 31.15 151.707-5.89 13.649-.59 34.529-18.47 38.529-6.58 1.471-13.27 2.565-19.92 3.688-24.83 4.485-80.673 3.405-104.79-5.555-2.809-19.208 2.095-68.515 4.582-89.547 2.854-16.288 8.225-33.083 11.702-49.067 2.012-9.246 14.34-44.906 9.115-50.391l-2.559.5c-2.201 1.711-4.935 4.244-5.681 7.07-6.888 26.087-13.053 52.377-19.69 78.529a2245 2245 0 0 1-34.79 118.953l-19.301-4.946c14.195-58.877 24.162-178.553 60.965-222.807 9.628-11.576 19.922-19.546 35.167-20.937M552.339 571.546c17.999-1.603 56.672-.72 76.443-.849-1.222 6.925.106 28.84-2.362 31.977-16.161 1.099-34.686.362-51.081.442l-90.683 1.086-363.48 3.821c-16.191.959-30.426.762-46.556.444-7.526-16.638-14.687-22.863-29.91-32.251 28.177.2 55.645-.748 83.63-1.027q99.275-.062 198.532-1.958l116.934-1.241c35.385-.048 73.304.642 108.533-.444m950.401-7.019c20.97-.828 46.35.126 67.74.029q85.56-.545 171.12-.092l192.75 1.124c29.89.305 57.3-.656 87.73.894-27.44 6.059-28.03 14.436-46.57 28.886l-.68.518-40.08-.442-520.04 2.129c-.45-10.058-.2-21.761-.21-31.944 25.76-1.918 61.19-.462 88.24-1.102m-195.9-307.736c.92 4.711-6.73 51.395-7.82 59.311l-24.46 176.536c-2.62 19.809-5.77 39.154-7.85 59.069-16.11.963-34.25.438-50.49.246-1.14-6.254 6.86-52.067 8.36-61.547a6961 6961 0 0 1 27.82-166.754c23.17-25.172 34.27-38.549 54.44-66.861m-571.764 1.941c2.955 2.436 18.645 22.762 21.972 26.915a854 854 0 0 0 30.43 35.586c7.739 58.368 21.889 118.881 31.795 177.018 1.519 8.911 10.122 51.326 9.619 57.001-16.191-.299-34.412.228-50.668.5-.898-12.381-4.863-32.986-6.787-45.924l-16.039-105.104a5267 5267 0 0 1-12.015-83.515c-2.444-19.176-4.668-44.101-8.307-62.477m-120.387 4.142c.048.054.108.098.143.161 3.424 6.013-33.919 262.629-38.013 294.323-13.234.615-32.194.512-45.369.055l-1.366-.166-1.067-1.664c1.03-16.519 29.082-211.665 33.099-220.467 4.679-10.256 15.008-20.545 21.884-29.525 10.61-13.856 21.069-28.154 30.689-42.717m805.731-8.444c.17.117.33.228.49.35 2.04 1.545 55.79 75.756 56.41 77.52 5.75 16.309 9.65 56.445 12.79 75.653 7.75 47.396 17.63 94.741 23.56 142.399-15.33.857-32.76.417-48.27.354-4.66-40.471-13.99-86.614-19.83-127.783-7.95-56.004-15.51-112.85-25.15-168.493m-787.173-87.738c.832 2.722.34 10.323.415 13.526.333 14.419.401 27.552-7.706 40.115-88.582 137.285-213.099 256.191-366.146 317.81-19.928 8.023-48.202 22.756-68.886 22.859-55.156.274-110.307 2.504-165.449 1.946-4.796-.049-13.814-.933-17.867-3.417-2.543-1.268-2.912-1.4-5.004-3.266 3.483-2.4 46.251-1.767 54.422-2.142 47.887-2.198 95.155-6.975 142.012-17.442 169.262-37.808 296.317-148.859 390.54-290.322 10.668-16.017 20.042-33.839 28.726-51.004 4.667-9.223 8.889-19.279 14.474-27.951.153-.239.313-.475.469-.712m82.191 63.726c9.907 8.1 8.96 22.106 10.177 33.654a2363 2363 0 0 0 5.526 45.957c10.005 75.494 22.442 151.123 33.881 226.446.638 4.203 3.122 15.314 1.443 18.888l-3.215.518-47.545.157c-1.548-86.909-.767-174.661-1.196-261.652-.102-20.749-.191-43.322.929-63.968m523.252 106.39c1.7 8.542-29.53 187.652-34.22 215.458-8.71.4-38.26.909-45.49-.716 9.26-17.779 8.89-26.778 1.35-45.384.92-6.21 2.25-12.631 3.58-18.775 7.73-35.684 14.07-72.122 22.73-107.566 16.95-11.507 37.93-28.364 52.05-43.017m-438.705-2.911c3.802 2.845 17.13 16.529 22.278 21.052 9.622 8.455 22.97 17.724 31.564 26.036 4.693 20.703 27.305 113.25 25.476 125.58-2.673 18.014-7.662 26.301-1.279 45.229l.562 1.316-.666 1.365c-5.254 1.127-30.635.665-37.326.666-12.865-58.152-20.67-118.426-32.891-176.815-2.903-13.871-6.085-30.413-7.718-44.429m522.595-100.21c2.22 9.569 1.42 32.279 1.4 42.869q.015 25.797.45 51.59c.86 74.351 3.23 149.429 2.65 223.675-13.94.466-29.29.165-43.33.173-1.82-.036-3.34-.206-5.14-.375l-1.02-1.737c.42-8.124 1.59-15.606 2.55-23.617 6.8-56.582 15.58-112.868 23.62-169.256l9.43-71.041c1.83-13.94 4.12-40.326 9.39-52.281m168.33 112.175c4.43 3.445 15.36 15.977 19.64 20.574a4316 4316 0 0 0 32.89 34.64c11.51 43.864 19.58 103.02 29.3 149.236l-48.62-.097c-7.34-36.448-12.77-78.545-19.53-115.708-4.26-23.419-12.32-66.356-13.68-88.645m-943.472 4.014c.653 4.355-5.373 41.158-6.302 47.616l-23.428 159.854c-14.872.849-32.173.371-47.205.191-.04-.29-.109-.578-.12-.871-.261-7.196 25.533-149.829 28.476-154.724 5.182-8.62 14.726-16.059 21.759-23.347a3018 3018 0 0 0 26.82-28.719m133.181-228.387c2.703-.275 12.605.132 15.824.187-7.933 8.282-40.599 41.655-42.15 50.766 2.303 7.018 20.622 23.012 27.537 32.263-10.499 15.59-22.475 30.951-31.641 47.131 7.643 12.314 23.144 28.063 32.777 42.403-5.998 11.557-24.585 33.009-33.507 44.131 3.876 8.21 26.061 38.048 33.065 47.838-10.405 14.886-22.943 30.931-33.913 45.6.025.152.058.303.074.456.747 7.094 21.333 33.207 26.863 41.147-5.264 8.995-13.431 23.814-20.015 31.193l-10.466.056c-1.414-13.323-.657-29.691-.47-43.28q.457-31.062.475-62.129a5903 5903 0 0 1 1.577-162.702c.628-37.147.734-77.776 3.911-114.628 9.844.076 20.176-.256 30.059-.432m515.121 445.024c12.11-.866 33.04-.329 45.73-.373l86.98-.124c-.38 10.926-.01 21.029.36 31.964-34.18-.359-70.3.419-104.8.404-41.02 1.802-92.9.517-134.86.847l1.51-32.363c12.33.517 28.28-.027 40.98-.096zm176.03-446.042 14.13-.168c1.97 8.618 2 30.058 2.35 39.838l2.43 85.864 4.11 169.779c.76 28.657 3.06 60.073 2.37 88.407l-17.45-.412c-4.21-11.936-8.91-21.757-14.26-33.216 6.96-8.933 21.61-29.201 25.69-39.192-9.45-14.399-21.34-29.799-31.43-44.19 33.95-53.786 38.31-40.99-1.74-91.211 7.74-14.401 20.08-31.957 28.97-46.612-9.03-14.601-21.16-29.254-31.21-43.634 4.65-6.832 11.91-16.377 17.01-22.761 17.44-21.791 9.64-20.639-5.84-35.816a283 283 0 0 1-23.08-26.005c9.03.127 18.85-.369 27.95-.671M898.395 568.514c11.969-.97 28.441-.515 40.726-.471 1.658 10.882 2.043 21.138 2.538 32.118-61.877-.003-123.898 1.927-185.877 1.93-12.755.776-26.881.738-39.751.959a1339 1339 0 0 1 .054-33.891c20.889 1.109 44.159-.039 65.438-.136q58.438.19 116.872-.509"/><path fill="#fefefe" d="M1338.97 132.532c6.34 4.76 25.8 27.75 31.34 34.46-9.27 13.397-19.88 25.68-28.87 39.396 7.67 7.351 26.2 33.345 32.99 43.064-6.8 12.2-21.67 34.527-30.2 45.331 10.85 14.253 21.75 29.688 32.34 44.225-8.44 14.372-20.49 33.419-29.69 47.32 6.95 13.912 24.16 30.823 30.55 45.887.65 1.52-.23 2.168-1.25 3.956-27.09 44.105-25.97 20.413-6.49 67.964-8.34.463-17.31.44-25.79.782-1.18-10.305-1.02-32.543-1.21-43.542l-1.17-89.184-1.56-128.011c-.58-36.82-1.69-74.842-.99-111.648m-641.592 5.242.718.688c1.615 6.385.841 70.957.768 81.653l-.382 160.805c-.124 38.922 2.936 84.926-.35 123.242-8.958.592-19.531.569-28.623.755 24.259-39.103 19.788-31.526-6.237-68.45-.398-.62-1.295-2.739-.888-3.323 10.855-15.595 22.539-30.871 33.59-46.351-5.441-10.334-24.422-36.081-32.045-46.87 43.961-56.256 36.554-37.158-.571-89.503 6.389-8.044 28.848-38.251 29.947-48.117.467-4.183-21.227-25.671-26.336-30.717 8.752-10.256 20.72-24.983 30.409-33.812m-65.984 102.945c2.236 3.176-.081 53.352-.233 62.357l-1.885 122.907c-.856 43.236-.376 87.047-1.353 130.35-12.489 1.101-27.114.787-39.812.81-.724-4.743 4.098-35.484 5.159-42.989l13.53-95.692c7.52-56.337 14.639-112.74 20.767-169.244.395-3.638 1.789-5.617 3.827-8.499m775.086-4.323c4.52 6.444 6 26.538 7.27 35.345 3.13 21.106 6.08 42.239 8.83 63.397a7692 7692 0 0 0 23.17 154.053c1.39 8.925 10.84 57.007 8.64 60.78l-3.14.395c-12.36.301-24.73.267-37.1-.102.27-34.032-2.76-68.655-2.8-102.609-.08-70.192-5.09-141.172-4.87-211.259m-692.007-86.627c2.28 2.115 13.699 25.861 16.381 30.597 43.848 77.444 100.435 142.736 175.107 191.447l-3.581 15.893c-.349.691-.93 1.107-1.541 1.7-19.861-4.465-68.367-45.551-83.236-60.174-38.522-37.882-77.202-82.892-102.014-131.089-1.42-2.759-1.019-41.512-1.116-48.374m607.937 5.89c1.29 3.779 1.7 34.582.27 38.233-12.42 31.891-34.74 64.886-56.48 91.23-30.29 36.698-66.42 68.802-107.17 93.308-4.36 2.622-17.57 10.642-22.09 11.038l-4.28-18.216c59.87-33.248 121.51-102.526 159.34-159.804 10.98-16.637 21.24-37.955 30.41-55.789M483.518 413.767c1.119 5.157-21.539 129.005-24.489 144.578-15.369.683-31.318.512-46.732.469-1.349-7.266 11.168-83.519 12.714-95.793a1032 1032 0 0 0 58.507-49.254m1073.512-.103c2.5 1.433 18.09 14.65 21.04 17.201 13.07 11.267 24.99 20.504 38.87 30.632 5.35 20.901 12.93 66.873 15.86 88.751-15.53 1.03-34.71.547-50.47.531-1.03-10.58-7.05-38.403-9.21-49.964-5.36-28.661-10.07-58.783-16.09-87.151M645.793 521.898c16.682.431 37.671-.422 53.406.576.039 13.392 1.671 78.082-.863 87.144l-2.125.886a1363 1363 0 0 1-51.235.612c-.466-11.23-3.024-83.064.817-89.218m707.307.602c11.68.736 30.78-.331 43.28-.41 2.1 26.119 2.03 57.164 2.64 83.582-3.86.295-9.27.274-13.27.384q-20.475.845-40.98.941c-.22-10.514-2.28-77.33-.81-83.124 2.83-1.807 5.65-1.36 9.14-1.373m-332.34-11.141 2.04.985c2.06 2.885 1.24 80.622 1.13 90.852-.63 59.079 3.84 116.248 9.36 174.931l-20.55 1.099c-3.59.416-8.41.563-12.1.769 6.51-53.111 8.46-109.546 11.98-162.915 1.54-23.219 2.58-86.161 8.14-105.721m-608.865-39.42c.896 7.759-9.491 78.005-11.386 87.017q-24.635.807-49.278 1.238c-.592-5.048 4.69-45.198 5.587-52.199 15.003-7.992 40.164-25.936 55.077-36.056m1217.875.102c3.8 1.863 7.11 3.903 10.58 6.314 15.12 10.513 30.36 19.92 46.34 29.06 2.6 13.219 4.57 28.874 6.6 42.35-13.27 1.835-36.57.997-50.65.85-3.78-26.062-9.41-52.321-12.87-78.574m-689.162-33.147c1.873 3.2-2.149 31.108 3.288 47.262-6.827 23.48-5.808 44.441-5.467 68.334q-12.55.065-25.097.395c-.125-2.021 3.831-26.823 4.758-28.572 12-.5 7.73-8.047 6.222-16.866-.535-3.126-2.38-7.885-3.372-10.981 5.229-10.867 15.471-46.237 19.668-59.572m232.522-49.914.76.721c.47 7.857-18.12 87.939-21.05 98.684l-1.97-8.6c-4.14-21.972-8.35-50.333-11.37-72.541 11.19-4.828 22.6-12.288 33.63-18.264M343.532 515.918l.923.774c.776 4.417-3.014 36.399-3.603 43.37q-22.007.238-44.016.046l-1.481-.536c-.869-3.372 1.273-14.933 1.874-19.078 15.036-8.414 30.909-15.856 46.303-24.576m523.078-127.24c11.409 6.82 20.505 12.196 32.385 18.336-2.619 19.384-7.004 40.296-10.522 59.743l-2.343 11.737c-1.665-9.978-5.39-24.247-7.709-34.485a2175 2175 0 0 1-11.811-55.331m831.92 126.28c5.23 1.969 42.05 20.318 46.78 23.045.41 4.621 1.08 8.098 1.95 12.638-13.81.427-31.4.378-45.07-.385-.04-8.249-2.77-25.687-3.66-35.298m-586.77-7.125c4.3 5.139 11.89 36.971 12.41 44.22-3.15 1.329-10.64.889-14.42.87l-13-.079c4.94-18.875 1.53-28.606 15.01-45.011m28.81-13.707 2.36-.058c.53.476 1.37 1.183 1.68 1.827 8.43 17.553 12.49 26.428 9.27 45.17-1.28-12.275-.04-17.746-11.13-25.073.43 8.092.84 11.115-.24 19.215-2.14-4.902-2.26-14.837-7.91-17.164-3.66 3.633-2.06 15.085-1.67 20.111-4.18-13.336-8.05-25.636-10.72-39.391zm-247.82 1.939 16.309 3.688c3.018 4.673 6.65 8.756 5.662 14.097-4.533 2.022-6.416 1.295-8.105 5.473-1.373 3.397-1.21 6.957-3.787 9.293l-3.284-1.811c-4.303 2.17-2.2 5.141-5.149 6.617-.52-4.886.02-12.776-1.953-16.014l-1.854-.614-2.558 1.324c-.172 6.207.179 13.368-2.424 18.909l-.724-1.179 1.083-.147-1.213-.998c-.47-7.781.164-9.987 1.897-17.703 1.923-7.602 3.69-13.517 6.1-20.935m206.87-41.171c2.09 2.851 10.2 31.732 11.98 37.43-5.46 5.086-6.66 6.673-10.86 12.917-1.35 2.669-2.86 4.862-4.48 7.359-.04-8.181-1.83-17.603-1.53-25.245.39-9.79 3.25-22.276 4.89-32.461m-71.79-239.659c.44 1.839 1.04 14.325 1.18 16.802-9.64-.272-19.89-.151-29.582-.203-.99-4.081-.755-10.11-.758-14.505 10.68.352 18.66.665 29.16-2.094M284.846 545.112l.549.728c-.063 4.517-1.298 10.539-2.085 15.131-11.952-.126-25.065.466-37.079.863l-.543-.257c.274-.597 35.961-15.076 39.158-16.465m684.241 293.036c5.871-.368 15.512-2.458 18.288 3.5-.383 3.784-.792 4.243-2.499 7.756-4.989 2.035-10.103 3.995-14.757.876-2.05-3.572-1.247-7.786-1.032-12.132m83.703-1.675c6.08-.596 10.08-1.847 14.7 1.914l.2 2.322c-1.52 3.5-2.93 4.193-6 6.406-6.68 1.764-12.44 1.253-12.81-6.728 1.81-3.555.7-2.665 3.91-3.914m2.59-662.728c6.98 7.543.85 17.978-4.51 24.345-1.13-.205-.57.055-1.53-1.068a301 301 0 0 0 6.04-23.277m-89.931 3.991.9.903c1.202 4.287 6.156 18.22 5.802 21.377-9.276-6.947-9.68-12.066-6.702-22.28m790.881 365.499c6.7 1.346 13.99 5.26 19.88 8.592-4.15-.123-8.41.182-12.52-.167-6.84-.582-6.49-3.164-7.36-8.425"/><path d="M1008.39 239.41c4.83-.717 10.59-1.153 15.11.982-5.47.744-10.1 1.667-15.11-.982"/></svg>