<svg xmlns="http://www.w3.org/2000/svg" preserveAspectRatio="xMidYMid meet" viewBox="0 0 2048 1462"><path d="M989.399 124.525c4.49 1.305 22.361 19.171 27.431 23.632l66.05 57.089c99.91 85.363 200 170.239 303.3 251.491 14.84 11.67 31.13 21.83 46.34 33.328 1.14-9.91 5.01-61.126 11.03-64.984 3.33.177 3.44.194 5.98 2.212 2.9 4.865-4.97 59.532-5.73 69.241 5.47 5.529 14.16 11.149 20.68 15.658 32.25 22.318 64.78 44.135 97.1 66.38 2.21-36.796-.88-71.905-.18-108.371.52-26.657-2.64-50.435-4.37-76.713q-1.185.171-2.37.302c-23.3 2.577-182.7 13.957-190.88 7.415-1.84-3.445-1.57-1.932-1.1-5.697 1.69-1.731 2.43-2.972 5.29-3.027 11.74-.225 23.9-.279 35.6-.498 22.07-.47 44.13-1.362 66.17-2.674 63.74-3.952 120.68-10.55 182.29-26.859 24.51-6.485 48.94-11.347 73-20.216 12.46-4.592 25.76-8.001 37.59-14.438 22.16-12.498 40.99-30.758 67.97-31.966 11.35-.508 16.35 6.428 17.2 16.986.97 12.117.49 24.199 1.51 36.414l10.98 135.904c2.39 27.158 3.19 53.047 4.4 80.189.44 9.822 3.38 23.428 4.17 34.235l11.07 135.251c2.56 29.509 3.58 52.401 9.19 81.706 3.75 19.65 3.43 45.783 6.28 66.447l21.76 160.448c1.98 15.65 4.73 31.27 6.5 46.95 6.19 53.61 8.83 107.56 7.91 161.52 11.63 1.47 38.16 3.3 45.24 10.98 22.99 24.94-23.42 35.09-37.47 35.32-25.16.4-45.12-4.69-67.99-5.77l-164.32-6.9c-12.18-.57-29.15 2.78-43.44 2.15-12.76-.56-26.19-4.2-37.12-4.57-14.68-.51-32.16 1.67-47.53 1.27l-173.2-4.45c-28.57-.91-57.91-2.56-86.49-3.56-10.08-.35-25.19 2.43-37.17 2.33l-166.46-1.22c-17.07-.04-34.05-2.65-51.13-1.91-7.09.3-14.16.84-21.23 1.38-40.03 1.15-80.107-1.53-120.137-1.58-11.792-.01-23.573.75-35.364.74-13.687-.02-27.352-.86-41.045-.56-13.31.3-26.712 2.06-40.007 1.86-9.987-.15-19.817-2.35-29.854-2.29-14.032.07-27.972 2.71-41.977 2.89-16.502.21-33.066-1.64-49.58-1.81-10.787-.11-21.511 1.43-32.279 1.47-34.822.13-69.785-1.14-104.606-.5a5382 5382 0 0 0-215.941 7.63c-27.672 1.31-52.517 5.65-80.904 3.23-13.047-1.12-31.924 4.32-45.308 4.99-8.326.41-16.52-.76-24.839-.5-8.77.88-17.416 3.18-26.256 3.69-24.697 1.41-49.472 1.26-74.164 3.35-5.988.48-15.77-4-16.514-10.55-2.521-22.19 37.824-29.5 51.889-32.03l-.436-3.46c-3.899-30.67 2.148-64.24 3.929-94.85 2.025-34.79 7.34-66.67 12.177-100.93l14.107-105.968c3.323-25.343 6.519-50.979 9.82-76.346 2.425-15.428.943-34.873 3.772-49.889 4.734-25.131 7.356-47.382 8.939-72.863 1.475-23.738 6.096-49.23 8.575-72.942 2.414-23.083 1.118-47.306 3.757-70.467 4.008-35.314 5.688-70.121 7.452-105.548.917-18.417 6.797-37.692 7.74-56.84 1.68-34.089 4.448-68.14 9.181-101.945 1.5-10.32 3.184-27.817 6.266-37.31 16.728-12.441 27.254-10.841 43.629.61 40.55 28.356 87.675 39.736 135.119 51.003a1180 1180 0 0 0 182.803 29.58c28.135 2.512 55.793 3.444 84.012 4.017 8.178.166 23.544-.518 30.027 4.45.693 2.874.841 1.494-.709 4.241-2.025.903-6.503 2.876-8.536 2.92-60.183 1.282-121.074-6.023-180.643-11.109-1.099 20.019-2.883 43.424-3.317 63.171-.599 27.256.932 56.708.858 84.187-.023 8.581.916 42.62 2.781 50.27l1.248.462c3.656-3.082 7.487-5.953 11.409-8.658 27.6-19.034 52.585-40.79 76.659-64.057 9.601-9.279 19.917-17.388 28.589-27.75-2.529-11.742-11.162-60.859-3.777-68.393 3.181-.447 2.056-.406 5.363 1.053 6.817 8.76 1.932 48.293 10.039 55.337 5.04-.102 23.24-21.021 28.141-25.765l104.88-102.175 173.713-169.537c18.421-18.294 36.818-39.278 55.468-56.934"/><path fill="#fefefe" d="M1001.76 196.707c17.38 17.149 38.52 33.524 57.22 49.317l77.24 66.156a10051 10051 0 0 0 282.66 231.024c40.81 31.962 83.34 63.387 124.42 95.133 8.17 6.317 17.49 12.305 24.86 19.501-.92 6.011-1.19 9.991-1.47 16.089q-4.575-1.172-9.21-2.173c-36.2-7.685-77.55 5.837-87.61 44.473-3.52 13.52-4.13 28.026-8.84 41.803-3.73 10.913 5.91 25.016 12.11 34.066-7.93 18.134-13.99 40.392-27.31 55.596-6.99 7.98-24.99-11.425-31.53-14.924-16.68-8.917-43.62-19.771-62.39-20.962l-1.21-.069c.51-15.118 1.72-30.762 5.12-45.561 3.61-15.697 11.1-11.071 22.86-18.182l.95-.586c14.03-24.161 2.67-28.804-.18-54.42-.73-6.516-2.24-12.414-3.69-18.763-14.59-63.517-105.45-69.261-136.54-15.645-10.52 16.604-7.23 33.043-8.77 50.398-2.17 24.351-7.44 36.622 18.36 50.497 6.99 19.419 11.78 30.343 13.37 51.259-10.87.13-28.4 5.54-39.89 8.233-12.08-33.38-24.3-43.265-52.37-62.199 1-14.178 2.87-23.764 1.8-38.382-1.76-23.862-12.21-39.969-21.32-61.039-3.56-8.23-6.74-19.006-9.3-27.68 13.24-20.204 14.71-45.462-6.65-60.409.51-2.824.99-5.654 1.43-8.489 3.62-23.732-2.88-53.354-16.48-73.354-11.24-16.542-51.66-36.53-70.45-39.135-5.29-1.202-9.96-1.356-15.34-1.46a95.7 95.7 0 0 0-23.83 2.589c-8.31 1.97-50.557 18.131-58.003 22.211a113.6 113.6 0 0 0-23.704 17.437c-18.724 18.271-24.378 42.67-24.915 68.24-.18 8.564 1.208 16.408 1.056 25.276-19.636 14.582-14.176 39.371-3.258 57.826-6.236 8.387-18.969 34.741-22.59 44.783-9.528 26.424-18.044 50.668-5.985 77.783-21.858 14.506-29.895 27.465-41.672 50.153-15.071-5.88-28.421-9.941-44.418-12.121-.295-6.262.688-38.782 1.662-45.337 14.985-9.045 28.689-20.098 24.743-39.113-3.182-15.333-10.579-28.473-11.262-45.285-1.874-11.681-14.096-32.496-23.66-38.524-56.338-35.505-120.849 9.656-110.804 74.084-9.63 21.086-6.574 41.363 17.649 49.343 4.206 12.243 10.123 33.602 14.067 46.786-35.425 7.663-64.917 21.56-86.119 52.445-10.244-3.857-20.577-7.708-31.102-10.724-8.893-2.549-17.272-4.216-26.011-7.373 2.177-14.331 5.947-29.452 7.098-43.828 6.159-3.004 9.067-4.468 13.611-9.363 13.221-14.242 7.727-27.79 4.192-44.518-.599-2.837-.353-9.286-.61-12.608-1.212-15.71-8.027-33.209-19.981-43.802-12.822-11.362-30.217-17.735-47.3-17.255-4.977.14-9.133 1.517-13.857 1.754 77.902-74.696 161.335-146.799 240.817-220.255a14093 14093 0 0 0 175.02-165.581c28.965-27.996 58.154-57.379 87.316-85.136m694.22 166.417 1.44 1.794c-.29 18.707 2.85 36.327 4.58 54.747 5.05 55.48 4.62 111.425 8.2 166.958 7.99 123.927 38.18 243.966 69.4 363.68 13.17 50.477 24.15 101.787 39.15 151.837 14.2 47.42 21.09 98.09 37.29 144.79-5.59.13-11.71-.04-17.35-.07-10.47-14.38-27.74-27.02-39.79-39.65-21.07-22.07-42.63-44.05-60.79-68.5-10.42-11.19-19.54-23.55-28.4-36.02 26.08-19.18 12.23-43.98 3.42-69.9a2908 2908 0 0 0-38.15-103.198c-15.16-39.357-13.4-51.229-53.16-70.821-2.39-9.011-7.19-19.068-10.06-28.161-4.79-15.12-9.47-30.147-14.81-45.09 7.31-12.842 8.98-23.527 5.67-38.035-4.27-18.755-1.76-31.331-12.26-48.446 8.61-6.083 24.24-12.997 34.08-17.631 15.74-7.411 30.51-14.53 45.9-22.758-7.82-8.275-20.45-16.807-29.78-23.8-21.81-16.352-44.73-31.288-66.07-48.318-.61-19.797.53-38.392.51-58.034-1.62-19.985-1.52-39.075-1.47-59.121.06-25.192-3.89-51.635-5.62-76.582 34.29-8.008 69.61-13.438 103.76-22.485 8.3-2.2 16.25-4.138 24.31-7.186m-1337.626 1.797.521-.006c3.964-.084 38.389 7.972 44.343 9.965 24.379 8.162 59.308 9.479 81.932 17.161-.295 21.443-2.91 43.268-2.941 64.52-.045 31.573.342 63.353.444 94.942.052 16.063 1.989 33.111 2.582 49.351-8.535 5.258-88.236 67.227-91.223 73.186-.438.873-.769 1.557-.292 2.492 3.218 6.307 46.608 20.17 56.484 24.979-8.576 13.91-7.321 26.719-4.004 42.441-7.332 16.534-5.598 28.238 4.917 43.024-4.018 14.023-7.266 45.859-9.439 62.19a1102 1102 0 0 0-12.557 5.999c-7.687 3.731-28.661 14.227-33.041 20.927-19.298 29.516-30.501 71.257-43.532 104.36-6.825 18.417-13.818 36.648-20.512 55.128-5.136 14.17-10.263 32.13 1.026 44.91 6.68 7.57 22.449 10.82 31.988 13.78l-29.358 44.18c-7.55 10.57-14.91 22.57-22.631 32.88-9.09 12.12-19.942 25.23-29.732 36.82a817 817 0 0 1-21.005 23.65c-4.199 4.52-8.989 8.6-12.464 13.5-15.411 2.27-23.471 2.86-38.977 1.95 4.523-20.44 9.444-38.32 14.343-58.35l34.103-141.08c16.374-69.267 30.844-137.713 44.101-207.654 4.756-25.089 13.202-52.083 17.248-77.705a2574 2574 0 0 0 15.317-111.796c1.475-13.787 1.047-28.447 2.702-41.936 7.122-58.057 7.6-116.213 12.131-174.444 1.82-23.392 4.722-46.073 7.526-69.364"/><path fill="#fefefe" d="M1071 732.696c16.55 2.919 22.55 8.967 28.09 24.848 3.88 11.113 8.04 22.192 10.08 33.85-8.33 5.854-22.65 10.823-28.93 17.786-.59 1.792-1.39 3.093-.4 4.854 5.34 9.452 14.6 20.132 18.93 29.901l.43.982c-16.87 51.312-36.78 102.221-53.92 153.512-2.26 6.761-8.49 16.831-3.8 22.621 3 .97 2.82.98 5.85.17 6.12-5.82 54.87-155.09 64.89-176.883-6.33-10.438-13.88-21.052-20.82-31.171 7.62-4.141 25.23-10.989 28.8-18.891 3.18-7.025-10.04-38.1-13.18-47.459 42.9 11.388 90.09 24.753 104.19 72.482 32.15 108.856 47.18 224.192 64.75 336.172 3.71 23.6 7.33 49.99 9.36 73.24-9.05.37-19.65.15-28.82.17l-72.81-.07c-4.33-15.67-10.26-34.57-13.58-50.14 14.9-7.31 19.8-7.37 16.06-26.39-3.45-17.56-7.71-35.31-10.57-52.94a496 496 0 0 1-4.61-39.03c-3.07-39.12 4.91-83.376 11.03-121.781 1.99-12.465 13.03-62.622 8.85-70.068-5.24-2.978-8.62-.01-9.26 5.487-7.45 63.659-24.94 127.092-20.8 191.652 2.01 31.35 10.89 62.28 14.76 93.36.23 1.85-.23 4.44-1.94 5.5-36.33 25.67-111.57 13.4-150.16 13.88.56-6.32 2.53-15.68 3.42-22.56a461 461 0 0 0 3.26-44.73c.24-15.21.18-30.43-.18-45.65-.49-15.87-2.49-34.75 2.25-49.93 5.59-17.948 6.43-35.259 9.5-53.488 10.41-61.87 16.35-124.288 24.68-186.455 1.88-14.135.9-28.817 4.6-42.831"/><path d="M1209.04 905.528c3.83 1.272 4.75 1.442 6.55 4.338-.79 7.069-19.03 34.189-23.83 41.606-3.99-1.346-5.59-2.076-7.65-5.28.6-5.312 20.44-35.731 24.93-40.664"/><path fill="#fefefe" d="M973.437 732.855c3.074.223 1.88-.39 3.882 1.474 2.775 12.429 2.946 28.046 4.646 40.939 10.751 81.572 21.275 163.353 35.385 244.402.83 4.76.84 13.54.96 18.57 1.07 47.76 3.22 98.75-6.04 145.64-40.32 4.88-104.084 3.18-142.107-11.64 7.03-30.52 14.596-66.46 14.949-98.04.274-58.41-5.727-116.95-14.7-174.632-1.349-8.676.29-25.559-6.002-30.488-3.691-.169-2.224-.486-5.403 1.361-4.211 8.708 8.507 81.019 9.837 96.971 2.47 29.628 5.911 60.158 6.049 90.498s-4.526 58.91-9.471 88.72c-1.651 10.25-6.242 23.1-6.643 32.79 5.382 2.63 11.18 4.56 16.825 6.58-2.656 13.9-7.18 26.09-11.945 39.37-16.799.44-33.604.61-50.409.53-15.734.17-31.469-.12-47.186-.86a15331 15331 0 0 0 32.451-209.7c9.127-60.617 18.314-141.325 42.166-197.753 21.794-51.557 57.793-54.175 102.213-71.271a205 205 0 0 1-7.626 25.121c-11.546 30.232-10.35 27.692 19.836 43.183-6.094 10.443-12.366 21.739-19.48 31.426 1.997 8.008 6.875 19.263 10.033 27.324l15.32 39.749c9.73 25.372 18.957 50.838 28.312 76.341 1.829 4.984 4.624 11.24 10.552 10.89 2.969-2.063 4.839-4.404 3.229-8.313a1154 1154 0 0 1-13.88-35.176 3103 3103 0 0 0-42.078-107.747c3.107-5.808 20.084-33.052 20.737-36.408-2.592-6.586-19.533-12.729-27.939-19.045l-.968-.739c4.645-13.788 8.977-30.22 14.717-43.41 4.596-10.559 9.907-13.137 19.778-16.657"/><path d="M832.057 908.745c1.07-.093 5.231-.448 6.033.166 10.494 8.042 17.088 30.007 22.707 41.93 2.002 4.249 1.016 5.216-.181 7.941-2.593.072-6.882.298-8.112-2.478-6.589-14.875-13.778-29.343-21.022-43.871z"/><path fill="#fefefe" d="M249.07 319.378c22.532 8.452 48.691 30.631 75.402 35.226 1.881.324 20.043 5.763 20.067 6.237 1.156 23.111-4.942 47.526-6.149 70.886-4.336 88.883-8.456 177.704-19.946 266.013-2.727 20.957-6.159 41.962-9.538 62.815-19.057 88.777-37.038 177.481-57.457 265.965q-13.26 56.85-27.386 113.49c-5.241 21.79-11.078 50.65-17.657 71.33-3.214 11.28-4.299 26-8.797 36.67-12.244 1.48-30.711 4.58-42.447 5.06-.96-21.35 4.065-65.14 5.293-87.93 6.378-101.1 17.1-201.87 32.138-302.043 10.693-68.062 24.925-135.475 31.375-204.161 1.191-12.685 1.285-25.499 2.194-38.212 1.481-20.732 4.168-41.452 5.819-62.19 1.48-18.592 7.951-132.681 12.409-140.78.811-1.473 1.582-2.78 1.939-4.456 1.249-5.863-.305-13.925-.03-20.18.397-9.014 1.689-17.988 2.157-27.004.804-15.506.645-31.207.614-46.736m1552.1-1.511 1.09.311c.14 6.379-1.66 17.088-.82 22.716 3.61 24.246 2.91 48.653 4.44 72.631 2.46 38.452 9.97 77.077 10.55 115.771.13 8.863.8 18.333 1.34 27.199a3059 3059 0 0 0 11.77 149.085c3.71 33.934 11.83 71.974 14.62 105.375 7.67 91.815 15.31 185.888 20.49 277.615 1.25 22.29 21.79 150.52 18.05 158.47-4.35 1.53-8.96.99-13.67.87-2.14-10.61-9.39-32.61-12.47-44.66-6.05-21.3-10.35-43.05-15.83-64.5l-36.85-142.131a4870 4870 0 0 1-38.21-151.454c-14.58-60.2-27.18-109.887-34.72-172.459-8.65-71.691-12.45-141.653-14.38-213.788-.92-34.201-7.07-65.655-6.46-99.502 12.9-4.481 26.88-8.145 39.43-13.185 17.83-7.158 35.18-18.308 51.63-28.364m-763.41 190.487c9.55 5.039 16.81 5.506 28.57 13.858 14.04 9.972 26.99 29.705 30 46.336-13.62-7.392-37.38-10.153-50.62-1.183-1.79 2.932-1.5 1.37-.72 4.872 2.57 2.465 1.34 1.896 4.68 2.705 14.58-5.387 27.03-1.796 41.83-.348 2.14.209 3.8-3.16 4.91-4.722l.78.475c.94 8.516 8.41 26.019 18.85 17.299 8.79-7.336 20.91-12.758 22.76 3.617 2.28 20.246-4.79 32.808-22.75 42.977-13.13 5.63-17.21-.982-20.68 18.81-3.63 20.746-19.08 28.698-33.56 40.678.86 23.509-3.63 64.065-8.33 87.09-10.17 5.755-52.89 8.447-59.896-.499-3.302-22.241-7.208-52.116-8.868-74.296 15.514 6.898 32.764 8.797 50.174 5.417 2-.389 2.27-1.516 2.97-2.908-3.03-3.347-30.98-6.557-37.45-8.167-5.597-1.396-10.792-3.358-16.014-5.773-36.432-16.851-31.274-44.473-41.177-50.487-6.008-3.65-16.967 1.149-25.409-3.455-7.379-4.023-11.371-12.066-13.629-19.82-1.686-5.786-4.589-17.441-.995-22.872 1.273-1.923 3.231-3.003 5.529-3.118 6.382-.319 12.272 6.023 16.696 9.823 6.94-2.768 10.405-6.398 16.3-10.704 21.605-15.78 27.878-14.28 52.384-14.19 2.293-2.068 1.573-1.27 2.28-4.939-3.819-9.076-17.068-5.913-25.109-4.897 21.178-14.153 52.704-40.38 66.494-61.579"/><path d="M1011.97 589.805c3.12-.134 3.38-.213 6.32.683 5.37 5.961 4.38 24.698 6.27 34.965 2.96 3.318 4.57 4.76 4.34 9.075-1.76 3.145-2.85 3.289-6.27 4.992-5.57-.76-11.21-.88-15.15-4.882-.18-4.754 5.7-7.063 5.65-9.925-.21-12.468-3.52-22.277-1.16-34.908m-16.557 63.668c7.667 1.843 20.487 9.469 29.037 6.839 5.19-1.597 9.09-4.818 15.58-6.162 3.71 1.031 2.45.161 4.89 3.033.6 4.042.84 2.402-1.04 6.177-11.32 9.258-29.43 8.742-42.53 4.144-8.009-2.812-8.788-7.243-5.937-14.031m-19.583-62.794c11.664.795 15.22 10.441 6.51 18.551-12.919-.321-16.28-10.585-6.51-18.551m89.05-5.818c12.4-.019 15.09 10.322 6.14 18.807-12.16-2.596-13.88-9.867-6.14-18.807"/><path fill="#fefefe" d="M1696.56 1108.18c.81-.07 1.63-.14 2.44-.22 20.56 31.5 99.21 118.39 122.46 136.86-13.16 1.3-31.77-.63-45.38-1.5-39.26-.71-78.5-1.81-117.73-3.3-3.9-40.52-9.78-80.88-12.4-121.71 18.02-5.91 32.88-5.78 50.61-10.13m-1319.345-9.43c6.591.61 19.557 3.63 23.875 9.13 5.741 7.31-4.239 101.55-5.829 114.93 2.294 3.72 5.158 9.29 2.356 13.25-3.637 1.38-8.142 1.16-12.089 1.34-28.817 1.31-57.452 4.01-86.279 5.44-8.374.01-25.277 2.05-34.443 2.75 29.964-28.55 56.006-63.68 79.152-97.87 10.746-15.87 21.811-33.87 33.257-48.97m618.748-304.882c11.057 1.504 25.147 3.037 36.287 2.511 6.69-.316 12.09-2.181 19.56-2.106.17 4.91-.36 9.602-.83 14.48-5.21 53.751-13.95 107.053-21.48 160.503-1.1 9.071-3.43 20.719-4.89 30.096-3.26-17.085-4.72-31.198-7.21-48.129l-11.73-81.406c-2.52-18.229-9.53-60.019-9.707-75.949m292.907 22.554q4.29-.42 8.61-.627c33.66-1.459 99.18 11.811 123.88 35.138 25.24 23.826 81.26 174.497 81.61 208.707.09 9.34-1.83 18.04-8.61 24.84-12.06 12.08-28.78 13.41-44.83 13.5 15.16-5.32 31.79-10.73 42.77-22.63 2.67-4.33 3.78-8.71 3.74-13.77-.21-28.87-50.49-169.64-70.84-189.126-7.03-6.733-15.84-11.946-24.3-16.705-38.87-21.88-80.44-26.134-124.36-22.481-15.68 1.304-31.28 5.732-46.98 6.005l-1.5-1.455c-1.28-3.645-1.6-4.322-1.44-8.146 7.94-5.532 50.35-11.845 62.25-13.25m-794.955 29.975c40.724-4.792 79.007 3.854 116.035 20.161-5.545 23.644-18.239 53.287-26.428 76.568-7.245 19.266-13.242 39.445-19.571 58.914-18.504 56.92-21.234 63 38.401 74-42.286 8.23-68.333-7.88-53.422-52.82 7.176-18.21 15.585-48.672 22.25-68.024 8.771-25.461 20.522-54.56 28.041-79.835-6.726-2.651-18.977-6.07-26.162-7.98-64.258-17.084-112.931-7.264-172.874 18.631a77 77 0 0 1 2.366-3.035c15.1-18.297 67.162-34.118 91.364-36.58m237.003-37.81c32.599-3.686 65.464 2.262 95.934 13.861-2.124 5.797-3.923 10.703-5.564 16.697-30.05-19.32-80.926-19.905-115.198-13.838-32.908 5.642-52.233 15.338-82.213 29.444 27.584-31.21 66.735-42.702 107.041-46.164m797.612 42.834a167.7 167.7 0 0 1 45.96 2.281c27.88 5.308 59.08 17.196 75.48 41.374-22.36-5.663-43.71-20.456-70.69-27.734-35.92-7.983-91.92-1.694-125.21 13.712-2.67-1.106-2.52-1.061-4.32-3.366-.75-17.934 65.6-25.321 78.78-26.267M610.564 1088.2c5.251 1.83 11.262 3.44 16.794 5.32 4.46 26.47 1.52 81.73 1.004 110.95l-.993 2.57c-3.454 1.4-5.567 1.95-8.684-.19-1.323-6.89-11.892-116.91-11.787-117.27zm820.336 13.29c2.36-.1 7.24.23 9.8.33l.4 68.77c.09 7.17 2.28 37.88-2.33 40.85l-1.92-4.07-12.24-71.37c-1.15-6.85-5.03-27.4-4.87-32.96 3.24-1.68 7.36-1.4 11.16-1.55M908.008 646.573c.799.443 5.261 3.058 4.637 4.335-15.88 32.487-24.816 64.769-25.142 101.152-.031 3.505-1.434 3.873-3.922 5.837l-2.808-1.317c-12.18-25.852 12.41-86.927 27.235-110.007m678.272 148.888c4.33 4.03 16.92 46.033 18.47 53.961l-1.26.967-4.73-1.083c-7.03-2.362-15.59-3.553-21.87-6.324 1.46-12.989 2.68-26.002 3.67-39.035 1.92-2.424 3.99-5.833 5.72-8.486m-563.23 392.449c10.67.1 19.53.22 30.13 1.18-.22 5.41.24 11.31.53 16.76-7.36.39-17.16.19-24.71.25q-14.91 0-29.819-.39c-.142-4.88-.73-7.31 1.499-11.14 7.52-4.71 13.21 3.57 22.37-6.66m109.91-551.23c3.11 4.237 4.58 15.563 7.05 21.243 14.65 33.621 27.37 53.803 19.2 91.854l-.32 1.496-1.43.484-1.4-1.473c-1.59-11.503-1.57-21.294-4.18-32.941-4.95-22.059-21-59.081-18.92-80.663m348.08 164.723c5.7 4.386 9.12 35.05 10.45 43.791-9.41 2.377-19.86 5.285-28.94 8.638l-5.97 1.725c-.1-2.214 5.06-11.162 6.4-13.604 7.18-13.082 12.47-26.732 18.06-40.55m-1020.394-5.985c3.971 6.714 12.711 34.097 15.524 42.905l-9.437 3.193-13.185 3.267c2.534-12.675 4.875-35.212 7.098-49.365m631.104-318.872c27.17 8.325 34.66 51.082 34 75.313l-.34.068c-5.14-27.361-14.33-54.549-33.66-75.381"/></svg>