<svg xmlns="http://www.w3.org/2000/svg" preserveAspectRatio="xMidYMid meet" viewBox="0 0 2048 2048"><path d="M1015.74 151.442c98.51-2.133 193.53 8.902 286.21 43.052 16.57 6.105 34.91 10.286 51.26 16.981 105.74 43.496 210.29 103.399 294.96 180.677 48.55 44.306 92.04 91.298 126.99 147.153 19.43 31.039 42.05 59.605 60.85 91.201a793.2 793.2 0 0 1 110.28 381.014c.45 12.52-.97 25.99-1.54 38.64-4.16 91.66-24.08 184.08-52.81 271.01-22.7 68.71-58.7 130.34-99.92 189.54a962 962 0 0 1-91.43 113.94c-106.98 113.2-264.91 205.11-414.97 247.84-67.75 19.29-146.18 36.71-216.87 38.58-41.14 1.91-71.18 2.13-112.298-.86-42.587-2.07-87.571-5.49-129.444-14.35-76.041-16.09-149.364-43.65-218.149-79.67-58.135-30.45-112.904-64.11-161.677-108.67-22.09-20.18-45.566-42.16-66.048-64.12-23.377-29.44-51.969-59.2-74.304-88.79-92.611-122.7-157.234-269.11-166.161-423.83-1.156-20.04-4.624-40.67-5.423-60.83-1.661-44.04 3.012-88.467 9.593-131.967 5.764-40.078 11.657-78.72 22.839-117.79 31.221-108.642 82.759-212.056 148.998-303.564 50.16-69.295 110.584-131.346 177.445-184.699 16.687-13.121 35.372-23.93 52.734-35.965 49.903-34.593 97.789-58.187 154.228-79.789a979.9 979.9 0 0 1 314.657-64.734"/><path fill="#fefefe" d="M1668.44 564.616c4.65 3.396 17.69 21.631 21.92 27.482a658 658 0 0 1 36.01 54.654c38.5 64.395 61.96 144.028 79.95 217.094 3.88 15.756 3.77 37.831 6.38 54.704 4.89 31.636 11.1 63.487 13.1 95.44 2 34.82-3.02 68.88-6.25 103.02-11.62 122.82-59.92 240.63-125.46 344.25-2.45 3.88-6.22 8.92-11.01 9.84-7.89-3.89-18.11-11.73-25.38-17.2-45.63-34.31-92.45-68.47-137.7-103.14l-62.6-47.89c-12.66-9.79-20.46-17.43-34.11-26.81-8.9-58.7-6.21-109.72-49.26-158.68-20.53-23.35-48.56-52.94-52.73-84.99-4.44-43.942 6.61-98.063 17.21-141.061 12.18-49.417 26.51-97.671 32.03-148.88 4 19.084-.53 61.557 4.07 74.474 2 .755 3.42 1.226 5.73-.148 13.29-7.914 27.2-18.783 39.33-28.152l75.2-59.123c54.63-43.23 111.26-84.1 163.7-130.058 15.46-13.545 19.19-16.162 9.87-34.826M386.58 588.575c21.393 14.511 40.625 31.798 61.166 46.658 19.967 14.444 37.526 29.325 56.88 44l113.014 86.54c14.978 11.5 30.406 21.493 44.863 33.62-11.635 32.635-39.463 72.988-44.92 106.954-1.355 8.435.418 17.263 5.617 24.141 10.886 14.401 27.688 14.604 43.778 16.759 3.497 2.783 5.781 14.815 6.903 19.359 9.143 37.044 23.3 72.624 38.492 107.554 6.681 15.37 13.121 32.54 21.937 46.83 10.227 5.42 42.755 12.75 55.992 16.09-29.489 14.81-58.798 33.72-84.897 53.88-21.265 16.43-14.44 37.9-5.789 59-14.476 12.69-25.814 20.72-40.504 32.28a2011 2011 0 0 1-103.97 76.92c-21.936 14.75-41.759 35.52-62.45 52.14-16.697 13.41-36.451 25.07-52.648 38.87-17.583 14.97-50.621 29.93-64.324 46.92-11.616-19.04-21.377-36.34-32.134-55.93-6.231-11.35-14.651-22.45-20.907-34.34a754.4 754.4 0 0 1-81.042-257.08c-2.924-24.12-2.057-47.14-3.346-71.03-3.093-57.34 8.313-109.376 18.705-165.012 14.137-75.681 33.587-148.849 69.568-217.462 13.2-25.171 23.023-51.517 39.489-75.343 7.608-11.379 11.334-20.531 20.527-32.318"/><path fill="#fefefe" d="M1683.97 469.842c11.53 8.479 39.47 46.193 48.51 59.002 9.81 13.901 24.49 30.832 33.51 44.592 15.53 23.699 29.76 49.155 42.71 74.335 8.82 17.138 18.96 32.669 27.26 50.748 22.77 49.62 41.9 100.202 55.56 153.069 7.07 27.373 10.16 62.061 13.2 90.235a855.3 855.3 0 0 1-61.15 416.087c-16.69 39.87-42.03 86.91-63.89 124.45-21.44 36.81-54.64 76.29-83.36 107.91-23.02 25.33-50.73 53.65-76.3 76.33-20.5 18.18-47.7 36.29-70.41 51.69a991 991 0 0 1-317.62 144.61c-32.92 8.57-78.56 16.35-112.51 19.73-19.11 1.9-48.44 1.6-68.49 2.2-23.62.7-57.959 4.71-80.397 3.75-66.541-2.86-135.136-13.07-199.143-31.62-14.854-4.63-31.756-7.44-46.171-13.1-49.764-19.53-101.86-45.39-148.209-71.83-53.084-30.29-101.169-70.64-145.302-112.4-36.344-32.3-65.402-71.12-96.267-108.38-39.143-47.24-72.221-99.29-99.713-154.14-25.522-50.92-42.721-107.17-57.052-162.11-14.062-53.9-13.212-106.74-18.875-161.68-.839-8.42.403-17.81.213-26.32-1.033-22.98 1.08-44.43 4.582-67.101 1.631-11.102 1.909-23.176 3.44-34.509a962 962 0 0 1 76.445-261.821c4.323-9.319 10.301-19.311 15.145-28.479a1882 1882 0 0 1 44.786-80.057c11.241-17.744 26.952-39.242 39.037-57.281 13.752 12.099 27.172 19.911 41.617 33.98a805.5 805.5 0 0 0-101.625 182.197c-41.468 103.87-62.957 228.231-65.025 339.081-1.568 84.04 9.001 164.27 40.39 241.85 7.553 18.67 14.528 46.33 24.663 63.62 15.58 26.58 29.85 53.09 44.917 79.93 5.331 9.54 11.052 21.42 17.121 30.17 67.911 97.89 157.847 185.59 261.785 244.38 119.848 68.17 261.11 111.76 400.008 102.34 33.19-2.25 70.52-3.27 103.05-7.14 83.58-9.97 179.41-38.53 256.39-72.09a866.8 866.8 0 0 0 236.53-155.06c25.55-23.16 47.21-43.17 68.97-70.37 17.58-21.99 38.43-46.93 54.14-70.22a738.45 738.45 0 0 0 112.11-284.23c2.44-14.58 1.7-31.64 4.35-45.35 26.45-136.68 2.59-277.723-52.3-404.489-7.2-16.636-13.35-33.987-21.16-50.728-15.71-33.709-36.67-64.886-57.93-95.334-19.83-29.056-39.07-54.107-66.44-76.807 12.02-12.012 26.36-21.586 38.9-33.64"/><path fill="#fefefe" d="M1364.32 1316.85c12.98 5.16 77.06 118.09 86.69 136.15 22.66 43.21 42.75 87.72 60.15 133.3 5.97 15.2 14.88 33.01 18.78 48.21-8.15 8.6-24.95 16.53-35.74 23.32-82.97 52.26-185.75 101.21-280.06 126.78-36.68 10.59-76.59 17.09-114.55 20.46-6.86.61-13.53.6-20.35 1.83-5.63-42.67-5.9-81.29-5.51-124.09.29-30.79-2.77-71.42 3.54-101.18 4.8-22.57 17.31-78.56 29.34-97.72 35.14-55.98 115.22-97.75 173.06-126.65 12.55-6.27 32.45-11.66 46.01-17.7 15.89-7.08 24.81-13.12 38.64-22.71M979.201 246.613c13.858-1.159 27.729-.312 41.439-.309 104.58.03 203.58 29.003 301.76 62.227 29.02 9.819 65.75 27.136 92.96 41.449 14.61 7.68 84.44 50.521 87.42 60.668l-.12.13c-5.94.102-16.04-4.89-21.5-7.445-17.55 8.773-56.43 48.134-73.49 62.313-18.34 15.245-38.92 33.808-56.5 50.054-1.61 1.488-7.26 7.662-7.4 8.903-1.09 9.533-.76 27.501-.78 36.648-6.97-9.168-13.11-20.439-19.59-30.244-20.53-31.069-56.39-49.51-86.85-69.788-46.38-30.886-106.94-43.701-161.08-53.802-20.89-1.028-40.56-4.114-61.83-3.635-112.743 2.536-296.091 33.574-339.411 156.607-1.541-24.989 4.6-28.386 8.626-51.845.595-6.191.439-7.383-3.523-11.842-7.356-8.119-16.473-15.259-25.232-21.851-23.132-17.41-42.202-38.945-63.593-58.249-9.874-8.911-22.086-18.304-35.857-19.064 7.235-13.564 118.766-73.057 139.288-82.419a788.3 788.3 0 0 1 285.263-68.506M728.77 612.912c6.221 9.373 15.634 28.962 22.338 37.065 34.696 41.189 77.375 83.517 127.106 105.744 24.855 9.931 52.045 17.883 76.368 28.72 11.001 4.902 5.238 50.953 4.666 61.766a696 696 0 0 0-.723 37.848 170 170 0 0 0 5.169 38.062c2.825 10.713 21.885 59.331 35.835 53.509 3.251-4.98-3.812-24.244-4.694-30.682-7.29-53.217 6.245-103.37 9.285-156.829 14.26-14.372 38.03-30.834 59.2-26.589 24.07 4.827 31.95 37.092 26.45 57.708-5.33 19.964-26.56 37.872-45.34 45.052-6.19 2.356-16.9 4.185-22.25 7.372l.01 3.147c1.47 2.962 4.76 4.866 6.2 5.327 2.37 2.515-.64 21.826-1.19 25.506-7.03 47.138 2.3 106.172 28.29 147.252-10.26 3.52-28.99 17.61-38.47 23.86-55.632 36.68-121.158 63.05-188.765 49.72-11.919-2.35-23.176-7.14-34.631-9.54-16.805-3.52-30.399-4.92-46.988-10.76-14.966-34.45-31.586-72.78-42.718-108.264 16.4-.413 31.784-.458 47.385-6.159 4.806-1.756 15.785-3.585 18.578-7.741-.52-6.89-5.979-8.388-12.041-7.216-8.307 1.606-15.199 6.674-23.846 8.279-11.182 2.076-23.321.533-34.263 2.835a609 609 0 0 0-14.753-46.768c8.566-1.512 22.191-2.742 27.715-9.315.395-2.451.519-4.364-1.16-6.46-5.637-7.032-48.124 6.994-65.217 2.093-4.456-1.278-8.585-3.538-10.777-7.79-1.862-3.612-1.98-7.796-1.359-11.739 1.633-10.374 7.072-20.866 11.069-30.502 8.941-21.554 18.528-42.467 29.104-63.281 9.168-18.042 19.665-35.426 26.355-54.615 9.255-26.543 5.936-44.08-3.072-70.061-3.718-10.726-7.624-21.584-12.568-31.81 21.491-18.189 26.543-23.468 43.702-44.744"/><path d="M749.283 713.533c26.349.229 69.136 13.296 84.284 40.897.747 1.361-.368 2.124-1.292 3.418-7.818 2.071-12.928-3.323-21.566-7.443-15.638-5.765-38.093-11.727-54.585-11.688-9.086.021-20.816 1.629-29.52.591-4.148-2.237-5.31-4.789-6.776-9.223-6.091-18.418 16.631-16.019 29.455-16.552m296.757 65.85c10.24-.903 35.99 3.954 27.79 18.458-14.82 3.874-18.17-21.469-41.69 4.697 13.83 7.564 19.48 12.334 15.74 28.763-1.71 3.231-4.01 7.597-7.1 9.623-3.45 2.265-10.48 4.179-13.25.356.66-7.102 7.74-11.427 9.73-19.631-.95-3.516-.77-3.463-3.51-6.148-3.53-1.535-7.93.131-12.23-.005-16.21-11.235 12.81-32.449 24.52-36.113m-294.66-7.07c21.119 2.843 11.77 45.895-4.643 52.047-8.649-.642-11.996-7.836-12.409-15.609-.765-14.429-1.168-34.827 17.052-36.438"/><path fill="#fefefe" d="M1343.61 1292.89c4.94 1.59 10.18 9.44 13.64 13.81-26.96 22.59-52.34 26.82-83.25 40.39-23.64 10.38-49.25 25.12-71.24 38.67-16.16 9.96-36.03 20.95-50.78 32.69-15.47 12.31-33.39 28.4-46.69 43.08-7.51 8.29-17.22 20.22-22.6 29.98-7.15 11.89-10.36 25.89-14.97 38.56-16.24 44.54-17.21 92.02-15.12 138.88.71 15.98.02 33.12.86 49.54 1.52 29.42 5.02 58.81 6.56 88.31-18.87 2.26-37.9.82-56.36 1.67-79.341 3.65-155.648-9.33-231.231-33.19-20.2-6.38-41.038-11.94-60.739-21.02l5.545-7.3c5.12-6.05 17.597-40.55 22.266-50.27 6.983-16.84 17.915-34.13 24.975-50.64 36.115-84.49 91.908-155.87 150.388-225.88 4.251-5.09 30.813-40.17 34.267-42.39 12.627 17 11.44 74.45 30.966 94.32 29.523 6.12 48.513-12.23 74.523-23.14 9.62-4.04 19.02-10.25 28.44-14.97a4029 4029 0 0 0 260.55-141.1M1043.33 177.754c35.67 1.622 71.24 2.059 106.45 9.113 31.27 6.146 62.74 7.253 93.71 15.46 73.32 19.431 143.76 47.497 209.87 84.499 77.26 43.246 157.58 96.669 215.25 164.65-7.71 7.609-14.07 14.091-22.63 20.818l-15.66 12.88c-13.16-9.627-21.93-21.864-33.73-30.802-22.38-16.799-43.64-37.111-65.48-54.138-109.83-85.636-226.48-135.105-362.2-163.07a715 715 0 0 0-83.7-11.939c-14.71-1.32-36.37-1.535-50.24-4.749-.04-15.851-1.66-29.731 8.36-42.722m-36.16-1.269c3.49-.399 3.5-.52 7.11.197 1.45 9.196-4.08 20.939-1.14 32.23-2.08 3.95-1.6 6.545-2.65 10.836-3.9 3.456-27.146 2.49-33.351 2.738-167.262 6.863-322.862 62.42-451.591 170.264-58.525 49.031-84.622 76.125-129.66 136.994-5.631-3.701-12.813-9.442-18.329-13.596l-20.812-15.364c10.374-17.948 39.837-46.106 54.899-62.004a902 902 0 0 1 119.121-106.453c25.424-18.562 71.22-46.649 98.885-60.689 106.757-54.176 230.934-87.339 350.384-94.368 8.206-.483 17.814.282 25.784-.622z"/><path fill="#fefefe" d="M1063.99 1073.07c8.2-.81 14.24 6.98 20.2 12.4-4.32 1.45-8.69 2.75-12.89 4.52-22.28 9.4-129.373 74.51-136.242 94.14-1.635 4.68-.526 9.87.757 14.48 3.363 12.07 9.813 23.34 13.855 35.23 7.233 21.29 12.831 43.23 19.66 64.66 6.449 20.24 14.166 39.87 20.072 60.33 4.935 17.09 4.836 37.75 12.628 53.58 3.27 6.64 7.89 8.85 14.59 11.28 19.35-5.08 39.38-17.39 57.02-26.42l87.64-44.99c40.41-20.81 82.71-36.76 120.27-63.59 7.04-5.02 40.92-28.96 46.19-28.72l1.38 1.63c1.1 5.76-.73 16.73-5.64 20.54-14.57 9.02-28.9 15.29-43.89 23.3-22.69 12.12-45.08 24.89-67.93 36.75-8.46 4.39-16.72 11.45-25.14 15.91-43.32 22.99-86.13 45.44-130.5 66.4-22.39 10.58-37.94 21.77-62.395 27.78-10.702-20.88-14.125-55.47-22.02-78.48-22.318-65.04-38.852-132.91-59.79-198.14 3.458-5.18 13.915-16.79 18.976-20.17 41.045-27.47 86.799-66.03 133.199-82.42m-294.556 152.64.985.93c-1.309 6.14-5.38 14.1-4.752 22.14 3.948 50.52 27.705 105.84 56.664 146.94 8.459 12 35.06 39.99 45.098 50.4-10.023 9.76-17.929 19.53-26.88 30.25l-1.409 1.1c-8.367-3.32-43.281-44.38-49.983-54.01-22.293-32.02-37.671-70.5-46.562-108.37-2.643-11.26-7.123-23.77-5.02-35.21 2.985-16.22 18.707-44.77 31.859-54.17"/><path fill="#fefefe" d="m897.244 1156.65 1.996 1.27c-.477 4.87-7.691 10.22-11.612 13.84 1.558 3.18 3.046 8.35 4.18 11.85-9.05 9-65.301 66.06-64.094 71.71 6.551.16 11.54-7.95 16.442-12.44 17.574-16.11 33.428-33.93 49.693-51.31 2.603 7.39 4.513 12.28 5.816 19.96-9.375 6.87-31.338 39.85-39.814 51.56-6.208 9.26-13.109 19.65-20.06 28.27-11.21 13.9-23.63 27.66-33.162 42.88-9.273-19.44-16.926-43.69-19.848-64.92 8.242-7.36 14.312-18.6 22.591-26.46 14.038-13.39 28.755-26.59 43.747-38.92 14.841-12.21 22.55-19.62 30.08-37.44 6.321-3.71 8.56-4.91 14.045-9.85m-166.608 159.02c1.984 2.02 11.022 31.91 12.678 37.44 16.772 55.94 47.904 94.73 89.553 134.57l-16.853 22.71-4.377 5.72c-25.691-17.67-60.053-76.54-72.664-106.9-6.732-16.21-11.466-40-18.38-56.21l-.57-1.32c3.175-12.06 6.974-24.07 10.613-36.01"/><path fill="#fefefe" d="M714.121 1367.55c3.135 7.66 5.632 20.17 9.098 28.99 21.822 55.54 41.724 85.95 81.085 129.46-3.607 6.55-8.905 13.95-13.167 20.26-.625 1.1-3.542 6.58-5.324 5.02-31.271-27.32-57.777-68.19-69.443-108.3-4.342-14.92-5.504-35.43-11.836-48.91a190.4 190.4 0 0 1 9.587-26.52m201.447-101.77c2.877 2.94 6.823 24.21 8.499 29.29 4.799 14.53-3.848 32.27-8.837 46.36-10.363 29.25-22.053 58.44-38.736 84.82.166 4 .986 6.58-3.068 8.29l-6.005-5.86c-6.996-7.73-12.009-13.42-18.342-21.83 12.528-22.97 24.972-47.03 35.367-70.96 10.244-23.58 20.185-46.83 31.122-70.11m-253.092 247.91c2.601 2.52 12.655 31.48 16.253 38.25 18.327 34.53 36.197 52.88 66.249 76.37-5.039 9.23-10.253 20.19-15.253 29.73l-3.771 7.42c-30.344-26.36-43.185-42.36-60.701-79.13-15.003-31.5-13.86-41.19-2.777-72.64"/><path fill="#fefefe" d="M681.867 1456.94c2.58 3.07 8.127 30.36 10.433 36.82 11.154 31.25 30.873 57.36 53.867 80.87 5.172 5.29 11.911 13.04 18.443 16.1-4.348 9.12-10.013 18.62-14.696 28.07-4.805-.68-14.105-10.18-17.973-13.85-31.771-30.15-50.433-65.03-63.699-106.45 3.024-13.06 9.058-28.65 13.625-41.56"/><path fill="#fefefe" d="M698.612 1405.86c2.999 3.32 4.396 27.59 6.191 34.01 14.051 50.23 40.685 87.17 77.527 123.03-6.49 7.47-8.338 10.78-12.387 19.35-4.835-1.58-17.813-16.23-21.902-20.49-22.656-23.59-40.475-49.6-48.905-81.67-3.663-13.94-6.791-28.61-11.44-42.32 3.542-6.82 8.315-23.79 10.916-31.91m206.104-171.24c3.286 3.12 5.06 11.94 6.367 16.63-3.088 11-13.157 29.49-17.92 40.8-15.226 36.13-32.425 70.88-50.205 105.83l-5.247-7.37c-5.03-6.83-9.435-12.54-13.537-20.02 4.66-9.97 11.781-20.86 17.58-30.44l42.114-68.65c7.032-11.69 15.24-24.46 20.848-36.78m-89.505-92.65c5.573 1.77 18.71 4.53 24.899 5.16 3.185.32-.405-.82 2.848.45-21.64 5.59-95.87 48.96-110.846 66.98-.133 8.11 3.123 20.72 2.47 22.96-3.27 4.46-7.416 9.45-10.906 13.84-8.655-8.7-13.069-29.36-9.332-41.06 2.296-7.19 12.869-14.03 18.803-18.82 25.322-20.44 52.699-35.74 82.064-49.51m-167.922 431.75c.755.94 8.39 18.05 9.672 20.64 17.03 34.46 35.611 55.82 64.078 81-2.738 5.32-4.679 11.59-6.641 17.3l-1.298 1.09c-17.938-16.77-32.292-33.74-47.185-53-21.717-28.08-22.323-32.69-18.626-67.03m63.624-1034.682.501.673c-.117 9.496 5.113 41.883 7.753 51.15-13.433 17.475-17.311 25.504-35.755 40.254-2.004 1.622-4.041 3.16-6.087 4.728l-1.241-.398c-.854-29.808 14.953-73.484 34.829-96.407M644.052 1628.39c3.846 2.3 14.954 18.6 18.497 23.05 14.355 18.04 28.426 35.73 46.299 50.55-1.898 5.52-4.343 10.01-6.983 15.17l-1.53 2.54-1.906-.34c-16.511-14.38-34.271-35.59-46.972-53.62-9.842-13.98-10.657-20.95-7.405-37.35m256.655-407.48c.868 1.12 1.709 4.19 1.872 5.69.367 3.38.71 2.37-.912 5.12-12.918 21.85-28.743 42.15-42.411 63.47a2504 2504 0 0 1-26.911 41.04c-4.452 6.65-7.297 14.3-12.775 21.27l-1.485-.66c-2.396-4.39-4.961-9.79-7.244-14.32 7.003-7.92 14.664-18.44 20.969-27.07 22.736-31.11 48.064-62.19 68.897-94.54M642.66 1672.52c3.265 2.54 17.349 21.06 22.189 26.24 9.246 9.89 20.429 21.82 29.9 31.86 1.36 1.44-.876 5.74-1.767 8.25-5.436 4.5-39.147-15.26-44.741-18.67-2.858-10.97-5.838-36.4-5.581-47.68M866.853 1176l.634 1.32c-9.878 13.33-46.79 40.14-60.062 53.66-4.745 4.83-21.102 23.47-24.459 25.65-1.799-7.67-1.734-14.47-1.36-22.23 13.36-8.51 28.223-21.76 41.619-30.97 14.261-9.8 28.804-18.54 43.628-27.43m206.507-196.253c1.13 1.793.85.964 1.21 2.855 5.09 26.778 11.61 50.138 32.57 68.928 5.84 5.23 13.67 10.11 17.88 13.95l1.14 1.08c-3.8.46-8.65 1.19-12.39.98-41.23-2.31-41.53-59.75-40.41-87.793M891.704 1147.34c2.851-.1 3.089-.23 5.808.45-1.886 2.54-21.876 11.35-27.173 14.54-29.658 17.89-56.731 38.2-85.041 57.83-1.649 1.93-.947 1.37-3.149 2.68l-.449-1.66c1.594-4.14 5.801-7.6 9.264-10.27 27.255-21.03 66.153-58.46 100.74-63.57m38.47 181.25c2.921 11.67 3.966 21.29 7.61 33.38-13.177 17.7-21.791 28.3-36.971 44.35-1.048.93-2.158 1.67-3.3 2.49-.283-1.94 7.112-15.81 8.474-18.9 8.446-19.11 17.825-41.54 24.187-61.32"/></svg>