<svg xmlns="http://www.w3.org/2000/svg" preserveAspectRatio="none" style="display:block" viewBox="0 0 2048 1462"><path fill="#fefefe" d="M0 0h2048v1462H0z"/><path d="M1002.75 168.421c54.57-2.875 86.72 9.692 131.02 38.983 4.42-4.078 7.4-6.164 13.23-7.896a37.72 37.72 0 0 1 29.57 3.492c11.14 6.334 17.54 15.839 21 27.934 16.65-9.679 35.32-7.485 45.73 10.25 3.61 6.155 3.14 10.605 3.37 17.522 1.62 1.433 8.39-.949 11.27-.721 29.59 2.339 35.42 18.949 33.27 44.414 1.95 1.642 14.4 2.708 19.17 4.783 20.18 8.78 20.81 24.712 12.21 42.721 14.06 3.677 21.39 13.304 24.02 27.116 29.44 5.865 39.76 23.462 47.63 50.288 40.77 37.714 45.07 85.148 40.45 137.409q2.175-2.432 4.44-4.788c18.72-19.404 51.27-33.421 73.76-11.701.2-.485.39-.967.59-1.448 8.32-19.681 18.1-13.794 28.92-18.301 1.83-3.518 1.22-10.527 1.7-14.797 2.49-22.391 21.65-27.094 40.8-25.629 7.94-27.035 24.63-40.054 52.16-27.081a79 79 0 0 1 2.1-5.35c17.82-41.047 68.09-37.263 83.39 5.992 26.68-13.939 43.75-.848 48.93 26.914 12.77-6.083 31.84-.443 37.97 12.681 4.49 9.627 4.57 13.656 3.08 23.867 8.31-.103 12.41.166 19.63 4.994a30.82 30.82 0 0 1 12.75 32.554c-.39 1.663-2.9 6.778-2.88 6.79 8.12 6.121 11.77 8.621 13.91 19.083.73 3.597.54 8.747-1.84 11.684-1.73 2.14-3.51 3.17-6.23 3.252-10.28.311-21.04.14-31.3.101l-61.79-.146c-76.77.031-158.8-1.208-234.98.559 14.39 32.551 5.36 70.871-11.99 100.594 80.02-14.743 174.64 2.694 197.92 93.702 8.07 31.561 5.92 58.283 1.46 90.405 10.97.821 21.29 1.386 31.99 4.196a91.85 91.85 0 0 1 56.25 42.911c17.75 30.561 18.42 70.406 9.42 103.856-3.35-.99-6.3-1.61-9.22-3.49-.64-4.09.35-7.58 1.14-11.71 5.46-28.558 1.52-65.602-15.44-89.709a80.76 80.76 0 0 0-55.7-33.114c-9.78-1.149-19.76-.562-29.55-2.199-1.24-1.79-1.39-4.347-1.09-6.444 5.88-40.562 9.54-80.125-10.14-117.992-29.75-57.816-101.05-68.583-159.42-61.401-6.93.854-28.98 6.566-33.23 5.256-.89-1.204-2.33-2.779-1.61-4.491 9.28-21.651 21.48-40.822 24.37-64.734 3.38-26.192-5.18-60.065-36.19-62.848-22.54-2.022-38.99 10.648-54.46 24.975-1.78 1.642-3.47 1.391-5.56.989-1.36-1.327-2.92-2.157-2.4-4.366 17.04-72.046 16.14-173.623-74.46-192.536-12.4-2.567-25.24-.858-37.6-1.218-66.45-1.937-120.56 16.414-133.9 90.535 20.49 17.089 42.83 32.027 68.18 40.904-7.1-8.917-9.92-7.9-14.96-20.01 1.47-10.656 5.54-18.021 1.62-28.664-.89-2.404 10.59-17.667 10.68-20.685-.1-5.637-2.78-13.969 3.96-17.517 39.82-20.972 80.78 6.104 71.68 51.445-3.88 19.361-12.79 29.075-27.23 38.888-.34 5.037-.97 10.466-1.45 15.528 3.58 3.806 10.8 11.437 13.61 15.182 6.88 10.587 12.55 29.377 12.54 42.023-.05 36.099-6.31 75.528-11.52 111.207 46.22-5.569 83.85 14.921 103.19 57.999 8.95 19.919 9.99 36.965 8.98 58.217 42.14-10.791 83.61 5.493 106.31 42.698 6.74 11.045 9.87 21.305 13.9 33.452-12.95 15.89-18.31 23.944-23.46 44.409-36.13-8.333-67.38 2.837-87.92 34.871-6.8 10.61-8.89 22.49-11.62 34.59-54.54-10.35-98.07 31.85-87.23 86.34-44.57 12.07-58.81 47.79-47.67 90.34-16.61 14.8-27.64 30.5-29.67 53.19-.43 4.84-1.42 7.89 1.23 12.19 3.59.38 4.11.35 7.64-.44 1.9-3.26 1.54-9.68 2.34-14.27 3.54-20.45 15.74-35.73 32.33-47.5-3.44-6.5-5.31-10.17-6.6-17.45-2.6-15.05.84-30.52 9.59-43.04 10.08-14.3 26.64-23.58 43.72-26.43-18.9-54.26 31.78-100.03 85.44-77.92-1.21-31.87 10.8-57.459 41-71.009 21.06-9.452 35.46-6.219 55.98 1.583 14.33-97.311 149.13-103.774 165.74.507 13.46-3.66 28.1-8.435 42.06-7.061 40.73 4.01 63.62 35.1 60.64 74.37 45.67-12.36 87.18 11.67 82.17 63.42-.57 5.88-2.54 10.4-4.85 15.82 8.8.8 13.67 1.82 21.78 5.62a58.3 58.3 0 0 1 30.29 33.26c6.41 17.89 3.3 32.3-4.53 48.59a61 61 0 0 1 28.27 18.54c14.98 17.67 14.3 34.78 12.37 56.08-77.8 2.22-156.51-1.76-234.47 1.4-15.43.63-31.02-1.27-46.41-1.25l-364.73 1.4-130.09-1.05c-20.43-.09-38.91-.76-59.47-.07l-697.253-1.49c-13.707-.06-27.684 2.04-41.442 1.69-32.336-1.81-64.407-.96-96.739-1.62-10.145-.2-20.818 1.44-30.891 1.21-48.398-1.07-97.067 0-145.45-.89-8.697-33.23 5.265-58.54 34.78-73.92-15.795-32.3-3.775-65.82 29.587-81.12 6.797-3.12 13.296-3.86 20.609-5.08-19.507-31.18-4.847-63.07 27.447-79.09 15.284-7.58 34.637-4.79 50.171 1.46-.488-16.78.006-30.03 8.132-45.36 18.056-34.048 57.246-40.873 89.379-23.202 1.838-13.362 5.607-25.545 12.826-37.006a84.24 84.24 0 0 1 52.696-37.511c22.147-4.954 45.842-1.53 64.724 11.093 25.932 17.336 34.189 36.755 40.416 65.508 8.746-4.635 16.597-8.019 26.478-9.675a61.38 61.38 0 0 1 45.988 10.747c22.13 16.136 25.953 34.366 26.322 59.906.061 4.24 16.943.12 20.495-.32a58.62 58.62 0 0 1 39.59 9.32c16.805 11.29 27.931 35.76 22.901 55.8-1.496 5.96-5.824 15.34-4.82 20.43 2.92 2.57 11.619 2.18 16.525 3.31 25.366 5.72 47.968 35.99 38.735 61.97-1.154 3.25-7.223 16.26-5.116 17.35 10.693 5.51 19.462 14.08 27.596 22.1 8.644 8.53 9.013 37.98 11.746 41.36 3.627.13 5.024.85 7.47-.93 1.158-4.69-.672-19.6-1.848-24.49-5.212-21.68-15.26-31.66-32.911-43.1 7.429-19.43 6.794-36.33-3.821-54.83-10.753-18.74-25.418-25.43-45.579-30.5 10.689-57.1-22.622-96.07-81.4-86.38-1.977-33.39-16.011-57.445-49.24-69.679-14.635-5.387-37.61-4.724-51.716 2.399a99.56 99.56 0 0 0-25.277-47.228c12.942-23.857 14.749-39.762 40.334-58.49 29.205-21.378 51.762-22.796 85.657-17.895-5.74-67.697 37.764-125.966 109.883-117.929 10.488 1.169 19.912 5.031 29.706 8.707 5.088-36.39 23.331-64.027 58.008-78.54 16.142-6.756 29.295-7.122 46.302-7.177 3.265-25.951 4.081-52.762 5.605-78.677 1.838-30.636 6.735-55.552-4.087-85.251-22.268-62.526-118.23-67.977-171.842-48.931-63.332 22.499-79.606 93.629-76.285 153.688.372 6.734 3.659 16.489-3.715 19.187-7.718-.991-24.926-23.278-37.911-28.433-16.712-6.634-33.965-6.126-48.178 6.388-29.59 26.051-18.935 70.451-3.248 101.033 3.803 7.416 12.775 15.829 9.114 23.641-5.064 1.483-39.21-5.774-48.929-6.55-105.692-8.441-169.781 53.086-155.15 160.466.943 6.922 5.31 25.866 1.728 31.496-7.179 4.455-10.957-1.069-17.946-1.483-58.515-3.472-90.702 54.94-85.5 107.338.896 9.03 2.672 16.54 3.056 25.4.076 1.74-1.619 2.3-2.774 2.94-11.73-1.37-9.673-16.57-10.785-25.74-7.509-61.995 32.571-128.674 103.013-120.655-2.486-32.422-7.26-52.501-.745-85.833 18.596-95.151 112.454-118.359 196.582-101.417-13.814-26.869-20.438-52.492-16.589-82.886-90.461-2.506-182.012 1.526-272.54-1.309-1.631-.051-2.351-1.889-3.107-3.077-.772-4.396 1.196-9.592 2.45-14.009a630 630 0 0 0-22.415.03c-13.263.135-37.651 1.805-37.942-17.967-.073-4.932 4.57-17.387 8.583-20.414 3.54-2.668 7.346-4.046 11.101-7.492-1.421-2.79-4.185-7.778-4.528-10.802-2.681-23.681 11.525-45.219 36.873-46.533-3.404-34.797 15.435-56.343 51.081-54.484 6.106-34.454 28.417-46.578 61.009-35.837 2.642-7.793 5.083-11.711 11.317-17.351a44.4 44.4 0 0 1 32.075-11.231c15.272.866 24.568 8.53 34.252 19.253 22.094-27.977 61.899-25.404 78.03 7.203 6.065-1.521 11.81-3.222 18.087-3.01 22.481.756 38.584 17.38 37.844 39.737 36.052 1.805 51.339 9.146 53.692 47.719 12.224.102 14.975.241 25.286 6.806 11.905-24.798 24.459-44.393 49.339-58.165 45.713-25.304 95.884-23.362 144.463-10.327 4.195-6.28 7.113-11.203 10.798-17.725-23.226.937-53.23 2.872-76.691.888-17.701-1.497-18.177-21.936-.821-31.08a46 46 0 0 1-1.987-5.339c-7.588-24.389 4.611-38.714 27.715-45.166-.951-12.782 2.167-28.925 12.709-37.54 8.805-7.195 18.335-6.346 28.989-5.304 1.087-24.928 16.423-36.856 40.389-37.978-.291-30.692-10.619-42.263 24.545-41.671 34.259-24.471 59.538-36.752 101.99-40.843"/><path fill="#fefefe" d="M386.164 392.057c26.834-.617 24.883 9.491 40.558 24.129 8.213.56 14.939-22.541 34.104-23.988 31.754-2.398 27.647 17.229 41.735 27.936 4.041.921 12.776-3.342 17.912-3.978 8.324-1.032 13.487.121 19.961 4.638 12.639 8.817 12.491 17.621 13.927 31.417.056.533 1.215 2.571 1.499 2.627 12.125 2.422 25.775-1.376 37.21 6.376 13.313 9.026 10.899 22.504 12.655 36.068.912 7.047 15.229 4.38 21.381 6.571 4.823 1.719 6.189 2.76 10.728 5.772-5.208 17.266-8.352 29.792-11.333 47.555-37.997.645-76.118-.04-114.124.594-8.69.146-8.382-1.197-12.607-8.516-5.766-9.988-9.732-5.82-18.911-8.024.002-10.315-.21-10.843-5.032-19.992-11.234-7.843-15.54-7.726-29.018-5.958-5.281-20.163-16.388-26.192-36.194-20.586-2.423 1.246-3.86 3.016-6.051 4.431-.356.23-2.28 1.054-2.63.948-3.737-1.134-9.659-13.587-19.576-15.21-26.254-4.298-26.156 16.367-34.099 18.969-8.458 2.77-16.741-3.564-25.25 2.956-8.016 6.142-9.463 17.128-10.667 26.403-5.777-2.866-10.987-3.183-16.684-2.372-14.123 2.011-13.464 15.247-17.614 24.436-1.341 2.972-18.499 8.566-20.804 13.471-3.357 7.143-2.802 12.955-.864 20.014-10.933 3.312-50.995 8.046-57.901-1.685-.895-6.439 2.058-11.021 5.147-16.471 7.133-2.832 15.736-1.527 17.51-9.996-1.376-5.554-5.362-9.589-9.006-14.118-.226-4.149-.506-8.377.214-12.418 4.851-27.22 29.391-21.347 37.93-27.61 1.858-3.743-1.362-13.331-1.811-17.917-1.449-14.807 8.574-25.871 22.023-30.214 8.643-2.791 15.727-.5 24.448-1.282 7.608-4.63 3.732-17.197 9.18-25.188 16.744-24.559 29.005-14.811 50.857-9.917 3.286.737 7.063-12.62 9.413-16.595 4.859-8.219 12.48-10.683 21.784-13.276M988.854 260.4c9.206-.31 17.706-.223 26.916-.077l2.28 635.424.36 196.713c.08 13.45 1.92 26.6.65 40.1-1.81 19.15.53 38.4-.09 57.51l-10.72.25c-10.608-.47-23.853.31-34.868.39l7.679-409.357c.21-9.181-2.116-26.28-1.006-33.767 3.716-25.067 1.236-48.092 1.793-72.806l4.29-255.682c.125-11.087 1.931-23.967 1.476-34.757-1.739-41.274 1.339-82.784 1.24-123.941m-34.395-.167c8.515-.324 17.06-.207 25.583-.172-2.325 22.866-.589 33.443-1.514 54.201-3.302 74.146-2.85 148.986-3.683 223.247l-9.178 463.211-2.293 129.76c-.449 20.83.777 37.89-1.431 59.23l-20.193-.15c-8.359.17-16.72.3-25.081.38 3.771-23.42 3.243-40.36 2.056-63.9-.509-10.1 3.463-24.32 3.257-35.19-.232-12.32-.559-24.63-.569-36.92.638-11.61 2.863-23.95 3.201-35.71.283-9.87-2.018-20.441-1.624-30.242.422-10.503 3.706-22.205 4.115-32.669l14.102-352.305 6.524-183.878c1.8-53.03 2.868-105.995 6.728-158.893m72.211.529 25.47.065 2.42 79.629c.43 14.59-.14 30.074 1.43 44.464a55 55 0 0 0-2.68 3.699c-12.54 19.145-.84 45.679 3.61 62.571 1.04 3.935 1.9 45.352 2.02 50.678l2.66 90.655 7.61 334.366 3.19 129.781c.47 15.33 5.29 127.76 1.41 133.52-15.43-.4-29.02-.46-44.37 1.02-.29-23.63 2.72-47.34.18-71.5-.76-7.19 1.15-20.86 1.14-29.24l-.99-333.431-.86-276.121-.97-117.317c-.49-34.187-1.74-68.629-1.27-102.839m-97.445-.224c3.874-.344 9.714-.234 13.741-.267.898 28.671-1.972 64.303-3.368 93.306l-4.023 100.253-12.3 301.171-12.564 290.699c-.473 11.19.509 22.64.047 33.91-.651 15.91-3.252 32.2-2.511 48.09.98 20.99-.697 41.07-3.496 61.88q-13.005.15-26.002.63c-3.6.35-11.919.02-15.881-.03 3.584-78.02 8.41-156.57 12.575-234.665l13.259-210.282c2.778-41.586 7.196-83.828 9.74-125.811l11.961-223.501c2.048-45.034 3.175-89.967 5.957-135.037 4.247-.055 8.608-.229 12.865-.346m131.835 136.174c5.26 4.428 2.69 21.562 9.35 28.927 46.28 51.164 99.08 103.474 163.37 131.101 10.01 4.299 21.81 10.17 32.12 13.571 19.8 4.915 31.55 29.082 31.48 49.193-.16 53.883-11.56 115.513-16.94 168.97-24.86.173-48.14.597-73.07-.04-12.78-.022-25.57-.111-38.34-.269-.57-15.83.77-31.52 1.66-47.278 2.7-47.967 8.98-89.432 28.14-134.151 10.97 5.95 35.57 17.605 47.78 11.427l.57-2.153c-1.64-2.034-26.24-9.995-32.15-12.692a132.8 132.8 0 0 1-25.91-15.764c-41.43-31.972-77.68-89.64-107.82-131.762-4.39-6.136-13.26-12.368-17.15-17.982-4.68-6.744-4.6-33.98-3.09-41.098"/><path fill="#fefefe" d="M1069.15 459.527c4.03 2.015 27.11 37.059 31.57 43.554a28338 28338 0 0 1 29.53 671.539c-4.74 2.9-9.94 5.29-14.95 7.72-4.85 2.22-5.35 3.47-8.96 7.18-4.27 1.65-12.51.64-17.41.34-.8-11.1-2.52-23.6-3.01-34.33-.53-11.68.76-24.88.43-37.27l-3.55-124.785-8.94-349.408-4.14-143.191c-.53-14.267.49-26.496-.57-41.349m44.63 62.141c10.77 11.912 20.17 26.672 32.24 39.225-.13 30.926 3.69 63.137 5.5 94.107 4.1 70.043 6.64 140.146 11.23 210.151.55 15.095-2.21 30.097-4.19 45.089-3.8 28.755-8.65 58.537-10.61 87.441-.9 13.239 2.72 31.669 3.29 45.279 1.56 37.19 7.35 75.22 7.35 112.4l-.84 5.14c-3.48 4.41-9.51 6.28-14.79 8.52-1.23-10.01-2.65-20.89-2.82-30.96-.18-11.07.57-21.97-.05-33.1l-8.27-168.161c-.41-10.108.27-20.627-.18-30.791l-12.03-251.998c-2.11-42.961-5.71-89.57-5.83-132.342M891.213 1247.49c12.368-.79 27.865-.14 40.474-.07l71.313.38c22.3.13 222.07-.93 224.01.52 2.95 5.97 3.04 26.03 1.49 32.52-3.12 2.74-56.99 1.23-65.25 1.15-29.85 1.24-58.99.1-88.75.15l-175.278.67c-11.698.05-23.788-.9-35.375-.81-14.413.11-29.232.63-43.67 1.02.826-12.52.88-21.92.622-34.48 18.878-1 55.13.94 70.414-1.05m69.454-45.99c18.285-.51 37.086 1.44 55.793 1.38l133.07-.42c10.16 0 47.45-1.2 55 1.07 2.91 5.92 1.42 24.94 1.16 32.51l-118.94-.29-243.608.27c-.178-11.11-.182-22.22-.011-33.34 10.05-.75 21.655-.08 31.942-.22zm-62.813-981.036c58.994 2.109 121.266-.435 180.486.412 24.2.346 55.06-1.39 78.49.406 4.1 3.45 5.09 21.341 2.45 25.778-3.11 2.023-7.55 1.417-11.53 1.393-59.54 1.621-121.35-.216-181.033.272-26.446.216-53.44-1.067-79.855-.177q-.357-13.826-.507-27.653zm203.076 40.137c8.78-.649 16.11-.483 24.9-.329 5.52 66.769 6.19 134.381 11.99 201.188.4 4.632 1.72 12.742-.69 16.58-9.86-8.448-19.08-18.479-27.92-27.988-3.65-24.896-3.12-43.441-4.22-68.039l-4.1-77.777c-.38-8.37-4.51-37.711-2.17-43.089zm172.23 540.155c3.69.036 6.32-.622 8.45 2.334 8.05 52.598-17.92 122.586-23.05 176.21-.87 9.114-3.72 25.26-6.16 34 14.32 24.69 31.36 52.76 44.56 77.47-2.42 1.52-4.61 3.35-6.86 5.12-14.2-18.82-28.89-47.46-41.41-68.02-1.76 17.72-5.04 38.68-7.83 56.4-4.66 30.43-10.28 63.72-13.33 94.12l-12.06-1.96q16.65-103.004 34.74-205.773a7801 7801 0 0 1 14.87-81.72c3.73-20.214 8.66-40.952 8.39-61.506-.11-8.891-.2-17.784-.31-26.675m-268.04-620.209c36.99-2.92 80.03 6.073 109.7 28.828-26.69.442-59.94 1.931-86.07.626-12.36.793-31.026.04-43.815-.038l-66.049.09c7.576-3.739 15.459-8.743 23.23-12.742a151.8 151.8 0 0 1 63.004-16.764m59.02 79.582c8.54-.144 14.29.161 22.75.8.41 10.942 1.48 22.852 2.2 33.931 3.03 46.7 3.7 94.098 7.04 140.713-17.67-15.139-19.37-16.347-22.29-39.924-1.17-6.328-6.32-13.373-6.88-19.687-3.32-37.827-3.26-78.089-2.82-115.833m99.12 151.331c22.13-.35 47.72-.75 69.65.029-27.67 11.926-39.69 20.053-56.76 44.298-7.49 14.007-11 25.022-16.59 39.639l-6.96-4.324-.11-.599c-2.36-12.972-2.63-25.368-3.67-38.498-1.02-13.11-2.67-26.603-3.04-39.704zm-301.674 1.991c10.399-.625 26.671.225 37.5.478-2.225 20.249-2.987 44.041-4.054 64.663l-5.221-8.494c-13.824-23.168-25.177-22.667-43.138-36.04 2.335-4.101 11.138-19.211 14.913-20.607M563.414 567.422c3.297-.343 14.023.04 17.979.066q22.319.118 44.632.655l.209 25.111c-21.971-15.8-45.81-30.506-73.075-16.552-14.678 9.025-23.14 17.328-30.131 32.979l-.304.697-1.717.486c-.713-1.744.443-6.716 1.171-8.356 2.778-6.013-1.786-13.878-3.896-19.669-2.634-7.229-11.833-3.912-15.379-12.246l1.083-1.471c5.036-1.759 48.963-.908 59.428-1.7M1479.09 549.2c17.86-1.149 25.2 6.206 36.39 18.905-6.76 4.872-8.92 6.383-11.97 14.207-12.8-6.49-22.65-8.761-37-7.116-4.08.764-6.23 1.307-10.16 2.409-5.99 1.679-17.53 9.661-22.68 7.839.18-1.338.4-2.484 1.32-3.519 14.68-16.439 22.25-28.451 44.1-32.725m-322.15 24.252c1.51.819 14.18 13.299 16.65 15.489 4.87 4.317 9.66 8.195 14.95 12.304a795 795 0 0 0-18.86 58.507c-1.52 6.932-2.74 13.669-5.51 20.216a3008 3008 0 0 0-7.23-106.516"/><path fill="#fefefe" d="M1288.13 1101.24c5.23 6.7 9.25 12.13 13.99 19.18-18.37 8.78-34 24.12-53.6 35.48-3.77 2.1-7.88 4.16-11.72 6.18 10.71-19.36 22.81-27.57 31.62-49.03 6.49-4.07 13.06-8.01 19.71-11.81m-117.84 61.75c7.24-.23 26.18 1.95 34.23 2.67.9 5.88 1.85 11.76 2.84 17.62-13.16-.12-24.94-.3-38.11.66-13.42.39-28.3 1.23-41.53.36 20.56-9.66 21.88-7.3 42.57-21.31m70.75-673.672c-1.64-.9 18.3 17.554 17.16 15.93-5.4 4.219-6.1 5.229-9.77 11.09.21 4.698.81 9.838-.53 14.265-5.41 1.195-5.73 1.411-10.61-.943-6.27-8-.68-20.393 6.1-26.598l.97-.882-.05-1.669c-2.63-1.233-2.8-1.321-5.1-3.091-.68-3.866.17-4.07 1.83-8.102M1345.7 388.55c18.29 4.152 23.68 13.314 33.62 27.761-2.7-.967-5.94-2.399-8.65-3.508-13.2-5.82-24.6-8.153-38.63-10.157 7.15-4.865 9.21-6.728 13.66-14.096m-97.37 147.186c1.33 1.123 2.48 3.881 3.13 5.585 3.55 9.279 10.54 9.329 19.58 13.271 1.36 2.881.77 2.427-.04 6.358-11.28-3.759-14.93-5.591-25.17-11.244.7-4.934 1.49-9.088 2.5-13.97"/></svg>