<svg xmlns="http://www.w3.org/2000/svg" preserveAspectRatio="none" style="display:block" viewBox="0 0 2048 1462"><path fill="#fefefe" d="M0 0h2048v1462H0z"/><path d="M344.617 86.402c8.279-1.397 23.301-.25 31.84.543 40.879 3.797 83.845 35.133 101.358 72.802 6.361.699 11.923.799 18.29.946 50.532 1.165 101.037 1.698 151.583 2.648a30617 30617 0 0 0 367.802 5.852l473.01 7.259 173.63 3.213c40.64.866 79.81 2.409 120.59 2.065 2.03-11.415.96-16.461 11.09-25.485 5.8-5.072 13.09-8.448 19.62-12.237 50.59-29.349 113.64-26.853 159.32 10.811 12.35 10.174 14.74 9.069 13.5 26.285 4.14 6.405 12.83.332 18.88 3.646 3.01 1.646 4.04 4.343 4.44 7.596 1.62 13.042-8.44 81.28-11.3 99.443-.74 4.716-4.43 12.307-3.01 16.646 1.24 3.829-5.06 33.007-6.13 39.555.62 1.609 1.22 3.23 1.78 4.861-4.87 20.019-6.86 46.895-9.13 67.46-.91 3.256.21 12.286-.65 14.639-5.82 15.86-4.38 30.576-5.5 46.989-.05.765-3.58 8.761-4.14 10.52 3.78 13.379-.76 11.262-4.09 24.118-1.5 5.783.84 14.582.35 19.806-1.1 11.693-7.19 14.65-2.22 26.89-7.42 13.873-1.19 39.441-8.44 55.28-2.34 5.103.41 15.059-.8 20.268-2.79 11.995-4.71 23.982-6.19 36.217l-7.54 65.464c-.89 7.904.17 16.81-3.78 24.635-5.4 10.716 5.32 13.113-3.27 23.792-.65.801 3.44 12.343-1.25 14.804-1.07 3.908-.87 16.715-1.07 20.611-1.34 26.37-9.32 52.881-8.52 78.928.08 2.844-4.08 13.959-5.12 17.114l2.72 1.865c.65 2.722-3.16 9.244-3.43 12.345-.62 7.573.84 15.675-.14 23.201-.75 5.796-7.52 13.73-4.68 19.211l2.65.499q-.465.705-.9 1.43c-6.87 11.699-4.1 28.233-5.48 41.473-.53 5.02-4.66 13.95-3.5 18.26l1.92-.89.24 1.63c-9.33 8.94-.61 19.6-6.43 31.7-3.63 7.52 1.49 22.49-4.55 32.89l-1.17 2.43 2.24.82c.34 8.96-3.26 24.71-5.11 33.86.01-.04 1.83 6.02 1.82 6.06-1.75 7.86-4.45 16.5-5.4 24.53-.08.7 2.69.47 2.33 2.46-2.07 11.25-5.55 11.06-1.14 21.08-1.06 1.58-.61.9-2.75 1.9.12 3.55-1.88 38.19-4.98 41.85-1.05 1.22-7.84.79-10.51.82l-717.92 3.2-136.38.71c-75.342-.17-148.456-1.42-224.069 1.59.709 20.16 1.161 40.32 1.357 60.49.199 12.47 5.79 56.13-8.731 58.04-14.48 1.9-10.193-29.89-10.035-37.78.178-12.5.231-25.01.16-37.51-.03-21.64.334-43.28-.746-64.88-.18-3.6.096-7.47.4-11.06-9.895 4.28-30.655 17.08-36.714 3.24-.091-5 3.352-9.14 7.782-10.95 71.347-29.1 143.083-58.74 212.325-92.68 15.598-7.65 52.491-26.72 64.761-37.92 40.17-36.64 72.18-90.926 100.15-137.295a4694 4694 0 0 0 63.12-108.243c-18.44-23.119-54.21-51.171-78.58-67.381L949.286 953.902c16.706 3.964 34.603 5.743 51.484 8.562 4.96.828 11.77 7.149 10.92 12.913-1.22 8.352-15.536 4.669-21.12 4.533-19.703-2.924-39.206-8.225-58.848-11.591-63.49-10.13-126.866-20.956-190.105-32.563-34.482-6.446-69.752-15.601-104.134-22.709 9.708 33.806 32.049 74.423 45.977 107.783 23.988 57.47 55.192 142.5 31.716 203.94-6.647 17.39-23.854 38.61-41.475 44.67-86.293 29.67-247.722-18.4-329.232-51.59-112.14-48.29-242.133-117.17-295.681-232.896-29.52-63.795-12.763-127.259 55.245-154.815 5.28-20.374 9.418-41.522 13.925-62.116l20.469-92.092 68.765-313.876c5.195-24.158 49.613-237.241 52.984-241.744 12.873-17.197 62.876-31.911 84.441-33.909"/><path fill="#fefefe" d="M473.644 174.464c22.472-.413 47.812.717 70.356 1.22l146.002 3.262 560.848 8.434c131.26 1.302 262.51 3.505 393.74 6.608 43.38 1.146 93.98-.533 136.83 2.942a47180 47180 0 0 0-57 636.088l-15.76 192.772c-2.28 30.53-6.66 61.04-6.07 91.54.72 37.8 35.45 56.63 69.89 54.14 13.36.77 47.37-11.02 52.17-25.7 8.26-25.24 12.52-65.21 16.86-92.17l16.1-97.971a49579 49579 0 0 1 82.48-500.92l22.63-135.568q6.195-39.39 13.08-78.667c1.69-9.941 3.55-34.902 10.04-41.551l1.35.229c4.49 9.365-8.12 65.02-8.89 78.214-1.99 34.25-9.76 68.521-14.81 102.096l2.36 1.895c-1.46 3.938-4.38 7.663-4.13 11.095.64.314 1.29.629 1.93.943 2.83.555-3.56 7.256-4.26 9.801-.56 2.049.07 7.785.58 10.194 2.05 3.06-5.38 18.525-4.52 20.047 3.8 6.712-.93 12.332-1.39 20.522-.46 8.144-3.51 17.932-4.23 26.275-.48 5.562.27 11.781-.79 17.335-1.07 3.353-3.1 2.621-3.11 6.785-.04 11.803 1.72 20.571-2.96 31.966-.01 4.179-.1 8.438-.62 12.598-2.38 19.013-3.22 39.324-7.17 58.02l2.39 2.243c.35 3.95-3.45 10.129-5.41 13.975l2.65 2.06c-.87 7.896-3.69 18.79-4.88 26.94-.73 5.011-.53 9.982-1.16 15.014l-10.62 84.388c-2.12 17.508-6.72 36.917-4.85 53.847l-2.62 1.22c.08 3.317.13 7.322-.42 10.592-3.88 23.102-5.73 46.425-10.13 69.459-1.19 6.234-.99 13.767-.72 20.068-4.34 6.421-3.75 16.565-4.47 24.475a1485 1485 0 0 1-3.36 31.206c-2.9 26.568-8.14 53.785-9.07 80.615 1.12 15.36-1.96 25.46-5.27 40.17-8.19 38.08-6.47 77.28-12 115.98-2.86 19.98 1.81 15.25-21.56 15.35-64.36.24-129.21-1.38-193.53-.83-231.08.51-462.16-.23-693.228-2.2l-106.065.5c-9.928.04-48.63 2.18-54.786-2.51l-.543-4.37c3.057-2.02 13.39-5.95 17.366-7.61 22.929-9.58 45.465-18.5 68.424-28.15 13.429-5.65 30.807-15.82 43.953-19.6 4.193-1.21 24.374-.76 30.163-.82l74.166-.01 109.27.31c16.5.01 32.75-.73 49.27-.26 2.8 13.68 5.22 16.43 18.57 20.16 12.94-2.94 19.97-8.21 25.2-20.46 71.83 1.96 150.35-.25 222.7-.52l82.15-.99c12.63-.08 33.55 1.08 45.32-.49 2.59 10.37 3.54 11.28 12.04 17.09 15.95 1.98 33.97-2.37 33.69-23.97-.1-7.82-7.41-13.53-13.45-17.85 1.9-21.45 5.37-44.98 7.86-66.59l15.2-133.773c19.35-10.501 27.43-27.901 3.93-40.735 1.73-27 7.36-63.376 10.09-91.217 7.05-71.886 17.39-144.218 23.17-216.19 21.03-9.492 23.12-24.939 5.47-40.143 3.34-11.629 6.03-49.878 7.89-64.889 7.64-61.984 12.52-124.39 20.41-186.422 8.4-6.795 16.3-13.298 14.64-25.475a19.76 19.76 0 0 0-7.71-13.099 21.4 21.4 0 0 0-16.64-3.857c-9.1 1.742-14.13 7.088-18.86 14.475-44.26-1.862-95.52-2.461-140.11-3.124-10.38-20.996-28.67-16.027-42.16-1.827-10.58 1.559-24.39.54-35.5.349l-66.75-1.44-216.54-3.078c-132.13-.373-265.802-5.178-398.126-6.086-7.132-24.201-30.783-20-41.068-.597-53.815-2.711-108.968-1.173-163.02-4.113-8.869-36.602-67.593 10.322-26.662 25.134-2.08 7.794-5.302 16.1-2.855 23.751l1.557.429c5.961-5.394 7.19-17.13 8.696-25.074 9.876-3.925 10.877-5.318 18.093-13.502 8.981-.109 18.952.787 28.152.969l65.423.888c21.834.373 43.986.656 65.847.759 3.522.016 3.993.312 6.234 2.156-.261 6.479-13.05 9.498-17.632 16.786l.557 1.42c9.415 2.877 14.197-5.394 20.418-8.657 3.119-1.636 14.565 5.892 20.594 3.356 7.728-3.25 10.927-8.002 14.89-14.702 56.029 3.374 116.452 2.248 172.813 3.367l427.059 6.451c10.89.183 109.18.192 114.67 2.383 8.18 11.117-3.66 7.214-7.04 13.246l.87 2.578c6.51 4.299 9.52-2.518 18.36-2.903 6.71 4.459-2.79 10.494-.35 18.221 2.6 1.944 1.55 1.376 5.17 1.639 2.96-2.758 5.98-10.851 7.79-14.983l11.3-4.515c6.27 6.726 10.15 13.884 18.85 17.918l1.28-.625c-1.43-10.683-17.22-18.936-12.45-28.616 1.76-1.36 3.46-1.491 5.61-1.445 45.13.967 90.5 2.417 135.63 2.502 2.27 5.006 5.01 9.362 7.83 14.057l9.95 5.111c.1 9.471-2.47 29.736-3.56 39.65l-7.59 70.126-9.35 86.862c-1.68 16.745-3.15 34.269-5.38 50.954-.5 3.692-.88 3.794-3.21 5.321-5.74-2.604-8.4-15.615-13.83-19.184-6.72 3.815 3.54 18.246 2.48 20.446-7.83 16.236-14.79 28.685 8.57 37.252l-20.83 187.561c-3.62 34.645-7.34 84.959-13.34 118.218-20.23 10.325-27.84 30.301-5 42.337.17 10.868-4.06 38.346-5.3 50.667a5456 5456 0 0 1-17.22 149.752l-11.12 3.5c-3.63-6-7.39-14.14-13.93-16.37l-1.02 1.19c.98 8.57 4.74 12.11 9.89 18.8l-3.08 8.01c-46.97-.03-100.49-.19-147.07 1.1 1.28-5.67 3.22-9.18-.9-13.78-7.17.11-7.58 7.94-8.56 13.48l-139.37.6c-16.69-.03-38.17.64-54.74-1.31-2.5-.29-9.39-8.25-11.85-9.89-2.36-1.56-7.62-3.32-10.43-4.31-11.14 2.81-15.9 4.51-21.7 14.81l-239.055-.35c19.655-8.41 75.255-38.29 90.285-52.79 54.98-53.02 94.43-130.624 134.42-195.561 6.08-9.86 29.24-47.766 32.76-55.806l-3.82-10.162.34-.618c22.09-38.772 44.89-57.386 59.58-104.464 3.19 3.815 8.9 12.103 13.99 10.615.45-7.492-8.68-16.454-13.44-21.704-1.48-11.89-1.46-25.246-2.95-37.745-1.37-11.504-6.21-30.272-5.99-40.739 30.35-34.11 57.74-69.171 86.44-104.606 4.75-5.872 16.38-3.453 18.62-19.496 1.85-13.266-2.06-14.627-8.66-25.824-2.12-3.64 2.32-4.264-1-9.389-6.91-4.636-26.12-2.19-31.73 3.29-9.24 9.034-14.71 21.904-22.97 32.597a1601 1601 0 0 1-64.17 77.19c-13.8 2.164-27.13 2.793-40.59 4.943 7.12-14.204 29.82-31.126 31.98-41.841l-1.14-.961c-11.13 2.446-36.18 20.528-47.88 28.053-1-7.282-5.07-49.599-7.43-51.217-3.62 3.281-12.62 45.127-16.34 55.757-6.39-4.236-28.73-21.888-34.72-20.027-1.6 5.047 9.88 30.394 12.2 38.692l.38 1.382c-17.41 4.565-32.2 2.264-49.05 6.478-2.08.519-2.44 1.505-3.02 3.263 4.12 5.345 36.09 13.562 44.22 15.878-5.94 8.636-32.22 42.334-33.46 48.968l1 1.372c7.29-.637 40.08-26.04 51.24-32.387.01 7.128 1.8 35.348-.57 38.91-1.84.593-6.61 2.107-7.88 3.308-11.24 10.712-13.47 33.197-14.39 47.367-8.13 6.117-19.79 16.819-26.19 24.723-41.84 51.609-83.07 103.455-126.725 153.563-10.122 11.617-25.952 28.55-32.378 41.978-35.702-7.095-71.511-12.224-107.404-18.447-103.005-17.859-205.239-40.309-306.519-66.196-8.714-2.228-39.319-6.137-44.408-10.436-5.569-10.348-4.399-48.018-3.936-60.367 9.937 4.581 15.928 10.082 27.462 13.692 43.857 13.729 74.181-18.662 76.682-60.876.621-6.835-.621-18.463 1.3-24.813 3.433-8.415 23.594-5.905 25.418-16.189 3.559-17.989-27.88-18.369-25.879-37.971 2.692-26.364-1.752-53.632 4.324-79.203 2.894-12.174-2.72-30.584-9.199-41.54-16.682-28.208-39.47-40.695-70.332-48.354 7.938-30.389 17.08-66.869 22.423-97.591 5.909-3.784 8.994-5.653 14.068-10.379 1.418-4.701 1.876-9.561 2.515-14.436-2.29-2.44-5.683-5.558-8.15-7.958.835-5.588 3.119-11.648-1.355-15.655l-1.92.897c-2.783 3.309-2.975 7.089-3.812 11.475-11.035 2.908-21.256 6.841-25.556 18.434-4.164 11.225 5.992 15.828 14.369 18.481-7.952 29.496-13.71 63.045-21.761 93.561-3.553 1.82-19.012.097-23.639-.393-37.206-3.941-71.286-5.646-108.295.573 12.723-27.845 25.442-68.637 35.868-97.695z"/><path d="m1002.14 326.599 2.54 1.698c3.83 6.314 7.15 57.862 8.07 67.932 13.76-3.685 64.2-28.112 71.63-25.762l.44 1.956c-2.92 8.626-35.33 46.291-43.27 56.97 12.17 6.363 61.17 24.14 65.31 29.78l-.58 1.779c-8.66 5.264-62.29 11.843-76.51 14.56 2.17 12.159 20.14 79.057 16.67 84.257-5.9-1.822-49.148-46.111-57.587-54.291-10.392 17.523-17.426 38.979-27.91 55.95-2.859 5.161-5.486 11.912-10.774 13.532-5.434-4.387-8.82-55.471-12.149-69.018-10.101 5.224-58.324 37.324-66.037 32.913-3.085-11.498 34.022-57.911 41.722-73.129l.564-1.133c-9.864-2.951-67.402-18.741-67.715-27.547 3.84-3.348 58.427-14.638 67.705-16.848-.753-9.741-5.254-63.379-1.526-68.408 2.31.008 3.546.213 5.297 2.07 13.054 13.842 25.532 25.094 41.014 36.211 6.064-10.074 36.408-57.121 43.096-63.472M697.36 471.503l2.438.858c3.673 4.378 2.119 52.989 1.943 62.614 10.037-3.232 45.893-17.862 53.487-16.343l.567 1.815c-2.502 7.252-23.84 30.16-30.06 37.132q1.673.493 3.324 1.055c9.03 3.079 49.493 15.449 52.698 21.915-4.221 6.662-55.064 15.699-68.43 19.676 2.713 23.91 7.096 48.567 6.593 72.401-17.126-12.747-26.543-39.352-41.475-55.237-4.566 9.421-9.508 18.734-14.073 28.218-3.07 6.375-9.965 24.61-18.28 21.544-2.111-2.846-1.907-4.286-2.236-7.901-.287-16.464 1.359-33.524.08-49.659-11.669 6.093-51.462 37.633-60.098 34.698l-.561-2.368c2.832-12.412 32.55-47.769 42.244-60.139-7.491-5.509-48.844-27.996-45.195-35.348 9.112-4.622 41.654.21 54.794-2.788l1.63-1.428c-3.058-11.572-20.886-32.377-17.758-45.101l1.696-.815c10.044 2.998 36.524 29.197 43.796 38.114 11.726-19.018 17.929-44.138 32.876-62.913m572.9-201.892c2.21.347 2.05.403 3.72 1.937 2.84 7.884-.35 24.762-1.7 33.448 9.21-3.144 31.56-14.957 39.01-14.471.73 3.9-16.61 27.366-20.43 33.474 7.26 1.639 31.91 6.233 35.98 10.247l-.17 1.758c-5.47 5.241-21.46 9.049-29.14 11.335 5.42 3.512 25.64 13.287 25.14 19.842-5.28 2.695-30.64-2.019-37.86-3.133 1.58 7.19 13.31 33.76 8.42 37.707-6.85-.549-25.09-12.717-32.08-16.949-6.83 12.185-9.18 20.53-13.81 33.393-.92 2.575-1.74 3.086-3.73 3.777-4.7-4.046-8.41-25.984-9.52-32.769-6.96-1.222-29.59 12.505-39.91 15.411l-1.49 5.854c-1.08 4.375-1.35 7.059-6.01 8.264l-1.33-1.623c-.47-3.12.39-11.747 2.44-13.929 10.58-11.303 18.82-21.374 27.05-34.58-16.64-3.793-33.09-2.644-46.1-5.571l-.57-1.419c5.37-7.815 27.11-13.888 37.88-22.969l1.03-.881c-5.91-6.249-27.17-24.899-27.16-32.331l1.7-1.335c8.14-.777 31.08 7.309 40.1 10.101-.15-6.777-.18-34.67 4.72-37.804 4.63 1.468 16.29 17.616 21.56 23.11zm212.38 611.867c4.39.717 3.8-.05 6.67 2.436 1.23 5.172-6.09 52-7.38 60.756 8.33-4.045 42.81-21.191 50.84-20.107l.56 1.564c-5.41 11.2-28.07 19.915-38.37 36.373l-.67 1.086c8.75.342 64.17 8.977 68.72 13.614l-.86 1.528c-11.76 4.558-57.53 2.104-73.15 2.053 3.67 10.558 24.82 44.589 22.19 52.389l-1.93.12c-3.24-1.88-33-30.82-37.87-35.444-3.75 14.194-8.59 28.444-12.37 42.684-1.28 4.81-2.74 11.3-7.62 13.05-3.45-1.67-2.27-.68-4.24-4.27 2.22-19.74 4.54-35.76 7.32-55.379-10.52 5.923-45.57 32.789-54.37 32.689l-.54-1.4c3.47-10.28 32.01-36.517 40.78-45.309-10.01-1.255-62.42-4.77-65.73-11.369 3.49-3.092 63.42-8.745 73.16-8.714-4.52-8.968-31.6-45.314-28.64-52.106 5.91.644 37.58 30.181 43.67 35.955 3.52-11.205 15.34-54.654 19.83-62.199M990.098 629.752c1.223.51 1.08.673 2.096 1.763.236 8.071-40.859 51.885-41.162 57.692 8.587 5.863 55.358-11.043 60.968-5.414-3.39 9.698-60.618 25.036-66.645 30.964-1.446 7.359 19.998 35.813 16.657 43.774-5.874-.633-28.883-22.565-33.647-27.712-4.193 9.64-15.921 55.626-21.855 58.195-2.788-4.387-.407-44.167-.201-53.632-11.529 7.481-22.53 15.977-34.402 23.487-4.014 2.455-8.17 5.737-12.573 5.697l-.875-1.543c2.022-6.968 23.692-30.208 30.461-39.98-12.091.763-54.905 9.471-63.992 4.883l-.206-1.533c4.877-2.504 18.491-6.277 24.757-8.311l46.319-15.385c-7.798-10.66-27.419-18.819-29.36-28.372l1.186-1.599c8.636-1.888 29.081 12.167 41.176 15.35l1.214.307c.179-8.64 8.608-45.663 15.303-49.869l1.819.841c3.533 6.149 3.916 32.215 4.526 40.845 17.609-12.56 37.591-34.683 58.436-50.448m563.322-49.528 2.22 1.439c2.11 9.716-4.81 45.055-3.86 61.934 11.82-8.615 23.12-18 34.83-26.731 6.18-4.61 22.55-20.004 29.9-15.716-2.29 5.861-15.74 14.269-20.88 18.912-6.77 6.115-31.89 30.432-32.93 37.43 7 3.382 34.35 5.341 47.33 11.303l.27 1.283c-6.11 5.191-41.04.047-50.98 5.235-14.82 7.734 19.34 54.461 7.36 58.318-9.75-4.647-18.84-40.484-29.6-35.851-3.52 4.322-10.15 26.898-12.27 33.472-1.28 5.338-2.71 14.735-7.08 17.615l-1.34-.31c-4.02-7.065 4.45-45.077 5.46-57.215-10.43 5.103-32.3 20.938-39.6 22.42l-1.09-.966c2-8.321 23.9-26.989 31.77-39.42l.74-1.186c-10.97-3.644-47.75-10.256-53.49-14.346l-.05-1.305c6.2-2.799 40.87-.966 54.24-2.645-3.18-19.666-12.17-42.442-15.94-62.472-.65-3.465-.38-3.378 1.28-5.651 7.19 2.14 21.04 52.106 31.83 54.591 1.7-2.114 19.25-53.158 21.88-60.138m-202.48 205.05c4.34.904 3.66.077 6.23 2.737 1.49 5.681-4.87 7.772-1.39 14.546 7.7 3.888 10.88-4.69 18.08-4.294 1.33 2.034.87 1.628.76 4.619-2.96 3.47-7.1 5.555-11.06 7.972l2.95 10.018c-3.73 14.015-7.37 20.454-22.95 22.371-21.53-3.963-27.62-21.209-12.14-37.415-2.66-3.603-6.92-7.684-4.99-12.048l2.54-.856c3.34 1.757 4.31 4.754 6.68 8.437 2.79 1.221 7.82-.259 11.1-.88 1.18-4.972 2.78-10.257 4.19-15.207m-71.42 150.338 2.49.656.8 1.671c-.16 4.479-3.05 9.965-4.94 14.222 5.65.597 12.49.666 18.25.873l-19.18 11.671c-2.7 5.292-4.39 16.075-9.63 17.713-3.32-1.987-3.34-3.341-5.45-7.001-4.49 4.6-8.78 11.419-13.34 15.065-.77-5.302.43-12.043 1.12-17.503-7.26 1.409-11.81 1.863-19.12 2.443 5.62-6.885 13.48-12.896 20.46-18.532-.13-6.841.65-12.262 1.46-19.004 5.52 4.297 7.66 5.798 13.79 9.069 3.62-3.5 9.32-8.006 13.29-11.343m187.86-537.117c1.94 1.187 1.77 1.405 2.76 3.524-1.67 11.469 1.42 12.586 6.64 22.705 4.99 9.676-6.57 17.299-14.35 20.298 1.07 5.44 2.74 9.892.51 14.726l-1.54-.02c-2.89-3.315-3.25-7.014-4.27-11.415l-.2-.761-.92-.132c-1.14 3.411-1.27 4.695-3.6 7.28l-1.56-.25-1.72-2.655c.51-2.934.84-3.778.34-6.645-18.42-18.268-9.44-27.164 9.82-37.6 2.27-1.23 2.51-6.319 8.09-9.055m151.09-48.333 2.01-.206c18.22 10.426 12.46 29.324-2.07 40.425a122 122 0 0 1 2.21 3.027c2.36 3.362 3.01 4.817 2.36 8.604-2.84 2.22-1.87 1.532-6.3 1.586-1.43-3.911-2.76-11.688-3.63-16.076-19.37-3.512-22.99-20.759-8-32.162 4.19-3.188 8.44-3.943 13.42-5.198M747.523 834.01c25.911 3.879 23.58 30.241-1.402 37.922-23.366 2.163-24.506-27.201 1.402-37.922m434.337-405.741c3.05.923 4.81 1.425 6 4.258-.47 6.922-5.42 39.733-9.45 43.678-2.57-.674-2.47-.865-4.1-2.874-1.62-6.957 5.27-37.243 7.55-45.062m265.3 30.046c2.37 1.097 2.26.947 3.82 3.015.6 7.392-5.5 30.054-9.41 36.178-2.61-1.158-2.53-1.034-4.35-3.194-1.01-7.74 5.88-29.194 9.94-35.999m54.51 346.03c2.77 1.036 2.7.896 4.57 3.116 1.49 7.299-3.11 28.755-6.8 34.657-3.24-1.058-2.47-.332-4.5-2.625-1.55-7.808 3.8-27.407 6.73-35.148m9.35-44.01c2.55.388 2.51.278 4.82 1.728 2.22 5.884-4.4 28.745-6.1 35.792-3.76-.893-2.67-.105-5.12-2.644-1.58-7.382 4.3-26.233 6.4-34.876m-110.96-135.048c2.47.974 2.36 1.025 4.08 2.877 1.36 7.502-4.87 24.037-7.82 31.501l-3.38-.809c-4.95-5.992 2.85-28.015 7.12-33.569m-124.55 219.661c1.56-.265 1.59-.051 3.25.242 1.8 3.015 1.61 1.506 1.06 4.595-4.36 5.254-18.68 9.011-25.58 11.309-2.58-.269-2.52-.408-4.59-1.796l-.14-2.109c4.22-4.891 19.51-9.794 26-12.241m146.54-302.678c3.29.785 1.95.012 4.29 2.174 1.81 7.873-3.81 23.479-6.86 30.931-2.34-.704-3.07-.711-4.67-2.582-1.99-6.877 4.18-23.884 7.24-30.523m18.73 200.244 2.6 1.143c1.06 1.428 1.81 1.734 1.4 3.113-1.64 5.548-16 15.984-20.51 19.672-3.44-2.281-2.74-1.136-4.16-4.494 1.12-5.858 15.2-15.119 20.67-19.434m-35.93 29.084c3.08.615 1.7-.008 4.2 2.098l.02 2.046c-3.13 4.996-16.22 15.131-21.36 19.343-2.88-.297-3.56-.815-4.82-3.199 1.22-6.341 16.47-16.492 21.96-20.288m-43.02-26.007c2.57.297 2.64.169 4.98 1.509 2.76 5.368-3.71 23.28-5.6 29.66-2.74-.171-3.23-.019-5.36-1.8-1.97-6.543 3.6-22.631 5.98-29.369m-187.96-263.205 2.57 2.495c2.15 5.718-2.21 25.356-7.3 29.795-8.47-1.956-.22-27.201 4.73-32.29m316.53-154.867c2.96.594 3.34.503 5.45 2.475 1.37 5.911-5.9 19.843-8.63 26.853-3.64-.955-3.08-.236-5.27-2.584-1.28-7.019 5.43-19.76 8.45-26.744m139.02 117.011c1.43.204 3.09.595 4.52.888 4.39 3.985 10.58 22.403 8.51 27.745l-1.49-.018c-8.4-.445-12.73-22.763-11.54-28.615m-255.44 264.14c2.67.891 2.59.806 4.76 2.56 1.89 6.691-5.15 20.968-8.03 27.582-3.55-.823-2.63-.104-4.91-2.407-1.37-7.521 5.11-20.284 8.18-27.735m-540.616-54.251c6.751 1.7 19.988 6.499 24.095 12.306.381 3.604.552 2.198-1.853 5.81-6.127-1.82-18.852-8.111-23.503-12.501-.844-3.236-.855-1.904 1.261-5.615m750.816 120.048c1.61.218 2.58.503 4.14.899 4.85 4.884 12.04 22.045 8.78 28.676-2.19-.516-4.53-.771-5.58-3.275-2.46-5.865-9.13-20.452-7.34-26.3m-173.51-189.972c2.07.889 2.41 1.315 4.14 2.701 2.29 6.314-3.39 21.284-5.83 27.631-2.53-.446-2.55-.292-4.47-2.159-2.07-7.21 2.74-21.607 6.16-28.173m-25.45 85.743c2.29.38 2.67.629 4.77 1.496 2.46 6.212-4.29 21.649-6.73 28.621-3.62.091-2.11.668-4.74-1.638-1.56-6.152 4.55-21.842 6.7-28.479m-68.79 158.937c2.13 1.322 2.03 1.448 3.26 3.529l-.66 1.969c-4.7 3.933-18.46 8.265-24.84 10.533-1.45-.936-1.59-1.191-2.85-2.383l-.02-2.207c3.14-4.876 19.17-9.6 25.11-11.441m280.66-17.562 3.85.621c5.17 4.816 10.69 20.477 9.04 27.337-9.14-.839-14.56-21.543-12.89-27.958m-162.08-308.131c8.84 1.852-1.44 25.464-4.4 30.066-.82-.396-2.62-1.258-3.08-1.91-3.96-5.601 3.87-24.296 7.48-28.156m-314.43 511.938c6.77 1.63 14.28 14.63 17.13 21.16.91 2.08-.69 3.93-1.74 5.53-6.57-2.08-18.12-18.69-15.39-26.69m160.63-280.844c7.62.098 14.62 11.308 18.57 17.105 1.77 2.587.69 4.31-.22 6.896-7.89-.708-13.09-12.028-17.62-17.7-1.87-2.34-1.3-3.842-.73-6.301m284.66 190.376c2.48.937 1.55.139 2.82 2.548-1.68 4.889-17.52 13.531-22.37 16.026-2.86-1.197-3.07-1.815-3.44-4.582 3.17-6.14 16.63-11.78 22.99-13.992m-62.8-629.635c2.78.926 2.68.817 4.82 2.779 1.72 5.914-4.61 17.771-7.22 23.746-11.72-1.66-1.02-20.552 2.4-26.525m-266.96 565.572c3.03 2.142 2.25.961 3.23 4.268-1.75 4.35-16.93 10.108-21.82 12.298-3.16-2.703-2.76-1.547-3.5-4.921 2.45-5.283 16.17-9.36 22.09-11.645m206.88-569.868 3.49-.364c2.2 1.938 1.52.742 1.93 3.801-2.61 4.892-14.24 8.345-19.81 10.512-2.46.199-3.21-.33-5.46-1.275-.71-7.24 13.95-10.656 19.85-12.674M845.217 477.763c1.366.353 2.338.998 3.604 1.668l.538 1.883c-3.053 5.187-16.083 9.648-22.072 12.172-2.858.18-1.568.52-3.981-1.129l-.399-2.367c2.535-5.128 16.502-9.773 22.31-12.227m836.293-204.176c8.13 6.739-5.12 19.081-10.58 23.867-10.23-6.059 5.33-18.876 10.58-23.867m-376.18 489.759c7.6 1.643 14.58 13.024 17.55 19.801.83 1.887-.85 3.717-1.82 5.432-4.7-2.665-15.57-15.691-17.03-21.206-.48-1.827.2-2.106 1.3-4.027M761.063 623.627c7.706.387 16.498 5.174 22.06 10.52 1.113 3.241.916 1.983-.781 6.003-5.827-1.744-15.701-5.557-20.075-9.916-2.327-2.319-1.551-3.816-1.204-6.607M1475.8 365.332c3.68.902 2.58.141 5.15 2.591 1.35 6.911-3.78 17.339-6.48 24.124-3.39-.256-1.89.297-4.63-1.796-1.78-6.116 3.68-18.519 5.96-24.919m-274.74 509.441c2.72 1.092 3.36 2.4 3.78 4.962-2.46 4.703-15.13 8.597-20.56 10.7-2.7-.731-3.29-1.506-3.85-3.995 2.71-4.572 15.27-9.3 20.63-11.667M740.285 303.358c1.713.162 4.745.296 5.136 2.341 1.408 7.369-2.709 17.251-5.961 23.619-1.313-.382-4.358-1.379-4.639-2.72-1.442-6.904 2.866-17.041 5.464-23.24m901.495 180.119c7.97 2.19 12.84 20.893 10.3 26.655-8.91-3.429-14.15-19.095-10.3-26.655m-20.8-75.793c8.87 3.193 12.07 19.69 8.97 26.859-8.19-3.36-11.96-19.224-8.97-26.859m-238.81-93.626c2.13.238 1.87.399 3.87 1.584.14 7.127-16.38 10.173-21.8 11.343-1.24-.438-2.4-1.264-3.55-1.967l-.38-2.041c3.08-4.18 16.33-7.269 21.86-8.919m277.92-12.46c3.03.796 1.92-.042 3.57 2.407-.33 7.622-9.24 16.969-14.37 22.436-1.77-.913-1.96-1.716-2.99-3.472-.29-6.084 9.66-16.717 13.79-21.371m-248.3 1.44c2.62.116 2.8.483 5.01 1.838v2.144c-3.61 4.315-14.55 7.812-20.16 9.867-2-.314-2.37-.757-4.19-1.747l-.44-2.002c2.65-5.016 14.18-8.158 19.78-10.1m158.23 438.271c8.47.778 16.15 18.331 14.48 25.238l-3.03-.384c-5.08-2.824-12.79-19.017-11.45-24.854m-895.182-452.47c2.949-.192 2.845-.06 5.586 1.281l.174 2.201c-2.544 5.211-12.731 9.164-18.11 11.625-1.178-.163-2.512-.829-3.663-1.302-3.219-5.919 11.236-11.357 16.013-13.805m-91.259 46.945c3.097.111 5.331.112 6.259 3.409-2.037 4.933-12.272 8.972-17.286 11.352-1.982.059-3.151-.695-4.965-1.521l-.424-1.68c2.249-5.289 11.369-9.098 16.416-11.56m38.502 438.365c2.463.703 2.535.884 4.597 2.248 2.336 5.014-2.853 17.3-4.478 23.964-2.574-.34-3.186-.236-5.251-1.874-2.236-6.093 2.923-17.915 5.132-24.338m854.909-498.261c2.6 1.464 3.1 2.421 3.56 5.069-3.15 4.919-14.09 7.977-19.91 10.084-2.8-.659-1.55-.039-3.76-2.134l.35-2.355c3.47-3.753 14.55-8.295 19.76-10.664M629.771 738.123c2.575.328 3.204.209 5.194 1.919 2.266 5.938-2.041 17.23-3.912 23.673-3.928-1.13-3.32-.311-5.458-2.946-1.094-6.553 2.287-15.954 4.176-22.646m511.519 310.387c8.17.07 18.44 12.61 15.41 20.92-6.96-.88-16.93-13.17-15.41-20.92M852.367 320.482c5.509 1.234 15.216 9.934 18.439 14.883.895 1.375-.484 3.425-1.106 5.007-6.193-1.383-15.411-8.382-18.232-14.236-1.049-2.178.077-3.569.899-5.654m-129.336 47.693c2.313.367 2.167.329 4.176 1.544 2.378 6.678-3.259 18.596-5.769 25.231-9.599-2.087-.713-20.686 1.593-26.775M1470.5 718.541c9.27 6.529-7.68 15.63-13.44 19.712-3.15-1.798-2.11-.55-3.47-3.661 1.19-5.842 11.82-12.335 16.91-16.051m138.83 130.972 3.7.5c4.25 3.282 8 20.582 5.32 25.606-7.08-1.917-11.39-20.73-9.02-26.106M1440.1 1093.27c9.91 4.39 5.25 15.54 1.69 23.48-10.85-3.02-5.24-16.64-1.69-23.48M929.106 605.12c10.851 1.904 4.058 16.827 1.59 23.766-1.816.194-2.546-.151-4.32-.606l-1.316-2.263c-.658-6.888 1.633-14.483 4.046-20.897m402.844-237.11c7.3-.613 19.23 2.806 24.93 7.7 1.68 1.443 1.07 3.758.99 5.809-5.57-.116-17.22-5.651-22.49-8.32-3.12-1.579-2.81-2.422-3.43-5.189M935.826 570.236c10.935 1.919 2.322 20.047-.433 26.078-2.324.008-2.308.209-4.156-1.116-1.33-5.675 2.625-19.266 4.589-24.962M566.783 436.885c6.364 1.591 17.951 13.348 18.093 20.597-7.61.286-12.128-5.768-16.586-11.472-2.83-3.621-2.31-4.95-1.507-9.125m978.737 631.575c7.8 1.5 16.03 14.19 14.55 22.41-7.81-.45-16.3-14.48-14.55-22.41m-69.12-560.013c7.83 3.148 11.44 19.058 7.81 26.137-6.22-1.685-11.39-20.024-7.81-26.137m-724.133-240.97c6.387 4.586-.808 23.661-4.891 27.655-4.303-3.402-3.522-5.887-2.409-11.005 1.122-5.159 3.149-13.23 7.3-16.65m734.823 280.945c2.22.225 4.82.562 6.07 2.399 3.39 4.961 5.74 17.422 5.02 23.125-1.76-.25-3.96-.198-4.92-1.626-3.15-4.69-6.79-18.509-6.17-23.898m-688.865 92.136c5.61.296 17.412 3.843 20.768 8.68 1.201 1.73-.173 4.272-.76 6.201-5.217-1.831-17.31-5.68-20.431-10.449-.821-1.255-.042-2.597.423-4.432m11.876 156.099c3.652.501 2.775-.172 4.899 2.011l-.319 2.073c-3.708 5.164-10.927 10.07-16.123 13.867-1.648.172-1.88-.09-3.595-.472l-.791-1.893c1.422-5.778 10.949-11.873 15.929-15.586M708.962 270.75l2.488 1.607c3.383 6.51-11.083 12.023-16.248 14.815l-2.917-1.867c-2.625-6.724 11.291-11.709 16.677-14.555m-95.309 539.612c2.255 1.427 3.814 1.688 4.082 4.079.595 5.286-3.906 18.143-6.778 22.208-2.104-1.852-4.094-2.815-4.147-5.692-.098-5.403 3.698-16.479 6.843-20.595m-70.632-520.074c1.738.821 1.88 1.065 3.455 2.227 2.384 5.763-2.762 17.508-4.847 23.699-10.068-4.47-2.585-18.945 1.392-25.926m1037.229 39.32c7.45-.073 19.53 11.969 17.96 20.26-6.85.757-18.04-13.819-17.96-20.26m-210.84 49.288c5.01 1.174 16.48 5.32 19.73 9.434 1.85 2.341.81 4.174.23 6.897-6.83-2.956-14.99-5.887-20.33-10.88-1.22-3.114-1.14-1.735.37-5.451m-48.22 690.884c3-.28 2.84-.24 5.61 1.07.94 6.34-10.87 10.66-15.51 12.74l-2.7.24c-2.67-2.42-2.21-1.3-2.67-4.34 2.8-4.23 10.52-7.33 15.27-9.71M840.417 772.695c3.432 1.122 2.601.286 4.1 2.846-1.38 5.515-12.038 12.688-16.83 16.39-1.189-.217-1.721-.738-2.865-1.42l-.472-2.014c1.896-5.901 10.948-11.888 16.067-15.802"/><path d="M735.01 609.751c5.586 3.131 16.987 5.243 16.305 12.567-1.587 1.307-1.618 1.202-3.593 1.874-5.361-2.234-14.619-4.325-16.962-9.115 1.018-3.63.683-2.482 4.25-5.326M615.812 319.792c3.439 1.467 2.531.536 4.431 3.361l-.666 2.147c-4.032 4.741-11.526 7.122-17.259 9.066-3.326-1.283-2.207-.205-3.805-2.95 1.553-4.683 12.689-9.32 17.299-11.624m756.438 120.785c2.24.411 1.2-.062 2.97 1.859-.67 4.615-11.85 16.386-15.38 20.385-2.85-.762-1.55-.092-3.8-2.442.53-7.222 10.77-14.996 16.21-19.802m183.04-139.888c8.3-.289 19.15 12.468 19.57 19.554l-2.89.588c-5.38-1.74-16.17-14.314-16.68-20.142m-909.465 4.323 1.548 1.203c3.122 8.008-12.931 12.236-18.665 13.936-2.032-1.896-1.411-.777-1.991-3.437 2.764-5.505 13.176-9.061 19.108-11.702m378.405 405.797c5.36.748 16.87.248 18.43 6.037-1.23 2.326-1.86 2.544-3.99 4.001-5.86-.535-13.29-.315-17.12-4.31.25-3.72-.06-2.379 2.68-5.728M809.944 493.041c1.909.913 1.022.301 2.257 2.542l-.756 1.874c-5.179 4.555-13.746 7.886-20.135 10.475-1.691-1.404-1.147-.95-2.297-2.985l.69-2.162c4.859-5.121 13.476-7.438 20.241-9.744M534.139 323.247c2.52.544 2.452.373 4.32 2.097 1.398 5.811-2.303 15.459-4.165 21.405-10.756-2.373-3.688-17.247-.155-23.502m911.801 740.193c2.47.32 2.53.43 4.72 1.38 2.7 5.85-.8 14.02-2.71 20.36-3.71-.19-4.09-.11-5.98-3.11-.95-6.71 1.69-12.26 3.97-18.63M824.997 297.563c7.532 2.008 19.427 8.654 16.796 17.84-8.074-1.493-17.657-8.919-16.796-17.84M1526.4 1038.49c5.93 1.66 14.88 15.69 12.52 22.44-6.38-1.25-8.24-6.33-11.45-11.74-2.74-4.62-2.67-5.81-1.07-10.7M872.081 464.787c2.308-.329 3.251.19 5.447.911l.837 1.722-.796 2.23c-4.454 4.514-7.367 5.374-13.258 7.887-2.301.46-2.581.283-4.908.16l-1.032-1.484.956-2.813c4.54-4.868 6.685-5.642 12.754-8.613m-140.96-127.354c2.29.358 2.158.358 4.189 1.51 2.403 5.62-.532 17.305-4.879 21.21-8.5-3.028-1.536-17.005.69-22.72m-14.708 63.935c1.636.64 3.051.778 3.615 2.081 2.094 4.836-2.845 15.985-4.628 20.574-11.04-2.333-2.49-16.642 1.013-22.655m546.307 700.522c2.95-.26 3.08-.14 5.89 1.01 1.6 6.41-7.34 10.03-12.08 12.09-1.51.87-1.04.46-3.35.32-1.19-2.06-.83-.92-.65-3.62l-.4 1.2c-.5-5.91 6.28-8.8 10.59-11m202.92-630.133c1.78.204 3.83.085 4.67 1.84 3.66 7.598 5.94 19.169 4.7 27.076l-2.82-1.338c-2.51-4.583-6.45-22.223-6.55-27.578m-113.86 581.263c2.81 2.35 2.14 1.13 2.85 4.44-2.34 5.15-9.15 7.53-14.19 9.74-3.28-1.61-3.63-2.23-3.29-5.56 3.49-4.94 9.08-6.62 14.63-8.62m-61.71 33.66c3.07.97 3.54 1.75 4.94 4.02l-.87 2.48c-3.66 3.78-7.02 4.91-11.81 7.08-2.57.22-3.91.02-5.42-1.9l.63-2.56c3.78-4.4 7.49-6.17 12.53-9.12m302.03-177.758c2.72-.314 4.33-.212 5.99 1.817-1.08 4.385-10.64 8.529-14.7 10.617-2.65.9-2.61.795-5.26.625-2.98-5.331 10.44-11.354 13.97-13.059M993.049 706.943c5.49-.247 11.911-.238 16.101 3.46 1.46 3.607 1.07 2.328-.16 6.901-5.47-.749-11.861-.946-15.981-4.32-1.351-3.352-1.108-1.976.04-6.041m190.101 394.647c6.15.77 11.95 7.97 14.08 13.56 1 2.62.21 2.81-1.03 5.12-6.39-.87-15.08-11.9-13.05-18.68m310.81-251.239c3.72 1.205 2.7.272 4.36 3.183.17 5.79-2.52 13.553-4.18 19.324-10.46-1.804-3.32-16.7-.18-22.507m-116.35 186.489c3.38 1.74 2.52.76 4.46 3.72l-.64 2.54c-3.22 3.6-8.34 5.78-12.73 8.05-2.9-1.96-3.77-2.11-4.17-5.4 1.81-3.1 9.4-6.74 13.08-8.91M801.721 279.792c7.423-.267 18.523 8.167 18.643 15.544-7.884.893-17.878-8.217-18.643-15.544M1164.97 1075.9c3.43 1.91 10.31 10.32 11.45 14.44.65 2.35-.86 3.44-2.16 5.3-4.43-1.83-11.31-9.92-11.8-14.94-.26-2.75.76-2.94 2.51-4.8M778.241 258.669c4.987.49 13.255 5.625 15.73 10.194 1.269 2.342.431 3.199-.273 5.592-6.664-.636-17.999-8.117-15.457-15.786m-70.156 175.726 2.967 1.506c2.628 5.922-1.195 16.319-4.604 21.383-7.98-5.728-1.975-15.914 1.637-22.889m-62.911 242.984 3.554 1.288c2.831 5.449-1.503 14.95-3.449 21.622-2.442-.783-2.341-.647-4.218-2.357-1.908-6.56 1.758-14.044 4.113-20.553M1400.32 392.6c4.76.667 13.91 4.088 17.6 7.442 2.73 2.483 2.08 2.911 2.23 6.418-4.75-.651-13.78-3.641-17.43-7.009-2.8-2.575-2.21-3.393-2.4-6.851m-343.44 323.217c5.92.34 11.76-.068 16.3 3.603 1.4 2.661 1.3 2.827 1 5.932-4.04.632-11.64.235-15.3-2.276-2.51-3.542-1.77-2.025-2-7.259m183.22 399.233c2.52 1.74 2.14 3.02 1.71 5.45-3.95 4.65-9.43 5.95-15.12 7.48l-2.18-3.16.64-2.08c4.05-4.66 9.19-5.94 14.95-7.69M603.368 479.384c8.842 2.889 14.18 6.619 10.784 16.36-7.202-1.746-12.546-8.608-10.784-16.36m-1.257 367.082c2.676.458 3.932.365 5.8 2.301.698 2.89.578 3.089-.466 5.894l-3.282 8.984c-4.176-1.027-4.022-.749-5.913-3.656-.764-4.872 1.5-9.314 3.861-13.523m275.29-500.516c7.53-1.044 17.063 7.237 17.97 14.322-7.435-.916-16.834-6.432-17.97-14.322m-289.05 115.576c9.832.486 11.973 6.803 10.514 15.452-7.81-2.227-12.819-7.186-10.514-15.452m187.503 47.12c3.095-.278 4.484.381 5.948 2.933-1.325 5.416-4.752 6.694-9.435 8.569-4.154-.351-3.063.313-6.022-1.887l.161-2.099c2.942-4.052 5.046-4.973 9.348-7.516m6.391 311.078c3.67.311 2.587-.294 5.093 1.79-.638 4.775-7.788 9.551-11.787 12.797-2.213.364-2.967.005-4.136-1.447.641-5.218 6.751-9.525 10.83-13.14M636.967 709.423c3.659.583 2.907-.074 5.299 2.037 1.169 5.183-1.375 11.673-2.84 17.064-3.06-.275-3.485-.298-5.132-2.574-.81-4.743 1.435-11.614 2.673-16.527m453.103 9.617c4.64.313 10.83.406 13.09 4.802-1.45 3.166-.85 2.121-4.07 4.321-5.15-.268-9.69-.013-12.81-4.626 1.26-3.304.61-2.164 3.79-4.497m548.47-388.646c1.22.519 2.54 1.37 3.72 2.057l.43 1.968c-1.07 4.637-5.72 9.981-8.74 13.976-2.64.522-1.46.753-3.67-.58-.69-5.096 5.31-12.957 8.26-17.421m-288.38-4.276c1.14.236 2.28 1.138 3.33 1.802-.28 5.463-10.41 6.982-14.78 7.893-3.05-1.202-2.17-.182-3.25-2.655 2.35-4.44 10.11-5.845 14.7-7.04m-815.42 73.633c7.652 2.331 11.581 7.311 8.626 14.91-6.792-2.002-12.22-7.788-8.626-14.91m14.341 19.805c8.26.351 12.84 4.283 11.33 12.786-8.215-.86-10.776-5.024-11.33-12.786m647.199-48.313c2.33.871 2.17.793 3.61 2.841.4 5.343-2.31 8.935-5.12 13.369l-1.86-.192-1.09-1.689c-.55-5.594 1.78-9.664 4.46-14.329m-643.599-20.689a5.054 5.054 0 1 1 1.526 9.992 5.054 5.054 0 0 1-1.526-9.992m876.059 57.063c6.9.515 11.33 1.805 12.15 9.543-7.5-.919-11.21-1.398-12.15-9.543"/><path fill="#fefefe" d="M1871.36 142.349c42.62-1.482 63.86 3.076 97.82 31.139a16177 16177 0 0 0-52.14 310.921 20537 20537 0 0 0-44.37 270.083l-37.28 229.247c-3.87 24.071-9.76 52.441-12.94 75.911-3.15-2.76-6.58-5.55-9.81-8.26-28.03-19.35-57.29-21.52-87.04-5.22 5.94-33.62 4.4-72.162 9.58-106.338 1.2-7.93.2-19.307.94-27.801l32.36-374.022c5.86-71.447 12.08-146.309 19.14-217.453l7.81-83.99c1.76-18.546 4.77-44.084 4.7-62.245 18.71-18.508 46.18-26.877 71.23-31.972M345.863 98.375c10.048-1.51 27.97-.053 37.628 1.908 37.689 7.656 60.078 30.036 80.534 60.069-6.699 16.636-13.239 36.673-19.284 53.816l-35.503 100.834-43.019 121.727c-7.218 20.767-14.968 41.688-21.28 62.713-15.982 8.293-23.249 5.657-45.308 19.581-57.654 36.393-75.757 102.891-92.894 164.908-7.505 27.159-14.53 56.228-29.406 80.901-9.303 17.709-26.939 45.315-44.132 55.596-4.13 2.469-9.517 4.181-14.129 5.672 16.238-84.626 38.072-175.102 56.68-259.843l95.297-438.847a163.84 163.84 0 0 1 74.816-29.035m219.224 520.458c5.536 7.836-9.224 63.324 5.432 74.881 4.2 3.312 9.168 5.539 12.908 9.556-4.345 3.604-11.244 1.981-14.951 5.563-7.046 6.809-4.76 28.648-5.511 39.612-6.181.557-10.753.606-16.716.623-9.178.027-24.983-15.02-29.562-10.286.39 4.995 6.095 11.232 10.135 14.014 10.889 7.496 22.711 7.516 35.315 5.473-3.257 14.498-8.068 22.747-18.075 33.529-21.822 18.111-52.551 6.46-72.845-8.217 9.197-43.417 18.788-79.177 25.97-123.74 25.74-7.827 47.454-24.226 67.9-41.008"/><path d="M538.85 654.578a6.967 6.967 0 1 1 5.331 12.874 6.967 6.967 0 0 1-5.331-12.874"/><path fill="#fefefe" d="m1246.5 642.713.19 1.157c14.88 92.296-2.11 93.051-52.88 163.581-11.04-12.102-30.03-28.757-43.45-38.664-5.66-3.537-12.4-6.867-15.53-12.594-1.37-10.057-.22-50.214 4.23-58.454l1.32-.027c5.97 15.754 26.38 26.355 43.05 24.401 47.77-5.599 39.16-50.111 63.07-79.4m505.82 442.607c26.67-.63 46.24 3.46 59.84 28.28-.67 26.32-7.35 34.13-33.91 39.37-12.52 1.29-27.18.76-38.78-5.06-13.19-6.61-27.94-28.9-19.67-43.46 5.38-9.49 22.38-16.5 32.52-19.13"/><path fill="#fefefe" d="M1314.04 505.496c5.01 2.052 10.78 9.475 14.47 13.76a7822 7822 0 0 1-150.94 178.817c-2.23 2.334-2.66 2.704-5.44 4.331-3.78.254-2.4.722-5.04-1.538-2.07-3.803-1.37-8.299-1.16-12.689 21.09-30.51 46.97-58.286 70.27-87.095 25.5-31.522 53.48-63.357 77.84-95.586m442.39 546.664c28.34-2.43 45.16 9.59 62.58 30.03l-1.09 10.66c-8.03-8.52-10.67-11.68-21.34-16.88-18.29-7.95-38.06-9.25-57.09-3.06-4.13 1.34-13.26 5.59-15.94 2.33.89-10.59 23.13-20.89 32.88-23.08m-595.26-402.537c2.96 4.074 4.45 12.977 5.64 18.191-2.69 4.809-6.71 10.418-9.86 15.071-2.31-.655-2.59-.509-4.14-2.372-.86-8.738 4-23.258 8.36-30.89"/></svg>