<svg xmlns="http://www.w3.org/2000/svg" preserveAspectRatio="xMidYMid meet" viewBox="0 0 2048 2048"><path d="M1009.11 172.421c12.31-1.574 50.09.03 64.12.419 151.05 4.187 324.76 64.442 447.44 152.293 197.32 143.599 329.96 359.313 369.05 600.208 11.54 71.389 16 129.509 11.57 200.919-7.76 125.23-39.91 241.79-97.78 353.2-22.37 43.05-40.28 75.99-68.89 115.57 7.22 5.02 15.19 7.82 24.47 14.52 12.19-12.75 4.08-14.63 22.12-23.29 14.42 6.09 44.96 21.8 52.7 36.68 3.39 6.5-4.99 22.66-8.12 29.9 9.43 5.42 83.68 33.02 72.01 50.3-6.56 9.72-47.07 77.64-52.44 79.3-16.65-.19-52.34-25.51-62.73-38.94-7.19-9.29-10.15-19.58-19.92-29.32l-1.03-1.02c-9.81 20.54-19.79 35.06-31.24 53.99l-49.79 81.06c-19.04 31-36.92 63.64-57.11 94.02-2.74 4.13-5.52 6.16-9.59 8.9-12.77-6.06-49.57-24.11-56-35.05-1.09-5.97 11.76-23.97 15.46-29.67 40.23-61.92 81.72-122.75 119.13-186.47 5.66-9.65 11.87-18.78 15.93-29.31-7.22-10.53-12.69-13.42-23.19-20.24a868.6 868.6 0 0 1-153.42 145.27c-15.11 11.31-26.86 21.75-43.06 32.53-87.78 58.37-188.74 93.47-292.04 112.02-11.48 2.06-22.01 4.49-31.39-2.19-49.38 6.08-86.82 7.84-135.68 10.9-17.57.52-35.148.45-52.712-.22-25.626-.99-47.832-4.33-73.122-8.04-169.847-24.91-326.234-96.35-454.75-210.34-26.607-23.6-49.197-48.59-73.228-74.61-10.873 10.52-29.473 28.58-39.195 39.19 10.9 14.02 21.698 32.27 31.19 47.35l44.3 69.5c18.019 27.77 37.141 55.07 55.074 82.87 7.301 11.32 18 24.08 22.104 36.57-6.203 9.88-43.09 25.67-53.713 33.88-.897.69-3.632.76-4.8.78-3.407-1.16-6.545-5.57-8.353-8.67-43.618-74.91-92.442-149.49-135.508-224.43-3.729 1.75-9.266 3.59-13.253 5.05-13.702 42.87-38.641 40.99-70.637 58.75l-1.614.91c-6.108-4.13-13.806-11-16.843-17.13-6.374-12.87-35.342-51.87-35.277-64.09.115-21.5 64.612-46.66 79.234-53.67l-.882-1.04c-9.715-11.58-18.061-25.45-2.135-36.72 12.605-8.91 32.171-21.61 48.312-20.49 6.931.49 14.449 14.19 18.147 19.9 14.227-15.36 27.321-20.49 46.432-27.74-12.841-12.96-32.226-42.74-42.944-58.33-82.244-119.56-125.916-257.24-136.715-401.54-2.694-35.99-2.925-63.57 3.055-99.72 1.891-11.43 5.453-27.96 6.558-38.616 5.341-51.498 13.216-101.942 25.306-152.347a911.55 911.55 0 0 1 188.895-369.051 845.6 845.6 0 0 1 338.22-243.598c36.969-14.924 74.039-27.989 112.955-37.047a1071 1071 0 0 1 122.895-20.334c16.908-1.667 34.972-1.946 52.424-3.476"/><path fill="#fefefe" d="M1004.64 201.428c8.54-1.208 51.14-.349 61.23-.025 214.02 7.884 416.2 100.225 562.29 256.815 162.19 173.462 249.63 403.763 243.44 641.152-2.67 80.83-24.67 192.48-53.64 268.68a1089 1089 0 0 1-57.13 123.39c-12.59 23.74-39.89 70.79-58.92 88.62-7.79-2.25-14.79-5.21-22.94-7.15-28.06-6.7-57.33-7.77-85.86-3.76-12.26 1.73-30.8 13.28-27.31 27.77a16.08 16.08 0 0 0 11.24 11.74c6.15 1.79 15.7-.31 22.23-.41 21.14-.33 42.75 7.55 60.24 18.69-2.37 4.02-15.07 18.43-18.66 22.47-21.48 24.08-47.75 54.6-72.16 75.5-7.69-45.72-6.28-94.63-17.66-140.51-.81-3.29-4.03-20.13-2.25-22.41 16.76-20.72 36.24-38.48 53.63-59.11 96.04-113.91 136.2-261.94 142.81-408.41 1.68-37.19-5.28-81.5-12.03-118.423a885.5 885.5 0 0 0-132.84-335.597 415 415 0 0 0-71.47-82.76c-40.08-35.788-84.1-61.556-129.81-89.584-41.43-25.407-88.99-64.931-136.8-74.421-8.63-17.705-21.56-40.133-34.84-54.704-20.73-22.742-51.28-45.093-81.21-53.604-10.33-4.238-33.65-6.701-42.68-11.743-29.3-16.351-35.59-20.744-69.31-23.323-14.74-1.977-58.614-.037-70.145 7.616-19.989 13.267-29.981 19.519-54.981 24.347-8.846 1.708-26.813 11.78-35.892 16.18-50.123 24.291-76.71 60.965-103.548 108.084-59.49 18.482-94.76 36.351-147.537 70.121-35.115 22.47-49.641 36.322-79.972 62.614-106.149 92.014-171.93 217.229-201.393 353.543-9.892 45.765-23.006 120.204-23.691 166.454-1.442 97.39 34.464 208.51 73.88 297.07 8.998 20.22 22.691 43.01 33.625 62.38 7.76 12.08 14.226 26.73 22.329 38.47 21.644 31.34 43.678 62.62 66.325 93.24 9.029 12.21 19.267 24.28 27.429 36.82-3.291 26.19-9.952 54.58-13.481 81.12-3.081 23.18-4.399 46.38-7.527 69.39-12.833-12.22-33.342-24.82-47.291-36.99-23.385-20.4-44.552-45.64-66.841-66.17 10.345-3.47 23.755-6.2 34.613-8.19 15.957-2.93 47.96-2.39 59.43-14.19.624-1.89 1.262-2.48.667-4.08-2.163-5.84-17.126-12.45-22.51-15.96-2.185-1.42-14.924-3.71-18.195-4.7-24.863-7.57-61.043-8.39-86.356-.3-17.602-17-38.011-48.94-51.585-69.61-79.277-120.76-117.43-250.13-125.787-394.36-14.57-233.254 64.727-462.655 220.235-637.121 13.737-15.406 31.795-36.121 46.483-50.322 29.342-28.368 63.611-55.819 95.867-80.853 9.219-7.154 28.697-18.529 38.951-25.133 84.398-54.355 181.209-94.135 279.541-114.367 43.716-8.995 83.7-11.466 127.767-13.986"/><path fill="#fefefe" d="M1270.43 416.363c22.94 3.188 82.33 45.136 104.6 59.383 31.26 19.996 70.19 43.025 100.31 64.69a491 491 0 0 1 48.29 39.593c70.13 65.343 126.64 183.511 158.53 273.981 19.24 54.573 40.75 160.59 41.81 219.65 1.98 109.84-29.3 244.33-84.79 339.64-24.02 41.27-55.58 80.49-87.77 115.06-2 2.46-6.89 6.62-9.42 8.9-10.33-64.85-38.16-144.89-67.56-203.45-22.55-44.94-71.27-94.67-108.91-128.3-16.08-14.38-53.85-38.54-73.38-49.06 22.98-14.31 36.06-20.63 51.51-43.12 51.09-74.35 4.53-150.414-33.66-217.189-6.94-12.148-19.6-49.713-21.97-64.673 4.12-7.336 9.97-11.995 14.77-18.562 23.9-32.715 25.98-66.263-7.75-92.637.14-13.264 2.54-27.324 3.24-40.491.88-16.663 1.58-36.253.87-52.817 8.95 2.93 50.29 17.007 41.85-6.287-2.25-6.214-36.47-10.597-44.07-12.303 2.71-48.202-2.26-105.217-12.96-152.447-2.51-11.052-9.4-28.577-13.54-39.561m-508.541 11.758c1.598 2.122-6.714 26.224-7.815 30.398a462 462 0 0 0-12.559 70.999c-2.102 23.412-2.855 50.629-5.849 73.389-11.065 1.009-48.863 2.979-50.861 17.363 1.061 3.16 4.551 7.562 8.011 7.333 14.512-.96 26.29-4.597 41.127-4.651-12.404 35.979-15.514 61.487-14.596 99.058-23.117 21.787-19.198 46.136-9.305 73.398 4.177 11.51 12.443 20.567 19.795 30.181-21.367 69.946-74.991 118.782-78.254 190.441.246 10.04 3.931 26.56 8.959 35.09 15.418 26.15 33.777 36.38 45.294 66.45 9.53 24.87 23.776 49.84 42.676 68.73-67.682 45.25-139.155 164.57-167.529 240.03-13.828 36.78-24.739 91.56-35.243 130.38-3.697-3.95-8.659-10.79-12.085-15.25-100.543-125.42-181.449-287.11-196.041-449.33-6.503-72.29 21.907-191.95 43.917-261.799 52.507-166.635 171.756-307.147 330.931-380.826 16.67-7.788 33.297-13.077 49.427-21.384m218.092 213.305c40.179-.888 80.369-.549 120.529 1.015 18.1.685 60.22 3.535 75.87 1.685 14.84 31.888 33.89 51.397 62.99 71.051-3.4 39.599-5.5 69.762-14.33 109.117-12.29 54.729-25.94 108.625-58.91 155.333-29.79 42.183-65.01 62.183-115.13 70.113-1.66.29-3.33.58-5 .86-30.09 4.99-51.93 2.29-81.403-4.95-87.498-21.5-135.511-111.975-151.24-194.275-8.388-43.891-16.115-88.262-23.226-132.824 5.064-6.355 13.76-12.811 20-18.488 17.06-15.52 28.462-29.087 38.707-49.603 13.901-2.123 30.124-2.863 44.323-3.868a3586 3586 0 0 1 86.82-5.166"/><path d="M1095.32 665.945c11.25.366 67.53.943 72.78 7.605 3.56 4.516 4.15 12.687 2.9 18.083-1.26 5.435-5.46 8.374-9.95 11.146-15.47.971-50.2-.674-66.03-1.751-14-.952-17.38-24.383.3-35.083m-165.034.706c16.48-.042 18.493 23.224 12.241 28.126-10.717 8.402-58.594 7.877-71.776 8.446-18.676.828-17.817-21.229-10.912-27.032 9.301-7.816 58.686-9.204 70.447-9.54m82.044 103.832c1.88.549 5.05 1.25 6.22 2.792 5.31 6.981-2.24 68.078-3.82 80.302 5.95 1.415 11.02 1.939 13.1 8.239-.91 3.897-1.19 3.998-4.11 6.947l-10.07.461c-4.28.19-8.43.488-11.74-2.555-2.222-8.359 6.91-89.135 10.42-96.186m116.45-42.143c10.5-2.65 21.16 3.715 23.8 14.215s-3.73 21.152-14.23 23.79c-10.49 2.635-21.13-3.73-23.77-14.221-2.65-10.49 3.71-21.137 14.2-23.784m-81.2 183.181c14.46-.979 15.82 15.744 4.67 15.94-18.6.327-37.38.491-56 .788-6.889.106-22.027 1.869-16.993-10.251 8.607-7.755 24.663-4.625 35.733-5.235 10.77-.594 21.81-.975 32.59-1.242M898.111 730.432c12.483-1.042 25.35 3.198 26.545 18.629.564 7.288-6.951 13.52-12.031 18.151l-1.121-.635-1.918.327c-4.909.871-7.46.141-12.392-.594-15.466-11.574-15.5-25.134.917-35.878"/><path fill="#fefefe" d="M912.23 1043.55c51.051 37.13 140.84 36.27 195.95 9.17 5.31-2.62 10.67-5.28 16.05-7.82 2.94 21.46 2.93 71.15 11.37 89.34-13.16 18.11-30.03 36.55-44.39 54.16-16.47 21.15-35.48 39.89-52.48 61.91-42.043-28.89-71.209-64.03-109.027-97.22-9.816-8.62-19.447-16.89-29.035-25.78 3.512-19.86 11.402-64.31 11.562-83.76m-501.567 554.84c17.845-2.06 33.871 2.12 50.673 7.39-12.975 3.19-42.226 6.71-53.475 10.94-40.266 16.26-69.058 54.29-101.187 82.21-20.091 17.46-44.102 22.39-55.014 47.68-5.81 13.46-24.702 22.19-37.907 27.07l-10.548 4.68c-10.87-17.88-29.517-39.47-38.313-59.37 26.853-27.23 59.227-34.74 92.215-51.67 29.807-15.29 51.976-43.94 85.03-53.2 22.741-6.37 45.008-13.29 68.526-15.73m159.933-62.32c51.988-1.66 115.325.04 167.873.93-.482 16.44-3.874 68.3-9.923 82.14-2.386 1.15-6.678.6-9.562.48-50.877-3.72-113.976 2.19-164.109-1.26 5.538-29.21 6.171-52.25 15.721-82.29m953.114 112.33c3.77-.54 13.6-.52 17.85-.62 1.41 17.38 4.16 57.57 7.27 73.41-5.31.81-10.4 1.15-15.72 1.7-49.38 5.1-99.03 8.78-148.35 14.42l-14.72 2c-3.46-18.94-5.05-38.73-8.48-57.74-1.28-7.11-2.29-14.65-2.87-21.85 26.27-.39 55.09-3.47 81.55-5.33 26.91-1.9 57.03-2.49 83.47-5.99m-976.316 13.52c14.038.89 27.622.66 41.658.96l77.948 2.08c19.358.41 37.318-.03 56.825 1-2.178 25.93-6.195 50.7-8.15 76.85l-1.54.67c-15.774-.93-36.478-.49-52.691-.74q-61.357-.975-122.721-.99c2.461-26.99 6.051-53.03 8.671-79.83m963.186-136.52c3.82-.52 4-.71 7.92.01 5.28 4.69 13.39 58.4 16.52 69.31l.32 1.08c-52.53 6.78-115.06 10.37-168.84 15.57-5.12.54-10.42 1.35-15.53 2.06-4.14-18.19-9.74-60.87-10.78-78.97 52.33-1.75 118.21-4.64 170.39-9.06m104.75 58.04c7.1-1.19 20.91-.4 28.09-.06 66.24 3.19 115.35 49.48 169.4 81.53 22.72 13.47 44.96 17.2 66.55 34.49-12.28 20.28-24.02 41.49-37.21 61.07-.84.98-1.66 1.43-2.74 2.22-10.97-.84-39.48-22.24-46.05-32.03-3.46-5.17-9.42-18.11-12.35-24.26-11.29-6.74-20.59-10.39-30.92-19.44-62.87-55.11-75.51-96.56-167.18-93.98 9.15-9.34 19.54-8.45 32.41-9.54m-635.708-271.9c18.892-.84 38.938-.75 57.918-.87-.48 17.82 1.32 40.53 3.58 58.18-18.5.81-36.51 2.26-55.206 2.79-32.142.91-63.999 1-96.069 3.3-19.275.19-40.977 1.91-60.771 2.52 2.527-16.53 3.898-46.53 5.226-64.45 16.412-.57 34.841-.07 51.423-.11 31.303-.15 62.605-.6 93.899-1.36m494.998 97.96c4.8-.03 6.95-.32 11.52 1.13 6.62 7.83 19.96 54.34 23.05 66.77-11.63-.14-28.35 2.02-40.57 2.79-39.13 2.49-78.22 5.73-117.37 8.42-7.96.74-11.78 1.1-19.43 3.06-2.01-8.57-2.67-19.04-4.07-27.91-2.57-16.27-5.45-31.93-6.95-48.37 11.63.92 39.2-1.15 52.15-1.71zm-244.58-104.71c2.78 2.42 8.49 50.32 10.02 57.95-29.89 1.76-61.01.99-91.18 2.06-29.4 1.04-57.79 4.03-87.13 3.41-3.47-.05-2.39.63-4.51-.96l-2.19-56.89c8.83.77 42.49-1.3 53.34-1.67q60.825-2.28 121.65-3.9m-628.437 123.15c16.025.79 32.967 0 49.137.33 33.057.68 65.976 1.2 99.045 1.17-1.67 21.02-2.938 40.58-5.205 61.74l-10.984.73c-48.279-.23-104.501.34-152.309-1.29 4.898-20.04 12.096-43.75 20.316-62.68"/><path fill="#fefefe" d="M1722.16 1685.95c4.19 2.75 20.27 18.1 25.1 22.34-13.63 20.03-25.99 42.52-38.72 62.93-11.58 18.56-26.02 42.66-37.34 60.76-10.53 16.84-48.89 87.66-59.86 97.56-3.26.58-2.15.46-5.81-1.72-10.05-5.69-19.28-10.95-29.69-16 3.54-6.41 7.55-11.92 11.77-17.87 47.7-67.44 89.12-139.18 134.55-208m-295.01-385.42.79-.04c10.25 5.94 33.42 50.41 40.12 63.06-11.32 1.63-31.63 1.62-43.73 2.03-28.03.86-56.06 1.88-84.08 3.06-8.94.59-20.81.31-29.97.35-2.37-19.67-9.38-41.15-11.78-64.19 11.71-1.5 26.14-.76 38.01-1.52 29.7-1.88 61.26-1.01 90.64-2.75m-765.404 10.54c18.379-.57 37.576.59 55.973.46 16.116-.12 31.79-.62 47.942-.46.051 18.09-4.716 55.4-7.457 74.05-11.05.34-23.08.18-34.194.22-7.162-.62-28.059.68-36.462.91-22.68.63-45.368.91-68.057.85 8.336-19.92 31.06-56.82 42.255-76.03m-339.438 393.94c9.162 8.24 50.768 76.68 59.712 90.48a6583 6583 0 0 0 87.489 130.9 632 632 0 0 0-25.046 14.07l-8.598 5.45c-5.972-8.33-15.243-24.86-20.945-34.28l-33.883-55.03-41.696-68.36c-13.11-21.33-26.279-41.77-37.135-64.34 7.764-6.73 12.963-11.36 20.102-18.89M1009.52 560.445c12.72-.89 34.58.808 48.21 1.167 62.34 1.686 124.97 8.893 186.25 20.36 5.69 1.064 39.31 7.11 31.11 17.752-3.42 1.061-23.97-2.799-28.65-3.699-67.62-13.003-140.37-23.003-209.33-22.727-14.96.903-29.97-.203-44.917.117a1328 1328 0 0 0-99.53 6.169c-31.044 3.126-63.172 8.189-94.271 12.221-10.366 1.344-23.317 6.163-33.739 7.038-1.314.11-1.621-.739-2.742-1.912-.834-3.691-.647-3.599.578-7.012 5.262-5.285 61.676-12.996 72.561-14.746 57.565-9.254 116.273-12.21 174.47-14.728m484.74 1214.135c3.79-.38 7.32-1.04 10.99-.12-18.44 19.98-96.11 62.58-121.97 73.08-1.19.31-.38.2-2.45-.34-2.26-6.02-5.54-53.31-6.14-62.29 26.67-3.46 54.47-3.76 81.27-6.61 12.75-1.35 25.52-2.68 38.3-3.72m-216.51-581.53 36.7-.19c14.82 8.5 65.58 46.02 71.09 59.93l-3.32.11c-30.54 2.17-61.95 3.06-92.65 4.73-2.72-11.06-3.84-22.39-5.92-33.58-1.94-10.42-4.23-20.5-5.9-31m249.16 416.36c3.12-.42 4.93-1.03 7.77.26 5.1 5.52 4.94 16.68 5.72 24.64-18.6.64-37.75 2.97-56.41 4.34l-119.24 8.53-8.72.61-3.5-21.74c17.06-1.31 34.5-3.57 51.66-5.19zm-942.344 178.44c28.285 1.57 56.578 1.1 84.876 1.38 13.389.13 28.097-.81 41.264.54-3.204 17.51-3.974 41.53-7.004 56.11.417 2.75.442 2.55-.817 5.03l-2.082.35c-15.184-5.66-39.168-19.67-53.8-27.41-21.383-11.31-42.971-21.65-62.437-36m923.794-297.41 2.11-.27c3.6 3.33 6.28 17.46 7.68 23.09-10.46.22-23.47 1.44-34.29 1.95l-67.63 2.9c-19.42 1-47.3 1.47-65.98 3.79l-11.65 1.61c-2.38-8.42-3.2-11.72-4.06-20.34zm-473.57-210.76.57.22c2.02 3.02 1.85 12.8 2 17.03-22.31.36-194.419 5.7-201.669 2.26l-.048-2.43c.221-5.61 1.025-11.1 1.721-16.68 12.938 1.91 54.672.47 70.188.5l73.189-.07c15.142.09 39.769.89 54.049-.83M770.728 728.486l1.68.044c2.015 5.495 5.306 29.882 6.09 36.574-11.132-2.456-29.428-12.43-39.622-7.29-2.544 3.641-1.765 1.659-2.2 6.257 1.086 3.13 3.182 4.108 5.931 6.101-3.386 4.175-8.713 9.169-7.595 14.604 4.152 3.301 7.166 1.362 12.436 3.84 5.757 2.707 10.705 10.161 15.705 11.731 2.976-1.816 2.03-.585 3.188-3.606-.473-6.777-5.842-12.948-9.863-18.5l.348-1.032c16.066-6.841 24.139.947 26.487 16.704a1502 1502 0 0 1 7.089 36.555c-2.138 1.678-3.947 2.638-6.883 2.063-33.644-6.583-59.723-37.266-61.655-71.233-.828-14.563 8.467-24.414 19.299-32.078 10.283-.434 19.166.687 29.565-.734M551.759 1631.04c13.475.84 29.643.25 43.29.14 25.852-.19 51.704-.26 77.555-.2 18.134.02 37.296-.37 55.24 1.22l-3.133 20.48c-17.715 1.49-61.419.19-80.676-.37-28.069-.82-65.996-.36-92.841-2.8-1.998-3.36.001-14.07.565-18.47m988.561 104.38 11.97-.21c-.2.26-.39.51-.6.76-6.09 7.46-14.2 15.8-23.12 19.63-21.89 9.4-113.41 11.9-143.47 15.36-15.05.52-12.55-4.57-13.45-18.31 53.29-5.86 115.54-14.33 168.67-17.23m-85.97-358.9 19.83-.57c1.84 6.06 5.88 15.09 8.41 21.2-10.63 1.4-29.87 1.59-41.29 2.09-34.52 1.53-68.96 2.02-103.55 3.56-5.48.39-14.2.17-19.92.2-1.41-7.37-2.46-13.48-3.37-20.92 39.16-.4 78.77-3.5 117.97-4.43 6.82-.16 15.23-.3 21.92-1.13m-694.193-176.51 18.233 1.23c-3.779 22.14-3.877 45.81-7.649 68.56-10.123-1.63-43.372-.98-55.491-.96l-22.292.06c9.642-13.26 54.963-61.71 67.199-68.89m-223.16 553c18.817 1.02 33.704.45 51.834.82 41.556 1.05 83.119 1.8 124.686 2.24l-.904 12.71-.939 8.05c-49.356 1.17-96.606-1.98-145.041-1.71-8.664-5.4-22.523-15.07-29.636-22.11m42.227-251.26c9.49 1.53 28.961.98 39.465 1.1q42.776.225 85.545 1.08c11.611.24 26.35-.19 37.591 1.18 1.314 2.08-1.155 16.76-1.927 20.2a6624 6624 0 0 0-165.582-2.66c2.071-7.28 2.402-12.97 4.908-20.9m640.576-227.2c11.91-2.34 11.91 13.91 7.3 18.65-45.58.19-91.47 2.52-137.09 2.76-8.82.04-17.23 1.29-26.09.22-2.32.73-6.45.72-8.6-.6-1.88-3.2-1.96-10.49-2.15-14.45 2-1.73 3.5-2.27 6.28-2.34 53.41-1.37 106.96-2.32 160.35-4.24m-6.19-77.73c3.12 2.8 9.48 55.81 11.53 64.68-15.22 1-29.11 1.2-44.39 1.35-3.6.11-6.75.61-9.99-.77-.2-18.57 4.55-41.5 4.39-64.83 12.82.12 25.64-.02 38.46-.43m41.31-468.91c37.16-1.202 54.84 23.42 40.73 57.64-10.29 24.956-28.6 36.136-52.12 45.629.56-4.502 1.45-9.412 2.17-13.931 1.3-9.372 3.78-30.796 6.26-38.884 2.63-2.747 1.11-1.82 4.7-2.935 6.45 4.251 1.82 12.036 10.98 13.414 11.61-3.459 28.02-18.384 16.33-30.181-3.65-3.679-25.66 3.801-29.66 5.747-1.27-1.785.75-31.025.61-36.499m-173.69-439.474c2.45.379 9.3 1.643 9.46 5.338-.04 10.732-.51 31.441-2.63 41.269-6.44 29.987-10.22 168.55-19.89 184.808-3.83 1.814-5.27 1.845-8.27-.751-1.74-5.22 1.87-35.898 2.58-43.595l8.44-87.364 6.82-72.041c.64-6.467 1.13-22.872 3.49-27.664m-129.482.44c3.392.01 3.932-.261 7.009 1.225 3.576 3.993 5.811 63.173 6.67 74.373l11.571 148.139c-3.093 3.455-4.54 5.007-9.543 4.025-1.878-1.589-3.558-2.763-3.736-5.584-1.835-30.221-3.606-60.453-5.605-90.671-2.747-41.545-8.536-82.89-9.091-124.558-.04-3.029 1.079-4.548 2.725-6.949M725.056 1397.55c8.768.57 22.987-.18 32.25-.44-2.099 5.5-3.957 14.01-6.03 20.34-20.795.49-43.024-.51-63.929-.85-12.815-.2-27.67.33-40.099-.46-10.927-.94-29.544-.16-41.095.03 3.368-6.95 4.656-9.46 9.124-15.69 25.192-.9 50.487-1.1 75.675-1.88 10.692-.33 23.671-.11 34.104-1.05m642.074-129.99c8.87.47 22.91-.69 32.82-.59 7.92 5.44 13.69 13.95 19.56 21.61-26.31.94-52.83.45-79.76 1.45-14.69.79-29.51 1.09-44.29 1.88-1.92-6.36-3.19-14.84-4.39-21.55 14.82 1.12 59.17-2 76.06-2.8m-218.62-149.42c6.04 1.5 11.04 2.45 15.7 6.59 1.15 4.54-3.36 48.5-3.81 57.41-9.57-2.2-27.61-7.07-35.51.68-1.14 3.77-1.02 1.86-.01 5.95 5.01 3.46 26.9 2.41 34.47 2.66-1.46 12.85-2.79 25.7-4.01 38.57-9.86-10.9-14.75-21.23-23.59-32.4-16.15 2.25-17.92 5.7-30.28 16.62-11.59 10.8-31.89 30.55-44.47 38.69 5.71-8.35 21.97-24.44 29.53-33.1 22.48-25.75 46.27-50.91 66.8-78.29 10.4-13.88-2.71-11.19-4.82-23.38m-250.584 76.33c16.936-.85 39.523 4.58 56.165 8.78 8.584 3.46 19.975 14 25.958 21 15.175 17.77 36.991 27.71 53.341 42.58l-.56.33c-9.87-4.87-24.73-16.45-35.325-23.01-20.064-13.56-43.089-26-61.973-39.39-11.844 8.22-31.334 32.51-40.969 44.36-4.819-18.54-9.263-34.55-13.09-53.4 4.909-.65 11.4-.9 16.453-1.25"/><path fill="#fefefe" d="M1124.72 1216.83c2.9 3.45 5.66 7.96 7.95 11.88 7.02 12.09 15.05 22.72 23.38 33.89-16.98 2.53-38.24 2.4-55.8 2.69l-33.85.82c5.56-6.23 11.32-9.15 17.29-14.05 10.79-8.85 33.15-25.19 41.03-35.23m-188.287 10.79c11.704 4.69 56.735 32.28 67.507 39.43-11.065.23-22.129.2-33.19-.07-21.738.42-44.88.02-66.72.01 10.417-13.87 21.811-24.68 32.403-39.37m-92.16-27.59c6.117.01 13.22-.66 18.735 1.03 3.726 5.15 15.037 55.33 16.59 63.63l-1.664 1.28c-10.783-.75-26.292-.05-37.32.29.314-22.72 4.263-43.7 3.659-66.23m39.969-62.35c.358-.06 2.651-.04 2.73.03 14.18 11.67 49.409 44.24 60.399 54.87-13.989-5.92-22.978-9.05-38.069-9.84-8.137.09-27.816 4.62-31.712 2.95-2.504-3.26-8.078-22.9-9.943-28.39 5.802-1.41 16.645-2.42 17.335-8.78-3.773-7.23-12.28.83-18.591-1.88-1-3.17-.581-2.49.219-6.23 2.899-2.01 12.852-1.98 17.632-2.73m-120.704 142.88c2.657-.24 4.585-.22 7.232-.23-1.689 6.63-1.846 12.32-4.297 18.79-6.75.97-22.475.6-29.648.53l-53.069-.74-11.147-1.29c3.318-5.44 8.444-10.74 12.729-15.55 23.073-.24 55.699-.26 78.2-1.51m52.601 141.5c11.542 1.57 25.886 6.72 20.069 23.4-1.669 4.79-7.762 8-12.506 9.6-8.504.19-17.708-1.71-21.599-10.33a13.63 13.63 0 0 1-.146-10.82c2.742-6.74 8.014-9.11 14.182-11.85m434.301-13.09c23.03-.69 30.91 23.91 9.76 32.3-3.3.2-6.63.44-9.86-.34a16.46 16.46 0 0 1-10.6-8.03c-6.13-11 1.21-19.16 10.7-23.93m-982.983 210.09c3.861 3.71 7.618 10.94 10.161 15.72-13.968 10.62-17.946 14.29-34.238 21.38-5.165-5.41-10.539-9.6-9.364-17.49 3.869-6.98 22.977-13 33.441-19.61m1516.793-13.6c13.4 6.69 21.79 13.04 32.61 23.13q-.63 1.695-1.29 3.39c-1.33 3.41-2.89 8.39-6.02 9.77-12.26-6.15-24.83-14.42-36.22-22.14 3.21-4.97 6.31-10.56 10.92-14.15m-599.5-479.35c6.98 3.93 14.51 6.66 22.05 9.22.67 6.49 2.76 16.86.21 22.24-8.46-1.16-16.88-2.62-25.24-4.36 1.57-9.1 1.22-18.35 2.98-27.1m-5.01 42.31c8.6.8 26.88-1.3 31.66 5.07 1.11 3.92.54 5.12-.25 9.29-6.51.76-28.08 2.47-33.18-.44-.34-4 1.02-9.8 1.77-13.92m-328.482-.98c.813.14 2.067.63 2.899.91 1.768 4.66 5.377 13.69 3.676 18.42l-3.464 1.2c-1.764-.27-4.88-.34-5.924-1.52-5.66-6.36-2.109-14.46 2.813-19.01m421.112-.05c4.53 1.85 19.37 8.61 20.95 12.88-5.06.71-11.67 2.44-15.97.42-2.24-2.14-2.51-2.25-3.2-5.3z"/></svg>