<svg xmlns="http://www.w3.org/2000/svg" preserveAspectRatio="none" style="display:block" viewBox="0 0 2048 2048"><path fill="#FEFEFE" d="M0 0h2048v2048H0z"/><path d="M955.694 50.421a207 207 0 0 1 34.27.342c100.506 10.246 174.776 118.875 116.696 210.643-8.06 12.729-17.96 21.167-29.57 30.503 8.92 12.781 16.61 21.927 21.76 36.652 10.41 2.117 27.87 3.835 39.1 5.578 25.18 3.912 50.21 8.773 75.02 14.571 152.68 36.36 281.35 109.422 397.35 213.716 161.18 146.602 258.28 350.682 270.35 568.224 9.79 215.27-66.1 425.66-211.05 585.12a859.26 859.26 0 0 1-459.84 265.93c-43.95 9.46-81 15.38-126.02 17.59-39.33 3.5-75.13 2.26-114.356.19-172.62-9.08-357.207-73.52-491.12-184.94-177.451-147.41-288.459-359.75-308.219-589.59-19.327-212.81 53.542-442.809 191.747-605.538 108.731-128.025 257.603-218.502 419.37-262.96 20.873-5.736 59.59-16.46 79.647-18.241 4.111-10.435 8.301-18.684 13.315-28.692-34.222-30.831-56.549-57.087-60.709-104.685-7.361-84.217 63.574-147.422 142.259-154.413"/><path fill="#FEFEFE" d="M341.077 1048.02c38.559-201.238 188.734-395.905 367.422-494.232a696.5 696.5 0 0 1 465.651-74.372c186.58 36.338 363.47 147.546 470.08 305.898 108.2 160.696 143.98 334.936 106.57 525.166-5.66 28.76-14.66 56.54-24.59 84.09-51.69 143.37-150.36 274.64-277.23 359.89-161.77 110.6-361.14 151.71-553.465 114.15-181.51-35.56-341.315-142.1-443.939-295.98-90.03-134.11-129.555-307.23-116.79-467.55 27.045 57.68 83.846 113.17 121.053 166.64 42.711 61.39 83.982 140.87 165.91 150.61-2.878 7.78-6.526 15.56-9.108 23.08-7.889 22.97-4.789 46.41 1.417 69.43-12.043 1.5-67.536 14.7-75.702 21.72l-.688 1.6c1 1.21 1.888 2.48 3.889 2.09 18.471-3.64 59.048-11.85 74.929-17.61 3.264 11.8 7.336 27.77 13.478 38.98 44.11 80.49 124.021 179.48 227.957 154.9 37.2-8.8 68.171-46.02 91.422-74.98-4.536 10.11-13.734 33.62-14.144 44.37 1.275 2.25 1.273 2.05 3.655 3.17 2.985-.81 2.826-.61 4.862-3.75 2.805-4.33 11.452-38.45 10.842-41.28l-4.5-4.17c9.631-17.25 22.382-37.85 29.665-55.87 24.777-61.27 44.467-129.49 59.257-193.98 18.97 52.13 155.44 425.04 173.68 439.61 3.58-.28 2.13.4 4.65-1.75 1.85-7.1-8.26-90.91-9.99-104.69-6.46-51.59-8.96-104.83-15.33-156.19l-19.38-146.88c-3.08-22.77-8-52.57-9.81-74.72 24.78 27.83 43.98 56.72 72.82 81.49 14.73 12.65 28.42 30.25 44.17 42.49 19.51 18.5 44.61 34.09 63.72 51.4-2.59.61-2.02.43-4.78.33-.81 4.45 15.39 25.57 22.32 19.51-.21-2.52-.03-2.74-1.15-4.95-5.27-4.15-11.18-9.82-16.23-14.43 6.79 3.32 14.4 5.94 17.22 12.83l1.76-1.83c12.01 4.87 20.33 10.59 34.97 15.87 38.03 13.73 76.47 10.42 113.5-3.31 32.81-12.17 63.3-52.28 75.15-83.66 16.02-42.46 18.45-102.92 14.97-148.22-2.19-28.44-.84-41.08-12.15-68.59-10.59-25.78-38.31-45.64-62.56-58.09 56.97-40.11 71.21-72.61 84.36-140.69 9.22-47.799 8.13-95.083 12.83-142.603 6.04-61.081 11.03-102.842-27.46-156.559a82.3 82.3 0 0 0-53.89-33.679c-64.82-9.991-135 27.379-184.69 65.456-82.78 63.439-165.27 131.027-224.6 217.934-17.63 25.851-32.73 58.471-48.09 86.211a3794 3794 0 0 0-46.22-142.26 10419 10419 0 0 0-99.848-281.977c-11.111-30.188-20.013-61.765-31.69-91.856-4.71-12.138-11.671-46.54-24.146-50.996-3.56 1.772-3.397 6.473-2.746 10.086 2.427 13.465 4.879 26.797 6.893 40.34l15.069 102.767c6.89 44.543 10.699 89.985 18.398 134.439 9.641 55.662 16.289 111.722 24.997 167.528 7.473 47.899 10.105 99.479 20.145 146.609-113.377-90.69-270.294-117.603-411.581-124.38-62.89-3.016-157.157-18.285-201.606 37.59a102.3 102.3 0 0 0-11.578 17.81"/><path d="M1074.1 1746.77c4.77-21.22 12.53-114.5 19.06-123.84l2.16-.94c5.24 2.07 6.52 6.7 5.66 11.92-5.82 35.17-11.42 69.97-15.7 105.38l-8.59 8.55c-.77 2.77-3.15 10.42-3.14 12.81 1.51 1.26 2.96 2.4 3.93 4.16 2.62 4.71-6.91 68.65-9.25 76.97-.99 3.52-2.03 4.1-5.05 5.79l-1.63-.66c-3.3-6.46 7.45-74.73 10.18-85.07.2-5.44 1.27-9.78 2.37-15.07m101.82-1111.322c3.03 1.165 8.05 3.012 7.01 7.414-1.53 5.018-4.84 15.426-7.26 19.827-9.15 16.599-32.68 92.711-42.48 102.61-3.45-1.308-3.43-1.146-6.24-3.844-.6-2.181-1.15-3.025-.14-5.303 11.89-26.756 21.85-54.33 32.71-81.481 5.34-13.358 11.49-25.7 16.4-39.223M605.169 892.887q4.503.922 8.983 1.95c3.242.761 15.647 4.002 17.844 4.979 12.34 5.485 85.081 22.007 90.718 31.181-.283 3.666.268 1.86-2.799 5.201-13.376-.335-64.714-19.095-80.825-22.909-6.564-1.554-33.748-9.038-36.662-14.43.296-3.739.14-2.516 2.741-5.972m156.857-308.634c10.244 3.405 49.408 62.691 59.447 73.341 2.866 3.041 17.338 22.695 19.384 26.702-.445 3.448-.499 2.493-3.708 5.573l-3.346-.238c-17.064-14.525-44.047-61.917-61.894-79.714-6.967-6.948-15.211-16.415-9.883-25.664M935.261 1707.72c1.498 1.65 2.829 3.16 2.368 5.67-3.879 21.08-25.087 114.07-37.198 125.74-1.529-2.11-3.948-4.49-3.23-7.28 10.154-39.46 21.39-78.69 32.611-117.85.746-2.6 3.408-4.74 5.449-6.28m87.509-1081.309 4.68 2.742c4.04 6.728-7.12 61.317-7.24 73.332-.06 6.152-2.16 14.388-7.39 18.346-2.1-1.024-4.12-2.101-5.58-4.011-3.27-4.285 5.81-53.664 7.2-63.436 1.2-8.39 1.16-21.595 8.33-26.973M488.597 857.274c3.473.69 18.516 5.04 21.822 6.4 11.489 4.725 68.003 17.657 73.386 24.615-.602 3.748-1.032 3.113-4.115 6.511-20.531-4.345-73.067-21.545-94.847-28.99-.93-.318-.847-2.03-1.039-3.374 1.601-3.31 1.399-3.282 4.793-5.162m806.373-116.532 1.61.414c2.98 3.057 2.74 1.927 3.47 5.518-3.55 7.087-57.55 58.647-67.38 69.515-1.23-.877-7.97-5.39-6.29-7.231 18.76-20.567 46.36-52.424 68.59-68.216m-260.44-218.997c4.78.955 5.81.77 8.32 5.068.08 4.376-2.24 23.985-3.31 28.054-3.02 11.503-4.37 49.8-8.86 57.982-3.12-.356-5.03-.243-7.55-2.079-2.49-8.431 7.28-79.174 11.4-89.025M1210.78 1598.8c.55.02 4.59.03 5.15.54 22.82 20.78 43.98 49.82 63.32 74.13 1.89 2.38.73 5.09.34 6.36-2.3.1-2.87-.07-5.17-.45-5.01-3.49-18.69-19.3-22.12-24.85-6.47-10.48-43.09-47.81-41.52-55.73M742.555 802.717c7.553 5.497 56.981 48.049 59.958 52.6-.472 3.142-2.424 4.543-4.69 6.918-1.63-.512-5.209-1.946-6.313-3.068-9.595-9.749-50.083-42.056-54.774-50.782.825-2.628 3.431-3.935 5.819-5.668m-85.298-68.9c.917-.004 1.837-.021 2.753.039 7.74.507 54.591 44.113 61.519 52.056.925 3.92.39 3.188-1.182 7.722-7.285-1.063-55.823-45.298-63.45-53.943-1.44-1.632-.167-4.169.36-5.874M1210.35 550.25c2.01.408 8.13 3.053 7.2 5.19-6.09 13.963-17.79 55.658-25.83 66.74-3.3-.801-5.43-.954-7.92-3.239-1.28-6.169 22.41-60.425 26.55-68.691m211.63 1057.52c22.47 13.07 41.02 33.22 58.31 52.19 3.83 4.2 6.78 5.79 7.28 11.68-3.44.87-4.53 1.5-8.01-.65-11.25-6.95-55.11-52.57-57.58-63.22m-113.95 106.67c2.32.33 5.27.71 6.9 2.51 8.31 9.14 36.1 37.95 37 49.2-1.71.08-3.67.02-5.4.01-2.97-1.48-8.45-6.73-10.26-9.41-7.12-10.53-29.16-29.58-28.24-42.31m90.54-1074.786c1.67.204 2.55.504 4.18.93.92 1.322 1.84 2.022 1.59 3.409-1.55 8.863-31.67 36.075-38.1 41.489-3.13-1.137-4.33-3.044-6.01-5.59-.02-.822-.05-1.644-.07-2.467 10.37-11.462 27.66-25.522 37.46-36.674zm-547.637 61.33c1.165.218 4.773.857 5.536 1.572 6.793 6.366 25.718 29.731 27.443 37.472-.833 4.134.055 2.261-3.309 5.519-1.462-.409-4.64-1.227-5.566-2.319-7.692-9.075-21.406-25.094-27.293-34.6-.148-3.147 1.461-4.89 3.189-7.644m492.987-8.391c.67.097 2.92.834 3.66 1.059 2.38 2.858 1.83 1.251 1.65 4.997-4.64 8.381-26.62 28.931-34.52 35.017-4.29-.718-4.7-1.106-5.31-5.031 2.47-7.272 27.52-30.027 34.52-36.042m-736.962-2.254c10.747.663 31.352 21.649 39.052 30.041 1.718 1.872.748 5.307.214 7.526-9.697-.842-30.816-21.895-37.972-29.604-2.081-2.241-1.631-5.149-1.294-7.963M1610.68 1254.29c12.3-1.04 45.22 7.77 46.9 21.95-13.41-.43-32.37-8.83-44.39-15.7-2.69-1.54-2.37-3.81-2.51-6.25m-902.816 441.4c2.366.45 1.786.35 4.017 1.41 2.699 7.98-19.7 33.57-26.341 38.34-3.37-.28-1.921.27-4.592-1.5l-.441-2.79c2.787-8.7 20.401-29 27.357-35.46m944.486-702.967c4.54.318 8.28.777 9.2 5.675-2.19 4.672-17.26 12.102-23.69 16.762l-1.13.48c-3.72-.1-5.46-.58-6.36-4.09 2.61-6.76 15.63-14.672 21.98-18.827m-277.67 565.537c12.31 1.79 29.55 19.09 33.83 29.84-2.29.58-6.41 1.19-8.39 0-9.28-5.58-21.55-20.35-25.44-29.84m-91.91 124.86c10.18 3.01 20.13 16.46 23.83 26.31-9.38-4.45-22.24-15.74-23.83-26.31m307.7-206.66c7.3 1.65 19.14 14.95 18.34 23.21-7.67-1.27-18.84-15.76-18.34-23.21"/><path fill="#FEFEFE" d="M1036.03 425.147c10.88-.943 20.41-5.588 30.6-1.412q-4.53 1.144-9.03 2.401c8.96.375 24.88-1.653 32.14-.762 30.36 3.724 64.95-3.403 94.31 1.762 5.76-.977 17.52-.412 23.35.754 61.93 6.516 125.61 24.162 183.15 47.763 4.11 1.686 16.6 5.393 18.41 8.683-3.64.876-29.22-7.235-34.19-5.867 5.81 4.511 46.08 14.096 57.96 19.005 5.59-2.04 5.57-.151 11.77 2.229 20.92 8.032 131.85 71.122 139.07 84.429-4.52 1.286-17.11-7.003-23.88-9.334 25.52 18.07 52.69 30.067 77.18 51.044 11.08 9.49 5.47 6.792 13.79 16.778 2.95 3.544 11.18 2.887 15.22 7.302 21.34 23.299 38.25 47.431 55.49 73.552 59.55 90.179 104.61 191.979 123.95 298.646 4.88 26.88 9.08 59.65 11.18 87.02 2.11 27.58 2.26 63.08 1.73 91.26-2.95 156.48-60.19 306.87-150.68 433.46-126.26 175.46-324.98 298.49-538.11 334.16a891.6 891.6 0 0 1-196.81 9.09c-15.493-.85-35.364-1.59-50.587-4.82-15.087-3.21-32.398-13.62-47.47-19.26-32.521-12.17-67.029-26.21-97.869-42.25-16.971-8.82-31.851-18.35-49.235-26.27-26.096-15.03-51.946-31.57-77.134-48.02-35.457-24.59-69.925-53.44-102.165-82.15-10.764-9.58-22.203-23.32-32.855-33.69-7.06-6.87-16.621-14.61-22.747-21.54 3.032-5.7-12.519-17.28-14.371-26.63l1.738-.5c.353-.12.706-.23 1.059-.34-2.573-4.62-3.097-1.43-5.865-7.94 1.748-5.43-4.56-11.95-7.632-16.49l-.624.36c.803 3.33 1.317 4.53.892 7.97l-.767-2.34-1.791-1.63c-1.806 1.7-.878 1.03-2.71 2.1-8.171-9.33-11.921-19.84-18.499-25.99-3.963-4.31-13.656-20.02-16.016-25.44-5.284-4.47-5.36-3.79-2.959-9.6-1.834-3.4-.693-2.73-3.364-4.34l-.766 3.92-1.095.63c-7.355-7-1.123-4.64-5.516-11.66-5.664-9.06-11.032-18.31-16.385-27.56l.036-1.37c-1.451-2.45-.765-1.63-3.13-3.31-3.032-3.05-5.119-7.39-7.272-11.21-7.366-9.82-17.869-29.34-22.474-41.13-9.034-23.11-18.298-46.17-28.453-68.92-6.929-15.53-10.493-34.77-15.203-51.13-.93-3.23 3.913-1.84 5.453-5.98-1.053-4.03-.446-4.52-2.984-6.8-2.126 1.18-2.386 1.34-4.692 2.07-2.55-2.28-3.224-7.3-2.769-10.53l1.369-.34 5.425 4.09c.578-2.68-.792-6.93-2.953-8.71-1.674.5-3.11.87-4.811 1.29l1.022.43-1.132-.57.009-2.29 3.902-2.38c.928-3.73-1.797-12.22-2.215-16.23-.354-3.4-3.825-4.6-7.282-6.83l-.19-2.26c-1.811-23.18-8.32-46.7-10.229-70.24-1.368-16.86.359-29.14.785-45.48.912-35.08.457-78.84 9.547-112.72-.092 11.19 1.816 20.6 1.975 31.49.182 12.41-1.743 25.88-.671 38.28.758 8.76-6.119 11.23-1.749 18.24.493.87 1.666 2.87 1.696 3.98 3.256 123.13 34.247 253.19 96.584 360.05 94.614 164.1 250.184 284.21 432.882 334.21 340.847 89.68 697.027-66.06 862.267-376.1 23.38-43.86 48.19-101.37 60.69-149.14 49.19-180.96 23.25-374.115-71.93-535.693a755.3 755.3 0 0 0-338.33-303.236c-15.85-7.234-31.84-12.753-47.87-19.349-68.23-28.065-142.05-44.206-215.74-47.137-10.22-.407-30.01-.891-39.66-3.42l-.03-4.246-1.3-1.056-2.04.554a43 43 0 0 0 1.75 3.462l.72 1.281c-3.27 3.213-23.11 1.576-29.05 1.795-35.681 1.318-69.053 6.449-104.175 12.029-104.214 16.557-213.34 64.569-298.677 126.527-47.963 34.824-100.402 90.442-139.434 135.172-9.603 10.339-17.139 25.263-26.197 35.52-17.632 19.969-30.202 44.207-45.38 65.051l-.716.966c4.347-23.218 12.129-34.585 24.142-53.825 9.761-15.633 15.658-28.172 30.427-40.029 2.435-1.955 8.31-11.255 11.217-14.293 4.898-5.121 9.81-10.982 14.758-16.127 16.818-19.624 37.531-44.728 56.811-62.124 18.09-16.321 48.537-36.255 69.438-51.37 40.867-29.552 87.477-61.96 132.506-84.581 21.995-11.049 55.422-22.392 78.912-30.405 21.86-7.458 45.312-14.218 67.934-18.829 7.686-1.567 19.595-2.504 28.206-3.839-4.259.338-8.53.519-12.802.541l-.41-.771c2.023-1.154 15.268-3.599 16.947-3.362-1.052 1.944-1.221 1.322-.913 2.799l1.452-.381c3.184-3.538 4.522-5.696 9.64-5.4-2.865 2.474-4.044 2.631-5.065 5.685l1.72 1.138c6.779-6.361 38.205-1.929 49.78-7.149-1.439-8.788-12.488-3.072-17.883-3.312-5.28-.235-11.77 1.742-16.96 2.959l.086-.645c12.99-7.643 39.698-9.665 55.426-12.335 3.06-.468 5.81-.573 8.88-.748 8.74-1.266 17.67-.866 26.51-.76"/><path d="M1261.05 465.289c7.18-1.497 29.89 4.946 34.48 10.686-10.91-3.444-23.96-6.382-34.48-10.686m73.27-2.413c7.09.344 30.75 10.906 37.58 15.172-5.59-.725-33.63-11.228-37.58-15.172M428.754 1600.63l.033-2.07c5.844 1.2 15.575 17.29 17.754 22.79-7.6-4.73-11.59-15.06-17.787-20.72M1208.21 433.661c.37.163.73.327 1.1.491l1.78.747c8.58 3.698 14.93 3.322 22.96 6.137l.4 1.848c-6.41-2.111-21.7-2.216-26.96-6.471zm-23.34-4.771c3.71.198 7.23.374 10.93.748 3.33.764 7.24 1.025 8.87 3.78-6.88.058-12.34-1.358-19.23-2.254z"/><path fill="#FEFEFE" d="M1025.24 1103.04c10.09-.54 14.43 1.9 22.67 2.37 21.86 1.22 37.35 5.75 50.55 24.9 5.45 7.92 9.74 17.39 16.23 24.29 4.12-.39 8.75.44 13.12.21 17.87-.92 37.69.03 55.05-4.5 27.48-7.16 51.72-22.57 80.42-26.66 10.21-1.45 20.44-.68 30.57-.27 43.67 1.8 90.44 18.87 130.6 35.24 11.6 4.73 38.06 15.67 47.35 22.57-50.83 9.96-108.86 14.67-158.13-3.05-8.03 1.76-16.85 2.62-25.05 1.72-6.55-.72-15.31-3.83-21.69-2.4-6.8 1.54-14.65.24-21.67.23-18.19-.02-107.46-5.24-118.13-1.33-21.26 7.8-18.52 41.13-57.2 55.96-19.79 7.6-39.12 5.72-56.7-6.05-4.63-3.1-10.21-8.18-15.393-10.02-4.494-1.59-7.235-.26-11.401 1.41-14.373 8.76-26.978 16.18-40.778 26.05-11.925 8.52-20.802 18.16-31.701 26.67-32.244 25.15-60.456 48.35-96.773 68.19-5.563 1.48-35.297 18.96-38.966 19.06-21.986.6-26.301 12.24-40.371 18.21-26.409 11.2-60.22 25.01-88.25 29.83 7.506-19.54 22.634-32.58 36.575-47.58 53.242-57.27 121.987-115.83 201.408-128.89 32.574-5.36 62.617-12.85 90.969-30.29 8.715-5.36 4.87-19.41 4.653-28.25-.12-5.65.5-11.3 1.846-16.79 6.241-25.84 18.712-37.57 40.192-50.83"/><path d="M1046.15 1119.56c8.2.59 15.79 2.14 24.12 2.3 33.28 23.4 36.27 49.01 17.42 83.65-11.64 6.81-24.95 12.14-37.78 16.2-15.75-1.67-18.43 1.76-32.77-10.17-21.509-17.57-27.117-55.63-7.06-76.49 11.88-12.36 19.81-14.6 36.07-15.49"/><path fill="#FEFEFE" d="M1045.16 1137.87c18.44-1.35 34.5 12.44 35.95 30.87 1.44 18.42-12.26 34.56-30.68 36.11-18.56 1.56-34.85-12.27-36.31-30.84s12.46-34.78 31.04-36.14M961.285 96.382c74.095-7.056 144.695 65.351 106.905 138.935-5.52 10.736-19 22.169-27.94 30.577-19.45-6.017-51.596-15.146-72.006-11.291-28.463 3.309-40.095 7.964-63.842 22.158-18.205-16.154-31.71-28.601-39.11-52.633-20.931-67.971 31.095-120.417 95.993-127.746"/><path fill="#FEFEFE" d="M964.625 63.42c46.775-4.18 100.655 24.245 127.005 63.441 33.9 50.431 27.63 119.514-25.38 155.244-3.95-3.56-9.67-6.95-14.22-9.901 6.04-4.617 11.48-8.846 16.66-14.465a92.63 92.63 0 0 0 24.27-67.04 108.67 108.67 0 0 0-35.42-75.076c-30.04-27.204-62.717-34.53-101.789-32.526-88.994 11.028-141.243 100.466-86.545 177.929 6.493 9.195 15.367 16.129 23.946 23.296-4.554 4.632-6.704 6.504-9.978 12.281a111 111 0 0 1-11.364-8.253c-8.129-6.764-14.151-13.54-20.444-21.999-55.535-74.655-12.496-168.79 71.647-195.659 15.113-4.825 26.011-5.909 41.612-7.272"/><path fill="#FEFEFE" d="M968.091 269.362c31.785-3.89 67.509 6.76 92.119 27.08 5.77 4.762 19.64 21.683 20.08 28.895-3.18 2.113-35.57-.463-41.69-.711a715 715 0 0 0-51.849-.126 936 936 0 0 0-109.482 10.397c17.407-39.264 48.623-60.026 90.822-65.535M789.592 1208.34c4.949-.4 12.207-1.86 15.69 1.56l-.679 1.9c-8.19 5.44-26.665 7.88-36.359 8.73-6.434.63-10.752 2.98-14.04-2.94l.796-1.56c11.608-4.99 22.177-5.89 34.592-7.69m211.188-260.999c3.02 1.32 3.92 2.458 4.09 5.755.67 13.114 16.71 56.624 11.94 66.454-2.08-3.31-8.03-22.208-8.71-26.072-1.72-9.734-11.711-38.158-7.32-46.137M479.464 1256.67c8.393.46 30.713 30.47 29.762 38.75-11.332-2.29-30.116-27.13-29.762-38.75m-78.029-170.83c1.948.3 3.528.14 4.591 1.33 7.754 8.71 21.098 35.15 21.821 45.49-11.327-2.68-24.859-36.2-26.412-46.82m535.613-333.429c1.579.981 2.82 1.797 3.69 3.551 3.527 7.106 11.968 41.168 10.292 47.333l-2.13 1.228-1.884-.613c-7.18-9.543-10.388-38.85-9.968-51.499m-135.95 395.749c7.797-1.57 30.32 1.72 38.295 3.07 3.145 2.47 5.166 4.28 8.059 7.05-10.05.47-44.008 2.74-46.354-10.12m-306.766 47.17c10.436 2.19 27.207 25.52 27.578 35.21-11.24-1.91-28.478-24.8-27.578-35.21m757.748-186.7 1.41.3c2.2 2.14 1.61.87 1.83 3.91-2.86 7.46-21.11 23.63-27.67 29.76l-2.37-.72c-4.84-7.3 20.8-28.59 26.8-33.25m-20.68 321.98c11.45-.19 24.29 26.61 26.53 36.68-3.1-.24-4.44.3-6.31-2.01-5.85-7.24-20.07-25.54-20.22-34.67m-673.011-29.23c9.437 1.56 30.042 26.76 32.271 34.82-12.882-2.42-30.597-22.02-32.271-34.82m947.181-228.84 2.1.48.71 1.46c-1.23 6.22-15.19 36.48-18.92 39.93-3.59-1.04-2.45.05-4.13-2.59 1.21-11.52 12.51-31.39 20.24-39.28m-2.56 255.52c1.45.36 2.28.78 3.67 1.34 8.71 11.15 2.82 27.15-2.68 38.61l-.95.46c-3-.3-1.72.29-3.89-1.97-.54-2.96 3.66-29.49 3.85-38.44M1291 920.12l.54.633c-.02 6.203-25.32 32.086-31.3 35.506-1.97-3.381-1.64-1.671-1.6-5.158 7.23-13.611 19.24-23.423 32.36-30.981m96.86-50.107c.71.684.25.153.8 1.941-3.11 9.308-28.48 31-37.11 37.302-1.11-.919-.55-.276-1.3-2.207 4.69-10.682 27.55-30.359 37.61-37.036M853.882 1109.8c11.198-.41 29.057 16.34 34.973 25.13-16.802 1.46-27.013-12.25-34.973-25.13m108.684-231.375c1.78.716 3.44 1.127 4.205 3.166 2.814 7.508 11.582 32.454 9.61 39.299l-4.407-.938c-.951-.815-2.08-1.945-2.519-3.127-3.335-8.977-9.678-30.016-6.889-38.4M643.533 1506.26c2.152.35 2.118.43 4.194 1.16 6.998 9.07 11.725 27.15 11.467 38.42-1.477-.38-4.024-1-5.099-2.04-6.495-6.26-9.904-29.26-10.562-37.54m282.901-6.66 1.12 1.01c1.214 6.35-8.94 37.95-16.14 41.15-1.391-1.43-.974-.97-1.888-2.82 2.7-13.03 6.897-30.17 16.908-39.34m165.956-226.43c12.62 4.07 16.41 22.25 16.36 33.96-12.89-1.55-15.48-23.33-16.36-33.96m251.03-436.547 1.38.94.36 1.891c-3.57 8.486-22.02 27.04-29.52 33.075-.95.101-.3.096-1.89-.45 2.77-15.285 18.13-25.967 29.67-35.456m200.68 262.827c1.45.52 1.56.93 2.84 2.06 2.83 8.49-14.29 29.79-21.08 33.62-3.39-1.73-2.53-.47-3.81-3.19 6.3-6.76 14.01-22.9 22.05-32.49m-692.721 472.84 1.907.92c2.822 6.36-4.274 37.78-10.513 43.3-6.415-5.77 4.453-37.28 8.606-44.22m689.951-780.085c11.84 2.974 15.27 29.462 12.05 39.633-2.81-.214-2.72-.045-5.08-1.518-.91-8.75-8.02-34.091-6.97-38.115m-205.42 637.315c9.54 1.26 27.98 23.41 24.53 31.33-.36-.03-3.6-.33-3.89-.54-4.94-3.73-18.68-23.25-21.78-28.07zm-627.774-286.96c5.962-.66 17.75-1.4 21.437 4.64l-.83 2.03c-3.85 2.61-8.636 2.29-13.503 2.6-5.786 1.12-15.163-.53-18.786-5.53l1.144-1.85c3.715-1.95 6.212-1.66 10.538-1.89m462.084 114.15c8.44 1.24 25.97 18.28 24.78 27.77l-3.48.44c-6.63-2.62-21.92-19.84-21.3-28.21m-237.109 149.66c2.365.49 1.216.05 3.414 1.41.919 7.83-8.724 30.46-14.098 37.68-8.025-7.37 6.407-30.69 10.684-39.09m41.075-442.897c1.336.262 2.785.661 4.119.994 5.006 6.181 12.326 35.933 9.475 42.573-5.184-1.98-13.876-37.468-13.594-43.567m19.218 383.247c9.086 6.47.078 26.19-5.383 32.83-2.457.17-1.25.37-3.608-.68-3.095-8.7 4.348-24.45 8.991-32.15m-18.601 76.48 2.565 1c5.621 7.62-1.657 27.72-7.87 34.23l-1.951-1.14c-3.832-10.26 3.978-22.47 7.256-34.09M334.07 975.79l1.157.658c-2.593 9.808-5.149 19.568-7.476 29.442-1.732 7.36-2.63 15.91-5.223 22.86-.39 4.06-.362 7.95-3.178 10.8l-.88-2.04c.331-4.78-.084-6.58 2.852-9.98l-1.028-1.76c-.838-17.39 6.335-34.875 13.776-49.98m1216.99 263.72c11.02 4.25 17.48 21.23 12.54 31.07-7.25-5.61-7.74-15.86-13.63-22.9-3.09-3.7-1.14-4.65 1.09-8.17m-473.85 102.86c7.82 2.8 9.82 10.72 11.4 18.33l.36 1.86c1.16 5.77 1.34 6.44-.14 12.27-10.14-2.79-12.17-23.71-11.62-32.46m415.7-131.88c10.98 4.55 21.39 20.46 17.74 32.08-3.03.69-1.59.78-4.48-.24-2.43-3.68-2.97-10.45-3.95-15.25-6.52-4.84-9.38-8.32-9.31-16.59m-831.791-9.22c5.39-.22 10.113.14 14.921 2.76l.016 1.16c-6.198 4.46-10.046 3.43-16.266 4.85-5.155 1.23-10.813 3.14-15.015-.56l.475-2.26c4.833-4.78 9.136-4.72 15.869-5.95m894.921-280.547c7.54 6.815-1.87 34.53-4.51 43.96l-2.79-2.805c-1.42-6.896 4.43-33.898 7.3-41.155m-2.72 452.637c14.36 4.68 9.17 17.3 5.1 27.26-1.86 1.53-.86.88-3.66 1.28l-1.58-1.53c-.92-4.77-.16-21.96.14-27.01m35.94-423.736c7.34 5.596 7.67 32.757 3.41 39.126-6.64-6.904-3.75-25.728-5.2-35.146-.1-.648 1.5-3.465 1.79-3.98m-153.51 517.646c5.18.91 19.05 9.52 22.33 14.18 1.65 2.34.7 3.52 0 6.14-4.69-.47-5.54-1.17-9.66-3.7l-1.72-1.06c-6.96-4.27-13.38-7.25-10.95-15.56m25.26-67.38 3.99.42c3.34 2.31 2.1.84 3.75 4.64-.36 6.9-3.62 9.52-10.03 10.24-4.9-.42-6.87.26-8.58-4.55 1.68-5.29 6.3-7.72 10.87-10.75m-418.65-121.71c2.59.81 2.4.97 4.13 3.15 1.49 7.39 4.17 19.29 2.16 26.23-11.44-1.47-9.72-22.24-6.29-29.38m551.05-413.655c2.44 1.08 1.61.64 3.64 2.553 3.22 8.272 3.27 20.83-.04 28.921-.92-.615-3.5-2.299-3.85-3.224-2.85-7.481-2.5-21.493.25-28.25m-73.15 580.425 4.21 1.18c3.99 3.83 2.39 9.84-1.46 13.16-2.83 2.44-4.71 1.37-8.08.89-2.84 1.21-3.36.1-5.61-1.39-1.26-6.34 8.01-6.44 10.94-13.84M385.63 847.892c-.074 2.138-.97 4.996-2.097 6.773-11.79 18.583-18.915 40.583-29.13 59.526-.574-10.526 22.999-55.947 31.227-66.299m1200.93-45.357c2.64.099 2.52.102 4.99 1.052 5.94 6.801 5.99 15.81 6.62 24.701-2.71-.616-2.82-.445-5.04-2.032-3.66-7.337-7.09-15.431-6.57-23.721M689.621 1234.26c3.842-.37 7.941-1.14 11.15 1.03l-.436 1.81c-3.507 3.41-7.255 4.16-11.957 5.78-3.945.42-9.602.87-11.178-3.23 2.851-4.97 7.163-4.74 12.421-5.39m278.54-418.566c4.621 5.127 10.488 28.859 8.779 35.672-5.2-6.208-12.099-27.694-8.779-35.672"/><path fill="#FEFEFE" d="M388.586 849.959c-.421 9.757-15.086 33.327-20.673 43.312-1.489-5.426 16.397-37.914 20.673-43.312m15.808-39.246 1.121 1.134c1.183 8.795-1.82 12.372-5.821 20.602-.894-.777-1.119-1.393-1.786-2.45 1.42-7.74 3.995-12.037 6.486-19.286"/><path fill="#3D3B3B" d="M334.07 975.79c2.203-8.319 3.806-14.086 6.821-22.093.535 3.992-3.924 18.795-5.664 22.751z"/></svg>