<svg xmlns="http://www.w3.org/2000/svg" preserveAspectRatio="none" style="display:block" viewBox="0 0 2048 2048"><path fill="#FEFEFE" d="M0 0h2048v2048H0z"/><path d="M1011.65 87.424c5.53-.28 11.05-.459 16.58-.535 46.86-.474 97.2 10.515 144.01 15.284 39.04 3.978 78.61 6.872 115.79 19.982 12.01 4.238 24.77 7.954 36.95 12.042a934 934 0 0 1 358.67 215.174c14.39 14.119 27.33 29.452 40.57 44.623 12.11 13.865 28.45 28.859 39.31 43.241 19.42 25.703 39.07 53.907 56.24 81.047a937.4 937.4 0 0 1 142.25 389.593c4.24 31.03 10.28 68.395 10.04 99.325-.84 105.03-25 210.09-56.95 309.73-6.55 20.44-12.95 41.3-21.22 61.08-35.81 70.17-73.51 140.15-119.76 204.09-8.36 10.29-18.31 19.37-27.03 29.33-73.47 84.45-157.35 156.85-253.62 213.94-49.13 29.13-87.93 51.01-143.24 66.87-29.71 8.51-59.85 21.56-90.34 28.72-19.36 4.56-38.35 7.55-57.9 10.94-56.91 12.94-106.78 16.19-164.81 16.38-10.16-.07-20.42-.09-30.58-.31-18.08-.37-36.335.8-54.353-.48-31.741-2.25-63.411-9.11-94.7-14.32-123.382-20.55-239.96-64.35-344.337-133.41-160.814-106.86-294.985-257.9-364.238-439.72-12.221-32.09-21.625-63.68-31.048-96.69a1209 1209 0 0 1-41.75-231.06c-2.505-34.794 6.224-98.616 12.417-133.829 15.585-83.926 31.453-173.218 67.877-251.014 29.42-62.837 63.945-124.668 104.463-181.035 13.841-19.256 29.386-36.481 44.936-54.314a916.7 916.7 0 0 1 186.818-166.096c40.664-26.678 90.867-54.256 134.53-76.594 23.174-11.855 54.511-19.369 79.416-29.037 23.343-9.061 49.479-16.983 73.566-24.084 35.635-7.879 78.078-10.988 114.566-15.856 39.626-5.288 76.902-10.28 116.877-13.007"/><path fill="#FEFEFE" d="M989.211 132.376c10.038-1.491 33.009.031 43.729.38l70.42 2.303c22.81.968 45.08 4.581 67.54 8.499 25.69 4.483 51.75 9.252 77.04 15.696 22.48 5.729 44.7 12.928 66.89 19.684 22.72 6.916 46.01 13.348 67.8 22.905 24.17 10.6 46.88 25.837 69.75 38.976 15.38 8.841 31.53 16.304 46.73 25.469 12.5 7.537 24.33 16.304 36.41 24.497 49.41 33.523 86.13 62.698 126.73 106.978 36.96 40.311 80.16 94.737 108.46 141.399 13.89 22.893 25.54 46.567 37.7 70.364 10.29 20.151 21.57 40.017 30.54 60.798 6.69 15.493 11.52 31.876 16.78 47.903 8.79 26.806 17.62 53.79 23.91 81.326 4.94 21.586 6.98 44.103 10.58 65.982 3.19 19.451 9.33 38.73 11.96 58.106 3.15 23.27 1.7 58.355.65 82.299-.82 18.7-2.38 37.39-3.53 56.08-1.02 16.78-1.5 33.54-3.74 50.22-2.56 19.03-8.84 36.54-12.8 55.17-9.26 43.48-16.5 87.69-31.88 129.62-5.74 15.67-15.93 29.07-23.15 44.02-11.06 22.91-19.98 47-32.49 69.22-7.01 12.46-16.14 24.29-24.2 36.11-12.47 18.28-24.6 36.87-38.03 54.48-19.02 24.95-40.69 48.76-61.73 72.03-11.76 13-23.33 26.82-36.36 38.56-16.75 15.08-41.15 31.13-59.72 45.68-24.94 19.56-47.32 40.94-74.4 57.77-18.19 11.3-37.93 19.26-56.42 29.88-22.53 12.93-43.77 27.61-68.02 37.33-36.64 14.7-74.22 22.7-111.81 33.97-61.6 18.47-143.04 35.61-207.11 32.05-25.33-.49-51.32.36-76.564-.94-19.716-1.02-41.132-5.43-61.041-6.1-20.001-.67-36.023 1.87-56.257-.84-20.026-2.68-28.059-12.5-45.406-17.17-10.73-2.89-25.334-4.23-36.926-7.4-45.801-12.54-91.353-25.91-134.303-46.4-17.672-7.49-33.409-20.55-50.274-29.07-33.374-16.86-66.849-32.98-95.465-57.57-8.959-7.69-17.115-17.77-26.133-25.04-12.056-9.72-27.283-17.13-39.454-26.97-33.322-28.08-63.583-62.28-91.464-95.7a989 989 0 0 0-27.38-31.97c-21.58-23.78-32.105-36.46-47.408-65.63-14.248-27.16-31.812-52.84-44.228-81.39-6.868-15.79-17.944-31.64-24.717-47.7-9.213-23.26-16.774-49.55-24.811-73.36-5.35-15.9-3.746-40.58-8.71-55.77-12.607-38.57-19.696-75.36-21.05-116.09-.422-12.69-3.716-27.36-4.382-40.54-1.26-24.943-.97-50.308-.737-75.302.209-29.902 10.536-59.133 14.936-87.573 9.759-63.084 26.243-124.963 49.783-184.346 5.65-14.251 17.193-30.789 24.048-45.405 20.152-42.967 44.15-87.031 70.623-126.471a321 321 0 0 1 30.868-38.6c3.219-3.458 17.832-18.316 19.803-21.314 7.387-11.24 11.42-19.686 20.005-31.098 14.131-18.786 29.917-26.557 46.415-42.147 15.997-15.115 30.64-31.333 47.815-45.337 22.862-18.64 46.946-33.458 72.108-48.661 9.688-5.854 20.981-15.888 30.521-21.221 14.443-8.075 29.833-16.155 44.493-23.884 22.421-11.822 45.207-24.534 68.858-33.633 28.793-11.077 58.932-18.715 88.313-28.158 21.415-6.883 43.117-12.596 64.958-17.9 13.858-3.365 28.186-7.983 42.24-10.54 24.639-4.483 50.961-3.644 75.983-4.891 13.079-.652 23.799-1.93 36.711-3.623"/><path d="M1023.1 187.35c19.9-3.261 52.07 5.463 72.82 6.478 54.46 1.758 104.89 13.219 157.27 25.847 46.16 11.126 77.32 20.971 118.51 45.465 21.78 12.948 49.98 22.86 72.62 36.383 36.92 22.056 70.56 47.864 104.24 74.528 10.59 8.278 36.79 28.394 45.17 37.195 16.51 17.34 35.84 41.008 51.22 59.694 11.87 14.417 27.82 32.147 38.76 46.701 12.16 16.181 24.65 37.378 36.39 54.257 4.14 5.962 21.45 31.055 23.66 36.101 7.46 17.026 15.71 38.48 22.91 56.332 7.78 19.257 21.48 43.568 28 61.464 26.53 72.845 43.84 162.836 45.31 240.366 1.26 66.949-7.63 151.159-22.52 216.879-7.99 35.25-24.59 77.44-37.66 111.4-10.67 25.7-21.21 53.33-34.8 77.67-7.07 12.64-17.31 23.26-22.53 38.42-1.27 3.68-16.41 19.04-20.05 23.94-8.83 11.87-18.93 24.14-28.04 35.86-17.44 21.73-36.44 49.62-56.18 69.05-24.24 23.85-52.5 49.02-79.81 69.15-9.24 6.81-24.17 13.44-33.39 20.38-51.32 38.58-105.2 75.12-165.42 98.41-27.01 10.45-57.75 18.89-85.75 27.01-22.03 5.08-45.76 16.73-67.8 20.47-51.48 8.73-110.52 13.35-162.34 14.12a623.6 623.6 0 0 1-93.591-6.39c-18.592-2.74-37.748-6.78-56.449-9.84-19.309-3.16-45.452-4.96-63.685-9.89-18.407-4.97-42.685-14.81-60.931-21.54-46.048-16.98-91.202-33.34-133.92-57.84-28.261-16.2-49.528-33.44-75.337-53.25-11.229-8.62-27.029-16.86-38.657-25.71-57.746-43.94-108.444-105.98-152.522-163.12-11.088-14.38-29.752-35.79-38.012-50.67-19.566-35.26-36.033-74.6-51.243-111.9-7.772-19.06-19.231-41.66-24.658-60.84-5.982-21.14-11.583-48.89-15.138-70.53-19.793-120.46-19.176-238.748 13.658-357.03 4.436-15.977 8.513-37.322 13.861-52.555 8.303-23.651 20.618-49.058 30.72-72.206 7.951-18.222 16.652-37.658 25.303-55.424 7.603-15.526 18.29-29.881 27.078-44.633 21.709-39.012 49.963-70.926 78.051-104.824 27.116-32.724 49.847-55.606 84.404-80.622 22.875-16.56 45.138-39.553 69.226-54.964 47.894-30.641 100.434-55.75 151.347-81.014 20.991-10.344 48.258-16.385 70.216-24.01 25.791-8.956 54.34-7.641 80.78-13.246 16.875-3.461 34.246-11.967 52.498-14.755 24.965-3.813 47.097-2.24 71.976-2.187 9.009.019 25.015-3.01 34.435-4.58"/><path fill="#FEFEFE" d="M974.055 213.428c49.355-1.517 132.995 4.289 182.555 10.938-4.34 12.191-9.54 23.469-13.45 35.898-13.07 41.543-9.51 84.938-9.68 127.761-.07 17.993-1.61 35.873-1.09 53.851.13 4.751.72 10.602 3.15 14.924 9.09 12.93 17.22 1.709 21.1-8.041 12.29-30.892 25.62-63.718 33.73-96.006 9.85-39.259 16.15-79.228 25.85-118.685 52.25 9.496 92.9 28.244 140.94 49.115 30.63 13.31 54.95 25.697 83.2 43.841-13.06 23.368-79.66 145.765-75.71 165.29.65 3.189 3.97 5.908 6.83 7.178 2.6 1.15 5.38 1.169 8.02.132 3.18-1.251 5.57-3.774 7.8-6.279 12.15-13.633 22.6-29.39 33.6-43.973 11.57-15.337 24.66-30.595 34.62-47.011 9.51-15.678 17.02-32.477 24.3-49.27 17.23 8.029 35.8 23.585 50.72 35.71 44.23 35.956 85.94 77.872 118.74 124.744-23.49 18.568-38.3 22.773-64.65 35.032-16.49 7.674-24.78 27.893-34.46 41.921-6.01 8.706-14.34 16.365-22.41 23.159-18.81 17.164-53.24 29.102-62.97 53.761-.55 2.432.02 6.057 1.63 7.938 5.78 6.78 17.94.369 24.56-2.582 6.05-2.699 13.36-6.693 19.07-10.259 24.21-15.104 45.92-34.778 69.23-51.072 31.46-21.988 63.46-43.334 95.14-65.021 33.39 43.411 81.68 134.339 95.17 187.493-30.59 11.743-60.01 27.957-89.95 41.368-11.09 4.966-102.22 42.944-103.95 45.047-1.93 2.348-2.09 6.164-1.06 8.895.86 2.314 2.77 4.448 5.12 5.306 7.48 2.729 26.55-3.74 34.52-5.405 25.02-5.226 50.38-9.228 75.12-15.798 32.98-8.756 64-22.043 94.48-37.189 26.31 87.58 37.8 177.441 29.39 268.871-58.01-15.14-123.61-9.83-183.08-7.19-8.11.36-18.49 1.49-22.18 9.8-.21 5.04 2.45 8.96 7.51 10.09 66.16 14.79 124.17 36.09 192.76 37.85-12.28 96.69-37.36 167.43-79.57 254.1-52.37-32.71-104.31-57.45-164.16-73.48-5.41-1.45-15.3-3.24-18.37 2.93-7.2 14.47 18.29 24.27 26.05 32.68 39.2 33.18 80.97 64.45 126.47 88.58-22.72 30.63-48.82 69.54-74.31 97.54-46.28 50.82-122.93 114.84-181.83 151.46-9.1-17.61-18.16-34.52-29.51-50.9-23.61-34.07-55.02-61.41-76.12-97.39-1.85-3.15-8.52-11.97-11.95-12.23-21-1.59-6.03 28.41-3.37 38.05 17.53 53.05 42.91 104.92 74.61 150.94-27 16.82-54.88 24.66-84.27 35.16-25.18 9-47.08 18.02-72.95 25.5-55.6 16.08-113.23 21.46-170.76 25.69-.93-14.5.33-215.67-38.51-188.36-15.95 11.21-14.84 103.17-14.99 133.76l-.79 54.49c-111.787-1.3-200.692-22.25-304.101-64.86 34.175-44.72 42.227-89.21 56.786-141.95 3.748-13.57 22.988-46.38 15.656-58.12-11.01-5.86-20.833 11.72-26.558 19.12-16.602 22.14-32.501 48.28-41.957 74.47-12.011 33.26-19.487 62.93-37.267 94.1-86.38-38.28-173.886-109.34-238.582-177.75 9.128-8.13 21.652-13.59 31.766-22.01 34.573-28.79 67.512-61.23 98.227-94.04 3.555-3.8 3.712-14.19-2.151-17.78-11.87-1.15-141.546 87.08-159.281 100.18-18.705-19.51-34.893-45.86-49.566-68.55-23.862-36.92-49.378-74.14-66.091-115-11.263-27.54-23.853-59.59-29.959-88.71 17.016-2.84 35.577-3.63 52.93-6.14 47.169-6.82 95.558-13.72 140.844-28.67 8.251-2.72 4.143-21.52-7.828-18.57-31.558.99-63.141 3.68-94.775 5.07-18.707.83-37.422 1.48-56.141 1.93-15.836.27-32.114-.03-47.844 1.17-20.714-96.78-23.641-218.784-3.274-316.062a529 529 0 0 0 40.792 20.173c17.561 7.63 36.105 14.528 54.775 18.785 14.997 3.419 133.257 17.934 140.229 14.162 2.081-1.126 3.549-3.451 3.947-5.746.37-2.136-.115-4.765-1.552-6.452-4.646-5.452-27.701-12.887-35.395-16.057-25.229-10.396-50.06-22.05-75.605-31.638-38.388-14.407-77.893-24.712-117.855-33.597 10.249-48.005 46.86-138.233 72.445-180.373 57.421 31.663 104.388 72.333 156.38 111.305 16.232 12.167 57.92 35.782 78.267 37.679 15.912-5.471.959-29.116-6.069-35.136-63.004-53.959-133.731-114.231-204.429-155.174 32.973-73.345 161.4-194.231 229.833-238.181 6.482 9.548 12.675 19.457 17.993 29.701 15.16 29.204 78.916 172.323 99.178 183.878 2.612 1.489 6.31 2.232 9.207 1.095 2.553-1.001 3.95-2.275 4.987-4.807 3.124-7.633-1.032-19.164-2.594-26.886-3.719-18.385-7.262-36.232-13.681-53.927-10.409-28.695-26.055-55.184-40.189-82.121-11.831-22.547-22.77-46.093-32.942-69.438 14.519-9.332 30.67-15.798 45.631-24.014 52.252-28.695 102.9-44.434 160.268-59.857 6.788 17.543 10.887 37.019 15.92 55.152 8.108 29.205 38.35 139.768 54.995 158.157 2.532 2.798 6.325 4.93 10.206 4.748 2.62-.122 4.813-.758 6.458-2.932 2.317-3.062 2.6-7.271 2.478-10.965-.34-10.296-3.659-20.831-5.208-31.032-6.522-42.939-17-85.552-26.075-128.027-3.85-18.016-8.345-36.203-10.797-54.463 32.679-5.269 64.619-10.675 97.683-12.492"/><path d="M1033.8 518.446c89.49-3.531 178.68 51.487 264.86 70.503 21.48 5.272 42.17 10.133 64.02 13.634 22.22 3.56 52.33 2.85 72.9 7.36 10.88 2.385 8.03 60.932 8.04 71.102.08 149.147-10.83 297.471-61.33 439.015-63.17 177.09-186.91 286.9-353.57 364.69-.55.09-2.78.53-3.17.37-186.56-76.47-351.622-219.07-391.916-425.08-6.239-31.9-9.441-63.537-11.308-95.788a1377 1377 0 0 1-1.329-94.883c.871-51.859 4.166-106.415 7.259-158.247a2189 2189 0 0 1 4.333-61.154c.943-11.653-.703-43.129 14.652-42.548 8.317.315 17.45 1.625 25.922 1.885a368 368 0 0 0 65.112-4.321c42.638-6.596 90.934-22.873 130.83-39.127 59.9-24.404 98.408-45.107 164.695-47.411"/><path fill="#FEFEFE" d="M1024.3 538.397c53.4-7.302 128.3 23.224 178.18 41.037a1061 1061 0 0 0 68.23 22.059c57.87 16.434 94.22 22.193 153.23 25.613-.06 45.127.95 91.573-.91 136.573-7.52 180.231-36.38 372.801-152.34 518.011-29.33 36.73-71.58 76.18-109.1 104.47-39.02 29.43-83.32 51.55-126.71 73.69-3.52 2.02-6 3.21-9.71 4.87-149.215-66.74-282.288-165.02-345.339-320.7-41.814-103.24-41.14-200.054-37.675-309.518a2950 2950 0 0 1 13.033-206.078c76.951 5.49 152.741-16.006 222.969-45.219 53.097-22.087 88.178-39.132 146.142-44.808"/><path d="M1010.61 595.41c82.23-7.707 192.8 48.029 275 62.776 18.58 4.182 36.71 6.258 55.58 8.045 9.84.931 32.88.319 39.91 5.463 3.67 9.125 1.27 48.557 1.01 60.663-3.6 167.146-19.47 334.263-114.49 476.763-60.51 90.75-126.52 152.59-223.06 202.07-7.76 4.24-12.42 7.19-20.9 9.83-17.55-8.87-35.71-16.99-53.104-26.01a649 649 0 0 1-82.412-51.56c-74.293-55.64-142.75-149.02-173.626-236.81-12.978-36.9-20.455-75.24-26.02-113.87-12.152-84.361-13.144-178.608-6.773-263.665.75-10.018 1.448-36.039 7.507-43.049.807-.933 67.746-13.776 74.869-15.784 58.386-16.463 112.65-44.995 170.899-61.631 24.715-7.059 50.092-10.645 75.61-13.231"/><path fill="#FEFEFE" d="m1024.64 802.874 1.89.325c.72 3.481-2.75 14.053-3.32 18.304-6.16 46.22 22.45 84.042 58.69 109.014 6.58 4.532 11.37 7.945 18.55 10.904 19.26-7.507 44.47-29.278 56.55-45.899-.2 11.234.37 22.469 1.71 33.625 3.72 29.208 11.6 54.682 5.49 85.283-14.18 71.02-82.35 141.76-140.17 181.16-11.99-8-24.37-17.64-35.986-26.37-49.117-37.81-96.099-88.3-117.362-147.55-13.647-38.026-6.147-60.08 6.948-97.064 4.942-13.954 10.953-31.231 17.439-44.634 6.322 18.889 24.126 82.189 39.968 90.433 2.719 1.414 5.709 1.885 8.642.748 4.687-1.816 7.595-6.389 8.179-11.246 1.043-8.685-2.524-18.274-4.047-26.806-3.748-20.997-1.496-45.727 6.704-65.465 13.351-32.139 38.58-51.794 70.125-64.762"/><path d="M1127.01 1045.53c2.21.79 4.7 1.42 6.15 3.16.85.54.92 3.39.58 4.16-15.49 34.8-62.13 92.51-92.49 111.46-4.08-.43-2.36.29-5.51-1.88-1.03-7.24 11.58-14.78 17.48-20 32.76-29.01 51.69-60.52 73.79-96.9m7.61-107.007c.45.046 2.42.12 2.94.301 14.57 5.085 15.24 49.421 12.95 58.978-3.03-.378-5.48-.464-6.39-3.777-2.8-10.289-2.71-21.366-4.6-31.811-1.74-9.626-9.01-13.694-4.9-23.691m6.46 74.267c2.35.02 3.31.3 5.63.76 5.5 4.69 2.6 8.4-.74 13.7-4.98-.94-6.61-.76-8.61-5.62.52-4.2 1.44-5.1 3.72-8.84M1031.7 556.436c26.41-1.008 52.87 3.608 78.25 10.552 7.51 2.053 28.52 5.872 28.66 15.304-3.55 4.704-6.45 3.615-12.46 1.442-43.38-15.696-80.54-20.474-126.661-13.964-18.636 3.335-35.899 8.233-53.746 14.467-9.999 3.492-29.124 15.44-38.102 16.147-3.59-1.488-2.18-.347-4.384-3.548.013-1.674-.277-4.106 1.471-5.134 37.47-22.04 84.573-33.097 126.972-35.266m136.58 35.24c7.87.407 39.6 13.677 49.76 17.21a788 788 0 0 0 52.2 15.832c38.34 9.86 75.12 15.048 114.43 15.833 2.62.052 4.08 1.904 5.42 3.777.22 3.616-.15 3.824-1.52 7.107-20.97 2.456-82.33-6.921-103.88-12.051-17.91-4.265-109.29-27.889-117.46-40.9-.63-3.363-.19-3.639 1.05-6.808m150.26 550.904c3.23-.12 3.2-.34 6.08.96 4.23 8.59-9.56 31.79-14.48 39.91-28.56 47.09-69.64 106.87-111.79 141.85-2.67.62-3.41-.45-5.19-1.9-.34-1.33-1.22-4.09-.15-5.24 36.04-38.75 70.76-78.96 98.06-124.64 9.84-16.46 18.32-33.83 27.47-50.94m-661.191-127.93c3.518.36 5.197.13 7.812 2.46 2.991 6.37 7.082 39.59 9.308 49.73 5.573 25.4 14.248 49.84 24.664 73.62 3.273 7.48 19.142 36.62 18.138 43.05-3.115.74-5.851.73-7.713-2.23-19.861-31.61-34.176-69.44-42.59-105.78-3.377-14.58-11.307-46.77-9.619-60.85m740.591-306.699c3.35-.113 5.25-.466 8.36.8 4.58 7.441-1.72 138.786-5.13 153.452-3.89.736-4.95.452-7.68-1.966-2-5.179.66-35.347 1.05-42.573q1.635-32.423 2.28-64.882c.21-13.143-.18-32.213 1.12-44.831M744.108 1194.53c1.903.79 3.421 1.87 4.463 3.66 12.283 21.23 23.474 41.82 38.447 61.4 3.794 4.96 11.175 14.82 14.053 20.34 1 1.92-.975 4.74-1.953 6.46-1.1-.42-1.4-.49-2.356-.98-9.451-4.8-52.504-70.26-55.562-82.9-.855-3.53 1.072-5.3 2.908-7.98m-90.371-392.347c2.134.392 5.151 1.109 6.269 3.201 1.705 3.192-1.624 101.869-2.734 108.423-2.565-.534-2.392-.461-4.194-2.373-5.589-15.586-3.278-90.455.659-109.251m194.702 531.257c8.561 1.84 36.712 30.21 48.459 35.61 9.723 4.48 24.524 9.28 22.433 21.49-15.878-1.27-61.327-35.57-71.851-50.16-1.204-1.68.287-5.13.959-6.94m-7.357-723.266c2.813-.179 1.52-.444 3.85 1.176l-.455 2.008c-13.314 12.222-67.667 28.468-86.473 31.528-3.315-1.909-3.49-2.516-3.831-5.896l1.696-2.48c8.274-2.26 16.598-4.347 24.772-6.96 12.021-3.844 23.958-8.026 35.937-11.996 8.113-2.689 16.174-5.452 24.504-7.38m332.628 734.676c2.83-.05 2.75-.19 5.32.88 5.42 11.62-41.66 40.56-51.4 47.09-3.52-.79-5.19-2.59-6.54-5.91.97-3.83 6.06-6.09 9.64-8.36 15.67-9.89 29.26-21.28 42.98-33.7m207.95-404.462c14.2 2.238 4.21 31.191.25 39.039-2.26-.623-5.78-1.536-6.22-4.096-1.48-8.699 1.96-27.5 5.97-34.943m-9.71 61.242c2.44.99 2.26.93 4.02 2.92 1.38 7.34-3.41 27.8-7.39 34.06l-3.98-1.74c-4.95-6.69.67-29.64 7.35-35.24M656.526 734.369c2.255.504 2.68.803 4.792 1.81 3.128 5.424.656 21.684-3.284 26.513-10.868-.823-4.964-22.76-1.508-28.323"/><path fill="#FEFEFE" d="m1177.94 227.84 16.64 1.693c-11.18 55.333-17.24 101.056-35.72 154.719a840 840 0 0 1-4.88 14.617c.54-37.492-2.4-76.92 3.99-113.851 3.3-19.142 12.14-39.355 19.97-57.178m426.46 1082.99c13.11.45 97.34 46.68 111.75 55.99-1.11 3.59-2.48 6.45-4 9.89-1.93 2.76-2.01 4.01-4.52 4.78-18.68-9.48-38.73-23.72-56.34-35.27-16.2-10.61-30.83-24.28-46.89-35.39m-248.98 249.81c12.96 9.85 75.6 89.79 66.16 101.05l-7.83 4.64c-20.32-25.48-46.88-75.02-58.33-105.69M248.16 822.159c4.464-.366 18.632 3.721 23.739 5.038 45.232 11.669 92.495 25.592 135.306 44.492-24.761-2.838-51.031-5.5-74.581-13.859-28.072-9.964-57.771-22.452-84.464-35.671m1436.8 233.351c19.92-2.89 108.22.56 125.22 10.59 1.52 3.31.67 5.98.16 9.69-19.99 4.87-100.73-15.68-125.38-20.28m-646.78 567.14c3.54 5.77 11.73 133.88 8.58 141.42-3.62.03-8.24.49-11.4-.92-.86-6.39-.58-30.91-.34-38.49.95-29.28-2.28-74.6 3.16-102.01M341.558 597.61c21.132 13.473 42.814 26.326 63.211 40.954 28.961 20.772 55.75 44.653 82.703 67.937 5.386 4.653 11.454 9.651 16.313 14.762l-1.254.337c-18.401-11.084-32.263-23.837-48.75-37.349a850 850 0 0 0-49.033-37.639 1268 1268 0 0 0-48.743-32.22c-5.697-3.546-13.94-5.978-17.829-10.917-.023-3.251.431-2.589 3.382-5.865M1456.32 337.687c1.37.693 6.92 3.439 6.34 5.055-10.27 28.422-29.59 58.912-48.13 82.611l-2.65 2.303c-.29-6.535 37.9-77.954 44.44-89.969M496.006 1438.05l.543.44c-4.651 8.39-61.917 52.57-71.517 56.27-1.853-2.26-3.137-3.31-3.482-6.19 12.317-11.8 58.703-40.15 74.456-50.52M1774.83 752.004c1.97 1.566 1.69 3.015 1.65 5.134-6.45 7.935-59.28 26.717-71.37 29.627l-1.61-.078c2.94-3.652 63.14-31.566 71.33-34.683m-138.62-205.14 1.21.705c-19.19 13.408-40.37 26.766-59.99 40.119l-1.25-.162c7.82-21.725 41.68-30.915 60.03-40.662M287.586 1177.87c11.653-1.37 25.5-1.02 37.277-.71-8.486 1.29-14.539 2.14-23.062 2.57-10.344.77-40.149 3.67-48.524 2.08l-1.27-2.35.754 2.16-.201-2.77c4.751-3.27 27.871-1.21 35.026-.98m313.486-849.545c7.008 2.66 26.93 48.807 29.085 57.152-5.34-8.474-29.707-50.056-29.085-57.152"/></svg>