<svg xmlns="http://www.w3.org/2000/svg" preserveAspectRatio="xMidYMid meet" viewBox="0 0 2048 1462"><path d="M1021.22 114.567c16.19-1.634 42.76-.03 60.24-.399 44.29-.936 88.29-.035 132.51.621 86.58.684 173.14 2.581 259.67 5.691 19.86.88 39.64 3.142 59.47 4.283 12.65.728 25.24-1.233 37.91-.362 32 2.198 63.92 5.419 95.9 7.752 13.93 1.016 28 .938 41.9 2.194 8.94.807 24.06 7.716 32.07 4.169 1.83-.807 3.12-1.3 5.17-1.246 14.42.383 28.87 3.653 43.21 5.2 17.34 1.872 62.09 4.083 76.96 9.169 14.38 4.917 34.42 20.075 40.97 33.972 10.79 22.868 3.27 99.205 2.94 127.048-.18 15.825 4.71 40.775-.67 55.222-3.4 9.117.08 24.432-1.07 26.805-1.18 2.442-3.14 2.996-3.46 6.02 2.36 1.752 3.37 2.479 5.41 4.569-.24 15.693-.76 31.009-2.87 46.588-.55 4.086-4.97 3.443-3.09 10.214 5.79 2.122 5.08 5.766 4.69 11.788-2.46 38.191-.58 81.391-6.45 118.795l2.02 2.675-3.88 136.045c-.17 5.887-.3 46.093-1.76 49.658l-3.58.331-.81 2.102c2.02.515 2.06.411 3.75 1.576 3.95 7.351-.5 29.577.52 38.929.24 2.128-2.98 4.469-4.76 6.123 2.1 1.691 4.74 2.711 4.71 5.407-.24 19.206 2.8 37.92 3.01 57.014.02 1.305-1.7 3.421-2.45 4.433l-.44.58c6.76 7.859 3.6 8.603 4.56 17.929 2.35 22.818 1.7 44.162.93 66.891a499 499 0 0 1 3.97 3.622c6.09 5.628 14.31 14.605 17.55 22.615 24.82 61.29 27.17 135.11 31.08 200.59.22 3.75.12 13.63-2.59 15.62-19.14 14.05-56.44 24.27-78.74 31.35-80.36 25.52-164.27 41.88-247.39 54.93a3250 3250 0 0 1-338.76 34.6c-68.28 3.83-142.44 7.5-210.82 7.33-41.61-.18-83.232.14-124.824-.96-201.831-5.38-402.981-20.81-601.566-59.24a2359 2359 0 0 1-157.683-35.13c-11.348-2.93-50.405-11.6-55.894-19.72-.781-3.78-1.066-2.57.144-5.79 2.659-1.81 7.652-1.13 11.859-1.56 3.55-3.4-.026-24.92.282-31.51 3.185-68.01-13.928-164.33 49.277-210.003 3.669-2.652 14.483-10.057 16.421-13.018-1.232-.737-1.729-.88-3.083-1.199-4.351-16.947-7.085-54.063-8.663-71.397-2.863-31.44-5.148-65.371-5.204-96.937-.043-24.639.452-51.048 1.695-75.662.645-12.755-.725-27.29-.457-40.374.3-14.585 1.495-29.243 1.769-43.736l3.98-216.846c.33-18.435-.529-37.114-.016-56.269l1.922-80.627c.493-15.692 4.088-37.887 1.687-52.889-.354-2.215-.738-2.556-.765-5.44-.07-7.422.613-15.502.738-22.845.392-22.979 2.803-43.053 19.317-60.656 7.095-7.563 18.779-16.087 29.375-17.531 18.738-2.554 38.674-.951 57.642-1.937 51.127-2.657 102.192-2.704 153.305-5.254 7.879-.393 16.476.394 24.395.175 7.127-.198 13.839-2.568 21.1-2.789l208.016-5.577c11.03-.187 22.592 1.128 33.271.785 45.286-1.451 91.643-3.715 136.876-4.062 42.435-.326 84.924 1.192 127.554-.445"/><path fill="#fefefe" d="M1174.01 138.403c7.15-1.126 32.89 1.607 43.31 1.405 14.3-.277 29.1-.393 43.71-1.17 7.92.278 16.25 1.702 24.11 2.076 19.6.932 38.86 1.29 58.41-.561 4.85.594 9.71 2.69 14.63 2.889 19.32.783 38.57.54 57.88 1.76 2.59.164 10.22-2.995 13.02-3.029 8.12-.097 16.66 4.446 24.91 4.741 15.66.551 31.13.378 46.73.746 9.95-.03 21.17 2.39 30.99 2.337 18.48-.099 35.81.196 54.18 2.726 7.43 1.024 17-.125 24.81.647 34.41 3.403 68.74 6.665 103.33 7.711 8.11-.112 22.5 4.55 30 4.047 25.18-1.687 47.63 4.845 72.34 6.847 17.86 1.448 36.06-3.209 51.84 8.98a34.92 34.92 0 0 1 12.57 18.635c5.4 19.431.33 71.979.47 94.45.04 7.105 1.36 15.793 2.24 22.926-4.52 4.938-3.03 14.849-3.2 21.743q-.57 19.432-.93 38.869l-1.86 114.159-2.1 148.888c-.32 17.89-3.03 38.25-2 55.816 1.14 19.447.33 33.687-.31 52.842-.77 23.019-1.05 46.053-.84 69.084.52 43.723 4.82 88.561 6.72 132.359.24 5.337.79 10.95 1.22 16.294-12.79-5.085-22.96-12.739-36.42-16.946 14.92-30.546 17.72-63.676 20.15-97.129 1.45-19.968 1.44-43.066.77-63.392-1.54-46.28-4.06-103.138-36.02-139.833-24.04-27.883-62.25-42.9-98.42-45.609-46.77-3.503-82.05 39.893-97.74 79.464-6.41 16.149-10.7 33.412-13.85 50.48-.11.954-1.46 10.459-2.21 10.856-3.44 1.351-7.7.607-10.16 3.772-13.65 17.529-6.29 46.147 8.98 59.98-5.75 43.862-10.21 101.932-.57 144.717-17.94 6.386-44.21 20.749-59.31 32.367-27.31-15.574-57.2-25.052-87.83-30.739-2.75-.512-3.58-1.872-4.67-4.089.71-1.857.92-2.514 2.75-3.565 4.18-2.397 10.43-3.325 15.09-4.971 21.34-7.544 40.87-17.591 52.51-37.988 22.68-39.779 24.9-155.418 12.67-200.159-8.61-31.51-28.19-55.499-56.51-71.414-24.94-14.015-58.5-23.063-86.5-14.84-28.45 8.35-46.85 30.814-60.54 55.852-5.78-40.482-17.69-159.46-36.92-190.06-16.74-26.629-64.31-32.889-92.73-39.274-6.82-7.358-23.94-14.137-26.33-19.639 4.85-1.933 12.56-4.16 16.42-6.108 16.26-8.213 22.61-23.738 24.45-41.01.77-7.182.67-12.992 5.32-18 5.75-6.197.08-15.711 1.21-22.357 1.03-5.4 4.48-11.418 5.65-16.638 5.74-25.551 4.04-60.797-19.46-77.341-13.35-9.394-26.29-8.134-41.11-5.461-2.58-3.639-6.09-7.552-9.41-10.466-32.06-28.146-92.77-6.117-108.86 30.333-1.7 3.842-2.82 8.591-3.79 12.705-22.7 13.929-29.98 33.147-12.63 57.355 2.66 3.716 8.28 8.565 12.38 10.63 2.21 16.849-1.53 30.696-.04 46.905 1.51 16.479 13.93 30.612 30.1 33.793 4.13.813 14.87 1.229 17.75 3.459.26 1.408.28 6.024-.58 6.672-8.82 6.643-15.18 9.586-23.17 17.653-39.67 7.13-70.86 19.993-89.605 57.5-25.431 50.882-42.253 101.977-57.947 156.555l-28.52-67.204c-4.848-11.606-9.82-24.269-15.279-35.639-1.868-3.891-5.938-4.437-10.28-5.675.355-12.812-1.505-26.644-5.734-38.754-3.624-10.381-11.573-40.146-24.083-40.914-9.996 2.697-10.258 11.422-9.471 19.835a172 172 0 0 0-4.777-5.035c-15.246-15.358-49.394-37.853-71.73-38.448-14.608-.39-22.062 11.899-20.369 25.91 4.137 34.253 25.388 66.748 48.427 91.654 6.457 6.98 15.097 13.859 22.299 20.014l-5.606 8.475c.666 3.478 1.491 6.05 2.528 9.394 14.716 41.707 24.535 85.143 40.159 127.973 14.998 41.113 39.648 128.048 100.635 108.288 22.643-7.336 36.972-35.778 46.724-56.227-.219 19.088-1.984 40.974-3.088 60.222l-4.556 83.403c-1.046 17.51-2.401 35.189-2.927 52.724-.4 13.334 2.786 13.755 14.79 14.545l-.07 120.069a3597 3597 0 0 0-45.281-.4c-2.892-16.25-9.552-49.49-18.196-62.37-35.349-52.688-98.955-75.403-156.808-90.078-30.919-45.836-37.634-6.524-26.436-72.595 17.241-12.77 28.24-27.106 38.5-45.555 28.754-8.422 46.064-33.327 42.822-64.051-.527-4.985-1.729-11.041-5.106-14.989-2.184-2.553-8.111-6.56-10.129-9.726-.742-6.862 2.541-14.997 2.911-21.997 1.046-17.638-3.047-38.474-10.942-54.147a115.16 115.16 0 0 0-66.975-57.125c-35.993-11.583-83.779-13.236-97.224 30.663-45.818-8.057-76.68 29.567-82.477 72.061-1.657 12.147-1.447 20.047-.923 32.219-27.704 23.927-18.786 57.867 5.791 81.626 5.758 5.566 12.779 7.943 20.547 9.436 17.445 27.63 24.244 28.847 46.37 48.025 1.052 10.936 1.902 19.93 3.945 30.684-9.942 5.259-16.462 10.363-24.652 17.955-2.071.344-7.22 12.136-7.205 12.132-29.672 8.072-53.339 16.503-80.085 32.009-16.44-20.586-51.726-34.27-76.041-43.57-14.919-19.074-19.891-23.936-40.431-35.43 10.984-13.286 22.325-25.028 31.819-39.929 1.871-2.197 16.718-27.66 17.227-27.753 22.938-4.212 47.543-41.025 27.098-70.554 20.298-49.525.11-109.643-42.978-140.325-32.196-22.926-81.261-36.695-108.981.109-64.728 2.863-87.184 66.169-85.012 121.684-6.439 3.176-11.867 6.342-14.35 13.445-7.129 20.388 11.917 49.419 30.245 56.402 21.302 41.016 33.017 51.701 65.165 85.748-11.5 7.069-23.01 16.144-29.976 27.855-19.822 5.453-39.274 12.317-57.117 22.624-2.642 1.526-10.422 6.501-12.907 6.54l-.781-1.851.48-1.204c6.482-15.935-5.925-73.025-4.185-93.533.001-.01-1.763-3.777-1.749-4.67 1.941-127.539 1.609-255.052 9.24-382.425 1.297-6.397-4.541-22.643-3.545-27.867 3.243-17.012 4.23-28.977 4.064-46.39-9.947-12.354-1.195-9.874-1.556-15.814-1.149-18.864 3.599-40.907 2.043-59.175-1.701-19.958-1.262-34.673 1.144-54.519 1.138-15.228-.895-32.292.358-48.29 1.123-14.335-1.489-31.005 1.84-45.646 5.716-32.895 36.631-26.307 60.683-27.219a2881 2881 0 0 1 88.715-2.622c48.056-.826 96.891-5.413 145.045-4.525 26.153.482 51.145-2.386 77.153-3.183l215.695-5.793c5.825-.154 13.906 1.132 20.02 1.664 12.993 1.132 25.143-1.281 38.011-1.593l139.907-2.132c22.34-.29 45.03-.249 67.38.009 24.77.286 55.23 1.882 79.71-.692"/><path fill="#fefefe" d="M346.623 943.4c46.712-7.255 139.579 22.08 171.175 55.842-23.2 13.988-47.175 40.248-53.825 66.318-18.466 72.4-15.49 156.49-15.122 230.43-11.065-1.96-33.39-3.32-42.791-6.64-15.805-5.6-26.583-10.35-43.709-14.17-18.039-4.98-38.159-9.14-56.56-13.5l-137.723-32.37c-.12-50.12-5.471-169.62 27.139-209.9 31.829-39.313 100.461-70.808 151.416-76.01m1489.127 19.215c60.46 34.126 77.39 42.095 89.79 115.305 8.04 47.4 9.53 91.15 11.54 138.96-44.56 11.74-89.1 25.56-134.01 36.22-31.75 7.53-65.11 14.46-97.11 20.85-9.24 1.84-48.92 9.82-56.95 9.78.06-70.36-3.34-134.24-17.03-203.82-7.79-39.61-27.83-62.65-61.29-84.149a203 203 0 0 1 50.6-27.849c18.74 22.382 58.13 26.439 85.74 26.622 43.29.286 99.59 5.676 128.72-31.919m-765.46-499.524c.52-.105 2.35-.094 2.97-.106 1.99 5.576-8.64 21.397-6.43 33.744 2.19 3.031.77 2.105 4.39 2.911 8.08-1.581 19.63-12.504 27.01-18.233-2.92 28.329-3.24 59.593-3.77 88.042l-2.18 92.789a6045 6045 0 0 1-5.74 141.812 5137 5137 0 0 1-10.15 178.023c-24.48.536-50.97-.02-75.6-.095 7.12-122.581 15.78-245.6 13.38-368.486-.11-5.866.85-14.722-4.97-17.419-12.545 2.91-7.82 34.132-7.74 45.342.07 24.45-.29 48.899-1.08 73.336-.407 39.44-3.102 38.812-19.414 73.453-21.098 44.804-55.906 60.826-86.276 13.103-16.997-26.708-25.149-57.225-35.547-86.746-12.408-35.661-23.264-71.917-34.68-107.988 26.304-1.088 42.552-8.215 61.007-26.794 19.154 46.514 37.547 93.436 57.526 139.622 2.492 5.761 3.682 10.442 10.494 9.923 6.975-5.164 3.732-10.846.572-17.706-4.331-9.405-8.866-18.945-13.151-28.359 14.398-57.612 36.498-123.881 64.039-176.337 15.49-29.502 34.19-34.67 65.34-43.831m145.46-4.548c2.05.306 4.1.655 6.13 1.048 18.68 3.556 61.17 14.233 71.66 30.912 13.41 21.295 38.32 174.77 36.7 204.353-.64 11.792-9.75 32.572-13.09 45.692-29.63 10.437-24.04 49.076-6.21 67.482-.93 12.11-1.74 24.229-2.42 36.356-2.04 38.812-.43 72.768 38.6 91.927 5.69 2.792 22.13 7.609 21.63 14.272-3.34 3.719-10.73 5.457-15.56 6.575-23.87 5.519-43.74 17.56-64.95 29.131-2.93-28.074-3.1-66.218-4.42-95.412a10782 10782 0 0 1-7.24-235.126c-.9-12.064 4.16-62.204-10.33-62.981-6.77 4.045-3.9 40.573-3.69 49.934.54 24.796 1.22 49.588 2.03 74.376 1.41 51.796 3.13 103.582 5.14 155.358 1.42 35.638 3.71 72.457 4.48 107.967-20.15 1.644-68.63.584-89.49-.075-10.75-170.071-17.24-330.194-.7-500.416 7.33 4.762 23.31 22.845 31.12 19.455 4.05-6.848 1.22-32.18.61-40.828"/><path fill="#fefefe" d="M1093.47 954.555c29 7.497 46.94 7.235 76.02 4.206.89 9.585.14 23.05 4.2 31.353 6.15 6.002 29.38 4.088 38.5 4.033l46.7.005c-.63 5.388-.56 6.988-.13 12.428-43.09 37.78-53.41 51.96-61.34 109.28-14.54-.93-34.49-.56-49.64-.78-2.05-18.55-1.26-41.82-4.32-60.34-.31-1.9-3.01-3.21-4.7-3.99-5.51.63-6.96 5.22-6.97 10.43-.03 13.86-.15 27.4-.69 41.27-1.43 35.38-3.08 70.74-4.97 106.1-1.47 40.5-4.17 81.47-5.36 121.85-28.91-1.12-67.91.4-97.66.62-4.83-32.33-5.31-92.41-6.03-126-1.96-69.99-2.52-140.02-1.69-210.044 15.24.153 58.12 2.507 71.27-2.599 5.77-2.243 4.33-27.226 6.56-36.798zm16.95-466.631a73.3 73.3 0 0 0 18.77 6.215c15.25 2.908 27.38 2.166 40.17-6.478a2891 2891 0 0 0-8 300.332 4938 4938 0 0 0 3.41 96.578c.97 17.683 3.54 42.533 3.51 59.441l-1.51 1.454c-29.48 4.66-44.23 1.511-72.87-4.083-.04-22.842 2.17-50.968 3.37-74.192l5.39-118.297c3.47-86.99 3.81-174.191 7.76-260.97m65.54-215.278 1.06.653c12.59 22.422 26.17 41.281 29.86 65.759 29.92-4.565 21.69 23.145-3.83 23.923-7.69 37.977-33.73 69.774-75.54 56.31-38.95-17.463-27.06-42.253-38.83-54.254-3.1-3.168-9.43-2.256-13.09-4.923-1.76-1.289-2.63-3.167-2.96-5.285-.59-3.709-.1-8.748 2.09-11.835 3.33-2.175 8.41-1.511 13.27-2.295 4.54-3.664 5.16-18.518 6.56-25.933 32.79.907 64.56-12.683 81.41-42.12"/><path d="M1153.75 379.428c3.65-.309 9.88-1.02 12.73 1.247 7.79 6.205-2.21 16.46-7.62 20.376-5.45 3.939-9.31 4.309-15.51 5.032q-1.515-.555-3.03-1.152c-6.92-2.765-20.19-12.328-16.04-20.883 5.38-4.748 21.02-3.848 29.47-4.62m-11.13-46.956c15.62 7.398 6.9 20.652 8.73 31.693.91 5.498 1.63 3.563-2.4 8.566-13.22-6.05-8.71-12.756-3.09-22.979a229 229 0 0 1-3.56-8.661c-1.42-3.721-1.29-5.021.32-8.619m32.86-29.274c7.65-.453 11.26-.561 17.05 4.26 1.22 3.188 1.33 1.732.16 4.525-2.5 1.49-3.36 1.126-6.44.897-7.65-.543-14.48 1.972-20.36-1.527-1.25-3.051-1.07-1.746-.11-5.307 2.86-2.177 6.04-2.262 9.7-2.848m-2.29 31.591a6.16 6.16 0 0 1 8.5 1.334 6.161 6.161 0 0 1-7.31 9.375 6.16 6.16 0 0 1-3.75-5.005 6.19 6.19 0 0 1 2.56-5.704m-57.3.644a5.83 5.83 0 0 1 6.04-.216 5.83 5.83 0 0 1-.29 10.336 5.83 5.83 0 0 1-7.62-2.362 5.834 5.834 0 0 1 1.87-7.758"/><path fill="#fefefe" d="M980.78 1140.49c6.801-.15 14.362.1 21.22.17 2.43 64.17 2.13 125.55 7.22 190.21l-22.47-.01c-6.098.07-12.577-.25-18.703-.44.831-66.16 3.135-122.63-7.594-189.53zm169.11.37c14.98-.28 29.96-.35 44.94-.19-6.06 60.51-3.9 124.64-.78 185.32-1.28 3.16-25.51 3.04-30.26 3.23zM756.255 458.931c2.56-.193 4.25-.316 6.434 1.479 10.881 8.94 39.031 49.178 51.996 48.6l1.001-1.515c-.353-2.506-1.246-5.566-2.994-7.442-12.373-13.279-25.26-25.879-37.298-39.514 25.011 9.344 44.353 25.033 64.264 42.266-2.509 10.62-10.25 38.874 2.593 45.29l1.633-1.503c1.953-5.222-2.766-9.206-1.594-17.309 3.135-21.66 7.475-28.008 5.609-50.621 15.066 22.417 28.232 61.372 14.928 86.72a186 186 0 0 1-22.775 11.604l-12.293 4.858c-33.189-20.176-53.149-48.518-69.286-82.849 7.21 8.227 29.247 37.448 38.871 36.503l1.202-1.846c-.123-1.138-.179-3.648-.782-4.243-11.608-11.446-33.28-38.814-44.376-47.831-.578-3.166-2.018-8.923-1.026-11.649 10.185 5.968 40.91 54.328 52.986 53.795l1.454-1.821c1.503-13.795-48.179-51.722-50.547-62.972m417.005-32.895.82.6c1.55 4.222-1.12 40.326-3.64 44.376-10.69 17.211-43.57 12.399-56.99 6.092l-1.73-2.256c-.38-6.004 5.21-40.017 6.45-48.488 2.22.98 4.48 1.87 6.77 2.665 16.34 5.552 32.88 4.629 48.32-2.989m-497.8 505.311c29.916-4.873 65.553 5.009 86.016 27.975a948 948 0 0 0-40.536-6.028c-38.968-4.273-55.743-4.556-93.143.014 14.665-15.393 27.324-19.291 47.663-21.961m30.722-294.976c5.324-.607 12.597.584 17.886 1.648 42.52 8.552 86.762 49.608 76.99 96.245-1.232 5.877-5.745 15.964-11.114 19.277l-1.58-.688c-2.303-6.289 1.897-18.632 3.696-25.377q-.029-2.88-.111-5.757c-1.274-42.648-41.722-71.104-81.677-76.503-9.829-1.328-26.601 6.293-35.657 10.088l-.863-1.022c3.183-12.408 21.54-16.609 32.43-17.911m712.498-3.051c4.64-.258 10.23-.952 11.82 4.597-2.1 1.972-16.04 4.59-21.5 6.767a58.4 58.4 0 0 0-16.91 10.53c-37.58 33.026-44.31 87.198-47.29 133.441-3.19 1.64-3.42 1.933-6.88 1.935-1.63-1.008-3.25-2.07-3.2-4.422 1.06-52.122 23.48-140.999 83.96-152.848m308.57-12.976c3.64.029 6.92-.193 9.11 2.923-2.86 5.253-20.6 7.648-26.58 10.62-43.07 21.403-59.16 75.198-66.37 118.88-2.65 1.912-2.47 1.925-5.69 1.957-4.84-4.106-.22-18.777 1.08-24.823 9.94-46.052 34.91-104.002 88.45-109.557m-1344.848 9.002c27.735-2.278 59.273 19.858 73.865 42.161 6.244 9.543 26.675 47.319 12.284 55.245-1.907-2.078-4.209-12.901-5.088-16.326-15.312-46.122-49.772-83.803-101.838-68.001-2.77-1.114-1.596-.275-3.504-2.791l.426-1.719c5.085-5.349 16.765-7.729 23.855-8.569m356.19 264.537 1.034.809c.798 3.299-3.161 25.592-3.931 31.028-32.347-7.334-48.991-9.242-81.747-3.069.135-5.141-1.743-16.228-2.519-21.74 3.628.985 7.529 2.363 11.149 3.555 24.397 8.037 54.558 3.431 76.014-10.583M359.516 914.23c29.893-3.382 53.449 5.312 74.409 26.346-9.724-2.642-19.175-5.282-29.035-7.381-30.616-6.189-51.92-4.371-82.054-.594 12.473-11.38 20.168-15.578 36.68-18.371m780.884 294.48c2.01 8.66 11.22 117.93 9.59 120.77l-2.74.3-12.81.12c1.79-36.83 2.12-85.43 5.96-121.19M819.109 771.36c.656.407 1.55 1.046 1.985 1.683 12.571 18.404-4.666 44.18-18.365 56.2-1.801 1.191-.853.923-2.889.989.027-1.048 18.473-57.238 19.269-58.872m-253.407 2.623c2.076 3.091 5.061 23.268 6.788 28.595 3.885 11.981 9.703 22.331 14.087 33.787l-2.12-.45a68 68 0 0 1-4.673-3.66c-14.564-12.661-29.396-41.119-14.082-58.272m622.518-331.324c4.33 2.298 8.31 4.947 12.42 7.599.95 7.417 2.98 20.209 2.42 27.244l-1.07.795c-4.68-5.932-10.82-11.576-16.27-16.894 1.12-5.616 1.8-12.939 2.5-18.744m125.61 307.964c1.2.926.88.847 1.66 2.365-.11 6.909-.69 36.21-3.72 40.756l-1.53-1.137c-8.08-15.16-9.9-29.361 3.59-41.984M250.562 765.432c1.796.262 1.861.448 3.577 1.148 1.234 1.823 7.843 38.076 7.548 39.971l-1.464-1.153c-8.516-10.912-21.107-27.754-9.661-39.966m234.183 20.146 1.333 1.007c6.512 14.045-6.556 32.871-16.42 42.108l-.803.67-.436-.805c5.915-13.501 11.229-29.019 16.326-42.98m391.686-218.563.057 1.724c-7.14 16.02-36.799 25.34-53.405 24.134.378-.471 40.023-12.607 53.348-25.858m223.059-120.31 1.06 1.402c-1.01 6.144-1.98 12.296-2.89 18.455l-12.08 9.536-.77-.514c-1.15-7.999 9.09-23.311 14.68-28.879m513.33 304.774 2.52 1.559c1.88 5.716-1.44 30.932-2.97 37.305a48 48 0 0 1-1.68-4.339c-3.79-11.45-3.32-23.691 2.13-34.525m-971.241-75.228c3.017.103 1.723-.379 4.056 1.382l-.209 1.497c-3.269 2.216-2.227 1.52-7.103 1.246l-.284.351c-2.418.992-1.106.802-4.102-.105l-.407-1.726c3.166-2.604 3.63-1.97 8.049-2.645"/></svg>