<svg xmlns="http://www.w3.org/2000/svg" preserveAspectRatio="xMidYMid meet" viewBox="0 0 2048 2048"><path d="M963.957 89.423c119.703-5.917 250.723 17.538 361.973 60.716 222.8 85.898 402.19 257.038 498.47 475.551 98.09 224.36 102.29 478.65 11.66 706.12a941.04 941.04 0 0 1-309.87 404.92c-17.42 13.24-68.73 49.9-87.14 57.94l.09 88.58c0 13.24 1.66 48.93-3.34 58.94-5.08 4.06-24.15 5.94-31.55 6.97-121.76 16.93-253.78 31.14-376.5 25.26a1632 1632 0 0 1-109.839-6.92c-27.62-2.41-211.473-25.19-222.45-40.04-1.572-2.12-1.308-6.12-.976-8.65 1.027-7.82 4.007-15.66 6.03-23.3a306 306 0 0 0 7.288-36.83c-104.804-35.48-213.574-103.49-295.817-177.06a914.47 914.47 0 0 1-281.815-458.85 835 835 0 0 1-26.743-165.89c-15.312-246.044 68.379-487.995 232.44-671.991a905.53 905.53 0 0 1 438.6-267.497 959.2 959.2 0 0 1 189.489-27.97"/><path fill="#fefefe" d="M988.082 207.046c203.508-4.123 400.558 71.504 549.058 210.723 122.14 116.572 201.58 254.155 233.42 420.723a744 744 0 0 1 14.29 129.146c6.2 216.832-74.51 427.152-224.2 584.152-18.23 18.73-36.41 37.66-56.59 54.31-22.07 18.21-44.95 39.88-69.1 55.4-.82-50.22-4.5-102.26-7.96-152.41-4.38-63.57-10.17-128.13-35.67-187.02 4.12-7.94 9.52-15.53 14.55-22.94 61.27-90.26 92.58-196.56 94.69-304.588 1.55-133.838-50.12-262.813-143.64-358.569a504.1 504.1 0 0 0-291.27-146.677c-23.71-3.293-43.91-4.096-67.807-4.555-2.057-18.968-1.591-44.869-2.943-64.515-4.873-70.78-3.936-142.418-6.828-213.18M353.291 551.681c2.041 2.31 13.767 35.823 15.779 41.253a7215 7215 0 0 0 97.101 248.235 1340 1340 0 0 0 22.181 51.085c19.044 42.386 15.348 38.026 15.621 83.95a669 669 0 0 0 2.404 50.416 549.9 549.9 0 0 0 190.663 368.1c6.336 37.6 11.344 85.26 15.095 123.25 7.044 71.35 12.41 150.67 8.711 222.26-22.337-7.09-68.026-31.33-90.096-43.16-13.546-7.28-26.863-15.75-39.768-24.1-182.824-116.87-311.429-301.89-357.265-513.98-44.814-211.648 1.963-427.193 119.574-607.309"/><path fill="#fefefe" d="M845.767 1079.68c2.229 1.86 23.83 23.84 27.063 27.12.134 16.65 1.913 35.57 12.789 48.72-.16.72-.313 1.45-.457 2.18-3.743 19.15-1.975 37.54 8.978 53.98-1.626 24.42.748 30.08 8.826 52.72 1.698 4.76-.006 21.34 2.031 26.31 5.203 12.44 11.496 29.19 9.567 42.9-3.698 26.28-3.675 43.17 11.942 66.02 4.251 6.22 8.146 16.13 12.954 23.57 5.371-6.14 8.769-12.36 10.554-20.57 4.772-21.95 9.577-44.78 8.708-67.34-.181-4.68-4.465-16.82-4.376-20.43.475-19.29 3.264-32.11-7.802-50.25.923-27.32-6.353-52.82-9.054-80.14-.517-5.23-5.259-16.97-6.806-23.46q4.704 5.445 9.541 10.77c35.115 38.53 77.635 57.76 130.005 60.16-.14 71.33.65 142.65 2.38 213.96.69 38.1.65 75.42 2.26 113.63l7.23 173.3c.47 9.8 4.35 60.54 3.15 67.41 3.54 51 6.56 102.04 9.07 153.1-25.75 1.82-61.9-.53-88.03-1.62-93.609-3.91-197.127-16.11-287.972-38.98 1.623-11.06 5.575-22.95 7.87-34.03 26.806-129.39 16.945-263.19 3.358-393.63-5.441-52.23-12.077-107-21.812-159.11 48.612-45.02 95.044-131.79 120.752-193.73 5.832-14.06 11.321-36.82 17.281-52.56m142.589-950.251c10.718-.52 28.494.342 39.374.754a891 891 0 0 1 92.6 7.762c225 31.412 428.35 150.778 565.46 331.918 139.49 187.908 198.79 423.457 164.9 655.017-35.13 242.55-180 465.23-380.48 604.02-10.65 7.37-21.72 14.35-32.06 22.07-1.29-21.92-.84-42.46-1.85-63.97 18.43-10.45 42.42-31.63 59.13-44.94 93.18-74.24 163.18-162.18 218.71-267.59a850.05 850.05 0 0 0 91.49-323.6c5.91-71.834-1.3-149.516-15.07-220.169-31.38-161.01-108.97-304.022-227.36-418.381a812 812 0 0 0-359.47-202.658 839.3 839.3 0 0 0-146.51-23.333c-210.38-14.758-418.236 53.003-579.496 188.916-.701-13.205-2.558-48.484-7.281-60.21 16.49-15.46 50.249-37.6 70.006-50.457a854.6 854.6 0 0 1 367.759-130.086c27.373-3.069 52.675-3.989 80.148-5.063"/><path fill="#fefefe" d="M939.673 209.401c1.719-.37 8.302-.494 10.428-.581-.57 34.294.661 76.168 1.694 110.584a4344 4344 0 0 0 7.384 166.684c-20.951.201-52.077 6.867-72.664 11.825a529.85 529.85 0 0 0-223.274 115.505c-18.187 15.825-33.288 31.685-50.107 48.948-13.391-22.689-28.31-52.125-40.67-75.783-30.723-54.743-58.347-117.016-98.909-164.922.454-4.983 2.113-12.935 3.054-18.066a813.64 813.64 0 0 1 375.933-183.17c29.211-5.58 57.592-8.086 87.131-11.024m59.969 297.352c257.268.797 474.628 209.273 477.708 468.499.22 18.249.82 37.208-1.56 55.348l-1.64 1.11-4.7-.91c-69.4-10.52-129.67-22.43-194.14-51.93-14.1-6.449-28.34-11.326-42.21-18.848.37-23.845.78-42.893-2.4-66.645-2.62-19.659-6.74-38.411-9.13-57.987 9.64-15.082 10.88-49.692 8.67-66.998-6.11-48.028-34.86-82.71-72.2-111.265-32.34-24.735-73.31-44.275-114.78-44.604-9.76-.078-25.48 2.645-35.77 3.895-1.81-12.248-2.3-28.218-3.19-40.923a4617 4617 0 0 1-4.658-68.742"/><path fill="#fefefe" d="M1067.48 681.408c7.58 4.708 16.04 13.93 23.76 19.61 16.43 12.077 45.58 17.795 59.79 32.304 18.38 18.76 35.74 48.802 45.8 73.094 6.83 16.52 7.08 35.775 9.04 53.214 5.46 42.905 15.86 95.898-4.01 136.302-12.58 26.668-40.32 54.348-69.5 62.808-54.01 15.66-116.96 3.02-165.871-21.49-22.65-13.7-37.98-27.98-53.506-49.577-7.533-10.743-13.322-21.751-19.752-33.24-5.407-9.664-11.277-31.272-26.378-27.196-8.92 2.409-14.671 11.55-19.104 19.118-12.77-.244-55.542-63.008.725-73.993 6.314 1.778 30.12 10.455 32.232 7.636 11.726-15.651 31.692-49.175 43.655-65.048 24.446-33.87 55.383-58.683 88.499-83.487 19.21-14.396 46.54-26.852 54.62-50.055"/><path d="M1095.41 823.912c3.65.071 3.51.019 6.96 1.171 6.1 5.56 7 21.363 9.61 29.597 5.28 16.644 14.26 34.789 15.26 52.345 1.27 22.248-14.07 26.551-32.49 27.131-6.3-.104-13.59-1.07-12.11-9.38 5-6.198 17.6-7.81 25.8-9.739-.51-4.953-1.09-9.541-1.89-14.456-3.37-20.872-21.39-56.558-11.14-76.669m3.1 140.624c9.85-.913 28.61-1.365 36.05 5.377 1.21 3.081 1.16 1.554.09 4.737-8.65 8.634-28.72 7.333-40.4 7.33-10.02.679-33.88 2.321-38.99-8.079-.1-4.252-.71-3.732 1.03-6.974 7.12-3.483 31.91-2.233 42.22-2.391m-96.62-124.317c9.62-2.058 19.09 4.048 21.18 13.656s-3.98 19.099-13.58 21.227c-9.651 2.138-19.201-3.972-21.305-13.629s4.041-19.186 13.705-21.254m150.9-4.058c24.55-2.251 31.31 23.791 9.31 35.193-4.28.738-6.38.974-10.32-1.293a23.37 23.37 0 0 1-10.82-14.344c-2.57-9.809 1.64-17.594 11.83-19.556m-154.769-20.865c6.669-.513 33.509-.877 37.339 4.949 11.87 18.09-23.66 7.569-34.72 7.804-12.019 1.465-22.574 5.161-34.157 6.337-1.664.169-1.816-.81-3.239-2.538.313-9.507 26.928-15.167 34.777-16.552m-154.668 73.613c26.6 4.168 27.971 36.953 13.518 35.902-4.153-2.903-4.458-5.929-5.476-10.758l-.257-1.264c-.891-4.128-1.797-10.701-6.998-10.889-3.766 5.095-.821 13.881-6.307 16.652-6.124-2.544-8.604-9.755-6.338-15.955 2.959-8.099 4.293-9.967 11.858-13.688m313.537-76.516c9.59.187 17.81.99 26.53 5.347 4.36 2.174 10.57 7.96 6.48 12.854-2.11.14-15.87-3.597-19.93-4.378-15.34-3.284-21.41 3.174-35.35.532-2.15-.407-2.27-1.435-2.86-2.76 3.79-9.065 16.63-10.629 25.13-11.595"/><path fill="#fefefe" d="M331.521 453.578c2.714 1.865 9.342 11.223 11.778 14.437-11.647 18.522-7.147 38.42-.372 57.446a872 872 0 0 0-80.657 146.728C180.067 861.682 171.5 1093.6 248.11 1286.3a844.96 844.96 0 0 0 376.231 432.81c32.282 17.98 61.905 30.71 95.705 45.23-2.487 17.69-2.597 34.59-5.571 53.9-8.333-2.52-14.099-4.97-22.166-8.4a880.4 880.4 0 0 1-208.506-120.31c-186.028-147.23-309.311-355.87-336.504-592.8-26.615-230.357 39.685-461.82 184.222-643.152m624.031 53.717c2.326-.498 1.472-.401 3.904-.052 1.868 3.227 8.094 94.333 9.514 107.149a241.2 241.2 0 0 0-55.978 13.748c-110.589 42.659-131.856 127.84-90.682 232.847-44.466 30.465-16.813 83.951 20.174 105.704-16.754.559-37.711 1.348-54.707 2.621-1.183.089-2.44 3.159-3.291 4.665l-1.594.398a935 935 0 0 1-33.037-49.816 2728 2728 0 0 1-96.502-182.71c-9.477-19.416-21.077-39.333-29.367-59.122 80.091-87.798 178.338-148.906 296.363-169.443a4309 4309 0 0 1 35.203-5.989m267.138 490.134c11.67 3.681 24.47 10.281 35.89 15.171 14.98 6.41 29.83 11.95 45.05 17.62 55.19 20.57 111.18 28.27 169 37.19-11.25 66.38-26.25 115.4-58.62 175.09a673 673 0 0 1-34.52 56.94c-5.78-8.65-10.9-18.36-17.81-26.48-27.68-32.55-96.82-94.57-134.36-111.17-6-48.18-1.95-102.43-5.18-151.09-.31-4.66-.35-8.67.55-13.271m-267.318 56.901a264.48 264.48 0 0 0 187.958 23.14c4.05 27.28 6.44 43.63 21.84 66.39-5.14 23.71-8.26 36.09-25.72 53.18-45.25 34.26-149.189 6.88-181.239-36.38-17.985-24.27-21.494-34.92-19.352-64.19 10.407-12.78 15.323-25.7 16.513-42.14m397.048 241.42c13.79 10.05 36.79 79 39.32 97.78.64 4.76 3.08 12.9 3.64 17.58 19.88 167.72 23.2 339.21 22.24 508.04.46 2.86.3 2.73.15 5.7l-3.44 1.67c-7.04-1.9-6.57-34.32-7.08-40.88l-7.63-102.9c-7.31-103.23-16.05-206.36-26.2-309.35-4.24-39-8.77-77.97-13.58-116.91-2.56-20.54-6.03-40.03-7.42-60.73m-788.813-225.34c6.468.65 16.622 44.26 20.392 53.56 17.992 44.41 67.745 178.71 102.26 206.91 2.077 7.55 4.259 23.06 5.941 31.68l-14.123-13.44c-13.41-14.49-28.584-30.56-40.571-46.01-48.644-62.72-88.589-152.45-102.382-230.66 9.377-1.08 19.029-1.44 28.483-2.04M451.904 328.833c5.851 22.131 5.426 60.595 1.327 84.063-.785 4.497-10.591 3.992-16.16 5.154-21.092 4.402-41.134 11.891-59.618 23.046-5.827 3.516-12.893 8.551-18.557 11.469l-1.748-.996c-4.041-5.058-7.691-10.585-11.374-15.927 33.787-41.394 66.174-71.403 106.13-106.809M853.37 1004.27c2.368.91 1.177 13.02 1.916 16.48 1.431 6.68 7.937 15.57 11.766 21.52-4.901 12.21-3.104 20.83-1.972 33.51l-12.426-18.62c-6.253-8.95-14.904-18.38-21.627-27.31-5.163-6.87-9.819-14.3-15.728-20.23 13.886-.6 24.477-2.41 38.071-5.35m-328.239-31.588c-.273-.279 29.467 61.498 29.272 59.998-10.77-.21-15.669.49-26.037 2.81-2.392-19.06-3.89-43.726-3.235-62.808m652.279 86.248 1.06.17c1.47 3.74 4.99 67.13 5.93 76.84-2.11-4.25-3.19-5.68-6.06-9.5-8.78-11.18-10.56-43.54-15.92-59.38 5.24-2.44 9.98-5.26 14.99-8.13m-258.786-36.52c3.059 2.37 9.801 10.19 12.735 13.44 1.019 14.38 2.162 28.23-6.425 40.26l-1.053 1.14c-1.721-.9-7.228-19.43-8.526-23.14 3.664-13.8 3.659-17.19 3.269-31.7m-46.826-20.22c26.84 10.67 23.653 10.91 24.928 39.52-14.607-6.06-22.676-24.82-24.928-39.52m10.805 51.66c17.804 11.97 20.076 19.52 20.424 40.49-2.216-.17-5.124-.21-6.818-1.62-8.358-6.99-12.739-28.96-13.606-38.87m11.02 59c14.556 9.45 20.698 26.31 18.864 43.07-13.381-7.97-19.857-28.35-18.864-43.07m11.316 58.77c14.34 7.28 16.288 18.07 13.119 33.06l-1.179.79c-10.485-2.4-11.781-24.85-11.94-33.85m7.518 51.58 11.342 6.45c1.946 8.88 3.026 14.91 4.096 23.93-13.983-3.94-14.982-18.58-15.438-30.38m9.047 46.48c11.546 3.93 17.16 20.35 13.736 30.86-11.63-6.36-12.858-19-13.736-30.86M870.07 946.625c3.931 3.112 15.056 35.956 15.084 41.662-9.832-5.213-18.07-31.455-15.084-41.662m61.993 400.035c10.316 5.45 8.527 10.4 2.739 18.9l-1.141 1.07c-3.727-3.75-2.561-15.15-1.598-19.97m270.407-269.9c3.21 4.47 1.38 23.99-1.09 29.13-5.03-6.63-2.43-21.86 1.09-29.13m.92 45.67 1.78 1.55c.97 6.06 1.29 17.33 1.02 23.56-6.85-6.23-8.5-17.83-2.8-25.11m-1.8-87.63.97 1.3c.52 6.7.53 15.8-1.65 22.17-6.43-4.28-2.13-17.87.68-23.47"/></svg>