<svg xmlns="http://www.w3.org/2000/svg" preserveAspectRatio="xMidYMid meet" viewBox="0 0 2048 1462"><path d="m1206.82 61.582 1.82.27c2.08 1.452 3.02 3.26 3.92 5.6 17.99 46.917 29.49 96.795 48.54 143.264 11.43-9.46 20.88-21.819 31.71-31.43 31.48-27.931 64.57-68.294 98.81-91.98 3.64 14.181 4.34 27.366 6.97 41.463 6.3 33.818 9.93 73.804 19.34 106.428 12.76-3.122 19.18-11.503 28.45-17.277 15.92-9.913 106.79-75.425 117.87-74.399 9.03 11.53-30.13 141.437-25.49 149.521 7.9.533 25.46-8.503 32.74-10.487 19.18-5.226 111.74-43.67 123.55-41.32.48.608 1.1 1.127 1.43 1.825 2.57 5.374-36.19 109.499-41.43 125.749-2.48 7.718-6.83 17.248-6.9 25.295 7.01 6.819 114.95-14.488 132.04-5.47 18.73 20.603-63.65 108.47-76.97 126.091 15.84-1.791 34.35-2.289 50.24-2.297 39.67-.02 129.28-9.536 110.35 57.027-4.78 17.234-18.07 39.503-31.49 51.891-17.29 15.973-27.39 23.873-40.96 44.023 34.77 24.098 142.17 35.697 133.97 96.958-3.6 26.9-33.52 42.785-51.55 59.191-7.81 9.724-17.12 19.88-25.05 29.104-10.48 12.182-58.26 49.093-62.85 60.872 3.29 5.241 81.32 18.65 93.3 23.915 6.85 3.006 28.57 2.579 30.26 16.632 3.97 32.902-43.61 58.259-63.69 78.299-14.97 15.23-37.13 33.11-46.81 49.53 8.22 4.32 18.4 6.81 27.18 10.09 21.01 7.83 41.94 16.06 63.24 23.08 10.49 3.46 22.59 5.96 32.41 10.84 3.85 1.91 6.71 4.47 9 8.11 6.63 10.55 7.99 23.55 5.1 35.52-8.89 36.81-119.22 116.16-154.22 137.13 1.48 24.49-25.66 32.39-43.57 23.64-28.9 18.23-122.7 31.8-158.77 32.78-10.04.27-31 1.19-38.28-6.66-4.86-5.26-1.92-8.86-1.84-15.81-8.39-1.54-39.3 1.5-49.93.45-8.42-.35-19.76-1.77-25.64-8.54-6.63-7.62-2.56-26.83-2.81-37.02-.34-13.28-.17-26.94.37-40.19.06-1.62 0-3.76-2.3-4.69-55.18-2.23-110.63-.12-165.88.39-21.53.19-42.95-1.14-64.47-.82-15.77.13-35.03-4.52-50.52-1.24-2.1.6-3.31 4.27-3 6.21 4.07 25.33 14.64 55.78 7.03 81.09-1.65 5.5-8.61 10.98-13.85 12.86-16.37 5.86-33.35-2.86-49.81-3.51-58.38 4.13-120.854 8.93-177.191-10.12-3.276-1.11-5.921-3.94-7.044-7.31.097-7.9 8.983-13.4 15.779-15.09 32.883-8.16 67.326-10.81 100.116-19.71 5.08-5.38 7.85-10.14 11.77-16.32-20.52-6.92-45.18-9.94-63.904-21.96-14.01-9-24.123-6.35-40.154-5.46-13.634-.9-30.179-.03-44.259-.23-59.111-.85-119.254 1.06-178.302 1.05-23.622-.03-47.243-.25-70.862-.65-13.774-.32-69.117-2.95-78.759-.28-5.627 6.26-.658 64.04-1.787 75.33l-.136 1.26c-4.738 7.57-9.149 15.43-18.513 17.8-12.944 3.27-195.863 2.69-212.356-1.25-22.496-5.37-65.326-28.63-85.359-40.94-25.82-15.86-70.021-50.54-88.266-75.22-5.888-7.97-10.485-17.31-12.691-26.99-9.366-41.13 41.784-76.58 70.499-98.3 12.386-9.37 26.069-17.85 34.465-31.27l.756-1.22c-5.857-15.33-21.925-21.51-35.111-29.88-22.767-14.42-54.21-29.83-66.709-54.661-21.358-42.431 51.287-68.61 59.382-89.209-1.976-6.466-7.618-5.869-12.967-8.969-16.086-9.841-34.918-15.577-51.122-24.781-31.327-17.794-.828-28.336 15.643-35.002 27.21-11.01 59.111-17.888 82.181-35.997-3.561-5.275-21.053-18.956-26.978-24.224-20.414-18.179-40.232-36.556-56.274-58.86-17.764-24.699-8.464-52.658 14.221-70.282 8.112-6.302 16.037-8.609 24.88-13.152 26.07-13.394 54.683-19.885 79.452-35.679-7.117-6.612-17.033-12.229-24.923-18.091-23.381-17.37-48.233-32.497-70.546-51.294-4.608-3.882-6.697-14.177-.238-15.708 15.396-3.674 32.137-.416 47.728-1.069 34.433-1.443 68.543-.668 102.955.228 2.671.07 5.586-.416 7.548-2.207-.624-15.879-103.587-116.349-103.565-132.644.003-2.439 1.189-5.241 3.036-6.854 2.349-2.053 5.199-2.347 8.201-2.346 18.771.006 38.068 4.091 56.541 6.975 43.707 6.822 87.491 15.856 131.627 19.404-3.562-11.569-9.559-22.078-14.184-33.451l-29.005-73.034c-3.498-8.684-7.088-17.271-11.134-25.715-.902-1.881-.13-3.576.439-5.432l2.664-1.983c23.804 4.57 151.744 65.747 166.155 63.816 7.309-13.649-10.67-145.519 1.01-154.183 6.615.942 18.325 7.416 24.9 10.391 21.073 9.537 40.29 20.135 60.354 31.413 15.445 8.681 34.637 20.868 50.269 28.385 7.315-11.935 15.418-34.927 21.341-48.14 14.818-33.05 27.358-66.746 43.192-99.391 4.183 3.056 8.481 6.912 12.411 10.331 31.986 27.835 63.834 55.604 96.937 82.125 13.211 10.584 25.475 22.134 39.364 31.96 7.04-11.526 83.063-133.21 87.563-135.545 13.68 5.828 73.86 103.487 90.87 121.174l.87.899c29-35.527 73.69-92.85 105.66-124.436"/><path fill="#fefefe" d="M1007.78 77.594c3.89 2.589 7.38 9.237 9.95 13.252 16.65 26.013 34.92 50.854 52.11 76.494 10.21 15.238 19.08 31.829 30.63 46.089 11.55-9.837 18.19-19.186 27.6-30.96a1432 1432 0 0 0 41.23-53.831c8.47-11.392 19.43-26.867 28.7-37.216 6.26 13.735 11.17 31.333 16.79 45.573a4401 4401 0 0 1 21.68 56.08c4 10.574 11.98 36.218 17.67 44.686 7.17-1.569 36.4-24.94 44.86-31.165l70.43-50.918c11.97 32.938 18.21 73.926 28.44 107.995 2 6.676 1.71 15.92 10.11 15.139 14.21-1.321 101.22-44.043 109.74-41.354 7 13.78-18.31 86.066-6.17 96.643 9.37 1.278 38.91-6.781 50.61-8.697a2371 2371 0 0 1 86.99-12.39c-4.37 17.594-34.75 98.974-28.5 113.08 11.25 10.428 122.72-15.528 130.84-7.663-2.63 6.065-51.56 72.002-54.48 72.141-19.8.943-51.08 1.119-71.41-1.431-2.26-.284-12.46-27.85-14.51-31.152-26.78-54.997-68.79-90.088-125-112.46-37.46-14.907-72.35-16.506-112.1-20.433-17.85-1.778-41.48-7.007-58.79-7.482-43.33-1.189-85.89-8.389-128.44-12.107a1402 1402 0 0 0-172.41-3.132c-26.277 1.361-44.375.765-69.295 11.04-8.472-6.021-20.459-19.341-29.29-26.862-28.542-24.31-56.467-40.23-93.119-47.901-45.233-9.467-115.214 9.189-152.053 34.745-19.303 13.263-40.826 34.183-50.222 55.682a82.08 82.08 0 0 0-1.003 63.894c15.86 40.218 54.794 43.805 90.608 29.219 29.878 43.585 44.333 59.642 100.666 61.074-18.138 25.453-33.652 51.952-53.989 75.34l-.085-1.64c-.372-6.607.146-8.603-4.696-12.948-9.302-1.372-8.421 26.854-8.863 33.151-3.446 4.93-76.443 82.42-75.519 82.128-.537-.453-1.373-.699-1.613-1.36-.919-2.535.589-20.525.486-25.05-.242-10.71-4.678-86.217-7.21-89.851-1.156-1.659-1.762-1.593-3.611-1.879-3.945 1.652-6.726 3.929-7.083 8.52-3.216 41.296.368 83.811-1.135 124.99-10.337-8.383-72.224-79.549-74.837-88.458-1.917-6.534-.872-13.825-.767-20.561.288-18.6 2.53-51.794-2.271-68.726a41.35 41.35 0 0 0-9.039-16.116c-24.619-27.565-83.161-14.973-116.551-16.762-2.861-.153-13.436-7.999-15.24-9.92-13.515-14.387-36.392-30.187-47.973-45.217 22.218-3.929 45.33-4.371 67.809-5.776 8.62-.539 22.338-.402 30.239-3.232 4.72-4.834 3.101-9.211.348-14.916-17.84-36.963-34.391-75.667-52.641-112.308 52.152 8.223 101.945 28.752 151.328 46.065 2.022.709 4.531-1.255 5.917-2.472.298-5.705.184-10.762.029-16.445-1.222-44.794-3.546-89.34-3.32-134.18 25.622 7.823 70.87 35.139 95.724 48.489 11.806 6.341 23.084 13.921 35.942 18.762 7.008-6.586 19.992-43.963 24.537-55.271a2946 2946 0 0 1 38.78-93.603c17.287 17.708 131.695 118.583 147.096 125.407 6.682-2.393 21.829-29.661 26.49-37.37 19.202-31.766 39.046-63.077 58.856-94.463"/><path fill="#fefefe" d="M1033.17 313.53c112.84-2.163 227.36 16.414 339.55 27.428 23.19 2.277 48.97 4.146 71.57 9.207-12.22 10.978-23.5 22.341-35.13 33.909-52.96 52.711-106.79 104.752-159.96 157.225l-37.66 36.59c-16.4 16.169-26.93 27.582-45 42.382-29.1-10.243-56.73-23.892-85.11-35.029-28.61-11.229-54.83-16.937-83.682-29.927 11.922-9.986 70.342-60.612 70.902-71.255l-1.38-.794c-15.25 2.875-107.604 89.397-123.957 105.356-17.204 14.523-35.389 35.13-52.259 50.394-64.097 57.992-125.58 118.894-190.846 175.584-21.482 18.659-39.426 36.525-61.961 54.448-11.826-14.955-31.176-43.994-41.809-59.985 5.065-9.543 25.89-35.903 33.546-46.26a7247 7247 0 0 0 66.497-91.427l131.066-185.987c12.138-17.389 23.852-36.296 36.261-53.301 21.826-29.431 45.08-58.046 69.153-85.671 4.504-5.169 19.762-26.009 24.951-27.064 24.044-4.89 50.738-5.526 75.258-5.823"/><path fill="#fefefe" d="M700.33 832.706q1.073.789 2.083 1.656c5.148 4.393 42.497 45.499 42.899 52.05 1.139 18.565.7 40.944 1.215 59.592l4.593 181.206c-4.59 10.08-50.507 53.23-60.669 63.1-5.525 5.95-9.521 10.49-14.59 16.86.482-11.12-.912-24.71-1.347-36.24l-3.773-81.98c-1.165-21.21-2.35-41.49-3.908-62.75-.917-12.51.623-25.24-.74-38.971-2.511-25.285-3.497-51.397-4.598-76.792-.536-12.356-1.778-31.516-.853-43.401 13.657-10.967 25.813-23.856 39.688-34.33m-57.039 49.291 1.201-.292c.788 2.244 3.056 91.492 3.421 101.905l7.485 184.44c.552 14.21 4.342 52.23 1.56 64.15-3.705 1.5-34.502.61-39.95.3-11.125-1.37-21.615.08-33.016-.77-1.08-2.87-1.557-30.72-1.658-35.6-.92-44.35-1.767-88.85-1.622-133.21.136-41.75-4.493-91.621-1.66-132.564 15.55-12.576 31.024-25.139 45.593-38.847 3.248-3.056 6.479-6.136 10.047-8.819 3.465.13 5.24.139 8.599-.693m657.529-37.095c5.42 7.98-9.93 323.358-7.35 358.478.12 1.56-.29 8.25-1.38 9.38-2.54-2.15-8.7-10.21-11.46-13.37a623 623 0 0 0-21.8-23.58c-10.31-9.96-35.96-37.82-44.53-48.77.77-7.48 2.26-80.66 1.14-83.86-.69-1.98-.89-2.82-.63-4.91 1.32-10.44 1.08-20.77 1.29-31.27.52-24.912.02-49.726.83-74.624 9.88-15.235 25.74-29.876 38.59-42.935 14.58-14.827 29.81-30.779 45.3-44.539M937.237 611.721l1.515 1.416c-.238 13.872-2.159 28.092-2.634 41.815l-5.891 170.858c-1.043 29.549-.074 59.585-1.45 89.056-.365 7.802-8.065 22.36-10.741 30.439-2.809 8.482-5.724 17.094-8.411 25.701-8.977-9.412-16.98-18.807-26.215-28.201-10-13.02-19.648-21.91-29.404-35.951 1.715-11.813 1.192-28.553 1.749-40.838 1.597-35.199.415-70.734.746-105.983.138-14.702 3.513-57.537.83-70.53 6.716-8.259 18.204-18.006 26.175-25.741zM399.056 1139.06c6.336.9 13.046 1.43 16.53 6.84 1.652 8.2 1.13 23.3 1.444 32.19.604 17.09 3.986 38.5-.987 54.81-4.039 1.6-12.063 5.03-16.208 5.29-16.223 1.05-34.013-1.12-49.953-.64-34.101 1.03-67.641 1.74-101.761 1.14-12.853-.22-23.499.65-36.785-.08-20.104-19.06-33.476-41.43-18.115-67.86 5.62-9.66 16.4-23.42 25.338-30.18 15.683 1.99 43.802.2 60.387.24l73.363.11c10.743.1 38.64 2.25 46.747-1.86m586.773-572.326c1.275.248 15.531 6.801 18.491 8.038a517 517 0 0 0 31.06 11.541c-4.94 48.133-7.43 96.357-10.64 144.617-1.27 19.086-3.73 37.974-2.46 57.155-5.9 9.922-13.37 17.971-20 27.223-14.02 19.562-28.653 38.913-43.304 58.03-2.174 3.039-10.037 15.665-11.649 16.509-.176-2.528.618-4.667.426-7.279-1.748-16.041.545-30.925.475-46.844-.08-18.175-2.9-34.269 1.564-52.526.333-1.363-3.442-8.6-2.818-9.215 3.572-3.773 2.58-11.564 2.642-17.274.157-23.793 2.272-47.651 1.197-71.415-.355-7.857 5.407-18.285-.225-24.244.005-3.176 2.798-5.52 2.743-8.19-.382-18.728.256-36.964 1.235-55.666 5.646-9.064 22.535-22.536 31.263-30.46m758.201 244.837c.72-.004 3.72.6 4.45.769 10.93 2.515 34.68-3.145 43.94 2.137 1.35 1.485 2.68 3.135 2.68 5.241 0 15.38-1.67 31.401 1.11 46.699l.25 1.29c-7.77 9.866-22.27 27.11-32.19 33.736-12.23-2.105-44.67.089-59.51.165l-48-.034c-7.32-.009-19.72-.412-26.56.409-9.42-.575-55.67 1.06-59.47-1.592 6.58-22.638 14.31-69.353 22.23-88.14 17.8 1.666 42.27.224 60.53.238 29.75.022 60.8.149 90.54-.918M443.579 1028.54c4.849 3.57 72.361-.79 83.903.32 11.41 1.09 13.475 9.54 13.05 18.98-.978 21.76 2.262 48.17-.929 69.38-7.398 7.62-29.798 4.85-40.928 5.52-19.339 1.16-39.526 1.27-58.922 1.18-2.986.03-5.868-.59-8.822-.55-19.016.3-59.951 5.04-76.86.46-2.187-.59-3.355-.7-4.383-2.89-3.744-7.96-4.902-78.4-1.392-87.62.233-.62.992-2.1 1.53-2.47 5.907-4.09 83.097 2.42 92.963-1.92.268-.12.526-.26.79-.39m-192.877-98.223c1.194-.222.287-.109 1.614-.107 37.014.063 74.18-.049 111.182-.198 9.523-.038 36.817-.595 45.152 1.006 6.184 7.755 4.999 27.081 4.678 35.607-1.289 34.275 11.012 50.065-32.171 47.565-13.425-.77-27.087 2.91-38.76 1.13l-1.016 1.19c-4.476-1.2-6.082-.19-10.794-.19-33.114.06-67.546.29-100.528.1-7.95-3.26-22.364-16.16-28.28-21.3-27.328-23.758-4.679-45.817 14.344-64.632 8.665.369 26.948 1.782 34.579-.171m125.703-334.548.836-.285c10.125 3.737 54.48-.5 68.808.294 15.289-.214 31.811.247 46.978.333 6.33.036 40.433-3.55 41.351 2.584 1.976 13.201 5.945 68.702 1.909 79.492-7.731 5.446-40.771 5.076-50.968 4.672-30.987.459-61.681 4.789-92.751 4.2-15.078-.286-31.396.465-46.314 2.125-2.516-1.905-4.04-3.242-6.341-5.405-1.917-6.305-6.893-77.296-6.19-86.128 2.391-2.772 34.668-1.16 41.815-1.797zM238.213 700.572c12.434 1.698 31.64-.599 44.573-.212 36.392 1.054 73.515-.163 109.792 1.61 11.098.542 17.548 4.19 17.433 15.135-.113 10.805 1.024 23.353.581 34.038-.436 10.536 2.654 28.231 1.186 37.82a12 12 0 0 1-3.103 6.481c-6.608 6.984-27.59 5.881-37.425 6.216-23.639-.046-48.445 2.724-72.248 2.56-9.606-.066-20.835-.098-30.259.718 32.459-20.438-.634-33.539-18.815-49.427a593 593 0 0 1-53.7-54.488c12.706 1.196 29.178.526 41.985-.451M1338.38 808.626c.47.627.93 1.255 1.4 1.883-.94 6.719-1.74 16.851-2.29 23.353l-13.71 146.871c-3.64 40.847 7.17 62.737 28.38 96.447 14.65 23.29 28.02 33.62 44.99 53.86-3.47 18.29-1.74 95.16-6.31 103.02-7.8 1.62-14.54 1.16-22.53 1.31-11.13-1.85-48.23 2.61-58.97-.9-3.06-8.08 2.65-116.39 3.09-133.08l3.11-154.151 1.65-86.654c.16-10.646-1.9-24.12.5-32.844 8.1-6.734 13.65-11.308 20.69-19.115m-933.884 6.927c40.581-.227 82.732-.117 123.299 1.71 3.613.163 8.048 1.091 11.514 2.179 1.605 3.852 2.147 8.522.592 12.472-6.009 3.003-15.898-2.076-21.944 7.446-2.778 12.894 18.805 23.701 21.282 28.289-17.064 7.426-54.056 9.13-64.3 23.774-2.802 6.961-.776 7.224.536 14.547-.82 2.746-1.863 3.87-3.963 5.813-3.706 3.429-99.613 2.608-112.327 1.966-2.815-.142-10.578-.133-12.378-2.458-5.423-7.005-4.644-81.84-2.91-93.638 3.96-2.706 49.645-1.082 59.273-1.971zM1764.53 1130.54c.34-.09 8.83 1.16 10.46 1.19 41.99.8 84.86-1.24 126.64 3.3 6.55.71 14.72 2.8 16.66 8.36 6.73 19.25-41.83 70.87-53.6 75.32-4-1.67-76.78.18-87.16.27-55.92.49-29.77 5.86-58.57-29.98l-.87-1.06c-1.31-12.79-1.85-39.65 1.98-51.8 1.67-5.31 37.07-3.45 44.46-5.6m-29.11-425.543c36.24.33 75.33 2.893 111.82 1.83 11.29-.329 47.9 21.942 55.09 32.545 17.1 25.243-6.86 43.269-25.75 55.884-12.63 7.324-51.48 1.696-67.59 2.523-11.71.601-26.24.236-38.22.425-11.32.179-33.88.413-43.01-5.827-4.29-8.453-2.83-38.042-2.78-48.239.08-15.412-4.23-30.035 10.44-39.141m-52.21 208.622c6.12.715 17.42.599 24.49 1.104-5.08 25.412.78 65.134-5.88 91.437-.41 1.63-3.22 5.37-4.35 6.86-32.17.86-63.93 2.16-96.17.41-7.9-.43-22.92 1.98-29.5-.03-8.73-10.11-16.46-19.232-24.52-29.884l19.81-69.844c33.02 1.706 82.79 1.454 116.12-.053m-97.29 114.061c7.33-.74 16.09-.03 23.65.13l46.41.8 81.38.93c15.34.23 30.71-.76 46 1.17 4.5.16 3.94 7.84 4 10.94.21 10.09-1.48 20.02-5.78 29.18-7.76 16.52-3.71 11.85 3.29 22.46.38 3.72.43 4.3-.39 7.93-1.01 5.8-.86 8.87-.76 14.79-30.01.92-60.04 1.1-90.06.55-7.91-.17-24.93-.04-31.84-1.36-12.67-9.01-27.44-31.07-38.38-43.91-9.01-10.56-32.83-32.83-37.52-43.61m136.55-113.994c9.49 2.364 29.9-1.708 39.43 2.755.57.267 8.34 8.22 11.33 9.036 19.86 5.409 41.42 9.451 61.29 14.332 20.06 4.928 35.68 11.018 56.53 13.734-6.72 18.31-18.77 24.886-32.26 39.838-7.34 6.999-14.94 17.279-24.12 21.679-5.96 2.86-101.77 1.92-112.61-1.68-5.04-10.6-1.83-86.01.41-99.694m-84.88-304.145c2.84 1.525 7.83.872 11.17 1.012 40.94 1.718 81.46 2.444 122.42 1.478 2.61-.061 4.53.506 6.67 1.965 8.61 11.412-10.75 41.121-9.31 53.801 1.56 13.671 19.22 13.089 29.99 22.821-11.77-.73-24.26.529-36.02.094-19.03-.705-37.22-1.266-56.33-.551-14.02.524-29.56-2.705-43.69-2.564-12.77.128-25.01 1.287-37.85.504.14-5.369 3.37-22.153 4.49-28.455 3.11-16.651 5.93-33.356 8.46-50.105M445.155 702.469c10.179 2.034 24.465 1.054 35.123.925q18.541-.083 37.082.103c10.751.093 22.439-2.736 22.323 12.366-.124 16.086 5.87 66.827-.481 79.059-1.929 1.18-14.163.802-17.453.874-12.633-.216-85.537 4.874-92.153-1.298-3.214-2.998-4.04-12.852-4.321-17.026-.696-10.329-1.811-67.532 2.526-71.793 4.064-3.993 12.079-3.102 17.354-3.21M271.572 816.566c1.955-.213 7.138.304 9.341.456 8.546.591 42.452-2.99 47.689 2.186.773 4.483.973 14.054.492 18.495-2.043 18.871 3.598 58.947-2.972 75.413-5.92 4.152-77.189 6.018-87.604 5.252-2.764.659-2.777.57-5.666.362l-.545-1.513c5.635-10.156 28.955-18.704 13.345-35.33-8.536-9.091-59.126-28.606-61.968-39.439 4.513-4.873 50.088-21.08 59.115-23.948 3.729-1.185 23.324-1.626 28.773-1.934m229.931 323.854c12.917.66 24.906.56 36.916 4.29 1.851 13.05 7.023 74.29.608 85.16-5.744 9.73-54.404 4.08-67.89 5.52l-1.151.13c-6.905-.91-19.153.73-26.67-1.93-2.61-.93-6.359-2.49-7.286-5.15-5.142-14.7-5.191-67.36-1.954-79.79 2.837-10.88 53.821-5.11 63.373-6.93-1.092.21 3.132-1.1 4.054-1.3M1620.51 702.823c29.76.137 59.51.613 89.26 1.428 3.02 26.846-.81 54.767.4 81.28-3.2 4.872-4.39 6.729-6.62 12.057l-20.3.919c-12.93 1.024-23.32.055-36.23.078-16.38.028-34.71 2.433-50.87.174 6.25-30.6 19-67.237 24.36-95.936m-857.566 201.64c2.615 2.085 5.715 6.448 7.987 9.19 21.924 26.457 45.07 51.751 67.018 78.197 1.901 15.73.281 40.33.036 56.51-10.542 11.03-23.003 21.47-34.063 32.28-4.381 4.83-30.203 30.01-34.619 33.27a7437 7437 0 0 0-3.927-139.147c-.533-19.184.471-53.243-2.432-70.3M508.033 495.49c2.071.769 17.956.297 26.376 2.447.382 10.053 4.326 67.963.876 72.723-1.568 2.163-3.3 4.215-5.983 4.948-5.055 1.38-11.465 1.041-16.759 1.288-21 .98-42.898-.625-63.657 2.373-16.664-2.065-17.444 2.044-25.832-15.2 3.527-12.518-2.192-56.472 1.89-64.305 10.357-5.615 63.669.191 81.944-4.003zm-118.903 1.153.494.315c4.907-1.58 12.672-1.228 16.435 2.683 2.557 8.605 1.979 60.34 2.029 72.373.007 1.627-1.666 6.271-2.37 8.057-19.26.765-38.065-.009-57.207 1.944-1.158.118-27.261-.246-25.796 1.059-6.608-5.886-28.867-21.193-35.756-26.247-17.869-12.039-38.394-25.224-55.66-37.773 42.998.189 92.709 2.253 135.012-3.119 5.81-.737 9.607-12.024 11.298-16.75 2.814-2.08 7.456-1.986 11.521-2.542m-71.374 99.281c2.132.031 1.386-.005 3.485.908 1.409 4.896 1.113 33.29 1.485 40.337.916 17.352 1.398 35.421 2.316 52.834l-86.634 2.937c-7.991.206-27.372-.378-33.743.287-1.057-.373-10.189.191-12.408.205l-.398-.623-1.778-2.849c-12.395-20.23 12.619-42.429 29.565-49.702 23.31-10.004 45.733-20.173 69.707-28.654 6.694-2.367 21.538-11.74 28.403-15.68M1476.27 1240.34c9.83-.25 20.13-.18 30.01-.26 11.32 7.27 21.14 15.8 32.38 23.34 18.02 12.07 43.95 16.68 65.39 18.86 9.92 1.01 31.25-.7 39.48.82 2.07 3.16 4.06 6.38 5.97 9.64-9.98 4.21-18.76 7.74-28.95 11.37-18.55 5.29-36.11 15.66-54.45 20.61-6.72.15-16.58-.06-23.05-.5-14.72-.98-56.63 5.03-68.07-3.14-1.19-7.92.65-26.14.56-34.82-.14-15.49-.1-30.42.73-45.92m-572.729-170.51c2.923 3.38 7.371 9.66 10.226 13.41 1.565 24.46-.382 56.56-.163 81.76.096 11.07.845 59.51-.864 68.43-4.876 1.38-33.833-.47-41.49-.31-4.785.12-14.462.95-18.497-.77-.214-1.11-.395-2.13-.478-3.25-1.002-13.64.594-103.31 5.085-110.68 6.245-10.25 17.241-18.25 25.729-26.6 7.155-7.03 13.838-14.45 20.452-21.99m-61.286-369.133c.865 2.2-4.28 177.704-5.877 181.83l-1.474.529c-9.374-7.798-21.715-25.92-31.191-35.553-11.942-11.938-37.134-40.006-45.539-53.824.473-5.91.273-7.897-.382-13.84 2.85-3.705 5.788-6.361 9.024-9.628 24.009-24.237 51.108-45.673 75.439-69.514m204.215-110.378c10.31 2.144 52.47 20.249 64.47 25.46 3.19 3.719-.07 57.685-2.15 64.065-4.66 14.261-31.49 41.466-41.59 53.564-9.22 11.926-18.68 23.358-27.26 35.767l-.69-.194c-.62-4.726.59-19.496.78-25.517.98-32.15 2.44-64.283 4.39-96.389.58-9.965 4.6-50.103 2.05-56.756"/><path fill="#fefefe" d="M1734.04 1237.61c5.01 2.38 18.56 28.24 23.63 35.94-20.61 20.56-28.9 8.39-22.86 45.91-27.32 13.48-127.41 29.31-158.56 29.46-12.29.51-14.35.84-26.34-2.15 21.7-17.22 108.21-40.47 115.89-49.41-.16-4.35-3.96-12.2-5.65-17.3 5.94-1.77 12.66-2.39 18.69-4.43 26.78-9.02 37.83-16.99 55.2-38.02M468.71 929.418c3.574-.22 1.956-.571 5.069.912 3.886 9.005 4.276 9.933 12.032 14.837 5.74-.409 12.148-1.197 17.935-1.774 7.555 12.769 18.811 9.467 31.359 6.954-.249 8.182 3.045 48.996-1.928 55.183-4.888 6.08-28.269 1.48-37.555 4.14-1.837.17-9.945-.07-13.102.01-15.202.39-31.07 2.72-46.088 1.7-2.847-.19-5.361-4.37-7.122-6.76-1.171-13.804-5.534-58.447 1.57-69.639 5.68-8.947 24.345-3.094 36.61-5.332zm1321.82-400.909.84-.267c14.53 1.393 37.36-1.54 49.04 8.494 17.01 14.604-3.82 44.124-14.19 56.768-6.04 7.375-13.84 4.661-22.3 5.13-5.78.32-11.95.287-17.79.449-3.8 1.463-20.87-.913-26.36-.428-8.32.735-19.09 1.71-26.09-3.482-4.67-7.038-1.14-51.706-.49-62.784 17.71-3.104 39.15-3.24 57.34-3.88m-162.54-27.368c14.21 2.255 47.96-1.986 63.43 2.401-.43 5.998-.34 19.041-.05 24.693.3 5.726 17.42 1.07 24.65 5.454 3 6.266-.53 19.893-.71 27.169-.24 9.4 2.61 21.402.26 30.274q-.735.784-1.5 1.543c-1.93 1.906-5.57 4.761-8.2 5.033-20.98 2.173-46.9-.663-68.14-.606 1.55-29.027-2.23-67.948-9.74-95.961m-464.54 770.739 1.51.09c1.27 2.13 3.73 19.69 4.48 23.6-13.77 8.53-19.79 5.87-32.67 12.17-5.91 2.89-4.88 20.04-10.57 25.19-4.29 1.25-19.15 1.24-24.67 1.29-42.3.35-95.24 1.82-136.03-8.22-4.763-1.02-12.009-2.16-15.951-4.5 26.243-8.17 64.601-11.44 92.231-17.8 20.61-4.74 20.14-8.31 32.08-26.34 30.85 4.7 59.67 9.71 89.59-5.48M602.522 839.664c4.227 2.294 20.022 29.575 25.545 36.75-21.892 18.67-82.724 75.61-112.164 65.483l.429-1.149c6.474-4.156 29.483-9.955 31.471-14.69-8.153-8.094-42.962 11.21-61.812 7.815l-.773-1.174c10.719-9.791 54.413-12.552 62.128-22.815l-.419-1.686c-5.576-3.026-9.531-1.023-15.701.713-5.477 2.471-41.514 9.655-48.975 8.274l-.572-1.664c12.375-10.238 51.439-11.704 58.622-21.438l-.302-1.826c-9.878-4.287-47.325 11.725-55.942 5.104l-.027-2.562c7.706-7.871 71.584-17.337 75.56-27.127-3.178-9.004-34.772-15.35-29.754-24.976 15.24-4.131 42.131 11.432 53.698 13.305 5.549-.993 14.766-11.915 18.988-16.337m597.998 106.131.91 1.041c-.28 6.2.37 12.453.46 18.658.61 41.066-2.27 82.326-1.97 123.486.06 7.92.42 15.56-.46 23.45-9.71-10.32-18.29-20.94-28.46-31.04-10.87-10.98-22.37-23.16-32.07-35.21-7.2-8.96-7.13-17.86-7.6-28.76 21.86-23.124 46.68-49.863 69.19-71.625M770.528 389.083c17.739 22.459 44.083 33.887 72.36 25.86 10.391-2.95 17.845-8.412 26.532-14.466-3.972 7.539-13.298 19.455-18.597 26.716a2579 2579 0 0 0-26.17 36.83l-1.882 2.875c-6.266 4.113-25.476 5.274-32.675 4.011-38.909-6.829-50.508-26.941-71.488-53.79 11.052-7.584 40.283-23.196 51.92-28.036M288.197 1028.75c10.963 2.97 29.939-1.32 39.82 1.87 3.67 3.38 5.98 12.52 5.818 16.72-.51 13.12 4.397 68.26-3.144 75.78-4.888 4.88-63.693 2.67-72.705 2.39-10.552 2.48-13.855 1.68-24.766-.18 15.278-11.17 55.605-38.23 55.866-59.09.239-19.16-27.119-26.37-37.833-37.47 7.962.54 29.755 2.32 36.944-.02m548.401 109.98c1.966 6.68 1.699 87.09-.253 94.24-6.352 1.49-11.304.05-16.804.46-10.968.83-34.176-.79-43.365.89l-1.273.24c-5.19-.2-10.272-.21-15.348-1.28-.458-1.29-1.587-6.1-.878-7.12 15.985-22.93 36.819-42.36 56.075-62.48 7.56-7.9 14.581-16.73 21.846-24.95m93.696-36.29c2.374 2.06 54.119 128.1 54.106 130.29-2.841 1.8-7.044 1.33-10.645 1.36-7.952.9-35.18.01-44.403-.03-1.948-27.25-.664-62.53.118-89.84.419-14.6-2.217-27 .824-41.78"/><path fill="#fefefe" d="M716.619 619.116c-.277 11.025-106.401 148.538-117.943 167.64-5.973 9.884-21.49 21.811-7.826 34.012 2.142 1.913 6.277 8.662 7.782 11.15-3.693 3.208-12.517 12.048-15.689 13.742l-2.483-1.241a232 232 0 0 1-2.586-1.829c-13.082-9.42-12.792-14.116-15.228-29.201 2.657-4.706 5.355-8.39 8.359-12.759 36.102-52.524 76.146-101.754 117.513-150.176 8.83-10.336 18.416-21.877 28.101-31.338m695.831 525.904c15.3 13.76 31.2 35.08 49.09 50.89-.57 10.65.36 22.87.13 33.66-.09 4.41.69 3.08-1.74 5.46-6.46.06-48.92 1.1-51.23-1.62-1.53-11.72 1.64-76.16 3.75-88.39M760.631 819.157c11.31 10.954 27.262 33.332 38.726 45.875 11.952 13.078 26.304 27.075 36.821 41.16 2.266 3.036 2.188 18.678 1.026 23.315-4.818-1.974-16.534-18.07-20.818-22.849l-36.671-40.696c-5.204-5.819-12.927-14.084-17.279-20.207-3.175-4.466-3.488-21.032-1.805-26.598m-8.836 323.123c1.805 3.83 1.515 14.64 1.544 19.32-5.732 8.84-23.584 24.46-31.691 32.94-11.375 11.89-23.826 24.17-35.362 36.01-1.852 1.9-5.891 1.43-8.723 1.42-.285-4.96-.248-9.5-.216-14.47 16.248-20.22 54.649-55.24 74.448-75.22M571.97 611.682c3.834 2.633 65.841 76.947 66.408 79.482.682 3.054-1.157 5.34-2.523 7.906-2.278 2.007-2.531 3.008-4.893 3.138-15.011-13.935-29.285-29.868-42.915-45.136-5.429-6.082-11.479-11.691-16.606-17.946.91-7.401.557-19.571.529-27.444m640.01 536.578c4.36 2.05 43.94 47.73 51.47 54.34 6.31 5.54 20.58 24.9 28.51 32.55-6.25-.2-12.51-.26-18.76-.16-8.81-10.27-57.66-57.28-59.31-63.88-.12-.45-.2-.91-.32-1.35-1.99-7.08-1.6-14.19-1.59-21.5m-373.468-88.55c.896 6.12.505 12.92.366 19.15-5.103 8.36-57.687 62.35-66.095 65.91l-2.294-17.48c22.689-23.04 45.643-43.53 68.023-67.58m-78.134-191.235c1.261.792 26.315 28.949 27.663 31.165 8.957 14.723 59.951 58.917 49.961 75.018-16.402-14.277-29.485-32.84-43.222-49.56-11.051-13.451-25.039-25.395-33.517-40.669-1.48-2.667-.731-12.094-.885-15.954m91.387 60.039c7.006 4.055 14.713 17.169 20.904 23.456 11.508 11.683 23.669 27.463 35.342 38.469 1.034 6.058 2.237 18.651 2.176 24.621-13.524-10.78-28.089-30.448-40.591-43.122-4.857-4.925-10.873-14.55-15.584-20.437-.527-7.365-1.507-15.574-2.247-22.987M574.973 697.523c2.076.607 30.912 30.417 32.273 33.395.211 7.099-10.964 16.602-16.976 26.086-5.724 6.117-8.039 9.782-12.583 16.673-2.013-25.484-1.006-50.382-2.714-76.154M1805.17 1232.34c10.69.75 36.87.84 47.81-.13-6.62 7.52-17.91 16.11-25.93 22.99-10.5 8.96-15.36 12.89-26.89 20.28-1.06-9.35-1.38-30.63.77-40.33.34-1.5 2.81-2.21 4.24-2.81m-665.33-162.8c1.65.91 54.85 60.77 59.04 65.78-.11 6.44-.11 12.88-.02 19.32-6.02-2.59-43.67-47.08-52.44-55.38zm608.99 164.94c7.85-.79 25.89-.32 33.97.25-.67 12.13-.41 21.01-.1 33.02.2 7.64-2.71 4.34-.48 15.96-.96 1.43-1.57 1.91-2.82 3.11-2.61-1.07-31.54-47.8-32.2-51.32zm70.64-422.677c6.35-.368 29.54-.777 33.56 2.805-.48 4.366-18.26 19.153-23.35 24.403-5.08 5.403-12.9 12.008-18.57 17.077-.54-10.72-1.62-26.982.84-37.386.88-3.687 4.27-5.115 7.52-6.899M853.318 979.435c6.075 4.185 25.671 30.885 32.386 38.185 10.358 11.27 23.734 28.14 32.724 40.84.837 1.18 3.324 13.64 3.834 16.15-18.818-24.44-50.256-53.03-67.707-80.243-.716-1.117-1.117-12.513-1.237-14.932M573.983 663.498c5.837 3.776 39.586 40.514 47.333 48.661.214 2.409-2.065 5.275-3.44 7.504l-2.486 2.255c-5.343-.423-34.26-32.181-40.126-38.008-.724-7.37-1.184-12.931-1.281-20.412m587.687 493.262c1.75 1.44 19.97 20.74 21.92 22.94 15.08 17.06 38.13 38.12 51.8 55.49-2.82.05-8.44.38-10.42-1.27-11.68-9.76-23.22-24.01-33.53-35.18a504 504 0 0 0-26.04-25.83c-1.56-5.78-2.63-10.27-3.73-16.15m601.14 128.12 1.72.49c2.65 5.52 9.52 24.46 5.41 30.26-2.91 4.11-14.95 4.31-20.03 4.58-5.55-2.07-6.6-16.59-7.53-22.15 7.23-5.12 12.8-8.65 20.43-13.18m-594.93-93.3c4.68 3.02 35.5 37.22 38.35 42.29-9.06.13-23.5.6-31.97-1.41-2.23-13.61-4.36-27.24-6.38-40.88m-3.14 118.74c1.36-.54 2.99-.19 4.62-.07 4.59 6.37 2.31 19.84-3.2 24.96-4.52 4.19-8.8 3.49-14.43 3.43l-12.48-2.24c.7-4.09 1.53-7.69 2.54-11.68 3.13-12.32 14.87-9.63 22.95-14.4M716.597 817.741c7.838 8.02 15.216 18.328 23.062 26.44 4.339 4.486 9.293 17.789 4.507 22.119l-2.362-1.905c-11.719-13.032-22.86-25.515-34.837-38.362 3.616-2.507 6.425-5.295 9.63-8.292m411.163-196.503a180 180 0 0 1 23.89 10.531c-5.51 6.599-11.92 13.563-17.66 20.056-2.38 2.995-4.72 6.73-8.05 8.167l-.71-.743c-.49-9.157-.15-29.575 2.53-38.011m546.14 509.912c10.37.47 19.27.96 29.57 2.12-1.02 11.96.5 21.96-.12 33.03l-1.73-.25c-4.57-4.82-24.88-29.45-27.72-34.9m-818.241-115.58c4.653 3.38 14.504 18.65 19.81 24.62-4.545 5.08-7.29 7.63-12.465 12.12-2.392 2.47-3.016 5.91-5.991 7.39l-.977-1.24c-1.007-10.73-3.808-33.44-.377-42.89m949.151 82.82c11.06 4.91 21.96 9.18 33.54 12.72 4.55 1.39 10.11 2.72 14.04 5.33l-1.66.93c-3.8 1.01-35.73-1.03-46.03.22-.35-7.1-.75-12.07.11-19.2M744.609 790.859c.619 5.98-1.115 21.694-1.709 28.599l-1.266.4-3.445-3.264c-2.782-3.515-5.649-8.237-8.124-12.08 3.918-4.278 10.132-9.627 14.544-13.655M1797.52 611.505c3.8.344 9.39.206 11.95 2.474-.5 3.923-6.76 9.83-9.83 13.36-1.86 2.458-2.25 2.866-4.56 4.893l-1.57-.121c-.88-4.184 2.2-16.421 4.01-20.606m12.45 417.835c3.31-.27 5.89-.92 8.71.57l.1 1.68c-2.85 3.37-5.34 5.75-8.5 8.8-1.56 2.1-1.74 2.19-3.63 3.81l-1.21-.61c-1.78-5.22-.92-11.83 4.53-14.25m-332.99 184.03c3.8 2.1 11.36 9.07 13.41 12.94-3.71-.28-8.71-.68-11.86-2.46-2.43-4.1-1.54-4.94-1.55-10.48"/></svg>