<svg xmlns="http://www.w3.org/2000/svg" preserveAspectRatio="xMidYMid meet" viewBox="0 0 2048 2048"><path d="M966.692 61.448a872.4 872.4 0 0 1 305.708 45.856c145.98 50.257 258.24 150.251 334 284.081a692 692 0 0 1 29.97 59.878c5.86 13.535 11.96 33.335 19.32 45.279 6.28 7.95 15.15 16.139 22.32 23.18 63.39 62.259 115.74 136.104 154.4 215.82 89.24 184.402 102.27 396.528 36.27 590.468-69.46 200.2-218.02 376.69-409.76 469.41a751.77 751.77 0 0 1-511.442 55.06c-27.099-6.65-51.941-14.87-78.223-24.02-40.404-14.91-95.796-39.66-130.805-64.78-8.766 37.82-28.938 70.59-54.823 100.09-45.754 52.14-111.359 100.37-181.96 107.43-15.407 1.54-37.266-1.99-47.578-13.18-18.538-20.12-35.655-46.68-51.259-69.01l-74.096-104.93c-28.927-40.45-59.077-80.02-86.968-121.23-20.376-30.1-36.273-40.77-38.405-79.21-3.79-68.34 4.609-113.76 53.024-165.59-3.441-8.19-11.476-21.93-15.928-30.22a1919 1919 0 0 1-24.547-48.02c-37.261-75.8-72.538-173.43-76.307-257.97-1.515-33.97 2.296-70.77 4.733-104.83 4.142-57.876 9.397-132.767 25.171-188.731 45.72-162.211 137.657-355.373 250.866-480.098C568.427 143.067 750.443 71.019 966.692 61.448"/><path fill="#fefefe" d="M1115.56 373.424c36.28-2.788 89.25.971 125.11 6.059 183.06 26.982 347.82 125.81 457.81 274.611 108.31 144.679 155.62 342.235 129.76 520.646-28.76 194.02-133.33 368.71-290.74 485.72-7.11-15.27-12.94-36.64-18-53.04-29.36-95.05-47.84-192.81-63.88-290.85-4.97-30.37-13.37-71.47-30.28-96.99-21.95-33.13-73.06-67.06-111.88-75.35 6.28-34.83 1.47-48-12.45-78.94 82.75 10.51 110.08-39.85 118.73-113.296 2.17-18.435 5.16-36.778 5.22-55.484 9.17-2.422 18.21-5.173 26.89-9.03 5.81-2.579 16.52-7.336 18.22-13.963 4.36-17.056-46.84-101.549-58.1-119.258 15.11-46.7 21.73-99.536 1.44-146.112-7.43-17.057-39.89-72.27-54.89-81.454-30.19-18.487-76.07-35.025-109.79-48.037-47.75-17.332-104.8-37.829-156.55-33.135-101.332 9.192-167.043 112.733-197.149 200.883-11.019 32.262-14.604 69.962-30.09 100.701-14.286 28.359-41.452 50.862-61.784 74.908-28.924 34.205-39.161 76.309-35.076 120.482 4.635 50.13 25.443 86.785 63.818 118.955 8.641 7.25 31.454 23.38 37.803 30.45 16.563 18.43 21.995 31.57 42.582 48.57-41.623 20.05-88.254 37.97-126.856 64.52-43.917 30.2-59.492 113.82-74.278 163.69-21.403 72.19-42.618 152.92-54.936 227.41a431 431 0 0 1-12.934-17.32c-35.248-49.85-74.722-98.03-102.784-152.49-50.084-97.19-82.798-203.16-89.157-312.67-10.157-184.489 52.995-365.522 175.701-503.667 124.33-141.432 300.47-226.71 488.52-236.519"/><path fill="#fefefe" d="M983.799 133.439a782.8 782.8 0 0 1 210.071 19.908c110.62 27.015 187.96 77.885 265.11 160.839 29.54 31.763 49.59 54.371 72.22 91.554-17.05-7.263-39.78-22.187-58.97-30.975-61.32-28.086-123.66-51.111-190.05-63.672-194.19-37.375-395.262 4.291-558.61 115.752-182.609 125.022-295.785 299.339-336.304 516.651-24.251 141.224-8.838 274.414 42 407.944-35.918-4.49-63.971.6-97.833 13.84-9.475-10.73-25.324-34.86-32.961-47.35-36.142-61.42-88.251-151.95-88.313-225.93-.073-87 4.493-188.184 23.365-273.34 7.672-34.617 20.275-71.39 32.891-104.125 50.46-130.933 117.312-260.232 212.198-364.619 41.024-44.938 74.364-72.702 123.645-105.896 123.071-82.896 235.824-104.016 381.541-110.581"/><path fill="#fefefe" d="M1122.1 317.435a743.1 743.1 0 0 1 381.81 95.581c175.36 98.89 304.26 263.373 358.37 457.283 53.94 194.021 29.14 401.481-69.01 577.321-111.59 199.71-292.62 342.83-517.33 390.01-169.66 35.63-344.246 9.54-496.865-73.22-12.284-6.67-24.019-14-36.164-20.82 1.816-42.41-24.595-54.8-47.331-90.33l-.986-1.55c13.814 10.85 26.62 24 40.691 34.95 234.637 182.66 573.745 167.43 808.845-6.89 115.17-85.39 198.63-190.9 254.93-325.38a736.16 736.16 0 0 0 18.09-512.216c-60.21-180.396-189.46-329.578-359.44-414.87-163.66-82.376-353.25-96.713-527.439-39.886-187.573 61.602-342.084 196.741-428.115 374.441a713.42 713.42 0 0 0-48.751 489.481c11.303 45.53 24.359 75.46 38.715 117.99-14.938-6.48-24.594-8.72-40.331-12.7-13.924-38.22-28.151-76.05-36.765-115.92-8.92-41.27-16.144-82.36-18.377-124.58-10.405-201.813 59.721-399.504 194.973-549.65a756.42 756.42 0 0 1 426.3-238.395c36.53-6.484 67.58-8.795 104.18-10.65"/><path fill="#fefefe" d="M1399.42 629.799c1.12.298 2.29.715 2.62 2.12 10.32 43.467 5.88 79.529-9.5 120.691 4.3 13.046 18.9 35.208 26.13 48.497 11.97 22.006 22.68 42.679 31.89 66.096-19.37 10.333-32.92 15.301-53.45 5.248-7.81-24.931-26.18-8.621-17.5 7.047 6.14 11.104 18.15 14.523 29.6 18-2.96 10.121-3.36 15.964-4.43 26.529-7.11-.062-38.99-5.721-41.38-2.177-14.01 20.803 29.31 19.223 40 19.247-4.21 25.682-9.02 61.023-24.68 81.673-21.5 29-55.6 27.16-87.9 23.84-22.47-2.3-44.57-4.99-66.61-10.38-7.62-1.87-15.86-4.63-19.84 4.4.46 9.59 10.38 11.38 18.41 13.23 14.8 3.41 29.87 6.03 44.91 8.17-13.97 46.64-22.53 102.49-13.56 150.91 1.92 10.37 3.89 20.6 5.26 31.06-42.02 20.83-77.28 21.96-123.28 17.29-10.92-.9-22.45-2.6-33.37-4.01-15.53-33.99-31.24-71.46-46.19-106.03 61.15-55.01 105.37-167.299 77.93-247.663 3.34-.502 8.89-1.207 11.73-2.975a17.25 17.25 0 0 0 7.57-10.118c-2.52-10.875-18.78-5.719-27.06-4.897-32.15-12.094-51.18-79.432-44.2-110.875 1.96-9.6 11.4-20.387 22.11-16.704 10.55 3.624 18.19 13.693 24.22 22.644 6.27 9.3 10.56 19.95 14.54 30.26 4.23 10.973 9.58 43.822 27.26 35.137 6.5-6.615 12.81-17.542 17.63-24.966 5.1-7.876 9.63-14.401 14.73-21.425a458 458 0 0 1 23.5-29.62c23.59-27.534 65.9-72.073 95.3-91.1 26.98-17.46 50.52-29.361 77.61-49.149"/><path d="M1358.59 696.374c11.24-1.182 23.33-1.829 33.14 4.599 6.99 4.461 12.5 14.957 5.86 22.194-9.6 10.471-25.06 9.302-38.06 9.984-5.25.276-10.57.706-15.85 1.221-10.01 1.003-26.61 6.632-34.11 1.053-3.2-2.197-5.7-5.249-6.15-9.299-2.56-22.895 40.54-27.988 55.17-29.752m3.97 52.899c4.8.697 9.03.373 10.81 5.22-.87 4.094-3.02 4.967-4.31 7.134-2.02 3.39 1.37 9.582.87 15.175-.96 10.594-7.9 11.952-16.26 8.408-13-13.268-3.91-16.917-5.56-23.942-3.37.629-4.18.804-7.72.896l-1.56-1.534c-.08-8.443 16.89-10.213 23.73-11.357"/><path fill="#fefefe" d="M1261.14 1262.88c6.6 4.19 32.72 391.35 38.41 432.07 1.58 11.31 4.1 69.65 8.03 76.65l-.91 1.1c-8.53 3.46-63.19 16.54-71.07 15.94 1.19-1.49 3.42-4.01 3.3-5.78-1.39-20.41-4.51-47.85-6.51-67.62a1283.5 1283.5 0 0 0-60.13-273.08c-18.38-55.12-41.01-111.12-62.42-165.12 50.85 7.11 103.96 7.97 151.3-14.16M756.677 114.105c3.151-.122 2.008-.68 4.081.741-5.325 4.085-59.183 26.977-69.223 31.565a841 841 0 0 0-91.119 48.326c-127.91 78.477-206.506 176.593-278.71 305.911a1497 1497 0 0 0-84.441 177.877c-36.039 90.853-55.859 176.19-60.643 273.836-1.951 39.842-8.754 80.779-7.547 121.229 2.487 83.32 36.293 169.27 69.489 244.59 11.297 25.64 25.348 50.56 36.486 76.33-.574 3.63-1.22 3.36-3.863 6.72-8.088-11.31-19.117-33.36-25.432-46.04-30.782-61.79-56.291-123.31-73.734-190.12-17.636-67.56-13.92-116.76-8.075-185.126 4.748-55.531 6.299-104.416 18.58-159.872 26.739-120.748 81.772-241.146 142.889-347.592 75.127-130.849 169.833-234.713 303.952-305.605 40.095-21.193 82.881-41.392 127.31-52.77M570.652 1528.34c2.172-.41 9.712-.69 12.306-.86 6.472 7.15 12.07 15.22 17.757 23.03-61.257 2.92-106.176 27.81-152.464 66.65-43.53 36.52-91.928 98.82-96.665 156.79-.152 2.34.128 7.2.195 9.7-6.67-10.32-14.466-19.75-21.311-30.34 7.337-27.28 16.478-54.61 32.075-78.37 47.203-71.9 120.837-133.98 208.107-146.6"/><path fill="#fefefe" d="m541.979 1470.39 1.548.14c4.358 4.21 11.957 15.55 15.799 20.95-16.238.52-31.938 1.34-47.776 5.28-97.33 24.22-186.805 118.68-209.501 215.52-3.193-1.03-14.826-20.01-17.158-23.86 4.873-10.75 6.311-24.56 11.006-35.96 20.367-49.45 56.524-91.99 98.472-124.4 45.955-35.52 89.783-54.08 147.61-57.67m58.535 98.04 12.257-.06c27.887 36.11 53.443 75.28 80.809 111.6-19.584-.68-32.118.89-50.82 6.13l-12.884 3.84a4655 4655 0 0 1-79.722-113.11c17.526-4.71 32.15-7.63 50.36-8.4M988.373 108.5c13.717-.873 28.647-.386 42.517-.69 78.24-1.715 161.57 10.453 235.08 37.81 28.02 10.431 77.49 35.332 102.56 52.431 65.52 44.688 132.33 111.125 177.62 176.366 11.75 16.926 28.35 47.888 36.64 66.516-6.52-5.025-15.94-11.691-19.91-18.727-6.8-12.064-13.41-23.91-20.65-35.756-38.34-58.502-96.37-116.799-151.13-160.297-97.12-77.154-227.18-107.896-348.59-112.048a819 819 0 0 0-62.492.009c-10.006.387-72.658 5.695-77.828 4.271l.21-.921c12.88-5.753 70.678-8.235 85.973-8.964M400.481 1367.36c25.954.33 51.61 5.58 75.601 15.49 6.318 7.66 15.1 20.81 21.119 29.15a2232 2232 0 0 0 31.289 41.68l-12.881 1.63a236.2 236.2 0 0 0-49.296 12.06c-15.967-22.56-31.273-45.31-46.61-68.29-3.638-5.45-19.271-26.95-20.465-30.52zm582.861-215.57c5.29.44 8.601.32 9.399 6.66 5.268 41.84 13.339 83.6 24.359 124.33 4.62 17.05 9.66 34.16 18.08 49.76 18.14 4.59 45.29.48 52.85 4.97 3.18 10.57-1.55 193.5-4.78 202.57-3.65.28-5.69.73-8.73-1.25-4.73-7.29 2.63-169.12 3.42-192.27-20.28 1.09-32.79 1.1-52-5.65-22.85-44.9-35.2-118.64-43.81-168.98-1.104-6.45-2.711-14.96 1.212-20.14m296.908-11.3c19.42 15.72 68.82 142.7 65.06 166.77-3.97 6.29-19.01 10.26-26.41 12.83 12.17 48.28 28.28 96.19 40.9 144.39.63 2.38.6 3.73-.22 6.08-2.47 2.68-4.36 2.54-8.01 3.14-2.22-3.26-3.38-5.89-4.46-9.71-10.6-37.66-20.27-75.47-32.51-112.65-2.81-8.54-10.82-29.26-10.65-36.74 4.21-4.66 22.49-7.72 30.24-11.42-6.72-38.28-25.87-82.06-40.52-118.09-4.64-11.41-14.99-26.35-18.38-38.01.64-3.11 2.59-4.35 4.96-6.59m-907.475 616.14c6.79 5.83 36.328 51.7 42.77 61.26 7.633 11.34 23.386 33.22 30.265 44.47-6.657 12.36-9.226 22.43-11.356 36.29l-.774.86c-4.064-5.1-8.671-11.93-12.095-17.53-15.737-25.77-36.645-49.4-52.678-74.72.613-1.05 3.748-6.56 3.719-7.05-.838-14.48-5.397-28.92.149-43.58m557.515-285.78c2.356-.08 9.231-.51 9.559 3.16 7.7 86.19-2.782 173.17-16.439 258.34-1.663 10.37-3.456 21.11-6.024 31.21-4.199-.57-5.995-.44-9.427-2.67-.918-3.19 6.808-51.66 7.919-59.5 7.945-56.06 14.361-110.52 14.726-167.26.083-12.93-3.22-56.86-.314-63.28m479.75-35.12c3.03.15 5.63.05 7.7 2.56 6.22 7.54 53.65 257.84 51.09 268.26-.37 1.5-2.89 2.29-4.2 2.99-2.34 1.34-3.85 1.98-6.3 3.05-1.28-2.49-12.2-74.58-13.58-82.45-7.27-41.6-15.32-83.06-24.15-124.35-4.31-20.52-9.01-40.99-13.19-61.52-.93-4.58.21-5.03 2.63-8.54M221.092 1540.71c5.438 4.86 55.879 80.15 62.828 91.46-4.447 9.82-7.125 16.56-9.879 26.94l-2.363 10.97c-13.464-19.72-43.587-55.14-47.676-75.98-1.513-7.72-2.493-43.34-2.91-53.39m451.999 157.68c40.265-4.75 55.302 15.72 48.764 53.92-.454-4.92-.643-11.03-1.652-15.69-15.255-67.05-98.517-20.1-131.874 1.75-47.509 31.11-140.699 120-127.54 181.8 11.039 29.5 35.635 27.66 61.938 28.18-1.405.29-2.813.57-4.224.82-15.831 2.88-38.741 4.17-51.5-6.14-39.517-31.94 9.139-102.64 31.381-129.83 40.734-49.79 109.999-107.91 174.707-114.81m160.24-476.03c8.427.07 8.19 2.5 13.951 8.06 20.832 20.12 97.525 149.15 84.607 171.28-1.574.18-3.741.23-5.375.31-2.155-1.2-3.746-2.34-4.435-4.9-3.917-14.56-6.67-26.25-12.582-40.28a501 501 0 0 0-53.295-95.5c-5.732-8.11-12.009-15.45-17.813-23.38-5.884-8.04-6.396-7.01-5.058-15.59"/><path fill="#fefefe" d="M635.794 1806.17c2.405-.25 6.776-.94 8.859.7 8.286 6.52 23.022 17.85 24.844 28.83.66 3.97-2.548 7.11-5.016 9.45-9.481 1.83-19.43-10.62-25.612-17.13-6.541-6.89-11.944-14.48-3.075-21.85m-133.756 43.53c9.303.56 22.189 16.38 27.639 23.84 5.482 7.51 6.097 12.84-2.852 17.64-10.262-.79-29.355-20.93-31.186-31.52-.698-4.04 3.707-7.58 6.399-9.96m53.855-62.94c7.006 1.17 10.948 4.93 15.749 9.99 8.329 8.78 24.087 21.33 8.179 30.72-8.268-1.73-22.34-17.03-27.605-24.3-5.303-7.31-3.498-12.02 3.677-16.41m22.346 77.93c6.492 1.01 10.787 5.01 15.197 9.73 8.147 8.71 21.921 20.53 7.224 29.86-5.701-.66-10.393-4.77-14.412-8.79-9.412-9.42-22.913-20.04-8.009-30.8m50.897-126.94c10.534.96 24.282 16.08 29.135 25.33 2.883 5.49-.413 9.23-4.594 12.44-9.709 1.26-19.415-10.18-25.286-17.29-6.195-7.49-8.535-14.42.745-20.48"/></svg>