<svg xmlns="http://www.w3.org/2000/svg" preserveAspectRatio="xMidYMid meet" viewBox="0 0 2048 2048"><path d="M931.085 129.111c16.651.258 59.872 10.704 75.975 18.019 28.63 13.005 29.01 10.879 60.47 12.401q28.905 1.221 57.69 4.081c62.56 6.375 107.59 17.43 167.38 32.763-19.02-17.238-44.32-28.23-66.41-40.597-4.28-2.394-2.25-8.305.78-11.28 6.99-2.252 20.59 6.07 26.73 9.241 24.68 12.724 49.21 28.855 66.83 50.606a912.7 912.7 0 0 1 183.8 82.166c20.35 11.928 37.34 23.987 56.88 35.915-11.5-28.3-21.68-39.801-45.13-58.519-4.52-3.614-4.76-9.592.19-13.611 7.67-1.644 16 8.121 21.47 12.706 23.57 19.739 33.84 44.213 42.34 73.069 8.28 5.456 21.13 16.456 29.16 23.042a933 933 0 0 1 123.55 123.38c16.28 19.527 30.04 39.313 47.06 58.607-5.51-28.782-14.19-51.445-27.66-77.244-4.93-9.433-16.03-21.216-14.3-31.587 5.07-4.56 14.14 2.848 16.88 7.252 22.07 35.448 43.69 77.314 37.09 120.394 57.42 90.828 84.07 146.823 114.43 250.323 1.6-9.546 6.07-58.839 7.95-62.478 2.78-1.861 3.16-1.565 6.5-1.61 14.69 8.011-3.74 72.852-7.83 86.594 4.34 17.432 9.36 34.06 12.88 51.805 14.88 75.038 18.76 157.561 14.09 233.981 4.45-11.19 8.59-21.6 12.01-33.74 1.57-5.58 2.46-28.74 6.47-32.8 4.05-4.11 12.01 2.09 10.89 10.34-3.45 25.42-12.14 67.11-32.14 85.2-1.36 7.37-1.98 15.04-3.04 22.56-4.24 30.11-10.05 60.61-18.25 89.87-6.09 21.74-10.87 43.99-17.99 65.27 13.7-11.01 20.83-21.74 28.54-37.66 2.6-5.36 5.5-12.37 9.09-16.89 4.99-2.01 8.45-.59 11.05 4.25.89 7.15-5.83 18.12-9.08 25.06-7.18 15.32-31.97 45.51-48.41 50.6-3.5 9.86-7.05 19.69-10.67 29.5-19.39 51.87-43.56 97.79-72.51 144.68a889.6 889.6 0 0 1-327.37 313.2c-24.44 13.59-51.75 26.48-77.13 38.02a892 892 0 0 1-62.74 24.81c-228.38 80.07-479.086 67.21-698.079-35.81-221.364-104.62-391.032-294.29-470.44-525.89a893.66 893.66 0 0 1 19.369-623.988c9.519-23.469 23.008-50.522 34.399-73.315 8.165-16.338 20.849-34.086 28.721-50.697l.572-1.222c-2.914-13.573-5.097-29.143-5.761-43.073-.286-6.011.283-12.115 6.341-14.595 9.407 1.624 8.059 6.543 8.807 15.258.752 8.772 1.298 15.016 3.28 23.662 32.758-48.69 57.727-82.892 98.683-126.649 2.959-22.241 44.294-105.017 63.487-108.168 5.765 1.614 7.72 6.871 4.514 10.914-20.208 25.492-35.062 46.823-47.837 77.386 69.695-74.098 151.563-129.522 242.351-174.55 20.595-10.214 48.519-20.045 66.966-29.707l.857-.458c-16.793.039-33.645.156-50.44.15-6.109-.002-15.027-.096-17.989-6.313 1.713-10.128 16.78-8.773 24.311-8.872a595 595 0 0 1 42.571.672c21.337 1.104 30.021 3.626 51.197-3.358 81.999-27.041 166.088-38.025 251.845-43.264-12.297-4.661-23.726-7.638-36.371-10.755-8.11-1.999-25.82-4.184-32.069-7.3-3.069-4.985-1.096-8.395 3.2-11.747"/><path fill="#fefefe" d="M973.356 222.567c45.324-3.094 104.054.14 148.894 5.906a825.3 825.3 0 0 1 438.58 192.131c166.92 145.47 269.87 350.792 286.6 571.57 14.73 218.416-57.2 433.836-200.22 599.566-152.64 176.06-368.07 296.95-602.45 313.58-6.42.66-13.37 1.03-19.84 1.3-401.353 16.75-764.403-291.72-839.666-682.22a894 894 0 0 1-13.952-128.77c-7.523-220.973 72.311-436.011 222.209-598.539 149.29-164.699 357.831-263.431 579.845-274.524"/><path d="M1021.87 308.672c416.13-1.527 754.72 334.563 756.27 750.698 1.55 416.13-334.52 754.74-750.65 756.31-416.169 1.58-754.81-334.53-756.362-750.69-1.552-416.17 334.573-754.791 750.742-756.318"/><path fill="#fefefe" d="M995.258 331.43a745.7 745.7 0 0 1 178.062 13.72c191.13 40.969 358.48 155.475 465.9 318.788 105.7 160.236 143.06 356.042 103.77 543.932-28.83 136.7-91.49 254.82-187.12 356.09-30.89 32.71-73.35 73.48-110.84 97.95-5.28-26.4-7.76-66.33-12.09-94.52-6.36-41.43-13.37-72.32-23.14-112.48 12.76 11.79 32.74 23.98 50.06 28.07 60.64 14.12 97.22-50.55 138.33-82.48 5.75-5.3 23.83-16.99 14.05-25.6-51.21-45.08-108.17-86.49-154.47-136.79 5.91-16.44 14.65-36.48 21.18-53.61 56.91-3.74 191.03 12.01 235.28-18.53 13.16-9.09 19.55-22.55 22.16-37.88 2.84-16.63 3.05-34.2 2.65-51.05-.44-18.89-9.54-130.211-18.84-141.732-1.76-2.18-8.25-2.092-10.92-2.161-13.22-.344-26.73.969-39.97 1.317q-40.845.732-81.66 2.555c-32.06 1.5-64.05 3.661-96.15 2.821-3.27-13.691-6.12-25.115-10.33-38.51 43.29-23.442 144.28-72.827 171.37-110.411 11.11-15.417 16.67-34.895 13.43-53.8-1.49-8.628-4.69-16.769-8.78-24.477-12.7-23.898-75.96-112.766-95.17-126.582-15.16 5.985-46.54 25.406-62.04 34.435-45.82 26.684-90.36 54.431-136.52 80.745-14.91-15.317-41.3-36.648-58.37-49.545 8.49-21.221 15.79-50.608 22.78-73.025l37.2-116.562c-8.85-38.313-33.91-56.19-68.55-70.61a302 302 0 0 0-41.84-13.718c-20.43-5.162-124.64-25.406-140.71-18.752-6.26 5.485-9.98 59.646-11.28 70.86a4554 4554 0 0 0-14.92 136.391c-9.95-.734-19.91-1.351-29.87-1.85-55.52-4.248-119.185 7.033-171.411 25.408-14.46-51.033-34.281-133.64-47.64-177.973-11.87-39.388-192.159 49.701-197.472 81.666-.765 4.603-2.449 7.005-.503 11.499 6.75 15.587 15.938 30.404 24.327 45.196l43.903 77.669c8.796 15.62 19.598 33.729 26.87 49.856-48.064 40.208-76.506 80.106-109.143 131.773-18.804-10.508-37.599-22.72-56.237-33.762L451.738 706.4c-31.232-17.973-40.707-15.938-58.829 18.251-21.861 41.243-47.89 97.636-39.861 144.738 2.535 14.869 51.517 31.265 65.257 36.795l97.517 38.932c14.848 5.878 40.664 15.232 54.32 22.105l1.33.677c-9.398 47.342-5.351 109.962 4.189 157.052a5672 5672 0 0 1-160.233 56.64l-46.474 16.15c-11.395 3.96-34.1 10.08-38.963 21.01-6.343 14.25 2.091 47.98 7.655 61.85 12.931 32.25 27.858 76.6 58.318 95.53 4.417 2.27 13.178 1.53 17.606-.02 57.277-20.08 112.969-44.62 169.66-66.3 17.738-6.79 34.84-16.06 52.823-22.2l1.766-.59c13.556 19.78 25.253 34.91 40.211 53.66a260 260 0 0 0-14.163 16.07c-20.765 25.41-42.977 59.58-62.537 86.84-14.327 22.14-33.115 43.93-43.85 67.93-15.006 33.56 3.527 82.41 30.398 103.79a318 318 0 0 1-1.944 30.26c-34.763-27.7-64.442-52.95-94.493-85.89C65.783 1093.07 359.349 363.757 995.258 331.43"/><path fill="#fefefe" d="M1028.33 585.445c96.19-2.87 194 30.63 270.62 88.248a450.2 450.2 0 0 1 176.26 295.503c16.57 117.394-8.1 224.364-73.78 323.674-14.13 21.37-29.04 36.22-44.1 56.23-30.41-32.98-44.7-39.58-84.18-56.05-22.07-9.18-44.09-18.48-66.07-27.89-10.64-4.54-24.05-9.98-34.24-15.05-13.46-6.68-22.74-25.59-38.77-30.78-.48-18.61-1.25-37.21-2.3-55.8 28.63-9.75 52.79-12.86 78.16-34.45 14.24-12.12 25.26-27.36 30.83-45.4 4.26-13.82 4.83-30.24 3.93-44.58-.33-5.4-2.51-15.88-1.4-20.65 4.5-19.316 8.51-37.134 11.57-56.761 2.49-15.915 2.71-30.607 4.82-46.104.69-5.075 6.42-20.814 8.24-26.675a204.8 204.8 0 0 0 8.44-43.664c6.16-71.144-16.91-150.265-80.06-190.127-40.73-25.711-87.62-26.997-134.05-30.89-18.06-1.02-37.24-2.347-55.27-4.114-45.166-4.425-88.017 14.621-122.045 43.376-20.528 17.347-43.55 44.972-55.384 69.694-22.654 47.325-30.194 110.391-32.284 162.65-1.388 24.005 1.142 50.7-.482 74.429-3.289 48.076-17.286 96.246 18.865 136.726 15.058 16.87 35.679 29.72 57.122 37.47 18.424 6.66 41.596 13.5 61.316 14.71-.322 14.16-1.705 53.82-7.128 65.41l-1.678.61c-17.628 6.69-24.194 19.83-39.264 27.67-29.002 13.06-64.807 25.7-95.437 34.53-40.447 11.66-58.985 17.93-95.407 40.37-64.41-70.95-105.814-181.72-107.669-276.91-2.269-116.511 43.349-233.766 122.761-318.595 86.95-92.882 191.539-142.282 318.064-146.81"/><path fill="#fefefe" d="M1179.58 801.843c12.85.825 32.05 23.661 37.39 34.633 5.85 11.999 18.31 45.023 12.19 56.769-1.66-.402-3.53-.991-5.02-1.828-9.05-5.064-30.09-4.122-37.62 3.371-1.12 3.741-1.13 1.938-.07 5.605 3.88 1.305 8.21-.967 12.29-1.761 13.2-2.573 23.59 2.458 34.19 8.794 8.03 17.009 3.53 31.821 1.38 49.579-13.82 114.305-87.85 243.025-217.21 162.595-5.17-3.22-25.043-20.05-29.11-19.91-2.726 2.16-1.991.84-2.723 3.83 3.179 9.24 24.613 22.2 32.923 27.37 30.09 18.75 57.3 22.95 91.86 22.05.92 26.6 4.36 68.48 2.71 94.09-.34 5.19-19.59 52.93-22.77 61.03a559 559 0 0 1-17.25 39.82c-22.26-17.62-42.44-40-64.21-58.33-20.853-17.56-40.375-36.8-61.337-54.11 13.167-66.43 8.153-177.89-2.722-244.833-23.857 3.869-39.68 1.38-56.591-17.271-16.978-17.663-29.544-59.87-7.712-78.117 16.716-13.971 41.684-1.538 52.757 13.808 32.524-8.573 65.982-20.12 94.815-37.552 18.44-11.145 32.95-22.434 52.7-31.781 31.29-14.811 70.88-18.87 99.14-37.851"/><path d="M1080.47 1039.58c5.28.47 11.33 2.02 16.81 2.72 20.12 2.54 40.53 1.13 60.76 1.02 6.18-.03 12.03-1.23 18.45-1.15 8.53 8.24-5.05 24.42-10.61 31.19-23.57 22.02-63.36 17.86-80.95-10.23-3.92-6.27-6.3-16.24-4.46-23.55"/><path fill="#fefefe" d="M1090.12 1051.09c26.4 2.74 52.75 1.54 79.24.5-3.5 7.27-5.56 10.26-10.88 15.91-21.91 19.28-59.17 11.88-68.36-16.41"/><path d="M891.993 901.107c24.176-1.631 48.658 22.139 44.34 38.886-6.847 26.549 10.705 25.697 9.879 36.102l-2.58 1.338c-14.917-.485-17.698-17.089-20.197-28.914-5.513-5.33-9.196-8.444-15.235-13.2-3.751-.015-7.485.389-10.72-1.317-2.253-2.78-1.927-1.316-1.617-4.369 8.64-8.109 22.079.266 29.136 6.582l.594.362.987-.493c-1.496-10.814-15.143-27.973-27.466-25.901-24.615 4.139-10.92 29.918-2.37 42.577 3.158 4.676 13.926 13.339 14.488 17.734l-1.307 1.316c-20.269 2.163-51.673-53.687-17.932-70.703m236.387 21.478 4.67.538c2.73 2.6 4.76 20.279 5.28 25.413 3.04 30.052 63.04 79.874-5.77 77.364-5.29-1.28-7.15-.76-8.17-6.26 4.78-7.37 19.81 1.38 30.65-7.07 3.59-11.6-39.51-60.761-26.66-89.985m-67.76-5.076a14.18 14.18 0 0 1 14.21 2.059 14.17 14.17 0 0 1 5.13 13.414 14.16 14.16 0 0 1-9.21 11.015c-7.26 2.597-15.27-1.085-18.02-8.289-2.76-7.203.75-15.288 7.89-18.199m-3.84-33.254c9.69-.952 33.3-1.853 38.28 8.133-.21 4.112.44 2.376-1.56 5.554-2.06.28-18.38-4.07-26.79-4.475-4.03.255-9.59.48-13.4 1.621-6.16 1.839-13.91 8.571-20.17 7.704l-.92-1.426c2.06-10.135 15.63-14.844 24.56-17.111m147.45 33.769c16.06 2.119 21.61 20.919 3.65 28.683-1.89-.322-4.34-.737-6.14-1.295a14.43 14.43 0 0 1-8.72-7.693c-4.55-9.717 2.53-16.599 11.21-19.695"/><path fill="#fefefe" d="m1692.33 953.586 12.33-.9c6.89 38.026 11.62 77.974 12.48 116.624.41 18.85 3.14 62.02-10.71 75.79-28.12 27.97-161.74 19.17-202.21 18.82l-20 .29a456.9 456.9 0 0 0 16.66-155c-.88-16.202-3.19-32.093-4.21-48.295 35.77.388 70.82-1.752 106.53-3.467 29.71-1.426 59.42-2.108 89.13-3.862m-562.02-575.204c41.36 2.327 104.46 14.2 144.48 26.821 31.84 10.039 52.98 21.973 67.94 52.05-3.57 13.957-9.41 30.604-13.67 44.756l-33.68 110.696c-3.08 9.439-5.85 17.675-9.5 26.963-11.36-8.898-28.78-18.097-41.73-24.779-43.4-22.414-87.05-37.599-135.42-45.281 5.46-40.65 7.98-82.177 13.6-122.875 3.12-22.603 4.51-45.858 7.98-68.351m427.08 233.391c9.04 2.508 73.86 94.993 81.31 109.915 3.17 6.332 6.76 15.783 7.13 23.405 1.57 32.798-25.46 48.823-48.58 65.638-13.14 8.615-112.35 68.856-122.67 69.056l-.93-2.082c-19.26-59.997-53.54-114.142-95.16-160.943 59.96-33.83 119.36-70.109 178.9-104.989M910.816 1261.03c2.159 3.29 10.68 26.84 12.93 32.67l45.241 120.24c3.272 8.65 16.261 47.47 21.094 52 4.721 2.05 8.255.69 11.399-3.13 23.48-28.53 47.77-58.8 69.98-88.14 2.19 17.51 6.66 35.83 10.51 53.17l15.8 71.92 46.47 224.08c3.42 19.85 9.06 42.83 13.56 62.74-19.01 4.01-44.21 6.35-63.93 8.55-8.38-21.25-15.42-45.03-23.02-66.69-8.02-22.84-16.03-45.65-23.93-68.54l-68.013-190.74c-18.174-50.87-38.423-101.51-56.964-152.3-5.84-15.99-13.096-32.5-18.13-48.6 2.317-2.18 4.782-4.9 7.003-7.23m536.734-2.58c3.14 2.12 16.29 15.25 20.3 19.06a2019 2019 0 0 0 37.05 34.01c26.28 23.6 55.83 46.4 82.85 69.91-17.26 19.65-63.28 62.76-84.15 75.56-10.14 5.62-24.64 10.3-36.83 7.03-14.43-3.73-58.13-29.34-64.93-42.74-9.28-18.28-18.23-37.86-30.92-57.44 31.12-30.78 55.01-67.63 76.63-105.39m-353.23 130.97c18.71 14.56 45.74 45.82 64.68 62.41 3.33 2.92 9.59 3.94 13.57 6.99 2.59 26.43 2.34 64.73 3.41 92.82l4.99 138.36c.55 15.44 3.7 79.09.75 90.33-1.63.67-1.67.58-3.42.92-2.26-3.06-3.28-7.7-4.06-11.46z"/><path fill="#fefefe" d="M930.804 1251.38c1.714.1 4.034.25 5.385 1.48 39.935 36.39 79.871 72.88 119.841 109.26a2701 2701 0 0 0-30.86 37.6c-8.83 11.33-17.95 23.41-27.274 34.24a4488 4488 0 0 0-41.402-112.21c-7.875-20.59-19.912-49.6-25.69-70.37m201.336 8.23c1.76 5 7.66 56.18 9.05 65.39 4.89 32.59 10.78 64.67 16.5 97.15-6.98-6.06-14.01-12.84-20.8-19.16-13.45-13.16-33.46-31.87-45.24-45.82 14.18-25.96 27.8-69.01 40.49-97.56M628.688 1441.8c.472 3.77-7.097 22.49-8.932 27.54-14.07 38.74-22.002 77.98-28.283 118.55l-7.432-11.34c-4.346-6.9-7.454-16.41-9.113-24.37-7.502-36 33.559-81.18 53.76-110.38m524.482-180.21c2.86 1.74 11.42 9.69 14.41 12.36 1.95 33.87 3.12 72.27 4.15 106.26-5.69-9.06-17.25-102.77-18.56-118.62"/></svg>