<svg xmlns="http://www.w3.org/2000/svg" preserveAspectRatio="none" style="display:block" viewBox="0 0 2048 2048"><path fill="#FEFEFE" d="M0 0h2048v2048H0z"/><path d="M1041.29 65.564c3.71 7.79 8.78 75.175 9.96 87.437 1.53 15.12 3.4 30.205 5.59 45.244 20.19 2.476 62.37 6.764 81.51 5.083 10.06-10.543 19.6-23.669 29.04-34.898 22.31-26.533 44.28-56.293 67.31-81.998a3631 3631 0 0 0-42.49 126.071c49.74 6.222 108.77 30.803 156.38 47.25 30.25 10.448 50.46 20.773 77.68 36.798 20.07 10.802 46.51 21.226 65.13 34.395 40.71 28.779 80.67 57.093 116.42 92.14 6.02 5.894 26.2 20.576 30.16 25.897 19.52 26.24 41.77 48.547 63.15 73.141 13.06 15.545 22.06 35.346 34.24 52.167 14.44 19.941 28.72 39.753 42.5 60.054 10.1 16.313 20.3 46.371 29.43 64.033 8.13 15.737 15.52 27.857 21.84 44.572a962.2 962.2 0 0 1 54.7 239.462c1.77 16.832 4.75 27.248 5.35 45.438.62 18.97-3.1 29.84-3.95 46.84-1.11 22.13.56 44.15-1.56 66.8-2.23 23.69-7.44 45.92-11.84 69.38-3.66 19.45-5.99 41.45-10.28 60.14-3.84 16.78-13.26 37.34-18.23 54.02-5.44 18.26-9.6 33.69-16.74 51.56-6.2 15.53-12.88 26.73-19.9 41.43-6.94 14.53-12.99 30.99-19.74 45.83-8.47 18.6-20.97 32.54-31.48 49.46-7.19 11.58-11.8 24.75-20.45 36.14-5.39 8.87-19.07 19.44-23.92 27.67-15.86 26.92-33.86 47.33-56.91 68.32-9.08 8.26-18.43 23.43-28.05 31.1-31.85 25.38-62.76 52.03-94.87 77.14-7.7 6.02-18.8 10.17-26.66 16.07-12.86 9.65-24.38 20.52-38.49 28.42-18.11 11.3-29.81 14.38-48.69 23.11-13.21 6.11-28.98 16.77-42.4 23.06-6.44 3.02-17.27 6.04-24.42 8.77l-89.89 33.46c-.14 15.55 6.48 74.93 2.55 82-17.74 14.89-16.19-25.71-16.48-33.65-.48-14.91-1.1-29.81-1.88-44.71l-.69.09c-24.81 2.84-49.88 11.64-76.08 12.6-10.11.37-29.06 6.11-40.79 7.72-30.11 4.15-58.96 2.03-89.02 4.73-7.04.73-14.18 1.17-21.25 1.64-21.302.14-30.678-3.22-51.275-5.82-20.707-2.62-45.33-2.63-65.977-5.66-23.818-3.49-48.969-9.7-72.756-14.6-.311 9.82-5.073 83.05-9.079 87.33-1.531 1.63-3.708 3.15-6.052 3.11-4.235-.09-6.957-3.64-9.555-6.48.87-28.89 3.944-57.4 6.832-86.14-32.271-6.12-64.668-19.9-94.963-31.78-28.917-11.35-51.862-19.45-78.204-36.62-11.082-7.22-35.019-11.99-46.486-21.6-32.785-29.73-76.311-46.46-107.1-76.78-17.066-16.8-25.713-28.87-46.8-41.57-8.894-5.36-20.871-20.71-29.427-27.53-22.642-24.25-44.035-51.57-64.251-77.94-9.743-13.08-18.396-32.86-28.195-45.32-23.763-30.22-40.349-57.56-54.611-93.43-6.233-12.44-16.45-25.83-21.132-38.87-14.892-41.47-26.836-84.64-39.163-126.93-7.127-24.46-7.947-46.65-12.291-70.98-5.622-31.49-17.173-60.28-15.243-93.07-.276-34.68-1.955-67.12 3.616-101.89 1.927-12.025-3.4-30.707-1.085-43.508.697-11.211 6.034-25.421 6.604-36.211 1.712-32.452 8.628-58.203 19.444-88.634 5.944-16.693 7.786-41.731 14.61-57.549 19.725-45.716 37.003-93.678 61.717-136.882 21.915-38.309 41.862-74.438 70.289-108.47 5.368-6.428 9.353-16.855 15.271-23.223 23.487-19.787 44.951-51.204 65.918-71.191 58.449-55.713 129.985-108.491 201.906-145.418 53.237-27.334 114.637-48.516 171.362-67.308 17.104-5.382 48.935-10.767 69.414-16.229-7.842-41.644-20.204-82.537-26.874-124.556 5.75 11.658 14.911 23.761 21.814 35.029 16.689 27.247 36.704 56.636 50.764 85.035 23.225-3.391 58.15-4.083 82.075-5.323 1.682-5.555 3.613-12.328 5.673-17.717 13.8-36.165 21.16-82.221 37.42-116.7"/><path fill="#FEFEFE" d="M1079.76 357.624c3.19 2.915 30.29 76.065 34.21 85.997 6.03-11.826 17.42-40.797 20.35-53.478 16.21 6.589 34.35 10.889 51.01 16.491 6.71 3.277 20.57 1.23 26.45 3.618 53.82 21.855 105.56 45.826 156.23 74.493 89.38 50.569 165.24 131.273 222.23 215.893 4.79 7.635 8.49 15.98 13.02 23.742 14 23.949 27 49.074 37.04 74.93 7.45 19.178 13.41 36.087 23.32 54.101 10.84 19.692 11.64 46.821 16.25 68.376 7.95 37.134 10.64 73.522 11.64 111.403.39 15.19 4.27 32.81 2.98 47.99-5.2 60.83-20.13 121.18-34.56 180.4-2.01 5.82-5.57 10.8-8 16.49-11.02 26.44-19.16 53-35.94 76.49-10.33 15.77-18.72 33.11-27.72 49.58-46.97 85.92-127.9 155.09-208.41 209.14-35.83 24.06-85.89 42.69-125.24 62.08-.87-41.13-2.12-82.25-3.73-123.36-1.41-33.88-3.41-67.43-4.08-101.41 4.62-4.36 12.47-9.05 17.79-13.18 16.17-12.54 34.29-25.44 47.16-41.47 46.88-58.39 73.78-130.4 107.08-196.53l45.68-91.07c22.98-46.34 36.28-64.03 32.41-117.812 7.84-7.512 15.25-14.546 21.1-23.853 33.61-53.398 10.35-119.481-41.17-151.458-31.87-19.779-62.21-20.734-97.75-12.848-5.46-48.827-33.57-83.84-77.42-106.246-37.44-19.128-68.34-19.751-107.43-6.656-5.96-10.717-13.22-21.486-22.06-30.109-38.77-37.814-149.62-68.39-192.132-24.915-20.184-30.48-38.87-46.473-74.675-58.481-31.156-10.45-77.948-11.064-107.776 4.217-24.409 12.505-31.019 30.075-38.865 54.598l-2.451 9.735c-15.636-4.863-26.711-8.104-43.079-10.679 15.668 12.374 26.797 15.159 39.774 24.695-11.968 25.935-15.944 50.579-24.842 77.334-15.736-5.129-25.836-7.765-41.814-10.684 9.043 7.141 30.891 17.087 35.984 23.787.87 4.149-1.659 8.025-2.482 13.566 2.096 4.604 3.193.633 6.897 4.807-4.251 2.131-8.229 1.267-12.348 2.846-17.967 6.887-75.907 105.101-87.167 126.655-22.592 43.248-41.024 88.434-61.764 132.551-9.395 19.99-23.168 40.4-29.349 61.54-6.885 23.55-11.164 44.38-3.551 68.31 3.616 11.37 8.49 23.29 16.473 32.33 27.725 31.41 77.063 61.83 112.485 84.97 56.758 37.06 115.252 74.16 175.641 105.01.038 21.33-1.722 41.22-3.026 62.45l-5.122 88.91c-2.523 45.22-3.805 109.04-9.602 152.76-16.116-6.61-31.777-10.06-47.801-16.12-8.034-3.18-16.299-10.71-23.779-14.14-57.399-26.61-115.695-58.66-161.601-102.85-20.795-20.01-40.466-43.07-62.01-63.23-20.07-18.77-38.446-48.02-54.04-70.42-6.521-10.23-13.677-19.82-19.257-30.68-14.898-28.99-24.033-59.65-41.956-87.14-4.101-6.29-7.442-23.25-10.255-30.93-11.004-33.51-22.657-71.75-27.011-106.98-3.095-25.05-8.11-51.63-11.021-76.27-2.188-18.52 2.979-47.01 3.395-66.39.405-18.92 3.497-39.77 4.836-58.801 4.776-38.901 15.416-77.719 27.3-114.997 5.426-17.021 15.179-32.751 21.884-48.918 7.681-18.522 12.414-35.957 21.985-53.918 23.013-44.033 52.294-83.876 83.567-122.273 12.448-15.283 14.176-20.53 30.554-34.099 15.536-12.87 28.714-28.254 45.858-40.314 13.74-9.664 26.658-24.733 41.173-34.148 9.402-6.657 18.837-15.437 28.432-21.631 31.294-20.567 64.398-37.95 98.242-53.828 19.797-9.289 30.817-14.821 52.031-20.769 18.324-5.138 34.888-12.926 54.329-16.75 11.271-2.218 27.806-5.968 38.503-9.468l1.43-.477c5.081 11.483 14.264 49.411 18.588 64.315 10.27 35.392 25.757 72.908 32.313 108.359 3.452-9.344 3.445-26.83 5.731-37.283 9.626-44.016 10.229-92.284 22.049-135.518 5.421 7.737 11.582 18.635 16.642 26.888l30.47 49.652c2.13-8.898 10.77-30.041 14.24-39.218a2462 2462 0 0 0 25.53-69.7"/><path fill="#FEFEFE" d="M740.883 781.55c13.103 3.823 39.295 20.722 51.925 28.405l91.634 56.761 72.397 43.947c12.998 7.871 35.463 20.523 45.941 29.792-15.665-6.341-80.914-45.775-92.577-36.918l-.216 2.022c2.487 5.539 20.846 14.421 26.667 17.715a1675 1675 0 0 0 59.41 32.712c13.126 6.757 31.406 14.241 43.106 22.679-2.5 34.385-28.1 64.965-63.061 71.685-44.238 7.56-96.31-15.53-132.464-39.89-10.266-6.92-23.601-33.941-35.979-30.497-5.511 7.28 5.04 30.997 8.379 39.177-7.044-6.18-31.521-26.809-39.992-20.976-4.114 11.616 24.487 32.636 32.699 39.126-35.893 9.8-49.177-21.28-84.507-18.25-1.507 3.22-1.349 1.6-.588 5 5.962 7.58 23.093 14.99 31.936 19.28-12.034-.42-56.767-.54-65.53-2.82-3.52 2.05-6.797 4.37-10.161 6.67 15.851 12.27 29.506 9.11 49.07 12.18-8.195 7.55-48.335 34.1-51.684 41.71l2.487 1.33-4.274 3.5c7.797 12.5 71.935-35.34 81.163-40.27l1.199-.63c8.679.77 15.273-.16 25.22.97l-.513 1.74c-15.505 51.57-68.009 76.47-116.659 87.73-21.362 4.94-49.608 11.89-71.09 4.93a58.68 58.68 0 0 1-34.567-30.22c-18.667-39.07 18.008-87.92 32.879-122.68 28.277-66.109 58.629-130.015 99.737-189.264 9.755-14.06 16.388-26.82 32.44-34.227 1.549 6.656 6.109 35.231 15.012 32.772 5.256-7.962 1.815-25.512.561-35.191"/><path d="M905.05 919.44c14.878 2.64 106.65 47.325 123.39 58.701 2.58 1.753 2.17 4.1 2.12 6.556-.49.059-.98.129-1.46.176-11.32 1.1-111.585-45.772-122.811-55.363-1.814-3.384-1.312-6.163-1.239-10.07"/><path fill="#FEFEFE" d="M1233.89 698.365c5.49-.789 11.12-.834 16.63.099 47.58 8.061 97.5 41.994 109.17 91.008 2.08 8.761 1.38 23.491-1.98 31.798-10.55 26.14-22.44 51.775-33.67 77.632a8730 8730 0 0 1-71.97 163.688c-20.21 44.37-22.42 72.97-70.79 95.72a84.4 84.4 0 0 1-47.23 2.36c-32.54-7.71-54.42-29.76-71.64-57.21-12.57-20.04.43-38.4 7.54-57.73 4.74-12.88 10.07-25.43 14.84-38.26l82.78-224.739c7.06-19.251 14.48-38.336 22.89-57.039 2.19-4.865 4.12-9.753 5.39-14.946l.33-1.412c13.42-6.904 22.88-8.807 37.71-10.969"/><path d="M1070.08 1075.54c6.04 3.71 12.08 15.2 17.52 20.62 21.17 21.1 51.72 35.17 81.5 37.73 5.71.49 17.17-.78 21.19.41-1.27 2.92-2.58 3.03-5.68 5.19a52.65 52.65 0 0 1-25.54 7.08c-23.21.52-52.96-13.5-69.33-29.46-13.12-12.78-19.04-23.17-19.66-41.57"/><path fill="#FEFEFE" d="M1043.79 630.491c34.81-.946 77.79 14.189 106.64 33.677 18.4 12.433 28.88 34.822 32.35 56.429l-112.33 297.333c-11.39 30.01-23.69 64.55-63.61 47.44 26.6-15.79 33.71-25.58 46.82-54.1 10.14-23.386 10.9-36.526-7.05-55.638 15.46-1.172 22.12-2.148 37.25-5.818-8.2-2.486-16.44-4.685-24.89-6.104-9.24-1.55-19.7-2.065-28.48-5.265-5.14-1.874-103.107-61.766-108.375-66.305 8.835-19.269 12.139-26.839 16.791-47.471 7.591.343 17.485 1.751 25.199 2.629a403 403 0 0 1-21.895-14.71c1.576-8.198 4.492-18.084 6.678-26.28a256 256 0 0 0 46.988 9.241c-13.815-8.431-29.424-15.022-44.529-20.794 4.616-23.433 29.19-117.259 42.23-130.715 10.483-10.816 36.063-12.879 50.213-13.549"/><path fill="#FEFEFE" d="M1147.96 356.901c15.58 5.752 48.17 13.421 64.57 17.361 31.89 7.658 54.9 16.173 84.7 29.764 13 5.932 27.08 10.856 40.27 17.34 34.56 16.919 66.7 38.058 97.76 60.689 14.37 10.469 30.83 21.461 44.23 33.151 14.07 12.271 26.97 27.067 40.8 39.715 40.1 36.662 72.16 80.475 101.91 125.695 6.65 10.177 19.46 25.651 24.68 35.776 23.79 46.145 46.05 94.6 59.55 144.845 2.85 10.639 6.18 20.279 8.4 30.846 3 14.278 3.28 28.352 5.27 42.709 4.35 23.131 9.62 44.128 12.02 67.838 3.01 29.89 1.01 55.8-.71 85.43-2.56 44.01-7.12 89.84-18.66 132.58-9.37 34.68-19.31 72.95-33.65 105.69-9.07 20.71-22.7 42.68-33.52 62.74-12.18 22.59-23.86 43.78-39.16 64.46-13.81 18.64-28.23 34.02-43.15 51.57-16.6 19.75-32.37 39.8-51.33 57.42-9.27 8.61-19.98 14.65-29.34 22.69-11.08 9.53-19.52 22.65-31.48 31.43-11.53 8.47-24.58 13.25-36.95 20.22-6.69 3.96-13.72 9.5-20.16 14-11.2 7.82-22.27 15.66-34.14 22.48-12.97 7.45-27.4 11.15-40.96 17.23-7.81 3.49-14.76 9.77-22.26 13.93-14 7.13-32.15 10.75-47.01 16.69-53.14 21.2-107.3 30.14-164.04 35.15-13.09 1.16-30.38-.32-44.27.13-19.41.64-38.83 1.83-58.237.66-17.837-1.07-36.63-6.48-54.006-8.55-29.21-3.47-51.861-6.81-80.325-14.28l-15.815-4.29c.315-8.13 1.467-18.21 2.179-26.46 9.841 3.94 22.219 8.78 32.364 11.49 21.62 5.76 46.082 6.62 68.473 9.84 8.18.32 19.707 4.03 27.541 3.98 30.145-.18 69.566 5.71 99.126 3.25 105.16-8.73 217.58-44.96 309.3-97.07 64.63-36.73 130.36-95.12 180.15-150.07 12.18-14.01 28.29-38.3 39.7-53.62 5.18-6.95 11.84-24.94 17.43-33.47 11.68-17.8 26.12-38.35 36.13-56.8 6.92-12.77 11.85-36.41 17.58-49.99 5.13-12.16 10.29-19.17 14.68-32.45 5.99-18.14 6.13-32.47 8.67-51.28 2.99-22.06 9.1-39.61 14.38-60.36 8.86-34.86 8.69-80.72 7.44-117.04-.4-11.72.09-21.91-.86-33.806-1.35-16.992-7.36-34.528-9.51-50.586-2.64-19.696-2.67-32.855-7.86-52.893-8.22-31.696-20.63-60.648-31.8-91.322-4.05-11.126-5.31-22.201-9.41-32.119-3.88-12.379-22.26-28.97-26.49-39.541-13.17-39.069-38.73-61.95-61.72-92.846-23.61-31.711-43.82-56.932-74.49-82.913-13.81-11.704-27.25-27.812-41.92-38.668-21.64-16.013-45.4-29.754-68.68-43.236-47.66-28.253-92.59-51.751-144.45-71.147-5.81-2.172-18.22-2.264-25.64-4.445-21.99-6.458-42.29-14.222-64.49-20.244 2.78-6.766 4.85-12.357 7.19-19.293"/><path fill="#FEFEFE" d="M1407.04 816.433c80.61-6.971 147.27 92.745 80.21 159.923.45-12.254.32-19.58-.67-31.85-10.49 17.256-19.94 36.219-29.91 53.942l-57.94 101.752c-10.64 18.75-30 56.05-43.95 70.81-21.91 21.18-47.95 25.73-75.28 12.13-24.14-12.44-50.89-36.04-39.92-66.17 10.98-30.14 25.17-57.97 37.78-87.19 25.83-59.837 52.36-119.195 77.47-179.312 3.01-7.196 5.69-14.191 9.69-20.907 13.24-7.822 27.29-11.728 42.52-13.128"/><path d="M1249.53 1126.24c2.89 1.65 4.78 3.83 7.34 5.9 15.5 12.55 36.08 20.73 55.26 25.66 4.39 1.13 7.66.27 11.79 3.11l.08 1.71-3.07 2.76c-21.57 14.9-53.99-8.77-69.56-23.28-.68-5.28-1.29-10.57-1.84-15.86"/><path fill="#FEFEFE" d="M856.502 585.405c45.749-2.326 102.069 28.971 116.489 74.304-8.107 34.779-24.539 75.262-35.841 109.741-18.255-6.297-36.277-9.108-55.221-12.244 14.802 8.641 35 17.227 50.95 23.328a992 992 0 0 1-8.15 25.227c-23.588-6.346-36.878-10.714-61.406-14.198 15.839 11.839 37.507 20.237 56.165 26.457-4.479 13.541-10.765 32.429-13.423 46.08l-94.588-58.869c-28.052-16.991-41.36-28.017-72.106-39.942 3.402-5.383 4.448-7.213 6.251-13.381 21.985 7.202 42.099 13.525 65.277 15.873-12.182-9.582-48.115-25.284-63.589-30.896l3.156-11.704c5.609 1.92 20.361 7.74 25.336 5.502l-.384-1.83c-6.367-6.269-16.531-11.031-24.612-15.294 3.177-11.888 10.352-37.229 16.206-47.014 33.634 6.161 63.034 23.444 101.932 28.316-32.937-19.521-56.431-30.294-93.575-41.49-3.18-15.688 2.656-30.138 11.978-42.664 15.629-21.003 45.259-22.457 69.155-25.302"/><path fill="#FEFEFE" d="M904.996 359.403c1.31-.037 1.092.179 2.57.948 2.828 5.001 3.548 10.413 4.774 16.096-18.382 1.953-31.313 8.25-48.586 13.022-24.557 5.203-46.975 15.522-70.244 23.616-38.238 13.3-76.063 29.003-109.203 52.658-10.015 7.149-22.706 13.372-32.678 20.938-38.978 29.571-79.741 61.693-114.01 96.691a705.6 705.6 0 0 0-169.221 292.892c-6.68 22.967-8.353 44.659-11.911 68.12-3.817 29.834-11.473 61.806-11.183 91.926.382 39.65 4.044 80.52 8.199 119.98 2.197 17.99 9.436 35.91 13.017 53.44 13.776 67.52 41.308 131.77 73.846 192.25 7.899 13.23 16.547 28.18 26.821 39.65 24.436 27.26 40.984 59.31 68.227 84.23 34.862 31.88 67.96 66.41 108.085 91.95 18.707 11.9 41.034 20.98 60.333 32.13 35.3 19.59 74.446 38.82 113.254 49.99-.238 8.43 1.872 17.92-1.724 23.95-3.643.98-3.526.18-7.925-1.38-45.546-13.02-61.295-21.83-102.501-44.36-34.533-18.87-61.486-33.55-93.46-58.23-20.776-16.04-42.347-31.21-62.062-48.82-20.128-16.28-34.991-38.24-52.198-56.57-30.62-32.63-55.228-66.38-76.452-105.88-7.261-13.64-19.151-28.51-25.561-42.26-29.366-63-53.402-128.81-58.384-198.68-1.009-14.16-5.242-30.3-6.932-44.85-8.83-75.97-2.798-154.366 15.025-228.669 4.177-17.336 11.504-35.061 15.776-51.596 6.551-25.36 8.886-37.49 19.983-61.802a745.6 745.6 0 0 1 58.163-102.582c10.317-15.041 21.469-29.652 32.397-44.251 8.251-10.542 14.761-23.286 23.187-33.599 23.472-28.729 51.891-54.921 78.838-80.34 10.138-9.564 26.468-17.866 37.608-26.601 10.698-8.39 21.779-17.188 32.965-24.551a791 791 0 0 1 183.021-89.131c28.811-9.793 48.041-16.308 78.146-20.325M1033.85 133.53c3.23 7.214 6.96 48.188 8.15 58.281 2.52 20.447 5.21 40.873 8.05 61.276 3.3 22.986 8.24 45.275 11.31 68.233 12.41-13.144 37.1-46.144 49.62-61.857l86.2-106.51-57.17 175.781c-8.51 26.064-17.41 50.499-25.7 77.049-4.79-13.899-18.86-64.814-33.03-73.46-6.01-3.669-15.31 24.953-17.7 30.92a1164 1164 0 0 0-26.14 71.534c-7.2-10.784-15.01-24.634-22.34-36.097-5.02-8.617-18.138-29.537-25.145-35.393-1.287-.195-1.879-.633-3.015.218-12.053 9.029-22.083 112.289-25.417 133.829-11.251-29.549-19.99-71.569-28.364-102.458-20.917-77.151-38.826-155.088-58.006-232.779 10.607 17.759 20.792 38.362 30.965 56.699a3197 3197 0 0 0 64.35 111.538c4.815-22.29 19.185-56.09 26.838-78.53 8.684-25.466 16.764-50.64 24.084-76.576 3.7-13.119 9.83-28.78 12.46-41.698m-7.22 1155.99 1.85 2.03c-1.89 11.35-2.29 29.62-4.66 38.86.77 4.45.22 9.45-.21 13.98-3.17 34.04-5.63 68.09-9.73 102.04-.56 4.65-.98 10.81-.36 15.48 3.11 1.23 6.45 1.73 7.4 4.73.83 2.63.65 6.23.04 8.85-4.12 17.93-8.61 36.15-12.92 54.01a6368 6368 0 0 0-24.482 105.16c-3.597 16.36-8.051 33.34-9.815 50.04l-2.069-1c3.412-36.7 7.537-73.34 12.375-109.88 1.114-8.12 9.852-54.9 6.948-59.05-5.288.95-3.725 3.69-7.087 3.67.869-10.48 6.056-23.51 6.455-32.92 1.066-25.1 5.494-45.24 10.465-69.53 5.71-28.67 11.91-57.24 18.58-85.7 1.16-12.11 5.61-27.12 7.22-40.77m59.88 42.16c1.17 5.02.74 35.36.71 42.17-.08 22.23.72 44.83.6 66.99-.22 40.22-4.24 78.07-9.38 117.95 7.08-1.93 11.88-2.76 19.16-3.92-5.05 19.29-5.87 39.9-8.98 59.51-4.26 26.87-5.55 56.07-11.04 82.52-.64 3.37-.71 4.76-2.4 7.8-1.05-5.1-.54-12.17-.45-17.47.77-41.13.44-82.26.32-123.4l-11.96.97c2.14-62.07 2.51-119.63 14.82-180.96 3.41-16.97 4.52-35.22 8.6-52.16M876.694 1057.2c9.856 4.07 109.088 41.27 111.364 44.43-16.081-5.71-103.983-34.85-111.364-44.43"/><path fill="#C6C8CC" d="M973.743 1684.7c-.222 4.18-.06 5.6-1.513 9.42l-1.034-.44c-.544-4.6-.291-5.31.478-9.98z"/><path fill="#636064" d="M1026.63 1289.52c.28-3.74-.19-4.6 1.67-7.44 1.3 2.97.75 6.25.18 9.47z"/></svg>