<svg xmlns="http://www.w3.org/2000/svg" preserveAspectRatio="xMidYMid meet" viewBox="0 0 2048 1462"><path d="m183.998 137.417 1194.482 28.959 347.66 7.078 94.56 1.402c41.89.406 87.61-5.784 113.62 34.819 19.18 29.939 13.16 55.872 6.61 87.758a4789 4789 0 0 1-13.92 64.935l-36.83 176.745-141.01 673.797c-6.6 25.57-10.08 62.42-24.58 83.68-20.99 30.77-72.51 23.97-106.56 24.57l-122.29 2.79-439.16 10.73-542.96 11.76q-69.672 1.005-139.328 2.79c-25.605.62-51.129 1.4-76.781 1.47-26.592.06-53.045-19.63-57.504-46.43-2.511-15.09-3.939-30.86-5.631-46.13l-9.774-90.43a25528 25528 0 0 1-31.531-297.567c-21.87-219.091-48.72-437.918-69.596-657.154-3.91-41.058 17.845-72.266 60.523-75.572"/><path fill="#fefefe" d="M186.136 155.471c55.037 2.265 112.286 2.711 167.508 3.87l195.124 5.126L1443.5 186.42l283.57 5.544 104.24 1.385c32.08.614 67.81-4.514 87.47 26.625 17 26.935 8.92 51.015 2.92 79.274l-13.17 63.029-47.84 226.913-124.48 595.04c-5.97 23.69-14.7 86.63-27.01 102.39-7.1 9.08-15.13 13.12-26.41 14.35-15.43 1.67-31.51 1.1-47.03 1.66-41.19 1.43-82.38 2.47-123.59 3.11l-337.7 8.08-618.087 13.44-179.744 3.62c-27.241.51-54.503 1.11-81.737 1.38-14.935.15-33.084-12.66-35.608-27.79-2.599-15.58-3.919-31.89-5.56-47.64l-8.265-75.37-31.927-297.05-41.169-387.548a19935 19935 0 0 1-30.547-287.939c-1.341-14.672-.902-24.817 9.235-36.57 9.933-11.517 20.475-15.57 35.075-16.882"/><path d="M224.536 211.089c11.544-.609 28.331.397 40.484.622l87.381 1.798 279.403 5.178 723.866 12.792 371.4 5.958 94.72 1.52c14.61.194 36.87-1.032 50.61 1.755 31.69 6.429 14.97 51.633 10.87 70.472a5565 5565 0 0 0-12.07 58.591l-41.56 203.291-75.3 359.662a5701 5701 0 0 1-26.03 120.652c-4.74 21.76-9.42 45.46-15.06 66.86l-18.3 81.38c-1.79 7.82-10.02 51.33-17.15 51.89-12.67 1.01-32.56.62-45.8.87-58.37 1.43-116.75 2.57-175.13 3.41l-591.869 12.28q-249.317 6.405-498.687 10.14c-32.616.26-61.101 3.96-64.224-37.64-1.18-15.72-3.026-33.1-4.589-48.89l-16.309-164.85-60.974-631.71-10.851-105.516a7417 7417 0 0 1-4.702-45.538c-1.972-19.794-.388-28.186 19.871-34.977"/><path fill="#fefefe" d="M239.483 229.079 1459 251.633l300.32 4.772 77.4 1.37c8.89.13 31.41-2.309 36.05 4.736-.11 15.604-10.92 62.444-14.52 79.848l-28.66 141.407a30478 30478 0 0 1-90.83 434.516 8933 8933 0 0 1-44.39 204.008c-7.86 34.96-16.99 78.88-26.39 113.27-6.35.45-19.51 2.01-25.08.06-2.14-.75 2.81-30.08 3.21-32.9l7.56-53.87c4.05-28.66 7.56-54.89 10.39-83.74 4.89-49.84 12.18-99.454 9.19-149.767-1.41-23.886-5.3-46.941-10.94-70.155-12.47-51.013-30.34-101.615-80.44-126.91-10.06-5.076-22.9-9.482-33.53-13.357-5.65-2.063-10.1-.483-14.17-2.988-1.83-3.751-1.27-7.597-1.71-11.644-3.49-32.215 3.33-48.289 30.92-64.326 3.83-2.116 9.37-5.177 13.32-6.882 67.22-30.071 90.08-97.942 84.43-166.827-7.68-103.82-105.69-163.633-203.37-149.279-31.21 4.586-54.59 17.746-88.58 16.55-19.2-.676-51.24 14.077-63.54 29.471a51.2 51.2 0 0 0-10.64 37.915c1.95 17.003 10.37 26.144 23.09 36.199-4.52 10.41-7.89 22.72-10.43 33.929-2.13 9.349-2.14 37.059-7.48 44.472-4.96 6.882-25.95 17.273-31.23 24.639-4.24 14.384 7.8 29.296 19.48 36.237.11 2.219.22 4.56.5 6.684 6.14 45.408 14.48 100.648 71.24 104.586 13.67.949 22.78-.457 36.22-2.341 2.26 11.591 2.18 18.525 2.1 30.131-39.27 8.252-64.78 14.489-99.27 37.983-14.55 9.907-34.55 25.197-49.07 33.734-10.43-11.454-21.18-20.944-27.44-36.031-10.62-25.612-11.12-52.695-19.6-80.146-8.81-28.502-24.34-48.704-30.93-77.347-7.83-34.066-8.74-67.505-18.57-101.152-11.4-39.042-41.87-78.845-77.86-98.062-30.8-16.447-89.791-22.532-123.369-11.83-27.945 8.906-56.945 28.929-70.385 55.612-26.642 52.895-12.384 121.139 5.204 174.434-9.472-3.844-21.263-10.838-30.383-15.931l-57.659-32.905-177.097-100.048-258.748-147.175a5271 5271 0 0 1-75.295-44.152c-15.298-9.025-34.022-19.571-48.535-29.352"/><path fill="#fefefe" d="M230.821 245.574c15.222 5.887 36.699 21.632 51.583 30.007 36.188 20.361 72.012 42.51 108.156 62.84l330.656 187.456 117.31 66.305c18.386 10.365 36.947 20.306 55.206 30.918 13.258 7.705 16.633 20.959 28.118 30.121 16.451 13.123 46.327 14.473 53.902 37.32.523 1.578-.541 1.231-1.029 2.574-12.085 5.378-24.255 10.706-35.842 17.105-38.2 20.537-62.847 39.649-85.688 76.947-20.921 27.517-33.996 67.326-48.654 98.437-1.196 2.537-3.01 7.052-5.36 8.484-9.823-9.194-76.213-30.474-92.087-37.564-3.936-1.758-16.428.183-17.34-.819-30.328-33.353-49.901-76.978-86.389-105.47-49.876-37.434-96.229-43.941-152.213-20.499-8.294-13.03-15.198-31.57-21.688-45.899-8.934-19.723-17.948-39.419-26.94-59.117L290.603 374.967c-12.972-28.985-25.111-57.997-39.128-86.649-6.82-13.942-13.056-29.28-20.654-42.744"/><path d="M274.401 293.221c2.028-.152 7.7-.573 9.542.557 10.055 6.168 23.265 17.949 27.721 29.167 1.421 3.576-.028 7.614-1.443 10.6-1.299-.082-6.142-.371-7.089-1.053-11.631-8.38-23.64-19.598-30.226-32.477-1.222-2.389.476-4.767 1.495-6.794m36.718 86.363c11.773.912 28.965 32.638 32.375 43.501.875 2.791-.827 4.828-2.164 6.969l-4.229-.132c-6.352-4.311-24.956-34.472-28.059-43.419-.996-2.874.619-4.426 2.077-6.919m127.689 165.798c11.435 3.272 30.581 32.904 35.802 44.196 1.011 2.187-1.69 4.773-3.002 6.353l-3.551-.324c-6.537-3.844-28.062-35.243-31.791-42.54-.041-4.417.171-3.408 2.542-7.685m62.181-52.864c1.32-.002 3.833.075 4.853.86 8.34 6.424 34.431 26.22 36.975 35.15-.582 4.093-.092 2.56-3.42 6.309-.462.022-2.328.148-2.657.01-7.513-3.141-34.42-28.977-37.949-34.164-.349-4.268.282-4.011 2.198-8.165M350.68 353.617c7.758 2.294 36.374 27.224 37.323 35.348-.78 3.756-1.676 4.395-4.346 7.24-6.223-2.266-36.127-29.414-37.093-35.076.477-3.548 1.869-4.707 4.116-7.512m26.986 108.789c9.523 1.311 29.047 31.958 33.752 40.729-.003 3.432-1.336 4.476-3.266 7.77-.688-.029-4.09-.241-4.648-.797-10.21-10.165-21.696-28.142-28.048-41.22-1.052-2.166 1.26-4.953 2.21-6.482m51.214-41.003c8.769 5.096 35.071 25.077 38.674 34.197-.227 4.039.177 2.539-3.195 6.134-1.27.163-4.097.509-5.31-.6-9.495-8.681-27.604-20.564-32.735-32.199-1.012-2.295 1.495-5.846 2.566-7.532m79.712 216.958c10.256.924 28.546 30.304 34.282 39.222 1.506 2.341-.118 5.03-1.038 7.211-11.346 1.133-29.095-29.759-34.481-38.945-1.309-2.233.262-5.367 1.237-7.488m73.215-70.87c7.171.62 32.6 23.354 36.792 29.962-.029 4.236-.499 3.714-2.787 7.61-8.38-.222-32.237-23.246-36.119-30.767-.267-4.116-.468-2.498 2.114-6.805"/><path fill="#fefefe" d="M226.349 275.809c3.431 4.124 15.249 31.672 18.11 38.09 18.158 40.74 35.341 82.155 53.698 122.821l92.578 204.507a6505 6505 0 0 1 31.173 69.3c4.183 9.476 8.614 19.396 12.63 28.978.987 2.355-.541 4.483-1.48 6.304-4.79 8.26-.393 13.488 4.591 19.905-1.066 5.122-2.062 6.559-1.118 11.709.768 4.19 6.192 8.119 6.402 9.1 4.02 18.819 4.711 21.745 29.53 20.646 7.558 15.308 14.391 31.953 21.348 47.625a4854 4854 0 0 1 41.273 94.404c32.71 76.052 68.066 151.192 101.503 226.942 11.636 26.36 22.942 54.01 35.734 79.77-28.558.96-57.126 1.62-85.698 1.96-12.428.25-38.94 1.34-50.227.08-1.469-5.77-6.299-18.33-8.413-24.87l-20.695-64.26c-28.75-90.09-58.6-179.375-86.491-270.593-12.202-39.904-29.096-104.816-44.402-146.708-.444-1.217-1.514-.972-3.233-1.234-1.273.555-2.346.687-2.799 1.696-1.206 2.691.372 9.984.971 13.074 5.845 30.14 13.013 60.037 19.43 90.07a22329 22329 0 0 1 54.993 258.035c2.739 16.31 7.628 35.53 10.704 52.38 3.446 18.88 7.755 37.45 10.859 56.6 1.467 9.05 5.213 20.53 5.997 30.5.113 1.44 1.757 3.82 2.18 6.85-6.851 1.08-31.172 1.51-38.177.82-5.996-5.78-79.77-353.851-87.284-391.556-5.641-28.31-17.009-91.271-24.857-122.761-2.203-8.841-5.571-25.512-8.131-35.153-.642-2.42-2.605-3.113-4.43-3.873l-1.775.923c-2.416 4.737.267 21.318 1.128 27.255 21.08 145.417 33.479 291.865 51.031 437.665 2.233 19.21 4.317 38.44 6.252 57.68 1.039 10.58 1.513 20.88 3.251 31.38-7.666.8-15.632 1.15-23.334 1.35-13.328.33-26.617-.21-28.231-16.53-2.957-29.9-5.779-59.77-8.613-89.66l-16.473-168.381-24.53-245.204c-5.344-52.661-11.515-106.435-15.738-159.135 4.68-5.12 4.594-4.801 3.594-11.419-1.737-13.46-3.274-26.724-5.345-40.145-13.094-84.844-18.982-171.614-27.486-256.937"/><path d="M300.398 481.843c7.951.019 9.301 6.801 11.327 14.031 3.765 13.433 19.727 56.151 14.089 67.916-1.81-.343-4.703-.521-6.182-1.539-3.733-2.568-19.921-64.287-21.128-71.689-.641-3.932-.387-5.533 1.894-8.719m-12.721 89.398 2.684.894c6.008 7.437 19.124 65.598 14.564 73.979-3.008.278-3.254.424-5.921-.756-3.57-5.18-6.895-20.665-7.862-27.492-1.941-13.7-9.807-34.041-3.465-46.625m51.259 41.901 3.096 1.418c5.982 7.222 17.686 53.039 18.701 64.742.375 4.332-1.157 5.408-3.642 7.937l-3.579-1.994c-4.626-6.142-17.065-54.935-18.064-65.775-.291-3.163 1.564-4.358 3.488-6.328m-65.424-142.148c1.801.733 2.439 1.299 4.023 2.408 4.189 8.075 9.248 48.255 8.517 58.918-.285 4.151-1.994 5.44-5.142 7.776-.869-.67-1.724-1.344-2.518-2.104-4.31-4.123-10.651-52.587-10.201-60.493.158-2.781 3.381-4.766 5.321-6.505M239.77 339.263l3.272.524c7.824 5.344 12.514 50.864 8.993 60.394l-4.532-.103c-8.122-4.769-11.496-51.026-7.733-60.815m38.705 73.127c2.799.205 2.672.225 5.027 1.402 5.2 6.994 10.667 42.694 5.716 50.762l-3.045-1.196c-3.107-6.071-7.83-34.616-9.834-42.92-.812-3.368.19-5.367 2.136-8.048m-28.005 15.084c1.61.025 4.987.429 5.659 1.883 4.852 10.5 3.943 31.478 2.473 42.38-2.162.409-2.284.267-4.5-.03-6.829-6.573-6.923-35.247-3.632-44.233"/><path fill="#fefefe" d="m841.724 1096.14.111-.72c1.214-8.44.349-29.68 4.5-33.91 32.362 16.99 62.351 36.78 98.543 45.06 36.087 8.26 77.772 10.25 112.132-5.78 17.21-8.02 34.64-18.82 51.09-28.44l114.02-66.67c11.61-6.875 58.28-37.956 67.73-35.426l1.08 1.833c-2.84 10.274-66.31 40.813-73.38 51.053-2.13 3.08-4.34 59.93-4.74 66.67l-3.93 73.21c-.77 14.14-2.21 27.09-1.45 41.33.51 9.64-6.6 31.79-2.19 40.02-8.03 1.9-34.34 1.67-43.77 1.78l-61.83 1.23-182.499 3.8c-23.84.39-60.806 2.54-83.033 1.12-2.893-4.18 2.525-55.89 2.349-64.11-.14-6.55 2.704-7.52-1.545-14.85.672-2.36 4.112-7.47 3.731-8.83-1.161-4.15 3.573-63.82 2.572-62.63.981-2.63.84-2.87.509-5.74M489.582 803.291c80.746-5.189 77.365 116.183 156.141 122.111 36.226 34.944 85.922 63.986 126.434 93.708 1.665 4.26-6.406 40.55-7.731 48.16-9.411 54.07-13.341 104.85-16.843 159.29-.793 4.64 2.081 25.15-.48 26.18-10.73 4.31-45.132 3.23-56.165 3.36-5.442-10.33-11.193-25.38-16.127-36.41a7694 7694 0 0 1-39.083-87.88L512.245 852.928c-2.724-6.227-22.362-46.734-22.663-49.637m485.604-94.362 1.731.289c.501 3.992.135 8.081.984 11.919 6.326 28.589 34.929 32.525 59.099 27.294.61 35.316-2.9 71.365-3.23 106.692-.03 3.58.87 4.044 3.2 6.083 5.39 1.432 36.31-10.74 43.75-13.14a8371 8371 0 0 0 133.2-45.261c-10.15 9.785-24.16 19.34-35.39 27.9a2402 2402 0 0 1-88.09 63.759c-76.38 55.461-115.484 90.654-207.784 34.911-7.13-4.307-21.196-7.601-27.362-13.655-3.672-17.183 22.524-108.215 29.485-130.134 13.433-42.303 53.917-58.03 90.407-76.657m387.784-315.122c3.09.913 2.91 4.673 2.98 8.126-2.02 23.863 29.29 53.684 49.67 61.825 36.8 14.697 18.26 40.361 27.32 52.289 4.18.88 6.69-3.016 10.63-4.67 19.86-8.337 33.87 1.177 41.74 19.175-5.08 20-13.67 40.207-34.78 47.811-7.54 2.715-7.19-1.604-13.51 2.448-3.91 8.05-2.5 25.889.69 34.648 9.11 25.047 31.23 40.492 54.27 51.69 4.81 2.338 9.8 3.437 15.49 6.201-1.23 8.655 3.48 16.988 1.85 23.867-1.45 1.713-2.59 3.129-5.27 2.89-20.39-1.821-41.28-4.989-61.73-3.108-2.23.205-2.09.633-4.52.037-9.09.189-26.79 2.079-34.14 1.228-3.02-3.716.16-35.659-9.41-40.75-5.09-2.498-16.51 1.095-22.23 1.998-33.28 5.251-60.36-9.326-69.58-42.624-.74-2.677-3.77-4.501-4.34-8.522 2.85-3.008 34.07 1.725 43.41-10.966.68-4.197.79-2.456-.79-6.697-3.51-2.572-9.91.221-13.92 1.624-42.86 15.018-27.49-12.278-38.81-38.725-4.81-3.888-22.17-16.301-16.32-23.702 8-2.15 11.63-7.655 17.86-11.683 24.09-15.546 14.06-41.109 22.16-65.146 7.32-21.727 20.4-47.58 41.28-59.264"/><path d="M1331.86 486.834a82 82 0 0 1 4.8.516c18.59 2.608 42.38 15.044 18.49 32.929-5.55 3.461-10.71 6.264-17.1 3.473-5.04-6.338-1.82-15.363-3.15-22.594-.23-1.287-5.17-1.491-6.93-7.911.78-3.604 1.13-3.715 3.89-6.413m3.79-45.609c12.58 1.528 51.37 22.466 45.5 35.196-3.1 2.134-3.51 2.373-7.23 2.82-7.1-6.496-17.44-14.772-26.05-19.03-7.05-3.484-14.58-.648-19.9-6.569-1.41-6.528 1.75-9.947 7.68-12.417m134.86 87.945c5.53.709 5.58 1.099 7.66 5.906-1.17 6.833-5.95 3.508-9.81 5.409-3.82 1.877-9.7 8.314-12.98 11.516-3.25 1.372-4.82 2.334-7.54-.227-1.48-10.887 13.23-20.29 22.67-22.604"/><path fill="#fefefe" d="M909.303 409.619c6.4 15.434 32.51 36.826 46.073 47.843 3.91 3.177 13.024 6.854 16.012 10.673l-.257 1.858c-5.225 3.112-38.307 4.124-25.761 18.96 3.366 1.587 45.789-3.648 51.596-4.963l37.494 17.947c4.21-1.513 8.73-3.49 13.11-4.387 4.57-.937 10.32-.131 14.17 2.54 7.95 5.519 10.56 18.572 11.96 27.453 5.3 33.781-23.42 31.517-26.17 46.321-4.43 23.798-5.96 151.382-11.65 159.289-8.87 4.89-31.4 3.941-38.766-3.655-5.852-6.035-2.939-27.866-3.184-36.738-.394-12.324-9.063-22.659-18.832-29.269 10.535-2.833 35.102-11.08 39.722-20.841-.34-3.479.26-2.163-2.4-4.741-6.85-2.476-24.13 9.814-36.146 11.559-15.255 2.215-23.964 4.12-38.653-4.573-7.184-4.253-20.986-21.374-22.488-28.292l1.065-.982c11.621 6.088 41.461 5.578 49.236-5.577.207-2.699.34-3.168-1.631-5.752-5.014-6.574-12.107 1.342-21.202 2.002-11.127.807-16.077-3.378-26.614-4.02-2.18-.132-3.878 2.757-5.488 4.693-1.284-1.4-9.242-18.829-11.127-24.217-8.296-23.708-18.721-62.313-15.465-87.363.366-2.82 15.063-.407 21.024-2.518 3.521-3.738 2.666-9.22-.594-12.942-6.021-3.396-14.241-.708-21.222.661l-.731-1.018c-.056-27.84 10.98-48.527 26.919-69.951"/><path d="M924.765 516.76c2.618.174 3.198.015 5.255 1.684 5.136 9.61 4.186 37.558-5.524 45.077-17.808 1.697-9.066-17.892-7.508-28.642 1.11-7.662 1.507-13.25 7.777-18.119m47.213-2.842a10.845 10.845 0 1 1 2.976 21.486 10.845 10.845 0 0 1-2.976-21.486m-71.922 7.012c14.135.027 18.734 11.004 8.023 19.901-12.671 3.344-20.241-11.873-8.023-19.901"/><path fill="#fefefe" d="M501.004 726.736c2.559.883 18.09-.085 22.334.532 70.515 10.241 107.001 65.666 143.083 120.686 3.114 4.748 11.371 13.233 12.556 16.161-1.877 7.102-15.61 22.836-19.829 30.258-3.641 6.404-4.412 13.532-8.311 18.707-3.907 1.724-19.782-3.772-23.798-5.622-40.743-18.779-55.056-91.233-102.43-110.54-31.542-12.855-51.959 4.791-66.222.054-2.758-.916-3.765-1.59-5.135-4.069.333-1.689 3.733-6.087 5.168-6.708 34.177-14.789 68.944-10.735 97.903 13.5 2.215 1.854 1.252 2 4.276 3.511l1.858-.831c2.407-2.98 2.711-3.113 2.932-6.76-2.254-6.899-14-12.393-20.902-17.118-21.693-14.37-53.87-15.198-77.613-6.304-6.228 2.332-12.657 6.469-19.045 3.97-.939-2.123-1.574-3.391-.294-5.712 5.734-10.163 10.669-2.413 18.8-5.453 35.9-13.423 68.057-3.954 97.66 18.348 1.793 1.35 3.904.668 5.697-.097 1.411-2.325 1.71-2.376 1.578-5.137-3.512-5.558-7.706-7.097-12.568-10.677-22.468-16.587-48.833-21.405-76.177-17.302-7.925 1.189-34.881 10.366-40.028 6.729l-.32-2.089c4.491-8.254 11.671-3.273 16.068-4.046 25.575-4.497 52.383-11.943 77.89-2.42 9.14 4.421 17.638 10.728 26.395 15.735 5.274 3.016 14.621 10.709 20.171 6.296 1.374-8.805-14.728-15.468-21.261-20.339-26.268-19.582-57.008-19.056-87.591-13.22-4.928.941-8.92 3.635-14.264 2.825 2.691-6.259 33.89-11.303 41.419-12.868m287.9 302.744c4.792 4.04 32.445 16.35 42.444 23.76-4.839 14.42-3.916 46-5.378 62.38-3.96 44.37-4.539 91.72-9.119 135.78-3.808 3.07-16.648 2.55-22.101 2.67-6.585.06-27.588.65-33.086-.87.169-29.54 1.881-59.1 4.007-88.67.64-8.91 7.298-31.66 4.157-41.09-.713-2.14-1.227-1.69-1.076-4.67 7.389-6.21 5.245-17.41 5.155-26.73.921-1.34 1.579-1.72 2.988-2.51 1.043-6.99 2.211-14.08 3.037-21.09 1.538-13.07 5.568-26.2 8.972-38.96m826.286-128.134c3.56.319 5.67.121 8.5 2.217 3.38 5.807-5.03 43.442-5.69 52.475-1.75 23.932-6.11 48.182-9.59 71.922l-28.89 201.81c-1.32 3.67-1.91 12.57-10.35 8.42-1.46-1.98-2.62-3.66-2.11-6.24 3.29-16.88 6.1-33.73 8.79-50.71l16.54-109.32c8.74-55.84 15.06-114.406 22.8-170.574M861.308 800.591l1.507 1.904c-10.892 34.51-17.546 71.404-24.533 106.807-2.807-.438-6.272-2.512-8.905-3.872-3.164-.199-11.061-4.812-13.535-7.023 2.138-8.203 7.971-18.01 11.497-26.19 5.725-13.279 10.992-26.112 17.489-39.047 3.448-6.864 12.698-21.86 14.895-28.115z"/><path d="M1515.03 1042.75c4.05 0 3.17-.6 5.98 1.32 1.17 3.2.94 3.55.37 7.05l-.71.4c-.7-1.75-.68-3.97-.81-5.91z"/></svg>