<svg xmlns="http://www.w3.org/2000/svg" preserveAspectRatio="xMidYMid meet" viewBox="0 0 2048 1152"><path d="M2048 675.058c-3.1 6.377-9.82 12.987-12.92 19.831-13.32 29.383-31.69 51.768-59.66 68.993-5.69 3.506-40.5 16.921-48.57 14.705-1.53-.42-3.37-1.99-3.8-3.497-3.68-11.256 7.93-33.259 12.47-45.249 8.31-21.959 28.46-42.083 48.53-53.263 2.55-1.872 13.31-4.313 15.05-5.786 13.55-11.454 26.04-16.322 44.22-14.18.37.044.25 2.261 2.52 3.248l.37-2.229 1.79-.813zM0 661.173c3.848-1.91 1.932-4.286 3.893-4.506 12.76-1.433 24.86.572 36.198 8.163l.128 2.176c1.912-.275 2.066-.451 3.76-1.253 2.96 2.977.898 3.914 1.556 4.102 9.64 2.754 5.07-.356 11.949 5.249 4.799 3.91 19.003 11.225 25.05 15.767 17.624 13.237 46.549 63.338 44.504 84.765-16.276 20.402-103.026-44.46-103.592-65.887C23.363 706.606 3.27 678.987 0 676.204z"/><path d="M995.312 117.245c-11.973-17.874-12.398-39.692 7.008-52.401a36.15 36.15 0 0 1 27.55-5.335c29.19 6.225 33.57 35.452 19.62 58.488 43.32 2.759 86.5 4.408 129.34 11.618 63.7 10.721 129 32.388 186.41 61.839 44.34 22.745 49-15.522 63.62-15.909 5.48 3.454 5.69 8.544 1.97 13.719-8.79 12.21-18.11 18.707-32.21 23.569 11.01 25.271 24.19 51.798 36.03 76.873l40.7 88.144c18.64 40.366 35.75 81.935 54.3 121.99 6.11 1.895 12.18 2.7 15.04 8.123-.01 4.877-3.68 7.64-7.03 10.999-23.83 23.844-59.4 41.963-92.34 48.919 45.92 35.951 45.54 51.533 45.33 108.729-.06 18.798-11.39 131.039-5.61 138.334l1.69-.221c1.38-5.689 1.86-12.33 2.78-18.172 6.87-44.015 9.71-88.559 16.25-132.609 5.08-34.27 9.68-73.182 42.88-92.38 15.1-8.735 36-14.462 53.28-16.183-15.01-12.067-28.23-26.66-29.92-46.922-4.91-59.241 63.25-109.194 114.37-67.198 34.62 28.435 34.77 87.041-3.4 112.954 57.26 14.735 81.58 32.27 87.23 96.831 1.72 19.603-1.75 40.556-3.64 60.214a8464 8464 0 0 0-10.64 107.818c-1.14 13.156-3.43 33.629-3.5 46.489 7.89 2.971 71.92 21.452 75.76 20.564 1.45-2.606 1.28-1.377.55-4.638-1.44-6.485-13.23-19.142-15.14-23.393-8.37-18.654-12.76-41.17-15.78-61.325-.5-3.308 1.79-12.146 2.44-15.915 1.04-1.814-2.61-2.844-2.63-3.016-.8-6.583 1.19-14.064 3.57-20.129 2.81-7.195 16.3-6.485 21.21-1.435l3.56.414c2.26 2.035 13.05 12.523 14.24 14.564 10.2 17.421 18.39 33.3 14.79 54.335-2.2 12.856-5.47 23.576-7.4 36.221-.41 2.696-5.85 8.772-6.46 13.548l1.15.653c5.69-5.724 12.47-20.977 16.71-28.064 29.25-48.868 44.97-99.555 52.5-155.875.47-3.543 1.61-18.767 2.26-20.856 3.36-10.367 3.87-57.398 2.54-69.457-7.5-68.006-23.19-138.27-51.47-200.709-6.52-14.219-29.97-44.525-40.17-56.937-16.41-19.551-36.17-36.103-54.07-54.11-10.19-10.254-19.05-22.321-29.6-32.702-18.47-18.164-29.29-7.385-51.3-8.738-36.68-2.255-103.92-28.938-114.35-67.962 1.29-4.551 1.12-6.768 4.14-9.713 5.25-1.969 38.76-3.058 46.84-3.746 2.38-.202 3.96 5.603 11.29 5.099 22.41-1.542 54.66 16.747 70.7 30.929 12.9 11.407 11.92 28.476 24.12 40.093 42.27 41.885 107.85 92.288 137.26 143.909 31.54 55.368 52.92 152.646 58.83 216.05 5.62 60.281-7.53 141.866-30.5 197.307-11.57 27.378-28.2 55.939-41.94 82.406-2.12 3.768-5.79 5.785-6.91 10.535 3.02 2.908 20.61 8.132 28.09 11.656 28.29 13.334 69.92 30.176 76.75 64.961.39 2.008-.49 2.914-1.61 4.327-2.83.609-3.17.583-5.92-.351-6.01-5.632-7.77-15.716-14.93-23.056-20.47-20.987-62.28-37.635-89.49-47.04-10.75 14.254-22.18 27.606-33.67 41.251-8.79 10.431-17.21 21.182-27.01 30.697-21.55 20.931-129.12 100.083-155.53 103.173-1.89.22-3.35.04-5.12-.63-7.45-9.66 10.24-14.63 15.86-17.57 33.55-17.56 64.31-40.41 94.5-63.129 8.35-6.284 17.19-12.452 25.44-18.885 21.79-21.507 55.31-54.188 70.79-80.047-10.76-4.688-27.2-9.083-38.78-12.347a1433 1433 0 0 0-112.17-25.732 3016 3016 0 0 0-373.15-43.497 5254 5254 0 0 0-274.8-6.518 4432 4432 0 0 0-347.127 11.185c-106.308 7.362-214.043 18.114-318.602 38.995-36.012 7.191-102.631 21.845-136.903 35.215a61 61 0 0 0-6.798 3.147c22.407 24.951 51.385 64.52 77.147 84.124 39.806 30.289 83.184 61.019 127.684 83.709 3.305 1.61 6.313 3.94 7.747 7.45-.496 3.59.087 2.21-2.63 5.17-10.14 3.02-60.747-27.84-71.795-34.62-11.366-6.97-25.628-20.61-37.628-28.71-21.696-14.63-45.399-30.179-62.52-50.135-4.779-5.57-9.539-11.876-14.152-17.6l-36.647-44.909c-29.248 10.1-57.045 23.638-82.408 41.444-9.699 6.81-18.866 32.091-28.494 28.909-1.21-2.527-.584-5.247.358-7.786 14.031-37.803 69.33-59.088 103.975-72.064-10.586-12.43-18.775-30.008-26.229-44.788-12.928-25.634-30.702-54.231-36.909-82.803-5.679-26.142-13.951-61.599-17.481-88.142-2.392-17.993 3.345-46.37 2.65-65.117 6.971-77.726 20.735-170.54 63.907-236.837 18.135-27.85 48.312-55.771 71.863-78.569 14.996-15.433 29.698-31.15 45.376-45.904 1.717-2.065 13.465-9.638 14.27-11.492 7.524-17.294 18.409-38.455 35.91-47.323 18.418-9.333 36.592-19.165 57.137-22.783 5.331-.94 16.865-5.858 20.642-2.218l-.425-.909.129 2.574c11.948-5.435 8.141 1.782 18.142-2.197 3.506.784 4.274 1.591 7.008 3.736l.906-.49c13.983-7.456 18.174 6.716 14.713 15.053-6.05 12.089-21.082 20.079-29.407 30.833-6.477 8.367-42.262 20.034-46.605 24.221-10.519 10.141-82.297 8.355-80.707 7.048-18.616 15.305-39.289 41.95-55.885 59.891-26.347 28.099-58.23 57.594-76.434 93.044-39.229 77.282-48.586 168.528-52.187 254.056-.271 6.436 3.633 12.317 4.396 18.429 3.136 25.123 7.708 54.251 13.027 78.817 6.401 29.57 22.326 60.62 36.301 87.121 4.34 7.68 11.765 23.251 18.173 28.813l1.142-.468c-.909-3.595-2.369-11.589-3.301-14.36-6.746-20.058-11.098-42.748-1.675-62.774 3.78-7.977 7.986-13.511 13.742-20.063.698-.793.676-3.119.646-4.293 11.973-13.052 40.851-19.887 38.177 1.522-3.692 29.566-4.459 63.768-15.586 91.649-3.883 9.729-20.581 15.333-17.095 26.74 3.31 1.007 59.447-18.774 67.696-19.462.88-.073 9.657-2.868 10.896-3.333a11761 11761 0 0 1-15.045-144.876c-3.756-42.72-12.78-95.232 16.87-131.06 17.162-20.737 39.963-29.441 65.971-33.137-32.838-25.11-34.202-70.898-10.079-102.478 41.563-54.408 116.961-20.495 124.379 40.124 3.157 24.201-10.157 49.725-30.765 62.586 40.664 4.093 73.248 18.946 84.967 61.536 15.704 57.067 14.65 115.169 26.171 172.791 1.176 5.882-.745 21.115 4.929 26.228 2.398-9.027.262-14.559.797-22.664 4.087-61.973-34.229-189.037 32.354-227.301q1.299-.744 2.616-1.454c-31.368-2.433-72.679-24.948-93.444-48.868-1.845-2.125-2.963-3.844-2.913-6.731 2.972-5.055 12.666-8.415 17.943-11.702a5731 5731 0 0 1 80.435-186.854c13.826-30.636 27.932-63.106 42.771-93.137-16.052-2.661-28.405-9.659-38.691-22.6-4.29-5.398-4.717-11.145 1.059-15.698 9.85.663 21.589 27.063 40.452 23.439 16.089-3.091 28.608-13.635 42.216-21.761a393 393 0 0 1 53.588-26.904c89.976-36.004 157.401-36.672 252.191-35.715"/><path fill="#fefefe" d="M1037.99 132.168c79.37-1.533 180.38 13.769 254.52 42.271 30.58 11.755 60.32 29.289 90.83 38.539-12.76 30.394-26.81 60.653-39.99 90.911a9916 9916 0 0 0-81.1 191.553c-13.47 9.311-23.74 10.838-4.87 26.362 12.26 10.083 24.85 17.249 39.51 23.331 4.25 1.76 9.51 4.082 13.19 6.731l-.03 1.569c-7.52.554-14.67 3.477-21.7 5.678-21.04 6.584-31.82 17.617-41.31 36.889-18.77 39.675-30.25 95.84-37.94 138.888-22.35-46.749-49.73-161.781-87.33-191.243-23.6-18.498-51.45-8.279-64-19.158-12.53-10.865-11.6-34.436-12.54-49.789l9.45-10.746c25.77.308 19.27-10.28 29.77-26.93 1.04-1.649 5.02-6.667 5.11-8.539.59-12.416.6-21.654 3.54-33.985-1.62-2.783-9.66-15.883-10.07-18.046-2.89-15.354 2.81-19.057-16.36-23.925-5.02-4.495-2.19-16.742-11.57-21.331-9.32-4.569-10.98-.99-18.54-.79-1.51-5.844.17-62.111.29-70.234zm-117.581-.621c9.257-.712 80.621-1.402 86.531 1.59.91 11.411-1.01 38.779-.99 51.981l.06 148.929c-7.123-5.055-9.621-6.4-18.109-8.568-8.816 2.99-12.172 5.857-17.039 13.486-30.489 8.841-14.609 8.18-23.447 26.916-8.228 17.44-13.172 11.099-1.328 31.854-8.752 11.167-7.007 18.124 2.577 27.665-8.398 25.845 4.106 17.128 14.392 29.457 12.28 14.719 5.536 13.818 27.22 13.825.644.575 1.164 1.032 1.574 1.821 3.622 6.977 2.025 37.108.105 43.872-6.439 22.679-33.716 19.236-51.402 22.737-10.751 2.129-23.046 6.428-32.501 11.873a76.36 76.36 0 0 0-28.34 28.693c-8.983 15.917-15.585 46.481-20.589 64.509-7.739 27.883-14.396 56.504-21.967 84.461-5.398-12.917-12.744-39.93-18.061-55.355-11.68-28.128-14.749-57.846-35.296-85.038-9.996-14.679-24.73-25.408-40.996-32.191-3.667-1.528-8.065.927-10.515-2.873 1.816-2.519 26.051-10.415 32.993-14.018 13.666-7.093 21.611-14.638 33.915-23.975 2.807-8.209-8.313-13.465-14.494-17.938-8.554-21.715-19.405-45.456-28.762-67.159l-58.728-133.858a5148 5148 0 0 0-22.012-48.466c-3.287-7.159-11.36-23.594-12.978-30.526 1.692-4.237 17.286-12.069 21.937-15.073 71.846-46.394 151.678-66.17 236.25-68.631"/><path fill="#fefefe" d="M1068.8 539.713c32.34-3.009 50.83 7.734 66.54 35.161 13.57 23.677 22.01 49.996 31.46 75.529 12.75 34.459 27.04 69.114 38.15 104.101-4.09 18.722-5.85 26.82-12.76 45.045-81.4-4.864-178.22-3.144-260.268-2.457 1.659-6.952 2.242-9.127 5.282-15.79 56.3 8.577 109.956-1.067 164.736-13.453 11.11-2.514 54.93-6.625 59.65-14.527-4.77-5.363-12.6-3.038-18.22-1.334-10.06-29.08-23.84-59.745-35.27-88.5l-15.07-37.74c-1.96-4.795-5.86-22.431-13.78-17.791-3.25 8.855 18.08 47.607 17.79 54.875-.8 19.98-3.99 47.197-5.82 66.926-.37 6.492-1.45 14.597-2.17 21.196-58.98-9.446-89.126-9.593-148.578.765-4.013-18.001-13.674-68.628-10.962-85.459 1.506-9.344 11.552-38.958 11.838-50.113-1.87-3.315-1.109-3.264-4.153-4.394-2.364 1.155-4.622 5.224-5.245 7.7-10.016 40.61-22.108 80.532-33.837 120.627-8.965 30.645-9.341 13.617-21.35 22.673-1.284 3.131-1.089 1.75-.305 5.472 2.786 3.366 44.905 10.282 51.843 11.644-2.998 6.084-4.623 10.555-5.71 17.23-19.246 1.239-41.593 1.548-60.982 2.077-8.17-19.919-13.208-36.308-19.402-56.836 10.459-31.705 19.02-72.08 27.747-104.805 18.222-68.326 26.42-87.747 99.321-94.582 10.282 9.382 44.015 52.038 53.005 54.014 7.98-3.27 40.01-47.447 46.52-57.254m327.41-301.852c6.89 5.757 119.14 250.351 118.81 255.668l-2.28-.208c-29.08-10.695-59.26-12.868-89.91-15.205-7.84-18.748-10.41-21.973-23.91-36.98-3.68-64.637 1.23-138.142-2.71-203.275m-749.531.075c.873 1.116 1.983 187.378.265 202.279-17.168 9.459-24.032 20.654-32.109 37.389-16.102 1.545-29.55 3.742-45.368 6.557a819 819 0 0 0-35.154 8.97c12.274-34.388 34.159-81.38 49.013-115.14l42.96-95.514c7.1-15.469 12.535-28.894 20.393-44.541m11.433-2.096c4.006 4.512 12.165 24.879 15.135 31.453l26.673 58.515a6488 6488 0 0 1 55.394 126.984c2.616 6.193 15.824 33.605 14.922 37.078l-2.468.322c-7.237-1.746-11.162-2.847-18.109-5.48-14.449-42.298-47.43-61.44-91.583-48.717-1.63-51.642.972-104.678-.041-156.472-.278-14.188-.394-29.543.077-43.683m727.408 1.093.69.418c.73 4.44-.11 19.474-.17 24.942-.69 56.394 4.82 116.326.95 172.415-.98-.449-1.96-.89-2.95-1.322-14.58-6.404-36.77-5.881-50.79-.181-23.33 9.49-33.85 29.17-39.97 51.861-.74 2.748-2.84 2.843-5.34 3.706l-12.78 2.908c22.63-56.034 47.95-113.054 71.89-168.593a5025 5025 0 0 1 24.56-56.421c3.63-8.204 9.44-22.455 13.91-29.733m-377.68 107.236 2.3 1.159c11.81 28.545 25.32 38.178 46.91 59.866.11 23.914-2.12 53.865-25.6 67.076-15.34 6.354-27.04.131-35.11-13.713-10.104-17.325-14.524-43.27-8.026-62.558 4.52-8.963 11.926-17.249 15.296-26.715 2.79-7.838 2.12-16.783 4.23-25.115"/><path d="M1003.35 388.401a4.417 4.417 0 0 1 5.83 1.204 4.42 4.42 0 0 1-.68 5.912 4.39 4.39 0 0 1-4.57.757 4.43 4.43 0 0 1-2.73-3.758 4.41 4.41 0 0 1 2.15-4.115"/><path fill="#fefefe" d="M1003.36 480.033c14.85 5.077 17.7 5.786 32.69 1.755 1.89 21.544 2.09 43.724 23.07 55.567-8.42 13.35-17.97 24.814-27.74 37.22-3.51 4.74-5.67 7.834-9.97 11.985-13.09-15.762-27.334-30.417-40.503-46.112 25.113-15.556 22.113-34.226 22.453-60.415m-8.797 274.347c31.077-1.784 64.267-1.236 94.357 7.01-17.91 4.826-57.15 11.102-75.68 12.567-40.842 4.069-54.227 1.588-93.729-5.93l-.638-1.036c29.535-7.842 45.12-10.27 75.69-12.611m524.557-233.106.95.023.29.853c-29.67 22.485-52.55 30.476-87.77 38.717l-22.39-7.954c-.94-.479-7.93-1.556-9.44-1.813 8.76-7.423 11.32-13.142 16.29-23.129 39.1 1.189 63.69 1.537 102.07-6.697m-96.27-32.243c37.17-1.017 66.8 5.648 100.42 19.843l-10.82 3.555c-13.99 3.545-77.89 10.437-89.56 5.806 1.03-9.833 1.66-19.414-.04-29.204m-816.29-.61 2.904-.202c1.062 2.012-.381 25.586.124 31.919-7.737 3.566-62.183-4.784-72.203-6.789-6.59-.811-13.263-2.219-19.795-3.478 31.22-11.647 55.734-17.953 88.97-21.45m-78.924 33.409c11.022 1.201 23.153 4.433 34.381 5.788 17.648 2.131 35.384 3.077 53.119 4.136 2.705 4.789 11.873 15.941 12.393 18.868l-1.884.511c-31.096 11.056-73.225-10.858-98.009-29.303m577.554 161.878c3.35 3.07 26.21 60.964 28.36 68.67-1.75 1.378-6.82 1.9-9.3 2.327-11.28 1.83-15.02 2.195-25.56-2.015.78-21.277 3.84-47.717 6.5-68.982M1018.34 73.17c11.05-2.188 21.82 4.834 24.27 15.821 2.46 10.987-4.3 21.925-15.23 24.642a20.74 20.74 0 0 1-20.16-5.968 20.73 20.73 0 0 1-4.58-20.518 20.74 20.74 0 0 1 15.7-13.977m-98.005 624.414c2.93 2.543 9.235 47.089 10.825 55.044l-18.393 4.318c-3.346.842-7.488 1.475-10.94 2.091 5.077-19.6 12.977-41 18.508-61.453M751.13 496.301c6.033 1.005 33.775 7.458 34.162 13.771l-3.512 1.281-32.284 6.242c1.254-8.588 1.646-12.637 1.634-21.294m535.58 2.809c1.54-.189 1.81.01 3.34.308.94 2.598 2.04 15.255 2.67 19.602-6.21-.998-12.86-2.781-19.02-4.282-4.92-1.46-9.75-3.233-14.58-4.948 11.01-5.977 15.46-7.537 27.59-10.68m-316.177-80.587c3.613.546 2.312-.077 4.984 2.259 2.947 7.38-.202 9.687-6.132 11.908-4.087-2.159-5.251-2.717-5.429-7.133 1.239-3.278 3.827-4.88 6.577-7.034m95.347-6.795c4.21.939 10.48 1.6 12.94 4.706.47 2.853.15 3.236-.84 6.079-3.35.601-6.73 1.677-9.62.069-2.06-2.538-2.11-7.34-2.48-10.854M751.407 527.756a94 94 0 0 1 5.647-.441c2.276-.12 1.446-.451 2.826.792-2.82 2.465-9.885 4.964-13.626 6.495-1.494.735-2.339.75-3.957.978l-.49-1.117c2.16-5.467 4.409-6.055 9.6-6.707"/><path d="M1775.85 393.14c30.86 1.543 67.23 3.217 90.08 26.326 3.08 3.114 5.05 6.008 4.96 10.512-.55 1.544-1.23 2.83-2.49 3.882-18.54 15.559-29.54 20.631-53.65 19.935-11.05 2.24-74.32-10.615-84.93-20.713-3.81-2.575-11.87-8.005-12.23-13.322-.46-6.727 2.36-9.675 8.53-10.308l2.27-3.835c19.78-10.791 28.52-7.73 46.48-12.226zM324.405 407.555c7.595.522 8.811 11.872 1.627 17.341-28.416 21.633-61.319 29.698-96.818 28.369-16.142-.605-46.119-8.337-49.659-27.461-.581-6.614 19.953-19.539 26.668-24.565 5.805 2.424 16.071-4.019 22.646-4.358 8.406.908 40.928-4.622 47.116-2.117 15.674 6.344 19.461 1.559 31.905 3.493 3.103 2.704 4.478 5.222 7.153 8.278 4.439-1.395 4.157-.581 9.362 1.02m1472.885 81.567c17.32 2.09 30.1-1.019 47.12 8.012 2.53 1.338 10.3 1.605 13.55 3.822 2.55 1.737 4.5 3.394 6.98 5.202 19.99 11.807 31.28 33.464 40.7 53.849 1.18 2.554 1.49 6.424.04 9.186-2.32 1.403-9.54 1.413-12.87 1.71-8.68-3.067-12.65-.22-19.8-1.123-26.92-3.396-59.65-14.132-78.01-34.911-5.25-5.94-12.36-8.473-15.6-16.286-2.21-4.183.65-8.922.72-13.696.11-6.801 10.67-14.814 17.17-15.765M211.74 192.656c15.462-1.986 24.728 9.865 27.881 23.418.982 4.218 5.153 9.137 5.62 12.457 1.282 9.107 2.081 18.744 1.682 27.949-1.745 28.337-13.236 50.671-33.026 70.65-2.826 2.853-2.74 2.407-4.39 6.026l-.419.935c-3.662-1.437-6.41-.019-8.302-1.495-6.025-4.698-9.436-16.436-10.843-23.643-5.493-28.133-1.214-58.747 3.74-86.666.74-4.169 2.857-17.384 5.469-20.153 2.887-3.061 8.118-8.576 12.588-9.478m1618.32-2.546c5.62 2.171 11.53-.412 17.76 6.422 7.69 8.422 6.82 14.895 6.12 25.681 1.06 1.546 1.75 2.055 3.32 3.065-.32 9.994 1.16 13.091 2.02 22.353 2.57 27.412 6.05 58.03-11.73 80.927-.9 1.215-3.63 4.97-4.71 5.362-8.12 2.931-19.56-19.035-22.34-23.929-16.35-28.812-23.22-59.286-12.87-91.455 4.74-14.742 8.61-20.865 22.43-28.426M228.305 490.617c4.311 1.589 10.085.384 14.684.01 6.306-.511 5.376 1.195 10.779 3.196l1.241-2.419c9.402.587 17.683 21.116 12.64 28.371-8.832 12.709-25.697 22.326-37.66 32.237-.024.02-4.611-.363-4.967-.372l-4.352 4.839c-9.636 2.589-18.214 6.392-27.128 10.711-2.142 1.038-6.387.382-10.577 2.236-5.453-1.753-36.355 3.821-39.956-3.994.915-10.989 6.618-11.863 9.131-18.804 10.254-28.324 26.205-41.542 54.95-49.136 5.255-1.388 15.321-4.414 20.584-6.605zM96.712 325.964c7.984 1.282 13.211.984 19.077 8.205 26.264 32.33 39.343 80.029 28.699 120.848-1.148 4.401-2.183 8.719-5.878 11.584-2.56 2.246-5.807.243-8.702-.124l-.62-.074c-6.229-3.488-14.611-16.516-19.692-21.971-18.717-20.098-40.552-101.801-12.884-118.468m1847.338-.434c10.83 6.165 18.84-3.499 18.41 21.899 1.08.517 2.16 1.017 3.25 1.5.99 18.737 1.35 16.889-1.63 35.614 5.17 9.783-5.67 8.281-5.6 15.567 1.59 1.486 2.98 2.345 3.26 4.403-1.43.308-2.86.641-4.28 1.001l-2.28 7.663 1.37 2.083c-11.24 19.403-17.8 31.079-34.76 46.824-3.08 4.058-4.35 7.139-9.64 6.526-3.07-2.892-4.9-12.303-6.07-16.926-4.81-19.045-7.8-50.871 2.49-68.446.63-1.072-.08-2.548-.44-4.156 6.16-11.898 11.06-24.351 16.58-36.225 2.03-4.382 15.09-13.2 18.77-16.77zm30.25 462.739 2.11.94c3.11-.467 6.44-.707 9.35.521 4.07 4.651 6.67 18.083 2.97 22.756l-3.24.003c-2.78 10.892-.53 14.272-10.67 18.993-12.07 22.456-65.67 46.162-90.13 51.537-13.86 2.279-24.51-1.127-15.42-17.038 17.71-31.002 43.63-56.086 77.07-69.349 9.28-3.678 18.44-5.443 27.96-8.363m54.54-235.846c2.05 3.735 10.7 2.5 13.81 8.296 5.94 11.107-12.88 31.449-15.33 42.652l1.77 2.125c-1.22 5.029-7.04 3.445-7.81 11.893-.02.202-.48 1.93-.76 2.208-14.95 14.795-35.89 25.855-53.83 36.716-1.01.616-15.96 3.773-16.97 3.983-2.86 1.639-8.97 3.652-12.09 2.723.39-4.658.88-16.119 2.32-19.905 15.41-40.377 44.06-82.456 88.89-90.691m-328.7-266.813.19.549c1.52.31 2.57.58 4.13.156 14.3-3.887 37.82 3.031 51.34 8.28 6.17 2.398 9.37 8.785 16.5 8.399l1.12-.068c7.12 5.828 31.68 23.524 31.81 31.912-2.14 3.032-2.43 3.445-5.74 5.089-15.59-.549-24.76 2.192-39.74 4.907-10.75-1.189-24.21-.664-34.4-1.936-10.16-2.824-20.3-8.312-29.9-12.236-9.07-3.702-39.04-10.636-38.68-23.113 7.3-2.526 1.76-1.131 3.86-7.865 2.21-2.259 2.81-3.262 5.86-4.068l1.55 1.838 1.24-.136 2.49-4.03c3.46-2.216 22.13-7.2 25.97-6.098zm-1378.471 1.905c6.435-1.903 42.772 1.489 50.205 3.484 6.482 1.741 21.414 13.702 14.792 21.408-12.918 15.032-40.964 20.486-58.408 30.22.318-.178-15.575 2.145-19.131 3.378-3.245-1.256-12.208-.378-17.21-.79a405 405 0 0 1-25.547-3.175c-5.691-.857-20.357-2.212-23.591-6.595.542-7.158 14.523-15.867 19.31-20.838 17.62-18.294 36.291-21.154 59.58-27.092M21.45 553.518c15.495-.427 54.9 30.855 62.725 44.927 5.65 10.163 38.761 57.83 23.154 65.439-3.36-.111-4.25-.042-7.44-1.327-3.418-3.779-13.463-3.224-16.694-5.124-16.592-9.756-36.413-20.038-50.229-33.484-9.52-9.324-11.631-22.443-17.336-33.813-4.19-8.351-11.358-15.509-11.188-25.564l2.09.792 1.115-.584a197 197 0 0 0-1.413-5.407c3.377-5.646 9.768-3.673 15.216-5.855m47.168 234.49c1.216.794 2.77.902 4.516 2.027l-.75 2.375c1.742-1.151 1.653-1.109 3.672-1.642 11.848 3.357 24.327 6.846 36.051 10.719 2.19 1.154 3.928 2.867 6.171 4.052 22.422 11.847 37.606 26.434 50.601 48.226 4.673 7.837 17.007 18.985 15.813 29.198l-1.667.961c-12.34 5.902-52.851-10.104-64.372-16.964-15.23-9.069-79.946-61.191-50.035-78.952M1816.86 646.304l5.2 1.537c.76-.327 4.59-1.888 5.14-1.653 41.42 17.808 57.81 57.014 63.17 99.577.97 7.728-1.33 11.535-5.53 16.346-2.75-.733-5.23-.404-8.04.246-8.46 1.956-28.59-11.517-29.91-19.243-23.79-19.531-33.45-43.601-33.36-72.76.04-11.228-4.96-12.318 3.33-24.05m-1593.758-.364c2.042-.229 3.874-.3 5.868.265 3.217.913 6.425 2.171 7.932 5.402 3.18 6.817-4.192 50.742-8.092 59.266-2.825 6.175-9.52 10.036-13.859 15.137-7.781 9.146-14.075 22.273-23.605 29.605-2.519 1.938-7.167 1.694-10.156 2.924-2.837 1.167-5.085 1.051-8.038 1.595-1.283.236-1.33.028-2.473-.473-3.862 1.782-8.074 3.966-12.212 2.866-4.143-7.176 2.266-18.101 2.733-23.99 2.282-28.804 13.115-54.369 34.77-73.967 4.458-4.035 4.548-.665 7.287-2.728.804-6.774 2.533-6.024 8.026-9.376 3.806-2.323 7.925-4.318 11.819-6.526M2001.3 447.932c2.26 2.501 3.29 1.859 5.09 4.79-1.52 2.409-1.6 2.869-2.45 5.629l.33.394c7.63 9.423.55 14.568 1.22 25.359.15 2.384-2.48 1.605-3.3 3.898-9.18 25.558-27.73 52.34-48.43 69.864-4.04 3.404-14.68 8.37-19.64 7.576l-2.06-1.805c-12.01-28.991 10.96-86.124 37.36-102.506-.65-1.446-.76-1.379-.5-2.913 2.76-.761 1.56-.869 4.4.676 2.76-.752 2.57-1.187 4.14-3.689 1.29 1.964.7 1.668 2.57 2.574 3.46-1.706 6.24-5.797 8.73-8.908 4.45-.08 8.1-.466 12.54-.939M53.712 449.097c2.487 1.455 2.349.524 3.715 1.026 9.095 3.342 21.111 7.892 27.431 15.447l.618.749c2.28-1.447 1.113-1.169 3.496-1.301 15.85 17.656 47.665 80.792 26.619 100.781-2.602.277-2.67.234-4.88-1.059-9.104-3.63-24.957-15.677-31.446-23.433-3.05-3.645-5.108-7.568-8.54-11.036l1.104-2.088c-2.816-1.259-4.78-1.784-6.63-4.203-.112-12.733-9.51-6.755-10.36-17.083-.776-9.42-8.255-13.944-9.612-18.344l2.908-1.965c-.064-3.845-1.672-.596-3.386-4.21 3.688-9.887-5.422-17.781.875-27.684 1.374-2.16 3.555-1.714 6.031-1.97zM1831.38 584.288c.38-5.315-.41-3.993 2.35-8.106 10.33-6.452 24.84 7.669 33.31 13.392 16.93 11.444 29.29 29.651 40.9 46.133 5.48 7.899 4.05 25.681 5.81 35.511l-1.52.775c-.18 4.016.57 4.929-1.68 7.127-5.07.115-43.72-20.421-48.56-25.553-15.48-16.406-30.29-39.072-30.74-62.144-.06-2.379-.02-4.76.13-7.135M203.543 572.874c36.921 4.27-.109 67.161-14.85 79.27-8.799 7.228-35.095 24.691-45.424 24.276-.97-.07-3.144-.502-4.211-.678l.573.461c-1.652-.153-1.608-.382-2.891-1.521l.798-4.204c-3.381-6.222-3.785-9.669-1.964-16.827a66.5 66.5 0 0 1 7.877-18.262c7.179-11.506 18.801-23.029 27.138-33.938 9.682-12.669 19.138-20.449 32.954-28.577M1761.93 177.921c23.95-.115 19.19 27.76 17.25 43.596l2.59 3.115c-.18 3.478-1.82 6.601-3.21 9.832 4.41 8.923-.63 22.282-3.48 32.222l-3-.063c-11.8-9.778-17.13-24.613-17.88-39.508-.76-14.952-4.28-38.555 7.73-49.194m-1482.51-.692c21.477-.031 15.987 22.047 15.523 36.043-.304 9.154-8.884 53.408-21.54 50.218a83 83 0 0 1-1.282-1.723c-7.544-10.546-5.746-52.336-3.701-65.099l2.508-.931c-1.42-.681-1.038-.516-2.225-1.623.845-5.126 7.33-12.94 10.717-16.885"/></svg>