<svg xmlns="http://www.w3.org/2000/svg" preserveAspectRatio="xMidYMid meet" viewBox="0 0 2048 1462"><path d="m332.05 116.928 924.05-.029 327.84.017 88.84-.199c14.1-.065 28.33-.195 42.44-.212 3.81-.005 3.36.182 5.93 2.301 2.75 9.735 2.19 45.706 2.39 57.346.85 47.383 1.44 94.77 1.75 142.16l4.01 306.71c.38 38.618 1.95 79.251 1.37 117.767 7.66 3.425 34.32 23.313 42.55 29.163-16.02-60.218-21.57-115.562-14.57-177.549 3.84-34.023 9.3-67.521 8.76-101.761-.14-9.095-4.23-25.526-.6-33.341l1.75-1.289c9.21 2.458 16.5 37.072 18.84 46.846 17.67 73.6 32.61 154.426 14.58 229.334-3.5 14.104-11.16 33.981-16.3 47.87 11.33 40.27 16 60.272 22.54 101.892l.12-1.105c2.37-22.445-1.88-45.945-1.66-71.049.41-45.601 18.22-172.918 82.51-168.675 32.14 2.121 80.16 50.866 100.46 74.603 2.33 2.534 4.57 6.658 4.54 9.941-10.25 11.983-89.04-27.281-102.67-36.278-3.32 9.464-5.57 15.189-10.7 24.056-11.13 19.262-40.32 50.179-59.91 59.544-.46.219-.93.429-1.4.633-3.35 39.262-1.55 62.138.34 101.352l2.17-2.425c.35-12.006 2.5-40.43 8.47-50.001 11.5-18.451 41.68-62.365 65.94-59.915 34.91 3.524 67.68 48.027 91.46 71.521 2.98 2.94 6.12 7.322 7.1 11.408-.88 3.167-.25 2.022-3.01 4.291-3.9.595-93.44-33.918-107.05-37.876-6.15 8.898-14.12 19.772-19.72 28.784 37.41 20.235 62.38 45.533 86.28 80.681 4.01 5.904 16.52 19.788 13.35 26.315-2.22 1.025-4.67 2.267-7.18.878-23.85-13.183-67.17-40.212-87.04-57.251-17.91 25.793-20.73 35.294-29.61 64.83 11.62-.014 64.59-2.998 71.47 3.395 4.59 4.271 4.69 13.953 4.51 19.784-.98 32.275-13.28 137.095-35.79 158.035-9.69 9.01-20.18 10.68-32.92 11.76 6.08 13.66 15.65 26.99 23.55 39.94 7.97 12.66 16.2 26.07 23.77 38.89 8.62 14.77 24.58 36.45 18.31 54.36-4.26 12.18-27.24 16.7-38.44 16.62-41.55-.28-83.08-.47-124.63-.43l-246.64 1.1-841.66 4.81a25140 25140 0 0 1-374.54.73l-102.982-.16c-16.08-.06-32.397.44-48.451-.38-5.365-.28-10.849-.92-15.772-3.21-5.097-2.38-8.695-6.41-10.599-11.7-3.666-10.19 2.889-22.35 7.433-31.32 13.102-25.84 26.786-51.43 40.161-77.14 7.499-14.42 14.68-30.58 23.396-44.17 2.042-3.18 5.065-7.33 8.685-8.67 9.933-3.68 153.32-1.55 176.151-1.78.814-32.38 2.889-64.09 8.209-96.09 4.473-26.91 5.868-55.144 12.141-81.707-18.675-.066-44.501.672-62.705-.266.197 23.492-.044 47.381-1.232 70.583-1.545 30.17-2.802 64.33-28.154 84.84-21.027 17-48.996 9.35-73.834 10.96-83.764 9.04-84.639-52.45-87.251-116.18-.639-11.503-2.626-112.427.873-116.236 9.153-.228 18.879 1.684 29.953 1.531 12.152-25.545 25.516-47.687 47.257-66.344 3.96-14.355 6.533-28.471 10.752-42.891-17.909 30.765-33.644 55.999-62.032 79.985-12.435 10.506-48.681 36.818-57.621 3.724-4.287-15.874 11.253-41.896 20.211-54.256 12.778-17.497 27.161-27.181 45.237-37.748-21.732 5.149-80.929 20.465-96.07 8.928-26.818-20.432 18.468-54.154 36.415-59.723-21.14-33.092 12.318-73.457 39.385-91.605 24.252-16.261 49.037-17.894 77.261-18.104.04-7.011.186-13.192-.598-20.201-32.395 8.752-65.254 19.511-99.211 18.215-13.727-.524-34.376-1.766-46.24-8.562a105 105 0 0 1-3.634-2.194c-12.443-24.833 7.1-43.696 28.624-54.477 27.956-14.002 50.876-10.667 79.475-1.052-26.695-29.333-62.36-80.042-60.151-120.269 2.348-42.759 50.025-27.082 68.229-2.422 21.23 28.757 30.497 57.136 38.035 91.757 2.684 12.874 3.486 27.041 5.846 39.655.752-42.281 33.638-113.3 83.652-116.002 2.136-.116 6.623 1.348 8.832 2.057-.945-55.439.837-117.469 2.07-173.086z"/><path fill="#949294" d="M1822.02 874.551c-.15 3.948-.01 6.45-1.47 10.191-.84-3.428-.74-4.171-.7-7.766z"/><path fill="#fefefe" d="m419.654 290.494 563.36.311 1.108 593.711c-18.054.582-38.229.166-56.531.321-3.323-17.72-15.237-19.179-19.682-.947-10.291 1.108-75.575 2.389-80.304-1.082-1.211-.888-.896-1.368-1.059-2.756 11.1-17.938 43.473-11.277 60.276-17.118 25.566-8.889 52.193-20.535 53.431-52.151.239-6.097-1.366-25.205-7.292-29.024-22.186-14.297-66.264-12.647-87.038 3.583-5.668 4.543-3.617 18.787-3.019 25.362-13.764 5.871-17.231 11.582-26.625 23.11-3.976-7.072-8.864-13.976-16.675-17.062-19.297-7.623-105.905 31.38-126.613 41.123l-7.786-9.317a1716 1716 0 0 0-34.37-43.523c-1.285-12.331-7.984-37.888-11.151-50.386-13.699-54.067-32.746-93.358-66.001-137.738l8.297-16.374c30.22-.225 45.418-4.223 60.268-31.922 18.087-4.214 14.411-14.702 8.813-28.165 1.378-10.883 5.679-19.363 8.592-29.694 7.895-28 18.183-59.935-3.385-84.514-39.34-44.83-113.537-50.923-158.731-11.588-24.775 21.563-37.952 55.235-40.187 87.457a136.25 136.25 0 0 0 33.265 99.459 798 798 0 0 0-59.841 133.108c-8.623 25.673-15.272 51.419-22.759 77.391-.103-17.207 1.031-33.935 1.081-50.744a12234 12234 0 0 1 4.442-321.404c.888-47.373 2.903-102.146 2.238-149.113zm664.346.568 574.78.096 1.79 142.655c.69 31.485 2.72 69.995 1.36 100.824-3.98-9.814-7.35-21.846-11.79-31.506-19.58-41.724-40.95-87.789-84.43-109.593-49.78-24.969-118.44-1.496-143.04 48.482-13.39 27.227-.73 68.785 9.14 96.108-2.97 6.487-6.03 12.722-8.06 19.572 4.58 5.282 9.87 10.574 14.89 15.473 24.46 23.86 28.03 36.478 63.62 32.447 2.38 4.745 3.22 8.015 4.71 13.085-12.82 19.585-18.37 25.567-28.3 47.008a843 843 0 0 0-29.05 76.059c-3.23 9.841-5.87 24.108-9.84 32.901-3.77 8.364-13.06 21.271-18.46 29.135a2255 2255 0 0 1-37.02 52.059c-9.71-3.025-21.74-9.009-32.27-12.978-27.86-10.505-61.65-24.451-91.69-25.84-7.92-.366-14.23 3.032-19.45 8.543-7.78-5.694-14.01-8.621-22.55-12.742l-2.55-26.16c-22.94-17.761-63.57-16.163-89.43-4.486-5.48 2.473-5.85 16.27-6.77 21.993-3.43 21.328 2.77 41.098 22.27 52.162 24.2 16.826 64.94 4.128 82.17 26.019l.76.966c-27.32-.894-59.9-.053-87.61-.093-1.14-7.709-4.7-20.419-16-14.137-4.91 2.735-5.71 9.484-6.83 14.763l-32.29-.094c-.21-10.011.53-19.6.51-29.527l.69-126.841z"/><path fill="#fefefe" d="M1428.95 473.452c5.05 3.601 9.27 7.558 14.58 11.038 19.32 12.677 37 16.827 59.06 21.489.17 7.699-.54 11.901 7.81 14.986 5.81-2.263 2.7-11.707 7.24-17.759 3.26-.979 2.24-.675 6.09.505 12.81 10.543-9.31 38.362-7.75 48.202 5.47 3.394 11.35-4.769 14.02-8.668 5.11 14.805 8.9 29.942 13.66 44.844 4.89 15.32 9.49 23.181 23.87 30.454 1.93 9.166 5.69 10.508 13.21 16.916 7.73 6.461 20.39 19.772 23.55 29.491 28.6 87.822 43.75 181.539 55.91 272.764 7.09 53.16 14.94 104.386 18.75 157.116-16.19-4.54-34.41-4.56-51.61-8.1-48.73-10.06-102.94-28.98-146.33-53.32-.16-8.22-.46-16.44-.88-24.66-.58-28.381-3.05-56.694-4.61-85.029-.53-9.626-1.05-19.245-2.43-28.794 36.34-30.041 77.82-75.791 104.09-114.279 17.6-27.916 35.24-65.263 28.22-98.807-8.63-41.271-47.62-67.868-81.63-33.38-26.01 26.373-41.74 58.275-60.24 89.897 9.11-29.309 21.37-62.779 36.95-89.168 5.5-9.318 13.61-19.423 20.08-28.379-17.16-38.339-5.02-25.502-41.23-25.861-9.32-5.413-12.04-8.142-18.85-16.717 6.68-3.193 15.3-8.261 16.38-16.389l-1.32-1.469c-8.13-1.281-14.66 4.794-24.11 8.533-5.31-5.031-8.67-8.311-13.46-13.975 2.3-5.394 4-11.812 5.67-17.496-8.75-22.476-14.74-39.136-14.69-63.985"/><path d="M1446.87 499.179c7.54-1.045 19.6-.978 23.59 6.922l-.9 1.733c-3.38.863-5.93-.727-9.34-2.092-9.18-2.883-15.49 5.355-21.81 2.205.24-4.751 4.82-6.752 8.46-8.768m7.04 23.497a7.37 7.37 0 0 1 7.5.828 7.39 7.39 0 0 1 2.85 6.99 7.375 7.375 0 0 1-14.12 1.664 7.373 7.373 0 0 1 3.77-9.482"/><path fill="#fefefe" d="M453.893 746.477c2.434 2.699 11.206 18.45 13.578 22.478 31.972 54.292 79.582 91.589 121.896 136.328-3.526 14.062-4.383 33.567-5.358 48.34a1319 1319 0 0 0-3.467 76.867c-32.697 24.85-50.883 37.06-88.296 52.87-37.007 14.69-74.074 20.11-113.579 20.9 2.11-49.3 11.725-101.69 18.251-150.908 5.482-25.674 6.755-63.534 17.4-87.268 17.843-39.784 27.855-77.847 39.575-119.607M1552.29 644.292c33.8-1.205 48.65 42.459 41.16 70.672-19.9 74.943-84.65 128.656-138.34 180.536-14.86 14.352-38.28 36.999-55.08 47.85-40.67-13.294-79.45-27.818-119.79-41.746-11.82-3.801-24.89-7.114-35.93-12.77-3.32-1.705-6.65-3.754-7.7-7.517-3.05-10.878 5.29-31.032 10.49-40.446 1.97-3.573 5.13-8.984 9.03-10.579 25.15-10.3 124.32 41.701 132.09 38.45.77-.324 1.87-1.356 2.46-1.954 4.36-4.436 7.45-10.423 11.23-15.367a1183 1183 0 0 0 63.64-93.865c20.81-34.284 43.55-84.088 75.78-108.915 2.46-1.894 7.86-3.454 10.96-4.349"/><path fill="#fefefe" d="M496.921 645.272c36.294-1.74 50.347 46.99 65.006 72.714 24.043 42.192 48.339 82.578 79.731 119.851 9.465 11.239 17.703 23.362 28.108 33.94 36.739-16.996 78.3-33.675 117.429-44.123 21.667-5.785 26.818 36.284 28.154 49.641-1.16 2.765-2.984 5.979-4.415 8.677-7.331 4.143-21.105 9.643-29.039 13.011-29.17 13.999-92.905 36.147-124.642 40.721a95.2 95.2 0 0 1-21.731-11.509c-20.48-14.295-43.967-36.432-62.325-55.116-42.003-42.75-100.865-94.234-113.94-155.29-6.172-28.82 4.433-67.287 37.664-72.517M1720.19 970.174l183.89-.156c4.94 26.257-12.74 124.192-23.65 150.472-.81 1.5-1.67 2.98-2.58 4.42-11.21 17.76-30.75 16.06-49.39 16.43-22.26.44-55.87 3.4-75.18-9.29-14.23-9.36-22.16-45.98-25.74-62.11-2.87-16.63-14.87-88.477-7.35-99.766M396.927 173.047c96.176-.059 193.645-.826 289.772.3.25 29.569.657 60.748-.044 90.226-95.229 1.718-195.083.655-290.55.214.475-30.299-.079-60.316.822-90.74m985.413.391c38.55-1.002 79.61-.132 118.28.047l156.47.171c-.07 23.257 2.74 68.923.41 90.041-12.53.274-25.57.258-38.1.114-78.74-.905-158.15 1.607-236.82.03.69-30.409-.61-59.995-.24-90.403m-298.87-.104c89.06-1.029 180.8.256 270.1.04-1.4 27.265-.28 62.471-.4 90.463-29.53 1.323-66.13.576-96.35.531l-173.47-.41c.05-30.416.55-60.14.12-90.624m-367.679.078 267.325.185.23 57.111c.028 8.509.433 25.236-.75 33q-84.932.599-169.864.347c-11.429-.003-94.171 1.133-97.061-2.019-.997-8.701-1.754-82.005.12-88.624m184.802 857.658c79.104-.54 158.207-.5 237.317.15-.16 14.19 3.04 90.19-1.06 95.72-78.27.97-157.575-1.04-236.391.01-.481-31.52.074-64.23.134-95.88m-273.569-80.6c36.314-1.123 78.701-.41 115.299-.291 42.654-.213 85.31.061 127.957.821-1.389 9.693-.806 11.919 1.518 21.662l-28.674-.033c-11.771 7.353-25.332 22.495-36.838 31.041-4.192 3.12-9.243 7.95-9.885 13.25 3.053 5.35 1.393 6.31 3.03 11.63 3.526 2.94 38.809 1.58 45.497 1.59l-.056 96.21c-16.899.45-60.558 1.8-75.686-.29-21.607 1.63-44.841.11-66.765.03 27.267-12.17 62.311-28.96 77.679-55.52 7.92-13.68 10.593-30.7 6.313-46.02-3.358-12.01-12.567-22.59-23.407-28.638-36.634-20.434-131.536 18.948-171.173 30.018.289-25.24 1.977-49.161 3.593-74.333 9.714-.813 21.695-.853 31.598-1.127m419.266-806.164c7.32 2.849 19.64 16.133 25.8 22.217l-.45 484.224c.01 52.262-.26 104.524-.8 156.783-.08 23.216 1.29 62.204-.53 83.465-4.89 6.035-12.19 13.618-17.55 19.474l-6.73 7.145c-1.79-45.24-.82-93.829-.67-139.434l.54-213.126-.02-293.32c-.27-42.476-.13-84.954.41-127.428m649.21.446c.97 3.52.87 25.529.94 30.259l.9 89.288 6.5 456.634c.17 37.972.6 75.941 1.32 113.906.16 11.783-.08 45.416 2.15 55.275l-6.96 10.557-11.96-7.818-8.39-5.611c.36-78.859-2.71-160.987-3.91-240.059l-5.99-479.152c8.59-7.413 17.07-15.521 25.4-23.279m-676.87 1.999.59.536c3.34 7.555.01 389.275-.08 429.067l.1 334.243c-2.78-2.267-5.67-5.073-8.33-7.531-3.98-4.494-10.45-10.305-14.941-14.58l-.03-354.081c-.179-121.841-1.382-246.73.167-368.23 6.154-4.328 16.434-14.041 22.524-19.424m157.58 803.571c22.45 1.296 51.98.278 74.94.095l114.8-.532c12.66-.101 22.3 2.343 34.65 3.617 1.87.192 4.99-2.953 8.95-3.019 18.25-.308 36.87-.167 55.1-.151a1995 1995 0 0 1 3.81 79.608c-8.52-3.08-16.46-6.47-24.79-9.99-41.29-12.94-121.01-55.635-161.84-38.519a57.84 57.84 0 0 0-30.71 31.289c-5.27-9.83-24.21-36.164-36.03-38.589-11.71-2.404-30.55-.762-42.99-.272 2.54-8.875 3.08-14.463 4.11-23.537M357.554 148.045c7.941 2.883 20.069 12.845 27.223 18.294 1.702 29.668-.495 64.912-.737 94.807-.237 29.217-.466 58.458-.791 87.673a12537 12537 0 0 1-3.647 200.59c-.601 22.541-.003 47.497-1.354 69.707-1.911-.512-5.618-8.582-8.148-11.524-5.354-6.223-11.024-11.09-17.084-16.546 1.057-17.971.534-42.586.729-61.068l1.368-126.971q1.471-87.379 1.689-174.77c.189-26.185 1.502-54.419.752-80.192"/><path fill="#fefefe" d="m632.548 480.091 1.79.392c2.122 8.679-12.427 47.699-16.019 57.598 1.329 4.594 3.832 9.236 4.856 13.475 1.98 8.199-8.01 6.571-10.198 11.361-.479 1.049-2.385 3.601-3.145 4.743-9.087 3.24-11.092-5.483-17.248-10.115-3.255-.236-1.931-.726-4.22 1.151-1.79 11.163 7.938 14.604 16.335 18.381-13.996 13.23-30.429 12.043-48.37 12.15-5.67 8.034-12.446 22.159-15.443 31.375 40.698 49.369 59.124 99.534 73.411 160.7-6.81-9.983-13.06-19.227-19.328-29.544-7.222-12.911-15.14-25.575-22.539-38.459-20.768-36.168-28.669-79.6-78.932-79.18 12.779-19.549 22.13-32.957 31.638-54.707 3.117-7.132 9.926-28.601 12.624-32.821q3.758.248 7.511.548c11.548-6.18-7.446-18.893-10-25.085-2.722-6.602-1.782-14.27 5.141-17.608 6.299 1.952 4.578 10.908 10.07 17.449 6.313 1.211 8.2-8.374 14.398-13.625 14.731-12.478 49.071-23.159 67.668-28.179"/><path d="M600.407 498.261c8.429.396 15.703-.237 22.275 5.493 1.402 3.331 1.386 1.953.34 5.107-3.361 1.465-1.669 1.232-5.252.803-6.991-1.092-20.745-1.02-25.851-5.525l-.091-1.993c2.781-2.815 4.711-2.899 8.579-3.885m2.795 20.232c9.997 1.506 9.598 9.235 4.318 16.081-11.103-1.098-9.62-9.023-4.318-16.081"/><path fill="#fefefe" d="M1085.59 141.46c33.95-.796 69.23-.382 103.33-.435l186.75-.038c101.45.112 205.41-1.218 306.61.806-7.1 4.935-16.37 12.912-23.18 18.485-28.2.973-60.93.282-89.42.206l-136.14.106-210.4.074c-46.75.204-93.51.045-140.26-.476-6.39-6.121-12.8-12.206-19.25-18.256 7.24-.008 14.7-.289 21.96-.472m-543.203.04 276.556-.413c61.323-.014 123.925-.789 185.067.975-4.996 5.524-13.415 13.027-19.096 18.354-46.399 2.061-105.163.301-152.414.186l-437.045-.604c-8.665-7.373-15.237-12.044-24.838-17.892 56.896-.847 114.797-.434 171.77-.606M1661.8 574.816c1.23 5.589 1.11 28.466 1.25 35.624l1.57 76.112q1.515 65.742 2.31 131.496c.35 19.551.99 39.402 1.31 58.979.04 2.45-.5 4.111-2.23 5.837-2.82-2.131-10.16-54.588-11.93-63.652-7.13-40.77-16.25-81.17-27.3-121.055-11.43-41.624-13.84-49.582-47.51-78.867 36.13-9.141 54.8-20.21 82.53-44.474m105.12 318.808c8.87 4.243 21.03 52.342 26.17 63.937-25.01 1.71-52.56-.435-77.3 1.67-9.92 7.611-10.74 10.149-9.86 22.89 3.22 46.569 6.19 95.859 24.63 139.179l-.93 1.48-4.38.3c-11.22.43-22.63.63-33.87.94 2.07-23.8-4.95-72.42-7.46-97.53-2.33-23.37-5.54-50.371-8.63-73.61 6.18.074 16.35-.668 22.73-1.19 3.31-.884 3.42-6.279 5.81-8.084 21.45-16.189 43.51-31.432 63.09-49.982m-551.75 136.866c9.87-.05 21.61.15 31.3-.48 3.89 45.88 41.33 61.48 77.37 81.73 5.21 2.93 20.03 10.09 23.66 13.79-5.37 1.07-13.1-.14-18.74-.71-44.18.02-89.75 1.21-133.79.36-.05-31.13-.58-63.47.68-94.44zM144.767 973.132l166.753.004a743 743 0 0 1-.157 34.404c-20.259.72-43.656.21-64.114.17-34.144-.14-68.288-.11-102.431.1-.961-12.768-.706-21.975-.051-34.678m.37 45.878c55.208-.38 110.418-.43 165.626-.16-.385 10.99-1.34 22.58-2.079 33.6-10.526 1.33-42.279.63-53.674.64l-106.738.18c-1.581-11.26-2.291-22.9-3.135-34.26m4.818 45.21q78.069-.285 156.13.75c-2.847 12.36-5.686 17.13-13.535 26.9-10.713 10.04-17.601 13.49-32.604 13.29-24.766-.32-50.662 1.51-75.269-.82-18.016-1.72-31.444-24.04-34.722-40.12m-4.965-135.033c55.218-.033 111.157-.527 166.319.143-.002 10.5.108 21.206-.353 31.679q-83.077.61-166.156-.01c-.167-10.483.077-21.3.19-31.812m-3.243-527.323c59.895 5.195 78.963 102.455 82.52 150.25-4.996-9.02-12.081-28.277-17.109-39.125a1199 1199 0 0 0-37.756-74.04c-4.773-8.741-10.317-19.503-16.313-27.398-1.938-2.551-2.171-2.131-4.842-2.317-1.569 3.982-2.125 6.457-.614 10.65 5.065 14.053 14.144 27.419 20.892 40.622 15.405 30.136 34.779 63.923 46.175 95.706-11.934-12.573-25.546-25.346-36.346-38.876-18.991-23.794-61.791-86.751-36.607-115.472m102.997 209.84c10.744 9.956 23.59 28.646 34.417 39.814 9.933 10.247 19.896 18.634 29.642 29.104-14.422 13.967-24.256 23.398-37.73 38.821-3.463 4.262-13.542 11.763-18.122 15.836-5.866 5.217-10.533 9.82-16.068 15.429-1.261-40.795-.106-88.988-.149-130.47zm1532.386-99.01c2.89 9.107 4.89 20.405 7.16 29.86 12.68 52.847 17.32 110.256 11.76 164.354-1.77 17.221-7.5 37.45-12.86 53.827l-1.24 2.017c-1.52-1.396-5.32-21.365-5.97-24.599a458.5 458.5 0 0 1-7.87-132.023c2.74-32.167 7.57-60.329 9.02-93.436M225.596 633.786l.701.689c1.009 4.123.713 29.26.726 34.676l.111 83.601c-15.67-15.042-37.917-26.866-58.765-32.673-13.315-2.691-22.608-2.934-36.069-3.034 22.3-14.873 40.808-28.086 59.597-47.194 11.708-11.908 22.161-24.087 33.699-36.065m1652.964 21.313c30.85-4.427 71.3 37.207 90.72 57.877-27.58-5.092-56.66-22.139-79.72-36.665-2.16-1.36-3.46-1.126-5.61-.224-2.53 3.355-3.51 9.656-4.47 13.966-13.8 36.898-31.78 47.279-58.37 73.358 2.11-14.866 12.35-45.494 17.62-60.252 6.95-19.455 20.2-39.323 39.83-48.06m-147.37 100.179c5.12 2.008 40.61 29.336 46.14 34.108 5.89 21.89 11.86 43.441 15.85 65.787-4.8-5.802-8.82-9.773-9.93-17.2.6-2.222.6-1.056-.65-3.549-11.21-4.366-41.13 16.543-50.45 23.581-1.99-30.111-1.03-71.986-.96-102.727m-587.98 139.66c26.66-.032 62.11-1.335 88.9 1.145 2.99.277 16.61 8.174 20.55 9.381 15.63 4.781 35.68 12.48 51.18 16.105-7.76 1.034-34.46.443-43.88.439q-47.58.027-95.16-.482c-6.52-7.171-16.5-18.652-21.59-26.588m-324.675-.012q42.285.57 84.574.422c-7.06 11.05-13.085 17.815-22.133 27.206l-39.226.038c-27.66-.873-56.667.13-85.237-.6 17.734-7.021 47.4-17.481 62.022-27.066M376.112 773.41c1.727 2.754-.043 95.854-.296 108.868-9.827 8.461-16.394 20.229-27.207 30.695l-.131-10.222.7-17.978c3.024-1.337 6.112-2.862 9.11-4.285 14.374-21.707-.462-37.382-6.21-56.555-2.467-8.229-1.372-40.636.216-49.38 10.775 1.344 13.491 2.248 23.818-1.143m584.863 211.091c40.065.552 80.625-.308 120.815-.104 5.6 5.907 13.53 12.773 19.66 18.333-5.26-.02-10.51-.08-15.77-.17l-142.935-.82c6.193-5.414 12.292-11.503 18.23-17.239"/><path fill="#fefefe" d="M1770.48 846.895c1.37.313.7.017 1.78 1.574-.3 8.894 2.77 33.032 2.13 37.314-2-2.796-2.43-4.083-5.5-5.042-5.05.863-14.56 11.124-19.57 15.306a509 509 0 0 1-46.51 35.043l-9.26 5.956c20.11-39.876 34.5-71.893 76.93-90.151m-802.515 104.15c32.215.033 73.535 1.379 104.565-.101.28 8.07 1.12 14.441 3.49 22.134-35.15.204-75.69.547-110.546-.581 1.622-8.639 2.463-12.648 2.491-21.452m-800.76-381.506c20.717.788 30.751 2.242 50.094 9.474-33.478 6.096-45.7 14.136-83.526 15.076-18.006.192-34.544-.247-51.776-6.046 26.077-18.872 54.745-18.351 85.208-18.504M1891.1 776.201c2.31-.109 4.62-.144 6.94-.107 18.16.44 59.05 43.082 71.4 56.179-6.13-2.214-13.11-5.253-19.22-7.736-24.18-7.717-62.89-24.601-85.4-27.41 8.64-9.882 14.15-15.981 26.28-20.926m-724.67 40.088c34.41 7.845 37.27-.208 69.56 19.629-5.24 10.367-7.63 18.888-9.32 30.253-6.79-2.881-10.32-4.41-17.37-6.411-8.27-2.346-28.67-4.118-34.81-8.484-2.41-2.188-17.09-9.026-21.16-11.26 6.96 1.577 29.89 6.706 34.52.693-2.81-3.808-25.42-9.794-33.06-12.956 8.51 1.354 30.69 5.648 37.75 3.819l.23-1.279c-6.28-7.09-18.01-7.541-26.34-14.004M680.694 1137.91c1.952.57 4.997 4.92 6.067 6.72 16.267 25.82-21.485 24.56-37.119 25.89-33.49 2.84-33.841 31.99-68.351 32.66l-13.959-.55c38.428-21.26 72.692-45.15 113.362-64.72M248.328 590.334c28.528-4.512 85.386 28.851 105.972 46.993 4.042 3.563 11.769 8.817 12.401 14.177-27.071 1.29-41.576-14.548-64.278-27.148-8.451-4.691-51.899-28.148-54.095-34.022m-34.651 181.662c-.182 1.896-.189 2.265-1.122 4.045-15.699 29.972-56.659 80.972-89.159 91.382-.226-1.202-.471-2.799.063-3.92 14.901-31.258 61.498-76.078 90.218-91.507m1646.853 82.051c25.87 6.784 65.15 51.856 79.98 73.644a907 907 0 0 0-42.04-27.381c-7.25-4.561-32.09-28.093-37.78-20.017-.83 3.651.13 4.817 1.61 8.146-1.79 4.855-9.01 14.288-11.78 19.379-3.09 5.666-6.27 11.484-9.51 17.051 3.65-23.453 8.74-49.556 19.52-70.822M866.885 815.28c5.471-.617 11.874-.6 17.457-.722-7.137 4.067-18.258 5.39-21.212 9.615 2.317 7.574 23.171 1.913 29.594.679-5.886 4.279-15.437 7.704-19.523 12.909l.382 1.324c5.724 1.86 13.015-.655 17.035.792-5.188 2.203-17.422 5.064-20.881 8.165 1.704 4.166 2.394 1.97 3.747 5.736-2.81 1.708-19.372.933-25.764 2.622-10.904 2.882-11.638 2.864-21.756 8.939-1.332-6.697-2.761-12.475-4.468-19.048 15.128-19.3 20.316-25.381 45.389-31.011m-609.759-34.72c28.344 15.592 75.061 65.261 90.782 93.77-37.517-4.449-73.399-63.523-90.782-93.77m1112.104 357.08c23.79 11.78 47.32 28.2 70.77 40.92 4.4 2.39 32.59 17.7 33.23 20.39-2.63 1.85-5.88 1.45-9.29 1.55-23.28-1.13-34.84-20.96-57.43-28.88-14.13-4.96-33.9-2.65-43.98-7.85-8.09-8.66 1.36-18.66 6.7-26.13M313.829 441.998c3.185-.18 3.865-.803 6.022.55-1.166 4.034-9.843 14.16-12.815 17.424-24.372 26.77-42.86 55.92-61.977 86.483-1.079 1.305-.573.938-2.095 1.676-.371-5.933 12.169-41.777 15.434-48.785 13.101-28.117 26.311-45.961 55.431-57.348M206.073 619.506c-1.423 3.801-22.464 13.309-28.113 17.069-20.585 13.542-38.424 30.478-53.356 50.051-4.288 5.619-7.87 15.297-12.536 19.835-6.382-17.836 6.347-38.266 18.033-50.984 20.885-22.729 44.882-34.627 75.972-35.971m100.624 119.903c17.456-1.854 37.911 3.228 52.008 13.183 4.589 3.241 10.366 5.306 11.632 10.688l-1.812 1.425c-9.546 1.891-28.638-3.046-38.977-5.166-19.383-3.873-58.244-4.558-78.946-4.663 19.591-9.783 34.486-13.4 56.095-15.467"/><path fill="#fefefe" d="M217.852 624.956c.321.301.464 1.043.632 1.561-8.531 9.255-16.413 19.443-24.945 28.412-18.424 19.367-45.944 42.885-69.828 54.79l-.95-1.192c1.69-5.672 6.798-12.297 10.421-17.128 22.205-29.609 52.446-49.181 84.67-66.443m158.95 33.107.484.396c1.847 4.335-.247 64.531-.453 72.833-4.376-4.933-6.208-6.872-11.3-10.979-4.257-2.675-8.991-5.309-13.368-7.85-.866-14.185-.165-36.506-.141-51.276 10.537 1.313 15.332 1.704 24.778-3.124m-49.911-205.244.491.501c1.402 3.765-.171 25.252-.444 30.578-5.676 6.922-16.222 16.736-22.924 23.17-16.891 16.217-33.504 31.574-49.95 48.279l-.605-.994c14.886-30.988 50.912-74.968 73.432-101.534m-180.792 89.625c24.976 1.424 44.345 11.429 64.309 25.107-27.891-9.493-47.006-8.829-75.647-7.329-20.743 1.916-39.287 6.766-56.507 18.86 14.139-25.772 39.822-35.39 67.845-36.638m786.573 353.384 53.937.187c7.741 8.464 18.131 16.837 26.651 26.113-15.184.953-41.99-.217-58.563-.109-8.238-9.28-14.449-16.287-22.025-26.191M130.786 747.366c24.456-2.173 40.282.662 63.853 5.785-17.654 3.912-38.591 7.216-56.897 10.976-9.995 1.572-49.767 9.155-56.723 4.509l.05-1.906c8.728-11.199 36.005-17.464 49.717-19.364M263.798 581.45c40.549-2.718 87.561 3.917 106.202 45.938 2.17 4.891 3.287 8.78 4.001 14.051-2.916-.984-21.257-17.585-25.148-20.682-19.687-15.674-41.089-28.174-65.61-34.566-6.222-1.622-13.622-2.65-19.445-4.741m-58.784 183.739.144.116c.535 1.86-2.347 2.926-4.194 4.103-34.356 21.891-69.158 54.967-87.216 91.922-4.379-7.602 4.989-29.162 9.058-36.375 18.039-31.976 47.892-49.737 82.208-59.766m121.678-266.456c.981 5.249.382 20.137.252 25.973-20.142 20.857-48.361 39.322-75.972 48.262l-.145-1.093c20.555-17.887 58.61-53.543 75.865-73.142M257.69 771.918c20.607 1.016 51.4 21.122 66.649 35.441 16.144 15.159 28.57 35.392 29.533 57.938-2.553-1.815-16.77-23.588-20.397-28.035-24.561-30.109-43.097-45.943-75.785-65.344m-19.958-.289c5.339 3.612 13.629 18.368 15.9 24.499 8.778 23.7 10.238 50.797.545 74.246-2.085 3.215-5.099 6.421-7.65 9.344a475.2 475.2 0 0 0-8.795-108.089m74.43-54.343c30.871-1.436 58.2 7.456 67.361 40.2-12.741-12.08-18.934-16.438-35.354-23.785-28.204-9.191-55.555-3.694-82.181 6.747 16.363-12.563 29.407-19.726 50.174-23.162"/><path fill="#fefefe" d="M129.518 727.431c25.978-.934 48.065 4.526 69.7 18.888-25.872-8.622-44.653-10.433-71.646-8.194-13.108 1.959-25.544 5.184-37.614 11.1-4.781 2.343-12.028 11.03-16.458 11.099 1.4-11.332 13.179-21.496 22.868-26.288 10.5-5.194 21.704-5.938 33.15-6.605m1036.702 257.5 47.63-.075 14.74 16.764-13.66.25-65.09.13c5.86-6.642 9.77-8.671 16.38-17.069M228.724 786.812c5.479 5.733 8.679 77.767 8.083 87.321l-1.084.568-2.715-1.819c-21.632-23.609-11.976-58.39-4.284-86.07m29.125-174.223c6.479 2.958 18.723 15.135 25.632 18.974 13.769 7.652 29.154 12.881 43.775 19.128.607 15.55-.391 28.196-1.505 43.611-4.556-7.031-7.34-12.595-11.094-20.03l3.953-17.498c-29.981-6.404-42.78-21.856-60.761-44.185m-48.148 224.238c.837 1.457 2.775 18.817 3.272 22.169a196.5 196.5 0 0 0-11.721 27.159c-7.253.255-15.193.081-22.502.069l-1.587-.429-.342-1.472c4.867-13.077 23.336-37.213 32.88-47.496m636.308 147.676a1077 1077 0 0 0 30.389-.594c6.565 7.865 10.176 12.136 18.841 17.481-5.744.35-11.673.54-17.438.79-16.755.2-34.135-.12-50.938-.22zm237.181-90.28 24.97.479a137 137 0 0 1-2.34 3.737c-2.68 4.102-15.65 21.905-19.55 22.714-9.28 1.789-18.24.948-27.67.677 8.26-9.041 16.81-18.176 24.59-27.607m-790.741-8.241c-1.17-9.066-2.109-17.541-4.205-26.453 8.999-4.976 29.827 13.856 36.557 20.129.573.535.458 4.397.426 5.335-.048 5.949.037 36.466-1.357 40.486-3.079-5.054-1.676-32.875-1.643-41.26-5.184-2.855-11.045-8.061-15.728-11.924.606 4.447 1.393 9.388 1.846 13.804zm-16.726-119.706c4.887-.492 42.786 1.663 48.028 3.067 3.293 4.631 2.319 18.139 2.271 24.313l-.411.425c-3.102-.006-12.535-9.101-16.351-11.441-10.365-6.359-22.388-11.537-33.537-16.364m49.776-224.553c3.657 2.643 3.975 30.521-.539 34.917-3.151-.008-2.085.075-5.142-2.464-.496-2.716 2.433-5.448 3.812-10.116l-1.095-1.613c-8.611-1.721-14.546 3.34-21.105 8.172-2.247.961-16.883 1.156-20.37 1.304 18.267-10.944 27.631-16.862 44.439-30.2M1783.33 856.7c11.67 7.821 18.68 60.343 18.58 74.581-1.82-1.846-4.04-7.117-5.41-9.541-11.05-19.554-11.58-42.798-13.17-65.04M394.156 885.829l1.2 1.002c.737 5.449-2.799 22.773-5.538 27.441-4.983 1.937-17.934 1.554-24.065 1.662-.98.001-1.298-.268-2.299-.645 3.73-11.019 20.898-23.474 30.702-29.46m486.341-102.588c8.89-.859 36.779-.905 42.049 5.778-2.651 2.466-19.485 2.922-23.432 2.947-11.375 1.469-33.636 2.266-44.682.231 9.995-5.898 14.759-6.858 26.065-8.956m979.403 26.671c3.15.173 11.96.147 13.73 2.05-11.42 18.743-20.32 30.829-28.29 51.967l-3.73 12.906c2-24.667 7.92-44.676 18.29-66.923m-704.68-24.569c13.56-1.813 32.73-.488 45.54 4.22-7.3 2.72-10.96 3.426-18.46 4.877-23-.899-22.15 2.21-48.73-4.435 6.91-2.702 14.35-3.637 21.65-4.662m510.45 111.356c11.01-.481 19.05 6.681 26.88 14.033 1.31 1.231.51 3.09.26 4.934-3.62 2.691-18.5 1.786-23.9 1.801-1.66-7.841-2.35-12.894-3.24-20.768M269.568 856.767c3.689 3.871 4.536 23.182 4.913 29.156l-15.731-.044-2.783-.214c-.623-1.488.999-2.562 2.713-4.438 6.428-7.035 8.366-15.459 10.888-24.46m658.257-58.839a32.8 32.8 0 0 1-1.129 21.806c-1.375 3.408-2.068 4.817-5.113 6.124l-.845-1.281 1.366-5.343-.944-2.321-2.489-.564c-3.767-3.227-4.21-4.78-6.71-9.183 6.686-3.337 9.798-4.983 15.864-9.238M312.734 690.813c3.895 4.357 7.43 10.042 10.704 14.965-8.896.274-13.143.597-21.848 2.393l-12.094 3.708c8.295-7.132 15.515-13.351 23.238-21.066m-44.831 125.923c2.605 2.389 17.477 24.557 20.34 28.727l-17.915-5.084c-.63-8.35-1.242-15.322-2.425-23.643m863.457-17.309 7.06 3.913c3.3 1.808 3.49 1.595 5.07 5.031-1.04 4.778-.69 4.025.16 8.714l-13.43 3.446c-.29-8.753.11-12.535 1.14-21.104m72.21.656c1.97 2.024 3.32 8.084 1.3 10.633-4.62 1.242-14.51-1.276-19.7-2.198-2.59-.396-4.75-1.123-7.25-1.87 9.97-1.875 16.12-2.86 25.65-6.565m257.8 104.653c2.33 3.494 1.77 11.722 1.83 16.389l-15.03-.273c-.92-.647-.47-.166-.95-1.748 3.34-4.7 9.78-10.283 14.15-14.368m387.84-93.588c-1.38 6.313-7.12 17.976-9.58 24.682-3.15 8.579-4.26 14.089-6.08 22.962l-1.95.275c2.91-20.576 3.47-31.86 17.61-47.919"/><path fill="#363538" d="M1829.78 887.297c-1.77 11.629.21 27.032-1.71 41.47l-.58-.75c-1.61-8.821-.44-33.579 1.19-42.713z"/><path fill="#fefefe" d="M852.405 801.435c9.331 2.331 16.058.553 23.784 2.227l-1.434.266c-7.359.906-15.429 6.083-21.389 2.797z"/><path fill="#949294" d="m1831.6 859.067 1.95-.275-3.77 28.505-1.1-1.993z"/></svg>