<svg xmlns="http://www.w3.org/2000/svg" preserveAspectRatio="none" style="display:block" viewBox="0 0 2048 2048"><path fill="#FEFEFE" d="M0 0h2048v2048H0z"/><path d="m883.177 95.888.828.233c.077 2.104-5.843 9.953-7.53 12.482a301 301 0 0 0-22.987 41.136c246.342-40.068 473.382 3.386 681.032 143.161 196.3 132.721 332.22 337.629 378.14 570.097 45.46 237.543-5.83 483.403-142.48 682.943a902.05 902.05 0 0 1-445.56 342.2c-49.39 17.17-94.06 27.42-144.86 37.2a891.98 891.98 0 0 1-612.516-109.68c-206.509-123.71-355.905-323.86-415.771-557.03-60.76-242.2-26.452-477.067 102.298-691.758 116.908-194.946 324.356-348.185 544.637-403.339.846-12.492 4.313-25.271 8.738-36.939 5.254 10.064 6.98 14.872 9.871 25.776 19.143-23.042 38.838-43.512 66.16-56.482"/><path fill="#FEFEFE" d="m669.853 277.922 1.365.153.947 1.83c-1.133 16.03-6.792 42.129-10.508 58.703-6.499 22.945-9.397 57.868-20.888 78.713-11.37 20.624-31.11 51.525-45.917 69.553-2.056-8.101-7.225-33.237-16.475-34.425-4.074 4.76-2.228 19.376-2.088 26.181.802 39.121-9.277 76.295-16.111 114.855-5.515-5.441-22.564-20.997-29.885-14.653.144 5.049 2.959 15.98 4.093 21.469 3.989 19.295 4.968 36.296.828 55.625a121 121 0 0 1-6.426 20.608c-2.995 7.215-14.574 27.174-13.83 34.252 1 16.777 38.329 19.314 36.797 35.038-2.961 30.392-31.818 83.232-50.552 104.408-19.752-17.9-21.366 5.502-23.409 20.299-2.701-1.611-8.67-6.28-11.365-7.053-18.939-5.432-31.063 14.841-35.818 29.378-6.318 19.313-6.723 36.229 5.684 52.951 3.187 5.307 8.899 12.961 9.977 19.001 5.506 30.851 4.366 59.592 40.827 70.802 13.439 4.14 24.998 1.82 37.694-4.86-10.865-8.21-13.136-12.36-18.143-24.81 16.074-11.956 18.255-19.519 12.691-38.204 11.543-8.13 19.854-18.615 18.004-33.73-1.52-12.42 4.632-14.898 13.402-21.672 6.843-5.286 12.047-8.207 20.088-11.089-21.758 29.081-24.843 51.792-27.529 87.327-3.47 45.918-4.274 91.548-22.287 134.668-21.098 50.51-63.146 82.6-112.743 102.85-13.105 5.52-25.878 9.03-38.617 14.16 22.02-3.56 32.076-4.34 54.322-10.84 97.624-25.81 131.499-114.75 132.778-207.17.857-61.932 5.939-108.755 56.734-150.297 13.587-11.112 40.17-32.411 51.127-46.095-5.92 2.322-16.259 11.804-22.185 15.685-31.952 20.925-47.26 29.648-71.26 59.979-7.977-5.053-16.301-4.93-18.826-8.848l.709-1.896c8.081-6.373 18.079-5.122 28.112-4.979 2.444-6.443 2.576-11.821 9.556-13.984 2.81-.871 4.519-6.987 2.052-9.698-4.996-5.488-13.447-6.52-20.428-7.994 28.445-15.625 57.92-25.213 86.293-43.345a947 947 0 0 0 53.083-37.004c10.465-7.873 55.227-43.746 65.647-40.655-.873 2.185-31.314 26.19-36.331 32-7.835 9.073-12.739 12.502-19.262 24.932-8.287 15.788-8.585 26.811-12.134 43.653-2.466 11.702-17.651 7.786-24.163 11.064 4.892 9.224 11.919 15.662 13.449 26.631 3.606 25.844-21.437 34.248-42.134 35.818 5.55 11.643 9.378 13.649 17.898 22.661 2.566 2.714 6.391 6.909 5.506 10.844-2.44 10.841-25.902 22.3-35.7 25.801-5.181 1.852-16.83 3.648-19.949 6.122.656 8.154 19.45 11.392 17.647 20.713-8.263 8.702-30.226 7.682-41.372 5.3-15.746-3.362-26.385-9.998-38.918-19.545q.029 4.043.266 8.08c1.203 18.277 12.837 40.587 26.773 52.447 18.816 16.01 49.387 17.29 72.684 15.68 50.786-3.51 53.175-28.33 81.448-61.596q-13.37.372-26.747.343c20.258-19.105 35.441-34.965 43.521-61.803-9.11 7.011-10.585 11.421-22.29 17.23 3.399-43.188 26.451-101.927 68.839-120.537 23.601-9.465 59.895-9.326 83.554-.4 24.009 9.059 41.27 31.236 50.814 53.775 2.85-33.744-4.119-54.897-27.757-79.601-5.987-6.257-21.129-19.613-16.809-28.979 6.342-13.749 27.511-6.341 37.63-1.394 35.289 17.25 59.891 47.32 73.324 83.803 13.07-31.88 4.43-71.849-15.544-99.053-9.58-13.048-22.649-23.629-34.989-33.996l15.844-1.009c55.289-2.001 116.739 20.272 164.249 47.503 39.62 22.707 64.53 54.081 73.52 99.383 14.51 73.061-28.35 138.141-84.15 180.781-56.5-32.64-108.5-47.1-174.608-37.29a247 247 0 0 0-159.811 96.39 246.5 246.5 0 0 0-45.917 185.35 252.1 252.1 0 0 0 100.854 163.58c51.62 37.65 120.119 55.04 183.382 44.87 60.46-9.72 121.21-46.01 157.18-95.91-1.65 91.58-77.04 155.78-148.39 200.35-34.16 21.33-64.333 47.24-100.629 65.77-36.997 18.88-75.026 31.8-114.056 45.73a4242 4242 0 0 1-187.307 63.21c-28.278-17.85-54.343-30.28-83.443-50.38a851.06 851.06 0 0 1-280.479-327.71c-96.562-197.28-112.018-424.533-43.055-633.068a836.8 836.8 0 0 1 326.716-428.373 990.5 990.5 0 0 1 113.326-64.357"/><path fill="#FEFEFE" d="M1033.71 200.483a832.04 832.04 0 0 1 501.91 170.17 874.45 874.45 0 0 1 279.95 378.685 793.5 793.5 0 0 1 42.01 172.879c30.15 223.633-30.75 450.013-169.03 628.343a820.53 820.53 0 0 1-420 286.86c-34.98 10.31-71.44 19.54-107.66 24.15 24.49-32.87 34.99-45.33 47.6-85.13 34.58-17.75 47.34-40.05 70.62-66.64 3.72 39.56-4.38 72.81-15.15 110.19 9.93-6.59 19.74-13.16 28.19-21.7 37.18-37.54 62.66-95.34 75.35-146.14 7.82-31.31 9.56-51.18 22.33-82.31 16.73 6.43 29.13 22.72 32.11 40.19 5.41 31.73-6.08 63.16-16.99 92.21 19.06-16.48 34.69-35.77 47.3-57.95 39.56-69.57 64.58-155.49 61.31-235.87-.92-22.71-5.76-45.07-11.53-66.72 65.06 27.44 71.95 89.29 60.37 152.62-2.1 11.46-6.15 22.69-7.29 34.21-.25 2.58 1.29 3.62 2.87 5.1 9.03.18 17.26-15.03 21.63-22.25 26.78-44.33 43.43-93.5 51.29-144.61 13.7-86.7-1.54-175.49-43.35-252.67-12.1-22.07-26.23-41.9-41.08-62.15 107.21-19.04 190.68 34.97 204 146.84 1.58 13.24-.37 26.73 1.1 39.92.29 2.53 2.15 3.6 4.02 4.61 7.78-2.92 10.26-20.13 11.99-27.74 10.06-44.27 8.09-94.01-1.77-138.46-18.29-82.473-62.26-163.752-123.63-222.06-19.61-18.366-45.99-35.763-68.52-50.257 112.19.399 156.3 52.377 217.49 134.443 1.26 1.681 4.08 1.894 6.02 1.73 6.65-7.374-12.08-44.462-16.27-53.488a840.5 840.5 0 0 0-171.77-245.206c-34.02-33.404-59.24-48.178-102.19-66.851 52.85-7.019 139.44 2.283 189.77 21.284 14.59 5.509 31.74 15.683 44.87 24.277-14.72-26.114-29.63-43.469-52.73-62.461-122.49-100.69-296.88-153.824-453.33-141.445 43.31-46.874 93.56-72.5 156.91-82.09 16.01-2.424 33.68-4.068 49.79-1.908-21.11-10.959-47.61-24.908-70.15-31.184-98.91-27.536-229.15 17.593-315.37 65.298a209 209 0 0 1 10.92-26.45c26.02-53.81 61.68-90.726 118.57-110.42q-7.83-.563-15.69-.692c-72.7-.722-167.11 59.019-221.159 106.62-17.681 15.57-32.126 35.395-48.741 51.288l-1.22 1.157c-.835-11.18.458-24.463 3.645-35.194 16.542-55.697 36.502-92.026 87.209-121.561a187 187 0 0 0-26.591 6.244c-22.413 7.083-47.491 21.24-64.979 37.148-43.549 39.613-79.259 91.112-113.796 138.558-17.89 24.579-36.5 50.933-51.396 77.392-4.243 8.308-8.467 19.258-5.815 28.43 2.588 8.949 17.563 10.731 23.823 5.457 25.199-21.228 39.926-55.049 63.463-78.354 19.08-18.892 45.017-39.704 70.321-49.307-13.253 40.918-25.161 97.571-25.964 140.485 16.304-5.258 28.329-17.313 40.67-28.84 25.717-24.023 53.949-41.584 83.836-59.842-22.682 24.403-54.771 52.557-75.444 78.275 31.132-5.767 61.382-5.261 88.262 12.988 6.146 4.169 19.536 14.39 20.996 21.637-1.03 1.019-1.93 1.976-3.64 1.556-31.098-7.663-58.209-1.458-77.823 27.193 19.789.051 52.326 5.97 72.793 9.225 69.59 11.064 128.37 21.119 192.89 50.018 9.03 24.773 8.39 54.826-3.51 78.701-9.46 18.966-23.53 27.327-43.02 33.603-51.14-28.975-101-51.759-161.119-55.466-18.637-1.149-38.971.781-57.909 1.146-5.547-3.955-15.523-14.099-10.758-20.972 10.449-15.07 37.636-15.448 53.033-15.222 33.743.494 59.183 10.517 87.543 26.849-25.73-41.617-53.99-76.536-107.856-81.18-10.144-.694-22.294 1.365-31.245-4.478-10.962-7.157-10.98-24.079-3.135-33.713 16.468-20.221 39.951-24.58 64.46-27.614a141.9 141.9 0 0 0-100.124-4.518c-12.061 3.923-35.696 18.295-42.929 16.327-15.471-10.674-2.826-86.768 2.627-102.501 4.201-12.121 11.373-26.911 17.193-38.563-56.064 25.923-81.693 108.099-118.761 120.859-6.362 2.19-14.359 2.77-20.519-.391-5.411-2.777-8.664-8.381-10.325-14.048-7.859-26.828 10.925-75.843 23.043-99.562 6.598-12.915 14.916-24.819 21.789-37.58-2.682 1.041-9.796 3.483-11.779 5.478-12.265 12.338-54.686 69.32-70.639 67.284l-1.248-2.229c-.287-24.788 70.657-103.507 89.143-122.476 51.958-53.345 111.142-95.936 179.775-125.049 37.985-16.114 47.722-13.651 88.14-14.415"/><path fill="#FEFEFE" d="M981.259 1032.45c124.071-5.34 229.041 90.78 234.611 214.84 5.58 124.06-90.35 229.21-214.4 235.01-124.373 5.81-229.853-90.42-235.441-214.8s90.838-229.69 215.23-235.05"/><path d="M974.121 1036.39c122.029-9.25 228.439 82.21 237.649 204.25 9.2 122.03-82.29 228.41-204.33 237.58-121.982 9.16-228.307-82.28-237.506-204.26s82.208-228.34 204.187-237.57"/><path fill="#FEFEFE" d="M1001.69 1082.34c23.94-2.95 57.77 7.24 78.55 19.16 41.84 24 72.66 64.74 85.57 111.41 9.89 35.75 11.4 86.94-6.72 120.92-7.03 13.19-18.66 19.24-32.62 22.63-5.91-.47-11.55-1.64-16.53-5.02-24.78-16.78-12.53-41.9-9.75-64.45 1.37-11.18.95-22.5-1.25-33.54-7.52-36.89-37.96-68.14-73.13-79.79-16.06-5.66-31.869-8.35-46.451-17.72-19.819-12.73-26.318-36.35-12.352-56.14 8.059-11.42 21.266-15.78 34.683-17.46"/><path fill="#FEFEFE" d="M991.33 172.566c17.3-1.237 40.92-.923 58.26-.474 230.81 4.972 449.87 102.752 607.69 271.245 157.09 164.598 241.9 385.15 235.55 612.593a858.1 858.1 0 0 1-143.53 456.89c-34.14 52.28-78.43 107.34-123.92 150.13a879.6 879.6 0 0 1-543.23 238.94c-30.95 2.13-63.05 1.83-94.044.91 7.29-4.02 14.754-7.57 22.224-11.73l29.22-.15c9.42-.14 62.2-4.82 66.68-3.42.52 2.94.66 3.68 1.64 6.48l2.02.92c13.34-1.31 23.65-11.64 32.06-13.03 28.09-4.65 55.44-9.08 83.29-15.6a846.2 846.2 0 0 0 277.93-121.02c188.11-127.37 318.11-324.06 361.57-547.03 42.99-218.119-1.98-444.388-125.1-629.497-176.69-262.576-466.61-406.29-783.57-382.248-2.251.171-26.16-7.736-31.724-8.827a826 826 0 0 1 66.984-5.082m-318.668 72.39c.621 1.939 1.119 10.737 1.309 13.377-20.712 12.055-45.404 23.266-66.991 35.38-199.267 111.609-345.668 298.223-406.637 518.329-58.859 208.958-26.106 451.478 80.006 640.348 111.894 202.89 301.385 351.64 525.042 412.16-4.811 3.13-6.325 4.4-10.535 8.33-13.944-2.59-35.187-9.52-48.845-13.99-188.891-61.85-347.379-194.3-453.785-360.81-14.98-23.44-30.949-53.74-43.439-78.49-101.097-204.04-118.184-439.573-47.596-656.062a848.2 848.2 0 0 1 226.536-353.949c78.622-74.417 149.11-116.448 244.935-164.623"/><path fill="#FEFEFE" d="M922.797 517.882c19.003-7.05 52.99-9.323 73.527-11.074 87.116-7.169 177.816-3.351 258.496 34.195 93.25 43.731 164.87 129.88 198.97 226.014 33.09 93.313 47.75 210.698-28.08 287.683-32.92 33.42-61.78 48.77-57.39 102.17 4.68 56.94 23.43 111 28.46 167.77 5.74 58.84-7.4 110.81-31.3 163.95-68.92 158.04-206.73 250.1-365.04 305.38-49.705 17.35-82.045 23.46-131.489 35.45l-3.715-1.87c118.547-27.18 259.034-79.2 353.774-157.26a447.8 447.8 0 0 0 98.03-111.16c51.93-82.75 84.48-174.26 60.44-272.14-13.39-54.55-39.53-138.15-8.73-190.19 12.42-16.55 27.95-35.55 41.34-51.1 50.7-58.898 65.61-133.874 45.84-209.155-26.87-102.355-85.92-209.491-177.93-266.685-83.87-52.128-178.8-57.987-275.18-54.205-25.949 1.015-53.859.714-80.023 2.227"/><path fill="#FEFEFE" d="M1341.5 791.759c2.32 4.412 3.34 13.152 4.97 18.568 14.3 47.503 13.72 114.133 3.71 162.62-11.41 13.359-29.03 23.888-46.18 27.593-21.91 4.73-38.53-1.565-56.73-13.08-12.86-8.926-19.36-16.817-28.66-29.178a197.4 197.4 0 0 0 8.61-88.634c44.4 9.281 90.53-11.917 106.88-55.452 2.79-7.424 5.06-14.864 7.4-22.437"/><path fill="#FEFEFE" d="M1222.18 660.313c30.43 15 64.8 47.161 86.63 73.433 4.46 5.37 13.05 15.208 15.04 21.569 5.15 16.414 1.25 42.321-6.21 57.655-10.1 20.772-24.91 32.609-46 40.324-15.33 3.114-32.95 4.191-47.97-.891-15.12-35.959-21.74-53.137-52.63-79.843 48.26-19.251 56.98-65.358 51.14-112.247m-11.3 316.363c1.02.692.79.441 1.64 1.463 13.14 15.667 31.17 29.501 51.18 35.281 30.87 8.92 49.76 3.13 76.83-11.05-15.79 33.66-34.47 65.59-56.84 95.25-5.1 6.77-11.7 16.94-18.01 22.2-21.03 14.26-29.8 21.6-55.34 22.02-19.94-33.62-37.56-57.02-68.87-81.71 29.51-26.14 49.58-49.3 69.41-83.454m79.64 380.124c.39.51.94 1.15 1.07 1.77 9.97 45.88 9.34 95.07-5.28 139.88-6.06 18.56-19.83 26.47-36.57 34.26-25.43 11.83-47.25 16.43-74 6.8-6.45-2.79-10.45-4.97-16.59-8.42 26.77-36.35 37.48-65.66 44.84-109.41 51.16 1.58 70.81-18.24 86.53-64.88m-143.58 188.84c33.12 20.45 63.58 22.97 99.8 9.25-24.56 42.47-44.36 60.39-82.25 89.31-3.87 3.32-7.4 5.76-11.54 8.68-37.55 1.43-64.77-10.33-86.84-41.22 32.63-22.29 52.96-39.14 80.83-66.02m-96.61 76.16c2.28.62 11.64 11.59 13.87 13.99 20.02 21.57 41.4 28.97 69.99 33.75-8.3 5.57-17.96 9.89-26.96 14.23-10.08 4.16-20.31 10.41-30.26 14.59-13.49 5.67-29.75 19.37-43.94 19.42-30.41-.95-66.632-1.96-85.815-29.29 38.498-21.56 66.505-42.56 103.115-66.69m-118.959 74.11c2.208.59 15.948 17.2 21.184 20.53 16.208 10.32 33.061 15.96 51.615 19.42-23.789 12.71-46.375 23.91-72.289 31.78-11.338 3.45-31.249 14.24-42.114 13.22-28.383-5.83-55.866-19.01-75.133-41.01 35.168-11.49 84.184-27.68 116.737-43.94m-134.281 50.16c1.185.8 11.298 13.35 14.637 16.27 15.572 13.62 31.087 21.65 49.194 30.68-18.138 4.82-119.389 27.65-136.19 25.68-19.706-5.77-48.964-17.68-67.113-26.87 16.827-5.26 34.209-9.81 51.276-15.17a1643 1643 0 0 0 88.196-30.59"/><path fill="#FEFEFE" d="M1262.06 1276.67c19.64 32.29 16.05 75.58-4.78 107.28-8.34 12.71-23.5 17.71-38.04 19.75-3.52.37-9.43.42-13.15.58 3.53-44.85 7.84-39.11 32.98-76.86 6.92-10.38 18.46-38.02 22.99-50.75M773.855 236.072c1.508 0 .808-.238 2.045.858-12.542 32.759-42.072 68.382-68.041 91.807l-1.386-.141-.966-3.852c-3.293-19.432-6.193-39.433-9.371-58.98 24.706-11.824 51.792-21.055 77.719-29.692M1135.45 1808.86l.95 1.02c-.12 16.33-17.08 45.41-26.1 58.87-23.73 1.77-47.26 4.31-71.17 4.2l-.54-.41.01-1.24c9.27-8.78 41.4-25.22 53.74-33.18 14.78-9.53 28.59-19.17 43.11-29.26M630.685 637.045c5.804 13.841-1.463 44.123-11.474 55.696-9.847 11.383-15.594 14.294-29.873 16.067l-.68-.815c-1.352-5.939-.318-16.293 1.187-22.288 5.854-23.32 21.205-36.713 40.84-48.66m151.902-432.011 1.716.1c.917 2.934-1.544 9.899-2.47 13.304-19.018 3.387-72.047 23.407-89.387 32.214l-6.149-11.705c23.543-11.749 70.321-26.116 96.29-33.913m464.173 944.126.45.22c-.44 4.33-13.77 35-18.44 36.58l-1.73-3.19-8.86-24.57c12.09-2.12 17.34-3.98 28.58-9.04M865.34 187.159l1.01-.181.833.784c-3.778 6.078-13.481 13.094-20.28 15.566-1.621-3.472-2.882-8.046-4.046-11.769 8.488-1.01 14.107-2.373 22.483-4.4m526.12 682.555c.03.183-2.67 41.026-3.04 42.902-1.68-2.629-1.47-10.942-1.92-15.079l-1.2-.888-2.2 1.999-.61 15.431c-3.96-19.4 2.78-26.615 8.97-44.365"/><path fill="#B6B8BB" d="M1420.4 829.677c2.89 9.249 5.7 42.78 5.56 52.39-9.42-29.823-7.09-21.684-5.56-52.39"/><path fill="#FEFEFE" d="M1263.59 604.954c10.8 5.883 25.21 21.777 27.08 34.247l-.67-.268c-1.48-3.573-1.75-4.402-3.96-7.498-3.22-.821-1.64-.806-4.92.063-4.95-7.031-7.59-13.844-12.86-20.516zm14.71 549.816.74.7c3.52 17.62-2.93 37.42-5.97 54.83l.02-13.79c1.84-9.26 4.26-16.96 5.96-26.89-2.52 3.64-4.94 7.72-7.29 11.5 1-2.77 4.09-10.43 4.49-12.75 1.06-6.2-.43-6.8 2.05-13.6m112.65-413.998c3.39 3.35 12.67 39.798 13.63 45.68l-.87.969c-1.17-3.447-3.31-14.098-4.97-15.317-.89 2.141-.61 2.362-2.11 3.716-4.89-13.751-1.88-20.334-5.25-33.423zm-242.83-193.79c16.23.263 26.72 17.083 45.16 26.715l.14 1.08-5.36-2.323c-2.76-.297-3.18-.318-5.81-1.143-1.7-3.753-1.7-4.122-4.86-6.538l-1.09.409.64 5.264c-9.86-5.336-5.82-15.547-28.82-23.464m138.29 129.805c4.22 1.183 6.33 4.192 9.9 6.388 10.53 6.469 18.35 12.121 22.55 24.325-2.78-2.33-3.84-3.478-6.29-6.198.12-5.244-2.77-7.395-6.91-9.799 1.79 2.558 3.18 4.737 4.82 7.397l-.5 1.36c-3.73-1.941-18.92-18.775-23.57-23.473m-224.57-140.72c4.39 3.083 23.42 12.065 31.27 16.695-4.02-1.339-11.49-2.831-15.63-3.964.94.256-.96-2.557-2.71-3.958-6.31-2.188-10.55-1.183-16.87-2.194-3.01-.48-9.3-3.213-12.31-4.475 3.5 1.216 16.19 3.499 19.01 2.359-2.7-2.687-1.96-1.159-2.76-4.463m328.84 422.664c1.02 7.583-5.02 10.687-5.08 17.307.86-.322 1.73-.644 2.6-.966-.23 2.923-1.69 17.26-3.28 18.606-1.02-3.171.02-8.644.38-12.324l-.76-.686-1.42.842c-1.38 3.362-2.42 5.535-4.09 8.765l-.83-.805c.36-5.569 9.65-24.393 12.48-30.739m-183.56-344.763c2.69-.943 16.91 5.295 20.19 6.616l-2.83-3.959.8-.462c7.15 2.113 16.55 7.656 22.7 11.937-5.39-.97-10.4-6.226-13.93-5.655 1.51 2.205 1.78 1.831 2 4.064-5.18-2.151-25.61-10.175-28.93-12.541m-88.89-26.034c1.84.781 4.89 3.176 6.47 3.527 3.97.884 18.51 4.962 18.91 9.828l-3.36-.221c-2.96-.164-6.85.062-9.14-1.453 2.33-1.255 1.87-.894 3.89-2.61-5.67-1.83-9.91.085-13.49-2.103-.84-2.355-1.13-3.306-2.4-5.482zm229.12 80.768c14 5.043 15.37 22.21 19.24 33.858l-.67.294-3.13-3.996c-1.85-4.898-4.09-9.765-6.27-14.531l.54-.651 3.6 3.728c.24-3.747-10.03-14.319-13.31-18.702m19.91 127.064.84.698c2.89 9.602 10.54 24.503 11.09 35.003-4.03-8.932-12.84-26.826-11.93-35.701m59.93 140.85 1.44 1.881c.16 10.064-5.6 15.996-8.92 26.855l-.45 1.462-.89-1.278c.65-6.802 6.66-18.67 8.82-28.92"/><path fill="#B6B8BB" d="M834.836 1833.97c10.111-2.31 20.166-4.73 30.4-6.42l3.715 1.87c-11.023 1.88-22.572 4.04-33.58 5.73z"/><path fill="#FEFEFE" d="M1326.34 1149.73c.95 6.43-5.32 23.9-7.63 30.69-1.98-4.94 5.35-25.15 7.63-30.69m6.43 258.04.06-1.26c.28-6.83-2.59-12.7 1.73-18.58l.89.49c.99 5.3.04 14.48-.85 19.95zm-8.66-240.11 1.22 1.19c1.35 6.75-.87 19.38-1.93 26.28-2.42-2.46.27-23.21.71-27.47"/><path fill="#94959C" d="M1361.87 1336.73c5.8 5.65 6.61 15.46 5.19 23l-1.2.34c-.95-11.01-.51-12.29-3.99-23.34"/><path fill="#B6B8BB" d="M1338.73 1414.73c.16-3.18-.11-17.44.09-18.3 2.43 5.77 2.48 17.62.85 23.94z"/><path fill="#606368" d="m1338.73 1414.73.94 5.64c.3 3.76.48 6.19.4 9.94l-.72.41c-2.02-6.76-1.68-8.89-.62-15.99"/><path fill="#3E3F40" d="M835.371 1835.15c-2.921 1.02-10.34 2.49-13.105 1.02 2.61-2.27 9.011-2.12 12.57-2.2z"/><path fill="#94959C" d="M1334.6 1408.37c-1.32 3.61-1.89 6.25-4.55 9-.25-3.36 1.4-6.25 2.72-9.6z"/></svg>