<svg xmlns="http://www.w3.org/2000/svg" preserveAspectRatio="xMidYMid meet" viewBox="0 0 2048 1462"><path d="M1031.51 89.785c34.05-3.786 54.12 23.818 50.43 55.97 9.65 8.327 21.46 22.242 29.74 32.087 18.43 21.895-12.15 40.838-27.87 51.889 60.37 8.744 115.42 21.589 176.52 5.808 30.1-7.773 46.68-20.895 69.09 6.529 14.55-8.21 42.21-44.271 56.82-36.461 2.62 3.49 2.69 6.49 3.43 10.841 1.84 1.665 5.9-.502 9.28-1.571 17.5-5.547 29.09-7.753 46.81-1.842l8.19 16.251c-1.26 5.179-3.06 19.077-5.37 22.454-22.77 33.267-74.11 39.829-108.03 49.708 3.46 14.4 8.43 29.502 10.93 43.908 3.87 22.345 5.97 36.936 15.15 57.771 17.44 39.544 31.67 83.196 41.17 125.325a1098 1098 0 0 1 20.36 122.474c1.16 10.889-.06 34.233 1.88 42.668 4.56 2.33 14.68 1.052 20.05.623 9.19-6.731 7.93-17.425 19.41-18.209 11.35-.776 22.5 9.896 30.66 16.747 8.44-.597 29.33-2.836 35.83 1.25 4.6 5.794 2.01 13.909 2.5 21.026.39 5.814 1.35 10.862 2.44 16.56 9.68-6.675 17.78-5.43 22.93 6.218 4.02 9.093 4.78 20.712 7.9 30.28 3.21 9.855 5.33 20.29 9.7 29.757 2.74 6.3 8.31 9.084 12.23 14.456 9.79 13.456 20.13 26.493 30.64 39.397 8.89 11.295 21.76 25.545 28.8 37.575-11.86-30.267-15.7-44.492-2.78-74.149-7.56-7.231-17.24-19.908-23.89-28.179-21.65-26.747-36.65-52.307-44.38-86.222-4.85-21.258-10.05-46.331 10.12-62.741 7.01-5.709 11.62-5.7 20.21-4.58 20.45 16.479 31.6 32.251 47.59 52.838 1.7 2.189 8.09.029 11.29.061 9.68.094 11.95 11.244 14.28 18.613 5.98 20.782 7.27 45.604 22.15 62.385 11.6 13.081 21.72 27.852 33.57 40.608 7.43-1.625 19.37-4.412 26.36-3.839 51.03 4.188 135.71 13.969 112.47 86.813-10.63 33.319-18.19 48.652-36.95 77.362 7.51 7.466 39.91 47.816 42.45 57.116 12.68 6.94 30.23 18.28 39.06 29.39 16.63 21.79 28.29 49.84 35.7 76.03 18.53 65.51 26.23 133.52 32.39 201.12.23 2.57-.78 5.52-.76 8.4.04 8.81 3.68 23.62-.56 31.49-2.89 2.18-1.34 1.72-4.74 1.7-5.39-3.21-5.35-7.83-5.62-13.59-3.32-69.2-16.05-189.93-41.87-253.14-14.43-35.31-34.4-58.48-70.21-73.47-6.03 20.74-13.2 40.88-20.81 61.09-25.24 66.98-54.43 134.2-87.76 197.55-6.91 13.19-14.08 26.24-21.5 39.14-2.89 5-6.5 9.9-9.05 14.62l-.31.58c-.02 9.13 5.52 28.5-5.44 31.32-7.5-2.47-7.3-26.09-8.92-33.66-20.99-97.93-42.18-257.16-154.06-290.78-12.9 16.9-25.61 39.27-36.99 57.4-31.52 50.19-57.72 104.13-86.65 155.38 3.1 13.5 25.05 95.75 8.59 99.8-9.4-3.1-6.9-12.19-7.73-21.17-4.8-52.05-21.49-100.68-36.17-150.74-15.36-52.4-50.49-120.65-106.58-138.18-32.63 48.37-61.22 98.02-91.84 147.71-18.54 30.09-31.75 53.79-53.52 82.87 3.39 10.37 16 62.05 11.86 73.94-.8 2.29-2.93 2.57-4.83 3.02-8.33-2.64-9.99-30.39-12.09-38.99-19.64-80.31-69.82-268.99-167.644-283.88-8.866 11.39-24.998 37.43-33.305 50.07a4192 4192 0 0 0-100.327 163.86c-16.041 27.17-31.551 55.14-49.944 80.81-2.426 3.38-8.338 8.67-12.343 9.98-3.151 1.02-3.371.87-5.802-.32-2.969-8.01 10.261-22.34 14.816-28.81a478 478 0 0 0 21.253-33.22 4947 4947 0 0 1 151.698-246.56c-26.012-1.72-45.207-.43-70.353-.7-5.361 5.1-15.517 17.95-20.701 24.17-46.305 55.94-84.699 119.27-119.535 182.85-13.084 23.88-24.538 52-35.552 76.88-2.634 5.96-5.788 15.9-13.781 14.34-6.993-8.16 6.428-31.68 10.57-40.78a1226 1226 0 0 1 109.226-190.58 822 822 0 0 1 28.778-38.66c6.469-8.19 17.156-19.83 21.648-28.74a904 904 0 0 1-46.26 1.88c-38.117.58-31.581-2.45-63.116 17.11-49.081 30.44-67.26 61.89-84.56 114.89-11.686 45.79-20.582 88.21-23.975 135.52-.344 4.79-.481 18.19-1.739 21.94-3.733 11.13 5.588 31.29-7.897 35.19-2.075-.57-2.996-.52-4.283-2.48-7.338-11.2 8.477-122.58 12.592-142.61 14.043-68.33 30.386-124.44 91.402-164.81-10.681-10.49-18.973-17.56-33.596-21.93-26.42 31.05-66.213 101.11-85.569 136.82a4234 4234 0 0 0-59.652 116.21c-5.325 10.54-26.89 55.86-33.434 61-4.085.94-2.877 1.3-6.077-.13-5.145-7.95 5.851-24.51 9.802-32.27l22.107-43.45c40.014-78.91 84.79-171.95 138.333-242.47-11.669-3.48-48.948-7.87-62.183-7.66-4.074.07-18.006 16.68-21.41 20.83-46.847 57-88.505 124.89-120.363 191.28a1048 1048 0 0 0-22.378 50.58c-3.964 9.85-13.906 42.77-23.885 44.76-.705-.28-1.948-.74-2.402-1.21-.832-.82-3.155-3.56-2.7-4.86 34.966-99.71 103.849-228.25 174.507-302.91-21.099-.12-69.488-2.1-89.022 2.07-46.019 9.82-110.886 52.65-128.022 96.93-23.955 61.9-31.27 123.15-38.944 188.1-1.588 13.43.2 54.01-9.176 59.84-3.456-.35-2.142.12-4.931-2.21-8.236-16.8 13.029-152.39 18.541-177.29-19.174 25.2-63.346 43.42-94.882 41.64-18.961 30.64-38.275 63.52-60.423 92.09-2.422 3.13-4.792 5.03-8.746 4.86-2.979-1.85-3.146-1.88-4.632-4.94 1.058-6.33 21.518-34.34 26.269-41.47a1175 1175 0 0 0 32.111-51.25c-32.101-6.5-39.808-31.58-50.425-59.22-27.172 44.71-52.286 87.85-70.597 137.11-1.106 2.98-3.059 5.8-5.983 7.15-13.898-.56-5.522-16.07-2.088-23.46 19.528-42.02 44.492-99.93 74.227-135.61-11.342-43.31-12.893-86.05-14.45-130.51-65.076 37.49-81.334 169.33-87.631 237.57-1.228 13.31-1.733 58.56-4.483 66.62-2.58 1.67-2.701 1.64-5.847 1.77-8.231-4.67-5.325-25.33-4.966-34.14 1.88-46.06 6.241-93.62 16.868-138.62 14.243-60.31 30.988-114.1 85.938-148.39.421-53.21.943-202.327 35.344-239.4 15.96-17.199 47.96-24.361 70.742-24.892 26.932-.626 49.406 5.262 69.296 24.149 8.861-16.93 15.382-38.858 15.007-57.92-.327-16.593 6.547-35.246 24.411-17.921 10.266-17.367 28.975-52.771 47.443-61.359 8.442-3.926 11.087 4.917 14.097 6.065l6.842 2.555c17.476 24.793 19.103 20.623 9.669 52.637-15.407 52.282-39.904 94.815-71.047 138.928 2.152 7.872 4.469 15.598 5.682 23.669 16.763-17.262 42.783-47.973 55.994-68.598 2.806-4.38 4.586-18.948 5.93-26.337 2.784-15.319 6.861-43.276 18.255-54.803 1.531-1.549 7.926-2.663 10.501-1.697 3.961 1.485 4.297 3.642 6.471 7.363 8.114-2.947 49.002-99.15 76.151-43.436 8.39 17.218 11.609-4.657 12.361 30.054 3.308 2.377 45.236 1.026 52.816.949-2.765-61.871 10.878-150.154 26.872-210.238 5.353-20.108 16.613-44.57 22.419-64.549-1.053-.855-.78-.852-1.809-1.128-4.308-1.154-8.41-1.387-11.264-5.347-12.287-17.05 3.172-107.028 7.516-129.966-34.806-14.677-115.048-36.352-100.61-87.811 1.854-6.611 10.944-10.055 16.668-12.245 4.69.741 9.563 1.641 14.119 2.586 5.164 1.072 23.48 8.889 27.2 7.423.025-2.987-.16-4.306.786-7.087 15.584-17.316 47.499 31.53 60.031 40.491 40.246-23.324 41.022-14.165 83.574.087 11.389 3.243 27.36 9.648 38.993 11.003 40.571 4.725 121.163 16.62 157.208-1.202-14.965-1.893-24.54-5.563-36.32-13.555-28.864-19.585-18.665-38.206 1.09-59.337 5.981-6.398 1.111-10.07 1.125-15.274.063-23.08 15.795-48.666 40.21-51.734 4.165-.522 10.135-.749 13.455 1.876 1.01 1.649 1.48 2.46 1.37 4.371-1.41 24.861-22.763 33.65-39.44 47.027-7.364 5.906-1.979 13.72-.632 20.466.878 4.394-1.581 1.364-1.55 5.706 3.77 5.457 13.548 11.665 19.384 14.728 2.637-8.734 8.208-15.105 16.418-19.102a33.78 33.78 0 0 1 25.78-1.418c10.03 3.476 15.46 9.608 19.84 18.85 4.27-2.941 6.72-5.833 10.62-8.966 6.69-5.37 22.23-8.943 15.29-20.437-4.68.349-1.08 11.764-9.81 10.594-4.86-4.1 5.14-18.636.19-21.104-25.39-12.64-36.79-17.963-49.48-45.429 2.17-8.81 2.18-10.301 10.42-14.26"/><path fill="#fefefe" d="M754.419 225.189c10.008 2.634 27.316 9.652 37.95 13.214a336 336 0 0 0 72.247 15.855 631 631 0 0 0 61.896 3.456c6.961.102 35.924-1.253 40.618-.007.374 4.321-1.484 20.95-1.887 26.179-4.069 52.808-18.504 104.724-27.778 156.726-10.667 59.807-20.171 120.189-32.464 179.697-5.301 25.658-10.058 49.294-17.475 74.56-14.396-.684-33.27-.134-48.012-.073 1.187-3.67 2.628-7.296 3.956-10.923 9.946-27.174 14.526-56.036 21.483-84.088 10.673-52.432 27.224-104.224 36.145-157.278 2.841-16.892 4.909-33.885 8.041-50.732 13.753-9.539 28.821-67.005 29.167-83.491-2.597-2.996-1.423-2.546-4.617-2.989-2.792 1.53-4.879 4.623-5.789 7.61-5.967 19.61-9.29 38.769-17.157 57.909l-.304.726-3.533-.447c-22.264-2.945-45.501 8.189-66.342 14.799-34.618 10.981-69.264 20.939-105.784 22.498-6.997.298-20.773 2.193-27.243 1.081 22.778-36.999 49.591-112.459 50.647-155.31.241-9.803-1.516-19.475-3.765-28.972m536.661 13.037c.38.209 2.35 1.643 2.39 1.979 3.62 35.351 26.13 132.316 46.93 156.874-62.83 2.221-126.63-9.663-188.31-19.367-18.93-16.363-24.56-28.904-32.11-52.921-1.84-5.852-2.3-13.084-5.97-18.205-3.29-.451-1.7-.661-4.89 1.017-7.26 10.355 12.87 50.426 19.29 60.565 3.62 5.714 11.3 13.678 16.19 18.746 7.27 78.802 29.86 164.559 52.32 240.287 4.93 18.109 16.55 49.673 23.43 67.135-7.84.753-31.74.625-39.58-.191-3.67-3.056-25-76.424-26.56-85.277-11.07-62.605-31.49-122.052-46.51-183.422-10.68-43.604-18.75-89.598-29.01-133.474-4-17.103-5.64-35.513-9.14-52.886 78.62 13.88 142.38 28.285 221.53-.86m-262.53 282.357c29.5-1.918 65.84 2.339 95.27 4.698 14.85 60.467 24.55 108.921 44.2 169.264-5.12.439-10.51.615-15.66.586-31.36-.177-63.34.633-94.64-.258-6.48-22.346-7.76-45.388-10.48-68.34-.51-4.355-.77-8.046-5.36-9.19-2.66 1.467-2.89 2.841-4.26 5.774.19 17.125 2.19 36.749 4.85 53.697.67 4.242 4.22 14.1 2.82 17.352-5.03 1.392-28.06.646-34.58.87-36.176 1.24-76.02-1.68-111.832-.385 10.817-35.979 15.986-77.589 24.648-114.445 3.832-16.301 4.681-33.624 9.096-50.25 21.831 1.576 43.654-4.191 65.365-7.01 11.183-1.453 19.133-1.937 30.563-2.363m-164.877 277.74c11.514-2.132 34.045 1.154 44.035 7.997 9.203 6.304 16.441 12.883 22.093 22.658 12.628 21.837 17.376 44.925 28.04 68.261 8.686 20.8 23.322 39.07 30.413 60.53 3.246 9.824 7.456 18.761 4.062 27.491-1.097 2.824 10.894 6.766 12.614 13.931 10.09 4.799 6.45-8.702 9.69-12.836 7.27-.999 10.44 17.945 19.74 14.255 2.03-3.48.55-6.57 1.95-11.484 6.78.444 7.78 9.073 14.33 12.674 5.08-.92 11.03-10.782 13.06-15.22l-2.33-1.903 7.24-8.157c.64 1.56.22.81 1.29 2.233 3.36-1.013 17.97-13.117 18.74-15.779 7.34-25.622 13.21-51.754 20.63-77.371 15.52-53.6 71.6-77.935 121.82-53.844 27.08 10.331 41.96 43.224 45.19 70.45 1.63 20.243 10.76 36.673 19.92 54.32 4.48 8.619 3.52 23.233 12.44 27.303 4.58-.257 9.21-4.779 12.88-7.801 1.7 1.732 3.23 3.386 4.87 5.184 12.16 1.614 6.26-8.724 13.42-13.872 4.17 2.784.59 9.472 7.14 11.363 7.93-2.771 8.22-12.112 12.28-16.906 7.27-8.591 16.22-14.482 21.62-25.19 14.88-29.508 14.85-62.709 40.08-87.338 26.61-25.978 45.69-26.895 80.09-26.756 2.65 2.54 8.59 7.285 8.09 11.034-4.35 1.815-23.98-1.205-31.49.108-16.29 2.851-24.85 5.298-38.11 14.822-31.77 21.887-31.53 60.205-47.39 92.051-9.37 18.815-34.83 30.904-30.33 54.956 2.59 13.783 11.52 33.533 23.05 42.053-16.66 5.52-36.76 12.85-51.41 22.31-20.42-14.9-30.67-13.47-50.19-22.67-.81-4.98 13.55-26.45 12.31-38.541-2.57-25.223-14.58-44.346-23.82-67.229-8.46-21.258-4.49-39.931-17.49-62.193-32.96-56.435-115.02-42.537-133.96 18.058-3.41 10.887-5.47 21.995-8.3 33.024-9.08 35.326-22.91 79.711-3.76 113.741-25.09 11.15-38.28 14.39-59.84 33-4.51-3.67-10.02-9.78-14.32-12.93-17.61-12.9-36.178-24.24-57.499-29.73-5.315-1.37-8.812-1.04-14.391-2.39-.227-1.84 4.213-7.36 5.559-8.99 28.255-34.196 1.323-67.054-15.519-99.127-18.392-35.095-24.292-104.06-75.694-105.268-35.59-.837-77.792 22.159-90.186 57.042-5.927 16.68.027 34.467-2.141 51.257-4.64 35.944-36.35 81.762-6.302 113.746-7.754 4.11-15.061 8.72-22.979 12.53-26.865-30.94-58.523-31.03-96.166-37.68-8.022-1.41-22.363 2.26-25.035-7.478 1.559-9.738 18.482-19.87 26.582-28.388l.671-.713c3.874 5.721 8.477 16.744 15.677 17.435 5.641-3.891 4.348-8.843 2.202-14.424l1.148-1.027c.869.58 2.79 1.908 3.751 2.125 9.206 2.075 7.641 11.752 13.794 14.851 3.681.154 2.343.561 5.454-1.142 2.785-3.558 3.115-8.835 4.113-13.503 8.012 1.117 9.761 19.456 24.207 11.801 1.21-.641 1.767-3.464 2.092-4.806 1.43 1.728 1.286 1.734 3.289 2.678 1.597-2.563 1.257-1.173.792-4.364 6.486 1.722 4.341 7.112 13.57 7.853 1.795-.811 3.019-.909 3.614-3.16 1.063-4.026 1.693-7.876 2.748-12.064 4.26-16.906 13.377-39.299 15.124-56.202 1.015-15.554-1.896-31.371 1.642-46.769 9.264-40.319 50.329-64.462 89.496-69.88M1787.93 1018.7c10.64-.12 57.25 5.4 65.54 8.79 4.64 8.43-37.39 112.79-45.28 130.48-21.17 47.43-43.14 97.4-68.41 142.76-4.85 9.99-9.86 16.68-14.32 27.63-1.05-18.24-21.32-104.19-29.32-121.18 5.68-7.2 20.37-36.55 24.97-45.45 15.75-30.22 30.74-60.82 44.97-91.78 6.99-15.25 16.42-35.76 21.85-51.25m-204.37-197.972a206 206 0 0 1 7.53 8.602c11.71 14.292 23.05 31.133 35.09 45.583 12.61 15.132 24.7 31.121 36.61 46.813 2.05 3.75 12.54 15.07 13.38 18.638 3.75 16.002 6.44 32.161 12.7 47.68 1.53 3.789 10.25 15.546 10.12 16.856-21.24 4.28-39.18 10.18-56.46 23.6-8.12 5.5-15.01 10.09-22.58 16.34-16.03-20.76-30.82-43.27-47.27-63.832-3.72-4.713-8.77-11.94-6.99-18.321 12.23-43.799 22.08-65.73-10.89-103.787 11.01-16.923 15.36-23.408 28.76-38.172"/><path fill="#fefefe" d="M1213.97 1045.14c3.24.69 16.47 1 20.55 1.08 17.35.36 30.81.66 47.82 4.47-7 13.43-26.42 41.24-35.57 56.5a5573 5573 0 0 1-56.36 92.78c-8.29 13.4-17.15 28.85-25.98 41.65-6.3 9.34-12.43 18.8-18.38 28.38-8.77-26.11-17.86-52.11-27.26-78 26.03-47.6 50.89-92.62 84.59-135.31 3.09-3.91 6.58-8.64 10.59-11.55m517.72-27.78c11.5 2.51 24.11-2.05 40.88 1.59-22.09 58.36-52.5 115.72-81.92 170.66-2.45-10.36-6.85-21.05-10.64-31.04-10.11-27.14-27.35-54.93-46.87-76.36-3.48-3.82-17.07-14.21-17.57-17.9l1.53-1.63c5.12-.43 9.3-5.97 13.29-9.31 6.94-5.84 14.19-11.29 21.73-16.33 6.87-4.48 14.17-8.28 21.78-11.33 7.23-2.95 16.1-5.7 23.94-7.18 5.71-1.09 30.35 1.33 33.85-1.17m-259.37 35.73c3.55.18 7.51.87 11.24 1.12 20.8 1.39 41.35-.57 62.18-1.08-12.1 15.53-20.4 31.39-30.81 47.68-24.77 38.76-45.48 78.87-68.11 118.68-5.32 10.3-10.07 19.68-14.8 30.25-6.4-29.88-20.62-72.27-31.74-100.83 8.41-11.28 16.75-22.66 25.21-33.91 15.29-20.34 29.27-43.36 46.83-61.91M471.521 800.272c.94 5.013 2.601 8.153 4.702 12.776-46.027 51.232-39.213 94.011 2.852 145.427-11.179 25.062-25.914 52.865-38.164 77.785-4.682-4-12.246-9.13-17.413-12.86a171.5 171.5 0 0 0-35.154-18.05c-.693-4.2-1.122-8.435-1.477-12.675-.897-10.845-1.733-21.668-2.762-32.505-1.754-18.454-5.64-36.622-7.908-55.009l.921-1.469c8.921-2.462 18.341-3.818 26.523-8.378 17.949-10.285 8.585-17.385 14.829-29.763 1.372-2.72 14.551-18.091 17.465-21.569 12.212-14.578 24.178-28.388 35.586-43.71m651.999 243.888c19.31-1.39 51.69.77 72.72.02-18.31 23.93-36.26 50.29-52.38 75.7-8.41 13.25-14.89 28.24-23.86 41.53-2.53 4.36-5.12 9.9-7.4 14.5-16.28-34.49-27.33-70.06-55.94-98.79 21.44-16.76 40.35-26.92 66.86-32.96m-151.103-746.2c4.851 7.102 9.034 16.928 13.641 24.507 20.222 33.494 44.382 62.4 75.082 86.832 8.32 6.62 38.19 23.842 40.89 31.493l-.74 1.307c-7-1.167-19.31-5.137-27.95-6.919-39.69-5.717-86.696-9.741-125.754 1.576 2.795-10.731 5.728-27.466 7.93-38.699 6.252-31.893 13.858-67.885 16.901-100.097m496.273 388.921c22.42.397 67.59 57.749 68.48 80.487.16 4.321 3.97 15.47 9.6 13.792 5.6-8.695-1.74-32.687 3.16-42.777l1.28.306c3.77 6.588 6.34 22.411 8.86 30.258 4.96 15.406 9.7 30.732 14.11 46.306-10.88 12.936-18.1 22.908-27.56 36.949-32.77-23.558-79.12-89.957-90.27-128.694 3.93 4.816 8.49 13.554 11.67 19.209 4.45 7.394 20.28 34.237 27.22 35.975 7.72-7.52-8.27-22.906-11.29-29.624-3.31-7.355-25.09-36.986-23.39-42.811 9.16 1.757 30.5 54.205 43.59 58.09 3.56-.667 2.06.125 4.61-2.524l.48-2.803c-9.83-16.501-22.5-33.899-33.34-49.821-3.62-5.321-8.46-8.497-9.35-11.601 13.24 6.746 40.54 44.265 48.73 58.22 12.79-4.688 13.59-6.303 4.2-17.62-15.38-18.529-33.41-34.744-50.79-51.317m134.71-42.265c10.37-.52 44.31 45.505 48.27 55.661 4.25 10.909.03 32.711 14.74 45.315 2.96-.391 1.9-.06 4.4-2.582 1.65-6.414-4.44-24.232-6.44-32.382 1.16-4.571 1.57-11.71 6.65-12.274l1.29 1.555c-.75 9.333 15.78 62.03 19.15 72.504-12.95 10.209-22.1 20.92-33.08 33.032-11.84-9.772-40.92-51.258-49.12-64.516-2.11-3.806-4.43-6.409-2.98-10.707 3.68-2.105 6.25-3.792 3.63-8.262-11.78-20.099-18.98-27.288-21.46-52.114 2.81 6.768 23.87 47.986 28.21 51.442 4.26.45 5.74-.352 7.07-4.244-1.37-16.349-32.39-53.6-29.59-63.381 6.81-.192 33.62 57.17 40.35 59.778 3.45-.413 3.56-.625 6.4-2.823 3.42-9.96-32.33-53.674-37.49-66.002m-1156.512-2.517.572 1.183c-4.491 16.114-15.038 33.828-21.415 49.63-1.937 4.8-3.565 8.714-1.524 13.472l2.425.795c13.188-2.738 23.958-48.36 33.304-58.383l1.242.896c2.302 10.842-26.074 54.264-24.073 67.162 2.148 2.885.786 2.08 4.033 2.793 11.141-4.148 23.072-43.326 30.139-56.243l.533-.959c-3.344 22.498-21.014 67.303-31.182 87.819-11.572 24.613-25.965 43.261-40.156 65.828-5.637-12.587-22.418-34.568-32.875-43.466 14.369-17.55 17.435-37.826 21.333-59.919.938-5.317-1.485-11.682.188-17.167l1.407.136c7.754 13.082-2.596 44.118 6.521 45.457 14.347-6.283 7.349-26.569 9.924-33.925 7.393-21.128 25.009-49.105 39.604-65.109"/><path fill="#fefefe" d="M984.923 251.031c1.663.735 8.861 13.718 10.514 16.386 26.213 42.298 58.403 78.995 92.973 114.621.89 10.805 5.98 28.808 8.85 39.966l-8.68-5.087c-41.31-27.658-74.91-61.496-98.732-105.346-6.321-11.633-8.197-13.138-15.322-23.061-.331-2.357 1.721-31.229 2.303-33.054 3.132-3.489 3.156-2.702 8.094-4.425M562.819 658.946l.749.906c-2.117 15.796-37.877 60.726-33.883 72.787 16.535 8.742 37.735-64.271 46.021-66.467 3.206 12.58-28.485 54.141-26.213 66.284 2.236 2.045.934 1.501 4.101 1.522 11.035-4.796 27.576-43.193 33.583-55.375-2.252 14.505-15.109 40.774-20.384 57.16-3.436 12.439-16.076 37.715-25.424 46.615a149 149 0 0 0-31.081 10.05c-4.822 2.171-22.464 12.196-24.863 12.219-5.509-9.801 5.886-84.989 15.417-90.967 4.831 6.296-2.903 36.501-3.213 45.001-.116 3.185 2.132 6.106 4.351 8.235 3.343 1.095 2.11 1.237 4.828-.026 4.011-5.241 4.879-17.713 5.902-24.417 3.451-22.609 32.459-70.54 50.109-83.527m835.411 388.164c.18 0 12.92 2.12 13.08 2.17 7.82 2.62 36.8.6 42.21 3.06-1.77 4.54-11.74 17.71-15.13 22.46a2238 2238 0 0 1-40.29 55.1c-1.54 2.33-2.47 3.43-4.31 5.56-.9-.5-12.56-20.91-14.57-24.34-9.92-16.95-20.67-28.28-34.6-42.01 13.57-9.61 37.59-16.61 53.61-22M610.232 195.35c16.892-3.289 45.271 17.215 56.911 16.288 6.841-4.27-.106-11.667-3.476-16.6 18.007 14.108 28.285 29.827 45.888 44.173 5.855 4.772 33.209 13.856 34.515 20.008.565 2.66-2.878 26.632-4.076 28.593-3.978-.53-30.183-12.121-36.377-14.631a1904 1904 0 0 0-38.864-14.81c-15.328-6.679-45.261-24.094-57.238-35.511 11.631 5.693 22.971 12.903 35.018 17.691 3.776 1.5 6.665 2.409 9.089-1.191-.292-2.128-.352-4.055-2.435-5.534-15.052-10.69-35.166-15.136-48.128-29.15l-.909-.995c15.851 5.457 43.21 19.926 55.533 23.067 2.91-1.013 1.811-.117 3.374-2.815-2.449-10.639-43.106-20.437-48.825-28.583"/><path d="m672.272 223.499 1.906.845c1.142 4.288-1.37 11.955.572 22.131l-3.232-.999c-5.824-6.854-4.735-15.31.754-21.977"/><path fill="#fefefe" d="M1315.87 295.512c-2.26-6.456-6.67-23.004-5.17-29.363 3.82-3.711 21.44-11.093 27.67-15.707 16.05-11.886 24.45-23.895 42.39-33.531-2.58 6.216-4.7 8.598-8 14.263-.9 1.546-.16 2.084.67 4.309 4.46 3.208 13.28-2.115 18.12-4.328 10.68-4.876 19.88-9.077 31.88-9.179l1.15-.004c4.14-.059 7.8-.515 11.54 1.042l-.41 1.113c-4.25 1.666-6.57 2.013-10.97 2.836-8.54 2.723-28.52 7.95-34.3 13.389l.28 1.416c12.1 6.265 31.87-6.885 48.52-6.871l.41 1.373c-5 9.05-41.59 10.692-46.44 17.789.3 3.727-.43 2.19 2.18 4.799 3.85.996 35.42-7.643 42.42-8.934-18.47 11.686-38.87 10.653-49.08 18.234l-.19 2.11 1.55 1.303c7.26-.119 17.36-2.783 24.68-4.418-23.9 12.334-70.87 20.716-98.9 28.359"/><path d="M1376.5 251.517c7.34 6.608-2.17 15.193-7.55 19.603-2.16-2.272-1.86-1.377-2.6-4.13 1.37-3.657 7.49-11.416 10.15-15.473"/><path fill="#fefefe" d="M1700.18 777.697c9.54 10.71 15.58 21.161 26.78 32.836-22.59 8.084-32.72 14.667-37.54 38.902-2.89 14.554-.96 23.542 3.96 37.33-5.14 8.715-7.66 15.582-10.8 24.964-.36 2.172-.18 2.214-1.59 3.84-.57-.362-1.44-.855-1.76-1.433-11.84-21.551-32.2-59.146-22.02-83.658 7.1-17.12 29.85-39.192 42.97-52.781M639.964 885.765c11.661.08 12.359 7.188 14.261 16.681-8.055 19.423 4.044 36.912-7.966 59.492-8.402 15.796-14.598 9.832-25.583 19.684-3.147 2.822 1.344 16.943-1.308 21.688-1.574.57-64.231-.03-72.121.22l-3.066-.01c-4.118-1.74-6.641-8.54-8.646-12.675 47.185 8.85 103.767-18.103 105.492-71.23.476-14.653-7.862-14.742-1.063-33.85m365.416-675.434c.61.395 1.22.778 1.84 1.148 9.46 5.569 25.16 2.455 35.17-.047 1.13 16.804-.62 20.445 5.19 36.059l.43-1.306c-5.66 12.539-11.56 21.786-18.6 33.519l-8.03 11.051c-7.25-8.475-24.564-31.585-26.995-42.19 1.25-2.762 5.128-4.247 8.005-5.783 2.56-9.605 3.1-22.471 2.99-32.451m-298.519 78.64c9.438 3.346 20.369 8.722 30.157 12.628-6.57 27.829-18.016 56.936-30.249 82.767-2.094 4.43-5.778 12.122-8.733 15.654l-.796-.605c-2.455-33.245 3.146-77.65 9.621-110.444M370.929 796.695c17.197 12.202 39.399 61.003 30.737 83.31-1.624 4.184-11.863 6.021-16.295 7.124-3.691.968-4.994 1.562-8.829 1.118-6.73-3.614-7.593-10.693-6.502-17.576.572-3.608 2.575-3.763 5.603-5.624 2.653-7.013-6.201-10.642-9.274-17.255-1.771-3.813-2.289-7.816-3.001-11.921 6.741-13.818 8.561-23.931 7.561-39.176m16.539 222.355c16.455 6.04 35.27 17.88 47.64 30.48-13.379 12.05-19.746 18.49-31.336 32.37-5.273 7.05-12.322 19.57-16.319 27.45.158-26.75 3.556-64.51.015-90.3m102.534-51.176c8.899 7.178 20.008 14.772 30.469 19.209a621 621 0 0 1 6.77 18.017 208 208 0 0 0-48.078 17.96c-8.607 4.75-15.4 8.79-23.653 14.13 11.733-22.71 22.34-46.045 34.492-69.316m1209.958-68.146c6.61 7.347 11.12 9.414 17.88 15.831 2.28 2.163 3.16 6.991 2.51 10.345-4.26 7.816-12.61 5.392-19.16 2.236l-1.07-.522c-3.99 3.898 1.66 9.815 4.61 12.927 3.71 21.365 14.8 52.461 37.02 60.935 2.31-.05 6.02.14 7.78 1.68l-.63 1.4c-2.79.29-29.58.47-32.64-.59-4.65-1.62-10.05-11.676-12.81-16.295-17.75-29.706-14.33-56.412-3.49-87.947m-140.36 84.853c5.23 5.051 44.79 62.149 48.23 69.209-1.41 3.38-.26 2.18-3.47 3.78-4.3-.34-8.02-3.15-11.88-5.43-19.37-11.99-31.75-11.54-52.99-11.02 17.37-15.12 18.48-34.6 20.11-56.539m-501.1-740.945c2.69 2.509 6.36 31.13 8.3 38.371-7 11.558-14.65 27.996-21.68 38.272l-1.69.023-3.09-3.349a118.4 118.4 0 0 1-14.78-19.036c10.09-17.598 24.55-37.341 32.94-54.281m8.88 47.023c5.34 16.598 13.04 57.371 16.94 75.539l-10.49-10.082c-8.42-8.292-18.36-20.605-26.21-29.812 7.51-8.87 14.77-24.912 19.76-35.645m768.79 689.029c1.48.833 27.3 35.252 27.42 36.032-6.7-.84-13.8-2.55-20.44-3.99-13.33-2.3-18.02-3.79-31.73-4.24 9.22-9.358 16.33-17.787 24.75-27.802m-507.43-675.607c3.2 4.827 17.71 65.345 14.84 70.405l-1.91-1.891c-9.35-16.769-18.51-46.221-22.49-65.044zm-23.25-65.991c4.45 1.659 12.58 5.566 13.27 10.607l-1.95 1.261c-3.05 1.51-5.18 3.014-8.49 2.818-2.33-3.276-2.24-9.915-2.83-14.686m-566.572-10.78c3.992 2.194 5.461 8.073 3.636 12.166l-1.912.711-5.056-2.623c-2.782-.452-4.353-.372-6.347-2.318 1.046-2.638 6.606-5.685 9.679-7.936m281.392-49.254c6.46-.31 22.19 1.179 19.24 10.977-4.5-6.082-7.26-7.267-14.45-8.612l-1.26-.23c-8.67 2.225-9.18 5.015-17.1 8.807l-.38-.631c5.01-6.712 6.09-7.346 13.95-10.311m491.83 525.616c5.92 1.015 11.67 7.099 13.37 12.709-5.95-2.643-8.54-7.595-13.37-12.709"/><path d="M1041.93 148.982c4.33 1.056 6.85 1.48 8.17 5.898-1.74 2.742-1.35 1.928-4.88 3.513-4.27-.493-7.5-.121-9.02-4.679 1.76-3.184 2.27-2.758 5.73-4.732M1004.97 150c4.03.7 5.35.911 7.47 4.366-1.5 3.355-1.09 2.317-5.22 4.452-4.4.001-6.77.415-8.176-4.123 2.196-3.597 1.566-2.495 5.926-4.695"/></svg>