<svg xmlns="http://www.w3.org/2000/svg" preserveAspectRatio="xMidYMid meet" viewBox="0 0 2048 1462"><path d="M825.579 80.1c16.721-3.146 24.036 15.827 28.806 27.556 13.385 2.782 15.734 5.224 20.083 18.016l-4.173 10.623c13.663 42.571 31.252 88.072 48.618 129.454 8.567 20.413 25.223 42.985 35.368 63.48 7.918 15.994 19.5 32.651 29.274 47.646 12.523 16.96 15.246 24.715 36.645 28.521.19-2.192 1.11-7.581.4-9.448-.62-1.602-17.68-7.751-24.688-19.34-9.985-16.524-9.54-39.495-5.171-57.659 3.481-14.473 22.199-62.209 33.399-68.82 15.85-9.356 40.17-8.226 57.35-3.875 24.05 6.093 49.51 19.578 62.42 41.581 8.7 14.834 11.97 31.477 7.35 48.223-10.21 36.998-40.51 56.312-71.74 74.246 6.44 6.055 17.9 12.535 25.63 17.493 17.6 11.292 35.55 22.358 52.79 34.208 5.34 3.676 10.58 11.217 12.95 17.197 9.67 24.322 15.34 51.559 22.02 76.62 6.71 25.156 12.36 48.164 18.23 73.355 12.6-6.525 26.77-12.3 38.63-19.643-14.14-7.453-20.4-8.09-9.88-22.834-1.77-4.153-5.99-16.385-10.38-17.845-2.33-.773-6.2 1.405-9.38-1.238-6.3-21.668-9.06-38.454.4-60.247 6.17-14.199 16.21-24.872 30.86-30.418a65.13 65.13 0 0 1 49.98 2.092c36.14 17.011 42.22 64.098 26.1 97.128-9.99 20.463-24.08 29.131-44.8 36.169 12.46 4.905 27.58 11.887 40.55 14.664 17.81-7.241 32.7-11.891 51.29-16.975.26-2.388.39-6.565.88-8.753 2.72-12.084-7.43-7.168-14.53-14.205-47.27-46.888-18.09-115.634 50.79-102.643 16.01 3.019 31.35 12.761 34.76 31.147 1.6 24.987 12.18 66.543-1.65 89.03-4.33 7.051-17.29 7.48-24.85 7.995 13.49 5.948 51.1 22.378 62.5 29.482a351.5 351.5 0 0 1 50.98-24.686c-21.17-.445-43.06-12.642-45.12-35.609-3.74-41.689 9.5-99.601 59.24-105.084 25.02-2.758 41.61 8.853 60.31 23.377 22.79-18.657 44.84-15.295 71.03-7.359 33.74 10.224 34.25 41.162 24.96 70.014 7.31 6.367 15.53 10.135 21.68 18.226 15.5 20.395 13.88 36.937-5.68 52.692 12.14 8.314 17.41 8.978 29.74 20.478 6.56-8.754 17.28-16.225 26.68-21.75 4.73-2.778 21.83-8.237 24.11-11.233-.72-8.034-18.69-13.769-22.53-22.744-9.67-22.611-3.3-52.92 2.92-74.895-3.62-6.746-6.33-16.347-2.52-23.62 18.99-36.231 96.64-13.078 109.15 18.546 7.54 19.049-6.38 49.726-12.69 68.399-3.01 8.916-10.2 20.778-14.56 30.109a742 742 0 0 1 48.79 22.212c3.43 1.717 14.62 7.369 16.63 9.66 8.46 9.649 16.95 35.732 20.81 48.336 6.52 21.318 17.88 52.118 21.32 73.206 5.46 33.536 8.83 69.778 13.3 103.642l9.16 68.714c1.86 12.936 10.16 53.905 4.08 62.836-16.66 24.48-43.45 13.8-47.72-14.767-4.7-31.513-12.45-60.551-18.79-91.448-3.6-17.579-8.09-37.354-13.23-53.881-3.14 51.284-3.26 101.958-.95 153.286.31 6.7.66 13.38.8 20.09.52 42.85 1.26 85.69 2.24 128.52 1.82 66.15 4.57 133.46 3.74 199.62-11.52-.1-102.02.83-104.77-.6-.68-2.04-.74-2.58-1.97-4.38-23.8.71-51.92 1.22-75.43 2.38-4.66 6.29-13.15 4.31-20.96 3.94-13.3-.65-29 .25-41.77-.35-8.82-.41-37.4 3.67-43.73 1.9-6.44-10.04 6.24-6.86-9.35-8.11-12.1-.97-63.56 5.68-69.75 1.21-.55-3.02 1.09-5.09 2.59-7.97-1.99-2.26-30.83 2.47-39.01-1.91-1.4-2.75-2.86-287.39-1.2-311.8-11.64-6.77-16.56-9.12-22.65-20.94.37-19.892 4.24-33.546 9.41-52.677-8.49-23.888-13.62-47.936-21.62-71.292-.28 9.349.28 19.391.09 29.105l-2.87 133.274c-.46 18.27-.19 41.41-1.67 59.29-3.72 45.17-10.15 90.83-14.46 136.02-1.81 18.98-6.7 45.72-6.87 63.96 8.7 2.65 57.57 16.47 57.31 23.97-6.93 5.86-68.67-2.58-81.07-1.29 1.51 4.38 1.67 2.82.34 6.57-4.99 3.58-21.01 1.18-27.95.93-19.92-.58-39.83-1.33-59.73-2.26.59 6.25 2.58 13.66-1.83 18.57-4.69.96-16.47.89-21.72.6-23.79-1.32-51.6 2.98-74.96 1.61-3.06-1.32-3.41-2.45-5.19-5.34l-.6-.99c-8.57-.58-24.63.58-33.87.95-14.51.53-29.04.78-43.57.78-.09 8.13.72 38.41-.69 44.16-3.89 1.92-138.18 4.27-141.11 2.36-.6-2.12-.8-3.59-2.22-5.27-18.379-1.6-50.768-.18-69.689.5-10.438.12-38.373 3.88-44.836-1.29-.373-1.58-.743-1.84-.004-3.39 4.008-8.45 60.936-30.18 72.207-33.99-1.216-14.5-4.122-31.35-6.25-45.9a3236 3236 0 0 1-11.899-85.4c-10.147-84.62-18.211-164.34-18.727-249.557-.111-18.288-1.652-172.784-3.576-175.602-3.062-1.631-2.517-1.935-5.485-1.812-3.839 5.254-3.998 68.895-4.286 80.639a2306 2306 0 0 0 1.895 150.682c1.205 30.22 4.842 65.66 2.399 95.4-5.297 64.46-11.392 127.77-21.816 191.63 10.703 3.92 19.151 6.14 30.181 8.81.513-43.43.234-85.62 1.3-129.12 6.346 32.23 8.381 67.57 14.198 100.21 2.484 13.94 5.567 30.8 6.557 44.69-6.505 7.28-64.572-2.29-78.751-.66-.512 1.78-1 3.57-1.466 5.36-4.268 2.92-33.206-2.39-42.934-2.27-.853 4.65 1.808 3.34-.297 8.45-6.65 4.09-62.179-3.89-75.946-1.31-1.518 2.62-2.126 3.51-4.08 5.82-1.622.72-2.459 1.17-4.307 1.08-31.293-1.54-66.76-3.93-98.029-1.68-.575-4.49-.63-10.25-.795-14.87-16.579.8-32.288-1.64-48.254-.87 1.17 4.2 1.632 3.39.558 6.91-6.357 4.28-57.371-3.49-70.176-2.02 1.775 1.65 3.627 2.93 4.237 5.17-.76 1.52-3.589 5.35-5.128 5.31-25.071-.6-50.514-1.43-75.589-1.48l-6.355 6.29c-29.359-3.36-62.556-1.27-92.039-2.22-28.964-1.27-57.957-2.76-86.946-3.24-5.981-.1-12.412 3.97-18.584 3.9-31.084-.3-62.826-1.82-93.855-.29-1.548-18.23-.328-48.81-.214-67.86l1.184-129.89 1.499-150.114c.332-26.85 2.699-57.659 1.246-84.116-1.909-34.761-2.386-68.206-2.784-103.035-4.38 12.175-8.135 29.175-11.41 41.997a2721 2721 0 0 0-24.035 106.25c-2.736 13.372-5.919 51.818-18.586 55.318-47.696 13.19-34.876-34.183-31.974-56.466a3774 3774 0 0 1 8.76-64.184 4314 4314 0 0 1 12.856-85.065c2.388-15.194 4.489-32.482 7.902-47.342 8.191-35.665 18.796-71.231 31.546-105.532 5.607-15.083 19.783-19.86 33.122-26.37 14.242-6.708 29.266-12.27 43.925-18.066-23.129-2.439-35.166-.352-34.658-28.545.877-37.604 5.937-94.907 49.764-105.925 59.263-15.151 82.648 30.068 81.512 81.831-.808 36.818-4.388 44.936-39.234 53.604 16.305 8.647 54.113 24.163 71.958 29.894a222 222 0 0 1 25.224-16.04c5.487-3.013 36.761-17.07 38.192-19.484-.901-5.947-18.633-12.176-23.511-18.462-12.811-16.504-11.455-38.021 3.883-52.171-1.649-6.042-3.56-12.111-4.274-18.26-2.964-25.543 10.713-43.38 36.666-45.207 13.335-.939 24.506 2.251 37.597 3.599 7.575.345 14.371-1.154 21.961.259 18.125 3.374 27.292 19.743 20.323 36.835-2.56 6.28-5.609 9.233-10.374 14.327 5.721 22.32 9.824 74.53.086 95.119 2.761 3.567 6.029 7.278 8.968 10.746 4-1.588 11.635-5.917 16.122-8.052 12.243-5.913 25.713-11.001 37.332-17.947 8.013-4.791-7.512-20.811-10.7-25.715-3.734-5.029-6.77-10.132-9.843-15.544-14.787-26.051-23.618-52.064 4.901-72.699 13.264-9.598 28.796-8.89 44.514-6.246 36.616-26.109 74.186 5.759 47.166 46.6 1.141 18.801 4.749 49.185-3.123 66.228-3.461 7.495-7.543 8.761-14.64 11.166 12.591 6.311 29.6 19.087 39.456 23.352l2.587-2.633c-.539-4.628-9.156-6.338-10.118-17.203-1.564-17.67 14.955-28.234 22.908-43.548 13.726-26.031-1.348-51.934 18.158-76.572 26.298-33.215 86.506-38.594 103.896 6.276 13.205 28.999-4.068 49.167-8.523 75.873-1.359 8.151 7.775 31.548 9.091 43.365l8.135 4.028c16.809-6.629 28.313-10.732 45.762-15.426l-.145-13.179a52 52 0 0 1-1.628-.823c-26.156-13.916-41.46-57.988-27.963-84.984 7.603-15.207 19.976-13.318 33.28-17.998 16.423-5.778 33.084-15.433 50.47-5.574 14.812 8.4 24.28 25.922 24.826 42.801.096 3.724-3.48 8.229-3.056 12.862 1.775 19.451 5.699 40.961-3.652 59.142-2.769 5.331-16.295 8.149-21.933 9.466 2.405 4.612 26.526 14.404 32.617 16.464 1.661-24.586 4.997-57.237 5-81.447-3.403-20.055-11.853-39.431-18.554-58.623-16.365-46.871-33.4-93.45-51.529-139.672-4.784-12.199-10.039-25.184-13.331-37.833l-26.852-106.388c-8.005-31.716-16.159-64.427-19.87-96.949-1.851-16.224 13.651-24.262 26.825-27.364"/><path fill="#fefefe" d="m859.329 156.093 1.66.158c4.476 3.964 28.903 75.462 34.625 89.427 14.342 35.002 30.142 62.477 48.877 94.973 9.091 15.769 17.836 32.012 28.474 46.808 7.705 10.716 17.722 19.577 25.764 30.036l.769 1.01c-4.088 9.585-3.142 39.605 9.462 43.053 7.41-.653 11.04-8.703 18.26-14.064l.9-.661c-.39 7.244-2.05 24.196 4.5 28.997l2.13-.409c6.38-6.722 5.21-21.26 5.23-30.248 4.43 7.183 9.43 21.709 15.35 25.451 12.17 1.612 26.3-29.344 29.47-38.994 5.52 3.045 16.93 10.709 22.16 14.49 11.6 8.399 44.75 25.97 49.52 38.208 13.78 35.377 20.5 73.945 31.33 110.297 13.38 44.894 16.5 92.042 22.23 138.302a6923 6923 0 0 0 22.12 166.094c-9.07 2.699-31.18 8.978-39.9 7.327-1.95-1.768-3.16-7.085-3.76-9.77-13.31-59.546-25.05-117.96-41.56-176.748-5.11-19.35-42.82-143.44-53.85-151.101-2.59-1.795-5.2-1.243-8.08-.598-5.89 5.625-1 12.191 2.19 19.979a1112 1112 0 0 1 32.23 90.352c2.98 9.549 9.86 31.285 11.11 40.266 2.55 18.245 2.75 44.106 2.32 62.456-83.74 16.722-123.05 14.078-203.857-9.913.043-26.007 2.795-57.946 4.578-84.235l10.289-145.119c.777-11.182 7.74-56.265-1.061-61.005-10.261 1.675-9.951 18.263-10.529 26.511-9.941-22.463-17.736-53.466-27.375-77.291-9.57-22.545-16.537-48.829-26.517-70.939-17.849-39.539-26.054-79.776-36.624-121.613-5.827-23.062-13.224-48.205-17.646-71.648 9.572-1.305 24.512-7.029 35.211-9.839M404.551 625.906c5.828-.481 46.099 31.227 49.964 2.639l19.779 1.766 7.223 7.845c25.697 27.936 25.233 92.14 26.184 128.937 1.249 43.693.909 87.417-1.02 131.085-38.809 9.712-95.225 12.623-134.196 2.46-1.86-18.088-12.269-95.569-9.519-106.824 3.138-12.841 8.888-25.956 14.021-38.097 3.223-7.622 10.122-17.039 10.505-25.312.123-2.635-.683-3.655-2.274-5.631-3.267-1.638-3.936-1.449-7.616-1.025-6.606 7.793-19.253 39.348-22.916 49.72-21.771 61.644-33.644 126.572-46.662 190.497-9.188-1.454-15.491-2.3-24.357-5.151 3.424-16.371 5.219-33.656 7.868-50.398 11.812-74.656 20.136-150.875 44.656-222.767 12.523-36.716 35.707-44.802 68.36-59.744m371.252 8.107c3.076 1.448 8.692 14.149 10.436 17.945 16.347 35.427 15.47 73.132 14.918 111.191-.336 23.146-.453 45.704-1.89 68.854-1.323 21.312 1.155 44.318-1.028 65.557a83 83 0 0 1-4.261 1.863c-30.361 12.221-104.329 9.521-134.154-2.957 3.831-35.583-.971-74.192 1.804-109.976 1.014-13.078 32.404-53.35 17.685-63.017-8.157.566-10.788 11.75-13.576 17.677-10.37 22.05-18.001 37.162-23.402 61.175-14.478 52.294-23.94 109.368-37.601 161.262-8.631-1.456-16.813-3.222-25.363-5.061l20.827-128.588c9.823-60.091 20.144-149.215 68.052-190.443q2.828 1.385 5.734 2.597c31.305 13.194 71.393 4.312 101.819-8.079M1262 619.92c5.63.664 49.4 19.451 56.44 22.884-1.52 11.193-9.28 47.852-1.39 54.619 3.79.64 2.27.86 5.74-.858 4.51-5.628 6.68-35.068 9.43-46.562 4.49 2.009 9.07 4.319 12.87 7.48 29.83 24.777 53.71 194.102 60.36 237.349 3.31 21.543 7.58 43.187 9.77 64.857-5.27 1.14-16.75 3.28-21.77 1.753-4.46-14.062-6.88-32.252-10.74-46.954-10.38-39.523-19.33-81.712-31.78-120.449-8.35-28.231-22.89-57.527-32.41-85.673-1.65-4.849-6.54-13.626-12.64-10.698-6.88 9.832 5.18 27.709 8.28 38.641 2.01 8.388 14.55 32.285 14.55 39.202 0 39.168-2.5 81.193-.52 120.242-26.83 9.799-52.47 11.459-80.59 12.389-2.14-35.122-10.26-74.796-14.71-110.107-6.49-51.495-12.63-103.044-19.25-154.507 12.02-7.431 34.99-17.497 48.36-23.608m369.56-.063.88 1.006c1.09 11.801 4.16 18.346 16.04 22.486a23.84 23.84 0 0 0 19.3-1.478c6.87-3.724 8.6-7.535 10.74-14.325 10.72 4.361 27.35 11.629 35.71 19.315-7.5 10.84-27.88 43.175-26.97 55.862.8 11.223 17.72 45.97 21.79 58.172 1.76 5.298 10.32 23.857 10.32 28.581-.01 11.62.23 28.903-.42 40.47-1.16 20.596.63 48.724-1.58 68.334-1.96 2.372-4.72 2.583-7.88 3.386-36.95 6.973-91.89 7.644-127.65-5.624-.2-68.333-2.13-139.005 5.32-206.764 1.21-11.034 3.32-28.935 6.18-39.135 6-5.873 30.27-23.856 38.22-30.286m-1410.556 4.054c4.018 1.239 12.335 19.237 33.592 25.332 7.329-8.279 9.374-10.736 12.947-21.108 10.345 2.972 28.658 11.68 37.934 17.429 4.957 16.711 7.605 44.431 7.552 61.819-.019 6.147-5.066 24.258-6.835 31.318a651 651 0 0 0-8.195 37.143c-8.174 43.846-12.988 85.419-20.096 128.953-.022 2.27.204 3.09-1.175 4.882-13.424 2.925-83.304-7.421-99.51-10.26a3134 3134 0 0 0-5.658-253.303c16.389-8.276 32.95-14.159 49.444-22.205m1644.076 11.721c9.38.486 39.46 15.772 48.19 21.422 7.06 4.57 13.11 24.007 15.99 32.721 8.13 24.642 19.19 55.844 24.21 81.181 3.86 19.502 6.42 47.236 8.96 67.72l15.65 119.853c-7.32 1.301-14.58 2.203-21.95 3.165-14.12-58.571-25.22-127.389-46.28-183.466-3.2-9.609-25.21-75.074-36.46-71.23-.64.845-1.44 1.911-2.41 3.198-1.46 7.69 7.01 24.361 9.57 31.336 5.86 15.994 17.98 42.931 21.2 58.65 1.61 7.867-1.51 42.601-1.89 53.634-.41 12.024-.58 36.186-1.79 46.935-11.95 1.654-25.24 3.79-37.16 4.441-1.67-15.438-1.17-54.433-1.32-72.21-.15-34.098.26-68.197 1.21-102.282.54-27.635 1.26-67.82 4.28-95.068"/><path fill="#fefefe" d="M553.956 622.928c5.923 3.896 13.661 21.723 24.98 25.265 14.96 4.681 23.392-11.079 27.246-22.242 9.749 4.591 24.887 15.558 34.276 22.041-34.511 44.963-49.886 148.043-58.079 205.323-1.839 11.066-3.382 29.318-6.147 38.834-4.753-19.994-7.224-42.741-11.515-62.076-12.341-55.609-27.433-136.113-55.386-185.343 14.383-7.777 29.791-14.824 44.625-21.802M333.25 912.677c4.788 10.802 19.582 67.286 23.369 77.776 3.473 9.617 1.19 79.947.07 89.297-3.118 26.01.102 245.19-4.952 253.81-3.071 1.47-5.845.34-9.383-.39-14.257-4.53-27.604-9.91-42.275-13.61a1759 1759 0 0 0 25.946-242.68c.828-20.92 1.355-41.86 1.581-62.81.099-30.737-.826-71.972 5.644-101.393m840.48-11.706c9.69 24.98 4.74 68.447 4.38 95.674-.26 19.355.36 38.815.73 58.175 1.72 88.18 15.77 174.08 29.29 260.94-9.31 2.99-18.56 6.17-27.75 9.53l-19.11 5.69c-1.57-29.61-.51-63.78-.52-93.63-.32-35.58-.97-71.15-1.94-106.72a4200 4200 0 0 0-2.05-86.93c-.94-24.21-2.43-52.846-1.17-76.787 1.09-20.769 11.22-45.895 18.14-65.942m551.58-247.719q8.16 5.653 16.08 11.624c28.58 68.394 38.07 160.947 50.7 233.9 2.58 18.718 6.17 37.473 7.82 56.287.69 7.856-17.36 7.911-22.35 7.44-2.7-9.741-5.62-27.847-7.7-38.531a1312 1312 0 0 0-11.76-53.32c-15.69-64.919-32.11-108.259-58.43-169.426 5.29-14.22 17.69-34.228 25.64-47.974m22.16 242.578c2.88 3 2.69 73.508 2.91 82.923 1.08 35.477 2.67 70.937 4.76 106.367 3.08 57.11 5.83 111.95 14.89 168.8 2.88 18.08 6.37 49.95 10.95 66.76q-11.73 2.985-23.58 5.52c-7.69 1.49-15.22 3.55-22.8 5.52l-1.52-251.67-1.22-84.764c-.09-10.945-.66-32.728.64-43.119 2-15.959 10.01-40.844 14.97-56.337M891.574 629.65l2.507 2.077c1.893 7.076 1.991 58.51 2.013 68.379l.071 127.469c.032 24.982-.664 52.047 1.145 76.688-5.475.067-11.357-.11-16.87-.17-2.514-15.886-6.775-33.915-10.161-49.839-5.461-27.161-13.986-56.553-18.842-82.769-2.04-11.013-3.463-48.567-4.31-61.143-1.617-23.987-5.324-55.562-5.229-78.854q.42.768.85 1.531c4.807 8.514 13.702 23.765 23.951 26.195 3.233.786 6.646.213 9.446-1.584 8.592-5.405 12.994-18.817 15.429-27.98m480.326-6.467c2.29 2.298 4.42 8.165 7.39 11.628 16.47 19.229 28.07 13.476 40.62-5.948 5.01 2.224 12.39 5.098 16.47 8.427 1.7 6.927-.42 29.384-.66 37.417-2.21 75.222-5.36 151.855-.27 227.043.16 1.98.03 2.285-.29 4.269-3.29 2.753-9.63 2.238-14.33 2.433-8.95-75.713-21.01-149.39-44.17-221.803 1.19-5.409 4.5-4.28 5.54-10.899 3.33-21.05-9.66-31.807-22.53-48.434 4-1.082 8.3-2.738 12.23-4.133m-1216.48 31.29c5.203 4.53 5.561 96.134 5.686 109.503.023 2.51-6.922 25.863-8.158 30.1a2746 2746 0 0 0-15.734 55.07c-9.841 36.984-16.543 74.357-24.986 111.448l-11.704-.214c-4.695-.295-6.066-.024-9.262-2.614-2.858-9.198 14.961-107.736 17.018-125.708 4.833-29.864 8.768-64.414 17.81-93.101 5.62-17.83 18.743-72.641 29.33-84.484m1694.51-17.428c1.22 1.799-8.39 223.317-3.56 247.401.42 2.122.19 16.953.13 20.453-3.7 2.996-22.1 2.926-27.84 3.178l-.2-13.582c-.56-7.683-.43-16.224-.63-23.976-1.92-77.921-4.87-155.483-4.84-233.454 1.53 2.609 3.92 6.873 6.05 8.85a15.78 15.78 0 0 0 12.06 4.079c8.11-.777 14.14-6.921 18.83-12.949m-265.7-11.311c2.92 1.555 6.91 2.646 10.12 3.674-9.48 9.429-23.06 27.754-28.64 39.589-6.58 13.98-9.83 29.199-13.68 44.083-7.17 27.678-14.49 55.327-20.67 83.248-1.44 6.523-2.83 13.066-4.96 19.412l-.4 1.189c-5.7-26.492-3.42-40.335-2.47-67.515.32-8.218 2.06-22.58-7.04-26.448l-2.31.934c-5.21 6.399-4.21 11.85-4.44 20.187-6.98-29.52-15.29-59.482-22.7-89.016 7.41-5.719 42.18-21.538 53.12-27.219 3.95 7.585 8.3 14.522 16.7 17.748a17.45 17.45 0 0 0 14.34-.702c7.78-4.022 10.73-11.387 13.03-19.164m-560.31-350.813c4.15 2.45 14.6 12.455 17.36 16.507l-3.39 2.031-.29 1.609 2.24 2.287c3.58 1.322 4.52.939 8.27.203 5.85 1.972 14.36 10.055 19.25 14.435-7.01 43.236 9.52 16.667 21.79 22.291 1.95 2.172 2.45 3.17 3 6.074 4.02 21.349-12.17 16.9-24.93 18.499-3.31 4.461 1.52 10.869 2.73 15.795 2.21 8.949-1.53 28.603-2.95 38.175-8.42 8.095-17.78 11.043-28.48 15.04-2.48.742-2.53.927-5.16.443a629 629 0 0 0 1.68-44.291c-7.73-1.754-16.13-5.033-23.43-8.139-6.36-10.467-7.85-16.092-10.87-27.687 7.85-.763 30.1-2.708 29.29-13.928l-1.65-1.063c-2.63.213-21.04 6.334-26.49 7.693q-.09-3.358.06-6.715c.42-8.485 6.23-32.546 12.56-39.744.82-.933 6.26.659 7.95 1.058l1.83-1.188.17-1.858c-4.33-2.755-5.85-3.075-6.6-8.071 1.24-4.081 3.36-6.139 6.06-9.456"/><path d="M1017.01 301.743c3.69.028 4.85-.029 7.45 2.72.56 3.695-.92 5.704-2.58 9.164-4.4-.307-5.72-.855-7.86-4.612.4-4.619-.04-2.859 2.99-7.272"/><path fill="#fefefe" d="M815.19 702.719c5.441 14.243 13.044 42.84 17.324 58.395a1464 1464 0 0 1 13.806 53.907c8.56 36.381 22.085 103.164 30.581 142.664l-1.017 1.79-5.077 1.192c-6.116.733-12.185 1.861-18.254 2.92-1.399-9.49-6.385-27.91-8.715-37.826a5778 5778 0 0 0-20.799-86.804c-1.855-7.805-6.254-22.012-7.324-28.748-1.717-10.81-.502-31.194-.22-42.63a854 854 0 0 0-.305-64.86m756.3-7.982c.87 8.831-2.6 41.405-3.01 54.277-3.32 25.239 2.49 58.948-1.32 83.27-6.72 42.945-21.25 92.377-33.08 133.737-3.37-.79-7.04-2.075-10.37-3.14-3.97-1.205-5.42-1.637-9.2-3.558-3.09-6.722 15.13-81.874 17.11-93.883 5.94-36.091 14.77-73.43 24.11-108.888 5.23-19.871 9.17-42.418 15.76-61.815M519.483 705.776c1.805 4.276 2.773 8.115 4.038 12.527 20.058 70.003 33.053 142.297 45.242 214.02 1.202 7.076-2.261 26.075-3.337 34.234l-.846 2.201c-3.145.555-7.139-1.098-10.387-2.081a3797 3797 0 0 1-22.158-86.884c-2.497-10.164-9.443-33.561-9.799-43.401-1.317-36.393 1.76-73.6-1.972-110.053-.668-6.52-1.179-14.143-.781-20.563m951.527-54.06c6.91 11.107 43.76 174.36 46.69 200.346.79 6.992-6.97 45.08-8.84 56.118l-2.19 10.458c-9.74-29.618-20.38-68.242-27.33-99.053-2.26-10.007-.94-37.774-1.63-49.626-2.28-39.138-2.83-79.176-6.7-118.243M1049.4 1065.72c1.66 11.71 1.7 23.83 2.98 35.79 3.22 28.09 6.78 56.13 10.69 84.13 8.12 57.92 18.72 109.39 28.28 166.2-8.48 5.7-42.16 17.46-53.14 21.37l-.99-1.06c-.42-3.76.43-26.53 1.83-28.5 4.51-6.35 29.67 6.08 36.36-4.5.38-5.37-2.48-13.03-3.55-18.65a2753 2753 0 0 1-29.25-190.39c-1.1-9.32-1.43-18.36-4.95-27.16 4.42-12.45 6.75-24.33 11.74-37.23m581.28-550.772c3.41-.145 3.73-.266 6.89.794 8.65 10.235-7.18 20.957 25.8 34.128-.38 4.667-1.52 10.916.42 14.864 3.1 1.961 1.46 1.596 5.1 1.133 3.02-2.752 3.7-8.496 5.87-13.375 4.18-2.787 8.13.284 10.11 4.238.04 15.448-7.25 16.682-16.74 28.896-.73 10.035-1.36 20.077-1.9 30.124.49 12.243-4.36 22.124-19.39 12.319-3.55-2.312-1.1-20.907-.79-26.129-9.9-10.562-18.38-1.17-25.24-13.388-5.63-10.918-5.39-24.634-5.78-36.604-.53-16.201 1.08-28.07 15.65-37m160.59 19.382c20.61 12.136 25.08 11.772 46.34 1.065-1.27 7.041-3.63 21.579 2.12 26.574 5.88.774 15.98-9.634 19.77 2.814-2.32 6.875-10.12 7.786-16.23 8.547-1.58 9.623-.69 33.167 1.71 42.469l.57.862c-.22 9.397-11.32 26.239-19.63 19.564-3.3-8.247-1.84-25.45-1.89-35.461-18.46 2.101-36.1 1.926-38.08-22.505-1.18-14.554 1.82-29.809 5.32-43.929m11.06 339.528c-5.45-48.811-17.13-102.565-27.46-150.718-3.38-15.762 4.46-59.506 6.99-76.285.55-3.643 13.47-7.794 17.29-9.247l5.03 219.596c.73 3.955 1.51 26.652 1.34 31.417l-1.18-.04.21.217c-1.09-5.589-1.74-9.288-2.22-14.94M1452.4 642.367c1.08.804 3.02 2.25 3.44 3.507 3.42 10.19 12.09 248.491 9.57 253.821l-4.31 1.53c-5.16.919-9.51 2.396-14.5 3.959-.94-15.208-.68-35.519-.81-51.182-.43-48.843.71-97.687 3.43-146.456.99-19.309.84-46.94 3.18-65.179m-586.758-99.208c4.188 1.311 7.553 1.709 11.942 1.459 7.559-.432 8.776 4.923 15.43 5.249 3.649-.79 4.866-2.36 7.457-4.944l.948-.954 1.193 1c3.543 8.414 2.846 27.494 2.364 35.357-1.605 26.165-13.356 10.947-26.138 16.041-4.293 1.712-1.984 28.76-2.188 36.324l-5.15 7.85c-.22.414-1.315 1.656-1.663 2.073-5.865-.638-13.472-13.616-16.302-18.379.596-6.156 3.666-30.559 1.909-34.712-3.44-8.132-28.919-19.12-16.756-33.806 8.387-3.929 6.701 6.28 14.621 6.741 2.951-2.683 8.204-13.845 12.333-19.299M432.833 1112.22l9.527 3.21c4.251 24.56-1.198 29.9-4.053 53.14-6.68 54.39-1.448 110.74-2.073 165.49l-11.803-4.13c-7.041-2.25-12.997-3.92-20.11-5.76 10.088-48.72 17.246-97.54 23.701-146.88 2.9-22.17 2.385-44.41 4.811-65.07m969.837-577.955c4.89 2.007 11.28 4.53 16.6 4.498 5.11-.031 9.11-1.747 14.12-.494 4.4 5.015 4.67 35.143 5 43.019-.24 4.84-1.31 11.135-5.09 14.354-8.21 6.997-17.95-6.292-25.02-.029-.34 4.134 1.66 18.507 1.65 26.466-2.13 9.042-13.88 13.194-19.07 7.405-5.54-6.178-2.35-29.45-1.78-37.54 13.86-15.295-7.09-10.812-10.01-23.08-.62-2.604-.19-5.965 1.21-8.352 8.95-5.26 23.38 11.221 22.39-26.247m429.7 581.495c3.19 2.18 5.63 35.65 6.43 41.83 4.46 34.71 9.27 69.38 14.4 104 3.07 19.45 8.3 42.03 10.65 60.66-6.31 2.73-13.08 4.79-19.63 6.92l-11.22 3.75-.8-149.76.08-44.22c.06-6.75.68-16.76.09-23.18m-1586.892 6.98.801.72c2.137 5.96.839 76.28.866 88.82l.667 121.8c-7.65-2.14-11.717-3.42-19.149-6.47-4.137-1.25-9.985-2.42-12.864-5.26.037-11.49 9.993-54.92 12.085-69.07 6.306-42.64 14.245-87.66 17.594-130.54m1018.912-3.05c2.06 4.13 3.47 24.55 4.12 30.17 6.49 56.37 14.39 117 26.03 172.52-5.08 1.16-9.81 2.7-14.78 4.26-5.82 2.24-12.8 4.2-18.82 6.06l3.3-163.1c.28-17.18-.83-32.11.15-49.91M613.319 547.362l1.15 1.63c1.088 8.796.571 17.702 1.287 26.354 3.09 37.354-21.166 17.589-30.889 20.26-4.682 7.072 5.751 14.873 10.796 18.782-3.122 9.694-5.241 12.539-11.396 20.858-5.707-3.762-9.376-7.167-13.174-12.833-4.828-7.337-4.352-22.649-2.197-31.019 2.765-.931 2.777-.816 4.98-2.628.817-4.859-1.756-11.777-7.683-11.795-9.187-.028-14.948-15.394-4.889-18.37 4.558 1.407 7.523 6.456 10.681 10.482.872-4.51 1.555-9.779 2.264-14.379l13.281-6.749c9.457 3.409 16.236 1.681 25.789-.593m785.511 564.198c4.05 9.7 1.51 94.69 2.48 110.92 1.68 28.03 1.76 63.66 3.84 92.54l-13.9-3.27c-5.31-1.67-11.48-4.51-16.69-6.72 2.53-9.63 4.36-27.13 6.12-37.29 6.56-37.97 9.06-76.17 13.73-114.36 1.75-14.26 1.81-27.27 4.42-41.82m-820.108-4.74c1.694 35.77 1.442 71.74 2.457 107.64.989 34.95 3.224 72.72 2.799 107.54-6.005-1.07-12.336-3.1-18.232-4.82l-11.942-4.39c10.387-47.22 15.092-97.29 20.039-145.28 1.214-11.78 2.938-53.8 4.879-60.69m272.264 2.31 1.532 4.26c-.667 42.96.555 86.44.557 129.52.002 16.31-1.04 64.01.911 76.87-5.197-1.73-24.775-7.86-28.82-10.55-1.409-.94 4.809-28.05 5.559-32.19 10.114-55.84 13.647-111.96 20.261-167.91m741.674-572.213c2.73-.085 3.24-.268 5.69 1.051 2.21 3.88 2.6 22.769 2.69 28.397.17 9.927 2.45 24.756-4.21 32.902-4.11 5.03-12.63 2.902-18.55 3.146-11.85 7.352 1.47 24.497-15.91 30.961-12.48-4.204-9.6-14.687-10.19-25.988-.33-6.216 7.17-10.756 9.12-17.03 5.11-16.462 3.74-36.244 17.34-48.919-1.37 1.283 10.93-2.78 12.97-3.918zm58.57 567.693c2.1 5.35 5.36 40.16 6.51 48.52l16.02 120.71c2.12 16.3 6.36 38.39 6.98 54.05-3.76-5.54-8.78-11.3-13.1-16.51-2.71-3.21-7.19-9.5-11.03-10.1l-1.36 1.27c-1.57 3.44-1.08 5.18-.57 8.79-2.58-.19-1.46.3-3.37-1.72-1.08-4.39 4.89-31.66 5.88-39.61 1.03-8.86 1.58-17.76 1.65-26.67.26-23.21-3.4-47.73-7.53-70.6-2.39-13.3-8.15-29.64-8.07-42.82.03-5.12 5.97-19.86 7.99-25.31m-919.466 37.19 2.094-5.01c.978 8.32-.496 15.73-.689 24.07-1.11 32.48-1.532 64.98-1.263 97.48.097 22.97.804 48.12.167 70.92-6.405-1.46-20.216-5.6-26.171-8.06.253-6.35 5.475-30.8 6.928-39.07 3.787-22.67 7.264-45.38 10.431-68.14 1.974-13.35 6.057-38.46 6.214-51.24l.008-1.26c1.516-4.01 2.447-15.36 2.281-19.69m497.906-226.52 2.13-.136c.49.672 1.24 1.628 1.39 2.418 3.38 17.624 9.05 41.515-15.35 45.9-5.45.979-2.96 1.596-8.01-1.264-7.24-6.762-19.36-28.951-13.58-39.21 1.5-2.664 28.31-6.707 33.42-7.708m-81.41-125.539c2.19 2.363 17.88 73.891 20.91 85.153-4.71 11.733-8.23 22.663-12.11 34.656l-4.05 11.689c-2.2-18.276-2.34-49.721-3.14-68.435-.72-16.763-2.66-47.265-1.61-63.063M822.026 94.127c14.187-1.211 15.676 9.019 19.932 20.223-12.904 8.81-17.778 26.674.556 31.075l-2.741 1.636-18.689 5.998c-3.036-12.839-8.44-35.472-7.414-48.523.406-5.17 4.453-7.685 8.356-10.41M473.987 537.179c3.607 2.515 5.879 23.92 3.932 27.476-7.982 1.558-31.154 1.451-40.074 1.278-2.308-.34-5.083-.388-6.65-1.924.631-8.08 5.533-15.328 10.85-21.161 12.56-.945 20.045-2.571 31.942-5.669M351.263 834.714c4.776 20.343 5.067 52.6 6.08 73.974.593 12.51 2.228 24.737 2.579 37.299l-1.43-.285 1.104 1.497c-1.699-1.575-1.947-4.047-2.546-6.425-3.456-10.29-13.217-49.146-18.102-54.111 2.694-14.935 7.686-38.096 12.315-51.949m991.907-11.97c4.45 8.032 17.57 66.481 22.38 81.256-6.86.141-16.09-.454-23.17-.712-.86-29.065.24-51.882.79-80.544m-432.884 1.497-.216-97.746c-.087-12.889-2-79.243.819-87.936l.71.032-.295-.902-.458 2.045c10.342 10.689 2.519 171.309 1.962 196.857l-.391-.021c-2.748-2.587.347-7.364-2.131-12.329m672.364 406.679c1.66 1.96 1.27 11.92 1.25 14.76-.22 25.69-.19 51.12 5.94 76.25-2.54-.79-5.67-2.15-8.19-3.16-4.3-1.86-9.37-3.63-12.28-7.12-2.08-9.38 10.4-68.74 13.28-80.73M277.548 972.122a1258 1258 0 0 1 30.35 5.637c-1.326 10.549-.783 10.405-7.06 19.123-9.571 9.998-15.977 5.648-24.611-2.498-.541-8.203-.385-14.248 1.321-22.262m1524.022.054c1.36-.366.64-.291 2.23.307 2.36 13.725 1.42 37.217-18.98 31.887-7.65-6.886-6.95-19.196-7.49-29.169 9.79.203 14.84-.434 24.24-3.025m-1226.306-.416c18.819.748 34.645 4.02 21.592 26.127-2.763 2.633-8.901 6.393-12.541 5.503-12.604-3.07-10.083-23.547-9.051-31.63m1404.096-.545c1.05.097.64.133 1.74 1.249 4.55 15.181 6.82 35.146-15.53 30.796-3.18-5.037-9.35-23.17-6.32-28.483 7.81-.982 12.33-1.691 20.11-3.562M87.687 972.581c7.275.666 13.266 1.346 20.529 2.444-.704 8.633-.628 19.837-5.017 26.965-2.9 1.66-8.413 3.26-11.55 2.52-10.935-2.6-5.103-25.069-3.963-31.929m1331.224-2.345c6.42 6.724 9.41 36.614-14.16 28.323-7.18-6.154-6.95-14.193-8.08-23.303 7.92-1.348 14.66-2.22 22.24-5.02m-536.932 2.078c5.91 3.779 5.076 35.836-17.734 25.144-5.532-6.916-6.312-11.503-9.006-20.042 7.715-1.889 18.707-3.605 26.74-5.102m627.392-1.002c8.54 4.186 12.29 7.006 21.76 9.118-2.18 7.997-3.93 14.036-7.78 21.4-23.87 11.31-17.57-18.414-13.98-30.518M649.391 1239.62l2.608 2.03c-.387 22.75.799 45.36.166 68.15l-13.505-5.38c1.181-16.11 7.791-47.32 10.731-64.8m-146.978 13.1c1.462 6.33.531 61.67.424 70.85l-9.629-3.75-3.136-1.11-.802-1.8c4.131-12.61 10.09-54.62 13.143-64.19m143.973-409.997c1.117 6.01 1.439 50.668-.121 56.494-3.55 2.464-6.836 2.593-11.156 3.318l-1.411-1.669c.823-11.671 9.255-45.778 12.688-58.143M1612 597.916c4.03 4.386 9.32 6.376 14.69 8.71-7.47 4.716-14.6 11.916-22.4 15.322-5.73-1.843-11.46-5.3-16.78-8.234 12.8-3.429 17.97-3.115 24.49-15.798M230.726 614.614c8.838.554 19.171.952 27.947.371-1.292 5.784-2.937 11.511-4.514 17.226-2.232 2.94-1.272 2.628-4.087 3.196-8.736-2.628-14.796-13.332-19.346-20.793M1733.26 840.905c2.17 3.765 2.56 7.1 4.02 10.907 6.26 16.429 1.96 27.877-3.06 43.833l-.62 1.84-.9-.398c-1.64-10.529-.62-45.435.56-56.182M825.688 629.939c1.415 1.834 6.249 60.495 5.905 66.152l-.641-1.344c-4.907-17.202-9.084-42.846-11.744-60.982 2.009-2.607 3.134-2.448 6.48-3.826"/><path fill="#fefefe" d="M1040.81 1312.6c7.24 1.72 10.42 1.62 17.86 1.72.51 6.18.88 11.24.92 17.43-15.5-3.73-20.17-1.81-18.78-19.15M421.275 601.803l1.497-.637c5.239 13.276 13.227 18.175 24.82 25.185-13.463-.615-15.934-1.491-27.749-8.63.159-5.98.078-10.104 1.432-15.918m392.949 262.954c1.945 1.737 8.932 34.492 10.187 39.745-2.493.34-7.291 1.392-9.293.433-1.246-8.221-1.029-31.268-.894-40.178m254.356-434.874 1.42 1.25c.05 4.943-7.61 17.544-11.15 20.584l-1.36-1.017c-1.73-3.803-4.09-8.18-6.02-11.962 7.22-3.094 10.43-4.73 17.11-8.855M413.351 553.701c1.302.53 2.881 1.43 4.159 2.098 3.134 4.274 5.555 13.41 1.502 17.395-4.633-3.996-10.75-7.724-10.848-14.188 1.639-3.783 1.167-2.621 5.187-5.305"/><path fill="#d3d2d4" d="M910.286 824.241c2.478 4.965-.617 9.742 2.131 12.329l.391.021c.135 5.003-.918 64.934-1.634 66.566-2.043-4.338-1.397-69.825-.888-78.916"/><path fill="#fefefe" d="M1764.71 657.017c1.74 2.868-.17 22.053-.92 25.471l-1.08-.83c-2.92-6.616-4.34-11.109-6.44-17.927 2.73-2.556 5.45-4.486 8.44-6.714m-710.68-399.92c11.83 2.67 27.78 20.37 32.14 31.417-4.46-4.658-31.05-28.369-32.14-31.417m512.84 615.866c2.1 4.171 1.8 21.823 0 26.507-1.09 2.851-2.47 2.662-5.06 3.724-3.07-5.339 3.49-23.839 5.06-30.231m-553.56-453.352c1.71.295 1.99.458 3.62 1.118 1.54 6.871 2.93 13.252-2.06 18.653l-2.33 1.828-1.05-.956c-1.11-5.846.73-14.755 1.82-20.643M857.626 122.123c2.26 2.772 1.761 1.262 1.901 4.551-3.033 4.719-8.385 5.723-13.735 7.449-1.013-1.116-1.499-2.044-2.299-3.314l.713-2.464c3.052-3.013 9.183-4.724 13.42-6.222M450.959 583.369c6.34-.179 15.869-.285 21.953 1.253 4.509 1.14 4.032 3.634 4.659 7.487-8.481-3.532-19.592-4.302-26.612-8.74m-128.463 67.446 11.37 4.356c-1.855 2.881-3.205 5.522-4.794 8.536-1.101 2.712-1.256 3.504-3.115 5.687-2.661-3.3-2.947-13.563-3.461-18.579m758.764-387.1c7.6 2.298 20.06 20.267 24.01 27.432-5.61-1.268-19.57-21.502-24.01-27.432m24.08 9.133c8.58 3.052 12.89 9.966 16.77 17.75-6.46.823-13.28-12.519-16.77-17.75M554.58 980.926c2.73.394 4.454.361 6.674 1.988.948 3.415-1.644 7.057-1.54 13.901l.025 1.227-.344 1.226c-2.847-3.338-4.287-13.83-4.815-18.342"/><path fill="#d3d2d4" d="M421.275 601.803c-.737-4.842-3.817-23.088-1.546-26.723 3.349 10.931.944 19.46 3.043 26.086z"/><path d="M850.986 1109.13c-.441-4.41-.471-7.01-.433-11.4l2.386-1.11-2.274-.05.105-.63 1.616-.72c1.356 5.47.892 12.54.132 18.17z"/><path fill="#88878a" d="M731.764 1141.8c.414-5.28.526-10.49 2.385-15.43 1.013 2.74.078 7.31-.291 10.42z"/><path fill="#d3d2d4" d="M651.315 1224.49c.382 5.56.955 11.64.684 17.16l-2.608-2.03c.564-5.06 1.206-10.1 1.924-15.13"/></svg>