<svg xmlns="http://www.w3.org/2000/svg" preserveAspectRatio="none" style="display:block" viewBox="0 0 2048 1462"><path fill="#fefefe" d="M0 0h2048v1462H0z"/><path d="M61.399 1386.81c-3.285-11.57-8.616-19.95-10.671-32.93-2-12.63-.57-26.6-2.432-38.39-2.622-16.6-7.889-36.39-9.057-53.11-6.514-93.23 9.728-189.49 33.875-279.346 4.248-15.806 9.53-32.722 14.201-48.183 1.43-8.701 15.382-36.512 15.355-42.912-.222-53.081-1.592-106.58-.434-159.595l7.885-361.242 1.255-92.089c.076-9.285-.561-18.68-.377-27.899.653-15.356 1.943-30.499 2.485-45.891 1.579-44.831-2.527-90.112.945-134.755.276-3.54 1.318-4.303 3.782-6.121 4.904-.7 8.478 1.168 8.558 6.665.622 42.912 2.527 85.589 1.738 128.542-.25 13.625-3.735 35.797-1.228 48.502 3.492 2.593 22.215-.085 27.34-.395l56.562-3.213a8307 8307 0 0 1 173.498-7.405c10.556-.302 65.428-7.598 63.836 6.301-1.901 1.859-3.195 2.905-6.09 3.05-34.37 1.721-68.711 2.888-103.103 4.301l-160.593 7.964c-4.167.244-7.296 1.844-11.92 2.147-11.346.559-23.457-1.385-34.579.656-9.595 1.761-8.654 22.853-6.307 28.985 13.136 2.177 71.231-2.539 87.74-3.404l155.465-7.035c17.325-.795 38.276-2.539 55.718-3.373 4.243-.203 11.644 1.885 14.526 5.264 1.264 8.325-4.859 7.578-6.747 14.511-13.55 49.767-25.06 100.99-40.197 150.236-8.756 28.485-22.88 57.812-35.259 84.947l11.308-6.94c5.884-9.139 10.142-20.978 14.73-30.838 24.355-52.354 35.798-107.191 49.409-162.945 8.884-36.393 24.656-73.416 37.702-108.853 9.102-24.724 33.901-45.413 50.593-65.41 18.544-20.049 51.402-38.508 76.797-48.426 12.22-5.865 31.737-11.45 44.924-14.339 13.655-3.207 23.487-3.664 37.053-5.05 48.221-4.928 97.257 3.093 138.977 28.95 36.021 22.324 63.286 54.54 74.079 96.33 1.893 7.327 2.501 14.795 3.863 22.168 30.571-5.705 72.812-3.851 104.206-6.86 9.05-.868 23.37.599 32.59-1.176 8.31.131 24.37-.389 31.63.379 1.34-2.599.29-6.252-.2-9.333 1.82-41.448-.34-84.754 2.93-126.338.32-4.061 1.24-5.087 4.12-7.402 14.56-.149 9.51 27.05 9.28 37.243l-1.32 60.03c-.27 9.704-1.36 19.834-1.06 29.386l.05 1.335c.1 5.812-.39 8.805-1.24 14.591 8.45-1.501 89.26-3.779 92.18-2.168 9.17-3.727 124.81-4.588 145.06-5.518 2.3 1.221 3.23 1.712 5.29 3.269l.84-.834c11.04-11.202 18.23-23.866 30.74-35.804 88.72-84.695 259.75-82.604 346.76 3.808 23.37 23.204 40.61 47.653 53.03 78.285 3.79 9.965 12.19 33.629 13.26 44.154 12.85 38.969 1.3 76.875 16.63 112.954 4.6 10.836 16.82 26.372 25.34 34.627 31.49 30.524 50.56 52.837 61.36 96.64 9.75 39.538 8.94 74.376 5.75 114.88-1.1 13.997-4.76 41.82-2.62 54.98 2.49 15.34 14.93 39.174 20.35 55.284 10.36 13.982 26.95 106.898 32.94 112.414 7.59-2.222 25.19 6.285 32.35 10.247 21.81 12.062 36.06 36.213 42.12 59.972 18.7 73.265-13.12 149.125-30.51 219.725-3.2 12.97-7.98 25.47-10.98 38.26-1.59 4.79-3.5 9.97-4.31 14.9l-1.2 1.61c-1.63 7.72-3.2 15.71-7.1 22.66-.41 8.22-4.62 17.18-7.93 24.78l1.24.45c11.37 3.99 68.95 10.46 64.88 24.76-9.31 11.22-58.59 3.98-74.37 7.51-7.54 1.69-38.61-.12-46.82-.26-16.93-.28-118.56 9.92-127.97 5.53-5.07 1.32-9.88 1.77-15.09 1.07-4.04 1.09-11.48.74-15.99.72-2.52-.15-5.77.27-8.36.49-12.53-2.7-51.5 1.11-66.32.86-24.4-.41-51.45.9-76.1 1.4-2.32.21-6.07-.13-7.77.16.04-.02-48.83 2.91-51.9 3.06l-135 6.33c-8.7.36-22.82 4.13-32.06 2.67l-2.2.41c-4.28-.32-15.38.58-20.43.6-28.45.15-57.31 2.58-85.72 4.04l-194.89 9.61-388.298 17.39c-3.618.18-8.606.27-12.226.04-.727-.04-1.508-2.61-4.214-2.23-5.539.78-10.417 2.8-16.031 3.05-1.673.08-2.774-1.86-3.281-1.84-25.832 1.19-51.622 1.29-77.463 3.14-4.923.35-9.808.77-14.693 1.5l-2.91-1.57c-3.096 1.13-10.145 4.45-13.215 4.21-4.111-.31-10.829-1.98-15.099-2.96-.471.26-2.974 1.59-3.456 1.63-59.338 4.89-122.655.04-181.749 2.27-77.407 2.92-152.446 7.86-229.701 9.86-7.914.2-11.433-.79-18.335-4.31"/><path fill="#fefefe" d="M1192.52 1021.33c9.65-14.19 15.65-32.379 21.99-48.287 7.66-19.243 15.53-38.484 20.74-58.572 24.94-96.235 42.49-290.102 108.58-359.92 13.84-14.611 37.28-29.88 58.36-29.829 3.55.009 5.53.688 8.02 3.186 1.03 2.779-2.29 17.169-2.91 21.068-9.2 58.488 2.44 145.925 83.53 129.123 61.72-12.79 74.2-80.347 119.18-114.259 46.54-35.089 119.91 3.444 156.52 38.314 23 22.638 43.92 56.116 61.51 83.003 6.65 10.154 11.28 25.272 18.55 34.382 13.4 29.05 28.61 59.755 37.74 90.427 9.02 30.272 17.45 61.025 24.56 91.791 4.19 18.103 3.81 40.681 8.02 58.247 7.16 54.916 4.02 119.116 8.86 175.106 1.43 16.57-2.94 141.44-7.15 149.86-4.3 1.78-104.95-16.66-121.09-19.17l-41.08-6.58c-5.64-.95-8.29.49-12.29-3.73.64-3.01 8.79-9.24 11.92-12.2 13.3-12.58 23.17-24.43 33.72-39.27 5.6-9.27 11.56-17.23 16.89-26.95 16-29.2 26.74-62 36.37-93.77 2.84-9.35 9.39-30.72 10.43-39.6 4.13-5.16 14.32-64.997 16.19-74.885 2.27-14.385 3.69-34.128 6.78-47.29-2.84-8.661 5.54-26.045-2.26-33.865-3.43-1.342-3.72-1.116-7.49-.402-3.57 3.862-4.73 22.743-4.91 28.772-.41 6.085-4.96 47.486-6.5 51.276a1562 1562 0 0 1-8.86 43.384c-1.25 5.52-6.28 25.62-6.32 29.42-.17.45-.34.89-.5 1.34-12.09 44.59-24.25 90.45-46.82 131.1-4.81 8.64-10.18 17.13-15.44 25.44-4.39 4.47-6.83 9.29-10.72 13.66-22.17 24.93-49.03 53.1-80.37 66.13-63.14 26.27-133.64 7.41-198.36-2-29.05-4.22-58.21-9.56-87.45-12.6-14.61-1.55-29.88-5.32-44.68-5.8-1.49-.05-8.79-.41-8.96-1.27-6.65-34.22-2.84-70.95-.54-105.48.39-5.95 2.74-12.57 3.28-19.3l.05-.8c2.2-9.18 6.16-22.75 9.73-31.51 2.14-5.27 8.96-12.67 10.64-19.15l1.32-1.78c4.28-2.1 58.19-.42 67.79-1.23l1.73.09c3.06-.29 29.21.24 32 .78 13.4-.91 24.73.98 37.4.8 3.76-.31 17.21.88 21.53 1.13 33.63 1.94 67.88 6.03 99.58 17.95 13.27 5 20.55 11.28 31.7 19.29 1.39 1 3.76 1.15 5.49 1.15 3.51-1.67 2.42-.58 4.3-3.87.92-15.73-38.16-29.51-50.27-34.05-1.31-3.5 3.02-11 4.47-14.71 23.56-60.33 38.41-125.072 46.67-189.239l.21-.822c.96-6.457 1.23-9.974-5.33-12.837-7.84.571-8.68 6.077-9.36 12.532-1.96 9.673-2.87 19.873-4.66 29.639-5.47 29.866-11.95 60.995-19.9 90.237a804 804 0 0 1-16.73 54.06c-1.85 5.22-10.24 23.53-10.01 26.32-6.37.62-22.32-3.75-29.72-4.58-19.36-2.17-51.41-7.07-69.77-6.33-3.87-.24-33.18-1.07-35.09-.5-16.53-.23-33.06-.31-49.6-.23-8.38.06-26.34 1.25-33.78-.5-1.78-11.07-2.01-29.08-2.72-40.8l-4.45-67.17c-2.9-48.403-10.34-97.383-15.47-145.647-.48-4.547-1.85-14.033-6.17-16.3-5.06 1.821-6.51 5.893-6.16 11.231 3.04 46.128 7.1 92.133 11.57 138.161.9 9.194 3.56 37.652 2.13 46.026-1.71 10.052-13.13 31.179-13.75 43.329-.91 9.68-2.64 21.97-6.69 30.38-.81 1.68-3.89 1.36-5.49 1.64-23.95.57-55.71-2.75-78.95-.51-9.91-9.77-26.56-30.9-38.44-33.57-11.47-2.59-20.89-4.76-32.84-8.61M402.812 521.679c1.57 2.79 3.512 5.19 5.439 7.75 13.695 20.189 36.578 85.681 41.353 109.872 4.703 16.416 10.223 35.272 12.444 52.136 9.194 69.829 22.414 138.35 26.769 208.862.159 2.571 1.416 14.552 2.026 16.34l.154 1.142c-1.253 6.774 6.355 80.827 8.079 90.779-.888 1.01-1.901 2.24-2.83 3.18-2.522-.13-7.385 2.71-9.432 4.02-10.413 6.69-69.887 32.42-71.359 42.12 1.994 3.68 1.049 3.26 4.159 4.88 4.937-.09 79.136-38.25 86.559-42.84 13.217-5.11 24.867-11.69 37.63-17.49 54.057-24.577 108.834-50.592 163.958-72.471 27.337 42.398 45.817 86.111 58.512 134.841 1.204 4.62 5.819 17.12 4.603 21.39-3.096 10.89-126.369 99.26-144.769 111.95a1578 1578 0 0 1-58.772 38.14c-19.52 11.82-39.47 23.83-61.414 30.53-12.041 3.68-33.953 2.31-42.444 6.97-6.469 3.56-67.34-9.42-76.655-12.79-34.612-12.51-73.4-46.96-94.803-76.75-9.571-13.32-17.628-28.7-24.509-43.58-10.558-22.82-18.643-51.78-20.895-76.77-.28-3.1.332-6.17.11-9.28-6.376-89.081 6.248-180.898 21.024-268.672 2.032-12.073 3.657-33.131 7.793-43.787.239-.616.516-1.216.779-1.822 1.7-3.92 2.631-9.749 1.106-13.865-.965-2.605-1.964-3.187-4.343-4.449-2.832.11-2.998-.11-5.335 1.6-7.12 12.953-12.213 51.335-14.979 66.581-8.675 47.813-16.121 96.411-18.562 144.983-.38 7.554-2.413 15.604-2.776 23.239-2.223 50.232-3.972 107.662 10.204 156.232 9.262 31.73 29.333 69.77 50.944 94.92 5.17 6.02 20.429 19.35 22.53 22.49-1.396.76-.634.64-1.947.42-15.561-2.52-84.425 27.85-105.737 25.57-13.203 7.07-22.486 8.23-35.767 12.93-32.949 11.66-79.618 24.21-108.208 44.18-5.663-23.16-9.803-48.38-10.302-72.26-.144-6.88-2.033-30.79.085-35.7.023-2.48-.434-5.44-.736-7.94 1.008-5.71.489-18.22 1.137-25.25 1.768-18.03 3.007-35.76 5.804-53.75C88.92 930.612 160.467 734.054 296.108 594.261c13.378-13.787 25.228-25.814 40.252-37.428 20.743-16.033 43.065-24.056 66.452-35.154"/><path fill="#fefefe" d="m1450.46 231.688 1.72.68c17.69 32.881 64.6 77.906 95.73 97.255 3.11 2.185 18.69 12.55 21.58 12.106 28.09-4.308 52.85-14.364 61.58 21.941a96 96 0 0 1-1.73 5.226c-9.32 26.078-36.65 26.476-59.58 31.39-5.43 1.162-3.9 31.889-4.23 37.715-1.85 32.399-6.13 67.683 14.25 95.627 6.99 9.592 12.4 15.094 24.75 17.641-10.83 8.245-22.18 17.848-30.28 28.797-19.6 26.493-34.6 56.451-62.5 75.845-12.29 8.546-31.26 15.084-46.52 12.056-54.14-4.72-49.91-97.217-41.48-135.001 14.81 15.041 13.48 29.101 19.93 47.508.7 1.996 3.06 4.824 5.24 5.316 1.94.439.84.422 3.15-.847 2.37-4.217 2.48-7.712 2.57-12.43.16-8.371-2.01-15.628-3.72-23.486-8.08-45.409-69.88-33.949-92.38-60.241-34.79-40.659-41.12-137.194-21.55-186.57.23-.572 37.41-16.328 42.87-19.281 25.55-13.818 49.94-30.706 70.6-51.247"/><path d="M1403.62 346.556c1.37.938 2.87 2.467 4.12 3.627 6.11 16.487-20.19 34.4-30.57 42.579-.12 3.388 7.23 2.324 9.54 8.639-1.66 3.051-1.32 2.157-5 4.087-7.23-1.602-23.66-7.031-18.04-15.909 5.9-9.325 23.47-12.769 28.23-27.363 1.83-5.609 6.26-13.095 11.72-15.66m48.45-11.694c21.76.246 19.8 18.657 7.66 28.936-17.43 5.012-20.16-17.747-7.66-28.936m11.92-20.409c7.35 1.835 31.21-4.937 33.84 3.708l-1.36 2.182c-7.03 4.351-21.87 2.402-31.53 3.85l-1.1.172-.71-.02c-9.22-.144-24.68 5.253-29.66-2.171l.58-1.861c5.95-4.482 21.9-4.895 29.94-5.86m-113.34 14.191c20.35-.4 23.35 19.676 10.16 28.117l-1.12.173c-18.98 2.791-17.85-16.899-9.04-28.29m64.37 100.77c3.81-.881 8.01-.067 9.71 3.657-4.56 12.95-29.7 10.737-40.15 8.146-3.93-1.774-10.14-3.789-9.1-8.79 6.72-4.002 19.73-.711 27.68-1.351 4.16-.336 7.76-.948 11.86-1.662m-67.83-122.172c1.36.658 1.61.752 2.99 1.24 4.9-2.85 30.79 1.371 35.44 6.486.47 3.512.58 2.136-1.4 5.68-3.49 1.311-3.75.504-7.87-.544-1.67.805-35.56-2.154-39.18-6.994l.79-1.96c3.85-2.693 4.79-2.829 9.23-3.908m243.12 50.19c4.88.475 16.03-2.564 15.84 6.922-4.24 4.971-16.05 4.191-23.28 7.079-4.23 2.72-7.34 3.827-11.82 1.614-2.93-9.208 12.93-13.49 19.26-15.615"/><path fill="#fefefe" d="M875.666 205.857c12.369 14.303 8.729 75.767 3.298 94.268-1.254 4.272-11.407 37.906-11.434 37.584.83 9.788 34.277 24.878 38.943 38.627-2.102 12.939-39.811 22.821-42.946 29.099-11.221 22.941-16.918 48.83-36.177 67.077-31.376 29.727-70.152 31.429-110.49 35.006-5.537.491-17.204 12.184-21.573 16.324-6.655-.056-25.665-4.081-33.384-5.572-21.845-4.22-42.623-8.091-64.677-11.341-4.476-.113-7.474.385-10.748-2.064.262-1.312 20.645-36.641 23.201-41.268a1220 1220 0 0 0 29.936-58.79c4.245-8.97 7.489-17.58 12.107-26.424 7.763 1.828 22.959 7.754 26.189-1.705-3.267-16.387-72.264 2.105-66.759-51.527 15.373-22.007 36.501-28.754 62.815-21.792 4.473 1.184 17.702 6.853 21.198 6.034 14.698-3.445 29.226-9.851 42.86-16.261 38.82-15.849 112.117-54.554 137.641-87.275"/><path d="M830.449 298.7c-19.507-4.861-31.317-6.134-51.237-2.667-3.415.594-4.804-.321-7.097-2.209l-.163-2.477c6.76-12.23 50.208-6.791 61.888-2.435 3.221.809 3.987.947 6.913 2.418 6.91 2.801 18.218 8.149 16.834 16.864-6.129 4.622-20.15-6.861-27.138-9.494m-50.793 119.824c7.165-.626 30.003 9.303 39.116 9.376 6.356.05 8.698-2.135 13.023 2.731-.067 4.036-.022 2.756-2.435 6.662-8.893 5.098-47.216-1.482-52.538-12.356.457-4.057.237-2.727 2.834-6.413m30.123-103.923c18.362 1.656 17.032 18.536 5.35 28.105-3.55.021-6.566.926-9.408-1.542-8.826-7.666-2.065-20.016 4.058-26.563m-175.257 7.596c9.999 1.511 33.436.456 38.917 10.411.36 3.488.26 3.594-1.522 6.754-11.613-2.157-28.061-4.355-39.516-7.73-1.798-.529-2.125-2.432-2.612-3.882 1.522-3.966.67-2.536 4.733-5.553"/><path fill="#fefefe" d="M896.462 853.171c3.775 20.288-28.287 27.968-29.259 41.202 3.019 3.106 3.286 3.383 7.799 2.783 58.819-7.815 120.194 3.956 177.328-16.138 2.89-1.015 7.55-3.51 10.44-2.513-1.01 3.194-1.95 5.193-1.56 8.6l-1.47 1.443c-5.22.806-10.33 2.19-15.38 3.876-15.87 5.298-32.57 8.63-48.494 13.514-9.792 3.003-45.493 3.204-47.253 13.874l1.363 1.526c15.409 6.728 92.914-14.239 110.624-20.706-13.92 31.562-84.907 40.019-90.691 50.384-.422 3.551-.693 2.167.697 5.425 12.007 6.841 71.304-20.772 85.064-30.679l-1.96 3.023c-11.04 17.109-25.76 18.948-41.21 28.383-4-.252-51.791 14.523-54.683 17.487-.727 3.139-.855 1.642.464 4.64 5.074 4.445 11.845 1.887 18.125.691 25.114-4.781 45.414-13.189 67.724-25.118-3.2 4.263-6.35 8.997-10.09 12.777-31.79 32.08-129.14 30.465-174.217 48.695-12.645 5.12-74.995 41.05-80.253 41.1-5.091-13.16-8.336-30.6-13.436-45.3-8.598-24.792-20.734-43.695-30.654-66.62 9.763-8.331 56.664-30.544 72.296-40.074 31.67-19.308 53.31-38.383 88.686-52.275m194.528 314.119c-12.61-10.3-67.98-24.09-67.24-45.25 2.23.12 36.37 20.38 44.64 21.22 7.24.74 32.56 19.07 37.96 7.47-.25-.83-.56-1.84-.92-3.05-19.68-12.15-44.04-17.36-63.98-29.12-6.98-4.12-22.88-13.99-16.63-23.13 7.24-2.17 34.86 17.69 40.62 17.48 14.48-.54 48.27 17.32 58.49 7.75.97-9.76-25.86-11.48-33.13-13.64-22.93-6.82-51.04-12.79-65.38-33.44 3.69-2.95 6.59 1.48 10.72 2.9 6.72 2.46 14.88 6.09 21.7 7.85 42.08 10.86 82.45 14.42 125.42 8.25 8.93-1.28 34.71 10.65 43.26 2.13 2.34-8.52-4.15-10.64-4.71-15.63-.95-8.41-2.41-24.19 2.22-31.5 14.75-6.93 38.01 55.52 53.72 47.47 5.05-7.2 1.13-9.8-4.01-15.47l-.25-1.52c2.94-1.05 10.19.04 14.3.05l1.4 1.48c-.49 2.5-.62 3.08-1.48 5.46-5.69 3.63-14.21 32.79-16.04 41.13-4.16 18.98-6.56 39.9-8.46 59.39-.15 1.52 1.38 3.89 2.23 5.17.31.46.63.9.95 1.35l-.56 2.23-2.57-.75c-.89 4.31-1.76 27.9.07 31.37-17.05 7.76-151.38-22.38-175.22-30.52-15.43-5.26-60.68-30.33-61.07-46.71 2.28-.08 10.12 7.41 14.04 9.17 15.36 6.87 34.44 17.16 49.83 23.08 4.68 2.11 9.05 3.64 12.46-.76-.01-8-6.05-9.53-12.38-11.91"/><path fill="#fefefe" d="M1216.49 860.668c6.69-.806 7.41-.977 14.11.107l.91 1.397c-9.89 44.287-20.48 83.728-39.34 125.06-3.52 7.729-9.13 24.878-15.48 29.878-7.41.89-19.62-1.46-27.52-2.02-16.83-1.19-33.66-.72-50.46 1.06-21.88 2.3-43.99 5.37-62.25-10.1-5.66-4.73-9.23-9.248-14.28-14.547 3.06-1.652 10.48-5.613 12.95-7.657 16.13-13.391 25.45-38.577 31.15-58.281 1.81-6.267 4.65-14.703 5.78-20.891 1.79-9.71 2.91-29.753 7.07-38.455 10.21-1.772 27.93-1.341 38.73-1.887 31.63-1.599 67.38-.34 98.63-3.664m-147.77-577.139c5.68-.325 11.78.064 17.5.301.35 36.523-5.62 74.401-4.38 111.162.17 5.074-1.6 12.378-1.77 17.879l-3.76 132.512c-.39 10.409-1.24 28.3-2.94 39.052.72.956 1.43 1.912 2.14 2.868-.59 5.86-1.07 14.058-1.27 19.633-.71 24.301-1.29 48.606-1.73 72.913-.71 38.223.66 77.427-.6 115.398-.38 14.272 6.21 26.312-13.82 24.757-4.72-.366-9.31.776-14.1-.805 2.38-57.831-1.71-121.067.18-179.763l4.7-117.294c.57-15.574.09-31.401.98-46.961.91-15.782 2.4-31.546 3.18-47.356 2.81-47.996 3.67-96.086 2.6-144.152z"/><path fill="#fefefe" d="M1319.1 232.398c-13.45 20.906-20.31 55.922-20.7 80.731-.07 4.173 1.83 13.221-1.31 14.77-12.05-9.836-2.12-45.647 1.98-57.954 2.32-6.99-3.29-5.401-8.03-6.037-9.89-.001-19.9.744-29.82.918-40.12.876-80.21 2.424-120.28 4.643-11.72.547-24.21.047-36.16.4l-103.74 4.096c-33.475 1.623-67.965 3.256-101.023 4.872 1.404-.069-2.875 1.343-2.63 1.269-3.498-4.38-.732-30.177 1.415-35.439 8.177-1.483 38.844.638 48.482.264 20.676-.801 41.596-2.074 62.296-2.594 8.02-.201 22.34-1.399 29.99-.175 2.45-.993 2.04-.894 4.5-.933 36.45-.566 72.92-.547 109.3-3.302 9.68-.733 22.17.615 31.79-.942 9.14 1.206 42.55-.905 53.45-1.505 26.01-1.431 54.83-1.068 80.49-3.082M415.126 521.255l-2.949-2.134c1.649-5.012 24.683-6.813 30.702-8.9 2.164.452 4.928.363 5.831 2.613 33.088 82.429 57.232 168.43 59.272 257.692.093 4.069-1.131 7.829-1.215 11.766-.086 3.986 2.24 8.571 2.177 12.632-1.955 38.721.375 78.003-4.317 116.479l-.528.473c-1.204-1.813-7.408-81.595-8.909-91.506-8.597-56.755-14.989-114.008-29.533-169.722-1.256-4.811-5.169-15.827-5.741-19.947-.184-3.9-4.098-14.52-5.409-18.929-9.52-32.023-21.811-61.884-39.381-90.517m921.124 599.905c-9.04 22.14-8.27 69.88-8.85 94.67-.19 7.91 5.18 33.7 1.63 38.14-16.59-2.72-33.29-4.65-49.94-7.32-2.47-3.07-2.62-9.81-2.63-13.74-.14-47.29 3.11-99.58 23.69-142.81 1.87-3.93 7.99-11.37 12.73-12.72 13.04-.51 29.4 3.18 42.28-.67.42 2.36.74 1.51-.44 3.14-5.48 7.54-17.95 33.22-18.47 41.31m588.73-216.904.71.365c5.17 2.628 10.72 4.309 15.89 6.962 22.48 11.537 34.52 28.873 42.46 52.438 23.99 71.189-22.03 186.339-41.09 257.469-1.21 2.6-1.69 4.43-2.26 7.24l-3.08 3.03c-.37-1.5-.38-.98-.29-2.16 2.05-24.41 2.06-48.89 2.63-73.36.75-4.2-1.07-25.93-.11-28.15 16.07-37.25 26.67-75.34 25.61-116.31-.08-2.8-.37-8.11-1.24-10.9-1.31-4.15.71-9.393-2.53-12.06 2.8-6.013-5.9-27.284-9.16-33.438-3.03-8.444-11.81-18.134-19.95-21.917l-2.33-.104c-2-2.714-2.21-7.42-2.74-10.984-1.5-5.88-1.92-12.068-2.52-18.121M758.353 520.105c79.447 10.633 126.984 124.462 151 190.295 6.026 16.519 5.967 21.769 15.547 37.805-2.098 13.3 25.259 62.538 23.244 72.511-1.568.446-7.469 1.106-8.147-.627-35.193-89.834-68.246-235.633-159.209-287.184-.572.256-8.429-3.028-11.793-3.457-2.315 8.938 9.092 40.746 10.005 52.586 2.579 33.459 10.183 66.974 14.557 100.132a3656 3656 0 0 1 16.942 167.356c.813 9.996 4.818 30.88 3.076 39.316-2.121 2.319-1.109 1.612-4.532 2.333-4.09-4.654-12.171-120.44-14.802-138.881-10.755-75.376-16.211-154.283-36.187-228.002-.518-1.913-.098-2.205.299-4.183M1216.14 821.51c5.65.397 18.09-.04 23.61-.448-1.76 7.296-3.25 20.215-5.83 25.961-3.1 2.326-127.38 6.411-141.69 7.696-4.27.384-8.84.856-12.85-.497-6.14-13.477-7.76-15.693-18.58-24.919 14.74-1.845 30.19-1.234 44.75-2.437 36.89-3.046 73.76-3.101 110.59-5.356m-112.88 208.02c7.62.65 19.01-.68 26.81-.6 12.41.12 74.83 4.49 80.65 14.38-5.37 8.57-2.94 11.41-2.84 21.28.07 7.31 1.33 13.12 3.03 20.24-4.19-1.13-8.82-1.86-13.17-3.01-7.12-1.87-.48-4.31-3.37-8.79-8.24-12.79-22.2-16.94-35.6-20.42-38.15-6.75-79.64-4.35-114.83 12.66-5.1-2.32-8.25-2.68-9.52-8.44 4.03-17.09 52.96-25.53 68.84-27.3M985.632 830.569c14.748-3.215 81.398 9.051 77.148 28.712-2.68 2.744-7.26 6.052-10.93 7.218-2.18-2.033-8.67-8.099-10.84-9.516-13.37-8.723-45.033-12.343-60.033-9.849l-1.048.181c-11.004-1.124-50.252 6.268-46.891 23.804.383 2 .543 4.821-.388 6.508-9.951 3.367-21.094-8.686-24.377-17.63 12.828-25.932 51.882-27.19 77.359-29.428m18.808 194.911.92.02c2.77 1.83 1.91 1.27 3.46 4.83l-.64 1.14c-29.592 8.16-60.426 14.35-89.712 22.39l-95.332 26.16c-6.916 1.85-31.91 10.87-36.833 7.72l.02-2.12c4.13-5.72 10.105-6.53 16.899-8.58 13.255-4.27 29.999-6.86 42.546-11.9 6.93-2.78-5.548-15.92-2.562-26.26 1.998-2.83 2.499-2.94 5.856-3.94 3.84 3.37 1.141 18.27 8.718 26.11 5.666 2.17 25.111-5.85 32.475-7.6 37.896-9 76.43-18.32 114.185-27.97"/><path fill="#fefefe" d="m1930.27 946.274.3-3.13c4.29 3.771 8.41 15.363 11.79 19.206 2.58 8.192 4.65 18.8 7.14 26.128 4.2 27.262 2.73 51.222-3.33 78.042-1.58 6.99-2.63 15.39-5.7 21.78l-1.13-.34c-1.87-4.73.91-7.38.35-11.24-3.14-21.87-2.5-44.32-4.52-66.31-1.39-15.145-.96-32.274-3.35-47.082l-.15-.899c-.68-4.925-1.01-11.146-1.4-16.155m-912.37 45.815.22.26c.32 2.745-1.83 4.304-4 7.156 10.53 17.925 16.07 21.165 34.19 30.295l-9.7 6.31c-1.22.83-4.97 2.1-6.07 1.06-8.67-8.24-23-28.38-26.38-39.297 4.52-2.787 6.81-3.73 11.74-5.784m353.38 30.641c2.47 3.91 3.62 35.15 2.8 40.44-3.1 2.13-3.81 1.42-8.07 1.48l-3.61.94-1.58-1.33-.03-2.33c7.19-9.46 5.2-25.9 10.49-39.2M186.632 629.091l.914-.007 1.214 3.494c-1.112 7.9-13.637 16.743-20.925 18.515l-1.293-3.109c1.497-5.398 3.907-8.963 7.908-12.764 5.221-4.961 5.096-5.781 12.182-6.129m726.381-142.355c3.64.581 2.679-.057 5.304 2.027l-.228 2.307c-4.222 6.836-10.309 10.633-16.859 15.16-4.15.498-2.682.883-6.126-.862-1.488-8.284 11.848-15.532 17.909-18.632m235.977-187.919 2.44.929.49 2.401c-3.13 6.873-15.62 15.696-23.28 16.666l-.65-.461c-.06-1.39-.37-2.602-.72-3.944 3.25-7.34 14.69-12.625 21.72-15.591m-932.076 54.811c2.646 1.227 3.083 1.551 5.428 3.322 2.415 8.24-11.548 12.867-17.851 14.435-2.472-.004-2.396.136-4.593-.915l.088-1.916c3.462-6.226 11.103-11.168 16.928-14.926m735.7 82.078c2.761.629 2.613.578 4.644 2.578l-.106 2.649c-2.813 4.785-10.937 13.331-16.595 14.999-3.359-1.942-2.21-.846-4.257-4.336.522-6.233 10.957-13.509 16.314-15.89m254.306 216.561c11.14 6.049-6.98 17.819-12.74 21.868-2.01-.645-2.26-.825-4.11-1.881-1.16-6.802 11.38-17.218 16.85-19.987m-208.326-300.77c2.776-.151 2.636-.178 5.256.778l.56 1.885c-2.13 5.849-9.525 10.879-14.517 14.773-2.318.988-2.501.786-4.956.568l-.935-1.547c1.046-8.28 8.141-12.53 14.592-16.457m183.486-43.727 2.98 1.103c4.49 5.564-7.83 13.803-12.11 17.495l-4.09-1.151c-2.13-2.074-1.54-1.005-1.78-4.473 2.56-6.223 9.4-9.815 15-12.974"/><path d="M326.678 155.059c3.556 4.474 17.388 35.664 2.34 35.112-11.422-6.831-6.141-14.271-11.109-24.563-2.978-6.168-35.148-2.799-35.712-2.149-5.118 5.906-6.499 16.78-13.628 23.21-3.527 1.04-1.848 1.177-5.197-.526-1.185-1.685-1.96-2.817-2.055-4.959-.561-12.569 28.471-64.051 35.012-71.158 3.873.069 8.986 2.819 11.285 5.923 7.126 10.471 16.156 26.958 19.064 39.11"/><path fill="#fefefe" d="M300.32 127.622c4.626 7.522 7.607 16.807 11.012 21.926-5.041-.02-18.294 2.269-21.819-.814.124-3.513 8.377-16.773 10.807-21.112"/><path d="M470.632 101.544c5.148-1.737 14.715.649 17.278 6.261-4.346 8.778-26.014.493-36.279 6.795-4.97 5.677-1.477 15.287-2.362 24.578l-.105 1.027c5.41 4.105 18.761-2.216 27.047 3.314 1.457 3.283 1.191 1.891.305 5.834-6.021 6.497-24.25-.051-28.179 5.29 1.795 3.961-.191 18.282-.882 22.755q8.894.456 17.795.757c6.882-.212 20.305-2.579 22.968 5.318-4.733 9.464-44.44 9.32-51.208 3.254-3.182-8.328 1.632-70.261 3.712-81.754 11.119-2.509 18.668-2.842 29.91-3.429m-254.519 7.087c7.416.884 21.006.926 26.152 7.179.815 12.049-16.55 3.628-24.261 5.37-11.029 2.492-19.55 8.29-25.876 17.678-8.488 12.595-11.63 30.48 4.302 38.902 12.145 6.578 22.472 2.477 34.376-.765 2.523.96 2.771 1.339 4.692 3.105 1.195 3.366 1.181 1.891-.083 5.359-9.529 10.15-26.804 12.372-39.312 7.375-33.752-13.484-26.976-56.215-1.464-74.314 7.745-5.495 13.106-6.493 21.474-9.889m178.012-5.154c6.364.36 13.722-2.89 17.791 4.455-1.16 13.791-34.771 3.601-41.345 9.895.425 8.279.338 15.954 1.239 24.226 5.68 2.752 18.405-3.852 25.205 2.779 3.291 16.628-22.283 4.23-25.393 13.374.181 8.168 2.988 32.301-7.735 33.328-3.374-1.915-3.683-2.428-5.925-5.63-1.671-7.896.55-69.614 3.008-78.078 3.604-3.415 26.467-3.851 33.155-4.349"/></svg>