<svg xmlns="http://www.w3.org/2000/svg" preserveAspectRatio="none" style="display:block" viewBox="0 0 2048 1462"><path fill="#fefefe" d="M0 0h2048v1462H0z"/><path d="M1478.29 67.453c1.34.111 4.22.156 5.47.058 18.23-1.154 17 13.943 16.43 26.667-1.82 41.024-1.94 84.029-.88 125.014 1.81 69.514 6.24 139.134 10.2 208.525l11.27 189.899c3.31 59.906 5.83 118.605 9.97 178.564 2-2.389 8.06-9.537 9.04-11.864 3.43-8.121 3.96-17.005 9.15-24.31 8.59-16.64 29.65-13.573 40.11-20.057 24.65-15.271 22.07-22.406 54.33-16.585 35.85-23.884 38.92-5.492 72.85 4.755 11.97 3.615 28.78-3.085 43.4 6.08 18.79 11.781 23.26 19.915 29.53 40.067 16.4 13.371 34.47 22.486 40.46 45.707 4.96 19.207-2.28 34.562-11.89 50.448 13.72 40.494 10.8 58.485-20.11 87.871l-.38 1.522c-6.35 25.129-12.82 33.501-34.55 46.446-10.08 29.11-10.5 39.03-41.66 46.3-.48 12.28-1.23 24.55-2.23 36.81 8 11.23 19.48 25.99 23.65 38.8a415.3 415.3 0 0 1 111.72 33.1 244.57 244.57 0 0 1 127.82 138.96c3.24 9.02 11.01 32.46 6.63 41.06-1.9 3.71-10.47 6.23-14.52 7.41-71.79 20.54-146.48 33.54-221.06 38.68-95.29 6.57-192.51 9.76-287.92 3.91-7.48-.46-20.87-2.82-27.72-2.21-42.77 3.78-85.65 8.27-128.56 10.28-99.44 4.41-199.08 1.53-298.1-8.63-9.44-.93-49.994-3.59-56.236-7.01-2.476-2.79-3.741-6.33-3.464-10.11 5.651-77.15 13.278-158.16 69.08-217.1-29.217-59.51 20.88-131.87 29.79-191.522 1.12-7.501 3.51-17.25 1.57-24.555-.66-.48-.74-.61-1.65-.863-3.88-1.072-101.699-.93-110.956-.582-2.35.088-10.163.116-11.769 2.031-4.75 5.667-54.876 316.731-60.645 352.621l-9.33 60.11c-1.002 6.2-2.972 20.47-4.449 25.68a15.94 15.94 0 0 1-5.792 8.49c-7.036 5.28-18.747 2.27-19.86-2.87-3.124-14.43 5.671-56.75 7.969-70.64l13.327-82.8c14.763-92.7 30.368-185.27 46.816-277.684.902-5.134 2.856-10.427.183-14.239-9.347-3.314-65.108.318-77.683-.986-1.267-.131-3.962 13.877-4.408 16.289-5.281 28.533-10.301 57.14-15.194 85.75a11815 11815 0 0 1-40.046 222.25c-6.832 37.58-13.071 75.14-20.166 112.78-1.903 10.09-9.56 22.73-21.593 14.05-4.848-3.5-7.17-15.43-5.935-21.36 3.622-17.36 6.88-34.98 10.11-52.53l22.491-122.52 28.438-158.66c5.548-31.75 10.584-63.614 16.887-95.215-6.931-4.103-118.657-1.799-137.909-2.608-4.897-.206-14.584-1.132-17.885-5.201-6.241-7.694 6.853-119.982 8.057-138.136.532-7.657 3.692-34.844 1.452-39.666-9.793-1.362-24.744 31.055-65.744 2.589 5.304 25.177 9.044 81.843 11.413 108.354a3570 3570 0 0 1 5.446 65.081c.935 12.975 1.92 25.191 1.52 38.224-.53 17.289-14.488 13.565-27.148 12.672-2.22 22.586-2.387 63.636-2.531 86.786-.388 62.41-1.187 129.16.913 191.4l2.118 76.73c.443 14.08 1.939 35.16.823 48.33-.575.64-.609.74-1.443 1.3-15.945 10.67-103.9-3.96-127.213-5.45-12.522-.79-35.796 1.08-46.126-1.34-2.655-2.28-2.617-7.81-2.235-11.23 3.957-33.67 7.649-67.23 11.336-100.96 7.854-71.83 5.606-144.41 16.645-215.84 1.53-9.9 6.762-43.11 2.892-49.72-3.755-2.096-9.366-.02-10.279 3.16-17.45 60.66-15.814 128.87-20.756 191.38a5526 5526 0 0 1-11.743 130.52c-1.003 10.63-3.256 42.4-6.038 51.02-3.444 10.68-71.993 4.23-82.954 4.5-19.483.49-37.548 1.08-56.379-1.41-9.123-1.21-23.581-3.07-31.222-6.85-5.152-5.48-2.127-105.02-1.945-117.38l.852-121.81c.082-19.66.202-39.33.141-58.99-.011-3.67-.337-8.67-.696-12.41 0 0 1.962-4.18 1.962-4.19a97 97 0 0 1-.805-14.74c.225-11.03.149-22.17.673-33.18.351-7.39.663-14.78.088-22.136-.171-2.187-.541-2.077-2.017-3.15-7.491 8.907-1.032 63.706-22.928 62.556-5.04-.27 1.109 47.37-18.861 43.81-11.201-1.99-19.367-23.02-25.722-31.48-23.344-39.54-24.271-75.112-19.664-119.317-11.751-.634-23.7.265-22.045-15.412 6.59-62.398 17.16-124.33 25.12-186.541 10.855-84.832 20.497-169.993 37.17-253.942 2.295-11.559 4.23-21.106 7.983-32.312 11.514-34.386 38.485-48 68.759-62.167-11.349-16.54-21.804-24.359-24.713-47.984-3.718-30.203 22.881-42.405 31.234-68.925 4.421-14.041 4.852-29.526 6.405-44.241 3.254-30.817 15.548-68.291 35.579-92.309a114.88 114.88 0 0 1 77.693-41.084c38.625-3.53 78.743 14.786 108.797 38.088 20.971 16.26 26.962 50.199 8.818 70.621 4.901 38.109 2.877 58.867-8.162 96.476 16.446 36.028 45.381 48.894 17.262 92.476 50.821 31.304 63.494 50.794 86.927 105.042a3793 3793 0 0 1 31.341 76.859c5.85 14.758 13.214 34.493 20.77 48.027 12.636-8.242 26.816-17.332 39.85-24.733-.018-14.931 2.57-39.197 3.664-54.768l7.565-110.521 20.582-338.091c.256-3.893.549-12.41 4.151-14.265 12.482-6.427 36.958-3.921 51.28-4.05l96.723-.95 334.744-4.103 197.13-2.879 62.72-.718c4.79-.05 34.91.116 36.63-.894"/><path fill="#fefefe" d="M1363.02 164.685c6.31 3.246 42.49-1.164 52.19.921 1.33 6.052-2.65 60.447-3.06 69.424-7.15 164.079-16.4 328.06-27.75 491.902l-5.29 74.025c-.58 7.957-1.85 32.015-3.91 38.102l-1.93.763c-3.98-2.951-7.06-13.703-8.62-18.6-12.02-37.767-29.7-61.66-58.64-87.759q3.675-76.898 6.27-153.84c.69-17.461 5.08-96.649 1.45-109.484-2.63-2.865-1.3-2.069-5.01-3.053-10.95 3.043-78.07 66.515-93.1 79.061-6.43-6.2-10.66-16.666-15.95-20.745-6.48 1.607-59.94 46.893-66.49 54.187-7.75-6.877-18.85-24.485-25.76-27.018-3.06.9-5.9 2.535-8.59 4.792-24.94 20.933-49.26 42.945-73.53 64.581-2.72 2.427-3.74 6.872-3.33 10.362.71.782 1.63 2.224 2.47 1.967 11.71-3.559 34.78-26.889 43.11-34.578a1443 1443 0 0 1 38.87-34.283c5.55 7.704 17.01 24.096 25.42 27.561 7.75-2.019 53.42-43.576 64.58-52.285 7.05 6.806 9.9 12.936 18.74 20.787 9.44-6.046 23.39-21.21 32.19-28.747 17.86-15.295 38.39-35.232 56.99-49.147l-5.06 134.817c-.94 32.344-1.15 76.195-4.28 107.971-32.47-16.327-72.18-20.322-107.67-12.749-11.63 2.48-22.6 7.392-33.4 12.234-21.97 12.831-27.19 18.877-45.64 34.179l-70.58-.205c1.83-9.559 8.31-106.727 5-112.117-3.05-1.785-1.99-1.792-4.71-1.2-2.37 2.021-4.99 6.586-5.16 11.2-.85 23.233-7.8 92.639-4.72 110.903.79 4.724 59.6 3.345 69.38 3.43-20.1 26.108-19.64 32.737-31.95 59.579-7.8.907-31.38.291-40.49.236l-76.865-.461c-69.417-.639-138.965-.975-208.369-1.842-4.301-.054-9.853-.358-13.929-1.7-.82-3.701 9.253-130.15 11.37-143.719l17.663-12.185c7.24-5.08 23.801-15.894 29.263-23.076l.672-3.834c-.783-3.761-3.374-5.546-6.255-8.324 16.279-12.329 39.363-21.653 55.025-35.678 4.941-4.425 10.072-11.773 10.305-18.788.072-2.17-1.983-6.772-2.051-8.606-.438-11.891-3.68-26.33-12.85-35.145 4.95-6.732 13.593-16.319 9.489-25.109-10.686-22.889-49.746 12.41-63.747 17.405-6.874-4.437 2.184-14.814-19.756-9.402 1.725-7.806 1.322-18.966 1.73-27.29a2515 2515 0 0 1 2.858-49.406l14.726-206.153c.67-10.756 2.309-60.079 5.162-67.131 4.415-1.826 206.876-2.278 226.999-2.452l259.54-2.916c13.33-.093 90.7.935 96.98-1.362"/><path d="M947.726 236.566c9.169-2.887 44.507 3.986 52.634 11.028.27.652.55 1.305.82 1.958-12.513 23.231-60.199 76.697-67.447 98.093l-.447 1.352c6.752 17.565 12.733 35.482 19.872 52.978 2.957 7.247 21.353 47.061 18.629 51.898-8.768 5.151-29.634 4.074-40.005 4.893-25.526-2.448-44.167-7.688-64.395-24.402-46.839-38.701-39.228-112.548-2.904-155.623a121.92 121.92 0 0 1 83.243-42.175"/><path d="M1028.57 244.774c.72.419 1.47.886 2.11 1.567 22.19 23.844 34.36 57.4 37.5 89.481.39 4.029-.77 6.779-3.35 9.354-5.62 2.377-58.67-.207-68.731-.514-8.119-.213-38.6.038-44.174-2.12-1.561-2.903-1.642-2.999-1.266-6.168 2.131-3.659 12.806-18.03 15.917-21.034 12.756-12.316 48.414-65.316 61.994-70.566"/><path fill="#fefefe" d="M1025.7 260.01c14.9 10.34 26.58 56.978 28.29 75.305-16.74-2.433-38.05-.214-51.89-2.3-11.21.065-23.452-.456-34.7-.867 19.679-23.976 38.47-48.373 58.3-72.138"/><path d="M957.311 352.3c4.774 1.058 14.61.373 19.139.686 12.83.885 69.91-.61 78.41 2.736 11.95 13.709-14.04 51.741-22.87 63.644-8.01 8.972-31.19 28.867-43.256 27.434-6.322-4.894-25.521-77.483-31.613-88.657-1.673-3.068-.958-3.444.19-5.843m-8.359 196.886c43.257-3.68 53.138 58.814 4.967 68.244-8.018.523-14.691-.254-21.934-4.156a28.6 28.6 0 0 1-14.235-17.75c-6.212-22.79 9.8-40.915 31.202-46.338m-12.648 154.973c16.027-.886 29.554 6.493 34.747 22.18a29.74 29.74 0 0 1-1.886 23.541c-5.822 11.098-15.228 16.513-26.744 20.142-8.634.314-15.03-.013-22.637-4.71a29.93 29.93 0 0 1-13.503-18.96 34.32 34.32 0 0 1 4.891-26.48c6.442-9.815 14.229-13.327 25.132-15.713m-125.207-4.873c7.875-.862 14.84-.17 21.983 3.594a29.4 29.4 0 0 1 14.543 17.417c6.441 21.164-9.498 36.955-28.754 42.25-48.245 3.553-50.876-56.782-7.772-63.261m502.443-444.76c7.41-.421 23.78-2.731 28.95 2.765.74 3.458.82 2.025-.6 5.395-2.21 1.563-5.04 2.511-7.76 2.562-46.76.87-94.18 4.327-140.88 4.699-8.77.178-27.42 2.754-32.18-4.514.03-3.646-.56-2.141 1.44-4.802 5.66-2.517 16.52-2.344 22.84-2.368 42.64-.161 85.61-3.262 128.19-3.737m-43.65 116.912c7.5-.324 28.52-3.303 31.24 4.375-.51 1.315-2.05 4.969-3.75 5.098-35.55 2.692-71.95 4.367-107.63 5.258-7.78.517-21.55 2.819-27.6-1.401-1.71-3.417-1.4-1.896-.83-5.824l1.8-2.048c26.99-3.292 83.36-3.933 106.77-5.458m-13.49 192.156c4.21.224 6.11.246 8.5 3.726.36 4.666-.23 21.863-1.02 26.403-3.82 22.057-.52 87.265-7.87 104.346-3.98-.921-5.79-1.281-8.03-4.251-1.33-11.791 5.53-124.449 8.42-130.224m-84.42 23.005 4.06 2.336c4.43 6.187-4.57 96.703-4.48 111.926.02 2.706-1.24 3.906-2.81 5.862-3.49-.681-4.99-.558-7.27-3.001-2.35-10.113 5.47-96.256 5.6-111.725.02-2.627 2.75-3.839 4.9-5.398m-54.84 36.011c4.67-.1 6.32-.541 9.25 3.25.86 5.016-1.22 37.339-1.91 43.603-1.31 11.834-1.08 58.016-5.37 66.076-1-.081-2.02-.157-3.01-.313-1.9-.298-3.84-1.085-4.88-2.747-2.2-3.496 3.2-100.052 5.92-109.869m93.7-37.359c2.33.816 3.78 1.833 5.87 3.106 4.19 5.388-2.29 95.467-3.75 109.097l-2.82 2.788c-6.81-3.359-6.97-4.763-6.6-12.512 1.56-32.492 2.29-65.11 4.52-97.547.1-1.467 1.84-3.784 2.78-4.932m-133.48 58.408c2.58.04 8.73.076 8.43 3.902-.97 12.59-1.75 79.46-5.8 86.202-2.71-.398-3.29-.555-5.91-1.388-1.75-1.907-2.96-3.545-2.89-6.24.3-11.185 1.41-76.83 6.17-82.476m107.24-223.222c6.8-.24 20.36-1.739 24.64 4.357-.99 8.617-24.74 7.339-31.01 7.347-7.59-.102-17.23 2.536-22.65-1.841-.87-3.587-.85-2.113.33-5.722 5.36-4.683 20.1-3.499 28.69-4.141m-22.18-120.361c8.16-.329 46.3-1.773 50.66 2.223 1.11 3.635.21 5.123-.98 8.795-10.02.021-44.65 2.704-50.56-3.7-.86-4.042-.56-2.849.88-7.318"/><path fill="#fefefe" d="M1685.31 1139.41c67.25-2.98 156.88 24.42 208.99 67.03 34.24 28 72.57 84.12 77.4 128.46-13.7 5.98-34.5 9.82-49.25 13.42-76.55 18.72-151.15 24.95-229.69 29.91-21.79 1.9-44.86 1.55-66.83 2.33-60.44 2.17-119.14 1.01-179.37-3.77-3.12-73.72-2.41-108.04-34.26-175.25 59.2-37.61 120.3-47.87 188.64-55.07 28.06-3.04 56.2-5.39 84.37-7.06M275.266 392.935l.865.13.793 1.372c-6.772 19.205-15.96 38.147-21.635 57.246 8.256 8.335 43.314 31.32 54.181 35.899-10.514 8.478-42.379 25.627-47.286 35.808 1.597 9.334 40.3 71.368 47.282 83.553l26.459 46.095c5.697 10.052 11.747 21.864 18.441 31.08 3.119 40.455 4.52 85.308 6.079 125.952l5.972 155.867a7821 7821 0 0 0-156.176 4.49c-.805-4.647-1.779-11.978-1.718-16.576.25-3.053.924-5.562 3.62-7.275a11.5 11.5 0 0 0 5.305-8.592c1.232-11.963 2.181-23.943 3.187-35.917l5.741-67.577a5485 5485 0 0 0 8.441-113.495c1.79-25.073 4.024-48.652 4.709-73.869 1.018-23.01 1.308-46.046.871-69.073-.209-7.897.961-33.291-10.086-32.816-9.896 5.885-5.379 18.348-4.918 29.187a820 820 0 0 1 .648 49.648c-.754 37.856-3.948 74.638-6.89 112.333a8149 8149 0 0 1-8.855 112.902l-4.475 51.477c-.88 10.015-1.558 24.365-4.107 33.615-13.541 1.842-79.259-2.622-88.706-9.385-.974-11.674 2.627-34.939 4.488-46.924 13.449-86.61 23-173.476 34.629-260.312 7.491-55.939 13.632-113.386 31.614-167.125 10.649-31.596 62.864-46.356 91.527-57.718M1467.32 91.539c3.55-.436 5.29-.23 7.62 2.135 1.18 4.137-.62 38.495-.87 45.507l-8.19 179.098-18.5 479.148-3.05 77.761c-.22 6.488.31 40.258-3.86 46.732-3.31.174-18.94.607-21.22.143-8.65-1.759-31.39 1.473-38.95-.048-2.43-2.02-1.52-9.428-1.32-13.128.99-18.022-.6-31.46-4.21-48.983 3.42.03 6.9.051 10.32.181 12.62.479 13.44-16.256 14.33-25.86 4.41-47.615 7.44-95.441 10.74-143.167l19.19-320.042 7.18-139.177c1.03-18.042 4.96-66.746 3.48-82.778-1.34-1.554-5.2-6.213-7-6.25-18.53-.382-38.04-.341-56.49 1.103-4.99.089-10.16-1.427-15.13-1.219-48.94 2.04-98.16 1.198-147.16 2.117-24.67.463-49.38 1.002-74.05.972-8.95-.01-19.29.711-27.99-.127-.27.219-245.235 2.532-266.82 2.628l-49.476.13c-8.655.01-17.557-.348-26.196.239-5.914.402-14.202 4.323-14.958 10.998-2.302 20.322-3.002 40.812-4.152 61.235l-5.254 83.643-15.139 234.258c-9.395 13.346-15.899 20.176-24.44 35.2-6.278 2.476-10.525 4.735-16.421 7.87-.538-10.977.857-24.236 1.642-35.453l3.822-55.931 14.349-213.524 6.872-118.06c.571-10.528 2.085-49.653 4.175-58.664-.047.028 578.906-6.251 633.686-7.034l71.71-.666c10.68-.068 30.59.272 40.57-.85zM1032.1 1166.22c19.8 7.21 27.23 4.32 47.83 4.17 9.88-.08 15.55 8.48 21.45 15.82 21.2 26.44 63.55 33.51 94.32 21.92 15.65-5.89 32.08-17.05 49.41-18.22 22.04-1.48 38.43 11.91 61.48 12.79 25.79.99 45.49-7.89 64.59-24.62 30.51 26.53 44.28 75.44 49.37 114.19 1.39 10.63 9.27 78.61 4.87 84.44-6.99 1.77-16.79 2.1-24.19 2.62-3.68 1.04-46.17 3.33-52.83 3.79-69.08 4.66-138.36 5.7-207.55 3.13-58.71-2.53-116.06-8.36-174.399-13.61 1.577-51.34 11.585-125.48 37.569-169.79 8.51-14.5 16.9-24.13 28.08-36.63"/><path fill="#fefefe" d="M461.155 400.717c67.73 30.399 81.154 68.099 108.03 132.698l40.632 100.456c-5.252 3.459-7.636 4.602-6.371 11.087 2.915 3.99 6.278 5.478 10.932 2.329 29.562-20.003 59.884-38.81 89.974-58.026 9.592 12.769 48.055 45.094 61.257 56.532a5468 5468 0 0 1-94.22 67.118c-15.715 11.119-31.008 23.423-47.251 33.724-4.067 2.58-8.484 5.515-13.272 6.5-7.213 1.483-14.513-.397-20.567-4.396-6.489-4.286-12.104-10.822-15.007-18.07-5.483-13.69-7.252-44.933-9.673-61.037-2.613-17.388-6.34-34.806-9.916-52.024-4.666-22.464-29.739-138.565-45.3-146.9-2.523-1.352-3.894-.787-6.37-.002-2.75 2.499-2.818 3.226-3.784 6.867 10.373 24.238 21.357 63.717 28.059 89.397 24.703 94.661 35.349 192.101 43.731 289.354 3.178 36.87 7.39 74.702 8.783 111.679-29.809-.676-59.868-2.13-89.6-1.767-3.276-39.56-4.724-80.467-7.612-120.359a4197 4197 0 0 1-4.908-78.949c-.592-10.454-2.651-35.079-1.898-44.866 1.272-16.553 5.238-37.851 7.232-55.075a3679 3679 0 0 0 9.793-104.877c.685-8.083 6.627-54.264 2.892-60.296-5.902-9.533-24.933-24.934-33.726-34.803 6.861-9.551 13.368-18.371 19.285-28.578-5.167-11.169-14.755-26.723-21.125-37.716m-33.715 52.082c3.76 5.449 17.137 94.649 18.576 106.202 13.336 107.086 19.519 215.955 24.895 323.747-27.482.565-61.069.361-88.604-1.04-1.24-.305-2.521-.851-3.73-1.308-1.451-2.787-1.574-5.175-1.699-8.283-3.193-79.912-5.19-161.098-11.621-240.799a1909 1909 0 0 0-12.492-109.867c-3.09-20.617-7.444-41.073-10.359-61.79 32.066 11.608 56.185 12.634 85.034-6.862m1038.99 408.708c5.96 1.348 40.11.757 47.27 0a143 143 0 0 0 6.34 42.042c1.21 3.874 7.37 21.916 7.24 25.036-2.02 46.638-6.42 98.775 31.08 133.325.71 12.79.65 25.43.65 38.21a1349 1349 0 0 0-30.76 42.88c-36.71 7.66-62.91 15.36-96.55 32.06-6.66 3.32-20.49 11.35-26.2 15.55-6.46-8.5-11.05-15.2-19.06-22.35 27.08-28.53 24.1-54.13 10.96-88.62-17.44-45.78-22.02-86.131-19.59-134.655 18.36-.454 38.45.378 56.8.769 22.13.471 15.8.271 30.31-12.307-.62-20.851 1.04-50.5 1.51-71.94"/><path fill="#fefefe" d="M711.838 703.018c.388 6.302-1.706 23.289-2.436 30.662-2.071 20.92-3.555 41.494-5.132 62.5-1.088 14.503-3.319 30.828-2.385 45.183.378 5.806 3.358 7.35 7.852 10.746 29.965-.877 63.563-.181 93.635.101l121.175.641q49.618-.218 99.223.753c7.51.116 30.81-.21 37.05 1.144.48 6.896-1.78 22.568-2.64 29.843a582 582 0 0 0-2.91 32.304c-10.1.365-35.16-1.636-43.08-.277-2.55.559-7.35.044-10.55.129-18.971.502-37.837-.699-56.765-1.535-7.711-.096-15.644 1.046-23.341.872-26.626-.6-53.537-1.661-80.161-1.627-42.91.327-85.823-.055-128.72-1.147-9.94-.194-52.239.748-58.114-2.962-.779-11.627 3.851-48.697 4.882-62.817 2.756-37.746 5.682-76.343 9.483-113.969 10.814-8.717 31.141-24.25 42.934-30.544M449.219 158.754c7.423 8.325 10.877 37.112 12.224 48.345-6.84.239-14.023-.563-18.828 4.089-1.526 3.091-1.549 3.492-.991 6.9 5.545 5.95 19.499-3.14 20.304 2.939 4.445 39.487-5.02 84.446-41.279 106.698-22.064 13.541-56.072-15.974-66.154-9.15-.49 1.728-.892 3.14-.311 4.943 3.951 12.26 30.634 14.52 40.225 20.581 7.211 4.557-3.198 13.532-1.592 21.404 1.469 7.204 10.342 4.269 11.989 6.608 6.961 9.886 18.362 55.497 19.661 64.785l.184 1.381c-8.506 6.459-12.739 8.347-22.315 12.398-24.157 7.423-42.065 1.406-63.753-7.845-2.875-13.077-15.007-57.142-14.962-67.275 1.027-1.378 3.184-4.709 3.291-6.268 1.334-19.459.489-41.165-.051-60.511-1.138-11.502 3.381-21.929-9.074-28.141-15.892-7.927-19.741-20.722-19.893-36.845 20.366-36.018 38.459 15.517 75.884-7.666 36.773-22.779 60.546-32.412 75.441-77.37"/><path d="M425.749 277.428c14.934-2.058 16.961 1.743 16.301 15.727-6.963 10.239-12.576 14.992-24.137 18.489-15.315-3.609-15.943-10.205-20.287-23.692 11.275-7.622 14.636-9.656 28.123-10.524"/><path fill="#fefefe" d="m426.585 290.34 1.062.242c-2.376 3.981-9.234 5.52-13.474 6.571-1.436-.882-.968-.633-1.999-2.171 3.081-3.788 9.501-4.003 14.411-4.642"/><path d="M425.708 235.244c9.643 2.065 13.824 17.037 15.635 25.704.69 3.302-2.254 6.468-4.32 8.845-3.263.225-3.644.177-6.447-1.495-4.805-5.782-8.141-19.081-8.327-26.832-.081-3.379 1.406-4.154 3.459-6.222m-108.812 9.318c8.512.45 13.412 8.817 15.002 16.47-1.343 3.806-.41 2.425-4.2 5.09-12.677-1.261-21.882-10.321-10.802-21.56m135.398-11.541c10.578.286 11.685 10.848 2.877 17.833-3.999.308-6.067-.65-8.953-3.352-3.983-7.294.573-11.047 6.076-14.481m-65.972 2.855c10.812.229 17.888 7.025 8.785 16.106-11.569 1.081-15.825-7.228-8.785-16.106"/><path fill="#fefefe" d="M308.691 381.008c1.102 2.094 5.994 25.089 7.143 29.686 20.218 80.934 29.627 158.367 36.537 241.128-10.006-18.447-21.384-36.327-30.966-54.354-13.856-25.418-28.029-46.094-42.686-70.558 14.42-12.091 31.333-21.681 46.112-33.213 1.878-1.465 2.676-3.418 3.208-5.69-1.126-7.637-44.513-33.06-55.337-41.452 8.068-19.369 15.831-40.249 23.974-60.025 3.615-1.853 8.245-3.808 12.015-5.522M1634.73 1091.43c14.89-.3 25.47-.94 40.24 1.62 36.57 6.33 31.81 8.2 50.51 33.47-35.13-1.26-57.68-.96-92.49 2.05-23.57 1.55-62.57 6.51-85.01 10.38 8.58-9.87 19.41-26.55 28.96-38.2 21.27-6.66 35.55-7.67 57.79-9.32m-809.6-572.245.563.916c-5.902 15.194-44.425 29.206-46.305 41.043 2.251 3.943 8.559 5.049 11.92 2.976 10.292-6.349 19.854-12.713 30.63-18.358-8.276 10.548-39.728 26.905-31.433 37.14 8.956 2.776 26.23-15.511 36.489-20.491l1.284 1.219c-.951 8.199-24.994 18.489-32.419 25.279-2.139 5.299-1.325 8.119 4.245 10.33 5.856.285 26.05-14.145 32.584-18.325-10.08 13.669-19.248 18.206-33.726 26.652l-33.227 19.482c-11.355-8.921-40.195-35.066-49.358-45.304 4.674-4.961 10.319-13.19 15.13-18.873 9.946-11.749 18.812-20.143 30.222-30.4-5.749 10.875-14.348 17.279-14.662 29.837-.241 9.646 2.243 27.65 14.72 27.632 8.697-5.002 3.105-21.494 1.145-29.266l3.099-6.349c17.614-11.95 39.475-27.754 59.099-35.14m747.19 506.475c6.83 5.68 8.73 19.04 25.02 26.9 22.38 10.8 36.59 4.91 58.48-1.84 22.05 7 24.21 16.21 49.28 6.38-1.22 8.34-1.66 18.12-2.25 26.63l-1.83 1.13c-31.21-7.52-52.01-10.17-84.49-5.99-9.08 1.17-17.1 2.34-26.14 4.33-6.79 1.49-9.63 5.17-15.22 3.53-1.07-4.62-1-17.04-1.17-22.44-.44-12.88-1-25.76-1.68-38.63M129.772 944.658c16.872 1.328 33.253 4.252 50.33 4.447 5.654 33.719 6.436 44.601-2.922 78.795-.319-11.09 2.21-39.696-8.584-44.523-3.354.176-3.731.439-6.526 2.341-2.539 4.869.093 37.832.389 45.452-1.051 8.8 2.639 30.29-1.205 39.34l-1.458.28c-6.84-8.68-5.025-64.81-11.259-70.843-1.665-1.612-4.777-2.754-7.094-2.494-2.53.283-3.366 1.539-4.864 3.317-1.944 6.08 2.415 12.01-.634 16.17l-1.984-1.19c-8.19-14.44-5.575-54.818-4.189-71.092m316.985-472.043c4.633 2.373 28.889 29.207 36.596 35.957-4.825 40.503-6.325 84.131-11.001 126.18-.055 1.23-.933 10.422-1.206 10.966l-1.355-.82c.059-9.494-3.226-27.458-4.146-38.053-3.968-45.683-10.896-89.146-18.888-134.23m-21.679-90.056c10.999 6.235 33.291 43.585 39.866 55.204-3.193 6.156-5.9 9.736-9.943 15.273-2.681 4.117-5.996 7.966-9.112 11.78-7.185-26.569-13.739-55.215-20.811-82.257m1115.082 581.18c1 .928 13.75 23.485 16.26 27.28.53 14.321.05 30.271 1.66 44.301-9.53-7.58-17.48-57.951-17.92-71.581"/></svg>