<svg xmlns="http://www.w3.org/2000/svg" preserveAspectRatio="none" style="display:block" viewBox="0 0 2048 1152"><path fill="#fefefe" d="M0 0h2048v1152H0z"/><path d="M990.169 51.584c6.611.887 27.431-1.116 37.931-.047 18.09 1.44 37.11 1.741 54.97 4.963 142.85 25.758 261.65 120.593 332.19 246.612 76 134.803 95.13 294.343 53.14 443.291 4.12-1.583 8.2-3.095 12.51-4.185 55.12-13.929 131.6-17.321 147.94 52.484 5.13 21.912-1.17 44.147-12.63 63.064 38.33-15.641 68.34-27.137 110.75-23.356 94.63 8.435 71.96 68.624 18.78 115.142.61 2.178 15.52-2.852 18.21-3.19 33.34-4.175 105.34-18.196 116.48 25.736l-.16.529c-14.48 46.963-108.53 54.753-149.74 57.453-23.18 1.53-48.65-1.55-71.87-1.31l-262.81 2.04c-28.48.18-57.34 3.76-86.17 1.86-12.96-.86-25.89 1.26-38.67-2.78-28.77 25.08-71.75 44.48-107.3 58.21-6.22 2.4-22.11 8.2-27.93 8.55-12.79 4.56-34.53 9.08-47.7 11.24a428.35 428.35 0 0 1-210.658-18.4c-47.981-16.35-73.302-33.26-115.241-60.64-46.437-2.35-92.001.47-138.436-2.15-33.98-1.91-70.248 3.81-104.16-.01-5.262-.59-14.544 1.42-20.48 1.04-29.822-1.94-59.325 1.19-89.092.28-59.703-1.57-155.711 3.35-190.804-55.258-14.683-34.242 9.883-63.02 39.711-76.688 40.997-18.786 77.522-9.86 117.887 5.233-10.598-25.879-10.521-57.965 2.078-83.435 20.932-42.315 60.732-54.142 104.702-54.503 42.418-.348 66.834 5.642 104.854 24.839-6.902-21.469-10.962-33.038-16.396-55.476a661 661 0 0 1-18.25-117.278C539.449 364.461 695.933 94.882 959.093 54.758c8.325-1.269 23.997-1.236 31.076-3.174"/><path fill="#fefefe" d="M991.573 64.417c5.881.646 20.317-.414 27.387-.343 14.93.148 28.07 1.323 42.77 2.849 84.87 8.806 163.54 48.334 228.14 103.035 9.33 7.902 18.23 17.059 27.02 25.649 92.86 90.848 145.35 215.682 158.07 343.939 13.55 136.671-29.74 283.031-115.53 390.333-28.62 35.8-79.67 82.141-118.14 106.751-48.92 31.28-123.42 57.13-181.18 62.3-13.02 3.13-42.91 2.15-56.57 1.4-410.314-22.48-556.659-548.807-332.119-848.79C755.896 138.682 848.54 80.21 991.573 64.417"/><path d="M1003.91 100.538c32.55-4.863 110.42 7.908 141.78 19.609 207.01 77.801 317.19 304.431 295.11 517.49-11.7 112.842-63.28 230.186-143.19 310.406-67.13 67.387-166.05 115.797-261.16 117.357-1.74.03-1.94-.1-3.68.25-12.21.25-25.34.83-37.507-.07-96.438-7.15-190.586-53.24-257.593-122.826-67.49-70.085-113.34-171.476-129.903-266.737-3.949-22.717-5.338-48.981-7.131-72.206-.695-107.248 20.863-212.813 79.157-304.078 22.041-34.507 54.047-70.534 84.033-98.731 11.054-10.393 24.512-17.474 35.719-29.953 5.089-5.667 26.147-15.713 32.965-20.791 41.371-25.665 88.163-39.404 136.057-46.377 12.566-1.889 23.97-1.724 35.343-3.343"/><path fill="#fefefe" d="M1004.84 475.202c10.51 2.303 32.03 1.569 43.16.799 39.83 94.864 75.69 191.273 112.71 287.227l36.28 91.391c6.55 16.381 13.86 32.714 19.24 49.508-5.65 2.502-166.39 1.097-180.43-.311-8.12.355-16.33-.26-24.47-.206q-31.695.49-63.395.505c-23.042.123-45.937-.397-68.951-.576-15.904-.124-31.624.452-47.509-.812 6.627-19.272 16.237-37.913 23.615-56.776 13.218-33.794 27.171-67.302 40.593-101.02l59.113-149.667c14.658-37.907 28.214-76.258 44.09-113.735 1.504-3.546 2.314-4.809 5.954-6.327"/><path d="M1023.47 658.481c3.96 1.136 7.67 2.057 10.74 4.976 13.74 13.042-2.1 25.275-1.14 37.165.52 6.346 12.48 7.491 16.63 11.295 6.06 5.557 10.24 30.868 10.85 39.335.6 8.502-.34 17.792 1.19 26.143 1.11 5.994 5.38 11.641 5.46 17.796.03 2.01-.23 2.231-1.62 3.615l-2.57-.055c-13.26-6.786-12.48-56.999-18.6-72.573l-.35-.892c1.06 12.968-1.32 24.809-1.28 37.579.02 6.963 3.78 13.674 3.97 20.649.3 11.155-1.06 22.841-1.51 34.049a2185 2185 0 0 0-1.89 67.236c5.25 1.31 11.56 2.516 15.23 6.859l-.46 1.533c-1.02.537-2.03.959-3.17 1.231-5.04 1.216-13.51-.315-17.72-3.368-1.74-1.264-2.98-2.879-3.32-5.024-1.3-8.041-.91-17.158-1.6-25.374-2.07-24.582-4-49.438-7.94-73.791-3.98 4.943-9.53 66.351-10.44 76.883-.69 7.946-.09 18.237-2.33 25.754-4.38 3.246-9.99 4.456-15.335 4.971-3.182.306-5.788.299-8.305-1.731l.795-2.27c4.196-4.219 10.312-5.751 15.805-7.685-1.34-16.241-1.5-32.643-2.03-48.927-.49-14.978-1.41-30.124-.9-45.107.32-9.507 3.81-18.232 4.63-27.593.81-9.364-1.35-19.459-1.57-28.951-7.611 10.341-3.83 44.068-10.423 57.084-1.795 3.542-5.324 8.759-9.175 10.054-.751-.359-1.37-.412-1.725-1.202-2.868-6.382 5.239-16.687 6.432-23.315 1.152-6.394-1.101-13.776-1-20.32.188-12.228 5.171-28.195 9.353-39.731 5.248-3.669 11.838-5.101 16.958-8.853.79-.58 2.6-2.034 2.93-2.885 1.37-3.578-6.97-20.434-5.08-29.677 1.41-6.902 4.73-11.131 10.51-14.883"/><path fill="#fefefe" d="M653.592 760.476c7.153-1.052 15.635-.249 22.935-.215q26.977.117 53.949.671c41.444.656 83.065.258 124.529.239-7.383 18.956-15.399 37.547-22.925 56.42-2.559 5.29-4.45 10.86-6.445 16.38q-47.427.357-94.854.113c-17.795-.017-36.007-.858-53.748.536-11.465-16.81-27.252-53.275-32.749-72.59 2.295-1.614 6.457-1.331 9.308-1.554"/><path d="M788.026 781.516c5.302-.33 10.723-.807 16.014-.181 3.024.358 4.683.914 6.571 3.271-.629 2.477-1.069 2.955-2.846 4.829-.202.022-.403.049-.605.066-5.392.48-14.954 1.634-19.244-2.015-.871-2.642-.599-3.233.11-5.97m-104.727 1.937c1.953-.088 4.708-.369 6.577.145 2.705.744 3.4 2.095 4.762 4.299l-.667 2.269c-2.934 1.875-4.324 1.665-7.745 1.813-2.675.092-5.635.162-8.278-.325-2.79-.515-4.421-1.908-5.913-4.181l1.147-1.974c3.067-2.122 6.528-1.914 10.117-2.046m41.927 31.622q.31-.015.621-.027c3.658-.114 8.636-.106 11.426 2.519.542 2.858-.07 3.075-1.686 5.559q-1.804.075-3.612.09c-3.549.018-6.131-.402-8.682-2.931.063-2.712.318-2.996 1.933-5.21m91.878-6.277c3.952.532 7.946-.164 11.657 1.567 1.637 2.413 1.376 3.051 1.265 6.019-3.933.11-8.883.819-12.418-1.1-1.61-2.705-1.073-3.512-.504-6.486"/><path fill="#fefefe" d="M1195.03 762.209c67.84 1.012 135.69 1.424 203.53 1.237-6.77 15.066-15.03 30.365-20.22 46.01-4.23 6.342-6.79 15.168-12.2 20.509-.62.605-1.86 1.853-2.67 2.113-4.37 1.388-13.98.18-18.96.244-40.89.53-81.79-.516-122.69-.206-3.64-10.211-8.38-20.104-12.37-30.19-5.18-13.062-9.66-26.493-14.42-39.717"/><path d="M1244.29 801.577c2.62-.334 5.1-.6 7.71-.069 3.26.659 6.75 1.712 8.65 4.579-.39 2.78-.83 2.955-2.86 4.956-3.25.344-6.58.416-9.82-.087-2.59-.4-4.65-1.1-6.26-3.267-.13-3.071.81-3.724 2.58-6.112m67.08-7.179 5.68.746c2.16 1.602 2.33 1.798 3.15 4.355l-1.25 2.371c-2.85 1.736-4.25 1.516-7.5 1.524q-.78.12-1.56.215c-3.46.417-4.64-.071-7.27-2.105-.82-2.378-.82-2.398.17-4.709 3.15-2.251 4.78-2.061 8.58-2.397"/><path fill="#fefefe" d="M1187.12 705.576c11.4 2.08 39.15.022 52.39.153 58.49.681 116.99.788 175.48.322-2.6 15.741-8.97 31.345-13.11 46.809-4.95-.955-9.93-.146-14.93-.612-8.87.651-18.22.054-27.13.021l-53.41-.153-82.99-.252c-10.17-.086-20.58.51-30.7-.005-2.05-1.658-2.8-2.779-3.53-5.311 2.76-2.338 8.58-1.914 12.24-3.798 1.18-1.967 1.42-1.952.93-4.315-3.77-3.199-9.17-3.138-13.86-2.995l-1.62 1.995-1.19-.631c-4.06-9.187-8.52-19.967-10.37-29.843 2.09-1.738 8.92-1.273 11.8-1.385"/><path d="M1286.98 718.322c5.79.727 11.08-1.129 16.45 2.48 1.35.912 1.19 1.306 1.53 2.888-.38.701-.76 1.394-1.25 2.03-2.15 2.834-5.7 3.143-8.96 3.503-2.75-.336-5.53-.596-8.26-1.007-3.37-.506-7.14-2.045-9.2-4.836l.34-1.857c2.8-2.556 5.74-2.722 9.35-3.201m87.98 15.039c1.16-.045 2.32-.053 3.48-.104.83-.037 1.69-.14 2.53-.073 3.16.25 5.58 1.687 7.51 4.048-.01 2.254-.32 3.305-1.69 5.099-1.58.261-3.2.54-4.81.564-2.68.041-5.04-.472-7.03-2.375-1.04-3.111-.72-4.074.01-7.159"/><path fill="#fefefe" d="m1376.75 649.939 1.23.515c3.29 6.319 4.22 35.377 5.24 44.149-19.33 1.091-38.94.157-58.32.179-31.13.272-62.27.36-93.41.266-20.25-.133-40.89-1.083-61.08.457l-4.06-7.648c-4.78-12.315-8.49-24.937-13.89-37.033 74.69.479 149.64 1.302 224.29-.885"/><path d="M1298.96 666.423q2.79-.138 5.58-.14c3.71-.013 8.88.45 11.49 3.524.96 1.135.54 1.501.37 2.877-2.21 2.304-4.79 2.537-7.78 3.086-1.71-.127-3.39-.256-5.11-.275-4.43-.049-9.42-.901-12.66-4.197l.12-1.795c2.3-2.056 5.08-2.436 7.99-3.08m-85.21 5.861c2.74-.259 6.14-.863 8.82-.158 2.97.782 4.82 1.709 6.48 4.255-1.14 2.156-2.01 2.456-4.05 3.709-2.78.397-5.58.584-8.38.221-2.64-.342-4.65-1.044-6.29-3.146.75-2.474 1.53-3.05 3.42-4.881"/><path fill="#fefefe" d="M795.153 652.601c10.927.775 22.204.365 33.177.459q34.394.372 68.785-.18c-4.991 15.257-12.168 29.751-17.243 45.043-37.507.745-75.103.305-112.625.562-30.953-1.66-62.814.114-93.823.528 1.474-10.286 3.267-37.002 8.202-44.782 18.204-1.99 36.953-.603 55.25-.53 19.415.078 38.86-.789 58.277-1.1"/><path d="M807.246 685.579c6.968.82 12.172-.501 18.262 3.97l-.316 1.627c-4.86 3.085-8.863 2.805-14.455 2.921-6.599-1.452-14.089 1.768-20.226-2.531l-.219-1.94 2.363-2.663c4.092-1.855 10.101-1.273 14.591-1.384m-53.733-26.687c6.81.056 20.171-2.497 25.556 1.721.777 2.8.051 3.567-1.091 6.13-7.664-.057-15.736.988-23.207-.753-1.991-2.505-1.368-3.966-1.258-7.098m-41.208 28.08c6.127-.26 14.819-1.743 20.159 1.607 1.447 2.669 1.133 3.557.784 6.47-6.04.072-13.6 1.118-19.161-1.309-2.164-2.611-1.812-3.505-1.782-6.768m151.705-14.738c4.58-.246 11.612-1.553 15.573 1.132 1.083 2.716.429 3.594-.424 6.287-4.746.617-10.847.962-14.937-1.829-1.044-2.493-.819-2.913-.212-5.59"/><path fill="#fefefe" d="M828.25 708.589c13.286 2.061 35.135.976 48.931.307-7.499 12.79-12.781 27.317-18.08 41.122-18.716.387-178.064 1.94-183.301-.087l-34.628-.013c-3.576-6.933-5.759-15.146-7.62-22.701 4.949-.109 13.622-.126 17.947-2.633.754-.437.867-2.199 1.071-3.062l-1.128-1.824c-5.434-2.133-12.542.396-18.485-.624-2.809-2.309-3.208-5.414-4.389-8.812 20.092-2.587 42.35-1.418 62.654-1.253l85.759.092c17.025-.019 34.295.631 51.269-.512"/><path d="M717.435 718.044c7.06-.126 18.243-1.809 23.877 2.597l.058 1.95-2.008 1.641c-1.214.435-2.431.849-3.679 1.179-5.501 1.455-13.173 1.942-18.206-1.066-1.411-2.771-.847-3.428-.042-6.301m77.192 4.818c5.054-.054 11.061-.707 16.005.112 2.657.44 3.249.935 4.649 3.013l-.672 3.365c-5.619.361-12.235 2.619-17.606.351-2.42-2.549-2.151-3.469-2.376-6.841"/><path fill="#fefefe" d="M727.737 603.238c25.766 2.721 52.57.3 78.464.387q36.388.484 72.779.158c12.632-.043 25.811.709 38.346-.927-4.894 11.143-9.568 22.389-14.325 33.592l-3.198 6.551c-16.746-.937-33.7-.334-50.472-.277-42.892.147-86.294 1.489-129.121.032 1.668-7.534 4.373-35.643 7.527-39.516"/><path d="M808.208 612.019c6.217-.389 14.095-1.837 19.75 1.164 1.805 2.494 1.738 3.004 1.824 6.121-6.187 1.168-14.846 2.28-20.542-.574-1.582-2.571-1.206-3.783-1.032-6.711m-69.168 9.292c3.058.011 5.87-.225 8.641 1.255 1.419 2.635 1.19 3.674.995 6.57-3.281-.227-6.545-.136-9.447-1.834-1.218-2.606-.832-3.131-.189-5.991"/><path fill="#fefefe" d="M1260.5 603.537c9.65-.008 19.26.402 28.91.157 11.78-.298 24.02-1.443 35.75-.225 2.66 12.011 3.62 24.343 6.41 36.36-42.1-.158-84.21-.105-126.32.158-19.11-.022-38.46.589-57.53-.492a683 683 0 0 1-13.36-35.566c42.06-.527 84.05.593 126.14-.392"/><path d="M1142.24 610.189c5.24-.051 13.1-1.124 17.37 2.188 1.01 2.81.66 3.481-.07 6.432-5.22.291-14.57 1.987-18.69-1.595-.65-2.989.26-4.263 1.39-7.025m106.81 11.38c3.16-.322 6.36-.691 9.54-.799 2.69-.091 4.57.261 6.57 2.099 1.27 2.638.68 4.579.15 7.319-5.13.05-11.97.834-16.03-2.896-1.04-2.712-1.04-2.928-.23-5.723m-68.03 5.606c4.55-.396 9.39-1.187 13.85.017 2.43 1.941 2.64 2.95 3.62 5.799-4.44-.333-12.26 1.739-15.96-1.133-1.3-1.006-1.22-3.109-1.51-4.683"/><path fill="#fefefe" d="M724.217 844.559c5.91 2.398 77.675-.747 90.853.265 2.33.179 3.15.128 4.608 1.919-1.536 7.053-5.932 14.693-8.832 21.391-4.936 11.4-9.675 22.802-13.92 34.481-3.193.66-6.405 1.546-9.675 1.009-8.875.707-54.086 1.433-60.703-.333-13.781-3.678-34.64-42.405-42.139-55.74-.679-1.208-.536-.894-.209-2.061 12.58-2.403 26.218.625 39.029-.813z"/><path d="M777.043 855.637c4.675-.045 10.264-.607 14.814.419 3.229.728 5.471 2.054 7.158 4.844-.407 2.617-.676 2.787-2.58 4.67-2.428.274-2.672.464-4.864-.849-7.479-.59-16.841 1.083-23.624-2.497-1.34-2.05-1.352-2.035-.923-4.443 2.962-2.54 6.234-1.961 10.019-2.144m-40.046 26.586c3.737-.331 7.839-.506 11.08 1.634.332 2.623-.116 2.696-1.592 4.768q-1.46.155-2.925.254c-3.138.204-5.854.155-8.328-2.017-.042-2.58.267-2.675 1.765-4.639"/><path fill="#fefefe" d="M1115.48 554.541c12.84 1.246 26.69.188 39.64.252 24.31.12 48.59.711 72.91.567 12.86-.077 43.73-2.762 54.82 1.544 5.76 7.336 5.33 25.548 7.43 34.95l.23 1.006c-12.61 1.479-27.11.355-39.88.436-39.94.256-79.86-1.262-119.78-.298-1.54-1.798-2.6-3.683-3.66-5.79-2.76-5.467-13.34-27.733-11.71-32.667"/><path d="M1227.75 570.967c6.83-.766 28.31-2.253 33.26 1.423-.11 2.794-.46 3.252-2.04 5.594l-2.26.302c-6.54.306-23.25 1.869-28.2-2.352-1.14-2.288-1.23-2.469-.76-4.967"/><path fill="#fefefe" d="M1226.6 843.087c45.01 1.074 90.03 1.139 135.04.198a1875 1875 0 0 0-20.29 30.597c-7.36 10.609-14.53 21.446-22.85 31.336-17.14-1.215-52.54-2.878-68.85-.473-7.79-15.687-18.62-44.868-23.05-61.658"/><path d="M1277.68 865.541c3.56-.36 7.09-.375 10.64.138 2.74.395 4.41 1.081 6.08 3.306-.6 2.831-1.71 3.632-3.67 5.672-4.14.213-8.06.415-12.02-1.015-2.58-.928-3.56-1.532-4.7-3.954.97-2.028 1.85-2.853 3.67-4.147"/><path fill="#fefefe" d="M778.613 555.616q47.66.537 95.323.462c20.265.036 40.738-.48 60.974.618-4.216 9.275-6.941 27.25-14.1 33.906-2.609 2.425-5.765 1.545-9.06 1.452-48.121.683-96.302-.176-144.405 1.236 1.764-10.429 2.743-26.304 7.545-35.481.882-1.687 1.979-1.618 3.723-2.193"/><path d="M852.132 565.575c1.465.09 2.925.217 4.389.319 2.658.186 3.896.595 6.085 2.19.615.448 1.229.871 1.862 1.292l-.851 1.241c-4.441 2.305-6.137 1.407-10.687 2.222-.304.054-.607.118-.91.177-3.873.471-8.921 1.716-12.403-.51-1.375-.88-1.235-1.199-1.615-2.779.378-.551.759-1.067 1.231-1.545 2.972-3.015 8.913-2.488 12.899-2.607"/><path fill="#fefefe" d="M980.679 475.059c2.803.734 6.642.884 9.606 1.123a11071 11071 0 0 1-68.216 172.85c-10.603 26.962-95.758 248.857-103.087 255.533-3.646-.377-7.389-.482-10.675-2.022-.047 2.34 128.645-321.096 137.898-343.831a3329 3329 0 0 0 19.94-49.6c3.512-8.899 9.955-26.289 14.534-34.053M1044.3 361.63c7.98 1.756 40.93-3.822 48.92 1.233 2.65 6.333.79 6.151.78 12.071-.08 30.3-.47 60.828.42 91.115-2.87.094-15.87 1.181-16.78-2.663-3.11-13.045 1.94-72.867-3.61-82.12-7.5-3.915-54.45.104-66.87-1.95l-.75-.131c-5.3.792-29.668-1.038-30.8 3.803-2.804 11.996 2.179 75.802-2.421 82.186-3.97.476-5.939.924-9.838-.034-1.8-2.982-1.065-91.803.492-99.8 6.394-5.882 70.027.219 80.457-3.71m15.22 114.283c4.17.058 7.98.469 12.07 1.243 4.39 16.033 12.87 32.325 19.18 47.782 10.19 24.958 19.67 50.255 29.52 75.354a10604 10604 0 0 1 79.17 206.056c12.35 32.68 25.48 64.984 37 97.981-2.1-.026-4.99.215-6.93-.567-6.94-2.8-95.17-240.987-106.53-269.941-20.72-52.798-43.67-104.743-63.48-157.908m-243.991 35.844c15.037-2.791 49.486-.551 66.493-.126q36.045.617 72.097.609c-4.711 10.519-8.044 21.756-13.29 32.007-27.957 1.361-56.068.423-84.045.687-10.741.101-40.334 2.401-49.068.097-2.051-6.05 2.913-21.492 4.697-27.674.654-2.266 1.015-4.428 3.116-5.6"/><path d="M856.749 528.146c5.426-.127 12.002-.952 16.912 1.628 2 2.534 1.73 2.825 1.544 6.099-3.886.208-7.785.434-11.677.479-2.837.033-5.063-.34-7.151-2.36-.692-2.333-.351-3.556.372-5.846m44.975-2.983a292 292 0 0 1 9.067-.122c3.195.025 6.488.071 8.874 2.488.4 2.559.229 2.782-.986 5.097-5.033.216-12.362 1.414-16.58-1.6-.925-2.517-.814-3.186-.375-5.863"/><path fill="#fefefe" d="M1100.12 513.422c24.42-1.462 52.2.367 76.97.34 12.82-.014 25.69.22 38.49-.16 8.2-.243 16.53-1.253 24.73-.906 3.01.127 6.24.604 8.73 2.434 3.26 2.407 4.24 12.604 4.8 16.664.57 4.107 1.12 8.012-1.56 11.511-5.89 4.01-14.07 1.32-20.61.225 1.64-.743 2.6-2.581 3.61-4.006-1.39-.851-2.99-1.7-4.6-1.999-4.06-.75-14.05-1.231-17.22 1.494-1.12.967-.81 1.066-.86 2.403l3.15 1.95c-4.35 2.481-95.87.619-106.09.686l-3.35-8.656c6.65-.704 17.29 1.374 22.9-2.163.85-2.176.81-2.497.3-4.789-7.31-7.177-19.48 1.739-25.59-.806-1.46-2.995-3.28-6.185-4.33-9.343-.79-2.396-.6-2.8.53-4.879"/><path d="M1182.64 527.432c4.37-.351 10.74-1.524 14.35 1.521.77 2.652.55 3.13-.28 5.805-4.52-.384-9.8-.3-13.89-2.38-1.19-2.255-.78-2.557-.18-4.946"/><path fill="#fefefe" d="M984.845 389.06c9.496-.086 78.505-.869 82.315 1.714.75 7.615.51 68.341-.67 74.891-7.41.519-15.09-.353-22.52-.952 6.89-11.751 8.62-22.766 6.38-36.048-5.07-18.915-20.87-37.128-40.24-20.156-11.398 9.982-13.812 30.232-11.292 44.198.789 4.374 3.892 6.866 3.652 11.615-3.211 1.488-14.558 1.1-18.467.953.388-12.081-1.361-68.382.842-76.215m88.505-236.038c29.56-.611 83.28 23.095 108.1 39.158 40.63 27.008 81.27 67.653 106.31 109.711 14.76 24.801 36.68 69.31 42.91 96.79-2.71.005-6.39-6.578-7.5-8.728-17.31-33.535-31.52-69.141-53.58-100.085-51.34-72.012-115.26-107.224-196.24-136.846m7.58 322.985c38.38 2.527 77-.221 115.4.219 1.22 8.878 3.44 17.796 5.33 26.565-13.43.607-26.98-.023-40.43.134-17.39.203-52.97 2.644-68.11-.709-5.18-7.311-7.87-18.019-12.19-26.209"/><path d="M1162.79 494.026q4.02-.155 8.04-.243c3.68-.074 7.78-.522 10.64 2.223.39 2.524.2 2.864-.91 5.196-2.66-.114-5.33-.13-7.99-.237-3.99-.159-7.17-.141-9.99-3.196zm-52.77-4.638.57-.045c4.07-.315 10.09-1.335 13.43 1.523.26 2.466-.13 2.741-1.33 4.813-4.63.219-10.35 1.08-14.2-1.807-.05-2.468.16-2.576 1.53-4.484"/><path fill="#fefefe" d="M863.361 476.572c24.212-1.265 49.047-.065 73.309.005 10.414.03 21.228.669 31.563-.702l-6.716 16.879-3.502 8.289-104.09.015c1.846-6.427 3.873-21.141 9.436-24.486m-65.116-221.737 2.745 1.599c.004-1.825-38.203 50.8-41.282 55.911-24.358 40.442-41.435 85.355-55.718 129.666-6.406 19.875-15.114 54.367-25.06 68.423l-1.636-.469c-1.672-9.079 9.269-37.005 11.797-47.016 13.146-52.391 32.518-101.759 59.38-148.661 15.874-27.716 24.826-40.155 49.774-59.453m119.432 130.54c4.986 1.128 30.399-.076 35.835-.844 1.827 34.996-3.31 11.194-24.238 26.123-6.796 4.848-7.332 20.089-7.658 28.418-1.517 9.317 3.084 15.509-1.633 27.826l-2.229.718 1.514.119c-7.41-2.594-4.149-66.654-5.195-76.773-.334-3.232 1.072-4.325 3.604-5.587m185.633-2.335c11.68.094 23.36.083 35.03-.032 1.52 25.487-.91 59.008.59 84.59-.31-.035-2.01-.26-2.18-.294-8.41-1.66-.9-33.178-3.41-41.192-.77-4.53-3.05-7.947-5.15-11.729-5.74-10.335-17.49-6.495-24.52-11.734-2.82-2.1-1.12-15.539-.36-19.609"/><path fill="#fefefe" d="M941.755 413.314c4.047-.559 6.069-1.077 10.031-.036 3.656 4.446 1.268 44.797 1.086 52.799-4.426-.008-8.132.138-12.553.418-1.589.031-8.219.014-8.678-1.88-2.689-11.083-2.297-25.146-.669-36.427 1.126-7.806 4.63-10.917 10.783-14.874m162.445-.652c26.95 2.829 22.06 32.012 20.39 52.709l-1.46 1.225c-5.87-.515-14.21-.124-20.28-.017.13-9.319-1.19-47.741 1.35-53.917m254.93 38.265c11.32 14.292 21.94 51.219 22.01 69.419-9.1-7.884-23.58-57.245-22.01-69.419m-210.51 1.072c16.25-.197 18.63-2.324 21.77 14.956-7.29-.922-13.78-.787-21.05-.08-.5-5.382-.96-9.423-.72-14.876m-252.33-5.188c4.749 1.448 6.339-.268 10.292 1.739 1.181 4.416 1.72 16.622-3.332 18.571l-13.421.074c1.097-5.403 2.799-17.047 6.461-20.384m-229.703 112 .871 1.036c-.946 10.217-5.504 22.974-11.07 31.577l-.869.239-.703-1.088c1.964-11.911 3.074-22.693 11.771-31.764M474.19 775.534c26.74.134 51.065.798 76.812 9.133 15.674 5.074 39.166 13.6 46.976 28.941-22.403-8.635-43.252-17.358-66.795-22.677-3.72-.841-7.3-2.213-11.089-2.716-4.262-.76-8.54-1.507-12.842-2.007-40.581-4.717-80.395 4.767-112.716 30.232 2.463-4.219 5.134-8.442 8.364-12.119 17.47-19.886 45.838-27.304 71.29-28.787m1244.19 70.04c15.17.451 34.8 2.239 47.98 10.52 8.85 5.561 11.44 12.186 13.64 21.886-3.01-3.702-6.14-6.629-10.11-9.29-24-16.069-64.17-13.78-91.45-8.435-24.88 5.404-48.93 12.993-73.33 20.163l.4-.433c22.36-23.518 81.36-33.688 112.87-34.411M296.746 898.391c23.969-3.308 54.935 4.983 76.681 14.767 4.856 2.185 8.457 3.926 10.397 9.05l-.499 1.065c-10.434-.258-21.989-5.451-32.289-7.694-12.813-2.79-26.961-2.906-40.038-2.995-9.724-1.429-21.823-.459-31.626.683-15.264 1.779-32.383 6.37-42.244 18.891-.7.889-1.083 1.267-2.224 1.595-.248-3.216.551-5.212 2.57-7.683 12.943-15.842 39.517-25.464 59.272-27.679M1527.3 746.461c10.82-.274 21.56-.309 32.27 1.463 19.13 3.163 36.71 10.998 48.26 27.146-21.1-14.963-38.31-17.37-63.58-18.425-8.06.29-16.37.033-24.38.953-20.17 2.319-41 9.385-60.37 15.351l4.58-12.731c20.9-7.594 41.15-11.266 63.22-13.757m288.83 206.202c8.18 2.605 24.15.695 36.66 5.054 4.38 1.526 10.52 4.595 12.44 9.113 1.03 2.419 1.49 5.848.42 8.277-.69 1.574-1.52 1.566-3.03 2.191-2.1-1.555-4.22-3.088-6.35-4.599-16.04-11.318-47.97-12.087-66.51-8.803l-.53.096c-.94-.138-.46-.12-1.62.012-15.23 1.718-39.29 6.694-53.59 5.782l.06-.908c18.04-11.942 59.97-14.803 82.05-16.215"/><path d="M1796.52 409.286c5.49-1.04 8.9-.445 11.35 4.657-.09 6.801-41.09 49.746-48.05 56.945 6.99-3.439 26.79-12.098 33.63-7.471 6.12 12.332-31.39 48.218-40.17 57.06 6.97 2.507 17 2.236 22.61 7.347 1.17 1.071 2.35 3.069 2.34 4.698-.04 6.985-110.79 134.868-123.58 147.298-4.01 2.16-7.46.768-10.27-2.242-2.99-9.04 41.22-94.14 48.03-107.756-7.43 5.133-34.93 18.372-44.87 16.455-5.16-.995-2.02-9.877-.62-13.33 13.2-32.51 26.7-64.932 39.32-97.682 6.51-16.075 12.78-38.068 20.96-52.524 8.08-5.554 75.72-10.88 89.32-13.455"/><path fill="#fefefe" d="M1778.66 424.407c1.31-.175 2.71-.302 4.03-.446l.86 1.225c-9.32 15.083-40.18 39.16-48.23 56.923-1.02 2.254.14 3.916 1.29 5.527 8.28 3.526 30.49-7.509 39.99-11.071-2.05 1.785-8.76 9.042-10.31 11.33-5.39 7.941-32.38 29.799-31.23 38.492 5.36 6.09 16.9 6.791 25.58 8.711-23.48 31.999-52.16 61.039-75.16 91.347-.4.74-10.01 10.723-11.63 12.542 10.69-25.392 24.01-50.36 36.79-74.754 2.45-2.731-.99-9.313-4.11-9.473-11.44-.588-36.28 11.545-46.03 16.254 15.89-28.184 26.49-65.223 39.53-95.237 6.21-14.287 10.55-29.31 17.56-43.532 18.44-.835 41.32-5.773 61.07-7.838"/><path d="M244.942 406.994c8.899-.362 96.793 11.178 103.06 13.937 12.233 12.887 34.268 51.217 46.011 66.948 7.097 11.257 15.822 21.458 22.999 32.637 3.425 5.335 5.834 10.306 1.514 15.532-4.972 1.372-49.536-1.938-58.141-2.413 5.354 7.052 17.91 27.551 22.783 35.582 15.64 25.778 34.816 55.363 48.913 81.714 3.641 5.859 13.105 20.2 5.871 26.055-9.521.993-28.428-23.093-35.064-30.244-31.764-34.23-62.718-70.087-92.684-105.934-15.96-19.092-43.37-46.223-55.072-66.903 2.87-9.858 19.948-5.782 27.574-4.857-8.192-9.944-35.804-45.85-40.796-55.392.327-3.858.553-3.101 3.032-6.662"/><path fill="#fefefe" d="M261.267 419.98c26.935 4.497 54.675 6.976 80.297 11.192 18.161 28.572 37.281 56.207 56.405 84.12 1.671 2.438 2.891 4.874 2.249 7.699-8.555 3.056-47.584-4.924-54.38-1.972-2.372 2.999-3.466 4.844-1.323 8.809 14.629 27.072 33.391 51.776 48.308 78.715 5.001 10.291 10.584 15.194 15.363 27.191-20.257-21.128-45.189-51.741-65.036-74.641l-41.111-48.283c-9.892-11.453-19.868-21.841-29.122-33.881 6.776.81 22.733 4.513 27.117-.345 1.982-8.242-8.492-17.78-12.945-23.996-7.885-11.005-18.451-22.244-25.346-33.799z"/><path d="M424.915 220.457c14.074 7.331 71.233 10.963 78.149 19.394 8.236 10.037 55.962 97.976 59.932 110.029l-1.337 1.816c-10.681 5.159-41.529-8.871-56.446-10.746l-1.106-.13c9.097 17.686 21.937 39.976 31.853 57.191 1.9 6.705 8.871 12.362 3.657 20.233-2.054.793-3.373.841-5.545.36-4.193-.929-105.975-117.659-112.608-129.696-1.333-2.419-.709-3.812-.136-6.328 6.631-5.177 26.498.87 36.844 1.853-10.125-17.242-29.661-40.556-36.928-57.385.536-3.976.675-3.082 3.671-6.591"/><path fill="#fefefe" d="M440.918 236.577c8.68 2.74 50.963 9.264 54.298 14.36 18.433 28.161 32.575 59.54 50.102 88.496-13.744-3.55-27.377-8.096-41.138-11.621-6.695-1.715-15.57-4.769-18.082 3.769.347 4.182 3.847 9.111 6.094 12.879 4.574 8.073 8.804 15.638 12.985 23.917-11.067-12.726-22.768-24.967-33.917-37.737-9.744-11.161-20.843-26.884-31.124-36.862 9.254 1.571 25.138 6.326 33.656 4.947 2.733-1.399 2.964-2.114 4.494-4.835l.175-2.911c-8.961-16.849-28.918-38.309-37.543-54.402"/><path d="m1629.18 225.177 5.58-.316c3.12 1.622 2.15.618 3.65 3.758.39 9.558-26.67 42.57-33.88 52.454 9.06-1.871 23.81-7.436 29.2 2.142-.43 4.923-49.65 57.177-56.25 64.613l-35.52 40.365c-4.36 4.988-18.16 23.078-23.88 23.71-3.35-.766-6.03-3.695-8.64-6.042l4.6-8.752c10.81-21.53 27.29-48.878 39.59-69.673-10.44 3.438-22.47 5.584-33.19 8.399-5.71 1.498-13.23 3.027-17.72-1.618 1.15-7.933 50.53-95.721 53-96.267 21.87-4.824 51.13-6.781 73.46-12.773"/><path fill="#fefefe" d="M1614.15 241.429c.66.085.87.448 1.56.978-8.13 12.515-21.74 27.903-27.73 41.485-1.28 2.914.06 4.996 1.42 7.281 6.71 4.28 12.77 2.125 20.81.904-1.85 2.224-3.94 4.862-5.93 6.921-17.76 18.44-34.27 37.844-51.47 56.792 4.84-7.85 8.95-14.713 13.28-22.84 2.65-4.849 5.31-9.004 4.14-14.515-6-10.463-37.84.816-47.63 4.128 5.75-11.922 12.57-23.139 19-34.705 7.1-12.793 13.79-25.97 21.69-38.286 9.82-1.753 43.84-5.485 50.86-8.143"/><path d="M1505.08 30.475c3.23 1.275 4.56 1.6 7.06 4.156 3.19 8.714-7.73 65.092-10.03 76.767 10.68-1.42 38.17-8.128 45.9-3.942 2.17 3.56 1.78 2.008 1.86 5.911-1.93 4.792-111.83 125.141-120.49 128.364-3.63 1.352-6.15.291-9.42-1.219-.64-1.361-1.8-4.073-1.36-5.454 4.23-13.289 35.72-57.931 38.6-67.593-7.39-1.227-40.57 12.299-50.21 7.891-2.07-2.249-2.32-2.548-2.66-5.567 3.39-6.957 16.96-25.025 22.21-32.358a3713 3713 0 0 1 50.36-69.324c7.34-9.911 20.87-30.019 28.18-37.632"/><path fill="#fefefe" d="M1496.55 62.703c6.03 6.668-14.63 52.967-5.93 62.061 5.19 2.398 28.67-3.735 36.61-5.061-9.34 13.2-31.37 34.279-42.78 46.867-8.63 9.519-19.34 21.196-28.4 30.166l5.84-11.425c4.15-7.323 14.94-20.337 15.27-27.696-3.83-9.65-19.39-4.235-27.37-2.569-8.21 1.717-16.72 4.084-24.91 6.122 6.4-7.202 12.84-17.789 18.72-25.859 18.07-24.767 33.85-48.504 52.95-72.606"/><path d="M535.742 30.034c2.842-.325 7.58-.717 9.457 1.78 29.445 39.185 55.347 81.074 84.892 120.252 1.072 1.422 1.487 2.785 1.638 4.504-.656 3.481-.87 3.828-3.473 6.236-5.302 1.071-47.376-11.936-55.603-14.338 12.976 18.649 35.7 57.737 47.407 77.994 2.485 4.532 6.506 15.843-1.354 17.072-12.588-2.719-93.298-96.518-107.762-111.549-4.111-4.272-14.895-15.633-14.057-21.571 6.605-5.77 35.374-1.748 46.254-1.536-.495-1.833-1.336-5.891-1.362-7.709-.212-14.796-12.443-60.064-6.037-71.135"/><path fill="#fefefe" d="M549.43 60.486c9.229 9.616 24.441 33.348 32.293 44.764 8.784 12.772 21.089 28.892 28.864 41.747-10.521-3.231-45-14.303-53.882-13.421-8.078 5.278 16.439 37.905 20.795 45.63 3.595 7.038 8.334 14.693 12.399 21.577-20.977-25.98-50.656-53.911-73.318-81.052 43.801 5.271 40.309-1.098 34.476-38.848-.893-5.776-2.147-14.763-1.627-20.397"/><path d="M1624.67 465.651c5.35.189 8.75.958 10.02 6.354-1.26 6.001-46.84 53.543-54.94 61.917-4.97.353-7.66-1.701-8.58-6.51 1.52-6.443 45.62-52.386 53.5-61.761M267.788 180.392c1.102.443 4.853 2.351 5.372 3.024 7.314 9.481 49.987 48.379 51.016 57.168-1.27 3.464-2.238 3.942-5.104 6.071-2.003-.724-3.83-1.687-5.434-3.109-6.961-6.17-50.259-49.496-50.438-55.667-.092-3.165 2.506-5.454 4.588-7.487m1510.352 3.446c3.6 1.049 5.4 2.673 6.69 6.196-1.31 7.868-40.97 42.018-47.29 51.605-1.15 1.732-5.75 5.871-7.55 7.278-5.01-2.045-6.4-2.367-6.76-7.812 3.34-8.334 46.47-51.536 54.91-57.267M346.765 688.44c1.367.062 2.884.245 4.16.775 6.372 2.646 47.362 49.72 50.871 57.056-.281 3.236-1.114 4.141-2.955 6.704-1.954-.06-5.055.346-6.644-.825-2.616-1.925-43.559-47.584-47.174-52.404-.97-1.294-1.426-2.77-1.647-4.359.204-3.235 1.378-4.619 3.389-6.947m1233.095-59.814c1.42.477 3.29.952 4.54 1.761 2.32 1.498 2.4 2.56 2.83 5.075-2.69 10.74-40.99 44.41-49.84 56.394l-.51.703c-2.05-.54-4.65-1.298-6.35-2.555-2.01-1.481-2.03-2.941-2.26-5.185 6.04-10.832 41.19-47.582 51.59-56.193M265.715 749.331c5.739.99 10.506 7.146 14.37 11.237 10.422 11.036 31.172 31.079 38.988 42.392 1.118 1.618 1.211 3.204 1.157 5.114-1.032 2.822-3.238 4.002-5.595 5.656-1.174-.542-2.291-1.134-3.352-1.877-5.557-3.893-48.816-50.478-49.099-54.096-.273-3.486 1.472-5.9 3.531-8.426m-88.901-258.524c2.357.511 4.814.939 6.658 2.61 7.705 6.979 14.588 15.57 21.753 23.142 7.675 8.11 16.749 16.208 23.521 25.046.92 1.202 1.278 2.449 1.42 3.947-.376 3.217-2.037 4.786-4.128 7.044-1.153-.207-2.263-.434-3.339-.917-6.248-2.807-46.655-45.794-49.223-52.431.111-3.276 1.737-5.697 3.338-8.441M1698.01 689.718c.88.045 1.65.075 2.48.382 2.65.983 4.42 2.484 5.73 4.981.05 2.015.27 2.858-.9 4.577-4.1 6.037-10.88 11.839-15.85 17.299a932 932 0 0 0-30.84 35.147c-3.5-.011-5.32-.283-8.11-2.504-.42-.947-1.27-2.278-1.27-3.301 0-6.092 40.8-48.286 48.76-56.581m166.48-199.102c1.12.147 2.47.274 3.5.745 2.51 1.135 3.17 2.733 4.22 5.046-.05 1.68-.17 3.181-1.1 4.63-6.38 9.963-38.03 40.777-48.72 51.874-1.95-.39-4.44-1.053-6.02-2.301-.96-.764-1.75-2.037-1.82-3.261-.39-7.247 42.16-48.547 49.94-56.733M1392.27 55.517c4.71.76 7.91 2.887 8.46 7.69-3.59 9.163-37.62 44.789-45.88 50.862-4.77-.363-6.23-2.134-7.8-6.14 1.24-6.577 12.44-16.513 17.76-21.536 10.1-9.55 17.96-21.226 27.46-30.876m364.12 693.994c.35.12.7.233 1.05.36 3.06 1.119 5.12 2.582 6.42 5.599-.03.921.11 2.266-.11 3.131-1.27 5.141-39.33 42.556-45.7 48.95-1.59-.092-3.77-.502-5.15-1.332-2.23-1.333-2.3-2.684-2.68-4.997 1.88-8.023 38.48-44.875 46.17-51.711M649.944 56.612c.679.083 3.715.432 3.988.664 9.982 8.422 41.671 41.002 46.336 49.982-.141 4.028-.556 3.345-3.254 7.227-1.063.191-2.435.02-3.561-.043-6.84-3.656-42.296-42.32-46.399-49.337-.413-3.265 1.298-5.615 2.89-8.493M488.442 630.634c1.144.542 2.269 1.153 3.213 2.007 7.445 6.734 40.001 41.36 42.733 48.643.219.582.057 2.083.076 2.766-1.316 2.82-3.307 4.081-5.766 5.796-1.445-.923-2.844-1.852-4.16-2.958-5.219-4.386-40.815-42.684-42.335-47.1-.269-.782-.173-2.259-.24-3.128 1.041-3.141 3.815-4.416 6.479-6.026M245.038 297.56c6.328-.456 23.36 20.936 29.666 26.62 3.652 3.293 19.04 18.591 20.956 22.206.401 3.198-1.382 5.084-3.195 7.744-1.94.056-4.514.207-5.978-1.041-6.463-5.512-44.987-43.412-45.796-48.093.327-3.592 1.938-4.82 4.347-7.436m1554.362.241c5.03.887 6.48 1.913 7.73 6.706-.59 5.377-15.14 17.85-19.55 22.141a1658 1658 0 0 0-27.74 27.836c-5-1.594-6.72-1.476-7.88-6.773 1.39-6.723 39.63-42.6 47.44-49.91m44.37 332.945c1.23.176 2.54.359 3.69.835 2.34.97 3.94 2.526 4.73 4.905-.28 2.397-.32 3.249-1.74 5.249-4.71 6.626-12.5 12.76-18.2 18.685-8.17 8.508-15.67 17.8-24.34 25.807-1.3-.22-2.82-.41-4.02-.952-2.48-1.118-3.14-2.583-4.15-4.884.09-.815.04-2.225.32-2.951 2.49-6.515 36.19-40.399 43.71-46.694m-205.97-284.91c2.13-.11 3.04.15 5.1.54 2.2 1.736 5.69 6.724 3.16 9.12-14.76 14.024-28.44 30.764-43.45 44.304l-.69.244a7.34 7.34 0 0 1-6.2-1.56c-2.19-1.799-1.8-3.314-1.81-5.607 2.07-5.005 38.16-41.735 43.89-47.041M398.886 378.397l3.991.824c5.382 4.227 42.549 42.746 45.477 47.562-.18 4.137-.964 3.904-3.711 7.917-1.712-.225-4.591-.691-5.79-1.835-7.423-7.076-42.167-39.839-43.55-47.433.011-3.268 1.522-4.546 3.583-7.035M197.96 630.506c1.578.133 3.349.259 4.806.921 6.017 2.732 41.134 41.749 43.11 47.958.182 3.015-.988 4.444-2.674 6.739-1.526.027-3.51.13-4.957-.412-5.427-2.036-40.839-41.46-43.146-47.152-.085-3.33 1.221-5.315 2.861-8.054m277.498-135.173c1.192.251 2.199.485 3.203 1.215 5.566 4.046 36.284 37.043 40.798 42.934.982 1.282 1.282 2.252 1.466 3.853-.633 3.07-2.705 4.694-4.864 6.789-.146-.047-.29-.097-.437-.14-1.16-.336-2.26-.685-3.244-1.413-7.309-5.406-41.01-39.232-42.068-46.331.564-3.146 2.91-4.822 5.146-6.907m-83.152-362.137c5.449 1.453 41.333 39.68 42.452 45.134-.469 3.257-2.308 4.53-4.697 6.938-.765-.106-2.867-.7-3.298-1.068-6.356-5.436-37.008-37.646-38.646-42.472.123-3.585 2.08-5.654 4.189-8.532m1260.254.695c4.78 1.051 7.8 3.611 7.58 8.622-3.91 6.616-30.14 33.983-36.55 39.813-5.54-1.075-8.09-3.124-7.99-8.6 2.09-4.212 32.75-36.501 36.96-39.835"/></svg>