<svg xmlns="http://www.w3.org/2000/svg" preserveAspectRatio="none" style="display:block" viewBox="0 0 2048 1462"><path fill="#fefefe" d="M0 0h2048v1462H0z"/><path d="M850.451 108.604c48.037.168 96.239-.748 144.296.537 10.073.27 23.223 14.345 31.353 14.668 3.38.135 21.56-15.423 28.52-14.803 14.48-.335 29.48-.243 43.86-.295l99.23-.143c35.73-.129 65.54-5.198 91.62 20.686 46.45-4.05 92.64-7.243 139.23-10.599 31.6-2.276 65.36-8.632 97.27-7.423 5.64.214 12.83 9.815 16.58 14.213l128.51-4.274c26.25-.795 53.26-1.658 79.33-2.218 43.71-.938 45.77 31.923 47.12 66.881.66 16.94-3.34 30.979-15.54 43.127 13.7 4.221 16.84 33.049 16.2 45.069-1.29 24.45-1.36 58.241-18.11 77.811-4.91 5.742-20.08 4.151-27.29 3.952l.29 1.365c2.48 11.967 10.77 55.221 4.81 64.289-4.25 3.113-34.89 1.529-43.28 1.874 1.73 8.995 2.76 21.813 4.17 31.513 4.89 32.161 9.43 64.375 13.6 96.637 2.69 20.602 5.89 50.471 9.95 70.191 15.72 6.44 28.21 20.58 34.66 36.032 13.53 32.413 9.69 56.113-23.86 70.443 4.13 29.61 7.56 59.314 10.29 89.085 1.46 14.56 3.96 31.874 2.91 46.31-.59 8.047-6.27 13.491-12.32 18.207 16.71 27.745 27.03 48.22 29.43 81.323 2.02 28.045.79 41.648-16.08 64.458 23.58 17.08 36.5 41.06 33.51 71.36-.61 6.17-5.65 14.36-5.31 20.32 24.07 6.87 30.72 36.67 27.32 58.42-2.47 15.84-7.57 23.44-19.99 32.82 4.91 13.42 11.38 70.14 11.54 86.03.07 7.38-2.38 15.41-4.62 22.5 4.08.37 8.19.63 12.28.73 30.36.74 58.91 5.17 89.34 4.88q-1.29 1.275-2.64 2.49c-21.02 18.82-60.14 13.83-87.05 16.69-22.75 2.43-48.3 2.62-71.28 3.06-13.68.27-29.08-4.64-43.11-3.79-27.88.89-55.73 4.42-83.64 4.97-37.88.74-76.14-4.85-113.94-2.02-7.83.59-15.65 1.28-23.47 1.92-19.95 1.67-39.94 2.83-59.95 3.46-28.69.93-56.49-.42-85.02-.17-44.61.39-87.35-.59-131.92-2.88-21.68-.57-41.24-.47-63 1.26-22.26 1.77-43.77 4.67-66.14 4.77l-452.878 1.53c-74.467.38-151.2 3.28-225.488 1.56a1923 1923 0 0 1-135.043-8.99c-16.752-1.68-31.039-8.07-47.218-10.38-15.19-2.18-75.172 5.39-82.168-9.74 4.503-3.8 89.044-2.42 104.663-4.07l1.212-.14c-6.941-6.2-11.374-9.83-11.26-20.04.194-17.28 4.329-34.38 7.542-51.31a855 855 0 0 0 6.975-42.49c-8.634-6.08-15.584-12.98-18.946-23.19-8.092-24.6.018-60.69 26.835-69.68-13.54-37.61-9.561-68.44 25.921-90.34-30.459-40.831-16.174-106.024 15.414-142.163-5.719-6.139-15.349-15.005-14.489-23.839 4.142-42.583 13.452-88.801 19.272-130.93-39.543-21.392-43.947-63.622-11.288-95.828 4.903-4.836 11.693-8.141 17.812-11.38 4.721-45.677 12.096-91.825 17.724-137.434 2.072-16.793 7.705-44.616 8.192-60.535-4.327-4.147-34.25.791-43.97-4.177-7.548-9.496 4.007-48.262 3.041-61.207-3.219-9.49-24.939.196-32.01-11.553-17.01-28.269-17.205-100.9 6.625-122.682-21.977-10.519-16.46-44.547-13.639-62.877 7.557-49.099 32.063-43.678 71.377-42.829l64.697 1.587 61.193 1.638c15.624.332 38.49-.225 53.164 3.317a85 85 0 0 1 1.698-1.707c16.017-15.764 28.724-14.972 49.862-12.408 9.271 1.124 19.388 1.917 28.75 2.689l109.24 8.905c19.033 1.669 49.076 5.273 67.443 5.471 45.914-28.105 37.271-19.738 90.086-20.514"/><path fill="#fefefe" d="M1378.68 426.535c11.77.876 28.65-.596 41.96.049 1.47 24.504 9.84 60.671 13.93 85.711l36.53 213.191 34 195.6a37071 37071 0 0 0 68.47 406.944l-18.79.07c-14.72-.01-29.23.95-44.3.9-8.02-41.33-14.87-86.46-21.97-128.23l-35.99-208.101a48323 48323 0 0 1-96.79-565.748q11.475.126 22.95-.386m-751.549 1.64c14.827-.405 45.133-.341 59.536.695-12.355 101.261-31.254 204.654-47.162 305.472a25754 25754 0 0 1-101.038 593.308c-2.218 1.86-1.833 1.2-5.709 1.07-16.461-1-44.259-.35-58.018-2.12 7.703-33.24 13.459-77.93 19.665-112.49l53.826-312.08a18116 18116 0 0 0 58.85-346.591c5.693-36.534 16.927-91.906 20.05-127.264m-278.962-4.443c24.13 1.497 52.749 1.055 77.22 1.358q65.28.776 130.548 2.24c-39.332 5.864-74.392 22.116-107.961 41.815-23.09 13.55-51.873 15.684-77.448 10.319-6.9-1.448-19.155-8.552-25.059-5.326-11.27 19.609 48.288 22.122 57.117 21.945 44.557-1.301 73.325-33.828 116.104-42.709 31.626-6.567 59.783-4.502 91.953-4.156-3.971 30.203-10.068 63.031-14.974 93.349-39.868-16.178-92.542-20.297-131.184.587-21.251 11.485-37.401 28.421-62.345 32.369-18.938 2.997-29.591-5.088-46.766-10.607-3.719-1.193-5.113-.724-8.089 1.095-2.383 8.38 8.624 13.437 14.344 15.992 4.262 2.12 9.875 4.048 14.374 5.299 39.176 10.89 61.706-12.962 91.89-30.906 24.891-14.797 63.092-16.217 91.117-10.221 10.75 2.3 23.556 6.552 34.566 9.712-2.104 19.452-6.21 38.935-9.488 58.235-.957 5.633-1.981 10.482-2.148 16.251-7.714.843-30.162 3.712-34.811 9.495l.882 1.584c8.257 3.521 22.211 1.915 31.477 1.601-1.575 7.66-2.498 17.077-4.418 24.202-8.04 4.108-25.981-1.313-33.37-5.905-14.54-9.035-23.925-23.373-27.931-39.839 3.698-5.213 17.761-33.358 13.217-38.226-2.634.705-4.093 1.308-5.471 3.925-22.145 42.042-54.814 90.596-103.921 102.244-11.187 2.653-22.067 2.969-33.695 2.71-13.416-36.682-9.427-81.372-64.795-73.482 7.303-42.823 11.359-88.954 18.345-132.053 3.443-21.239 4.421-42.104 10.72-62.897"/><path d="M512.098 491.543a118.6 118.6 0 0 1 33.324.869c9.607 1.594 48.425 10.119 44.97 23.204-2.234 2.067-4.678 2.352-7.68 1.581-20.81-5.975-36.627-11.971-58.608-12.534-42.682-1.095-68.907 25.927-105.889 38.367q-1.037.32-2.081.622c-20.886 6.014-46.355 3.084-65.606-7.293-4.039-2.177-6.821-4.305-8.064-8.763.751-3.533.271-2.26 2.74-5.144 12.211-2.184 33.792 16.21 60.083 9.705 38.737-9.584 65.076-39.084 106.811-40.614m29.577 110.406c15.255.138 21.425 8.298 9.678 20.146-14.563 3.846-21.138-8.65-9.678-20.146"/><path fill="#fefefe" d="m1691.14 423.512 10.25.277a397 397 0 0 1 3.24 20.873c7.3 57.409 16.88 114.937 23.11 172.452-48.29-.672-53.29 30.549-60.71 70.218-64.3 11.114-100.1-27.285-128.56-79.427-3.29-6.025-7.25-25.419-13.32-24.408-4.1 7.592 9.04 35.644 12.83 43.427-12.57 27.399-32.04 46.542-63.62 43.418-5.67-38.879-14.66-79.393-19.7-118.201 40.9-3.837 82.95-22.702 120.63 1.736 32.21 20.892 67.69 45.015 108.5 29.214 7.49-2.904 20.37-11.671 15.54-21.197-5.71-2.155-12.89 7.483-22.92 9.94-47.14 11.546-71.33-20.308-110.21-37.405-41.87-18.412-76.58 3.727-113.82 3.372-1.86-8.195-2.87-15.656-4.06-23.95 21.54 8.275 67.28-13.273 96.38-7.177 36.92 7.736 54.79 30.175 90.58 37.621 18.37 3.82 42.28 1.648 58.26-8.437 6.66-4.087 9.09-10.326 4.18-17.116-6.11-2.371-13.61 7.874-22.54 10.55-51.19 15.336-81.45-28.112-128.19-36.848-37.71-7.05-63.3 11.804-101.35 9.319-2.77-17.947-6.21-36.549-9.22-54.535 10.05-.328 19.45.324 29.2.117 24.82-.161 69.94-2.063 91.39 11.364 40.97 25.645 82.25 50.669 132.43 30.923 7.84-3.084 17.12-8.399 11.99-18.273-3.82-1.699-5.03-.94-8.87 1.471-11.2 7.042-23.28 8.586-35.92 9.409-43.41 2.825-69-26.084-105.43-41.531-12.13-5.141-36.19-6.496-50.26-7.251 14.16-1.907 28.26-7.654 42.6-8.152 40.63-1.41 81.31-.26 121.95-.935 8.67-.144 17 .133 25.64-.858"/><path d="M1482.43 626.584c6.71 1.174 16.92 9.749 17.13 17.314-1.2 3.694-1.75 3.85-4.85 6.482-6.38-4.022-16.51-8.57-17.71-16.232.67-3.671 2.66-4.922 5.43-7.564m11.47-26.773c6.74-.601 18.85 9.028 19.42 16.555-1.71 3.874-1.84 3.169-5.38 5.867-5.76-2.461-16.99-11.176-18.4-17.684 1.07-3.224.93-2.31 4.36-4.738"/><path fill="#fefefe" d="M1606.39 884.206c2.12 2.455-.77 11.234-1.13 14.972-.62 6.37-.77 12.095-.46 18.48a115.5 115.5 0 0 0 12.53 47.736c15.82 31.359 52.91 66.906 86.35 79.966 15.63 6.11 37.96-.71 52.46-8.38 23.56 15.44 36.71 39.07 29.38 67.4-2.4 9.24-18.39 26.31-7.44 32.52 4.75-.12 5.89-3.31 11.45-5.51 2.54.19 4.6.64 6.79 2.02 6.5 4.1 9.84 13.16 11.65 20.26 2.91 11.43 3.46 25.07-3.08 35.44-4.27 6.78-10.77 10.46-18.43 12.25-13.99 3.28-29.89.39-43.54-3.49-86.33-24.47-86.3-122.34-102.93-130.98-2.51-1.31-3.65-.92-6.21-.23-9.01 11.11 16.27 46.43 13.59 55.03-6.7 1.7-19.36-1.42-25.47-4.78-12.26-6.75-17.5-20.54-21.07-33.3-1.01-5.27-1.57-11.87-6.88-14.27-13.44 7.68 6.78 49.7 18.08 56.99 16.61 10.72 23.07 11.25 41.74 9.36 2.57 4.37 4.05 7.06 6.11 11.67-10.21 5.27-15.68 7.51-26.87 10.07-5.64-2.72-12.6-4.47-17.92-6.96-27.39-12.81-31.93-60.39-41.18-83.79-2.1-1.32-1.35-.93-4.47-.48-1.61 1.05-3.77 2.7-4.24 4.55-2.42 9.59 6.34 36.83 9.82 45.63 9.63 24.43 15.15 37.56 39.02 48.63-23.98 12.02-35.26 16.86-48.57 41.01-3.19-14.09-5.87-35.79-8.37-50.57l-19.92-119.12c53.32-1.3 47.5-61.739 39.91-98.547-3.26-15.809-7.63-32.976-16.51-46.545l-.79-1.2.33-1.3c15.84-1.057 30.57-2.174 46.27-4.532m-1165.858-2.442c12.639 5.01 27.764 7.767 41.241 9.113-6.441 43.987-37.704 95.798.08 135.333 7.67 8.02 18.705 11.79 29.236 14.2a5001 5001 0 0 1-19.673 116.01c-1.467 8.22-6.066 38.54-8.098 44.68l-1.1.49c-15.626-21.99-19.723-25.54-43.864-38.23 27.471-17.79 34.935-37.56 45.464-66.98 1.595-4.45-1.13-14.7-6.124-16.97-6.953 2.52-7.626 15.65-9.881 22.29-8.279 24.35-28.407 58.16-58.359 54.82-7.512-.84-14.851-5.02-21.238-8.72l6.586-12.3c32.322 6.27 55.406-14.36 67.807-43.26 2.659-6.19 7.304-15.91 2.216-21.59-10.563-2.88-15.179 19.51-20.995 29.53-11.985 15.51-22.209 23.69-42.114 22.78 6.36-16.46 12.366-32.76 16.652-49.91 1.802-7.2 2.003-13.06-5.819-16.17-3.026.6-5.511 1.17-6.568 4.59-13.634 43.71-23.18 85.22-60.256 116.39-24.505 20.6-75.058 42.92-101.851 11.95-14.057-16.25-5.694-45.68 12.124-59.43 6.455 2.1 12.378 4.18 16.715-2.39 1.127-8.34-7-16.75-9.712-24.64-9.498-27.62 1.398-56.06 28.872-67.11 64.27 33.64 122.98-31.59 144.485-86.681 9.081-23.262 9.626-43.67 4.174-67.795m566.258-647.453c8.89.631 25.92-.924 33.21 1.062 3.89 1.059 12.57 26.323 16.02 32.657a145.2 145.2 0 0 0 26.61 34.421c23.69 22.487 67.35 40.011 100.16 38.096 21.61-1.261 45.44-5.282 66.76-9.126 19.83-3.574 40.63-4.853 58.01-16.101 10.02-6.523 16.96-16.684 25.07-25.318 4.53 27.039 10.11 44.671 37.66 53.929l-1.94 2.044-622.08.497c-31.616-.21-63.866-1.433-95.224-1.169q-36.636.533-73.273.176c-7.708-.107-22.796.113-29.925-1.217.845-.565 1.157-.722 2.205-.829 33.528-3.442 44.179-40.832 22.712-64.776-6.077-6.778-9.405-8.234-17.939-11.338-12.254 3.18-14.993 5.266-20.196 16.821.268 6.134 1.522 29.321 10.183 29.522 4.443-10.761-7.133-30.723 11.441-31.26 6.369 4.249 10.678 9.035 13.288 16.289 2.149 5.975 2.424 12.803-.531 18.568-3.088 6.024-9.695 10.354-16.072 12.294-7.393 2.25-14.881.953-21.574-2.732-11.56-6.363-20.184-18.534-23.676-31.119-2.719-9.802-2.293-20.473 2.944-29.388 5.099-8.678 14.915-14.758 24.567-17.063 8.716-2.081 17.263-.351 25.346 3.181 34.229 14.961 32.598 45.461 43.195 50.804 2.281 1.15 3.483.56 5.714-.311 6.698-6.71 8.089-20.965 12.01-30.529 4.365-11.549 13.034-23.116 24.943-27.887 21.803-8.734 47.314-2.375 56.546 20.778 5.541 13.899 4.07 27.241-1.308 40.599-6.446 15.789-24.085 29.351-41.489 21.435-19.729-8.973-22.768-43.189 1.336-48.877 3.686-.87 4.475-.306 7.295 1.553 4.71 8.147-2.226 18.732 4.524 23.204 11.864-1.08 12.285-24.624 6.471-30.759-18.824-19.861-43.991.889-47.901 23.484a40.26 40.26 0 0 0 7.367 30.691c6.227 8.554 14.727 14.15 25.248 15.71a41.6 41.6 0 0 0 30.933-7.816c12.242-9.143 20.939-27.16 22.968-42.015 11.344 12.476 19.822 21.501 35.658 28.891 24.529 11.448 50.75 11.21 77.009 14.291 16.777 1.969 29.972 4.917 47.056 4.193a105.6 105.6 0 0 0 32.245-6.525c64.115-23.495 70.499-43.372 96.424-99.035M849.578 933.53c16.588 1.127 31.167.573 46.194 9.271 8.931 5.17 15.577 12.345 21.235 20.889 19.686 29.729 33.568 65.88 51.652 97.02 7.862 13.54 54.491 85.13 55.971 92.25.76 3.68-.61 7.29-2.65 10.3-6.77 4.01-14.02-1.83-18.57-7.02-13.205-15.07-25.565-31.2-37.8-47.07a5189 5189 0 0 1-67.84-89.69c-3.873-4.75-7.729-12.42-13.442-13.34-3.363 5.29-10.746 74.98-12.163 86.8l-108.138-.13c-.211-11.06-3.602-63.51-12.419-68.54-6.125 2.34-5.763 28.75-6.208 35.76l-4.103 60.68c-.699 9.96.222 19.44-5.683 27.69.582 8.05 4.913 43.32-11.816 36.05-8.986-10.18 2.397-25.61.869-35.05-1.979-12.23-5.167-26.98-7.274-39.5-6.303-37.44-5.281-123.869 17.085-153.708a55.7 55.7 0 0 1 37.309-21.798l.751.527c3.9 17.931 14.956 33.237 34.123 36.055a35.8 35.8 0 0 0 26.887-6.917c11.376-8.492 14.006-17.502 16.03-30.529"/><path fill="#fefefe" d="M430.736 700.183c1.925 2.123-5.095 16.595-5.844 20.562-5.396 28.588.481 53.007 11.132 78.298-2.226 1.809-5.222 4.157-6.771 6.451-24.208 35.869-7.515 53.364-.084 88.81 6.22 29.669-6.95 61.395-23.691 85.262-16.989 23.584-39.809 47.784-69.845 52.534-29.65 4.69-55.239-14.16-58.413-44.233-4.038-38.257 6.318-65.778 28.728-95.616 19.836 4.318 36.535 5.693 49.883-11.762l3.546-5.917.986.265c6.233 9.497 10.617 37.757 9.406 49.043-1.427 13.298-6.128 37.709-24.854 34.619-18.007-2.972-6.746-25.773-13.378-34.409-2.815-1.464-2.914-1.459-6.141-.936-8.039 4.792-6.349 22.456-3.282 29.53 13.734 31.684 45.469 21.766 56.137-4.753 13.925-34.613-.603-66.065-13.036-97.422 4.056-16.822 34.316-82.301 22.738-95.901-7.652-2.044-8.468 3.187-10.482 9.084-10.121 5.363-28.303 10.613-30.616-6.52-3.639-26.948 19.346-33.03 33.363-50.281 19.416-.124 31.948-.785 50.518-6.708m1232.904 1.266 2.34-.526c2.62 1.711 5.34 10.387 7.36 13.989 6.61 11.834 18.83 15.241 30.59 19.127 4.25 17.574 2.86 27.78-15.66 35.149-20.66-4.669-9.77-8.806-16.65-17.265-11.1-1.273-12.27 10.306-12.1 18.58.54 25.964 6.38 52.834 25.26 71.74-9.46 29.881-24 49.802-20.92 85.054.96 20.141 20.21 47.683 41.95 46.919 18.02-.633 32-46.434 18.71-55.611-3.67-.391-2.17-.662-5.65.811-2.47 3.414-1.88 7.371-2.05 12.038 1.09 7.888-7.01 33.902-19.06 27.024-29.84-17.025-21.23-59.806-12.47-81.343 7.84 6.907 14.44 10.866 24.12 14.459a48.82 48.82 0 0 0 32.72-1.943c17.89 26.601 26.31 47.447 28.69 79.9 2.46 33.439-9.53 56.489-44.33 63.109-18.67 3.56-29.18-4.6-43.45-14.89-32.43-23.348-62.82-56.982-64.55-98.964-1.4-23.707 7.25-46.732 10.1-69.894 2.74-22.345-2.32-41.878-20.82-55.22 25.44-20.622 20.69-46.647 15.06-75.045 5.45-5.85 7.61-9.265 11.42-16.238 12.32.961 17.4.514 29.39-.96M797.386 122.447c8.283-.798 22.506-.394 31.252-.378l54.703.106 64.835-.104c11.328.006 57.904-3.104 59.784 11.451 3.64 28.096 3.63 57.651 7.42 85.771-12.23 1.145-29.037.826-41.63.933-66.768-.257-135.542.949-202.028-.212-15.286-20.253-20.629-61.138-.776-80.886 5.413-5.383 19.171-14.027 26.44-16.681m260.504-.184 121.57-.137c22.89-.047 46.96-.928 69.73.65 39.68 2.751 45.98 47.941 35.58 78.537-2.94 8.645-7.95 13.557-14.85 18.944-5.62.455-13.35.194-19.14.167l-134.29-.148c-23.86.013-59.64 1.13-82.16-1.571 4.44-9.447 6.63-74.45 6.55-87.437 6.2-6.373 8.45-7.052 17.01-9.005m133.75 810.072c2.47-.362 7.67-.34 10.37-.412 0 1.862.05 3.723.16 5.581 1.74 28.443 25.05 44.264 51.35 30.434 12.97-6.825 20.5-16.989 29.76-27.993 17.44 3.151 23.13 3.408 33.94 18.325-5.57 4.792-9.69 9.419-13.44 15.636-3.98 6.594-6.94 21.892-7.71 29.204-1.83 17.36-3.66 90.13-.14 102.87l.4 14.85-126.11.04c-.71-32.16 1.37-110.16-6.76-137.558-3.51-11.838-8.82-20.182-17.3-29.016 14.4-15.003 25.39-19.055 45.48-21.961m322.13-808.903c32.72-4.552 23.52 78.452 21.28 97.076-72.36-.943-147.12.552-219.8.345q-13.065.075-26.13-.28a105 105 0 0 0 2.85-4.631c12.36-21.494 10.39-50.466 4.25-73.615 27.82-4.016 68.04-5.84 96.53-7.949 40.37-3.248 80.72-6.896 121.02-10.946M304.541 355.97l267.548 2.02 77.868.977c12.74.134 29.311.771 41.797-.122a2634 2634 0 0 1-4.385 54.919c-5.69.978-35.945.045-43.831-.097a6378 6378 0 0 1-90.701-1.371l-158.226-1.835c-28.74-.236-67.49.613-95.492-1.551-.128-13.147 4.148-38.076 5.422-52.94"/><path fill="#fefefe" d="M528.539 124.052c11.359-1.554 68.707 4.534 82.408 5.734l141.333 11.357q-.891 2.393-1.697 4.814c-7.414 22.439-5.045 52.628 5.77 73.938l-14.111.106c-10.337-1.085-45.23-.088-57.832-.097l-115.986.108c-19.01-.05-41.663.393-60.432-.708 2.451-27.908 5.584-58.483 6.984-86.182 4.886-4.621 7.61-6.04 13.563-9.07M1704.23 356.535c6.67.855 29.79.403 36.18-.436 1.59 7.664 7.1 46.658 6.03 52.887-5.47 2.467-311.98 3.078-344.19 3.077-13.5.39-28.39.111-42 .182-.81-6.281-5.63-48.232-2.95-51.96 20.78-2.471 61.24-1.072 84.03-1.506 87.41-1.664 175.51-.329 262.9-2.244m4.35 844.635c1.32.16 14.5 5.52 16.44 6.26 24.88 9.43 39.24 12.76 64.81 7.96 4.42 4.89 10.07 66.26 10.99 76.65 1.03 11.64-3.33 29.33-18.41 30.51-14.18 1.1-27.59 1.55-41.81 1.94-36.94.7-73.9.91-110.85.62-14.51.1-29.03.08-43.54-.06-.61-6.82-2.66-17.91-3.76-24.98 10.05 3.3 21.72 8.2 32.19 7.91a35.97 35.97 0 0 0 25.3-11.63c8.69-9.46 12.25-25.2 4.75-36.45-9.11-13.67-20.16-3.82-33.09-15.85l-.96-.9c-3.63-12.74-4.31-22.49 8.45-30.33 21.31-13.08 43.4-2.07 66.27-4.2 8.28-.77 15.68-4.24 23.22-7.45m-1368.171-2.32c34.616 19.08 51.611-1.45 85.001 11.21 12.442 4.72 16.793 24.21 9.786 33.99-7.666 10.71-19.032-1.72-30.176 15.47a26.75 26.75 0 0 0-3.533 20.63c2.092 8.83 9.176 15.51 16.845 19.75 15.657 8.68 31.87 5.26 47.943.91-1.446 7.26-2.65 17.13-3.415 24.43-8.838-.24-39.612-.22-46.076-1.82-3.259.65-25.901-.22-31.282-.21-37.777.05-75.414-.67-113.142-2.66-13.742-.72-18.409-2.74-27.466-12.96-.194-20.97 10.137-68.88 13.785-93.12 31.953 10.27 53.95-.43 81.73-15.62M1752.8 131.431c18.8.018 29.69 11.627 31.43 30.464 1.45 15.582 3.82 37.639-6.25 50.572-1.41 1.809-4.78 4.856-7.23 5.487-40.02 3.363-80.39 2.259-120.51 2.5-13.79.083-28.38-.609-41.79.181l-.69.046c-13.32-.281-26.52.161-40.08-.234-5.3-30.818-8.01-52.837.63-84.002 16.95 1.155 42.76-.594 60.22-1.044 41.43-.969 82.86-2.293 124.27-3.97m-1463.874.756c13.379-.642 29.314.178 42.875.467l78.21 2.021c18.764.528 61.948.28 78.157 2.585-3.856 26.416-4.195 55.173-8.1 82.198-6.6.356-13.209.541-19.818.556-56.358-1.947-112.984.259-169.588-3.209-36.077-2.211-29.872-27.575-25.966-54.888 2.128-14.889 8.436-26.501 24.23-29.73M1173.25 1151.11c39.07-.11 84.22 1.4 123.41 2.78-.93 18.39-4.23 42.3-6.31 60.94-4.18 38.09-8.68 76.15-13.52 114.16q-22.275.075-44.55-.27c-.3-19.57-1.52-40.72-2.3-60.42-3.21-11.24 2.61-53.44-7.17-58.16l-1.9 1.15c-3.27 6.23-.52 33.67-.11 41.83l3.45 75.81-43.14-.02c-2.13-58.99-6.07-119.09-7.86-177.8m-416.526 4.05q37.771.855 75.553.78c12.175.03 31.784.54 43.514-.75.163 19.72-2.141 45.51-3.25 65.83l-5.705 108.06c-13.353.41-27.55.05-40.97-.07l3.922-73.84c.341-7.34 2.004-35.87 1.063-41.58-2.084-2.81-1.004-2.13-4.057-3.26l-2.025.99c-4.648 7.27-6.776 101.55-7.79 117.81-13.829.03-27.939.47-41.838.6-1.225-4.86-2.236-11.11-2.705-16.16-4.895-52.7-12.459-105.62-15.712-158.41M1487.5 325.643c-6.16-9.24-10.83-18.891-8.17-30.473a18.42 18.42 0 0 1 8.82-11.85c1.45-.814 2.09-.838 3.7-.96 10.26 4.983 4.06 21.198 12.18 26.682 8.08-1.141 10.36-11.505 9.36-18.435a24.78 24.78 0 0 0-9.63-16.44c-25.41-18.885-43.77 17.057-36.07 38.615 2.05 9.139 6.46 20.642 15.67 25.699 23.32 12.804 48.3-.683 61.35-21.351 21.26-33.648 11.31-73.97-31.68-81.891l-.2-.857c18.14-1.606 45.44-1.05 63.54-.345-15.68 34.255 6.46 56.284 31.19 75.617 6.46 5.049-8.39 27.545-11.8 33.799-14.05 1.821-45.45 1.41-60.66 1.288q-35.22-.317-70.44.135c-6.28.045-31.24-.219-35.86.905q-30.225.358-60.45.194l1.94-2.044c3.39-.002 13.86-.281 16.55.499a53.83 53.83 0 0 0 27.02-30.907c3.37-9.9 3.66-20.377-.98-29.941-6-12.402-20.62-23.953-34.83-16.956a22.17 22.17 0 0 0-11.6 13.652c-2.87 9.587.05 16.466 8.39 21.609l2.18-.057c4.64-5.835-1.3-22.662 9.22-23.868 7.66-.879 17.31 12.034 17.35 19.143.09 13.4-8.94 26.387-19.71 33.719-29.12.467-37.79-22.267-38.02-47.579-.41-44.357 38.69-57.107 68.66-27.452 13.04 12.905 15.51 42.376 23.13 48.442 10.96.743 17.96-19.325 22.59-27.727 13.08-23.77 52.56-40.069 73.58-16.383a33.7 33.7 0 0 1 8.46 24.165c-1.57 25.477-27.09 55.579-54.78 41.353"/><path fill="#4c4c4d" d="M1370.29 343.931c3.39-.002 13.86-.281 16.55.499 8.48 1.171 38.79-.585 41.96 1.351q-30.225.358-60.45.194z"/><path fill="#fefefe" d="M288.536 231.253c11.45-1.036 49.056.007 61.745.324-3.152 10.735-13.782 77.579.351 79.999 7.33-5.66 11.971-35.992 13.07-45.741 12.511 4.83 63.837 15.23 69.199 25.934l-.705 1.639c-11.639 8.655-47.682 20.025-63.102 21.154-18.229 1.335-45.828-6.523-61.919-15.733-3.115-1.783-15.616-12.45-19.389-15.598-3.396-.272-1.927-.683-4.631.95-1.191 3.171-.647 3.929.296 7.409 16.737 27.291 36.986 36.152 67.413 40.786 25.452 3.877 51.134 2.711 74.031-10.005 1.105 8.31 1.044 13.785 1.051 22.125a4306 4306 0 0 0-83.362-1.321c-17.548-.078-58.381 1.178-72.936-2.645-12.489-17.741-11.933-76.772-2.417-96.668 3.153-6.592 14.675-11.017 21.305-12.609"/><path d="m377.782 286.14 1.154 1.844c-.251 6.11-1.352 10.364-5.178 15.083-7.005-7.894-5.828-13.803 4.024-16.927"/><path fill="#fefefe" d="M1056.09 234.385c14.91.585 30.67.217 45.62-.11 10.74 5.631 31.23 19.27 42.57 26.245-.67 4.658-1.08 8.42-1.42 13.114-6.18 3.424-34.32-5.618-42.65-6.87-.56 2.239-.44 1.451 1.06 4.124 9.81 7.12 30.74 9.445 42.68 9.257 7.92 23.694 43.36 45.171 57.88 15.108-.98-7.314-1.48-18.026-9.81-20.521-6.74 2.763.08 23.129-8.03 23.214-12.3.129-25.05-12.039-28.27-24.095-.82-10.483 5.06-17.85 14.79-21.196 14.85-4.589 32.52-3.524 47.21 1.989 16.29 6.118 26.85 30.204 20.44 46.194-4.25 10.6-20.55 18.445-31.09 21.406-31.85 8.949-65.19 2.844-93.18-14.265-30.31-16.901-48.15-40.674-57.8-73.594m-103.857-.211c4.913 1.505 30.86-.33 40.061.128-17.741 45.357-36.897 68.505-83.298 84.83-18.529 6.519-34.052 9.693-53.932 6.095-21.525-3.895-51.143-13.999-46.067-41.57 5.887-30.01 38.784-38.61 65.421-32.325l1.096.265c26.406 12.649 11.842 52.906-14.113 44.938-4.377-1.343-4.586-16.43-5.694-21.146l-2.469-.335c-30.146 31.974 34.301 56.607 48.002 7.836q1.116-.082 2.231-.183c11.973-1.06 37.088-4.469 44.968-13.964l-.197-1.478c-1.878-.244-38.152 8.176-46.43 9.245.537-4.884.891-9.787 1.061-14.698 16.062-9.376 32.984-18.113 49.36-27.638m91.907 123.25 1.99 1.716c2.55 10.028 3.28 34.819 3.96 45.76 2.2 35.556 2.82 71.22 3.86 106.802a9881 9881 0 0 1 5.26 445.935c-.04 21.506 2.02 118.853-2.93 133.093-1.19 1.87-1.26 1.77-3.09 3.1-2.32-3.62-1.5-45.15-1.73-52.63-3.18-99.743-5.49-199.509-6.91-299.289-2.28-81.861-3.88-163.74-4.8-245.628-.04-20.022.26-127.995 4.39-138.859M360.26 232.101c48.047 1.314 96.46.302 144.53 1.136 10.961.19 23.25-.047 34.073 1.456-18.06 3.84-34.609 10.919-41.665 29.309-8.613 22.446-.514 51.137 17.355 66.831 8.01 7.035 17.433 10.167 27.118 13.972-11.077.541-24.259.177-35.501.129-12.383.271-54.914.352-65.095-1.275-2.227-1.86-4.03-31.029-4.605-36.424l1.121-1.365 3.534.157c18.272-10.172 41.302-38.767 34.497-61.022-.574-1.878-.849-1.44-2.517-2.121-6.129 2.643-8.976 20.188-13.307 26.396-4.734 6.784-7.565 9.182-13.715 14.715-19.086-14.269-33.73-20.122-56.819-25.733-8.085-1.964-18.487-4.692-26.049-7.922-1.271-5.328-2.137-12.678-2.955-18.239"/><path d="m443.103 243.269 3.148 1.5c4.983 6.268.713 11.864-2.706 17.868-1.935.348-1.004.247-3.301-.8-2.821-5.386-.113-13.638 2.859-18.568m-25.082-2.131c3.906 1.039 2.922.174 5.037 2.895 1.126 5.89-1.766 10.121-4.608 15.208-8.155-2.78-2.67-12.134-.429-18.103m-19.661.261c6.679 3.064 3.793 10.093.822 14.822-3.776-3.275-3.54-2.705-4.691-6.79.667-3.855 1.64-4.88 3.869-8.032"/><path fill="#fefefe" d="M1710.67 232.454c18.28.058 49.96-1.887 65.58 9.144 4.15 2.935 7.78 13.16 8.31 19.465 1.84 21.693.05 58.631-10.92 77.855-2.05 3.226-8.07 3.993-11.48 4.042-47.61.677-95.21-.148-142.81 1.182-2.67.075-4.71-.672-6.69-2.367-1.75-5.211 4.67-16.025 7.29-21.518 33.03 21.661 113.02 28.568 134.52-12.341 2.7-5.126 6.74-16.518 4.97-22.171-5.01-.527-33.21 41.017-49.7 32.909-1.66-3.25-3.61-17.866-3.98-22.113-1.53-17.517-9.31-49.166 1.83-63.744z"/><path d="M1722 286.478c4.58.844 11.43 11.648 4.68 17.736-6.69-1.509-9.68-6.523-9.75-13.049 1.47-3.289 1.34-2.4 5.07-4.687"/><path fill="#fefefe" d="M1202.43 816.057c14.58 6.588 26.06 9.747 41.59 12.885-2.29 7.056-13.06 35.335-6.4 40.406 7.94-1.36 12.01-11.74 21.69-10.126 3.31 2.05 3.96 3.938 4.98 7.581 5.95 17.529-14.8 20.411-20.37 30.69-7.82 14.435 20.01 29.248 28.84 33.868-2.9 10.867-3.15 12.315-10.87 20.33-13.28 13.369-37.42 20.794-47.97-.166-5.6-11.127-2.27-21.425 1.53-32.248-14.86-.86-24.34-1.868-38.07-8.029-.36-10.774 1.54-17.598 4.68-27.961-1.4-1.379-5.73-5.152-6.47-6.48-8.02-14.427-.82-20.295 12.74-17.981 4.58-12.988 6.32-32.329 14.1-42.769m-353.818.879c5.252 2.278 12.495 33.623 14.981 40.819 21.871-2.529 16.462 12.978 5.925 24.36 1.301 5.812 5.525 23.013 4.232 27.684-2.574 9.295-27.448 6.395-34.555 10.913-1.938 5.061 1.461 12.063.858 17.529-3.122 28.275-34.498 32.048-52.145 14.045-3.382-4.278-4.774-7.934-6.715-13.129-6.616-17.705 20.658-13.628 25.215-27.682 8.903-27.451-13.145-19.936-21.25-34.306-1.066-2.913-.966-8.491.646-11.036 6.214-9.817 12.15-6.239 19.746-1.909 1.523 3.974 2.34 8.273 6.588 9.591 11.348-5.735-.362-34.848-3.287-44.24 13.84-1.744 27.207-6.769 39.761-12.639m291.198 144.91c11.55 7.178 17.67 24.932 19.04 37.771.99 9.713-6.23 21.803-11.97 29.493-31.33 41.94-63.58 90.64-98.23 129.62-13.71 12.08-22.32-2.81-12.48-18.38 36.84-58.31 65.42-121.07 103.64-178.504m575.43-330.787c11.11-.705 17.8.586 27.99 6.81 18.29 11.174 35.2 45.69 22.42 65.533-6.58 10.213-21.81 13.163-33.41 15.3-59.8 4.407-59.98-20.249-40.75-70.922 3.57-9.407 14.51-14.218 23.75-16.721M762.399 1100.41c35.575-1.35 76.174-.75 111.941-.48 3.489 8.63 16.672 39.99 13.982 47.06-2.875 1.42-11.431.71-15.164.61-41.23.59-86.331 1.54-127.303.3 3.553-13.16 11.786-34.18 16.544-47.49m417.491-866.983c15.92-.081 32.19.481 48.19.579 14.89.091 32.24-.617 46.89.6 3.25 11.918 5.25 19.375 12.56 29.45 5.22 2.35 12.06 6.451 16.8 1.923-.11-5.668-10.87-10.58-12.91-14.462-2.05-3.911-4.99-13.126-6.46-17.543 22.41-.385 45.83-.037 68.32-.041-6.93 6.35-12.13 15.227-17.1 23.205-27.52 50.738-36.95 53.082-92.38 60.369 18.94-32.04 5.45-67.332-29.52-79.185-7.94-2.694-25.8.078-33.55-2.578zM331.904 630.345c28.365.162 33.973 42.83 38.861 64.325-12.049 22.825-29.183 22.729-52.518 23.826-6.393.833-17.136-2.94-22.421-6.721a36.9 36.9 0 0 1-14.713-24.14c-5.068-31.322 22.402-52.922 50.791-57.29m204.274 249.711 2.079-.047c.915 2.886-21.977 133.451-24.898 148.271-10.68-3.66-13.886-5.1-22.665-12.11a56 56 0 0 1-3.159-3.5c-25.3-30.795 1.804-82.963 5.824-122.2 16.165-2.95 27.233-5.34 42.819-10.414"/><path d="M507.768 935.394c1.654.374 3.241.941 4.86 1.463 6.201 6.273.245 18.435-3.649 24.646l-2.464.28c-7.05-4.218-1.379-20.054 1.253-26.389m-6.173 48.899c11.367 1.521 8.298 13.969 3.99 20.777-3.851-.27-3.868-.74-6.004-3.06-2.015-6.295.13-11.515 2.014-17.717"/><path fill="#fefefe" d="M381.183 1159.6c17.79 9.61 22.199 8.77 40.972 13.04a74.62 74.62 0 0 1 42.183 26.81c3.671 4.78 13.751 21.44 13.672 26.76-.256 17.08-6.277 38.98-8.523 56.38-17.914 11.3-31.21 12.08-50.208 3.22-9.603-9.29-6.703-13.42.076-23.38 13.412-.79 24.217-2.31 29.48-16.85 2.798-8.58 3.519-25.36-1.434-33.2-21.354-33.79-63.735-11.73-95.046-22.05 11.715-10.88 19.221-17.95 28.828-30.73M1511.24 881.447c11.21 2.755 20.39 4.876 31.75 6.804 17.32 15.234 22.36 57.209 25.29 79.404 2.18 16.513.26 32.226-9.1 46.295-4.44 4.27-16.28 10.56-22.22 7.67-2.79-4.27-23.35-127.296-25.72-140.173"/><path d="M1535.32 931.289c6.18.742 7.6 6.765 8.98 12.293 2.36 9.49 7.58 27.452 2.86 36.067-6.27-4.653-13.99-42.035-11.84-48.36m10.7 56.938c9.38 1.536 7.24 9.633 5.48 16.493-3.2-.41-3.52-.3-5.78-2.38-2.76-5.257-1.38-8.661.3-14.113"/><path fill="#fefefe" d="M1319.35 967.658c1.97 2.178 4.21 9.21 5.03 12.35 10.31 39.532 12.23 81.242 9.94 121.882-1.17 20.74-7.8 39.1-8.11 59.15-.03 2.22 2.43 9.62 3.21 11.98-1.9 7.08-2.4 10.35-8.18 15.23-3.54-1.94-8.85-4.18-8.99-8.9-1.42-50.13-8.65-99.97-9.15-150.14-.22-22.42-.56-44.467 16.25-61.552m346.37 193.422c5.33.64 10.57 10.28 14.53 14.19 4.87 4.82 9.86 9.24 14.97 13.79l-.01 1.41c-7.71 5.56-30.48 2.58-40.06 1.45-39.24-4.64-78.31 23.34-52.01 63.57 4.52 6.93 22.37 10.42 30.4 12.2 1.81 4.49 2.4 5.96 1.37 10.6-10.77 26.99-39.83 13.3-55.23-.72-4.28-18.27-9.87-45.93-3-63.4 13.48-34.3 59.67-39.39 89.04-53.09M779.612 233.551c13.197-1.039 62.546-.446 75.654.977-12.184 2.39-25.964 5.692-36.322 12.718a53.5 53.5 0 0 0-22.308 34.203c-2.317 12.445.976 25.753 8.197 36.065l.709.402-.604 1.043c-2.211.05-3.449.009-5.578-.28-38.494-5.238-51.499-10.986-74.426-41.015 23.74-8.711 36.477-19.413 46.596-41.833 1.077-2.386 5.361-2.009 8.082-2.28m438.278 562.491c16.21-.048 44.49 7.933 55.33 20.393 13.54 13.991 12.38 32.408 17.25 49.022 4.72 16.135 16.33 15.655-2.68 32.049 7.04 25.128-4.64 21.829-23.52 15.93-7.41-4.195-9.45-7.423-9.87-15.813 4.44-2.29 8.78-4.175 12.36-7.666a25.15 25.15 0 0 0 7.57-18.492c-.24-17.489-12.83-21.954-27.59-20.743 2.23-8.21 6.36-16.361 7.8-24.511-4.38-11.751-46.57-10.649-45.31-23.574 2.61-3.502 4.89-4.409 8.66-6.595m-398.043 4.338c11.75-1.324 15.156-.466 23.828 7.416-13.408 6.209-31.478 10.802-45.698 14.488 2.48 8.575 6.842 21.652 8.006 29.989-1.585 1.742-34.672-7.432-30.056 23.618 3.256 21.898 33.866 14.68 19.013 35.832-6.324 3.451-31.748 11.379-35.02-.87-2.336-8.744 10.723-4.651 9.589-13.627-4.457-5.626-16.472-1.61-17.224-14.463-1.528-9.157 7.377-16.805 9.436-24.419 9.682-35.811 16.502-53.371 58.126-57.964m792.493-566.845c28.91-.599 57.95-.024 87.08-.653-15.83 9.456-35.53 22.384-51.32 30.67-14.8 5.807-27.84 11.295-41.5 19.315-7.98 4.686-18.96-10.403-22.23-17.123-6-12.354-8.88-17.895-4.87-31.796z"/><path d="M1606.57 250.88c4.05.275 8.35 5.848 7.58 9.875-.58 3.093-3.13 3.912-5.53 5.495-5.22-.403-7.47-4.607-7.06-9.525.25-2.933 2.86-4.168 5.01-5.845m22.97-9.279c7.69 4.74 8.12 9.117 2.65 15.613-5.22-2.615-6.37-3.153-7.26-8.639.94-3.744 1.77-4.269 4.61-6.974"/><path fill="#fefefe" d="M1559.92 683.816c13.31 14.032 31.94 99.167-10.69 88.489-21.88-19.592-14.21-37.689-19.86-60.511l-.3-1.165c14.12-10.232 19.19-13.936 30.85-26.813m-40.69 31.212c1.57 1.969 1.06 20.778 1.21 25.015.48 13.83 5.31 24.686 12.14 36.445-5.12 19.847-13.03 31.529-32.17 40.081-3.36-4.898-13.9-75.912-15.61-87.216 16-4.232 20.08-6.048 34.43-14.325m-989.814.457c14.448 5.638 21.731 7.563 36.815 7.754-5.541 23.041-10.901 58.533-14.687 82.512-.751 2.322-.076 1.42-2.093 2.794-4.867.17-11.963-1.877-16.924-3.068-27.291-33.026.051-50.698-3.111-89.992m-43.39-29.856c3.802 4.1 7.44 7.483 11.364 10.652 3.343 2.7 20.364 13.362 21.189 15.843 4.882 14.694-9.416 44.532-12.37 60.082l-.187 1.137c-2.163 1.216-10.317 1.112-12.511.394-36.063-11.809-12.993-63.545-7.485-88.108m19.354-48.939c15.672 32.595 33.059 42.786 67.734 46.708-1.775 9.374-3.464 18.235-4.756 27.691-6.978.022-9.267-.234-16.165-1.504-28.624-5.746-48.807-25.225-69.356-44.131a664 664 0 0 0 22.543-28.764m1177.15-369.781 1.13.407c1.38 2.053 6.03 47.837 5.55 52.356l-1.34.798c-10.3.42-35.19-7.118-45.37-10.612-9.04-2.549-15.17-5.327-23.35-9.793 11.25-21.692 8.24-14.819 29.4-17.946 7.92-1.172 26.55-11.039 33.98-15.21"/><path d="M1669.81 292.484c4.7.539 6.05 1.28 7.81 5.574-.17 3.98-1.04 4.632-3.43 7.935-3.18-2.291-4.41-2.949-6.86-6.096-.47-4.138-.03-3.344 2.48-7.413"/><path fill="#fefefe" d="M1544.75 643.672c3.44 3.014 11.51 14.058 15.55 18.376-19.35 25.375-37.81 40.297-68.2 51.22-3.82 1.027-5.14 1.471-9.17 1.498-3.44-3.374-5.07-24.934-5.35-30.485 33.77 1.984 48.79-15.798 67.17-40.609M1169.1 1128.23c42.56-.12 87.99.88 130.1.01-.02 5.98-.29 11.75 1.04 17.58-43.2.12-87.68-1.81-131.49-1.92zm568.98-395.832 1.56 1.619c2 10.652 4.32 20.626 1.43 31.402a48.55 48.55 0 0 1-22.43 29.203c-13.06 7.454-25.57 7.547-39.68 3.621-4.73-3.176-4.38-13.94-4.96-19.533 13.21 4.057 24.66 4.704 35.19-6.306 10.73-11.223 10.05-23.778 9.7-38.299 7.88-.038 11.38-.445 19.19-1.707m-1404.074-.894c.602-.127 2.232-.118 2.921-.136.988 3.842-3.758 13.033-3.108 21.681.225 10.073 1.269 14.285 7.311 21.955 7.51 9.535 29.122 3.542 33.035 7.434-3.142 12.932-7.323 14.8-19.412 16.672-20.695-1.511-32.938-14.911-48.283-27.08 1.906-14.011 4.082-25.858 6.803-39.66zm106.338 82.208c3.819 3.658 3.71 5.365 8.85 8.143 27.892 15.073 59.26 10.517 87.825.232 3.727-1.341 7.831-2.247 11.472-.202l.479 1.882c-1.692 4.484-8.35 7.842-12.415 10.229-26.434 15.983-74.293 20.107-100.65.625-7.138-5.275-.746-16.28 4.439-20.909m1065.036 33.66c27.63 13.979 78.97 8.016 108.16 5.015-.97 4.864-1.65 10.424-2.36 15.39-1.02.892-2.55 1.531-3.83 1.789-26.46 5.34-75.22 7.913-99.06-5.043-1.42-5.097-2.16-11.784-2.91-17.151M296.847 836.504c22.476 15.783 33.843 14.984 58.747 6.148-3.9 9.215-5.001 19.995-9.346 28.661a23.04 23.04 0 0 1-10.012 8.619c-16.707 7.59-35.88-3.968-42.849-19.774.322-5.927 2.456-17.358 3.46-23.654"/><path fill="#fefefe" d="m541.396 844.713 2.244.659c1.497 4.759-1.679 13.354-3.168 18.126a134.7 134.7 0 0 1-44.473 12.131c-23.393 2.376-44.2-.197-62.907-15.481-2.273-4.345-3.76-10.538-5.12-15.38 11.915 7.478 20.651 11.877 34.832 14.66 22.301 4.378 59.741-1.484 78.592-14.715m1204.194-57.786c2.13 2.779 4.95 37.959 5.8 44.523-23.32.719-28.84 9.888-58.3-.494-6.13-4.916-8.97-11.559-12.43-18.462 27.65 6.659 47.76-4.325 64.93-25.567m-1440.872.955c3.325 2.173 9.608 7.689 13.11 10.24 18.452 13.447 26.039 13.676 47.137 12.818-1.398 4.889-2.55 7.839-4.475 12.549l-7.784 5.67c-22.364 12.851-35.059 7.057-53.617-7.354 2.3-10.844 2.961-22.117 5.629-33.923m133.964-67.361c3.819 2.79 7.572 5.234 11.645 7.257 18.26 9.075 7.189 10.665 11.256 25.558 2.7 9.884 6.431 16.098 12.454 24.253l-9.463 8.28c-4.541 3.966-9.891 5.803-15.452 7.882-9.999-25.144-18.384-44.243-10.44-73.23m1148.738 2.901c9.41 3.822 15.57 2.938 25.48 1.741 3.13 21.905 6.27 46.25-15.25 59.308-3.08 1.045-6.84 2.024-10.01 2.945-6.81-1.845-8.01-2.135-14.08-5.686 16.48-17.955 18.56-34.651 13.86-58.308m163.03 119.659.84.198c2.12 2.761 2.7 7.928 3.45 11.576-7.05 24.988-32.75 30.002-53.54 18.147l-9.45-10.237c2.05-4.859 3.81-10.196 5.56-15.198 23.06 2.931 31.58 3.706 53.14-4.486m-140.82-23.065c5.7-.06 5.27 13.456 5.59 18.111-47.65 6.669-56.72 8.11-103.41-1.018-4.76-1.235-10.18-2.298-8.81-8.22 2.71-3.281 6.61-3.859 10.87-5.168 33.49 11.068 63.13 7.556 95.76-3.705M505.904 780.99c6.387 7.057 1.656 19.471 19.49 33.141a126.1 126.1 0 0 1-52.151 2.401c-6.206-1.276-13.869-1.737-16.783-7.815 2.292-6.987 21.932-14.616 29.047-23.904 9.911.369 12.024 1.086 20.397-3.823m905.886-547.787c5.11.934 14.88.137 20.29.416 17.06.88 47.06-1.454 62.65.783-.4 1.434-14.56 6.336-17.49 8.228-3.39 2.203-6.34 4.025-9.77 6.53-13.19 9.366-18.04 18.759-24.97 32.802-9.3-24.934-12.12-30.486-31.84-47.472zm-842.677.339c11.951.776 58.939.329 70.213-.282-14.929 9.478-18.785 13.322-27.33 28.582l-6.632 16.099c-11.712-23.178-30.238-35.675-54.267-43.791 5.815-.362 12.152-.429 18.016-.608m124.363-.179c9.19.149 62.796-1.172 66.019 1.48-.956 6.25-5.646 12.562-9.345 17.573-9.863 10.917-16.864 14.368-31.172 16.58-7.255-17.089-10.944-24.089-25.502-35.633m848.494 550.805c5.48 1.912 15.13 3.613 21.09 4.846 7.93 10.426 21.27 10.733 32.99 11.229 1.86 1.836 5.9 4.705 8.13 6.398-7.44 3.353-9.94 4.225-17.96 6.238-22.11 4.223-36.56 5.666-59.34 1.183 10.46-11.56 11.62-14.829 15.09-29.894M936.539 674.307c.627.283 1.852 1.27 2.468 1.725 3.808 10.478-8.931 61.398-11.853 74.725-1.598 7.292-2.517 11.584-8.838 15.362-1.228-1.234-3.321-3.617-3.566-5.155-2.087-13.126 17.2-78.324 21.789-86.657m630.081-2.96c10.1 3.608 28.73 23.849 42.31 25.844 3.58.526 9.87 1.457 11.2 4.755-1.4 3.111-3.84 4.552-6.58 6.731-9.76 6.817-23.09 5.62-30.57-4.403-6.37-8.539-10.46-19.928-16.76-28.798 0 0 .36-3.76.4-4.129m-1093.558 4.517 1.038 1.23c.64 7.464-8.193 35.081-11.073 43.062-4.672-2.806-11.233-5.957-16.19-8.519-6.374-4.552-6.717-5.779-8.99-13.276 16.387-8.256 20.848-11.043 35.215-22.497m308.38-260.285 1.234 1.239c2.917 10.034-10.722 58.305-15.7 69.924-2.513 5.864-2.621 7.984-8.517 10.609-.977-.932-2.845-2.72-2.828-3.996.219-16.121 18.474-66.346 25.811-77.776m56.875 104.114c6.862 10.997-4.036 52.735-9.789 64.558-1.998 4.106-3.364 4.531-7.19 6.28-2.361-2.727-2.684-3.012-4.189-6.225.459-8.523 16.56-56.089 21.168-64.613M1180.2 399.369l1.77 1.447c2.24 6.545-7.28 58.876-11.15 68.04-2.02 4.785-3.31 5.211-7.84 7.1-.74-1.081-2.52-4.238-2.5-5.212.27-13.264 14.09-61.715 19.72-71.375m45.18 201.039c.63.384 1.92 1.575 2.54 2.115 2.14 7.489-5 48.456-6.77 58.274-1.11 6.163-2.04 9.594-7.34 12.976-1.04-.771-3.36-2.6-3.64-3.671-2.95-11.28 11.19-59.821 15.21-69.694m93 87.822c5.83 1.949 4.14 11.345 3.42 16.191-2.05 13.92-3.24 28.331-6.96 41.896-.41 1.49-3.86 4.138-5.11 5.124-1.57-.809-3.74-1.535-4.07-3.187-2.08-10.387 9.38-52.045 12.72-60.024M1127.4 233.497c8 .08 36.99-1.892 40.57 4.548-1.63 3.152-2.99 3.145-6.47 5.139-3.69 1.832-6.39 4.151-9.64 6.664-5.11-3.724-22.78-13.671-24.46-16.351m-244.408-.017a640 640 0 0 1 19.499-.146c-2.514 6.081-3.803 12.292-9.316 14.586-3.857-.485-6.502-3.631-9.592-6.382-7.85-4.443-16.346-4.469-25.401-7.019 1.35-.937 21.55-.975 24.81-1.039m34.484-1c3.744.699 4.785.598 8.462.357l1.065-.076.632.964-2.936 1.708a65 65 0 0 1-2.75 1.51c-2.379 1.214-4.771 2.434-7.322 1.593-.22-2.755.933-3.309 2.849-6.056"/><path d="m1895.54 770.31 3.4.695c12.73 11.684-14.07 116.485-25.19 131.47-2.67 1.044-3.81.449-6.15-.747-2.72-3.892-1.28-14.174.02-18.22 6.85-21.309 17.23-100.974 27.92-113.198m-25.38-288.853c2.73.26 2.64.315 4.94 1.508 11.4 14.498-11.42 96.265-21.7 112.531-2.19.361-2.11.203-4.23-.578-6.86-10.106 12.19-101.761 20.99-113.461m28.9 461.952c12.96 4.171 4.02 29.609 1.8 39.538-3.72 16.641-7.7 35.563-19 48.743l-2.58-.11c-8.53-10.2 10.28-79.169 19.78-88.171M198.402 213.368c15.825 4.19 3.947 31.279.778 41.451-4.566 14.658-10.372 29.572-18.569 42.587-3.673-.162-8.982-2.046-8.32-6.199 3.105-19.476 15.782-61.923 26.111-77.839m-38.104 482.967c17.85 5.743-4.692 58.054-10.558 68.755-2.216 4.043-4.376 6.227-7.987 8.999-10.86.987-.682-26.697.954-31.452 5.137-14.938 9.463-32.846 17.591-46.302m21.45 316.055c6.044 3.05 8.333 6.64 8.072 13.75-.622 16.94-9.799 46.88-21.443 59.23-2.127.41-2.11.18-4.161-.69-7.223-9.03 10.355-65.07 17.532-72.29m20.1-148.941c6.637 3.757 6.572 8.415 5.75 15.67-1.84 16.241-9.605 51.978-21.687 62.402l-4.675-1.908c-5.531-8.973 12.895-68.714 20.612-76.164m61.548-374.231c10.798 2.868 9.166 14.775 7.186 23.399-3.872 16.874-10.066 36.937-19.534 51.381-10.772.564-8.14-14.232-6.007-20.477 5.691-16.668 10.101-39.082 18.355-54.303M1901.3 130.351c1.84.038 2.44.488 4.13 1.241 10.22 14.033-8.27 61.455-15.91 76.071-.98 1.023-1.17.84-2.68 1.423-7.38-5.785 7.83-70.021 14.46-78.735M208.584 392.498c6.014 2.077 6.908 7.423 6.155 13.012-1.658 12.313-13.885 46.51-23.173 54.166-10.006-4.171-3.216-18.842-.321-26.192 5.173-13.135 8.71-29.884 17.339-40.986m1618.506-80.139c3.26.69 1.9-.028 4.31 2.08 6.39 15.875-10.6 64.885-17.03 81.199-1.69.615-.81.411-3.01-.218-2.16-4.228 2.8-32.897 3.78-39.78 1.84-12.926 5.49-32.108 11.95-43.281m-12.16 412.139c15.36 3.342-11.53 73.092-16.37 83.145-.46.08-1.99-.098-2.53-.142l-1.07-1.988c.91-15.717 12.4-67.595 19.97-81.015"/></svg>