<svg xmlns="http://www.w3.org/2000/svg" preserveAspectRatio="none" style="display:block" viewBox="0 0 2048 1462"><path fill="#fefefe" d="M0 0h2048v1462H0z"/><path d="M1222.69 96.446c8.7-.438 29.18-3.912 30.27 8.346 4.88 54.882 3.99 111.112 9.05 165.928 3.47 1.484 6.12 2.28 8.83 4.88v2.898c-1.41 3.157-2.62 3.685-5.46 5.688l-1 .699c-1 4.944 2.55 60.328 3.08 69.489l12.44 10.247c-2.1 3.37-3.26 5.183-5.87 8.317l-3.83-.501c-1.4 2.305 6.06 115.122 6.9 128.997 8.12 5.713 15.79 12.143 23.51 18.403 1.64-30.612 7.74-88.62 7.97-120.984.02-2.868-14.6-8.551-16.62-13.591l1.42-2.347c-5.22-.26-9.46-.522-13.78-3.524-2.51-4.578-1.5-8.414 3.09-11.256 11.18-1.491 12.52 12.207 14.3 13.656l1.89-3.935c2.44-.231 8.73 3.277 11.48 4.576.72-9.294 6.24-69.79 5.18-73.767-2.34-1.373-3.47-1.7-4.6-4.156.59-4.18 2.66-6.142 5.62-8.975 5.96-5.716 6.75-136.181 15.96-145.449 2.63-2.655 5.45-3.291 9.08-3.171 24.6.817 51.48 4.996 76.26 7.148q98.22 8.144 196.32 17.806l206.89 18.358c25.17 2.173 50.34 4.473 75.49 6.899 8.19.771 16.33 1.032 24.51 1.758 3.57.317 7.22 1.908 9.66 4.546 3.31 3.564 2.12 7.494 2.26 11.908-.92 24.642-3.84 49.19-5.97 73.726l-9.75 116.029a23080 23080 0 0 0-20.7 251.961 8839 8839 0 0 0-7.76 98.909c14.59 22.689 27.73 66.863 31.2 93.421a249.7 249.7 0 0 1 1.24 48.275c-2.21 29.832-9.2 61.088-12.5 91.04a10076 10076 0 0 0-16.76 173.472c-2.72 30.01-5.28 60.11-8.77 90.04-.49 4.18-2.44 7.73-6.62 8.04-16.82 1.25-34.62.77-51.42.69l-87.16-.5-134.49-.47c-25.12 0-50.34.2-75.45-.06-3.18-.04-9.26-.09-11.52-2.25-3.95-3.51-4.15-8.27-3.77-13.29 3.63-47.36 9.47-94.55 13.76-141.85 4.39-48.36 3.8-96.64 3.42-145.135-13.58-7.159-36.08-15.759-50.85-22.478-38.16-17.385-77.07-34.139-113.46-55.091-25.17-14.493-47.75-23.934-56.58-53.794-14.81-50.092-16.13-102.331-17.72-154.161-.37-11.969-1.23-24.412.5-36.244.4-2.774 3.18-6.036 4.94-8.2-2.95-3.586-6.43-7.101-9.65-10.492.31 12.4 1.13 25.371 1.73 37.805-63.47 2.097-129.24 7.9-193.18 10.338-5.33 16.145-8.1 27.122-21.03 38.23 2.32 15.362 4.89 31.066 6.61 46.478 42.32 8.21 69.4 13.509 110.24 29.198 33.93 12.924 74.85 33.186 98.05 61.977 40.17 49.866 83.76 235.779 96.51 301.959 2.99 15.52 9.35 38.14 7.5 53.4-4.23 34.81-44.29 89.74-71.86 111.17-20.38 15.85-43.06 20.17-68.29 16.9-.11 13.01 6.05 32.08-12.46 32.42-21.13.39-42.18.32-63.31.3l-122.29-.17-205.717.13c-29.741-.04-59.54.15-89.257.05-3.632-.01-13.584-.21-15.391-2.37-4.801-5.73-2.832-40.52-2.766-46.45a78.87 78.87 0 0 1-49.464-2.34c-44.001-16.7-80.76-68.73-99.474-110.46-89.951 12.75-183.639 22.64-274.076 34.1l-95.549 12.19c-15.109 1.84-31.494 4.25-46.625 4.68-2.451.07-6.1.09-7.232-1.97-3.651-6.63-4.755-16.37-5.778-23.55a32819 32819 0 0 1-45.949-359.023L99.347 719.278C97.32 704.116 87.22 638.657 89.7 628.52c7.026-8.225 45.4-10.414 58.537-12.368-.958-31.946-6-76.038-8.691-108.7L124.81 317.427c-2.215-29.094-4.747-58.193-6.388-87.32-.431-7.639 2.944-13.729 11.15-14.791 16.281-2.109 32.864-2.986 49.241-4.396l109.367-9.054 210.623-17.273c70.601-5.259 147.762-10.136 217.746-17.39-.821-10.943-5.87-38.146-.243-45.765 7.41-4.076 75.852-5.575 89.651-6.09l130.901-5.34c14.398-.608 16.393-3.487 29.732-5.386 3.108-.442 14.052 3.252 18.888 3.033 26.522-1.196 53.242-2.574 79.752-3.844z"/><path fill="#fefefe" d="M987.69 764.426c83.65-5.619 221.58 24.782 282.88 86.023 22.43 22.413 46.61 104.096 56.06 136.638a1801 1801 0 0 1 35.15 136.433c2.78 12.48 13 59.9 11.34 70.4-4.48 28.42-35.52 72.91-57.63 92.13-10.18 10.66-39.24 24.73-54.6 18.76-34.98-13.58-28.72-.03-27.84 32.05l-236.55-.94-233.503-.03c.464-12.08 4.074-43.38-2.382-51.9-4.019-5.31-29.282 5.81-38.23 6.81-43.892 4.92-113.106-80.71-113.333-119.47-.299-50.88 38.882-118.82 54.178-168.32 14.919-47.776 26.001-107.361 60.323-146.103 59.184-65.358 180.808-87.468 264.137-92.481M644.543 579.493l2.042.018c3.549 5.509 35.543 275.382 38.127 300.177-9.602 15.753-14.423 30.178-21.02 47.278-1.121-8.923-.723-32.463-8.139-36.679-9.69.07-21.977 2.344-31.913 3.595l-57.62 7.157-76.229 9.536c-16.259 1.991-38.906 3.955-54.061 8.371-.965 9.883 3.043 30.738 4.555 41.244l8.098 58.75 12.168 92.61c1.881 13.97 3.698 28.19 5.789 42.12.676 4.51.735 5.13 3.489 7.85 10.712 2.38 101.684-10.38 119.689-12.88-1.896 10.29-2.173 16.67-1.714 27-93.323 9.65-187.636 24.32-280.564 34.07-36.237 3.6-85.86 10.32-121.903 15.85-1.842-23.86-6.496-54.58-9.52-78.72l-21.048-163.488-30.258-227.627c-5.15-38.182-8.94-76.043-15.272-114.11 38.322-3.536 81.718-10.058 120.163-14.802l178.187-20.88c-4.08 2.72-9.011 5.492-6.872 10.888 2.916 1.862 2.314 2.115 5.217 2.123 3.493-1.781 8.445-4.599 9.888-8.349l-3.033-3.644.325-1.723c4.048-.945 7.009 3.125 8.902 1.975 10.105-6.137 16.179-5.469 27.706-6.639l38.979-4.106 116.356-13.288c2.921 3.79 4.506 6.339 9.194 7.041 4.362-2.798 2.1-3.382 5.997-7.958 6.4-1.845 17.337-2.249 24.295-2.76"/><path d="M590.491 600.888c2.432 2.12 2.522 2.208 4.392 4.83-.737 3.939-3.246 5.348-6.468 8.736 9.032-.365 28.756-4.351 35.241.205 2.537 12.494 4.199 28.652 5.89 41.498a5178 5178 0 0 1 9.72 77.519c1.867 15.221 16.3 115.009 14.79 120.924-1.695 2.105-3.323 3.084-6.048 3.499-60.122 9.144-121.106 14.459-181.246 23.323-42.634 5.155-36.56 10.492-42.554-32.414l-7.83-55.36-12.778-91.74c-1.565-10.731-10.258-54.923-6.534-62.316 11.456-5.591 152.65-20.119 177.319-23.168 3.838-8.335 8.561-10.71 16.106-15.536M396.603 921.41c3.625-.895 5.417-.423 8.2 1.691 2.492 4.657 33.321 235.319 31.974 243.399-6.947 5.37-193.691 26.33-215.243 28.93-4.444.69-5.781.51-9.101-1.36-1.347-2.11-2.01-3.96-2.304-6.44-8.949-75.66-19.12-151.16-29.488-226.645-1.521-11.07.508-11.788 11.41-13.738 25.615-4.581 52.263-6.675 77.951-10.17 42.215-5.744 84.298-10.867 126.601-15.667"/><path fill="#fefefe" d="M393.593 930.437c1.992-.399 1.23-.303 3.37.223 2.847 7.871 8.715 58.916 10.276 70.75q11.022 79.35 21.095 158.85c-67.077 9.47-135.827 16.34-202.755 25.93-1.866.14-3.128.13-4.979.11-1.528-2.28-28.782-211.513-31.102-229.823 23.15-2.315 47.781-6.34 71.131-9.36z"/><path d="M353.527 642.374c4.39-.731 7.593-1.338 11.505.709 2.185 2.165 2.569 3.978 2.996 7.051 3.528 25.409 6.106 51.128 9.87 76.491a7880 7880 0 0 1 14.219 100.901c1.228 8.86 9.213 57.57 6.583 61.326-10.267 4.672-51.563 8.213-65.445 9.959l-143.02 17.879c-3.745.484-10.954 1.432-12.253-2.105-5.503-14.992-7.881-45.652-9.975-60.594L152.285 741.6c-1.456-10.807-9.659-63.593-8.882-71.296 6.544-5.22 67.257-10.839 79.277-12.285zm242.827-54.012c5.34.03 9.292 1.081 11.477 6.066-.735 4.574-1.202 3.93-4.486 7.99-4.101 1.359-8.58-2.47-12.009-4.651zM390.286 617.81c4.033.173 6.621.3 9.379 3.414.322 3.671.478 2.261-1.695 5.87-4.76.308-6.753.89-9.93-2.909-.053-3.385.169-3.5 2.246-6.375"/><path fill="#fefefe" d="M1350.23 169.647c48.96 6.694 104.68 9.899 154.34 14.351l271.5 24.449c41.49 3.65 94.18 7.01 134.94 12.731l-43.27 510.495c-28.16-11.808-67.8-20.361-97.79-26.134-1.62-3.349-3.49-6.273-2.78-9.57 2.89-1.548 3.04-1.573 4.7-4.298.8-8.281-2.65-1.868-7.4-7.861-1.04-8.882 14.11-26.177 15.55-37.561 4.22-33.263 8.96-67.102 11.64-100.487 1.91-23.873-9.47-34.157-23.18-50.962-1.44-1.767-7.36-17.002-10.23-21.573a53.7 53.7 0 0 0-9.49-9.202c-26.64-20.038-67.25-23.673-99.49-19.264-2.43-3.241-7.84-7.601-12.05-6.831-2.75 3.683-.68 8.7-2.14 9.92-8.59 7.133-8.49 3.638-13.49 13.987-25.02-2.172-34.73 6.104-43.76 28.528-.02.044-6.41 4.011-7.37 5.465-6.92 10.467-3.47 23.273 3.09 32.906 2.6 3.801 6.82 6.968 10.59 9.979-1.76 9.641-3.23 8.471-7.39 17.026 1.75 3.725 4.33 7.685 2.55 11.546-.71.267-20.31-1.774-23.78-1.764-8.64 26.91-6.01 30.258 20.49 35.596-2.54 19.758-4.11 42.043.37 61.433-3.55.379-4.24.234-7.19 2.015-1.08 3.368-.82 2.16.36 6.107 2.32 1.867 6.87 2.052 10.04 2.493 12.68 19.184 16.8 20.025 38.62 27.391-28.69-1.725-65.03-7.18-94.15-10.619l-147.44-17.027c-1.47-4.719-7.52-20.08-4.96-23.605 2.64.097 4.68.5 6.94-.719.93-3.137.87-3.251.02-6.495-2.67-2.422-6.51-1.934-10.86-2.367-1.26-6.265-4.71-30.365-6.49-33.789-2.87-1.948-3.93-1.54-7.37-1.344-.42-8.936 1.98-21.638 1.19-31.071-.28-3.339-5.04-1.831-6.85-4.373-10.44-14.611-11.43-21.42-26.51-32.484.31-13.455 1.96-29.704 2.94-43.305l5.84-79.293c4.4 2.772 7.97 5.723 12.91 2.912l.41-2.144c-2.4-8.637-4.44-8.826-12.28-13.796.9-25.557 3.94-59.194 6.45-84.773 5.63 3.395 11.43 7.995 17.74 3.894l-.06-2.625c-3.76-7.189-8.46-8.03-15.94-11.11 1.22-41.593 7.19-93.958 10.49-136.778"/><path d="M1347.52 413.357c3.68.361 7.02 1.93 10.51 3.28 3.15-1.828 4.17-2.892 7.52-1.273 2.08 11.203 9.66 6.703 9.57 16.213l1.02.828 3.55-.964c3.92.493 8.48 4.388 11.91 6.851-1.26 3.322-2.77 5.951-4.44 9.068-6.47-2.897-13.1-9.401-17.75-10.256-1.37-.254-4.25 3.637-10.13 2.311-2.43-4.7 2.49-7.472-.39-11.124l-2.4 1.135c-3.14-.586-8.69-4.456-11.66-6.304.88-3.26 1.77-6.514 2.69-9.765m20.55-109.911c3.42.381 4.41.15 6.77 2.347 1.78 4.53.06 11.042-.62 16.351 4.13 2.17 7.8 3.819 9.67 8.078l-.94 2.356c-4.75 4.394-5.18 1.702-9.58 6.062l-.99.512c-3.86-.143-2.68.437-5.43-1.629-.76-8.439-.75-7.541-7.92-12.527.06-2.916.38-3.238 1.65-5.959 7.59-3.822 6.38-7.603 7.39-15.591m10.07-104.648c7.18.064 21.59-1.452 23.76 6.96l-1.03 1.698c-3.33 1.91-1.95 1.416-6.1 1.257-11.34-1.814-5.6 2.2-15.66 5.902l-1.26-.953c-1.44-4.773-.33-9.835.29-14.864m491.62 45.966c7.88-.158 7.89-.333 12.86 5.809l-1.61 17.218c-2.36.311-2.94.064-5.21-.421-1.99-3.116-.55-5.534-.88-10.797-2.28-3.482-1-2.343-5.19-4.087-1.28-2.313-.42-4.983.03-7.722m-326.44 281.521c5.4 2.563 10.79 4.103 13.34 9.201.6 3.711-1.07 5.704-2.92 9.14l-16.01-10.439zm-57.9-33.549c5.18 2.556 10.16 5.357 15.22 8.147-2.08 2.788-4.24 6.35-6.14 9.318-4.71-2.589-9.99-6.085-14.6-8.973zm-89.9-52.65c4.08 2.114 9.43 5.858 13.4 8.476-1.34 4.374-2.15 5.741-4.29 9.616-4.92-2.714-10.13-6.071-14.95-9.041zm15.08-101.702c5.26 1.885 11.34 3.19 14.54 7.465.58 4.256-.07 4.049-1.77 8.316-6.23-2.27-11.88-4.972-17.88-7.752zm55.09 143.18c6.61 3.162 9.48 4.717 15.5 8.851l-4.98 8.129c-4.72-1.567-10.75-3.89-13.05-8.251-.52-3.667.82-5.353 2.53-8.729m29.06-106.914 15.82 6.836-3.71 9.196c-4.83-1.663-11.33-4.619-16.18-6.651zm-80.98 76.803c4.65 1.467 9.56 3.543 11.61 8.122.24 3.877-.94 5.251-2.78 8.707-5.17-2.79-10.45-5.942-15.56-8.891zm34.49 19.933c3.51 1.327 10.92 5.761 14.53 7.795l-4.64 9.373c-4.8-2.503-10.92-4.718-13.27-9.171.2-4.064 1.09-4.261 3.38-7.997m88.23-79.003c5.62 1.858 11.07 2.691 13.74 7.7.66 3.468-.73 5.159-2.4 8.388-5.07-2.376-10.24-4.671-15.35-6.985zm-106.5 68.321c5.36 2.444 9 4.832 13.99 7.984l-4.32 9.371-14.71-8.238zM1837.7 692.16c2.4-.437 2.23-.482 4.5.38 2 4.027 1.95 7.404-1.08 11.009-1.63 1.947-3.89 1.2-6.37 1.154-4.12-.53-7.48-.507-10.2-3.458l.46-1.74c6.06-4.759 7.66-2.141 12.69-7.345m-314.3-176.743c6.07 2.326 9.24 4.277 14.89 7.605-1.28 2.788-3.06 5.874-4.54 8.608-5.37-2.003-10.34-5.317-15.25-8.325zm-49.02-149.753 14.37 6.451c-.75 3.767-1.7 5.839-3.1 9.36l-16.43-6.913zm82.37 35.722c4.36 1.503 11.09 4.842 15.47 6.851l-3.08 9.28c-5.26-1.988-10.52-4.523-15.64-6.886zm-41.16-18.052c4.55 1.517 10.26 2.873 13.16 6.379 1.22 4.653.43 4.366-1.02 9.691-4.6-1.834-11.06-3.506-13.76-6.933-.82-4.495-.09-4.266 1.62-9.137m-10.92 120.358c3.6 2.556 9.81 6.121 13.74 8.554-1.47 2.81-3.13 5.651-4.7 8.42a496 496 0 0 1-15.1-8.643zm-97.09-302.636c5.15.454 13.8.232 17.58 2.415 2.02 3.317 1.2 3.288.49 7.891-5.29-.306-13.39.125-17.38-2.358-1.76-3.455-1.06-3.692-.69-7.948m-18.84 128.047c4.41 1.644 11.35 3.616 14.19 6.9.88 4.222.06 4.163-1.71 8.637-5.31-2.009-10.71-4.222-16-6.312zm209.48 90.225c4.75 2.085 11.36 3.963 13.84 7.843-.02 4.007-.83 4.07-2.99 7.827-4.48-1.16-10.11-4.053-14.43-6.08zm-165.54-215.652c6.07.786 13.52-.142 18.03 2.419 2.03 3.313 1.3 3.445 1.07 7.82-5.67-.376-13.79-.019-18.27-2.586-2.01-3.222-1.25-3.259-.83-7.653m20.36 152.97c4.62 2.321 10.8 4.808 15.64 6.922l-4.05 9.057c-4.4-1.764-10.83-3.696-13.53-7.188-.7-4.26.17-4.396 1.94-8.791m-21.1-8.955c4.94 1.862 11.06 3.319 13.78 7.442.7 3.723-.3 5.112-1.77 8.647-4.56-2.236-10.64-3.634-13.68-7.383-.89-4.201-.04-4.245 1.67-8.706m186.45 80.935c4.44 1.723 10.74 3.289 12.93 6.952.51 3.39-1.12 5.429-2.78 8.6-4.74-1.414-9.8-4.096-14.3-6.299zm-40.78-17.95 15.01 6.403-3.43 9.231c-4.47-1.919-11.57-3.561-14.16-6.661-.87-3.918.45-4.572 2.58-8.973m-14.36 127.674c5.33 1.894 8.59 3.716 13.6 6.391l-4.72 9.911c-4.06-1.898-8.89-4.031-11.12-7.738-.55-4.477.03-3.857 2.24-8.564m-196.89-194.122c4.63.858 3.91-.01 6.62 2.765 1.15 4.811-.68 12.48-1.33 18.095-3.84-.684-4.48-.119-6.85-2.543-1.77-5.661.36-12.281 1.56-18.317m41.29 300.139c4.68.249 12.15.114 15.86 2.414 2.18 3.14 1.39 3.853 1.26 8.298-5.16-.61-12.67-.71-16.65-3.18-1.69-3.317-.99-3.376-.47-7.532m125.02-431.435c6 .778 11.63-.341 16.34 2.095 2.09 3.366 1.3 3.426.86 8.011-6.01-.728-12.24.256-16.77-2.615-1.53-3.371-.89-3.481-.43-7.491m287.52 26.899c5.56.726 12.66.063 17.25 2.868 1.77 3.196 1.08 3.279.69 7.377-5.1-.574-13-.444-16.71-2.564-2.1-3.457-1.41-3.223-1.23-7.681m25.49 2.612c5.59.868 11.19-.562 15.9 2.122 1.96 3.36 1.19 3.317.65 7.775-5.56-.213-12.76.378-16.88-3.037-1.03-3.054-.6-3.58.33-6.86m-392.06 407.562c5.59.92 12.19.22 16.68 2.89 1.8 3.022 1 3.23.33 7.399-4.72-.21-12.39.011-16.08-2.35-1.99-3.377-1.25-3.523-.93-7.939m-91.36-259.153c4.21.819 3.95.059 6.36 2.571 1.94 5.699.65 11.802-1.26 17.405-2.44-.276-3.85-.212-5.96-1.515-2.42-5.565-.27-12.134.86-18.461m145.67-180.099c5.45.506 12.5-.226 16.71 2.291 1.94 3.383 1.22 3.623.97 7.963-5.51-.822-12.11-.124-16.44-2.825-2-3.044-1.31-3.31-1.24-7.429m-49.52-4.459c5.19.291 12.62-.174 16.57 2.08 2.09 3.621 1.41 3.363 1.29 7.88-6.01-1.078-11.82-.092-16.49-2.574-2.29-3.046-1.53-2.914-1.37-7.386m24.24 2.184c3.56.3 7.57.177 11.17.436 7.92.569 7.46 2.914 7.72 9.278-5.83-.619-11.63.089-16.59-2.055-2.67-2.922-1.9-3.083-2.3-7.659m-51.56 438.5c5.66 1.095 10.98.089 15.51 3.01 1.66 3.483.95 3.626.39 7.887-4.7-.426-11.85-.508-15.51-2.897-1.78-3.447-1-3.623-.39-8m-67.84-278.235c4.02.237 4.41-.378 7.42 1.714 1.25 2.841 1.33 3.026.96 6.057l-1.16 10.253c-3.2-.146-4.94.213-7.2-1.719-1.78-4.262-.39-11.088-.02-16.305m432.99-131.226c5.07.494 12.16-.038 16.33 2.322 2.05 3.006 1.19 3.309.63 7.722-5.11-.581-11.51.129-15.69-2.302-2.1-3.142-1.37-3.441-1.27-7.742m-143.47-12.819c4.95.216 12.2-.471 16.14 2.046 2 3.132 1.3 3.106 1.08 7.32-4.76-.11-12.69.247-16.52-1.935-2.01-2.977-1.21-3.12-.7-7.431m-106.8 435.824c5.04.52 10.82.029 15.18 2.174 2.65 3.213 1.81 3.355 1.91 8.247-5.39-.562-11.66.148-15.6-2.392-2.15-3.502-1.46-3.562-1.49-8.029m-161.58-18.782c4.97.354 12.33-.029 16.04 2.33 1.79 3.396.96 3.606.2 8.038-4.7-.374-10.88-.23-14.56-2.671-2.05-2.476-1.65-4.313-1.68-7.697m418.05 50.008c5.31.825 12.02.647 16.26 3.471 1.67 3.238 1.07 2.345-.16 7.035-5.35-.718-11.74-.398-16.03-3.041-1.76-3.132-.95-3.199-.07-7.465m-245.05-476.389c5.24.712 10.73-.505 14.82 1.794 2.06 3.276 1.33 3.682 1.2 8.039-4.9-.265-12.07.128-15.79-2.251-1.66-3.454-.96-3.308-.23-7.582m46.28 4.462c4.71.162 12.52-.058 16.39 1.974 2.43 2.997 1.68 3.03 1.82 7.491-4.33-.106-9.35-.041-13.59-.756-5.13-.866-4.39-4.789-4.62-8.709m72.54 7.016c4.7.116 12.51-.246 16.24 1.99 1.96 3.011 1.23 3.261.98 7.41-4.73-.152-12.15.117-16.01-2.039-2.11-3.027-1.38-3.084-1.21-7.361m-305.9 54.156c4.32.332 3.35-.333 6.54 1.81 1.82 4.366.4 11.724-.03 16.886-4.2-.24-3.91.409-6.96-1.557-2.21-4.641-.32-11.695.45-17.139m330.47-52.07c5.23.373 10.92-.158 15.55 1.935 2.66 3.02 1.83 2.51 1.69 7.39-4.84-.093-12.75.344-16.57-2.023-1.93-3.079-1.18-3.045-.67-7.302m-72.25-7.155c5.72.933 11.13.051 15.71 2.445 2.38 3.218 1.57 3.299 1.45 7.973-5.07-.862-12.83-.865-16.17-2.855-1.95-3.23-1.24-3.317-.99-7.563m238.72 122.014c8.26.841 7.78 2.386 6.93 10.953-.29 2.933-.88 5.958-1.35 8.878-5.91-1.021-7.5-1.035-7.03-8.295.24-3.8.92-7.755 1.45-11.536M1352.3 506.973c4.58.721 3.78-.056 7.01 2.462 1.5 4.23.03 10.724-.45 15.765-4.53-.235-3.98.489-7.11-1.717-1.96-4.833-.23-10.934.55-16.51m228.05-289.28c4.58.169 11.87-.082 15.56 2.118 2.04 3.058 1.29 3.213 1.03 7.471-4.63-.162-11.67.092-15.48-2.073-2.06-3.069-1.32-3.247-1.11-7.516m192.09 18.164c4.82-.013 11.74-.583 15.76 1.447 2.54 3.052 1.75 3.052 1.86 7.694-4.65-.071-11.75.336-15.58-1.811-2.44-3.018-1.72-2.981-2.04-7.33m-271.78 419.895c5.09.264 11.47-.424 15.4 1.99 2.15 3.483 1.4 3.251 1.01 7.9-10.82-.451-15.69 1.709-16.41-9.89m23.51 2.119c4.41.604 11.97.597 14.8 2.479 1.61 3.642.96 3.604.48 7.861-4.97-.487-10.47.142-14.51-2.027-2.05-3.366-1.21-3.752-.77-8.313m-45.89-5.072c5.34 1.074 10.4.199 14.58 2.359 2.25 3.348 1.4 3.265.79 8.101-4.96-.525-10.74-.072-14.73-2.268-2.03-3.401-1.2-3.588-.64-8.192m-123.83-167.541c3.13.316 3.99.131 6.39 1.926 2.03 4.52.54 10.67-.03 16.038-4.05-.133-4.97.464-7.58-2.712-1.31-4.458.34-10.456 1.22-15.252m394.65-252.42c4.83.33 11.09.284 15.2 2.406 2.46 3.15 1.67 2.861 1.6 7.517-5.62-.8-10.31.346-15.13-2.029-2.44-3.148-1.65-3.264-1.67-7.894m28.42 454.961c3.81.824 7.89.801 11.7 1.522 6.93 1.308 6.71 2.531 6.14 8.392-3.74.634-10.7-.067-14.27-1.565-4.13-1.732-3.41-4.628-3.57-8.349m-426.7-158.844c2.62-.058 4.18-.416 6.29 1.051 2.29 4.781.78 10.807.23 16.538-4.71-.619-4.54.188-7.56-2.708-1.47-4.249.19-10.206 1.04-14.881m514.58-160.481c4.49.564 3.92-.255 6.29 2.304 1.66 4.817-.08 11.981-.92 17.276-2.71-.338-3.73-.209-5.84-1.944-2.2-5.017-.36-11.969.47-17.636m-509.19 94.283c4.24.571 3.97-.15 6.67 2.169 1.77 4.032.08 11.172-.64 15.827-11.46-.528-7.49-9.326-6.03-17.996m369.52-231.97c5.32.681 10.53-.004 14.94 2.33 2.28 3.294 1.59 3.145 1.72 7.54-4.99-.49-11.83.062-15.91-2.446-1.91-3.064-1.17-3.223-.75-7.424m129.48 257.644c2.66.094 3.76-.149 5.85 1.462 1.99 4.686.36 12.04-.25 17.408-4.1-.323-3.52.32-6.46-1.695-1.95-5.063-.05-11.418.86-17.175m-479.03-270.752c4.14.259 4-.413 6.82 1.612 1.54 3.844.12 11.048-.21 15.946-4.01-.264-3.93.361-6.81-1.538-1.95-4.539-.38-10.596.2-16.02m487.25 175.825c10.89.205 6.64 10.792 5.28 18.673-4.79-1.13-3.95-.153-6.44-3.24-1.13-4.485.37-10.654 1.16-15.433M1349.44 549.7c3.06.103 3.99-.15 6.4 1.479 1.86 4.104.57 10.005.21 15.085-3.98.225-5.08.708-7.84-2.273-1.11-3.946.47-10.004 1.23-14.291m509.74-109.122c2.94.657 3.13.645 5.59 2.296 2.1 5.037.4 11.843-.35 17.496-6.39-1.882-7.48-2.175-6.71-9.78.33-3.329.94-6.702 1.47-10.012m-5.86 70.982c2.75.055 3.64-.193 5.81 1.475 1.66 4.663.01 11.339-.61 16.731-4.19.308-3.3.903-6.03-.998-1.36-4.057.32-12.338.83-17.208m7.53-94.333c4.03.413 3.33-.225 6.27 1.81 1.52 4.337.1 11.001-.29 16.216-4.33-.393-4.07.379-6.4-1.975-1.59-4.34-.19-11.2.42-16.051m-488.32-157.111c2.7-.031 3.98-.358 6.12 1.228 1.95 4.342.57 10.776.16 16.095-3.33-.237-3.72-.115-6.55-1.683-2.3-4.547-.54-10.139.27-15.64m2.45-21.247c4.06.324 3.83-.393 6.07 1.781 1.62 4.457-.2 11.629-1.03 16.607-4.25-.986-3.38-.15-6.04-2.828-1.52-4.17.2-10.942 1-15.56m495.11 81.77c3.57.78 2.8.116 5.28 2.268 1.99 6.042.4 10.623-1.08 16.705-2.75-.72-3.93-.706-5.64-2.942-1.57-5.168-.1-10.907 1.44-16.031m-512.3 122.146c4.45 1.083 3.86.258 6.72 3.012 1.56 4.198.29 9.037-.35 13.692-2.63-.069-4.05.127-6.41-1.071-2.69-5.063-.96-9.401.04-15.633m490.7 115.571c4.62.841 3.83-.056 6.21 2.771 1.42 4.478-.06 11.191-.76 16.063-2.46-.415-4.03-.379-5.82-2.073-1.87-5.337-.34-10.771.37-16.761m25.14-285.592c3.86.89 3.21.161 5.7 2.538 1.08 4.276-.16 12.193-.42 17.352-2.42-.312-4-.181-5.64-1.893-2-5.19-.35-12.24.36-17.997m-1.69 23.926c4.07 1.112 3.39.265 5.6 2.968 1.37 4.539-.12 12.097-.76 17.1-10.13-2.816-6.23-10.96-4.84-20.068m-14.56 168.927c4.05.273 3.36-.389 6.05 1.685 1.47 4.271-.11 11.065-.68 16.03-3.03-.44-3.19-.42-5.78-1.958-2.25-4.871-.5-10.051.41-15.757m-5.89 69.593c4.08.865 3.43.06 5.57 2.611 1.39 4.812-.3 11.701-1.16 16.871-3.8-.796-3.26-.112-5.75-2.366-1.54-5.133.37-11.497 1.34-17.116m-6.68 69.017c4.34.715 3.98-.1 6.06 2.466 1.48 4.427-.11 11.176-.86 16.026-2.88-.63-3.26-.572-5.54-2.3-2.19-4.793-.47-10.649.34-16.192m1.79-22.961c4.7.833 3.74-.086 6.15 2.82 1.43 4.533-.17 11.058-.96 15.957-2.52-.475-3.92-.412-5.56-2.327-1-2.78-1.11-3.401-.78-6.276zm-3.92 45.316c2.76.66 3.89.636 5.78 2.742 1.77 4.207.31 10.343-.37 15.072-2.53-.223-3.45-.128-5.73-1.349-2.4-4.847-.55-10.749.32-16.465m-4.08 43.491c4.42 1.099 3.68.202 6.12 3.065 1.27 4.311-.09 9.632-.85 14.251-4.57-.7-4.17.152-6.42-2.522-1.16-4.331.35-10.169 1.15-14.794m1.75-21.598c3.47 1.067 4.21.991 6.25 3.726 1.35 4.345.01 8.771-.81 13.428-2.61-.45-3.81-.386-5.78-2.157-1.69-4.473-.24-9.756.34-14.997"/><path fill="#fefefe" d="M179.804 265.672c112.6-11.771 230.437-19.72 343.689-28.977l100.656-8.564c14.257-1.277 32.663-2.309 46.59-4.221 1.996 13.937 4.26 28.534 5.777 42.571.71 6.568-3.848 5.282-3.186 9.842.675 4.642 4.726 5.125 5.562 11.156 3.576 25.829 5.159 53.978 8.98 79.565-3.37 2.954-7.715 6.231-9.732 10.022 1.398 5.571 4.934 5.567 10.056 7.125 1.794 6.961 2.137 15.075 3.247 22.214 3.27 21.032 3.918 46.556 7.898 66.992-5.821 4.108-6.831 5.23-10.578 11.692 2.704 2.964 3.416 4.726 6.806 5.852l3.062-1.099c2.746 8.812 6.467 50.644 7.233 61.598 1.922 27.468 5.846 57.07 7.648 84.285q-18.314.617-36.6 1.826c-1.349-11.499-5.333-70.511-12.428-76.788-3.972-3.514-10.343-2.043-15.113-1.446-2.989.374-5.044.592-7.989-.294-1.28-2.726-.708-2.481-.143-6.115-2.267-1.591-4.795-3.065-7.167-4.523-3.732 4.338-7.56 8.703-11.229 13.083a9057 9057 0 0 0-113.792 11.429c-17.742 1.936-35.475 3.935-53.186 6.116-1.62.2-2.988-.547-4.124-1.623-1.929-1.827-3.381-3.099-5.82-4.173-7.946 1.597-9.899 9.196-11.174 9.35-57.949 6.999-177.384 17.984-229.349 26.611-1.57-32.897-5.538-65.779-7.369-98.674-.071-1.267 4.198-4.628 5.115-5.359.901-3.045.951-1.52-.612-4.693a217 217 0 0 0-5.385-3.457L186.73 362.297c-2.329-29.667-6.113-67.112-6.926-96.625"/><path d="M497.342 526.661c3.997 1.34 5.822 3.875 5.596 7.917-2.093 4.449-6.453 7.751-10.202 11.095-3.894-.668-5.995-2.175-7.35-5.804 1.516-6.094 6.99-9.364 11.956-13.208m35.631-30.066c3.789.787 5.869 3.202 6.385 6.854-2.258 6.157-5.39 7.74-10.702 11.307-4.291-1.027-5.697-1.681-6.578-5.947 1.93-6.161 5.842-8.505 10.895-12.214m55.181-45.795c3.096.95 4.479 4.011 4.924 6.9-2.227 6.086-7.028 8.768-12.252 12.428-3.655-3.035-5.309-3.903-4.823-8.786 2.085-3.845 8.36-7.799 12.151-10.542m-109.786-88c2.748.139 4.257 1.204 6.071 3.118.769 7.954-5.926 10.152-12.062 12.892-4.748-.724-5.877-4.852-5.181-9.111 2.285-3.296 7.302-5.049 11.172-6.899m72.908 118.877c2.078.654 2.853 1.797 4.592 3.381 2.509 7.519-5.084 11.463-10.587 15.282-2.722-1.809-4.791-5.35-6.744-8.134 5.148-5.323 6.49-6.395 12.739-10.529m-35.087 30.226c2.051 1.721 4.827 5.578 6.573 7.824-4.966 4.99-7.552 6.817-13.364 10.932l-7.418-7.252c5.278-5.422 7.756-7.661 14.209-11.504m-37.104 30.718c4.024 1.281 5.943 3.761 5.644 7.802-2.365 4.581-6.17 7.186-10.16 10.48-2.366.32-3.055-.286-5.506-1.114l-1.051-2.48c.576-6.289 6.522-10.75 11.073-14.688M352.454 421.726c2.157.479 3.507 2.441 5.115 4.155 1.209 7.519-6.42 9.566-12.185 11.866-2.168.015-3.344-1.116-5.199-2.348-1.98-7.55 6.815-11.126 12.269-13.673m286.745-13.997c3.397 1.327 4.958 3.147 5.89 6.47-1.635 5.794-6.88 8.505-11.799 11.716-3.604-3.118-5.178-3.744-4.849-8.594 2.136-3.79 7.093-6.883 10.758-9.592m16.934-13.992c1.781.441 3.115 1.837 4.695 3.071 3.188 7.469-4.644 11.235-10.206 15.142-3.079-2.724-4.484-5.014-6.803-8.33 4.101-3.638 7.951-6.559 12.314-9.883m-220.115-10.852c1.987.214 2.583.879 4.422 1.952 1.613 2.605 1.141 1.156.908 4.628-3.478 5.802-5.628 6.245-11.731 8.743-3.145.167-4.155-1.05-6.092-3.05.555-8.106 5.908-9.736 12.493-12.273m24.526 175.692c3.559.598 5.563 2.326 6.77 5.619-.79 5.513-5.514 8.433-9.768 11.657-2.358.22-3.854-.731-5.712-1.861-2.92-6.81 4.085-11.681 8.71-15.415m62.189-215.552c2.875 1.337 3.911 3.41 4.158 6.337-2.627 5.684-7.941 7.182-13.543 9.307-3.473-1.239-4.681-3.658-4.386-7.115 3.398-5.453 7.902-6.509 13.771-8.529m-127.262 59.176c2.573 3.996 3.955 5.549 2.607 10.125-2.767 3.255-8.468 4.995-12.645 6.647-1.171-1.704-3.056-8.036-3.818-10.336 5.788-3.457 7.478-4.547 13.856-6.436m20.537-10.291c10.389 9.97-2.078 13.734-9.57 16.39-2.928-3.893-4.293-4.95-2.869-9.74 3.061-3.334 8.076-4.862 12.439-6.65m153.378 74.848c3.283 1.7 4.169 4.072 6.093 7.331-4.686 4.852-7.441 7.544-12.654 11.769-2.867-2.467-4.265-4.693-6.478-7.72 3.794-3.914 8.784-7.845 13.039-11.38m77.662 65.213c3.096 2.259 6.072 4.361 8.986 6.863-3.425 4.029-8.44 10.537-13.398 12.466-1.205-2.13-3.594-4.693-5.245-6.644 3.676-5.786 4.968-7.79 9.657-12.685m-148.42-178.062c2.044-.439 2.159-.143 4.193.581 2.209 2.865 2.334 2.956 2.603 6.452-2.234 4.042-6.825 5.124-11.517 7.159-2.785.651-3.754.105-5.872-1.561-1.238-7.972 4.522-10.063 10.593-12.631m-124.546 57.927c1.745.433 2.711 1.663 4.215 2.965 1.035 2.558.854 2.541.227 5.129-3.211 4.562-6.008 5.207-11.203 7.307-2.937.055-4.138-.582-5.681-2.87-.431-7.33 6.925-10.073 12.442-12.531m190.921-87.932c1.816.698 1.988 1.567 3.405 3.373.287 8.319-7.269 10.285-13.99 12.801-2.964-4.052-3.921-4.825-2.515-9.555 2.774-3.199 8.936-5.033 13.1-6.619m39.322 112.808c4.273.026 5.882 2.394 5.964 6.273-2.24 5.231-4.361 6.646-8.637 10.393-4.148.376-6.432-1.561-7.402-5.291 1.772-6.378 4.724-7.768 10.075-11.375m-145.773-63.77c3.24 3.763 4.796 4.746 3.008 9.527-3.295 3.262-8.632 4.784-13.111 6.467-1.359-2.016-3.264-6.761-4.337-9.191 4.281-2.368 9.889-4.739 14.44-6.803m-126.114 58.906c1.999.39 3.448 2.146 5.032 3.604 1.311 7.371-5.551 8.88-11.231 10.67l-2.71-.052c-3.071-2.337-3.404-4.481-2.677-8.039 2.755-3.295 7.394-4.524 11.586-6.183M231.85 478.905c2.626-.58 4.994.878 6.354 3.009-.116 7.768-5.675 9.413-11.894 11.679-2.494.069-1.78-.033-4.311-1.964-.997-9.004 2.171-9.824 9.851-12.724m59.649-28.032c4.619-.033 5.261 2.263 5.318 5.897-2.797 5.92-4.568 6.163-10.498 8.795-2.911-.366-4.366-1.451-6.206-3.612-.573-7.299 5.716-8.988 11.386-11.08m334.623-155.872c2.789 2.152 3.685 5.228 5.154 8.559-4.106 2.544-8.586 4.591-12.936 6.707-2.077.019-3.363-1.128-5.179-2.271-2.099-7.562 7.453-10.722 12.961-12.995m-313.065 145.91c2.821 2.014 3.743 4.856 3.541 8.095-3.573 4.9-7.664 5.582-13.352 7.151-3.106-3.283-4.406-4.305-2.754-8.663 3.321-3.335 8.123-4.79 12.565-6.583m308.334-18.192c4.153.171 7.099 2.218 6.68 6.507-2.283 4.268-6.344 6.896-10.198 9.926-4.232-1.547-6.365-2.907-6.11-7.369 2.017-3.785 6.151-6.416 9.628-9.064M543.54 332.93c3.695 3.142 5.068 4.847 3.158 9.332-3.462 3.358-7.87 4.506-12.441 6.168-3.08-3.532-4.355-4.416-2.815-8.968 3.314-3.314 7.683-4.665 12.098-6.532m129.813 46.84c9.005 8.794 1.31 12.942-6.093 19.038l-6.988-7.948c3.852-3.804 8.818-7.632 13.081-11.09m-400.604 80.088c3.694 2.934 4.578 5.51 3.129 9.658-3.253 3.546-6.396 4.257-10.935 5.892-3.536-3.279-5.229-4.218-3.668-9.015 2.829-3.209 7.477-4.787 11.474-6.535m-21.285 9.889 2.004.123c2.842 2.148 3.61 5.122 5.03 8.521-3.455 1.889-7.481 3.814-11.035 5.616-2.482.398-4.912-.959-6.287-2.951-.477-7.196 4.809-9.033 10.288-11.309m332.048-154.954c1.931.307 3.006 1.292 4.78 2.391 1.175 2.968 1.009 1.441.226 4.759-3.269 4.463-5.894 5.103-11.02 7.224-2.289-.101-3.285-1.144-5.166-2.492-1.936-6.838 6.244-9.889 11.18-11.882m88.231 188.675c4.114 1.914 6.312 2.499 7.321 6.963-1.101 4.108-4.196 6.867-7.107 10.158-4.559-.488-6.749-2.046-7.309-6.541 1.094-4.298 4.161-7.185 7.095-10.58m-26.28-217.667c2.035-.007 3.266 1.298 4.985 2.568.994 7.395-5.404 9.505-11.149 11.912-2.383.326-1.205.522-3.513-1.17-1.43-3.442-1.636-3.617-.783-7.072 2.46-3.374 6.453-4.501 10.46-6.238m18.979-9.016c2.023-.35 3.344.754 5.235 1.797 2.929 6.951-4.471 9.732-9.392 11.671-2.455.431-3.844-.268-5.967-1.256-2.728-7.161 5.103-10.239 10.124-12.212m-61.801 29.136c2.972.007 4.364.581 6.368 2.549.907 6.711-5.714 8.801-10.734 10.687-2.268.045-2.929-.559-5.153-1.482-1.282-2.52-.908-1.12-.369-4.477 2.726-4.364 5.212-5.081 9.888-7.277M213.167 487.717c2.079.293 3.46 2.153 5.07 3.73 1.39 7.283-4.265 8.756-9.99 10.896-3.608-1.793-5.678-3.92-5.24-7.825 2.417-3.386 6.403-4.921 10.16-6.801m446.694 30.7c3.129 1.044 5.429 3.819 7.89 6.208-2.721 3.724-6.006 7.651-8.919 11.278-2.729-.455-6.158-4.676-8.094-6.766 3.139-4.644 5.195-6.671 9.123-10.72m24.774-28.894c2.604 1.46 5.592 3.63 8.102 5.346-2.798 4.469-5.41 7.58-8.745 11.674-4.297-1.303-6.087-2.526-6.559-6.965 1.18-3.995 4.374-6.939 7.202-10.055"/><path fill="#fefefe" d="M1011.22 159.802c59.49-5.914 124.34-6.057 184.34-10.43 2.06 30.284 3.56 61.598 6.01 91.667-6.82-1.852-13.16-4.935-19.61-7.822-1.42 3.377-2.98 6.939-4.33 10.324 9.22 4.482 15.55 7.289 25.3 10.67 1.52 18.765 3.47 38.833 4.41 57.533-3.16-1.875-6.57-4-9.78-5.727l-6.17 8.892c3.61 3.019 7.33 6.626 11.61 8.244 1.61-.848 2.19-1.181 3.67-2.241 2.37 3.962 13 154.83 12.74 168.798l-.99.829c-7.33 6.288-6.63 6.082-6.46 15.468-4.22-6.452-9.48-15.036-14.34-20.784-3.29 1.552-6.89 3.342-10.19 4.781 4.57 8.398 13.23 17.18 15.38 24.615 3.61 12.494 11.49 8.057 10.97 19.459-.08 1.749 8.15 10.24 8.59 13.131l-2.04 3.315c1.32 3.947 3.4 4.118 3.89 8.224 1.83 15.503 2.75 31.492 3.83 47.048-40.05 1.756-85.94 5.727-125.38 6.414 7.24-49.133 36.02-139.1-26.6-162.22.45-39.07-35.26-51.887-67.64-59.675-.51-4.362-.01-6.484-2.34-9.58-3.26-.861-3.35-.839-6.398.392-2.218 2.601-2.38 2.936-3.881 6.044-34.212-2.014-89.973-4.407-108.439 30.486-25.555-13.161-39.788-3.335-43.846 23.552-36.124 9.787-27.666 32.982-5.492 53.277-3.078 13.908-6.865 30.709-8.48 44.714l-20.768.615a4974 4974 0 0 0-8.343-97.695c-1.856-21.325-3.55-48.281-6.734-68.998 2.958-3.118 6.464-6.248 7.863-10.242-.407-4.115.277-2.876-2.064-5.784-3.395-1.045-3.664-.949-7.283-.748-1.809-18.299-2.933-37.999-5.817-56.037 3.59-2.444 6.041-3.722 8.478-7.329 1.183-6.643-2.729-7.441-8.215-8.637-2.067-9.577-5.943-43.538-4.321-52.49 3.444-2.815 8.989-.655 17.064-7.923-1.068-3.278-2.207-7.141-3.471-10.291-5.525 2.975-10.216 5.419-15.401 9.026-1.398-14.603-4.256-36.703-4.789-50.782 35.348-2.415 70.992-2.678 106.366-4.96 5.241-.338 10.577-.836 15.81-1.005-9.045 3.507-16.437 6.734-24.93 11.608 2.207 5.158 3.097 6.501 6.327 11.134 19.239-7.127 33.773-15.993 51.548-23.123-4.535 4.332-16.993 14.696-19.5 18.13.098 1.818.197 3.318.394 5.141-8.501-2.308-15.52 2.198-13.61 11.527-2.443-.068-2.662-.319-4.875-1.226-4.091.843-7.201 4.427-10.481 7.38 2.181 4.73 1.602 5.362 5.28 8.062 7.034.36 15.213-11.391 23.413-15.846-4.209 6.42-9.726 12.554-13.502 19.149-.599 1.045.413 3.663.432 4.951-5.662 4.25-8.994 8.462-12.883 14.283 2.936 2.129 6.166 4.596 9.172 6.554 9.289-9.878 14.871-18.13 22.621-29.104 2.371-3.357 8.377-6.248 10.921-9.31 8.423-10.138 16.353-21.043 25.485-30.597 10.061 1.533 10.35.174 16.125 8.694.704 1.038.989.753 2.646 1.271 3.938-2.025 6.905-5.482 9.343-9.12 4.698 6.94 13.119 21.272 19.955 24.401 3.42.154 6.76-2.012 8-5.206-.5-3.377-1.52-4.151-3.7-6.976l1.17-.399c3.92 2.586 9.69 7.165 13.91 7.84 6-2.173 3.64-9.746 1.48-13.979l-.55-1.05.8-.8c6.44.163 17.05 8.608 23.44 8.01l3.5-11.447c-4.59-2.545-10.37-6.21-15.35-7.098-1.94.744-2.7 1.114-4.53 2.102-2.08-1.362-2.59-3.187-3.68-5.492-3.4-2.614-10.64-4.282-15.08-5.582"/><path d="M1048.86 201.822c4.01 2.8 7.99 6.57 11.67 9.871-1.44 3.166-2.82 4.667-2.24 7.553 2.76-.59 4.32-3.14 6.23-5.39 4.51 2.717 16.29 8.186 14.69 13.899-2.11 2.526-3.92 5.094-6.81 5.706-8.35-4.156-23.42-15.572-31.3-21.518 2.57-3.142 5.27-6.854 7.76-10.121m80.04 13.903c2.53-1.923 3.68-3.584 6.94-2.903 7.31 1.525 14.25 4.116 19.46 9.514.73 2.391.37 2.714-.33 5.115-.98 1.305-2.1 3.639-3.72 3.696-6.47.227-19.81-4.679-23.06-10.673.21-1.561.37-3.223.71-4.749m-21.34-6.558c.93-1.619 2.31-5.04 4.21-5.312 6.01-.859 15.38 3.022 17.76 8.806l-.63 3.064c-2.19 2.336-3.36 4.582-6.4 4.293-6.65-.633-10.06-2.423-14.76-6.923-.53-2.022-.62-1.91-.18-3.928m-78.37-19.66c5.27 1.165 11.69 6.239 15.82 9.527-2.18 4.796-3.6 6.964-6.49 11.397-5.84-4.17-9.48-7.017-14.84-11.771 1.65-2.987 3.72-6.205 5.51-9.153m154.12 274.283 2.15.748c4.92 5.874 8.61 8.746 9.11 16.206-1.49 3.112-2.53 2.654-6.51 4.25-1.57.688-.71.554-2.69-.186-4.93-6.39-7.09-7.92-8.04-15.707 1.31-3.534 2.08-3.047 5.98-5.311m-171.48-266.988c5.25 3.149 9.65 9.323 9.07 15.684-1.52 3.381-3.82 4.007-7.22 5.765-3.64-1.237-8.76-11.556-10.59-14.954zm37.29-8.581c1.55-5.158 1.87-6.876 4.86-11.396 6.27 2.236 10.02 3.421 15.7 6.766-1.71 3.73-3.79 8.58-5.69 12.084-3.92-1.598-12.39-4.583-14.87-7.454m108.43 231.89 1.45.409c4.97 6.121 7.55 7.922 8.58 15.596-1.62 3.908-2.12 3.323-6.04 5.95-4.82-1.588-9.56-12.484-12.12-17.392zm-62.04-171.843c3.31-3.246 4.35-4.34 7.11-8.174 5.52 3.183 12.68 6.004 14.12 12.53l.08.355c-1.86 3.875-1.35 4.564-4.62 6.129-6.11-.933-13.12-5.951-16.69-10.84m-22.71-62.679c6.67 1.583 13.2 2.506 15.68 9.248-.39 3.789-2.08 5.411-4.35 8.528-2.8-.924-5.59-1.896-8.36-2.917-3.52-1.324-4.59-2.081-6.14-5.465-.2-3.927 1.31-5.867 3.17-9.394m71.49 213.19c4.19 1.847 9.17 11.943 11.7 16.36-2.3 1.961-5.85 4.26-8.41 6.03-4.35-4.163-8.46-12.138-11.52-17.57z"/><path d="m1083.39 229.576 1.61-1.258c4.26 1.093 10.31 6.074 14.1 8.894-1.06 3.182-2.8 7.949-3.59 11.056-4.56-1.653-13.8-8.426-18.06-11.458zm37.6 23.704c11.2 5.888 19.18 6.949 12.88 20.412-4.85-1.425-13.52-5.836-15.11-10.849-.97-3.054 1.06-6.705 2.23-9.563m56.88 39.234c4.9 1.872 11.45 7.438 15.78 10.843l-6.06 9.122c-6.54-4.296-10.24-7.072-16.27-11.979 2.14-2.301 4.54-5.48 6.55-7.986m-153.93-77.622c4.13 4.127 8.06 11.241 10.99 16.376l-8.09 5.673c-4.25-2.703-8.58-10.76-10.99-15.124 2.44-2.274 5.51-4.737 8.09-6.925m66.98-21.767c5.49 2.116 10.96 4.943 16.26 7.551l-4.71 11.443c-6.17-2.549-9.29-4.148-15.08-7.501zm-4.79 116.66c3.63 1.284 9.09 11.781 11.23 15.518l-7.83 5.692-1.68-.475c-4.91-5.818-6.65-7.167-7.53-14.779 1.5-3.954 1.88-3.274 5.81-5.956m-45.89-50.791 8.54-6.788 11.35 16.683c-2.44 1.395-6.09 3.301-8.11 5.08-4.35-1.415-9.04-10.648-11.78-14.975m-176.117-38.085c3.304 2.387 4.675 5.694 6.575 9.283-4.105 4.174-7.541 6.776-12.165 10.391-4.335-2.448-5.915-3.167-6.482-8.098 2.294-5.061 7.513-8.165 12.072-11.576M1170.95 441.83c4.88 2.948 9.42 10.495 9.06 16.533-2.22 3.026-2.93 2.631-6.7 4.245-3.67-1.579-8.18-11.504-10.24-15.469zm-143.24-202.904 8.51-5.756c3.84 5.832 7.62 11.828 11.41 17.713-2.74 1.387-5.39 2.447-7.53 4.597-.46.041-1.58-.31-2.1-.442-3.88-4.488-7.27-10.888-10.29-16.112m-53.074-54.044c8.344-.132 8.215 10.44 6.41 16.343-.63 2.06-3.737 2.585-5.687 3.319-1.711-.056-3.432-.194-4.173-1.665-4.08-8.102-3.339-13.302 3.45-17.997m157.644 194.33c5.09 4.354 7.87 9.205 10.98 15.113-3.41 2.011-6.25 3.782-9.92 5.324-3.06-4.306-7.71-10.114-9-15.029 3.55-1.735 4.89-2.986 7.94-5.408m-58.93-88.112 1.05.268c5.03 5.407 7.2 6.984 8.52 14.377-1.45 3.695-1.7 3.019-5.3 5.532l-2.2-.73c-5.13-5.543-7.8-7.217-8.29-14.656 1.65-3.192 2.57-2.88 6.22-4.791m88.16-66.763c5.56 1.943 11.5 3.069 14.46 7.903.82 3.652-.72 5.719-2.37 9.245-5.17-.984-11.67-4.395-16.58-6.694zm-19.83 42.37a69.8 69.8 0 0 1 15.63 10.972c-1.83 2.827-2.99 4.767-5.27 7.308-5.04.332-11.17-5.687-15.32-9.03zm-292.887-78.843c1.933-.203 3.015.84 4.722 1.931 4.889 7.139-5.151 12.491-10.067 15.09-3.981-1.497-5.763-3.569-6.294-7.644 2.396-5.76 6.049-6.77 11.639-9.377m20.815-8.76c2.451 4.474 4.597 6.666 2.416 11.682-3.246 2.997-8.132 3.819-12.572 5.085-1.724-3.249-3.187-6.952-4.637-10.359 5.324-2.708 9.193-4.256 14.793-6.408m111.109 27.16c3.248 2.327 4.802 12.223 2.961 15.829-1.541 3.018-4.513 3.176-7.448 4.093l-1.852-1.372c-2.482-6.996-3.446-8.495-1.133-15.695 3.089-2.779 3.029-2.062 7.472-2.855m178.553 73.862c5.22 1.289 11.56 6.833 15.96 10.313-2.47 2.34-5.33 5.201-7.88 7.369-4.6-2.973-10.4-6.268-13.71-10.487 2.63-2.765 3.84-3.753 5.63-7.195m-165.762 79.576c2.985-.525 7.292-.84 10.412-1.169.54 4.26 2.43 12.988 1.48 16.358-2.77 1.925-3.19 2.195-6.433 3.091-5.623-2.256-5.645-12.801-5.459-18.28M847.321 234.691c3.261 1.021 6.011 5.154 8.175 7.88-4.222 5.149-6.161 6.673-11.524 10.496l-8.515-8.289c4.488-4.471 6.743-6.301 11.864-10.087m212.629 36.633c4.45 4.802 13.54 13.257 7.64 19.78-8.08.403-11.11-7.454-14.58-13.536zm-67.017 84.583c-1.983-6.926-4.483-13.491.288-19.857 8.009-1.193 9.119 11.712 10.129 17.282-4.469 1.511-5.691 1.871-10.417 2.575m97.747-20.777 9.54-5.829c3.11 4.008 6.01 9.059 8.69 13.44-3.06 3.448-3.97 4.626-7.92 7.282-4.74-5.577-6.51-8.546-10.31-14.893M884.579 239.4c4.151 2.027 5.915 2.489 6.598 7.196-1.266 4.143-5.986 8.526-9.09 11.842-3.234-1.91-3.612-2.235-5.979-5.151-1.405-7.473 2.478-10.178 8.471-13.887m-78.485 99.486c4.05 2.248 5.513 3.874 8.782 7.008-3.599 5.551-4.861 7.666-9.549 12.209-4.279-2.486-6.505-3.044-7.455-8.178 1.286-4.341 5.021-7.577 8.222-11.039m174.818-91.114c4.222.437 3.271-.234 6.376 1.934 3.081 5.942 4.674 12.29-.303 17.514-4.517-.455-3.675.305-6.654-2.114-2.63-5.647-4.884-12.801.581-17.334m-101.545-38.04c2.079.48 2.804 1.509 4.601 2.99 2.883 7.422-4.458 11.354-9.864 15.251-3.729-3.226-5.808-4.237-5.696-9.177 2.275-3.833 7.1-6.482 10.959-9.064m101.966 60.473c1.843-.185 4.166-.502 5.953-.163 6.552 1.242 5.94 13.157 4.935 17.496-13.395 4.024-10.789-7.498-10.888-17.333m-3.244-42.115 5.463.013c5.755 4.268 5.792 13.375-.028 17.932-1.626-.106-4.551.133-5.466-1.247-3.464-5.22-5.308-12.428.031-16.698m-145.102 17.716c3.352 2.372 5.55 5.801 8.069 9.12-4.178 4.119-5.564 5.158-10.47 8.415-1.801-.18-4.202-1.462-5.473-2.705-5.653-5.527 4.221-11.98 7.874-14.83m-28.861 24.092c3.412 2.162 5.759 5.265 8.38 8.332-3.388 3.415-7.96 6.966-11.742 10.064-3.291-1.145-5.402-5.172-7.299-8.08 3.387-3.821 6.891-6.889 10.661-10.316m41.083 18.993c2.139 1.749 5.572 4.38 7.413 6.265-3.123 4.771-6.208 9.985-10.347 13.848-2.562-1.834-5.265-4.304-7.68-6.393 3.734-6.321 5.451-8.429 10.614-13.72m141.821 26.316c11.961-1.532 13.68 5.817 11.572 16.226-13.455 4.385-11.086-5.85-11.572-16.226m2.022-23.609c1.117.262 2.543.772 3.667 1.132 3.387 4.642 4.354 10.154 2.715 15.644-.601 2.011-2.789 2.424-4.597 3.249-7.716-1.998-7.08-10.09-5.864-16.822.34-1.886 2.277-2.258 4.079-3.203m114.108 60.716c2.78-1.834 5.39-3.959 8.02-6.014 4.21 5.429 5.83 8.021 8.82 14.307-2.89 2.348-4.89 4.11-8.15 5.997-3.02-3.897-7.5-9.599-8.69-14.29m-233.623-95.816c4.503.685 6.166 3.073 9.38 6.272-3.712 5.242-5.446 7.177-9.985 11.776-4.419-1.116-6.117-1.547-7.149-5.966 1.071-4.587 4.728-8.321 7.754-12.082m-12.241 16.068c4.383 2.289 6.443 2.484 7.218 7.711-1.131 3.994-5.173 7.865-8.08 11.172-13.452-3.848-4.493-12.436.862-18.883m-25.843 32.931c3.247 2.349 6.075 4.171 8.798 7.131-3.648 6.1-5.684 11.514-13.629 10.274-5.063-6.822.517-11.908 4.831-17.405m-19.59-99.634c4.036.963 5.688 3.789 5.92 7.568-2.923 5.719-5.279 5.798-11.402 7.87-3.474-2.642-5.75-4.624-5.221-9.013 2.667-3.493 6.534-4.601 10.703-6.425m19.866-8.911c2.759 2.539 3.932 6.063 5.517 9.569-4.337 3.124-8.115 4.913-12.86 7.33-3.464-3.802-5.256-5.75-3.543-10.74 2.949-3.322 6.696-4.392 10.886-6.159m-13.862 126.496c4.541.819 7.087 1.568 8.265 6.061-.916 4.299-4.407 7.551-7.358 10.912l-1.275.435c-3.629-1.002-5.487-3.165-8.361-5.694zm1.392-65.688c3.354 1.352 5.42 5.534 7.336 8.631l-9.878 8.875c-3.195-1.752-5.978-5.21-8.542-7.958 3.007-2.991 7.724-6.727 11.084-9.548m293.961 111.192 9.31-4.694c3.28 4.191 5.63 7.202 8.43 11.712l-8.25 6.019c-4.77-4.588-6.27-7.293-9.49-13.037"/><path fill="#fefefe" d="M684.742 191.5c5.833-.548 12.82-.712 18.76-1.008.85 17.991 3.369 45.601 5.534 63.592-5.262 2.916-10.595 4.865-9.982 11.788 3.578 4.34 7.032 2.963 12.108 2.183 1.707 22.422 4.017 53.061 7.097 74.988-3.638 2.168-5.074 3.053-8.406 5.824-1.504 3.54-1.174 2.107-.571 6.203 2.761 3.194 3.401 2.547 8.003 3.786l1.858 2.056c2.76 20.691 5.993 59.964 7.418 78.861-8.55 7.929-11.05 15.635-20.085 24.537a1589 1589 0 0 1-8.987-92.877c6.928-3.238 12.173-5.395 12.493-14.023-1.764-2.997-.705-2.037-4.444-3.303-4.143.279-6.138 2.261-9.58 4.718a2224 2224 0 0 1-8.806-80.77 43 43 0 0 0 1.713-.549c3.908-1.365 5.463-2.562 7.195-6.209.176-3.069-.408-3.451-2.231-6.175-2.957-1.683-3.637-.97-7.498-.665-5.769-6.259-2.569-41.361-10.542-48.507-5.984-.809-40.994 2.838-48.826 3.528l-100.155 8.302-233.124 19.143-69.844 5.837c-16.476 1.381-32.443 2.159-48.674 5.244-7.695 9.244-1.425 54.783-.342 68.749 1.063 24.808 4.122 54.598 5.938 79.712l15.322 203.941-26.746 3.415c-1.576-37.122-7.064-83.63-9.997-121.682L138.96 235.321c17.51-.557 40.022-3.092 57.715-4.619l99.517-8.264zm217.374-59.944 35.075-1.185c-1.095 6.496-1.081 11.215-1.195 17.738-18.882 11.432-33.077 9.562-54.503 10.602l-68.899 3.174c-13.257.544-32.258.715-44.63 2.635-.801 13.283 2.564 46.475 4.15 60.519-2.937 1.288-4.785 2.315-7.567 3.922l-.508 2.506c1.121 3.277 3.653 3.947 6.071 6.024 4.556 3.914 6.741 46.08 7.513 54.557l-6.28 5.552c-.063.899-.118 1.8-.065 2.702.221 3.752 2.698 5.146 5.213 7.431 5.844 5.309 6.719 46.705 7.436 57.221-1.114 1.685-1.887 3.307-2.798 5.098 1.238 7.256.125 5.053-5.406 8.72-4.234 2.807-6.934 4.365-6.486 9.632 2.072 2.738 2.36 3.05 5.486 4.443 5.319-1.349 7.859-7.423 10.966-12.435 4.446 29.101 5.604 60.963 8.754 90.441 3.322 31.088 6.089 61.289 3.98 92.33-.399 5.865 2.801 9.906 6.101 14.138.451 10.042 2.046 50.297 6.981 60.357 1.107 2.257 12.739 1.321 16.409 1.167.654 5.543 2.444 13.464.578 18.23-2.83 2.79-3.637 2.069-8.254 2.672a2600 2600 0 0 1-40.976 3.504c-1.451-29.904-5.865-65.591-8.616-95.848a6933 6933 0 0 1-11.711-152.476c4.972-5.674 9.214-10.906 13.876-16.797-2.744-3.389-2.623-4.283-6.374-5.834-3.345.851-5.486 4.179-7.903 6.986-3.429-18.018-4.563-50.687-6.913-70.63 3.244-2.723 5.701-3.616 6.001-6.847-.88-3.134-2.229-3.733-4.892-5.725l-.978-.725c-1.01-2.22-2.331-13.974-2.263-16.51.261-9.816-7.554-46.904-1.14-53.405 1.793 1.134 1.922 1.114 3.965 1.763 4.319-1.473 9.298-4.772 13.32-7.202l-4.395-9.67c-7.76 2.334-10.621 3.315-16.721 8.596a3659 3659 0 0 1-7.896-99.836c52.832-3.483 112.412-5.498 165.494-7.535"/><path d="M765.432 302.781c3.778-.078 6.161 4.826 8.067 7.677-4.796 4.197-6.379 5.295-11.881 8.539-2.425-.759-5.579-4.446-7.548-6.422 4.046-4.356 6.587-6.184 11.362-9.794"/><path fill="#fefefe" d="M831.098 681.474c4.271-.178 6.263 6.908 9.773 11.088 13.337 15.882 26.913 22.351 45.618 28.872 1.515 11.36 2.291 23.729 3.579 35.314-57.22 11.963-121.602 33.034-166.514 71.48-6.37 5.726-14.39 14.822-20.293 21.298-4.803-50.252-13.487-105.318-19.694-156.199 48.849-3.426 98.432-8.211 147.531-11.853"/><path fill="#fefefe" d="M900.329 569.982c1.647-.103 4.609-.291 6.2-.144a17.6 17.6 0 0 1 11.933 6.182c4.672 5.45 6.372 14.13 5.562 21.066-2.408 20.61-8.444 20.026-21.358 31.183-3.25 9.15 4.621 25.595 9.024 33.586 10.736 19.483 25.181 41.076 44.975 52.088 8.646-3.142 11.093-5.965 17.85-11.951 16.739 8.621 25.042 8.607 38.015-6.103 9.05 6.767 16.47 12.159 24.6 4.678 2.38-2.191 12.05 2.648 15.53 3.992 2.67 12.306 4.69 29.823 6.52 42.585-5.02-.75-10.35-1.019-15.43-1.371-43.01-3.482-91.859.497-134.194 7.585-.744-26.302-1.721-47.163-27.931-56.372-6.961-3.024-14.469-7.114-19.867-12.416-14.768-14.503-14.057-36.54-14.801-55.688-.721-18.563-.832-37.125-.884-55.69 11.773.114 24.779-1.112 36.343.012 2.447 1.78 2.812 2.072 5.579 3.211 3.766-.782 8.855-4.308 12.334-6.433m315.381-452.407 16.47-.727c.75 7.101.63 14.606.98 21.78 1.72 35.638 3.64 71.281 5.94 106.884.34 5.238.16 9.45-3.6 13.412l-3.58 3.752c-.7 3.193-.79 3.045.44 6.006 2.82 2.413 4.83 2.613 8.42 3.577.9 22.128 2.06 44.245 3.49 66.345l-11.73-7.272-6 9.131c6.7 5.721 17.6 9.806 18.55 19.321 4.46 44.653 4.69 91.286 10.01 135.743-8.67-1.11-18.22-2.815-26.93-4.181-1.98-11.931-11.58-145.976-9.58-151.748 1.49-4.312 6.4-3.382 9.91-5.195 1.07-2.451.82-2.626.39-5.227-3.02-3.599-9.04-7.304-13.12-10.093l-4.02-60.223c6.02 2.621 14.55 7.61 19.92 2.067-2.57-9.134-13.58-12.466-21.51-15.785-1.67-30.436-4.09-73.341-7.38-103.289-15.93-.767-41.06 1.158-57.67 1.991a5384 5384 0 0 0-92.99 4.921c-10.24.627-45 3.39-53.282 2.106-2.42-10.176-.369-11.84-4.699-23.513 27.281-1.821 56.181-2.535 83.591-3.728zm411.23 466.268c14.6 2.04 19.88 16.262 17.71 29.246-1.89 11.311-5.44 15.977-14.35 22.684 18.58 49.965 76.05 52.125 121.6 52.361.96 5.093 2.66 10.667 4.06 15.709-13.86-.75-27.58-.614-41.46-.41-31.12 1.3-55.33 4.512-85.4 13.234.02-7.852 1.15-17.922-1.04-25.466-2.63-9.028-22.45-2.366-34.25-19.043-12.82-18.113-8.18-62.075-4.5-83.107 9.82 1.38 16.47 1.955 25.74 5.644 4.38-5.279 5.93-7.488 11.89-10.852m-245.27 110.593c18.49 1.557 40.71 5.109 59.45 7.45l106.66 12.881c20.41 2.452 43.58 5.696 63.93 6.679a1177 1177 0 0 1-31.04 8.839c-60.83 16.436-121.99 21.256-183.65 31.182zM728.911 454.908c2.461 2.409 9.551 71.684 10.402 80.058a6138 6138 0 0 0 14.349 130.048c-20.672 2.548-48.533 4.287-69.417 5.781l-1.949-.074c-3.272-2.887-4.171-19.53-4.704-24.648 8.068.138 36.038-.267 42.553-2.943 4.985-6.613.733-31.319-.144-39.855l-6.364-61.825c-1.111-10.98-7.619-62.717-3.106-68.246 6.844-.755 13.187-5.371 9.921-12.509 3.841-2.039 5.166-3.147 8.459-5.787m495.669 49.31c42.16 4.995 59.3 17.041 89.66 46.041 20.02 19.129 23.53 26.425 32.2 52.478-18.16 3.011-24.61 5.741-40.54 14.925-15.88-19.692-24.85-20.851-44.73-34.749-4.14-3.443-6.08-5.279-9.64-9.087-4.41-4.714-11.05-18.442-15.2-20.551-2.2.691-2.86 1.03-5.22.966l-.64-1.722c1.27-1.562 2.33-2.987 3.52-4.601-.27-3.686-1.46-4.318-3.71-7.688l-.33-13.678c7.85 3.811 15.72 7.552 23.64 11.223.79 3.363 1.02 4.184 1.12 7.596-2.05 1.85-6.6 5.456-7.46 7.556-5.31 12.957 12.79 24.037 22.61 27.881 3.48 1.367 4.1 1.103 7.05-.101 5.46-7.838-2.23-23.582-3.71-31.771-4.48-24.832-26.4-21.546-42.81-34.583-4.12-3.269-5.18-4.884-5.81-10.135m9.45 67.252c8.34 5.961 14.82 20.443 28.5 30.548 1.72 8.884 2.53 22.874 3.85 32.746-43.36 3.933-95.58 5.129-139.63 7.299-9.32.686-18.62.902-27.96 1.192 1.21-7.728 2.35-15.464 3.45-23.207 14.85-.019 33.33-1.574 48.45-2.423l85.59-4.787c.03-12.388-1.48-28.728-2.25-41.368m-384.457-63.137c9.308 8.98 15.188 12.476 25.727 19.95.733 6.279 3.595 26.861 2.882 32.024l-2.43 1.001c-8.591.749-20.472.687-29.324.874a822 822 0 0 1 3.145-53.849M962.44 127.037c8.347-2.529 17.186 2.074 19.9 10.362s-1.69 17.228-9.916 20.126a16.044 16.044 0 1 1-9.984-30.488"/><path d="M962.577 132.845c5.291-2.433 11.553-.123 13.997 5.162s.148 11.553-5.132 14.008c-5.297 2.463-11.587.159-14.039-5.143s-.133-11.587 5.174-14.027"/><path fill="#fefefe" d="M1592.68 543.971c19.79 10.637 25.49 13.294 19.3 38.358-.25 1.016-1.83.947-2.75 1.112-24.62-2.121-11.98-1.344-21.34-16.682l-.6-.959c2.21-6.356 3.89-15.101 5.39-21.829m-766.868 31.706 2.057-.052 1.299 1.578c.473 4.019-1.149 47.251-1.797 52.866-2.179 1.484-6.785 1.062-9.681 1.078-2.33-13.887-3.969-40.384-5.182-55.205zm-3.811-28.267c3.216-.505 4.806-1.011 7.23.947 1.76 4.889.202 12.973-.299 18.624l-14.182-.06c-4.461-.108-3.488.604-6.212-1.703-2.129-4.297-1.726-11.59-1.815-16.655zm740.169 26.05c5.94.717 10.29 1.808 16.13 3.224-.12 5.986-.77 10.507-1.57 16.465l-15.82-3.113c-.09-5.975.56-10.633 1.26-16.576"/><path d="M1275.07 277.232c5.23 1.456 11.63 3.643 14.79 8.037.89 4.307.33 3.596-1.53 8.345-11.68-2.294-16.91-4.54-13.26-16.382m19.84 10.075c4.49 1.702 10.29 3.193 13.01 6.825.96 4.594.34 4.076-1.16 9.073-4.49-1.815-10.59-3.641-13.42-7.23-1-4.196-.17-4.131 1.57-8.668"/></svg>