<svg xmlns="http://www.w3.org/2000/svg" preserveAspectRatio="none" style="display:block" viewBox="0 0 2048 1462"><path fill="#fefefe" d="M0 0h2048v1462H0z"/><path d="M1237.21 52.186c18.36-.774 77.91 16.18 83.58 34.22 9.06 28.806-9.6 84.496-18.8 113.502-5.03 15.881-14.95 33.708-20.54 50.163 39.3.699 78.56-2.944 117.06-10.863-9.51-19.031-27.21-57.277-26.18-78.884.16-3.391 22.59-4.166 27.23-4.861 42.65-6.244 81.2-25.466 118.04-43.273 16.08-7.771 48.7 118.108 52 130.326 10.64 6.332 25.59 19.166 36.45 26.691 9.42 6.521 24.67 15.659 32.55 22.533 4.58 14.456-75.94 114.661-88.49 118.754-9.62-.304-41.25-19.832-48.96-25.944 2.18 6.08 4.18 12.621 6.09 18.811 11.36 36.808 27.08 70.784 43.95 105.305-9.42 9.393-48.66 23.04-63.04 29.168-26 11.072-55.55 24.512-82.36 32.973 7.98 32.148 22.82 68.472 36.41 98.896 5.12 11.472 15.35 24.756 17.71 36.743.33 1.674.34 2.14-.72 3.575-8.06 10.979-134.15 62.854-151.23 64.565-1.96.197-2.79-.08-4.29-1.367-18.47-15.916-53.07-123.337-55.01-149.514-7.22 1.359-16.69 4.27-23.04 1.223-15.77-18.256-23.45-154.962-12.78-185.97 1.31-3.82 60.01-3.731 69.06-3.9-2.49-11.389-7.43-27.172-10.7-38.71-9.79-34.488-16.14-65.955-15.14-102.018-11.4 14.904-19.31 31.436-29.86 46.544-35.35 50.643-70.64 88.846-117.26 129.629-3.89 52.456-.35 105.16 2.74 157.507 3.08 52.014-.47 104.907-.53 156.864a4471 4471 0 0 0 5.83 197.858c1.01 18.688 1.02 49.658 3.03 66.408 9.28 1.9 45.4.46 56.86.44l123.21.55c16.57 8.26 9.6 24.58 9.25 38.67-.54 21.12-15.76 129.14-11.4 140.54 23.98-1.2 47.99-1.64 72-1.32 7.6.03 29.04 2.03 33.68-1.74 1.29-2.88.84-3.89.8-7-.19-14.09 7.24-7.79 11.53-12.24.63-4.34 1.01-12.44-.9-16.52-1.36-2.91-4.64-3.27-7.75-4.26-3.6-4.3-1.43-56.59-.85-64.83 9.98-1.41 30.75-1.01 41.54-1.06l75.56-.2 250.12-.23c10.07-18.17 27.84-68.93 35.14-90.43 2.4-7.06-6.8-9.3-.53-25.92-24.02-28.402-51.03-57.861-75.98-85.528l-86.65-95.996c-10.81 23.21-31.26 132.624-42.71 144.718-7.24 2.914-21.62-.181-29.4-2.158-43.08-10.938-84.47-30.105-118.13-59.464-5.76-5.025-12.91-10.624-16.83-16.986 3.41-6.394 7.1-10.217 12.02-15.373 36.07-37.784 70.3-77.233 106.17-115.19 5.78-6.115 11.77-12.743 18.14-18.194a47.56 47.56 0 0 1 35.8-11.462c14.22 1.296 24.36 7.762 32.96 18.67 14.32 18.155 12.15 30.955 9.84 51.792-.08-.057 22.9 26.011 25.45 28.768 47.6 51.534 93.49 104.764 140.89 156.55 9.68 10.572 24.68 8.172 31.03 21.603 1.73 3.64 1.35 7.33 1.25 10.56-.42 13.27-14.76 14.17-17.29 19.19-13.16 26.06-24.38 57.37-34.75 84.63 9.94-.42 26.44-2.54 35.7 1.37 1.5.63 3.48 4.11 3.19 5.74-2.98 16.44-4.28 30.9-1.76 47.56l.23 1.44c7.28.42 14.4-.65 17.29 7.15-.72 8.14-7.39 3.83-11.42 8.34-.22 3.55 2.23 37.38 2.95 41.04q2.1.99 4.17 2.04c3.88 1.97 5.58 2.81 6.89 6.77l-1.45 2.31c-4.42 2.76-5.79 2.89-10.81 4.03l-2.87-.08-1.15 1.5c-.03 5.57-.95 13.32.23 18.24l1.32.48c2.42-1.67 2.54-1.78 5.24-2.84 5.32 2.15 21.87 15.6 27.1 19.77 31.59 25.21 65.78 48.49 96.83 74.18-.81 13.69 6.18 42.26-13.88 41.52-17.08-.64-34.07-.5-51.15-.45l-147.13-.13-335.07.31-1260.462.08-52.402.03c-35.88-.03-29.345.46-29.714-34.88 26.989-40.01 74.462-80.98 106.294-118.54 2.807-3.31 30.514-30.74 30.411-30.29 4.133-17.97-.462-37.81 1.548-57.13 6.635-1.02 11.394-.78 18.037-.65-3.267-15.77-18.141-84.29-15.084-94.65 3.882-4.84 31.822-9.88 41.021-13.36l1.202-.46c-1.93-6.87-5.409-16.71-3.929-23.46 2.534-4.2 6.45-5.95 10.959-7.42 6.055-1.96 14.442-3.61 20.233-.24 8.442 4.91 19.824 66.07 22.58 78.47 4.617-14.69 6.855-34.53 10.73-49.8.523-2.06 1.42-4.66 3.383-5.53 5.272-2.33 22.717-1.63 27.657.04 17.82 6.01.681 34.86 5.006 42.96 2.59.55 1.996.28 4.909-.7 4.295-9.09 3.765-22.84 6.093-32.95.67-2.91 1.407-5.32 4.204-6.8 5.489-2.9 15.107-2.81 20.904-.88 12.642 4.21 4.62 21.5 7.79 30.92 1.511 4.49 7.191 4.01 8.957 8.24 2.107 5.05-12.353 65.63-15.44 73.63 12.496 13.15-5.116 37.09-.92 46.56 4.424.3 19.132-2.46 24.326-3.3l54.322-8.96c8.568-1.5 26.102-5.3 33.662-5.2 37.03.49 74.234 2.78 111.238 3.79l98.402 2.9c14.201.42 28.543.5 42.726 1 3.254.61 6.184-.35 8.421 2.6 5.894 7.77 5.124 22.69 4.863 31.85 19.05.57 37.617 1.22 56.689 1.14-7.034-41.81-9.233-80.54-12.082-122.77-5.097-75.58-8.083-152.623-2.929-228.247 1.93-28.319 3.804-58.251 8.287-86.31a2577 2577 0 0 1 17.349-96.65c12.841-62.942 25.515-123.395 27.182-187.948.448-17.347 3.429-35.277 2.824-52.663-27.587-31.631-39.258-52.213-59.807-86.988-42.356-70.018-72.617-146.956-83.702-228.281-2.172-15.935-9.508-53.446 4.41-64.005 20.387-15.468 64.474-21.016 89.889-20.045 3.752 2.233 8.014 5.188 9.768 9.218 9.344 21.458-29.739 33.63-42.156 39.489 8.097 74.577 52.38 168.677 93.75 231.61 6.236 9.487 18.892 24.059 26.461 33.369 1.719-33.182-6.673-53.261 33.229-63.065 10.159-32.454 32.602-49.344 66.481-28.569 2.01 1.432 14.77 14.602 15.77 14.69 10.06.884 16.71-.59 27.44 2.736 15.85 15.366 13.83 25.86 8.59 45.417 16.97 14.666 7.51 32.72-11.98 37.654-4.91 12.447-8.46 17.366-15.74 28.549 10.78-3.455 20.5-7.18 30.28-13.072 18.55-11.188 37.12-25.387 51.93-41.258 49.23-52.738 121.19-179.817 138.33-249.689-13.78-5.318-34.93-15.652-39.62-30.94-4.02-13.093 10.91-17.139 20.11-19.066"/><path fill="#fefefe" d="M218.779 1233.2c5.834 6.91.193 89.38 6.679 100.25 8.077 13.53 79.009 14.79 92.066 14.19 25.491-1.15 45.768-2.7 69.369-10.77 6.812-2.48 3.536-15.88 5.129-21.45.621-.51 1.242-1.01 1.863-1.52 60.946-.88 125.088 4.63 185.72 6.28 21.789.6 43.88 3.91 59.5-.33 27.253-7.37 54.12-15.9 80.928-24.79 16.022-5.31 33.315-8.94 48.731-15.92 4.684-2.12 6.538-5.28 9.13-9.45-.011-9.21-.076-19.61-.939-28.76 9.063.8 85.85-1.03 86.859 1.04 10.047 20.69-1.478 46.91 17.337 66.74l-.753.99c-2.38 3.08-3.659 4.1-3.932 8.03.806 1.86.89 2.56 2.837 3.47 7.458 3.46 211.117-.08 238.947.18 23.48.22 155.18 3.83 167.94-.61l.64-1.82c-1.17-3.31-3.19-4.31-6.06-6.47 11.43-9.23 13.79-14.94 14.49-29.76.66-13.91 1.05-27.53.97-41.48 23-.94 46.91.1 69.99-.25 13.5-.21 28.09.09 41.55 1.02.53 12.82 11.09 89.58 14.61 97.32 1.74.56 3.53.99 5.33 1.28 7.84 1.24 63.25 1.81 67.24-1.13 5.72-7.81 6.32-24.6 7.49-34.79 43.15 2.36 105.78 1.02 149.44-.46-6.35 7.07-19.1 24.85-11.14 33.75 3.24.81 162.39.59 172.32-1.43 6.84-10.05-7.11-25.64-13.71-32.51 11.53.14 23.41.46 34.9-.17 7.37.06 18.68 2.23 21.98-5.34-.63-4.55.12-3.11-2.4-6.25-3.97-2.2-8.94-1.93-13.59-2.14-.85-6.38-1.24-12.47-1.69-18.88 11.62 11.47 25.19 20.39 37.57 30.54 25.65 21.03 57.89 42.17 82.57 63.56-10.27-.66-26.99-.1-37.56-.06l-82.4.44c-91.79-.61-183.58-.64-275.37-.11l-701.555.3-542.127-.81-147.477-.01c-18.108 0-58.031-.98-74.35.75 14.661-18.06 29.218-32.06 44.216-49 25.366-28.66 50.572-55.74 76.712-83.66"/><path fill="#fefefe" d="M1073.1 1061.61c11.62 1.89 54.54.86 68.6.8l111.95.35c7.68 0 36.95-.56 42.43 1.21 2.95 6.68-2.2 39.25-3.22 48.9-4.17 39.4-7.19 78.77-9.89 118.26-.95 13.94-.77 51.25-3.67 62.59-1.7 2.13-3.1 4.53-5.62 5.15-8.04-2.22-20.55.03-30.15-.09l-84.36-.35c-23.5-.18-49.53-.94-72.81-.2-1.86.9-2.33 1.53-4.26 1.23-15.17-2.36-32.39-.88-47.87-.92l-103.088-.35c-12.068.06-25.468.29-37.652.18-1.652-.01-6.208-2.45-7.828-3.36-4.937-28.39-6.379-61.44-9.127-90.71q-7.028-70.635-15.013-141.18c58.325-1.47 115.522-.37 173.768-1.21 6.21-.09 33.97.87 37.81-.3"/><path d="M1073.36 1173.67c5.44-2.46 11.85-.05 14.32 5.39 2.47 5.43.08 11.84-5.35 14.34-5.45 2.5-11.9.1-14.38-5.37-2.49-5.46-.06-11.9 5.41-14.36"/><path fill="#fefefe" d="M1267.81 106.132c13.82 4.541 27.42 7.145 41.51 10.827-5.39 28.138-14.21 65.926-25.77 92.339-36.57 83.57-90.09 163.284-156.27 226.241-11.12 10.571-23.46 19.501-32.09 32.284.03 29.952-1.99 57.985-1.09 88.76l3.8 103.096c.45 13.408 1.63 28.667 1.42 41.769-31.22 1.728-61.77.228-92.77-1.615-30.849-1.833-18.033-25.167-29.596-29.778-11.24 5.002-7.845 29.244-38.834 30.715-28.552 1.355-53.182-1.119-81.634-3.293 4.385-9.907 7.201-27.38 9.497-38.489a966 966 0 0 0 15.882-117.11c1.827-28.285 2.037-62.144 5.183-89.752-6.291-8.87-15.489-19.513-22.373-28.807-16.207-21.88-27.039-40.188-39.735-63.776-48.121-82.262-74.57-155.604-87.32-250.505 9.986 1.151 30.312.621 40.785.25 10.324 68.026 42.16 142.301 76.655 201.851 25.718 44.4 55.208 88.043 105.286 106.356q-.198 1.193-.379 2.39c-4.591 30.355 10.795 79.008 52.013 53.512 14.17-8.767 19.52-37.08 21.49-53.365 15.01-2.673 29.39-9.808 42.46-17.479a239.7 239.7 0 0 0 52.07-41.301c56.54-59.019 119.33-176.548 139.81-255.12"/><path d="M1271.56 121.4c8.88 6.124 24.42 4.693 28.22 11.108l-1.11 2.645c-8.61 1.279-20.3-1.133-27.19-6.6-1.67-3.578-1.19-2.327.08-7.153m-502.132 1.949 1.624.341c2.651 2.39 1.83.967 2.632 4.368l-1.335 1.73c-4.468 2.25-11.54 2.72-16.711 3.37-3.647-1.133-5.508-1.61-7.03-5.15 3.046-3.728 14.736-3.629 20.82-4.659m209.347 365.437c5.628-.072 10.196-.887 14.448 2.424.547 3.814.484 2.471-1.145 6.431-4.056.548-8.468.141-11.844-2.335-2.101-3.596-1.612-1.954-1.459-6.52"/><path fill="#fefefe" d="M1307.58 447.554c5.93-.238 52.07-2.627 52.19 3.437.52 25.956-.53 50.942 2.91 76.947 3.11 23.471 4.1 47.688 11.95 70.26-25.04.22-66.91 7.214-94.39 9.425-11.04.423-36.21 2.136-46.3 4.366-2.18-18.205-7.64-38.607-9.57-58.588-3.42-35.583-3.67-67.717-2.16-103.221 28.74-2.444 56.79-1.615 85.37-2.626m203.03-241.893c41.82 39.346 63.17 61.064 112.78 91.728-17.99 33.024-45.87 63.425-69.6 92.598-2.01 2.48-3.94 5.003-6.86 6.392l-2.19-.807c-33.51-13.13-66.88-43.096-89.7-70.236-8.49-10.095-18.15-21.103-27.85-29.954 6.29-7.162 14.51-14.05 21.14-21.054 22.5-23.762 42.63-42.33 62.28-68.667"/><path d="M1509.77 246.294c.79.187 3.71.667 4.08 1.259 10.74 17.096 21.35 48.866 24.97 68.981.11.641-.49 3.832-1.46 4.024-14.92 2.956-54.16 3.175-67.78 1.363-5.02-.838-9.8-.634-12.09-5.465l1.14-2.313c1.96-.953 62.64-3.728 68.47-3.377-5.46-17.582-12.34-34.271-17.93-51.741-1.93-6.056-2.34-7.368.6-12.731"/><path fill="#fefefe" d="M1376.55 535.49c8.59 10.403 23.05 68.361 30.73 86.978 11.78 28.583 21.83 53.901 36.61 82.133-36.7 19.896-92.3 40.431-131.25 55.478-.9-.131-1.51-.613-2.39-1.093-14.45-20.98-30.94-70.117-39.94-95.515-2.25-6.358-7.24-32.396-8.6-40.057 18.1-2.887 120.96-8.098 127.61-16.774 1.01-1.315.55-3.067.29-4.644-3.63-22.121-11.16-41.394-12.95-65.07z"/><path d="M1352.76 616.161c2.08.656 2.55 1.158 4.33 2.395 1.14 2.049 1.88 3.888 1.49 6.282-4.01 24.556-24.22 74.079-42.76 89.728-2.4-.475-2.42-.693-4.33-2.115-3.91-9.353 11.49-24.16 15.87-33.52 8.02-17.138 14.21-34.403 19.62-52.509 1.21-4.019 2.26-7.717 5.78-10.261m52.87 76.754 2.96.585c2.71 3.003 2.42 1.836 2.97 5.306-3.7 6.622-26.35 13.191-34.57 16.216-2.18.544-1.09.555-3.34-.212-2.24-3.969-2.2-2.507-1.41-6.125 4.1-4.55 25.73-12.313 33.39-15.77"/><path fill="#fefefe" d="M1401.53 252.295c2.75-.468 4.17-.302 6.98-.183.48.379.95.758 1.43 1.137 3.61 21.132 2.31 52.085 5.79 72.463 4.66 27.324 9.75 50.363 20.49 74.661-24.89 8.059-102.42 23.653-127.5 24.786-4.46.587-10.13.854-14.72 1.189-4.95-14.786-17.49-60.054-20.17-75.359 1.27-4.101 2.54-.136 5.93-4.07 29.76-34.443 67.53-60.843 102.69-89.336 5.57-4.51 11.89-4.336 19.08-5.288"/><path d="m1397.99 287.725 3.27.81c2.73 2.834 2.13 1.407 2.4 5.146-22.87 24.411-53.22 42.646-77.06 66.286-10.86 10.77-22.09 21.141-33.6 31.214-3.72-1.064-5.78-1.404-6.82-5.299 5.34-17.245 92.07-83.174 111.81-98.157m-1.37 97.443c4.11-.09 2.52-.571 5.95 1.942l-1.53-1.867 1.49 2.154-1.14 2.667c-6.61 4.79-8.58 4.551-16.65 5.591-3.84.818-4.15-.66-5.73-3.254l.48-1.986c3.94-3.067 11.96-4.134 17.13-5.247"/><path fill="#fefefe" d="M392.246 1287.61c.702-4.23 3.229-23.19 4.13-25.14 14.247-3.76 69.722-5.6 74.957-9.85l.056-1.94c-7.585-7.27-64.501 2.11-76.759-.36-1.793-4.07-1.095-9.6.088-13.75 7.656-1.66 56.411-.32 66.333-.06a5767 5767 0 0 1 157.779 5.67c.321 22.77 2.09 44.47 2.67 66.81a9589 9589 0 0 1-109.88-4.25c-13.605-.59-34.853-.59-47.588-2.16-6 .5-64.63-1.92-69.13-3.29l.15-1.05c20.916.09 50.62 1.34 70.681.08 11.468.15 78.329.73 83.752-3.27l.127-2.35c-8.193-8.78-108.747-2.99-126.753-4.88-5.929-.62-23.553-.23-30.613-.21"/><path d="M431.133 1266.29c11.546-.87 62.502-.89 72.206 3.48l.119 2.16.276-1.82-1.383 2.55c-5.505 2.51-6.299 2.67-12.348 3.07-.211-.03-.422-.06-.632-.1-10.834.92-64.917 4.49-71.285-3.14 2.276-4.85 8.352-5.47 13.047-6.2m86.297-14.23c8.872 1.02 40.174-1.17 44.011 4.48l-.67 1.73-2.998 1.31q-2.347.27-4.707.36c-8.623.32-35.266 1.88-40.557-3.1l.125-1.76c1.452-1.66 2.812-2.09 4.796-3.02m48.762 16.82c12.406 2.34 29.16 1.4 41.984 2.51.548.54 1.096 1.08 1.644 1.61l-.105 4.22c-10.188 1.99-31.967 1.25-41.927-2.22-2.372-2.71-1.691-1.53-1.596-6.12"/><path fill="#fefefe" d="M1511.92 1187.26c6.09.45 16.5.1 23.08.24 23.25.44 46.51.67 69.76.68 47.06.71 94.12.93 141.18.67-2.16 5.02-2.86 8.2-4.17 13.53-7.72-1.29-23.84-3.5-29.06 3.67.1 6.29 7.51 7.2 12.54 6.99 3.36-.65 4.41-1.07 7.7-.53l1.06 1.8c-.04 4.18-5.38 15.83-7.33 20.88-14.62-2.09-37.91-1.25-53.27-1.03-31.14.57-62.27.97-93.41 1.21-12.81.07-26.62 1.14-39.17.35-1.35-5.31-5.04-11.89-10.22-14.51-6.58-3.33-11.06-.46-17.14 1.31-1.63-6.03-1.49-27.8-1.55-35.26"/><path d="M1620.26 1202.07c5.89-.58 48.44-.55 50.94 1.02 1.49 2.69.91 4.13.49 7.38-5.96.73-46.6 2.37-49.94.38-1.92-3.27-1.53-4.96-1.49-8.78m-57.58-.89c7.73 1.23 28.05-2.38 30.05 6.15-1.03 3.23-1.18 3.3-3.76 5.64-9.49-1.72-21.32 1.25-29.08-3.03-2.28-3.02-1.72-1.58-1.89-5.38 1.63-2.83.94-1.9 4.68-3.38"/><path fill="#fefefe" d="M976.139 771.483c3.036 2.743 1.375 38.85 1.584 46.162 2.173 75.813 7.946 157.237 24.067 231.455-12.085-.71-24.877-.3-37.035-.14-2.839.7-23.329-.24-26.964-.47-.659-4.15 1.24-19.64 1.515-25.19 3.638-73.604 10.3-148.764 27.52-220.552 2.598-10.834 4.588-21.249 9.313-31.265m581.521 360.927c17.44 1.52 49.9.11 68.54.13l141.79.56c-1.8 6.76-8.2 23.05-10.87 30.59l-4.45 10.26c-49.03 2.22-98.59.6-147.64.92-15.73.1-32.39.67-47.95-.85.29-9.1-2.35-36.94.58-41.61"/><path d="M1661.17 1145.28c11.09-1.2 35.81-.43 47.78.63 2.66.24 3.48 1.78 4.44 3.61-.87 2.39-1.71 2.61-3.87 3.97-9.73.86-44.03 4.86-49.24-1.33-.62-3.35-.38-3.57.89-6.88m-57.59-.01c8.36-.38 24.23-2.11 31.44 1.36 2.45 2.9 1.87 1.49 2.11 5.36-1.65 2.75-.92 1.84-4.37 3.33-8.7.48-27.25 4.01-31.57-4.16.27-3.15.46-3.25 2.39-5.89"/><path fill="#fefefe" d="M1028.35 310.67c6.19 3.351 9.09 27.867 13.52 34.249 3.88 5.586 10.97.979 17.43 6.684 4.5 13.722-7.88 14.717-17.46 13.968-2.21 10.922-3.29 17.9-9.96 27.295-16.07 22.657-38.537 25.495-60.493 9.018-12.04-11.443-12.77-21.68-15.439-37.661-7.051-.107-21.539-3.075-19.026-14.86.949-1.946 4.192-4.904 6.158-5.247 8.908-1.554 6.7 13.916 15.278 10.435 1.247-2.698 3.721-17.218 5.482-22.849 22.154 7.192 48.04-7.025 64.51-21.032"/><path d="M985.074 369.667c8.872 2.369 23.346.887 27.716 7.456.64 4.783-2.53 10.783-4.58 15.251-18.953 8.998-30.246-12.856-23.136-22.707m37.136-29.642c11.85-.781 15.83 6.973 6.76 15.368-13.04.82-14.28-6.491-6.76-15.368m-45.717-.587a7.89 7.89 0 1 1 4.965 14.831 7.891 7.891 0 0 1-4.965-14.831m18.412 14.328c5.053-.165 9.515-.725 13.355 2.736.85 3.366.78 2.047-1.01 5.852-3.92.43-8.754.764-11.989-1.595-1.608-3.734-1.253-2.17-.356-6.993"/><path fill="#fefefe" d="M510.264 1197.61c14.796 2.73 38.313 1.75 53.858 2.38 29.236 1.49 58.495 2.48 87.764 2.97 24.941.54 50.946.51 75.79 1.89-22.783 3.92-96.213 27.07-111.908 24.46-16.663-1.39-40.685-1.37-57.915-1.95l-154.831-4.43c-2.683-.1-5.143.19-6.646-1.44 8.026-7.22 96.241-17.68 113.888-23.88M1515.33 128.031c2.22.701 7.6 12.088 9.03 14.789-1.64 21.273-20.84 53.631-35.71 68.233-28.28-2.829-46.21-6.464-73.31-17.002-7.81-3.75-31.41-12.775-27.62-23.541 33.61-.362 98.9-25.594 127.61-42.479m93.5 1119.439c6.01-.58 23.13.48 30.53.37 27.26-.43 54.51-.24 81.77.35-2.32 6.47-4.59 11.66-7.37 17.91-1.11-.54-2.23-1.05-3.37-1.54-5.92-2.53-18.4-4.55-20.87 3.41 3.14 7.66 15.33 6.2 22.12 6.02l-5.03 10.74c-.55 1.55-.95 2.74-2.07 3.98-4.11 4.54-119.66 2.88-132.54 3.4.6-8.65.1-36.81 3.43-41.44 5.3-3.66 25.15-2.85 33.4-3.2"/><path d="M1619.54 1261.64c7.37-.06 45.27-.45 49.15 2.67.96 3.05.1 4.37-.96 7.6-9.97-.23-40.95 2.91-46.38-.97-2.03-3.21-1.69-5.46-1.81-9.3"/><path fill="#fefefe" d="m708.102 1222.16 1.227.44c1.341 3.55.887 8.88.855 12.87-10.102 3.56-68.113 17.29-70.936 24.84l1.106 1.8c8.592 3.35 70.025-16.25 83.971-19.75.495 5.41.992 10.38 1.756 15.76-24.921 8.52-51.068 15.31-75.708 24.64-1.973.74-3.025 1.96-4.019 3.74.56 2.99-.066 1.89 2.819 3.97 4.643-.12 10.448-2.21 15.044-3.61 20.864-4.73 37.915-12.14 62.267-16.95l.797 10.93c-27.379 7.85-65.67 21.08-92.035 26.6-2.975-20.94-3.044-44.11-4.708-65.31 24.471-5.68 53.241-13.42 77.564-19.97m1041.068 25.69c5.04 1.01 20.56.39 26.75.33l53.34-.5c.01 4.97-2.7 36.85-3.44 41.55-3.81 1.54-8.09.93-12.33.77-4.2-.02-8.4.23-12.6.41-23.52 1.03-47.01.23-70.55.78 4.5-10.16 12.4-36.53 18.83-43.34"/><path d="M1756.2 1260.13c7.93.16 13.86-1.04 19.98 4.57 1.3 3.39 1.33 2.08.46 5.24-3.07 2.08-1.65 1.57-5.4 1.65-8.9 1-11.71 2.24-20.05-1.69-1.95-2.91-1.72-1.43-1.28-4.44 2.48-3.04 2.89-3.36 6.29-5.33"/><path fill="#fefefe" d="M1352.07 260.365c2.63-.336 5.59-1.113 7.75.111-1.49 2.223-14.2 11.85-17.72 14.538-19.42 14.798-57.81 45.585-68.7 67.196-3.49-3.784-4.8-50.673-7.92-63.179 2.7-3.616 6.04-10.801 8.37-15.148 11.44-.931 23.71-.039 35.34-.102 15-.08 28.08-1.407 42.88-3.416m453.96 928.155c3.45.5 24.28 1.13 24.68 2.63 3.14 11.94-1.36 30.81 2.23 42.85-17.73.62-35.9 0-53.84.49-9.01-.8-16-.41-24.89.26 6.07-14.2 11.38-29.44 18.15-43.25 2.25-4.59 26.08-1.07 33.67-2.98m-411.09-989.96c7.85 3.069 15.78 8.209 23.67 11.205 20.71 7.869 38.55 10.76 60.09 13.772-8.79 10.368-18.56 18.65-27.85 30.054-8.78 9.451-16.37 18.821-25.98 27.486-1.32-12.714-2.23-26.541-3.32-39.224-.2-2.284-7.05-4.339-9.16-4.938-4.92-12.469-11.67-26.119-17.45-38.355M264.327 1066.22c1.983-.44.971-.35 3.182.4 2.224 5.68 7.491 29.75 8.979 36.67 3.449 16.02 9.95 37.74 12.011 53.5-5.494.71-12.142.98-17.75 1.36l-2.748-.22c-3.705-3.57-19.015-77.72-21.538-88.19 6.086-.97 11.855-2.23 17.864-3.52M971.85 416.387q2.687 1.362 5.407 2.657c16.554 7.843 27.893 5.951 44.193.109-1.11 14.905-2.38 23.917-9.51 36.905-4.79 6.473-12.984 15.02-21.39 12.845-21.889-5.665-21.04-37.174-18.7-52.516m592.55 374.204 2.22.326c3.29 2.183 5.34 5.566 7.73 8.811-10.81 16.112-26.49 32.493-39.4 47.27-7.32 8.378-23.01 28.668-30.75 34.87-2.78-.731-4.8-1.278-6.9-3.328-1.04-1.011-1.51-3.058-1.46-4.488.42-11.137 57.39-73.038 68.56-83.461m-116.27 342.379c11.59.52 27.59.81 38.85-.18.69 14.61.9 26.61.29 41.2-4.86 1.03-32.7.85-40.15 1.04.02-13.46.96-27.94 1.01-42.06m348.13-.61c4.39.78 23.13.06 28.63-.06-1.13 13.55-.21 29.18.01 43l-13.55.06c-10.97-.18-22.09-.14-33.08-.19 4.4-10.41 12.36-35.16 17.99-42.81m-304.55 55.11c2.53-.56 2.5-.45 4.91.06 4.27 4.99 2.72 13.48 2.44 20.47l-62.31.15c-4.43-.12-3.98.63-6.6-1.6-1.34-4.49-.18-12.64-.08-18.21 20.26-1.19 41.58.54 61.64-.87M284.243 1027.98l1.759.94c3.685 5.15 14.518 60.63 17.113 70.8l-.404 1.21c-4.094 11.88-5.223 24.31-9.517 34.75.848-12.52-12.339-64.44-15.161-78.22-1.277-6.23-5.184-18.4-4.226-24.51 2.857-2.95 6.42-3.64 10.436-4.97m1266.897 220.54 9.16-.62c0 15.21-1.3 29.29-1.36 44.01-11.68.56-23.37.98-35.05 1.27-2.72.43-5.82-.06-8.47-.71 16.39-16.25 18.61-21.08 24.49-43.91zM336.792 1052.71c5.536.55 13.061.3 18.764.28-1.431 15.32-12.968 59.32-17.129 76.75l-1.22 3.14-1.114-.69c-1.608-5.73-2.741-21.69-3.364-28.39l-6.679-5.56c4.859-15.04 6.488-30.19 10.742-45.53m477.47-985.142c4.079.494 6.889.217 7.732 4.547-7.021 14.845-71.075 36.817-82.988 24.293-1.837-6.85 2.822-11.61 7.992-15.215a226 226 0 0 1 32.362-10.91c-4.302 4.411-14.537 10.696-15.051 16.411 4.174 1.512 14.695-4.094 18.878-6.044.872 2.523.747 2.552 2.686 4.57 5.853.78 24.833-12.24 28.389-17.652m423.148-4.572c6.55.24 6.59 4.506 8.44 10.095 6.1 5.074 29.86 20.151 36.83 11.602-1.58-11.148-21.29-11.059-26.25-18.08l1.05-.719c12.52 4.831 22.61 8.563 35.02 14.074 8.18 3.876 22.15 12.888 17.95 23.712-.66.288-1.4.692-2.18.591-14.34-1.854-79.15-20.254-77.5-37.494 2.84-3.2 1.76-2.148 6.64-3.78M357.587 1094.39c4.744 2.02 10.615 4 15.542 5.79.674 7.56-8.121 46.8-10.649 55.56-5.615.08-11.969 1.06-17.603 1.77 4.805-17.17 10.166-45.27 12.71-63.12m32.992-9.31c4.234 1.14 8.663 2.55 12.886 3.82-2.514 9.51-12.148 63.05-15.729 67.01l-14.839-.04c8.431-22.45 10.275-46.2 17.682-70.79m-76.727 24.1 4.502 1.34c2.172 4.7 4.631 20.89 6.213 26.94 1.968 7.52 3.999 14.04 6.395 21.47l-15.212-.05c-2.395-.28-12.475.81-15.489 1.08a783 783 0 0 0 13.591-50.78m-5.865 127.38 4.653.36c5.798 3.99 8.158 26.79 4.872 31.8-4.659 1.64-11.617 1.25-16.762 1.26-2.579.14-3.119.34-5.413-.93-4.235-8.29-2.344-21.68-4.253-31.64l-.194-.98c5.821.64 11.464 1.67 17.097.13m-46.501 42.86 20.796.04c.867 8.81 4.532 23.32 3.367 31.55-7.977-.2-16.268-.84-24.258-1.33-.239-5.08-2.118-27.32.095-30.26m33.86 1.77c8.659.87 13.328-1.29 21.544 1.42 5.134 5.24 2.942 18.48 3.406 27.78-6.336.75-14.38.58-20.885.63-.99-9.56-2.717-20.22-4.065-29.83M1531.29 164.696c6.98 15.053 13.74 42.495 19 59.606-2.25-1.976-4.85-4.608-7.06-6.723-7.9-6.341-17.49-16.701-24.68-24.133 6.55-8.468 10.27-18.45 12.74-28.75M1418.9 1134.24c4.77.11 9.88-.08 14.67-.17 2.17 11.96 1.01 27.07 1.33 39.64-2.23 1.9-12.42 1.35-15.98 1.37zm-657.152 71.71c2.884 3.87 2.187 10.77 2.13 15.72-7.403-.29-24.957-1.19-28.504 5.53.452 2.03.609 2.4.589 4.46-3.689 1.47-6.224.92-10.213.64-.509.02-1.805-.39-2.373-.54-1.486-4.33-1.021-9.41-.949-14.11 10.253-2.06 30.269-7.13 39.32-11.7m-430.565-6.05c6.809-1.48 15.474-1.05 22.579-1.01-.311 7.81-1.061 18.68-.679 26.25-3.905-.67-5.874.2-9.49-.08-14.225-1.11-13.434-15.76-12.41-25.16m43.621 76.58 1.436-.1c2.145 2.64.408 24.12.701 30.87-4.77-.01-8.947.05-13.708.3l-1.778-.1c-2.881-3.41-2.538-25.16-2.641-30.54 6.656.3 9.422.34 15.99-.43m-85.534-77.55c4.372-.05 9.705.28 14.154.43 3.927 7.94 9.349 16.73 9.3 25.6-7.786.07-15.57.3-23.346.7q-.205-13.365-.108-26.73m-34.675-.59c7.162-.07 13.543.45 20.488 2.15-.027 9.37 1.685 14.33.948 24.95-6.3-.75-12.074-1.22-18.401-1.68-2.028-10.39-2.411-14.95-3.035-25.42m507.695 31.6 1.684 1.56c1.007 23.42-5.113 16.37-24.683 24.82l-1.57-.95c-1.372-4.03-.859-10.85-.757-15.34 8.328-2.84 17.139-6.7 25.326-10.09m-385.555-33.41 1.305-.25 1.035 1.21c.783 8.11-.209 18.45-1.384 26.5-4.597.15-9.538.55-14.16.84-.138-9.56-2.35-18.84 2.819-26.22 3.18-2.5 6.17-2.01 10.385-2.08m-141.566-126.88c.57.35 1.834.94 1.912 1.59 1.421 11.78 20.075 81.45 18.762 86.85-2.471-1.77-3.703-4.46-4.576-7.35-7.72-25.55-12.95-52.25-17.586-78.51 0 0 1.358-2.36 1.488-2.58m.864 203.68c3.753 1 5.908 1.22 8.851 3.74 4.99 8.41 3.837 20.93 3.32 30.61-4.332 0-7.937-1.71-12.068-3.22.03-10.38-.005-20.76-.103-31.13m-.805-41c3.405.58 3.972.71 7.056 2.24 4.862 6.72 3.47 20.9 3.783 29.91-2.625-.55-6.707-1.13-8.46-3.08-4.751-5.31-2.622-21.34-2.379-29.07m106.359-63.35 15.104.09c-1.22 6.03-1.511 12.15-1.958 18.29-5.899.17-11.901.02-17.809-.06 2.04-6.35 3.224-11.85 4.663-18.32m-79.162 151.93c8.175.27 16.403.7 24.579 1.08.959 5.12 1.426 6.44 3.373 11.25-8.14.13-19.447-.88-27.81-1.43zm-5.255-85.77 16.437.99c-3.413 8.29-4.731 14.22-9.251 22.6l-4.296 9.46c-2.422-10.08-2.486-22.52-2.89-33.05m506.845 24.14c1.647 1.8 1.224 4.61.607 6.71-4.727 4.94-17.75 7.9-25.293 11.05l-.634-.6c-1.308-3.4-1.56-3.63-.869-7.06 2.897-4.47 19.741-8.09 26.189-10.1m-393.166-91.4c1.825-.09 5.132-.37 6.832-.03 7.361 1.49 5.067 14.06.07 16.67-4.701 1.11-8.882 3.48-11.504-1.3.019-4.34 2.964-10.98 4.602-15.34m-138.058 26.43 8.823 2.25c.291 7.62 2.58 19.1 2.051 25.8-2.088-.33-6.65-.93-7.886-2.4-3.381-4.01-3.224-20.6-2.988-25.65m152.95-139.38c12.174-.63 11.138 9.42 7.994 18.32-2.136 1.27-6.935.7-9.697.61-.433.25-2.943 2.6-3.49 3.09l-.382-1.46c2.625-7.25 2.502-13.47 5.575-20.56m-128.792 114.05c2.249.01 2.998-.18 4.951.97 2.89 5.92 4.472 9.85 4.643 16.59l-2.558 1.5c-9.304-1.56-14.253-5.18-11.388-16.6.393-1.56 2.712-1.86 4.352-2.46m51.642.97c6.008.08 13.136-.36 19.225-.57-1.749 4.85-3.239 10.34-4.704 15.33-1.002 2.38-.177 1.48-2.772 2.59-4.811-1.98-9.089-12.23-11.749-17.35m64.716 65.26c2.792-.29 1.545-.57 3.902.67l.232 1.18c.839 4.43 1.418 10.57-1.187 14.39l-2.658-.52c-5.658-2.17-13.652-4.47-10.045-12.24 3.078-2.96 5.453-2.82 9.756-3.48M1587.1 756.265c11.66.699 14.22 6.94 6.78 15.97-12.07.285-13.81-7.438-6.78-15.97M301.936 1322.37c7.945 3.18 10.245-.65 17.696 1.53 3.247 2.88 2.331 2.62 3.385 7.77-2.759 2.04-16.354 2.23-19.73.8zm-64.303-5.76c4.029.36 7.351.05 10.556 2.67 2.204 3.45 1.835 7.05 2.001 11.29-4.414-1.34-9.436-1.86-12.197-5-1.567-3.24-.857-5.32-.36-8.96m113.275 4.51c1.242 2.07 1.917 5.56 1.045 7.93-4.201 3.49-9.275 2.74-14.875 2.75-.577-2.22-.999-4.17-1.455-6.42l1.209-1.21c7.02.43 7.076 1.45 13.014-2.36zm-66.953-153.59c2.389 2.37-1.144 15.36-3.128 18l-.929-1.03-6.413-14.89c2.81-.81 7.456-1.52 10.47-2.08m89.948 152.21 2.508-.33 1.156 1.4-.978 2.91c-3.763 3.45-5.921 3.38-10.974 4.2h-1.328c-1.06-3.27-1.716-4.13-.633-7.15 2.686-1.93 6.639-1.18 10.249-1.03m-94.611-65.05 1.076 1.16c1.325 4.97 2.363 7.19.007 11.87l-3.362.95c-2.162-1.05-2.231-.87-3.51-2.85.203-4.06 3.335-7.56 5.789-11.13m-46.001-84.39c3.506.54 2.555-.07 5.119 1.93 2.09 3.54 1.821 7.45 1.947 11.57-2.907-1.2-3.381-1.5-5.988-3.3-2.078-3.2-1.341-6.21-1.078-10.2m107.674 83.11c2.703.39 2.651.37 5.116 1.54 2.006 3.34 1.187 7.75.983 11.92l-2.502-1.02c-1.507-1.69-2.482-8.8-3.597-12.44m18.598 4.37c3.186.86 9.255 4.01 11.735 6.21-3.329.83-7.148 1.95-10.124.58-2.083-2.96-1.396-2.49-1.611-6.79"/><path d="M514.198 102.661c9.94.914 53.103 24.087 66.75 29.675 18.826 7.71 39.69 17.937 60.245 24.208 6.064 1.85 15.058 4.569 17.817 10.371.137 2.438-1.106 4.969-2.478 6.953-14.466 20.923-27.808 41.642-39.015 64.574 14.218 1.247 30.471 4.933 44.974 6.711 10.191 1.249 38.431 3.022 44.85 9.179 1.993 7.313-3.399 69.945-4.126 83.06a316 316 0 0 0 38.823 2.78c11.62-.001 24.534-2.135 35.613.494 2.564 3.294 2.475 8.585 2.349 12.612-.668 21.263-23.916 160.409-38.41 172.304-6.976 5.726-50.421.216-61.456-.911 8.794 7.077 17.312 15.515 25.249 23.562 3.698 3.75 11.07 10.857 10.61 16.575-1.436 17.831-79.074 87.442-95.594 101.258-15.149 10.985-27.05 21.236-43.46 30.3-10.295-7.891-26.505-27.638-35.656-37.622-27.073-29.538-53.693-62.122-81.541-90.737 7.844-9.23 34.012-27.05 44.554-35.838 24.76-20.638 46.377-40.381 67.753-64.435 5.25-5.907 17.564-17 21.042-23.682-3.266-4.95-69.031-5.254-80.098-13.019-2.78-7.046 8.281-101.02 9.885-116.952-12.35-4.158-83.722-30.737-87.149-37.518-11.645-23.05 61.216-158.725 78.469-173.902"/><path fill="#fefefe" d="M592.644 464.839c.085 7.671-5.815 22.594-8.739 29.986 23.485 18.387 54.859 18.857 78.361 29.863 4.274 2.002 33.066 32.607 39.336 38.667-19.578 28.482-82.553 90.159-110.874 108.117-3.846 2.198-8.773 5.672-12.569 8.198-28.014-35.604-68.131-75.524-98.462-111.19 3.609-3.208 7.968-6.516 11.853-9.433 27.004-20.276 52.586-42.404 76.126-66.636 8.591-8.843 16.243-18.689 24.968-27.572"/><path fill="#fefefe" d="M626.305 329.801c8.343 4.81 19.736 7.546 28.982 10.398 40.709 12.556 69.073 14.237 110.933 12.255-2.163 43.149-18.907 114.398-31.297 156.624-.668 1.386-1.113 1.876-2.017 3.159-6.117 2.089-16.802 1.401-23.347 1.163-40.982-1.49-71.895-8.85-109.546-23.366 11.312-33.029 25.159-126.03 26.292-160.233"/><path d="M639.872 360.525c7.884 4.497 9.665 9.282 14.875 16.475 15.135 20.893 24.293 40.162 49.712 49.407 3.295-.933 9.861-2.778 12.333-4.825 8.575-7.101 17.262-29.382 26.73-33.722 3.13.455 1.968-.056 4.416 3.024 1.132 3.489.015 5.246-1.258 8.791-28.002 51.042-52.228 50.21-88.981 3.124-7.549-9.673-16.957-23.416-21.399-34.769.23-3.594 1.365-4.531 3.572-7.505m-11.572 83.34c10.659.182 27.064 11.12 38.697 12.291 2.456.247 9.201 2.335 11.199 4.014 1.094 3.453.68 2.571-.275 6.651-12.722 3.862-37.364-5.19-47.381-13.66-3.154-2.667-2.433-5.676-2.24-9.296"/><path fill="#fefefe" d="M519.492 117.565c8.128 3.928 4.69 9.821 3.416 18.118-4.046 26.363-2.844 53.307-.918 79.806-7.489 4.144-26.433 15.355-26.604 24.497 2.082 3.2.925 2.145 4.586 3.853 7.34-.296 13.947-9.943 22.086-15.095l1.077-.673 12.811 57.386c.993 4.443 1.138 5.495 4.555 7.675 3.058-.048 5.22.327 7.559-1.441.845-2.041.65-4.431.135-6.566-4.37-18.11-11.472-43.437-12.291-62.177l-.043-1.189c24.904-17.003 59.54-24.328 89.22-26.643-3.53 6.066-7.521 14.07-10.872 20.391-11.554 18.858-21.121 45.047-29.804 65.793-4.925 11.766-7.113 22.401-13.271 34.709-24.883-8.492-50.932-16.706-75.349-26.295-15.06-5.914-32.148-13.847-47.085-20.43l.165-.717c9.525-39.737 31.975-90.99 53.539-125.222 5.488-8.711 10.073-18.203 17.088-25.78"/><path fill="#fefefe" d="M537.63 126.366c7.949 2.988 16.718 7.822 24.514 11.43 21.587 9.993 58.449 27.88 81.03 32.384-3.509 4.843-6.18 8.63-10.23 13.015-7.665-.248-11.145-.211-18.727.718-30.758 2.66-53.64 11.185-80.99 23.934-.554-26.431-1.265-55.598 4.403-81.481"/><path d="M1635.28 979.556c12.55-.052 11.54 8.851 9.14 18.542-3.45 13.932-5.23 38.352-15.15 48.782-3.99.83-5.21.61-8.23-1.99-1.76-4.11 11.35-58.036 14.24-65.334m-243.9-106.861c3.57-.068 4.06-.282 7.1 1.31 4.56 8.314-9.02 20.589-14.37 26.571-7.43 8.3-15.61 18.1-24.15 25.152-3.46.495-4.18.906-7.07-.641-5.67-10.459 30.41-43.777 38.49-52.392m76.7 81.842c3.36.333 3.83.157 6.19 2.293 3.95 9.412-11.46 29.196-18.21 35.87-2.01-.351-3.26-.968-5.12-1.735-1.34-1.652-2.52-2.501-2.42-4.768.37-8.333 14.33-26.018 19.56-31.66m113.65 44.416c4.47-.005 4.32-.68 7.89 1.437 4.41 8.89-5.42 29.92-11.63 36.33-4.36.06-3.08.64-6.4-1.39-3.8-6.64 5.99-31.32 10.14-36.377m-147.44-97.496c11.01 8.851-2.62 20.289-8.65 27.798-2.82 3.519-6.65 7.073-10.62 9.228-2.1-1.374-5.44-3.985-4.46-6.772 3.55-10.131 15.86-23.399 23.73-30.254m99.16 70.898c15.08 2.165-1.78 29.655-6.23 36.275-15.27-4.07 1.32-27.794 6.23-36.275"/></svg>