<svg xmlns="http://www.w3.org/2000/svg" preserveAspectRatio="xMidYMid meet" viewBox="0 0 2048 1462"><path d="M223.02 630.495a364 364 0 0 1 11.782-93.064c23.807-92.793 64.246-184.331 106.074-270.606 12.147-25.052 40.93-90.454 60.096-107.494 70.587-62.758 234.576-42.499 304.059 13.932 15.894 12.908 30.224 90.957 32.819 112.988 1.115 9.324 1.4 29.879 1.314 39.867a425 425 0 0 1-2.079 37.152c-.802 8.444-2.985 17.259-1.967 25.621 2.57 21.125 23.553 33.552 24.171 55.482.565 20.069-21.824 30.919-37.913 37.262-2.888 11.831-3.874 24.399-6.914 36.419-7.993 31.592-25.921 65.639-54.566 82.775-25.823 15.447-50.802 15.849-79.333 13.951-1.976 7.416-7.042 28.822-9.512 34.756 8.82 3.63 19.013 7.596 26.485 13.476 39.556 31.126 55.838 85.77 78.749 127.06a2905 2905 0 0 0 13.772-91.275c2.431-17.14 4.514-35.065 8.083-51.931-7.394 1.001-41.007 4.04-44.616 7.192-4.511 10.388 6.229 33.113-8.908 30.492-7.411-4.573-4.721-12.448-5.718-19.496-4.819-34.069 36.641-26.623 61.283-32.43 4.663-7.183 9.233-12.054 17.298-15.389 18.276 2.448 44.905 6.755 62.792 11.525 5.673-13.541 6.064-19.017 21.9-21.966 13.227 5.077 54.837 20.447 64.374 26.404 7.207-8.081 11.561-17.75 22.418-18.851 3.049.978 7.828 2.875 11.208 5.504 35.596 27.695 77.575 55.93 110.859 85.433 7.72 6.842-10.47 30.409-16.609 39.422a4253 4253 0 0 1-45.474 64.619c11.998 13.074 19.922 27.14 30.283 40.064 44.43 55.421 29.1 106.214-1.829 161.101 4.025 8.37 4.069 11.41 6.296 20.21 15.177-1.46 31.983-.26 47.613-1.3-13.53-40.26-6.08-88.193 12.19-126.075 13.78-28.599 52.38-74.562 80.31-90.046 9.81-19.335 18.99-48.867 28.58-70.041 14.36-31.721 27.56-57.152 44.41-87.178 27.54-49.074 56-98.672 111.1-121.07-4.7-11.833-8.85-17.195-12.87-30.431-9.37-30.835-4.23-67.306-8.66-97.811-7.97-7.054-14.92-12.715-20.88-21.666-24.36-36.592-6.31-63.217 20.26-88.958 6.9-30.027 11.27-52.97 39.89-70.159 15-9.013 37.19-14.866 54.88-13.636 36.88 2.563 63.48-29.042 100.04-22.144 13.45 2.538 25.65 13.999 38.31 18.863 28.56 9.799 49.45-1.225 67.95 31.201 3.05 5.346 9.75 17.265 13.59 22.175 4.73 6.059 15.14 13.735 21.26 19.003 22.84 19.646 17.96 39.452 18.22 65.242 14.94 22.035 35.76 40.108 30.58 72.064-1.43 8.83-6.85 20.414-10.51 28.816 3.53 8.787 19.42 35.368 12.04 44.108-4.9 1.135-20.57 4.677-24.3 6.458-21.06 10.046-38.79 23.924-54.15 41.401-6.04 6.867-13.22 16.213-18.94 22.182-43.83-18.57-47.37-56.331-39.17-98.118 8.42-5.149 14.15-8.5 20.18-16.688 11.17-15.19 11.65-38.134 1.79-54.111a36.5 36.5 0 0 0-4.64-6.109c-11.79 9.349-24.9 13.915-39.56 12.345-28.52-3.052-39.69-23.257-61.03-34.889-7.72-4.206-35.39 4.734-44.13.481-2-2.789-1.57-1.438-1.24-5.208 6.01-10.191 28.24-9.82 38.67-9.195-18.1-19.255-33.77-44.068-49.95-65.106-5.65-7.336-13.81-19.34-20.35-25.67-25.57 21.255-33.18 35.057-50.17 61.716-28.37 44.497-26.24 61.343-24.02 111.562 2.76 62.289 2.36 97.982 59.93 134.805 1.61-3.606 2.22-6.091 5.42-8.264 5.11-.728 58.16 28.291 65.85 32.566 11.79-2.361 31.75-12.556 39.15-10.828 3.2 2.615 2.87 4.009 1.33 7.652-5.23 5.364-15.88 9.367-22.99 12.518 21.66 10.311 59.33 27.314 76.3 44.335l1.26-.637c24.02-12.247 38.7-43.096 52.81-64.198 25.22-37.726 69.52-89.462 120.96-71.351 76.75 27.028 125.94 104.152 163.78 171.949 42.8 81.258 71.75 178.547 86.3 268.588 3.89 24.008 9.05 55.287 9.05 79.157 7.3-.44 18.74-1.03 18.75 9.52-6.24 8.95-34.57 6.26-45.58 6.27-5.84 72.18-41.68 136.46-124.29 129.5-62.29-5.25-113.63-55.63-153.2-99.69-9.17-10.34-18.89-26.61-25.99-34.39-40.4 2.38-93.57.91-135.15.87l-216.18.43-188.49.72c-32.54.18-77.3 1.72-109.02-.45-6.018 21.81-16.709 45.22-23.81 67.12-12.422 38.3-25.981 71.26-43.236 107.64-19.645 41.42-41.273 76.4-82.357 100.11-9.634 5.56-19.176 9.27-29.251 13.89 49.173 3.37 95.718 2.38 144.968 2.3l208.046-.48 217.41.05c51.92.12 105.18 1.03 157.08-.68 63.15-2.07 131.33-3.58 190.97-25.4 7.03-2.57 14.24-7.12 20.83-2.04 3.2 9.43-6.77 13.24-14.37 15.71-58.7 19.1-115.4 22.43-176.76 24.53a3618 3618 0 0 1-163.71 1.76l-223.68-.17-241.941.4c-80.538-.39-160.129 5.82-235.361-28.4-32.106 56.25 3.405 86.38 50.576 113.87 29.119 16.96 63.038 21.23 95.762 25.54 1.532.19 2.999 3.2 3.603 4.47h-66.445c-6.587-2.91-13.254-5.21-19.833-7.95-36.71-15.29-80.88-45.37-90.151-86.47a708.6 708.6 0 0 1-298.351 24.91c-28.454-3.71-60.157-8.85-85.31-22.42-33.391-18.02-77.296-38.71-92.464-75.98-7.67-18.85-14.04-25.3-24.638-41.91a296.2 296.2 0 0 1-34.373-73.54 230.7 230.7 0 0 1-10.346-53.72c-1.4-17.68-.277-33.98-.084-51.53.874-79.47 11.932-155.279 27.801-232.969 12.137-59.421 23.8-113.85 51.864-169.184 7.827-15.431 17.952-28.085 29.591-40.742"/><path fill="#fff" d="M229.722 839.449c55.591 2.279 112.245 1.427 167.913 2.681 61.541 1.386 123.407 3.688 184.952 3.962 9.625 24.876 20.029 48.042 30.237 72.55l68.909 162.678c-10.925 3.46-22.827 5.44-34.122 7.69a1665 1665 0 0 1-86.847 14.21c-8.81 1.62-17.72 2.63-26.668 3.04-23.9-43.61-45.18-89.59-68.774-133.436-3.484-6.473-7.057-7.766-13.403-3.268-4.629 9.674 9.148 23.113 10.888 32.134 2.885 14.96 3.273 32.15 3.95 47.42l-254.994-5.12c-.049-10.38 1.434-23.36 2.168-33.97 2.052-29.659 5.123-59.19 7.532-88.858l4.515-52.801c.414-5.251 1.125-25.652 3.744-28.912"/><path fill="#fff" d="M210.64 1081.98c9.179-.28 22.416.79 32.441.9l107.421 1.81c23.162.35 46.373.55 69.538.88 16.593.23 33.524-.17 50.002 1.82.927 17.36 14.597 173.74 11.93 178.27-4.99 1.15-15.547.37-21.222.31-17.61.66-35.766-1.28-53.44-.93-12.481.25-24.94-.33-37.41-.52l-178.431-2.79c6.03-28.27 11.786-166.8 19.171-179.75m356.049-418.222c34.133 1.469 67.495 70.961 80.42 97.889 3.028 6.308 20.311 38.993 21.491 44.701 4.895 23.67 12.503 34.621 23.103 55.739l38.714 77.468 32.953 67.405c4.903 9.82 10.282 21.31 16.298 30.5 2.764 4.23 10.831 6.77 15.797 8.68 21.552-6.2 22.954-15.81 37.323-26.32 11.315-8.28 62.325 1.78 75.188 4.8-16.524 41.85-32.026 85.37-49.701 126.8a3238 3238 0 0 1-23.139 52.11c-4.078 8.87-8.468 17.99-12.47 26.92-.946 2.11.287 4.6 1.265 6.57 7.032 4.03 39.959 2.4 48.895.08 4.764-10.85 10.13-25.72 14.641-36.97l39.306-98.76c11.627-28.78 26.302-58.28 37.092-86.21l5.289 18.65c-4.447 13.39-10.829 29.04-15.736 42.94-16.721 41.72-26.373 81.74-46.996 123-21.137 42.28-34.9 75.63-77.322 101.6-8.231-13.25-27.147-58.6-33.624-74.64-15.802-39.12-34.205-77.85-50.121-116.42 11.824-2.39 70.542-10.19 75.293-16.43.195-3.81-4.81-32.8-7.227-36.45-3.326-1.85-74.362 12.87-84.521 15.01a5792 5792 0 0 1-63.077-148.098c-6.252-15.344-12.664-30.616-18.875-45.976-4.326-10.701-7.764-21.644-13.039-31.891 8.582-.276 25.109.193 31.814-4.172 5.085-3.311-4.447-33.959-8.686-36.696-5.503-3.553-31.827-1.935-38.557-1.849-12.3-33.158-26.718-65.365-40.203-98.044-4.801-11.633-9.455-23.303-14.689-34.751zm138.866-453.163c3.042 2.274 6.714 17.559 7.694 21.776a408.4 408.4 0 0 1 11.049 110.236c-.611 15.517-4.165 33.144-3.166 48.536 1.295 19.58 25.676 37.129 23.525 55.688-1.641 14.167-26.148 20.274-36.253 28.295-2.934 31.969-10.889 62.354-29.811 88.788-15.12 21.125-29.413 28.25-53.66 35.65-14.788 3.46-27.698 2.282-42.792 2.496 13.254-62.215 23.1-124.279 42.796-185.01 22.645-69.821 47.214-140.942 80.618-206.455"/><path d="M658.274 451.425c1.503.75 4.371 1.823 4.868 3.054 4.467 11.066 4.624 24.098 11.987 34.45 4.985 7.008 21.946 13.621 25.949 20.016-.083 3.559-.355 3.798-1.974 7.086l-1.534.462c-25.536-.677-59.325-46.931-39.296-65.068m18.669-146.258c12.021-.719 38.341-1.607 43.674 12.754-1.263 6.794-7.299 5.139-12.441 3.891-5.276-1.837-8.702-2.715-14.165-3.675-7.338-1.291-24.613-.117-29.003-6.433l.874-2.186c3.448-2.851 6.678-3.237 11.061-4.351m14.96 58.884c3.089.134 5.091 2.045 6.805 4.384 2.248 7.151-2.901 10.377-8.079 13.46a49 49 0 0 1-1.64-.798c-9.977-5.14-9.455-15.2 2.914-17.046"/><path fill="#fff" d="M885.826 629.462c7.47 1.326 103.573 74.016 112.815 83.458a1309 1309 0 0 1-80.709 113.038c-4.353-6.622-6.709-9.883-11.854-15.98-40.133-11.953-28.996 28.755-24.457 50.774l1.645 9.801c-3.656 6.422-7.861 10.975-13.029 16.154l-57.268-49.347c-11.018-9.314-27.295-23.143-39.351-30.474 18.095-31.399 41.285-64.015 60.739-95.393 15.479-24.966 34.614-58.636 51.469-82.031"/><path d="m907.568 723.134 1.401.134c2.021 2.992 1.732 14.744 2.262 19.505.91 8.173 2.052 15.931 3.395 24.046-9.248 4.349-28.682 10.907-39.233 14.851-2.625 1.064-4.993 2.097-7.307.275-.52-7.172 3.254-40.897 3.917-50.781 12.965-1.808 23.137-4.302 35.565-8.03m-19.979-78.269c9.64 1.77 8.148 14.776 4.795 21.356-3.756 7.367-5.723 8.471-13.003 11.218-5.966-2.297-9.219-10.197-7.214-16.224 2.739-8.238 8.087-12.358 15.422-16.35m-21.002 195.024c2.333-.385 3.073-.188 5.357.094 6.369 4.354 6.053 13.076 4.018 19.67-1.378 4.464-5.077 6.076-8.857 8.058-20.225-5.427-10.555-17.667-.518-27.822"/><path fill="#fff" d="M1465.52 641.307c7.69-.709 13.45-.233 20.93-.257 19.47-.502 47.32 18.768 57.56 35.223 22.18 35.62 35.52 81.913 53.18 119.905 7.4 15.918 24.56 37.622 35.76 50.276-13.65 12.765-31.57 25.849-46.56 37.384-3.76-4.776-20.99-29.596-26.54-28.748-37.56 5.743-77.84-32.67-91.07-65.371-3.59-8.885-4.92-21.939-10.19-29.795-16.48-7.728-29.84 5.32-42.79 13.318-9.88 6.1-13.88 4.399-20.54-3.595 7.61-8.786 11.5-11.608 20.91-17.898 13.49-7.671 27.72-12.478 43.29-12.382 5.17.033 10.45 2.364 14.61-.655 4.83-18.055-26.49-11.49-34.76-9.715-16.15 3.467-26.27 10.712-39.97 18.789-1.95 1.152-3.94.213-5.68-.55-2.28-6.143 4.85-10.616 9.16-15.065 17.33-17.904 44.86-26.678 69.38-24.049 5.42.582 6.41 2.855 12.23.583 2.4-3.256 1.88-1.75 2.1-5.663-7.24-17.912-62.6-3.133-75.51 4.268-4.64 2.664-27.71 11.879-28.21 1.506 3.64-5.994 12.55-8.829 18.55-12.131 19.78-10.887 40.82-19.392 63.56-21.05 10.07-.734 20.56.439 30.68.316 2.46-.033 3.52-1.76 4.84-3.371.67-3.688.89-2.262-.42-5.648-24.25-22.461-84.26 5.82-93.04-5.041-.39-3.105-.37-2.934 1.12-5.723 5.68-4.653 48.55-14.058 57.42-14.861M695.676 1119.38l2.332-.35c.48.33 79.24 182.74 90.01 203.26a75 75 0 0 1-4.687 1.21c-33.639 7.42-75.693-8.74-104.223-26.66-9.194-5.84-20.561-16.53-28.309-24.13-39.269-38.51-66.727-79.3-94.376-126.15 44.518-5.94 93.54-20.51 139.253-27.18M202.41 1299.97c94.42 2.41 188.86 4.01 283.309 4.78.359 6.02 4.097 47.45 5.304 51.25 5.082 3.52 36.417.97 37.585-1.6 4.741-10.45.477-37.78-.577-49.66 45.747 2.46 92.646-.07 138.495 2.06.005 0 3.3 1.95 3.61 2.14.634.56 2.736 2.9 2.493 3.58-3.634 10.14-8.194 18.24-11.141 28.88-24.915 9.65-55.046 13.79-81.325 19.23-94.458 19.55-194.486 16-287.907-7.46-5.287-1.33-15.819-.93-20.264-2.68-26.979-10.62-52.252-26.98-69.582-50.52m41.894-608.475c5.476 3.871 9.112 10.248 14.904 14.775 30.199 23.604 55.245 20.835 89.993 16.237 18.072 17.399 51.51 27.185 76.357 27.704 39.636.828 74.075-13.27 102.863-39.932 11.147 22.206 23.352 55.069 33.601 78.956l6.083 14.289c-21.852 1.573-48.674.39-70.69-.242l-61.9-1.287-202.76-3.673a5448 5448 0 0 1 8.004-73.887c1.284-11.981.966-21.039 3.545-32.94m1067.376-68.164c10.12-1.051 39.05-1.434 41.25 11.029-1.11 1.376-1.62 2.533-3.61 2.458-15.46-.577-77.27 8.232-78.88 24.68.39.768.87 1.682 1.41 2.742 10.7.822 22.19-1.254 32.98-.727 11.31.553 38.74 4.897 43.94 16.496-.07 3.505.55 2.066-1.74 4.529-9.01 2.909-27.9-4.549-38.69-4.579-20.06-.055-32.52.949-47.43 14.184l5.65 4.701c16.98-3.297 29.31-7.377 45.28 1.835 5.5 3.173 31.56 20.557 27.32 28.459-3.38-.497-14.47-6.596-18.18-8.923-10.99-6.898-52.57-15.363-57.37 1.999 3.02 7.282 8.85 5.217 15.26 4.121a84 84 0 0 1 4.8 3.485c8.69 6.702 10.58 9.716 11.96 20.45 1.88 8.73-4.68 21.667-8.53 29.466-3.32-10.413-2.45-26.016-11.31-33.925-13.75-4.5-8.72 17.391-7.96 24.294 3.25 29.876-4.99 55.13-35.27 65.746-15.72 5.512-4.71 7.592-8.68 15.076-7.58 1.406-51.48-22.993-61.2-27.977 7.65-6.862 16.36-10.676 24.93-19.112 6.81-66.885 46.08-171.528 124.07-180.507M813.59 863.974c3.444 1.326 12.111 2.518 14.013 3.947 17.26 12.968 36.326 29.635 53.16 43.164-2.276 12.047-2.931 17.838-2.878 29.687-24.07 13.235-41.696 65.458-79.389 89.708-3.283.97-3.682 1.01-6.923-.07-4.96-3.85-28.448-56.666-33.926-67.033-4.311-8.159-22.066-41.471-23.976-48.885.499-1.43.705-3.043 2.449-3.412 31.585-6.681 68.598-8.269 77.47-47.106"/><path fill="#fff" d="M1370.93 571.88c12.74 8.023 29.08 16.05 42.64 23.001a2262 2262 0 0 0 68.23 33.96c-25.7-.055-45.25 4.871-69.45 12.689-6.69 2.159-16.54 7.874-16.59 15.823-.12 16.429 10.67 17.316 23.48 18.059-10.46 4.782-24.31 10.382-33.95 16.252-26.51 16.15-16.75 28.79 7.69 34.115-4.48 5.366-7.11 8.237-10.33 14.456-5.02 9.676 4.54 11.358 4.24 16.231-.67 6.791-4.42 11.625-.59 18.626 8.14 14.848 22.41 14.518 35.35 8.674-2.72 6.727-6.71 14.412-9.94 21.026-24.98-15.411-51.68-35.287-77.6-51.664-5.6-3.641-9.72-6.685-15.93-2.58-6.25 9.131 2.38 15.489 8.84 20.129-9.7 19.702-34.24 43.157-55.12 50.412 6.8-11.758 7.01-19.253 10.67-31.815 4.88-4.476 9.36-1.159 12.41-3.15 22.52-14.655 12.68-44.366 5.3-60.997 28.41 9.961 25.13 12.749 47.97 27.312 3.34-.168 2.3-.104 5.46-2.099 3.37-6.94-3.2-6.636-4.2-12.958 10.32-16.943-18.48-33.748-23.1-42.77 1.88-.623 14.65 3.998 20.41 1.849 25.69-9.598 6.06-28.634-6.11-36.711 1.93-3.191 4.03-7.326 5.84-10.673 10.13-1.751 21.01-6.547 16.81-19.612-2.33-7.261-8.76-9.773-15.22-12.851 8.47-14.57 15.66-29.495 22.79-44.734"/><path d="M1375.82 592.832c16.82 2.58 18.09 14.205 5.33 24.165-15.82 1.852-16.55-14.153-5.33-24.165"/><path fill="#fff" d="M714.659 630.947c10.992-.504 51.356 7.994 63.883 10.396-5.311 23.152-52.425 178.317-49.609 186.652 1.967 5.822 8.187 8.18 13.336 10.417a1587 1587 0 0 1 18.21 7.27c-18.347.669-43.463-7.445-64.982-5.227-3.923-5.887-6.217-10.683-9.339-16.968 3.14-34.125 10.257-73.668 14.986-107.989 3.188-23.143 7.688-63.225 13.515-84.551"/><path d="M720.53 773.722c2.966.419 4.196 1.856 6.033 4.147 8.523 10.629-.434 27.885-9.139 34.779-11.984-17.978-15.939-24.006 3.106-38.926m6.273-128.023c6.282.187 9.285 11.137 11.103 16.075-3.144 9.785-4.797 12.983-13.336 18.654-14.023-4.81-12.68-27.004 2.233-34.729"/><path fill="#fff" d="M940.474 820.378c15.43 17.392 31.489 41.179 43.615 60.998 7.08 11.571 9.368 29.326 8.941 42.873-.438 22.792-9.742 46.665-20.822 66.37-22.07-39.094-35.206-44.134-76.638-52.996 6.63-40.536 4.783-62.222-5.68-102.032-1.295-4.927-1.707-10.803 1.364-15.15 20.077 1.959 29.855 51.811 47.922 55.738 3.855-1.074 2.453-.224 5.214-3.433 1.109-6.239-4.469-9.39-7.306-14.349-3.917-6.846-7.735-13.758-11.613-20.631 5.429-5.774 9.97-11.292 15.003-17.388M798.933 620.497c2.844.782 7.259 3.35 10.646 4.467 16.848 5.56 33.17 13.614 49.989 18.979-5.272 11.351-13.733 22.616-20.046 33.599-20.647 35.916-44.834 69.827-67.006 104.822-5.529 8.726-11.604 16.788-15.772 26.297 5.394 7.81 13.147 12.79 20.756 18.425 9.048 7.352 18.723 14.532 28.024 21.613-10.56-2.223-51.962-18.295-60.391-24.635-1.799-7.002 9.271-47.169 11.553-55.669l17.375-64.322c3.705-13.709 17.912-78.392 24.872-83.576"/><path d="M807.851 629.891c4.464 4.628 8.642 17.013 6.024 23.431-3.307 8.108-7.172 9.935-14.395 13.56-6.731-2.43-8.81-13.415-6.607-19.554 3.019-8.416 7.12-13.399 14.978-17.437"/><path fill="#fff" d="M156.723 838.831c10.519.319 20.65.151 31.175-.011.074 13.529-3.525 39.764-5.041 54.141l-8.043 84.128c-.953 10.322-4.17 61.081-5.679 66.041-2.439 1.55-6.311.96-9.386.85-6.614-1.08-23.065-.99-30.559-1.33.241-39.27 7.502-87.845 13.065-126.723 2.896-20.238 8.694-57.742 14.468-77.096m355.325 255.039c4.422 5.49 11.216 20.83 14.768 27.76 18.59 36.28 41.194 71.41 64.601 104.75 9.205 13.11 24.238 29.15 34.893 41.63l-.69 1.49c-32.897-.88-66.389-.84-99.435-1.52-.181-14.09-2.751-28.88-3.229-42.98-1.488-43.87-7.638-87.53-10.908-131.13m-380.026-13.34c11.197-.75 23.811-.17 35.148.11-.758 22.55-3.747 45.64-5.483 68.19-1.751 22.75-2.95 45.45-4.93 68.19l-.922 2.39c-2.753-1.72-12.414-27.78-14.208-32.81-10.122-28.52-14.9-58.64-14.629-88.88.057-6.4-2.246-15.95 5.024-17.19m665.513-218.04 1.882-.163.561 1.213c-8.095 31.346-50.143 26.578-73.795 35.567l-4.134-7.041-12.186-23.415c22.772-10.018 59.119-3.794 87.672-6.161m546.915 98.13c.91.856 21.89 61.8 23.69 67.38-13.34.9-27.93.48-41.39.35-7.02-.11-17.5.03-24.18-.94 14.81-18.87 29.95-45.864 41.88-66.79M201.643 685.693c1.651 7.331-8.549 99.197-11.022 111.188-8.099.367-16.372.205-24.491.159-1.823-16.612 27.385-93.416 35.513-111.347m689.05 266.513c14.914-1.074 28.764 3.756 41.97 10.263-3.823 7.041-6.895 17.112-9.562 24.847-5.342-1.804-9.433-2.701-14.961-3.919-18.076-3.297-26.994-5.064-45.573-3.739 9.69-12.231 11.082-23.69 28.126-27.452M225.898 649.09c2.346 3.863 3.18 13.329 9.421 22.708l-16.232.082-10.28 1.576c5.622-10.174 9.635-15.837 17.091-24.366"/><path d="M1416.54 1098.38c17.18-2.78 62.73 1.53 80.38 7.35 14.54 4.78 23.76 6.72 31.28 20.33 24.32-1.27 45.79-2.9 68.51 8.6 14.01 7.08 29.18 13.1 43.46 19.85.39 11.73.16 88.69-2.84 95.28-6.99 4.47-40.74 7.42-51.56 9.21-15.96 2.45-50.52 9.84-63.21 4.37-13.16-5.68-84.31-22.96-89.88-29.22-1.04-4.29.18-9.75.85-14.24-8.53-.94-23.99-4.15-32.36-6.48-18.51-5.14-26.61-5.66-36.56-22.27-.26-14.82-1.05-58.54 1.75-71.65 15-15.65 29.67-18.69 50.18-21.13"/><path fill="#fff" d="M1529.52 1138.33c12.27.63 46.06-1.44 56.04 6.47.44 2.96-1.27 2.74-4.14 6.77.46 3.15 2.96 5.44 5.12 8.02-3.23 3.51-49.51 6.51-56.3 4.81-14.11-3.49-55.26-8.58-65.83-13.87 3.35-1.32 16.94-3.49 21.12-4.25 14.64-2.77 29.31-5.42 43.99-7.95"/><path d="M1518.06 1143.1c6.27-.52 18.34-1.99 19.36 6.23-1.43 3.58-1.96 3.74-5.04 6.31-6.79.21-12.01.98-16.02-5.14-.36-3.57.07-4.15 1.7-7.4m39.51 1.86c5.78.07 12.57.36 13.03 7.45-1.49 3.2-2 3.47-4.96 5.45-5.9-.12-12.72-.11-13.88-7.15 1.58-3.46 2.41-3.61 5.81-5.75"/><path fill="#fff" d="M1431.58 1111.26c23.6-1.03 56.94 4.06 78.03 15.06-20.72 4.64-42.67 7.4-63.83 10.08-20.89 2.65-43.36-3.27-62.95-10.3-.57-.2-1.35-1.21-1.7-1.66 2.66-6.15 25.68-12.95 31-10.68l-.4 1.2c-1.12 3.43-1.78 4.59-1.03 8.11 4.28 5.78 17.92 4.59 20.09-2.31-.88-4.52-1.52-5.45-5.71-7.56 1.11-.66 5.01-1.55 6.5-1.94"/><path d="M1446.25 1113.66c6.16.03 15.84-.74 19.54 4.81-.43 3.89-.35 2.74-2.97 6.33-6.05 2.24-13.75 3.74-17.97-2.3-.79-4.87-.42-3.74 1.4-8.84"/><path fill="#fff" d="m1593.24 1173.55.71.16c1.78 3.23.24 61.73.13 69.6-4.9.61-9.92 1.5-14.81 2.29-.38.06-2.06-.2-2.52-.26-1.7-5.27.8-60.12.99-69.82zm-103.23-1.87c5.48.46 13.36 1.96 18.97 2.89-2.2 16.95-1.9 50.85-2.18 68.75-2.86.43-13.56-4.17-16.94-5.51.33-7.74-.11-17.29.05-25.44.24-12.78 1.05-28.15.1-40.69m130.19-1.5c2.53-.28 2.57-.42 5.06.46 1.27 4.32-.37 58.68-.4 67.95l-12.63 2.37-3.24.09c-2.39-3.08.27-60.57.81-68.56zm-58.91 7.3 1.22.25c1.98 5.25-.1 61.18-.17 70.87-4.32.33-8.73 1.05-13.03 1.67-4.01-5.04-.49-61.75-.04-71.27 3.34-.71 8.49-1.13 12.02-1.52m-39.3 0c4.37.4 9.54 1.3 13.94 1.96-2.2 17.02-1.82 53.95-1.89 72.02l-14.02-3.96c.15-23.02 1.43-46.85 1.97-70.02m-54.17-10.72c4.03.29 4.83.36 8.62 1.69.61.63 1.23 1.25 1.84 1.88-.46 17.72-1.63 47.31-1.55 64.14-3.86-1.29-7.82-2.34-11.04-4.8-1.05-5.47 1.76-55.09 2.13-62.91m-71.44-20.29c5.34.32 9.3 1.06 14.58 2-1.24 17.96-.69 35.02-.37 52.98-15.2-4.89-12.7-2.57-13.35-17.95-.48-11.11.94-26.41-.86-37.03m26.84 3.66c2.43.31 10.06 1.07 10.6 2.36 3.48 8.29-.57 43.15-.83 52.29l-1.49 1.09c-3.91-.02-2.39.41-5.72-1.64-3.82-6.77-2.65-43.64-2.56-54.1m26.16 12.51c1.64.86 2.92 1.7 4.48 2.69.8 1.83-1.53 55.31-1.8 61.37-1.92 0-2.83-.66-4.71-1.43-.44-.66-.88-1.32-1.32-1.97.93-18.25 2.86-43.03 3.35-60.66m-70.1-22.46c2.64 1.12 2.82 1.31 5.05 3.17.59 7.18.44 45.39-1.2 52.17-.81-.87-3.54-3.9-3.84-4.73-3.31-9.04-1.99-42.01-.01-50.61m219.4 12.91c3.51 1 8.4 1.83 10.91 4.09l-1.5.64c-3.7.54-8.65 1.68-12.06.76l-.35-1.63z"/><path fill="#cdccce" d="M1425.08 1113.2c-3.85.75-4.29.99-8.05.32l.33-.53c5.24-2.16 8.56-1.77 14.22-1.73-1.49.39-5.39 1.28-6.5 1.94"/><path d="M1430.7 480.399c3.35-.722 5.65-.643 8.43.887 16.52 22.814-15.85 109.641-76.12 63.005-8.46-8.403-32.71-43.65-25.45-54.86 4.71-2.311 79.95-7.506 93.14-9.032"/><path fill="#fff" d="m1426.69 494.492 1.72-.092 1.19 1.577c.18 10.927-4.92 30.593-12.4 38.936a28.9 28.9 0 0 1-19.99 9.541c-11.79.609-19.58-4.901-27.77-12.368-8.46-9.831-13.71-20.327-18.62-32.133 17.25.862 57.06-3.608 75.87-5.461"/><path d="M1351.64 414.582c19.95 2.303 8.57 35.616 2.59 46.52-2.75 5.023-4.49 6.255-9.49 8.726-1.45-.285-3.51-.913-5-1.315-1.53-1.5-1.97-1.329-2.22-2.956-.83-5.418 5.39-10.544 7.26-14.876 4.21-9.741 2.76-22.287 4.1-32.753q1.635-1.985 2.76-3.346m-26.44-57.228c6.37-.374 24.5.992 20.45 10.946-4.89 4.489-13.23 3.672-20.13 4.008-7.35 1.314-15.64 4.995-20.33-2.558.63-9.47 12.61-11.533 20.01-12.396m-7.48 53.272c5.15-.828 10.03 2.592 11.02 7.72a9.667 9.667 0 0 1-16.74 8.213 9.66 9.66 0 0 1 5.72-15.933m115.04-5.426c5.13-1.339 10.37 1.747 11.69 6.882 1.32 5.136-1.79 10.365-6.93 11.661-5.11 1.289-10.3-1.797-11.61-6.902s1.75-10.309 6.85-11.641m102.05 5.83c4.34-.215 6.39-.634 10.27 1.369 2.31 3.395 1.76 1.798 1.79 6.206-6.58-1.721-12.39-.682-12.06-7.575"/></svg>