<svg xmlns="http://www.w3.org/2000/svg" preserveAspectRatio="none" style="display:block" viewBox="0 0 2048 1462"><path fill="#fefefe" d="M0 0h2048v1462H0z"/><path d="M597.973 127.549c27.702-2.604 35.236 7.448 51.742 27.067 27.097 3.096 43.669 20.24 37.429 48.155 18.786 23.362 17.527 46.293-4.049 67.451-1.867 1.954-11.087 8.571-11.268 10.59-2.296 25.565-4.391 48.09-14.303 71.904 29.56-6.146 62.641-4.187 92.795-4.353 9.034-.05 17.161.135 26.296-.638 3.037-.257 13.045 1.537 16.225 1.229 6.506-.632 14.675-1.649 21.026-2.468 15.272-1.97 32.749-3.73 47.651-5.394 7.864-.877 40.873-2.435 46.318-4.462 20.29-7.549 44.249-20.665 64.595-29.404 29.64-12.73 58.69-25.718 88.68-37.572 4.64-1.832 8.34 4.43 13.16 1.967 9.44-4.819 18.7-13.922 28.25-18.42 28.38-13.367 56.45-22.989 86.74-30.698 7.47 2.304 18.16 3.036 21.98 11.746 2.44 5.588-4.25 11.97-8.79 14.605-11.66 6.761-25.09 11.511-37.68 16.46 16.85 9.388 18.22 27.153 16.2 44.284-6.89 10.717-20.26 23.644-34.03 23.771-4.87.045-7.92-3.889-11.06-7.17-6.9 2.755-19.26 5.561-26.86 7.485l-2.35 9.656c-14.81 15.244-76.82 48.945-97.31 60.382-24.454 11.966-52.362 32.74-77.483 42.268-49.842 18.907-101.694 34.791-151.993 52.581-10.56 3.735-57.466 17.087-61.06 22.904 8.222 4.763 122.779 3.525 140.577 3.595l162.359 1.31 78.47.444c11.26.062 36.48.83 46.72-1.22 7.48-20.47 12.56-43.865 27.42-60.941 27-31.037 69.57-52.999 105.41-72.157-33.43-18.107-31.41-32.295-22.77-66.084-33.37-42.7 21.94-67.514 36.33-100.768 14.87-34.367 34.26-58.374 74.65-58.262a84.82 84.82 0 0 1 60.54 25.312c27.63 27.984 21.23 56.365 40.08 86.909 12.5 20.255 14.78 25.704 14.48 48.905 25.15 13.876 31.23 31.448 21.8 57.499 1.35 1.757 19.05 9.474 22.83 11.248 32.35 15.181 88.46 43.252 107.85 74.082a112 112 0 0 1 14.85 38.578c1.05 5.761 2.34 16.32 4.72 21.212 6.47.623 19.93.337 26.9.385l50.21.411 144.06 2.354c16.5.248 59.3-.02 73.58 2.8.79.763.86.718 1.44 1.87 3.63 7.218-7.08 240.479-8.1 268.052l-2.22 78.719c-.32 9.565-.51 33.088-3.07 41.336-5.82 3.234-83.28 1.441-94.91 1.246-1.13 1.695-.87 2.755-.75 4.766.06 1.034.4 3.275 1.17 4.074 3.91 4.054 85.22-2.062 91.47 3.689 3.27 3.005 3.86 8.422 3.93 12.637.22 11.949-1.45 24.152-1.89 36.118-.65 17.426-.06 35.716-2.54 52.976-.44 3.07-.86 6.07-3.07 8.39-8.47 3.51-77.84 1.55-92.98 1.45-.89 19.77-2.27 38.49-2.63 58.41-.85 3.14-1.02 21.14-1.19 25.16a6658 6658 0 0 0-3.17 93.74c5.68-3.28 11.56-8.9 17.26-10.18 3.24.71 1.95-.11 3.97 2.56-.87 4.01-14.21 17.97-16.3 24.26 10.39-.59 36.37-19.56 43.45-14.99-.44 4.55-6.02 7.67-7.51 13.55 5.99 3.81 41.07-15 52.47-9.69l.38 1.72c-2.46 5.27-16.79 13.93-22.9 18.53 9.73 1.09 20.67 1.48 29.75 2.93 17.12 2.94 23.56 11.94 35.91 22.78 3.96 3.48 40.78 21.22 11.46 27.51-7.33 1.58-24.98.25-33.67.23l-66.25-.28c-5.32-.05-41.99-.63-47.17.73-2.25.59-.36 11.91-4.78 17.11-8.76 4.16-69.26 8.18-81.66 8.32-11.28.13-7.85-22.21-10.77-26.4-18.11-.71-37.3-.24-55.58-.56l-205.86-1.98-541.689-5-473.443-3.82-98.799-.22c-31.744-.34-67.109-1.25-98.644.27-.004 4.81.207 12.26-1.78 16.45-10.098 8.62-65.678 7.07-84.009 10.92-2.857-2.54-5.895-5.53-8.699-8.17.53-7.13.533-12.48.458-19.57-18.003-1.44-113.887 1.51-119.08-1.84-2.181-1.4-3.483-4.41-3.755-6.92-.219-2.02.267-4.15 1.625-5.65 4.212-4.67 12.73-5.6 18.505-7.35 25.72-7.81 53.145-16.41 80.255-16.71-7.085-5.18-20.029-9.43-22.572-14.82l.997-1.51c14.543-5.08 34.327 6.61 44.611 6.3 2.634-8.9-12.367-17.9-16.907-31.82l-.429-1.34c5.793 2.56 10.543 4.28 14.287 9.58l4.125 5.8c2.393-3.69 3.509-44.94 3.75-51.66l2.321-77.02c.121-4.61 2.358-62.19 1.07-62.88-11.879-6.33-58.464 3.38-68.481-5.42-6.475-13.3-.377-84.913-.382-103.349-.003-12.47 63.271-.297 74.49-7.385 2.028-3.445 1.648-1.859 1.249-6.046-6.152-5.344-66.84 3.941-75.713-6.202-1.578-16.732.393-42.049.653-59.732l2.938-141.152 2.212-120.995c.239-14.152.162-53.54 2.501-65.272 1.66-1.77 2.782-3.29 5.706-3.356 19.568-.444 41.132.166 60.563.499l109.321.881c9.594.128 43.881 1.48 51.401-.704 1.888-1.368 3.523-3.264 4.01-5.589 5.482-25.479 13.643-51.597 24.313-75.455 18.083-40.437 72.857-53.521 111.69-63.85 8.28-2.203 16.753-2.159 24.485-4.972 9.413-24.627-2.682-31.724-17.869-48.028-10.267-11.023-9.056-28.45-7.557-42.483-14.298-20.121-21.122-34.957-1.56-51.308 3.445-2.879-1.313-14.161-1.935-19.186a37.68 37.68 0 0 1 7.476-27.937c7.547-9.64 15.405-12.274 26.912-13.639.943-4.234 2.004-8.292 3.906-12.221a32.85 32.85 0 0 1 19.251-17.111c11.129-3.735 26.072-2.665 36.57 2.551 9.283-8.843 13.764-10.799 26.045-13.88"/><path fill="#fefefe" d="M268.921 1036.99c11.613 1.2 33.422.48 45.9.54l81.944.73c100.496.82 203.604.38 303.938 2.65 25.54 58.96 50.881 115.66 81.08 172.56 7.977 15.03 14.062 31.41 22.537 46.48-7.362-.84-13.125.94-20.699-.33-2.039-2.86-2.651-7.77-3.537-8.62-5.663-5.42-22.679-7.85-29.649-9.2 5.332-2.66 16.34-7.59 19.956-11.56l-.139-1.67c-8.474-11.58-44.219-1.63-50.316-4.26-.38-2.44-.308-3.02-1.814-5.04-5.225-.62-13.268 3.62-18.751 4.27-8.836 1.04-4.665-5.18-9.216-8.92-3.888.41-2.753.36-6.346 3.15-4.525 5.82-7.575 9.23-12.723 14.52-2.712-5.69-3.244-9.55-9.626-10.86-4.512 1.92-8.196 9.34-14.573 13.74l-1.022-.25c-1.419-8.4 3.106-22.55.708-30.23l-1.606-.55c-5.542 3.76-7.107 8.85-9.685 14.9-3.384-4.02-6.121-8.38-11.042-9.51l-1.756 1.15c-1.66 6.78 2.27 15.56 4.63 22.21-5.747-4.39-20.794-17.11-27.673-15.57-.811 5.57 6.374 10.69 10.363 17.29l.58.97c-22.142 1.35-51.929 9.47-73.462 15.78-9.123 2.68-11.06 13.81-25.737 7.47-.621-.27-8.348 3.14-10.241 3.47-3.657 1.22-10.736-3.49-13.919-3.75-31.584-2.6-43.245-14.78-67.03-32.26-13.774-10.12-50.236-1.24-67.422 3.92 2.956-5.44 10.355-14.49 11.397-18.28-8.964-8.72-59.84 14.77-69.262 21.54-3.299-6.5-14.663-32.42-21.25-32.53-3.094 4.63.265 15.38 1.462 20.78-4.045-4.74-8.286-10.34-12.196-15.26 2.404-38.96 1.631-80.15 3.826-119.24.757-13.49.371-37.84 2.371-50.23m670.327 6.54 215.082 2.78c25.29.45 50.57.72 75.85.83 13.55.08 29.74.55 43.07-.33 3.75 17.69 12.17 33.72 18.93 50.44 11.33 28.04 22.57 56.08 33.44 84.29 5.83 15.13 6.16 28.97 8.66 44.73.69 4.2 9.35 10.82 9.55 16.31-7.27 2.09-42.3.45-53.01.57 13.51-6.64 25.06-4.44 42.66-16.51-23.79-7.05-66.57 2.85-90.2 7.98 11.7-14.83 36.15-21.52 41.22-29.25l-.62-1.64c-10.44-4.13-30.37.41-40.85 4.21-7.43 3.1-15.55 8.83-22.41 13.29 1.26-5.88 4.61-15.21-.24-19.5l-2.37.6c-6.94 6.16-8.21 11.42-11.7 19.91-.18-.21-.36-.41-.54-.62l-.92-1.01c-3.4-3.77-7.8-9.18-12.46-4.61-1.33 5.66 1.1 10.96 3.11 16.36-19.73-1.67-58.45.21-79.31 1.72-2.04.15-9.33 3.77-11.58 4.9-21.62-5.34-42.85-17.01-64.71-21.54-10.71-2.21-52.845-10.16-58.834-.12 1.542 9.01 28.044 12.55 31.084 17.89-22.837.6-44.823 3.07-67.296 3.23 22.628-15.22 57.176-43.31 67.906-70.52 1.53-4.83 1.04-12.59-2.18-16.61-21.123-26.28-62.64 2.23-81.476 14.93 1.327-22.82-5.385-64.03-8.09-87.96-1.081-9.56-4.137-24.02-3.987-33.32 6.344-1.4 15.524-1.28 22.221-1.43m553.402-643.506c1.47.329 2.92.713 4.36 1.152 28.76 9.004 113.32 53.952 127.21 83.712 3.98 8.515 15.05 35.301 11.81 45.286-6.87 1.414-18.73.574-26.21.573-19.8.037-39.61-.078-59.41-.344l-190.44-1.528c-23.96-.1-58.21-1.423-81.18-.455-35.16-.251-80.76.483-115.12-1.837 15.07-45.152 26.83-63.731 69.77-89.107 21.33-12.601 40.97-25.212 63.75-36.191 15.36 9.733 20.52 10.846 38.85 8.452 4.96 24.205 28.12 40.229 49.25 22.526 17.67 11.56 33.32 18.42 50.59-1.922 5.96-7.012 2.26-13.291 14.99-10.044 15.29 3.9 24.64-6.675 33.47-17.084.48-.564 6.99-2.752 8.31-3.189m76.03 649.916c8.54-.09 44.8 1.18 52.83 1.9 17.73 1.59 111.07-.64 120.97 3.06 1.79 16.04-.22 49.26-.51 67l-.97 56.7c-.23 14.1.26 32.41-2.76 45.79-5.57 1.37-11.73 2.51-17.39 3.67 3.95-4.26 14.25-13.86 12.55-19.59-2.14-.77-4.05-.98-6.24-.23-21.59 7.38-43.65 13.5-65.49 20.05 4.25-4.47 13.16-11.99 12.34-18.23l-2.28-1.5c-6.06 2.12-20.31 9.36-26.62 12.36-23.05 10.97-39.04 17.76-63.85 22.53 5.99-6.92 29.97-20.11 29.9-24.51-17.64-6.41-54.55 20.52-69.7 29.92-3.93-.34-20.19.29-22.24-1.34-.77-6.26-.66-45.55 1.06-50.29 18.14-49.85 36.87-94.98 48.4-147.29M1035.3 297.877l2.09.356c15.69 11.451 28.06 33.468 35.26 51.422-16.98 7.313-36.58 21.317-53.42 30.238-37.027 19.606-73.767 44.241-113.249 58.178l-46.838 16.184a5093 5093 0 0 1-96.877 33.523c-11.347 3.839-35.983 12.845-46.364 14.77-3.824-8.408-5.607-16.951-8.215-25.669-12.266-40.998-11.366-71.82-10.254-113.482 34.298-1.823 74.648 2.044 109.506-.184 19.442.115 44.368-7.095 63.161-7.276 41.628-.401 59.771-11.374 96.575-28.507a1261 1261 0 0 1 68.625-29.553m-354.273 67.355c.518 1.728-.321 16.798-.293 20.117.304 36.749 5.627 89.331 20.952 123.115-2.03 4.977-3.3 10.13-4.703 15.315-21.425-1.052-49.041-.387-70.906-.467l-127.414-.55c-25.137-.075-50.219-1.255-75.363-1.116-5.45.03-9.684-.123-15.106.665-.261-.218-.532-.423-.782-.653-4.803-4.41-20.597-67.597-21.184-76.796 9.804-20.503 38.092-33.501 58.182-41.506 19.185-7.645 20.782-.299 37.516 5.742 28.934 10.445 62.94 14.147 93.046 6.723 17.62-4.346 39.565-14.315 56.037-22.843 12.399-6.483 38.069-24.798 50.018-27.746M1799.87 582.016c4.69.142 24.18-.095 26.85 2.038a30466 30466 0 0 0-23.73 722.836c-7.35.64-14.69 1.36-22.02 2.15-4.37 1.2-10.06 1.73-14.65 2.3-.67-8.51.43-20.49.68-29.41l1.53-57.12c1.54-62.12 3.74-124.22 6.62-186.3l17.4-352.737q2.085-37.413 3.48-74.855c.33-7.252-1.08-24.598 3.84-28.902M227.168 570.337c6.864.003 23.087-.698 28.733 1.965.701 4.71-.128 18.061-.324 23.418l-1.392 42.939a7923 7923 0 0 1-5.85 181.85l-9.893 284.501q-1.765 74.28-4.527 148.53c-.439 13.09-.128 26.2-.742 39.19-4.931 1.32-31.621 3.52-36.004 2.83-1.356-4.85 1.578-48.67 1.894-56.76l5.363-143.62a47155 47155 0 0 1 22.742-524.843m486.983-29.489 283.128 2.49q44.206-.105 88.411.278c16.4-.016 41.68-.7 57.35.949 2.18 11.802-2.67 28.645-.01 41.642-.09 2.072-.17 5.103-2.91 5.253-23.42 1.283-48.5.544-71.96.5l-267.226-1.331c-9.486-.002-78.805.388-82.334-1.657-2.35-7.847-5.733-39.915-4.449-48.124m-429.896-2.89c99.439 1.923 199.439.81 298.962 1.873q34.145.505 68.293.657c14.082.029 30.937-.549 44.765.538 3.695 2.806 3.099 37.178 5.601 47.117l.253.968c-6.717 2.113-48.522.816-58.434.831l-253.058-1.727-69.756-.304c-10.78-.078-28.539.305-38.623-1.224-.251-11.554.352-37.733 1.997-48.729m927.755 310.516 261.01 1.807 81.39.594c11.84.053 41.06-.157 51.63 1.409 2.35 4.092-6.68 44.399-8.24 51.764-3.58 1.25-51.09-3.627-59.33-3.865-71.2-2.058-141.78-5.985-213.08-2.28-15.03.78-31.44 1.4-46.43 2.082-13.92.633-43.02 6.951-54.76 4.489-4.56-4.366-14.51-50.999-12.19-56m.38-303.41c37.69-1.258 81.63-.041 119.63.488l131.58 1.237 81.78.542c14.47.084 36.03-.375 49.75 1.513 5.22 6.858 9.28 37.373 10.71 46.941-6.81.056-14.92.359-21.6-.376-7.07 2.032-65.84-.251-78.94-.327l-296.64-2.039zm-472.961 77.511c2.026-.698 52.777.185 58.715.226l236.836 1.895c34.92.275 76.64-.987 110.77.731 2.62 5.573 10.31 35.052 7.05 39.814-4.63 1.668-26.12.601-33.05.556-13.97.99-38.43.083-52.71-.082l-89.485-.643-175.756-1.246c-25.303-.279-52.049-.015-77.183-.917-1.384-13.479-3.479-26.663-4.852-40.151q9.832-.197 19.665-.183m464.831 76.468c70.08-.549 143.66 1.173 214.05 1.617l127.26.91c7.85.063 66.69-.59 70.83 2.229.63 4.248.5 36.73-1.5 39.795-3.55 1.429-6.91.764-10.84.478-11.99 1.087-33.64.111-46.33-.077l-66.78-.428-192.17-1.592c-31.11-.197-63.82-.921-94.81-.319-.2-14.102.3-28.433.29-42.613m-922.478-78.947c32.472-1.346 75.068.203 108.504.351q96.465-.123 192.923 1.143l76.434.454c11.376.059 31.278-.353 42.026 1.313 2.198 6.941 7.622 34.869 2.587 39.812-5.529-.663-9.425-.412-15.005-.201l-260.344-2.045c-47.51-.397-101.395-2.558-148.046-1.43-1.387-9.801-.34-29.308.921-39.397m925.648 4.815c12.38 1.457 29.67.998 42.57 1.034l67.06.197 206.49 2.122 53.34.494c9.82.093 24.58-.211 33.94 1.156 3.32 4.039 4.18 32.605 4.72 39.853l-27.8.215c-36.51-.545-73.03-.787-109.54-.727l-159.35-1.635c-13.9-.078-110.89.494-113.58-2.176-1.08-6.928.03-33.874 2.15-40.533m-1.9 149.541c21.29 1.26 49.75.614 71.55.763l134.44.758L1543.29 777c23.17.244 48.26 1.046 71.29.564-.22 10.55-2.78 30.047-2.12 37.798l-2 1.704c-13.91 1.178-35.32.298-49.81.218l-89.41-.364-183.58-1.481c-10.61-.125-76.19.634-80.58-2.139-2.4-7.186-2.53-31.054-1.55-38.848m-318.154 72.037c20.73-.467 44.179.342 65.141.51l102.693.484c45.1.379 93.69-.793 138.54.963 2.08 17.414 3.46 27.417 9.14 44.235-3.73.357-9.24.335-13.14.423-32.73-1.645-288.148.748-295.781-4.238-2.952-8.355-5.169-30.192-8.346-39.957-.397-1.221.594-1.563 1.753-2.42M849.02 696.038c12.997 1.262 44.741.549 58.629.637l120.261.725c27.42.042 54.83.222 82.24.54 13.46.188 40.9 1.249 52.94-.05 2.93 9.777 13.71 33.616 14.44 42.921-8.51.786-25.89.116-35.21.045l-67.37-.464q-105.464.021-210.912-1.405c-4.44-20.043-6.437-24.2-15.018-42.949m-432.397-4.328c96.885 3.97 197.806.012 294.861 3.121.293 4.583.222 8.429.782 13.105.938 7.83 5.042 21.332 3.921 28.801-4.27 1.782-9.354.568-14.774.943l-.822.063c-24.991-1.678-68.749-.374-95.072-.467l-179.556-1.115c-2.417-7.212-8.917-36.845-9.34-44.451m520.619 289.898c4.26.908 23.308.737 28.599.762l50.629.44 220.45 2.16c11.74.193 32.37-.293 43.14 1.385 73.09 11.376 146.89 8.704 220.55 7.753 17.65-.228 36.44-5.28 54.02-5.923 11.85-.435 24.69.325 36.76.328 34.37-.107 68.74.252 103.09 1.078 7.73.121 48.84.165 52.48 1.03.98 4.115.39 12.669-.68 16.829-6.79 1.55-18.08-.16-25.72-.11l-1.44.02c-12.48-1.2-49.03-.31-63.99-.44l-140.14-1.53-485.13-6.271c-16.31-.196-111.059 1.121-116.438-1.035-3.138-1.26-5.322-3.512-6.422-6.715-.954-2.777-.727-4.879.54-7.458 3.978-3.539 22.624-1.947 29.702-2.303m-67.334-209.546c15.038-.862 36.017-.293 51.334-.214l94.428.803c39.12.104 78.23.515 117.34 1.23 8.49.126 47.2-.823 53 2.101 2.23 8.195 6.29 31.362.62 37.942-3.06.405-4.61.623-7.65.144-14.53 1.032-38.5.099-53.46-.085l-89.47-.8a9729 9729 0 0 1-117.621-.855c-6.511-.087-33.889-.014-37.998-1.149-5.434-6.796-6.423-27.78-10.148-38.106zm-436.538-2.931c7.778.815 22.747.587 30.899.674l68.391.184q94.545.15 189.083 1.403c.105 5.741.466 8.696 1.352 14.401-7.911 5.859-15.843 13.952-24.099 20.449l-7.89 5.697-165.603-1.312c-26.053-.248-52.633-.109-78.684-.954-2.221-.072-4.952-.373-6.306-2.086-3.304-4.179-9.444-33.637-9.154-37.347zM271.213 975.932c7.049 1.597 31.908.615 41.082.831 48.198 1.136 96.538.441 144.787.781l198.824 2.239q36.182.543 72.367.551c12.539.038 29.017.612 41.096-.508.711 4.657 2.641 11.787.88 15.475-3.354 2.073-5.062 1.247-9.618 1.174-2.867.747-27.95-.196-33.161-.211a10453 10453 0 0 1-152.019-1.48l-218.159-1.541c-28.537-.358-58.988.253-87.377-1.342.065-5.924-.132-10.226 1.298-15.969m4.455-133.916c50.79-.001 104.971-.008 155.687.931 2.81 13.491 7.026 29.201 10.612 42.6l-1.035 1.497c-35.086 1.274-71.172-.545-106.367-.343a1429 1429 0 0 1-60.611-.968c-.258-14.038.742-29.643 1.714-43.717m625.89 104.451c8.098 1.104 24.617.715 33.439.911 24.865.555 50.077-.27 74.953.202l153.67 2.526c17.02.157 52.08 1.631 67.17.242 3.77 3.793 15.47 14.802 17.38 18.537-3.28 1.512-7.5-.723-11.92.543-8.83-.96-22.41-.621-31.56-.644l-51.52-.16-149.38-2.002c-31.181-.232-68.896 1.145-99.635-1.255-.692-6.795-1.402-12.179-2.597-18.9m722.982-95.233c17.27 1.312 124.02-.801 128.76 2.318.85 7.764-.86 33.332-1.49 41.919-1.84 2.232-.66 1.426-3.94 2.008-4.38 1.227-8.45.73-12.92.739-39.59.075-79.52-1.619-119.07-.258 2.69-15.5 5.76-31.238 8.66-46.726M277.994 768.368c12.236-1.042 48.966.212 62.192.235 14.285.025 63.145-.615 72.981 1.719.755 1.108 7.969 35.141 8.356 38.49-2.334 1.282-6.882.838-9.773.806-35.313.638-71.103-1.023-106.446-.736-9.303.076-19.247.075-28.495-.619-.534-12.578.543-27.167 1.185-39.895M1658.36 548.063c15.49 3.917 103.93-2.051 110.46 4.045 1.19 7.743-1.09 36.986-2.18 45.37-34.79-2.071-75.77-.519-111.58-1.465-.23-6.939-.77-42.695.77-46.979zm-24.26 154.579c15.68-.885 45.27.452 61.7.357 13.03-.075 54.15-.394 63.8 1.469 1.89 3.533-.34 35.563-1.68 40.775-2.79 1.179-7.88.758-11.13.72-12.63-.325-109.83.195-113.06-2.52-1.01-7.459-.72-33.337.37-40.801"/><path fill="#fefefe" d="M983.313 1158.24c3.448-.59 7.69-.71 11.014.44 17.763 17.05-90.695 91.92-106.319 101.17-10.587 6.26-18.293 11.59-30.756 13.93-3.969.39-12.251 1.07-13.679-3.59 11.453-10.51 25.81-18.58 33.755-31.81 4.42-7.36 6.573-15.81 10.738-23.2 3.878-6.87 14.186-7.26 20.018-11.78 24.738-17.64 43.503-39.86 75.229-45.16m648.777-380.985c9.68 1.178 30.59.662 41.38.785l84.05 1.13c-.2 5.153-1.21 35.966-2.55 38.462-4.03 1.72-8.71 1.327-13.22 1.383-15.97-1.344-104.62 1.235-111.04-2.282-2.01-6.888.97-30.371 1.38-39.478m20.63-148.227c24.35 2.205 55.52.061 80.4 1.221 9.1.424 22.15-.607 30.67 1.074 4.1 4.335.52 10.981.24 15.714-.5 8.239 3.45 15.17-2.13 22.38-4.21 2.207-4.37 1.359-9.85 1.131-4.32.332-10.6.142-15.06.103-30.86-.276-62.16-.032-92.97-1.298 1.21-6.782 5.82-36.941 8.7-40.325M282.233 941.568c17.152 1.213 44.791.183 63.021.2 41.628-.185 83.257.211 124.874 1.187 4.268 4.091 16.231 15.066 19.011 19.311l-1.158.866c-4.907-.754-13.337-1.031-18.211-.268a9294 9294 0 0 1-105.337-.729c-27.552-.535-66.681-1.564-94.135-.194.168-6.041-.577-13.523 2.444-18.299 3.967-2.643 3.982-1.796 9.491-2.074M1853.01 551.923c28.27-.177 56.55.979 84.82.801-.65 7.519-1.72 44.68-4.11 48.077-19.51.882-61.81.123-81.5-1.079-.62-15.429 1.52-32.103.79-47.799m-8.14 301.122c26.53-.033 52.92 1.52 79.57.968.92 11.176-.25 28.783-1.15 40.385-.25 3.317-1.76 3.673-4.26 5.479-8.58-1.492-65.89-1.72-75.76-.862-.12-13.346.07-32.919 1.6-45.97m-659.29-615.044 3.22.026.24.91c-10.56 7.294-41.32 14.155-46.91 27.676 1.59 4.812 15.94 11.528 22.04 15.663 8.98 22.51 1.31 29.341-18.03 38.83 5.67-4.638 18.32-13.667 15.01-22.243l-2.57-1.06c-8.68.571-13.42 5.141-20.6 10.123-16.26 8.173-17.86 6.623-35.19 10.874-7.96-10.947-11.63-22.803-20.15-34.181 20.88-21.166 74.34-37.648 102.94-46.618M131.885 536.297c10.599.002 60.861-.072 67.53 2.739 2.222 6.245-.049 40.442-1.909 47.953-16.46-1.611-50.038-.895-67.915-1.091.046-8.882-.32-43.459 2.294-49.601M1851.35 705.238c9.29-1.025 69.93.213 78.06 1.467 3.95 3.546-.58 14.151.02 19.044.66 5.333 2.01 16.741-2.01 21.062l-4.17.134c-9.07.423-71.47 1.102-75.43-2.17-.48-10.994.58-25.002 1.15-36.245.12-2.291.65-2.081 2.38-3.292m-4.13 73.933c20.81 1.495 61.88-1.237 80.05 1.815 2.46 3.65-.21 31.179-.5 38.046-.77.544-1.7 1.196-2.78 1.956-22.97-1.17-56.74-1.096-78.52-1.006.27-10.481-.15-31.513 1.75-40.811m4.81-147.033c26.56 1.661 54.34.701 81.14 2.011 0 8.476.66 31.64-1.82 38.266l-2.1.606c-12.09.389-71.87.778-78.51-2.277-.83-4.968 1.1-30.588 1.29-38.606m-261.31 320.656c35.59 1.403 74.42-.486 110.24.768 9.13.319 40.63-.396 47.56 2.039.73 4.127.57 12.549-1.63 16.18-2.4 1.741-2.57 1.799-5.52 1.829l-8.99.149c-21.91-3.456-148.42 1.569-157.43-2.895-.03.097 14.07-15.963 15.77-18.07M128.491 690.043c19.23 1.285 43.771.804 64.006 1.58.274 6.946.701 37.88-2.823 42.075-15.034-1.201-45.58-.401-62.369-.796-.572-7.897-.553-36.086 1.186-42.859m1.002 150.443c8.324.01 53.252-1.215 56.438 1.702 1.148 9.936.521 30.314-1.261 40.687-.315 1.829-.576 1.431-2.476 2.413-11.63-.722-50.782.068-58.301-2.438-1.43-4.436-.635-34.728 1.067-41.017.266-.981 3.504-1.172 4.533-1.347m778.572 83.036c7.757-.85 27.26.105 36.137.259l60.188.513 113.95.894c4.81.074 9.64-.821 14.54-.754 22.33.305 60.81 3.112 81.89.774 2.25 1.431 4.09 4.21 4.49 6.802l-1.78 1.589c-6.7 1.929-314.527-2.523-317.706-3.7l-.648-1.466c2.051-5.229 4.123-4.401 8.939-4.911M126.61 765.597c17.891 1.073 45.91 1.136 63.832.923-.764 8.558-.376 36.015-3.708 40.814l-1.981.084c-8.185.551-51.602.616-57.516-1.288-3.228-5.824-1.9-33.681-.627-40.533m3.606-146.503c20.822.749 45.219-.79 65.705 1.071.377 7.116.044 32.093-2.307 38.115-2.582-.169-3.24-.199-5.659.667-8.564-.144-54.985.262-59.031-2.149-.763-5.501-.068-32.424 1.292-37.704m202.123 73.357c9.265-1.209 57.435-.406 66.801.473 2.364 4.643 8.37 37.641 7.609 42.906-21.599-1.478-33.634 5.103-50.717-9.515-8.791-7.523-22.31-22.154-23.693-33.864M1403.35 1045.07c11.87-.13 22.83-.18 34.69.27-1.11 15.77-1.22 31.37-2.19 47.06-1.25 20.48-3.69 40.32-2.29 60.95l-1.07 8.58c-1.73-3.56-5.7-23.48-6.93-29.07-6.21-28.39-16.18-59.76-22.21-87.79M452.323 842.903c13.625-.775 29.928.289 43.825-.029 44.799-1.026 91.616 2.158 136.106 1.271-5.631 1.95-10.24 3.144-16.034 4.604-7.624 1.423-17.636 3.412-24.775 5.445-37.847 10.782-78.035 6.899-115.325-4.26-7.596-2.273-16.084-3.756-23.797-7.031M280.312 692.025q17.45-.058 34.901.068c3.747 19.733 9.965 27.04 22.253 41.613l-.585 1.631q-29.222-.647-58.45-.351c-.467-8.132 1.063-34.534 1.881-42.961m325.015-408.358c1.549.125 3.595.482 5.18.706 4.28 3.297 3.682 7.385 5.972 11.976 2.67 5.353 8.527 19.658 14.707 20.879 6.893 1.362 12.128-13.524 16.527-17.502 2.554-2.31 5.846-4.474 8.843-6.5-1.017 10.786-3.061 24.507-5.431 34.998-2.122 8.228-3.418 13.651-6.689 21.537-5.036 3.383-9.377 7.234-15.426 6.283-3.234-4.449 3.533-19.763-10.888-25.715-8.101-11.432-21.309-33.166-12.795-46.662m838.143 918.923c.87.64.89.56 1.5 1.29 9.6 11.53 25 21.7 40.64 19.42 8.5-1.24 13.62-4.34 20.55-8.99-.84 6.57-2.6 21.24-1.08 27.42-.97 2.49-4.38 7.6-5.94 10.09-14.28 1.17-25.69 2.16-39.85-1.1-4.93-17.08-12.03-30.24-15.82-48.13m-274.3-658.081c7.02.228 14.77.098 21.75.718 2.53.225 2.4.948 3.68 2.846.63 4.13-2.07 41.431-4.01 44.428l-2.34.444c-9.39.193-19.4-.018-28.84-.058-.51-11.306-1.5-36.33 1-46.959 2.32-1.763 5.69-1.359 8.76-1.419M625.913 368.95c2.973.143 10.487-.182 12.44 1.009-.858 1.224-1.177 1.648-2.491 2.401-51.891 29.766-80.713 37.88-138.241 25.299-4.596-1.188-9.197-1.951-12.865-4.809l.216-.805c5.94-3.294 21.19-5.027 27.841-3.397 38.326 9.395 78.632-5.007 113.1-19.698M1841.58 955.001c18.22-.746 37.39.85 55.71.388 7.84-.198 16.26-.126 24.07.257.42 4.138.36 13.928-.62 18.238-.23 1.027-2.39 1.401-3.74 1.874-5.71-1.667-12.59-.557-18.36-1.015-14.91-1.183-44.01.919-57.79-1.304-.74-4.187.36-13.778.73-18.438M271.851 917.816c12.61 1.146 34.999.552 48.282.58l81.704.615c16.196.088 32.596-.046 48.79.335 4.802.113 5.067 1.02 7.781 4l.369 2.266-1.131 1.495c-1.255.311-31.157-.049-34.676-.035q-23.346.078-46.693-.101c-26.819-.147-77.973 1.122-103.129-1.295-1.879-2.891-1.247-3.984-1.297-7.86M1411.53 1210.73c2.45 6.95 1.52 30.54 2.31 40.25-15.54 4.41-30.36 2.53-46.43 1.57-1.47-2.17-2.77-4.6-4.08-6.89-3.53-7.49-8.4-16.22-12.32-23.66 22.92 13.97 43.09 8.67 60.52-11.27m196.16-284.485c5.4.774 10.85.618 16.29.503 36-.761 72 .149 108 .129 6-.003 11.97-.075 17.94.537l.9 1.23c-.19 3.882-1.01 4.792-2.91 8.223-6.64.491-13.95.36-20.65.15-42.04-1.32-84.5-.185-126.47-1.309 1.87-5.921 1.4-7.469 6.9-9.463m235.52 64.144c7.28 1.862 60.11 1.025 71.24.849 1.76-.028 1.39-.436 3.86.439 2.78 4.069 2.54 12.093-.39 15.853l-2.16-.3c-14.3 1.24-62.13 1.25-75.97-.69-2.93-4.26.07-10.26.46-14.986zM728.442 944.257c2.447.477 28.311.622 32.047.691.524 6.635 3.706 14.096 6.113 20.332-11.017.807-18.807.163-29.354.621-10.728.502-30.772-1.908-39.609-.242l-1.025.203-1.224-.882c2.789-3.263 7.602-5.131 11.173-7.575 8.631-5.909 11.692-10.181 21.879-13.148m-604.72-4.929c8.125 4.742 49.57-.991 56.557 2.754 1.741 5.346.832 12.548.364 18.17-6.773-.351-55.203-.109-57.321-2.246-.819-5.313.024-13.12.4-18.678M1614.06 548.009c5.49.231 20.28-1.258 23.87 1.365 2.32 8.601 1.11 37.537-.2 46.63-4.49-.165-9.57-.054-14.12-.055-3.98-14.73-6.8-32.635-9.55-47.94M591.883 355.362c2.168 2.912 2.687 3.386 3.897 6.726-1.551 3.263-1.221 2.277-5.384 4.271-12.505 4.329-59.397 15.44-67.854 7.385 2.696-5.949 1.502-11.515 1.068-18.19 22.665 7.942 45.609 9.441 68.273-.192M148.261 975.575c1.112.473 25.044.753 30.794 1.914.15 3.962.795 7.779-.968 11.131-5.484 5.009-14.274 2.021-24.42 2.893-8.049-.449-23.448 1.659-28.906-3.238-2.027-3.672-1.315-8.463-1.203-12.9 7.683.605 17.034.79 24.703.2M1164.14 624.814c8.39.127 16.78.358 25.16.692-.47 9.424-.41 31.808-1.78 39.109l-.3.736c-5.24 2.481-8.87 1.186-14.36-.086-2.13-4.783-7.33-33.304-8.72-40.451M375.272 471.701c2.442 2.87 11.205 42.761 12.338 49.26l-.972 1.062c-2.929.223-5.451.284-8.39.318-3.386.018-13.853.472-16.031-1.93.129-7.941 9.446-41.36 13.055-48.71m685.288-185.89c10.5 4.925 29.95 36.316 31.1 48.463-1.9 2.297-3.14 2.131-6.3 3.207-4.85-14.375-10.47-24.353-21.08-35.725-2.89-3.091-9.6-8.47-11.64-11.505zm367.54 913.859c2.15 2.13 4.47 23.81 7.21 29.57 1.55 3.26 6.32 15.7 6.87 18.83l-2.06 1.22c-4.08-.24-6.78-.07-10.48-1.82-1.48-3.65-4.02-40.76-3.85-46.05zm199.8-570.836c3.87.379 4.61-.268 6.83 2.036.93 5.277-1.55 13.726-2.47 19.89l-1.46.628c-1.33-2.424-2.39-18.573-2.9-22.554M606.659 337.39c10.346 2.091 8.678 5.764 8.384 15.219l-3.304-1.087c-2.882-3.706-3.89-9.448-5.08-14.132m574.991 360.734c2.36.476 2.33.407 4.43 1.557 2 4.163 1.46 8.404 1.44 13.152l-1.43-.755c-2.4-3.752-3.38-9.465-4.44-13.954"/></svg>