<svg xmlns="http://www.w3.org/2000/svg" preserveAspectRatio="none" style="display:block" viewBox="0 0 2048 1462"><path fill="#fefefe" d="M0 0h2048v1462H0z"/><path d="M1045.64 66.396a139.28 139.28 0 0 1 86.09 20.138 140.75 140.75 0 0 1 63.28 89.313c1.79 7.795 5.63 25.761 1.57 32.157-4.56 2.911-107.19.359-122.98 1.588.84 34.755-.35 70.083-.03 104.887.05 5.356-.19 10.827-.51 16.174 5.6 2.535 11.84 4.84 17.64 7.307 34.64 14.743 67.74 47.876 81.9 82.818 12.4 30.606 6.55 59.72-5.89 88.787 9.51 14.087 8.84 25.767.28 40.543-6.01 10.392-14.54 16.631-26.21 19.434-3.94 6.926-7.6 14.793-11.12 21.994 23.39-.262 165.54-1.121 177.46 3.078 5.31 6.373 3.46 65.35 4.35 80.173 4.52.205 43.46 2.592 43.41-1.265-.25-19.271 28.67-15.972 46.05-17.705a7447 7447 0 0 1 80.46-7.866c24.11-2.245 90.99-10.397 118.39-11.428 4.3-.162 11.67 21.863 14.16 28.732 52.22-1.517 106.23 1.745 158.71-.047 2.8-.096 11.36 3.631 12.43 5.726 6.75 13.274 10.89 29.099 15.77 43.369 52.45.85 105.27-.414 157.71.25 2.65.034 4.74 1.58 6.25 3.556-.16 5.525-5.5 7.789-10.5 7.78-14.43-.026-28.83-.404-43.28-.388-35.65.316-71.31.318-106.96.006 3.16 12.61 7.94 26.603 11.81 39.15l20.3 66.553 59.7 196.8 21.4 69.55c2.47 8.17 9.26 28.91 9.8 35.51.56 6.74 1.83 42.79-1.76 45.84-6.48 5.49-45.14 3.93-55.36 3.85l.45 135.09c.11 16.28 1.48 69.17-1.15 81.24-6.23 6.13-20.43 3.91-28.51 4-11.52.11-16.13-1.43-16.31-13.7-.21-14.84.94-29.68.92-44.55l-.79-91.11c.01-22.58.92-49.1-.02-71.15-8.47.7-30.93-1.22-36.69.35-3.19 6.26-.56 25.8-.8 39.16-1.02 58.31.89 116.89-.66 175.1-2.73 7.2-21.44 6.51-25.59 6-8.81-1.07-12.95-1.61-13.43-10.89-.93-17.64-.27-38.13-.24-55.81l-.21-109.14c.03-9.1 1.05-38.03-1.11-44.54-.35-.07-2.12-.44-2.41-.43-52.12.94-104.42-.78-156.51.02-10.33.16-19.3.54-29 .57l-178.54-.2c-8.32-.02-63.67-1.06-66.04.79-.75 8.41 2.54 75.87 4.13 85.26 35.4 1.09 76.86.3 112.65.25l200.64-.15 62.41-.37c9.59-.07 21.39-.6 30.88.58 3.45.43 3.6 1.12 5.1 3.4.02 4.26.49 2.64-1.68 6.19-2.27 1.27-5.37 1.7-7.96 1.61-30.38-1.09-61.07-.5-91.49-.42l-310.04.16c-.27 9.06 2.31 34.85 3.48 44.17 10.74 7.16 84.09 67.47 85.38 73.64l-1.29 1.84c-3.95 2.54-10.09 2.72-14.89 3.26-6.8-6.25-14.11-11.3-21.4-17.16a3941 3941 0 0 1-46.67-37.95c1.49 8.77 7.04 46.88 1.15 52.05-15.49 3.16-67.3 1.51-84.13 1.38-32.33-.25-64.96.93-97.34.89-9.76-.02-20.09-2.07-30.07-2.27-8.78-.17-21.24 2.18-29.45 1.91-19.25-.65-37.15-.59-56.35-.11-13.62.34-34.108 1.82-47.137.61-45.986-2.9-93.292 1.76-139.241-1.4-14.044-.96-97.701 3.56-104.355-2.51-5.257-8.29-.42-33.26.926-44.07-9.312 8.15-55.23 43.79-64.004 46.8-5.752 1.96-18.088 1.56-23.545-.85l-.448-1.65c5.128-8.49 53.346-42 64.042-49.81 7.9-5.77 17.979-14.6 26.383-20.13 1.466-16.27 3.058-32.53 4.775-48.77l-275.814-.82c-30.47.16-60.941.12-91.411-.11-9.406 0-40.21 4.14-42.708-6.19 4.576-5.85 20.182-3.8 27.826-3.71q18.896.225 37.792.09l229.504-.26 68.968.02c7.257.03 41.229 1.26 45.559-1.65 3.715-9.48 8.504-69.43 9.794-84.06-12.667-1.32-25.216-.39-37.897-.59-41.44-.68-82.813.23-124.247.27-20.603.02-41.112-1.18-61.681-1.3-15.429-.09-30.806 1.3-46.23 1.38-19.021.11-146.727-2.35-153.502.15-2.468.91-2.121 7.7-2.181 10.25-.605 26.03 2.347 193.84-1.213 202.15-.919 2.15-3.044 3.47-5.145 4.3-5.692 2.23-24.551 2.85-29.707-.05-2.846-1.61-4.313-4.46-4.962-7.55-2.598-12.4-.533-37.06-.465-50.6l.363-118.29c-.03-8.02.348-33.06-1.161-39.14-4.356-3.32-29.153-2.96-36.224-3.15.114 20.97 1.836 210.35-1.751 216.2-1.247 2.03-5.738 3.04-7.899 3.38-6.325.99-27.364 2.17-32.223-1.96-2.165-1.84-3.524-5.49-3.822-8.26-1.995-18.52.106-43.34.197-62.46.234-48.67.862-97.61-.306-146.26-21.591.65-45.718 1.47-66.983-1.1-9.937-1.72-8.536-12.25-9.223-19.18-3.048-30.8 7.255-50 17.24-78.02l37.116-102.372 92.957-256.614c-24.616 1.583-56.183.252-81.377.381l-62.075-.112c-8.712.044-43.998 3.483-46.281-5.351 4.302-8.165 12.464-5.142 20.365-5.163l44.522.122c42.075.324 87.24.62 129.227-.289 3.975-9.719 6.459-20.096 10.33-29.89 1.475-3.732 3.472-8.802 7.35-10.523 9.123-4.049 77.367-1.76 91.864-1.431 7.109.161 15.083 1.439 22.11.538 15.626-2.004 14.001-34.765 26.754-39.006 6.485-2.156 245.001 26.036 250.82 29.478 4.093 2.422 4.631 7.599 5.708 11.844 5.33-.112 46.626 1.847 47.773-1.373 5.218-14.652-3.888-69.577 5.792-80.473 5.236-2.973 49.033-1.502 58.322-1.487l116.685.247-8.892-18.884c-7.947-4.208-19.648-9.214-23.496-17.544-6.129-13.267-11.787-37.638 4.21-45.767-18.226-27.83-20.481-87.927 2.817-114.603 9.115-10.436 21.156-14.074 33.891-17.893 21.854-41.874 63.758-61.596 110.184-54.822 1.76-35.42-.4-76.002.95-113.285-14.22-.116-121.242.71-125.01-1.967-.64-1.26-1.516-3.058-1.488-4.479.576-29.18 15.133-62.985 33.086-84.646a142.63 142.63 0 0 1 97.162-51.66"/><path fill="#fefefe" d="M1030.6 702.432c46.02-2.479 92.48 2.136 137.97 8.724 88.43 12.809 115.72 99.448 145.57 171.414a3822 3822 0 0 1 52.23 129.14c3.33 8.62 7.85 18.91 10.46 27.13 9.42 29.69 45.03 90.99-7.81 98.14-28.96 3.92-38.59-1.36-61.01-16.48-9.93-35.2-6.5-61.62-44.62-81.97-7.99-4.26-20.6-6.4-27.23-12.09-7.67-6.6-11-80.112-11.29-93.179-.26-11.805 1.55-24.401-.45-36.091-.27-1.581-.91-2.796-2.19-3.768-2.17-1.646-6.12-2.256-8.77-1.808-1.84.311-3.41 1.272-4.42 2.889-3.43 5.548-1.75 14.836-1.81 21.051-.6 35.564 1.98 71.11 7.71 106.216-73.96-20.31-126.41-21.67-200.69-23.854-51.564 1.977-97.652 6.354-148.516 16.494-14.335 2.85-29.035 7.66-41.718 10.06-4.082-4.28-.818-68.476-.129-78.263.786-11.178 7.397-55.098 3.206-62.691-1.407-2.551-3.943-4.696-6.899-5.132-1.977-.293-3.168.378-4.525 1.726-12.553 12.476-11.628 128.13-11.79 151.59-30.706 13.33-34.886 33.91-42.291 64.02l-.565.65c-13.713 15.81-36.489 40.59-58.365 43.5-18.451 2.45-46.546-22.48-43.346-40.82 6.922-39.69 27.215-80.93 41.447-119.089 20.12-53.952 41.064-108.675 65.529-160.844 45.398-97.42 168.948-112.639 264.312-116.665m595.29-18.127c5.63.954 52.87.83 59.96.534 25.38-1.059 59.38 1.416 83.75-.58 4.47 16.94 13.93 42.832 19.43 60.994l51.28 168.598 49.58 164.999c4.66 15.07 8.55 30.47 13.6 45.33-43.5 2.37-94.86.79-138.66.44l-173.4-.15-121.37.51c-13.84.05-41.39 1.15-54.28.06-.05-6.45.03-29.59-1.05-35.23-3.85-20.13-15.64-43.09-22.54-63.04-12.7-31.629-24.71-64.865-37.78-96.382-5.51-13.279-36.9-81.733-36.27-90.296 1.82-.855 10.18-1.047 11.29.715 5.53 8.746 8.78 54.518 19.55 55.313l2.2-1.965c2.43-7.437-10.24-48.33-12.26-58.815-2.35-12.253-18.91-2.265-26.08-8.372-2.28-6.24-1.93-114.786-1.63-131.625 14.81-.193 29.63.036 44.43.684.38 9.363 4.9 43.053 6.85 51.539 3.89 16.89 13.52 114.023 18.59 119.213 12.54 3.149 49.2-1.269 64.03-2.414a5681 5681 0 0 0 110.57-9.226l80.75-6.657c5.78-.43 40.69.371 40.01-7.889-1.18-14.279-9.51-31.344-14.54-45.069-13.22-36.083-26.83-72.096-40.02-108.155.27-.674.54-1.348.8-2.022z"/><path d="M1593.04 868.402c2.29-.527 5.23-.559 7.44.298 2.15.834 4.03 2.242 5.44 4.071 6.17 8.017 14.82 21.438 20.95 30.175l45.29 64.341a2239 2239 0 0 1 46.69 67.923c4.72 7.11 12.03 15.89 14.98 23.86.78 2.1.41 5.44-.56 7.4-.18.38-.92 1.62-1.12 1.8-5.87 5.06-198.71 34-225.37 43.04-11.18 1.71-41.18 7.83-50.11 3.98-2.79-2.67-4.89-6.3-6.53-9.78-23.61-50.06-44.03-101.3-67.36-151.499-5.31-11.436-16.63-32.937-9.44-44.903 2.42-4.013 14.27-7.165 18.65-8.245 24.97-5.24 50.65-8.434 75.84-12.6 41.83-7.06 83.21-13.994 125.21-19.861"/><path fill="#fefefe" d="M1592.62 886.394c6.56 6.142 33.46 48.13 40.03 57.714l41.6 60.622c6.2 9.13 13.22 18.24 18.62 27.71-26.5 2.94-55.59 9.01-81.86 13.89l-109.24 19.64-23.21 4.21c-7.49-11.57-19.63-38.17-25.9-51.47-16.27-34.559-32.01-66.729-49.69-100.63 12.55-3.536 37.7-6.386 51.34-8.977 44.95-8.543 93.74-13.473 138.31-22.709"/><path d="M1601.53 955.313c5.39-.979 12.66-1.065 10.3 6.705-2.13 2.062-5.61 4.104-8.54 4.562-42.17 6.596-85.97 17.031-128.08 22.176-5.71 1.491-13.99 2.121-12.25-6.678 4.54-4.658 39.67-9.341 48.31-10.894a4856 4856 0 0 1 90.26-15.871m-18.86-32.932c4.62-.852 4.87-.281 7.82 3.018.84 3.821 1.1 2.323-.76 5.455-8.99 4.967-21.78 5.565-32.04 7.499a2035 2035 0 0 1-60.35 10.589c-13.47 2.136-28.97 3.952-42.09 6.919-4.96.014-3.43.659-6.8-1.704-1.89-4.013-1.66-2.347-1.27-6.422 1.64-1.897 1.54-2.458 4.06-2.933 14.11-2.659 28.99-5.053 43.1-7.44z"/><path fill="#fefefe" d="M309.011 691.097c8.464 1.484 23.351 1.199 32.362 1.335l65.178.437c-9.821 17.832-20.116 43.207-29.747 62.78-10.386 21.107-22.945 47.473-31.631 69.392-1.057 2.667.259 6.106 1.869 8.517 3.329 1.895 8.538 3.273 12.321 3.669 97.244 10.19 194.541 20.08 292.018 27.778 6.626.363 9.272-4.893 10.445-10.45 8.176-38.714 17.528-77.149 26.276-115.716 2.919-12.871 4.221-29.827 6.039-43.19 14.221 1.07 33.114.264 48.091.658.911 38.063-.58 95.355-2.416 134.374-.233 4.95-19.128 47.476-22.674 56.305l-47.667 121.764c-9.237 24.7-21.104 54.16-26.929 79.46-3.9 16.94-.311 24.21 8.701 37.12-18.06 1.02-46.325.3-64.949.21l-106.214-.18-330.601.13a22549 22549 0 0 0 116.985-319.47c9.259-25.331 17.366-51.949 27.223-77.225 4.473-11.472 9.232-27.404 15.32-37.698"/><path d="M453.498 860.203c10.231-.517 21.538 1.734 31.878 2.842l50.724 5.154c19.786 2.027 138.826 11.447 144.846 16.074 1.4 2.322 1.729 3.155 2.087 5.913.346 2.67-.133 6.851-.747 9.376-5.251 21.61-49.915 182.038-56.138 190.068-7.993 4.25-21.484 1.54-30.593.43-7.439.11-21.297-1.45-29.286-2.11l-59.552-4.95c-17.169-1.37-138.955-8.85-144.618-13.17-1.562-3.16-2.22-4.38-.919-8.03 9.867-27.68 24.019-55.18 35.721-82.058l32.126-73c5.847-13.585 11.615-28.188 18.215-41.456 1.06-2.13 4.174-3.868 6.256-5.083"/><path fill="#fefefe" d="M462.499 880.542c12.919 2.121 26.806 2.688 40.012 4.114 46.229 4.989 93.152 7.599 139.319 13.152-5.919 26.504-20.909 66.69-28.997 93.527-5.277 17.515-16.148 55.075-22.411 69.415-5.946-.31-12.226-.97-18.185-1.5-42.706-4.65-86.855-6.36-129.696-11.48-13.79-1.65-38.162-2.15-51.085-4.88-.493-3.36.763-5.81 2.238-8.92 19.712-41.668 37.974-83.922 56.162-126.267 3.578-8.33 7.817-19.773 12.643-27.161"/><path d="m472.742 913.899 5.574.382a3658 3658 0 0 1 77.817 7.083c13.504 1.255 27.864 2.385 41.377 4.069 3.209.4 3.892 1.574 5.632 3.59.692 3.249.409 3.508-.845 6.753-9.512 1.052-120.598-8.886-130.99-11.418-3.227-2.668-2.543-1.336-3.348-4.972 1.693-3.867.868-2.496 4.783-5.487m-13.262 36.81c39.19 3.153 78.419 6.265 117.516 10.44 5.261.561 11.266.349 13.109 5.974-1.079 3.863-.453 2.502-3.802 5.461-9.55 1.536-109.711-10.045-126.344-11.53-2.047-.182-2.893-2.147-3.691-3.653.756-4.562.049-2.802 3.212-6.692"/><path fill="#fefefe" d="m1586.43 655.435 3.09-.316c.6.395 1.19.791 1.78 1.186 16.17 43.634 41.82 111.268 55.65 152.51-15.67 2.707-53.33 4.84-70.77 6.162q-64.95 4.847-129.81 10.544c-11.27.13-20.11 2.547-32.58 1.728-7.32-31.748-13.56-64.253-20.56-96.108-3.64-16.533-5.92-39.952-10.92-55.544 67.66-6.884 136.81-12.362 204.12-20.162"/><path d="M1560.5 727.4c6.12-1.129 10.5 1.648 10.76 8.089-4.45 4.693-35.84 6.128-44.49 6.973l-84.02 7.87c-3.77.513-6.79 1.287-10.4.261-2.3-3.057-3.07-4.658-1.17-8.062 10.43-5.465 109.79-13.118 129.32-15.131m-14.94-33.811c5.11-.61 8.96-2.113 12.66 1.836.69 3.822.83 2.263-.5 5.913-6.53 5.376-105.84 11.467-123.45 13.444-4.41.152-10.69-.493-10.91-6.083 7.84-9.483 102.91-10.252 122.2-15.11"/><path fill="#fefefe" d="M446.499 653.674c58.949 8.299 118.566 12.874 177.582 20.758 13.282 1.774 27.144 4.197 40.489 4.831-10.678 38.833-20.057 78.091-30.908 116.894-2.555 9.136-4.694 18.189-7.915 27.14a624 624 0 0 1-26.508-3.103c-46.31-6.537-96.2-10.94-142.771-16.556-21.016-2.535-56.669-8.009-76.284-8.298 3.209-8.927 10.603-23.526 14.803-32.293l19.442-41.624c7.839-16.72 23.6-53.468 32.07-67.749"/><path d="M450.002 720.077c15.815-1.078 56.419 5.449 73.972 7.229 23.82 2.415 49.401 5.77 73.59 7.741 5.78.471 10.388.539 13.787 4.887.343 4.344.339 2.801-1.866 7.53l-.962-.025c-21.458-.614-43.311-4.649-64.657-6.757-29.813-2.943-59.541-6.854-89.303-10.276-2.88-.331-3.261-1.12-5.056-3.037-.962-3.391-.689-3.926.495-7.292m19.713-33.917c2.175.98 21.381 2.733 24.728 3.087a8030 8030 0 0 1 86.577 9.407c11.08 1.229 25.394 2.278 36.376 4.68 2.358.516 2.907 2.504 3.55 4.247-.705 3.598-1.259 3.999-3.887 6.626-11.795-.441-148.559-16.212-152.54-18.175-1.72-.849-1.826-1.58-2.425-3.246 1.346-5.232 2.917-5.36 7.621-6.626"/><path fill="#fefefe" d="M1048.37 77.599a125.85 125.85 0 0 1 88.32 25.89c31.73 24.425 45.91 56.737 50.86 95.328-38.76.113-77.53-.092-116.3-.615-46.69-1.359-97.064-.09-144.207-.53 1.261-25.8 15.305-55.729 32.103-75.13a131 131 0 0 1 89.224-44.943M769.496 612.527c9.761-1.196 58.008-.699 68.978-.385 28.933.828 73.069-2.015 100.159 1.375 11.812 14.352 18.341 19.661 34.044 29.596.369 3.76.48 8.57.668 12.428-27.053 5.765-33.133 26.13-55.138 39.301-4.592 2.749-29.525 8.785-36.448 10.758-34.59 10.401-74.219 31.776-99.799 57.763-5.44 5.526-12.081 16.738-18.24 23.152l-1.062-1.583c-.728-14.14.566-32.145.46-47.002l.13-98.167c-.008-7.009-.408-13.604-.89-20.58-.435-6.292 2.673-6.106 7.138-6.656m374.844-1.055c45.72 1.773 99.48.487 145.84.67.34 5.844-.06 12.167.02 18.069.56 45.805 1.08 91.626 1.67 137.43.07 4.831 1.77 13.532-.3 17.73l-1.22-.605c-3.05-10.064-15.16-26.871-21.54-35.343-28.32-37.002-79.52-59.432-125.58-59.53-21.36-13.173-26.83-31.159-58.04-36.759l.69-9.432c14.16-9.884 22.01-17.519 31.4-31.933 9.24.172 17.82-.029 27.06-.297m-104.62 56.084c16.6-.735 42.96-1.028 57.28 7.194 4.63 2.658 11.09 7.97 15.4 11.471-35.69-1.155-58.39-1.992-94.61-1.082a1040 1040 0 0 0-71.176 7.481c7.892-7.981 17.684-18 29.336-20.012 20.812-3.594 42.64-4.229 63.77-5.052m21.02-458.042.64.483c2.4 7.374 1.68 110.4-.24 115.663l-2.4.189c-2.98-.564-4.08-.49-6.33-2.337-1.23-12.994-.69-40.183-.72-54.09-.04-16.154-.92-43.71.47-58.493 2.11-1.448 5.85-1.263 8.58-1.415m-16.46 434.1c.7-.03 1.41-.051 2.12-.063 6.43-.139 20.56-1.164 25.1 3.215-3.5 5.557-43.89 3.623-53.75 4.014-6.59.591-22.531 3.451-26.77-1.514l.347-3.201c4.781-3.028 44.663-2.28 52.953-2.451m116.22-120.885c1 .979 1.24 1.84 1.91 3.186-.48 12.821-6.93 22.659-15.94 31.344l-.8.167c-1.41-4.497 10.34-30.138 14.83-34.697m-264.996.726c4.454 4.368 9.265 25.158 11.614 32.977-11.977-4.948-12.816-21.866-11.614-32.977"/><path d="M862.136 189.521c7.262.082 7.561 9.165 7.809 14.689 2.159 48.157 5.919 96.327 21.279 142.373 2.479 7.432 8.359 15.512 4.261 23.331-7.104 3.422-72.024 11.692-85.978 14.008a565 565 0 0 0-63.223 13.621c7.435 25.909 19.43 50.442 28.459 75.753.755 5.008-2.488 9.431-6.941 10.459-49.2 11.358-95.209 25.848-142.541 43.179-2.85.295-2.698.298-5.414-.644-20.446-21.671-51.114-149.543-50.99-181.433 20.322-12.423 115.596-32.759 142.071-43.258 3.269-1.296-.113-16.939-.372-21.033-.826-13.095-9.091-61.252-2.458-70.334 10.621-6.584 130.936-18.166 154.038-20.711"/><path fill="#fefefe" d="m707.168 322.057 2.296-.339c3.667 2.986 4.474 11.903 5.23 16.64 7.42 46.489 24.065 88.402 41.423 131.832-12.872 2.288-35.348 8.669-48.133 12.561-22.694 6.908-55.014 15.749-76.44 25.288-1.461.492-1.888.411-3.443.565-5.148-4.054-29.437-86.348-32.275-98.774-3.149-13.791-7.935-39.116-10.682-53.769 39.995-12.116 83.174-21.865 122.024-34.004m141.161-112.621c3.217-.392 1.813-.694 4.455.379 2.814 6.37 3.012 25.878 3.381 34.14 1.836 41.066 9.229 74.913 22.594 113.626-8.997.376-23.666 2.807-33.002 4.186a1191 1191 0 0 0-89.862 16.947c-3.266.718-5.525 1.587-8.686.709-7.279-14.254-27.947-141.303-23.891-155.254 7.153-1.866 28.811-4.099 37.239-5.135a3598 3598 0 0 1 87.772-9.598"/><path d="M1617.24 369.763c14.4 1.837 100.13 57.647 120.65 65.111 1.96.713 13.35 7.413 13.85 8.711 9.64 25.23-67.1 165.386-86.46 165.114-15.17-8.335-32.89-18.358-47.86-26.577-17.1-9.39-79.24-37.225-91.15-48.294-1.65-3.358-1.4-3.846-1.18-7.738 3.22-6.532 18.32-25.199 23.37-32.743 12.24-18.031 23.5-36.969 34.07-56.022 11.14-20.057 18.26-42.179 28.89-62.446 1.09-2.086 3.85-3.883 5.82-5.116"/><path fill="#fefefe" d="M1622.6 391.556c11.91 8.565 27.21 15.706 40.03 23.379 23.46 14.044 49.29 25.298 72.77 39.288-9.39 42.038-43.58 99.574-70.02 133.252-.51.653-2.77.117-3.67.018-10.86-4.314-33.18-17.736-44.7-24.04-20.5-11.218-53.95-24.845-72.78-36.704 24.07-28.338 43.6-62.359 60.12-95.658 6.5-13.11 10.68-27.22 18.25-39.535"/><path d="M1266.4 175.178c12.33-.92 43.59.316 56.34 1.169 15.89 1.064 91.06.679 99.09 6.568 2.13 3.846 2.83 8.048 3.05 12.412 2.46 50.745.08 101.774-6.89 152.091-.99 7.126-.84 15.353-5.5 20.646-7.19.441-35.52-3.57-45.62-4.307a2782 2782 0 0 0-100.78-5.173c-4.01-.169-13.72-.346-16.03-2.847-2.15-10.269 6.34-46.422 7.55-60.562a792 792 0 0 0 2.89-59.865c.06-16.334-.75-36.952-.21-53.428.11-3.187 3.48-5.241 6.11-6.704"/><path fill="#fefefe" d="M1277.72 192.35c10.32 1.593 33.97 1.631 45.08 2.22 28.37 1.505 57.74 1.878 86.03 4.027.61 21.264.3 137.667-9.37 150.814-9.78.459-24.68-1.839-34.95-2.175-31.65-1.035-66.61-5.549-98.01-5.166 7.69-29.426 9.34-74.528 11.06-105.035.49-8.638-2.32-40.465.16-44.685"/></svg>