<svg xmlns="http://www.w3.org/2000/svg" preserveAspectRatio="none" style="display:block" viewBox="0 0 2048 1462"><path fill="#fefefe" d="M0 0h2048v1462H0z"/><path d="M1467.08 111.409c17.11-1.757 47.25-.246 57.87 16.093 4.73 7.28 5.26 21.576 14.32 23.597 21.32 4.758 44.21-8.434 61.94 10.78 14.09 15.262 3.78 37.876 19.21 51.243 12.35 9.571 31.18 6.617 44.96 18.554 19.87 15.403 11.14 36.637 14.26 55.664 5.97 36.386 14.26 46.817-11.24 77.991 43.63 55.719 50.99 138.591 65.92 205.453 23.56-4.05 47.16-7.855 70.81-11.415 30.02-4.626 108.59-23.516 98.48 28.285-4.51 23.134-8.14 46.935-12.04 70.199a11189 11189 0 0 1-27.23 163.794l-17.76 110.281c-2.8 16.81-5.4 34.239-9.02 50.882-2.18 10.054-6.96 16.081-13.16 23.91-.52 25.25 1.68 58.4 2.75 83.89l8.93 191.54c.8 18.71 2.33 37.41 2.98 56.13.07 3.51.63 13.74-5.25 13.31-10.7-.78-49.34 3.11-56.58-2.3-4.09-8.82-11.06-67.75-12.86-80.62a8321 8321 0 0 1-31.78-243.71c-17.01-.38-33.89.08-50.97-.48-31.83 17.1-74.68 38.59-111.48 39.56-8.52 49.26-20.85 97.98-30.31 147.09-1.3 6.76 2.69 24.14-.7 28.14-.86.06-5.72.36-6.09 1.37-6.75 18.19-13.46 97.33-21.78 108.66-8.82 3.67-79.37 1.97-94.42 1.88l-143.91-.12-236.44-.18c-31.62-.11-63.229.14-94.843-.01-11.166-.05-12.229-3.1-12.338-13.45-.211-20.16-.111-40.31-.1-60.46l.094-120.42-.34-406.604-362.593-.833c-.743 8.457-2.611 19.409-3.84 28 52.786-.194 157.441.814 198.122 33.815 60.551 49.119 67.611 186.242 75.334 258.972a3642 3642 0 0 1 11.682 128.61c1.176 15.46 3.034 32.1 3.233 47.66.098 7.7-9.824 7.77-15.493 8.21 2.427 6.62 4.874 14.93 9.163 20.53 10.563 13.8 73.432 58.83 74.027 69.28.087 1.52-.384 2.51-1.511 3.52-5.857 5.28-24.952 2.93-32.587 2.82l-212.415-.3-83.09.08c-12.673.04-56.641 1.65-66.298-1.76-2.645-7.09-5.08-22.72-6.677-30.9l-12.163-62.79c-14.052-72.99-30.227-153.02-42.159-225.97-22.291-1.85-54.372-1.63-77.283-1.81-26.711 61.38-42.914 38.54-76.96 1.6-7.939 72.6-19.623 146.99-29.228 219.48a4910 4910 0 0 0-7.38 57.73c-1.459 12.16-3.244 33.44-7.005 44.43-5.911 2.79-55.542 3.18-59.906-.92-1.28-2.94-1.552-6.57-1.484-9.78 2.369-110.78 8.098-221.98 9.462-332.76-15.434-18.859-14.562-31.481-18.529-54.46a4803 4803 0 0 1-10.696-64.325 12861 12861 0 0 1-29.953-190.089l-12.863-79.859c-1.945-12.349-5.129-27.991-5.073-40.58.03-6.786 7.009-14.585 13.394-17.429 23.451-10.447 49.479-3.925 73.833-1.182a3062 3062 0 0 1 72.962 8.811 1042 1042 0 0 1 15.962-82.029c11.977-49.967 35.278-134.704 81.358-161.638 33.997-19.871 73.839-13.367 109.63-4.368l10.065-17.897c-4.668-3.142-6.642-4.866-10.825-8.68q.368-2.326.969-4.603c9.868-37.099 34.539-108.348 69.205-127.338 9.518-6.078 30.898-9.198 41.862-4.077 20.643 9.966 51.566 12.832 63.468 34.748 11.948 21.998-10.824 55.404-10.957 80.62-.063 11.925 2.979 32.68-5.558 38.283-4.698 3.084-15.044-1.036-20.07-2.901a247 247 0 0 1-6.31 8.946c-12.221 16.333-22.204 27.48-42.709 30.404 14.078 28.725 16.571 35.228 19.036 67.207 25.281 36.239 73.452 81.907 114.983 102.347 7.703 3.791 42.32 7.535 52.801 9.037l91.448 13.201c8.678 1.255 50.778 6.223 56.118 8.807 2.78 2.708 2.907 5.627 3.741 9.546 26.386-7.228 45.768-20.947 74.224-22.266 26.45-1.225 53.22 19.602 80.59 13.918 2.89-.602 1.44-8.021 4.5-11.865 3.03-3.82 15.76-4.074 20.92-4.675 39.6-4.352 78.9-11.07 117.69-20.117 14.28-3.394 30.26-6.864 44.38-11.266 65.18-20.312 125.42-69.497 160.7-127.674 8.38-13.824 7.42-23.212 5.65-38.255-31.63 4.931-41.51-4.062-63.93-24.963-29.84-1.803-16.9-16.081-17.21-37.508-.11-7.964-1.68-14.103-3.91-21.737-35.27-7.68-47.2-50.535-22.83-76.76 9.22-9.927 20.44-10.548 33.2-10.305 8.07-6.622 16.31-15.776 24.76-22.742 24.21-19.966 48.96-27.113 79.14-29.728"/><path fill="#fefefe" d="M1610.34 346.371c40.22-4.691 69.42 56.114 80.15 87.599 23.08 67.743 28.15 140.486 47.6 209.292 6.26 22.166 15.4 45.143 24.17 66.443 18.5 42.93 47.73 85.167 48.55 133.329.73 42.676-23.86 79.564-52.91 108.505-37.98 37.837-90.86 70.731-141.15 89.181-13.78 5.06-30.41 11.21-45.09 11.27-8.28.09-16.24-3.22-22.02-9.16-15.75-16.01-15.23-54.898-16.3-76.697l-3.11-68.209a5360 5360 0 0 1-5.91-301.88c25.8-18.452 44.67-35.852 67.13-58.167 19.25-20.456 39.69-45.558 55.33-69.56 1.96-3.007 3.02-9.276 1.66-13.244-3.59-2.441-8.04.74-9.98 3.748-18.7 28.91-39.29 54.743-64.01 78.982a515.7 515.7 0 0 1-72.79 59.166c-86.74 59.009-173.45 79.047-277.1 85.002-37.02 2.127-75.6 4.866-112.67 4.45-4.22-34.445-11.39-82.711-13.24-116.993 13.77-3.093 47.52-5.354 63.08-7.352 63.53-8.156 134.34-13.96 193.25-40.151 53.9-23.961 101.5-59.89 141.5-103.088 16.79-18.136 38-43.815 57.71-57.342 13.28-9.109 39.82-12.962 56.15-15.124"/><path fill="#fefefe" d="M1138.42 749.521c29.54-.522 58.93.305 88.47.371l221.67.035c.46 7.614 1.24 15.512 1.9 23.136-48.93-4.423-133.85-3.333-175 27.156-39.93 29.583-58.55 133.296-68.05 180.792a5098 5098 0 0 0-17.23 92.649c-3.43 19.36-27.57 146.29-23.05 155.16 2.68 2.59 5.3 2.87 8.97 3.86a813 813 0 0 1-10.81 35.22c-16.66 9.75-36.1 21.51-53.29 29.57l-.04-547.87zm-512.807-45.046 558.887 1.551 171.27.206c14.47.072 28.93.071 43.4-.004 13.83-.168 42.7-2.655 52.41 8.555 25.28 29.187-47.43 23.285-60.08 23.201l-448.451-.256-375.542-.724c-11.54-10.971-9.347-20.882 1.019-31.355 13.844-1.487 42.002-.97 57.087-1.174"/><path fill="#fefefe" d="M472.573 554.64c37.917 29.882 57.906 44.877 100.77 65.653-3.864 24.563-6.219 49.672-10.078 74.687-19.421 13.789-17.835 30.01-7.877 49.505-1.089 10.041-3.299 22.374-4.832 32.538l-20.8 1.302c-30.165 2.026-66.683 6.154-95.372 15.795 2.641-14.194 4.725-31.374 7.018-45.949a9285 9285 0 0 1 16.842-106.205c4.307-27.838 8.818-59.864 14.329-87.326m111.663 70.079c92.543 36.289 198.397 38.901 295.834 52.941 15.793 2.276 14.469-22.699 15.931-33.781 14.224 1.08 32.482 5.359 46.499 3.439 21.91-3.001 29.021-8.203 51.561-.732 23.159 7.675 50.149 13.278 74.459 9.684 8.31-1.228 17-3.352 25.46-4.119 2.14 2.804 1.46 2.556 1.89 6.715 1.24 11.503 2.33 23.772 4.54 35.06-50.06 1.097-104.779-.031-155.266-.054l-369.361-.824c1.074-18.386 6.306-47.853 8.453-68.329M1849.7 566.414c1.77-.33 9.45-.52 11.68-.613-13.44 65.499-23.02 132.199-35.84 197.859-2.72 13.948-5.45 28.813-7.26 42.853-6.52-18.647-11.98-32.403-20.3-50.307-32.9-64.78-46.02-101.894-61.64-173.053 35.45-5.917 78.09-13.293 113.36-16.739m-661.29 667.406c37.78 5.16 76.54 11.95 114.42 17.58-1.35 6.67-5.49 18.43-7.43 25.46-4.36 15.77-8.74 30.89-14.3 46.3-15.16 10.11-20.74 16.39-39.49 16.23-20.86-.17-41.97 0-62.86-.05-38.18.08-76.35-.03-114.53-.36 9.05-6.29 29.39-16.63 39.68-22.23 23.53-12.77 46.97-25.72 70.3-38.85 4.36-8.67 11.17-33.72 14.21-44.08M177.947 565.949c37.29 2.898 76.998 9.742 114.625 13.319a441.1 441.1 0 0 1-51.358 156.302c-9.105 16.771-18.856 33.716-28.209 50.391-4.785-26.469-8.639-55.172-12.995-81.924a6997 6997 0 0 1-22.063-138.088"/><path fill="#fefefe" d="M1873.39 565.788c6.52.143 20.23 2.832 18.99 11.862-4.79 34.847-11.86 69.406-17.53 104.16l-32.19 195.802a3831 3831 0 0 1-11.77 68.128c-2.01 11.429-3.4 24.883-6.51 35.848-9.73 34.332-41.15 30.852-67.82 30.722-11.35-.02-22.7.15-34.04.5-7.47-.05-14.94-.17-22.41-.35 10.46-7.66 22.33-14.735 32.84-22.491 8.88-6.555 17.45-13.776 25.93-20.845 11.58-.394 23.77.371 33.37-6.649a24.6 24.6 0 0 0 8.93-12.006c4.5-13.052 6.22-30.939 9.11-44.919 2.18-10.517 8.08-25.008 9.57-34.456 4.06-25.82 8.3-51.497 12.85-77.243 14.06-75.93 27.63-151.953 40.68-228.063m-471.6-336.271c1.09.48 17.19 11.789 22.56 14.959 22.3 13.168 48.67-29.564 53.16 5.863 1.3 10.254-19.71 13.103-20.4 19.479l2.5 2.509c6.19 2.15 9.78.663 15.88-1.136 8.33 25.777 15.96 50.428 39.21 65.526-.94 6.318-1.92 11.222-3.36 17.453-15.6 12.938-21.84 15.62-40.82 20.664-4.85 1.004-11.58 1.783-16.61 2.519a283 283 0 0 1-2.41-30.893c-.17-5.655-.16-17.835-1.16-22.736-4.72-2.883-13.89-1.646-19.42-1.226-12.39.939-18.64.267-29.94-4.674 10.03-4.723 19.78-12.524 17.69-25.601-.31-1.96-1.14-1.954-2.69-2.686-5.96 2.45-13.42 21.067-24.41 19.325-6.84-1.083-7.04-1.895-6.95-7.914-4.53-6.267-8.53-.286-16.97-2.343l-1.38-1.517c1.14-8.106 2.9-15.032 2.64-23.246-.28-8.708-1.6-14.898-3.16-23.107 17.47-3.331 24.62-7.659 36.04-21.218"/><path d="M1461.88 241.809c4.75-.018 6.58.145 9.65 3.891 2.3 6.774-1.45 10.011-6.97 13.099-3.73-.607-5.65-.622-8.62-3.066-3.36-6.317 1.55-9.786 5.94-13.924m-66.91 22.711a5.93 5.93 0 0 1 7.89 2.915 5.923 5.923 0 0 1-2.96 7.87 5.926 5.926 0 0 1-7.82-2.944 5.927 5.927 0 0 1 2.89-7.841"/><path fill="#fefefe" d="M1381.7 1232.45c26.3.68 52.59 1.54 78.87 2.57-5.45 32.42-10.04 72.95-16.57 103.97l-81.75.12-81.34.02c15.8-10.72 90.97-53.38 96.11-65.96 5.28-12.91.94-27.21 4.51-40.12.05-.2.11-.4.17-.6M960.037 561.02c2 .341 1.065-.088 2.549 1.937-3.163 6.818-22.375 12.936-24.749 21.469l1.403 1.542c11.617 3.074 58.92-12.335 76.71-14.737-10.98 5.139-25.449 9.49-37.006 13.656-5.573 2.008-13.414 3.929-18.341 6.667l.121 1.942 2.555 2.173c9.211 2.813 39.701-7.961 51.421-10.433-8.17 4.656-46.017 17.294-46.944 22.688 7.527 3.831 34.754-6.222 43.194-9.066-9.07 8.719-23.684 14.598-35.992 17.043-1.187.235-6.921-.194-9.74.027-3.09 2.006-2.963 1.223-4.002 4 3.23 7.248 57.904 13.796 66.334 10.754l.67-1.437c-5.23-5.247-25.71-7.948-33.213-9.238 3.839-1.679 8.463-3.352 12.423-4.887l13.79 3.268c4.32.674 7.24 1.207 11-.813l.25-1.536c-3.96-5.608-8.76-6.004-15.37-7.67l8.87-7.603c4.84 1.005 7.62 2.006 11.86.074l.7-2.522c5.34.134 8.83 7.967 14.96 4.621 6.37-14.907-12.95-6.234-19.73-26.827 1.51-1.172 6.28 1.142 8.58 2.095 17.9 7.401 26.26 7.542 44.97 6.602 2.2 18.559 4.22 37.138 6.05 55.737-23.9 4.64-53.63 8.136-76.37.822-30.041-9.665-44.44-12.162-75.278-5.444-8.493 1.85-33.321-1.71-43.827-3.041 1.419-17.201 4.646-39.412 7.135-56.629 17.667.068 37.677-9.214 55.017-15.234M563.653 255.336c-2.997-12.171 1.362-26.179 16.638-19.212 7.27 3.316 2.026 23.749 12.645 21.775 15.529-3.799 16.003-28.546 33.347-30.939 10.74-1.481 24.066 3.902 32.543 10.148-.9 11.148-3.37 22.035-5.01 33.122-1.409 9.526 4.261 23.869-1.485 31.109-7.299 1.868-16.886-13.02-23.653-.406a126 126 0 0 0-2.372 4.767c-7.893-4.054-12.1-6.667-19.234-11.617-5.426-3.764-18.24-14.867-23.188-16.692-10.059 4.451-17.087 14.886-22.384 24.084-13.984 24.283-4.969 33.826 17.043 43.655.816 4.631 2.594 12.257 1.816 16.531-3.299 4.225-10.552 6.185-15.764 6.597-25.14 1.991-44.149-10.588-58.008-29.982 4.419-9.893 12.809-25.913 19.154-34.871 18.416-6.422 24.029-15.204 35.212-30.577 4.634.297 9.144 1.156 13.176-.727 2.687-2.545 2.837-4.379 3.875-7.961-7.9-.64-9.823-2.75-14.351-8.804"/><path d="M565.64 254.25c2.076-2.037 2.959-2.952 4.733-5.243l-.137-2.543c-1.868-1.623-2.818-2.242-4.084-4.419 3.114-4.082 6.649-4.085 10.281-.642 1.352 4.418 1.542 5.065 1.294 9.656 2.065 3.096 3.042 2.501 5.466 4.662-8.591 4.894-9.803 4.513-17.553-1.471m55.712-8.123c6.916-.782 14.307.573 16.466 8.227-.814 4.188-.029 2.612-3.386 5.872-6.649-10.278-12.582-4.636-17.136-10.099.944-2.859.71-1.976 4.056-4m2.958 15.321a5.16 5.16 0 1 1-.292 10.315 5.16 5.16 0 0 1 .292-10.315"/><path fill="#fefefe" d="M1426.57 404.766c.77 3.73-.46 8.554-.96 12.424-2.14 16.659-6.8 33.258-2.14 49.869a351.1 351.1 0 0 1-96.21 52.727c-30.09 10.621-62.89 15.253-94.23 20.69-43.6 7.561-87.79 11.196-131.79 15.574-1.5-3.692-2.28-5.175-1.28-8.481 5.56-4.585 11.42-3.376 17.96-4.208 53.75-6.833 111.34-15.874 162.92-32.299 59.34-18.894 105.88-59.698 145.73-106.296M226.035 1017.18c13.883 6.64 20.153 7.68 35.016 8.95l-35.79 287.76c-1.447 9.01-.499 19.9-7.01 26.45l-2.247-.91c-.99-4.58.206-26.97.4-32.97l2.341-72.24c1.297-46.08 2.862-92.16 4.697-138.22.728-24.01.467-55.45 2.593-78.82m47.309 8.88c7.273.62 14.559.76 21.854.98-3.58 44.31-12.612 98.65-18.934 143.22a10212 10212 0 0 0-22.08 169.31c-3.719.53-15.785.33-20.121.36 5.438-34.54 9.416-72.35 13.571-107.17l15.531-124.21c2.054-16.58 3.966-33.18 5.735-49.79 1.056-9.56 2.289-23.81 4.444-32.7m1472.326-1.01 19.96.11c.71 4.19 1.22 8.64 1.65 12.88 3.46 34.21 8.45 68.21 12.84 102.31 9.14 66.23 17.81 132.52 26.02 198.87l-19.02.73c-11.88-76.48-21.13-154.19-31.74-230.9-3.76-27.14-7.96-56.78-9.71-84m65.16-7.03c.85 2.49 14.76 312.04 14.07 315.99-.42 2.37-.41 3.54-2.37 4.91-5-4.68-5.08-12.62-5.87-19.37l-21.85-166.97c-5.44-40.55-12.62-87.25-16.16-127.63 14.26.19 19.25-.86 32.18-6.93m-1336.309 10.76 22.852.25c.793 9.5 3.713 24.3 5.335 34.05 3.843 23.35 7.895 46.67 12.158 69.94a20178 20178 0 0 1 35.747 205.26l-17.146-.24a12610 12610 0 0 1-58.946-309.26m-73.109-52.507c54.927 1.764 112.57 1.716 167.787 2.577-2.223 14.485-4.517 21.35-17.172 29.29-26.312 12.31-80.895 8.32-110.831 7.41l-49.976-1.18c5.506-14.497 7.277-22.751 10.192-38.097m1103.908 48.607c5.62.36 17.05.56 21.94 2.49 3.52 7.39-51.37 270.99-56.63 300.89-.52 3.93-.4 8.88-4.05 10.77-2.87-.1-6.73.13-9.08-1.23.06-7.31 3.15-24.48 4.36-32.3l9.3-60.49a7746 7746 0 0 1 34.16-220.13M190.246 857.952a13282 13282 0 0 1-27.622-174.745c-5.188-32.439-10.772-64.82-15.447-97.333-2.317-16.111 4.307-16.292 18.399-18.465 2.551 11.534 4.112 26.098 5.999 38.017l13.504 85.718 10.136 64.407c1.719 10.59 6.984 35.446 6.179 44.891-1.886 22.107-10.127 32.635-9.131 57.658zm334.742 169.478c4.146-.32 3.591-.96 6.393.82.317 1.34.677 2.88.87 4.24 8.753 61.46 17.07 122.98 25.735 184.45 4.139 27.66 8.016 55.37 11.628 83.11.789 6.03 11.328 50.58-6.621 36.73l-53.484-307.79c4.638-.69 10.703-1.1 15.479-1.56m-20.256-670.864c23.733 20.954 55.82 33.925 84.699 15.289 9.284 29.951 8.412 57.394 6.373 88.291-.344 2.876-.309 3.205-1.503 5.789-11.94-.496-80.686-76.028-92.561-90.403 1.17-5.871 2.071-12.962 2.992-18.966m757.198 334.752c71.98-8.402 114.15-17.399 180.98-46.014.24 17.273.94 34.536 2.1 51.772-2.57-.649-7.21-1.997-9.65-2.189-9.39.843-25.1.478-34.83.487l-63.32-.114-65.52-.256c-12.52-.079-28.38.242-40.45-.978l.38-.43c5.45-.678 8.76-1.103 14.19-.506 4.89-.965 11.06-1.333 16.12-1.772"/><path d="M1435.36 694.887c-9.39.843-25.1.478-34.83.487l-63.32-.114-65.52-.256c-12.52-.079-28.38.242-40.45-.978l.38-.43c5.45-.678 8.76-1.103 14.19-.506 8.54 1.683 29.35.954 38.53.759 35.46.778 71.24.072 106.72.35 7.88.061 38.34-.635 44.3.688"/><path fill="#fefefe" d="m193.843 881.143 1.938-.064c5.977 20.988 19.646 44.659 34.02 61.361 2.722 3.602 12.178 6.843 14.32 10.154 14.447 22.341 30.331 41.455 48.045 61.266-21.753-.81-46.906 2.36-65.374-10.78-19.034-13.541-17.571-37.345-21.666-58.092-4.159-21.074-8.266-42.557-11.283-63.845M1358.69 1159.17c1.96 14.76-2.91 63.19.76 69.79 2.8 2.52 5.86 2.68 9.67 3.44-.24 12.01-1.16 24-2.73 35.9-11.38 10.39-48.18 33.02-62.91 42.49l-6.9 4.34c6.42-20.44 12.56-40.95 18.43-61.55 4.83.96 10.13 2.61 14.55.74 5.92-7.12 24.34-80.53 29.13-95.15m-683.403 21.71c4.446 8.54 12.302 68.31 19.7 79.51 1.6 2.42 12.139 1.66 15.676 1.52 4.237 20.37 7.763 41.23 11.994 61.78l-8.318-6.92c-7.933-6.65-51.24-46.34-50.051-53.71 2.096-.7 5.145-1.39 6.865-2.79 3.586-2.9 3.716-69.09 4.134-79.39m799.643-207.726c13.13-1.07 33.11-.4 46.66-.244.31 13.31 1.65 27.016 2.77 40.32-4.99-.11-10.13-.56-15.12-.93-11.92-.85-26.52-.73-37.26-6.47-8.76-4.68-16.63-16.073-10.65-25.793 2.91-4.728 8.58-5.612 13.6-6.883m26.4 262.776 19.39 1.95c-6.32 33.29-11.73 66.83-17.91 100.12l-1.71 1.35-19.89-.25c.8-5.14 1.9-10.75 3.02-15.85 6.31-28.75 10.24-58.77 17.1-87.32M609.46 433.007c2.385 2.182 6.418 8.023 8.477 10.812 20.891 28.305 48.821 46.406 75.267 68.187l-.653.917c-29.741-5.845-62.348-19.055-87.107-36.647 2.519-13.159 3.411-29.856 4.016-43.269m928.48 616.353c8.35 6.23 10.98 8.42 20.03 13.61-3.13 12.31-5.99 29.03-8.59 41.87l-12.13 58.74-2.43 11.37c-1.81-19.64-7.32-50.11-7.42-68.66-.04-8.76 8.19-45.16 10.54-56.93m-517.73-500.629c8.42.055 27.63 10.187 38.3 12.298 9.69 1.916 17.5-.217 25.15 1.344 1.74 3.056 1.48 7.178 1.64 10.867q-3.225.43-6.48.611c-23.54 1.307-41.83-10.21-58.61-25.12m506.6-206.192c11.19 2.467 17.63 2.55 28.85 2.646-6.42 4.26-11.94 8.388-18.07 13.003-4.85 3.834-10.06 9.053-14.61 13.377 1.16-9.69 2.44-19.366 3.83-29.026m265.75 587.177c1.47 4.473-1.3 14.53-4.16 18.345-5.06 6.746-8.04 7.605-16.05 8.807.04-4.177 16.53-22.463 20.21-27.152M981.729 568.313l2.187.093c-4.743 2.535-17.013 6.075-22.661 7.874l-2.065.291.793-1.248c8.344-4.383 12.436-5.547 21.746-7.01"/><path fill="#aeacaf" d="m190.246 857.952 2.017.148c1.047 7.445 2.026 15.673 3.518 22.979l-1.938.064c-1.642-7.98-2.547-15.134-3.597-23.191"/></svg>