<svg xmlns="http://www.w3.org/2000/svg" preserveAspectRatio="xMidYMid meet" viewBox="0 0 2048 1462"><path d="M1101.59 152.86c-16.04-10.502-11.49-10.308-9.45-24.215 1.9-12.938-1.03-20.868 5.4-34.386 9.36-19.702 19.09-13.342 36.09-20.58 16.26-7.265 24.56-.494 38.57 6.054 10.66 4.984 22.65.901 28.03 16.385 4.53 13.061-.19 19.684-1.54 31.822-1.68 15.134 4.87 23.368-14.63 29.233-1.59 7.743-2.65 12.048-5.11 19.669 11.61 2.729 25.3 6.372 35.61 12.46 20.53 12.119 36.96 49.007 42.82 71.798 4.08 15.906 8 41.961-1.13 56.229-7.86 12.28-16.87 14.53-29.95 17.668 33.91 2.799 67.41 7.897 101.19 11.824 14.84 1.724 21.74-1.986 22.67-17.027-17.9 11.704-34.34 18.724-55.37 5.503-4.81-3.024-9.76-11.715-10-17.889-1.08-28.258 19.87-58.314 35.53-80.713 18.16-23.68 41.34-43.208 71.61-46.894-.31-.751-.61-1.502-.92-2.253l-.43-1.151c-2.12-5.58-4.81-27.043-5.72-27.946-9.74-9.611-18.08-17.879 2.78-30.083l.06-1.087c1.38-26.225 16.88-50.083 46.75-49.28 13.01.35 21.68 9.583 29.77 18.88 2.91.89 5.8 1.837 8.68 2.838a28.36 28.36 0 0 1 16.07 14.875c5.65 12.117 1.99 29.902-1.76 42.279-2.5 8.258-7.25 10.683-14.47 13.858-2.82 12.193-4.69 18.429-11.55 28.698 1.17.108 2.34.236 3.5.385 52.68 6.822 52.1 65.847 47.47 106.733-3.26 28.798-17.64 53.774-40.87 71.221 36.61 10.162 79.69 25.474 114.91 39.759 5.31-31.337 23.83-84.64 50.28-104.236-6.5-11.215-7.22-17.912-8.31-30.351-5.28-2.283-10.31-4.562-12.53-10.238 1.45-8.987 10.64-8.417 13.67-15.572 1.37-4.231 2.25-9.918 2.79-14.249 3.26-26.014 13.36-54.112 44.48-52.711 18.29.823 33.95 4.67 47.34 18.042 14.61 14.598 12.1 33.249 11.7 52.258 17.14 31.185 30.54 36.403-8.1 59.301 18.27 14.39 20.89 29.15 25.5 50.702 10.15 47.487 1.04 91.376-9.7 137.792 5.78 5.529 15.6 14.53 22.23 18.707 3.03-.716 8.42-12.347 11.93-15.408 13.87-12.096 32.12-15.164 49.1-20.915 4.24-1.438 22.22 3.976 28.01.83-5.74-3.914-13.78-2.016-18.16-6.242-12.99-12.499-4.83-40.882-7.26-57.24-.14-.979-3.17-5.036-3.99-6.107 12.77-23.591 18.88-59.732 38.56-76.434 21.14-17.946 64.48 3.833 79.09 22.778 23.71 30.738 6.64 70.301-15.89 96.389-8.09 9.382-13.12 17.507-23.11 25.257 13.84 59.659 14.86 105.006 7.09 165.563-1.58 12.262-5.85 36.293-5.6 47.811.84 23.66 6.16 47.355 7.21 70.961 3.16 71.616 18.23 158.569-20.65 223.045-12.61 20.9-46.29 30.73-69.18 34.49-2.69 17.54-14.35 38.11-26.75 50.78-10.08 10.15-22.97 17.47-35.18 24.91-27.67 16.86-55.81 34.31-84.55 49.28 43.42 8.57 90.73 11.23 134.63 17.96 3.56.55 6.56 1.4 9.03 4.14.05 3.22.41 1.96-1.94 4.8-6.28 2.27-135.87-16.16-152.98-18.7-16.9 9.78-33.75 21.01-51.04 30.14-3.23 1.71-6.35 2.59-9.53.67-.13-2.1-.04-4.44 1.86-5.82 8.98-6.51 21.56-13.65 31.11-19.53a4812 4812 0 0 1 82.46-49.6c22.05-13.1 52.29-29.5 70.99-46.29 10.59-9.52 17.9-27.97 22.83-41.3-20.98.02-40.37.92-61.65-1.56-37.82-4.39-104.11-18.67-129.13-49.521-9.18 4.776-23.87 10.15-34.48 15.189 2.64 34.502 5.47 56.952 1.65 93.942-4.49 43.45-15.63 93.44-32.92 134.13-3.09 7.27-10.96 14.21-16.74 19.04-5.21 36.76-79.55 66.74-109.14 79.28-22 9.38-44.11 18.49-66.33 27.32-12.79 5.49-85.62 36.47-92.47 34.06l-.93-2.75c.41-2.13.24-3.73 2.53-4.97 60.93-33.13 151.48-31.98 160.75-115.46-36.01-7.03-65.66-20.31-76.47-58.56-7.43-26.26.89-48.82 4.85-74.64a615 615 0 0 0 5.97-57.14c-26.73 4.39-54.75 11.04-82.05 15.68-46.56 7.56-93.38 13.45-140.37 17.65-13.17 1.22-47.98 5-59.72 3.95q2.325 65.175 2.94 130.38c1.55 91.08-7.49 141.42-114.46 144.82-41.304 1.69-121.762-11.48-130.251-61.5-11.383-67.06-2.041-145.61-2.394-213.22-33.534-1.57-67.606-7.81-100.895-12.17-35.486-4.65-70.461-11.73-105.356-19.58 19.212 48.13 29.107 103.23-11.72 144.53-19.718 19.94-38.727 24.99-65.19 30.47 7.845 15.8 28.383 48.87 37.963 64.23 23.649 10.73 49.294 24.84 73.244 35.87 9.262 4.27 51.501 23.35 56.12 27.09 1.707 3.29 1.971 4-1.001 6.23-1.508.19-4.189.31-5.536-.16-18.756-6.46-41.426-18.09-59.203-26.69-43.735-21.16-87.366-42.5-129.969-65.74-15.095-8.24-32.148-18.14-45.422-29.01-9.247-7.58-14.848-20.05-22.159-28.51-6.298-7.29-15.566-11.55-21.291-21.13-5.2-8.69-7.695-19.89-12.752-27.8-1.554.29-5.91 1.02-7.157.3-13.998-8.08-30.017-17.96-43.654-26.19-18.997 5.22-48.543 8.26-68.657 11.89-23.15 4.17-47.565 7.61-70.838 11.53-3.954.66-10.492.97-13.781-1.66-.134-2.86 2.265-6.12 5.144-6.59 45.013-7.3 91.951-13.9 136.587-22.86-29.861-19.19-123.205-72.49-142.137-96.43-10.751-13.59-15.669-29.61-20.727-45.87-43.919-15.349-75.863-39.018-82.474-87.592-7.428-54.579-29.266-207.557.359-251.656-51.98-32.938-60.918-159.044 30.599-157.255-.672-19.923 5.57-35.924 10.57-54.64 2.127-7.963 5.469-5.081 6.919-10.727-23.329-23.045-48.454-115.386-6.883-131.973 15-5.986 33.513-12.394 49.411-17.133 22.582-6.733 48.219 7.623 51.116 31.373.507 4.234-6.263 8.874-9.158 11.296-.992 2.768 2.642 19.181 3.445 23.542 5.602-12.198 11.167-27.48 13.651-40.773 4.039-21.613 1.167-49.923 15.086-68.279 7.524-9.921 18.165-12.432 29.84-13.756-.795-17.466-3.252-41.094 8.793-55.147 11.496-13.411 27.984-18.218 44.899-20.208 30.917-3.636 48.324 18.923 50.93 47.58.437 4.75-2.64 9.502-2.487 13.628.95 25.726-1.588 42.015-18.407 62.047 46.809 6.514 37.833 44.515 70.845 71.073 19.868 15.984 41.575 16.23 59.719 24.352 1.774 2.53 1.206 1.108 1.285 4.559-2.565 3.048-11.666 8.093-16.084 11.34 13.894-5.246 28.121-9.103 41.817-14.717-4.79-39.778-11.035-109.043 9.93-146.702 5.568-10.002 25.399-15.546 28.778-21.782-3.518-.799-6.798-.495-10.386-1.391-16.826-4.162-38.878-9.812-48.951-25.017-5.975-9.021 7.649-23.922 7.882-30.5.79-22.287 4.426-47.215 27.603-57.03 24.334-10.304 65.496-9.538 76.346 19.836 7.979 22.801 12.093 53.847 2.661 76.657-2.359 5.656-6.673 9.591-10.867 13.92l2.016 1.686c9.012-.747 10.428 2.664 17.236 9.517 16.982 17.474 26.304 42.266 30.897 65.863 3.025 15.54 4.123 30.661 18.794 39.992 10.848 6.899 20.965 13.253 34.219 10.844l1.406-.262c-10.021-5.305-23.369-10.828-23.436-24.135-.246-48.409 11.221-123.379 70.012-131.221-3.478-7.79-5.949-13.825-8.818-21.858-13.641-6.345-20.15-17.336-10.176-30.651-12.203-28.103 6.472-42.136 26.173-59.8 3.143-2.818 7.875-3.908 11.895-4.949 4.39.776 21.362 6.133 21.232 6.198 19.258-9.664 34.119 8.088 44.681 23.688 5.4 7.975 6.171 18.962 2.582 31.486 1.976 3.353 3.266 7.027 4.706 10.658l-.239.599c-3.938 9.487-6.682 10.637-12.269 18.421-2.216 3.087-4.99 15.679-6.078 20.02 21.26-.129 43.427 11.85 54.527 29.42 15.024 23.782 35.72 85.668 30.459 113.208 11.434.468 27.854-.859 40.029-1.141 29.427-.682 57.157-.883 86.627-.265-1.71-13.355-.9-38.495-.92-52.794-61.22 28.972-79.398 2.279-97.467-53.639a615 615 0 0 1-15.324-8.4c-11.757-6.662-19.852-24.667-.524-27.172 11.445-1.483 27.492 7.188 36.575 14.237 5.66 13.326 27.36 49.041 42.88 27.029 17.15-24.312 32.76-40.345 63.49-46.191-3.27-8.812-4.07-14.194-4.82-23.513"/><path fill="#fefefe" d="M986.037 332.429c20.793-2.631 100.883.577 126.523 1.41 1.22.04 1.76 6.028 2.28 6.62 2.96 3.369 6.98 6.249 10.55 8.621-5.3-2.41-20.04-1.656-25.89-.33-3.21 7.79-16.35 37.866-16.77 44.414 1.43 1.942 1.97 2.754 4.71 2.913 29.97 1.737 60.03 3.442 90.03 4.247 2.83.076 4.04-.018 6.25-1.674.87-1.823 1.93-4.454 1.93-6.532-.15-55.203-.55-38.675-44.43-41.708 12.77-5.019 24.27-5.243 37.5-7.237 25.67-3.87 51.45.708 77.26 3.534 31.44 3.46 62.8 7.575 94.07 12.341 22.34 3.456 42.31 6.395 64.09 12.345-8.14 3.575-14.42 6.133-21.04 12.064-6.05-1.068-50.84-10.735-53.08-5.575-3.67 8.47-22.63 31.332-22.57 37.145 7.4 4.759 82.41 19.086 97.45 22.17 9.11-9.823 17.92-31.284 26.63-42.492 11.89-2.133 12.5-2.3 21.78-9.964 105.18 29.313 224.3 78.809 302.18 156.903-4.3 29.664-1.79 61.339 14.11 88.013 4.79 8.029 16.98 17.382 20.31 26.261-.58.828-1.07 1.481-2.14 1.717-9.4 2.077-13.17 7.149-20.79 11.093-22.92 11.879-37.05 31.616-50.89 53.157-11.69 3.325-22.63 3.932-34.63 6.161-12.78-12.614-23.79-37.466-31.33-54.645-4.79-13.127-8.07-29.755-19.99-38.682-13.61-10.186-23.65 10.016-21.8 21.98 4.48 29.053 7.43 57.504 13.35 86.325-25.21 43.249-78.71 86.86-122.87 109.164a184.5 184.5 0 0 0 11.37-77.767c-3.64-49.168-46.78-56.106-87.68-54.497-16.54 1.529-33.56 7.898-44 21.154-16.67 21.181-7.07 40.566-3.14 62.253 5.65 31.114 5.63 51.686 32.34 73.212-3.74 5.487-6.5 8.966-8.44 15.403-9 2.422-22.12 7.716-31.35 10.896-15 5.042-30.12 9.736-45.34 14.079-8.54-26.59-7.67-53.182-38.66-64.82-24.55 11.517-7.69 39.477-3.25 58.137.96 4.045-.41 16.613-.93 21.137-16.2 4.78-51.89 10.548-69.42 13.231a1427 1427 0 0 1-184.22 16.69c-6.88.134-27.12.751-32.45-.453-2.46-2.272-1.73-1.145-2.45-4.717 5.11-1.646 13.44-.754 19.12-1.44 42.95-5.19 51.39-46.172 18.38-72.03-4.81-36.651 6.08-66.79-30.23-94.115-25.52-13.153-68.674-9.961-89.906 10.685-21.744 21.145-16.651 55.946-16.681 83.531-4.752 6.399-12.749 11.619-17.36 18.336-18.508 26.962-5.76 48.369 25.332 52.249 6.088.759 18.682-.104 23.255 2.906l-.194 2.623c-.34.192-.663.418-1.02.576-14.964 6.63-153.027-14.523-176.122-18.83-13.768-2.568-27.068-5.704-40.494-9.707 6.271-20.224 22.326-50.578 3.516-68.183-7.963-7.454-20.054 1.154-24.944 8.25-10.574 15.345-12.834 31.963-25.405 46.456-56.107-15.061-81.333-26.357-132.21-52.142-.007-6.196.297-13.875-.98-19.803a176 176 0 0 0 8.074-12.2c18.294-30.842 22.976-60.94 15.905-96.089-11.582-58.131-98.082-49.287-121.836-6.664-13.609 24.419-6.681 55.917.88 81.046-8.546-9.303-15.643-17.691-22.834-28.021-2.146-3.081-7.357-5.886-11.453-6.273l-1.694 2.697c2.752 12.708 31.089 38.471 40.088 49.588 9.051 11.181 8.318 18.338 6.746 31.764q-2.078.119-4.12.527c-23.649 4.797-45.44 18.476-58.645 38.939-11.775 18.248-11.036 38.468-6.326 58.829-59.15-36.35-115.489-83.029-148.956-144.816-3.677-6.789-7.133-13.698-10.562-20.614a69 69 0 0 0 3.171 1.816c17.029 9.213 24.738 10.172 43.09 4.812 41.263-12.62 26.204-50.443 9.907-78.808-5.544-9.651-20.577-35.973-37.504-12.105-3.521 4.965 5.52 19.785 8.352 26.276-10.838-14.946-21.951-28.444-34.407-42.068-6.262-6.85-14.061-10.944-13.942-20.258.149-11.663 2.943-17.429 10.843-25.833-.414-5.689-.692-12.114-1.847-17.636 12.286-21.07 18.948-35.333 33.207-57.125 31.039-2.583 51.877-5.895 80.307-19.774 10.72-5.233 18.351-8.162 26.563-17.337 21.478-5.576 42.392-20.919 20.673-42.81l-11.208-.261c-22.895 17.387-26.233 13.514-54.571 20.73 34.201-25.564 84.493-46.357 123.117-64.496 111.092-52.41 228.588-87.341 350.864-100.307 14.594-1.548 32.488 3.15 48.89-2.931 1.085-.402 11.268 1.65 14.193 1.415 12.333-.993 23.002-7.731 35.299-8.911 19.83-1.939 39.653-2.674 59.488-4.153 17.014-1.27 34.042-.838 51.028-2.008"/><path d="M363.577 735.313c2.638-.744 7.03-.97 9.567.296 4.242 7.501 8.441 30.553 12.671 40.047 3.072 7.981 16.901 28.589 18.365 34.957 2.1 9.138-57.933 10.836-63.93 11.309-6.424.151-10.909 1.524-17.461.75-7.347-5.392-32.176-67.749-26.579-75.78 9.315-4.824 53.83-9.661 67.367-11.579"/><path fill="#fefefe" d="m363.56 743.334 2.923.207c6.577 22.555 12.339 45.494 27.078 64.347-17.27 2.049-43.488 4.275-60.801 5.392-1.879.138-3.348.163-5.219.181-6.461-7.833-20.907-49.505-24.46-60.996z"/><path d="M335.783 577.644c13.851 3.782 61.062 8.758 67.81 13.021.658 1.556 1.692 4.071.444 5.509-7.302 8.418-32.874 60.495-38.131 62.66-9.957-3.576-24.101-4.078-34.612-6.308-8.253-1.751-33.416-2.043-35.958-10.434 1.718-5.996 34.886-58.085 40.447-64.448"/><path fill="#fefefe" d="M340.38 588.298c12.179 2.968 36.768 4.89 51.892 8.006-3.892 7.266-26.967 49-30.389 51.954-17.707-3.302-37.019-5.989-54.922-8.786 12.12-18.718 19.399-32.513 33.419-51.174"/><path d="M476.499 452.013c8.825.293 31.879 16.065 42.126 18.475 5.179 1.218 16.677 4.382 17.854 9.991-1.594 2.94-27.03 20.33-31.823 24.083a308 308 0 0 0-34.914 32.528c-3.6 2.129-28.525-12.133-34.72-14.615-5.858-2.348-21.729-9.712-23.941-15.819 3.91-7.088 57.281-50.556 65.418-54.643"/><path fill="#fefefe" d="M477.826 461.771c.21-.012 37.283 16.266 44.245 18.546-18.644 12.86-39.281 29.137-54.471 45.99l-1.339.574c-3.989-.946-37.271-17.205-42.211-20.205 14.821-13.02 37.782-33.919 53.776-44.905"/><path d="M699.397 368.006c10.025.109 24.818 26.889 33.257 33.13 3.263 2.413 8.553 10.797 8.038 15.403-5.631 4.512-60.967 19.971-73.788 24.311-3.079 1.526-13.151 7.457-15.126 3.9-5.646-10.167-22.156-38.161-22.12-48.793 4.602-7.524 58.033-23.172 69.739-27.951"/><path fill="#fefefe" d="M696.67 378.978h3.187c4.668 3.343 23.521 26.561 28.313 32.359-11.292 5.499-45.842 15.15-60.244 19.801-3.472 1.102-8.079 2.983-11.595 4.292-4.02-10.528-12.287-25.573-17.976-35.323 18.411-9.347 38.719-14.072 58.315-21.129"/><path d="M1601.56 472.164c12.16 1.972 66.53 40.076 67.11 51.97-3.17 4.18-49.1 20.856-57.22 24.128-21.28-18.529-42.44-34.107-66.85-48.286-2.42-1.404-2.54-2.328-2.99-4.779 1.4-2.18 1.72-2.754 4.35-3.695 18.21-6.524 38.08-11.027 55.6-19.338"/><path fill="#fefefe" d="M1603.44 482.27c17.08 8.208 39.76 26.652 55.11 38.393-15.65 4.883-30.22 11.991-46.71 16.528-2.87-2.132-5.33-4.345-7.97-6.754-14.37-13.103-30.45-23.264-46.99-33.283 13.86-3.355 32.66-10.236 46.56-14.884"/><path d="M1732.41 597.457c2.92.316 8.53-.215 11.66-.413 9.84 12.094 18.83 25.031 28.94 37.001 4.36 5.162 11.44 12.357 9.54 19.229-3 2.827-6.12 3.573-10.13 3.836a2120 2120 0 0 0-53.61 4.177c-1.98.264-18.79 2.946-19.65 1.034-7.69-17.047-12.26-36.443-25.17-50.775-2.85-3.171-4.06-1.903-5.52-6.635l1.35-2.452c3.41-2.008 54.11-4.323 62.59-5.002"/><path fill="#fefefe" d="m1735.32 607.524 3.01-.054c6.55 4.089 27.04 32.405 32.97 40.189-16.71 1.83-34.04 2.663-50.55 4.731-5.24.397-10.4 1.079-15.62 1.724-4.84-16.798-11.44-30.227-21.13-44.81 17.1-.821 34.21-1.414 51.32-1.78"/><path d="M916.219 346.552c9.602 1.309 12.083 19.971 15.782 27.916 2.686 5.768 9.271 15.338 8.54 21.179-4.61 2.654-74.063 6.259-85.062 7.315-5.595.292-12.73 1.847-17.816.285-1.487-1.314-2.856-1.936-2.772-4.131 2.182-56.481-1.596-47.326 53.949-50.372 6.535-.358 19.518-.95 26.395-2.032z"/><path fill="#fefefe" d="M904.799 356.591c1.758-.16 8.49-1.006 9.217.273 5.424 9.538 9.851 22.486 15.009 32.036-18.362-.024-42.236 2.329-61.266 3.245-4.859.63-16.707 1.803-21.133.903-2.093-6.327-.669-25.318.838-32.039 7.466-2.903 46.633-3.756 57.335-4.418"/><path d="M1033.96 635.372c8.04-1.235 27.95.215 24.24 12.477-4.44 5.075-9.3 5.162-15.97 6.435a97 97 0 0 1-9.65-.461c-6.24-.647-12.67-2.607-16.77-7.633-.98-3.584-1.1-1.878.35-5.295 5.32-4.795 10.7-4.66 17.8-5.523"/><path fill="#fefefe" d="M910.723 981.13c17.37-.917 30.02 10.552 53.972 10.662 18.48 1.731 35.21-7.204 52.965-8.539 9.46-.182 28.32 4.03 34.59 10.975 22.32 24.712 22.4 71.212 24.35 102.792 3.2 51.74 3.01 104 3.59 155.63-18.79 6.74-34.73 11.45-54.22 15.19-55.732 9.45-124.403.97-177.016-18.99.116-37.93 1.384-74.06 3.167-111.93 1.404-32.35 1.178-64.64 6.165-96.73 5.15-33.14 18.582-52.204 52.437-59.06M1872.4 671.267c9.31 1.002 17.05 12.762 19.21 21.13 11.65 45.292 12.97 93.251 15.8 139.769.98 16.258 2.66 38.976 1.12 54.898-39.44 17.889-80.94 30.557-124.73 24.603-5.06-.689-19.31-2.282-20.45-6.551-5.51-20.52-3.16-66.956-9.2-85.451l-1.41-1.53c-20.15 4.026-30.89 12.796-51.97 6.926l-1.32-.374c-15.88-6.352-25.88-12.613-35.78-27.006-18.19-26.428-26.73-61.005-29.69-92.572-.44-4.683-1.36-11.726-.6-16.097 2.06-1.476 17.47-4.79 21.5-6.005l8.92 19.696c6.72 14.471 13.42 23.473 23.01 35.622 19.79 25.08 31 11.898 44.84-9.023 10.28-15.546 22.33-34.24 37.6-45.544 31.25-23.136 69.39 4.645 103.15-12.491"/><path fill="#fefefe" d="M711.916 940.043a1179.3 1179.3 0 0 0 207.892 29.545c-57.64 10.576-67.902 35.012-73.687 90.152-.682 6.5-.115 16.81-2.655 22.52-4.379 1.4-23.67-1.41-29.555-2.1a1602 1602 0 0 1-115.971-17.31c-21.403-3.93-47.886-10.15-68.32-13.34-2.744-8.7-5.28-16.25-7.03-25.22-5.149-.23-11.218-1.09-16.423-1.71 1.483 41.16 8.027 79.4 19.305 119.16 4.132 14.57 2.53 20.39 3.902 34.32l-1.092.92c-4.193-4.12-6.592-19.95-8.506-26.56-11.796-40.7-21.617-87.94-20.369-130.47-5.493-2.09-11.919-3.79-14.991-8.87 5.055-1.87 20.218 4.92 26.936 5.86 56.077 7.87 78.165-33.635 100.564-76.897m922.324-184.429c3.06 4.113 5.9 15.948 7.4 21.347-6.26-2.185-13.23-5.673-18.33.059-1 15.04 23.93 25.616 35.46 28.845 24.01 31.08 52.54 35.853 87.91 23.146.8 12.373 2.81 27.294 3.96 39.926-34.86 32.716-86.8 64.738-129.56 86.123a640 640 0 0 1-34.75 16.842c-5.32-42.232-14.31-77.821-63.78-88.804-6.36-1.412-23.41-.448-27.44-5.613l.07-1.245c.36-6.538 19.14-15.451 24.65-18.809 47.13-28.704 83.5-56.002 114.41-101.817m-524.78-570.453c7.44-1.273 13.83 11.973 18.94 17.246 18.62 19.2 36.05 4.586 42.88-17.256 8.3 2.002 34.88 8.846 40.96 14.069 18.43 15.859 34.55 51.913 38.27 75.385 3.45 15.945 3.76 42.496-16.42 48.159-23.93 6.716-54.02 10.07-78.8 13.887-1.57-4.828-4.09-10.215-6.15-14.931 18.13-8.724 39.15-13.893 55.2-25.594 10.22-7.457 4.9-63.619.27-68.156-3.24-.41-1.96-.554-5.15 1.291-2.33 3.842-1.6 3.29-1.74 8.315 1.11 10.815 3.5 33.5 3.49 44.2-5.94 15.652-39.92 23.144-54.08 30.006-15.08 7.304-14.94 1.237-28.35 12.698-10.54-.193-21-.907-31.52-1.547-.58-8.2-.93-62.776-2.55-65.242-4.76-1.843-18.73 7.121-23.95 9.444-44.36 19.728-59.44-11.848-71.102-48.392 2.663-.748 9.922-4.146 10.772-3.273 11.82 12.181 14.41 19.268 31.52 23.759 30.15-7.983 21.76-41.088 77.51-54.068m-84.68 785.717c22.24.49 44.48-1.835 66.67-3.144a1350 1350 0 0 0 151.09-17.487c7.3-1.266 43.55-9.438 47.13-7.184.32 2.389 1.09 4.572-1.09 6.471-9.63 8.407-55.43 10.436-61.41 20.003 1.79 13.845 26.96 52.103 34.13 66.833 1.86 3.83 30.38-5.7 35.19-7.14 2.77 10.05 4.54 17.96 9.97 26.99-6.41 6.3-203.29 28.15-220.46 26.1-2.79-5.33-2.44-19.34-3.05-25.81-2.62-27.78-9.47-70.057-41.09-78.413-5.15-1.363-12.78-3.868-17.95-4.182-.98-.354-10.56-1.248-14.47-2.203l2.62-.022.1-.377c4.01-.659 8.51-.451 12.62-.435m-662.14 10.404c5.204-.639 18.599 8.004 23.967 11.021 2.73 11.437 3.835 24.427 6.298 36.307 10.387 50.07 24.386 99.78 35.075 149.71-10.307-4.5-25.94-15.05-36.004-21.33a2548 2548 0 0 1-54.609-34.33c-23.283-13.69-89.633-53.97-104.581-72.78-8.523-10.73-13.043-23.47-17.583-36.21 56.758 2.32 95.7-10.51 147.437-32.388m1280.99-662.011c4.56 30.376 56.62 10.044 74.44 5.011 19.43 11.148 22.21 29.285 26.25 49.665 8.8 44.392 1.59 85.701-9.11 128.918-5.39-4.197-10.92-8.792-16.25-13.099 3.38-27.765 7.92-56.356 5.12-84.295-.73-7.287-1.22-29.201-6.6-32.965-3.07.487-1.98.13-4.54 2.788-.98 2.927 2.72 43.572 2.94 51.423-.06 16.555-3.36 40.696-5.19 57.555-3.28-1.747-6.7-3.983-9.78-6.091-22.43-15.336-45.96-27.665-70.04-40.162.88-21.154 1.15-54.717.75-76.813-.02-1.162-.99-1.232-2.33-1.854-3.22.338-3.37.3-5.8 2.282-1.63 3.237-1.59 62.691-1.64 71.542l-27.87-12.031c9.51-33.071 20.59-81.531 49.65-101.874M397.588 299.915c36.63 3.842 34.076 22.701 39.904 52.674 7.903 40.652 19.357 48.846 59.729 56.26-12.183 5.95-30.12 12.766-42.951 17.54-10.277-16.458-19.474-13.666-35.836-6.894-9.399 3.891-18.315 8.173-27.918 11.615-19.221-4.246-29.296-3.523-42.479-18.664-3.457-14.025-3.747-34.866-4.505-49.456-.287-5.527.563-20.987-.735-25.194-2.895-1.723-1.438-1.558-4.471-.816-4.794 5.602-4.046 18.641-3.59 25.78-.343 60.449 5.858 70.588 67 78.184 3.138.39 11.531 1.664 13.412 3.946-3.904 2.836-26.708 12.041-32.641 14.629-5.254-.486-10.784-1.294-15.843-2.463-59.963-13.865-63.554-117.152-18.644-149.334 1.42-1.017 3.593 4.46 5.116 5.698 13.767 11.199 38.232 8.939 44.092-12.19z"/><path fill="#fefefe" d="M256.341 398.789c1.574 1.9 3.297 6.557 4.403 9.067 12.155 27.58 34.734 14.551 51.07-.647 6.015 20.239 15.244 41.349 35.514 50.76l1.202 18.623c-12.833 7.196-26.54 14.925-39.051 22.564-7.154 4.516-28.85 20.71-33.484 22.451l.033-.693c4.497-2.071 7.51-2.516 7.969-7.89-1.448-3.91-45.829-50.42-53.163-58.586 16.847-17.249 21.748-32.323 25.507-55.649m573.874-289.973c1.539.776 11.889 9.612 14.498 11.613 6.667 5.113 9.988 6.532 17.494 10.012 1.211 14.051 1.609 31.655-3.368 44.818-8.009 21.179-25.478 28.849-46.219 20.987-18.984-10.17-22.087-35.539-24.87-54.878 15.159-6.619 21.89.728 28.156-2.284l.215-1.599c-2.489-1.635-7.314-1.894-10.474-2.316 10.518-9.025 17.861-14.117 24.568-26.353"/><path d="M837.684 173c2.039.825 2.313.669 3.537 2.407-3.207 7.977-16.636 7.539-23.699 6.109-3.628-2.464-3.389-1.46-4.453-4.78 4.811-4.814 14.158 2.679 24.615-3.736m-15.243-30.606 3.104.591c3.214 3.882 3.04 17.87 5.5 22.896.547 1.117-.558 2.611-1.272 4.21-15.061-5.374-1.367-18.627-7.332-27.697m-14.268 2.221c2.766 2.406 3.471 2.809 4.344 6.307-.186 3.712-.78 4.245-3.067 7.25-3.389-1.967-4.821-3.383-5.595-7.169 1.309-4.39.502-2.765 4.318-6.388m34.723-1.459c3.985.905 4.348 1.554 6.294 4.715.343 3.676.025 4.224-1.449 7.649-3.632-.084-4.294-.436-6.517-3.046-.58-3.905.376-5.578 1.672-9.318"/><path fill="#fefefe" d="M1447.54 120.858c2.52 2.103 3.07 15.87 3.45 19.953 5.37 4.351 7.96 6.739 14.17 9.595-.9 7.843-1.19 15.621-2.37 23.456-3.84 25.648-25.72 29.976-47.83 25.663-25.63-10.886-19.82-42.137-16.8-64.231 15.13.394 37.05-5.94 49.38-14.436"/><path d="M1411.09 174.78c1.9.133 20.02 4.464 23.29 5.252l1.23 2.595c-9.06 4.175-20.59 2.246-24.52-7.847m28.02-21.428c3.31.626 3.85.509 6.25 2.651.49 3.355-2.11 6.573-2.99 10.765-2.61-.763-2.79-.969-5.06-2.287l-.37-2.01c1.89-3.743 2-4.925 2.17-9.119m-10.77-8.086 2.14 1.447c1.5 5.755-1.03 9.884-3.42 15.287l-1.55-.493c-2.04-5.544.74-10.656 2.83-16.241"/><path fill="#fefefe" d="M194.568 558.722c3.764 3.49 11.731 17.471 13.243 23.029-.729 3.048.003 1.767-2.344 3.935-4.52-2.774-2.182-6.362-6.501-9.327l-1.728.66c-2.042 6.124 9.295 21.976 12.95 27.423-2.061 6.862-3.741 11.414-7.531 17.447-3.985 1.206-7.554 1.693-9.986 4.787 1.829 5.608 6.16 4.567 9.418 11.117 3.373 17.491-20.184 5.856-23.879 15.533l1.119 1.81c4.055 2.099 8.137 2.209 12.73 2.779 1.996 5.54-.314 9.151-3.26 13.911-1.005 1.624-4.179 1.423-6.048 1.62-4.654.944-23.641 1.047-27.938-.04 11.031-13.964 14.803-10.898 11.854-30.841-3.334-22.541-31.365-15.669-28.225-37.573 7.095-10.238 17.778-.406 22.505-1.381 3.616-4.707 3.035-12.214 2.894-17.903 12.205-8.211 21.776-15.039 30.727-26.986"/><path d="M185.689 590.449a4.41 4.41 0 0 1 7.27 3.048 4.408 4.408 0 1 1-7.27-3.048"/><path fill="#fefefe" d="M244.788 344.739c3.566 3.371 3.392 7.026 3.909 11.814 3.11 28.799.704 73.882-26.422 90.857-9.58 5.995-25.098 3.468-35.137.404l5.895-6.953c7.867-12.412 6.163-21.653 5.659-36.118 2.393-3.937 4.039-5.875 3.679-10.312-3.932-2.697-6.757 2.179-11.777-2.297-1.283-4.37-1.262-10.663 3.734-12.321 3.917 1.082 6.045 3.865 9.027 6.812 8.715-16.905 25.968-31.059 41.433-41.886"/><path d="M229.013 369.96c10.404-.397 13.947 3.795 9.669 13.816-2.514-1.846-4.507-6.286-9.536-8.196-1.604-.609-1.294-.856-1.949-2.526zm-4.291 38.697c2.871 1.632 5.663 5.653 6.833 8.749.488 1.291-.916 2.806-1.665 4.062-4.418-.611-6.07-1.377-8.347-5.13.358-4.81-.042-3.004 3.179-7.681"/><path fill="#fefefe" d="M1856.19 369.305c20.56 7.113 13.98 54.775 20.24 63.168 5.54 1.395 11.05-7.016 16.09-2.371 1.59 8.887-3.26 11.718-9.51 16.113-19.66 54.498 8.85 34.094 13.21 46.264l-1.14 2.219c-5.07 3.019-26.65 3.226-31.1.388l.19-4.371c-1.9-2.975-3.21-4.703-5.43-7.451-34.11-5.191-13.12-9.952-22.21-23.612 1.75-4.963 6.78-.24 13.44-3.454.73-2.913.61-1.831-.58-5.06-2.84-1.75-9.41-1.482-13.08-1.602.67-12.286 3.96-18.309.06-29.663 8.3-11.251 8.34-16.437 11.88-30.093 5.78 4.142 7.27 7.973 12.33 11.642 3.23-.813 2.05-.212 4.44-2.817l-.12-2.491c-3.31-5.831-9.08-8.689-14.77-11.835 1.78-6.635 2.9-8.777 6.06-14.974"/><path d="M1847.87 406.604c4.25.795 4.65.675 6.94 3.411.28 3.175-1.1 4.736-2.75 7.557-3.14.06-3.41-1.056-5.16-3.119-.77-4.997-.95-2.933.97-7.849"/><path fill="#fefefe" d="M1161.93 107.647c11.82.218 36.45 96.895-37.01 73.378-16.27-11.546-15.65-28.143-15.81-46.391-.18-19.98 18.2-11.114 30.59-13.853 9.77-2.158 14.76-6.501 22.23-13.134"/><path d="M1139.24 126.731c3.93 7.191 4.01 22.186 2.66 30.427-.33 2.06-2.64 2.411-4.84 3.331l-3.27-2.992c-1.36-4.484 1.61-1.486 2.32-6.465 1.46-10.227-.68-14.094 3.13-24.301m13.85 37.778 1.13.201.28 1.838c-5.63 7.749-15.16 7.203-23.3 4.683-.72-.587-1.21-1.45-1.78-2.256 1.14-1.646 19.13-3.509 23.67-4.466m-.05-29.534c3.85-.034 5.52-.213 9.32.712l.35 1.352-3.34 3.95c.94 5.445 1.45 6.815-.43 12.056-1.9-.165-2.24-.344-4.07-.938-2.48-4.916-.38-5.193-.36-10.642 0-2.669-3.3-2.437-4.45-4.888z"/><path fill="#fefefe" d="M377.755 209.222c6.762 3.353 12.86 9.245 19.85 12.048 1.677.672 6.015 1.145 8.807 1.956l1.281 2.345c-2.7 3.404-5.316.077-8.62 3.113.632 5.255 8.622-.178 8.52 9.57-2.639 4.12-1.495-.495-6.273 2.156l-.635 3.673c1.681 3.368 1.412 2.37 5.867 4.337 5.319 17.771-14.411 43.311-31.52 49.482-27.566-5.092-22.582-11.27-34.028-31.286-1.603-2.803-11.024-1.909-12.042-9.726 6.819-13.08 36.872.687 48.793-47.668"/><path d="M382.654 240.67c4.127 1.69 5.439 2.857 6.04 7.328-1.527 3.36-.562 2.211-4.019 4.115-4.7-.789-8.072-1.56-8.166-6.922 2.662-3.644 1.392-2.401 6.145-4.521m9.355 26.211 1.812 2.131c.519 7.632-5.25 8.68-11.575 9.524l-2.198-1.585c-.681-6.887 6.167-1.541 11.961-10.07m-12.846-38.258c2.763.231 2.756.347 5.175 1.427l.566 1.809c-2.016 2.787-5.33 3.95-8.538 5.535-1.092.131-2.279-.249-3.416-.478l-.472-1.912c1.829-3.402 3.556-4.25 6.685-6.381"/><path fill="#fefefe" d="M626.137 123.751c6.81 7.241 10.175 15.825 13.111 25.111-4.999 1.101-10.158 2.633-15.109 4.017l1.346.361c7.248 1.986 10.628 2.087 18.038 2.597 8.631 23.377 7.781 60.139-26.13 57.069-15.543-1.98-9.977-11.938-16.721-24.099-4.63-8.348-19.002-13.321-19.766-21.167 5.6-6.84 6.441 1.503 12.293.727 2.504-4.042.837-13.962 3.188-15.989 15.149-13.064 20.486-9.46 29.75-28.627"/><path d="M636.758 175.301c6.369 4.346 7.095 9.201 1.225 15.057-2.946 2.939-5.115 2.107-8.899 1.748-1.807-1.195-2.513-1.955-4.097-3.396l.127-1.629c4.232-.727 4.926-1.144 8.752-3.164 2.221-2.601 2.267-5.162 2.892-8.616m-2.692-16.314c3.294-.209 5.305-.708 8.16.853 1.811 3.701 1.223 2.661.849 7.376-3.519.62-2.094.677-5.469-.555-2.6-2.875-2.535-3.758-3.54-7.674m-14.46.318c3.783 1.399 3.69 1.718 5.452 4.648.207 3.556-.098 4.002-1.882 7.123-3.163-1.924-3.975-2.228-5.656-5.464.114-4.028-.111-2.577 2.086-6.307"/><path fill="#fefefe" d="M1382.14 1042.82c2.68 1.38 2.57 15.66 2.51 18.84-.65 34.93-4.31 96.88-19.66 127.97-3.01-26.07 20.47-109.09 10.72-126.93-2.6-1.18-6.1-.88-8.86-.27-48.47 10.83-96.44 18.28-145.67 24.94-14.15 1.68-127.21 15.53-133.9 10.97-1.79-1.22-1.59-1.89-1.87-3.89 1.36-2.67 5.94-3.04 8.78-3.16 23.64-.95 47.1-2.95 70.66-5.2 47.7-4.58 95.18-11.12 142.34-19.59 9.78-1.72 20.26.25 24.7-1.22 16.08-5.37 35.7-14 50.25-22.46m392.6-486.613c3.91 2.33 12.29 9.164 16.21 12.246.06 7.856.4 18.871 3.81 26.039 4.15-1.5 2.83-14.388 10.94-18.343 13.04 2.404 10.67 29.776 11.09 38.348.63 12.717 14.93 19.597 22.32 28.089 1.23 1.419 12.63-.375 15.58.37l.67 1.113 1.18-1.128 2.83.206.88 1.518c-.74 3.569-3.24 5.588-5.81 8.365-10.6 1.114-30.98 1.24-41.08-1.598-8.07-12.119-19.94-14.993-28.56-31.772-10-19.469-15.72-42.12-10.06-63.453"/><path d="M1800.75 604.838c1.05.088 1.58.701 2.66 1.421 1.09 5.688-3.74 7.49-7.89 8.751-2.35-3.067-3.76-4.937-3.14-8.75 3.07-1.994 4.27-1.339 8.37-1.422"/><path fill="#fefefe" d="M1898.03 502.473c1.15 2.422 3.84 16.355 4.53 19.544 11.84 54.707 0 110.652-3.11 165.814-7.51-13.943-9.77-15.54-21.9-25.449-4.01-6.505 1.01-5.804-8.81-11.384 18.63-33.274 31.35-67.723 28.59-105.722-.14-1.816 1.48-8.557 1.19-9.522-3.92-13.356-8.85-20.408-18.69-29.761 9.42.811 10.78 1.635 18.2-3.52M260.825 742.38c3.098-.449 8.663-1.35 11.543.086 11.956 5.96 15.332 25.035 9.267 36.184-3.611 6.639-10.514 11.519-17.764 13.536-15.051 4.187-23.756 1.911-37.019-5.284-6.057-3.142-9.668-5.748-15.17-9.646 14.097-12.402 20.403-16.926 29.238-33.7 3.708 3.58 12.312 12.698 16.784 13.305l1.589-1.311c1.269-4.33 1.055-6.218-.331-10.563l-.221-.667zM1526.29 1250.1l.56.52-.12 1.76c-20.92 30.65-68.48 51.17-102.75 63.64-.04-1.22 8.45-12.61 10.17-15.95 6.56-12.81 8.59-23.54 9.66-37.58 24.98 2.61 59.12-2.74 82.48-12.39m-238.65-288.958 1.98.045c2.41 21.477 1.46 35.355 5.34 59.603a515 515 0 0 0-28.44 6.77l-6.92-13.14a2065 2065 0 0 0-21.92-41.521 571 571 0 0 0 49.96-11.757m-180.86-604.175c22.35 1.034 45.84 2.669 68.08 2.195.09 9.515 1.27 21.885.59 30.919-2.82 1.271-6.45.771-9.69.667-19.69-2.145-52.06-3.001-72.12-2.937 4.22-10.346 8.61-20.628 13.14-30.844m542.84-141.54c8.1 3.557 20.3 39 21.58 47.822-1.29 2.066-2.57 4.14-3.83 6.221-9.99 16.464-12.6 20.198-8.12 38.48-1.31 1.537-4.59 2.283-6.7 2.97-21.43-5.957-10.43-27.244-17.44-36.429-3.17-.716-4.44-.479-7.74-.306l-1.27-1.149c.64-2.546 9.06-8.331 12.15-10.941 3.85-19.107 1.54-26.786 11.37-46.668m-303.3 169.219c11.8 1.841 23.7 3.43 35.48 5.433 4.07.693 7.16 1.345 7.58 5.721-1.57 2.922-2.61 4.329-2.97 7.603 1.74 3.344.89 2.837 3.68 4.645 3.26.035 6.12-2.355 9.05-4.212 12.67-.752 3.42 9.191 26.43-2.545-2.8 5.506-5.8 10.666-8.88 16.01-1.47 3.626-2.07 6.091-4.96 8.679-5.61 1.537-71.55-13.689-81.25-15.609 3.73-7.173 11.32-18.537 15.84-25.725M259.202 898.041c1.927-.246 3.978-.082 5.934-.012 2.989 1.512 3.871 4.617 5.399 7.851-40.206 19.387-83.895 24.336-127.913 26.516-3.29 0-5.2.705-8.077-.696-2.599-3.407-2.532-8.255-3.039-12.761 39.904-1.862 89.941-8.293 127.696-20.898m222.975 347.589c10.873 1.51 21.345 6.06 32.438 7.35 10.011 1.17 21.127-.89 30.875 1 6.109 1.18 28.471 43.36 33.778 51.29-4.749.87-42.243-20.74-49.099-24.41-16.294-8.73-35.965-21.08-47.992-35.23m51.307-371.213c3.582.87 28.608 14.844 35.565 17.95a614.5 614.5 0 0 0 93.278 32.942l-9.743 9.366c-19.936 15.215-26.215 10.012-39.924-6.962-20.082-24.866-50.861-30.638-76.631-46.351-2.818-1.718-2.511-4.056-2.545-6.945"/><path fill="#fefefe" d="M180.93 763.709c4.522 1.337 22.905 15.992 25.925 20.493 2.593 3.862 5.435 12.122 7.313 16.625 32.055 76.857 101.313 129.693 169.346 173.408 1.422.914 2.147 3.75 2.499 5.285-2.525-.356-7.551-2.645-9.794-3.958-73.56-43.045-148.467-111.992-175.15-194.337-8.132-5.545-13.577-10.202-20.139-17.516m450.178 296.051c12.618 2.02 26.782 5.59 39.591 8.17 57.215 11.57 113.475 18.53 171.427 24.59 2.38 2.15 1.754 2.92 2.252 6.79-4.148.46-25.297-2.06-30.464-2.61a1497 1497 0 0 1-130.557-19.64c-15.468-3.02-33.543-6.22-48.601-10.35-2.453-1.72-2.704-3.95-3.648-6.95m313.651-105.168c5.846-.641 36.343-.627 43.769.746.947.175 4.171 10.242 5.464 12.509 1.515 2.655 4.289 5.868 6.478 8.367-4.465 1.766-9.45 2.91-14.115 4.129-20.073 2.607-32.301 2.813-51.968-3.617 9.45-11.638 5.203-11.349 10.372-22.134m806.121-74.79c.74 2.949.78 4.197.99 7.258-2.82 5.618-19.17 17.254-24.79 21.295-39.69 28.542-94.67 61.513-139.83 79.264l-.86-4.221c2-3.8 19.92-10.765 24.66-13.134a1377 1377 0 0 0 53.13-28.32 482 482 0 0 0 86.7-62.142M444.9 343.792c3.226 3.011 9.643 13.513 13.429 17.654 16.107 17.616 36.127 23.069 57.709 29.802l-.043 1.176-4.397 2.777-10.016 5.893c-39.156-6.508-53.001-16.174-56.682-57.302m1043.21 544.179 1.07.281c2.49 2.517 3.15 6.019 4.26 9.515-21.87 13.236-47.49 16.768-71.85 7.931-2.65-1.708-2.64-1.652-4.67-4.03-.81-3.766 1.38-7.247 3.04-11.02 1.64.793 3.32 1.495 5.03 2.103 19.32 6.859 44.79 3.9 63.12-4.78M770.371 254.685c1.862 6.804-1.316 21.392 1.569 29.06 10.663 28.337 81.577 19.992 105.718 30.42 2.603 1.125 6.141 5.827 6.34 8.697.26 3.734.517 3.311-1.3 6.172l-2.315.099c-3.002-1.612-3.209-3.092-4.625-6.177l-1.332-.521c-.661 2.215-1.165 4.247-1.712 6.493l-.97.376c-2.179-5.567-4.176-8.553-8.867-12.281-37.014-7.717-119.386.557-92.506-62.338m118.693-3.905c5.343 3.933 20.569 50.83 26.613 58.428 1.065 1.338 6.785 14.047 7.833 16.577a489 489 0 0 1-27.509 1.522c1.069-27.634-3.243-49.159-6.937-76.527m499.316 658.314c.37.076.11-.034.83.697-27.39 15.594-40.47 33.618-52.98 61.469-2.46 5.477-11.59 28.095-17.41 29.24l-.5-2.909c4.04-15.465 15.32-33.497 25.79-45.467-2.78-8.927-5.88-17.509-9.03-26.306 18.27-4.786 35.44-10.689 53.3-16.724M637.608 241.977c3.317 3.009 6.241 27.172 4.046 32.704-4.956 1.511-21.488-9.334-25.749-12.368a115.2 115.2 0 0 1-18.476-19.184c13.699 5.806 27.608 8.633 40.179-1.152m68.443 627.873c4.291.192 8.87.163 10.916 4.718 4.204 9.357-.208 24.323-3.19 33.558l-6.555-3.08c-6.884-2.177-10.522-3.82-17.107-6.917 4.305-11.236 6.684-20.512 15.936-28.279m-181.342-13.576 1.3-.068c1.65 2.311.717 16.528.659 20.238-9.834.679-19.608 1.633-29.428.911-1.973-.283-1.723-.311-3.617-1.037-1.156-3.657-.724-13.099-.783-17.484 12.824.321 19.049.289 31.869-2.56m57.302-587.126c5.228 2.002 1.862 11.498 1.113 17.195-4.244 32.268-.616 60.992 4.098 92.801l-4.193 2.23c-9.402-31.27-10.612-80.873-1.018-112.226m883.769-13.946c1.81.848 1.25.545 2.75 1.948 4.59 25.436-16.15 90.913-41.17 102.377l-1.26.053-.2-.911c18.91-19.644 29.75-44.261 34.03-70.921 1.58-9.817 3.13-21.741 5.49-31.14zm164.93 387.259c10.62 1.492 20.92 23.121 17.43 32.181l-3.38.997-13.6 2.906c-4.03-13.517-6.6-23.298-.45-36.084m-337.26 219.902c6.46.895 7.07 2.267 11.11 7.237 3.74 4.593 11.67 13.1 10.66 19.301-2.02 1.81-6.1 2.143-8.97 2.669-5.09 1.082-6.86 2.308-11.38 4.857-3.03-9.748-8.55-25.238-1.42-34.064M337.509 283.09c3.634 4.001 8.537 8.562 12.459 12.416-7.229 5.895-17.031 13.908-22.902 20.87-1.069 1.15-4.049 5.341-5.159 6.815.42-16.889-1.587-32.046 15.602-40.101m316.409-35.222c.495.337 1.267.773 1.633 1.281 18.529 25.704 25.99 78.189 24.391 107.034-1.067-.205-2.315-.588-3.382-.878-.888-1.734-4.708-41.086-5.021-46.998-1.23-23.176-12.79-40.073-17.621-60.439m-46.974-29.17c4.633 1.229 9.944 1.512 14.725 2.521 10.048 2.12 11.218 14.751.902 18.887-10.084 1.825-14.91-.624-23.322-5.358 2.948-5.518 5.541-10.116 7.695-16.05M361.065 500.699c2.927.017 7.504 2.588 8.959 5.239 1.55 11.919-10.998 18.831-20.782 21.308l-1.895-.339c-2.469-2.637-5.536-10.124-7.22-13.783 9.933-3.327 12.759-5.978 20.938-12.425m-168.354-37.941c16.905.026 43.61 39.809 57.144 50.115 3.474 2.645 15.428 8.988 16.717 10.465-2.957.875-4.157 1.119-7.218 1.506-11.233-4.419-53.992-49.925-66.643-62.086M545.292 774.32c15.519 4.331 3.761 28.188-.242 37.914l-.934.606-1.206-.747a66.4 66.4 0 0 1-3.489-14.098c-1.156-9.013.328-16.459 5.871-23.675m-82.886 78.232c8.611 3.369 12.81 4.169 21.739 6.017-.28 6.273-.689 10.112-1.646 16.33-8.75-1.863-14.38-3.173-22.058-7.738zM199.225 547.426c7.809 1.085 16.466 17.826 31.862 24.125l-13.273 21.343-1.277 2.047-2.122.463-.573-1.033c.82-3.775 6.043-12.236 8.218-16.657-9.126-9.062-17.642-18.373-22.835-30.288m1272.215 336.43c-9.27 2.468-38.5 6.404-45.25-1.78-.26-3.723-.86-3.32.77-5.771 14.84 2.174 20.15 3.762 35.45 4.141 7.26-.083 14.51-.291 21.76-.621-3.88 1.456-8.73 3.583-12.73 4.031M433.969 423.169c3.961-.298 4.682-.6 8.239.803 2.494 2.626 1.845 1.113 2.094 4.659-3.515 7.198-13.149 10.182-20.546 7.896a1255 1255 0 0 0-16.564-2.812c8.839-4.267 17.557-7.232 26.777-10.546M251.62 709.302c7.935 1.263 20.767 15.998 17.775 22.156l-4.524-.443c-3.363 1.275-5.758 2.172-9.289 3.106-3.333-5.372-4.894-11.53-6.535-17.659-.775-2.895 1.078-4.841 2.573-7.16M1360.44 248.38l1.62.721c.45 1.538-4.54 24.908-5.36 29.286-4.92 3.609-10.03 6.98-15.1 10.387l-1.2-.317c-.25-3.987 16.73-34.789 20.04-40.077"/><path fill="#fefefe" d="M851.123 321.569c4.103 1.166 8.521 3.022 10.63 6.839-3.498 2.13-6.592-5.246-13.153-.775l.311 1.409c2.595 1.638 3.847 2.151 5.63 4.563l-.912 1.809q-.955.463-1.92.908c-6.81 3.135-13.67 5.639-17.352-2.662.337-9.947 8.577-11.999 16.766-12.091m518.497-39.307c2.01.611 3.5.265 6.43 1.034 3.86 2.531 5.17 7.11 7.05 11.486l-10.67 5.921-3.35.041c-4.03-2.672-9.3-8.573-8.72-13.645 3.62-1.579 5.9-2.893 9.26-4.837m20.69-14.482c18.47 1.728 7.98 15.109.28 22.668-2.94-6.692-6.1-10.238-10.58-15.823 3.88-3.243 5.93-4.342 10.3-6.845m7.76 535.332c10.04 1.863 11.21 27.696 7.1 33.106-9.39-1.668-10.39-25.821-7.1-33.106m20.58-425.027c3.12 3.024 6.92 7.704 7.93 11.997-2.65 4.084-10.96 6.274-15.5 7.194l-.73-.746c.5-3.031.68-3.272-.58-5.913-2.4-1.659-3.92-1.187-6.97-.982l-1.21.086c1.06-1.954 14.5-10.089 17.06-11.636M963.237 190.351c6.002.518 12.133.934 18.062 1.944 2.213 2.065 1.447.78 1.824 4.263-1.357 3.008-2.094 5.238-3.119 8.38-3.247 2.016-20.025-6.231-18.762-13.261zM356.09 300.592c5.611.367 13.547 3.801 18.94 4.133 2.582.159 7.8-2.712 12.516-3.224l-.214 4.076c-8.649 8.729-29.201 9.928-31.242-4.985M1862.7 658.971c1.61.688.98.133 1.86 1.696-.74 2.048-.55 2.789-2.29 3.792-10.15 5.851-41.31 2.182-52.01-.435l-1.33.451-1.63-.895c15.35-4.837 31.85 5.151 55.4-4.609m-725.82-333.407c11.29 2.951 11.14 12.814 1.08 18.823-2.5-2.787-2.09-3.678-5.57-6.602l-.22.49-1.36-2.837c.32-3.886 3.41-6.672 6.07-9.874m279.92-117.515c6.96 1.454 12.84.143 17.39 1.897 1.13 2.889.59 2.298-.79 6.167-2.83 2.04-5.41 3.886-9.03 3.825-8.78-.148-7.86-5.726-7.57-11.889m14.99 156.618c6.44 1.626 19.65 12.49 19.46 20.22-5.75.193-14.23-8.282-17.6-12.737-2.66-3.528-2.54-3.631-1.86-7.483m-300.5-172.669c9.3 3.703 17.41-.392 25.23 1.047l-1.03 2.17c-.74.676-1.48 1.345-2.23 2.005-10.14 8.907-14.83 3.486-21.97-5.222m520.24 126.339c7.71-.513 18.11.082 21.66 8.768-8.01.952-19.53 1.352-21.66-8.768M803.783 202.205c10.347 3.811 14.665 4.787 25.648 5.671l1.256 2.038c-9.233 5.93-22.097 2.168-26.904-7.709m669.707-54.497c4.38.313 5.43.672 7.16 4.787-.41 4.049-2.04 5.629-4.42 8.974-2.9.912-4.02-.019-5.6-2.155-.43-4.075 1.39-7.753 2.86-11.606M184.118 683.112c10.9-.647 17.042 9.233 22.995 17.101-8.126-2.49-17.476-10.747-22.995-17.101M1714.34 733.29c1.64-.399.81-.293 2.71.326-1.99 5.548-5.78 9.168-11.69 9.222-2.85-2.71-3.77-2.7-4.62-6.113 1.78-1.79 10.02-2.624 13.6-3.435m-528.52-599.076c4.38 1.562 3.42.498 5.58 3.764.21 4.019-1.22 6.218-2.88 9.924-.84.091-2.56-.024-3.47-.054l-1.51-1.822c-.57-4.395.9-7.532 2.28-11.812m-406.893 7.34 1.229 1.084c1.994 4.716 2.448 9.19.859 14.136-4.361-6.11-5.752-8.572-2.088-15.22m855.263 642.409c9.66 2.411 11.67 1.782 16.66 9.526-6.75-1.62-11.43-5.18-16.66-9.526"/></svg>