<svg xmlns="http://www.w3.org/2000/svg" preserveAspectRatio="none" style="display:block" viewBox="0 0 2048 1462"><path fill="#fefefe" d="M0 0h2048v1462H0z"/><path d="M321.547 137.184c9.091-.982 18.794.028 28.02.146 23.877.306 47.735 1.63 71.604 2.402l250.567 8.918a11093 11093 0 0 0 178.541 2.287c163.911 1.128 327.831.19 491.711-2.816 16.52-.191 123.24 1.27 130.08-2.496.78-.429.96-.575 1.8-.948 3.91-1.732 273.09-2.585 297.77-2.052 4.23.091 8.42.439 12.43 1.862 2.73 4.145 1.36 7.879-1.68 11.297-29.84 33.534-61.11 69.388-91.97 101.631.2 6.341-1.6 27.738-1.97 35.01l-3.21 70.187-10.82 200.165a53985 53985 0 0 0-30.52 595.163c6.74 8.35 35.88 33.67 45.05 41.02 5.84-3.18 7.41-3.95 13.76-5.72 4.42-16.68 23.27-39.52 40.35-43.58-.31-49.15 3.41-78.91 62.25-73.42-2.52-2.08-4.97-4.15-7.23-6.54a40.84 40.84 0 0 1-10.96-30.54c.62-8.99 32.44-67.653 38.46-66.782a32 32 0 0 1 4.86 5.553c10.33 14.884 30.65 56.979 25.4 74.889-4.06 13.85-6.3 16.73-17.81 24.51 27.19.6 55.98 4.81 58.38 39.18 2 28.79.83 58.6.86 87.51.03 30.39-.17 61.48-2.69 91.73-3.82 37.62-42.03 40.02-71.68 42.86 9.71 8.31 34.6 31.87 41.24 43.62 1.18 2.09-.37 4.07-1.38 5.81-6.05 4.35-101.76.64-117.73 1.09-26.36.76-60.08-.9-86.95-.19-457.95 1.01-915.894-1.56-1373.799-7.72-21.77-.18-43.544.67-65.298 1.15-5.418.11-25.113 2.11-28.645.2-7.756-9.14 37.298-45.96 45.509-53.95-28.069 3.62-80.257 3.99-101.476-18.13-11.414-11.9-8.73-35.88-9.539-51.16-1.788-33.76 2.815-66.34 5.243-99.68 13.224-13.81 27.036-15.93 45.102-16.95-13.369-26.84 12.334-52.49 25.995-73.57 1.989-3.07 5.26-5.5 8.89-5.82 6.476 4.11 13.906 19.57 18.047 27.04 17.96-14.04 29.623-17 51.498-21.34-21.035-27.11-14.147-47-2.539-77.124 25.139-65.237 30.134-74.393 55.998-.725 8.071 22.989 13.609 49.599 2.016 72.609 18.593 2.16 41.195 4.38 54.962 18.17a48.57 48.57 0 0 1 12.548 22.02c2.338 8.93 2.299 20.43 2.21 29.76-.228 23.79 1.486 47.61 1.367 71.37 9.756-6.5 43.766-35.29 51.477-43.58-1.536-19.25-1.253-42.57-2.221-62.56l-8.472-204.927-18.047-382.138-7.287-165.34c-1.134-28.59-1.928-57.206-3.053-85.8-.622-15.792-4.201-17.815-14.803-28.449-26.838-26.918-54.149-53.148-82.477-78.492-3.074-2.751-4.608-5.173-4.829-9.296 1.051-3.903 2.074-4.526 5.09-7.324"/><path fill="#fefefe" d="M549.143 255.972c16.723 1.639 47.887 1.151 65.751 1.311l133.398.606 557.658 5.177 165.93 1.674c13.52.091 95.35-.62 100.38 2.072.66 3.897-.11 34.333-.17 40.035l-1.5 107.639-3.72 259.788c-.61 30.374.82 75.888-1.59 103.76-5.25-17.468-9.37-39.569-13.9-57.631-3.57-14.272-9.14-34.526-11.34-48.605-.55-19.717 3.49-141.709-.51-151.993-7.99-2.153-66.61-1.754-78.41-1.786l-152.45-.939-418.935-2.627-166.641-.282c-42.12-.05-84.171.266-126.29.677-4.871.047-9.828.861-14.478 2.271-5.512 5.522-3.813 26.605-3.817 35.086q-.15 19.433-.529 38.862c-13.728 11.229-16.802 26.631-9.596 42.708-9.722 5.787-12.331 7.74-19.287 16.603l-.302-229.631.023-102.748c.02-19.631-.628-42.834.325-62.027"/><path d="M583.464 282.243c6.666-.856 25.226-.373 32.748-.351l62.352.172 219.119.833 495.117 1.035c26.44-.129 52.88-.086 79.33.129 12.6-.016 55.86-1.418 65.31 1.886 5.11 6.783 4.27 24.87 4.08 33.507-.5 22.855-.98 45.684-1.25 68.546l-1.25 63.961c-.12 10.912 1.81 28.612-2.11 39.046-.98 2.615-3.22 2.899-5.66 3.592-4.68.296-9.54-.341-14.24-.244-34.54.719-68.84-.479-103.32-1.08L1223 491.736l-319.5-.786c-53.35.014-111.729 1.493-164.248 0a7669 7669 0 0 0-102.196-1.736c-16.339-.207-32.7-.183-49.018-.712-6.223-.202-10.354-2.1-10.648-9.056-.523-12.37.009-24.984.236-37.366l1.087-67.258.954-57.497c.154-8.762-1.199-28.696 3.797-35.082"/><path fill="#fefefe" d="M595.348 296.15c19.15 2.396 52.668.108 73.073.507a8614 8614 0 0 0 235.985 1.145 44105 44105 0 0 0 620.724 1.281c.06 20.793-.88 173.774-3.84 178.591-9.37 1.538-14.45-11.88-19.67-18.821-31.61-42.026-50.18-98.238-102.13-120.246-7.83-3.319-12.42-3.385-20.01.04-28.89 15.132-51.01 39.487-64.57 68.784-8.86 19.152-14.17 33.579-30.12 48.748-6.64 6.313-14.94 13.202-20.83 20.099l-.77.921c-8.6-.773-27.19-.176-36.51-.198l-81.8-.139-302.079-1.004c-38.651-25.692-37.57-61.932-58.126-97.7-10.685-18.592-33.593-36.653-54.961-41.607-56.671 13.387-99.055 98.997-136.955 142.743-1.48-24.055.649-58.547.872-83.866.026-23.109.382-46.217 1.068-69.316.211-8.935-.233-21.617.649-29.962"/><path d="M1053.2 309.4a100.83 100.83 0 0 1 55.31 10.062c14.91 7.306 27.95 19.566 32.8 35.785 16.65 55.74-22.48 101.542-72.73 118.154-28.94-2.327-31.4-4.294-54.9-22.283-36.191-27.695-50.003-76.949-20.399-114.649 13.979-17.804 38.299-24.877 59.919-27.069"/><path fill="#fefefe" d="M1062.38 319.476c15.95-.646 38.83 5.469 51.76 15.009 15.35 11.329 19.23 24.106 21.95 41.807-10.89-12.859-17.85-22.861-35.9-26.719-13.29-2.841-23.68 1.282-34.62 8.613-9.92 4.674-28.86-31.987-76.669 13.133 7.967-38.966 37.669-49.329 73.479-51.843m-49.61 58.021c12.55-1.289 32.1 8.301 23.11 22.798-4.31 6.948-23.33 8.719-24.67-3.932 3.79-5.543 12.15 3.744 20.05-.099 7.21-15.25-29.9-17.33-38.175-5.554-.053 3.552-.48 2.222 1.312 5.21 7.913 3.827 7.053 7.953 9.223 16.102 4.98 3.176 7.07 4.157 12.53 6.496 8.69 1.83 21.96-4.405 28.16-10.568-.16 7.862 1.66 26.02.13 30.516-4.78 6.306-12.27 6.315-20.29 7.774a88 88 0 0 1-5.36-3.694c-19.385-14.673-28.388-32.449-31.588-56.177 8.754-7.161 14.418-8.428 25.568-8.872m92.35-.137c16.82.032 34.02 9.357 25.84 28.786-7.37 17.52-18.08 32.721-35.71 40.822-8.4-1.77-14.42-4.265-22.41-7.306 3.78-13.938-.89-20.699.63-32.784l1.05.456c4.49 4.28 2.36 2.21 8.07 5.446 17 9.63 47.11 5.021 40.78-19.977-2.2-8.649-24.36-13.222-32.21-6.949-9.58 7.647-3.4 10.165-4.73 17.285l-1.39.519c-4.11-4.1-6.33-12.681-2.57-17.642 5.05-6.67 15.06-7.547 22.65-8.656"/><path fill="#fefefe" d="M1063.17 377.578c18.17-18.502 26.66-24.398 50.9-11.357-21.65-.745-33.33-.385-45.08 19.51-7.47 16.581-5.24 28.156-6.05 45.778-.08 1.839-1.98 2.56-3.43 3.487-14.81-1.846 13.64-67.636-47.54-69.16 7.03-3.532 9.89-4.865 17.47-6.797.75.019 1.51.048 2.27.086 15.22.765 21.89 7.91 31.46 18.453m-3.26 72.726c6.94-1 12.53 3.816 21.42 6.382-8.76 3.864-11.19 4.12-20.86 4.286-8.27.502-15.92-2.411-23.63-5.093 8.07-2.223 14.8-4.126 23.07-5.575m37.62-56.326c6.5-.471 11.96-.432 15.7 5.787-1.16 2.793-.6 1.846-3.45 3.763-5.28 1.488-11.77 4.296-14.87-1.669.18-3.906.63-4.471 2.62-7.881m291.58-46.127c37.46 15.904 56.03 39.489 74.03 75.394-28.05 5.946-39.29 8.325-67.92 8.566-26.74.161-49.01-1.045-75.07-6.554 1.33-5.447 3.06-9.836 5.75-14.776 15.25-27.955 33.13-50.156 63.21-62.63"/><path d="M1383.21 373.151c18.53-1.068 26.91 3.976 31.02 22.817-2.58 12.795-5.37 17.642-17.53 22.784-35.12 2.346-42.19-29.242-13.49-45.601"/><path fill="#fefefe" d="M1388.08 383.72c6.6-1.023 12.82 3.403 14.01 9.977s-3.07 12.901-9.61 14.261c-4.39.912-8.92-.626-11.84-4.016a12.3 12.3 0 0 1-2.23-12.303 12.31 12.31 0 0 1 9.67-7.919m-659.971-34.792c37.282 13.179 51.105 40.267 62.295 75.76-29.14 1.723-43.469 5.836-74.719 3.744-1.605-.293-14.683-.911-17.912-1.208a1448 1448 0 0 1-46.146-4.916c26.564-33.569 35.604-55.675 76.482-73.38"/><path d="M722.442 373.824a22.937 22.937 0 0 1 27.99 23.157 22.934 22.934 0 0 1-45.787.971c-.874-11.344 6.701-21.613 17.797-24.128"/><path fill="#fefefe" d="M725.221 383.863c10.481-.641 21.642 13.873 5.745 22.957-18.685-.016-20.321-12.807-5.745-22.957m753.419 70.213c.75-.042 3.19.172 3.47.602 3.67 5.563 15.46 18.966 19.39 23.2-49.57.563-98.63 1.13-148.27.006-17.59-.398-36.04.121-53.48-.877a392 392 0 0 1-18.66-.876c6.94-5.732 14.94-14.484 21.41-21.161 51.55 17.565 123.89 13.699 176.14-.894m-848.445-2.428c5.959.862 12.69 2.942 19.132 3.917 52.378 7.927 104.496 9.936 156.891 1.955 3.602 4.833 11.597 13.516 15.845 18.521l-15.313-.082c-42.53.447-85.065.156-127.585-.873-22.301-.381-44.396-.17-66.709-1.031a1575 1575 0 0 0 17.739-22.407"/><path fill="#fefefe" d="M1469.79 435.392c3.52 1.738 3.79 3.362 6.29 6.956-12.14 4.743-24.22 5.938-36.88 7.957-42.9 6.84-80.02 4.317-122.56-3.344l-5.24-1.526c-3.23-12.496 17.09-6.143 23.3-5.274 45.36 6.348 90.26 4.073 135.09-4.769m-825.096-3.236c41.864 8.484 108.733 14.661 149.909 3.347 1.977 3.48 3.713 5.868 4.244 9.812l-2.083 1.299c-38.556 8.591-118.704 2.213-158.261-4.782zM489.89 1169.56c8.265-.47 16.116-.35 24.38-.29-15.141 36.82-23.948 79.69-6.365 117.15 22.677 48.32 72.243 56.42 119.417 61.25 1.416 4.42 1.509 6.89 6.416 7.23 3.294-1.75 4.14-3.69 6.214-6.82 45.337.94 100.772-9.58 145.793-15.83 54.019-7.5 109.297-12.01 161.322-29.21 42.342-14 84.303-52.58 66.803-100.88 7.55 3.35 36.32 12.08 38.83 17.99-2.2 16.37 5.85 15.16 19.9 14.85-20.5 68.64 78.82 84.51 124.77 93.47 48.15 9.87 96.83 17 145.79 21.36 3.48 4.36 5.6 8.89 11.58 8.53 2.33-3.52-.64-3.23.71-7.63 18.8-1.09 58.5 2.4 78.77 3.62 120.53 7.23 230.29-14.58 166.64-162.4 14.26 1.05 28.09.36 42.35-.1a822 822 0 0 0 31.49 30.14c-3.14 24.97-2 58.59-1.9 84.21.09 20.74 31.97 24.68 47.96 26.44 20.94 1.7 32.87 1.04 53.54-3.19a1683 1683 0 0 0 35.24 32.3c-15.06.04-30.3.95-45.45 1.12l-274.44 3.09-659.234-5.07c-192.452-1.75-386.804-9.2-579.203-7.62 20.376-16.66 45.981-41.31 64.603-60.08 23.246-.52 63.417-7.6 80.859-23.43 8.426-7.65 10.952-13.47 11.644-24.51a1470 1470 0 0 0 81.571-75.69"/><path d="M1619.92 1326.38c8.83 1.91 28.27 22.83 26.27 32.71-6.77-.34-17.21-12.9-21.22-18.28-4.22-5.68-5.64-7.32-5.05-14.43m-1170.28-6.69c3.133.58 4.117 1.41 4.946 4.28-1.794 6.52-17.491 17.75-23.339 21.52-3.466-.62-4.27-1.62-4.679-4.91 2.442-6.81 16.89-16.95 23.072-20.89m622.93 15.49c4.62.85 7.6 5.71 10.06 9.46 3.27 4.97 3.9 5.75 2.65 11.37-10.24-.88-14.97-11.7-12.71-20.83m-105.275-2.83c2.502.32 2.463.35 4.792 1.36 3.214 6.35-1.585 15.11-4.451 20.93-2.894.23-1.582.56-4.045-1.1-2.043-6.39 1.566-14.66 3.704-21.19m230.005 3.16c7.87 1.46 12.61 13.92 10.3 21.04-7.93-1.29-13.33-14.42-10.3-21.04m-378.93 1.95c3.609 1.28 3.207 1.89 3.813 4.96-1.41 6.38-5.35 10.78-9.829 15.35l-3.22-2.93c-1.877-6.33 4.989-13.29 9.236-17.38"/><path fill="#fefefe" d="M1432.2 162.535c13.15.698 36.14-.493 50.66-.37 22.13 23.116 51.13 45.482 74.43 67.813 6.92 6.628 12.53 10.731 18.56 18.547-23.8 2.136-70.19.668-95.02.537l-191.4-1.875-579.678-5.478c-8.332-.903-28.84-.241-38.569-.265l-73.707-.38c-13.562-.124-29.278.173-42.647-.934 5.713-6.337 13.65-12.843 20.055-18.84 19.508-18.268 38.568-37.242 58.601-54.913 2.675-2.36 7.899-2.265 11.386-2.212 50.114.751 102.108 1.076 152.075 1.72l147.56.851c143.094.856 286.824-3.258 429.974-3.476 19.17-.03 38.56-.235 57.72-.725M716.303 772.457c1.088.77 2.367 2.211 3.313 3.21 10.532 11.117 32.9 20.35 47.225 27.24-47.273 63.061-10.766 120.366 13.54 176.704 1.391 3.223.627 44.659.617 50.979-.336 33.42-.065 66.84.815 100.24-8.599.64-20.873.12-29.925.12l-68.901-.48c-33.577-.22-73.077 1.27-105.957-.2-13.44.27-26.884.21-40.321-.19 27.938-99.71 28.412-215.033 29.342-318.073 2.849-1.427 6.53-2.873 9.516-4.145 2.863 4.228 5.96 7.295 9.455 10.994-1.126 38.571 50.663 46.227 63.518 15.433 32.138 7 46.471 1.83 44.159-33.193 18.019-3.053 23.88-10.722 23.604-28.639m782.147 126.935c17.49.445 24.86 1.385 41.47 6.967.98 14.575.67 33.986.89 48.898.33 24.497 1.22 48.983 2.67 73.443 3.26 60.81 8.59 104.11 41.74 156.67-12.95 5.41-28.55 13.39-41.96 17-49.99 13.46-110.04 11.63-160.42 3.11-29.48-7.35-49.54-9.23-79.83-21.72 4.31-4.83 9.36-14.21 12.44-20.21 24.69-48.01 22.47-102.93 23.2-155.37.14-10.096-1.74-32.698-.18-40.441 1.61-8.005 14.48-30.914 18.88-39.442.67 4.843.76 9.524 3.15 13.74 1.78 1.388 3.26 2.725 5.87 1.944 48.17-14.458 79.95-40.587 132.08-44.589M434.861 254.545c21.748.811 44.29.33 66.15 1.266 10.842.464 21.064-.134 32.016 1.335-3.151 42.482-.309 103.022-.306 146.778l-.21 286.075.139 100.021c-.05 10.598 1.145 27.771-.148 37.662-1.291 9.869-11.163 27.026-14.764 37.353-5.327 15.277-8.777 30.112-13.354 45.523-4.835 16.281-12.402 33.157-16.059 49.747-5.723 20.455-15.235 42.175-19.872 63.165-1.692-22.41-1.563-51.976-2.678-75.346l-10.869-247.321A22968 22968 0 0 1 442.08 425.77c-2.588-55.184-6.028-116.003-7.219-171.225"/><path fill="#fefefe" d="M1588 266.361c4.56-.334 9.51-.377 14.09-.263 23.47.583 47.69-.733 71.08.604l-28.89 562.844-11.24 221.274c-1.55 34.37-3.96 70.8-4.17 105-9.66.33-22.7-.63-33.12-.64l-14.69.13c-6.29-11.43-9.38-19.85-13.45-32.11 85.78-95.47 65.78-101.75 26.5-215.994 11.47-22.505-11.88-62.77-12.03-86.362-.23-35.068.11-70.461.43-105.517l3.46-245.565 1.72-140.304.13-39.501c-.04-5.966-.63-18.583.18-23.596M594.201 530.248c18.287-1.287 48.965-.283 68.044-.23l123.918.262c19.884.047 40.863.799 60.607.182l-2.073 336.186c-5.839-14.106-13.802-30.861-24.104-41.962-28.414-30.577-78.331-34.832-95.669-60.109 20.736-9.726 17.641-27.094 16.362-46.692 18.107-12.169 25.325-28.445 6.743-44.829 9.406-17.627 12.618-41.577-6.858-54.418-2.998-1.977-9.951-1.899-12.012-4.635 8.771-34.939-33.234-57.688-58.502-32.972l-.676-.725c-22.629-23.804-44.884-10.744-60.413 5.581-.02.021-14.552-1.017-16.695-1.057 1.349-15.469 1.091-38.482 1.328-54.582m671.059 1.604c7.83 2.295 48.18.862 58.51 1.011 67.12.97 133.99.072 201.16 1.523.29 31.395-1.98 60.492-1 92.958-13.79-22.069-33.28-45.793-58.88-53.569-62.62-19.019-130.05 5.475-125.72 79.643.93 8.069 2.93 15.561 4.84 23.443-13.71 39.181 10.3 28.112 11.64 48.472.31 4.794-1.74 8.952-3.41 13.324-5.5 14.477-5.33 25.243-2.03 40.211-32.2 16.172-56.68 30.268-75.18 62.887-3.63 6.41-11.46 25.054-13.65 28 .11.232 2.64-317.943 3.72-337.903"/><path fill="#fefefe" d="M1139.04 1154.73c32.06-44.6 66.16-96.97 88.14-148.04 23.67-54.982 34.88-124.016 67.07-175.332 11.66-18.603 47.69-36.626 68.08-46.491 15.32 18.908 20.79 32.36 20.69 57.444-.09 21.847-4.59 37.972-14.27 57.385l-9.53 3.706-.72 1.007c-6.75 9.524-21.06 41.061-26.64 52.56a878 878 0 0 1-28.68 52.961c-37.8 65.67-87.12 108.97-144.36 156.88-14.38 12.03-26.54 28.68-41.58 40.01-4.19 3.23-7.2.21-16.83 6.88l-1.74-.58c3.32-6.35 9.65-11.51 11.91-17.41l-.6-.82c-12.22 3.38-41.43 29.24-49.08 28.96l-.39-.98c7.57-6.52 45.57-31.24 49.24-38.36l-.68-2.17c-9.06 3.38-23.1 13.54-33.25 18.43l.42-1.07-.2 1.03c2.08-5.44 24.31-17.31 30.54-20.62 3.87-2.24 8.56-4.37 10.84-8.09l.18-2.28c-4.79-3.66-12.47-.22-18.04 1.25 10.63-7.3 27.05-12.61 39.48-16.26m-362.3-346.967c14.287 4.96 28.703 13.444 38.017 25.604 16.56 20.508 21.433 45.445 30.828 68.982 15.948 39.955 27.712 81.768 45.335 120.871 5.138 9.12 15.387 16.35 21.295 24.7 26.408 37.29 51.717 69.44 84.571 101.27 8.864 1.64 16.734 3.38 25.064 6.89 9.08 4.18 18.33 7.97 25.99 14.46-11.69-3.94-16.91-6.84-28.06-11.99l-2.16 2.18c.4 7.62 25.23 19.37 32.77 26.7-6.39-2.53-19.9-9.06-25.97-7.67l-.96 1.64c1.92 2.18 11.43 6.91 14.54 8.58l-1.6 1.68c-4.64-2.02-10.53-5.46-15.06-3.81l.2 1.84c4.51 4.85 13.58 9.46 19.63 12.93-11.41-4.15-20.15-7.17-30.43-14.07-18.522-12.44-34.518-30.36-51.653-43.63-12.182-8.81-24.151-16.51-36.572-25.13-32.692-22.71-67.206-47.21-92.819-77.95-6.648-9.37-12.496-19.28-18.268-29.28-24.122-41.81-50.517-89.188-56.243-137.822-2.685-22.796 6.91-50.041 21.555-66.975m1011.18 281.597c5.27-.77 11.27-.61 16.7-.15 21.48 1.86 48.3-3.18 67.68 7.51 14.33 7.91 11.79 29.58 11.82 43.65.1 20.98-.12 41.95-.67 62.92-.47 27.94-.6 55.88-1.83 83.8-1.08 24.54-10.77 31-33.39 35.65-13.09 2.16-23.8 3.37-37.01 3.3-5.79-3.64-9.96-6.75-15.34-10.86 0-22.18.09-44.76.03-66.69-.04-14.18-.97-39.01-13.6-47.21-4.18-2.72-10.01-5.92-14.04-7.97-2.54-1.29-1.64-14-2.98-16.82-2.05-4.31-5.46-7.76-8.97-11.11.86-9.56.68-20.93.8-30.51.35-27.88.1-41.58 30.8-45.51"/><path d="M1781.21 1105.06c23.52.22 48.16 2.37 71.88 2.1 3.77-.04 11.68.91 11.55 5.6-2.11 2.39-3.64 2.64-6.73 3.84-12.11 2.99-84.86 6.89-83.71-7.02 2.54-3 3.2-3.01 7.01-4.52"/><path fill="#fefefe" d="M325.637 1075.91c19.972.34 55.637 4.31 62.822 27.43 3.613 11.63 2.245 29.36 3.227 41.91 2.606 33.29.925 68.89 4.544 101.94-13.861 32.28-78.885 35.7-109.115 30.89.15-10.33-.188-21.24-.354-31.62-.179-4.61-.093-10.45-.635-14.97-5.352-44.54 10.538-84.36-47.67-90.88 2.898-7.45 6.737-19.24 1.682-26.22-17.282-23.89 31.653-32.22 47.943-34.4 5.474 2.88 8.546 3.06 14.707 4.03-4.921 1.99-14.17 4.85-16.291 9.13l.72 1.84c3.577 3.42 7.356 4.95 12.291 5.08 3.73-2.14 3.933-4.39 5.906-8.85l2.16-1.2c5.688 2.99 10.264 6.88 16.612 7.79 2.812-.88 1.924-.02 3.145-2.16.189-3.41.204-3.87-1.104-7.01-3.095-3.08-6.086-3.82-10.15-5.28z"/><path d="M358.717 1105.48c1.953-.06 3.391.31 5.324.63 2.733 2.36 1.893 1.17 2.933 4.71-2.438 6.92-12.383 7.21-19.006 7.72-28.016 2.15-57.081 2.32-84.902-1.64-3.334-.15-7.61-.7-10.323-2.63-.932-3.07-.885-1.55-.01-4.75 7.175-5.63 31.979-2.66 42.444-2.52 21.192.45 42.394-.06 63.54-1.52"/><path fill="#fefefe" d="M228.278 1151.12c6.892.64 14.227 1.21 20.896 3.09 6.932 1.96 13.606 6.07 16.984 12.66 5.563 10.84 10.552 106.07 6.271 118.35-3.98 11.42-13.352 21.26-24.21 26.41-25.833 12.25-64.143 8.14-90.468-1.23q-1.906-.705-3.752-1.56c-6.985-3.14-11.842-6.71-14.51-14.18-4.162-11.66-2.307-118.36 3.956-129.11 2.474-4.25 8.856-6.63 13.348-8.02 8.84-2.73 23.927-5.38 32.482-.84-.054 4.5-6.3 4.77-6.051 10.14 8.411 8.05 15.464-3.91 20.757-3.1 7.084 1.08 15.269 9.92 23.94.62 1.083-3.42 1.296-2.31.111-4.96-2.773-1.3-4.027-1.7-6.978-2.54.906-2.21 4.804-4.12 7.224-5.73"/><path d="M248.307 1169.16c4.287-.98 7.739 1.5 8.555 5.77-7.744 14.66-76.237 12.09-91.7 9.34-4.916-.98-11.849-2.42-13.122-8.33 1.545-2.09 4.104-3.37 6.694-3.28 31.416 1.07 58.47 4.22 89.573-3.5"/><path fill="#fefefe" d="M554.29 816.652c1.155 3.805.757 26.539.669 31.645-1.124 65.291-2.206 131.495-10.571 196.293-3.073 23.8-9.075 43.21-13.209 66.07-10.141-10.35-14.475-15.1-23.389-26.39-16.401-20.9-34.372-41.55-25.799-68.67 9.295-32.192 20.628-63.816 30.776-95.745 9.627-30.288 20.688-78.189 41.523-103.203m995.75 93.648c11.89 2.38 22.9 5.827 34.54 2.979 13.08 26.28 29.44 72.643 32.82 101.611 2.7 23.15-11.54 47.44-26.29 64.78-8.8 11.54-18.46 21.8-28.26 32.47-11.39-58.42-13.02-141.004-12.81-201.84m156.89 295.62c4.91-.52 20.18 6.74 22.66 10.2-7.27 1.64-29.49-2.99-31.84 3.81 6.63 11.02 72.5 11.67 77.66 2.02-5.56-7.5-28.5-4.6-37.76-4.87 7.48-3.65 14.75-7.61 22.08-11.55 7.77 3.44 12.33 5.41 18.61 11.12 3.72 11.1 3.48 22.94 3.57 34.6 1.43 5.72-.27 51.73-.59 59.54-20.49 9.25-62.07 10.81-83.28 3.53-4.12-1.42-8.57-3.66-10.38-7.87-4.66-10.81-.95-76.17 3.49-87.7 2.77-7.18 9.2-9.97 15.78-12.83m-564.45-168.45c19.04.48 39.85-.11 59.16-.02l-15.18 26.25c-68.48 1-138.12.29-206.71.24-13.552.02-30.075.47-43.317-.86-5.845-6.45-12.752-15.77-18.246-22.8 11.313 1.07 29.939.04 41.9-.04 28.974.1 57.953-.15 86.913-.75l66.62-1.03c6.85-.13 23.18.24 28.86-.99m-35.32 60.05 58.93-.33c-7.86 12.37-19.28 30.09-29.08 40.65-14.22-1.24-33.45-.24-48.08-.29-19.92-.06-40.31-.4-60.18-.05l-28.34-.54c-14.769-10.93-23.762-21-34.311-35.95 15.989 1.63 50.391-.42 67.561-1.14zm-59.53-243.377c9.2-.372 14.06 4.626 14.41 13.472 1.95 48.474.26 99.884 2.85 148.185l-14.91.45-14.32.61c-1.74-46.075.47-92.067.49-138.148 0-12.379.9-17.604 11.48-24.569M873.916 1100.51c7.639 1.66 49.164 31.87 59.554 38.61-26.702-.9-53.309.49-80.22-.81-19.368.45-39.477.04-59.355.51a401 401 0 0 1-.322-37.51c21.098-.28 62.229 1.21 80.343-.8m433.324-5.05c6.11-.06 12.99.35 19.16.59-2.68 14.12-5.43 26.36-9.85 40.01l-86.3-.16c-7.48-.22-14.98.2-22.46.51 14.39-12.17 28.85-29.08 41.91-39.53 14.72.53 41.9-1.06 57.54-1.42m-837.427-53c2.657 4.83 4.504 10.31 7.72 15.84 13.85 23.86 29.056 44.87 50.011 62.79-1.557 12.02-3.24 17.69-7.474 28.68l-1.714 3.24c-5.849 2.64-36.737 1.6-44.295.94-2.738-34.19-2.165-75.39-4.248-111.49m-163.665-80.973c12.149 11.961 24.344 62.793 22.243 80.013-1.772 14.51-4.966 18.02-15.476 26.94-.728-4.25-1.366-8.18-1.63-12.51-.453-7.4 3.816-19.06.306-25.08-3.42-1.02-2.078-.86-5.863.24-8.368 9.18-5.708 26.82-5.221 38.94-10.896-7.42-21.816-18.1-21.436-31.96.506-18.53 14.638-63.82 27.077-76.583m-20.184 329.853 11.675 2.46c-21.563 21.38-45.383 41.2-65.992 63.6-2.578 2.81-1.714 5.08-1.19 8.38 40.896.85 84.893.42 125.921.56l225.072.99 512.88 4.51c3.4.05 18.65-.01 20.96 1.3-13.63 3.34-57.63 1.13-74.64 1.01l-157.15-1.06-404-3.11c-53.199-.81-106.404-1.21-159.609-1.19-30.984-.2-59.08-.88-90.203-.11-6.276.4-12.889 1.08-19.187 1.61 11.156-13.17 24.56-24.13 36.432-36.61 13.625-14.33 28.541-25.42 39.031-42.34m895.046-298.943c8.98-1.218 32.76-.429 42.76-.286-2.81 6.149-7.96 18.149-11.23 23.449-20.55-.06-47.7 1.53-67.32.65-16.37-.29-26.69 1.66-44.03-.61-.43-7.93.16-13.76.81-21.604 21.49.002 59.03.932 79.01-1.599m-205.385 1.065.197-.029c27.958-.829 30.028-4.512 30.788 22.127-7.922.79-21.012.65-29.421.79-18.415.41-36.834.58-55.254.53-7.651.14-15.305.03-22.949-.32-3.279-5.76-6.887-15.1-9.467-21.379 29.339-2.28 57.805 1.071 86.106-1.719m848.555-.864c3.3 3.452 12.37 24.412 14.8 29.992 4.38 11 6.93 23.63 1.9 34.84-2.68 6-9.78 15.87-17 11.84-2.44-6.53 1.83-13.29 3.33-21.43-.44-.76-1.6-2.24-2.18-3.02-7.84-1.67-11.87 14.29-13.62 20.34-25.49-24.93.4-47.12 12.77-72.562m-550.57 154.262c10.06-1.17 22.24-.99 32.42-.67-4.75.95-9.35 1.99-14.18 2.38-26.04 4.3-45.74 3.67-61.88 25.01-20.33-3.06-37.12-5.25-57.75-6.76 9.39-7.14 16.9-13.09 25.75-20.85 25.87.91 49.89.58 75.64.89"/><path fill="#d4d6d5" d="M1273.61 1146.86c10.06-1.17 22.24-.99 32.42-.67-4.75.95-9.35 1.99-14.18 2.38-3.38-2.04-13-1.36-18.24-1.71"/><path fill="#fefefe" d="M1082.06 1147.47c6.31.86 35.56.04 43.76 0-10.32 4.67-33.67 14.31-38.33 24.12-6.43 13.52-.26 8.07-14.91 18.92l-.71.06c-3.24-1.57-11.22-8.73-12.75-11.92 1.6-3 2.4-3.91 2.53-7.19-4.83-10.27-24.26-19.12-34.51-23.38 17.85-1.12 36.59.7 54.92-.61M548.225 710.816c4.854 6.417 8.195 9.052 14.611 13.827-10.856 30.042.575 35.833 21.669 53.766-2.933 5.481-5.635 12.62-8.034 18.47-10.629 5.456-14.88 4.645-27.483 12.703.192-26.074 1.392-74.113-.763-98.766M207.796 1081.6c5.933 4.05 17.533 31.38 20.9 38.57.528 1.13 1 7.05 1.108 8.7-5.093 10.44-7.494 12.58-17.759 17.63-.575-11.79 1.829-13.52 2.201-24.54.059-1.75-3.012-3.43-4.607-4.58-11.51 9.11-10.312 17-8.433 30.1-7.168-4.41-15.215-8.87-17.317-17.84-3.827-16.33 15.1-34.4 23.907-48.04m847.044-319.787.51.435c15.58 13.64 20.07 26.11 22.58 46.594 1.65 13.474-10.58 33.218-24.41 33.608-5.45-2.349-6.82-8.159-6.14-13.744 6.55-8.212 35.63 12.197 15.68-42.564-.69-1.761-1.42-3.502-2.2-5.223-1.42-3.051-2.31-4.238-5.31-5.338-10.06 4.103-25.78 37.023-20.9 50.113l2.94 7.752c-2.2 1.933-.91 1.41-4.1 1.307-25.58-15.108 7.41-60.495 21.35-72.94m88.2 91.676c32.58 8.34 42.72 84.243 15.92 81.234l-.87-1.512c2.29-4.182 6.08-6.674 6.96-11.532 3.03-16.82-5.18-37.506-13.2-51.729-1.94-2.427-1.83-2.416-4.42-4.056-13.3 2.515-17.93 42.046-15.17 53.664 1.11 4.658 6.66 13.225 6.64 15.353-3.79.644-8.48.507-10.67-2.827-11.45-17.434-4.61-51.395 6.25-68.093 2.67-4.105 5.78-7.463 8.56-10.502m-184.857 8.339c20.085 9.933 21.345 69.537 6.494 70.852-1.382-4.534-1.197-13.808-.29-18.559 3.072-16.104 1.212-27.894-4.808-42.954-3.903 3.379-7.526 7.947-10.896 11.935-5.549 8.679-16.009 23.132-16.084 33.822-.042 5.996 3.454 13.134 4.532 19.176l-1.667 2.354-2.375.315c-21.257-10.553-1.388-48.736 9.074-60.572 6.422-7.266 7.642-10.679 16.02-16.369m-85.054 286.732c15.416.7 57.891.93 72.805-.36 3.996 2.48 8.577 4.9 11.555 8.39l-1.172-1.33-1.339 2.03c-9.068-1.27-13.773-1.07-22.825-.83-22.787.98-49.576 9.05-71 10.97-4.784-6.62-7.173-11.4-10.8-18.55 7.055-.4 15.604-.25 22.776-.32M1621.4 191.711c8.53-17.074 11.39-17.795 29.24-24.6l.58.218c16.6 6.428 13.46 9.754 21.99 25.201-2.88 5.104-5.66 11.774-8.11 17.207-6.78-35.18-28.77-26.237-36.23 2.149.22 4.614 1.07 13.355.29 17.463-2.07-2.535-2.47-8.004-2.92-11.454-.68-10.767-.64-16.064-4.84-26.184m-317.27 964.619 2.45.23c1.39 5.98-13.08 22.56-17.16 27.64-12.43-2.1-23.63-6.16-36.18-7.81-3.83-.56-8.37-1.9-12.17-2.89 15.48-11.88 43.22-13.91 63.06-17.17m223.49-997.869c5.3-.546 29.92.069 34.75.994-11.68 9.308-12.92 9.01-15.03 25.344-.55 4.313.51 5.719-.67 10.606l-1.49-.234c-11.1-7.6-31.19-26.561-41.19-35.879 7.13-.306 16.81.035 23.63-.831m135.84-.228c12.03.568 25.1-.155 37.27-.024 20.01.216 38.12.629 58.18-.887-6.51 6.563-13.16 12.971-18.93 20.189-2.42-.314-12.74-14.959-25.19-14.468-13.88.549-24.43 8.887-33.74 18.195-6.54-11.339-7.11-15.101-18.66-21.696zM952.571 945.755c11.2 4.453 8.213 27.035 9.449 37.675-7.823-.371-16.386-.234-24.27-.267-3.727.054-2.714.608-4.837-1.393-1.283-7.904.395-23.872 1.021-32.43 7.227-1.33 14.079.046 18.637-3.585m-157.837 93.735c8.891-.94 11.814-.63 20.415 1.78 2.745 3.2 22.959 24.76 23 26.77l-1.926-.12c-11.854 1.37-31.115.46-43.556.18.015-6.12-.917-24.5 2.067-28.61m501.506-.27c11.14-.01 22.28.17 33.41.52-.12 7.17 1.27 18.9-4.75 22.97-3.07.18-5.07.35-8.1-.53-12.38.41-24.77.5-37.16.26 5.82-8.3 9.82-15.43 16.6-23.22m-154.09-92.963c7.86-.174 16.38-1.272 23.22 2.351 4.36 4.861 2.66 25.694 2.8 34.157-8.58.229-17.77.098-26.41.128-.02-12.187-.16-24.47.39-36.636M471.715 163.88c5.575 1.396 7.134 2.424 12.167 5.293 2.644 3.926 4.413 8.265 6.367 12.583-2.75 6.955-4.901 19.077-6.247 21.674l-1.266-.182-3.265-4.968c-8.442-9.177-14.043-7.932-24.756-4.934 2.409-14.319 3.547-22.254 17-29.466m358.677 991.29c8.679-2.69 14.966 10.36 18.601 16.51-9.903 4.04-19.42 5.33-29.928 7.34-8.103.12-20.65-4.75-17.245-14.2 5.486-5.41 20.37-7.72 28.572-9.65m742.898-984.039c28.25-2.396 37.66 33.515 41.16 54.782l-9.76-14.41c-4.08-6.624-15.18-27.132-22.19-30.295-1.77-.802-3.36.682-5.15 1.727-2.36 4.252-3.21 4.273-7.99 4.355-4.06.07-6.93 1.749-10.03-.87-1.75-7.549 7.66-13.274 13.96-15.289M349.234 154.999c9.856-.12 107.039 3.161 108.53 4.119l-.873 2.304c-6.717 4.536-7.671-.99-18.481-.586l-1.248.056c-7.415 1.596-9.798 3.106-16.114 7.044-18.925-15.795-36.669-12.572-46.782 10.544-7.672-8.193-16.605-16.089-25.032-23.481m213.696 7.077c15.444-.139 36.462 1.004 51.824 2.08l-11.349 9.765c-14.61 14.478-15.746 5.271-35.088 7.348 1.147-9.113 2.27-12.89-5.387-19.193m553.7 1210.314c11.72-1.05 30.64-.24 42.87-.22l91.9.84c20.44.18 41.07.35 61.51.72 20.14.36 47.83-1.13 67.38 1.77-19.12 1.19-44.63.46-64.3.41l-102.55-.31-69.96-.66c-4.91-.08-22.27.13-25.89-.3zm245.24-696.436c20.05 3.26 11.88 35.024 2.22 39.484-3.02-5.071-6.83-7.975-10.39-12.418-8.17-10.167-1.21-21.182 8.17-27.066m379.47 486.656c1.47 1.29 12.62 18.38 12.92 21.57.41 4.31 1 8.73-1.4 12.77-6.01.63-7.59-19.09-18.21-17.5-5.26 5.74-7.87 12.98-13.34 17.46l-1.85-.21c-5.1-8.46 15.64-28.34 21.88-34.09M737.511 681.921c6.549-.623 8.358 3.794 9.817 9.262 2.791 10.46-7.274 12.966-13.355 19.306l-.724.763c-13.507-3.661-11.745-14.443-5.799-23.94zM1819.7 1374.61c3.59-1.69 4.57-1.85 6.65-5.23 1.31-14.97-36.75-33.92-38.13-43.05 6.98 2.18 51.88 42.91 53.66 50.35-4.19 1.19-15.37.45-20.46.44l-57.32.02.36-1.22 3.6-.92c17.29.45 32.87-1.41 51.64-.39m-216.19-204.16c10.51-.8 23.65.17 35.11-.42 8.53 9.48 33.12 26.4 40.25 36.97l-.36 1.25c-4.22-.4-2.92-.3-6.82-3.39-8.53-6.88-18.77-18.84-25.99-27.09-12.56-1.36-46.34 1.1-54.92-4.06l-.35-1.59c3.72-1.77 8.78-1.5 13.08-1.67m-2.17-1012.062c12.6-.194 23.9 1.509 36.5-.419-12.53 6.363-15.14 8.891-23.22 20.489l-1.36 1.325c-3.88-2.08-4.84-4.406-8.13-7.189-9.41-7.955-13.02-10.402-24.67-13.477 6.84-.129 14.1-.12 20.88-.729"/><path fill="#fefefe" d="M1711.81 175.874c13.32.444 18.06 14.127 10.5 23.25-3.07 1.484-1.62 1.438-4.42.911-.85-3.005-1.21-3.52-3.34-5.811-8.88-5.96-14.32-4.53-24.46-2.987 8.32-7.634 11.67-10.307 21.72-15.363M470.866 1169.04l.473.51c-.998 4.35-54.706 52.09-62.45 59.14l-.455-.29c-2.77-4.92 2.049-9.19 5.496-12.06 17.748-14.78 37.313-35.6 56.936-47.3M1570 197l2.02.203c12.41 7.974 14.5 12.749 23.32 24.864-4.5-3.148-9.91-6.262-14.66-9.14-2.84-1.23-2.7-1.149-5.83-1.025-3.09 1.72-3.71 3.642-5.44 6.789-11.66-8.863-18.56-16.081.59-21.691M396.477 170.033c11.533-.632 15.271 3.309 20.605 12.61-2.391 2.346-3.355 3.641-5.353 6.347l-1.242.065c-8.195-4.77-16.301-5.545-22.524-10.85-.975-.831-.366-1.721.011-3.349 2.98-3.114 4.551-3.419 8.503-4.823m1250.473 29.362c12.95 4.579 1.99 28.444-1.09 36.366l-1.11.675-1.15-1.118c-2.84-15.195-5.43-23.101 3.35-35.923M516.449 175.786c4.972.093 9.078 2.987 9.56 8.346.723 8.041-3.473 12.975-8.114 18.999l-1.011.613-1.133-1.161c-.775-9.312-6.022-14.536-5.538-19.842 1.729-3.757 3.023-4.391 6.236-6.955m28.713-6.682c5.037-.424 8.047-1.214 11.451 3.123.964 8.828-4.956 10.235-11.807 12.794-1.922 1.032-2.171 1.049-4.298 1.628-3.277-2.668-3.798-7.778-4.898-12.234 2.922-2.041 6.362-3.665 9.552-5.311m-55.726-9.33c8.271.148 36.97.201 42.967 1.674l-.014 1.302c-2.829 2.103-3.436 3-6.734 2.972-12.51-4.096-16.823 1.204-25.912 8.617-3.559-5.765-5.697-9.487-10.307-14.565m1211.444 43.337 2.17.603c.59 6.963-22.63 22.134-28.58 26.489l-1.72.703c.03-2.007 2.13-5.652 3.32-7.29 8.98-12.416 9.48-16.897 24.81-20.505m-1148.888-9.278c1.987.065 1.126-.276 2.622 1.155.191 4.291-1.617 8.063-3.106 12.198-6.114 3.818-7.963 5.414-12.883 10.692l-.785.655c-1.176-2.242.927-13.214 1.402-16.678 3.727-2.819 8.667-5.588 12.75-8.022m-112.688-22.792c3.074.335 3.25.289 5.827 1.867 2.955 5.045 3.91 9.738-.447 14.092-3.041-.04-2.594-.543-5.641-2.941l-1.213-.46c-4.683-1.788-6.777-1.936-8.723-6.323 2.389-4.235 5.514-4.732 10.197-6.235m59.716 22.605c4.955 4.998 5.91 14.076 6.692 20.644l-6.862 12.983c-1.444 1.608-1.332 1.506-3.328 2.351-.372-1.353 3.226-31.905 3.498-35.978m-73.954-2.066c6.326 1.106 9.45 4.068 14.561 7.887-2.241 3.897-3.12 6.397-4.718 10.579-.535.677-.124.295-1.553.646-3.285-3.53-6.748-7.297-9.113-11.598-1.665-3.03-.428-4.255.823-7.514m-34.883 2.127c12.88 1.308 22.988 6.657 23.044 20.879-10.557-7.846-13.868-11.396-23.044-20.879m74.7 7.909c10.262 1.894 8.381 12.112 2.614 18.6-.042-.044-8.474-15.622-8.499-15.902zm108.241-9.619c3.835.13 4.598-.013 8.113 1.277l.601 1.387c-2.036 3.496-7.672 6.926-11.198 9.425l-3.591 2.266-1.396-.836c-.896-6.944 1.595-10.827 7.471-13.519m1006.326 32.758c5.54 2.155 21.39 15.671 23.2 21.085-8.34-2.613-15.29-9.691-21.74-15.458-2.22-1.987-1.56-2.74-1.46-5.627M446.694 210.448c8.026 2.908 9.544 14.726 9.141 22.08-6.368-2.259-8.931-16.036-9.141-22.08m77.83 5.285c.836 5.159-1.116 12.229-4.962 15.957-2.889 2.801-3.774 2.164-7.599 2.223-.139-1.028 10.79-15.607 12.561-18.18"/><path fill="#9e9da0" d="M1734.9 1376.01c5.11-1.74 26.32-1.08 33.16-1.01l-3.6.92-.36 1.22c-8.7.18-31.63.56-39.57-.4 3.83-1.32 6.33-.9 10.37-.73"/><path fill="#515254" d="M1734.9 1376.01c5.11-1.74 26.32-1.08 33.16-1.01l-3.6.92c-9.57.25-19.92.07-29.56.09"/><path fill="#fefefe" d="m1689.78 232.076.67.64c-3.99 7.011-8.64 13.459-16.87 14.858-.72-.663-.36-.192-.67-1.64 6.01-5.339 10.33-9.031 16.87-13.858m-1208.063-9.311c1.527 7.094-3.035 12.374-8.908 15.582-1.482-6.708 4.521-11.094 8.908-15.582"/><path fill="#d4d6d5" d="M1038 1189.98c7.13 3.83 15.53 8.07 22.35 12.26-9.5-2.73-15.39-5.6-23.95-10.58z"/><path fill="#fefefe" d="M427.3 220.584c5.676 4.225 9.333 10.581 12.181 16.889-6.397-3.048-9.038-10.491-12.181-16.889"/><path fill="#515254" d="M1419.05 1374.57c5.46-.73 10.78-1.35 15.9.94-5.46.74-10.85 1.48-15.9-.94m288.58.93c4.81-.75 8.6-.72 13.14 1.02-4.84.62-9.04 1.58-13.14-1.02"/></svg>