<svg xmlns="http://www.w3.org/2000/svg" preserveAspectRatio="xMidYMid meet" viewBox="0 0 2048 1462"><path d="M1574.51 806.507c7.63-5.261 15.73-11.587 25.49-10.613 6.95 5.103 19.51-6.001 26.53 10.745.54 1.269.25.817 1.23 1.796.32-4.265-2.56-6.611-2.5-9.453.14-6.527.12-12.228-.31-18.781a2021 2021 0 0 0-4.72-56.586c-4.07-43.228-15.19-89.933-27.48-131.496-2.28-7.715-3.45-24.76-9.16-28.873-14.05-3.34-28.73 8.752-42.91-.218.04.029-8.21 2.272-9.13 1.703-29.52-10.006-66.4-24.601-66.64-61.502-.06-8.212 1.3-12.336 2.44-19.92.87-5.87 8.12-17.008 7.88-18.932-4.79-6.634-11.63-8.858-16.88-13.994-9.95-9.729-33.58-28.023-26.09-43.25-1.26-2.486-5.69-8.869-4.15-12.612 5.13-12.485-4.21-22.285 5.75-35.77 1.46-1.979-.04-6.812 4.08-9.478 10.51-13.936 4.49-14.853 23.45-22.084 4.82-1.841 23.86-5.746 23-9.756-.27-3.991-3.59-10.708-3.6-14.435-.01-2.19 2.5-5.102 2.84-9.097.99-11.564.88-27.794 9.83-35.356-.22-5.658-.76-10.609 2.59-15.437 3.15-1.713 4.7-1.933 5.08-6.096.99-10.843 6.2-12.495 10.42-19.07 10.97-17.078 23.45-32.953 46.53-34.034l2.14 2.735c5.24-.76 5.59-4.142 9.96-5.831 2.59-1.002 12.19 4.82 14.2 4.673 18.39-1.344 35.43 8.347 50.51 18.671 13.12 8.985 45.87 53.08 47.87 68.224.18 1.351.32 2.708.41 4.068l1.06 1.159 3.51-1.174c1.8-6.708 9.35-8.749 14.36-12.781 7.93-6.385 29.75-8.445 39.35-5.289l2.41 2.96c1.97-.472 2.38-.909 4.07-2 3.77.881 6.67 5.68 9.56 8.482l2.31-1.404c4.43 3.008 9.93 8.512 13.41 12.556.33.384.58 2.421.55 2.27l.18 1.169c.16 1.115.26 2.119.36 3.234 3.05 2.115 6.09 3.561 6.9 6.778l-2.33 2.599c.85 4.107 4.61 5.6 5.06 7.994 2.38 12.874 4.14 26.438 4.38 39.528.18 8.021-3.24 30.02-2.41 34.641l1.43.475c6.97-3.624 9.28-2.952 14.66 2.862-.07 3.684-23.74 42.409-27.06 46.576l-.65.827c-.13.162-.26.324-.4.486-5.98-2.578-12.66-5.816-19.11-6.835-29.97-4.739-47.53 12.052-60.82 37.166.14 2.049.16 1.933 1.04 3.808-10.35 23.675-10.84 34.77-8.41 60.632.59 6.285-1.52 11.208 2.13 16.761-3.76 12.04-35.06 9.422-35.67 15.412-4.4 43.461-13.6 86.239-16.45 129.925-.44 6.784 2.61 18.993 3 26.36 1.49 27.48 4.5 54.929 5.88 82.417.26 5.227 1.16 11.307.99 16.265l1.14 1.218c7.05-.053 13.93 5.578 15.88 4.395.33-10.533 3.7-20.576 4.12-31.363.35-9.039 1.77-18.516 2.26-27.74 1.85-35.212 4.62-70.37 8.3-105.437 1.96-17.955 4.99-35.677 6.72-53.856.95-9.899-3.04-38.557-1.33-42.663 2.99-2.216 6.06-1.991 9.9-2.299 8.55-16.35 6.67-9.745 8.01-30.251a481 481 0 0 1-2.4-3.637c.31-11.129.17-29.282 2.53-39.422 3.51-15.025 9.85-31.777 22.85-40.206 8.97-5.817 16.91-6.364 26.85-7.853 2.52 1.429 4.8 2.667 7.57 3.558 4.41 1.421 15.49 10.2 18.98 8.527 15.85-7.592 23.64-68.672 86.19-82.154 10.07-2.171 20.44-3.852 30.77-2.794 1.28 1.429 1.32 2.185 3.09 2.401 24.5 2.999 51.91 55.146 53.01 77.517 8.97 5.695 3.24 10.938 5.37 15.882 10.37 23.963 7.26 23.879 1.24 47.364.67.214 6.34.683 6.16-.226.74 3.938 12.26 6.523 14.48 7.192 28.33 30.402 23.21 61.397-5.05 89.917-5.34 5.39-18.97 14.032-25.58 18.015 6.44 5.059 10.82 14.939 11.75 22.946 1.11 9.578-2.26 17.367-8.2 24.736-13.24 16.448-29.98 23.802-50.66 26.157-6.32.72-13.38 1.269-19.76 1.021-4.12-.161-10-1.372-14.23-2.083l-3.56 1.459c-7.59-2.917-19.97-7.535-27.24-10.015-1.6-2.216-2.96-5.092-5.06-5.518-3.6 5.847-5.21 18.66-7.3 25.467-9.96 32.307-19.22 65.409-24.79 98.782-4.51 26.995-6.88 54.59-9.95 81.79-.41 3.672-1.74 6.389-1.94 10.337 4.45 1.295 5.89-.462 10.31-.233 2.87.15 7.19.936 10.11 1.464 5.98-9.439-4.37-33.74 19.97-38.59 16.07-3.201 18.08 10.686 27 13.466 15.86-4.4 23.68-1.651 35.29 9.877-2.85-12.729-4-25.755-4.89-38.74-1.1-15.995.82-28.416 14.33-38.34 9.2-.653 14.86-1.88 22.55 4.317 2.38 1.922 6.61 7.402 8.17 6.925 16-4.887 17.35-9.042 32.66 3.262 9.8 8.173 18.49 17.102 27.18 26.372.46.488 3.5.793 4.19.65 17.32-3.575 24.7 5.964 31.28 21.605-.55 3.094-1.69 9.268-2.96 11.903-8.35 17.373-35.14 45.137-50.15 56.331-4.03.438-7.15.225-9.96 2.88l-.71 1.983c1.08.413 2.06 1.035 4.85-.689 18.49-11.427 44.99-22.697 62.74-3.954.76.805-.67 3.754-1.16 4.529-18.27 29.123-40.39 47.711-76.84 38.066-1.34 4.304-2.45 8.474-4.55 12.459l.2 2.013c8.72 6.433 7.3 2.236 16.44 11.883l-.11-.11c6.2-.47 18.85-1.865 24.41-.25 31.38 9.13 4.28 57.75-11.97 69.06 12.13-1.6 42.43-3.95 47.68 10-.47 5.5-5.25 8.4-9.11 11.94-13.79 12.68-28.53 23.88-47.25 28.04-9.23 2.06-21.45-.78-30.84-2.48-2.81 16.42-17.4 105.31-24.07 113.54-15.52 6.55-145 4.69-169.37 6.15-14.72 1.35-30.35 1.17-44.95 2.54-21.48 2.01-44.39.31-65.54 1.91-83.8 6.31-167.72 3.15-251.52 5.05l-144.03 3.13c-11.15.17-21.72 3.09-32.62.42-2.8-.69-6.77-.91-9.65-.83l-277.894 7.34c-23.802.58-47.348 2.29-71.159 2.66-17.519.27-34.735-.56-52.164-.64-51.171-.23-102.306 3.58-153.462-.27-5.645-.43-13.157 1.58-18.962 1.24-19.918.02-39.907.71-59.823.71a8012 8012 0 0 1-382.228-6.78c-25.95-1.03-51.918-.68-77.82-2.16-5.33-.31-22.533-.44-23.657-7.07-2.741-16.17 13.466-39.22 12.894-54.91-2.424.58-2.732 1.37-4.778 3.18-23.17 5.42-62.884-44.65-57.642-64 5.816-7.52 28.432-.38 36.345 2.62-6.776-20.24-14.105-37.72 6.192-52.63-17.874-18.19-66.635-90.349-9.695-91.705 12.303-.293 16.812 11.903 21.206 20.725 8.897 7.09 14.278 3.39 16.625 22.3.773 11.15-.81 35.6-1.612 47.79l.855.42c3.56-4.14 3.864-41.7 4.697-49.73.539-8.51 1.211-17 2.017-25.49-23.85-16.538-47.405-52.366-52.618-80.679a72 72 0 0 1-.888-6.936c6.798-16.519 18.3-24.9 35.999-16.57a90 90 0 0 1 4.617 2.367c4.281-6.858 6.98-11.406 15.437-13.421 10.656-2.54 19.575 2.865 24.979 11.522-3.772-18.392-10.613-55.375.505-71.28a21.95 21.95 0 0 1 15.395-9.301c10.632-1.402 17.192 7.487 23.291 14.609 10.92-8.129 23.094-12.834 33.865.542 6.008 7.463 5.08 18.059 3.448 26.733-1.431 6.592 1.531 5.94 7.737 7.979 4.879 5.754 7.278 8.444 11.01 15.161 3.332.898 10.303-3.977 17.453-5.572-6.676-26.628-6.721-45.058-8.453-71.865-.567-8.774-8.304-33.102-10.727-42.526a682 682 0 0 1-11.561-53.866c-30.701 15.937-94.899 22.899-116.39-14.963-4.61-8.123-6.515-22.152-3.625-31.182q.78-2.415 1.617-4.811l8.752-7.142c-9.672-5.176-19.862-10.225-28.697-16.732-3.615-1.851-4.632-7.909-6.849-10.429-8.036-9.137-14.128-25.832-15.197-37.484-1.726-18.808 9.017-50.451 31.162-52.419 1.982-.176 4.19.405 6.591.231 2.512-3.166-2.519-18.907-1.374-24.481 4.912-23.913 13.666-47.938 23.341-70.291.068-.156 5.28-6.353 7.012-10.239 8.215-18.428 26.682-42.105 49.107-41.225 58.564 4.839 79.705 38.713 102.854 87.629 19.073-19.134 48.041-13.191 63.998 6.157 13.855 16.8 19.313 35.02 19.423 56.909.104 9.619-7.056 27.753-5.089 33.583.273.25 4.02 3.678 4.024 3.687 1.238 3.845 7.514 20.341 10.559 22.191 4.49-5.93 8.822-34.527 10.599-43.902-11.238-25.401-26.514-49.829-16.441-80.141 4.862-14.633 14.639-15.516 20.399-26.274 1.503-2.807 2.999-23.294 4.182-29.644 3.033-16.279 12.849-34.118 16.813-48.181 19.906-16.59 36.497-24.239 62.073-12.451 4.657 6.234 9.248 16.363 15.611 17.721 2.242-1.035 11.559-13.986 13.016-16.273 6.771-10.635 26.679-20.351 30.208-29.407 27.855-14.451 48.818-23.207 81.349-14.234 24.684 6.808 36.302 33.42 37.864 56.99 6.467 3.525 5.019 18.572 6.008 25.372.583 4.008 3.244 1.995 3.087 6.819.843 13.518.213 22.253 3.635 35.578-26.958 15.916-44.203 24.47-54.382 57.004-5.052 16.146.797 32.607-1.972 43.808-5.759 23.301-35.122 52.333-8.192 75.048-28.979 16.913-48.526 11.687-78.551 6.445-8.489 58.721-22.13 104.382-38.627 160.993 11.598 2.299 13.958 5.774 18.586 16.37 7.258-3.293 9.646-4.396 17.716-5.095 21.86 10.4 11.312 17.174 18.604 25.522 3.585.622 6.653-.965 10.215-2.242 5.571 2.12 8.688 3.244 13.815 6.212 15.655-58.451 23.318-126.311 57.381-178.694 5.688-8.747 13.597-16.403 21.027-23.726-13.425-2.662-21.811-1.666-34.056-7.237-18.958-26.071 1.367-44.364 9.582-69.489 3.532-10.805.744-24.332 1.46-35.552.678-12.494 7.968-28.185 15.907-37.709 6.396-7.674 19.583-13.265 27.912-18.72 24.28-16.709 46.083-20.297 74.777-15.063 45.301 8.262 65.386 35.116 59.621 80.283-.839.849-4.18 4.253-4.328 5.251-5.037 34.053 5.713 68.138-35.515 81.165.302 9.058.726 18.405.787 27.439 8.442 5.581 13.404 14.297 17.745 23.246 19.979 41.184 9.665 88.592-1.386 130.64 17.216-20.774 32.923-44.517 51.031-64.948 2.447-2.761 3.47-4.449 6.551-6.763 6.768-.295 10.01 4.51 14.815 8.716 8.614-20.459 9.82-34.481 23.512-52.676-4.702-15.768-7.491-25.78-8.444-42.341 19.409-22.715 44.102-23.203 71.742-18.982 25.344 20.108 1.026 36.311 18.2 58.828 7.43 9.741-5.747 34.532-12.642 41.134-18.062 22.397-34.318 25.279-55.812 36.879-1.714 4.217-3.138 6.565-2.17 11.074l1.332 1.778c4.4-.806 5.274-4.137 8.527-5.256 7.059-2.429 18.279-1.466 19.815 7.478 1.237 7.199-3.339 12.678-3.299 18.465 4.8.874 6.616.131 10.116 3.087 1.774 3.214 2.146 3.481 1.931 6.98-2.8 5.797-5.524 5.017-6.592 9.447 7.382 6.632 7.386 5.387 6.712 15.252 2.459 1.684 30.535 8.423 37.174 10.906-.143-15.219 2.461-54.075 29.166-32.056 1.627 1.342 4.566 5.412 6.038 7.254 6.281-6.116 8.231-6.803 16.604-9.572l9.751 6.092c4.88 10.352 5.21 12.973 3.81 24.536 6.87-4.377 38.08-24.584 44.59-24.114 6.17 4.284 12.28 17.698 16.66 24.671.31-8.011.56-16.047 4.43-23.235 10.33-19.177 19.3-11.733 29.88-.236 37.38-16.235 24.04 18.339 27.8 22.478 4.71-2.493 7.77-4.848 12.05-7.985a177.4 177.4 0 0 1 32.7 13.153c-2.71-12.437-9.52-33.391 7.52-37.774-3.98-17.353-7.11-34.288-10.41-51.674-2.62-13.808-18.15-37.357-25.91-49.75-9.24 12.958-21.79 17.182-35.04 6.521a25.1 25.1 0 0 1-9.38-17.66c-1.25-17.266 15.04-52.847 26.04-66.66 12.2-15.322 35.67-1.841 46.96 8.275 8.94 8.016 6.38 13.792 3.31 24.102 8.74 11.399 10.87 16.343 16.37 29.567 4.7 11.314 2.23 32.706 9.65 39.006 13.21-37.616 16.31-58.605 46.06-89.369-24.14-31.924-8.01-51.884-3.07-87.446 1.24-8.908-.88-17.107-1.3-25.813a64.07 64.07 0 0 1 25.84-54.401c12.59-9.35 21.37-10.858 36.36-13.529 34.59-6.164 65.66 2.657 87.66 31.399 13.73 18.396 12.91 44.13 20.95 64.632 4.9 12.481 14.95 27.281 22.39 38.374 24.83 37.016 36.61 87.903 7.37 125.897 11.33 37.315 19.8 84.881 18.65 124.081 7.09-5.515 23.52-13.496 32.01-16.981-2.57-21.936-3.36-69.935 36.16-50.981 2.78 1.332 5.08 7.043 9.31 8.328 9.41-1.698 19.68-4.588 27.85 1.726 13.79 10.664 7.71 28.185 2.32 40.215"/><path fill="#fefefe" d="M1457.9 890.977c6.5 4.845 11.22 12.629 16.71 18.058 10.34 10.233 22.02 24.236 32.6 33.793 29.61 26.755 55.64 57.902 83.95 85.542 34.17 33.36 66.56 67.5 100.06 101.45 14.62 14.83 29.09 32.97 43.81 48.25 11.89 12.35 24.94 24.87 36.46 37.35-7.62 4.57-131.71 5.41-150.25 6.66-105.93 7.13-212.83 1.72-318.92 8.35-40.02 2.51-85.58-1.7-125.33.78-74.16 4.62-147.83 1.22-221.624 6.85-25.109.32-50.82-.96-75.893-.12-72.413 2.42-144.555 3.09-216.923 1.34-40.862-.98-80.185 2.5-121.918.27-33.821-1.81-72.882 1.54-107.096.81-8.618.16-63.382-.01-68.764-1.08-6.917-.65-11.427-.64-18.412-.52 7.63-11.98 13.569-24.18 20.795-36.11 41.921-69.2 77.239-142.07 115.015-213.75a4137 4137 0 0 0 26.179-51.266c4.734-9.479 8.584-19.182 14.416-27.961 3.738.333 5.902.249 9.301 1.882 2.272 10.834-16.627 74.507-13.919 84.089 7.921 6.436 25.428-2.867 28.013 4.416 4.775 13.46 6.98 21.01 16.147 32.55a97.52 97.52 0 0 0 67.214 36.93c-7.302 5.91-26.777 20.48-25.182 31.07 1.607 10.67 16.292 9.93 24.529 8.89a238.4 238.4 0 0 0 42.621-9.69c7.701-2.49 16.155-5.78 23.811-7.94 3.508-.98 13.926-.13 17.951-.86 14.925-2.7 30.356-4.51 45.243-7.06 53.571-9.19 107.248-19.75 160.753-29.09 4.76 12.6 5.987 16.58 19.186 21.22 4.933 10.62 18.048 52.44 26.75 57.29 22.311 12.46 156.457 9.61 183.897 2.34 16.78-4.44 21.58-44.13 30.3-58.53.16-.28.34-.54.51-.81 14.16-.75 28.26-2.32 42.24-4.71 18.62 7.72 75.73 43.58 95.97 26.27 11.4-9.74-3.09-27.33-11.73-35.38 37.53-7.7 82.88-7.69 119.69-20.63 22.05-7.75 28.51-19.7 37.06-39.12 5.44-.25 11.47.3 15.29-3.318 3.1-10.742-14.38-73.821-16.42-87.946-.74-5.133-4.22-14.682-4.09-20.559"/><path fill="#fefefe" d="M638.612 628.245c3.925 1.177 16.973 3.044 21.748 3.961 17.97 3.45 36.173 6.777 54.293 9.268 9.885 1.359 19.761 1.692 29.452 3.971 15.293 24.299 21.145 45.698 19.161 74.881-.764 11.233-10.824 70.281-16.515 75.156-10.015-15.171-53.559-102.221-63.935-107.592-3.428.049-2.446-.468-4.626 1.384-1.936 8.713 18.608 38.479 23.723 47.359a2701 2701 0 0 1 40.753 73.538c-4.285 9.074-22.294 29.14-21.809 36.885 2.466 2.698 1.303 1.847 4.872 2.984 3.243-1.002 4.598-2.679 6.607-5.473 18.811-26.161 37.456-52.5 57.45-77.792 10.128-12.81 20.054-27.58 31.102-39.39l.994-1.052c14.759 12.217 29.732 29.213 42.955 43.452a84 84 0 0 1-1.74 3.04c-10.096 16.45-22.876 34.883-33.547 51.54a1819 1819 0 0 1-38.798 58.974c-7.66 11.174-15.742 24.151-25.452 33.512-14.575 14.05-39.038 18.096-56.414 7.189-36.477-22.534-69.5-119.656-90.551-157.767-3.045-5.514-6.176-16.21-13.295-16.981-1.067.945-3.709 3.233-2.915 5.001 24.752 55.133 48.194 115.959 84.389 164.69 15.141 20.386 34.525 20.576 56.922 22.077 2.092 5.742-.323 37.332-.331 46.196-5.324.349-11.039.146-16.4.216-65.648.857-131.604-1.35-197.193.159q.159-2.574.479-5.132c2.166-18.302 8.187-39.669 11.528-58.38 8.84-47.012 17.182-94.785 29.142-141.092 12.884-49.879 25.548-121.392 67.951-154.782"/><path fill="#fefefe" d="M801.791 916.761c21.789-3.002 49.954 1.596 72.124 1.643 58.733.126 136.655 17.293 101.442 94.756-18.723 6.2-39.321 5.63-53.548 22.29-3.895 4.56-1.532 4.94-3.849 7.68-11.193 3.3-29.013 6.23-40.78 8.5a3956 3956 0 0 1-71.661 13.36c-22.893 4.04-77.065 14.6-99.295 15.57 1.662-14.3.512-28.78-3.384-42.64 14.321-8.09 33.57-17.09 48.552-24.56a2405 2405 0 0 1 115.358-54.062c8.437-4.49 29.173-8.902 28.069-18.298l-1.816-1.319c-12.437-2.234-58.099 22.202-71.048 28.238-60.754 28.319-123.067 57.841-180.5 92.541-43.624-5.46-70.485-19.45-85.463-63.493 59.793 1.375 119.869-.332 179.675 1.322 4.494.124 12.61.372 16.577-1.452 2.711-8.505 1.679-46.829 3.801-60.173l.224-1.347c25.922-13.492 12.195-17.298 45.522-18.556m491.849-298.307c1.16 1.149 2.34 5.122 2.94 6.726 3 8.136 12.31 17.096 20.41 20.279 11.53 4.528 17.33 3.869 28.28-.379-10.29 72.18-7.9 147.21-19.68 219.567-1.88 11.574-4.73 27.938-4.63 39.331-16.19 4.48-27.85 14.577-45.29 11.495-16.12-2.849-32.62-4.102-48.53-8.533-1.33-2.731-.7-3.828-.45-7.178.44-14.37 3.7-23.672 6.24-36.594 1.43-11.513 1.9-23.583 3.36-35.038 3.08-24.122 5.18-48.315 8.86-72.338 1.31-8.539 6.16-23.47 1.91-31.251-3.12-1.755-1.52-1.495-4.94-.942-3.88 3.284-7.8 32.804-8.99 39.387-2.99-4.496-14.95-33.824-18.34-41.429 11.09-41.878 26.9-100.313 78.85-103.103m67.04 1.018c35.47 2.373 61.82 39.177 72.24 71.033 16.74 51.141 34.29 122.925 13.09 174.736-16.94 41.412-54.91 47.317-91.91 60.639-2.67-9.864-4.19-18.466-10.23-26.716 11.95-10.06 25.5-19.529 38.11-28.792 6.83-5.017 13.39-8.344 19.59-14.199a568 568 0 0 1-4.76-26.225c.07-1.363-1.53-12.173-1.83-14.533a3108 3108 0 0 1-4.6-37.281c-1.52-13.261-2.94-26.88-3.93-40.233-.19-2.508-2.17-3.631-3.88-4.882-3.68-.169-2.07-.652-5.03 1.382-4.15 8.745 9.95 101.277 12.5 117.508-18.07 10.416-44.54 30.651-58.48 46.446 3.73-35.955 9.82-69.594 12.58-106.847 4.15-55.896 5.85-117.421 16.54-172.036m7.42 313.878c24.48-2.092 42.89-13.98 66.14 4.991 22.92 18.697 27.37 57.381 8.76 80.429-6.13 7.6-16.43 11.95-25.55 14.59-49.79 12.76-102.94 15.6-153.94 21.83-23 2.81-48.22 7.71-70.77 9.11q-1.77.105-3.54.18l-.29-1.01c7.28-10.78 17.93-27.53 1.23-36.23-12.41-6.46-27.85-8.94-41.59-11.13-3.61-.54-13.2-1.51-15.59-2.68 4.73-4.83 136.32-42.943 151.86-46.854q30.6-7.509 61.29-14.641c8.75-2.117 17.51-4.048 26.14-6.573 6.19-1.81 5.53-5.136 2.59-9.784-6.7.219-14.83 2.486-20.6 2.204l2.01-.007-.12-.928c2.78-1.059 8.88-2.61 11.97-3.497M389.114 567.458c-.891-.231 32.537 23.365 35.856 25.637 4.27 8.166 6.801 79.625 8.228 93.292 4.289 41.079-13.265 90.787-5.604 132.52a86 86 0 0 0-1.796-2.575c-4.215-5.821-6.667-9.752-14.038-10.943-14.327-2.781-13.093-.11-23.191 5.724-4.248-1.679-6.621-6.697-9.314-10.833-4.954-1.977-10.348-3.082-15.554-4.305-7.408-33.581-5.229-116.123 1.095-151.73.593-3.34 7.918-18.421 9.486-23.414 5.632-17.931 10.7-35.046 14.832-53.373m722.166 322.88c14.55-1.753 48.51 11.016 63.79 15.376a852 852 0 0 0 40.11 10.207c20.09 4.497 38.02 6.143 57.79 10.016-13.93 9.423-24.1 12.095-35.39 26.378-8.65-6.948-71.79-42.228-81.28-39.072-3.6 8.862 30.04 22.634 37.51 26.683 13.63 7.095 35.13 16.748 45.45 26.995-5.06 2.258-10.7 4.175-16.05 5.598-32.29 8.573-64.57 22.938-96.75 31.161-20.4-13.946-66.41-33.056-69.14-60.002-3.36-33.168 24.69-49.265 53.96-53.34"/><path fill="#fefefe" d="M799.605 888.437c35.348 1.559 78.03 9.645 113.95 12.955 36.444 3.358 68.314 3.877 104.915 2.944 12.9-.328 26.16 1.333 38.73 1.012-8.31 13.39-12 24.136-10.14 40.346 3.82 33.232 43.48 45.064 68.18 64.026l1.13.88-12.87.4c-8.87.02-16.45.16-25.19 1.88-19.81-15.589-39.37-16.683-62.13-6.11-5.65 2.62-21.785 4.42-28.863 5.57 3.836-9.76 7.213-17.713 8.179-28.287 4.884-40.49-34.045-64.584-69.031-71.598-30.229-6.06-69.299-5.223-100.518-6.818-11.664-.596-23.764.819-35.546-.263l-1.236-.121zM342.397 663.615c1.372 3.998-1.553 21.979-1.559 27.691-.032 34.756-2.15 80.325 5.46 113.916-6.042 19.202-5.31 18.878-3.905 39.32l-17.484-.93c6.672-22.35-2.324-30.741-24.401-32.564-3.661 1.677-7.225 3.901-10.712 5.947l-.96.513c-6.192-4.951-6.415-7.409-14.726-12.933-9.032-.566-14.456-.239-22.643 3.569a1414 1414 0 0 0 23.784-85.771c.77-3.174 5.272-25.745 5.562-26.122 4.971-6.471 50.497-14.112 61.08-31.763.172-.289.336-.582.504-.873m955.543-192.689c.92.897 6.15 9.291 7.31 11.019 5.43 8.089 10.67 14.559 16.98 21.854 6.22 7.19 18.31 11.607 20.75 19.706-1.26 3.136-2.95 6.002-1.3 9.09 6.81-.658 11.69-10.128 19.88-8.104 5.96 5.517 3.35 16.227-3.15 20.117-5.5 3.285-12.2 1.994-16.96 6.791.12 3.379 1.01 3.119 4.12 6.066.06 21.491 3.16 41.753 3.72 63.019.07 2.288-2.34 10.293-3.04 12.873-8.88 5.24-11.35 6.124-20.99 3.941-19.67-4.621-22.1-28.785-23.77-44.969 4.17-2.371 6.2-3.514 7.64-8.006-3.35-5.597-25.23.666-35.43-8.29-20.34-17.878-9.45-37.38-13.71-58.591 7.82-9.147 10.26-6.455 19.96-11.614.8-.421.67-1.71.84-2.968-2.46-2.129-5.64-2.12-9.28-2.854l-.7-1.142c5.79-9.99 17.89-20.955 27.13-27.938"/><path d="M1273.33 551.882c3.06-.363 5.61.572 8.64 1.048 5.47.857 16.22-3.238 17.87 3.402l-2.02 3.034c-8.59 6.382-24.36 5.831-24.49-7.484m26.88-50.67c11.85.34 25.07-1.128 23.2 15.144-9.01-4.372-15.8-5.086-23.3-8.902-1.47-2.833-.91-2.14.1-6.242m-28.5 19.388a5.556 5.556 0 1 1 4.63 10.103 5.56 5.56 0 0 1-7.3-2.768 5.55 5.55 0 0 1 2.67-7.335m28.67-1.225c4.52.622 6.2 1.091 8.89 4.41.76 3.555.25 4.137-1.06 7.731-3.2.434-4.73-.029-7.09-2.091-1.75-3.723-1.12-5.909-.74-10.05"/><path fill="#fefefe" d="M1739.6 654.541c5.14 3.434 15.86 8.912 22.07 9.392l5 .363c-.19 13.778-1.47 18.571 2.49 32.681 1.83 6.504 2.98 17.981 4 25.398 3 21.647 5.42 44.282 7.38 66.123-2.67 17.197-6.66 63.45-10.6 77.98-3.63 1.114-7.27-2.014-12.82-1.761-.06-2.573 7.81-15.937 9.79-19.552 1.69-3.199 4.68-8.353 5.55-11.76 6.19-24.331-19.34-42.425-40.44-29.466-13.65-9.427-19.93-12.618-34.85-3.097 17.12-17.1 30.68-79.245 36.29-104.471 2.51-11.255 3.09-28.674 5.88-40.728zM738.915 485.269c.308.183 25.394 27.088 25.91 28.322 3.587 8.579 3.334 42.13.031 50.986-8.236 6.352-20.312-5.418-24.878 2.406 1.017 11.946 15.687 5.007 20.766 12.779-2.08 13.977-19.385 14.249-29.984 15.058-52.417-8.246-12.027-28.912-50.789-45.856-2.884-10.965-3.189-11.872 4.301-20.231 4.644 1.454 9.915 2.425 14.72 3.427 22.617-7.559 36.46-23.217 39.923-46.891"/><path d="M739.37 509.848c6.636.017 12.856 3.166 14.52 9.987l-1.181 1.934c-4.232.415-4.335-.626-8.665-3.061-5.004 1.099-11.751 7.126-15.43 2.75.186-6.248 5.726-9.582 10.756-11.61m-1.04 20.017c4.758.198 7.624-.359 9.92 4.412-.578 3.642-1.301 4.005-3.895 6.901-4.865-.573-6.966-.869-9.428-5.132.694-3.943.472-2.716 3.403-6.181"/><path fill="#fefefe" d="M910.879 664.926c-.059 4.514-7.091 17.2-9.406 21.932 7.83-3.676 13.225-7.655 20.314-12.534-4.509 6.767-17.834 19.243-16.944 26.825l2.653 1.06c10.639-2.056 17.297-19.878 21.524-21.887 1.343 6.062-9.536 19.758-13.424 24.326-10.299 12.103-23.332 19.531-37.201 26.642l-4.448 1.467c-11.214 3.668-8.532 6.076-16.076 12.916-3.066-.72-13.504-12.85-16.57-16.143 6.962-11.002 16.94-53.894 29.94-56.912 2.988 4.589-1.342 10.415 3.401 16.387 8.877 1.25 29.783-17.667 36.237-24.079m287.721 52.881c10.22 12.105 28.87 56.882 30.79 73.507.26 2.229-5.02 41.931-5.52 42.966-3.29.843-2.37.519-6.18-.795-17.7-12.817-32.3-82.963-34.6-105.095 7.28-3.117 10.18-4.813 15.51-10.583M486.422 613.574l5.092 4.284c2.155 6.909-6.652 43.529-8.312 52.274-4.483 23.607-12.378 47.794-19.941 70.659-4.492 13.582-9.806 31.239-16.263 43.819l-1.038 2.05c-2.574-4.92 3.088-68.663 5.671-76.383 10.044-30.013 20.612-68.633 34.791-96.703m654.868-2.009c14.04 3.81 21.62 7.149 32.07 17.399-2 5.337-4.92 14.495-8.27 18.673-4.34 1.635-.86-1.3-6.79-2.805-5.95 3.839-12.24 25.296-16.31 33.459l-.41.806c-3.91 5.497-6.79 7.872-12.1 11.793-6.78-3.078-8.54-4.155-14.15-8.925l-2.17-9.132c4.92-18.262 15.58-47.012 28.13-61.268m560.47 6.7c9.21 10.149 7.28 14.044 21.55 24.086-.74 9.413-3.83 18.453-5.32 27.652-4.38 27.055-10.1 53.652-18.17 79.874-1.14 3.69-4.17 9.501-3.38 12.872l-1.48 1.284-6.39 15.949-.53-.979c4.37-26.357 6.82-146.771 13.72-160.738M692.091 1043.92l1.282.18c2.871 3.43 2.746 30.35 2.763 36.39-21.284 6.81-54.594 19.91-77.382 19.39l-2.544-.48-.493-1.52c6.526-14.15 60.525-47.32 76.374-53.96m-472.857 15.83c32.857-3.51 5.699 41.65-2.848 51.64-6.103 7.14-10.792 12.53-17.627 19.22-3.428 2.64-7.246 5.34-10.759 7.92 3.438-14.74 5.954-29.7 9.565-44.39 3.673-14.94 6.054-28.15 21.669-34.39m254.9-173.68c9.913-.63 15.317 8.439 12.772 17.807-6.332 23.305-18.743 38.748-38.516 51.76-2.039 1.319-8.929 4.211-11.531 5.363 8.346-23.38 17.291-48.287 26.242-71.369zm-228.809 2.05c38.333 1.415-7.759 58.485-18.745 69.261-2.144 1.584-7.687 4.545-10.269 6.003 3.82-17.761 5.636-36.529 9.85-54.26 2.859-12.03 8.388-16.233 19.164-21.004m133.048-10.021c22.752-2.985 11.242 23.896 5.432 34.016-7.119 12.401-16.67 25.815-29.287 33.092l-10.614 6.945c3.384-16.509 13.53-50.334 18.645-66.831 5.849-3.002 9.719-4.848 15.824-7.222m-16.332 187.861c8.207-.13 10.165 4.46 14.059 10.79-4.264 22.84-19.746 44.19-38.86 57.14-3.169 1.81-6.502 4.4-9.485 6.58l-.526-1.22c3.046-14.7 14.393-46.8 19.038-63.16 1.525-5.37 10.618-8.39 15.774-10.13m-123.925 73.98c12.908-.3 15 3.24 17.433 15.29-5.622 18.57-12.152 49.93-14.492 69.41l-.548.72c-1.683-.78-1.846-.73-2.852-2.59-11.302-20.93-17.957-52.63-7.799-75.04 1.594-3.51 5.155-5.74 8.258-7.79m37.801 15.18c45.499-1.16-4.541 54.16-15.275 65.58-3.186 3.1-5.358 5.58-9.282 7.7l-1.101-.97c1.909-15.88 8.404-41.9 12.332-58.1 1.836-7.57 6.629-11.11 13.326-14.21m27.31-204.973c3.373-.138 10.105.984 11.625 3.704 10.64 19.046-24.106 52.729-35.209 62.209l-9.928 6.55c4.014-13.94 6.801-28.004 10.308-42.051 4.007-16.048 5.585-26.332 23.204-30.412m113.934 25.744c36.698 6.058-11.202 56.969-25.161 66.379-2.851 1.73-9.068 4.51-12.307 6.07 8.387-18.66 13.012-39.48 20.538-58.317 3.524-8.82 8.675-11.297 16.93-14.132m-42.495-14.037c13.877.488 15.134 3.859 18.873 16.348-4.971 10.365-17.036 49.988-21.459 63.458-.768 2.68-.884 2.65-2.454 4.8l-1.363-.56c-8.648-19.44-12.521-69.79 6.403-84.046m-56.186 91.176c11.78-.34 13.947 3.42 18.353 13.21-1.983 13.66-13.703 51.47-18.343 65.93-.679 2.06-.535 1.55-1.777 3.4l-1.226-.73c-9.783-20.72-17.634-65.48 2.993-81.81m1660.44-41.95c18.68 3.33 10.85 15.72 6.38 27.68-6.85 18.28-17.06 25.27-31.85 36.53l-10.79 9.04c7.36-23.52 10.75-42.99 20.23-66.94 6.3-4.48 8.45-5.58 16.03-6.31M146.333 828.822c10.466-.371 12.86 7.769 16.396 15.803-4.771 20.961-5.699 54.7-10.128 71.447-9.291-3.534-14.709-31.928-15.281-41.734-.891-15.295-5.563-35.963 9.013-45.516M1880.17 950.099c2.34.18 4.65.437 6.93 1.045 3.47.928 5.88 2.458 7.65 5.651 5.25 9.437-15.34 60.255-19.11 73.615l-2.15-.17c-12.04-9.07-7.46-57.018-2.28-71.125 2.07-5.646 4.02-6.776 8.96-9.016M166.918 959.1c41.191-1.321 1.506 49.41-9.938 62.36-4.131 4.3-6.455 6.06-11.267 9.68.73-13.24 6.455-50.108 9.559-62.67 4.887-4.996 5.539-5.903 11.646-9.37M1742.33 811.956c12.72.078 17.41 2.571 20.72 14.89-5.76 16.524-17.19 33.319-28.25 46.738-5.13 5.722-7.18 7.78-13.22 12.486 1.96-18.002 6.04-39.566 9.57-57.489 1.7-8.595 4.06-12.544 11.18-16.625m-1242.074-6.257c2.352.202 6.911.703 8.575 2.167 19.604 17.243-15.29 53.257-25.376 65.573-3.216 2.365-6.592 3.434-9.813.811q.001-1.375.114-2.743c.791-9.964 10.16-45.144 15.208-55.093 1.145-2.258 8.83-8.641 11.292-10.715M119.317 1090.74c35.203.47-.066 58.12-9.81 70.56-1.759 1.97-1.942 1.97-4.094 3.33l-1.029-1.42c-.24-14.09-1.259-28.18-1.249-42.3.012-15.68 3.352-21.72 16.182-30.17M1645.32 822.037c34.04 2.851-14.24 55.763-23.62 64.762-1.96 1.627-6.49 4.47-8.79 6.009 1.51-14.475 11.18-50.9 16.04-64.407 5.65-2.913 10.28-4.735 16.37-6.364m159.38 241.943c7.68-.21 16.16 5.29 15.01 12.39-3.24 20.22-8.72 47.04-13.46 66.53l-2.01-.32c-2.5-3.08-5.79-8.04-6.51-12.04-3.05-16.86-16-60.17 6.97-66.56m154.01-230.221c13.45-.361 14.87 4.419 19.34 15.833a477 477 0 0 0-19.62 58.785c-.93 3.95-.68 6.188-4.79 6.919-11.16-8.138-7.08-70.546 5.07-81.537M1841.26 1075.1c7.48-.53 17.24 3.94 16.36 12.71-1.92 19.21-18.55 38.03-31.55 51.26-3.31 3.16-7.13 5.88-10.79 8.65 6.35-20.1 7-44.78 15.12-64.02 2.11-5 5.96-7.02 10.86-8.6m-154.61-176.05c43.96-3.388.86 47.67-9.51 59.36l-11.71 10.115c1.44-19.326 5.16-40.182 10.82-58.785 2.13-6.995 4.23-7.697 10.4-10.69m140.13-33.229c11.66.064 12.27 3.675 19.56 12.582-4.89 20.981-10.27 42.122-15.42 63.063-.42 2.275-.65 2.85-1.39 4.967-13-1.332-13.02-60.068-9.51-71.066 1.65-5.156 3.01-6.363 6.76-9.546m-1625.188 8.676c12.351 2.719 14.112 9.529 18.101 19.953a1766 1766 0 0 0-12.275 62.149l-.152.305-.992.185c-9.088-16.505-13.203-31.223-14.224-49.852-.736-13.434-1.463-23.637 9.542-32.74m1792.998-23.063c4.5.017 11.64 1.696 14.51 5.026 13.48 15.629-24.25 48.51-33.01 56.906-2.95 2.829-7.48 6.428-10.7 9.157 4.02-19.156 11.78-42.466 18.52-61.1 2.36-6.522 4.81-7.697 10.68-9.989M173.897 1053.91c8.141.49 14.41-1.45 17.48 8.31 2.813 8.94-.487 18.14-2.5 26.88-3.218 13.97-7.234 27.67-9.265 41.88-.075 1.59.09.8-1.027 2.28-8.137-5.58-15.451-49.1-13.723-58.99 1.625-9.31 1.635-13.9 9.035-20.36m263.71-181.042q1.194.329 2.375.703c15.045 4.706 11.919 15.237 7.694 26.717-5.749 15.621-10.972 31.466-17.089 46.963-1.138 2.619-2.53 5.124-3.867 7.651l-1.049-.535c-6.498-16.753-5.595-49.261-.364-66.948 2.483-8.397 5.018-10.917 12.3-14.551m-176.88 63.939c2.199-.008 6.387-.056 8.457.211a9.8 9.8 0 0 1 6.873 4.176c2.12 3.127 2.754 8.218 1.999 11.923-3.864 18.953-14.144 41.9-16.564 60.593-.755 2.9.076 2.1-1.825 3.26-6.485-6.89-10.253-34.891-9.967-44.79.401-13.888 1.017-25.257 11.027-35.373M78.15 1084.68c16.169.89 17.22 17.15 15.98 29.62-1.56 15.71 1.439 35.12-.103 50.13l-.835.01-4.331-5.52c-8.601-11.96-23.052-43.03-22.313-58.16.359-7.34 6.366-11.53 11.602-16.08m226.843-262.849c33.801 3.679-8.573 53.763-19.785 64.528-2.09 2.091-5.108 3.483-7.751 4.937.639-9.636 8.233-49.74 12.858-59.292 3.056-6.311 8.387-8.411 14.678-10.173m30.123 43.198c2.336-.211 6.923-.391 9.196.245a10.73 10.73 0 0 1 6.48 4.986c4.46 7.776.657 18.329-1.733 26.23-4.255 14.065-9.069 27.919-12.352 42.263-.742 2.42-.987 4.799-2.67 6.136l-.67-.715c-8.288-18.776-14.553-66.112 1.749-79.145m-204.593 82.935c10.516.882 10.554 2.775 14.78 11.998-.615 15.051-7.728 48.938-9.201 65.528-.525.66-1.051 1.33-1.576 2a38 38 0 0 1-4.779-7.91c-6.466-14.48-15.704-49.274-9.224-64.229 2.172-5.012 5.211-5.586 10-7.387M67.78 906.119c3.902-.238 11.062-.478 13.632 2.001 9.797 9.447 13.554 58.462 15.51 72.489l-.93 1.04-2.171-1.173c-11.922-15.809-45.044-55.397-26.04-74.357m1793.469-27.781c4.82-.444 12.72-.023 16.23 3.27 15.36 14.379-16.13 46.664-25.2 57.521-5.03 6.048-7.15 8.172-13.15 13.263 5.75-22.587 10.52-47.107 17.24-69.452 1.04-3.461 2.27-3.496 4.88-4.602M182.273 836.203c5.431-.15 7.7.781 12.882 2.351 5.5 11.11 3.508 16.66-.116 27.959-12.022 10.515-9.575 14.7-16.421 28.77-1.425 2.927-5.839 9.228-7.893 12.178l-7.115 8.555a674 674 0 0 1 5.001-50.374c1.979-14.068 2.183-20.794 13.662-29.439m78.899-21.799c3.283.402 7.555.496 10.937.673 1.1 1.37 6.091 7.944 6.271 8.931 1.793 9.815-9.048 56.405-11.717 63.412l-.552.104c-2.183-1.261-4.646-4.888-8.642-7.341-5.891-18.017-11.735-51.725 3.703-65.779m758.488 223.776c15.58-2.86 35.09 10.36 48.98 16.73 2.47 1.13 3.2 1.91 3.76 3.98-4.7 3.16-31.87 1.4-38.99 1.29-10.26 1.84-45.41-1.35-56.459-4 12.612-9.56 27.409-14.89 42.709-18m584.29-229.916c9.86-1.042 11.33 1.434 16.8 8.827-4.71 20.657-13.75 48.995-16.56 69.052-.46 1.127-.33.678-1.59 1.595-12.09-4.968-11.58-56.562-7.24-68.084 2.44-6.453 3.21-7.582 8.59-11.39m47.09 80.425c7.74 1.849 11.87 1.591 15.9 8.966.41 3.047-12.89 70.445-12.84 70.383-12.61-11.812-22.68-69.525-3.06-79.349m-133.55-125.855c.89.116 1.78.238 2.66.367 9.22 1.351 17.25 6.555 15.12 17.356-3.39 17.224-8.22 34.497-12.23 51.686-.45 1.903-.91 3.464-1.48 5.316l-2.03.12c-11-7.751-12.77-55.223-8.73-68.459 1.1-3.585 3.71-4.648 6.69-6.386m386.87 47.692c10.6 1.187 12.37 5.523 17.79 13.894-3.87 19.648-11.04 41.902-13.64 61.54-1.29 3.322-.43 2.543-3.03 4.012l-1.58-1.177c-6.71-13.511-9.42-42.904-8.96-58.49.26-8.914 2.76-14.14 9.42-19.779"/><path fill="#fefefe" d="M919.289 630.057c.332.159 1.049 1.129 1.338 1.474.07 5.102 1.016 14.371-2.078 17.783-1.361.139-6.391.601-7.24 1.353-9.427 8.354-18.964 16.519-28.827 24.222-.532-7.803-1.416-13.329-4.198-20.602-9.85-.753-6.309 2.228-12.043 6.405-5.852-6.521-6.479-15.809-8.021-24.461 23.454 4.614 39.491 1.753 61.069-6.174M51.914 997.211c9.004.28 10.898 2.686 18.38 8.139 1.23 6.29 1.208 8.46.734 14.74-1.397 18.5 6.332 34.51 11.239 51.94l-1.598 1.41c-17.926-18.86-29.454-35.37-38.255-60.33 2.213-9.5 1.897-10.39 9.5-15.899m1864.816-31.27c42.1-1.117-12.93 51.939-21.02 60.129-2.49 2.49-5.59 5.54-9.17 5.38.06-3.07 3.17-11.1 4.63-14.56 7.51-17.818 5.57-43.046 25.56-50.949M234.822 695.796c10.645.562 16.647 1.215 27.528 1.069-2.524 14.206-11.234 50.59-15.523 64.673l-2.456 9.322c-4.628-16.915-12.834-51.444-15.687-68.515.983-3.145 3.411-4.429 6.138-6.549M108.177 896.987c20.042-1.631 18.328 27.659 15.538 40.607-18.814 15.373-15.35 25.819-13.45 48.634-.111.578-.716 2.193-.932 2.816-3.72-6.061-11.293-68.774-11.36-79.268 3.421-6.026 4.954-8.382 10.204-12.789m1681.173 70.126c22.81 1.359 20.55 17.742 10.69 32.52-6.3 9.437-14.06 16.337-22.8 23.347-3.71 2.87-8.33 5.43-12.42 7.85 5.2-17.29 9.59-34.885 14.88-52.125 1.96-6.389 3.9-8.512 9.65-11.592m147.9 34.797c5.62.13 12.51-.4 14.75 6.03 2.05 5.86-.21 12.17-2.19 17.67-5.16 14.38-10.39 28.72-13.72 43.64-.56 2.64-1.25 5.33-1.88 7.95l-1.18.07c-8.53-10.52-9.73-49.78-5.77-62.73 2.15-7.04 3.85-9.29 9.99-12.63M470.001 793.059c10.229 2.475 9.142 8.632 10.976 18.053-12.124 23.886-11.94 35.467-18.571 60.549-.22.664-.653.809-1.361 1.414-7.089-5.484-17.217-76.034 8.956-80.016M1756.39 950.052c20.38-.522 17.35 11.896 13.38 27.326-3.88 15.132-8.43 30.312-12.61 45.392-1.86 3.28-1.07 3.16-3.76 4.1-11.28-8.35-3.48-57.472-.95-71.165.3-1.63 2.73-4.389 3.94-5.653M1553.02 773.21c39.91-3.892-2.13 48.581-10.73 59.045-2.96 3.178-7.28 7.042-10.52 10.11 2.35-17.299 8.89-46.742 15.51-63.65.59-1.52 4.26-4.365 5.74-5.505m72.2-225.307c3.52.688 4.43.842 7.65 2.356.16.736.35 1.525.43 2.282.56 5.443-8.19 71.102-10.02 73.234l-.96-.353-1.34-5.128c.4-2.389-9.4-32.217-9.86-37.149-.55-5.842-8.65-21.314-5.11-26.086 8.15-1.047 12.42-4.724 19.21-9.156M533.777 828.864c11.748 2.694 12.202 11.387 10.701 21.283-10.403 13.829-26.859 24.542-42.89 30.762-3.35 1.085-9.209 2.353-12.805 3.252 14.64-15.375 25.028-34.22 38.208-50.706.925-1.157 5.329-3.739 6.786-4.591M1803.38 661.632c1.9-.045 8.9 3.403 10.53 4.996-1.82 11.617-8.09 26.869-11.44 38.339-3.05 10.47-5.74 20.913-8.73 31.386-1.61-4.323-9.88-68.917-9.65-70.505 6.53-3.079 12.67-1.069 19.29-4.216m-95.73 145.152c7.34.252 8.97 1.859 14.38 6.44-.56 19.399-8.8 43.804-9.13 66.494l-1.95 1.06-2.05-.876c-6.87-9.396-10.85-43.436-9.56-55.731.9-8.618 1.85-11.998 8.31-17.387m-370.79 102.083c3.92 3.066 5.03 9.165 4.88 13.888l-1.02 1.991c-18.36 6.775-48.89 22.441-66.11 28.875l-.96-.482c3.14-3.758 9.63-6.323 14.1-10.119l-1.29-3.635c-5.91-3.462-13.06 3.133-21.3 5.011 15.28-16.372 50.5-26.02 71.7-35.529M703.888 596.859c7.216 5.557 20.206 6.886 29.008 7.344l.535 29.069c-5.772-.328-11.859-1.097-17.598-1.819-2.828.704-27.365-4.669-31.963-5.678 5.759-3.502 8.377-4.903 13.096-9.593 2.018-7.394 2.393-13.657 6.922-19.323M404.7 813.948c7.37.298 8.543 3.868 12.679 9.521-2.58 19.104-11.707 30.029-23.455 44.928-2.398-1.288-2.432-1.158-4.085-3.491 3.84-11.218-2.609-7.377-5.577-12.195-1.985-5.4 1.019-15.704 3.025-20.318 4.346-9.998 7.397-14.316 17.413-18.445m879.27 250.472 3.48-.13c6.9 3.45 31.67 18.15 18.92 27.32-8.65 1.77-22.94-4.16-31.54-7.33-11.01-4.65-26.42-9.97-36.24-16.57 11.05.06 33.29-2.37 45.38-3.29m162.58-176.675c1.52 4.547 14.9 70.359 14.86 72.251-4.88-10.017-5.46-11.641-11.64-21.655-12.29-13.202-21.88-17.16-39.41-20.925 18.23-9.499 22.42-14.766 36.19-29.671M362.057 807.233c23.773-1.918 15.263 33.458 11.351 46.61-2.262 2.189-3.738 1.56-7.572 1.83-1.424-.3-6.186.385-7.934.572-6.366-6.941-5.195-22.953-4.235-31.814.755-6.969 3.904-11.973 8.39-17.198m811.683-154.47c14.05 7.991 16.14 42.347 17.42 56.82-9.33 7.904-13.64 10.664-19.96-2.836-1.67-3.577-4.2-8.026-6.1-11.596-2.38-4.506-12.07-19.036-9.25-22.816 6.62 4.297 8.23 15.394 17.34 16.787l1.7-1.271c1.66-4.908-1.35-6.541-.17-9.701 2.32 1.821 2.61 2.153 5.31 3.219l1.25-1.655c1.08-7.25-5.06-18.797-7.54-26.951M992.523 802.848c20.397 1.692-1.011 42.432-14.793 50.186l-5.791 1.645c-.958-1.68 2.382-12.687 2.839-15.666 1.391-9.077 2.3-18.153 3.487-27.261 5.53-4.144 8.11-5.645 14.258-8.904M443.732 598.284c10.127 3.945 13.23-.988 27.711 7.09-5.526 12.221-11.475 29.389-16.319 42.251a654 654 0 0 0-5.79 13.507c-1.821-22.021-2.828-40.384-5.602-62.848m593.118 412.746c14.79.44 30.13 1.29 39.49 15.21-2.44 2.07-11.5 4.28-15.25 5.49-2.37 1.29-5.33 3.22-7.7 4.66-8.2-3.71-30.7-8.95-27.89-20.27 2.61-3.35 6.97-3.87 11.35-5.09m52.98 10.31c17.7-.62 48.95-1.62 59.46 17.08 2.03 3.61 3.26 11.95 2.06 15.98-10.5 2.48-8.39-2.05-15.34-9.35-8.34-8.77-15.94-9.24-27.26-9.81-8.42-10.44-11.39-6.75-18.92-13.9m-107.047 1.04c-.215 1.17-18.343 26.55-21.091 31.28-9.044-1.35-15.788-3.33-24.275-6.42-4.333-1.8-7.178-1.63-6.081-6.55 8.922-11.05 36.966-13.89 50.355-17.97zm104.327-226.012c17.87 7.891 8.1 32.992 7.62 47.55-.09 2.874-.23 7.917-1.75 10.172-15.69-15.798-16.56-38.893-5.87-57.722m-127.759-.156c6.837 1.292 9.862 9.064 12.312 14.715-2.293 15.223-5.118 25.241-6.747 41.45l-.951.048c-11.777-10.092-14.865-43.704-4.614-56.213m122.729 241.028c7.02-.54 34.97 1.74 31.77 12.14-4.11 3.66-10.33 4.24-15.66 4.83l-10.18 4.85c-6-9.51-13.7-12.43-23.5-16.95 7.12-2.58 10.15-3.49 17.57-4.87m862.02-219.96c4.01 1.151 6.9 1.691 10.36 4.047-.32 2.384-4.4 6.61-6.28 8.437-5.26 5.102-4.44 12.395-8.54 17.754-.66.864-3.24.209-4.7.048-4.82 2.837-8.86 17.506-10.85 23.29-.68 2.585-.7 3.481-2.55 5.451-1.29-3.537 4.6-32.923 5.85-38.629 2.66-12.093 7.11-14.463 16.71-20.398m-862.25 256.64c-33.02 1.49-66.66 2.29-99.58-.86-3.21-.31-6.758-2.14-8.424-4.98l1.091-1.33c3.517-.68 14.952 1.49 20.495 1.77q42.822 2.115 85.678 3.39c5.3-.45 12.03-1.44 17-.09l.75.88-1.48-.89-.83 1.8c-4.12.45-10.64.92-14.7.31M870.223 784.037c.649 3.298-5.711 8.778-4.776 14.215 2.2 1.079 2.276.806 3.703 2.646-1.398 2.489-1.812 3.324-2.797 5.996l.982 1.962c3.566.438 4.197-.496 7.725-2.477-1.051 10.204-19.913 24.046-12.895 38.132 3.662 2.667 2.93 1.384 4.483 5.154l-.932 1.397-3.636.005c-3.018-3.083-5.286-22.821-6.852-27.928-1.203-3.921-2.616-7.928-4.075-11.849 3.837-7.572 12.788-21.987 19.07-27.253m247.157 18.973c13.36 11.477-5.7 39.673-14.57 49.17l-.93.467-.84-1.033c.74-3.307 1.96-7.466 2.52-10.589 3.03-16.783-4.38-30.114 13.82-38.015m-977.355 245.48c5.235.99 9.992 3.44 13.832 7.58 4.725 5.1-6.94 13.17-7.195 15.37-.141 1.21-1.52 9.16-2.041 11.62-1.007 3.04-.967 6.19-3.266 8.11l-1.792-.96c-4.474-10.39-.918-30.44.462-41.72m867.405-30.53c7.35 2.47 10.09 5.96 13.78 12.09-10.1 1.97-18.57 4.16-27.296 9.62-2.978-.46-9.124.77-12.373 1.26 6.514-9.83 14.486-19.03 25.889-22.97m9.71 66.82c21.41 2.38 21.97-6.23 26.11 17.32-19.7 1.57-24.9 4.7-26.11-17.32m136.2-57.21c7.34.73 31.73 5.25 33.29 13.08-2.23 3.09-2.64 2.57-6.45 4.2-5.26 1.79-10.72 5.1-15.95 4.96-3.72-3.24-2.2-8.82-4.89-13.93-1.78-3.4-3.58-5.42-6-8.31m584.01-57.81c1.94 7.834-.06 28.17-1.78 36.46-3.15-2.54-6.69-4.61-10.14-6.762-1.52-.894-6.64-5.164-8.31-6.493 6.31-7.76 13.61-15.579 20.23-23.205m-754.674 113.98 20.754.08c1.89 6.43 4.14 12.64 6.37 18.96-7.43-.37-14.831-1.03-22.201-1.99zm933.914 4c.74 4.45-48.75 119.4-53.52 124.47-.64-2-.77-3.67.02-5.64 15.87-40.12 37.04-79.05 53.5-118.83m-785.81-6.29c2.35-.41 2.51-.62 4.82.15 3.4 13.79-6.51 16.47-17.26 16.88-3.79-.2-3.14.4-5.7-1.49-1.13-5.34-1.17-8.63 1.57-13.45 2.28-1.96 12.99-1.9 16.57-2.09m-33.89 29.03 1.85-.21 1.26 1.26c.72 4.93-.24 13.18-.64 18.39l-15.6.11-1.52-.24c-1.46-2.76-.32-14.42-.26-18.86 4.93-.08 9.98-.3 14.91-.45M843.412 822.648c1.762 1.907 4.766 7.928 3.01 9.804-8.759 9.358-20.557 31.225-30.681 37.747-1.627-.015-1.51-.007-2.832-.968 8.694-14.137 20.745-33.586 30.503-46.583M1022.29 1113.5c7.19-.52 14.86-2.24 20.41 1.82 3.28 4.86 2.22 9.79 1.89 15.78-5.21-1.11-11-.25-16.37.24-2.84-6.39-4.06-11.17-5.93-17.84m34.08-28.32c4.82.58 12.81-.08 17.89-.33-.32 5.41 1.31 14.43-3.49 16.4-13.75 1.32-21.14 1.37-17.85-14.78zm-66.013 25.68c7.261 1.47 13.643 1.83 20.963 2.32 2.31 6.96 3.21 9.85 4.31 17.02-5.35-.21-14.17-1.64-19.727-2.37-1.929-5.46-3.742-11.43-5.546-16.97m121.873-1.78 16.66-.03c-.74 5.64-2.5 13.58-3.59 19.36-5.66 1.15-9.15 1.18-14.95 1.38.27-7.07 1.08-13.7 1.88-20.71m-929.176 45.1 1.867.88c2.06 4.55-7.466 62.55-8.736 72.28l-2.891-1.6c-1.915-5.67 7.822-62.92 9.76-71.56m873.296-41.63 15.67-.87c-.17 6.52-.33 10.86-1.24 17.29l-1.7 1.16c-6.29.13-10.53 1.12-14.08-4.92-1.5-2.57-1.63-9.27-.83-12.01zm43.25-29.17 1.74.05c2.07 2.99.64 12.02.29 16.14-5.43.1-8.08.46-13.47 1.32l-2.81-.84c-2.59-3.12-3.21-11.59-.49-14.97 4.83-.92 9.84-1.26 14.74-1.7m61.1-6.22 3.67-.12.58 1.56c-.57 5.03-1.72 12.39-4.87 16.8-.52.72-4.51.52-5.83.54-3.1.16-5.2.64-7.8-.89-1.62-4.51.59-9.48 1.92-14.66 3.76-1.15 8.45-2.23 12.33-3.23m19.65-23.12.99.34c-.51 2.95-5.06 7.57-7.26 10.15-18.67 3.95-34.85 7.25-53.95 7.23-.72-.44-.31-.09-.8-1.41 2.49-1.3 6.92-1.43 9.89-1.77 17.75-2 35.08-6.55 51.13-14.54"/><path fill="#fefefe" d="m893.885 808.005 1.028 2.467c-1.687 10.237-16.033 20.631-23.705 28.663l-1.14-1.636c.539-12.944 12.535-24.593 23.817-29.494m287.945-8.49c6.8 2.089 19 31.067 18 38.492-11.47-9.21-19.71-23.356-18-38.492M953.978 1080.54c4.792.39 10.931 1.37 15.865 1.95l6.444 17.58c-4.831.08-11.322-1.02-16.249-1.7zm188.412 26.56c4.89.09 9.03-.8 12.27 3.1.62 4.53-4.09 10.95-6.61 14.9-4.04 1.06-7.79 2.43-10.59-1.02-.91-4.66 2.64-12.87 4.93-16.98m-212.634-51.54c9.595 2.81 21.07 4.51 29.928 9.03 1.718.87 2.71 4.91 3.255 6.82-7.196.71-18.748-2.6-25.486-5.24-3.641-4.12-4.788-5.9-7.697-10.61m-577.039-99.375c3.298.694 2.206-.171 3.906 1.911-5.408 18.563-14.312 43.984-18.455 61.504l-.494 1.04-1.378-.17c-2.015-10.72 14.842-49.335 16.421-64.285m1386.573 78.465c.64.65 1.8 2.81 1.44 3.41-12.68 21.09-20.82 42.47-30.5 64.85l-1.78-2.53c1.4-11.66 23.93-54.74 30.84-65.73m-146.31-137.063 1.14.625.9 1.709c-3.74 8.038-10.32 18.518-14.19 26.155-4.83 9.52-7.04 16.223-9.61 25.792l-1.49-.325c-4.78-10.053 18.13-44.383 23.25-53.956M965.235 1110c4.284.22 8.572.34 12.862.34 1.791 5.02 4.136 10.33 6.21 15.28-13.05 2.36-16.437-4.72-19.072-15.62m-648.818 56.67 1.073 1.76c-2.755 11.15-9.618 44.16-15.026 51.92-.401-.39-.831-1.3-1.135-1.85 2.085-10.98 9.48-43.21 15.088-51.83m-207.054 15.8 1.833 1.59c3.087 8.45 13.609 39.85 11.692 46.86-.523-.45-1.753-1.48-1.958-2.14-2.722-8.81-14.207-39.39-11.567-46.31m1744.957-160.83c1.39 1.37.78.62 1.34 2.81-3.52 10.11-13.28 32.84-19.69 41.11-1.09-.79-.6-.29-1.04-1.99 2.49-7.89 15.1-34.91 19.39-41.93m-5.44-64.161 1.38.693c-.57 3.385-22.37 31.429-26.42 38.323l-2.07-1.727c-.13-6.715 21.56-30.746 27.11-37.289m-505.6-22.595 3.99-.376 1.87 2.93 1.02.045c-4.42 4.707-18.61 7.206-25.01 8.203-3.62.447-6.44.8-10.14.89l.45-.773c8.66-2.064 19.54-7.221 27.82-10.919m456.81 219.656 1.35 1.82c.02 6.6-8.31 27.32-12.28 32.81l-1.3-1.76c-.88-4.81 9.32-28.11 12.23-32.87m-282.74-300.855c.41 1.569.57 2.981.01 4.56-3.16 8.914-6.88 17.756-9.91 26.71-1.63 4.811-.73 6.75-3.01 11.798-4.79-7.573 7.53-36.968 12.91-43.068m425.04 69.792 1.51 1.634c-.47 6.21-10.77 25.091-14.83 29.857-.23-.352-.51-.676-.7-1.055-1.54-3.182 11.75-25.823 14.02-30.436M898.631 617.353c5.144-.053 9.852 1.34 14.864 2.531l-11.229 4.111c-3.499 1.417-5.743 2.495-9.118.779l-.228-2.358c2.352-4.242.926-2.841 5.711-5.063m748.609 368.224c1.26 1.058.7.516 1.36 2.356-5.69 10.903-6.48 18.157-10.65 28.477-.79-1.01-.88-1.63-1.37-2.89.75-8.68 4.98-21.427 10.66-27.943m88.37-92.82c.03 3.671-2.93 32.384-5.21 35.209-3.87-7.77 1.28-27.655 5.21-35.209M201.42 1040.58l1.873 1.72c2.219 7.5.816 10.34-1.468 17.68-4.222-6.97-7.805-13.92-.405-19.4m1610.97-89.067 2.06 2.18c.2 3.965.6 5.804-.82 9.525l-1.42.367c-1.65-2.024-2.35-2.601-4.52-4.055-2.69-.336-6.08-.695-7.78-2.559 4.01-2.734 7.48-2.405 12.48-5.458M342.01 1047.92c5.573.17 9.82 1.36 10.724 7.34l-2.038 2.4-3.093 1.6c-2.835-1.96-4.311-7.79-5.593-11.34m1593.51-167.188c1.29 9.948-3.28 9.907-11.96 13.093l-.15-1.074c2.98-5.233 7.32-8.568 12.11-12.019M259.576 1043.34l2.031 1.33c.623 5.96-1.325 11.32-3.38 16.82l-1.434-.8c-.264-3.5 2.006-13.4 2.783-17.35m842.664 27.17c4.22-.38 10.52-1.29 14.37-.01l1.04 2.14c-4.83.29-12.8 2.12-15.41-2.13m-877.138-99.915c5.559 2.08 9.604 8.047 13.15 12.688-6.006-1.232-10.246-7.755-13.15-12.688"/><path d="m391.035 178.614 1.439.776c.962-.195 2.507-.546 3.497-.44 22.727 2.428 31.522 1.855 47.601 19.082 14.549 15.588 18.922 24.952 26.008 44.859 1.357 3.812 4.564 11.595 3.74 15.201-1.199 5.252 5.023 9.756 5.352 12.301 1.127 8.711.7 26.802-.816 34.948l-.212 1.095c2.318 2.346 9.137 3.347 12.712 4.649 6.526 2.378 16.252 5.535 18.714 12.874.162.311.148 3.713.037 3.82-12.182 11.793-23.063 18.486-32.43 32.876-5.471-7.79-13.876-15.356-23.515-16.917-71.536-11.586-75.392 54.862-84.817 104.391-16.422 12.285-17.288 11.287-21.138 31.111-8.557-10.176-28.411-25.565-42.375-23.34-2.331-.502-13.499-2.03-15.147-1.582-15.822 4.297-13.007 9.293-22.18-8.03-7.018-13.254-18.219-30.908-29.067-42.251-15.658-16.374-42.448-20.289-63.186-26.926 8.632-8.04 13.112-10.289 24.186-12.824-3.522-11.426-6.845-25.302-6.614-37.267.403-20.843 7.181-48.782 22.975-63.407 14.329-13.268 52.215-14.647 66.467.065 3.048 3.193 3.449 4.231 8.054 5.002 5.797-3.6 6.001-13.307 10.075-20.08 15.772-26.688 31.143-55.179 62.854-65.071 9.062-2.827 18.741-2.084 27.786-4.915"/></svg>