<svg xmlns="http://www.w3.org/2000/svg" preserveAspectRatio="xMidYMid meet" viewBox="0 0 2048 1152"><path d="M1025.17 115.45a332.64 332.64 0 0 1 208.6 61.586c15.11 10.958 31.55 23.634 44.92 36.926 70.98 70.584 100.47 171.138 109.85 268.428.97 10.145.14 21.525 1.82 31.419l.15.832c5.79-9.845 9.45-29.444 13.9-41.314 2.02-6.861 6.96-13.965 9.02-20.642 12.91-41.9 32.74-83.305 64.79-113.935 24.11-23.044 57.46-44.328 91.21-48.05 14.02-1.546 37.91-.479 48.73 9.626 15.43 14.877 17.59 43.039 17.1 63.472-.2 7.019-3.45 15.215-3.16 22.953l1.14-.066c4.62-4.933 7.12-14.072 11.02-19.892 8.04-11.991 15.95-23.377 24.61-35.082 14.95-20.203 37.41-31.955 61.82-36.283 10.48-1.856 30.62 3.127 39.04 10.706 19.32 17.376 29.55 58.887 37.88 83.56 1.92 5.691 4.35 29.553 5.03 36.022 4.59-9.506 4.79-15.665 8.46-24.049 13.56-30.969 32.25-61.741 59.51-82.42 11.88-9.014 30.59-19.447 45.45-16.707 9.96 1.836 20.52 8.565 25.62 17.145 21.14 33.384 25.83 70.401 32.75 107.635 13.89 74.765 11.95 149.834 1.76 225.323-3.62 26.793-13.98 83.336-27.61 106.975-2.52 4.378-78.4-13.27-89.97-15.406 6.47 10.248 6.37 13.857 9.86 24.736 2.07 6.438 20.12 1.854 28.65 7.017 14.06 8.508 9.18 12.259 14.13 25.983-9.56 37.131-26.79 53.046-53.43 78.887 14.14-4.345 71.56-20.999 82.1-8.232 2.51 9.164-7.46 18.861-12.38 26.514-24.24 37.726-49.16 50.288-86.89 70.598l17.37 7.421c10.94 4.695 39.99 18.357 44.3 29.154-1.64 19.22-85.4 4.36-99.22 2 4.85 4.03 9.69 6.97 10.74 13.21-1.91 4.75-5.67 5.79-10.67 5.3-37-3.6-64.32-9.14-97.89-23.94-4.31 1.62-8.63 3.99-13.01 5.57-25.52 9.27-54.72 17.88-81.53 21.19-12.8 1.58-53.1 12.45-61.77 6.4-4.73-8.39 8.76-17.16 14.62-21.83-23.12 7.07-47.29 12.35-70.8 17.99-5.87 1.41-20.18 8.49-24.42 8.43-3.65-2.63-2.72-1.28-4.14-5.01.51-6.55 4.59-9.94 9.12-14.44-8.46 1.64-12.02 2.07-20.63 2.35-5.98 4.14-13.15 9.31-20.05 11.53-3.46 1.13-18.82-1.74-20.92.17-22.04 19.91-42.11 14.41-48.26-14.83-26.35-7.07-36.71-15.89-31.63-44.345 4.44-5.856 8.36-8.461 14.19-12.643-.89-2.161-1.81-5.474-2.54-7.784-8.82-1.193-15.46-1.615-23.38-6.014a32.32 32.32 0 0 1-15.82-20.167c-5.83-21.339 7.24-36.431 27.2-41.634.53-7.926.6-9.58 4.18-16.721-26.53-7.318-33.04-22.014-22.57-47.156-8.45-2.704-17-6.248-21.4-13.44-16.36-26.751 10.9-39.494 32.18-46.104 2.1-.653 3.18-6.033 3.49-8.23-5.64-9.438-22.72.584-30.06-31.407 1.84-5.449 4.31-10.733 6.65-15.998 8.8-5.684 9.77-7.726 19.69-11.756-.38-23.208 14.68-35.589 36.52-38.136 15.18 6.177 14.89 9.939 25.59 21.566 17.48-8.925 27.68-10.823 41.23 5.482 14.82-9.255 26.02-13.766 43.83-12.719 11.73 6.737 16.9 12.86 21.04 25.331 21.72 1.957 29.54 5.59 33.84 25.745 3.35 15.759 21.63 3.371 30.52 8.269 10.02 5.515 13.76 17.212 17.21 27.846 12.43-.486 14.81 1.153 27.01 3.456.32-1.821-1.01-3.531-1.95-5.314-7.19-13.638-1.52-35.101 12.69-41.999 8.39-4.076 15.58-1.894 23.91 1.12 5.52-12.332 6.03-15.357 18.63-20.612l.45-.183c-4.98-3.477-131.06-23.063-146.94-27.226-81.61-21.392-168.73-29.032-252.77-33.04-17.57-.838-38.27-2.297-55.9-1.598-3.47 8.413-4.22 13.517-9.32 21.697 22.15-1.136 48.24 4.536 56.6 27.626 2.69 7.432 2.42 19.833-1.92 26.704-26.84 42.455-81.59 63.763-126.37 81.879-36.25 13.59-73.58 13.309-107.57-2.951-23.775 10.291-35.652 12.563-61.801 12.186-29.602-.427-46.954-9.157-73.825-19.642-29.8-11.647-57.433-21.675-80.42-45.194-18.081-18.499-32.013-46.073-9.573-68.187 12.861-12.675 33.168-12.605 50.412-11.928-6.9-9.537-7.742-13.024-10.694-24.052-12.666-.784-49.988 2.308-64.114 3.463-51.424 4.206-96.789 5.247-147.77 14.32-21.577 2.705-42.907 7.874-64.409 11.304-39.085 6.236-78.534 15.903-116.479 27.134 2.959 13.043-4.299 16.678 8.076 24.306 12.788-9.776 20.359-9.633 35.217-4.084 12.169 14.361 4.587 8.216 21.52 10 1.994-11.572 3.06-16.5 10.852-25.587 19.375-22.597 53.734-18.545 63.569 10.735.965 2.873 1.873 8.583 3.835 10.352.841-1.825-1.955-10.224.087-16.046 6.299-17.957 17.135-22.717 34.886-18.039 9.451-20.153 18.301-21.339 39.551-20.905a47 47 0 0 1 2.498 1.657c12.81 9.107 15.437 16.919 18.021 32.049 19.08 5.086 23.659 11.483 29.128 30.038q-.39 1.82-.83 3.628c-9.734 39.656-33.676 21.455-45.488 28.47-8.213 4.878-8.5 16.905-16.981 21.774-4.494 2.579-10.041 2.794-14.959 1.463-5.986-1.619-11.741-5.507-14.777-11.014-1.411-2.559-1.372-4.07-.574-6.731 7.976-3.484 11.742 5.991 17.235 7.432 10.113 2.655 15.353-12.93 20.364-18.75 2.19-2.545 5.241-4.29 8.07-5.95 25.011-2.072 22.61 6.904 37.594-18.114a171 171 0 0 0-1.457-6.042c-5.238-19.797-17.656-11.818-23.337-17.112-14.12-13.159 2.586-41.474-36.901-30.22-7.085 9.468-7.13 14.613-12.171 21.551-9.483 2.458-31.844-20.511-29.206 22.178 24.044 6.767 22.962 23.611 13.827 44.165-2.538 5.71-10.315 18.309-15.255 21.532 20.456 3.785 22.681 8.731 23.521 28.993 8.629-4.403 12.189-6.717 21.66-5.335l.253-.769c3.1-9.291 4.264-13.288 12.885-19.753 7.482-5.61 21.87-8.418 30.999-6.616 11.816 2.332 16.127 8.947 22.306 17.92l.546-.293c29.307-15.989-4.105-25.438-7.063-34.883 3.32-6.975 10.899-2.917 16.201-.894 8.742 9.523 10.165 11.731 14.491 23.883-3.377 10.931-5.606 9.524-8.017 15.708 12.583 9.801 12.534 11.667 20.809 25.843-.086 7.009.028 16.828-5.001 21.735-9.841 9.576-8.966 9.735-5.92 21.238 3.331 12.577-7.567 21.518-15.324 28.67-1.306 1.205-5.721 12.177-8.327 16.017 16.299 20.467 7.326 49.958-21.278 48.007-2.48-.17-6.301.076-8.935.091-14.933 14.889-22.957 18.24-42.52 10.032-5.346-7.38-11.109-14.598-5.071-23.562 10.722-4.199 5.216 14.52 15.406 16.783 14.898 7.299 25.074-16.633 29.049-15.645 22.791 5.662 43.797-4.281 23.904-30.047-6.51-8.432 13.512-23.063 1.927-36.929-11.209-13.415-27.884 11.987-36.166 9.69-6.796-7.498 4.566-11.535-14.091-17.618-7.606 2.876-10.393 4.168-15.68 10.299-.818 9.757 2.353 17.572-1.138 23.312-4.724 1.011-5.618-1.209-10.331-1.569-3.682-.955-5.614 8.088-4.595 10.061 5.45 10.547 9.485 20.764 1.965 31.955-6.616 9.844-16.476 12.439-27.907 14.711-10.297 9.772 4.236 17.756-26.581 27.884-2.36-.634-11.597-3.048-13.308-4.108-5.047-3.126-7.37-10.259-14.433-11.241-14.41-2.003-26.082-3.78-40.734-3.845 17.836 9.244 63.429 52.381 64.343 70.981.96 19.53-90.312-13.34-101.704-15.61l-1.124-.22c4.746 6.31 13.6 15.52 10.916 23.62-.462.3-.788.56-1.294.75-6.573 2.45-135.415-24.6-150.515-28.99-16.116-4.68-31.029-11.2-46.07-18.51-13.958 9.68-61.181 19.38-76.867 19.36-19.813-.02-138.28 7.45-148.78-.82-5.213-15.75 53.493-45.005 65.448-50.547 6.824-3.164 17.133-6.188 24.575-9.097-17.706-3.113-35.716-6.392-53.226-10.476-5.48-1.278-9.244-1.965-11.952-6.532 1.834-15.044 49.903-24.51 62.185-26.115 2.197-.287 3.993-1.532 5.015-3.399-3.105-3.62-10.651-8.092-14.888-10.856-12.193-7.953-39.779-27.163-46.086-39.424.137-3.163-.328-1.966 1.881-4.463 10.027-3.338 7.849-1.253 16.627-2.21 20.265-2.209 35.862 4.348 54.992 10.613-10.506-13.783-58.972-64.239-53.562-78.428 5.685-4.878 14.826-2.428 21.666-1.779 23.344 2.218 39.606 10.954 58.737 23.542.869-6.325 1.306-10.27 3.259-16.443-4.615-1.425-7.345-2.437-11.554-4.352-18.038-8.208-11.898-18.169-16.29-30.06-13.08 3.258-77.055 20.877-85.497 20.7-3.508-2.608-7.915-36.201-8.977-42.94A1242 1242 0 0 1 46.92 634.953c-5.125-70.349-5.393-127.518 8.305-197.41 9.317-47.538 34.34-114.526 94.913-107.575 29.887 3.43 65.045 53.988 80.994 76.659 6.348 9.201 10.824 22.951 17.076 32.767l1.256.149c.953-2.75.148-4.027-.045-6.798-1.553-27.328 10.662-51.428 25.221-72.925 47.889-70.712 92.07-32.086 127.182 23.48 2.334 3.693 10.633 18.386 13.646 20.869.549-1.858-13.751-42.11-15.212-50.151a89 89 0 0 1-.27-29.249c2.07-13.313 6.497-25.642 17.601-33.955 9.717-7.275 34.504-12.007 46.221-9.458 41.447 9.473 75.823 42.978 103.259 73.904 11.833 13.337 22.619 28.293 35.203 41.637 11.114 11.786 22.741 32.855 31.89 46.479 7.528 11.211 14.064 27.815 20.571 39.917 2.817 5.722 6.243 17.847 8.867 21.571.694-.662.828-10.396.881-12.291.936-33.728 3.999-67.688 14.411-99.961.943-2.924 2.176-6.531 2.871-9.451 35.543-149.403 169.58-254.763 320.589-267.009 7.19-.583 16.26.4 22.82-.702"/><path fill="#fefefe" d="M1031.03 125.498c130.86-4.554 254.91 74.746 306.48 194.371 23.37 54.211 36.68 111.172 41.66 169.958 1.07 12.707 1.38 85.175-2.94 96.057-4.06 1.228-5.58 2.96-8.76 5.694-1.82-2.666 2.13-12.881.81-19.903-1.8-2.649-.77-1.938-3.8-2.713-7.71 1.644-10 6.307-15.37 12.606 1.28-13.813 10.72-34.402-1.33-45.001a7.11 7.11 0 0 0-5.67-1.734c-13.33 1.704-32.66 32.116-40.21 42.61l.93-16.353c6.37-8.831 16.81-26.439 8.66-38.726-4.4-6.638-14.85 3.861-18.59 7.864 2.69-9.914 4.13-22.483 5.6-32.836 14.18-6.95 24.08-16.655 26.66-33.005.66-4.18.43-8.064-2.18-11.574-9.62-5.237-16.77 5.933-22.03 12.586.8-11.083-.63-26.518.77-36.01 10.48-8.692 24.72-29.114 21.5-43.068-10.36-13.979-20.15 9.248-24.67 12.326.41-6.116.33-6.507-1.84-12.502 7.03-10.352 16.02-32.39 4.11-42.039-7.29-1.296-10.44 4.774-13.16 10.514-3.28-7.056-11.63-27.738-19.29-28.915-1.36 2.027-2.29 4.842-1.14 7.201 15.57 31.973 21.62 60.201 24.95 95.42-2.75-4.008-5.5-10.078-9.42-12.759-12.3-8.396-15.6 6.256-12.98 15.695 3.79 13.612 9.45 22.236 21.35 29.825-.84 13.93-2.33 25.072-3.09 39.598-1.99-.42-8.41-18.941-19.38-17.116-.87.623-1.99 1.191-2.5 2.125-2.01 3.614-2.4 8.159-2.3 12.232.53 20.879 16.72 26.655 18.03 32.039 3.92 16.151-9.82 19.291-17.06 30.751l-1.23.145c.06-1.642.08-3.285.05-4.927-.15-5.274-2.78-11.982-9.4-11.096-7.8 1.045-10.78 4.994-15.48 10.676 1.18-9.598 2.94-42.586-17.11-33.561-10.97 4.936-15.81 20.517-19.32 31.348-9.94-53.18-41.58-94.289-94.03-106.226-5.42-1.233-14.52-3.086-18.55-6.823.31-2.081 2.3-13.227 2.22-14.36-.18-9.828-7.34-22.544-8.26-31.872-3.03-30.658-2.64-54.63-24.73-79.504-6.74-6.924-11.31-11.541-21.08-12.776-36.39-4.596-54.754 5.159-68.951 39.675-7.587 18.447-6.286 33.569-9.163 52.963-3.298 19.274-12.033 24.309-5.738 46.365-16.05 5.289-29.13 8.034-44.96 14.75-31.905 13.535-51.746 44.552-63.376 76.541-.901-8.788-1.282-26.868-10.615-31.556-11.501-5.777-18.5 14.524-21.585 22.21-2.55-3.827-8.128-13.413-13.062-13.505-19.285-.361-11.905 21.348-13.728 33.305l-1.092.367c-6.244-9.045-16.991-18.182-22.53-1.053-3.169 9.798 3.906 22.184 9.249 30.522-5.55-1.271-14.002-3.506-19.503-2.67-3.979.605-5.747 5.793-8.239 9.657l-1.771-.122c-4.806-8.074 19.154-37.697 13.457-54.938-.917-2.774-2.311-3.919-4.757-5.116-5.377.977-9.35 7.194-12.798 11.525-.08-13.854-.534-29.756.336-43.393 12.803-7.785 28.631-28.051 22.559-43.665-7.33-7.198-15.285 2.892-20.028 8.375.699-9.776 1.269-23.259 3.353-32.528 15.758-6.708 27.698-16.625 26.519-35.346-.234-3.721-.707-4.198-3.305-6.384-4.147-.701-8.273 1.493-12.703 2.761l-.695-1.122c3.823-11.708 15.136-27.246 19.78-40.434-.608-3.825.095-2.45-2.638-5.182l-2.411.042c-6.496 3.878-13.033 17.676-17.523 25.113-2.761-6.346-5.774-16.144-14.259-13.777-10.462 9.258-2.689 32.336 4.536 42.065-1.929 7.238-4.169 16.985-5.376 24.292-6.105-6.797-6.826-13.883-14.454-16.174-16.288 3.969-.053 40.757 9.815 47.611.601 5.216-2.347 27.619-2.498 36.147-5.178-4.701-10.221-12.226-16.596-12.767-3.407 1.788-5.084 3.69-5.258 7.638-.825 18.815 6.53 30.644 20.883 41.289.956 17.432-.377 31.964 1.583 50.948a136 136 0 0 0-3.488-2.125c-4.516-2.645-11.314-5.671-16.422-3.628-11.535 4.614-5.453 19.045-2.774 26.436-3.181-3.016-6.394-6.203-9.593-9.199-6.049-5.666-6.984-5.466-14.749-5.919-2.372-2.317-3.095-5.317-3.632-8.559-16.634-100.443 8.112-209.799 65.91-293.565 10.208-13.865 22.171-30.404 34.605-41.988 61.438-57.238 139.727-94.452 223.685-101.464 7.81-.652 20.07.731 27.12-.66"/><path fill="#fefefe" d="M1064.56 438.519c21.75 19.116 57.84 15.816 84.48 38.764 33.69 29.023 43.31 68.047 48.75 110.669 2.18 17.177 3.89 50.513-7.74 63.938-6.95 8.017-18.67 10.7-28.91 11.52-12.25-30.326-21.06-59.275-25.97-91.726-1.16-7.678-1.05-42.053-9.19-42.414-.52.431-.94.764-1.29 1.357-9.26 15.774 8.42 84.298 15.2 104.774 5.5 16.64 13.16 32.576 18.26 49.359 6.96 22.937 8.97 49.383-2.86 71.157-9.38 17.277-25.12 25.994-43.33 31.316-32.79 9.585-63.24 6.928-93.16-9.501-17.42 11.421-45.309 18.128-65.242 14.494-16.082-.385-42.834-6.919-54.58-17.463-43.472-39.027-14.48-93.025.711-136.874 7.496-23.397 14.209-48.083 17.744-72.42 1.326-9.128 6.166-28.049-1.544-34.083l-2.075.564c-4.494 5.029-6.671 37.955-9.353 48.85-6.484 26.337-12.966 58.736-25.532 82.609-50.569-8.171-35.776-66.202-29.877-102.854 6.658-41.372 34.933-90.453 78.328-101.497 17.766-4.521 36.753-7.755 51.484-19.13 5.089 10.738 14.581 19.874 27.776 15.517 8.63-2.847 11.04-8.357 14.62-16.097 5.42 12.569 6.53 13.895 19.51 18.477 15.19-4.147 16.46-5.783 23.79-19.306"/><path d="M1003.67 637.493c7.95 1.191 8.1 7.481 12.49 10.281 5.05 3.22 16.06-11.454 22.42-6.436.33 2.788-.46 4.211-1.42 6.857-11.7 12.679-25.6 15.839-35.12-3.462-1.33-2.698.3-4.713 1.63-7.24"/><path fill="#fefefe" d="M673.069 789.304c3.186-.255 8.097-.209 11.429-.288l.438.313c15.522 11.297 7.454 13.782 14.122 20.807 7.721 2.429 15.593-5.9 23.26 3.459 12.905 15.752 14.494 26.949-4.718 37.982-6.71 3.853 4.395 16.965 3.261 22.128-.553 3.239-1.136 6.816-4.129 9.477-4.367 2.8-9.387-8.594-13.045-10.582-10.977-5.965-21.155-4.835-31.121 2.105l-.877.616c-19.325-20.257-46.889-10.25-48.424 17.444-.106 1.906-7.63 5.827-9.39 6.723-4.631 2.359-6.33 6.502-8.106 11.103l.323 1.527c-3.893 1.673-10.925-.825-17.184-.221-9.254-21.064-18.56-24.617-40.746-17.509-3.367-6.232-4.507-7.124-9.765-11.862l10.57-12.22c17.015 15.634 31.278 23.933 44.252-.52 28.093-3.468 34.06-13.487 25.613-41.372 16.042-24.381 21.08-3.539 29.748-10.624 1.977-4.186 1.273-10.778 1.154-15.615 7.606-9.58 11.378-10.945 23.335-12.871"/><path d="M678.933 825.035c21.188 6.591 15.658 25.563-1.756 31.623-18.24-3.325-17.513-12.13-10.05-26.78 4.887-2.66 6.444-3.227 11.806-4.843"/><path fill="#fefefe" d="M677.372 835.788c3.046 1.033 3.342 1.677 4.537 4.257-1.107 4.177-.663 2.88-3.964 6.163-3.948-.231-4.084-.189-5.443-3.623.861-3.766 1.991-4.383 4.87-6.797m684.578-83.94c16.8-2.55 21.9 19.341 30.63 29.117 12.66-4.297 26.43-7.939 35.14 5.444 10.34 15.885-11.47 24.234-18.71 32.588-1.39 1.607 13.15 25.869-.91 30.548-13.9 6.296-23.62 3.354-37.48-.239-11.72.717-8.8 7.912-20.75 12.788-14.53-5.125-19.69-5.861-21.79-22.432 1.12-2.512 8.55-18.123 6.77-19.863-7.87-7.672-23.83-8.656-28.74-20.408-3.48-8.343 9.5-17.49 16.18-19.792 6.43-2.312 12.96-1.055 19.36-2.989 7.17-6.704-5.15-14.245 20.3-24.762"/><path d="M1366.13 791.111c8.69-.444 17.15 1.201 20.74 10.349a13.94 13.94 0 0 1-.06 10.507c-2.45 5.857-6.49 7.386-12 9.606-22.1 3.46-27.61-21.188-8.68-30.462"/><path fill="#fefefe" d="M1367.03 800.746c4.39.096 6.57.364 9.19 4.092.37 3.972.68 2.386-1.29 5.977-4.86 1.164-6.22 1.721-9.44-2.386-.67-3.552.03-4.509 1.54-7.683m-938.92 94.532c17.543 1.787 18.374 13.153 20.548 27.847 5.014-.665 10.177-1.197 15.213-1.776 21.918 14.305 11.617 29.648-7.535 38.828 1.898 9.418 4.43 18.178.137 27.257-9.259 19.586-28.684 2.484-39.079-2.987l-.649-.334c-5.567 5.613-12.99 6.507-20.761 8.502-31.344-12.443-13.678-26.294-10.318-37.226 2.744-8.923-17.205-3.895-13.414-30.104 6.869-7.359 12.126-12.64 22.747-8.816 3.107 1.119 5.074 2.039 8.334 1.811 13.292-6.097-.381-19.456 24.777-23.002"/><path d="M418.669 932.204c2.731.707 6.634.973 9.239 1.899 6.626 2.353 13.216 11.714 10.056 18.796-3.094 6.932-6.681 8.791-13.221 11.706-21.808 5.27-22.848-28.371-6.074-32.401"/><path fill="#fefefe" d="M420.866 942.269c3.208 1.14 4.536 2.306 5.909 5.206-.223 3.285-1.294 4.295-3.225 6.871l-3.511-.472c-1.882-3.477-.215-7.841.827-11.605m950.334-75.81c6.78.974 7.84 1.382 14.17 4.356 1.07 1.702 2.16 3.389 3.28 5.061 9.75 14.544 16.76-2.699 24.41.775 14.65 6.649 11.93 13.382 5.69 24.799-1.01 1.841 5.08 7.996 6.66 10.656a17.77 17.77 0 0 1 1.97 13.656c-1.46 5.772-10.43 19.973-13.58 19.627-18.65-2.054-6.7 9.844-22.34 19.202-19.72 2.301-25.49-.947-29.22-18.193-1.43-3.88-9.11-3-12.04-3.059-24.4-.497-30.37-12.811-23.89-34.86 10.05-9.53 13.19-7.804 24.52-12.468 4.13-1.699-.21-17.757 4.75-22.562 5.46-5.292 8.01-5.961 15.62-6.99"/><path d="M1373.07 902.959c2.96-.204 5.93-.135 8.88.207 11.69 1.302 15.53 12.815 9.94 22.194-2.42 4.06-5.41 5.933-9.19 8.661-11.66-.363-15.75-5.605-20.94-15.332l.14-.503c2.59-9.186 3.11-10.68 11.17-15.227"/><path fill="#fefefe" d="M1375.32 913.691a5.446 5.446 0 0 1 6.73 8.563 5.44 5.44 0 0 1-7.68-.887 5.45 5.45 0 0 1 .95-7.676M239.869 831.733c12.37.837 16.603 6.623 22.035 16.579-.485 4.722-1.39 7.937 1.206 11.849 3.12 2.689 10.065 3.288 14.416 4.043l-.052-.1c14.861 12.619.89 23.54-8.97 31.887 10.993 17.252 10.265 31.09-10.972 38.358-17.609-5.06-16.653-14.589-23.15-16.39-9.139 6.908-11.855 9.035-22.939 11.868-17.329-9.367-14.977-16.501-9.808-33.504-6.2-6.508-16.245-10.61-17.566-20.572-3.67-27.66 21.914-22.619 36.68-13.726 2.115-15.725 2.548-24.648 19.12-30.292"/><path d="M229.615 869.839c12.143-1.148 21.894 9.514 18.065 21.388-2.146 6.655-4.814 7.443-10.649 10.603-18.134 5.945-28.108-18.792-7.416-31.991"/><path fill="#fefefe" d="M230.779 881.642c4.099.072 4.964-.191 7.127 3.159-.081 3.273-1.19 4.418-3.006 7.064-4.203-.109-3.09.468-5.979-1.42-.888-3.018.657-5.669 1.858-8.803m1495.991-64.551.85.033c23.67.926 18.89 7.793 26.08 17.529 9.35 12.654 21.12-8.508 34.42 18.238-5.23 22.821-9.65 20.359-27.82 31.293-1.69 3.218-.27 11.844-.21 17.023-7.48 13.775-9.54 13.846-24.67 14.572-18.21-3.93-12.09-20.685-31.65-8.406-19.84-5.176-13.46-11.011-9.73-25.158 2.56-9.695-18.13-8.044-14.99-19.597 3.2-11.771 16.79-10.245 25.58-14.252 3.29-1.495 5.47-15.823 6.58-20.215 5.46-5.856 8.63-7.459 15.56-11.06"/><path d="M1731.62 851.195c8.66 1.075 14.67 6.041 15.74 15.045.54 4.586-.83 9.192-3.77 12.751-4.21 5.176-7.36 5.482-13.54 6.167-26.31-4.786-19.34-31.108 1.57-33.963"/><path fill="#fefefe" d="m1730.84 861.666 3.13.62c4.85 4.916 2.4 8.835-1.93 13.082-5.13-1.464-7.54-2.013-7.86-7.726 2.44-4.346 1.9-3.143 6.66-5.976M351.178 766.874c19.638-.692 14.346 16.028 23.48 21.95 7.248 1.094 19.599-10.435 27.283-1.602 14.102 16.211-3.114 26.308-13.198 34.877-5.55 4.716 11.465 17.953 4.408 28.55-12.094 18.161-23.424 6.468-35.538-3.297-5.692.632-5.698 4.211-9.718 7.392-25.842 20.441-42.49-2.49-23.348-27.887-12.447-7.191-25.739-18.713-18.002-34.94a15.23 15.23 0 0 1 9.204-7.995c8.465-2.719 13.897-.01 21.115 3.769 2.566-11.642 3.339-15.489 14.314-20.817"/><path d="M354.6 801.352c1.663.104 7.863.121 8.737.672 13.917 8.771 10.134 23.35-3.1 29.317-14.126 4.451-24.972-8.218-18.716-21.485 2.723-5.774 7.471-6.602 13.079-8.504"/><path fill="#fefefe" d="M355.732 811.421c1.541-.093 2.086.293 3.532.872l.887 2.639c-.662 3.911-.847 4.322-3.422 7.335-4.004-1.113-4.128-1.061-5.776-3.795.358-3.296 2.414-4.746 4.779-7.051M1466.51 683.214c23.66-1.599 19.76 12.726 27.42 26.153 7.33 4.863 15.73-3.477 23.24 3.484 4.11 3.815 11.55 7.975 7.47 13.806-25.25-3.836-29.74 18.812-29.7 38.047-6.49 5.071-9.43 12.503-13.1 15.016-9.03-2.001-13.26-.42-21.32 3.602-5.84 6.224-6.06 9.707-8.11 17.964l-12.41-.785c-1-18.113 1.12-14.576-10.4-28.164-10.59-12.506 7.09-14.342-12.24-33.878 22.18-7.712 24.02-19.601 23.42-41.417 7.88-7.545 15.4-10.715 25.73-13.828"/><path d="M1466.57 704.541a12.63 12.63 0 1 1 6.89 24.293c-6.62 1.66-13.36-2.239-15.23-8.805-1.86-6.566 1.83-13.425 8.34-15.488m-3.98 39.163c16.35 2.286 15.03 16.075 1.99 23.464-7.04-.205-13.7-4.105-11.89-12.158 1.5-6.644 4.37-8.026 9.9-11.306"/><path fill="#fefefe" d="M1778.86 682.407c12.73-1.618 15.41 3.51 19.5 14.496 5 13.44 13.31 3.554 22.86 3.547 3.1-.002 7.01 1.554 9.98 2.689 18.19 26.313-1.79 26.695-15.43 41.975-1.79 2.004 2.3 13.708 3.23 16.848-1.48 7.921-3.86 14.761-12.22 18.163-3.19 1.299-11.27.758-14.35-.786-4.43-3.806-8.73-10.036-12.32-14.809-5.27 4.53-12.24 9.869-19.3 10.607-9.32.973-21.85-3.333-22.56-14.22-.71-10.767 5.52-17.092 11.75-24.709-.81-7.137-13.66-10.231-7.22-20.895 5.42-8.977 9.21-3.83 16.59-6.086 7.64-2.334 4.68-15.243 7.6-20.72 2.48-4.455 7.28-5.178 11.89-6.1"/><path d="M1777.71 722.285c22.47-3.803 27.92 16.603 11.04 29.531-21.3 1.648-26.3-19.027-11.04-29.531"/><path fill="#fefefe" d="M1782.98 731.418c2.59 1.417 2.69 1.809 4.44 4.304.13 3.998.44 2.39-1.82 6.273-4.13-1.212-3.69-1.009-5.31-3.883.34-3.496.58-3.868 2.69-6.694M540.04 691.267c22.015-2.839 29.38 8.792 35.076 28.42.652 2.247-.568 4.572.306 8.11 5.27 3.675 42.118-9.799 25.81 25.336-.76 1.609-9.033 10.291-8.999 11.481.273 9.454-8.004 11.245-13.706 20.337l-.602.98-4.782-7.402c-12.023-4.341-14.703-6.016-26.458-.666-4.098 3.64-5.06 4.878-8.297 9.358-5.376-24.429-20.338-32.34-43.516-22.366-2.867-8.368-6.044-26.302 1.961-34.467 6.442-6.571 11.032 5.659 18.569 6.279 10.167-7.665-9.985-36.753 24.638-45.4"/><path d="M551.556 730.022a37 37 0 0 1 4.464 1.642c10.046 4.408 16.071 22.604 1.913 26.871-1.974-.072-7.442-.16-8.918-1.263-9.816-7.332-12.009-23.685 2.541-27.25"/><path fill="#fefefe" d="M204.128 683.25c18.493-1.755 26.401 8.549 30.945 24.87-2.211 6.538-5.529 14.189-4.598 20.885.835 6.006 4.32 7.236 8.758 10.884 6.264 5.149 6.058 11.069 6.794 18.557-6.411 13.571-8.327 15.819-22.797 18.949-17.553-5.754-15.106-21.003-29.432.398-4.499 4.319-7.258 5.724-12.903 8.236-4.813-2.133-8.515-4.452-12.993-7.146-7.406-14.76-1.226-14.982.61-27.971 1.557-11.012-15.35-3.718-16.307-22.838-1.275-25.49 12.481-23.586 31.459-19.231 9.546-3.881-3.88-18.563 20.464-25.593"/><path d="M195.066 718.183c16.876-.543 18.307.636 20.005 17.528-4.01 8.262-4.955 10.846-13.103 14.95-7.784.626-15.132-2.632-17.892-10.367a16.03 16.03 0 0 1 .801-12.593c1.862-3.707 6.122-8.189 10.189-9.518"/><path fill="#fefefe" d="M197.145 728.739c3.17-.269 5.15-.241 7.12 2.279-.224 3.383-2.282 5.161-4.531 7.896-2.338.889-1.388.731-4.11.029-2.805-4.497-.997-6.666 1.521-10.204M1608.13 875.038c22.01-.943 14.57 9.259 24.26 21.113 4.03 4.925 25.09 2.428 24.79 16.379-.37 17.308-9.77 19.165-22 27.217-4.63 2.965 2.46 14.947 2.34 18.961.77 12.979-14.55 15.962-24.89 17.134-6.21-3.016-7.25-3.688-12.39-8.46-.59-1.55-1.84-4.92-3.23-5.7-4.75-2.679-15.41 4.132-21.57 3.657-5.68-.178-9.85-2.325-13.82-6.464-17.1-17.818 5.49-20.901 15.17-28.261 3.85-9.901-21.52-21.608-.3-36.429 10.4-7.267 9.38-.642 18.12-2.834 8.58-6.412.65-11.902 13.52-16.313"/><path d="M1606.6 910.032c18.08-.564 26.08 22.014 2.8 29.757-20.23 1.593-22.18-24.175-2.8-29.757"/><path fill="#fefefe" d="M1608 920.613a4.755 4.755 0 0 1 4.5 4.625 4.76 4.76 0 0 1-4.26 4.847 4.754 4.754 0 0 1-4.61-7.105 4.76 4.76 0 0 1 4.37-2.367m-242.35-251.712c11.74.312 16.61 11.456 22.3 19.806 8.46 12.364 20.46-7.982 31.01-4.57 8.88 2.874 13.76 20.385 12.05 28.804-3.23 15.877-19.82 13.691-28.59 19.49-.75 8.011 14.39 16.059 15.2 24.73.81 8.793-9.93 9.782-16.05 9.567-.97.235-5.07 1.342-5.75.198-12.87-21.462-23.48-34.406-49.67-18.949-9.23-7.136-22.25-7.364-27.28-19.65-5.72-13.946 16.75-19.575 25.06-22.655 2.33-4.731-1.86-12.204.93-19.108 3.56-8.807 12.65-13.954 20.79-17.663"/><path d="M1369.62 694.677c19.06-.609 25.62 19.25 9.54 28.186-22.87 1.197-25.96-18.464-9.54-28.186"/><path fill="#fefefe" d="M1372.58 705.145a4.25 4.25 0 0 1 3.87 7.517c-1.36.879-3.1.909-4.48.079a4.25 4.25 0 0 1-2.06-3.99 4.25 4.25 0 0 1 2.67-3.606m-547.404-37.868c15.175-2.132 35.497 3.234 50.611 5.435-11.371 34.44-15.404 64.976 4.804 97.144-7.565-2.452-12.083-4.255-19.337-7.531-23.615-10.738-46.646-23.475-61.222-45.672-17.582-26.774-2.982-44.291 25.144-49.376m-382.66 80.803c44.229-3.84 38.612 29.058 51.529 31.218 3.346-.774 6.578-4.339 9.194-6.786 17.315-3.346 21.175 1.655 25.036 19.329.42 1.923-15.067 16.783-17.15 18.947-3.638-.155-4.369-.237-7.983.795-6.773 6.085-.172 17.812 4.201 24.137-3.017 2.616-16.996 6.874-21.311 8.603-10.753 4.309-19.211 10.874-20.633-5.495-.19-2.198-4.623-6.068-4.071-9.711 7.778-4.004 6.668 6.818 18.645-10.213-1.082-6.536-.963-11.878-7.976-13.51-6.665 1.563-8.287 5.586-7.324 11.772-6.241 4.165-6.552-3.242-12.977 7.16-1.287 3.259-.798 7.711-2.351 8.921-10.894 8.492-18.39 3.965-26.296 16.041-.012 6.411.924 9.946 1.832 16.217-1.594 2.295-11.448 6.32-15.745 8.741 10.91-25.745 24.397-46.936 45.049-66.154 5.462-5.082 23.748-14.894 20.193-22.515-12.389-7.588-31.929 7.538-44.34 9.677-.215.037-4.194-4.28-6.709-4.408-2.818-.145-5.892.184-7.871-1.766l.811-1.772c5.033-2.731 4.55.551 10.301-1.38 9.355-10.168-15.389-25.519 15.946-37.848"/><path d="M454.84 769.124c7.979-1.138 17.475 1.187 15.676 11.13-4.973 2.808-7.867-.355-13.463-.646l-1.623 1.486c-3.291 2.914-8.92 8.611-12.72 4.564-.126-8.221 6.13-12.208 12.13-16.534"/><path fill="#fefefe" d="M384.934 629.725c7.763 3.168 11.788 9.051 17.151 15.417 11.135-10.303 21.282-15.369 36.392-9.486 21.743 8.467-11.336 40.352-10.601 44.768 2.808 16.881 13.984 28.034-10.913 35.431-18.698 3.401-20.164-17.729-36.555-6.508-3.504 2.398-9.478 3.421-13.669 4.174-5.748-2.028-13.593-6.602-15.52-12.12-5.59-15.029 12.919-24.684 17.174-33.69 5.809-12.295.05-31.46 16.541-37.986"/><path d="M393.056 660.117c22.374-1.125 25.299 19.234 6.607 30.039a32.4 32.4 0 0 1-5.556-.242c-19.414-2.485-15.995-20.504-1.051-29.797"/><path fill="#fefefe" d="M395.295 670.295c3.807.804 2.549.096 5.243 2.408.017 4.245-.89 4.321-3.261 8.576-3.573-1.171-4.627-1.482-6.188-4.761.404-3.121 1.872-3.986 4.206-6.223m1276.975 34.606c11.53-.806 16.35 8.569 21.62 16.807-.06 15.87.84 9.099 11.09 21.413.82.984 2.92 9.051 3.45 11.082-7.14 11.397-5.74 6.686-16.49 12.966-8.9 5.471 7.3 17.027 4.63 25.018-3.61 10.852-16.24 16.515-26.53 13.831-2.48-1.725-4.18-5.78-5.71-8.631-6.51-10.324-11.55-14.881-22.51-20.495-4.74-11.804-6.87-16.105-20.12-17.028-10.91-16.417-7.23-28.362 10.83-36.681 6.13 3.274 10.85 8.168 17.87 5.913 8.92-6.276.74-17.326 21.87-24.195"/><path d="M1661.79 747.289c22.94-2.833 22.66 22.251 4.31 30.024-13.76-.569-16.5-2.673-19.52-16.222 1.17-1.822 2.38-3.62 3.61-5.395 3.77-5.401 5.14-7.246 11.6-8.407"/><path fill="#fefefe" d="M1660.93 758.392a4.92 4.92 0 0 1 5.07-.056 4.95 4.95 0 0 1 2.44 4.453 4.94 4.94 0 0 1-2.79 4.24 4.92 4.92 0 0 1-6.46-2.078 4.92 4.92 0 0 1 1.74-6.559m-469.75-91.077c17.52-.946 43.84-.98 53.58 15.987 15.4 26.85-34.37 58.183-51.94 68.603a910 910 0 0 1-34.95 18.191c21.42-33.577 18.91-60.588 7.08-97.343 6.85-.852 18.77-3.94 26.23-5.438m234.1 286.841c21.16-.853 7.34 14.759 10.93 24.171 3.53 9.265 18.86 1.867 23.44 16.184a21.2 21.2 0 0 1-1.52 16.659c-4.4 8.14-15.74 15.31-25.29 14.05-2.73-.36-9.37-4.13-12.07-5.56-9.56 11.38-12.56 18.13-28.26 15.44-12.04-7.42-6.01-19.75-9.62-22.62-13.07-10.39-18.53 1.85-31.95-17.762-1.57-47.371 40.62 4.483 59.93-36.676 4.74-1.472 9.59-2.655 14.41-3.886"/><path d="M1403.99 973.432c8.59-1.675 16.9 3.964 18.51 12.564 1.62 8.599-4.08 16.864-12.69 18.424a15.768 15.768 0 0 1-18.5-16.968 15.77 15.77 0 0 1 12.68-14.02"/><path fill="#fefefe" d="M1405.48 983.91c2.81-.875 5.8.658 6.72 3.447a5.39 5.39 0 1 1-10.39.583 5.39 5.39 0 0 1 3.67-4.03m393.28-149.601 13.61 7.595c-4.12 4.496-9.88 10.823-11.34 16.784.44 2.507.93 3.935 3.36 5.73 6.51 4.181 13.15-4.171 19.97-4.849 10.43-1.035 21.33 4.774 22.48 15.878 1.07 10.346-10.01 20.928-16.25 28.469 10.02 10.399 12.41 12.297 14.52 26.543-3.5 8.532-5.34 12.054-13.18 16.352-10.89 3.426-20.92-4.778-28.96-10.809-14.1 13.723-21.06 13.292-35.73.198 10.76-15.321 15.01-29.813 6.8-47.687 1.66-.76 3.31-1.566 4.93-2.418 25.81-13.72 14.26-33.812 19.79-51.786"/><path d="M1804.61 887.949c14.09-2.181 25.69 24.04 2.42 33.08-13.87.941-26.44-23.2-2.42-33.08"/><path fill="#fefefe" d="M1802.7 899.86c3.08-.017 3.71-.268 6.14 1.347 1.46 2.633.82 4.954.51 8.073-3.45.448-4.93-.118-7.37-2.245-.89-4.134-.69-2.835.72-7.175m-1241.731 1.084c6.549.319 16.129 3.584 15.885 11.36-2.463 3.279-5.023 5.251-2.34 8.951 11.373 6.625 29.509-4.151 38.362 7.547 4.44 5.867-4.027 18.023-9.834 20.561-7.59 3.316-13.529-1.814-21.196 2.883-2.632 3.835-2.001 10.455-2.066 15.346-6.474 8.984-7.844 11.626-19.23 11.406-9.058-5.367-6.828-4.468-10.326-14.425.029-.957-3.003-4.914-3.85-4.621-13.58 4.701-29.779 5.82-36.991-9.585-8.175-14.258 22.631-23.901 23.707-27.116 5.735-17.126 7.492-14.86 27.879-22.307"/><path d="M559.161 924.85c1.22-.03 3.726-.078 4.879.136a9.17 9.17 0 0 1 6.362 4.534c4.313 7.544-1.155 16.416-8.277 19.915-18.771-.234-18.11-16.317-2.964-24.585"/><path fill="#fefefe" d="M558.024 784.783c18.253 3.94 7.979 22.656 23.867 12.827 13.541-8.377 27.602-8.193 25.489 11.931-.655 6.239-5.12 11.028-5.449 16.284 1.628 3.062 5.038 4.603 8.146 6.515 7.796 30.677-3.892 23.392-21.604 24.724-6.073.457-4.245 13.428-13.154 16.72-6.3-.545-10.515-4.41-15.386-8.286-.971-.855-3.928-3.671-4.03-4.606-.774-7.056 8.446-14.518 15.242-13.45 1.836-.14 5.347-1.548 5.999-3.533 4.278-13.023.273-31.487-17.683-24.434-6.592 2.59-8.772 5.603-11.529 11.401-5.86.063-9.794.207-15.668.812-6.46-3.462-11.029-5.385-13.655-12.327.67-10.452 14.934-13.727 23.45-16.367 2.614-2.304 3.815-7.401 4.939-10.882 4.57-3.903 5.64-4.805 11.026-7.329m893.786 121.493 1.56-.298c2.47 1.137 8.09 13.486 16.12 20.512-.16.422-.32.844-.47 1.267-3.25 8.967-4.96 17.111-.6 24.929 8.67 15.517 26.26 17.415 39.01 5.957 2.31-2.074 22.94 7.175 27.07 8.855-14.41 5.873-28.63 13.152-39.44 24.57l-.93 4.073c1.62 4.279 1.72 2.455 5.36 6.099-2.69 6.83-22.67 9.65-29.81 10.3 3.91-20.588-.22-33.323-22.24-38.041.5-10.792 1.12-13.566-3.18-23.679-4.54-3.892-7.8-5.011-13.21-7.343-.46-2.406 2.93-6.744 4.27-10.631 3.28-9.501 3.28-13.641 3.16-23.286 3.47-1.199 9.57-2.415 13.33-3.284m60.59-136.126c13.4-.94 18.95 3.384 28.35 11.786l2.29 9.227c-6.36 4.611-16 12.986-14.52 21.721 2.54 14.929 11 13.137 22.32 11.056 5.71 2.479 13.59 22.297 17.36 28.134 1.85 2.862 5.18 7.74 6.76 10.469-1.72.267-7.53-2.363-9.55-3.175l-.44-.56c-9.5-1.373-11.9-5.912-15.86-12.991-4.1-2.623-6.1-1.857-10.34.46-11.21 6.128-17.77-.017-26.39-6.578 2.09-4.167 4.36-10.088 6.2-14.505-9.47-8.555-24.26-21.67-24.77-34.996-.32-8.128 2.56-10.993 7.67-16.76 4.46-1.912 6.14-2.284 10.92-3.288m197.74-194.59c4.62-.079 16.52-1.28 19.81.133 5.29 7.118 14.18 46.69 4.42 54.369-6.83 5.375-10.9-10.303-18.66-11.827-2.5 1.75-1.69 1.057-3.14 4.054-.28 1.056-.6 2.105-.94 3.146-4.48 13.747-22.7 14.383-28.09-.368-6.5-17.807-1.04-29.855 5.49-46.031 4.26-.221 17.45-1.881 21.11-3.476m-240.07 213.212c7.75-.423 10.88 1.938 13.98 8.87 4.81 10.778 7.87 17.379 16.28 25.762-.47.482-8.43 10.141-7.97 9.954-10.75 4.364-24.16.141-32.36 10.902-3.58 4.694-5.84 8.922-9.27 12.921-12.64-4.876-16.32-8.433-24.28-18.833-.3-4.916-1.46-11.046-2.26-16.004 22.45-24.076 27.7-3.436 38.25-9.692 4.18-7.574-2.36-15.402 6.88-23.245zm5.93 57.292c12.66-1.305 9.24 6.423 14.75 13.717 5.85 7.745 7.57 27.381 11.53 33.477 5.97 9.189 18.55 18.402 25.02 29.235-.52 2.114-.76 1.677-3 3.387-9.17.552-11.03-8.403-16.99-13.056-5 2.287-10.55 8.343-15.17 9.106-17.52 2.889-26.84-14.275-29.53-28.282 2.64-2.865 7.7-7.198 10.76-10.128-.94-6.27-24.77-17.306-6.72-31.24 3.75-2.892 4.43-4.142 9.35-6.216M308.448 586.895c11.61-1.186 9.812 11.098 25.796 3.551 4.47-2.11 11.807 6.039 12.045 13.095.441 13.081-2.738 25.432-11.346 36.054-8.871-14.065-23.544-9.945-36.098-3.879-3.651-17.523-7.268-37.098 9.603-48.821"/><path fill="#fefefe" d="M1672.49 588.724c1.22 4.377-5.94 19.795-1.53 33.898 6.54 19.783 17.74 38.138 27.63 56.611 22.86 42.683 31.42 81.292 40.8 128.078-1.59-.091-7.11-.358-7.64-1.071-4.37-5.832-3.41-24.474-5.76-32.745-8.65-30.425-20.84-62.723-34.51-91.128-7.05-14.673-18.5-27.654-23.88-44.422-6.72-20.946-3.94-30.715 4.89-49.221m64.26-27.113c6.04 1.479 12.43 11.745 15.77 17.301 13.99 23.225 6.34 52.892-.12 77.491-4.93 18.817-16.93 36.979-21.79 56.34-1.27 3.937 1.01 3.591-1.37 6.646l-2.21-4.676c2.84-15.26 2.75-32.276 6.58-47.202 2.15-8.389 7.36-19.415 10.1-27.901 1.52-4.679 6.6-18.262 6.65-23.112.14-12.087-5.49-30.319-8.75-42.02-1.16-4.153-3.31-7.032-4.66-12.066zM245.671 707.893c5.165-.337 21.234-.768 23.614 3.769-5.35 11.751 7.243 24.741 4.266 32.91-1.668 4.576-8.189 40.442-9.007 41.57-6.949-4.112-9.422-5.611-17.174-7.932l.782-1.228c11.856-18.794 10.483-39.319-9.519-51.487 3.097-5.895 5.965-11.02 7.038-17.602m1272.419 28.133c8.45-.038 17.18 5.073 24.93 8.738l12.18-4.705c3.6 1.54 7.32 3.386 10.88 5.08 5.65 8.876 6.74 14.321 9.19 24.335-5.3-3.279-10.84-7.025-16.09-10.456-14.96-8.735-14.51-3.909-17.4 6.798-.85 3.151-11.3-4.474-13.73-4.809-7.36-1.015-16.42-.227-24.12.095 1.16-13.513 1.4-18.62 14.16-25.076m-95.3 110.665c10.02 9.011 6.62 13.051 25.15 19.703 2.48 7.154 3.85 10.329 8.74 16.115-1.76 3.665-3.61 8.474-5.2 12.303-5.72 1.522-12.92 5.108-17.32 1.005-.55-3.176-.37-5.634-.29-8.817-2.9-16.503-20.8-24.097-34.77-17.809-2.34 1.05-8.2-.911-8.71-5.145l1.1-1.096c12.49 3.5 24.55-6.657 31.3-16.259M278.431 714.283c10.131 3.628 5.326 7.322 11.529 11.928 3.271.327 1.999.412 5.535-1.502 2.424 7.573-7.933 29.426-8.873 38.442-2.205 21.154-4.914 42.215-7.872 63.282-.612 4.363-.092 8.521-.627 12.791.337 4.76 1.897 10.321-3.322 12.209-9.211-5.972-1.165-31.858-.779-40.848.968-22.58 4.317-43.745 10.352-65.331 2.078-7.433-7.354-23.578-5.943-30.971M1502.54 930.125l1.24-.096c20 11.44 16.28 2.422 32.13 4.393l.89 1.239c-.2 24.206-11.85 17.518-26.44 8.843-1.3-1.519-1.34-1.072-3.86-1.579-5.52 1.783-5.29 7.07-9.18 9.905-10.6 7.722-18.38-.567-21.16-10.737-.43-1.572 1.09-8.789 1.45-10.607 11.81 1.991 13.63 1.897 24.93-1.361m119.25-160.466c4.06 1.363 6.29 1.488 7.25 5.858-6.58 9.356 8.84 18.507 12.01 29.678 2.21 7.798 12 39.621 9.19 46.154l-2.18-1.09c-9.63-14.812-19.75-27.654-30.69-41.459a335 335 0 0 0 3.72-5.747c7.42-11.947.84-20.317-1.56-30.399zM205.939 779.725c5.84 4.229 2.557 11.929 2.388 18.988-17.714 14.205-4.58 19.933 10.144 25.355 3.483 1.283 5.932.69 9.501.079-5.615 3.838-7.902 5.545-11.246 11.428-.907 2.625-1.243 4.342-3.144 6.364-8.833-12.168-14.43-15.376-26.967-22.672 1.665-6.783 3.138-16.887 4.388-23.985 5.99-5.085 11.096-8.736 14.936-15.557m1672.981 3.402c9.38 1.515 26.46-3.711 29.65 9.828-2.2 3.004-42.25 13.657-50.56 17.075-4.36 1.763-6.99 3.543-11.13 2.27l-.55-2.156c1.32-4.242 10.17-17.859 13.32-20.769-.55 4.886-2.57 11.747 2.38 14.05 11.13-2.373 2.02-11.14 16.89-20.298M466.868 715.986c18.414.133 23.869 18.56 15.336 31.455-2.65-.093-5.122-2.213-7.728-3.798-9.143-4.479-14.876-5.992-24.737-7.575 2.495-12.644 4.825-15.947 17.129-20.082m-232.355-32.451c13.794 2.289 28.547-.798 47.464 3.087 7.95 8.557 8.498 11.056 11.982 21.9l-1.808.783c-11.405-9.71-33.588-12.64-48.179-12.701-3.406-5.775-4.658-8.173-9.459-13.069m161.37 56.185c10.982-.222 16.756 5.839 22.164 14.752l-2.213 11.812-7.29 6.663c-1.059 2.051-1.105 2.216-2.754 3.789-3.157-.068-10.262-3.277-14.05-4.563 1.501-9.479.759-24.272 4.143-32.453M285.439 587.366c4.667 2.825 1.486 27.242 1.794 34.318a68 68 0 0 0 3.1 17.255c2.679 8.536 5.515 14.979 13.581 19.07l.945.472c1.263 2.963.385 4.976-.369 8.207l-1.289.573c-26.212-22.145-34.194-47.956-17.762-79.895M1843.67 745.164c17.42-2.905 22.6 17.876 26.18 29.714l-7.78 8.537c-.1-3.629-1.16-8.406-1.85-12.083q-.255-.837-.54-1.663c-2.88-8.062-8.43-10.185-15.66-13.747-4.7 1.52-10.23 3.872-14.9 5.716-1.04-4.229-2.05-6.897-3.62-10.981 6.75-2.726 10.91-4.35 18.17-5.493M340.826 701.325c-.561-.535 7.41 12.495 8.138 13.648 4.706 7.449 18.784 6.883 20.953 8.491-1.329 3.605-8.43 11.332-11.346 14.917-1.247 2.262-4.039 7.691-6.379 8.273-2.199-2.231-16.224-40.003-15.63-42.816zm1371.824 68.55c3.45 3.372 6.21 32.764 6.75 39.071-10.11 4.022-12.79 7.904-17.91 17.319-1.6-2.33-1.57-11.046-1.8-14.613 7.6-17.679 10.65-15.872 4.53-36.153zm54.6 13.473.76.758c1.38 11.577 3.21 31.068 2.75 42.295-2.03 1.326-5.1.818-7.97.843-1.41-3.054-4.55-6.966-6.64-9.787-.06-5.741-.64-27.647.94-31.852 4.04-.62 6.22-1.141 10.16-2.257m-1527.102 3.077.795.697c-1.074 16.338 2.102 21.089 10.75 32.772l-.49.733c-6.232-.833-15.316 2.269-18.031-.471l.341-4.925c-.983-19.361-13.134-14.008-15.751-23.056.589-3.598-.08-2.798 2.067-5.018 6.655 3.525 13.412 1.228 20.319-.732M356.42 603.29l2.486 1.235c3.363 4.46 2.653 12.159 1.571 17.347-5.303 25.439-18.234 39.499-43.202 44.775l-.551-.57c-.298-3.08-.625-1.918 1.19-4.363 27.002-7.84 38.665-31.592 38.506-58.424M1587.2 770.25c10.31-.209 14.42 2.239 21.96 9.948 6.19 6.331 7.23 13.068-.38 19.147-5.63-4.44-22.02-19.238-26.75-24.096l.04-1.16zm201.44 19.034c5.39 1.557 9.31 1.828 14.82 2.397-4.41 13.361-10.63 20.782-14.65 37.068 0 1.8-.43 2.398-1.17 4.006l-2.79.564-1.97-1.418c-3.81-8.773 3.41-32.621 5.76-42.617M318.181 871.569c2.955.894 3.428 1.196 6.016 2.902-.494 6.219-3.67 24.157-6.224 29.997-.701 1.604-2.718 1.649-4.772 2.184l-5.358-.711c-7.871-7.694 5.641-26.6 10.338-34.372m1371.759-56.173c1.01 3.433.26 14.99 2.89 24.486-6.3 1.88-8.47 2.641-14.27 5.689-.71-6.764-4.36-23.034-3.16-26.644 3.01-1.929 9.7-2.233 14.54-3.531m-43.44-23.823c13.76 8.567 26.64 51.381 18.48 65.763l-.99 1.225c-1.64-1.706-3.45-16.922-3.99-20.578-2.67-18.122-6.74-29.793-13.5-46.41m278.97-429.978 3.53-.242c8.65 6.681-17.84 25.152-23.09 25.703-3.16 1.4-4.22 2.031-7.1.201l-.15-2.234c3.25-7.439 19.95-18.613 26.81-23.428M319.388 379.699c1.711 2.085 1.792 2.149 2.04 4.756-3.326 11.58-13.604 24.794-23.386 31.683l-2.405-2.979c-1.877-10.197 16.069-28.02 23.751-33.46m116.619 337.37 5.646 4.007c-.483 5.044-.52 11.171-.687 16.316l-13.582 5.139-.61.878c-1.095-3.172-2.938-13.389-4.725-19.163 6.993-1.841 8.259-2.768 13.958-7.177m95.387-190.398c3.807.622 3.423.584 5.216 3.662.83 7.727-7.95 22.546-11.735 30.068-3.687-.311-4.107-.915-5.616-3.921-.431-9.607 6.647-22.116 12.135-29.809M1918.84 425.778c2.49-.058 3.25.341 4.72 2.092.17 8.039-17.88 18.822-24.57 22.964-3.15-.395-2.11.153-4.41-1.759l.12-2.565c4.14-7.897 16.4-16.324 24.14-20.732m-1723.7 62.043c2.785 3.293 2.306 1.885 2.754 5.543-3.872 10.44-8.88 19.405-17.103 27.086-1.282-.727-2.013-1.375-3.165-2.273-2.708-8.258 10.253-26.981 17.514-30.356m1711.43 80.199c4.23-.136 4.77.104 7.07 3.286.09 6.064-11.72 16.752-16.48 21.836-2.81.249-3.24.318-5.86-.645-5.68-7.118 10.45-18.786 15.27-24.477M117.195 384.528c3.436.326 3.538 1.675 4.431 4.426-.897 8.839-9.893 21.941-15.406 28.979-2.651-1.88-3.458-2.212-4.339-5.269.376-8.135 9.749-22.828 15.314-28.136m1587.815-28.79c2.25.905 2.14.827 3.46 2.877.33 6.803-7.8 24.658-13.95 27.945l-3.64-1.86c-3.99-8.02 8.35-23.519 14.13-28.962m-128.63 108.706c2.13 1.698 4.33 2.845 4.54 5.628.77 10.431.09 21.107-5.53 29.872-10.03-3.053-3.19-28.921.99-35.5m265.82 75.168 4.18.884c5.93 6.34-.19 23.006-4.54 29.021-14.09.564-2.12-23.485.36-29.905M306.789 863.176l1.808 1.854c-.718 3.484-6.421 10.966-8.533 14.99-2.722 5.188-4.433 18.526-6.667 21.271-1.312-1.212-2.47-2.689-3.626-4.062-1.345-4.115 4.493-20.102 5.617-28.837 4.645-2.615 6.394-3.459 11.401-5.216M1957.69 598.521c1.81.413 2.33 1.166 3.68 2.449 1.81 6.734-3.87 23.666-9.55 28.384l-2.9-.07c-5.58-5.301 3.27-25.523 8.77-30.763M137.228 419.587l3.673.677c6.411 7.402-2.738 21.381-8.877 26.655l-3.636-.429c-5.985-5.564 5.125-20.855 8.84-26.903M1493.9 515.422l2 1.11c4.42 6.656 6.86 18.428 6.91 26.355-1.8 3.374-.69 2.231-4.94 4.009-5.31-5.055-8.59-18.112-8.09-25.364.19-2.76 2.18-4.377 4.12-6.11m-61.23 16.174c2.03.351 2.29.311 4.21 1.2 2.09 8.483-2.12 23.443-5.52 31.452-1.32.211-2.96.335-4.31.478l-1.64-1.742c-2.2-8.575 3.98-23.397 7.26-31.388m337.66-89.466c4.2-.292 5.34-.723 6.77 3.164-1.37 5.662-14.26 14.849-19.37 18.945-2.87.876-3.54-.001-6.8-1.411-.37-5.727 14.68-16.769 19.4-20.698M529.688 889.638c3.405.981 7.128 5.544 9.799 8.311-7.223 4.48-11.507 8.164-18.058 13.648-2.816-2.7-3.436-3.024-7.225-3.948l-.927-.219-.483-1.179zm977.932-478.966c1.78 1.132 1.79 1.348 3.01 2.991 1.51 6.281-1.53 16.877-4.84 22.408-2.95 4.932-3.4 4.618-8.17 6.05-3.78-7.697 4.69-25.316 10-31.449M236.047 565.473c5.911 1.695 11.668 19.204 11.818 24.983.063 2.439-2.446 3.86-4.106 5.194-7.955-4.766-13.492-21.565-7.712-30.177M167.43 415.501c2.402.483 2.472.594 4.454 2.12 3.763 8.845-6.629 19.221-12.528 24.76-2.551.638-3.177-.32-4.498-1.968-.294-6.897 8.204-19.535 12.572-24.912m1736.55 78.727c1.24.282 2.75.79 3.99 1.163 4.55 7.051-11.21 19.333-16.34 24.163l-3.12-.136-1.15-1.862c-.01-3.835 2.27-8.232 3.83-11.867 6.11-4.011 7.89-6.086 12.79-11.461m-362.51-168.391 2.94.822c4.36 6.575-11.69 19.605-16.71 24.131-2.36.244-2.23.251-4.3-.929l-.55-2.267c2.71-8.624 11.3-16.661 18.62-21.757m356.1 24.2 3.14.328 1.3 1.623c-.81 8.86-11.77 16.68-18.51 21.513-2.42-.127-1.52.093-3.67-1.585l-.05-2.94c3-6.796 10.8-15.661 17.79-18.939M350.791 867.047c-.315 2.007-18.183 36.845-20.056 38.289-.638-2.619 3.716-25.124 4.276-30.623 6.586-2.5 9.719-4.26 15.78-7.666m202.5-434.384c6.867 9.185-5.193 23.985-12.543 29.227-4.75-9.28 4.863-25.049 12.543-29.227m-90.877-20.295 2.763 1.387c4.415 5.993 7.581 20.742 3.307 27.156-2.229-1.071-4.391-2.455-6.517-3.736-2.334-8.816-6.475-17.68.447-24.807m1270.456-41.789c1.44.334 1.46.691 2.47 1.858-.36 6.79-13.85 19.416-20.09 21.08-1.33-.691-1.99-1.287-3.18-2.183-1.86-7.314 14.92-18.896 20.8-20.755M405.612 516.812c9.078 4.331 17.73 13.863 13.35 24.333-7.609-3.423-14.073-10.405-16.231-18.685-.595-2.279 1.443-3.843 2.881-5.648M1566.63 334.731c3.83.967 2.7.151 4.86 2.749-.65 7.759-12.21 13.718-18.43 17.149-3.81-.622-2.96.09-5.26-2.193.61-6.3 13.52-14.324 18.83-17.705M511.326 353.708c2.474 1.275 2.713 1.489 3.951 3.978.324 9.676-3.924 19.555-10.205 26.808-8.082-5.845 2.241-23.855 6.254-30.786M136.585 569.624c3.112.617 2.418.017 4.344 1.943.926 7.958-6.059 17.742-10.73 23.856-3.861-.314-4.165-.406-5.865-3.388-.05-6.771 8.068-16.498 12.251-22.411m1479.875-89.752c3.8.647 3.05-.032 5.58 2.155.16 7.468-10.01 14.922-16.84 16.458l-.87.432c-3.01-.55-1.98.015-4.28-1.897l.31-2.346c3.48-5.25 10.9-11.309 16.1-14.802M264.71 561.368c9.844 1.915 7.897 22.419.981 28.16-1.34-1.075-4.111-3.224-4.592-4.779-1.673-5.412 1.013-18.648 3.611-23.381m320.488-69.859c4.452 1.552 9.649 8.393 11.039 12.954 1.881 6.175 1.39 8.16-1.706 13.406-8.904-1.888-11.131-18.371-9.333-26.36m-213.619-40.931 3.358.494c6.202 6.651-7.616 18.351-12.404 22.796l-3.193-.506c-4.496-5.416 8.332-18.592 12.239-22.784M1793.56 614.699c1.59.272 2.03.493 3.52 1.014 4.77 8.189 2.05 17.19-3.17 24.389l-3.44-.52c-6.22-5.25-.29-19.072 3.09-24.883m92.62-51.127c9.39 7.502-2.33 21.118-9.6 22.89l-1.78-.743c-3.62-6.11 6.59-19.403 11.38-22.147m-168.38 74.189c4.01 1.526 7.02 2.187 9.22 5.584-1.01 3.09-6.67 7.692-9.76 11.182-4.54-.592-9.03-1.282-9.49-6.168 2.4-4.694 5.82-6.226 10.03-10.598M199.929 625.157c9.821 1.2 18.427 5.282 17.709 16.717-10.333.38-18.958-5.571-17.709-16.717m51.789 166.132c4.975 1.261 7.931 4.319 11.464 7.805-.191 8.996-.458 14.029-1.775 22.895l-.722-.707c-1.275-10.882-10.593-19.317-8.967-29.993m86.252-396.514c12.423 3.092-3.945 16.724-8.413 20.751l-3.502-.457-1.18-1.586c-.082-5.647 9.018-14.14 13.095-18.708m1482.16 416.62c6.21 2.013 11.63-.033 15.22 3.849-.45 3.936-.58 3.073-3.18 6.631-5.3 2.155-11.63.607-15.31-3.72 0-3.819.37-3.036 3.27-6.76m-247.11-252.069c8.42 3.019 10.18 13.11 6.69 20.231-12.11-1.672-8.87-11.23-6.69-20.231m-1257 80.713c4.662.759 9.608 1.51 9.268 7.262-2.058 2.34-2.939 2.519-5.875 3.684-5.66-3.464-8.79-1.932-13.49-5.912l.162-1.655c2.686-2.373 6.335-2.665 9.935-3.379m-24.004 41.493c6.551.352 8.222 1.363 13.975 4.375.176 7.237.126 10.873-.642 18.119-3.376-.924-5.484-10.108-7.565-13.712-1.977-3.423-3.305-5.576-5.768-8.782m36.176 36.182c4.749 3.08 9.146 17.077 9.676 22.738.198 2.117-2.363 3.521-3.941 4.856l-1.334 1.059c-2.512-1.856-3.153-21.723-4.206-27.596zm67.597 3.732c12.41 3.166 16.125.633 18.018 13.709-4.907-2.714-9.914-3.131-14.873-5.56-4.227-2.07-3.212-4.18-3.145-8.149m-75.023-38.552c4.498 1.36 13.651 2.678 14.001 7.68l-3.466 3.339c-2.418.502-4.268 1.739-6.969 2.596l-1.828-1.222c-.466-4.247-1.067-8.173-1.738-12.393m983.944-151.115c.23 5.298-1.5 19.149-8.21 19.425-1.77-2.603-1.81-3.02-2.1-6.168 1.68-6.2 5.48-9.064 10.31-13.257m10.14-69.932c.31.338.83 1.621 1.06 2.11-2.01 9.916-7.38 15.704-14.75 22.042l-.61-.875c-.31-4.776 10.74-18.341 14.3-23.277M502.459 919.946c2.611.034 4.732.557 6.523 2.486l-.283 2.142c-2.528 2.724-3.436 3.042-6.649 4.609-3.516.044-5.972.42-9.075-1.135l-.371-1.433c2.085-2.85 6.623-4.904 9.855-6.669m250.04-467.14.94 1.351c-1.189 7.642-6.136 15.122-12.106 19.955l-.838-1.308c-.221-6.742 7.537-14.42 12.004-19.998m524.811-29.342c3.79 2.166 13.02 20.477 14.63 24.797l-1.7-.132c-8.49-6.049-10.76-15.042-12.93-24.665M434.942 850.542c1.479.653 8.856 9.398 10.901 11.587l-1.07 1.857c-2.31 1.104-2.774 1.238-5.296 1.695-5.027-3.155-6.671-9.784-4.535-15.139m283.529-368.935c5.936 3.359 10.464 15.512 9.606 22.23-5.824-5.918-10.446-13.675-9.606-22.23m554.359 14.945 2.96 1.609c3.33 5.862 7.13 14.348 8.62 20.929-8.07-3.062-10.76-14.827-11.58-22.538m39.63-102.85 1.02 1.15c-.7 7.803-4.98 14.698-10.31 20.228l-.7-1.459c2-6.279 5.41-15.078 9.99-19.919m-550.688-4.938c1.817 6.495-7.011 16.365-12.53 19.369-.779-5.185 9.132-15.347 12.53-19.369m-16.27 149.073c1.175 4.056-3.863 14.366-5.707 18.55-3.129-9.051-.468-12.562 5.707-18.55m797.528 265.682c3.17 2.484 2.18 1.178 3.67 5.015-.34 3.621-1 4.331-2.95 7.242-1.22-.541-2.06-1.208-3.17-1.958-1.08-3.985.61-6.084 2.45-10.299"/><path fill="#fefefe" d="M212.391 807.547c7.519-.739 9.135 1.163 11.145 7.862-5.489-1.221-10.539-2.072-11.145-7.862m512.591-394.863c4.543 3.022 7.203 11.092 8.862 16.066l-1.987-.603c-4.379-4.804-5.363-9.198-6.875-15.463m17.262-53.852c3.671 4.021 4.774 11.243 3.347 16.468-3.881-2.84-3.373-12.143-3.347-16.468"/><path d="M984.114 847.45c29.456-2.848 43.846 3.27 72.146 6.755 12.44 1.112 25.14-.937 37.55-.961 36.81-.072 37.82 33.724 37.52 61.596 11.89 1.177 36.48 2.754 47.97 6.587 1.24.417 1.23 1.892 1.56 3.342-2.96 8.975-96.17 57.563-110.69 64.877-17.06 8.592-50.29 3.914-70.555 3.235-53.302-4.889-108.402-5.031-161.907-9.829-7.316-.656-35.398-1.118-39.673-5.698-1.06-11.111 39.967-38.439 50.003-43.549 13.682-87.18 42.753-37.823 63.474-69.952 27.302-9.67 43.183-15.453 72.602-16.403"/><path fill="#fefefe" d="m1116.73 889.39 2.23-.014c2.41 2.806 2.83 16.417 3 20.614.32 7.641-2.05 16.372-7.79 21.793-7.85 7.423-17.21 8.279-27.19 10.646-4.38 1.04-7.89 3.223-12.5 3.184l.4-.687c13.31-4.848 7.24-9.774 1.84-18.044-.91-1.391 1.85-7.165-3.14-10.742-3.58.184-8.05 3.201-9.53 6.454-2.02 4.463 2.25 9.49 3.93 13.829-2.17 1.622-2.99 2.299-4.85 4.258.12 6.967 12.2 11.578-11.37 17.186-7.09 1.689-25.09 6.276-31.15 2.719.81-3.535 9.32-3.666 11.79-10.049-1.71-5.808-6.52-2.303-10.44-7.552 1.87-4.209 4.05.48 9.66-3.861l.2-2.502c-1.95-5.209-5.32-8.107-9.93-10.961-3.05-.527-3.42-.413-6.31.729-2.08 4.242.71 3.293-.02 8.209-11.98 7.049-.95 10.318-1.55 15.807-11.89 6.727-3.02 6.712-3.73 11.838-.97.378-2.23.875-3.39 1.117-21.409 4.468-43.879 2.796-64.149-5.335-4.626-1.856 3.42-8.478 3.255-11.446-.081-1.444-.481-3.756-.689-5.383l.017-.77c3.047-4.781 4.596-7.26.762-12.453-2.838-3.844-4.709-4.939-8.973-3.764-2.312 2.849-2.199 2.154-1.686 6.753.249 2.23-4.89 2.338-4.835 4.614.121 5.054 1.655 15.706-.109 20.316-5.017 2.885-11.194 3.315-16.897 3.555-19.55.824-40.581 1.468-55.726-12.981-.188-13.305 1.356-25.575 6.29-38.048l1.174.921c25.351 19.663 46.419 6.147 75.146 6.485 13.239.156 26.005 2.791 39.204 4.896 24.336 3.882 49.606 1.287 73.586-3.77 31.48-7.654 26.82-23.013 63.47-27.561"/><path d="M1093.85 898.976c22.57-1.821 12.77 11.125 15.84 25.988.62 3.014-6.4 10.238-9.02 11.367-4.46-1.397-6.07-2.041-9.27-5.292-.91-3.252-1.02-1.914.44-5.015 2.73-1.017 3.41-1.122 5.64-2.908-1.81-3.54-11.78-5.563-4.36-13.372 1.88-1.981-.56-5.411.73-10.768m-201.496 24.638c4.002-.154 8.459 1.865 11.575 4.3 3.001 7.226-3.181 9.224-3.087 11.307.393 8.763 2.261 9.064-2.585 18.257-1.616.598-3.075-.047-4.823-.494-5.418-5.577-4.965-27.374-1.08-33.37"/><path fill="#fefefe" d="M981.466 856.475c28.214-3.353 52.364 5.495 79.684 7.863 26.38 2.287 37.05-12.596 55.92 13.005-7.66 1.953-28.95 6.734-33.57 11.215-23.4 22.721-46.71 22.397-79.26 24.105-20.828.667-40.867-6.681-61.449-6.606-17.28.339-34.382 3.206-51.667 3.504-5.998.104-20.487-5.038-21.477-12.022-1.582-11.152 24.462-11.403 31.926-13.91 10.257-3.444 11.812-3.331 17.734-13.427 16.736-7.964 43.757-13.001 62.159-13.727"/><path d="M982.921 862.506c2.777.447 8.912-.399 12.162-.391 12.187.033 47.637 1.217 51.877 14.831-2.31 14.56-36.89 16.579-48.404 17.402-22.193-.807-45.524 1.294-63.162-15.076-1.276-1.184-.48-2.727-.098-4.066 8.421-8.788 35.578-11.344 47.625-12.7"/><path fill="#fefefe" d="M993.646 872.487c7.754-.271 30.704.934 37.144 4.495l-.02 1.289c-8.44 5.308-30.46 5.683-40.951 6.154-16.458-.934-24.668-.629-40.337-6.287 16.473-3.137 27.657-4.447 44.164-5.651m136.584 51.264c9.33 1.657 20.38 3.828 29.68 4.514-25.77 17.708-72.4 44.621-101.9 55.091-7.85 2.788-62.098-.91-73.732-1.525a10183 10183 0 0 1-158.325-9.432c-4.847-.481-9.766-.874-14.624-1.305 10.343-5.627 23.285-18.001 33.987-24.495 2.347-1.424 3.825 5.378 6.18 7.88 4.065 4.319 9.963 7.691 15.233 9.784 23.542 9.35 38.85 4.331 62.446 2.851 15.553.003 31.246 7.469 46.725 7.647 26.74.307 58.25-2.52 84.2-9.406 7.98-2.608 16.91-8.928 24.62-11.453 22.5-7.364 36.44-5.039 45.51-30.151"/><path d="M639.227 703.03c21.417-.768 22.678 8.258 17.535 25.952-2.647 1.901-6.076 3.727-8.944 5.371-3.306.768-7.053.819-10.256-.416a16.7 16.7 0 0 1-9.497-9.245c-4.276-10.474 1.496-17.914 11.162-21.662"/><path fill="#fefefe" d="M641.042 713.38a5.536 5.536 0 1 1 5.234 9.75 5.538 5.538 0 0 1-5.234-9.75"/><path d="M659.423 905.889c9.178.119 10.459 2.062 15.478 9.103l.835 13.885c-4.047 4.446-6.428 6.628-11.87 8.997-25.403 1.48-23.691-22.381-4.443-31.985"/><path fill="#fefefe" d="M660.904 916.737c2.489 1.908 3.526 2.432 4.488 5.439-1.364 3.871-1.336 3.008-4.713 6.03-1.349-.197-2.535-.585-3.841-.962-2.901-5.535-1.004-7.718 4.066-10.507"/></svg>