<svg xmlns="http://www.w3.org/2000/svg" preserveAspectRatio="none" style="display:block" viewBox="0 0 2048 2048"><path fill="#fefefe" d="M0 0h2048v2048H0z"/><path d="M989.54 66.424c30.36-1.396 56.92 2.043 86.24 2.923 61.89 1.856 116.98 13.179 176.75 28.766 28.16 7.342 56.75 11.993 84.41 22.664 25.24 7.971 49.97 24.011 73.87 33.571 48.81 19.524 87.35 41.365 128.09 74.816 15.07 12.367 36.74 22.291 52.9 36.049 18.67 15.9 36.51 31.583 53.88 49.097 13.98 13.309 30.57 24.865 43.84 38.879 24.71 26.082 49.86 54.18 71.66 82.713 12.76 16.705 23.1 36.337 35.44 52.937 33.02 44.42 56.48 90.436 77.2 141.591 16.38 37.912 38 79.795 48.23 120.068 11.21 44.1 19.73 93.791 27.55 138.889 2.24 12.955.3 30.542 1.58 44.062 1.37 14.65 2.59 28.939 4.99 43.5 3.31 25.681-3.14 55.141-4.02 80.841-1.12 33.11-.44 63.33-5.58 96.44-.82 14.95-12.16 33.52-13.92 47.34-5.78 42.39-16.13 86.22-33.49 125.55-11.89 26.91-22.43 49.55-31.55 77.83-5.85 18.13-21.32 41.79-29.4 59.53-7.31 11.87-17.39 21.61-24.3 33.82-14.77 26.07-28.73 57.9-48.55 80.58-30.04 34.38-58.81 67.93-88.52 102.35-12.42 14.4-36.32 27.1-50.27 40.91-21.26 19.61-44.25 38.14-67.24 55.57-20.47 15.23-39.33 24.73-60.99 37.48-16.05 8.93-31.77 22.92-48.4 30.52-43.5 19.89-89.51 38.64-133.76 56.84-24.51 10.08-56.67 14.15-82.15 20.61-21.17 5.37-42.5 9.74-63.89 13.9-38.56 6.33-73.97 4.89-113.39 9.31-8.3.68-16.61 1.29-24.93 1.84-21.17 1.24-35.56-1.52-56.448-3.05-38.662-2.82-78.862-4.95-117.041-11.66-10.445-1.83-25.454-9.11-36.639-11.89-10.144-2.52-23.383-4.06-32.844-6.66-36.801-10.12-77.301-18.79-112.442-33.07-18.289-7.43-37.091-18.74-56.075-26.89-26.79-11.51-57.895-26.04-82.369-41.51-20.48-12.94-41.713-32.08-61.503-46.69-22.73-17.75-49.343-33.01-69.971-53.31-29.779-29.31-61.873-59.94-89.893-90.7-16.856-18.51-30.908-44.19-46.8-63.58-10.389-12.68-22.817-23.09-31.772-36.86-13.905-21.94-22.575-44.78-34.305-67.52-10.04-19.47-21.595-36.85-30.825-57.16-13.827-30.42-24.903-62.08-35.388-93.78-4.492-15.86-11.427-32.02-15.034-48.09-8.011-35.66-16.899-72.7-23.29-108.59-5.166-29-5.115-60.16-6.04-89.48-.304-9.63-1.937-19.64-2.208-29.32-3.911-42.845 4.313-83.128 8.554-125.399 2.196-21.88 2.156-40.573 5.495-62.968 4.581-30.733 13.101-55.085 21.039-84.478 6.152-22.777 8.299-39.486 17.063-62.493 8.742-22.953 18.616-43.581 27.951-65.995 10.038-24.104 17.206-44.848 29.98-68.101 13.518-24.608 28.401-45.307 43.799-68.574 10.035-15.164 17.49-31.008 28.85-45.887 24.177-31.665 52.808-60.834 78.907-90.983 39.429-45.547 88.906-81.777 137.572-116.837 25.147-18.117 56.548-39.68 83.535-54.941 34.098-19.282 74.608-34.498 110.669-49.576 24.557-10.267 51.318-21.126 76.652-29.166 14.423-4.578 33.265-5.974 48.93-9.366C871.49 80.31 926.638 69.65 989.54 66.424"/><path fill="#fefefe" d="M967.441 93.5c35.079-2.018 55.739.066 90.279 1.96 28.03 1.539 60.17-.644 88.72 2.9 11.9 1.477 24.93 4.315 36.75 6.654A837 837 0 0 1 1287 131.597c42.55 13.743 85.42 28.375 125.97 47.434 12.59 6.031 25.08 15.991 37.41 22.164 41.91 20.982 78.91 45.731 114.59 76.136 13.95 11.89 30.59 23.06 44.33 35.426 34.48 31.027 68.26 64.03 99.94 97.914 10.15 10.935 18.91 26.315 28.85 38.144 16.54 19.662 31.79 41.118 46.58 62.091 9.07 12.588 15.01 27.897 22.87 40.953 16.33 27.135 28.67 53.924 40.57 83.255 11.18 28.748 26.38 57.879 35.99 87.152 9.49 28.89 17.65 60.699 26.08 89.979 3.18 14.235 4.35 30.067 7.08 44.222 10.08 52.198 17.05 103.907 11.1 157.033-1.66 14.88 2.89 37.03.62 52.97-7.13 49.99-15.23 100.63-26.05 149.95-8.61 33.89-20.1 66.09-32.69 98.61-9.1 22.81-15.27 51.63-26.64 73.25-16.82 32.01-34.74 66.38-53.14 97.39-25.3 42.61-56.96 80.64-88.79 118.38-11.07 13.13-25.13 25.13-36.71 37.91-24.95 30.58-51.71 50.58-82.25 74.98-41.06 32.82-79.35 63.57-127.13 86.66-21.81 10.54-43.25 26.05-66.31 34.74-53 20.93-108.48 35.68-162.34 54.51-20.3 7.06-50.38 8.69-71.87 12.24-26.07 4.32-53.03 7.57-79.31 9.04-19.84 1.34-41.78 1.02-61.88 1.13-17.852.1-39.476.73-56.963-1-20.861-2.07-43.01-6.83-63.97-9.95-33.606-5-68.002-8.59-101.029-16.5-18.663-4.47-36.388-11.78-54.427-17.86-20.568-6.93-40.307-12.64-60.396-21.25-20.696-8.88-39.843-19.33-59.799-29.79-20.613-10.81-41.409-21.12-61.608-32.83-47.934-27.79-93.874-61.88-136.485-97.24-13.952-11.58-33.567-35.01-47.249-49.44-12.415-14.56-30.845-27.81-42.619-42.49-29.38-36.63-59.65-74.35-83.959-114.54-15.022-24.84-26.366-50.72-39.009-76.71-6.946-14.28-14.994-27.66-21.378-42.17-5.323-13.82-9.158-28.29-14.388-42.14-14.2-37.61-24.992-73.61-33.567-112.88a878 878 0 0 1-19.959-137.57c-1.368-21.08-2.852-43.01-3.61-64.06-1.545-42.938 5.951-86.582 12.252-128.941 7.153-48.084 16.033-95.99 31.969-142.038 4.962-12.683 6.349-35.372 12.413-46.892 12.349-23.46 21.345-51.091 32.76-74.461 13.294-27.219 28.642-52.418 42.141-79.427 8.618-17.246 21.497-32.958 32.287-48.777 15.332-22.637 29.89-45.154 48.043-65.747 5.739-6.509 12.956-12.452 18.685-19.064 22.051-26.615 45.138-51.698 70.38-75.315 36.115-36.718 78.387-63.471 121.888-90.469 25.234-15.693 50.591-34.239 77.274-47.552 54.868-27.373 119.821-51.897 178.973-68.101 54.65-14.971 118.783-23.03 174.921-26.556"/><path d="M975.718 163.423c28.362-1.842 50.452-.255 78.462 1.301 27.81 1.546 54.43-.044 82.61 3.739 79.04 10.631 156.86 34.874 230.18 65.883 26.33 11.137 48.46 19.613 72.62 35.82 17.86 11.984 35.8 27.548 53.55 38.898 44.59 28.503 81.06 60.676 116.52 99.875 26.76 28.956 54.78 56.506 78.54 88.674 34.4 46.451 62.28 97.088 88.12 148.68 11.85 23.658 21.58 51.931 30.5 76.904 7.54 21.12 17.55 44.859 22.68 66.453 9.44 39.728 13.78 81.493 20.97 121.776 3.17 20.204 1.71 46.03 5.11 66.945 1.25 7.679 1.48 24.059.64 31.629-3.82 22.23 1.76 50.95-3.28 72.35-10.72 45.43-16.35 91.41-26.58 136.86-3.96 17.59-13.11 32.8-17.15 48.49-8.6 33.31-18.73 63.51-34.58 94.21-5.94 11.8-10.28 25.31-16.78 37.34-13.42 24.83-30.32 47.73-45.87 71.26-13.43 21.47-24.8 42.2-41.8 61.31-27.15 28.52-54.01 57.9-82.03 85.65-28.01 27.73-62.36 57.19-93.45 81.37-19.4 15.09-43.76 24.78-64.6 37.57-70.36 43.16-147.14 74.33-227.05 94.55-10.54 2.23-21.41 2.95-32.05 4.5-32.94 4.8-67.09 9.64-100.25 11.94-62.06 5.83-128.127-1.59-189.566-10.75-17.996-2.66-36.557-8.61-54.19-11.95-32.159-6.08-59.894-14.05-89.595-28.07-13.239-6.24-29.386-10.36-43.028-17.06-27.756-13.32-54.718-28.75-82.043-42.93-23.388-12.14-44.003-24.25-64.795-40.57-24.84-19.51-52.738-36.5-76.82-56.92a505 505 0 0 1-66.61-67.51c-12.513-15.56-23.652-32.75-36.111-48.18-29.094-36.03-59.25-70.57-79.734-112.67-13.665-30.59-29.806-60.15-41.783-91.46-3.995-10.81-6.091-22.71-10.177-33.44-10.662-27.99-22.523-56.62-27.215-86.41-9.753-61.93-24.572-123.8-23.98-186.89.208-22.22 6.808-46.262 7.694-68.67 1.644-18.862 1.126-38.147 3.299-56.944 2.418-20.914 9.11-41.702 13.298-62.367 4.649-22.94 8.351-46.167 14.855-68.649 5.152-17.807 15.026-33.619 22.49-50.453 29.254-66.309 58.59-130.738 100.57-190.362 8.914-12.086 20.506-22.255 29.927-33.902 19.656-24.301 39.465-49.391 59.992-72.925 47.536-54.502 109.638-97.064 171.351-133.897 20.46-12.211 43.294-22.512 64.66-32.975 28.194-14.525 56.265-27.702 86.392-37.964 20.076-6.838 42.866-9.029 63.464-14.148 26.1-5.955 53.158-14.301 79.396-18.602 22.71-3.721 49.968-5.465 73.227-7.309"/><path fill="#fefefe" d="M1014.8 203.579c2.65-.209 5.31-.372 7.97-.488 54.94-2.552 122.43 32.769 168.53 60.91 15.55 9.495 31.16 18.783 44.7 31.096l-58.97 101.414c-17.88 30.107-37.95 60.999-51.86 93.211 14.79-17.239 27.73-36.771 41.19-55.107 19.58-26.669 39.88-53.173 58.22-80.702 4.04-6.053 24.58-44.893 26.29-46.171 2.5.997 2.75 1.43 4.38 3.613.3 2.444.07 4.139-1.12 6.338-2.51 4.628-6.44 8.863-9.28 13.395-10.83 17.252-22.81 34.386-33.01 51.931-2.81 4.844-4.69 10.363-7.07 15.44-1.58 3.372-4.4 7.103-5.26 10.631-.53 2.181-.58 4.242.59 6.105 2.52-1.282 4.24-3.895 5.81-6.177 6.7-9.704 12.36-20.178 18.92-29.999 13.6-20.34 28.01-40.031 40.4-61.16 13.37 12.144 27.66 24.08 39.47 37.766 1.31 15.164 4.38 30.285 6.41 45.377 2.61 19.298 4.18 38.601 8.17 57.707.88 4.226 1.47 7.694 5.41 10.054a10.9 10.9 0 0 0 7.66 1.272c5.78-1.15 13.07-5.863 18.67-8.306 12.92-5.632 27.48-11.103 41.21-14.207l1.45-.318c8.33 11.396 16.15 23.71 23.64 35.682 1.34 2.145 5.21 8.021 4.06 10.48-3.75 8.057-35.25 23.691-37.58 33.963 1.1.224 1.32.336 2.6.21 8.77-.861 59.94-30.037 69.06-36.208 4.32-2.928 7.81-5.936 11.1-10.018-11.11-14.703-22.58-29.863-32.65-45.268.15-.062.3-.123.44-.187 9.23-4.083 19.15-6.095 28.85-8.729q20.82-5.7 41.58-11.639c17.88-5.124 35.71-13.347 54.16-15.508 3.13 2.453 5.86 5.465 8.66 8.284-12.39 34.328-20.85 70.235-30.39 105.442-5.88 21.736-13.32 42.342-17.66 64.539-13.73-26.347-29.22-51.67-44.55-77.094 16.69-11.54 61.07-44.286 71.46-59.479l-.35-1.205c-10.65 2.44-77.44 50.584-91.87 59.21-4.77 2.851-11.18 2-15.34 5.476-3.94 3.285-2.59 8.848-6.15 12.237-6.59 6.271-15.48 11.422-22.87 16.765-16.47 11.898-34.43 26.008-47.39 41.723 28.56-13.036 54.22-34.188 81.61-49.647 7.34 10.848 10.18 23.122 14.92 35.156 3.71 9.417 8.49 18.462 12.64 27.694 6.91 15.374 13.16 39.024 26.41 49.816-.09 5.717.04 11.357 1.37 16.938 5.58 23.216 15.56 46.332 22.77 69.179 8 25.348 9.55 53.359 24.24 76.096.6 5.985-2.59 11.225-4.98 16.524 2.6 22.505 7.67 46.019 10.7 68.927 2.01 15.205 1.55 30.576 4.45 45.675 1.29 6.704 2.44 13.427 6.74 18.928-15.73 26.23-5.26 76.224-9.95 107.644-7.29-7.19-13.68-15.19-21.22-22.2-28.88-26.83-60.26-51.775-90.29-77.341l.46.844c.26.467.53.929.79 1.399 6.6 12.135 16.06 21.523 25.09 31.792 15.09 17.156 29.88 33.986 46.67 49.566 25.51 23.67 52.7 44.96 76.22 70.86 10.5 11.56 18.58 25.82 27.84 38.43 16.57 22.22 33.42 44.22 50.56 66 15.85 20.09 32.03 39.93 48.52 59.51 12.25 14.4 25.04 28.24 36.01 43.67-24.42 3.33-49.2 4.76-73.74 7.21-47.9 4.73-95.72 10.36-143.41 16.88 4.62-14.5 10.66-29.65 16.28-43.83 1.9-4.78 5.16-10.19 6.12-15.14 1.07-5.51-1.67-10.66.54-16.29 3.35-8.54 7.29-16.95 10.22-25.64 8.82-26.12 13.82-53.53 18.1-80.68 1.56-9.89 4.07-20.54 3.26-30.56-5.48-10.39-28.65-26.94-38.74-36.23-12.8-11.78-24.59-24.59-37.41-36.31-28.91-26.44-59.22-51.79-88.87-77.409-15.28-13.198-34.87-32.229-51.43-42.817 11.77 12.689 21.78 26.911 33.69 39.646 46.09 48.32 93.94 94.94 143.45 139.76-8.6 18.24-9.75 42.77-13.74 62.55-5.28 26.18-14.02 51.72-14.71 78.63-12.74 10.64-20.56 37.45-25.72 53.39-4.24 12.22-19.2 46.08-19.41 56.98-.17 8.65-16.11 28.96-20.8 38-6.8 13.1-11.7 26.91-19.46 39.55-1.09-29.94-8.41-60.5-15.37-89.58-4.84-20.22-8.33-44.6-17.58-63.35-8.48-17.19-22.41-32.35-36.29-45.31-28.38-26.5-60.4-43.32-96.01-58.13-43.15-17.95-97.08-27.11-127.17-65.85-5.05-6.51-22.09-33.59-20.51-41.01.58-2.74 12.76-3.61 15.48-4.06 29.43-4.86 75.43-17.89 101.24-32.1-1.33-1.73-2.57-3.29-4.19-4.77-7.12-6.53-9.84-11.99-13.7-20.74 21.46-35.548 19.9-52.135 17.86-92.32-.56-11.021-.52-23.017 2.21-33.777 4.52-17.813 19.22-33.036 26.56-50.048 8.17-18.931 11.49-41.886 3.29-61.396-3.02-7.188-7.7-13.522-15.26-16.246-5.58-2.009-12.15-1.043-17.33 1.695-1.4.742-2.37 1.199-3.89 1.594-1.83-8.238.77-18.677.57-27.261-.57-23.334-2.94-47.621-9.35-70.068-16.38-57.37-51.36-115.582-104.74-145.06-13.08-7.225-26.42-14.622-40.45-19.838-43.54-16.183-94.768-15.353-139.001-2.45-64.241 18.74-105.54 59.908-137.128 117.547-23.988 43.771-39.777 95.948-25.356 145.494l-.784-.245-1.31-.396c-2.094-.653-4.195-1.4-6.354-1.812-4.539-.865-9.699.298-13.511 2.871-7.862 5.307-12.65 16.527-14.557 25.478-5.217 24.488 4.763 50.745 17.709 71.18 7.422 11.715 16.224 23.101 19.79 36.729 3.026 11.564 3.381 23.446 3.223 35.325-.442 33.431 1.401 53.825 19.845 82.674-.193.42-.392.83-.578 1.25-2.545 5.75-16.094 22.81-15.989 25.62 14.999 15.58 109.012 34.32 132.816 36.6-8.517 19.12-18.371 37.92-34.593 51.74-19.973 17.02-79.103 36.31-106.696 47.6-28.776 11.77-59.329 26.8-84.467 45.23-76.487 56.09-71.553 102.82-84.755 187.85-36.85-41.14-48.49-142.82-78.832-173.03-.162-22.9-5.671-44.79-10.25-67.08-4.501-21.9-8.475-43.56-10.658-65.82 19.479-7.5 64.939-28.29 81.452-39.66-10.335 3.56-21.163 5.89-31.589 9.29-18.225 5.93-35.702 13.01-53.423 20.25l-1.284-13.96c11.767-10.71 52.866-27.55 69.533-35.61 16.87-8.16 33.509-16.88 50.175-25.44-41.792 8.6-82.376 24.95-119.981 44.93l-1.719-66.57c-.282-13.736.583-28.09-1.419-41.689-.953-6.472-2.998-12.935-4.82-19.212 2.611-4.289 4.896-8.012 5.972-12.954 2.309-10.617 1.994-22.359 3.173-33.214 3.151-29.012 5.99-57.872 11.485-86.573l-7.231-13.598c2.589-1.785 4.942-3.761 6.871-6.272 7.823-10.183 20.05-66.324 25.145-81.751 6.602-19.994 17.921-38.522 22.686-59.116 1.596-6.9-.135-13.778-1.218-20.671 2.382-2.496 4.883-5.022 7.026-7.724 9.527-12.011 14.588-28.836 21.649-42.453 11.954-23.055 27.282-45.694 36.07-70.162 2.353-6.553 3.148-11.765 2.453-18.759 12.612-11.026 21.385-24.841 32.36-37.345 10.997 4.838 30.738 14.668 42.535 13.172 1.205-.152 2.926-.687 3.811-1.553 9.376-9.171 8.915-73.331 19.888-87.164 4.684-5.905 10.47-11.124 15.512-16.762 9.634-10.772 18.671-22.176 29.397-31.931 18.524-16.848 39.298-31.599 59.866-45.832 16.92-11.707 33.721-23.654 51.448-34.129 26.924-15.909 69.169-35.597 99.207-43.385 9.04-2.344 18.276-3.425 27.556-4.334M505.74 662.438l.481.241c1.853 7.389-33.848 93.211-26.731 128.837-3.053 7.717-6.068 15.433-8.214 23.462-6.804 25.464-16.166 84.359-13.641 109.843.648 6.545 2.439 12.116 4.961 18.129-1.928 9.349-4.189 18.848-5.051 28.362-3.009 33.228.739 87.948 5.782 121.258-12.424 7.16-28.191 11.96-38.779 21.73-26.527-8.02-55.598-25.36-81.208-37.24-27.669-12.84-55.765-24.78-83.425-37.66-17.057-7.94-34.38-15.7-50.077-26.14-.314-8.16-.883-16.08 1.546-23.992l1.839-.924c20.747-6.882 40.955-17.422 60.846-26.52a4842 4842 0 0 0 105.762-49.274c16.923-8.145 36.167-14.356 52.265-23.681 2.529-1.464 6.982-3.645 7.754-6.446-5.466-13.197-17.922-24.808-26.525-36.206a4589 4589 0 0 0-84.567-108.676c-12.119-15.364-25.12-30.283-36.62-46.095 12.332-2.029 24.864-3.043 37.25-4.805 58.73-8.356 117.744-15.138 176.352-24.203"/><path fill="#fefefe" d="M1552.86 664.589c43.61 3.679 87.37 9.696 130.73 15.65 23.17 3.182 46.56 7.309 69.88 8.943-8.49 11.216-18.43 21.391-27.44 32.21-30.27 36.325-61.54 71.626-91.53 108.212-11.79 14.393-25.26 26.925-34.3 43.391.93 3.502 2.17 6.977 3.25 10.44 9.71 5.714 20.01 10.455 30.04 15.571 28.21 14.386 56.66 27.993 85.33 41.429 32.72 15.335 64.93 31.723 97.54 47.27l10.21 5.053c1.04 9.472 1.18 17.952-.23 27.402-19.33 10.82-41.07 17.53-61.41 26.18l-115.94 50.35c-17.06 7.25-34.87 12.23-50.94 21.69-2.28-23.56 2.4-47.31 3.9-70.82a660.5 660.5 0 0 0-1.64-101.616c-1.8-1.749-3.23-3.185-4.54-5.35.39-4.062 2.99-6.723 5.29-10.028 1.04-36.575-6.25-77.428-12.26-113.602-4.77-28.784-9.28-56.976-16.52-85.291-5.76-22.56-14.18-44.38-19.42-67.084M283.406 1338.55c20.694.62 41.64 3.19 62.23 5.41 42.014 4.53 83.912 10.05 125.881 14.98 18.473 2.17 36.815 4.79 55.389 6.08 1.215.83 2.23 1.49 2.953 2.82.238.43 1.094 2.29 1.143 2.51.865 3.86-48.267 142.22-53.918 159.37-6.15 18.3-12.47 36.53-18.957 54.7-40.602-33.4-158.29-196.09-174.721-245.87m171.116-914.865c7.584 28.096 20.284 55.624 30.06 83.042 13.957 39.145 26.314 79.065 41.399 117.8-5.9 5.959-10.332 12.889-14.367 20.189-15.409.986-30.813 4.223-46.177 6.022a2932 2932 0 0 0-116.965 14.947c-21.096 3.169-42.254 5.994-63.572 6.994 6.974-15.521 15.797-30.234 23.43-45.447 9.093-18.123 17.128-37.55 27.858-54.725 13.434-21.505 29.607-40.724 45.223-60.608 13.065-16.635 25.545-33.802 38.924-50.181 10.609-12.99 22.763-25.734 34.187-38.033M1753.75 1339.56l.26 1.93c-7.79 19.86-19.97 36.36-31.48 54.11-16.08 25.28-32.8 50.14-50.14 74.58-14.37 19.86-29.92 38.87-44.27 58.75-12.03 16.67-27.38 45.63-42.64 57.67-3.96-2.47-14.51-42.24-16.89-49.35-7.89-27.03-17.86-53.61-26.21-80.54-6.76-21.81-12.77-49.92-22.49-69.92 1.9-5.89 3.85-15.79 7.9-20.5 5.17-6.02 74.15-10.58 85.18-11.84 47.01-5.37 93.58-10.99 140.78-14.89M209.447 1035.95c.585.23 1.167.47 1.756.7 19.391 7.39 41.694 19.67 61.471 28.54 48.536 21.77 97.341 42.94 144.785 67.04-9.639 10.05-17.158 22.26-25.755 33.24l-53.554 67.3c-14.554 19.6-30.654 38.09-46.003 57.08-6.963 8.61-14.537 17.14-20.404 26.53-7.555-30.26-20.593-59.3-30.073-89.08-7.132-22.4-14.229-46.42-17.886-69.65-1.998-12.7-2.591-25.6-4.626-38.29-4.357-27.18-9.652-55.82-9.711-83.41M1582.14 420.416c12.72 12.034 21.7 27.512 32.59 41.097 10.59 13.22 22.88 25.094 33.22 38.518 14.92 19.376 29.43 39.469 42.39 60.229 6.94 11.117 13.02 22.758 19.83 33.958 7.82 12.888 16.61 25.24 24.2 38.263 7.21 12.354 13.26 25.588 18.95 38.697-15.08-1.945-30.66-2.827-45.56-5.699a1354 1354 0 0 0-71.28-10.342c-29.8-3.529-59.41-6.118-89.08-10.87-4.03-4.024-5.66-9.482-10.02-13.16-1.85.462-3.19.68-5.09.5-3.94-12.542 2.44-34.964 5.23-48.145 2.79-13.119 7.5-25.617 11.03-38.522 5.96-21.81 11.36-43.735 17.48-65.514 5.52-19.627 9.16-39.834 16.11-59.01M273.566 698.653c16.89 17.165 31.661 37.704 46.464 56.751 17.682 22.754 35.83 45.186 53.372 68.037 13.483 17.562 26.226 35.519 40.476 52.508-11.636 6.701-24.842 11.885-36.995 17.683-23.194 11.068-46.249 22.325-69.633 32.998-31.724 14.506-63.786 28.786-95.197 43.921-.075-34.232 6.381-66.019 11.947-99.556 3.104-18.7 5.391-37.552 9.604-56.05 3.419-15.01 8.361-29.725 12.834-44.447 7.49-24.656 13.486-49.739 27.128-71.845"/><path fill="#fefefe" d="M1767 703.803c.25.203.52.377.75.608 4.72 4.897 9.03 22.875 11.37 30.01 21.29 64.68 33.38 120.558 41.5 188.396 1.97 16.476 4.89 33.159 5.53 49.737-29.76-15.522-65.59-33.587-96.51-46.217-26.08-13.299-52.61-25.723-78.73-38.986-8.92-4.529-20.4-8.435-27.76-15.111.32-2.858 1.64-4.282 3.45-6.535 5.98-7.447 13.39-13.808 19.59-21.116 16.41-19.357 32.25-39.253 48.67-58.633a4098 4098 0 0 1 41.53-48.26c9.92-11.483 19.57-23.46 30.61-33.893m56.82 339.247c.16.24.35.46.47.73 4.53 10.35-16.1 121.32-20.09 139.51-2.63 12-7.02 23.52-9.72 35.5-3.08 13.68-4.7 27.62-8.32 41.2-4.4 16.53-10.33 33.55-16.49 49.5-23.45-23.09-44.75-50.99-64.88-77.02-7.94-9.28-14.78-19.35-22.28-28.97l-58.54-75.96c33.27-16.88 69.23-30.34 103.66-44.87l57.56-23.96c12.79-5.36 25.48-11.25 38.63-15.66m-1358.855 88.1c2.355 3.38 3.456 20.32 4.187 25.13 3.146 20.68 7.622 41.99 12.452 62.35 1.78 7.51 3.559 15.75 6.67 22.81 2 4.54 5.226 9.07 6.625 13.78 3.076 10.37 3.708 21.89 6.429 32.5 5.075 19.78 12.71 39.3 19.251 58.66-19.223-2.74-38.774-4.12-58.087-6.22l-95.426-10.92c-25.145-3.92-50.389-5.42-75.609-8.38 19.584-27.3 42.18-52.42 62.912-78.84 18.003-22.94 35.533-46.2 53.76-68.97 7.793-9.73 15.745-22.03 25.68-29.69 8.078-6.22 21.496-9.02 31.156-12.21m250.423-886.322c1.533-.017 2.203.219 3.612.737 2.237 8.495-10.597 66.759-12.15 80.123l-.21 1.899c-14.2 16.797-30.027 32.343-44.386 49.094-5.232 6.103-11.248 12.484-15.242 19.477-2.761 4.833-4.237 10.584-5.237 16.021-.947 5.151-2.942 7.813-6.06 11.87-31.382-10.09-62.724-20.059-93.965-30.608-13.96-4.853-27.91-9.442-42.106-13.556 61.72-58.325 139.464-99.019 215.744-135.057m598.362-.735c29.96 11.891 57.46 26.922 85.94 41.851 40.36 21.16 117.75 59.565 141.78 97.264-9.03 4.889-18.93 7.552-28.72 10.475-14.5 5.192-29.57 7.898-44.37 12.033-15.22 4.252-30.08 9.91-44.89 15.398-2.81-2.432-6.84-5.3-8.86-8.411-6.98-10.754-5.7-20.033-16.48-32.166-10.87-12.242-23.67-22.255-35.13-33.856-7.96-8.056-14.26-17.657-22.22-25.686-7.34-7.399-16.36-12.438-22.8-20.792.56-18.732-3.26-37.42-4.25-56.11m-214.71 844.387c1.32.01 6.15-.31 7.06.25.04.02 14.91 31.44 16.79 34.55 8.69 14.38 19.15 25.03 31.43 36.28-9.57 3.38-19.67 4.98-29.63 6.76-57.99 10.39-119.71 9.5-178.163 2.92-20.163-.95-40.099-4.72-59.97-8.07a145.83 145.83 0 0 0 55.918-72.5c22.801.47 45.542 2.75 68.405 2.88 29.41.17 58.78-2.06 88.16-3.07M486.19 391.655c9.386 4.582 19.553 7.955 29.341 11.58 34.769 12.877 70.544 22.487 104.889 36.552-5.683 10.815-9.541 21.756-13.368 33.318-21.87 13.056-36.754 54.017-49.071 76.165-7.788 15.134-14.399 31.197-23.262 45.719-14.262-33.485-24.371-69.425-36.732-103.721a3804 3804 0 0 0-17.376-47.478c-4.394-11.663-9.706-23.48-12.54-35.611zm54.969 1003.015c8.198 10.33 16.033 31.05 22.022 43.38 9.97 20.53 20.429 40.3 32.739 59.53-4.743 23.78-6.279 48.42-6.992 72.63-23.708 10.06-48.326 18.26-72.656 26.7-10.776 4.21-21.341 8.18-32.541 11.18-4.188-4.12-8.09-8.29-11.847-12.8 24.92-66.25 46.096-133.75 69.275-200.62m968.041 18.8c1.84 1.49 2.26 3.19 2.98 5.36 2.87 8.74 4.71 17.88 7.45 26.69 10.48 33.2 21.51 66.23 33.09 99.07 3.26 9.52 5.64 19.38 9.15 28.81 2.97 7.98 7.36 14.85 10.91 22.49l.85 1.85-14.68 12.23c-11.07-4.66-22.35-8.75-33.62-12.91-21.8-8.12-44.24-15.02-66.18-22.86-5.63-18.45-7.67-39.25-9.63-58.39 24.24-30.23 43.61-67.18 59.68-102.34m-925.089 178.45 1.645.04 1.121 1.43c-2.756 25.5-6.484 76.07-4.061 100.54-13.564-12.95-28.419-24.64-43.567-35.67-15.044-10.04-29.001-22.42-41.669-35.31 29.051-9.24 58.278-19.57 86.531-31.03M770.22 785.193c3.662 1.091 6.964 3.623 10.147 5.67 1.122 24.695 8.752 51.814 20.218 73.616 6.802 12.934 11.941 15.047 15.313 31.201 6.118 29.309 5.926 64.419.694 93.729-.663 3.714-.89 8.769-2.962 11.931l-1.563-1.552c-19.804-28.715-3.676-65.899-12.627-97.298-8.882-31.16-36.229-53.929-38.419-88.117-.717-11.189 1.651-20.749 9.199-29.18m690.18 809.557c27.43 10.9 56.9 19.76 85.29 27.87-10.99 10.39-21.61 20.96-33.66 30.15-6.57 5.48-14 9.94-20.97 14.91-8.5 6.05-16.75 12.42-25.31 18.4 3.03-30.73-3.09-60.8-5.35-91.33m-208.5-808.835c.16.044.33.074.49.132 2.88 1.031 4.35 4.368 5.63 6.946 3.68 7.459 4.3 15.712 3.53 23.885-3.02 32.27-23.95 46.902-33.01 74.345-8.57 25.946-.61 51.764-2.35 78.024-.7 10.658-3.33 20.041-6.95 30.036l-2.01 4.017-1.1-.21c-7.4-23.659-6.06-96.779.95-122.046 3.68-13.254 13.03-24.605 16.26-38.324 3.94-16.771 4.27-33.921 6.54-50.859 3.28-3.036 7.9-4.333 12.02-5.946M875.049 199.243c.367.249.452.767.632 1.173-14.407 9.1-29.635 16.307-44.353 24.799-15.159 8.747-29.553 18.713-44.354 28.045-5.808-4.537-11.978-8.372-18.227-12.265-5.224-2.738-10.138-6.143-15.104-9.323 28.927-15.722 87.064-23.487 121.406-32.429M1326.92 379.45c7.09 4.56 43.34 44.551 50.11 53.278l-9.8 4.254c-7.34 2.885-21.82 10.3-28.96 10.364-4.91-6.951-9.64-56.012-11.35-67.896M738.688 243.258c13.267 5.762 26.458 14.098 39.292 20.943-8.008 9.146-18.613 15.892-28.072 23.463a507 507 0 0 1-22.909 20.234c4.512-21.469 8.074-43.01 11.689-64.64m464.392-32.022c18.05-.402 55.5 11.122 72.9 17.904-2.42 5.232-5.63 10.103-8.63 15.028-1.53 3.107-3.38 6.105-5.09 9.122-15.01-14.85-40.9-31.338-59.18-42.054m87.79 24.416c.14.102.3.187.43.306 5.39 5.03 7.99 38.336 8.98 47.337-2.71.126-6.48-3.403-8.79-5.041-5.94-4.183-11.43-8.31-16.59-13.425 4.46-10.202 10.24-19.662 15.97-29.177M704.459 410.733c2.426 6.596-3.61 29.993-4.797 38.361-4.85-2.048-9.964-3.729-14.904-5.569-2.975-.775-5.445-1.387-8.023-3.169 6.369-9.867 18.891-21.536 27.724-29.623M462.755 1108.93l2.067.64c.666 2.94 1.084 4.94.374 7.96-5.281 7.46-19.71 12.13-27.847 16.45l-2.061-.18c-.412-2.03-1.108-4.58-.565-6.62 1.967-7.4 21.436-14.97 28.032-18.25"/></svg>