<svg xmlns="http://www.w3.org/2000/svg" preserveAspectRatio="none" style="display:block" viewBox="0 0 2048 1462"><path fill="#fefefe" d="M0 0h2048v1462H0z"/><path d="M272.595 102.037c21.282-1.77 41.349 8.427 57.708 21.093 58.417.243 122.743-2.838 181.574-4.377l327.379-8.658A18253 18253 0 0 1 1453 103.636c33.59.143 67.14-.314 100.78-.073 114.88.82 229.77 4.832 344.23 15.02 9.47.843 20.45 3.331 19.89 15.231-1.27 27.25-3.01 54.514-4.6 81.761-3.31 60.96-7.33 121.88-12.06 182.747l-39.58 528.445a6200 6200 0 0 0-6.23 90.323c-.83 15.05-.55 36.67-2.88 50.54-8.36 9.01-71.43 10.91-86.86 11.81 5.5 40.51 8.34 82.64 11.63 123.51 38.01.46 78.23-1.52 116.16 1.83 6.02.53 8.66 5.35 6.25 10.99-7.14 7.41-114.42 2.08-132.3 2.08-98.08-.76-196.16.6-294.18 4.09-18.39.41-88.61 4.25-101.1.23-.31.38-.63.76-.95 1.14-28.3 33.45-61.84 60.3-107.64 63.59-41.08 2.95-72.69-5.42-76.05-52.13-42.54 29.61-84.72 63.83-125.37 95.92-13.51 10.66-33.03 28.27-46.56 37.03a2301 2301 0 0 0-65.584-23.91c-51.639-17.67-102.507-32.93-152.416-55.65-8.093-3.69-23.38-9.44-29.623-14.87-1.617-3.02-1.599-3.14-1.285-6.65 2.942-4.53 85.584-44.32 100.474-54.06l-5.318-8.63c-100.018.71-201.663-3.27-301.735-3.67-40.034-.15-81.272 1.33-121.547 1.89-63.7.89-128.092 2.09-191.719 4.67-5.412.22-12.52.82-16.704-2.92-.768-5.26 4.346-9.35 9.117-9.62 41.907-2.38 86.377-.44 128.038-4.3 2.05-20.68 8.078-55.3 12.535-75.35-70.064.99-140.133 5.14-210.139 1.2-13.347-.87-15.863-3.56-17.617-16.47-12.844-94.5-16.29-188.923-19.19-284.043a7090 7090 0 0 1-2.631-319.063q2.217-111.81 5.62-223.589l1.336-87.608c.257-13.848.25-28.88 1.576-42.643.17-1.775 1.566-7.101 2.466-7.63 10.607-10.801 75.932-3.811 83.248-9.976 15.929-13.423-6.257-24.047 41.644-14.971 2.425-4.212 2.78-4.672 6.469-7.82"/><path fill="#fefefe" d="M1093.38 204.554c27.95-1.287 58.65-.739 86.74-.83 70.5-.333 141.01.339 211.5 2.015 150.72 2.316 304.26 4.505 454.91 9.082-1.75 64.115-6.62 131.553-9.71 195.962a9137 9137 0 0 1-18.3 325.003c-8.01 100.978-19.48 203.118-26.81 303.674-10.39.47-20.93 1.19-31.33 1.81-2.76-13.31-4.15-27.66-7.42-41.687-14.75-63.183-39.99-89.453-89.38-127.189-2.77-31.665 10.36-41.141 21.89-67.783 14.44-33.37 25.52-72.99 20.26-109.599-7.05-49.048-49.02-80.306-93.74-93.716-29.06-8.831-58.42-8.98-88.2-4.343.07-33.227 1.96-66.615 3.12-99.827.32-9.07 3.83-64.565-.3-68.467-1.97-1.87-3.19-2.217-5.84-2.537-11-1.331-23.38-.222-34.53-.336l-77.62-1.01c16.53-16.155 102.5-84.265 108.54-95.794.54-4.8-2.2-9.881-6.38-9.797-6.95.14-22.94 16.285-28.09 20.705l-41.83 35.726-126.88 107.946-111.94-42.178c-15.69-5.792-37.24-14.47-52.72-18.94-50.02 44.007-96.57 94.677-146.84 138.742-4.671 4.092-8.571 10.15-5.675 16.229 9.875 7.053 19.405-7.111 26.655-13.972l27.94-26.109c31.69-29.677 63.21-59.529 94.57-89.553l8-7.157c31.76 11.362 63.39 23.1 94.87 35.21 17.98 6.874 46.42 18.994 65.24 23.863 6.23 1.611 27.56-18.49 34.08-24.014l51.85-43.967c.6 47.633-3.83 105.53-5.29 154.136l-11.21 345.608c-36.36 21.39-84.94 91.03-110.77 126.58-96.94.96-193.89 7.07-290.848 7.26-28.333.05-56.813 2.32-85.101 1.63-24.148-58.66-45.333-126.795-65.307-187.297a3823 3823 0 0 0-44.306-125.245c1.651-2.08 3.311-4.181 4.766-6.406 24.916-38.092 24.699-160.35 33.57-211.698 5.268-30.491 17.879-59.897 21.106-90.526a149.9 149.9 0 0 0-2.128-43.395c-6.807-33.118-28.548-62.258-56.417-80.812-25.986-17.299-81.126-26.998-111.835-19.46-59.902 14.704-76.086 59.135-101.512 106.033a1434 1434 0 0 1-40.757 70.1c-13.737-6.997-31.572-23.824-42.863-34.358-70.995-66.24-96.586-137.614-135.571-222.78 31.082-2.459 62.293-2.739 93.458-3.996a5292 5292 0 0 1 239.652-5.892 20570 20570 0 0 0 404.733-6.644"/><path d="M1165.66 571.143c18.47-.719 110.87-1.913 119.92 1.875 2.79 11.827-.95 64.768-1.48 80.426a8844 8844 0 0 1-5.6 151.004q-2.46 59.146-5.58 118.261c-1.14 21.983-2.1 44.853-4.53 66.734-.4 3.612-1.59 5.276-4.07 7.852-11.08 2.698-109.38 1.74-117.91-2.815-1.25-4.588-1.43-10.637-1.3-15.401 2.44-88.734 6.78-177.8 9.45-266.48l3.05-96.304c.38-12.147.54-27.523 1.77-39.684.27-2.649 3.86-4.073 6.28-5.468"/><path fill="#fefefe" d="M1178.26 586.485c29.6-.988 63.3.057 93.15.345-1.75 34.392-2.43 69.846-3.7 104.373l-7.33 172.773c-1.68 36.145-2.82 83.525-6.74 119.058-30.46.926-62.26.158-92.83-.167.03-36.165 12.55-392.9 14.17-395.79z"/><path d="M949.743 670.476c14.182-.321 77.117-2.642 86.047 2.127.17.823.33 1.649.47 2.477 1.93 11.435.69 27.719.23 39.736l-1.61 48.232a10415 10415 0 0 1-4.97 157.068c-.25 7.158-.98 70.249-3.76 75.696-2.2 4.298-32.363 4.888-41.289 5.368-14.828 1.29-75.357 5.51-85.515.24-3.571-12.306-.852-47.75-.357-62.257l3.461-95.032 3.68-101.722c.375-10.622.943-64.518 5.061-68.826 7.497-3.85 28.847-2.895 38.552-3.107"/><path fill="#fefefe" d="M964.664 685.465c16.285-1.031 39.376-.046 55.786.423-1.76 99.104-5.91 199.626-8.39 298.878l-41.593 2.643c-18.753 1.344-37.705 1.528-56.557 2.486.347-35.416 2.769-77.283 4.073-113.349l6.616-190.523q20.036-.01 40.065-.558M369.613 295.8c3.337 3.522 12.199 24.451 15.1 30.443 26.22 54.159 86.168 137.594 140.114 166.285-19.736 41.342-63.863 83.674-50.549 131.858 10.549 38.932 42.752 69.831 75.566 91.325 15.178 9.943 16.919 1.576 17.493-11.512 1.046-23.795 7.388-56.063 18.03-77.64l.465-.93c5.497 47.983 6.348 96.11 16.759 143.553 1.746 7.954 3.038 25.714 10.623 29.389 4.172-.218 7.873-2.773 10.303-6.097 23.571-32.242 51.071-70.026 65.86-107.476 5.551-1.733 10.247-3.873 15.543-6.189-6.365 25.994-17.456 44.375-30.519 66.937-.863 1.489.177 2.831.922 4.088 6.452 3.317 80.187 3.131 94.761 4.41 4.85 13.34 9.881 26.636 14.876 39.922 39.965 106.306 70.089 215.944 113.853 320.874 6.664 15.98 12.427 32.26 20.902 47.4-16.062 8.24-29.594 13.12-46.605 19.16-1.485.45-3.124.85-4.634 1.26-3.643-2.18-10.473-12.97-12.906-16.93-45.996-74.95-80.428-156.74-114.249-237.712-4.682-11.212 3.959-43.85-12.877-42.1-3.459 2.681-4.172 6.913-4.178 11.152-.104 68.6 7.005 144.66-6.904 211.9-3.177 3.49-7.094 6.45-10.714 9.22-14.807 11.36-63.084 1.68-81.4-1.72-64.967-12.41-127.189-32.92-184.591-66.11-29.613-14.07-35.629-36.2-34.678-68.473 2.775-94.155 23.25-190.551 36.765-283.584a1600 1600 0 0 0 6.99-56.488c1.443-14.503 2.254-31.431 5.429-45.409-22.916-48.063-45.373-84.487-71.682-130.621a1962 1962 0 0 1-65.886-124.795c22.997-17.517 32.656-23.906 52.018-45.39"/><path fill="#fefefe" d="m250.523 222.453 7.749.023c2.501 12.389 5.096 29.583 9.241 41.174 39.13 109.422 98.255 208.293 155.323 308.834 2.925 5.153 13.293 28.118 13.024 33.313-4.545 87.599-25.311 174.621-36.159 261.677-6.178 50.428-19.828 125.116.15 171.666a1393 1393 0 0 0-12.312 37.87l-31.289 1.16c-51.867 1.36-106.107 2.99-157.961 2.27-3.498-20.78-5.589-56.32-7.165-78.14a3206 3206 0 0 1-7.988-195.442c-.763-40.262-2.729-80.68-3.187-120.943a9849 9849 0 0 1 2.17-299.005c1.93 3.029 6.403 11.665 10.426 10.821.266-7.754-5.148-15.239-9.142-21.804-.121-48.723 2.206-101.928 3.919-150.769 19.89-.204 43.113-1.814 63.201-2.705m937.727-87.004c74.61-.798 149.22-.6 223.82.592 37.04.886 73.23 3.488 110.67 3.827l200.77 2.963c41.72.76 85.65.245 127.16 4.07l-2.79 52.315-405.31-9.779a12595 12595 0 0 0-439.44.671c-198.316 7.339-397.078 3.519-595.327 14.24-16.654.901-41.405 2.991-57.365 1.957-3.244-3.518-5.516-39.514-6.905-48.474 17.736-2.343 51.484-2.55 70.949-3.319a13411 13411 0 0 1 148.707-5.208c80.901-2.676 165.968-6.865 246.635-8.004l275.266-4.768c33.77-.657 69.8.361 103.16-1.083m-131.62 994.641c35.7-3.08 117.82 16.27 154.08 25.16-12.37 19.12-20.31 38.42-23.2 61.12-12.7 7.77-32.21 23.97-45 33.11-44.15 31.55-86.32 66.72-128.27 101.24-29.558-9.76-58.804-21.1-88.426-30.53-40.629-12.94-78.872-27.74-118.102-44.47l-15.019-6.67c28.169-15.44 56.01-28.79 83.884-45.08 17.698 18.77 42.929 39.73 69.887 41.77 4.767.36 8.727-5.86 11.363-9.25 4.106.27 36.322 25.23 48.573 27.14 19.17 2.99 24.35-9.68 13.93-25.79 10.92 2.82 50.01 15.84 57.33 14.21 2.38-2.17 2.26-2.6 2.91-5.94-4.13-10.94-60.66-19.42-65.52-24.81-18.991-21.08-42.051-42.71-62.881-61.51 32.932-16.3 70.821-35.35 104.461-49.7"/><path d="M872.769 1262.46c6.905 1.61 20.912 7.17 27.841 9.74a4090 4090 0 0 0 49.256 18.08c19.418 6.86 41.812 13.85 61.114 21.39 2.18.85 2.68 2.99 3.31 4.85-.5 3.4-1.51 4.11-3.78 6.91-23.788-3.46-112.194-37.29-137.993-47.91-2.583-1.07-3.315-3.12-3.937-5.5.67-3.84 1.595-4.57 4.189-7.56m160.761-78.55c3.95.22 21.41 4.27 25.25 5.57 14.11 4.77 80.22 16.76 84.85 26.67-.06 3.57-.77 3.97-3.11 6.97-7.29.56-93.01-24.08-106.02-27.24-2.36-.57-2.87-2.46-3.66-4.33.16-3.73.73-4.39 2.69-7.64m-30.43 23.86c2.32.22 19.66 5.14 21.6 6.06 12.52 5.95 78.37 16.68 82.03 26.69-.25 3.68-.9 4.35-2.95 7.48-3.09.22-20.65-4.1-23.94-5.39-13.42-5.24-74.58-15.96-79.8-26.53.07-4.02.99-4.9 3.06-8.31m61.22-45.62c9.23-1.85 88.46 18.31 93.04 24.08.87 3.2-.35 5.05-1.64 8.23-.66.12-4.12.63-5.38.3-28.26-7.6-57.4-14.17-85.35-22.46-.59-.75-1.18-1.5-1.77-2.24-.61-3.53-.04-4.36 1.1-7.91"/><path fill="#fefefe" d="M763.451 394.11c1.986 3.083 10.506 21.79 13.428 27.375 11.549 22.076 21.325 29.996 35.865 47.545-8.977-3.718-22.351-13.726-31.239-12.299-2.573 2.388-1.844 1.152-2.367 5.035 2.523 5.272 17.884 11.229 25.174 15.241-17.115 59.184-62.892 124.028-131.431 82.15-6.394-3.907-17.162-16.654-23.613-18.195-3.37 1.151-2.19.285-4.226 3.445-.443 14.663 38.298 33.764 50.811 37.478-12.445 42.734-20.424 64.021-47.525 99.334 1.606 12.171 13.889 7.689 22.769 6.207-10.326 22.553-36.653 65.331-52.467 84.444-3.893-26.016-21.088-166.393-16.936-181.327 6.304-22.673 37.164-70.967 50.012-93.621 15.648-27.589 33.598-56.616 43.68-86.764 30.719-3.397 38.604-2.545 68.065-16.048"/><path d="M691.573 514.382c9.504 1.317 12.868 12.834 21.174 18.406 8.603 5.771 15.537-.767 20.592 7.213.216 3.189.065 3.292-1.711 6.107-15.646 2.069-35.726-6.097-41.622-22.602-1.407-3.939-.244-5.75 1.567-9.124m16.389-96.554c9.309-.076 31.394 6.216 35.756 15.205.375 3.327-.156 3.769-1.796 6.904-3.462-.63-33.767-12.468-35.93-15.247-.243-3.519.052-3.698 1.97-6.862m33.251 66.628c2.009.955 2.086 1.209 3.785 2.607 2.99 6.809 1.914 13.625 1.451 20.979-5.647 5.344-9.676 8.154-16.832 11.118-3.437-3.09-4.676-3.893-3.669-8.544 2.695-3.322 7.954-5.44 11.96-7.44-1.669-8.568-4.003-12.812 3.305-18.72m-30.104-35.847a9.812 9.812 0 1 1 9.016 17.43 9.812 9.812 0 0 1-9.016-17.43m65.612 34.256c15.212-.435 14.663 8.694 7.214 18.681-13.002.329-14.269-9.575-7.214-18.681"/><path fill="#fefefe" d="M412.593 1049.67c21.128 17.13 53.233 32.18 78.15 42.34 64.166 26.16 135.796 46.06 205.415 46.01 3.044 18.53 6.403 33.48 12.025 51.29-9.905.45-21.008.36-31.01.5-23.435-1.5-55.508-1.52-79.174-1.56-71.545-.12-142.7 1.78-214.335 1.88 4.107-38.06 16.031-105.08 28.929-140.46M1483.68 663.051c2.4 2.711 9.22 16.021 13.67 21.347 19.66 23.495 40.85 35.222 67.07 49.345 1.93 8.678 5.28 32.827 9.25 38.844 7.69 4.233 13.84-6.64 21.46-4.275 10.36 3.216 11.36 17.507 8.47 26.445-4.09 12.656-15.13 12.253-25.32 16.913-9.48 3.953 3.07 17.847-5.65 20.46-16.5 4.949-30.32 9.177-45.84 16.937a178.7 178.7 0 0 0-36 22.78c-17.34-8.616-37.28-12.344-50.26-29.165-13.07-16.943-9.87-48.546-7.28-69.025-4.12-4.399-10.12-7.92-11.43-14.19-1.77-8.412 18.16-10.602 23.65-16.354 9.04-9.476 7.89-28.412 14.12-41.58 7.41-15.637 13.98-24.831 24.09-38.482"/><path d="M1475.87 688.828c10.06.011 33.33 6.554 37.75 16.719-.21 4.208.07 2.641-2.56 6.82-6.43-1.583-12.59-5.776-18.97-7.842-5.28-1.712-12.71-1.758-17.67-4.179-2.51-1.223-2.48-2.647-2.89-4.715.87-3.659 1.58-3.982 4.34-6.803m-3.98 99.015c3.46.635 5.29 2.187 6.88 5.105-2.05 10.223-17.01 13.687-26.23 12.449-4.19-2.031-6.55-3.69-7.67-8.353 2.48-7.593 7.98-5.385 14.09-3.861 4.37-1.425 8.7-3.477 12.93-5.34m4.16-66.267c13.91 4.898 12.86 17.311 1.28 24.276-15.48-2.45-11.36-16.977-1.28-24.276"/><path fill="#fefefe" d="M1416.24 440.938c31.5.043 65.55-.609 96.74.319a4638 4638 0 0 0-3.32 106.136c-.34 15.869-.12 39.582-1.51 54.887-35.46 22.134-73.1 40.097-82.5 84.678-4.23 20.108-2.93 29.962 1.9 49.174-8.52 3.731-15.47 6.241-20.3 14.546-.17 4.926-.17 6.998.38 11.907l-2.56-.941c.04-8.49-.24-18.812.79-27.109 0-24.938 1.68-51.013 2.5-76.052l3.34-108.322c1.43-36.06 3.61-73.291 4.54-109.223"/><path fill="#d4d4d4" d="M1405.07 761.644c.04-8.49-.24-18.812.79-27.109.17 3.288.23 13.855 1.39 16.143-.17 4.926-.17 6.998.38 11.907z"/><path fill="#fefefe" d="M1228.22 1094.44c6.29-.46 13.62-.27 20-.26-8.22 12.62-23.5 35.09-29.84 47.92-29.2-8.67-142.57-32.56-166.89-25.84-12.45 3.45-25.34 10.99-36.97 16.72a4472 4472 0 0 1-62.27 30.56l-11.252 5.45-5.942-5.08c-3.736-13.68-17.995-45.67-23.903-59.82 40.808.07 85.874-3.19 127.397-4.55 62.8-2.05 127.07-2.64 189.67-5.1m-473.728 10.11c15.806-.47 33.055-1.33 48.741-.64 7.8 13 15.017 28.54 22.698 41.92 8.574 14.95 17.279 28.83 26.474 43.37-15.09.37-30.183.62-45.276.73q-41.675-.345-83.35.03c-5.849-18.68-10.674-36.25-12.99-55.69 12.01-10.23 20.405-13.97 24.114-29.35zM279.716 114.996c11.226-.846 28.156 6.896 35.386 15.027 16.159 18.175 18.219 61.779 18.033 84.361-18.915 13.775-34.225 23.043-54.245 34.815-3.035-13.604-5.733-31.085-7.707-44.759-3.633-25.161-14.309-26.651-33.104-39.684-2.739-1.9-4.789-3.504-5.328-6.722l2.07-1.309c16.674-1.848 42.394 30.845 53.69 28.114 5.034-9.345-7.807-16.582-14.412-21.729-8.26-5.865-38.722-22.155-40.732-26.745 12.516-9.548 62.697 35.325 69.538 35.235l1.707-1.987c3.761-19.936-59.931-42.436-62.506-50.677l1.262-.783c18.247.985 41.059 11.608 53.366 25.464 4.176 4.702 16.463 18.956 23.218 17.336l.64-2.021c-2.534-17.927-27.816-33.634-40.876-43.936M1405.07 761.644l2.56.941c2.34 6.325 4.33 10.526 8.74 15.781-1.04 29.369-5.36 52.192 15.24 77.541 9.69 11.927 45.78 25.007 47.3 29.117-1.72 3.002-70.75 33.09-79.67 37.486zM338.88 225.755c3.581 2.236 19.347 45.022 22.205 52.653-8.161 9.54-38.892 43.92-50.406 45.904l-1.518-1.75c-8.754-16.699-20.408-43.423-27.238-60.835 19.273-8.93 40.435-22.747 56.957-35.972m586.415 951.225c7.755 1.97 79.035 84.21 86.295 95.31-23.006-9.53-42.081-24.43-60.948-40.27-4.706-4.31-17.75-17.81-22.816-7.05 1.373 9.27 11.882 15.5 15.827 23.97l-1.043 2.4-2.001.45c-29.176-9.77-48.665-31.26-66.063-55.46 16.041-6.83 33.675-11.99 50.749-19.35"/><path fill="#fefefe" d="M194.936 163.418c7.034-.432 15.855-.381 23.037-.514 10.14 13.227 21.445 19.149 35.411 27.726l3.766 17.193-9.899.942c-19.165.469-40.075 1.679-59.244 2.872.248-8.071.404-42.213 3.249-47.31zM740.92 967.649c5.419 12.808 42.975 94.431 42.795 99.361-14.828-.13-29.467.09-44.369-.15.093-29.75.216-70.086 1.574-99.211m681.6 152.001c1.33.19 2.71.63 4.02.98 1.04 2.02 1.45 2.68 1.14 4.94-2.21 16.1-73.86 97.87-88.36 109.7-1.96.63-.93.57-3.15-.43l-.68-2.02c2.04-6.57 22.4-28.72 28.19-35.66 20.28-24.33 38.71-53.6 58.84-77.51"/></svg>