<svg xmlns="http://www.w3.org/2000/svg" preserveAspectRatio="none" style="display:block" viewBox="0 0 2048 1152"><path fill="#fff" d="M0 0h2048v1152H0z"/><path d="M193.602 65.45c13.809-.819 56.541 10.912 71.933 14.494l75.943 16.974c79.774 18.123 160.868 32.009 241.082 48.142 13.847 1.906 28.579.892 42.438.886 56.985-.025 114.153-1.04 171.125-.779l401.297.595 182.67 1.29c15.56-.026 31.05.224 46.59-.685 4.23-.466 12.56 1.889 16.41 1.13 50.17-9.867 101.69-16.112 151.8-25.505 31.91-5.982 64.36-11.363 95.93-17.684l110.16-22.646c14.96-3.073 31.06-7.016 46.23-9.625 4.13-.71 34.5.308 38.81 3.17 2.15 1.423 3.18 2.655 3.54 5.349a2344 2344 0 0 1 3.85 31.114c3.13 26.664 5.76 53.384 7.91 80.146l14.28 154.342 37.83 398.304 8.1 91.393c1 10.57 1.81 27.484 3.51 37.318l1.83 1.211c5.68-1.255 16.65-.816 20.19 4.494.63 3.203.01 4.047-1.37 6.977-4.47 4.463-12.72 1.699-19.11 1.512l-61.34-2.224c-42.37-1.583-78.52-.427-120.58-.398l-258.75.455-97.11-.801c-7.46-.076-34.39-1.256-40.06-.679-1.59 3.012-1.6 8.584-1.77 12.177-.95 20.481-4.96 33.201-12.36 52.03 40.25-1.433 82.4 3.904 122.27 2.591 69.65-2.292 138.7-2.179 208.35-.952l117.9 1.841c31.29.691 62.78-2.312 94.16.174 8.48.672 26.35-1.108 31.61 6.368.38 3.456.67 2.129-1 5.04-6.75 4.396-19.42 1.837-27.42 1.408-33.85-1.821-67.63-.34-101.47-.665-22.87-.219-45.79-2.552-68.76-1.761l-164.76.222c-16.12.026-33.59-1.718-49.6-.77-43.48 2.574-86.68.461-130.17-.765-12.07-.341-27.48 1.444-38.93-.566-3.23 5.133-5.95 9.858-10.45 13.954-24.02 21.887-62.45 13.554-88.14-.85-5.9-3.305-21.98-14.656-26.95-15.36-12.21-1.73-29.91-.761-42.54-1.419-.71 14.671 5.73 108.053 1.54 112.173-.17.16-.35.3-.53.46-.54.48-.77.73-1.38 1.15-6.21 4.19-47.77 2.84-57.12 2.79-50.97-.28-101.65.81-152.587 2.61l-98.055 4.14c-6.797.32-36.972 6.79-39.745-2.06-6.34-20.25-3.952-110.189-10.536-121.969-4.48-1.447-11.632-.926-16.551-.848-29.099 26.422-60.615 42.716-100.935 37.139-30.248-4.184-44.883-11.795-63.811-36.377-54.845 2.264-110.655-.511-165.574-1.053-27.024-.527-54.712 2.955-81.688.72-22.046-2.831-44.778.475-66.661-.659-30.12-1.561-58.606-3.018-88.886-1.34-13.629.755-28.669-1.065-42.595-.476-12.744-1.099-35.472 4.383-46.686 3.64-10.44-.691-63.145 1.576-68.071-1.059-2.237-3.381-1.824-1.932-2.103-5.618 2.274-3.252 4.865-4.39 8.889-4.86 12.988-1.517 26.1-.336 39.154-1.242 6.456-.337 16.664 1.853 22.889.891 28.592-4.417 55.868-4.403 84.688-3.483 15.171.484 31.311-1.21 46.668-.621 16.066.617 32.432 2.409 48.538 2.527l226.919.206c9.295.007 73.283 1.862 77.844.354.754-2.496-3.994-16.558-4.508-22.756-1.043-12.601-2.777-20.999.281-33.796-33.056-.173-67.521 3.63-103.161 3.379l-209.815-2.32c-22.601-.367-47.411-2.703-69.647-2.601l-123.655 1.015c-24.087.374-50.668 1.574-74.836-.527-3.663-.318-7.054-3.551-6.047-7.559 2.435-2.548 5.976-3.343 9.43-4.557 1.667-3.161 1.695-9.877 1.81-13.689 1.017-33.524 5.663-65.972 9.84-99.197l15.849-119.492c8.012-60.893 17.474-121.467 25.416-182.199a8755 8755 0 0 0 27.824-253.367c3.082-33.159 8.007-66.605 10.837-99.86.847-9.956 3.871-26.064 3.92-35.364l-.001-.932c9.356-2.727 18.085-3.663 27.74-4.28"/><path fill="#fff" d="m1841.51 86.236 1.73.675c2.62 10.56 4.66 37.206 6.44 48.998 7.92 52.197 10.27 105.043 15.16 157.443a17627 17627 0 0 0 42.68 439.494c2.97 26.23 5.55 52.501 7.76 78.806 1.39 16.933 2.84 46.88 6.85 62.475-8.86-1.177-19.38-.318-27.19-1.947-3.1-17.518-1.99-38.992-5.35-57.562-1.27-14.289-5.42-29.946-6.25-44.134-6.91-117.304-21.05-233.857-30.5-350.937-.16-1.979-1.35-7.44-4.06-7.462-27.36-.219-56.51 15.29-83.59 20.967-71.25 19.686-140.31 36.765-212.77 49.685-13.34 2.758-44.09 5.379-53.41 11.342-2.93 5.049 3.33 31.067 4.62 39.168 13.37 83.722 20.63 167.929 33.1 251.725 4.2 28.212 6.96 60.315 13.95 87.951-12.28-1.072-19.88-1.214-32.04.405-2.21-11.044-3.79-22.431-5.61-33.559-4.93-30.164-8.23-60.984-12.92-91.12-6.59-41.53-9.47-82.948-15.81-124.59-10.56-69.304-13.03-140.267-19.74-210.05-1.9-19.765-5.71-39.192-7.91-58.843-4.97-45.615-9-91.326-12.11-137.105-1.29-18.142-3.65-39.19-3.66-57.075 52.24-9.653 104.22-18.412 156.78-26.157 11.09-1.635 22.57-4.889 33.68-6.981l117.15-22.464c29.97-5.992 63.64-11.972 93.02-19.148"/><path d="M1814.47 116.376c2.71-.181 4.63-.711 6.83 1.247 1.96 1.735 3.39 4.76 3.8 7.296 4.89 29.911 4.47 61.49 6.88 91.723 4.33 54.308 10.38 108.486 13.71 162.894.15 2.385.49 6.556-1.31 8.327-11.63 11.432-261.61 66.76-292.41 72.66-17.68 3.388-35.84 6.517-53.82 7.541-.71-.813-3.1-3.575-3.18-4.429-2.12-20.819-3.27-41.626-5.07-62.515a12669 12669 0 0 0-15.69-168.314c-1.44-14.311-6.47-32.3-5.11-46.3.28-2.902 8.38-4.699 10.74-5.037 35.14-6.805 72.03-11.06 107.08-17.909l186.36-38.054c13.76-2.838 27.4-6.463 41.19-9.13"/><path fill="#fff" d="m1811.09 130.406 1.46.913c1.66 5.72.88 12.281 1.61 18.202 2.96 23.867 3.09 48.042 5.07 71.967 1.68 20.21 4.1 40.47 5.88 60.7l7.64 96.998c-19.35 7.339-54.28 15.537-75.23 21a3511 3511 0 0 1-183.4 42.673c-10.98 2.321-58.92 12.618-66.71 11.776-3.96-40.279-5.74-80.698-10.39-120.93-3.41-29.512-4.46-59.44-8.5-88.906-2.29-16.674-5.61-33.462-6.94-50.218 8.95-2.379 30.54-5.08 40.93-6.747 23.13-3.793 46.21-7.913 69.23-12.358l185.94-37.737c11.22-2.234 21.8-5.135 33.41-7.333"/><path d="M1619.07 194.641c3.6.295 4.09.331 7.04 2.383.53.991 1.46 2.216 1.52 3.338.64 12.426-41.07 113.153-48.86 133.85-8.76 23.23-16.13 46.972-25.78 69.858-1.57 3.72-2.99 6.912-5.61 10.014-3.17-.614-9.06-4.353-7.86-7.951 23.25-69.727 52.37-137.191 76.26-206.734.55-1.583 2.14-3.564 3.29-4.758m105.59-20.557c2.34-.075 4.95-.395 7.08.725 1.44.754 2.42 2.266 2.71 3.874 1.4 7.648-62.49 153.51-70.36 170.033-4.23 8.887-9.63 17.274-14.8 25.644-4.81.216-6.61.089-8.92-4.343.21-8.827 9-19.696 12.67-27.857 18.51-41.174 35.48-83.05 53.65-124.376 5.52-12.556 10.35-32.838 17.97-43.7"/><path fill="#fff" d="M202.701 79.466c14.279 1.977 34.296 7.27 48.799 10.493 33.397 7.425 67.297 16.207 100.822 23.096l160.753 32.541c18.774 3.915 46.333 7.798 63.844 12.951 1.333 21.412-1.062 37.084-2.233 57.771-1.752 30.97-3.632 60.432-7.062 91.343-2.225 20.047-6.332 39.752-8.409 59.347-8.146 76.829-14.468 153.687-23.199 230.49-1.794 15.787-9.296 54.615-10.564 68.411-2.197 23.896-26.155 199.037-34.159 210.126-6.038 3.528-20.69 1.374-28.334.819 8.053-44.805 13.476-88.495 19.594-133.529 4.846-35.668 12.092-71.442 17.614-106.986 2.344-21.62 2.657-25.463 5.062-49.035 2.432-23.848 11.981-83.128 11.285-104.553-.165-5.093-36.681-10.376-46.748-11.971-44.907-7.623-88.059-21.213-132.151-32.103-20.49-5.06-40.983-9.385-61.371-15.015a2806 2806 0 0 1-49.357-14.108c-5.491-1.629-19.889-6.489-24.41-6.995-7.997-.894-12.118 2.305-12.72 10.535-.947 20.876-5.403 42.603-6.476 63.286-1.682 32.421-5.631 63.467-9.631 95.572-4.275 34.31-6.119 69.651-10.183 104.05-1.85 15.656-4.883 31.044-6.636 46.703-4.941 48.472-10.227 100.933-18.461 149.427l-1.647 1.456c-5.728.075-19.215 1.537-23.625-.662-.294-9.009 1.868-20.985 2.612-30.179 2.757-31.913 7.866-63.409 12.094-95.12 9.465-70.994 17.358-142.095 25.674-213.216 4.295-36.727 11.375-73.204 15.012-110.045 2.204-22.324 2.975-44.727 4.842-67.067l12.772-137.615c4.363-46.141 14.243-94.141 16.597-140.218"/><path d="M224.904 104.85c8.955.055 69.641 16.884 83.362 19.916 13.565 2.998 41.985 8.612 56.242 12.172 42.36 10.579 83.508 18.789 126.22 27.579 11.887 2.447 53.635 5.873 60.988 11.715 5.627 9.923-5.004 38.799-6.41 51.96l-16.78 169.139c-1.66 17.541-2.563 36.031-4.41 53.303-1.059 1.932-2.128 4.234-4.269 5.14-9.003 3.809-146.109-27.881-166.014-32.867-15.304-3.834-30.411-8.669-45.642-12.813-19.127-5.204-38.453-9.79-57.653-14.735-18.001-4.637-38.354-7.221-55.493-14.05-.179-14.009 2.226-38.323 3.721-52.974 4.527-44.347 9.149-88.675 15.013-132.867 3.474-26.177 3.99-55.709 7.307-82.227.454-3.627 1.57-5.579 3.818-8.391"/><path fill="#fff" d="M232.999 118.734c33.795 11.984 77.97 19.405 113.162 27.717 63.818 15.073 128.789 29.689 193.782 38.866-9.127 42.798-10.401 83.291-14.776 126.705-4.087 40.547-11.618 87.124-12.568 127.509l-2.073 2.612c-6.998 2.258-105.738-21.917-120.449-24.396-18.236-3.073-53.299-13.492-72.723-18.59l-109.866-28.18c1.442-8.456 2.015-16.389 2.717-24.917 4.723-57.402 11.497-114.548 18.326-171.713 2.171-18.179 1.776-37.883 4.468-55.613"/><path d="M369.058 200.418c.665.172 4.21 1.153 4.5 1.399 7.202 6.111 19.823 29.713 24.225 37.195 17.484 29.722 34.393 58.609 52.179 87.956 6.43 10.612 28.57 38.613 31.868 47.289-.475 3.373-1.226 3.205-3.906 6.039-.821.012-4.738.052-5.112-.408-34.769-42.665-62.251-96.568-91.02-143.879-5.216-8.577-15.753-25.045-16.859-29.066.852-3.807 1.188-3.218 4.125-6.525m-100.259 38.117c8.19-.295 9.249 2.963 12.334 9.744 10.409 22.88 16.826 47.319 28.8 69.493 6.356 11.771 13.645 23.417 18.614 35.765.955 2.38-1.778 5.315-3.107 7.25-1.693-.053-3.165.145-4.681-.694-12.125-6.711-37.266-72.566-43.685-88.172-3.475-8.449-8.224-17.211-10.682-25.947-.878-3.12.869-4.961 2.407-7.439"/><path fill="#fff" d="M1010.46 551.613c7.3-1.13 31.12-.609 39.56-.471 56.12 1.082 114.42 5.839 168.3 22.305 28.19 8.615 41.21 32.277 51.99 57.369 28.8 67.011 57.99 133.541 91.55 198.378 18.47 35.709 16.2 74.098 2.68 111.001-9.82-.68-20.23-3.769-29.55-6.784-55.34-17.894-92.76-56.167-121.18-105.678-5.1-8.883-13.68-20.8-15.42-30.964-3.7-21.619 4.94-103.044-.37-112.594-.91-1.646-2.04-1.579-3.76-2.111-1.86.62-2.56.802-3.8 2.447-5.51 7.315-6.93 95.684-5.31 109.556-10.06-8.221-24.23-20.427-35.11-26.785-39.91-23.322-89.29-23.586-134-21.647-64.684 2.63-127.97 11.179-175.017 59.786-1.124-31.607-5.422-63.205-5.629-94.976-.037-5.553-2.324-10.327-8.205-10.865-7.203 3.253-5.103 7.401-5.038 14.097.208 21.345 5.403 52.405 4.021 72.719-1.199 17.625-16.734 48.731-24.635 64.109-16.098 31.329-41.761 63.562-71.692 82.7-15.083 9.42-38.347 17.366-55.218 22.495-8.646-14.171-14.765-29.435-15.592-46.184-.641-12.995 2.298-26.148 5.157-38.742 11.821-52.065 32.148-93.731 51.53-142.483 12.833-32.279 24.33-65.172 39.577-96.415 3.188-6.531 6.189-14.025 10.203-20.067 3.101-4.667 7.224-8.989 10.988-13.125 5.905-6.489 11.071-12.04 18.886-16.255 45.149-24.354 161.004-28.235 215.084-30.816m827.02-125.427c1.81-.176.89-.229 2.79.871.92 5.078.79 8.212 1.21 13.099 1.36 15.434 2.76 31.223 4.06 46.698 2.95 33.762 6.13 67.505 9.52 101.227l16.15 190.061c2.9 32.214 8.09 58.77 10.11 92.632-16.46 2.177-35.18.092-51.58.956-39.44 2.078-78.46-2.139-117.72-2.25-43.2-.123-88.1 3.466-131.29 2.732-5.18.249-10.36.741-15.45-.207-7.4-6.835-28.93-188.946-31.66-212.08-5.97-50.583-14.76-107.419-22.2-157.904 12.7-2.313 25.71-3.827 38.51-5.91 40.39-6.574 79.65-14.652 119.41-24.504a4312 4312 0 0 0 102.68-27.434c20.71-5.843 44.71-13.331 65.46-17.987"/><path d="M1698.5 507.474c4.69.063 6.34.06 9.33 3.504.45 2.007.77 4.453.11 6.437-12.65 36.923-20.92 75.757-33.68 112.559-9.44 27.212-17.92 50.923-23.03 79.416-3.23 17.957-10.33 37.609-15.34 55.223-2.36 8.274-5.62 20.087-9.55 27.614-3.09-.153-9.87-3.833-9.34-6.405 3.35-21.728 14.34-45.069 18.28-66.472 6.7-36.487 18.41-67.528 29.35-102.643l17.77-58.59c2.51-8.591 11.98-44.449 16.1-50.643m-54.76 7.074c2.7 1.133 8.63 4.173 7.17 8.019-16.94 44.391-36 87.841-47.09 134.269-1.77 7.409-4.25 14.653-5.86 22.098-3.71 17.314-5.71 35.128-10.45 52.202-.7 2.543-3.1 4.491-5.06 6.142-3-1.599-3.55-2.297-5.85-4.688-2.8-7.779 12.2-68.912 15.72-81.922 5.48-20.19 39.71-129.397 51.42-136.12"/><path fill="#fff" d="m201.445 415.872 83.099 23.575c42.725 11.665 86.958 20.67 129.566 33.147 28.151 8.244 62.896 10.06 90.026 19.421-3.158 30.583-9.038 62.543-11.418 92.875-4.306 54.873-16.217 106.784-23.606 161.129l-12.954 92.65c-1.623 11.265-2.762 23.532-5.449 34.503-1.59 6.491-19.521.635-24.926 3.53-5.933-1.189-25.953-.965-32.705-.941l-53.049.128-178.111-1.516c-3.335-.058-7.445-.336-10.326-2.037a7562 7562 0 0 0 34.616-297.455c5.471-51.854 13.072-106.916 15.237-159.009"/><path d="M283.464 466.776c2.749-.077 3.154-.111 5.628 1.052 4.243 4.21 6.22 13.759 7.966 19.417 27.333 88.582 67.875 171.717 100.519 258.238.474 1.257-2.098 4.824-2.863 5.922-3.694-.048-8.412.236-9.992-4.019-22.525-60.66-50.419-119.357-73.147-179.896a2908 2908 0 0 1-32.486-94.006c.739-3.774 1.35-3.398 4.375-6.708m97.457 30.64c4.19.64 6.205 1.757 7.834 5.825 8.564 21.384 15.574 43.436 24.335 64.737l27.388 67.346c5.15 12.537 14.921 35.013 18.365 47.516-.298 3.057-1.62 3.952-3.759 6.086-3.161-.162-3.6-.184-6.409-1.611-2.855-3.299-15.801-36.705-17.96-42.751-10.609-29.706-24.589-58.424-35.632-87.748a1211 1211 0 0 1-18.694-53.71c1.196-3.655 1.231-2.847 4.532-5.69"/><path fill="#fff" d="m620.228 158.548 559.532.083 146.47.868c33.16.312 65.78 1.175 99.03.406-5.14 132.092-6.98 265.397-13.51 397.123-1.12 21.955-2.03 43.92-2.75 65.893-.35 10.06-.55 32.745-2.57 41.574-22.52 1.744-46.89-.183-69.62.972-12.21.621-25.89 1.009-38.05.25-2.81-8.307-7.52-18.733-10.99-26.995 8.28 1.341 88.75 1.165 96.68-.301 1.69-20.565 8.7-210.043 6.22-217.727-.3-.937-1.27-2.428-1.92-3.152-1.56-1.757-3.09-2.614-5.35-2.963-7.56-1.165-27.35.95-37.52.493-70.49-3.171-141.32-.477-211.85-.173-14.04.06-28.08.802-42.12.511.34-4.296 2.12-14.094 2.82-18.845 16.98.481 34.41-.541 51.48-.481 50.96.415 101.93.347 152.89-.203 25-.184 70.47 2.79 93.69-1.114 7.06-8.164-.56-178.688 3.86-201.679.08-.423.07-4.363-.89-4.493-22.22-2.996-57.91-3.093-80.51-1.387-12.51-.527-26.94-.214-39.59-.181-83.11.218-171.25-4.206-253.96 1.815-2.75 21.222.52 60.799.81 84.307-3.93 1.194-15.53-.888-20.18-1.624-.61-22.722.38-57.963-4.442-80.817-.313-1.486-4.586-2.09-6.075-2.137-37.41-1.185-75.264.835-112.789.82l-62.974-.553c-59.514.064-118.873-1.207-178.357-.771-8.942.065-14.868.676-15.074 11.391-.436 22.621 2.883 45.186 3.978 67.755l4.46 89.684c.656 12.403-3.544 44.385 12.686 44.376 5.919-.004 13.277-.199 19.329-.251l42.433-.233 131.573-1.463c21.998-.079 41.281-.745 63.38.404l5.238 16.665-189.665 1.698q-24.349.32-48.7.363c-9.038.03-22.975-.325-31.497.778-1.697 1.652-2.924 2.516-3.061 5.228-1.217 24.222 1.548 50.987 2.616 75.04l5.046 100.516c.319 7.278-.206 38.911 2.544 42.62 4.949 3.447 80.203 1.512 92.206 1.275-3.245 9.892-8.583 19.532-12.061 30.058-24.578-1.645-50.728-.153-75.457-.451-8.81-.106-26.525.77-34.586-.967-.968-8.7-.845-25.998-1.189-35.383a4108 4108 0 0 0-3.092-67.303c-2.294-45.061-3.995-89.537-5.285-134.619-.892-31.179-4.213-62.649-5.206-94.131l-4.225-128.192c-.694-17.528-.823-36.204-2.212-53.574q14.173-.56 28.356-.803"/><path fill="#fff" d="M583.436 284.74c2.614 18.453.527 47.268 2.408 68.152.648 21.652 4.176 44.556 4.339 66.116.493 64.974 5.794 129.826 8.154 194.607l1.868 58.683c.392 13.682.271 28.3 2.333 41.709 16.125 8.627 61.585 1.748 81.046 3.837 4.064.436 15.094.211 19.406-.175l.99-.094c.822 3.819-7.176 21.99-9.139 26.525-19.163 44.264-34.056 84.919-45.27 131.804-5.507-.074-11.288.107-16.817.192-15.92 1.475-117.895 4.486-126.841.149-.761-4.639 15.652-84.679 17.239-96.669 7.754-58.559 15.031-117.839 25.089-176.072 2.407-15.541 2.774-31.513 4.84-47.067 8.527-64.204 12.232-128.874 18.867-193.288 1.326-12.869 5.027-26.587 6.701-39.635 1.413-11.014 1.511-28.817 4.787-38.774m54.465-84.932c5.205 1.958 29.99-.109 36.848-.003 103.939 1.591 208.899 3.698 312.818.85 1.32 20.118.973 48.772 1.596 69.431-.109.871-.621 1.926-1.536 2.162-19.635 5.066-38.068 5.635-55.129 18.9-25.214 19.603-31.459 46.098-36.064 76.26l-13.416-10.206c-13.465-9.032-40.802-34.39-57.634-32.536-4.468-3.422-2.295-23.355-4.606-31.449-8.522-29.845-52.81-42.723-74.894-19.775-13.792 14.333-9.593 30.303-20.61 45.064-24.371 22.077-52.336 26.662-39.523 69.352-7.701.904-33.961 2.684-39.867-.186-1.58-7.732-1.416-19.119-2.183-27.371-2.222-23.871-2.266-47.862-3.493-71.622l-3.597-61.079c-.431-7.552-1.016-15.263-1.449-22.82-.168-2.934.645-2.942 2.739-4.972m430.359-1.212c5.69 1.47 45.85-.093 55.43-.041l218.76 1.863c13.77.071 26.4-1.804 40.32-1.6-1.85 26.448-1.6 51.644-1.58 77.099.02 19.311 2.95 91.976-1.42 106.825-7.77 1.175-37.22.375-46.56.293-14.63-22.305-45.99-32.268-70.06-42.54-4.69-2-14.45-3.09-17.91-5.604l.28-2.129c6.98-22.197 3.44-34.452 3.97-56.664.45-18.524 5.5-28.368-11.43-44.546-25.86-24.709-79.61-13.494-84.1 25.822-.77 6.759-.74 11.395-.47 18.181-17.63 14.125-4.23 36.137 14.53 41.951.1 5.737.82 15.785.3 21.333-.31 3.341-8.57.677-10.9 1.263-1.87.3-4.39 1.883-6.24 2.026-20.82 1.606-36.75 8.851-55.78 17.062-7.04-41.818-22.67-60.721-59.44-80.762.14-25.461-3.98-53.962-2.86-79.236 7.51.757 27.68.279 35.16-.596"/><path fill="#fff" d="M880.234 427.578c6.933 1.476 19.507-1.432 25.692 1.085 2.865 4.351-10.475 18.086-11.786 25.828-7.005 41.375 46.251 43.821 50.042 50.628 1.366 2.453-.541 34.234-1.449 37.807-6.849 1.602-24.137 2.477-31.28 2.383-4.87-3.53 2.626-7.595-13.295-15.904-3.903.482-7.884 1.071-11.789 1.606-8.167 6.563-9.454 10.306-14.331 19.499l-31.271 2.792c-4.167-4.014-5.642-5.749-9.062-10.424 45.44-9.691 28.041-36.086 32.293-68.543-.472-15.664-26.336-28.362-39.073-27.314-27.447 2.259-36.938 19.496-36.881 44.954-23.205 7.904-31.688 23.735-19.009 45.993 1.604 2.873-1.153 5.232-4.247 7.669-15.082 11.876-38.002 47.075-38.931 66.167-8.067.152-63.443-.598-66.217 2.739-3.834 4.61-.38 14.999-4.693 18.762-2.668-3.476-2.28-29.871-2.597-35.957a2870 2870 0 0 1-4.333-95.839c-.817-24.55-3.047-46.836-2.966-71.732 26.349 2.021 73.448.78 100.201.101 42.863-1.088 93.055.575 134.982-2.3m571.566 11.847c1.92 2.797 13.76 146.374 16.71 163.27 7.15 40.79 11.14 94.598 16.93 136.647l19.35 132.789c-35.2.104-81.81.956-116.55-.745-1.7-2.144-1.21-3.451-1.4-6.621-4.89-40.931-52.18-109.381-65.88-152.483 16.04-.271 114.34.489 122.14-2.843 3.05-6.976 3.57-37.142 3.92-46.103 1.69-41.614 2.65-83.255 2.89-124.902.08-26.354-.65-73.755 1.89-99.009"/><path fill="#fff" d="M1249.24 425.559c1.49.572 17.84.309 20.89.314 24.05-.041 48.09.296 72.13 1.011 7.15.151 28.55.004 34.48 1.76 2.35 3.672-1.86 96.789-1.84 107.481.05 25.243-1.12 57.281-2.34 82.964-.18 3.96-1.04 5.954-3.98 8.393-6.83.696-8.07-5.11-9.11-9.674-9.37-40.995-21.55-69.505-54.85-96.157 1.12-31.377-8.16-36.58-36.44-43.927-.18-2.693-.49-7.824-1.03-10.256a34.05 34.05 0 0 0-15.2-21.448c-17.62-10.015-51.32-7.472-56.99 15.874-4.82 19.831 5.37 42.298 15.34 59.036-20.99 8.835-26 16.119-43.28 27.557-25.47-4.803-51.17-7.747-77.06-8.659-5.47-.193-10.19-.489-15.48-1.965-1.35-10.016-4.23-26.054-2.59-35.768 1.41-8.338 12.53-7.205 19.16-11.896 8.43-5.974 16.79-14.892 18.72-25.369 3.16-17.222-.77-24.546-9.1-37.972-.53.28 136.71-1.039 148.57-1.299"/><path fill="#fff" d="M1268.93 522.448c54.66 5.719 69.1 59.031 80.45 103.907-6.99.341-21.55 2.627-27.58-.092-4.54-2.042-7.56-54.282-11.1-61.99-.79-1.723-1.76-1.798-3.37-2.432-3.21.947-6.69 2.813-6.33 6.93 1.64 18.936 5.71 38.169 6.47 57.136-4.22.588-8.28.975-12.53 1.379-3.5-.644-7.53-.522-11.15-.554-1.62-1.648-13.14-24.303-15.16-27.846-15.78-27.673-39.62-38.61-70.05-43.509-4.7-.756-12.43-2.334-13.94-4.88 4.33-6.555 27.36-17.429 34.75-20.836 10.02 10.329 34.24 40.404 48.1 40.053 1.89-.945 2.71-.981 3.84-2.705 4.9-7.513-.66-35.804-2.4-44.561m-57.1-270.84c2.78 1.562 23.64 23.343 26.88 26.839 2.84 19.517 4.79 45.436-14.81 56.408-7.03.089-9.62.165-16.65-1.234-20.98-5.407-26.68-32.268-30.16-50.542 17.24-13.249 22.61-9.883 34.74-31.471m-447.806 96.641c5.024.946 33.11 12.067 42.944 14.886 25.066-10.696 41.532 8.188 58.178 23.713l-48.09.883c-2.713-.579-22.708.261-27.118.277-23.028.085-46.906 1.412-69.856-.093 18.646-22.773 18.995-24.331 43.942-39.666m240.926 158.157c9.64-1.717 42.81 1.04 54.03 1.694.26 10.819 1.18 18.726 2.5 29.375-11.95 1.093-34.1.428-47.23.669-16.808-.547-41.305 4.361-57.614 3.148-1.199-1.712-.654-25.655-.668-29.49a439 439 0 0 1 48.982-5.396"/><path fill="#fff" d="M1225.05 469.524c2.42.886 11.33 12.581 15.55 15.569 3.82 2.705 5.98 3.965 10.17 6.269.18 4.367.49 12.447 1.82 16.426 5.55 16.546 8.41 31.716 9.73 49.205-8.49-7.08-14.48-11.662-21.28-20.444-2.77-2.823-8.13-7.727-9.4-11.122 5.85-.26 19.27-6.333 15.76-13.489-2.52-.532-6.64 2.215-9.22 3.242-19.86 7.911-25.72-10.15-31.23-24.91 11.53-5.701 12.93-9.247 18.1-20.746m-44.1-142.881c33.79 31.661 47.83 11.829 55 15.485 1.46 6.462-6.65 23.261-9.96 29.311-2.21 4.202-4.24 8.621-6.28 12.916-7.66-.174-13.01-.16-20.64.394-13.69-18.812-18.55-35.303-18.12-58.106M800.181 281.78c5.473 2.287 13.551 19.161 9.621 24.323-7.993.078-14.723-10.622-22.992-5.089-2.218 11.292 20.459 9.369 24.532 18.022 2.514 5.342-1.811 15.162-3.856 20.358-11.346 22.547-33.23 2.533-34.04-17.685-1.24-30.958 14.791-24.219 26.735-39.929m48.695 200.312 1.323.311c1.582 7.956 2.59 22.073 3.45 30.48-5.705 16.335-14.262 17.323-29.989 20.191-4.524-3.612-6.88-6.018-9.034-11.323-2.679-6.175-2.236-3.869-.697-9.716 2.305-8.751-4.85-5.565-8.425-11.318.556-3.084.074-1.905 2.46-4.55 2.945.37 4.102 2.488 6.681 5.01 4.305.552 14.809-11.398 20.579-13.977 5.06-2.262 8.432-3.4 13.652-5.108m-61.255 63.664c5.092-.088 17.886 12.173 22.552 16.174-26.639 8.361-38.76 20.752-55.124 41.703-2.565 3.832-11.116 13.477-15.178 7.547-.184-2.108-.198-5.034.523-7.004 9.425-25.759 24.214-44.859 47.227-58.42m352.869-190.491c1.2-.15 6.23-.881 6.91.229 6.77 11.103 14.48 20.012 23.36 29.472-13.03-1.62-28.55.973-40.2-.821a158.3 158.3 0 0 1-34.73-.451c.06-3.494-.22-7.305 1.12-10.407 9.66-7.397 31.52-14.373 43.54-18.022m126.14.108c11.32 2.135 42.27 18.35 50.88 27.026-2.18 1.81-15.07 1.406-18.1 1.269-14.27.465-37.71.792-51.41.095 7.01-9.465 13.29-17.844 18.63-28.39m-443.103-20.645c17.45 1.701 37.016 17.794 50.516 28.32 6.448 5.027 21.852 15.777 23.332 23.455q-10.75-.235-21.493-.627c-8.423-14.698-37.722-36.53-52.355-51.148m90.033 105.877c3.593 2.919 22.457 41.853 25.222 48.283l-.83.614-5.3-.942a48 48 0 0 1-14.735-6.622c-17.533-11.743-14.717-26.171-4.357-41.333M719.976 622.356c8.696 2.493 17.852-1.206 22.368 2.298.339 3.505-1.138 4.565-3.192 8.192-15.881-.167-32.947 1.112-48.644.631-5.984-1.415-19.135 2.996-22.283-2.484.286-3.267-.148-4.086 1.531-6.602 9.089-.141 42.439-.448 49.409-1.862zm370.514-188.75c10.27 6.514 10.25 25.315 4.64 34.762-4.16 6.998-6.41 8.78-12.67 13.584-2.67 1.114-3.46 1.728-6.22 1.422-.61-5.811 11.38-42.772 14.25-49.768m108.59 482.891c2.42 1.155 22.33 22.515 25.29 25.841l-.73 1.291c-8.21-.153-15.59-.287-23.79.127-.14-9.09-.39-18.177-.77-27.259M806.333 530.901c2.219 2.09 21.43 24.223 21.691 25.057-2.651 1.987-2.036 1.371-5.763 1.89-3.19-.49-9.192-7.546-12.527-10.052-3.765-2.829-6.877-4.966-10.925-7.402zm356.437-180.294c2.8-.362 4.02-.796 6.53.324 1.85 4.322 13.18 28.319 12.89 30.135-4.16-7.525-21.43-20.389-21.78-28.755zm-4.87-65.423c8.02 2.266 12.03 17.283 12.3 24.581-10.86-4.146-15.26-13.473-12.3-24.581M757.308 319.55c2.848.309 3.335.293 5.424 2.202 2.068 4.482 4.23 13.379 4.372 18.291-10.815-4.007-16.093-9.067-9.796-20.493m490.352 29.718c1.69.317 5.78 1.1 5.45 3.391-1.01 7.011-9.05 16.284-13.33 21.874-.73 1.547-1.03 2.189-2.43 3.291l-.22.825c-.06-1.091 9.35-25.801 10.53-29.381"/></svg>