<svg xmlns="http://www.w3.org/2000/svg" preserveAspectRatio="xMidYMid meet" viewBox="0 0 2048 1462"><path d="M1036.08 393.825c5.49-.015 9.96.242 12.15 6.095 7.62 20.329 12.2 43.639 17.43 64.699a7816 7816 0 0 0 24.41 94.074 10858 10858 0 0 0 81.1 291.032l25.21 87.559c2.03 7.148 10.95 33.532 9.2 38.965-3.06 2.387-3.32 1.485-8.11 1.088-.42 5.363 65.82 132.453 72.17 144.383 21.09-43.83 38.83-79.88 69.6-118.61-8.56-18.502-16.64-34.686-27.48-51.931-4.02-6.409-4.01-23.244-9.27-32.269-6.93-11.882-12.83-25.043-20.09-36.828-2.07-4.92-13.44-18.152-14.43-22.553-5.15-22.986-16.83-41.256-27.32-62.002-4.34-8.575-7.66-20.054-12.2-28.184-9.68-17.301-15.84-36.3-24.16-53.822l-39.88-82.666c-7.09-14.557-13.82-20.528-15.3-38.487-.06-.701-6.9-6.373-7.78-8.569-9.21-22.976-24.22-45.863-29.26-70.119-2.41-1.857-8.09-9.822-10-12.67.39-2.836.88-5.659 1.45-8.466-15.36-10.669-6.01-9.87-9.92-23.615-3.03-10.614-20.89-23.178-15.92-36.258 1.94-1.369 3.38-2.096 5.49-1.216 10.27 4.292 13.13 11.048 11.93 21.493.36.453 5.91 4.204 5.9 4.182 4.13 10.036 3.23 16.154 11.93 24.499 2.49 2.395 1.09 7.977.42 11.039 3.99 8.299 14.02 9.17 12.16 19.806-.37 2.157 4.77 8.652 6.47 10.478 5.63 6.08 6.16 12.59 5.86 20.541 3.08 3.539 20.26 32.017 20.14 35.055-.64 17.418 13.78 18.433 18.92 33.971 1.77 5.355-.03 13.629 2.15 20.93a80 80 0 0 1 5.67 3.548c10.06 6.997 10.12 16.947 12.2 28.676 13.48 10.017 16.46 15.131 13.91 32.242 2.71 6.128 2.2 5.607 7.39 9.605 13.61 10.467 19.07 24.672 14.33 41.228 2.2 5.364 3.9 9.995 7.11 14.88 16.75 6.039 24.41 24.447 20.54 41.2 2.95 6.561 6.37 13.889 8.95 20.552 16.74 6.735 25.05 18.086 21.81 36.099-1.21 6.724 7.71 23.388 11.31 29.721 4.63 8.144 9.83 24.33 18.55 27.754 19.42 9.296 17.78 23.306 14.6 41.292-.59 3.324 9.37 25.743 11.32 30.458 17.91-19.686 35.46-36.828 56.95-52.727a1504 1504 0 0 1-11.13-63.934c-72.85-1.567-91.77-34.494-108.99-98.088-18.8-6.414-41.65-22.04-37.08-45.293 3.18-16.161 19.77-25.704 32.6-33.927.57-22.611-.17-41.338 1.31-64.768-9-7.309-32.81-33.493-40.92-43.508-.52-.647-2.73-9.469-3.17-11.059l-4.75-1.656c-10.23-3.49-10.37-10.785-17.1-17.197-7.44-7.081-9.14-4.055-11.22-14.969-4.44-2.951-12.55-7.897-14.89-12.41.01-13.88-9.66-9.083-11.83-13.826-4.3-9.393-13.37-16.287-20.57-24.371-4.09-4.599-7.81-6.743-8.91-12.672-1.24-6.679-15.87-6.859-14.14-17.86.24-3.886-12.54-3.641-12.53-15.926.01-2.882-31.87-22.578-20.59-34.214 6.84.298 13.11 9.219 16.28 14.505 11.25 2.954 12.38 4.156 13.3 15.319 2.74 1.72 9.59 5.718 11.41 8.278 1.14 1.752 1.51 7.192 3.21 8.406 6.69 4.774 10.3 5.027 12.97 13.58.22.726 8.48 4.951 9.7 6.442 2.54 3.082 1.98 5.429 3.71 8.828.69 1.057 7.06 4.852 8.44 5.896 1.36 1.036 4.11 3.102 4.19 4.875.35 8.224 6.33 6.484 11.89 11.001 2.76 2.247 2.11 4.854 2.58 7.113 1.06 5.107 13.21 11.226 17.05 15.66 2.45 2.832 1.14 3.593 1.14 6.306 0 2.504 9.11 5.028 11.85 7.704 3.47 3.395 1.81 5.22 4.63 8.197 12.14 12.85 26.33 26.252 37.05 40.114 1.88 2.436 2.39 8.182 2.64 11.358l9.56 11.521c5.4-17.627 7.96-36.198 15.6-53.263 2.77-6.181 5.82-12.028 8.62-18.18-2.69-4.962-17.64-11.035-21.29-13.935-3.97-4.624-4.9-5.778-9.85-9.827-12.47-10.217-31.74-19.07-42.1-30.624-6.54-7.29-7.42-3.136-12.14-6.537-5.78-4.166-7.57-12.829-16.39-14.009-10.57-3.162-8.37-4.403-10.82-10.91-2.12-5.62-28.97-9.822-25.77-22.937 6.96-3.878 29.01 6.174 33.58 11.264-.03.252-.29 2.509-.24 2.459-2.39 2.437 12.76 8.455 15.47 9.43 10.15 3.664 7.67 8.28 12.58 11.164 4.65 2.732 12.15 6.633 17.57 9.814 8.93 5.243 17.82 14.864 25.38 19.966 15.35 10.361 27.74 17.775 40.88 31.559 4.46-5.719 27.12-29.966 24.51-35.42-10.46-.724-14.24-.901-18.93-9.814-1.69-3.2-11.33-1.063-14.71-2.254-4.11-1.451-6.75-5.789-9.78-8.815-7.1-2.104-17.41-6.249-23.68-9.388-8.9-4.454-12.2-3.663-17.44-12.406-12.52-3.608-47.07-20.167-56.38-29.159-7.57-.715-29.45-6.37-30.88-14.897 1.92-3.066.67-1.961 3.74-3.589 4.18.091 28.6 6.531 29.64 9.256 3.77 9.906 8.95 3.475 19.57 7.147 5.97 2.064 14.42 9.489 19.94 12.87 4.64 2.839 15.46 4.2 20.66 7.005 7.26 3.233 15.86 9.132 22.72 12.057 18.29 7.794 35.5 16.566 53.19 25.56 8.03 4.083 10.79 4.214 18.7 9.494 12.15-7.851 26.8-14.41 40.64-18.776 80.17-25.299 146.46-28.646 221.98 9.299-4.15-3.058-9.93-6.633-10.25-12.113 6.11-6.809 31.88-2.04 33.94 8.374-5.26 8.787-20.58 2.78-28.72.678 23.43 13.41 33.62 23.184 51.9 43.152 8.85-1.725 30.86-2.302 30.52 10.817-5.21 6.692-13.96 4.528-21.32 3.604 12.37 16.098 18.63 30.036 27.07 48.418l20.3 7.374c12.19-9.49 28.12-4.876 33.21 10.287 4.97 1.494 34.39 10.8 36.62 9.633 9.58-5.001 16.99-15.214 26.15 9.712 23.64 6.737 46.94 14.711 70.24 22.515q.345-.684.72-1.356c10.26-18.643 23.47-5.63 26.99 9.61 14.78 4.301 28.18 9.754 42.54 15.191 12.54-14.798 23.18-8.383 26.97 8.567 15.46 6.954 24.57 12.67 37.85 22.8-17.02-1.83-36.9-6.685-53.57-11.218-5.1-1.389-16.16-7.074-22.11-9.351a391 391 0 0 0-59.9-17.677c-20.25-7.184-41.31-16.099-61.34-22.647-38.22-12.498-83.31-25.145-120.3-39.656 8.54 24.539 13.59 44.934 20.41 69.9 13.98 5.415 30.44 12.988 44.4 19.005 11.72-17.083 23.23-3.565 25.93 11.732 20.12 7.685 53.46 24.439 74.03 33.95 14.88-16.423 24.42-5.919 29.23 11.008 31.18 15.326 44.74 19.176 74.81 40.046-32.1-8.962-64.77-21.255-96.87-30.97-7.04-2.129-7.46-7.826-16.28-11.652-20.17-8.754-40.13-18.011-60.3-26.781-8.46-4.129-20.52-5.989-28.65-10.063-13.64-6.839-30.31-14.657-43.01-22.758.81 4.616 2.19 9.685 3.31 14.267 7.22 29.685 11.89 59.832 17.8 89.809 10.97 5.537 19.53 12.411 31.49 17.669 2.85-3.34 5.49-6.898 9.95-7.67a9.4 9.4 0 0 1 7.18 1.669c6.78 4.879 8.7 15.436 9.67 23.066 9.8 5.446 17.38 9.864 26.71 16.04 8.24-12.844 18.83-7.064 24.61 3.789 3.23 6.07 3.84 9.344 5.09 16.162 9.31 5.313 19.17 12.368 28.35 18.248 23.73 15.204 41.54 26.765 61.23 46.969-36.09-17.909-71.71-36.346-105.98-57.506-6.58-4.067-21.54-6.377-25.84-12.58-.16-1.139-.87-6.429-1.84-7.055-22.91-14.805-46.33-27.911-68.99-43.199 9.76 42.718 18.95 85.175 19.38 129.193.59 61.872-27.95 78.252-82.46 87.732 40.3 103.94 42.42 236.02 46.85 346.77.36 9.07 3.29 40.89-2.48 47.15-8.63 3.84-78.98 2.1-93.25 2.05.26-49.64 1.39-101.76.91-151.09-.34-34.52-10.03-136.36-34.83-159.93-3.6-.89-2.14-1.03-5.49.56-1.98 4.75 9.86 29.34 11.98 36.34 26.39 86.86 17.35 184.49 18.08 274.3-71.83-.83-144.82-.08-216.74-.07.9-87.79-8.44-181.8 17.32-266.79 3.77-12.42 14.09-30.8 15.64-42.59-1.09-2.84-.21-1.64-3.1-3.44-10.2 2.16-18.23 27.72-21.16 37.41-26.43 87.26-20.14 184.91-20.33 275.2-62.66-.59-126.89.1-189.62.25-.33-18.39.44-36.79 2.3-55.09-9.05-5-18.69-13.41-23.52-22.46-17.28-32.35-31.61-70.13-45.67-104.08l-48.89-117.93c-15.77-38.9-32.69-82.24-49.67-120.309l7.94-4.96c-16.34-11.924-29.97-27.491-35.84-47.153-25.592-2.34-48.157-28.278-33.707-52.701-8.267-14.719-2.359-25.562 4.741-39.188-7.864-11.382-11.659-24.873-3.177-37.146 10.621-15.368 30.103-18.478 47.103-21.998l-.17-24.69c-9.02-4.97-14.72-9.119-18.93-19.011a42.73 42.73 0 0 1-.07-32.697c14.08-33.746 42.22-30.021 52.48 2.38a44.77 44.77 0 0 1-2.96 34.001c-4.71 8.992-10.55 13.066-19.92 15.98l-.56 22.308c4.35.578 8.39 1.475 12.68 2.375 5.88 5.074 10.54 12.701 18.05 16.907 12.64 7.083 26.88 11.659 39.52 19.241a53.9 53.9 0 0 1 15.83 14.317c13.87 18.989 29.46 69.314 35.65 93.384q10.305 3.79 20.67 7.355c-10.46-42.237-24.86-86.604-36.88-128.835a14629 14629 0 0 1-74.87-265.603 2711 2711 0 0 1-28.89-112.985c-1.92-7.944-10.52-37.447-7.76-43.447"/><path fill="#fefefe" d="M1354.09 531.787c3.41 1.52 16.86 42.621 19.91 49.701 30.89 71.615 62.76 147.083 116.13 205.275 10.03 64.256 23.34 103.875 48.68 162.193q-57.03.37-114.06-.146l-4.23-.687c-3.49-4.278 17.92-76.24 16.21-87.209-.52-3.384-7.02-3.078-10.01-2.921-28.38 1.488-61.07 5.026-86.57-10.59-28.32-17.337-34.14-53.222-41.11-83.292-10.08-3.468-28.9-8.507-33.57-18.028-11.6-23.695 24.78-25.802 29.25-40.44 2.3-7.53.18-26.759.41-35.97.65-25.544 2.41-49.377 10.14-73.848 10.1-31.994 19.4-48.218 48.82-64.038"/><path d="M1314.54 626.964c10.45.422 63.09 7.134 42.42 26.578-8.43-.38-18.87-3.533-27.32-5.017-12.28-2.159-29.79-7.418-15.1-21.561m10.45 42.627c17.89 1.029 17.71 37.64 5.59 49.399-19.57 1.09-15.76-37.532-5.59-49.399m37.14 115.356c3.91.128 8.27 1.536 10.55 4.888.35 8.784-11.75 14.836-18.69 18.067-8.8 4.095-17.37 4.3-26.84 4.381-5.88-1.821-8.43-3.865-8.4-10.456 5.04-9.87 18.33-5.013 28.47-8.716 6.52-2.383 9.22-4.428 14.91-8.164"/><path fill="#fefefe" d="M1173.66 969.859c3.06 2.217 77.57 152.741 88.05 170.571-6.61 14.96-12.52 34-17.03 49.7a794 794 0 0 0-21.6 95.7c-3.19 19.18-5.39 38.62-8.67 57.7-11.4-9.22-17.28-26.45-23.25-40.15-12.36-26.18-23.41-55.74-34.82-82.41-30.76-71.91-58.85-145.24-90.61-216.67 36.96 4.58 77.89-14.862 107.93-34.441m-129.07-164.488 1.67.905c5.3 7.775 12.7 23.418 18.55 29.54 10.96 10.68 25.36 21.478 39.04 28.465 35.59 18.181 41.7 62.78 51.25 98.785-28.19 16.101-48.55 23.006-80.45 26.874-3.4-4.674-5.06-6.573-9.11-10.715-4.4-3.522-35.71-26.867-25.21-32.738 16.2-9.063 18.86-11.051 28.5-26.638 2.72 9.387 10.66 44.136 26.36 37.412 4.23-7.82-4.65-15.378-8.15-24.699-4.92-10.767-4.85-33.205-11.34-42.582-15.89-22.95-52.68-53.412-31.11-84.609"/><path fill="#fefefe" d="M1011.46 814.72c1.67.377.87.063 2.23 1.344-3.85 35.118 11.96 40.368 31.73 65.813 2.57 3.298 6.77 10.192 6.18 14.486-3.05-.579-4.21-2.32-6.85-4.574-15.31-13.72-33.87-35.368-44.49-53.262-8.062-13.574-.294-18.281 11.2-23.807m-12.595 52.602c3.085 1.624 14.255 15.179 17.665 18.764a323 323 0 0 0 24.73 23.365c2.3 1.95 8.63 6.535 9.24 8.787l-2.5 3.657c-1.29.453-3.03.746-4.41 1.038-9.24-3.555-42.11-31.847-45.966-42.688-1.877-5.273-.692-8.241 1.241-12.923m-3.795 39.199c4.092 1.895 21.59 16.123 23.86 20.499-12.29 1.083-20.586-9.899-23.86-20.499"/><path d="M1087.33 153.565c19.56-1.643 56.34 1.162 75.66 4.707 68.65 12.598 123.2 37.973 164 95.249 46.36-3.664 71.07-1.445 116.49 5.818 22.71-27.98 41.97-45.718 76.05-59.016 121.35-47.361 291.69-4.8 343.25 122.798 39.51 8.313 83.96 22.96 113.37 51.705 23.1 1.273 35.64 1.728 59.14 4.925-33.37 8.449-77.55 6.519-112.26 7.015-48.04.687-96.57-.158-144.63.497a67579 67579 0 0 1-828.65 2.832c-66.734-1.248-136.145-.362-202.968-.5l-475.412-2.242-155.873-1.108c-36.397-.521-75.141-.776-111.22-6.264a696 696 0 0 1 78.392-5.168c12.316-31.872 45.873-63.124 73.791-81.262 68.643-44.595 144.535-55.542 223.631-39.769a228 228 0 0 1 7.637-8.13c81.357-81.223 234.485-103.563 334.885-45.95 17.494 10.038 28.888 20.223 42.998 34.473a456 456 0 0 1 117.483-.034 142 142 0 0 1 2.79-3.071c49.183-52.668 131.396-74.934 201.446-77.505"/><path fill="#fefefe" d="M1078.3 168.5a347 347 0 0 1 68.35 1.957c50.65 6.048 102.94 25.279 141.52 59.713 11.05 9.857 22.95 25.003 32.17 36.752 30.19-1.826 53.12-3.676 83.82.193 16.21 2.044 31.19 5.18 46.97 7.325 25.45-30.353 36.48-45.668 75.32-61.527 104.39-42.631 272.11-4.937 318.98 106.329-47.18-9.427-84.17-11.819-132.77-7.791-10.66.883-45.84 7.892-52.67 7.104-21.56-2.488-47.94-8.692-70.39-12.135a754 754 0 0 0-127.74-7.359c-44.87.999-88.48 9.695-131.8 19.92-6.01 1.419-40.19-4.966-49.28-6.087a563.5 563.5 0 0 0-95.06-4.156 556 556 0 0 0-86.11 11.424c-10.8 2.265-22.13 6.961-32.52 8.314-5.08.662-18.66-1.588-24.53-2.147a257 257 0 0 0-33.76-1.009c-27.465 1.173-52.211 5.692-79.359 8.634-19.347 2.097-42.184 1.542-61.691 1.153-39.002-.799-69.18.021-108.076 5.634-19.697 2.843-49.4 8.057-68.369 8.912-12.496.563-43.788-5.512-59.273-7.125a1859 1859 0 0 0-114.555-7.687c-62.339-2.213-136.397 11.872-198.611 16.518-23.387 1.747-50.645-3.014-74.306-5.169-54.158-4.932-88.437 1.934-139.1 17.709 15.536-25.56 48.411-52.186 74.04-67.101a270.33 270.33 0 0 1 204.529-27.023c6.577-6.791 14.022-13.563 21.011-19.926 88.521-80.598 268.481-99.445 353.332-2.339 45.745-3.866 83.538-6.895 129.682.876 10.516-8.628 17.813-17.498 29.965-26.379 47.741-34.888 102.151-49.485 160.281-53.507"/><path d="M738.057 548.824c21.018-1.514 23.673 25.63-6.006 29.667-16.459 13.986-10.518 19.601-36.209 25.386-16.241 18.848-18.365 16.563-40.51 27.078-4.832 2.637-7.639 12.91-11.751 15.698-10.06 6.819-21.676 12.471-32.075 18.989-10.122 22.497-15.722 15.094-34.606 24.049-10.211 4.843-16.611 17.317-24.446 23.068-11.979 7.238-25.078 11.502-36.14 20.649-17.987 14.874-11.416 26.289-37.808 28.324-10.028 7.908-22.197 15.327-31.959 23.461-5.46 4.549-9.308 13.094-16.467 17.807-5.616 3.697-15.23 4.865-19.609 7.45-11.429 6.745-23.519 15.956-34.512 23.584-7.886 4.615-15.621 19.503-23.288 23.239-10.328 5.031-14.661 2.037-24.98 10.695-7.463 7.101-26.414 17.191-32.692 24.438-12.169 14.048-14.514 15.66-29.757 25.53l-41.351 26.769a2601 2601 0 0 1-65.228 41.937c-10.439 6.559-24.63 16.068-35.533 21.078a298 298 0 0 1 26.575-25.562c24.609-21.381 60.062-46.591 86.424-65.557 1.342-12.916 3.551-29.366 18.09-34.847 10.513-3.964 10.28 8.75 15.043 11.114 5.586-2.741 56.615-37.945 60.236-42.178l.483-.573c8.709-10.217 10.952-24.891 21.481-32.817 7.16-5.39 11.99 3.357 14.934 8.149 14.978-8.665 32.509-21.562 46.31-32.09 3.419-11.095 12.821-45.959 25.706-19.638 9.677-4.942 28.226-18.176 36.976-24.937 2.431-14.166 10.004-38.317 26.217-19.02a641 641 0 0 0 29.491-20.006c2.076-7.648 7.244-28.649 18.79-25.759 2.244.562 5.611 4.542 7.27 6.35 9.052-4.859 13.172-7.72 21.315-13.725 1.844-14.065 10.752-32.146 26.604-18.355 6.196-4.039 12.316-8.754 18.271-13.18 1.08-8.154 6.852-24.352 17.603-22.988 2.221.282 5.943 4.246 7.639 5.907 4.473-2.764 7.81-5.192 12.037-8.339q1.264-4.036 2.736-8.001c1.725-4.511 6.813-13.547 11.597-15.116 6.248-2.05 7.815 3.881 9.999 4.782l7.581-6.31c2.578-8.846 7.06-19.605 17.692-19.098 9.858.47 6.51 1.23 15.038-4.235 3.093-11.04 3.967-15.53 12.789-22.867m181.135-81.987c3.334.35 3.927.435 7.021 1.697 5.406 8.167-9.776 15.633-11.813 20.982-6.68 17.537-19.458 30.457-30.788 45.299-12.832 16.808-25.557 33.996-39.736 49.669-7.708 8.613-11.781 15.858-21.402 23.206-5.203 22.435-15.677 21.486-29.227 37.712-3.081 3.689-6.265 14.259-9.052 17.322-7.014 7.708-16.949 14.132-22.854 23.086-6.354 9.634-4.568 14.004-11.955 24.198-9.696 4.165-17.551 8.793-24.721 16.598-7.141 33.686-11.123 25.373-35.58 46.453-5.533 26.326-5.707 22.968-26.966 37.507-3.915 2.678-16.354 15.735-20.704 19.928-.59 4.784-3.304 15.792-5.904 19.696-3.245 4.873-13.444 9.636-18.389 14.099-4.926 4.447-8.544 8.388-12.564 13.689-2.558 3.373-7.549 9.022-9.273 12.528-3.413 6.94-4.33 17.63-9.822 23.374-3.639 3.806-9.982 7.892-14.151 11.542-10.411 9.114-22.313 19.048-31.32 29.409-8.047 9.257-11.075 22.815-17.954 32.426-3.465 4.84-13.934 9.059-17.763 13.273-16.407 18.08-32.571 36.44-49.147 54.37-3.397 3.67-13.153 15.68-17.617 16.19-.591-2.93-.094-2.54 1.384-5.92 18.555-28.67 38.589-50.36 58.35-76.666.259-15.419 4.652-45.86 26.849-38.229l1.116.389c9.111-5.479 28.872-30.258 37.31-39.674.744-12.174 5.25-43.848 23.943-30.547 7.774-9.764 18.977-20.926 25.708-30.44 4.08-5.767 1.551-48.619 23.545-30.514 7.86-8.223 15.824-15.924 23.993-23.84.849-8.412 1.998-17.808 6.678-25.123 7.248-11.326 10.953-1.477 21.095-12.381 8.151-5.176 14.747-33.162 20.911-36.579 11.015-6.107 13.156-5.672 23.941-16.675q.404-2.756.915-5.494c1.204-6.621 4.697-18.611 10.805-22.671 3.15-2.094 4.277-.082 8.357 1.073 3.675-2.888 9.301-10.7 12.414-14.702.046-4.411 2.787-23.525 8.358-23.408 12.372.261 15.099-5.259 23.262-13.899 4.215-28.264 7.592-17.971 25.005-33.426 1.878-7.558 2.716-10.627 5.879-17.686 3.758-.578 6.966-1.382 10.645-2.262 4.276-14.706 4.694-22.852 18.714-25.996 5.839-1.309 6.68-12.553 8.088-17.186 1.718-5.649 7.925-6.823 13.203-8.937 2.942-3.46 3.093-4.905 4.547-8.994 3.162-8.898 14.27-23.865 22.372-27.712 4.958-8.829 6.015-11.382 14.294-16.754m68.332-50.3c3.576 1.254 2.437.269 4.119 3.472.674 14.395-96.987 217.929-111.294 249.434L763.335 927.362c-24.311 52.705-45.527 101.298-75.451 151.668l-1.422.65-1.093-1.05c.39-11.05 25.432-67.48 30.479-79.339a6815 6815 0 0 1 76.954-172.885 16764 16764 0 0 1 134.28-293.03c16.491-35.406 32.059-71.18 49.785-106.004 1.259-2.473 8.261-8.64 10.657-10.835m26.856-4.091c1.42.486 2.89 1.259 4.27 1.91 1.52 2.89 1.61 3.73.98 7.431-3.41 19.945-7.17 39.945-10.48 59.894l-31.113 180.541c-3.681 22.488-7.72 42.809-9.772 65.642-1.974 21.959-10.795 43.012-6.941 65.922 1.335 7.934-7.908 23.166-8.416 31.599-3.223 20.794-4.175 41.665-6.105 62.574-.642 6.558-6.204 18.729-7.43 25.941a924 924 0 0 0-7.746 55.782c-1.619 15.015 1.07 34.868-4.352 49.738-.615 1.69-4.686 5.78-6.083 7.2-3.144 15.76-6.144 33.37-10.714 48.67-1.191 3.99-2.258 4.59-5.279 5.98-1.393-10.69 2.973-34.62 3.189-46.63.992-8.09-2.223-42.203 1.693-48.723 11.324-18.854 10.586-32.591 13.536-54.139.7-8.936 3.117-19.411 2.775-28.243-.707-18.274-7.365-34.376 9.112-47.947 1.772-10.824 4.919-27.259 4.324-38.044-.967-17.543-6.46-34.577 7.769-48.624 5.126-25.875-2.31-40.707 4.151-65.105l6.66-5.488c2.466-13.643.489-24.052 1.138-38.011.774-16.655 6.452-12.986 9.26-28.06 2.853-15.314 3.298-30.18 5.556-45.48 1.4-8.555 5.274-17.121 6.666-25.644 7.6-46.558 16.076-93.176 26.072-139.26.77-3.554 4.59-7.057 7.28-9.426M539.352 589.64c5.807-.223 5.946 5.079 10.024 6.716 1.989.798 7.175.103 11.037.815-1.099 3.021-12.032 13.71-14.832 14.509-18.121 5.166-33.768 11.29-50.006 21.372-4.49 2.788-15.335 11.185-19.682 12.73-17.162 6.1-33.932 12.041-50.114 20.658-5.876 2.969-17.254 14.77-19.968 15.616-17.17 5.355-32.006 11.094-47.645 20.328-9.918 5.555-22.126 10.499-31.461 16.822-14.266 9.664-15.266 26.02-37.742 18.811-16.345 8.128-35.606 15.896-50.664 26.212-5.942 4.072-9.771 14.232-18.544 18.45-7.784 3.742-14.105.889-20.052 2.878-14.628 4.891-30.993 13.226-44.163 21.001-5.886 14.554-23.597 14.82-35.937 20.626-18.471 8.69-36.893 15.767-56.038 22.756l12.932-9.508c16.725-11.354 33.661-21.669 50.708-32.443 7.545-4.769 6.342-14.489 17.316-17.909 3.714.27 5.206 2.14 8.135 4.601 15.658-7.919 36.416-15.59 50.687-24.134 1.883-18.014 10.645-43.076 27.077-15.622 13.345-8.898 48.589-24.092 65.419-32.608q.447-1.442.937-2.868c4.629-13.465 21.166-37.505 30.054-12.367 17.766-10.038 37.265-18.261 55.405-28.287 3.944-14.615 10.924-31.809 24.752-12.524 13.683-7.448 33.699-15.737 48.24-22.252 4.841-16.821 10.589-30.031 26.719-12.567a1471 1471 0 0 0 43.548-17.791c3.146-11.079 4.148-17.445 13.858-24.021m-42.638-56.663c8.15.292 13.294 7.511 16.102 14.352l18.8-5.331c-9.874 4.801-19.978 10.447-30.111 14.518-5.69 2.286-13.863 3.442-19.829 5.436-11.895 3.974-24.145 8.474-35.939 12.767-4.595 1.673-6.522 7.977-13.493 10.424-5.837 2.049-14.7 1.069-19.133 2.406-13.289 4.011-28.399 10.611-41.671 15.514-5.588 2.064-8.032 11.33-11.561 13.251-9.141 4.976-17.885 5.159-27.427 2.706-14.032 5.449-28.673 11.138-42.506 17.121-3.828 1.393-7.786 7.918-11.417 8.809-16.067 3.945-31.418 9.668-46.878 15.483-1.967.74-9.34 3.176-10.492 3.924-24.011 15.603-49.111 19.543-75.232 29.762-10.489 4.103-20.909 9.813-31.04 14.886-16.348 3.481-38.457 12.865-53.97 14.805l-.388-.849 3.109-2.62c10.176-6.041 25.255-13.115 36.159-18.699 3.523-6.124 8.332-17.373 16.036-17.218 3.683.075 6.799 4 9.365 6.418 4.889-.473 44.301-15.803 51.135-18.511l.734-1.831c5.17-12.787 18.048-35.462 26.453-9.564 17.132-5.169 38.247-13.84 56.139-19.842 2.609-6.894 5.189-17.227 13.225-18.995 7.088.669 9.273 4.936 13.961 10.55 15.127-6.177 31.325-11.573 46.856-17.856 2.653-16.722 12.12-28.306 27.064-12.526 8.379-2.024 46.928-12.939 50.347-18.69 4.444-7.476 9.948-39.686 28.646-9.85 9.22-2.793 36.523-11.079 43.235-16.065 1.842-1.368-5.774-19.399 13.721-24.685M1620.53 397.203c19.38-1.334 138.92-2.178 147.7 5.722 1.19 1.063.91 1.43 1.07 2.907-2.65 3.502-1.48 2.319-6.23 4.347-8.1 1.198-46.46-.769-56.65-1.186-22.18-.906-46.71-1.289-68.98-2.907-5.72-.415-18.07-1.726-21.63-6.085l.91-1.716zm-778.588 48.923c.409.153 2.5 1.575 3.013 1.91.731 1.416 1.558 2.222 1.31 3.722-1.877 11.342-12.115 9.763-19.773 9.767-1.037 3.796-1.509 6.472-5.069 8.517-11.609 6.67-24.719 15.017-38.222 15.153-16.311-12.084 27.197-24.863 34.205-28.308 1.08-.531 2.956 2.502 6.611.476 3.636-9.013 9.079-8.617 17.925-11.237m-193.089 4.265 5.963-.275c3.183 1.397 3.608 1.376 5.343 4.187-.804 12.041-46.755 20.943-57.058 21.771-5.752-.01-8.928-.577-10.423-6.458 2.844-7.532 26.754-11.465 33.977-9.645 1.196.301 3.187-1.23 4.011-2.021 6.208-5.954 9.902-6.567 18.187-7.559m32.837-34.257c-.803.174 28.992 1.31 29.095 1.327l-.53 1.471c-12.031 8.119-27.892 12.736-42.01 15.4-7.823 2.205-20.169 4.774-27.838 1.448-1.961-2.695-1.509-1.198-1.156-4.711 5.176-7.987 31.916-12.328 42.439-14.935m-453.463 19.994c6.373.585 24.727 3.215 22.894 11.727-6.889 6.329-27.901 6.185-37.876 6.768-3.974.428-17.951.004-22.651-.048-1.808-2.339-1.357-1.03-1.241-4.11 5.569-7.605 28.353-11.17 38.874-14.337m140.784-37.954c4.159-.396 8.534.044 12.61.87 9.673 1.959 27.435-.781 35.205 5.004l.155 1.738c-5.649 4.597-15.437 4.454-22.737 4.985-7.241.683-47.768 3.238-49.582-4.088 4.847-4.701 17.43-6.886 24.349-8.509m621.335-2.293c2.28.382 1.184-.023 3.197 1.684l.094 2.62c-3.679 7.472-30.597 28.02-38.243 35.345-1.349 1.292-6.65 3.252-8.751 4.001-3.902-2.233-3.018-.981-4.419-4.577 1.748-11.279 37.337-35.868 48.122-39.073m-124.817 15.186c2.524-.367 2.355-.405 4.8.279 1.749 2.349 1.608 2.264 1.766 5.26-4.126 11.448-42.374 18.813-53.33 19.193-3.468-.134-5.103-.917-6.345-3.959 2.707-5.701 45.056-18.671 53.109-20.773m227.441-17.201c11.27 1.331 19.56 6.859 29.44 8.408.35-1.172 1.02-3.724 2.05-4.135 7.26-2.904 22.31-.866 26.74 5.239.24 3.664.48 2.233-1.8 5.715-8.98 1.842-12.85-1.319-19.5-.096-1 1.982-1.42 3.134-2.16 5.176-8.01 4.098-29.51-8.395-35.1-15.065-1.14-1.357-.07-3.695.33-5.242M828.286 494.19c3.933.027 6.146-.362 9.5 1.611 3.07 7.524-15.033 15.247-20.395 17.496-4.368 8.166-15.681 15.095-23.337 19.905-4.8-.36-8.121-1.735-9.682-6.584 2.826-11.158 26.774-13.818 31.23-20.248 1.761-9.73 3.544-9.584 12.684-12.18m998.864-94.766c7.06-.038 20.06.483 24.29 6.813.39 9.041-28.63 5.786-35.7 5.579-6.93-.333-23.3.842-25.49-6.453l1.56-2.105c7.84-3.966 25.51-3.448 35.34-3.834m-917.848 34.667c4.086.095 7.611.09 11.083 2.233 1.93 2.605 1.571 1.209 1.345 4.259-4.783 8.097-15.09 10.741-23.363 13.151-4.683 6.071-6.824 9.991-13.437 13.74-4.067 1.298-6.93 1.951-10.832.169l-.714-2.089c1.615-8.013 28.123-25.81 35.918-31.463M179.017 585.667c8.501.21 6.503 2.105 13.469 6.146 4.445-.264 12.093-.944 11.298 5.746-3.982 5.662-9.633 7.322-15.929 9.632-6.613 1.962-12.806 4.56-18.95.391-5.018-8.656 4.133-16.331 10.112-21.915m358.979-136.473c6.353-.642 15.426 3.654 12.32 10.742-5.513 4.956-20.592 6.445-28.359 7.78-6.401.901-11.135 2.905-15.109-2.754-.579-11.053 22.481-13.696 31.148-15.768M73.027 412.381c7.862-1.193 23.727-1.295 27.38 7.467l-1.015 2.122c-6.404 4.59-14.194 3.343-22.17 3.213-6.816-.219-25.437 1.421-29.453-1.749 1.29-9.453 17.383-10.103 25.258-11.053m191.064 147.486c6.549.325 23.672 6.087 20.604 15.276-2.764 3.356-7.45 4.629-11.596 6.218-6.511 2.246-13.867 5.374-19.81.462-4.016-8.764 4.413-16.767 10.802-21.956m-124.016-69.802c6.411-.703 25.628 2.772 22.767 11.906-5.197 5.084-10.637 4.681-17.957 5.434a528 528 0 0 1-7.426.721c-5.296.471-15.55 1.73-15.874-5.474 3.798-6.741 11.412-9.195 18.49-12.587m-36.728 118.722c5.579-.138 18.241 4.507 21.987 9.068 1.96 8.346-6.723 9.394-13.229 11.424-6.756 1.978-12.469 4.701-18.873 2.067-6.418-7.433 4.888-16.921 10.115-22.559M1225.71 410.858c7.08.162 16.18 2.79 23.26 4.294 7.11 1.511 19.1 2.577 22.2 9.82-.46 3.885.01 2.453-3.04 5.736-8.32 1.368-41.29-6.472-45.84-14.286.4-3.477.34-2.427 3.42-5.564m91.95-14.571c10.71-.36 51.36-2.132 53.56 10.254l-1.45 1.86-3.68.294c-7.51.617-50.58-1.811-54.01-8.784 1.85-2.899 1.61-2.067 5.58-3.624M646.219 534.823c4.718-.547 16.068 2.653 18.31 6.901 4.455 8.439-7.576 12.308-13.263 14.813-5.909 2.365-10.901 4.218-16.224.128-3.61-8.761 4.939-16.918 11.177-21.842M580.385 419.2c6.403-.807 8.328-.852 11.897 4.422 1.453 10.878-26.732 12.211-35.043 13.162-5.375.456-8.238.932-11.867-3.522l.322-2.008c5.944-5.738 25.897-9.885 34.691-12.054m1022.295-10.971c9.86-.622 30.01-.013 37.92 6.18 1.41 3.297 1.34 1.678.32 5.016-2.02 2.19-3.78 2.135-6.89 2.782-8.19.088-37.77-1.601-42.68-7.77l.27-1.686c5.2-3.48 4.99-3.126 11.06-4.522m-82.44-8.82c7.71-.809 45.03-2.845 44.34 9.238-3.33 2.735-7.52 2.34-11.7 2.366-8 .139-39.51-2.136-45.05-7.432l.7-1.524c3.86-2.404 7.22-2.302 11.71-2.648m450.55 133.543c8.3.742 29.62 3.186 28.93 14.406-1.75 3.442-3.03 3.902-6.4 5.932-9.01-1.279-22.92-2.24-29.37-8.768-2.47-6.372 1.26-8.605 6.84-11.57m-680.37-126.829c8.76-.152 39.25 1.516 40.65 11.583-2.58 3.514-1.49 2.327-6.16 4.465-7.48-.251-40.13-3.456-41.44-12.319 2.58-2.989 2.87-2.389 6.95-3.729M432.722 511.015c4.857-1.606 13.382 2.553 15.4 7.808-1.036 8.767-8.22 8.673-15.856 10.467-5.827.815-16.867 2.476-20.016-3.556 1.826-8.436 13.557-12.073 20.472-14.719M1924.3 440.264c9.25-.543 29.37-.319 33.2 9.775-1.1 3.904-.68 2.643-3.92 5.824-8.43.52-32.44 2.109-34.03-8.192 1.17-3.902 1.89-4.438 4.75-7.407m-53.59 131.814c12.07-.867 31.48 3.707 35.63 16.478l-.84 1.512-3.52.217c-8.43-1.351-37.05-3.492-37.5-12.924 1.89-3.21 2.82-3.378 6.23-5.283M89.5 451.13c7.192-.463 17.038 1.5 21.452 7.637.67 7.886-8.245 7.452-14.222 8.091q-5.403.198-10.81.234c-4.786-.006-12.104-.936-11.829-6.871 3.812-5.203 9.505-6.867 15.41-9.091M1803.1 505.095c11.56-1.729 27.41 2.049 31.14 15.136.36 1.247.12.855-.56 2.111l-1.93-.058c-8.57-.328-33.86.202-34.38-10.495 1.5-3.585 2.66-4.214 5.73-6.694M395.815 479.129c5.017 1.271 9.47 2.017 12.629 6.283.776 9.308-16.314 10.437-23.203 11.356-4.713.418-11.874 1.353-14.194-3.365 3.209-8.292 17.067-11.855 24.768-14.274m272.815-80.621c6.448-.315 16.028-2.349 19.976 3.118l-.549 2.229c-5.596 4.436-24.272 4.84-32.235 5.452-6.465.662-13.811 3.123-16.85-3.178 1.273-9.459 22.288-7.467 29.658-7.621m1184.9 69.781c7.52.328 29.17 5.418 25.98 15.633-3.11 2.078-6.72 1.2-10.72.897-7.75-.69-20.08-.597-24.79-7.365-.66-3.932-.95-2.53.47-5.951 3.24-2.484 5.13-2.533 9.06-3.214m-109.69-45.062c.74-.028 1.49-.045 2.23-.053 8.6-.101 27.91-.429 27.61 11.588-2.02 2.479-3.12 2.388-6.44 3.213-8.61-.2-27.46-.327-32.38-7.95l.67-2.251c2.84-2.746 4.69-3.19 8.31-4.547m-1437.271 5.048c5.369-.3 13.549 1.751 14.433 7.937-3.807 7.906-13.246 6.848-20.752 7.024-5.774.225-12.811 1.676-16.918-2.722.17-8.425 16.756-11.288 23.237-12.239m999.531 9.846c5.35-.441 11.92-1.535 16.15 1.881 6.6 15.259 18.13-.394 24.8 11.599-.07 3.884-.47 4.351-2.73 7.568-5.06.088-12.66-1.968-17.25-4.205-1.27-.618-1.24-1.926-1.83-3.773-5.1-2.603-14.98 2.35-20.81-6.529-.29-4.136-.57-2.455 1.67-6.541m-798.319 50.968c5.173-.585 10.7-.375 14.019 4.166 1.161 10.091-9.733 12.094-17.136 13.772q-2.336.336-4.679.603c-4.377.486-6.166.632-9.617-2.119-2.498-8.604 11.437-13.834 17.413-16.422m1228.859 48.188c9.08-.551 26.62 3.545 23.63 15.269-3.26 2.26-4.12 1.58-8.54 1.793-7.64-.83-22.41-3.34-25.95-10.996l1.09-2.382c3.3-2.6 5.66-2.753 9.77-3.684M374.187 419.135c5.377-.436 20.919-1.24 19.582 7.37-4.799 5.666-11.382 5.3-18.796 6.134-5.995.877-15.432 1.75-20.002-2.925l.039-2.155c4.366-5.787 12.026-6.616 19.177-8.424m1484.363 15.826c9.12-.602 27.92-.097 31.47 10.126-1.44 3.992-.6 2.548-4.73 5.585-9.02-.321-25.72 1.225-29.64-7.986.06-3.848.7-4.485 2.9-7.725m-145.28 17.292c7.94-.842 20.36 2.185 23.38 10.376l-1.18 2.33c-3.52 2.247-5.06 2.13-9.12 2.454-6.74-.461-25.56-1.024-26.87-9.324 3.25-4.366 8.68-4.992 13.79-5.836m-19.71 31.043c8.26-.569 17.06.122 21.22 8.601-.11 6.962-5.49 6.817-11.17 7.426-6.8-1.1-21.49-2.922-23.31-10.706 2.82-4.78 8.17-4.671 13.26-5.321m-943.434-83.72c6.814-.465 26.035-2.662 30.764 3.202-2.864 4.817-12.856 4.691-18.11 5.247q-1.708.417-3.432.777c-5.798 1.202-24.457 3.666-25.574-4.539 3.754-4.849 10.497-4.23 16.352-4.687m675.534-3.298c9.4-.467 39.41-3.477 44.38 5.714-.15 3.387-.01 2.244-2.53 5.42-7.9-.248-41.8-.655-43.85-8.547zm325.18 98.906c7.61-.905 27.08 3.737 22.77 13.709-3.22 2.227-6.64 1.414-10.8 1.159-7.28-.659-19.61-1.427-23.18-8.72l1.07-2.364c3.1-2.542 6.26-2.904 10.14-3.784m-1284.188-80.91c5.545-.892 10.41-1.791 13.832 3.266-1.454 10.38-14.11 10.5-22.167 10.951-4.922-.004-9.368.455-13.34-2.329-1.274-8.297 16.277-10.979 21.675-11.888m373.782-17.932c5.065-.802 15.608-1.696 17.996 3.684-3.358 7.09-18.026 7.15-25.052 7.75-5.653.319-13.281 1.952-17.132-2.685l1.264-2.149c8.587-5.533 12.855-5.207 22.924-6.6m-210.142 89.834c15.716-1.964 22.586 12.543 5.464 17.479-6.673 1.213-11.889 3.032-16.166-3.44-1.146-7.962 4.703-10.688 10.702-14.039m74.252 25.688c4.869-.167 7.488.228 11.39 3.151 4.529 8.745-4.243 13.457-10.934 16.917-4.33-.205-8.563-.853-12.05-3.485-5.162-8.826 4.964-13.307 11.594-16.583m195.927-113.547c2.067-.061 5.556.677 7.716 1.037l1.965 2.891c-3.67 7.772-20.117 10.119-27.727 10.809-3.034.122-4.317.017-7.338-.346-2.896-1.82-4.313-2.775-3.308-6.327 5.156-5.188 20.91-6.862 28.692-8.064m-384.887 31.969c6.634.565 9.362 4.37 7.228 10.545-5.175 4.821-13.927 4.213-21.499 5.378-4.741-1.15-8.642-1.2-10.237-6.301l1.238-2.21c7.44-5.188 14.491-5.791 23.27-7.412m1047.236.891c3.13-.386 6.29-.51 9.44-.371 6.43.244 15.27 1.761 19.79 6.681.83 3.499.88 2.041-.57 5.547l-2.36.95c-7.41.297-29.76.776-32.32-7.763 2.21-3.702 1.72-2.629 6.02-5.044M386.44 450.432c5.339-.402 31.432-2.078 25.646 9.485-2.706 1.308-2.911 1.32-5.922 1.74-7.977 1.328-22.612 3.538-28.078-3.671l.477-2.198c2.838-3.212 4.053-3.585 7.877-5.356m1248.04-11.32 1.19-.029c6.62-.152 24.97.09 24.63 9.342-2.22 2.917-3.04 3.118-6.44 4.617-6.44.1-26.33-.109-26.89-8.769 2.06-3.36 3.81-3.623 7.51-5.161m-449.36-41.896c8.87-.412 29.97-1.092 33.72 8.715-1.51 3.87-.64 2.469-4.58 5.377-4.36.981-29.22-4.164-32.08-9.342.46-3.106.23-2.07 2.94-4.75M318.224 499.197c6.045-.701 10.823-.622 15.353 3.923 2.647 7.703-3.373 9.055-9.408 11.726-6.583 1.774-12.955 2.094-16.192-4.782-.51-7.148 4.367-8.999 10.247-10.867m-20.001-97.807c7.453.006 21.621-.954 26.76 4.731l-.509 2.05c-2.689 2.527-4.269 2.703-7.759 3.783-7.182.281-24.876 1.979-29.836-2.968-.37-6.317 6.641-6.86 11.344-7.596m291.763 166.522c1.822.519 3.573.988 4.863 2.406 5.208 5.721 6.457 2.328 13.805 4.165l-.071 1.578c-2.926 3.122-9.551 6.597-13.517 8.893-5.035 2.78-9.277 5.286-14.812 3.012-3.513-7.286 3.637-16.417 9.732-20.054m30.199-134.592c2.999-.807 7.082.615 9.324 2.639.943 9.146-15.869 10.255-22.312 11.116-4.907.337-9.034.751-13.034-2.515l.077-1.274c4.952-6.913 18.075-8.638 25.945-9.966m-57.425 79.748c7.192-.475 19.985 1.63 17.568 11.352-2.599 3.112-4.299 3.439-8.018 4.8-5.961 1.357-10.884 2.2-15.662-2.155-2.858-6.735 1.068-9.923 6.112-13.997m44.121-113.538c5.545.05 13.409-.57 16.687 4.445l-1.16 2.004c-7.492 4.703-11.894 3.932-20.657 4.266-5.788.485-11.879 1.633-15.696-3.336 1.509-7.543 15.107-7.213 20.826-7.379m-137.603 66.679c5.6-.509 9.338 1.384 10.681 6.724-2.391 8.05-7.902 7.837-15.157 8.327-5.596-.016-11.694 1.151-13.429-5.233 2.749-7.422 11.181-8.566 17.905-9.818m225.641-1.186c4.781.189 9.072 2.813 10.812 7.321-.142 8.049-5.959 8.417-12.482 9.618-5.602.7-8.535 1.984-12.575-2.474-1.825-9.036 7.212-12.492 14.245-14.465m167.985 4.965c3.967.144 5.127.093 8.078 2.446 1.645 7.397-12.731 14.755-18.698 16.613-3.308.435-6.629-.412-8.976-2.818-.725-9.337 12.429-13.897 19.596-16.241m1027.406 48.009c8.6-1.562 28.79 5.203 25.27 14.345l-2.36.941c-7.68-.715-26.08-.642-27.88-9.108 1-3.225 2.28-3.85 4.97-6.178M557.631 474.041c5.322.297 9.965.894 13.291 5.404 1.012 7.955-5.845 8.209-12.148 9.65q-2.054.365-4.117.668c-4.354.626-6.333.868-9.896-1.793-3.801-8.463 6.704-11.868 12.87-13.929M234.912 403.33c7.33-.417 19.681-1.638 24.577 5.153l-.493 1.986c-3.197 3.35-6.701 3.58-11.169 4.458-6.604-.074-18.99.827-23.047-4.816l.744-2.1c3.076-2.813 5.459-3.293 9.388-4.681m518.6 82.503c4.963.85 9.243 1.862 11.692 6.554.166 7.896-7.053 10.094-13.205 12.263-3.867.168-6.927-.991-9.952-3.291-3.706-8.337 5.176-12.634 11.465-15.526m-491.889 30.076c4.871-.41 10.375 1.218 13.357 5.254.82 8.514-5.429 8.914-12.201 10.651-5.334.37-9.001.907-12.707-3.361-.96-8.261 5.13-9.775 11.551-12.544m78.087 24.436c6.227-.69 10.705-.836 14.831 4.399 1.039 7.707-4.135 8.591-10.314 10.644-5.817.961-10.768 1.383-14.372-4.005-.837-7.463 3.754-8.765 9.855-11.038m-62.914-71.123c6.878-.747 19.705-.498 21.88 7.665-1.468 3.21-2.327 3.304-5.641 5.097-6.689 1.591-21.894 2.485-22.323-6.845 1.584-3.468 2.77-3.888 6.084-5.917m-99.649-63.892c4.946.09 10.471.679 13.79 4.551.272 7.563-8.931 7.137-14.6 7.761-6.179.633-10.913 1.801-14.237-3.985 1.886-8.169 7.848-7.718 15.047-8.327m258.016 37.966c7.033-.318 17.045-1.25 21.124 5.75l-.641 1.947c-2.796 2.732-3.886 2.783-7.659 3.938-5.417.712-23.44 1.374-21.677-7.218 2.749-2.896 5.091-3.267 8.853-4.417m-98.47 15.942a88 88 0 0 1 5.339.315c4.433.408 6.228 1.066 9.112 4.496.726 3.503.942 1.863-.738 5.08-3.111 2.779-6.122 2.997-10.173 3.824-6.365.575-11.136 1.394-14.689-4.623-.06-7.13 5.385-7.923 11.149-9.092m1179.617-36.919c6.78.416 14.82 1.066 16.45 8.95l-1.64 2.352c-3.34 1.963-6.47 1.475-10.46 1.451-6.16-.666-14.96-.431-16.99-7.431l1.45-2.177c3.59-2.412 6.95-2.549 11.19-3.145m-110.69-16.214c7.26-.382 23.13-.863 26.37 7.328-1.66 3.38-.95 2.252-4.31 4.592-6.47.12-24.77-.031-27.35-6.842 1.67-3.404 1.67-2.61 5.29-5.078m367.33 55.134c3.34.164 7.86.723 11.28 1.048 4.08 2.603 8.64 5.195 8.41 10.356-2.97 2.405-3.2 1.745-7.42 2.194-8.69-.428-12.55.399-19.45-5.164-2.24-5.86 2.12-6.855 7.18-8.434M524.014 400.323c6.07-.057 22.313-.82 23.888 6.791-1.538 2.175-3.479 2.402-6.099 3.248-7.49 1.737-19.731 3.53-24.543-4.127l1.223-3.073c2.3-1.663 2.845-1.797 5.531-2.839m617.706 20.314c6.73.15 19.91 4.945 21.72 12.319-.76 4.307-.03 2.703-2.74 6.109-6.77-1.362-19.16-5.786-22.03-12.521.15-3.851-.21-2.42 3.05-5.907M121.719 552.25c4.949.819 7.898 1.584 10.646 6.008.62 8.198-5.062 8.912-11.614 10.773-5.044-.504-7.136-1.595-9.367-5.787.021-6.879 4.29-9.136 10.335-10.994M1798.02 429.255c6.97-.88 20.95-1.223 24.6 5.918-.65 3.307-.28 2.166-3.2 4.879-6.64 1.058-20.28 1.902-24.1-4.554.16-3.365.47-3.494 2.7-6.243m-913.851-2.103c2.652.534 1.535-.068 3.434 1.926-.816 7.136-15.151 13.576-21.603 14.972-4.08-1.685-5.889-1.985-5.99-6.612 4.171-6.362 16.925-8.68 24.159-10.286m-807.5 81.827c6.282.304 18.03 1.796 15.146 10.971-2.74 2.477-3.416 2.534-7.057 3.364-6.45.681-15.926 1.073-14.814-8.089 2.034-3.434 3.475-4.108 6.725-6.246M780.598 412.5c6.568-.701 12.907-2.636 17.421 3.128-.032 3.368.444 2.049-2.18 4.829-3.82 1.471-4.467 1.434-8.589 1.402-5.934.205-16.451 1.365-19.296-5.339 2.374-3.952 8.523-3.763 12.644-4.02M173.275 540.181a79 79 0 0 1 4.618-.138c3.907.025 5.685.83 8.385 3.556 2.115 6.681-2.668 7.768-7.97 9.59-5.955.52-8.884 1.5-13.337-3.336-1.099-3.387-1.09-1.922.189-5.408 2.743-2.916 4.374-3.133 8.115-4.264M1350.23 421.138c5.85.381 20.4 1.392 21.04 8.73-1.82 2.676-2.61 2.703-5.77 4.017-6.16.067-17.72-.862-20.31-7.285 1.47-3.539 1.52-2.745 5.04-5.462m-411.463-15.097c5.008.002 7.211-.191 10.624 3.007l-.082 2.036c-4.01 5.949-8.207 6.28-15.118 8.25-4.28-.152-8.649.314-10.537-4.09 2.257-5.446 9.889-7.327 15.113-9.203m316.903-9.937c6.79-.406 20.07-.658 23.35 6.331-.57 3.029-.97 3.156-3.32 5.411a85 85 0 0 1-7.26-.388c-5.61-.559-11.64-.724-15.27-5.173-.3-3.774-.46-2.356 2.5-6.181M120.149 409.347c3.234.877 16.956.754 14.841 8.645-2.897 1.995-5.177 1.766-8.74 2.02-5.224.063-17.198 1.304-18.488-5.523 2.622-3.797 8.05-4.33 12.387-5.142m338.273-10.979c5.676-.47 15.762-2.178 19.419 3.097l-.983 1.737c-3.596 2.241-7.826 1.903-12.101 2.009-5.988.594-16.802 2.668-21.314-2.001l.719-1.724c4.042-2.72 9.279-2.646 14.26-3.118m1490.678 9.7c5.91-.177 17.23.147 19.09 6.76-1.04 3.193-2.23 3.619-5.09 5.753-6.05.497-17.29 1.213-18.47-6.409 1.31-3.332 1.79-3.684 4.47-6.104m-666.71 18.821c6.01.558 15.54 4.043 15.85 11.018-2.71 3.327-1.51 2.219-6.37 3.903-5.58-.95-17.47-4.206-16.65-11.36 2.46-2.841 3.26-2.691 7.17-3.561m-541.152 3.952c3.031.246 3.933.636 6.133 2.511-.555 8.479-14.281 11.147-21.133 12.392-3.136-.345-3.574-.201-5.924-2.079l.216-2.141c3.732-4.709 14.763-8.412 20.708-10.683m1150.022-28.523c5.23.042 15.71 1.247 14.25 8.631-2.63 2.814-3.59 2.684-7.57 3.599-5.96.317-17.38-.709-14.48-9.413 2.68-2.542 4.01-2.338 7.8-2.817m-468.84 40.8c6.97-.551 16.5.335 19.82 7.387-.8 3.911-.33 2.543-3.48 5.759-6.69-.621-15.9-.685-19.67-6.839.53-3.931.42-2.755 3.33-6.307M215.825 482.173c5.681-.536 14.007-1.324 14.622 6.171-1.714 3.562-2.785 3.898-6.15 6.105-5.773.5-15.633.899-15.25-7.244 2.097-3.222 3.195-3.455 6.778-5.032m1239.805-67.029c6.61-.616 17.27-.838 20.78 5.767-.88 3.456-.43 2.269-3.16 5.074-6.34.383-17.99.905-21.2-5.468.82-3.512.58-2.431 3.58-5.373m-390.32-7.629c10.23 2.44 19.05 9.591 12.48 20.548-9.48-1.846-17.93-10.727-12.48-20.548m626.34 9.614c4.97.68 16.55 2.998 12.28 10.389-3.26 1.395-3.52 1.267-7.17 1.091-5.86-.351-13.4.053-15.11-6.985l1.24-1.829c3.64-2.21 4.49-2.188 8.76-2.666m-733.24-20.892c6.008-.51 9.802-1.788 13.318 3.675l-.589 2.22c-2.681 3.226-5.482 3.397-9.668 4.439-4.776.683-7.43.977-11.517-1.528-1.687-2.836-1.477-1.368-.685-4.543 2.645-2.954 5.237-3.183 9.141-4.263m422.08 33.793c6.87-.572 14.39.951 17.33 7.842-1.49 2.756-.76 1.818-3.64 3.534-5.84-.155-15.88.104-18.3-6.295 1.67-3.61 1.08-2.457 4.61-5.081m-13.19 32.033c6.04-.097 14.25.105 17.14 6.366-1.34 3.661-.42 2.339-3.96 4.873-5.96-.346-14.04-.659-17.2-6.269 1.18-3.452.74-2.337 4.02-4.97M151.493 448.255c5.372.003 12.013-.248 13.641 6.046-1.627 3.027-2.054 3.015-5.325 4.581-5.287.232-14.995 1.345-14.738-6.324 2.353-2.807 2.973-2.963 6.422-4.303m632.612-9.246c3.739.11 2.549-.39 5.571 1.387l.29 1.755c-2.842 5.015-6.542 6.119-11.67 7.925-3.517.009-4.271.006-6.521-1.798l.046-1.812c3.544-5.035 6.717-5.849 12.284-7.457"/></svg>