<svg xmlns="http://www.w3.org/2000/svg" preserveAspectRatio="xMidYMid meet" viewBox="0 0 2048 1462"><path d="M372.14 277.957c-6.604-18.092-9.021-33.832-5.293-53.06a87.97 87.97 0 0 1 37.923-56.206c21.144-14.117 49.997-20.176 74.898-14.912 36.64 7.746 59.599 31.82 79.178 61.413 25.269-23.325 78.33-22.165 96.017 9.899 9.766 17.704 11.058 30.328 6.748 49.805 87.828 25.37 199.188 138.935 256.546 209.554 48.352 59.529 49.774 102.774 41.202 175.467a4484 4484 0 0 0-9.829 85.816c4.249-4.294 7.807-8.218 14.09-6.467 13.316 14.676-13.144 61.947-15.627 76.253-.622 3.58 6.786 27.098 8.498 32.89 4.027-13.337 13.149-44.295 27.367-48.525 22.472 3.861-8.974 66.72-18.625 76.543a796 796 0 0 0 8.805 43.572c3.51-12.688 14.564-43.87 27.552-48.233 16.88 1.68 4.5 30.196.4 38.379-5.834 11.648-12.424 22.727-22.195 31.512 3.937 15.229 10.949 43.61 12.967 58.533 8.488-19.353 16.958-25.892 32.188-37.685 1.45-1.129 6.59-25.112 7.9-30.485a1027 1027 0 0 1 13.37-49.667c-11.4-11.096-44.42-54.523-29.4-69.759 16.57-5.782 30.97 34.439 34.97 46.624 3.05-13.143 5.97-26.315 8.75-39.516-7.15-12.237-43.86-59.59-28.95-71.929 15.21-3.341 31.37 30.764 37.19 41.382a1671 1671 0 0 0 11.76-49.394c-11.72-8.485-48.79-56.981-30.23-68.146 13.53-2.227 30.6 30.727 35.56 41.933 2.68-10.848 5.54-26.235 7.14-37.119-7.73-15.67-3.04-62.257 16.82-62.605 11.94 3.601 9.4 27.516 8.92 36.996-.51 10.223-9.67 19.608-12.29 29.138-3.06 11.134-5.44 22.803-7.99 34.083 6.73-7.517 41.2-46.873 53.01-30.77 1.46 1.996.17 8.409-1.09 10.834-10.4 20.125-28.25 33.047-48.89 41.351 28.08.883 62.51-5.234 90.75-9.65 29.74-4.65 67.02-9.504 95.18-18.651-6-53.029-21.62-108.571-26.72-161.946-2.66-27.843-1.5-53.836-.95-81.626.23-11.549-5.7-16.692-13.41-24.032-4.41 7.107-8.81 13.183-16.86 16.375-12.33 4.891-25.47-.116-37.43-3.637-9.01-2.653-21.26-1.398-28.27-4.782-8.52-4.112-36.49-32.471-43.21-40.786-5.52-6.833-11-16.795-17.99-21.965-2.71-2.003-6.64-2.462-9.7-3.924-6.34-3.025-9.34-10.647-11.36-16.952-5.91-18.519-.99-37.852 7.81-54.604 13.15-25.042 32.59-48.855 60.6-57.306 22.3-6.726 44.3-1.144 64.3 9.632 18.65 10.041 91.69 66.312 96.72 85.804 2.62 10.181-2.24 19.781-7.12 28.378 19.67-1.133 67.04-4.137 83.86.422 61.35 16.622 118.77 88.126 151.66 138.966 30.52 47.172 55.39 93.513 84.04 141.275 25.04 41.761 58.55 83.354 70.43 130.043 7.67 30.161 3.33 60.003-2.92 89.828-23.32 71.401-56.61 125.532-96.15 189.102-11.12 17.87-26.57 38.2-36.39 56.33 40.43-4.31 80.77-11.9 120.97-17.96 8.07-1.21 8 6.94 16.11 5.27 27.26-2.53 37.21-9.18 64.5-2.79-1.32-5.35-2.06-8.51-4.16-13.58-14.21-4.89-29.73-13.12-42.84-20.2-8.65-4.67-12.68-15.25-2.89-19.11 7.67-3.03 29.94 7.44 36.64 11.16-2.74-7.42-5.18-14-7.42-21.62-8.05-2.88-86.39-25.8-61.2-43.152 6.98-4.812 44.45 11.982 53.77 17.202-3.02-8.8-5.89-17.218-8.54-26.147-12.38-4.751-55.57-19.05-59.08-31.898-8.92-32.648 32.06-8.052 42.38-.322 2.86 2.153 5.7 4.341 8.5 6.561-4.1-15.76-24.62-77.824-23.53-88.434 2.81-3.218 3.63-3.815 7.86-2.907 13.17 9.507 21.82 63.382 25.43 80.066.99-5.295 4.27-16.418 4.96-20.376 4.18-23.853 35.92-49.291 28.06-7.372-2.56 13.628-17.83 38.887-24.36 53.197l.14 1.046c1.13 9.14 3.48 16.892 5.88 25.756 3.95-9.947 26.44-57.967 39.56-36.665 6.35 10.314-24.13 55.485-29.88 66.955 3.5 10.2 5.86 17.52 8.37 27.98 8.21-13.62 17.36-31.26 34.07-33.89-1.48-21.11-5.77-51.909-8.58-73.158-2.73-20.692-9.35-73.795-15.78-91.294-14.3-6.483-25.17-13.719-38.74-23.171-7.9-5.508-30.4-31.317-8.18-33.711 11.82-1.273 33.82 22.174 42.82 31.64-4.75-16.174-8.12-35.34-13.58-50.895-21.63-9.908-38.13-20.389-55.92-36.747-7.91-7.282-22.02-29.994-1.27-28.343 14.32 1.139 41.56 28.404 51.37 40.433-5.75-18.691-9.38-37.32-14.72-55.206-12.35-6.032-30.31-20.406-39.86-30.729-5.43-5.384-28.12-29.764-25.98-36.826 10.5-34.742 56.95 34.116 62.34 42.346-5.33-18.769-9.9-37.439-14.84-56.294a51 51 0 0 1-5.15-4.014c-12.85-11.261-5.88-34.965 8.11-32.409 20.91 3.819 21.99 23.778 7.44 36.276 1.07 8.825 10.09 40.532 12.85 51.129 3.85-21.938 9.64-39.116 23.57-56.789 4.22-1.36 12.45-4.651 16.39-3 14.67 6.142 29.7 35.34 36.11 49.169.01-32.702 2.54-63.851 3.28-96.352-11.59-9.378-21.25-19.358-28.68-32.536-4.97-8.823-16.45-36.163-4.04-43 16.91-2.963 30.35 34 35.05 45.584 1.36-18.806 1.4-43.81 2.12-63.332-16.11-11.333-12.9-40.596-5.52-55.899 3.32-6.871 7.82-24.092 16.02-24.728 6.32 3.523 5.27 8.985 7.72 14.859 5.67 13.594 10.29 25.908 6.9 40.946-2.12 9.4-6.23 19.846-14.53 25.471-.73 20.673-2.25 41.027-2.44 61.771 7.54-12.266 26.52-39.314 43.58-39.318 6.19-.001 7.27 8.934 5.75 14.146-7.59 25.938-28.36 41.95-50.09 55.824-2.45 11.406-5.06 69.629-5.02 83.007 3.55-9.403 6.34-16.138 13.17-23.796 7-7.843 22.31-22.797 33.94-18.378 13.26 14.385-38.64 59.262-48.02 68.13-.4 10.954-1.35 22.242-.89 33.131q1.26-2.11 2.61-4.166c5.76-8.77 25.92-30.958 37.59-22.353 10.52 15.331-29.66 50.037-41.55 58.248-1.48 61.171.85 116.964 2.04 177.547 8.33-9.008 25.53-34.413 39.93-31.367 2.96 2.095 3.02 2.469 4.96 5.714l.52.887c1.52-2.491 6.36-27.712 7.32-32.431a164 164 0 0 1-18.31-22.443c-7.2-10.487-32.6-47.582-16.99-56.756 17.11-1.209 35.58 40.247 40.99 54.097 2.08-10.511 5.47-22.42 8.21-32.91-10.64-14.752-27.19-37.575-29.36-56.451-.29-2.555 1.71-4.625 3.45-6.318 12.89-4.094 29.43 24.844 34.05 35.154 3.04-9.862 4.4-20.051 7.73-30.174-7.14-8.117-14.57-16.261-20.64-25.213-6.69-9.849-24.99-45.277-10.1-53.338 16.46-.556 33.21 41.39 37.73 54.915 1.52-12.627 3.65-19.605 7.45-31.469q-1.365-1.474-2.7-2.992c-11.11-12.675-20.01-25.655-24.71-42.113-2.28-7.956-7.11-20.397.47-26.635 14.83-2.714 29.19 33.805 33.49 44.65 3.88-11.153 8.88-33.563 12.23-46.294-9.56-18.099-11.53-32.122-.22-50.844 3.65-6.047 11.96-20.746 19.86-21.143 8.7 3.219 9.34 16.94 10.99 24.38 6.08 27.325-8.12 33.538-20.53 54.13-3.93 6.523-8.96 30.72-11.09 39.477 8.5-6.315 45.49-28.357 55.04-20.295 7.06 19.872-49.48 43.657-63.65 49.284-2.11 9.245-3.9 18.156-7.2 27.051 9.81-6.162 50.74-28.772 59.95-16.166 2.75 20.329-49.96 38.407-66.4 42.547a604 604 0 0 1-13.49 57.077c9.89-7.199 48.74-30.769 59.13-21.377 5.9 20.667-52.81 45.41-67.51 51.249-3.16 11.795-15.96 69.8-15.91 77.894 4.99.404 7.08.843 10.08 5.195 9.33 13.534 15.27 30.319 20.97 45.548a512 512 0 0 0 17.37-46.59c-3.74-8.878-12.76-20.296-17.42-30.144-4.16-7.584-16.66-33.072-12.65-40.359 10.45-18.98 30.49 18.354 33.92 26.46 1.88 4.469 4.02 10.209 5.83 15.503 16.74-33.115 14.54-64.977 52.15-88.16 3.64-2.24 9.27-4.447 13.53-3.119a6.9 6.9 0 0 1 4.25 3.708c7.88 16.746-32.54 53.098-47.23 60.195-3.05 8.165-5.85 14.568-9.46 22.479 11.44-9.985 35.2-31.876 50.78-27.642 6.11 4.959 2.4 11.891-2.22 16.464-12.51 12.362-34.93 23.552-52.53 24.321-5.16 14.835-11.38 29.479-15.11 44.576 10.84-7.271 56.25-33.849 63.93-16.911-.01 23.172-57.59 43.558-76.19 49.706-2.85 7.919-16.34 41.98-14.66 47.11 15.59 1.57 25.22 30.06 29.6 43.29 6.25-12.34 11.3-24.66 16.35-37.51-.46-.64-.91-1.27-1.34-1.92-5.35-7.87-20.27-48.309-7.93-56.055 10.29-6.453 19.57 20.741 22.4 28.365 2.81-7.577 16.14-45.777 21.73-48.36 3.56-.181 2.37-.638 4.82 1.272 3.26 9.138-12.05 38.673-16.48 48.748 7.15-6.573 36.25-28.905 43.38-14.294.77 17.484-38.37 34.724-52.4 38.684-6.94 16.3-14.22 35.23-22.39 50.66 8.81-7.24 32.69-25.82 44.19-16.17 5.44 8.95-3.59 18-10.1 23.39-15 12.41-26.17 16.11-45.11 14.21-3.86 11.85-16.35 35.25-22.45 47.21 11.67-7.25 42.03-21.59 52.43-7.01 3.41 17.66-54.82 35.25-68.62 39.92-20.57 35.74-46.37 70.46-73.09 101.86-38.83-2.71-35.56-49.43-69.12-56.28-5.93-1.21-27.15 1.79-34.59 2.54.9 6.47 3.68 16.54 1.8 22.42-5.57 4.35-82.12 17.33-93.34 19.31-55.4 10-111.16 17.9-167.16 23.67-43.65 4.31-78.2 10.33-116.61-16.6-.02 5.26 1.27 15.68-2.57 19.61-4.81 4.92-44 2.76-52.52 2.85l-135.97.47c-16.25.02-32.93-1.17-48.77-.58-15.84.48-31.66 1.62-47.4 3.44-13.01 1.56-32.13 5.31-44.57 4.82-26.104-1.01-48.237-4.18-74.801-3.43-1.643 3.33-1.938 3.88-4.476 6.57-3.895 1.95-38.397.8-44.709.77l-109.778-.53c-32.286.17-64.572.14-96.858-.1-12.245-.05-24.549 0-36.836.29-8.128.19-11.055-9.69-17.673-9.78-24.961-.38-49.818 3.54-74.933 3.86-19.726.24-37.206-5.29-56.192-5.57-21.959-.33-44.806 6.11-67.002 5.66-12.422-.25-25.309-7.69-35.647-8.84-17.344-1.93-35.885 1.37-54.062-.67-14.354-1.6-30.968-7.89-44.272-8.08-26.739-.38-52.11 5.62-79.248 3.38-24.932-2.07-42.932-11.13-66.937-16.55-13.753-3.1-28.879-.37-42.132-4.16-8.353-2.39-11.152-6.29-14.886-13.42.117-.23.233-.46.35-.7l.605-1.15c15.817-30.66 78.041-51.29 111.14-47.16-4.934-4.51-9.304-9.05-13.948-13.83-11.602 3.73-55.099 15.57-59.319-1.26 3.737-11.91 33.485-12.25 44.149-12.43-5.277-5.99-7.263-8.85-13.815-13.45-14.229 3.63-30.155 5.09-44.597 2.05-8.986-1.89-18.31-1.4-19.41-12 4.66-11.89 35.524-3.24 42.393-7.76l-.233-2.07c-3.237-4.08-7.406-6.89-11.562-10.04-14.207 2.46-48.274 8.81-57.182-5.65.714-12.52 29.101-12.35 38.036-12.82-9.498-5.64-18.931-14.01-27.751-20.8-4.98-3.84-12.635-9.9-9.427-16.72 2.945-2.12 3.44-2.14 7.09-2.33 7.48 2.21 29.234 25.71 36.073 32.77-1.668-6.75-6.572-28.74 3.146-30.83 15.813 4.77 17.207 36.01 17.669 49.36 4.352 4.55 8.964 9.1 13.403 13.59-2.568-10.9-6.599-32.57 1.96-41.75 4.06-4.35 10.242-1.14 13.333 2.99 11.84 15.79 8.035 37.49 5.851 55.67 2.753 2.93 7.156 6.63 10.254 9.39-.2-7.84-.217-30.55 9.97-30.91 12.842 7.04 9.348 36.59 6.58 48.17 12.292 12.25 19.062 21.49 33.095 32.19-10.431-22.28-8.377-34.32-14.503-48.7-9.821-23.06-23.164-50.78-33.795-74.01-13.724-.03-58.17-7.28-58.641-25.59 5.977-12.77 35.7-3.54 46.502-.13a1554 1554 0 0 0-19.87-36.73c-9.611.64-23.883.99-33.285.42-13.68-.84-57.61-12.97-57.93-28.42 4.447-12.327 18.69-7.258 28.083-5.523 18.709 3.453 36.034 8.773 54.091 14.753a2809 2809 0 0 1-27.013-44.873c-13.783-.569-62.044-3.911-64.03-21.741 5.11-9.29 34.127-.687 42.82 1.975-9.06-10.724-39.097-48.763-28.912-61.835 15.48-6.959 37.03 31.559 43.224 43.54 1.156-6.734 4.189-27.726 12.931-27.682 12.603 7.024 7.712 52.581 4.503 64.719 7.763 11.508 12.836 20.196 18.718 32.657 1.077-11.292 1.552-30.28 8.654-39.308 1.893-2.406 6.992-2.309 10.182-2.551-17.552-14.328-23.072-31.563-1.986-46.503l-4.841-6.336c-9.364.621-17.58.531-25.968-4.135-7.922-4.408-22.782-14.976-17.538-25.269 8.181-2.536 18.21 9.816 26.242 13.34 5.022 2.203 7.92 2.997 13.234 4.433 8.749-8.694 13.987-18.232 21.876-25.808-3.095-9.245-5.696-17.491-9.843-26.338a313 313 0 0 1-3.045-.894c-15.548-4.655-70.922-29.323-64.324-49.141 10.808-11.414 48.943 15.67 58.763 23.766-4.708-13.793-22.081-61.406-31.249-69.832-17.636-16.21-38.614-30.866-49.897-56.105-3.432-7.677-9.813-17.036-.477-24.405 3.39-.988 5.077-1.086 8.316.612 29.525 15.483 40.036 39.616 50.743 68.173.625-7.152 11.404-65.348 26.663-48.316 2.587 2.888 2.296 15.418 2.603 20.379 1.303 21.055-7.154 40.279-13.272 59.86-1.9 6.088 14.861 41.741 18.574 47.823 2.516-6.99 32.172-79.98 42.441-43.057 4.102 14.751-21.198 59.1-32.733 72.188 1.27 4.822 3.347 9.92 5.131 14.623 8.819-9.486 25.063-28.47 32.174-38.798.666-35.533 4.606-80.264 7.163-116.139l-.567-.386-.932-.661c-14.668-10.243-53.898-54.326-42.209-71.082 15.273-8.834 38.281 27.514 45.381 38.443.06-14.145 1.979-32.409 3.132-46.867-17.372-9.341-32.964-26.792-43.089-43.141-18.404-29.717-6.243-45.592 20.219-17.062 8.077 8.707 13.128 14.495 20.035 24.764q.317-8.238.749-16.47c.271-4.973 2.112-40.532 18.982-25.163 7.276 6.629 8.924 43.26 3.831 52.382-14.538 26.034-12.628 52.113-14.866 81.587 9.968-18.176 33.79-50.445 55.4-54.251 3.831-.675 6.58 4.76 5.979 8.339-3.364 20.009-21.868 37.128-36.846 49.633-4.602 4.441-24.239 14.785-24.629 20.984-1.874 29.8-5.508 76.837-5.283 105.272 12.84-14.875 25.536-29.335 39.284-43.403 1.273-1.303-.029-5.204-.393-6.968-5.15.91-10.542 13.11-18.178 8.554-2.066-1.232-6.229-9.238-6.06-11.414 1.468-18.946 16.555-35.681 27.296-50.523 11.649-14.543 26.892-33.231 43.493-41.178 2.785-1.333 9.982-2.117 13.004-2.475 13.274-24.797 20.958-29.784 48.893-36.23 14.202-3.277 30.752-6.81 44.696-10.7a209.2 209.2 0 0 0 44.181-17.887c18.801-10.333 40.603-26.142 52.621-44.209 7.882-11.849 36.951-110.637 37.243-125.588.134-6.914-1.652-14.332-2.535-21.199-2.606-20.265-4.63-42.734 1.143-62.564-2.844-3.616-6.541-7.687-9.596-11.225-23.796 28.926-34.594 22.21-67.304 15.458-4.074-.841-9.456 3.632-14.918 2.707-5.969-3.413-8.76-10.765-11.814-16.959-15.859-9.861-30.766-18.214-44.105-31.828-8.392-8.565-11.423-16.473-21.248-23.555"/><path fill="#fefefe" d="m681.662 616.76.711.702c1.032 4.243-3.991 56.068-4.897 65.127-7.216 72.119-11.359 144.031-16.52 216.266l-4.78 64.334c-.742 10.555-1.534 21.007-1.871 31.587-.365 11.464 12.138 8.804 20.22 8.514 1.588 23.76 5.979 52.46 8.731 76.45 5.944 54.88 12.4 109.71 19.367 164.47-6.668 2.25-13.743 4.3-20.499 6.36-25.654-30.21-63.736-49.31-101.64-28.52-3.668 2.01-7.249 4.19-10.831 6.36-1.741-8.8-2.717-21.62-13.454-23.15-10.521 4.5-6.546 20.91-5.243 29.8-15.674 4.62-24.808 9.56-35.921 21.6-38.883-12.24-47.936-12.06-87.835-3.55-25.518-30.56-49.949-47.93-89.814-31.89-25.705-28.04-48.323-30.74-84.188-21.25 4.515-8.35 12.827-24.17 18.903-30.99 23.754.55 54.876-1.82 69.117-26.74 2.684-4.7-1.379-10.93-6.741-11.98-16.447-3.21-32.755 4.28-47.085 11.57 7.126-16.17 21.385-46.46 30.044-61.27l.876-.12c15.148-2.19 29.945-6.73 42.733-15.31 8.341-5.6 25.338-16.79 23.437-28.54-10.806-15.3-46.043 10.18-56.269 18.15 3.645-8.65 13.284-33.33 18.495-39.48 6.517-7.7 9.568-7.09 17.299-18.794 4.82-7.967 20.996-54.01 6.166-59.179-13.028-4.541-30.131 24.823-33.202 35.631-3.733 13.137-6.839 23.346-.087 37.062-5.704 12.43-11.287 27.45-17.814 39.22-2.97-17.83-8.039-32.52-22.434-44.22.079-3.3-.761-21.286.521-23.012 7.516-10.121 42.781-28.794 36.86-44.116-10.441-10.89-42.63 13.911-51.914 20.691 1.707-10.054 24.536-73.902 7.567-76.396-10.757 6.464-12.407 43.736-14.942 56.003-1.356 6.559-2.117 9.327-4.461 15.887-5.865-10.364-18.268-29.724-31.823-31.669-6.519-.093-8.916 7.602-8.521 12.415 1.709 20.818 16.128 38.949 30.084 53.238-3.725 14.929-9.259 38.319-15.023 51.699-5.696-10.15-12.72-21.31-22.27-28.4-2.593-.15-5.002.12-6.856-1.46-1.099-5.4-.081-19.871-.074-26.237.033-30.652-.665-66.927 1.651-97.402 4.254-4.44 12.35-9.633 17.571-13.238a1068 1068 0 0 1 31.305-21.157c10.452-6.68 32.594-19.563 40.32-27.709 17.898 16.922 37.726 43.364 56.669 56.943 18.246 13.081 73.809.027 89.705-15.007 9.86-9.325 19.145-21.038 29.555-30.261 31.897 12.373 79.282-9.205 79.971-46.343.188-10.142-2.674-16.432-6.664-25.353 31.206-37.872 65.564-74.302 96.513-112.559 8.981-11.101 19.445-24.874 29.282-34.777"/><path d="M553.849 1076.51c15.426 2.9 17.669 27.95 18.196 40.73.237 5.73-1.938 8.19-5.838 11.84-3.062.1-6.478.59-8.667-1.77-6.986-7.5-8.536-24.04-9.097-33.92-.479-8.41.194-11.33 5.406-16.88m-49.046-165.944c12.441 2.907 24.174 28.544 22.73 40.911-.461 3.949-2.965 5.711-5.952 7.877-4.655-.178-6.908-.226-9.818-4.399-6.921-9.928-13.55-23.536-13.138-35.924.13-3.901 3.335-6.449 6.178-8.465m-18.56 101.054c14.774 2.57 15.658 26.21 15.952 37.99.169 6.75-1.421 9.42-6.243 13.82-17.63-.74-15.385-29.69-15.57-42.34-.072-4.9 2.408-6.71 5.861-9.47m-78.24 18.21c15.703 1.97 12.669 29.96 10.402 40.94-1.082 5.25-2.891 6.89-7.473 9.47-17.193-1.5-11.787-32.99-8.76-44.11.666-2.44 3.831-4.76 5.831-6.3m29.088 59.04c13.796-1.28 15.118 12.3 16.422 23.26.985 8.27 1.353 17.53-4.203 24.23-18.175 4.39-15.985-25.51-16.227-36.33-.1-4.48 1.159-7.71 4.008-11.16m-55.812 65.86c17.744-.9 14.674 25.21 13.355 36.68-.555 4.82-2.44 7.2-5.584 10.71-18.664-.03-13.881-20.88-13.434-34.04.192-5.66 1.723-9.24 5.663-13.35m113.321-8.1c4.589.3 7.529 1.18 9.608 5.73 5.075 11.12 11.696 35.32-1.149 42.69-15.12-2.59-14.38-25.4-14.222-37.61.063-4.84 2.036-7.84 5.763-10.81m-70.721-236.093c14.465.68 16.481 22.374 16.975 33.489.282 6.359-1.102 8.473-5.537 12.773-13.331 1.775-14.762-11.079-16.081-21.626-1.094-8.75-1.256-17.519 4.643-24.636m11.273 289.143c16.197 1.87 13.852 35.19 6.495 44.06-18.128 4.46-12.984-23.76-12.283-33.69.348-4.94 2.374-7.1 5.788-10.37"/><path fill="#fefefe" d="M1380.55 385.965c79.85 13.115 164.79 157.365 201.9 223.607-15.79 13.515-52.65 35.301-72.91 41.706-22.61 7.151-35.15 5.994-55.29-4.422-1.58-17.772-4.21-37.267-6.5-55.017-3.4-31.225-9.23-63.179-13.59-94.354-.48-3.441-1.47-5.891-4.41-7.835-3.84-.384-2.4-.748-5.65.997-1.36 1.936-1.9 3.775-1.47 6.159 5.9 32.157 8.18 66.284 13.7 98.197-34.6 5.862-71.31 9.071-105.58 15.568-14.37-70.051-32.03-189.122 49.8-224.606M639.262 282.212c48.575 2.293 140.363 73.432 174.385 108.252-10.453 27.012-37.295 95.321-71.419 100.257-23.304 3.371-52.327-11.061-71.285-24.869 6.544-22.036 13.874-43.492 21.078-65.303-2.654-3.474-3.681-4.747-8.028-4.37-9.761 6.386-36.571 112.354-43.261 130.8-34.015-9.997-69.118-18.31-103.467-28.298 1.939-14.237 15.714-56.365 20.3-72.428 8.556-29.973 15.385-64.533 27.967-92.487 8.783-19.513 32.988-44.119 53.73-51.554m119.612 721.228c13.121-1.5 50.653-.36 65.03-.05l10.956 197.7c1.07 22.36 3.038 46.72 3.162 68.91-46.473.06-97.97 2.13-144.772 3.23-17.029.36-36.1 1.96-53.167 3.14 14.031-5.45 66.679-18.34 74.085-25 1.63-9.22-9.101-83.67-10.748-97.44l-11.457-95.95c-1.87-15.29-4.208-39.42-7.541-53.8 24.553-.85 49.651.26 74.452-.74"/><path fill="#fefefe" d="m1435.28 607.298 1.25.078c3.36 4.155 7.57 55.54 7.8 63.334 3.72 126.374-111.2 138.156-209.15 139.596q-30.975.593-61.95.728c1.64-12.072 1.14-15.938-3.38-27.214-11.25-17.456-23.39-23.409-36.03-38.212 2.02-.196 4.03-.406 6.04-.631 17.43-1.949 43.59-5.917 61.62-9.066 37.5-6.55 101.55-10.754 127.15-41.018 14.85-17.557 7.24-51.726 4.38-73.506 32.4-4.166 70.32-8.496 102.27-14.089M533.589 509.25c12.978 4.75 30.593 8.776 44.237 12.367a3798 3798 0 0 1 59.744 16.507c-27.525 93.209-81.352 130.616-175.048 153.383-21.755 5.286-52.712 6.54-69.388 20.551-3.471 2.916-8.377 8.377-12.515 11.876-25.683 19.923-48.426 7.417-70.893-12.941-1.989-1.802-1.422-2.241-1.224-4.695 7.342-11.688 34.031-15.937 37.578-30.662 2.709-11.241-14.346-11.235-16.992-14.425 5.342-24.047 62.131-29.284 83.347-35.25a233 233 0 0 0 41.442-16.202c22.654-11.478 53.981-34.694 65.594-57.858 4.158-8.293 10.672-32.094 14.118-42.651m301.281 493.82c25.892-.14 51.494-.61 77.421-.34 2.448 33.61.657 82.12.911 116.53l1.863 111.24c.117 6.88 2.169 34.31-.321 38.46-20.519-.02-45.163 1.67-65.225.37.215-32.94-3.39-71.73-5.159-104.98-2.853-53.62-5.687-107.76-9.49-161.28m289.16 5.14c1.06 1.05 1.38 1.28 1.67 2.82 11.94 62.57 29.82 123.75 42.23 186.22 1.44 7.27 2.99 15.82 5.4 22.86 1.06 3.09 6.04 3.09 8.24 5.02 1.39 1.21 1.1 3.1 1.23 4.88-2.61 5.79-10.2 5.61-18.99 10.16-15.82-25.7-36.22-36.04-65.93-41.01-13.3-2.23-26.5-5.15-37.17-13.95-11.99-9.89-25.41-9.27-40.06-8.71 2.48-8.62 17.08-40.93 21.43-51.15 13.16-2.28 62.66-11.75 61.5-29.34-8.54-13.12-40.88.11-52.57 4.52 3.42-10.59 8.57-25.2 14.02-34.66 12.08-2.49 63.57-11.12 61.81-28.02-8.98-11.85-42.85 1.64-53.74 6.09 3.67-9.64 7.58-20.78 12.4-29.75 14.17-1.18 24.9-1.98 38.53-5.98m100.25-674.731c23.43 1.521 15.27 27.033 14.58 40.682-.06 1.261 1.77 1.571 2.83 2.006 6.38-1.116 8.04-2.538 11.94-7.266 31.8 21.352 38.41 17.988 76.76 16.785-13.09 10.305-14.32 20.345-23.7 29.708-12.25 12.224-24.79 23.688-37.05 36.256a65 65 0 0 0-3.93-7.804c-3.19-5.34-13.75-17.397-19.69-18.042-10.33-1.123-8.11 10.783-21.68 19.027l-1 .604c-9.34 1.402-13.71.204-22.51-2.751 3.22-4.874 7.37-11.14 4.06-16.944-10.35-4.671-7.99 12.353-19.81 12.505-19.44.249-14.35-8.423-21.13-14.817-4.13-1.017-4.2-.277-8.61.974-20.91-18.925-27.75-25.334-44.14-47.666 6.25-10.429 11.13-18.587 16.3-29.515 3.62 2.168 7.5 3.88 11.54 5.098 21.4 6.301 65.75 5.836 85.67-4.77-.68-4.693-1.95-9.723-.43-14.07"/><path d="m1176.09 366.938 3.35 1.201.58 1.743c-1.18 1.761-12.77 12.595-15.71 15.631-4.97 5.144-10.04 13.763-14.96 16.942-2.27-1.498-2.57-2.05-4.23-4.096-2.66-12.465 20.27-28.086 30.97-31.421m1.63 19.893c14 6.627 6.64 22.797-8.95 23.601-2.49-1.827-6.61-4.672-6.98-7.982 2.37-6.005 8.51-2.339 12.81-5.769.43-4.331.27-6.46 3.12-9.85"/><path fill="#fefefe" d="M492.312 232.873c28.423-.115 16.391 29.861 27.935 34.004 3.84-.706 2.521.104 4.844-2.817 1.049-4.329-.077-8.997-.759-13.477 25.106 8.615 52.137 16.487 77.645 24.322-28.037 27.03-26.781 38.771-39.682 71.627-8.841-9.636-21.884-21.785-31.644-30.779a605 605 0 0 1-10.524 13.632c-11.433 12.807-20.082 16.449-36.769 11.081-1.59-3.844 2.475-4.566 1.731-10.164l-1.709-1.251c-10.168-.819-6.15 5.792-11.397 6.804-6.982 1.348-11.089 1.127-18.836 3.614-1.594-3.702-5.07-12.447-7.7-14.783-6.712-5.961-18.861-10.345-26.283-15.422-10.855-7.424-21.122-19.461-29.651-29.426 26.583-2.975 67.017-11.552 89.628-26.366 4.2-10.472 3.955-14.449 13.171-20.599"/><path d="M449.127 273.722c2.32.361 2.161.476 3.898 2.124.385 3.328-12.114 23.537-15.374 30.258-3.056-1.134-3.623-1.128-5.685-3.479-3.168-11.611 7.768-23.531 17.161-28.903m11.187 14.783c3.709.681 4.542 1.193 6.23 4.425.631 8.903-7.876 17.603-15.563 20.951-3.895-1.097-4.075-.973-5.956-3.734.465-4.585 7.993-9.355 10.535-12.91 1.503-2.101 3.563-6.314 4.754-8.732m34.579-49.597c4.507.122 7.821-.427 9.445 4.2-1.093 4.814-3.548 5.167-5.998 9.939-3.127.761-3.255.847-6.122-.332-4.045-5.337-1.195-9.398 2.675-13.807"/><path fill="#fefefe" d="M641.797 562.679c4.202 3.95 29.475 38.162 32.495 43.374-48.163 59.754-96.003 113.327-146.751 170.502-7.32-8.508-13.196-10.802-21.394-17.794-2.176-1.856 12.742-17.238 8.341-21.911l-.212-.851c-1.581-.04-4.042-.167-5.201 1.021-6.683 6.848-12.877 14.145-20.549 19.974-6.556 4.981-14.554 13.068-23.097 7.251a7.53 7.53 0 0 1-3.227-5.14c-1.821-12.204 14.109-21.47 20.572-28.97 11.486-13.33 24.067-27.707 33.713-42.428a410 410 0 0 0 10.997-4.779c60.831-27.656 91.026-58.217 114.313-120.249m654.593 391.935c13.89 1.284 31.14 4.701 45.14 7.163 21.44 3.815 42.9 7.497 64.39 11.044-2.43 6.281-16.11 27.989-20.48 35.029-12.75 20.54-23.85 39.13-35.13 60.59-10.78 19.12-20.59 39.61-30.88 59.17-3.25-16.22-5.4-40.98-7.67-58.39zM290.115 726.62c8.727 1.189 124.688 121.866 140.276 138.803-7.433 3.044-14.954 4.728-22.728 6.703-15.889 2.169-22.666 3.104-38.397-.815-9.13-10.504-24.61-25.686-34.7-36.149a1596 1596 0 0 1-39.705-43.108c-27.268-30.272-39.939-34.644-4.746-65.434m1453.205 387.87c9.04-1.06 18.1 4.79 23.41 11.72-2.37 21.18 13.17 62.01 20.5 83.42 6.52 19.25 12.82 38.56 18.92 57.94-11.77-10.73-17.27-18.07-26.24-30.87-22.94-30.38-35.55-26.99-71.38-20.47-3.58-14.86-5.9-30.75-8.78-45.82-3.14-16.37-6.51-32.74-9.28-49.17 14.86-3.11 37.86-5.74 52.85-6.75m-445.98 90.83c2.01 1.14 2.33 8.56 2.54 11.51 1.29 18.02 9.5 29.17 19.3 43.87-54.64.97-109.28 1.39-163.93 1.28-7.89.28-16.21.73-24.06.57l.15-1.16c9.44-6.33 43.57-11.44 63.71-22.44.01-5.52-.25-11.48-.38-17.05 34.21-5.73 68.39-10.63 102.67-16.58M929.43 956.022a292.4 292.4 0 0 0 44.63 4.425 1655 1655 0 0 0 8.005 37.61 71 71 0 0 0-1.853-1.66c-8.47-7.232-37.273-31.803-46.501-19.502-3.821 18.937 37.523 43.465 52.321 48.845 5.646 18.21 8.695 39.28 12.107 58.24-8.532 10.56-12.048 16.74-18.19 28.44-3.59 8.46-5.844 15.41-8.667 24.14-6.329-11.25-13.038-25.38-18.973-37.06 7.499-13.2 27.681-55.61 15.465-67.77-14.07-2.98-24.421 34.38-27.479 44.42-2.672-5.5-14.343-25.99-15.102-29.16-5.361-22.4-.368-68.464 4.237-90.968m-641.976 76.918c2.176 14.96 10.81 31.84 20.373 43.37-9.277 16.81-21.116 43.22-30.116 61.34-2.342-9.78-11.151-37.15-24.13-35.71-16.785 8.12 4.454 48.91 10.111 60.15l-.847 2.42c-6.923 10.67-12.877 21.6-19.98 32.27-8.031-16.67-10.587-23.96-23.613-37.19 2.909-7.56 5.256-18.45 7.697-26.44 6.438-21.06 11.935-44.29 19.232-64.89 14.366-6.05 35.951-20.27 41.273-35.32m1580.946-92.2c1.1 1.267 3.49 8.924 5 11.974 6.79 13.632 13.42 26.671 23.79 37.984-5.13 17.342-12.21 35.362-17.72 52.922-.3-3.06-.55-6.13-.78-9.2-.83-10.29-2.09-25.62-10.41-32.68-22.22-6.373-7.89 69.49-1.27 80.87-8.01 22.25-15.89 44.54-23.64 66.88-7.75 19.91-13.96 39.96-21.47 59.61.12-35.18 8.32-71.88 13.54-106.59 8.25-54.85 21.13-107.69 32.96-161.77m-1694.205 6.955c7.922 7.009 22.917 19.184 27.682 27.59-1.616 21.438.853 46.765-1.829 68.455-.95 7.68-3.844 17.98-5.831 25.62-.414-9.06 1.546-28.77-4.326-36.28-1.556-1.99-4.851-1.58-7.278-1.63-6.723 8.54-9.672 25.37-12.305 36.41-5.862-13.21-13.089-26.61-20.29-39.14a39 39 0 0 0 2.488-2.7c12.934-15.26 13.672-50.027 11.875-69.373l.07-.225c5.042-2.231 7.024-4.267 9.744-8.727m89.335-173.684c3.626 3.319 12.53 13.524 16.757 17.862-32.1 37.41-77.208 76.148-113.087 113.438-2.445 2.4-3.687 2.809-6.812 2.217-3.223-2.628-4.836-6.945-6.752-10.813 2.997-3.899 7.486-8.608 10.851-12.31 32.647-35.914 64.718-76.452 99.043-110.394m1558.36 180.546c11.5-11.994 35.05-35.268 41.37-50.849.46-1.147.14-.922 1.24-2.462-.62 13.443-10.1 52.231-13.24 67.376-9.35 45.198-20.08 90.378-26.64 136.198-.34 5.04-1.46 10.41-2.38 15.42-.37-9.27-.4-21.11.61-30.27-.77-40.52 2.51-96.333-.96-135.413"/><path fill="#cecccd" d="M1822.85 1089.97c.19 4.07-.12 11.97 1.77 14.85-.34 5.04-1.46 10.41-2.38 15.42-.37-9.27-.4-21.11.61-30.27"/><path fill="#fefefe" d="M1769.6 648.607c1.82 1.384 12.66 20.243 15.7 24.009 7.65 9.5 15.46 15.373 23.69 24.083-.83 9.966-1.14 16.269-1.28 26.341-15.4-34.13-30.55-13.442-41.29 8.346-7.04 13.055-8.3 19.758-11.87 34.021-3.6-14.154-11.38-47.507-16.51-59.398 15.03-16.799 25.12-35.913 31.56-57.402"/><path fill="#fefefe" d="M1794.93 730.54c2.89 3.379 8.32 12.33 10.96 16.428-.03 8.854 1.68 48.389-1.17 53.234-20-.444-24.58 27.459-30.02 41.283l-.98-.109c-2.43-14.667-10.12-41.548-14.19-56.464 13.04-12.439 29.68-37.147 35.4-54.372m97.75 306.2c6.08 23.03 9.9 39.16 23.25 60.05a1325 1325 0 0 1-23 44.87l-1 1.05c-6.84-10.33-5.38-25.56-21.5-35.37 6.49-22.41 15.05-48.22 22.25-70.6m-844.01-124.698 13.48.027c-16.3 44.317-8.29 55.9 13.81 94.951-2.49 7.74-6.77 18.18-9.93 25.68l-1.37.72c-3.13-3.68-5.38-11.52-7.57-16.37-4.44-9.83-16.24-27.253-24.82-34.038 1.32-15.692 11.96-54.539 16.4-70.97m811.29 221.488c4.7 5.88 15.45 30.61 18.49 37.69-15.1 24.97-31.81 47.57-48.21 71.63l-9.36 13.02c10.51-43.39 24.26-80.54 39.08-122.34M1267.3 1272.4l12.83.48-.14 12.91c-13.91.99-33.7.5-47.98.55-30.5.15-61.01.13-91.51-.08-5.76.17-18.27.71-16.21-8.91 1.19-1.36 2.93-3.12 4.89-3.16 30.02-.57 60.08-1.12 90.12-1.11 15.65 0 32.53.47 48-.68m522.43-348.434c3.59 4.35 18.89 24.945 19.38 29.041 5.4 45.475 3.1 107.643 2.73 152.263.28 8.65.73 19.58-1.41 27.88-.32-6.81-.73-13.63-1.21-20.43zM779.822 1282.43c4.555-.51 11.474-.45 16.243-.55l-.178 16.13c-46.413.17-94.907-.86-141.637-1.05-7.146.05-17.233 2.84-20.413-4.99l.938-1.74c7.266-4.23 126.487-6.99 145.047-7.8m524.788-849.547c.35 5.118-7.24 25.051-8.31 32.523-3.33 23.011-3.48 42.081-3.1 64.994-5.89-1.398-12.07-3.137-17.96-4.685-.39-.118-2.22-1.203-2.65-1.445-3.26-7.96-1.08-47.157-.54-57.613 7.73-9.426 23.64-25.122 32.56-33.774M923.663 1142.66c18.9 9.21 27.053 10.12 47.166 14.68l9.42 18.3c-4.524.57-10.379 2.1-14.937 3.15-15.531 5-23.834 12.59-40.28 15.29a4525 4525 0 0 0-1.369-51.42M493.002 696.152l.828.764c-9.742 19.323-34.637 35.223-42.502 54.644-5.554-4.977-10.875-10.866-16.018-16.316-6.818-6.385-12.636-11.808-18.92-18.735 24.024-4.473 53.149-12.747 76.612-20.357M1803.68 838.549c1.12.905 1.96 1.734 2.06 3.316 1.82 28.147 1.27 56.143 4.23 84.273-3.13-4.849-6.73-9.754-10.08-14.483-4.64-6.075-10.36-12.301-15.44-18.092-.55-7.686-3.55-20.825-5.21-28.774 3.73-4.921 18.64-19.629 24.44-26.24m-778.25 171.431c.72 1.09 7.62 15.78 8.59 17.81 6.21 13.11 11.52 22.28 19.65 34.2-1.81 5.22-6.53 20.26-9.91 23.29l-1.03-2.59c-5.35-15.28-13.19-29.04-25.16-8.66 2-21.42 4.62-42.78 7.86-64.05m766.11 41.64 1.26 1.48c1.16 7.97 7.13 62.08 5.28 66.65-4.26-2.76-.89-5.57-7.13-10.42-3.1-2.42-3.43-5.32-4.11-9.04-.13-2.43-.54-2.6-1.94-4.59-7.05-.06-6.8 7.67-15.71 3.21-2.92-3.08-3.51-7.69-4.49-11.89 12.71-14.85 16.46-18.26 26.84-35.4M205.935 893.963c.814 5.854-.002 55.156-.451 62.297l-12.57-10.612-8.931-7.383a1751 1751 0 0 1 .016-29.442c7.278-4.362 14.922-9.962 21.936-14.86m8.277 141.817c1.534 1.5 2.75 5.01 3.939 7.11 5.993 10.63 8.178 17.17 17.792 25.01a1854 1854 0 0 1-14.223 47.58l-5.282 16.98zm92.746-361.643c6.553-.46 15.802-.109 22.559-.049-43.832 23.897-49.681 30.181-77.447 70.539-4.897 6.823-6.237 9.261-12.471 14.882.441-2.27 1.78-8.712 2.533-10.597 8.673-21.729 44.402-64.795 64.826-74.775M1779.88 1112.56c4.09 1.2 8.52 3.84 9.91 7.97 5.13 15.28 8.81 32.19 13.31 47.74l-12.1 1.28c-.25.03-.51.12-.76.08-3.09-.44-4.95-19.76-10.39-24.46-1.69-.16-2.4-.22-4.06-.07l-1.28.11c-6.86-6.86-.21-25.93 5.37-32.65M935.147 897.549c8.397 3.426 15.872 5.96 24.846 7.327 1.365 5.857 8.638 32.949 8.101 36.197-13.259-8.919-21.393-11.14-35.398-17.822.659-8.434 1.641-17.245 2.451-25.702"/><path fill="#fefefe" d="M1072.75 909.379c.74.479 1.74 1.486 2.42 2.119 2.77 15.348 11.84 39.007 22.95 50.145-2.95 6.205-5.93 12.392-8.95 18.563l-.74.291c-2.34-1.442-3.84-7.082-4.84-9.98-4.29-12.438-10.73-22.64-18.23-33.422 1.2-6.297 3.67-24.25 7.39-27.716m-786.805 74.833c.895 1.536 1.114 40.938.39 44.148-9.279-6.12-11.449-4.24-21.841-.93-1.352.78-3.129 1.63-4.552 2.36l-.768-.73c1.066-6.97 9.731-32.016 12.513-38.9 4.575-1.532 9.774-3.976 14.258-5.948M999.16 1121.57c3.16 6.52 2.04 56.05-2.61 61.4l-1.644.03c-2.761-2.85-2.703-4-3.606-7.93-2.953-5.76-6.938-12.44-9.131-18.4-3.746-10.19 5.47-16.3 10.557-23.72 2.072-3.03 4.603-7.92 6.434-11.38m99.64-316.63c1.7 2.241 9.32 60.794 9.77 67.295-2.08.52-3.73-.717-6.08-1.725-5.61-19.567-10.75-34.823-15.16-54.997zm-83.2 198.85c.3 3.39-1.57 14.09-2 18.14-1.75 16.72-5.56 35.38-5.99 52.05l-.49.14-1.67-4.85c-2.31-14.72-6.221-30.71-7.995-45.04 5.885-6.2 12.245-13.92 18.145-20.44m-651.875-54.931c4.251 4.662-3.297 31.396-6.346 37.11-4.266 7.993-5.959 11.613-13.555 16.651-6.733-17.454 9.054-41.029 19.901-53.761M202.749 1077.78c2.813 3.51 1.784 54.95 1.067 62.65l-5.029-11.07c-4.29-10.25-8.676-20.47-13.159-30.64 9.967-5.93 12.058-10.66 17.121-20.94M1826.48 419.028c9.39 12.325 8.39 38.953-2.5 51.05-14.41-13.279-4.46-36.862 2.5-51.05m126.04 145.891c5.81 14.454 2.91 38.644-11.32 47.764-10.49-16.774 0-34.827 11.32-47.764M67.85 675.705c19.599 7.895 35.416 33.673 41.573 52.84-12.779-5.428-36.891-39.147-41.573-52.84m740.319 605.625c8.713-.59 20.844-.31 29.825-.35l.281 17.04-30.179-.33c-.007-5.45.017-10.91.073-16.36m115.146-181.2c6.511 1.41 11.772 2.49 18.434 3.38 4.473 7.43 11.075 18.54 13.644 26.65-10.965-5.96-19.949-9.21-32.055-12.05-.307-6.55-.28-11.42-.023-17.98m-74.444 181.29c9.686-.67 19.43-.53 29.142-.53l1.065 17.14c-9.552.05-19.105.01-28.656-.11-.099-6.86-.019-9.91-1.551-16.5m41.841-.96c7.384-.08 19.951-2.15 25.413 2.84 2.224 3.93 1.354 10.45.891 15.06l-25.923.23c-.396-6.65-.585-11.5-.381-18.13m424.798-8.78c2.8-.05 4.84-.12 7.31 1.19 1.64 3.74.58 8.64.15 12.95-8.07.12-16.15.18-24.22.18l-5.83.08c-3.65-2.59-3.55-8.01-1.51-11.7 6.27-5.15 15.98-.98 24.1-2.7m486.17-89.21 2.83-.44c3.62 2.81 7.44 21.39 9.24 27.7-4.96 2.87-5.83 3.58-9.94 7.58l-1.41-.6c-2.57-7.01-9.8-25.83-10.32-32.7 2.04-1.42 6.66-1.29 9.6-1.54m-780.46-82.74c1.39 1.83 9.11 16.09 11.82 20.23-3.82 8.6-6.76 15.82-10.01 24.65l-1.81 2.96c-6.61-7.07-1.62-38.16 0-47.84M493.229 764.828c2.659-.242 6.206.01 7.941 2.121-10.891 11.751-16.029 21.906-25.421 32.053-1.959 1.07-2.74.924-5.028 1.255l-1.017-1.016c-2.309-9.834 15.434-28.955 23.525-34.413m607.861 135.109 1.6.051c3.22 3.152 6.99 31.001 7.85 36.843-1.15 2.107-2.39 4.162-3.61 6.23l-1.12-.364c-3.58-12.596-8.52-25.13-12.2-37.999 1.76-2.754 4.35-3.394 7.48-4.761m-592.603-124.43c1.703.158 2.658.632 4.267 1.225 3.481 8.787-13.636 26.864-20.301 31.73-3.029-1.399-3.476-1.786-4.467-4.772 1.865-7.857 14.124-23.211 20.501-28.183M156.99 921.636c13.599 5.282 8.234 17.614 1.598 26.315-9.45-7.897-13.324-18.349-1.598-26.315m956.66 50.853c2.49-.687 1.3-.79 3.66.376 1.72 4.436 2.21 6.966 3.22 11.592-4.85 1.836-11.18 3.386-16.3 4.784-1.38.474-2.94.565-4.42.756l-1.15-1.039c-.13-6.243 1.75-8.513 5.48-13.273 2.68-3.423 5.14-2.813 9.51-3.196m598.06-373.25c12.7 2.426 12.34 13.435 5.16 22.093-12.06-1.67-11.45-13.878-5.16-22.093M522.283 786.518c3.746 3.492 4.273 4.477 6.915 8.766-5.46 8.213-6.919 10.929-15.208 15.932-3.221.209-3.845.153-7.016-.465-.04-.52 13.537-20.517 15.309-24.233m419.04 51.175c2.161 1.949 9.015 28.938 9.559 33.133-4.404-1.802-7.498-2.396-12.121-3.434.693-9.729 1.245-20.101 2.562-29.699m124.897 31.742 3.17.871c3.37 2.805 4.13 6.163 5.74 10.359-4.11 1.41-9.38 3.932-13.45 5.745l-4.24 1.918-1.28-1.099c-.3-6.728 5.07-13.726 10.06-17.794"/><path d="M1451.28 180.431c40.96-2.554 75.05 13.815 101.5 44.229 57.81-23.201 115.03-36.173 177.59-27.931 5.18.683 6.76 3.51 6.7 8.119-3.78 4.426-16.85 1.939-23.01 1.618a359 359 0 0 0-32.16-.243 336.4 336.4 0 0 0-147.74 41.52c-10.39 5.684-20.27 11.733-29.77 18.779-3.49 2.596-6.59 3.291-10.4 1.166-2.73-5.035 1.25-8.453 5.27-11.531 12.87-9.823 27.89-17.889 41.72-26.216-36.3-42.617-96.81-51.262-143.37-18.942-16.5 11.454-20.5 24.62-31.66 33.355-6.67 1.405-32.57-12.136-40.69-15.944a428.3 428.3 0 0 0-281.25-16.982 654 654 0 0 0-48.689 15.808c-8.625 3.236-27.633 14.545-34.779 8.984-.321-1.513-1.059-3.368-.244-4.281 10.052-11.268 63.632-27.563 76.542-31.26a443.35 443.35 0 0 1 259.57 4.645c20.96 6.748 45.97 16.453 65.27 27.182 20.48-31.557 51.92-49.898 89.6-52.075"/></svg>