<svg xmlns="http://www.w3.org/2000/svg" preserveAspectRatio="none" style="display:block" viewBox="0 0 2048 1462"><path fill="#fff" d="M0 0h2048v1462H0z"/><path d="M1011.04 227.313c19.2-1.963 33.21.462 50.19 9.448 12.55-2.547 23.83-4.223 36.66-.25 22.4 6.937 46.67 34.306 58.08 54.279 17.48 29.406 11.22 61.076 18.35 92.666 7.8 34.539 32.16 61.591 18.82 98.546-4.29 11.875-9.09 18.192-20.44 23.951-3.86 7.884-17.55 48.721-29.89 25.062-12.24 12.202-27.19 12.431-37.67 20.759-2.57 5.58 4.94 6.492 7.77 10.246 13.21 17.52 28.51 20.419 48.29 26.831 27.63 8.956 55.95 16.095 83.3 25.836 34.4 12.4 57.86 40.211 78.38 69.15 34.88 47.507 60.73 99.549 85.42 152.837 13.62 29.402 28.77 58.021 41.92 87.713 13.76-4.179 35.59-5.111 46.41-9.75l-.21-1.823c-7.4-11.117-32.42-11.707-41.02-18.429l.28-1.117c13.08-7.534 47.44-2.83 61.45-3.976-12.72-7.485-16.77 5.05-26.73-19.887-6.31-3.171-36.95-17.89-38.27-22.189 6.86-4.988 28.39 2.94 39.08-2.484 1.79-5.691-4.64-17.502-7.18-23.702-8.82-3.205-33.74-12.211-37.78-19.908l.64-1.624c4.2-2.308 28.42-.439 36.38-.634l-5.51-9.789c-7.17-1.688-31.53-6.449-34.6-12.463l1.15-1.761c8.08-3.616 26.24-3.36 35.91-3.703-.05-8.787-.22-12.362-1.71-21.014-7-3.9-31.55-11.18-31.49-19.434 4.39-4.068 12.96-2.176 18.63-1.574-6.17-14.494-13.24-27.198-20.78-40.888-.68-1.239.26-1.821 1.06-2.865 6.72-1.637 28.4 5.343 36.62 7.46-1.03-7.242-1.85-12.891-2.15-20.255-7.03-2.964-35.15-15.938-39.34-20.519l.19-1.506c7.35-3.526 31.81-1.348 42.56-2.578l1.28-.154c-3.64-7.83-7.36-14.069-11.71-21.486-5.69-2.301-21.1-7.642-22.92-13.567.66-.818.89-1.424 1.93-1.743 8.87-2.725 48.25-.562 61.98-1.204 44.99-2.105 89.71-9.425 134.62-11.26 20.88-.853 245.34 3.24 251.91 7.267 1.28.786 1.05 1.68 1.36 3.075-4.64 6.766-26.18 1.585-34.43 13.769-6.28 9.266-4.87 13.482-3.34 24.294 7.92-.072 37.75.052 39.49 8.545-5.44 11.499-41.42-9.746-13.08 49.563 7.93.649 31.22.613 34.67 7.751-2.42 6.614-26.81 11.45-34.09 13.341 7.22 8.149 7.05 11.262 5.07 21.685 6.53.585 20.77.355 25.66 3.327 1.48 3.19 1.13 1.889.8 5.588-5.28 4.9-24.59 1.636-33.7 4.104-7.13 1.934-8.72 2.544-15.68 5.478 8.69 6.041 22.39 12.203 29.84 18.511 5.76-.119 18.45-1.86 20.26 4.95-3.95 5.589-25.63 5.732-32.6 6.55 2.72 6.442 4.91 11.941 7.28 18.537 6.98.044 19.47-1.517 23.11 5.197-5.32 6.709-26.66 4.099-37.38 6.077l-1.18.228c2.2 8.033 2.31 19.745 3.27 28.773 5.87.537 11.55-.341 17.13 1.164 2.76 2.849 2.5 1.732 2.89 4.986-1.57 2.701-6.82 4.758-10.21 7.11-3.75 11.047 2.08 24.825 6.25 34.987 5.32.714 14.63.769 16.96 5.804l-.87 2.296c-5.44 4.34-17.17 1.818-26.68 3.781l-1.39.294c2.47 17.091 4.55 26.286-2.04 42.307 8.45.613 22.95-1.261 29.83 2.808 1.65 2.928 1.37 1.374.58 4.858-3.33 3.522-21.81 2.996-28.63 3.776 5.28 5.151 6 6.835 8.85 13.373 6.35-.43 15.21-1.68 20.78.891 2.17 2.629 1.57 1.128 1.59 4.752-5.86 6.369-19.03 2.028-24.81 5.904-.64 4.522 1.05 15.158 1.67 20.178 6.77.34 17.4-2.27 20.93 4.47-4.2 7.84-23.26 5.75-31.36 7.91-3.62.97-5.88 2-9.23 3.58 15.39 11.63 38.17 10.26 43.13 16.38-.18 3.47.36 2.13-2.26 4.83-5.25 1.26-18.77.41-24.77.23 2.05 5.79 4.42 16.3 6.04 22.69 11.07.82 12.26-.58 23.22 3.79l.21 2.77c-6.56 5.01-25.92 4.12-33.96 4.13-.25 10.62 1.13 17.86 3.28 28.05 5.31.15 14.05-.83 16.51 3.75-1.57 9.5-8.58 3.37-14.44 7.78-1.08 7.2 6.2 23.14 8.67 32.26 5.84.01 14.01-.83 18.03 3.98l-.4 1.76c-6.32 5.25-12.44 4.45-20.61 4.77 1.4 8.21 1.82 12.43 2.29 20.66 19.01.5 58.37-9.72 58.01 19.14-.12 9.3-2.76 19.34-13.72 20.08-11.57.79-23.03.45-34.62.39l-59.02.02c.98 46.78-3.99 96.67-3.84 143.69.02 9.53-.78 27.08-7.45 34.46-16.22 3.52-80.57 1.95-102.27 1.87l-218.14-.96-964.11-3.86c-76.082.56-156.076-.83-232.27-1.65-27.829-.2-55.657-.59-83.482-1.15-17.3-.3-34.665-.68-51.912-1.87-3.928-.27-8.389-3.2-9.504-6.95-.975-3.39-1.819-7.49-1.942-11.03-.608-17.55-.167-35.59.013-53.13.3-34.69.877-69.37 1.732-104.06-21.028-1.05-42.669.31-63.485-.43-21.286-1.26-39.996 4.99-38.642-24.29 1.206-26.07 17.891-22.82 37.95-22.75 16.684.05 33.942 1.06 50.668 2.35a545 545 0 0 1-6.634-17.95c-7.697-5.57-21.156-8.12-23.98-14.89 7.278-6.15 23.821 1.07 30.238-6.42l-.471-2.67c-7.081-9.24-26.811-6.29-28.373-16.19 3.122-6.81 24.311 1.79 34.542-3.42l.626-1.93c-2.342-3.09-2.557-2.46-6.517-3.97-2.621-2.82-5.356-15.1-6.616-19.73-5.354-2.56-23.407-8.2-23.114-14.46 5.147-2.67 26.975-.55 36.274-1.05-3.04-12.03-4.375-16.03-10.086-26.79-7.417-.16-23.118-3.23-26.026-10.73 4.459-6.86 22.411 1.6 25.537-6.64-.675-3.66-2.589-5.18-5.098-8.01-.589-.16-1.177-.33-1.765-.5-5.81-1.68-17.776-4.88-20.762-10.27l.739-1.83c7.087-3.95 20.683-2.48 29.014-2.18-10.078-19.515-13.232-11.814-28.222-24.271-.935-.778-.762-.762-.527-2.032 4.898-3.43 22.223-.896 29.17-.265l1.109-1.564c-2.737-11.197-33.616-12.792-35.656-23.097 5.77-3.594 18.706-.201 25.582-1.159 3.214-.447 6.939-1.676 10.031-2.672-5.482-19.602-8.556-7.631-14.795-27.504-6.259-2.899-23.933-5.914-23.369-13.35 6.292-5.824 21.322 1.047 28.738-1.294 1.096-3.204-1.171-3.455-2.997-8.713 1.6-2.686.484-1.768 3.518-2.775 3.552 1.228 4.442 1.757 8.104 1.75-7.397-6.985-36.667-17.925-34.485-27.244 5.348-3.177 15.678 2.863 22.909 2.477 4.674-8.194 10.031-1.162 16.426-5.527-.268-3.348-5.623-14.472-7.378-19.455-7.038-4.248-30.801-12.687-25.749-21.14 6.166-1.851 23.749 3.339 33.006 1.308.336-1.988-5.087-25.462-5.905-29.78-6.264-2.817-28.489-11.114-29.312-17.871 4.568-3.963 23.504-.012 29.712.921-7.456-6.135-8.472-5.052-8.454-14.19-6.604-5.706-18.914-7.486-20.937-15.25l1.077-1.643c5.906-2.552 22.689 1.676 32.328 1.933-1.547-8.744-2.998-16.731-5.007-25.387-6.99-2.3-30.045-10.516-28.655-19.591l2.395-1.836c11.665-.222 23.478 2.022 35.132 2.391 44.175 1.399 88.159 2.838 132.256 6.115 3.157.234 7.889.041 10.779-1.34.578-6.333.814-10.103-6.556-9.342-34.94 3.611-69.233 1.936-104.285.266-28.424-1.354-57.355-1.248-82.861-15.984-2.128-1.23-2.932-2.596-3.289-4.804l1.405-1.482c7.407-2.8 12.141-.468 19.679 1.686 15.293-7.989 24.068-15.08 41.877-17.403-4.988-3.847-41.885-33.559-43.306-36.286 5.127-4.131 29.736-.267 38.349-1.621 9.979-13.796-28.273-29.49-28.064-35.247 5.004-3.729 19.657-2.221 26.395-2.144 53.785.617 107.214-11.481 160.456-15.623 38.814-3.019 80.112-.789 119.024-.033 24.032.467 48.036.587 72.056 1.326 14.66.577 69.435-.247 80.766 3.223 2.046 3.264 1.571 1.786 1.39 5.846-6.014 6.567-24.622-2.417-32.861 7.034-5.663 6.495-9.979 23.155-3.86 29.729 9.636 2.897 31.423-2.594 38.281 4.814.554 3.406.805 1.855-.568 4.843-3.828 2.356-10.961 1.087-16.062 2.167-14.411 3.4-7.824 23.152-6.347 32.682 3.108 20.055 43.532 6.594 45.837 21.762l-1.41 2.641c-4.04.578-11.565 1.222-15.393 1.335-29.136.854-58.686-2.18-87.759-2.667-16.335.004-32.689 1.159-49.016 1.581-14.925.386-29.815 1.047-44.741 1.429-22.738.582-45.248 2.986-67.725 6.383-11.249 1.7-23.088 2.727-33.975 5.996-1.501.451-1.193.854-1.69 2.249.769 1.329 1.708 3.278 3.86 3.046 6.36-.687 13.198-1.392 19.519-1.978 16.72-1.671 33.47-3.034 50.24-4.089 58.308-3.3 116.231-.423 174.502-3.474 8.353-.438 32.724-7.736 34.865 3.759-3.98 6.738-22.73 5.559-30.96 7.762-1.077 3.688.056 9.893.526 13.966 10.478.978 25.483 1.081 34.111 6.013l.383 1.856c-9.435 6.912-46.45 2.543-44.528 15.967 2.478 17.314 32.489 6.707 43.105 16.636-.387 3.257-3.511 4.31-6.711 5.175-15.62 4.22-20.65 12.71-30.344 25.219 10.151.828 20.433 1.65 30.593 2.456 3.521.28 4.764 1.822 6.577 4.194-2.025 10.366-20.085 2.749-26.65 7.221-1.74 3.905-3.224 18.869-4.127 24.681 6.324.347 15.164-.033 18.099 5.826-2.003 8.138-9.968 2.157-15.977 7.587-.833 7.253 7.683 24.834 10.899 33.202 19.465.913 45.72.219 65.604-.089 31.745-80.819 56.817-176.711 102.266-250.806 23.037-37.557 100.923-41.667 139.682-50.863 10.863-2.577 62.079-20.393 65.026-29.584-1.404-3.213-4.738-6.088-8.178-6.619-2.068 3.237-2.188 3.88-5.448 5.571-12.124 1.724-24.315-9.218-33.039-15.372-.537-.379-5.686.482-9.418-2.039a23.5 23.5 0 0 1-6.205-6.155c-3.658-5.215-5.925-12.481-9.398-17.387-5.904-7.894-13.238-14.495-18.055-23.229-16.928-30.719 4.021-63.139 8.77-94.149.978-7.406 1.899-15.666 2.175-23.141 2.872-77.579 38.124-131.171 117.801-144.621"/><path fill="#fff" d="M394.184 894.957c34.016 2.115 76.423.936 111.316 1.175l229.792 1.877c47.847.147 96.083-.199 143.941.892 3.592.082 11.371.948 14.659 2.614 1.341.679 2.608 5.496 2.999 7.136 6.009 25.243 11.955 50.64 18.26 75.806l51.235 206.333c-3.582 3.16-47.991 2.01-55.389 2.02-49.426.28-98.854.02-148.274-.79l-167.725-2c-35.267-.25-70.569-.02-105.812-1.48-8.597-.35-21.363-8.03-24.056-16.63-4.59-14.67-7.881-29.96-11.547-44.91a4720 4720 0 0 1-21.031-85.87c-11.854-49.335-26.384-97.23-38.368-146.173m584.133-289.566c10.137 6.61 34.843 49.001 41.813 51.396 8.33-1.755 56.67-40.645 68.09-48.923-2.86 68.264-6.53 133.874-6.15 202.708.57 106.637 9.76 210.168 16.77 316.178.73 12.26 1.71 24.5 2.94 36.71-25.38-.51-50.76-.73-76.14-.65-16.83-.01-37.339-.4-53.943.86-2.443-8.81-11.097-47.13-11.38-55.28-.313-9.03 2.533-35.43 2.731-47.42.648-39.07 1.95-78.638 2.551-117.69 1.246-80.81.779-162.052 5.306-242.75 1.691-30.133 2.981-65.504 7.412-95.139m165.153-10.662c15.12 2.929 34.89 12.302 50.54 16.303 52.15 13.33 78.23 24.76 111.05 68.297a604 604 0 0 1 37.92 56.474 1122 1122 0 0 1 28.06 50.614c7.89 15.304 21.34 44.312 28.46 59.688 11.66 25.162 55.15 108.97 56.58 129.681 2.04 29.834-17.14 105.824-25.19 137.194-11.7-29.71-16.78-24.14-45.13-28.55-12-24.39-23.11-34.69-50.3-22.47 4.64-13.67 9.09-28.7 13.46-42.54 2.8-8.84 17.19-46.448 10.92-52.133-9.51.957-18.51 40.763-21.75 50.403-6.69-16.73-13.2-33.409-21.02-49.717-7.13-15.55-23.99-33.329-25.89-50.556-6.15-56.13-13.22-111.566-11.73-168.188.18-6.556.75-31.682-5.72-33.693-5.16 1.225-7.09 5.233-6.88 10.331 1.46 35.726-1.04 72.845 3.45 108.272-34.31-42.626-73.67-95.53-105.5-139.424 5.02-6.872 30.75-33.675 30.86-39.243.18-8.898-44.57-52.602-52.19-60.743m-220.086-2.504 2.064-.2c-.569 4.805-51.507 49.737-50.052 61.848.82 6.833 29.393 30.079 35.45 35.511-18.79 31.793-41.343 63.258-62.156 93.787-13.397 19.652-28.947 38.484-42.724 57.986 1.248-13.225 2.585-26.28 3.926-39.668 2.758-27.524-2.002-55.061-1.05-82.624.142-4.141-.828-5.199-3.557-7.746-3.838-.49-2.32-.787-5.707 1.143-2.072 3.063-2.888 8.021-2.63 11.667 2.572 36.287 2.621 66.997-1.181 103.306-2.277 16.45-4.919 44.324-8.499 59.615-9.781.19-22.44-.548-32.691-.625a6268 6268 0 0 0-77.33-.071c7.155-20.125 15.909-40.059 22.919-60.357 20.627-59.741 39.558-121.054 71.178-176.11 10.365-18.049 26.916-28.884 46.483-34.824 34.641-10.516 70.282-14.491 105.557-22.638M1058.83 348.42c2.47 2.149 4.83 6.047 6.56 8.917 9.21 15.269 19.91 27.507 32.39 40.176-11.19.375-21.61 1.991-32.02 6.082-2.34 2.974-1.73 1.336-1.93 5.071 5.41 7.421 16.5-1.8 27.73-1.939 18.97-.236 23.82 7.913 39.99 11.319 1 .911 1.88 2.169 1.98 3.56 4.05 56.766-23.12 135.287-85.1 147.382-2.55.267-5.1.472-7.66.615-74.43 3.751-101.538-82.341-104.247-142.37 8.582-2.158 22.06-7.881 30.273-8.68 17.557-1.709 35.884 4.536 52.484-6.016 20.06-12.752 34.1-41.566 39.55-64.117"/><path d="M1033.33 441.017c3.3.063 3.6-.059 6.44 1.418 7.92 11.027 2.18 41.334-4.63 52.452-1.79.112-2.87-.427-4.55-1.009-.76-1.119-1.97-2.703-1.51-4.046 6.05-17.476 3.52-31.361 4.25-48.815m-25.11 64.371c7.37.558 17.2 11.405 28.96 9.333 7.48-1.319 17.95-9.432 23.17-5.682.05 2.358-.61 2.898-1.97 4.832-14.59 11.723-51.71 14.578-50.16-8.483m93.1-71.437c2.8 1.593 3.63 2.325 4.28 5.304-1.72 3.598-6.23 6.001-9.96 7.042-12.28 3.421-16.32 3.574-27.3-1.736l-2.62-2.902c-.83-3.705-1.3-3.004 0-5.71 11.71-4.13 9.2 13.97 35.6-1.998m-134.091 1.879c17.907 8.74 11.025 7.018 31.434 2.3 2.527-.585 3.357.058 5.017 1.312-.16 3.323-.04 2.223-2.44 5.353a49 49 0 0 1-3.783 2.184c-9.699 4.956-38.001 4.693-30.228-11.149"/><path fill="#fff" d="M1353.84 1068.05c15.7-.22 16.54 14.33 18.17 26.11 13.41 6.4 27.02 4.27 41.6 8.81 3.5 6.41 7.21 17.18 5.23 24.07-4.57 15.89-20.54 79.38-36.42 84.68-1.9-.2-3.29-.44-4.76-1.75-12.07-10.8 20.76-71.65 19.23-89.04-1.66-2.94-.47-2.02-3.59-2.98-13.41 4.57-22.55 76.32-36.49 86.56-25.39 5.37 2.43-78.76 6.19-89.67-2.66-3.05-3.58-3.95-7.07-4.62-9.32 5.74-34.11 84.54-45.41 87.35-25.87-9.32 23.95-97.38 23.94-106.92-1.26-3.06-1.31-3.15-4-4.91-10.96 3.24-23.63 42.38-27.71 53.27-3.87 10.32-5.05 28.14-14.86 35.02-4.82.47-6.71-3.39-6.92-7.84-2.09-43.17 30.37-90.07 72.87-98.14m391.9-158.599c4.24-1.064 41.92.074 48.3.122 27.99.209 56.59.713 84.58 1.659 5.13 19.938 4.52 30.186-1.36 49.089-19.27-2.488-41.85-3.719-61.72-5.732-45.54-4.786-91.54-9.905-137.32-12.877-.56-.037-2.92-2.17-3.36-2.72-5.91-7.53-4.29-16.43-3.65-25.798 22.43-2.123 51.78-2.857 74.53-3.743M422.275 638.527l153.813-.803c-2.569 18.958-2.125 29.126 6.599 45.737-21.223-.361-44.401-2.55-65.937-3.603-8.854-.247-24.443-2.145-33.916-2.968a2312 2312 0 0 0-80.922-6.345c-8.553-.456-39.46.185-43.764-1.546-4.468-5.2-4.511-19.021-6.662-27.892zm1242.945 15.368c25.98-.697 62.75 1.921 89.28 3.016 38.84 1.603 80 1.813 118.57 4.059-1.14 10.505-1.17 15.389.51 25.832.61 3.802 3.51 12.517 3.05 14.52l-2.86.57c-5.97-.783-12.59-1.293-18.61-1.502-64.17-2.237-127.09-12.496-190.56-21.206-2.02-.278-2.94-.944-4.29-2.322-1.86-4.013-1.32-9.26-1.24-13.792 1.86-3.432 3.87-6.036 6.15-9.175m4.14 509.085c9.94-.41 21.12-.12 31.04.52 62.63 4 125.17 3.31 187.79 4.71 3.92 3.19 5.55 15.57 5.37 20.41-70.38 4.03-145.82.03-216.57 1.29-11.2.2-8.53-19.95-7.63-26.93M175.29 787.81c11.097 1.935 27.467 2.103 39.175 3.43 27.761 3.146 89.245 10.949 113.32 21.239-2.472 4.927-5.627 10.306-8.333 15.171l-.742 1.115c-5.146.958-47.885-.118-57.439.32-25.14 1.152-51.717 4.254-76.497 5.021-6.244-18.186-7.78-27.691-9.484-46.296m1282.31 261.78c6.75 4.53 15.89 6.86 23.71 9.3 5.63 12.78 8.92 13.43 14.32 31-6.35-.08-20.77-1.57-23.54 4.99 2.24 5.09 9.79 6.11 14.94 7.57 4.64 6.08 10.51 16.22 14.69 23.04-7.45.92-20.46.24-25.83 2.77.2 3.31 7.85 9.7 10.29 12.77 2.97 3.74 4.93 7.07 7.3 11.2-8.05.35-31.31-.93-35.83 2.82 1.17 3.28 1.36 2.53 4.95 4.99 5.22 2.07 12.45 4.27 17.91 6.11 3.79 4.59 10.16 11.4 11.23 17.1l-1.05 1.29c-7.99 2.84-43.12 1.5-53.37 1.39 6.31-12.69 13.2-29.02 16.15-42.84-3.04-10.59-4.88-14.16-12.38-22.1 6.24-24.68 11.46-46.48 16.51-71.4m-366.19-488.687.76.13c.62 1.56-2.37 25.289-2.7 29.578-6.61 6.347-17.7 14.232-25.4 20.098a3655 3655 0 0 0-41.4 31.912 807 807 0 0 0-22.39-29.121c-5.372-7.408-11.646-14.136-17.353-22.188.614-8.186 1.075-18.58 2.715-26.446 36.448 23.377 70.528 18.193 105.768-3.963m778.61 177.517c5.84-.645 11.99-2.716 15.9 2.031.55 3.12.8 3.523-.18 6.401-4.84 2.345-25.5 2.733-32.27 3.535-25.77 3.053-51.32 8.787-76.76 13.773a1059 1059 0 0 1-103.46 15.704c-3.74.348-10.16 1.059-13.36-.536-6.4-3.186-6.22-19.29-2.98-24.754.24-.401 2.23-2.191 2.51-2.202 20.1-.808 40.21-1.363 60.3-2.509 18.34-.912 36.6-2.509 54.89-4.15 31.77-2.851 63.6-4.938 95.41-7.293m-869.35 436.06c29.66-1.23 65.31.87 95.23.71 14.52-.08 91.52-.91 97.14 1.96 2.76 4.54 3.16 13.52-.47 17.91-3.63 1.58-8.18.91-12.32.73-38.68-.67-77.36-1.05-116.05-1.16-27.16.06-55 .74-82.092.23.07-18.96-1.088-20.09 18.562-20.38m780.19-169.03c36.61-.42 54.86 1.05 89.79 10.41-56.68-.04-76.4 9.6-130.46 18.43-16.34 4.18-50.66 9.51-67.83 5.6-9.67-2.2-12.53-17-8.76-25.6 1.8-1.35 4.46-1.87 6.69-1.9 37.02-.49 73.64-5.06 110.57-6.94M1503.68 841.4c43.39 6.033 86.88 13.27 129.86 19.098-.87 6.511-.94 19.175-4.92 23.434-20.47 1.506-108.42-6.749-129.44-12.196-.16-8.077-.86-18.693.25-26.643.29-2.109 2.61-2.875 4.25-3.693m244.95 15.053c18.14-1.762 60.31 4.818 80.85 6.408 14.6 1.131 39.74 1.805 53.28 3.434 3.98 2.955 4.71 6.593 2.18 10.914-5.03.721-28.14-1.51-34.68-1.834q-32.49-1.457-65.01-1.312c-23.48-.375-46.03 1.227-69.06 2.065-11.24.409-58.07 6.504-64.54 4.274-5.17-4.605-7.3-13.946-2.8-19.66 2.83-1.168 89.45-3.877 99.78-4.289M259.18 839.558c18.187-1.261 43.61-.824 61.458 2.43-.665 5.578-.493 13.055-.528 18.809-28.679 1.579-60.582 8.19-89.731 9.787-12.737 1.188-31.104.936-44.221 1.01-5.805-9.439-6.789-19.279-12.639-26.545 28.555-.942 57.057-4.443 85.661-5.491m300.771-111.925c3.492-.307 7.386-1.2 10.144.478 1.498 3.05.448 6.082-.173 9.628-15.71-1.014-31.743-1.699-47.238 1.88-24.755 5.717-49.204 12.266-74.149 17.23-31.309 6.231-62.769 6.481-94.572 5.291-2.632-1.06-8.011-18.794-9.58-22.811 9.528-.519 26.655.765 36.735 1.026a536 536 0 0 0 46.418-1.227c44.035-2.818 88.489-10.749 132.415-11.495M312.304 592.382l10.974-1.064c-3.188 9.36-4.081 15.168-5.467 24.741-7.742 1.857-21.869 3.853-30.276 5.253-28.756 4.789-67.317 11.539-96.161 10.215l-1.293-1.081c-.048-12.171-3.575-16.068-11.107-25.126 4.654-.439 9.548-.726 14.221-1.001 39.946-2.354 79.404-7.303 119.109-11.937M1878.27 716.993c-22.13 3.648-47.26 5.51-69.62 7.246a2230 2230 0 0 1-149.98 5.87c-5.33.019-30.64.645-32.35-1.393-12.87-17.094 20.93-13.969 29.12-14.034 48.92-.384 98.21-5.621 147.13-3.941 25.49.876 50.61 1.79 75.93 3.292 5.98.038 11.77.068 17.75.358-5.99.919-11.98 1.787-17.98 2.602M567.664 778.579c5.17-.691 13.093-.746 18.499-.945-7.66 7.556-13.402 9.774-19.204 19.461-25.458-.406-46.312 1.972-71.286 3.363-46.254 2.576-92.79 7.191-138.922 9.734q-2.874.178-5.751.279c-4.171.108-5.192.777-7.602-1.546-1.061-3.179-1.078-3.573-.39-6.854l1.513-1.777c16.545-2.151 63.354-8.222 77.362-9.339 29.686-2.367 56.195-3.011 84.132-5.449a1786 1786 0 0 0 61.649-6.927M334.107 1159.71q57.51.36 115.008 1.65c2.404 7.84 4.866 17.58 9.656 24.02l.655.87-.841.84c-37.548 1.09-89.056 1.11-126.615-1.87.067-6.77 1.465-18.42 2.137-25.51M1607.8 612.368c4.62-.333 4.67-1.066 8.4.905 4.85 7.71-.17 23.276-6.92 24.194-33.86 4.607-78.7 9.613-112.05 11.299-1.53-4.585-10.41-19.512-13.28-24.718 5.75-.682 11.61-1.285 17.4-1.552 35.86-1.658 70.9-5.193 106.45-10.128M541.238 811.431c10.087-.808 25.631-.026 36.148.21-.439 10.851-1.595 16.716-3.574 27.342-9.436 1.122-36.678-.094-46.806-.605-35.145-1.772-72.34-2.891-107.209-6.259-10.986-.275-37.294-1.821-47.488-3.557 33.415-2.132 64.744-3.1 98.193-7.954 23.171-3.362 47.629-7.532 70.736-9.177m1320.392-17.019c5.81-.64 13.27-.604 19.24-.742 1.56 3.703 4.68 12.27 4.77 16.088-2.62-1.086-5.74-2.412-8.56-2.236-19.33 1.212-39.49 3.199-58.71 4.976l-137.14 13.269c-8.65.302-21.79 3.619-28.21-.504-1.63-3.464-1.41-1.714-.72-5.429 5.9-6.83 9.63-2.336 16.84-3.819 10.9-2.245 21.75-3.573 32.78-5.043a2644 2644 0 0 1 159.71-16.56m-60.98 263.048c27.18-.85 59.72-1.63 86.54.89 1.13 4.06 2.14 9.42 3.06 13.63-48.37-.63-96.74.62-145.01 3.74-17.89 1.38-35.77 2.89-53.65 4.53-8.8.77-18.95 1.97-27.8 1.55-2.64-.12-2.26-.51-3.81-2.48-.4-3.35-.28-3.73 1.41-6.65 4.4-2.97 32.42-4.23 39.68-5.07 14.22-1.65 29.25-3.41 43.55-5.09 18.47-2.16 37.48-3.9 56.03-5.05M334.81 838.658c65.552 1.282 130.465 8.025 195.895 11.212 14.632.713 29.927 1.162 44.553.777.852 4.295 1.44 6.614 1.363 11.081-14.817-1.642-50.442-1.511-66.849-1.928a4071 4071 0 0 1-121.918-4.518c-10.629-.526-43.523-1.379-51.906-3.104-2.278-3.833-1.345-8.65-1.138-13.52m1431.02 129.781c32.21-.638 81.12-1.721 112.32 4.812l8.37 9.761c-15.7-.215-31.42-1.437-47.2-1.806-29.13-.661-58.27-.68-87.39-.055-16.01 1.732-38.81.642-55.69 1.935-18.11.78-36.23 1.312-54.29 2.816-7.17.598-12.38-5.038-8.95-11.838 7.27-1.541 32.94-2.029 41.52-2.387 30.42-1.349 60.86-2.428 91.31-3.238m-285.82.803c44.41 5.928 89.26 10.756 133.82 16.444-1.17 7.377-2.38 12.11-4.3 19.244-2.29 1.6-3.66 2.02-6.53 1.75-35.73-3.4-71.38-7.741-107.11-11.137-5.57-.529-10.41-1.046-15.86-2.392zM367.637 589.457c12.309-.943 47.989-.413 61.278.017 44.999 1.457 89.2 2.588 134.21 3.552-2.55 5.361-3.314 7.59-4.997 13.308l-23.248-.35c-18.072-1.95-42.288-1.208-61.112-1.264a4238 4238 0 0 1-78.919-1.446c-16.44-.407-37.875-.527-54.07-2.149l-5.174-10.857zM170.33 1084.72c41.273 4.24 97.05 2.43 135.591 11.92 6.791 9.32 6.231 7.21 9.391 19.3-30.42 6.87-108.024-11.71-141.692-13.61q-1.592-8.82-3.29-17.61m1494.62 27.74c68.7-2.03 151.16 2.62 220.26 8.1l1.68 10.88c-7.07-1.39-14.7-1.13-22.12-2.08-51.11-2.98-102.29-4.37-153.48-4.15-13.36.14-26.67.6-40.01.85-9.44.18-23.99 5.22-28.63-4.83.01-3.61.24-4 2.24-7.02 3.48-1.83 15.64-1.61 20.06-1.75m148.37-343.11c18.45-2.898 48.83 2.508 64.68 12.251-16.61 2.11-38.23 2.948-55.42 4.42a1766 1766 0 0 0-102.81 11.218 4238 4238 0 0 0-58.58 8.738c1.09-4.551 1.79-9.14 2.56-13.757 15.69-1.862 31.51-3.186 47.1-5.669 34.27-5.454 68.11-12.134 102.47-17.201m50.21 51.976c4.86-.473 3.9-1.138 7.36.871 5.45 7.502 4.86 21.826 5.29 31.327-33.37-.397-79.41-3.682-112.41-9.547-7.71-1.348-16.57-1.665-23.91-4.166-.76-2.537-.88-1.347.35-3.683 9.09-2.331 32.32-4.68 42.51-5.659 27.5-2.639 53.36-5.432 80.81-9.143m-94.88 318.144c17.63-1.01 105.42 1.83 121.31 5.76l4.52 11.95c-9.44-1.39-23.61-1.4-33.41-1.69-19.27-.61-38.54-1.02-57.82-1.23-42.13-.57-86.58-1.97-128.8-3.89-1.63-.07-1.77-.93-2.54-2.19l.92-2.31c5.66-5.38 82.96-6.06 95.82-6.4m92.98-54.99c7.37-.17 13.2.07 20.5.47-.26 8.66-.11 18.02-.12 26.74-32.93-4.17-73.97-5.29-107.68-7.2-5.97-.3-23.53.89-26.45-2.01-.29-4.03 3.08-8.14 5.39-12.25 11.61-.09 29.74-2.24 42.17-3.11 22.03-1.53 44.1-2.41 66.19-2.64M239 668.219c9.839-.999 4.774 10.483 15.589 13.38 11.558 3.097 42.502-1.415 51.477 4.151 1.334 3.742.423 7.245-.103 11.302-24.822.629-47.753 3.763-73.418 1.093-16.321-.34-59.817-2.996-74.845-6.255 26.77-16.888 52.013-16.93 81.3-23.671m275.527 86.148c11.155-.327 47.876 9.072 58.247 13.164-5.584 1.529-26.457 3.433-33.497 4.194a1311 1311 0 0 1-73.006 6.099c-17.459 1.001-37.616 1.397-54.624 3.557a1650 1650 0 0 0-51.041 6.863c.159-4.679-.091-10.365-.183-15.13 26.448.049 49.281.451 75.619-3.452 26.188-3.881 52.615-12.052 78.485-15.295M176.889 1046.86a761 761 0 0 1 134.911 27.13l-2.84 8.81-1.521 1.44c-34.044-2.16-90.609-9.05-122.455-9.08-1.683-10.36-4.311-18.63-8.095-28.3M1653.24 610.377c10.57.424 21.42.586 32.01.504 58.83-.456 117.82 2.826 176.57 3.279-4.64 6.305-5.88 8.275-8.41 15.646-11.81-3.428-44.31-3.623-58.56-4.111l-108.82-3.573c-8.53-.361-35.87 1.528-39.44-5.294.61-5.137 2.26-5.271 6.65-6.451m-138.36 494.033c28.6-2.4 61.28 6.74 90 9.35 7.55.69 15.39 1.56 22.87 2.72l1.14 1.61c.86 11.26-1.77 13.62-12.13 13.63-6.93-.84-28.48-.53-35.87-.47-21.25.3-42.51.39-63.76.28-3.34-8.39-8.15-16.98-10.83-25.56 1.65-1.32 6.01-1.29 8.58-1.56m331.98-77.97c6.66-.28 33.88 16.17 39.91 21.27-28.53-.06-58.59-2.07-87.19-.38-32.73 1.94-66.36 6.98-99.08 10.7-7.29.91-34.02 5.69-38.35 1.28.24-7.09 8.51-5.95 14.14-6.04 57.04-.99 114.09-24.35 170.57-26.83m-552.77-75.628c13.49 13.163 30.09 64.978 38.19 83.048-2.93 11.58-5.77 23.73-9.75 34.95-5.62 3.89-11.2 7.84-16.74 11.84-.67-6.13-1.18-12.38-1.57-18.53-2.39-37.17-7.29-74.203-10.13-111.308m-897.396 39.765c4.119-.412 5.367-.571 9.441-.054 3.428 3.539 8.419 28.147 9.914 34.577-19.302.79-38.295.11-57.59-.38-4.589.17-9.148.69-13.721 1.14-1.857-10.79-2.94-21.44-6.424-31.822 19.597-.957 38.274-2.727 58.38-3.461M1462.57 699.51c42.48 13.349 101.97 14.344 146.59 17.131l-.31 15.156c-13.63 1.797-120.12-6.633-135.57-10.488-3.98-7.48-7.52-13.919-10.71-21.799m41.23 463.89c23.66-1.13 48.13 4.12 71.54 7.7 8.35 1.28 50.36 8.4 54.69 14.45l-.35 1.55c-2.65 1.17-6.08.63-9.08.48-34.72 1.25-79.3-.38-114.94-.2-2.57-6.23-9.76-17.95-10.08-21.88 2.47-2.24 4.3-1.7 8.22-2.1m-4.09-220.513c26.06-.232 100.24 8.041 122.8 17.13-1.61 2.567-3.45 6.856-4.79 9.714-.28.222-.56.456-.85.667-4.72 3.4-99.33-6.059-112.43-8.575-1.35-7.939-2.16-11.314-4.73-18.936M175.707 730.596c22.652 1.66 81.861 18.186 104.54 27.445-1.951 1.624-4.811 3.613-6.913 5.177-3.033 1.738-12.138 5.965-16.564 5.414-23.638-2.944-51.485-6.939-74.212-13.117-3.473-.944-5.974-20.031-6.851-24.919m-17.633 181.752c16.179 7.018 66.208 7.654 86.335 10.975 16.201 2.673 36.613 7.543 52.332 8.855-.519 3.947-1.293 7.547-2.089 11.434-5.012.733-26.91-2.464-33.233-3.119-22.341-2.314-77.427-8.967-97.589-5.606-1.77-8.475-3.238-14.259-5.756-22.539m176.531-300.187c12.996 1.463 37.228 1.346 51.198 1.691l113.553 1.702c11.089.144 45.686.002 54.486 1.768 2.193 2.57 1.607 3.425 1.988 7.284-10.475.475-23.717-.314-34.48-.426l-59.883-.052a2640 2640 0 0 1-87.956-.88c-10.015-.277-27.674-.324-37.122-1.669-1.947-2.427-1.616-6.066-1.784-9.418M1487.98 750.703c21.61.69 107.81 15.658 133.23 22.895 1.37.388 1.51 3.915 1.77 5.637-6.92 2.145-111.88-6.328-128.98-6.639-1.64-8.137-3.54-14.011-6.02-21.893m14.37 325.027c13.83.31 26.93 3.05 40.44 4.94 41.37 5.79 81.48 16.16 123.46 16.74 6.1.09 30.88.56 34.43 4l-2.44.17c-19.55-.01-70.29 4.84-86.2.62-19.9-5.29-95.51-6.53-106.96-12.8-3.28-4.4-3.01-8.42-2.73-13.67m130.46-444.986c25.73.665 62.16 3.877 87.82 4.248 16.88.244 125.58 2.336 131.77 6.732 1.94 3.455 1.63 1.936 1.36 5.733-15.13 1.038-210.76-5.218-218.65-8.604-2.34-2.633-2.05-4.51-2.3-8.109m-142.77 47.583c13.62.707 107.71 12.249 116.81 17.496 1.94 2.971 1.22 5.584.94 9.295-34.71.213-78.64-2.883-113-6.375zm2.32 139.364 156.88 22.462c7.03.95 45.53 4.043 48.56 6.628-57.22 2.991-143.61-6.465-200.68-15.06-2.98-5.37-3.93-8.099-4.76-14.03M1764.3 885.5c32.87-1.198 79.56-.157 112.47 3.7 8.38.981 11.48 6.441 15.68 13.006a673 673 0 0 0-78.7-6.202c-31.2-.959-62.36-2.343-93.61-2.751-12.82-.168-27.79-.781-40.37-2.578 26.83-4.811 57.22-4.608 84.53-5.175m-1347.634 210c5.854.08 10.953-.32 16.799-.74l3.829 13.24c-26.066 3.08-62.676 4.52-89.876 6.4l-17.173 1.67a232 232 0 0 0-6.489-16.69c28.561-2.82 63.489-2.82 92.91-3.88m-244.587 60.24c21.335-.45 86.046 11.85 108.158 18.43 3.675 1.09 4.215 3.62 5.481 6.6-6.256.31-34.482-1.5-42.16-1.86-19.79-.94-46.164.24-65.106-1.58-1.502-8.44-3.509-13.56-6.373-21.59m178.964-292.095a3491 3491 0 0 0 156.911 7.393c23.658.689 48.624 1.997 72.144 1.79.582 4.055.964 7.671 1.344 11.736-25.24 1.476-44.121-4.81-68.744-6.925-53.037-4.555-106.527-6.105-159.508-8.493-.905-.041-1.882-4.6-2.147-5.501m1168.397 33.711c21.01-1.773 82.91 16.638 105.63 22.924 2.26.626 3.29 1.729 4.04 3.734-3.16 2.718-12.07.682-15.88-.011-17.27-3.266-35.96-5.296-53.4-7.508-24.25-3.074-38.96-2.638-59.88-16.611zm-24.32 111.274 77.9 16.97c15.15 3.2 31.21 6.07 46.16 10.15 3.3.9 3.82 1.58 5.01 4.04-2.18 1.32-3.54 1.53-6.15 1.2-37.58-4.76-77.09-12.17-115.12-12.28-2-6.75-5.06-13.56-7.8-20.08M177.803 1129.75c27.76 4.43 88.389 17.3 116.581 28.13.779.3.656 4.7.711 6.14-11.776.76-48.167-8.81-61.654-11.34-16.558-3.11-34.282-6.24-51.066-9.11-1.459-5.95-2.008-8.34-4.572-13.82m-2.56-186.227c29.909 1.7 97.208 4.809 123.21 16.051 1.985 2.172 1.73 5.552 1.954 8.655-31.289-4.073-62.347-9.306-93.642-13.27-8.563-1.085-17.603-1.82-25.939-3.919-2.427-.612-4.522-5.382-5.583-7.517m226.209 193.027c12.356.43 29.625-.38 42.318-.6l3.311 14c-14.979.5-32.652.07-47.831.03-7.508-.05-47.933 2.2-50.599-3.05.217-3.5-.295-4.56 1.509-7.13 11.248-2.31 38.107-2.35 51.292-3.25m-231.526-112.67c7.322.23 22.237 2.61 30.258 3.77 24.866 3.59 53.591 7.69 77.94 13.87-.123 3.22-.722 7.96-1.049 11.28-3.777.91-12.126-1.68-16.233-2.57-27.577-5.96-58.519-12.98-86.79-14.45z"/><path fill="#fff" d="M1496.54 1139.12c10.09-1.14 112.17 14.85 124.37 19.12 1.28 2.61 1.03 1.18 0 4.52-5.22.19-38.21-3.54-44.88-4.3-25.38-2.89-46.37-3.7-71.8-4.42-2.64-4.94-5.2-9.91-7.69-14.92M385.429 955.655l12.399-.639c1.783 4.739 3.453 11.654 4.826 16.684-20.97.887-50.275-.884-71.904-1.661-4.774-.06-13.302.524-16.347-3.183-.273-2.345-.712-3.861.2-6.016 8.232-3.899 58.557-4.915 70.826-5.185m-213.144 42.87c21.075 2.105 78.463 12.895 97.084 20.955 2.375 3.01 1.709 3.35 2.092 7.61-4.286-.22-8.533-1.21-12.768-1.87-27.678-4.33-55.158-10.11-82.949-13.69-.793-4.38-2.196-8.72-3.459-13.005M1626.55 686.869c10.72.098 91.71 8.622 95.73 13.185l-3.13.776c-13.93 1.028-88.09 6.904-94.65.348-1.05-5.044.18-9.613 2.05-14.309m-1444.194-33.85c-3.044-1.938-7.906-4.51-9.529-7.424l1.722-1.378c36.001-3.731 84.42 2.158 120.55 6.943l14.49 1.942c-5.97.575-10.676 1.029-16.654 1.023-23.926.729-47.616 1.949-71.515.315-12.919-.883-26.12-1.198-39.064-1.421m141.407 32.861c42.302-9.301 80.647-4.83 123.137-1.081l.046 1.108c-36.181-1.919-85.496 9.404-121.488 12.26zm-143.85 292.606c36.151 6.306 73.005 7.061 109.156 13.278 3.437.592 5.761.717 9.207 1.761l.212 1.606c-23.362 5.319-87.288.402-112.581-6.435-2.687-.726-4.911-7.404-5.994-10.21M1499.21 1036.1c8.7-.63 116.14 18.69 119.42 21.4l-.1 1.75-2.31 1.3c-17.87-2.55-36.43-5.44-54.36-6.94-20.26-1.69-39.69-1.7-59.96-4.24-1.88-3.98-4.96-7.94-5.48-11.89zm-10.6-247.515c36.77 1.083 76.47 7.033 113.37 9.123 5.29.299 11.04.684 13.59 5.45-5.64 2.28-109.25-3.173-123.06-3.275zm7.52 270.795c1.16-.07 2.31-.12 3.47-.17 34.85-1.36 65.37 4.19 98.96 12.11 4.96 1.16 16.99 3.05 20.81 6.42.86.76.28 2.48.09 3.93-13.97-1.05-38.72-6.58-54.36-8.63-18.73-2.46-49.63-4.17-66.38-8.21-2.64-2.52-1.84-1.37-2.59-5.45m-65.99 71.23c7.07 2.54 7.95 5.06 12.02 11.36-3.98 17.76-14.68 41.29-26.58 55.06-3.03 2.8-3.15 3.18-6.65 3.4l-1.49-1.52c-.35-2.04 20.38-62.02 22.7-68.3M378.992 933.561c3.416-.272 9.571-1.233 12.392.034.625 2.615 1.539 4.953.639 7.412-4.764 1.454-16.907 1.864-22.495 2.35a3948 3948 0 0 1-48.934 4.231l-11.908.587c1.118-4.29 2.049-9.218 2.973-13.599 20.138-1.453 45.772-.159 67.333-1.015m1074.658-2.634c10.32.868 24.11 1.365 33.19 5.465 2.2 4.366 6.46 18.639 8.85 24.717-9.16-1.274-21.9-2.242-31.05-2.14-4.62-8.995-7.98-18.417-10.99-28.042m323.95 62.199c35.47-1.141 67.65.593 102.76 1.693 1.82 5.441 3.72 11.581 5.72 16.891-27.82-7.57-74.62-16.854-102.49-15.999-8.13.106-15.61.538-23.5-1.474l2.15.42.64-1.347c3.65-.391 10.77-.189 14.72-.184"/><path fill="#b5b8b8" d="M1783.59 995.711c-8.13.106-15.61.538-23.5-1.474l2.15.42.64-1.347c3.65-.391 10.77-.189 14.72-.184q-3.615.825-7.23 1.595c5.47-.233 7.72-.349 13.22.99"/><path fill="#fff" d="M916.809 425.041c3.118.334 7.07 2.628 10.032 4.077.018 5.081 2.703 37.905 2.19 39.329-3.431 1.153-5.499-.054-9.045-1.251-8.982-8.376-12.601-14.163-16.152-25.956 2.26-11.213 2.302-12.139 12.975-16.199M202.673 882.462c11.97-1.322 64.421 3.897 76.234 6.099-9.352 7.31-10.588 6.42-22.661 5.642-9.105-.029-79.931-5.066-82.277-7.911 6.284-3.058 21.327-3.432 28.704-3.83M1155.4 414.978c6.08 1.176 12.02 8.177 11.81 14.657-.4 12.652-7.42 19.995-15.79 28.436l-7.55 5.02c.68-15.638 1.26-28.995.02-44.558 3.77-1.063 7.76-2.383 11.51-3.555m364.76 245.478c13.37-1.179 70.92 2.64 79.52 8.369-5.31 1.665-29.48.933-35.84.759-19.77-.437-64.12.159-80.62-6.27l.22-.818c12.86-1.801 23.81-1.82 36.72-2.04M381.732 899.167c3.52 3.266 4.964 13.499 6.029 18.616l-50.512-1.372c-3.124.05-5.486.49-8.028-1.111-.816-2.523-.3-3.563.32-6.138 5.694-4.409 38.845-5.2 51.12-9.599zm1085.328 66.157 2.66 1.307c3.35 4.573 1.41 20.782 2.09 28.645l.12 1.314c6.09 5.78 20.29 22.52 19.37 31.14-9.55-.58-19.1-.83-28.66-.77 1.1-23.39 7.14-34.971 4.42-61.636M186.836 1114.79q25.483 3.48 50.894 7.44c8.391 1.27 22.97 3.06 30.702 5.19-.707 3.38-1.414 5.02-2.655 8.2l.074 1.49c-2.17.83-13.109-2.72-16.316-3.52-19.7-4.91-40.338-6.78-59.715-12.57-1.706-.5-2.465-4.55-2.984-6.23M1672.45 954.321c28.25 1.937 47.17-.681 78.74 4.247a618 618 0 0 1-38.94 1.724c-10.4.064-74.1 5.999-77.3.133 6.44-6.771 27.61-5.622 37.5-6.104M168.551 768.43c15.656-2.716 77.94 8.299 92.456 13.822l.387 1.912-43.157-3.412c-21.399-1.56-30.545-.247-49.988-10.396zm210.754 303.07c9.683-.46 43.206-3.31 49.107 3.09l-1.015 1.45c-7.64 3.61-34.867 2.21-45.672 2.43-6.271-.42-45.798 1.08-46.752.64l.037-2.84c4.965-4.59 35.314-4.4 44.295-4.77M1489.28 807.421c16.4-.68 39.76 1.085 56.39 2.074 20.67 1.229 43.37 2.133 63.88 4.112 2.52 2.08 1.71 1.529 2.31 5.848-21.48-.569-99.52-6.006-116.83-10.566zM343.192 1052.96c20.613-.28 56.875 1.35 78.655 1.79 1.377.03 1.949 1.76 2.376 2.74l-1.282 1.42c-4.431.99-75.87 3.46-78.987 2.87-1.409-2.65-.879-5.67-.762-8.82m42.692-17.47c8.523-.18 28.983-1.9 35.116 3.68.356 2.85.442 1.77-1.735 4.76-7.59.97-21.807-.38-30.015-.92-8.372-.03-33.141.18-39.362-3.8l.518-1.1c8.455-3.46 25.635-2.62 35.478-2.62M200.888 900.094c19.264.066 43.845 2.086 63.102 4.948 3.233.48 4.052 2.181 5.434 4.442-.517 3.105.158 1.767-2.335 4.016-7.298-.421-62.453-7.629-68.244-9.729l-.523-1.606zm-18.434 62.193c10.606 1.299 61.348 6.612 67.711 11.327l-.634 1.231-6.282 1.311c-10.368-3.348-65.001-3.506-68.149-11.416 3.364-2.638 2.475-1.816 7.354-2.453m198.931-72.964c-4.493 1.061-10.132 2.795-14.508 2.25-4.26-2.766-5.28-5.833-2.001-9.983 5.007-2.168 15.133-.946 21.255-.685 19.219.477 73.885 1.563 90.651 4.63-21.278.978-42.967-.022-64.256-.699-7.373-.234-19.83-2.061-26.184-1.727zm51.693 230.087c2.284-.58 2.504-.36 4.878-.22 3.035 2.24 2.608 1.26 3.769 4.31l-1.573 2.08c-18.623 1.91-52.361 1.26-72.917 1.89-4.026.41-5.168.72-8.95-.56l-.543-1.3c6.088-3.13 63.59-5.23 75.336-6.2M1504.79 927.401c16.62-1.291 46.8 2.258 62.04 9.088-1.62.635-5.1.381-7.06.365-16.27-2.336-47 .075-63.88-7.494 1.36-1.243 6.59-1.603 8.9-1.959m-43.96 107.529c6.14 1.49 25.21 3.93 26.32 10.29l-1.99.88c-6.04-.34-22.78.97-25.64.38-1.18-3.7.37-7.21 1.31-11.55m-439.34-673.196c2.23 12.878-14.72 33.154-27.553 37.149.427-2.92 9.093-8.938 12.623-13.448 6.3-8.066 9.81-15.029 14.93-23.701m456.92 372.592c8.07-.182 44.66 7.777 53.28 10.42-11.32.392-42.52-5.818-53.28-10.42M331.741 980.396c7.009.774 14.378 1.05 21.915 1.915l-.653.198c-5.786.879-16.691 3.459-21.272.635z"/><path fill="#403f42" d="M446.9 684.799c3.946-.053 8.563-.659 11.765 1.188-2.32 1.992-8.864.842-11.719-.08z"/><path d="M588.776 241.836c3.416.914 4.84 1.888 6.66 4.701.723 9.622-13.587 13.995-21.223 19.041a207 207 0 0 0-19.793 14.929c-43.669 36.979-79.139 88.878-104.318 140.021-6.668 13.545-12.002 34.556-18.832 46.096-4.009-.513-5.031-.858-7.471-3.447-1.16-4.885 5.164-21.966 7.421-27.335 25.596-60.906 64.399-117.792 113.446-162.188 13.259-12.002 27.761-24.71 44.11-31.818m826.764-73.171c11.99-.211 51.63 17.859 62.56 24.561 48.59 29.82 92 68.976 123.29 116.895 6.23 9.543 21.22 24.125 14.18 35.488-4.92-.658-9.19-3.37-11.48-7.655-10.41-19.409-21.12-35.549-35.38-52.534-25.8-30.704-57.03-56.531-90.83-77.991-19.26-12.225-38.42-19.546-59.78-26.891-2.23-.771-3.47-2.278-4.58-4.272-.43-3.562.28-4.221 2.02-7.601m-297.93-25.243c73.84-1.523 168.68 24.568 225.09 76.965 3.77 3.496 1.89 8.156-2.2 10.653-5.96.007-11.71-6.26-16.41-10.331-2.32-2.175-5.56-4.453-8.17-6.371-57.77-42.355-134.72-61.842-205.79-58.64-6.38.287-12.96.683-19.23-.456-1.23-.223-2.08-2.248-2.83-3.397-.29-10 22.32-8.218 29.54-8.423m211.07 130.556c79.68 13.846 157.71 71.685 201.8 138.196 5.85 8.822 16.59 14.861 7.41 24.738l-4.14-1.13c-12.7-15.698-27.14-37.445-40.2-52.332a300.6 300.6 0 0 0-35.47-33.975c-27.84-23.002-58.97-40.661-92.58-53.753-10.04-3.911-35.76-5.657-39.93-15.096.24-3.462.83-3.774 3.11-6.648M916.492 82.405c10.804-1.529 77.864-.698 77.063 12.756-.57.857-2.231 3.305-3.034 3.441-7.331 1.246-22.95-1.901-30.197-2.82-54.056-6.862-118.445 5.935-169.078 24.588-17.489 5.709-33.275 13.879-49.976 21.307-3.604 1.603-6.991 2.148-10.13-.301-1.243-9.861 21.252-17.842 28.232-20.916 50.154-22.089 102.644-33.807 157.12-38.055m-340.263 62.514c2.562-.389 3.34-.158 5.837.202 2.875 2.745 4.162 7.333.979 9.452-6.598 4.391-16.855 8.392-23.977 11.857-53.944 26.247-99.013 67.114-135.595 114.234-10.167 13.096-22.204 30.079-29.486 44.917-4.778.64-6.158.371-9.017-3.425-.754-6.309 19.298-34.28 23.747-40.405 44.654-61.468 98.316-105.088 167.512-136.832m226.32 66.378c2.716-.446 4.723-.359 7.481-.362 3.268 1.794 2.257.665 3.771 4.03-.13 1.623-.479 5.246-2.103 5.861-11.476 4.013-23.852 5.614-35.69 8.995-39.839 11.379-76.786 32.338-108.226 59.228-20.122 17.211-42.042 37.502-57.843 58.93-1.885 1.644-2.104 1.516-4.475 2.097-3.759-1.172-2.498-.268-4.81-3.337-.483-3.646.417-5.853 2.78-8.695 51.455-61.868 118.634-113.521 199.115-126.747"/></svg>