<svg xmlns="http://www.w3.org/2000/svg" preserveAspectRatio="none" style="display:block" viewBox="0 0 2048 1462"><path fill="#fefefe" d="M0 0h2048v1462H0z"/><path d="M733.807 264.421c69.756 2.206 102.315 37.701 134.948 95.277 21.312 37.601 36.666 76.856 52.898 116.782 15.57 38.296 30.568 76.732 43.923 115.88 14.687 43.65 33.66 87.57 37.124 133.993 1.64 21.862-12.733 35.106-33.831 35.876 3.136 19.551 9.404 45.892 13.302 66.505a3243 3243 0 0 1 24.439 152.29c4.85 36.956 8.94 65.286 9.52 102.786 10.46.03 20.92.16 31.38.4-.95-21.15 3.01-48.52 4.92-69.62 3.29-36.25 8.75-71.421 15.19-107.206 8.47-46.952 14.45-97.949 27.65-143.79-18.69-3.816-33.54-12.254-32.95-34.112 1.15-42.418 18.14-84.118 32.32-123.543a2540 2540 0 0 1 35.72-95.182c28.97-73.536 58.31-153.731 113.64-212.37 26.77-28.363 58.46-33.339 95.49-32.584 65.46 1.333 139.62 57.386 144.8 125.116.36 4.811-1.92 6.673-5.02 9.797a320 320 0 0 1-7.58 50.688c-3.31 13.628-7.02 25.274-9.43 39.276-1.92 11.126 2.78 32.217 1.13 39.578-4.43 6.201-12.32 6.037-20.47 8.084-10.6 18.952-42.94 60.408-64.33 67.97-13.56 4.793-28.83-3.104-40.7-9.247-4.93 6.854-6.84 11.159-10 18.939 19.69 26.766 31.18 83.638 36.95 116.395 2.12 12.036.75 24.292 4.64 37.584 9.06 30.969 18.57 61.931 26.98 93.075 2.13 7.918 7.74 24.989 8.82 31.98 25.66 8.418 50.29 5.286 76.74 5.033 15.39-.148 24 1.057 39.05-2.786-1.53-5.451-2.85-11.575-3.89-17.146-5.57-29.604-14.44-60.304-18.14-90.068 7.07-2.376 20.23-4.729 27.88-6.256 19.99-3.86 40-7.585 60.04-11.176l51.44-9.697c8.75-1.658 23.5-4.893 31.86-5.358 3.37 1.864 3.24 3.512 5.37 7.533 3.37.841 17.33-1.032 22.69-1.121 1.25 26.337 5.5 58.652 7.71 85.801 8.23.342 16.47.475 24.7.399 20.43-76.299 37.6-158.963 56.72-236.545l13.56-54.252c2.59-10.272 5.16-21.332 8.71-31.326 1.69-4.771 5.53-7.092 9.58-9.842 34.17-2.894 109.11 2.511 145.36 5.825 7.26.664 29.02 30.172 33.88 39.069-24.7 78.329-53.72 156.122-78.27 234.641-1.21 3.879-.93 9.926.12 13.816 15.8 58.639 29.79 118.604 45.49 177.208 5.57 20.44 10.91 40.94 16 61.49 3.14 12.36 7.43 27.75 9.26 40.12 1.14 12.71-1.45 26.39-2.14 39.21-.57 10.52 1.53 33.1-4.5 41.12-4.38 1.7-65.84 1.62-75.73 2.23.74 14.32.14 29.7-.29 44.07-.23 7.53.67 26.55-6.05 30.69-3.78-.47-2.39.18-5.38-2.19-3.22-10.67-1.02-58.32-.77-73.04-39.51-4.33-86.48.01-126.35-.19-75.63-.37-152.67-3.02-228.2-.71.05 12.41 3.48 68.63-6.21 73.44-2.42-.29-3.7-.47-5.44-2.31-4.62-4.9-1.2-62.97-1.17-72.86-16.08-1.35-31.79-.46-47.7-1.29-45.2-2.34-89.97.09-135.15-.18-20.51-.13-41.36-.98-61.79-.79 2.5 2.47 36.15 14.01 42.8 16.92 12.54 5.48 85.66 40.89 89.32 52.11.68 2.06.1 2.51-.89 4.28-10.81 7.18-92.66 4.02-109.25 3.1-33.94-.62-66.79-1.13-100.75.67-9.63.52-21.14-1.24-31-1.32-27.85-.25-55.76-1.04-83.61-.56-10.77.13-27.85 1.8-37.79-1.79-6.46-9.12-8.13-59.37-8.28-72.65-9.75-.14-18.47-.2-28.21.21.77 20.24-.59 52.41-6.94 71.74-11.18 5.54-37.803 1.69-50.387 2.1-57.019 1.85-114.38 1.3-171.242 1.14-18.849-.05-130.693 4.63-139.232-2.45-4.46-9.48 14.674-17.57 21.297-21.91 35.239-23.08 71.222-38.46 111.018-51.58-29.263.45-244.627-1.27-252.134 2.98-3.744 14.52 4.504 69.49-5.128 76.02-11.604-1.9-8.699-18.8-8.724-27.38-.04-16.4.096-32.79.406-49.18-13.802.55-27.174 0-40.927.07l-74.735.36-126.029.28c-23.236-.14-46.864.53-70.178.36-16.874-.13-33.266.77-50.218-.93.594 13.85 4.258 66.38-1.618 75.43-3.095 1.93-1.793 1.74-4.911 1.16-2.421-2.16-4.176-5.73-4.424-8.89-1.728-22.04-.611-44.68-3.013-66.69-12.634-.27-66.518 2.17-72.855-3.6-1.837-6.85-5.021-69.92-3.748-77.62 3.304-19.96 12.993-57.83 18.062-78.38a5939 5939 0 0 0 34.562-143.221c4.157-18.02 11.971-45.609 12.777-63.65.376-8.433-8.553-36.166-11.243-45.433-18.417-63.457-40.015-126.133-58.908-189.421-3.581-11.979.284-17.491 8.072-25.872 6.663-7.169 13.059-15.819 20.717-21.884 14.633-1.527 52.147-.775 68.07-.934 14.144-.142 72.163-1.479 82.086.936 8.172 6.964 12.847 32.383 15.62 43.297a3702 3702 0 0 1 14.36 57.711c11.257 47.309 22.682 94.151 35.118 141.175 6.813 25.76 9.861 52.226 17.433 77.772 1.678 5.661 6.788 16.466 9.38 22.868-1.08 2.777-2.469 5.967-4.276 8.339-18.687 24.519-39.979 46.987-58.702 71.428-14.354 18.738-29.666 36.607-45.583 54.028-3.523 3.861-24.46 2.301-29.817 1.931-5.569 8.86-38.079 70.94-39.572 78.32 6.699 5.93 191.903 3.25 219.808 3.14l215.133.89c64.103-.01 131.385-1.32 195.02.03-4.784-12.93-9.971-27.76-12.967-41.17-16.535 16.19-26.207 12.61-46.608 16.28-62.163 11.18-114.478-8.41-175.072-21.5-.419 4.63-.475 10.1-1.778 14.54-1.056 3.61-3.455 7.25-6.945 8.89-2.081.98-4.44 1.4-6.725 1.47-9.524.27-19.45-.88-29.031-1.03-29.216-.48-192.265-2.01-206.557-7.86-2.058-.84-3.603-3.51-4.392-5.51-1.345-3.4-.712-7.4-.001-10.87 6.558-32.04 16.676-63.785 24.739-95.521 3.461-13.62 17.827-78.027 21.787-85.132 1.332-2.39 4.769-3.939 7.335-4.38 6.559-1.127 15.129.418 21.932.642q36.348 1.15 72.658 3.173c15.234.756 30.425.988 45.661 1.668 9.136.396 12.261 2.836 14.205 11.817 2.356 10.891 3.9 21.978 6.026 32.903 10.448-.768 23.333-2.534 33.603-2.106 38.238 1.593 71.371 3.819 109.691.02 15.056-24.046 23.469-67.313 32.348-94.574 5.784-21.391 12.758-40.824 15.853-62.83 4.535-32.245 19.448-106.119 42.504-127.567-4.769-7.158-8.18-11.674-13.566-18.322-17.37 7.766-33.949 16.432-51.007 2.587-19.43-15.772-32.994-36.465-46.145-57.375-32.777-8.585-26.406-17.53-18.836-44.582-11.623-35.799-19.952-66.798-24.16-104.44-2.368-21.177 17.222-55.288 31.143-70.386 33.95-36.821 67.859-54.025 117.107-57.464"/><path fill="#fefefe" d="M1245.02 618.347c17.26.401 51.72 17.39 70.5 18.774 8.02.591 3.84-2.477 7.7-5.835 14.3 17.582 29.16 108.314 31.06 132.898 2.36 30.462 2.99 64.853-.8 95.133-20.42-52.612-32.06-108.097-54.17-159.253-10.27-19.949-26.62-52.072-47.67-60.646-33.38-13.018-55.43 13.122-66.31 41.104-16.88 43.406-8.54 82.314 3.48 125.891 10.17 36.885 21.61 77.257 37.8 112.335 18.74 41.629 34.76 76.786 58.71 115.722-6.2 15.11-10.78 32.75-16.54 48.53-23.86-.35-47.44.92-71.39.27-45.44-1.23-90.93.37-136.44-.51 1.76-79.15 16.55-158.055 31.28-235.682 5.55-29.247 11.13-60.28 20.47-88.509 1.84-5.559 11.49-17.936 14.13-23.601 10.4-22.351 18.84-40.234 32.94-60.461 23.55-33.783 44.33-49.04 85.25-56.16m-437.157.83c19.427-2.461 38.013 5.537 54.95 13.783 37.11 18.068 53.603 64.982 71.234 99.27 5.777 11.235 15.905 21.738 19.808 32.878 11.928 34.049 56.685 297.662 47.305 316.142-4.496 1.3-31.616.96-38.674.95l-73.003-.06c-12.783 0-26.482 1.27-39.423 1.54-18.713.38-37.369.41-56.084.45-5.382-20.71-9.19-32.01-17.147-52.17 19.323-24.16 43.465-75.359 55.814-104.712 2.691-5.321 8.012-19.265 10.332-25.396 20.237-53.465 39.097-110.869 45.374-167.852.747-9.355-.932-18.32-2.23-27.446-5.445-38.287-25.95-76.291-70.689-68.759-18.184 3.062-28.772 15.542-38.195 30.761-30.544 49.331-42.749 106.566-58.57 161.601-1.608 5.588-5.981 26.198-8.126 29.401l-1.858.267c-2.266-3.577-2.173-10.506-2.344-14.759-2.196-54.687-1.4-108.422 16.09-160.909 5.136-15.413 9.664-32.028 14.54-47.615 28.661 4.114 43.631-8.32 70.896-17.365M208.428 535.6c6.03-.618 11.806-.47 17.848-.427 4.088 24.027 12.634 55.719 18.089 80.22a5427 5427 0 0 0 56.214 228.957c-18.083 20.174-34.74 43.846-54.053 63.541-4.849 4.945-11.595 13.698-16.908 17.603a739 739 0 0 0-6.936-22.25c-3.72-10.856-8.17-29.158-11.523-40.935l-19.779-67.405a13868 13868 0 0 0-51.048-173.363c-6.228-21.146-12.702-42.091-20.418-62.777-1.939-5.198-8.701-16.104-8.23-19.386 8.118-1.504 20.077-.819 28.692-1.413 21.944-1.513 46.343-.816 68.052-2.365m1617.472 1.299c33.82.08 76.23-.37 109.68 2.21a18892 18892 0 0 0-103.26 360.136c-2.92 11.878-5.82 21.773-7.35 33.95-11.67-18.519-28.48-38.501-42.34-55.507-9.18-11.256-19.26-24.771-29.36-34.931 22.78-84.337 39.65-171.557 60.96-256.361 4.15-16.527 8-32.851 11.67-49.497m-161.92 233.42c4.78 4.883 33.01 211.92 36.53 238.931-16.77 1.44-40.89.76-58.27.95-31.13.35-65.48 2-96.38.52-5.27-17.718-17.06-45.798-23.9-63.42 14.29-4.404 35.91-8.739 51.29-12.722 14.65-3.097 90.79-20.789 92.71-37.423-2.41-9.582-17.62-10.286-25.82-11.431-37.45-5.227-73.61 2.072-110.18 9.043-7.05-31.655-13.66-64.34-20.4-96.123 12.81-3.655 29.23-5.556 42.49-8.268 35.64-7.29 77.04-11.793 111.93-20.057"/><path d="M1641.94 783.284c4.63-.68 5.99-1.367 9.1 2.291.16 5.557-4.69 7.416-9.48 8.043-33.36 4.363-66.6 10.823-99.81 15.991-4.22.49-6.63 1.618-9.56-.212-1.46-3.875-1.6-2.545-.53-5.853 2.03-1.721 4.12-2.929 6.81-3.36 34.42-5.52 69.14-10.856 103.47-16.9"/><path fill="#fefefe" d="M1711.13 866.004c4.56.149 10.56.888 15.22 1.334 2.93 4.249 7.23 9.35 10.67 13.346 31.8 36.959 61.75 75.366 92.99 112.729 4.72 5.649 22.08 3.821 29.19 3.723 13.12 28.234 32.47 58.604 44.14 86.764l-524.49-.38c-11.46-.57-91.59.36-95.36-2.35.41-3.81 8.82-28.67 10.63-34.81 14.76 16.61 24.08 9.94 42.38 12.43 54.07 7.34 102.98-4.57 155.18-16.31 7.14-1.6 14.59-4.06 21.73-6.42-.04 5.83.33 10.83.75 16.65 2.28 3.7 2.93 4.99 6.26 8 3.46 1.33 7.95 1.31 11.71 1.27 57.53-.71 115.05-2.55 172.55-4.99 15.16-1.11 31.19-.07 46.17-1.92 6.87-.85 13.81-11.03 14.83-17.59.53-2.98 1.53-8.11.73-11.05-10.79-39.537-26.87-78.317-39.5-117.39-4.59-14.221-11.7-27.49-15.45-41.746zm-373.72-457.33c6.11 1.67 7.1 4.738 9.95 9.962-.05 9.318-2.72 21.178-.75 29.94.85 1.134 1.71 2.766 3.09 2.889 35.53 3.159 88.48-25.747 116.94-37.784-5.1 27.796-12.97 53.775-18.61 81.273-1.62 7.937 3.25 21.691 1.49 28.515-3.07 2.308-9.87.61-10.94 1.208-7.3 4.063-18.25 23.654-24.84 31.666-17.98-9.251-19.09-26.788-28.18-30.574l-2.18 1.235c-5.58 8.776 7.86 25.805 14.01 31.804l8.46 6.748c-8.5 10.924-19.53 22.454-32.23 28.068-10.35-.439-17.47-1.964-26.79-6.582-4.46-2.209-9.82-5.444-14.7-4.209-6.71 4.462-17.61 32.945-21.33 41.798-14.07-4.772-21.07-6.371-35.43-9.096 21.67-38.22 39.59-102.063 56.41-145.703-15-18.782-16.97-47.445 5.63-61.158"/><path d="M1432.38 461.807c17.48 1.402 12.27 20.821 1.74 27.664-16.6-3.329-13.6-20.553-1.74-27.664m.11-26.594c6.91-.454 14.04-1.521 19.66 3.405 3.74 3.291 6.14 6.69 2.47 10.93-5.24.69-7.8-4.138-16.16-4.079-5.82-1.52-15.83 7.297-22.78 3.535-1.33-7.618 11.25-11.928 16.81-13.791m-96.91-13.839c3.18 2.101 2.42 1.008 3.93 4.193-.59 5.96-4.92 15.465-8.41 20.478l-2.24-.996c-3.92-7.363 1.66-18.012 6.72-23.675"/><path fill="#fefefe" d="M597.751 405.619c5.617 2.145 18.661 11.48 27.169 15.829 27.819 13.896 61.593 30.57 93.142 30.415 8.162-.04-1.298-28.699 6.515-35.633 12.021-10.668 23.663 3.973 23.862 16.864.259 16.808-2.107 24.506-13.059 37.213 4.252 15.875 10.062 32.563 15.35 48.197 10.045 29.697 21.876 67.113 38.661 93.641-5.924 2.423-13.78 4.75-19.989 6.777l-12.496 4.011c-7.779-17.205-16.541-27.553-28.507-42.026-10.92 3.369-23.554 11.814-34.356 11.498-11.152-.325-26.003-18.615-33.471-26.875 13.634-6.54 21.151-18.082 24.421-32.781.685-3.082.318-4.975-1.525-7.443-2.632-1.766-2.762-1.736-6.019-1.863-6.939 5.463-2.334 24.823-23.045 31.815l-1.259.418c-6.888-10.128-10.575-21.03-18.348-29.46-32.724-.348-9.585-14.072-16.171-40.277-6.509-25.898-16.038-54.283-20.875-80.32"/><path d="M630.733 460.862c18.123-.67 19.963 19.818 12.676 30.667-15.482.319-21.242-20.582-12.676-30.667m-11.992-23.845c8.832-1.344 31.144 1.416 33.705 11.584-1.151 3.63-.285 2.762-2.948 4.438l-1.646-.882c-13.624-5.604-15.411-2.205-29.469-3.675-2.145-.224-2.362-1.591-3.105-3.096.343-3.852 1.457-5.075 3.463-8.369m110.727-11.348 5.075.392c5.143 4.385 4.952 12.886 3.491 18.951-10.453.302-9.708-11.761-8.566-19.343"/><path fill="#fefefe" d="M348.599 867.095c10.684.894 33.004 1.661 43.826 2.041 23.979.841 70.304 4.819 92.74 1.05 2.667 8.239 6.586 25.408 7.245 33.883-5.839 2.011-8.566 2.525-14.707 3.579.118-4.632 1.007-22.949-.197-26.071-1.972-.99-3.187-1.691-5.349-2.288-8.265 6.615-1.376 24.304-4.636 28.794-3.228-.3-3.949-.548-6.998.277-2.638 5.111.972 11.441-2.368 14.625l-1.268-.644c-2.908-10.195 2.749-36.225-6.235-40.867l-1.786.792c-3.781 7.799-3.575 30.986-2.771 39.933-6.596-.169-11.973-.553-18.504.702 1.245-6.158 7.446-33.225-.269-35.833-7.568 4.234-8.732 29.811-9.392 38.361-5.527 1.577-10.698 4.059-15.946 6.405 2.699-10.482 3.087-20.207 5.951-30.611 1.137-4.132.788-16.422-4.858-17.132-2.118 1.772-2.813 1.938-3.616 5.569-3.043 13.753-4.836 28.074-7.204 41.982l1.408 2.565c-3.879 3.414-14.387 8.889-19.512 11.788 2.729-9.823 15.125-61.116 9.324-67.462-8.917 3.924-18.71 63.295-20.278 74.839-14.639 8.517-13.272 37.353-22.197 49.918-5.355 29.01 45.881 1.65 59.169-1.66-9.711 6.27-14.484 9.73-23.336 16.96-14.405.9-30.535 1.8-44.956 1.19l.263-.79c5.493-16.6 38.356-133.593 32.445-145.353-2.575-.961-1.276-.945-4.014.257-5.708 6.186-14.879 52.328-17.748 63.436l-18.14 68.15c-1.325 5.05-5.954 20.92-6.126 24.98 1.99 1.18 55.769.72 61.608.72 4.57 4.37 6.26 5.7 12.869 6.26-1.174.5-74.909-1.37-82.339-1.58-.205-3.22-1.046-11.56-.445-14.12 12.052-51.451 26.622-103.123 38.347-154.645"/><path fill="#fefefe" d="M426.627 936.131c30.008-2.199 52.567 3.074 81.371 8.99 10.868 2.233 26.283 3.926 37.582 5.376a2618 2618 0 0 1-12.569 56.593c-24.075-.48-51.036-8.668-74.183-4.52-17.359 3.58-33.452 11.85-49.979 17.93-5.149 1.9-18.178 8.48-22.419 5.4l.077-2.39c5.552-9.27 68.965-33.216 71.918-38.849-2.07-4.952-7.254-5.441-12.043-4.205-26.767 6.908-54.374 11.578-80.084 21.944-4.76 1.92-10.167 3.86-14.953 4.81l-.996.19c.085-.95.313-4.24 1.156-4.6 28.798-12.138 60.756-19.111 90.568-29.2 5.969-2.021 9.544 2.717 12.628-3.559-.379-3.763.213-2.525-1.847-5.479-14.303-7.034-60.383 12.11-76.366 16.41-6.588 1.771-13.841 7.35-21.011 6.596l-.441-1.244c12.603-14.224 93.221-28.239 98.822-36.401-5.179-15.433-62.99 6.634-73.044 11.896-4.37 2.287-13.631 8.044-17.669 8.614l-1.2-1.576.622-1.995c7.097-7.307 53.422-26.777 64.06-30.731M1951.34 539.224c1.74.653 1.31.489 2.84 1.583.07 4.985-5.03 20.52-6.48 26.709-8.45 36.125-19.02 71.022-29.18 106.59l-43.36 154.67c-14.17 49.605-28.79 98.352-41.63 148.377-27.21-33.202-51.78-66.743-80.38-99.851-2.5-3.258-6.19-7.098-9.02-10.203l2.8-9.385c8.52 7.641 20.03 22.411 27.46 31.652a5401 5401 0 0 0 33.05 40.818c5.48 6.731 15.81 20.373 22.53 24.639l1.54-.475c5.18-6.965 11.3-38.756 14.44-49.602l67.4-237.53c7.31-27.207 14.9-54.338 22.76-81.39 4.27-14.708 8.93-33.025 15.23-46.602M93.615 536.487c2.13 1.185 4.852 2.596 5.717 4.924 6.251 16.825 11.301 34.675 16.292 51.801l24.132 82.457 58.593 198.484c3.773 12.976 19.924 74.329 25.433 80.705 11.054-.886 70.013-86.065 87.16-93.761l1.513.836c1.096 6.227-.308 7.29-4.339 11.623-18.936 23.376-37.609 45.217-57.501 67.743-10.564 11.963-18.936 23.317-30.287 35.136-39.847-130.884-73.053-264.462-115.323-394.725-2.435-7.504-13.45-39.763-11.39-45.223M1607.98 894.48c11.68-.53 31.51.167 42.81 3.455l.43 1.314c-8.6 6.514-90.25 26.872-105.4 30.478-9.97 2.06-18.84 3.746-28.54 6.894-4.91-9.329-7.34-15.259-10.66-25.072 40.35-9.342 60.6-13.481 101.36-17.069m88.76 134.98c20.6-.64 32.15-3.75 49.85 6.67-54.33 5.42-119.71-.24-173.61 4.77-13.14.08-31.45 2.25-44.81.79-1.68-.19-2.07-2.12-2.6-3.52 13.12-5.93 52.74-5 69.75-5.53zm14.25-122.739c2.78 4.321 9.17 23.359 11.38 29.609a2522 2522 0 0 1 27.71 82.15l-17.83-1.26c-6.16-.11-13.46.07-19.34-1.35-1.82-2.35-1.35-1.07-1.58-3.94 4.74-3.9 11.08-1.21 16.91-5.76 1.14-2.13 2.31-4.22 1.31-6.841-11.77-30.833-19.36-59.291-18.56-92.608M525.6 913.425c7.095-.918 20.458-.338 27.767-.113a498 498 0 0 0-4.93 25.359c-13.366-2.677-28.481-5.03-42.011-7.408-7.999-1.321-25.769-2.666-29.265-10.645 3.222-5.393 13.602-5.826 19.396-6.505 2.05 3.486 3.179 6.162 6.804 7.218 6.628-8.593 12.214-7.302 22.239-7.906m1173.79 17.387c-4.72-23.326-6.5-48.053-10.17-71.856-3.62-25.253-7.27-50.569-11.65-75.7-1.57-8.942 4.77-10.825 10.63-6.903 3.52 7.067 11.53 132.767 13.41 150.796 1.05 9.768 3.7 34.208 2.68 43.051-1.33-13.33-3.6-26.14-4.9-39.388m190.79 5.793c3.84 9.938 8.8 93.125 8.92 107.595-1.58-3.93-3.53-7.75-5.4-11.55-6.51-12.6-13.35-26.5-20.32-38.745 7.77-14.766 10.43-39.972 16.8-57.3m-1727.377-2.999c4.275 8.309 14.028 48.945 16.803 60.239-7.239 12.345-14.378 26.115-21.212 38.785-2.029 3.62-4.195 8.25-6.089 12.03 4.464-29.7 9.388-82.278 10.498-111.054m254.214 96.764c16.431 2.27 108.022-.08 113.291 4.32.469 2.9.637 1.71-1.426 4.68-5.445 3.01-10.399 1.46-16.937.75-39.355-.43-79.152-2.22-118.447-2.52 10.242-2.24 13.691-3.53 23.519-7.23m72.27-13.07c2.034-.23 21.657 2.26 24.183 3.11l-.116 1.04-3.104.68c-6.094.02-21.824.69-26.667-1.18l.367-1.28z"/><path fill="#fefefe" d="M1714.01 984.69c2.44 3.475 4.4 10.866 5.1 15.112-3.18-.434-2.35.097-4.71-1.645-1.89-4.2-.87-8.777-.39-13.467"/><path d="M1619.11 299.388c22.21-2.641 54.04 4.708 75.21 11.359 57.94 18.198 118.66 68.628 145.72 123.393 1.97-26.607-4.66-47.145-6.54-72.711 4.64-11.741 18.37-11.902 22.25 1.192 11.66 39.33 10.1 86.2 2.03 126.002-2.51 12.401-48.99-13.298-57.03-16.935-7.93-3.221-36.39-13.303-38.24-20.876-8.35-34.307 47.84-2.651 60.93 3.061-.06-.175-.13-.349-.19-.524l-.34-.866c-12.92-33.23-51.74-72.41-80.81-91.672-42.66-28.258-94.23-45.033-145.18-32.975-7.55 1.461-14.64 3.565-21.94 5.919-8.52 2.751-21.1 10.807-29.46 4.688a10.28 10.28 0 0 1-4.1-6.956c-3.09-22.62 60.96-30.386 77.69-32.099M393.74 340.439c8.92-.521 17.866-.382 26.766.415 51.367 4.3 98.049 26.66 136.218 62.311 1.642 1.533 1.323 3.43 1.01 5.32-2.486 1.364-27.8 5.014-32.807 5.995a267 267 0 0 0-24.805 6.136c-24.729 7.404-38.65 15.477-61.026 25.184-11.05-14.826-14.661-21.39 4.346-30.224 19.516-9.071 39.19-15.444 59.511-22.321a181.94 181.94 0 0 0-93.899-28.538 242 242 0 0 0-47.358 4.942c-48.395 10.271-93.063 37.241-121.761 77.755-6.196 8.746-10.858 20.243-17.093 29.719l-.71 1.068c-32.381-4.052-17.509-20.878-5.569-39.493 39.811-62.075 104.945-93.354 177.177-98.269"/></svg>