<svg xmlns="http://www.w3.org/2000/svg" preserveAspectRatio="xMidYMid meet" viewBox="0 0 2048 2048"><path d="M980.956 132.573c41.474-3.271 69.314 4.571 109.574 8.445 21.56 2.075 44.69 1.332 67.05 3.228 21.92 1.167 42.67 8.908 64.04 12.424 39.9 6.564 79.6 7.946 116.87 25.464 29.92 14.066 62.2 23.971 92.83 36.395a763.7 763.7 0 0 1 132.66 68.601c12.47-10.25 19.78-11.871 35.15-14.157 18.63 8.73 18.34 10.686 20.92 30.988-2.52 6.275-5.24 10.149-9.32 15.301a742.2 742.2 0 0 1 117.67 149.587c6.88 11.676 12.19 24.737 18.98 36.174 19.2 30.391 31.95 65.109 47.44 96.96 25.76 52.962 47.35 102.627 60 160.39 3.54 16.164 11.87 36.436 16.91 53.104a103.8 103.8 0 0 0-9.18 20.91c3.09-4.697 6.19-9.848 9.17-14.641 12.44 28.14 17.21 69.005 24.39 99.878 7.46 32.006 14.66 64.616 19.05 97.156 2.94 21.85 1.56 42.72 2.82 64.18 1.79 30.59 2.12 60.28 1.92 90.93-.08 11.14.34 43.98-1.97 54l-2.7 1.32c.82.98 1.66 1.8 2.62 2.64.3 9.56-1.44 35.23-3.46 44.51-9.17 42.12-9.93 82.39-24.77 123.59-10.19 28.31-24.09 54.78-37.41 81.99-22.9 46.82-56.54 91.79-87.72 133.53-16.52 22.25-31.04 38.58-56.13 51.57 4.2 8.52 8.57 22.98 2.77 30.82-17.51 23.62-50.17 7.61-66.98-2.92-2.27 3.01-4.69 5.9-7.27 8.66-7.99 8.41-18.29 16.53-27.15 23.97-25.62 21.49-52.09 40.53-80.89 57.54-24.06 14.22-46.03 32.18-70.28 46-19.64 11.2-41.33 16-62.23 23.98-34.76 14.74-71.04 23.6-106.53 36.31-33.64 12.04-71.38 15.69-106.54 20.31-17.37 2.04-35.5 6.85-52.95 7.31-16.91.45-33.94-1.47-51.06-1.15-51.86 2.25-103.116-3.95-154.428-10.73-20.985-3.66-42.985-3.23-63.88-6.75-55.719-9.38-112.205-20.6-166.606-35.99-7.4-2.57-14.986-5.33-22.208-8.41-35.491-15.11-75.396-29.35-109.426-47.04-36.838-19.16-70.529-48.63-105.295-71.37-10.805 14.81-28.747 32.66-43.669 7.43-6.993-11.82-3.65-25.68.528-38.17-17.076-14.17-35.429-25.76-51.124-42.43-39.58-42.03-75.022-90.4-107.571-138.04-11.057-16.18-19.84-39.26-29.101-56.62-22.59-42.36-41.186-85.88-57.615-130.96-10.597-28.34-14.624-51.88-21.238-80.87-9.266-40.61-16.644-78.2-17.957-119.95-1.984-32.94-10.245-65.57-8.859-99.46-.867-18.03-1.988-36.02-2.122-54.06-.4-53.775 6.708-105.66 13.781-158.771 2.46-18.478 2.555-37.17 5.197-55.77a1026.5 1026.5 0 0 1 43.684-184.166c11.164-34.004 21.373-63.261 38.602-94.359 21.295-38.44 35.648-76.335 74.363-101.245 6.971-4.485 17.027-11.903 20.248-19.562-1.419-4.115-2.646-8.69-3.875-12.9 8.227-36.598 31.769-32.271 55.391-10.686 14.199-13.001 24.551-24.06 39.72-36.85A677.7 677.7 0 0 1 683.691 168.01c28.551-7.007 57.921-10.319 86.589-16.514 19.432-4.199 38.063-9.279 58.041-10.962 19.39-1.633 38.686-2.094 58.122-2.737 31.617-3.436 63.014-3.288 94.513-5.224"/><path fill="#fefefe" d="M344.889 601.036c3.974 5.518 24.683 27.229 30.115 32.864 48.151 49.953 116.326 121.105 177.021 152.919-4.507 10.171-11.208 20.597-16.104 30.97-60.457 128.082-49.589 272.181-1.622 401.911-41.602 25.27-79.454 52.29-114.876 85.63-8.136 7.66-17.57 15.28-26.076 22.65-22.773 19.29-61.945 54.06-78.722 78.66-6.275-13.9-15.13-30.51-20.554-44.18-19.493-49.1-42.344-106.96-53.258-158.55-11.861-62.69-18.688-128.97-18.313-192.81.213-36.384 3.426-74.729 3.847-111.362 2.065-26.689 7.498-54.063 14.269-80.087 11.818-44.65 30.388-91.58 49.698-133.24 6.01-12.963 46.536-80.728 54.575-85.375m1335.881-29.592c11.61 6.569 70.99 127.092 79 146.996 61.89 153.646 84.51 332.89 51.27 495.82-7.52 36.88-15.2 71.55-29.73 106.45-8.98-6.86-20.86-18.33-30.58-26.08-19.63-15.66-34.44-24.85-55.93-37.01-9.88-6.33-25.04-14.81-35.47-20.52-31.33-17.2-77.63-45.12-110.84-55.81 5.93-32.37 14.72-71.97 16.54-104.48 5.34-95.198-12.09-225.071-63.13-306.168 8.36-6.414 26.42-28 34.5-36.554l80-85.929c18.38-19.975 50.99-53.929 64.37-76.715m-627.16-312.936c78.12-1.809 164.46 20.198 238.75 41.969 35.93 10.529 85.4 25.425 118.06 43.895-17.54 20.183-35.85 38.22-53.1 58.383-16.36 19.111-31.17 39.191-47.78 58.335-25.54 29.433-46.06 54.159-66.99 86.95-18.33-22.133-43.97-47.533-71.47-57.804-7.61-2.842-19.51-4.885-27.77-6.447l.62 1.034c-10.94-22.434-21.2-34.109-44.41-44.651-68.25-31.001-132.494-16.529-199.02 7.944-35.853 13.25-72.919 48.439-92.929 80.934-11.777 19.125-20.049 43.721-27.432 64.971-8.753-10.964-18.776-27.598-27.58-37.428-41.1-45.887-137.688-138.524-190.226-163.144 29.798-22.124 74.292-41.471 108.32-56.479 123.852-54.627 247.228-76.057 382.957-78.462m70.9 331.02 2.93 2.547c.32 4.347 8.2 18.816 10.78 23.063 28.11 46.216 37.75 98.356 46.08 150.933 1.32 8.373 2.69 27.918 8.6 33.882 9.97.738 24.97-14.172 37.77-14.598 23.96-.796 32.59 21.817 30.99 42.028a79.64 79.64 0 0 1-42.18 63.619c-11.39 5.991-18.27 6.071-28.92 15.103l-1.13.968c-13.48 74.817-76.37 167.087-160.18 163.387-48.037-2.12-76.463-28.2-107.69-61.12-25.227-26.339-40.283-59.905-48.643-92.076-2.199-8.463-46.548-11.065-59.839-32.717-12.574-20.485-25.113-35.425-22.662-63.516-2.283-19.485 32.318-34.479 43.787-24.379 41.358 36.425 27.274-25.818 27.961-53.668 27.411-10.783 50.165-21.506 72.751-40.908 18.519-15.908 33.972-28.53 50.06-47.146-1.755 20.288-14.064 33.976-15.839 49.92 4.534 9.32 19.42.226 25.863-2.972 20.161-10.007 43.501-23.922 60.851-38.412 15.11-12.626 30.05-27.844 44.46-41.323 8.55-8.131 17.59-22.614 24.2-32.615"/><path d="M1006.6 770.541c21.28 8.629 16.84 67.617 14.64 86.571-.82 7.076-7.86 27.657-6.83 31.784 8.89 9.855 29.34 1.002 32.76 11.842-.88 3.714-3.44 5.851-6.31 8-24.59 2.225-50.289 1.204-41.03-32.758 6.87-25.215 10.67-51.102 5.85-77.127-1.32-7.159-3.9-14.18-5.23-21.434 1.73-4.366 1.91-3.462 6.15-6.878m55.38 180.588c3.02.053 5.92 1.142 8.23 3.084 1.48 1.253.94 1.076 1.21 3.565-7.32 20.261-59.03 17.438-76.071 11.806-5.858-2.431-11.642-5.318-10.505-12.733 4.393-4.789 8.949-4.402 14.687-2.343 25.259 9.062 37.779 3.561 62.449-3.379m19.36-223.902c14.62-2.062 73.6 6.798 76.1 23.112-.6 3.514-1.88 4.3-4.37 6.868-12.41-1.898-21.58-7.903-34.01-11.272-12.57-3.245-27-2.575-39.17-6.772-5.27-1.821-.88-9.23 1.45-11.936m-139.791 4.114c4.294.492 5.157.298 8.579 2.635 1.412 2.919 2.584 11.233-1.638 11.911-19.218 3.083-38.567 6.053-56.163 14.917-3.035 1.133-3.409 1.42-6.71 1.747-1.76-.871-3.73-2.955-3.898-4.715-1.623-17.041 50.514-24.84 59.83-26.495m-18.821 55.728c19.439-.998 27.89 24.711 10.214 37.363-20.927 4.306-25.449-28.324-10.214-37.363m185.822-6.082c9.96-.364 10.18-.087 16.44 7.818.32 12.088 3.96 25.371-7.65 32.282-22.45.587-20.21-28.229-8.79-40.1m-298.821 46.998c11.555 1.782 19.746 6.668 27.316 15.445 6.854 7.947 12.868 16.714 3.158 24.759-10.122-2.222-12.002-12.016-20.212-18.38-5.516-4.276-11.203-8.481-16.422-12.99-.884-.764-.313-2.473-.188-3.691 1.997-3.329 2.898-3.455 6.348-5.143m430.691-7.915c3.8-.532 7.37-.932 10.51 1.641 1.23 8.662-15.69 15.764-21.1 21.847-3.37 3.796-6.9 9.558-9.66 13.866-4.6.264-7.75.247-10.6-3.958-2.91-13.97 19.66-28.844 30.85-33.396"/><path fill="#fefefe" d="M770.642 616.955c2.59 3.53-2.593 16.328-4.001 20.703-7.597 23.609-15.574 48.561-20.86 72.737-1.379 6.308 5.946 8.715 3.677 18.535-4.099 17.743-13.86 38.65-13.922 56.698-.008 2.546 1.864 4.495 3.703 5.972 4.449 1.718 8.472.682 13.355.123.386 9.212.399 18.782.357 28.261-.345 77.361 12.297 154.4-29.578 224.756-4.995 8.39-14.12 13.4-15.861 22.46 5.598 21.33 130.359 25.75 151.401 22.95 22.299-2.98 48.587-10.03 71.24-12.85-.648 14.13-1.739 32.16-4.803 45.64-19.113 10.09-56.428 18.3-78.355 21.34-22.43 3.11-40.796 2.43-63.487 9.2-49.534 14.76-77.119 33.61-102.284 79.05-16.06 29.7-30.505 74.38-41.278 106.65-38.596-46.52-72.284-98.09-91.683-155.68-6.632-19.69-8.821-39.16-13.3-58.95-38.84-171.591 3.304-325.014 138.443-439.644a671 671 0 0 1 97.236-67.951m499.688-18.509c22.21 8.134 63.36 36.189 83.25 50.153 14.19 9.373 27.63 22.758 41.01 32.724 33.33 22.976 53.07 50.829 77.2 81.499 23.66 30.064 20.83 30.346 32.21 66.06 13.76 43.194 25.1 80.654 31.6 125.735 19.37 134.493-5.13 271.043-86.76 381.723-2.84-25.32-14.06-68.14-23.27-91.58-6.16-15.06-14.54-32.72-24.53-45.62-31.02-40.05-77.09-57.54-125.88-63.81-16.13-2.73-26.27-.85-43.11-3.29-21.31-3.09-58.48-6.34-76.72-17.87-4.13-2.61-5.54-29.2-5.47-35.28 15.87 3.24 26.16.88 40.41 1.93 37.96 2.8 68.33-.89 104.24-12.75 10.2-3.37 26.83-4.49 37.02-8.52 16.21-6.42 32.12-13 23.61-33.61-8.94-28.415-25.48-54.927-32.35-82.871-11.66-47.382-21.06-95.278-23.31-144.043-2.66-71.005.64-133.786-29.15-200.58m-260.8-439.985c21.24-.069 49.4 6.431 72.3 7.774 26.59 1.559 56.08 1.728 82.08 4.534 16.25 1.754 40.3 9.951 57.97 12.655 25.44 3.893 53.33 5.607 77.83 12.417 26.68 6.904 51.46 20.924 77.18 30.073 58.91 20.951 116.37 44.474 168.52 79.733-18.04 24.194-27.8 39.527-36.39 69.153-88.82-63.493-180.66-89.349-284.13-116.587-124.07-32.66-244.686-27.791-369.706-2.965-17.041 3.538-36.068 7.142-52.787 11.361a919 919 0 0 0-210.719 82.875c-41.748 22.669-77.931 46.223-114.665 76.514-12.741 10.507-24.442 21.181-37.898 30.841-9.653-25.543-42.506-75.672-59.066-97.532 11.538-9.798 25.159-17.91 36.674-27.631 95.387-80.526 214.484-131.723 337.454-151.005 12.229-1.917 24.686-5.247 36.931-7.325 38.032-9.727 74.087-9.227 112.778-10.483zM330.254 383.162c15.517 13.567 44.369 58.14 55.144 76.844 4.164 7.228 12.368 25.585 16.106 33.78-16.787 17.031-32.407 35.27-46.7 54.459-6.99 9.384-14.025 22.293-20.657 30.877-15.111 19.557-27.204 35.959-40.336 57.071a636 636 0 0 0-87.712 249.608c-3.525 29.421-2.328 67.772-3.148 98.046-.482 17.803-1.863 38.453-1.544 55.653a818.35 818.35 0 0 0 68.402 319.04c11.612 26.65 26.97 58.78 41.631 83.94 14.807 25.41 35.458 49.94 53.415 73.09 15.564 20.06 30.297 40.92 46.425 60.57 11.476 13.99 24.906 26.73 35.927 40.96l1.238 1.62a2110 2110 0 0 0-16.982 38.03 562 562 0 0 0-12.756 29.88c-3.781-2.68-9.938-7.36-13.05-10.62-14.066-14.71-36.06-34.49-48.644-50.09-18.919-23.46-37.595-49.63-55.861-73.62-8.923-11.72-24.51-30.09-30.948-42.12-8.832-16.5-15.479-37.55-24.224-54.64-13.486-29.09-33.089-60.29-43.336-90.74-10.359-30.79-21.443-67.24-28.883-98.73-8.811-37.29-13.715-77.16-18.083-115.06a1904 1904 0 0 1-11.653-154.878c-.711-21.8-1.117-45.761-.297-67.51.941-24.982 7.566-50.994 9.354-76.117.648-9.11 3.122-18.996 3.849-28.196 4.869-86.474 26.032-168.931 52.002-251.197 15.159-48.023 41.852-95.593 67.253-139.021 10.011-16.871 39.697-35.454 53.19-49.944zM1601.74 1651.81c.53.33 24.29 27.48 26.01 29.61-8.19 4.18-19.17 14.29-26.6 20.34-30.98 25.2-63.82 46.82-97.72 67.86-21.21 13.17-41.75 28.11-63.87 39.76-18.57 9.42-38.06 14.89-57.63 22.05-49.58 18.13-101.39 35.06-153.07 46.02-17.33 3.68-34.93 4.71-52.36 7.24-15.09 2.19-29.9 5.39-45.1 6.5-15.41 1.14-30.52-1-45.84-1.24-14.48-.01-29.06 1.2-43.55.61-54.305-2.21-107.796-11.07-161.849-16.08-14.969-1.39-30.386-4.09-45.288-6.2-18.787-2.65-37.589-8.7-56.265-12.16-28.263-5.25-56.242-11.79-83.683-20.4-21.534-7.9-42.753-17.1-64.01-25.74-24.528-9.97-49.116-18.29-72.029-31.78-13.491-7.94-25.806-16.04-38.69-24.91-20.067-12.58-32.389-20.18-50.21-36.37 9.182-18.33 16.494-34.51 25.203-52.63 24.467 19.33 45.496 34.92 72.553 51.26-.262 6.32-.495 12.83-.445 19.11.204 25.25 4.15 24.67 26.242 24.69l355.897 1.28c37.861.34 74.374 3.18 112.134 4.47 29.28.21 58.53-2.27 87.79-2.94 66.51-1.52 133.14-4.57 199.64-4.91.86 0 3.23 1.83 4.02 2.39l1.57 1.14c3.81-.92 7.12-1.63 10.98-2.33 1.14 1.48 1.05 1.39 2.45 2.73 1.25-.92 2.34-1.83 3.46-2.9 33.32.23 69.85-6.41 103.29-4.59 18.51 1 28.36-.56 25.54-21.54 20.49-12.36 42.35-29.69 60.78-45.26 13.79-11.64 25.84-24.22 40.65-35.08m-3.57-1312.956c4.94 7.032 16.05 18.476 22.06 25.027a604 604 0 0 1 27.04 31.352c35.26 43.51 71.83 102.071 96.13 152.69a1686 1686 0 0 1 91.49 239.431c5.18 18.041 8.15 34.393 12.57 52.378 2.83 11.928 7.95 23.927 10.41 35.914 12.03 58.725 27.65 117.118 30.46 177.284.28 6.02-1.76 12.33-1.32 18.57 2.52 35.49 3.42 70.88 4.29 106.42-2.48 78.1-7.85 160.75-34.77 234.59-2.08 5.69-4.16 11.29-7.26 16.52-3.51 6.71-10.94 13.43-13.76 20.4-17.93 44.28-42.89 80.8-70.46 119.36-23.63 33.05-35.24 60.96-74.89 79.82-8.02-6.47-14.08-11.61-21.68-18.65-9.67-9.47-17.37-21.16-24.75-32.45 19.25-17.08 39.54-47.45 54.5-68.41 47.48-66.53 85.02-143.11 113.56-219.62 8.22-24.02 14.24-48.61 19.41-73.42 19.5-93.49 25.5-187.49 10.92-282.223-3.44-21.854-4.66-46.118-9.32-67.643-19.73-91.232-45.15-179.678-93.2-260.523-8.43-14.193-14.49-30.273-22.67-44.629-8.84-15.531-19.29-29.447-30.27-43.473-35.79-50.66-80.37-85.625-126.69-126.028 2.96-5.603 8.22-19.778 10.81-26.33 8.58-21.75 14.41-28.875 27.39-46.357"/><path fill="#fefefe" d="M1126.05 1055.25c1.97 3.64 1.1 10.58 1.73 15.61 2.02 16.2 2.28 38.44 10.56 52.63 8.03 13.75 33.06 16.54 47.58 20.2 11.23 2.83 23.14 5.34 34.45 7.94-25.13 51.33-63.1 77.39-117.9 89.99-49.44 11.37-84.48 10.55-131.552-8.64-34.739-14.96-67.499-43.84-82.251-78.91 67.864-15.57 56.248-30.37 60.485-93.22 8.1 4.13 15.374 10.34 23.267 14.39 47.431 24.31 114.881 16.01 153.631-19.99m352.06 488.4c9.89 5.15 23.92 18.96 33.43 25.89 27.02 19.71 51.18 40.97 76.19 63.11-7.46 8.25-29.83 26.52-39.22 34.56-12.5 11.13-37.01 29.16-51.04 38.75-6.4-39.76-9.08-83.04-13.59-123.23-1.44-12.85-4.03-26.06-5.77-39.08m-730.26-180.57c3.76-.69 4.887-.54 7.34 2 6.671 24.27-3.875 123.5-5.535 152.54-4.171 73.01-5.552 146.43-15.91 218.8-2.607 2.56-1.976 1.75-6.446 2.39-3.846-.06-4.953-.18-8.77-.78-1.656-1.89-.966-5.34-.723-8.41 1.902-24.01 4.078-47.94 5.663-71.98l17.023-291.01c2.451-2.74 3.209-2.23 7.358-3.55m578.63-12.1c2.8-.14 7.77-.7 9.99 1.28 9.99 8.88 13.92 129.56 15.67 149.56l17.02 180.36c1.66 18.01 7.47 35.44 8.33 54.82l-18.26-.3c-1.33-9.65-2.45-20.46-2.96-30.21-5.3-101.99-23.31-201.99-27.96-304.1-.62-13.62-4.82-39.43-1.83-51.41M1596 289.129c3.99 1.166 6.16 1.284 7.31 5.51-3.62 10.241-22.68 29.666-29.8 39.987-7.48 10.844-11.9 20.555-18.02 31.935-4.39 8.173-9.16 28.64-13.25 31.806l-2.76-1.816-13.44-9.671c4.16-32.307 36.16-88.966 69.96-97.751M330.55 350.888c2.481-.073 10.208-.16 11.863.771 30.181 16.98 69.186 88.16 84.28 115.959l-8.065 8.216c-1.345 1.359-.512.829-2.6 1.422-5.204-4.089-8.94-19.272-13.241-26.637-11.519-19.724-53.359-87.051-75.276-89.495l-.829-1.612c.967-4.475 1.275-4.713 3.868-8.624M465.214 1633.54c6.003 6.1 10.82 11.22 16.4 17.69-12.827 24.91-27.993 55.86-43.405 78.7-1.975 2.86-3.023 5.16-6.155 6.42-16.884-7.97 26.18-89.35 33.16-102.81m1159.156-23.02c4.95.99 20.95 30.18 28.97 36.64 8.74 7.04 36.37 27.12 39.31 36.85-1.11 2.68-3.98 3.83-6.64 5.44-4.73-1.09-9.6-2.14-14-4.2a110.07 110.07 0 0 1-56.08-61.59c3-5.51 4.33-8.23 8.44-13.14m-1041.963 2.18c1.228 5.64-9.083 68.74-10.37 81.81l-14.453-10.84-11.506-8.47c11.849-15.14 26.782-44.64 36.329-62.5M1678.75 1517l.77.75c-12.96 17.11-25.4 36.71-40.33 52.17l-.55-.37c4.12-9.29 31.61-45.46 40.11-52.55m-492.67-842.293c8.43 5.147 4.15 16.097 5.43 21.917l-.63.328c-3.5-5.76-6.66-15.615-4.8-22.245"/></svg>