<svg xmlns="http://www.w3.org/2000/svg" preserveAspectRatio="xMidYMid meet" viewBox="0 0 2048 1462"><path d="M1557.93 67.693c.61.569 2.22 2.489 1.86 3.247-7.82 16.408-9.66 27.988-7.75 45.793 8.74-3.872 18.48-8.319 27.59-11.397 59.83-20.22 140.25-20.124 189.57 24.457 18.67 16.875 29.89 40.88 36.25 64.815 7.04 26.501 7.45 54.112 13.73 80.737 4.98 20.818 13.32 40.588 20.42 60.716 6.65 19.156 12.89 38.864 16.73 58.784 2.78 14.197 3.5 27.66 4.22 42.076 74.68 7.134 64.37 55.749 59.98 113.157a3076 3076 0 0 1-19.76 179.913 25242 25242 0 0 1-58.84 419.739c-8.57 56.8-17.35 113.59-26.17 170.36-2.82 18.16-6.77 37.6-8.42 55.76 1.92 3.74 18.52-1.65 22.41 7.56-.57 3.1-1.86 5.9-4.69 7.6-7.33 4.41-191.42 6.31-216.69 6.68l-363.87 7.43c-331.014 2.32-662.043-.93-992.947-9.77l-62.81-2.17c-11.603-.31-51.876-.16-59.392-2.62-2.223-2.49-2.444-2.45-2.684-6.09-.575-8.77 11.687-6.79 17.333-6.63 1.849-16.58.512-50.3.359-68.3a4756 4756 0 0 0-2.081-137.8l-5.16-352.028-2.47-156.438c-.192-25.003-.753-50.107.11-75.088 1.205-34.865 13.649-47.105 44.999-57.598 8.601-2.946 18.319-3.905 27.43-5.302l4.659-4.792c-5.949-21.47-8.282-35.48-6.107-57.952 2.79-28.827 15.279-50.794 35.141-71.359 10.745-11.125 22.267-21.882 27.238-36.799 4.823-13.727 7.326-30.607 8.457-45.171 5.749-74.037 36.697-142.136 120.107-150.779 44.707-4.632 97.368 2.622 134.49 31.082 20.392 15.634 36.257 47.019 41.331 72.5 6.506 43.009-6.506 93.193-13.355 135.837-2.271 14.141-11.391 28.963-12.588 43.114-1.154 13.641 1.229 29.85 2.618 43.259 30.323 9.3 35.462 10.488 64.069 25.407 16.696-2.459 31.361-7.47 47.426-9.436 35.197-4.308 70.948-6.06 106.301-8.46l157.13-10.656a6125 6125 0 0 1 146.086-8.191c16.78-.762 38.42-2.608 54.67-2.699 1.93-31.326 1.11-73.384 1.7-105.46l4.03-194.917q.36-32.422 1.05-64.837c.12-5.743 0-22.738 1.25-27.228 6.9-3.359 48.71-3.872 53.79.186 2.84 6.193 0 51.266-.2 61.73l-2.87 176.315-.97 86.083c-.04 16.223.45 51.56-2.04 65.824 3.61-.004 7.06.361 10.27-1.056 3.51-4.068 2.41-30.068 2.52-37.543.3-18.496.74-36.99 1.3-55.48l4.69-217.824c.3-22.147.62-49.873.5-72.341-.03-4.095 5.46-10.472 11.71-7.824 5.94 6.837 2.98 38.545 2.66 48.884-.71 20.501-1.2 41.01-1.45 61.522l-4.97 280.938c32.15-3.132 70.36-.401 101.49-3.724l.52-2.614c4.67-22.896 13.87-33.438 33.22-46.277 8.82-42.052-10.9-49.663-12.96-86.591-.69-25.901 20.28-48.885 19.58-74.565-.44-16.141-13.29-39.664-2.24-54.924 1.26 1.531 1.02 14.092 2.71 19.745 3.49 11.638 10.14 27.854 10.83 39.579 1.47 25.127-20.75 52.614-16.67 77.473 1.5 9.158 9.26 27.074 12.82 37.099q1.05-2.513 2.13-5.012c10.48-24.253 21.71-30.763 45.17-40.079-5.21-45.176 10.07-61.861 50.27-78.216.97-4.992 1.26-13.266 2.12-19.044 4.19-28.116 22.53-35.986 43.5-51.061 8.62-31.255 15.71-36.444 39.15-56.959-3.68-23.37 3.35-37.21 18.46-54.3"/><path fill="#fefefe" d="M1263.01 479.562c18.4 1.059 43.68-1.074 64.15-.505 2.56 25.801 3.77 55.128 5.45 81.207l12.55 200.401c1.14 16.437 2.16 32.883 3.05 49.335.54 10.849.26 23.097 2.23 33.523-9.68 20.982-17.98 42.728-28.31 63.476-3.69 7.404-10.2 19.619-8.04 27.812 10.69 13.521 19.53-17.95 22.76-25.312l22.39-50.168c38.35-85.46 105.83-243.557 178.96-300.169 31.41-24.308 77.51-43.15 117.6-41.155 18.63.927 36.85 5.755 55.32 8.084-52.63 5.172-109.12 16.47-156.57 40.554-7.46 3.787-24.76 10.643-13.77 21.037 4.04.582 8.09-1.253 11.48-3.354 29.99-18.618 65.06-27.525 99.39-35.045 12.05 21.565 15.02 75.77 11.98 100.488-13.3 107.862-61.74 213.942-116.45 306.796-27.99 47.503-55.64 91.433-96.42 127.823-81.98 73.16-157.77 3.32-221.63-51.89-14.81-12.77-31.07-24.95-45.44-38.371-10.6-9.896-24.09-18.592-33.28-29.736 17.08 9.413 19.58 16.565 39.24 22.665 3.75-.802 6.93-1.973 10.55-3.203 1.21-3.788 2.03-7.498 4.44-10.567 9.9 4.47 13.6 5.957 20.51-2.55 5.37-6.619 18.19 5.872 28.01-10.435 1.9-3.149 12.27 6.36 22.15-15.144 26.58 4.911 39.2 9.414 63.51 20.497-9.69 5.279-41.81 23.569-43.6 33.622 1.26 3.502.54 2.252 3.56 4.752 8.02 1.7 38.41-20.452 47.77-26.111-.79 7.751-8.69 32.751 1.85 35.131 3.85.87 7.97-1.82 8.57-6.04 2.47-17.285 5.21-35.191 9.14-52.229 3.78-16.37 8.42-32.53 13.9-48.413 26.13-76.297 59.79-151.102 97.78-222.378 9.86-18.507 22.27-36.424 33.81-53.946 5.33-8.082 18.7-19.02 19.07-28.468-4.52-12.038-13.86-2.078-18.47 3.775-38.39 48.721-64.64 103.969-90.38 159.921-28.5 61.933-54.07 122.315-71.07 188.545-7.78-2.555-42.89-14.33-47.11-18.488-2.96-25.255-32.08-29.616-52.12-30.658-15.68-17.207-33.84-9.59-53.01-6.756-20.21 2.986-28.2 11.519-45.39 19.514-17.1-12.57-35.45-29.561-52.75-42.813-44.41-34.029-95.68-74.081-147.2-95.603a602 602 0 0 0-9.86-3.942c-35.702-13.87-77.063-17.204-112.661-.625-85.956 40.032-73.742 146.951-72.752 225.118.189 14.936.661 29.626.898 44.436l2.732 168.77c1.504 91.75 11.287 85.44-81.59 118.55-16.242 5.79-38.369 16.13-54.478 23.35.228-9.95-3.392-36.86-1.555-43.84 7.887-1.28 20.051-.71 28.383-1.19 24.567-1.43 65.555-1.36 88.137-8.49 4.083-4.16 9.697-10.28 10.371-16.07 1.441-12.37.829-25.6.571-37.92l-.468-41.73c-.559-57.3-1.053-114.68-1.852-171.98-.051-3.68.301-7.26-1.552-9.9-5.896-3.26-14.462-2.82-21.395-3.03-10.789-24.987-20.801-54.29-30.97-79.846-5.412-13.6-19.759-49.46-22.009-62.304-6.498-37.092-10.488-76.397-16.376-113.726-2.176-13.794-3.908-31.257-7.503-44.364 12.451.007 25.465-.147 37.711-2.726 15.428-3.249 19.46-9.098 27.273-21.269 8.752 47.606 23.172 95.144 31.48 142.999.912 5.251 3.363 11.754 9.279 12.111 3.768-1.95 6.169-4.457 5.436-9.094-3.051-19.29-7.625-38.378-11.932-57.421a4093 4093 0 0 1-23.108-106.029c5.619-13.169 9.696-27.34 12.406-41.396 2.039-10.577 16.285-105.659 12.49-111.037-8.494-12.039-32.829-14.048-46.665-16.553 26.666-2.372 56.934-3.494 83.971-5.341 3.533 30.815 13.029 259.166 16.499 265.543 1.417 2.604 3.269 3.377 6 4.2 1.693-.288 4.046-.762 4.684-2.448 4.421-11.681.762-41.061.091-53.025l-4.864-86.501a4551 4551 0 0 0-5.365-87.121c-.853-12.808-1.11-29.591-2.888-41.632 56.537-2.356 114.195-8.584 171.88-10.919 6.998 95.011 10.838 190.554 18.674 285.54.638 7.734 4.859 18.493 14.047 11.584 2.75-7.679-3.77-75.042-4.55-86.805l-13.787-210.688c15.567-2.524 43.927-3.146 60.667-3.958l112.1-5.306c3.27 31.064 4.44 76.098 6.42 108.509 4.46 78.301 9.69 156.557 15.69 234.754.84 10.747 1.96 59.773 9.03 62.625 8.42-1.335 8.72-7.449 8.31-14.629-1.87-32.536-4.28-65.041-6.54-97.551l-9.04-142.421-5.61-93.451c-1.02-17.351-1.64-41.053-4.66-57.506 25.03-.981 64.85-1.55 88.64-3.756m-923.493-2.107c6.628-.225 23.033 35.045 28.279 41.142 5.039 5.855 14.129 20.731 19.868 25.217 22.407 17.515 24.552 30.068 31.373 56.383a1271 1271 0 0 1 18.62 82.812c2.741 13.967 6.594 37.929 10.184 50.522l.329 1.131c-12.599 8.429-30.278 17.893-44.088 26.525-25.004 15.627-48.303 31.814-72.865 47.735-4.874-21.203-7.725-49.051-11.32-71.284-3.138-19.409-30.338-145.762-53.581-145.111-.799.556-1.501 1.026-2.067 1.837-1.129 1.616-2.407 4.372-2.334 6.385.316 8.655 10.063 24.404 13.737 32.76 25.204 57.33 28.874 125.375 41.697 185.841-13.067 11.692-56.17 48.819-55.824 66.975 1.764 3.437 6.42 4.849 8.797 2.904 7.137-5.837 13.141-15.277 19.25-22.397 39.067-45.532 93.392-74.806 142.838-107.354 13.058-7.834 26.925-15.372 40.191-23.164 9.679 9.165 18.869 18.482 28.444 27.708 9.537 9.189 21.497 17.903 30.102 27.874-31.772 54.777-63.809 110.087-107.551 156.509-38.605 40.97-101.936 95.395-161.615 96.785-16.011.37-32.137-4.93-43.733-16.22-47.931-46.659-59.849-198.214-60.456-264.028-.544-59.073 2.033-113.263 22.479-169.271 8.436-23.11 20.165-46.201 37.628-63.831 24.916-25.153 86.391-54.192 121.618-54.385"/><path d="M230.588 539.574c13.206.837 23 21.852 25.53 33.424.509 2.327-2.475 4.539-3.986 5.962-2.779.895-6.934 1.321-8.522-1.498-5.292-9.388-23.007-27.839-13.022-37.888"/><path fill="#fefefe" d="M153.259 903.685c4.415 3.543 5.306 23.579 7.101 30.099 12.662 45.989 26.862 109.826 80.524 123.356 5.296 1.33 14.773 1.93 20.5 2.55 2.125 9.38 3.648 25.31 4.985 35.39 2.472 17.92 5.109 35.81 7.91 53.68 2.422 15.73-.624 22.79 15.189 28.95 2.618 13.36 3.321 53 4.002 68.52q3.193 67.86 5.583 135.75l-.818-.09c-10.784-1.07-18.56-.81-29.484-.64-35.423-2.92-73.333-1.05-108.748-4.06-1.768-11.22-.973-46.62-1.099-58.86l-1.308-124.96-2.758-194.439c-.537-30.784-2.025-64.696-1.579-95.246m365.983-671.107c14.311 3.411 29.94 41.296 29.308 54.757-.318 6.786-5.184 4.173-10.084 9.648-1.025 3.92-.989 2.259.125 6.383 3.356 2.599 6.034 1.967 10.795 2.046 10.481 11.543-21.015 19.081 1.973 32.061-.584 32.501-8.031 125.809-62.94 108.109-10.413-3.357-7.653 36.855-7.461 42.026 15.018 22.261 32.974 9.906 35.888 46.964-14.09 32.254-67.89 30.498-94.92 18.787-33.781-19.722-40.495-46.301-61.749-76.002l13.276-.411c11.234-10.361 16.874-27.67 18.901-42.968 1.341-10.127 4.532-42.034-2.212-50.101-3.852-4.606-19.009-1.29-25.701-11.755-4.976-7.781-6.067-17.677-4.426-26.702 1.47-8.087 8.114-12.291 14.325-16.1 16.085-.735 18.987 13.053 43.759 1.241 33.626-16.034 50.871-43.348 73.649-71.285 7.656-9.391 18.321-18.968 27.494-26.698"/><path d="M487.881 380.408c5.887 1.36 13.178 9.706 20.034 9.835 5.951.111 13.356-4.606 20.137-2.994 3.443 3.928 2.489 7.737-1.466 10.799-13.126 5.816-23.55 6.22-36.299-1.318-7.351-4.346-7.219-10.389-2.406-16.322m34.186-54.555c4.477.147 4.002-.57 7.058 1.57 5.172 9.213 4.681 33.948-1.965 42.655-2.433-.721-5.607-2.046-6.4-4.656-3.183-10.469-1.843-29.435 1.307-39.569m-39.746-34.699c6.985-.455 24.71-.993 22.422 10.275-4.331 3.811-7.572 2.416-12.485.804-9.172-1.001-14.498 3.076-21.505.031-1.221-2.887-1.091-1.609.137-5.107 2.87-3.123 7.409-4.437 11.431-6.003m6.088 19.159c9.9 3.439 9.818 13.655 2.799 19.965-12.286-3.893-8.716-12.213-2.799-19.965"/><path fill="#fefefe" d="M1460.21 475.581c4.08 1.31 18.23-.147 22.66-.698 2.65 36.177 2.41 78.849 6.18 113.05-46.4 57.635-92.46 154.796-123.6 222.785l-.83 1.169-1.18-.424c-1.62-5.697-2.55-32.11-3.04-39.421a8977 8977 0 0 1-6.88-108.746l-7.41-120.807c-.98-15.768-4.12-48.736-2.93-63.363 2.68-2.42 106.73-3.122 117.03-3.545M473.331 910.73c2.098 1.983 6.334 31.364 7.091 35.894a5261 5261 0 0 0 17.546 99.796c2.244 11.7 10.714 49.23 10.799 59.57-1.87 1.26-5.044 2.07-7.298 2.29-66.372 6.58-131.424 26.48-193.662 49.19-4.812 2.02-11.345 4.15-16.371 5.97-5.084-34.63-9.79-71.86-15.684-106.08 20.771-.97 36.668-8.76 54.748-17.9 58.956-29.8 104.092-76.06 142.831-128.73M1496.95 197.701l1.47.351.8 1.368c-3.78 13.671-6.97 28.436-8.5 43.065-2.08 19.998-.12 44.777-9.93 63.151-4.57 7.56-15.48 16.335-17.39 25.022-3.54 16.048 17.58 23.774 29.27 26.812 5.35 38.668 11.48 87.267 56.98 94.306 4.19.649 17.31 2.499 20.28 4.444l-.07 1.553c-7.61 4.389-41.64 2.478-52.02 2.553-27.06.204-54.11.766-81.14 1.684-37.24-.305-74.76 1.211-112.18 1.237 9.18-38.286 28.65-29.288 49.42-48.266l.98-.899c-7.79-28.095-6.84-56.561 22.97-67.983 34.45-13.194 15.56-17.322 19.47-44.849 3.08-21.663 25.87-30.654 42.57-39.377 11.24-5.871 9.9-21.767 10.81-32.359 1.84-14.915 14.85-23.573 26.21-31.813M870.565 1297.54c5.459-.48 13.407-1.42 18.524.38 2.583 13.3-.645 48.76 1.315 64.13.159 5.37-.145 15.59-4.551 19.19-14.196 11.58-28.763 8.73-45.896 8.48-13.798-.2-27.694-.47-41.545-.58a6650 6650 0 0 1-167.116-1.96c-7.734 1.18-23.361 1.57-30.829-.48 3.043-13.66 114.602-51.52 131.252-59.75 16.318-8.06 30.519-12.31 42.036-28.89 34.563-.41 61.072 1.51 96.81-.52M676.798 599.5c7.775-.837 44.324-1.232 46.044 8.648-6.626 8.836-99.131 7.272-114.034 21.634-.647 1.684-1.704 3.74-.349 5.488 6.411 8.271 28.999-2.226 38.012-2.75 19.211-1.119 59.783-10.047 77.014-7.222.457 4.139.879 9.169-3.744 9.633-24.804 2.5-49.324 5.457-73.794 10.369-8.618 1.729-25.649.452-26.275 12.875 5.522 5.883 16.484 1.611 25.035.294 22.851-3.52 46.846-9.211 70.046-9.95 1.341-.043 1.218-.63 3.442-.438l.544 1.383c-.321 1.538-2.035 6.804-3.258 7.379-8.362 3.928-106.624 8.106-87.59 26.253 6.966 2.491 18.505-1.458 26.041-3.303 19.812-4.14 35.17-6.167 54.996-8.422l.725.991c-.591 1.98-3.095 6.956-4.067 7.168-11.043 1.594-21.227 2.363-32.39 4.279-25.765 4.422-40.032 16.374-61.025 30.512-27.92 18.804-53.279 36.038-76.256 61.373-6.994-6.719-15.121-12.831-22.383-19.385-9.32-8.409-18.143-17.247-27.04-26.095a733 733 0 0 0 34.421-44.857c10.036-13.9 19.45-27.839 30.763-40.716 34.065-38.776 76.912-42.484 125.122-45.141"/><path fill="#fefefe" d="M1518.54 195.748c.6.658 11.02 39.946 11.94 43.951-6.25 1.663-12.44 1.134-15.96 6.875.34 3.389-.22 2.264 1.75 4.798 6.29 2.417 15.58-5.018 19.16 1.597 10.11 18.677 28.19 48.596 51.89 50.348l1.28.084c2.78.201 14.68-8.247 20.56-9.988 11 3.261 17.94 8.15 21.28 19.808 2.57 8.944.75 17.376-3.53 25.488-7.62 14.413-18.05 13.362-31.97 17.263-5.12 7.38-8.36 32.998-10.96 44.253-3.16 14.27-5.89 26.022-9.79 40.183-56.63-3.262-60.17-35.618-64.9-84.515-1.42-14.722-18.91-11.386-28.56-19.524-.4-.859-.8-1.718-1.19-2.578 2.97-6.372 14.6-20.544 17.17-26.236 9.25-20.471 6.36-48.032 10.66-70.128 3.14-16.121 6.41-26.824 11.17-41.679"/><path d="M1544.67 364.95c3.46 1.749 4.08 1.926 5.92 5.117.24 10.247-16.51 14.969-24.87 14.91-5.02-1.576-9.18-2.472-8.43-8.446 3.92-4.588 19.68-8.509 27.38-11.581m-20.47-95.431a8.66 8.66 0 0 1 8.48 2.246 8.67 8.67 0 0 1 2.18 8.501 8.67 8.67 0 0 1-6.37 6.042 8.67 8.67 0 0 1-10.36-6.294c-1.17-4.566 1.53-9.228 6.07-10.495"/><path fill="#fefefe" d="M304.854 1194.53c2.718 3.6 7.395 14.01 9.485 18.67 14.215 31.67 37.984 57.51 68.103 74.82 21.656 12.45 43.237 15.54 67.801 18.41-2.4 17.24 3.589 57.01 2.429 75.82-.095 1.53.02.78-1.687 2.31-2.577-.31-3.596-.4-6.093.31-39.013-.4-93.721-.24-131.628-3.04l-5.514-134.9c-.813-17.54-2.467-34.8-2.896-52.4m158.767 113.08c2.875.8 18.569 1.08 22.952 1.29 22.168.97 44.355 1.44 66.544 1.42 13.292 0 42.386-.61 54.245 1.86 3.246 3.61 4.678 39.74 5.415 47.72-6.729 3.95-10.785 6.57-17.138 11.1-9.531 7.53-6.087 7.43-12.201 15.04-11.201 1.33-35.183.68-47.307.45-22.044-.41-47.56.13-69.265-1.62.022-23.02-1.927-53.88-3.245-77.26m440.307-11.4c36.045-1.18 79.674.49 116.122 2.01-.03 22.03 1.86 51.75-1.25 73.36-1.24 8.65-11.06 13.44-18.24 17.47-2.037 1.03-94.4 1.31-100.503-.02.664-3.95 4.973-13.37 4.751-16.68-1.62-24.13 1.25-51.27-.78-75.04zM630.222 719.778c1.966.117 5.135 1.051 5.684 3.2 3.226 12.62 4.164 25.912 6.125 38.801 6.05 39.774 9.853 80.039 17.533 119.536 6.211 22.612 15.167 45.133 23.693 67.053 8.939 22.985 17.176 48.391 27.544 70.622-8.297-.2-15.267-.36-23.553-1.26-1.337-.38-28.446-.72-31.713-.86-.988-7.67-4.253-19.808-6.089-27.942a913 913 0 0 1-9.051-44.286 3124 3124 0 0 1-32.875-209.784c7.274-4.446 15.546-10.272 22.702-15.08M1859.63 451.43c66.18 4.133 47.5 59.062 45.3 106.985-.58 12.43-10.81 121.923-13.6 124.869-1.19-4.04-1.95-8.06-2.81-12.18-11.11-53.116-30.42-103.2-64.91-145.791 22.71-22.6 31.46-42.395 36.02-73.883m-767.73 809.33c28.03 33.43 72.48 70.48 110.66 91.66 12.48 6.93 32.61 14.44 42.69 21.14l.92.63c.23 4.63 1.25 11.99-1.21 15.58l-2.73-.18c-46.22 2.44-98.81-.9-146.17.99-.42-42.59-4.45-87.17-4.16-129.82m-35.55-40.17c3.01 1.53 16.51 19.78 19.45 23.61 1.45 48.56 5.22 96.97 6.22 145.95-10.67-.3-22.04-.11-32.77-.12l-23.83.04c13.89-18.12 8.76-67.08 8.48-91.08 5.72.55 9.69 1.49 14.41-1.97 3.05-4.87 7.33-66.48 8.04-76.43M562.593 768.83c2.211 2.103 40.554 212.003 45.214 234.75l-14.816 2.17c-3.308.66-4.584.79-7.959.89-5.178-5.07-30.922-192.706-37.829-220.026 5.201-6.295 9.826-11.776 15.39-17.784m-23.073 36.93c2.549 4.124 10.703 64.142 12.414 74.366 7.162 42.776 13.204 85.975 23.058 128.274a432 432 0 0 1-21.805 2.72c-2.13.97-2.222.68-4.679.66-2.268-2.09-6.319-31.818-7.211-37.701-6.599-43.528-15.84-87.314-21.861-130.875 5.369-12.022 13.751-25.138 20.084-37.444m53.028-60.924c2.913 11.229 5.051 30.253 6.872 42.235l13.093 85.034a2161 2161 0 0 0 15.012 82.871c2.816 13.977 7.122 30.41 9.205 44.074a1178 1178 0 0 0-18.511 2.67 10639 10639 0 0 1-44.996-241.597c6.985-6.585 11.568-9.807 19.325-15.287m67.725-225.224c19.896-.735 58.4 2.155 75.8 12.795 2.185 1.336-.29 21.509-.534 25.443-18.959-5.532-41.63-7.68-61.289-7.752-28.056-.526-52.866.013-79.837 7.8-1.481-10.021-2.123-18.463-2.853-28.57 24.963-7.912 42.468-8.559 68.713-9.716m888.817-45.079c3.53.381 11.75.012 15.64-.053-4.83 16.862-12.97 42.836-15.98 59.603-14.37 8.299-31.41 21.742-42.23 34.243-1.58 1.486-2.03 1.46-4.07 2.162-.09-.281-.19-.562-.29-.844-2.25-28.239-1.69-56.713-4.48-84.968-.27-2.736.37-4.743 1.5-6.832 5.4-4.573 39.34-2.827 49.91-3.311M518.561 493.276c12.595 1.388 64.99 13.907 72.464 21.401-1.897 2.936-7.793 4.115-11.88 7.855-2.54 5.921 4.274 69.457 5.103 80.878-9.804 5.43-16.676 9.946-25.973 16.277-1.939-33.814-10.707-74.127-23.718-105.434-2.951-7.1-14.159-16.152-15.996-20.977m-60.877 81.162c5.081.144 12.226-.577 16.372 1.018 5.186 9.579 6.368 98.623 9.716 115.665 2.911 14.823.587 21.362-12.162 29.634l-9.374 5.611c-2.536-12.69-9.241-42.023-7.92-53.604 1.33-11.657-3.253-91.52-.731-97.461zm52.808 280.301c1.152 1.452 24.517 141.961 27.806 158.721-6.898 1.28-13.139 2.05-20.074 2.9l-2.737.61c-.455-.33-.911-.66-1.366-1-6.253-35.734-17.045-99.49-22.668-132.495a1156 1156 0 0 0 19.039-28.736m377.328 86.557c2.59-.2 4.117-.198 6.717-.123 5.368 2.843 8.771 10.373 11.172 15.863 31.346 71.664 67.709 135.054 108.781 201.314l-.79 1.94c-2.15.19-7.36 1.3-8.51-.26-41.286-55.82-70.671-119.81-100.926-182.038-3.157-6.493-16.048-31.766-16.444-36.696M504.166 565.981c.857.135 1.117.472 1.947 1.004 1.189 7.364 2.193 26.736 2.882 35.516 1.68 21.445 5.112 47.754 5.148 68.853-5.008 5.812-13.119 18.254-17.767 24.978-1.953-1.855-4.631-58.922-5.481-66.485-2.123-18.888-1.847-39.509-5.563-58.685 7.907-.623 11.704-1.897 18.834-5.181m25.369-22.318c6.662 24.137 9.64 62.622 13.839 87.82-4.671 6.931-10.31 14.17-15.347 20.913l-1.049 1.147-1.308-.97c-.656-3.557-1.087-6.985-1.387-10.588-2.271-27.326-6.858-55.466-7.358-82.883 5.149-4.901 8.766-9.514 12.61-15.439m-343.037-1.745 2.934.12c.438 2.689-4.037 8.349-5.678 11.279-15.517 27.701-26.195 58.389-32.842 89.471-.213.939-.003.369-.988 1.53-2.921-9.953-.314-51.108-.107-63.452.374-22.239 17.447-32.249 36.681-38.948M1191.85 912.576c1.29-.296 4.69-.954 5.91-.778 13.36 1.935 43.01 28.191 41.7 41.683-2.34 1.929-4.33 1.509-7.82 1.866-7.21-3.374-17.88-21.012-25.76-27.163-2.83-2.213-22.59-14.324-22.08-13.591 1.98-1.448 5.36-1.585 8.05-2.017M423.891 568.344c4.303 1.905 12.612 3.805 17.451 5.059.712 14.69.278 46.659 2.088 58.498-.265 1.953-.276 3.391-1.282 5.079-2.071-3.512-15.979-60.901-18.257-68.636M1164.45 926.49c2.94.259 9.1-.171 11.22.1 10.32 1.325 39.57 26.627 40.21 36.11-1.19.101-6.82.56-7.54.212-10.83-5.204-19.13-18.525-29.2-24.774-4.04-2.506-14.82-5.314-16.79-9.088zm-14.14 12.133c8.72 3.744 44.76 23.305 41.69 33.688l-2.32.723c-7.83-2.807-37.7-22.557-43.95-28.233.64-3.28 1.82-3.498 4.58-6.178m69.58-31.413.66-.004c7.54.002 10.25-.606 17.18 3.527 11.67 6.949 19.11 22.795 22.32 35.473-1.56-.038-4.73.226-5.69-1.03-11.68-15.173-18.11-26.696-34.47-37.966m-202.99 268.98c3.08-.41 3.45-.49 6.48-.08 6.15 3.68 16.64 18.53 19.09 25.72.67 1.97-.68 3.35-1.77 5.17l-1.95-.16c-4.27-2.55-17.55-19.29-20.38-24.33-2.37-4.24-2.37-2.36-1.47-6.32M865.989 901.455c7.498 2.464 16.978 14.818 19.886 22.071l-.97 1.608c-2.375.105-6.193.567-8.025-.871-5.817-4.569-11.036-9.622-13.099-16.964-.666-2.367.836-3.662 2.208-5.844m395.721 477.905c7.12 1.91 25.05 5.28 30.59 8.11l.13 1.37c-10.02.16-21.75 3.64-29.69-.73-2.29-3.6-1.42-3.82-1.03-8.75m3.56-460.787c5.84 2.541 22.9 7.203 22.96 15.116-14.94-3.123-17.95.98-22.96-15.116"/></svg>