<svg xmlns="http://www.w3.org/2000/svg" preserveAspectRatio="xMidYMid meet" viewBox="0 0 2048 1462"><path d="M1023.17 115.388c9.82-1.383 24.63-.299 34.48.939 53.91 6.773 99.71 37.842 130.78 81.769 8.74 12.359 17.85 30.809 29.45 40.037 5.03 3.346 19.65.583 26.9-.043 39.48-3.41 77.77 3.296 110.26 27.125 22.95 16.831 23.95 34.519 27.28 60.367 4.24 3.004 9.65 5.843 14.19 8.472 63.99 37.088 121.44 84.514 178.16 131.687 20.85 17.339 44.1 34.511 60.18 56.574 6.93 9.511 6.46 19.839 4.17 30.719l-6.68 7.211c36.87 66.263 14.67 149.635.21 219.518a6283 6283 0 0 1-24.11 111.96c-5.29 22.676-15.16 55.38-9.88 79.099.89 3.992 9.38 16.512 12.38 19.816 16.89 18.662 34.88 36.932 52.33 55.142 23.94 25 46.55 50.39 69.73 76.13 9.86 10.95 24.55 25.43 31.88 37.95 1.48 2.52-4.43 10.78-6.17 15.91l-.34 1.01c8.77 6.77 49.18 41.79 55.8 53.77.74 1.35-.82 5.6-2.02 7.15-6.09 7.86-21.32 24.59-30.91 27.28-1.31.29-3.63.66-4.64 1.63-21.21 20.67-45.26 37.98-68.58 56.29 55.54.74 111.26-.63 166.76.09 11.62.15 49.97-1.99 59.05-.17 2.78 2.24 2.91 2.91 4.13 6.31-1.47 10.63-23.73 7.12-32.14 7.15l-45.15.35c-36.21.33-72.43.47-108.65.4-25.09-.01-50.72-.14-75.77.39-16.28.35-37.16 8.64-54.07 9.06-6.28.15-20.83.9-25.36-3.11-.4-1.24-1.39-4.62-2.19-4.91-6.16-.89-16.58 4.95-23.1 6.64-31.31 8.13-59.98 3.32-91.36 2.15-20.63-.77-44.86 3.46-66.03 1.9-7.58-.55-16.34-3.06-24.07-3.39-31.56 5.41-61.72 1.44-93.27.24-14.75.37-29.91 3.27-44.71 2.03-70.91-5.92-141.1-2.37-212.18-2.08l-357.276 1.07c-22.411.09-44.379-3.7-66.349-4.08-34.485-.59-69.531-.17-104.037-.21-38.165-1.49-76.594-.84-114.789-.85-28.058-.01-56.117-.82-84.17-.72-24.039.08-196.025 5.34-203.819 1.8-2.365-1.08-2.798-2.2-3.763-4.5.242-3.55.153-3.77 2.325-6.4 6.084-3.77 28.316-2.65 36.164-2.12-.153-8.68-.068-17.61-.087-26.31-3.484-1.9-7.198-4.38-7.427-8.68-4.856-91.25-15.339-194.16 3.151-283.52 13.193-63.763 42.961-116.042 76.705-167.859-4.88-5.237-6.144-6.284-9.399-12.653-7.713 3.926-14.272 6.71-23.125 5.992a27.54 27.54 0 0 1-19.206-9.979c-7.768-9.472-7.836-20.362-6.72-31.847-10.173.561-20.801-.059-30.026-4.808a31.5 31.5 0 0 1-15.906-18.701c-9.753-30.468 18.158-52.112 43.926-60.401-22.83-54.493 42.441-45.88 72.91-59.298 17.322-7.628 27.028-19.091 42.001-28.523 21.731-13.689 58.626-10.664 83.115-5.852 20.789 3.77 51.193 20.168 46.782 45.981-1.438 8.422-11.048 14.707-18.187 19.119 14.751 14.178 27.696 36.524 41.675 51.445 1.479 1.58 7.903-2.22 13.097-.73 8.023 8.356-2.426 15.726-8.463 21.248 13.414 17.181 23.366 52.603 14.942 73.441-8.195 20.269-23.191 29.675-41.969 38.38 8.217 4.634 18.722 9.482 26.308 14.513 31.203-6.287 76.391-23.161 106.883-33.531 33.146-11.274 72.06-23.995 102.954-39.9 9.954-5.124 27.483-16.97 37.188-23.273a2060 2060 0 0 0 67.466-45.171c12.732-8.847 32.787-20.201 43.855-29.464 23.493-19.661 38.297-57.491 64.419-73.864l1.194-.741c12.447 6.596 7.27 4.079 13.54 14.006 4.713-1.311 23.177-27.536 28.345-32.23 6.636-6.027 11.267-3.437 19.101-3.245 17.206-13.632 39.308-39.364 54.716-55.754 48.276-51.794 90.776-109.443 132.096-166.833 3.66-5.082 3.7-19.545 7.7-27.999l-.71-1.662c-1.53-1.153-7.08-4.985-7.92-4.422-7.56 4.987-13.07 14.044-20.31 19.191-40.51 28.757-79.387-11.211-106.835-37.501-3.8 4.494-7.13 7.922-13.344 6.79l-1.42-2.098c-1.057-7.458 1.65-9.466 6.28-15.678-7.462-10.028-15.396-19.928-22.787-30.036-62.947-86.081-22.606-170.576 82.466-182.095"/><path fill="#fefefe" d="M1163.63 531.709c14.09 15.742 30.51 27.084 48.57 37.674 5.52 3.829 25.8 10.039 28.09 16.478 8.52 23.988 11.26 49.938 17.28 74.7 6.02 24.763 10.7 49.995 16.86 74.734-13.81 26.457-25.55 56.523-37.45 83.896-5.61 12.89-10.59 27.592-17.11 39.895-30.45-48.455-69.56-79.721-128.14-86.585-11.31-1.325-22.21.231-33.16-.516-30.02-2.05-61.363-6.195-87.367 13.053-32.364 23.956-60.577 55.986-88.472 85.139A5475 5475 0 0 0 740.24 1022.34c-8.066 10.23-23.8 26.43-32.883 35.89-7.162.11-27.019 1.69-31.564-1.54-.436-2.83-.517-9.77-3.086-11.1-6.423-3.34-12.83-6.6-19.211-10.03l-44.795-24.04c-9.905-5.25-21.931-11.15-31.146-17.255 75.817-29.105 124.798-65.506 185.107-118.123a1073 1073 0 0 0 63.416-59.012c14.194-14.561 24.689-26.436 36.343-43.062 6.626-6.609 17.37-19.141 25.249-23.95 22.053-13.462 45.091-26.652 66.373-41.322 59.957-41.324 120.337-83.71 172.357-134.877 12.82-12.614 25.66-28.341 37.23-42.21M264.547 886.897c17.433 8.95 57.047 19.433 76.684 20.403-18.644 9.346-46.803 17.92-56.308 38.756-15.043 32.974 27.345 73.954 54.051 86.224a130.4 130.4 0 0 0 52.541 11.77c47.546.68 124.662-26.98 168.956-43.19 4.942 2.16 11.426 5.79 16.148 8.56 28.566 16.71 60.253 30.84 88.447 47.86-12.196 42.47-35.116 83.26-56.39 121.87-23.09 39.01-58.652 92.43-90.098 124.23-99.077-42.49-190.762-112.3-249.913-203.32-48.572-74.74-46.609-136.057-4.118-213.163"/><path fill="#fefefe" d="M783.092 728.822c6.979 2.769 48.662 44.427 58.427 52.753-25.27 29.273-53.55 54.643-83.157 80.432-32.927 28.465-76.77 66.6-115.171 86.34-66.96 34.419-209.43 96.843-282.409 77.613-24.426-6.83-72.339-39.901-64.586-70.331 6.05-23.75 59.486-39.061 80.326-45.402 23.501-7.15 50.127-13.291 73.837-20.689 35.025-11.225 70.619-22.578 105.275-34.922 27.16-9.673 59.192-18.484 83.838-32.823 33.106-19.261 65.763-40.528 97.432-62.049 13.062-8.877 32.994-23.72 46.188-30.922m272.148 331.748c4.38 4.32 27.73 41.43 32.4 48.69l51.84 79.57c10.21 15.79 22.2 35.61 32.96 50.62 6.32-1.51 13.17-3.43 19.61-3.74a1950 1950 0 0 1 48.44 63.11c-25.25 1.04-48.9 5.92-58.2 32.47-63.53-1.09-127.57 1.09-191.147.73-8.178-.05-16.785.54-24.89.06-15.539-.74-40.841-.01-56.961 0l-83.996-.67c-9.243-.04-38.592 1.11-45.021-.76-1.736 2.16 48.785-22.21 52.549-24.18 63.476-33.29 96.686-81.93 139.246-137.88zm146.08-673.381c10.92.405 14.21 1.137 24.51 4.937 2.18 6.518 6.35 32.417 13.26 32.274l1.86-1.982c2.98-8.562-7.5-20.135-3.87-24.907 6.83 1.779 19.66 8.735 25.93 12.361 2.89 8.432 7.27 30.611 13.69 34.229l1.64-.989c2.71-5.449-2.51-19.116-4.41-25.768 11.67 6.371 27.24 17.176 34.01 29.141 3 5.293 3.68 17.86 9.4 20.651 2.13-1.768 2.27-4.608 3.17-7.792l1.01-.243c36.97 49.038 49.08 142.654 53.51 202.821 1.3 8.461 2.19 17.057 3.16 25.567-2.01-4.63-5.54-12.179-3.98-17.234-3.04-3.699-1.99-3.563-5.83-4.801l-1.78 1.194c-1.8 6.291 3.48 28.874 6.28 35.729 6.01 14.668 5.31 15.38 4 31.446-10.82 4.333-45.39 17.814-55.14 19.203-4.24-4.22-.71-19.388-10.2-19.14l-1.43 1.676c-1.29 6.66 1.73 14.022 3.98 20.244l-18.27 6.19c-9.41-35.347-64.33-277.615-72.42-286.127-15.96-3.538-3.66-15.054-4.32-18.306-4.81-23.703-13.47-46.413-17.76-70.374"/><path d="M1281.17 607.257c2.39.218 2.31.24 4.54 1.169 4.56 6.063 11.99 40.007 11.38 48.23-1.95-.356-5.72-.603-6.33-2.055-3.14-7.54-10.95-40.889-9.59-47.344m71.58-7.669 3.58 1.569c5.56 6.295 10.35 32.058 11.19 41.227l-1.96 3.591-1.54-.489c-5.71-5.025-12.35-33.944-12.98-42.469 0-.001 1.52-3.06 1.71-3.429m-54.8 71.236c2.81.838 3.92 1.571 4.78 4.376 3.81 12.447 8.32 25.66 8.79 38.723 0 .004-1.79 3.536-1.96 3.874-8.77-4.465-10.65-30.597-13.77-39.885-1.07-3.175.49-4.792 2.16-7.088m-2.11-149.578 3.46 1.151c3.93 5.205 13.96 37.454 10.7 43.826l-3.34-.695c-5-4.342-14.39-36.695-10.82-44.282m-41.42-24.783c.24.031 2.38.146 2.63.34 6.81 5.458 14.97 36.163 12 42.365-2.02-.083-2.26-.252-4.22-.865-.49-.63-1.62-2.046-1.82-2.798-2.63-9.806-12.15-29.761-8.59-39.042m70.07 140.946 3.53.968c5.49 5.529 10.75 30.37 11.51 39.011 0 0-1.6 3.359-1.79 3.762-1.9-.12-1.87-.242-3.73-.789-4.35-5.322-11.75-36.071-9.52-42.952m-83.74-199.973c8.45 2.75 10.05 24.703 12.58 32.727 1.53 4.886.79 6.337-1.81 10.148-8.15-4.007-15.3-34.579-10.77-42.875m96.93 103.915 2.89.554c4.27 3.494 9.93 29.055 11 35.649.63 3.901-.37 4.488-2.35 7.177l-2.84-1.432c-3.53-4.796-8.62-26.144-10.36-33.206-1.22-4.97-.64-5.239 1.66-8.742m-16.24-57.912c9.19 2.981 11.21 25.526 14.58 33.882 1.22 3.022 1.03 6.193-.39 9.188-9.93-2.237-11.82-25.676-14.95-34.035-1.21-3.227-.91-5.973.76-9.035m-9.65 97.825c8.29 2.408 10.81 26.008 12.96 33.796.85 3.057-.6 4.606-2.22 6.869-7.78-2.391-11.04-25.503-13.2-33.491-.9-3.337.7-4.751 2.46-7.174m-32.53-118.751c.3.032 1.82.063 2.18.235 7.77 3.723 15.08 34.722 13.1 40.995-1.59-.299-2.85-.704-4.39-1.149-4.06-4.719-13.11-34.738-10.89-40.081m-11.01 93.089c1.29.042 3.96.068 4.56 1.03 4.62 7.407 12.45 32.78 8.26 39.573-2.46-.639-4.36-1.618-5.2-4.182-2.47-7.606-10.17-29.536-7.62-36.421m71.97 141.741 3.17 1.726c3.82 6.214 11 34.48 7.23 40.992-7.65-3.203-15.22-34.989-10.4-42.718"/><path fill="#fefefe" d="M225.892 853.186c14.847 3.162 20.941 9.343 30.873 20.423-13.381 20.516-23.587 45.152-30.377 68.539-17.074 58.812-4.967 102.612 24.2 154.492-2.746 54.93-8.993 109.62-11.976 164.54-.629 11.57-1.791 23.12-2.852 34.67-11.449.31-24.235.35-35.6-.68-10.557-.47-40.857-3.18-50.929-5.66-.34-21.62-2.589-43.2-3.298-64.88-2.621-80.11-9.028-169.42 16.718-246.354 15.225-45.491 37.836-85.024 63.241-125.09m1163.328 116.54c.88 1.222 12.97 48.604 17.21 58.894 8.67 21.04 19 37.98 36.52 55.06 10.96 10.69 26.7 23.86 42.61 34.93 62.2 43.24 127.65 88.61 192.91 127.35.55.33 5.22-1.06 8.53.47l-.44 2.71c-8.51 12.58-16.07 4.89-19.06 20.62-1.87 9.82-26.29 22.43-35.02 27.45-20.26 9.44-24.01 12.44-38.17 28.97-.82-5.23-1.39-10.76-3.9-15.5-21.34-40.36-120.18-50.55-161.27-64.06-2.95-.97-4.83-1.92-6.22-4.71.53-1.4 1.44-3.77 1.53-5.13.3-4.43-10.99-15.01-14.31-18.56 9.58-2.07 17.79-3.7 27.06-7.02-2.76-21.03-12.15-54.95-17.08-76.65-9.4-41.26-19.66-81.41-26.23-123.43-1.39-8.95-6.72-33.395-4.67-41.394m-278.79-568.991c.99 1.385 8.26 20.525 9.92 24.282-4.61 4.465-19.71 18.484-22.1 23.577.65 3.387.03 2.871 2.04 5.026 5.79-.425 14.97-10.789 19.54-15.212 5.89 12.159 9.87 25.331 14.88 37.907 3.19 8.034 7.23 14.725 9.15 23.147-6.2 4.374-29.51 21.829-27.96 29.14l3.02 1.68c4.43.006 24.64-18.997 29.59-23.168 3.03 4.759 4.31 7.836 6.58 13.031-10.96 13.627-26.64 33.039-38.94 44.845-52.35 50.249-114.46 94.089-173.746 135.397-9.873 6.28-18.564 13.255-29.191 18.567 10.132-9.486 18.466-17.442 27.539-28.241 6.805-8.098 23.912-18.574 29.429-27.287.379-3.308.78-2.5-.537-4.975l-2.258-.358c-8.335 2.465-21.661 15.32-29.198 21.646 5.467-13.477 4.19-28.009-14.073-21.008l-.741-.665c2.052-5.563 4.646-11.075 7.088-16.492-5.906-14.415-8.189-12.109-22.082-8.103 7.775-7.152 16.551-12.422 24.551-20.159 42.87-40.81 80.449-85.962 117.379-132.061 20.46-25.543 39.34-56.072 60.12-80.516"/><path d="m1057.61 598.393 2.9 1.214c2.54 4.634.87 7.091-2.63 10.751-8.68 9.082-18.81 17.476-28.12 25.921l-2.23-.503c-2.42-2.271-1.72-1.118-2.29-4.723 2.26-6.438 25.98-26.638 32.37-32.66m33.46-87.856 3.17 1.259c1.04 1.474 2.16 2.37 1.66 4.251-2 7.491-20.79 21.369-26.8 26.265-3.57-.525-4.21-1.516-4.91-4.774 2.04-6.32 20.83-21.566 26.88-27.001m-40.43 51.197c2.49 2.06 2.79 2.17 4.28 4.944-.8 5.18-22.3 22.423-28.2 27.593l-2.27-.743c-2.41-2.748-1.73-1.175-1.95-4.941 3.01-7.194 21.42-22.071 28.14-26.853m49.27-15.193c3.8.643 4 1.504 4.54 4.834-2.58 6.424-21.14 22.066-27.47 28.052-3.47-1.338-4.21-2.337-4.72-5.809 2.39-6.062 21.39-21.273 27.65-27.077m-20.63-70.826c3.16 1.877 3.47 2.635 3.36 6.096-3.31 7.05-20.29 20.938-27.12 25.083-3.22-2.939-2.48-1.491-3.18-5.364 2.54-6.654 20.76-21.995 26.94-25.815m-74.16 135.937c3.82.045 4.55.876 5.38 4.301-1.87 5.252-18.855 19.804-24.586 25.491-3.186-1.234-4.403-2.503-5.509-5.514 1.429-5.973 19.256-19.607 24.715-24.278m-6.46-38.002c.742.012 2.49.385 3.31.533 2.19 2.687 1.7 1.18 1.46 4.69-3.448 6.751-18.519 18.029-24.779 23.081-3.435-1.074-4.146-1.613-5.014-4.926 1.939-6.31 18.924-18.461 25.023-23.378m38.66-48.076c3.02 1.308 3.2 1.309 4.84 4.013-.78 7.287-16.63 19.771-22.42 24.989-3.1-.712-3.91-1.764-4.9-4.54 1.55-6.177 16.92-19.111 22.48-24.462m-79.805 95.963c3.036 1.089 3.795 2.488 4.199 5.356-2.83 7.1-17.694 17.86-24.127 22.811-2.995-1.325-3.198-1.722-3.894-4.642 2.388-6.952 17.576-18.612 23.822-23.525m168.175-152.994 2.87.342c2.42 2.198 1.79.873 2.05 4.065-2.84 6.45-16.95 17.183-22.79 22.036-2.91-.724-3.74-2.013-4.57-4.563 1.75-6.61 16.34-16.99 22.44-21.88"/><path fill="#fefefe" d="M262.805 1116.49c2.162 2.16 5.824 8.06 7.791 10.78 58.861 81.34 144.059 143.35 234.595 185.2 12.817 5.93 15.35 9.67 25.74-1.68 17.506 8.36 26.11 12.1 44.63 18.17-9.707-.19-19.34-.6-29.051-.37l-218.92-1.39c-23.433-.08-46.87.73-70.306.62-4.339-.02-8.078.11-12.385-.74-5.207-8.87 5.128-20.92 5.426-29.8 2.023-60.3 9.164-120.68 12.48-180.79M1097.8 234.234c10.45 1.009 18.63 5.917 22.59 16.105 5.66 14.551-5.22 26.026-10.54 38.268 1.13 5.95 31.22 22.954 38.24 24.397 4.28.881 19.31.678 21.79 2.555 5.36 10.526.22 43.026-9.81 51.563-16.46 14.009-39.58 27.204-33.58-9.03-2.5-4.414-26.12-16.213-31.77-18.464-2.68 1.239-13.13 15.766-16.73 18.922-12.54 11.007-18.16 13.78-34.22 13.635-9.9-2.509-16.52-5.608-25.18-10.748-30.13-17.896-83.281-83.967-90.381-116.715 49.309 22.735 91.821 26.085 144.431 17.234 3.91-16.197 7.31-24.413 25.16-27.722"/><path d="M971.285 270.187c7.793-.965 12.951-.237 16.543 8.33 2.726 6.501-9.67 7.408-12.771 9.505-.018.012-2.342 3.791-2.598 4.205-6.22.948-10.634 1.91-14.559-3.882-2.353-9.833 6.029-14.532 13.385-18.158m59.575 50.189c16.1 5.822 3.83 27.807-4.7 31.409-4.24.39-6.73-.222-8.59-4.098.89-5.253 6.82-9.014 8.25-12.847 2.37-6.355 1.07-8.095 5.04-14.464m-50.327-23.995c9.439-.152 20.237 10.287 14.23 20.71-10.381.577-18.599-10.693-14.23-20.71m36.827-20.551c10.89-.321 14.94 6.488 11.62 16.611-12.4 1.922-12.99-7.002-11.62-16.611"/><path fill="#fefefe" d="M371.385 690.884c2.962 2.214 6.799 6.852 9.636 9.812 23.788 24.82 51.692 76.756 52.458 110.637-.799 19.66-15.34 32.443-31.796 40.662-5.096 2.545-15.501 6.599-16.289 11.563-1.443 9.105-1.154 20.191-1.64 29.284-5.204 1.814-10.992 4.246-16.177 6.283-22.293-3.874-34.449-4.713-57.335-10.742l-1.616-.768c1.523-2.445 8.289-3.765 12.091-5.724 7.238-3.728 13.241-11.607 15.545-19.454 2.434-8.29 3.195-25.417-1.016-33.347-.268-.504-2.314-2.734-2.445-2.678-11.13 4.824-19.255 10.013-31.79 7.006-11.886-2.852-15.356-15.029-12.407-25.789 5.488-20.024 26.621-12.872 40.609-20.653 7.011-3.9 12.081-10.059 14.163-18.033 4.611-17.768-1.455-33.88-9.931-49.019 18.691-2.758 35.511-7.779 37.94-29.04"/><path d="M381.214 716.251c4.969 1.925 5.977 2.163 7.417 7.187-.411 1.503-.841 4.179-2.239 4.738-13.851 5.541-20.201 14.084-30 25.329-3.9-.434-4.792-.601-7.442-3.419-4.172-12.632 22.665-29.184 32.264-33.835m40.541 72.7c3.346-.417 4.058-.264 6.409 1.784.904 6.805-4.987 11.239-10.766 13.874-8.112 3.698-14.249 2.682-22.433-.43l-1.09-.607c-3.868-2.177-9.681-6.029-6.445-10.982 13.896-5.476 10.776 10.366 34.325-3.639m-39.012-48.049c11.04.43 19.193 14.605 14.262 24.151-2.403.16-3.066-.042-5.36-.466-7.214-5.201-12.585-14.919-8.902-23.685"/><path fill="#fefefe" d="M1309.38 771.697c18.23-5.405 35.96-12.441 54.51-17.729-.27 52.939 5.8 106.743 13.54 158.937l-2.31.087c.14-6.857-2.9-11.797-10.44-11.233-7.72 7.496 6.43 45.104 1.99 56.472-11.27-1.098-10.29-83.04-29.54-83.293-8.04 6.899-5.37 30.975-12.34 35.592l-2.06-.85c-7.44-13.131-6.67-72.837-7.9-90.141-1.15-16.022-3.13-31.519-5.45-47.842m103.97 484.323c6.7 2.57 12.02 3.98 18.9 5.83-2.55 3.48-8.84 11.44-5.51 14.69 13.55 13.23 23.14 18.9 35.97.84.81-1.15 2.89-1.01 4.29-.79.66 4.13-5.09 3.55-5.6 10.89 3.43 4.29 19.29 6.07 27.06 9.59 5.82-3.82 6.95-4.77 11.75-9.82 11.23 3.11 54.46 13.02 59.79 20.12l-.44 1.92c-6.61 4.3-36.51 4.79-45.54 4.8-36.26-.18-72.39-7.16-108.73-2.94-14.46 1.68-29.4 5.81-43.93 4.8-8.17-8.72-20.83-23.4-27.88-32.71zm-331.14-231.42c28.61 43.86 58.04 87.17 88.28 129.92 12.15 17.42 31.55 41.88 41.96 59.16-6.05 2.36-13.15 4.44-19.4 6.43-4.75 1.56-10.16 2.77-15.05 3.98-8.87-12.38-19.53-32.75-28.75-46.42-28.35-42.05-55.46-88.02-84.38-129.41 5.48-6.51 12.24-16.51 17.34-23.66M793.333 719.58c13.063-10.697 17.39-17.689 27.973-30.064 6.178-7.224 23.608-34.51 29.706-37.5-.253 10.691-23.499 37.982-11.726 42.88 15.603-1.879 52.379-55.424 66.409-70.314-9.588 22.259-29.042 39.001-40.177 60.036-.967 1.826.282 3.961 1.063 5.622 3.117 2.034 1.635 1.651 5.37 1.505 5.305-2.649 13.607-14.837 17.569-20.062 5.462-6.9 18.959-25.136 25.657-28.491l1.108.018c-4.541 7.067-18.183 20.512-24.404 28.802-2.265 2.992-2.906 3.459-3.721 6.991 1.468 3.62.491 2.731 3.418 4.237 5.515-.566 12.079-8.227 16.124-12.338-4.533 7.53-26.013 28.605-18.505 34.661 12.015 1.868 27.606-28.77 41.672-36.464l1.105-.596c-28.997 42.3-47.992 66.334-84.687 101.711-13.831-15.07-38.266-35.828-53.954-50.634m591.597 489.5c4.35 3.21 19.61 23.45 25.97 29.6-12.58 11.11-71.13 29.16-89.64 34.17-4.26-3.06-21.44-24.7-25.34-29.54 29.48-8.29 61.78-25.7 89.01-34.23m-90.43 56.84c4.27.88 8.33 9.17 11.83 11.97 14.16 11.31 24.5 23.77 36.36 37.36a1544 1544 0 0 0-47.63-.36c-7.17.43-16 .2-23.29.2-9.38-10.93-16.12-22.46-26.35-32.89 16.38-5.58 32.79-10.36 49.08-16.28m456.25-79.37c4.63 2.94 23.78 22.5 29.75 28.01-21.99 17.22-39.16 34.66-59.47 53.75l-1.96 2.01-1.01-.22c.66-3.57 2.39-5.99 4.37-9.02 8.25-12.6-11.28-17.4-20.57-21.21 13.68-12.15 39.29-38.07 48.89-53.32M157.624 1303.91c27.793 4.03 46.179 5.14 74.222 5.22-1.509 8.17-1.857 11.17-1.792 19.47-22.418 1.27-49.93-.24-72.994-.03-.106-8.22.082-16.45.564-24.66M1215.12 300.004c5.72.704 11.16 1.624 16.84 2.582-20.56 13.14-35.59 27.593-41.77 51.657-.92 3.397-.86 5.647-3.18 7.5-1.53-.614-6.24-3.201-6.01-4.999 2.08-16.196 5.47-29.187 2.69-45.722 9.67-2.449 21.82-7.435 31.43-11.018"/><path d="M1200.4 309.604a5.76 5.76 0 0 1 5.8-.308 5.753 5.753 0 0 1 .38 10.022 5.756 5.756 0 0 1-7.87-1.815 5.76 5.76 0 0 1 1.69-7.899"/><path fill="#fefefe" d="M1220.34 1225.98c6.64-.13 17.11 31.12 30.45 30.58 9.61-.39 22.87-7.3 29.84-6.36 3.2 2.05 2.25.87 3.61 4.4-2.47 2.58-9.48 4.05-13.46 5.28-12.7 4.61-20.82 7.02-33.94 9.7-7.46-7.5-25-29.6-30.88-38.65zM1021.68 135.207c38.81-3.64 111.86 31.212 137.44 61.216 2.17 2.552 2.17 3.639 1.96 6.735-4.41-1.354-20.97-19.458-26.27-22.925-33.9-22.181-70.74-36.827-110.96-41.846-1.6-.2-1.6-1.64-2.17-3.18m362.68 609.698.74.192c1.37 2.322-1.28 37.529-1.19 44.024.29 23.423 1.63 47.266.51 70.641-3.59-9.583-6.72-97.52-6.56-110.15 1.81-3.014 3.01-2.908 6.5-4.707m-369.39 37.392c3.77-.053 7.44-.457 10.89.837l-.39.764c-22.4 4.456-54.724 24.474-74.164 36.644-1.883 1.777-2.987 3.126-5.412 4.048 14.468-21.138 44.221-38.163 69.076-42.293m209.6-507.854c28.39.084 61.96 9.765 88.12 21.013 3.99 1.717 6 2.752 7.31 6.517-5.76-.237-21.3-6.648-27.87-8.786a553 553 0 0 0-30.38-8.793 614 614 0 0 0-24.58-5.614c-4.84-.96-10.89.303-12.6-4.337M962.697 173.212c3.716.527 9.864 2.409 13.574 3.519 24.289 7.262 49.629 8.383 74.619 4.571 3.17-.483 8.95-.957 11.6 1.101l.27 2.631c-19.09 1.278-39.05 4.428-58.16 2.233-9.434-1.083-35.877-5.105-42.025-11.339zm-2.901 41.469c3.531.353 6.824 2.18 10.07 3.566 13.713 5.855 27.838 9.647 42.654 11.368 4.07.473 10.54-.171 14.01 1.105l1.21 2.987c-12.83 2.118-64.858-4.647-67.944-19.026m115.064-6.509c7.37-.938 38.79 7.866 45.33 13.055 4.05 3.217 4.31 2.701 5.49 7.937-17.43-8.991-24.75-11.181-43.71-15.953-4.14-1.041-5.31-1.705-7.11-5.039M397.283 878.327c4.223 2.442 10.181 3.82 11.614 8.644l-1.482 1.148c-3.671 1.188-7.989 2.281-11.762 3.324z"/><path fill="#bcbcc0" d="M1377.43 912.905c.69 3.826 1.83 9.433.53 13.02-2.51-2.732-2.46-8.898-2.84-12.933z"/></svg>