<svg xmlns="http://www.w3.org/2000/svg" preserveAspectRatio="xMidYMid meet" viewBox="0 0 2048 2048"><path d="M974.484 139.424c31.206-2.603 94.536 1.332 125.906 4.953a892.6 892.6 0 0 1 476.21 206.261c181.25 151.192 313 383.086 332.94 619.606 5.53 65.706 1.94 117.226-7.23 181.666-22.9 161.01-86.77 308.06-192.62 432.37-124.1 145.74-311.05 257.02-497.75 300.79-44.45 10.42-89.74 15.85-134.98 19.79-32.12.7-63.29 1.77-95.451.05-139.996-7.52-294.838-50.27-414.808-124.15-48.156-29.66-91.78-64.82-133.852-102.46-163.861-146.63-281.623-387.76-293.832-607.4-12.967-233.274 78.545-490.597 234.612-664.57C531.583 230.253 742.05 152.081 974.484 139.424"/><path fill="#fefefe" d="m991.933 173.455.974-.025c225.983-5.054 452.613 92.456 612.313 249.618 193.95 190.869 313.95 479.908 256.83 752.362-32.6 155.55-90.56 294.83-201.22 411.3-131.5 138.39-308.61 237.86-496.58 272.29-34.16 6.18-70.13 11.38-104.92 12.1l-9.26.36c-65.994 2.22-120.026-5.35-183.742-16.74-160.423-28.68-298.989-98.16-416.87-210.45-34.682-33.04-72.268-73.16-101.209-112.8-85.676-117.36-146.587-263.21-168.994-406.79-3.448-22.09-5.588-55.8-6.115-78.43-5.217-223.707 91.16-472.172 244.312-634.884C550.011 270.532 733.292 194.848 923.62 176.95c23.095-2.172 45.225-2.783 68.313-3.495"/><path d="m974.939 220.439 2.52-.132c213.651-7.661 421.401 70.974 576.431 218.187a930.8 930.8 0 0 1 134 157.5c75.23 112.179 141.55 279.794 144.05 415.716 3.57 194.01-72.81 404.85-207.51 546.01-116.94 122.53-280.57 213.37-445.2 252.27-31.09 7.35-72.55 14.32-104.34 15.14-2.66.22-5.32.39-7.99.53-56.88 2.78-109.368-3.06-165.334-12.67-158.173-27.16-290.476-82.3-409.966-191.21-153.589-139.99-262.491-356.88-272.368-565.19-10.06-212.165 80.693-448.559 223.304-604.887C580.981 299.941 772.315 229.35 974.939 220.439"/><path fill="#fefefe" d="M983.521 329.43c324.399-13.775 665.699 236.185 714.429 564.572 18.79 126.558.7 262.478-47.41 381.018a899.5 899.5 0 0 1-76.57 144.75c-16.44 25.57-35.51 48.84-53.56 73.24-47.75-70.48-83.31-100.36-164.42-130.78 1.81-5.95 9.52-26.13 4.63-30.06-6.17 1.12-21.33 17.05-26.66 22.13-12.82-5.94-20.51-8.09-34.03-11.58 2.63-27.57 3.8-58.36 5.59-86.25l11.63-179.79c1.19-16.25 2.26-32.52 3.21-48.79.24-4.5 1.33-32.025 2.59-34.977 6.48-14.354 16.94-24.302 23.22-39.291 15.02-35.884 17.57-93.388-24.75-111.822 12.8-84.98 4.39-168.5-29.29-248.054-12.25-28.931-28.69-51.8-51.66-73.175 6.04-3.949 8.94-5.94 14.4-10.644-30.53-35.136-49.53-44.002-92.8-45.851-2.31-.099-20.95-8.722-24.55-10.189-102.8-41.811-222.184-39.315-324.667 2.126-78.313 33.324-146.026 88.61-157.249 178.152a447 447 0 0 0-15.927 17.566c-15.53 18.114-67.215 86.43-64.723 108.183.326 2.853 1.5 5.277 3.791 7.076 3.598 2.826 7.935 4.577 12.557 3.922a16.6 16.6 0 0 0 9.682-5.096c4.8-5.079 18.943-29.895 23.942-37.576 8.853-13.603 17.836-26.418 27.163-39.739a1250 1250 0 0 0 1.489 119.059c1.78 29.414 6.808 59.344 4.646 88.618-2.144 29.034-.203 64.768 18.211 88.82-3.286 10.782 1.344 29.462 1.814 42.052 1.778 47.61 5.087 97.98 13.741 144.91 10.865 58.91 25.456 115.06 33.539 174.87-21.81 1.75-30.696 5.11-50.323 13.27-7.727-14.07-18.851-29.89-31.368-40.09-1.166 18.93 2.508 33.59 8.865 51.14-18.339 10.09-38.032 19.1-50.08 36.63 28.445 1.29 35.005-5.52 60.668-16.33 3.049.55 1.651-.12 3.974 2.7.06 1.27.392 3.78-1.468 4.34-60.003 17.94-113.397 47.39-153.551 96.99a2273 2273 0 0 1-21.404-18.93c-106.806-96.11-162.285-236.55-169.534-378.36-8.859-200.08 61.77-395.543 196.48-543.745C643.809 414.824 795.799 339.126 983.521 329.43"/><path d="M1370.39 653.179c23.26-1.152 49.83 27.436 62.58 44.746 7.19-4.191 34.27-19.992 41.21-14.036.46 8.302-22.98 25.022-29.29 29.508 11.68 12.58 29.79 42.903 24.56 60.521-21.1 5.537-40.94-26.852-51.11-41.689-11.71 9.813-20.62 15.438-35.32 19.207 4.44-11.239 15.73-25.286 24.05-34.012-.75-.749-1.5-1.508-2.23-2.28-9.98-10.435-39.02-40.703-39.05-55.695-.01-2.82 2.55-4.659 4.6-6.27M482.38 1128.48c6.799 4.46 17.569 39.61 19.996 48.79 19.718-1.84 32.747-2.7 51.93 2.68-18.797 10.57-27.501 13.86-47.482 21.37 1.294 9.36 3.528 51.9-3.835 56.47-11.787-20.03-14.982-30.04-20.548-51.8-19.803 3.14-34.04 4.67-53.73.35 15.927-11.72 29.358-19.56 48.525-24.35-.839-20.29-.152-34.03 5.144-53.51m41.474-259.56.875 1.16c1.623 15.635-3.291 33.448-6.899 48.761 16.443 8.097 30.002 15.632 42.786 28.894-21.256.666-30.386-1.17-50.728-5.787-9.361 18.089-17.88 29.958-32.253 44.084-2.35-17.41 2.484-36.105 7.128-52.699-18.35-8.966-30.158-15.305-44.004-30.158 22.483-.75 30.259.097 51.832 5.848 9.474-15.212 18.512-27.434 31.263-40.103m1012.026 6.302c8.23 1.461 23.47 29.389 28.32 37.518 10.5-2.123 36.75-7.786 45.88-3.863 5.45 8.189-30.09 24.641-37.21 28.268 2.99 14.16 3.67 32.195 2.57 46.617-.75 1.31-.2.577-1.98 1.913-7.68-1.685-22.21-32.488-25.71-40.204-8.8 1.649-39.96 7.719-45.97 1.9l.61-2.386c7.27-8.48 26.21-17.588 36.59-22.688-3.1-13.455-5.6-33.711-3.1-47.075m-5.48 259.508c7.59 8.36 6.3 40.9 5.4 51.55 8.13 1.49 36.51 11.18 39.89 18.59l-.92 1.82c-7.58 3.83-32.9 3.61-42.99 4.04-3.87 14.57-9.99 31.86-20.78 42.78l-2.06-1.06c-4.24-8.61-2.39-35.51-2.01-45.8-8.91-2.65-39.13-12.53-40.71-20.92 4.45-6.99 35.14-5 44.23-4.71 2.89-10.9 13.07-37.69 19.95-46.29"/><path fill="#fefefe" d="M876.703 630.698c52.658 49.248 118.809 62.306 184.927 85.752 43.85 15.552 83.06 31.852 121.5 58.428-40.29-12.474-83.59-7.643-112.45 26.664-2.23 2.656-3.16 5.139-2.7 8.591 1.29 1.479 2.19 2.929 4.53 2.879 11.86-.378 23.8-2.925 35.61-4.414 38.31-4.825 66.59-8.201 104.21 2.761 2.12-2.443 2.19-2.6 4.79-4.455 14.77 3.882 44.27 58.371 51.25 74.413 2.28 5.222 3.28 20.481 3.26 26.654-.38 85.128-39.34 164.089-84.11 234.249-33.18 52-59.35 73.16-117.27 95.15-51.88 18.21-97.544 12-143.944-16.5-16.856-10.35-32.912-18.82-48.736-31.1-64.063-49.72-103.849-119.79-124.68-197.316-4.615-16.789-9.885-46.22-7.555-63.37 5.203-38.308 28.619-81.871 47.448-114.716 1.689 2.635 2.079 3.269 4.237 5.688 2.494.608 21.793-5.467 27.015-6.551a195 195 0 0 1 25.184-3.364c22.317-1.68 48.223 3.757 70.669 4.485 8.167.264 27.729 4.37 32.332-2.982-.064-3.33-1.315-5.714-3.651-8.028-41.829-41.41-105.4-40.077-148.495-2.574 35.102-65.989 60.05-93.218 76.629-170.344"/><path d="M1138.51 837.214c13.24-1.345 25.52 2.146 37.28 8.014 6.27 3.124 23.95 13.186 17.09 21.579-8.47 2.451-14.93-2.078-22.49-6.074-.07 17.214-2.25 25.776-18.93 33.902-25.63 4.973-33.44-9.746-35.8-32.304-6.8 4.23-10.56 13.444-18.6 9.818-2.41-4.027.95-10.275 3.47-13.521 9.46-12.213 23.18-18.805 37.98-21.414m-267.239 5.988c18.626-1.443 37.971 9.034 50.296 22.479 3.299 3.598 7.225 9.722 1.958 13.12-7.179.298-10.474-3.114-16.285-7.269-.284 19.769-8.303 26.98-26.326 31.722-24.273-1.35-28.864-17.535-27.498-38.779-5.924 3.612-17.843 12.508-24.942 8.645l-.663-2.383c3.879-14.71 29.723-24.857 43.46-27.535M1075.15 1081.2c5.98-.33 19.41 2.5 18.35 11.19-1.97 9.17-11.83 5.75-17.03 8.13-42.42 19.38-71.93 15.88-113.924.55-6.114-.09-13.927 6.71-17.919-3.77 3.084-27.17 42.666-7.12 58.013-4.08 28.81 5.72 47.08-7.27 72.51-12.02m-40.37-61.42c2.75.16 2.63.23 5.35.88 10.96 10.97-10.82 37.38-37.32 22.76-5.44-3.97-12.531-10.7-8.236-17.89 16.416-9.69 14.466 17.45 40.206-5.75m-36.991-171.533c.552.298 2.06.915 2.116 1.52 3.495 37.19 17.255 76.682 11.425 113.977-2.67.087-1.39.342-3.82-.762-3.11-13.856-11.311-103.065-9.721-114.735m41.861 281.083c3.33-.66 3.12-.78 6.29.32 1.95 2.92 1.51 1.35 1.33 4.89-7.17 13.59-34.04 11.66-46.89 9.41-3.362-.87-7.652-2.12-9.671-4.99-.131-3.35.07-3.23 1.467-6.35 3.313-2.05 16.854-.89 21.564-.9 9.26 0 16.82-.82 25.91-2.38"/><path fill="#fefefe" d="M1139.71 1224.97c1.57 2.26 4.22 18.29 4.99 22.11a310.5 310.5 0 0 0 33.77 91.65 7801 7801 0 0 0-14.55 178.15c-93.47 27.75-182.555 18.51-276.558.47l-2.082-12.43c-10.126-54.84-17.57-111.63-28.279-166.13 23.052-36.89 30.185-70.77 38.179-112.76 41.651 24.87 74.287 44.23 125.37 41.88 48.17-2.23 79.41-18.47 119.16-42.94m17.48 340.17c1.61-.34.73-.38 2.58.49.61 3.5-2.19 44.73-2.55 50.93l-7.43 115.33c-1.33 19.81-2.23 46.29-5.03 65.53-85.11 13.13-124.54 12.07-210.196 1.72l-5.832-36.12c-.809-6.49-2.271-13.1-3.209-19.6-8.478-58.81-20.339-117.32-29.438-175.98 93.44 18 167.885 22.98 261.105-2.3M972.908 238.569c23.532-1.236 58.742-1.328 82.172.423-51.73 12.89-80.946 30.657-110.852 75.553-42.968 4.18-73.645 11.041-115.31 21.533a195.5 195.5 0 0 1 36.909-33.651c11.209-7.766 26.049-14.67 38.321-20.925 8.245-4.202 20.275-9.009 16.579-20.084-3.452-10.341-16.25-9.24-23.78-5.686-35.244 16.635-75.491 50.29-90.24 87.191-51.049 16.027-84.664 33.624-131.242 58.434 18.308-42.314 46.083-59.921 77.736-87.661 8.877-18.257-11.551-26.772-26.238-15.753-40.444 30.34-62.291 68.271-72.526 116.972-37.311 23.16-66.674 48.341-100.195 76.324 5.459-41.411 27.087-79.696 47.133-115.062 2.454-4.33.501-11.848-2.85-15.348-3.996-4.175-7.416-4.172-12.963-4.165l-1.375.012c14.816-11.871 51.462-31.419 68.923-39.759a804.9 804.9 0 0 1 319.798-78.348M578.803 360.048l.734.733c-6.842 8.165-13.024 19.88-17.958 29.304-19.603 37.443-28.017 75.922-23.809 117.864-30.106 31.123-66.612 71.598-91.134 107.444.454-38.643 5.841-66.559 21.208-102.401 3.125-9.573 14.215-25.423 15.522-34.696 1.924-13.641-18.435-18.917-26.877-6.473-7.33 10.806-10.622 17.565-15.504 29.274-14.751 35.379-19.446 68.302-15.814 106.139 1.511 11.313 3.689 18.511 6.808 29.388a720 720 0 0 0-51.755 91.416 322.5 322.5 0 0 1 1.052-116.504c3.044-15.547-2.165-20.252-17.054-21.79 57.52-94.894 122.085-168.283 214.581-229.698M1617.27 643.692c25.93 9.522 52.22 41.356 75.81 54.99 6.64 3.84 23.97 12.098 31.16 9.335 2.12-.814 2.65-1.182 5-.559 7.77 11.511 23.09 47.932 29.04 62.317 40.15 97.069 58.78 188.721 54.52 294.075-18.15-50.14-35.41-97.707-83.82-125.432-2.27-1.05-5.07-2.075-7.44-3.018-3.31-26.875-6.44-52.572-12.34-79.091-5.35-24.091-12.54-46.623-19.86-70.137 10.6 10.987 13.59 14.927 23.17 27.602 19.43 25.271 33.37 62.341 62.41 77.675 3.31 2.982 20.77 1.621 18.83-5.058-7.26-25.036-35.9-60.131-49.9-80.546-12.73-18.575-43.6-42.847-64.34-45.286-19.65-48.529-33.34-73.602-62.24-116.867M1074.2 240.743a794 794 0 0 1 218.42 51.65c17.29 6.713 45.84 18.746 61.69 27.658-54.88-12.842-89.1-7.956-134.54 25.563-36.45-11.522-68.55-18.362-106.17-24.745 3.89-2.3 8.07-4.49 12.05-6.657 11.95-5.503 15.17-6.84 30.53-10.411 11.57-3.924 76.39-5.19 82-12.305 24.33-30.856-65.93-12.799-70.18-11.944-22.34 4.488-58.74 19.892-70.55 38.491-48.79-6.997-86.67-6.899-135.065-5.013 19.602-24.178 57.905-38.179 86.935-46.644 12.88-3.757 38.26-5.796 24.88-25.643m648.55 718.696c30.19 24.962 42.91 80.601 62.78 113.171 6.78 11.13 13.85 14.06 25.26 18.68-4.54 50.22-14.02 93.06-27.61 141.65l-5.31 17.44c-18.41-45.27-17.52-109.52-64.58-137.92 8.88-52.24 10.94-100.43 9.46-153.021m-12.69 176.231c17.34 40.04 18.71 77.09 35.97 116.46 5.06 11.53 10.18 21.86 22.26 26.52-11.55 41.63-36.99 92.6-57.37 130.59-3.78 6.98-7.44 12.5-11.82 19.14 1.13-54.86 21.4-130.55-22.56-172.27a736 736 0 0 0 33.52-120.44"/><path fill="#fefefe" d="M1375.98 332.267a816.6 816.6 0 0 1 131.21 89.214c-44.13-19.093-84.63-36.01-131.97-18.041-4.14 1.944-7.17 4.14-10.95 6.661-43.01-26.513-83.36-40.93-129.24-59.24 40.46-19.605 64.31-18.153 107.21-10.012 12.56 2.382 27.46 4.89 33.74-8.582m288.24 951.363c12.88 27.04.98 99.04 2.94 130.57 1.01 16.3 2.26 27.89 14.86 39.33-20.74 34.32-44.63 61.07-71.02 90.83l-3.24 3.19c-2.35-1.07.67-15.79 1.18-18.57 8.64-46.89 22.88-89.82 1.98-135.5 22.62-40.96 36.63-66.66 53.3-109.85m-154.64-765.975c13.75 2.665 23.96 6.768 36.78 11.707 20.04 7.727 64.95 39.705 83.15 17.842a845 845 0 0 1 45 62.124c13.53 20.852 27.31 45.265 40.16 66.823 1.58 2.485 1.24 1.461 1.73 4.321-3.53-1.379-16.55-12.728-20.04-15.66-33.83-28.449-53.7-41.56-97.81-46.944-3.79-5.356-7.97-10.458-12.03-15.579-14.27-17.972-28.33-36.12-44.37-52.583-10.61-10.899-22.18-20.897-32.57-32.051M250.729 881.515l2.23 5.038c1.203 38.961 26.288 104.639 50.841 135.177-3.975 54.9 2.132 116.9 11.249 171.07-18.785-39-30.006-79.85-40.542-121.73-2.784-11.07-10.644-53.54-29.794-44.74-5.751 2.64-6.797 7.96-8.536 13.59-.777-57.887 4.967-102.07 14.552-158.405M1385.65 419.286c33.51-2.532 54.57 6.16 85.17 19.016 16.93 7.114 42.67 17.133 58.77 3.884a458 458 0 0 1 35.27 32.537c7.56 7.69 50.45 51.408 50.41 56.45-45.45-25.537-72.16-44.361-126.26-31.704-20.03-19.702-49.74-40.771-72.93-56.964-4.4-3.073-31.17-19.538-32.74-21.77zM296.414 725.998c-4.533 38.292 6.741 114.668 30.016 143.834l.865 1.064c-9.078 38.467-17.207 78.02-19.808 117.557a1038 1038 0 0 1-22.777-83.415c-2.668-12.056-4.762-26.117-8.02-37.736-2.034-7.253-16.003-6.257-20.99 1.5l-1.668-.624c3.65-14.722 7.164-29.495 10.922-44.187 8.49-33.198 20.425-65.57 31.46-97.993"/><path fill="#fefefe" d="M236.341 1039.83c1.617 1.94 7.715 36.94 9.538 43.83 10.604 40.06 41.443 125.55 78.187 146.91 10.986 35.65 21.278 66.7 36.76 100.84-19.243-16.47-41.966-50.85-66.725-61.6-2.492-1.08-9.968-1.72-13.011-2-23.329-59.33-44.404-164.29-44.749-227.98m113.287-427.066c.236 4.13-2.6 19.903-2.84 26.366-1.536 41.258.533 77.692 21.336 114.669a951 951 0 0 0-31.158 85.927c-1.519-5.048-2.63-10.695-3.782-15.876-6.391-32.668-6.523-64.374-7.129-97.494-.305-16.647-15.934-14.67-26.622-7.626 16.194-38.997 30.998-68.364 50.195-105.966m-52.716 694.946c3.833 2.84 15 14.78 19.119 18.72 20.8 19.91 39.126 35.49 66.313 45.3 23.439 36.25 46.421 69.34 78.023 99.09 3.615 3.41 7.805 7.77 10.904 11.64-25.825-9.8-66.341-43.07-88.332-60.43-12.354-9.75-20.851-12.96-36.237-10.71-14.668-29.23-40.366-72.79-49.79-103.61m540.037 44.1c2.785 3.41 11.883 64.87 13.403 73.67l46.013 268.42 11.028 65.84c1.492 8.61 5.69 28.38 5.836 36.17-2.665 1.49-2.893.83-6.587.52-3.713-.56-4.483-.64-7.939-1.96-2.003-2.54-2.853-20.57-3.464-25.1-2.335-17.31-4.817-34.58-7.362-51.85a11205 11205 0 0 0-32.488-204.32c-8.675-54.03-12.97-99.05-28.722-151.75zM698.688 883.064c13.536-.542 18.494 2.924 28.499 10.957-11.028 50.275-3.731 78.118 11.139 126.069l-10.346-8.59c-31.932-25.391-67.455-72.723-43.151-114.555 3.569-6.143 7.589-10.563 13.859-13.881m608.302-21.248c35.53-.704 30.26 56.85 21.63 78.385-8.95 22.346-15.7 32.122-34.08 47.56-5.54 4.343-9.52 6.97-15.49 10.76 12.8-48.336 16.34-68.08 11.57-117.63 4.55-6.001 10.97-14.086 16.37-19.075M371.951 1450.02c42.882 37.26 70.735 51.21 125.109 64.71a3599 3599 0 0 0-19.939 33.2c-4.451 7.23-8.378 15.21-12.28 22.78-25.005-27.16-76.741-89.15-92.89-120.69m1217.389-22.31c5.66 5.54-11.8 83.53-13.24 96.85-2.06 18.94-4.14 29.98 5.27 48.17l-9.3 9.68c-4.84-6.8-9.08-14.63-13.25-21.92-9.22-17.39-20.16-34.95-30.42-51.78 22.41-24.65 42.2-53.56 60.94-81m-390.99-72.2c2.68 1.84 7.73 7.11 10.28 9.6-12.69 17.06-10.01 38.69-10.82 59.35-.98 25.81-2.14 51.6-3.49 77.39-1.97 36.24-5.9 72.12-8.44 108.33-2.36 37.74-4.24 75.51-5.61 113.3-.83 18.22-2.01 47.9-2.11 67.01 0 1.07-2.7 1.33-4.39 1.77l-10.71 2.17c9.02-48.86 10.94-115.91 14.17-166.76 5.1-90.86 12.14-181.6 21.12-272.16m-305.986 183.67c79.386 17.44 169.236 22.67 249.226 6.02 4.48-.93 16.02-5.06 20.01-3.47l-1.93 1.48c-73.4 23.63-161.385 23.09-236.556 8.16-9.25-1.83-21.029-2.42-29.329-7.08-1.109-.62-1.207-3.76-1.421-5.11M1298.47 1364c6.3.79 29.21 9.35 36.05 11.76 47.67 16.8 94.98 39.29 130.38 76.53-6.34-2.43-27.02-18.17-34.25-22.8-40.03-25.67-82.51-43.89-127.11-59.96-3.81-1.38-3.87-2.09-5.07-5.53m-573.351-13.2c2.796 3.42 4.984 22.8 5.805 28.34-12.39 3.03-25.743 7.57-38.71 10.87-3.338-1.35-5.082-6.21-6.706-9.57 16.939-9.84 25.313-16.17 39.611-29.64"/><path fill="#aeacb2" d="m254.032 868.178 1.668.624c-2.395 7.886-2.872 9.305-2.741 17.751l-2.23-5.038c.405-3.586 2.287-9.655 3.303-13.337"/></svg>