<svg xmlns="http://www.w3.org/2000/svg" preserveAspectRatio="xMidYMid meet" viewBox="0 0 2048 1462"><path fill="#fefefe" d="M1784.07 0H2048v240.591c-18.31 19.391-28.2 33.125-44.68 54.148l-61.28 79.027-63.57 83.195c-12.6 16.729-26.79 34.397-37.65 52.23-10.75 17.633-18.58 38.287-28.02 56.823-16.12 31.664-32.95 64.522-53.79 93.398-19.28 26.721-42.42 53.989-65.48 77.615-10.38 10.64-23.42 20.867-33.34 31.373-23.05 24.402-46.7 50.193-71.5 72.904-20.31 18.604-46.17 38.409-68.17 55.558-53.99 41.725-110.85 83.505-173.32 111.568-30.85 13.86-70.21 17.96-84.95-19.241l-.51.31-.88.502c-12.65 7.352-29.13 13.469-42.73 19.299-32.51 13.93-94.36 30.38-109.58-15.052-23.3 8.822-53.98 9.542-69.87-12.887-27.48 24.639-57.297 48.329-86.012 71.569-7.54 6.1-30.553 24.82-37.517 28.27-2.091-.74-4.115-4.63-5.476-6.72 40.14-34.43 85.73-68.37 124.495-103.626-1.85-33.767 15.8-50.336 40.42-70.787-4.3-2.547-8.91-5.241-12.89-8.203-25.71-19.104-13.45-50.658 3.37-71.324 16.27-19.983 36.12-35.225 55.61-51.946a3810 3810 0 0 1 83.52-70.307c34.43-28.026 67.72-54.333 98.57-86.543 5.71-5.963 14.24-13.158 19.09-19.383l-1.01-.917c-22.57 3.272-41.05 18.682-64.17 20.867-26.55 2.509-55.16.363-80.23-9.257-23.92-9.177-38.31-29.794-27.37-55.017 9.19-20.176 32.97-28.29 52.93-33.393 39.68-10.142 74.06-29.985 110.67-47.536 18.2-8.728 38.28-17.309 55.97-26.9 7.71-4.182 23.35-21.684 30.2-28.574a1848 1848 0 0 1 28.81-27.962c3.97-3.795 10.46-10.872 15.08-12.727 3.69.114 2.56-.465 4.79 1.686.02.92.08 1.29-.04 2.137-.98 6.882-45.07 47.827-53.44 54.485 10.93-3.897 21.82-8.887 32.76-12.89 35.01-12.813 70.77-19.749 107.03-27.441 26.39-5.599 56.4-21.763 73.95-42.531 21.86-25.862 34.32-60.616 49.51-91.047l84.04-170.305c12.51-25.285 28.89-61.033 42.73-85.039"/><path d="M1784.07 0h28.97c-9.24 22.633-24.13 51.261-35.03 74.052a7101 7101 0 0 1-78.22 159.585c-17.98 35.963-51.16 115.002-75.72 141.831-7.57 8.26-45.28 27.33-56.93 32.237a185 185 0 0 1-45.38 12.904c-9.78 1.451-20.68 2.52-30.32 4.652-8.18 1.808-35.98 13.381-42.5 12.532l-4.31-3.451-.92 1.041.8 2.826c-2.97 4.935-42.85 16.507-50.62 20.889-18.29 10.309-37.77 18.201-56.84 27.266-23.36 11.101-47.41 25.152-71.16 35a542 542 0 0 1-40.2 14.918c-11.82 3.775-51.82 13.793-53.12 28.316 1.45 4.261 7.58 9.566 11.52 10.924 21.63 7.452 65.33 14.84 86.9 4.723 27.31-12.808 46.73-17.703 76.71-22.621 26.39-4.328 54.53-13.754 82.11-11.365 16.55 1.059 32.45 6.723 48.19 10.666 26.72 6.697 61.67 6.076 88.57-.117 27.48-7.428 60.05-19.863 78.45-42.22 10.4-12.646 14.95-28.129 27.02-38.526 2.58-2.218 9.12-1.484 11.86-.322a10.37 10.37 0 0 1 5.57 5.733c2.7 6.904-.64 17.357-3.77 23.559-36.19 71.909-134.66 97.096-208.31 79.656-33.54-7.944-51.12-15.227-86.2-7.035-29.8 6.959-32.12 15.676-53.08 36.309a1350 1350 0 0 1-50.62 47.748c-30.54 27.29-62.56 53.094-94.03 79.319-26.87 22.388-104.22 82.979-118.05 109.594-2.47 4.763-4.68 10.944-2.99 16.284 1.41 4.46 6.34 7.247 10.35 9.095a73 73 0 0 0 9.4 3.612c22.35-7.181 45.94-29.64 66.14-42.026 35.91-22.007 67.75-50.551 101.8-74.646 32.91-23.285 63.68-48.596 96.07-72.036-5.45-11.108-26.36-68.938 5.24-64.024 3.77.587 9.2 6.675 10.5 10.424 12.03 34.812 17.77 69.471 41.31 99.219 28.3 36.405 65.81 67.855 110.9 80.379 7.3 2.028 30.8 2.542 23.43 16.307-8 14.929-47.14 2.406-58.03-.939-12.71 11.042-85.95 58.892-89.47 65.084 5.39 7.376 20.27 18.784 20.28 27.397-1.81 3.486-.85 2.287-4.38 4.449-8.33.29-20.08-17.635-23.17-24.5-.27-.622.8-3.292 1.06-3.932-5.02 1.933-8.59 4.6-13.05 7.481-23.05 14.875-46.82 28.391-68.93 44.691-8.27 6.095-16.87 11.231-24.58 18.162-1.07 3.747-3.47 11.393-1.18 14.025 24.63 28.311 114.33-34.18 131.11-45.768 62.05-42.839 126.57-86.894 177.96-140.556-60.9-14.75-91.22-61.456-137.41-98.831-7.27-5.883-17.29-10.629-25.67-14.986-1.3-2.134-1.31-1.956-1.35-4.434 6.74-8.632 41.64 7.12 48.65 13.598 39.15 36.182 82.22 69.751 135 84.585 20.27-17.056 25.75-25.708 42.99-43.45 45.07-46.397 81.9-85.964 112.42-143.397 16.68-31.385 31.02-66.395 48.4-96.09 10.52-17.982 34.46-48.165 47.45-65l40.92-54.083 32.4-42.756c3.75-4.952 11.38-15.89 15.37-19.877 1.26.489 1.34.478 2.5 1.169.95-11.7 13.64-20.004 19.43-29.974.37-.635 4.08-2.381 4.82-2.698.7-1.666 1.65-5.859 1.81-6.058 4.22-5.412 8.96-10.79 13.14-16.237a1479 1479 0 0 1 51.95-65.23v45.535c-18.31 19.391-28.2 33.125-44.68 54.148l-61.28 79.027-63.57 83.195c-12.6 16.729-26.79 34.397-37.65 52.23-10.75 17.633-18.58 38.287-28.02 56.823-16.12 31.664-32.95 64.522-53.79 93.398-19.28 26.721-42.42 53.989-65.48 77.615-10.38 10.64-23.42 20.867-33.34 31.373-23.05 24.402-46.7 50.193-71.5 72.904-20.31 18.604-46.17 38.409-68.17 55.558-53.99 41.725-110.85 83.505-173.32 111.568-30.85 13.86-70.21 17.96-84.95-19.241l-.51.31-.88.502c-12.65 7.352-29.13 13.469-42.73 19.299-32.51 13.93-94.36 30.38-109.58-15.052-23.3 8.822-53.98 9.542-69.87-12.887-27.48 24.639-57.297 48.329-86.012 71.569-7.54 6.1-30.553 24.82-37.517 28.27-2.091-.74-4.115-4.63-5.476-6.72 40.14-34.43 85.73-68.37 124.495-103.626-1.85-33.767 15.8-50.336 40.42-70.787-4.3-2.547-8.91-5.241-12.89-8.203-25.71-19.104-13.45-50.658 3.37-71.324 16.27-19.983 36.12-35.225 55.61-51.946a3810 3810 0 0 1 83.52-70.307c34.43-28.026 67.72-54.333 98.57-86.543 5.71-5.963 14.24-13.158 19.09-19.383l-1.01-.917c-22.57 3.272-41.05 18.682-64.17 20.867-26.55 2.509-55.16.363-80.23-9.257-23.92-9.177-38.31-29.794-27.37-55.017 9.19-20.176 32.97-28.29 52.93-33.393 39.68-10.142 74.06-29.985 110.67-47.536 18.2-8.728 38.28-17.309 55.97-26.9 7.71-4.182 23.35-21.684 30.2-28.574a1848 1848 0 0 1 28.81-27.962c3.97-3.795 10.46-10.872 15.08-12.727 3.69.114 2.56-.465 4.79 1.686.02.92.08 1.29-.04 2.137-.98 6.882-45.07 47.827-53.44 54.485 10.93-3.897 21.82-8.887 32.76-12.89 35.01-12.813 70.77-19.749 107.03-27.441 26.39-5.599 56.4-21.763 73.95-42.531 21.86-25.862 34.32-60.616 49.51-91.047l84.04-170.305c12.51-25.285 28.89-61.033 42.73-85.039"/><path fill="#fefefe" d="M1364.41 714.807c3.4 3.465 11.82 16.296 14.99 21.017 8.04 11.982 15.06 21.762 24.59 32.645a7595 7595 0 0 1-214.35 146.418c-29.19 19.178-62.28 45.164-93.93 57.356-40.42 10.039-50.67-12.863-20.4-40 24.81-22.243 51.62-40.771 78.5-60.33a6644 6644 0 0 0 138.09-101.158c21.77-16.22 52.8-38.313 72.51-55.948"/><path d="M1278.21 787.666c5.65 1.927 23.97 25.252 24.31 32.275-.84 3.493-1.54 3.713-4.43 6.2-9.79-5.963-25.26-19.73-25.95-31.951 1.72-4.085 2.12-3.47 6.07-6.524m-130.23 93.865c2.37.157 2.29.196 4.51 1.081 5.89 8.284 16.21 20.006 20.73 28.987.76 1.521-1.14 5.013-1.96 6.591-4.57-1.659-10.03-4.753-13.31-8.303-6.96-7.519-20.13-18.562-9.97-28.356"/><path fill="#fefefe" d="M1421.59 786.801c1.56.69 14.8 11.936 19.16 14.746 8.49 5.473 17.65 10.97 25.97 16.59L1302.6 929.14c-16.61 11.277-38.5 30.296-54.33 39.192-19.9 11.179-51.9 21.887-74.04 28.664-13.07 3.524-22.38 3.574-35.06-1.645-6.9-2.838-8.65-8.888-2.65-13.595 26.16-20.555 54.33-37.528 81.89-55.759a6670 6670 0 0 0 146.63-99.616c18.86-13.206 38.52-25.421 56.55-39.58"/><path d="M1351 842.914q.615.648 1.23 1.315c5.55 6.235 20.96 23.488 20.47 31.678-2.03 3.609-.98 2.358-5.5 4.574-7.54-4.183-24.58-22.482-24.28-31.427 1.74-3.156 4.79-4.31 8.08-6.14m-129.53 87.719c5.17 2.505 21.38 20.653 21.32 27.302-1.69 3.654-1.01 2.457-5.15 4.837-7.39-5.225-21.06-16.781-21.85-26.137 1.58-3.888 1.98-3.302 5.68-6.002m29.46-229.174 3.49.627c4.74 3.231 24.14 27.676 27.18 33.288-.77 3.853-1.52 3.672-4.41 6.849-9-.503-27.02-23.886-29.5-32.342-.89-3.054 1.61-6.189 3.24-8.422M1142 791.367c10.41.537 20.1 17.516 25.1 25.797 1.35 2.244-.8 5.384-1.86 7.395-11.6-1.667-21.7-15.147-25.64-25.666-1.05-2.809 1.03-5.24 2.4-7.526"/><path d="M563.816 294.418c55.582-3.885 115.749 5.493 168.913 22.017 59.312 18.435 103.352 60.948 79.953 127.941 41.548 56.46 61.554 122.868 68.398 192.133.864 8.755.987 17.446 3.638 25.878 18.304 18.488 65.364 24.701 53.079 67.177-4.5 15.559-22.355 24.788-36.084 31.493-1.935 71.21 3.698 146.186-73.19 181.148-29.49 13.409-55.121 17.304-87.22 18.602-2.237 12.506-2.72 26.456-3.705 39.189-2.817 36.424-2.612 73.004-3.526 109.544 97.664 53.29 168.863 126.97 203.618 233.91 28.843.72 61.392-.12 90.46-.21l161.97-.17 502.38-.07 167.97.07 54.1.05c5.62 0 15.31-.64 20.31-.34 3.38.21 6.71 1.01 9.83 2.35 4.99 2.15 8.16 4.79 10.14 9.81-.96 15.39-33.48 10.23-45.11 10.25l-69.39.45-238.6.08-1019.171-.05-322.691-.41-107.491-.06c-17.886-.01-36.613 1.09-54.405-.26-1.998-.15-3.866-.67-5.468-1.92-1.949-1.52-3.282-4.16-3.466-6.6-.777-10.32 9.293-8.71 13.574-14.55 2.426-3.32 1.05-29.77 1.206-36.03.481-19.25-.281-40.96 1.469-59.8.293-3.16 3.594-7.91 3.477-10.44-.029-.63-2.884-2.55-2.743-8.69.243-10.58 4.409-42.12 2.867-48.83-1.538-6.69.134-12.27 1.526-18.87l3.335-1.46.21-2.13c-1.56-1.42-2.419-1.74-4.256-2.67-1.38-4.03 5.949-113.5 5.429-126.97-.146-3.79 3.171-11.68 3.121-15.03-.054-3.57-3.172-9.52-1.445-13.42.522-1.177 4.014-1.787 5.585-2.237.426-4.149-5.548-4.829-4.512-8.193 3.747-12.171 1.187-23.164 1.17-35.403-.005-3.722 3.867-7.886 3.55-13.554-1.99-2.414-2.187-2.657-3.47-5.481.098-5.57 3.353-5.941 4.452-9.513 1.201-3.907.983-11.28 1.158-15.691a909 909 0 0 1 8.434-95.876c1.051-7.25 5.641-20.909 3.25-27.351-.785-2.116 3.939-29.115 4.867-32.62.693-2.622 2.58-4.87 3.462-7.587-1.068-2.76-1.586-3.574-1.634-6.465l3.736-3.626c-.646-12.983-4.022-8.638 4.992-18.587.161-3.896-1.992-8.06-3.504-11.839 1.554-3.964 2.179-10.8 4.138-12.638 2.627-.663 4.136-.782 6.187-2.562-.106-3.309-3.336-10.585-2.981-12.219 48.274-222.275 172.095-364.775 408.108-381.67"/><path fill="#fefefe" d="M795.42 464.482c2.771 2.029 7.565 13.994 9.184 17.633 17.039 38.289 29.297 78.247 38.477 119.157 4.899 21.827 5.552 50.393 12.464 71.925 6.743 21.006 39.567 27.799 46.233 43.272 6.772 15.719-24.299 16.333-27.366 26.562-3.873 12.915 3.483 53.441-1.848 63.257-28.054 5.018-50.184-28.331-60.338-20.191a8.07 8.07 0 0 0-3.018 6.186c-.13 9.905 16.78 18.653 24.296 22.296 12.515 6.065 24.295 8.496 37.976 9.103-4.695 83.944-81.64 103.829-151.071 106.425-5.25.197-42.796 1.224-45.335 3.325-22.629 18.727 21.04 20.969 31.134 22.684-4.842 52.884-.783 97.554-3.062 149.534-14.555-1.67-31.947-.42-46.738-.74-69.317-1.49-120.385 12.37-176.403 53.84-33.794 27.13-49.654 48.37-71.034 84.47a867.5 867.5 0 0 1 32.262-111.65c8.177-21.98 18.282-44.25 27.233-65.82 36.108-87.01 73.271-175.819 79.1-271.022.568-9.282 4.859-32.16 2.8-39.577-3.253-3.763-9.429-3.926-14.368-4.313-42.56-3.329-75.708-45.944-57.171-87.705a62.24 62.24 0 0 1 34.677-33.035c18.54-7.053 29.176-3.072 46.055 4.413 16.881-12.214 27.716-33.567 35.97-52.335 18.917-2.773 30.618-2.191 51.041-7.392 44.151-11.242 74.308-28.399 106.748-60.093 18.461-18.037 28.103-27.691 42.102-50.209"/><path d="M810.722 550.371c2.943-.57 8.836.441 11.47 1.87 12.788 6.935 8.666 20.403 3.859 29.98-13.6 5.631-46.22 10.746-62.822 15.614-16.979 6.329-26.518-11.969-15.793-23.566 13.125-14.191 44.378-21.818 63.286-23.898m-284.925 92.021c9.38-1.053 35.36 5.989 24.882 18.978-7.932 4.748-14.216-2.621-21.133-2.204-37.901 2.288-24.656 36.74-10.172 54.189l1.465 2.644c.878 10.731-7.434 12.54-14.977 5.667-28.463-25.935-24.944-76.377 19.935-79.274m275.841-11.453c20.517-1.812 27.495 25.88 10.051 35.825-13.052 1.06-15.522-4.701-20.264-15.694.682-11.257-.198-14.621 10.213-20.131"/><path fill="#fefefe" d="M650.719 1118.43c14.547-1.76 41.16-.41 56.097.14 7.725.28 37.913 21.32 45.344 25.96 72.63 45.38 140.446 115.99 165.853 199.42l-257.04-.33c-89.208-.37-178.418-.28-267.625.29 2.529-11.22 3.673-22.39 6.546-34.05a260.14 260.14 0 0 1 57.806-109.97 235.96 235.96 0 0 1 136.787-76.2c18.025-3.14 37.866-4.07 56.232-5.26m-401.052-71.8c3.482.74 5.939 1.69 6.856 5.14-1.59 3.3-1.739 4.2-1.439 7.85l-2.529-.68c-3.122-4.44-3.595-6.85-2.888-12.31"/><path d="M1205.89 1045.17c4.81-.57 12.39-2.19 14.81 3.09l-.36.93c-1.86 3.87-16.53 8.02-20.9 9.19-25.04 6.67-27.91 28.69-54.22 35.92-19.37 5.32-33.65-.83-51.31 4.58-17.51 5.36-26.79 22.91-39.1 34.46-10.72 10.04-25.93 18.02-39.83 23.07-5.99 2.47-7.9 3.49-14.36 1.58l-.987-1.98c2.627-8.72 32.667-16.74 44.367-26.32l.6-.5c13.22-10.82 18.5-26.02 37.7-36.79 20.96-11.77 43.69-.71 61.39-8.66 28.46-12.79 26.54-29.57 62.2-38.57m46.42 178.09c5.45-.55 14.91-1.01 19.03 2.99.54 3.72.65 2.25-1.21 5.94-4.46 2.81-13.9-.4-18.28.87-20 5.84-32.8 20.2-54.49 22.85-12.83 1.57-27.1-4.39-38.47-1.73-10.87 2.55-22.69 10.13-32.2 16.22-19.61 12.56-35.39 18.35-58.51 21.28-6.3 1.14-22.04 3.9-25.16-3.11l1.2-3.01c4.45-4.39 18.8-2.28 25.3-3.58 9.39-1.88 17.5-4.46 26.45-7.7 18.89-6.84 33.36-20.82 51.99-27.87 17.39-6.74 34.23 2.06 51.88-1.48 11.28-2.25 20.87-9.52 30.95-14.66 8.46-4.51 12.02-5.46 21.52-7.01m-202.8-917.879c3.64 1.862 3.01.876 4.71 3.936-.22 6.377-4.84 10.49-5.74 16.288-1.28 8.257-.96 19.93-3.69 27.667-14.41 40.799-59.904 50.823-82.477 83.8-5.744 8.392-7.541 19.018-11.069 28.628-2.703-.134-3.172.01-5.4-1.612-.942-1.829-1.388-2.709-1.209-4.802 4.65-54.33 68.235-62.522 88.045-107.374 7.79-17.631-.79-30.799 16.83-46.531m-109.795-35.708c3.596-.06 4.812.369 6.987 2.967.037 3.869-2.509 6.664-4.373 10.031-10.531 19.026-4.27 41.329-10.119 61.603-6.629 22.976-28.452 33.074-42.368 50.525-7.388 9.266-11.976 22.865-16.118 33.933-3.872.408-3.011.917-5.742-.703-2.71-6.046.969-14.971 2.615-20.852 10.577-37.787 54.628-41.954 52.819-87.294-.721-18.045 3.64-36.082 16.299-50.21m303.065 92.029c2.04.58 2.79 1.082 4.67 2.023 2.83 5.419-6.63 14.522-9.62 21.136-7.29 16.129-11.58 42.105-22.9 55.377-26.68 31.291-55.37 27.299-68.41 72.213-3.22-.223-3.07-.201-6-1.568-3.44-5.465-.05-9.483 1.67-15.282 9.43-31.854 51.56-40.143 66.69-64.842 15.17-24.769 8.51-47.858 33.9-69.057m-131.39 256.914c3.59 1.49 5.12 1.981 5.71 5.954-4.48 9.286-134.512 124.197-148.29 135.607-3.069-1.434-4.006-4.609-3.913-7.705 11.556-12.426 36.703-32.798 50.583-45.393 31.8-28.87 63.72-60.318 95.91-88.463m108.48-1.938c3.56.083 5.5-.015 6.9 3.447-1.88 6.369-113.55 106.283-128.67 119.86-3.09-.932-5.3-2.47-6.87-5.15 1.9-4.565 115.58-106.621 128.64-118.157m-49.49 543.162c4.09 1.35 5.45 3.69 4.2 7.7-6.64 5.35-132.49 58.96-145.28 63.01-1.75-.12-1.94-.35-3.65-.92-2.26-2.99-1.91-1.66-1.92-5.07 4.56-7.8 116.54-50.56 133.09-59.14 2.15-1.12 10.87-4.52 13.56-5.58M931.471 902.125c2.092 1.682 4.395 4.775 6.187 6.94-7.323 5.288-25.548 23.566-33.754 30.953-25.681 23.121-52.062 47.449-80.317 67.372-4.098-1.35-4.958-2.44-5.336-6.6 2.856-3.781 16.971-14.87 21.309-18.434 31.487-25.861 61.552-53.074 91.911-80.231m126.389-139.313c2.79 1.727 5.05 3.705 5.84 6.772-6.82 7.919-37.1 33.069-46.47 40.837-22.789 18.892-46.694 40.946-69.669 59.128-.849.055-1.892-.332-2.806-.567-2.227-2.274-1.562-1.275-1.872-5.168 3.559-7.445 34.535-31.543 43.467-39.16zm190.24-566.363c3.58 2.208 3.59 2.284 4.64 5.525-.6 4.273-7.49 14.039-10.06 19.045-11.59 22.551-21.8 36.811-46.4 45.853-7.65 3.456-15.79 7.884-22.05 13.422-7.6 6.71-10.17 16.235-15.89 24.253-9.63-4.889-3.65-14.122.46-20.49 13.62-21.115 42.7-25.359 58.97-41.503 11.67-11.575 17.57-33.934 30.33-46.105m102.15 28.85 3.53 1.347c4.64 5.81-1.54 17.702-3.9 24.498-13.17 37.843-45.98 37.97-72.56 64.5-3.13-1.408-3.62-2.048-4.66-4.65 2.87-14.101 40.71-28.708 52.3-39.928 14.99-14.515 15.02-31.117 25.29-45.767M990.24 530.541c1.362-.011 2.145.352 3.525.734.9 1.179 1.755 1.629 1.584 3.188-.659 6.043-78.354 83.656-88.853 91.794-3.17.642-1.701.78-4.581-.133-.752-1.435-.499-1.612-.616-3.436 2.895-6.951 77.539-81.636 88.941-92.147m654.08-314.573c3.69.54 4.44.371 7.16 2.646l.2 2.278-1.72 1.853c-3.04.855-7.72 1.972-9.7 4.136-15.26 16.593-18.61 31.317-42.28 39.128-17.64 5.816-30.7 18.374-39.08 35.589l-1.47 1.394c-3.18-.05-1.92.539-4.01-1.612-.55-3.296.6-5.261 1.77-8.096 10.62-25.82 36.22-29.981 55.8-42.921 12.96-8.571 13.3-26.134 33.33-34.395m-629.84 850.862c1.82.28 2.55 1.21 3.94 2.44.61 1.6 1.27 2.46.82 4.19-1.42 5.49-66.279 46.98-75.651 52.65l-.765-.23c-2.409-2.59-2.734-2.71-3.505-6.03 2.416-5.23 65.491-46.94 75.161-53.02m386.76-776.131c3.18.827 4.07 1.609 5.44 4.39-.78 6.395-51.66 51.897-59.84 58.983-3.09-.556-4.49-2.113-5.88-4.653.15-.828.29-1.656.44-2.484 13.96-14.499 45.95-44.879 59.84-56.236M961.024 951.607c2.578 1.165 4.49 2.716 5.682 5.215-2.791 7.339-48.697 47.028-57.193 53.908l-1.951.5c-2.26-2.01-2.27-2.41-3.487-5.29 1.314-6.754 48.174-46.339 56.949-54.333m55.936-360.092c3.56.635 4.61 1.989 5.46 5.162-3.21 7.154-52.183 54.364-60.658 62.761-2.865-.798-4.265-2.413-5.195-5.14 3.014-6.715 51.443-53.621 60.393-62.783m111.91-218.031c1.79-.093 2.7.414 4.4 1.02.9 1.134 1.64 1.542 1.64 3.059.01 6.4-44.2 51.616-51.03 59.285-3.55.363-4.01-.722-5.36-3.369.99-8.841 41.78-51.295 50.35-59.995m357.43-267.781c1.82.212 2.17.725 3.74 1.785l.1 1.937c-12.71 14.553-11.98 26.217-22.77 38.287-8.57 9.584-33.54 9.591-45.01 15.905-6.11 3.366-8.09 5.116-13.55 9.516-2.19-.954-1.15-.308-2.81-2.645.71-4.568 3.84-6.083 6.6-8.701 13.06-12.347 32.68-9.218 44.83-15.78 17.36-9.382 10.1-24.089 28.87-40.304m94.59 31.945c3.02-.02 3.45-.218 5.87 1.325l.29 1.981c-2.22 3.7-5.49 5.537-9.06 8.103-16.52 51.332-30.89 20.301-63.33 51.247-1.97 1.502-.87.964-3.55 1.376-.59-1.306-1.36-2.104-.86-3.517 7.76-21.742 37.52-16.094 50.53-28.119 10.14-9.372 4.72-21.273 20.11-32.396m-560.48 1.734c2.88.932 1.73.105 3.51 2.61.26 5.814-3.09 9.923-3.51 16.014-.62 5.434 2.08 14.554 1.13 19.65-2.77 14.854-19.45 28.488-28.656 40.721-3.124-1.152-1.906-.205-3.801-2.915-.467-10.116 23.957-28.531 24.837-32.729 3.12-14.801-5.05-26.241 6.49-43.351m99.47 77.236c3.22.409 4.35 1.738 5.54 4.415-1.11 6.492-31.76 37.371-38.65 44.632l-2.63-.117c-2.78-2.217-1.91-.829-2.68-4.323 2.69-8.989 30.85-37.57 38.42-44.607M1681.24 64.76c3.77.917 2.72.084 4.69 2.76l-.57 2.397c-7.01 4.969-17.9 12.827-24.41 17.738-7.76 5.855-13.43 10.873-19.95 16.745l-2.55-.11c-.74-1.206-1.85-2.356-1.06-3.755 7-12.458 32.81-28.65 43.85-35.775M902.997 499.458c3.813.929 5.189 1.294 5.481 5.361-2.64 6.512-11.506 14.47-16.701 19.676-2.133.725-2.4.466-4.59.022l-1.09-2.04c.947-5.83 12.68-18.14 16.9-23.019"/></svg>