<svg xmlns="http://www.w3.org/2000/svg" preserveAspectRatio="xMidYMid meet" viewBox="0 0 2048 1152"><path d="M0 0h2048v1152H0z"/><path fill="#fefefe" d="M0 250.829c29.713-.864 60.89-.268 90.757-.27l169.361-.262c24.635-.134 54.694.391 79.046-.733.365 14.324.394 28.654.087 42.979-17.196-4.293-48.185-4.373-66.049-4.131-1.395.019-6.442-1.718-10.321-1.989-14.08-.984-19.975 2.897-33.376-2.131-8.302 6.636-23.989-3.538-32.082 2.121-19.501-2.597-19.693-2.496-39.89-1.238l-.252.977-2.308-.443c17.109 7.085 26.445 5.667 43.791 8.608 43.5 7.375 85.624 8.697 129.591 6.095 3.216-.19 8.495-1.657 10.495-.012.213 3.561.495 4.857-1.007 8.206-2.909 2.262-3.047 2.302-7.163 1.949-25.992-2.231-56.113 1.875-81.465 7.112-11.675 2.411-30.914 8.512-41.821 9.239-55.505 3.701-125.462-9.802-175.997 21.219 34.544-.443 68.51-11.398 103.528-7.286 4.067.478 13.321-2.645 17.025.549-4.739 4.018-28.547 4.19-35.775 5.673-14.732 3.022-36.654 4.503-50.707 9.377 1.791 1.584 13.118 2.587 16.99 3.885 46.185 15.485 90.439 18.016 138.986 15.041q5.19-.284 10.364-.762l-.444-.944c-10.175-2.483-14.744-.954-23.544-2.119-18.083-2.392-36.035-4.088-53.944-7.43-4.029-.842-11.682.812-13.84-2.514 6.745-5.939 127.152-25.212 142.793-29.832 3.555-1.05 50.714-6.808 54.486-3.37 1.658 1.512 2.43 25.759 1.591 30.295q-.205 1.147-.534 2.265c-4.106 1.524-4.976-.3-8.417-.321-23.227-.143-55.181 2.053-77.354 7.197l-.22 1.167c6.006 1.298 9.89.191 14.985.901 20.387 2.844 51.246 4.202 71.878 1.379-.047 7.352.832 56.589-1.514 59.161-10.549 1.001-35.46-.219-46.368.062-19.369.501-126.384-.153-135.098-12.459l-.119-1.567c5.71-1.796 11.362-.926 16.794-1.803 10.089-1.631 23.124-2.672 33.439-3.124 16.394-.719 30.318-4.435 45.912-6.231 13.691-1.576 33.092.117 47.376-1.099 2.687-.229 18.824-.588 19.095-.903-9.622-4.143-29.409-7.135-39.969-8.452-33.28-4.152-65.743-.803-98.857 3.751-26.211 3.604-55.415 1.901-82.055 3.635-5.956.388-36.634-4.151-41.078-1.693 6.803 4.015 39.814 9.896 42.643 11.597 14.346 8.624 101.389 28.677 108.648 35.771-1.762 1.477-8.168 1.859-13.946 4.737-6.035-2.067-16.78 4.335-23.661 3.169-2.453-.415-8.814.624-11.61.923-39.246 4.184-78.71 14.506-118.239 15.777 75.869 15.483 169.314-6.012 241.722-26.566 18.072-5.129 38.142-5.953 56.559-9.392.041 10.762.85 52.303-1.098 60.169-4.401 2.452-33.283 2.642-40.473 2.835-18.552.499-37.804 1.914-56.346 2.883-23.111 1.207-77.767-.292-97.963 5.441 63.224 11.773 132.181 5.308 195.843 3.157.107 19.961.763 39.774 2.105 59.684 3.415 50.684.428 101.778 2.031 152.478-17.189 9.62-44.543 28.949-56.634 44.757-46.937-34.757-105.417-70.131-166.309-59.29-34.506 6.144-16.631 16.932-9.693 38.734-6.359 1.094-12.26 1.163-16.062 6.357-2.815 8.251 7.581 19.819 11.767 27.303-7.818 2.16-17.61 3.954-23.383 9.516-2.933 7.279 7.12 11.724 9.307 21.18l-.465 1.165c-3.632.782-6.422 1.008-9.07 3.578-2.81 6.778 1.644 11.17 5.832 16.215-9.145.585-26.837 1.568-24.65 14.656 3.357 20.105 20.26 40.09 31.714 56.796a3209 3209 0 0 0 60.806 84.352c9.29 12.224 19.121 24.024 28.326 36.324 12.062 16.12 38.573 56.71 52.786 68.07 3.616 2.89 9.487 2.99 13.886 2.44 13.201-1.68 78.83-39.18 94.373-47.23l178.162-92.185c13.966-7.308 43.17-18.326 51.757-29.426a62 62 0 0 0 3.252-4.61c2.624-19.124-5.723-24.677-16.08-40.616a42571 42571 0 0 1 618.311 10.295c60 1.366 120.06 3.611 180.06 4.482 55.79.811 111.68.368 167.48.605 21.73.093 43.35 2.544 65.07 2.485 18.32-.049 36.63-1.44 54.95-1.686 13.3-.179 27.68 1.348 40.8-.405 3.13-.418 5.93-1.14 8.21-3.49 14.25-14.698 8.17-241.5 8.24-274.724.12-57.969 1.65-115.859 1.32-173.85-.05-9.451-1.65-10.3 8.4-10.984 7.57-.515 50.6.266 52.94-.709-7.07-4.752-47.17-5.686-61.42-9.823-.36-6.128-2.99-36.181-.72-39.663 8.38-1.418 98.26-8.612 96.12-7.303-4.36-2.929-11.81-1.903-16.95-3.162-19.13-4.677-61.82-8.219-80.12-1.642-.18-6.765-1.51-30.236.95-35.073 6.7-.467 16.28.755 23.18 1.547 49.38 5.685 97.99 13.95 147.71 17.313 16.64 1.126 40.2 7.54 56.34 7.31 10.92-.155 87.04-2.404 90.97-6.513-2-1.456-14.18-3.156-17.68-4.04-24.77-6.245-50.45-5.239-75.68-6.989-11.74-.815-21.52-4.568-32.42-6.002 17.72-9.665 85.7-14.294 107.47-17.874-3.34-2.866-37.79-5.314-43.21-5.079-29.87 1.199-59.18 6.463-88.89 9.196-11.88 1.093-28.49.863-40.53.513-44.08-1.279-82.76-8.529-127.49-6.73-1.58-3.883-2.03-31.634-.58-35.623 33.28-2.275 79.44-12.357 109.45-9.69l.86-.581c-25.81-12.311-55.55-10.834-82.48-3.304-9.41 2.631-19.78 3.735-28.48 8.386-.29-9.043-.79-18.846-.6-27.825 113.52-1.268 230.07-.003 343.78.245V1152H0z"/><path d="M251.185 255.528c2.638.322 8.035-.358 11.323-.212 19.629.867 43.573 3.4 61.923 10.424-40.437 1.405-66.869-3.108-107.804 8.536-21.822 6.207-72.948 4.665-95.42-.464-6.163-2.974-61.512-2.901-73.235-4.534 29.347-5.663 47.275-11.72 78.204-7.662 13.232 1.737 34.392 5.95 46.811 5.514 25.032-.878 53.075-9.725 78.198-11.602M1858.2 386.656l1.27-.413c3.58 1.186 6.35.34 9.95.569 17.84 1.14 36.02 3.669 53.72 6.218-27.43 3.714-55.36 3.398-82.73 8.392-8.62 1.572-18.14 1.281-26.41 4.457-4.19-.378-4.95.201-8.01.707-6.58 1.09-48.29 1.834-51.07-.198 7.39-5.403 69.71-14.092 82.1-17.528 4.9-1.358 16.18-.152 21.18-2.204M96.41 298.73c4.535-1.439 44.259.119 51.103 1.212 17.941 2.863 38.41 7.449 56.124 12.038-9.968.343-37.617 1.727-46.388.823-12.9.573-30.01-1.113-43.229-1.979l-69.777-4.587c10.426-2.229 46.24-5.144 52.168-7.507m1805.439-32.339c15.06.714 53.72.445 67.8 7.523l-.23.793c-14.4 1.962-14.99-.34-28.43.227-15.71.663-33.32 3.173-49.11 5.172-19.59 3.869-35.44 6.745-55.27 3.473-4.3-.71-6.41.386-11.23-1.752l-.18-1.199c2.97-1.4 13.09-.478 19.16-1.628 19.47-3.687 37.97-9.445 57.49-12.609m10.46 26.977c4.65-.867 32.76-1.272 33.48 4.666-.72.487-59.78 9.649-63.14 9.369-8.42 1.807-30.53 3.681-40.15 4.732 25.2-10.678 43.64-14.397 69.81-18.767m-139.62-.913c15.26.548 34.55 3.058 48.67 8.768l.43 1.044c-3.41.959-25.75-.506-29.59-1.134-4.23 1.504-50.32-1.034-53.72-3.542 5.26-3.011 26.96-4.375 34.21-5.136"/><path fill="#fefefe" d="M0 0h2048v235.843c-43.88 1.802-91.6 1.224-135.83 1.227l-207.49-.155c-.16-24.472-.17-48.945-.06-73.417.16-14.772.74-29.342.05-44.097-.97-20.405-26.61-16.443-40.79-16.554-14.08-.111-28.38 1.259-42.43 1.117l-174.56-1.948a10771 10771 0 0 0-228.93-1.002c-9.25-.024-18.69.079-27.93-.105-101.07-2.008-202.771 2.033-303.811 2.02q-42.094.192-84.182-.508c-23.556-.532-46.836-1.832-70.395-1.963q-96.111.296-192.216-.865c-19.332-.049-38.435 1.541-58.08 1.124-19.62-.416-39.508-3.673-59.003-4.285-20.838-.02-43.351-2.796-64.009-1.094-15.342 1.265-14.419 33.645-15.501 43.786-3.432 32.164-3.732 63.787-3.747 96.027l-254.583 1.115c-27.872-.075-56.734.438-84.503-.362z"/><path fill="#fefefe" d="m377.76 129.888 514.53 7.101c47.399.263 95.402-1.937 142.75-2.286l305.61-.508 218.25-.002c22.32.177 45.37 2.199 67.79 2.54 15.12.23 30.14-.308 45.25-.779.39 16.412-.77 33.539-.76 50.013.03 40.644-1.94 82.22-1.86 122.744-23.69.962-55.89 7.551-78.12 14.907-24.63 8.15-50.04 18.633-75.7 23.179-13.06 1.318-28.85 4.424-41.87 7.714-6.69 1.694-22.72 9.055-28.54 9.333-21.54 1.029-40.66 4.593-61.76 8.36-9.49.615-19.33.492-28.83.537-15.06.071-30.77 1.068-45.78.525-23.48-.85-44.81-2.829-68.34.237-49.17 6.408-98.77.64-148 .993a68 68 0 0 0-.22-3.48c-2.6-27.799-13.86-68.991-36.68-88.16-17.15-14.399-46.83-16.277-61.441 3.831-24.31 33.462 1.256 60.899 5.523 94.839-23.324-2.172-50.171-7.061-73.561-7.294-33.27-.332-64.816 1.966-98.267-.349-22.733-1.572-40.619-7.966-62.286-9.576-8.846-.657-25.486 1.569-35.279 1.746-11.589.209-23.948-1.881-34.831-1.698-17.695.297-33.653.344-51.384-.849-5.992-.721-15.504.695-21.213-.784-17.198-4.455-35.995-6.756-52.774-11.999-7.812-2.442-15.066-9.526-23.713-11.576-11.292-2.677-22.506-3.034-33.416-6.891-13.137-5.708-22.585-12.965-36.679-17.863-19.36-6.727-39.834-2.223-58.108-5.584-15.93-2.93-24.07-9.608-42.974-12.401.089-38.11-.864-75.991-.567-114.089.137-17.547 2.923-35.116 3.25-52.431m504.079 254.563c36.8-2.755 80.904 3.217 117.11-.582-1.037 9.101-2.052 11.008-6.487 18.869-22.094 10.293-54.36 32.221-64.269 55.641-12.105 28.61-17.662 66.42-22.724 97.085-4.346 26.334-9.933 56.986-11.921 83.636-18.48-1.385-30.711-1.743-49.054 1.995-13.436 2.738-32.605 9.112-45.63 10.125-26.299 2.046-55.921.515-82.507.57-32.117.066-66.104-7.849-98.029-11.402-24.366-2.712-49.084-2.227-73.276-7.072-21.457-4.298-41.716-13.955-62.987-18.082-9.996-1.94-23.903-1.581-34.562-2.016a337 337 0 0 1-44.369-4.355c-9.466-1.305-17.288-3.281-26.526-5.541.289-6.952.136-14.053-.308-20.997-3.333-52.117-3.181-104.389-1.259-156.619 27.573 1.166 88.556 7.795 113.68 4.467l.483-.776c-15.265-5.117-97.273-14.134-114.224-12.245.598-4.463.699-9.712.904-14.266 14.252 2.869 32.387 2.805 46.922 4.338 62.279 6.572 123.28 2.404 185.307-3.799 17.369-.397 35.302 3.335 52.628.927 28.85-4.008 55.728-13.315 85.083-15.589 45.427-3.52 90.497-2.058 136.015-4.312"/><path d="M536.077 489.576c8.875-1.096 28.624-.882 37.345.27 14.619 1.932 99.445 26.757 103.837 39.473l-1.221 1.995c-20.308 10.133-87.568 9.446-111.797 6.893-22.569-1.731-129.63-8.893-141.027-26.801-.148-2.19-.51-3.719 1.599-5.594 21.059-18.718 57.056-14.89 82.869-14.997 10.555-.044 19.064-.65 28.395-1.239m22.382 104.898c6.345-.613 20.857.069 27.864.383 39.539 1.772 80.096 7.471 119.246 13.276 5.585.828 23.332 3.325 27.977 4.709l.74 1.638c-50.319-.335-98.417-1.546-147.558-12.472-5.291-1.176-25.959-4.479-28.269-7.534m197.72-82.974c27.709-2.45 60.157-.321 87.442 3.729 4.331.643 13.862 1.327 17.291 3.187-3.564 1.85-12.339 2.102-16.677 2.47q-9.801.82-19.634 1.064c-13.108.338-74.904-.588-82.911-8.216l1.485-.946-1.214.988 1.219.509.985-1.81c2.135-.544 9.407-.822 12.014-.975m-44.436 43.976c11.807-2.131 104.144 3.829 108.265 11.249-3.957 1.701-9.299 1.361-13.727 1.397-42.479-.053-75.608-2.788-117.799-10.669 7.494-1.281 15.627-1.537 23.261-1.977m82.244 36.945c27.442-1.726 60.842 1.673 87.16 9.497-12.14 1.044-25.006 1.382-37.23 1.896-10.667-.073-78.748-3.172-84.401-7.796 5.583-2.947 27.11-3.26 34.471-3.597M422.8 554.431c23.285-2.844 109.052 6.424 128.47 15.117-21.874 1.912-111.719-5.941-128.47-15.117m400.778-83c17.771-1.546 54.588 2.323 72.616 5.066-6.748 1.765-11.579 2.226-18.457 3.004-15.433 2.503-53.595 2.343-67.63-4.556l-.134-1.443c3.778-2.094 9.155-1.88 13.605-2.071m-222.011-38.028c9.074-1.677 63.879 1.44 67.65 7.284-4.021 1.696-9.023 1.3-13.466 1.281-11.859.115-60.335-.224-67.959-4.619l.349-1.369c4.092-2.51 8.624-2.322 13.426-2.577m31.49 22.102c12.673.325 40.446 1.445 51.611 6.12l.007 1.12c-4.463 1.857-11.411 1.65-16.435 1.821-8.002 1.731-44.602-.428-51.237-5.459l.619-1.397c4.209-2.027 10.603-1.933 15.435-2.205m56.673 20.945c7.499-.535 36.565-1.073 40.645 5.186-2.708 2.092-3.96 1.569-7.834 1.999-7.434.396-34.543.38-39.178-4.939l.958-1.396zm-278.774-9.106a72 72 0 0 1 4.171-.122c6.557.022 33.714 1.862 38.297 6.417-2.36 2.083-4.469 1.618-8.183 2.038a79 79 0 0 1-12.507-.184c-5.593-.511-26.884-2.492-30.165-6.432 2.623-1.713 5.173-1.511 8.387-1.717m357.688-32.011c8.63-.862 38.509-.744 44.188 5.069l-.798 1.141-1.873.227c-8.109.894-39.935 2.595-43.726-4.681z"/><path fill="#fefefe" d="M1093.86 383.942c61.72 5.012 124.01 2.177 185.59 7.563 21.43 1.873 41.8 9.755 63.08 12.329 22.09 2.671 44.14.967 66.22 2.457 15.97 1.077 31.86 4.215 47.83 5.657 23.82 2.15 47.57 2.122 71.46 2.03 22.84-.088 128.84-8.963 142.7-.534 2.13 1.296 2.62 2.221 3.24 4.537l-.8 1.37c-4.8 3.872-19.42 2.099-26.12 2.162-17.35.146-34.7.615-52.03 1.406-26 1.443-74.88 6.837-100.75 12.189 26 2.553 72.6-3.254 100.51-5.189 28.45-1.973 49.77-1.932 78.19-1.742.96 31.898.16 64.764-.39 96.729-33.2 1.46-76.78 2.095-108.02 11.805-22.84 7.097-32.3 15.522-58.7 19.285-8.42 1.26-18.91.906-27.3 3.11-18.32 4.812-36.75 12.235-55.16 17.285-3.45.945-10.36 5.289-9.3 9.503 7.89 5.507 42.8-.77 53.83-1.286 17.52-.819 26.56-.689 43.39 5.449 24.54 8.953 54.35-2.855 79.51-3.798 26.91-1.136 53.61.761 80.15-2.464l.03 13.872c-18.25 4.957-46.24 1.575-65.35 3.506-12.38 1.162-24.75 6.08-37 7.674-44.61 5.808-88.39 11.707-133.45 7.229-29.26-2.909-58.25 15.648-87.19 18.507-21.82 2.156-43.83.564-65.73 1.265-18.59.657-37.33 3.469-55.92 2.03-20.21-3.256-30.81-7.989-52.86-9.401-2.48-10.329-4.2-25.22-5.8-36.018a1318 1318 0 0 0-8.75-51.478c-6.57-33.71-17.69-79.916-39.65-106.312-7.25-8.709-15.05-14.453-24.35-20.713-.96-7.947-.76-21.317-1.11-30.014"/><path d="M1399.7 469.353c21.15-4.533 31.02 10.29 47.48 20.009 2.35 1.389 4.9 3.641 7.04 5.385 6.05 19.411 16.69 14.269 22.82 27.364-.03 2.205.03 3.306-1.67 4.986-9.11 9.003-81.89 7.73-97.87 7.756-21.77.089-43.36-.054-65.04-1.939-16.72-1.453-18.55-9.867-9.12-22.38 4.96-6.587 11.44-10.815 18.03-15.897 6.18-4.771 13.39-10.532 20.22-14.499 15.79-6.142 41.16-8.447 58.11-10.785m-164.9 118.079c29.11-2.922 88.88 1.568 117.45 6.764-11.94 1.406-22.48 2.166-34.43 2.91-36.9 1.453-79.44.3-116-6.032 11.16-2.031 21.7-2.896 32.98-3.642m355.12-110.116c9.94-.663 37.02-2.032 45.63 1.335l.62 1.634c-2.3 2.548-5.48 2.751-9.01 3.547-7.01.618-43.64 2.316-46.22-3.914 2.72-2.15 5.45-2.115 8.98-2.602m-379.34 70.955c9.96-.494 55.51-2.61 59.74 4.715l-1.89 2.016c-9.72.226-55.27 1.869-59.7-5.386zm-26.19-41.866c5.88-.904 35.43-1.504 40.82 2.063l-.66 1.285c-3.88 2.139-8.91 2.102-13.4 2.428-18.39.308-31.39.136-49.66-2.29 9.12-2.231 13.56-2.695 22.9-3.486m9.41-47.053c9.66-.725 44.1-.829 52.41 1.653l.66 1.297c-2.62 1.906-1.83 1.309-5.63 1.511-7.98.851-16 1.285-24.03 1.302-6.09.061-24.9.645-28.83-3.201 2.29-2.303 1.79-1.611 5.42-2.562m348.73 45.071c5.72-.267 13.21-1.941 17.26 2.178l-1.29 1.595c-7.64 2.967-17.75 3.52-25.93 4.007-6.77.015-12.2-1.406-18.6-3.232l-.02-1.008c6.32-2.493 21.48-3.077 28.58-3.54m-10.83-45.846c4.44-.409 11.91-1.992 14.71 1.758l1.33-.839-.71.731.78-.352c-5.68 4.954-22.08 4.426-29.31 4.435-4.76.135-11.5.608-15.45-2.442 4.21-3.068 22.36-3.068 28.65-3.291m-298.8-20.179c7.6-.299 29.57-1.45 35.75 2.143l.05 1.41-2.93 1.358c-8.01 1.071-28.16 1.353-35.23-1.952l-.49-1.559z"/><path fill="#fefefe" d="M1486.02 666.584c8.57-1.155 31.37-.89 40.69-.686 51.06 1.118 93.53 7.564 145.09 3.888-.09 30.198 2.19 60.851 2.26 90.949.08 33.005-1.82 69.55-4.82 102.468-25.52-.426-51.43 2.051-76.92 1.964-24.88-.085-49.16-1.877-74.19-2.185-62.05-.764-125.78 1.539-187.63-.903-60.36-1.912-122.15-1.738-182.25-5.086-.56-35.799-5.73-83.2-8.18-120.341 43.21 1.007 92.83-22.581 136.41-33.506 40.38-10.121 72.83-11.776 112.21-18.73 36.48-6.44 57.03-14.726 97.33-17.832m-1109.218.674c52.324-.471 83.074 2.065 131.966 23.247 18.792 8.141 47.836 17.524 67.702 23.215 98.695 28.27 204.784 32.412 306.41 20.776 18.909-2.189 38.251-3.751 57.083-6.74.074 12.779 1.29 123.214.488 125.532l-2.201.821-299.925-3.982a2823 2823 0 0 1-58.629-1.518c-11.337-.324-30.492-1.49-40.857.664-9.312-14.39-113.136-156.583-118.239-158.424-5.887-2.125-37.79 11.661-44.56 14.215-.06-11.161-.195-26.955.762-37.806"/><path fill="#fefefe" d="M412.515 705.905c3.57-.153 4.68 1.381 6.755 4.17 11.509 15.47 22.583 31.245 34.117 46.701l99.743 133.873c-43.433 4.205-92.755 40.981-124.523 69.007l-8.253 6.89c-4.279-8.409-16.499-23.644-22.454-31.934-36.398-50.664-68.82-104.066-103.582-155.639 35.514-36.635 70.674-56.327 118.197-73.068M134.48 721.374c48.3-7.439 108.578 30.53 144.373 59.768 2.769 2.262 14.26 21.161 17.051 25.597q12.227 19.501 24.798 38.783c15.395 23.957 28.511 43.201 45.134 66.201 12.972 17.949 24.578 37.926 38.055 56.372l-20.647-4.663c-41.75-12.951-88.934-16.325-131.708-6.798-4.754-12.243-15.709-27.377-22.621-39.213-15.69-26.317-29.982-53.569-47.763-78.586-3.95-5.557-9.511-11.252-13.03-16.916-19.583-31.515-37.733-65.173-54.369-98.219zm242.118-104.028c18.64 5.518 44.138 8.379 63.519 9.55 11.281.681 27.557-.235 38.293 1.826 23.373 4.487 43.521 14.787 67.798 18.94 23.763 4.065 45.892 4.808 69.822 7.121 26.344 2.548 53.013 7.749 79.104 9.974 28.85 2.459 61.012.819 90.143 1.094 20.913.197 43.407-7.472 63.928-11.243 14.945-2.746 25.98-2.941 41.104-2.711 3.355 14.521 8.748 13.905 21.623 18.589 2.265 11.28 6.605 31.092 15.372 38.609 4.653 3.989 8.331 3.552 13.962 3.209-4.132 4.931-57.903 8.133-68.047 9.306C761.97 734.468 645 724.615 539.068 687.423c-31.732-11.141-62.646-26.509-96.153-31.997-21.447-3.484-44.458-2.627-66.145-2.551-.272-12.024-.573-23.487-.172-35.529m1289.902-3.878c2.79-.387 1.85-.62 4.27.367 2.41 6.011 1.05 34.331.88 42.123-65.38 6.977-133.55-9.863-200.09-2.812-31.38 3.325-56.84 11.661-86.97 17.148-38.27 6.454-75.85 10.117-113.52 19.62-21.29 5.369-117.48 41.528-131.82 31.566l-.01-3.25c-1.06-7.661-1.14-13.528-1.31-21.265 22.95 16.405 25.09-24.305 25.26-37.601l14.18-5.921c-.87-3.973-1.37-8.503-1.91-12.576 18.35 2.178 35.77 8.179 52.81 10.333 13.32 1.683 38.53-.841 53.13-1.077 23.95-.388 48.69.861 72.32-2.159 23.38-3.547 45.38-14.814 68.79-17.596 11.6-1.379 24.04.516 35.72.99 10.37.421 20.94.654 31.32-.283 26.72-2.412 53.49-4.533 80.07-8.208 13.3-1.839 26.85-6.553 40.26-8.134 19.7-.628 36.29.24 56.62-1.265m-689.534-190.41c.964 1.598-.792 3.832-1.908 5.471-44.032 64.674-25.895 161.809-27.088 236.389-12.815-1.363-22.304-2.956-34.631-6.534l-10.52-3.359c3.422-46.294 12.715-97.586 21.12-143.462 8.348-45.563 15.778-63.333 53.027-88.505m266.494-39.943c26.75-5.766 53.46-3.053 80.33-2.299 19.61.55 39.04-.388 58.89.482 17.03.747 36.56 4.564 53.01 4.946 38.3.892 77.14 1.217 115.47 1.159 10.59-.016 26.1 4.628 36.8 4.301 15.33-.47 31.34-3.445 46.73-5.193 12.16-1.383 25.11-1.08 36.9-2.371l.58 17.451a3614 3614 0 0 1-191.05-.099c-18.4-.659-37.71-3.274-56.48-4.407-24.25-1.463-56.82 2.293-79.62.796-31.99-2.1-61.61-13.847-96.78-12.893zm-152.24 41.351c52.89 20.446 64.41 172.742 74.69 223.287l-7.15 2.693a163 163 0 0 0-28.2 10.955c-1.17-16.245-2.76-32.475-3.38-48.762-1.63-43.371-1.34-89.522-13.14-131.593-4.85-17.305-15.45-39.379-22.82-56.58m-382.887-51.211c5.584-.556 19.599 1.221 26.151 1.373 16.244.376 39.863-2.176 54.693 5.219a392.6 392.6 0 0 0-78.181 7.779c-14.767 2.843-29.389 7.262-44.277 8.495-20.593 2.572-43.943-4.059-63.856-2.914-50.331 2.893-99.015 4.594-149.455 4.695a2035 2035 0 0 0-77.412-1.165l.148-15.089c37.147 8.829 55.996 5.822 93.282.681 8.469-1.168 26.085 1.322 35.588.966 26.927-1.006 54.262.605 81.118-1.401 11.249-.538 26.732-5.895 37.663-5.515 31.163 1.081 53.317 2.996 84.538-3.124"/><path fill="#fefefe" d="M91.316 843.862c2.6.216 3.6.164 5.65 2.585 14.425 17.021 27.345 36.18 40.401 54.156l75.785 104.357c8.31 11.55 22.048 35.26 33.167 43.4 4.339 3.18 7.515-6.57 17.598-9.92 35.009-11.65 68.21-26.09 103.514-37.26-4.881 3.38-8.972 5.62-14.122 8.46-32.483 17.72-69.444 38.51-103.195 53.65-6.991-12.21-18.889-27.77-27.4-39.41a2060 2060 0 0 0-55.254-72.843c-8.376-10.723-74.85-100.521-76.145-107.175"/><path fill="#fefefe" d="M301.783 964.458c30.651-1.372 73.454 11.661 104.537 18.63-7.624 4.488-13.071 7.224-21.178 10.572-9.342-3.839-24.221-6.059-35.466-10.024-33.849-6.913-62.61-1.983-95.17 6.204-3.517-7.56-5.675-11.016-10.284-18.005 21.481-4.842 35.662-6.943 57.561-7.377"/><path fill="#fefefe" d="M112.581 792.35c4.912 4.771 14.074 20.207 17.741 26.615 36.126 63.145 78.448 121.929 116.752 183.605 2.902.84 7.232 1.63 10.313 2.27 5.381-2.2 14.069-4.68 19.857-5.221-1.24 1.581-6.699 3.441-8.982 4.391-5.572 1.95-11.352 4.48-16.83 6.76-9.796-13.193-18.576-26.062-27.836-39.571-40.492-59.069-84.97-115.316-125.526-174.324 5.551-2.349 8.734-3.09 14.511-4.525m897.499-411.892c21.35 18.245 31.22 23.825 57.41 33.386-7.72 5.488-12.58 7.779-21.19 10.948-19.38 5.464-38.07 4.827-53.793-9.204a55 55 0 0 0 4.081-3.185c10.642-9.152 12.512-18.669 13.492-31.945"/><path fill="#fefefe" d="M112.131 759.369c1.035.237 5.83 1.689 6.308 2.618 27.828 54.128 65.172 101.492 94.392 154.902 4.482 8.193 23.153 35.778 23.909 41.633l-.869.718c-33.364-49.129-65.532-98.825-96.386-149.559-4.628-7.61-28.418-42.814-29.381-47.649zM553.92 904.49c.583-.087 2.063.05 2.629.082-.195.328-93.666 48.968-104.08 54.545l-1.731.78-.047-.951c22.515-21.735 72.133-51.209 103.229-54.456M98.56 822.027c6.253 3.207 93.65 126.941 104.896 143.677l-.01 1.652c-2.436-.867-101.16-134.563-104.887-145.329m230.816 177.274.331.05.316.669c-12.413 5.68-54.054 20.39-66.813 23.62-1.707.13-.964.36-2.301-.69l.751-1.55c18.881-8.87 47.342-18.92 67.716-22.099m592.837-326.632c3.916.37 9.082.358 12.046 2.665 4.458 5.833 1.779 14.57.75 22.41l-1.315.806c-4.394-4.152-9.187-19.402-11.481-25.881m229.808-8.445c2.71 3.211-.21 21.247-4.5 24.604l-1.72-1.296c-3.7-6.829-4.6-11.195-6.57-18.671 4.64-1.309 8.35-2.85 12.79-4.637"/><path fill="#fefefe" d="M203.446 967.356c4.615 2.519 39.755 54.584 44.77 61.894l-.682.75c-4.321-3.73-44.041-59.625-44.088-62.644"/><path fill="#717073" d="M1248.24 384.988c-6.36.12-13.7.685-19.63-1.301 4.72-1.253 9.93-.753 14.85-.572z"/></svg>