<svg xmlns="http://www.w3.org/2000/svg" preserveAspectRatio="xMidYMid meet" viewBox="0 0 2048 2048"><path d="M1049.51 131.431c20.53-.802 41.07-.58 61.58.664 209.16 12.031 380.43 90.852 519.84 247.433a1115.7 1115.7 0 0 1 169.44 251.811c16.41 33.077 34.47 72.072 47.59 106.688A909 909 0 0 1 1904.24 1114c-15.73 229-120.36 442.79-291.56 595.71-188.99 168.13-406.15 238.86-657.929 224.11-407.607-29.26-721.501-303.15-797.265-701.78-2.72-14.31-1.938-28.36-6.714-42.01-2.677-7.65 2.175-8.63 1.869-14.48l-3.247-.02c-1.122-2.24-1.087-2.06-.908-4.56l2.177.59c1.964-2.52-5.573-17.47-6.15-21.97-1.939-15.18-2.906-30.86-3.256-46.18-.033-1.43 2.121-6.44 2.621-8.06-.81-1.02-1.62-2.05-2.43-3.07-.737-9.72-1.48-23.5-2.06-32.74-.117-1.86 2.481.94 1.932-8.37-1.749-29.61 2.068-59.39 5.026-88.806 8.843-87.939 35.797-173.341 72.72-253.362 5.486-11.89 13.655-30.536 20.063-41.565 35.453-61.014 76.329-120.832 122.211-174.497 12.272-14.354 23.667-30.22 36.35-43.995 40.675-44.175 80.532-85.179 127.079-123.305 24.695-20.226 45.382-33.485 71.171-50.892 139.412-94.099 286.764-135.164 453.57-143.317"/><path fill="#fefefe" d="M1019.23 173.606c6.88 1.8 36.03-.227 45.36-.483 11.82-.253 23.66-.143 35.48.329a788 788 0 0 1 197.33 33.816c46.49 14.09 83.55 30.253 125.83 54.289 11.3 6.425 26.89 12.088 37.46 19.913 12.71 9.401 25.49 20.258 37.94 30.178 23.96 19.094 48.56 40.359 70.67 61.546 11.93 11.435 24.32 26.561 35.48 39.059a1006.5 1006.5 0 0 1 197.95 327.253c11.4 31.343 21.38 62.707 29.1 95.125 1.76 7.387 9.19 10.448 5.55 22.1.32 2.61 2.51 7.091 2.76 9.461 1.62 15.292-.19 33.578 7.53 47.017-.92 1.924-1.17 2.185-2.54 3.77 1.91 10.573 3.32 21.895 5.27 32.556.46 2.504-2.43 17.091-1.41 18.454 6.4 8.514 2.61 4.126.9 9.456 4.52 8.806 1.26 5.21.54 13.309 3.37-.282 2.54-.733 5.21.446l-.21 1.033-4.01 1.464-.62 1.797 1.09 1.845 4.51 1.122.1 1.349c-3.16-.217-3.76-.856-5.83.53.54 4.22-.16 3.47 2.1 6.4l2.27-1.15.87.37-.69 2.69c-2.13 2.19-2.66 2.5-4.12 5.23l2.22 7.15-2.1 2.37c-.94 4.41 2.15 5.67 2.02 7.12-.39 4.44-2.77 10.48-1.82 14.94l5.36 1.63c2.34 2.5 1.59 1.02 1.92 4.77-.95-2.5-.22-1.49-2.51-2.88-3.86.01-2.55-.75-4.79 1.17-2.64 18.98.04 36.86-4.51 55.33-.4 1.64 1.1 6.74 1.69 8.42-.1.3-.21.6-.31.9l-.5 1.49c-4 11.92-4.38 25.15-6.65 37.8-4.36 25.33-9.63 50.5-15.8 75.46-7.36 29.92-15.89 55.27-26.49 84.15-31.2 85-71.28 163.23-127.26 234.94-3.95-27.42-6.81-55.9-11.92-83.09-6.56-34.91-16.22-69.63-24.78-104.07-.32-1.31 1.59-7.78 2.1-9.54-9.76-29.42-21.83-64.45-32.87-93.63-20.76-54.9-48.07-123.28-89.76-164.9-28.26-26.32-62.86-43.03-98.95-55.64-28.19-9.81-58.73-13.92-87.05-22.1-8.56-2.47-28.01-15.39-38.42-20.076-3.47 6.816-7.43 19.086-10.31 26.716-5.31 13.81-10.7 27.57-16.18 41.3l-54.33 139.99c-11.15 28.7-20.82 55.91-33.83 84.12-14.35 31.11-29.94 57.09-47.89 85.92a1562 1562 0 0 1-90.13 130.74c-15.39 20.03-34.33 45.3-52.191 63.08-31.898 31.75-67.046 60.63-99.93 91.85-22.72 21.56-40.669 46.41-60.332 66.51-24.563 25.1-80.305 59.77-110.735 77.57 96.319 37.05 181.254 51.82 283.977 54.2 19.741-25.96 41.891-67.41 57.931-96.89a2108 2108 0 0 0 125.54-269.14c12.87-34.04 24.21-70.86 35.71-105.55 4.53-13.68 7.68-29.32 11.99-43.2 1.25-4.02 1.22-4.05 4.07-5.97 3.23-.27 3.71-.58 6.72.66 6.46 7.55-7.38 40.18-10.23 50.36-47.11 168.02-126.35 321.55-214.77 470.93 53.68.7 129.25-4.18 180.73-15.9 56.79-121.61 97.04-254.63 126.93-385.08 1.29-5.63 1.62-11.14 8.4-11.3 3.29 1.53 3.25 1.27 5.16 4.28 2.47 10.18-21.27 94.2-25.49 110.63-24.53 95.57-60.08 188.21-98.66 278.86 22.96-4.46 45.72-9.9 68.22-16.3 9.03-2.55 45.99-16.06 52.45-12.31 1.55 2.79 1.44 2.58 1.26 5.79-.68 1.41-1.8 3.55-3.21 4.14-15.79 6.6-42.94 13.96-58.94 18.4a949.2 949.2 0 0 1-450.428 10.83c-55.022-12.28-134.995-39.24-184.856-65.39l-.143-1.37c4.715-2.61 9.445-3.42 14.702-4.71-12.341-75-24.831-147.04-30.744-222.86-4.231-54.26-10.666-108.1-7.9-162.77.513-10.15-1.139-36.46 8.924-40.66 4.146.31 2.278-.33 5.768 2.12 3.021 4.46 1.148 13.84.623 19.28-2.077 21.5-1.538 42.87-.962 64.41 1.47 48.03 4.821 95.99 10.045 143.77 2.633 26 5.023 52.04 8.857 77.89 5.048 34.05 11.97 67.79 17.04 101.83 1.036 6.96 2.139 13.89 2.269 20.94a1227 1227 0 0 0 33.469 14.11c9.116-5.98 19.706-11.18 28.917-17.01 23.079-14.61 49.731-31.13 70.632-48.75 27.031-22.79 49.067-52.72 74.699-78.7 32.458-32.9 69.042-61.73 101.043-93.71 25.175-25.17 56.705-68.3 78.105-97.42 39.92-54.32 80.15-115.33 109.44-176.22 15.05-31.28 27.68-66.82 40.2-99.35l47.72-123.24c9.47-24.35 17.38-47.26 28.32-71.027-3.91-1.464-13.27-3.73-16.11-5.503-35.81-22.352-50.01-36.737-75.65 10.077-5.03-5.48-8.48-10.233-10.07-17.63-4.54-21.096-8.83-46.207-4.68-67.546 36.34-39.764 62.89-76.782 71.31-132.215 20.52 3.623 41.96-4.832 43.53-27.242.95-13.463-2.02-23.494-1.39-36.455.36-7.408 8.22-17.881 11.03-24.706 12.83-26.248 7.94-47.949-16.78-63.702 3.17-33.67 4.25-59.942-1.84-93.544a246.3 246.3 0 0 0-101.29-157.207c-29.49-20.334-78.91-40.075-114.73-44.828-186.9-24.802-341.071 114.44-303.358 307.968-39.791 19.77-26.114 53.03-10.629 82.759 9.123 17.516-1.728 49.511 18.569 64.216 8.772 6.355 22.193 8.314 32.419 6.788 15.521 62.698 31.429 89.009 80.898 130.249 2.75 16.471 3.278 51.296 1.19 68.154a1832 1832 0 0 1-127.932 43.124c-77.063 23.18-156.892 40.37-218.862 95.32-53.196 47.18-63.722 105.6-78.398 170.78-12.719 56.5-20.574 110.66-28.887 167.91-7.338 50.52-12.772 97.08-15.677 148.17-26.304-30.52-49.498-60.22-72.447-93.34-19.041-27.49-32.657-56.84-49.457-85.41-3.918-6.66-7.903-12.3-10.205-19.81-2.791 2.35-2.85 2.51-6.291 4.18l-.666-.83c2.859-2.98 3.424-3.34 5.15-6.98-.028-3.98-4.558-9.32-7.068-13.29-.117-16.42-4.588-6.46-11.454-7.96-2.101-2.8-1.912-2.94-2.479-6.27 3.529-.46 3.955 3 9.399 3.41.248-3.36-13.858-36.78-17.918-38.45l-4.13 1.8.186-1.08 5.192-3.67c-1.875-4.33-3.057-7.71-4.552-12.2-2.439-.1-1.604.11-3.854-.78-.571-11.98-7.3-27.53-11.292-39.04-24.146-69.63-37.608-140.07-44.089-213.49-4.575-51.84 1.076-96.796 8.273-147.929 24.11-171.289 114.601-317.532 226.199-446.067A1165 1165 0 0 1 545.8 364.811c8.714-7.278 16.675-15.292 25.598-22.358 89.962-71.242 196.775-118.489 308.134-144.675 46.91-11.03 90.941-20.822 139.698-24.172"/><path fill="#fefefe" d="M1102.18 443.346c37.04-4.164 87.79 22.313 84.25 65.193-1.19 14.406-2.63 26.027-.57 40.502 4.3 30.315 19.37 59.229 43.9 77.952 1.64 62.233 9.37 141.124-16.43 197.614-48.59 106.339-166.67 164.455-276.594 116.078-15.759-6.861-34.012-17.849-47.742-28.271-56.306-42.741-74.366-97.169-83.742-164.475-4.353-31.248-6.229-65.381-2.723-96.961 1.591-14.325 13.222-23.873 20.816-35.976 5.873-9.496 14.801-23.93 17.337-34.777 11.825-50.577-21.458-87.796 37.463-120.901 48.998-27.53 87.694 6.56 139.365 3.624 31.57-1.794 54.54-15.55 84.67-19.602"/><path d="M899.143 601.391c26.155-1.803 52.281 3.816 75.051 18.91 2.409 1.597 3.58 3.934 3.826 6.821-1.041 3.641-1.421 3.601-4.138 6.134-4.981 1.252-33.026-11.099-42.125-13.433-18.166-3.771-34.93-3.82-52.993 1.063-7.152 1.933-18.879 8.253-25.33 7.497-21.07-15.113 37.338-26.143 45.709-26.992m164.777 233.912c6.76-.97 19.18-1.095 20.15 7.866-4.53 10.139-17.24 6.89-26.49 9.78-34.41 10.752-54.55 10.65-88.335-.961-4.38-.652-24.743 6.214-17.306-10.571 11.001-11.436 47.434 7.068 66.591 4.082 16.24-2.531 30.21-7.54 45.39-10.196m51.74-239.903c16.29-1.452 55.42.131 65.53 17.434 1.19 2.041.7 2.383-.09 4.211-9.85 6.32-28.62-5.973-42.13-6.718-13.05-.72-15.53-.96-29.16.941-24.31 2.665-37.52 15.82-51.67 18.59-3.11-1.022-2.88-.99-4.97-3.565-1.69-19.716 48.33-29.398 62.49-30.893m-1.16 58.974c11.92-.778 35.4 4.563 41.65 15.6l-.47 1.498c-6.27 2.404-17.23-1.969-23.87-4.006 1.33 11.483 4.12 18.791-8.64 24.329-19.78 2.204-23.11-6.925-22.12-24.414-5.49 1.742-17.14 6.769-21.89 2.949l.59-2.219c8.73-9.299 22.46-12.677 34.75-13.737m-202.287 5.977c10.161-.435 35.614 4.06 38.872 14.942l-1.76 1.327c-5.411.703-9.962-1.159-15.316-2.689.219 12.784-.212 18.545-12.869 24.062-16.021 3.284-21.763-7.637-22.203-21.896-4.992 1.114-12.984 4.003-17.246.745-.975-9.51 22.625-15.591 30.522-16.491m80.329 21.343c10.788.123 9.648 8.594 10.208 17.885 1.16 19.259 2.55 39.165 2.21 58.482-.06 3.38-2.68 4.399-4.74 6.001-4.892-.337-4.959-.012-8.225-2.721-3.993-9.158-4.327-56.236-4.34-68.548-.006-5.675.844-7.557 4.887-11.099m57.468 105.447c5.14-.435 10.77-1.098 12.05 4.956-2.97 9.296-18.3 12.997-26.82 15.196-12.98 3.351-24.41 2.813-37.305-.181-5.62-2.078-10.704-5.33-11.481-11.879 4.686-7.575 15.876-2.821 23.296-1.232 13.41 2.871 27.44-3.05 40.26-6.86m-6.59 85.014c8.47-.473 8.86 9.349.85 13.225-14.52 7.024-32.74 5.945-47.945 1.931-2.153-.91-2.987-1.521-4.97-2.792-1.778-3.11-2.186-3.272-2.31-6.909 1.065-1.533 2.292-3.433 4.561-3.161 18.914 2.263 31.054 2.057 49.814-2.294"/><path fill="#fefefe" d="M756.012 1112.92c3.996 3.35 12.078 21.02 15.895 26.45 62.639 89.11 143.369 180.81 234.213 240.76-7.134 13.64-22.064 34.18-31.162 46.86-35.473 49.42-82.926 102.94-130.523 141.5-46.766 37.45-84.865 62.81-140.364 87.54-5.427-33.39-7.594-74.02-10.894-108.44a3543 3543 0 0 1-10.72-132.31c-4.079-59.57-7.613-126.36.811-185.72 8.578-60.44 26.052-82.38 72.744-116.64"/><path fill="#fefefe" d="M821.986 1068.83c2.405.57 12.15 9.61 14.974 11.79 72.258 55.71 179.35 57.85 265.51 40.24 13.59-2.77 29.59-8.89 42.79-13.7-17.6 70.12-55.66 135.57-92.69 196.92-12.94 20.82-25.41 42.51-38.35 63.54-91.219-57.95-189.489-171.36-246.416-262.75 10.603-9.63 40.326-26.99 54.182-36.04"/><path fill="#fefefe" d="M1153.18 924.809c2.53 1.146 1.38 5.359 1.87 9.714 3.19 28.135 1.97 57.051 23.87 77.317-3.74 10.9-9.01 22.17-13.05 33.19-5.31 14.49-9.77 30.15-16.21 44.05a470 470 0 0 1-40.46 14.15c-58.6 17.18-131.382 17.64-190.177.64-21.984-6.35-37.785-13.83-57.492-24.57-10.121-5.89-17.444-12-26.609-19.21 16.643-14.42 45.229-31.09 54.535-51.01 8.868-18.978 6.417-52.866 5.494-73.57a242.2 242.2 0 0 0 95.89 36.179c61.139 8.691 114.149-10.366 162.339-46.88m222 245.791c2.68.07 4.53-.06 6.84 1.57 2.56 1.8 3.05 5 3.1 7.85.65 35.57-26.78 218.1-42.85 235.77-1.78-.01-3.23-.01-4.88-.83-2.23-1.11-3.27-2.76-3.78-5.16-.92-4.36 10.71-44.79 12.61-52.85 10.31-43.76 16.15-87.34 21.18-132 1.73-15.37 1.86-31.51 4.24-46.71.48-3.01 1.79-5.19 3.54-7.64m159.25 319.01c1.8.3 6.62.96 7.16 2.06 3.54 7.25 4.68 32.91 5.3 40.28 2 23.25 3.81 46.52 5.44 69.79 1.53 21.51 3.19 43.98 4.4 65.6.18 3.12-1.59 5.3-3.4 7.77-4.63.29-6.35.61-9.89-2.6-2.81-9.32-5.4-68.12-6.49-82.41-2.24-29.14-4.79-62.29-6.22-91.71-.25-5.26.58-5.53 3.7-8.78m-93.84 78.97c1.62.04 10.81.11 10.82 2.99.26 54.54-9.35 109.98-13.83 164.55-.67 8.17-1.86 21.97-4.79 29.33-3.94.64-5.63 1.16-9.03-.88-1.98-3.68-1.79-4.04-1.38-8.46 4.62-50.89 10.57-101.66 14.88-152.57.97-11.55 1.29-23.58 3.33-34.96m-863.957 10.04c4.733.15 7.903-.42 10.343 3.97.109 12.54-1.526 27.75-2.382 40.58-1.637 24-3.089 48.01-4.354 72.04-.863 16.89-1.078 33.75-1.766 50.63-.058 1.41-3.088 4.68-4.109 5.82-3.104-.07-8.669-.17-9.142-4.47-.426-5.86-.863-17.32-.169-22.88 2.985-23.89 2.735-130.54 11.579-145.69m667.747-942.841c14.41-.16 37.04 4.571 40.83 21.209 6.11 26.893-19.76 41.138-16.89 67.902.88 8.124 3.31 26.893-1.15 34.198-2.63 3.271-6.99 4.061-10.92 4.937-4.26.004-8.8-.24-13.08-.392 1.47-17.831 4.95-14.779 3.45-37.506 20.02-20.481 52.27-74.22-1.36-73.15-.76-6.409-.8-10.762-.88-17.198m-475.55 16.593c5.062-.468 13.115-.425 18.431-.539-.062 3.795-.009 5.048-.806 8.703-5.473 7.666-16.85 4.372-23.542 9.496-12.797 9.802-5.835 25.366 2.85 35.199 2.442 2.766 9.066 10.019 13.169 9.876 2.188-.076 4.129-1.347 7.435-1.046a34 34 0 0 1 1.226 15.901l-1.269.473c-2.878-3.244-4.688-6.66-9.061-5.979-12.106 10.054 2.551 20.569 12.25 24.159 1.845 2.839 5.154 23.656 6.166 28.819-4.239.014-14.007.164-17.773-1.784-14.928-7.72-8.991-36.34-14.161-51.239-3.117-10.823-9.026-20.555-12.823-31.165-6.888-19.251-1.687-34.351 17.908-40.874M525.4 1565.72c2.859.26 9.537.77 9.364 4.45-.454 9.65-2.39 19.85-3.902 29.41l-9.543 60.87c-2.113 14.34-3.64 29.22-5.909 43.53-.407 2.57-1.799 4.11-3.466 6.01-5.509-.35-9.445-3.25-8.897-9.07 4.074-43.33 10.574-87 18.726-129.74.427-2.24 2.119-3.95 3.627-5.46"/><path fill="#fefefe" d="M1247.73 668.478c6.34.264 8.65-.72 12.43 4.631 1.26 6.868-4.59 14.906-8.22 21.416l-4.88 9.027c.29-7.702-.48-29.063.67-35.074m-465.135 9.796 1.173.03c1.898 3.174 2.243 20.461.277 22.759l-5.486-4.255c-4.537-4.9-8.93-8.714-6.2-15.392 3.093-2.771 5.915-2.589 10.236-3.142"/><path fill="#7d7e81" d="M836.388 199.841c.887.03 1.59.364 2.49.655-2.793 2.285-10.163 4.125-13.958 5.35-33.756 10.898-65.996 25.407-98.586 39.242-.683.077-1.987-.088-2.733-.148l-.162-1.323c8.172-1.768 41.216-16.733 51.236-21.219 19.944-8.927 43.18-14.572 61.713-22.557"/></svg>