<svg xmlns="http://www.w3.org/2000/svg" preserveAspectRatio="xMidYMid meet" viewBox="0 0 2048 1462"><path d="M1015.56 460.056c6.19-9.774 20.95-26.94 28.56-36.145 21.07-25.499 42.93-50.519 64.34-75.765 29.99-35.379 54.22-74.927 86.31-108.373a321 321 0 0 1 25.98-23.966c48-40.229 99.69-77.459 147.97-117.522 4.88-6.635 23.44-8.686 23.55 1.708.14 12.845-40.22 39.295-48.96 46.296a4767 4767 0 0 1-66.08 52.3c-22.32 17.45-45.52 34.815-65.5 54.941-27.8 28.007-49.92 62.185-74.27 93.104-17.47 22.18-37.59 43.464-54.97 65.7 9.03 19.406 2.86 36.476-10.62 52.625-11.58 13.875-26.9 16.069-44.18 17.111-2.78 3.23-6.01 6.605-8.92 9.763 131.77 51.712 148.15-112.816 250.93-109.895 3.49-10.238 6.8-21.999 12.32-31.153 3.93-6.529 10.89-8.415 16.9-3.514 7.26 5.915.79 16.958-1.78 23.787-14.73 39.034-28.87 78.422-46.35 116.317-35.25 73.538-75.23 145.31-107.14 220.491-6.58 15.508-15.19 31.834-19.09 48.181-.92 3.874.51 15.543.86 20.212 3.41-21.753 16.43-47.589 38.46-55.12 19.06-6.516 33.09 8.676 38.4 25.271 13.72-20.569 27.35-43.02 40.88-63.947q48.57-74.022 96.3-148.585c9.47-14.631 18.9-29.25 28.24-43.957 5.3-8.341 12.58-24.573 24.03-23.835 12.21 5.227 2.36 22.943-2.7 30.099-10.03 14.192-19.23 29.245-28.67 43.867l-110.97 171.614a3039 3039 0 0 0-35.13 55.415c-14.7 23.323-19.49 25.395-22.85 52.878 14.58-23.83 30.01-52.206 62.61-33.601 11.05 6.308 13.71 13.612 17.04 25.434 13.02-12.65 21.29-37.912 29.4-55.268a605 605 0 0 1 20-38.701 1210 1210 0 0 1 47.51-78.896c32.6-50.332 70.82-97.918 103.89-148.051 9.59-14.533 28.66-4.568 15.09 15.464-8.91 13.149-18.64 27.112-27.92 40.159l-56.36 78.587c-28.95 40.789-65.68 102.475-87.33 147.055 18.94-6.036 37.84-9.353 44.72 15.207 1.6 5.717.05 10.608 1.57 16.057 2.21.067 3.05-.955 4.52-3.329 18.81-29.931 34-63.077 52.59-92.994 43.14-69.414 88.64-137.431 131.09-207.308 1.08-1.771 3.19-3.333 5.07-4.134a12.08 12.08 0 0 1 9.38.05c14.09 6.158-1.71 23.082-5.88 29.933-6.03 9.916-11.92 19.886-18.01 29.78a6900 6900 0 0 1-67.35 105.917c-13.78 21.201-31.6 47.146-43.52 68.832 21.67 4.839 26.28 15.707 24.64 36.818 14.49-21.541 31.24-51.738 44.02-74.51l44.83-78.378a3858 3858 0 0 1 42.69-70.439c10.2-16.635 28.55-43.287 32.98-60.958 6.01-24.023 3-60.479 3.36-86.105.85-61.37-6.28-120.299 24.56-176.547 9.91-18.07 22.61-36.184 34.18-53.15l28.07-41.351c4.1-6.081 15.45-27.459 25.36-28.057 5.67.047 10.06 6.968 8.33 12.343-3.99 12.349-13.4 24.594-20.55 35.404a5766 5766 0 0 1-33.08 49.557c-6.73 9.954-13.42 19.807-19.78 29.985-28.17 45.09-25.43 98.176-25.41 149.041.01 33.419.82 67.684-.89 100.929 20.66.107 42.23 1.352 62.97 1.854l136.91 3.398q28.035 1.028 56.07 1.565c12.75.197 35.48-1.803 47.07 4.553 5.55 3.046 3.19 14.232-.35 16.158-7.78 4.22-28.86 2.243-38.33 2.094q-32.655-.528-65.31-1.447c-68.22-2.323-136.46-4.137-204.71-5.442-12.49 26.228-30.02 51.307-44.71 76.382-4.99 8.501-13.85 21.404-17.6 30.075 28.14 2.358 69.62 1.64 99.35 2.337l183.06 5.602 52.58 1.788c7.13.202 33.33-.776 37.27 4.823 6.71 9.525 1.22 20.56-12.4 18.898-16.86 12.848-39.93 25.36-58.92 34.941 4.83 4.365 59.48-1.109 66.44 4.62 2.71 2.225 1.35 36.993 1.41 42.73l.65 165.613c.24 46.439 1.58 92.889 1.29 139.314-.12 18.14-3.56 16.48-19.1 16.11l-798.22-23.42c-10.77 17.24-24.26 36.43-35.67 53.5l-73.31 108.84c-43.319 63.62-86.158 127.6-129.369 191.29-2.722 4.01-5.27 8.71-9.623 9.21-10.018 1.15-20.554.66-30.597.46l-60.505-1.71c-43.104-.86-86.202-1.98-129.293-3.37-21.769-.58-44.276.16-65.936-1.94-4.151-.4-8.281-1.17-11.626-3.84-2.819-2.26-3.444-4.77-3.924-8.22-2.138-15.38-4.583-182.78-2.46-189.78 3.938-13 38.042-55.86 48.323-70.13 25.104-34.82 49.206-70.32 75.474-104.31l-17.49-.804c-19-1.677-46.711-1.135-66.59-1.721l-364.766-9.921-87.957-2.733c-15.166-.364-30.821-.866-45.963-.747-16.193.128-14.608-21.465-1.91-21.735 16.971-.361 34.447.521 51.459 1.023q44.572 1.34 89.157 2.104c16.026.365 35.383 1.476 51.068.857a455.5 455.5 0 0 0-121.104-23.58c-18.554-1.149-37.394-.863-55.958-2.385-4.032-.33-9.057-1.907-8.301-6.781 3.784-3.649 24.114-1.791 29.813-1.716 44.117.173 86.987 6.288 129.904 15.744 19.323 4.257 56.495 19.711 73.939 20.285 49.815 1.637 104.732 3.908 154.178 4.636-12.566-3.327-26.289-4.876-39.119-7.277-47.453-8.881-95.495-14.991-142.854-24.424-20.57-4.097-39.79-11.156-59.825-17.026-28.579-8.373-127.179-34.377-143.341-55.039-1.85-2.366-2.398-4.02-1.971-6.901 3.754-1.625 8.008 1.122 11.269 3.134 46.557 28.514 99.591 37.952 150.964 53.947 62.629 19.5 130.146 25.856 194.781 37.495a1687 1687 0 0 1 47.46 8.993c13.981 2.906 27.905 6.293 42.095 7.922 10.176 1.168 20.803.719 30.821 1.492 37.319 2.876 74.979 1.827 112.201 3.705 6.404-7.903 13.028-16.937 19.259-25.075-19.74 3.874-56.539 7.215-76.898 6.536-18.477-.616-42.798-10.103-63.229-12.803-41.641-5.504-82.478-8.42-124.121-14.128-40.348-5.531-77.047-15.438-116.248-23.083-13.781 13.619-24.743 11.718-37.868-.976-8.112-24.235 11.757-39.906 33.094-27.026 7.557 4.563 8.408 10.704 9.728 18.807 41.513 9.14 78.669 18.191 121.144 23.638 39.183 5.025 77.833 8.405 116.98 13.149 21.154 2.563 43.775 12.627 64.994 13.267 24.865.75 52.713-5.505 76.487-8.009l.907-.088a559 559 0 0 0 23.682-31.948c-9.667-.469-23.615.495-33.609.851l-68.523 2.803c-67.367 2.53-150.804-2.087-216.712-17.882-34.916-8.368-58.411-39.82-90.027-48.292-36.392-9.751-41.334 21.51-56.209 32.016-13.596 9.602-87.052-25.316-101.706-33.941-11.498-6.092-21.268-15.192-33.15-20.551-14.186-6.399-40.661 8.709-40.206-15.226 1.044-54.977.152-110.159 1.057-165.154.065-3.943.674-8.053 2.089-11.743 3.528-2.114 19.509-.273 24.567.103 17.407-11.991 39.302-22.923 60.14-26.373 2.434-5.848 4.76-11.982 7.096-17.893-16.683-1.399-22.071.415-36.535 8.581-11.895 6.717-43.609 23.208-56.202 19.223-2.3-2.631-1.758-1.159-1.887-4.484 4.503-6.516 19.094-5.569 29.43-10.305 10.383-4.757 19.133-9.934 29.194-14.624a1136 1136 0 0 0-34.377-1.327c-5.677-.077-42.559 4.17-27.758-19.183 3.53-5.569 33.72-2.699 43.02-2.317l62.808 2.448c2.275-4.92 4.473-10.067 6.391-15.138 9.511-25.156 21.152-50.221 29.85-75.627-1.562-6.363-2.829-12.896-4.148-19.322-19.09-1.504-127.495-1.514-134.829-6.507-2.552-1.738-4.157-4.693-4.542-7.722-.381-2.99.42-6.038 2.372-8.351 1.928-2.285 4.216-3.489 7.155-3.933 9.1-1.377 20.187.223 29.483.537l54.439 1.645c10.919.372 26.741 1.378 37.34.666l1.393-.102c-5.421-27.323-17.192-67.245-24.612-94.536a7482 7482 0 0 1-40.606-152.616c-5.816-22.582-11.971-45.136-17.069-67.887-1.517-6.769-.409-14.543 7.865-15.67 9.986-1.36 14.094 11.451 16.046 18.957 6.181 23.769 12.033 47.642 18.204 71.434a16117 16117 0 0 1 41.552 159.409l21.291 81.277c3.122 11.874 10.917 38.938 11.437 49.72-4.633 7.058-19.383 44.234-22.171 52.565-7.934 23.715-38.298 86.179-36.019 107.677 3.764 35.506 62.142 93.954 88.619 116.529-9.257-24.369-20.688-48.366-27.787-73.387-1.556-5.483 4.496-10.989 9.756-10.403 11.503 1.281 14.291 20.378 18.522 29.624 10.279 22.458 17.879 47.979 30.7 68.875 4.313 6.763 61.91 10.447 71.965 11.122-8.862-19.223-59.732-111.402-59.038-125.211.134-2.672 1.126-4.877 3.266-6.522 2.246-1.727 5.166-2.248 7.91-1.614 2.465.569 4.908 2.105 6.274 4.261 8.622 13.61 15.917 32.542 23.288 47.296a1605 1605 0 0 0 45.374 84.591c46.711 28.427 102.915 53.109 154.468 70.893 26.082 8.998 41.22 6.167 66.68-2.263-9.158-12.244-22.78-24.072-33.78-34.808-33.541-32.734-70.402-61.702-104.828-93.366-7.89-7.257-18.499-24.608-24.76-33.797l-30.193-43.916c-4.709-6.943-57.59-74.084-15.6-57.191 2.301.926 22.279 30.544 25.332 35.003l36.415 53.289c5.175 7.558 14.857 22.272 20.45 28.763 6.942 8.056 22.542 20.228 31.236 27.717l52.867 46.148c18.727 16.398 35.813 34.994 54.397 50.766 2.632-22.678 9.719-28.161 29.795-36.558-24.919-28.782-54.321-70.43-78.202-101.535l-212.01-277.857-54.897-71.409c-7.567-9.951-14.577-21.325-22.689-30.73-4.539-5.262-11.389-8.261-16.035-13.41-7.016-7.778-12.78-17.71-19.19-26.132-12.093-15.888-31.576-38.121-41.018-54.692-1.631-2.861-2.409-5.321-2.034-8.627 1.154-10.184 14.546-22.061 21.985-28.418 6.364-5.438 18.587-15.748 27.644-14.698 8.821 1.024 57.05 67.221 65.703 78.512 5.773 7.533 7.612 17.106 13.254 24.598l167.641 218.889 135.658 177.407c16.367 21.011 32.394 42.437 49.212 63.098 5.864-14.952 16.999-31.872 35.432-25.671l.575-.929c-6.991-28.675-12.347-58.461-18.639-87.068-9.384-42.665-16.227-85.274-45.81-119.277-11.543-13.269-25.074-26.335-37.689-38.635l-52.224-51.197a2561 2561 0 0 0-35.738-34.718c-5.563-5.302-32.035-29.967-33.698-34.777-12.72-36.777-25.847-88.819-36.048-125.894l-18.401-66.718c-3.464-12.397-7.128-24.764-10.353-37.222-2.479-9.574.651-13.67 8.553-18.035 2.827.78 7.359 2.288 8.596 4.996 7.448 16.3 13.461 42.965 18.199 60.126l31.015 112.281c2.715 9.98 13.739 52.971 17.439 59.503 3.121 5.509 38.891 39.193 45.354 45.512a5734 5734 0 0 1 78.214 77.595c31.721-.277 68.161 1.845 100.321 2.675z"/><path fill="#fefefe" d="M720.882 474.273a8684 8684 0 0 0 176.408 4.59c31.383.739 72.041.668 102.674 3.349l-.455.578c-15.954 20.9-1.026 23.852 14.851 30.577 48.38 20.494 101.14 11.398 139.11-27.355 24.13-.182 49.27 1.117 73.57 1.607-6.79 12.952-13.06 26.796-20 40.103-10.57 21.054-21.95 45.278-33.62 65.401-51.49-3.343-109.04-3.123-160.95-4.337-79.983-1.872-161.629-5.371-241.502-5.917-7.407-25.684-13.57-48.713-25.438-73.092-4.34-8.915-23.514-29.448-24.648-35.504m737.248 424.141c62.35.23 122.13 36.845 176.72 62.232 34.11 15.864 75.12 35.825 110.24 49.094-16.59 1.03-40.7-.28-58.48-.6-27.88-.51-61.21.8-88.57-2.76-4.7-.62-25.13-12.392-30.95-15.091-42.7-19.796-75.17-38.421-123.06-34.008-30.46 4.518-63.82 25.458-96.43 31.592-66.86 12.577-135.92 6.721-203.73 5.779 2.93-5.193 7.42-11.467 10.82-16.517 9.86-1.143 42.66-.52 54.23-.603 54.95-.392 113.2-7.721 160.73-37.522 31.54-19.772 47.03-39.682 88.48-41.596"/><path fill="#fefefe" d="M1351.49 866.891c24.7-.956 57.71 1.268 83.21 1.706 21.27.194 42.53.606 63.8 1.235 10.86.298 22.93-.292 33.53 2.098 23.5 5.304 74.72 31.233 94.1 45.656 4.54 3.377 1.95 9.691 6.47 13.511 3.75 3.175 7.98 2.451 12.47 1.885.41-.052.82-.119 1.23-.164 6.57-.726 62.32 26.458 73.65 30.831 41.65 16.061 83.78 32.016 127.69 40.621 19.86 3.89 40.4 5.67 60.58 7.01 3.52.23 13.23-1.08 15.49.72l.05 4.44-1.11 1.04c-33.87-2.02-69.79-1.55-103.8-3.76-8.49-.55-38.76-.85-45.69-3.26-26.06-9.07-53.66-22.733-79.32-33.496a4025 4025 0 0 1-82.21-38.516c-35.82-17.389-56.97-29.789-95.27-40.739-110.66-31.641-109.84 25.107-198.31 54.775-44.45 14.909-109.83 16.3-157.23 15.466l16.34-23.719c41.07 4.657 114.33-8.238 148.72-33.539 16.9-12.434 22.39-23.978 25.61-43.801M174.748 822.122c6.995-.668 20.891.442 28.841.594l76.414 2.087c38.558 1.13 91.732.072 129.078 3.166 14.664 14.541 25.49 24.829 44.557 34.551 30.339 15.135 67.226 21.086 100.794 22.82 19.527.742 40.193-2.03 59.569-1.393 26.122.858 46.694-5.829 71.143-13.728 25.735 7.247 50.551 29.229 66.31-8.333 6.492 9.223 13.928 17.963 20.78 27.878-1.222 2.367-3.038 5.149-4.457 7.464-1.204 1.451-1.294 1.453-2.849 2.549-13.257-2.778-72.188.875-90.603 1.38-79.705 1.417-163.261 3.506-240.652-20.008-34.565-10.502-95.999-85.288-134.143-22.714-2.137 3.506-8.98 11.82-13.187 11.105-36.726-6.246-80.589-26.769-111.595-47.418"/><path fill="#fefefe" d="M1561.74 871.464c38.11-.563 79 1.545 117.24 2.668 26.21.77 56.82.531 82.69 3.124 22.15 25.873 76.2 51.102 109.64 57.002 16.5 2.911 36.54 4.451 53.49 6.006.4 9.447 0 17.684-.4 27.119-7.25-.155-11.95-.381-19.16-1.285-46.94-1.973-124.6-28.33-169.32-46.297-25.07-10.281-49.89-23.844-76.04-31.038-16.2-4.453-23.5 5.389-26.26 19.832-8.63-3.452-19.79-10.487-28.33-15.18a766 766 0 0 0-43.55-21.951M373.146 284.846c7.309 7.934 15.912 19.932 22.796 28.572 16.922 21.239 32.947 43.322 49.415 64.91l149.121 196.493 197.147 256.106 63.104 82.182c9.793 12.761 23.142 29.579 32.105 42.627 1.873 2.727 9.29 26.674 12.874 34.12-6.062 4.977-10.603 8.973-16.301 14.334-8.959-8.043-19.461-16.574-27.55-25.207l10.588-8.575c3.791-2.56 7.473-4.631 10.292-8.17.324-1.744.981-3.861-.271-5.411-17.818-22.062-34.689-45.201-51.865-67.753l-186.287-242.47c-7.437-9.757-62.784-83.603-67.765-85.226-1.324 1.222-1.399 1.491-3.05 2.132-.15-1.964-.842-9.681-1.862-10.98-5.867-7.469-15.142-23.286-22.067-28.951-3.508-.169-3.515.548-6.902 2.448l-1.469-.615-1.019-4.524c-2.347-1.002-2.986-1.108-4.754-3.028 1.108-1.472 6.224-2.268 8.559-2.864-3.146-5.09-6.39-10.239-10.824-14.236-3.264-.991-2.603-.514-6.55.698-.394-1.067 1.881-6.617.91-8.661-4.267-8.979-10.254-11.796-18.389-15.533-1.098-22.684-10.181-16.928-14.849-24.016l1.546-2.023c-.235-2.661-12.128-17.41-14.773-19.991-1.91 1.002-2.209 1.179-4.263 1.784-5.419-12.309-2.585-21.512-18.16-26.185-4.34-1.302-2.258-22.861-18.442-22.044l-.811-1.254c.538-2.119 1.463-5.319.6-7.26-6.208-13.959-12.598-7.461-17.677-9.958l-.655-1.947a119 119 0 0 1 4.307-4.416c-2.58-11.06-12.568-13.028-17.065-17.07-3.705-3.328-3.797-20.938-14.528-21.652l-3.228 2.96c-2.365-2.194-1.537-.892-2.41-4.144 1.722-2.807 2.349-3.296 2.214-6.405-1.47-4.134-6.728-9.997-10.478-12.284l-4.96 1.649-1.498-.983c8.961-7.257.805-8.227.9-14.787zm590.697 794.824c6.135 4.66 17.341 52.86 20.019 62.25 2.616 9.16 3.965 37.81.097 45.72-11.131 22.75-33.492 53.54-47.838 74.58a3179 3179 0 0 0-37.198 56.38c-2.047 2.95-5.634 7.24-7.941 10.19.717-14.63.64-31.5.883-46.3 45.003-41.37 59.705-102.6 43.573-160.72 8.678-11.56 19.44-29.34 28.405-42.1M750.16 1191.09c13.274.01 30.243 1.24 43.786 1.85-41.756 48.99-56.404 99.98-66.33 161.55-18.897 1.26-61.922-1.2-82.898-1.81-9.544-.7-38.302.79-44.792-3.72l-.192-2.19c2.402-2.6 63.493-16.34 71.993-18.64 47.654-12.93 46.788-56.64 61.007-95.48 4.835-13.21 9.814-28.03 16.826-40.5z"/><path fill="#fefefe" d="M1674.1 903.729c17.84 5.262 49.21 21.492 68.05 29.29a588 588 0 0 0 181.96 44.298c.6 7.503.06 16.885-.15 24.543l-13.21-.2c-3.12.3-18.91-1.19-22.4-1.56a441 441 0 0 1-66.49-11.765c-37.8-9.704-127.43-41.874-159.26-61.996 13.33-3.869 13.57-10.067 11.5-22.61m-420.3-39.55c14.08-.218 30.65.727 45.01.697 8.71-.018 32.74.234 40.33 1.581.34.465.8 1.008.83 1.595 1.7 34.936-52.04 51.875-77.36 58.55a366.6 366.6 0 0 1-80.61 9.47c11.93-18.271 24.5-37.219 35.53-55.98l.67.006c14.82.007 25.25-5.646 35.6-15.919M775.058 604.024c66.24 2.659 133.728 2.718 200.428 5.548-12.245 14.384-38.417 57.652-50.472 75.546a7875 7875 0 0 1-96.143 138.066c-3.188 5.043-4.504 7.609-10.2 9.952-.887-3.697-.494-5.443 1.798-8.802 32.502-47.631 65.977-94.653 98.645-142.181 4-5.82 19.363-27.213 20.366-32.482-4.728-3.448-24.453-3.402-31.854-3.885-5.304-15.377-19.145-17.874-32.639-23.248-32.42-12.911-63.394-5.972-94.094 6.5-2.554-6.998-4.318-17.483-5.835-25.014m-60.274 585.526c7.132.56 17.719.44 25.103.55-6.762 11.8-20.187 49.36-23.021 62.27-15.073 68.62-40.51 64.27-100.642 79.75-6.053 1.4-11.13 3.22-16.973 5.23q-.48-11.79-.621-23.58c34.233-12.24 65.729-14.31 85.318-51.19 12.916-24.32 23.086-46.55 30.836-73.03M1776.16 877.287c16.81-.887 41.32.544 58.75 1.077l90.82 2.697c.52 16.38-.63 32.609.08 48.701-20.41.987-57.13-4.672-76.54-11.38-14.74-5.097-67.25-29.017-73.11-41.095m-319.33 89.125c27-3.057 97.04 26.132 117.59 40.518-32.91.7-74.79-2.01-108.5-2.87-37.53.23-85.61-1.34-123.09-3.38 13.51-3.858 22.73-5.987 36.57-10.587 26.91-8.944 49.08-21.728 77.43-23.681m-341.42-109.361c25.59 1.493 52.3 1.891 77.59 5.217 1.9 2.59 3.96 5.884 5.78 8.602-19.85 30.628-41.37 64.862-63.12 93.848-19.46-3.901-26.67-6.287-44.22-16.538-8.56-6.239-16.26-12.232-22.21-21.058 2.71-4.742 7.56-11.512 10.71-16.215 20.89 5.178 34.42 10.956 57.02 6.408 15.99-3.217 25.45-8.676 34.67-22.007 1.6-12.75.22-21.952-12.05-28.993-17.21-9.868-33.01-3.777-50.63 1.321zM850.953 1195.32c6.035-.53 11.969-.35 18.018-.27.406 9.11.275 21.2-1.242 30.09-15.152 11.36-28.602 23.87-42.607 36.39-29.467 26.34-45.19 51.98-46.729 92.48l.038 1.26c-2.922 1.36-10.846.85-14.531.81 2.321-15.62 2.078-28.18 5.529-45.5 8.252-41.45 28.299-62.76 57.962-90.61 7.386-6.94 16.137-16.96 23.562-24.65"/><path fill="#fefefe" d="M676.96 1188.21c8.743.88 20.034.73 29.021.83-8.094 21.58-15.513 41.03-26.469 61.45-14.778 27.54-30.32 38.72-60.375 47.42l-21.003 6.31-.438-33.44c20.132-4.22 40.895-8.18 53.295-26.12 11.453-16.57 16.954-38.09 25.617-55.75zm358.22-210.635c28.84 15.507 51.36 18.351 83.66 16.055-8.74 11.34-17.47 24.77-25.5 36.73-6.92-1.06-16.72-3.79-21.12 2.88l.57 2.36c2.45 2.18 2.28 2.11 5.5 2.67 3.34.02 3.57-.03 6.67 1.06l.7 1.88c-.96 4.24-6.27 9.99-9.24 13.69-23.02-11.23-44.56-26.11-64.89-41.58 6.33-11.37 15.56-25.611 23.65-35.745m812.74-342.683c24 .181 48 .803 71.98 1.867-18.9 12.159-43.67 28.634-65.09 34.454-13.73 3.732-97.41-.934-118.06-1.203-18.23.192-39.04-.746-57.56-1.004 4.06-5.781 10.82-16.381 17.33-18.957 17.32-6.401 35.44 6.215 51.73 9.332 28.6 5.473 86.1 6.924 99.67-24.489M982.031 1054.5c2.781 1.05 16.586 13.98 20.669 16.62 14.57 9.4 30.1 17.9 45.18 26.39-9.57 16.67-22.86 35.16-33.95 51.17l-18.07 26.67c1.296-37.87-10.569-70.72-24-105.75zm-113.078 182.39c.821 4.3-.047 31.96-.198 38.14-27.196 26.06-58.79 39.8-54.893 82.11-8.433.12-17.169-.22-25.623-.43-1.455-3.85-.527-9.9.084-13.81 5.778-36.95 23.462-57.27 50.881-80.91 10.381-8.94 18.206-16.74 29.749-25.1"/><path fill="#fefefe" d="M1695.74 628.361c7.09-1.342 32.21-.878 38.72 1.964 11.1 4.846 48.99 25.431 60.13 12.493-4-6.923-28.65-5.346-36.29-10.591 3.19-1.738 70.72 1.854 79.94 2.365-12.81 13.706-22.98 15.668-40.98 18.335-13.74.846-29.3 1.255-42.85-1.202-20.46-3.71-42.75-18.584-63.51-7.873-9.43 4.863-15.97 14.745-19.22 24.647-12.59.201-29.49-.721-42.53-.981 11.34-19.551 44.32-37.173 66.59-39.157M808.148 1193.18c9.146-.55 21.512.51 30.922 1.07-54.675 57.51-75.648 63.23-83.908 150.52l-.186 10.76c-5.813-.04-11.819-.28-17.648-.43 2.07-12.81 5.686-36.15 8.964-48.17 9.492-34.82 32.914-90.7 61.856-113.75M423.043 828.215c13.329 1.08 39.035-.434 49.751 1.609 10.648 2.029 37.994 16.828 50.238 22.009 17.327 7.331 33.744 14.42 52.039 20.19 2.703.853 5.092 1.325 6.101 3.453-35.154 2.126-69.262-3.382-102.947-13.154-20.703-6.005-39.576-19.63-55.182-34.107m504.283 305.395c3.363 3.13 4.202 15.69 4.334 20.31 1.305 45.8-8.689 80.78-39.811 114.72l.232-28.62c5.81-6.78 9.636-11.93 14.348-19.47.428-.73.834-1.48 1.219-2.23 3.021-5.98 15.336-32.5 5.357-35.5-7.29 4.39-9.474 26.6-20.263 39.59l-.895 1.07c.23-10.55-.102-23.4-.562-33.98 6.031-11.09 27.916-45.55 36.041-55.89m332.584-730.294.57.804c-.09 6.874-19.64 51.723-23.7 61.668-14.73.641-41.68-.814-57.91-.833-.95-.157-.35.018-1.62-.94 1-3.693 7.69-10.037 10.71-12.899 20.94-19.833 41.94-43.358 71.95-47.8m350.39 222.56c18.47-.303 39.34 1.053 57.92 2.017-18.45 6.581-40.29 19.824-47.69 38.932-8.26-.613-16.5-.555-24.78-.611-18.38.301-40.54-.692-59.23-1.125 19.09-9.397 58.02-27.826 73.78-39.213m-605.06 395.064c2.64 1.56 6.15 4.4 8.64 6.33 18.34 14.16 37.22 25.36 57.88 35.7-5.53 10.5-10.44 17.09-17.76 26.15-25.46-12.12-44.78-24.5-65.887-42.78 5.596-8.54 11.306-17.01 17.127-25.4m-365.803 165.65c8.853.24 17.705.54 26.554.91a282 282 0 0 1-9.281 24.73c-9.788 23.08-14.915 34.56-38.676 44.18-7.632 1.87-12.848 2.96-20.624 4.21.495-10.39-.108-17.42-.845-27.85 28.14-3.16 34.41-21.84 42.872-46.18m229.279 102.32c1.972 2.91.305 62.25.212 69.74-11.244.59-32.662-.65-43.945-1.55l-.882-.31c-1.537-2.01-2.018-2.92-1.968-5.8.537-31.46 29.143-43.75 45.778-61.22zM1133.5 869.227c27.38-1.485 43.07 20.621 12.95 34.998-8.74 4.167-19.96 4.647-29.63 5.227-12.87-.399-19.12-2.53-31.28-6.865 5.47-7.967 11.5-18.159 17.41-25.379 13.07-2.026 18.28-3.733 30.55-7.981m-70.71 67.342c5.31 3.088 10.83 10.168 16.31 14.411 16.86 13.064 32 17.145 51.79 23.091l-6.52 9.571c-4.42.455-8.69.712-13.12.985-25.68.563-48.29-1.479-70.81-14.473 5.5-10.034 15.49-24.396 22.35-33.585m169.96-137.711q2.16.296 4.29.775c9.82 2.286 13.24 8.01 18.13 15.934-3.41 18.364-11.55 34.861-29.15 42.81-16.77 1.995-17.57-3.592-21-18.557 5.33-14.599 14.75-32.125 27.73-40.962m-63.31-59.776.73-.012c25.61-.588 18.74 43.689-7.81 56.239-10.9-.632-11.67-.974-17.5-10.212 1.96-17.68 6.9-38.164 24.58-46.015m-405.222-24.23c3.826.584 6.148.411 9.947.278 6.298 11.857 11.732 25.928 16.454 38.556 4.09 10.938 6.462 25.472-9.354 26.7-2.352-2.736-7.028-9.905-9.589-13.364-7.824-10.565-15.933-21.2-23.251-32.101 4.386-7.989 9.633-13.575 15.793-20.069m-58.402 94.177 3.564.071c5.645 4.256 41.602 62.704 5.712 50.37a90 90 0 0 1-5.607-2.47c-24.802-12.148-35.474-38.434-3.669-47.971m131.763-183.522c12.658-.125 46.64 7.865 55.819 17.082l-.094 1.67c-5.938 3.08-39.792.69-49.804.439-20.247-1.538-41.364-.778-63.046-2.576 19.091-11.956 34.949-16.081 57.125-16.615m494.991 160.551c11.45 2.654 11.35 10.816 9.8 21.199-2.09 14.046-12.63 23.284-27.32 20.495-28.98-11.364 4.26-34.728 17.52-41.694m95.77-36.788c14.58 2.715 7.21 42.726-17.12 41.724-5.25-1.92-8.32-3.199-9.37-8.828 1.8-7.426 10.2-20.462 14.92-26.758 3.92-5.233 5.56-5.497 11.57-6.138"/><path fill="#fefefe" d="M595.96 1184.76c11.475-.02 22.663.75 34.104 1.43-3.031 9.95-6.529 15.66-11.94 24.29-5.235 7.43-10.898 13.01-20.97 10.99-1.292-2.17-1.14-31.59-1.194-36.71m478.71-763.19c1.76 1.329 2.7 2.276 2.65 4.699-.6 25.487-17.27 41.347-40.07 44.43l-1.1-.117-.56-1.164c2.98-5.46 7.93-9.485 11.75-14.337 8.86-11.287 17.78-22.791 27.33-33.511M362.204 262.834c3.77.684 4.564 2.835 5.619 5.914-1.089 7.158-25.969 25.481-31.434 26.097-3.819-1.045-6.546-1.193-8.242-4.911 3.003-7.756 25.744-23.866 34.057-27.1M1562.53 624.717c9.72.815 23.34.56 33.37.644-7.74 4.549-19.4 9.985-27.53 14.014-7.4 3.35-13.92 7.158-21.95 10.634 3.82-4.573 12.56-19.515 16.11-25.292m-1361.976-9.743 1.738.08c1.402 3.19-2.184 12.64-3.552 16.168-4.34 3.424-20.866.694-28.623 1.149l-1.105.071-3.576-.785c4.868-6.275 27.112-14.04 35.118-16.683m126.519 270.851c6.684.003 12.222.083 16.035 6.442 3.952 6.591-1.729 10.123-6.549 12.318-14.108-.651-23.583-8.384-9.486-18.76m572.788 112.194c1.931 2.231 5.215 9.311 6.695 12.281-2.739 1.98-5.304 4.1-8.429 5.28-3.021-3.02-6.525-5.86-9.796-8.64 3.252-2.98 7.9-6.23 11.53-8.921m753.559-96.623c4.48 2 8.77 4.294 10.52 9.205-.66 3.252-.05 2.06-3.22 4.452-11.99 1.182-16.45-4.321-7.3-13.657M908.014 1017.77c3.445 2.48 7.726 10.76 8.697 15.1l-1.496 1.55c-3.787-3.66-9.512-8.08-10.145-13.21zm869.526-196.987c2.31 2.319 2.25 32.603 2.12 37.69-3.22-8.919-4.32-28.205-2.12-37.69m-275.09-5.986c2.91 4.793 1.15 25.86 1.32 33.35-4.25-7.258-2.76-24.879-1.32-33.35m-589.878-74.648c8.645.617 33.555 8.048 40.121 12.624-8.437-1.509-32.241-8.997-40.121-12.624"/><path fill="#b3b3b4" d="M1671.5 818.532c3.09 2.78 1.84 25.573 2.64 33.78-.84.011-.76-.204-1.73-.846-1.78-12.662-1.5-20.406-.91-32.934"/><path fill="#fefefe" d="M282.989 774.62c3.518 3.353 1.262 23.25.892 28.886-3.763-3.001-1.184-23.401-.892-28.886m700.556-140.61c6.027-.119 21.785 4.573 25.925 8.706-8.32-1.922-19.526-3.499-25.925-8.706m897.945 202.434c1.55 1.22 1.1.878 2.23 2.602.8 6.032 1.57 16.756-.88 22.341-1.31-3.14-1.26-20.352-1.35-24.943"/><path fill="#8d8c90" d="M1928.86 841.54c4.03 2.796 2.04 17.507 1.77 22.751-2.63-4.156-3.03-17.964-1.77-22.751"/><path fill="#fefefe" d="M1831.45 839.815c2 2.506.32 16.819.06 21.157-2.64-5.401-3.14-15.725-.06-21.157M230.209 787.724l1.252 1.344c.809 3.583.237 10.893.077 14.896l-1.856-1.759c-1.278-5.089-1.082-9.496.527-14.481"/><path fill="#b3b3b4" d="m1560.37 833.68 1.11.958c1.88 5.685 1.36 9.713.65 15.453l-.68.449c-1.78-4.913-1.33-11.706-1.08-16.86"/></svg>