<svg xmlns="http://www.w3.org/2000/svg" preserveAspectRatio="xMidYMid meet" viewBox="0 0 2048 1462"><path d="M1824.66 47.61c1.12-.144 2.24-.266 3.37-.367 8.9-.82 27.03-2.376 33.89 3.417.72 13.447-1.81 32.23-2.39 46.552l-4.63 115.289c-1.29 32.68 2.89 66.288 1.01 98.669-8.22 141.391-.04 283.266 4.34 424.957.98 38.729 3 77.425 6.06 116.045 3.1 40.981 6.78 81.917 11.04 122.794 1.5 14.842 6.48 45.454 5.3 58.054-.25 2.59-1.73 4.89-3.83 6.41-6.3 4.56-150.79 10.32-164.07 7.52-7.88-1.65-13.94-11.82-18.3-17.92-15.12-2.89-39.17-.39-54.72.34-15.35.72-30.77 1.36-46.13 1.99-2.6 26.85 8.26 68.18-1.49 93.92-2.53 6.66-52.11 1.59-62.29 1.83l-132.98 2.1c-22.27.45-46.12 2.48-68.13 2.13-44.46-.72-88.53-1.72-133 .2-.89 11.8 4.95 114.75-.57 118.48-10.14 6.86-56.37 5.64-73.09 6-.27 12.11-2.02 59.19-.25 67.82 7.69 8.96 95-9.27 108.5 10.76 3.39 9.42.53 24.51.04 34.07-.47 9.21 2.03 29.14-8.24 32.8-13.5 4.81-31.26 3.27-45.68 3.75-29.22 2.36-59.94-2.87-88.79-1.49-41.71 1.99-81.95 2.17-123.732.47-32.985-1.34-104.116 8-134.353-1.58-3.651-3.31-6.157-8.79-6.114-13.96.396-15.19-1.213-33.4-.928-48.09.425-21.97 48.202-16.19 62.461-15.8 16.723.38 33.45.48 50.176.33-.052-23.08-1.107-45.74-1.134-68.94-14.452-.44-67.953.52-77.017-6.51-5.063-9.04-2.156-40.3-1.695-51.54a4767 4767 0 0 0 2.317-66.88c-15.974-.43-32.601-.76-48.548-1.66-36.763-2.07-73.685 3.27-110.357.32-34.429-.63-67.114-.46-101.526-.15-27.007-.74-52.335-1.03-79.512-2.03-11.944-.43-51.294 6.26-59.207-3.28-6.062-7.3-1.421-35.35-1.692-46.2-.382-15.3-.771-32.29-.85-47.95-16.231.83-38.744-1.41-55.726-1.59-15.227-.15-35.357.11-49.966-1.76q-1.415 4.2-2.986 8.34c-2.081 5.39-5.052 10.42-10.779 12.61-12.963 4.95-109.966-3.71-130.364-4.87-8.881-.5-17.902.88-26.758.04-2.746-.26-5.515-.88-7.955-2.2-3.13-1.71-4.797-4.13-5.637-7.57-3.308-13.53 6.437-78.607 8.414-96.821 2.528-23.302 5.419-46.724 7.029-70.099 1.034-15.026.638-30.152 1.369-45.203l6.507-155.406c.603-18.386 2.747-37.266 3.077-55.583.439-24.399.484-48.836.948-73.257a6984 6984 0 0 0 1.886-164.263c-.068-9.39-3.401-53.722-2.548-58.273 4.758-25.381-9.216-259.38-7.023-262.784 17.218-10.217 68.761 2.388 89.118 2.518 49.152.313 97.184 7.697 146.055 11.657 35.132 2.846 71.187.928 106.409 2.868 63.052 6.109 124.331 6.42 187.592 6.352 20.997-.023 45.048 1.884 66.283 2.938 32.48 1.612 64.393.113 96.623.564l61.013.92c73.94 1.802 146.97 1.47 220.9-1.168 15.11.05 30.02.851 45.14.412 75.45-2.19 149.7-8.224 225.24-5.16 31.82 1.291 66.92-5.537 99-6.194 49.68-1.016 99.34-.513 148.85-5.69 13.34-1.45 29.91-4.539 42.95-5.032 34.83-1.319 67.55-4.456 102.08-8.967"/><path fill="#fefefe" d="M1337.08 94.534c10.6-.71 21.83-.537 32.51-.553 12.48 21.941 17.81 49.603 31.38 72.56 8.42 14.235 16.75 29.576 25.1 43.938 10.51 18.063 19.62 34.81 31.63 52.047 23.86 34.239 53.78 60.085 80.39 92.172 19.55 23.081 34.17 48.325 51.56 73.117 27.67 39.463 61.85 73.195 96.08 106.866-.52-.512 6.81.882 7.66 1.139 1.31 4.293-3.26 7.56-3.25 12.28.19 128.08 18.87 259.923 11.85 387.387l-3.64 75.673c-14.86.08-29.76-.64-44.54-.46-20.08.25-40.18 1.77-60.3 1.27-.98-13.668-1.71-27.355-2.21-41.052-1.17-29.674-.78-61.71-23.19-84.824a71.16 71.16 0 0 0-49.25-21.358c-16.42-.239-24.92 5.995-36.07 16.66 2.41-30.826-6.13-55.028-39.39-64.583-20.33-4.521-47.18-3.92-65.21 7.117-9.63 5.895-19.11 25.989-27.69 30.832-7.06-5.939-5.99-27.587-27.42-40.541-9.28-5.608-19.89-7.639-30.64-7.143-46.24 2.137-54.38 42.209-63.62 44.482-4.97-3.377 3.36-21.945 3.79-27.756 1.06-14.405 26.11-98.328 23.28-106.51-8.91-7.612-43.38-13.938-55.63-16.141 3.21-8.479 9.8-34.005 8.49-42.237-7.38-46.498-24.82-102.046-42.69-144.579 69.86-35.766 151.53-57.291 224.82-85.391 41.55-15.934 3.14-35.837-15.29-48.102a1130 1130 0 0 0-136.53-79.459c-163.02-80.528-308.932-69.178-472.474 4.701a257 257 0 0 0-7.026 3.061c-33.551 15.214-89.486 47.31-112.638 76.511-6.261 7.896 21.384 25.778 27.33 29.947 68.781 48.23 142.906 78.11 222.58 102.998-2.007 6.69-3.516 13.229-5.154 19.998-12.975 53.615-21.428 108.248-32.088 162.287-15.027 2.366-40.575 6.865-53.48 14.185 6.906 31.157 11.399 63.58 18.42 94.821 2.726 12.125 6.37 27.459 7.25 39.713l-1.598 1.098-1.69-1.048c-22.008-48.034-105.86-61.957-121.3-.708-.433 1.716-3.136 7.951-4.77 8.642-5.936-5.161-11.016-13.675-16.746-19.7-25.574-27.153-73.458-32.876-101.947-7.108-16.032 14.501-14.757 28.809-15.203 47.955-6.48 2.511-23.383-11.688-37.765-12.815a58.4 58.4 0 0 0-42.425 13.945c-29.195 25.516-26.879 58.466-26.706 92.82.059 11.777-1.834 27.712-2.715 39.972-5.505.38-10.816.35-16.311-.05-30.882-2.21-60.592-2.41-91.492-.68-.524-14.267.462-29.955-.548-43.925-3.842-53.151-3.431-104.808-1.351-158.103l7.355-158.568c1.841-40.263 3.812-73.668 2.646-113.918 13.044-7.655 25.889-24.886 36.299-36.385 22.446-24.795 46.559-51.189 66.717-77.816 16.754-22.13 30.666-44.841 48.59-66.923 14.219-18.828 31.368-33.815 47.16-51.226 39.539-43.592 67.631-96.78 95.04-148.381 9.711-18.283 18.853-44.476 29.359-60.805l.574-.877c50.55-1.545 106.764 5.615 158.07 5.753a14934 14934 0 0 0 372.987-1.214c41-.865 82.06-3.77 123.07-5.008"/><path d="M996.488 156.425c11.632-1.23 26.462-.504 38.292-.33 88.04 1.298 170.46 31.868 250.12 66.665 9.45 4.126 20.15 8.353 28.44 13.952.93.632 2.25 3.607 1.95 4.698-4.15 15.183-20.03 7.237-29.96 3.88-75.7-31.415-145.63-59.525-228.57-66.562-110.887-8.217-210.821 24.67-312.213 64.98-5.729 2.277-10.86-2.141-12.291-7.691.463-1.929.937-3.298 2.27-4.815 19.716-22.432 147.643-57.193 181.001-63.966a542.4 542.4 0 0 1 80.961-10.811M1316.28 629.49c8.37.461 29.7 18.259 31.39 26.465-1.21 4.105-.65 2.681-4.43 6.21-.56.133-1.13.253-1.7.359-7.3 1.307-28-18.291-29.34-26.487 1.01-4.286.45-2.747 4.08-6.547m-585.978.519c4.193.267 5.309.274 8.714 2.597 5.338 9.635-18.12 24.392-25.471 29.798-2.694 1.043-4.175.979-6.712-.15-2.925-3.217-2.238-1.672-2.792-5.774 2.461-8.478 19.016-20.633 26.261-26.471M511.667 490.91c3.838-.442 5.315.158 8.402 2.212 5.072 9.011-9.375 26.35-16.014 31.641-3.879-.031-4.317-.272-7.654-2.288-5.776-9.437 8.508-25.603 15.266-31.565m1025.893-.509c5.98 1.229 20.49 20.715 19 28.467-.62 3.235-3.35 4.829-5.88 6.646-8.2-2.756-30.15-27.53-13.12-35.113m-946.551 92.456c2.418.543 3.386 1.451 5.399 2.853 5.083 9.899-17.452 20.36-25.039 24.005-3.264-.323-3.505-.772-6.229-2.872-4.068-9.396 19.175-20.806 25.869-23.986m864.551-2.938c8.4 4.722 27.02 13.151 29.11 22.545-.96 4.293-.6 2.874-4.07 6.841-6.64-2.016-27.61-14.824-28.9-22.508.7-3.602 1.37-4.113 3.86-6.878"/><path fill="#fefefe" d="M197.089 62.223c25.206 4.353 52.865 6.73 78.402 10.176 14.516 1.28 30.395-.171 44.768 1.841 53.31 7.465 104.98 11.274 158.797 12.044 47.323.678 95.751 8.06 143.265 7.389 11.944-.169 24.557.404 36.515.805-6.164 12.521-11.103 26.365-17.735 39.362-24.382 47.776-50.728 95.817-83.471 138.419-14.387 18.72-32.646 35.726-48.469 53.295-9.92 11.014-18.141 21.925-26.954 33.705-30.116 41.384-57.849 81.556-92.78 119.197-13.243 14.271-24.666 31.351-39.608 44.099-19.75-5.107-62.665-5.081-84.658-7.798-11.798-1.458-35.667-6.454-45.542-6.284-.715-10.41-.075-27.11-.107-38.065l.135-95.91c-.105-17.387-3.183-34.561-3.974-52.007-1.609-35.461-1.296-70.709-2.063-106.094-.535-14.919-3.272-30.309-4.096-45.128-2.026-36.44-9.812-72.92-12.425-109.046"/><path d="M546.072 119.781c3.212.05 4.231-.449 6.348 1.75.16 1.648.151 3.271-.111 4.911-7.504 46.886-143.813 262.846-181.745 290.372-2.124.17-1.968-.207-4.187-1.33-.483-1.487-1.45-4.437-.198-5.951 60.671-73.356 109.73-156.582 157.221-238.985 9.243-16.038 13.994-34.031 22.194-49.855zm-151.676 37.442c1.41.526 3.219 1.03 4.292 2.117.797.808 1.028 1.215 1.062 2.347.636 21.63-27.174 141.733-35.901 165.387-2.035 5.516-4.399 10.275-8.478 14.547-6.3-3.153-5.643-8.665-4.233-14.544 4.903-20.445 10.859-40.506 15.827-60.97l15.699-63.136c3.523-14.435 7.208-31.885 11.732-45.748m-113.412 41.004c1.993.949 4.149 1.747 4.676 4.292 3.825 18.474-3.373 124.822-8.277 136.333-4.062-1.329-2.731-.399-5.43-3.304-3.342-10.475 4.7-128.146 9.031-137.321"/><path fill="#fefefe" d="m1849.16 62.338.58.463c3.52 13.386-16.33 130.313-14.39 158.686 3.16 46.144-2.31 103.75-4.25 150.055a3231 3231 0 0 0-1.79 138.173c-40.11 5.86-81.91 6.096-122.15 10.84-2.64.313-6.31 1.941-8.77 3.087-3.41-5.467-7.89-11.093-12.28-15.818-23.28-25.079-45.9-49.372-66.96-76.426-18.95-24.336-34.01-50.288-52.38-74.911-7.89-10.812-23.18-29.968-32.24-39.641-16.88-18.01-32.1-32.255-47.73-52.04-19.06-24.125-32.57-47.754-47.91-74.329-8.69-15.032-18.99-31.507-26.42-47.087-7.71-16.146-13.14-33.477-21.03-49.817 45.87 3.704 95.98-3.992 141.81-6.386 50.82-2.835 103.03.195 153.47-7.386 54.64-8.214 107.87-7.165 162.44-17.463"/><path d="M1497.6 115.362c.97.147 2.01.276 2.94.597a7.32 7.32 0 0 1 4 3.431c1.29 2.412 2.92 7.225 3.88 9.958 8.5 24.179 20.35 46.793 33.85 68.612 17.03 27.523 34.28 55.322 52.08 82.396 16.33 24.829 31.74 50.301 48.51 74.857a376 376 0 0 0 18.57 24.995c6.46 7.982 15.56 17.621 20.75 26.511 1.61 2.77.18 6.023-.92 8.877-1.45-.162-2.75-.326-4.12-.885-22.86-9.308-134.48-192.678-153.58-227.253-8.97-16.236-17.98-33.494-23.93-51.084-2.22-6.573-5.32-14.368-2.03-21.012m153.82 44.069c4.14.646 5.45 1.507 6.76 5.593 3.39 10.556 5.63 21.441 8.08 32.244a1969 1969 0 0 0 11.48 48.544c7.04 28.375 16.1 56.394 21.33 85.141.54 2.954-1.15 6.687-2.35 9.382-5.05-.023-7.41-1.771-8.89-6.6-7.16-23.354-43.03-158.195-36.41-174.304m113.15 42.019c2.89.725 4.65 1.384 5.18 4.743 1.61 13.326 3.73 30.878 4.14 44.068.55 17.592 11.32 78.441 3.1 91.443-3.08-1.146-6.47-2.569-6.91-6.212-2.66-22.269-13.42-119.018-5.51-134.042"/><path fill="#fefefe" d="M1060.81 270.798c85.08-1.985 249.51 84.863 317.94 139.711l-87 29.972c-48.35 16.465-89.61 36.28-135.81 53.955-14.36-13.392-25.14-14.136-43.77-17.385 5.99-9.959 13.42-14.248 20.14-27.555 15.72-31.16 20.21-63.478 8.81-97.088-8.13-23.993-27.8-50.78-48.75-64.803-8.42-5.633-22.15-12.208-31.56-16.807m-7.2 184.229c3.38 2.765-.6 18.229 3.3 20.881 19.11 12.978 81.11 6.066 92.99 30.013 21.28 42.934 40.16 105.456 47.81 153.67.85 5.343-6.27 32.566-7.54 39.596a561 561 0 0 1-27.57-3.735c-4.25-9.798-9.89-35.213-12.48-46.033-6.71-28.054-12.05-56.316-20.9-83.947-2.2-6.862-4.85-18.031-9-23.523-2.83-1.473-1.36-1.199-4.59-.772-6.14 7.881 8.49 37.492 9.31 47.267.3 3.567-2.29 14.58-2.71 20.323-3.93 31.032-.43 55.637-3.07 82.248a1821 1821 0 0 0-88.31-2.032c-.88-29.167-.04-67.362 1.03-96.656 13.17-14.518 12.94-37.125 15.42-57.021 13.08-10.243 27.9-31.889 26.22-49.254-1.71-2.682-.68-1.857-4.22-2.786-1.71.493-2.4.292-2.98 2.129-5.2 16.659-8.47 26.043-18.91 40.406-4.54-7.757-10.69-16.179-20.99-17.309-8.35-.916-13.33 7.581-18.8 12.685-11.453-6.705-11.689-25.615-15.188-36.777 4.634-4.552 9.808-1.189 14.348-3.369 3.28-5.22 2.34-17.834 2.31-24.446 15.51 4.102 29.78 5.933 44.52-1.558m-91.964-183.595 4.063-.196.09.62c-26.422 10.899-42.956 17.326-62.193 40.35-44.843 53.671-33.816 126.035 18.512 169.313-10.026 5.949-12.682 8.244-20.489 16.986-45.659-13.479-83.297-28.77-126.076-49.459-32.258-14.516-73.595-39.985-103.101-59.168 58.947-56.751 207.864-112.044 289.194-118.446"/><path fill="#fefefe" d="M982.472 484.606c1.182-.148.775.021 2.269 1.013 2.647 19.971 3.159 34.796 21.759 47.476-1.26 15.141-6.593 33.362-1.72 48.041 1.79 5.426 5.87 8.308 10.16 11.835 1.63 27.915-.48 66.68.05 96.125-21.138.1-46.203 2.161-66.044 1.6-2.707-7.732.836-53.502-1.376-69.054-2.386-16.78-9.305-28.884-10.183-43.477-.399-6.638 10.617-37.723 10.242-43.692-3.052-2.429-1.928-1.687-6.305-2.213-2.858 1.404-7.224 16.842-8.777 21.291-2.604 8.827-5.205 18.679-4.585 27.922.36 7.009 2.719 15.632 1.311 22.539-6.111 29.972-13.915 59.242-18.599 89.521l-39.667 5.453c3.48-30.691 13.14-70.238 18.613-101.317 6.135-28.154 10.951-57.149 19.443-84.705 4.468-14.498 12.198-21.275 26.724-24.182 15.732-3.147 30.883-3.517 46.685-4.176m-84.569 426.387c7.579.286 16.775-.238 24.469-.478 3.79 19.808 4.207 58.146 5.385 78.927 1.56 27.528 1.33 56.608 2.044 84.558.653 25.54 3.604 49.89 4.608 74.66 1.26 31.11-1.251 63.79 2.44 95.37-8.866.26-16.876.13-25.735-.07-16.388-1.18-24.664-1.14-41.34-4.15.908-33.09 3.29-67.78 2.944-100.81-.789-75.41-1.167-150.016 20.187-223.117 1.141-3.906 1.699-3.448 4.998-4.89m239.467-.157c8.49.002 17.79.812 26.32 1.371a767 767 0 0 1 20.97 174.363c.36 25.59-.61 52.02-.53 77.78.07 20.34 4.14 57.38 1.88 76.42-3.77.95-6.32 1.81-10.25 1.6l-51.04 2.22c-.17-62.15 1.58-121.72 5.37-183.69 3.05-49.99 2.73-100.053 7.28-150.064m-166.473-207.33c93.493.82 184.773-3.173 277.033 19.649-3.69 15.186-10.22 32.87-14.02 48.869-9.86 41.581-21.88 84.879-28.88 126.929-13.56-.045-56.76 1.743-66.39-1.552l-.75-2.069c2.31-7.031 14.21-4.778 20.59-4.497 36.43 1.607 30.82 2.1 37.62-32.746 5.28-28.543 11.26-56.95 17.95-85.196 2.59-11.246 8.83-31.47 9.84-41.271-42.94-9.429-83.86-12.903-127.64-15.586-85.79-1.358-172.325-3.933-256.555 15.736a3038 3038 0 0 1 34.267 158.068c13.527.731 37.895-.61 49.521 1.534 2.306 2.152 1.508.869 2.29 4.094l-1.429 1.91c-9.892 5.365-54.407 2.326-67.498-.011-5.032-10.911-9.763-37.95-12.739-50.926-9.604-41.869-16.671-82.402-27.861-123.961 7.123-.795 15.008-2.74 22.212-3.949l48.794-7.756c29.055-4.476 54.479-6.246 83.645-7.269m58.903-383.12c33.57-1.127 57.11 26.589 58.25 58.494 1 10.161-.59 24.205 2.62 33.797 7.34 21.944 24.25 38.491 6.01 60.766-9.64-2.4-21.53-4.074-31.36-5.566q-.315-4.315-.54-8.635c-.34-6.37-.68-9.989 3.74-14.926l1.2.179c-.4 4.508-.99 3.359 1.1 6.263 2.87.352 2.89.088 5.38-1.256 1.05-1.932 2.85-23.909 3.86-29.838 3.27-19.103-12.34-44.149-25.2-56.622-6.24-6.061-16.99-21.907-22.09-22.327-3.67 2.463-5.17 6.74-7.24 10.867-12.36 20.392-28.121 20.262-44.599 33.071-2.268 6.477-5.329 33.001-5.891 41.118-.238 3.448 1.384 4.191 3.438 5.882l2.13-.209 2.219-3.756c6.432 7.127 2.61 10.1 17.006 23.414.687 7.641.357 12.575-.044 20.157-14.045 1.356-22.794 2.529-36.981.695-15.036-10.67-17.007-18.671-14.916-36.51 14.402-19.565 18.219-20.979 20.287-44.876 2.909-33.628 28.068-62.609 61.621-70.182"/><path fill="#fefefe" d="M1128.01 790.643c3.08-.024 3.33.045 6.33.884 1.63 1.829 2.85 2.618 2.55 5.351-3.02 27.44-4.18 55.249-6.64 82.679a4006 4006 0 0 0-10.24 140.623c-1.1 17.45-2.9 34.87-3.82 52.31-1.18 22.27.7 45.58-.34 67.76-2.26 31.78-2.93 63.63-4.47 95.45-1.46 30.12-.27 60.84-1.73 90.84-1.37-.03-7.8.21-7.95-1.69-.81-10.37-.28-21.58-.28-32.14 1-105.47 4.42-210.9 10.26-316.212 2.69-46.744 6.67-94.381 9.71-141.134.79-12.2 2.4-33.648 6.62-44.721m-92.72-437.883c9.72 9.78 16.6 18.677 24.7 29.751 8.43 12.432 9.2 19.904 12.61 34.544-8.26 27.494-33.1 43.064-61.19 29.437-15.398-7.466-19.417-20.799-23.925-36.231-5.145-41.056 15.315-15.51 27.985-19.431 2.62-2.306 2.71-1.587 2.88-4.102-3.11-3.741-12.79-3.887-17.19-2.465 1.04-2.337 13.37-10.224 16.66-12.914 8.19-6.717 11.39-10.035 17.47-18.589"/><path d="M1040.77 385.932c5.31-7.12 11.73-5.517 19.22-3.421l-.47 2.494c-3.82 5.355-13.65 4.984-18.75.927m3.45 8.085c12.91-.91 14.49 4.452 8.3 14.402-10.02.035-16.01-6.639-8.3-14.402m-34.08-.286c10.28.748 12.14 10.066 3.17 15.03-10.12.369-13.38-9.562-3.17-15.03m9.41 35.442c5.51-.305 13.58-1.479 18.34.624 1.6 3.019 1.18 1.871.19 6.109-8.42 2.075-16.69 3.816-18.53-6.733"/><path fill="#fefefe" d="M925.707 791.54c1.748.226 6.944 1.052 7.148 3.37 15.42 175.522 26.645 353.2 25.933 529.38-.004.99-3.474 1.79-4.436 2.12-5.907-3.54-3.959-6.95-4.16-13.45-.114-44.39-1.971-88.51-3.592-132.81-4.551-124.36-9.801-248.6-23.417-372.363-.89-8.091-1.67-9.165 2.524-16.247M650.328 980.257c8.497-.923 47.59.081 44.745 12.432-1.375.772-3.642 1.759-5.245 1.219-25.557-8.608-54.202-8.94-73.675 12.562-4.458 5.76-6.398 10.13-8.952 16.86 2.431 5.48 6.411 9.12 3.249 14.8-12.57.87-13.626-22.65-5.573-32.56 13.648-16.799 25.002-21.653 45.451-25.313m744.462-1.857c25.44-1.006 64.77 13.024 66.01 43.9.19 4.76-.71 9.34-4.08 12.87-3.41 1.1-1.75 1.08-5.14.13-1.31-2.35-.15-14.34-.06-18.13l-4.68-8.24c-20.35-26.297-54.43-26.572-79.76-14.001-1.6.794-3.66-.666-4.92-1.677.31-10.879 24.47-14.095 32.63-14.852m-151.13 1.962c28.73-4.762 75.67 9.916 74.56 45.018-.18 5.78.56 10.33-5.75 12.56-3.21-1.34-2.13-.39-3.83-3.72 3.36-34.625-27.38-45.884-57.24-46.481-6.64-.133-17.07 4.55-22.29.585-.48-3.686-.89-2.068 1.1-5.056 3.91-2.282 8.81-2.361 13.45-2.906m-443.543-1.912c6.28.064 32.866.564 30.709 10.933-5.377 2.932-18.071-2.551-25.392-2.611-22.683-.185-45.341 5.971-55.974 27.958l-3.223 9.19c1.864 4.32 3.659 6.35 1.731 10.88l-1.991.73c-14.545-4.5-5.376-27.77 2.147-35.44 15.408-15.729 31.016-20.287 51.993-21.64m-207.67-59.072c12.03-1.707 42.109 3.815 51.244 12.581 1.325 3.177 1.429 2.079.456 4.661-11.348 3.74-32.266-18.099-69.016-4.95-15.104 6.487-17.935 12.024-24.458 25.934-1.257 2.679-3.019 3.49-5.506 4.228-7.84-5.287-1.403-14.82 3.115-20.175 11.406-13.516 26.67-20.622 44.165-22.279m856.083 1.788c3.5.517 7.36-.02 10.97.177 19.72 1.077 43.65 6.281 53.5 25.522 2.1 4.105 5.15 8.672 3.81 13.377l-2.03.91c-.96-.227-2.09-.499-3.41-.814-6.06-8.759-7.85-13.071-16.14-19.846a78 78 0 0 0-4.41-2.809c-36.02-21.056-65.04 4.834-74.37-.831.64-11.046 23.92-14.164 32.08-15.686m-719.211-.802c6.287-.838 29.761 3.708 36.156 6.571 2.415 1.082 2.792 3.067 3.352 5.199l-1.245 1.673c-19.714 4.599-35.346-18.652-65.098 6.879-9.599 10.597-7.71 13.271-12.423 26.511-.627 1.76-2.579 1.795-4.183 2.068-1.998-2.143-2.334-2.757-2.511-5.908-1.429-25.478 23.083-40.673 45.952-42.993m-62.718-55.861c11.032-.697 45.733 2.649 49.081 14.466-1.354 2.987-.358 1.779-3.241 3.625-4.272-.743-13.136-4.503-17.573-6.519-14.391-6.542-30.656-4.908-45.127 1.294l-1.329.577c-5.294 2.752-8.106 5.562-12.167 8.255-8.418 5.583-5.381 23.054-14.004 23.406-.812-.945-1.173-1.784-1.324-3.051-3.296-27.656 24.799-37.593 45.684-42.053m649.139 56.864c16.29-1.042 31.09.818 45.23 9.796 8.4 5.33 20.37 23.225 13.93 32.531-3.56 2.007-1.96 1.576-6.09 1.601-2.33-3.621.77-8.731-4.82-19.496-12.19-14.516-37.08-19.799-54.92-15.373-6.32 1.569-12.49 5.011-19.05 5.551-2.9-1.666-1.77-.523-3.3-3.754l.85-2.205c6.5-5.815 19.83-7.676 28.17-8.651m62.9-57.961c21.54-2.472 49.72 12.043 54.45 34.005 1.04 4.815 2.88 6.598.38 11.379-2.67.906-3.88 1.632-6.59.939-3.08-4.655-3.11-13.096-8.62-22.603-36.47-36.979-65.49-3.319-72.48-10.38-.05-8.699 25.79-12.77 32.86-13.34m-565.641-.01c5.362-.399 13.532-1.25 18.451.693 2.741 2.766 2.117 1.419 2.877 5.06-3.833 4.662-18.671 2.024-25.417 2.617a68.7 68.7 0 0 0-14.19 2.856c-12.496 4.05-19.809 10.947-25.636 22.369-1.19 4.427-.695 13.549-7.991 11.045-4.79-7.944.553-18.14 5.872-24.551 12.025-14.494 28.082-18.186 46.034-20.089m57.54 51.974c4.527-.3 11.308-.172 12.212 5.486-10.406 10.928-50.478-5.457-54.301 39.975-.051.772-.675 1.772-1.065 2.578-3.197 1.144-1.803 1.086-5.394-.298-1.239-1.306-2.792-2.922-2.772-4.911.293-29.21 26.134-39.275 51.32-42.83m362.701-48.898c13.06-1.614 29.99.998 41.98 6.824 10.31 5.004 28.58 22.475 21.84 35.061-3.55 2.289-2.03 1.627-6.9 1.894-2.71-7.031-.81-9.038-5.74-17.191-8.98-14.844-24.91-19.551-41.42-20.047-5.63-.17-14.04 1.976-19.36.706-.78-3.175-.68-1.934.2-5.232 2.43-2.135 5.92-1.805 9.4-2.015m-51.9 49.449c23.49.804 52.88 9.574 58.45 37.378.92 4.605.45 9.666-1.76 13.883-1.43-.346-5.59-1.043-5.92-2.759-3.62-18.574-10.87-32.884-30.57-37.249-4.76-1.056-19.24-2.033-21.91-4.733-.28-3.878-.26-2.595 1.71-6.52m-49.01-298.196c2.99 14.278 5.76 28.849 8.88 43.099 1.17 5.299 7.49 28.802 7.51 32.179l-1.96.852a1222 1222 0 0 0-16-1.774c-.25-14.739-.96-62.285 1.57-74.356m-196.964 6.965c3.629 7.462 2.569 57.843 1.233 66.296-2.424 1.489-6.36 1.444-9.347 1.686-4.18.241-3.44.884-5.903-1.096-.582-4.348 12.091-59.228 14.017-66.886m582.344 349.722c7.1-.571 28.04 1.779 28.64 10.905-5.1 3.282-14.58-.715-20.29-2.284-9.69-.127-12.06.542-21.29 2.467-3.54.74-8.33 1.382-11.41-.827-.59-7.451 19.22-9.822 24.35-10.261m-992.22 1.942c7.642-.925 32.355.352 33.414 10.783l-1.974 1.217c-4.184.652-7.568-1.116-11.683-2.607-12.446-2.507-31.942.899-36.959-2.47l.389-1.421c6.485-4.732 8.93-4.576 16.813-5.502m1324.22 9.198c4.89 4.137 3.37 11.918 3.1 17.788-2.29-4.172-2.9-13.019-3.1-17.788"/></svg>