<svg xmlns="http://www.w3.org/2000/svg" preserveAspectRatio="xMidYMid meet" viewBox="0 0 2048 2048"><path d="M1000.37 134.575c490-13.051 898.16 372.883 912.54 862.85 14.37 489.965-370.46 899.165-860.38 914.865-491.805 15.76-902.917-370.86-917.348-862.7-14.431-491.849 373.304-901.914 865.188-915.015"/><path fill="#fefefe" d="M1001.28 161.503c476-12.34 871.92 363.453 884.41 839.447 12.48 476-363.19 872.03-839.18 884.66-476.204 12.64-872.445-363.23-884.936-839.43-12.491-476.206 363.5-872.332 839.706-884.677"/><path d="M1001.84 207.392c450.66-11.994 825.88 343.297 838.47 793.948 12.59 450.64-342.2 826.33-792.83 839.52-451.478 13.21-828.022-342.4-840.636-793.89-12.614-451.489 343.488-827.562 794.996-839.578"/><path fill="#fefefe" d="M1017.15 393.548c11.68 1.526 22.63.12 34.67.87 31 1.932 63.29 4.345 93.68 10.916a706 706 0 0 1 135.44 42.567c143.78 62.622 272.32 187.385 332.56 332.761 82.1 198.111 59.6 436.848-71.5 608.808-9.78 12.83-25.26 36.75-38.41 45.13-12.09-44.36-17.27-91.57-33.31-135.38-2.59-7.08-3.35-16.41-5.84-23.67-11.56-33.75-26.49-63.15-57.61-82.97-20.41-13.25-41.31-22.18-62.52-33.31-61.31-32.17-140.56-69.57-179.77-128.92 18.13-9.88 35.97-24.21 42.43-44.711 14.13-44.896 26.97-93.731 31.81-140.597 2.17-20.922.77-41.963-.08-62.516 8.12-6.578 13.07-24.862 16.26-34.882 13.06-41.008 25.89-84.285 23.67-127.752-5.72-111.924-130.21-166.993-228.35-170.461-12.54-.442-26.84.774-39.49 1.668-42.193 7.636-69.617 13.052-101.444 44.364-34.034 2.978-50.295 7.03-79.702 25.324-46.983 29.229-78.017 75.543-90.605 129.075a226.9 226.9 0 0 0-3.587 86.658c.844 5.263 6.668 23.612 5.931 26.532-19.392 76.799 6.639 144.358 58.222 202.285 13.096 14.706 30.981 30.925 44.483 49.783 13.211 18.44 10.296 72.58-6.909 90.11-55.733 30.42-116.521 60.43-172.198 91.81-8.221 5.03-28.864 16.49-33.795 24.86-23.017 39.03-38.437 87.86-51.851 131.15-9.698 31.29-15.823 66.2-24.543 97.77-16.879-15.98-42.674-50.38-55.888-69.56a624.9 624.9 0 0 1-113.443-339.17c-8.869-218.535 108.413-428.442 292.571-545.554 108.023-68.695 211.21-97.981 339.118-102.988"/><path fill="#fefefe" d="M1607.82 492.788c7.31 9.134 16.88 18.448 23.68 27.185 14.03 18.041 29.97 37.885 42.77 56.611 50.61 73.677 87.75 154.279 111.71 240.366 11.61 41.741 20.34 81.516 25.14 124.775a763.1 763.1 0 0 1-48.47 362.325c-24.39 63.2-57.1 123.6-97.18 178.19-7.54 10.27-51.56 69.5-59.32 71-3.56-2.88-13.55-15.36-17.48-19.76-21.51-25.96-44.49-51.49-66.36-77.72 15.14-18.84 33.5-36.45 47.48-56.61 65.81-94.89 107.77-202.93 116.59-318.45a663.14 663.14 0 0 0-104.08-415.45c-18.5-28.126-40.06-53.637-61.93-79.087 5.4-6.279 11.5-12.739 17.34-18.614 23.78-23.943 46.09-51.3 70.11-74.761M1214.63 674.61l1.94 1.499c3.22 9.62 3.82 48.212 4.22 60.651-7.13.01-36.78 2.571-42.44 8.185-1.88 1.868-1.5 3.545-1.34 5.687.87 1.247 2.46 3.727 3.8 4.11 8.62 2.479 31.83-3.038 39.97-4.656v20.398l-1.9-1.146c-19.03-11.695-34.92 6.401-22.31 25.924 12.82 5.752 16.39 5.805 25.63-5.171.04 12.712 1.53 24.951.98 37.871-1.6 37.91-10.57 75.042-20.64 111.481-3.13 11.346-4.81 23.843-8.84 35.05-8.02 24.197-24.06 37.617-48.45 43.957-5.33 1.39-26.82 4.88-26.29 11.71 1.46 18.74 7.83 38.61 13.23 56.7 2.34 7.85 8.78 16.75 9.33 25.09-.48 10.74-4.56 23.01-8.13 33.13-18.56 52.63-77.98 66.95-126.55 49.22-43.724-15.97-80.826-58.35-99.882-99.52 3.672-9.49 8.007-18.29 11.473-28.14a211.6 211.6 0 0 0 11.18-87.405c-.955-11.167-4.806-22.922-5.143-33.944-1.149-2.916-1.618-5.111.048-7.878 2.981 1.247 7.04 8.219 9.382 11.412a197 197 0 0 0 19.032 22.253 190.74 190.74 0 0 0 100.6 54.882c6.52 1.32 20.08 5.64 24.53.36-2.86-8.33-30.66-11.89-41.07-14.86-36.995-10.34-69.483-35.574-93.438-65.061-5.202-6.405-11.544-24.851-18.936-26.03-2.774 2.373-2.726 4.962-4.82 9.106-12.684 1.764-29.888-3.196-37.537-14.132-16.315-23.325-25.721-56.414-23.759-84.858.615-8.916 6.082-19.936 13.424-24.935 21.112-14.964 27.828 14.027 35.683 27.166 1.307 2.185 3.382 2.295 5.636 2.482 13.831-5.689 32.871-18.888 45.838-27.218a1256.4 1256.4 0 0 0 150.699-111.421c-4.71 9.87-18.61 36.643-6.47 41.724 18.08 7.565 62.57-20.216 75.81-30.323 13.79-10.528 24.85-22.45 35.51-33.35"/><path d="M1108.02 745.372c7.13-1.482 16.78-2.35 20.69 4.712-.41 11.588-50.79 11.577-59.97 12.161-7.25.931-20.36 3.011-23.74-5.88 4.69-10.739 49.96-9.54 61.98-10.871zm60.39 60.244c3.45.052 4.39-.224 7.23 1.767 2.87 7.527 4.4 22.622 6.81 31.396 3.39 12.299 8.28 20.441 9.45 32.859-5.94 10.881-11.45 11.667-22.5 17.632-1.55-.142-3.26-.422-4.8-.64-2.51-2.083-1.98-.812-2.28-3.597 4.71-8.614 19.81-9.977 18.3-17.647-3.64-18.473-16.62-42.314-12.21-61.77m-84.58-32.531.31.004c7.78.022 14.77 3.226 17.57 10.931a16.3 16.3 0 0 1-.88 12.928c-2.98 5.765-6.36 7.065-12.15 9.009-24.55.658-26.41-24.551-4.85-32.872m83.14 139.366c5.5-.439 12.75-1.819 17.2 1.092 1.8 3.737 1.4 1.754.74 6.24-4 3.562-31.84 2.534-39.66 2.88-6.81-.307-18.39 4.359-21.27-2.837 2.41-10.956 33.09-7.103 42.99-7.375"/><path fill="#fefefe" d="M883.285 1106.75c2.191 1.68 8.455 12.9 10.095 16.14 47.745 94.33 185.18 153.28 255.86 48.89 3.07-4.54 7.74-21.46 10.37-23.39l-39 555.57c-4.58 33.99-5.13 70.92-11.22 105.46-14.52 1.87-66.07 5.69-80.02 4.43-5.08-35.81-6.67-74.23-12.23-111.26a2749 2749 0 0 0-81.645-374.12c-19.779-69.23-41.838-139.86-69.092-206.5zM439.431 493.959c3.159 2.829 18.669 20.403 22.429 24.471a4437 4437 0 0 1 63.916 71.043c-12.347 14.706-22.116 25.185-33.967 40.977a652.6 652.6 0 0 0-128.541 314.414c-2.378 19.939-3.786 42.443-4.851 62.496-.62 11.67.594 22.23-.464 34.61l-.162 1.81c-21.76 7.7-42.481 15.59-64.525 22.74-19.153 6.03-39.927 14.03-58.947 20.88-2.532-18.86-2.178-50.63-2.044-70.79 1.107-167.233 63.828-343.904 167.027-475.312 12.749-16.234 25.48-32.914 40.129-47.339m556.214-259.538c2.878-.419 11.125-.363 14.425-.429 2.97 40.759-2.53 91.919 1.19 132.022-27.704 2.239-54.859 3.807-82.467 7.932a690.1 690.1 0 0 0-264.088 98.228c-17.308 11.029-34.961 24.377-51.434 36.669-9.25 6.902-17.829 14.808-27.474 21.23l-1.213.8c-10.548-11.338-19.16-21.646-30.566-33.47-16.322-20.754-42.266-44.417-55.705-62.475 14.888-16.619 51.532-42.829 70.155-56.088 126.943-90.376 271.967-136.829 427.177-144.419m42.995-.957c19.57 1.125 40.31 1.992 59.64 3.877 126.53 12.339 245.53 52.556 352.16 121.859 30.27 19.671 72.34 49.099 97.57 75.142-14.92 16.951-29.16 33.122-44.78 49.447a1442 1442 0 0 1-41.72 43.453c-5.43-.4-29.6-21.331-36.19-25.94-35.69-24.935-70.11-46.478-108.81-66.113a657 657 0 0 0-207.83-62.919 600 600 0 0 0-36.1-3.859c-10.43-.709-24.48-.976-34.25-2.767l-1.33-.254c-.21-14.917-1.34-127.217 1.64-131.926M359.934 1073.29c1.014 1.27 4.936 41.22 5.687 46.08 17.078 110.44 62.632 213.84 130.072 302.73 8.962 11.81 18.805 23.26 28.055 34.88-26.797 32.3-58.342 66.17-84.214 98.38a302 302 0 0 1-17.855-18.93 818.74 818.74 0 0 1-170.418-333.84c-6.848-28.39-9.644-58.01-14.805-86.61 39.362-14.16 83.331-31.74 123.478-42.69m617.917 553.99c5.012 5.62 17.239 101.17 18.769 116.76-2.997 5.88-21.655 30.02-26.833 36.93l-1.339-.04c-3.424-5.77-13.428-101.68-17.563-118.66 8.443-11.38 17.729-24.47 26.966-34.99m-26.137-132.44c4.191 7.52 23.683 105.77 24.65 118.26-5.57 8.74-17.711 22.93-24.534 31.29l-1.883 1.36c-2.568-2.04-5.623-25.92-6.357-30.38-2.377-14.7-4.968-29.37-7.774-43.99-2.919-14.55-5.932-26.18-7.663-41.02 5.879-10.54 16.586-25.49 23.561-35.52m-11.644 177.9c5.298 5.24 14.063 104.44 17.673 120.38-3.799 5.17-10.345 11.19-15.085 15.86-4.137-.46-8.019-1.13-12.138-.69l-4.581-1.57c.086.16-11.118-109.8-11.004-114.72 11.387-7.16 15.336-9.97 25.135-19.26m-21.292-304.94c6.778 7.11 27.089 99 31.589 115.34-6.664 6.21-18.551 23.14-24.638 31.37-3.049-3.42-16.463-69.48-19.08-78.73-2.402-8.49-8.898-34.5-9.763-42.64 1.974-3.82 18.208-21.27 21.892-25.34m-72.644-235.78c3.893 3.91 29.451 92.22 33.49 103.1-2.038 6.4-13.282 29.45-20.7 29.01l-1.109-2.4c-10.347-37.35-24.219-81.67-40.01-116.6 9.372-4.1 18.795-8.89 28.329-13.11m71.37 407.58c3.186 8.36 8.447 39.94 10.127 50.05 3.711 23.02 7.674 45.99 11.886 68.92-8.697 10.64-14.45 14.91-25.589 23.24-4.017-4.97-10.549-87.95-14.892-98.44-.552-1.33-2.645-17.32-1.995-18.31 5.673-8.63 13.481-15.4 19.58-24.18zM1569.64 454.722c2.78 1.277 14.57 13.193 17.54 16.071-25.13 32.156-57.1 63.166-85.17 93.697a151.7 151.7 0 0 1-19.62-16.843c21.69-20.37 41.04-45.832 61.9-67.242 8.4-8.627 16.83-17.178 25.35-25.683M886.973 1403.9c1.969 2.39 27.01 112.49 29.065 122.08-5.955 8.28-13.626 15.87-20.75 23.2l-1.325-.09c-9.354-39.8-16.532-89.46-27.099-127.89 7.024-4.66 13.867-11.49 20.109-17.3m-2.441-152.29c3.462 3.49 29.38 91.96 32.811 102.66-6.882 8.62-15.824 18.48-23.137 26.95l-.761.26c-3.436-2.25-9.278-31.27-10.899-37.3a1328 1328 0 0 0-19.596-64.85c10.261-11.16 13.519-14.75 21.582-27.72M475.77 455.842c26.249 24.222 62.226 66.21 87.106 93.342-5.788 6.964-10.418 12.233-17.196 18.18-11.483-13.473-25.248-27.744-37.218-41.153-15.78-17.678-32.557-36.944-49.741-52.99 5.26-7.068 10.391-11.755 17.049-17.379m694.1 914.578c6.66 5.14 17.76 22.01 22.79 29.57-4.13 41.34-4.92 81.59-9.7 124.76l-.4.65c-2.92-1.75-16.2-20.28-20.36-25.1.58-41.49 5.9-87.32 7.67-129.88m15.99-279.93c6.56 4.63 15.79 13.18 21.77 18.62-1.75 32.35-2.49 63.69-3.94 95.97-.37 8.18-.87 33.2-2.96 40.09l-1.5-1.24c-2.13-2.77-20.81-25.22-20.65-26.49 2.9-22.87 2.74-46.29 4.26-69.42 1.25-19.16 1.64-38.31 3.02-57.53m-377.513 60.47.536.18c6.477 7.04 37.643 108.34 42.37 123.55-7.064 5.19-12.304 8.88-19.766 13.41-4.126-6.27-7.114-25.67-10.213-34.42-9.81-27.7-20.749-66.58-34.731-91.79 7.925-4.71 13.311-7.15 21.804-10.93m369.773 82.83c4.41 4.04 17.87 23.85 21.95 29.65 1.03 16.18-1.4 38.75-2.13 55.48-.94 21.72-1.83 43.65-3.19 65.34-6.15-5.84-15.59-19.82-24.13-28.37 4.95-37.13 2.72-85.09 7.5-122.1m39.45-117.4c4.36 1.89 18.26 11.61 18.27 16.82.1 48.42-3.53 96.95-6.31 145.31l-.85.24c-2.51-1.1-17.19-19.44-17.13-22.74.15-8.24.87-17.42 1.15-25.74zm-673.424 361.09 3.069.68c2.142 6.8-2.482 33.48-7.598 39.51-12.74 15.02-26.267 29.29-38.995 44.41-4.867 5.78-22.155 28.49-26.879 29.37l-3.364-2.66c-4.396-4.08-8.156-8.07-12.273-12.42 6.039-8.2 18.337-21.68 25.454-30.07a2111 2111 0 0 1 60.586-68.82m617.004 38.21c8.54 10.03 10 17.07 21.41 26.73-2.55 13.89-3.24 28.99-4.7 43.07-2.66 25.77-4.47 52.54-8.1 78.15l-.98.7c-4.58-6.92-11.19-17.1-17.88-21.92.18-12.19 7-119.09 10.25-126.73m-307.538-229.78c3.973 4.75 27.204 93.07 30.287 104.98-5.733 7.42-13.175 13.75-20.373 19.7-2.252-7.14-4.077-16.75-5.49-24.26-5.771-30.67-16.761-60-23.936-90.24 7.826-3.21 12.153-5.83 19.512-10.18m295.618 370.8c7.25 7.12 12.36 13.73 18.15 21.99-.45 25.79-7.41 76.75-10.79 103.56-4.5-4.78-13.2-17.75-16.55-23.32 1.84-32.55 8.01-71.55 9.19-102.23m60.94-380c3.67 3.12 13.93 16.7 16.36 21.1-1.07 32.56-4.75 85.9-9.01 118.18l-.52 1.05-1.05.19c-1.74-3.44-10.71-17.42-10.92-19.43-1.15-11.04.54-28.82 1.13-40.17 1.69-26.95 3.02-53.93 4.01-80.92m307.08 216.97c2.39 1.83 15.91 18.77 18.21 21.87 14.7 19.72 39.6 41.59 51.32 62.43l-8.32 7.03-6.63 6.43c-12.15-12.59-37.31-43.74-46.48-59.11-2.22-3.72-7.08-32.92-8.1-38.65m-338.4 202.02c3.43 3.09 14.83 21.94 14.66 26.94-.78 23.72-4.7 47.62-5.45 71.41l-9.79 3.33c-2.11 1.09-8.71 2.03-11.61 2.55-.19-12.43 8.2-97.46 12.19-104.23m13.08-137.06c3.25 3.06 5.18 7.12 10.94 12.36 1.82 13.88-.21 30.24-1.53 44.38-2.59 27.62-4.26 55.69-6.91 83.26l-1.64-.17c-6.35-6.56-8.68-12.62-12.45-20.83 2.75-24.89 4.81-50.21 7.44-75.14 1.49-14.14 1.72-29.91 4.15-43.86m11.12-143.04c1.06 1.12.75.73 1.6 1.88 3.79 5.19 9.06 11.67 10.09 18.18 2.24 14.17-5.98 102.32-9.09 121.3-6.76-8.71-11.77-9.47-11.3-21.02 1.31-32.36 4.74-64.57 6.65-96.9.47-7.97.5-15.55 2.05-23.44M537.7 1562.82c.325 5.48-2.019 33.98-2.164 42.24-.175 9.94.155 31.88-.624 40.09-8.447-6.08-14.338-10.38-22.198-17.36-6.938-6.07-12.415-11.06-18.876-17.61 8.751-5.24 32.691-36.58 43.862-47.36m459.798 195.95c3.052 4.59 8.322 50.98 4.992 54.88-6.353 1.25-15.219.84-21.725.27l-10.705-1.31-.634-14.14c11.301-12.36 19.079-25.61 28.072-39.7m144.382-719.42c1.54.69 20.8 29.28 24.17 33.76-5.56 4.27-4.51 5.9-5.65 13.73l-.27 1.67-1.45-.46c-8.83-11.97-17.13-28.66-19.3-43.98-.35-2.5.79-2.9 2.5-4.72m-2.78 734.45c4.26 5.94 17.25 21.4 14.37 28.12l-3.69 1.41c-4.71.88-8.68 2.3-12.72.03-4.08-7.22 2.25-19.67 2.04-29.56m394.63-183.17c.84.58 13.5 17.13 17.24 20.75-4.76 2.74-6.24 3.75-10.43 7.28-.85.95-.22.39-2.25 1.12-2.33-2.39-5.04-25.48-4.56-29.15"/></svg>