<svg xmlns="http://www.w3.org/2000/svg" preserveAspectRatio="xMidYMid meet" viewBox="0 0 2048 1462"><path d="M687.168 298.043c0-36.676 11.722-56.721 25.283-89.806 16.429-41.964 27.772-98.683 79.877-108.79 23.811-5.101 46.684-.4 66.248 14.439 36.642 27.792 21.825 77.099 15.169 114.862-2.606 14.789-7.023 27.272-19.442 36.117.722 7.921 2.471 16.011 4.326 23.736 36.3 8.484 63.901 33.253 78.65 67.179 34.317-4.228 55.626 15.294 88.071 16.224 19.97.572 33.86-8.126 52.45-13.287 15.75-4.373 27.68-4.265 43.57-3.012.29-.797.6-1.588.91-2.374 14.68-35.923 32.02-43.671 65.11-57.606l41.1-17.434c-40-20.077-34.7-58.832-36.74-96.471-2.89-57.076 58.46-94.305 109.14-71.798 45.67 20.283 63.22 77.967 41.27 121.284-2.09 4.115-4 8.341-5.95 12.52 30.2.061 50.24 2.742 63.02 33.908 9.79 23.834-12.64 18.923-27.11 15.036-17.62-4.737-23.31-21.558-31.15-36.294-2.26-.537-4.07-.928-6.36-1.313l-.32 1.547c3.28 7.053 6.95 17.579 10.76 23.846 10.06 16.527 33.89 16.904 50.27 29.04 46.11 34.149 46.49 120.59 55.68 171.086 61.22 37.936 77.96 83.984 112.57 143.9 6.38 11.039 16.49 22.183 22.11 32.474 22.86 41.597 44.12 84.288 66.3 126.253 13.75 25.283 34.16 47.036 43.54 74.671 8.21 24.176 17.99 47.044 28 70.521 6.34 17.615 18.51 32.442 26.76 48.947 22.68 45.412 48.38 88.142 74.74 131.452-.23-2.07-.42-4.14-.55-6.21-.77-11.49.86-80.2 6.84-87.04l2.19 1.38c5.73 23.14 3.22 48.65 4.92 72.29.2 2.9 5.12 32.66 6.22 34.44 1.37-9.97 4.35-71.96 12.71-74.36l1.75 1.57c2.26 6.05-.19 10.22-.29 16.29-.23 13.63-.55 27.32-.06 40.94-.22 4.31-.5 8.74-.64 13.04l1.36.5-1.38.55-.02 1.06.91.33c2.02-6.84 2.13-8.97 3.03-16.05 1.54-3.21 4.71-21.08 5.87-25.61 4.23-16.47 8.66-39.55 18.7-53.58l1.63-.05c5.77 9.23-16.18 97.08-12.66 112.16 2.76 1.29 3.07 1.99 5.68 1.8 2.01-5.86 1.67-14.11 2.53-19.56 1.17-7.46 10.22-42.81 15.16-46.71l1.47 1.34c3.52 12.89-2.86 52.14-4.35 67.81l1.07 1.23c2.12-3.7 1.51-11.73 2.8-15.55 4.13-12.24 15.52-56.5 28.45-59.14 5.56 7.77-3.39 30.9-5.99 40-4.01 13.97-7.97 24.86-8.48 39.68 14.99-29.17 7.04-32.4 35.38-56.64-2.48 10.58-23.45 61.06-21.93 66.58l2.83 1.15c5.07-1.73 12.18-44.55 25.32-42.73 1.93 4.94-1.18 13.55-2.74 18.71-3.37 11.13-5.16 19.15-4.88 30.95 4.92-4.93 20.77-21.64 26.41-24.07 2.71 7.52-16.79 34.05-13.94 39.21 7.05-1.1 14.33-13.33 20.18-7.97 1.17 3.94.42 6.33-.2 10.41 3.13.99 3.96-.64 8.27.89 2.83 2.66 2.79 5.63 3.47 9.62 4.88 4.27 12.17-1.4 15.84 6.68-1.17 10.08-12.96 8.73-21.04 8.23-21.59-1.33-45.64-2.99-67.2-.61-26.88 2.97-53.75 16.78-79.33 25.04-40.91 13.32-84.22 17.46-127.09 16.15-53.03-3.08-101.86 16.4-154.56 13.54-21.48-1.85-42.06-1.77-63.61-.62-21 1.12-39.97 5.91-60.57 9.31a366 366 0 0 1-50.36 4.51l-1.3 19.7c4.18-.7 7.29-1.23 11.72-1.3 14.66-.24 39.67 20.08 19.52 32.3-9.37 5.69-21.92 10.22-31.91 15.07-11.1 5.44-40.39 25.17-48.08 5.47-3.89-9.95 2.26-61.36-3.91-69.6-7.41-.81-14.34.21-21.68.25-17.17.1-35.27 1.73-52.34 1.1l-.1.73c-2.6 19.77-2.77 39.27-2.64 59.13-.29 7.84-.34 17.3-9.22 20.31-15.74 5.32-30.67-10.19-44.16-16.26-13.59-6.11-55.21-10.95-43.43-33.81 4.73-9.19 24.77-16.27 34.21-18.64 3.5 1.48 5.7 2.49 9.47 3.38 1.14-4.66 1.55-11.56.13-16.16-18.31-3.95-66.02-4-84.63 1.1-28.39 7.77-36.55 9.35-67.02 4.84-3.45-.51-36.9 6.02-44.63 6.68-32.735 2.76-59.994-4.89-91.768-10.29-7.689-1.28-48.345-1.73-52.91 1.64-.501 5.28-1.744 9.43 1.383 13.21 15.923-2.02 29.757.45 41.301 12.06 6.439 6.48-.606 20.17-8.669 24.03-13.422 6.43-23.709 8.65-37.907 14.46-10.897 4.47-26.021 17.07-39.79 13.9-18.242-9.32-1.268-64.77-10.043-79.99-3.098-1.86-11.539-.93-15.509-.65-19.433 1.36-38.663-.4-58.109.45-.925 7.92-2 15.89-2.179 24.3-1.402 14.46 5.888 54.57-18.723 51.93-10.593-1.13-29.007-14.09-40.062-18.71-9.123-3.81-21.619-8.56-30.262-13.42-1.761-.99-2.556-4.26-2.527-6.36.296-21.23 35.235-19.6 40.56-24.2.772-4.58-.767-18.49-1.024-24.36-6.654-.17-18.839-2.44-26.179-3.35-22.703-2.8-44.889-5.9-67.729-7.59-44.863-3.32-87.8 2.18-132.699.01-34.404-1.66-66.06-8.45-99.89-12.88-28.561-3.75-57.895-5.58-86.616-9.51-19.546-2.68-34.573-6.26-53.505-11.49-6.901-1.91-27.397-7.19-33.97-7.67-9.114-.67-24.881.2-35.052-.18-19.072-.91-33.844-2.02-53.386-3.72-12.98-1.13-36.341.38-49.12-4.98-2.006-.84-2.42-3.27-2.72-5.16 1.496-4.55 3.673-6.5 8.674-6.74 15.098-.74 32.342-.94 47.342.2-.317-.91-1.093-2.66-1.28-3.43-2.092-8.65-21.213-24.11-16.675-32.89l2.195-.12c12.251 4.77 25.871 22.06 35.195 31.32-1.191-19.97-6.229-37.01-12.058-56.01-1.399-4.56-5.252-17.9-1.38-21.44 14.241 4.19 28.06 65.12 32.251 69 3.03-1.25.934-4.92.656-7.87-1.43-15.15-24.215-66.78-19.331-78.34l1.653-.01c6.553 5.2 24.577 40.56 31.694 51.21.556-19.47-12.423-59.49-17.848-78.18-.777-2.67-1.031-6.55-.124-9.21l1.574-.28c11.818 9.29 37.165 79.18 38.838 96.54.261 2.72 1.025 4.06 2.946 5.33 3.358-4.27-.901-23.03-.436-27.58 3.428-33.6-6.551-63.46-11.454-96.32-1.798-12.04-9.827-31.94-9.209-43.461l1.126-.855c12.594 11.156 25.71 72.846 33.805 90.466 5.302 11.54 7.767 39.23 11.167 52.96 6.896-10.21-6.824-109.08-7.169-126.65-.044-2.24 1.438-2.65 3.134-3.87 12.064 10.19 22.462 91.29 23.893 109.72 5.938-17.41 11.616-32.78 21.503-48.47 11.828-18.78 27.79-37.98 37.702-57.68 14.288-28.413 20.608-57.752 34.988-86.647 15.698-31.545 36.932-57.705 54.006-87.678 15.73-27.616 27.284-59.768 43.956-87.499 16.154-26.87 32.452-52.954 49.948-78.95 8.819-13.102 16.66-30.109 25.616-42.983 11.853-17.038 24.925-33.801 36.6-51.049 11.959-17.67 19.907-37.327 33.829-53.663 17.093-20.058 37.769-32.145 60.112-45.45 3.817-42.414 9.732-85.982 24.283-126.139 8.058-22.238 27.144-44.022 48.41-54.799"/><path fill="#fefefe" d="M1244.84 256.835c22.41 14.404 34.06 21.351 62.12 16.679 21.87 32.854 70.07 28.49 92.21 56.366 31.38 39.504 36.04 123.468 40.95 173.705 1.9 20.625 3.72 43.87 4.58 64.307 2.13 46.664-7.06 86.582 12.36 131.032 1.65 3.771 3.36 83.399 2.43 88.002-2.66-2.419-3.25-40.009-6.64-47.682-10.99-2.072-12.41 23.886-21.32 26.249-1.81-1.684-2.02-4.925-2.22-7.416l-14.72-191.907-4.8-5.931c-.43-41.163 4.42-81.806-2.74-123.102-1.52-8.799.77-21.838-4.31-29.557-3.26-1.981-1.55-1.565-5.31-1.345-5.45 5.575-2.4 16.185-1.52 23.406 5.71 46.859 2.5 93.593 1.04 140.489-8.58 3.856-14.23 6.067-23.16 9.036-53.58 16.3-130.72 13.203-180.78-12.074-1.13-9.874.03-29.56-.02-40.383-.13-27.521.16-58.985-2.98-86.375 6.06-7.121 32.73-24.694 26.09-32.95-1.72-.486-4.05-1.434-5.83-.371-38.97 23.346-51.9 68.893-70.69 107.638-1.42 4.518-3.39 9.627-4.58 14.142-8.82 33.448-24.61 61.73-40.99 91.952-9.36 17.282-17.63 35.718-26.72 53.432-7.15-5.591-27.04-27.901-25.05-37.188 3.11-14.551 10.43-30.067 15.22-44.49 8.22-24.734 16.41-49.467 24.96-74.092 5.69-16.352 13.81-31.969 19.05-48.498 10.92-37.327 19.5-75.667 32.19-112.563 2.67-7.747 11.23-20.358 16.85-26.332 20.65-21.945 71.18-31.236 93.4-48.686l1.11-.878c-.69-6.782-.26-17.527-.18-24.615"/><path d="m1293.69 351.362.98.148c1.66.374 5.13 1.434 5.78 3.251 2.67 7.497 3.61 21.774 4.67 29.449 5.17 37.401 16.19 145.898 6.62 179.092-4.14-.004-4.88.273-8-2.146-1.59-5.233 0-24.528.12-31.152.74-42.722-3.26-84.309-8.14-126.672-1.42-12.291-6.85-41.74-2.03-51.97"/><path fill="#fefefe" d="M858.546 301.15c18.68 3.214 46.64 22.449 56.472 38.441 27.286 44.381 33.329 97.449 51.676 145.439 4.724 12.359 10.257 24.222 14.74 36.819a3859 3859 0 0 0 27.336 76.178c3.81 10.173 12.99 34.837 18.17 43.289 7.92 12.886 25.16 33.303 35.22 45.817-1.54 17.674-6.85 38.41-9.99 55.901-15.66-14.504-31.08-26.228-47.75-39.367-2.64-8.968-3.48-24.783-7.336-32.449-26.509-52.71-56.108-101.915-73.861-158.786-3.047-9.758-12.077-25.489-16.731-35.539-8.873-17.355-14.068-37.423-29.997-50.04-6.923-5.483-19.828-25.296-28.988-18.707-1.697 9.867 19.144 23.92 27.307 36.621-3.273 23.227-6.839 46.231-7.152 69.713-.233 17.406-.013 34.742-.045 52.146-32.701 9.738-62.159 18.826-96.391 20.058-30.51 1.099-53.959-1.461-83.417-9.67-8.065-2.247-17.866-3.695-24.092-9.448-1.199-2.091 2.382-45.454 2.266-52.634.704-13.893 7.724-96.667 6.084-102.029-2.325-2.747-1.4-2.429-4.383-3.453-5.012 2.026-6.916 8.959-7.418 14.032-4.666 43.233-5.011 86.899-8.045 130.198-3.156 45.029-11.464 90.267-13.906 135.361a2476 2476 0 0 0-3.077 97.364c-.105 7.135 3.467 22.267-4.756 23.925l-1.751-.884c-1.009-14.036 5.927-63.075-9.065-69.251-18.702-7.705-14.687 47.681-19.075 58.682l-.922.249c-.188-.636-.457-1.454-.573-2.133-1.948-11.428 10.913-102 15.457-108.16 2.001-2.714 4.23-5.606 4.879-8.993 1.994-10.417.37-23.861.217-34.49-.434-30.022-2.369-61.209-.371-91.096 1.21-18.096 3.916-36.182 5.682-54.241 4.107-42.02 7.465-83.074 19.293-123.855 7.735-26.671 19.384-50.836 44.796-64.789 2.554 16.493 9.826 43.882 28.504 19.229.853 9.075 1.137 21.968 11.529 25.5 11.663-.259 12.558-14.962 13.858-23.66 18.037 17.9 27.835 5.199 31.042-14.57 11.53 19.845 35.788 34.493 37.41.464 5.563 7.463 19.466 20.915 23.878 4.24 3.228-1.863 6.224 7.311 16.814 7.595 9.922-4.247 7.53-20.173 6.462-29.017"/><path d="M765.657 353.551c4.604-.031 6.67-.561 9.269 3.452.132 5.559-3.801 27.051-4.79 34.379a1129 1129 0 0 0-5.996 61.141c-1.299 19.807-1.033 40.872-1.866 60.485-.466 10.974 1.955 42.917-.171 49.539-2.137.466-5.129.922-7.032-.323-1.997-1.307-2.677-3.517-3.037-5.702-4.626-28.073 2.152-186.08 13.623-202.971"/><path fill="#fefefe" d="M1186.79 577.267c66.05 29.069 152.43 35.96 217.95 1.907 1.39 20.43 4.18 42.079 5.74 62.915 4.99 66.867 9.6 134.511 10.87 201.56.25 13.273 2.07 35.872.33 47.739-3.41 3.42-16.11 7.041-21.34 8.694-44.72 17.374-126.94 18.755-173.86 11.55-18.73-2.875-41.62-9.53-60.62-13.883 1.5-69.265.17-138.193 8.47-207.317.9-7.49.53-16.009 1.52-23.419 3.78-28.134 4.59-62.67 10.94-89.746"/><path d="M1211.97 666.38c5.69 1.274 9.87 6.43 13.73 10.419 30.07 31.156 69.03 56.623 113.96 55.507 5.95-.148 12.86-.326 18.75.451 2.61.344 3.46 2.141 4.57 4.071-.48 3.972.04 2.425-2.56 5.962-20.17 1.31-44.29 1.471-63.74-4.948-25.84-8.533-51.05-26.898-70.76-45.208-6.27-5.832-13.28-11.028-17.26-18.699.32-4.332.61-3.52 3.31-7.555"/><path d="M1261.63 675.379c5.89.389 22.63 13.893 29.54 17.974a91.5 91.5 0 0 0 16.1 7.332c16.09 5.493 29.34 5.263 45.83 5.49 3.07.042 3.91.906 5.61 2.798.32 3.292.01 3.493-1.7 6.516-14.56 3.023-35.14 1.158-49.4-2.877-13.15-3.722-41.34-18.751-48.07-30.784-.18-3.841-.17-2.59 2.09-6.449"/><path fill="#fefefe" d="M610.842 497.935c2.401 3.585.226 16.451-.44 21.233-4.604 33.088-3.609 65.159-2.565 98.507-7.304 13.535-17.559 20.88-24.875 33.56-4.782 8.288-8.769 19.723-13.039 28.525-6.952 14.332-16.844 34.302-26.073 47.08-13.805 19.11-31.949 37.035-44.01 57.781-6.382 10.978-10.66 27.445-16.653 38.175-8.933 15.996-19.274 27.102-26.034 45.249-7.02 18.843-9.031 37.467-18.139 55.401-9.983 19.657-33.325 33.301-41.998 51.562-10.797 22.733-10.272 59.532-21.866 81.902-8.49 16.39-23.166 29.6-32.854 47.44-11.78 15.25-9.818 38.73-16.593 53.93-9.894 17.01-22.878 31.27-27.78 51.12-.65 2.63-1.44 17.33-4.053 17.24-27.216-.93-69.891-8.13-94.54-17.99 5.069-17.65 10.622-33.31 17.004-50.4 8.002-26.91 25.82-68.22 40.696-91.96 10.769-16.42 23.115-31.48 31.795-49.24 15.355-31.247 22.298-66.739 39.901-96.985 20.362-34.987 45.789-65.644 61.97-103.102 3.493-8.086 19.557-45.285 25.991-49.245 3.602 2.241 8.793 3.672 13.161 3.504 19.561-.751 39.342-4.665 58.963-3.057 4.598.377 6.503 1.813 11.22.707 3.193-2.394 2.224-1.108 3.628-4.887-1.604-18.478-66.145-5.915-81.646-7.102 5.075-13.1 31.027-50.876 39.028-63.065l70.052-107.062c28.547-43.491 28.633-61.538 79.749-88.821"/><path d="M513.033 639.129c14.811 2.394 47.519-1.684 57.597 4.259 3.713 5.151 2.14 7.664-2.673 10.767-11.43.254-53.437 1.549-61.199-4.439-2.807-6.551.41-8.308 6.275-10.587m-91.426 221.442c6.854-.485 16.95-2.136 22.607 1.324 10.546 15.597-19.974 12.566-27.197 12.95-7.586-.041-18.078 2.887-23.756-2.91-.721-13.024 19.248-10.951 28.346-11.364M252.412 1114.37c9.932 1.13 44.185-6.58 41.699 10.47-2.737 2.64-3.208 2.63-6.897 3.97-12.237-1.26-33.445 2.13-41.107-3.4-1.804-3.48-1.376-2.03-.935-6.3 2.633-3.52 2.717-2.77 7.24-4.74m42.251 45.12c5.724-1.08 8.405-.5 11.063 4.6-1.199 12.36-20.824 10.71-30.309 10.38-6.739.82-17.177-2.97-12.567-10.63 5.794-4.05 22.93-3.6 31.813-4.35m56.64-195.056c8.509-.28 35.12-3.726 37.247 5.85-.767 3.563-1.458 4.034-4.067 6.66-10.165-.025-21.293 1.224-31.317-.064-5.709-.734-7.147-3.197-8.006-8.359 1.92-3.018 2.422-2.503 6.143-4.087"/><path fill="#fefefe" d="M1452.07 496.03c5.99 2.877 13.81 9.765 18.85 14.176 36.27 31.731 56.49 78.172 79.84 119.257 9.33 15.821 21.71 30.409 30.33 46.613 21.01 39.512 40.76 79.699 62.17 119.023 10.55 19.361 24.76 36.713 34.71 56.316 4.37 8.609 7.68 19.417 11.1 28.541l17.35 45.553c-10.72-2.108-39.1-7.195-47.1.396-1.25 3.246-1.43 2.232-.46 4.798 9.04 5.654 32.6 3.069 43.77 3.811 2.31.153 1.88-4.221 5.11-6.548 31.72 60.175 64.4 120.114 99.27 178.544 16 26.82 24.65 53.26 36.28 81.75 3.82 9.42 7.79 18.21 8.67 28.43-25.34 11.67-69.15 19.88-96.98 22.18-8.03-25.9-11.26-50.96-25.66-75.5-4.51-7.69-10.97-14.22-15.62-22.01l-.5-.86c.53-11.76-1.39-37.91-6.63-47.96-9.32-17.88-32.01-29.89-41.68-50.18-13.43-28.17-15.02-60.745-26.31-89.16-4.77-12.028-26.12-24.999-32.93-38.936-12-24.511-16.2-55.629-27.53-79.996-11.18-24.059-35.09-42.44-48.43-67.297-10.96-20.422-17-34.85-25.47-56.546-8.22-21.095-15.27-44.203-29.41-61.809-6.1-7.584-12.22-14.549-18.7-21.824-.79-17.814 1.36-38.542.74-57.821-.77-24.265-4.34-49.431-4.78-72.941"/><path d="M1774.5 1136.51c12.84-.1 26.48-1.2 39.2.88 4.55.74 3.65 6.76 1.96 9.84-4.87 4.25-11.81 3-18.41 2.77-11.49-.12-38.48 3.5-45.64-2.65-1.06-3.34-1.01-1.92.29-5.52 5.14-5 15.23-4.71 22.6-5.32m-248.99-485.221c7.04.018 23.16-.48 27.39 5.212.11 2.971-.13 3.097-1.88 5.677-5.11 1.549-29.2 1.595-35.41 1.776-6.76.395-22.1 2.195-26.7-2.854-.32-3.455-.44-2.113 1.07-5.405 6.66-3.745 26.68-3.765 35.53-4.406m85.01 159.147c6.46-1.327 24.13-1.92 27.54 5.274l-1.24 1.969c-6.58 4.424-20.91 4.249-29.57 5.251-6.06.461-27.68 3.027-29.32-4.406 5.65-7.72 23.79-7.501 32.59-8.088m144.09 260.024c7.9-.46 28.82-.9 32.43 7.69-2.52 7.66-14.17 6.28-20.66 5.44-8.25-.51-26.95 1.65-32.14-3.46-.38-3.39-.56-2.04 1.27-5.27 5.63-3.96 12.36-3.93 19.1-4.4m-293.98-515.043c8.27-1.129 43.6-2.124 45.2 8.276-1.11 2.963-2.24 3.299-5.03 5.18-12.05-2.541-35.57.631-42.54-5.607-1.1-3.009-1.14-3.104-.37-6.276zm79.93 166.105c5.26-.91 26.71-2.709 25.11 5.866-5.62 5.218-12.75 4.842-20.34 5.475-6.71.017-13.83.939-20.53.844-4.2-.059-3.87-.388-6.08-2.824-.74-3.49-.93-2.142.32-5.3 5.11-4.252 14.68-3.745 21.52-4.061"/><path fill="#fefefe" d="M1183.34 914.343c13.83 2.397 28.23 7.888 43.15 9.462 6.6.697 46.4 4.486 48.96 5.78-1.3 36.836 1.16 73.995-2.84 110.895-.36 3.34.42 6.04-.64 9.37-4.08-5.31-3.36-17.55-9.66-21.12-3.7.33-2.47.14-5.85 2.82-2.61 4.58 8.23 43.63 9.34 52.39 6.46 51.26-7.06 101.6-15.28 151.98-5.33 32.65-8.94 72.27-9.81 105.86-1.51 3.64 1.82 3.46-1.3 8.81l-2.39.6c-2.41-.53-15.28-7.71-18.11-9.37-11.26-6.55-42.87-15.01-50.64-21.05l.08-2.61c1.44-1.97 1.5-2.85 4-3.3 7.32-1.33 23.8-.26 29.9 3.52 1.86 4.5 1.75 4.94 6.19 6.46 6.98-2.04 5.07-6.99 4.97-12.34-.45-24.17-2.82-48.14-4.42-72.22.1-2.65-2.33-6.01-2.42-8.39-1.7-45.49-9.26-90.25-12.1-135.77-3.24-38.51-5.94-77.04-8.97-115.575-1.69-21.559-1.11-44.436-2.16-66.202m-304.054.829.491.017c2.629 1.629 1.947 10.105 1.721 13.507-6.999 105.134-22.835 209.614-29.696 314.864-1.116 17.12-8.234 66.72-3.042 81.62 4.811 4.21 8.177-2.83 10.453-6.74 11.098-4.79 13.986-4.64 25.92-4.95 2.811 2.48 4.976 3.86 6.206 7.33-3.269 3.96-30.129 12.63-36.869 15.89-8.772 4.24-20.181 9.93-29.247 13.43-3.576.9-2.511 1.2-5.299-.03-1.627-3.72-1.69-8.51-1.317-12.5 7.001-74.91-18.74-146.9-22.543-221.35-.079-1.55.839-7.67.844-7.66-5.488-15.81 13.587-75.97 2.326-85.23-8.527-1.07-9.085 12.86-10.591 19.74a1211 1211 0 0 1-4.686-115.395c34.551-2.914 60.523-3.67 95.329-12.543m-192.318 4.58c4.29.034 19.943 3.09 26.21 3.91 15.363 2.01 30.666 2.5 45.696 4.403-.985 34.818-4.836 66.209-12.447 99.965-.56 9.05.189 19.57.274 28.52.748 78.36-15.787 156.35-27.711 233.51-2.596 16.8.881 35-2.144 51.64-.504 2.78-1.965 3.46-4.162 4.44-6.822-.24-10.794-3.37-16.192-7.18-6.286-3.73-42.188-19.21-43.358-21.12 3.479-3.83 13.371-3.7 18.35-4.29 10.459-1.25 4.521 2.29 11.757 8.58 14.182.94 5.693-50.81 4.889-60.66l-7.066-82.97c-3.656-45.8-6.158-91.68-7.501-137.61-1.296-35.92-2.873-68.343-1.56-104.377 3.413-4.762 10.765-12.235 14.965-16.761m697.122-2.577 2.93-.5c2.8 1.242 2.35 3.822 2.39 6.971.9 77.084-3.3 155.144-6.98 231.744-1.07 22.21-14.43 151.4-10.07 161.43 5.28 4.13 12.87-6.44 19.92-5.66 4.37.48 14.91 2.06 15.19 7.58-6.3 4.64-30.91 13.98-41.41 20.15-4.98 3.21-14.79 10.51-20.67 7.49-1.34-2.9-.78-52.52-1.78-62.1-3.04-29-7.15-57.87-12.33-86.56-4.85-26.74-11.43-57.38-14.47-84.01-1.53-13.79-2.2-27.65-2.02-41.52.58-33.42 2.17-48.01-9.05-79.935-3.7-10.521-1.68-52.277.48-64.366 26.93-1.175 51.69-4.148 77.87-10.714M820.657 644.743c1.054 6.213-6.483 30.632-8.949 38.653a593.6 593.6 0 0 1-125.983 221.052c-6.669 7.521-27.256 30.298-35.903 34.873-2.429-3.824-.626-39.255-.469-46.217.267-11.929-.98-25.969-.894-37.672l.604-63.091c.063-5.437-.674-29.833 1.163-32.922 1.546 3.425.587 2.666 3.395 3.861 11.394-.58 25.902-13.476 33.953-21.2 19.294-19.593 33.844-41.646 48.864-64.592 4.623 5.641 10.455 12.868 16.311 17.036-23.789 45.442-56.34 84.007-96.621 114.03-2.146 1.599-3.087 6.289-.293 8.617 25.333 2.414 99.76-96.271 108.346-120.762 1.792-5.109 12.813-27.876 15.798-30.326 6.727 4.62 11.6 17.355 17.252 20.456 1.762-1.215 20.272-36.653 23.426-41.796"/><path d="M791.268 697.475c3.361.359 3.693.226 6.034 2.414 1.147 5.921-12.974 36.663-15.965 43.518-24.292 55.671-65.624 126.397-118.881 158.063-3.102-.472-3.993-1.139-5.65-3.618.654-5.318 8.717-10.126 12.797-13.446 42.231-34.37 72.438-81.473 95.193-130.401 8.799-18.922 16.639-38.255 26.472-56.53"/><path fill="#fefefe" d="M1042.82 1059.08c6.48 7.56.68 27.63 9.3 38.09 7.34 3.22 10.89-3.63 14.71-8.97a80 80 0 0 0-.29 3.48c-.73 11.68.89 28.36 9.07 37.48 7.33 2.92 6.99-1.65 13.16-3.57 4.83 15.37-.53 30.84 10.42 42.49 6.98 7.43 11.21-5.17 15.55-5.14 1.16 7.76-4.71 62.13-6.25 71.64-4.2.41-9.06 1.2-12.98.5-10.4-1.88-20.6-5.24-31.07-1.81-1.79.59-7.99 5.93-8.89 5.48-10.25-5.13-13.52 1.22-23.08 5.23l-1.52-.88c-14.94-10.82-25.2-14.43-42.212-5.11-12.443-11.87-22.757-4.73-36.534.9-.115-12.9-.772-65.43 1.205-75.65 2.578-.76 10.31 8.06 15.338 6.54 14.691-4.42 4.421-25.48 9.124-31.28 2.464 1.74 3.602 2.95 6.48 3.24 1.847-.41 4.793-1.25 5.836-2.77 7.27-10.55 9.307-42.86 8.859-54.52 30.844 10.9 20.394-2.29 31.144-20.82 6.12-.99 7.8-.36 12.63-4.55"/><path d="M1024.37 1129.49c1.79.26 3.33.72 5.07 1.19 5.64 6.38 2.57 44.27-1.5 50.53l-5.66-1.65c-1.44-1.57-2.56-2.5-2.49-4.81.3-10.06-.91-37.82 4.58-45.26m-35.865 39.9c1.71.71 3.044 1.53 4.639 2.44 4.526 6.89 5.924 38.23 4.942 47.72-.216 2.09-2.508 2.9-4.487 4.15l-3.398-1.11c-3.936-6.91-4.268-34.87-4.972-43.97-.311-4.02.716-6.16 3.276-9.23m84.945-5.92c12.41.87 9.23 14.11 8.63 23.4-.36 5.7-1.58 15.33-3.35 20.64-4.25.26-6.49.63-9.33-2.6-.67-6.71 1.05-36.07 4.05-41.44"/><path fill="#fefefe" d="M789.324 771.375c3.458 2.359 9.892 14.257 12.614 18.513 9.581 14.981 20.371 29.095 30.734 43.499 17.497 24.317 38.574 44.57 58.263 66.654-23.253 8.217-65.948 13.139-90.686 14.694-33.266.343-70.208 2.337-103.035-5.48 4.993-8.49 29.582-35.845 37.635-46.718 23.374-31.558 36.419-56.792 54.475-91.162m86.575-148.638c13.592 10.453 26.751 191.951 25.759 220.335-.308 8.827 2.1 42.817.693 50.738l-1.048-.059c-46.601-46.239-71.303-80.46-106.285-135.043l4.717-11.563c6.353 9.178 12.752 20.826 19.014 30.438a324.7 324.7 0 0 0 45.859 55.631c3.997 3.906 14.267 15.33 19.511 12.864 1.215-2.642 1.062-7.43-.855-9.537-11.99-13.18-24.619-25.239-36.394-38.745-16.537-21.894-27.036-39.986-42.082-61.143a751 751 0 0 0 7.94-21.189c17.668 24.429 38.267 52.141 59.894 73.817 1.949 1.954 6.844 3.045 9.725 2.056l.546-1.912c-3.065-8.433-32.829-38.974-40.354-49.942-6.282-9.157-18.794-26.556-25.395-35.259 2.331-7.922 4.55-16.207 7.69-23.818 7.569 9.498 40.755 56.395 48.354 58.062 3.223-1.489 2.188-.531 4.18-3.436-.171-5.068-42.4-56.233-48.971-66.05.518-3.476 1.175-5.996 2.026-9.37 5.168-4.164 7.138-5.306 13.044-8.455 6.754 5.418 16.25 17.319 24.835 19.074l1.083-1.502c-1.464-6.896-8.408-14.558-12.927-20.078 6.621-6.134 13.861-18.05 19.441-25.914m67.239-254.908c31.483.023 55.034 18.687 83.122 17.333 38.7-1.867 48.03-20.451 91.3-16.232-5.82 13.469-13.45 45.061-17.44 60.575-1.74 7.472-3.81 14.127-6.05 21.445-25.78 2.852-58.06 13.237-80.94 8.671-12.87-2.568-31.236-11.375-45.972-13.905l-1.03-.17c-2.896-8.77-5.353-20.177-7.995-29.412a1759 1759 0 0 0-14.995-48.305"/><path d="M1016.15 393.042c13.89-.834 34.34 3.031 49.16 1.609 4.61-.442 11.29 1.199 12.47 6.528-1.6 3.169-1.79 3.193-5.01 4.988-12.2 1.6-52.71 4.69-59.23-6.381.26-4.401-.23-2.668 2.61-6.744"/><path fill="#fefefe" d="M653.8 658.696c6.846 7.834 10.182 12.239 18.07 19.336 5.26-4.348 9.453-7.628 15.033-11.545 3.384 6.601 13.522 26.8 19.378 28.928 1.823-1.479 2.632-2.057 4.615-3.318l.621 1.585c-2.733 8.227-17.65 26.606-23.764 33.611-6.613 7.332-28.185 26.496-37.661 28.267-3.943-5.975 2.405-84.693 3.708-96.864m550.23-467.185c3 4.307 8 8.607 11.86 13.627.43 2.925.34 3.652 1.86 6.084 3.44 1.895 2.03 1.722 5.63 1.362 6.75-5.72 10.22-6.047 14.43 3.372-.4 9.889-11.92 8.07-14.68 11.371 1.45 5.795 7.13 15.637 9.75 23.396.27 4.575-.03 11.859-.08 16.636-9.04-5.649-8.99-4.994-16.52-13.207-11.59-12.657-14.03-46.089-12.25-62.641m-336.248-9.704c.329.349.88 1.616 1.126 2.117-1.132 17.775-7.174 55.835-17.518 69.711-1.661-11.237-4.318-21.707-5.955-33.681 4.106-17.609-22.708-15.436-17.534-25.798 9.863-19.749 17.259-.522 20.969 10.046 11.932-6.214 13.172-10.836 18.912-22.395M1003.89 1244.9c9.35-1.06 18.05 6.64 21.33 14.76 6.76 16.74-4.04 16.6-15.47 18.81-8.59.63-15.128.16-23.693-.31.076-15.79 3.201-25.82 17.833-33.26m66.49.16c13.68-1.18 32.65 11.39 28.73 25.4-3.13 3.21-3.09 2.45-7.87 3.91-11.24 1.68-13.41 2.04-24.3-.97-2.35-12.87-8.65-19.43 3.44-28.34m13.82-225.15c3.01-.17 3.53-.38 6.25.67 4.48 7.18.04 49.29-1.61 58.6-1.02 5.77-3.03 12.31-3.6 18.66-1.32 3.47-1.08 4.6-3.73 6.56l-1.12-1.6c-1.42-10.01.92-74.23 3.81-82.89m-111.503 223.95 3.369.26c1.136.8 2.71 1.53 2.694 3.08-.076 7.1-6.106 23.96-10.048 29.21-3.669.68-8.11-.45-11.923-1.1l-12.409-2.7a64 64 0 0 1 1.779-5.38c5.191-13.57 13.861-17.74 26.538-23.37m87.803-251.048c2.82 1.348 3.03 1.374 5.09 3.639.3 7.819-2.66 62.779-4.55 68.309l-.41.55-1.11-.79a264 264 0 0 1-4.39-34.97c-.59-11.62-2.3-28.23 5.37-36.738m-54.65 26.088 5.11 1.52c3.14 3.94 3.83 49.53.81 53.83-1.51-2.3-5.01-5.76-6.99-7.78-1.91-9.94-2.96-38.26 1.07-47.57m99.65 63.5c1.52.05 5.91.15 6 2.21.69 16.09 1.58 47.6-5.07 62.12l-.72.89c-3.13-5.4-1.41-19.09-1.22-25.37.31-9.88-3.33-31.27 1.01-39.85m-146.759 11.95c3.564 1.46 2.811.56 4.621 3.33.446 5.15 2.253 48.3 1.353 50.31-4.767-2.37-7.353-4.52-8.106-10.16-1.466-10.96-3.864-34.31 2.132-43.48m73.489-104.039c1.08.464 3.4 1.501 3.76 2.427 3.94 10.062 1.46 40.222-.71 49.402l.3 1.44-.66.45c-6.1-10.1-8.79-43.6-2.69-53.719m-33.606-278.483c16.496 11.907 32.976 27.715 49.266 40.306.77.595.41 2.716.39 3.828-4-.026-7.23-2.797-10.22-5.269-12.69-10.48-26.57-19.716-38.8-30.689-1.543-1.385-.815-6.07-.636-8.176m-17.918 346.482c3.117 1.44 3.287 1.48 5.585 3.95.419 15.8-.564 37-3.178 52.36l-.822.66c-2.302-3.03-5.145-45.38-4.186-52.17.189-1.33 1.711-3.63 2.601-4.8m11.264-332.586c.929.618.645.358 1.327 1.031 12.083 11.923 26.133 21.66 39.413 32.173 2.48 1.964 5.07 3.638 7.15 6.044l-.49 3.202c-13.32-8.505-35.56-26.661-47.2-32.281-.609-4.305-.962-5.747-.2-10.169m113.57 520.936c8.8 1.27 25.57 8.08 25.28 18.5-19.88 4.07-17.44-1.25-25.28-18.5m-166.613 1.19 1.692-.11.524 1.23c-2.742 5.92-8.403 18.52-12.062 23.1l-6.859-.01-2.617-1.71c-4.838-9.56 12.323-19.14 19.322-22.5m107.023 3.06c4.3 2.9 3.93 16.35 3.86 21.3-1.74 1.52-2.03 1.33-4.31 1.6-2.24.14-2.89.44-4.83-.62-3.35-6.38-2.75-10.08-1.09-16.98.77-3.2 3.3-3.73 6.37-5.3M616.668 758.983c3.785 9.878.135 34.822.406 45.919.115 4.726-.771 5.459-2.19 9.462l-.894-.042-1.243-1.764c.211-12.234.628-43.143 3.921-53.575m827.472 7.595c2.58 3.666 4.88 33.599 3.39 38.524l-1.43.361-.94-.965c-1.05-8.007-4.9-32.15-1.02-37.92m-120.08-501.672c2.13 2.036 6.68 11.198 7.6 14.171l-1.12.241c-3.57-2.051-8.46-4.193-10.15-7.609.1-3.71.88-3.449 3.67-6.803m108.85 519.528.81.524c.85 11.032.12 23.548.76 32.567-3.6-7.428-2.82-23.171-2.9-31.968z"/><path d="m183.627 888.065.958-.11c23.843-2.489 14.492 45.225 31.01 58.767 13.753-.483 44.898-37.605 62.204-24.373 15.217 11.635-5.712 33.439-13.717 43.05-11.683 12.874-19.237 31.052-36.736 36.951-28.308 9.53-35.631-21.106-42.187-40.79-6.086-18.273-10.763-56.137-1.532-73.495m251.259-533.464c1.854.765 5.095 3.019 5.778 4.751 15.748 39.936 44.12 126.113-.987 154.461-51.279 6.437-22.131-143.384-4.791-159.212M240.376 773.94c18.142 1.471 14.254 35.424 29.578 53.307 8.536-4.025 58.909-45.06 67.36-17.329 2.433 7.985-15.326 27.608-21.684 35.43-7.309 8.588-12.547 18.706-19.835 26.917-14.386 16.208-40.493 16.062-48.65-6.472-8.76-24.2-28.978-70.584-6.769-91.853m54.522-124.282c12.998 3.288 25.203 42.02 31.067 55.22 10.762-8.566 51.972-35.385 66.204-24.371 11.168 8.643-13.571 33.48-20.387 40.191-10.664 12.521-26.311 44.181-46.363 39.264-33.822-8.296-41.105-71.731-37.12-100.693.667-4.85 2.693-6.984 6.599-9.611M511.071 478.85c10.887 1.352 11.347 10 8.952 18.573-7.728 27.664-30.215 89.644-54.898 105.105-3.575.799-5.251-.517-8.65-2.142-3.956-11.058-13.078-62.195-13.111-73.807 12.065-11.82 52.21-40.762 67.707-47.729M1838.6 662.574c16.35 3.203 9.77 44.464 9.76 57.224-.02 17.869-7.43 40.834-22.66 51.331-12.31 8.485-21.62-13.939-26.82-22.426-9.06-15.664-20.08-32.857-27.39-49.611-1.77-4.072-1.67-7.265 1.62-10.309 11.69-3.971 27.16 8.362 37.56 1.576 11.14-7.272 16.42-20.183 27.93-27.785M138.394 714.056c12.82 1.282 13.623 22.263 17.911 32.764 7.592 18.592 33.063 25.282 34.867 45.301 1.337 14.842-12.43 33.189-21.392 44.179-10.367 12.563-22.424 7.119-25.567-6.782-5.036-22.273-38.353-105.15-5.819-115.462M1632.33 457.639c2.04.058 5.23-.262 6.46 1.607 9.79 17.45 11.18 42.611 10.52 62.5-.38 11.387-5.67 45.2-21.91 44.13-7.12-.469-19.6-17.691-24.69-23.925-6.7-8.236-43.9-43.787-34.41-53.398 5.92-2.049 19.92 4.087 28.95 5.323l1.42.186c19.74-8.531 21.26-20.168 33.66-36.423M215.842 600.622c4.733.117 8.76.186 11.047 4.826 7.765 15.753 13.61 34.449 17.358 51.524 6.014 27.408 6.743 53.836-19.992 69.705-11.659 5.097-14.97-2.148-18.987-11.664-4.094-9.701-9.39-19.467-10.313-30.046-1.811-20.734 7.282-68.217 20.887-84.345m61.089-120.061c6.183 1.69 8.11 3.236 10.318 9.538 10.599 30.262 34.369 106.081-8.096 122.088-5.337-.387-7.644-.376-11.506-4.437-10.091-10.613-15.64-35.967-15.59-49.634.068-18.481 12.061-64.986 24.874-77.555M1881.65 879.804c4.26-.282 5.8-.473 8.58 2.752 5.91 19.835-19.39 78.581-31.8 96.249-13.01 18.515-17.78 6.29-23.42-6.515-5.9-12.691-22.78-51.867-21.69-66.137.91-11.929 22.63-2.001 32.4-3.851 13.92-2.637 23.29-13.94 35.93-22.498M350.265 506.647c14.139-1.214 14.657 18.636 20.307 24.322 28.628 28.807 53.38 53.891 21.329 92.493-6.224 6.071-18.448 11.404-23.577.984-9.361-19.02-39.006-104.208-18.059-117.799M1881.42 739.784c3.32-.371 3.55-.233 6.85.596 13.11 12.608-25.07 111.93-45.25 118.202-4.54-.534-2.78.101-6.66-2.666-5.6-17.665-11-44.767-14.94-63.251-.36-1.703.59-8.118.93-10.178 27.06-16.258 35.03-24.995 59.07-42.703m-167.44-341.383c9.56 2.372 18.39 23.72 21.15 32.608 8.36 26.987 26.03 74.694-7.55 90.597l-1.04.109c-29.98 2.862-33.01-45.254-30.73-65.638 1.51-13.544 9.85-47.66 18.17-57.676m61.52 122.211c4.26.166 6.42 1.338 7.91 5.459 6.66 18.385 13.53 40.244 16.87 59.366a196 196 0 0 1 2.53 25.231c.44 14.688-12.5 34.496-22.32 45.027-13.42 4.854-26.55-42.786-26.46-53.72.19-22.189 6.49-65.249 21.47-81.363m-307.41-88.966c18.04 2.483 36.89 21.133 57.32 18.625 8.9-1.093 19.53-11.486 26.36-6.339 6.39 12.297-4.98 51.592-8.77 64.861-1.74 5.946-8.09 21.744-16.59 13.751-23.96-22.556-48.82-51.596-60.81-82.511-1.24-3.199.8-5.869 2.49-8.387m223.8 230.926c13.12 2.408 23.87 14.939 38.47 17.744 13.24 2.546 34.31-18.091 41.91-7.11 1.44 9.066-12.22 36.602-16.53 46.105-2.64 6.25-10.11 20.423-14.54 24.279-13.17 11.453-34.1-27.7-39.12-36.336-6.65-11.441-14.48-24.231-14.89-37.228-.1-3.308 2.47-5.473 4.7-7.454M1663.9 526.77c14.59 1.765 31.34 15.544 47.98 15.855 9.03.169 21.72-5.819 28.03-4.312 9.13 6.987-5.56 50.298-8.83 60.758-1.24 4.081-3.67 12.859-8.17 12.727-20.13-.591-37.42-34.759-47.66-49.31-7.03-9.981-9.99-17.832-14.67-28.324-.58-1.298 2.62-6.262 3.32-7.394m-53.65 88.198c13.54 3.203 30.67 15.133 47.31 16.372 12.69.945 18.71-8.95 27.82-5.996 6.63 8.134-10.94 48.573-15.38 58.96-3.18 6.417-7.77 15.107-15.62 15.11-16.5-8.425-39.53-53.65-50.35-70.651-1.99-3.125-2.18-5.834-1.01-9.279 2.61-3.025 3.34-3.026 7.23-4.516m128.44 188.708c10.91 4.37 24.76 15.488 35.62 17.079 21.27 3.116 38.89-14.687 33.8 21.514-1.96 13.906-3.06 27.929-8.69 41.653-6.7 9.002-12.02 9.302-20.15 1.675-16.59-15.577-28.14-35.776-39.96-54.99-3.37-5.478-8.99-15.054-7.39-21.617.72-2.761 4.3-4.08 6.77-5.314m-73.64-67.207c9.23 1.491 24.92 18.387 39.65 20.987 9.27 2.648 26.87-4.55 34.55-.931 10.39 4.892-9.62 41.439-13.05 47.478-3.81 5.5-9.63 13.799-16.68 14.518-14.91-4.804-41.61-52.107-47.6-67.053-2.86-7.137-2.56-10.251 3.13-14.999m61.65 148.181c4.16.281 21.17 13.773 26.64 17.49 7.87 5.345 36.14 7.706 37.12 16.053 1.9 16.206-1.52 39.892-9.49 53.752-15.3 12.079-36.31-28.048-43.58-38.783-7.07-10.442-18-30.651-17.59-42.985.09-2.86 4.86-4.657 6.9-5.527"/></svg>