<svg xmlns="http://www.w3.org/2000/svg" preserveAspectRatio="xMidYMid meet" viewBox="0 0 2048 2048"><path d="M1054.46 122.766c501.56 14.759 895.72 434.128 879.41 935.634-16.32 501.51-436.91 894.37-938.368 876.49-499.256-17.79-890.018-436.14-873.773-935.449s433.376-891.368 932.731-876.675"/><path fill="#fefefe" d="M1007.5 169.393c6.05-.568 25.89.03 32.97.393 20.72 1.061 47.04.572 67.13 3.559 5.29 24.455 9.18 55.127 13.55 80.166l30.72 185.993c3.68 23.179 8.54 45.86 11.46 69.258 1.42 11.485 4.3 19.951 3.61 31.965 22.3 1.084 32.36 6.837 51.08 17.503-5.29-59.929-22.2-123.182-28.51-183.596-1.26-12.087-8.27-25.859-7-37.492 1.46-13.464-4.97-24.852-6.43-38.154-4.93-39.368-14.69-80.001-18.34-119.364 20.72 5.572 44.5 6.62 65.31 12.068 43.93 11.504 87.74 24.834 129.9 41.641a848.3 848.3 0 0 1 356.35 265.084c92.64 118.832 159.69 280.667 172.33 431.246 1.03 12.259 5.87 32.264 3.42 43.83-7.26 5.49-82.2 21.673-96.07 25.047a25074 25074 0 0 1-264.88 63.99L1383 1095.9c-15.53 3.52-41.54 11.48-55.68 12.66-.41-.31-.81-.62-1.22-.93-12.9-84.32-31.67-224.707-43.86-302.312-5.04 21.056-15.23 38.517-19.47 58.552-2.06 9.713 1.68 34.015 1.8 45.894.23 20.392-3.77 40.488-3.71 60.181.02 7.354 4.44 27.714 5.56 36.525 4.66 36.68 9.85 77.55 16.73 113.83-37.8 11.25-79.14 17.08-116.93 28.31l-1.25-11.39c6.36-8.24 18.26-15.92 26.82-25.81 10.75-12.93 19.2-22.87 26.99-38.09 31.01-60.51 27.86-148.473 26.19-215.091 27.22-38.227 35.76-100.726 31.34-147.028-4.49-47.036-18.91-102.442-57.02-133.316-12.52-10.146-43.83-25.974-59.4-24.278l-2.09 2.9c-.16-.067-27.8-25.328-31.04-28.053a153 153 0 0 0-31.43-20.485c-62.82-30.095-185.197-13.277-250.425 8.799-45.552 15.416-96.929 54.599-117.207 99.429-31.527 69.702-22.266 147.335 2.719 217.561 5.457 15.336 12.55 29.367 18.063 44.666-9.112 18.825-11.501 38.051-8.777 58.834a378 378 0 0 0-5.846 5.335c-16.893 15.764-23.909 35.351-24.082 58.297-.599 79.35 76.733 144.91 152.301 147.12q2.066 8.85 3.546 17.82c-5.98 4.21-14.67 12.39-20.511 17.34-14.237 12.06-28.492 23.54-41.09 37.36-7.925 8.69-13.909 18.04-21.552 26.64l-.798.88c-22.053 6.98-56.854 14.46-79.786 19.4a2784 2784 0 0 1-22.029-127.96c-2.165-13.84-3.61-27.93-5.98-41.73l-93.344-560.498-26.182-162.475c-2.105-13.061-5.092-45.427-9.008-56.057 38.927-29.645 81.186-48.344 124.32-69.196 83.746-40.484 169.902-60.804 261.608-73.74 24.829-3.502 51.012-4.265 76.23-6.401M502.472 345.895c4.267 12.537 9.472 54.226 12.036 69.305l31.468 190.4c.677 4-.392 9.339.193 12.459 1.505 8.036 3.497 16.327 5.153 24.4 1.624 7.918 1.607 20.268 4.373 27.135 3.785 8.985 2.582 16.758 3.867 26.819 3.759 29.414 7.346 60.462 14.148 89.227 2.033 8.599 2.487 12.091 3.496 20.281 6.242 50.708 15.681 101.134 23.555 151.634.338 2.161.489 6.475-.001 8.61-1.696 7.395 3.082 10.47 4.338 17.28l16.495 93.635c3.114 18.18 4.424 39.77 7.926 57.33 9.283 46.55 14.657 94.79 25.718 140.78-9.862 4.15-26.642 7.51-37.434 9.98l-73.752 16.22-186.367 43.11c-16.434 3.7-32.535 8.18-48.911 11.54-22.211 4.5-45.55 10.92-68.036 15.83-9.609-20.26-14.894-36.73-22.509-57.78a860.25 860.25 0 0 1-42.685-402.998c29.847-224.253 147.42-427.514 326.929-565.197"/><path fill="#fefefe" d="M1118 643.463c19.75 11.681 28.67 4.357 44.62 25.945 26.33 35.637 43.88 71.352 55.88 113.843-22.49-.764-43.75.275-64.42 10.379-8.68 4.242-20.31 10.481-16.91 22.148 1.05 3.618 1.97 4.862 5.27 6.829 13.08 1.688 65.47-15.237 79.85-20.441 3.32 13.299 7.47 44.456 7.79 59.451 1.2 55.704 1.83 123.84-13.85 177.723-6.49 22.3-20.26 43.2-35.21 59.89-37.39 41.93-95.21 59.25-149.5 44.78-11.83-3.16-24.74-11.98-32.597-11.55-18.32 11.85 20.077 23.9 28.147 26.22 45.97 13.21 80.86 6.77 121.99-14.58 1.25 31.56 10.44 63.77 14.02 90.98 3.73 28.3-35.6 99.27-50.28 123.73-8.98 12.67-17.24 24.15-28.8 34.56-50.19-35.64-104.113-69-155.447-103.23-5.515-3.68-12.036-8.13-18.345-10.15-5.425-20.26-9.374-41.35-14.16-61.83l-32.756-143.48c-5.045-22.77-9.077-46.01-15.374-68.49-1.228-4.38-26.449-7.491-31.7-9.556-3.414-1.344-8.507-2.973-12.133-4.436-33.143-13.366-52.887-48.808-47.913-83.787 2.786-19.598 18.96-38.912 39.279-35.24 21.532 1.544 32.199 31.714 40.766 33.517 7.269-2.001 31.678-23.146 39.524-29.362 56.538-44.796 109.542-91.39 159.609-143.449 27.32-28.41 55.2-62.775 82.65-90.414"/><path d="M1019.77 796.453c9.82-.295 69.6 1.631 52.8 28.702-1.54 2.48-30.93.315-39.32-.094-18.21.055-36.542-1.882-55.075.043-2.767.287-3.995-.891-5.748-2.667-.33-16.659 34.033-25.235 47.343-25.984m93.35 66.256c3.31.048 3.65-.25 6.36 1.686 6.33 9.872 29.87 86.868 29.81 98.424-4.08 8.092-31.92 20.063-41.01 23.686-5.5-.502-8.84-2.727-9.13-8.568 3.35-9.326 24.64-14.437 33.9-20.571-5.79-24.482-13.95-48.14-22.22-71.864-3.64-10.436-8.34-15.686 2.29-22.793m-330.217 32.969c23.473 5.009 52.618 58.499 55.585 80.734-.651 2.597-1.44 4.613-3.898 5.991-9.156 5.134-15.375-13.766-17.568-18.994-3.324-7.914-5.068-11.856-9.439-19.166-4.308 7.097-6.744 16.246-12.409 22.035-3.327.979-3.106.903-6.57.46-9.026-7.355 5.645-30.531 10.28-38.021-5.834-7.148-20.974-18.62-21.21-25.966 1.201-3.756 2.367-4.404 5.229-7.073m249.797-46.199c5.79-.414 8.89-.32 14.31 2.578 5.2 2.739 9 7.557 10.44 13.256a20.1 20.1 0 0 1-2.46 15.405c-4.3 7.037-8.82 8.317-16.15 10.167-22.76 2.544-36.66-33.349-6.14-41.406m149.4-7.128a20.93 20.93 0 0 1 16.21 5.438 20.92 20.92 0 0 1 6.76 15.713c-.16 10.528-8.1 19.305-18.56 20.501a20.94 20.94 0 0 1-16.02-4.915 20.9 20.9 0 0 1-7.29-15.09c-.43-11.081 7.86-20.573 18.9-21.647m-36.07 179.789c3.1-.31 4.36.64 6.74 2.13 10.61 15.74-19.31 17.77-28.15 18.36-13.18.89-26.01-.55-38.84-3.47-6.29-1.53-8.41-1-11.51-6.68-.18-5.03 1.85-9.18 7.28-8.45 24.02 3.24 40.69 5.41 64.48-1.89"/><path fill="#fefefe" d="M1882.95 1023.15c1.96-.12 1.2-.15 3.16.69 5.26 14.86-7.37 124.84-10.77 147.18-4.84 22.64-9.94 45.29-15.39 67.8-.92 4.5-2.41 9.28-3.11 13.79-2.5 16.04-8.61 29.8-13.61 45.07a832 832 0 0 1-61.95 143.16c-37.63 68.51-82.13 133.17-137.2 188.79-8.34 8.42-14.31 15.59-24.7 21.67-3.43-16.73-6.81-39.73-11.38-55.8-20.48-72.05-55.1-146.91-100.93-206.07-23.91-31.09-50.87-54.63-80.27-79.89-32.09-30.16-74.85-44.6-109.99-70.22-26.44-19.28-50.69-39.89-78.13-58.3 4.93-1.47 9.84-2.85 14.81-4.18 52.4-14.05 105.22-26.2 157.72-39.77 34.92-9.02 69.84-16.51 105.15-23.74 16.48-3.37 33.38-9.9 49.84-13.86zm-711.59 251.44c2.89 3.07 16.7 82.22 18.47 91.67 26.56 134.99 53.99 269.81 82.3 404.44 3.1 14.81 6.05 29.65 8.88 44.51 1.89 10.12 3.6 22 6.66 31.65-.66.38-1.33.74-2 1.09-8.41 4.36-24.45 8.22-34.36 11.04-60.27 17.21-122.07 26.12-184.5 30.19-5.76.37-16.28 1.5-21.27-.05-5.23-4.52-18.24-85.35-22.51-99.52l-.57-1.85c-4.24-17.72-6.29-30.78-9.91-47.44l-32.071-148.55-66.727-294.15 124.018 83.01c9.72 6.41 39.3 26.96 47.63 30.44 39.05-21.34 68.75-97.44 85.96-136.48m-499.939 44.54 1.068.16c-.531.91-46.098 31.41-51.801 35.6a371 371 0 0 0-45.805 39.56c-79.005 81.46-109.351 173.7-107.746 286.41-27.019-22.63-54.619-51.98-79.398-77.26-7.97-8.13-15.272-18.84-23.063-27.59-29.474-31.6-88.813-121.66-105.408-161.47 29.795-5.82 68.292-16.04 98.193-23.31l140.151-32.62 112.948-25.51c14.954-3.3 47.889-9.34 60.861-13.97m35.716 2c5.972 8.82 13.447 81.13 15.698 95.99a9523 9523 0 0 1 37.685 257.79l14.793 104.8c1.57 10.44 12.115 68.76 8.396 73.08-3.175-.52-5.502-.53-7.951-2.52-4.666-20.87-6.797-41.4-9.789-62.45-2.663-18.72-5.55-37.51-8.264-56.25l-35.273-249.81-19.28-131.32c-2.155-14.7-9.668-20.55 3.985-29.31m-34.641 57.45c2.175 2.12 12.392 82.19 13.626 91.02l35.596 259.13c3.139 22.27 8.684 43.15 10.488 66 1.06 13.44 6.007 28.04 6.43 42.53-2.485 1.18-2.326.61-5.675-.06-6.1-3.15-6.88-5.74-7.761-12.08-2.919-21-5.677-42.05-8.805-63.02l-28.566-203.24c-4.371-28.48-8.429-57-12.175-85.57-3.505-24.86-6.864-49.88-8.272-75-.422-7.52 2.243-12.94 5.114-19.71m716.654 4.04c2.08.13 4.18.39 6.26.61 4.1 3.8 43.58 205.88 48.73 229.75 7.63 33.85 14.78 67.8 21.45 101.84 3.13 15.19 6.92 31.69 8.99 47.05.42 3.19-.08 2.65-2.39 5.18-3.51.58-3.66 1.21-6.48.08-4.87-20.54-8.56-42.14-12.92-62.91l-32.96-160.49-21.8-105.01c-3.38-16.12-6.96-32.38-10.27-48.53-.78-3.83-.1-4.45 1.39-7.57"/><path fill="#fefefe" d="m1207.31 1185.1 6.62.61c45.21 29.45 91.7 65.52 129.31 104.28-15.32 17.61-34.97 34.95-51.34 53.54 12.27 5.46 27.87 14.29 38.07 23-2.36 2.6-4.69 5.92-7.65 7.16-16.48-10.06-32.04-18.42-48.2-28.13a1904 1904 0 0 1 53.37-54.85c-11.64-16.32-68.74-62.5-87.31-75.97-10.13-7.35-30.54-16.64-40.17-26.41l.73-1.77c2.46-.15 4.22-.78 6.57-1.46m-397.799 283.32c9.259 4.19 57.096 71.13 66.171 82.9l76.314 99.67c10.66 14.14 21.572 28.29 31.828 42.72 3.61 5.08 5.318 12.7 6.263 18.76l-1.132 1.19c-25.144-27.22-53.571-67.49-75.942-97.41l-106.132-139.77c-.315-2.93 1.229-4.89 2.63-8.06m29.691-256.43.259 1.17c-2.532 5.15-5.96 10.73-9.088 15.5-21.949 33.47-37.193 70.06-50.132 107.78-2.419 7.05-5.179 15.75-9.498 21.87-3.4.88-3.44.08-7.506-1.36l-1.798-.63c17.096-54.17 34.13-106.14 77.763-144.33m474.278 174.67c2.34 1.15 6.13 3.18 7.26 5.65 1.11 2.41-24.38 151.31-28.18 163.33l-3.63.5c-4.93-2.13-2.26-10.64-1.44-15.65 6.17-37.57 10.68-75.76 17.85-113.12 1.64-8.54 4.64-34.66 8.14-40.71m-554.231-15.24c4.37 2.62 17.165 6.13 22.826 8.07a508 508 0 0 1 26.652 10.23c15.431 6.35 31.211 15.84 46.732 23.3-12.426 12.4-28.184 25-41.766 36.56-3.839 2.41-9.657 4.76-11.659-1.15 2.623-7.56 28.512-24.46 36.186-33.21-22.155-13.85-59.152-23.85-79.93-36.92-1.151-2.54-.137-3.32.959-6.88m526.391 194.22c.34.33.75.59 1.03.97 5.49 7.54-8.34 68.4-11.5 81.69-1.16 4.87-1.78 10.11-6.23 12.84-2.7-1.51-3.32-1.63-5.38-3.99-.36-8.35 16.85-83.73 22.08-91.51"/></svg>