<svg xmlns="http://www.w3.org/2000/svg" preserveAspectRatio="xMidYMid meet" viewBox="0 0 2048 1462"><path d="M508.335 157.242c22.965-2.165 36.709 3.599 53.132 19.12 30.558-24.127 71.743-15.177 80.643 26.094.765 3.547.773 9.273.999 13.063a280 280 0 0 1 6.079 3.505c28.178 16.78 29.425 42.945 13.557 69.056 7.208 20.263.477 38.533-19.175 47.664.821 6.23.921 7.975 2.854 13.733 3.803 11.326 18.243 20.713 17.434 31.741-5.753 9.295-22.504 3.288-31.282 1.026-3.131 12.88-5.059 17.523-10.867 28.993 32.471-8.708 49.073-6.378 77.677 13.17a264.7 264.7 0 0 1 41.717 35.308c36.263 38.465 32.196 66.099 41.262 114.892 16.238.557 16.311 1.689 18.299 17.713 4.688 37.808 10.035 75.747 13.794 113.666 2.872 28.967 5.744 61.306-6.139 88.766 9.368.123 63.634 1.695 68.28-.585l.404-2.819c-5.962-9.9-2.114-8.524 2.96-15.925 1.366-1.991-2.451-10.526 4.069-12.993 2.228-2.456 19.24-1.007 19.837 1.969 1.452 7.249 2.48 17.296 6.33 25.381l.318.658q10.616.836 21.24 1.526c4.113-10.304 5.838-20.036 9.631-30.168-4.304-5.427-5.948-7.998-9.408-14.041.999-29.417 9.443-15.593 15.374-27.736 1.318-2.699-.082-8.389 1.474-12.076 4.136-3.598 8.094-1.587 11.235 2.393.932 2.806.302 4.972-.783 7.795-1.494 3.884 10.19 9.178 11.623 12.547 1.234 2.902 2.118 8.428 2.671 11.563-2.918 9.482-2.944 12.865-10.398 19.379l9.153 31.235q53.536.558 107.071.305c13.92-.006 46.28.751 58.97-.871l.92-1.23c-4.84-9.147-1.79-17.345 3.54-25.626 1.77-2.452 4.88-5.662 8.13-5.766 15.75-.5 14.59 21.817 14.46 31.569 3.51 1.225 25.17.881 30.15.475 2.87-.234-.98-13.915 2.13-18.037 4.13-5.376 12.04-15.116 19.25-16.132 8.35-1.178 9.7 10.184 17.23 15.577 1.24 6.526 3.08 13.603 1.37 20.115 4.15 7.258 29.84 5.934 37.05 5.761 22.71-.546 45.31-.216 68.02-.015 1.93-69.936 22.66-142.692 41.56-209.874 3.75-13.34 9.03-32.729 14.62-45.281 5.05-11.336 17.99-14.895 28.85-18.301 17.98-27.462 37.94-73.651 68.4-89.592-46.88 2.209-52.77-15.34-70.05-55.411-4.16-.083-9.5.065-13.85.083-43.83.184-14.64-23.29-5.83-43.667 2.32-5.365 4.49-12.386 6.09-18.365-6.8-17.205-14.63-39.495-11.29-58.115 2.85-15.953 14.18-28.062 27.22-36.865 34.8-23.477 100.9-55.653 143.87-46.839 49.81 10.218 147.46 155.693 177.27 201.826 11.25 17.417 22.33 37.989 17.5 59.429-4.87 21.637-55.28 56.522-73.81 68.178 19.07 45.857 34.02 120.905 43.13 169.597 13.61-19.806 15.3-40.668 37.61-52.822 48.3-25.125 108.82-17.812 159.91-6.381 25.26 5.651 52.02 22.123 46.96 51.938-5.38 31.657-17.52 65.123-26.48 96.431l-65.31 228.837-49.26 167.494c-6.39 21.49-12.33 44.56-19.42 65.78-1.81 5.42-10.07 14.66-14.06 19.33-.15 9.74-2.26 24.21-3.39 34.22-2.47 20.66-4.59 41.36-6.36 62.09l120.95-.1c17.86-.06 36.28-.45 54.19-.8 2.18-.05 6.68 1.98 8.07 3.54 2.12 2.36 2.01 2.36 1.98 5.02-2.69 3.68-7.29 4.65-11.65 4.54-29.47-.72-58.91-.88-88.4-.9l-239.91-.07-1140.311.12-264.243-.03c-13.048.01-106.916 1.71-113.497-.84-.923-.36-1.73-1.82-1.974-2.79-.568-2.26-.2-3.81.826-5.78 11.236-4.85 98.552-.48 119.765-2.55l1.301-.14a6010 6010 0 0 0-6.966-85.39c-5.614-4.89-11.238-9.75-15.85-15.64-8.404-10.74-22.936-65.32-28.473-82.53l-38.292-117.67-81.95-243.536c-11.453-34.363-23.558-68.049-34.152-102.734-10.51-34.407 3.042-51.849 34.503-66.021 43.266-19.489 92.292-33.732 140.065-28.352 43.642 4.954 62.616 36.703 86.35 68.837 22.915-73.888 56.973-148.4 112.053-204.004 6.336-6.397 18.419-15.42 23.048-22.765 6.82-10.817 12.442-25.717 17.541-37.672-17.299-2.692-27.848-6.889-33.403-23.461-.267-1.2-4.341-8.02-4.937-8.153-23.238-5.19-33.062-17.552-8.825-34.05-8.586-9.025-15.629-16.479-19.4-28.874a49.7 49.7 0 0 1 3.715-37.583c7.589-14.075 18.575-18.626 32.874-22.966-1.254-2.666-2.497-6.061-3.021-8.974a27.88 27.88 0 0 1 4.519-20.879c9.063-13.142 25.25-17.88 40.023-20.679 7.439-25.353 21.785-36.325 47.316-41.582"/><path fill="#fefefe" d="M846.88 1004.31c24.525.63 53.258-.29 78.254-.25l204.006-.04 127.79.18c24.64.16 55.67 1.31 79.8-.1-4.62 2.94-19.83 12.71-23.19 15.67-48.04 42.34-62.96 171.39-69.4 232.17-3.83 28.63-5.96 59.98-8.3 88.91-20.12 2.79-40.91 1.15-61.01 1l-78.48-.07c-68.71-.68-139.237.1-208.024.16-1.175-70.08-9.262-143.3-12.437-213.61-1.349-29.87-3.494-62.19-8.459-91.47-1.995-11.76-12.171-24.4-20.55-32.55m723.95-518.473c2.64 10.478 2.64 23.374 1.97 34.148-.46 7.322-3.27 18.842-1.21 25.813.43 1.451.97 1.981 2.34 2.617 13.24 6.166 89.85-30.709 106.8-37.561 7.94 21.687 14.04 44.651 20.18 66.903 43.27 156.847 42.52 317.616 39.97 478.853-60.35-13.04-118.4-30.12-177.45-47.96-18.08-5.46-34.82-11.473-53.12-16.706 8.38-7.837 15.56-14.436 19.8-25.535 7.86-20.617 5.86-49.574-2.89-69.519 12.15-16.325 16.33-24.208 25.42-42.429 19.74-43.417 38.94-99.823 55.16-145.49l15.51-43.692c2.76-7.601 15.74-34.883 6.93-39.299-2.8.358-3.64.604-5.31 2.968-6.21 8.813-13.17 33.165-17.19 44.235-15.64 43.045-64.47 200.562-95.57 221.252-9.67 6.436-24.04 6.774-34.98 4.241-12.75-2.954-23.66-9.505-30.59-20.836-14.49-23.679-6.3-57.038-.1-82.311 22.14-90.293 55.38-180.691 93.49-265.406 4.54-10.095 8.24-23.558 14.8-32.408 3.91-5.274 10.5-8.522 16.04-11.878M58.438 648.655c32.652-22.786 111.257-44.311 152.749-36.884 42.69 7.641 57.255 37.889 81.585 71.269-5.098 20.972-10.489 42.457-13.445 63.887-11.369 82.41-11.622 167.152-7.36 250.09.831 16.173 1.485 35.813 5.137 51.473.709 3.04 3.961 7.38 5.911 10.02.438 7.33 1.042 14.65 1.811 21.95 9.305 81.28 43.266 116.54 127.325 116.66 41.758.06 78.931-1.46 120.651-6.57l.922-.24c12.338-3.13 23.801-3.8 37.231-7.58 21.258-5.99 38.458-14.35 58.574-21.46-32.767 17.5-58.737 26.19-95.789 31.84-32.011 4.62-260.565 35.52-274.658 28.71-3.262-1.57-4.528-3.2-5.806-6.5-8.135-21-14.658-42.97-21.871-64.33l-43.17-127.93A18260 18260 0 0 0 58.438 648.655"/><path fill="#fefefe" d="M1833.6 617.388c28.86-4.367 87.53 4.673 114.34 16.708-20.01 62.56-38.89 133.499-57.01 196.649l-62.53 212.305-26.38 90.7c-5.83 20.3-11.57 40.78-17.88 60.94-3.46 11.07-7.8 14.09-17.87 19.12-17.71-1.13-35.5-3.84-53.28-4.76-34.06-3.86-68.45-4.92-102.68-9.48 23.02-2.71 38.24-1.11 62.27-9.66 43.21-15.37 61.43-56.11 69.06-98.18 1.06-5.79.37-22.23 3.57-25.23 3.26-.37 4.9-.18 7.3-2.15 1.72-7.43 1.57-59.73 1.59-70.505.04-14.262.78-37.952.71-52.471a2014 2014 0 0 0-9.99-189.414c-1.88-17.044-4.18-40.958-7.27-57.476 4.73-10.079 22.17-42.283 28.3-51.581 11.09-16.819 47.59-23.591 67.75-25.515M802.866 807.807l.822.163c6.302 1.304 55.299.88 64.148.932-25.13 29.975-48.174 62.827-73.904 92.556-.737.852-6.354 8.363-6.934 10.231-1.68 5.412-4.006 29.171 3.82 31.505 25.049 1.763 50.687.951 75.841.957 68.113.322 136.231.287 204.341-.105l172.26.154c13.89.047 84.17 2.154 91.89-1.845 2.85-4.926 2.03-15.687-.77-20.333-9.58-15.912-22.26-31.46-33.43-46.287l-49.65-67.24c23.97 1.469 65.24.671 89.75.362a79 79 0 0 0 2.79 8.758c14.05 37.123 48.55 44.405 83.03 31.315 3.63 23.158 10.16 43.526 32.17 55.397 15.04 8.111 36.1 8.909 52.22 3.975l7.97-4.47c2.2 10.259 5.23 21.497 1.43 31.693-8.42 22.599-37.48 31.75-59.35 32.301-26.98.681-53.91.162-80.81.169l-146.92.437-308.383.612q-93.751.612-187.504.18c-29.525-.05-72.763 1.254-101.149-1.078a55.2 55.2 0 0 1-14.039-3.148c-26.424-9.823-8.93-27.898-.875-46.499q2.421.774 4.877 1.43c24.205 6.605 49.275-1.801 62.866-23.321 11.167-17.682 15.962-39.315 21.211-59.386 38.864 19.791 68.8 4.049 92.282-29.415m695.374 419.333 159.68 15.54c33.27 3.17 68.23 5.96 101.33 9.92-3.43 18.98-4.24 42.82-6.68 62.26-1.02 8.1-1.03 18.59-3.14 26.24-3.35 1.88-7.17 1.39-11.18 1.4-13.85.46-26.68-.42-40.17-.18-69.58 1.21-139.68-1.01-209.21.04 3.33-38.39 6.45-76.8 9.37-115.22m-952.432 3.27.566.34c3.729 7.35 11.895 96.21 14.223 110.94-10.655 1.05-31.808.6-42.58.5l-53.005-.02-166.262-.15-10.391.15c-1.72-26.03-5.656-52.1-7.893-77.94 14.443-2.34 34.757-3.54 50.128-5.47 71.985-9.02 143.623-16.19 215.214-28.35"/><path fill="#fefefe" d="M1402.3 562.425c15.4 11.346 32.93 17.882 51.07 23.499 6.77 2.095 21.39 2.889 23.71 4.757 3.19 11.464-8.99 84.826-11.87 99.749-1.01 5.25-11.53 39.262-13.66 46.423a2226 2226 0 0 0-16.8 61.092c-2.94 11.313-3.68 24.122-6.9 35.513-.83 2.913-2.92 3.277-5.69 4.712-13.07 5.212-25.27 7.493-39.04 3.147-11.31-3.569-21.14-10.841-26.5-21.58-19.74-39.51 30.1-209.883 45.68-257.312M614.318 259.792c5.981 14.625 8.965 23.952 23.357 31.242-5.884 33.849-13.347 61.753 16.528 86.452-10.76-1.763-19.294-5.788-29.152-7.415-3.157 5.023-5.031 19.992-8.376 27.387-9.017 19.934-15.617 26.829-32.241 39.583-19.933-1.049-37.921-3.16-56.932-9.785-6.952-2.422-14.295-10.788-21.425-8.059-4.524 12.087 20.681 18.565 29.062 21.511-6.337 17.951-11.839 38.144-18.196 56.77-16.38-14.747-30.111-24.478-50.238-33.779-9.31-3.767-17.826-7.64-26.95-11.848 9.106-15.031 15.614-31.727 21.866-48.098 24.639-3.338 34.425-16.285 41.16-39.377 5.68-2.206 13.059-4.416 12.265-11.878-7.87-5.584-18.472 3.781-27.006-1.233-14.18-7.749-20.6-30.324-13.426-44.798 6.154-12.416 19.683-14.593 30.875-7.304 19.69 12.825 1.103 17.396 5.476 33.548 4.299 15.88 23.917 7.278 28.562-3.808 7.829-15.754 5.286-25.18.449-40.686 29.862 12.35 56.856-4.448 74.342-28.425"/><path d="M592.277 298.214c8.829-1.063 26.557-2.791 30.202 7.683-.509 3.694.211 2.097-2.316 4.926-3.551.648-1.83.742-5.351-.438-13.639-4.349-24.531 1.673-32.71-3.691-.909-3.07-1.002-1.588.446-4.581 3.208-2.649 5.679-2.881 9.729-3.899m-98.486 7.675c3.925.925 5.11 1.098 7.002 4.614-.201 3.781-2.906 7.015-5.071 10.366 2.365 8.597 9.697 14.347 3.172 21.238-15.218-5.256-19.886-26.242-5.103-36.218m85.946 84.017c2.059.571 4.824 2.064 6.835 3.056 4.751-.49 9.969-1.888 11.885 2.911-.774 3.941-1.468 4.617-3.891 7.883-8.119 5.172-15.673.607-17.956-8.1.76-4.001.067-2.475 3.127-5.75m19.064-65.51c1.981.016 4.786.349 6.472 1.429a9.47 9.47 0 0 1 4.198 6.561c.767 4.913-1.216 8.683-4.15 12.321-3.282.662-3.379.617-6.463-.538-6.072-5.175-4.974-14.15-.057-19.773"/><path fill="#fefefe" d="M1428.53 249.776c1.6 1.316 5.24 7.962 6.78 10.276 6.81 10.261 20.37 15.187 31.4 20.169-8.37 1.056-23.44 1.873-28.89 8.485l.37 1.592c7.8 5.938 27.75-1.487 36.65.233 21.22 4.101 45.74 22.606 67.52 9.377 5.47-3.323 14.62-14.508 22.66-10.312 15.33 8.006 15.38 55.128-1.97 61.88-8.01 3.039-13.4-7.648-21.45-5.397-2.73 4.593 3.77 23.281 5.56 30.378 2.2 11.717 5.44 24.632-5.9 33.48-18.9 14.736-43.61 17.032-66.7 15.617-26.37-1.616-33.11-35.094-41.37-53.872-1.9-4.313-11.27-1.471-14.84-1.67-6.9-.698-13.93-.301-21.29-.861 8.47-14.203 15.49-22.326 21.39-38.427 8.79-24.005-.46-60.457 10.08-80.948"/><path d="M1558 302.438c3.67.823 2.54.018 4.58 2.706 1.44 8.084 2.82 16.697 1.49 25.065-.41 2.567-2.3 3.023-4.75 4.584-7.2-2.827-5.41-12.524-6.06-19.505-.53-5.563.6-9.049 4.74-12.85m-102.16 9.288a9.41 9.41 0 0 1 9.52.89 9.41 9.41 0 0 1 3.82 8.765 9.43 9.43 0 0 1-5.82 7.584 9.41 9.41 0 0 1-12.14-4.966c-2.04-4.666.01-10.105 4.62-12.273m7.11 70.106a8.6 8.6 0 0 1 8.71.403 8.6 8.6 0 0 1 3.89 7.813 8.61 8.61 0 0 1-4.95 7.189 8.6 8.6 0 0 1-11.34-3.967 8.6 8.6 0 0 1 3.69-11.438"/><path fill="#fefefe" d="M544.807 443.556c11.503 1.861 21.194 3.388 32.871 3.273-8.888 7.695-31.935 28.466-15.883 40.441 9.209 6.87 22.491 11.533 32.117 18.483 17.956 12.963 33.579 28.673 50.892 42.33-1.672 13.628-3.292 27.698-5.905 41.192-1.354 6.994-3.16 5.914-9.145 7.549-3.478 3.211-4.208 24.936-4.895 31.151a2713 2713 0 0 1-8.045 63.989 2081 2081 0 0 0-3.406 28.81c-2.909-2.452-12.623-10.455-13.56-13.651-17.444-59.482-30.714-122.203-57.255-178.557-3.836-8.145-11-16.154-16.428-23.518 6.334-17.634 13.685-43.255 18.642-61.492m1018.063-32.384.12.069c.75 3.26-40.06 27.726-43.72 37.709l1.89 1.746c13.36 3.169 43.83-23.661 58.19-30.154l1.07-.476c-12.39 16.772-59.25 43.085-63.19 51.873l1.03 1.527c10.91 2.671 17.77-5.049 26-9.718 11.57-6.569 24.83-15.024 37.21-19.67l1.24-.456c-13.41 12.975-39.27 25.16-52.18 39.296-1.82 1.993-1.46 3.801-.94 5.925 6.13 2.903 41.25-22.286 47.94-21.2-.5 2.748-.85 2.252-3.43 4.66-9.7 7.325-21.56 13.016-30.85 20.394-9.18 8.194-17.42 17.667-25.88 26.6-13.39 14.125-28.24 26.912-41.5 41.089-3.27 3.491-6.22 13.03-7.71 17.452-16.68-2.319-28.57-8.413-43.52-15.463 9.37-35.918 40.23-87.502 67.75-112.457 13.32-12.075 52.94-30.845 70.48-38.746M654.849 1188.06c2.955 4.45 7.464 134.52 9.229 153.89-8.791.29-51.503 2.21-56.842-.22-6.505-38.48-9.116-86.16-16.53-122.16 25.413-8.74 42.296-14.91 64.143-31.51m72.187-49.67 1.348.54c12.664 14.71 25.342 170.93 29.573 203.12-9.066.21-18.134.33-27.202.37-4.793-.06-18.325 1.05-21.456-1.56-2.369-15.07-2.274-41.95-3.22-57.75-2.804-46.81-2.249-96.88-6.18-143.41 10.211.36 17.093.1 27.137-1.31m716.174-132.41c8.69-.08 17.38-.07 26.07.04-1.24 11.96-2.16 24.66-2.69 36.7-2.33 52.62-5.9 105.33-8.22 157.94-1.7 46.76-3.86 93.51-6.46 140.23l-1.04 1.13c-4.26 1.17-18.91.38-24.23.24 2.75-18.7 2.43-37.23 3.19-56.05 3.29-81.67 7.25-163.35 11.73-244.97.65-11.78.85-23.43 1.65-35.26"/><path fill="#fefefe" d="M584.478 453.587c6.368 3.263 14.006 9.756 20.777 11.036l1.319-1.459c3.815 2.168 2.168 5.99 5.879 8.506 17.51 11.874 39.518 2.479 58.569-.15 4.473 5.792 23.254 29.961 24.75 35.515 6.793 25.206 1.324 66.745 2.258 93.21-5.965-.954-9.211-1.172-15.277-1.354-10.712-1.319-23.498-1.985-34.399-2.813 3.678-13.705 6.714-36.723 8.994-51.206-13.248-14.28-41.034-35.14-57.211-47.647-8.749-6.765-29.996-14.941-32.574-20.252 1.135-7.426 11.507-16.755 16.915-23.386m84.823 551.933c3.953.01 11.239-.67 14.19 1 1.557 10.75 1.837 30.27 2.311 41.67 1.118 26.68 2.094 53.37 2.928 80.06q3.538 107.355 8.17 214.68l-15.845-.06c-2.611.02-3.426.27-5.574-1.23-1.596-6.4-2.4-26.79-2.809-34.39l-3.41-71.99-11.284-224.37c-.074-1.71.245-2.13 1.012-3.58 3.057-2.33 6.26-1.78 10.311-1.79"/><path fill="#fefefe" d="M697.904 438.233c2.983.847 8.288 4.543 10.824 6.515 52.781 41.034 55.041 67.947 62.854 130.056-14.351 1.418-30.739 1.97-45.347 3.017l-3.011-39.942-.687-24.563c3.885.807 6.925 1.667 10.917 1.302 2.801-2.134 2.093-1.05 3.427-4.143-3.837-7.296-16.889-6.394-22.759-12.039-10.654-10.245-20.247-29.088-29.501-38.915-4.584-1.458-45.462 7.966-55.456 9.229 20.521-15.548 61.818-22.519 68.739-30.517M356.488 688.354c3.499.7 9.329 5.279 11.932 7.743 52.859 50.005 107.725 100.536 165.13 145.225a1355 1355 0 0 0 38.618 28.556c8.213 5.75 22.852 8.924 21.007 19.996-22.599 2.576-212.861-165.633-236.536-194.074-1.597-1.918-.585-5.054-.151-7.446m219.51 207.944c11.889 6.781 24.337 13.035 36.414 19.607-17.598 31.679-15.471 31.31-14.382 67.471l2.023 11.203c-8.441 1.668-14.529 2.452-23.065 3.375a5521 5521 0 0 0-.99-101.656m140.45-287.549c3.259 1.1 3.829 1.088 6.195 3.414 1.262 7.36-1.812 57.767-2.697 67.108-4.054 42.765-3.302 100.273-15.377 141.073-2.838-.67-3.104-.625-5.327-2.389-.781-6.586 4.063-28.678 4.906-36.65 6.017-56.939 9.019-115.424 12.3-172.556m333.142 282.039c25.46 1.029 52.31-.887 77.65.544.41 4.158 1.7 11.822.01 15.257l-3 .483c-10.84-.028-69.3 1.512-75.33-.596-.91-4.604.13-10.873.67-15.688M471.607 608.595c10.216.887 95.1 75.348 108.484 87.563.662.604-.825 4.431-1.126 5.429-8.997-1.103-95.343-75.883-108.349-86.809-1.075-.903.593-4.937.991-6.183m580.723 244.436c21.11-.818 45.78-.211 67.16-.136 1.2 5.091 3.56 11.277 1.47 15.622-3.36 1.826-3.53 1.157-7.72.929-5.3 1.313-57.68.022-62.36-2.145-1.78-4.728-.11-9.643 1.45-14.27m76.98 18.538c14.06 1.413 47.5.438 62.9.246 1.77 7.467 2.68 11.493 5.59 18.686l-65.69-.559c-1.3-5.539-2.04-12.627-2.8-18.373m132.77 19.963 13.69.286c3.73 3.847 8.1 10.344 11.33 14.842-16.81.557-34.09 1.229-50.87.373-6.38.659-20.21.179-27.46.322l-3.53-15.607c18.56.325 38.26.024 56.84-.216m-277.198-19.584c19.708.356 39.558-.277 59.338.089.05 4.648.72 14.554-1.54 18.059-19.52-.453-41.42-.252-60.969.172.324-7.108.754-11.643 3.171-18.32m-134.151-.04c15.747 1.413 40.951-1.075 54.636 1.013 1.015 5.564-4.206 12.365-7.319 17.477-3.546 1.385-56.841.869-59.525-.648.869-3.673 9.437-14.099 12.208-17.842m57.084 17.918c11.46 3.113 54.612-1.024 64.158 2.928.541 3.961-.94 11.818-3.989 14.589-22.386-.658-45.941.791-67.804-.471 2.272-5.527 4.687-11.935 7.635-17.046m12.208-36.857c16.484 1.113 42.926-.032 60.695.466-.316 5.673.001 12.348-3.831 16.431-18.578.238-44.912.818-63.035-.38 1.394-4.888 4.261-11.63 6.171-16.517m71.531-18.063c18.076 1.595 37.066-.969 54.506.922.21 4.796 1.07 11.97-2 15.592-16.67-.075-36.58.974-53.281-.804-4.212-.449-.042-12.998.775-15.71m205.376 18.274c16.1 2.133 35.88 1.705 52.22.953 3.44 4.872 7.53 10.247 9.99 15.599-7.8.483-54.71 1.165-58.98-1.872-2.45-3.993-2.67-9.877-3.23-14.68M602.149 726.611c3.832 2.381 7.829 6.86 9.023 11.114 3.845 13.698 24.491 78.553 22.502 88.313-2.711.384-4.281.913-6.774-.17-1.754-2.621-23.472-90.823-24.751-99.257m467.101 93.914c9.85.768 33.89.137 44.59.237l2.44 12.272-12.03.05c-9.08.018-46.04.914-51.77-2.127l1.32-8.448c3.51-2.781 10.6-2.003 15.45-1.984m-98.604-.243c4.663-1.272 11.094-.276 15.9.257-.645 4.401-.851 8.999-3.124 12.656-5.152 1.08-33.335.667-39.529.386-3.193.529-12.965.394-16.683.433l5.222-13.094c14.563 2.873 23.889 3.327 38.214-.638m542.294-281.363c.17 4.04-20.76 58.116-23.9 64.428l-1.08-.19-.04-3.909c.4-4.653 1.2-9.044-.04-13.451-3.39-3.433-5.49-5.632-6.56-10.329 2.11-10.711 22.73-26.745 31.62-36.549M1126.59 836.1c13.2.002 26.41.26 39.61.775 1.14 3.902 3.71 10.547 3.02 13.969l-2.78.535c-11.65.26-25.1 1.063-36.44-1.467-5.96-1.331-6.1-9.731-3.41-13.812m-174.756-71.613c2.193 2.103 10.588 40.407 12.064 45.994l-10.078 1.559c-4.359-.012-9.127-.333-13.513-.548 3.52-12.45 7.158-36.236 11.527-47.005m-43.249 70.4c2.45.93 7.658 1.761 10.431 2.292l-5.876 14.429q-23.035.313-46.063-.252c-1.125-.129-2.372-.497-3.478-.77 5.496-17.077 9.496-7.196 17.876-5.455 5.473 1.138 18.514-.384 24.558-.915zm305.435-37.613c4.13 2.52 11.08 26.724 12.42 32.293l-.85 1.239c-4.07.913-6.11.81-10.19.822-3.72-.178-7.84-.106-11.31-1.252.58-4.523 8.18-28.03 9.93-33.102m-219.266 11.859c7.926-.118 46.676-1.549 51.046 1.53.36 3.466.77 1.981-.85 4.697-12.12.188-37.14 1.404-48.076.13-2.541-2.249-1.71-1.755-2.12-6.357m-108.904-4.802c3.408-.214 5.551-.742 8.488.861 3.868 4.79 5.151 17.869 2.392 22.743-5.391.186-14.022 2.303-13.804-7.672.088-4.02 1.896-11.981 2.924-15.932m262.63-13.696 4.54.642c3.81 3.861 6.22 20.401 4.77 25.535l-2.55.298-11.2.672c1.74-7.987 3.15-18.854 4.44-27.147M670.464 421.28c5.313 1.517 8.839 3.582 13.713 6.135-25.528.875-36.267 3.153-58.987 14.731-5.005 3.278-9.155 5.303-14.527 7.989 14.121-17.689 34.276-17.438 54.295-23.085 3.092-.873 4.09-2.998 5.506-5.77m239.207 381.76q4.59-.042 9.179.09c3.786.142 5.39.46 7.948 3.201 1.122 4.111 1.062 2.389-1.216 7.391-4.247 1.294-10.9 1.625-14.655-1.062-2.09-3.839-1.313-4.764-1.256-9.62M645.978 417.285c3.395-.372 8.011-.388 11.23.715l-.213.691c-13.058-.049-27.648 6.611-39.35 12.225-2.403 2.509-3.15 3.751-6.309 4.853l-.693-1.589c6.766-11.141 23.373-15.188 35.335-16.895m18.183 21.88 2.909.246c-2.29 2.115-17.31 6.432-21.545 8.161a78.8 78.8 0 0 0-24.586 15.672c-.532.368-1.435.445-2.17.598l-.626-1.21c5.096-12.773 33.726-20.244 46.018-23.467m278.485 299.286c6.752.562 12.803-1.349 19.061.328 2.456 2.542 1.766 1.303 2.04 5.458-5.344.845-19.045 2.318-22.283-2.575zM1198.81 839.24c3.08-.478 26.5.354 28.87 1.952l-1 2.191c-4.48.796-17.19.68-21.82-.164-4.66-.85-3.89-.735-6.05-3.979m-59.82-15.294c3.9 4.134 15.83.281 19.23 3.586l-2.45 1.162c-5.94.357-15.7 1.328-21.03-1.404l-.04-1.775c1.66-1.09 2.37-1.104 4.29-1.569m78.39-57.261 1.16 2.191-2.05 1.274c2.33 1.829 6.43 4.633 6.76 7.281l-3.01.974c-3.89-.15-6.6-.316-10.53-.836l-.05-1.297c5.78-4.766 3.69-3.962 7.72-9.587m-41.66 53.221c2.59 3.125 3.56 7.922 2.2 11.786l-3.7 1.619c-1.31-1.102-1.76-1.933-2.44-3.462-2.8-6.228-1.5-7.509 3.94-9.943m-51.07-10.583c5.03-.066 4.34-.818 7.95 1.562l-.24 2.202c-1.51 1.464-1.76 1.594-3.56 2.723-4.14-.006-8.7.716-9.91-4.032 2.41-2.334 1.91-1.624 5.76-2.455m23.4-37.732c3.56.049 6.76.71 9.62 2.83l.22 1.925-1.99 1.883c-3.19.78-6.86.912-9.62-1.038-.61-3.019-.39-2.083 1.77-5.6m57.56 14.692c6.16-.64 14.35-.959 20.41.388l.77 1.76c-.59.112-1.17.221-1.76.326-7.45 1.329-12.88 2.07-19.42-2.474"/><path fill="#fefefe" d="M880.678 834.313c4.792-.168 12.158-.706 16.524.452l.099 1.556c-5.176 1.505-10.556 2.97-15.628 1.049zm5.065-42.003c5.627-.42 13.074-2.7 13.927 3.755-6.099.566-12.685 2.996-13.927-3.755m259.607-10.668c5.73.144 8.54-2.157 13.13 2.525-3.2 2.202-7.25 2.504-10.96 1.62-2.54-2.186-1.86-.842-2.17-4.145m-261.386-1.256c3.538-.266 8.653-1.252 11.505.329l.281 2.761c-3.972.173-7.777.807-11.242-.819z"/></svg>