<svg xmlns="http://www.w3.org/2000/svg" preserveAspectRatio="xMidYMid meet" viewBox="0 0 2048 1462"><path d="M1712.4 125.979c3.09-.09 5.34.71 8.23 1.623 17.99 5.688 11.91 24.374 6.99 37.18 23.9 43.068-14.89 129.161-27.41 175.132 4.73 4.571 7.97 7.761 10.38 14.068 6.74 17.667 11.36 37.843 16.27 56.228l33.31 128.095c5.7-5.337 13.39-16.624 18.56-23.433a2092 2092 0 0 1 30.52-39.255c43.34-54.527 84.89-110.83 128.46-165.294 19.87-24.831 37.39-50.221 58.81-74.486 11.43 5.552 17.52 6.138 17.63 20.166.3 36.482 2.21 73.577 1.85 109.998-.3 30.216-4.15 59.502-.38 89.859 4.17 29.249.1 60.27 3 89.361 2.34 23.621 5.17 44.491 6.32 68.4-6.11 12.109-28.05 29.522-38.99 39.662a4367 4367 0 0 1-70.06 62.871c-15 13.328-29.9 26.608-45.51 39.303-1.61 1.312-3.07 2.084-5.16 2.241-9.77.733-8.15-12.37-14.14-16.964l-2.53.349c-3.88 2.409-7.27 8.042-10.01 11.951 1.97 11.392 6.51 25.754 9.64 37.381a7333 7333 0 0 0 19.06 69.959q22.995 85.49 47.01 170.696c8.16 30.08 15.66 60.6 24.14 90.51l39.59 138.36c3.37 12.13 17.84 57.33 15.2 66.64-4.38 3.57-16.34 1.85-22.18 1.82l-64.89-.23-288 1.84-1126.521 9.33-260.392 2.69-108.555 1.33c-11.036.16-53.743 3-61.651-1.78-1.208-8.04 13.89-52.88 17.243-65.19a70.1 70.1 0 0 1-22.35-22.37c-18.937-29.97-6.148-49.95 3.197-79.89q13.823-44.985 28.396-89.73l79.22-245.055 96.488-301.361 30.938-96.084c5.074-15.956 10.169-32.348 15.214-48.295 4.046-8.359 13.523-16.867 21.167-21.44 46.478-27.807 123.045-17.271 152.927 30.118 16.169 25.641 7.156 51.512.447 78.362 13.508.925 30.479.593 44.247.69a1539 1539 0 0 1 44.7-77.727c-45.477-59.679-72.336-118.937-102.863-186.57-7.222-14.722-22.146-50.891-27.283-67.883-.523-1.729 2.059-4.825 3.41-6.259 3.777-1.176 2.157-1.085 6.23-.076 2.234 1.745 3.436 3.625 4.727 6.102 10.211 19.587 17.233 41.683 26.047 62.031 21.728 50.16 46.376 102.44 76.569 148.042 3.755 5.671 31.237 41.892 30.653 44.179-2.6 10.193-17.343 28.972-23.261 38.8-11.682 19.401-57.149 101.737-53.671 120.651 1.03 5.595 4.114 11.158 7.877 15.385 12.985 14.585 30.283 26.811 45.124 39.495l52.676 44.263c8.669 7.166 17.265 15.326 26.698 21.473 11.55 7.527 100.178 9.224 116.44 8.195a323 323 0 0 0 47.654-6.854c-35.275-1.296-70.108-5.954-105.152-9.889-12.128-1.362-24.367-2.687-36.336-5.059-5.122-7.873-40.602-35.827-49.585-43.315l-50.887-43.082c-5.731-4.781-28.21-18.338-11.202-25.497 7.724.256 37.84 28.114 45.61 34.748a4302 4302 0 0 0 76.846 64.851c11.861 1.625 93.829 13.292 98.54 9.303-3.318-3.343-10.052-5.382-14.405-7.985-54.077-32.35-101.885-75.362-151.239-114.374-6.868-5.428-33.771-25.636-35.679-32.325 2.595-18.429 23.363 3.528 29.895 8.826 33.879 27.542 56.575 46.163 92.204 73.857 35.324 27.455 83.111 65.541 129.501 74.229 9.76-.815 9.621-11.09 5.146-17.612-9.897-14.421-24.888-27.397-37.653-39.291-51.726-48.195-103.485-96.363-155.476-144.255-3.558-3.277-8.334-8.702-5.181-13.369 12.323-5.728 31.401 16.826 39.969 25.833 13.982 1.575 39.937 1.386 55.161 1.94-12.971-31.535-33.005-60.999-48.391-93.207-10.6-22.191-34.288-48.231-1.21-68.598 10.48-6.453 32.516-11.806 40.51 1.489 10.158 16.892 19.388 36.04 28.644 53.974a3314 3314 0 0 0 51.289 94.788c30.864-5.15 57.041 6.767 62.096 40.418 5.317 35.39 9.104 71.812 18.831 106.385 3.308 11.757 17.372 34.32 23.63 46.034 25.378-2.304 21.764-6.293 19.806-28.333-10.511-118.271-7.271-262.053-119.09-335.203-17.32-9.294-32.505-16.375-49.547-26.703-42.526-25.773-69.012-72.698-84.281-118.658-3.486-10.494 6.834-15.005 9.76-10.916 3.959 5.533 12.656 27.522 15.638 33.865a294.5 294.5 0 0 0 20.268 36.343c15.828 23.826 37.155 43.86 62.991 56.449 17.41 7.602 31.001 14.459 46.369 25.963 55.251 41.361 88.099 109.774 96.208 177.893l461.11-3.883 121.87-.989c11.22-.01 56.13.668 65.01-.887 1.57-1.763 2.59-3.341 2.32-5.871-3.15-16.943-4.24-37.227-7.98-53.789-8.47-37.461 11.96-67.853 50.49-78.914 19.16-47.781 34.04-142.664 77.9-172.602 4.09-14.561 4.99-23.191 18.23-31.185"/><path fill="#fefefe" d="M480.56 494.837q20.198.246 40.396.003c-8.721 19.854-23.493 47.263-22.179 68.837 1.289 21.14 23.914 36.69 39.481 49.672-10.942 44.895-19.77 95.058-29.282 140.692l-47.742 223.956-25.345 117.073c-4.665 20.83-13.19 54-15.331 74.32 3.118 5.76 12.721 5.48 18.627 5.44 22.398-.15 44.919-.57 67.312-.49l184.934.83c243.999 1.79 488.009 1.16 731.999-1.9 79.53-.44 161.61-.37 241.25-1.75 9.48-.16 2.58-25.86 1.66-31.49-3.5-22.68-7.35-45.3-11.54-67.86-1.33-7.17-9.99-46.38-7.24-50.76 1.38-.13 2.76-.27 4.13-.5 16.09-2.73 45.91-60.851 56.75-75.73 19.17 77.82 37.31 161.81 53.77 240.08 11.83 51 6.99 75.82 58.71 103.07-24.15.8-48.98.41-73.21.63l-159.83 1.21-489.37 4.09-569.753 4.97c-91.123.86-182.166 3.59-273.358 2.97 2.235-1.16 4.442-2.38 6.619-3.65 39.936-23.25 37.373-46.42 47.247-86.46l34.939-147.07 71.372-296.613c21.219-90.669 41.428-183.697 64.984-273.57"/><path fill="#fefefe" d="M368.12 424.406a109.4 109.4 0 0 1 43.491 4.33c28.961 9.179 43.366 23.784 56.864 49.615-14.199 56.137-27.582 116.393-40.937 173.033l-78.225 326.868-25.264 105.778c-2.805 11.75-9.687 43.07-13.685 52.81-26.474-25.42-40.371-36.24-76.147-46.75-42.306-13.74-93.068-11.94-134.144 5.4 3.67-15.91 15.702-49.11 21.411-66.67l41.451-128.883c48.058-149.566 97.788-300.481 144.077-450.544 15.217-15.26 40.035-22.875 61.108-24.987m1368.65 194.262c17.41 9.288 95.24 81.9 108 99.632-8.42 13.123-20.96 29.021-30.34 41.922l-48.52 68.172c-29.59 41.754-56.07 86.092-83.9 129.227-9.67 12.779-20.62 40-33.34 48.639-11.45 7.77-22.52-15.452-21.34-26.929 1.89-34.699 19.35-65.498 29.27-97.812 19.11-62.222-18.48-40.515-51.45-30.57a345 345 0 0 1-30.85 7.492c-62.2 11.869-95.26-3.575-153.95-20.718-9.04 1.496-9.71 4.247-10.69 12.712l.06.509c1.57 12.895 9.85 32.912 12.9 46.627 7.06 31.801 16.88 50.109-.33 79.899-2.99.605-6.5 1.451-9.56 1.431-2.08-.014-4.2-.756-5.69-2.258-3.81-3.85-42.75-123.021-46.81-137.794-1.18-4.285-2.36-8.799-2.16-13.28.24-5.457 2-12.222 5.25-16.678 9.17-12.575 53.18-36.002 68.68-40.388 8.49-2.404 32.3-1.142 37.15-5.549 4.75-14.197-15.99-12.595-24.23-11.696-20.65 2.254-38.22 10.601-55.41 21.721-5.2 3.366-13.6 8.607-19.25 10.593l-1.44-.712c-1.07-10.714 26.23-25.723 34.96-30.376 35.3-18.835 80.6-50.222 120.76-54.525 34.6-3.708 70.46 3.25 104.16-10.803 39.47-15.033 74.24-43.445 108.07-68.488m-207.34-135.217c12.91-.515 26.6-.243 39.57-.196-.74 3.592-1.77 6.858-2.76 10.373-8.18 28.814-17.76 57.446-25.46 86.37-78.66.276-160.59 3.91-239.78 5.599a27631 27631 0 0 0-331.873 6.851c-10.212-.031-21.214.539-31.485.9-1.753-12.662-2.629-28.716-3.985-41.841a2565 2565 0 0 0-7.731-62.531c94.804.006 191.104-2.481 286.204-2.88l230.02-1.526c28.88-.388 58.53-.105 87.28-1.119m297.04 286.256c1.36 2.601 5.66 18.89 6.77 22.684 6.93 23.672 12.44 47.832 18.89 71.636l69.81 251.853c-8.01-5.73-16.95-9.47-26.47-11.95a123.46 123.46 0 0 0-94.35 13.8c-11.64 6.87-23.54 19.12-31.36 29.95-3.06-21.24-12.07-55.33-17.11-77.35l-32.96-142.404c26.79-49.057 62.25-95.092 94.31-140.891 4.11-5.871 8.11-11.634 12.47-17.328"/><path fill="#fefefe" d="M1666.4 223.639c16.02 4.063 32.42 8.942 48.37 13.463l-92.05 296.692-28.43 96.383c-4.07 14.053-10.77 40.413-16.14 52.595-16.1.487-33.68.24-49.88.312 13.86-46.866 26.43-95.536 40.28-142.909a17398 17398 0 0 1 97.85-316.536m20.22 155.977c6.64 3.347 13.49 8.565 19.63 12.927 11.67 51.484 29.4 104.321 40.94 157.602-5.5 11.189-32.11 42.164-31.44 49.173 1.79 4.183 4.95 6.044 8.6 8.942-9.52 9.235-37.48 28.546-48.86 36.278-9.85 6.357-19.97 12.598-29.9 18.844-3.97-20.106-8.92-40.08-13.32-60.101-1.95-8.896-5.12-18.965-5.22-28.1-.07-6.489 51.61-174.589 59.57-195.565m231.03 923.914c10.16-.2 49.34-1.66 56.24 1.67 1.14 3.79 2.05 4.59 1.18 8.07-6.42 1.26-39.9.13-48.18.21-27.1.28-54.62.32-81.75.34l-339.44 1.38-1370.45 13.58c-18.417.63-38.729.31-57.178.03l3.397-10.94zM551.528 873.475c47.908.281 96.384-1.102 143.863-.344-.863 12.744-6.619 47.1-8.741 61.117l-22.736-.23 6.593-43.451c-15.772-.834-33.323.048-49.315.126-26.155.127-52.617.053-78.733 1.141a5080 5080 0 0 0-35.442 172.996c-2.073 10.91-9.676 45.52-9.078 55.07 4.081 2.77 40.532 2 48.914 2.1 28.677-.08 60.195.46 88.645-.77 3.742-10 4.153-19.41 5.418-29.92 7.652-.16 16.478.15 24.215.27-2.626 15.77-5.56 32.43-6.41 48.38-62.475 1.68-126.141-1.55-190.174-.01 8.541-34.83 16.046-73.64 23.294-108.96 10.534-51.334 22.955-105.331 31.893-156.825 9.509-.042 18.303-.057 27.794-.69m827.392 87.748 2.42-.009c8.51 9.754 9.24 21.513 20.05 29.909-20.82 4.7-44.19 8.557-65.48 12.927q-41.415 8.64-82.44 18.93c-52.86 12.86-105.41 26.49-158.69 37.68-10.93 2.3-22.95 5.99-34.01 6.38-14.18-2.87-38.85-19.07-13.13-26.28 33.02-9.25 66.82-16.59 100.19-24.59l156.69-38.112c25-5.949 49.22-10.506 74.4-16.835m-325.86-289.136c16.88.133 33.76.158 50.65.075-.69 23.311.35 50.676.91 74.157.9 32.143 1.41 64.295 1.52 96.45l56.02.058.76 17.838-110.75.386c-.13-62.989.17-125.979.89-188.964"/><path fill="#fefefe" d="M553.642 947.477c41.525 1.524 89.135-.312 131.446-.535-1.965 16.882-5.247 34.95-7.642 51.959-3.729 26.489-6.92 53.269-10.891 79.679-3.476.05-7.816-.2-11.36-.31-3.47-.24-8.837-.12-12.461-.13 3.086-25.09 8.02-52.02 10.525-76.38-11.339-1.22-28.437-.61-40.05-.7-27.545-.22-55.232.55-82.775-.37 2.535-16.629 7.148-36.232 10.643-52.859zm415.185 132.983 50.183.49c-.14 11.19 1.31 53.24-2.62 60.24-8.76 2.57-70.937 1.01-83.625.97l-242.515-1.19-18.457-.14c2.375-15.1 4.329-34.27 7.592-48.71 8.17-.06 16.472-.29 24.654-.44-1.004 7.03-5.107 25.41.064 30.55 21.57 1.56 253.612 2.15 258.46-.16 4.664-6.94 1.351-29.5 4.082-40.55zM1579.1 946.218c2.25-.591 1.13-.579 3.46.08 10.79 18.195 34.21 164.592 38.09 191.332-15.1 1.03-38.09.6-53.94.9l-128.64 1.71-4.54-43.98 22.03-.81 2.08 17.05c.78 7.83 3.07 11.02 12.02 10.59 13.08-.63 25.77-1.06 38.88-1.15l51.91-.24c8.38-.03 22.13.45 29.89-.99.93-.72 2.52-1.47 2.32-2.71-3-19.36-10.99-95.47-19.29-107.45-7.57-3.82-57.02-2.42-69.4-2.42-.94-4.36-2.23-8.81-3.39-13.125 20.25-12.145 63.01-.761 70.76-10.348-.01-6.502-4.6-27.403-5.99-35.186zm-572.51-73.643 15.05-.837c.36 11.795-.58 23.561-.54 35.365.19 52.786-2.99 107.377-1.07 160.037-9.08.17-45.613 1.26-52.384-.26l-.871-1.7c-.172-29.28.756-58.22 1.926-87.467 1.015-25.345.948-52.667 3.302-77.777 6.806 4.584 18.907 20.029 25.471 15.393 3.986-8.546-1.801-32.009-3.725-42.411zm46.6 205.355c7.7.06 15.41.17 23.11.32-.14 10.1-2.18 38.52 3.05 45.19 9.09 2.04 50.52.57 62.37.37l83.4-.62 112.61-.43c19.14-.01 41.59.61 60.39-.32-.21-7.83-1.8-18.75-2.27-27.48l22.8.61 1.98 17.44c.53 8.38 2.28 17.69 2.9 27l-252.63 2.5c-35.99.28-82.91 2.26-117.91.37-.99-13.64.17-49.6.2-64.95M723.461 765.924c49.555.767 107.02-.583 155.279 1.482 3.681 6.225 5.429 9.301 8.131 15.941-45.975 1.851-97.944.847-144.274 1.432-1.848 18.415-4.733 39.951-5.112 58.267q37.129.783 74.265.903c34.229-.085 71.938-.715 106.037.575 3.871 6.596 9.958 11.894 15.482 17.257-30.466-.709-59.243-.065-89.655-.047l-132.04-.258a2053 2053 0 0 0 11.887-95.552M572.715 642.733c11.03 8.649 26.181 22.494 36.705 32.022-7.573-.14-15.544-.022-23.152-.027-5.953 24.347-10.159 49.112-15.123 73.672-1.66 8.21-3.353 16.386-3.959 24.753 39.53.029 79.059-.371 118.579-1.2 3.377-22.138 5.915-46.866 8.638-69.236 7.099.58 15.43-.384 20.978 2.898 1.818 3.257 1.096 3.432.687 7.637a364 364 0 0 1-2.474 18.351c-3.001 18.685-3.304 39.02-7.071 57.451-12.629 1.608-41.102.899-55.492.959l-110.096.468a5112 5112 0 0 1 31.78-147.748m709.275-27.179c13.51-1.213 42.5-1.202 56.18-.712.7 12.222 1.82 21.97 3.53 34.069-7.87.895-14.51.906-22.4 1.007-.77-6.553-1.48-12.186-2.7-18.716-14.18-1.439-42.79.411-58.08.78l-78.13 1.287c-23.85.608-51.57 2.068-75.17.94l-1.28.753c-3.13 5.64-1.93 17.853-1.73 24.676a4454 4454 0 0 1-49.31.279c.09-12.892.07-25.784-.05-38.675 16.67-2.693 49.69-2.003 67.87-2.563 53.01-1.634 108.38-.977 161.27-3.125M725.134 363.13c5.127 5.082 49.289 91.171 55.484 102.716l186.413 348.532c-4.061.695-6.75 2.082-10.507 3.705l-.735-.196c-5.168-4.626-41.944-79.747-48.376-92.148L846.075 609.09l-130.63-241.286zm218.712 509.151c6.204 5.462 11.77 10.892 17.676 16.65l-.566.04c-20.744 1.306-40.473.15-61.255.413l-168.675.519c-3.057 2.611-5.552 35.553-7.379 43.737-6.584.625-16.441.411-23.281.465 2.825-15.265 7.792-45.539 8.875-60.366 57.026-2.547 119.68-.214 177.606-1.239 18.454-.53 38.43-.2 56.999-.219m244.414-.762c16.88-1.292 41.96-.686 59.61-.697l106.86.172c8.21 18.538 8.77 56.593 9.94 78.032l-11.27 3.136-11 2.262c-.75-7.784-4.01-59.651-6.75-62.893-3.22-3.822-53.27-1.825-61.12-1.763l-93.64.075c.09-5.604-1.61-12.044.12-16.483 2.76-2.421 2.91-1.67 7.25-1.841m-489.705-67.147c2.64-.31 3.236-.587 5.622.646 1.23 4.638-6.165 48.639-7.387 56.376-6.684.407-14.134.381-20.861.288-49.602-.688-99.542.725-149.065.344l6.669-28.277c2.087-9.089 3.6-19.165 5.69-28.634l19.348-.09c-2.139 15.888-5.993 23.573-5.753 40.932 11.799-1.442 34.203-.855 46.621-.845l78.159-.039c2.215-10.136 2.827-27.369 4.69-38.981 4.801-.817 11.286-1.25 16.267-1.72m631.455-33.081 24.51-.457 1.41 25.744c-18.56 19.309-13.52 39.48-4.99 62.823-43.79 1.49-99.61.477-143.69-.044l-28.44-.087c-.12-5.477-.46-11.192-.7-16.686 29.81-.991 58.64-1.849 88.46-1.507 13.56.156 59.55 1.614 68.04-2.54 3.87-6.361-3.37-55.973-4.6-67.246m-270.29 192.194q121.29.751 242.58-.15l-23.05 6.277c-11.86 3.337-23.82 6.437-35.86 9.052-25.01 5.427-51.81 4.156-77.4 4.246l-112.52.025c.03-4.457-1.03-14.588 1.42-18.26.77-1.159 2.98-.976 4.83-1.19m425.15-353.024c6.9.059 13.71-.234 20.6-.485 3.74 15.545 8.32 45.445 8.78 61.733.06 2.216-2.37 11.062-3.08 13.642-3.58 1.163-8.08 2.312-11.76 3.354-2.39-15.917-4.27-32.027-6.44-47.99-2.49-18.372-16.87-13.244-31.01-12.944q-22.605.468-45.21.573c-8.45.234-16.42.126-24.87-.457-19.13-1.321-18.77 5.643-15.55 21.025-8.66.73-13.35.783-21.95-.052-1.03-11.504-2.63-23.778-3.92-35.321 26.53.765 55.88-.658 82.55-1.387 16.97-.464 35.01-.473 51.86-1.691m150.21 275.738 2.69.022c1.15 3.611-11.82 30.275-14.02 35.156-10.32 3.653-30.07 7.357-41.58 10.084l-77.05 19.017c-1.16-.224-1.91-.677-3.02-1.173-.68-5.382 8.81-26.45 11.46-32.362 40.91-9.551 80.91-21.132 121.52-30.744m-278.38-223.81c5.64-.288 14.58-1.161 19.8.054 2.88 4.969 4.43 36.004 6.12 45.366 22.94.983 49.98.271 73.14.183a2594 2594 0 0 0-36.24 19.081 434 434 0 0 0-52.89 32.05c-3.51-31.677-7.92-63.292-11.05-94.992.38-.581.75-1.161 1.12-1.742M163.407 1125.51c8.313-.82 22.94.39 31.388 2.03 48.408 9.41 74.518 22.3 102.885 62.45-.887 3.69-2.304 8.17-3.379 11.88-15.764-21.4-32.677-35.31-57.017-46.17-1.004-.45-2.017-.88-3.04-1.3-40.7-16.29-82.851-17.97-125.208-5.47-10.942 3.23-19.186 8.05-29.451 12.42 1.618-4.61 3.369-8.78 5.251-13.29 20.204-15.65 53.442-21.99 78.571-22.55m567.99-420.468 22.011-.173c-1.57 6.64-4.62 26.075-2.252 32.049 7.195 3.511 97.602 1.351 114.017 1.511 1.537 4.643 6.262 12.202 5.775 16.104l-2.699.167-100.275 1.335c-14.614.147-28.716.858-43.37.347 1.317-16.631 4.351-34.721 6.793-51.34m-29.645-328.363c7.455 6.367 76.489 139.074 87.075 158.469a3103 3103 0 0 1 43.117 80.23c3.384 6.47 12.017 20.802 13.726 27.04l-1.185-.91c-10.79-16.587-22.518-23.065-33.164-37.911-3.046-4.248-11.105-21.129-14.062-26.908l-26.199-50.758c-9.693-18.592-72.82-132.396-74.948-145.58 1.434-2.975 1.356-2.099 5.64-3.672m699.098 629.651c3.51 0 2.22-.21 5.49 1.84 4.73 6.92 8.58 59.73 10.53 72.81-7.42 1.1-15.69.95-23.25 1.04-6.01-53.73 8.79-49.69-46.81-49.26l-69.55.49c11.51-4.79 30.02-8.44 42.55-11.18 26.84-6.09 53.87-11.34 81.04-15.74"/><path fill="#fefefe" d="M171.825 1096.42c4.252-.59 12.944.22 17.532.64 37.69 3.42 81.798 16.32 105.984 47.14 3.944 5.03 6.185 8.69 11.57 12.23-1.133 4.69-2.445 9.51-3.659 14.2-20.696-21.84-25.119-27.65-52.119-42.02a414 414 0 0 0-9.576-4.04c-50.91-20.66-101.331-18.93-151.407 2.21 1.198-3.78 2.543-7.66 3.803-11.44 31.227-14.83 43.881-16.57 77.872-18.92m527.129-148.899c7.203-.306 14.883-.231 22.126-.288-.191 3.433-2.783 25.746-3.38 28.363-2.673 11.714-10.815 99.084-13.753 102.624-7.764-.11-15.683.15-23.458.32 2.022-20.94 7.146-48.11 9.951-69.71 1.618-12.464 5.987-51.778 8.514-61.309M1862.67 1145.39c23.65-1.91 49.93 5.1 70.29 17.22 1.86 7.06 4.78 15.65 7.01 22.75-29.53-20.46-65.16-23.24-99.44-16.26-24.35 6.83-41.29 16.8-55.74 38.31l-3.65-12.41c17.38-31.01 46.95-45.86 81.53-49.61m-860.86-473.152c7.46.418 14.93.545 22.4.382.01 27.015.77 55.869-.29 82.63-18.55.675-37.112.899-55.67.673l-15.133-.288c-3.119-5.817-6.701-11.858-9.984-17.625 18.084.264 38.502.042 56.597-.453.69-9.953.191-60.699 2.08-65.319m-152.942-23.611c1.681 1.695 93.001 176.519 93.353 180.171l-1.971.559c-4.305-.127-8.502.116-12.802.295-23.721-52.53-56.545-106.209-81.698-158.42 5.654-8.659 5.097-12.85 3.118-22.605"/><path fill="#fefefe" d="M1857.6 1114.4c18.15-2.42 58.48 4.73 69.66 22.92 1.08 1.75.14 3.08-.55 4.81l1.12 1.75-.44.6c-5.94-1.21-9.97-4.92-14.51-6.46-27.37-9.27-57.84-8.52-84.15.35-25.87 10.4-35.29 15.35-52.22 37.3-.39-3.49-.98-5.93-1.76-9.3 20.21-33.11 43.97-47.98 82.85-51.97m-537.55-452.381 23.5.21c2.35 31.968 5.55 63.867 9.62 95.662-8.26.405-15.21.442-23.46.343-3.67-29.224-7.74-67.294-9.66-96.215m-267.16 209.748c37.07.217 74.15.233 111.22.048l.17 17.786c-33.41 1.543-77.22.325-111.44.296zM939.523 621.245c28.025-.846 56.612-.19 84.787-.799.48 13.132 1.25 26.542-.09 39.598l-23.45-.093-.05-22.792c-20.058-.45-40.8-.19-60.916-.167-.37-4.826-.252-10.809-.281-15.747m114.287 372.847c34.04-.845 85.07-.45 118.26 1.232a817 817 0 0 0-27.09 6.296c-7.7 1.32-21.1 5.05-29.23 6.97-20.99 4.85-41.92 9.94-62.79 15.25.1-9.92.39-19.84.85-29.748M370.534 398.265c47.687-4.023 89.029 12.466 105.492 59.892-17.435-19.278-14.17-19.336-38.068-34.056-42.845-22.54-81.311-17.582-123.901 1.452q.612-.907 1.25-1.797c10.424-14.353 38.237-22.61 55.227-25.491M1702.68 170.002c17.98-2.008 17.09 12.9 17.71 26.679.36 8.156-1.14 17.151-2.76 25.123l-19.9-5.153c-8.38-2.372-16.2-4.229-24.69-6.192 7.91-16.629 14.21-29.332 29.64-40.457M690.465 494.831c10.124-.81 35.316-.033 46.489.003 8.342 11.892 17.452 33.081 26.815 47.098-8.704.074-14.449-.863-23.03-2.065-18.055-14.891-33.091-29.376-50.274-45.036"/><path fill="#fefefe" d="M374.624 372.275c41.406-3.816 86.652 9.97 102.269 52.181-14.826-16.604-17.692-18.97-36.868-29.516-44.053-19.133-76.215-12.456-118.403 3.769 16.24-15.906 30.395-22.797 53.002-26.434m435.595 112.207c43.053-3.46 37.768 40.182 43.636 70.347 1.134 5.833 2.485 11.866 3.104 17.697l-1.053.995c-3.341-6.174-47.602-89.171-47.357-87.835zm831.441 370.654c1.1-.114 1.79.146 2.94.36.52.791.99 1.447 1.13 2.412.43 3.028.04 8.558-1.84 10.971-3.05 3.912-80.46 21.261-90.66 22.693-1.31-2.331-4.05-10.728-5.09-13.717 4.08-.915 10.16-2.011 14.39-2.505 27.52-3.209 52.63-13.682 79.13-20.214m-25.14-248.36c3.63 4.071 12.95 55.764 13.92 64.211-8.04 3.575-13.07 4.909-21.48 7.246-4.32.91-9.76 1.6-14.22 2.281 4.76-20.173 15.42-53.567 21.78-73.738M1425 1023.52c6.76 2.96 14.48 9.11 23.37 13.04 2.22 15.51 4.17 29.75 5.66 45.37-6.31 1-15.51.49-22.12.34-2.23-19.57-4.82-39.19-6.91-58.75M703.481 328.108c1.932-.216 2.294.087 4.198.641 4.953 4.316 7.809 12.11 10.628 18.205-10.604 6.142-18.099 10.368-27.807 17.795l-2.241 1.512c-3.677-1.063-8.365-9.37-9.182-12.986-4.068-17.983 11.638-22.23 24.404-25.167m790.029 546.447 23.22 2.134c-10.99 18.678-17.29 35.944-24.92 56.087-1.1 3.632-3.05 12.51-7.4 12.659-2.31-5.933 6.52-62.838 9.1-70.88M958.593 767.191l65.347-.17c.05 5.009-.22 9.955-.44 14.958-18.02.248-40.491 1.057-58.11.045-2.421-4.933-4.572-9.81-6.797-14.833m472.857 105.207c13.28.765 31.83.495 45.45.66l-3.19 14.576c-5.76 1.381-29.24 1.213-36.49 1.46-3.16-5.741-4.94-10.253-5.77-16.696m528.35 383.522c2.16 3.11 8.2 25.87 9.76 31.26-10.78.6-22.73.54-33.62.69l-13.5-.07c17.31-8.53 28.82-14.25 37.36-31.88M935.069 843.034c7.278.551 11.254.883 18.647.264 9.419 13.821 23.604 31.466 29.407 46.806l-.559.106c-4.205-1.34-44.01-42.11-47.495-47.176m54.571 1.261c10.43-.41 21.78-.217 32.29-.226.11 5.708-.01 11.418-.37 17.115-9.33-.453-20.55-.101-30.049-.017-.772-4.885-2.214-12.181-1.871-16.872m461.42 155.158c.56-.042 1.69.235 2.31.351 2.51 5.536 7.9 16.336 2.92 20.886-5.59.72-10.83-2.46-15.67-5.09-4.26-2.41-15.16-7.24-15.05-12.27 4.03-2.57 19.79-3.352 25.49-3.877m14.05-29.339c9.25-1.484 13.6 4.077 20.09 9.694-11.67.88-19.94 1.732-31.35 3.97-6.76 1.217-13.5 2.496-20.24 3.838l6.28-11.014c9.92-1.826 15.61-3.495 25.22-6.488M89.992 1285.54c8.211 3.44 15.777 7.5 23.782 11.19 4.708 2.18 9.967 3.44 15.179 5.79l-1.703.67c-13.95.01-27.898.28-41.839.8 1.084-5.6 3.138-12.8 4.58-18.45M1459.46 935.235l1.6.514c.92 2.334 3.65 15.208 5.05 19.789-4.72 1.473-9.47 2.256-14.32 3.177-2.33.391-3.06.726-5.26-.194.62-5.356-.18-17 1.4-20.213 3.1-2.153 7.63-2.432 11.53-3.073m24.38 59.206c3.09 2.713 3.98 15.879 4.53 20.569-5.03 1.16-8.46 1.63-13.61 2.25-1.26-6.26-3.91-14.52-5.73-20.816 4.92-.278 9.93-1.217 14.81-2.003m116.75-613.642c.69 3.616-13.11 46.876-16.2 50.514-3.4-19.981 1.12-36.121 16.2-50.514m8.45-33.052c.81.363.76.625 1.44 1.526-.82 7.311-6.84 10.507-12.43 14.929-9.26 7.321-14 14.055-19.86 24.134l-.89.296-.25-1.588c7.03-20.711 13.31-27.485 31.99-39.297M755.413 555.158c4.698.161 9.604.498 14.319.749 7.031 9.593 10.85 16.67 15.747 27.285-4.813-3.467-24.656-22.927-30.066-28.034M963.63 830.342c2.413-.22 7.368-.91 8.561.886 2.526 3.803 5.727 23.354 5.76 27.218l-1.144-.045c-2.638-4.269-15.192-22.92-15.259-26.161zm532.71 129.159c3.75 1.633 9.39 6.802 9.74 11.181.26 3.278-1.74 4.393-3.79 6.633-2.68-2.336-9.39-9.061-9.21-12.774.13-2.699 1.14-2.823 3.26-5.04"/></svg>