<svg xmlns="http://www.w3.org/2000/svg" preserveAspectRatio="none" style="display:block" viewBox="0 0 2048 2048"><path fill="#fefefe" d="M0 0h2048v2048H0z"/><path d="M988.74 95.438a887.7 887.7 0 0 1 232.65 21.716c181.35 41.257 340.63 131.401 467.48 267.718a922.6 922.6 0 0 1 211.66 373.941c22.1 78.258 31.35 143.434 35.96 224.36a929.4 929.4 0 0 1-129.87 520.397c-35.74 59.18-78.81 114.62-125.37 165.55-17.67 19.33-36.92 36.61-56.2 54.28a881.4 881.4 0 0 1-406.61 209.73c-54.64 11.54-103.26 16.42-158.67 19.45-35.11 2.7-80.168.31-115.39-2.85-187.103-16.77-374.009-94.49-514.388-219.97a1005.6 1005.6 0 0 1-154.141-173.37C85.168 1280.27 55.408 917.589 203.745 615.092c37.893-77.274 85.828-153.851 143.665-218.026a898.13 898.13 0 0 1 544.256-293.599c30.905-4.43 65.805-6.395 97.074-8.029"/><path fill="#fefefe" d="M1000.38 120.445c232.43-6.45 458.03 79.033 627.82 237.894a856.5 856.5 0 0 1 123.37 143.895 909.5 909.5 0 0 1 160.66 487.544 916.45 916.45 0 0 1-176.44 573.392c-19.57 26.69-36.92 49.1-59.49 73.45a993.4 993.4 0 0 1-154.33 137.46c-136.82 97.22-306.97 147.52-473.69 153.78-232.882 5.99-458.612-80.73-627.575-241.11-176.391-166.8-279.278-396.86-286.018-639.54-5.102-241.177 83.697-474.908 247.656-651.861 160.891-170.694 383.525-269.722 618.037-274.904"/><path d="M984.747 151.44q2.412-.125 4.827-.219c227.386-7.842 448.556 75.091 614.736 230.508 174.58 162.075 265.22 372.923 273.97 609.9 8.97 233.591-75.38 461.141-234.42 632.461-151.67 166.14-363.68 264.44-588.47 272.87-61.983 1.12-111.539-.37-173.594-10.16a858.1 858.1 0 0 1-431.117-207.31 884.38 884.38 0 0 1-277.956-496.47c-6.866-36.82-11.459-67.55-13.528-105.27-13.003-236.084 67.917-467.721 225.095-644.351a853.1 853.1 0 0 1 333.132-227.661c90.621-34.624 170.363-49.145 267.325-54.298"/><path fill="#fefefe" d="M992.433 176.562q2.78-.176 5.566-.258c222.281-5.201 437.501 78.239 598.181 231.914a799.7 799.7 0 0 1 97.61 112.4c103.15 142.015 154.34 298.386 159.86 474.084 7.14 230.718-78.44 454.678-237.61 621.848a778 778 0 0 1-123.28 106.16c-137.78 97.55-283.52 144.22-451.9 149.36-219.054 5.17-431.298-76.3-590.621-226.72-164.965-155.97-261.225-371.08-267.61-598.01-5.556-227.811 79.021-448.606 235.349-614.403 150.151-157.915 356.641-250.07 574.455-256.375"/><path d="M993.282 242.436c198.948-8.057 392.998 62.971 539.738 197.561 188.7 171.27 285.79 431.151 250.82 684.133a791.16 791.16 0 0 1-195.24 425.31c-23.48 25.68-45.81 49.29-72.15 72.1a765.57 765.57 0 0 1-357.48 170.59c-35.49 6.43-75.51 10.01-111.52 11.63-210.23 4.37-389.679-61.46-545.005-203.7-156.18-143.79-248.14-344.23-255.27-556.41-1.825-43.08 2.38-90.368 8.741-132.999A805.23 805.23 0 0 1 428.455 520.5C570.53 345.204 769.404 251.618 993.282 242.436"/><path fill="#fefefe" d="M983.754 266.915c.71.056 5.468.266 5.571 1.573 4.97 63.015 6.478 126.526 10.355 189.604.92 15.006 24.88 16.267 24.3-3.06-.41-13.519-1.4-27.672-1.91-41.301-1.15-30.835-2.57-61.66-4.24-92.471-.95-17.472-2.54-35.19-2.92-52.64 26.67 23.967 53.12 51.378 78.68 76.585l115.57 112.348 149.95 142.469a15789 15789 0 0 1 193.39 182.13c22.24 21.604 44.53 45.202 66.63 67.313a5596 5596 0 0 1 93.51 95.021c11.91 12.261 24.71 24.1 36.21 36.704 2.36 2.591 4.21 8.381 5.39 11.834-42.33-.298-84.1-.697-126.41 1.549-15.47.786-31.02.736-46.46 1.817-5.66.396-11.68 3.83-11.97 10.16-.53 11.31 4.85 14.72 15.7 14.42 55.47-1.55 111.31-4.71 166.83-3.24-21.97 25.76-42.95 50.03-66.32 74.63-50.88 53.56-97.66 110.51-149.21 163.56l-84.96 86.08c-18.2 18.28-41.68 40.41-57.18 60.68.1-17.54.11-35.09.04-52.63-.6-69.16-4.98-143.29-25.85-209.54-7.01-22.26-18.17-40.08-34.77-56.4 1.12-6.42 1.14-9.89 1.29-16.39-27.73 18.49-52.88 31.54-85.11 41.55-60.47 18.79-135.89 18.12-192.61-12.16 25.03 3.72 48.15 9.51 74.99 11.98 61.77 5.68 140.7-10.53 191.15-48.18.99-.9 4.98-4.15 5.23-5.2 38.59-158.857 50.37-300.433-60.89-434.304-67.01-78.292-142.79-94.36-241.4-89.437-71.88 3.589-144.808 12.118-200.36 63.987-30.3 28.291-38.924 56.151-18.927 94.596a518 518 0 0 0-4.474 53.392c-.37 10.202.348 28.7-1.888 39.735-5.594 27.601-25.62 65.837-27.362 93.167-.491 7.691 20.475 14.474 27.898 18.755l1.066.628c3.965 32.354-1.379 83.626 22.963 111.391 19.157 21.86 52.161 26.3 79.489 27.85-18.329 34.23 6.726 31 32.166 30.52.395 25.92.066 52.66.069 78.65-49.766 49.16-64.183 80.47-90.752 143.44a1693 1693 0 0 0-59.426 162.53c-6.643 20.96-13.934 41.9-19.725 63.09a10963 10963 0 0 0-197.16-201.66c-39.654-39.82-80.415-81.38-120.975-120.08a3954 3954 0 0 0-102.641-95.06c-23.559-20.95-45.891-37.75-67.71-60.67 53.746-.69 108.052 2.62 161.78 2.75 17.712.05 17.108-26.2-.421-25.96-46.768.64-94.172-2.73-140.843-1.16 30.601-37.899 59.295-65.957 91.764-100.962l169.446-182.645a4310 4310 0 0 0 101.791-113.832c33.958-39.406 90.1-106.119 122.976-142.976 17.575-19.703 188.455-201.386 198.68-204.53"/><path fill="#fefefe" d="M1085.13 1134.21c3.94 1.65 7.71 1.65 12 2.04-44.77 42.83-75.89 86.95-96.87 145.45-22.311 62.2-38.814 126.1-56.322 189.75a18642 18642 0 0 1-80.804 290.77c-32.855-7.08-55.706-13.77-87.902-24.13-12.566-4.5-23.753-9.64-36.74-13.91 3.676-26.41 13.852-63.77 20.656-90.36 27.705-108.29 62.103-219.44 105.177-322.73 13.517-32.41 27.351-65.08 44.896-95.45 18.025-6.27 36.535-9.7 56.067-17.07 42.372-15.99 81.922-39.83 119.842-64.36M821.877 669.787c32.744 2.874 62.003 16.004 84.172 40.351 31.083 34.181 59.574 68.716 83.507 108.419 2.839 4.709 20.914 36.862 32.244 22.238.21-.278 2.48-12.394 2.7-13.932 3.24-22.299 16.21-54.974 41.04-59.607 12.9-2.407 23.39 10.828 23.02 22.454-.71 22.908-19.92 47.056-34.87 63.106-7.56 8.126-16.31 14.791-23.85 22.798l-.86.919c-.06 8.709 1.27 21.207 1.79 30.294l3.19 58.152c2.3 41.041 3.27 82.171 5.99 122.971-8.93 5.1-21.39 10.31-30.94 14.86a384 384 0 0 0-42.581 23.2l-15.398 10.21c.068-23.55 2.115-49.12-1.261-72.4-1.436-9.9-4.126-21.63-11.549-28.79-16.937-16.34-70.093-8.19-97.401-29.32-16.343-12.638-20.522-35.928-22.651-55.28 9.718 1.955 49.584.469 42.239-16.508-6.954-4.137-21.184 4.342-29.535 5.25-6.019.655-7.938.579-13.908.24-3.574-17.174-1.918-34.393-4.999-51.239-1.772-9.682-17.289-8.684-25.886-13.516-1.108-6.902 19.792-66.324 22.328-78.431 2.402-11.465 4.589-19.619 5.932-33.466 23.782-7.174 33.811-15.172 61.998-6.131 6.138 1.968 18.47 7.385 24.252 8.251 13.932-9.498-10.068-17.86-17.481-20.36-25.256-8.52-45.801-6.009-69.175 5.825-.211-26.616 4.132-54.278 7.943-80.558"/><path d="M847.169 779.132c26.245-2.404 26.089 25.045 8.188 36.189-22.728 3.235-27.44-26.414-8.188-36.189"/><path fill="#fefefe" d="M485.896 494.778c44.64 37.727 95.189 85.089 137.488 125-16.888 19.499-34.837 38.377-52.201 57.559a7324 7324 0 0 1-136.74 148.456c-31.799 33.972-62.102 68.187-94.385 102.148-17.168 18.187-34.398 36.118-50.191 55.519-5.356 6.58-10.91 11.911-17.318 17.44l.022-.94a764.35 764.35 0 0 1 118.673-385.462c27.011-43.391 57.573-84.323 94.652-119.72m564.604-227q3-.061 6 .069a733.8 733.8 0 0 1 416.8 153.322c17.07 13.497 41.42 33.268 55.96 49.078-20.03 24.755-44.97 50.767-66.37 75.062l-57.88 65.05c-49.86-48.418-100.77-95.043-150.81-142.947a16173 16173 0 0 1-203.7-199.634M273.225 1067.57c16.208 12.71 31.469 27.11 47.346 40.26 34.199 28.33 65.631 59.22 97.579 90.01a6721 6721 0 0 1 186.474 185.46c-7.255 9.6-18.398 21.7-26.445 31.2a6792 6792 0 0 0-43.164 52.14c-19.706 24.89-40.647 46.8-60.158 71.04-115.356-115.44-193.853-307.93-201.632-470.11M1547.67 487.623c18.76 15.177 43.61 47.048 58.32 66.178a750.65 750.65 0 0 1 153.9 403.128c-12.54-16.707-44.97-46.799-61.38-62.937-58.87-58.749-115.96-119.181-176.96-175.801-32.45-30.118-65.79-60.866-97.6-91.651 38.87-41.599 88.48-95.346 123.72-138.917m208.79 566.057c4.02 9.46-2 58.06-3.51 71.28-11.73 102.57-49.08 201.46-102.08 289.69-18.4 30.63-37.88 59.74-61.34 86.74-9.45-6.69-28.44-16.49-39.27-22.61-21.4-12.14-42.66-24.52-63.8-37.12-20.61-11.69-41.62-23.39-61.36-36.45 78.74-82.51 161.45-158.57 234.79-246.54 29.62-35.52 65.17-70.48 96.57-104.99M941.071 270.637l.156 1.389c-19.311 21.68-43.985 45.284-64.659 66.107a5153 5153 0 0 0-84.033 87.243c-19.265 20.519-39.414 44.5-57.972 65.829l-94.806 108.99-70.257-64.279c-16.693-16.439-49.104-44.538-67.154-59.874 5.217-5.82 10.811-11.125 16.529-16.39 91.045-83.844 203.424-144.079 324.066-172.067 32.11-7.45 65.169-14.722 98.13-16.948M622.302 1400.98c7.015 5.97 21.236 22.42 29.334 30.32 36.462 35.57 70.912 74.07 106.479 110.4a2642 2642 0 0 0-25.679 97.1c-6.214 24.47-12.92 49.36-17.062 74.24-16.159-5.61-40.879-19.55-55.87-27.81a768 768 0 0 1-131.323-95.01c-10.876-9.72-25.512-22.84-34.639-34.06 42.223-51.9 86.861-103.43 128.76-155.18m784.648 23.9c11.7 5.62 36.07 21.21 48.49 28.3 40.23 22.97 77.42 45.08 119.24 65.17-26.93 33.87-59.45 62.49-92.75 89.88-35.3 27.87-59.81 44.78-97.64 69.16 3.36-51.93 6.07-103.9 8.14-155.9.74-21.98.01-62.18 2.6-81.95zm-369.84-316.01c5 .56 16.86 9.75 21.75 13.19-36.37 22.82-71.094 42.13-111.614 56.4-5.718 2.01-11.662 3.38-17.545 4.88 29.301-33.02 67.365-56.42 107.409-74.47"/></svg>