<svg xmlns="http://www.w3.org/2000/svg" preserveAspectRatio="none" style="display:block" viewBox="0 0 2048 1152"><path fill="#fefefe" d="M0 0h2048v1152H0z"/><path d="M1001.19 43.576c14.79-2.396 43.75-.427 58.51 1.05a421.35 421.35 0 0 1 226.1 94.748c33.34 27.57 57.42 54.844 82.38 90.041 217.21 306.291 103.38 843.455-319.94 883.045-.29.06-.59.13-.88.19-105.495 6.68-208.671-30.85-289.854-97.29-112.188-91.803-162.489-223.559-178.477-364.086-18.05-158.654 23.897-328.14 126-452.847a423.2 423.2 0 0 1 73.608-69.913c69.305-52.334 135.906-76.287 222.553-84.938"/><path fill="#fefefe" d="m1022.43 64.428 1.6-.028c100.08-1.485 203.55 47.031 273.97 117.152 197 196.141 208.05 577.436 16.37 780.83-72.48 76.918-180.11 126.658-285.87 127.788-12.73.03-29.953.3-42.172-1.05-86.392-9.5-162.523-44.55-227.423-101.726-69.59-61.309-118.706-152.732-140.848-242.055-9.412-40.978-15.045-82.753-18.427-124.546-18.642-230.399 102.186-490.138 342.818-546.615 22.265-5.226 56.567-8.239 79.982-9.75"/><path d="M996.408 295.334c3.942-.209 11.302.993 16.012.9 16.34-.321 33.03-3.515 47.91 5.927 32.35 20.52 50.05 60.337 58.68 96.382 7.42 30.984 25.72 87.304 9.29 116.604-12.13 21.647-38.63 30.142-60.56 35.954a192 192 0 0 1 38.05 15.588c43.93 24.151 53.34 53.852 68.11 99.41a1867 1867 0 0 1 19.55 63.326c53.66 8.795 107.33 18.979 162.04 8.333.22-8.989.38-26.715 1.55-35.145 4.71-33.973 8.65-62.385 7.25-97.074-.91-22.189-5.55-42.411-6.09-64.097-.04-1.533 1.04-3.404 1.95-4.671 11.05-8.771 33.53 2.52 44.73 2.882 5.95-1.767 15.91-18.761 22.28-17.604 16.34 2.968-6.57 23.466-11.31 27.523-12.77 10.939-28.47-.216-43.88-1.929 13.11 56.332 4.43 114.182-1.83 170.7-1.34 12.068-.17 30.027.01 42.472 13.09.389 22.76-.781 35.64-1.648 3.72-.251 6.03.225 8.7 2.843 1.43 3.784 1.37 2.238.5 5.903-8.21 9.338-45.84 7.16-57.72 3.133l-1.44-19.345c-11.7.935-26.8 3.21-37.94 3.583-34.56 1.156-82.37-2.821-116.07-11.256 16.73 21.482 54.83 52.1 74.74 72.115a233 233 0 0 1 57.69 3.261c10.87 7.957 11.7 15.522 13.11 27.929 7.76.23 28.12-3.184 32.47 1.82.14 2.214.52 5.369-.91 7.075-5.26 6.259-22.66 7.825-30.36 8.896 1.3.806 6.51 4.162 7.15 5.007 16.52 21.819-45.16 12.223-52.18 11.46 1.25 5.137 2.27 9.499 3.12 14.755 8.36 52.066-37.82 69.471-78.55 79.276-2.07.574-21.15 3.52-21.63 5.078-4.57 14.876-11.06 24.8-27.79 30.55-26.68 9.18-54.39-4.73-80.59-8.48-3.49-.5-23.73 3.49-28.84 4.21-36.46 1-73.149 20.23-109.336 25.95-28.071 4.44-55.646 14.2-68.297-18.11.968-8.14 1.585-11.95 5.052-19.401-48.075-1.731-133.288-13.723-145.032-70.169-2.547-12.242-2.308-21.773 2.677-33.24-15.067 2.502-36.388 8.014-51.016 9.183-9.621-4.75-10.783-5.165-11.134-16.044 5.904-9.749 7.833-12.415 17.001-19.082a92 92 0 0 1-2.453-3.609c-8.792-13.419 1.971-26.444 13.35-33.607 14.115-8.887 31.858-9.176 47.696-5.749a2498 2498 0 0 1 36.962-38.335c9.389-9.576 21.373-20.759 28.634-31.903 1.68-2.577 3.692-11.213 4.531-14.587-45.738 9.707-92.384 15.765-137.7 28.629-14.897 4.23-22.779-2.759-27.151-17-10.573 1.863-35.515 8.12-42.239-.733-.234-3.849-.593-2.331 1.439-5.712 5.04-3.317 30.519-6.073 38.169-7.362-2.76-24.225-4.703-53.275-7.994-76.12-6.603-45.841-16.446-68.352-12.21-116.405-1.907.44-3.838.774-5.782 1.001-6.475.744-12.845.389-19.331.115-7.178-.304-15.986.298-16.211-9.37 4.071-7.521 49.738-7.99 57.902-5.616 3.186 4.384-2.015 17.067-1.645 21.758.675 8.538-1.393 18.995-.762 27.102 2.016 25.864 9.039 51.323 12.558 77.007 3.111 22.754 3.309 45.858 6.345 68.556.865 6.472 2.734 25.92 8.126 29.226 7.746 1.861 24.762-5.528 31.676-7.021 38.727-8.361 80.845-17.604 119.843-23.354 3.948-9.453 7.906-25.577 11.035-35.938 6.947-23.01 14.765-45.009 24.694-66.895 16.109-35.507 54.205-55.575 89.987-67.697-70.668-2.924-95.036-47.839-74.708-112.81 8.173-26.123 11.26-50.016 22.525-76.426a137.3 137.3 0 0 1 18.69-31.961c16.517-20.788 34.649-32.809 61.267-35.917"/><path fill="#fefefe" d="M987.428 372.768c1.988 2.319 2.441 6.703 3.846 9.04 6.412 10.661 24.146 9.493 33.836 4.868 5.72-2.733 6.6-6.561 8.49-11.697 6.69 17.037 29 15.278 44.44 13.078 3 22.029 4.9 44.071 4.75 66.513-.17 26.386-5.5 48.247-29.27 63.59-5.29 3.416-14.01 5.453-18.06 9.348-2.41 6.966 1.78 27.232 4.3 34.251l11.37 1.719c-1.38 20.71-15.55 70.531-22.33 91.758a1698 1698 0 0 1-7.87 27.048c-15.33-35.042-28.227-81.653-38.136-118.746 3.19-.779 8.386-1.367 10.646-3.342 6.63-5.791 6.78-24.23 7.09-32.965-71.702-22.337-58.665-75.131-51.842-136.088 19.769-.421 31.983 3.25 38.74-18.375"/><path d="M1013.76 406.311c2.29.138 5.39.832 5.74 3.443 1.54 11.543 3.65 37.53-.05 47.93l-3.75-1.23c-4.32-6.03-2.31-41.58-1.94-50.143m-11.95 77.376c6.63-.622 30.23-3.231 32.96 3.224l-1.18 2.833c-7.5.68-25.31 2.659-31.33-.937-1.48-2.949-1.3-1.607-.45-5.12m35.59-71.833c10.58 3.348 19.8.678 29.34 3.825 1.02.338.83 1.649.95 3.001l-2.2 2.035c-6.84 1.036-24.68 2.608-29.44-2.776-.73-3.68-.9-2.116 1.35-6.085m-74.838 1.075c10.483 2.089 15.894 1.7 26.466 1.85 1.667.023 2.201 1.802 2.786 3.15l-1.012 2.344c-6.859 1.502-24.258 3.497-29.822-1.248-.793-3.315-.551-2.323 1.582-6.096"/><path fill="#fefefe" d="M1031.95 965.263c.02.018 8.22 34.767 9.07 37.857-26.49 4.29-108.277 35.14-130.009 24.22-18.694-13.12-8.716-30.255 5.071-42.89 14.817-13.578 31.534-5.537 48.823-7.592 7.061-.839 19.585-5.756 26.957-8.032 14.518 4.871 25.458.141 40.088-3.563M737.992 829.301c26.936-1.283 53.724-.007 63.198 29.797-9.159 4.645-18.085 10.475-27.419 15.29-17.537 9.046-34.796 12.872-54.05 16.381-4.6.838-14.847 2.238-18.727-.453l.413-1.917c2.897-3.529 6.353-3.879 10.831-5.011 20.249-6.815 43.783-13.337 56.315-31.076 2.341-3.313 4.966-5.807 4.491-9.791-1.506-.141-2.96-.482-4.228.558-12.484 10.242-19.988 19.28-35.857 24.548-37.046-5.496-18.765-30.521 5.033-38.326"/><path d="M732.724 833.481c8.601 4.903 12.695 3.056 19.592 7.358 3.763 6.059-8.612 11.996-13.208 14.898-5.337 2.563-11.173 5.898-16.266 1.19-5.159-9.42 3.36-17.953 9.882-23.446"/><path fill="#fefefe" d="M731.22 843.84c3.496-.123 5.236-.328 8.711.54l-.03 1.136-3.449 2.441c-2.982 1.984-4.319 2.896-7.449 2.351-.458-3.302.211-3.089 2.217-6.468m550.3-19.44c12.03-1.436 36.52 1.703 49.42 3.209 3.38 3.545 6.62 7.815 7.09 12.874.55 6.045-.39 19.663-9.41 18.592a8.52 8.52 0 0 1-5.37-2.779c.52-.577 1.03-1.165 1.52-1.763 15.15-18.413-16.62-34.658-25.42-21.849 3.95 6.95 22.5.957 19.31 14.793-12.12 14.067-28.88-15.631-36.63-14.681-2.33 2.119-1.61 1.225-2.11 5.135 14.44 18.541 28.14 22.202 49.55 29.94 7.27 2.627 12.32 3.478 18.73 7.957-33.32 1.036-70.64-6.104-100.17-21.9 3.75-13.717 9.81-20.189 20.47-28.387zm-372.813-64.286c2.468 22.208 1.258 68.325 1.235 92.755-27.409.069-48.66-.642-77.009.153l-.933-.239c-.302-2.139 6.317-5.342 8.476-6.683a204 204 0 0 0 25.087-18.176c27.666-23.047 30.388-34.279 43.144-67.81m225.363 6.644c2.71 3.758 7.16 18.535 12.49 25.885 14.33 19.776 34.54 32.132 51.41 47.508l-.59.885-5.26.655c-15.6.976-40.07 5.145-56.28 7.388-.05-21.999-3.32-62.815-1.77-82.321m49.62 130.491c4.66-.553 6.82-1.187 10.42 1.647l-.31 2.007c-6.55 6.628-60.99 18.405-74.42 23.323-16.36 5.99-33.99 10.737-50.81 18.86-3.31 1.555-6.41 3.496-9.91 3.328l-1.11-1.413c.07-1.431.05-5.771.7-6.188 16.13-10.369 68.43-27.23 83.78-31.549a658 658 0 0 1 41.66-10.015m-167.64 37.747c12.88 2.129 19.65 4.061 32.91 4.021l.09 13.853c-7.06 1.992-16.68 3.864-24.01 5.515-12.4 3.095-16.59 5.292-29.532 3.425 6.052-11.906 9.002-19.687 20.542-26.814m175.77 48.29c1.77-.462 2.37-.338 4.14-.243l.64 1.688c-1.08 3.094-1.95 4.148-4 6.626-16.04 19.433-38.77 14.913-61.36 10.073a690 690 0 0 1-11.56-3.661c28.72-3.889 45.61-9.68 72.14-14.483"/><path d="M303.264 144.258c10.363-.244 25.268.672 35.863 1.003l74.414 2.464 89.811 3.543c16.251.584 74.888 1.336 86.914 6.086 2.61 5.26 3.205 29.916 3.675 37.114a6632 6632 0 0 0 5.251 74.14c1.799 21.202 5.893 44.596 6.425 65.755.141 5.595-6.655 16.654-9.615 22.028-.596-8.843-2.354-21.204-3.903-30.072-8.961-51.299-7.16-106.251-14.461-157.252-18.078-2.875-68.006-3.546-88.4-4.292-58.378-2.135-119.089-5.497-177.343-5.878a23702 23702 0 0 1 84.151 620.989c8.009.657 13.691 1.15 21.62 2.547-4.119-26-6.74-62.072-10.133-89.518L379.008 471.41l-30.363-210.493c-1.437-9.922-12.434-76.045-10.712-80.726 3.724-3.736 13.374-4.408 18.024-3.528 28.563 5.406 191.433 3.504 204.421 11.307 4.03 3.425 6.078 40.41 6.292 47.256 1.41 45.07 13.525 99.814 11.278 144.501-4.637 92.213-26.626 179.57-14.149 272.668 1.087 28.19 10.278 67.7 16.72 95.423 2.666 11.473 8.306 25.529 9.975 36.766-1.183 3.088-2.581 4.403-5.48 6.236-28.082 17.761-58.295 36.437-81.546 60.411 14.444 3.497 78.079 16.776 84.76 25.961 3.968 5.456.925 19.859 1.7 26.86 1.479 13.365 14.538 45.183 11.888 56.181-2.376 9.857-84.003 31.673-96.739 40.357l-.733.51c64.677-3.09 132.092.14 196.95-.84 2.395-.04 16.525 7.16 15.325 11.85-5.007 3.77-44.757 2.54-54.142 2.58l-103.003.32-422.122 1.39c-7.548.04-9.03.35-14.347-4.9-2.717-8.4-2.533-48.389-2.734-60.655q-1.244-74.46-1.472-148.928c-.686-61.342-2.614-122.708-2.722-184.068-.014-7.977-.278-19.441 10.184-18.518 5.301 3.963 3.153 13.561 5.95 20.611 9.785 4.59 70.062.452 83.441-1.243a255 255 0 0 0 28.911-5.465c8.56-2.166 27.534-7.692 32.098-15.339.264-3.527.622-2.227-1.143-5.003-18.492-11.881-59.01-17.19-80.932-16.851-16.386 14.645-28.833 15.135-45.24.997-7.206 1.681-16.679 5.745-22.204.088-.983-8.71 8.65-9.967 15.434-12.605 1.831-2.609 2.029-16.179 4.21-22.317 5.169-14.544 23.418-18.408 36.94-13.533 14.161 5.104 12.118 21.605 16.646 32.299 5.395 1.997 35.801 4.79 44.262 6.106-3.076-12.5-6.552-45.469-8.51-59.644l-16.952-118.745-16.754-110.321c-2.297-15.193-6.91-38.942-7.523-53.099 1.858-3.102 102.065-79.157 108.369-81.009"/><path fill="#fefefe" d="M296.874 164.96c7.763 7.005 79.906 563.945 84.382 613.082-16.898-.3-30.496.263-46.728 6.566-4.282 1.663-13.89 7.237-17.418 7.839-1.419-4.078-.789-12.185-.943-17.197-.066-26.113-2.947-159.278-9.684-174.869-6.41-14.835-32.559-23.367-46.7-29.074-3.629-22.912-6.241-45.594-9.626-68.466l-23.129-156.084c-2.849-20.153-5.908-40.327-8.903-60.462-2.57-17.277-4.64-39.229-8.907-55.986 2.788-2.773 6.471-5.488 9.687-7.774 26.309-18.704 51.78-38.747 77.969-57.575m71.488 673.347c11.207.295 40.329 5.964 52.424 8.499a2566 2566 0 0 1 91.965 20.991c16.025 4.05 40.546 11.502 55.549 14.165-44.147 14.77-92.024 26.585-136.57 41.333-36.287 12.014-71.659 25.065-107.517 38.205-32.883 12.339-38.361 6.211-71.507-1.464a3211 3211 0 0 1-117.269-29.487 402 402 0 0 0-1.021-26.177c9.968-.839 34.865-6.539 45.649-9.056 58.555-13.67 134.18-31.99 188.297-57.009m189.37-417.755c1.779-.355.845-.352 2.84.711 1.186 3.858-.473 11.877-.85 16.151-3.815 43.235-2.903 86.996-2.941 130.365-9.708.354-20.977-.625-30.749-1.419-40.87-3.318-82.006-4.352-122.822-7.97-3.044-24.261-7.862-74.54-12.847-96.39 40.79-4.99 81.829-6.748 122.589-11.85l1.732 1.029.85 3.958c4.532 27.326 1.779 65.366 5.091 93.53.225 1.91 3.362 3.439 5.407 4.056 3.767-.513 2.344.104 5.337-2.497 2.674-5.753 2.144-22.703 1.563-29.36-1.633-18.675 3.962-73.206-9.283-85.816-10.838-.172-27.859 2.716-39.384 3.607-31.573 2.438-63.964 6.613-95.514 8.66l-1.679-14.142c56.695-3.356 113.803-9.04 170.66-12.623"/><path d="M459.29 481.734c8.042.245 6.686 2.048 13.684 4.512 1.299.458 10.19.16 12.287.15 5.832 3.301.424 11.889-1.821 16.931-1.943 2.147-2.271 2.302-4.995 3.307-7.08-.147-19.269-11.431-21.564-18.157-.015-3.497.32-3.893 2.409-6.743m37.33 28.717c9.399 1.929 15.813 7.673 9.079 17.041-12.143-.68-15.184-6.74-9.079-17.041"/><path fill="#fefefe" d="M132.291 666.887a703 703 0 0 0 65.584.364c.537 11.78 2.669 26.277 3.835 38.263l7.346 78.285c2.641 27.582 3.747 62.24 8.685 88.399-5.319 2.388-11.243 3.349-16.972 4.539a4054 4054 0 0 1-65.739 14.619L133.051 751c-.382-24.041-2.393-60.818-.76-84.113"/><path d="M148.972 678.751c8.667-.035 10.218 7.584 10.377 14.629.621 27.395 22.099 161.182 13.545 180.333-8.461-1.69-9.541-2.916-10.524-11.872-3.174-28.904-5.487-57.903-8.487-86.843a4409 4409 0 0 1-6.387-64.083c-.739-8.126-1.591-17.153-1.913-25.373-.088-2.246 2.022-4.938 3.389-6.791"/><path fill="#fefefe" d="m571.622 894.94 2.197.356c1.63 2.274 11.77 52.88 12.598 58.689-32.645 15.97-83.727 27.628-114.95 46.645-44.689-.992-99.371-.32-144.216.41-6.806-.1-13.608-.35-20.404-.74-.74-5.656-1.681-11.516-2.516-17.179 35.153-10.764 73.687-26.569 109.803-38.624C466.55 927 519.727 912.534 571.622 894.94M295.554 637.881c5.254 6.317 5.535 149.642 6.511 166.731-6.591 6.23-17.233 12.921-25.906 21.03-.33-35.161-5.483-107.985-13.936-143.713-.528-2.233-2.897-2.722-4.784-3.226-3.256 1.315-5.169 3.498-4.61 7.314 3.367 22.961 1.691 52.573 6.369 75.006-.444 10.18 1.418 24.937 1.963 35.475.688 13.298.647 27.282 2.615 40.327-10.046 8.603-21.306 16.199-25.061 28.786-.481 1.614-7.709 3.625-9.599 4.244.571-10.001-.955-22.675-1.726-32.965a2702 2702 0 0 0-5.484-64.047c-2.889-30.631-6.059-78.301-10.834-107.238 31.874-5.407 57.291-7.686 84.482-27.724m265.455 129.704c3.955-.517 10.026-.659 14.158-.882l4.248 12.56c-9.547 5.656-19.81 10.42-29.543 16.662-23.04 14.777-44.287 32.368-63.942 51.334-32.915-8.185-83.799-20.04-117.702-22.559-3.805-.283-35.034 12.635-41.651 15.068-22.945 8.435-43.854 14.83-67.613 21.327l.298-1.435c22.745-23.284 73.07-67.662 106.446-67.823 28.323-.136 83.852 5.792 105.854 25.184 18.485-13.249 30.323-19.045 52.897-23.494 2.595-.512 2.176-6.939-1.272-9.862-4.011-1.275-10.543-.014-14.951.514 22.002-8.175 27.528-14.057 52.773-16.594M135.421 944.337c7.331 3.678 32.059 8.929 41.446 11.272a4433 4433 0 0 0 112.711 26.858c1.158 5.339 4.148 13.843.913 18.333l-4.243.28c-17.096 1.09-143.053 2.53-149.83-.77-1.22-7.145-.861-46.426-.997-55.973m421.792-557.86 7.132-.074c-.307 6.326-.898 12.982-1.37 19.33L387.23 419.698c-3.984-3.118-3.916-14.953-5.235-21.507 19.851-.836 38.95-2.993 58.701-4.353zm-8.088-176.732c3.472 2.412 13.963 144.822 16.769 161.981-4.412.208-9.12.751-13.543 1.177-3.844.177-4.964.235-8.836-.368-2.051-2.422-14.235-133.137-14.08-146.739a381 381 0 0 1 19.69-16.051M352.37 192.057c14.839-.368 38.655 1.212 54.179 1.734l134.354 5.244-7.497 6.025-16.38 11.864c-29.173-2.256-58.091-3.899-87.306-5.557-24.511-1.391-50.568-3.848-75.097-4.129-.32-5.027-1.37-10.202-2.253-15.181m-62.194 411.492c7.443 5.177 5.959 9.41 4.564 17.195-40.129 34.282-108.254 33.637-157.99 32.324-1.765.128-2.187-.164-3.861-.72-1.532-3.627-1.259-12.438-1.417-16.986 38.694.273 135.788 2.79 158.704-31.813m108.419-282.006c22.036 14.108 43.809 28.45 66.677 41.264 3.733 2.092 19.294 9.827 19.311 13.776l-3.825.584c-17.582 2.425-57.197 5.088-75.465 5.76-2.545-20.125-3.646-41.445-6.698-61.384m17.769-25.029c3.657 1.75 7.79 4.8 11.412 6.923 30.035 17.597 59.835 36.036 90.591 52.331-4.354 4.365-8.405 8.811-12.571 13.348l-2.15.566c-6.351-2.781-23.489-13.606-30.071-17.555l-68.473-41.509c3.833-4.444 7.622-9.462 11.262-14.104M168.906 540.952c18.547-.43 22.692 23.82 4.154 32.493-8.075-1.902-9.059-3.173-14.585-9.605-1.937-10.937-1.588-18.464 10.431-22.888m216.362-211.103 1.706 1.112c-.075 10.399 5.228 46.211 3.452 52.128-3.617.715-4.892.5-8.451.201l-1.683-.4c-1.12-12.527-3.919-25.216-4.99-37.803-.584-6.871 4.531-9.639 9.966-15.238m5.312-47.213c6.367.181 8.682 2.46 14.157 5.796-8.762 8.694-14.983 19.419-24.462 28.428l-7.162 7.547-3.741-13.83c5.265-8.557 14.748-19.851 21.208-27.941"/><path d="M1352.29 152.068c12.18.701 25.86-.066 38.21-.124l73.48.079c97.6.669 195.21 2.068 292.79 4.2 21.61 20.634 48.08 40.621 70.82 60.283 11.02 9.527 22.33 17.496 32.45 28.201-.46 7.557-2.85 20.92-4.03 28.776l-7.66 51.487-30.83 196.788c-1.55 9.794-9.96 51.629-8.72 57.668 4.88 1.681 23.19 2.194 29.83 2.808 24.96 2.308 52.72 2.598 77.36 6.36.04-10.925-3.83-34.302 9.63-36.125 6.43 2.085 6.66 8.046 6.62 14.101-.23 33.058-1.17 66.115-1.7 99.162l-1.59 166.894c-.5 56.38.56 112.893-1.07 169.284.13 2.44-1.01 7.35-3.74 8.44-9.77 3.9-34.31 2.39-44.75 2.42l-76.97.18-323.96-.03-97.49.33c-13.12.07-38.21 1.14-49.87-.4-2.37-2.43-2.46-2.83-2.95-6.2 3.41-9.59 23.76-7.266 32.42-7.56 30.87-1.046 62.06-.983 92.97-1.1q40.995-.23 81.99.058c15.68.005 34.76-.505 50.19.296 11.96-6.98 62.56-31.974 73.82-22.021 1.59 3.72 1.38 2.101.76 6.129-3.03 3.907-4.79 4.281-9.63 5.368-11.05 2.484-20.24 4.917-30.52 9.648 54.16-1.74 106.98 6.202 159.9-9.399 7.87-2.32 36.27-22.711 36.06-5.392-3.18 7.232-16.44 12.208-23.62 15.442 39.06 1.599 80.34-.481 119.64 1.069l.94-73.845c-12.56-2.052-30.08-3.296-43.14-4.597-3.04 15.064-8.65 25.216-20.2 35.606-5.4 4.86-14.73 10.548-20.44 2.716.13-12.928 31.92-18.399 24.92-47.473-10.87-48.224-61.6-75.131-89.85-112.465-16.94-22.382-23.74-60.848-57.9-63.902-32.66-2.919-79.74.307-111.04 9.769-28.37 8.577-46.75 22.835-78.08 27.431-20.5-17.531-22.49-18.606-45.48-29.941 1.88-12.227 6.82-27.09 8.77-39.783 1.78-10.705 3.75-21.383 5.42-32.105.98-6.302-.49-15.266 2.94-20.69l2.21-.313c9.52 3.812 7.29 9.653 7.27 19.014 15.27-4.158 31.04-9.044 46.38-12.526.24-7.036.18-16.398 2.19-22.951-24.72 2.106-33.97 4.674-58.19.845.73-6.257 1.11-13.105 1.53-19.425.02-3.061-.37-5.42 1.35-7.789 32.37.645 73.8-9.845 104.15 4.325 2.31 1.077 0 25.038-.19 28.521 16.01 1.876 28.6 2.691 44.72 3.53 3.04-31.862 8.76-67.607 12.68-100.012-42.97-.591-86.2-3.742-129.2-4.35-11.87-.168-23.79-.342-35.64-.983-1.72-14.441 2.01-9.095 5.81-21.426 3.74-12.156-13.22-6.975-10.26-18.339 5.32-5.081 45.66-2.405 55.03-2.22l88.61 1.959c5.51.167 26.97 1.686 30.91.909 1.27-2.752 1.07-1.545.74-4.591-3.96-3.048-153.71-5.148-175.87-5.534-.69-3.717-1.95-8.322-2.86-12.075 15.55-1.514 43.17.151 59.37.348 40.84.498 81.77 2.384 122.66 2.299.59-3.678 2.17-10.838.52-13.851-15.25-2.282-50-2.058-66.39-2.412l-119.07-2.991c-.15-4.046-.85-8.714-1.36-12.784 62.25-.637 129.93 5.818 190.65 3.599.95-6.53 1.81-13.074 2.59-19.628-45.9.017-92.09-2.414-138.01-2.798-19.88-.166-39.79-.415-59.66-1.202-8.36-46.48-20.1-74.014-37.5-118.022 7.34-15.961 15.27-31.647 22.49-47.671 2.67-5.942 5.39-11.843 8.78-17.417-6.91-3.174-13.06-5.352-20.25-8.886-7.55 12.736-17.25 34.965-23.6 48.889-15.9-25.172-27.54-45.213-44.72-70.433-.59-24.832-4.14-28.074 22.5-27.951 25.44.117 50.93.697 76.36 1.107q66.045.44 132.06 2.348c32.32.81 65.49-.181 97.93 1.012 5.61.206 8.55 1.464 12.33 5.551 1.49 5.038-.47 16.383-1.27 21.798-11.28 76.18-23.01 152.348-34.17 228.541l-39.16 277.408c7.09-1.553 12.92-2.744 20.21-2.452 4.24-22.263 7.57-50.345 10.66-72.949l15.59-112.892c9.99-69.488 20.52-138.899 31.58-208.224 7.82-51.555 14.88-105.182 23.54-156.376a18306 18306 0 0 0-384.12-4.391c-.06 8.296-.55 17.002-.89 25.325-4.24-4.573-8.56-9.01-12.25-14.034.41-11.087-1.94-16.587 4.53-25.271"/><path fill="#fefefe" d="M1758.69 176.682c25.96 25.275 59.43 49.05 86.57 74.112-4.63 21.172-8.56 55.278-12.02 78.131l-23.22 153.137c-6.23 41.887-14.71 86.369-21.93 128.213l-25.77 154.652c-.27.204-1.02.232-1.44.29-3.6-5.989-10.85-19.476-15-23.827-19.62-20.522-42.04-21.075-67.74-21.857 8.85-43.721 14.62-103.692 21.25-149.163 11.96-83.707 24.6-167.316 37.92-250.817 7.03-46.524 13.27-96.806 21.38-142.871m-296.02 23.801c73.44 2.591 146.86.557 220.3 3.193 7.01.251 14.05.351 21.07.542-3.01 20.354-8 56.286-12.83 77.403-.06.27-2.93 2.326-3.62 2.675-18.93 9.638-19.77 6.237-32.93 24.226-8.49 14.397-8.25 26.752-3.92 42.298-10.73.612-21.48.699-32.21.262-7.48-32.742-11.72-67.303-19.99-99.895-1.81-7.129-11.07-7.702-17.56-8.888-32.84-5.997-68.49-6.342-99.5-19.542-9.09-3.858-18.28-7.051-27.37-11.092 2.18-5.912 2.14-9.934 8.56-11.182M1898.19 638.1c5.55.768 12.99 1.253 18.71 1.779-2.38 18.014-1.13 53.108-1.32 72.252l-1.34 126.587c-.29 23.409-.02 49.363-1.52 72.445l-20.96-1.557c-7.3-.96-16-1.374-23.37-1.586-1.92-7.439-3.46-12.622-6.05-19.848 4.63-21.481 9-61.26 12.35-84.485zm-39.9-2.3c7.12.855 17.73 1.041 25.14 1.384-.85 21.054-7.69 62.013-10.83 84.111l-20.57 145.479-.36 2.205-1.08.216c-4.9-4.266-14.06-16.319-20.15-22.618 3.63-19.906 6.33-47.59 9.09-68.321zm-41.47-2.781c3.98.803 22.31 1.876 27.38 2.279-1.03 16.147-6.07 45.366-8.29 62.46L1818.4 831.57l-1.72.059a219.6 219.6 0 0 1-24.53-24.019c8.73-58.126 16.95-116.325 24.67-174.591"/><path fill="#fefefe" d="M1805.74 593.261c12.7 2.084 31.64 2.757 44.99 3.61 21.75 1.245 43.47 3.086 65.13 5.519-.06 7.713.14 15.426.62 23.125-14.25-1.182-102.56-8.5-109.43-5.168-4.15 6.984-11.42 62.815-12.46 73.471-4.03 14.486-11.36 93.88-15.1 100.729-2.52-.851-4.35-3.722-6.17-5.931 5.31-44.241 14.78-93.258 22.02-137.472 1.89-11.526 7.03-48.037 10.4-57.883m-297.67-85.228c23.95-.345 54.15 1.684 78.84 2.059 17.75.27 52.07.372 68.3 2.254 3.27 4.635 1.27 10.533.3 16.437-16.24 1.546-47.93-1.2-65.09-1.74-27.52-.867-55.12-1.521-82.63-2.397.34-5.503.27-11.094.28-16.613m-29.49-243.876c1.69-.223 2.71-.092 4.4-.022 2.29 2.348 24.63 118.024 25.33 129.391-2.42 2.112-4.2 2.026-7.42 2.513-3.54.456-7.78.711-11.39 1.02-6.09-42.373-15.59-86.507-22.01-130.288zm35.18 2.053c3.56 2.446 24.54 104.168 26.92 117.671-2.77 3.861-11.27 4.241-15.88 4.852l-2.14-1.156c-2.31-4.852-6.81-30.841-8.35-37.892-5.7-26.21-10.7-52.904-17.04-78.992zm49.68 130.844 110.75 2.077c-.97 6.747-1.37 10.308-3.57 16.826-36.23-.387-72.47-1.289-108.68-2.704-.31-4.769-1.81-13.058 1.5-16.199m19.23-31.296c24.54.558 54.64 1.141 78.96.772 5.36 4.725 16.24 8.105 15.83 15.145-2.21 1.681-1.52 1.162-4.65 1.529-6.1.809-86.7-.707-89.57-1.634-1.39-4.27-.74-11.114-.57-15.812m104.96-65.815 1.14.765c1.18 4.439-7.4 55.584-8.89 63.426-3.29-2.427-6.4-4.952-9.59-7.515-13.53-23.822-8.32-45.281 17.34-56.676m-148.37 98.434c1.48-.483 1.54-.269 3.07.223 2.07 4.585 1.99 10.666 2.3 15.797-4.47-.124-9.85.163-14.39.285l-2.2-.891c-2.01-2.906-2.69-9.616-3.31-13.386 4.6-.43 9.9-1.346 14.53-2.028m-33.1-146.905 3.85-.137c3.04 1.603 2.02.645 3.79 3.726-.22 6.874-7.5 7.567-12.56 8.394-4.14 1.054-4.24.118-6.9-2.839-1.64-8.563 5.27-8.268 11.82-9.144m3.73 155.016c1.65 1.374 2.15 3.691 2.09 5.696-3.64 3.328-12.99 2.467-18.23 2.449-1.53-3.528-1.94-2.837-1-5.538 3.53-2 12.48-2.18 17.14-2.607m-35.93-175.241c3.47 1.024 6.28 1.465 8.86 3.896.79 3.505.05 3.395-1.6 7.425l-1.27.208c-7.16-2.297-7.73-5.316-5.99-11.529m-23.77-9.74c3.94.363 7.78.873 10.59 3.724 1.2 3.657 1.06 2.087-.07 6.328-6.53-2.528-11.55-2.586-10.52-10.052m114.47 408.712c1.25.775 1.44 1.073 2.54 2.098.82 5.011-.11 11.752-.57 16.949-1.61-.43-1.02-.212-2.39-1.347-1.04-5.146-.42-12.512.42-17.7"/><path d="M1652.46 820.643c5.43.425 6.64 1.036 8.82 5.692-.21 7.434-16.43 23.749-21.92 29.177-45.23 44.67-109.32 62.816-171.61 62.518-4.29-.013-5.4-1.339-7.32-4.692.06-5.422 5.18-7.541 9.8-7.75 54.25-2.451 112.85-17.649 153.9-54.867 9.76-8.845 18.58-20.426 28.33-30.078m126.25 45.241c2.84-.351 3.64-.16 6.48.29 3.12 2.74 2.17 1.344 3.52 5.357-1.98 8.898-29.52 21.12-38.15 25.823-25.6 13.956-53.97 23.773-81.78 32.318-5.83.772-9.32-1.222-10.34-7.39.71-2.363 1.27-4.264 3.98-5.374 13.95-5.707 30.84-9.37 44.85-14.891 25.28-9.957 47.9-22.977 71.44-36.133m-188.85-76.927c5.5.257 7.95 2.525 8.74 7.743-5.25 17.831-96.36 39.425-115.35 40.739-3.56-.068-3.99-.122-6.79-2.297-2.02-3.724-1.72-2.145-1.56-6.057 1.41-2.764 3.92-4.618 7.07-4.952 36.67-3.882 75.81-17.391 107.89-35.176m94.11 34.726c5 1.716 7.61 2.198 8.59 7.668-2.35 10.541-43.19 40.585-53.63 48.479-3.68-.971-6.93-2.569-8.25-6.357.12-1.96-.18-3.456 1.18-4.723 6.87-6.41 15.35-12.982 22.6-18.897a481 481 0 0 0 29.51-26.17m-1091.699-5.271a8.354 8.354 0 1 1 8.676 14.278 8.354 8.354 0 0 1-8.676-14.278"/></svg>