<svg xmlns="http://www.w3.org/2000/svg" preserveAspectRatio="xMidYMid meet" viewBox="0 0 2048 1462"><path d="M1214.09 141.513c-.46.06 13.2.36 13.63.363l40.62.151 141.55-.3 277.72.51c66.74.064 133.32.533 200.06 1.504 3.95.057 5.99.308 9.29 2.619 3.66 10.954 4.68 76.596 5.27 92.135q3.915 83.85 6.75 167.743l13.42 368.805 6.54 154.749c1.87 42.62 4.51 92.758 4.24 134.978-4.23 5.86-6.53 8.1-12.24 12.38-40.69 2.43-85.06 2.52-126 2.76l-171.16.04c-14.84-.06-29.16-1.07-44.11-.95l-222.63.04-122.9.28c-30.73-.22-60.23-.32-90.92-3.08 2.42 31.18-.45 66.69-.9 98.07-.77 53.84-.64 107.63-1.38 161.48-.13 9.49-1.28 19.9-.12 29.21 9.76 1.51 56.23 10.61 54.28 22.08-2.92 2.95-7.94 4.9-12.09 5.05-32.75 1.11-65.55.35-98.3 1.55-7.73.29-12.19.19-19.7-1.67-2.05-6.66-7.31-12.7-8.29-19.25-1.55-10.37-2.15-22.09-2.83-32.62l-3.86-68.15c-3.94-63.94-9.47-131.66-11.93-195.18l-11.85 1.03c-2.31 17.46-1.26 42.29-2.23 60.56-2.45 46.36-1.54 94.59-3.46 140.81.11 1.48-.1 20.57-.15 22.49-.52 19.92 2.39 66.55-4.15 84.19-5.75 5.48-8.34 7.34-16.598 8.06-15.043 1.3-30.555-.7-45.55.01-23.081 1.1-46.349 2.98-69.466 2.21-4.322-.14-6.113-1.53-8.408-4.44-.181-2.01-.704-3.29.845-5.01 8.44-9.4 42.986-14.68 54.877-17.13.694-15.5-1.642-31.56-2.337-47.11-2.602-58.29-5.906-116.57-9.021-174.83-1.204-22.53-1.982-45.63-4.163-68.02-3.49-2.63-28.674-.84-33.919-.19l2.489 3.41c-2.518 1.8-101.649 4.12-113.437 4.48-163.625 6.46-327.33 10.7-491.069 12.72l-68.342 1.42c-13.853.22-27.729.83-41.524-.48-6.646-.64-9.463-5.12-13.598-10.19-2.143-69.64-1.731-142.928-2.106-212.65a21818 21818 0 0 1-.069-403.052l.681-216.887.418-63.882c.073-11.673-2.19-36.105 5.049-44.862 6.883-3.134 9.214 3.457 11.531 8.675 13.494-3.675 60.393-3.776 77.684-4.197l168.745-3.125z"/><path fill="#fefefe" d="M174.866 254.413c13.97 4.645 55.356 4.112 72.143 4.562a8707 8707 0 0 0 139.953 2.994c79.817 1.667 159.842 5.906 239.738 5.944 3.417.001 8.37.741 11.485 2.136 1.639 3.234 2.478 123.942 2.467 134.268-3.143 5.028-18.332-.358-27.23 4.702-6.294 7.507-4.304 72.751.958 80.476 6.126 4.045 20.585 2.585 28.846 2.586-.096 5.602-.037 11.346.119 16.95 1.147 41.239 1.228 82.659 2.807 123.866-4.755.693-25.499-.151-25.58 7.307-.119 15.583-.397 36.887 3.609 51.7 2.373 8.776 46.486 5.531 52.492 2.607 6.617-8.563 6.028-50.86.075-58.968-4.674-2.924-13.18-2.553-18.898-2.793 1.282-26.649-.419-59.565-.606-86.46-.091-13.209.16-42.921-1.393-54.321 8.527-.516 25.354.606 31.936-2.279 6.813-6.963 3.513-66.382.757-78.051-1.903-8.061-26.923-3.688-34.335-6.346-1.083-8.931-.645-28.884-.731-39.146l-.889-57.256c-.109-12.688.274-27.291-.429-39.805l201.233-1.209c16.551-.132 153.987-2.837 161.617.156 4 10.179 3.52 138.93 4.65 160.146-27.093 9.077-41.099 33.871-42.556 61.78-.949 18.193 10.029 41.344 21.419 55.515.412 5.488-1.032 20.408-2.649 25.653-2.812 2.328-4.039 1.854-7.953 2.62-16.816 3.29-30.878 9.582-46.032 17.123a942 942 0 0 1-.744-54.094c9.859-1.248 24.025 1.124 29.772-4.542 1.788-8.686-23.598-7.54-29.452-7.666.551-9.733-.346-30.41-.434-40.988l-1.364-96.145c-.443-20.011.28-63.813-2.596-81.869-1.977-2.078-4.314-4.947-6.822-6.349-6.172-3.45-144.596-.799-159.452-.006-4.595.245-9.314.636-13.683 2.168-2.809 6.047.739 31.532.692 41.979-8.199-.125-21.614-.946-29.007 1.767-7.06 5.383-3.531 41.572-4.188 51.875-.462 7.241.503 20.421 4.951 26.486 5.903 3.311 23.013 1.615 31.374 1.585l1.164 133.37c.163 19.444 1.308 54.764-.083 73.264-5.146.211-10.728.1-15.792.985-3.079.539-6.879 2.233-8.532 5.021-2.137 3.603-1.336 42.594.008 46.73 1.506 4.632 4.393 8.111 8.869 10.11 7.645 3.414 38.749 2.575 46.115-1.453 1.596-.872 1.915-1.845 2.439-3.459 3.237-9.966 2.67-45.501-1.803-54.813-4.782-4.208-11.717-3.047-18.26-2.919.112-30.42-1.069-63.747-.105-93.741 16.323 1.852 57.176.813 75.276.832 1.442 15.058-1.704 87.581 6.536 94.006l2.066-.35c6.178-6.809 4.134-30.577 4.009-39.902a5092 5092 0 0 0-1.046-53.867c20.877.138 45.684-1.352 67.543-1.522-.418 17.805 1.022 41.276 1.63 59.524-17.75 9.551-33.763 23.307-48.51 36.892-20.004 18.429-91.403 90.51-91.961 116.027-.009.424-.008.848-.012 1.272-4.238 3.637-46.952 2.684-54.268 2.837q-43.526 1.274-87.066 2.036l-262.049 5.094c-25.706.598-72.942-1.468-96.404 4.411-21.904 5.488-8.638 43.12-13.102 56.371-3.583 4.639-13.66-1.494-18.834 1.641-11.366 6.887-3.68 43.373-1.89 53.593 1.564 8.932 51.578 6.218 56.739 2.94 6.822-9.14 5.707-45.508-.798-54.715-5.561-3.993-15.141-1.84-22.878-1.79 1.105-12.427.711-26.484.518-39.051 1.702-12.708 40.49-7.93 50.783-8.416 14.11-.667 38.988-3.055 52.5-.623 2.861 5.309 2.191 34.617 2.055 42.042-.137 7.494-13.025-.01-17.668 4.219-2.147 1.223-4.78 7.561-4.441 9.97 2.023 14.37-6.446 48.609 16.461 48.053 11.366-.276 29.227 1.703 38.025-5.264 4.882-7.671 3.928-45.766-2.999-52.687-4.823-1.52-13.785-.928-19.158-.846.361-9.947-.817-36.093 1.793-43.668 5.73-4.393 100.011-4.178 115.94-4.203-.504 14.486.169 31.341.413 45.992-5.258-.144-20.111-2.378-21.487 4.004-3.509 6.152-2.932 55.147 7.757 54.224 5.293-.458 47.889 4.683 48.323-8.156.474-13.986 3.371-38.033-3.174-49.059-5.01-3.547-14.105-2.068-20.521-1.677.372-8.698-.989-39.059.724-44.492 8.463-2.482 32.877-1.825 43.21-1.997l66.059-1.153c-.616 13.261.049 32.621.08 46.474-5.063.271-19.555-1.558-21.446 3.621-3.035 8.315-4.139 54.077 7.54 55.223 8.808.865 36.891 1.727 44.493-2.632 6.461-7.957 5.833-45.85.729-53.63-5.659-4.403-13.05-3.149-20.253-2.884a1959 1959 0 0 0-.874-46.441c22.924-.908 46.057-.738 69.006-1.511 11.954-.402 23.674-.664 35.625.171q.199 23.438.914 46.866c-20.809.153-24.165-2.57-22.307 22.255.793 10.606-.486 22.51 3.955 32.506 7.054 7.686 42.889 5.57 50.43.895 6.305-3.908 3.793-48.382-1.296-54.943-4.694-1.892-15.746-1.09-21.451-.987-.498-14.228 1.531-34.208-1.007-47.899 8.197.625 17.931.142 26.104-.621 7.108 7.991 14.544 20.388 21.517 28.947 21.22 26.043 39.347 54.046 60.164 80.197 6.258 7.862 15.628 21.006 22.875 26.961 1.32 12.453 1.044 23.381.998 35.832l9.133 6.705c1.774 9.626 1.715 20.609 1.652 30.374-43.212-.452-88.342 1.06-131.713 1.676L476.5 983.226c-40.647.732-81.292 2.214-121.945 2.605-16.231.156-33.256 1.246-49.418.082-2.2-.158-11.046-1.45-12.271-3.148-2.009-2.785 4-76.12-5.013-85.367-1.449-1.487-2.013-1.29-3.952-1.294-6.171 5.354-4.5 89.2.218 97.516 4.379 4.048 12.08 5.569 17.869 5.841 52.602 2.479 105.875-.037 158.424-.447l305.521-3.747c47.877-.707 99.461-3.149 146.912-2.257 2.243 18.23 3.549 56.7 3.666 75.94-10.842.52-22.804-.59-33.856-.71q-37.33-.12-74.656.42c-131.777 3.5-263.597 5.15-395.421 4.94l-149.671-.22c-21.489.05-58.284-.93-78.044 1.24-.667-10.24.612-21-.205-31.1-2.293-28.33-1.793-55.88-1.896-84.219l-.872-91.607-4.089-398.995-2.29-141.327c-.303-12.927-2.348-62.585-.645-72.959"/><path d="M435.964 299.473q26.534-.456 53.07-.607c9.738-.065 31.971-2 39.586 4.295 3.758 6.826 2.126 33.58 1.686 42.724 10.194.21 19.963-1.314 29.644.124 2.886.429 4.492 3.354 6.101 5.752 1.55 13.581 3.044 54.23.453 67.867-2.484 13.075-24.406 2.623-35.288 7.553l-1.554 2.156c1.705 56.782 2.121 150.187 2.747 203.949 5.279.143 16.127-.296 20.428 1.492 7.138 7.522 7.326 51.9 1.416 60.295-3.567 5.065-48.746 6.379-52.197.299-6.546-11.534-3.88-37.596-4.274-51.299-.251-12.558 16.548-8.205 21.199-11.827 1.133-6.743.296-24.224.17-32.067a4828 4828 0 0 0-1.193-62.413c-16.294 1.447-74.66.639-83.241 3.047-3.385 5.627-.773 67.79-.532 78.94-1.203 21.305 2.563 49.749.794 71.665-.647 8.092-3.868 14.263-9.77 19.616-8.243 7.474-45.263 9.348-50.926 1.495-.433-3.386-.291-3.505 1.367-6.639 7.872-4.642 25.162-1.929 34.461-2.578 15.265-1.065 11.221-29.807 11.131-40.449a2867 2867 0 0 0-1.103-72.125c-.372-15.161-1.09-31.037-.155-46.019.451-7.226 4.081-17.425 11.949-18.173 10.713-1.018 22.196-.771 32.921-.892q26.342-.284 52.669-1.215c1.312-24.246-.345-73.103-1.374-97.443-8.138.085-18.956 2.142-25.856-1.739-5.996-8.636-6.869-70.939-1.181-77.393 6.572-2.02 21.343-1.936 28.686-1.989.044-10.485.352-22.143-.745-32.466-6.933-.256-14.061-.119-21.015-.156-40.727-.214-81.46.045-122.181-.554-2.11-.031-5.449-1.309-7.365-2.191-2.357-1.085-2.578-2.315-3.336-4.469l1.375-2.321c8.997-5.639 56.631-3.617 71.433-4.245M245 292.497c22.409-.56 45.788-.21 68.246-.315 9.787-.046 32.613-.702 40.953.691 6.286 6.236 4.897 16.854 4.947 25.044.048 7.949-.083 15.42-8.98 18.144-15.993.618-107.883 3.289-114.764-1.179-5.563-6.884-7.551-33.279-1.757-40.465 3.506-2.47 6.887-1.906 11.355-1.92m93.435 172.07c5.633-.348 17.825-1.703 21.611 2.452 6.077 6.669 6.116 29.949.194 36.696-8.608 4.007-85.478 3.249-98.99 3.387-21.436.609-24.967 2.149-24.792-22.047.042-5.898-.553-12.707 3.397-17.597 8.242-3.45 84.157-2.44 98.58-2.891m-17.843-80.016c6.699-.282 29.038-1.992 33.369 1.678 7.244 6.14 9.77 38.939-5.168 39.621-10.377.473-19.922.36-29.967.338l-48.577.337c-7.904.055-15.731.796-23.616.962-4.266.09-9.277.012-12.421-3.335-4.024-4.284-3.348-11.858-3.42-17.326-.067-5.024-.804-14.77 3.254-18.432 4.874-4.396 74.193-3.698 86.546-3.843m22.618 159.972c16.384-2.552 21.459 5.171 21.422 20.938-.013 5.677-.83 12.793-4.706 17.212-7.81 3.686-83.963 3.237-98.769 3.408-16.426.709-23.561-.118-23.128-19.586.136-6.126-1.096-13.141 2.422-18.438 4.122-2.299 91.464-3.352 102.759-3.534m-23.93 150.001c6.333-.141 33.169-1.725 37.053 1.747 6.532 5.839 8.513 28.915 2.321 36.392-9.379 4.576-63.082 2.397-77.412 2.993-9.248.606-30.192 2.607-37.905-2.223-2.557-1.601-3.425-6.535-3.798-9.349-.886-6.677-1.194-20.156 3.402-25.636 4.63-5.519 65.701-3.508 76.339-3.924m34.512-71.024c3.093.641 3.902-.09 8.35 1.289 5.94 4.922 5.838 26.564 1.014 32.999-5.466 2.624-97.166 4.072-108.379 4.381-3.616.55-9.576 1.616-12.529-.825-7.68-6.348-6.077-27.293-.771-34.355 8.331-2.076 25.966-1.575 35.242-1.934 25.366-.98 51.829-.168 77.073-1.555"/><path fill="#fefefe" d="M1869.16 254.48c.72.068 5.85-.387 6.83-.46 2.13 1.67 2.05 2.047 2.21 5.551 2.73 58.573 2.89 117.983 4.91 176.456l13.66 378.565a7014 7014 0 0 0 5.44 165.983c.88 20.665.9 51.345 3.43 71.025-16.39 1.34-44.66.13-62.94.54-67.58 1.26-135.18 2.01-202.77 2.25l-495.88 8.87 1.22-77.118c31.72.092 66.28-1.665 98.23-2.302 49.86-.548 99.71-1.609 149.54-3.183 38.99-1.433 32.74-30.27 31.6-59.05q-.87-26.493-2.1-52.971c4.52.635 8.92 1.611 13.18-.151a19.78 19.78 0 0 0 11-11.444c3.53-9.378 2.51-42.351-2.09-51.689-7.3-5.797-15.39-5.266-24.33-4.556-.15-19.282-.18-39.152-.32-58.377-.24-31.865 12.64-26.798 37.12-27.135l59.92-.971c-.3 28.977 1.69 57.452 2.15 86.302-6.85.324-18.98-1.831-23.51 2.134-3.41 9.839-.51 43.315.23 55.297 1.83 3.859 4.59 5.281 8.12 7.817 5.84.047 9.8.507 15.63 1.222 2.25 36.279.3 74.896 3.3 111.282.73 8.856 11.24 18.753 19.97 19.441 16.67 1.314 35.42.51 52.32.212 24.52-.513 49.04-1.263 73.54-2.248 12.21-.491 24.45-.971 36.64-1.706 3.53-.212 7.14-1.662 7.5-5.427-5.94-6.238-29.02-4.122-38.14-4.04l-87.26.481c-13.93-.021-35.32 2.472-47.4-3.345-4.29-2.068-3.29-33.457-3.63-39.736-1.36-24.826-1.35-50.118-3.09-74.88 31.75-1.58 24.98-9.081 25.6-37.248.17-7.963-.09-19.744-4.85-26.284-5.69-3.791-13.94-2.878-20.9-2.802-1.47-28.697-2.16-58.33-3.29-87.162 28.38 1.32 56.71-1.99 84.87.49 20.08 1.768 18.7 31.748 19.88 46.981 2.24 29.237 3.79 58.523 4.65 87.833.57 15.724-.34 32.975 2.23 48.398.88 5.282 2.77 10.676 5.94 15.023 3.51 4.796 9.05 6.585 14.69 7.446 15.15 2.315 44.07-1.677 60.46-2.306 12.9-.494 26.32.628 39.11-1.186 4.61-.655 9.56-2.075 13.26-5.005 4.33-3.435 6.27-8.887 6.77-14.247 1.01-10.741-1.96-78.354-6.78-83.562-1.42-1.531-1.99-1.321-3.94-1.356-7.99 4.274-4.07 13.495-4.54 20.593-.87 13.196 6.55 57.963-.7 67.128-12.76 6.613-79.92 3.081-97.42 6.348-18.91 3.532-14.1-34.905-14.95-47.818-2.87-43.478-1.62-89.04-8.51-132.17-3.62-21.65-22.16-28.749-41.55-27.288-39.25.038-75.72.154-115.37 1.969-16.82.77-59.36-2.455-73.48 8.476-12.68 15.714-6.23 72.584-6.11 92.51-4.21.143-24.23-1.988-25.23 1.082-4.42 13.564-1.58 40.252-1.35 55.023 7.01 11.84 14.2 10.213 26.81 11.23 3.74 22.073 1.58 52.016 3.22 74.736.67 9.263-2.08 21.757-13.58 22.021-16.87.388-34.1.782-51.15 1.122l-102.6 1.876c-24.47.421-75.94 3.269-98.15 1.108-.35-9.794-.01-19.942-.37-30.125l1.09-.677c14.72-9.079 8.02-24.3 7.43-40.336 6.87-5.08 9.02-8.427 14.7-14.472 30.45-32.416 58.14-66.157 79.67-105.327 5.71-10.384 12.49-20.626 16.85-31.91-4.78-22.576-17.2-34.145-30.95-51.536-5.98-8.341-25.5-27.829-33.93-36.353-43.91-44.405-74.41-76.871-136.9-87.917a845 845 0 0 1-2.15-22.457c12.94-22.627 20.64-41.143 20.63-68.075-.01-30.755-15.55-56.46-49.18-55.932-1.28-24.001-1.13-46.105-1.71-69.946l-2.53-88.597 468.11-4.414c3.21 43.242 2.59 99.127 3.86 143.5-7.42-.181-21.07-1.786-27.25 2.835-1.32.987-2.65 4.412-2.55 6.029.78 12.331.81 24.17.47 36.54-5-.597-19.8-1.02-24.41-.598-15.93 1.456-81.14-1.988-90.84 4.906-5.99 11.324-1.72 48.636-3.34 64.188l-.12 1.104c-11.81.724-29.75.261-41.9.295l-87.94.053c-1.19-64.981-4.04-130.322-5.46-195.317-.18-8.163 2.38-14.951 11.63-15.111 34.43-.597 68.94-.748 103.39-.803 15.69-.027 31.29-.976 46.96-.489-.19 7.625 1.53 26.49-.35 30.653-4.43 4.043-20.75 2.284-27.97 2.175-3.06 3.079-4.09 4.891-6.36 8.471-.46 8.983 2.05 72.475 4.8 76.465 9.69 3.565 71.46 2.931 78.45-2.27 2.26-9.402.15-71.242-4.09-80.636-5.6-3.228-24.67-1.978-32.35-1.86.05-9.659 1.31-36.885-3.53-44.131-6.87-4.2-58.53-1.613-69.8-1.634l-52.89-.058c-15.71.007-39.73-2.544-51.86 8.466-7.6 6.732-7.62 18.202-7.57 27.648.38 62.568 4.63 125.455 4.57 187.963-24.16 1.021-50.3.113-74.57.616-13.75.286-42.46-1.831-54.7.773-2.29 2.285-2.31 1.969-2.87 5.507-.35 2.161 1.09 5.357 2.66 6.79 1.19 1.085 2.93 1.918 4.59 1.902 13.28-.129 26.79-.188 40.05-.186l85.59.27c.73 14.71 1.53 107.826 4.2 116.025l2.02.877c3.43-.818 5.32-3.332 7.92-5.909 1.72-35.799-1.82-73.132-.78-109.03 4.89-4.606 45.45-1.788 57.9-3.359-.6 7.087.48 21.451.8 29.035q.915 21.823 1.26 43.662l4.15 196.933c-7.51.13-17.46-1.339-22.91 3.353-.59 1.509-1.73 5.455-1.56 8.391.73 12.599.24 40.442 7.29 50.639 4.87 3.438 18.12 3.442 22.68 3.462 15.78.386 33.53 2.13 32.27-19.922-.69-12.249 1.65-35.484-7.32-45.303-2.83-3.091-13.55-1.433-17.75-1.008.55-16.843-.93-41.725-1.27-59.39-.86-46.122-2-92.239-3.43-138.348-.61-19.908-2.44-50.12-1.49-69.374 2.09-1.58 49.38-2.318 56.12-2.732 1.01 3.739 1.28 30.873 1.45 36.778l2.84 74.931c.27 6.169-1.07 14.04.77 19.899.48 1.52 1.11 2.735 2.61 3.374 9.29 3.954 230.85.666 256.28-.665 5.12-.268 10.78-.504 15.57-2.355 1.18-15.727-1.16-52.604-1.55-71.056l-2-80.153c-.25-12.625.51-52.211-2.67-61.414-1.98-2.057-3.39-2.815-6.4-2.971-24.18-1.261-49.31 1.446-73.48.671-.19-8.442 2-36.321-3.08-42.313-3.6-4.243-22.17-2.981-28.81-2.856-.05-22.048-1.5-47.991-2.53-70.162-.8-17.267-.3-58.684-3.67-73.241 12.72-.831 29.95-.584 43.08-.808l71.47-1.534z"/><path d="M1612.77 299.01c24.8 1.198 49.86-1.035 74.6.182 4.85.239 5.95 6.344 4.47 10.442-4.81 4.024-62.34 2.314-72.66 2.001.88 10.318 1 22.473 1.3 32.94 10.18.792 20.57-.166 30.73-.963 2.24 12.885 2.25 30.692 2.67 44.138-.26 10.609 3.95 27.513-2.64 35.542-8.16 2.621-61.62 1.562-69.89-.605-4.03-5.195-4.49-72.306-.53-76.393 6.62-2.659 19.43-1.371 26.91-1.005.62-13.729-1.84-26.379-.55-39.721.33-3.417 2.83-4.881 5.59-6.558m198.27 455.478c16.19-1.267 25.49.068 25.84 18.816.11 5.909 1.45 12.623-.64 18.418-9.04 7.818-63.24 4.064-80.78 5.936l-1.21.136c-1.5.27-3 .525-4.52.626-3.9.258-8.53-.678-11.38-3.451-4.52-4.389-5.59-11.082-5.84-17.103-.28-6.496 0-13.974 4.76-18.916 2.47-2.567 65.06-4.289 73.77-4.462m-16.86-149.873c8.33.162 24.53-.648 30.04 2.067 9.08 4.472 8.54 30.577 1.45 35.753-6.31 4.609-50.08 2.837-57.06 2.805-9.88-.404-32.91 2.757-35.61-3.079-18.03-38.95 6.61-36.585 34.91-36.767 13.13-.085 19.59-.584 26.27-.779m2.69-227.222c7.07 1.517 19.37-2.078 24.99 3.174 5.26 4.829 8.64 23.28 1.93 27.813-14.86 10.032-49.84 7.796-67.04 8.136-5.58.465-11.4.891-16.99.866-21.2-.093-22.25-23.861-11.96-36.574 9.35-3.671 55.69-2.9 69.07-3.415m-21.81 300.036c10.34-1.3 45.27-2.014 54.91 3.22 4.7 2.024 2.12 8.549 3.5 12.893 8.02 25.267-21.73 21.221-38.96 21.56-10.53.882-51.03 2.806-58.64-1.255-5.36-5.631-3.34-6.678-4.62-13.04-5.66-28.031 23.72-22.02 43.81-23.378m3.15-384.905c10.54-.534 23.98.415 34.79.92l6.62 6.597c.53 5.771 1.41 20.895-2.04 25.267-9.32 4.25-42.95 3.491-55.83 3.698-10.87.178-42.47 4.67-42.68-11.244-.09-6.695-3.14-13.811-.29-19.946 7.58-5.798 46.89-4.579 59.43-5.292m6.32 240.063c8.72-.889 34.03-1.635 42.17 2.802 7.58 4.129 7.04 21.945 1.84 28.265-5.92 3.11-40.78 2.513-49.21 2.531-12.28.257-24.56.95-36.78-.305-16.48-1.693-21.14-17.179-11.67-29.217 8.12-4.653 41.63-3.339 53.65-4.076m15.6-78.082c8.15.892 9.16.619 18 2.53 7.95 11.482 8.89 21.544.68 33.049-11.23-1.774-57.65.356-70.58 1.781-4.49.131-15.34.568-18.12-2.91-32.77-40.866 52.08-33.735 70.02-34.45m-107.59 223.798c4.13-.398 10.11 3.79 13.5 5.99a34.5 34.5 0 0 1 2.68 5.53c5.78 14.809-4.21 22.714-16.77 26.966-15.32-2.224-15.78-5.572-19.39-19.778 3.91-13.113 5.82-17.073 19.98-18.708m-6.91-70.42c3.16-.027 6.36-.043 9.38 1.008a17.26 17.26 0 0 1 9.96 8.908c6.11 12.784-1.14 22.508-12.55 27.739-15.68 2.164-24.52-7.261-20.6-23.323 1.96-8.043 6.95-10.822 13.81-14.332m-4.31-75.397c9.46-3.195 19.74 1.791 23.08 11.2 3.35 9.408-1.47 19.761-10.83 23.256a18.28 18.28 0 0 1-18.18-3.147 18.29 18.29 0 0 1-6.19-17.388 18.29 18.29 0 0 1 12.12-13.921m2.26-74.4c24.18 3.833 27.27 27.21 5.09 36.811-8.42.313-16.77-1.262-19.54-10.07-4.48-14.269 2.3-22.481 14.45-26.741m6.81 299.376c9.7-2.095 19.27 4.041 21.41 13.729s-3.96 19.282-13.64 21.464c-9.73 2.196-19.4-3.945-21.56-13.694-2.15-9.749 4.04-19.39 13.79-21.499m-11.37-378.592c15.33-.621 21.83 11.45 8.07 21.814-17.41-1.02-21.93-10.374-8.07-21.814"/><path fill="#fefefe" d="M1836.6 163.466c13.24.189 26.13-.253 39.35-.661-.32 24.182.91 58.04 1.77 82.523-29.84-1.356-65.85-.102-95.8.232l-136.42 1.2a38786 38786 0 0 1-432.69 2.824l-100.57.491c-14.41.099-32.62 1.073-46.69.246-11.4.704-25.03.227-36.4-.287-1.32-9.073-1.39-22.688-1.71-32.205q-.975-24.58-1.35-49.176c6.84.623 18.32.03 25.48.036 19.42.016 39.04-.97 58.46-1.102l189.1-.219c133.19 1.029 266.39.167 399.56-2.584 44.95-.764 93.03 1.006 137.91-1.318m-1664.836-1.185c19 6.065 78.518 4.213 101.629 4.796 132.257 3.336 264.913 1.095 397.155 1.66q118.497.942 236.996.281l66.306-.08c12.172-.006 28.5.467 40.32-.767-.27 26.921.8 54.754.87 81.928l-19.058-.068-215.768 1.023c-53.264.611-108.476 1.775-161.71.76a11653 11653 0 0 0-330.725-3.425l-60.453-.166c-14.111-.097-39.439-.356-53.247 2.068.2-27.904-1.19-60.137-2.315-88.01M1365.67 462.282c30.31.723 75.65.317 106.25-.849.31 5.007.21 22.266 6.4 22.702 12.96.915 57.62 3.133 67.18-3.08 1.23-4.598.62-12.873.49-17.942 23.14.006 44.9-1.206 68.23-.838-.24 5.912-.06 12.441.1 18.396 1.48 54.276-.01 109.404 2.79 163.577.07 2.412.7 6.21 1.04 8.719-83.3 3.554-164.59 1.715-248.56 6.458 4.7-14.525 2.66-33.547 2.43-48.976-.52-37.856-1.93-75.695-4.23-113.484-.34-5.881-2.86-30.632-2.12-34.683"/><path d="M1554.96 518.082c8.55.241 30.65-2.47 31.27 8.366-1.65 4.089-2.28 4.499-5.71 7.346-10.81-2.056-33.29 4.859-31.6-11.308 2.29-3.531 1.27-2.334 6.04-4.404m12.77 67.224c8.52-.624 13-1.047 20.08 4.989 1.49 3.385 1.45 1.974.48 5.251-2.67 2.663-3.05 2.981-6.49 4.513-7.71-.041-17.33 2.35-22.39-4.316-1.06-6.84 2.59-8.69 8.32-10.437m-2.12-33.322c6.99 1.244 13.35-.742 18.54 4.433 1.13 3.614.88 2.258.08 6.237-2.87 3.425-1.47 2.281-6.09 4.085-8 .72-16.78 1.628-22.31-5.563-.91-5.647 5.24-7.729 9.78-9.192m4.61 66.482c6.41-.341 9.1-.332 12.75 5.446 1.01 7.132-3.76 8.159-9.49 9.651-7.19-.16-12.17-.017-15.53-7.508.66-7.644 6.08-7.218 12.27-7.589m-58.9-65.339c6.93-.2 19.38-1.456 20.33 7.743-1.37 3.863-1.58 4.347-4.47 7.229-9.86-.05-29.75-.111-15.86-14.972m-45.26-1.092c7.07-.089 16.47-.402 17.66 8.23-1.24 4.055-2.25 4.752-5.26 7.645-6.99-.583-17.74-.39-18.31-9.23 1.31-3.618 2.9-4.412 5.91-6.645m-1 66.983c7.15-.393 18.1-1.121 19 8.508-1.36 3.452-1.69 3.782-4.52 6.204-7.43 1.571-15.84 1.989-18.24-6.849.69-4.191.99-4.62 3.76-7.863m48.24-32.737c8.44-.863 10.49-.943 17.33 4.083 1.86 3.658 1.79 2.271 1.32 5.893-2.16 2.651-2.25 2.835-5.14 4.563-6.97 1.18-15.6 2.295-17.46-6.189.93-4.216 1.43-4.796 3.95-8.35m.09 32.866c6.95-.525 17.45-1.402 19.83 6.684-.86 3.815-1.33 4.245-3.94 7.203-7.26 1.058-17.6 1.715-19.83-6.932.78-3.777 1.22-4.163 3.94-6.955m-.65-101.745c4.78.188 14.91.046 13 9.2-.75 3.582-4.83 5.311-8.18 6.363-6.44 1.204-10.07.758-13.37-5.394-.49-6.771 1.98-8.699 8.55-10.169m-45.88 68.958c5.22-.678 16.41-2.083 17.98 6.407.62 3.317-2.79 6.147-5.35 7.992-6.91.614-15.71 1.071-16.83-7.617 1.2-3.622 1.56-4.001 4.2-6.782m-6.02-67.972c7.01-.931 16.29-1.645 16.62 8.019-1.69 3.613-1.91 4.155-5.05 6.566-7.21 1.266-15.21-.435-15.85-8.944 1.37-3.145 1.55-3.6 4.28-5.641m-44.5-1.102c12.76-.47 18.06 9.385 6.85 14.947-6.99.046-15.02-.703-13.17-10.209 2.24-3.195 2.64-3.42 6.32-4.738m-1.6 36.008c11.72.326 16.63 10.081 4.97 15.04-1.6-.181-3.21-.372-4.79-.685a11.05 11.05 0 0 1-7.43-5.373c-1.43-2.527-.85-3.365-.15-5.541 3.66-3.357 1.92-2.327 7.4-3.441m-4.73 67.949c10.65-1.008 21.59-1.343 14.28 13.33-6.72.602-12.11 1.88-15.61-4.832-.01-4.038.12-4.64 1.33-8.498m8.38-33.941a6.24 6.24 0 0 1 8.25 3.136c1.41 3.146 0 6.84-3.14 8.247a6.24 6.24 0 0 1-8.24-3.142 6.235 6.235 0 0 1 3.13-8.241"/><path fill="#fefefe" d="M917.651 312.432c3.247-.388 4.779-.993 7.392.588 1.772 3.236.854 12.528.888 16.807l.531 44.046c.85 49.504 2.625 101.039 2.405 150.374-21.492-1.861-45.455-.741-67.291-.461q-43.793.38-87.58 1.198c.217-6.103.1-11.654-.044-17.734-.013-9.994-.958-78.8.465-81.389 1.36-.344 2.944-.639 4.229-1.01 10.533-3.067 27.235 6.961 28.843-10.361 1.255-13.529.45-26.872.372-40.416-.049-8.518.32-22.445-4.778-29.396-6.138-3.31-23.987-1.735-31.1-.788-.807-9.199-.857-20.553-1.118-29.947 30.688 1.152 64.094-1.842 95.152-.764 15.7.545 35.987.362 51.634-.747m-3.585 391.439c1.331 6.629-9.057 73.342-9.108 87.777-.029 8.485-.558 50.81-2.374 57.093-4.795-10.029-11.013-20.323-16.466-30.14-5.686-13.455-23.871-45.341-31.649-59.54 16.931-19.243 40.226-37.303 59.597-55.19m228.104 205.185 1.25.299c1.11 2.182 2.39 12.548 1.65 14.059-3.2 6.509-34.7 10.872-40 11.786-60.04 10.35-132.604 16.785-191.085-3.392l-2.217-2.258c-1.46-4.326-.82-9.718-.634-14.386 13.205 2.812 24.116 6.375 38.048 8.639a422.8 422.8 0 0 0 192.988-14.747m2.29-206.726c9.67 5.658 45.05 41.464 53.68 51.265-4.24 7.937-7.73 17.397-11.82 25.537-5.3 10.537-11.1 20.928-16.79 31.26-6.22 10.327-12.11 20.852-18.2 31.262-.48-47.656-1.41-91.949-6.87-139.324m23.66 132.163c5 5.169 8.68 10.704 14.78 16.817a965 965 0 0 0-24.63 28.061c-1.75 2.395-3.88 4.854-5.78 7.161-1.87-2.749-.62-23.344-.3-27.855 6.19-6.633 11.4-16.242 15.93-24.184m14.65-24.801c.54.58 3.19 3.282 3.5 3.701 4.15 5.702 11.68 7.731 15.43 12.91-.35 4.9-6.21 10.795-9.67 15.068l-.9.839c-3.16-.038-15.43-12.115-18.88-15.241zm-294.466 38.084c3.696 3.099 7.977 14.092 14.435 19.851.386 5.389 1.766 15.638.58 20.259l-1.295.392-2.863-2.98c-6.559-8.716-15.284-18.195-22.592-26.441 4.941-4.112 7.375-6.381 11.735-11.081m120.876-290.665c11.07 2.635 22.37 2.191 33.68 1.873 3.3-.093 7.14-1.534 9.75-.5l-.89 11.298c-6.94-2.674-34.33.571-42.82 1.543zM872.834 818.828c4.049 4.723 7.547 11.604 10.643 17.136-4.089 4.271-8.192 9.12-12.41 13.564-5.105-6.56-8.137-10.361-12.249-17.66 6.393-4.908 8.679-7.008 14.016-13.04m160.896 214.082c1.63 1.86 3.08 26.79 3.09 30.56l-5.13 2.37c-1.91-.28-1.32-.2-3.11-1.15-2.61-8.98-.12-23.86 5.15-31.78"/></svg>