<svg xmlns="http://www.w3.org/2000/svg" preserveAspectRatio="xMidYMid meet" viewBox="0 0 2048 2048"><path d="M1032.88 89.476c48.51-.38 88.49.45 137.3 6.094a888.76 888.76 0 0 1 405.59 155.68c43.67 30.283 81.93 60.311 120.19 97.433 63.86 61.956 108.97 122.102 154.34 198.038 62.22 104.151 99.79 208.081 115.43 328.899 5.61 43.324 5.57 83.644 5.32 127.07-.09 16.55 2.13 35.02 2.05 52.36-.93 204.69-78.34 401.98-203.79 562.23-23.41 29.92-49.46 57.09-75.96 83.81-174.13 172.5-409.21 269.46-654.33 269.88-154.202-.06-274.052-31.85-414.55-94.19-21.174-9.39-59.236-23.19-77.782-34.32-59.967-35.95-115.365-81.34-165.497-129.75-179.566-172.46-281.714-410.24-283.195-659.21-3.932-247.996 69.737-465.116 233.568-651.097C512.491 197.016 763.182 93.522 1032.88 89.476"/><path fill="#fefefe" d="M1024.44 278.489c31.4-.742 62.83-.447 94.21.883 41.51 1.895 164.23 16.421 197.86 33.182 39.28 19.573 141.24 120.339 172.64 154.235 131.92 142.459 228.96 320.421 264.56 511.892 7.44 40.009 13.67 80.479 15.69 121.179.42 11.78-13.83 51.94-18.27 64.53a890.3 890.3 0 0 1-151.1 270.71c-15.44 18.9-30.92 37.89-49.08 54.23-9.21-36.29-17.65-73.44-27.2-109.63a2886 2886 0 0 0-55.93-188c-8.6-25.85-21.58-66.43-34.46-89.53-10.55-18.93-62.59-39.92-83.63-48.41a1158 1158 0 0 0-133.14-45.72 233.8 233.8 0 0 0 42.61-45.339c18.16-25.63 26.76-59.797 21.55-90.846 17.15-27.78 27.12-61.87 17.24-93.896-4.25-13.784-13.39-36.499-24.5-45.996 3.24-70.911-13.69-135.516-37.67-201.887-15.69-43.417-51.43-98.823-95.06-117.286-8.32-3.521-28.67-10.409-37.4-6.513-2.08.928-16.94-7.318-20.04-8.958-24.33-12.855-47.37-14.785-74.39-12.343-62.904 7.027-142.672 39.863-189.524 83.034-35.719 32.913-42.892 69.473-54.753 113.682-5.691 16.685-13.024 34.016-19.147 50.448-25.648 68.838-34.26 149.111 3.736 215.329 2.15 3.746 14.14 21.528 14.355 23.013 8.231 56.825 26.657 97.509 66.931 138.598-75.31 29.47-150.64 58.1-214.783 108.89-12.116 8.84-33.817 23.96-37.16 40.43-7.48 36.82-11.321 74.38-16.397 111.56-10.121 74.13-22.6 153.65-27.476 228.2-8.515-8.58-15.604-18.32-23.11-27.79-27.281-34.4-54.495-71.22-77.641-108.57a948.3 948.3 0 0 1-125.109-323.93c-6.504-33.08-12.87-72.378-14.582-105.984-.816-16.01 15.972-62.404 21.635-78.493a1108.2 1108.2 0 0 1 246.544-399.426c26.052-27.212 53.331-53.352 82.434-77.22 7.834-6.425 23.478-20.744 31.267-25.267 15.183-8.815 40.82-16.826 57.605-22.286a1003.6 1003.6 0 0 1 290.685-50.705"/><path fill="#fefefe" d="M1098.76 519.621c5.4 3.506 13.34 15.191 17.68 20.44 17.69 21.407 35.78 45.091 48.08 70.068 9.57 17.354 16.38 40.709 24.93 57.911 14.6 29.395 11.79 29.899 7.17 61.405-7.05 48.134-18.55 93.505-45.33 135.082-20.03 31.077-52.58 59.292-89.43 67.633-39.05 8.09-67.25-1.866-99.818-23.068-61.825-44.385-86.068-121.47-94.133-194.119-1.095-9.87-1.143-19.801-3.076-29.562 7.435-4.153 19.492-8.401 25.618-12.374 29.829-19.349 55.87-23.769 91.179-21.672 3.499.207 7.956-3.857 8.019-7.597.217-12.871-23.985-10.092-32.762-9.973 25.18-17.882 50.173-38.6 75.893-55.578 28.63-18.908 43.92-32.607 65.98-58.596"/><path d="M999.43 839.984c18.95 1.719 35.17 8.522 55.58 5.131 8.66-1.439 21.37-6.743 28.42-1.847 3.26 6.303 1.58 8.866-3.43 12.746a73.4 73.4 0 0 1-12.62 3.528c-9.93 1.913-94.08 7.859-67.95-19.558m105.25-204.59c11.26-1.583 34.34.127 45.51 1.855 6.49 1.005 9.66 1.643 13.4 6.972.72 4.634 1.13 2.608-.49 6.401-5.24 3.818-13.23 2.124-19.86 1.558-9.47-.995-19-1.334-28.52-1.015-9.46.29-28.14 4.998-33.29-2.857-.74-3.692-.51-3.629.92-6.971 5.62-5.438 14.22-5.079 22.33-5.943m6.71 52.674c20.89 1.898 21.71 28.623 3.02 35.28-7.56-.795-11.98-3.004-15.04-10.579a19.78 19.78 0 0 1 .67-16.235c2.58-5.205 6.13-6.865 11.35-8.466m-155.622.924c22.316-.32 23.584 21.738 8.67 33.54-19.549 1.184-22.54-21.398-8.67-33.54m80.012 104.893c12.36-1.135 30.58 4.681 14.79 17.695-8.58.599-13.55.972-20.18-4.64-2.87-6.504.32-9.333 5.39-13.055"/><path fill="#fefefe" d="M312.674 597.968c1.599 1.461-2.876 13.904-3.734 16.877a698 698 0 0 0-22.214 102.545 1065 1065 0 0 0-11.025 116.481c-.992 27.92 2.413 55.875-4.486 82.901-2.868 11.234-5.334 22.851-7.801 34.19a1167 1167 0 0 0-13.629 76.438c-4.098 27.57-5.692 56.63-7.241 84.5-5.981 107.62 6.727 205.46 35.14 309.35-11.799-12.01-40.28-51.88-49.665-66.87-55.182-89.33-94.626-176.76-103.776-282.5-15.782-182.37 72.458-340.87 188.431-473.912M1794.82 621.64c7.42 5.143 26.25 33.486 32 42.407 58.72 91.095 101.7 192.426 116.6 300.249 5.63 40.704 3.84 56.814-2.79 97.284-17.6 107.49-67.05 223.44-132.52 310.08-13.91 18.83-40.15 52.88-58.23 66.89 1.63-6.84 3.79-13.76 5.59-20.58 15.42-58.49 28.02-119.8 32.68-180.05a1563 1563 0 0 0 4.21-83.79c.15-9.09-1.79-28.35-.87-35.11 2.1-14.96 7.56-29.32 10.79-44.05 25.08-114.189 31.86-234.894 16.6-350.892-4.48-34.087-14.27-70.139-24.06-102.438"/><path fill="#fefefe" d="M1374.1 328.716c11.57 1.872 38.03 13.396 50.23 18.061 109.72 41.972 207.91 109.975 293.19 190.077 13.07 12.279 28.18 25.933 39.72 39.873 4.42 6.436 15.55 45.265 18.19 54.718 34.72 124.054 34.64 262.631 13.64 389.345-1.79 5.62-2.66 11.57-3.7 17.41-8.75-40.506-12.38-77.819-23.47-120.233-49.8-190.397-150.89-357.436-288.12-497.546-32.6-33.282-66.14-60.241-99.68-91.705"/><path fill="#fefefe" d="M1173.56 129.396c38.17-6.552 99.34 12.062 135.87 25.063 115.74 41.193 225.46 101.725 308.92 193.344 18.67 20.492 31.96 37.94 48.31 60.089a768.7 768.7 0 0 1 76.2 125.804c-22.11-21.77-38.44-36.836-61.87-57.007a932.7 932.7 0 0 0-263.36-155.411c-25.85-10.189-52.81-17.926-79.56-25.393-4.22-1.176-10.8-3.058-14.45-5.442-23.23-15.175-45.14-32.631-68.53-47.654a745.7 745.7 0 0 0-196.52-90.972c8.91-3.287 24.35-6.241 34.01-8.403 26.55-5.942 53.89-11.374 80.98-14.018m-893.54 852.26c1.283 3.955 2.045 12.694 2.638 17.05 23.046 169.244 92.671 326.254 195.792 461.764 17.659 23.21 37.5 43.93 55.477 66.32-4.757 29.46-6.668 60.86-7.349 90.78-.057 2.5.344 1.07-1.163 3.18l-2.761-.45c-16.482-7.4-31.772-19.15-47.188-28.49-59.428-36.02-108.668-81.17-160.851-126.52-6.374-20.38-13.249-41.56-18.604-62.15a976.7 976.7 0 0 1-24.895-363.11c2.227-19.39 5.94-38.93 8.904-58.374m661.707-68.107c4.668 2.975 11.15 8.44 15.723 11.91 25.472 19.327 50.42 26.766 81.92 26.537 36.3-.265 50.17-9.344 79.84-27.23 6.6 25.908 6.61 53.494 12.82 79.144 1.23 5.1 10.03 4.6 14.56.44 2.58 3.1 11.58 63.54 12.97 72.21-21.56 26.69-42.6 54.73-73.98 70.34-17.48 8.19-26.44 11.74-45.52 12.28-49.151 1.39-98.582-28.71-129.366-65.65-11.968-14.37-22.635-30.29-36.14-43.4 1.706-19.63 14.08-63.512 29.994-76.55.577 6.756-.177 12.536.193 19.102.391 10.718 15.639 12.668 17.345 2.618 4.748-27.97 12.356-54.467 19.641-81.751M831.122 141.192c32.484-1.646 111.795 1.115 143.022 8.428-7.421 3.638-19.127 7.539-27.259 10.665a615 615 0 0 0-30.84 13.066 1138 1138 0 0 0-135.622 71.627 976 976 0 0 0-79.1 53.836c-15.231 11.558-31.54 24.025-46.564 36.041-3.36 2.687-18.067 8.808-22.711 11.004a1595 1595 0 0 0-42.557 20.971 1137.4 1137.4 0 0 0-143.981 89.444c-31.614 23.412-53.087 40.465-82.15 66.452 11.07-22.978 23.25-47.643 36.446-69.171 80.363-131.098 202.221-224.993 345.09-279.318 27.983-10.641 57.361-25.72 86.226-33.045M1942.38 1142.7c1.29 6.89-1.52 21.89-2.71 29.33a972.6 972.6 0 0 1-38.23 155.24c-47.61 142.08-129.77 267.9-239.81 369.36-12.33 11.36-50.42 47.99-63.16 54.33l-1.49-1.16c-1.64-7.4-1.36-12.72-4.15-20.24 5.34-12.82 18.02-26.8 26.37-38.28 34.95-48.12 65.09-98.62 90.68-152.34 6.94-14.55 12.54-36.61 20.45-49.89 10.73-12.65 25.6-23.85 37.08-35.86 67.6-70.67 119-154.86 154.19-245.95 7.8-20.2 12.79-42.74 20.35-63.4zm-922.25-979.785c6.07-.742 26.34 6.952 33.38 9.041 59.07 17.564 115.79 43.14 168.62 74.817 16.61 9.958 35.52 20.41 50.49 32.631-25.09-3.209-52.09-9.861-78.62-12.65-73.45-7.724-161.44-13.571-234.76-4.886a989 989 0 0 0-119.791 17.748c-37.136 8.204-72.068 18.847-108.531 29.147 9.063-7.206 26.023-17.651 36.143-24.294 79.909-52.461 164.35-87.518 253.069-121.554"/><path fill="#fefefe" d="m591.292 225.828 1.044.246c-.63 1.584-21.191 15.91-23.873 17.987-44.416 34.402-89.92 73.649-126.213 116.498a640 640 0 0 0-87.854 135.418 479 479 0 0 0-13.994 31.163c-1.434 3.528-9.329 24.102-11.116 25.858-81.758 80.35-136.166 163.877-184.151 268.02l-.579.379c-.341-2.329 8.583-37.84 9.793-42.31a901.28 901.28 0 0 1 327.423-483.925c36.39-27.167 70.26-46.91 109.52-69.334M1769.74 1181.89l.95 1.61c.04 19.73-2.02 39.99-3.98 59.64a891 891 0 0 1-47.19 213.67c-7.57 21.36-13.33 25.56-30.64 39.75-36.53 29.94-77.1 61.01-119.91 81.42-2.6-8.19-4.74-18.34-6.75-26.82l-5.93-30.3c-2.74 3.02-3.1 3.42-6.32 5.85l-.78-.47c2.18-3.25 6.64-9.91 10.41-10.72l-1.22 3.94c12.16-8.42 35.61-36.9 45.65-48.87 69.61-82.95 130.41-185.74 165.71-288.7M591.834 389.147l.546.907c-15.321 15.763-31.486 30.467-46.967 46.657-89.419 93.512-163.445 200.518-215.884 318.975-11.656 26.329-24.51 52.938-33.294 80.29l-.607-.551c-1.586-5.413.623-26.665 1.212-33.705a915.3 915.3 0 0 1 45.748-225.256c.887-2.598 4.531-12.629 6.285-14.208 70.66-63.61 158.335-131.626 242.961-173.109M137.087 1218.83c1.674 2.56 6.249 14.07 7.712 17.55a1113 1113 0 0 0 15.498 35.9 860 860 0 0 0 51.355 93.6c24.549 39.23 54.236 72.65 84.027 107.48 1.411 1.65 8.065 20.73 9.461 24.48a639 639 0 0 0 16.913 41.6 749 749 0 0 0 111.988 173.57c11.05 12.92 22.625 24.48 34.005 36.3 8.994 9.34 43.078 35.64 47.105 43.89-3.387-1.28-5.922-3-8.826-5.11-164.736-119.89-291.618-290.76-348.529-487.25-7.917-27.33-15.681-53.87-20.709-82.01m1407.193 308.72c1.82 1.9 1.17.8 1.95 3.3-4.35 8.53-52.98 53.28-63.27 62.43-92.06 81.41-199.46 151.36-312.45 199.9-48.6 20.88-103.54 34.45-152.79 52.96 14.65 6.49 33.38 11.24 48.9 16.44 24.1 8.08 48.42 16.13 72.64 23.75 4.5 1.41 35.49 9.7 37.08 10.6.88 2.9.67 2.99.41 6.09-20.63 8.32-248.413 2.96-280.397 1.7-1.809-11.51-2.661-21.57-3.584-33.12-5.376 1.19-12.23 2.16-17.755 3.07-41.239 6.86-85.051 8.54-126.767 10.51-3.525.17-11.513-1.92-15.249-2.76-8.237 5.75-28.504.08-37.672-3.1a886 886 0 0 1 38.567.03c157.952 2.48 332.407-44.19 475.417-110.69 122.85-57.12 238.33-147.4 334.97-241.11m60.63-1223.868c4.55 1.628 8.82 4.999 12.61 8.055 136.42 110.04 238.18 257.358 292.6 424.001 7.29 22.331 21.46 75.633 24.15 98.675-2.7-4.363-5.61-13.271-7.55-18.365-32.59-85.766-78.26-166.181-138.49-235.559-11.83-13.62-13.1-16.186-19.33-33.638-29.24-81.831-81.23-155.903-140.11-219.115-7.55-8.099-16.03-16.173-23.88-24.054"/><path fill="#fefefe" d="M332.497 1507.67c3.793 2.56 15.784 13.79 20.033 17.4a1646 1646 0 0 0 42.909 35.08c43.36 33.92 79.692 56.36 126.369 83.93.373 5.29 1.233 11.98.837 17.2-2.354 31.1-2.166 63.84-5.957 94.74-.298 3.45.169 3.21-1.513 5.82l-2.481-.51c-74.936-63.36-129.519-145.42-170.994-233.51-3.208-6.81-6.414-13.11-9.203-20.15m550.473 157.27c18.442-.06 37.402 1.84 56.231 1.96 77.559-.22 155.109.35 232.659 1.72.29 9.09 3 35.14.71 42.01l-2.81 1.08c-18.32.98-36.97 1.53-55.32 1.71-76.36.74-154.033 5.11-230.247 3.69a933 933 0 0 1-1.223-52.17m240.94-65.51c14.56-.81 31.06-.63 45.78-.77-.14 17.23.79 34.05 1.63 51.25-78.02.27-160.64-1.07-238.881-2.11-14.043-1.38-35.594-.71-50.895-1.23a1417 1417 0 0 1-.548-39.39c35.273.14 62.396-1.69 96.609-2.86q73.164-1.98 146.305-4.89m-242.357-119.18c69.108-2.08 139.377.74 208.617-.17 21.75-.29 50.14-1.05 71.38 1.09.98 10.29 3.6 35.11 2.97 44.77l-1.52 1.03c-84.29.66-168.367.96-252.517-3.81-10.247-.58-20.698-.78-30.975-1.15-.289-9.98-1.058-29.33.202-39.78zm251.947-125.81 20.58-.56c.72 17.84 2.14 35.65 4.24 53.38-6.93.25-14.25.09-21.18-.02-64.5-1.01-128.75.04-193.196 2.59-13.745.55-27.498.78-41.181 2.44l-21.36 2.62c.003-14.63 1.072-29.32 1.882-43.94 28.748.37 73.999-5.66 103.835-8.26 48.7-4.14 97.52-6.89 146.38-8.25m-254.339 186.49c11.276-.33 22.039.37 33.272.78 84.094 3.11 169.527 6.19 253.667 4.04.8 7.14 3.93 29.85.34 34.9l-4.19.24c-64.19.23-128.36 1.75-192.484 4.55-31.088 1.06-57.299 3.35-89.609 3.39zm240.859-304.32c7.29-.88 16.96-.59 24.37-.45 2.58 14.04 3.03 28.51 3.9 42.8-77.94.73-155.825 4.12-233.53 10.15-9.499 1.08-16.888 1.75-26.425 2.07 1.051-14.16.83-26.15 2.356-40.63 17.882-.74 33.385-3.16 51.025-4.99q26.806-2.52 53.669-4.35c42.745-2.9 82.625-2.49 124.635-4.6m26.91 60.82 1.33.25c3.97 5.8 4.07 30.76 4.11 38.27-84.81-.12-177.503 8.93-262.128 18.44-3.218.37-1.811.76-4.498-.41-2.312-7.11.948-35.4 1.31-45.18 11.297.69 34.022-1.84 46.201-2.78 22.564-1.62 45.15-2.92 67.755-3.91 29.53-1.12 59.07-2.01 88.62-2.66 17.53-.32 40.23-.05 57.3-2.02m14.7-311.081c43.68 18.171 91.89 154.551 102.3 198.601-5.38 1.98-10.13 2.97-15.69 4.28-22.01 4.54-35.16 8.06-56.63 14.88-3.27-49.6-7.35-98.41-15.34-147.52-3.54-21.71-7.52-49.62-14.64-70.241m-94.97 440.101c30.8-.03 61.18-1.4 92.23.66-.29 12.02.61 22.82 1.8 34.69-25.19-.56-51.33.79-76.38.23-35.79-.78-70.29-1.11-106.085-.97-32.562-.38-65.13.03-97.672 1.22-.302-9.98.049-19.17.392-29.12a1836 1836 0 0 1 111.971-5.88c21.834-.3 52.654.59 73.744-.83m71.33-243 2.32.06c2.6 3.06 3.13 26.95 3.94 33.69-11.14 1.54-29.45 1.67-40.8 1.89q-30.825.39-61.65 1.44c-32.46 1.21-63.609 2.61-95.957 6.37-15.586 1.81-30.991 4.11-46.597 5.94-3.553.47-4.522 1.08-7.66.02q1.11-19.125 2.676-38.22c60.546-5.32 122.818-6.37 183.558-9.06 20.05-.89 40.09-.71 60.17-2.13M867.603 995.706l.615.555c.904 3.618-7.214 20.999-8.388 26.199-13.421 59.43-17.628 121.53-19.853 182.34-23.726-8.24-28.147-8.21-52.947-9.61l-13.08-.59c11.456-58.92 46.069-161.97 93.653-198.894m824.337 527.254c-2.09 16.11-55.32 105.56-67.22 122.38-7.7 10.88-25.9 35.34-34.84 47.08l-3.5-17.38c-4.79-24.43-10.41-47.26-16.43-71.37 48.51-27.89 78.23-46.5 121.99-80.71m-792.98 400.12c12.44.03 24.946 1.47 37.629 1.65 26.564.39 53.353 1.07 79.911 1.36 53.56.12 107.11-.71 160.64-2.49-.12 4.01.5 7.34-.72 11.16-2.99 2.6-3.03 1.85-7.66 2.66a940.4 940.4 0 0 1-270.073-1.34c-.293-4.78-.01-8.27.273-13m238.09-159.59.31 1c-5.68 2.6-11.45 4.96-17.32 7.1-27.05 9.94-91.25 32.83-118.45 34.59-6.232.4-63.389-25.08-72.241-29.19-9.29-4.25-17.519-7.95-26.449-13.01 29.97 2.96 60.066 5.44 90.165 6.7 14.195.59 29.655-.93 44.005-1.52 33.36-1.34 66.69-3.23 99.98-5.67m-9.63-31.93c6.94-.32 42.54-2.4 46.46.35.52 1.92.84 3.38.81 5.39-.03 1.53.25 1.51-.86 2.35-7.7 5.87-146.56 11.52-166.15 11.41-23.613-.12-47.928-1.51-71.432-3.83-4.359-.23-8.715-.5-13.068-.82-7.445-.56-33.23-2.07-37.368-6.88 6.589-5.11 84.249-3.78 99.926-4.02 47.232-1 94.462-2.31 141.682-3.95m-257.009-657.98c4.386 3.84 9.869 14.5 12.863 19.93-.409 21.62-3.829 45.1-5.347 66.93a8412 8412 0 0 0-11.388 173.26l-.739 4.55-.41-.47c-1.524-22.77-2.194-46.71-2.8-69.62-1.394-52.74-2.625-106.57 3.004-159.05 1.161-10.82 2.419-25.13 4.817-35.53m304.569 723.55c2.05 2.75 2.18 51.99 2.3 59.19-18.51-4.42-46.94-13.97-65.54-19.82l-24.2-7.92c12.42-3.71 23.99-7.7 36.03-12.56 16.98-6.86 34.44-11.95 51.41-18.89M1010.19 111.416c25.21-3.832 58.86 2.648 84.4.018l-.33 1.696c-3.09 1.856-10.08 2.878-13.97 3.455-26.58 3.944-51.15 13.811-76.94 20.643-7.123-3.039-13.485-4.017-21.009-5.57-23.263-5.23-51.753-6.345-75.643-7.802-2.946-.179-10.478 1.14-12.591-.801 5.318-4.009 102.302-10.748 116.083-11.639M915.537 1139.44c14.957-3.29 28.966 9.9 41.538 16.16 9.081 4.52 19.269 9.82 29.216 12.22 3.427.83 3.294.54 6.397 2.18-1.239 1.37-16.329 2.11-19.493 2.38-20.758-.48-55.699 2.74-77.128 4.08.241-12.25.999-24.47 2.272-36.65 6.594.16 10.639.19 17.198-.37m-28.049 649.46c3.722 1.67 8.006 3.94 11.661 5.86 18.494 9.73 37.656 17.5 56.865 25.71-2.936.88-6.245 1.61-9.257 2.34-19.435 4.44-36.248 7.45-55.891 10.68-.432-13.98-2.72-29.79-3.378-44.59m275.082-685.2c5.74 26.28 7.17 85.97 8.27 114.86.16 4.02-3.58 19.73-4.34 25.76l-.11.93c-3.59-43.26-7.8-87.77-9.87-131.03zm-25.06 26.13c2.53 3.3 3.18 30.32 3.59 37.21-18.45.6-36.1.67-54.85 1.5l-2.5-.16c1.74-2.08 16.1-8.2 21.08-11.38 13.19-8.4 21.46-16.59 32.68-27.17m-368.353 602.02q1.975.12 3.929.42c19.924 2.95 41.63 18.13 59.403 27.8 9.769 5.32 48.468 21.98 53.719 29.12-2.466.8-4.012 1.11-6.384-.04-10.799-5.19-21.423-10.97-32.093-16.45zm78.01-1018.256c2.167 3.307 5.386 37.497 7.383 43.827.571 1.809-.223 3.39-1.195 4.862l-2.854-.76a100.5 100.5 0 0 1-12.248-19.124c1.135-7.586 5.27-22.276 8.914-28.805M1195.13 1788.46c.25.15.53.28.76.47 5.41 4.25 7.67 61.66 8.48 72.24-3.58-.16-3.99.02-7.41-1.26-1.26-3.11-1.91-64.17-1.83-71.45m21.63-1069.963c9.76 10.099 9.25 29.864-.21 40.702-2.29.757-3.46.9-5.85 1.3-.47-5.399 4.17-36.685 6.06-42.002m-28.52 876.263c5.5 11.03 3.86 76.13 7.34 91.89.73 3.35 1.64 21.27 1.27 24.87-.93-.43-3.99-1.99-4.04-3.2-.55-13.2-.69-26.4-1.21-39.6l-2.23-48.17c-.39-7.9-1.4-18.2-1.13-25.79m18.65 327.6c.98.53 2.4 2.51 3.13 3.39-.01 2.21.21 1.18-.58 3.1-3.72 2.87-5.25 2.54-10.2 2.98l-1.58-.44c-.9-4.66-1.22-2.58.24-6.51 4.28-3.06 2.94-2.11 8.99-2.52m-305.948-811.83c4.033 3.63 9.819 8.07 10.143 13.49-3.368-.12-7.146-.01-9.668-2.02-1.722-3.3-.806-7.59-.475-11.47m-187.943 610.38 1.419-.61c6.933.67 22.93 3.83 29.028 6.93-5.512.9-26.804-2.6-30.447-6.32m2.137-36.2c5.374 2.06 9.7 5.28 11.338 10.86q-2.557-1.47-5.068-3c-4.465-2.78-5.242-3.47-6.27-7.86"/><path fill="#635f66" d="m1186.94 1576.57 1.65 1.59c1.06 4.5.35 8.37-.06 13.01-2.6-2.79-1.71-10.57-1.59-14.6"/></svg>