<svg xmlns="http://www.w3.org/2000/svg" preserveAspectRatio="xMidYMid meet" viewBox="0 0 2048 1152"><path d="M518.095 60.18c-25.754-3.975-54.343-6.53-80.295-9.45L290.77 34.229l-46.469-5.15c-8.098-.842-31.391-.074-31.727-10.647 4.311-3.547 8.621-2.37 13.96-1.802 96.068 10.203 191.985 22.084 288.059 32.17 15.338 1.611 38.543.384 54.305.378l95.373-.048 289.231-.112 391.838-.053 121.43.049c10.14.006 20.81-.32 30.87.024 41.43 1.418 81.63-4.927 122.75-9.8l143.37-16.197c10.31-1.17 63.79-8.775 69.46-5.727 1.87 2.918 1.45 1.541 1.06 5.617-2.14 2.852-3.43 3.463-7.56 3.927-24.47 2.744-49.13 5.211-73.59 7.948l-140.7 16.109c-26.8 3.045-54.74 5.573-81.35 9.269l.01 428.575a23313 23313 0 0 0 206.03 118.057l60.06 34.423c6.88 3.971 32.07 16.976 34.74 22.78l.03 3.127c-1.29 1.154-2.32 2.131-4.12 1.626-15.46-4.323-38.84-20.383-52.42-28.218l-102.44-58.681-99.19-56.736c-15.79-9.05-35.26-19.59-50.47-29.093-13.99 2.049-25.71-5.641-37.97-13.086.41-8.909.25-17.955.18-26.883-42.53-.094-86.25-.766-128.69-.18 1.54 24.056-7.62 16.499-27.59 16.86.76 3.779 1.19 5.215.88 9.086 6.86 10.972 17.76 5.105 26.48 9.574 3.1 1.587 9.74 4.993 12.22 7.23.09 2.187.19 3.888.44 6.063 6 1.903 12.72-2.691 15.83 4.165 1.23 2.717 1.57 5.291 4.64 6.651 6.17 2.737 7.79 5.174 12.06 10.034 3.55.017 13.46-.433 15.11 2.541 8.41 15.178 16.03 10.169 30.96 11.421.83 7.156.55 15.858 5.65 20.173 9.93.71 9.24.383 15.58 7.827 2.64-2.462 6.27-6.056 9.05-8.122 8.62 3.206 11.75 6.177 18.45 12.542 36.48-2.293 17.5 7.374 22.06 24.076 2 7.359 15.49-.973 23.87 7.896a97 97 0 0 1 3.67 4.141c13.06-15.638 17.85-4.977 28.07 7.253 7.87-1.268 20.44-3.801 27.16.481 6.26 7.441-4.68 21.941-.1 34.588l1.12 1.082c13.73-6.356 11.67-5.998 23.28 5.263 7.85-8.081 13.27-11.799 22.57-1.814 3.23 3.528 6.42 7.101 9.55 10.716 34.23-7.691 29.78-.771 25.28 27.436-.72 4.531 4.53 7.542 9.08 7.436 3.31-1.128 5.3-3.218 7.98-5.427 9.55-7.875 19.14-.283 27.08 4.979 10.88-9.228 11.79-14.475 22.66-1.318 8.37 1.334 8.83 2.074 14.08 8.563 42.32-8.641 31.17-1.25 28.89 36.819 7.03-.211 16.87-1.554 22.63 1.546 8.28 11.799-35.04 29.665-43.55 31.855-.05 11.441-4.61 85.685-8.82 92.901-12.62 10.854-86.49 10.46-90.42-1.91-7.44-23.384-6.45-66.694-8.09-92.141a769 769 0 0 0-21.27-6.353c-1.11 13.561-5.83 96.473-11.74 101.206-11.35 9.086-53.13 6.382-67.38 4.17-6.55-1.015-14.6-2.364-19.22-7.528-3.26-7.3-6.13-60.455-6.97-72.135-14.9 2.547-52.16 3.094-65.53-4.869-7.18-4.277-7.51-47.223-7.64-56.922-58.48 1.409-63.37 5.912-63.7-56.139-53.96-.861-50.98 5.306-54.48-47.95-28.77-.995-37.45 2.941-38.97-29.081-32.33-.977-38.13 2.848-41.27-31.703-32.85-1.546-31.86-6.51-34.83-37.049-9.55.158-23.72 1.409-31.53-4.177-3.53-6.656-10.06-33.326-10.85-42.061-.12-1.392 4.56-5.399 6.67-6.372 5.17-2.38 12.19-2.473 18.04-2.902 2.67-4.333 3.33-5.398 6.98-8.87l-89.89.276a15809 15809 0 0 0 329.3 494.746l269.05.255c13.41.005 96.94-1.159 104.77 1.416 1.8 1.856 1.32.911 1.41 3.969-3.22 5.614-6.59 5.359-12.36 5.219-12.24-.297-24.48-.248-36.72-.222l-145.85.082c23.72 25.634 49.81 53.942 72.35 80.452 12.74.03 117.96-1.67 122.13 2.35.94 4.19-2.46 7.97-6.2 7.93-35.43-.39-71.02.21-106.47-.24l45.19 52.46c5.41 6.33 10.91 12.52 16.38 18.78 2.98 3.4 2.18 5.72.13 8.85-3.67 1.86-2.23 1.74-5.68 1.14-5.58-5.29-9.99-11.09-14.98-16.91-18.47-21.54-36.94-43.25-55.81-64.44-17.61.02-198.13 1.34-203.36-1.48-2.37-3.48-2.18-2.15-1.89-5.46 2.96-3.27 8.83-3.96 13.05-3.99 60.95-.31 122.23 1.29 183.16.6-19.84-20.83-38.4-43.21-57.82-64.449-4.38-4.798-9.88-10.432-13.74-15.526l-136.15-.01c.04 15.089-.08 156.175-2.85 160.265-9.52 7.21-27.54 3.35-40.2 3.41-7.24-7.95-16.47-24.32-22.7-34.13l-.07-111.844c-8.01-9.347-22.23-32.409-29.6-43.84a5211 5211 0 0 1-60.89-96.913 10485 10485 0 0 1-127.02-204.814c-18.28-30.618-37.3-62.44-53.96-93.917-2.91 14.812-1.81 28.569-21.89 23.89-15.32-3.571-5.97-14.989-11.35-21.406l-1.81-.166q-.48 1.032-1.14 2.472c4.8 22.431 15.67 59.096 20.24 80.345 11.69.022 45.58-1.363 54.29 2.327l1.72 2.019c-.69 3.655.02 2.413-2.51 4.823-11.22 2.385-37.83.59-51.1 1.09 8.61 31.678 19.61 70.864 26.75 102.677l54.61-.05c9.13-.002 36.48-1.723 42.09 4.728-3.07 6.98-7.87 5.722-14.76 5.714-26.38-.032-52.76.054-79.14-.08l22.15 79.071c3.44 12.214 9.61 31.642 12.07 43.543 30.57.486 61.14.643 91.72.472 14.02-.026 28.06-.223 42.08-.07 3.21.035 5.38 2.314 6.43 5.166-.51 1.976-.51 2.34-2.32 3.351-6.31 3.532-118.06 1.546-135.02 1.514a9749 9749 0 0 1 43.16 160.218l108.6.12c17.18.02 35.05-.16 52.24.2 3.64.07 4.05.41 6.55 2.29l1.19 2.99c-1.04 2.35-1.7 3.04-4.27 3.94-7.39 2.59-139.47 1-161.33.99 7.42 27.75 15.4 61.28 23.72 88.18H772.299c7.411-28.95 16.041-59.21 22.889-88.02l-107.239-.15c-9.981 0-49.892 1.58-56.533-1.93l-1.348-2.13c.869-2.72 1.615-4.1 4.385-5.46 4.345-2.12 144.377-.88 163.723-.93 13.942-53.64 28.3-107.175 43.074-160.596l-87.029-.144c-9.893-.015-40.392 1.613-47.353-2.343-2.243-3.274-1.673-4.346 1.036-7.532 4.12-1.812 122.965-.673 136.004-.863l35.872-121.744-60.27-.063c-6.922-.006-27.334 1.559-31.65-2.512-.76-3.372-.811-1.945.743-5.599 4.189-3.475 81.935-1.825 93.774-1.758 9.086-27.956 16.34-57.098 25.448-84.651-3.968-7.349-4.809-9.359-5.855-17.547-9.994.087-38.885 1.861-45.921-2.997l-.84-2.191c.82-1.778 1.57-3.993 3.857-4.235 13.449-1.421 33.586-.666 46.987-.666 10.887-24.602 9.601-36.934 16.874-62.205 2.348-8.158 9.197-15.781 10.247-20.738-2.732-1.756-1.51-1.284-5.266-1.306-6.443 4.524-.777 12.546-8.015 19.877-6.696 3.425-21.167 1.254-24.067-7.057-4.012-11.494-4.139-24.544-6.178-36.652-3.069 42.008-1.677 38.875-23.235 74.532a6301 6301 0 0 0-33.377 54.917 8975 8975 0 0 1-212.088 336.04l.253 66.953c.066 13.09.434 27.16-.591 40.01-.475 5.96-20.586 37.39-25.736 37.1-6.29-.37-32.276.25-36.15-2.89-1.845-6.15-1.109-40.13-1.12-49.07l.07-114.899-134.315-.117c-22.635 25.148-50.285 54.966-71.472 80.956l129.331.33c11.03.03 59.201-1.46 65.808 1.84l1.37 1.91c-.958 2.83-2.118 4.3-4.872 5.73-4.349 2.25-179.283.61-201.583.63a3228 3228 0 0 1-47.664 53.01c-4.853 5.34-21.33 26.14-27.322 26.91-3.388-1.22-2.22-.36-4.389-3.29-.25-7.23 18.858-25.41 24.782-31.8a1243 1243 0 0 0 40.099-44.83l-74.803.03c-8.809 0-32.528 2.08-38.003-2.98-1.31-3.35-1.299-1.95-.11-5.24 4.555-3.58 34.188-2.23 41.942-2.22l80.511.07c19.501-20.45 37.589-42.96 56.798-63.734 4.946-5.35 11.148-11.759 15.513-17.454q-64.095.558-128.192.378c-20.219.001-40.444.008-60.659.004-4.331 0-5.909-2.232-6.989-5.813 4.771-7.738 34.94-4.743 44.667-4.672l55.11-.088 274.054-.061c11.014-18.48 28.937-42.289 41.585-60.643l79.558-116.236A15728 15728 0 0 0 810.622 631.1l106.925-161.743c-25.761-.017-58.324-.61-83.573.924 5.312 5.761 4.864 8.147 12.842 6.19 18.604 5.459 30.497 19.942 8.333 31.714-1.587 26.358-2.451 22.027-26.283 23.995-5.268.435-5.29 3.809-13.109 2.322-1.522 29.855-.21 29.982-30.146 32.559l-.16.656c-7.327 31.191.202 34.332-39.619 32-3.908 30.728-7.254 30.167-38.196 28.704-1.532 11.603-2.583 39.915-10.502 45.461-8.568 6.001-35.562 4.447-45.805 3.224-2.648 12.077-4.567 24.293-6.091 36.494-.608 4.86-2.254 13.688-7.31 15.619-14.177 5.415-35.651 3.678-50.773 3.295-1.591 16.579-4.188 36.878-6.603 53.58-.297 2.056-2.982 6.397-4.61 7.576-12.05 8.723-49.102 5.676-63.752 5.032-2.083 18.817-4.678 53.01-7.815 69.947-18.529 10.078-43.846 7.354-64.14 6.884-4.816-.111-23.283-2.194-24.339-7.228-6.418-30.59-4.967-64.292-9.072-95.361a939 939 0 0 0-23.472 9.222c-2.17 11.789-4.988 84.567-12.67 88.21-18.279 8.668-57.368 7.171-77.395 3.444-9.47-1.775-11.182-5.247-12.102-14.176-2.764-26.832-4.306-53.815-7.391-80.58-9.976-3.946-46.002-17.59-42.446-31.571 5.418-6.411 21.2-6.872 29.33-6.892-7.965-27.815-13.864-44.212 24.964-31.582 1.606-3.811 2.696-7.434 5.855-10.04 4.129-1.551 7.263 2.339 11.109-.747 5.013-4.023 1.985-10.754 9.769-10.768 4.716 2.168 9.307 7.129 12.466 11.22 19.802-22.801 13.947-.629 25.784-.663 1.237-3.475-2.127-4.533-.53-8.841 6.46-2.774 16.332 5.616 21.458 9.417-10.112-26.439-14.914-38.988 19.784-33.06 1.54-3.446 2.575-6.811 5.643-8.892 18.406-2.065 10.415-8.513 17.131-12.054 5.195 1.019 8.442 5.284 11.964 9.122 2.787-3.618 6.764-9.613 11.252-10.777 4.784 3.075 2.742 5.943 6.546 8.374 1.459-3.074 1.912-4.052 3.996-6.854 2.918-.874 1.661-.883 4.812.338 2.636 3.049 3.009 3.811 4.794 7.327 1.423-5.57-14.423-26.857-6.677-36.084 9.515-3.977 23.599 7.481 33.603-10.283 4.236-7.521 10.324.354 14.153 1.486 5.425-3.405 5.859-10.529 14.13-9.633 1.469 1.737 2.7 3.27 4.065 5.09 5.758-.745 3.153-6.971 11.467-5.374 2.985 2.566 3.765 3.545 6.18 6.57l1.41-.633c-1.454-8.018-4.873-23.215-.797-30.168 6.968-4.684 15.815-.166 19.727-2.31 4.478-2.454 1.61-9.327 14.341-3.945 5.335-2.704 2.186-8.309 10.15-7.529 4.462 3.949 1.765 7.776 4.907 8.268l9.979-7.047c3.836-25.185-6.224-19.137 24.731-22.668.753-.086 2.544-4.857 7.467-5.871l6.781 2.07c3.462-3.952 19.364-23.966 21.118-23.927 20.804.457 22.785-5.213 39.286-17.278 5.569-4.072 33.153-12.506 35.666-20.016l-.455-1.27c-11.896-.544-25.746.517-36.676-.872l-.379-13.72q-42.368.181-84.735-.098c-11.249-.064-32.348.376-42.947-.616.115 8.452 2.024 27.679-2.539 33.119-9.102 3.806-15.021-2.817-32.652 6.576-28.818 15.353-56.966 31.565-85.283 47.76l-151.825 87.499c-9.543 5.525-63.882 38.3-69.604 38.376-3.252-1.677-2.211-.698-4.138-3.61.575-7.706 18.614-15.272 25.396-19.168l55.474-31.93c71.203-41.015 146.907-86.061 219.077-124.88l-.253-274.908-.213-93.922c-.105-16.07-1.137-46.299.685-60.995"/><path fill="#fefefe" d="m1145.81 1063.87 96.52-.11c8.18 29.7 16.09 58.19 22.79 88.24h-104.66zm-339.267.13h90.001c-3.527 28.83-8.475 59.17-12.878 88H783.471q6.714-27.345 14.001-54.54c2.388-9.13 6.09-24.92 9.071-33.46M872.241 59.493l413.629-.003c.85 42.04.17 86.344.15 128.543l-.11 246.902-79.68.067c-1.06-23.418 1.94-266.204-1.66-269.582-5.19-4.86-21.74-2.699-28.5-2.548l-228.35.323c-30.797.063-61.59-.242-92.376-.099-7.666.132-11.088 1.19-11.133 9.445-.313 56.446.161 112.921-.16 169.367-.18 31.495.499 63.643-.785 95.062-26.425.408-54.045-.027-80.562-.062-.988-55.242-.013-114.785.234-170.226l.341-206.904zm-307.796.524q63.467-.386 126.934-.086c1.729 63.51.582 134.62.341 198.592q.442 94.298-.556 188.589c-24.134-.316-48.566.232-72.696-.047-16.278-.188-35.665 1.107-51.255-2.528l.223-.764c10.125 3.071 12.671.496 23.008-3.492.599-.536 5.048-4.176 5.241-4.14 13.493 2.641 16.405 11.048 30.002 1.358 15.109-10.769 14.9-8.426 10.494-27.046 14.418-8.794 6.795-9.146 12.842-15.798 9.093-10.003 24.039-10.44 4.215-30.057 6.433-10.026 16.478-8.84 18.671-20.045 3.012-6.85-11.588-13.078-11.518-15.296.461-14.685-2.402-10.068-10.012-19.254-.825-12.968 19.408-16.963 4.852-30.255-5.446-4.973-1.404-7.752-1.904-12.699-1.66-16.421-17.094-9.283-25.743-16.23-3.084-2.564 11.725-14.774 1.265-22.008-5.661-3.914 1.491-9.649 1.155-12.985-1.62-16.075-11.241-11.777-21.58-17.551-1.342-8.689 2.687-8.648-8.346-19.819 18.507-17.637 12.326-32.412-13.255-32.172l2.852-12.054c-6.341-13.536-13.581-14.314-25.834-7.092.565-22.019.182-44.87.604-67.121m835.165-.549c27.71-.66 57.68-.11 85.5.06.33 21.603.01 43.939-.02 65.597-15.18-6.117-20.86-2.546-27.03 12.246l3.26 8.5c-3.83 5.023-40.36-4.888-13.21 35.871-8.19 6.986-6.11 7.06-8.85 17.21-2.21 5.238-12.73 3.603-17.83 6.822-9.23 5.827-3.1 16.448 1.73 23.571-1.25 1.038-3.28 2.911-4.07 4.118-4.71 7.271.52 10.285 2.08 16.998.06.254-.22 1.836-.24 1.84-4.23.683-15.83.531-19.3 2.304-9.87 4.496-4.84 12.844-7.8 19.926-1.32 3.155-11.64 6.416-10.2 12.487 1.67 7.019 8.72 12.244 14.14 16.423-14.34 12.287-4.03 20.633-8.34 22.996-16.65 9.107-26.72 19.676 6.81 36.897-3.42 3.236-6.62 6.109-8.45 10.508a19.87 19.87 0 0 0 .06 15.417c3.6 8.306 11.68 13.891 19.84 17.148l2.32.621c1.93 4.158-.88 7.273-.7 11.529 1.07 25.611 25.56 26.414 41.48 13.077 13.37 10.159 16.44 11.375 32.92 13.951-16.15 1.169-34.99.663-51.41.586l-74.55-.283.25-386q20.805-.06 41.61-.42m-104.08.417c17.32.049 34.65-.061 51.97-.33l.02 401.086c-3.11 2.348-37.88 1.38-44.53 1.348-2.02-2.971-4.76-6.101-7.1-8.899zm-593.72.158 51.36-.11-.399 265.359c-.242 42.803.34 89.649-1.385 132.039-5.042 4.308-40.808 3.912-49.542 3.874zm488.72 814.681c4.63 5.553 41.88 156.046 49.55 178.416l-64.33.18-31.34-.08c-5.66-32.45-10.72-65.614-16.06-98.17a7262 7262 0 0 0 62.18-80.346M968.221 722.906l.853.16c.548.927-.848 49.894-1.958 52.906-11.982 32.527-12.971 67.142-20.358 99.712-2.631 2.083-1.81 1.429-5.841 1.655-11.548-6.387 6.617-55.904-.024-66.118l-1.704-.155c-7.776 5.105-27.774 47.899-33.784 59.429a2017 2017 0 0 1 49.084 58.886l2.425 3.718c-.341 4.131-15.743 17.36-19.866 21.404-21.968-17.008-69.962-61.056-77.929-87.373 7.868-19.03 50.93-105.762 62.151-116.508 12.865-12.321 31.117-19.925 46.951-27.716m-19.783 248.597c6.696 4.901 11.825 26.997 18.303 32.667 23.1 20.23 64.319 17.44 91.649 8.24.16-.06 13.59.57 15.45.6 11.66-6.08 13.52-11.19 19.65-22.598.59 21.848 4.29 52.688 6.35 75.338.14 4.96.74 10.38 1.18 15.36-52.72 1.71-111.396.56-164.525.37 3.479-32.98 6.442-78.04 11.943-109.977m125.542-246.891.8.283c13.95 5.07 31.17 14.165 41.79 24.782 14.81 14.812 56.25 92.592 67.48 116.382-19.91 26.685-46.92 63.321-68.36 87.998-5.43-5.795-9.99-9.267-16.91-13.059-3.51-1.925-6.65-2.247-9.34-4.939 14.4-22.895 32.77-47.593 45.27-71.196-5.11-10.474-22.09-52.542-29.68-55.795-8.99 3.176 2.31 54.327-6 66.623l-1.88.145c-10.64-9.262-10.39-47.859-13.7-61.39-7.31-29.891-7.37-59.239-9.47-89.834M851.798 891.927c1.508-.002 6.336-.093 7.325.895 6.992 6.979 13.437 14.716 20.269 21.878a825 825 0 0 0 35.808 34.955c-4.225 32.929-11.382 71.045-16.732 104.065l-26.246-.18-63.007-.19c14.734-52.63 28.587-108.405 42.583-161.423M528.065 59.9l25.618.03c-.84 21.251-.174 46.027.015 67.515l.198 86.61c-.01 88.377-.96 178.471-.055 266.746-4.087.031-10.876.39-14.793-.026-5.181-.55-8.085 2.302-10.73 1.95-.941-12.095-.285-33.366-.257-46.102l.076-86.635zm630.875 469.967c8.21 10.096 29.79 45.598 37.66 57.795 23.14 35.618 46.46 71.118 69.95 106.5l111.19 167.126c23.91 35.309 50.45 72.474 73.31 108.158-2.22 46.694-1.4 103.204-2.22 150.754l-1.05.06c-15.76-19.56-12.18-37.21-12.11-60.82l.13-68.699c-3.21-4.098-8.81-13.51-11.94-18.34l-25.29-39.074a17262 17262 0 0 1-93.95-149.231c-40.37-64.694-86.18-135.701-122.75-201.792a702 702 0 0 0-14.82-25.644c-8.85-14.45-9.7-10.216-8.11-26.793m-282.313 20.882c.28 1.499-1.511 17.419-1.745 20.27-8.257 11.98-16.447 26.604-24.061 39.263l-36.094 59.553c-26.468 43.965-55.066 89.084-82.174 132.894a10009 10009 0 0 1-82.624 129.568c-12.614 19.366-28.282 41.325-39.852 60.773 1.379 11.93.791 33.64.724 46.25-.107 20.17.561 42.65-.341 62.63-3.073 4.87-6.375 10.53-10.169 14.76l-1.288-.79c-.391-49.18.421-102.28-1.412-151.057a12757 12757 0 0 0 200.01-294.84c24.667-37.014 53.535-84.217 79.026-119.274"/><path fill="#fefefe" d="M1047.2 182.498c44.04-.345 88.07-.414 132.11-.207-.03 9.639 1.72 71.254-.92 75.374l-4.14.269-135.07-.02c-.27-20.223-1.28-54.977.09-74.211 1.95-1.569 5.19-1.165 7.93-1.205m-175.223.013c42.189-.873 95.716-1.508 137.303.165.4 8.979 1.74 71.027-.53 75.393l-138.512-.031c-.017-9.841-1.152-70.862 1.739-75.527M1495.94 59.75l24.08.033-.07 425.822c-9.94 1.589-15.18-3.459-23.87-8.342zM987.058 573.301c11.537 9.579 34.122 29.112 48.352 28.311 23.98-1.352 34.81 20.305 40.11 22.079 4.56-2.283 1.75-4.675 6.24-7.45 13.39.818 10.9 22.956-1.58 24.347-1.72.287-9.62.02-10.62 1.385-10.21 13.958-14.15 22.059-28.27 33.232a42 42 0 0 1-3.28 1.838c-34.63 17.307-59.599-8.515-73.998-37.67-3.889.177-8.647.864-12.214-1.368-5.57-3.486-10.683-11.272-6.119-17.73 7.661-10.84 15.622 1.747 20.597.894 5.423-8.502 17.059-37.471 20.782-47.868"/><path d="M999.644 646.313c4.866.46 9.726 6.519 14.366 8.406 6.99 2.841 17.53-7.559 23.63-4.887.81 3.614.75 2.14-.61 6.212-12.85 12.05-43.745 9.303-37.386-9.731m-10.64-53.198c5.165-.308 9.489-1.109 12.596 3.874l-.57 1.964c-2.611 2.225-4.778 1.89-8.303 2.028-5.044 1.519-7.658 3.308-11.625-.5l.331-2.351c1.997-2.884 4.395-3.611 7.571-5.015m26.286 35.242 4.26.39c5.39 3.223 5.94 10.292 4.24 15.779-4.03.985-3.85.959-6.63-.623-3.07-4.754-2.17-9.911-1.87-15.546m25.86-14.643a6.38 6.38 0 0 1 8.2 3.869 6.38 6.38 0 0 1-3.94 8.17 6.39 6.39 0 0 1-8.1-3.907c-1.17-3.304.55-6.934 3.84-8.132m-50.07.069a6.364 6.364 0 1 1 5.226 11.605 6.364 6.364 0 0 1-5.226-11.605"/><path fill="#fefefe" d="M1039.33 268.747c18.65.312 131.09-1.719 139.75 1.416l.66 1.442c-9.29 5.145-27.28 1.261-36.54 6.608-7.64 4.414-6.74 7.105-10.57 13.24l-1.83-.629c-16.83-.44-17.04 6.704-23.72 19.536-1.76 3.385-4.97 5.077-6.58 9.63.02 5.519 5.1 11.615 8.38 16.053-9.71.737-62.48 2.593-68.06-1.477-3.62-8.044-1.81-53.833-1.49-65.819"/><path d="M1047.01 287.845c6.22.05 7.28 1.383 12.64 3.327 14.55 5.275 18.5 8.038 21.99 22.728 9.45 1.113 15.47 3.212 18.46 13.152-.69 3.078-.02 2.152-2.25 3.827l-52.89.267c-.23-11.231-1.68-28.935-.17-40.448z"/><path fill="#fefefe" d="M988.473 713.784c2.651-.042 16.687 8.865 25.527 9.888 14.14 1.638 24.48-.945 36.19-9.347l13.77 6.464c1.92 22.704 2.97 38.008 2.61 60.743-28.21.571-61.21.563-89.357-.38 1.772-18.459 1.026-44.569 3.913-63.109.185-1.191 5.801-3.557 7.347-4.259m141.167-64.956c2.07 2.427 24.2 88.717 27.56 100.994-9.48.003-17.88.077-27.36-.832-9.21-10.56-19.06-17.11-31.25-23.637-15.05-8.267-32.27-13.712-46.84-22.251-4.84-2.837-6.18-8.454-6.88-13.742.73-1.971 1.01-2.963 3.65-2.956 23.52.063 51.63-.797 71.4-15.156 6.97-5.062 9.09-14.034 9.72-22.42m-59.44 283.289 1.2 1.479c.03 9.376-2.01 13.6-5.47 22.118-5.22 3.827-16.31 10.133-15.85 17.018 2 2.07 2.62 1.994 5.51 2.478l.86.14c-13.38 13.335-14.55 9.108-10.43 28.61-6.22 11.76-52.454 3.98-64.022.41 4.896-1.94 17.061-7.718 21.212-10.857 4.6-12.191-5.616-16.06-11.784-23.936 2.948-.611 3.649-.888 6.394-2.143l.516-2.002c-2.472-5.385-18.01-14.088-24.799-19.379l-2.929-13.788c25.924 10.493 73.362 10.014 99.592-.148M870.463 268.555c38.127 2.603 98.093-1.721 137.307 1.503 2.11.174 2.7 1.609 3.4 3.125-5.34 8.322-17.434-.039-25.05.574-2.381.191-12.488 4.871-15.413 6.169-5.157-3.15-10.427-3.952-16.327-4.115-11.83 3.603-14.181 6.565-17.384 18.202-21.105 1.856-45.334 19.762-32.193 41.986-11.798.04-22.161.111-33.975.931-.298-22.785.165-45.523-.365-68.375m45.754 404.727c23.823 13.936 37.06 13.074 62.873 7.01 5.569 3.669 10.645 6.476 16.453 9.697-1.225 4.108-2.834 7.409-4.606 11.296-8.71 5.399-30.965 14.044-42.56 20.09-17.344 8.426-27.5 14.961-40.795 28.485l-14.399-.003c7.464-25.603 15.731-51.02 23.034-76.575M567.886 972.134l20.048.106q.953 77.865.854 155.73l-20 .02c-1.443-50.99-.856-104.64-.902-155.856M1745.65 706.773c.94.95 4.55 6.702 6.4 8.939 12.49 3.002 6.12 6.512 12.04 14.644 1.74 2.378 11.6-.559 11.43 9.236-2.75 5.917-11.13 7.919-18.15 13.318-8.78.426-15.15 1.783-23.15-3.601-22.65-15.242-12.19 12.293-43.79 2.828-2.18-1.239-3.27-4.528-4.58-7.126-7.46-2.996-10.85 6.312-20.66-4.554-2.12-9.99 12.04-9.208 15.84-15.87 3.55-6.21 6.44-5.98 12.43-5.254 4.49.543 11.86-8.861 14.87-12.089 13.73 23.118 22.78 17.291 37.32-.471"/><path d="M1693.87 722.205c3.54 1.626 2.57.658 4.45 3.486-.43 2.386-1.07 4.006.04 6.028 6.04 2.531 10.3-3.584 14.31 2.463.68 6.115.39 5.418-4.33 8.463-3.98 1.426-19.15 2.474-19.35-4.058-.19-6.224 3.23-9.38 4.88-16.382m49.7-1.02c6.46.97 4.26 2.536 6.07 7.677 5.02 2.394 4.07-.935 9.37.356 2.12 7.195-2.97 10.211-8.17 12.807-5.81.586-14.72-.078-16.87-6.448 1.06-3.05.4-2.532 2.57-4.302l5 .724c1.88-1.407 1.39-6.813 2.03-10.814"/><path fill="#fefefe" d="m343.626 708.914 4.455.481c1.863 1.821 2.094 2.013 2.285 5.425.713 12.75 17.426 8.94 25.454 14.534 2.596 1.808 5.459 5.554 7.612 8.255-9.227 8.039-8.796 5.04-20.212 9.05-3.45 1.211-7.41 5.776-12.221 7.264-11.379 3.517-16.672-8.763-26.578-7.551-7.874.962-11.829 7.869-20.851 9.67-8.771-2.394-7.671-5.233-13.567-7.575-5.465-2.171-14.946 1.23-20.437-6.275-.898-8.858 14.737-13.751 21.496-16.005a339 339 0 0 1 2.977-7.035c1.844-4.193 2.43-6.098 6.979-7.876 7.599-.612 14.208 8.447 22.993 12.791l.967.467c6.861-7.623 9.993-10.673 18.648-15.62"/><path d="M299.376 727.313a9.478 9.478 0 0 1 6.148 17.904 9.47 9.47 0 0 1-9.624-1.549 9.476 9.476 0 0 1 3.476-16.355m49.267-.152c12.35 5.426 10.316 13.903-1.059 18.704-13.949-3.565-13.261-16.48 1.059-18.704"/><path fill="#fefefe" d="M437.347 707.777c12.816.545 13.261 12.261 23.572 13.902 7.51 1.195 14.144-15.009 24.315-13.841 4.092 2.108 5.91 8.869 7.606 13.045 4.21 10.364 21.129 5.243 25.605 15.435-6.452 11.495-17.421 5.376-26.452 13.189l-.782.685c-7.774 8.259-19.646-.769-26.857-5.17-20.604 4.574-22.305 17.946-40.451.204-5.963-.816-16.731-1.847-18.932-8.063 3.883-5.816 17.544-7.512 21.775-11.408 5.162-4.754 4.581-11.604 10.601-17.978"/><path d="M435.105 727.451a9.522 9.522 0 1 1 8.894 16.838 9.522 9.522 0 0 1-8.894-16.838m50.798-2.047c10.747 1.723 9.11 15.102-3.684 18.673-13.678-5.419-9.827-17.487 3.684-18.673"/><path fill="#fefefe" d="M1567.46 709.829c17.03-.302 14.66 27.5 43.84-.485 8.77 6.004 8.98 7.633 14.12 15.819.11.178 11.86 4.013 15.3 7.437.63 1.541 1.33 2.543.81 3.864-2.66 12.821-15.95 7.543-18.46 9.183-10.02 6.539-5.29 6.485-19.66 6.786l-1.19.138c-13.46-10.406-15.66-13.564-26.86-1.655-7.76 8.261-20.92-2.278-27.91-5.599-5.54-2.634-10.01 3.73-16.5-5.617-1.43-11.895 18.14-16.133 27.08-18.324 1.02-.249 7.11-9.214 9.43-11.547"/><path d="M1558.18 724.344c.91.543 1.15.605 1.6 1.2 5.95 7.892 12.53 2.162 20.31 4.007 1.36.321 1.14.718 1.85 2.273-.83 3.416-2.84 5.056-5.27 7.554-6.41 2.753-16.78 3.616-22.33-1.25-1.59-3.311-1.29-1.831-.84-5.771 2.73-2.759 3.05-3.415 4.36-7.082zm52.88-2.14c1.89.515 2.22.895 3.74 2.039.47 2.668.65 3.094 1.87 5.52l3.76-.176c2.6 2.033 1.78.947 2.89 4.42-2.27 6.031-8.49 6.82-14.29 6.531-4.93-.349-10.2-3.502-11.06-8.617 2.56-2.853 5.87 1.965 11.4.437.46-3.4 1.03-6.787 1.69-10.154"/><path fill="#fefefe" d="m1461.28 973.32 19.41.27-1.67 153.17c-2.89 1.44-15.11.81-19.03.76zM963.204 483.424c17.323 1 38.616.609 56.236.738.64 6.58.47 17.4.57 24.296-12.51 2.354-22.681 6.496-32.15 15.174-18.279 2.819-27.01 4.854-41.402 16.745 6.249-18.304 9.252-39.04 16.746-56.953m-92.043-136.431q45.917.318 91.836.173c14.128 0 28.441-.096 42.563.14 3.02.05 2.28-.106 4.01 1.817-.11 4.286-4.04 4.771-7.83 4.85-11.645.243-23.266-.237-34.945-.198q-44.588.19-89.174-.067c-.767 14.719-.472 53.481.319 68.487 2.289 1.734 2.528 1.187 5.81 1.281 12.341.033 120.59-1.312 124.82 1.35.35 2.174.6 2.626-.4 4.612-2.64 1.241-124.173 1.192-136.847 1.273-.799-26.638-.138-56.805-.162-83.718m168.509.436c32.2-.233 64.41-.213 96.62.058 8.63.055 38.74-2.366 43.81 3.149l-.51 1.885c-3.78 2.338-28.56 1.42-34.41 1.419l-100.33-.043c-.01 8.602-1.07 66.175 1.44 69.637l3.46.244 86.72-.206c8.17-.025 36.16-1.942 41.56 1.556 1.36 2.724 1.32 1.644.55 4.125-3.81 1.981-125.75.92-139.69.889.09-11.383-1.4-76.476.78-82.713m-10.3 136.584 57.54-.16c2.75 11.603 16.68 52.421 16.78 60.271-2.6-.093-5.19-.23-7.79-.41-3.57-2.041-6.61-9.549-10.14-13.139-16.91-17.188-33.87-21.976-56.52-22.99.51-8.761.47-14.784.13-23.572M517.987 668.705c9.528.489 12.057 8.173 17.68 9.627 10.936 2.827 10.165-14.779 26.489-8.408 3.618 2.672 2.389 6.501 4.217 10.119 3.692 7.313 18.243 4.03 22.223 11.262-2.203 2.871-16.48 7.184-22.343 12.807l-.743.725c-10.264 4.962-15.78-1.44-25.422-5.687-4.118 1.567-8.304 3.997-12.431 5.439-11.49 4.014-14.191-3.767-22.068-7.421-4.389.206-8.938.628-11.797-3.381 1.185-6.92 12.151-9.673 17.446-12.22 1.236-.594 4.724-9.604 6.749-12.862"/><path d="M556.173 682.217a8.323 8.323 0 0 1 10.568 4.661 8.323 8.323 0 1 1-10.568-4.661m-36.752-.792a8.257 8.257 0 0 1 9.894 5.45 8.255 8.255 0 0 1-13.245 8.803 8.256 8.256 0 0 1 3.351-14.253"/><path fill="#fefefe" d="M1496.29 666.402c8.05 1.566 9.79 10.107 18.1 12.638 11.18 3.406 12.14-7.638 18.92-11.515 4.67.317 8.78 5.491 9.26 10.029-3.21 6.856-13.61 5.874-18.61 10.806l.2 2.008c2.54 3.217 6.75 4.687 10.55 6.409 11.42-4.129 11.73-5.463 11.54-17.27l1.56-1.342c3.64-.216 5.49.518 8.93 1.503 5.14 4.172 4.13 8.503 1.51 13.796l-2.5-.033c-3.21-.195-5.81-.675-8.6.957-1.11 4.808.91 5.555-1.79 10.983-8.63 6.399-22.6-4.396-29.23-10.285-12.18 8.623-20.87 18.544-32.82 2.663-7.15 1.556-13.91 3.638-17.03-4.722 1.32-8.888 8.02-9.541 15.32-11.192 4.98-5.114 9.62-10.33 14.69-15.433"/><path d="M1488.6 679.541c8.21 7.788 14.74 2.413 18.86 8.552-.77 3.804-.62 2.722-4.21 5.741-12.17 4.416-24.91-.952-14.65-14.293"/><path fill="#fefefe" d="M445.255 665.984c14.67 1.71 6.304 9.158 13.345 13.126 5.966 3.363 8.126 1.736 16.43 7.794-7.527 5.143-14.504 7.545-22.822 10.982-3.668-1.647-7.474-2.918-11.265-4.261-10.181 3.423-9.77 1.873-20.229 1.163-2.264-.154-3.552 1.392-4.752 3.091.048 3.24.448 5.174-1.265 7.854-2.644 2.131-5.997 2.312-9.374 2.845-5.864-.902-7.532-3.995-12.624-5.845-3.565-1.295-7.207.485-11.277-1.707-3.323-11.064 10.611-12.315 16.054-19.835 2.567-3.548 3.927-11.168 8.025-13.141 8.272.682 12.933 6.778 19.89 12.252 6.892-6.911 10.921-10.325 19.864-14.318"/><path d="M403.012 683.383a8.907 8.907 0 0 1 11.496 4.952 8.907 8.907 0 1 1-11.496-4.952m44.033-5.774c12.07 1.33 14.656 8.691 5.177 16.557-3.968-.279-6.59-.093-9.779-2.435-4.019-6.514-.291-9.663 4.602-14.122"/><path fill="#fefefe" d="M1605.97 665.815c4.67 1.1 5.02 4.725 10.46 8.475 14.43 9.96 17.52-5.652 25.61-7.225 8.79 4.043 7 10.248 10.92 17.57 2.46 3.285 9.49 3.767 11.87 6.843 3.35 4.338 2.4 10.887-1.22 14.636-3.3 1.032-9.02-.774-12.92-1.494-3.38 1.728-4.05 2.01-7.8 2.982-10.75-13.783-8.34-5.001-22.94-10.57-1.54-.586-2.81-5.912-8.21-7.61-5.58.867-11.27 6.572-15.13 10.399-7.16-7.151-14.2-7.681-16.51-12.602.7-3.434.15-2.151 3.37-5.071 1.84.168 3.32.335 5.15.623.46-2.315.73-4.229 1.03-6.572 2.3-2.765 11.38-6.664 16.32-10.384"/><path d="M1631.1 684.292c6.52 1.564 18.54.23 19.78 6.479-.92 3.673-1.3 4.061-3.83 6.828-7.52 1.019-14.58 2.022-18.65-5.666-.35-3.538.79-4.717 2.7-7.641m-33.62-6.413c4.69.275 6.77.216 9.04 4.613-.9 4.106-.93 3.168-4 6.646-4.44-.214-8.95.36-10.98-4.038 1.51-4.347 2.01-3.74 5.94-7.221"/><path fill="#fefefe" d="M587.576 618.693c15.244 5.437 11.378 18.798 30.227 1.175 3.997.334 8.465.975 12.49 1.458 2.23 15.071 10.502 14.292 23.487 17.286-5.907 3.052-19.459 9.477-23.667 13.605-7.641 9.333-15.876-3.23-23.44-2.135-17.09 2.476-15.971 10.581-31.199-2.768-4.539.429-6.192 1.314-9.624-1.83.475-8.429 16.734-16.728 21.726-26.791"/><path d="M585.152 633.781a7.674 7.674 0 1 1 9.128 12.338 7.674 7.674 0 0 1-9.128-12.338m37.236-1.725a7.644 7.644 0 0 1 3.466 14.864 7.642 7.642 0 1 1-3.466-14.864"/><path fill="#fefefe" d="M523.743 618.02c11.434.201 12.143.721 15.047 11.498 4.222 1.496 12.002 3.265 12.739 7.965-3.576 3.707-10.443 4.77-14.575 7.32-2.133 1.316-7.324 5.658-9.434 7.345-10.934-4.985-13.723-10.457-24.914-.449-3.503 3.133-7.665 3.372-12.193 3.409-3.583-1.644-8.36-4.906-11.808-7.103-3.722.096-7.331.947-10.884.198-2.05-3.384-1.809-1.965-1.365-5.404 3.715-5.09 10.581-7.434 14.087-11.021 2.44-2.497.984-7.643 6.728-11.269 5.806-.641 7.036.526 10.43 5.181 8.904 12.21 18.914-3.615 26.142-7.67"/><path d="M489.126 632.651a8.068 8.068 0 1 1 5.806 15.055 8.068 8.068 0 0 1-5.806-15.055m41.435-2.922c3.365.571 3.711 1.019 6.145 3.469 2.353 6.992-1.275 9.556-6.998 12.38-3.12-.861-3.523-1.302-6.008-3.424-3.19-7.276.659-9.542 6.861-12.425"/><path fill="#fefefe" d="M1426.96 618.115c4.8 1.885 8.64 8.384 15.43 9.631 6 1.1 11.7-3.233 16.65-6.3 2.62 5.127 5.8 10.443 8.67 15.469 4.26.122 10.07-.023 13.15 3.117 1.03 3.676 1.1 2.221.05 5.608-3.82 2.822-9.58 1.624-11.61 3.119-8.36 6.176-4.17 6.863-15.37 8.794-1.02.31-2.3.335-3.39.428-5.3-2.966-3.11-8.912-9.92-10.963-3.62.643-6.68 3.925-9.57 6.453-12.37 2.18-8.41-2.34-16.47-6.81-2.06-1.14-7.01 1.559-11.02-1.187-1.96-2.348-1.88-2.908-1.98-6.013 2.6-7.131 12.8-6.933 16.34-10.384 3.53-3.427 1.3-6.349 9.04-10.962"/><path d="M1451.1 636.491c2.44-.601 7.29.265 9.74.898 2.61 2.52 1.94 1.239 2.54 4.825-.81 3.142-3.01 4.375-5.55 6.358-4.78.037-8.71-2.126-12.21-5.248-.95-3.11-.97-1.826 0-4.855zm-32.52-4.941c5.13 2.002 12.98 2.345 16.37 4.984.74 3.438.26 2.861-1.41 6.708-9.48 2.476-20.8.721-14.96-11.692"/><path fill="#fefefe" d="M1527.96 615.861c1.98 1.237 4.11 4.79 6.41 6.505 13.12 9.762 18.67 3.194 26.54-7.309 7.25 10.754 6.08 18.783 18.7 22.836 4.07 1.307 3.8 9.621 1.25 12.644-3.96-.704-6.48-1.774-10.22-3.192-2.75 1.909-5.8 3.526-8.73 5.161-10.72-1.416-14.07 0-18.76-10.622-11.12 1.303-10.68 1.537-18.95 8.76-5.93-3.835-11.7-7.282-18.77-8.661l-.82-.153-.61-1.403c.38-8.451 2.25-10.15 10.11-13.058 2.53 2.715-1.26 6.947 2.07 11.344 6.07 4.858 17.91 2.702 16.92-4.802-4.74-4.491-13.11-1.973-15.58-8.116 2.01-5.14 5.87-7.012 10.44-9.934"/><path d="M1556.74 631.652c5.07 4.707 12.34.948 13.91 8.052-1.54 3.543-2.66 4.047-5.76 6.159-12.14.672-23.33-7.143-8.15-14.211"/><path fill="#fefefe" d="M597.114 574.727c6.774 2.177 7.099 3.187 11.095 9.15l9.409 3.74c2.328 5.835 9.084 17.49 9.964 22.262l-4.249-.25c-4.378-3.188-2.187-5.188-5.036-8.948-7.13-9.41-14.116 1.809-19.025 5.826-5.976.021-11.422-5.882-18.893-6.49-2.65 2.106-4.508 5.248-6.815 8.096-6.07-.488-25.622-3.56-26.852-10.371 2.655-3.854 3.069-3.085 8.115-5.262 14.872-32.985 15.059 8.81 33.527-10.548 2.343-2.455 5.189-4.679 7.913-6.61z"/><path d="M566.932 589.956c11.173 3.881 7.393 10.826-.802 15.365-12.043-4.875-9.305-10.707.802-15.365m31.072-4.391c3.362.205 3.759.31 6.726 1.899 4.149 6.055.501 8.829-4.305 12.99-4.677-.994-6.682-1.021-8.001-5.874.539-3.713 3.118-6.101 5.58-9.015"/><path fill="#fefefe" d="M1373.56 577.308c5.9 2.131 7.03 8.434 13.5 9.878 5.54 1.234 6.66-2.951 11.97-6.156 9.36-.337 5.51 7.449 10.69 11.213 3.96 2.879 8.83-.598 11.79 7.48l-1.18 2.379c-6.21 4.596-15.48 5.462-23.14 6.772-8.58.633-5.17-.542-9.73-5.129-4.73-4.766-11.41 4.914-16.63 4.999-5.74.093-5.95-2.489-10.26-5.557-3.91-.796-9.18-.905-12.87-4.029l.24-1.837c4.73-4.8 10.16-5.493 14.34-8.696 4.73-3.626 4.22-6.717 11.28-11.317"/><path d="m1373.26 590.741 1.15-.279c4.61 1.638 3.05.482 5.97 4.284l-.84 3.114c-2.15 2.581-4.84 3.067-8.03 4.05-3.69-.438-6.34-1.576-8.77-4.375-.64-3.095-.79-1.779 1.09-5.06 2.74-2.13 5.77-1.67 9.43-1.734m24.82 1.749c3.07-.31 5.47.111 8.13 1.615 3.73 6.232-.76 8.478-5.81 11.082-3.97-2.179-8.07-3.823-9.8-7.751l1.15-2.391c2.33-1.162 3.87-1.701 6.33-2.555"/><path fill="#fefefe" d="m1029.29 446.204 43.69-.019c3.32 9.066 6.19 17.106 8.94 26.347l-.99 1.48c-17.03.316-34.47.231-51.53.337zm-52.696-.041 43.396-.048c-.3 9.647 1.88 18.954-1.19 26.555-3.32 2.443-3.41 1.598-8.45 1.637l-44.254-.255q5.353-13.906 10.498-27.889m473.676 128.982c11.93 1.531 15 22.473 31.47-.748 1.45 1.273 17.18 16.892 17.37 17.427.55 1.548.1 5.37.47 7.312 2.49 2.685 9.74 4.944 13.48 6.369-.32 1.664-.46 1.296-2.08 2.68-5.89 1.426-10.33.638-12.33-5.211-1.41-2.774-5.16-3.785-7.88-4.67-3.23-1.049-6.4 6.028-9.29 7.35-9.9 4.539-11.5-7.036-17.99-8.571-8.73.462-7.18 12.654-21.48-.687-1.91-1.79-6.76-2.28-8.78-5.588 7.87-8.064 8.32-4.961 17.04-15.663"/><path d="M1474.25 585.41c5.57 4.611 12.9-.03 15.83 6.26-.63 3.144-2.4 4.438-4.66 6.665-6.15 2.589-12.36 1.52-14.72-5.252.01-3.266 1.68-5.024 3.55-7.673m-31.01.247c4.42.333 9.67.634 12.9 3.715 1.42 3.637.96 2.72.24 6.998-5.32.592-8.1 1.368-12.28-1.804-1.78-2.901-1.18-5.533-.86-8.909"/><path fill="#fefefe" d="M675.267 577.85c10.02-.267 13.026 9.987 28.387 15.815-7.96 3.496-15.872 6.64-23.699 10.772-4.974 2.625-9.474-.119-14.266-2.48-4.062 1.92-8.968 4.866-12.964 7.115-5.64.48-20.321-4.254-21.28-10.656l11.053-9.335c1.025-3.429 1.168-3.881 3.651-6.433 6.412-1.912 8.946 2.601 16.793 6.605 4.433-5.357 6.185-8.074 12.325-11.403"/><path d="M647.801 590.776c9.493-.038 11.63 7.301 5.348 14.15-5.711-.773-9.747-1.066-10.983-7.228 1.087-3.778 2.599-4.557 5.635-6.922m29.28-3.866c3.112-.357 3.88-.564 6.852.318 3.047 2.686 2.229 1.307 3.169 5.16-.522 3.697-1.546 4.348-4.157 6.866-3.069.216-3.933-.051-6.96-.711-3.037-2.545-2.28-1.226-3.027-4.882.728-3.412 1.816-4.253 4.123-6.751"/><path fill="#fefefe" d="M1007.49 915.437c8.85-1.172 56.28-.367 59.86 7.293-4.08 5.265-24.53 6.536-31.16 7.214-10.77.12-57.675 1.162-62.904-7.544 5.283-4.892 27.054-6.409 34.204-6.963m-80.332-431.418 24.875-.473c-5.152 15.466-9.826 34.81-14.095 50.811-.783 3.78-.982 5.12-2.605 8.667-2.361 1.472-6.709.803-8.788-.88-.966-6.582.578-47.618.613-58.125M1097.23 484l24.33.127c.58 18.435.24 41.195-.08 59.624-2.39.388-3.15.201-5.59-.062-4.19-4.126-16.58-51.998-18.66-59.689m-377.829 60.669c14.343-.191 6.344 2.436 17.233 10.881l.804.613c3.403 9.165-15.903 17.239-22.59 11.484-1.219-1.049-9.684 3.104-11.762 3.864-1.378-.003-4.304-.133-5.074-.576-12.311-7.074-19.138-7.176-3.926-17.396l2.24-5.969c8.247-3.574 6.123 5.811 15.301 5.671 3.474-1.579 5.529-5.333 7.774-8.572"/><path d="M699.342 555.206a6.365 6.365 0 1 1 4.718 11.823 6.365 6.365 0 0 1-4.718-11.823m24.443-2.613c1.114.158 3.117.706 4.293.986 2.853 2.636 2.193 1.329 2.762 4.844-1.096 3.808-2.025 4.361-4.917 6.865-4.745-.955-6.393-.769-7.534-5.683.888-3.549 2.673-4.647 5.396-7.012"/><path fill="#fefefe" d="m933.985 446.048 32.183-.028c-3.593 9.789-6.922 18.39-11.041 27.96-8.64-.142-21.964 3.048-27.42-3.012-1.085-4.071-1.532-4.99-3.473-8.715 3.583-5.439 6.524-10.571 9.751-16.205M1136.86 760.2c6.44-.451 15.93-.188 22.61-.189 6.51 24.954 14.19 49.603 20.54 74.857-4.83-6.076-12.62-21.066-16.7-28.359zm-53.79-314.09c9.76-.08 19.76.099 29.54.158 3.2 6.231 5.33 9.787 9.21 15.635-.43 2.852-.28 8.939-.29 12.086-7.33.639-19.92.247-27.64.231-3.14-9.116-7.49-18.654-10.82-28.11m-262.47.07c13.11 1.434 48.569.551 63.422.52-3.33 3.698-9.292 10.772-13.15 13.236-7.898-.025-58.67.32-62.991-2.697.402-1.336 10.805-9.394 12.719-11.059m212.22 243.215c.38-.04 2.44-.026 2.56.413 2.01 7.714 3.58 12.241 8.25 18.852-14.49 5.11-19.11 6.526-34.16 4.018-3.86-.973-5.51-1.194-8.88-3.368-3.091-5.919 1.85-9.154 4.06-19.383 12.08 1.758 16.22 1.419 28.17-.532m292.52-143.054c9.76 2.157 11.88 15.532 22.7 2.084 2.7-.713 1.63-.643 4.6.501 2.75 6.059 2 4.586 8.03 7.802 3.59 1.915 7.36 3.097 8.07 7.338-1.33 2.05-18.78 10.242-21.87 7.776-3-2.404-5.71-5.114-9.96-6.283-2.53 4.184-3.03 6.026-8.04 6.845-3.98-2.028-5.29-3.743-8.59-5.482-3.45-1.815-5.87.038-9.49-3.2.75-4.496 3.99-6.21 7.96-7.105 3.12 1.732 1.69 2.647 3.63 7.652 5.2 3.252 8.36 1.36 12.77-2.467-1.25-3.818-9.89-3.233-12.68-8.221-.34-3.124 1.09-4.52 2.87-7.24"/><path d="M1344.09 558.008c5.57-.174 8.57-.708 12.4 3.696.17 2.713.16 3.044-1.11 5.437-4.2.666-8.55 1.213-11.76-2.223-.99-3.958-.77-2.683.47-6.91"/><path fill="#fefefe" d="M1203.93 445.32q10.215.208 20.43.544c3.04 5.113 5.4 8.093 9.02 12.709-10.71-.541-22.25-.334-33.03-.334l-24.33-.07c-2.65-3.25-5.91-8.446-8.33-12.05 11.44.085 25.05.571 36.24-.799m-446.17 76.386c2.752-.16 3.084-.045 5.625 1.042 5.184 10.151 10.154 6.075 14.016 11.495-2.904 3.371-9.619 3.689-13.319 8.095-2.282 2.718-10.824-1.545-13.867-2.245-11.756.762-12.164.412-21.916-6.322 6.082-4.574 8.115-6.963 13.135-12.604 2.915 2.25 4.464 3.613 7.863 5.094 4.513-.623 4.3-1.446 8.463-4.555"/><path d="M758.917 528.307a4.109 4.109 0 1 1 2.918 7.682 4.109 4.109 0 0 1-2.918-7.682"/><path fill="#fefefe" d="M1092.23 948.534c3.41 1.749 7.05 3.106 7.94 7.002-1.78 6.209-14.33 28.737-19.33 33.019-3.26.064-2.02.456-4.67-1.518l-.31-3.424c-.07-.789-.65-1.496-1.12-2.308-1.5-.321-2.55-.538-4.09-.663l-1.14-.086c2.06-3.504 3.54-5.489 3.07-9.179-1.66-1.424-2.83-1.208-5.13-1.338l-.92-.048c-.24-3.589 15.65-9.839 18.77-12.566 3.34-2.924 4.62-5.138 6.93-8.891m197.97-427.938c4.28 1.781 5.07 6.533 10.43 7.66 4.97-.931 3.67-1.713 8.43-5.288 5.14 1.089 3.09 4.079 8 5.991 3.2 1.244 7.92 2.545 9.87 5.449-11.35 1.674-9.85 14.475-23.87 6.257-4.12.213-2.87.097-6.62 2.644-6.73 3.93-19.67-3.494-20.36-9.633l1.67-1.902c3.13-1.142 3.03-1.677 5.95-1.002 2.38 10.547 12.26 10.717 14.44 4.328l-1.43-2.818c-3.11-2.399-5.15-2.459-9.02-3.112l-.93-1.63c.15-3.262 1.45-4.425 3.44-6.944"/><path d="M1308.98 529.605c4.59 1.418 6.2 1.104 8.72 4.278-1.08 3.676-1.68 3.364-4.75 6.447-3.55 1.085-4.73-.025-6.48-2.679-.41-3.928.45-4.814 2.51-8.046"/><path fill="#fefefe" d="M1097.79 553.981c3.35-.09 4.48.017 7.77.458 2.46 2.337 19.4 70.672 20.7 77.978-3.8-5.577-8.15-23.072-11.25-30.355-7.55-17.771-16.27-28.436-17.22-48.081M959.622 946.633c4.548 2.868 17.821 14.499 22.931 18.722l-.075 1.435c-2.589.889-7.7-.159-11.496.086-1.397 2.279-.822 3.482-.712 6.543l.103.676c-4.8.231-4.735 1.369-5.565 5.499l-.957-.413c-3.541-7.392-8.996-15.923-13.318-23.069zm285.828-501.33c9.96-.21 30.95-1.573 39.51 1.635 2.03 2.56 1.74 1.424 1.61 4.283-1.72 2.807-3.1 3.264-5.96 4.757-10.48.207-20.95.072-31.48.274-2.59-2.764-8.37-6.684-7.65-10.355zm-483.242.845q21.474.361 42.95.258c-2.075 2.137-5.073 4.252-7.484 6.094l-9.357 6.188-25.646.237zm361.132-.089 32.84.056c2.5 3.538 4.98 8.083 7.19 11.887l-30.92.54c-3.13-3.766-6.26-8.437-9.11-12.483m135.14 56.288c2.95.554 3.84 3.855 6.09 5.355 6.07 4.052 8.25-3.779 13.74-4.483 2.04 2.434 2.48 2.951 5.07 4.774 2.49.168 2.94.087 5.19 1.053l.16 1.723-1.59 1.444c-3.13.65-9.26-3.104-14.47-3.579-3.07 4.866-.77 4.299.16 9.671-5.68-.739-8.14.721-13.33 2.955-3.38.146-5.62-2.315-8.27-4.513-2.12.521-2.17.68-4.36.161-.74-5.705 6.28-5.746 11.05-13.62z"/><path d="M1253.85 509.886c3.14-.202 5.76-.652 8.61.717 1.87 3.205 1.41 1.771 1.07 6.167-3.22.399-4.5.753-7.65-.347-2.24-2.957-1.58-2.388-2.03-6.537"/><path fill="#fefefe" d="m896.464 446.122 26.845-.075c-4.065 6.042-5.671 8.378-10.781 13.68l-26.6.295c2.54-4.056 7.466-9.975 10.536-13.9m507.556 104.35c7.85.199 5.61 4.308 11.3 6.862 6.49 2.911 6.03-3.277 10.64-4.887 2.99 1.788 2.84 3.315 4.5 7.096 2.38 2.418 8.07 3.002 11.62 3.677l.17 1.012c-5.1 3.655-5.99 5.116-12.02 2.882-2.87-2.76-3.67-3.797-7.57-4.576-6.34 1.696-5.33 6.495-11.22 5.994.05-3.026-.09-3.608-.87-6.546-7.36-5.941-9.4 2.453-15.19 2.074 1.05-2.534 6.38-8.808 8.64-13.588m-613.728-50.926c3.147.174 5.073-.002 7.845 1.484l.176 1.394c-2.506 2.161-4.015 3.009-5.001 6.13.972 2.651.421 1.715 2.757 3.595 5.84-.152 7.491-6.266 12.323-5.259 1.379 3.356 1.305 1.966.497 5.269-4.692 4.703-11.703 6.277-17.502 2.875-9.651 2.575-12.455.809-22.002-1.822-2.141-2.145-1.655-1.053-1.81-4.093 1.393-2.907 1.839-3.108 4.689-4.684 3.302 3.839 4.596 6.357 9.869 6.138 3.606-2.176 5.965-7.232 8.159-11.027m-170.893 52.713c3.967 1.06 7.435 6.373 11.566 6.775 6.592.642 8.611-6.049 15.184-5.631 2.217 1.828 2.404 1.871 3.1 4.537-1.815 1.783-3.973 1.722-6.852 2.366-2.635 1.994-3.285 4.485-4.612 7.602-2.376.991-4.279 1.581-6.709 2.346l-.414.809c-.304-5.342-.736-6.459-5.268-9.801-5.743-.775-7.47 3.934-8.973 8.759l-.274.9-1.73.098c-2.762-2.767-4.735-3.779-8.07-5.771 7.132-4.235 9.339-5.635 13.052-12.989m866.691 183.824c6.64-.038 34.1-.807 38.41 2.379l-.76 5.872c-10.34-1.3-27.68 3.784-36.52-1.128-1.82-3.066-1.19-3.023-1.13-7.123m-67.17-56.082c7.61.216 35.08-1.284 39.87 1.456 0 2.594.4 1.442-1.36 3.513-7.92 3.661-29.16 4.752-37.07 2.548-1.9-3.062-1.27-3.384-1.44-7.517M890.156 760.73c2.922-.04 8.715-.41 10.559 1.308-6.559 13.745-13.986 27.887-20.91 41.515-1.125 2.565-3.808 6.441-5.428 8.947 5.849-17.056 10.747-34.452 15.779-51.77m222.654 82.874c3.56 4.863 8.11 15.538 10.84 21.447-2.37 4.512-6.02 9.96-8.8 14.36-.82 1.329-1.84 2.156-2.98 3.229l-1.07-.982c-.63-3.291 1.54-32.268 2.01-38.054m219.67-340.944c5.37 1.844 2.7 5.262 8.49 7.237 3.92-.245 6.37-3.067 9.69-5.815l1.67.35c2.85 2.665 8.61 8.554 8.79 12.451l-1.6.426c-3.59-1.01-4.18-1.67-6.78-4.273l-.73-.736c-8.48.578-6.67 5.279-14.05 3.942-1.23-2.105-1.73-2.842-3.31-4.701-5.05-1.089-6.61.002-9.2 3.808l-3.31.25-.8-1.078c1.27-2.85 7.82-8.028 11.14-11.861M543.456 730.922c9.472-.067 16.046 5.548 26.123 7.397-3.26 1.255-6.995 2.436-10.337 3.573-9.759.718-16.295 1.113-25.968-.112 5.411-3.66 7.371-5.003 10.182-10.858m68.82-54.046c9.704 4.799 12.262 6.411 22.617 8.205-4.241 1.44-9.287 2.654-13.668 3.823-5.32.451-17.106.755-21.483-1.86.691-2.828 9.351-7.672 12.534-10.168m213.819-198.783c2.482 1.383 2.981 1.485 4.673 3.668l-.655 1.731c-14.45 10.32-16.471 2.764-23.51 3.249-8.157 5.849-4.98.136-18.372-1.095-2.37-2.17-2.09-1.302-2.832-3.998 5.282-3.901 6.712 3.63 13.593 4.523 3.477-.265 5.731-3.071 8.308-5.53 5.047-.603 5.718 2.38 11.443 2.967 3.987-1.36 4.588-2.373 7.352-5.515m-112.43 26.441c8.125 4.412-.658 5.311 14.488 6.468l1.351 1.744c-1.409 2.232-4.042 3.039-6.5 3.868-4.964 1.672-3.225-1.83-7.859-3.148-3.696.716-6.363 2.474-9.647 4.307l-.227.232c-2.772.396-1.839-2.714-6.241-5.946-2.985.404-3.575.502-6.535.032-.728-2.392-.544-1.561.864-4.525 3.767-.768 6.766 2.354 13.056 3.223 4.326-1.573 3.829-2.231 7.25-6.255m654.415 24.146c2.95 2.266 6.44 7.123 8.87 10.226.74-.876 1.48-1.745 2.23-2.607 3.19-3.639 3.34-3.799 7.49-4.056 3.05 1.569 6.36 5.791 6.81 9.104l-1.83.701c-13.37-3.393-12.48 6.618-19.71-2.555-.53-.682-4.1.369-6.81-2.838.15-3.362 1.37-5.065 2.95-7.975m-685.184.719c2.913 1.475 5.511 2.284 6.903 5.05-6.045 2.574-11.066 6.971-18.262 9.629-3.236-.919-5.649-4.219-8.098-6.836-3.498.259-3.682.832-6.496-.651l-.406-2.022c6.374-8.268 10.428 2.275 16.084 2.048 3.972-.158 7.621-4.509 10.275-7.218m246.662 317.299c.485 1.527-.78 32.872-1.066 33.304-2.889-.517-3.035-1.665-5.418-4.305-1.558-1.765-3.832-4.824-5.356-6.755 3.776-6.316 8.231-15.491 11.84-22.244M1229.4 478.877c1.09 1.081 3.07 4.315 4.35 5.284 6.5 4.879 9.06-1.9 13.93-.987 1.75 2.647 3.22 4.176 3.19 7.258l-1.38.642c-1.55-.932-2.64-1.76-4.08-2.829l-1.41 1.093c-7.67 4.7-7.99 3.08-14.39-1.793-3.65-.476-3.06.989-7.65 3.443-2.84-.673-1.94-.041-3.65-2.146 1.92-3.031 6.04-2.627 11.09-9.965m136.66 153.112c5.9-.088 20.77-1.051 25.59 1.846 1.34.802 1.26 2.655 1.63 4.512-7 .25-18.87 2.52-25.28-.299-1.66-.728-1.61-3.871-1.94-6.059m-695.599-6.008c.973.271 6.883 3.853 8.448 4.552 4.326 1.932 8.093 3 12.63 4.258-3.58.754-9.082 1.307-12.845 1.802-3.407.519-15.552-.086-18.387-1.981 1.083-2.142 7.093-5.868 10.154-8.631m624.969-141.26c2.47 1.75 2.16 2.28 3.55 5.264 6.86 3.406 4.85-1.277 10.94-2.823 3.14 2.263 8.04 5.807 8.15 10.01l-1.75.684c-4.11-1.57-2.82-.905-5.6-4.951l-.83-.745c-4.96 1.94-2.86 3.271-7.91 3.554-2.01-2.011-2.33-2.355-4.9-3.549-6.61.497-2.05 2.22-6.53 3.931-2.11-2.574-1.66-1.344-1.72-4.612 1.74.625 1.61.62 3.4.18 1.02-2.336 2.09-4.65 3.2-6.943m-556.733 5.421c13.101 10.716 11.185-3.628 21.601 3.456l-.044 2.165c-2.543 2.848-1.616 2.008-5.938 2.862-1.002 0-2.879.985-3.824 1.479l-.989.522c-10.802-5.424-5.715-2.768-16.401-4.329.666-2.609 3.194-4.032 5.595-6.155m529.453-23.722c1.62.756 4.06 3.231 5.49 4.537 3.43.717 7.5-1.725 11.82-2.757 3.07 1.094 1.97.32 4.03 3.333-2.32 2.074-2.56 1.328-6.48 1.219l-2.78 2.904c-8.5 2.614-7.23-3.619-13.28-3.141-1.19 1.693-1.52 2.525-3.44 3.311l-2.23-1.093.26-1.32c3.32-2.068 3.82-2.887 6-6.082zm218.52 172.997c4.68.372 8.48 2.386 10.34 7.162 1.18 3.05-.47 4.443-2.06 7.034-6.73 1.969-12.12-6.21-8.28-14.196m-163.83-49.316c4.94-.071 12.46-1.216 16.98.534 1.97.766 2.1 2.833 2.84 5.109-4.77.141-13.44 1.242-17.77-.692-1.65-.737-1.61-2.916-2.05-4.951M758.169 469.133c7.108.574 10.359-.169 18.183 1.309l-1.342 1.794-.9 4.54-1.197.599c-8.976-1.729-9.259.864-14.744-8.242m-1.052 91.113c3.158 1.358 12.361 4.859 13.883 7.212l-3.228 1.046a290 290 0 0 1-5.086.574c-3.855.395-6.328.858-9.245-1.518.007-3.693.967-3.647 3.676-7.314m-35.676 28.365c4.368 2.059 7.575 3.573 11.678 6.087l.11 1.472-2.157.606c-4.127.456-10.65 2.072-13.409-1.151.13-3.013 1.842-4.549 3.778-7.014m564.689-26.661c5.05-.101 12.43-.943 16.25 2.101l-.11 3.013c-3.92.792-10.05 1.802-13.78.596-2.7-2.256-1.9-1.017-2.36-5.71m-76.21-61.233c4.65 1.028 12.04.558 14.7 2.915l.15 3.051c-3.88.335-8.75 1.067-12.4.064-2.82-2.419-2.01-1.432-2.45-6.03m45.08 34.546c3.44.363 7.04.212 9.69 2.134-.35 2.427-.29 1.682-2.81 3.755-3.73.128-8.06.645-10.66-2.359 1.34-2.558.98-1.787 3.78-3.53m254.52 181.666c5.87.432 11.32-1.292 13.36 4.656-3.73.492-7.27 1.227-10.94.495-2.66-2.222-1.91-.97-2.42-5.151M791.394 533.415c2.205.945 8.66 5.224 9.75 7.643-3.684.922-6.083 1.114-9.23-.495-1.434-2.728-.926-4.048-.52-7.148M552.113 645.461c1.179.179 2.584.588 3.764.887 2.584 2.497 3.822 6.729 5.161 10.201-5.497-1.134-9.046-5.425-8.925-11.088"/><path d="M1525.7 1152c-6.5-11.71-29.21-43.77-27.09-53.66 2.05-2.23.98-1.6 4.43-2.02 5.21 2.83 29.22 46.53 34.91 55.68zm-1016.997 0c5.498-8.78 28.678-49.17 34.242-53.51 3.383-.33 2.285-.68 5.017.72 3.162 8.04-21.114 43.76-26.658 52.79z"/></svg>