<svg xmlns="http://www.w3.org/2000/svg" preserveAspectRatio="xMidYMid meet" viewBox="0 0 2048 1462"><path d="M1855.48 71.574c8.21-.513 23.45-3.604 27.97 4.354.44 4.294.74 2.653-.84 6.403-2.88 2.295-5.27 2.377-8.92 3.082l20.16 674.641 5.75 246.866c.89 44.06 2.49 88.1 4.79 132.11.82 17.52 1.01 36.11 2.43 53.47-3.44 7.58-7.28 8.97-15.43 8.96-19.05-.02-38.52.18-57.52.33l-101.82 1.34-277.18 4.55-952.549 14.78c-1.075 23.68 4.25 62.78.949 86.35-.759 5.42-21.868 10.49-28.075 12.16l1.821 14.24c14.643 9.16 47.479 18.55 64.984 28.33 8.328 24.74 6.242 35.31-25.29 38.65-25.091 2.67-86.221 13.79-109.018 2.26-9.867-4.99 5.324-51.22 5.624-60.93.128-4.14-.211-12.03-.8-17.56-2.238-1.22-7.803-3.85-7.9-6.51-1.156-31.67-4.92-63.18-8.082-94.73-9.071-.11-18.998.25-28.135.42-3.745 25.86-3.368 53.27-6.158 79.41-2.282 21.39-14.015 8.67-14.354 25.95l.055 11.41c14.427 9.05 33.675 14.29 46.162 25.29 4.316 3.79 5.535 32.04-3.032 35.24-30.051 11.25-73.101 12.91-104.698 9.33-34.167-3.88 16.632-78.47-13.418-85.12l-1.14-.24c-3.798-4.11-2.453-21.85-2.665-28.31l-1.827-72.32c-14.346.44-77.901 3.2-87.065-1.09-4.503-9.48-3.6-69.47-3.798-83.25l-1.901-156.303-8.357-528.583-4.357-197.898-1.305-74.915c-.304-19.216-1.152-39.502.551-58.526 6.713-3.706 104.862-4.242 120.371-4.631l272.083-6.742z"/><path fill="#fefefe" d="M1804.61 88.425c5.14-.47 13.59-.37 18.98-.482 2.72 31.213 1.69 78.237 2.27 111.048l4.45 238.258c2.73 99.218 6.62 198.4 11.67 297.527 3.93 66.065 7.25 132.166 9.95 198.293 2.26 64.168-.05 129.011 3.28 193.271.78 15.07.55 47.16 2.82 60.7-47.76 1.94-99.93 1.53-148.07 2.09L1467 1193l-965.968 15.36c-.902-70.18-5.176-144.09-7.597-214.369a8959 8959 0 0 0-4.67-116.226c-1.082-23.259-2.01-51.639-4.703-74.493 7.268-.451 11.644-1.171 18.368-3.769 1.427 16.94 4.729 148.904 7.065 151.924 6.887 3.064 15.537 2.272 23.01 2.059 61.375-1.638 123.413 2.931 184.459-4.622 24.839-3.073 18.341-24.919 18.111-44.918a3739 3739 0 0 0-3.171-99.317c-.302-5.769-1.063-19.184-5.391-23.077-8.342-1.085-22.537-.081-31.353.281l-52.223 2.328c-42.756 1.945-85.899 3.389-128.623 5.973-3.735.226-7.566 1.085-11.123 2.267-1.385-6.728-3.231-13.58-5.105-20.193-11.442-40.392-20.506-80.644-29.08-121.726 9.183-6.511 18.823-11.751 28.674-17.154 3.109 26.383 2.373 55.069 4.009 81.698.675 10.993-.253 21.877.844 33.031 2.297 2.027 2.286 2.32 5.582 2.181 21.292-.897 42.652-2.657 63.976-2.875 35.601-.613 71.466 3.809 107.024 3.006 15.014-.339 55.96 5.313 55.175-17.382-1.736-50.238-3.649-100.522-6.38-150.689-.18-3.302-4.243-7.393-7.082-8.841-39.385-.162-118.925 2.591-155.511 3.759l-2.746-17.334c4.252-5.766 7.523-10.675 11.357-16.658 43.333-.09 88.122-4.437 131.474-6.544 8.904-.433 19.829-2.958 19.36-14.064-2.031-48.133-3.92-96.637-7.784-144.639-.407-5.068-7.644-9.596-11.488-12.144-41.386 3.501-83.012 3.158-124.128 5.832 1.018-8.423.601-11.218-1.367-19.468 33.603-.194 69.456-2.24 103.138-3.455 14.766-.533 17.725-3.145 26.802-13.636q.109-2.532.164-5.067c.893-41.625-4.304-85.823-5.16-127.63-.147-7.195-.736-20.84-5.813-26.136-15.072-5.831-65.326-1.265-83.369-.061-15.061 2.113-96.573 7.774-106.604 5.035-4.003-5.42-5.876-8.651-13.025-7.195-2.723 1.944-2.887 3.736-3.964 7.04l-.423 1.314c-5.834 3.072-20.135-3.628-19.326 8.954 1.715 3.335 2.786 3.754 6.004 5.799 1.145 19.761 1.017 148.514 4.681 154.083 7.54 3.065 32.435 1.662 41.903 1.492-3.666 7.092-3.835 12.721-4.492 14.923-2.63 8.826-25.681-.241-35.704 6.324-3.675 5.213 2.744 116.137 3.272 130.413-10.216 5.432-25.958 10.795-36.831 14.641-.783-28.149-2.158-56.303-3.299-84.44-.675-16.646-.808-33.461-2.009-50.068-.186-2.574-1.057-12.161-3.335-13.624-6.645-4.264-193.531 5.469-206.003 8.589-2.401.601-4.027 1.232-5.182 3.577-2.152 4.364.663 26.585.945 32.966a5434 5434 0 0 1 2.525 81.639c.236 9.874-.39 39.925 2.812 47.426 10.029 7.951 58.456-1.089 70.238-9.029l1.093-.743c-1.486-3.572-4.661-8.973-6.751-12.208-15.924-24.644-22.818-55.141-10.021-82.639 3.051-6.557 13.436-20.492 20.417-22.059 13.615-3.057 21.187-12.611 34.019-16.95 22.299-7.276 35.173 7.944 40.405 28.04.958 3.72.79 5.088-1.12 8.17-2.899.932-1.648 1.126-3.925.133-6.055-38.674-32.275-32.773-55.467-15.559-2.656 1.971-9.352 1.722-13.527 5.551-33.026 30.293-17.236 77.312 6.465 108.167-31.133 16.106-38.954 17.769-58.759 47.564-2.579.295-8.709.61-11.296.278-8.983-1.153-18.487 4.07-9.431 12.997 3.945 1.537 7.059 1.016 11.329.826-9.851 13.513-34.049 46.455-43.831 62.655-1.454 2.407 3.783 9.575 5.726 12.479-15.585 19.878-25.257 37.602-12.061 61.573 15.497 28.148 33.894 37.974 63.41 47.03-.211 2.634-.397 3.953-.913 6.542-6.462 6.871-25.371-3.425-24.39 9.174 4.014 51.507 2.5 103.682 5.733 155.17.479 7.638 16.973 4.312 22.796 3.243.632 65.455 2.28 130.865.501 196.375-.534 19.67.2 40.58-1.085 60.07-25.113.84-50.241 1.16-75.367.94 1.514-25.5-.431-63.98-.719-90.77l-2.658-197.506a32134 32134 0 0 0-6.642-427.497l-5.092-246.25a4758 4758 0 0 1-1.744-113.271c22.405-1.222 48.267-1.189 70.856-1.681l120.674-2.814 325.263-8.303z"/><path d="M1792.61 959.513c5.19-.416 11.43-1.612 15.44 1.772 3.09 7.237 2.16 32.907 2.33 42.615l1.4 66.26c.42 22.87 1.42 45.73 1.56 68.6.05 7.06-2.84 9.83-10.04 9.82-68.76-.12-137.59-1.51-206.32.55-4.24 1.31-5.37 2.67-9.79 1.49-4.05-2.99-5.07-14.35-4.34-18.56 4.28-24.85-8.29-152.056-2.19-165.167 12.24-6.044 182.31-6.022 211.95-7.38"/><path fill="#fefefe" d="m1743.9 975.508 50.97-.768 2.88 159.09c-49.16.26-98.33.22-147.5-.11-17.03-.12-34.88.41-52.02.52-.34-7.55-.36-16.16-.21-23.71.89-43.56-3.7-88.11-3.17-131.475 49.66-1.968 99.35-3.151 149.05-3.547"/><path d="M1524.95 963.56c4.39-.37 13.07-1.546 16.48 1.109 2.2 1.709 2.91 5.51 3.09 8.224 1.8 27.287 1.67 54.937 2.78 82.297.97 26.91 2.65 53.82 3.71 80.72.73 5.39-4.5 11.83-10.18 11.96-66.23 1.54-131.8 1.11-197.97 6.55-6.73.68-13.91 2.64-19.14-2.31-.91-2.52-1.17-32-.8-35.33 2.63-23.77-8.51-128.73-2.06-144.022 4.87-4.438 56.71-4.825 65.93-5.174 46.04-1.805 92.09-3.146 138.16-4.024"/><path fill="#fefefe" d="m1506.6 978.468 22.14-.418c2.27 16.726 2.43 47.67 2.97 64.91 1.05 30.34 2.38 60.67 4.01 90.99-57.35.05-114.69 1.5-171.97 4.36l-25.8 1.83-4.03-156.14z"/><path d="M1757.26 759.589c9.38-.372 41.49-2.463 47.57 1.735 1.79 8.817 1.48 21.055 1.98 30.376 2.36 44.702 5.1 89.423 6.46 134.166.16 5.454-2.36 6.731-6.1 10.399-18.65-.594-40.45.325-59.37.608l-122.11 2.168c-9.62-.096-36.84 1.755-43.23-1.014-1.41-1.544-1.74-3.412-1.83-5.465-2.12-50.687-2.02-101.788-6.49-152.328-.67-7.611-3.9-18.435 7.64-18.507 17.41-.109 34.81-.258 52.21-.514z"/><path fill="#fefefe" d="m1773.66 773.546 17.4-.343c1.69 48.614 6.48 99.846 7.48 147.831-61.42.876-123.37 2.705-184.67 3.114l-18.67.039c-1.33-43.705-2.01-104.868-6.25-147.353 18.57-1.409 44.96-.922 63.95-1.224z"/><path d="M959.272 974.523c7.486-.514 17.806-2.392 23.827 1.501 2.781 4.284 1.824 28.956 1.818 35.656-.055 20.13.009 40.25.193 60.37.299 24 1.209 47.88 2.673 71.85.729 11.95-5.213 15.76-16.308 16.92-28.055 2.94-56.485 3-84.744 3.4-34.789.59-69.569 1.59-104.335 2.99-13.212.98-15.575 2.14-15.697-12.37l-.605-115.18c-.164-13.03-.135-27.18-.298-40.257-.022-1.744-4.712-7.027-6.286-10.068.145-4.234 8.448-13.173 11.29-12.446 21.344 5.463 45.89 2.071 68.096 1.316z"/><path fill="#fefefe" d="m954.147 988.458 15.895-.613 2.08 158.825c-29.674 2.81-61.795 2.89-91.653 3.49a4284 4284 0 0 0-81.719 2.76l-16.916.59a9740 9740 0 0 0-2.878-158.596c19.433-1.415 40.788-1.714 60.337-2.404z"/><path d="M1232.4 160.552c7.89-.484 20.39-2.169 27.26 1.105 3.22 4.25 2.38 27.494 2.52 34.459l1.38 52.853 1.64 48.278c.33 9.188.87 18.513.64 27.695-.16 6.236-6.32 8.657-11.64 9.013-18.86 1.259-37.91 1.849-56.81 2.569a3133 3133 0 0 1-150.78 2.625c-.3 7.003-.98 14.123-10.18 12.801-1.14-.88-2.13-1.63-2.78-2.96-1.8-3.677-6.17-153.702-6.08-167.461.03-4.186.27-8.113 1.56-12.124 6.13-4.241 66.52-4.757 77.94-5.098z"/><path fill="#fefefe" d="M1217.44 175.431c7.36-.691 21.54-.479 29.41-.613a4654 4654 0 0 0 4.57 144.196c-16.49 1.434-36.32 1.892-53.01 2.589a3920 3920 0 0 1-122.66 3.076c-10.01.025-19.17-.028-29.16-.507-1.32-14.31-1.27-38.21-1.73-53.282l-2.79-89.801z"/><path d="M1259.06 565.578c5.62-.272 16.48-2.279 21.06 1.341 2.32 1.831 2.45 7.515 2.64 10.351 1.87 27.684.22 56.5.11 84.277-.09 22.206 1.36 45.188.06 67.287-.17 2.926-.34 7.61-2.45 9.801-14.35 14.922-179.48 9.219-207.48 8.36-4.45 1.797-7.03 3.136-11.46 1.582-1.51-1.451-3.05-3.898-2.84-5.887 2.17-21.033-9.62-163.547-4.58-169.653 10.59-3.423 48.92-3.303 62.57-3.744 47.45-1.536 94.91-2.774 142.37-3.715"/><path fill="#fefefe" d="m1238.81 580.457 28.99-.261c1.01 48.696.36 100.68-.29 149.485-8.65.391-17.29.846-25.93 1.53-47.95 3.798-95.92 3.413-143.99 2.622-8-.88-16.25-1.403-24.29-2.015-.21-46.109-4.48-100.031-6.24-146.92 56.76-.723 114.78-3.184 171.75-4.441"/><path d="M1512.91 348.445c6.91-.51 19.86-2.982 21.38 6.302 2.02 12.342 2.05 25.319 2.58 37.843q1.725 37.464 2.91 74.948c.37 11.083 4.06 41.855-.79 49.786-8.31 5.136-190.12 7.158-214.24 8.596l-3.22.096c-3.37 2.606-8 5.389-12.39 5.136-3.37-3.182-3.58-7.958-3.96-12.394-1.34-15.676-6.49-156.452-3.21-159.865 2.38-2.472 8.77-3.304 12.1-3.688 23.65-2.732 48.55-2.132 72.37-2.833z"/><path fill="#fefefe" d="M1501.17 363.553c6.43-.316 13.16-.422 19.62-.624l3.56 88.448c.66 15.878.99 38.896 2.98 54.146-20.53 1.37-46.95 1.043-68.06 1.613l-118.02 3.806-21.19.755c-1.4-9.434-1.46-28.395-1.93-38.354-1.61-34.045-.64-69.873-3.02-103.678 18.28-1.602 44.77-1.676 63.69-2.287z"/><path d="M948.385 167.567c9.942-.774 19.951-3.46 27.459 3.925 2.998 37.298 3.172 77.264 4.81 114.824.379 8.675 1.841 42.548.825 48.726-6.775 6.205-50.657 6.868-62.06 7.574l-97.831 6.134c-17.615 1.169-39.307 2.211-56.397 4.473l-1.279.727c-14.9 9.828-13.514-12.578-13.868-21.302-.308-7.608-.568-16.288-.841-24.379a5237 5237 0 0 0-3.114-84.328c-.519-11.958.086-26.945-3.496-37.662-1.133-3.391-.631-5.644.971-8.701 11.431-9.494 14.15-.744 16.677-.831 62.711-2.146 125.49-5.644 188.144-9.18"/><path fill="#fefefe" d="m950.736 182.418 11.17-.432 5.295 142.918c-25.232.925-52.284 3.197-77.57 4.869l-111.805 7.046-12.366.719-6.416-146.059z"/><path d="M1492.25 154.445c8.34-.319 31.9-2.306 38.2 1.283 1.02 3.246 1.58 7.636 1.7 11.02 1.74 48.943 3.56 97.94 4.74 146.893.1 4.022-3.94 8.052-7.67 8.462-19.61 2.158-39.72 2.282-59.49 3.124l-128.48 5.644c-9.62.163-29.59 4.005-38.98-.272-1.53-.698-2.82-9.872-2.89-12.018-1.8-51.367-1.64-103.024-4.09-154.364 16.57-6.752 61.31-5.676 80.92-6.233z"/><path fill="#fefefe" d="M1478.97 169.552c12.35-.725 25.64-.597 38.08-.69 2.98 42.953 3.03 95.732 4.62 139.797-55.79 1.171-115.78 4.979-171.92 7.346a765 765 0 0 0-35.28 1.983c-2.76-44.675-2.27-97.46-3.89-143.147 54.16-3.043 114.08-4.135 168.39-5.289"/><path d="M1525.54 762.476c4.68.026 9.83-.407 14.01 1.449 3.02 2.555 4.28 8.349 4.51 12.245 2.9 50.617 4.82 101.521 5.53 152.21.07 5.014-2.78 10.109-8.21 10.478-19.44 1.317-39.06 1.529-58.57 2.205q-72.885 2.317-145.8 3.807c-8.39.63-13.6 1.796-18.96-5.802-.83-4.492 3.69-6.932 3.48-13.443-1.33-42.602-2.52-85.186-5.2-127.734-.37-5.803-1.94-22.06.45-26.277 12.56-4.83 76.99-5.248 94.89-5.787z"/><path fill="#fefefe" d="M1504.34 777.5c7.59-.404 16.75-.331 24.46-.461 2.76 48.576 5.76 98.512 6.08 147.162-58.36 2.441-116.74 4.394-175.13 5.859-7.51-.145-15.67.043-23.24.073L1330 783.141c58.2-2.832 116.18-3.598 174.34-5.641"/><path d="M1533.2 560.605c6.6.898 7.83 5.251 8.02 11.428.23 7.466-.2 14.743.17 22.254 2.1 42.571 3.57 85.172 5.51 127.748.13 2.823.24 4.945-.83 7.579-7.82 6.397-52.57 4.536-65.91 4.682-34.56.427-69.13 1.211-103.68 2.352-12.03.441-37.13.522-48.82 3.769-1.24 1.334-2.29 2.467-3.16 3.399-9.44.495-12.09-3.401-11.18-12.305 2.77-27.252-9.68-146.164-2.57-163.049 5.56-5.565 188.46-5.324 211.04-7.372 1.79-.162 9.19-.374 11.41-.485"/><path fill="#fefefe" d="M1473.79 576.561c15.3-1.034 37.51-.677 53.14-.701-.27 43.687 3.14 99.016 5.05 143.353-49.85-.621-104.07 1.803-154.19 2.816-16.37.798-32.9 1.281-49.29 1.875-3.77-44.027-3.03-98.464-5.32-143.8 49.81-.532 100.53-2.764 150.61-3.543"/><path d="M1248.67 970.416c8.46-.241 27.07-2.923 34.19 1.247 1.56.917 1.89 2.397 2.27 4.092 2.53 11.283 1.1 45.825 1.4 59.915.69 33.52 3.19 67.31 2.7 100.8-.05 3.61.24 10.7-1.95 13.78-7.34 10.3-170.86 4.7-197.6 9.06-4.3.9-9.32 4.59-13.59 2.67-5.55-2.49-4.14-7.17-3.82-12.23 2.67-41.69.94-83.77-2.22-125.38-.63-8.26-1.29-26.312-3.83-33.145-4.04-1.149-11.16-1.659-11.54-6.705-.62-5.541 3.03-9.184 8.43-9.474 61.65-3.305 123.93-1.642 185.56-4.63"/><path fill="#fefefe" d="M1260.66 984.469c2.31-.193 7.77.065 10.32.109 1 51.252 3.46 104.482 3.93 155.142-63.42 3.63-115.79 3.23-178.16 4.34-3.96.38-5.11 1.12-8.4-.37-1.35-7.19-.12-42.72-.35-53.23-.7-33.9-2.84-67.76-6.39-101.482 57.81-3.124 120.56-2.966 179.05-4.509"/><path d="M1236.4 355.563c7.79-.525 20.27-2.55 25.98 2.686 2.67 2.034 2.97 8.816 3.07 12.26 1.51 49.503 4.43 98.974 6.06 148.457.18 5.318-5.35 8.682-10.2 9.136-20.62 1.932-41.57 2.097-62.29 2.668q-68.805 2.026-137.64 1.768l-3.83.343c-3.26 3.224-5.34 5.829-9.77 6.274-6.1-1.786-6.76-9.327-6.82-15.17-.57-51.602-5.71-104.685-5.96-156.124l5.8-5.853c19.46.935 51.11-1.202 71.22-1.99a6565 6565 0 0 1 124.38-4.455"/><path fill="#fefefe" d="m1230.99 370.465 19.61-.67c.76 47.279 3.71 97.423 5.84 144.726-60.58 2.217-121.2 3.42-181.83 3.611-6.16-.153-12.97.035-19.19.072l-3.09-81.826c-.74-18.593-1.32-41.202-3.41-59.515z"/><path d="M1749.5 556.437c9-.249 40.17-2.065 46.88.757 8.29 10.923.76 102.598 3.69 123.093 1.07 7.488 2.26 40.565-1.62 46.131-12.99 6.867-54.35 4.809-71.13 4.895l-105.82.695c-6.13-.042-36.63 2.553-42.37-1.218-.92-.605-2.47-11.392-2.57-13.804-1.96-49.069-3.81-98.212-5.7-147.282-.09-2.348.33-3.971 1.21-6.133 2.27-2.088 2.49-2.703 6.23-2.809 18.32-.519 37.05-.67 55.34-1.06q57.945-1.302 115.86-3.265"/><path fill="#fefefe" d="M1766.42 570.472c6.42-.193 12.76-.048 19.18.056.31 4.563.34 9.039.15 13.607-1.84 44.295.13 88.373.35 132.65-22.54-.881-47.16-.166-69.93-.035-36.48.1-72.95.404-109.42.912l-15.13.339c-1.4-16.566-1.63-36.706-2.24-53.541l-3.7-89.69c60.26-.73 120.51-2.163 180.74-4.298"/><path d="M1160.35 768.533c36.39-1.963 76.93-1.44 113.48-.226 3.32.11 9.63-.043 11.93 2.771 1.46 1.784 2.3 3.647 1.91 5.993-.41 2.435-2.14 3.829-4.05 5.143-7.26 4.976 9.31 143.619.06 156.522-11.1 7.101-96.41 8.005-112.93 8.332-14.76.365-89.17 1.062-97.88-1.833-3.58-8.724-2.92-45.077-3.28-56.735l-3.69-101.935c-5.19.297-16.14 1.773-20.38.288-4.58-3.842-4.52-7.659-.92-12.213 7.12-4.013 101-5.66 115.75-6.107"/><path fill="#fefefe" d="M1141.1 783.458c37.56-1.371 88.08-1.604 125.59-.405 2.15 47.569 4.1 97.121 5.34 144.691a1147 1147 0 0 1-60.32 4.006c-43.58.797-83.31.7-126.67.308.41-47.279-2.69-98.521-4.86-146.029a2311 2311 0 0 0 60.92-2.571"/><path d="M952.199 361.43c7.249-.422 20.482-2.065 26.594 1.071 6.139 11.591 5.231 126.559 7.499 144.989.755 6.141-.084 10.674-4.45 15.374-6.825 2.911-17.545 3.076-25.046 3.307-60.964 1.872-122.85 8.361-183.719 9.746-3.151 2.984-2.305 10.797-11.833 11.562-3.423-3.188-3.603-8.705-3.836-13.218-1.917-37.111-3.285-74.457-4.567-111.592-.355-10.276-3.528-44.489-1.589-52.208 8.601-3.064 83.183-3.937 97.108-4.399a6946 6946 0 0 0 103.839-4.632"/><path fill="#fefefe" d="m848.211 396.508 2.103 1.847c1.466 6.382.719 11.636-.602 17.954-2.73-2.792-2.492-16.149-1.501-19.801"/><path d="M957.124 774.564c6.411-.427 16.928-2.123 21.878 1.466 4.061 8.859 8.749 146.033 7.265 163.386-2.476 2.393-5.809 4.469-8.69 6.438-59.143 5.362-131.391 4.107-191.077 5.839-7.048.07-13.817 2.462-19.847-.802-3.722-5.001-3.904-14.566-4.007-20.681-.773-45.002-3.088-90.046-4.571-135.007-.342-10.366 4.263-11.604 13.805-12.166 21.24-1.251 42.939-1.956 64.18-2.91z"/><path fill="#fefefe" d="M947.219 789.567c6.197-.618 13.605-.565 19.918-.682 2.09 45.593 4.916 97.499 4.741 142.907-59.742 3.868-117.52 3.621-177.128 5.252l-17.589 1.052c-.447-46.252-3.196-93.747-4.442-140.17 56.027-4.18 117.863-5.69 174.5-8.359"/><path d="M1769.95 145.552c6.53-.44 12.78-1.805 18.07 1.849 5.34 8.499.16 131.64 2.12 152.938.29 3.171-1.94 9.813-4.26 12.376-12.88 5.433-181.79 8.115-204.08 8.629-7.54.648-15.53.138-15.92-9.52-.37-9.16-.27-18.369-.41-27.545-.35-21.027-.52-42.057-.49-63.086-.02-19.69-.89-39.646-1.06-59.354.13-.971.21-5.686 1.19-5.995 16.77-5.306 55.74-4.93 72.62-5.629a9257 9257 0 0 1 132.22-4.663"/><path fill="#fefefe" d="M1746.43 161.442c8.47-.604 19.93-.485 28.64-.644.3 46.394.34 92.79.14 139.184-54.88 3.511-111.69 4.556-166.65 5.985l-27.3.179c-2.67-43.415-1.2-93.498-2.92-138.418 21.03-1.804 49.1-2.293 70.42-2.949z"/><path d="M404.273 177.437c14.335-1.036 29.155-2.206 38.211 10.384 4.153 46.781 2.691 96.715 6.197 143.82.36 4.84.662 12.615-.407 17.147-8.767 6.339-61.506 6.111-74.185 6.332a3433 3433 0 0 0-107.76 2.521c-5.399.135-32.557 1.67-32.906-2.064-4.511-48.395-2.835-99.246-5.458-148.032-.802-14.912.638-5.906-6.28-15.357-.518-2.92-.201-3.155 1.186-5.965 6.256-4.923 30.292-1.126 39.576-1.297 47.514-.875 94.305-5.747 141.826-7.489"/><path fill="#fefefe" d="M284.171 294.773c4.025 3.466 3.212 19.685 3.853 26.719-.946.114-1.043-.12-2.1-.528-1.765-4.771-2.089-20.777-1.753-26.191"/><path d="M1776.29 340.573c6.34-.503 11.53-2.079 16.24 2.611 2.68 14.99 5.41 154.024 1.78 165.205-.51 1.544-.59 2.877-2.12 3.579-9.03 4.157-193.91 8.449-196.86 7.151-2.6-1.142-3.82-2.734-4.94-5.243.99-6.851 7.07-8.724 13.44-8.938 18.42-.617 36.85-.288 55.3-.835l122.84-4.652c-.07-14.312-1.99-140.511-3.97-143.664l-3.75-.058-192.77 6.174c.65 32.889 1.53 65.772 2.63 98.649.52 16.481 1.43 34.121 1.07 50.63-.09 4.031-.77 4.827-2.93 7.423-2.34.579-3.25.865-5.64.077-1.96-.65-3.81-2.223-4.64-4.11-2.82-6.466-5.62-137.354-5.18-153.545.1-3.704.39-7.131 1.66-10.646 3.5-1.978 9.25-2.985 13.25-3.159 64.74-2.818 129.88-3.252 194.59-6.649M957.752 569.578c7.18-.549 19.147-2.766 24.28 2.612 1.743 12.488 7.684 158.119 6.276 163.717-.567 2.256-2.837 5.958-5.015 6.969-4.266 1.98-9.786 2.567-14.423 2.898-15.179 1.087-181.046 5.773-185.351 3.997-2.425-1.001-3.014-2.462-4.113-4.614.327-4.278-.214-2.605 2.306-6.331 11.851-5.254 165.681-6.317 192.075-6.862-.73-48.009-3.763-96.993-4.828-145.214-.228-2.049-.095-1.3-1.199-3.214-19.486-.2-44.563 1.536-64.407 2.291a9874 9874 0 0 0-135.015 5.763c2.443 32.877 1.778 67.523 4.019 100.564 1.141 16.813.836 34.416 1.193 51.287.075 3.55-5.104 5.133-8.025 5.234-1.56-.635-4.913-1.713-5.043-3.758-3.217-50.275-3.859-101.069-6.277-151.486-.178-3.697.481-8.285 1.86-11.685 8.273-6.65 56.797-6.558 70.656-7.161z"/><path fill="#fefefe" d="M514.847 505.055c33.883 16.363 37.784 59.771 39.282 93.339-28.012 8.371-63.735 23.277-87.782 39.975-4.046-14.38-6.822-31.468-11.029-45.736-.527-1.789-3.512-2.393-5.145-2.615-4.338 2.466-5.035 5.695-4.357 10.602 1.728 12.5 5.597 24.668 7.906 37.112 9.579 51.628 23.728 101.968 36.677 152.79-9.582 2.898-29.619 5.018-40.249 6.33a1406 1406 0 0 1-176.41 9.109c.795-18.236 4.606-45.726 7.383-63.842 2.223-17.313 16.453-131.3 11.85-140.429-3.248-3.023-4.017-3.793-7.724-1.202-1.383 2.493-2.771 6.078-2.899 8.977-1.615 36.752-5.976 72.653-10.766 109.103-22.768-19.629-35.214-31.039-50.523-56.804 5.613-11.461 26.25-36.365 34.136-48.514 8.042-11.31 15.484-23.045 23.531-34.349 12.042-16.919 26.822-22.815 44.868-30.903 14.735 22.54 45.83 7.685 61.935-4.773 48.197-4.685 86.241-15.092 129.316-38.17"/><path fill="#fefefe" d="M698.225 587.443c3.735-.479 11.746-.424 15.813-.517.779 47.83 4.644 98.399 5.789 147.084-28.457 5.192-84.956.671-114.529-.307-24.033-.794-43.547-.149-67.547.732l-20.032.951c-3.791-32.736-1.992-75.199-5.678-109.799 8.955-3.961 50.63-16.717 53.596-20.472 3.014-3.814 1.968-9.593 1.651-14.096 43.137-1.667 87.602-2.314 130.937-3.576m14.957 208.096 2.201-.15 1.202 1.283c2.118 22.178 2.084 50.509 2.724 73.13.519 18.342 2.283 46.759 1.176 64.354-20.348 3.479-48.898 4.047-69.999 4.314-41.297.521-82.372.023-123.736.564l-3.326-.193-1.215-1.247c-1.13-37.594-3.561-98.403-5.21-133.769 15.86-1.951 45.26-2.097 62.178-2.802zM551.018 336.035c7.429 2.528 16.23 18.024 18.771 25.387 3.179 9.213-4.338 20.243-8.891 28.152-.24 39.49 15.022 89.391 10.059 129.9-1.032 8.428-6.462 18.31-10.767 25.651l-4.282-10.81c-6.831-15.727-11.934-24.092-25.747-34.286 9.625-27.757 12.305-56.1 13.209-85.327.527-17.007-1.147-25.019-10.398-38.802-.463-5.341-.997-11.291 1.225-16.279 5.112-2.43 5.356 3.339 12.073-.312 4.565-6.282 4.212-15.416 4.748-23.274M219.582 682.701c11.346 12.86 23.195 27.448 36.706 37.824-6.244 4.719-19.065 12.964-19.367 21.237l1.316 1.024c9.724.444 18.694-8.2 25.775-14.063 2.312 1.515 4.747 3.339 7.015 4.961l-2.148 15.194-3.098 19.756c-32.108-8.327-50.678-23.006-60.901-55.968 2.711-10.592 7.811-21.445 14.702-29.965M381.074 449.09c15.335 2.938 32.769 37.688 24.59 51.365-3.272 5.472-24.376 5.499-30.826 5.927-.246 9.134.843 18.94 1.769 28.046-9.418 8.127-17.467 11.1-29.385 14.301-4.441-.829-8.611-1.196-12.064-3.957-.712-4.287 3.468-3.181 7.415-5.322 15.639-8.483 19.824-28.108 28.885-42.307 2.1-3.291-17.961-9.49-10.142-21.623 3.736-.867 6.592 1.726 10.8 3.955 10.907-.341 8.827-22.274 8.958-30.385m-127.71 354.065c13.12-.019 6.088 2.146 12.086 11.823 3.314 5.347 12.206 3.476 17.492 3.012-7.577 28.435-12.766 80.787-14.077 109.351-.723 5.974.672 9.865-2.932 13.756-3.335.853-3.779.956-7.135.254-1.526-5.995-1.509-45.867-1.626-53.958-.419-28.933-1.211-55.326-3.808-84.238m216.678 544.635c9.117 1.84 43.45 17.99 54.386 22.43-15.581 4.17-34.632 5.06-50.67 6.03-17.102 1.28-36.063 3.27-53.066 2.14 1.41-7.32 2.242-11.32 4.64-18.44l.746.02c16.935.54 31.14-.12 43.964-12.18m-88.531-262.61c4.962 23.2 6.37 55.39 9.301 79.46.991 8.13 4.016 37.86 3.715 44.63-2.37 1.19-7.741.76-10.674.74l-14.349-.03a2830 2830 0 0 1 6.864-82.54c1.194-12.07 2.754-30.71 5.143-42.26m-40.351 269.69c5.467.21 34.849 16.94 40.751 20.66-18.465 3.35-37.408 3.71-56.161 4.53-12.67 1.25-23.989 2.3-36.627-.02 3.014-6.65 4.056-9.51 5.958-16.56 16.649 4.93 32.129 1.85 46.079-8.61m-11.46-27.5 1.813-.36 1.578 1.08c1.279 4.05.719 10.93.579 15.41-12.85 8.14-15.521 9.27-30.516 8.2-9.956-3.39-6.999-11.22-6.621-20.88 12.228-.79 21.128-1.49 33.167-3.45m129.85-2.93c2.5-.34 1.427-.63 3.38.64 1.111 3.56.29 9.1.003 13.05-11.126 6.84-16.669 7.98-29.661 8.86-6.237-2.37-5.139-13.15-5.454-19.27 10.241-1.3 21.395-2.22 31.732-3.28m-81.024 66 2.812-.47.594 1.04c-14.964 8.81-71.085 9.43-89.689 8.79-3.372-.71-3.958-1.28-4.872-4.34 2.092-2.07 16.265-.97 20.296-1.07 23.654-.6 47.285-1.92 70.859-3.95m153.579-9.2c.006 1.77.04.96-1.014 2.79-11.554 6.41-100.687 13.32-111.804 10.92l.001-2.81 1.643-1.08c18.185 1.55 94.463-4.37 111.174-9.82m.615-1185.002 2.179 1.95c.933 5.364 1.39 15.835.201 21.134-4.51-5.147-3.692-16.78-2.38-23.084"/></svg>