<svg xmlns="http://www.w3.org/2000/svg" preserveAspectRatio="xMidYMid meet" viewBox="0 0 2048 2048"><path d="M990.659 163.443q1.094-.061 2.189-.108c466.542-20.324 902.112 315.208 945.442 789.269 1.1 12.082 2.1 24.141 2.6 36.266 7.25 221.47-73.31 436.83-224.13 599.18-134.57 144.24-311.45 242.05-505.15 279.37-50.64 9.36-101.9 14.97-153.36 16.79l-1.74.09a939.8 939.8 0 0 1-552.649-151.05c-72.449-47.09-141.264-107.53-197.23-173.53a838.82 838.82 0 0 1-200.428-500.81c-8.691-191.578 55.909-381.535 170.48-533.9 133.232-177.182 326.282-295.601 542.17-341.623 56.535-12.052 114.065-17.378 171.806-19.944"/><path fill="#fefefe" d="m990.251 190.436 1.249-.08c243.3-10.19 480.67 76.769 659.8 241.718 159.04 147.651 253.12 352.276 261.67 569.116 6.84 206.96-76.9 418.51-218.09 569.24-165.26 177.26-395.09 280.29-637.38 285.74-244.474 8.12-472.973-70.29-654.983-235.86-151.171-137.51-259.118-343.69-267.432-549.87-10.964-219.939 68.16-434.854 219.124-595.179C519.933 295.85 747.505 200.12 990.251 190.436"/><path d="M1020.94 251.455q1.125-.04 2.25-.066c220.33-4.728 433.29 79.422 590.87 233.48 70.42 67.614 128.33 154.451 172.9 240.937 24.94 48.395 36.78 84.357 47.78 137.544 11.42 55.175 17.94 104.076 19.08 160.57 3.36 191.69-69.22 376.93-201.9 515.33-175.87 182.8-377.3 262.52-629.5 267.29-150.223 2.63-316.422-44.43-444.792-122.84a869 869 0 0 1-135.858-103.71 768.6 768.6 0 0 1-94.681-103.09c-21.544-28.11-44.635-61.46-64.313-90.9-15.029-22.49-25.584-57.96-35.357-83.64-27.896-73.3-53.876-148.4-58.28-227.38-2.209-17.7 3.054-36.89 2.921-54.07-.429-55.665 3.371-110.809 15.111-165.268 9.55-44.299 27.048-79.692 46.553-119.957 14.304-29.529 24.736-60.032 43.459-87.647 23.312-43.862 52.091-81.936 85.199-118.708 130.669-145.126 316.36-237.309 508.147-267.754 40.999-6.508 87.881-8.608 130.411-10.121"/><path fill="#fefefe" d="M1004.49 336.571c26.49-1.968 69.92-2.58 96.47 1.846 82.22 15.478 170.55 36.989 247.83 70.25 83.51 35.943 168.25 95.733 234.64 157.551 18.24 16.977 35.74 39.096 52.74 57.546 12.06 13.094 22.72 36.888 34.2 51.387 14.62 20.232 31.09 42.558 40.3 65.644-45.41 42.313-77.31 135.756-87.16 196.02-15.34 97.135-8.93 197.615 10.67 293.625 10.99 53.8 22.29 74.56 53.81 118.72-5.39 11.17-15.25 26.89-21.9 37.59-42.02 67.54-88.18 111.59-150.31 160.65-39.69-92.62-57.08-161-151.12-217.5 2.39-28.26 16.8-78.3 27.39-104.39 26.01 4.72 61.59 7.09 85.1-7.8 33.95-21.5 28.05-64.6 30.62-99.1 1.54-20.68 3.64-33.95 8.07-53.94 37.95-8.31 30.73-24.71 20.58-53.65-6.41-16.848-10.65-34.861-16.33-51.805-9.05-26.963-3.7-53.704-11.44-80.249-4.39-15.039-15.29-30.762-23.74-43.96 31.81-25.688 29.04-64.804-4.1-87.79-20.53-14.24-48.82-22.401-72.51-30.954a5159 5159 0 0 1-54.9-20.505c-55.19-20.601-95.42-24.566-153.43-14.434-91.82 16.035-153.54 69.057-185.69 156.416l-1.59 3.642c-.48-.34-12.29-33.181-14.102-37.317a285 285 0 0 0-27.164-47.977c-34.952-50.329-83.017-84.583-143.439-94.125-72.296-11.418-141.949 23.071-203.871 55.696-9.972 5.254-26.388 12.695-36.649 16.973-44.167 18.414-61.863 58.489-30.759 98.8-6.462 20.214-17.769 37.29-24.068 58.26-6.1 18.285 1.617 37.717-2.672 56.155-7.244 31.144-18.545 61.274-27.201 91.984-5.823 20.66 9.809 24.5 26.171 27.72 3.349 17.52 8.181 30.73 11.698 46.83 1.1 13.95-.516 27.67.836 41.69 6.397 66.33 52.845 72.16 110.632 63.96 18.855 36.75 28.453 72.09 31.718 113.16-82.349 36.12-128.064 138.63-152.923 219.85-76.963-66.8-136.107-133.25-184.52-223.94 5.779-8.67 13.584-25.56 18.213-35.51 23.884-51.33 45.818-110.31 59.674-165.14 10.796-42.71 22.909-106.43 22.152-151.15-1.562-92.252-37.208-208.354-84.277-286.967 12.718-20.758 26.124-38.251 41.342-57.196 8.391-10.445 19.835-26.545 28.928-35.651 29.913-29.958 61.674-56.1 94.803-82.247 16.585-13.089 29.43-27.803 47.951-39.395 20.489-12.822 41.966-22.633 62.762-34.75 14.584-8.496 31.639-22.054 46.924-28.918 29.289-13.154 61.403-21.782 91.757-32.635 22.478-8.037 54.067-22.035 77.085-26.884 46.651-9.829 102.931-14.462 150.799-16.086"/><path fill="#fefefe" d="M1013.72 1358.28c17.16 5.19 39.7 14.02 57.07 20.3l114.06 41.66c18.77 6.87 72.35 27.39 90.1 27.59 31.92.36 79.25-7.5 112.39-11.94 26.42 40.75 48.71 111.63 63.61 158.09-5.27 3.81-11.4 7.71-16.85 11.36-.6-2.47-1.25-4.92-1.94-7.35-5.93-20.74-40.47-133.71-55.14-141.78-3.69-.11-1.96-.53-5.27 1.64-1.4 3.29.04 8.96 1.39 12.06 20.39 46.77 34.91 93.3 49.31 142.3a827 827 0 0 1-150.53 69.3 1347 1347 0 0 1-63.4 18.81c-8.9-44.8-13.4-103.58-14.71-149.3-.51-17.58-.79-35.17-.85-52.75.01-8.69 1.7-32.62-.25-39.54-2.41-2.68-2.28-2.92-5.88-3.79-9.48 3.16-6.7 14.84-6.88 23.34-1.64 75.77 3.46 150.35 15.72 225.14-93.09 21.21-169.7 27.05-265.67 20.51 11.325-105.97 26.966-221.29 65.048-321.18 4.243-11.13 13.052-34.76 18.672-44.47"/><path fill="#fefefe" d="m990.224 1371.98.817.19c.529 2.35-6.161 18.2-7.478 21.63-12.834 31.14-20.201 63.39-28.713 95.78-20.278 77.18-26.882 154.01-38.279 232.53-22.047-3.5-44.024-7.43-65.919-11.77.764-18.3 4.933-45.44 6.653-65.2a2102 2102 0 0 0 9.105-150.73c.256-9.11 3.586-36.79-4.602-40.58-8.047 1.34-8.072 9.25-8.177 16.21-.348 22.96-.659 45.78-1.634 68.73a1875 1875 0 0 1-14.438 167.73c-19.921-6.3-40.507-11.47-60.234-17.91-26.351-8.59-53.84-19.58-79.218-30.62a964 964 0 0 1-76.248-39.12c16.061-50.78 37.448-101.02 52.989-152.1 1.378-4.53 3.762-9.46 1.562-13.93-3.039-2.2-1.416-1.69-4.943-1.85-3.16 1.64-5.616 4.23-6.888 7.59-19.138 50.45-35.296 102.6-53.735 153.27-5.757-3.55-12.03-8.47-17.529-12.58l43.659-120.26c6.082-16.27 12.159-33.96 18.725-49.88 38.235 5.41 81.058 16.72 118.984 15.76 23.674-.59 65.289-18.92 89.284-27.62a10119 10119 0 0 1 126.257-45.27m480.756-529.162c7.16 4.409 21.18 33.668 23.72 42.339 5.41 18.48 2.22 39.72 6.78 58.755 4.1 17.145 8.59 33.887 14.39 50.564 5.18 15.844 11.53 33.134 14.62 49.454-8.25 4.61-13.39 5.87-23.05 5.59-7.54-.21-26.46-8.53-29.16 1.36 2.72 10.67 15.37 11.41 24.57 12.8-3.7 12.77-6.68 29.18-9.47 42.44-6.37-.23-10.25-.66-16.61-1.77-7.12-1.24-16.23-6.05-20.55 1.44-.48 13.94 25.39 15.24 36.24 16.98.26 52.41 1.68 93.37-66.97 92.7-41.15-.41-81.01-15.67-110.09-45.17-26.95-29.42-30.86-55.97-35.41-94.47 6.19 1.46 18.1 2.37 20.69-5.17-2.74-8.58-11.69-5.37-17.77-6.71-57.99-12.77-78.15-100.028-30.68-136.899 29.85-23.189 62.68-3.105 68.25 29.683 1.3 7.661-2.31 17.993 1.99 23.649 16.39-1.049 31.77-58.769 44.85-74.305 28.36-33.659 67.43-43.242 103.66-63.26"/><path d="M1455.26 927.249c12.73-2.353 24.94 6.093 27.23 18.832 2.3 12.738-6.21 24.912-18.96 27.146a23.36 23.36 0 0 1-22.63-8.879 23.38 23.38 0 0 1-2.48-24.184 23.35 23.35 0 0 1 16.84-12.915m2.86-27.836c10.55.022 39.88-1.107 30.35 16.923-1.91 1.311-2.73 2.245-5.46 2.041-14.47-1.081-25.8-2.063-40.4-1.644-6.94.262-31.67 3.762-34.58-3.25 5.83-9.83 39.52-13.419 50.09-14.07"/><path fill="#fefefe" d="M569.508 839.564c41.209 18.363 83.823 28.657 110.583 68.842 7.339 11.02 34.436 72.886 45.243 71.835 3.341-4.209 3.104-13.054 2.944-18.348-1.172-38.725 33.908-66.861 67.689-35.548a73.24 73.24 0 0 1 23.103 51.296c.755 30.979-14.337 67.339-44.089 80.549-6.911 3.07-28.602.52-28.196 9.75 4.6 5.89 11.767 5.64 18.291 5.07-1.188 35.96-5.921 66.21-32.904 91.76-33.069 30.14-74.523 45.77-119.573 45.33-60.433-.6-60.96-46.34-57.418-95.32 8.748-.29 32.517.81 37.477-7.27-.11-4.17.377-2.19-1.931-6.04-3.9-2.61-30.736.66-38.911.57-5.227-11.73-8.106-25.63-11.015-38.2 5.846-2.09 28.755-11.2 21.875-20.17-.84-1.1-4.17-3.09-5.579-2.32-11.295 6.14-23.401 13.14-36.706 12.27-10.116-2.19-2.58-19.92-.848-25.88 11.134-38.843 28.292-72.356 23.497-113.865-2.182-18.892 17.951-56.06 26.468-74.311"/><path d="M581.479 922.295c38.162-.154 35.82 39.485 8.577 44.179-21.972-1.662-12.922-13.862-20.85-23.266-2.621-.192-4.816-.433-7.406-.752-2.377-2.362-1.587-.982-2.338-4.35 2.095-8.214 14.309-14.32 22.017-15.811m5.035-26.87c14.811.194 33.974 2.735 44.131 15.009 1.121 1.356.716 1.233.311 3.052-5.299 2.226-24.661-1.627-33.558-1.984-11.831-.257-22.818.45-34.573 1.477-4.463.391-10.254.756-12.822-3.319 2.726-10.646 27.284-13.551 36.511-14.235"/><path fill="#fefefe" d="M347.449 712.718c15.111 28.832 33.082 62.989 42.883 93.645 14.082 44.047 31.368 111.901 32.298 158.076 2.142 106.411-38.715 237.901-85.69 332.421-1.156 2.49-.962 2.72-3.182 4.19-8.197-4.42-39.075-94.13-43.59-108.12-25.423-78.8-30.321-163.75-16.389-245.172 5.161-30.165 7.468-67.543 17.134-96.895 14.981-45.49 34.743-95.848 56.536-138.145M1722 765.94c8.08 10.166 27.09 75.36 30.87 91.194 2.9 10.008 6.6 19.778 9.12 29.897 6.09 24.346 8.66 49.25 9.89 74.259 1.11 22.021 6.35 43.44 5.93 65.59-1.75 92.71-24.1 190.45-65.52 273.66-4.02 8.09-7.2 18.62-11.63 25.98l-1.41-1.02c-21.43-34.53-28.05-48.94-38.44-88.08-15.64-58.85-20.6-115.47-21.75-176.29-1.47-58.94 3.33-116.745 20.73-173.327 14.39-46.76 27.31-85.823 62.21-121.863M774.942 1105.6c5.035 12.74 9.186 40.99 12.761 55.79 11.166 46.23 19.217 93.7 32.733 139.33 6.512 21.99 13.997 28.3 33.648 38.59-31.883 11.03-83.617 21.01-117.236 23.99-8.835 1.1-39.595 2.98-45.144-4.43-2.756-9.58 3.141-14.51 3.554-21.87 2.048-36.46-12.775-89.59-29.783-119.9 35.84-10.29 76.675-36.55 95.921-69.29 7.112-12.11 10.66-28.54 13.546-42.21m496.548 4.31c5.82 16.38 4.69 24.27 14.82 43.02 21.58 39.96 51.22 55.76 92.28 68.97-12.77 33.6-29.28 93.19-27.61 128.15-15.92 1.8-31.93 2.84-47.96 3.11-23 .11-45.99-1.35-68.8-4.35-12.96-1.81-26.76-5.21-39.58-6.21 7.99-5.14 20.13-13.11 25.01-21.52 16.83-29 20.57-65.32 28.17-96.92 9.18-38.15 15.44-76.51 23.67-114.25m-109.18-823.7c20.99 1.655 43.41 8.289 63.88 13.345 94.97 23.468 177.44 62.369 260.53 113.388 2.3 18.734 4.47 30.577 9.1 48.857-6.04-3.262-12.91-7.425-18.55-11.112-71.83-46.992-147.49-80.641-230.3-102.952-24.71-6.657-48.92-15.326-74.61-20.956-2.68-15.976-3.43-25.733-10.05-40.57m223.84 1375.83c2.38 1.61 13.99 27.02 16.13 31.77-130.46 59.83-239.69 83.85-383.47 86.07-5.88.06-12.4-.23-18.32-.4a234 234 0 0 1 17.94-29.64c127.85.72 253.98-29.4 367.72-87.8m306.74-269.3c8.12 4.74 17.1 11.96 24.25 18.05-62.88 102.73-181.38 210.78-287.69 267.4l-6.68 2.65c-4.52-9.83-9.68-20.02-14.49-29.77 22.28-15.24 46.99-28.16 69.18-43.52 64.38-44.58 127.73-92.52 175.03-155.76 14.37-19.21 28.67-38.09 40.4-59.05m-1091.797 33.27c13.593.84 27.155 1.58 40.698 3.03-7.859 17.47-14.747 38.8-21.318 56.88-12.858 35.38-24.696 71.57-39.265 106.27-12.537-8.57-29.013-21.05-40.235-31.08 12.146-40.73 36.642-99.86 60.12-135.1m843.787.49c13.81 11.66 51.07 109.5 58.93 130.65-9.18 6.8-31.79 24.28-41.2 29.3-11.61-37.28-23.38-73.62-39.5-109.25-6.78-15-14.56-28.88-21.73-43.67 13.87-2.68 29.54-5.75 43.5-7.03m371.78-272.63c-.39 7.49-4.66 27.1-6.35 35.03-13.99 65.5-45.23 144.06-80.07 201.3-5.56-3.74-10.5-6.34-16.4-9.5-4.28-2.06-7.61-2.65-12.2-3.76 22.17-35.19 43.86-83.27 59.21-122.41 8.83-22.51 14.11-51.26 24.75-72.33 5.29-10.46 21.64-21.99 31.06-28.33m-792.57 184.62c20.46 5.46 45.13 14.3 65.41 21.12l106.15 35.77c17.06 5.73 57.16 20.67 72.88 21.36 37.54 1.65 82.86-6.43 120.67-10.83 11.98-1.05 24.32-4.99 36.22-5.11 2.87-.03 8.3 3.55 7.65 7.18l-2.27.59c-45.09 7.09-91.68 13.22-137.06 18.33-11.07.73-24.26 2.23-35.12-.84-61.41-17.4-121.8-39.96-181.87-61.55-7.98-2.86-50.93-16.73-54.62-19.8-.52-3.25-.1-2.55 1.96-6.22"/><path fill="#fefefe" d="M1035.25 1318.22c11.49 5.45 35.26 12.23 48.04 16.2l85.1 25.82c20.68 6.08 78.48 25.74 97.17 26.41 41.33 1.49 96.2-6.56 137.95-10.63 2.62 2.15 6.7 5.08 7.33 8.28l-2.07 1.12c-43.9 5.7-103.73 14.18-147.67 12.69-12.06-.41-52.43-14.74-65.87-19.35q-34.5-11.835-69.21-23.1c-19.85-6.55-39.75-12.98-59.69-19.29-6.46-2.04-26.54-7.91-31.67-10.6-1.17-3.33-.41-3.39.59-7.55m-48.954.79c3.191-.25 3.022-.13 6.07 1.01l-.185 1.19c-4.89 2.9-19.715 7.63-25.875 9.88l-59.095 21.44c-31.741 11.49-63.09 23.55-94.681 35.35-21.839 8.15-52.99 4.97-76.351 3.83a4538 4538 0 0 1-95.423-5.71c-4.132-.35-3.53.38-5.831-1.88l.296-1.52c2.021-1.63 4.502-2.4 7.11-2.2 46.059 3.57 94.235 7.87 140.356 7.57 29.915-.2 75.353-23.01 104.496-33.65z"/><path fill="#fefefe" d="m999.09 1341.13 1.15.86-.425 1.63c-6.384 4.21-65.729 25.42-76.315 29.37l-73.689 27.46c-7.728 2.87-41.071 15.4-47.935 16.12-30.655 3.23-71.492-1.65-103.057-3.58-23.142-1.42-59.447-3.07-80.566-6.48-1.953-.51-1.005-.05-2.761-1.53 7.701-2.88 154.575 12.38 179.117 7.87 29.072-5.33 41.234-12.49 68.515-22.3 45.254-16.27 90.415-34.66 135.966-49.42m826.2-251.42c1.35 7.16-2.18 31.93-3.4 40.18-4.68 1.4-8.64 3.12-13.14 4.97-.51-2.01 3.39-7.36 4.57-10.31 4.54-11.33 8.21-23.24 11.97-34.84"/><path d="M1016.24 312.692c3.44-.505 7.7-1.389 10.72.379-2.52 1.556-5.36 1.081-8.47 1.043-3.07.739-7.36 2.086-9.98-.061 2.86-1.859 3.68-1.204 7.73-1.361M561.452 1597.74c4.463.58 17.27 10.19 21.873 13.38-6.661-1.14-16.738-8.78-21.873-13.38"/><path fill="#535357" d="M243.488 1248.57c4.003 4.11 5.517 11.29 6.871 16.81-3.5-2.91-5.401-11.98-6.871-16.81m651.446 485.85c5.103-.72 8.408-1.11 13.042 1.12-5.344.83-8.114.91-13.042-1.12"/></svg>