<svg xmlns="http://www.w3.org/2000/svg" preserveAspectRatio="xMidYMid meet" viewBox="0 0 2048 1462"><path d="M1838.61 100.542c16.37-.221 27.3-4.936 37.48 11.025-.13 16.381.41 32.771.2 49.178.05 6.801-1.3 15.179-6.64 19.941-5.06 4.518-15.94 3.229-22.4 3.08-.63 8.614-1.11 28.799-.23 36.446 5.25 45.944-22.37 25.321-35.41 33.39-1.94 2.581-1.88 4.595-1.8 7.895.53 23.895 1.14 47.702 1.28 71.608l4.24 316.365 3.38 283.573c.23 75.667 1.36 151.317 3.38 226.957 17.23-.12 53.29-1.31 67.58 4.14 11.27 4.3 7.81 70.82 7.81 82.8 0 13.73 6.54 56.94-11.07 59.24-10.22 1.33-27.64.84-38.65.67l-65.53-1.08c-13.26-.32-31.04-1.32-44-.63-23.12 16.37-38.02 26.19-66.59 32.08-67.95 14.01-137.46-1.87-195.35-38.46-77 .37-156.33-1.7-233.48-2.69-13.53 19.38-32.35 25.63-55.55 22.33-1.2.85-2.4 1.69-3.61 2.52-29.75 20.5-52.03 6.76-85.57 7.77-46.42 1.39-125.097 27.92-157.559-19.89-21.637-1.45-43.883-2.28-65.333-5.51-12.935-1.95-18.947-5.89-27.676-15.28-12.285 1.11-30.412.63-43.161.65l-67.089.23c-37.098-.04-77.919 1.73-114.403.32-10.229 8.43-21.557 17.98-32.426 25.41-74.419 50.88-199.613 58.78-274.419 5.26-5.374-4.82-12.066-10.45-16.611-15.9-11.64-.99-26.411-.28-38.317-.05l-57.118 1.06c-12.485.22-32.792 3-42.729-5-5.154-4.15-5.113-12.27-5.197-18.44-.756-39.22-2.064-78.86-2.206-118-.077-21.1 55.141-15 71.023-15.16l-8.35-884.261c-.214-16.186-21.571-4.516-29.892-14.603-6.699-8.12-4.555-38.885-4.548-50.349-17.122-.616-29.658-3.228-29.43-23.853.211-19.012-5.231-48.716 6.166-64.772 2.874-4.049 11.537-3.887 16.345-3.938 22.931-.242 45.891-.147 68.828-.164l137.521.217 301.816-.057 712.455-2.508c82.53-.052 165.06-.649 247.58-1.791 63.93-.358 131.45-.152 195.26-1.769"/><path fill="#fefefe" d="M650.637 478.683c3.544.731 35.607.444 41.087.438l98.801-.128 394.335-.037 84.58-.071c11.12.005 24.26-.284 35.49.612 3.51.279 3.83 10.05 6.73 14.019 8.61 11.771 19.85 14.92 33.09 17.544-.35 14.905.41 24.065 2.21 39.056 1.55 12.933 7.01 32.111 5.62 44.457-.39 3.494-8.64 14.584-10.36 21.652 2.08 10.439 16.32 5.508 23.77 3.842 10.91 16.562 20.01 28.32 34.58 41.768 1.83 1.692 5.57 9.624 9.02 13.466 8.79 2.893 14.73 2.35 23.81 2.29 5.73 10.861 14.62 21.535 21.11 33.179-9.63 9.955-110.7 115.546-112.05 115.423-51.96-4.737-73.9.192-105.62 49.004-13.17 20.254-20.55 42.348-30.87 63.675-15.66 10.37-30.69 18.843-38.64 35.635-3.19 1.213-7.09 2.497-10.47 3.173-39.73 7.942-51.9 72.75-21.96 97.74 8.3 6.92 16.49 10.22 27.25 13.2-3 6.96-9.46 18.5-13.16 25.52-15.15-1.47-40.65-.33-56.87-.51l-157.626-.34c-11.071-21.51-30.751-63.65-44.103-82.28 12.99-14.06 11.672-24.2 8.44-41.838-6.075-31.3-16.021-36.483-35.098-57.72-13.221-61.492 42.747-105.546 61.695-156.734 7.098-19.177 5.99-33.514 7.283-52.886 18.718 48.002 7.168 63.56-10.185 105.434 13.238-10.702 20.175-25.876 27.243-45.426 9.142-25.289-1.299-70.176-26.404-85.768-1.594-.99-4.41.533-6.062 1.457l-1.151 2.387c3.822 19.207 4.75 46.439-1.203 64.852-18.591 57.501-69.54 91.888-63.899 157.943-4.925-4.87-10.635-9.031-15.368-14.355-9.849-11.08-16.6-21.031-28.365-30.446-25.401-20.327-46.659-18.349-76.502-15.3-14.379-15.712-37.554-49.176-50.773-67.25q1.435-1.33 2.845-2.684c15.846-15.263 18.888-32.767 19.259-53.909 22.506-10.42 30.904-19.496 42.807-41.246 7.648.415 15.749 4.707 21.892-.235-.216-4.803-3.925-12.02-5.294-16.647-11.051-37.351 16.964-41.141 30.53-65.753 5.54-12.763 5.07-32.491-.345-44.779-23.136-50.216-67.851-62.737-116.557-69.97-76.807-11.406-90.284 45.745-145.61 68.015.142-23.895-1.237-54.251.787-77.509 6.192-4.462 8.039-6.006 13.219-11.662 31.278.217 76.748 1.294 107.062-.298"/><path d="M1126.16 810.602c3.51.581 5.99 1.172 7.12 4.881 2.39 7.864 2.88 16.868 5.65 24.562 12.24 33.911 38.41 66.531 25.48 104.497-1.47 4.325-4.61 9.267-8.85 11.088-6.71-2.927 2.14-23.093.91-34.584-2.56-24.038-13.69-45.64-24.02-67.1 4.45 18.599 10.08 40.378 11.73 59.205l-1.53 1.313-2.1-.182c-4.63-8.192-15.88-64.99-16.98-77.324-11.45 14.951-22.81 21.181-33.7 38.46-24.7 35.663 9.51 71.758-1.01 108.42-2 6.956-13.38 30.072-22.01 26.932-3.42-7.11 11.69-25.105 12.33-36.676 1.4-25.469-21.53-65.86-37.38-83.541l-.7-.77c5.82 23.68 20.93 47.979 8.94 75.697-1.34 3.103-3.55 6.664-6.76 7.725-1.55-3.679 10.17-33.805-4.89-64.762-13.28 27.963-38.03 42.56-53.951 68.602-2.558 4.185-4.568 13-7.52 16.422l-1.755-.515c-1.34-4.621 1.608-11.233 3.431-15.423 16.218-32.631 44.745-44.612 53.905-77.298.86-3.037.69-11.147.64-14.638-5.05 9-9.35 17.507-16.28 25.252-22.855 25.538-46.433 41.967-59.141 75.53-11.651 30.775 20.992 52.155 9.757 83.905-.961 2.72-1.055 2.5-3.149 3.48-6.628-5.03-3.69-23.48-8.661-30.59-8.489-12.14-18.934-20.6-28.086-33.28-12.252-16.99-11.191-26.178-17.872-40.765-2.241 2.447-1.831 2.879-4.323 3.206-5.859-5.915 2.289-39.865 15.874-40.624 5.557 6.008.224 20.342.783 28.509 1.476 21.576 10.486 36.433 22.989 53.054-4.07-58.602 42.218-79.819 72.209-121.374 6.07-8.399 8.83-28.25 13.17-37.887.97-2.16 3.11-2.14 5.06-2.434 1.29.538 3.71 1.358 4.13 2.833 6.45 23.061 18.65 38.762 31.51 58.678a46 46 0 0 1-.7-3.468c-5.08-30.549 21.35-54.737 39.7-74.129 2.72-2.875 12.37-19.673 16.05-24.887m-97.04-245.165c.45.034 2.35.166 2.9.443 26.39 13.489 49.05 68.085 57.64 95.18 1.85 5.817 2.34 21.202 2.42 25.446.51 25.643 2.6 38.883 16.22 60.869 8.74 14.1 12.75 34.116 7.17 49.962-1.38 3.928-1.62 5.631-5.31 7.618-2.96-1.952-3.25-15.517-3.2-18.992.36-26.161-17.42-40.579-23.83-63.779-2.71-9.826-3.17-28.425-3.54-39.282-.89-26.226-15.82-60.735-30.6-82.519 6.35 20.724 12.5 48.455-3.6 66.602l-1.34-.006c-.3-6.062 3.36-16.143 4.36-22.635.93-6.049.64-10.424.39-16.579-.52-4.629-1.83-9.229-2.97-13.757-2.36 9.607-3.77 16.732-8.28 25.675-18.47 36.587-52.807 42.138-63.507 86.117-10.245 42.109 23.396 66.318 12.917 104.433-1.287 4.682-5.87 13.217-10.653 15.587l-2.05-.771c-4.821-9.344 4.241-16.086 3.939-29.77-.528-23.938-13.57-36.462-16.969-60.053-4.525-28.42 8.193-58.938 28.458-78.737 15.375-15.02 28.965-24.96 38.365-45.149 9.34-20.066 2.15-37.785-1.69-58.143-.72-3.827.74-5.051 2.76-7.76"/><path d="M1059.54 660.375c20.54 2.578 5.5 50.801 2.37 62.854-1.9 7.309-1.52 15.723-1.9 23.212-.52 10.165 11.77 25.345 11.78 33.975l-2.8.098c-2.1-1.266-2.55-1.698-3.97-3.755a72.67 72.67 0 0 1-10.96-58.203c2.46-10.066 5.47-19.743 6.97-30.112 1.23-8.569-2.81-21.056-1.49-28.069"/><path fill="#fefefe" d="M1739.67 252.48c14.04-.309 28.09-.434 42.13-.374q1.53 99.909 1.62 199.83l2.52 264.89 1.36 140.528c.16 18.934 1.68 49.631.08 67.081l-.88-.322c-15.2-71.637-74.66-199.334-119.96-257.128l-.57-.715c-2.04-71.1-.44-142.539-1.43-213.68-.26-18.859.74-38.134-.94-56.885-.94-10.519-10.38-21.808-21.61-21.302-22 .086-43.98.289-65.97.299l-162.4.208-488.218.34-333.541-.146-116.589-.147c-17.967-.004-35.938-.195-53.898-.135-10.001.034-16.45 4.436-22.949 11.467-1.933 9.623-1.265 28.073-1.223 38.463l.348 60.366 1.677 232.132c.093 21.387.547 43.4-.078 64.712-67.395 89.204-113.093 170.552-133.958 281.808a392 392 0 0 0-5.717 45.71c-.673 10.34-1.437 32.54-3.687 41.58l-.282 1.09c-1.801-46.71-1.534-92.04-2.034-138.72l-2.387-321.427L247.991 376c-.134-38.017-2.248-82.655-1.004-119.919 47.27-1.058 95.611 1.589 143.009.365 9.364-.241 20.076 1.316 29.796 1.41l176.763.04a38409 38409 0 0 0 821.145-2.646l226.12-1.895c28.71-.296 68.18 1.002 95.85-.875"/><path fill="#fefefe" d="M447.665 738.774c30.523 6.723 56.482 11.585 87.676 8.447 14.418 10.607 28.522 22.964 43.113 33.543 7.865 5.702 17.823 8.661 24.488 15.284 23.413 23.264 42.684 51.483 63.806 76.232 56.249 65.907 135.545 136.92 217.208 167.96 6.005 11.44 19.969 61.36 5.535 68.38-20.119 9.78-62.541-1.62-84.181-5.93-30.933-6.18-62.753-18.28-90.856-32.49-71.325-41.12-149.459-102.332-195.285-171.384-2.895-4.363-3.927-6.981-8.969-8.139l-1.637 1.278c-1.061 3.384-.538 4.187.376 7.805 15.017 31.335 36.901 50.128 60.097 74.791a953 953 0 0 1-46.817 85.169c-55.991 92.37-126.597 178.14-230.578 217.11-41.495-75.33-20.839-215.18 5.71-293.125 30.629-89.923 91.153-171.97 150.314-244.931m1313.025-553.22c.72-.131 13.57-.039 15.23-.048l40.98-.299c.92 6.077 2.87 32.775-.88 36.652-6.95 2.577-167.97 1.933-190.44 2.165l-832.239 3.703-303.613.028c-54.709-.119-111.424-1.263-165.978-.444a3771 3771 0 0 0-111.747-.942c-.264-8.496-.145-17.268-.142-25.787 12.251-1.116 29.62-1.018 42.171-1.202l89.824-.641 307.233-2.685 702.511-6.819c90.41-.319 180.81-1.148 271.21-2.489 42.6-.384 94.19.744 135.88-1.192m7.73-55.075c26.44.448 52.81-.351 79.24-.101.24 7.665.05 16.477.06 24.232-76.92 1.537-156.55.883-233.7 1.421l-444.41 4.064-573.61 4.85a27419 27419 0 0 1-326.75 2.624c-23.104.152-68.702 2.121-88.844-.401.885-10.725.169-20.138-.437-30.855 41.628-2.271 93.37-.313 136.021-.171l252.15.58 859.04-2.724 255.45-2.592c27.63-.458 58.65.411 85.79-.927m-428.3 995.191c2.15 1.1 9.09 12.31 10.82 15.05 29.26 46.36 62.08 89.9 98.26 131.04-5.11.21-10.54-.06-15.69-.23-24.66-.81-49.73-.15-74.34-1.59-.96.43-99.09-1.02-110.03-.98 2.15-13.56 2.35-33.2 5.24-46.09 2.04-9.13 15.91-30.2 21.01-39.77 10-18.76 22.05-38.12 31.33-57.15 11.13.04 22.27-.06 33.4-.28m-391.715-2.15c12.162 1.31 47.303.56 61.465.6l134.82-.09a7542 7542 0 0 1-44.43 87.4c-4.05 7.2-15.71 34.84-21.54 35.18-26.73 1.6-75.12-18.24-97.11-28.47-11.844-31.51-28.823-62.55-42.116-93.12 1.643-1.48 6.146-1.28 8.911-1.5M751.578 573.678c6.837 7.138 11.101 31.231 11.911 40.927 1.577 18.881-13.215 33.048-14.855 51.949-.593 6.831 4.962 19.255 3.963 23.115-1.989.842-15.218 6.449-15.885 7.121-8.208 8.266-22.911 27.127-34.661 29.641-14.217 3.04-53.844-26.449-66.09-35.597-6.429-4.156-10.455-7.419-16.32-12.204 1.542-6.286 2.849-13.778 4.136-20.207l5.05-1.959c2.111-3.024 1.561-1.395 1.74-5.056-1.692-3.492-9.797-7.933-14.086-11.847-11.831-10.796-4.186-41.559 13.687-40.031 9.913.848 15.629 8.236 22.012 15.647 6.755-.1 12.289-.749 18.871-2.267 29.028-6.69 61.936-14.067 80.527-39.232"/><path d="M722.064 606.074c10.333-.127 29.571 3.246 32.667 15.051-1.126 3.995-.271 2.658-3.022 5.383-10.363-4.853-18.247-7.492-29.046-11.094-2.996-.999-3.333-2.014-4.323-4.266 1.098-3.484.651-2.34 3.724-5.074m-10.88 24.753c11.169.35 31.79 2.195 24.278 18.231-6.309-1.926-13.363-9.954-22.504-10.193-1.72-.045-1.684-.522-3.173-1.806-.574-3.061-.036-2.751 1.399-6.232m-11.578 50.554c3.793 1.172 12.285 18.202 14.115 22.641l-1.607 3.159c-10.672-2.6-19.283-16.57-12.508-25.8"/><path fill="#fefefe" d="M1356.38 507.541c37.88 4.228 61.42 17.065 94.63 34.898 4.19-4.048 9.98-11.428 14.62-14.08 21.7-12.426 41.1 15.968 34 35.385-3.03 8.26-16.77 13.609-23.8 16.944-1.22 4.537 7.48 23.903 9.86 30.453l-6.89 6.133c-16.93 11.285-40.71 36.421-58.76 34.892-28.82-2.44-37.25-27.765-50.76-42.438l-.79-.847c-5.23 1.983-8.23 2.887-13.66 4.253 6.68-16.651 8.69-20.948 6.53-38.782-2.47-20.349-8.41-46.592-4.98-66.811"/><path d="M1385.71 532.061q4.14-.312 8.28-.454c5.94-.164 9.2.13 13.69 4.364l.05 1.928c-5.61 6.11-17.06 3.959-26.15 7.443l-1.15.448c-4.62 2.604-11.53 9.278-15.72 3.888 1.01-9.774 13.21-14.759 21-17.617m29.06 77.757 3.15.73c7.37 8.352-10.7 17.365-18.99 17.558-4.05-1.143-5.5-1.564-6.35-5.831 2.01-4.435 14.59-7.857 21.05-11.759zm-21.46-43.982c1.57.466 3.13 1.941 4.54 3.023 3.04 7.555-9.46 12.923-15.09 15.189-4.09-1.367-5.81-2.061-6.97-6.228 1.41-4.626 12.52-9.121 17.52-11.984"/><path fill="#fefefe" d="M721.201 1120.48c7.242 1.46 15.4 1.24 22.871 1.37 6.26 12.68 15.026 25.76 22.245 37.94 21.497 36.25 45.147 67.78 71.132 100.8-9.144-.15-67.657-.87-74.51.49-8.602-1.1-19.21.27-27.649-.07-24.635-.97-67.321 3.21-90.46-.12 25.718-33.07 61.725-100.3 76.371-140.41m364.559 135.4c27.12 16.15 76.67 20.48 108.12 22.75-14.47 62.71-55.77 37.55-101.59 39.78-11.77.58-22.51 1.73-34.13 3.76-31.66 5.51-86.781 13.69-107.111-18.07 33.689-6.99 57.071-13.65 88.181-28.3 15.09-7.1 31.15-12.04 46.53-19.92m-898.757-79.46 70.771-.5c-.687 18.26 8.339 59.57 13.117 78.34 1.46 5.73 5.874 13.9 7.7 20.95-2.656 1.19-7.471.84-11.031 1.67a93 93 0 0 0-10.286-.3c-25.014.67-50.149.31-75.112 2.23.703-13.53-1.972-98.74-.178-101.67zm1609.327 10.74c23.94.47 47.53.57 71.47 1.48-.35 7.55.39 18.67.44 26.69.05 20.77.3 41.53.74 62.29-7.23.17-20.14 1.11-26.73.32-24.02 1.18-54.12-.99-79.57-.55 21.04-32.91 28.42-50.41 33.65-90.23M418.325 494.106c28.959 2.127 69.349.56 99.543 1.012.259 16.661 1.419 48.449-1.355 65.135-.334 2.011-3.6 3.079-5.386 3.837-11.672-.863-25.022-.291-36.878-.212l-55.663.035c-3.532-3.575-4.755-4.45-8.808-7.269.44-18.091-.47-35.985.163-54.171zm150.288-107.975c10.037-.013 69.366-1.255 72.653 1.5 2.033 4.525 2.499 5.612 6.591 8.683l-.842 62.859c-3.666 2.391-4.492 3.771-7.068 7.156l.041.935c-2.707 2.106-62.102.887-71.245.807-1.925-4.791-3.176-6.042-6.399-10.034 1.116-18.826-.582-44.329 1.717-61.824 3.068-3.925 4.094-4.958 4.552-10.082m94.724.071c22.532.004 49.26-.439 71.616.308 10.824.362 7.017 62.439 6.856 72.035-2.95 3.532-4.592 8.395-8.002 10.344-20.778-.537-44.392-.737-65.125-.227-3.545-3.912-5.747-5.857-9.783-9.303.267-11.821-1.389-59.358 2.519-66.08 1.459-2.509 1.762-4.201 1.919-7.077m375.873.076c11.8.927 66.89-3.56 72.98 2.552 7.84 7.86 4.39 56.727 4.36 70.027-4.28 3.47-4.89 4.14-7.13 9.181-16.85 1.373-52.04.417-70.29.445-9.7-17.807-4.31-50.075-4.35-70.398-.01-3.298 4.47-4.399 4.43-11.807m-186.269-.23c10.11.033 67.504-1.381 71.402 1.614 1.313 3.628 2.145 4.72 4.662 7.651q.073 32.389-.392 64.773c-3.993 2.929-5.891 3.882-8.025 8.349a2405 2405 0 0 1-68.479.161c-1.73-2.983-3.903-6.163-5.798-9.085.05-11.54-1.813-58.37 2.948-65.631 1.5-2.288 2.401-4.266 3.332-6.838zm-93.413.033c17.042.273 55.354-1.171 70.211.729 6.683 5.238 6.451 64.669 3.852 72.76-2.872 2.923-3.562 3.792-4.827 7.691l-.508.919c-5.798 1.308-58.755.664-68.195.642-2.282-4.645-2.837-5.521-6.086-9.548.43-11.967-1.977-58.078 3.167-66.143 1.4-2.196 1.877-3.568 2.268-6.16.045-.296.079-.594.118-.89m188.725.136c19.224.015 46.922-.613 66.647.539.94.781 1.74 1.445 2.39 1.992.88 3.62 1.83 4.511 4.38 7.206.53 21.369-.59 42.843-.14 64.284-3.79 2.651-4.42 3.618-7.14 7.137l-.55.836c-4.18 1.177-64.054.765-68.016-.278-8.198-8.369-3.857-56.073-4.065-71.155 3.272-4.3 4.374-5.541 6.494-10.561m187.247.107c8.81-.274 61.72-.964 67.89.515 1.99 4.604 2.54 6.236 6.43 9.583.01 17.744.05 35.807.28 53.529.19 14.873-5.68 8.81-7.67 18.965-22.26-.576-44.89.022-67.38-.431-1.91-3.137-4.12-6.444-6.13-9.555 1.48-18.11-2.35-59.179 6.58-72.606m92.13-.296c14.59.014 57.53-.963 70.41.68 7.38 8.209 4.9 57.529 4.83 71.822-4.48 3.214-5.31 4.963-8.14 9.796l-2.48.393-65.16-.457c-9.38-16.656-3.06-50.98-4.01-70.265.05 1.142 4.16-9.968 4.55-11.969m-809.133.227 88.227-.176c7.346-.011 35.283-.526 40.571.6-1.057 6.176-.96 5.242 3.756 8.743 1.104 4.407-.169 53.913-.131 62.837l-5.238 6.296c-.498 1.056-.123 1.752-1.071 3.604-4.858.903-10.602 1.415-14.943-1.276-38.294-23.744-74.074-53.507-111.412-78.643zM919.79 1236.28l2.153-.03c6.783 7.86 11.978 10.29 21.406 14.48 20.855 9.29 41.345 19.93 63.161 26.81-25.31 12.84-44.251 8.28-65.876 20.79l-10.883-.67c-16.559-.84-49.649-1.28-64.496-8.08-11.155-5.11-15.906-20.71-19.238-31.6 23.782-6.02 51.866-17.29 73.773-21.7M409.261 395.546c11.057 6.531 104.301 73.502 108.644 79.527 1.367 1.898.148 5.541-.208 7.754-12.318 3.004-79.843.944-97.291.892-4.025-3.39-7.205-5.67-11.539-8.681.54-26.418-.827-53.058.394-79.492M1523.27 871.602c2.46 1.562 3.54 2.213 4.11 4.91-5.91 10.583-56.05 54.637-66.66 65.586 4.91 5.224 9.21 12.279 13.76 18.049 18.99 24.096 38.36 48.003 56.66 72.633 4.79 6.45 21.56 23.18 19.71 30.52l-2.15.56c-8.67-4.85-81.62-101.041-93.71-116.684-7.19 3.75-34.43 23.607-42.7 29.263A533 533 0 0 1 1338.5 1019c-24.43 11.73-134.85 60.18-155.78 52.95l.39-1.69c15.76-5.21 47.91-14.31 61.86-19.43 76.64-28.14 149.61-66.361 212.87-118.173 22.29-18.249 44.91-40.894 65.43-61.055M418.758 575.085c3.897-.263 8.632-.259 12.571-.225 27.504.239 55.312-.799 82.784.183-23.262 8.956-37.419 15.308-53.646 34.71-9.489 14.079-10.891 27.653-18.891 43.145l-23.165 1.219c-3.145-4.423-4.283-5.312-8.327-8.83-.214-19.312-.259-41.702.362-60.856 3.007-2.957 5.586-6.132 8.312-9.346m902.282-189.012c9.02-.037 74.96-.827 78.29 1.101 1.45 11.334-7.32 18.227-6.64 30.443-16.27-4.903-24.45-6.777-40.07-.565a66 66 0 0 0-2.67 1.49c-10.4 6.169-16.35 16.78-15.55 29.025.28 4.261 1.88 9.101.91 12.884-8.39.681-10.09 1.397-17.86 4.627-2.2-9.984-1.54-53.691-1.74-67.205 2.67-4.524 4.2-6.652 5.33-11.8M622.244 800.689c18.343 4.566 29.277 4.142 47.268.078 15.383 21.421 32.759 46.08 50.564 65.112l-7.02 3.105c-9.334 3.659-16.449 6.248-24.925 11.712-20.523-18.896-43.268-55.983-65.887-80.007M1651.66 559.277c.47 17.149 1.27 51.609-.06 68.196-1.76 2.106-2.21 1.405-6.06 1.757-5.89.6-17.99 1.052-23.71-.418-8.02-15.21-15.94-43.271-25.47-62.431 1.56-2.525 3.73-4.943 5.64-7.245 16.55-.058 33.1-.011 49.66.141m-3.15-165.382 1.73.271c2.7 6.542 1.61 60.836 1.55 71.608-6.76.199-41.33 1.395-45.19-1.126l.04-2.9c-.34-13.515-5.05-21.212-11.76-32.486 13.28-10.3 38.88-26.051 53.63-35.367m-29.49 82.553c5.26-.018 29.58-1.027 32.47 1.58.64 9.231 1.33 61.004-.31 68.604-5.05 1.489-15.91 1.072-21.32.922-7.89.532-14.3.826-22.24.846 7.66-12.898 14.53-27.833 10.51-43.202-2.41-9.234-12.28-17.519-15.49-26.631l.81-1.202c5.39-.526 10.14-.732 15.57-.917m-101.58-90.564c40.07.946 81.18-.415 121.62.273-8.41 4.725-19 11.917-27.32 17.228-8.6 6.22-16.86 11.597-25.78 17.359-18.04-13.453-29.99-11.681-48.24-.53-2.82-18.217-7.05-21.784-20.28-34.33M971.193 1224.32l2.711-.21a203 203 0 0 0 55.356 24.1c11.09 2.87 18.9 3.8 30.15 7.61-12.74 5.78-25.93 9.71-39.08 15.32-7.59.09-78.126-33.08-88.742-38.3 12.021-3.9 26.993-6.28 39.605-8.52M627.195 699.102c4.096 2.549 11.564 8.626 15.657 11.76-3.255 8.483-5.847 14.827-9.911 23.041-7.962 16.092-19.667 31.054-22.216 49.097-.219 1.551.08.775-1.219 2.036l-2.771-.984c-4.75-2.067-13.534-6.645-16.919-10.72-.226-.273-1.299-1.978-1.251-2.117 4.48-13.025 20.198-29.761 26.308-41.044 6.676-12.327 10.141-19.665 12.322-31.069m23.556 16.865c6.257 3.245 8.074 4.235 13.438 8.695-3.022 28.43-14.216 42.21-25.153 66.702l-2.283.23c-20.794-1.78-18.507-7.935-9.915-26.002 8.131-17.095 17.887-31.27 23.913-49.625m509.719 272.097 1 .091c.69 1.989-2.91 5.844-4.25 8.062a58 58 0 0 0-6.24 14.233c-4.5 15.32-4.77 41.22 5.93 54.67 2.9 3.64 9.53 7.83 11.55 11.61-3.37 1.47-8.57-.21-12.34-1.01-2.09-.95-4.16-1.94-6.21-2.99-23.44-12.09-26.26-43.44-14.45-64.75 6.58-11.868 12.29-16.036 25.01-19.916M418.559 664.982c3.808-.376 11.808-.158 15.939-.161-4.255 9.871-11.407 19.216-14.727 30.566-5.565 19.023 17.503 34.216 17.552 39.488-8.114 9.668-14.866 6.794-26.579 5.78-2.2-3.738-.619-60.483.254-67.774 2.234-2.736 5.043-5.383 7.561-7.899m821.031 584.748c.75 3.27-.69 9.18-.75 12.79-.59 34.94-11.54 42.7-44.54 47.1.02-1.49 8.54-24.27 9.86-29.45 7.92-.2 10.76-.4 18.47-2.06 4.19-8.39 11.14-21.21 16.96-28.38M616.475 690.691l1.756 2.188c2.64 18.24-22.65 46.679-32.341 61.618-2.471 3.81-4.87 9.246-6.742 13.441l-13.208-9.717c-4.731-3.319-10.133-8.044-14.66-11.793 36.728-4.01 50.855-24.092 65.195-55.737m670.115 198.304.78 1.03c-20.4 25.527-76.39 71.046-106 86.371-1.09-1.05-.61-.584-1.12-2.347 1.61-3.32 9.76-10.912 12.92-12.987 33-21.637 62.05-48.545 93.42-72.067m-432.895 49.664c5.533 2.408 17.418 16.463 20.696 21.908 10.264 17.051 17.619 36.104 13.348 56.023l-3.704.17c-4.515-4.23-7.711-28.065-10.689-36.33-5.691-15.794-11.984-27.151-19.651-41.771M672.829 729.668c2.419 1.215 3.301 1.402 4.771 3.701 3.811 19.42-12.121 43.715-21.288 59.776-2.189-.07-4.484-.229-6.681-.349-.368-4.877 6.145-16.519 8.784-21.225 7.706-13.745 10.941-26.645 14.414-41.903"/><path fill="#fefefe" d="M1359.34 1019.86c2.73 8.93-24.59 53.9-31.25 63.31-1.56-4.57 7.83-24.93 10.26-29.82 6.14-12.36 8.88-25.91 20.99-33.49m63.52-634.418c5.11-.651 38.2.47 45.1.583-4.81 4.651-5.5 6.282-8.19 12.194l-3.07 7.209c-7.26-8.226-10.24-10.817-20.55-15.618-4.35-2.025-11.17-2.242-13.29-4.368M687.175 736.269l2.922 1.088c6.583 10.269-6.736 37.827-14.263 46.519l-2.271.585c-.888-2.535 3.11-7.54 4.693-10.65 6.163-12.1 7.032-24.404 8.919-37.542m634.755 359.191c4.25 4.06 9.51 13.93 12.65 19.33-3.27-.06-6.55-.16-9.82-.31-3.58.18-5.86.37-9.48 0l-1.24-1.66c.02-2.83 6.15-13.56 7.89-17.36M413.922 751.073c3.771.311 5.208-.171 7.213 2.108-.695 3.546-5.457 8.185-8.102 11.197l-2.359 1.98-.987-1.125c-.142-5.085 1.795-9.778 4.235-14.16m318.473 348.677c2.253 2.75 3.879 6.63 3.473 10.21l-2.929 2.01c-3.712-1.03-2.861-.25-5.236-2.72-.193-3.32 2.654-6.49 4.692-9.5"/></svg>