<svg xmlns="http://www.w3.org/2000/svg" preserveAspectRatio="none" style="display:block" viewBox="0 0 2048 2048"><path fill="#FEFEFE" d="M0 0h2048v2048H0z"/><path d="M1792.78 145.332c14.92-.654 19.56-.979 33.84 1.993.24.246.49.488.73.736 7.24 7.478 9.4 17.243 9.24 27.427-1.17 73.733-106.82 181.72-156.85 234.252-14.88 15.625-28.84 31.868-44.41 46.875 19.42 22.904 51.59 73.222 65.78 99.738 99.96 183.391 121.81 399.321 60.61 599.017-55.78 183.47-174.8 341.22-335.9 445.24-28.28 18.01-59.42 36.5-91.04 47.76-8.44 3.01-18.81 8.89-26.87 13.19 2.96 1.64 5.75 3.36 8.35 5.53 24.02 19.99 32.92 35.26 35.66 66.23.93 10.56 2.07 21.43 5.49 31.52 6.22 18.33 19.86 37.07 21.22 56.65.58 8.26-1.85 14.54-7.47 20.54-45.03 48.06-224.14 56.18-290.05 59.68-16.7.88-33.21.27-49.91.3-12.73.03-25.48.62-38.198.42-66.749-1.01-265.621-8.15-312.963-52.37-6.832-6.39-11.137-14.14-11.382-23.62-.433-16.82 17.235-39.46 24.069-55.27 9.574-22.15 10.385-46.71 20.805-69.01 5.971-12.78 13.336-22.55 23.034-32.75-21.149-11.28-51.596-21.67-75.489-33.71a807 807 0 0 1-169.097-114.16c-13.034-11.49-27.136-25.66-39.733-37.84-15.994-15.84-31.291-34.03-45.595-51.34a763.1 763.1 0 0 1-162.981-338.52 799.88 799.88 0 0 1 82.87-550.043 667 667 0 0 1 34.351-55.543c10.587-15.151 21.603-28.84 31.903-44.479-10.366-11.47-21.721-21.929-32.259-33.93C306.21 347.98 239.584 285.393 214.278 204.96c-4.724-15.015-2.4-31.344 3.502-45.634 17.35-11.194 46.403-4.963 64.294 1.292 66.239 23.158 120.509 72.948 172.062 118.888 19.11 17.03 38.534 35.467 58.92 50.856 32.087-23.749 59.772-44.102 94.462-65.162a755.6 755.6 0 0 1 248.007-95.14 800.45 800.45 0 0 1 547.145 82.407c30.68 16.711 59.64 36.8 88.89 55.869 12.04 7.852 23.32 16.896 35.34 24.927 9.51-10.578 28.88-27.595 39.9-37.523 58.31-52.519 146.94-138.257 225.98-150.408"/><path fill="#FEFEFE" d="M555.519 600.456c8.915 2.772 62.83 59.88 74.67 71.656l172.993 172.774c9.155 9.082 45.672 48.173 53.443 52.823 1.108 24.832-2.318 42.391-9.399 66.49-.822 2.797-20.104 4.215-25.408 7.58-18.969 11.816-27.891 30.901-35.339 51.161-6.712 18.26-16.687 29.35-6.552 49 11.448 7.4 18.423 10.32 31.872 12.03-5.142 4.05-11.578 9.13-16.038 13.81-38.485 40.41-79.565 78.42-118.994 117.75l-35.241 35.1c-5.296 5.28-14.077 14.48-19.406 18.93-5.285 4.42-18.813 8.38-25.818 14.03-7.572 6.1-12.471 10.98-14.261 21.36-.087 3.77-.649 9.69 1.799 12.7 22.233 27.38 49.074 50.65 74.876 74.53 9.714 8.99 19.057 19.42 29.922 26.67 13.019 8.7 29.205-.26 38.865-9.81 10.671-10.15 9.231-19.58 9.339-32.94 8.489-5.21 25.239-23.9 32.728-31.72l40.426-42.04c20.199-21.08 40.25-40.01 60.228-62.05 1.837 19.4-3.436 50.44-4.41 70.08-3.397 68.43-9.021 142.52-38.071 205.98-2.262 4.91-10.259 23.01-15.633 23.25-3.091-2.43-3.359-2.6-4.521-6.34-4.692-1.83-6.337 1.19-10.013-.2-2.049-.78-3.016-4.77-6.976-4.54l-.575 2.62-.847.52-2.378-4.22c-3.378-2.61-17.242-3.22-19.036-4.4-9.011-5.91-13.111-11.6-25.355-13.55l-1.682 3.39-1.464.14.21-2.93-1-.92c-4.483.62-5.911 1.47-9.279-1.73l.486-2.86c-2.704-3.19-6.559-.24-7.509-1.16-2.35-2.26-1.444-3.87-5.677-5.51-2.176 1.35-1.363 1.03-3.863 1.67-7.772-4-13.435-11.74-20.771-16.49-4.352-2.82-14.112-4.2-18.418-7.36.388-2.28.478-1.27.027-3.05-2.404 1.53-1.121 1.16-3.993 1.14l-1.958-2.35c.004-1.07.103-4.09-.541-4.31-9.805-3.33-12.174-.88-19.551-8.43l.397-3.23-1.176-.52-2.486 1.51-1.618-1.05 1.067-3.22-1.045-1.15c-1.968 1.54-1.104 1.2-3.466 1.72-7.175-4.59-12.873-11.78-19.374-16.95-5.048-4.02-12.643-6.95-18.088-11.28-4.532-3.6-1.698-5.73-3.041-6.62-3.095-2.03-11.513-6.97-14.2-9.26-15.868-13.52-35.275-35.51-50.744-47.37l1.668-1 .145-1.76c-3.039-4.43-6.485-6.72-10.682-10.07.048-1.17.133-5.34-.403-6.14-2.93-4.41-8.065-9.47-11.526-13.64-7.707-9.31-13.833-18.92-20.97-28.56-3.121-4.21-7.39-7.68-10.212-11.99.116-3.35.751-6.29-1.105-8.83-2.492.72-1.232.56-3.775.51.042-.44.039-.88.127-1.32 1.084-5.32-15.237-19.45-16.598-25.6-.49-2.21 1.491-2.03-.407-5.17-2.922-4.84-7.404-7.6-9.712-13.14 1.922-1.83 1.673-1.06 2.432-3.28l-9.231-6.69-.147-1.67c2.546-.82 1.716-.37 3.88-1.99l-.551-1.23c-2.899.71-1.855.84-4.522.28-1.561-4.2-2.055-6.41-2.992-10.82 2.541.33 1.735.61 3.826-.23l-.98-1.88c-2.75-1.11-3.076-1.02-5.226-2.97.43-4.01.49-4.63.196-8.61-2.269-2.22-1.747-1.48-6.038-1.57-5.815-7.23-5.913-13.53-8.548-22.49-3.26-1.89-5.96-3.15-6.979-6.9l3.046-.53c.454-3.68-2.69-.43-4.438-5.5-3.957-11.48-6.516-24.02-9.504-35.81-.885-3.5-1.52 1.99-3.575-3.65 1.82-1.66.943-.82 2.634-2.51-2.398-.48-2.319-.32-4.057-2 1.756-1.32 3.213-2.28 5.06-3.47-.875-2.98.046-2.01-2.376-3.38l-2.681 2.06-1.112-.23c-.041-3.34-1.952-17.13-3.733-19.02l-2.305.19c1.023-4.83 2.88-.87 4.875-6.2l-.82-1.59c-2.832.69-2.726.85-5.525.25-3.001-3.05-5.64-14.68-3.993-17.97 1.667.8 3.126 1.56 4.754 2.44 1.055-7.21-7.943-6.75-8.895-15.14 1.98-1.66 2.306-1.56 3.048-3.94-4.293-.34-4.344.05-5.262-3.8 1.529-2.07 1.515-1.84 2.566-4.13l-3.184-1.11-.846-2.07 1.729-3.28c-.579-5.62-.514-.29-3.156-3.33l1.925-12.2c-1.009-.51-1.992-.88-3.059-1.24l.374-1.51c1.513.4 3.034.76 4.56 1.1-.418-3.32-3.596-.89-6.339-5.96 1.162-2.36 1.405-2.46 1.677-5.02-5.965-5.46.865-3.98 1.109-9.632l-3.187.374-.986-1.732c1.224-4.198 3.195-.74 6.302-3.687-2.177-.147-3.261-.259-5.405-.648l-1.214-1.81a155 155 0 0 0 2.162-7.93c-1.442-1.458-1.739-1.78-2.905-3.459 1.967-6.971 1.571.102 4.052-4.372l-2.437-.435-.835-1.709c3.884-5.683 1.673-9.016 1.639-16.229 2.547-.146 1.276.012 3.814-.481 1.879-4.467.557-7.073-1.2-11.283l-.46-1.078c1.421-2.229 1.896-2.447 3.816-4.385l-.799-1.283-2.865.656-2.235-1.497-1.209.569c-.37 2.986-.396 1.474 2.045 4.954l-.309 1.069c-3.14-.168-1.775.34-4.254-1.533-.015-3.875-.414-9.866.592-13.313 1.686-.398 2.864-.407 4.589-.302-.484-5.018-4.789-6.468-4.776-11.74.021-8.242 2.361-2.309 7.04-7.37l-.973-1.227-4.943.183-1.479-1.849c.24-10.645 1.923-11.853 3.254-21.815l-1.586-1.963c-.773-6.979 2.612.731 2.896-3.377.303-4.387-1.763-10.574-.077-15.071.261-.694 3.598-3.396 3.499-4.766-.826-11.49-4.891-11.708-.274-23.78 3.345.983 1.979 1.289 4.487.202l-.367-1.587-3.925-.269-.15-1.729c2.182-2.426 4.079-4.333 6.413-6.617 3.374.507 3.402.547 6.776.19l.339-1.082-5.441-1.566c-.346-4.188 2.517-9.538 1.963-11.701-1.275-4.981-3.621-12.162-3.765-17.362l2.326-1.898c.794-2.491.6-3.247.231-5.838l4.346-3.772-.984-2.325.778-.34.392.544c1.825.252 1.618.166 3.479.009-2.072-1.942-3.856-3.17-4.752-5.812l1.259-.945c2.428.455 3.61.873 6.046.536-2.947-3.02-3.039-1.158-5.296-5.017l1.013-2.422c3.342-1.731 2.585-1.102 7.154-.463l.586-.731a632 632 0 0 1-5.675-4.788l-.098-1.981c7.381-2.758 3.046-6.859 4.797-14.199 1.996-1.77 3.591-2.802 4.533-5.268l-1.695-2.275c.558-3.227 2.408-2.648 5.373-6.679-.377-1.446-.702-2.186-1.379-3.477.616-2.758.372-3.258 2.291-5.175l3.114.737.805-.963-1.963-4.474c3.637-2.626.557 1.134 5.915-.054l.037-3.039c-3.504-3.067-3.897.279-6.717-2.14 4.076-3.722 5.774-.287 9.377-3.72-2.356-1.704-2.672-1.969-4.666-4.08.275-6.427 4.021-2.928 6.551-5.688-2.907-2.049-2.221-.976-3.655-3.846 1.04-1.944 3.354-3.904 5.163-4.522 2.25-.769-.292-6.262.939-8.516.733-.498 5.943-4.869 5.88-5.224-1.907-10.608 4.7-6.674 6.835-11.078l-2.588-1.107c.79-5.124 2.752-1.619 4.139-5.906l-1.969-.454c-4.063-6.508 7.867-10.192 7.526-15.246-.384-5.696.236-6.778 4.8-10.128 5.957 2.736 18.675 18.5 26.161 22.092 7.111 3.412 27.7-4.423 36.085-6.791l-.206.323c14.791-16.842 29.202-25.988 43.79-45.932m935.591-3.793c13.15 5.76 34.21 43.396 52.03 47.528 8.76 2.03 14.65 1.391 22.96 2.556 1.73 2.207 1.08 1.847 3.3 3.271 4.24-2.161 8.49-4.292 12.76-6.393 10.69 8.522 8.14 25.588 15.71 34.773 4.44 5.392 4.61 2.472 2.71 9.887l.94.805 1.39-2.374 1.19.399c4.74 6.868 15.79 33.269 16.63 42.409-.08 1.114 1.18 10.868 1.2 10.88 9.34 3.708 3.8 19.275 6.27 21.335 10.29 8.59 2.53 4.053 3.77 10.796 1.67.563.7.389 2.94.238.62 6.621 4.09 36.736 8.1 42.425 7.08 10.055-2.38 15.679.19 23.141 10.17 1.923 3.17 27.649 6.13 35.957 8.23 7.385.17 5.533 1.63 10.523 2.86 9.801 1.29 16.97.79 26.976-.15 3.028 2.61 8.37 2.1 11.604-1.24 2.193-1.92 2.4-2.98 5.983l2.61.891.31 1.71c-6.93 10.561.37 2.811-1.46 13.517-2.3.202-1.15.19-3.45.037.26.707 2.02 5.818 2 5.774 3.32 5.52 1.35 15.09-.53 21.056-2.47 7.836.14 8.168-.01 16.125-.37.546-2.89 3.515-2.89 3.617-.02 15.811-1.94 33.261-3.52 48.831-.42 4.12-4.17 3.54-4 8.94l2.25.54c1.77 4.25-8.15 17.44-7.8 19.58.68 4.16 3.66 12.8 2.23 18.3-1.1 4.21-7.3 5.3-7.1 12.47 2.21 8.78-7.34 9.61-7.47 10.74-1.09 9.86-7.92 25.34-6.03 34.53-8.58 10.48-11.83 25.51-18.76 37.49-1.18 2.03-.86 11.46-2.13 13.94-.44.85-3.44-.54-5.69 2.89l1.4 1.75c-51.7 109.01-126.95 187.82-221.51 260.65-18.2 14.02-111.24 67.89-130.64 64.87-7.94-6.74-13.1-25.91-16.27-35.87-14.98-46.97-22.25-95.01-26.9-143.96-1.33-13.96-2.49-28.42-4.83-42.26.35-6.02-2.19-49.25-3.35-55.26 36.37 42.81 84.29 79.99 122.31 121.77 3.48 3.82 2.53 15.56 2.59 20.94.33 28.89 35.56 39 55.52 21.63 14.37-14.08 28.18-27.08 41.96-42.04 16.58-18.01 52.41-40.49 55.43-65.52 2.51-20.89-13.45-31.1-32.53-32.43-61.82-58.99-120.35-121.82-183.75-179.19-2.41-2.18-8.57-7.19-8.73-10.22 5.46-2.44 12.46-2.73 18.3-4.18 10.3-2.58 20.07-13.6 25.43-22.38.52-15.16-5.34-23.51-10.52-37.26-6.25-16.2-8.68-35.793-24.65-45.657-10.85-6.706-22.39-9.118-33.23-15.005-11.69-20.229-12.29-54.897-14.75-78.294 21.76-20.543 41.83-43.434 62.56-63.687l113.63-109.751c11.94-11.716 22.93-23.815 35.03-35.437 26.57-25.508 52.4-51.62 79.18-76.906M924.065 306.901c1.922-1.63 2.51-2.17 4.047-4.085l1.235-1.554c4.029-.332 1.568 3.515 5.971 5.218-.344-4.616-.484-5.004 2.808-7.757 4.672-1.075 5.308-.755 10.192.004l.556 1.137-3.718 3.817.374 1.091c4.116.452 2.524 1.047 5.273-.761-.523-2.407-.601-2.209-.627-4.627 15.738 2.091 6.636-.885 14.809-1.982 1.146 2.182.7 1.528 2.462 3.448l2.87-.32q-1.132-1.142-2.236-2.312c3.769-2.082 12.116-3.048 16.418-3.023-1.85 2.268-1.702 1.376-2.134 3.871 11.371-1.706 22.605-2.712 34.035-3.876l3.94-3.062c3.04-.048 7.28 1.065 9.42 2.513 6.63 4.489 13.54-.868 18.35 2.24l.62 3.485c3.06.452 7.5-1.15 10.77-1.991q2.565 1.81 5.04 3.719l12.98-2.45c1.7 1.026 1.12.549 2.52 1.86 1.26 1.17 54.58 2.957 62.13 6.673 1.08.528 2.3 1.403 3.34 2.043l1.62 1.017.61-.765-.01-1.579c12.19 1.346 44.64 14.319 58.05 17.555.1.025 4.58 4.979 5.09 5.19 5.05 2.068 12.14.661 17.55 1.698 6.76 2.217 11.34 5.335 18.65 7.333.66-.712 1.31-1.425 1.96-2.138l4 7.116c3.4-.355-.28-2.549 3.37-5.932 8.52 1.835 9.64 11.451 18.61 10.435l1.1.978.12 3.809c2.63 2.359 1.11 1.442 5.04 2.245 8.58-2.815 2.84.088 8.59 3.141 1.32-.244 2.64-.488 3.95-.732 7.49 3.931 27.89 15.438 33.7 18.915a64.4 64.4 0 0 0-6.02 29.596c.87 24.042 16.32 35.804 32.42 50.73l26.3 24.248c-17.81 19.13-36.37 37.668-54.76 56.237-14.69 14.827-108.12 109.59-118.91 113.014-9.02 2.863-44.42-.913-56.5-1.162-15.27-.161-30.54-.183-45.82-.066-1.58 7.555-2.04 25.441-5.72 30.831l-2.45-.009c-4.28-3.968-4.13-20.313-4.6-26.865-10.04-7.104-104.927-2.713-122.372-1.81-2.086 2.594-3.974 5.112-4.806 8.389-1.994 7.85 2.028 49.791-.773 53.135l-.803-1.006c-.246-2.419-.232-3.248-.97-5.58-4.235-13.373-5.456-39.589-9.412-51.227-17.324-9.322-95.745 3.952-119.11 2.425-3.753-.245-1.489-4.423-2.477-6.006-4.922-7.881-12.49-14.133-18.941-20.739-25.623-25.991-50.445-52.467-76.454-78.095l-44.749-44.254c-6.548-6.391-17.31-15.69-22.785-22.01 13.41-11.499 38.397-34.385 48.51-48.377 15.243-21.088 4.819-44.65-.741-66.282l4.856-1.904c-.371-1.774-.238-.756-.248-3.07l1.787-.784c7.636 1.243 6.803.259 11.599-5.609l6.981.657 2.132-4.326c5.577-1.827 13.677-4.567 19.491-6.182-.06.017 4.364 1.644 4.912 1.843l1.005-.964-1.716-2.019c.723-3.02 1.86-2.838 5.242-5.219 2.501 1.803 2.819 2.371 5.874 2.817 1.789-1.366 2.624-1.985 4.562-3.113l2.256.751c4.795-2.571-1.095-.418 1.656-4.579l1.459.206.678 2.609c2.821-.044 1.476.089 4.305-1.543l-1.897-2.013c1.577-3.172 21.425-9.047 26.722-12.326l.516 2.786 1.704.302c10.775-4.434 5.552-13.625 29.076-13.499l1.045 2.344c2.928-3.922 2.43-4.617 6.028-5.378l-.859 2.84.863 1.262c6.192.185 13.38-6.642 20.043-9.425 8.761-3.659 31.517-3.105 37.688-6.774 3.503-1.221 3.389-1.392 7.167-.497 2.227 1.751 2.351 1.595 3.571 4.085"/><path fill="#FEFEFE" d="m1151.21 1090.46 1.42.88c2.83 0 2.9-.09 5.59.68 3.17 10.73.38 26.78.93 37.96 1.1 22.45-.5 44.9.03 67.18.86 35.75 4.36 71.33 7.31 106.89 1.93 23.3 1.71 49.29 4.38 72.73 4.64 40.71 11.94 81.37 25.74 120.04 8.65 24.25 19.01 46.4 29.06 69.86l-1.45 1.26c-31.07 2.07-63.01 4.01-94.18 3.69-20.74-.22-41.88-.24-62.58-1-14.63-.53-28.94-1.69-43.65-1.56-29.455.24-58.851 2.11-88.336 2.1-9.398 0-20.108.86-29.314-1.02-10.758 1.61-34.667-1.56-46.196-2.29-8.707-.56-18.01-.92-26.698-1.46-1.095-5.5 13.15-27.61 16.494-35.01 27.804-61.58 37.726-129.04 41.477-195.93 2.792-49.81 7.264-96.2 6.694-146.48-.341-30.12-1.876-68.66.219-98.24 56.592 2.76 111.05 5.54 167.84 3.13 27.89-1.19 57.37 1.6 85.22-3.41M1039.1 675.575c6.62 1.431 26.88-1.28 31.94 1.72 1.63 7.413.38 18.721.66 26.586.58 16.132-.95 32.92 1.02 48.929.26 2.055 8.2 6.221 10.18 7.394 10.31-.15 71.44 2.051 75.44-3.84 7.49-11.013 6.78-68.535 13.91-78.207 10.35-3.311 39.13-.757 52.88-1.521l1.76-.105c-3.83 14.73-12.01 28.057-16.46 41.661-9.86 30.136-21.62 65.301-27.23 96.4a400 400 0 0 0-6.33 63.938c-.11 10.401 3.64 41.15 1.32 48.532-9.51 4.53-143.67 4.815-159.49 4.961l-99.652-1.833c-12.081-.308-25.98.675-37.627-1.301 1.67-41.228 1.235-63.145-6.923-103.734-10.259-51.043-27.951-91.541-46.948-139.369 9.175-3.079 46.088-4.647 53.902-2.591 6.193 8.411 6.836 69.704 9.997 76.141 8.968 3.717 68.073 1.055 80.822 1.1 2.372.008 10.885-1.874 13.652-2.515 8.46-18.803-2.318-72.732 2.272-81.199 12.975-1.755 33.005.803 50.905-1.147M1246.63 1656c27.04 6.74 95.85 59.22 77.87 92.31-.65 1.21-21.58 7.9-24.5 8.7-79.47 21.64-163.44 23.69-245.33 24.13-90.098.71-180.074 1.08-269.225-11.81-13.063-1.48-49.725-9.28-58.696-18.62-5.823-14.02 14.84-47.52 24.948-57.39 10.299-10.05 37.26-30.48 50.35-35.4 42.136 9.71 93.892 11.97 137.078 16.8 2.6.7 10.259-1.79 12.269-1.27 16.3 4.24 33.598 1.4 50.576 1.77 13.36.29 27.07.88 40.44 1.15 13.15.26 27.93-2.08 41.28-1.95 38.49-2.03 131.88-4.18 162.94-18.42"/><path fill="#FEFEFE" d="m1326.39 1769.4.8.06c4.57 6.27 14.68 39.3 14.54 47.93-5.56 3.3-8.05 4.49-12.1 9.81-9.27 1.82-25.72 6.48-34.68 9.51-29.87 10.1-59.91 15.25-90.87 20.49-1.75.3-6.87 4.88-8.36 6.22l-11.33-5.91c-39.63 3.5-79.11 8.03-119.08 6.25-6.54-.29-11.63 4.86-20.19.93-1.95-.9-20.06.43-22.34 1.94.13 1.93.17 3.03.1 4.96l-2 .03c-.62-1.91-1.05-3.82-1.44-5.79-2.52-.81-4.76 1.1-8.28 2.47-2.15-.81-10.26-3.9-11.957-3.75-32.013 2.77-64.333-3.24-96.211-.15-.855-.75-1.71-1.51-2.564-2.26-5.725.78-11.519 1.79-17.3 1.89-8.297-.48-17.891-4.5-25.887-5.99-6.155-.91-11.731.6-17.967-.41-18.825-3.07-37.748-5.56-56.542-8.93-10.543-1.89-20.626-4.66-30.938-7.47-10.72-3.05-39.703-10.33-43.411-20.91 1.911-.17.866-.05 3.129-.42l-.811-2.19c-1.431-.79-4.955-2.64-5.098-3.72-.704-5.29 10.94-20.24 13.01-26.05 2.334-6.56 2.629-7.62 3.849-12.6 14.037 3.45 27.268 8.94 41.707 11.58 18.54 3.71 37.124 6.14 55.912 8.12 33.275 3.51 66.125 5.25 99.515 7.19 85.554 5 170.524 2.94 255.954-3.37 40.36-2.99 81.66-8.25 120.75-18.98 7.62-2.09 24.89-5.74 30.09-10.48m-500.848-185.45c1.953 2.08 3.958 4.06 5.966 6.09 8.407 1.48 24.356 1.21 33.933 2.1 41.154 3.83 81.25 2.86 122.443 2.33 56.296.03 112.446.57 168.756.29 27.71-.14 53.97-4.51 80.68-5.07 11.19 5.68 5.71 39.01 2.49 49.4-6.4-.35-23.59 2.63-31.46 3.51-38.94 6.37-102.29 7.05-143.13 7.6-23.64.55-47.29.74-70.933.57-6.101.01-15.798.99-20.603.7-8.321-.48-14.522-1.93-23.644-1.97-48.508-.18-88.328-1.69-136.178-10.66.647-15.09 1.336-29.55 1.143-44.65zM1787.09 168.58c3.84.312 2.54-.489 5.1 1.405-1.32 4.985-10.36 10.932-13.47 15.374-2.44 3.479-5.19 3.474-7.61 5.979l-190.01 193.59c-13.95 14.067-28.24 27.128-42.11 41.023a3315 3315 0 0 0-66.8 69.375c-6.04-4.479-14.25-12.792-19.89-18.183-8.47-7.676-16.89-15.887-25.19-23.773 28.88-25.617 58.52-61.343 88.26-85.473 82.78-67.154 162.16-165.579 266.62-196.805 1.41.602.57.331 2.56.637zm-1534.344 6.443c14.534.929 56.688 18.561 68.824 26.221 88.139 55.63 163.097 131.577 237.87 203.586 9.077 8.742 51.611 45.958 54.07 54.744-1.747 6.863-12.614 16.99-17.867 22.522-7.089 6.659-12.464 13.643-20.286 19.833-13.341-11.77-26.578-26.499-39.347-39.068-29.444-28.984-58.318-59.399-86.818-89.341-7.13-7.49-15.28-14.209-22.559-21.647L297.19 219.765c-6.872-6.923-42.179-39.505-44.444-44.742m-20.041 13.811c2.783 2.202 8.214 8.467 11.422 11.358 13.101 11.804 25.112 25.804 37.815 37.771a8703 8703 0 0 1 200.247 196.334c15.86 15.89 33.504 29.961 49.04 46.501 10.768 11.463 22.03 20.051 31.852 32.931-5.252 4.499-14.815 15.7-20.355 21.458-6.028 6.228-11.676 13.809-18.648 18.503-18.398-17.777-32.819-36.225-50.338-54.038-51.287-52.145-101.463-105.603-149.691-160.587-27.268-31.088-90.306-108.088-91.344-150.231m1579.815-2.121 1.06 1.129c-4.33 56.985-119.04 177.048-158.75 219.136-24.49 25.95-50.54 53.857-75.89 79.492-19.41 19.637-35.46 39.861-56.12 59.074-7.78-5.303-12.91-10.754-19.55-17.407-7.05-6.374-14.87-13.681-20.58-21.214 27.19-28.593 58.25-57.663 86.58-85.387 47.76-47.373 95.92-94.353 144.45-140.932 28.54-27.388 56.19-55.421 85.63-81.859 4.73-4.245 7.83-8.192 13.17-12.032M608.265 553.672c1.905.57 63.834 62.791 69.551 68.49l117.203 116.105c5.153 5.149 39.27 39.028 40.962 42.637 10.091 21.533 17.749 63.592 21.276 87.333-5.238-6.463-8.908-11.168-14.945-16.827-26.633-23.939-50.098-51.432-75.396-76.421L576.324 585.627c9.372-11.162 20.925-18.945 31.941-31.955m834.695-7.918c16.31 12.044 20.49 25.36 32.63 34.786-5.16 5.237-11.31 12.72-16.55 17.5-13.25 12.071-26.08 24.049-38.87 36.629l-77.59 76.651c-8.98 8.703-18.81 16.951-27.58 25.741-10.41 11.079-20.69 21.502-31.91 31.753-21.13 19.288-40.1 40.716-60.97 60.31-6.07 5.204-11.97 11.046-17.75 16.6 2.24-35.993 8.54-52.881 19.43-85.939 17.81-15.286 37.38-36.001 54.47-52.559l100.34-98.367c14.26-14.245 29.29-27.124 43.45-41.843 7.79-8.104 13.18-11.594 20.9-21.262m-193.55 478.256.89.01c2.17 3.28 6.72 23.75 7.7 28.24-8.07 6.43-206.68 9.64-232 9.81-33.188.22-66.716-.38-99.888-1.38-24.729-.75-49.601-1.64-74.293-3.11-5.663-.34-23.733-2.75-27.928-2.33-1.433.15-2.581.11-4.021-.03-6.384-.26-11.349-1.38-17.332-3.68 1.702-8.25 5.799-19.2 8.639-27.44 26.085 3.5 56.944 4.15 83.593 4.94 102.012 3.02 205.41 4.46 307.28-1.64 13.47-.81 34.54-.31 47.36-3.39m-409.216 62.21c3.161.84 8.117.45 11.732.71 7.804.55 13.712 1.36 21.245 3.21-.233 5.91.424 26.81-2.937 30.32-14.647 15.33-30.842 29.77-45.829 44.8L720.04 1268.87c-15.201 15.06-28.52 29.26-44.314 44.52l-.709.08c-9.195-3.95-28.721-23.12-34.984-32.51 16.295-11.53 44.734-43.65 60.529-58.22 13.504-12.46 28.189-25.69 41.08-38.65a3481 3481 0 0 1 72.342-71.95c7.879-7.7 18.413-18.95 26.21-25.92m364.506 1.18 1.76-.3c8.62 2.98 18.31 14.69 25.25 21.36 19.98 19.3 39.69 38.88 59.12 58.74 25.2 25.36 51.38 50.12 76.89 75.11 15.53 15.21 21.06 24.63 39.39 39.18-6.69 9.45-17.42 18.74-25.99 26.8l-6.75 5.61c-7.11-5.9-14.3-14.26-20.9-20.93-55.43-56.02-114.35-110.67-168.35-167.92-.31-14.36-2.44-21.63 1.51-35.51 6.47-.27 11.96-.06 18.07-2.14m192.18-587.668c5.71 3.867 30.28 28.46 37.29 35.059-14.86 11.524-30.99 28.759-44.31 42.316l-48.13 48.044c-14.39 14.319-28.33 28.088-42.58 42.624-17.89 18.244-38.66 35.177-56.43 53.723l-11.87 11.689c7.61-17.9 12.71-36.741 20.48-54.59 2.66-6.116 5.94-13.975 3.68-20.6-3.89-3.7-9.33-3.673-14.76-4.377 13.29-13.777 27.6-26.297 41.17-39.712zm-743.772 8.035c5.509 2.604 34.241 34.336 41.56 40.895 40.344 36.154 78.092 81.379 119.849 115.141-4.294-.032-9.337-.571-13.029 1.273-2.55 2.826-2.557 6.632-3.102 10.528 7.946 11.602 22.562 55.32 30.037 72.705-3.779-2.675-7.04-5.552-10.564-8.54-57.265-62.948-122.795-123.39-183.236-183.49-4.613-4.587-9.267-9.051-13.816-13.713 10.515-15.448 17.879-22.653 32.301-34.799m218.94 634.993c.421.52.842 1.05 1.263 1.57-.398 16.56-.019 44.12-.677 59.57-8.5 11.43-24.844 26.84-35.033 36.97l-49.323 49.41c-17.663 17.81-49.567 57.95-69.733 68.79-4.003-4.44-9.162-8.88-13.622-12.96-7.065-6.54-21.297-16.25-12.263-25.89 30.076-32.08 61.964-63.09 93.824-93.42 28.642-27.27 56.23-57.89 85.564-84.04m312.932 3.9c7.46 6.29 16.54 18.55 24.35 26.05 42.54 40.84 82.44 84.34 126.46 123.75 9.39 8.4 17.04 18.78 26.84 27.44-5.47 7.84-11.2 13.37-17.88 20.08l-13.35 14.22c-3.06-2.06-6.19-3.98-9.06-6.31-14.48-11.73-133.82-130.49-134.44-138.66-1.67-22.28-2.84-44.19-2.92-66.57M842.219 986.932c8.444 2.106 60.458 2.338 72.283 2.53a4873 4873 0 0 0 179.488.589c27.75-.663 55.19-1.566 82.96-1.403 13.02.076 27.95-2.421 41.18-1.53 11.95.805 16.08 6.571 23.16 14.942l1.17 1.75-.85 1.03c-126.86 4.47-251.409 10.41-378.468 2.3-9.238-.59-31.717.64-38.498-4.07-3.375-8.124 11.654-13.757 17.575-16.138"/><path fill="#FEFEFE" d="M684.377 376.716q1.245.38 2.46.848c7.613 2.987 13.979 11.678 16.991 19.02 3.54 8.628 4.181 20.119.348 28.781-4.581 10.349-87.773 89.03-102.777 104.379-16.133 16.504-32.52 32.888-48.431 49.598-11.334 11.903-22.114 24.438-34.058 35.739-6.669 6.309-15.023 14.731-23.729 18.05-5.09 1.941-10.501 1.215-15.363-1.03-3.899-1.799-12.163-6.651-13.249-10.878-.083-.32-.061-.658-.109-.985-.078-.527-.178-1.05-.267-1.576-3.094-4.751-1.717-17.66 2.439-21.597 5.781 2.733 3.325 45.065 33.407 12.154 41.011-44.867 85.905-87.087 127.155-131.89 20.873-22.67 50.387-42.038 64.811-69.269-3.058-13.154-3.297-13.631-14.042-21.512-.373-3.959 1.806-5.617 4.414-9.832m497.603 570.715c.84.592 7.02 17.79 8.26 20.819-9.98.898-22.97.248-33.54.551a3536 3536 0 0 1-226.31 1.149c-11.471-.265-41.215.287-49.939-2.837l-1.61.909c-1.361.351-3.144.638-4.515.898l-1.716-1.229c-.804-4.993 1.853-13.051 3.111-18.58 20.206-.432 48.961 5.439 68.394 4.443 21.074-1.08 50.465 3.071 69.115 1.47 36.56-3.14 140.17 4.215 168.75-7.593m177.18-573.451c2.95-.034 3.08-.304 5.62 1.035.07 3.191-7.8 6.015-10.4 11.697-5.54 10.609-5.19 24.662 4.37 33.256 28.9 25.976 58.08 49.713 84.81 78.172 18.42 19.614 39.78 37.958 57.49 58.409 16.49 19.034 32.6 40.426 50.85 57.497 4.1 3.526 18.9-2.015 24.17-3.863 6.3-6.363 4.92-8.568 8.59-15.847l.96.364c1.46 7.394 1.76 9.375 1.75 16.928-1.85 4.062-4.25 7.672-6.59 11.475-25.18 12.012-38.35 2.873-55.21-15.63-40.43-44.38-81.15-88.014-123.74-130.374-18.96-19.159-47-36.935-61.09-60.07-9.05-14.86 3.57-36.103 18.42-43.049m71.88 916.02c5.33 3.77 7.02 3.63 13.48 5.32l4.97 8.96c-1.6 6.65-3.61 12.91-9.13 17.11-13.5 10.24-82.42 83.53-91.61 86.35-14.43-1.41-27.83-12.81-15.61-26.84 13.65-15.67 30.23-28.93 44.76-43.54 17.69-17.78 32.91-32.32 53.14-47.36m-817.982 2.85c9.63.16 23.769 14.43 31.011 21.14 20.111 18.97 40.02 37.97 60.022 57.07 6.54 6.25 17.589 14.61 13.148 25.05-2.73 6.41-8.818 8.93-14.768 11.62-1.36 0-2.521-.06-3.676-.98-14.741-11.74-28.99-25.86-42.7-38.76-18.487-17.39-37.655-34.22-55.051-52.62-1.598-1.69-3.157-8.49-3.803-10.98 4.948-5.53 9.546-7.92 15.817-11.54"/><path fill="#FEFEFE" d="m651.07 410.877.819.981c-.662 5.321-12.754 17.036-17.084 20.545-.981-1.707-.562-.714-1.081-3.048 4.697-6.146 11.786-12.877 17.346-18.478"/></svg>