<svg xmlns="http://www.w3.org/2000/svg" preserveAspectRatio="none" style="display:block" viewBox="0 0 2048 2048"><path fill="#fefefe" d="M0 0h2048v2048H0z"/><path d="m1019.93 55.408 2.57-.146a891.85 891.85 0 0 1 497.66 137.742c273.09 176.14 419.37 467.748 425.57 789.655a1047.06 1047.06 0 0 1-146.1 543.471c-12.49 21.42-25.04 44.38-38.75 65-24.05 36.17-54.58 70.14-84.3 101.79-30.07 32.03-67.28 61.12-101.32 88.85-9.93 8.37-23.52 15.82-33.33 24.08-35.35 29.77-72.54 51.51-114.67 70.22-14.18 6.3-28.29 15.17-43.01 21.57-24.66 10.72-50.04 19.21-75.57 27.64-92.56 32.3-171.19 47.95-268.93 49.82q-7.68.975-15.42 1.41c-33.541 1.92-91.901.71-123.894-4.7-21.879-3.71-57.851-13.9-80.645-20.06-31.473-8.51-67.452-13.06-97.263-22.95-44.569-14.8-88.416-40.17-129.056-63.24-57.506-32.64-106.024-63.62-155.626-107.96a923.7 923.7 0 0 1-112.983-120.53c-72.987-94.39-137.81-222.15-169.684-335.98-32.984-117.79-41.007-240.22-35.106-361.534.959-19.722 5.143-38.499 6.909-57.57 6.677-72.135 26.174-137.79 52.494-204.775a1049 1049 0 0 1 123.759-230.803c23.175-32.935 44.685-59.336 71.708-89.402a902.5 902.5 0 0 1 541.124-292.21c33.517-5.054 70.035-7.585 103.863-9.388"/><path fill="#fefefe" d="M1022.59 74.457c43.76-.884 96.2.765 139.76 6.33a866.95 866.95 0 0 1 434.87 190.918c19.27 15.824 37.42 32.938 55.46 50.13 27.73 26.428 53.33 55.892 76.96 86.033 127.8 163.041 192.54 366.731 197 572.845.73 33.947-1.38 68.237-4.48 102.037-19.01 207.77-102.65 423.49-248.62 575.3-169.49 176.26-383.8 278.23-629.79 283.17l-1.63.06c-13.45.45-28.3-.9-41.95-1.31-210.2-6.33-439.356-103.57-585.463-254.96-166.52-172.54-269.332-402.72-276.074-642.73-4.714-254.923 90.141-501.64 264.415-687.746C563.875 182.19 786.959 81.34 1022.59 74.457"/><path d="m1019.63 179.42 1.86-.197c334.19-15.854 639.85 209.98 750.33 520.34 28.91 81.215 45.35 167.57 48.89 249.818a905.2 905.2 0 0 1-50.93 347.519c-7.61 20.88-17.18 42.42-26.25 62.79A797.8 797.8 0 0 1 1603 1576.62c-23.64 25.62-54.85 56.71-81.36 79.11a789.54 789.54 0 0 1-477.68 186.4c-38.47 2.51-97.459-.86-135.036-9.06-36.145-7.9-85.172-18.56-119.033-30.58-89.607-31.79-185.135-84.56-257.464-147.02-167.763-144.92-271.429-350.28-288.392-571.32-20.84-287.726 101.369-569.225 332.264-743.812a825 825 0 0 1 96.331-64.048c105.784-58.788 226.972-88.307 347-96.87"/><path fill="#fefefe" d="M1022.48 198.554c105.91-3.14 214.62 13.696 311.17 57.956 23.68 10.088 44.1 19.324 62.87 37.399 30.95 29.795 56.77 64.185 84.32 97.061 5.82 6.954 11.39 16.806 16.79 24.468-6.15 10.494-54.3 84.241-53.22 89.994 2.31 2.91.89 2.175 4.08 2.796 2.14-1.049 4.45-2.773 5.59-4.891 14.54-27.049 36.76-53.582 49.27-81.41 28.42 41.584 49.11 86.602 67.07 133.442 10.78 28.099 21.25 56.058 29.9 84.919 16.06 53.552 27.15 108.626 38.75 163.245 3.74 17.638 4.09 36.749 6.55 54.696 3.21 23.463 6.76 46.911 8.7 70.526 1.48 18.136.91 36.879 1.08 55.084.21 23.111 1 46.581-.13 69.661-1.06 21.73-3.86 43.42-5.56 65.11-3.55 45.58-7.45 91.22-17.46 135.97-11.72 52.43-30.93 109.05-51.06 158.98-16.43 40.74-32.3 77.2-56.22 114.19.4-84.54-4.65-170.84-6.68-255.49-1.31-11.82-3.23-23.64-4.57-35.44-3.71-32.58-3.21-66.78-21.49-95.52-3.49-5.49-9.62-17.06-14.1-21.49-40.67-40.26-92.84-67.69-143.88-92.52-11.74-5.71-24.23-10.42-35.61-16.64l-1.17-.65c-17.57-38.592-45.33-64.197-86.43-74.485 11.06-14.908 38.8-36.666 49.02-51.086 37.85-53.384 61.71-136.892 68.4-201.521 1.36-13.164.39-38.375-1.01-50.559-6.64-57.845-12.81-104.923-52.71-150.626-14.96-17.129-18.62-22.812-37.99-38.899-39.39-32.714-117.52-46.178-167.99-40.333-48.4 5.677-88.23 20.185-131.658 42.096-17.493 8.826-42.79 22.312-57.7 34.775-39.254 32.809-66.021 90.368-55.765 141.56 6.423 32.061 21.961 39.023 16.399 79.349-.768 26.37-21.58 37.462-30.761 59.054-7.483 17.598 17.246 24.092 28.449 27.291l-2.122 3.115c2.987 35.115 5.304 78.948 21.05 110.558 19.551 39.246 62.645 42.792 101.487 48.024 7.594 1.023 19.533.725 26.248 2.792-.077 1.774-1.882 1.67-3.866 2.439-32.608 12.633-54.245 41.44-74.134 68.686-35.452 12.92-74.445 20.77-109.829 35.6-16.871 7.07-30.618 10.16-47.059 20.19-19.234 11.38-45.725 29.27-55.506 50.93-27.058 59.91-40.365 128.14-54.227 192.18-3.051 14.09-7.742 27.45-11.091 41.11a2182 2182 0 0 0-23.705 109.85c-1.312 6.93.041 17.27-1.51 23.04-7.361 27.39-10.735 57.1-17.601 84.24a826.7 826.7 0 0 1-77.146-135.45 843 843 0 0 1-42.747-110.21c-32.008-106.4-37.793-217.05-44.923-327.21-2.941-45.447 7.492-98.735 12.217-144.536 4.199-44.953 15.677-88.523 23.474-132.66 13.472-76.259 42.883-148.492 76.875-217.741 10.681-21.76 26.107-43.431 38.764-64.331 22.16-36.591 47.391-71.869 75.175-104.408 18.3-15.968 47.308-54.223 67.448-65.453 26.815-14.95 82.724-34.066 112.432-43.416a766.7 766.7 0 0 1 195.052-35.401"/><path d="M802.142 416.468c2.692 1.32 4.512 1.928 4.617 4.984-5.249 10.463-15.166 23.752-21.847 33.844-16.201 24.426-34.031 47.834-50.317 72.192-33.873 50.659-68.831 100.6-102.597 151.321-1.735 2.607-3.368 3.8-5.987 5.39-2.603-1.904-2.557-1.768-4.404-4.376.221-5.368 22.642-35.616 27.567-42.758l54.45-79.396 55.709-81.588c10.887-16.011 30.088-45.171 42.809-59.613M647.739 1042.48c3.004.98 2.865.81 4.972 3.13.008 3.43-.406 3.94-2.791 7.26-11.647 16.19-23.544 32.38-35.322 48.46l-73.04 99.4a5146 5146 0 0 0-38.007 52.49c-7.935 11.04-20.471 28.89-29.414 38.4-3.761-1.18-2.289-.15-4.722-2.99-.412-6 9.887-16.48 13.702-22.02 12.065-17.53 25.477-34.24 37.835-51.55a4892 4892 0 0 1 83.615-114.63c13.311-18 29.169-41.03 43.172-57.95"/><path fill="#fefefe" d="m590.898 352.003.727 1.374c-6.473 9.003-19.751 29.078-25.04 37.301-22.253 34.594-42.535 68.584-62.124 104.57-7.179 13.189-16.978 27.449-23.435 40.58-8.078 16.521-14.208 34.065-21.111 51.046-21.412 52.675-35.93 107.762-48.344 163.158-6.683 29.827-8.13 62.174-12.769 92.313-8.097 52.62-13.431 105.122-14.622 158.385-1.412 44.79 1.71 81.1 5.213 125.36 7.305 92.3 25.181 188.85 60.391 274.89 22.233 54.32 49.92 110.26 79.351 161.17 14.859 25.7 35.607 48.63 50.322 76.25-1.787 7.86-2.857 17.96-3.941 26.1-17.883-10.91-48.818-39.69-64.18-54.64-204.704-194.49-292.067-486.9-234.345-762.464a849.9 849.9 0 0 1 233.47-426.109c23.999-23.716 54.368-48.011 80.437-69.284m899.302-6.248c2.63 1.576 7.39 5.915 10.11 7.95 17.66 13.232 33.22 27.766 49.29 42.897 158.13 148.62 249.53 354.808 253.46 571.782 4.91 174.846-35.75 331.356-127.99 480.466-25.78 41.66-60.03 87.8-93.88 123.57-14.72 16.61-39.14 39.71-55.64 55.14-2.19-32.72 9.51-43.4 25.17-70.5 11.97-20.7 24.29-41.33 34.22-63.12a1423.3 1423.3 0 0 0 84.97-250.9c2.89-12.14 8.32-24.33 10.62-36.74 9.32-50.4 11.3-102.15 10.56-153.31.13-16.06 3.53-33.09 3.1-49.06-2.29-84.948-13.32-170.773-29.49-254.142-8.74-45.067-17.43-90.129-31.25-133.988-10.64-33.746-25.92-66.074-38.23-99.256-3.84-9.795-11.14-20.117-14.87-29.677-21.28-54.634-54.49-95.641-90.15-141.112M877.498 556.506l2.058 2.122c.93 9.081 4.435 26.096 7.901 33.683 19.866 43.485 67.227 75.513 110.267 92.589-2.591 14.012-11.691 47.141 4.256 54.169 9.82-1.131 6.94-17.524 7.5-25.041 1.49-21.265 9.08-37.042 24.37-51.699 12.36-11.848 34.71-18.096 47.2-2.931 21.41 25.98 4.91 68.044-19.23 86.557-17.25 13.228-26.65 9.206-45.62 6.807-7.06 8.25-9.63 45.084-10.66 57.319-4.25 39.458-10.594 83.354-16.125 122.743l-2.032.053c-27.067.482-87.503-6.764-106.25-27.406-22.335-24.594-23.546-58.984-27.246-90.692-1.105-9.468-3.318-23.921-3.299-32.519 1.813-2.164 2.003-2.027 2.481-4.743-3.469-11.665-20.073-5.363-26.109-12.479-.397-6.631 7.031-12.599 11.646-18.373 26.633-33.328 16.57-73.87 11.902-111.93-4.236-34.528 6.621-52.844 26.99-78.229"/><path d="M1039.92 678.983c12.41-.688 13.28 4.561 17.92 14.489-.52 5.5-.84 11.286-1.23 16.821-4.88 8.407-9.27 14.132-16.31 20.884-5.6-1.451-8.03-1.933-10.4-7.422.99-8.332 7.55-11.419 12.87-19.226 1.56-8.314-4.19-11.062-6.19-19.523.87-4.057.39-2.643 3.34-6.023m-156.182-2.866c6.342.481 10.827 2.638 12.797 8.939 3.353 10.727 1.81 25.929-9.905 30.198-6.712-.789-9.854-3.894-12.482-10.062-3.032-7.113-3.151-15.606-.505-22.853 1.564-4.283 6.176-5.089 10.095-6.222m-7.531-49.151c13.218.536 27.104.373 36.411 11.7 2.684 3.267 3.838 7.264-.088 9.962l-3.784-.712c-10.571-3.818-17.038-4.167-27.982-4.247-5.633-.041-11.514-.18-13.689-6.096 1.281-5.788 4.301-7.15 9.132-10.607m-6.88 198.148c8.107-.473 16.209-.606 22.515 5.232 4.596 4.255-.706 9.919-4.008 12.418-7.741-1.933-23.951-1.472-24.22-11.154 2.067-3.923 2.106-4.117 5.713-6.496"/><path fill="#fefefe" d="M1120.47 939.429c15.9-1.132 28.77.153 44.5 2.087a276 276 0 0 1 36.86 7.46c37.38 10.017 50.32 23.186 73.45 52.874-58.57-17.044-94.8-22.539-156.3-17.157-12.68 1.109-25.38-.117-40.22 1.8-35.79 2.836-75.18 11.294-110.163 19.887-12.458 3.06-24.608 6.99-36.912 9.65q7.125-9.002 14.75-17.574c39.069-43.473 118.165-55.994 174.035-59.027M863.93 1244.04c2.701.89 4.003 1.2 6.48 2.71 1.501 7.07-8.67 46.02-10.207 56.44-5.323 36.08-11.471 72.63-17.48 108.69-7.3 43.81-15.665 87.76-23.142 131.53-5.764 33.75-8.233 67.93-16.308 101.37-6.98 32.44-11.696 64.1-21.144 96.23-3.654 12.44-4.506 28.49-8.164 42.15-5.023-2.16-5.522-1.37-7.921-5.12-1.98-15.62 19.073-103.91 22.978-126.26l40.143-230.71c8.443-49.36 14.74-98.94 25.576-147.88 2.47-11.16 4.518-18.69 9.189-29.15m163.41-475.431c8.72 2.865 11.64 2.291 20.59 1.513-2.44 9.941-4.82 19.924-6.29 30.045-5.94 40.745 8.2 93.826 33.49 126.283-7.49.81-16.3 2.515-23.84 3.779-14.78 2.782-30 8.095-44.27 10.347l-1.02-1.082c-.9-6.258 18.41-157.713 21.34-170.885m396.56 521.121c1.28.7 1.38.48 1.99 1.76 4.93 10.25-4.2 127.2-5.45 147.95-1.12 18.62-1.15 37.29-2.23 55.91-1.87 32.17-14.23 214.03-23.75 229.55-1.7 2.78-3.4 2.52-6.3 3.08-4.15-4.6-.7-18.84.1-25.28 1.92-14.8 3.55-29.63 4.88-44.49 4.18-48.57 10.03-97.03 11.66-145.72.34-9.96 1.02-20.06 1.59-30.02q3.285-52.11 7.32-104.16c.9-12.17 1.69-23.71 2.26-35.88.58-12.5-.28-36.78 1.55-48.45 2.63-3.35 1.96-2.35 6.38-4.25"/></svg>