<svg xmlns="http://www.w3.org/2000/svg" preserveAspectRatio="xMidYMid meet" viewBox="0 0 2048 1462"><path d="M583.078 132.434c72.91-3.129 146.099 35.063 182.345 98.347 18.468 32.243 37.661 78.484 31.224 116.748-2.245 13.345-14.201 22.573-25.13 28.769-4.54 25.572-7.193 28.057-13.756 50.385 18.885-1.906 54.037-1.775 73.624-2.17 3.608-17.13 16.961-111.494 20.808-118.369 10.302-4.161 95.936-3.891 111.806-4.226l241.571-4.254 100.01-1.722c16.02-.314 33.43-2.343 49.34-.626 1.91.207 6.21.513 7.28 2.049 4.26 6.101-12.44 92.352-14.8 105.892 72.59-.106 146.18-5.072 218.85-5.401 13.9-.063 26.76-1.297 37.48 9.405 16.66 16.635 9.04 51.506 7.05 73.402a7231 7231 0 0 1-7.6 79.111 21108 21108 0 0 1-21.78 232.85 15480 15480 0 0 1-17.89 188.679l-5.56 58.577c-1.67 17.52-.04 35.88-13.26 48.22-13.2 12.31-30.08 6.37-46.13 6.37l-82.52.54c-77.86.32-156.93 2.66-234.69 1.72 3.47 13.96 8.57 32.23 10.99 46.08 27.02 11.84 55.89 21.98 83.5 32.61 11.15 2.97 29.91 13.85 40.8 14.74 32.04 2.65 70.26.15 102.06-.06q133.695-.645 267.36-2.94c.06-20.43-6.9-187.24-3.39-194.107 5.11-4.11 13.38-2.911 20.19-2.786-9-27.408-30.82-89.062-40.34-119.102-1.12-3.541 4.37-8.326 11.07-6.793 4.47 3.333 14.64 36.454 17.16 43.714 9.37 27.336 18.91 54.61 28.63 81.822 9.22.114 20.84-.651 30.26-.977 2.48-14.529 11.91-98.668 16.1-104.38 3.68-1.942 8.29-2.404 10.38 1.011 3.43 5.606-1.13 29.832-1.87 36.006a2817 2817 0 0 1-8.52 67.293q16.095-.298 32.19-.876c4.13-9.56 9.05-24.51 12.68-34.555a3614 3614 0 0 0 27.78-79.687c2.81-8.541 7.94-32.474 18.65-32.577 3.03 1.565 3.29 2.009 5.21 4.856 1.76 6.574-12.62 43.87-15.9 53.198-10.33 29.408-20.37 59.508-31.5 88.611 7.65-.369 19.3-2.305 24.92 3.202 2.1 7.904-16.12 177.467-19.84 195.757 45.51.24 91.65-1.7 137.21-1.8 6.09-.02 14.79-.37 19.94 3.18 4.29 10.75 3.47 77.15.97 91.44-1 5.66-33.56 3.59-40.92 3.63l-667.57 6.33c-107.71.52-215.42 1.65-323.116 3.39-20.954.48-31.205 14.81-60.12 15.04-24.302.19-39.368-4.07-60.149-7.19-7.542-1.13-81.589-1.13-85.041.26-.422 2.4-.782 4.96-1.494 7.29-.795 2.61-2.223 4.71-4.71 5.94-4.874 2.4-101.191.88-117.595.94l-415.886.64c-15.583 0-118.833 1.71-127.207-1.13-6.71-6.49-4.363-44.35-4.292-55.27.145-29.4.775-58.79 1.89-88.16 2.02-66.28 6.824-132.44 14.4-198.314 7.984-71.759 18.666-144.892 43.44-212.145 27.762-75.368 79.297-132.813 153.784-163.053 11.631-7.754 43.801-10.357 53.169-17.467 29.554-22.434 65.31-82.923 65.262-118.558-.061-45.232-19.01-80.37-21.165-121.953a190.6 190.6 0 0 1 49.502-139.424c39.2-43.243 95.285-65.161 152.856-67.972"/><path fill="#fefefe" d="M349.622 596.462c5.653-.133 22.818 1.788 29.013 2.369a906.5 906.5 0 0 1 122.961 20.249c54.33 13.02 132.211 36.696 172.358 76.878 53.428 53.475 95.22 126.792 132.387 192.337a4142 4142 0 0 1 63.192 114.945 2169 2169 0 0 1 28.722 56.43c5.212 10.55 10.479 21.82 16.292 32.05 1.921 3.38 2.795 3.1 5.949 3.81 3.317-1.02 3.449-1.03 5.507-3.69 2.346-7.8-9.036-26.98-12.767-34.44a2152 2152 0 0 1-21.088-42.85c34.082-50.371 70.98-98.902 104.681-149.591 3.691-5.551 7.591-11.051 11.361-16.557 37.67 10.563 89.86 29.241 125.13 46.701-8.6 22.501-16.39 45.359-25.05 67.828a2007 2007 0 0 1-45.32 106.809 1380 1380 0 0 1-70.575 132.96c-19.643 32.65-41.246 71.71-79.01 85.34a86.2 86.2 0 0 1-23.593 4.91c-13.208.94-57.241-2.64-67.449-9.4-12.592-8.34-34.991-35.91-44.577-48.11-39.268-49.96-74.473-102.88-109.144-156.11-23.504-36.08-45.83-73.39-68.858-109.782-1.723-2.723-4.604-5.039-7.521-6.4-3.716-.029-2.072-.554-5.091 1.67-4.338 8.11 4.609 27.62 7.726 38.102a18497 18497 0 0 0 56.534 177.38c11.959 36.72 27.33 82.39 37.492 119.41l-526.714.58c1.485-23.52 1.053-53.66 1.365-77.63l2.179-146.27 3.53-159.22c.841-29.074 1.551-58.184 2.808-87.236.322-7.452 2.023-16.109-5.558-19.901-3.556-.049-3.778-.153-6.812 1.481-3.557 3.667-7.06 45.406-8.104 53.539a4950 4950 0 0 0-24.263 207.637 5154 5154 0 0 0-15.023 228.4l-27.038.29c.59-34.64.16-68.62 1.102-103.48a2318 2318 0 0 1 23.084-280.75c12.334-82.324 28.242-169.813 83.09-235.43 36.762-43.98 99.623-80.155 157.092-85.258"/><path fill="#fefefe" d="M1300.21 310.437c15.98-.443 31.96-.607 47.95-.493-4.47 23.033-8.21 50.197-12 73.631l-25.94 159.916-68.39 398.77c-36.47-.234-74.35.203-110.67-.745 10.99-25.973 14.58-48.03 32.39-71.278 7.21-9.414 13.31-31.734 15.84-44.094l8.38.13c5.16.098 8.5-.242 12.46-4.077l-.14-1.992c-5.73-4.76-11.98-3.472-19.5-3.242.28-9.733.28-16.413-.36-26.117 8.86.124 20.3.976 28.19-3.134l.35-2.049c-6.46-4.604-20.29-4.146-28.44-4.39-4.87-32.134-7.88-40.916-19.34-71.25a565 565 0 0 0 21.56-25.002c9.14-.334 42.34 2.288 46.99-2.963.07-1.874.55-2.586-.59-3.481-5.91-4.643-31.29-2.665-38.83-2.502 7.41-8.302 14.83-17.308 22.02-25.84 6.25.023 23.57 1.484 25.95-5.901-4.44-4.738-15.14-3.494-21.04-3.27 6.82-8.512 33.86-42.156 27.1-51.426-14.93-5.07-67.89 40.586-79.58 51.601-37.7.069-75.4.533-113.09 1.391-10.08.183-39.23-.084-47.24 1.695-2.75 2.668-2.28 1.457-2.85 4.771l1.66 1.819c5.64 2.36 134.42-.151 150.23-.027-9.42 6.701-21.72 18.133-30.67 26.05-9.43.632-16.81-1.443-23.77-1.075-23.48 1.242-46.62 1.5-70.11 1.808-6.68.034-29.256-.506-33.087 3.021-1.493 10.304 48.617 6.442 57.187 6.384-8.61 6.969-27.18 19.693-36.61 25.8-9.83.1-17.611-1.162-26.346 3.812l.238 2.971c5.596 3.011 12.938 2.501 19.248 2.467-37.307 37.392-54.551 84.163-23.157 131.823-13.854 22.261-41.043 62.633-56.713 83.228-19.687-.01-61.785.826-80.248-1.222l-26.915-49.873c22.331-1.712 64.905.815 89.687.93.402-1.313 1.406-4.314 1.8-6.597 6.019-34.826 13.871-70.328 18.31-105.28l-1.532-2.429c-7.859-2.688-92.8-2.253-103.915-.418-3.581 2.973-15.896 80.189-17.163 91.05-9.372-15.489-18.698-32.832-27.896-48.702 3.136-16.629 5.574-34.843 8.404-51.672l24.852-152.906 49.414-291.123 305.282-6.425c42.77-.836 88.02-.14 130.64-2.073"/><path d="m947.141 629.591 9.993 1.034c-2.211 19.94-7.237 44.382-10.393 64.394-1.881 11.928-6.706 44.598-10.536 54.166l-1.536 1.3c-20.12 1.165-78.374.188-94.42-.022-4.743-.016-6.248.286-9.627-2.163-1.147-4.162 16.802-108.851 20.335-115.653 7.91-4.18 80.939-2.501 96.184-3.056"/><path fill="#fefefe" d="m857.422 639.375 88.882-.471c-.596 13.247-5.281 36.508-7.665 50.752-2.681 16.025-5.573 37.582-9.205 52.971-29.977.316-59.958.223-89.933-.279 5.694-33.238 11.251-70.217 17.921-102.973"/><path d="M924.597 668.713c4.526.168 3.55-.556 6.435 1.776.153 1.381.537 2.566-.314 3.708-6.684 8.964-41.15 42.814-48.645 45.494-4.487-2.64-12.746-22.244-15.528-28.191-1.94-3.898-3.64-6.84-4.434-11.173.949-3.387-.029-2.193 2.817-3.869l2.406.688c6.28 5.181 12.825 22.094 16.534 30.352 8.064-6.036 32.43-30.699 40.729-38.785m41.612-177.152c5.211-.47 8.995-1.72 12.749 2.315.349 4.784-.642 9.497-1.417 14.222-5.159 31.468-10.663 62.872-15.734 94.352-.447 2.774-1.703 5.746-3.298 8.036-6.496 2.452-78.857 1.498-91.125 1.552-4.633.064-9.003.769-12.636-1.657-1.826-4.464 15.446-106.312 19.451-116.618 6.448-3.315 77.916-1.511 92.01-2.202"/><path fill="#fefefe" d="M905.402 500.477c20.752.55 43.209-.269 64.172-.38-.657 9.387-3.797 26.024-5.355 35.618l-11.082 66.869c-6.781.417-14.992.298-21.887.381q-33.912.44-67.823-.043l16.922-102.269c8.108.152 16.885-.088 25.053-.176"/><path d="M947.689 527.75c2.628 1.196 2.717 1.413 4.721 3.581.174 1.787.666 3.13-.694 4.624-8.248 9.056-38.499 41.189-48.429 43.344-4.747-3.205-9.696-18.671-11.985-24.605-3.169-6.154-4.775-9.475-2.613-16.431l1.709-.33c7.078 5.269 12.117 20.946 15.727 29.617 12.496-9.945 29.345-28.303 41.564-39.8m-4.004-171.277c11.054-.162 46.766-1.695 54.871 1.325 3.054 5.281-4.152 40.208-5.428 47.861l-10.969 68.026a2009 2009 0 0 0-46.242 1.26c-11.465-.172-47.052 1.02-56.284-.419-1.175-.876-1.971-1.213-2.614-2.589-2.26-4.837 14.665-103.745 18.581-113.157 6.386-3.018 38.067-1.759 48.085-2.307"/><path fill="#fefefe" d="M950.497 365.572c11.724-1.262 28.323-.589 40.458-.343l-10.156 62.347c-1.417 8.653-4.097 28.128-6.66 35.806-6.865 3.554-37.978 2.579-47.981 2.658l-40.282.044c6.098-32.153 9.594-67.041 15.73-99.938q24.45.04 48.891-.574"/><path d="M969.812 391.631c3.852.175 4.174 1.058 5.958 3.795-1.227 6.62-43.14 45.795-51.481 45.225-4.852-3.745-10.615-21.534-13.161-28.287-2.466-5.32-5.163-9.649-.502-14.533l2.017.115c5.939 4.649 12.269 23.254 15.618 31.331a2031 2031 0 0 0 41.551-37.646m296.178-29.109c5.77-.28 12.19-1.21 16.8 2.477.33 2.842.52 1.699-1.45 4.497-6.87 3.202-202.21 6.605-223.63 6.471-6.64.101-12.26 1.581-16.96-3.829l.38-1.891c2.44-1.649 5.84-2.653 8.79-2.703 71.88-1.219 144.21-4.849 216.07-5.022m-24.29 34.964c8.09-.245 30.35-2.814 34.5 3.838l-.89 1.48a18.23 18.23 0 0 1-9.29 3.434c-9.57.794-35.21-.178-46.83.148a6398 6398 0 0 1-151.04 3.07c-7.91.448-29.12 2.974-34.16-2.891l.99-2.15c1.71-1.273 5.39-3.631 7.5-3.615 17.47.13 35-.223 52.46-.642q73.365-1.952 146.76-2.672m-39.12 136.003c9.56-.22 48.68-3.301 54.34 2.97-.06 2.741.36 1.515-1.46 3.738-5.95 2.787-161.38 4.686-182.19 4.769-9.99.149-51.54 4.308-56.77-2.415 2.03-7.87 15.25-5.739 21.95-5.863l41.86-.575c39.73-.527 82.61-1.315 122.27-2.624m44.09-33.927c5.21-.38 14.81-.726 16.57 5.765-4.82 5.706-63.59 3.623-73.76 3.786l-155.73 3.024c-5.4.299-11.86 1.479-13.23-5.335 6.23-5.53 38.41-3.559 48.62-3.9 34.91-1.077 69.82-1.779 104.74-2.106 22.36-.174 51.12.237 72.79-1.234m-137.78 71.968c6.93-.316 33.22-3.311 35.92 3.799-.48 1.129-2.45 3.873-3.76 3.925-33.31 1.327-66.91 1.434-100.3 1.871-8.15.14-27 3.418-30.6-4.081l.85-2.333c4.48-3.233 86.02-3.046 97.89-3.181m-.81-136.044c8.29-.69 17.14-.656 25.51-.785 5.31-.081 18.95-1.32 19.86 5.375l-1.76 2.241c-8.89 2.35-63.26 1.943-76.17 2.138-13.07.768-26.45.639-39.54.513-3.91-.038-6.38-.556-7.66-4.513.18-.248.33-.525.54-.744 5.97-6.171 67.7-4.087 79.22-4.225"/><path fill="#fefefe" d="M636.28 382.228c16.617 1.865 19.161 29.863 27.629 35.064 11.065.535 78.736-27.31 91.858-33.073a249 249 0 0 1-12.003 36.605c-8.282 19.964-22.369 46.761-32.921 67.374-20.149 36.76-34.796 88.063-65.022 117.58-23.78 23.222-54.893 5.94-72.405-14.524a511 511 0 0 0 6.608-20.612c3.098-10.52 12.26-46.457-2.691-50.135-2.723 1.366-5.525 4.634-5.793 7.518-3.052 32.8-10.134 58.089-25.685 87.66l-22.506-6.35c-42.793-11.584-121.779-26.516-165.747-27.462 26.003-23.425 48.281-66.202 57.923-99.804 45.022 44.439 137.702-13.368 177.105-43.641 3.999 18.89 14.65 48.934 38.09 52.704 3.382.544 5.893-.151 8.537-2.296 3.049-9.432-7.614-12.459-14.328-17.36-24.182-17.653-24.818-84.591 11.351-89.248m1181.04 620.212c2.85-.36 3.06-.47 5.77.28 3.41 5.26-16.85 164.68-17.32 183.5-31.13-.73-69.82 1.04-102.01 1.01-1.34-.32-1.13-.41-2.35-1.29-1.42-59.62-4.18-122.16-4.42-181.5 23.96-.08 48.5-1.12 72.57-1.39 15.17-.18 32.91.17 47.76-.61m-266.83-588.898c8.19-.605 15.57-.447 23.76-.355-1.51 24.792-5.38 53.889-7.85 78.945q-7.44 81.706-15.78 163.326A22204 22204 0 0 1 1510 1080.14c-55.17.81-110.34 1.13-165.51.97l-271.49 1.87c1.89-4.28 3.92-8.6 5.87-12.86 7.13.2 14.53.11 21.68.03 51.19-.56 102.71-.16 153.86-1.16 80.26.25 161.96-1.51 242.42-1.95.39-18.41 3.44-43.63 5.23-62.29l11.89-118.753 29.02-302.886c3.2-30.757 6.18-61.537 8.93-92.338 1.41-14.343 5.75-48.447 3.97-60.905-4.72-4.833-82.34.037-95.45-.13-38.61-.493-78.59 2.541-117.26 2.054l2.05-13.942c64.91.853 139.57-3.204 205.28-4.308m338.01 786.988c25.04-.5 50.1-.8 75.15-.89l.08 13.4c-103.42 2.48-211 2.13-314.73 3.02l-578.35 5.55c-24.59.11-49.18.39-73.773.83 2.957-4.16 5.723-8.83 8.423-13.19 22.27.62 51.63-.64 74.49-.85l197.37-2.27 393.48-3.34c72.62-.31 145.24-1.06 217.86-2.26m-739.87-476.359c5.46 5.683 13.49 37.267 14.86 46.434 6.74 44.89 1.76 74.915-24.24 112.076-12.46-7.198-28.95-13.301-42.45-18.868-21.69-8.946-42.04-17.112-64.57-23.703l-10.15-2.989a715 715 0 0 0 110.58-96.186c3.44 9.557 6.47 38.204 13.86 42.181 4.26-.439 2.9.265 6.01-2.18 5.07-9.447-4.39-40.104-6.59-50.818-.6-2.874.43-3.02 2.69-5.947m-316.308 55.01c28.809-.033 62.451 1.494 90.803-.051-4.367 32.827-12.138 65.713-17.486 98.498-9.718.094-84.239.633-87.76-1.473-2.421-8.818 12.434-81.226 14.443-96.974"/><path d="M899.544 810.536c2.047.778 2.588 1.592 4.094 3.148.329 1.856.752 4.536-.946 5.932-8.869 7.296-36.45 34.049-45.969 35.672-4.792-2.341-11.239-19.15-13.731-24.68-2.461-4.934-5.142-8.353-3.55-13.282 1.422-.866 1.928-1.639 3.125-1.218 6.45 2.269 13.893 21.476 16.627 27.405 12.712-8.783 27.972-22.729 40.35-32.977"/><path fill="#fefefe" d="M1589.12 415.409c3.89 2.556 9.42 8.952 9.56 13.628.53 17.611-1.89 36.285-3.53 53.816l-10.27 108.786-29.27 312.348a9288 9288 0 0 1-10.57 107.943c-1.79 17.79-3.54 35.7-5.46 53.47-.63 5.85-2.72 8.44-6.2 12.97-2.43 1.17-4.83 2.6-7.27 1.65-.75-9.13 4-48.83 5.22-60.5l9.69-100.079 30.94-328.605 11.67-119.368c1.73-17.873 4.64-38.559 5.49-56.059m-377.11 206.75.47 1.189c-9.76 16.112-33.31 43.381-45.83 58.1-46.74 54.922-100.25 109.469-161.18 148.689l-.87-1.455c8.69-14.18 34.47-41.112 46.21-54.069 38.63-42.643 78.48-84.568 122.27-121.991 11.8-10.09 26.03-22.181 38.93-30.463M1078 1097.5a3396 3396 0 0 1 87.41-.34c3.6 13.01 6.93 26.65 10.32 39.76-10.68.35-22.22.16-32.98.17-32.46 1.15-64.97.21-97.45.77 6.56-11.37 14-27.77 19.88-39.91zm-39.51 55.26c37.45 1.94 88.92.06 127.61.38-5.73 5.96-26.84 21.68-34.34 27.62l-14.01 11.74c-33 1.54-68.15.08-102.05 1.4 3.83-9.4 17.25-31.68 22.79-41.14m13.5-446.863c.52 3.431-22.52 68.162-26.39 73.359-7.48 10.049-26.087 30.083-35.045 42.078l-1.85-.017c-17.862-42.006 29.375-95.055 63.285-115.42M822.743 439.478c3.607-.125 3.015-.644 5.677.885 1.508 3.635-.075 8.424-.892 12.592-24.351-.074-52.211 1.388-76.779 2.113-2.579.369-2.555.486-5.194-.224-.421-3.996 3.511-9.863 5.604-13.778 22.886.218 48.465-.972 71.584-1.588m271.707 248.935c5.22-.574 13.99-.711 19.51-.986-12.05 11.493-21.85 21.483-33.37 33.552-3.62 4.073-8.09 8.231-12.03 12.069 5.67-14.376 9.61-28.748 13.39-43.696zm-527.256-80.898c4.155 3.684 13.609 10.459 9.117 16.305l-2.53.235-12.212-3.675zm24.314 17.02c6.574 2.185 11.744 2.998 11.75 10.247-8.637-1.35-10.535-2.026-11.75-10.247"/><path d="M1894.93 428.434c7.08-.592 13.95-2.33 18.36 4.163 1.32 9.512.73 30.016.74 40.681l.07 76.175.01 148.743c-.01 13.117 1.54 80.157-1.65 89.811-11.15 4.027-90.95 5.536-108.58 6.152l-123.63 4.785c-7.12.375-15.16 2.165-19.99-3.919-1.83-7.027-1.11-34.383-1.07-42.9l.53-81.432-.36-158.789c.03-13.426-1.18-64.125 1.95-73.904 8.56-3.916 63.22-4.125 76.36-4.54a9952 9952 0 0 0 157.26-5.026"/><path fill="#fefefe" d="M1867.41 444.566c9.79-.721 21.81-.743 31.79-1.021l-.2 332.386c-65.12 2.196-130.32 5.941-195.52 7.299-8.66.809-19.44.966-28.38 1.463-.85-12.854-.48-28.893-.5-41.932l-.02-72.222.36-219.856c19.04-1.449 40.15-1.207 59.38-1.997 44.06-1.81 89.13-2.001 133.09-4.12"/><path d="M1855.98 499.511c.62.144 1.23.301 1.84.473 15.22 4.373 2.13 19.188-2.54 27.019l-20.98 35.373-38.93 65.833c-5.47 9.28-22.65 42.066-31.24 45.734-6.96-1.291-43.32-43.697-50.82-51.988-2.26-2.301-7.65-7.685-8.89-10.384a8.14 8.14 0 0 1-.21-6.404c1.09-2.784.96-2.156 3.6-3.399 3.2.287 6.42 1.539 8.71 3.713 15.26 14.528 31.08 32.414 45.44 47.785 7.66-10.431 18.38-29.549 25.31-41.199l44.18-74.627c4.97-8.401 18.04-32.192 24.53-37.929"/></svg>