<svg xmlns="http://www.w3.org/2000/svg" preserveAspectRatio="xMidYMid meet" viewBox="0 0 2048 2048"><path d="M974.462 68.164c518.628-27.423 961.278 370.808 988.658 889.441 27.37 518.635-370.91 961.245-889.54 988.565-518.567 27.32-961.103-370.89-988.471-889.45S455.904 95.583 974.462 68.164"/><path fill="#fefefe" d="M893.118 190.339c2.595-.596 2.592-.506 5.281-.311l.553 1.51c-1.539 8.772-7.847 27.377-10.635 36.455a2413 2413 0 0 0-19.632 65.836l-86.836 294.356a48504 48504 0 0 1-152.355 521.505c-17.152 57.97-34.753 123.54-53.723 181.24-1.375 4.19-44.777 47.06-51.726 54.03l-152.004 151.71c-17.411-22.18-45.419-57.82-59.607-80.94-25.521-41.58-56.769-107.16-71.764-153.85 24.29-10.32 249.032-102.53 252.743-106.97 1.809-2.16 2.501-5.23 1.919-7.98-.506-2.38-2.024-4.53-4.246-5.6-3.946-1.9-9.015-.8-12.972.43-8.817 2.75-17.467 7.02-25.979 10.64a2420 2420 0 0 1-43.892 18.37l-173.174 71.19a752.2 752.2 0 0 1-32.699-176.81c-1.241-16.99-2.701-42.45-1.685-59.24l183.528-.85q24.49-.18 48.978.09c10.886.19 44.864 4.59 45.921-9.543 1.049-14.035-32.561-9.61-41.884-9.548l-49.45-.082-186.857.386a1759 1759 0 0 1 5.364-67.6 862.3 862.3 0 0 1 31.561-153.477l194.865 54.368c14.347 4.012 67.637 20.231 78.062 20.563a10.94 10.94 0 0 0 5.06-5.619c2.433-6.062-.474-11.407-6.611-13.255-22.93-6.902-46.2-12.874-69.284-19.345l-119.634-34.013c-24.281-6.888-52.435-14.184-76.146-22.145a862.3 862.3 0 0 1 122.897-238.806c17.151 12.431 44.189 38.561 60.722 53.546l102.699 93.218c10.57 9.766 34.263 33.271 44.82 41.46a9.46 9.46 0 0 0 4.247 1.898 9.65 9.65 0 0 0 7.59-1.908c3.237-2.512 3.6-5.107 3.837-8.716-7.076-14.28-187.259-173.373-211.175-196.16 51.883-64.392 95.58-106.375 162.14-156.186 21.071 25.642 40.95 53.067 60.792 79.666l93.871 126.144 32.848 44.625c5.595 7.575 11.523 16.408 18.138 23.027 7.318 7.322 13.667-2.036 17.381-7.211-4.782-9.372-15.083-22.294-21.668-31.014l-38.57-50.481c-39.655-51.732-77.19-105.659-116.511-157.676-9.432-12.477-20.565-25.403-28.887-38.512 15.638-12.627 45.489-29.797 63.06-39.297a845.6 845.6 0 0 1 270.729-93.118m615.672 141.352c50.73 31.903 136.69 118.611 171.05 169.229-16.07 14.922-39.99 33.296-57.5 47.906a11346 11346 0 0 0-127.25 106.251c-14.68 12.368-31.56 24.787-44.06 39.114-4.41 5.058 1.55 11.591 6.42 13.923 8.03.453 30.72-21.529 37.97-27.728l50.65-42.545c48.62-40.672 98.21-80.418 145.91-122.087 49.97 68.746 97.08 164.559 118.95 247.083-39.39 8.509-81.91 20.118-120.95 30.428l-117.89 31.134c-10.36 2.821-21.11 5.452-31.55 7.992-9.84 2.392-38.4 7.738-24.94 23.703 7.6 3.984 28.76-3.896 37.67-6.258l70.28-19.11 193.05-49.345c16.79 63.187 30.53 139.034 30.16 204.683l-204.07-.128-65.19-.039c-11.57-.054-35.93-4.438-40.31 8.951.45 14.382 29.6 10.972 39.44 10.952l47.37-.02 148.29.08c22.71 0 52.52-1.16 74.2.13-.86 75.48-19.58 189.85-50.06 259.26-19.59-7.15-47.65-20.66-67.16-29.3l-138.64-62.1c-13.31-5.96-57.78-27.3-68.83-28.4-2.81 1.26-4.2 1.91-5.93 4.82-1.47 2.48-1.59 6.04-.56 8.7.84 2.15 2.47 4.28 4.66 5.28 11.96 5.45 24.23 10.69 36.23 16.01l69.64 31.16c52.41 23.56 110.11 51.29 162.81 72.74-24.35 71.37-75.51 144.02-121.08 203.15l-143.92-151.85c-18.42-19.17-37.09-38.13-54.95-57.84-1.45-1.6-4.75-2.44-6.83-2.96-20.04-60.31-37.69-132.67-55.07-194.03l-131.24-462.794c9.78-6.591 12.26-11.577 19.44-20.244 72.52-87.496 141.46-178.314 213.79-265.901m-480.35-150.386c32.83.375 64.75 1.32 97.44 4.868 7.97 21.047 17.99 58.561 24.93 81.31a12746 12746 0 0 1 53.31 177.425 32237 32237 0 0 1 167.42 584.112l101.78 360.75q20.04 67.815 38.85 135.99c12.56 45.01 24.73 89.66 32.19 135.85-7.39 10.53-12.27 15.06-22.95 21.8-3.55-9.99-7.5-28.52-10.19-39.6a3888 3888 0 0 0-15.87-63.85c-4.06-16.27-7.44-37.18-17.11-50.81l-4.37-6.25c-13.83-39.95-14.84-77.49-21.79-117.64-17.9-103.46-25.36-232.87-135.66-281.92-37.75-16.78-76-32.87-116.82-41.43-21.33-4.28-42.96-6.9-64.7-7.82-11.3-25.3-15.06-61.36-12.76-88.922 12.82-4.91 71.26-28.072 68.27-42.879-4.11-2.626-10.36-3.71-15.27-4.931 14.33-9.252 83.21-35.761 79.28-56.697-3.94-5.128-16.6-7.737-23.22-9.607 10.3-6.587 60.09-28.988 57.23-43.032-4.66-4.803-14.42-5.709-21.28-7.098 6.65-6.693 15.11-14.473 17.59-23.967 2.11-8.048-6.02-11.029-12.59-13.391-67.57-24.262-57.79-112.565-95.53-161.43-24.3-31.458-64.37-58.861-101.23-73.98-16.84-6.786-36.26-10.004-54.23-12.584-.56-14.795.8-36.505 1.27-51.732l1.96-79.84c2.02-74.218 3.37-148.453 4.05-222.695m-32.363.119c4.543-.26 9.573-.152 14.173-.154 1.72 25.906-1.34 75.616-1.86 102.677a14980 14980 0 0 0-5.27 251.693c-45.955 1.777-101.364 5.256-142.366 33.181-65.147 45.806-49.136 137.596-75.508 203.587-4.424 11.071-9.889 17.532-18.149 25.57-16.752 16.305-49.168 22.939-11.992 39.519-5.347 4.752-15.734 10.711-22.333 15.289 2.404 14.57 23.466 18.103 34.575 26.385 1.817 4.412-2.145-.316-4.763 6.824 2.545 13.562 21.089 17.367 27.296 25.48 27.248 35.616 67.27 67.672 115.066 67.515.572 39.52-1.951 58.34-11.916 96.46-75.224 14.74-200.395 29.65-241.621 102.62-61.502 108.84-61.384 244.72-86.7 364.89l-28.991 116.45c-5.469 5.23-24.291 16.72-31.889 21.61-6.221-2.56-9.27-4.05-15.116-7.37 2.151-6.67 3.883-13.75 5.625-20.56 14.903-58.29 31.935-115.93 48.661-173.72l141.754-485.441 138.39-473.106 54.071-182.854 25.554-86.456c6.272-20.983 13.395-42.95 18.748-64.087l.955-.214c22.784-4.728 49.922-3.395 73.606-5.788m151.923 7.49c27.44 5.105 59.11 9.912 85.85 16.283 80.69 19.231 191.84 63.913 258.04 114.784-10.67 15.087-23.8 29.661-35.3 44.321l-87.86 110.745c-31.19 38.562-68.4 82.349-97.85 121.626-6.71-18.149-12.68-41.533-18.38-60.479l-34.7-115.71-44.47-148.585c-8.28-27.175-17.74-55.778-25.33-82.985"/><path fill="#fefefe" d="M1004.93 649.954c2.28.454 16.06 12.44 19.69 15.063 21.14 15.257 54.83 23.117 74.21 39.281 5.82 18.103 10.86 35.364 19.19 52.52 8.83 18.173 21.9 37.108 29.44 55.452-3.39 28.072-30.83 106.201-49.08 128.869-20.56 25.526-43.81 34.117-75.14 37.684-14.45.414-23.603-.125-37.789-2.651-30.7-5.468-60.8-21.709-78.261-48.543-20.445-31.421-28.748-90.807-24.926-128.151 1.477-14.435 7.701-31.576 10.079-46.303 1.523-9.435.316-29.329 2.554-37.242 12.839-45.403 75.876-43.522 110.033-65.979"/><path d="M1002.03 754.017c1.45.344 4.6 1.101 5.02 2.314 6.05 21.206-2.98 48.52-5.91 70.092-1.846 13.589 14.55 20.278 13 28.491-2.55 2.77-4.92 2.711-8.7 3.406-9.549-3.465-17.032-14.147-21.25-23.048.558-15.435 7.085-38.401 9.191-54.445.912-6.949 1.833-15.635 2.703-22.719.258-2.096 3.835-3.144 5.946-4.091m-67.445-25.684c8.533-1.414 46.964-2.631 47.328 9.74-3.396 5.505-7.782 6.578-13.719 8.826-7.962-1.61-14.478-2.527-22.558-3.545-6.005-.469-7.569-.39-14.066.084-8.75.638-22.03 6.778-29.906 4.685-1.233-.327-1.117-1.549-1.534-3.152 2.29-11.755 24.358-15.226 34.455-16.638m122.685-.914c13.5.407 46.47 2.441 52.56 17.35l-.96 1.839c-7.74 2.674-13.43-.206-21.65-2.537-2.61-.607-14.01-3.28-16.08-2.715-9.61 2.621-33.07 7.397-39.02-2.592 1.37-10.509 16.66-10.566 25.15-11.345m-123.031 29.75c21.574-.811 26.95 21.988 5.196 32.481-8.166-.749-15.951-2.783-19.02-11.425a14.35 14.35 0 0 1 .697-11.091c2.912-6.008 7.277-7.733 13.127-9.965M1068 759.126c21.18-3.239 32.05 16.347 13.37 28.395-7.59 1.928-14.27 1.655-19.55-5.04a14.27 14.27 0 0 1-2.93-10.962c.98-6.7 3.91-8.813 9.11-12.393M982.828 888.38c10.35-.027 54.962-2.677 61.102 4.283l-.45 2.34c-2.42 2.869-3.11 2.807-6.69 3.773-14.51.919-30.29 1.559-44.888 1.181-6.144-.16-13.623-.62-13.909-7.895 2.007-3.457.593-2.104 4.835-3.682"/><path fill="#fefefe" d="M1102.68 962.965c.87 5.231.06 29.018.18 36.051a288.6 288.6 0 0 0 13.43 84.474c-86.42 26.36-109.12 29.1-195.947 1.34l-9.72-2.93c11.449-32.55 15.484-77.57 12.651-112.153 60.631 34.903 123.456 37.233 179.406-6.782m365.36 342.635c1.35.43 2.1.72 3.07 1.84 26.57 30.82 55.9 59.04 83.67 88.75 33.35 35.7 66.29 71.64 100.8 106.26-15.17 15.31-29.15 29.66-45.23 44-20.03 18.78-36.85 32.53-59.69 47.53-6.34-18.94-13.79-52.08-19.45-72.65l-40.86-144.34c-3.67-12.81-17.33-61.84-22.31-71.39m-87.82-95.44 1.79-.04c4.89 3.95 9.14 16.04 11.71 22.34-35.86 14.23-74.81 18.34-112.95 22.52-29.58 2.78-60.5 9.44-90.06 11.02-62.98 1.4-125.41 6.14-188.45 7.02-92.906 1.31-189.543.5-281.513-13.6-24.299-3.73-50.086-7.78-73.487-14.17l-2.717-1.21-.592-1.96c7.318-33.78 10.129-20.85 32.23-16.21 54.887 11.52 112.344 16.59 168.254 20.54a1858.3 1858.3 0 0 0 351.745-8.45c26.51-3.08 50.57-7.46 76.41-10.97 39.86-5.4 68.18-7.07 107.63-16.83m-814.345 117.75c.429 8.47-71.834 259.5-79.411 275.14-20.349-12.89-36.968-27.72-54.701-43.83-15.24-14.92-33.156-31.6-47.127-47.34 11.575-14.16 36.484-37.6 50.316-51.36l68.633-68.75c21.454-21.29 42.389-41.1 62.29-63.86m699.355 79.66c4.13-.3 8.7-.37 12.87-.53-.13 9.15-1.62 22.09-2.49 31.53-18.58.84-38.49 3.86-57.18 4.99-49.39 2.26-99.29 8.92-148.63 10.61-94.622 3.24-195.439-.69-289.674-10.89l-17.674-1.55c-1.158-10.3-2.442-20.58-3.851-30.85 12.496-.12 35.245 2.12 48.84 2.88 29.415 1.35 58.842 2.42 88.279 3.19 47.09.92 94.208-1.2 141.28-1.69 76.84-.78 151.58-1.24 228.23-7.69m-11.82 139.87c2.05-.31 9.38-.37 11.83-.45.01 8.61-.77 16.03-1.59 24.56-49.86 6.68-100.62 15.57-150.79 18.52-106.15 6.25-214.217 3.93-320.105-4.23-5.035-.2-10.326-.68-15.373-1.06l-2.638-27.5c74.787-1.11 150.639 1.75 225.456.43 50.99-.9 103.28-3.54 154.28-5.47 33.54-1.28 65.33-1.5 98.93-4.8"/><path fill="#fefefe" d="M1355.46 1177.15c9.69-.67 14.4 11.15 19.28 18.89-9.38 1.7-19.77 3.87-29.18 4.93-75.18 8.46-149.78 22.01-225.17 28.66a1761 1761 0 0 1-320.779-3.15c-41.388-4.05-84.066-7.73-124.317-17.95-5.399-1.68-11.096-3.24-16.546-4.83 4.482-8.2 8.506-15.19 13.457-23.11 21.107 8.41 51.813 13.48 74.603 16.81 71.804 10.48 143.284 12.52 215.629 12.92 64.823.62 129.653-1.22 194.343-5.51 19.6-1.47 38.94-3.73 58.44-6.11 48.15-5.87 92.86-10.34 140.24-21.55m-64.54 94.57c1.05 4.44-1.53 21.37-2.26 26.78-38.91 6.36-79.66 8.54-119.06 13.54-76.78 9.75-154.9 8.5-232.111 6.29-63.756-1.82-127.667-2.36-190.99-11.87-1.376-6.04-2.943-20.01-3.917-26.72a2231 2231 0 0 0 229.147 10.62c38.491-.36 77.351-3.22 115.771-4.36 54.3-1.6 108.11-3.31 162.11-9.72 13.57-1.61 27.75-3.64 41.31-4.56"/><path fill="#fefefe" d="M1278.18 1317.41c1.48-.29 7.49-.12 9.35-.1-.67 8.2-1.31 13.21-2.85 21.28-16.57 1.96-33.83 5.8-50.48 7.88-34.41 4.3-68.97 8.35-103.46 11.89-72.2 7.4-141.405 8.31-213.799 6.61-51.47-.85-102.874-4.07-154.048-9.66-3.674-.21-7.836-1.01-11.512-1.6-.397-9.46-1.698-20.52-2.588-30.06 27.154 1.35 58.085 6.08 86.212 7.9 33.01 1.81 66.048 3.1 99.099 3.87 56.17 1.61 111.446 2.71 167.646-.37 49.58-2.71 97.92-10.87 147.31-14.92 9.76-.8 19.39-1.7 29.12-2.72m-756.323 402.3c18.684 16.44 46.426 31.57 68.715 43.78 104.592 57.31 224.599 89.88 343.236 98.75 24.931 1.86 51.015 1.71 75.992 1.72.11 8.74 2.63 27.99-2.28 33.66l-5.14.13c-31.129-2.32-61.277-3.98-92.373-7.52-105.012-11.96-197.771-37.34-292.273-84.14a1067 1067 0 0 1-68.583-37.9c-11.315-6.7-25.158-16.29-36.701-21.53 2.288-8.37 6.365-18.64 9.407-26.95m999.033.1c4.14 4.01 10.95 15.34 14.39 20.67-41.96 22.87-82.01 46.62-126.22 65.78-98.16 42.54-219.35 78.15-325.64 88.15l-15.07 1.4c-.27-9.34-1.09-21.49.25-30.72.35-2.41 1.31-2.81 4.09-3.15 15.96-2.02 32.06-3.8 47.98-6.06 27.29-4.15 54.48-8.96 81.53-14.45 106.81-21.3 224.37-68.2 318.69-121.62m-203.41-575.48c10.63 6.47 17.45 11.05 26.95 19.04-31.31 8.02-55.09 9.72-86.51 13.81a2121 2121 0 0 1-431.714 11.89c-38.988-3.01-77.209-5.7-115.447-14.6-9.781-2.33-15.871-4.01-25.251-7.48 6.116-6.41 10.213-9.84 17.122-15.49 10.579-.5 53.341 4.61 66.653 5.77l129.822 10.57c32.802 2.97 67.502 5.58 100.396 5.78 69.029.43 137.639-5.4 206.449-9.37 20.44-1.18 40.11-2.61 60.34-6.05 18-3.06 33.76-9.2 51.19-13.87m-65.69 357.07c4.41-.51 12.58-.43 17.32-.51.02 8.74-1.47 21.07-2.29 30.02-19.93-.06-44.44 2.21-64.7 3.32-37.2 1.77-74.41 3.33-111.63 4.69-99.889 2.81-200.183 1.56-300.24 2.09-6.136.13-10.669.48-16.77 1.09-1.234-10.94-2.349-20.26-2.631-31.29 46.401 1.96 89.531 1.09 135.779 1.19a4306 4306 0 0 0 345.162-10.6m15.54-44.94c2.44-.34 2.49-.24 4.95.15 2.68 4.23-.91 19.96-1.74 26.44-10.25 0-28.55 2.34-39.54 3.18-29.82 2.34-59.67 4.23-89.54 5.65-42.7 1.65-85.42 2.81-128.14 3.48-58.224.8-180.584-.81-244.24-.93-.911 0-1.36-3.15-1.716-4.56l-2.54-30.64c7.238 1.14 20.139 1.81 27.723 2.42q32.628 2.61 65.312 4.38c51.917 3.31 101.208 5.85 153.241 5.47 86.21-.63 170.36-9.08 256.23-15.04m-12.64 132.87c3.94-.26 4.24-.93 7.18.6.69 6.88-3 39.83-4.22 48.1-20.09-.78-40.81-2.41-61.09-3.33-49.68-1.87-99.38-3.41-149.08-4.63-25.53-.42-50.694.37-76.201.86-61.958 1.2-125.808 2.88-187.506 8.86-1.333-14.52-2.337-24.7-4.858-38.98 13.425.57 28.058 2.26 41.679 3.23q40.502 2.715 81.051 4.65c28.619 1.18 58.58.44 87.322.8 20.103.24 40.943.75 60.963.27a1355 1355 0 0 0 204.76-20.43"/><path fill="#fefefe" d="M1279.52 1356.36c1.6-.38 1.7-.13 3.47.11 1.36 4.13-2.07 26.73-2.49 33.6-52.72 6.97-132.74 6.97-186.86 7.96-109.985 2.04-228.117 6.57-337.176-5.42-1.534-6.58-2.247-14.98-3.022-21.83 33.924 5 88.54 7.8 123.392 9.2a1957.8 1957.8 0 0 0 402.686-23.62M1065.02 88.916c17.73-1.146 40.28.708 58.02 2.198a863.5 863.5 0 0 1 279.57 74.762c14.74 6.625 45.84 21.362 58.88 30.57l-6.16 11.304c-1.1 1.914-1.91 3.523-3.58 5.007-2.24 1.984-46.64-18.822-52.74-21.453a1115.4 1115.4 0 0 0-334.82-83.165c.12-6.259.54-12.933.83-19.223m443.57 134.458c5.56 2.65 13.76 8.873 19.25 12.345 139.29 88.09 240.48 208.732 316.62 353.417-4 1.883-8.37 3.629-12.47 5.358l-9.5 5.208c-13.22-30.355-34.82-66.936-52.83-94.666-72.47-111.528-159.91-195.674-271.39-267.348zm-963.708-3.684c5.137 2.307 8.783 12.961 11.192 18.401-25.881 18.256-52.336 33.231-78.404 52.645-62.392 46.467-107.539 95.05-155.778 155.561a759 759 0 0 0-36.543 50.598c-8.317 12.413-16.216 25.167-24.213 37.758-3.577 5.633-14.556 27.613-19.182 29.939l-2.477-1.541-15.361-9.151a931.5 931.5 0 0 1 262.171-295.603c19.076-13.865 38.637-26.075 58.595-38.607m707.028 898.25c6.47 1.07 38.38 13.29 45.47 16.09-55.39 15.86-117.38 14.33-174.86 19.78-119.52 11.33-234.787-4.6-353.769-12.92a2328 2328 0 0 1-43.337-3.96c44.431-18.69 44.076-14.87 89.622-8.2a591 591 0 0 0 46.935 4.88c73.795 5.36 333.049 13.54 389.939-15.67m-1104.889-92.97c5.358-.41 11.755-.35 17.206-.44 4.191 118.7 31.812 227.21 76.997 336.38 2.411 5.83 4.864 12.83 6.23 18.95-1.405 2.63-2.609 2.45-5.928 4.1-5.258 2.82-11.17 5.66-16.543 8.38-7.125-12.72-18.41-42.74-23.563-56.8-34.578-94.35-55.962-209.7-54.399-310.57M975.964 88.579c11.115-.748 21.045-.685 32.166-.653l-.01 17.434c-133.025-3.081-272.385 39.419-388.644 102.575-4.773 2.692-10.113 5.27-15.032 7.764-4.899-8.06-7.346-13.877-10.982-22.586 14.439-9.929 47.909-24.77 64.082-31.626a932.8 932.8 0 0 1 318.42-72.908m889.996 551.439c5.03 5.632 14.28 33.733 17.17 41.846a939.8 939.8 0 0 1 47.57 189.077c4.5 33.351 6.37 65.375 8.44 98.887-6.99.004-14.08.398-21.07.703-.54-.256-1.09-.513-1.63-.769-.52-12.036-3.02-40.357-4.04-50.206a979.6 979.6 0 0 0-68.32-268.011c7.03-3.112 15.04-7.776 21.88-11.527m19.33 387.062c4.73-.34 9.95-.29 14.73-.34 1.89 115.02-31.39 266.9-77.69 371.23-6.85 15.42-16.81 39.3-25.32 53.06l-1.51.31-18.07-8.03c14.8-33.86 31.79-65.17 45.87-100.26 41.75-104.04 53.85-205.43 61.99-315.97M197.973 603.464l20.242 11.292c-10.898 19.617-23.31 49.97-31.281 71.084a881 881 0 0 0-55.336 239.038c-1.368 14.504-3.295 30.57-3.355 45.038-6.772-.108-13.967-.518-20.772-.79 5.331-98.256 20.352-185.248 54.624-277.801 10.404-28.095 22.8-60.959 35.878-87.861M1544.46 1755.92c2.72 2.07 4.18 5.09 6.08 8.1-11.68 8.85-39.01 25.49-51.83 33.14-133.5 79.6-271 119.07-425.53 126.58l-3.57.06c-2.4-2.15-1.55-.83-2.27-4.29 3.34-8.17 21.24-6.92 29.82-8 16.25-2.18 32.46-4.6 48.64-7.27a1180.7 1180.7 0 0 0 326.4-107.95c24.26-12.32 48.64-26.71 72.26-40.37m206.23-268.6c6.78 3.06 14.57 8.63 20.85 12.9-10.42 16.15-19.66 32.92-31.07 48.6-37.12 50.99-83.32 94.73-131.81 134.75-7.49 6.18-15.63 13.66-24.13 18.11-1.54 1.02-2.45 1.49-4.07 2.36-5.8-2.53-12.42-15.19-16.02-21.11 19.79-18.06 46.75-37.8 66.01-55.98 36.01-33.97 100.74-95.95 120.24-139.63"/><path fill="#fefefe" d="m1919.87 1026.06 20.01-.17c1.19 110.22-29.09 241.63-70.72 343.7-10.59 25.99-28.28 61.13-41.22 86.27-2.13 4.54-1.92 6.02-6.82 7.39l-1.83-1.11c-1.61-6.58 10.15-28.36 13.53-36.02 20.51-46.23 37.62-93.9 51.19-142.63 26.08-93.71 33.1-160.25 35.86-257.43m-1812.765-.42c6.384-.11 13.587.18 20.038.3-.227 11.03.92 21.74 1.372 32.7 4.508 109.25 25.499 218.23 68.649 318.98 1.904 4.45 9.693 20.61 8.627 24.41l-9.169 3.12a886.8 886.8 0 0 1-89.517-379.51m161.343 400.15c4.398 1.76 17.094 29.61 20.543 35.97 38.568 71.17 108.946 183.16 179.86 223.35-1.459 6.31-3.394 12.48-5.24 18.7l-7.522-7.51c-17.432-17.53-38.271-33.57-57.541-53.28a1018 1018 0 0 1-116.043-142.99c-13.65-20.7-24.919-40.8-37.607-61.97zm295.65-1169.033 1.361.098c2.821 1.57 4.609 5.187 6.419 8.061-80.645 54.313-151.765 111.779-213.185 188.348a968 968 0 0 0-62.47 87.505c-4.468 7.072-19.607 35.718-24.449 39.238l-9.911-5.628c7.342-17.814 28.483-49.923 39.538-66.546a797.26 797.26 0 0 1 262.697-251.076M961.53 124.435l46.84-.372-.25 16.874c-29.706 1.815-63.18 1.886-92.626 5.646-66.467 8.488-135.842 25.748-198.825 48.547-23.337 8.447-47.279 19.357-69.922 29.395-10.428 4.871-20.764 10.691-31.366 15.051-2.821-1.527-1.613-.437-3.134-3.956 4.197-5.457 37.945-21.151 46.025-25.13 95.57-47.062 196.336-79.864 303.258-86.055M234.76 624.386c3.956 1.891 8.858 4.904 12.746 7.142a875 875 0 0 0-68.288 213.879c-7.453 39.61-10.828 79.39-14.658 119.46-.175 1.83-.797 2.816-1.78 4.284l-14.923.032c1.967-27.575 4.07-57.312 7.866-84.625a884.7 884.7 0 0 1 79.037-260.172M500.307 1765.74c12.745.29 42.671 21.14 55.444 28.57a894 894 0 0 0 127.495 61.5c79.766 30.91 154.267 44.66 239.224 54.09 25.813 2.87 62.278 2.04 85.4 5.83 1.72 2.66 1.28 6.92 1.3 10.31-6.38.06-12.539-.33-18.847-.48-163.031-3.94-323.607-47.81-460.311-138.03-7.774-5.13-26.032-14.35-29.705-21.79m795.843-265.6c3.37.43 3.2 10.35 4.57 13.19 8.67 18.12 10.48 35.19 14.83 54.22 5.48 23.96 7.65 54.25 20.74 75.08l-16.25-.75c-14.13-1.27-28.35-1.57-42.75-2.94l6.73-84.81c1.22-15.73 2.23-36.38 4.5-51.7 2.46-2.22 3.67-1.68 7.63-2.29M1487.8 255.464c11.61 6.057 26.9 18.016 37.96 25.584a793.3 793.3 0 0 1 199.76 194.228c25.86 35.882 47.18 69.386 67 108.793 2.81 5.584 11.69 18.059 10.6 23.486-.28 1.4-2.81 2.556-4.32 3.535l-.35.238c-3.01-.749-7.08-10.921-8.94-14.648a771 771 0 0 0-43.06-74.132 868.1 868.1 0 0 0-186.62-205.292 803 803 0 0 0-44.56-32.821c-5.58-3.756-28.08-17.605-31.17-20.688-.01-3.059 2.03-5.531 3.7-8.283M600.353 1440.8c10.907.36 127.729 12.33 131.295 15.02 2.351 7.2-1.602 26.87-3.039 34.94-5.754 1.36-86.737-13.36-99.024-15.25a458 458 0 0 0-33.05-3.76c.506-9.93 2.132-21.16 3.818-30.95m817.297-107.68c1.26-.09.41-.12 2.45.76 2.37 6.96 5.47 26.07 7.06 34.53-42.78 8.73-73.06 13.81-116.24 19.31l-11.52 1.33 3.93-36.33c41.56-5.69 73.35-8.83 114.32-19.6m15.23 91.97 2.04-.25c3.17 3.72 5.35 31.85 6.31 38.7-45.5 7.81-80.11 12.86-125.99 16.92-.71.19-1.9 0-2.73-.06-2.31-3.58-4.33-22.12-4.99-27.11 34.33-6.11 68.16-10.48 101.5-20.96 7.91-2.49 15.92-4.71 23.86-7.24m-688.743 29.36c2.803 1.93 3.906 4.75 4.365 8.06 8.182 59.09 9.79 119.08 17.317 178.28-7.194.26-14.385.6-21.572 1.01-7.776.3-15.917.91-23.717 1.38 3.013-25.21 9.621-54.17 13.151-80.46 4.735-35.26 5.797-74.1 10.456-108.27m-156.736 73.92c32.835.08 99.024 4.75 131.879 11.18-1.433 11.18-3.122 21.16-5.102 32.23-6.805 5.39-116.404-18.27-131.091-20.72zm18.886-131.49c13.115.08 41.836 4.23 56.744 5.64 26.559 2.51 52.565 3.45 78.79 5.72.355 6.64 4.269 27.04 1.859 30.49-44.258-3.24-95.311-10.33-140.373-14.94 1.215-9.18 1.312-17.48 2.98-26.91M1064.03 126.492c22.98.498 63.95 7.485 86.37 11.641 93.82 17.387 202.87 48.341 288.26 91.861 1.13 2.976.53 2.426-1.15 6.461-.48.315-2.52 1.222-2.89 1.065-18.47-7.799-36.57-17.267-55.11-25.088a892 892 0 0 0-233.65-63.147c-27.47-3.714-54.76-5.465-82.25-8.109zM1429.8 1384.38c2.09 2.16 3.55 19.14 4.05 23.33-6.03 1.8-12.44 3.41-18.39 5.36-36.97 12.15-74.65 17.44-112.93 23.78-1.92-6.38-5.22-24.75-3.45-30.76 3.24-1.91 58.49-7.53 66.91-9.08 20.5-3.8 43.33-9.16 63.81-12.63m-1202.326 63.53c7.829 9.75 16.36 27.83 23.461 38.95 40.963 64.15 87.828 124.44 142.093 177.91 20.262 19.97 42.101 37.81 62.353 57.55l-3.113 6.91-1.769.47c-11.49-8.35-26.938-22.46-37.548-32.08-73.913-67.06-146.81-156.17-193.156-244.87zm351.552 118.7c28.495 4.98 55.938 11.18 84.23 17.01 15.708 3.23 32.054 4.84 48.01 7.86-1.23 6.55-2.07 20.03-6.335 23.98-22.27-4.64-46.214-6.23-68.93-9.41-21.463-3-43.589-7.15-64.998-9.28 2.248-10.07 4.034-20.76 8.023-30.16m881.934-26.7c7.25 1.81 10.75 25.02 12.2 31.99-15.51 4.99-39.03 13.8-54.7 16.54-22.56 3.95-46.37 6.85-69.24 10.58l-8.66 1.27-3.15-19.64c47.47-10.25 79.89-19.87 123.55-40.74m365.64-878.845c14.55 23.704 29.57 89.035 38.87 115.453 8.02 22.77 37.66 183.303 31.1 193.291l-4.49.713c-13.6-.691-7.62-15.025-9.03-25.138-.82-5.852-1.07-12.482-1.67-18.45a966.4 966.4 0 0 0-62.89-261.845zM566.838 1612.63c4.957.38 10.125 1.25 15.047 2.05 40.395 6.59 80.761 11.7 121.494 15.81-1.713 9.82 1.16 13.37-9.796 14.92-47.43 3.95-88.011 3.83-135.116-2.5 2.903-9.98 5.609-20.24 8.371-30.28m908.292-23.5 1.01.23c3.4 4.51 6.4 22.1 7.68 28.62-32.81 3.89-66.53 13.94-99.5 18.05-9.23 1.15-18.95 2.2-28.07 3.83-4.63-6.94-13.45-13.63-11.02-22.83 3.51-2.73 58.61-8.55 67.5-10.21 21.91-4.1 41.29-11.78 62.4-17.69m-849.781-285.9c8.995 1.97 19.176 3.13 27.893 5.43 26.736 7.05 52.29 9.64 79.545 13.09.117 8.26 4.666 25.3 1.223 30.11l-4.214.06c-40.38-4.16-72.384-13.15-111.542-19.4 2.219-10.58 4.207-18.86 7.095-29.29m-10.219 45.63c23.248 3.16 43.985 8.54 66.829 13.17 18.105 3.68 37.482 5.68 55.82 7.61.344 5.28 2.897 16.66 1.439 20.98l-2.975.47c-41.065-2.8-86.514-5.6-127.376-11.34 1.812-10.18 3.476-20.99 6.263-30.89m833.04 160.98.47-.07c4.04 2.82 4.89 11.09 5.89 16.14-43.22 19.33-73.72 27.32-119.31 38.73-3.34-4.76-5.61-25.12-6.58-32.02 46.51-4.38 74.52-11.07 119.53-22.78m-50.6-219.67c3.86-.33 8.82-.25 12.78-.3l6.49 28.02c-32.77 7.23-57.49 10.72-90.68 14.83-7.1 1.1-14.59 1.84-21.76 2.66.38-8.39.75-15.28 1.77-23.59 30.22-4.45 61.81-14.71 91.4-21.62m-242.06-195.76c21.24.57 55.22 8.14 75.64 14.64-49.67 9.76-74.96 11.33-124.78 13.33-25.85-.41-48.78.66-75.62-.31 15.34-3.37 31.76-4.46 48.36-8.21 25.77-5.81 50.87-17.68 76.4-19.45m-517.858 164.13c26.998 9.27 61.54 15.64 90.142 18.76.763 6.92 4.478 21.97 1.171 26.81l-3.731.01c-31.645-2.84-64.585-11.39-96.837-16.51 2.405-9.66 5.902-19.7 9.255-29.07m-44.088 230.11c23.44.66 56.407 7.59 80.194 11.21 14.684 2.24 38.492 5.63 51.774 9.31-.188 4.92-.718 9.32-1.258 14.2-36.681-6.36-97.672-11.27-133.839-11.41.647-9.44.816-14.15 3.129-23.31m841.646-7.27c3.51-.54 3.88-.83 7.41-.03 6.76 9.6-1.43 12.33-9.41 15.06-34.83 11.88-70.94 15.91-107.29 19.92l-4.85-.27c-5.24-4.01-5.55-12.26-6.68-18.87zm-38.41-232.35 1.73.18c4.07 3.79 7.33 18.35 9.01 24.44-22.48 1.23-65.61 13.9-89.76 19.42l-10.94 2.28c1.31-8.26 2.1-18.87 2.97-27.34 29.77-2.99 59.01-8.24 86.99-18.98m389.42 260.45 3.92 3.1c1.84 5.68-10.09 20.16-13.88 25.83a845.7 845.7 0 0 1-140.75 159.42c-12.84 11.46-24.69 22.99-39.52 31.83-1.67-2.26-3.51-5.23-5.07-7.63 18-16.43 39.93-31.94 58.15-48.59 42.49-38.85 84.71-81.42 116.82-129.49 6.75-10.11 14.22-23.79 20.33-34.47M893.151 1095.4c4.901.85 19.268 6.77 24.569 8.8 22.267 8.52 47.654 10.81 69.999 17.55-12.154.37-27.097-.36-39.486-.38-9.541-.01-29.402.06-38.395-1.22-27.345-.73-74.859-4.53-101.702-8.67 28.681-5.63 55.9-11.71 85.015-16.08m594.139 536.87c2.5 2.53 5.54 17.41 6.59 21.72-20.91-.02-49.5-2.26-70.69-3.68l-16.19-1.04c27.48-5.86 52.82-10.26 80.29-17m-196.08-171.7c2.28 5.31 3.85 17.35 3.67 23.18-2.29-.49-1.89-.4-4.02-1.32-2.49-6.32-.58-15.07.35-21.86"/></svg>