<svg xmlns="http://www.w3.org/2000/svg" preserveAspectRatio="xMidYMid meet" viewBox="0 0 2048 2048"><path d="M1886.35 839.854c13.3 47.217 18.18 103.409 24.56 152.295 3.74 28.691 2.51 60.641.86 89.471-.85 14.78-.32 32.74-1.67 46.88-1.38 18.42-5.4 37.51-7.12 55.81-4.48 47.61-15.86 92.22-29.21 137.97-4.54 15.56-7.6 32.45-12.29 47.98-4.78 15.83-12.59 32.31-18.39 47.88-7.31 18.14-21.19 39-30.4 56.81-9.58 18.51-18.57 39.16-28.82 57.04-8.35 14.57-19.95 30.99-29.41 45.17-24.06 36.02-53.16 79.44-80.87 112.32-38.52 45.69-92.05 96.47-141.42 130.29-16.88 11.56-35.3 21.03-52.3 31.82-21.53 13.62-42.13 28.59-64.87 40.26-86.62 44.44-179.76 70.35-276.21 80.81-189.234 20.52-384.245-6-554.817-92.8-27.795-14.15-54.391-28.36-79.69-46.79-8.233-5.97-18.289-11.96-26.098-18.47-15.763-13.14-31.26-29.57-46.229-43.05-19.763-17.79-38.582-34.41-56.849-53.96a1038.6 1038.6 0 0 1-157.014-216.87c-5.693-10.61-9.982-21.8-15.502-32.33-46.656-88.97-77.482-190.33-86.15-290.52-.493-5.69 2.682-11.81 2.115-17.23l-2.563-.49-.176-1.64 2.892-3.13-.588-1.17-2.44.61c-1.137-2.27 1.745-5.95 2.793-10.55-1.954-1.35-1.575-1.01-3.291-2.75l1.778-.55c3.509-4.48-1.968-8.04-1.905-13.63 1.187-2.13 1.92-3.1 2.46-5.48a105 105 0 0 1-3.151-5.85c1.844-20.09.145-42.93 2.339-64.02 1.427-13.72-.611-30.61.772-45.55 7.138-77.087 22.009-155.779 45.276-229.634a848.9 848.9 0 0 1 328.426-447.131C795.211 119.537 1218.86 94.021 1528.18 307.59c11.28 7.35 23.21 13.89 34.35 21.459 74.16 50.424 130.54 117.752 183.62 189.194 58.76 79.095 100.58 170.715 123.29 266.567 1.19 5.044 4.3 21.647 6.36 25.585l1.97-.433.74.609-1.21 4.826.63.886c-.66 2.43-.64 2.288-.42 4.801 14.66 53.395 19.19 100.606 25.93 155.22l.87.392c1.39-10.127-1.96-22.55-2.55-32.477-1.4-23.761-5.54-45.45-9.95-68.693-1.66-8.735-6.56-27.67-5.46-35.672"/><path fill="#fefefe" d="M1039.14 258.426c17.17.419 26.58-.242 52.11.848 116.61 4.981 258.94 47.089 354.38 111.425 5 3.371 37.43 104.374 44.23 121.372-11.31 9.154-40.23 23.354-54.81 32.399-50.96 31.627-101.5 64.043-146.4 104.109-8 7.138-17.34 15.387-23.67 23.785 1.4 5.148 2.1 11.288 7.72 12.492 6.8-2.474 38.42-31.284 46.97-38.308a813 813 0 0 1 40.72-31.442c26.4-18.731 56.59-36.395 84.02-53.976 15.16-9.712 36.25-20.421 49.84-31.2 1.27 5.181 3.11 11.477 4.88 16.548 20.83 59.624 33.67 121.599 52.72 181.792 2.94 9.288 6.14 19.269 8.08 28.756-6.11-.967-7.94-1.242-14.01-.142-11.47-28.263-33.92-28.081-43.68 1.208-11.21.765-21.49 3.16-24.36 16.106-8.38 37.78 2 80.568-2.52 118.399-5.59 46.719-18.97 92.92-28.17 139.253-16.23-24.962-40.02-95.471-69.88-105.444-38.8-12.961-6.25 89.754-3.6 102.704 3.58 17.52 11.97 38.24 18.06 55.24 17.91 46.6 22.38 97.88 49.16 141.39 5.53 8.99 20.19 31.19 32.67 22.39 3.33-5.8-2.75-12.85-6.73-17.54-26.35-31.15-37.14-75.23-46.43-114.27-4.97-20.92-11.48-35.39-18.19-55.57a890 890 0 0 1-21.04-75.496c-1.82-7.529-8.89-32.37-5.05-38.666 10.02.411 53.83 93.012 61.62 105.522 4.02 6.45 9.84-.59 13.52-1.07 6.87 3.94 10.54 8.51 16.2 12.82 14.47 11.02 13.25 29.12 23.29 41.7 1.39 1.75 3.55 2.39 5.81 2.43 11.52-4.81 5.75-19.86 2.97-28.62-4.35-13.71-23.32-34.4-35.4-40.63l14.63-64.117c6.49-27.324 14.87-59.389 16.83-87.153 1.71-24.282-4.71-52.342-2.45-77.515 1.36-15.129-8.35-27.136 8.49-37.436 3.71 15.095 4 37.449 5.32 53.428 2.59 31.184 6.78 62.138 2.52 93.312a439 439 0 0 1-10.58 51.012c-2.18 8.169-8.39 22.609-6.2 30.223 9.16 10.632 16.75-3.052 19.53-10.798 6.14-17.128 9.66-32.808 13.2-50.526 11.71-58.508-2.73-117.135-6.33-175.657-.18-2.849 1.99-12.133 6.41-11.303 3.99 1.159 8.35 9.042 10.57 12.541-.78 20.324 4.98 40.716 4.75 61.746 1.01 21.797 13.81 39.745 11.7 61.426-3.42 35.262-3.26 69.681-13.33 104.388-3.87 8.274 9.32 14.803 12.88 9.823 12.56-17.546 15.62-67.202 17.2-86.578l.93-.398c13.37 22.738 5.33 61.709-.94 85.999-2.23 8.609.27 14.132 9.51 14.447 14.36-5.385 19.09-69.966 15.61-84.975-2.73-11.74-15.63-30.068-18.99-42.344-3.03-11.065-19.3-56.236-14.97-65.334 14.16-2.852 29.64 35.042 34.82 45.98 19.56 41.253 30.92 90.446 28.89 136.216-1.27 28.583-7.92 59.263-13.33 87.303-3.08 15.55-4.47 32.18-7.79 47.83-9.07 42.66-16.56 69.62-5.91 113.86-32.87-3.41-119.52 5.83-147.22 21.88-7.01 4.06-9.82 8.1-11.95 15.82 4.56 12.15 6.99 32.29 9.42 45.88 15.07 84.19 34.9 166.43 56.56 249.16 9.19 35.08 15.28 71.62 22.39 107.24 2.7 13.13 5.59 26.22 8.68 39.26 1.25 5.4 3.86 14.77 4.42 19.91-1.42 2.77-.36 2.03-2.75 2.96-3.11-4.24-16.87-40.06-19.21-46.63-5.73-16.53-12.64-32.69-17.71-49.45-10.39-34.78-18.04-70.43-26.74-105.68-6.55-25.88-8.87-53.27-15.03-79.13-7.77-32.59-12.79-65.28-18.91-98.18-2.57-13.76-3.2-27.25-5.5-40.56-3.2-18.6-8.07-32.99-9.52-52.46 3.5-4.16 14.32-14.37 14.31-18.94-6.73-7.19-16.18-1.69-21.94-4.46-51.54-24.76-107.79-34.33-160.27-54.79-27.05-63.08-16.09-208.513.06-274.997 23.48-21.273 46.51-57.193 49.25-89.431 2.52-29.746-10.9-46.436-41.36-47.446 15.91-59.505-4.69-129.348-33.57-182.595-11.11-20.496-23.01-28.593-39.87-43.427-86.02-75.699-208.576-86.403-305.788-25.243-29.628 20.135-46.22 37.123-68.324 64.571-46.854 58.182-45.44 121.539-52.522 191.02-13.041 5.013-24.247 13.26-28.115 27.468-9.028 33.157 16.699 64.002 34.396 89.303 3.638 5.202 9.174 9.623 12.693 14.817 5.584 13.804 8.45 40.073 10.026 54.149 3.958 35.374 6.735 68.931 6.232 104.371-1.397 35.34-13.368 89.5-24.371 123.53-36.338 10.32-73.139 20.09-108.821 32.47-17.298 6-34.128 12.38-52.011 16.54-2.213.51-2.858 2.42-3.736 4.14.27 4.03 3.719 7.67 6.129 11.74.786 13.7-7.948 48.95-9.772 64.41-13.188 111.87-35.908 223.42-70.947 330.57-9.538 29.17-16.763 61.01-31.211 88.15 7.688-32.82 12.043-63.96 17.758-96.9 2.627-15.15 11.559-36.55 14.506-53.45 2.988-17.13 4.216-33.53 7.64-50.51 4.934-24.47 14.086-47.99 22.027-71.64 5.662-16.87 11.204-34.44 15.487-51.77 1.337-5.41-.471-12.6-.396-18.36.056-4.29.961-8.13 1.442-12.61 4.22-39.32 25.447-90.11 10.054-128.88-2.697-6.79-87.862-18.68-99.608-20.82-9.441-1.72-34.369 1.56-44.503-1.41-3.199-4.29-.104-10.25 1.192-16.15 4.025-18.35 3.499-30.8 1.04-49.01-6.107-45.21-15.821-90.03-22.48-135.07-2.39-16.15-8.428-50.933-7.572-66.237 1.334-23.823 6.531-66.542 15.687-88.093 3.948-9.292 14.884-27.345 20.088-38.456 6.859-14.645 13.852-29.473 25.467-40.627 10.913 55.241-46.438 103.056-30.938 170.434 1.543 6.706 4.585 22.753 10.767 26.005 2.395 1.26 5.277 1.638 7.806.556 3.514-1.504 5.464-5.87 5.704-9.444.427-6.344-2.43-13.893-3.874-20.022-6.008-25.504-4.14-42.926 3.555-68.058 2.895 18.656 5.008 77.134 19.118 87.523 13.203 1.417 8.5-17.533 6.906-24.482-5.859-25.532-9.866-51.206-9.494-77.467.103-7.251-.834-14.553.488-21.725 1.884-12.77 9.628-29.332 10.37-41.577 1.793-29.567.539-59.181 10.903-87.55 1.167-3.195.388-2.492 2.82-3.535 8.723 10.032.178 69.958-.785 85.308a457.4 457.4 0 0 0 11.811 134.479c2.539 10.214 5.25 28.491 15.56 32.922 16.632-.87 3.572-36.204 1.451-45.172-11.886-50.247-13.68-104.818-6.545-155.888 1.456-10.42 1.827-21.95 2.426-32.519 16.862 17.669 4.563 86.915 7.093 113.394 4.34 45.426 14.276 111.557 40.226 149.491-9.485 6.04-15.467 10.01-23.729 17.71-9.685 9.01-26.817 33.57-26.903 46.54 1.657 3.75.409 2.27 4.013 4.5 3.064.24 7.18-.02 8.904-2.79 19.539-31.37 31.455-42.75 63.893-60.8 4.496-14.24 39.945-87.971 50.432-88.212 7.001 19.02-50.945 222.092-64.534 253.952-5.587 13.09-28.75 33.36-32.488 42.47.76 3.27.517 3.2 2.998 5.39 15.62 4.93 36.352-25.27 41.943-37.48 11.799-25.77 20.183-54.31 28.963-81.22 23.152 3.07 59.668 1.59 83.93 2.41 16.26.56 33.571 1.31 49.766 1.38 2.416-4.82 6.069-10.97 3.122-15.95-12.24-4.67-113.711-3.94-132.109-3.47 7.672-34.04 44.817-148.553 36.012-178.016-.955-3.196-2.848-5.876-5.918-7.331-4.683-2.221-10.607-1.173-15.206.734-25.898 10.739-47.225 64.472-58.135 89.743-27.036-48.096-37.249-109.42-35.96-163.992.456-19.324 2.421-38.757 1.822-58.301-.329-10.735-4.93-36.222-14.56-43.125-1.631-1.481-11.867-2.537-12.539-3.615-5.502-8.828-6.605-12.491-14.572-19.617a163 163 0 0 0-6.41-1.386c-18.005-3.414-24.294 18.196-26.853 31.844-4.16-2.275-8.532-3.993-12.904-5.841 1.112-22.108 8.976-55.343 12.705-78.444 7.411-45.908 16.044-90.803 25.039-136.385 7.587 4.54 21.954 15.095 29.978 20.553a1097.5 1097.5 0 0 1 144.452 116.027c6.189 5.854 12.567 11.76 19.248 18.784 12.474 13.116 25.055 32.033 40.238 42.261 1.955 1.317 3.736-.075 5.358-.939 2.808-3.805 5.012-8.792 3.909-13.655-3.504-15.447-92.484-93.083-108.513-106.534-19.951-16.743-40.517-33.181-61.519-48.568-22.31-16.343-46.063-30.222-69.177-45.357 2.798-19.245 8.976-60.861 14.284-78.113 16.9-16.415 61.767-44.556 83.161-57.31A772.2 772.2 0 0 1 939.52 264.968c35.376-3.773 65.39-3.96 99.62-6.542"/><path d="M1260.13 1103.06c41.53-1.47 93.41 2.64 134.64 8.43 7.03.99 2.98 11.69-.06 15.62-14.11-.37-37.59-2.73-51.72-3.6-15.65-.97-73.36-.61-83.81-6.2-4.08-5.02-3.19-9.82.95-14.25"/><path fill="#fefefe" d="M1018.92 613.616c6.47 7.19 14.99 18.729 22.03 24.922 26.04 22.914 55.97 31.599 86.22 47.275 28.25 15.378 60 34.358 78.32 61.496 8.74 12.946 7.73 47.474 23.21 56.5 4.14 2.411 15.88-9.102 21.09-10.636 8.03-2.367 20.07-4.086 28.16-.647 20.87 12.744 5.66 46.438-2.05 62.212-10.45 21.406-24.27 40.543-45.88 50.795-6.28 2.978-15.04 5.112-21.63 7.439-4.06 11.757-9.49 22.857-13.8 34.019-28.18 72.869-68.83 139.869-153.12 152.649-4.76.72-10.04 1.32-14.97 2.18-1.72-.51-1.07-.49-2.84-.36-13.78 1-33.877-1.41-47.134-4.81-13.822-3.54-39.148-16.72-49.853-26.4-27.021-24.44-52.795-66.84-69.2-99.698-8.711-17.444-11.716-31.867-22.704-51.267-7.537-5.322-19.352-5.842-27.043-11.493-5.061-3.718-16.501-12.646-20.201-17.994-11.792-17.045-29.543-42.699-34.301-62.716-2.615-11.001 1.058-18.706 6.587-26.857 29.888-12.232 33.838 6.008 50.739 3.846 12.87-7.143 8.067-61.723 33.042-83.04 47.068-40.175 146.199-51.293 175.328-107.415"/><path d="M1098.07 744.428c12.88-.721 29.26 2.585 42.38 3.705 9.96.851 28.66 3.22 31.98 14.266-1.51 11.012-23.93 7.598-32.9 7.37-9.17-.554-14.58-.02-23.82.625-13.82.81-29.55 6.763-42.53-.211-7.24-3.895-5.61-12.029-1.32-17.396 5.55-6.948 17.92-7.499 26.21-8.359m-163.001.98c.566-.056 20.106 1.598 23.267 1.733 1.967 1.432 10.519 6.458 10.971 7.72 10.862 30.372-36.671 18.013-47.123 16.425-12.065-2.125-32.774-.157-38.151-2.316-21.251-19.921 43.085-23.06 51.036-23.562m338.041 61.738c5.49-.094 8.93.3 12.46 4.707.94 12.817-13.27 6.858-23.62 20.573-13.19 17.465-15.55 33.712-27.87 51.178-23.26 5.614-4.87-28.079-1.15-36.543 8.95-20.322 17.59-33.988 40.18-39.915m-511.312 5.84c37.248.111 48.698 35.035 59.291 64.618 1.051 2.935-1.64 6.057-3.355 8.088-20.566 3.409-22.727-34.192-33.834-46.558-8.081-8.997-23.837-8.748-26.122-17.79.675-3.981 1.677-4.894 4.02-8.358m254.622 166.45c12.46-.96 35.36-1.763 43.43 8.776 2.52 11.582-23.14 9.353-29.6 9.215-11.93-1.201-39.62 4.813-43.808-7.8.454-3.289.178-3.351 2.21-5.869 7.285-3.768 19.208-3.783 27.768-4.322m66.19-172.592c11.53 1.513 20.54 7.188 35.01 7.045 11.52-.113 21.82-7.267 29.92-3.182 2.96 5.305 2.26 8.988-2.45 12.829a68.6 68.6 0 0 1-18.11 4.795c-11.36 1.4-66.92-.396-44.37-21.487m-32.94 100.06c4.38-.212 4.18-.333 8.01 1.7 5.33 8.027-3.92 14.512-10.54 17.706a62.82 62.82 0 0 1-47.828 2.416c-2.632-1.217-4.743-2.062-6.612-4.41a11.92 11.92 0 0 1-2.65-8.151c6.639-8.583 22.69 1.813 34.03-.135 12.53-2.153 14.09-3.411 25.59-9.126M896.758 806.692l1.392.073c9.07.388 15.631 7.283 25.433 8.665 9.1 1.284 34.922-12.543 37.626-.571-1.208 4.501-1.311 4.617-4.311 8.115-18.118 10.513-40.878 10.341-58.724-.544-6.916-4.218-5.991-10.251-1.416-15.738"/><path fill="#fefefe" d="M986.686 201.527c31.564-1.061 62.644 2.601 94.034 5.322 133.39 11.56 278.13 43.867 393.34 115.502 179.93 112.291 308.58 290.73 358.27 496.918 14.31 61.636 25.65 129.703 27.43 193.071 1.39 16.02-4.4 40.96-2.68 55.94 4.88 42.74-2.31 81.76-8.45 124.19-6.76 46.68-16.68 90.34-31.26 135.35a986.4 986.4 0 0 1-105.43 224.63c-2.21-11.97-8.85-32.86-12.34-44.85 22.7-29.36 46.57-81.18 60.56-116.25 15.88-39.77 30.94-80.21 41.99-121.66 21.79-81.75 31.32-196.87 25.9-281.277-1.75-27.161-3.68-54.765-8.78-81.526-3.12-16.421-7.82-32.659-11.42-49.009-28.16-127.952-71.33-226.933-153.59-329.692-27-33.723-55.59-65.479-88.11-94.001a783.14 783.14 0 0 0-454.02-192.749c-30.47-2.551-69-4.588-99.32-2.581-26.901.146-54.371 3.925-80.741 6.732-172.955 18.415-342.342 93.246-466.395 216.1-47.293 46.836-97.66 99.975-132.08 157.384-43.189 72.037-84.751 165.743-105.607 247.289-53.825 210.44-21.361 437.52 90.463 623.89 5.288 8.81 9.548 19.77 16.02 27.42-13.396 40.3-15.085 24.56-3.228 64.2-14.498-16.42-25.877-40.33-37.159-59.25-53.551-89.8-92.388-190.37-108.73-293.8-2.708-15.73-7.481-31.18-9.303-47.07-5.278-45.91-1.371-92.09-5.473-138.12-2.289-25.68 3.833-50.154 7.448-75.137 10.189-70.398 29.239-140.935 54.798-207.289 3.343-8.677 6.416-17.476 9.651-26.191 43.543-139.707 141.974-257.276 253.384-349.087 5.989-4.333 12.046-9.06 18.178-13.16 67.978-45.452 136.995-91.221 214.719-117.988 81.453-28.052 172.19-50.047 257.931-53.251"/><path fill="#fefefe" d="M1571.94 469.878c5.41 1.021 46.07 49.917 52.24 57.088 111.28 129.2 165.77 295.385 182.56 462.937 1.57 15.677-.11 137.517-7.95 144.057-10.94 1.1-52.83-1.1-64.56-2.26-7.66-1.25-24.4-1.21-33.06-1.87-24.91-1.92-55.33-2.83-79.77-7.07 3.41-14.93 4.16-31.48 7.13-45.07 14.04-64.09 21.42-120.582 2.67-184.824-4.41-10.363-7.88-30.842-13.19-39.918-20.03-34.198-19.57-69.836-30.12-107.846l-50.22-174.06c-7.1-24.019-16.32-48.292-22.32-72.723 12.2-4.876 42.93-21.777 56.59-28.441M463.334 487.611c9.419 3.808 24.027 15.686 32.407 22.272-6.473 47.844-17.751 98.535-26.031 146.419l-22.073 132.09c-1.847 10.768-3.463 24.173-5.637 34.54-4.042 19.276-21.014 40.764-26.432 60.401-7.318 26.529-13.91 60.592-14.284 88.019-.223 16.405 3.666 43.308 5.853 59.748 2.972 22.65 6.075 45.29 9.308 67.9l-93.489-3.69c-13.9-.54-27.846-.3-41.708-1.19-17.359-1.21-38.608-.84-56.523-1.31.907-22.06.931-42.03 2.288-64.65 7.906-131.794 53.103-280.863 121.302-394.424a734 734 0 0 1 57.429-81.52c15.781-19.828 38.674-47.912 57.59-64.605M225.779 1109.51c9.328.64 19.401.64 28.814.8 55.027.93 110.184 4.16 165.161 5.48 3.017 15.33 14.019 61.87 12.951 74.87-5.372 65.38-39.836 129.46-55.728 193.17-2.385 9.57-8.323 22.86-11.477 32.88-5.472 19.39-14.74 56.6-22.868 74.37-13.408-28.33-29.742-54.92-43.419-84.58a815.8 815.8 0 0 1-73.434-296.99m1391.791 31.69c36.48 4.9 74.96 5.88 111.73 8.36 23.08 1.56 47.46 3.73 70.25-.43-6.16 91.81-36.52 173.92-70.75 258.11a579 579 0 0 1-36.9 69.63c-4.35-17.21-10.71-36.22-15.72-53.5-16.66-57.48-35.2-114.69-50.49-172.55-1.75-6.64-6.37-11.46-7.82-15.31-3.05-8.12-6.15-28.03-6.61-36.92-.86-16.53 3.84-40.49 6.31-57.39m-104.77 589.79c6.18 8.02 7.05 21.05 12.81 30.1-44.43 38.48-96.01 70.78-149.12 95.96-56.09 26.59-136.07 51.63-197.14 63.28-21.31 4.06-43 6.37-64.53 8.93-43.62 5.2-88.28 7.26-132.221 7.54-15.248.1-30.566.68-45.793-.38-19.288-1.35-38.208-4.62-57.273-7.64-13.555-2.15-27.25-3.78-40.715-6.45a798.6 798.6 0 0 1-233.361-84.74c-33.386-18.05-54.365-29.7-84.982-53.8a491 491 0 0 1-4.887-3.72c-2.521-1.95-6.883-4.8-7.216-7.42 2.444-1.43 2.968-1.5 4.781-3.6l-1.278-3.97c1.499-5.08 7.265-15.25 9.995-20.4 64.487 64.08 245.15 127.16 335.469 144.71 46.988 9.13 144.201 10.88 194.611 11.42 84.76.9 185.51-23.21 264.82-52.18 14.24-5.19 30.6-15.03 44.75-21.39 36.54-17.08 70.24-37.47 104.35-58.87 17.74-11.13 30.11-25.28 45.9-36.65zm-402.71-637.8c4.32 7.65-.71 86.2 11.04 109.75-27.53 51.18-124.017 58.01-168.831 29.8-5.357-3.37-10.597-7.89-15.342-12.05-6.711-5.94-10.273-9.47-15.888-16.33 10.934-38.44 11.116-69.5 10.565-108.7 46.104 26.8 98.976 29.97 149.206 11.6 10.95-4 19.67-7.3 29.25-14.07"/><path fill="#fefefe" d="M1165.87 1297.09c3.3 1.82 5.86 4.38 8.67 6.89 7.9 85.15 17.39 168.84 20.81 254.52 1.45 36.25 5.05 72.91 6.75 109.4 1.92 42.34 3.46 84.7 4.61 127.06.31 14.3-.29 56.35 2.01 66.83l-12.46 3.33-9.18 2.33c-.06-32.2-1.27-59.94-2.15-91.57a6711 6711 0 0 0-19.86-358.07c-1.02-13.59-11.31-110.45-7.84-116.23 1.72-2.87 5.65-3.56 8.64-4.49m-577.19 315.93.574.41c-.422 21.67-3.814 50.1-5.335 72.57a732 732 0 0 0-.419 83c-10.046-6.3-20.171-13.5-29.977-20.25-8.046-5.11-17.824-12.8-25.036-18.85 11.286-26.21 20.391-54.28 29.643-81.34 12.614-8.51 23.751-21.93 30.55-35.54m867.2 3.55c3.64 3.25 31.56 43.75 35.37 50.34 3.73 6.45 12.3 34.56 15.65 43.65-5.78 6.06-12.48 11.94-18.69 17.61-9.94 7.94-16.5 12.44-27.81 18.19-.96-13.85-.65-26.21-1.19-39.82zm21.77-1227.713c34.46 23.03 55.49 39.851 85.2 68.374l-18.51 9.179c-10.73 4.841-22.87 11.771-34.32 17.082-1.35-8.017-6.16-20.251-8.84-28.174-7.55-22.332-16.56-43.893-23.53-66.461m-967.695 57.124c.011 3.375-8.31 38.223-9.733 44.737-4.413-2.654-9.109-6.015-13.403-8.945-3.133-2.207-7.216-4.548-10.545-6.587a360 360 0 0 1 33.681-29.205m-34.347 312.634c3.134 2.857 6.712 5.415 10.107 7.98.065 4.763.793 11.604-1.201 15.535-2.962 2.089-3.086 1.137-8.024.448-2.224 1.729-3.729 3.595-5.648 5.674l-.47-.302c.881-8.674 3.533-20.546 5.236-29.335m1080.732-4.046c7.9 4.63 15.39 25.377 17.75 33.952-6.78-7.072-8.25-10.05-17.69-11.934-.99-7.281-2.37-14.987-.06-22.018"/><path fill="#bfc0c4" d="m125.03 1123.43 2.125.94c2.193 4.89 2.155 52.87 2.843 62.36 1.416 19.52 5.609 38.45 7.855 57.44-6.932-15.03-13.62-101.88-12.823-120.74"/><path fill="#515156" d="M156.666 1332.57c-6.7-19.75-10.712-38.07-14.197-58.54-1.588-9.33-4.411-17.47-5.203-27.51 5.898 7.06 5.326 28.86 7.756 37.44 4.181 14.76 7.599 30.83 12.512 45.27z"/><path fill="#bfc0c4" d="M157.534 1329.23c3.915 10.02 6.675 18.96 10.218 28.88 4.689 13.12 9.413 23.26 12.74 37.12-7.161-14.88-11.725-28.09-17.128-43.7-.807-2.34-5.919-17.53-6.698-18.96z"/><path fill="#999a9f" d="m128.061 1027.54 1.553 1.58c.329 3.75-.994 40.7-1.743 43.48l-1.279-.22c-1.022-15.84 1.543-28.96 1.469-44.84m-2.243 63.86c2.351 3.44 1.793 24.43 1.939 30.33l-1.75.82c-2.964-3.65-.612-25.76-.189-31.15"/></svg>