<svg xmlns="http://www.w3.org/2000/svg" preserveAspectRatio="none" style="display:block" viewBox="0 0 2048 2048"><path fill="#FEFEFE" d="M0 0h2048v2048H0z"/><path d="M983.336 112.859C1486.3 90.202 1912.47 479.403 1935.43 982.351c22.95 502.949-366 929.349-868.93 952.609-503.356 23.27-930.198-366.07-953.173-869.44-22.975-503.375 366.625-929.986 870.009-952.661"/><path fill="#FEFEFE" d="M464.286 337.689c6.781-.006 53.931 17.431 63.198 20.765 44.536 16.023 89.586 30.255 134.187 45.978A16303 16303 0 0 0 970.589 507.4l538.751 177.895 266.27 88.103c35.82 12.1 73.37 21.921 108.23 36.374 1.31 3.506 8.49 23.948 7.73 25.955-13.14-6.52-32.04-12.21-46.23-17.328a3799 3799 0 0 0-131.12-44.344l-5.06 6.986c-.36 17.008.9 39.483 1.29 56.858l2.26 119.916 1.31 332.345c19.27-.47 15.02-.61 18.69-21.81a1002.7 1002.7 0 0 1 100.42-293.715c10.31-19.183 20.19-39.406 35.92-54.726 9.77 4.861 14.31 6.61 23.61 12.716-89.92 111.485-144.05 339.935-158.95 480.625a1817 1817 0 0 0-7.17 104.27c-.6 16.18.04 34.23-1.31 49.84-5.35 5.87-23.25 28.7-26.66 29.93-3.62-9.74-2.36-82.8-2.45-97.65-.78-66.42-1.11-132.85-1-199.28l-3.01-329.813c-.13-24.017.07-48.761-.75-72.726-.44-12.72 4.06-63.847-5.05-69.933-7.19-.551-10.3 1.947-10.34 9.062.38 85.435 1.33 170.87 2.86 256.29.46 31.27 1.18 62.72-1.04 93.91-.51 7.19 1.63 20.15 1.78 28.06.93 50.3-.44 100.57-.1 150.87.81 67.19.93 134.39.36 201.59-.14 10 2 48.53-3.96 55.03-2.63-12.91-3.76-45.28-5-60.49-3.54-43.36-6.65-85.65-12.96-128.79a2022.7 2022.7 0 0 0-77.03-329.63c-29.18-92.78-63.41-185.24-112.49-269.513-12.04-20.673-24.11-41.283-38.95-60.121-28.21-35.801-65.7-59.427-111.63-64.637-42.6-4.834-73.76 7.521-106.98 34.058-119.48 95.459-178.9 340.073-205.64 486.053-2.5 13.63-5.717 27.1-8.094 40.75a1957 1957 0 0 0-15.247 109.86c-13.426 99.33-20.86 196.96-24.134 297.23-.865 26.49 1.772 227.72-.928 231.7-6.778.98-16.277.1-23.357-.3.571-86.89.561-173.79-.031-260.69l-.065-401.91.472-426.82c-.104-70.225 1.685-146.837-.758-216.487l-13.85-1.138c-1.263 17.318-.906 36.053-.994 53.523a5282 5282 0 0 0-.018 89.006l.616 249.425-1.849 553.941.3 177.86c.524 56.84 1.937 122.88.092 179.51-12.963-1.18-24.152-2.91-36.96-4.39.192-67.07-.597-134.14-2.364-201.19-5.195-157.99-21.219-321.22-61.892-474.25-28.834-99.43-61.578-193.18-107.255-287.264-72.33-148.983-174.345-326.638-340.006-384.918-26.238-9.231-58.024-11.273-85.02-13.038 4.541-6.879 15.917-22.164 21.344-27.791 5.961 2.412 18.817 8.463 23.117.494-2.015-7.041-12.878-6.807-18.784-7.36 4.597-7.673 9.095-14.209 15.271-20.677 52.721 13.428 93.711 24.942 141.861 52.52 21.424 13.7 45.935 27.575 65.069 44.195 113.603 98.682 198.233 246.533 257.021 382.546a2087 2087 0 0 1 44.93 116.243 1104 1104 0 0 1 38.692 125.8c1.481 5.98 4.26 22.78 10.947 23.98l1.471-1.45c1.123-4.41-.86-39.44-.924-47.18L881.884 983l1.142-326.154c.217-43.125 1.518-86.53.717-129.687-.099-5.308-1.201-9.058-2.876-14.022-9.196-3.278-22.442-6.792-32.074-9.728l-66.319-20.721-218.948-71.167a6041 6041 0 0 1-90.798-30.028c-8.882-3.044-33.964-11.243-41.178-15.422 9.378-9.687 21.801-20.697 32.736-28.382"/><path d="M977.883 1229.2c-5.708-1.38-10.345-1.89-13.908-6.85-2.147-29.64-.463-64.43-.128-94.42.307-27.44.992-55 1.151-82.43l-.186-244.73c-.021-18.917.941-38.26 1.095-57.271q-.054-41.797-.702-83.589c-.186-13.295-2.81-112.998.68-117.914 3.017-.939 9.581.153 12.535 1.123 25.29 8.308 50.8 16.478 76.18 24.51a13144 13144 0 0 0 231.89 72.557 7235 7235 0 0 1 272.83 84.45l60.69 20.125c9.5 3.16 26.52 8.337 34.94 12.474 2.06 48.478 1.75 93.847 2.26 142.074l2.67 222.071c.74 47.81 2.31 95.65 1.4 143.46-.18 9.31 1.58 33.53-.12 40.95-2.91 1.58-1.41.96-5.4.66-5.4-8.25-4.1-51.08-6.36-65.03.44-8.04-1.8-22.28-2.64-31.03 1.8-10.05-7.9-44.59-10.62-55.78a1431.5 1431.5 0 0 0-58.65-187.061c-29.7-74.965-84.13-202.672-144.24-261.151-12.32-11.992-107.96-33.305-128.09-39.282-13.46-3.41-44.8.986-56.2 5.439-2.61 6.08-5.21 13.233-7.84 18.99-18.6-4.226-29.61-1.975-44.07 10.447 2.29 12.475.65 33.351-17.02 20.218-23.54 21.035-6.51 20.466-19.34 43.38-3.95-2.159-7.61-4.085-11.38-6.568-9.96 11.168-15.9 19.425-22.81 32.874 7.17 9.275 4.44 12.316.69 22.655-4.93-.605-8.64-.995-13.52-2.158-5.35 9.111-11.53 18.936-16.07 28.416-1.29 2.69 2.44 5.24-.27 6.977l-3.32-.609.1 1.336 3.35 1.354c2.67 6.319-2.42 13.568-5.41 19.403l-9.16-.779c-1.71 2.095-10.01 20.246-10.68 23.488-1.42 6.986 1.92 15.838-1.99 23.134-3.43 8.654-7.02 6.218-11.5 11.012-6.66 7.136-12.17 22.269-9.66 32.237 1.22 4.826.82 17.417-4.09 21.004-1.22.89-5.51-.18-7.41-.562-4.88 5.598-8.94 24.246-10.52 31.926l6.38 6.29c-2.57 13.19-1.3 18.71-15.14 22.16-3.39 2.95-8.9 27.55-8.47 30.43 2.78 18.66 7.41 24.57-8.82 38.25-1.817 1.53-4.654 24.04-5.569 27.48-6.796 29.99-9.819 64.52-17.538 93.86"/><path fill="#FEFEFE" d="M1071.75 721.339c13.32-.535 15.92 1.358 27.54 7.613a353.2 353.2 0 0 0-58.4 76.072l-9.2 16.676c-.26-26.899 1.15-60.575-.55-86.587 15.76-8.19 23.1-11.329 40.61-13.774m469.93 124.462c6.13 4.781 10 7.73 13.79 14.882 5.24 9.874 17.69 39.861 14.92 49.882-3.65-3.006-14.59-35.72-19.21-42.72-1.84-2.778-8.35-18.552-9.5-22.044"/><path d="M711.825 862.71c5.354.508 16.069 24.841 15.878 30.682-.039 1.197-3.066 2.714-4.121 3.41-8.164-2.39-16.741-21.815-16.325-30.218.068-1.375 3.324-3.036 4.568-3.874m31.483 60.689c5.248 2.073 12.991 21.49 16.089 28.048-.527 3.062-1.348 2.674-4.716 5.218-2.57.029-2.589-.242-4.949-1.417-5.464-6.9-9.957-17.019-10.449-26.221-.151-2.827 1.893-3.815 4.025-5.628m-64.864-119.164c8.614 2.41 15.461 19.792 18.159 27.851 1.03 3.08-.815 4.412-2.514 6.599-8.121-3.089-16.163-19.075-18.375-27.244-.714-2.638 1.318-5.094 2.73-7.206m113.787 246.255c1.1.08 3.271.18 4.052.83 6.242 5.25 15.619 26.57 12.369 33.33-1.352.13-4.285.58-5.172-.22-6.651-6.01-14.863-26.42-11.249-33.94M570.655 660.452c8.546 2.044 19.579 13.099 23.144 21.129 1.311 2.952-.517 4.578-1.991 7.091l-2.269.323c-6.544-3.486-16.659-14.152-20.151-21.145-.999-2.002.452-5.209 1.267-7.398M838.99 1189.9c8.519 3.09 16.775 26.98 9.596 34.84l-3.198-1.36c-4.745-5.24-9.615-20.92-10.067-28.4-.17-2.81 1.698-3.57 3.669-5.08M486.557 575.582c7.691 5.801 18.124 12.311 21.564 20.976-.376 4.18-.482 3.128-3.204 7.086-7.319-5.987-20.497-13.77-22.828-21.795 1.111-4.065.915-2.905 4.468-6.267m954.613 175.031c.59.013 1.93.004 2.78.141 5.9 1.844 13.45 12.354 16.8 17.37 4.81 7.22 10.52 12.104 9.19 20.299-1.5.225-2.51.728-3.45-.16-6.45-6.092-23.47-30.449-25.32-37.65M428.158 540.531c5.922 1.957 23.997 10.719 25.533 16.888-.507 3.004-1.654 3.766-3.744 6.002-4.352-1.451-22.775-12.111-26.172-15.728.251-3.005 2.335-4.743 4.383-7.162M1504.86 853.984c3.23-.144 4.9-.532 7.81.874 4.27 7.582 11.52 22.463 14.69 31.185-.28 1.233-.56 2.466-.85 3.699-1.22.257-3.47.616-4.29-.387-5.55-6.712-17.14-27.789-17.36-35.371M362.585 516.456c6.921 1.153 24.221 4.848 28.086 11.08.399 3.376-.091 3.748-1.409 6.874-8.697-2.146-22.669-4.425-28.321-11.013-.663-3.893-.469-2.65 1.644-6.941m453.939 604.834c9.396.87 12.239 19.25 13.935 26.76.707 3.13-1.087 4.63-2.832 6.91-1.801.07-2.02-.07-3.819-.35-4.488-6.19-11.236-26.65-7.284-33.32m-47.351-135.032c5.878 3.195 12.524 20.622 14.363 27.252.668 2.41-2.014 4.24-3.497 5.71-7.993-3.51-14.606-20.948-14.431-29.207.032-1.504 2.359-2.794 3.565-3.755m879.117 254.222c-4.09.58-3.69 1.15-6.98-.17-2.69-5.95-9.7-32.76-6.51-37.86l1.8.46c4.13 4.44 5.4 9.19 7.61 14.91-1.65 5.12 2.48 16.83 4.08 22.66m-108.66-324.787c5.29 4.472 12.22 23.149 12.97 30.789-1.45 3.96-.3 2.264-3.9 5.023-3.97-6.447-12.33-24.641-14.71-31.907 1.53-2.772 2.07-2.251 5.64-3.905M613.611 708.427c7.006 2.763 14.586 13.371 16.745 20.55-.815 4.127-.788 3.019-4.207 6.619-6.612-3.559-13.879-14.183-16.391-21.577.699-3.515.7-2.569 3.853-5.592m31.533 49.195c7.563 3.86 14.189 12.738 16.532 20.954.805 2.823-1.447 4.965-2.977 7.177-7.18-2.179-13.408-13.701-15.94-20.347-.946-2.481 1.156-5.556 2.385-7.784M535.273 619.225c6.769 1.401 15.841 12.283 19.027 18.364.274 3.317-.624 4.233-2.272 7.134-6.938-2.63-16.731-11.226-19.644-18.257-.016-3.487.953-4.337 2.889-7.241M1801.29 1057.67c2.82 1.78 2.96 1.56 4.53 4.42.17 9.1-6.88 20.8-11.39 28.87-3-1.34-3.78-1.41-6.08-3.77 1.77-6.86 9.58-22.46 12.94-29.52m-222.76-31.32c9.41 1.31 17.06 27.33 14.86 33.76l-3.37-.61c-5.53-5.79-13.61-25.23-11.49-33.15m170.57 191.98 4.03.5c6.12 4.83-1.98 26.32-6.41 31.77-3.48.15-2.02.65-4.64-1.21-1.17-4.34 5.54-25.11 7.02-31.06m74.88-209.78c3.67 1.88 2.45.53 4.24 3.69.01 6.36-9.44 19.42-13.36 26.37-2.35-.37-2.18-.38-4.1-1.82-2.21-8.04 7.46-23.1 13.22-28.24M1483.4 805.787c4.61 4.376 13.54 20.628 13.84 27.475.07 1.589-2.03 2.446-3.36 3.414-3.77-4.054-15.74-23.702-15.53-29.079zm281.38 352.493c1.46.68 3.65 1.49 4.22 2.91 2.77 6.83-5.69 24.94-7.87 32.65-3.46-1.11-2.18-.12-4.25-2.65-1.05-10.17 4.7-22.29 7.9-32.91m-164.95-72.76c1.05.32 3.78 1.13 4.35 1.92 4.54 6.26 10.47 24.41 10.15 31.63-2.19-.08-3.86.03-5.15-1.76-5.5-7.62-9.93-22.58-9.35-31.79m-36.43-112.548c2.77 3.711 10 19.574 9.32 24.885-.21 1.692-2.28 2.933-3.83 4.323-5.17-4.509-11.55-18.75-9.99-25.758.29-1.314 3.27-2.689 4.5-3.45m172.91 293.768c2.36.03 5.49-.41 6.54 1.93 2.92 6.45-2.48 17.66-4.69 23.72-1.57-.24-5.47-1.02-5.91-2.54-1.85-6.42 2.2-16.86 4.06-23.11m-117.3-124.11 2.22.97c3.75 4.5 10.89 26.99 7.76 32.53l-3.02-.6c-4.41-4.55-10.65-26.44-6.96-32.9m162.12-32.35c2.39.13 2.47.28 4.76 1.12l.76 2.15c-.93 5.68-4.82 17.34-8.91 21.22-3.57.17-2.42.8-4.71-.7-1.08-6.69 5.02-17.28 8.1-23.79m-924.447 142.03c11.935 1.31 12.214 8.09 7.384 17.33l-3.091.4c-6.578-3.16-7.387-11.75-4.293-17.73M1843.5 968.69c1.77.235 2.95.613 4.68 1.062 4.87 5.657-3.14 13.672-6.83 18.83-1.77.905-1.12.486-3.69.247l-1.11-2.139c-.07-6.296 3.84-12.58 6.95-18m19.36-31.89c9.86 5.618 1.53 13.429-4.53 18.222-3.9-2.235-3.34-1.137-4.85-4.536.63-5.68 5.4-9.56 9.38-13.686"/><path fill="#FEFEFE" d="M1004.86 134.476c22.44-.303 51.2-.659 73.28.634a894.5 894.5 0 0 1 330.29 86.894c214.68 105.824 378.83 292.23 456.64 518.579-18.2-4.38-35.25-11.811-52.67-18.614a2034 2034 0 0 0-50.98-18.958l-225.85-81.063c-32.29-10.909-64.4-23.174-96.63-34.479l-414.42-146.584a14882 14882 0 0 1-378.419-134.599c-18.543-6.897-37.687-12.581-56.171-19.832-11.962-4.693-24.427-7.774-36.397-12.669 19.086-15.769 61.003-37.25 83.123-48.223 113.991-56.544 240.669-88.574 368.204-91.086m164.44 680.453c10.71 18.441 18.25 36.821 26.85 56.147 45.54 102.363 79.13 208.914 108.07 316.834a3044.6 3044.6 0 0 1 83.61 441.81c7.35 67.9 10.65 129.88 14.1 197.93-6.58 4.03-23.03 10.89-31.11 14.22-54.6 22.46-119 43.26-177.04 54.16-55.56 11.19-110.72 16.7-167.4 16.16-18.23-.17-34.233.72-52.451-2.28l-.061-166.42c-.002-28.13-.897-61.5.333-89.13a2933 2933 0 0 1 48.809-430.43c19.76-103.18 45.86-210.78 88.87-306.842 15.3-34.181 33.05-73.742 57.42-102.159M153.913 850.838c5.968 4.92 13.389 10.879 18.873 16.485 188.135 192.357 266.732 458.587 291.443 720.447 4.256 45.1 8.394 89.12 8.925 132.81l-10.376-8.78c-15.001-10.04-29.048-24.74-42.17-37.15-61.186-57.88-107.793-114.45-153.243-185.39-118.2-184.52-160.49-424.42-113.452-638.422m639.433 507.722 4.208.14c.456.55 1.258 1.4 1.37 2.08 26.272 159.09 33.071 321.05 34.372 482.07.066 8.22.795 43.14-1.012 47.99-13.855 2.79-119.468-34.36-138.53-41.4-28.957-10.2-59.781-26.66-87.413-40.24-1.445-11.92-.604-32.17-.18-44.75.958-28.46 1.526-57.2 3.013-85.62 1.175-22.47.252-46.16 1.104-68.29l5.137-142.19c1.097-28.72 2.873-58.32 3.389-86.9 14.741-2.4 29.977-3.06 44.688-5.32 40.852-6.28 81.953-10.3 122.814-16.36 3.335-.5 3.59-.18 7.04-1.21m471.984-610.15c32.19-2.221 80.89 6.247 108.17 24.337 20.15 13.363 42.87 52.234 55.18 73.856 57.59 101.132 97.03 213.627 129.14 325.167 15.39 53.48 28.81 103.91 38.75 158.63-13.26 1.73-26.53 3.33-39.81 4.81-26.21 2.32-53.24 6.32-79.45 9.17-12.79 1.39-31.39 4.78-43.75 4.61a3829 3829 0 0 0-57.44-245.78 2421 2421 0 0 0-70.16-211.117c-14.23-37.644-42.9-108.084-65.67-140.251 9.73-1.872 15.21-2.779 25.04-3.432M266.401 569.849c85.966.134 154.645 38.871 214.404 97.381a24668 24668 0 0 1-5.683 482.41c-8.383-12.45-20.343-39.13-27.132-53.35-56.204-120.417-158.528-267.857-267.544-346.193 25.601-68.645 46.721-118.973 85.955-180.248M1604.25 1385.4c1.66-.29.7-.32 2.79.61 3.88 9.13 6.53 42.22 8.13 53.87 10.22 74.3 14.35 149.1 20.93 223.77-18.41 24.01-64.29 54.94-87.82 75.64-7.64 6.72-69.99 48.33-75.01 47.67l-.77-3.21c-3.14-25.65-4.28-54.34-5.94-80.2-1.97-27.21-4.22-54.39-6.74-81.55-3.92-40.05-8.32-80.05-13.2-119.99-4.07-31.84-8.95-63.64-12.6-95.55 22.56-3.93 47.29-5.95 70.17-8.6zm302.34-444.78c5.21 5.059 5.98 48.512 6.28 58.498a856.14 856.14 0 0 1-69.75 370.432c-21.65 49.44-50.14 101.05-80.32 146-4.99 7.44-10.48 16.43-16.58 22.91-1 .45-.35.3-2-.11-4.59-17.62 2.43-89.72 4.82-111.27 18.05-163.28 62.6-349.72 157.55-486.46M633.153 876.689c5.966 5.228 19.428 38.735 23.772 47.276 47.934 94.265 83.439 193.755 112.359 295.335 7.361 25.86 19.474 60.53 22.675 86.85-5.697.54-32.465 5-35.77 4.51-17.493.45-131.993 20.37-140.336 17.17l-.729-2.02c2.4-5.54 10.528-7.31 10.913-14.21 1.772-31.84.511-63.88 1.389-95.72a5694 5694 0 0 0 3.605-156.55c.416-58.68-.343-124.472 2.122-182.641M501.917 307.695c3.55.307.078-.22 3.21.966 56.102 21.243 114.992 40.601 171.7 59.892l126.693 43.89 799.38 272.668c77.46 27.08 155.96 52.243 233.73 78.423 12.81 4.31 25.98 7.759 38.42 13.078 2.08 4.254 7.73 15.57 4.46 19.258-4.03 1.025-10.43-2.354-14.63-4.075-43.51-16.314-92.41-28.159-137.97-43.091l-339.46-111.423c-76.8-24.638-154.06-51.594-230.72-76.956a36314 36314 0 0 1-499.76-166.527c-17.125-5.837-175.621-58.567-181.383-63.281l-.072-1.981c3.544-6.497 19.613-16.236 26.402-20.841m181.794 283.583c37.311-1.932 66.829 11.145 95.987 33.737 2.923 1.989 18.966 14.461 18.858 17.201-1.49 37.71.103 75.301.177 112.866a6281 6281 0 0 1-1.923 182.105c-6.973-15.924-16.245-33.219-24.22-48.852a1268 1268 0 0 0-120.285-198.32 474 474 0 0 0-26.786-32.288c-8.268-8.973-21.521-21.032-27.409-30.877 27.62-21.599 52.02-28.891 85.601-35.572M1726.61 887.644c15.15 5.163 33.44 5.969 41.8 22.151 4.53 8.782 2.84 24.378 2.35 34.213-2.64 53.54-14.44 106.832-30.82 157.782-3.58 12.25-6.83 24.5-10.87 36.62.11-20.75-1.2-42.22-1.59-63.1l-1.14-111.345c-.25-21.035-1.43-55.824.27-76.321M718.393 343.166c9.966 2.597 49.967 15.153 57.283 19.825-6.239 8.778-15.604 14.404-17.958 23.033-18.745-7.955-43.477-14.58-60.421-22.98 5.719-7.493 13.829-13.825 21.096-19.878m165.871 58.733c14.255 4.016 42.406 14.15 55.977 19.743-6.48 7.469-12.152 13.57-19.765 19.848-19.319-5.929-38.263-12.625-57.491-18.814 5.333-5.975 15.316-15.741 21.279-20.777m-97.481-36.111c3.42 2.033 34.749 12.671 41.591 15.203a1003 1003 0 0 1-21.448 22.5c-9.648-2.388-31.593-11.6-41.201-15.393 6.073-7.893 13.992-15.094 21.058-22.31m163.08 58.737c4.075.653 43.259 13.607 46.449 15.996-1.328 2.479-14.812 15.348-18.179 18.837-2.609 1.758-40.212-12.578-46.284-14.485a1412 1412 0 0 0 18.014-20.348M578.452 291.56c12.444 3.441 28.323 9.71 40.406 14.711-7.759 9.999-12.085 13.241-22.254 21.161-3.271.197-34.709-10.701-39.36-12.453 8.763-8.516 14.148-13.376 21.208-23.419m49.817 18.399c11.031 1.669 26.512 8.348 36.608 13.064-6.914 8.172-14.055 13.685-22.296 20.338-2.105.32-31.164-9.324-35.484-10.693 6.436-8.032 12.99-16.431 21.172-22.709m209.417 74.631c7.908 1.148 26.714 9.441 34.706 12.739-3.966 7.085-13.008 15.64-18.909 21.692-11.272-3.169-24.485-8.267-35.382-12.53 5.633-7.444 13.121-15.028 19.585-21.901m-165.085-58.38c9.541 2.301 26.641 8.853 36.543 12.364-6.886 7.184-14.321 13.291-20.8 20.828l-1.135.644c-5.855-1.006-27.064-9.153-33.883-11.639zm-129.055-46.316c4.316.165 22.177 6.39 26.483 9.164-6.302 6.604-14.548 14.549-21.608 20.431-1.978 1.648-1.553 1.053-4.639.569-9.221-2.479-21.141-6.221-29.768-9.888a156.5 156.5 0 0 1 29.532-20.276m506.214 178.193c11.38 3.825 22.98 8.363 34.25 12.597-7.02 6.526-13.75 12.31-21.03 18.492-8.73-3.014-24.98-7.746-32.11-12.115 5.98-7.406 10.85-13.749 18.89-18.974m-42.73-13.359c6.25-.319 24.82 7.393 31.6 10.01-6.31 6.901-12.37 13.483-18.32 20.719-9.74-3.251-23.67-7.938-32.753-12.304 6.295-9.279 10.472-11.931 19.473-18.425m159.42 55.932c6.86.972 25.87 7.894 33.2 10.401-5.16 6.909-10.86 9.897-15.98 16.9l-.6.771c-4.22.823-27.96-6.477-30.01-10.673.84-6.468 7.57-10.4 12.61-16.442zm80.58 28.051c9.78 4.035 22 7.51 32.72 11.768-5.79 6.642-9.85 10.235-16.56 15.911-11.8-3.548-22.14-6.623-33.64-11.114 5.76-7.092 10.53-10.805 17.48-16.565m43.9 15.514c10.34 3.17 24.88 8.36 34.71 12.469-5.28 5.961-10.73 9.898-17.13 14.528-3.04.623-28.41-8.794-33.34-10.488 5.44-6.829 9.36-10.715 15.76-16.509m-196.81-69.52c7.03 1.129 22.85 7.556 30.14 10.392-7.19 5.647-13.94 10.711-20.4 17.227-4.56-.315-23.74-7.93-29.52-9.943 5.49-5.565 13.51-13.278 19.78-17.676m239.52 85.217a267 267 0 0 1 36.06 11.911c-5.45 6.185-8.21 8.344-14.68 13.391l-.58.479c-3.41.538-29.05-8.25-34.3-9.924 4.55-5.723 8.6-10.419 13.5-15.857m47.13 16.069c8.7 1.833 24.62 8.338 32.58 12.32-5.16 4.682-10.44 8.703-15.92 12.984l-1.91.474c-7.78-2.304-22.02-6.892-28.44-11.387.58-4.059 10.19-11.35 13.69-14.391m-249.7-87.929c8.37 2.345 18.78 6.225 27.16 9.089-7.1 6.366-12.09 10.311-17.38 18.302-6.03-1.633-20.06-4.5-23.64-8.569-.23-5.309 8.99-12.825 13.86-18.822m292.45 102.578c10.26 4.156 21.16 7.337 30.69 12.5-3.73 4.136-8.94 9.753-13.42 12.86-8.69-1.879-24.32-7.369-33.38-10.128 5.48-5.449 10.31-10.136 16.11-15.232m-214.59-75.048c5.77.617 21.09 6.582 26.45 9.461-5.29 5.832-9.82 9.87-15.7 15.15-4.93 3.47-21.04-2.642-24.48-6.843.42-4.988 10.11-13.955 13.73-17.768m298.05 106.137c11.13 2.969 22.38 7.188 33.04 11.533-3.65 4.479-7.04 7.331-11.3 11.153-4.65 2.053-27.25-7.421-32.53-9.47 3.38-4.627 7.08-8.85 10.79-13.216m279.26 101.848c7.1.756 52.77 19.975 54.56 25.546l-1.17.883-2.9-.425c-15.67-1.572-43.42-11.648-58.44-18.1 2.71-3.482 4.6-4.957 7.95-7.904m-320.67-117.292c10.66 3.735 21.57 7.364 31.96 11.772-4.4 5.668-7.06 7.918-12.64 11.953-5.83-.614-24.5-7.642-29.97-10.756 3.1-4.855 6.81-8.708 10.65-12.969m125.07 45.396c10.14 2.195 22.97 7.041 32.64 10.852-4.36 4.513-7.24 6.769-12.14 10.663-.76 1.003-.19.417-2.1 1.263-10.12-2.854-19.24-6.68-28.7-11.204 3.27-4.644 6.36-7.569 10.3-11.574m-39.89-14.907 30.21 9.802c-3.27 7.144-4.66 7.773-11.51 11.971-5.19 1.985-24.03-6.493-30.05-9 3.67-5.024 7.02-8.319 11.35-12.773m82.02 29.84c10.4 3.326 19.27 6.312 29.5 10.229-3.61 4.192-7.36 7.634-11.36 11.422-4.77 1.031-23.74-6.717-28.8-9.321 3.41-4.494 6.87-8.194 10.66-12.33m115.7 41.142c4.97.2 23.53 7.899 29.52 10.265-4.05 5.406-4.98 6.479-10.75 10.015-9.78-2.647-20.5-6.286-30.24-9.363 3.77-4.015 7.41-7.248 11.47-10.917M271.417 891.681c5.596 4.173 27.463 32.418 31.684 38.802-.091 2.982-1.73 3.742-4.21 6.677-4.648-3.538-28.055-33.365-31.796-39.064.626-3.44 1.473-3.307 4.322-6.415M1671.34 680.554c7.92 1.374 21.54 7.002 29.04 10.144-3.4 4.288-5.54 6.076-9.56 9.633-5.7 1.903-20.49-4.314-27.02-6.607 2.77-6.208 3.37-7.666 7.54-13.17m38.21 14.057c6.82.095 22.61 6.499 29.1 9.226-3.48 4.11-5.97 6.271-9.93 9.799-5.53 1.719-21.98-6.17-27.94-8.574 2.73-3.954 5.57-6.903 8.77-10.451M225.338 839.088c5.135 3.51 32.114 31.167 32.794 35.807l-3.923 4.225c-7.125-6.006-28.016-27.198-33.393-34.209.511-3.04 1.689-3.145 4.522-5.823m-52.744-50.746c5.79 2.772 31.197 25.943 35.676 32.175 1.89 2.631.954 3.516.1 6.05-6.19-1.802-31.895-24.358-37.629-29.883-.892-3.04.577-5.254 1.853-8.342M413.285 1116.4c4.168 3.09 17.96 31.73 21.014 38.32-.638 3.23-1.202 2.82-4.088 5.66-5.119-3.32-19.133-30.9-21.28-37.17.551-3.39 1.957-4.31 4.354-6.81m-31.196-59.78c3.814 1.87 18.334 31.53 20.886 37.15l-3.556 5.37c-5.827-5.44-19.376-29.31-21.996-37.33.543-3.07 1.31-2.65 4.666-5.19m-32.468-56.16 2.172.84c5.942 11.16 15.584 26.76 20.891 37.73-.34 2.92-.906 2.44-3.905 5.02-6.493-8.77-19.562-28.7-23.354-38.48.601-2.78 1.551-2.75 4.196-5.11m93.395 178.97c4.255 1.45 19.613 30.99 19.728 36.66.033 1.69-1.881 3.24-2.957 4.47-5.426-5.93-18.153-28.2-21.059-35.35.651-3.18 1.474-3.02 4.288-5.78M313.635 950.362c6.954 1.523 22.861 26.232 25.343 33.837.589 1.804-.862 2.834-1.937 4.416l-1.508.005c-6.171-4.868-18.243-23.592-22.231-31.271-1.779-3.423-.877-4.261.333-6.987m156.288 288.928c4.704 1.12 10.104 10.01 12.603 14.4 4.537 7.98 6.863 9.72 4.78 18.26-6.802-5.03-18.239-19.8-19.953-28.49-.305-1.55 1.142-2.47 2.57-4.17M1866.79 902.014c.15 3.712-28.39 37.167-32.92 43.672-5.85 8.408-12.74 22.073-18.43 29.424-.35-13.513 40.86-63.132 51.35-73.096m-18.53-151.001c9.08-1.196 19.75 3.211 23.35 12.198-5.09-1.665-11.33-3.572-16.17-5.729-5.41-2.419-5.38-2.061-7.18-6.469"/><path fill="#716F72" d="m1751.23 1132.63.52 1.69c-.65 3.42-1.14 8.24-3.05 10.95l-.9-.58c.86-5.07 1.66-7.18 3.43-12.06"/></svg>