<svg xmlns="http://www.w3.org/2000/svg" preserveAspectRatio="none" style="display:block" viewBox="0 0 2048 2048"><path fill="#FEFEFE" d="M0 0h2048v2048H0z"/><path d="M1001.8 134.201c491.91-12.274 900.5 376.804 912.3 868.729 11.79 491.91-377.69 900.13-869.62 911.44-491.251 11.29-898.775-377.53-910.552-868.77-11.776-491.238 376.647-899.142 867.872-911.399"/><path fill="#FEFEFE" d="M1009.55 154.466c34.93-1.025 77.94 2.006 112.85 6.104a854.8 854.8 0 0 1 457.73 200.972c35.28 29.971 71.64 64.941 100.33 101.302-24.36-6.723-189.13-57.616-196.55-56.73-2.35.282-4.35 1.232-5.53 3.424-1.25 2.321-.51 3.595.35 5.785 8.14 6.086 74.62 24.753 88.45 28.882l130.97 39.241c40.79 50.205 91.41 128.542 116.34 188.213-24.09-11.819-49-26.43-72.9-39.2l-183.5-99.369a3643 3643 0 0 0-69.02-37.513c-9.5-5.116-33.82-21.475-43.52-17.401-3.76 6.248 4.74 13.345 9.76 15.898 13.48 6.86 26.86 13.735 40.19 20.919l103.71 56.106a8824 8824 0 0 0 151.59 82.182c22.76 12.227 49.53 27.653 72.36 38.702 7.23 11.95 15.77 36.427 20.5 49.899a842.4 842.4 0 0 1 47.66 242.371c-6.59-7.117-20.46-19.249-27.97-26.296l-62.08-58.003c-81.21-76.089-162.32-148.738-244.28-223.797l-91.04-84.269c-7.98-7.447-44.33-42.306-49.96-45.116-4.49-.094-2.48-.638-6.29 1.597-3.97 6.938-.78 9.705 4.5 14.699 23.78 22.465 47.99 44.488 72.03 66.676a10303 10303 0 0 0 155.01 141.388 15280 15280 0 0 1 251.41 232.628c2.49 115.24-21.21 243.48-66.9 349.6-97.01-12.23-184.27-3.62-279.02 21.02-32.88 8.55-62.86 18.86-95.14 28.96-4.19-61.11-11.36-123.96-17.07-185.08l-35.29-372.321-12.99-136.945c-1.92-21.333-4.37-43.775-5.5-65.003 12.48 16.637 26.21 37.552 38.31 55.012l84.26 121.647 231.16 325.69c4.07 5.77 10.77 17.06 18.28 9.46.91-4.89-1.42-9.73-4.19-13.67-15.93-22.63-32-45.37-48.13-67.82l-67.95-95.804a12442 12442 0 0 1-199.86-285.878c-18.04-26.456-38.55-52.792-54.46-80.311-2.52-4.356-4.27-38.495-4.92-46.374a6511 6511 0 0 0-6.04-66.893c13.08-3.865 26.72-10.227 31.88-23.663 9.55-24.894-12.05-40.21-30.05-50.49 4.52-7.251 9.69-9.652 8.2-18.217 2.62-1.774 8.34-1.155 10.9-1.896 10.4-3.009 21.75-24.419 27.81-32.512l19.89-26.078c4.17-.213 14.34-.105 16.55-3.331 4.18-6.097 4.15-40.073-.05-44.785-12.64-3.1-74.81-1.602-92.18-1.855-79.81-1.163-161.99 1.648-241.61-.804-14.2 11.711-29 26.362-42.34 39.207-3.5 3.361-5.27 7.62-3.82 12.378 6.73 6.099 12.56.81 18.91-3.052-.31 34.803-3.71 38.863 35.4 38.363-.42 26.761 18.41 14.69 25.89 22.6-.05 8.705 3.63 12.172 8.41 20.127-12.91 5.19-26.38 12.809-32.38 26.034a27.77 27.77 0 0 0-.51 22.226c5.44 13.624 19.36 22.076 32.37 27.371.04 37.118-.42 74.235-1.36 111.341-.65 56.667-1.6 113.33-2.84 169.986l-9.28 471.56c-1.85 78.28-5.39 162.37-5.41 240.3-22.97 4.5-29.33 17.52-19.72 38.63-12.84 4.85-49.64 10.6-64.44 12.85-24.88 3.77-54.65 9.5-79.512 11.98-3.571-7.42-5.373-10.29-11.671-15.55-11.318-6.06-21.377-7.32-33.842-9.48 12.306-19.11 6.293-27.01-11.128-37.64-1.604-27.36-1.611-56.11-2.449-83.57a15665 15665 0 0 1-5.45-157.73l-24.157-752.938c28.437-7.337 44.677-28.938 28.144-56.691-6.929-11.631-14.895-12.072-23.346-20.442 4.69-6.513 4.14-10.843 2.899-19.164 6.557-1.834 20.276-4.815 21.773-12.584-.738-2.493-3.161-7.469.236-8.157 9.897-2.005 23.871-.083 32.644-5.769 10.591-6.864 3.798-20.317 5.854-30.548 3.192-1.456 8.172 2.51 10.372 2.514 28.03.058-28.905-48.333-35.971-54.505-25.203-.657-52.536-.103-77.886-.048l-128.667-.066a6720 6720 0 0 1-70.28-.448c-17.379-.202-36.894-1.093-53.947.932a96 96 0 0 0-.669 3.28c-1.526 7.987-3.223 36.361 2.275 42.831 7.48 8.802 10.756 2.13 14.156 2.74 5.732 12.9 14.481 17.313 25.379 25.808-.735 3.593-1.247 7.531-1.796 11.178 10.198 15.189 12.458 10.04 26.951 18.005.862.474 3.124 4.409 7.54 4.373.487-.004 5.017.875 5.806 1.02.05 1.807-.102 3.526-.348 5.315 1.385 3.996 2.368 4.714 5.235 8.062l.957 1.104c-42.027 23.99-37.608 60.56 7.233 77.417-2.073 19.305-5.107 55.649-9.311 73.686-1.221 5.236-25.981 38.479-31.149 45.578a6016 6016 0 0 1-71.459 96.373L390.049 972.96l-75.819 101.8c-11.1 14.95-22.749 30.11-33.568 45.27-2.632 3.69-3.054 5.48-2.189 9.48 3.534 2.7 1.628 2 5.804 2.48 3.206-1.14 5.668-2.55 7.754-5.34 10.874-14.49 21.836-29.52 32.657-44.02a5468 5468 0 0 0 79.465-107.632L630.72 668.557a1692 1692 0 0 0 27.309-37.129c6.785-9.636 16.281-24.633 24.313-32.842-4.604 32.307-6.594 66.23-10.046 98.816a10086 10086 0 0 0-27.238 298.849l-37.547 452.089c-85.351-8.14-150.599-32.42-231.68-53.29a902 902 0 0 0-147.423-25.98c-56.702-135.21-78.2-236.4-73.277-384.211 14.69-12.007 32.12-29.243 46.436-42.483l97.996-91.48 238.429-220.377a10172 10172 0 0 0 75.535-69.521c5.338-4.923 27.966-22.816 30.999-30.798.828-2.18-2.538-6.8-7.063-6.862-8.16 4.231-28.06 23.77-35.515 30.679l-58.294 53.967-229.719 212.101-99.664 92.194c-19.011 17.542-39.512 35.5-57.758 53.543 3.082-94.302 34.443-203.241 72.921-288.79 4.467-2.003 8.808-4.567 13.12-6.898 63.963-34.578 127.956-69.314 191.38-104.87a7575 7575 0 0 0 119.985-67.436c11.464-6.599 42.794-20.438 47.259-31.42-.166-3.485.492-2.05-2.031-4.45-9.846-2.187-36.314 16.17-46.456 21.838l-80.704 44.946a8053 8053 0 0 1-231.442 126.456c6.837-15.525 17.145-33.028 25.616-47.86 29.088-50.928 64.394-103.201 103.525-146.808 65.846-21.377 133.926-38.448 200.105-58.877 5.145-1.588 12.276-4.489 12.722-10.344-3.784-3.928-12.357-3.882-17.181-2.624-18.424 4.807-36.648 11.404-54.937 16.811l-124.774 35.866q7.35-8.102 14.847-16.067c158.8-167.872 378.069-265.37 609.082-270.829"/><path fill="#FEFEFE" d="M765.572 462.402c2.936-.454 11.069-.684 14.413-.877l-41.869 708.365-11.455 199.43c-1.202 21.96-2.668 43.83-4.068 65.77-.383 6-.1 13.61 6.658 15.16 7.471-1.95 7.529-9.96 7.883-16.66 2.697-51.07 5.802-102.11 8.739-153.17l22.291-398.712 14.758-249.663c3.332-51.45 8.763-110.711 10.218-161.773 9.216.808 18.711 2.273 27.901 3.552-.952 36.987-2.823 74.216-4.003 111.244-1.239 64.827-4.97 131.091-7.447 195.919a35265 35265 0 0 1-16.503 412.543c-4.94 94.24-9.107 188.53-12.503 282.84-53.624-1.3-105.538-.81-158.45 9.31 5.917-57.69 10.069-118.24 15.104-176.17l36.626-431.602c11.4-133.58 26.611-266.304 38.355-399.531 17.021-11.955 33.21-14.242 53.352-15.975"/><path d="M737.476 484.74c2.719.51 4.147.981 6.766 1.763 1.736 1.772 2.878 2.756 2.639 5.902-1.044 13.741-2.272 27.77-3.301 41.49a9531 9531 0 0 1-7.418 95.66l-18.505 241.38-28.449 383.395-9.724 125.71c-1.585 20.7-2.695 41.51-4.594 62.17-.411 4.47-1.909 5.43-5.109 8.61-4.624-.49-3.757.25-7.117-2.11-2.972-5.9.583-40.56 1.238-49.25l6.19-78.33 18.282-234.51 35.204-465.399c3.236-41.414 6.415-82.788 9.264-124.231.444-6.461.241-7.711 4.634-12.25"/><path fill="#FEFEFE" d="M1248.86 463.979c3.63-.188 7.66-.954 10.62.779 1.49 8.707 1.77 26.809 2.19 36.606l2.81 63.743 10.96 191.208 42.76 717.615c-61.46 1.77-104.75 7-164.36 17.71 9.73-336.39 16.9-672.859 21.48-1009.366 9.06-4.197 16.22-6.704 25.69-9.736l-.43 875.212-.38 66.43c-.05 11.67-2.88 44.01 6.61 49.92 6.39-1.75 7.49-7.97 7.49-13.93-.01-23.48.09-46.94.18-70.42l-.2-190.36 1.21-720.747c5.99-1.519 12.3-2.301 18.42-3.213l18.6 705.03 5.01 190.9c.8 27.76 1.1 55.58 2.53 83.3.34 6.62.62 14.05 9.45 11.64 3.79-4.39 4.51-9.96 4.42-15.67-.8-53.04-2.3-106.16-4.03-159.17l-7.96-244.98a52538 52538 0 0 1-13.07-572.501M1128.93 1579.52c49.51-.89 100.44.02 150.06.14l246.19.37c.03 15.99-.02 31.98-.18 47.98l-39.43.26-395.44-.18c-.12-16.01-.12-32.03-.02-48.04 12.86-.32 25.94-.37 38.82-.53m-592.884.51 425.197.03c.911 14.48.759 32.81.481 47.38-14.785.49-30.129-.06-44.968 0-126.838.51-253.907-1.18-380.729.27zm195.352-42.59c29.556-1.64 68.287 3.66 98.323 5.38 39.62 2.26 75.608-1.33 113.731 10.26 3.415 1.04 3.13.86 4.379 3.26-.05 3.19.33 5.19-1.574 7.65-5.715 1.09-40.358-.03-49.362-.11l-113.395-.53c-71.925-.09-147.697 1.38-219.166.09-.052-4.22.209-8.95.343-13.21 21.411-1.36 45.512-4.69 67.284-6.63 33.079-3.01 66.239-5.07 99.437-6.16m546.902 2.06c19.88-.35 208.4 12.03 212.96 16.11.75 3.46 1.07 4.13.41 7.7-6.75 2.42-146.68-.04-164.92-.04-25.18-.05-210.46.65-214.14-1.7-.41-4.17-.73-2.24.88-6.02 9.18-7.06 145.53-15.98 164.81-16.05m62.12-52.95c29.18-1.1 93.46 2.45 116.03 20.95l-.01 13.16c-75.11-15.5-134.92-20.36-211.68-13.52-32.79.27-64.65 11.5-96.52 17.3-3.86.7-9.93 1.15-13.04-1.8-1.06-1.01-1.78-2.26-1.8-3.72-.05-3.18 1.61-5.85 3.81-8.01 17.61-17.32 170.16-24.4 203.21-24.36m-35.85-517.66 2.18-1.409c3.66 50.439 10.05 99.579 14.88 149.819 6.96 76.4 13.17 152.87 18.61 229.39 2.9 40.93 6.73 86.24 8.38 127.1l-16.43-.04c-2.8-38.64-3.89-77.59-6.24-116.28-8.06-129.48-15.19-259.01-21.38-388.58m-179.88-656.441c45.99-1.148 95.59.547 141.94.601 57.3.068 115.17-.839 172.37-.279.08 5.911.27 11.229-.36 17.12l-189.44-.949c-40.26-.154-85.02.734-124.94-.843-.37-4.549-1.28-11.721.43-15.65m-2.85 33.776 291.29.768c-6.29 6.629-8.94 11.21-14.38 17.488-85.82 2.692-173.68-1.948-259.69-.731-6.73.096-24.9.333-30.79-1.235l-.36-1.978c2.98-6.404 8.41-10.067 13.93-14.312m-482.175-.023c30.049-.984 64.094-.321 94.391-.398l193.525.099c4.18 6.391 9.097 9.888 13.194 16.469-8.184 1.254-24.689.925-33.511.91l-53.852-.071-195.258-.073a1575 1575 0 0 0-18.489-16.936"/><path fill="#FEFEFE" d="M1248.62 419.421c20.14-2.356 49.03 1.615 68.97 4.924 24.96 4.141 104.96 29.14 52.14 60.495.66-9.047.61-16.267-6.13-23.34-18.87-19.813-60.82-23.998-85.85-25.702-30.55-2.449-74.44 2.986-102.27 17.712-12.66 6.696-17.22 16.139-20.52 29.147-39.42-23.915 2.69-42.581 25.9-50.616 23.1-8 43.73-10.79 67.76-12.62M716.155 1489.43c8.919-.67 17.959-.55 26.9-.47 24.265.22 166.987 9.41 177.013 23.36.996 1.39 1.658 2.54 1.472 4.26-.303 2.78-1.694 4.55-3.902 6.18-1.558 1.15-2.596 1.36-4.569 1.3-6.512-.21-27.254-6.15-35.767-7.67-24.204-4.31-48.678-7.14-73.066-10.18-57.165-5.87-120.222-2.19-177.017 6.6-9.917 1.54-19.617 4.57-29.701 5.41-2.559-1.26-2.342-1.28-3.816-3.78-.39-4.32 5.369-9.98 8.964-10.82 37.245-8.69 75.391-11.99 113.489-14.19M625.422 312.492l209.315.388q27.869-.058 55.735-.469c7.995-.108 25.981-.818 33.221.416 2.214 3.352 1.035 8.582-.012 12.188-2.519 2.608-2.426 1.703-7.431 1.902-99.946.439-200.91-.75-300.692.647l-.302-14.598zm736.088 758.638.79-.06c2.03 7.21 5.07 33.04 6.11 41.2 4.09 32 7.73 64.05 10.9 96.15l15.87 156.76c3.48 35.11 8.2 77.27 10 112.25l-11.74-1.75c-2.73-11.09-4.12-29.13-5.27-40.96-2.23-22.93-4.29-45.89-6.2-68.85-6.16-75.12-11.65-150.3-16.47-225.52-1.5-22.96-2.32-46.44-3.99-69.22M769.723 413.42c22.83-2.84 52.666 1.674 74.934 6.586 13.641 3.009 67.772 22.187 61.833 41.606a96 96 0 0 0-3.947-5.217c-16.826-20.425-64.192-29.443-89.301-32.045-40.582-3.347-98.805-2.105-131.853 26.198-3.015 2.582-7.393 8.691-10.105 12.031 1.984-7.718 2.351-13.061 8.312-19.281 20.81-21.715 62.284-27.45 90.127-29.878m517.687 1105.15c26.25-1.94 125.01.89 145.5 12.3l-.35.98c-13.59 3.53-88.16-3.47-106.8-5.09-42.53-3.88-82.71-1.65-125.11 2-5.35.46-10.39.8-15.77.59l-.36-.45c26.27-6.35 76.09-9.3 102.89-10.33M1145.72 382.507c51.74-1.191 107.68-.635 159.55-.254l48.17.379c6.33.018 25.96-1.63 29.61 2.531l-.49 1.69-2.46 1.105q-75.195-.09-150.39-1.387c-11.76-.096-80.67.663-87.13-2.239l.31-1.205z"/><path fill="#FEFEFE" d="M668.982 1522.31c40.056-6.46 98.032-4.24 138.905-.94 14.583 1.17 37.608 5.31 50.735 5.66l2.081 2.28c-4.964-.45-10.266-.66-15.277-.92-32.777-1.64-65.599-5.64-98.419-5.98-21.825-.22-43.82 1.24-65.646 1.68-5.656 1.03-14.373 1.18-20.311 1.71-12.675 1.13-25.443 2.62-38.136 3.24 14.717-3.41 30.953-6.17 46.068-6.73M1192.49 403.172c8.16-.656 74.02-.617 76.82 1.254l.56-.342-1.7-.278-.18.857c-9.22.477-27.31 1.856-36.05 1.363-10.71-.461-58.26 3.999-63.37-1.941 3.17-1.46 19.27-.882 23.92-.913"/><path fill="#3A3A3D" d="M1192.49 403.172c8.16-.656 74.02-.617 76.82 1.254l.56-.342-1.7-.278-.18.857c-9.22.477-27.31 1.856-36.05 1.363l5.51-1.468c-14.48-1.552-30.11-.013-44.96-1.386"/><path fill="#FEFEFE" d="m811.34 382.471 60.013-.497c7.111-.059 26.173-.678 32.36.517l.61.985c-3.347 2.055-2.945 1.375-7.446 1.598-23.909.195-75.021 1.577-96.222-1.565 3.249-.449 7.348-.719 10.685-1.038m-112.404.019c15.384.067 46.506-.487 60.523 1.307-4.192 1.296-10.173 1.257-14.706 1.475-9.4.717-53.376 1.616-61.627-.046l.549-.733c5.325-2.489 9.445-2.018 15.261-2.003m619.124 23.438c12.17.161 27.33-.356 39.13.509l.55.715c-8.47 3.448-29.3.797-39.71.13z"/><path fill="#9EA0A5" d="M1304.57 968.89c-1.27-3.926-1.87-33.597-2.09-39.642 1.8 4.36 3.87 32.163 4.27 38.233zm-11.19-206.654 1.07.014c1.06 6.884 3.05 19.348 2.1 25.824-2.59-2.801-2.79-20.427-3.17-25.838"/><path fill="#3A3A3D" d="M858.622 1527.03c5.517.3 8.966.01 14.091 2.12l-.726 1.04-2.123-2.62.666 2.93c-2.02-.13-8.002-.54-9.827-1.19zM1318.03 407.282c-4.53.024-8.87.521-12.94-1.186l.61-.865c4.69-.722 7.69.019 12.36.697z"/></svg>