<svg xmlns="http://www.w3.org/2000/svg" preserveAspectRatio="none" style="display:block" viewBox="0 0 2048 2048"><path fill="#FEFEFE" d="M0 0h2048v2048H0z"/><path d="M990.719 87.643C1507.83 69.23 1941.89 473.634 1960.05 990.749c18.17 517.111-386.44 950.981-903.57 968.901-516.771 17.91-950.282-386.37-968.436-903.14C69.889 539.747 473.96 106.044 990.719 87.643"/><path fill="#FEFEFE" d="M998.67 112.563c46.68-2.394 111.92 2.251 157.67 8.937 239.05 34.145 454.6 162.247 598.85 355.9 149.47 200.849 206.26 441.977 170.23 688.71-36.02-19.78-72.07-54.84-106.44-77.99-10.15-6.84-22.93-17.1-32.12-25.19l.05-5.45c.24-36.77.31-71.713-3.24-108.406a766 766 0 0 0-216.92-468.514C1424.2 338.414 1231 258.756 1029.7 259.131c-19.27.041-38.533.6-57.769 1.674-199.685 12.37-386.468 102.868-519.932 251.912a750.37 750.37 0 0 0-190.584 488.473c-.659 27.03 1.339 55.82 2.881 82.93-46.297 31.05-92.467 67.3-138.86 97.52a1040 1040 0 0 1-13.901-141.19c-1.215-37.07 1.462-80.354 5.426-117.193A899.97 899.97 0 0 1 358.339 399.04c166.686-177.083 397.22-280.221 640.331-286.477m919.31 1084.447.87 1.92c-11.34 71.58-38.34 145.89-68.29 211.61a855.8 855.8 0 0 1-107.66 173.5 908.56 908.56 0 0 1-405.38 296.36c-223.97 82.74-471.549 73.64-688.836-25.31-220.971-99.42-393.095-282.96-478.137-509.85-15.194-39.76-24.554-72.75-34.428-114.4 50.787 25.81 124.134 65.58 174.328 95.6 3.872 2.31 28.321 53.8 33.968 64.08a836 836 0 0 0 26.144 43.48 787.4 787.4 0 0 0 391.563 311.04c358.608 129.01 758.848-22.45 941.998-358.24 15.15-27.77 30.98-58.89 41.68-88.7 36.54-21.96 74.22-42.81 111.23-63.98 20.71-11.84 41.61-23.07 60.95-37.11"/><path fill="#FEFEFE" d="M429.486 1393.62c5.593-.6 8.47-1.72 13.457 1.09a7111 7111 0 0 0 133.489 72.27l195.185 105.21 138.821 74.69c37.509 20.34 78.568 43.2 116.752 61.85l433.63-246.28c23.41-13.19 46.59-26.98 69.72-40.66 12.95-7.67 28.15-19.04 42.5-23.4 10.68-3.25 80.45-1.42 97.38-1.45-16.24 26.97-30.02 46.96-48.53 72.34a775.9 775.9 0 0 1-199.5 182.74c-160.51 102.11-364.93 141.11-550.966 99.52a765.6 765.6 0 0 1-437.592-270.63c-22.312-28.09-39.383-55.15-58.421-85.13 14.763 1.66 38.608-.96 54.075-2.16M1174.72 297.538c16.76 2.593 39.71 9.274 56.55 13.899a716.46 716.46 0 0 1 335.17 203.964c136.66 145.762 201.69 336.305 195.34 534.799-14.33-5.55-34.56-11.94-47.88-17.86l-130.6-120.648c-33.08-30.911-71.47-68.69-108.01-95.427 19.69-13.238 49.66-26.627 65.14-38.051.78-11.219 5.75-65.739.66-68.616-39.82-21.292-86.79-36.602-127.96-54.309-2.16-.926-45.37-67.398-49.44-73.461l-109.85-164.777-49.68-74.633c-9.69-14.541-20.77-29.876-29.44-44.88m-304.343.816.896.14c-.446 3.61-25.718 40.566-30.26 47.482L717.294 533.073l-48.912 72.839c-10.953 16.392-23.407 34.426-33.047 51.423-8.599 4.538-28.801 11.641-37.264 17.414-14.413 9.831-100.659 41.27-104.236 49.213-3.211 7.129-3.28 67.798 1.389 75.184 4.03 6.375 43.194 22.746 54.134 28.119a12890 12890 0 0 0-151.174 148.114l-44.562 43.581c-8.738 8.55-21.703 20.56-28.758 30.09-10.966 7.15-26.023 14.59-37.683 20.6a726.56 726.56 0 0 1 135.357-482.519 732.7 732.7 0 0 1 379.064-271.165c22.085-6.679 46.057-13.859 68.775-17.612"/><path fill="#FEFEFE" d="M990.394 283.415c39.396-3.785 114.106 2.29 152.916 8.955l205.16 309.761c8.46 12.854 17.61 25.07 26.07 38.076-19.95-7.494-40.49-16.101-60.24-24.24-89.47-36.866-179.57-73.359-268.05-112.456-9.75-3.813-25.73-11.013-35.49-8.862-20.57 4.528-43.068 16.699-62.995 24.846a2699 2699 0 0 0-109.109 46.156c-42.743 19.453-84.783 39.933-128.231 58.051-12.521 5.222-24.693 11.632-37.383 16.793 8.864-14.711 18.487-27.466 28.067-41.537 11.047-16.227 21.957-32.791 32.875-49.126l109.28-165.037c17.514-26.265 45.015-65.154 59.842-91.64 30.175-5.543 56.702-7.692 87.288-9.74M1471.7 707.151c5.63.598 20.12 6.794 25.63 9.166-34.75 18.817-71.17 35.341-106.8 52.57a15119 15119 0 0 1-213.29 101.47l-95.79 45.264c-21.57 10.202-43.62 20.067-64.78 31.017-18.731-11.515-50.196-24.491-71.289-33.816a10742 10742 0 0 0-109.654-48.131L561.693 742.974c-8.865-3.935-18.043-8.327-26.88-12.409 9.306-4.168 22.312-9.645 31.808-12.617 19.88 11.338 43.143 20.711 64.264 29.971l87.668 38.818A19344 19344 0 0 0 1019.12 920c15.52-9.435 44.7-21.304 62.66-29.326a4754 4754 0 0 0 81.43-37.861zM322.676 1076.89c6.925-.05 85.243 40.45 97.475 46.56l191.387 95.89 402.162 199.38q.69 16.5.99 33.03l-18.279-9a73431 73431 0 0 1-701.815-351.12c9.077-5.07 18.822-9.94 28.08-14.74m1391.214-18.03c3.6.16 31.61 10.13 37.81 12.14-37.91 21.69-84.4 44.9-123.39 64.91l-131.36 68.55a44688 44688 0 0 1-436.57 229.91c-8.08 4.23-16.27 8.22-24.56 11.99v-28.65c75.07-41.2 150.67-81.44 226.77-120.7l332.17-176c39.57-21.01 79.74-40.79 119.13-62.15m-637.09 551.25c-.7 2.93-1.05 5.19-1.5 8.13l-6.43 2.18.61 2.93c-1.44 2.33-1.71 1.95-1.88 4.27 5.38.72 4.52-8.66 11.24-7.6 1.32 2.27 1.71 3.04 3.37 5.04 3.52-2.45.61-7.64 4.05-11.38 3.48 1.07 2.15.08 4.18 2.98l-.24.57c-2.49.91-2.44.74-4.18 2.68-.48 9.75 5.33 3.92 7.96 8.99l-2.68 2.55 3.19 1.16-.77 1.71c-2.58.23-1.27.18-3.94.15-.77 2.73-.87 1.41-.24 4.02 9.21-3.14 38.14-19.85 47.89-25.32l113.72-65.19 441.2-252.86c39.93-23 81.26-45.86 120.82-69.05 18.75-11.13 37.62-22.03 56.62-32.71 7.88-4.46 19.68-11.63 27.77-15.02 2.84.96 1.68.14 3.48 2.69-3.9 5.5-305.76 176.55-337.19 194.67l-327.81 189.17a7539 7539 0 0 1-131.42 74.22c-21.32 11.82-44.49 25.43-66.12 36.19-.88-22.56-.44-48.1-.52-70.84l-.03-131.94c10.09-5.05 27.83-14.4 38.83-18.91.77-.32 7.49 1.73 9.14 2.23 2.34-5.15 2.71-7.43 6.7-11.59 3.2-1.15 1.64-1.15 4.83-.02-.3 2.03-.86 2.84-1.72 4.81.77 3.84 2.76 3.14 6.55 7.6l-.52 1.09c-3.35-.04-3.7-.09-7.14.56-2.58 2.31-2.47 3.55-3.1 6.76-1.78 1.57-1.82 1.57-3.4 3.4 3.43 4.06 2.33 2.66 2.5 8.18l3.04-4.05 1.52.05.87 1.78c-.69 11.59-4.53 2.97-8.63 8.58.78 3.67.28 4.86 2.54 6.58 2.06-2.15 1.97-2.83 4.33-3.26.75 4.19-2.35 1.53-3.45 7.75 5 8.85.55 5.42-4.21 12.45l-.7-4.83-.79-.07c-2.89 10.15-6.94 8.01-11.4 16.41.03 7.65 3.85 3.76 8.68 10.5l2.86 3.35c-.67 2.78-1.07 2.85-2.92 5.15-.31 4.79 1.38 6.37 4.16 10.67-1.81 1.9-4.87 4.24-5.86 5.71-.1 2.64.46 1.83-.86 3.27-1.08 8.63.62 6.01 2.68 14.14l-.73 1.56c-5.78-.99.47-1.89-6.11-3.54-1.08 4.87-5.21 15.82-2.74 19.08 4.79 6.37 4.02 7.61 3.91 15.97l-5.2-3.08c1.83 4.99 2.2 5.01.65 9.86-3.19 2.03-3.68 2.08-7.48.56 1.4 2.37 2.78 4.8 5.34 5.58 4.46-2.27 1.53-4.83 6.68-6.67"/><path d="M1071.05 1523.18c4.05 3.1 5.14 4.1 9.68 6.22-2.05 1.15-2.78 1.35-5.11 1.68l-.48 1.87c1.46 1.21 2.83 2.36 3.95 3.91-.97 6.98-1.48 8.9-.13 15.88-3.09-6.84-7.11-22.16-7.91-29.56"/><path fill="#FEFEFE" d="M571.013 840.869c15.776 5.941 33.733 14.706 49.318 21.766l90.463 41.409a20082 20082 0 0 0 297.796 136.036c1.75 11.39 1.58 21.25 1.53 32.66l-16.912-7.75c-40.522-19.03-80.566-36.54-121.2-54.95L656.9 911.583c-35.901-16.529-75.254-32.908-110.348-50.384 7.022-6.839 16.669-14.114 24.461-20.33m885.297-12.768c6.5 4.77 15.69 14.419 21.63 20.379-19.03 12.306-42.46 22.357-63.17 32.18l-73.21 35.498-294.22 143.272c-4.55 2.19-9.14 4.32-13.74 6.4-.4-9.81-.09-22.17-.07-32.18 13.01-4.91 36.37-17.28 49.95-23.72l127.05-61.703c79.76-38.956 168.04-78.741 245.78-120.126m-432.09-307.822c13.72 5.303 21.52 7.593 32.98 16.904-1.45-3.054-1.57-1.929-1.39-4.694 4.93 2.692 13.71 6.131 14.96 10.432l.26.931 1.81.433 1.42-1.535c.74 2.678.38 2.94-.22 5.742l-1.47.508a157 157 0 0 1-7.19-5.286l-1.7.331c-.81 3.278-.94 4.821-2.96 7.566-4.67-1.35-3.34-5.794-8.22-7.023-2.43 2.518-3.01 2.995-4.79 6.14.41 2.998 2.23 20.077 4 23.332 1.78 3.267 1.01-2.635 4.18 1.783-.41 3.614-.99 9.738-4.26 11.897l-1.33-.826.27-4.354-2.12 1.271c-2.08 7.928 3.21 5.382 1.82 12.298l-4.1 2.201c-2.51 5.636 4.6 10.125 3.73 11.275-5.2 6.853-.92 18.468-.57 26.51 4.36-2.488 2.46-1.9 7.77-1.603l1.73 1.22c-2.04 5.386-4.72 4.134-4.92 8.167l.85 1.04c2.49 3.061 3.57 3.799 4.05 7.469l-.32.845c-1.04 2.826-1.39 3.3-1.06 6.352-3.92-2.375-4.33-17.317-7.69-22.344-.42 12.251.02 24.306 8.98 34.004q1.38 1.478 2.85 2.865l-.04 2.477c-4.46-2.467-4.34-5.233-7.03-4.636 2.04 8.482 3.28 12.404 4.81 21.13-2.69-1.751-4.89-3.156-7.69-4.713-.17 3.551 2.35 14.796 4.46 17.881 4.58 7.491 5.69 10.284 8.78 18.601-3.86-4.66-5.19-5.985-7.84-11.524l-.74-1.511c-.14-.307-.28-.613-.41-.919.28 5.251 1.54 25.793 4.34 29.755l3.52.597.75 1.636-.78 1.265c-3.94.188-4.8-.246-8.7-1.303 1.57 2.697 1.81 2.905 3.94 5.229l-.12 1.57-3.56 1.638c-.18 2.668-.12 2.481 1.28 4.801l3.9-.329c2.23 2.099 1.36.787 1.56 4.851l-.87 1.203-3.13-2.11-1.16 1.234c.04.527.91 4.814 1.84 3.604-8.44 10.937 1.78 13.435 1.37 22.025-5.27 3.458-3.58-2.056-5.51 3.231l1.29 4.091c2.03-.399 1.53-.427 3.4-1.742 3.5 2.056 4.93 4.742 4.85 8.9l-.83.529-2.74-3.611-1.47.453c.71 3.948.73 4.472 2.43 8.025l-.51 1.123-2.09.431c3.39 2.936 3.24 3.588 5.11 7.837l-.75 1.702c-2.43.471-1.59.427-4 .148l-1.08 2.387 1.51 1.182 2.01-.657c2.44 2.89 3.38 3.507 3.86 7.282-1.57 3.193-3.81 4.227-6.79 6.256l-.01 1.642c4.25 2.452 10.52 5.333 15.15 6.834-1.68 2.002-2.06 1.99-4.37 3.317l-.04 1.855c1.87 1.079.86.899 3.06.457 4.57 5.189 5.12 12.284 5.34 18.902.85-5.394 1.63-14.445 6.01-17.758l.9.16c1.03 2.857 1.49 3.451 1.35 6.492l1.38 2.385c3.31-4.304.95-5.623 4.4-8.781l1.06.717c3.96 2.638 5.34 4.293 9.63.888.5-4.986-3.56-2.786-2.39-7.396 3.25-2.026 3.08-1.967 6.83-2.689l1.23.819a57 57 0 0 1-1.97 3.918l1.13.838c4.54-.831 11.33-3.624 14.59-6.79.93-2.147.9-2.291 1.28-4.621.29 2.981.79 5.284 1.77 8.116-5.75 4.138-29.88 14.973-37.87 18.796-18.99 10.162-38.65 20.514-58.42 29.076-.6-14.428-.79-29.487-.88-43.957-.67-108.833-4.18-218.309-3.68-327.09m10.02 571.251c12.24-3.63 19.13-7.33 30.69-11.96l1.57.8 1.14 3.94c.96-.59 1.88-1.17 2.8-1.82l3.01 2.51 3.2-3.69c1.78 5.03 2.07 4.87 5.89 8.21.92 2.58-1.23 6.09-3.53 7.31l-1.23-.9.15-5.45-1.37-.8-1.22.44c1.98 5.34 3.83 7.64-.33 11.95l.17-.24c-2.71 1.05-3.09.53-3.84 2.16 2.24.68 2.95.92 5.06 1.91-.28 8.62-7.8 12.64-3.08 19.57l-.96 1.53c-3.95 1.9-4.98 1.76-9.52 2.2l-1.44.13-.12.8 3.46 1.41c3.03 8.92-4.06 28.93-3.17 36.05l2.84-3.61c.87 3.06-2.46 19.46-3.14 23.45 4.12 7.18 4.59 8.9 2.31 17.39l-2.13-.05c-.65 3.52 2.33 8.7 1.55 12.41.16-.77-2.84 5.53-2.94 5.77.88.67 1.75 1.34 2.63 2 1.25 6.35-5.15 22.13-1.53 27.51 6.12 9.1-1.38 19.7 3.49 29.31 1.2 2.36 6.77 7.4 8.74 10.13l-3.9 7.77c-2.84-1.71.88-3.04-2.21-6.47-.51 4.1-.33 5.16.93 9.25.52 1.7-1.1 5.97-1.64 8.56 1.09 1.24.67.83 1.79 1.86l.74.66c-.02 1.08-.04 2.16-.04 3.24.03 4.02-.15 4.01 1.89 6 2.21-2.07 2.88-3.31 4.5-5.79 5.31 4.23 2.75 13.37 13.68 16.42 2.58.72 12.82 6.26 14.84 5.47l-1.67-3.7.61-.89c4.06 1.07 5.12 1.13 9.36 1.41 2.02-1.7 2.08-1.47 4.76-1.9 1.03 1.81.4.97 1.9 2.5 3.73-1.07 5.73-3.21 8.74-5.71l1.18.58-1.61 3.34.72 1.02c3.49-.36 2.1.36 4.43-1.98l-.25-4.74c5.02-3.29.7 1.7 3.81.78 1.28-.38 6.51-6.77 8.51-5.93 3.26 1.37-.39 2.13 4.98 2.27 2.31-2.9 6.59-4.22 10.02-2.99l-.13 1.52c-7.2 5.29-30.08 16.29-38.99 21.49-27.39 16.01-55.48 30.76-83.68 45.29.62-99.6-3-200.2-2.42-299.7m-896.546 109c7.906 3.28 19.189 9.66 27.058 13.83l49.429 26.31 184.82 99.56 488.35 261.89 102.813 54.65c7.88 4.23 17.926 8.15 24.866 13.64 2.52 2 1.87 4.6 1.96 7.96-37.433-18.45-74.374-39.08-111.19-58.79l-199.769-107.6-359.045-192.43a15993 15993 0 0 0-208.68-112.1c-1.824-3.37-1.255-2.3-.612-6.92m920.866-249.325 3.36-.839c1.5 1.791 1.98 2.415 3.21 4.395l2.2-.196c1.77-2.837 1.5-1.629 1.66-4.759-2.21-1.466-1.04-.915-3.5-1.678 5.99-2.878 24.86-13.952 29.46-13.269.95 3.106.42 2.677-.66 6.441l-1.04.855-2.25-3.896c-1.56 2.556-1.08 1.163-1.13 4.426l2.63 2.542c-1.32 2.787-1.39 2.564-3.99 4.328l-1.3-.61-1.08-4.533-1.44-.695-2.52 1.873 1.11 7.417-1.13 1.472-2.27-.028c-2.42-4.069.48-5.881-2.06-8.391-2.86 1.083-2.76.896-4.76 3.163-.41 6.523-.35 12.531-.31 19.058l-1.3.291c-1.42-3.735-2.48-8.965-5.23-10.466-2.72 1.42-2.52 1.752-4.08 4.52.69 3.254.96 6.418 2.44 9.38l-.62.666c-3.12-3.126-2.88-4.049-6.2-4.319-2.25 3.336-1.46 1.46-1.59 6.142l.96 1.002c1 1.054 1.55 1.674 2.45 2.778l-1.68.465c.6 3.441.21 5.3 2.24 7.092 4.69-.338 6.27 1.63 9.72 4.807-1.22 2.462-.42 1.338-3.08 2.943-2.43-1.655-1.81-1.219-3.8-3.472-2.25.286-1.48-.025-3.41 1.053.98 2.274.93 2.144 1.06 4.624-5.53 5.493-20.65 11.123-28.39 14.383-.56-13.417-.55-33.496-2.68-45.946a232 232 0 0 1 29-13.019m233.76 292.275c3.81.52 7.65 1.7 11.38 2.71l-.15.86c-12.03 7.11-106.9 61.57-113.27 59.47.32-3.66-.16-3.99-1.9-7.01l1.28-1.85c1.32.4 2.46.72 3.78 1.08 3.15-5.3-1.42-9 10.75-10.78l.58.64 2.13-1.58c6.06.28 5.68-.02 8.26-4.53l.99.05-.8 2.95.77 1.23c6.84-3.08 3.97-6.57 11.84-7.88l.81-1.44c-1.82-1.2-2.15-1.38-3.68-2.91l1.46-1.66 1.64.38c1.44 2.83 1.19 3.12 3.52 5.06 4.25-1.26 12.39-3.33 15.89-5.44-1.55-2.84-1.32-1.38-.83-4.49 2.09-2.36 2.59-3.23 5.48-4.62 1.5.92 2.92 1.9 4.3 3 .43-4.44-1.83-2.24-3.33-7.46l1.22-1.12c1.75 1.71 3.53 3.38 5.33 5.03 2.65.71 2.45.66 5.04-.28.44-2.26-2.21-1.67-2.67-5.72l7.29-2.84c1.76.83 1.9 1.03 3.27 2.35 2.36-2.62 6.45-7.81 9.23-9.22.93 3.27.13 2.71 2.08 4.52 5.42-3.4-1.96-.03 1.62-6.6zm-126.18-427.494c8.85-17.765 9.9 3.589 19.79-5.575-1.71-3.415-2.25-2.943-1.38-5.586 2.7 1.374 3 2.238 4.84 4.67l1.6.018.85-1.601c-.8-1.102-1.5-2.143-2.12-3.36 4.27-2.996 5.4.209 9.94-3.571l-.3-1.013-2.81.061c-1.06-1.647-.79-.689-.45-2.944 2.98-.186 1.9-.178 4.95.861l1.43-3.617c5.54-.098 7.64 5.56 9.76 3.661 2.27-2.029 3.04-2.519 6.26-2.673 2.85 1.07 2.02.436 4.18 2.355-5.02 6.14-65.56 32.674-75.26 35.666l-1.52-.476-.91-2.852c-1.92-.638-1.98-.722-3.97-1.031 3.84-5.677 8.64-2.558 12.8-8.392l-.88-.647-2.1.711-2.7-3.671.34-1.072 4.82.579 1 1.605.68-1.457c1.64-3.73 2.34-4.069 5.99-4.9 4.09 1.786 2.37.494 5.17 4.251m497.71 528.224c1.22 2.1 4.49 23.67 5.2 27.84-12.6 1.66-34.23.82-47.3.63-1.47-.05-3.27-.26-4.76-.4.7-1.58 41.16-24.81 46.86-28.07m-39.88-280.37c3.07-.37 4.91-1 7.5.55l-.66-.96 1.75.48c-3.57 2.82-3.28 1.7-4.22 5.27 1.8 3.02.56 2.13 3.56 3.12l.86-.81-.75-2.96.88-.74 3.54 1.36 1.77-.99c.61-6.62-4.45-1.18-.19-6.74 2.32-.98 4-1.67 6.22-2.87-2.59-.65-3.6.03-6.21.87l-1.76-.89c5.26-2.57 12.17-6.27 18.33-3.97-2.81 3.36-5.34 1.63-6.47 3.93 4.56.61 3.28 1.05 7.17-.43 1.52-2.39 1.64-2.3 2.17-5.02 2.61.74 2.88 1.25 5.08 2.93l-.56-4.53.82-.96 2.41 1.72c2.16-1.62 1.46-1.09 3.03-3.5 2.51.25 1.34-.05 3.54.85l1.61-2.56c-.94-3.77-2.29-3.71-6.39-6.49 5.82-4.47 14.19 2.08 11.36 9.92-3.07 2.93-31.06 16.7-35.97 17.3l-2-2.59-.75.69.56 2.52c-3.57 4.18-34.19 20.99-41.3 22.99-.71.2-2.18-.23-3.22-.49l-1.45-1.8c.43-3.31-.28-1.93 2.37-4.17 1.79-.11 3.38-.2 5.18-.25l.99-1.74c-2.37-2.18-3.9-2.66-6.78-3.99l.08-1.26c1.71-.04 8.11 4.35 12.98 1.8 2.42-1.27 7.57-4.22 9.85-3.45l.3-.31c1.14-.76 5.51-2.44 7.39-3.33.7-2.7-1.23-5.39-2.62-8.5m-245.21 134.1c4.72 1.05 5.16 1.9 8.87 5.29-10.25 6.23-72.9 39.73-81.49 41.61l-.48-1.89 2.44-2.62 3.53-3.35c10.44.41 8.47-3 14.58-9.62 2.33 2.09 1.25 1.67 4.06 2.3 3.67-1.43 2.4-.55 4.67-4.69 3.28-1.54 3.18-.8 7.55-.11 7.61-2.22 5.8-8.17 9.14-10.56 2.49-1.77 6.75-1.61 10.2-5.8-.27-1.93-.34-2.7-.36-4.64 5.54-3.13 8.98-3.61 14.96-.68 3.43-.62 2.09.21 4.21-2.45l-2.06-.97zm139.07-66.19c-.01-2.77-1.05-3.52-2.74-5.81l.46-1.89c2.42-.63 3.39 0 5.84.76l.32-1.52-2.33-2.55 1.06-.9c3.06 1.23 7.28 3.15 8.64 6.26-.4 2.46.15 2.78-3.04 4.49-6.4 3.45-42.65 23.5-47.3 24.42 2.06-4.79 1.62-3.93 6.79-5.77l1.2-1.54c-2.5-.59-3.7-.39-6.27-.3l-.69-1.14c6.1-10.18 19.71-5.91 24.29-9.9-3.06-4.22-5.33-4.06-5.81-7.28 2.88-2.18 1.31-1.57 4.83-2.01l1.9 1.01-.45 1.42-3.64 1.4 1.08 1.02c3.2-.55 3.75-1.28 5.78.02l.93 3.04c3.17-2.84 4.69-4.77 9.15-3.23m191 186.36.56 1.25c-4.54 10.76-10.55 23.91-16.5 34l-1.38.11-4.57-21.5c7.42-5.44 14-9.22 21.89-13.86m-277.3-145.44c1.81 2.12 1.92 2.89 2.96 5.46l-.48 1c-9.58 4.47-37.63 21.69-44.43 22.38l-.01-2.97c-1.48-.2-1.87-.08-3.31.22l-.11-2.04c.32-.65.91-1.14 1.39-1.68l1.95 2.03 1.8-2.61c13.32-3.39 14.58 1.82 19.13-13.18 2.46-8.13 14.13-.35 18.02-.94 1.98-3.1 2.12-4.21 3.09-7.67m111.53-60.46c3.63-1.36 5.19-1.21 9.09-1.19 2.41-4.86 2.52-7.65 5.77-12.38l1.41.03c1.17 2.79.94 2.99 2.79 5.19l1.88-4.02c3.43-.02 3.73.73 7.04 2.52 3.58-1.35 3.91-2.29 6.18-5.33.21-1.62.28-2.17.95-3.7l1-.01c1.98 1.77 4.08 2.97 4.64 5.07-6.47 4.4-13.37 8.3-20.14 12.25-2.07-1.29-1.13-.63-2.21-3.91-11.52 18.1-8.65 8.76-18.4 5.48m-363.57 188.81c4.43.65 8.05.73 9.03 5.3-3.19 5.84-20.86 14.21-27.22 16.92-.29-2.6-.4-2.48.37-4.94 3.73.57 4.64.66 6.6-2.32l-1.08-3.93c1.1-1.52 13.83-4.43 18.17-6.33l.13-1.57c-3.6.64-3.6 1.33-5.85-.15z"/><path fill="#FEFEFE" d="M1129.9 840.832c5.58-5.732-.25-7.844 2.17-14.329 4.29-.405 4.37.489 8.95 2.476-1.33 6.889.82.085 2.3 5.629-3.12 3.532-8.34 4.422-13.42 6.224m413.16 271.378.82 1.44c1.01 1.73 1.63 2.65 2.78 4.26l-.34 1.55c-2.37 1.22-4.63 2.39-7.04 3.54-2.41 1.88-3.65 3.24-6.66 3.7l-1.2-1.28c-.69-4.85 1.1-9.17 6.25-10.06l1.42 2.38 3.01-.27c-.74-3.72-1.04-2.02.96-5.26m-81.52 43.01c3.57.48 1.14 1.67 5.44.56l.56-2.99c1.88-1.59.8-1.13 3.25-1.37-.18 2.56-.34 1.64.62 4.04 4.75-1.43 3.38-1.78 7.33-.45-2.92 3.31-12.74 10.3-17.34 7.16-.85-3.52-.64-3.54.14-6.95m-233.21-370.941c2.46 1.163 1.71.739 3.79 2.573-2.13 2.271-1.49.981-2.09 3.971 7.13 3.181 4.63-4.28 11.47-6.02 2.83 1.396 2.59 1.494 4.24 4.275-4.83 1.562-16.39 7.634-19.61 6.395l1.3-1.865c-.44-2.176-.86-3.444-1.8-5.457zm-144.56 515.681c3.44 4.71-.13 11.04-.38 19.2l-.02 1.17c-2.93-5.1-4.99-4.61-6.26-10.77.92-4.5 3.37-6.09 6.66-9.6m9.92-170.51c4.54.67 3.39-.12 6.61 2.44 1.2 3.42.97 3.51.51 6.98-1.02.06-2.04.1-3.06.13-3.96.06-3.8-.11-5.96-2.19-.42-3.11.59-4.49 1.9-7.36m-8.76 475.09c2.49 1.28 3.93 1.68 4.3 4.34-2.72 1.5-1.36.9-4.93.89l-.74 2.08c-1.36 2.41-.76 1.66-2.81 3.43l-1.09-.84c.14-5.25 1.47-6.73 5.27-9.9m-16.9-809.863 1.67 1.471c1.8 4.333 1.31 7.528 1.21 12.253-2.29-5.433-2.92-7.93-2.88-13.724"/></svg>