<svg xmlns="http://www.w3.org/2000/svg" preserveAspectRatio="none" style="display:block" viewBox="0 0 2048 1462"><path fill="#fefefe" d="M0 0h2048v1462H0z"/><path d="M1369.6 155.409c36.45 1.252 57.24 7.377 85.68 32.899 29.64 26.588 46.9 77.063 47.9 116.476 25.06-.085 45.05.425 68.05 12.484 73.13 38.346 150.32 216.383 174.45 294.208 29.6-57.76 50.1-137.859 127.03-142.106 16.67.148 41.14 15.098 52.08 26.614 46.4 48.829 23.66 105.5 7.51 158.183l-34.66 113.25a5311 5311 0 0 1-35.18 115.141c-16.06 50.767-17.37 66.724-55.67 106.107 1.82 14.175 1.44 34.815 3.08 50.935 5.8 52.66 21.1 103.83 45.16 151.03 11.09 21.76 24.8 45.44 39.8 64.65 3.96 5.06 42.21-5.11 48.04 7.07 2.19 49.39 3.91 45.19-38.83 45.03l-76.06.13-271.14-.15-1065.58.56-223.634-.3c-13.929.03-156.234 1.88-160.391-1.13-3.729-7.22-2.544-36.03-3.153-46.49 6.771-6.87 38.684-4.03 49.385-3.74 6.327-6.99 14.188-19.49 19.285-27.55 40.84-64.55 67.276-162.43 70.263-238.46-10.266-11.452-28.598-25.06-35.776-40.821-11.526-25.305-19.924-57.142-28.149-84.067a8442 8442 0 0 1-46.667-154.728l-20.998-70.873c-5.206-17.37-10.214-33.006-13.751-51.004-12.2-62.082 32.432-135.33 102.578-113.683 52.514 16.206 70.329 74.303 93.15 118.187 1.895-4.553 3.709-10.383 5.242-15.153 17.583-54.724 42.619-104.907 70.91-154.844-8.614-22.513-10.732-41.108-1.953-64.198 22.9-60.227 91.333-53.693 129.517-87.916 34.525-31.711 44.137-81.865 90.46-100.768 36.048-15.131 65.355-11.369 101.673 1.029 51.976 17.744 89.28 76.841 67.984 130.449-4.706 11.847-13.968 23.042-19.841 37.85 1.333 3.723 6.562 17.221 5.704 20.06-3.257 10.782-22.903 6.753-26.711 9.93-8.906 20.906-27.425 34.402-46.658 44.48 4.645 10.934 12.134 24.852 17.539 35.696a4039 4039 0 0 0 33.805 66.903c6.378 12.331 16.088 29.83 21.104 42.312 7.532 2.918 34.376 4.847 43.853 5.73a3708 3708 0 0 1 70.322 7.288c11.004 1.155 30.982 2.68 41.14 4.808a76.6 76.6 0 0 1 17.559 5.963c12.888 6.263 34.113 24.497 46.23 34.103 4.919-.643 34.862.169 41.449.196 34.35.345 68.71.245 103.05-.301 10.34-8.938 36.47-32.973 47.97-35.37 55.3-11.527 119.88-26.216 175.64-32.847 3.61-12.658 7.01-25.414 10.71-38.04 9.63-32.862 21.94-65.248 33.82-97.363-31.87 3.621-47.03-12.451-66.53-34.181-30.87 14.344-22.29-20.988-32.25-36.688-10.39-15.976-29.07-30.323-30.43-51.243-1.93-29.467 12.59-63.489 29.73-86.785 23.47-31.902 57.78-43.981 95.16-48.952"/><path fill="#fefefe" d="M725.196 715.623c23.87 2.272 58.423 1.802 82.81 1.825l125.774.518 546.54 3.216c45.36.422 90.86-.206 136.16 1.669.85.035 11.04 26.627 12.24 29.832 19.1 51.156 43.86 101.23 62.41 152.46-7.63-2.675-23.54-10.676-31.55-14.4a2421 2421 0 0 1-77.69-37.721c-10.73-5.471-42.39-21.793-52.72-23.95-8.46-1.767-44.18-.345-55.87-.337l-202.5.443c-15.02-.03-30.05 1.022-45.21.249-6.67-.339-8.56 1.094-15.81-.357-13.73 1.775-56.78.487-73.46.507l-158.379.008-453.711-.486c-9.336-21.059-23.813-71.237-33.62-94.263l-2.283-1.354c-11.626 3.244-1.124 19.565 1.558 27.599a1543 1543 0 0 0 25.244 71.732c-12.293 3.812-45.083 20.821-58.535 27.408l-93.455 45.246q27.475-67.666 55.81-134.975c3.114-7.503 17.024-43.785 20.669-48.87 15.986-7.636 252.062-4.384 285.578-5.999"/><path d="M1554.7 742.461c3.68.469 5 2.327 6.37 5.291-.15 8.767-11.69 55.284-14.57 66.534-1.19 1.245-2.21 2.306-3.05 3.181-1.29-.351-2.57-1.027-3.82-1.596-6.32-8.47 9.24-56.085 11.01-68.157.17-1.149 3.16-4.333 4.06-5.253"/><path fill="#fefefe" d="M997.281 842.554c8.449 1.099 22.989.843 31.879.885l58.58.053c6.39.032 24.41-.283 29.74 1.715 2.12 6.473 6.23 67.683 7.07 79.39 5.31 73.116 12.42 146.923 17.03 220.023 2.08 32.74 4.43 65.47 7.04 98.18.72 9.53 2.16 37.12 4.02 44.6l.28 1.08c-4.61 4.47-87.35.48-99.17 2.4-37.93-1.48-78.152.74-116.227.15-8.941-.14-30.794 1.61-38.685-.78-.715-13.26 3.501-38.04 4.474-52.43 1.884-27.85 4.165-55.91 6.593-83.72l13.138-167.786c3.83-46.107 9.274-97.698 11.876-143.298 20.33-.154 42.348 1.602 62.362-.462m-824.399-358.26c9.644 1.846 17.927.188 28.997 4.745 41.331 17.016 69.806 86.277 85.688 126.146a73 73 0 0 0-1.414 3.811c-9.181 27.385-49.522 213.163-46.699 229.496.125.722.979 1.965 1.33 2.667 1.26.593 6.08 2.858 6.178 4.19 1.855 28.431-1.65 52.064 14.194 77.641 21.969 35.463 59.955 31.153 96.586 38.361 48.291 9.501 99.215 14.958 147.436 25.838-12.185 2.921-18.698 4.161-31.04 5.801-54.589 4.1-118.947 14.04-172.963 2.92-24.337-5-69.639-38.674-81.799-60.947-8.385-15.36-17.547-50.339-23.205-68.767a9338 9338 0 0 1-38.727-127.41L125.652 641.67c-4.199-14.358-8.125-29.006-12.308-43.308-13.963-47.734 4.609-106.244 59.538-114.068m1694.218.082c2.73-.253 8.49-.176 11 .346 57.18 11.887 70.16 73.511 54.7 122.337-4.13 13.039-8.51 28.735-12.76 42.604l-33.52 109.107-34.51 112.225c-13.97 45.472-20.67 82.246-61.48 112.528a144.53 144.53 0 0 1-72.92 27.247c-33.85 2.58-73.02-1.45-107.23-.62-9.59.24-24.22-.12-33.5-1.5-14.6-1.44-26.32-8.63-39.16-15.349 15-.203 43.6-4.641 59.87-6.331q39.06-3.729 78.03-8.241c64.81-7.088 123.62-13.203 133.12-97.737 2.61-23.232-2.7-56.755-7.5-79.898-11.66-56.243-27.09-117.319-47.4-171.205 23-53.11 46.42-136.802 113.26-145.513M466.253 423.259c16.598 1.203 35.066 1.527 51.743 1.897 8.158 9.839 18.159 29.669 24.588 41.453 24.843 45.543 48.878 91.531 76.373 135.568 2.208 3.536 6.679 4.355 10.617 4.787 17.72 1.947 35.526 3.401 53.286 5.04a4624 4624 0 0 1 90.549 9.16c8.064.85 15.516 4.865 22.751 5.584 17.174 1.706 64.877 61.485 78.459 76.737l-1.088.752c-17.209 2.761-52.632-71.138-67.74-57.499-1.879 10.605 35.114 42.29 43.508 56.036l-.421 1.014-5.822.782c-17.689-2.917-32.519-33.594-47.712-43.807-1.817-1.221-3.87-2.044-6.066-1.548-2.325.525-2.36.939-3.52 2.861.797 12.613 29.204 33.021 31.775 39.999-21.351 11.281-49.815-13.989-62.404-8.679-2.544 2.794-1.95 1.412-2.476 5.077 1.812 3.196.731 2.26 3.899 3.856-7.329 1.293-26.404.356-34.511.133a6470 6470 0 0 1-69.082-2.334l-62.94-2.116c-37.937-1.368-67.509-.443-89.831-37.429-8.341-13.821-13.916-27.764-20.403-42.452a4098 4098 0 0 1-27.619-63.591c-7.071-16.614-17.164-37.679-22.228-54.621-7.133-23.865 10.19-69.95 36.315-76.66m784.017 419.323 4.42.764c-.07.246-16.81 13.198-19.16 15.285-38.98 34.545-31.78 76.941-14.27 120.141 6.4 15.803 12.96 35.418 18.7 51.778l66.94 193.7c-24.94 11.66-48.66 25.24-73.65 36.61-1.69.77-6.75.5-8.76.41-7.74.34-54.57.29-60.07-1.21-.13-.6-.25-1.2-.35-1.81-1.2-6.71-1.36-16.98-2.09-24.17-1.67-16.51-2.91-32.92-3.98-49.47l-7.66-106.17-12.86-171.209c-.63-8.924-5.9-58.717-2.53-63.525 36.99-.192 78.97 1.06 115.32-1.124m-437.1-.057c1.377.381 16.252.527 18.414.536l58.062-.115c5.698-.033 27.191-1.709 30.056 2.349-.87 2.468-4.792 70.083-5.457 78.692L895.861 1147.5l-5.367 69.54c-1.046 13.73-1.869 30.44-4.118 43.83-27.148 1.38-56.141.07-83.419.38-1.683.02-5.59-1.79-7.208-2.59-12.906-4.37-39.374-19.65-54.299-25.86 15.922-31.02 28.718-65.74 44.341-97.75 25.468-52.19 50.426-110.55 70.433-164.994 21.248-57.817-30.102-93.884-68.946-127.088a898 898 0 0 0 25.892-.443M419.477 1021.9c4.305-.35 5.148-1.5 7.681.37 5.991 23.29 8.08 72.76 10.197 97.64 1.546 18.16-.279 127.73-8.132 136.47-12.482 1.56-46.61.23-60.323.35-28.886.24-59.232.86-87.957.22-7.773-.12-15.546-.16-23.32-.13 34.016-44.46 56.907-120.83 67.34-175.34 2.773-14.48 8.46-43.15 9.076-57.66 26.083-1.62 58.102-.67 85.438-1.92m1212.673 1.65c5.68 1.01 18.36.49 24.57.58 18.43.26 37.33-.6 55.74.07.47.38.93.77 1.39 1.15 1.65 15.85 5.42 36.31 8.01 51.46 7.3 42.8 19.68 90.98 38.97 130.02 4.26 8.83 8.91 17.46 13.92 25.89 2.76 4.59 12.37 18.93 13.62 22.71-4.04 2.71-20.66 1.3-26.59 1.41-6.4-1.26-45.58-.61-53.38.08-21.98 1.97-68.71-3.48-87.56 2.26-17.08-69.02-10.88-165.92-2.28-235.6z"/><path fill="#fefefe" d="M637.58 406.909c5.553 1.72 10.8 3.572 16.278 5.519 7.481 15.357 76.702 154.236 82.208 157.203 9.476 5.106 81.535 10.161 97.675 11.878 16.843 1.792 57.392 4.063 71.563 10.003 24.852 10.418 48.247 38.179 66.636 57.756 3.258 3.468 8.279 6.742 10.073 11.122l-1 1.69c-3.159 1.115-6.684 1.892-9.162-1.048-6.304-7.484-50.084-60.69-59.753-49.609-1.837 11.388 17.749 20.043 24.254 27.853 4.094 4.914 17.72 17.095 19.647 22.113-2.164.648-13.297-.249-14.528-1.587-10.112-10.995-21.872-24.215-35.154-31.462-3.051-3.375-2.225-3.57-5.812-4.347-3.005.929-3.637.859-5.368 3.253-.106 7.159 6.765 12.004 11.997 16.167 7.922 6.306 14.459 12.184 21.369 19.601-9.823-.357-19.395-.194-29.219-.077-13.715-9.281-35.356-19.409-50.817-25.416-6.646-2.582-15.132-4.502-21.761-7.059-10.017-3.865-18.713-13.86-29.463-16.877-19.234-5.399-40.96-6.883-60.735-8.764l-57.892-6.011c-16.504-1.569-33.814-2.562-50.134-5.05-6.312-9.418-10.777-16.894-15.35-27.215 10.488-18.667 16.912-42.783 26.52-62.339 1.803-3.671 1.936-6.849.339-10.57-2.812-2.307-1.445-1.832-4.966-1.933-1.86.808-4.373 2.385-5.177 4.162-8.198 18.147-16.693 40.159-24.264 58.416l-1.07.334c-2.88-2.355-13.572-22.489-14.189-26.482-.544-3.525 2.251-23.456 3.013-27.68 5.282-29.291 2.454-44.505 24.425-67.126 3.267-3.364 16.145-20.436 19.108-25.252zm723.55 187.317c2.85-.669 2.75-.794 5.37.322.78 1.111 1.78 2.722 1.88 4.035.93 12.479 22.31 104.079 19.34 108.712-9.08.96-20.02.451-29.34.422l-48.02-.139c-12.56-.052-140.75-.953-143.53-2.151l-.43-1.511c5.49-10.445 34.66-22.461 32.6-32.468-12.2-9.364-41.63 22.432-49.74 30.034-7.52 7.053-8.57 5.866-18.91 5.365l11.43-12.638a173.5 173.5 0 0 1 22.03-21.303c5.36-4.277 11.6-8.81 16.69-13.461 1.75-1.605 1.13-3.483.93-5.683-13.03-15.071-58.91 44.748-69.87 53.734-2.98-1.041-4.47-.872-7.67-.958.3-1.635.96-3.682 2.04-5.043 18.15-22.844 51.69-59.555 77.58-71.999 14.33-6.889 49.77-11.484 65.73-14.485 37.34-7.024 75.11-12.362 111.89-20.785m28.32-326.184c14.08-.267 16.82 4.66 24.62 15.443 1.92 19.264-3.25 17.37-14.78 28.991-.45 3.138-.81 1.779.88 4.26 9.79 4.471 14.05-4.131 20.14-6.057 1.1-.348 8.42 4.932 10.58 6.199 18.86 11.055 36.27 9.868 56.75 6.618-11.59 33.07-32.22 63.192-50.1 93.917-3.95-5.32-20.31-23.957-21.4-26.489l2.14-3.464c.37-3.735.61-5.741-2.81-7.43-7.73 1.181-12.43 8.32-19.54 13.688-38.34 23.408-60.8-.174-84.94-29.16-7.15 2.655-7.8 3.241-14.33 7.811-3.12-8.273-5.01-23.602-8.17-30.665-11.01-24.663-19.9-15.719-16.18-48.335.44-3.806.52-9.546 3.64-12.096 8.4 5.704 11.71 10.392 21.61 13.258 26.88 7.783 49.94 8.57 75.13-3.918a66 66 0 0 1 2.74-9.459c2.92-7.846 7.05-9.926 14.02-13.112"/><path d="M1298.19 316.629c11.8.167 18.67 9.567 10.45 19.782-13.23 2.274-18.81-10.425-10.45-19.782m40.51 49.186c5.56.843 8.25 1.186 8.95 6.993-1.37 4.012-2.78 4.967-5.81 7.786-4.71-.586-6.72-1.02-8.16-5.585.61-4.237 2.37-5.785 5.02-9.194m-46.28-67.307c3.8 1.931 3.32.984 5.14 4.113-.47 4.39-4.82 9.494-7.56 13.609-1.89-.35-2.49-1.001-4.18-2.057-2.48-6.761 1.75-11.45 6.6-15.665"/><path fill="#fefefe" d="M615.858 271.291c26.125-2.923 12.434 25.398 29.663 29.288 20.65 4.662 46.42 2.911 65.773-6.029 6.143 4.33 6.889 5.831 14.871 4.444 2.498-7.135-3.995-3.603-5.656-9.136 3.829-3.948 11.629-6.436 19.035-13.488 3.476 23.509-6.828 39.66-13.517 61.178-1.473 4.739 2.473 14.345.85 18.46l-2.136.699c-23.555-6.643-24.645 33.34-56.001 43.11-24.004 2.382-36.969-15.94-46.196-15.851-3.469 1.717-2.634.708-4.308 3.713.531 4.412 2.198 6.021 5.033 9.323-4.098 2.78-9.415 5.784-13.207 8.735-10.329 8.037-16.987 14.637-28.594 21.071-6.234-7.253-10.037-12.966-14.73-21.136 29.543-20.825 51.104-56.153 54.665-92.354-12.504-3.93-16.283-5.641-21.667-18.284 2.012-12.811 3.183-18.778 16.122-23.743"/><path d="M704.81 308.768c15.188-.342 11.96 11.18 6.255 20.319-3.204.688-3.312.658-6.538-.194-7.011-5.03-4.008-14.244.283-20.125m-34.04 46.652c4.311.546 12.299 4.679 15.095 8.21 1.774 2.241.814 4.927.42 7.695-11.58 1.943-20.767-3.61-15.515-15.905"/><path fill="#fefefe" d="M970.621 629.044c8.711 1.685 21.891 1.104 31.239 1.384 29.77.892 60.94-1.032 90.57.704-6.75 7.347-28.04 28.65-33.17 37.716-.68 1.204.31 1.899 1.29 3.272 7.07 3.232 40.26 1.727 50.49 1.936-5.77 7.755-19.46 27.387-26.52 31.924-23.37.219-46.91-.531-70.25.02l-74.28-.857c-14.199-.137-33.455.326-47.165-1.12-8.65-7.076-19.603-20.959-26.751-30.024 14.525.829 35.579-.095 50.85.026q28.801.462 57.607.249c5.453-.003 22.13.45 26.249-.497.51-1.011 2.26-4.004 2.02-4.68-3.706-10.54-25.258-32.91-32.179-40.053m434.529 598.586c16.73 3.21 102.8-1.84 111.61 1.64 2.83 6.22-1.3 38.16 1.54 47.9 2.76 9.43-27.59 6.02-32.52 5.88-6.79-.18-16.57 2.08-24.18.27-2.27-3.43-.8-6.6-2.21-12.2-2.42-2.81-1.21-1.95-4.9-3-7.5 2.09-3.18 6.87-8.19 14.44-2.91 1.5-2.75 1.42-6.05 1.33-11.7.36-26.99-.78-39.1-.82-34.75-.11-70.79-1.36-105.41.32 20.93-19.92 37.44-29.81 63.14-42.91 7.23-3.68 15.17-8.22 22.99-10.63 8.05-2.48 14.82-1.32 23.28-2.22m-882.749-3.26c37.024 4.42 73.353 1.23 110.389 5.51 1.676.41 12.565-.75 13.395-.24 10.682 6.52 80.443 38.46 84.502 44.9l-.355 1.57c-3.89 1.9-19.501.85-24.358.61-6.861 1.19-112.798.75-118.395-.3-2.665-1.82-5.043-17.76-16.447-9.08-2.117 3.41-1.938 5.57-2.29 9.58-17.311 0-34.627.61-51.92.28-1.8-17.67 1.293-35.69 5.479-52.83M255.196 998.486a540 540 0 0 1 26.133 14.934c.212 1.03.572 3.2.459 4.15-9.386 80.12-30.641 162.86-74.916 231.15-5.276 8.13-12.065 17.87-18.51 24.74-5.442 3.27-12.342 4.97-17.655.24-9.153-8.16 2.697-22.63 7.831-30.38 36.718-55.43 57.316-119.98 68.954-185 3.2-17.91 6.953-41.51 7.704-59.834m1536.764.424c1.6 1.92 1.93 3.4 1.98 6.04 1.52 80.99 27.51 158.79 69.28 227.7 4.89 8.06 15.31 19.47 17.53 28.31 2.36 9.4-10.91 21.25-19.69 12.12-56.65-71.49-89.8-170.66-95.26-261.24 9-4.14 17.59-7.93 26.16-12.93m-1325.007 17.51 3.531-.36c2.879 2.81 5.062 53.46 5.504 59.88 3.84 55.85 3.019 112.29-4.145 167.84-1.296 10.05-1.917 23.56-7.451 32.08-2.038 2.97-5.402 2.95-8.651 3.24-7.449-1.35-7.998-3.76-12.106-9.77 8.085-74.36 9.876-146.47.317-220.53-1.305-10.12-1.693-19.52-4.666-29.35 10.635-.42 17.109-1.35 27.667-3.03"/><path fill="#fefefe" d="M1331.4 561.386c13.27-2.759 37.99 2.857 43.33 16.648l-.6 1.785c-21.12 3.541-65.39 11.535-84.08 14.929l-59.16 10.651c-35.89 6.39-61.45 10.596-89.87 35.801-6.07 5.378-19.7 22.424-27.77 19.845l-.41-1.56c6.29-6.871 32.92-31.546 40.71-36.232l2.09-1.876c.41-1.405 1.01-3.635.31-5.207-6.56-14.741-17.73 4.103-25.43 8.833-7.89 4.847-31.64 33.285-37.81 35.649a12.1 12.1 0 0 1-9.11-.101c4.1-11.003 57.66-61.267 72.14-66.677 15.48-5.784 47.89-10.608 66.24-13.766 35.2-6.058 74.27-14.795 109.42-18.722m251.37 458.854c6.32 3.28 15.73 2.61 22.93 2.57-13.12 84.09-10.93 165.44 3.02 248.04.28 1.67-4.15 3.49-5.69 4.33-1.7 1.23-8.27 1.59-10.63 1.58-5.22-.02-6.16-1.2-9.69-4.71-16.45-72.41-15.94-161.66-6.34-235.37.86-6.6 1.31-12.56 6.4-16.44m-1287.271-2.7c5.531 2.32 20.397 4.79 27.021 6.06l-.145.53c-4.249 16.15-5.619 32.19-8.927 48.47-12.774 62.85-29.179 121.71-65.094 175.63-4.904 7.4-14.801 7.65-19.307 1.55-5.225-7.08 9.217-29.51 12.97-37.04 31.407-62.99 41.934-127.18 53.482-195.2m1455.771-.56c.76.24 1.18.84 1.86 1.49-.02 8.27 2.01 24.16 3.1 32.44a511.1 511.1 0 0 0 47.59 156.3c4.89 10.19 21.52 35.06 23.14 41.97-6.02 2.97-15.5 2.11-22.33 1.9l-1.44-.15c-5.36-6.28-11.34-16.65-15.79-23.9-37.51-61.19-52.85-134.17-60.02-204.75 10.62-.47 14.06-1.21 23.89-5.3m-213.94-9.71c11.68 5.66 16.65 7.96 28.76 12.08-13.56 89.29-13.52 150.12-.14 238.92-9.19 1.4-9.48 1.74-18.02-1.68-13.5-49.23-19.36-125.85-16.54-176.33 1.37-24.52 4.51-48.77 5.94-72.99m-1027.414 1.8 2.291.72c5.142 11.52 3.317 66.72 5.27 83.12-.892 8.33 3.498 39.87 1.721 45.8-3.32 11.09-21.137 68.47-26.864 76.07 1.539 1.75 10.849 9.09 10.868 8.54-.307 9-2.28 24.7-5.144 32.93-3.142.53-3.955.46-7.177.34-2.842-.1-4.561-.31-7.377-.73-.514-2.64 2.254-22.76 2.803-27.6 7.474-66.09 4.778-130.34-1.029-196.46-.282-3.2-.614-12.18-.615-15.24-.001-2.81 20.776-6 24.296-7.17zM1606.04 465.369c1.72.896 3.42 2.114 5.05 3.198 1.31 4.584-8.18 20.213-11.14 26.186-27.95 56.336-53 114.07-75.03 172.976 3.61 3.191 11.66 7.839 16.17 10.743 16.51 10.416 33.18 20.6 49.98 30.549l-65.63-.462c-11.41.726-62.17.145-72.15-1.072 14.35-2.369 47.91-6.781 54.07-19.674 10.05-21.017 18.39-49.77 27.45-71.566a1618 1618 0 0 1 71.23-150.878m-269.96 377.145c2.81-.305 5.94-1.097 8.23.277-.85 4.04-34.8 26.208-41.56 33.688-26.5 29.305-16.53 54.957-6.58 88.028 6.04 20.09 11.91 39.543 17.83 59.143l40.78 135.69c3.9 12.94 15.7 48.21 15.81 60.27-2.62.56-4.52-.42-6.58-1.74-6.37-9.38-28.13-90.92-33.38-106.92-18.06-54.84-33.8-110.56-49.72-166.028-7.9-27.495-7.14-50.995 13.92-72.538 6.68-6.835 32.68-29.649 41.25-29.87m-635.626.443c28.506 17.81 64.116 49.021 73.842 81.931 4.404 14.902 7.63 31.471 4.274 46.902-10.711 49.25-34.328 97.03-53.731 143.41l-26.043 61.25c-4.166 9.76-8.645 21.91-13.459 31.04-2.437.36-2.91-.2-5.446-1.1-1.347-2.46-1.275-3.05-.513-5.79 2.909-10.48 8.619-21.64 12.752-31.85 17.828-44.04 76.955-167.63 78.409-205.687 1.825-47.794-26.027-77.67-62.305-103.768-7.25-5.215-18.643-10.064-24.479-16.564-.16-.179-.31-.366-.464-.549 5.364-.013 11.758.466 17.163.775m789.066-476.179 4.52 1.248.93 1.675c-1.22 8.39-11.35 18.703-15.73 26.448-17.65 31.239-33.51 63.277-48.97 95.633-10.67 22.315-19.13 45.089-29.38 67.528-3.28 7.193-4.54 15.331-8.16 22.679l-1.26.393c-3.93.184-4.23.855-7.18-.979-.12-.403-.76-2.535-.59-2.985 18.97-51.679 42.82-103.796 69.23-152.044 11.08-20.228 22.65-44.287 36.59-59.596M526.278 1003.26c2.337 1.23 6.042 3.05 8.655 3.29 30.043 2.8 22.89 28.61 16.367 49.11-3.928 12.34-9.541 26.04-13.527 39.11-1.269 4.31-4.874 13.05-7.233 16.73-.324-1.03-4.479-102.24-4.262-108.24m144.866 220.36c6.203 1.32 17.082 4.78 23.022 6.57 5.537 1.67 27.404 6.2 30.957 8.26 9.785 5.69 67.385 30.82 68.717 36.07-1.934 2-4.535 1.92-7.392 2.28l-39.31-.33c-2.184-1.88-3.901-7.28-5.083-10.22-10.95-7.88-69.417-34.94-71.861-39.18zm682.456 3.7.3 1.88c-6.19 3.82-14.81 6.61-20.21 9.98-18.04 11.28-34.93 21.34-48.66 37.73-7.91.91-40.58 1.44-48.96.69l-.39-1.02c21.44-15.54 56.62-29.5 80.19-43.24 1.24-.72 15.78-4.63 18.31-5.31 4.12-1.11 14.11-.04 19.42-.71m156.59-230.76c6.68-.855 10.82-2.477 15.41 2.947.06 2.333-1.32 18.173-1.93 20.253-4.04 13.65-2.34 78.5-7.1 87.54-1.67-10.52-18.94-105.13-17.63-108.245 3.15-2.095 7.31-2.068 11.25-2.495m143.18-217.1c43.94 5.184 88.5 5.336 131.56 17.299 2.31.642 3.17 4.6 3.88 6.544-1.71 1.319-1.09.901-3.24 1.588-34.6-5.949-68.92-11.082-103.98-13.594-15.05-1.079-25.15 5.835-28.22-11.837m-1153.69-96.6c4.104.92 8.69 5.816 12.192 8.529 8.207 6.361 15.27 9.993 24.957 13.848-12.679-1.415-24.251-.943-36.929-.091-12.192-.331-21.434 1.303-35.198.329 11.154-6.484 25.352-14.188 34.978-22.615m344.282-34.26c6.763 1.086 24.003 10.357 30.329 14.222l-14.764.557c-4.949-5.266-10.223-9.928-15.565-14.779"/></svg>