<svg xmlns="http://www.w3.org/2000/svg" preserveAspectRatio="none" style="display:block" viewBox="0 0 2048 1462"><path fill="#fefefe" d="M0 0h2048v1462H0z"/><path d="M934.774 52.469c1.093-.185 2.109-.385 3.22-.366 53.188.934 92.216 15.595 131.066 51.102 5.92-4.305 13.55-8.227 20.38-10.995 122.93-49.809 196.69 46.139 239.01 147.325 11.86-5.815 24.82-6.68 37.85-6.64 51.32.18 100.4 21.043 136.14 57.87 33.09 33.485 50.18 70.66 58.85 116.548 3.3 17.491 5.17 24.496 5.04 42.555 45.05 2.083 80.36 13.848 116.33 41.121 76.1 57.703 109.76 168.473 46.81 249.229 35.3 43.108 48.25 70.766 58.31 124.913a193 193 0 0 1 18.92 23.622c26.83 38.803 37.38 74.007 28.88 121.047 3.32 2.55 8.3 5.9 11.86 8.01 67.26 39.87 77.36 111.38 25.02 169.77-41.28 46.04-93.81 75.13-154.05 89.68-16.05 3.87-31.75 7.84-48.54 8.93a93.5 93.5 0 0 1-57.05 40.68c8.5 14.15 7.22 19.82-6.8 28.16 28.71 2.3 199.16-7.64 213.43 1.83 2.34 1.56 2.91 2.36 3.55 5.03-3.72 7.73-32.86 8.2-40.85 8.51-30.52 1.21-61.06 1.18-91.6 2.14-99 2.69-198.02 4.37-297.06 5.05-29.13.41-58.41.14-87.55 1.04-10.88 1.33-22.71 6.93-33.37 10.39-56.56 18.37-112.12 13.38-170.3 13.11-44.49-.2-92.32 4.79-136.697-.57-10.443-1.27-12.197-6.57-24.752-5.43-21.054-.21-42.138-.43-63.191-.26-17.973.14-110.923 4.32-119.639-2.92-2.435-2.03-2.575-3.59-2.71-6.51 1.589-4.21 2.94-5.16 6.126-8.17-28.604.47-57.652-.79-86.303-.84-30.011-.06-60.069-.62-90.082-.72-11.884-.04-23.869-3.18-35.592-3.17L289.071 1376c-23.693.07-152.638 2.81-162.91-14.57.45-7.52 10.156-10.21 16.551-10.04 16.385.43 32.787 1.39 49.17 2.07q38.439 1.395 76.9 1.74c11.66.15 23.143.06 34.797-.16 69.927-1.31 139.777-.45 209.705-1.38-9.688-8.04-15.024-12.87-22.672-23.26-37.094 5.75-71.855 9.28-109.259 4.38-99.753-13.05-151.689-75.1-139.476-175.99-117.85-90.59-131.369-224.112-39.707-337.943 13.918-17.284 26.672-28.362 43.951-42.34-.439-37.998 4.723-69.807 28.842-101.197 23.112-30.079 62.793-52.107 100.349-56.972-24.984-35.769-40.797-81.307-38.803-125.131 4.309-94.699 97.126-165.311 188.66-159.102-.566-29.233-.656-48.864 10.618-76.766a158.34 158.34 0 0 1 84.702-86.876c53.535-22.517 102.922-12.568 154.358 8.472 23.524-73.644 80.351-127.001 159.927-128.466"/><path fill="#fefefe" d="M1124.43 609.584c44.09-4.318 100.09 5.061 130.95 38.751 41.84 45.672 60.46 117.092 78.86 174.919l58.58 186.446c25.05 77.87 56.22 151.93 83 228a574 574 0 0 1-78.51 27.69c-.66-8.89-1.33-17.74-4.18-26.24-12.71-37.93-29.6-76.37-44.98-113.33a6818 6818 0 0 0-91.16-211.81l-26.19-56.77c-3.88-8.394-11.57-23.805-13.92-32.197 4.95-11.014 16.22-42.12 8.12-51.879l-1.72-.068c-3.93 4.066-8.07 31.36-11.53 41.77-4.33-4.978-9.74-14.98-13.8-20.998-13.13-19.921-35.31-35.055-59.33-38.777-79.44-12.308-113.53 87.822-124.01 146.185-2.04-3.879-3.55-7.884-5.07-11.988-7.93-21.47-16.417-41.723-27.37-61.823-18.411-30.592-34.691-54.978-71.07-67.565-21.312-7.374-47.88-4.053-67.759 6.15a73.47 73.47 0 0 0-27.943 24.622c-12.589 18.796-18.45 40.398-24.329 61.893-22.628 82.735-28.15 167.035-30.855 252.355-.713 22.5 1.321 49.8-.034 70.85-.432 6.72-17.632 49.07-21.026 58.04-4.882 12.9-8.731 27.03-13.061 40.2-33.103-2.52-65.431-16.9-94.751-31.73 8.029-27.22 17.523-51.74 26.436-78.31 8.605-25.66 15.718-52.23 24.903-78.03 7.589-20.46 11.497-44.43 19.101-64.62 21.902-58.163 41.305-116.89 61.518-175.616 5.396-15.678 15.217-29.944 21.468-45.11 13.706-33.256 27.059-67.105 45.671-98.015 18.117-28.687 50.571-61.004 78.356-80.61 15.047 29.43 34.188 59.373 68.567 68.22 7.022 14.131 12.135 23.688 25.488 33.414 31.19 22.803 73.45 10.896 94.2-20.003 19.29-28.729 18.14-60.623 12.02-92.847 4.79-.548 10.48-.818 15.36-1.169M669.75 178.395c48.76-6.264 98.814 15.489 138.302 41.949-4.323 8.953-6.154 14.313-8.445 23.951-26.232-15.901-54.453-17.46-84.33-12.635a142.7 142.7 0 0 0-94.78 58.559c-23.565 33.032-30.433 73.406-23.808 112.942-31.402 3.437-66.868 23.812-89.914 44.286-28.368 25.201-53.64 66.148-45.697 105.297 3.483 17.172 11.55 27.773 22.689 40.4a146 146 0 0 0-5.825 7.903c-13.776 20.452-15.599 44.851-10.968 68.465-16.024 29.367-21.559 62.57-10.045 94.519-8.014 2.37-17.707 5.053-24.593 9.696-24.514-14.753-43.264-23.144-72.092-26.593-31.584-3.034-69.371 5.579-96.269 22.348-1.676-66.371 38.459-111.814 101.712-129.683 11.172-3.156 24.358-1.782 35.733-4.707l1.237-2.358c.682-7.061-6.671-13.098-10.869-18.68a154 154 0 0 1-16.743-27.713c-18.186-38.329-28.766-87.243-12.862-128.756 24.031-62.727 102.755-115.098 170.681-101.863 10.402 2.027 23.391 16.629 33.309 12.74 8.911-13.198-15.276-22.874-24.008-27.906-1.403-43.785 3.87-75.066 31.837-111.177 23.716-30.621 57.468-46.946 95.748-50.984m463.89-79.106c78.5-8.347 128.17 48.991 160.14 113.426 6.17 12.425 18.75 40.923 27.64 50.57 3.93 1.199 2.69 1.433 6.05.354 2.49-2.885 2.49-4.071 3.41-7.808q5.4-1.055 10.83-1.946c43.11-6.819 91.09 8.122 126.03 33.859 50.12 36.926 68.95 92.448 78.77 151.758 3.6 21.713-8.76 46.615-21.35 63.729-7.58-1.936-12.16-2.916-19.91-4.137-3.93-.411-9.15-.529-13.18-.729-11.95-27.349-17.22-38.548-40.81-58.358-18.04-59.002-45.95-113.248-105.14-140.565-47.32-21.841-98.06-27.147-147.96-8.974-11.27-25.925-26.26-49.366-52.75-62.222-10.41-18.654-18.37-39.753-29.38-59.119-11.15-19.601-22.08-33.819-34.19-52.405 17.83-8.806 32.16-14.269 51.8-17.433M249.844 801.731c2.058 1.991 9.792 22.826 12.747 27.999 4.216 7.381 4.831 9.16 10.73 16.554a131 131 0 0 0-.818 29.475c4.15 54.024 36.286 97.14 76.287 131.381-50.396 27.92-76.987 63.72-97.858 117.33l-4.915 14.39c-118.293-96.19-106.136-240.025 3.827-337.129"/><path fill="#fefefe" d="M980.093 468.626c19.467 22.487 49.617 53.4 82.047 32.871 19.39-12.278 38.74 2.403 34.56 23.863-2 10.275-7.23 13.645-15.2 18.884 11.87 34.209 19.14 68.602-3.68 100.124-13.5 18.652-28.54 27.862-49.52 35.928l-.88.263c-85.346 25.24-115.056-62.73-133.192-126.487 39.875-24.539 60.621-47.125 85.865-85.446"/><path d="M1025.58 518.382c4.22-.899 9.44-1.563 10.85 3.182-5.07 11.685-33.28 9.692-43.681 9.055-5.257.693-11.94-1.126-10.262-7.658 5.594-4.548 31.413-2.976 43.093-4.579m-74.9 16.11 3.817.365c2.869 2.062 1.938 1.085 3.27 4.832-1.176 14.533-30.253 23.785-42.39 26.691-3.453-.466-5.006-.954-7.016-3.577.416-6.068 23.985-10.659 29.99-15.875 4.828-4.193 8.102-7.721 12.329-12.436m-13.284 37.282c13.94-.189 20.381 17.348 10.956 28.188-16.871 1.155-18.593-17.839-10.956-28.188m77.914-23.866c13.48 3.851 18.93 16.748 9.61 28.233-10.09.617-14.45-7.132-14.92-16.453-.31-6.123 1.36-7.587 5.31-11.78m14.94 76.789c3.92.577 2.61-.209 4.8 2.707-.16 9.817-22.5 13.062-30.18 13.555-4.03-1.426-3.2-.49-5.438-3.427 1.948-5.124 14.958-4.634 20.748-7.167 4.5-1.972 5.96-2.935 10.07-5.668m-55.401-56.284c2.628.876 4.809 1.086 5.908 4.195 2.361 6.683 9.278 27.374 7.474 33.296-2.67.153-4.735-.499-5.954-2.931-3.565-7.109-9.152-26.966-7.428-34.56"/><path fill="#fefefe" d="M1562.72 470.087c7.25 1.293 16.85 1.999 24.39 2.904 73.7 8.849 135.29 69.633 149.87 141.762 8.26 40.831-.48 73.601-23.82 107.917l-6.2-6.647c-26.46-25.683-82.5-60.009-120.21-61.543 12.67-16.417 19.68-25.813 23.6-46.767 9.13-48.879-27.82-77.642-66-97.368 6.21-12.631 13.69-27.065 18.37-40.258M355.967 1023.61c2.556 2.16 13.178 26.99 15.787 32.21 12.91 25.83 25.907 48.63 41.915 72.79 4.111 9.59 29.87 30.18 31.77 38.21 6.715 28.39 11.154 69.42 18.232 97.18-22.434-7.29-45.305-17.84-66.587-28.02-42.865-22.74-96.664-52.88-134.074-83.87l2.424-8.43c14.675-50.35 43.735-94.43 90.533-120.07m1474.233 9.92 3.59 1.93c66.8 36.12 63.24 96.89 14.56 147.17-36.24 37.44-79.66 59.24-129.44 73.26-13.74 3.43-24 5.43-38.05 6.84.79-2.24 1.51-4.5 2.15-6.79 5.09-18.79.16-41.68-9.61-58.45 24.62-6.82 42.85-19.84 63.09-34.7 45.13-33.16 77.85-74.97 93.71-129.26M332.691 765.384c25.066-4.18 60.736 6.159 83.138 18.371-29.322 30.721-44.231 62.931-47.198 105.443-4.278 61.28 11.347 99.539 49.601 144.912-4.781 17.52-.957 54.69 2.687 72.49-2.507-3.49-5.146-7.74-7.535-11.39-11.285-18.16-40.888-73.67-43.721-93.12-52.03-48.405-86.879-83.924-77.187-160.468-8.84-10.961-13.74-16.519-18.552-30.583-2.122-6.203-4.441-14.257-7.11-20.066l-.444-.954c22.617-14.949 39.483-21.498 66.321-24.635M933.261 71.41a84 84 0 0 1 5.199-.343c38.906-1.284 87.23 17.806 115.58 44.077-25.34 17.157-45.5 46.861-61.649 72.131-32.499-24.002-62.997-32.244-103.149-27.708-36.09 8.884-50.892 20.639-73.718 48.996-7.602-7.626-18.399-11.262-27.879-19.486 4.485-5.87 11.313-21.501 15.25-28.642 7.258-13.166 14.932-25.458 24.645-36.944 29.748-35.182 61.261-47.835 105.721-52.082"/><path fill="#fefefe" d="M430.365 795.167c17.628 10.331 34.632 31.485 48.927 46.518a507 507 0 0 0-.071 9.786c.105 25.806 8.988 46.396 27.223 64.446.094 1.833.991 7.548-.781 8.27-28.539 11.625-54.265 28.876-68.618 57.997-4.864 9.368-9.562 18.976-13.176 28.886a161 161 0 0 1-3.542-4.11c-46.538-55.971-47.897-163.613 10.038-211.793M1533.43 524.566c5.86 3.895 13.59 8.113 19.67 11.911 15.18 9.474 34.25 28.282 37.57 46.62 8.15 46.473-39.08 72.825-61.8 105.947-12.29 17.905-2.08 25.7 12.36 34.404a586 586 0 0 0-12.56 7.814c-5.32 3.778-9.23 7.44-14.01 11.795-13.47-12.609-32.5-24.375-49.99-30.07 5.26-11.579 11.57-22.279 16.36-34.222 16.05-40.027 20.42-79.113 21.54-121.809 10.19-10.891 21.77-20.426 30.86-32.39M1673 788.988c10.49 8.016 22.24 14.901 32.93 23.15 21.71 16.756 42.25 36.017 61.3 55.729 3.03 39.051-5.22 76.073-16.37 113.388l-12.14-.332c-6.09-.598-11.51-1.354-17.56-2.28-11.07-33.625-43.21-59.47-73.44-75.931 16.34-33.561 22.54-71.417 12.27-107.79zM259.422 1172.37c3.352 1.12 21.255 15.29 26.877 18.8 20.806 13.03 41.807 27.28 63.074 39.51a758 758 0 0 0 81.782 40.85c13.003 5.55 26.315 10.26 39.396 15.85 1.877 5.75 8.15 20.42 7.756 25.01l-2.848 1.02c-32.186 4.68-59.182 5.74-91.752 2.53-77.769-7.68-134.902-60.84-124.285-143.57m761.908 103.28c28.62 0 82.26 7.52 112.28 10.54-3.28 34.79-9.1 70.69-12.09 104.7-10.14 1.24-32.09.99-43.27 1.33-32.7-.45-82.854 3.5-114.437-.08 6.984-8.11 45.187-35.12 56.027-42.93-.19-24.53 1.06-48.96 1.49-73.56m-208.356-3.84c34.912 4.21 78.338 1.46 114.351 7.54-.687 21.42-1.765 42.81-3.235 64.19-.793 13.05-1.443 30.68-3.417 43.3-16.3-.59-32.614-.73-48.923-.42-20.793.12-40.897.09-61.681-.54-14.513-.44-28.504.71-43.176-.92 16.627-16.67 36.302-28.64 53.286-42.95-3.027-20.04-5.741-49.84-7.205-70.2M995.956 221.128c1.59.374 5.764.691 8.024 1.089 10.57 9.117 19.23 28.609 23.89 41.331 4.94 13.504 13.26 52.958 5.82 64.906-8.16 13.089-14.23 20.392-21.7 35.898-38.835-30.246-70.889-33.758-112.924-5.951l-15.921 12.568c-4.841-6.919-17.361-34.986-22.871-45.14 6.771-11.189 10.881-22.139 15.765-34.222 6.735 1.04 13.504 2.44 19.964 4.63 8.73 2.96 28.177 13.966 36.628 12.305 19.691-3.869 50.465-69.407 62.517-86.293zm-396.62 199.041 1.377.109c2.117 2.107 9.478 20.073 11.213 24.09-27.543 25.745-33.871 62.603-35.274 98.21-38.633 4.35-52.659 10.781-82.049 35.913-32.211-38.564-9.477-79.601 20.229-110.395 23.958-24.838 50.823-40.24 84.504-47.927M1764.46 1005.58c8.92 2.28 42.71 14.65 50.55 18.67-1.45 5.07-3.07 10.09-4.85 15.05-19.8 54.81-70.17 111.57-122.86 136.38-9.44 4.56-16.75 7.05-26.95 9.36l-14.28-10.9c32.24-30.6 72.55-74.77 85.02-118.02 19.87-16.43 24.38-27.06 33.37-50.54m-703.75-786.081c12.5-2.196 46.4 7.931 58.53 13.287 10.79 4.759 14.67 9.251 19.02 19.914a2024 2024 0 0 1 21.28 54.431c-4.31 3.217-11.71 7.52-16.46 10.477-6.41-2.022-13.26-3.292-19.85-4.669-25.46-4.368-45.46-9.32-70.07.697-2.53-36.909-8.4-61.949-28.71-93.114 10.82-1.033 25.18-.877 36.26-1.023m-365.416 209.72c5.33-.521 10.44.464 15.741 1.224l.211 1.343c5.226 31.871 17.625 40.803 42.254 58.454-6.824 21.658-10.281 51.189-6.163 73.528-6.606 1.771-24.166 7.909-29.184 3.455-13.469-12.335-19.573-16.673-38.292-20.408 3.414-29.448-7.613-56.474-24.613-79.985 7.484-21.074 17.821-33.351 40.046-37.611m559.336-123.834c44.11-7.932 159.74 30.96 126.83 93.835-7.46-2.566-20.63-6.716-27.13-10.166-14.06-9.226-33.12-17.402-48.47-24.335-30.31-13.697-63.79-19.714-95.67-28.956-.05-8.318-1.52-12.777-3.81-20.773 14.48-5.747 32.83-7.738 48.25-9.605m224.58 942.655c.09.03.74.25.88.5 6.87 12.18 9.58 24.33 19.8 34.86 11.6 11.96 80.48 52.26 83.04 64.88l-1.88 1.47c-14.35 2.6-61.04-47.62-71.23-38.88.03 8.32 40.33 34.16 49.15 42.74l.96.95-12.93.66c-10.9-10.98-41.86-29.55-55.97-37.55-11.86 13.7 41.87 30.86 37.21 41.78-13.04 5.34-46.34-26.75-58.72-32.27-1.83-.82-4.02.22-5.7 1.09-3.56 9.79 24.37 24.16 25.78 28.97-1.27.41-2.58 1.05-4 .32-40.86-21.01-65.65-40.17-87.19-81.9 28.69-7.32 52.94-18.04 80.8-27.62m-845.43 6.59c27.382 13.04 51.104 23.45 81.077 27.98-16.157 39.13-42.107 67.53-83.957 78.64 6.02-3.99 30.807-18.19 33.003-22.7-.267-3.48.304-1.93-1.897-4.76-2.212-.49-2.36-.95-4.544.16-11.532 5.87-61.734 39.83-73.362 29.32l.206-1.9c10.697-11.33 53.267-19.54 57.31-30.64-3.172-6.01-8.318-2.96-13.017-.88-22.144 10.61-46.571 19.29-68.686 30.37-3.275 1.64-7.688 1.14-9.918-2.15 1.825-9.64 53.438-25.79 63.35-31.92 3.625-2.24 6.14-4.54 5.068-8.92-10.311-3.91-71.645 30.58-84.003 34.5-3.096-.61-3.511-.49-5.48-2.72-.684-6.18 3.845-7.77 8.777-10.53 26.687-14.99 64.876-32.24 83.286-56.51 5.771-7.61 9.592-18.61 12.787-27.34m874.96-370.172c26.87-2.435 46.09 2.619 71.46 10.052a515 515 0 0 1 9.19 51.997c-13.51 13.65-24.47 19.736-40.87 29.433-9.56 5.888-18.78 9.105-28.65 15.971-10.62-5.036-18.59-9.088-28.35-15.581 7.39-19 12.43-37.66 9.37-58.174-1.08-7.232-7.42-25.904-4.66-31.274 3.62-2.055 8.29-2.061 12.51-2.424M468.213 1184.41c4.093 1.98 10.005 6.68 13.98 9.19 8.129 4.98 16.382 10.04 25.021 14.13 24.309 11.53 50.528 18.44 75.141 29.41 6.32 2.81 13.527 5.2 20.042 7.52a1978 1978 0 0 0-10.144 35.84c-6.909 2.69-14.76 5.58-22.175 6.32-26.719 2.66-61.782-7.74-86.551-16.66-6.734-30.71-11.353-54.28-15.314-85.75m273.223-937.905c26.791.918 34.071-1.635 57.216 16.527l2.436 8.785c-72.938-.447-133.337 21.783-167.126 90.542-5.781 12.712-7.492 25.039-11.458 38.234l-3.478 2.415c-8.168.47-8.076-10.422-8.34-16.719-3.334-79.475 51.591-137.26 130.75-139.784m711.584 487.091c15.86 15.212 26.06 43.646 28.05 65.245-25.69 19.88-32.29 28.026-40.5 61.558a747 747 0 0 0-37.32-4.213c-3.74-.143-5.11-.083-8.65-1.19-3.19-4.274-9.68-23.886-13.02-30.828-3.95-8.183-8.5-16.92-12.44-25.064 40.04-16.034 62.03-25.113 83.88-65.508"/><path fill="#fefefe" d="M1573.26 669.981c39.83-3.846 104.88 39.455 130.35 67.091-8.8 5.924-18.14 17.535-31.1 26.439-5.71 3.959-22.31-5.264-26.93-9.785-15.37-14.448-39.49-22.316-59.25-30.662-47.49-20.053-53.84-12.428-13.07-53.083M685.853 321.757c5.849 5.09 17.541 8.536 25.395 12.831 9.296 5.083 14.44 8.469 23.037 14.793-15.068 23.02-19.951 36.658-24.508 63.583-23.976-3.522-44.248 6.14-58.213 25.307-4.05 6.631-5.828 10.002-8.912 17.126-14.396-14.346-18.056-18.482-25.412-37.242 6.905.019 18.259 2.004 19.92-6.883 6.83-36.523 18.575-65.431 48.693-89.515m-77.892 371.409c1.15-.064 3.183-.148 4.174.651 10.733 8.664 17.838 13.737 31.219 17.427-32.239 22.317-55.145 56.233-66.03 93.561-1.261 4.326-2.612 8.389-4.135 12.624l-13.197-6.736c-6.045-2.329-13.146-5.653-19.178-8.282-6.602-12.107-21.385-36.064-21.242-48.815 9.584-8.683 21.703-15.706 32.092-23.768 19.284-14.965 31.602-30.735 56.297-36.662m293.121-516.824c30.821-4.273 62.799 10.225 86.321 29.002-31.814 6.391-67.642 10.489-93.019 34.787-8.892 8.411-13.075 13.035-20.539 22.411-13.15-15.977-29.151-30.514-45.228-43.501 22.252-27.972 37.6-37.416 72.465-42.699m680.908 874.178c8.21 3.96 16.66 9.71 25.33 13.85 27.97 13.36 51.39 14.73 80.82 9.14-11.21 19.5-27.14 38.45-42.57 54.71-8.8 9.06-17.97 18.08-26.9 27.03-8.98-8.52-18.23-20.9-26.19-30.72a1164 1164 0 0 0-29.51-34.44c7.58-14.25 12.42-25.04 19.02-39.57M564.643 619.562c4.816-.342 10.158-.456 15.027-.665 1.913 19.318 7.951 36.596 16.078 54.008-32.324 5.151-65.981 17.482-86.224 44.455-1.105 2.213-2.423 4.054-3.793 6.105-3.311-2.095-18.119-44.387-20.061-51.023 12.959-19.567 34.736-42.084 57.121-50.417 3.031-1.129 17.995-2.14 21.852-2.463m750.777 17.919c32.23.352 53.48 11.254 78.02 30.752-9.68 19.978-21.02 35.566-38.06 49.813a172.5 172.5 0 0 1-23.65 14.897c-15.38-32.841-25.34-54.691-43.98-86.397 3.53-2.864 7.38-5.662 11.04-8.393zm-90.66-194.186c3.26.708 19.99.125 25.04.46 12.63.837 25.56 1.806 38.2 2.601 13.61 22.975 46.25 10.729 65.87 3.047 11.59 16.64 15.11 30.237 11.89 50.606l-3.69 9.236c-17.6-5.974-35.14-9.704-53.73-10.39-9.39-.346-18.73.261-27.96-1.062-4.29-3.438-58.68-51.776-59.01-52.348zm410.09 476.576c27.19 14.791 50.03 32.28 61.74 62.34-26.67 3.05-47.99 12.729-70.49 26.459-10.62 6.95-26.06 17.09-35.36 25.12-1.38-3.88 3.5-15.05 5.29-19.23 8.31-19.389 7.98-38.609 8.34-59.193 12.91-13.52 19.87-18.49 30.48-35.496m10.32-117.717 1.58.282c2 2.527 2.16 10.676 2.45 14.141 2.44 28.897-3.74 53.832-16.72 79.443-6.41-2.519-41.36-16.061-43.75-19.598-6.44-31.018-12.37-44.233-20.32-71.91 6.08-2.659 19.87 4.956 30.79 4.895 18.2-.101 28.61-2.869 45.97-7.253m-32.11 402.046c10.17 1.68 23.36 1.59 33.54.45 19.98 12.99 18.7 42.22 10.52 61.8-22.38 2.23-39.91 2.1-62.32 1.96-17.73-1.01-35.33-1.85-52.83-5 5.97-6.41 26.47-20.92 34.42-27.26 13.37-10.65 24.07-20.35 36.67-31.95M811.623 288.676c8.52 5.095 25.495 29.63 31.226 38.691-4.48 14.419-26.022 58.283-34.562 72.115-2.929-3.562-5.934-7.63-8.772-11.314-15.598-17.763-26.399-26.154-43.197-42.105 7.245-6.665 17.271-22.04 26.17-30.716 9.785-9.54 19.686-17.453 29.135-26.671m253.767-161.538c17.49 15.173 43.37 62.834 52.86 85.431-21.05-6.754-28.93-8.672-51-10.586-21.92-.052-32.73-2.102-55.01 4.006-2.79-2.604-4.46-4.961-6.78-7.952 18.89-30.629 33.68-47.218 59.93-70.899m322.01 297.638c11.75.001 38.84 18.993 49.58 26.21 2.85 15.83 4.76 34.524 1.64 50.549-2.94 15.1-11.28 21.732-23.48 29.646l-2.35 1.276c-4.44-.644-23.69-12.723-28.43-15.568 4-11.519 5.67-23.72 4.9-35.89-1.24-17.017-6.81-31.173-19.79-42.466a87.3 87.3 0 0 0 17.93-13.757m-287.3 188.883c1.17 3.106 1.88 6.502 2.54 9.89 8.2 42.282-7.58 93.24-54.44 103.097-15.56 3.272-29.7-2.617-42.6-11.635-8.976-7.173-12.602-11.848-17.234-22.186 55.224 1.142 97.094-24.117 111.734-79.166M658.703 722.864c.601.066 1.445.506 2.063.768-.301 3.731-1.774 5.071-3.321 8.48-19.252 42.441-16.739 83.919-1.201 126.441a1603 1603 0 0 1-32.003-16.513 1200 1200 0 0 1-34.257-16.29c7.961-40.55 31.295-83.003 68.719-102.886M435.57 1050.36c1.938.93 13.172 10.11 16.281 12.35 8.672 6.26 17.816 12.37 26.314 18.79 4.948 38.82 15.749 67.45 39.144 98.75-21.796-1.03-48.146-20.66-60.288-37.83-16.196-22.9-26.208-64.18-21.451-92.06m311.191-690.816c13.702 8.229 43.492 42.271 54.216 55.645-6.251 14.864-14.52 34.194-25.819 45.189-.522.534-1.795 1.356-2.462 1.827-3.877-1.966-7.436-11.53-11.401-16.148-11.566-13.472-20.413-20.277-36.292-27.064-.025-22.358 10.361-41.207 21.758-59.449m950.619 638.69c2.99.561 1.69-.087 3.93 2.206 4.41 15.42 2.8 35.03-.1 50.61-29.32 11.36-55.67 7.32-84.46-1.68-7.8-3.09-12.28-5.25-19.65-9.09 43.18-19.65 47.22-32.26 100.28-42.046m-179.93 11.806c7.46-.22 44.98 24.28 52.97 30.69-4.77 10.87-13.51 31.76-19.69 41.08-4.77-2.32-10.54-5.95-15.21-8.7-17.96-11.6-38.5-16.89-58.16-24.52-3.79-5.27-2.55-19.28-2.45-26.2 16.3-3.47 26.85-7.74 42.54-12.35m-82.36 47.39a649 649 0 0 0 24.82 4.64c11.9 38.8 27.24 57.79 57.19 84.72-5.39 12.41-11.71 25.03-17.63 37.25-2.32 5.56-6.4 13.16-9.17 18.7-12.71-30.2-24.99-61.29-36.68-91.94-6.58-17.27-11.88-35.73-18.53-53.37m109.19-250.065 4.17-.085c10.82 7.036 20.82 52.051 23.76 64.966-19.35-4.836-26.97-7.018-47.27-7.142-6.72.063-21.74 2.027-26.75 1.126-2.81-7.634-2.36-23.617-3.28-31.684-3.32-29.101 5.52-26.971 29.94-26.155 4.44.148 14.31-.662 19.43-1.026M654.836 581.982c18.629 8.254 38.918 9.105 58.879 6.131 11.544 17.654 12.347 32.762 3.566 51.736-7.003.327-14.775 1.424-22.034 1.868-1.788.193-6.697.779-8.198.089-16.795-7.727-31.08-20.236-47.413-28.883-6.35-3.362-12.729-6.357-19.193-9.366 13.183-5.33 23.193-13.026 34.393-21.575m-149.891 361.87c.918.221 1.05.488 1.898 1.088-2.994 41.527-23.914 71.78-28.739 115a2296 2296 0 0 0-22.345-15.92c-5.505-4.11-12.363-10.71-17.561-15.52 15.545-45.043 23.855-61.053 66.747-84.648m18.709 13.97c14.813 10.459 28.806 14.225 46.012 18.135-2.146 7.962-2.768 11.892-3.654 20.123-17.757 12.5-37.95 38.96-45.212 59.34-2.719 8.76-4.464 14.38-6.113 23.42a545 545 0 0 0-17.592-8.5c-1.377-22.11 10.679-50.11 16.59-71.132 3.756-13.353 6.831-27.823 9.969-41.386m868.296 330.648c2.22 2.07 12.07 17.92 15.13 21.68 17.37 21.33 32.94 34.3 56.39 48.05-19.17-.48-42.57.62-62.22.88-20.07 1.11-52.22-.14-71.28 3.69 30.78-19.89 48.85-39.71 61.98-74.3M518.304 870.455c2.803 1.236 10.238 6.048 13.183 7.841 14.522 8.841 28.823 16.375 45.955 18.525l10.991 21.857c-4.587 10.79-7.748 14.79-11.484 26.993l-4.211 13.835c-73.243-17.056-36.49-31.911-54.434-89.051m163.369-146.258c8.057 2.572 12.782 4.443 19.501 9.858a50.16 50.16 0 0 1 18.516 34.359c2.118 22.7-8.842 40.382-22.682 56.946-4.861 5.765-9.413 10.595-14.596 16.035-7.721-36.336-11.933-81.19-.739-117.198m846.877 432.163c24.31 14.13 31.59 17.48 57.98 26.31-8.48 9.69-39.79 33.93-50.71 42.52-8.91 7.13-19.51 13.38-27.57 20.78-4.23-7.88-6.84-16.08-9.28-24.62 8.7-15.39 21.83-47.46 29.58-64.99M627.56 996.371c20.094-3.1 32.779 1.86 50.055 10.269-6.464 24.67-12.391 44.36-20.436 68.56-20.78-13.8-43.131-52.15-52.364-75.328 8.15-1.568 14.5-2.534 22.745-3.501m444.9-671.086c24.09-.733 31.47 2.998 54.09 7.442-2.84 5.937-30.27 45.752-34.11 48.551l-2.72-.516c-18.93-7.574-37.81-12.664-58.26-13.16 14.61-20.534 14.15-37.033 41-42.317M718.506 1297.51c1.841 1.5 5.022 5.5 6.768 7.47 14.439 16.3 29.792 32.24 48.207 44.08 2.613 1.68 7.083 4.45 8.095 7.45-4.964 5.29-42.335 2.75-51.259 2.69-22.03.32-44.901-.06-66.997-.11 26.771-16.79 41.42-33.01 55.186-61.58M1787.32 891.806c15.86 17.236 30.24 53.196 32.87 76.426 1.33 11.766.47 23.747-.57 35.508l-12.37-5.052c-13.06-4.882-24.01-8.278-37.32-12.275 11.47-40.205 14.59-52.136 17.39-94.607M605.702 925.362c10.083 4.054 18.694 11.185 30.082 15.403 26.084 9.662 40.818 9.107 65.35-1.522-4.741 11.264-8.513 21.698-12.61 33.23l-2.885 10.107c-13.522-3.478-27.078-8.867-40.952-11.189-16.221-2.715-33.722-2.206-49.677-5.563-.639-20.364.968-21.923 10.692-40.466M1484.73 568.84l1.44.64c.15.517.29 1.033.44 1.549-1.13 43.724-10.76 94-35.49 130.557l-7.41-8.915c-2.82-2.721-6.25-5.159-9.39-7.546 4-8.704 8.87-16.655 12.68-25.881 9.3-22.541 12.7-49.839 5.74-73.405 8.24-5.339 21.51-10.586 31.99-16.999m-144.72 23.035c21.14 4.852 47.74 9.784 69.09 4.24.18 9.018-2.88 53.718-9.62 56.295l-4.11-2.355c-26.36-18.734-47.86-28.281-80.57-28.23 9.78-10.145 16.27-19.303 25.21-29.95M586.471 1006.71c1.966 1.61 6.784 13.45 8.152 16.37 12.532 26.73 34.732 54.07 57.227 72.88l-4.184 8.97c-3.186-.49-7.026-.7-10.259-.81-14.38-.47-28.146-2.3-42.323-4.71-4.98-20.12-20.207-75.43-8.613-92.7"/><path fill="#fefefe" d="M969.403 225.21c1.925.25 2.639.081 4.154 1.065-5.37 9.509-37.335 63.113-42.831 66.795-5.959-1.399-20.037-9.47-29.472-12.534-6.012-1.88-13.721-3.302-19.993-4.637 24.218-31.51 51.309-42.089 88.142-50.689M1395.8 891.78c6.77 7.453 31.6 45.812 39.96 57.627-6.87 16.399-10.26 49.828-13.16 68.383-.1.38-.84 1.51-1.08 1.91-3.64-5.01-32.94-105.463-37.25-117.871 6.03-3.23 7.77-4.7 11.53-10.049m-144.5-495.268c21.66.311 31.79 5.623 50.17 15.26-8.2 8.403-10.26 10.342-14.28 21.222-9.3-1.401-19.69-2.435-29.11-3.577-15.99-1.198-37.03.152-53.29.94 2.19-9.642 3.41-17.325 4.83-27.129 18.55-3.794 20.47-6.642 41.68-6.716M534.749 1107.35c15.586 4.01 30.529 7.88 46.298 11.17 3.776 11.16 6.583 22.95 10.345 34.2 1.543 4.61 9.094 23.41 8.177 26.78-4.949.16-15.571 2.6-18.66 1.68-26.061-7.75-41.589-51.92-46.16-73.83m85.933-649.788c4.748 3.013 11.65 10.251 15.902 14.409-5.762 15.668-11.152 41.314-11.907 58.178-.166 3.715.854 13.531 1.059 18.224-2.087.566-9.218-1.268-11.81-1.816-6.303-1.492-13.816-2.239-20.323-3.061-2.39-30.023 7.502-62.871 27.079-85.934m932.498 275.34c11.2-.568 40.24 13.263 50.77 18.658-10.55 14.778-12.51 21.01-27.89 33.778-4.89 3.514-9.57 1.788-15.8.836-10.97-11.075-20.55-25.14-33.13-34.3 8.35-6.628 16.94-13.472 26.05-18.972M595.724 615.707c24.32 2.699 50.954 20.218 71.869 33.378l-13.271 6.547c-5.908 4.47-8.753 7.116-14.016 12.37-9.106-.416-19.319-.54-28.373.049-10.729-17.299-12.592-32.947-16.209-52.344m811.106 103.375c12.89-.986 22.09-.413 34.63 2.878-10.51 23.403-31.38 43.239-55.22 52.427-8.52 3.48-17.19 5.623-26.09 7.865 7.16-19.585 34.64-43.529 46.68-63.17M570.51 559.317c1.837-.306 3.22-.18 5.081-.156 2.445 2.636 2.33 31.466 2.477 37.381-22.794 1.539-27.21 11.166-54.323.926-5.438-2.088-11.011-5.24-16.198-7.991 22.489-19.426 33.102-25.818 62.963-30.16m95.739 327.823 2.644-.145c6.053 4.263 20.572 26.11 25.568 33.306q-.904.597-1.816 1.183c-15.428 9.899-25.927 9.681-43.097 5.895-11.414-3.556-22.277-10.692-32.63-16.696 18.9-14.638 26.428-17.477 49.331-23.543m500.791-542.291c11.94 10.871-1.74 45.853-7.07 57.927-5.34 3.657-9.48 6.893-14.54 10.958-3.92-2.486-8.19-5.553-12.07-8.197-5.18-3.066-9.58-5.925-14.58-9.294 8.45-14.262 34.2-44.116 48.26-51.394M731.461 801.718c2.119 10.504-.276 28.613 3.287 42.785a1422 1422 0 0 0-20.687 52.971l-9.83-13.779a192.4 192.4 0 0 1-15.412-26.029c16.865-13.053 33.907-36.403 42.642-55.948m984.529-46.13c3.71 1.061 10.84 12.274 13.27 15.876 14.58 21.602 25.54 42.484 32.43 67.654-4.92-4.819-9.8-9.671-14.65-14.557-21.46-19.034-35.72-28.766-58.2-45.39 10.7-8.164 17.51-14.256 27.15-23.583m-237.3 311.772a248.4 248.4 0 0 1 64.1 30.3c-4.27 6.77-8.11 14.99-11.72 22.22l-6.16 11.41c-23.57-18.04-34.79-37.38-46.22-63.93M785.78 288.491l1.339-.108.277.905c-14.103 12.019-33.034 30.832-42.968 46.436-5.566-2.771-19.191-12.293-26.069-16.386-7.377-4.316-10.745-5.024-19.168-6.349 36.578-19.435 46.245-20.293 86.589-24.498m735.59 992.239c3.94.03 7.76.69 11.6 1.59 36.82 8.61 72.57 8.02 110.34 5.45-5.03 4.84-8.8 7.82-14.25 12.05-10.22 6.22-23.85 10.42-35.16 15.34-21.97-9.04-55.01-20.15-72.53-34.43m-42.72-761.487 1.84.298c3.72 5.092 4.91 21.046 5.78 27.92-10.96 7.278-25.15 16.474-37.7 20.102-2.77-1.464-2.99-2.89-4.82-5.855-4.78-7.728-8.46-11.017-14.82-17.273 5.46-5.521 10.8-11.088 16.66-16.187 12.13 1.604 15.94-6.159 33.06-9.005M561.767 1025.69c1.93 2.27 2.321 10.43 2.62 13.78 1.779 19.95 6.531 38.37 11.579 57.75-6.46-1.93-14.54-3.67-21.197-5.29l-21.201-5.5c3.06-24.52 10.542-43.13 28.199-60.74m733.943-510.216c20.01.77 42.25 3.397 61.04 10.517-4.01 7.703-7.8 12.299-13.1 19.027-17.48 21.915-14.15 9.47-34.55 6.588l-1.03-.135c-1.33-8.873-2.36-13.021-6.15-21.399-1.8-3.967-5.5-10.708-6.21-14.598M852.615 346.567c4.213 3.472 14.665 28.341 17.379 34.761-13.996 12.235-27.049 22.418-37.134 38.16-1.831 3.535-1.14 3.58-4.015 5.229-3.78-1.349-7.31-7.219-10.331-10.963 10.998-18.157 24.961-47.779 34.101-67.187m625.035 549.007c1.59 1.086 2.22 1.805 2.93 3.679 8.83 23.253 6.42 46.673-2.68 68.966-2.78-2.284-5.61-4.831-8.34-7.205-4.58-4.905-12.25-13.311-15.4-18.889 3.98-18.264 7.81-34.973 23.49-46.551m76.5 210.836c12.45 8.73 36.48 46.56 48.91 60.05l-14.5-4.71c-22.98-6.64-30.52-10.45-51.09-22.86 5.87-10.06 11.23-24.38 16.68-32.48m-804.628 156.18 6.008.37c3.843 2.75 6.282 18.87 9.727 25.75 9.191 18.38 19.562 33.1 31.829 49.35l-12.683-7.59c-19.582-10.95-37.509-29.61-50.441-47.76 7.581-6.25 10.655-11.83 15.56-20.12m838.298-293.548c5.87 10.35-7.51 44.858-11.54 55.468-7.35-6.13-14.24-10.18-22.5-14.71-4.57-1.85-12.49-6.16-17.15-8.51 20.28-11.579 32.13-18.795 51.19-32.248M807.395 499.46l2.398-.051c1.508 2.22 4.356 18.186 5.722 22.235 1.711 5.072 3.068 8.431 5.342 13.513-7.968 11.862-4.274 15.639-20.107 14.81-2.446.011-7.851.958-10.492 1.344-3.009-20.863 1.002-31.548-.163-50.241 5.631-.4 11.643-1.079 17.3-1.61m629.395 90.888c1.55 1.451 2.25 4.753 2.72 6.876 5 22.644-4.35 55.055-16.95 74.162l-1.6-.143-8.54-8.2c9.65-23.005 11.78-45.955 12.23-70.528 4.18-.527 8.01-1.333 12.14-2.167M600.84 1120.55c11.09 2.59 28.73 3.9 40.304 4.5-2.629 10.66-8.652 26.76-12.356 37.41-1.061 4.88-1.371 10.97-7.16 11.14-7.687-5.11-18.115-42.69-20.788-53.05m47.809-634.045c6.875 9.078 27.604 62.753 9.578 64.46-4.529-.122-9.611.758-14.174 1.377-6.704-18.904-2.289-47.799 4.596-65.837m755.931 387.462c9.39 1.71 28.35 4.855 37.35 5.227 2.7 7.339 4.81 13.837 8.87 20.575l-8.19 18.984-2.55 7.622c-11.98-16.511-24.11-35.369-35.48-52.408M475.487 695.768c2.088 2.53 18.049 42.528 21.008 49.026-2.708 5.387-5.147 12.867-7.096 18.638-29.805 5.438-18.651-52.867-13.912-67.664m295.588-43.133c-.994-.675 7.753 21.972 9.09 24.554-2.915 4.892-12.945 23.035-16.288 25.667l-2.011-.944c-3.506-1.755-9.358-3.406-13.263-4.637 3.743-14.812 4.949-28.106 7.083-43.202zm845.385 107.243c16.7 5.063 21.58 8.619 26.26 25.601-8.54 3.014-15.96 5.912-24.91 7.51-8.89 1.771-18.75 1.276-27.77.762 13.32-15.052 15.2-15.872 26.42-33.873M593.035 559.694a100.55 100.55 0 0 1 46.365 13.942c-4.041 2.885-8.884 5.695-13.167 8.308-8.69 4.877-21.501 10.174-30.819 14.242-1.278-12.006-1.847-24.425-2.379-36.492m228.368-327.256c6.37 3.326 37.945 32.08 38.658 38.217l-2.814.509c-12.034-.61-23.085-1.081-35.121-1.085-4.033-6.461-5.083-8.938-7.883-16.099 2.264-8.435 4.053-13.457 7.16-21.542m627.577 731.567c6.78 6.123 14.3 13.762 20.96 20.195-2.63 7.629-6.52 23.31-12.14 26.7l-18.45 5.87c1.82-12.76 5.3-41.862 9.63-52.765M587.694 843.12c5.21 1.734 48.931 24.431 49.649 26.884l-2.531 1.99c-11.839 3.801-20.455 4.618-32.698 5.563l-11.738-5.897c-1.377-11.455-2.656-16.796-2.682-28.54m-89.926 248.99c6.105 1.55 13.289 6.33 18.415 9.79 1.622 24.56 12.443 51.53 26.709 71.49-23.579-8.27-39.948-58.4-45.124-81.28m16.131-257.579c10.013.979 24.847 7.584 32.03 14.547 5.872 5.693 21.052 21.223 23.673 28.206-17.086-4.729-54.299-22.983-55.703-42.753m-8.763-57.204 2.756-.065c3.084 2.957 11.424 22.201 13.709 27.147-7.95 4.289-6.274 6.093-12.527 11.351-4 .206-3.366.84-5.646-1.073-4.668-11.161-13.39-22.452-19.902-33.415 16.15 4.5 8.248-3.798 21.61-3.945m973.344 44.4c1.85 11.878 2.36 38.611 3.31 52.075-4.43-2.217-9.16-4.911-13.55-7.295l-11-2.58c2.42-16.303 11.11-29.596 21.24-42.2m37.55-56.837c8.8 5.834 19.71 19.551 26.6 27.868-6.96.715-12.93.945-19.88 1.177-5.93.294-16.13-.285-24.04.068 5.11-11.931 9.94-18.681 17.32-29.113m-806.52-50.515c9.21 1.336 31.387 17.69 36.326 25.917 2.451 4.083-4.948 21.991-6.771 27.522-.915 1.925-.782 2.238-2.55 3.283-.877-14.778-8.501-32.858-18.894-43.379-2.745-2.779-9.491-8.778-11.081-11.326zM768.4 496.23l4.656 2.383c3.452 5.703-1.562 32.416-1.133 40.865.275 5.406 2.4 12.483 1.408 17.149l-4.107 2.432c-1.775.449-2.708.366-4.535.399-8.614-9.34-.27-51.28 3.711-63.228m-81.239 163.909c1.511-.027 14.33 1.791 15.611 2.679-3.685 4.852-20.423 19.657-25.926 24.655-5.414-4.295-13.315-9.39-19.153-13.398 10.421-7.856 16.978-10.907 29.468-13.936m60.116-77.809c2.007-.386 1.977-.232 4.064-.105 2.821 3.012 3.695 8.246 4.863 12.462-7.929 10.158-10.673 18.384-13.071 30.886-.907 4.729-1.095 10.264-4.421 13.756-3.074-3.932 1.852-16.279 1.32-22.54-1.07-12.589-3.237-19.686-8.344-30.88 6.298-1.906 9.124-2.697 15.589-3.579m654.613-20.373c2.57 2.284 4.94 15.681 5.86 19.766-19.14 1.947-26.08 1.52-44.51-1.306-3.33-.459-3.65-.476-6.69-1.826 1.38-.778 12.26-3.364 15.07-4.292 10.88-3.593 20.13-6.952 30.27-12.342m-89.81-144.2c6.65 3.876 18.36 12.264 25.47 16.828-4.8 2.819-8.27 4.566-13.32 6.925-2.1.656-4.23 1.183-6.38 1.575-3.92.746-10.3 1.497-13.37-1.239-8.1-7.226 3.23-18.813 7.6-24.089m-99.07-55.928c10.29 1.146 46.21 11.755 55.77 16.386l-1.22.185c-18.92-1.26-36.46-.535-55.02 3.89.35-6.711.36-13.72.47-20.461M496.907 604.478c8.096 4.736 12.661 7.299 21.301 10.997-10.672 5.662-15.66 9.985-24.073 18.518l-12.279 13.55c2.361-17.782 4.836-28.325 15.051-43.065m910.533-226.749c2.92 3.727 20.69 37.926 21.77 42.798l-.75 1.064-2.83-1.212-26.77-13.497c4.96-11.189 7.47-16.885 8.58-29.153m45.49 86.902c4.76 3.099 22.01 28.77 19.95 34.948l-3.15.967c-6.88 1.58-10.35 2.509-16.91 4.981 1.25-14.534.98-26.388.11-40.896m-71.11 258.339.85 1.385c-3.37 3.869-34.17 40.226-35.02 40.618l-1.57-2.293-6.34-11.426c6.29-3.508 11.92-6.684 17.84-10.854 7.98-5.62 15.56-13.23 24.24-17.43M809.539 456.075c3.732.147 3.475-.517 5.336 1.438-.424 5.968-3.132 15.864-4.323 22.867l-11.745 2.357c-2.359.622-2.197.688-4.514-.01-2.08-4.622 2.997-17.419 4.705-22.687 3.468-1.183 7.099-2.649 10.541-3.965m-20.513 237.42c2.342.885 8.709 7.677 10.915 9.87-4.452 7.296-9.207 16.592-13.339 24.24l-.653.772c-2.106-.954-7.201-10.116-8.89-12.83 4.112-8.436 7.065-14.062 11.967-22.052M727.568 437.62c12.794 4.967 30.349 24.818 33.726 37.836-1.474-.303-1.845-.362-3.218-1.092a62.3 62.3 0 0 1-30.508-36.744m747.182 297.955c8.49 2.534 22.61 14.724 28.88 21.149l-7 9.018-4.79 7.379c-5.83-15.977-8.06-22.998-17.09-37.546m-717.687 28.924c13.311 12.019-1.553 32.956-7.056 47.871-.139.406-1.255 2.261-1.544 2.761-2.415-9.281 4.568-40.925 8.6-50.632m840.717 137.192c7.41 2.741 15.02 7.067 22.07 10.788-2.77 4.75-4.74 7.646-7.99 12.097l-8.28 9.506c-2.09-10.456-3.72-21.661-5.8-32.391M737.92 655.199c.358 5.261-3.943 33.02-7.32 37.568l-.823-2.997c-1.428-8.376-4.105-14.532-7.785-22.086 6.433-8.492 6.344-10.281 15.928-12.485m615.09 147.689c6.89 5.98 22.18 43.937 24.18 52.613-3.04-.214-3.59-.316-6.54-1.151-3.74-4.003-17.56-45.575-17.64-51.462M833.934 287.267c6.266-.391 18.895.589 25.559.954-1.718 5.696-4.332 11.856-6.547 17.438l-1.433 2.789-1.427.23c-4.364-3.589-13.981-16.474-16.152-21.411M1560.95 1313.87c7.08 1.65 22.5 9.27 29.63 12.63 3.62 1.7 13.74 7.62 14.91 12 .35 1.3-.54 2.14-1.33 3.58-2.4 1.93-2.81 2.5-5.69 3.33-15.49-18.19-18.02-18.23-37.52-31.54M459.014 781.19l2.304.151c3.66 3.054 17.305 26.754 16.451 31.776l-1.505.371-1.954-2.562c-4.201-6.383-20.13-21.309-26.303-26.813 3.586-1.254 7.307-2.04 11.007-2.923m918.426-247.432c6.45 2.984 12.78 6.603 19.01 10.031l-16.33 6.441-16.21 5.437a696 696 0 0 1 13.53-21.909m79.44 493.202 1.46.74c.22 6.33.44 9.14-.7 15.29-3.5 2.17-16.63-1.55-21.38-2.59-2.61-.61-2.91-.47-4.93-2.3 2.36-4 19.01-8.51 25.55-11.14m-905.712 290.19 3.469.42c-3.521 5.51-28.86 17.87-36.746 15.17-2.825-1.95-5.112-3.01-6.37-6.08-.327.29 35.069-8.02 39.647-9.51m214.91-707.495c3.333 4.928 5.702 10.778 8.144 16.237-1.729 7.591-.506 9.229-8.069 10.948-3.356.179-4.308.448-7.409-.582-1.103-6.201 4.011-21.159 7.334-26.603m548.572-20.997.11 1.678c-6.3 7.711-22.02 25.936-29.89 31.183-.13-.797-.15-2.207.31-2.845 7.09-9.759 11.86-17.902 15.86-29.289zM491.252 1293.39c6.627 1.99 31.203 8.11 34.643 10.07l-1.222 1.08c-21.154 1.83-23.523 12.68-33.421-11.15m699.188-886.95c4.26 3.399-.9 21.653-1.98 27.12l-11.95 4.294-.78-.167-.08-1.54c4.73-8.369 8.03-24.352 14.79-29.707m534.94 592.189c5.07.189 11.47 1.219 16.62 1.911-2.03 4.94-5.47 11.38-7.92 16.29l-5.81 8.24c-.75-9.34-1.38-17.2-2.89-26.441m-566.25-737.028c6.68 3.739 22.91 27.351 21.69 35.531-2.28.848-3.35 1.517-5.73 1.067-3.87-6.312-12.62-28.738-15.96-36.598M709.446 680.738l1.549.92c2.362 3.918 3.156 10.445 4.042 15.174-5.924.344-12.834 1.814-17.977-.116l-2.952 1.144-1.111-.577c1.45-4.877 12.093-12.946 16.449-16.545m696.744-2.335c2.05 1.393 5.1 4.301 7.04 6.047-4.75 7.231-7.15 11.203-13.22 17.508-1.01.234-2.35.274-3.38.353l-.65-1.426c1.09-5.756 7.25-16.634 10.21-22.482m9.31-124.833c4.52 2.221 14.98 14.785 15.9 19.777l-1.81 1.694c-1.91.893-4.11 1.652-6.1 2.403-2.6-3.276-9.05-19.792-7.99-23.874m-83.33-150.696c5.07 1.353 29.28 8.081 32.05 11.067l-1.7 1.349-7.89 5.594c-7.03-7.297-14.65-11.407-22.46-18.01m-536.24 182.08 2.174.199c-1.158 3.682-11.573 14.968-14.989 18.949-13.302-10.088 4.761-16.028 12.815-19.148M555.56 701.831l1.277.382-.149 1.134c-6.519 6.493-22.294 17.961-30.123 23.475l-1.655-.337c5.335-10.693 20.106-19.742 30.65-24.654m73.891-16.557c12.321.805 24.378 3.633 33.337 12.841-10.961.671-24.693-6.668-33.337-12.841m867.869-167.843c5.75.387 10.11 1.173 15.81 2.174l-7.13 9.626-5.08 5.64zm-821.258 46.293c5.134.622 20.586 2.508 21.463 8.532-6.836-.181-19.385 2.502-22.896-3.695zm808.758 428.052c3.91 2.022 9.64 4.475 12.23 7.731l-.43 1.383-4.2 1.24-13.83 3.48c1.77-4.58 4.13-9.356 6.23-13.834m-286.95-541.441c3.73 2.018 14.79 8.607 15.49 12.265-5.53-1.075-11.89-.811-15.97-3.879-1.47-3.799-.65-3.885.48-8.386M555.231 826.723a687 687 0 0 1 14.705 6.276 732 732 0 0 1-.966 10.449l-.861.054c-2.59-1.718-10.338-13.339-12.878-16.779M1188.02 352.94c1.64.534 3.07 1.116 4.67 1.745 4.41 5.548 2.41 14.46 1.81 21.824l-.57-.212c-1.55-1.888-4.55-18.752-5.91-23.357m-608.676 855.42c7.069-.96 17.022 2.2 22.938 5.93l.138 1.75c-5.102-1.49-20.54-4.35-23.629-6.54zm-83.222-357.859c5.928 3.344 5.653 20.692 5.929 26.95-4.019-8.275-4.874-17.88-5.929-26.95"/></svg>