<svg xmlns="http://www.w3.org/2000/svg" preserveAspectRatio="xMidYMid meet" viewBox="0 0 2048 1152"><path d="m926.374 586.68.001.861c-.083 18.601-20.804 174.456-25.584 182.346-.898.051-1.304.325-2.001-.312-18.643-17.049-119.919-278.821-132.485-319.568-10.809-35.047-21.907-74.445-22.908-111.214-1.361-50.032 15.495-101.579 50.22-138.106 24.088-25.337 61.036-39.925 95.75-40.724 34.477-.793 68.467 14.894 93.04 38.501 18.013 17.307 30.233 35.714 38.633 59.126 15.46-38.14 42.79-70.159 81.24-86.381a134.74 134.74 0 0 1 102.27-.414c33.41 13.784 60.73 46.109 74.28 79.035 37.62 91.463.43 193.686-35.66 279.525l-49.95 120.329c-19.31 46.54-38.58 91.945-53.83 140.044-1.33 4.206-3.09 7.676-6.33 10.734l-2.67.835-1.68-.966c-3.56-18.48-3.71-48.047-5.91-67.514-3.36-29.745-4.41-60.345-6.36-90.278-1.09-16.663-2.96-39.558-2.11-55.955-5.28-2.655-7.01-4.211-11.63-8.027 1.75 97.137 11.42 194.428 16.4 291.452.13 2.686-.62 4.962-2.37 6.967-6.04 4.107-17.24-1.598-16.96 5.412.61 15.432.67 35.43 1.31 50.547 17.36 5.471 30.08 11.947 45.76 17.307-17.14-59.471-25.42-190.767 52-213.218a90.97 90.97 0 0 1 68.78 7.706c14.38 8.019 22.21 15.588 32.25 28.294 1.17-24.492 5.35-43.606 24.21-60.788 31.18-28.396 87.08-26.406 115.76 4.626 15.07 16.568 24.01 41.143 22.79 63.367-.95 15.176-8.46 37.918-20.08 48.065 7.76-.191 45.07-.023 33.99 15.853-1.95 2.793-28.12.171-32.62-.245-38.85-3.597-81.94 1.101-120.27-2.253a88 88 0 0 1-5.6-.711c-.19 32.711-2.45 61.896-9.65 93.841a90 90 0 0 0-1.86 12.225c17.84 2.233 40.91 1.016 51.97 16.149 18.51 25.335 34.51 55.337 46.09 84.537l25.36-52.025c7.02-14.363 14.93-34.009 27.44-43.961l13.41-1.97c3.56-29.601 32.95-51.253 56.78-65.675-9.47-6.674-18.07-13.521-24.38-22.982-32.38-48.584-7.6-114.602 52.62-123.483 60.31-8.894 108.2 44.405 90.2 102.991-5.25 17.059-15.62 30.072-28.33 41.962 28.33 18.521 47.14 28.006 51.77 64.922 15.78.565 27.88-.072 39.23 12.514 20.93 23.204 23.31 55.127 33.2 80.207 11.41-23.5 48.06-85.564 72.21-94.151 5.94-2.111 12.51-3.354 18.65-4.798-7.5-38.873-7.93-65.14-8.04-104.369-24.33.43-47.41-1.262-71.89.57-27.81 2.081-54.8 6.174-82.43 9.65-4.05.444-9.43-.384-12.92-2.51-1.4-2.001-1.13-1.016-.66-3.854 7.36-10.07 20.36-8.815 32.18-10.651-14.69-21.628-16.97-36.379-13.15-61.696 7.24-48.038 52.55-78.091 99.71-69.17 42.63 8.064 59.18 44.661 55.96 84.27-.51 6.245-2.41 14.237-2.31 20.231 7.56-25.147 17.42-42.348 40.85-54.765 39.37-20.865 90.3-9.27 110.21 32.381 19.25 40.249 15.32 84.495 11.52 127.488-1.01 10.96-3.25 23.213-3.97 33.637 26.94 4.621 36.92-.065 54.46 24.859 1.96 2.829 3.87 5.694 5.72 8.594V1152H0V975.216c23.926-33.927 24.747-28.363 64.08-33.147-13.063-63.438-30.088-198.657 69.304-203.56 36.885-1.82 67.823 19.475 81.22 54.228 1.605 6.088 6.738 27.927 9.772 32.167l4.751-.094c.161-2.005-4.761-8.742-5.943-11.664-3.481-8.61-5.864-16.753-6.757-25.941-2.61-21.918 2.468-47.649 16.182-65.791 22.993-30.419 76.612-30.918 104.997-8.059 18.71 15.068 31.126 37.981 32.76 61.925 2.031 23.349-1.278 34.148-10.925 54.583 7.736.65 16.299 1.581 23.829 3.746 4.269 1.228 4.393 3.204 5.252 7.013-.982 2.4-1.403 3.257-4.076 4.172-7.221 2.469-74.237-7.596-88.453-8.361-24.058-1.294-47.66.853-71.645 1.601 2.554 26.861-1.964 76.936-10.295 102.422 7.73 2.006 19.36 4.717 26.086 9.69 19.644 14.525 37.362 39.543 50.852 59.664 6.411 9.56 10.56 23.25 16.257 33.28 1.687-18.98 19.352-74.419 35.889-86.156 14.249-10.112 21.832-7.937 36.463-10.488 5.426-23.018 24.771-46.034 44.866-58.411a83 83 0 0 1 9.933-5.339c-20.492-19.387-33.59-37.496-34.788-66.484-1.733-41.964 34.68-80.291 76.88-79.405 84.491 1.775 116.826 97.368 42.211 145.65 30.593 16.026 46.524 32.209 59.142 64.613.84 2.156 15.526 4.26 19.434 10.136 18.295 27.511 29.512 61.574 45.838 89.654 11.345-25.86 33.5-81.671 59.787-94.667 5.299-2.62 30.076-4.923 37.066-5.598-6.468-40.819-8.978-63.798-9.859-104.832-50.475 1.278-100.886.521-151.46 4.249-3.854.284-6.013-.269-9.014-2.494-4.791-15.363 24.314-12.411 34.434-13.288-10.758-13.479-15.615-21.37-18.372-38.942-4.855-30.952 7.184-61.865 31.808-81.492a80.3 80.3 0 0 1 60.496-17.211c22.189 2.604 43.482 13.771 57.377 31.454 13.636 17.354 12.077 31.398 14.851 50.672 14.411-20.824 29.87-34.675 55.135-39.166 55.432-9.854 95.367 25.415 103.607 79.135 1.406 9.164 2.169 18.738 3.539 27.747 2.353-24.175 7.588-51.784 10.907-76.13l25.06-188.751c-6.682 2.845-15.42 6.831-22.104 9.134"/><path fill="#fefefe" d="M1038.79 1152c10.25-55.1 25.42-104.34 55.51-152.105 18.36-29.155 21.04-28.308 54.24-33.149 61.63-8.987 130.48-11.159 191.82-.475 31.14 30.337 59.25 104.219 70.07 146.659 1.67 6.58 4.66 31.75 5.02 39.07zM709.087 965.081c69.239-5.469 134.966-11.373 203.423 5.836 32.171 8.087 28.471 5.552 45.363 36.853A529.6 529.6 0 0 1 1010.72 1152H632.929c3.567-41.86 12.14-73.51 30.291-111.29 10.154-21.13 25.637-61.172 45.034-75.022zm754.853-.951c24.54 3.45 65.36-1.466 90.68-1.954 39.47-.76 78.63-.627 118.11-.106 10.83-.036 21.3.736 27.22 10.638 30.16 50.492 37.05 122.822 39.51 179.292H1430c1.47-23.7-9.37-63.88-18.39-85.73 6.12-9.8 9.4-20.06 14.79-29.75 12.71-22.85 23.13-50.937 37.54-72.39M308.75 1152c1.657-13.63 1.108-27.41 2.587-41.06 3.309-30.54 18.565-124.077 41.427-142.152 4.403-3.481 9.738-4.572 15.187-5.284 13.705-1.79 28.286-.913 42.108-1.226 36.814-.836 73.051-.74 109.843-.035 18.218.349 38.406-1.256 56.355 1.291 5.466.776 7.941 2.008 11.24 6.476 5.608 7.596 9.36 17.131 13.371 25.656 9.882 21.004 22.606 52.794 35.585 71.224-10.436 20.73-18.512 61.47-18.91 85.11zm1437.46-85.13c8.14-10.08 10.23-20.6 15.62-31.67 11.36-23.31 33.48-55.362 51.86-72.369 12.05-11.149 70.27-13.395 87.15-12.328 20.02 1.087 40.47 2.612 60.45 4.419 12.48 1.129 50.57 1.39 58.88 9.915 10.32 10.593 16.65 26.896 27.83 38.823V1152h-292.85c.15-31.9-5.58-54.88-8.94-85.13M0 1003.88c27.401-31.918 10.908-42.735 60.53-46.517 40.497-3.087 147.586-16.216 177.558 9.843 12.922 11.235 33.403 38.144 41.482 53.344 4.923 9.26 8.512 19.17 13.237 28.56 2.341 4.65 8.263 12.98 8.871 17.92 1.281 10.41-3.887 33.65-5.378 45.5-1.633 12.98-2.451 26.39-2.326 39.47H0zm1033.67-474.45c1.07.737.28.131 1.06.849 17.97 16.462 40.58 30.227 60.21 44.54.95 14.342.22 29.355.69 43.811 2.74 83.776 10.48 167.258 14.7 250.94-19.27 2.915-58.19 4.218-78.39 4.955-1.3-19.416-.09-49.176-.13-69.412l1.2-171.393.75-54.716c.09-6.831 2.47-24.634-3.13-28.842-2.83-.26-1.82-.59-3.8.998-1.57 7.188-1.06 24.709-1.06 33.09.48 19.707-.66 44.878-.99 64.944l-1.17 103.378c-.73 37.298-2.17 73.228-.87 110.694-17.36 3.447-33.613 3.007-51.281 3.452q-27.049.93-54.111 1.265c2.274-26.325 9.692-66.68 13.64-93.612a7759 7759 0 0 0 15.728-121.063c3.443-26.431 7.889-52.492 10.548-79.031 4.857-3.557 16.486-9.101 22.35-12.309 9.996-5.465 17.093-10.136 26.436-16.525 13.12 4.151 18.41 2.2 24.76-11.474 1.16-2.492.85-2.454 2.86-4.539"/><path fill="#fefefe" d="M979.278 421.099c3.97.643 6.926.377 10.729 1.732 18.943 6.745 20.113 33.185 34.033 40.757 15.81.745 26.61-45.555 49-34.807 6.05 2.281 12.43 7.61 16.19 13.089 25.61 37.265 44.5 79.643 65.06 119.804 3.11 6.085 11.96 33.437 1.05 32.808-33.18-1.91-76.79-45.697-103.33-59.565l-.98-.501 10.78-14.145c1.15.834 2.32 1.619 3.53 2.354 8.16 5.054 55.65 27.696 67.7 28.008 1.03.027 1.55-1.35 2.22-2.435l-.72-2.09c-3.08-2.747-34.01-14.952-40.31-17.792-.01-8.406.9-27.245-4.37-33.256l-1.47.294c-3.77 6.957-2.06 21.191-1.74 29.592-8.37-3.845-14.63-6.769-22.54-11.407l-.01-1.012c-.03-11.793-10.84-19.955-20.47-24.875-20.48-10.47-37.8 16.704-51.984 26.731-5.45 3.853-16.893 7.657-23.309 10.079 2.05-7.445 8.29-34.976 2.735-40.069-6.872 3.576-9.415 34.32-10.359 42.623-10.067 4.587-47.417 16.111-50.773 21.508.413 2.927-.15 1.858 1.978 3.877 8.327 1.885 70.086-24.16 80.945-29.82 1.811 8.11 3.189 10.401 7.227 17.48q-.616.466-1.247.914c-12.641 9.01-105.31 60.974-113.849 45.054.011-4.381 1.56-11.871 3.432-15.79 20.367-42.646 39.095-86.213 62.61-127.294 7.268-12.698 14.408-18.395 28.242-21.846m32.472 453.356c2.27-.291 5.09-.92 7.31-.266 4.18 1.227 3.06 6.163 5.01 9.043 1.38 2.023 25.14-.933 29.61-.38 5.12 6.173-1.75 67.485 8.41 81.5 6.19 4.415 27.96 2.84 36.78 2.711-39.82 55.397-57.06 94.047-70.77 160.157l-4.31 17.22c-1.21-9.53-4.99-20.42-7.06-29.82-9.04-40.9-39.431-115.915-66.838-147.201 8.465-.078 24.251 1.463 31.048-3.832 6.223-4.846 11.874-75.942 12.511-88.325z"/><path fill="#fefefe" d="M1039.73 297.017c1.04-.338.76-.102 2.25.451 14.53 22.2 25.19 46.086 14.67 73.407-4.6 11.969-10.59 14.658-21.57 19.372 3.57 12.11.03 20.894 4.07 31.748-22.65 1.005-28.31 6.539-26.32-19.749.15-2.756.16-5.527.2-8.288-1.98-4.342-12.05-8.524-16.046-13.319-2.072-1.502-5.043-12.94-7.527-12.524-16.043 2.689-27.084-1.482-18.37-19.523 2.681-5.55 12.61 2.868 17.399 2.189 2.09-4.385-1.046-3.905.624-9.466 9.669-32.192 25.48-33.966 50.62-44.298"/><path d="M1025.4 358.556c6.86-.236 20.78 6.514 21.31 13.903-2.36 2.685-11.17 7.17-14.75 9.175-6.78 1.256-19.85-3.059-20.82-10.681 1.53-3.186 10.73-9.555 14.26-12.397m17.22-42.191c6.17.816 8.29 3.771 8.59 9.747-1.68 2.46-.58 1.6-3.41 2.637a100 100 0 0 1-5.93-.572c-3.11-2.632-2.31-1.302-3.32-4.937.7-3.675 1.55-4.283 4.07-6.875m-34.41 1.009c4.21.237 7.24.305 9.86 4.043 1 3.161.38 4.261-.65 7.325-3.41.143-5.79.516-8.99-.62-1.75-3.509-.69-6.329-.22-10.748m32.47 23.246c5.03.153 5.58.107 7.77 4.246.15 3.796-1.6 6.736-3.2 10.211-2.22-.146-2.47-.446-4.3-1.616-2.61-4.402-1.38-8.068-.27-12.841m-29.12-.268 3.95 1.625c4.71 4.956 3.11 9.094-1.22 13.369-6.31-4.688-4.89-8.691-2.73-14.994"/><path fill="#fefefe" d="m940.296 876.76 1.163-.342c2.945 4.38-.92 50.281-1.733 58.328-8.164 2.257-27.065 10.127-35.459 13.46l-2.417.868-1.153-.809c-.117-6.092 4.368-16.591 5.512-22.771 2.975-16.079 5.288-32.276 7.409-48.477 8.538.164 18.063-.155 26.678-.257m92.324-595.526c20.15-5.036 41.86 21.671 38.95 40.673-1.09 7.105-1.71 14.035-2.25 21.198-1.96-6.988-2.33-17.315-6.08-24.55-3.33-6.432-13.28-29.546-18.97-31.995-3.29-.357-8 2.836-11.71 4.527-32.04 8.812-35.18 15.8-49.539 44.216l-.74-.193c-2.001-10.194 1.312-29.967 7.171-38.664 9.508-14.113 27.138-12.08 43.168-15.212m-1.05 219.438c2.03.399 2.11.601 3.8 1.683-1.44 2.361-1.57 2.45-1.43 5.113 2.03 2.47 1.62 1.734 5.26 2.87-3.1 5.409-23.63 24.661-30.23 26.462l-1.9-1.659c-2.74-4.478-4.09-8.515-5.93-13.384 1.92-7.017 5.84-17.998 14.37-18.4l.7.779c-2.14 2.669-2.69 3.308-.78 6.219 5.84.278 11.33-5.687 16.14-9.683m-65.35-127.351c12.589 6.647 19.225 2.395 28.148 15.807 3.88 5.831 9.152 5.857 11.182 13.453-1.91.253-3.84.419-5.763.499-18.649.616-33.349-10.473-33.567-29.759m75.85 55.983 3.02.213c-.29 5.513-15.57 21.378-19.78 25.728l-4.95-8.912c-2.46-3.944-7.11-10.634-7.84-14.966 2.95-2.204 12.3.796 17.7.168 5.17-.601 6.62-.836 11.85-2.231m20.89-53.76c6.08 1.528 7.94 4.811 4.83 10.517-4.05 7.462-9.79 11.019-17.31 13.612-1.64.172-2.77-.087-4.38-.325-1.73-4.849 10.3-11.505 12.9-16.093 1.61-2.846 2.67-4.595 3.96-7.711m5.92-27.344c12.15 2.138 8.99 12.911 3 19.933-1.08 1.091-2.28 1.012-3.86 1.216l-1.46-1.563c-.32-4.967 1.49-14.336 2.32-19.586m-13.14 158.202c1.38 7.14-6.29 18.277-12.24 21.998l-3.63-.941-2.1-2.217c.55-4.833 13.18-14.42 17.97-18.84m771.95 298.38c.66 4.674-1.5 14.218-4.01 18.444-.68 1.148-2.85.844-4.24.931-1.43-2.446 6.6-15.745 8.25-19.375"/><path d="M1057.31 102.537c4.26 1.186 28.91.815 34.62.968 98.61 2.64 197.21 4.852 295.83 7.255l148.48 2.412q68.565 1.03 137.04 4.635c20.53.959 51.92 1.275 71.09 5.676-21.29 2.762-43.48 1.562-64.58 2.275-52.06 1.758-103.47 1.684-155.53.573-17.51-.374-36.63 1.687-54.25 1.543-14.15-.116-28.35-.946-42.52-1.012-45.3.14-90.59-.403-135.86-1.628 5.36 8.756 9.74 18.189 14.97 27.126 80.98 138.42 171.83 273.023 282.86 389.305 12.08 12.648 25.03 24.195 37.37 36.443 28.42-2.075 55.66-1.834 82.8 7.736-1.92-8.621-1.02-23.087-1.01-32.404l.8-72.933 3.31-199.183c.07-3.18-1.8-14.691-1.46-16.015 3.39-13.384-1.53-108.845 8.09-113.384 4.82 4.446 5.22 56.823 5.31 66.18l.93 60.99c2.26 98.58 2.45 197.196.59 295.784-.66 37.049-.16 74.698-2.11 111.726-.19 3.685-1.42 9.253-3.64 12.36-1.75 2.463-3.09 2.068-5.79 2.266-8.36-5.36-6.41-68.64-6.04-81.211-7.49.123-15.05.102-22.55.132-.22 42.794-11.41 91.262-15.88 134.111-1.19 11.351-5.38 23.779-4.99 36.024.15 4.909-.83 12.65-5.98 14.409l-2.01-1.593c-2.11-4.371-2.61-10.47-2.23-15.256 4.38-56.366 16.08-111.462 21.47-167.761-8.11-.767-16.64-.819-24.82-1.008-.8 19.918-9.8 130.442-17.95 139.173-.56.602-1.43.353-2.22.367-1.35-1.478-2.82-2.834-2.84-5.242-.19-28.695 2.33-58.841 5.11-87.323.81-8.271 6.8-41.649 5.64-46.749-4.76-2.004-12.98-.313-17.04-1.411-7.68-2.076-3.55-26.341-2.15-31.593-18.78-16.09-39.64-31.603-57.01-49.218-104.44-105.908-187.58-232.434-259.39-362.125-5.7-10.289-19.19-44.007-25.18-49.102-12.49-1.567-34.78-1.1-47.82-1.083-22.07.036-44.13-.1-66.19-.406l-120.9-.746c-18.88-.088-43.22-1.787-61.304.545-3.427-1.139-31.774-.049-37.726-.021l-145.161 1.068c-11.404.099-29.44-.577-41.272.56-1.006.097-7.336 15.472-8.528 17.821-13.033 25.677-26.453 54.115-40.966 78.81-17.264 29.375-34.022 58.579-52.337 87.24-35.761 55.963-73.071 105.702-115.392 156.67-38.865 46.803-66.729 79.922-115.479 117.323 1.297 6.917 1.785 13.964 2.397 20.946 1.508 17.218-12.6 14.887-24.349 14.653 2.646 10.717 3.607 21.888 5.433 33.21 5.511 34.155 8.571 69.033 8.58 103.636.001 2.31-1.593 3.251-3.236 4.235l-2.09-.526c-5.474-5.629-7.417-31.191-8.217-40.279-2.688-30.52-10.619-70.077-10.248-100.1-8.265-.23-16.866-.174-25.162-.235 3.604 36.919 10.529 73.413 15.519 110.115 1.781 13.101 13.565 74.973 3.071 82.523-.558-.375-.802-.488-1.242-.944-9.018-9.33-26.328-169.693-25.252-190.852-7.583-.385-16.773.173-24.5.457-1.181 13.4 2.764 66.899-8.642 69.653-3.19-1.095-4.191-3.601-6.09-6.605-1.728-22.014-1.411-43.067-1.825-65.104a8333 8333 0 0 1-.452-166.056l-.113-122.73c-.107-19.043-2.287-188.472 7.747-197.243l.944 1.062c1.726 8.247.771 15.813 1.542 23.742 2.869 29.524 2.032 58.891 2.935 88.576a5887 5887 0 0 1 4.15 255.733c-.106 18.17.293 36.507.239 54.733-.033 11.367 1.183 12.421-.122 24.694 1.512 1.013 17.928-1.972 21.756-2.123 15.23-.603 43.9-2.056 58.229 1.597 6.108-5.028 17.354-17.608 23.255-23.622 18.693-19.049 36.506-38.612 53.829-58.913a1831 1831 0 0 0 142.158-188.33c25.536-38.791 48.628-78.974 72.833-118.541 13.448-21.984 23.464-44.644 36.256-66.232-11.27.852-25.693.621-37.286.792l-64.311 1.149c-49.139.948-291.633 8.101-323.591-5.16 15.633-.017 32.57-1.232 48.398-1.654q76.006-1.96 151.974-5.053l292.177-8.15a5422 5422 0 0 1 167.784-2.397c25.477-.215 51.617 1.809 77.317-1.756"/><path fill="#fefefe" d="M406.097 587.573c15.771.488 12.28 9.233 12.138 21.887-3.333-.071-6.842-.33-10.123-.927-19.729-3.588-38.273-2.41-58.175-1.298l-13.757 1.448c-.403-6.011-.649-9.514-.202-15.62 6.361-5.57 58.105-4.782 70.119-5.49m1225.283-.263c24.96 1.199 54.29-1.592 77.37 6.592.1 4.762.91 8.289-1.32 11.999l-3.69.585c-4.61.039-9.55-.127-14.15-.368-20.19-1.058-40.28.849-60.45.529l-1.89-1.669c-1.53-3.445-.05-8.777.39-12.619.39-3.371 1.34-3.423 3.74-5.049"/><path d="M1066.28 78.628c8.67 2.277 25.69 1.526 35.3 1.511 58.21-.09 115.98 1.713 174.15 3.5l121.72 2.678c77.03 1.18 154.06 3.169 231.05 5.965 15.89.44 123.39 1.355 131.97 5.945-1.69 2.821-6.13 2.522-9.08 4.229-.14.081 1.27 7.588 1.41 8.494 2.08 13.711 2.41 28.325 3.09 42.217a3698 3698 0 0 1 2.88 71.402l5.91 227.892c.37 19.012-.73 51.528-.14 70.029.56 18.01.81 116.766-4.2 125.322l-1.42-1.034c-6.4-14.932-7.17-95.452-7.92-115.721-1.42-38.183-4.08-76.356-5.14-114.558-.98-35.367-1.74-70.961-1.85-106.333-.03-12.111.68-24.213.59-36.326-.42-57.66-1.43-115.327 3.84-172.856-59.28-1.28-123.01 2.785-183.69 2.067-38.21.494-72.89-1.396-109.97-1.537l-371.93-1.486c-56.85-.247-116.786-1.612-173.361-1.094l-404.986 4.949q-50.379.338-100.752-.519c-30.798-.229-72.032.559-101.861-5.918 6.246-1.733 30.562-1.456 38.259-1.644l80.701-2.228 556.279-13.048c12.726-.367 82.111.996 89.151-1.898"/><path d="M882.31 131.498a138.7 138.7 0 0 1 40.458 3.236c40.153 9.382 78.672 33.556 100.702 68.947 13.27-17.105 24.04-30.037 41.81-42.569 72.02-50.802 176.06-30.172 224.6 43.044 72.76 109.771 16.75 241.194-29.22 348.517a10790 10790 0 0 1-51.34 119.517l-21.64 49.654c-7.33 16.539-6.73 21.012-21.69 31.635 3.37-11.278 9.43-24.702 14.11-35.806 8.18-19.474 16.55-38.87 25.09-58.186a6581 6581 0 0 0 47.1-111.147c21.16-49.979 42.37-98.929 54.95-151.995 20.76-87.546 3.03-198.219-86.44-240.247-13.78-6.476-25.64-9.271-40.34-12.54a133.9 133.9 0 0 0-45.17-.688c-33.33 4.993-65.68 20.776-88.2 46.227-8.95 10.116-15.68 21.207-23.67 32.027-5.83-9.547-12.37-21.075-19.73-29.296-76.539-85.583-208.662-60.524-260.869 37.529-51.496 96.718-11.719 190.858 21.363 284.364a3216 3216 0 0 0 64.426 168.97c2.968 7.164 20.718 44.962 19.59 49.669l-1.996 1.18c-2.053-.367-2.625-.526-4.188-1.907-14.108-12.459-100.419-252.392-110.105-285.122-10.024-33.874-19.943-68.558-22.084-103.978-3.349-55.403 13.242-111.346 50.367-153.188 31.73-35.762 74.841-54.944 122.116-57.847m-587.034-23.795c5.81 6.106 7.84 155.367 7.892 174.971a7427 7427 0 0 1-4.617 245.652c-.655 25.179-.382 50.153-2.639 75.45-.229 2.566-1.29 18.582-1.036 19.71.119 4.655.344 17.22-5.988 17.59-5.426-6.866-4.613-85.252-4.712-99.854a6130 6130 0 0 1 3.446-297.975c.642-23.607-.761-119.288 7.654-135.544m289.779 395.218c13.791 18.429 19.458 38.331 40.08 54.513 20.195 15.846 35.412 18.252 59.666 16.246-3.807 5.024-4.986 6.398-9.807 10.425-10.354.262-17.424-.478-27.484-2.435-18.799 19.2-28.935 31.628-41.546 55.715-4.75 8.731-9.546 26.993-14.277 31.947-3.006-1.98-5.31-21.865-6.482-27.26a84.26 84.26 0 0 0-23.963-42.678c-3.319-3.247-7.958-6.097-10.244-8.892.173-4.601 3.546-5.893 7.542-8.118 17.552-9.774 27.557-25.853 39.38-41.98-7.977-9.646-17.547-24.946-12.865-37.483"/><path fill="#fefefe" d="M600.135 547.505c3.756 2.079 16.246 14.826 20.485 18.439 6.853 5.84 10.044 7.639 18.07 12.253-18.453 14.294-30.79 33.957-41.763 54.08-1.198 2.158-1.363 3.423-3.251 4.186-7.475-21.128-13.067-31.477-28.951-47.582 13.468-8.979 31.469-25.325 35.41-41.376"/><path d="M1457.34 507.204c3.86.614 4.29 1.045 5.99 4.078.49 8.416-9.9 23.125-14.62 30.265 10.03 15.304 18.95 28.934 34.19 39.642 3.82 2.684 8.64 3.32 10.65 7.825-1.28 4.138-7.51 6.111-11.38 10.235-6.82 7.293-9.04 11.545-13.38 19.698-6.35 11.914-7.31 37.216-12.45 47.164l-1.43.449c-5.08-3.066-10.96-19.583-13.74-26.06-7.91-20.991-27.75-45.739-44.96-59.976-5.92 1.749-30.04 5.572-31.33-2.646 6.09-8.498 14.33-1.625 24.69-5.065 38.75-12.866 49.41-34.241 67.77-65.609"/><path fill="#fefefe" d="M1443.44 547.669c1.49.994 7.13 9.463 8.34 11.283 8 11.992 15.51 20.958 27.07 29.547a97.7 97.7 0 0 0-21.45 30.616c-2.18 4.804-4.4 16.065-6.03 17.685l-2.28-3.687c-12.26-23.597-23.02-37.499-41.3-56.238 16.43-10.312 23-14.866 35.65-29.206"/><path d="M1508.58 699.326c17.2-1.334 36.15 5.015 46.7 18.845 2.98 3.907 4.31 5.361 3.76 10.28-3.93 3.762-11.88 2.623-17.59 4.218-27.14 7.589-46.67 29.93-54.59 56.559l-4.52 17.467c-7.5 1.271-12.94 1.348-20.53 1.582 11.46-30.501 10.46-43.897-3.03-73.973 14.1-21.511 23.53-31.056 49.8-34.978m-980.238-1.122c28.546-2.146 46.823 12.689 58.597 37.516-9.282 17.346-9.738 39.809-7.176 58.89.615 4.582-.456 13.464-6.316 13.591-6.38-4.38-6.699-7.895-8.382-15.145-19.677-63.155-69.188-55.445-76.196-66.236-1.249-13.226 28.654-26.208 39.473-28.616m-9.688-445.634c.809.725 1.144 1.482 1.724 2.433.353 3.914-2.091 10.558-3.706 13.767-17.239 34.25-121.623 202.512-146.995 212.201-1.799-1.467-1.718-1.369-2.631-3.507 1.951-8.25 69.293-104.228 79.377-120.602 15.244-24.751 38.944-61.56 56.306-86.215 4.908-6.969 9.079-12.788 15.925-18.077m994.246 5.956c7.87 2.285 27.61 32.683 33.71 41.385a7823 7823 0 0 0 53.72 77.078c21.66 30.672 44.95 60.718 66.53 91.483 3.45 4.91 4.69 8.365 4.95 14.252-7.02 1.165-12.16-5.311-16.49-10.37-45.22-52.78-86.13-111.258-122.6-170.348-6.83-11.064-20.38-31.4-19.82-43.48m-32.11 75.906c6.07 1.109 27.44 29.621 32.39 36.002a6021 6021 0 0 1 45.52 59.909c18.9 24.966 39.47 50.548 56.82 76.553 1.91 2.862 2.64 5.457 2.87 8.875-4.74.338-8.04-2.035-11.15-5.319-24.4-25.771-125.16-146.977-126.45-176.02m-932.132-5.796.865.713c1.355 1.62 1.764 3.572 1.281 5.592-3.989 16.659-21.113 38.973-30.268 52.915-19.438 29.602-67.18 101.489-94.596 121.545-1.868-.954-1.245-.448-2.214-2.837.31-7.249 20.186-31.899 25.236-38.81a4134 4134 0 0 0 46.535-64.131c12.809-18.061 39.948-61.263 53.161-74.987m1017.272-171.11 2.89 1.115c4.88 4.785 38.75 80.126 45.37 93.339a2517 2517 0 0 0 25.47 49.314c5.03 9.347 24.81 44.208 26.53 52.12-.57.092-1.33.242-1.83.187-1.91-.207-2.86-.505-4.16-1.967-19.86-22.406-93.71-171.867-94.27-194.108m-1110.497 2.891c2.802 1.763 2.313.884 3.325 3.484-2.942 14.6-12.28 32.884-18.348 46.652-17.49 39.686-36.673 78.455-56.354 117.09-4.081 8.012-7.953 16.807-12.772 24.337-1.84-2.103-2.01-2.406-2.853-5.07 9.731-30.574 30.754-67.797 44.683-97.832l23.572-51.75c4.807-10.595 11.997-28.296 18.747-36.911"/></svg>