<svg xmlns="http://www.w3.org/2000/svg" preserveAspectRatio="xMidYMid meet" viewBox="0 0 2048 1462"><path d="M120.842 100.62c8.282-1.149 25.634-.55 34.647-.423l61.862.82 258.36 2.051 994.279 6.579 173.07 1.404 52.45-.168c10.91-.049 28.81-1.95 37.55 3.848 3.75 11.608-.71 108.612-1.03 129.233l-4.27 312.202a131.5 131.5 0 0 1 55.42 28.831c35.25 30.496 51.58 67.647 58.12 113.242 2.15 12.227 1.64 25.86 3.63 37.97 7.2 43.82 6.55 87.336 9.64 131.562 15.71 6.696 29.13 10.853 42.2 22.567 12.95 11.609 22.86 22.523 30.56 38.273 13.61 27.811 18.19 57.872 19.82 88.479 2.49 46.2-5.11 92.4-13.18 137.73-2.03 11.43-2.8 16.25-1.82 27.9 2.89 34.5 5.62 69.05 8.21 103.58.43 5.76 1 14.72-3.03 19.25-3.76.92-2.22 1.01-5.83-.31-6.74-6.49-5.87-29.12-6.36-38.73q-1.2-21.345-2.97-42.66l-8.39-101.3c-1.2-14.18-3.35-27.92-4.05-42.17-20.9-.06-42.2-1.39-63.26-1.61-62.76-.66-125.58-1.74-188.33-2.77-18.74-.3-55.28-3.28-72.39.5-2.53 5.88-8.96 35.89-10.95 43.92-12.5 49.58-23.85 99.45-34.03 149.56-3.12 15.02-5.53 34.24-10.78 48.59-1.07 2.93-2.59 3-5.03 3.84-1.55-.56-2.01-.38-2.89-1.88-5.61-9.6 10.08-72.01 13.25-85.15-8.41-.03-17.48-.46-25.97-.64-4.17 4.31 2.31 64.26 1.85 74.85-.5 11.43-10.09 18.75-12.55 4.52-5.14-29.76-6.85-215.68-17.85-233.48-10.99-2.7-56.13-1.08-69.55-1.46-40.73-1.16-81.91-1.47-122.68-2.09l-91.64-1.77c-13.87-.23-33.62-1.35-46.81-.19l-42.97 192.7c-3.87 16.7-7.27 34.06-11.92 50.46-1.42 5.01-23.46 5.5-23.26-5.55.13-7.36-.19-17.61-.58-25.08l-4.25-76.71c-2.33-41.76-7.09-89.99-11.4-131.8-41.27.02-83.677-1.86-124.628-1.12-5.162-1.54-36.981-1.29-43.85-1.24-53.197.42-107.02-2.47-160.128-2.21-8.728 47.79-23.371 98.24-34.014 145.79-6.106 24.07-10.004 48.63-15.742 72.77-1.632 6.86-.982 15.95-6.414 20.63-3.933 1.18-2.475 1.27-6.264.44-3.366-3.67-2.92-8.94-1.894-13.58 5.444-24.6 11.003-49.13 16.854-73.64l19.011-80.81c3.488-14.28 16.3-75.88 20.74-82.72 3.293-1.28 7.971-1.76 11.512-1.72 71.305.83 142.588 3.08 213.911 3.63 10.415.08 20.864.07 31.261.58-.332-37.48 3.84-75.791 2.116-113.328-.312-6.781 5.852-11.008 11.368-6.963 3.728 10.073-.257 103.401-1.066 120.271l23.987.23c-.46-6.54 2.21-25.21 2.4-34.15.88-43.257 8.13-93.811-7.58-134.923-17.951-47.006-83.319-52.13-126.359-57.346-86.515-10.486-178.866-13.284-260.723 21.055-19.685 8.258-27.724 15.044-40.168 32.246-40.193 50.43-72.914 107.388-98.056 166.778-10.627 23.82-20.318 68.73-10.856 93.29 12.825 33.29 88.21-2.2 109.515-10.73 4.718-1.89 20.795-9.9 24.23-13.59.123-.13-1.856-24.35-1.014-27.27.105-41.56 3.398-82.67 7.92-123.967 1.013-9.25-1.736-24.593 7.229-28.357 2.739.627 3.85.896 5.67 3.244 2.513 3.24-5.789 82.48-6.333 90.84-4.114 63.24 4.116 125.93 1.146 189.09-.563 11.98-.151 25.27-2.286 37-.576 3.16-1.728 8.11-4.48 9.98-7.803 5.3-20.435 7.93-29.443 11.29-24.751 9.25-47.124 18.81-68.765 34.21-8.975-.58-38.239.61-42.774-2.55-3.841-8.6-5.436-69.98-7.741-86.34-17.921-.71-34.42-.31-52.318 0 1.013 26.52-2.497 53.61-2.462 80.18.003 1.85-2.253 5.35-3.331 6.91-3.442 1.52-1.688 1.25-5.468.81-10.073-8.04 2.75-80.51-1.384-87.75-3.843-1.27-21.232-1.82-24.905-.13-4.947 9.23-.636 71.58-4.012 83.16-5.793 6.44-55.882 5.08-62.723 1.42-4.26-9.49-3.038-30.31-4.756-41.26-4.378-27.91-4.066-63.52-9.863-90.67l-.262-1.2c-8.236-9.29-29.916-28.75-39.753-38.06-18.184-17.2-40.799-41.59-59.792-56.7.223-7.19-.343-29.08 3.677-33.4 8.961-4.09 66.752-1.1 81.333-1.05-.07-50.91-2.547-101.526-3.512-152.412-.409-21.582-.655-40.519 1.842-61.926-23.264-1.281-45.709-.591-68.877-.811-26.01-.246-52.356-2.579-78.458-2.207-8.195.117-17.667.03-25.76-.841-2.631-2.033-5.887-18.368-5.303-20.912 3.744-16.317.177-32.23.299-48.152l5.575-361.937c.52-25.927 2.414-52.704 2.822-79.1l2.375-141.835c.198-11.639.207-77.994 3.164-85.501 3.015-1.994 5.018-1.741 8.662-1.956"/><path fill="#fefefe" d="M158.015 113.816c37.231-1.213 78.534.824 116.027 1.003q139.735.075 279.457 1.972l776.001 5.436 246.8 1.719c41.5.292 87.5 1.476 128.58.816-.01 22.55-1.04 46.453-1.41 69.182l-2.11 140.328c-.74 72.475-2.21 144.94-4.41 217.385-55.17 1.247-100.45 28.647-129.22 75.157-15.75 25.45-20.72 59.92-16.03 89.368 1.15 7.167 3.29 13.779 4.94 20.813 1.45 11.734.38 24.141 2.54 35.903 1.66 9.124 5.9 17.394 8.52 26.169 1.38 4.637 2.35 10.332 3.47 15.129-16.36 1.904-60.27-.75-78.17-1.056l-101.67-1.31c-31.32-.61-64.79-1.867-95.96-1.156-.34-9.281-5.54-34.184-3.44-39.866 5.55-15.006 23.03-20.969 21.89-44-.67-13.663-7.35-21.129-16.98-30.149-.75-5.463-1.22-11.301-1.8-16.789-6.29-59.096-44.78-118.288-106.86-128.538-23.32-3.85-40.76-4.991-64.25 2.313a130.48 130.48 0 0 0-76.27 62.759c-16.5 31.284-22.88 62.113-16.62 97.543 1.44 8.177 5.52 20.047 8.12 28.48-6.36 8.378-7.25 10.86-9.77 21.179.36 1.361.76 2.714 1.18 4.058 9.64 30.385 24.55 20.362 32.53 35.849l1.29 2.685-1.21 1.033c-6-1.066-9.04-.239-14.94-.491-56.965-2.434-115.759.455-172.552-2.365-.164-15.711-9.225-16.641-22.212-18.798 10.902-10.396 31.531-35.376 38.195-48.335 11.694-3.737 23.56-10.519 29.779-21.541 6.114-10.835 5.029-23.413-2.334-33.354-.445-.601 3.735-14.234 4.326-16.197 6.224-19.468 11.873-41.067 6.259-61.392-1.794-6.49-5.161-12.033-9.388-17.232-6.74-8.29-15.153-12.669-24.359-17.642-3.92-14.063-8.59-23.13-20.827-32.033-27.278-19.115-64.486-24.345-96.891-19.08-64.757 10.522-102.024 56.557-91.724 121.957-13.959-5.195-25.873-12.33-40.588-17.686-5.137-6.545-18.862-30.656-23.853-38.814a1537 1537 0 0 0-49.56-77.42c-3.085-4.519-8.216-15.054-11.144-18.118-6.643-6.95-17.838-15.028-25.657-21.073a5066 5066 0 0 1-42.36-33.255c47.268-13.28 63.169-31.807 24.499-72.403-4.997-24.316-6.382-15.372 9.21-28.546 3.694-16.535.48-26.811-16.686-31.975 9.654-10.872 15.738-28.531 13.758-43.034a44.8 44.8 0 0 0-17.19-29.402c-12.786-9.597-24.926-8.754-39.708-6.673a75.7 75.7 0 0 0-23.448-9.018c-58.588-11.785-129.259 37.198-116.2 101.722 2.182 10.78 14.492 23.983 10.666 36.482-5.675 18.541-24.465 31.217-28.168 50.86-5.447 26.928 33.197 33.546 52.774 35.949-45.963 36.018-65.103 23.431-81.472 91.422-11.889 49.383-34.806 111.492-33.423 162.955.864 32.163 15.136 79.797 21.079 112.924-17.963 1.159-37.657-.159-55.984-.142-20.012.019-41.527 1.228-61.425-.89-5.489.28-3.624-5.164-3.977-9.897-1.783-23.89.728-47.275 1.125-71.053l1.306-105.434c.166-9.044-.56-18.453-.382-27.483 1.633-82.71 4.451-165.566 3.575-248.286-.171-16.22 2.04-37.738 2.359-54.48l-2.29-3.293c3.042-23.774 3.46-46.36 2.077-70.408-.228-3.97 1.921-9.563 2.02-14.239.765-28.728.955-57.468.57-86.204"/><path fill="#fefefe" d="M499.54 453.066c3.576 1.689 53.59 44.247 56.273 48.126 28.971 41.885 53.027 89.651 83.139 130.573.541.735 45.593 21.444 50.23 23.375 6.735 15.939 3.416 12.483-5.634 25.731-2.517 3.684-1.838 9.629-1.891 13.659-.241 18.219 12.129 19.852 22.027 31.21 1.387 1.674 5.108 14.046 6.193 17.259-20.399-6.73-39.777-11.454-60.471-16.945-14.609-3.876-31.163-5.041-43.807-12.381-2.176-1.263-7.43-5.228-8.617-7.242-3.277-5.963-36.964-44.75-37.056-46.416-1.422-25.804 15.957-48.581 8.726-74.213-4.691-16.63-8.442-62.533-20.585-69.618-3.11.25-1.941-.133-4.592 2.44-3.361 7.35 16.061 64.26 15.131 77.146-2.235 30.965-15.569 59.971-17.041 91.409-.771 16.484 2.302 34.256 4.305 50.711a3735 3735 0 0 1 8.289 72.951c-43.441 12.891-131.631 15.976-178.322 15.558-3.81-11.173-7.599-33.255-10.021-45.172-4.761-23.423-9.843-47.69-13.619-71.252-5.24-28.337 5.463-68.755 7.017-97.753.434-8.106 6.852-25.907 2.684-32.377-3.175-2.089-1.734-1.694-5.481-1.906-6.793 3.762-8.405 27.672-9.168 35.77-2.991 27.993-8.702 55.535-8.767 83.543-.062 27.376 43.546 201.786 40.241 210.468-10.117 6.909-50.563 16.53-64.983 20.139-.952.002-5.028.653-5.388-.391-11.533-33.411-18.817-84.131-25.805-117.481a4856 4856 0 0 1-13.978-67.268c-2.585-12.418-5.751-24.861-7.56-37.416-1.452-10.068-1.769-18.428-.7-28.64 3.317-31.698 33.349-167.363 48.989-186.566 12.697-15.588 33.127-22.292 48.293-34.832l1.11-.929c14.353 8.266 33.234 27.446 45.891 39.029 7.173 6.564 16.689 19.781 25.378 24.078 6.684-4.407 19.16-39.118 22.278-48.249 8.243 12.041 17.417 24.002 26.327 35.597 3.263 4.247 7.49 10.107 13.131 7.599 6.467-8.885 4.674-43.65 7.648-58.43zm674.31 393.291c1.68-.302 6.52-1.055 6.64 1.62 3.1 73.411 19.43 163.673 74.88 216.783-11.66-1.36-40.66-.69-54.13-1.31-9.31-.42-51.7-1.33-59.26.04-4.15 4.51-24.9 102.13-27.76 115.65-12.75-53.93-23.9-108.23-34.33-162.68-2.08-10.81-3.68-35.195-10.63-42.16-3.66-1.242-2.07-1.131-6.08-.135-2.72 2.719-1.87 1.82-2.94 6.044 10.28 52.331 19.81 104.811 31.04 156.941 3.39 15.78 6.44 32.26 11.79 47.51-8.51-.43-17.24-.5-25.77-.68-1.11-17.95-5.91-104.44-12.11-114.31-6.73-3.79-31.23-2.9-40.43-3.18 5.52-28.73 6.93-126.146-.05-154.427 38.09-33.164 99.34-58.19 149.14-65.706m127.06 1.814c32.46 4.006 84-6.762 106.92 19.519 34.53 39.58 42.06 114.415 37.31 165.28-1.05 11.26-.64 22.69-.59 33.79-3.86.15-10.38.78-13.57-.74-2.03-6.31-2-19.64-2.95-27.35-4.41-35.91-4.06-75.411-12.86-110.3-.95-3.782-3.3-4.283-6.24-5.662-10.86 7.039-1.82 20.979-1.28 31.85 1.73 34.869 11.73 77.062 9.11 111.682-10.63 1.08-27.38 0-38.59-.11-18.61-.03-37.21-.18-55.82-.45-16.08-.32-33.29-1.21-49.21-.65 16.03-17.18 26.28-51.5 31.33-74.095 10.34-46.267 4.81-96.615-3.56-142.764M220.551 1070.41c22.448-1.54 62.893.22 86.186.54a8496 8496 0 0 1 156.415 2.55 195 195 0 0 0-7.444 43.56c-1.056 18.19-1.803 36.12 11.04 51.2 23.114 27.14 86.291-.54 112.939-11.27 6.864-2.76 19.764-11.65 25.639-11.44l1.182 1.31-.501 3.96c1.278 6.07 3.369 32.75.256 37.76-6.078.92-18.697.47-25.307.4l-48.85-.64-192.553-1.4c-27.108-25.63-53.398-52.89-80.334-78.8-6.696-6.44-36.301-32.77-38.668-37.73M1570.92 874.207c2.99 4.236 1.74 97.956 3.54 110.302.03.242.93 15.861.91 16.041-.69 7.97 12.64 61.02 11.33 63.31-5.23.08-9.9 2.52-11.63 7.73-3.43 10.32-5.76 21.15-8.5 31.71q-9.885 38.1-19.32 76.32c-19.11-63.19-19.92-134.43-24.81-199.833-.41-5.421-1.68-10.314-6.8-12.492-10.25 2.494-4.06 49.405-3.25 60.135 1.35 11.03 1.02 24.43 2.31 35.21 4.26 35.85 8.59 90.15 22.19 122.8-8.13.49-22.94 2.68-30.46.16-7.38-2.48-7.18-96.36-12.71-110.4-6.73-17.1-26.63-3.7-35.32-8.15-1.15-.59-.88-.3-1.24-1.5-1.54-5.15-.42-14.05-.24-19.49 1.06-32.45 4.01-73.582 20.72-102.35 21.58-37.15 52.48-58.39 93.28-69.503"/><path fill="#fefefe" d="M469.646 252.612c7.564 6.494 25.111 32.332 23.399 41.696l-4.709-2.664c-2.205-.039-4.014-.095-5.813 1.354-16.677 13.477-6.994 23.473-3.478 40.239.647 3.09-7.159 6.792-3.166 12.021 1.247.398 1.886.622 3.212.505 26.418-2.331-4.28-36.613 2.532-43.765l3.262 1.127c3.37-.265 7.587-3.817 10.63-5.914 3.676 18.096 10.351 53.316 6.217 70.55-3.025 12.607-17.079 23.986-29.814 26.128-6.647 1.119-16.832.455-22.544 3.667l-.245 2.031c1.916 2.619 3.103 2.709 6.241 3.758l1.083.356c2.01 4.83 6.874 27.437 6.253 31.73-1.437 8.048-3.564 20.813-11.899 24.124-9.078-.26-38.667-22.854-46.923-29.545 19.849-23.6 16.281-42.304-1.765-66.837-3.964-5.389-9.59-17.718-17.53-14.783-7.922 2.93-16.41-8.082-14.214-14.988 6.358-5.609 11.648-2.752 17.754.713 14.726-11.281 31.129-13.038 44.57-25.9 2.974-2.846 7.317-5.975 10.584-8.556 6.411 1.791 17.623 3.824 17.959-5.968-1.891-2.587-4.481-2.914-7.69-3.933 8.428-13.461 10.92-22.17 16.094-37.146"/><path d="M472.187 348.636c21.504 1.282 16.193 20.297.237 24.397-2.852-1.952-5.826-3.623-6.329-7.157 2.177-2.444 5.781-2.668 9.673-4.567l-.299-2.329c-5.061-4.73-4.92-3.995-3.282-10.344m-25.893-36.127c4.906.48 4.693.607 7.47 3.968 1.199 4.148.735 5.818.161 9.987-10.041-.634-10.808-5.403-7.631-13.955"/><path fill="#fefefe" d="M555.045 672.949c27.282 31.963 29.698 53.322 75.215 61.291 25.383 4.444 58.601 15.064 83.7 22.421a759 759 0 0 1 13.13 32.359c-7.204 4.892-8.687 5.52-10.724 13.851.304 1.487.229.907-.239 2.515-4.083 1.474-132.987-.519-149.88-.529-2.966-34.655-17.357-102.239-11.202-131.908M1856.02 881.43c7.46 1.99 19.04 9.048 25.48 13.468 26.59 17.826 42.47 50.974 47.55 81.767 5.98 36.285 7.87 73.205 1.44 109.335-.77 4.29-1.39 20.05-3.54 23.14-2.88-1.92-1.56-29.2-5.7-35-6.61-9.23-13.7-5.28-22.75-7.74-2.95-5.36-.27-35.82.11-44.16.69-15.55 4.53-42.425 2.71-58.482-.22-1.98-3.5-4.411-5.73-5.431-1.4.162-2.23-.063-3.28.974-2.97 2.907-9.19 93.959-9.19 106.759l-22.08-.07c-1.98-62.29-4.28-122.013-5.02-184.56m-416.03-27.794c7.94 2.905 116.66 1.399 136.76 2.943-6.34 3.929-21.02 9.052-28.34 11.717-25.01 9.098-41.31 20.199-59.64 39.1-15.08 18.876-25.23 30.132-31.16 53.794-2.96-.812-3.38-14.815-4.22-18.058-9.46-36.545-14.74-63.489-43.86-89.932 6.99.6 23.99 2.175 30.46.436m-686.404-57.203c9.846-1.326 104.877-.948 109.742 3.669 2.504 7.305 1.107 17.305.498 25.147-7.95-1.081-17.923-1.703-26.066-2.411-39.181-1.514-71.459-3.36-110.722-.711.006-6.32.809-14.332 1.276-20.762 10.088-5.137 14.133-4.461 25.272-4.932m219.486 50.923c22.624.406 45.128 1.259 67.748 1.521 23.66.275 48.27-.904 71.7 2.145-14.57 4.595-22.48 7.437-36.31 14.002-18 7.834-40.12 22.24-54.93 34.984-6.64-17.505-15.5-33.509-31.68-43.848-5.341-3.413-11.629-5.106-16.528-8.804m-593.746 73.616c4.408 1.168 9.457 34.059 8.335 39.911l-1.085-.089c-1.512-5.592-3.612-13.505-5.434-19.218-.544-1.705-2.921-2.093-4.587-2.59-8.146 4.831 1.861 22.516 2.89 30.459 1.09 8.416 7.536 25.997 4.426 34.025-8.143-8.442-12.141-57.572-22.981-57.499-8.388 11.101 12.989 47.39 7.748 62.529-3.791-2.72-12.453-36.348-14.418-43.119-1.592-4.732-3.206-13.03-9.04-12.819-8.434 6.892 11.683 44.317 8.233 55.738-8.72.23-14.207-57.85-25.521-57.206l-2.082 2.45c-.602 5.497 7.708 35.968 9.196 45.088-8.989-13.989-15.888-40.432-19.865-56.847 20.058-9.246 43.526-11.462 64.185-20.813m13.611-484.018c9.325 7.19 36.909 26.398 46.663 31.962-2.527 6.394-9.354 26.742-13.768 29.247l-2.017-1.786c-12.574-13.697-37.711-36.473-52.742-48.372 7.179-4.085 14.415-7.527 21.864-11.051M207.569 1077.74c4.635 3.07 28.615 26.31 33.606 31.07a4545 4545 0 0 1 91.102 89.08c-.237 5.06-.342 6.97-1.437 11.9 1.144.67-20.471-20.65-21.435-21.63l-79.693-79.91c-5.091-5.12-19.381-17.04-22.19-20.73-.348-3.76-.824-6.09.047-9.78m839.041-324.115c6.98 4.973 15.22 16.802 20.3 23.784 24.99 34.349 39.68 50.719 81.66 61.543l-7.82 2.483-14.09 3.076c-28-12.531-34.9-15.21-52.25-43.768-3.56-5.863-5.12-11.03-9.18-16.953-5.18-2.66-9.02 2.739-15.22-3.781-8.28-8.712-12.63-17.203-3.4-26.384m179.89-23.684c4.32.006 14.68-.461 16.22 4.153-4.09 7.763-20.64 7.43-30.02 16.228-10 9.378-12.02 13.06-18.33 25.407-1.39 3.092-2.38 3.919-5.26 5.199-3.46-.691-2.09.178-4.16-2.812-3.96-21.128 25.94-40.026 41.55-48.175m-146.19 503.999c7.94-.1 13.26 0 21.24.61-5.01 18.54-9.24 39.25-12.97 58.1-1.17 4.84-2.72 10-4.07 14.83-1.04-24.53-2.44-49.05-4.2-73.54m-638.803-232.17c2.336 2.45 12.854 50.47 14.8 57.97-2.052 2-2.168 1.3-6.058 1.44-5.878.04-11.927-.33-17.813-.6 3.083-19.64 5.794-39.17 9.071-58.81m33.832-566.271c5.423 3.486 7.753 6.103 12.327 10.738-1.672 10.071-.944 34.672-4.496 43.009l-1.816-1.323c-7.087-7.301-12.099-14.646-17.907-22.911l5.377-5.302c2.014-8.475 3.711-15.931 6.515-24.211m641.981 222.119c2.82.421 1.75-.239 3.43 1.858-.28 4.875-5.57 13.176-7.76 19.82a167.3 167.3 0 0 0-7.7 36.216c-.52 4.962-.97 17.646-3.64 20.655-1.6-.829-1.84-1.23-3.14-2.496-8.09-23.72.05-58.862 18.81-76.053M573.918 847.325c14.793-.336 32.223.348 46.999.885-8.769 3.431-18.835 6.766-26.407 11.987-9.689 8.263-14.046 11.46-20.757 22.545-.92-9.189-3.622-24.061-2.876-32.866.128-1.511 1.37-1.68 3.041-2.551m602.602-257.85c3.9.413 7.01.683 9.89 3.245.31 2.97.45 3.154-3.91 4.539-21.62 6.882-31.15 14.505-43.65 33.142-1.98 2.191-1.83 2.132-4.63 3.017l-1.72-1.259c-1.9-6.902 4.31-16.56 8.48-21.69 9.01-11.093 22.63-16.03 35.54-20.994M720.813 736.709c1.522 1.47 13.132 18.458 14.01 20.352 3.233 6.979 21.729 24.177 22.427 28.024-5.005.62-14.361.615-20.059 1-4.339-15.912-13.045-32.718-16.378-49.376m-26.588-55.542a10.5 10.5 0 0 1 3.759 1.565c3.496 2.35 12.837 29.126 13.744 33.375-17.724-3.771-21.306-19.444-17.503-34.94m219.037 13.406c8.125 7.983-6.552 22.793-12.301 27.955l-1.42-.587c-1.121-5.558 10.112-21.854 13.721-27.368M511.338 311.18c7.978 1.902 9.029 14.583 5.208 20.536-5.263-1.094-6.311-16.312-5.208-20.536"/><path d="M759.159 1091.59c11.955 1.75 25.666.91 37.789 1.55 19.978 1.05 38.935 2.49 59.002 1.16 8.935-.6 20.587 2.76 29.808 2.43 32.303-1.14 64.316-.82 96.597.68 16.372.84 38.785-2.35 53.965 2.61.97 2.84 1.95 5.44 2.17 8.51 3 41.24 5.18 82.57 8.39 123.8 2.13 27.35 4.92 54.68 6.71 82.05.23 3.46.45 9.85-1.72 12.5-10.84 5.18-41.79 4.81-55.12 5.07-17.845-.08-35.545 3.94-53.434 4.13-14.048.15-27.946-2.44-41.966-2.52-11.825-.08-23.57 2.5-35.361 2.36-16.553-.21-33.398-2.27-49.986-3.02-20.373-.93-41.389-.56-61.597-2.93-12.485-1.46-24.628-4.91-37.037-6.65-7.25-1.01-17.311 1.69-23.83-1.1-1.606-.69-2.854-2.26-3.315-3.97-.654-2.43 49.041-217.53 53.122-224.51 4.142-2.27 10.786-1.95 15.813-2.15m407.501 1.36c5.44-.47 18.87.26 24.89.47l52.62 2.12c48.27 1.45 96.56 1.87 144.84 1.24 11.12-.19 68.28-2.24 74 .83 3.07 1.65 3.29 4.04 3.86 7.2 2.53 14.13 2.11 29.4 2.95 43.75l6.05 91.76c1.42 21.75 3.38 61.64 8.76 80.74-11.29 5.45-19.61 9.44-32.2 10.44-5.97-.21-12.54-2.05-18.38-1.83-55.28 2.09-111-2.09-166.08-1.87-22.56.01-45.11.26-67.66.73-17.23.38-34.22 2.34-51.12-1.19-7.63-1.6-26.67-1.01-32.4-5.05-3.28-12.59 13.22-73.42 16.11-89.44 7.95-44.16 20.34-89.17 29.19-133.26.58-2.9 2.43-4.78 4.57-6.64m434.77-1.34c9.16-1.47 54.16 2.07 65.48 2.25 47.47.9 94.97 2.84 142.41 3.64 11.33.19 75.63-2.69 82.63 1.45 5.56 8.51 6.53 82.45 7.33 96.86 2.03 36.65 5.02 74.31 7.71 111.07.09 1.36.14 7.27-1.09 7.89-11.17 5.62-33.42 6.46-45.58 7.82-.46.06-.93.13-1.39.19-38.7-.25-92.85 4.77-129.6 6.59-18.84.93-173.62-4.73-179.78-9.73-.64-8.07 4.36-24.01 6.44-32.54 10.67-43.67 18.67-87.95 29.21-131.65 5-20.71 10.07-41.41 14.32-62.3.64-.51 1.27-1.03 1.91-1.54"/></svg>