<svg xmlns="http://www.w3.org/2000/svg" preserveAspectRatio="xMidYMid meet" viewBox="0 0 2048 1462"><path d="M1293.47 129.33c3.03-.54 13.16-.617 16.68-.644 35.13-.266 68.79 11.561 98.64 29.676 24.45 14.842 44.53 33.041 51.77 62.126 5.11 20.535 2.1 43.202-10.32 60.968-3.35 4.801-11.19 11.484-14.41 16.852-5.31 8.865-8.15 32.912-9.61 43.03-.55 3.809 7.16 23.58 8.23 28.315.69 3.094 1.17 5.079-.49 7.844-6.68 6.019-18.89.687-20.63 2.89-11.02 13.93-15.51 33.171-30.13 45.85-17.72 15.375-34.09 7.859-54.54 4.696-3.39-.525-6.2-2.115-9.48-2.26-.78 2.846-1.71 6.267-2.81 10.262 7.92 12.445 31.22 30.437 40.63 41.063a114.5 114.5 0 0 1 15.74 22.748c4.27 8.018 7.75 18.501 10.62 27.169 32.12 96.878 45.83 201.549 72.42 299.67 4.65-4.522 21.91-15.208 28.46-19.481l65.11-41.914 81.6-53.185c20.57-13.645 42.94-29.027 63.98-41.748 11.83 5.174 22.96 12.378 34 19.086l57.75 35.066c13.23 7.964 22.82 13.956 36.79 20.797 18.92 9.263 66.68 12.257 79.68 24.37 1.24 3.896 4.83 14.276 3.19 17.301-4.01 7.409-22.66 17.905-29.65 22.591l-48.66 32.208c-21.37 13.94-42.66 29.601-64.98 42.228 22.11 14.365 53.33 36.669 65.88 60.092 29.8 55.584-60.33 106.804-101.68 126.424 9.89.86 32.96 5.92 37.52 15.56.02 3.69.59 2.93-1.23 5.27-6.44.33-21.59-5.89-33.32-6.83 16.29 9.32 53.23 13.66 60.99 27.25.27 3.58.66 1.93-1.4 5.07-4.4 1.89-21.32-3.52-26.59-5.06 16.91 13.71 28.29 8.17 46.28 17.74 4.05 2.16 4.57 7.91.97 11.19-4.13-1.88-18.32-5.74-23.76-7.4 2.42 2.09 6.13 5.34 8.91 6.61 12.17 5.53 38.68 5.36 46.33 16.74.7 3.13.91 3.37-.25 6.19-4.66 1.7-25.06-4.03-30.65-5.43 2.29 1.82 4.71 3.9 7.1 5.55 10.2 7.06 38.69 6.04 45.41 18.43-.21 3.22.14 2.01-2.17 4.79-6.52 2.06-20.47-3.23-27.53-5.33 4.77 4.57 8.43 7.86 13.57 12 10.12.13 45.46 7 46.56 18.88l-2.12 1.49c-9.77 1.34-20.44-3.52-29.9-6.82 2.54 2.68 4.97 5.87 7.29 8.76 6.96 1.24 60.03 9.73 52.1 22.34-7.94 2.76-30.9-5.96-39.42-8.73 2.66 1.98 5.98 4.5 8.99 5.82 12.11 5.29 41.91 9.3 49.39 20.43.44 3.16.74 1.73-.92 4.44-4.95 1.55-23.74-4.55-29.48-6.31 14.36 14.37 68.59 18.52 69.66 32.48-2.19 3.59-1.23 3.25-4.41 4.62-8.77-3.71-32.5-9.96-42.76-13.03 1 .97 2.79 2.44 3.66 3.42 8.55 9.67 61.94 16.92 62.44 30.53-11.03 11.93-37.97-9.88-51.46-7.42-12.95 2.35-25.11 1.04-37.97.9l-65.15-.92-98.59-1.53-357.91-6.15-188.86-3.05c-56.11-1.28-112.19-2.14-168.29-3.35-18.62-.4-37.674.83-56.331 1.14l-153.213 2.96-395.936 7.06-191.962 3.36c-4.467.06-13.343-.76-16.083-.55-20.277 1.56-40.139 1.02-60.525 2.22-13.906.82-28.878.34-42.872.95-4.793.21-7.562-1.49-11.931-3.51-16.45 4.46-27.839 9.56-45.283 12.73-24.559-11.49 44.456-27.48 50.058-28.87 2.213-.55 4.167-3.52 5.194-5.56-3.205-2.72-40.278 15.15-43 4.8 6.544-16.5 64.041-18.91 68.05-30.14-8.493-.73-20.384 7.98-27.853 2.73-1.875-16.74 44.145-13.85 49.999-25.19-7.498-2.03-26.466 11.61-34.743 5.89-.962-3.51-1.11-2.18.042-5.34 12.553-11.63 55.148-14.46 58.404-23.96-6.905-.59-24.57 8.97-28.238 2.67 4.762-17.63 50.304-15.25 58.543-30.21-4.345-1.65-22.513 6.32-22.864.15-.881-15.48 40.99-15.65 48.094-26.34-7.682-.63-27.859 10.52-30.135 1.29 4.289-15.02 53.593-14.98 53.778-25.1-6.198.9-15.447 2.83-21.359 2.26-.992-.1-1.247-1.06-2.161-2.34 1.324-13.55 34.096-13.99 43.997-19.67 2.193-1.26 5.922-4.79 7.861-6.61-6.544 2.62-20.52 7.42-27.208 8.32-2.021-1.95-1.402-1.11-1.888-4.42 4.211-11.11 34.761-19.32 45.566-21.62 1.334-.28 9.402-8.96 11.047-10.69-6.563 2.23-19.709 8.65-24.886 2.35 1.611-8.03 13.859-11.34 20.723-13.79-35.278-24.68-64.999-31.9-88.863-74.491-25.51-45.525 26.211-86.299 63.206-105.758a4051 4051 0 0 0-91.094-61.101c-15.993-10.437-32.076-20.527-47.972-31.278-8.138-5.503-7.019-10.397-4.659-19.289.571-2.149 3.061-7.084 4.808-8.159 11.122-6.844 26.121-7.143 38.608-10.526 5.942-1.588 17.153-2.977 21.946-5.088 12.101-5.33 25.06-13.96 36.401-20.854a6613 6613 0 0 0 57.484-35.037c13.675-8.485 31.16-19.985 45.104-26.942 16.604 9.264 48.615 32.343 65.547 43.681l134.193 88.924c10.133 6.59 39.834 27.888 48.224 31.233 5.638-16.603 11.671-45.989 16.287-64.236 18.828-74.42 31.181-150.589 54.449-223.871a38 38 0 0 1-2.116-6.028c-8.319-31.116-5.081-59.004 11.046-86.738-50.857 3.405-64.134-10.777-90.746-51.962-4.929.233-19.869-1.029-19.85-7.308-.467-11.977 13.479-27.134 10.987-40.302-8.242-43.553-29.033-72.51-6.092-118.177 31.612-62.927 127.327-79.849 186.704-50.049 45.763 22.966 77.93 71.655 92.549 119.501 13.611 44.92 18.643 83.701-3.654 127.192a73 73 0 0 1 8.083 5.605c8.98 7.111 11.081 14.273 12.395 25.03 20.086 19.851 42.544 41.887 52.428 69.337 3.316 9.206 1.951 14.201-1.608 22.992 6.85 14.013 15.144 46.617 19.177 62.505 27.042 106.547 32.494 197.833 23.809 306.556 7.435-1.098 28.414-.871 36.826-.97 30.338-.615 60.688-.401 91.008.642-1.35-9.592-1.88-32.806-2.26-43.504-3.53-99.023 7.57-202.718 32.9-298.507 11.99-45.326 36.25-107.852 70.71-141.395 9.35-9.11 17.98-14.432 29.07-20.781 4-12.907 4.64-18.86 6.29-32.177-24-.201-68.96-34.153-69.49-59.739-.21-9.971 11.2-19.244 17.63-25.697-11.36-39.379-20-95.044 23.69-119.897 8.21-4.672 16.55-5.521 25.84-5.94 3.1-6.185 6.8-12.048 11.05-17.503 14.23-18.476 37.86-27.01 60.26-30.094"/><path fill="#fefefe" d="M390.623 1106.58c-9.94.3-20.431 1.14-29.045 6.56-8.139 5.12-6.831 11.33-10.107 19.34-1.019 2.49-6.013 7.67-8.11 9.81a2049 2049 0 0 1-48.732 47.35c-7.822 7.43-15.91 14.71-23.436 22.42-3.455 3.54-5.356 6.76-2.388 11.05 6.591 3.6 31.297 1.92 39.925 1.85l61.326-.35 154.288.02 791.766-.67 294.95.9 83.09.25c25.46.28 50.79.26 76.24.05 9.19-.08 11.66-7.55 5.25-13.54l-48.51-44.97c-9.64-8.82-23.3-20.43-31.98-30.42-1.17-1.34-1.17-13.48-2.33-17.69-3.61-13.19-24.21-10.12-31.43-14.04 4.81-3.06 37.44-18.2 43.4-19.53 7.12 1.99 23.69 20.28 28.52 24.36 37.53 31.63 70.45 67.32 105.34 101.43 22.02 19.91 42.53 41.86 63.79 62.59 5.28 5.14 12.54 11.83 16.84 17.64-3.58 1.46-135.92-1.7-150.64-1.97l-264.17-4.1-350.48-6.34-88.49-1.87c-17.8-.49-36.27-2.21-54.02-1.58-40.893 1.43-81.68 2.6-122.592 3.3l-425.385 8.79-245.222 3.67c-28.51.52-60.133.06-88.309 1.48 42.081-46.76 92.491-90.48 136.138-136.31 23.214-24.38 49.68-46.89 72.626-72.1 9.899 4.08 46.225 17.61 51.887 22.62"/><path fill="#fefefe" d="M802.065 502.925c6.55 1.986 42.776 23.657 51.584 28.701a1167 1167 0 0 0 48.232 25.947c6.831 14.627 11.222 32.14 15.494 47.614 35.31 127.918 38.295 262.528 19.023 393.352-.871 5.911 5.34 19.421 6.192 26.121 1.933 15.2 2.7 30.53 3.41 45.83.951 30.11-5.199 60.67-4.372 90.57-3.105 3.44-7.298 7.15-10.753 10.35-14.449-14.84-31.925-35.23-46.754-51.1-13.517-15.82-33.416-34.43-46.785-49.73-53.843-61.63-75.621-68.21-153.493-85.372 14.389-21.706 20.645-51.11 21.362-77.02.148-5.361-1.886-14.932-.459-18.498 3.408-8.516 8.316-17.8 12.426-26.046a1212 1212 0 0 0 20.834-43.29c23.88-52.038 44.949-106.358 60.686-162.435 12.072-46.622 25.753-103.673 5.571-149.733-1.073-2.45-1.519-2.315-2.198-5.261"/><path fill="#fefefe" d="M762.406 498.397c8.277-.589 13.856.621 20.615 5.915 11.198 8.771 14.889 30.868 15.715 43.906 6.758 106.574-98.957 346.811-164.119 422.754-10.313-2.299-22.496-6.01-32.822-8.884-15.854-4.148-34.444-9.539-50.137-14.24 12.684-22.366 47.982-76.388 55.274-100.138 28.615-93.194 43.185-191.788 70.613-285.422 9.671-33.012 52.208-60.309 84.861-63.891m939.384 194.386c1.89.201 24.04 14.443 27.69 16.681a1920 1920 0 0 0 89.86 52.187c-11.59 9.912-42.91 29.232-57.05 38.713-36.88 24.741-75.64 47.606-112.69 72.323-11.73 7.829-26.36 15.373-38.78 23.396-2.59-1.761-10.56-16.618-14.01-20.707-25.92-30.784-62.66-44.822-101.57-48.709 51.23-30.746 101.65-64.652 151.93-97.057 18.17-11.712 36.64-25.813 54.62-36.827M976.806 1018.56c2.101.42 26.154-.13 29.814-.01 27.1.85 57.59-.82 84.37.87-4.54 42.9-4.07 84.07-1.65 127.09.48 8.45 1.16 16.61.96 25.09 5.77 5.71 17.81 13.27 25.58 20.16 9.9-4.9 7.12-3.75 10.49-12.11 2.78-.69 21.4 17.35 27.36 19.27 4.85 1.56 13.99 5.47 18.34 7.71-6.7 3.2-54.54-.45-64.57.71-5.44.64-28.36-1.15-31.69.22-6.65-1.91-40.68-.5-49.5-.58-53.131-.49-105.477.6-158.767-.04 23.254-8.85 30.836-11.2 48.043-29.37 4.027 5.02 10.639 16.09 18.587 10.45 7.039-4.99 15.73-10.63 21.21-17.35 3.49-4.28.281-17.13 1.336-22.66 2.865-41.58 7.969-88.34-.205-129.4 6.764.12 13.529.1 20.292-.05m403.984-726.564c3.54 1.226 32.88 2.77 38.64 3.193-.32 3.77-.86 11.514-3.72 14.02-8.08-2.905-19.33-9.681-27.58-5.094-2.39 2.632-2.46 3.117-3.04 6.655 4.29 6.906 24.9 5.621 29.73 9.532 1.01 7.443-3.26 15.869-2.94 22.275.26 5.041 3.4 19.735 7.39 22.821l-.25 1.066c-5.18.6-10.05.943-15.24 1.295-4.15 8.735-11.55 28.373-20.79 31.347-7.13-1.44-6.61-8.341-12.39-15.008-5.18-2.358-8.53-.594-11 4.578-.76 6.545 3.87 11.468 7.81 16.057 3.84 4.479 7.92 5.226 13.31 6.577-6.14 5.596-10.92 8.711-18.32 12.267-10.27-1.289-20.52-2.318-30.52-5.067-7.39-2.029-13.64-7.154-20.93-5.92-7.44 5.507-3.19 21.521-8.19 26.267-27.6 2.724-47.43.177-72.3-13.317 2.36-8.053 4.08-19.347 7.32-26.685 8.84 2.533 14.67 4.348 23.99 3.52 28.59-2.542 32.13-40.295 42.34-53.173 5.29 1.467 10.1 4.155 13.73-.494 1.37-13.455-23.78-7.795-15.35-43.667 4.84-4.817 7.15-6.168 13.06-9.624l9.26.32c13.16 8.068 12.91 13.207 13.61 26.93.2 4.102 6.19 7.42 10.23 5.855 15.38-5.941 25.26-22.847 32.14-36.526"/><path d="M1383.4 331.352c5.16 1.499 22.24 11.81 23.86 17.542-1.54 4.423-.61 2.805-4.88 6.242-10.02-.424-30.33-11.335-18.98-23.784"/><path fill="#fefefe" d="M581.074 313.93c7.81 3.239 13.727 3.64 21.962 5.504l.362 1.024c-2.608 1.302-2.518 1.182-4.341 3.426l.409 2.425c2.77 3.063 1.447 2.392 5.145 3.497 5.2-.799 8.907-3.326 12.155-7.333 29.967 1.572 51.308 14.663 74.176 32.891-.162 3.508-.311 7.334-.118 10.833 1.378 24.927.511 48.525-5.408 72.787a130.3 130.3 0 0 1-28.668 2.112c-13.853-1.485-20.396-4.899-32.062-12.013 8.819-4.889 25.5-23.998 10.46-30.351-9.02 2.179-9.907 20.161-18.713 21.707-7.031-4.707-10.827-17.952-16.054-24.578-5.342-6.772-9.967-6.34-18.048-7.047 13.726-39.187 10.339-34.146-1.257-74.884"/><path d="M625.378 335.589c3.257.523 3.091.455 5.791 2.348 4.58 9.906-8.897 22.378-15.835 28.144-2.515.609-2.603.848-5.062-.121-4.887-2.152-11.172-3.712-11.481-9.664 3.349-4.086 13.52-6.637 16.142-9.029 4.202-3.834 4.61-6.688 10.445-11.678"/><path fill="#fefefe" d="M1638.3 1114.01c7.15-.99 15.3 4.04 22.01 5.04 19.31 2.89 24.8.82 20.27 23.01-4.21 20.61-16.87 31.03-36.67 37.03-42.63 11.28-97.53 10.19-140.13 1.83-15.83-3.14-44.56-7.78-60.25-8.86 12.45-4.52 32.34-7.54 47.16-11.93 48.28-14.32 100.69-27.89 147.61-46.12m-1243.964 4.4c26.578-4.49 50.027 7.38 74.486 16.13a1495 1495 0 0 0 69.005 23.17c6.551 2.05 46.859 13.45 49.02 15-3.286 3.08-31.207 8.07-37.621 9.33-2.091-.05-29.275 3.89-35.494 4.48-42.105 4-92.16 2.58-130.2-17.87-7.414-3.99-14.851-14.69-15.992-22.79-.897-6.39-1.368-16.56 2.513-22.23 6.093-4.65 16.501-4.57 24.283-5.22m565.197-178.143c5.784 1.02 25.147.514 31.701.47 21.606-.145 43.146-.203 64.766.317 10.32.248 22.04-.768 32.11.584 2.96 9.43 1.49 27.292 3.79 37.807 1.63 7.458 3.08 14.121 1.43 21.615l-2.17 1.06c-24.62 1.95-58.8-.16-84.08.47-11.478.29-45.323.86-54.838-1.15-1.749-2.666 5.826-54.021 7.291-61.173"/><path fill="#fefefe" d="M1288.16 1205.09c4.07-1.61 10.67-2.54 15.11-3.18 29.5-4.3 58.5-11.33 87.69-17.29 6.83-1.39 14.53-5.74 21.42-6.11.63.51 1.26 1.02 1.9 1.52 9.61 7.67 28.88 3.81 41.4 6.69 52.44 12.11 217.01 37.99 235.57-34.17a3093 3093 0 0 1 40.25 36.58c6.39 5.96 14.44 14.24 20.89 19.58-29.09 2.83-83.32.58-113.56.28l-240.93-.62-74.96-.23c-9.59.01-25.57-.42-34.77.38-4.52.13-7.81.44-12.23-.6l.41-.95c4.67-1.73 6.86-1.62 11.81-1.88m-934.387-51.42c2.665 1.81 7.796 18.85 18.075 24.43 68.747 37.35 161.533 27.6 233.691 5.29 9.417-2.91 19.093 10.77 28.135-3.6 41.877 10.36 84.886 19.76 127.745 25.63 3 .41 7.163.35 9.518 2.24-6.486 1.33-33.723.38-43.771.99-16.295-.91-36.347-.33-52.891-.3l-83.638.15q-106.96 1.125-213.922.36c-26.403-.07-52.638.73-79.174.05 16.391-16.87 39.015-39.16 56.232-55.24m260.431-946.027c4.91 1.272 15.806 8.731 19.809 12.126 35.689 30.267 51.133 69.797 55.793 114.803-6.496-5.643-13.798-11.145-20.606-16.47-25.026-17.67-45.314-34.129-73.921-46.333-7.061-3.013-12.236-6.342-19.997-7.846 3.824-21.637 22.173-42.876 38.922-56.28M182.913 773.301l.802.241c78.501 54.471 160.403 104.328 239.481 158.073 4.905 3.334 10.38 6.816 12.145 11.52-.285 3.814.359 2.455-2.18 5.057-3.801.287-2.474.321-6.344-2.084a7363 7363 0 0 1-194.895-126.559l-44.105-29.225c-4.588-2.988-16.222-9.755-19.495-12.669 2.192-1.791 11.265-3.56 14.591-4.354m1679.607.908 17.07 2.37c-22.29 16.585-50.93 34.407-74.66 50.174a8439 8439 0 0 1-178.61 115.7c-2.82 1.717-3.76 2.257-6.85 3.393-3.15-.441-3.32-.395-5.62-2.421-2.4-7.963 17.07-17.392 23.2-21.371l51.83-32.995a7493 7493 0 0 0 123.49-80.79c13.36-8.922 38.35-24.534 50.15-34.06m-1651.478-5.94c13.619 6.374 47.369 28.939 61.369 37.967l117.616 76.855c13.172 8.775 44.831 27.556 47.83 42.541l-.962.834-2.701-1.386c-46.027-34.545-95.418-64.322-142.972-96.315-11.623-7.819-86.546-54.081-88.311-58.627 2.574-1.857 4.883-1.634 8.131-1.869m1622.768.704c2.71-.111 6.51.05 8.33 2.042-4.8 7.991-204.58 135.767-225.83 147.491l-7.6 5.493c1.21-2.836 4.9-12.115 6.84-13.674 10.25-8.206 22.92-15.409 34.06-22.32a4603 4603 0 0 0 56.03-35.262c29.04-18.426 57.04-38.473 86.49-56.292 14.28-8.638 27.53-18.74 41.68-27.478M554.509 843.384c3.738-.451 12.586-.221 16.701-.224-35.178 9.75-91.516 47.092-114.055 76.308-1.797 1.809-2.559 2.609-4.612 4.093l-1.598-.939c-.071-.225-.593-1.741-.568-2.116 3.236-48.028 69.106-72.702 104.132-77.122m934.751-3.845c1.58.622 16.44 1.759 19.72 2.286 37.31 6.005 76.23 28.989 91.15 64.587-1.41 3.514-2.15 6.276-5.07 8.195-35.55-35.796-65.39-56.16-113.64-73.104 1.88-1.793 4.72-1.549 7.84-1.964m-14.88 13.982c18.98 1.732 71.72 34.523 86.47 47.306 7.23 6.265 21.93 19.566 28.97 26.592.97 3.275.11 3.491-1.39 7.252l-1.04 1.096c-4.57-2.669-8.65-5.69-12.88-8.835-30.1-22.37-61.79-42.541-92.26-64.355-2.98-2.135-5.77-6.072-7.87-9.056m-896.417 1.597 4.253-.041-.081 1.06c-5.142 5.617-49.343 31.588-59.471 38.146a1009 1009 0 0 0-56.67 40.293c-2.319-.307-2.471-.267-4.747-1.167-.145-1.109-.452-2.359.395-3.332 28.033-32.183 76.193-61.479 116.321-74.959m796.687 85.261c.79-.288 3-.466 3.33-.026 2.03 2.779 22.63 34.199 22.63 34.173-3.48 1.4-6.04 1.288-9.77 1.515a372 372 0 0 0-12.61 2.486c-6.56-2.971-13.39-29.921-12.22-36.509 1.55-1.341 6.3-1.412 8.64-1.639m-692.003 1.794 1.883.067.989 1.263c-.319 11.163-10.737 28.571-17.615 37.28l-10.682-3.006c-2.967-.624-3.789-.885-6.615-2 .189-4.19 18.056-26.747 21.868-30.881zm916.863 3.576c2.76 2.946 5.42 9.992 7.26 14.044-2.99 6.315-3.91 8.344-8.17 13.775-10.77-14.269-7.09-11.112.91-27.819m-1148.964 1.736c2.809.212 2.977.538 5.065 2.345 2.858 5.012 1.036 12.177-2.957 15.978-2.293.095-2.813-.041-5.028-.373l-1.365-2.309c-.53-4.397 2.604-11.207 4.285-15.641m103.871-35.596.698.438c.18 5.867-6.439 9.806-11.746 10.756l-.761-2.12c1.592-3.507 7.841-6.446 11.809-9.074"/></svg>