<svg xmlns="http://www.w3.org/2000/svg" preserveAspectRatio="xMidYMid meet" viewBox="0 0 2048 2048"><path d="M990.484 114.37c11.376-1.685 63.816.359 77.276 1.452 31.55 1.545 64.55 8.832 95.76 11.131 45.21 3.332 77.93 13.013 120.7 27.275a837.7 837.7 0 0 1 301.89 175.001c25.46 22.693 49.27 46.594 72.07 72.004 20.53 22.878 33.69 48.194 50.2 72.477 20.8 31.547 46.27 66.028 62.08 100.613 26.28 57.509 47.21 124.991 65.75 185.689 13.63 44.664 17.24 96.372 23.37 142.338 5.93 44.457 10.95 89.401 6.98 134.18-2.86 32.87-9.17 66.24-13.8 98.69-12.02 84.44-32.96 165.73-73.31 241.42-10.88 20.41-20.17 42.18-32.12 62.53-38.18 65-85.94 122.66-139.18 175.86-9.56 9.57-24.63 20.16-35.35 29.29-16.24 13.84-32.26 27.87-48.53 41.63 60.55 23.18 131.3 59.05 184.51 96.02 16.92-1.09 75.14-17.71 73.12 8.03-2.65 10.63-33.39 12.61-42.78 14.8-92.33 21.57-185.23 27.89-279.1 38.37-60.24 6.72-121.27 18.24-181.89 22.94-8.11.63-16.93 1.55-25.09 2.36-47.65 10.61-93.85 15.79-142.79 13.75-11.6-.48-23.92.57-35.71-1.31-3.55 17.71-8.67 29.43-25.17 38.81-20.25 8.12-48.76 10.82-69.068.89-14.842-7.26-21.279-23.24-25.887-38.16-15.567-1.14-38.209-.21-54.501-.48-29.559-.54-59.079-2.37-88.476-5.5-72.07-7.42-142.03-21.48-213.447-32.64-14.623-2.28-29.433-3.4-43.996-5.56-84.934-12.54-171.949-16.79-256.095-33.57-11.806-2.35-48.238-4.2-50.06-11.09-9.221-34.86 58.554-7.58 73.247-14.25 22.112-10.85 41.296-26.76 63.409-37.72 30.918-15.66 58.553-27.9 89.485-42.48 10.766-4.99 22.984-7.94 34.433-13.39l1.408-.68c-38.691-38.62-81.443-76.01-116.404-118.27-80.039-96.76-146.758-209.8-178.923-331.88-14.308-54.31-22.678-111.56-29.909-166.98-6.041-46.29-3.731-91.724.225-137.969 5.018-70.525 13.05-140.749 38.108-207.331 2.978-7.913 5.005-16.785 7.864-24.954 16.551-47.287 34.532-95.189 57.125-139.92 11.203-23.024 27.551-44.117 40.043-66.054 29.09-51.082 61.589-90.688 102.271-132.839 61.069-64.997 135.257-115.42 214.311-155.857 45.466-23.257 86.542-40.307 135.911-54.149 28.85-8.089 57.643-18.954 87.429-24.244 40.849-7.254 81.386-5.222 122.611-10.273"/><path fill="#fefefe" d="M1390.88 413.894c7.68 4.139 22.2 16.844 29.8 22.76 16.4 12.76 35.33 26.517 50.4 40.518 11.71 10.884 23.32 25.124 35.17 36.733 14.99 14.684 32.2 31.816 45.66 47.904 9.71 11.614 18.9 27.097 28.64 39.529 11.89 15.185 25.58 30.748 35.97 46.725 13.42 20.627 19.87 45.674 29.56 67.741 5.56 12.661 14.53 20.001 18.98 36.581 6.57 24.471 16.31 55.463 20.29 80.118 2.61 16.23 2.01 39.188 4.58 56.648 2.96 20.187 9.64 42.744 10.95 62.347 1.16 17.433 1.93 39.326.8 56.552-.72 11.08-4.65 24.61-5.03 36-.76 22.5-.33 54.74-5.13 76.67-5.7 26.08-16.23 53.29-22.71 79.97-3.64 14.97-6.71 44.47-11.3 55.99-12.35 31.07-30.45 63.94-45.37 94.03-1.28 7.85-21.47 41.67-27.45 49.12-11.36 14.13-17.48 22.03-25.86 38.68-4-7.41-9.66-28.65-12.09-37.73-5.85-21.94-12.72-43.95-18.22-65.91-3-10.85-3.46-24.08-6.7-34.69-11.67-38.16-17.54-75.86-24.78-114.87-5.7-30.76-15.79-62.37-21.92-93.35-8.87-44.79-16.6-89.75-24-134.816-4.21-24.744-5.77-51.604-8.81-76.566-1.16-12.129-7.73-27.738-8.45-39.563-1.8-29.199-2.39-57.841-11-86.12-1.36-4.486-2.04-10.711-2.99-15.454-1.32-6.57-2.24-13.582-3.33-20.212-3.97-37.617-5.66-75.421-8.44-113.141-1.3-17.568-4.75-33.783-6.49-50.858a2234 2234 0 0 1-10.73-141.336m-718.609-8.048.934.302c.196 1.148-18.534 109.892-19.675 118.295-16.494 121.478-37.592 241.462-61.617 361.602-8.393 58.259-26.169 114.565-33.563 173.285-3.301 26.21-9.098 48.9-15.098 74.34-21.91 92.87-46.126 181.68-74.32 272.78-14.277-27.17-28.333-48.31-40.922-77.13-11.415-26.14-20.35-54.53-32.41-80.3-13.922-29.75-19.068-58.66-24.458-90.61-3.268-19.38-9.206-38.55-13.385-57.73-1.681-13.18-2.852-26.96-3.609-40.22-1.771-31.02-5.029-62.7-1.898-93.68.778-7.7.444-15.624 1.467-23.297 1.235-9.267 2.927-18.336 4.199-27.582 1.39-15.556-1.583-31.708 1.404-47.187 5.409-22.725 13.911-44.422 20.32-66.972 7.209-23.476 10.147-48.838 19.472-71.701 5.931-14.542 14.874-28.8 21.529-43.244 9.86-21.403 23.942-41.091 36.364-61.104 9.788-15.769 19.395-32.332 30.311-47.309 9.035-12.397 21.318-23.241 30.646-35.5 16.343-21.646 31.502-41.509 51.631-59.976 20.531-18.836 43.067-34.385 65.816-50.325 12.454-8.727 24.031-17.982 36.862-26.737M927.336 639.05c21.658-.846 59.609 28.648 79.284 41.404 52.88 34.289 103.7-57.717 144.84-31.938 37.27 23.359 61.79 120.67 73.92 163.482-27.62 23.648-34.39 91.511-36.1 126.879-1.38 28.606-38.35 69.623-58.72 86.913-11.04 9.08-23 16.95-35.7 23.5-41.36 21.22-68.18 25.34-112.443 10.08-47.894-16.52-82.177-39.22-108.397-83.872-3.655-7.209-13.166-22.218-14.103-30.232-5.559-47.542-6.935-87.61-29.466-131.756 7.652-18.527 17.536-36.435 25.007-54.565 7.867-19.091 12.947-37.298 22.01-56.609 8.716-18.574 30.363-56.168 49.868-63.286"/><path d="M940.458 743.227c21.203-1.056 41.335 5.164 27.792 29.747-18.442.945-22.661-1.596-44.312 1.692l-22.527 5.976c-22.362-21.251 24.393-34.483 39.047-37.415m170.942-6.049c15.15-.964 38.69 5.448 48.99 17.332 9 10.376 3.24 21.844-10.63 17.388-14.89-4.254-55.89.29-58.43-13.908-2.08-11.629 8.71-18.721 20.07-20.812m-36.44 223.805c3.78-.188 4.36-.441 7.62 1.614 5.7 9.832-13.13 18.839-20.66 21.585-27.97 10.211-52.29 7.777-79.126-4.283-6.542-4.133-8.519-4.883-11.494-12.032 2.123-11.208 21.869 1.903 28.356 3.65 28.264 7.611 50.004 3.149 75.304-10.534m-86.21-52.212c16.36.573 14.41 18.565 38.17 19.182 18.64.484 25.66-18.24 38-16.979 5.23 4.523 2.56 9.568-.71 14.255-6.69 6.976-13.21 11.859-22.85 15.364-19.45 7.076-48.459-3.242-55.392-23.705-.892-2.634 1.37-5.813 2.782-8.117m-90.483-84.557c10.047.259 21.397 3.495 32.955 3.085 7.603.533 17.772-4.995 24.813-1.253 4.944 2.628 4.13 8.626 1.323 12.417-11.887 2.448-57.085 5.144-62.306-8.762.546-3.135 1.02-3.2 3.215-5.487m199.293-1.284c11.6 2.268 18.34 3.738 30.23 3.562 8.61-.128 18.87-4.324 24.27-2.661 2.84 2.386 1.9.904 2.7 4.737-.99 4.029-.89 3.822-4.03 6.563-11.13 2.888-53.89 10.369-57.54-5.012.87-3.964 1.39-4.159 4.37-7.189"/><path fill="#fefefe" d="M481.786 336.798c4.663-.405 9.179.651 13.659 1.908 28.677 8.043 57.923 14.465 86.137 24.043 6.788 2.305 12.621 3.714 19.704 4.899-13.584 10.369-26.072 21.483-39.125 32.471-6.46 5.438-13.027 10.988-19.57 16.297-44.566 36.924-86.674 81-120.822 127.911-19.491 26.776-38.423 60.649-56.952 88.651-17.258 26.081-26.214 68.485-38.07 97.747-8.264 20.394-13.251 44.92-20.23 65.786-5.706 18.8-13.764 38.604-17.486 57.843-3.984 20.595-1.408 44.505-2.931 65.679-1.178 16.389-3.765 32.82-4.941 49.077-.931 12.864-.494 26.357-1.343 39.47-.948 14.66-1.589 29.95-.319 44.57 1.287 14.8 6.986 30.34 9.15 44.78 2.926 19.52 3.806 39.94 8.056 59.3 2.156 9.82 7.792 21.16 9.901 31.11 3.627 17.1 3.62 35.71 8.182 52.64 4.143 15.38 14.277 29.47 20.495 44.07 7.25 17.01 13.145 35.11 21.043 51.89 10.2 21.67 22.606 42.2 33.308 63.68 9.048 18.16 16.596 40.6 27.938 57.19 6.524 9.54 22.084 17.83 32.171 23.5-2.579 13.32-6.251 27.64-9.417 40.93-4.706 20.71-6.79 35.98-9.45 57.14-2.226-2.5-4.431-5.01-6.618-7.55-37.136-43.05-76.737-94.79-105.629-144.11-51.241-91.55-90.586-200.35-106.143-304.67-22.113-148.293-1.848-304.96 46.361-446.403 10.149-29.777 41.085-100.418 57.127-127.329 42.559-71.392 103.11-158.545 165.814-212.52m211.847 60.703c11.293 2.054 22.661 5.655 33.905 8.266 23.412 5.437 47.063 11.505 70.63 16.164l124.298 24.879c17.554 3.556 45.737 7.872 61.906 13.266-19.753 8.748-38.165 14.224-58.975 23.928-82.938 38.673-132.126 101.953-172.312 181.91-22.887 45.535-41.19 97.498-54.194 146.894-3.339 13.591-5.132 28.047-8.262 41.613-19.11 82.832-13.054 170.179 24.587 247.079 5.787 11.83 14.59 21.56 19.072 34.84-1.661 3.22-49.669 34.96-56.615 39.98-58.209 41.24-110.436 81.95-150.071 142.34-7.548 11.5-14.206 25.03-20.961 37.19 2.29-8.6 5.046-17.77 7.853-26.29 21.677-65.87 31.945-134.34 49.405-201.21 4.458-17.08 7.188-35.96 10.894-53.34l17.549-80.52c2.093-9.994 2.792-20.587 4.978-30.489 8.417-38.136 13.522-76.215 26.429-113.247 2.54-8.9.79-21.975 3.15-30.552 22.203-80.697 22.24-164.553 39.603-246.211 5.447-25.619 6.127-52.778 8.671-78.887 3.302-33.879 9.811-64.819 18.46-97.603m867.407-61.378c20.67 9.475 73.38 71.793 89.12 90.843 18.87 22.841 40.88 55.092 57.42 80.535 12.15 18.695 23 43.141 33.61 63.118 91.06 171.508 118.56 375.324 91.05 566.501-3.7 25.75-11.28 52.18-17.59 77.67-19.71 79.62-50.63 154.95-93.79 224.77-22.58 36.47-50.82 70.93-76.11 105.75-12.47 17.16-29.38 28.31-40.45 47.81-3.23-19.2-5.96-29.94-11.77-48.44l-5.69-20.87c11.39-14.69 25.22-32.06 35.16-47.79 17.13-27.14 32.11-56.2 48.39-84.06 7.96-16.99 24.03-35.28 30.72-52.26 20.5-51.96 37.97-108.34 49.48-162.95 6.66-31.56 13.14-61.6 16.98-93.3 2.67-22.06 2.03-44.02 2.9-66.11.2-13.11 5.57-30.445 4.14-43.28-3.25-29.306-6.35-58.856-9.65-88.166-1.23-10.929-5.81-22.876-6.9-33.791-8.47-85.061-34.53-167.708-83.91-238.084-19.27-27.352-29.81-58.594-52.54-83.317-48.39-52.625-94.58-108.301-153.7-149.455-4.63-3.229-14.99-6.679-16.79-11.721 7.89-7.555 92.93-28.184 109.92-33.403M991.824 135.5c35.986-.807 70.686 1.109 106.606 3.133 39.86 2.246 79.22 11.531 117.72 21.741 35.34 9.372 74.62 18.386 108.83 31.447 57.78 22.056 116.95 55.318 167.78 90.452 11.33 7.831 43.26 30.689 52.12 40.673-38.27 11.394-82.2 21.736-121.58 32.39-20.09-18.336-56.67-35.686-80.74-47.443-39.55-19.316-69.89-40.35-115.14-48.495-57.52-10.355-114.8-29.857-173.67-31.715-83.742-.687-177.905 17.185-258.166 42.16-24.95 7.764-53.006 16.737-76.231 28.11a317 317 0 0 0-35.917 20.873c-19.643 13.293-36.666 27.982-59.113 35.016-37.418-12.295-85.306-20.306-123.652-30.935 1.475-5.179 20.508-17.699 25.684-21.368a798 798 0 0 1 61.503-40.18c45.75-27.296 95.609-50.067 143.415-73.853 30.014-14.933 68.728-22.716 101.08-31.119 53.355-13.858 104.379-19.808 159.471-20.887m357.596 257.819c5.78-.928 13.11 4.366 18.35 7.407.98 29.438 3.7 49.555 6.28 78.685l7.24 89.053c1.65 18.886 1.54 36.971 3.36 55.83 2.2 22.858 5.73 45.436 8.62 68.206l11.09 90.115c1.78 13.829 2.6 28.047 4.48 41.869a7252 7252 0 0 0 20.5 133.602c2.84 18.1 4.83 37.424 8.32 55.254 5.31 30.52 14.43 60.6 19.83 91.07 11.44 64.5 24.73 128.71 43.14 191.68-28.35-41.84-96.26-90.38-136.61-119.47-14.18-10.22-33-21.14-46.29-32.02-.95-3.74-.63-2.62.67-6.86 3.37-8.39 6.58-16.85 9.62-25.37 17.44-49.29 40.87-130.289 40.55-182.388-.57-93.541-35.38-188.701-83.8-267.78-44.57-72.78-93.44-138.535-169.83-180.999-16.68-9.273-39.88-16.159-58.09-22.552 49.85-12.996 103.58-20.332 153.89-32.13 27.32-6.406 54.46-14.111 81.78-20.374 18.52-4.246 38.29-9.915 56.9-12.828"/><path fill="#fefefe" d="M1032.55 302.43a532.5 532.5 0 0 1 242.53 50.242c18.48 8.483 35.13 16.245 52.31 27.376-42.48 9.169-84.65 22.08-127.01 31.535-34.82 7.775-71.79 12.649-106.74 20.928-21.69 5.137-51.27 7.761-70.52 18.158-4.31-1.882-7.89-2.88-12.37-4.235-16.215-3.287-33.242-5.638-49.283-9.014-38.155-8.031-76.318-16.07-114.514-23.883-46.802-9.574-92.321-22.048-139.13-31.696 9.121-5.559 17.007-8.646 26.984-12.486 36.06-13.881 71.176-31.216 108.792-40.802 43.921-11.193 88.24-20.754 133.528-24.37 18.47-1.474 36.903-.73 55.423-1.753m235.94 1370.14c61.97-3.95 145.38 4.87 204.31 24.73-15.51 11.05-37.5 22.92-54.51 31.84-47.99 25.15-100.92 49.32-152.28 66.38-23.06 7.66-52.29 13.9-76.27 20.04a583.5 583.5 0 0 1-86.27 20.76c-34.75 5.86-45.61 2.49-78.73 16.57.29-25.84 1.9-83.22-1.83-106.7 9.83-9.85 25.1-15.46 37.82-21.29 57.36-26.27 144.53-51.09 207.76-52.33m-572.101-1.15c14.43-1.57 47.1 0 61.739 1.18a688 688 0 0 1 196.924 46c15.26 6.2 31.239 14.13 46.188 21.3-.1 31.61 3.92 82.05.99 111.83-10.402-1.75-22.023-5.77-32.248-7.04-27.757-3.42-53.559-8.91-80.757-15.55-36.143-9.07-72.143-21.09-107.836-31.06-34.246-8.82-70.118-20.32-101.632-36.47-29.308-15.01-102.095-42.79-121.235-67.02 34.821-14.33 100.53-20.94 137.867-23.17m450.891-618.92c8.89 5.94 53.5 43.44 60.56 51.01-8.53 16.58-15.36 33.25-23.42 50.18-49.42 103.79-98.92 210.24-165.2 304.56-5.33 7.57-17.62 30.62-23.528 35.21-3.039-4.05-6.532-7.93-9.833-11.79-18.013-21.07-36.863-42.81-51.667-66.35 17.462-38.12 38.349-70.99 59.584-106.8l115.494-191.39c13.78-23.36 25.42-39.19 38.01-64.63"/><path fill="#fefefe" d="M1006.01 265.441c28.25-.368 71.74 1.459 99.7 6.002 42.66 6.93 89.42 18.344 131.73 28.124 15.27 3.531 35.89 14.12 50.71 20.783a860.2 860.2 0 0 1 164.8 95.434c33.53 24.37 70.9 59.663 100.17 89.568 9.32 10.181 17.47 21.703 26.41 32.145 14.38 16.791 28.74 32.734 40.98 51.24 8.73 12.346 16.04 26.222 23.96 38.982 19.4 31.274 36.59 62.04 48.84 96.899 4.38 12.461 10.68 25.2 14.22 38.094 2.96 10.757 4.66 22.243 6.64 33.259 2.94 15.597 5.7 31.228 8.26 46.891 2.59 16.385 5.14 33.208 7.12 49.675 1.14 9.466 1.02 19.898 2.09 29.443 3 26.897 4.48 57.74 4.69 84.79.13 17.64-4.18 45.42-5.62 63.24-.99 12.19-1.95 33.71-4.06 44.79-4.16 21.91-9.87 44.83-14.66 66.73-3.51 16.03-6.04 40.74-10.64 55.32-10.42 33.12-25.8 68.03-40.1 99.76-4.71 10.45-9.32 21.4-14.35 31.66-2.09 4.25-7.79 10.55-10.15 14.94-7.89 14.66-16.95 27.8-25.85 41.78a832 832 0 0 0-17.41 28.39c-3.77 6.53-13.2 29.75-21.81 23.01-5.7-11.32 6.15-26.11 12.65-35.77 21.04-31.29 42.22-64.6 60.24-97.7 13.4-24.63 23.37-57.3 33.67-83.64 5.33-13.65 9.84-28.36 14.4-42.3 12.17-49.37 23.61-100.03 27.48-150.79.71-9.37 2.85-18.7 3.2-28.24.8-25.5.21-51.022-1.77-76.454-.94-10.888-3.77-25.195-3.94-35.473-.56-33.558-4.14-64.524-9.51-97.596-5.1-31.352-8.89-60.519-20.03-90.62-9.12-24.647-20.11-46.239-33.33-68.921-15.53-28.907-26.89-48.066-45.02-74.805-27.3-40.274-57.45-69.177-92.38-102.576-18.57-17.752-34.89-37.909-54.23-54.305-25.27-21.096-53.61-37.88-81.65-54.857-60.31-36.512-124.98-69.57-194.33-84.51-14.38-3.097-29.97-4.053-44.32-7.171-13.17-2.864-25.45-6.921-38.84-9.385-37.8-6.512-74.78-1.902-112.626-1.756-17.156.067-34.242-2.661-51.363-.407-24.777 3.261-47.571 11.89-71.56 18.139-28.443 7.408-58.605 12.963-86.094 23.43-34.383 13.092-65.724 31.359-97.604 49.43-11.783 6.679-24.423 12.686-35.564 20.378-15.287 10.553-28.593 24.218-42.928 36.037-12.965 10.69-27.363 19.62-40.215 30.394-10.023 8.402-18.606 18.876-27.781 28.212-7.8 7.937-16.401 15.043-24.2 22.985-12.742 12.977-24.498 27.595-35.598 41.986-17.236 22.348-34.293 45.702-48.395 70.196-6.366 11.058-11.523 22.703-17.671 33.865-6.889 12.509-14.747 24.623-20.603 37.67-5.079 11.316-8.554 23.483-13.009 35.07-14.333 37.273-30.982 90.309-38.234 129.491-6.439 34.784-8.314 68.859-9.413 104.088-.837 26.828-2.339 54.115-1.028 80.965.769 15.76 3.838 31.51 5.867 47.17 3.441 26.54 8.141 51.87 13.335 78.12 3.24 16.37 6.052 32.93 10.661 48.99 7.112 24.79 16.939 49.49 26.575 73.41 8.993 22.33 17.874 44.66 28.93 66.07 5.966 11.55 45.987 83.53 46.249 87.43.112 1.67.049 1.22-1.064 2.6-14.753.39-26.322-38.15-33.289-47.38-19.243-25.48-28.351-55.88-41.988-83.46-33.047-64.93-46.661-133.16-58.121-204.26-7.732-47.96-10.612-81.37-7.498-129.903 2.183-34.032-.91-71.327 4.582-105.678 3.869-23.415 13.278-48.341 18.498-71.085 13.328-58.063 28.032-105.009 59.768-155.663 21.147-33.753 33.93-66.899 62.193-98.183 19.932-22.062 37.324-47.675 60.708-67.432 11.543-10.47 21.739-24.762 34.254-34.626 13.011-10.938 26.66-21.116 39.874-31.817 83.71-69.431 173.889-109.457 279.948-131.411 49.269-10.199 75.188-16.299 126.444-18.901"/><path fill="#fefefe" d="M1221.17 1114.38c5.23 3.25 7.56 5.27 12.15 9.18-1.37 26.61-12.86 67.35-19.73 93.47-7.11 26.99-14.62 57.88-22.97 84.19a1301.4 1301.4 0 0 1-120.08 265.57c-8.76-6.5-18.64-15.86-26.89-23.29-12.23-11.03-24.42-24.07-35.7-36.03 11.75-13.63 23.56-33.49 34.23-48.56 75.67-106.83 123.76-227.08 178.99-344.53m-695.598 589.59c2.334-.02 4.321.19 6.246 1.62 14.125 10.64 27.911 20.63 43.263 29.55 21.208 12.33 43.284 23.68 65.188 34.74 8.646 4.41 20.799 6.71 29.164 11.2 24.757 13.27 48.953 21.48 75.73 29.51 16.704 5.01 33.503 12.23 50.516 17.25 13.567 4 28.84 8.81 41.989 14.04-23.574-3.54-47.032-9.26-70.476-13.86-23.684-4.65-46.343-7.72-70.202-10.81-49.043-7.67-99.051-14.37-148.222-21.56-20.175-2.95-42.026-2.34-62.37-4.91-22.317-2.82-44.42-7.31-66.836-9.24-18.663-1.38-38.195.34-56.724-1.22l-1.77-.16c17.284-12.01 39.465-21.02 58.304-30.18 35.57-17.3 68.655-33.5 106.2-45.97m975.268 1.29c47.62 12.76 123.62 45.44 163.37 74.48-56.3 1.78-112.53 10.4-168.32 17.75-42.1 5.13-84.23 9.97-126.39 14.53-48.59 6.62-97.63 14.18-146.46 18.5 12.32-5.1 24.81-7.04 37.13-11.25 31.09-10.65 62.79-20.03 92.99-33.03 9.78-4.21 19.2-9.82 28.91-14.26 42.33-17.84 82.61-37.81 118.77-66.72m-662.95-603.19c.651.82 7.842 16.39 8.83 18.4a754 754 0 0 0 17.289 33.08 1286 1286 0 0 0 58.437 96.19c13.846 20.94 29.488 44.2 46.472 62.78-6.171 10.02-12.108 21.22-18.167 31.52-8.075 13.73-17.232 28.02-24.179 42.23l-5.645 10.86c-6.918-9.17-22.302-38.45-28.429-49.76a1092 1092 0 0 1-69.67-154.36c-7.887-22.35-12.917-44.29-20.396-65.41 11.568-7.01 24.669-17.3 35.458-25.53m71.452-53.37c1.068 1.54 7.771 15.78 9.062 18.31a406 406 0 0 0 17.152 30.23c22.407 36.46 62.184 91.33 89.314 123.71-6.81 12.98-38.211 69.14-46.859 76.35-2.741-.79-2.69-1.88-4.84-4.8-12.306-19.97-26.493-36.96-38.206-55.45-28.835-45.52-59.282-94.46-83.241-142.57 9.669-8.78 18.391-12.4 28.205-19.81 9.291-7.01 20.655-17.93 29.413-25.97m220.818 1.43.69.95c-12.08 16.73-23.54 40.19-34.97 58.21-20.59 32.48-42.24 64.8-60.84 98.42-8.33-12.27-18.7-23.75-27.44-35.68-10.137-13.85-19.992-28.41-29.858-42.52-17.496-23.34-35.157-52.91-50.723-77.93 23.468 11.03 40.365 20.93 66.809 28.1 49.272 13.37 94.182-5.81 136.332-29.55m100.68-221.394c2.66 2.533 6.24 16.869 8.36 21.387 13.52 28.802 0 38.292-19.85 55.834-4.13 3.388-6.78 4.745-11.37 7.36.4-22.573 10.81-65.802 22.86-84.581m-410.802 1.809c11.212 14.081 17.665 57.87 18.45 76.122-2.684-1.457-6.225-4.013-8.855-5.8-29.679-22.395-25.612-41.375-9.595-70.322"/></svg>