<svg xmlns="http://www.w3.org/2000/svg" preserveAspectRatio="none" style="display:block" viewBox="0 0 2048 1462"><path fill="#fefefe" d="M0 0h2048v1462H0z"/><path d="M890.991 0h689.959l.43.714c5.81 9.542 11.46 32.089 14.79 43.722l24.62 86.417c3.84 13.731 9.45 37.544 14.6 49.526-6.57 20.215-15.71 42.357-23.19 62.506a2639.6 2639.6 0 0 1-180.53 382.899c-10.6 18.573-21.71 39.32-34.2 56.629-2.98 4.131-13.61.207-20.17 4.041-32.07 18.719-65.74 34.892-97.39 54.409-23.76 14.529-33.99 26.062-29.71 55.302 3.04 20.71 7.19 43.688 9.43 64.527 2.02 18.857-39.37 145.048-32.71 151.978 1.52-3.82 2.61-7.7 4.06-11.54 9.27-24.588 30.79-20.42 46.56-5.713a2206 2206 0 0 0 33.43-75.393c5.41-12.53 17.79-37.978 19.66-50.347 4.66-30.978 5.5-63.72 9.3-94.945.48-3.983 1.34-11.621 5.92-13.212 15.8-4.525 12.37 14.171 11.58 23.401-3.62 29.491-4.71 59.283-9.11 88.637-2 12.723-11.74 32.766-17.01 44.857l-23.75 54.225c11.87 4.255 17.18 7.44 25 17.708 22.63-21.444 43.53-45.349 65.23-67.761 13.11-11.851 13.06-26.367 16.66-42.438 7.16-31.884 12.57-64.739 20.15-96.497 1.11-4.644 6.56-7.906 11.46-7.116 10.25 9.723-5.08 55.832-7 71.208-.96 7.668-12.59 66.277-15.32 70.084-27.23 37.902-65.61 71.663-97.88 105.782 31.48-10.28 104.2-49.82 122.97-76.461 15.46-21.937 32.3-81.908 47.42-106.819 6.11-12.328 17.67-1.162 15.32 4.866-12.89 33.096-34.26 102.882-59.83 126.19 45.64-17.554 42.04-29.337 65.13-67.254 28.67-47.1 18.95-62.569 10.89-113.937 3.72-9.416 25.24-42.072 31.78-51.891a5963 5963 0 0 1 80.31-116.211c80.53-115.777 156.86-240.612 205.77-373.673 19.22-52.272 31.45-105.422 30.56-161.385a355 355 0 0 0-3.89-47.078c-1.04-6.84-6.55-28.247-5.27-32.476a7.7 7.7 0 0 1 4.53-4.969c8.89-3.594 14.36 1.588 16.32 10.07 11.49 49.678 12.82 105.254 1.44 155.09-36.39 159.403-125.34 303.374-214.97 438.042-40.68 61.358-91.34 124.116-126.63 188.329 4.55 47.946 16.97 56.42-6.29 106.313 8.64 1.293 15.09 2.35 23.61 4.382-5.58-25.249-15.23-77.119 5.48-99.916 1.5-1.647 3.98-.956 5.89-.547 13.91 10.313 20.4 53.271 20.68 69.973.12 7.467.45 31.214 2.08 36.7l1.27-.03c5.44-10.572.76-38.852.24-53.107-1.32-30.766-5.11-83.381 13.07-109.613 19.15-27.658 28.04 27.11 28.86 40.593 1.04 17.051.53 36.655.15 55.444 6.74-13.622 37.94-63.858 55.91-64.078 21.84-.266.6 42.114-4.54 51.365-13.96 25.075-32.15 44.505-52.57 64.692l-5.93 24.318c6.6-8.459 28.66-37.391 39.67-30.891 4.92 9.244-3.23 28.828-4.67 39.79l1.69 1.054c10.34-1.323 16.89-22.432 30.37-23.453 10.54 4.359 8.35 24.739 7.27 33.935 6.55 2.623 9.29 3.501 16.17 5.012-2.98-25.703-6-58.946 8.3-82.981.97-1.739 5.07-5.928 7.44-5.507 22.91 4.081 22.32 60.905 23.24 74.922 9.6-21.479 20.68-48.173 41.89-62.457 1.6-1.191 6.76-2.469 8.62-1.176 23.43 16.267-13.23 80.527-20.06 95.211 7.49 6.464 15.45-10.665 23.91-9.766 5.05 5.574.27 11.754 2.92 19.436l1.48.658c2.01-1.036 2.41-1.404 2.91-3.916 6.41-32.182 12.32-64.722 27.6-94.153 5.48-10.548 14.68-27.051 26.5-31.355 6.97-2.54 15.03 3.322 16.2 10.479 5.88 39.727-19.46 87.884-37.71 121.602 22.82-22.235 44.04-46.394 73.69-59.988 3.78-1.73 9.58-4.225 13.74-3.298 7.12 1.586 9.92 10.585 7.6 16.926-9.72 26.784-40.26 49.361-63.85 62.551 14.43 2.505 48.63 12.543 61.06 19.273l-4.63 48.75c-.65 6.91-1.27 14.66-2.12 21.5-.22 1.7-3.48 8.22-4.44 11.28 1.79 3.51 3.32 5.9 2.88 9.96-6.9 63.45-11.64 127.12-18.09 190.61-.43 4.26-1.26 8.97-3 12.9-4.13 3.33-6.88 1.84-11.59 3.98-1.72 3.08-2.2 3.99-4.56 6.57-7.81 3.27-7.12-.08-13.93-2.32-3.15-.45-5.29 6.55-8.23 8.32-10.35 6.22-11.03 1.06-15.76-5.21-4.78-.61-1.29 2.56-9.2 4.43-3.47-.62-4.04-1.62-6.49-4.21l-.81-.87c-4.02-.78-8.55 11.13-16.19 5.41-5.61-4.2-7.73.65-13.37 1.66-8.29 1.49-6.68-7.55-10.37-10.22-1.94 6.16-3.34 12.97-12.24 10.5-3.43-2.56-4.09-4.76-6.01-8.61-4.94 8.1-8.27 13.86-16.59 5.21l-.82-.86c-4.45-1.14-2.72 2.89-9.51 6-5.8.42-5.85-2.52-11.08-3.49-.98.78-1.96 1.55-2.95 2.31-3.59 2.73-3.73 2.54-7.72 2.01-10.04-8.4-6.88.34-17.28-.89-6.2-2.72-4.71-6.59-7.43-11.96-3.52 1.88-1.97 16.38-20.74 7.33-6.65-3.21-6.58-6.63-11.35-10.51-1.66 2.87-6.25 10.73-8.85 12.49-7.24 4.88-12.08-3.03-16.43-3.85-2.28 1.71-3.11 2.69-5.07 4.78-8.42 2.05-5.97-3.25-12.39-5.1-2.27 3.89-3.37 5.81-6.23 9.34-8.78 3.25-5.21-1.02-12.86-3.68-11.48 9.37-13.68 5.22-19.14-7.44-4.73 3.64-.89 4.01-4.89 9.37-8.12 1.89-8.04-3.4-14.02-4.46-2.75 1.62-3.47 2.46-5.8 4.7-7.98 2.69-9.61-3.24-12.01-8.8-2.78 3.06-3.96 4.82-7.7 6.64-3.72.01-6.22-1.82-9.58-3.63-3.22 1.81-3.53 18.28-17.87 2.16l-2.28.13c-3.4 3.94-4.11 6.25-9.51 4.78-8.65-9.62-5.97 4.02-16.51-1.13-3.64-1.78-3-6.98-5.04-10.09-9.79 15.84-15.76 11.21-22.18-2.82-4.07 7.53-4.94 10.75-14.3 9.89-7.51-.69-10.28-2.84-14.78-8.34l-1.05.14c-5.81 18.66-9.13 6.96-17.56 5.67-3.12 2.21-3.65 2.86-7.26 3.69-4.77-1.18-4.75-2.35-8.87-6.18-5.48.62-4.31 6.44-13.49 4.37-3.28-2.29-4.37-5.85-5.95-9.54l-1.19-.34c-2.3 9.31-3.58 12.98-13.74 12.22-1.92-.14-6.14 4.22-10.39 5.15-4.45-.96-5.45-3.12-8.42-7.1-1.01 4.34-1.12 5.19-3.53 8.95-6 4.19-7.35.39-12.86-.68-2.8-.55-5.45 3.59-9.84 4.49-4.49.92-7.77-3.85-9-4.11-3.03-.65-8.82 4.01-13.87 3.62-4.38-2.77-5.66-9.19-6.88-14.02-7.15 21.14-11.89 5.62-26.09 7.91-2.76.45-2.71.78-5.49.33-4.87-3.93-7.1-13.91-8.87-20.06-2.88 14.74-4.77 13.57-19.84 12.57-6.39-.42-14.42-.3-20.2-3.15-.74-.36-1.36-3.94-4.65-5.75l-1.52 1.13-.94 7.35c-2.47 2.54-1.02 1.72-4.51 2.49-2.87-1.14-4.33-2.08-7.28-1.76-10.63 9.19-9.64.74-13.99 1.25-11.96 1.39-12.24 7.1-24.7-4.4-3.21 1.36-4.04 1.74-7.42 2.45-9.07-2.59-3.56-6.4-8.16-10.84-3.52 2.25-1.25 8.98-5.84 12.05-4.12 2.76-16.53-1.6-21.6-2.02-2.41-.21-3.75-3.61-5.07-5.87-7.48 2.24-6.37 2.75-12.66-1.43-4.24 3.79-1.1 3.63-6.38 5.68-3.83-.71-3.87-1.56-6.79-4.71-.92 1.16-4.55 5.78-5.6 6.13-6.75 2.26-19.88-1.83-25.79-3.68-4.3 4.66-9.89 10.18-15.75 3.11-4.94-5.98-5.72 1.82-12.97 2.32-5.33-2.06-2.94-2.42-6.02-5.01-3.05-2.54-2.42 3.9-10.54 4.68-8.51-3.85-3.52-12.5-7.99-17.1-4.01 2.25-2.53 17.66-12.482 19.02-6.239.85-5.205-1.91-10.336-3.49-12.459 5.38-8.366-.27-12.725-4.17-3.806 3.96-4.352 5.68-9.99 4.32-1.241-1.49-1.998-2.81-3.798-3.35l-4.238 2.79c-4.343.22-4.486-.17-8.513-3.45l-.532-.44c-2.854 1.08-3.825 1.36-6.825 1.9-2.744-.62-4.376-3.14-6.314-5.35-3.735-1.12-.737 2.32-8.238 3.36-3.176-1.08-4.727-3.64-6.97-6.32-2.143.34-6.825 7.07-9.49 9.81-10.712.28-24.381.5-35.951-4.31-.851-.35.018-2.64-3.555-4.84l-4.448 2.48c-2.674-.09-4.757-2.04-7.023-3.66-10.949 15.33-8.138 11.79-22.93 7.99-1.071-.28-6.322 3.98-11.6 3.01-5.971-3.51-6.125-8.23-8.056-15.21-2.417 5.11-4.643 11.32-10.506 12.47-6.96-3.62-5.814-1.42-11.323 2.99-8.084 2.3-22.234 1.03-30.453-.61-8.849-1.76-4.842-2.45-9.103-8.72-2.635 2.83-4.591 5.7-8.168 6.5-4.448-.82-3.264-1.36-6.907-4.24-2.881-2.28-6.674 6.44-13.074 6.35-4.295-.06-6.132-2.79-9.116-5.9-6.992-.12-11.477 15.93-18.652-7.22-1.505 5.29-2.26 10.59-7.707 12.84-3.979-1.12-4.953-4.04-8.392-7.5-8.9 12.77-13.575 10.82-22.442 1.09l-1.149.31c-1.253 2.1-2.243 3.93-3.374 6.1-3.108 1.63-3.555 1.66-7.079 1.66-3.379-1.24-3.703-2.12-5.784-5.05-4.453-.16-5.987 1.79-10.163 2.89-3.389-2.75-4.644-15.25-5.372-19.97-2.311 13.37-1.569 31.44-18.249 21.74-.522-.31-5.257.2-6.13.23-5.606.24-5.026-3.01-8.573-6.04-1.86-1.36-6.424 6.02-13.255 7.15-3.771-.88-3.088-1.06-5.712-3.43-1.191-1.08-6.625-.16-10.502-1.07-2.672-2.56-3.483-7.28-4.585-11.07-9.188 20.17-9.155 11.64-24.158 9.21-7.493 5.55-11.274 6.95-16.019-2.08l-.573-1.11c-5.741 10.11-12.319 11.93-18.284.57l-.574-1.11c-8.265 13.72-16.02 7.7-28.889 1.6-5.216 7.89-9.026 8.35-16.009 2.23l-.892-.79c-4.099-.46-3.647 1.72-7.269 3.05-17.923 6.58-12.395-13.96-15.18-20.58-4.53 4.25-3.506 33.74-22.789 17.76-1.995-1.65-4.109 2.78-8.759 3.46-4.32-1.7-3.174-1.5-6.091-6.25l-2.364-.03c-2.812 2.39-4.312 4.32-7.856 4.45-3.634-1.44-3.155-1.89-5.732-5.26-3.585.72-4.273 1.11-7.648.14-2.667-2.84-1.858-2.39-2.723-6.94l-.593.44c-4.586 15.58-13.29 14.67-25.231 7.65-2.251 2.92-3.162 4.64-6.468 6.27-4.521.17-6.212-2.1-10.474-3.58-2.079 1.39-2.955 1.9-5.187 3.03-4.363-.5-3.662-.11-6.835-3.78-16.106 8.28-9.34 2.02-18.018-1.94-8.58 8.27-12.338 2.22-18.016-5.35-4.569 4.17-5.996 7.16-12.257 6.22-1.515-1.42-2.624-2.91-4.577-3.12-10.717 9-10.655-1.58-14.572-1.22-2.98.29-4.268 3.56-8.668 3.49-3.644-1.73-5.837-5.11-8.477-8.33l-1.776.25c-2.048 2.76-2.658 3.52-5.225 5.79-12.49 1.29-10.218-16.08-10.429-24.61-2.333 7.88-5.18 21.53-14.045 23.38-3.015-1.39-3.446-1.67-6.666-2.2-12.144 6.04-9.752-2.5-16.054-5.8-3.105 1.87-3.69 2.52-7.168 2.84-3.866-.86-5.836-3.4-8.795-6.22-7.093-1.42-21.294 13.12-24.576-6.53-6.717-40.2-12.107-80.62-18.14-120.95L82.572 952.952c10.713-7.132 25.1-14.298 36.706-21.053-9.456-16.472-40.98-69.778-21.278-85.009 18.953-4.235 44.807 53.021 51.748 67.149 5.143-4.248 6.917-6.109 13.449-7.475 1.255-5.318-12.575-21.15-4.807-30.93 14.181-6.917 40.225 29.376 50.544 39.966-9.592-23.788-53.739-66.945-58.21-100.088-.31-1.485.472-6.216 2.033-7.042 17.441-9.226 55.282 48.17 61.108 55.777-9.465-24.138-30.715-48.708-39.758-74.316-5.791-16.401-15.635-35.947-10.885-53.967 1.837-6.967 10.674-5.858 15.111-2.478 27.129 20.091 38.466 55.453 47.728 86.485.996-37.764-3.306-94.722 20.83-126.71 8.557-11.34 21.482 1.68 24.384 12.531 11.876 44.413-7.877 90.48-15.89 133.892-1.002 5.428-5.839 18.096-2.293 22.566 5.594-4.767 13.397-76.557 34.654-75.126 13.151 7.538 5.941 41.42 3.92 54.462 5.244-11.693 19.875-50.247 35.02-49.209 12.34 5.944 5.163 34.186 2.485 44.601l.765.41c3.759-4.122 5.378-7.709 11.132-6.428.92 1.363 1.821 2.681 2.519 4.174.51-7.644-1.291-18.629 6.691-22.037 17.123.759 26.165 28.82 36.561 26.411 1.105-4.091-5.616-14.665-7.523-19.578-6.054-15.598-26.414-63.131-13.511-76.998 20.922-8.972 43.411 47.264 49.345 61.323-.54-12.446 1.231-50.244-1.808-58.844-2.307-6.531-19.178-36.963-23.579-45.662a4098 4098 0 0 1-52.78-108.739 4503 4503 0 0 1-98.753-229.76 2949 2949 0 0 1-47.789-123.965c-24.104-65.43-50.712-136.705-54.009-207.312-.355-7.591-2.628-24.358 7.688-26.11 16.536-2.807 11.39 19.986 12.159 29.54 1.568 43.516 14.232 86.527 27.844 127.739a3166 3166 0 0 0 68.881 185.367 3927 3927 0 0 0 95.748 223.901 3389 3389 0 0 0 55.386 114.61c2.871 5.647 28.57 54.246 28.659 56.032 2.452 49.147-1.208 131.263.103 177.948 32.238 27.234 64.56 51.704 97.625 77.576l10.912-9.507c-20.677-28.823-43.099-56.906-64.211-85.438-4.302-5.815-2.953-14.652 4.263-17.9 2.994.068 6.229 1.121 8.146 3.564 18.243 23.333 33.501 46.174 52.025 69.727 15.07 19.161 36.469 52.958 63.307 54.618 10.657.66 18.935-9.54 23.887-17.99-9.716-6.691-12.244-9.883-18.366-20.255a29401 29401 0 0 0-62.427-105.378c-6.552-11.004 6.257-22.773 15.219-9.217 6.355 7.909 13.034 23.261 18.564 30.71 9.752 13.134 41.051 75.993 51.739 83.185 20.905 14.069 76.643 50.015 98.98 54.725-7.957-17.01-21.036-37.513-30.862-54.225l-63.798-107.738c-8.313-14.26-16.84-28.454-24.88-42.855-2.979-5.336-1.168-10.524 3.005-14.366 1.845-.581 3.813-1.445 5.526-.457 10.445 6.024 21.149 29.905 26.984 39.859l42.945 73.126c13.694 23.352 36.133 57.09 47.107 79.386 28.871-33.167 43.787-14.883 61.003 13.6-5.649-27.061-24.049-61.39-34.706-88.292-8.015-20.232-51.036-143.917-48.016-152.669.771-2.234 3.198-4.318 5.358-5.129 2.339-.879 4.976-.606 7.168.568 3.328 1.783 4.543 5.472 5.798 8.801 5.527 14.647 8.699 30.551 13.518 45.519 9.94 30.878 20.926 61.436 31.161 92.221 6.417-6.085 8.506-6.929 17.091-9.193-1.133-6.391-4.311-16.317-6.769-22.486-13.091-32.849-25.7-66.461-44.176-96.813-17.396-27.562-43.322-48.488-68.338-68.846-29.183-23.748-58.77-47.461-88.983-69.863-2.348-1.741-8.003-2.977-10.94-3.651-5.571-11.685-15.999-44.388-20.189-57.227a7979 7979 0 0 1-33.254-104.075A8939 8939 0 0 1 406.323 88.081c3.281-10.832 19.968-78.753 22.054-81.363 1.451-1.816 4.026-2.609 6.286-2.666 2.838-.072 7.186.673 8.545 3.579.633 1.353 4.656 55.594 6.154 64.553 9.579 57.29 34.402 120.316 75.981 162.003-4.433-18.883-9.199-37.731-13.195-56.709-4.423-21.007-31.941-159.422-27.803-169.993 1.01-2.58 2.955-4.61 5.544-5.625 2.365-.927 4.907-.702 7.116.533 4.767 2.666 5.439 8.471 6.273 13.338 2.623 15.304 4.498 30.764 7.101 46.096a2510 2510 0 0 0 32.503 163.175A11819 11819 0 0 0 620.08 519.99c10.581 39.108 23.013 80.066 32.467 119.273 9.755.774 20.566.758 30.404.568 55.167-1.064 111.742 1.831 166.746-.52 2.031-39.508 6.074-83.079 9.097-122.851l22.207-285.539c6.039-81.935 11.653-148.61 9.99-230.921"/><path fill="#fefefe" d="M1178.82 0h384.67c-12.29 11.514-7.53 29.357-9.45 44.453a1747 1747 0 0 1-14.44 89.834c-22.81 117.053-60.49 231.001-96.53 344.561-17.16 54.085-32.08 107.337-48.59 161.347l-194.27-.312L1182 267.734a5712 5712 0 0 1-3.89-119.221c-1.32-48.132-2.38-100.367.71-148.513M910.69 0h250.2c-10.53 14.346 3.41 290.866 4.53 329.384-70.41-13.516-108.35-46.742-151.31-99.731-.64-.794-4.43.627-5 1.242-31.563 33.926-69.266 55.116-113.992 67.393 5.482-87.644 16.325-175.265 16.062-263.314-.034-11.653-.264-23.322-.49-34.974"/><path fill="#fefefe" d="M1010.3 256.683c2.72 1.027 12.21 12.312 15.15 15.517 37.78 41.063 85.14 69.136 141.44 76.576.66 31.587 3.52 66.24 5 98.146l14.83 306.452c-1.8.931-3.59 1.894-5.36 2.888-19.62 11.063-25.49 30.816-31.1 51.065-2.97-8.787-6.78-26.957-17.09-28.062-8.08 2.824-13.48 15.316-17.35 22.84 1.13-9.54 8.36-90.449-17.08-86.948-6.37.876-11.79 27.142-12.74 33.896-.87 6.194-3.52 17.571-5.67 25.459-.42-21.255 10.49-157.763-32.41-131.571-18.87 11.52-1.9 129.545.84 150.586a339 339 0 0 0-18.42-42.93c-1.93-3.554-3.92-7.388-6.05-10.772-21.02-33.259-49.476-38.965-41.766 10.568 5.077 32.62 17.465 55.568 30.226 85.423-16.958-13.437-10.79-25.521-32.719-30.251-25.535 7.872-29.768 25.626-33.016 49.948-.786-5.844-.489-29.218-3.689-31.48l-1.777.882c-4.08 6.368-4.792 20.493-5.666 28.422-5.604-9.618-6.103-10.517-15.834-15.683a332 332 0 0 0 8.068-26.583c4.678-18.607 9.446-44.138-.323-61.8-3.483-6.297-10.168-8.09-15.308-2.891-16.317 16.505-18.77 54.224-20.316 75.802-3.527-26.88-.718-61.925-30.286-73.097.073-14.276 2.102-34.89 3.141-49.564l6.219-88.367 22.142-293.705c38.421-6.329 89.362-33.297 116.914-60.766M862.863 771.672c7.364 4.864 8.859 48.242 10.164 59.628 2.986 26.065 4.024 52.652 7.668 78.881 5.649 40.653 16.193 75.86 26.848 115.269 7.75 29.29 15.718 58.53 23.902 87.71-68.562 26.94-124.309-18.88-193.243-16.14-23.372.93-34.105 5.32-55.68 11.03-34.268 9.07-76.552 19.07-111.271 8.8 9.612-31.2 20.294-58.46 37.459-86.2 6.786-1.37 9.872-2.25 16.385-4.6l-.46.45c-4.201 4.14-12.853 11.95-5.411 17.26 7.953 1.31 21.957-9.17 33.78-13.1l23.413-6.06c18.725 11.15 44.88 26.03 66.3 16.68 13.284 22.17 30.743 30.85 54.414 14.03 11.759-8.36 14.448-21.4 16.035-35.04 11.78-.32 17.461-.51 29.804 1.45 12.501 1.97 25.259 24.12 35.145 17.13 9.579-6.77-7.061-18.92-12.203-23.53-13.027-11.67-28.59-12.13-45.218-13.54 10.41-12.902 14.485-18.567 16.846-34.748 8.589 1.727 28.697 14.346 31.963 4.11-1.897-15.44-24.143-21.081-36.715-22.731-14.829-27.257-16.123-25.979-14.101-56.617 13.088 4.882 28.107 22.763 37.071 9.03 3.243-13.868-26.504-25.525-36.909-29.028a790 790 0 0 1 2.14-23.598c6.64 2.347 19.147 9.082 24.914 9.215 6.902-2.362 8.705-9.094 3.441-14.21-7.318-7.113-18.097-10.968-27.429-14.804l.455-13.298c7.2 2.037 17.251 5.202 21.711-2.883-.014-11.47-14.166-15.043-22.786-17.485 20.92-3.2 28.842-5.891 41.568-23.061m324.787.247c2.31 2.922 1.26 13.36 2.24 18.653 2.76 14.873 12.56 22.251 23.96 30.344-3.82 3.778-30.79 19.426-25.12 27.768 4.84 7.106 12.22 1.715 17.51-2.406l-5.83 32.055c-5.71 4.662-12.97 11.182-13.25 19.077 3.5 7.754 6.56 3.092 10.31 5.682-.62 16.531-4.85 40.058-7.66 56.774a148 148 0 0 0-3.7 2.792c-3.47 2.723-9.7 8.282-10 12.447-.46 6.206 7.95 6.244 11.66 6.678-.06-.006 3.69 11.426 4.43 12.718 1.82 3.175 4.56 6.119 7.02 8.879-13.12 4.57-28.63 17.11-29.26 33.24-.08 2.18.89 2.55 2.37 3.69 11.21 1.3 19.46-13.77 28.28-18.65 2.68-1.48 8.28-2.66 11.39-3.37 10.22 33.57 48.15 48.05 68.48 15.6 14.64 6 40.72 10.3 56.3 6.04 12.56-3.44 27.55-11.78 39.06-18.19 3.75 7.2 8.46 18.91 18.31 17.9 8.2-6.86-.22-18.28-4.47-25.14l19.8-13.31c9.01 14.78 17.18 28.36 25.45 43.56 11.22 22.17 23.77 49.22 32.13 72.57-39.75 14.79-94.84-8.06-134.84-16.55a209 209 0 0 0-38.77-4.34c-41.93-.52-60.66 10.65-100.42 21.19-27.3 7.24-55.6 3.9-82.65-2.84 14.7-66.32 36.08-131.443 49.33-198.727 7.77-39.427-1.71-119.652 27.94-144.134M432.56 100.433c7.397 5.332 34.071 127.094 99.856 162.691 17.092 59.374 31.881 122.951 47.986 182.977l46.603 172.255c1.725 6.435 11.589 38.618 11.396 42.998-7.016-4.634-44.16-32.243-46.107-36.392-13.095-27.913-28.061-80.798-37.537-109.699a8209 8209 0 0 1-78.291-252.625c-15.113-51.53-31.349-103.113-44.853-155.158-.901-3.471-.377-4.095.947-7.047m1140.9-57.709c4.96 4.604 36.6 123.882 40.84 139.587-12.96 38.412-30.88 82.989-46.27 120.297a2424 2424 0 0 1-122.89 258.88l-16.69 31.574c4.06-18.507 12.53-44.004 18.24-62.395l35.75-113.276c29.34-93.727 57.81-185.164 76.64-281.892 6.06-31.165 10.04-61.416 14.38-92.775"/><path fill="#fefefe" d="M1274.02 1115.38c61.14-9.42 136.49 41.43 196.99 19.98 1.19 7.76 2.32 39.48-3.65 44.08l-5.88-2.59c-3.2.18-4.27 1.59-6.82 3.74l-1.03.87c-2.2-2.3-2.1-2.2-4.97-3.6-5.89.07-6.32.39-8.2 5.55-2.54-.61-2.62-3.31-6.79-4.05-5.41 1.84-3.41 2.63-8.3 7.02-1.52-1.53-3.06-3.04-4.62-4.52-7.67-.72-5.01 3.9-9.71 7.73-3.22-1.4-4.05-1.94-7.47-2.38-2.2 1.62-3.12 2.44-5.1 4.33-3.99-3.73-1.27-3.52-5.85-4.78-3.28.88-3.43 1.69-5.86 4.87l-.6.79c-1.84-3.31-2.09-4.32-5.07-6.41-3.99.25-4.41 2.26-8.05 5.91l-1.47-1.09c-2.32-5.92-1.77-6.59-8.15-7.29-3.66 1.76-3.51 2.99-5.87 6.96-9.6-2.8-4.87-20.57-17.41-22.63-12.6-2.07-14.2 8.88-15.98 18.34-3.22-4.34-8.58-9.21-14.21-9.51-4.72 3.03-3.82 5.72-6.61 10.37-2.44 4.08-5.94-2.24-9.76-.06-1.96 1.12-1.59 2.64-4.7 3.44l-3.31-3.35c-1.93-2.19-.73-1.35-4.02-2.07-3.02 1.42-16.56 5.84-19.72 6.01-1.37-3.2-1.74-4.84-4.39-6.99-8.3-.45-8.63 5.7-16.43 9.64-7.13-3.35-1.95-10.93-11.06-12.78-3 .71-3.47 1.74-5.56 4.13l-.71.83-2.56-2.52c-10.82-2.08-11.65 10.92-23.46 5.83-.43-3.87-.5-5.5-1.91-9.25-2.91-2.07-1.31-1.56-5.05-1.36-3.76 2.51-5.53 6.44-7.92 10.43-1.08-4.58-2.28-11.38-4.76-15.11-3.43-1.54-2.07-1.49-5.46-.87-2.82 3.83-.87 6.75-2.45 12.21-3.46-.26-2.56-3.08-7.26-6.6-2.98.7-3.43 2.33-5.74 5.16l-1.7-.06c-6.26-4.39-4.59-14.29-13.7-13.5-2.75 3.11-2.11 3.16-3.08 7.45l-1.15-.75c.31-4.09 1.39-7.27-.65-10.89-3.03-1.81-1.9-1.69-5.06-1.61-2.73 2.3-3.77 6.09-5.18 9.55-1.25-2.46.82-6.24-.15-11.26-2.55-3.05-1.24-2.17-4.95-3.38-6.36 1.68-9.69 8.51-13.59 14.2-2.87-13.01-3.36-27-2.21-40.22 43.78 10.74 73.08 9.7 116.05-5.05 14.83-5.09 36.82-11.1 52.28-12.89m-539.272 1.04c31.601-4.78 81.236 14.9 113.44 19.84 35.41 5.43 51.752 6.92 86.774-3.92.126 6.82 1.794 31.12-2.987 35.59-7.842-.28-6.199 1.21-9.487 7.57l.338-4.93c-2.528-2.25-1.426-1.59-5.345-1.93-3.343 1.53-3.973 4.64-6.57 8.66-10.237 5.53-11.018-8.93-20.597-8.84-2.985 1.67-3.289 3.6-4.649 6.93l-.547 1.36c-4.131 2.53-4.913-4.51-12.711-4.12-1.793 2.35-1.775 2.33-4.145 4.09-2.712-4.28-2.874-4.04-7.659-3.96-2.868 1.86-2.475 3.54-3.972 7.63-8.728-.35-7.9 1.87-13.069 9.06-3.478-4.63-5.191-7.74-10.718-9.73-4.014 1.01-4.527 3.37-7.182 7.59-3.443 1.06-6.959-1.54-11.252-3.26q-1.938.9-3.822 1.92c-.191-4.46.111-6.52-4.033-8.59-11.811 2.05-4.961 11.3-8.538 16.08-3.136-1.67-6.412-4.05-9.926-3.19-1.064.26-1.302-.19-2.366-.71-1.679-5.37-1.471-7.28-7.117-9.1-6.862 1.2-9.53 11.38-16.562 9.65-2.195-3.98-3.637-6.82-7.941-8.26-3.491.82-2.021 0-4.539 2.61-.801 1.38-1.331 2.06-2.272 3.36-9.998-1.57-7.929-8.48-15.3-12.21-6.815.89-4.146 5.27-7.923 8.92-1.109-3.29-1.463-4.24-3.215-7.22-3.421-1.94-1.864-1.55-5.958-1.31-2.712 2-2.885 3.4-4.013 6.62l-.4 1.16c-1.482-.27-.211-2.88-4.798-5.68-5.163.45-11.021 6.17-15.492 9.67-2.876-2.03-3.062-2.33-6.431-2.9-3.988.83-5.738 4.08-9.413 7.34l-1.597-.54c-1.882-3.07-2.396-4.38-5.294-6.49-4.447-.08-4.355 1.01-8.593 4.22-4.102-3.09-1.136-8.79-9.52-10.83-2.841 2.35-2.599 3.7-3.949 7.57-5.153-1.24.968-8.73-3.294-14.37-9.042-2.02-10.5 8.82-19.657 10.77-3.253-8.91-3.075-12.18-11.441-6.43-.087.06-3.083-2.92-6.533-2.68l-3.175 5.43c-2.341-.69-1.005-4.66-3.981-9.17-3.199-1.63-2.308-1.1-6.426-.82-3.583-1.99-.642-7.6-6.878-9.77-8.621 2.2-2.305 5.94-6.825 11.74-1.726-1.69-1.744-1.91-4.05-2.84-4.353 2.28-5.52 9.47-6.557 13.83-2.974-18.52-3.714-27.24-.686-46.4 29.915 9.74 73.241 2.08 103.558-4.76 23.191-5.23 40.475-12.23 65.295-14.25m30.935-367.066c15.694-2.02 31.352 1.423 46.197 6.144l3.175 16.201c-3.061 6.095-5.275 11.015-7.872 17.325l-9.114-1.075c-10.818-.428-18.305-.341-28.955 1.378-5.959-13.78-15.748-25.395-25.598-36.455 7.125-1.421 14.937-2.436 22.167-3.518m467.717 62.354c2.52 4.615 9.85 45.058 8.76 50.539-4.44 22.294-10.05 46.661-17.54 68.126-.4 1.147-1.7.986-2.76 1.16-3.75 1.057-4.98 1.41-8.84 1.688-5.08-8.582 15.84-106.402 20.38-121.513M767.262 1000.77c5.249 1.33 19.752 28.92 23.475 35.16-4.652 3.31-9.52 6.13-14.414 9.06-1.254-.06-2.621-.36-3.876-.58-5.552-4.96-16.462-27.35-19.728-34.89zm28.2-76.702c5.283 4.403 19.914 31.926 24.014 39.585-3.122 3.585-7.218 7.196-10.747 10.476l-1.737 1.168c-3.623-2.212-16.495-36.582-18.941-42.726 2.521-2.455 5.119-5.765 7.411-8.503m456.378 75.189c6.01 1.443 12.36 6.273 17.43 9.853-3.54 8.17-8.38 16.62-12.65 24.49l-1.63 1.37c-4.34-1.09-10.47-4.12-14.75-6.05 3.5-10.34 7.39-19.58 11.6-29.663m-43.89-238.343c9.76-.305 15.29.296 24.95 1.337l-7.97 18.951c-1.01 3.275-1.07 4.376-3.32 6.803-3.48 1.376-8.49-.398-12.47-1.293-1.35-9.397-1.28-16.449-1.19-25.798m95.21 226.257c8.51 4.555 10.79 6.43 16.8 13.979-6.55 7.23-8.95 10.38-14.49 18.33-6.57.14-9.98-.62-16.35-2.07a257 257 0 0 0 14.04-30.239m-92.25-36.825c3.72-.414 4.7-.53 8.39-.082 2.25 4.685-5.75 27.575-7.66 33.447l-1.74 1.081-2.08-.901c-4.05-5.777-.23-27.396 3.09-33.545M781.948 812.914c6.184-.145 15-1.275 20.075.934 2.165 3.065 1.312 3.17.747 7.749-5.135-.579-11.304-1.119-16.198-2.782-3.296-1.119-3.315-2.85-4.624-5.901"/></svg>