<svg xmlns="http://www.w3.org/2000/svg" preserveAspectRatio="none" style="display:block" viewBox="0 0 2048 1462"><path fill="#fefefe" d="M0 0h2048v1462H0z"/><path d="M865.414 105.397c16.871-.944 43.67 1.173 61.521 1.297l140.675.712 392.29 2.565c45.15.318 90.81-.613 136.12.949 6.74.232 14.26-.233 20.91.278 66.56 5.114 133.33 4.971 199.7 11.736 30.32 3.007 63.19.822 93.66 2.177 24.96 1.109 20.51 27.105 23.64 44.003 4.15 22.492 2.99 44.63 3.3 67.294l.93 105.03c.15 36.344 4.33 74.75 3.68 110.56-1.19 65.798-2.63 131.621-1.75 197.474.3 22.779 2.91 45.723 3.34 68.654 1.68 123.488 2.26 246.989 1.74 370.484l-.28 108.64c-.16 19.8-.2 40.38-1.67 60.1-1 13.46-6.98 23.06-15.55 33.11-6.1 7.14-15.15 14.55-24.89 15.59-19.88 2.14-41.8 2.57-61.85 3.27l-123.92 4.15-451.11 15.87c-29.75 1.26-59.41 1.2-89.15 2.87-16.86 1.17-36.68 1.39-53.72 2.02l-98.26 3.65-206.326 5.95-204.188 2.51c-116.188 2.28-233.173 13.48-348.798 6.58-45.943-3.97-104.194-6.41-143.434-32.73-29.445-19.75-12.774-91.97-10.713-123.64 3.3-58.43 5.802-116.91 7.505-175.4a12507 12507 0 0 0 5.905-276.826c.084-16.035-2.121-32.096-2.391-48.047-.656-38.695 1.72-77.42 2.707-116.05l6.52-265.569q.645-51.975-.059-103.95c-.225-20.714-1.085-42.071.46-62.709.731-9.769 7.385-18.92 17.776-19.82 78.973-6.837 158.24-12.159 237.585-10.644 89.953-.31 181.146-8.034 271.115-9.396 68.677-1.04 138.367 1.862 206.98-2.742"/><path fill="#fefefe" d="M843.623 126.439c9.726-.877 26.803.103 37.162.312q26.267.335 52.536.281l214.939 1.167c74.59.884 149.48-2.118 224.17.437 12.31.421 24.82.842 37.12.952l98.76 1.311c24.37.167 48.39-.491 72.89.215 54.98 1.586 108.99 7.115 164.05 7.439 26.43.156 55.76 5.112 82.6 5.879 27.47.784 54.76.901 82.19 1.721 1.64 14.196 5.14 31.337 5.66 45.282 3.15 84.136 1.26 168.301 4.77 252.439 0 3.17.22 6.507.13 9.665-2.7 89.242-2.98 178.586 1.29 267.777 1.27 26.543-1.22 53.458.07 80.762-32.81-12.088-54.05-14.211-88.56-17.943-26.29-2.843-48.48-6.745-75.66-6.502-15.41.138-39.13-7.444-55.93-7.16-9.21.156-26.95-8.426-36.76-9.665-26.26-2.115-57.04-7.074-82.95-7.942-14.65-.492-39.05 8.894-54.44 11.183-34.16 5.078-68.09 9.754-102.32 13.635-5.59-26.452-9.56-43.605-19.92-68.338-37.24-88.881-115.65-165.578-206.17-200.657a465 465 0 0 0-46.85-13.616 345.34 345.34 0 0 0-260.373 42.879c-63.896 39.99-117.519 103.106-146.133 173.021-9.275 22.661-13.848 41.993-19.254 65.608-58.605 1.9-114.489 7.067-173.42 2.024-39.411-3.373-79.112-5.519-118.602-7.526-28.51-1.448-55.993-4.753-84.627-1.572-48.406 5.393-94.895 20.522-142.059 32.095-20.953 5.052-42.757 6.664-63.969 11.999 3.373-48.394-.871-95.489-.817-143.531.141-123.022 8.568-246.776 8.55-369.728l-.548-92.763c-.146-16.48-.565-33.057-.108-49.505.076-2.725.788-7.056 3.231-8.225 2.34-1.12 7.129-2.328 9.645-2.503 53.444-3.733 106.945-7.337 160.454-10.074 10.737-.549 22.18.904 32.981.65 20.079.103 41.052-1.982 61.061-1.661 48.105.771 95.592-2.787 143.589-4.28 17.562-.546 34.974-1.836 52.504-2.48 12.988-.543 26.943.868 39.844-.021 38.067-2.623 75.629-.496 113.671-.372 24.945.082 50.63-1.312 75.603-2.669"/><path d="M235.599 211.35c5.803.818 39.394 24.479 47.425 29.918a8795 8795 0 0 0 93.486 62.666l208.446 136.994c57.058 37.303 116.027 75.26 171.133 115.696 12.771 9.371 28.439 20.248 37.564 33.042 1.289 1.808-.194 4.681-.868 6.464-6.198-.175-9.007-1.597-14.31-4.774-53.511-32.061-104.316-68.755-155.862-103.898a15850 15850 0 0 1-272.228-187.085c-14.676-10.142-110.015-73.449-116.115-81.301-.698-4.381-.609-2.764 1.329-7.722m1551.321 17.401c1.58.103 2.51.565 4.02 1.075 2.13 2.248 1.61.939 1.56 4.077-1.56 3.624-4.25 5.957-7.48 8.116-34.82 23.286-70.32 45.956-104.99 69.431l-185.96 128.228a7974 7974 0 0 1-104.61 71.468c-17.52 11.78-42.49 29.697-61.18 38.196-1.69-.63-2.1-.621-3.4-1.852-1.16-.702-2.54-4.575-1.92-5.912 7.46-16.171 41.94-37.291 55.12-46.809 30.51-22.039 61.37-41.621 92.23-61.971 104.85-69.14 211.36-135.622 316.61-204.047M189.12 618.527c9.465.656 23.097 3.238 32.921 4.703l63.145 9.397a5693 5693 0 0 1 225.056 36.611 6308 6308 0 0 0 81.61 14.008c18.278 3.029 97.239 14.587 104.198 28.294-.279 3.9.138 2.436-2.574 5.815-23.242 4.093-94.702-11.875-119.458-16.6l-172.637-33.413c-42.153-8.016-84.557-16.876-126.634-24.617a3984 3984 0 0 0-48.086-8.887c-8.435-1.44-33.108-3.622-38.412-9.017-.971-3.49-.778-2.219.871-6.294m1651.03-88.505c1.85-.311 2.94.314 4.72.968 1.55 2.61 1.23 1.427.65 4.901-5.66 7.233-27.18 11.428-36.83 14.536a3795 3795 0 0 0-79.58 26.301 10603 10603 0 0 1-203.28 70.08c-21.52 7.359-42.84 15.144-64.61 21.89-12.9 3.997-25.07 8.964-38.51 10.757-4.55-.723-4.02-.589-6.64-3.42-.38-5.299 3.15-9.552 7.86-11.715 26.64-12.241 55.24-21.876 82.96-31.543a5128 5128 0 0 1 192.37-61.011c47.87-14.043 93.09-26.169 140.89-41.744M384.972 483.761c9.25 1.137 35.813 13.559 46.144 17.719l154.269 63.316c40.825 16.349 82.98 30.916 123.246 48.736 7.311 3.236 18.284 4.756 20.645 12.907-.63 3.545-1.196 3.746-3.91 6.418-22.324-5.713-52.056-17.651-74.219-25.793a4153 4153 0 0 1-172.63-68.202 5520 5520 0 0 1-61.809-25.629c-7.999-3.441-34.764-13.076-36.321-21.618.874-3.818 2.125-4.926 4.585-7.854m203.681-212.339c1.108.11 5.107.334 5.937 1.04 8.473 7.212 16.133 15.699 24.123 23.493 36.097 35.215 70.229 72.394 105.57 108.314l61.264 61.643c11.918 11.858 24.138 23.529 35.721 35.701 3.025 3.18 5.681 6.371 6.775 10.719 1.11 4.413.045 5.131-1.913 8.772-23.845-6.259-131.953-126.202-156.401-148.901-9.923-9.212-82.023-86.115-84.389-93.409.179-3.813.837-4.174 3.313-7.372M371.971 733.435c60.136-2.788 107.807 2.952 166.953 10.529 32.293 3.878 64.519 8.3 96.663 13.263 15.305 2.373 30.593 3.478 45.832 5.918 2.496.4 3.86 2.441 5.065 4.474.543 3.164.616 3.294-.814 6.028-6.608 4.515-25.705 1.691-34.486 1.027-31.219-3.448-62.296-5.692-93.413-10.105-64.633-9.166-128.588-19.482-194.064-19.513-7.423-.004-22.068.471-26.779-5.552l1.114-1.956c7.193-4.209 24.619-3.639 33.929-4.113M1489.31 250.617c13.39 2.084 8.15 11.826 2.08 18.614-25.32 28.316-50.85 55.802-75.05 85.151-32.84 39.829-67.43 78.489-102.1 116.733-9.26 10.211-18.51 19.692-29.75 27.707-2.75.619-3.72-.182-5.82-1.637-2.25-4.217-1.42-8.792 1.73-12.357 9.93-11.227 19.91-22.406 29.86-33.607l60.49-68.757a5998 5998 0 0 1 80.03-91.921c8.6-9.541 28.98-32.446 38.53-39.926m253.92 433.692c6.48-.603 12.34 2.551 11.59 9.696-12.06 15.878-223.3 38.923-254.16 42.796a1374 1374 0 0 0-39.4 5.895c-6.05.374-13.41-1.417-11.36-9.137 11-12.37 117.74-21.164 138.79-23.956a3614 3614 0 0 0 154.54-25.294m-671.54-541.03c3.39.353 4.08.196 6.82 1.986 1.09 2.456.22 46.263.35 53.66.25 14.383 1.61 33.432 1.69 48.075.18 34.986.46 69.556.42 104.594-.02 27.785.55 58.172-3.98 85.616-1.24 7.475-3.01 10.817-9.07 14.667-9.46-6.497-9.11-29.262-9.29-40.288-.4-24.83 1.74-49.995 2.86-74.824q1.89-53.658 4.56-107.284c.71-14.944 2.31-76.445 5.64-86.202m165.13 34.172c2.92.448 3.11.588 5.79 1.94 1.23 1.823 1.85 3.178 1.81 5.426-.38 20.966-89.42 238.412-105.75 268.416-1.79 3.277-3.97 5.886-6.58 8.538-3.98-1.291-7.06-2.429-7.27-7.275-.24-5.709.63-11.771 2.77-17.085 10.28-25.568 21.75-50.657 32.26-76.141l36.86-90.448c7.22-18.007 30.89-82.921 40.11-93.371m123.21-17.906c2.87.295 2.77.377 5.37 1.789 3.88 7.065-5.31 17.63-8.97 24.225l-20.86 38.302c-7.59 13.783-14.59 27.734-22.03 41.582-34.22 63.714-66.79 128.335-102.05 191.481-3.1 5.555-5.58 9.935-10.7 13.827-1.19-.188-1.99-.548-3.03-1.132-1.72-.976-2.67-2.585-3.09-4.553-4.5-21.194 143.89-267.726 165.36-305.521m315.08 325.404c5.44-.252 7.01-.215 10.07 4.399.19 2.035.4 4.79-1.26 6.008-12.13 8.873-41.66 18.369-54.71 23.261a4498 4498 0 0 1-95.48 34.934 3467 3467 0 0 1-84.02 29.44c-14.83 5.01-38.68 13.509-53.64 15.701-5.01.285-4.92 1.006-8.99-.914l-.39-1.963c3.81-5.619 33.13-18.434 40.73-21.133 82.73-29.381 165.2-59.741 247.69-89.733m-959.362-277.26c4.556-.235 6.748.119 9.729 3.857 11.42 14.319 21.794 29.627 32.309 44.641a6366 6366 0 0 1 56.896 82.635 3169 3169 0 0 1 56.673 89.632c6.495 10.551 35.696 56.113 33.583 66.507-5.487-1.682-7.056-4.415-10.419-9.156-14.758-20.804-28.717-42.518-42.732-63.845a8916 8916 0 0 0-69.323-104.613 5735 5735 0 0 1-51.125-75.837c-5.229-7.968-11.177-16.102-16.097-24.174-2.239-3.673-.734-6.157.506-9.647m182.014-43.138c4.48-.09 5.414-.113 7.266 4.133 3.247 7.443 5.942 15.143 8.804 22.749a3033 3033 0 0 1 19.093 52.466 3120 3120 0 0 1 42.439 125.968c6.684 21.199 25.876 74.305 19.613 93.763-12.714-7.321-21.001-43.652-25.618-58.656l-28.168-93.102a5353 5353 0 0 0-30.264-93.396c-5.075-15.191-10.612-30.416-15.433-45.695-.608-1.926 1.444-6.231 2.268-8.23"/><path fill="#fefefe" d="M1584 772.422c21.14-.086 54.1 4.562 75.65 6.731 16.08 1.619 35.83 12.437 54.09 11.548 8.6-.418 23.52 4.383 32.79 4.56 13.66 3.098 31.26.262 44.29 2.421 43.66 7.228 93.71 4.666 132.06 28.658.06 7.63-.38 12.178-1.21 19.646-71.14-5.165-157.73 61.029-209.19 104.727-17.5 14.856-36.73 36.332-52.38 53.397-15.11-14.439-48.06-20.238-68.63-19.596-36.2 1.132-71.1 9.733-101.73 29.406-2.94-.81-5.88-1.6-8.83-2.35-37.33-9.47-68.73.27-99.42 21.84-6.29 4.42-17.3 11.47-19.23 19.13.71 3.31-.08 1.9 2.71 4.21 6.52-.04 29.79-15.63 38.36-19.44 35.84-15.96 52.88-14.76 87.72-2.55 9.32-3.8 19.43-10.91 29.07-15.22 33.67-15.05 64.82-18.41 100.97-12.83 9.44 2.03 19.38 5.38 28.67 8.28-10.62 13.55-22.76 28.72-33.97 41.72-4.66-3.99-8.41-6.73-14.62-7.96-49.35-9.76-163.16 51.05-206.11 76.99-23.81 14.38-46.05 30.5-69.28 45.7-2.61-44.49-10.7-88.58-20.85-131.82-7.98-33.98-11.51-57.446-27.97-88.375-22.03-41.381-49.43-55.939-91.83-69.403-.36-.764-.73-1.517-1.13-2.258-10.3-19.1-25.31-23.135-44.85-28.807 12.57-14.564 21.03-31.506 28.28-49.101 20.05 1.752 41.66 3.691 61.57-.229 14.76-2.905 27.04-7.77 42.51-8.556 24.65-1.329 49.09 4.393 73.52 6.355 30.75 2.469 61.59-.797 92.12-4.186 30.92-3.432 61.54-7.02 92.26-12.031 18.31-2.988 36.27-9.396 54.59-10.607"/><path d="M1621.33 836.371c17.6-2.1 88.19-.219 86.74 25.642-6.34 11.482-20.27.911-29.34-1.725-34.26-9.949-70.1-8.154-102.23 7.913-5.58-2.88-13.5-7.984-19.07-11.333-25.69-9.901-54.53.475-80.38 5.57-3.8.749-5.67 2.547-8.41-.933.02-1.462-.02-4.063 1.15-5.034 11.17-9.255 41.39-15.125 54.96-17.314 20.52-3.311 36.41-.5 52.33 11.322 13.11-8.816 28.72-12.451 44.25-14.108m-206.71 88.953c9.53.989 27.3 4.748 32.63 13.79l-.75 1.632c-9.42 3.882-26.73-3.351-36.4-2.02-6.42 1.281-18.68 11.198-25.16 10.265-7.83-1.128-10.35-5.69-20.18-6.015-7.96 1.194-27.31 8.638-32.43 5.683-1.64-12.952 26.46-20.083 36.28-18.82 7.87 1.012 9.25 1.773 15.77 5.837 12.7-6.14 16.17-8.95 30.24-10.352"/><path fill="#fefefe" d="M1052.44 505.404c7.84-.95 23.27-.885 31.3-.748a325.6 325.6 0 0 1 181.89 60.23c71.35 50.098 125.85 127.924 141.08 214.448-17.71 2.022-47.89 1.632-66.1.24-20.99-1.603-42.06-5.882-63.55-5.564-20.01.297-35.66 6.049-54.92 9.449-15.45 2.729-34.99 1.814-50.57.317 4.81-29.759 17.01-83.291-28.61-88.162-15.02-30.34-33.69-31.583-63.97-27.454-56.5 12.283-67.54 54.379-62.96 105.514-28.145 4.773-42.84 7.428-71.299 6.306-19.85-31.968-48.111-49.575-86.51-40.031a79.38 79.38 0 0 0-48.44 35.949c-18.98.476-44.439-1.714-64.879-1.712 4.589-12.987 7.155-26.97 11.764-40.05 39.41-111.848 138.041-202.566 255.834-223.875 13.41-2.425 26.24-3.784 39.94-4.857m-691.553 283.19c24.236-2.911 45.291 1.254 68.826 1.864 55.61 1.441 110.386 7.374 166.018 8.439 34.688.534 69.384-.19 104.02-2.172 39.414-2.071 61.688-4.576 102.536-3.286-5.324 23.217-.783 49.587-6.988 65.072-11.443 28.557-31.605 37.875-34.657 74.127-26.388-5.132-49.104 14.983-51.728 41.277-.319 3.197.502 8.159.921 11.442-14.152 26.593-16.719 41.513-25.571 67.983-29.514-17.03-62.694-23.19-96.421-20.09-23.208 2.53-32.812 5.12-53.042 16.35-28.814-25.14-65.405-29.38-101.753-21.18-12.216-10.06-23.816-23.72-35.667-34.727-62.223-57.776-164.358-133.569-255.389-116.338-.324-15.234.277-28.56 1.36-43.711 23.055-3.556 55.178-9.924 77.632-15.454 46.001-11.331 92.321-26.618 139.903-29.596"/><path d="M301.528 830.454c21.36-1.253 42.62 2.422 61.541 12.507 8.386-2.668 13.606-5.11 22.661-6.949 22.148-4.497 46.427 1.285 66.769 10.32 3.397 1.509 8.296 5 9.655 8.621l-.784 1.491c-6.04 2.456-27.137-6.145-38.17-6.559-12.629-.474-12.992-1.303-26.423.353-9.369.938-34.094 11.853-37.156 9.801-19.735-13.224-44.379-12.218-67.868-10.336-6.125.491-13.995 3.146-20.516 4.783-6.361 1.336-17.909 8.225-24.001 6.596-6.058-1.619-4.428-11.502-.777-14.56 14.426-12.08 37.925-14.371 55.069-16.068m293.42 71.775c9.69-.789 44.744 5.343 48.095 14.954-1.866 3.889-4.06 4.212-8.179 3.254-17.987-4.186-29.181-6.844-47.113-.383l-1.75 2.987c-8.262 14.235-16.699 3.109-28.307.572-3.459-.755-8.733-.802-12.362-.94-16.327.108-24.07 2.622-40.075 5.537-3.918.714-7.49.053-10.641-2.483-4.168-11.909 21.359-18.155 29.036-19.268 18.525-2.685 32.683-.574 49.648 6.346 8.709-6.563 11.103-8.087 21.648-10.576"/><path fill="#fefefe" d="M717.054 997.538c2.318 2.542 15.652 29.492 19.642 36.382a766 766 0 0 0 40.377 62.75c32.621 45.87 67.639 34.55 112.578 14.1 34.705-15.79 65.021-36.62 95.272-59.65 2.429-1.84 3.406-3.02 6.277-2.51 2.678 4.34 2.553 11.02 2.937 16.07 3.115 41.01-2.608 81.29-11.329 121.27-3.039-23.48-6.594-47.26-9.831-70.74-.564-4.09-1.568-5.91-4.689-8.05-3.158.6-2.019.19-4.617 2.47-3.812 9.32 17.02 129.65 15.274 150.84-.875 10.62-1.674 48.45-1.145 59.29-49.153 1.53-97.03 1.9-146.05 3-34.522.86-69.055 1.25-103.588 1.17-18.13-41.06 4.514-82.67 17.838-122.83a767 767 0 0 0 18.738-67.56c1.92-8.44 5.681-21.01 2.33-28.97-2.66-2.36-1.198-1.9-4.336-1.95-6.372 3.28-7.162 19.09-8.819 26.61a750 750 0 0 1-9.696 37.79 877 877 0 0 1-17.104 52.99c-12.279 35.17-24.634 66.33-11.809 103.97-16.481.89-34.982.85-51.649 1.12-2.818-21.73-5.799-34.57-5.982-57.77-.326-41.18 7.287-76.79 15.342-116.8 10.875-54.01 22.164-102.39 44.039-152.992m-255.576 44.922c39.375.56 43.574 5.5 73.114 28.53 27.476-16.76 42.311-20.22 74.771-20.42 15.58-.09 59.037 9.11 68.821 19.51.556 2.29-12.619 56.61-14.282 64.28-1.776 8.36-3.213 17.04-4.721 25.47-42.627-23.4-107.917-49.54-156.073-54.17-12.424-11.15-43.418-48.25-56.091-62.8zm721.432-150.165c76.99 24.636 91.14 68.89 107.81 140.265 15.53 66.46 27.76 134.38 23.31 203.03-.62 9.62-4.58 68.4-7.05 71.99l-2.73.2c-4.77.19-8.18 1.18-11.63-1-.87-2.79-.79-73.17-1.24-82.77-1.47-37.02-5.38-73.9-11.72-110.4-4.71-27.14-24.57-132.592-37.6-151.024-4.05-5.723-9.76-10.116-14.82-14.911-18.33-17.375-36.54-31.681-57.18-46.183 6.08-2.997 8.15-4.486 12.85-9.197"/><path fill="#fefefe" d="M161.806 894.478c13.097-1.181 37.039 2.76 49.754 6.284 107.977 29.928 189.796 119.688 261.966 200.678 6.348 7.12 12.087 14.83 18.951 21.47l.924.89c32.65-5.06 132.958 38 161.851 55.68-.799 4.59-1.693 9.17-2.681 13.73l-15.166-7.98c-31.906-16.75-66.956-29.97-100.758-41.95-24.004-8.52-43.089-12.16-68.471-13.9-2.946-.2-5.108-1.34-6.766-3.71l2.828-1.19.531-2.34c-2.37-9.83-16.757-26.21-23.65-33.87-58.149-64.57-157.225-149.909-241.711-169.513a165.3 165.3 0 0 0-39.074-4.281c-6.497.01-11.661.777-18.376.34-.933-1.486-.797-15.27-.954-18.605 6.709-.348 14.058-1.145 20.802-1.733m850.344 9.535c2.94.95 8.89 5.571 11.66 7.578-15.08 8.255-34.243 18.229-48.274 27.561-35.823 23.829-64.258 54.305-95.716 83.038-12.769 11.66-38.065 38.28-51.638 46.62-7.552-10.02-22.323-22.26-31.264-32.89-14.821-17.62-26.968-36.401-41.085-54.217-3.885-5.032-6.146-7.875-10.621-12.328 8.362-8.345 12.525-10.927 23.673-14.465 12.425 15.907 25.617 39.247 37.476 56.12 4.728 6.73 15.09 25.98 20.316 30.37 6.898 1.78 7.149.68 13.111-5.14 50.437-49.227 103.55-110.284 172.362-132.247m892.7-38.628c5.96-.704 12.37-.316 18.4-.139.13 6.582-.08 13.782-.13 20.418-106.78 6.815-211.16 106.193-272.72 185.736-4.04 5.23-8.03 10.31-14.61 11.91-5.88 1.09-11.98 2.52-17.84 3.81 11.1-12.86 21.22-29.79 32.19-43.56 54.1-67.879 167.07-168.763 254.71-178.175m-891.46-73.051c1.47-.219 3.71-.179 5.26-.211 2.47 2.09 3.92 7.752 5.07 11.088 6.18 18.02 14.41 34.854 22.87 51.926-19.72 7.409-33.44 15.703-38.05 37.295-4.62 2.009-8.647 5.524-13.21 4.403l-1.231-4.054c-6.438-23.928-16.6-26.837-24.936-44.289-4.709-9.857-12.141-36.802-16.669-49.333 24.154-.708 36.926-3.08 60.896-6.825m81.87 67.09c20.21-3.371 54.17 2.54 70.08 15.26 14.01 11.196 1.94 16.563-9.1 18.578-18.91 3.453-38.84 4.07-57.85 5.172-9.67.499-61.12 4.843-72.78-1.912-5.06-2.926-2.38-14.11 4.11-19.218 17.88-14.069 43.75-16.186 65.54-17.88m500.28 207.016c4.03 0 9.68.47 13.82.68-4.55 7.23-7.54 10.9-11.92 18.95-25.23-7.51-55.55 5.01-79.12 13.96-69.59 26.39-125.55 62.88-181.46 111.54-3.11 3.04-6.51 6.76-9.56 9.94.75-9.18.62-18.23.63-27.43 63.6-47.01 187.56-123.19 267.61-127.64"/><path fill="#fefefe" d="M783.799 955.63c7.522 2.062 20.957 8.157 29.051 10.989 31.615 11.062 51.171 6.741 81.668-.485-10.201 8.69-20.077 18.718-29.676 28.14a470 470 0 0 1-32.997 32.706c-8.134-10.19-16.345-24.29-23.804-35.272-8.12-11.951-16.614-23.862-24.242-36.078m94.446-206.218c37.681-3.397 54.265 33.537 66.339 61.916-24.429-23.194-34.104-49.913-73.981-49.376-38.267 7.305-43.858 23.212-59.849 55.3 1.606-41.319 26.948-64.921 67.491-67.84m212.325-70.048c19.43-3.828 29.58 2.313 38.97 18.672-24.04-18.985-51.38-11.9-74.48 5.438-10.59 9.874-15.94 16.387-24.76 27.701 3.79-34.736 27.84-47.602 60.27-51.811M746.807 943.028c4.326-.191 9.567-.522 12.913 2.32-2.277 2.638-12.011 6.224-16.169 9.889-6.987 6.16-9.085 11.253-14.871 18.124l-8.956 8.231c.359-19.912 8.569-30.96 27.083-38.564"/></svg>