<svg xmlns="http://www.w3.org/2000/svg" preserveAspectRatio="none" style="display:block" viewBox="0 0 2048 1462"><path fill="#fefefe" d="M0 0h2048v1462H0z"/><path d="M728.343 74.424c19.389-.677 40.077 1.73 60.153 1.768l220.074 1.823 351.53 3.4c21.61.326 97.39-1.873 114.51 3.77 1.84 2.404 2 2.3 2.02 5.813.09 18.806-1.72 37.898-3.06 56.631l-8.71 111.226-16.33 185.362c-1.35 15.564-8.9 125.034-14.66 131.35-8.66 2.489-49.52.818-61.12.722l-130.14-1.939c-30.71-.627-61.25-1.739-92-1.159 6.29 27.053 4.79 54.747 6.17 82.299.32 6.441.36 12.382 1.81 18.72 6.59 5.192 166.66-1.675 179.3 4.943 7.28 9.85-2.6 14.044-11.86 14.022-54.44-.131-111.93-3.029-166.2-1.602 3.29 26.445 6.86 56.348-5.23 82.045-12.92 27.874-37.2 46.428-68.23 47.966-20.92 1.037-26.39-11.295-33.1 12.936 8.46 1.58 26.42 1.638 35.69 2.295 16.93 1.198 29.26 3.191 45.31 7.295 84.79 21.687 92.91 37.035 135.24 106.526 7.38-.1 17.03-1.361 22.31 4.753l-.34 1.923c-5.83 4.12-10.04 2.986-17.16 2.462 14.92 33.841 34.51 63.646 44.71 101.016 14.44 2.24 48.62 1.73 63.02 1.52 18.3-.16 36.6-.12 54.89.12l157.03 1.16c31.22.34 61.37 1.22 92.74 1.13l67.01.39c11.91.14 34.52-.44 45.07 2.27a8534 8534 0 0 0 84.12-361.107c-20 .397-46.13.498-65.94-.239-4.25 7.771-6.78 14.907-9.28 23.347 27.61 11.213 37.15 17.887 34.92 50.356-.83 9.148-2.76 46.35-11.83 51.039-32.82 16.968-89.56 14.754-125.71 13.773-14.03-.381-53.88-6.003-60.28-15.555-6.05-14.049-.64-45.965.38-60.035 3.01-41.526 97.03-47.211 125.4-40.867 2.63-8.011 4.67-15.084 6.85-23.223-39.77.749-82.39-1.849-122.43-1.832-14.03.006-27.5-1.222-41.75-.659-1.51 5.521-2.45 16.39-3.34 22.505l-6.46 41.811a9287 9287 0 0 0-23.6 153.881c-1.98 14.117-7.48 60.091-11.22 71.144-9.69 3.746-132.58-.722-151.49-.958l-63.89-.625c-13.1-.044-39.68.74-51.55-2.106-5.77-6.73 7.77-73.083 10.14-86.923 10.61-61.097 19.91-122.633 34.61-182.928 2.52-10.36 7.06-46.808 11.82-51.966 6.2-2.093 31.55-.309 39.98-.186l156.68 3.757c15.93.348 31.96-.268 47.87.474 11.65.488 7.02 19.006 15.18 19.546 52.63 3.484 110.24-2.13 162.5 3.249 7.02-18.465 12.82-38.186 19.34-56.964a3290 3290 0 0 1 52.84-145.446c-8.96-11.91-8.39-14.575-8.24-29.951-6.37-10.089-31.92-26.516-41.84-35.723-33.2-30.824-69.09-58.895-102.93-88.974-18.7 18.687-22.05 21.239-43.1 36.832-2.53 32.816-12.85 64.931-24.52 95.502-4.79 12.551-6.84 21.395-19.07 28.492-40.57.287-96.09-58.763-115.23-91.457-7.25-12.393-20.28-37.054-6.79-48.795 23.95-20.844 76.73-36.767 107.53-38.971 20.06-14.487 47.63-45.638 75.45-43.825 9.97.65 26 12.186 31.9 20.188 5.93 8.047 6.66 17.244 4.95 26.964 35.37 31.1 73.71 58.355 108.39 90.266 12.37 11.382 26.21 23.499 39.58 33.683 29.34-13.307 55.01 5.903 41.46 37.727-2.04 4.778-7.22 8.741-11.23 12.137-10.91 30.559-18.37 63.713-29.77 94.353-12.74 34.257-24.04 69.619-37.73 103.487 12.1.831 64.94-2.211 71.35 6.394 2.74 9.754-2.13 60.091-3.18 74.041a7681 7681 0 0 1-17.98 200.403l-16.49 150.694c-1.85 18.37-14.88 166.33-18.76 174.64a8.7 8.7 0 0 1-5.24 4.6c-5.39 1.73-50.43 1.26-56.84-1.92-2.35-9.12 1.91-69.94 2.58-81.93 1.49-23.73 2.3-47.5 2.42-71.28-8.88-.35-18.24-.11-27.16-.03.22 9.86-1.56 24.12-2.6 34.22-2.39 22.42-5.02 44.83-7.86 67.2-1.17 9.59-3.01 49.63-7.85 54.37a7.74 7.74 0 0 1-5.72 2.15c-3.56-.2-8-3.96-7.45-7.1 3.04-17.26 4.47-35.82 6.87-53.13-50.25-2.67-106.83-1.29-157.77-1.99l-176.99-1.26c-7.74-.01-39.01-2.16-44.21.33-7.18 7.43.26 63.31-9.12 70.07-3.7.28-1.98.59-5.34-1-4.65-11 1.83-118.59 2.17-137.65-5.64 16.26-10.5 33.07-26.26 41.98-32.09 18.15-66.99 5.72-99.22-2.5 11.55 25.64 26.05 76.09 5.41 99.74-10.65 4.95-251.619 4.26-282.963 4.94-30.334.66-81.781 1.5-114.303 1.97-4.512.06-10.056.38-12.866-3.25-15.569-20.1-18.386-54.74-18.029-78.21-38.61 12.07-78.144 4.89-99.252-31.45-9.198-15.83-10.493-27.25-12.872-44.76-14.41.13-28.813.71-43.186 1.74.465 12.91 7.096 89.6 2.133 95.84-12.247 4.71-113.018 5.07-132.18 5.45l-166.156 3.65c-40.681.8-79.526.86-120.544 2.34.295 9.52 3.686 36.33 1.52 42.68-8.666 5.59-47.882 3.57-57.729-.79-5.186-2.3-7.731-45.75-8.335-53.14a5423 5423 0 0 1-6.944-103.72 7168 7168 0 0 1-14.273-327.912 4598 4598 0 0 1-2.01-93.652c-.203-12.401-2.342-59.299 3.279-68.563 9.492-6.648 67.753-3.264 81.529-1.828 3.532-8.319 15.304-30.654 20.984-36.904 10.981-12.082 26.376 28.181 29.978 35.498 5.53.696 9.112.552 15.825 1.586.314-15.32-5.128-47.037-2.931-58.026 4.055-6.329 35.027-10.198 41.253-7.681 7.654 7.481 9.272 51.683 10.474 65.378 33.684 2.418 72.135 1.123 106.427 1.898 93.034 1.88 186.082 2.993 279.134 3.339l94.651.95c18.453.227 39.178-.177 57.393 1.159-3.096 7.941-4.151 14.038-13.574 14.097-24.54.152-49.078-.146-73.62-.246l-134.986-.72-312.809-2.792c.369 11.211 2.06 20.367 1.684 31.962 12.841 8.065 25.009 22.443 26.738 37.87 6.138 54.761 10.304 111.21 14.117 166.157 2.458 35.427-31.631 46.284-59.999 52.052-9.461 1.924-21.226 2.556-30.685.209-40.817-9.337-40.616-45.17-41.469-79.968-.98-40.002-4.698-81.415-3.768-121.458.207-8.904 3.371-16.219 7.074-24.145-2.894-5.468-5.163-12.272-7.969-18.018-7.639-15.642-15.474-32.834-24.566-47.617-13.428.55-57.804 1.332-69.268-.531 2.932 14.988 4.956 38.616 6.842 54.503l13.857 122.882 12.083 95.6c4.655 34.104 10.849 78.911 12.537 113.171l321.497-3.92 119.431-.96c20.063-.27 41.051.13 60.919-1.37 1.505-3.91 2.713-8.15 3.939-12.17 9.861-32.35 23.283-63.744 36.376-94.934-13.602-1.129-61.337.643-69.653-2.654-.567-.742-1.03-1.35-1.295-2.263-4.457-15.379 45.482-208.207 54.504-227.535 16.372-1.708 123.131-4.614 133.403-.629l.612 2.143c-.885 3.147-1.843 6.8-4.582 8.895-4.499 3.442-108.377 2.317-120.304.879-5.911 13.734-11.365 40.064-15.751 55.312-14.339 49.846-24.165 104.495-38.84 153.874 10.443 1.332 55.388.151 67.668.094 12.2-21.462 17.846-31.84 34.249-50.076 43.615-48.493 104.595-52.363 166.15-54.461 4.738-11.549 5.012-15.077 5.548-27.43-27.456 4.787-48.501 5.243-70.188-15.146-33.77-29.583-25.985-73.376-4.992-107.538 20.811-28.323 18.078-31.717 10.321-64.973-20.282-86.957 51.933-148.756 133.232-151.613 51.1-1.795 77.15 18.993 111.92 52.189-14.81-30.536-34.66-47.78-68.44-54.741-29.55-6.089-57.792-6.511-87.016 1.625-11.593 3.228-22.168 7.545-33.498 11.381-.7-15.502.28-29.209.716-44.618l3.021-87.51c2.155-59.866 1.64-120.133 2.854-180.062.197-9.765 1.004-25.198-.589-34.308-2.9-2.368-20.216-1.426-26.083-1.806 1.514 30.813-1.072 59.683-1.584 89.95-.842 49.698-1.338 98.974-3.344 148.689-1.776 44.014-5.342 89.852-5.764 133.796-6.544 7.506-13.675 16.893-20.113 24.763-19.517-1.415-42.655-.926-62.646-1.475-55.384-1.521-112.424-.274-167.742-1.465-19.583-.422-105.952 1.466-117.906-2.926-3.156-9.511-3.866-60.958-4.352-73.748a8672 8672 0 0 1-4.07-166.977 6532 6532 0 0 0-4.473-120.381c-.453-12.076-1.267-24.022-2.053-36.079-.172-2.626 1.411-5.446 3.005-7.495 5.293-1.429 39.842-1.22 47.585-1.373a5595 5595 0 0 1 160.77-.885c18.246.169 36.579 1.269 54.613 1.329 139.837-.435 279.679.175 419.509 1.83l152.7 1.536c20.9.369 42.02-.234 62.85.969 6.73.389 9.33 1.615 13.63 6.639 2.82 11.463-9.39 110.595-11.11 128.06-8.35 92.544-17.65 185-27.9 277.354-18.34 2.95-58.29-.619-78.34-.891l-186.62-2.247c6.01 9.368 7.43 16.156 14.53 25.825 16.02.724 36.01.295 52.48.593a5867 5867 0 0 0 141.28 1.686c16.4.103 66.2 2.191 78.07.198 8.39-15.066 46.56-426.242 45.14-458.983-10.4 1.748-46-.854-59.36-.778-47.97.272-96.33-1.764-144.32-1.856L732.815 92.77c-46.978-.219-93.786-.93-140.769.312-8.529.226-17.722-1.21-26.418-1.03-23.911.495-48.049-.632-71.921.44-.158 15.095.567 29.607.817 44.622 2.286 137.481 12.265 275.34 13.546 412.802 34.287 2.14 76.502.462 111.913 1.184a5577 5577 0 0 0 188.016.988c16.77-.149 33.025 1.691 49.642.414 5.063-.389 9.375-.668 13.024 2.706.881 5.38-1.926 13.072-8.537 13.367-31.571 1.409-63.374-.26-94.962-.248l-197.116-.895c-6.886-.088-69.584.833-70.818-2.386-7.596-19.804-6.358-57.219-7.128-78.599l-4.359-126.942c-.679-20.276-2.519-41.234-3.405-61.712q-2.505-65.552-3.555-131.143c-.701-27.118-2.306-54.005-1.588-81.22.118-4.465 3.358-7.834 7.767-8.18 18.615-1.46 37.646-1.371 56.331-1.426l129.222-.273c12.709-.112 43.04.444 54.395-.943z"/><path fill="#fefefe" d="M1105.36 854.499c20.28 1.434 86.82 20.709 100.67 34.237 28.38 27.724 55.55 76.931 72.01 114.044 23.58 53.16 52.17 124.22 36.19 182.81-3.5 9.39-10.41 17.4-20.41 21.2-26.6 10.13-65.03.73-90.8-8.7-5.4-1.98-17.31-19.91-22.28-24.44-17.82-16.23-40.25-30.2-62.5-39.15-108.35-46.31-286.116-45.14-327.174 90.85-21.126 7.95-49.621 10.69-68.689-2.26-27.091-18.4-34.879-69.35-29.287-100.39 12.077-67.04 37.16-139.421 71.974-198.301 14.29-24.168 45.123-51.736 71.974-60.414 11.603-3.361 26.599-6.361 38.695-8.765 4.985.128 21.204 12.925 27.641 15.576 19.19 7.84 40.45 13.639 61.282 14.654 51.184 2.492 97.064-3.32 140.704-30.951m281.28-149.011c12.32-1.562 53.24 1.025 68.01 1.326l74.11 1.145c9.58.208 28.02.242 36.99 1.595 2.06 3.95.65 13.274-.15 17.7-5.99 33.229-11.33 66.531-16.29 99.929l-10.18 73.237c-1.46 10.865-5.21 45.262-8.59 52.505-2.83 1.367-5.1.718-8.32.364l-.69.324c-10.23-.982-25.69-.635-36.5-1.014a4108 4108 0 0 0-90.8-2.405c-14.33-.21-36.57.106-50.15-1.545l29.68-168.665c4.11-23.113 7.43-52.356 12.88-74.496"/><path d="M1396.06 758.748c18.78 2.218 138.84-.78 145.5 7.329.03 3.912.06 2.65-2.42 6.492-5.72.498-38.69-1.156-47.14-1.356l-64.41-1.613c-7.18-.249-29.38.526-33.21-4.336-.29-3.399-.18-3.5 1.68-6.516m10.82-24.415c14.35.782 132.1 2.763 137.93 7.644 1.31 1.097.94 1.587 1.06 3.179-3.22 5.214-4.97 4.482-10.41 4.599-7.42-1.056-22.6-1.036-30.67-1.58-32.96-2.224-66.22-1.403-99.09-4.508-3.83-.361-4.96-.522-7.21-3.281l.67-2.513c2.6-2.857 3.81-2.741 7.72-3.54"/><path fill="#fefefe" d="M520.871 1165.57c9.69-1.03 30.279-.65 40.744-.64 17.962.04 39.501-.75 57.176.34 1.249 18.89 3.19 37.72 3.863 56.65.354 9.96.663 18.4 2.966 28.12-18.077 1.61-36.465 1.35-54.612 1.8-85.286 2.16-171.471 5.11-256.758 5.23-30.904 1.64-68.724-.2-98.844 2.89-2.146-23.26-4.696-67.35-4.4-89.96 12.341.82 28.595.22 41.184.06l79.863-1.52c62.37-1.1 126.641-.94 188.818-2.97"/><path d="M357.066 1199.84c16.67.73 28.106 6.11 46.858 6.51 16.024.34 31.759-5.39 43.454-5.11 3.186 1.65 2.234.44 3.386 3.36-.878 2.9-3.475 4.58-5.876 6.69-.068.09-.137.19-.205.28-20.065 9.11-46.242 9.02-67.056 4.58-10.23-2.19-18.084-4.69-21.893-10.44-.389-3.6-.444-2.26 1.332-5.87"/><path fill="#fefefe" d="M1590.17 1148.45c48.41 1.07 99.3-.44 148.55.16-5.32 31.46-6.34 53.3-9.89 84.19l-169.86-.68c-19.13.04-43.2-1.35-61.75-.2-48.91.42-101.37-.28-150.44-.76 2.25-20.65 2.28-64.38 6.8-80.93 50.92-3.15 105.15 1.63 156.4-1.18 26.37-1.45 53.82 1.05 80.19-.6"/><path d="M1560.69 1177.31c4.05-.62 10.45-.3 9.78 5.25-9.2 11.94-60.04 11.93-74.46 9.14-3.6-.66-6.79-.83-9.61-2.99-.69-3.56-.82-1.86.47-5.3 3.86-2.02 10.93-1.73 15.27-1.3 20.11 1.99 38.68-1.6 58.55-4.8"/><path fill="#fefefe" d="M625.614 1075.54c15.148-.25 46.268 1.82 59.723-.79-4.379 22.45-8.72 36.03-9.436 59.57-19.005 1.84-40.599 2.02-59.897 2.42l-90.999 1.3-173.311 3.2c-12.959.17-85.771-.07-93.919 2.29-9.562-1.72-51.377-.22-62.076.7-.553-9.17-7.053-60.17-3.578-64.34 33.724-1.23 70.836.14 104.679-.32l205.907-2.9c40.435-.19 82.36.88 122.907-1.13m743.926 1.92c6.74-.64 33.56.84 42.12.96l99.65 1.13c58.86.92 117.56-1.02 176.41 1.35 13.51.54 27.61-.93 41.24-.54 22.67.66 45.34.49 68.01.35.01 8.19.52 43.13-2.57 47.95-5.28 4.08-33.29 2.52-42.15 2.55l-293.44 1.92c-32.71.13-65.44.66-98.13-.28-7.84-.22-16.17-.64-23.95-.08-1.7-7.19-2.29-15.97-3.67-23.54-1.97-10.77-4.83-20.46-7.94-30.93 12.57-.91 31.18-.45 44.42-.84M709.208 131.564c8.264.288 23.698-.532 31.163 1.12.8 5.074.036 26.915.009 33.248q.201 40.695-.43 81.386l-.962 95.182a8636 8636 0 0 0-2.93 168.565c-4.48.218-8.568-.026-13.038-.229l-28.042.128c-.35-90.181-1.388-180.358-3.115-270.523-.653-36.337-.389-72.158-1.358-108.677 6.235.144 12.473.077 18.703-.2M1755.57 737.485c4.31-.051 9.04.132 13.39.213-4.75 24.226-20.2 41.521 20.1 33.937 4.5-7.249 10.99-23.903 14.55-32.479 17.84 6.514 29.75 10.693 28.58 32.748-.26 4.913.88 8.978-1.84 13.707-8.07 4.669-46.1 7.603-57.6 8.78-32.02 2.574-85.71 6.302-116.23-6.94-4.1-1.78.35-25.532 6.77-30.668 22.52-18.034 65.14-18.651 92.28-19.298m-163.38-409.378c6.97 1.237 50.99 29.751 52.04 35.749 3.46 19.823-14.97 76.205-20.7 93.98-6.59-11.368-9.14-20.095-17.41-31.797-20.18-29.993-41.52-48.734-71.84-68.018-3.83-2.434-8.38-3.834-12.88-6.524 27.54-11.355 42.25-15.684 70.79-23.39M956.855 817.265c4.81 1.852 8.768 7.199 13.665 9.638 21.468 10.693 47.08 14.498 70.12 7.882-2.35 24.562 19.08 15.14 39.06 17.304-21.52 9.999-40.44 13.563-63.6 16.633-41.066 4.796-86.664 2.087-124.186-16.623 15.793-.795 31.395-1.915 47.206-1.843 13.521.062 16.359-22.106 17.735-32.991M680.402 281.217c.68 5.347.532 22.019.635 28.173-36.048 1.575-76.904 1.4-113.287 1.401l-28.008.068c-.95-9.407-.798-17.577-.778-27.01 29.998.245 60.437-1.755 90.466-2.118 9.769-.118 19.803-.299 29.51-1.333 7.493-.121 14.022.334 21.462.819m74.265 83.479c18.156.63 134.464-.735 139.969 1.48 1.423 5.134 1.714 15.879.667 21.09-8.987 4.012-63.475 1.351-78.327 1.413-16.718.069-46.974 1.374-63.179-.86-2.22-3.076.317-18.692.87-23.123M629.021 248.441c7.481-1.043 42.29-.459 50.43-.127.489 7.994.712 12.783.235 20.904-27.543 2.67-62.933 2.681-90.934 3.245-15.132-.11-34.01 1.137-49.586 1.48-.261-7.423-.079-16.177-.108-23.703 27.436-.645 63.352-.015 89.963-1.799m-390.607 397c3.708 2.302 49.863 108.85 60.397 125.091l-15.584 3.141c-5.464-1.202-8.063-.834-10.908-5.87-15.729-27.84-37.903-62.786-49.38-92.101 2.687-7.345 11.616-23.125 15.475-30.261m422.127-283.044c7.01-.264 18.29-3.17 21.139 3.917.785 1.954.273 16.371-1.355 16.632-35.497 5.679-77.846 2.402-113.254 6.713l-1.284.163c-3.337-.707-20.189-.539-24.912-.592.005-3.664-.558-17.091 1.129-19.458 8.789-2.812 35.873-3.039 46.304-3.728 23.903-1.58 48.294-2.694 72.233-3.647m-38.099-230.885c7.418.134 51.941-.108 54.338 1.354 2.402 5.243 3.601 13.764-.162 18.581-12.093 2.185-69.75 1.905-84.849 1.752-11.41 1.206-45.263.533-58.259.621-.284-6.235.264-15.424.453-21.865 26.914.368 61.939.917 88.479-.443m50.909 32.008c3.157.264 1.924-.357 4.057 1.328 1.761 6.165 1.596 12.835 1.764 19.276-9.998 1.412-27.439 1.018-38.009 1.28-32.09.794-64.327-.495-96.413.871l-10.068-.247.225-20.887c12.5-.74 25.022.206 37.092-.331 33.593-1.497 67.94-.069 101.352-1.29m129.303 5.952c32.871 1.376 65.195-.192 97.928 2.076.756 6.012 2.467 13.31-.436 18.457-5.765 1.521-39.609.858-47.662.823-33.706-.476-67.173-.204-100.974-1.13-.243-5.618.314-13.544.551-19.327 16.755-.77 33.444.06 50.593-.899M669.17 394.45l12.021-1.093.072 13.641c-5.934 8.239-19.641 29.924-25.019 38.942-8.581 14.389-35.292 52.212-40.049 65.041l-9.472-.71-15.771-.339c5.365-9.609 19.152-27.712 25.987-37.724a5875 5875 0 0 0 52.231-77.758"/><path fill="#fefefe" d="M1870.3 498.585c2.25.088 3.78-.151 5.51 1.2.16.873.24 1.094.27 1.917.21 6.136-73.95 212.254-82.35 233.846-3.19 8.209-7.33 21.39-12.94 27.879l-6.13-.621-.91-1.149c5.1-18.698 19.25-47.928 26.2-67.591l32.52-91.185c12.88-36.847 23.08-67.647 37.83-104.296M302.678 614.364c2.504-.672 2.598-.914 5.106-.064 2.045 3.406 8.609 123.516 12.409 140.853l-10.61 11.201-1.287.141c-4.437-3.391-17.556-138.314-15.918-149.638 2.428-1.7 7.163-2.02 10.3-2.493M821.91 244.455l.461.64a4401 4401 0 0 0-5.927 66.275c-1.054 13.242-1.781 29.432-4.138 42.29-6.884.379-15.071.123-22.056.081l-.764-.538c-1.13-3.828 14.669-96.078 15.853-108.874 6.209.55 10.3.376 16.571.126m-41.956 156.301c4.853-.228 12.244.169 17.276.282.126 26.293-.917 53.138-1.9 79.429-.256 6.846.282 25.537-1.124 30.906l-2.555 1.379c-1.568.106-13.962.016-14.041-1.423-1.915-34.776-.119-75.957 2.344-110.573m-512.99 383.552c3.865 1.613 7.454 2.256 11.526 3.177 4.891 37.047 6.303 75.92 10.762 112.996 2.465 20.491 5.706 34.44 7.304 56.327-2.95 1.021-6.71.51-9.606-.675-2.767-2.352-4.279-8.149-4.59-11.683-4.021-45.701-9.503-91.187-13.377-136.915-.657-7.756-1.019-15.537-2.019-23.227m1560.866 14.096c1.12-.101 1.29.056 2.43.286.53 3.146-.9 7.848-4.15 8.889-49.89 15.987-118.57 17.421-168.55 1.889-1.65-1.199-1.59-1.349-2.96-2.913-.19-3.546-.29-3.846.68-7.191 8.76 1.917 19.76 6.02 29.01 6.862 48.35 4.403 96.23-.316 143.54-7.822M781.464 242.842c4.363.073 10.581 1.036 15.077 1.601-7.908 32.402-11.887 71.163-19.666 104.195-.928 3.939-1.245 3.531-4.098 5.256l-17.059.025c6.56-23.964 10.572-51.333 17.185-75.587 3.144-11.531 4.323-24.248 8.561-35.49m58.298 1.441c3.33.337 7.051.451 10.423.63-.099 32.858-4.375 68.525-6.937 101.452-.356 4.571-.995 5.809-5.004 6.777-5.106.261-7.793.47-12.889-.166-1.481-4.128 7.472-93.594 8.84-105.572 2.092-2.921 1.221-1.983 5.567-3.121M298.167 784.794c1.708-.026 3.135.131 4.822.284l1.467 1.588c3.901 37.973 7.91 75.929 11.503 113.938 1.594 16.86 4.839 32.479 5.746 49.691-1.915 2.415-3.036 2.224-6.265 3.407-3.336.152-2.675.617-5.119-.809-1.858-13.832-17.065-164.415-16.672-165.391.443-1.1 3.416-2.147 4.518-2.708m343.579-389.447 14.863-.652c-3.592 4.782-6.825 9.856-9.965 14.944-21.37 34.629-45.618 66.983-68.549 100.51l-12.799-.534c5.128-10.013 19.345-28.349 26.279-38.727 13.272-19.864 26.744-39.129 38.987-59.774 2.56-4.316 7.768-12.965 11.184-15.767m219.219-150.318 1.373-.089c3.978-.25 9.267-.978 12.273 1.671.833 7.462-1.007 30.151-1.448 38.77l-2.85 67.506-16.491 1.035c1.519-12.414 1.553-25.761 2.786-38.193 2.374-23.943 3.649-46.663 4.357-70.7m26.054.285 12.362-.248c-1.213 15.35.908 103.128-5.256 108.423-3.98.021-8.154.489-11.625-1.129.204-31.316 1.945-75.589 4.519-107.046m-55.8 154.685c4.895.152 9.192-.364 12.463 3.092.513 8.86-.114 33.64-.485 43.208-.538 13.834.287 54.132-2.316 65.626l-11.538-.203c-1.448-32.112.521-79.365 1.876-111.723m-20.671-.042c2.921.082 4.348.188 7.226.675 3.386 4.346.859 96.695-.261 110.63l-2.295.991c-3.179-.074-6.482.194-8.846-1.42-1.166-11.966-.351-105.155 4.176-110.876m867.792-99.127c6.45 3.746 8.37 8.164 11.32 14.584-11.15 14.806-24.29 22.976-35.81 36.049l-.94 1.081-1.59-.583c-5.26-5.734-9.51-9.131-15.44-14.038 7.62-9.214 32.29-29.823 42.46-37.093M852.387 467.732c1.821 1.833 11.961 38.18 13.198 43.147-1.738 1.765-3.177 1.592-6.025 2.32l-4.221-.475c-5.673-5.376-1.543-35.031-2.952-44.992M271.425 680.713c3.576.121 5.424-.072 8.747 1.319 4.445 4.933 3.833 17.014 4.732 25.049-4.906-6.776-10.167-18.703-13.479-26.368"/><path d="M302.611 178.389c20.539-3.249 50.335 5.623 67.324 18.304 56.2 41.949 51.825 117.478 13.206 169.35-21.816 29.302-54.434 42.739-90.09 47.888-70.593.593-101.074-30.698-109.981-98.291-9.579-72.693 51.627-130.002 119.541-137.251"/><path fill="#fefefe" d="M315.383 192.51c49.489 1.745 83.806 37.434 83.077 87.428-.429 29.402-13.716 66.499-34.613 87.563a119.45 119.45 0 0 1-84.47 34.608c-62.615-1.492-89.151-56.527-82.152-111.74 7.336-57.88 63.498-95.345 118.158-97.859"/><path d="M299.537 215.004c3.94-.322 4.588-.575 8.254.558 3.86 4.283 3.091 74.212 2.82 84.529-14.587 9.057-27.909 21.454-43.18 30.455-4.312 1.41-6.696.049-7.834-4.112 2.619-10.564 28.889-24.337 38.633-33.582l.92-.886c-1.299-8.262-2.304-70.647.387-76.962M484.05 741.277c17.591.635 45.369-2.207 61.637 1.675 4.756 1.136 2.267 11.793 3.715 17.53 3.196-.05 6.702-.284 9.505 1.201 1.643.871 3.664 3.773 3.658 5.096-.073 17.492-23.611 154.028-27.398 160.811-6.149 4.286-17.166 3.62-24.922 3.874-7.142 1.167-53.091 2.509-58.935.055-3.836-4.777-5.757-15.411-6.221-21.437-3.777-49.023-15.061-102.713-15.442-151.396 8.531-3.749 25.735-6.693 34.947-6.492 18.973.414 9.721-5.649 19.456-10.917"/><path fill="#fefefe" d="m525.083 750.495 14.196.041c-5.849 41.729-12.591 83.752-18.145 125.605-1.759 13.258-3.388 31.209-6.907 43.676a780 780 0 0 0-21.475.203c-1.681-.019-2.44-.232-4.095-.561 4.183-13.335.93-87.901.721-105.738-.188-16.062-.185-47.222-1.372-62.613 11.969.014 25.266.303 37.077-.613m-58.506 10.895c1.523-.407 9.221-.616 11.26-.705 1.314 17.454-.087 36.071 1.357 52.648 2.935 33.692-2.777 74.225 2.039 106.819-5.239.488-19.036 1.348-23.862.615-6.928-52.302-11.934-104.471-19.649-156.644 6.187.824 21.552-1.869 28.855-2.733m79.99 7.838c2.648.226 3.773.068 5.933 1.629-2.456 19.989-7.473 44.021-10.982 64.226-4.837 27.852-9.088 55.977-14.15 83.708-.686 1.403-.243.755-1.687 1.7-1.515-3.371 19.091-133.434 20.886-151.263"/><path d="M1195.22 719.548c11.35-.835 120.92-1.002 128 1.459 2.5.87 5.36 2.71 6.46 5.197.76 1.733.32 1.889-.23 3.574-4.68 3.135-26.09 2.674-33.2 2.835-6.89-.783-19.13.478-29.73.122-31.81-1.07-66.22-.79-98.19-3.3-.68-.548-1.35-1.096-2.03-1.643-1.12-3.545-1.27-2.221.03-5.196 5.95-4.18 20.78-2.982 28.89-3.048m-15.59 74.737c39.42-.999 80.64 1.238 120.09 2.29 2.26.061 4.08.931 5.69 2.445l.06 2.052c-3.62 5.049-6.16 4.12-11.98 3.914-23.09-3.396-91.26 2.04-116.87-2.737-1.66-.309-2.03-2.092-2.41-3.329 1.19-2.626 2.77-3.094 5.42-4.635m5.02 26.037c2.42.177 5.25.012 7.74-.03 22.37-.214 44.74-.259 67.12-.135 8.26.039 35.64-1.394 40.77 3.573l-.04 2.317c-2.72 3.37-1.36 2.471-5.08 3.895-27.95-.59-56.3 1.415-84.25-.82-7.45-.595-34.48 2.907-37.69-2.991 3.21-5.823 5.6-5.164 11.43-5.809m-448.501.182c11.266-.179 97.494-.61 101.013 8.489l-1.332 2.328c-3.338 2.064-11.531.913-16.08.746-14.095.106-91.403.411-100.402-3.141-1.044-2.988-.985-2.825-.277-5.947 2.488-1.798 13.322-2.16 17.078-2.475m444.651-49.321c14.7-.136 113.48-.253 118.88 5.482-.16 3.895.43 2.458-2.31 5.362-12.46-.07-113.97 1.315-119.84-2.888-1.28-.917-.99-1.439-1.23-2.892 1.58-3.125 1.61-3.273 4.5-5.064m4.73-21.828c13.36-1.028 114.58.06 119.64 3.398 1.48 2.51.97 3.603.57 6.694-17.18-1-115.05 2.022-121.57-4.604-1.15-1.173-.77-1.944-.8-3.498zM723.132 796.14c12.136-1.419 119.378-1.067 122.982 5.406-.624 3.573.159 2.121-2.222 4.614a5073 5073 0 0 0-75.843-1.134c-7.282-.061-38.614.875-43.574-2.269-2.135-3.172-1.496-2.042-1.343-6.617m22.541-24.614c15.932.07 83.073-1.662 93.053 2.819l.566 1.773c-3.942 3.716-8.921 4.223-13.996 4.834l-.312.201c-13.579 1.022-82.543 1.829-93.705-1.232-2.32-2.578-1.964-1.446-2.21-4.464 3.796-4.241 11.232-3.713 16.604-3.931m827.567 502.684c1.75-.44 3.01-.08 4.8.19 2.66 2.08 1.89.75 2.37 4.13-7.37 19.18-64.4 12.25-80.06 8.73-4.21-1.07-12.06-2.53-12.13-7.7 5.42-5.96 27.87.09 36.28.11 16.78.04 32.37-1.75 48.74-5.46M750.919 749.488a78 78 0 0 1 1.668-.108c10.537-.496 75.425-2.179 80.295 2.268-.289 4.174.311 2.624-2.2 5.881-5.239 2.712-13.316 1.694-19.441 1.511-8.167.761-71.979.139-78.149-1.469l-1.411-2.504c1.038-7.208 13.065-5.494 19.238-5.579m449.301 99.97c9.54-.942 95.31-.914 99.65 2.463.87 2.949.4 3.844-.28 6.98-10.4.065-94.7-.544-100.3-3.946-.63-2.924-.34-2.176.93-5.497m-478.63-6.047c9.034-.897 68.58.438 72.658 3.359 1.239 3.463 1.191 1.746.029 5.332-3.029 2.317-1.751 1.652-6.028 1.908-11.132.832-74.551 2.766-78.87-5.48 3.397-3.668 7.536-4.153 12.211-5.119m520.6 30.944c12.88 1.637 38.95-1.085 52.7 3.314 2.02.645 1.94 1.809 2.45 3.508-1.43 3.628-.46 2.441-3.58 4.571-10.7-.535-21.39-.992-32.1-1.369-5.53-.243-19.22-.145-22.55-3.777.27-3.292.83-3.566 3.08-6.247m-514.226-4.923c6.105-.03 27.862-1.702 30.039 6.233-4.993 4.377-13.51 3.397-20.19 3.382-6.512.537-26.324 3.163-30.645.17-1.61-3.106-1.37-1.513-.76-4.944 4.341-4.583 14.846-4.268 21.556-4.841m541.906 29.7c8.27.321 25.28-1.739 30.56 3.149.85 3.567.75 2.2-.8 6.111l-3.38 1.357c-7.46.242-28.87 2.822-33.31-3.47.77-5.131 2.59-5.472 6.93-7.147"/></svg>