<svg xmlns="http://www.w3.org/2000/svg" preserveAspectRatio="none" style="display:block" viewBox="0 0 2048 2048"><path fill="#FEFEFE" d="M0 0h2048v2048H0z"/><path d="M1001.5 129.445a893.66 893.66 0 0 1 481.47 120.297 924.57 924.57 0 0 1 381.3 433.17c24.06 56.646 35.63 98.634 51.4 157.848 8.4-6.084 34.28-24.921 43.33-25.157 9.81 6.572-29.69 62.073-35.57 71.619 3.99 16.429 8.55 62.265 10.11 80.44 46.72 4.104 24.59 21.382 1.42 38.088.11 17.26.12 34.52.02 51.78 10.67 1.78 30.08 6.02 36.73 15.15 2.68 13.35-26.85 18.21-36.96 20.89-9.86 109.21-27.92 197.12-69.4 298.91-83.42 204.69-256.83 392.71-462.01 479.08-5.07 22.44-8.12 46.92-11.91 69.67-1.41 8.47-3.18 24.84-15.8 15.08-3.59-7.11 3.58-62.91 4.96-74.2l-31.79 11.02c-3.98 15.41-17.85 83.18-24.9 92.82-4.54 2.56-8.69.71-11.52-3.34-2.67-16.99 63.42-237.44 72.53-269.9 12.27-43.71 23.9-87.61 34.86-131.67-1.85-2.05-.73-1.34-3.66-1.72-5.81 7.29-13.2 39.06-16.52 49.68-9 28.74-18.65 57.13-27.02 86.08-7.02 24.26-49.75 194.64-58.04 201.98-8.84 3.66-10.75.32-15.28-6.39-3.16-.9-10.73-2.63-11.16-6.64-1.18-10.99 26.62-100.74 24.7-104.46l.03.05c-18.41 43.72-37.93 87.47-57.61 130.54-1.92 4.19-8.78 2.95-11.98-.33-1.24-2.87-1.16-5.84.12-8.68 19.63-43.34 38.68-88.09 59.08-130.99 18.24-38.33 39.46-75 48.89-116.81-18.89 26.79-29.24 66.38-46.16 95.51-5.48 9.46-8.05 23.99-14.98 33.16-3.16 4.18-8.32 2.63-11.59-.05-4.95-8.97 5.39-22.84 8.48-31.71 8.76-25.06 22.61-47.11 34.12-70.6a739 739 0 0 0 39.71-101.2c2.69-8.64 9.02-27.02 9.22-35.05-1.51-3.34-.35-1.9-4.28-3.83-2.54 2.72-16.08 40.01-18.04 46.52-15.76 52.4-41.4 98.07-64.91 147.05-9.02 18.81-14.36 39.16-22.39 57.58-9.33 21.37-22.2 56.67-35.01 75.32-7.96-.83-19.53-.8-24.43-7.84-1.09-7.41 39.11-82.77 45.84-95.04 6.38-11.13 44.53-79 43.5-86.59l-2.18-.88c-2.58.84-3.95 1.28-5.28 4.04-24.99 51.91-53.57 102.01-78.62 153.98-6.94 14.42-27.76 85.95-40.13 92.78-3.69.31-3.61.12-6.8-1.46-5.06-8.79 14.64-44.1 18.69-56.12 17.46-51.8 44.25-99.14 68.82-147.81 3.93-7.79 25.13-47.23 30.09-50.8 4.57-.94 3.25-.59 8.29 1.03 10.38-7.35 57.52-108.43 58.59-122.25l-.87.34c-3.57 7.45-8.2 14.58-12.07 21.83-19.09 35.88-35.76 69.38-60.29 102.03-17.42 23.19-31.69 47.95-52.67 69.02-14.43 14.92-28.7 30.55-43.04 45.49-6.95 7.23-26.67 32.37-33.46 33-3.28-1.01-3.07-.89-5.36-3.45-2.29-9.25 18.64-35.13 24.9-44.98 25.68-37.17 50.74-79.9 79.18-114.95 46.35-57.11 79.24-106.03 113.2-171.37-28.3 28.41-53.5 65.98-79.87 96.61-20.2 23.46-40.42 46.16-61.54 68.81-45.78 49.09-93.98 97.45-149.78 135.19-34.12 22.74-94.717 51.88-135.319 45.83-26.488-3.94-71.758-60.89-88.223-82.17-26.984-34.88-49.648-76.98-73.218-114.49-21.806 62.52-53.384 126.16-81.973 186.09-2.077 4.35-14.999 33.26-19.775 32.61-10.976-1.51-26.382-10.23-36.523-15.32a915.6 915.6 0 0 1-213.758-146.09 936.5 936.5 0 0 1-142.365-163.73c-91.392-134.51-149.444-304.89-155.732-467.54-11.621-246.528 76.93-487.284 245.521-667.532a896.65 896.65 0 0 1 547.432-278.316c31.653-4.036 63.394-5.401 95.233-6.557"/><path fill="#FEFEFE" d="M651.979 239.624c220.917-99.462 472.411-106.558 698.581-19.712 47.5 18.454 118.51 53.316 160.57 82.731-12.91 23.752-31.16 48.405-46.96 70.733-11.12 15.731-26.21 40.305-37.57 54.614 36.19-29.531 80.95-72.207 114.53-104.566 25.32 18.029 71.37 54.696 92.75 77.068a8679 8679 0 0 1-134.01 139.64c18.99-11.112 39.88-26.379 58.24-39.071a5202 5202 0 0 1 104.31-71.16 816.5 816.5 0 0 1 68.02 82.339c6.64 9.064 16.71 22.648 21.93 32.5-43.55 31.703-90 58.901-133.53 90.67-10.76 7.854-23.11 14.684-33.67 22.663 63.72-25.23 127.21-51 190.49-77.305 24.97 36.193 54.4 97.711 71.01 139.223l-37.82 21.604c.49-10.396 3.64-32.13-2.25-39.833-12.9-4.345-39.82 39.498-52.82 47.589l-1.59 1.008c-7.89 4.919-19.45 9.05-27.96 13.424-12.52 6.435-23.39 13.698-34.74 21.891-.82-6.965-1.59-15.213-3.12-21.943-7.47-5.667-17.26 11.558-20.98 17.042-7.01 10.335-14.19 21.436-19.39 32.773-2.07 5.549-5.05 19.106-6.79 25.352-13.54 6.133-24.66 11.306-37.77 18.461 15.23-49.654 19.43-74.229 10.1-126.809-1.17-6.625-3.4-21.901-5.78-27.408-2.62-2.251-1.15-1.77-4.52-1.597-5.38 5.282-9.89 15.502-13.7 22.263-28.34 50.358-40.85 110.65-23.41 167.371-7.91-7.198-15.25-13.286-23.5-20.028-6.42-20.082-13.22-41.492-31.5-54.106-1.95-1.35-6.66-2.193-8.42-1.029-17.7 11.727-7.56 57.776-5.02 71.604-5.25-3.632-15.38-10.955-19.77-1.659-7 14.83-1.76 37.503.91 52.917-3.99-3.258-13-10.242-16.91-2.406-13.87 27.841-3.73 62.097 2.01 90.308-5-5.47-10.47-12.83-17.41-14.86-16.71 4.3-15.24 67.64-13.14 82.56-2.61 1.63-5.88 3.54-8.36 5.24-4.97-10.13-12.91-31.11-22.64-34.99-20.63 2.29-14.32 77.91-12.47 93.88-7.18 8.22-10.04 10.87-14.31 21.03-11.78-18.14-34.64-30.7-49.3-46.2-11.18-11.82-18.19-29.88-30.1-41.65-21.77-25.79-43.58-43.06-66.82-66.17 2.47-12.16 5.23-24.1 8.06-36.177 7.09-30.316 12.22-61.679 16.54-92.494a1802 1802 0 0 0 15.07-249.292c.03-45.493-1.29-112.727-11.68-156.62a198.6 198.6 0 0 0-28.44-65.027c-35.93-54.006-84.42-80.108-147.04-92.227-81.319-15.736-170.91-6.977-240.775 40.105A311.28 311.28 0 0 0 709.303 573.03a365 365 0 0 0-6.375 75.946c.778 55.179 8.991 78.04-11.132 135.988C655.043 890.8 555.24 951.978 533.237 1063.87c-7.058 35.89-7.38 60.57-4.211 96.7 5.167 58.19 22.746 119.01-7.818 173.57-28.251 50.43-80.622 74.43-120.652 113.64-15.29 14.98-25.055 38.44-38.384 50.99-17.609 16.58-41.782 29.53-58.999 48.4-21.955-31.36-67.014-105.51-79.626-140.11 53.524-28.89 104.83-59.21 156.325-91.64 29.981-18.87 61.497-37.42 90.609-57.59-59.734 23-119.313 46.4-178.735 70.19-26.521 10.61-62.583 23.7-87.769 35.34-20.278-52.55-42.063-120.79-49.389-176.59 40.713-8.96 76.816-20.19 116.386-32.55a4617 4617 0 0 0 127.753-41.93l15.758-5.27c-5.265.46-9.9.83-15.139 1.72-31.248 2.05-68.652 7.44-100.141 11.24-50.538 5.79-101 12.23-151.372 19.31-5.372-52.08-7.304-103.81-3.928-156.026.432-6.693.963-13.512 1.257-20.2 43.397-1.193 89.604-4.381 133.029-7.134 31.744-2.013 75.223-4.221 106.137-9.248-21.793-4.435-56.05-8.093-78.651-10.932l-104.876-13.667c-14.623-1.843-36.112-3.71-49.929-6.28 7.474-43.711 14.152-76.944 24.802-120.283a6163 6163 0 0 0 158.484 20.468c24.562 2.799 49.82 5.967 74.457 7.383-69.686-26.834-146.84-48.341-217.85-72.945 10.019-29.678 27.28-70.896 41.029-99.103a4896 4896 0 0 0 204.165 62.664c-35.003-21.137-71.939-40.695-108.202-59.676-23.305-12.198-52.355-28.821-76.037-39.541 12.374-23.635 24.588-45.579 40.4-67.212 62.109 26.553 122.665 60.854 185.705 87.173-38.626-31.733-79.65-58.776-119.454-88.963-13.873-10.521-29.393-21.115-42.592-32.313 23.689-31.1 59.719-76.447 88.568-102.901 35.313 23.398 69.956 49.878 105.235 73.576 12.341 8.29 25.396 18.267 37.923 25.997-37.593-41.947-77.469-84.672-114.383-126.788 19.086-19.413 72.477-60.324 96.232-74.733 29.533 28.452 56.127 57.283 84.867 86.321-5.448-11.322-14.35-25.385-20.94-36.579a3589 3589 0 0 1-38.416-66.33c20.721-14.819 55.19-31.923 78.41-43.56 14.493 20.476 30.408 43.516 46.19 62.796-8.224-21.877-20.466-50.454-27.486-71.63"/><path d="M580.57 739.438a12.706 12.706 0 0 1 16.869 14.354 12.71 12.71 0 0 1-24.468 1.766c-2.291-6.547 1.091-13.721 7.599-16.12m830.45-13.088c4.87-.375 9.18 3.147 9.79 8.001a9.16 9.16 0 0 1-16.31 6.766 9.18 9.18 0 0 1-1.16-9.333 9.15 9.15 0 0 1 7.68-5.434m-83.74-414.783a8.7 8.7 0 0 1 8.88.55 8.71 8.71 0 0 1 3.74 8.066 8.69 8.69 0 0 1-5.32 7.128 8.68 8.68 0 0 1-11.2-4.369 8.683 8.683 0 0 1 3.9-11.375M507.899 847.42a8.09 8.09 0 1 1 3.258 15.85 8.09 8.09 0 0 1-3.258-15.85"/><path fill="#FEFEFE" d="m718.06 1074.84 1.917.12c3.203 3.13 11.036 16.49 13.768 21.12 31.523 53.51 58.359 114.45 83.3 171.43l88.994 204.12c21.011 47.35 44.714 93.46 65.132 140.79-8.942 6.18-37.703 25.31-36.76 36.39 1.604 3.05 1.351 3.03 4.34 4.63 1.783-.02 3.546.39 4.766-.76 35.862-33.71 76.273-54.69 119.953-77.13 36.72-18.86 72.35-38.68 107.75-61.1 13.47 13.56 25.6 29.86 37.96 44.52 13.28 15.76 26.65 31.25 39.7 47.22-26.14 31.86-58.55 65.62-87.2 95.08-37.02 38.15-89.56 85.39-136.98 110.1-21.9 11.42-74.628 34.85-98.921 26.96-15.791-5.12-30.912-22.34-41.961-34.34-63.199-68.68-113.837-163.96-155.939-247.13-52.495-103.7-104.486-224.16-129.296-337.95-2.511-11.51-8.848-35.75-4.686-45.29 17.503-40.16 86.667-80.11 124.163-98.78m424.85-571.106c2.72 2.785 13.19 33.147 16.2 39.993a998 998 0 0 0 23.47 48.749c18.95 37.423 25.25 45.101 21.51 87.468-12.01-1.952-25.46-1.716-37.08 2.167a62.9 62.9 0 0 0-24.19 15.219c-35.07 35.312 1.03 89.076-8.35 102.393-3.65 5.178-14.92 6.036-20.8 6.888-9.08-3.271-13.63-8.406-22.61-6.637-3.09 2.302-2.06.82-3.03 4.715 4.54 22.196 46.23 16.4 57.9 5.04 9.34-9.094-2.51-43.568-3.92-55.811-2.12-18.277-3.27-37.045 12.39-50.554 12.67-10.522 31.25-11.424 47.11-9.718a209 209 0 0 1-7.16 41c-8.3-2.634-30.49-10.977-37.28-6.266-3.94 7.468 1.53 15.974 7.62 20.558 8.08 6.084 15.92 5.062 25.31 3.767-8.05 41.929-31.19 86.177-57.17 119.621-14.83 18.293-38.64 43.163-62.38 48.795-35.01 8.304-92.377-18.646-122.694-36.093a253.3 253.3 0 0 0-24.938-75.782c-13.75-26.382-21.366-29.252-28.324-60.927-7.057 3.69-15.962 7.009-23.118 2.901-24.527-14.079-25.179-56.387-15.006-79.271 7.269-16.352 21.44-27.65 38.301-19.415 10.772 5.261 16.545 20.604 20.034 31.269 9.147-.968 20.326-3.618 28.996-6.562 87.939-29.853 156.909-92.174 199.209-173.507"/><path d="M1135.98 591.855c10.13.618 10.59 6.696 12.18 15.945 2.9 16.983 11.63 47.749-14.72 48.503-12.12-3.287-14.28-8.622-17.73-20l.15-.818.29-1.354c2.03-9.876 13.94-34.375 19.83-42.276m-112.37 121.119c12.82.314 55.98 11.961 58.45 26.989-1.35 4.732-.54 3.034-4.29 6.657-20.64 7.795-67.03-13.989-54.16-33.646m9.93-50.71c16.1-1.774 46.98 6.782 53.07 25.757.68 2.124-1.18 4.039-2.47 5.494-3.59 1.341-3.7 1.64-7.63 1.333-12.22-8.797-23.57-15.299-38.9-16.471-6.89-.527-16.75-.262-19.68-7.565 1.74-6.33 10.2-7.802 15.61-8.548m30.12 168.35c9.44.294 11.51 7.598 19.57 11.801 7.84 4.08 33.24-3.166 34.28 8.631-2.09 4.073-1.95 3.86-5.82 6.364-15.38 4.121-28.67 2.438-42.33-5.982-9.03-5.56-14.08-11.55-5.7-20.814"/><path fill="#FEFEFE" d="M882.598 1012.93c.528-.01 1.263-.14 1.623.35 36.681 50.1 65.037 117.31 84.034 175.45 14.524 44.45 22.741 87.07 37.115 128.71-10.971 20.37-30.336 46.99-43.931 65.98-13.838 19.34-33.648 47.2-50.356 64.04a2286 2286 0 0 0-15.822-35.8c-12.725-26.41-26.658-62.13-38.721-89.98a6676 6676 0 0 0-57.782-130.09c-12.635-27.46-25.861-55.77-39.995-82.5-7.164-13.55-17.485-28.4-25.517-41.94 38.479-19.34 79.562-32.54 120.696-44.95 9.699-2.93 19.219-5.54 28.656-9.27m661.602 117.88c2.96.01 5.27.48 7.16 2.83.38 8.62-21.52 23.68-27.81 29.94-16.62 16.53-74.61 61.19-82.01 79.59.49 3.96-.16 2.15 2.28 5.55 2.49.74 4.54 1.31 6.69-.87 15.18-15.31 98.65-97.32 113.19-99.91.95.79 2.7 2.28 2.56 3.27-2.1 14.59-55.98 61.79-64.66 70.2a977 977 0 0 0-26.91 27.33c-5.74 6.01-18.04 15.62-13.56 23.78 2.47 1.28 5.67 2.7 8 .28 12.33-12.82 82.8-88.33 93.98-89.31 1.1.78 1.8.81 1.96 2.27 1.15 10.53-69.39 83.16-80.46 96.3-3.32 3.94-5.66 7.48-5.19 12.75 2.23 3.67.75 2.35 4.48 4.22 7.77-.74 65-73.23 78.06-83.91 6.39 13.83-59.87 85.8-60.38 98.05l2.74 1.77c-.41 6.89-9.59 19.31-13.7 25.6-22.41 34.76-55.38 69.68-85.78 97.75-9.59 8.85-26.46 17.88-36.14 27.75-19.41 19.79-38.58 41.21-56.26 62.46-17.96-23.99-43.88-48.71-63.47-72.34 17.07-12.97 42.58-30.55 55.31-47.58 8.39-12.53 8.71-29.2 12.29-43.42 7.78-30.88 12.91-64.19 27.06-92.88 12.57-25.46 34.42-43.18 56.1-60.42 12.43-9.88 23.76-21.14 36.49-30.94-4.34 7.55-9.68 17.8-14.81 24.6-8.08 10.71-68.71 78.84-51.55 88.35 2.29-.06 4.88.23 6.35-1.99 7.63-11.61 11.03-21.16 19.75-32.89 11.17-15.03 21.3-30.04 34.33-43.52 6.05-6.26 14.9-11.46 21.62-17.16 27.83-23.6 60.85-49.1 92.29-67.5m-334.92-71.36c11.61 7.73 22.55 14.95 33.69 23.34 1.93 21.82.09 56.17-1.95 78.37-11.68 127.28-54.86 269.2-129.6 373.13-8.49 3.33-16.42 7.92-24.4 12.27-30.27 16.48-61.02 32.15-90.889 49.33l-12.03 7.82c-5.955-10.6-12.496-25.81-17.146-37.09 21.606-18.79 40.895-45.21 59.195-66.72 90.79-106.66 138.45-229.94 168.82-365.5 5.33-23.8 9.73-50.47 14.31-74.95"/><path fill="#FEFEFE" d="M1168.34 1035.74c6.13 2.51 12.17 5.22 18.1 8.14-15.75 128.21-57.06 270.83-130 378.53-29.12 43-65.325 84.34-99.52 123.2-2.081-3.63-4.362-8.46-6.306-12.28-8.585-18.58-21.355-44.18-28.503-62.9 14.503-16.52 26.337-32.37 39.496-49.82a1201 1201 0 0 0 108.603-171.06c17.16-33.18 31.35-66.04 47.13-99.53 18.25-38.74 34.46-74.76 51-114.28M1683 1289.35c17.22 12.37 42.53 25.95 61.23 36.33 31.07 17.03 62.02 34.26 92.87 51.69a935 935 0 0 1-70.73 138.87c-2.1 3.41-9.58 16.34-12.19 18.31l-2.77-1.37c-37.52-24.54-74.84-54.17-111.84-79.64-14.63-10.07-30.69-23.02-45.82-31.76 42.15-40.78 72.32-73.96 89.25-132.43m-415.76-187.76c6.52 3.68 15.05 10.76 20.71 15.57 6.35 26.92 36.56 147.27 34.44 165.92-1.28 11.33-5.99 23.29-9 34.35-5.06 18.62-9.29 37.02-12.47 56.04-1.49 8.94-2.59 18.14-7.8 25.86-13.03 19.28-77.57 64.15-99.28 79.65-11.43 7.61-24.94 16.7-35.37 25.39 72.25-127.92 103.57-256.31 108.77-402.78m218.7 396.44c18.09 10.02 136.98 148.17 155.58 173.96a789 789 0 0 1-53.04 48.22 818 818 0 0 1-27.74 22.16l-60.94-74.85c-15.57-18.94-30.83-36.37-45.36-56.14a1602 1602 0 0 1 17.75-102.32c5.58-5.37 7.28-6.83 13.75-11.03M949.091 902.587c29.993 15.792 46.252 22.281 79.229 31.195-1.36 8.369-5.35 34.341-4.06 41.709 4.08 23.375 25.29 61.149 38.45 80.149.11 11.97-.41 25-.68 37.05-17.72 8.6-30.04 10.85-48.99 13.74-19.679 2.6-41.681.36-61.313-1.52-17.816-40.54-31.582-63.27-55.111-100.32a218 218 0 0 0 15.72-14.211c28.142-28.103 36.734-49.115 36.755-87.792m884.529 254.233c5.34-.51 51.05 12.94 58.81 15.2-7.76 57.28-19.66 102.7-37.43 157.5-36.69-10.19-79.21-27.77-116.26-40.49a693 693 0 0 1-46.69-17.49c2.5-9.38 12.41-28.3 16.96-37.53 18.15-2.1 78.48-12.91 84.46-32.99-2.88-15.47-39.72-15.96-52.38-16.47 15.08-5.89 24.74-5.86 40.39-9.02 19.01-3.84 34.89-10.34 52.14-18.71m-252.38 276.89c6.37 1.96 134.37 123.66 147.77 136.37a724 724 0 0 1-54.87 67.83l-11.42-10.12-93.31-83.38c-22.75-20.34-43.66-38.23-65.22-59.95 30.88-16.49 50.06-29.41 77.05-50.75m-521.49-323.63 1.45.11c.97 1.7 6.14 90.78 4.65 95.34-6.79 20.7-37.25 75.39-50.02 94.97-4.3-12.13-8.49-27.7-12.22-40.25-14.607-51.42-26.081-90.53-44.891-140.46 38.228 4.08 64.591 2.48 101.031-9.71m800.24-349.169c5.82 4.669 25.23 87.29 28.24 99.648-23.17 21.412-35.04 33.951-52.8 60.419-14.51-15.828-21.74-31.154-34.63-47.055-3.35 1.809-8.79 5.375-12.12 5.479l1.99-2.414c5.53-5.467 27.68-27.794 11.85-33.28-19.22-6.661-44.36 4.798-62.08 12.51 5.05-11.57 14.33-15.402 23.45-24.349 9.69-9.508 22.7-24.016 27.94-36.458 13.86-8.965 51.46-26.255 68.16-34.5m-412.16 883.539c1.8 1.78 14.82 22.55 16.77 25.65 20.32 32.22 43.17 65.4 61.44 98.71-19.56 12.65-39.51 24.7-59.82 36.1-13.61 7.39-39.34 22.09-52.7 27.08 3.59-27.84 9.03-53.21 14.21-80.69zm185.97-356.44c1.94 3.7-1.46 21.59-2.6 26.12-5.45 21.65-10.32 47.17-20.14 67.18-4.33 8.84-15.95 19.28-22.82 26.08-33.72 33.4-71.29 52.46-110.64 77.49l3.01-19.49c14.49-14.99 24.13-25.79 36.6-42.42 21.33-29.14 37.72-58.86 57.54-88.61 6.8-10.2 20.82-22.73 29.93-35.72-4.49 10.04-7.68 17.48-15.14 25.9-4.35 4.92-8.13 8.28-11.74 13.82 2.44 8.62 5.8 36.15 12.52 39.3 13.04-2.69 37.55-75.52 43.48-89.65m239.94-219.51c20.41-1.85 58.21-1.07 77.36 6.55-25.97 12.81-81.92 16.43-110.35 17.85-28.63.25-49.72 4.39-77.97-2.21 36.78-13.97 71.98-19.98 110.96-22.19m-276.18-336.679c2.56 3.236 3.9 17.443 4.74 22.333 8.01 46.402-8.65 86.244-27.81 127.321l-.68.27c-1.91-3.631-3.25-18.981-3.85-23.85-5.82-47.112 8.02-84.382 27.6-126.074m-289.34 406.429c4.62 2.2 29.31 25.19 37.49 31.33 7.89 19.23 11.58 37.29 14.5 57.58l-14.32 15.57c-4.1 5.27-7.36 10.27-11.03 15.83-8.48-40.01-18.29-80.06-26.64-120.31m303.51-129.17.94.69c-.45 3.98-7.76 13.94-10.26 17.53-25.05 35.98-61.2 70.59-97.35 95.33l-.8-.76c.05-1.88.11-2.13 1-3.86 17.96-35.32 44.79-75.42 78.87-96.84 9.16-5.75 17.52-8.75 27.6-12.09"/><path fill="#FEFEFE" d="M1795.13 889.565c28.61 14.598-52.75 119.255-66.87 132.935-1.64.39-3.28.75-4.93 1.09-4.03.79-5.8 1.24-8.71-.76 1.66-7.25 4.89-20.91 9.33-26.676 15.15-19.715 36.5-31.379 49.29-53.655-4.18-2.897-7-3.81-11.67-5.7a139.1 139.1 0 0 1 33.56-47.234m-343.66 635.175c1.46 14.51-20.08 125.66-24.17 148.13-7.71 44.75-15.94 89.4-24.71 133.95-4.06 21.41-9.19 52.38-14.81 72.68-7.05-14.88 38.48-250.36 45.9-284.66a960 960 0 0 1 17.79-70.1m184.32-609.777c1.21.977.7.281.96 2.407-14.59 27.69-46.28 60.909-70.27 82.042-8.26 7.268-19.61 15.078-28.54 21.968-1.65-3.86 11.51-24.732 13.86-29.429 19.06-38.127 45.03-60.353 83.99-76.988m160.03-191.076.62.634c1.02 5.058-3.3 25.99-4.66 31.654-5.78 24.069-33.65 76.532-59.7 83.721-1.73-1.845 3.33-15.201 4.21-18.02a239.6 239.6 0 0 1 59.53-97.989m140.29 118.229c-1.13 4.209-5.98 11.42-8.54 15.406-17.59 27.39-38.32 54.675-63.05 75.939-10.18 8.761-18.8 12.171-29.74 18.982-.4-.766-1.68-2.61-1.28-3.445 22.53-46.831 59.76-78.953 102.61-106.882M1677.4 785.69c7.48 26.646-3.82 100.542-26.64 119.935q-.93-4.295-1.62-8.635c-5.83-38.546 5.04-79.946 28.26-111.3m-231.14 243.73c3.11 1.67 7.97 8.27 9.69 11.31 16.89 29.85 12.34 79.45 4.16 110.71l-.36 1.69-1.15.41q-.855-1.17-1.68-2.37c-14.32-21.14-15.63-95.81-10.66-121.75m360.65 103.01c15.91-1.1 23.97.29 39.53 4.38-27.87 16.87-67.84 20.12-99.7 20.94-17.74-.46-23.25-2.1-39.95-6.85 36.55-10.5 61.53-16.54 100.12-18.47m-77.53-97.11c4.89-.47 14.46-.17 19.72-.15-25.82 27.82-61 38.01-96.89 44.82-4.86 1.02-10 3.12-13.81-.6 1.63-4.9 7.89-8.42 11.87-11.57 20.72-16.39 53.34-29.08 79.11-32.5m60.99-182.044c.51-.028 2.38.217 2.97.281l-.15 1.427c-21.61 24.211-37.66 41.36-68.15 54.787-8.79 3.868-18.22 6.953-26.6 10.715l-.97.441-1.72.553-1.17-1.289c1.04-7.164 15.53-23.528 21.15-28.081 21.36-17.305 46.99-34.423 74.64-38.834m-322.5 91.531c30.3 18.177 27.9 87.423 26.88 117.383-1.47-2.34-4.89-6.34-5.67-7.73-15.58-27.45-26.04-79.982-21.21-109.653m-66.66 141.873c15.36 17.07 23.3 57.03 27.83 79.12l-11.17 11.58-10.16 10.51c-4.56-32.3-13.72-68.31-6.5-101.21m103.7-256.765c28 21.619 29.55 73.244 23.02 104.823-.65.62-.17.237-1.69.758-11.06-25.781-29.05-79.124-21.33-105.581m241.58 118.369c3.49-.38 2.31-.699 5.33.358-1.81 3.772-7.59 8.53-10.59 11.821-21.12 23.159-45.52 30.233-74 41.087-2.25 1.31-1.06.91-3.55 1.23.41-8.044 15.09-24.804 21.83-29.84 17.48-13.059 39.53-21.306 60.98-24.656m-109.88-95.351c1.12 4.104-1.08 15.826-1.79 20.653-10.55 13.014-48.14 47.01-63.38 51.032l-1.94 3.912-1.3.024c-.23-3.371 3.64-10.124 5.05-13.518 11.45-27.491 37.76-48.516 63.36-62.103m249.95 115.458 1.16.004.03 1.276c-19.02 19.88-42.3 35.909-67.35 47.259-4.45 2.02-17.7 7.39-22.21 6.68l-2.03-2.87-1.99-.09-2.29 2.98-.77-.44c1.29-2.88 7.14-7.96 9.66-10.42 21.82-21.263 55.43-40.68 85.79-44.379M1733.78 1197.4c9.62-1.1 33.48-1.11 41.77 3.67l.12 1.43c-8.43 9.13-52.69 16.93-66.92 19.14-14.8 2.14-28.39.78-44.63 3.1 5.71-2.46 22.8-7.15 25.85-9.8-.32-2.63-.75-3.82-1.49-6.36 5.54-6.35 36.71-10.19 45.3-11.18m-248.7-302.696c20.13 10.936 28.84 37.571 31.6 58.884.42 3.269 3.59 25.359 3.44 27.116l-2.42-1.12c-3.42-1.79-7.39-4.345-11.1-4.611-.2 2.499-.03 3.846-1.02 6.051-8.42-13.838-21.56-69.399-20.5-86.32m71.31 446.206.62.06.75.95c-4.37 7.14-10.38 15.05-15.17 22.59-16.03 25.25-32.01 50.5-52.04 72.83l-1.04.36c-.64-3.17 9.12-22.79 11.08-27.49 7.65-18.65 15.05-37.4 22.19-56.25 11.57-3.58 22.51-8.28 33.61-13.05m124.15-228.71c2.73-.42 2.66-.32 5.42.18l.89 1.58c-.78 3.42-2.83 5.72-5.2 8.27-18.42 19.81-50.26 33.15-76.89 34.19-.99-.19-4 .09-5.18.16 10.31-19.51 59.16-39.89 80.96-44.38m250.01-129.797c4.08-.43 10.53-.318 14.81-.382-25.7 19.179-60.4 31.469-91.58 38.029-5.9 1.14-11.92 1.86-17.88 2.66 44.39-21.67 36.83-35.446 94.65-40.307m-31.4 118.967.83.05c1.45 2.79-.88 18.67-1.35 22.9-21.7-.06-42.15 3-62.89-2.75-2.77-.26-4.73-.12-6.99-1.68l-.34-1.9c1.64-4.16 7.64-8.89 11.19-12.19 23.75-1.22 35.66-.64 59.55-4.43m-711.82 400.16c4.41.73 69.51 76.88 75.54 84.87-.01 3.25-2.01 5.17-4.01 7.93-13.09-13.26-28.51-32.36-40.57-46.44-11.21-13.09-24.2-27.68-34.67-41.16.2-3.05.61-2.4 3.71-5.2m14.13-9.9c9.01 6.23 62.58 71.57 72.3 83.43l-6.07 6.14c-1.35-1.01-13.46-16.44-15.59-19.08-17.69-21.95-38.17-42.44-55.72-64.34.98-3.54 1.74-3.2 5.08-6.15m513.36-656.782c1.64 16.87-25.03 59.747-37.42 69.459-3.43-9.123 7.48-41.606 14.57-48.554 6.7-6.563 15.07-12.381 21.81-19.753zM1787 1024c11.49 14.14-37.1 56.72-47.95 62.96-1.01-1.19-3.63-4.38-3-5.48 7.58-13.19 40.64-49.48 50.95-57.48m-506.72 621.91.24 1.34c-3.03 8.51-13.24 21.46-18.31 29.52-25.52 40.59-53.53 75.57-85.66 111.26.15-3.81 93.28-130.26 103.73-142.12m347.15-625.1c1.73 3.01 7.9 23.31 9.36 27.86-1.47 5.73-8.51 27.95-12.05 32.57-4.48-12.02-8.47-31.25-11.59-44.35zm275.39 2.21c2.32 3.57.52 26.17.24 31.87-14.61-.27-29.22.19-43.78 1.37-.33-.3-.11-.01-.58-1.42 13.32-10.42 30.1-21.63 44.12-31.82m-592.65 854.03c5.93-22.33 10.28-44.89 15.37-67.38 5.33-23.54 4.65-44.03 21.37-62.71-10.44 47.51-20.85 85.54-35.08 131.94zm419.55-787.41c3.37.45 3.47.52 6.66 1.76-.25 7.36-34.45 46.12-40.62 53.17-.95.82-1.55.94-2.75 1.49-6.08-4.52.67-13.21 4.14-17.85 9.7-12.98 20.38-27.99 32.57-38.57m-57.11 172.28c7.72 12.38-26.85 67.96-34.51 81.33l-.76-.39c1.22-5.17 4.68-21.19 6.34-25.55 6.69-17.55 19.24-39.13 28.93-55.39m113.55-297.261c2.53 5.585-6.81 24.127-7.89 31.093-.58 3.723-1.06 6.498-1.43 10.448-6 4.16-10.38 8.44-15.75 13.3-5.51 4.99-7.05 4.84-14.41 4.6.01.11 36.02-54.288 39.48-59.441m-60.43-161.693c1.59.31.88-.088 1.99 1.432-1.34 6.14-3.22 20.341-8.96 22.848-13.11-4.893-15.22.166-25.06 8.824l-2.25.936-1.13-.997c-.89-4.937.33-11.745.93-16.928 10.78-5.269 23.44-11.873 34.48-16.115m-55.86 136.949.86.955c2.26 14.994-1.36 21.717-6.77 35.207-4.54-1.412-10.8-2.723-15.54-3.864-4.15-4.073-2.32-9.208-2.27-14.316.02-1.897-1.81.465-1.73-3.541 10.56-4.464 15.74-5.808 24.38-13.477zm-45.91 302.285.45.46c-.69 3.64-3.45 7.91-5.06 11.44-8.82 19.29-16.39 30.14-30.55 45.5 1.74-6.52 16.85-50.86 21.02-51.99l2.47 1.54c4.14-2.85 7.29-4.55 11.67-6.95M1664 899.965c.31.381 5.16 16.129 6.52 19.526l.44-1.282-1.33 2.435c-5.23 9.67-8.25 13.316-18.38 17.72-2.42.638-2.77.625-5.29.756l-.74-1.852c.69-12.678 10.31-28.004 18.78-37.303m-68.7 365.015c.37 3.92-13.95 35.97-16.61 41.49-7 14.52-8.72 14.6-22.73 19.45.93-6.83 32.82-53.88 39.34-60.94m-378.36 215.97c7.19 2.28 55.9 61.13 64.39 70.59 3.53 3.94 6.33 7.34 4.87 12.7-13.8-11.27-30.11-36.11-43.33-49.86-5.76-5.99-23.36-24.93-27.69-31.32zm17.83-14.13c3.51.11 7.27 3.92 9.86 6.79 18.67 20.73 39.15 42.04 55.76 64.35.92 1.24.89 3.84.89 5.24-.94-.73-1.86-1.5-2.75-2.29-12.01-10.58-50.02-56.28-63.58-71.48zm447.08-313.83.63.73c-.11.81-.95 7.5-1.06 7.75-5.14 10.95-23.99 35.46-33.66 41.25-2.07-1.58-2.49-1.52-3.3-3.88 6.22-10.02 28.28-39.74 37.39-45.85m216.05-217.846c1.32 2.161 1.72 14.1 1.95 17.572-7.59 1.022-23.71 5.393-29.64 2.584l-7.2-6.369a722 722 0 0 1 34.89-13.787m-521.12 862.126c.76 12.67-1.39 40.74-1.88 55.16l-13.64 2.84c-.84-7.21 12.46-48.89 15.52-58m251.68-586.46c.43.11 1.55.86 2 1.13 1.69 6.17-4.09 11.2-8.48 14.57-7.35 5.64-10.1 7.74-19.47 7.33l-3.05-2.27-.24-1.69c4.85-8.56 20.03-14.65 29.24-19.07m-35.26-98.87 1.04.28c.76 3.37-4.36 25.11-4.98 31.17l-.14 1.48-1.31-.43-1.69-4.23c-15.23-15.72-12.84-21.11 7.08-28.27m79.46 121c-.76 14.51-14.07 37.61-21.71 49.94-6.03-12.57 13.8-40.64 21.71-49.94m50.55-163.07.79.2c-.14 2.94-19.12 19.63-22.5 22.77-2.69-4.79-4.53-8.18-10.49-6.53-4.5 4.3-4.32 5.79-5.37 12.08-3.39.84-6.67 2.38-9.4.1.37-3.5 4.3-8.17 6.51-11.3 16.88-3.73 25.43-9.12 40.46-17.32m-499.24 404.03c3.03.97 8.79 6.82 10.61 9.3 8.13 11.05 58.2 60.82 59.88 70.29-7.53-6.19-68.11-74.12-70.49-79.59m165.5-296.13c1.96 3.65 3.5 15.79 4.2 20.31-4.29 3.97-9.48 8.19-13.98 12.02l-.89.4-.96-1.22c.85-9.79 6.77-22.98 11.63-31.51m375.57-275.673.44 1.22c-4.39 6.676-8.32 13.109-12.43 19.964-7.71-.462-15.06-.551-22.77-.652l-.66-.804c16.57-7.436 19.87-8.905 35.42-19.728M1587.58 1238.4c10.86 5.4-11.17 30.08-15.22 35.12l-.46.6-.7-.1c4.18-17.53 6.2-20.78 16.38-35.62m145.15-123.5c1.25 1.48 4.47 11.32 5.34 13.81-7.92 2.19-15.03 4.27-22.83 6.84l-2.06.87c1.56-3.56 15.88-17.7 19.55-21.52m50.07-56.95c1.36 1.98 3.01 9.26 3.76 12.04-6.54 1.96-14.7 5.1-21.27 7.42l-1.45-.01c6.37-6.43 12.69-12.92 18.96-19.45m-241.23-27.43.15.01.47.72c-5.72 8.14-13.7 17.37-20.11 25.18-.47-.21-.53-.9-.75-1.38 2.54-6.86 5.29-14.12 9.78-19.93 3.48-4.5 4.84-3.73 10.46-4.6m-22.52 94.62c2.58 6.58-20.56 16.69-25.47 19.22l1.95-4.07c2.88-6.05 3.47-8.81 11.06-8.94 4.92-.09 8.62-3.43 12.46-6.21m166.08 110.26 12.41-.64-7.47 12.73c-1.5 2.86-1.64 3.42-3.83 5.88l-1.2-.68c-1-4.9-.2-12.09.09-17.29m121.61-128.35c3.05-.17 4.55-.47 7.51.43l.71 1.95c-1.05 3.86-6.14 9.22-10.21 10.09-3.42.74-3.88.9-7.5.95l.43-1.57c4.79-4.57 5.86-5.9 9.06-11.85"/><path fill="#98989A" d="M1245.54 1809.79c.19 2.76-24.27 57.02-27.15 62.56-1.93-6.32 22.85-53.95 27.15-62.56"/><path fill="#FEFEFE" d="M1596.87 1201.95c-.37 2.97-2.92 11.37-4.4 13.98-3.09 5.44-4.06 5.04-9.22 6.61.9-7.97 6.14-17.16 13.62-20.59m68.9-174.94.69 1.24c-2.33 12.76-8.42 18.28-17.4 27.04l-.77-.39c6.09-9 10.82-18.22 17.48-27.89m15.29-106.154c6.83 2.355 9.92 1.317 16.21 2.953l.66 1.429-2.47 3.252c-1.66 2.488-1.54 2.811-4.09 4.197-3.52-3.944-8.25-7.732-10.31-11.831m-34.43 63.563c2.65.079 2.69-.118 5 1.083 2.48 4.557 3.39 13.514 4.21 18.948-7.04-4.515-8.21-12.28-9.21-20.031m-9.82 262.081 1.25.69c2.15 3.85-.13 15.52-3.46 18.28-2.04-1.43-2.04-1.36-3.55-3.3.59-5.32 3.65-10.58 5.76-15.67"/><path fill="#C2C2C5" d="M1392.65 1734.7c.14 10.36-3.49 30.79-5.28 41.81-3.24-5.93 2.96-34.87 5.28-41.81"/><path fill="#FEFEFE" d="m1630.35 1173.73 1.95 3.8c-.18 4.67-8.19 10.6-12.58 17.31l-.83 1.28-.44.35c-.25-2.86 9.73-19.04 11.9-22.74m43.36-166.28 2.57 1.33.6 2.15c-1.16 3.46-4.58 6.56-7.15 9.35l-.22.24-.94.03c-.28-7.37-.26-8.47 5.14-13.1m-13.02 217.95 1.02.13q-5.67 4.5-11.07 9.3c-.55-.25-1.1-.5-1.66-.76-.43-3.18-.79-3.28.66-6.03 3.08-2.28 7.12-2.21 11.05-2.64"/><path fill="#98989A" d="m1624.23 1278.75.78.47c.02 3.7-7.35 20.91-9.15 24.72l-.09.01-.59-.93c2.8-8.17 5.44-16.42 9.05-24.27"/><path fill="#FEFEFE" d="M1562.84 1117.56c4.53 4.03 3 9.92 1.58 15.04l-1.22-.37c-1.2-2.23-.43-11.37-.36-14.67m-48.61-44.1.92 1.72c-3.76 7.17-5.5 10.56-10.34 16.96 2.63-8.05 3.72-12.19 9.42-18.68m296.51-89.633c.54 4.644-5.74 10.895-8.74 14.274l-.39-1.214c1.79-5.486 5.13-8.989 9.13-13.06M1585.4 1233.77l1.28.71c-1.19 2.75-5.67 6.15-8.1 8.29l-1.44-.06.07-1.68c2.91-3.77 4.22-4.42 8.19-7.26"/><path fill="#C2C2C5" d="M1311.83 1878.9c-1.63 5.65-2.88 10.74-5.38 16.08.57-6.16 2.22-11.93 3.72-17.93z"/><path fill="#353637" d="m1514.23 1073.46 6.54-8.42-.2.27 1.43.29.91-2.14c-1.01 3.67-5.25 8.68-7.76 11.72z"/></svg>