<svg xmlns="http://www.w3.org/2000/svg" preserveAspectRatio="none" style="display:block" viewBox="0 0 2048 2048"><path fill="#FEFEFE" d="M0 0h2048v2048H0z"/><path d="M985.227 136.424q8.384-.309 16.773-.424a941 941 0 0 1 191.98 15.41 889.2 889.2 0 0 1 452.94 238.037c208.11 203.628 303.8 503.155 252.96 789.703-63.79 359.51-349.74 650.99-709.14 718.57-40.9 7.69-80.11 14.74-121.97 15.15-.13-4.23.07-8.48.04-12.71-.36-55.27-8-111.4-14.12-166.24-.2-2.53-.1-2.38-1.48-4.5-24.2 2.44-36.27 2.13-60.003-.73-4.098 22.29-5.038 45.51-7.704 67.98-4.629 39.03-5.487 77.2-6.522 116.37a813 813 0 0 1-126.996-16.67 871.6 871.6 0 0 1-412.987-205.67c-176.869-157.47-289.709-374.34-303.344-611.9-13.806-239.362 69.061-474.247 230.01-651.956a874 874 0 0 1 123.79-112.913C637.13 202.36 801.216 146.703 985.227 136.424"/><path fill="#FEFEFE" d="M995.302 186.556c45.168-2.835 115.478 2.317 159.788 9.246 220.49 34.41 418.08 155.516 548.82 336.374a841.1 841.1 0 0 1 159.59 464.253c1.31 30.001 1.83 83.881-2.87 113.591-14 4.69-23.36 11.76-35.13 19.48-50.85 33.36-82.36 85.27-103.66 140.98-1.71 4.47-6.56 18.79-10.37 19.93-3.33-1.77-16.26-19.55-22.1-23.18-4.67-2.91-11.3-12.17-17.57-15.34-17.61-8.91-37.08-12.9-53.52-24.16-21-13.56-35.73-32.57-59.96-40.96-3.48-1.21-14.33-15.86-17.55-18.75-6.26-5.67-13.74-10.44-19.63-16.52-21.67-22.41-43.91-43.89-63.22-68.42-3.48-4.41-8.26-9.86-12.2-14.04-12.34-13.12-19.43-29.53-29.61-44.25-15.1-24.48-36.08-43.999-51.58-68.206-11.03-17.22-20.32-35.826-30.41-53.633-6.6-11.627-11.53-22.762-19.44-33.835-3.04-.731-6.82-1.353-9.94-1.954-14.46-22.15-27.3-45.177-40.19-68.256a1995 1995 0 0 1-77.66-154.219c-26.55-58.876-50.58-122.636-87.32-176.521-12.58-18.451-47.75-54.228-64.49-71.691-2.3-2.358-4.82-4.71-7.06-7.096-21.1-22.473-38.519 6.046-52.469 21.714-20.173 22.659-41.951 46.983-57.633 73.239-9.973 18.253-16.9 38.46-24.476 57.906-15.401 39.531-40.85 75.499-56.197 114.709-17.615 45.007-41.162 84.861-64.904 126.668a3949 3949 0 0 1-32.211 55.835c-8.712 14.848-14.997 27.724-27.5 39.727-4.807 4.615-9.28 15.87-13.142 21.864-12.436 19.302-23.084 39.826-34.742 59.607-16.026 25.047-37.238 47.982-53.459 73.062-3.585 5.54-15.578 16.73-15.156 22.71l2.338 1.98c-2.118 3.29-10.03 2.41-13.648 6.75-5.111 6.12-11.642 13.1-15.915 19.82-4.665 7.33-8.198 14.87-13.519 21.81-6.805 8.88-18.047 14.01-25.462 21.71-3.82 3.97-9.442 13.02-13.133 17.82-7.426 9.67-15.005 18.9-22.963 28.14-4.588 5.33-11.503 6.8-15.749 10.83-15.038 14.26-29.969 32.56-46.606 45.03-9.904-.09-25.119 12.71-33.434 19.03l.914.23c-22.255-5.82-30.745 9.36-45.423 22.79-6.384 5.85-11.885 10.87-18.86 16.15-3.059-6.06-7.097-16.66-9.29-22.76-20.264-56.39-47.81-99.58-98.81-133.05-13.311-8.74-22.735-17.02-39.254-22.3-1.704-20.1-2.87-40.24-3.497-60.41-6.929-213.098 77.053-438.451 223.089-594.131 152.296-164.744 364.168-261.716 588.393-269.303"/><path fill="#FEFEFE" d="M1009.9 396.722c9.06 1.105 23.2 18.493 29.91 25.767 17.26 18.702 36.34 36.947 50.63 57.983 33.84 49.815 53.84 104.075 78.18 158.186a1974 1974 0 0 0 79 158.44c11.61 20.958 34.68 63.971 49.58 80.928-4.11 18.632-5.98 40.152-14.01 56.899-5.05 10.521-7.8 9.296-17.68 12.36-16.99-7.216-33.13-31.504-44.36-46.368-4.14-5.745-7.47-15.136-11.68-20.528-22.57-28.892-36.64-58.969-46.14-94.195-4.24-15.723-11.96-55.02-23.63-65.885l-2.76.11c-2.44-7.985-5.29-20.035-15.96-20.08-7.25.318-14.05 14.438-13.91 20.815.4 16.865 5.35 36.304 7.71 53.138 1.57 11.13 9.59 22.157 12.86 32.645 1.75 5.596.9 15.259 3.96 21.242 4.63 9.68 11.79 18.36 12.81 29.337 1.46 18.103-5.59 50.725-16.76 65.136-3.55 4.575-10.56 9.738-15.71 16.299-4.39 1.051-11.97 1.551-16.47 1.44-23.18-12.29-27.89-59.736-32.76-82.743-1.39-6.555-8.01-21.129-8.4-26.561-.93-12.874-.37-38.361-9.49-49.152 3.09-18.676-.9-22.888-5.16-41.304-4.42-19.179-3.15-47.2-17.37-62.01-4.49-4.673-15.1 2.958-17.55 7.753-2.54 11.378-1.24 19.197-3.04 28.865-2.231 12.026-7.184 24.926-8.378 37.574-.922 9.762 1.134 18.955.708 28.52-1.524 34.215-6.233 64.605-14.459 97.814-3.161 12.759-4.214 25.493-9.988 37.847-5.237 11.207-11.913 14.345-18.79 23.584-3.17 4.257-1.51 4.196-6.848 6.415-8.574-4.284-8.398-9.379-19.045-11.838a333 333 0 0 1-18.305-28.885c-7.392-12.935-8.055-18.434-18.437-29.711 4.452-7.116 8.642-15.133 10.761-23.342 5.773-22.37 9.092-45.348 14.802-67.901 4.388-17.331 11.882-34.436 13.79-52.466.156-4.648-2.322-7.34-3.138-12.002-2.201-12.587-1.442-47.88-23.2-38.121-2.61 1.171-7.308 6.097-9.601 8.448-1.13 4.249-8.842 22.36-8.817 24.303.231 17.929-3.125 28.84-7.417 45.896-5.631 22.379-10.87 45.187-17.858 67.197-4.295 13.528-15.664 26.654-21.936 39.414-6.569 13.7-11.251 28.215-18.929 41.396-50.196 78.106-70.57 29.192-81.53-29.79 25.882-53.755 63.817-104.763 89.372-159.104 9.143-17.415 16.362-35.511 24.168-53.489 14.636-33.708 33.501-65.848 49.596-99.024 11.313-23.32 21.904-61.518 35.279-81.329 17.26-25.564 53.643-70.451 76.4-89.923m8.67 561.108c2.04-.131 5.59-.432 7.07.813 19.75 16.557 33.29 72.687 38.18 94.947 17.5 79.52 30.8 157.39 41.41 237.98 3.1 29 12.67 58.1 6.75 87.19-4.27 21.05-49.21 30.59-45.34 46.34 7.48 7.38 30.83-4.1 39.51-6.77 4.8-1.48 9.73-2.5 14.72-3.05 89.75-10.44 167.8 65.3 137.96 155.44.96-29.36-.72-47.22-12.39-74.95-13.94-33.1-34.68-50.45-67.71-63.59-28.34-11.27-51.31-12.75-79.6-.27-5.83 2.58-16.05 7.84-18.37 13.84l.96 1.78c10.95 3.94 38.9-7.01 51.8-7.44 65.18-2.16 111.44 55.19 111.91 117.49.14 17.38-.87 27.78-12.23 41.05-12.46-40.08-20.03-83.48-62.31-104.5a73.4 73.4 0 0 0-55.38-3.87c-52.42 17.73-34.24 58.48-67.78 68.75l-1.4.42c-14.93 2.4-23.7 3.31-38.77.71-27.391-3.44-25.539-24.26-38.244-43.31-23.1-34.62-72.723-39.21-105.393-14.71-33.12 24.85-41.141 59.27-47.456 98.01-3.13-4.37-10.347-15.44-11.447-20.64-15.119-71.51 36.759-138.89 110.561-138.65 11.599.04 45.446 19.15 51.539 6.66-.157-.65-.322-1.62-.82-2.06-36.59-31.16-73.207-25.16-112.458-4.67-42.751 22.31-61.41 58.28-66.241 106l-.437-.44c-.812-6.53-2.092-14.68-2.079-21.03.152-74.28 86.323-127.97 154.856-107.13 10.946 3.33 26.53 9.92 37.186 6.87 10.308-10.07-31.084-26.87-36.836-35.95-5.823-9.18-10.334-8.61-9.606-22.13 3.482-64.68 18.288-129.22 26.174-193.61 8.076-48.09 30.456-184.349 61.711-215.52"/><path d="M1021.54 998.507c3.39.582 5.52 2.423 7.9 4.793 19.09 19.04 55.28 294.03 54.64 334.23-.27 17.11-4.47 33.29-17.39 45.33-12.52 11.66-29.83 13.52-46.1 12.89-17.56.75-37.804-5.04-49.002-19.05-22.221-27.81-8.174-80.56-3.571-112.92a7572 7572 0 0 1 16.289-110.67c6.857-45.1 11.629-91.54 24.924-135.46 2.57-8.51 5.45-13.56 12.31-19.143"/><path fill="#FEFEFE" d="M1013.79 1076.33c1.79 8.98 1.29 25.37 1.32 34.97l.08 56.48.03 140.6c-.07 23.91.6 46.88-.41 70.81-10.85-3.02-16.397-4.15-25.992-10.05-21.481-21.32-11.389-60.71-7.326-87.57l12.618-80.67c5.854-37.54 11.12-88.56 19.68-124.57m17.52-.6c2.85 12.79 5.41 25.65 7.68 38.56 7.62 45.38 14.52 90.88 20.71 136.47 3.2 22.37 7.22 44.16 8.51 66.76 1.18 20.74 1.93 31.87-10.51 49.31-7.87 8-14.68 9.35-25.07 12 .21-7.01.44-14.14.32-21.15-1.34-80.25-1.08-160.58-1.53-240.83-.07-13.39-1.83-27.93-.11-41.12"/><path d="M1053.14 1428.38c5.13-.15 13.63-.8 16.66 4.97 5.1 9.69-7.06 11.92-13.63 13.58-7.7.96-18.2 3.07-21.38-6.28.73-9.48 10.63-11.28 18.35-12.27m-66.85-.32c8.542-1.21 28.45 2.59 28.38 13.73-1.92 3.48-3.71 3.93-7.27 5.76-15.223 3.21-42.316-5.23-21.11-19.49"/><path fill="#FEFEFE" d="M1660.28 1273.85c10.9 9.91 32.1 35.11 45.25 40.45.57 4.68-1.79 16.78-2.41 22.2-1.32 11.64-1.46 19.18-.1 30.75-29.37 6.86-74.94 28.92-99 47.57-9.42 7.3-19.8 18.07-29.34 25.91-11.49 9.46-26.14 18.88-37 28.61-25.51 22.84-55.6 58.35-74.74 86.85a1638 1638 0 0 0-180.57-29.49c-5.17-52.5-33.72-95.17-82.12-117.14-9.58-3.9-30.74-10.43-41.09-11.65-13.22-1.56-20.66-1.74-34.27-4.7 6.45-17.56 4.6-39.76 3.61-58.49 6.2-2.46 16.52-4.48 23.65-7.02 25.7-9.15 36.52-23.94 51.88-44.82 13.26 8.7 17.74 21.91 32.11 31.02a145.8 145.8 0 0 0 109.26 18.25c39.99-8.93 61.96-24.61 83.67-58.82 15.13 15.28 21.94 29.77 41.73 42.04 65.58 40.68 147.36 20.76 189.48-41.52m-1272.343-1.2c1.792 1.01 9.276 11.26 10.91 13.29 29.459 36.63 63.093 51.55 109.817 49.16 32.042-1.64 55.213-4.38 81-27.32 7.462-6.64 21.505-24.57 28.347-28.12 35.8 51.44 83.74 63.16 143.35 55.62 7.137-.91 13.685-1.92 20.649-3.82a104.92 104.92 0 0 0 63.564-49.86c4.936 4.49 14.204 15.77 19.403 21.37 15.064 16.23 31.601 22.22 51.416 31.38-1.301 11.51-2.307 28.06-1.587 39.52.385 6.13 4.814 10.22 4.025 19.5-3.611 3.49-19.183 1.13-28.176 3.1-18.179 3.99-32.997 7.31-49.506 16.57a547 547 0 0 0-10.196 6.99c-41.463 29.2-55.827 54.47-64.274 103.62-23.479 3.73-47.916 5.76-71.474 9.74-37.124 6.26-73.504 14.01-110.208 22.22-26.425-39.43-49.306-65.95-87.388-95.07-33.245-25.42-62.017-55.73-100.976-73.38-8.613-3.91-49.897-18.16-52.612-22.31 1.611-9.27-3.01-43.08-3.861-55.01 23.27-12.16 28.78-19.22 47.777-37.19"/><path fill="#FEFEFE" d="M190.285 1137.25c23.457 11.85 64.198 42.82 78.501 64.71 33.056 50.59 61.368 121.38 50.023 181.99a350 350 0 0 1 18.839 5.12c55.58 16.69 82.53 35.71 125.95 72.56 27.407 23.25 54.841 43.65 78.292 71.95 23.863 28.79 39.739 61.26 57.547 93.67 28.943 52.69 54.778 107.61 83.175 160.32l.045.87-1.514.46c-8.261-2.85-23.843-10.9-31.954-15.01a799 799 0 0 1-96.174-56.87c-167.993-114.12-289.414-284.79-342.154-480.91-9.141-33.36-14.338-64.81-20.576-98.86m1664.865.81c2.14 3.72-1.83 23.12-2.79 28.45-40.41 223.46-177.19 431.78-366.38 557.38-37.72 25.04-79.56 49.14-121.22 67.05 4.22-11.02 11.19-22.78 16.87-33.21 50.45-92.69 86.21-199.22 168.99-269.39 15.22-12.9 33.14-22.16 47.24-36.23 34.38-35.84 82.35-54.6 129.28-68.88.22-27.74-6.45-40.15 3.29-68.17 25.45-73.18 52.31-139.06 124.72-177m-887.169 456.83.489.13c4.532 4.93 1.933 9.52.589 15.68-2.159 9.88-2.505 11.59.377 21.09-84.818.92-176.142 7.99-260.126 19.49-16.595 2.27-48.56 7.38-63.79 12.1-3.54-5.46-6.094-10.08-9.2-15.8-3.402-6.12-6.4-12.1-9.535-18.36 12.306-1.94 24.374-4.8 36.629-6.71 44.42-6.71 88.952-12.66 133.577-17.85 6.886 6.72 22.863 21.08 31.239 10.13 1.779-2.33 3.95-9.37 4.97-12.42 32.57-3.73 65.385-4.32 98.064-6.46 10.45-.69 27.401.45 36.717-1.02m110.179 1.58c4.81.73 35.49.32 43.06.51 32 .61 63.97 2.13 95.88 4.59l.32 1.11.55 1.83c.62 2.17 1.58 6.37 3.09 7.95 8.85 9.23 26.21-1.42 32.91-7.99 22.2 3.52 46.89 4.88 69.61 8.15 33.91 4.89 63.81 11.38 96.9 18.95-2.52 6.1-6.52 13.81-9.48 19.9-1.78 3.5-4.35 7.41-6.45 10.8-12.74-4.15-47.14-9.29-61.78-11.58-35.57-5.77-71.37-10.06-107.3-12.88-33.31-2.37-67.51-2.28-100.98-4.26-18.65-1.1-37.49.3-56.51-1.07 6.86-20.61-2.59-20.3-3.62-32.03 1.4-3.62.2-2.32 3.8-3.98m-310.432-49.04c2.823 2.74 4.554 11.34 6.098 15.57 2.744 7.51 5.813 14.3 9.144 21.54-29.954 4.59-60.888 6.68-91.029 12.09-24.589 4.42-49.668 5.93-73.924 13.05l-2.187-1.17a1139 1139 0 0 1-18.836-34.22c19.278-2.85 41.277-8.91 61.295-11.86 36.476-5.37 72.904-9.98 109.439-15m514.302 1.18c36.86 4.31 73.6 9.62 110.18 15.94 19.35 3.5 38.64 8.03 58.01 11.81-4.53 9.81-9.93 19.4-15.11 28.9-.86 1.3-1.78 2.44-2.73 3.68-3.22.78-38.66-6.31-44.28-7.48-37.96-7.85-78.1-11.15-115.87-17.73-.41-1.6 3.25-8.12 3.96-10.52 2.38-8.07 5.13-16.16 5.84-24.6m-368.785-9.07c7.282 1 37.816-.44 47.285-.59 3.289 10.61 5.479 13.45 12.256 22.06l-5.147 14c-21.639-.12-48.921 1.44-70.883 2.51-7.597.82-54.765 3.97-58.986 2.02-.685-4.89 9.74-27.21 12.218-33.33 15.586-2.62 30.573-3.73 46.309-4.59 5.655-.31 11.516-.48 16.948-2.08m176.665-.46c16.85.74 33.72 1.04 50.6 1.75 18.86.79 38.28 2.6 57.1 2.48 2.31 6.15 15.19 31.79 12.15 36.11-4.31 1.09-6 .45-10.54-.27l-118.01-3.96c-2.72-4.44-3.4-6.56-5.24-11.39 8.28-9.22 9.12-13.07 13.94-24.72m-111.237 146.08c34.227 11.06 57.107 10.45 90.537-.11.8 5.45 1.61 8.77.9 14.27-18.48 14.87-69.01 15.87-89.11 2.63-3.109-2.04-2.374-13.04-2.327-16.79m5.224-74.57c26.003 7.2 54.213 5.8 80.253-.31.03 5.99.42 12.2-2.09 17.65-17 8.98-61.8 12.32-76.761-1.55-1.205-6.59-1.88-9.09-1.402-15.79m-2.843 38.18c29.426 10.21 55.086 9 84.576.11 1.58 6.95 1.84 9.88 2.33 17-21.31 6.4-35.57 8.79-58.38 6.55-7.78-.77-23.904-2.63-28.511-9.5-2.426-3.62-.761-9.92-.015-14.16m3.966-75.28c17.07 5.74 40.37 8.88 58.1 5.45 6.34-1.23 12.18-3.29 18.94-4.53l.87.97c.38 4.69-.75 7.35-2.04 11.87-4.43 5.51-21.02 8.1-28.49 8.17-13.26.12-33.851 1.21-44.964-7.34-3.169-2.44-2.466-10.74-2.416-14.59m-82.025-68.22c18.34-.77 27.3 1.17 43.228 11.17-10.605 1.86-22.177 2.26-32.973 2.76-13.843.07-31.392-.65-44.468 2.3l.598-.49c9.956-7.91 20.916-13.63 33.615-15.74m232.325.09c15.47-1.96 29.29 5.87 41.17 14.76-10.14-.17-18.03-.82-28.53-.63-8.45-.15-35.77.64-41.03-3.03l.14-1.75c7.12-6.48 19.16-8.23 28.25-9.35m130.43-342.68c1.77 1.75 1.42 3.48 1.59 6l2.78-1.13c5.47 9.02 11.49 22.85 16.54 32.73-1.66 3.5-2.42 6.21-3.59 9.91l-.78.44c-5.04-2.32-2.63-10.85-4.86-15.68-1.36-2.95-2.69.1-3.56-1.8-2.97-6.58-8.44-17.05-11.61-23.16.38-3.5 1.4-4.1 3.49-7.31m57.2 1.72c.87-.53.29-.28 1.89-.3 5.16 8.22 9.92 16.75 13.45 26.24-.29 2.39-.54 4.38-.74 5.97-4.56-6.41-8.58-12.43-11.44-19.8-1.44-3.72-2.19-7.37-4.38-10.72zm-411.595 5.41c7.791 10.75-3.124 27.43-4.235 39.36-5.561-6.31 2.861-20.88 3.871-28.62.499-3.82.416-6.93.364-10.74m-48.119-255.457 2.065 1.71c-.702 6.18-4.757 26.708-9.221 30.111l-1.001-.472c1.858-5.217 7.122-25.963 8.157-31.349M1341.79 1192.8c4.87 6.13 7.84 21.68 10.22 30.42-11.24-17.18-6.69-12.93-10.22-30.42m-62.09-174.26 1.37-.81c.02 1.45 4.64 5.88 6.21 7.73l-.88 3.16-.63.6-1.5-.4c-3.47-3.83-3.84-4.05-5.73-8.73zm8.71 185.91c2.32 2.31 7.54 12.26 9.47 15.73-2.34-1.11-5.93-4.94-7.76-7.05-2.95-3.42-2.07-4.53-1.71-8.68m66.18 18.28c3.77 3.5 6.45 6.58 7.93 11.51-3.91-1.56-3.81-1.44-6.96-4.17-1.72-3.37-1.37-3.63-.97-7.34m.15-11.03c2.06 2.32 8.98 10.52 9.64 12.58-6.47-3.3-10.49-4.77-9.64-12.58"/></svg>