<svg xmlns="http://www.w3.org/2000/svg" preserveAspectRatio="none" style="display:block" viewBox="0 0 2048 1462"><path fill="#fefefe" d="M0 0h2048v1462H0z"/><path d="M1585.11 59.44c31.67-1.513 24.89 8.71 27.64 36.107 1.29 12.92 1.61 26.432 2.43 39.422 12.22-.102 47.18-2.514 55.84 3.157 5.35 10.541 3.77 159.392 4.62 185.188l16.04 392.32 12.41 403.686c1.15 39.59 1.17 79.22 2.2 118.68 1.24 39.29 2.87 78.57 4.89 117.82.19 4.28 1.26 14.78-2.01 18.04-9.81 9.8-41.42-.18-49.23 8.5-3.51 13.07-10.02 12.53-22.69 13.46-32.96 2.44-66.16 2.37-99.18 3.2-101 2.6-202.01 4.25-303.04 4.95h-146.45c-17.24.16-131.858 5.05-139.004 2.03-1.824-.77-3.549-1.65-5.561-1.78-12.664-.85-26.687.91-39.471 1.35-32.176.99-64.338 2.41-96.477 4.25-85.245 4.57-170.528 8.38-255.84 11.42-51.11 1.69-101.851 1.44-152.977 2.67-13.037-.04-34.605 5.69-35.699-12.33-.822-13.54-1.133-27.1-1.566-40.66-.682-23.24-1.718-46.46-3.107-69.67-4.251-82.43-10.258-166.23-13.192-248.58a41351 41351 0 0 1-11.468-606.215l-2.994-245.735c-.333-35.784.942-79.07-.659-114 13.229-10.185 22.602-7.258 38.813-7.34a1074 1074 0 0 0 49.137-1.023c30.006-1.517 60.899-4.358 90.834-5.314a7359 7359 0 0 1 129.792-2.741c25.511-.168 50.827.48 76.351.022l210.841-5.552c26.537-.603 53.648-1.685 80.217-2.058 2.07-.029 6.04.415 7.35 2.018 6.66 8.135 4.71 36.371 3.86 46.375 18.2-.853 42.32-4.26 60.82-6.443q52.77-6.486 105.66-12.025a6991 6991 0 0 1 400.87-33.198"/><path fill="#fefefe" d="M1594.83 74.46c1.73-.03 1.1-.04 2.83.771 2.98 16.388 5.07 61.846 6.18 79.696 4.67 75.19 4.57 151.052 6.77 226.581l18.88 623.072c2.58 70.53 5.91 141.03 10.01 211.49 2.37 33.99 4.31 68.01 5.82 102.04.77 17.55 2.15 45.16.77 62.23-13.69 1.59-32.21.84-46.56 1.33-32.94 1.95-67.36-.41-100.06 1.31-177.32 9.3-356.64-.79-533.721 9.3-3.451.28-8.865-.07-12.474-.19-3.044-32.45-3.203-81.01-4.087-114.49q-2.044-68.7-5.14-137.37a12320 12320 0 0 1-5.208-165.782 2472 2472 0 0 0-1.245-47.155c-.53-13.452-2.383-24.23 1.657-37.123 1.189-3.795-2.31-7.707-4.833-10.713l-21.87-746.011c21.716-4.343 51.215-3.895 73.847-5.996a12106 12106 0 0 0 104.894-10.211 10994 10994 0 0 1 503.54-42.779"/><path d="M1505.94 147.58c7.62-.601 30.98-3.501 31.89 8.989 5.8 79.332 6.43 158.726 8.41 238.206l5.91 217.731c.44 15.015 6.08 126.822.7 133.731-15.18 6.836-57.17 6.837-75.47 7.869-41.45 2.339-83.52 6.178-124.94 6.931-23.72 20.607-41.64 24.777-71.31 26.314-3.54.183-3.57 9.443-1.26 10.787 23.43 13.631 42.31 29.581 57.98 51.717 16.34-.008 36.46-1.928 53.21-2.497 19.1-.649 40.87-1.242 59.66-1.986 18.87-.748 88.25-8.293 102.05-2.833 8.56 14.964 9.6 203.781 10.18 233.211l3.35 135.06c.25 12.49 3.5 63.48-2.52 71.66-10.07 4.94-70.4 5.14-86.27 5.7-41.52 1.74-83.04 3.22-124.57 4.46-36.72.78-74.65.46-111.44.5-25.37-.03-217.26 6.36-228.23-3.31-4.35-11.27-7.03-112.85-7.78-133.36l-5.985-150.52c-.84-20.985-7.971-120.353-3.381-134.791 5.256-5.598 32.856-4.989 41.826-5.287-22.23-33.169-91.781-140.688-95.552-175.952-4.101-38.362 19.477-107.477 31.975-144.542 4.377-12.981 11.347-27.709 13.225-41.13 2.177-15.561-.356-41.9-.804-58.444l-3.665-133.768c-.298-14.257-4.74-103.179.015-109.132 11.041-6.443 98.236-14.945 117.346-17.116a7573 7573 0 0 1 405.45-38.198"/><path fill="#fefefe" d="M1516.69 161.414c3.93-.226 3.41-.777 6.45.745 1.27 14.989.68 38.561.75 54.27-.07 34.919.26 69.838 1.01 104.749l12.71 413.901c-19.74 2.269-43.33 2.68-63.45 3.771l-108.71 6.003c21.4-50.115 11.38-59.426 8.55-110.563-.79-14.465 2.46-44.357 3.65-60.265 2.15-28.809-.64-56.119-20.33-79.214-20.46-23.997-50.65-42.234-82.57-43.717-28.41-1.321-53.67 4.352-75.15 23.974-25.08 22.915-33.5 51.937-48.47 81.244-1.62 3.17-8.94 9.28-11.86 12.825-17.68 21.489-35.44 43.231-36.31 72.599-1.22 41.302 23.19 76.864 55.05 100.863 6.61 4.979 24.36 15.512 28.75 20.243.8 2.967.43 3.593-.26 6.718l-2.3.595c-13.63-3.099-32.26-19.497-44.33-27.551-33.06-22.066-73.4-49.59-97.49-81.891-1.64-2.598-3.29-5.729-4.82-8.442 5.28-33.319 8.58-67.329 15.11-100.617 2.8-14.32 4.09-28.431 9.39-42.045l-2.54-8.914c4-7.229 13.29-31.877 17.6-35.161 19.71-15.008 34.27-30.729 49.4-50.766 5.29-7.018 14.37-14.136 20.23-21.492 5.83-7.309.14-14.516-7.96-15.695-12.58-.732-24.18 6.246-33.75 13.807 3.81-14.006 33.62-77.974 18.08-87.367a7.2 7.2 0 0 0-5.77-.697c-10.09 3.167-22.77 35.067-28.41 45.845 1.32-5.869 20.42-74.985-7.03-66.99-7.27 2.118-13.13 33.64-15.61 44.411-.29-9.291 1.73-31.819-4.88-37.598-25.17-22.003-25.64 52.283-26.12 61.44-2.68-10.487-3.76-39.013-20.22-35.121-11.68 2.762-8.09 33.47-8.22 42.684-.37 27.516-2.42 61.411 6.32 87.688-3 12.671-6.83 24.551-10.72 36.952-1.14-16.208-1.27-35.121-1.8-51.632l-2.955-88.226-3.099-91.364c-.503-13.305-1.608-26.489-1.763-39.762 2.632-2.465 63.767-5.241 72.497-6.186 75.9-8.223 152.02-17.07 228.02-24.114l115.16-10.16c36.44-2.954 71.78-5.307 108.17-9.777m20.59 694.212c1.48.074.98.172 2.58 1.361.33 5.446-.48 10.702-.43 16.085.27 27.995 1.43 56.093 2.24 84.078.66 22.84-.23 45.74.42 68.51l3.76 159.9c.56 25.6 1.5 51.7 1.66 77.36.02 3.09-.94 4.11-2.72 6.12-5.27 1.59-30.99 1.88-38.21 2.02-61.6 1.15-123.54 6.11-185.12 6.1-1.47-27.34-4.67-54.9-5.83-82.07 15.82-7.4 28.58-18.69 34.17-35.43 21.83-65.41 24.04-233.547-4.03-294.332 64.76-3.473 126.34-4.116 191.51-9.702m-518.88 24.952c8.67-.522 17.79-.735 26.5-1.064 30.37 58.971 26.88 101.661 18.83 164.976a2931 2931 0 0 1-8.58 66.07l-20.2 148.22c-.24 2.3-.52 4.59-.85 6.88-.62 4.21-1.31 11.62-4.18 13.77-3.37.44-1.89.8-4.63-.88-3.59-5.96-2.7-28.42-3.07-36.78l-3.69-86.66a23186 23186 0 0 1-12.21-273.938z"/><path fill="#fefefe" d="M1084.17 297.539c8.44 9.601-10.31 53.616-9.13 68.173.23 2.881.81 5.692 3.26 7.503 1.58 1.169 3.72 1.503 5.66 1.137 10.61-1.994 27.62-47.144 34.52-57.742-4.89 25.922-19.11 54.191-25.91 83.655-14.2-1.446-27.1.99-38.78 10.375-2.07 1.66-2.31 3.873-2.34 6.356 1.87 2.625.66 1.855 3.63 2.57 7.02-3.031 7.79-4.527 13.71-8.732 7.21-5.116 20.69-1.977 28.89-.095 4.82-2.077 8.91-5.453 13.12-8.636 9.78-7.401 14.2-9.593 25.67-13.52-6.21 6.435-13.77 11.858-19.63 18.599-11.52 13.258-20.89 28.404-35.71 38.37-4.95 3.329-9.5 7.416-13.62 11.781-6.2 7.402-14.16 27.354-18.37 37.101-4.83-2.037-15.15-8.061-19.41-8.864-4.18-.787-8.66 3.412-14.87-.488l-.66-1.557c4.29-10.846 8.86-24.634 10.35-36.196 1.02-7.914-3.48-26.326-4.04-33.98-.83-11.26-2.87-74.744-.82-81.309 6.31 6.742.62 36.998 12.51 44.664 23.84 5.43 11.48-72.635 21.79-76.202 3.24 5.576-1.42 51.068.08 60.678.63 4.052 1.95 5.171 5.32 7.638 13.19 1.617 22.6-59.367 24.78-71.279m116.39 470.35c7.11 1.058 59.62 16.148 65.82 19.263 1.02 3.423.26 3.699-.85 7.526-11.1-.808-54.56-13.431-64.2-18.883-1.41-2.589-.83-4.611-.77-7.906M597.473 163.485c8.477-.087 15.555-3.061 21.389 1.871 2.063 4.709 3.513 130.538 4.072 148.219l18.944 694.555 5.187 188.78c2.257 70.25 4.89 135.6 5.243 205.95-29.173.17-63.355 2.58-92.824 3.8-37.899 1.29-75.81 2.2-113.728 2.72-10.588.65-21.156.59-31.763.65.673-11.92-1.477-34.75-1.915-47.81-1.053-31.36-2.87-62.89-3.822-94.28l-6.305-298.441-9.807-554.114c-1.224-80.339.673-166.514-2.381-246.25a1037 1037 0 0 1 88.818-5.094c39.197-.45 79.766 1.028 118.892-.556"/><path d="M510.29 224.554c16.273-.894 42.779-2.157 58.162 2.215 6.625 21.87 6.513 67.199 6.896 90.827l.816 130.168c.965 77.322 6.23 153.608 8.872 231.15.512 15.04 6.073 86.997.753 100.195-2.16 5.357-63.708 8.251-74.289 8.991-10.159.988-40.501 3.066-48.204-1.511-3.648-4.591-5.562-10.854-6.367-16.612-1.312-9.387-1.458-19.487-2.069-28.984-2.056-31.963-2.374-64.049-3.892-96.042-2.055-43.292-22.143-399.633-11.576-413.178 9.547-5.099 57.294-6.465 70.898-7.219"/><path fill="#fefefe" d="M544.207 239.437c4.311-.13 8.542.048 12.851.174.352 36.083 2.518 72.474 2.218 108.509-.16 46.979-3.589 95.433-.446 142.323 6.152 91.766 5.797 184.258 11.171 275.953-20.576 3.347-43.719 3.126-64.631 4.755-9.865.769-18.6.466-28.393 2.583-3.154-1.544-3.082-4.604-3.227-7.85-1.812-40.417-2.807-80.981-4.718-121.385l-9.885-203.036c-2.683-66.047-4.235-133.952-8.266-199.775 29.916-.456 63.684-.48 93.326-2.251"/><path d="M519.619 867.344c15.545-1.124 43.571-2.399 57.967 1.669 3.047.861 5.833 1.922 7.305 4.915 6.691 13.607 6.151 39.03 6.822 54.303 2.354 53.499-.809 107.419.076 160.989.557 33.69 13.164 243.73 6.796 261.05-6.595 6.71-48.239 6.4-59.834 6.8-16.312.74-39.553 2.37-55.385 1.69-2.593-2.27-5.554-5.52-7.999-8.05-3.538-21.5-3.783-53.06-4.771-75.04a9646 9646 0 0 1-5.22-118.89l-4.857-141.21c-.655-18.939-4.22-126.643 1.45-138.375 8.527-7.629 44.826-8.997 57.65-9.851"/><path fill="#fefefe" d="M524.362 883.589c12.753-1.063 36.952-.894 49.561-.27l5.206 307.011c.668 31.48 1.577 62.95 2.727 94.42.582 16.65.602 39 3.28 54.93-13.605 1.7-37.046 2.17-50.96 2.38-1.968.82-38.638 1.86-43.331 2.06-.914-12.81-.738-29.73-1.277-43.05l-4.035-94.37-8.54-194.06c-1.764-39.83-1.823-88.647-6.778-127.4 17.91-1.696 36.134-1.237 54.147-1.651"/><path d="M425.177 759.339c17.852-1.869 20.849 18.409 20.85 31.635.003 17.626.029 28.561-18.758 34.874-12.741-.045-19.214-6.534-20.752-18.994-2.102-17.029-4.494-45.198 18.66-47.515"/><path fill="#fefefe" d="M428.057 772.19c7.335 2.883 5.669 27.011 3.458 33.221-1.812 5.09-3.195 6.213-7.791 8.482-4.281-6.478-6.193-30.637-2.876-37.998 1.222-2.712 4.672-3.027 7.209-3.705M723.28 994.372a692 692 0 0 1 12.739 5.808c34.936 16.41 60.073 31.7 87.596 58.82 8.059 7.94 16.306 16.11 24.254 24.27 3.749 4.5 19.511 13.02 20.749 18.56 6.368 28.48 3.115 59.09 9.169 87.83 3.19 15.15 9.97 21.47 22.252 29.49l.74 20.07c-6.09-2.48-68.946-28.58-68.954-31.04-.047-14.36-30.809-122.59-40.311-122.28-1.742 2.92-1.894 5.83-1.064 9.18 10.745 43.26 20.105 85.89 27.287 129.92 3.742 21.41 6.601 44.84 10.281 66.7 3.417 20.29 9.518 52.63 10.692 72.23-10.232 2.66-20.741 1.53-30.77 1.81l-55.408 1.26c-26.595.53-53.228 2.28-79.863 2.94-2.292-42.68-2.311-90.16-3.902-133.44-2.408-65.53-6.735-135.71-6.981-200.97 11.231 14.77 44.09 45.03 59.397 19.67 10.084-16.71 5.809-42.52 2.097-60.828m895.44-849.127c14.55-.5 28.16-1.217 42.6.797 1.19 7.899 1.39 14.43 1.7 22.303 2.97 75.85 1.53 151.561 4.12 227.44l21.24 694.935c2.21 74.3 1.17 148.82 4.92 223.15.38 7.47 3.53 49.89 1.72 53.18l-3.77.78c-11.65.77-21.41 1.37-33.03.03-.27-56.06-4.82-111.52-7.89-167.41-10.37-189.24-10.49-378.996-15.79-568.446l-13.92-395.024c-1.03-29.704-2.85-59.37-3.85-89.055 0 0 1.77-2.439 1.95-2.68M343.694 102.483c1.636 1.273 7.444 8.319 9.337 10.423 6.336 7.043 12.016 13.226 19.015 19.623 1.369 84.844.263 169.638 1.178 254.383l10.643 542.33c3.377 161.138 5.22 319.358 12.41 480.558-3.074 2.33-13.66 1.32-18.106 1.18-.085-18.25-.335-36.68-1.072-54.91-5.419-134.13-12.274-268.17-15.98-402.386zm639.185-22.095c3.054-.065 2.428-.502 4.623.868-1.392 2.927-24.819 25.685-28.852 29.76-23.011-.08-45.495.854-68.461 1.129a8281 8281 0 0 0-221.585 4.489c-96.803 2.602-189.502 4.266-286.641 9.783l-5.928-9.704a611 611 0 0 1-21.017-23.99c54.271 1.757 105.16-5.308 157.589-5.5 111.923.226 223.844-1.272 335.721-4.493 45.381-.967 89.155.285 134.551-2.342"/><path fill="#fefefe" d="M685.031 736.553c7.91 5.243 26.941 38.011 28.656 47.024 7.949 41.777 14.929 29.39 46.857 43.252l1.249.552c-6.175 7.309-13.037 11.592-18.748 20.071 2.194 20.699 13.57 56.484 5.384 76.455-4.669 11.394-54.316 14.745-61.193 26.61 4.008 3.94 18.894 2.142 24.495 1.67-1.17 6.211-4.544 21.15-4.03 26.87 1.686 18.744 5.172 33.913 5.298 53.193.425 6.47-1.888 17.43-8.438 20.11-10.447-2.04-35.107-25.13-43.324-32.95-.519-28.382-1.213-57.461-2.102-85.862-1.047-33.447.207-75.41-2.871-108.277 5.461-9.809 9.794-19.495 14.979-29.337a1368 1368 0 0 0 15.223-9.853c4.472-.021 8.778.486 12.574-1.539 2.196-2.747 1.749-1.239 1.54-4.626-6.806-8.412-15.997-4.504-23.665-.483 4.935-16.895 7.928-25.086 8.116-42.88"/><path d="M715.095 876.722c5.121.456 19.316 6.871 25.086 9.193.807 2.1-1.214 5.47-2.284 8.168-10.336 3.486-28.192-3.006-22.802-17.361m-19.973-70.3c7.949 2.123 14.269 13.185 7.422 20.96-10.667-1.49-15.373-12.329-7.422-20.96"/><path fill="#fefefe" d="m895.867 145.854 2.15.274c1.136 1.546.995 1.804 1.064 3.694l12.494 394.289a12986 12986 0 0 0 5.478 238.463l1.674 60.448c.257 11.924.037 27.044 1.127 38.68-4.275 2.472-9.395 6.325-13.525 9.271-1.206-14.163-1.483-28.653-2.325-42.894-.665-11.247-2.573-22.626-3.11-33.622-2.722-55.719-4.217-111.54-6.202-167.261l-9.884-284.937-3.666-145.672c-.604-18.647-.485-41.746-2.083-59.941 5.69-4.832 10.234-7.387 16.808-10.792m-26.369-18.375c8.3-.349 16.584.039 24.888.299-21.348 14.864-22.397 16.67-48.848 17.015-74.211.969-148.55 3.386-222.754 4.28-70.042.844-139.914-2.038-209.844 3.942-6.662.579-18.243 4.281-22.753.181-1.853-3.791-1.253-9.768-1.182-14.235 52.005.738 104.26-4.303 156.018-5.499zm52.005 809.215c1.444 4.821 1.51 26.052 1.7 31.858l2.286 65.998 8.445 244.71 1.788 65.69c.203 6.9 2.511 25.55-.428 30.54-2.944.55-3.586-.74-6.763-2.77l-7.536-4.83c-1.921-23.59-1.67-50.71-2.391-74.6l-4.802-166.88-3.724-98.81c-.805-18.4-1.824-40.165-1.325-58.568.168-6.203 9.574-25.778 12.75-32.338"/><path fill="#fefefe" d="M888.19 867.613c1.59 3.755 2.538 37.152 2.939 43.686-3.815 7.094-6.856 11.501-6.885 19.684l1.201.97c9.246-2.913 23.936-29.547 36.54-36.414l1.021.603c.046 5.781-27.856 61.89-28.804 75.399-1.339 19.089.133 37.869.818 56.859 1.609 39.02 3.001 78.06 4.176 117.1-.516 15.51.804 39.98 1.076 56.19-2.328-2.44-7.133-7.14-7.788-10.13-4.187-19.14-5.224-42.11-7.084-61.56l-7.065-79.93c-5.211-54.399-15.173-132.272 9.855-182.457m19.738 512.867c2.93.15 14.174 7.49 18.072 9.6-70.765.17-142.632 6.98-213.388 9.58-8.509.31-16.862.46-25.371 1.1l-14.289.52.113-17.88c13.013.66 29.213.01 42.578-.11q39.745-.21 79.48-1.02c35.976-.63 77.715.2 112.805-1.79M1002.83 88.877c2.53 3.788.83 18.411.46 23.781-9.683 1.093-14.27 1.952-24.061.746l-1.486-.725c1.018-2.753 21.435-20.5 25.087-23.802"/></svg>