<svg xmlns="http://www.w3.org/2000/svg" preserveAspectRatio="xMidYMid meet" viewBox="0 0 2048 2048"><path d="M954.218 79.55c12.775 1.306 29.265-.412 42.716.05a788 788 0 0 1 111.956 10.777c229.65 39.261 433.74 169.559 566 361.364C1795.75 624 1855.46 857.619 1848.13 1068.21c-.32 8.95.08 22.26-1.4 30.79l-2.08.63c.26 2.77.47 5.54.65 8.31 1.55 24.15-8.79 83.02-13.26 107.19a966.5 966.5 0 0 1-176.62 404.49c-136.74 180.99-348.49 312.68-577.63 331.25-6.93.56-13.89.96-20.82 1.41-.68.1-1.35.19-2.03.29-39.34 2.94-75.924 1.64-114.897-1.73a829.6 829.6 0 0 1-342.653-106.38c-304.566-177.56-463.804-518.48-444.752-861.443 11.554-207.997 79.836-418.193 205.669-583.881a826.2 826.2 0 0 1 471.628-303.04c23.851-5.268 52.164-9.38 76.264-12.493 14.859-1.92 31.657-1.755 46.791-3.873z"/><path fill="#fefefe" d="m969.624 103.442.196-.034c31.25-.291 69.35 2.404 99.68 5.932a811.46 811.46 0 0 1 341.85 121.718c236.65 152.178 366.81 390.941 403.28 665.505 37.07 279.067-37.67 551.207-225.9 762.777-141.95 159.54-335.45 260.75-550.67 269.99-.39.08-.77.15-1.16.22-75.18 3.38-158.85-8.09-231.767-26.71-293.118-74.86-512.628-315.04-594.165-601.69a1012 1012 0 0 1-36.766-262.59c-.301-18.96.963-39.07 2.069-57.977 2.103-35.969 5.135-72.126 11.369-107.626a2679 2679 0 0 1 6.331-34.641l-1.439-2.415c4.847-13.856 7.429-27.18 10.778-41.459 31.02-132.269 84.68-260.066 165.563-369.74 27.521-37.318 60.458-74.368 94.312-106.075a795.3 795.3 0 0 1 389.491-202.374c36.827-7.197 79.343-10.927 116.948-12.811"/><path d="M955.695 141.506c190.435-6.811 384.505 68.663 527.655 192.664 13.75 11.914 34.79 29.516 46.89 42.047 74.54 76.02 129.88 160.641 173.16 257.523 48.27 108.043 71.64 219.688 80.14 337.685a902 902 0 0 1-128.47 534.775c-20.08 33.21-39.23 63.57-64.13 93.55-140.24 168.89-318.22 273.32-539.18 289.46-1.19.14-2.55.32-3.75.4-188.939 11.83-388.639-56.75-532.867-178.97-25.227-21.38-53.739-48.37-76.335-72.44-14.378-16.48-27.494-34.21-41.337-51.09-108.652-132.54-167.034-304.24-180.346-474.83a1053.6 1053.6 0 0 1 10.611-243.767c18.029-106.538 56.5-217.223 104.955-313.575 26.194-52.086 62.274-103.307 100.215-147.558a760 760 0 0 1 90.774-88.59c21.332-17.918 42.017-34.866 64.997-50.707a749 749 0 0 1 271.179-115.198c30.845-6.127 64.584-8.943 95.839-11.379"/><path fill="#fefefe" d="M971.229 199.462a598.6 598.6 0 0 1 123.061 9.046c200.28 36.626 376.85 153.584 488.71 323.702 95.94 143.38 135.95 304.987 143.26 475.99.34 8.14-3.14 22.67 1.16 28.24-.04.18-.95 3.88-1.02 4.03-3.33 7.49.7 14.43.22 22.76-2.97 50.82-6.75 102.43-18.42 152.12-1.36 5.76-11.04 15.7-15.16 20.37-26.15 29.67-44.13 65.16-62.05 100.11 1.48-15.07.76-28.33.51-43.13-1.01-60.61-14.44-118.11-32.42-175.74-1.49-4.74-4.07-13.53-8.48-15.82-12.37-.05-12.67 20-16.06 29.18-39.31 106.47-63.1 228.09-19.17 337.09 3.41 8.45 8.28 23.42 13.92 29.87-6.85 22.1-29.2 62.69-42.13 83.62-1.27 2.07-6.28 5.91-8.45 7.57-7.74-68.38-43.8-151.14-84.35-206.43-11.18-15.25-63.06-77.31-79.38-78.44-2.79-.19-4.06.24-6.23 1.93-1.14 2.03-1.65 3.72-1.46 6.09.45 5.7 2.8 12.05 4 17.71 4.47 21.14 9.54 41.84 15.12 62.71 10.1 37.82 18.9 75.73 31.56 112.84 6.26 18.38 14.29 36.65 22.91 54.04 4.3 8.67 9.44 17.27 14.67 25.42 3.47 5.41 35.07 50.08 35.62 52.93.1.54.11 1.11-.01 1.65-3.5 15.14-89.98 78.68-106.87 88.48.24-8.63-1.22-17.65-2.1-26.24-2.7-26.52-6.99-52.86-10.15-79.32-2.11-17.61-4.01-35.29-6.61-52.84-1.53-10.35-3.8-20.59-5.11-30.97-14.63-115.35-34.27-279.53-98.07-377.65-13.51-20.78-57.35-68.41-76.86-83.7-20.26-15.87-61.59-38.47-87.01-43.56-2.07-.42-2.26-.3-3.88-1.78-.67-3.51-1.21-4.98-.53-8.53 9.33-2.22 48.69 10.82 61.95 12.65 28.23 3.89 49.09 2.37 76.3-5.83 3-9.16 4.82-25.07 6.4-35.003 6.01-37.757 8.06-76.29 13.06-114.14 1.53-11.531 2.71-25.692 4.87-36.932 1.18-6.148 9.53-20.778 12.39-27.692 11.3-27.281 16.94-45.759 22.23-74.656 6.29-28.864 4.52-78.594-2.97-107.298-12.65-49.766-38.55-102.19-85.49-127.843-31.55-17.248-76.92-24.296-111.79-36.63-34.92-12.352-85.491-4.131-121.176 4.852-64.363 16.202-122.295 62.716-154.538 120.625-45.757 80.997-58.799 184.876-33.654 274.541 12.435 44.344 39.109 107.969 71.412 141.346 12.522 12.94 24.806 20.59 39.931 29.44-17.649 15.29-51.209 32.88-71.62 45.79-76.867 48.62-156.751 95.81-206.481 174.8-15.722 24.97-24.312 51.01-34.299 78.45-28.254 66.26-57.015 140.99-63.209 213.84-25.785-54.58-50.045-91.84-71.663-152.21 6.425-10.42 16.167-20.39 23.743-30.31 10.003-13.11 17.246-26.04 25.588-39.71 36.591-59.95 46.069-118.23 54.25-186.8 4.339-36.37 9.979-72.39 11.916-110.02-5.609-6.1-11.507-11.61-18.856-2.92-63.791 75.45-102.429 163.83-111.679 262.43-2.025 21.58-5.559 44.88-4.923 66.5-8.723-17.42-16.842-38.35-24.271-56.54-10.492-25.68-25.538-58.37-33.318-84.86 7.922-19.75 10.982-41.66 15.022-62.45 22.617-116.42-22.902-227.114-64.535-334.411 11.522-41.171 24.635-82.899 37.492-123.725 3.463-10.996 10.472-22.222 14.572-33.179 8.274-20.23 15.508-42.147 25.345-61.657 59.112-117.243 152.887-225.414 263.167-295.997 106.49-68.157 207.54-102.036 332.093-107.799"/><path d="M901.923 266.859c1.979.092 2.762.001 4.533 1.148a9.48 9.48 0 0 1 4.221 6.487c-2.352 8.689-37.1 26.447-46.748 32.706a1157 1157 0 0 0-103.066 74.34c-78.401 64.571-154.02 136.898-215.154 218.183-38.298 50.921-72.768 99.353-102.755 155.665a632 632 0 0 0-14.698 28.719c-4.403 9.258-10.15 25.248-18.503 30.358-8.025-1.248-11.77-5.597-8.19-13.624 27.643-61.987 62.672-117.308 102.192-172.173a1296.8 1296.8 0 0 1 296.454-297.427c22.832-16.716 76.213-53.367 101.714-64.382m698.537 394.938c1.89.11 3.84.309 5.68.794 2.09.552 3.45 1.786 4.32 3.775 1.46 3.38-.41 50.624-.54 58.867-.39 24.53-2.37 48.554-4.03 72.985-1.75 25.725-3.05 51.52-7.47 76.976-3.9 22.428-10.54 44.512-15.55 66.725-9.01 39.891-18.55 77.621-33.12 115.951-4.42 11.64-9.05 23.39-14.48 34.61-6.87 14.19-14.56 27.7-20.48 42.35-2.93 4.7-5.72 7.2-11.41 5.96-10.73-9.05 16.46-51.91 21.74-63.61a465 465 0 0 0 16.81-41.38c17.82-50.526 29.07-110.167 41.72-162.669 6.65-27.589 5.3-62.761 8.58-91.225 2.62-22.795 3.82-45.916 4.13-68.855.46-4.62-.28-10.392.23-14.88 1.26-11.075-2.99-27.716 3.87-36.374"/><path fill="#fefefe" d="M1083.64 1114.77c6.02 6.26 22.16 78.08 25.07 90.99.15.66.04 10.11.14 12.24 4.32 3.27 4.22 4.29 3.66 9.38-1.51 13.69 1.97 29.19 3.81 42.99 4.03 31.34 8.83 62.58 14.4 93.68 1.39 7.88 3.4 15.04 5.08 22.77 1.01 4.61.33 14.74 1.34 19.33 4.54 20.49 8.34 40.8 13.33 61.22 1.95 7.95 1.99 19.87 4 28.63 2.17 9.51 3.51 19.74 5.61 29.35 1.64 7.51 5.99 15.04 6.43 22.49.54 9.04 2.65 19.27 4.08 28.43 2.24 14.41 4.22 29.37 6.95 43.62 1.44 7.54 5.22 16.79 6.58 24.79 3.63 21.41 6.5 43.33 10.42 64.64 2.88 15.65 8.38 32.28 11.46 48.12 3.56 18.25 2.25 24.43 9.04 42.04-7.92 5.29-18.93 7.86-28.01 10.83-38.24 12.64-77.48 18.77-117.49 22.3-10.8.96-22.44-.25-32.75.86-3.54-.39-6.87-.6-10.44-.45l-1.67.07c-.77-.54-1.53-1.08-2.29-1.63-6.97-34.19-6.86-71.89-12.48-106.5-1.39-8.61-3.49-13.41-5.62-18.86 5.38-22.14-1.74-40.86-4.26-62.91-1.041-9.1.21-18.69-1.1-27.72-2.132-14.67-4.93-29.08-5.731-43.92-.196-2.2-3.277-6.92-3.355-8.81-1.719-38.01-8.214-76.38-14.06-114-4.717-23.39-3.061-47.78-6.141-71.32-7.476-57.15-8.79-114.62-19.375-171.43-3.668-19.69-9.88-36.68-16.298-55.38 25.569 12.67 48.247 23.64 76.57 29.52 35.08 7.29 68.97-33.62 73.1-65.36m131.83-452.217c8.15 7.47 16.24 94.073 9.66 102.657-9.26.171-22.4-7.044-32.12-5.884-7.28.868-34.06.637-32.9 12.436.68 6.867 9.42 7.33 15.31 6.189 20.05-3.882 32.59-1.849 49.97 8.288-1.38 34.375-10.39 79.426-20.42 112.266-11.87 38.856-48.88 92.422-90.63 102.925-44.72 11.24-103.34-7.699-142.611-29.495-1.058-2.219-1.356-3.493-1.325-5.998.483-39.238 3.78-79.315 1.505-118.36 43.011-33.826 65.101-72.995 97.511-114.596-6.21 19.335-10.45 32.014-23.02 48.7-5.03 6.684-16.65 14.599-19.07 21.771.56 3.74-.28 2.213 2.68 4.689 8.38 1.979 21.84-7.646 30.87-9.732 13.74-3.172 28.08-5.88 41.31-10.74 8.64-3.247 17-7.205 24.98-11.833 38.18-22.34 76.94-70.584 88.3-113.283"/><path d="M1123.99 805.794c14.02-.345 12.56 8.492 15.95 19.342 9.17 29.371 20.83 58.47-10.8 78.791-4.45-.677-6.92-.811-9.67-4.787-.68-10.318 15.49-17.788 16-30.973.74-19.353-18.49-45.97-11.48-62.373m-26.63 116.871c3.6.195 11.88 7.443 17.64 8.478 8.36 1.502 21.92-.084 28.68 4.77 3.08 5.765-1.15 7.93-5.91 10.784-15.76 3.92-64.26-7.537-40.41-24.032m88.15-119.615c2.15-.108 7.94-.48 9.66.745 8.62 6.151 4 18.774-.34 25.12-4.48.47-7.89.912-11.74-1.928a9.8 9.8 0 0 1-3.93-6.729c-.88-6.8 2.61-12.062 6.35-17.208m-127.19 24.106c10.82 2.982 10.88 22.318-2.38 27.238-5.41-2.146-8.78-4.3-9.8-10.366-1.77-10.45 3.01-15.111 12.18-16.872"/><path fill="#fefefe" d="M970.322 989.275c8.176 3.35 20.683 10.765 29.958 14.885 21.05 9.34 35.82 10.78 57.29 14.45 1.79 24.28 7.6 43.75 15.84 66.51-1.88 10.11-2.67 20.24-6.03 30-5.72 16.6-17.74 37.36-33.9 45.46-16.8 8.42-38.867-2.14-55.727-8.17a817 817 0 0 1-49.281-21.4c-13.917-24.67-21.846-50.15-43.462-70.52-1.772-1.67-1.921-3.81-1.577-6 3.331-1.81 3.82-3.15 6.449-5.7 5.275.54 12.602 4.77 18.097 6.75 11.502 5.44 61.329 19.06 61.761-4.31.326-17.6 1.122-44.03.582-61.955m618.998 145.455c25.43 104.65 43.18 178.92 6.81 286.45-4.69 13.88-12.49 42-18.37 53.89-.2 1.09.03.47-1.13 1.65-2.86-2.23-8.43-15.57-9.91-19.54-36.6-98.13-17.53-204.07 15.2-300.28 2.54-7.46 4.11-14.81 7.4-22.17M293.005 855.456c3.666 3.008 17.615 45.358 20.278 52.192 35.124 90.13 52.132 187.832 25.837 282.692-.695 2.51-.671 4.04-1.75 7.08-5.093-14.8-11.103-27.91-16.431-42.27-5.809-16.59-10.66-33.15-16.087-49.9-13.103-39.2-24.155-78.46-27.405-119.853-.31-14.979.764-31.994 2.757-46.868 3.406-25.415 5.406-59.068 12.801-83.073M1367.19 1330.56c6.96 4.22 31.54 33.34 37.61 40.4 47.7 55.47 76.94 120.86 92.65 191.88 2.86 12.92 4.53 26.02 7.75 39.04-3.4 6.72-4.64 8.53-9.27 14.5-2.47 2.82-6.59 8.57-9.62 9.78-11.35-5.29-50.13-71.62-56.69-85.71-19.51-41.88-31.89-89.54-42.9-134.38-6.18-25.17-13.66-50.27-19.53-75.51m-846.748-269.74.942 1.48a2093 2093 0 0 1-12.935 110.37c-3.082 21.11-6.798 49.74-13.165 70.11-13.907 44.47-36.792 86.57-64.38 124.04-2.333 3.17-7.43 11.85-9.534 13l-.396-2.07c5.562-88.22 12.459-179.13 59.866-256.51 12.599-20.56 24.313-41.53 39.602-60.42m-235.956 137.76c15.29 10.58 27.448 24.89 47.389 37.88 19.9 50.33 41.516 99.96 64.812 148.81-.295-.13-.601-.25-.885-.41-5.614-3.12-30.742-27.98-37.736-34.51-13.388-12.51-30.045-24.68-41.477-38.84-14.656-18.15-24.068-87.38-32.103-112.93m74.154 218.11c16.785 5.15 35.274 8.75 52.819 8.05 4.319 9.19 8.194 20.09 12.654 29.03 18.221 36.54 36.691 77.65 58.908 111.72-9.372-2.1-47.51-25.6-54.052-33.61-25.478-31.21-55.872-78.32-70.329-115.19m1337.58-162.02c4.81 14.31-60.23 158.68-73.09 176.84-1 1.42-12.49 10.23-15.39 13.01l-.98.95c-1-4.44 8.48-28.9 10.85-35.14 19.91-52.48 44-111.03 78.61-155.66m-412.03 208.55c3.56 1.68 5.09 4.26 5.57 8.06 11.72 93.34 22.58 186.86 34.39 280.18.23 1.83-3.89 4.04-5.25 4.99-8.72-16.07-13.98-78.79-16.69-100.27-5.84-42.96-11.11-85.98-15.81-129.08l-4.9-40.96c-.66-5.5-1.46-11.89-1.93-17.47-.2-2.28 2.75-3.93 4.62-5.45m-616.695 36.24c9.057 4.57 9.775 40.79 10.977 51.37 3.91 38.62 7.021 77.47 10.196 116.17 2.506 30.55 8.439 62.98 9.815 93.34l-1.245.82c-3.607-2.7-6.578-4.27-10.541-7.46-2.968-20.13-3.287-41.36-5.9-61.42-7.695-59.07-11.725-118.58-16.653-177.93-.586-7.06.647-8.57 3.351-14.89m-118.005-86.63.982 1.57c-2.81 11.93-2.629 27.72-4.067 40.01-3.436 29.39-4.799 56.34-5.518 85.85-5.515 7.43-16.589 16.7-23.737 22.71-.646.4-2.645 1.4-3.376 1.78l-1.138-.99c3.033-40.95 22.89-112.09 36.854-150.93m-222.989-67.21c6.956 2.54 41.861 35.87 49.372 41.98 5.689 4.63 20.107 16.48 25.817 21.51-14.034.52-39.134-4.67-52.642-9.49-7.702-16.99-15.299-38.94-22.547-54m-49.752-216.08c2.056 2.37 5.62 8.09 8.146 11.32 10.194 13.02 17.473 21.15 24.635 35.92 5.497 11.34 9.076 23.85 13.979 34.2l.548 1.14c-3.484-1.33-15.138-10.87-18.534-13.92-27.696-24.85-26.539-33.59-28.774-68.66m261.276 433.2c6.274 5.31.027 57.57 2.094 72.17-2.733-4.35-4.363-7.73-6.618-12.29-6.89-12.78-14.549-22.96-20.379-36.93 5.394-3.3 19.265-17.5 24.903-22.95m-82.359 7.18c4.818 1.8 34.421 18.74 38.847 21.91 5.296 11.63 18.342 38.49 25.104 48.53-7.496-2.49-56.607-61.01-63.951-70.44m-182.212-507.1c2.737 2.5 17.707 56.01 19.513 63.41-3.352-3.12-12.033-14.38-15.757-18.82-2.661-11.01-3.634-33.07-3.756-44.59m1336.886 397.21c.59 7.35-17.28 30.85-22.49 36.68-5.45-12.31 15.15-29.46 22.49-36.68"/></svg>