<svg xmlns="http://www.w3.org/2000/svg" preserveAspectRatio="xMidYMid meet" viewBox="0 0 2048 1462"><path d="M0 0h2048v1462H0z"/><path fill="#fefefe" d="M0 0h1717.85c.52 16.152 1.19 32.299 1.98 48.44.33 7.797.16 19.15 1.38 26.441a43571 43571 0 0 1-912.613 29.599L449 109.849q-56.588.332-113.176-.015c-16.692.006-37.34-.498-53.687.371-.716-13.875-2.213-87.225-6.218-94.047-4.179-3.243-7.333-2.963-10.334 1.721-1.719 8.424 1.799 78.01 2.258 91.98-19.036.111-142.153 4.823-155.71 10.92-4.886 5.075-3.221 43.379-3.187 53.287q.028 38.655.512 77.306c.964 50.622.42 99.978.7 150.481l2.831 316.022 1.441 116.051c.259 16.548.395 33.286.738 49.609.196 9.314 5.013 14.728 14.321 14.668 18.093-.117 41.156 1.132 58.99.326l.603-.031c6.954 20.155 12.547 35.726 22.64 54.409 8.632 15.98 29.629 46.528 34.244 63.313 2.966 10.79 5.732 49.71 6.201 62.61l-12.098 1.53c-3.441-39.46-17.51-97.852-49.103-124.308a90.1 90.1 0 0 0-36.861-18.531c-2.923 1.524-7.01 3.512-9.778 5.119-18.955 34.42 25.165 89.85 46.502 114.7 6.625 7.72 15.167 15.11 21.469 22.93-8.98.79-61.466-.48-65.688 5.58-5.846 8.4-4.686 37.18 4.786 46.71l4.601.48c1.445 2.04.745 20.41 1.075 25.39 1.889 28.47 3.115 63.58 8.052 91.18-21.401.32-43.363-.1-64.583 1.99-4.924.48-8.869 9.78-8.622 13.91.977 16.38 39.275 10.5 50.466 10.36 28.347-.21 56.691-.77 85.024-1.69l194.064-3.85 986.247-18.39 377.11-5.82 109.46-1.82c14.75-.2 30.83 1.29 45.37-.11 3.26-.31 6.73-1.08 8.91-3.74 2.11-2.59 2.52-6.18 2.1-9.38-.49-3.81-2.32-7.53-5.4-9.89-7.1-5.46-59.69-1.61-71.89-1.46 6.38-22.82 6.93-66.71 9.52-91.18.71-6.69-.38-24.15 1.28-29.75 3.41-1.89 10.98-4.73 11.14-8.39.43-10.1.33-31.2-4.23-39.68-4.78-4.6-61.28-.25-73.04-.84 6.29-21.56 15.31-27.02 35.15-32.77 22.71-6.57 58.42-38.619 47.25-65.187-9.42-21.615-40.82-16.403-57.03-8.24a337 337 0 0 0-7.39 3.878c10.46-22.856 24.5-44.869 37.92-66.235 4.34-6.916 11.1-23.897 18.13-28.105 3.54-1.263 14.34-1.842 19.12-3.07-.46-41.583-5.45-93.188-8.14-135.13l-13.68-226.012-14.61-253.951c-2.68-50.411-4.96-100.907-8.41-151.284-.37-5.472-.27-7.88-3.51-12.665-9.24-4.217-108.33 3.422-129.21 2.623-.4-17.05-1.25-57.467-3.26-73.732H2048v1462H0z"/><path fill="#fefefe" d="M1721.78 101.445c1.49 1.541 2.66 52.978 4.19 61.056-27.93 28.086-58.26 54.85-85.57 83.888-12.2 12.975-23.6 22.607-34.6 37.313 10.36 4.024 41.34 23.287 53.24 29.732 35.77 20.009 70.88 38.55 108.62 54.544 36.11 15.303 27.61 15.741 50.11-16.139l33.88-47.81c-.01 7.834.88 15.918 1.28 23.776 7.14 138.306 16.92 276.451 24.23 414.741 1 18.951 2.87 38.362 2.94 57.278-26.71.043-42.08 19.093-57.26 38.336-2.13-36.508-4.83-60.901-12.05-96.652-6.45-31.949-6.13-47.558-21-77.909-23.17-47.289-62.52-65.542-109.77-81.496.56-10.447-1.57-37.178 1.17-44.835 2.62-3.146 5.48-3.188 9.46-4.616 9.37-1.737 8.58-15.25 13.21-18.989 12.34-9.959 13.12-10.229 6.74-27.128 11.1-13.426 6.06-14.009 5.05-29.537-1.1-16.945-2.3-20.897-17.45-28.635-2.45-19.687-15.88-28.701-34.73-28.398-13.17-17.999-26.7-22.95-46.12-9.975-17.39-10.258-29.74-4.585-40.86 10.593-32.21 8.85-20.84 16.308-28.6 44.861-1.99 7.355 12 23.006 17.31 28.664-.45 6.605-1.01 18.42-2.13 24.844-1.12 6.431-8.01 17.125-8.12 24.515-.15 9.576 10.6 6.597 11.82 10.597 3.93 12.901 2.97 27.808 11.52 39.58 4.52 6.215 10.96 4.804 17.12 10.278l.13 2.448c-3.97 4.042-15.13 10.458-20.34 14.016-7.94 5.411-12.67 9.283-19.71 15.826-50.18-36.48-69.45-96.213-94.87-150.045-6.35-16.274-17.58-34.588-21.56-51.308-3.35-14.048 1.08-66.421-12.49-73.973-11.57.062-11.3 23.981-11.92 33.119-4.44-13.405-17.17-54.673-28.16-60.932-11.31 1.074-2.15 42.446-1.13 50.85-3.21-7.659-17.8-43-26.52-40.766-5.91 10.229 3.38 39.214 6.03 51.837-4.32-7.426-13.01-27.168-21.4-29.141l-1.47 1.396c-3.94 15.745 23.33 87.592 29.38 106.277 21.06 64.353 40.54 132.17 70.28 193.058 16.44 33.661 53.93 80.462 83.99 102.725 1.55 10.254 1.64 24.357 2 35.028-36.89 8.842-69.13 33.362-77.68 71.763-16.3-19.817-49.52-44.618-75.48-45.592-24.18-.908-31.88-5.519-33.21 20.962-2.34 46.533 26.69 78.224 66.48 98.049 7.71 3.841 28.85 8.692 28.72 18.684-3.42-.975-12.52-7.277-15.69-9.322-42.04-27.37-72.93-3.554-93.82 34.545-17.07 31.144 1.15 24.042 21.81 23.611 24.34-.507 40.73-1.416 63.4-10.111 13.63 26.794 19.48 42.334 28.74 71.154-11.62.55-69.52 1.23-74.82 6.23-3.51 8.8-1.08 29.22-.66 39.36.14 3.37 4.48 6.46 7.33 8.18l.97.58c1.71 10.97 2.68 26.06 3.68 37.37 2.37 26.66 4.48 51.9 8.41 78.4-19.88-.48-42.01.41-62.11.76l-87.66 1.07-377.969 6.97c-44.73.97-89.47 1.48-134.21 1.55-15.317.05-44.321 1.42-58.231-.81 7.551-21.17 10.963-59.27 12.156-81.88.724-13.73-.573-25.71 1.535-40.13 4.33-1.94 7.751-3.13 10.201-7.14 1.165-7.28.08-36.86-2.833-43.82-4.593-2.47-64.626-.33-75.538-.36 1.856-7.8 5.577-22.51 9.402-29.23 1.238-.55 30.431 2.23 40.494-1.01 28.333-9.13 38.907-34.08 52.689-57.257 20.493.628 42.444-2.304 62.774-1.393 2.666.12 20.82 7.811 25.741 9.228 10.929 3.148 22.268 5.911 33.238 9.004 6.149 34.288 8.152 70.868 13.783 105.408.987 6.06 4.182 54.26 9.133 55.99 13.825 4.81 117.697-3.32 124.081 1.13.893 3.76.937 6.14-1.422 9.24-13.709-.65-27.77.52-41.775.59-10.176.05-16.682 1.19-17.35 13.72-.212 3.97.699 7.42 3.397 10.53 2.524 2.92 6.325 2.36 9.837 2.62 34.763-.3 69.687-1.43 104.437-1.71l67.46-1.02c9.46-.13 36.3 2.08 42.37-3.73 2.28-4.59 2.4-8.72 1.51-13.63-3.27-18.15-38.26-2.9-49.68-11.05-1.67-2.87-1.48-3.17-1.18-6.65 5.52-7.07 95.25 3.74 111.27-5.78 5.82-7.47 11.95-145.86 15.02-168.532 20.87-4.874 42.58-11.016 56.99-28.272 22.5-27.665-3.67-71.299-13.62-100.002-17.43-50.234-31.63-96.841-59.7-142.178-17.4-28.09-27.37-45.634-54.49-66.93-3.42-2.411-6.58-5.5-9.66-8.352 1.39-21.419 3.51-46.264-12.81-60.847-5.12-4.578-12.07-15.68-14.48-22.098-4.99-13.324-3.46-30.955-7.65-44.774-2.67-10.533-16.28-20.749-20.24-29.535-15.41-34.176-24.37-66.974-65.16-78.926-21.17-6.203-49.998-3.81-69.777 7.434-20.291 11.536-39.998 29.769-44.331 53.851-1.798 9.533-2.886 21.216-6.395 29.907-5.424 13.432-16.291 26.542-17.461 41.422-1.366 17.383 8.364 26.561 4.398 44.385-3.976 17.871-17.751 25.758-22.323 40.781-5.117 16.809 5.54 34.461 13.499 48.435-36.578 36.223-66.769 95.472-87.612 142.61-17.437 39.433-44.312 78.935-49.661 121.695-1.574 12.583 4.743 23.742 13.139 32.564-8.779.498-31.666 2.311-39.319 1.407-2.907-6.709 20.932-31.489-7.087-37.655-12.332-2.714-23.038-5.543-35.96-6.187q2.265-4.158 4.324-8.423c7.914-16.539 15.569-55.026 9.994-72.575-6.6-20.78-51.091-.655-63.853 4.972l.101-1.22c1.858-24.806-8.246-64.603-23.871-84.661-7.469-9.588-18.187-7.865-25.971.667-21.104 23.134-36.779 45.757-36.642 78.45q-1.023-.609-2.057-1.203c-23.62-13.623-41.328-15.192-68.099-15.03-10.505.063-18.792-.226-29.164 2.535 14.765-15.67 32.045-33.485 45.1-50.388 31.983-41.406 52.943-101.61 68.552-151.747a980 980 0 0 0 9.766-32.899c2.257-8.431 5.55-23.417 9.156-31.323 11.419-25.039 32.371-48.023 42.178-73.8 1.076-2.828-.156-4.406-1.349-6.487-8.47-4.702-17.119 11.736-21.471 18.044 2.557-8.761 26.437-46.67 11.579-47.933-11.017 5.091-16.839 22.131-24.524 30.672l-.65.709c4.022-12.209 11.565-25.508 14.101-38.13.567-2.82-.691-3.871-2.168-5.485-5.3-1.438-8.507 1.484-11.401 5.737-6.681 9.82-12.625 21.285-18.281 31.683 1.96-9.609 12.723-33.059 6.2-39.769-.999-.04-1.047-.109-2.166.224-8.705 2.587-37.096 56.387-44.313 67.873-.587-8.17-2.104-23.855-9.364-28.766-2.107-.17-3.361-.421-5.057 1.055-7.904 6.874-2.916 44.075-4.55 55.237-4.028 27.521-59.312 122.891-77.566 148.9-12.602 17.956-26.681 35.827-44.305 48.975-.618-6.017-1.713-11.875-2.749-17.829 30.126-6.159 23.533-17.65 30.642-43.391 28.486-5.19 4.241-26.406 2.109-41.297-1.041-7.273-.344-15.672-.042-23.083 25.49-13.743 30.287-36.773 12.689-60.108-19.04-25.247-50.847-16.66-77.194-16.663-25.423-.003-49.856-7.507-72.468 9.947-9.076 7.005-11.475 19.045-16.185 28.898-2.494 4.842-7.591 9.919-9.192 15.157-7.838 25.641-.149 54.694 11.07 78.206 8.12 17.016 18.114 37.374 29.891 51.864l-4.18 25.581c-42.337 11.698-56.67 34.77-67.534 75.928-7.905-15.955-20.803-35.156-37.303-43.16-9.747-4.729-18.962-2.646-22.534 8.216-9.927 30.179 7.643 70.756 19.824 97.793-12.724 1.044-22.714 1.22-35.514 1.228-3.059-86.617-2.861-176.597-3.439-263.304l-3.383-381.577c-.358-28.178.434-55.797-.233-84.002 39.532-1.709 95.771-7.537 133.926-6.665.537 24.135 2.268 50.598 3.693 74.818a3351 3351 0 0 0-84.635 83.393c-6.549 6.65-31.157 31.689-34.908 38.124.552 2.755 2.116 4.416 4.102 6.298 17.545 16.621 158.669 91.089 179.445 90.115 1.791-.084 4.64-3.202 5.887-4.551 9.857-10.664 85.753-116.603 84.991-122.505-.755-5.849-18.736-11.944-23.863-14.458-42.397-20.791-80.962-50.462-117.221-80.327a1469 1469 0 0 1-2.714-71.508c13.81-.723 33.484-.106 47.936-.193l107.834-.5 274.182-4.089a67612 67612 0 0 0 1007.931-30.418"/><path fill="#fefefe" d="M1192.46 895.547c8.84-.495 17.16-.536 26.01-.583a11696 11696 0 0 1-16.87 244.656c-75.39-.19-154.8 2.72-230.586 4q-33.396.66-66.797.96c-6.881.05-33.14 1.32-37.879-1.83-.217-14.97-6.081-50.61-7.956-67.14-6.517-57.44-14.837-113.646-19.504-171.405a9519 9519 0 0 1 250.872-7.198c31.2-.624 72.83.324 102.71-1.46m524.75-30.118c2.25-.25 1.14-.408 3.34.842 13.51 45.182 35.35 81.802 45.37 128.486-12.99-26.574-27.23-54.347-54.64-68.326-14.76-7.531-22.42-8.36-28.56 7.601 7.5 59.554 34.47 85.838 81.4 117.688-17.81.03-73.85 3.25-89.15 8.68 1.01 13.1.79 26.77 2.51 39.78.56 4.31 2.44 4.69 5.78 6.96 2.09 4.04 3.34 29.4 3.88 36.12 2.16 26.82 5.83 53.49 11 79.9-43.41-.61-88.64 2.48-131.83 1.3 3.59-16.36 6.97-59.93 6.89-77.21-.23-13.43 2.39-28.58.64-41.67l9.05-4.69c-.09-8.26-.63-39.37-2.93-45.73-2.38-1.79-6.1-2.56-9.06-2.5-25.28.53-50.48 3.19-75.8 3.51 2.77-10.86 7.51-22.29 11.83-32.59 2.79 2.92 5.85 5.82 8.57 8.72 28.99 30.76 66.21 1.54 90.06-20.17 5.37-4.89 14.14-11.21 15.11-19.071-.72-3.046-2.2-5.591-4.93-7.198-22.95-13.506-52.5-22.115-78.41-18.547 19.02-18.544 33.89-40.881 47.46-63.767 1.4-2.361.31-3.981-.73-5.978-2.13-1.66-5.08-3.324-7.79-3.675-26.3-3.405-59.81-4.185-82.81 10.934l-.61-.868c8.32-8.103 28.41-8.837 44.68-27.974 20.44-2.96 49.95-3.727 71.1-4.786zM424.225 895.522l13.765-.747a148 148 0 0 0-2.847 6.077c-11.638 26.64-4.762 45.927 4.997 71.224-43.345 53.084 41.904 84.254 82.305 70.074 17.988-6.31 15.599-14.48 36.583-2.22 2.958 3.95 5.844 17.87 6.542 23.02-3.36 6.8-79.957.1-92.331 5.36-1.607.68-2.623 1.95-3.141 3.6-1.768 5.65-2.092 36.99.366 42.39 2.499 5.48 10.186 2.41 10.894 9.12 1.064 10.08-.278 21.13-.477 31.32-.51 26.03.514 65.58 13.948 88.09-18.652.01-142.546 5.27-150.476 2.55-.587-4.21 2.015-19.97 2.49-25.73 1.673-20.31 5.151-43.17 5.126-63.4.015-5.74.335-26.33 3.23-30.18 3.557-.29 5.756 0 8.28-2.36 3.597-7.34 2.051-27.58.948-36.09-.827-6.38-3.514-8.15-8.269-11.52-18.184-.6-36.949-.31-55.181-.26 24.23-31.12 58.046-58.17 64.688-101.104 1.035-4.542.019-22.43-3.87-24.959-34.409-22.38-81.21 47.315-84.028 74.733-1.866 18.16-1.278 36.51-1.517 51.79-3.148 2.05-6.89 1.66-10.825 1.79-1.412-11.18-6.511-44.5-3.822-53.43 12.657-42.04 44.351-89.216 62.922-127.616 30.995.376 68.102-1.105 99.7-1.522M280.761 223.64c14.733 8.097 39.182 29.763 54.802 40.16 24.48 16.295 46.64 28.667 72.097 43.221-17.701 31.401-53.422 79.575-75.304 109.296-6.341-3.111-18.244-7.155-25.332-9.866-36.926-16.398-73.19-34.175-107.781-55.052-9.688-5.847-19.32-12.281-29.161-17.779a2106 2106 0 0 1 110.679-109.98M1733 173.656c5.37 2.902 17.65 11.658 23.23 15.508l40.42 27.844c14.16 9.692 40.14 25.446 52.44 34.972.54 10.323 1.19 20.64 1.94 30.95-7.83 8.09-16.4 21.449-23.12 30.999l-36.1 51.202a2908 2908 0 0 1-33.6-14.141c-35.07-15.858-68.87-35.233-102.46-53.95-10.05-5.598-19.75-11.227-30.19-16.138 5.41-7.408 30.94-31.943 38.35-39.165a7672 7672 0 0 0 69.09-68.081"/><path fill="#fefefe" d="M653.55 1114.57c3.934-.41 5.807-.74 9.806-.1 8.418 12.51-6.165 104.93-10.939 122.79-14.129 1.14-34.121.76-48.716.84l-99.006-.09c-13.177-52.64-12.434-64.82-11.505-119.75 52.045-2.35 108.09-2.75 160.36-3.69m1213.97-16.09c2.61-.17 2.43-.2 4.73 1.06 2.67 14.85-7.5 103.25-10.51 120.52l-103.74 1.75c-8.18.18-41.51 2.09-47.36.74l-1.03-1.82c-.63-4.06-1.68-8.52-2.52-12.6-6.98-33.87-8.18-68.41-10.2-102.85 20.05-2.66 41.65-2.82 61.99-3.63 36.2-1.52 72.41-2.57 108.64-3.17m-325.84 5.98c2.9-.49 15.71-.12 19.36-.08.52 8.6-.51 27.88-.92 36.98-1.17 25.96-1.87 58.12-6.49 83.67-27.74.96-56.17.4-83.99.84-20.7.33-41.2 1.12-61.89 1.22-3.44-.03-7.2.18-9.76-1.92-.95-3.5-1.35-7.24-1.69-10.85-3.29-34.64-7.82-69.49-10.11-104.2 29.4-.22 59.61-2.6 89.11-3.41 21.86-.59 44.66-.63 66.38-2.25M321.905 1126.5c4.461-.66 14.57-.73 19.464-.9-1.459 25.87-5.142 97.67-12.551 120.28-43.231 1.48-94.117 3.77-137.157 3.08l-13.261.24c-6.042-29.88-7.499-87.69-8.778-118.18 47.473.28 104.134-3.05 152.283-4.52m703.735-678.709c1.1 1.164.32.174.92 1.366 10.69 21.418 15.1 32.689 33.69 47.634 2.98-.728 7.24-1.854 10.16-1.081 7.91 2.093 5.33 18.64 3.05 23.067-4.62-1.666-3.06-12.487-10.59-10.786-3.92 5.199.43 21.492.39 28.865-.28 43.703-26.52 64.914-70.48 55.04-18.801-4.662-27.665-10.543-33.25-29.606-4.242-14.479-9.807-10.114-19.765-14.657-7.001-3.194-2.599-3.157-9.434-.094-7.106-17.4 8.688-9.148 15.162-13.351 1.438-4.284.386-5.49-.55-10.444 38.091-14.617 60.587-42.205 80.697-75.953"/><path d="M1027.46 546.776c4.3.515 4.06.556 6.8 2.928 2.32 6.64-3.91 12.852-8.91 16.498-7.39 5.38-12.78 5.44-21.35 3.986-3.07-1.72-8.97-5.098-7.23-8.954 15.75-7.005 13.41 7.802 30.69-14.458m-25.74-40.611c6.73 1.266 6.44 3.973 8.46 10.094 2.35 7.135 3.67 16.733 7.34 23.244 2.86 5.053 2.23 4.174.2 9.392-16.23 1.41-14.76-13.109-16.62-25.195-1.03-6.672-1.01-10.957.62-17.535m-21.331 12.677c3.457.419 4.661 1.859 5.837 4.818-1.332 9.487-10.184 12.913-18.781 12.131q-.725-.41-1.43-.853c-3.379-2.12-4.54-3.433-5.362-6.945 4.414-6.394 11.721-.409 19.736-9.151m64.841-16.916 1.44.469c1.13 1.388 2.69 2.635 2.14 4.383-3.29 10.461-9.84 13.444-19.06 12.45-3.08-3.012-5.04-5.309-3.77-9.48 6.02-3.923 10.41-1.754 18.12-7.044zm-19.5-17.877c6.12.055 16.76.882 14.54 9.88-3.11 1.366-2.37.8-6.68-.607l-2.11-.863c-4.15.561-8.47 1.526-11.81-.988l-.12-1.989c2.35-4.088 1.28-2.676 6.18-5.433"/><path fill="#fefefe" d="m1813.21 97.546 28-.935c1.57 45.931 5.9 93.721 6.77 139.303-13.96-10.468-33.62-22.591-48.55-32.428-19.59-13.751-40.23-27.342-60.06-40.885l-.19-1.024c-1.38-7.112-4.79-56.234-2.85-59.581 15.41-2.48 59.97-3.761 76.88-4.45M806.331 814.544c9.461.747 68.156 23.607 77.895 29.899-5.435 13.263-14.547 30.138-21.359 42.779-11.224-2.348-55.678-4.786-60.075 8.102l1.576 1.786c8.432 3.137 13.328 1.563 22.041.242-.805 14.613 1.756 32.183 3.482 46.997.241 9.572 2.308 25.77 3.26 35.788-20.718-6.894-40.562-8.18-59.463-22.265-34.101-25.413-.933-74.208 14.056-104.298a1390 1390 0 0 0 18.587-39.03M367.096 590.249c7.845.142 24.285 2.795 32.471 3.908-.975 26.657-1.414 31.865 10.444 55.828-14.327 7.673-14.356 25.53-17.296 40.308-8.939 6.032-14.974 5.896-25.558 7.926-1.295 13.266 3.356 22.115.146 41.174-14.21 2.29-27.474 2.565-41.832 2.996-7.599.484-24.173-2.316-32.018-3.806 3.114-10.597 4.393-20.8 6.075-31.697 20.274-9.37 35.438-21.732 30.534-46.633-1.594-8.091-6.393-16.385-4.226-24.569 5.389-5.027 16.232 8.489 22.382 5.298 17.065-8.857-1.878-46.863 18.878-50.733m95.334 242.227c31.282-.145 68.041-1.917 84.954 30.914 7.101 13.784 13.118 36.725 13.89 52.415-11.228-10.814-48.485-47.766-63.855-45.714l-.205 1.756c2.882 5.31 13.282 13.132 18.345 17.336 16.915 14.391 31.751 30.741 48.644 44.825-9.56-1.907-19.609-3.795-29.4-4.318-22.478-1.2-39.178 1.135-58.824-12.145-24.085-16.281-34.344-40.086-36.745-68.56-.674-9.363.767-15.607 11.52-15.741 3.405-.043 8.154-.563 11.676-.768m785.3-5.253c1.67 1.787 8.16 22.164 9.5 25.901 19.85 55.031 50.59 99.844-30.33 114.624l1.31-25.026c1.59-7.596.5-18.963 1.84-26.345 7.92-43.408-6.38-33.954-42.12-33.028-3.85-10.975-10.32-23.528-14.64-35.152a3545 3545 0 0 1 74.44-20.974m108.07-4.658c6.66-.469 15.35-.536 21.91.65 35.98 6.505 71.86 43.267 78.61 78.763 1.52 8.042-.06 18.151-1.38 26.107-17.24-25.153-24-43.816-54.3-60.482-2.72-.645-2.59-.631-5.36-.271l-.88 1.847c1.44 4.112 16.87 16.249 21.35 22.079 11.29 14.683 18.4 23.981 25.72 40.956l-.96-.894c-7.72-7.052-8.81-5.982-18.57-9.758-40.71-15.748-75.16-50.838-68.25-97.691zM169.315 772.629c8.157 1.329 13.242 4.18 18.958 10.306 37.161 39.826 58.586 129.62 58.633 181.253-12.885-45.386-24.599-81.91-46.708-124.08-3.897-7.434-9.281-20.342-15.069-25.975l-.544 1.083c1.746 8.096 4.67 13.636 8.134 21.103 23.129 48.974 44.761 107.259 53.192 160.687-9.397-23.748-25.387-43.513-34.052-66.411-15.38-40.641-30.925-83.331-45.138-124.482-3.764-10.898-2.262-23.282 2.594-33.484m149.656 8.519c3.239.314 7.234.412 10.194 1.795 4.572 2.138 7.715 6.918 9.247 11.583 15.04 45.808-47.237 143.169-68.495 184.327 3.123-39.11 12.855-68.275 28.399-104.607 2.869-8.334 20.166-49.249 19.295-54.415l-1.5-.516c-7.293 5.323-39.182 94.992-43.453 108.64.034-14.49 3.809-56.467 7.474-69.706 6.037-21.81 19.18-65.119 38.839-77.101M1871.19 810.25c45.25-2.332-27.61 97.356-33.47 109.119-15.61 31.328-29.5 64.892-37.89 98.961-.55 2.26-1.53 3.24-3.29 4.49l-1.26-.82c-1.8-5.58.95-15.46 2.11-21.54a614.4 614.4 0 0 1 36.88-119.724c6.58-15.64 15.78-31.624 25.25-45.684-27.82 15.161-51.07 86.567-59.86 115.82-2.48 8.246-1.24 14.707-5.26 21.847-6.76-16.661 11.39-73.957 18.44-91.079 13.35-32.391 24.96-56.616 58.35-71.39m-812.34-222.226c3.05 3.804 9.97 20.528 18.09 30.834-1.77 12.594-3.73 26.947-11.65 37.253-17.07 22.233-35.29 24.579-57.26 8.942-25.396-19.956-20.951-34.501-25.114-62.591 34.194 6.51 48.234 8.018 75.934-14.438m478.71 208.328c5.88-.592 12.94.114 18.93.506 4.16 47.618-19.64 75.724-63.15 90.79 2.69-14.942 5.57-29.699 13.04-43.149 2.76-4.968 9.41-10.015 5.52-15.51-5.11-.218-7.67 3.528-10.3 7.163-8.16 10.911-14.55 25.027-17.87 38.148-1.77 6.969-3.5 15.689-6.51 22.02-2.51-2.866-4.68-5.585-6.51-8.953-25.69-47.24 22.82-85.72 66.85-91.015M596.942 1076.54c25.169-1.39 53.471-.15 79.318-1.02.328 6.38.87 19.16-.531 25.13-2.206 1.37-103.306 3.67-115.629 4.19-24.499-.4-52.423.93-77.333 1.28-2.554-2.96-1.942-22.07-1.974-27.01 37.45-1.27 79.673-.45 116.149-2.57m-267.048 10.89c5.802-.64 15.644-.2 21.353.21.011 7.37-.262 19.33-1.503 26.3-23.874-.23-48.39 1.99-72.299 2.2-33.352.29-66.903 2.64-100.195 2.84-25.102 2.17-22.283-.92-22.18-25.22 54.946-4.17 118.267-3.52 174.824-6.33m260.471-321.621c6.937 6.691 9.079 10.757 13.124 19.965 12.38 28.178 14.176 57.192 2.878 86.097-6.206 15.879-15.051 22.362-28.507 32.014 6.8-24.679 11.506-39.52 13.136-65.123-.159-4.02-.29-7.424-4.03-9.535-1.67 1.597-2.391 2.586-2.718 5.184-2.768 21.983-6.291 39.167-13.136 60.303-1.918-7.328-4.256-16.566-6.682-23.628-5.144-14.971-10.814-19.352-10.672-35.627.237-27.165 17.791-51.35 36.607-69.65M1875.02 1059.56c1.94.37 3.37.49 5.3.66 4.33 4.43 3.36 17.63 3.88 25.15-41.6 1.94-83.22 3.41-124.86 4.43-16.1.42-47.62.15-62.17 2.15-2.08.17-3.66-.06-5.72-.25-4.74-4.71-3.54-14.54-3.92-22.19 25.84-4.54 77.82-6.18 104.47-6.91zm-310.65 5.84 2.54.14c2.53 2.92 2.33 21.11 2.45 25.9-62.87 2.31-126.55 3.36-189.22 6.31l-1.68-.98c-1.65-5.79-2.12-17.06-2.6-23.45 41.03-1.88 82.08-3.42 123.14-4.62 20.14-.71 45.82-1.1 65.37-3.3"/><path fill="#fefefe" d="M444.092 907.379c2.373 1.428 6.861 7.041 9.172 9.502 8.365 8.843 19.628 18.618 31.015 23.288 33.287 13.653 68.446-9.199 64.373 45.199-23.252-10.511-46.492-31.551-72.955-36.867 4.156 4.95 6.847 7.37 11.708 11.716 14.279 13.67 38.508 28.523 56.269 37.848-18.503 6.575-27.3 9.265-47.187 3.405-36.781-10.835-65.204-56.428-52.395-94.091M1728.2 795.737c39.79 4.995 48.4 116.077 53.35 148.851.23 1.542-2.18 42.271-2.93 44.087-4.34-8.477-13.73-79.076-16.87-94.523-3.38-15.607-7.39-26.906-15.43-40.669 6.2 25.118 18.37 75.444 18.8 101.431-8.61-23.835-65.81-144.859-36.92-159.177M672.595 842.246c3.896-.251 2.713-.737 5.493 1.113 1.316 3.333 1.693 7.437 1.381 11.077-3.678 42.86-14.128 68.634-52.735 89.644-13.702 7.457-13.593 2.448-25.452 13.108 15.789-30.299 31.203-51.993 51.617-79.028 2.222-3.366 6.074-7.706 4.117-11.556-4.495.507-9.687 7.953-13.01 11.336-20.076 20.436-33.213 38.702-45.851 64.463-1.453-31.683 3.02-33.674 18.858-60.702 2.561-4.371 6.886-17.435 8.683-22.786 13.657-9.148 30.849-13.824 46.899-16.669m3.955 92.245c13.461-.967 22.687 1.468 35.144 5.286-7.639 24.728-19.739 56.671-39.746 74.433-13.382 11.89-31.962 8.16-48.639 6.55 12.061-24.723 26.915-38.167 50.915-51.045 9.065-5.767 21.817-11.658 29.801-18.732.732-.648.365-1.007.26-2.525-2.426-1.461-5.052-1.536-7.796-.544-31.503 11.393-57.463 25.447-76.47 53.426 2.634-39.46 16.093-59.569 56.531-66.849m-521.176 13.126c22.321 2.153 48.302 32.362 55.023 52.403 5.593 16.69 19.066 51.62 16.313 68.65-3.421-3.04-16.532-41.25-20.81-49.8-8.087-16.16-15.547-31.369-28.836-44.575-2.956 1.207-1.972.227-3.408 2.611 1.115 4.188 11.814 18.062 14.807 23.934 7.615 14.93 13.252 29.31 19.913 44.56 4.024 9.22 8.729 17.22 12.762 27.1-19.416-18.79-84.035-97.336-65.764-124.883m192.098 8.494c3.919.491 6.041 3.76 5.804 7.561-2.131 34.256-36.961 79.738-60.482 103.388 14.218-43.71 24.35-51.54 47.584-88.593 1.381-2.494 1.35-2.737 1.803-5.604l-.933-.798c-4.01 1.17-8.236 7.688-11.15 10.867-20.994 22.908-30.621 45.938-43.562 73.528.227-23.72 1.258-40.63 14.803-61.531 11.907-18.372 23.782-33.81 46.133-38.818m1192.058 22.215c18.69-2.458 50.09 5.844 65.79 16.301-17.53 14.953-30.34 33.423-55.1 38.143-8.67 1.65-26.81-5.04-28.03-13.37l6.75-3.24c15.52-8.53 31.7-11.41 48.96-13.17 3.27-.34 8.79-.67 11.57-2.08l-.27-1.886c-16.15-14.73-73.22 8.216-73.65 8.106-3.7-10.323 14.3-25.592 23.98-28.804m325.33-31.19c5.85-.41 15.53-1.197 19.92 2.877 10.45 10.044 6.04 23.239-1.55 32.553-12.9 15.811-27.48 21.854-46.17 27.514-2.66.8-2.85 4.16-6.14 4.5l-1.14-1.01c-.84-8.19 17.62-25.561 23.93-30.934 4.87-4.871 14.1-10.467 16.8-14.808l-.51-1.126c-15.47 1.497-37.39 24.156-46.87 35.708l-1.18-.05c2.65-21.848.75-16.236 8.72-38.02 11.9-7.335 20.47-13.751 34.19-17.204m-171.56-15.567c13.93-.519 27.52 12.616 36.54 21.843 19.48 19.94 25.52 46.293 35.22 71.348.21.56 4.39 3.17 5.11 3.6 3.6 5.87 6.82 19.49 8.45 26.41-8.09-9.78-11.59-19.33-17.98-29.59-10-16.05-21.83-36.909-33.39-51.675-3.34-4.517-14.86-23.441-20.78-20.572.26 4.984 12.5 20.881 16.02 26.379a915 915 0 0 1 30.53 51.718c-33.22-26.68-57.87-54.455-59.72-99.461m-140.97-27.974 17.44.777c-5.52 9.965-20.06 30.714-27.51 39.478-12.41 14.581-25.89 16.592-43.72 17.466 11.31-13.988 29.58-28.852 44.91-38.257 2.33-1.619 3.07-2.359 3.19-4.981-14.3-9.369-50.29 28.015-58.75 38.049-.42-3.569-.87-7.482-1.07-11.048a32.7 32.7 0 0 1 8.35-23.461c13.98-15.517 37.92-16.865 57.16-18.023m-173.48 35.759c29.13-.819 47.1 12.255 63.21 35.181-18.79-13.297-39.19-23.233-62.62-18.668-6.92 1.346-18.65 4.848-22.85 10.772l.75 1.617c3.08.891 3.78.777 6.89.002 7.8-2.131 43.08-7.854 40.59 7.6-9.4 9.02-54.71 9.57-69.53 10.198a82 82 0 0 1 2.17-5.214c8.45-18.382 22.03-34.42 41.39-41.488m-933.444 45.429c23.302 26.567 46.393 32.397 79.325 35.967 3.007.32 4.757 1.31 6.307 3.64-2.457 2.51-7.006 4.35-10.305 5.97-2.45.94-4.932 1.8-7.44 2.57-25.967 7.88-89.785-11.66-67.887-48.147M1805.2 861.47c1.95-.322 1.8-.332 3.66.322.08 4.027-16.68 50.574-19.21 57.619l-.97.253-.89-2.891c-2.14-17.352-6.88-37.473-10.61-54.718q14.025.023 28.02-.585m-285.29 111.062.59.312c-14.56 13.085-25.05 45.296-33.87 64.996l-.68-.8c-.24-16.02 2.76-47.226 5.95-63.18 10.71.534 17.53.281 28.01-1.328m-53.58-31.845c19.01 19.759 8.38 51.703 7.23 77.023-.51.81-.12.42-1.43.82-7.89-23.545-9.25-53.297-5.8-77.843m-334.24-181.966c2.83-.129 3.69-.413 6.16 1.002 4.16 8.528 27.12 80.528 25.95 84.883-1.94-.096-3.32-.413-5.2-.779-10.78-17.849-18.58-60.352-27.25-80.641-.55-1.291-.07-3.158.34-4.465m292.04 221.918c31.51 11.993 29.03 46.871 31.89 75.841-2.72-1.55-6.4-12.79-7.04-15.9-4.12-20.14-19.38-41.691-24.85-59.941M919.072 758.748c3.302 1.771 2.656.845 4.339 3.707-3.062 23.657-11.704 48.161-16.568 71.561-.933 4.493-2.012 9.284-3.414 13.632-3.074-1.456-4.026-1.548-5.553-4.352 1.335-8.255 17.877-80.783 21.196-84.548m-26.931 97.639c1.141.587 2.647 1.568 3.784 2.257 2.33 4.721 4.036 24.969 2.898 30.385-3.449 1.656-8.966 1.159-13.044 1.161-3.893.347-5.54.34-9.445.087.16-4.544 12.88-28.204 15.807-33.89m-643.064 41.619c4.457-.462 10.951-.089 15.612.04-1.974 17.571-2.438 34.378-6.216 51.71l-.866 2.34c-.89-2.084-.939-5.464-1.093-7.942-.968-15.618-4.832-30.684-7.437-46.148m178.457-62.273c1.18 4.766 1.094 24.064 1.88 31.229-5.523-3.648-7.535-4.704-13.645-7.316-3.214-.608-7.495-1.325-9.545-3.785 2.321-3.439 17.459-17.022 21.31-20.128m159.149 120.082c1.45.315.755.086 2.015 1.232.425 5.832 2.902 38.703 1.114 41.592l-1.206-1.217-6.46-7.978c-1.323-9.428-2.368-19.254-3.5-28.737 2.217-1.519 5.647-3.444 8.037-4.892m-2.809-43.499 1.189.097c1.4 2.582 1.04 26.365.373 30.05-2.837.036-4.118-1.4-6.88-3.089-4.371-4.401-4.438-18.547-5.036-25.299 3.352-.453 6.994-1.172 10.354-1.759m1.337 123.894c3.062-.18 5.163-.64 7.917.62 4.278 5.73 3.644 18.39 4.803 27.31-3.728.24-6.795.93-9.879-.87-4.537-5.87-.908-18.26-2.841-27.06m16.56-73.018 4.256 1.088c2.103 2.633 1.919 49.52 4.458 57.53.254.8-1.208 4.86-1.7 6.01l-1.007.77c-1.751-2.15-5.933-58.592-6.007-65.398m-53.753 43.858c10.192 1.85 8.948 10.98 10.644 20.3l-6.011-3.66c-4.973-2.36-11.919-7.32-16.681-10.51zm15.277-14.959c3.367.992 3.858.936 6.239 3.324 3.922 8.455 3.619 27.205 3.427 36.925-4.791-3.54-8.388-32.726-9.666-40.249m599.565-133.48c2.82 4.56 10.27 20.028 12.07 25.076-3.47.322-9.12.254-12.78.309-.22-8.257.35-17.09.71-25.385m312.46 46.744 2.33 1.041c2.82 4.007.79 18.28-2.31 21.936-1.8-2.221-4.2-6.392-5.78-8.952 1.92-6.309 2-8.548 5.76-14.025m-909.042 57.292c2.329 2.198 2.082 13.459 2.238 17.377l-1.101.329c-2.182-1.303-2.566-1.663-4.428-3.259-2.475-6.604-2.881-10.402 3.291-14.447m1241.542 62.343c2.67 3.43.67 21.8-1.31 26.04-5.74-4.94-.56-19.93 1.31-26.04M932.049 553.691c4.395 3.506 9.383 5.227 14.578 7.355l1.079 2.769c-7.87.572-11.674-4.292-15.657-10.124"/></svg>