<svg xmlns="http://www.w3.org/2000/svg" preserveAspectRatio="xMidYMid meet" viewBox="0 0 2048 2048"><path d="M1006.21 113.415c3.84-1.149 96.24 2.206 105.77 3.175a870.06 870.06 0 0 1 459.18 183.438c195.04 152.177 321.67 375.576 352.06 621.088 31.82 260.224-64.8 514.074-235.52 709.064a906.9 906.9 0 0 1-524.45 298.29c-25.46 4.48-54.48 7.23-80.22 8.46-16.29.78-33.15-.93-49.43 1.15l-1.84.25c-35.674 4.97-83.901-1.41-119.523-5.8-159.022-19.62-297.484-79.77-425.809-175.51-202.86-149.98-337.748-374.48-374.93-624.01a763.6 763.6 0 0 1 3.126-226.666 897.84 897.84 0 0 1 174.994-411.505 953.6 953.6 0 0 1 563.396-361.571c27.381-5.899 56.237-10.44 84.091-13.627 23.259-2.662 45.638-2.905 69.105-6.226"/><path fill="#fefefe" d="M1039.41 136.57c22.66-3.053 89.84 4.955 114.97 8.625 223.78 33.764 425.23 154.408 560.63 335.756 157.18 211.514 220.5 457.129 167.45 716.569a789.6 789.6 0 0 1-57.33 175.12c-6.97 14.71-15.47 28.59-22.72 43.18-14.94 30.05-31.9 59.57-50.08 87.8a953.2 953.2 0 0 1-233.7 247.77 829.75 829.75 0 0 1-437.03 161.81c-22.93 1.71-44.19 2.01-67.14 1.88-6.67-.04-18.403.83-24.21-.06-52.534 1.17-140.74-15.59-191.206-29.26a899.2 899.2 0 0 1-342.634-183.54c-28.028-23.62-46.326-42.63-71.631-68.73-65.048-67.1-118.281-142.33-161.777-225.02-14.104-26.81-25.253-56.6-36.888-84.53-27.788-66.7-43.217-137.99-51.016-209.67-1.774-16.31-2.426-37.4-3.141-53.94-.19-11.01 1.486-22.65 1.089-33.58-7.332-202.049 79.1-406.222 208.209-559.105A930.6 930.6 0 0 1 727.18 194.779c84.886-32.551 165.453-49.94 255.985-56.2 18.595-1.286 37.815-.456 56.245-2.009"/><path d="M1032.58 212.545c200.94-2.243 394.86 73.907 540.57 212.29 94.9 90.469 159.41 184.207 204.98 306.577 37.17 93.499 55.43 189.509 56.24 290.138.58 72.72-7.94 134.92-27.67 205.44-44.81 160.2-134.08 295.95-255.31 408.42-133.02 123.41-295.01 194.83-476.16 210.68-22.64 1.97-42.04 4.73-64.98 5.18-32.717.36-68.126-3.65-100.527-8.45a811.7 811.7 0 0 1-431.991-208.06c-21.408-19.9-40.799-42.08-60.217-63.86-148.036-166.08-231.507-376.42-212.136-600.123a857.4 857.4 0 0 1 165.781-433.6c14.047-18.927 32.159-42.462 48.33-59.673a887.4 887.4 0 0 1 236.472-181.181c11.453-5.954 24.303-13.168 36.115-18.184 62.775-26.633 129.31-45.247 196.37-57.435 47.358-8.606 96.411-6.748 144.133-8.159"/><path fill="#fefefe" d="M477.977 527.583c1.176.607.537.193 1.912 1.541l222.234 220.693c24.007 23.691 68.842 73.446 93.778 88.78-4.439 25.425-5.138 31.508 18.705 44.656.741 11.299 1.417 22.629 2.702 33.882 1.678 14.698 7.132 52.584 13.378 65.051 16.792 33.514 70.167 20.724 76.271 27.174 3.494 3.69 3.313 13.05 3.785 17.94-20.283 10.48-44.102 17.68-64.294 28.38-29.974 15.9-60.991 29.62-89.753 47.39-30.741 18.99-65.074 33.69-90.233 60.37-8.816 9.35-17.966 29.03-23.903 40.64a903.5 903.5 0 0 0-67.19 171.16c-4.095 13.77-20.721 79.76-24.998 86.59-4.826 7.71-12.764 14.42-19.156 20.85-13.464 13.56-27.657 26.99-39.746 41.78-23.344-21.13-54.141-62.9-71.805-89.26-46.989-70.14-84.714-149.05-105.942-230.94-5.032-19.48-7.69-39.63-11.625-59.28-8.698-43.45-10.929-83.24-10.794-127.29a749.48 749.48 0 0 1 186.674-490.107m1081.733 2.958c10.57 5.4 30.2 33.401 38.02 44.038 91.11 123.908 145.67 279.323 145.44 433.581-.05 30.35-.02 58.81-3.11 88.9a769.8 769.8 0 0 1-112.67 322.75c-11.91 18.89-28.62 41.16-42.37 58.75-10.31 13.2-21.09 23.87-31.13 38.17-4.17-19.57-6.99-43.06-11.15-63.85a1061 1061 0 0 0-28.09-106.8c-7.99-27.91-23.6-67.15-34.47-94.39-8.58-21.49-16.39-29.99-22.75-55.2-11.59-9.64-23.63-20.4-34.89-30.47-75.35-67.39-163.91-111.42-256.95-148.77-1.81-.72-2.29-3.05-2.84-4.7 2.16-9.06 20.29-9.42 31.43-14.291a58.3 58.3 0 0 0 18.69-13.04c22.49-23.024 10.49-44.228 11.23-72.618.06-10.58 2.53-46.856 9.49-53.972 33.79-34.532 69.18-67.485 103.5-101.375 24.71-24.397 47.99-51.012 72.45-75.784 9.29-9.405 21.06-19.312 30.29-29.081 18.92-14.488 29.89-31.385 45.94-48.21 24.07-25.232 51.62-46.56 73.94-73.638M992.679 293.452l3.051-.024c1.711 2.626-1.009 14.819-.498 19.292 4.179 36.525.053 72.392-1.444 108.364-1.315 31.597 1.645 64.69-.251 96.641-2.104 35.475 7.783 28.331-32.573 31.705-50.061 5.492-108.2 21.998-136.765 67.015-13.579 21.4-12.648 30.632-10.836 55.39.313 11.282-4.368 28.79-4.24 41.069.156 14.917.706 30.396-.373 45.175-14.638-12.468-28.358-27.788-42.118-41.434a4648 4648 0 0 1-85.353-85.646l-93.811-92.929c-21.631-21.393-40.423-38.323-60.441-61.459 19.774-22.516 64.928-52.319 90.845-68.254 113.863-70.007 241.034-109.802 374.807-114.905m77.211.048a176 176 0 0 1 15.83.281 691.45 691.45 0 0 1 364.21 133.367c20.87 15.491 44.44 33.369 61.55 52.855-14.12 14.431-29.85 35.034-44.61 50.152-23.5 24.051-45.88 47.44-71.06 69.839-7.42 6.6-11.44 15.292-21.63 23.804-7.19 5.605-13.12 12.241-19.83 18.388-9.21 8.437-18.36 16.5-27.14 25.406-23.97 24.318-50.73 57.589-76.67 78.987-1.54-8.731-2.3-18.209-3.69-27.118-11.49-70.869-60.5-129.937-128.04-154.302-10.09-3.662-20.53-6.932-30.8-10.059-6.99-2.128-13.69-.692-20.02-5.318-3.83-8.407-1.46-92.516-1.42-107.405.02-7.731.02-32.083.03-41.037q.045-35.052 1.05-70.09c.32-11.064.41-27.113 2.24-37.75"/><path fill="#fefefe" d="M831.223 677.211c34.666 11.93 58.577 15.373 95.204 15.987 12.59.211 26.8-1.042 39.014.736 8.112 41.139 34.919 90.164 74.309 108.691 10.62-5.029 28.97-21.953 37.91-22.139 44-.918-1.21 66.442-10.94 81.923-2.05 3.27-11.2 12.194-12.53 13.554-.96 28.215 2.38 51.812 16.2 77.258 13.15 24.211 42.97 44.718 69.11 52.039l.41 12.68c-41.9 26.77-116.36 29.25-164.693 23.38-5.129-.54-9.954-1.72-14.912-2.55-28.933-4.82-29.897-4.32-30.49-34.48 31.333-11.278 56.593-21.451 79.255-47.282 4.63-5.27 12.59-17.74 4.37-22.842-11.28-1.196-15.695 8.712-23.972 14.946-40.291 30.346-90.334 47.706-139.22 27.93-5.758-12.642-9.545-28.815-10.636-42.617-.171-2.156-.643-7.283.71-9.197 2.1-2.97 42.471-3.592 54.268-18.401 2.129-2.672 3.318-6.604 2.363-9.984-.434-1.534-1.231-2.821-2.658-3.529-7.543-3.742-28.058 11.121-36.534 13.652-5.809 1.734-12.613 3.251-18.028-.446-11.207-7.654 2.489-24.425-.667-33.538-2.665-7.693-14.37-6.971-20.535-10.358-5.394-7.497 1.217-27.31 2.388-36.736 2.011-10.685 2.148-21.791 3.808-32.513 6-38.761 3.727-77.09 6.496-116.164"/><path d="M864.272 773.643c1.491-.27 11.709 1.906 13.452 2.662 23.245 10.082 1.198 23.827-8.736 28.399-5.52.718-8.72.446-14.19.176-17.627-14.992-15.22-30.597 9.474-31.237m4.897-36.067c2.177.575 11.346 1.274 13.711 1.107 9.999-.71 33.312 5.285 30.591 19.104l-1.757 1.112c-8.41.952-17.806-5.051-27.608-7.74-14.435-2.965-40.494 5.473-48.898-1.261-1.598-3.844-1.39-1.918-.694-5.986 5.971-6.666 24.614-5.409 34.655-6.336m208.621 57.127c3.14.499 3.07.781 5.72 2.705 4.82 10.182-10.63 14.883-13.93 23.153-3.87 9.683 2.25 16.48-7.95 22.024-3.26-.846-3.66-.706-6.32-2.867-5.03-9.025 1.43-21.291 5.88-29.489 4.01-7.361 9.6-11.365 16.6-15.526"/><path fill="#fefefe" d="M1440.62 1224.59c3.18 2.45 12.7 25.56 15.1 31.17 22.19 51.71 42.22 108.66 55.11 163.32 6.05 25.69 10.56 54.63 16.86 80.72 2.64 10.93 3.91 23.48 6.7 35.17-7.63 10.06-22.31 22.18-32.13 30.62a788.6 788.6 0 0 1-155.94 105.91c-8.88 4.26-52.29 30.53-58.66 29.94 1.03 3.45 1.54-47.02 1.45-46.3 2.73-23.37 3.37-49.52 6.84-72.54 17.82-118.31 65.84-267.07 144.67-358.01M239.229 1017.52c7.072.04 20.401-.19 26.923 1.98 2.463.83.903 32.5 1.161 36.34a906 906 0 0 0 11.445 94.57 790.4 790.4 0 0 0 31.942 123.55c3.845 10.84 9.669 23.7 14.262 34.48a810.2 810.2 0 0 0 90.113 161c95.225 133.47 239.277 247.57 399.388 290.3a936 936 0 0 0 114.99 23.03c13.577 1.85 29.332 1.76 41.203 3.76.423 4.04.867 35.12.121 38.1l-2.539.57c-30.044 0-77.239-8.9-106.72-15.07a767.1 767.1 0 0 1-353.927-179.78c-12.942-11.59-25.359-24.55-37.588-36.93-151.336-153.24-249.144-357.51-244.824-575.55zm913.611 19.61c45.61 20.67 96.53 37.68 139.34 64.35-15.4 25.23-51.63 67.64-71.38 93.03l-72.24 91.54c-12.89 16.39-22.93 31.64-36.9 47.36-19.29 26.26-37.37 44.96-55.62 73.27-1.32-12.89-.31-31.46-.09-44.63l1.09-71.97 5.53-223.52c10.03-2.93 21-4.22 31.04-6.65 18.54-4.47 43.13-12.61 59.23-22.78"/><path fill="#fefefe" d="M1785.31 1037.57c8.79-.69 13.96-.91 22.73-.6-.76 5.8-.9 12.28-.98 18.18-1.11 73.77-15.12 140.17-39.43 209.71a829.8 829.8 0 0 1-171.72 291.22c-138.05 153.01-322.34 254.57-530.15 265.15-5.14.52-14.81 1.88-19.47 1.01-1.95-6.58.08-29.77.99-37.11h3.31c86.75-.25 205.07-33.6 283.03-70.6 14.11-6.7 27.41-15.51 40.96-23.3 19.99-11.48 40.48-22.34 59.49-35.42 41.79-28.75 79.15-62.1 114.85-98.04 121.22-122.44 196.83-282.71 214.21-454.13 2.33-24.18 3.87-38.87 3.79-62.97l2.33-.57c7.24-1.81 8.55-2.06 16.06-2.53m-779.73-801.146c3.72-.238 7.77-.059 11.53-.003-.41 10.362.4 20.256.34 30.691-1.07 1.92-3.15 3.813-5.41 3.78-31.595-.468-61.882 1.479-93.3 5.88a777 777 0 0 0-405.731 181.303c-94.232 82.571-169.284 212.994-209.274 331.484-21.682 64.245-32.679 137.614-37.233 205.317-7.977.235-15.659-.452-23.656-.088-3.085 1.047-12.248 2.041-15.91 2.534-.271-19.584 2.639-42.976 5.198-62.672 17.852-137.379 78.715-276.994 161.525-387.646 10.846-14.493 22.091-30.116 34.007-43.607a782.97 782.97 0 0 1 465.211-258.536c34.128-5.182 78.238-6.323 112.703-8.437m34.33.769c45-1.923 127.81 10.907 172.9 21.894 199.05 48.029 371.02 172.869 478.33 347.259 64.45 106.141 103.91 224.982 115.72 349.018 1.01 10.57 3.7 45.606 1.67 53.996l-1.79.95c-7.66-.43-25.67.79-35.64.67-6.55-160.387-42.95-294.969-135.55-427.555-141.17-202.121-348.68-309.327-594.36-314.807-.95-10.348-.33-20.417-1.28-31.425M680.386 1182.77c2.077 2.08-1.724 17.23-2.131 21.17-3.288 31.84-3.664 64.18-4.768 96.19a2877 2877 0 0 0-.213 188.32c.465 16.2 1.943 32.34 2.455 48.81l3.724 140.88c-21.877-11.2-34.861-18-55.053-31.88-20.936-14.62-51.473-39.43-69.349-57.45 4.723-14.74 4.694-28.73 6.658-44.17a789 789 0 0 1 9.185-56.67c18.96-93.64 53.278-193.42 94.461-279.69 3.03-6.34 10.426-21.01 15.031-25.51m231.763-132.87c3.267-.37 26.777 6.81 30.851 8.38 7.782 2.98 38.8 4.82 42.359 8.09 1.461 30.71-2.153 65.51-2.078 96.59.172 71.79-2.988 143.52-6.785 215.2-13.207-16.29-22.054-28.93-33.87-46.08-34.185-51.97-66.856-111.21-95.634-166.64-10.014-19.29-25.447-50.16-31.758-70.11l61.591-29.29c11.139-5.32 23.955-12.04 35.324-16.14m110.441 17.62c3.35.54 12.69-.44 16.67-.75-2.3 11.1-1.94 41.26-2.16 54.14l-2.22 84.63c-1.96 52.02-3.24 104.06-3.84 156.11-1.03 115.52.21 226.59-5.2 342.26l-3.19 83.89c-.44 10.37-.2 26.84-1.87 36.29-8.19.61-14.61.73-22.837.71l-3.994-1.01c-2.857-6.9 2.518-134.59 2.967-148.79l3.624-139.44c1.4-67.25-3.049-135.3.88-202.52 5.15-88.26 3.82-177.22 8.1-265.38z"/></svg>