<svg xmlns="http://www.w3.org/2000/svg" preserveAspectRatio="xMidYMid meet" viewBox="0 0 2048 2048"><path d="M1031.7 55.43c5.64-.804 18.84-.561 24.69-.046 43.34 3.815 86.46 8.252 129.3 16.014 31.77 5.756 61.3 9.253 91.39 21.91 28.81 12.121 60.16 18.912 88.91 31.604 49.34 22.859 98.41 49.111 143.2 80.062 12.72 9.305 29.84 18.007 41.49 28.566 26.52 24.038 57.16 48.538 81.63 74.417 21.84 23.108 43.26 49.259 63.19 74.011 12.4 15.405 25 30.483 36.14 46.795 33.13 51.389 63.52 104.368 88.66 160.155 2.71 6.129 5.95 12.211 8.28 18.505 38.89 104.707 68.73 213.201 84.05 323.917 2.31 16.67 2.5 33.65 3.75 50.293 1.27 16.774 5.07 34.407 5.32 51.227.91 22.11-3.41 46.35-2.71 68.2 1.16 36.33-.68 70.78-5.14 106.8-.79 6.32-4.04 16.75-5.56 23.48a1085 1085 0 0 1-24.12 90.25c-11.88 38.67-26.7 80.08-42.72 117.29-9.18 21.34-23.83 51.89-34.86 72.23-14.41 26.56-36.16 60.49-54.56 84-30.1 34.58-59.9 77.59-92.25 109.59-61.49 60.8-142.37 122.38-219.36 161.08-120.64 60.63-299.68 111.97-434.28 102.34-19.996-.59-38.821 1.47-59.406-.07-40.61-3.02-79.355-10.19-119.161-18.1-23.58-3.85-46.706-7.68-69.832-13.9-337.143-90.64-537.283-399.58-613.611-723.64-8.095-34.36-9.032-67.75-14.833-101.95 3.052-6.7-1.474-15.63-1.978-24.02-.529-8.83-4.168-24.77-4.128-33.33.052-11.16 1.392-18.28.61-30.02-4.744-71.256 2.996-139.358 20.606-208.453 5.351-20.997 8.924-47.021 15.928-67.824 16.109-47.846 35.214-95.98 59.004-140.589 5.276-9.894 9.558-20.592 15.094-30.852a1151 1151 0 0 1 158.803-223.77C539.269 187.967 759.642 75.866 975.871 61.631c18.675-1.23 35.889-5.058 55.829-6.202"/><path fill="#fefefe" d="M1012.42 81.382c13.1-.612 28.8.398 42.36.777 22.29.622 45.35.314 67.57 2.792 69.22 7.72 137.39 26.026 202.12 51.49 15.17 5.967 37.88 20.803 53.62 28.122 20.95 9.737 42.43 20.365 62.57 31.432 51.19 28.126 94.03 62.316 138.12 100.161 19.56 16.787 29.5 30.434 46.58 48.507 59.05 62.493 102.8 129.021 142.76 205.057a1064.9 1064.9 0 0 1 124.53 435.633c.99 14.737.05 29.787.85 44.297 2.25 40.66.82 77.89-3.73 118.22-3.26 28.98-5.13 56.13-10.46 85.35a878 878 0 0 1-201.72 417.64c-15.6 17.73-27.08 27.82-43.64 43.45a904.4 904.4 0 0 1-318.42 196.17c-11.7 4.06-24.33 6.28-35.83 10.31-78.99 27.66-162.52 30.83-245.71 36.11-195.499 7.11-387.262-54.8-541.684-174.9-138.557-107.92-227.148-251.68-283.654-416-5.191-15.09-10.707-29.3-15.367-44.72-24.841-82.22-39.982-172.02-41.823-257.77a964.65 964.65 0 0 1 165.996-557.803c11.162-16.505 23.212-36.804 35.668-52.13 15.963-19.642 34.531-39.743 51.759-58.169C510.412 262.541 633.838 178.166 781.046 129.29c30.198-10.026 55.568-19.034 87.189-26.442a918 918 0 0 1 102.568-17.946c14.038-1.607 27.488-1.859 41.617-3.52"/><path d="M1038.09 132.423q1.395-.062 2.79-.092c65.56-.928 113.46 5.95 176.99 22.114a730.4 730.4 0 0 1 272.25 131.998c32.46 25.327 62.14 53.829 92.33 81.747 11.54 10.665 22.67 25.865 33.11 37.826a810.6 810.6 0 0 1 91.29 125.405c13.97 24.021 22.41 44.96 33.95 69.57a1100.4 1100.4 0 0 1 106.96 475.549c.37 77.18-10.73 167.29-36.49 240.16-4.28 13.99-13.61 28.03-18.3 41.59-12 39.56-28.15 72.93-47.15 109.25-18.03 34.46-29.74 54.9-52.73 86.02-28.52 40.34-63.08 76.33-97.49 111.92-42.06 43.51-103.78 81.98-154.97 113.71-84.04 52.1-179.02 83.73-275.57 102.74-51.3 10.09-93.91 13.37-147.15 13.48-32.843-1.17-70.622-2.82-102.329-6.94-197.236-25.6-385.756-117.89-509.718-276.19-26.819-34.25-43.546-61.64-65.534-99.64a1033.1 1033.1 0 0 1-120.53-308.15c-8.086-39.36-15.602-90.15-17.949-130.31-14.441-247.046 62.722-478.668 230.2-662.606 136.49-149.906 315.447-249.048 518.335-273.738 31.536-3.837 56.315-4.159 87.705-5.413"/><path fill="#fefefe" d="M1066.22 158.419c59.65-5.094 146.55 19.397 203.54 38.87 46.77 15.982 110.8 48.73 152.3 75.703a830.56 830.56 0 0 1 313.93 377.981c12.57 29.619 29.74 75.048 36.19 105.838-11.81 11.802-18.35 22.714-28.45 35.509-54.26 68.669-105.83 139.091-156.52 210.35-41.02-36.264-81.72-73.254-123.7-108.458-9.43-7.909-26.98-24.214-35.6-30.094-10.58.104-15.54.919-25.01 5.346-22.52-47.891-31.72-99.39-44.21-149.435-5.5-22.007-52.87-85.42-73.28-95.49a54.63 54.63 0 0 0-40.97-3.014c-6.69-10.814-13.41-24.198-19.99-35.049-12.59-20.769-40.81-53.768-60.55-66.885-42.64-28.328-112.11-26.869-161.6-26.546-8.039-.65-24.017 4.066-31.274 3.187-20.848-2.525-34.775-1.772-55.879 1.632-36.438 5.877-80.901 29.551-102.091 60.231-46.98 15.37-80.719 48.747-98.195 95.431-17.28 46.162-10.088 114.183-1.259 162.283 5.058 27.557 20.467 57.367 21.8 86.433 2.093 25.912.282 51.517-1.738 77.171-5.548 70.437 3.551 125.087 32.242 190.217-10.227 6.28-32.952 15.46-45.401 21.62a2894 2894 0 0 0-92.835 48.24c-38.123 20.54-118.533 62.2-134.483 103.13-28.937 74.26-53.037 154.65-76.001 231.28-17.316-19.25-29.81-40.22-43.338-61.95-10.872-18.3-25.792-37.95-35.039-57.03-21.742-44.86-48.106-94.56-62.592-142.04 12.468-27.31 35.653-61.84 47.305-90.28.88-2.15-.821-4.69-2.173-6.52-1.215-.46-2.083-1.15-3.389-.68-6.799 2.43-29.007 47.4-33.781 56.08-2.158 4.23-8.453 18.58-12.397 19.45-5.305-3.2-17.755-54.58-20.178-63.68 10.606-31.88 122.75-215.25 121.874-227.812-.184-2.643-1.156-3.082-3.113-4.423-3.603.154-5.814 1.462-7.863 4.72-11.875 18.885-22.217 39.665-32.856 59.135l-63.373 113.44c-2.625 4.67-16.949 30.79-19.464 33.13-2.574-4.56-3.609-14.66-4.822-20.19-9.591-43.75-11.801-86.19-15.506-130.59 2.014-5.68 13.482-23.22 17.366-29.93a1706 1706 0 0 0 35.485-64.039c3.664-6.861 11.815-13.601 8.215-21.203-3.84-2.554-1.842-1.982-6.041-2.303-6.144 2.981-50.19 85.015-57.115 96.865-.544-31.09 2.579-62.458 4.973-93.273l.116-1.595c14.56-18.284 22.343-35.153 33.829-55.378 3.57-6.288 13.814-22.703 15.56-28.373-.276-3.556-.192-3.315-2.49-6.048-3.849-1.541-1.962-1.454-5.85-.428-5.658 4.789-35.529 61.158-39.574 70.62-.138-33.504 18.177-119.954 31.028-151.577 6.985-15.294 17.173-28.967 24.546-44.063 2.267-4.642 1.399-9.329-4.482-9.549-3.8 1.837-6.459 5.709-9.298 9.042 44.734-125.558 109.034-228.038 203.8-321.664 11.518-11.38 39.099-41.763 52.672-49.567l.953.566c-5.024 6.059-15.656 18.932-12.961 26.774l2.587 1.254c11.26-1.575 32.309-43.057 40.072-51.311 29.113-30.957 84.908-61.215 121.798-81.76-10.646 15.173-21.302 34.441-30.945 50.557a900 900 0 0 1-40.644 61.779c-13.84 18.908-29.58 38.307-43.885 57.23l-88.099 118.79c-32.626 44.645-63.615 91.395-95.736 136.564a3227 3227 0 0 0-60.312 87.18c-7.729 11.52-16.952 25.026-23.727 37.162-1.584 2.837-1.05 4.814.002 7.386 4.945 2.755 9.962-2.952 12.648-6.834 7.94-11.473 15.653-23.141 23.486-34.696l41.762-60.914a6004 6004 0 0 1 167.818-233.461c45.871-61.658 95.476-122.375 132.149-190.115 6.416-11.851 15.393-23.528 20.69-35.876 7.845-5.645 15.118-9.05 23.91-13.14 87.77-40.831 182.947-60.246 278.829-69.269 21.654-2.038 44.704-.184 66.604-1.644"/><path d="M1415.98 349.37c3.02.276 6.21 1.124 7.4 4.103 3.76 9.419 3.69 22.785 5.48 32.934 1.64 8.887 4.15 17.59 7.5 25.982 8.09 19.993 23.62 37.527 43.65 46.121 5.55 2.383 14.2 4.916 18.09 8.935 1.43 3.796 1.3 1.932.61 5.781-3 3.189-21.17 7.382-29.21 12.358-23.74 14.697-37.52 36.546-42.8 63.788-1.77 9.09-2.72 19.445-4.9 27.948-2.85 2.349-3.02 1.664-7.35 2.308-2.65-3.704-3.57-10.133-4.2-14.644-5.4-38.742-28.18-75.182-63.77-92.619-4.95-2.425-10.73-2.14-13.74-7.131.01-3.678.04-3.414 2-6.573 5.03-3.187 8.01-1.49 12.74-2.94 32.62-10.001 51.11-36.266 59.65-68.085 3.07-11.467 3.6-30.535 8.85-38.266"/><path fill="#fefefe" d="M1417.01 398.53c2.31 2.728 7.08 15.595 8.62 19.405 9.27 22.898 23.92 39.451 45.05 51.785-19.15 11.893-34.93 24.336-45.38 44.793-3.29 6.443-5.25 13.692-9.05 19.746-10.86-30.14-28.51-51.523-55.71-68.896 31.22-14.961 45.04-34.994 56.47-66.833"/><path d="M486.457 656.54c2.634.267 3.01.628 5.483 1.699 2.91 3.583 2.932 5.582.03 9.704-52.474 74.542-104.959 149.05-157.889 223.257-4.299 6.028-8.149 12.326-13.244 17.72-2.475-.1-3.129-.548-5.488-1.413-.962-1.139-2.337-2.215-2.157-3.557 1.152-8.58 14.833-23.907 19.597-30.725l67.747-95.907c21.679-31.029 43.829-61.649 65.357-92.782 6.254-9.044 13.563-19.667 20.564-27.996M383.468 540.733c1.84.112 3.354.414 5.19.706 2.743 2.384 1.959.93 2.484 4.48-2.243 6.342-67.225 105.775-71.673 110.249-1.345-.19-2.32-.445-3.498-1.198-1.536-.983-3.435-3.065-3.536-4.988-.446-8.487 61.699-97.923 71.033-109.249m164.086 30.747c2.75.395 2.05.312 4.69 1.468 1.289 1.82 2.714 3.37 2.017 5.887-3.136 11.31-26.39 42.53-33.954 49.41-3.878-.762-5.453-1.536-7.044-5.071.791-6.719 28.731-45.982 34.291-51.694m-83.143-110.839c3.097.497 3.029.702 5.754 2.393.863 1.478 1.87 2.483 1.573 3.931-1.543 7.544-17.627 27.288-22.892 31.524-3.109.204-2.889.175-5.738-1.149-5.474-8.342 14.886-30.708 21.303-36.699"/><path fill="#fefefe" d="M1164.59 643.803c7.98 9 18.3 36.921 25.81 48.402 14.89 22.765 29.05 51.777 45.95 72.613-8.78.692-76.8 5.191-59.77 27.345 5.85.543 12.96-1.512 18.59-3.28 13.62-4.278 26.02-7.273 40.24-9.073 3.77 17.578 3.62 49.434 3.98 67.495.33 16.322 1.23 34.085 1.33 50.325.29 45.336-6.42 101.865-40.06 135.6-28.74 28.83-69.71 40.39-109.77 34.84-10.96-1.51-23.49-7.16-34.65-7.39-2.3-.05-1.78.28-3.75 2.33-1.1 4.43-1.24 2.37-.1 6.4 12.45 10.85 38.41 13.17 54.58 15.29.14 39.51-.52 77.68 5.83 116.55-20.83 12.48-33.16 15.67-57.04 18.32-30.59 7.42-89.782-3.72-120.123-13.96-24.923-8.41-8.891-42.7-29.433-56.23-1.676-1.1-12.823-10.6-12.854-11.29-1.908-41.91 8.881-84.04 12.31-125.84a420 420 0 0 0 .499-58.66c-.675-11.163-.698-20.848-5.091-31.179l-.538-1.231c-20.467-9.732-30.025-18.065-36.721-40.681-7.662-25.881 3.9-46.952 30.587-53.141 12.954-3.005 23.007 3.394 33.219 10.26a182 182 0 0 0 9.372-2.587c60.904-18.852 116.433-58.063 159.953-104.062 27.91-29.491 48.47-50.951 67.65-87.166"/><path d="M1171.11 840.974c3.33-.191 4.57-.517 7.7.745 6.11 7.152 8.86 22.708 12.06 31.933 18.37 53.068-.84 62.204-49.62 61.891-6.18-.523-9.88-2.367-11.54-8.677 3.31-7.03 24.59-4.979 34.03-6.2a59.4 59.4 0 0 0 18.85-5.565c10.68-13.269-15.14-58.847-11.48-74.127m-64.44-59.558c4.84-.976 22.32 2.506 19.72 10.162-7.95 7.424-43.06 10.165-56.04 12.123-6.62 1.339-15.92 2.851-19.7-4.385 2.46-14.838 43.93-17.121 56.02-17.9M1104 967.075c11.84-.834 33.94 7.137 48.34 7.605 6.55.212 25.02-1.269 28.46-.027 3.08 2.901 2.28 1.209 2.86 5.04-1.37 3.896-1.78 3.939-5.4 6.354-11.86 4.547-24.23 4.07-37.01 2.067-8.59-1.345-32.35-5.965-37.41-14.028-1.52-2.415-.47-4.563.16-7.011m-25.51-141.803c18.26-.988 20.81 8.973 22.04 24.668-2.52 6.453-3.27 7.675-8.46 12.329-18.17 4.285-25.89-23.573-13.58-36.997m-183.749 24.699c2.097.058 2.383.039 4.391.411a23.28 23.28 0 0 1 15.239 10.065c3.679 5.583 7.81 17.874.423 22.066l-2.448-.74c-3.76-3.24-4.324-8.105-6.8-12.818-2.504-2.688-2.863-3.382-6.361-4.744-9.144.95-5.764 12.082-11.849 16.242l-2.133-.561c-11.621-10.33-4.364-26.049 9.538-29.921m312.219-40.07c10.33-.026 12.28 4.136 17.79 12.003-.15 1.546-.3 3.09-.46 4.634-.82 7.637-1.37 14.512-7.55 19.518-17.44-.55-17.72-11.308-17.83-25.755 3.1-5.204 3.76-6.152 8.05-10.4"/><path fill="#fefefe" d="M1119.2 1244.05c2.82 3.16 9 42.21 10.52 49.87a2909 2909 0 0 1 40.75 256.38c3.03 26.73 4.4 53.91 7.23 80.51 5.5 51.74 9.31 102.67 11.02 154.69.76 22.96 2.34 41.25 2.08 64.61-3.3 1.07-6.63 2.03-10 2.88-9.36 2.28-21.99 3.83-31.7 5.25a766 766 0 0 1-70.25 7.5c-8.31.43-74.9 2.08-77.2.67l-.27-4.16c.16-10.18-1.631-19.94-1.602-29.67.412-23.47-3.628-47.35-4.375-70.59-2.039-63.37-7.425-126.04-14.333-189.03-2.043-18.63-2.291-37.68-4.161-56.38a3323 3323 0 0 0-22.037-165.76c-4.997-30.98-10.474-75.44-20.004-104.83 55.217 17.35 130.962 23.19 184.332-1.94m657.27-476.235c1.06 4.904 2.64 10.183 4.29 14.929 8.31 24.023 13.35 47.527 17.97 72.498-1.88.617-3.89 1.204-5.67 2.066-3.92 1.902-36.58 54.302-39.75 61.958 1.89 2.621.66 1.756 3.88 2.587 12.44-3.14 33.46-45.104 42.76-56.647l.87.077c6.19 19.638 8.2 50.171 10.96 70.993.34 2.56-18.26 18.749-10.96 29.737 5.5-.018 9.4-7.995 14.34-12.673 6.8 11.444 2.08 183.99-1.8 204.04l-2.95-2.36-1.55.29c-6.27 5.63-17.07 29.24-23.06 38.92-30.13-32.59-66.62-66.01-99.04-96.35l-17.92-17.82c23.52-40.39 45.01-81.231 70.94-120.173 2.78-4.178 3.44-7.849-.37-11.191l-2.64.185c-10.42 6.636-66.22 106.619-75.32 123.259-10.26-7.98-22.59-20.38-32.27-29.47-11.21-10.51-23.94-21.78-34.02-33.13 11.33-13.784 21.12-29.232 31.58-43.702 6.04-8.364 12.85-16.434 18.78-24.782 41.87-58.971 88.75-114.647 130.95-173.241"/><path d="M1801.85 1062.48c.86.26 2.19.64 2.97 1.01 2.14 1 3.17 1.81 3.52 4.23.87 6.02-44.2 73.6-51.74 83.21-4.3-2.45-5.24-2.42-7.36-6.27.98-3.15 49.57-79.28 52.61-82.18m-22.29-76.097c3.24 1.728 4.68 3.757 5.61 7.303-1.86 10.354-33.01 70.424-39.75 79.894-5.05-2.24-8.61-4.62-5.34-10.99 9.77-19.03 19.8-37.83 28.86-57.23 2.93-6.282 6.4-13.556 10.62-18.977m-61.22 73.387c2.86.46 2.36.43 5.12 1.53 1.39 1.97 2.24 2.31 1.81 5-1.36 8.53-17.12 30.48-23.04 35.95-3.91-.34-5.04-1.48-6.27-4.79 1.2-7.74 16.73-29.59 22.38-37.69"/><path fill="#fefefe" d="M1256.69 778.5c3.84 3.803 9.28 13.171 9.91 18.442 5.48 46.07 7.82 96.38 31.53 137.515 7.89 13.675 21 29.432 31.31 42.411 47.72 60.032 92.72 122.242 138.94 183.442 24.94 28.99 47.09 61.84 72.07 90.56 22.75 26.16 45.64 54.39 68.79 79.96a922 922 0 0 0 74.47 73.32c9.67 8.61 32.71 30.15 42.84 36.26l-4.7 7.83c-8.46-4.63-14.7-8.77-22.68-14.09-52.78-37.97-106.48-100.29-148.71-149.95-6.12-7.18-44.02-56.82-46.28-58.18-15.68-9.46-69.39-18.45-89.55-23.41-37.75-9.28-74.61-17.86-111.86-28.83-28.47-8.39-52.78-18.3-81.63-24.74 2.3-30.9 3.1-61.43 7.09-92.27 1.37-8.1.4-19.31 2.36-27.04 4.84-19.01 14.5-33.214 19.01-53.159 11.95-52.918 8.7-105.961 5.61-159.603-.43-7.549 2.3-16.095.71-23.825-1.14-5.653-.5-9.056.77-14.643m424.38 740.15 2.83.32.22 1.23c-4.34 8.71-22.08 30.09-28.87 38.77-11.85 15.15-25.24 31.8-38.26 45.86-11.37 12.79-26.6 24.88-37.58 37.58-32.7 37.83-70.94 67.52-112.83 94.51-12.05 7.76-25.96 18.34-38.96 24.56 15.81-24.19 37.63-47.48 55.21-70.55 3.03-3.97 1.26-7.86-3.42-9.19-7.03 2.17-41.2 48.51-49.46 58.24-4.16-4.96-4.2-87.61-4.2-97.52 7.35-7.96 14.29-19.82 20.32-29.15 9.41-14.66 18.91-29.27 28.51-43.81 4.61-6.73 17.57-22.33 15.95-29.37-3.06-2.15-1.35-1.54-5.47-1.43-7.08 3.06-51.94 73.18-59.97 85.24-.12-17.36-6.16-86.11-3.64-98.01 3.71-3.13 36.32-1.55 43.55-1.66l98.61-1.73c-9.4 14.32-16.72 30.74-25.99 45.46-9.28 14.45-18.7 28.8-28.27 43.06-5.02 7.36-16.37 22.35-19.18 29.43.33 3.78-.44 2.24 2.34 4.79 9.8 1.36 14.68-11.48 19.97-19.36 21.06-31.36 47.55-68.09 61.68-103.05 13.21-1.22 24.5.11 37.21-.41 23.16-.94 46.58-2.31 69.7-3.81"/><path d="M1577.1 1599.57c3.87 1.01 4.71 1.98 6.37 5.49-.57 6.84-35.1 60.32-42.74 67.25-.5.19-2 .32-2.62.4-5.47-5.2 1.49-15.34 4.97-20.43 11.14-16.29 21.41-37.95 34.02-52.71m32.63-62.98c1.75.32 3.12.9 4.83 1.49 1.45 1.58 2 1.54 2.22 3.37.65 5.32-8.43 20.38-11.77 24.1-4.07-.54-5.58-1.22-7.76-4.59-.36-6.71 8.4-17.81 12.48-24.37"/><path fill="#fefefe" d="M1252.51 656.818c11.92 2.418 29.7 11.131 39.15 18.312 7.43 5.642 45.56 34.731 47.74 41.842 15.43 50.386 23.93 109.051 47.14 156.834l.76 1.544c-15.89 10.043-31.67 19.816-46.23 31.752-6.79 5.566-15.92 23.112-24.09 21.142-12.15-10.536-20.71-51.711-24.13-68.01-6.32-42.313-.55-72.914-33.48-102.89-.07-5.901-.59-16.969.98-22.204 10.42-5.238 29.98 23.607 37.58 9.587-1.16-13.672-26.89-23.428-38.4-25.21-.57-5.773-2.36-19.122-1.12-24.348l2.04-.279c17.89 6.623 29.41 15.569 43.79 28.136 5.66 4.943 15.14 15.712 20.9 5.42-.2-10.207-39.07-37.411-48.7-42.662-4.22-2.3-16.1-6.119-21.17-7.798-.03-6.912-1.57-14.291-2.76-21.168M928.033 1216.97c54.115 18.95 134.507 29.7 186.657 1.12 1.93 5 3.31 7.8 1.99 12.92-56.63 23.96-126.804 19.35-183.923-.64-1.994-4.94-3.303-8.18-4.724-13.4m310.397-45.19c3.21 1.19 8.79 2.29 12.3 3.11-29.28 38.5-58.95 76.71-88.98 114.63l-5.81 7.18-3.63-16.1c11.93-13.9 25.66-32.57 37.27-47.41 14.51-18.53 35.94-42.7 48.85-61.41m-594.952 460.91c4.276.23 6.512.02 9.154 3.58-6.787 38.68-15.129 76.9-18.798 116.11-.285 3.05-.771 9.84-2.208 12.08l-2.723-1.31c-4.909-3.49-6.385-3.89-11.935-5.86 5.254-23.1 16.144-111.01 26.51-124.6m147.208-455.75c32.831 20.91 70.158 56.73 100.418 82.23 9.492 8 20.909 21.74 29.843 28 .15 4.43.437 6.88-.393 11.19l-1.545-.11c-26.142-23.15-50.726-47.16-77.727-69.82-8.163-6.86-51.907-42.14-55.674-46.89 1.171-2.96 1.74-2.49 5.078-4.6m651.504-267.815c-.78-.365 14.25 10.402 15.5 11.245-38.75 13.136-67.89 22.815-93.07 56.035-2.06 2.982-.73 2.268-3.56 3.163-3.48-1.27-6.2-5.452-8.67-8.474 24.96-25.807 54.18-51.977 89.8-61.969m-20.92-17.023c4.26 1.213 6.08 2.511 8.89 5.778-1.27 3.387-38.35 19.091-44.98 23.817-15.51 11.057-27.53 22.669-40.51 36.345-1.79 1.921-2.45 1.804-4.69 1.705-3.56-4.525-1.57-10.538 1.51-14.756 17.5-23.875 51.68-44.987 79.78-52.889M819.646 1156.49a456 456 0 0 1 54.275 39.72c9.802 8.24 22.217 20.92 32.446 27.03 1.159 4.36 3.213 10.93 2.782 15.13l-1.66.59c-8.743-6.59-25.309-21.74-34.268-29.45-19.603-16.87-38.241-31.69-58.317-47.83.975-2.83 2.039-2.93 4.742-5.19m382.354 4.27c3.09 1.68 7.59 2.62 11.09 3.54-4.47 4.65-11.09 13.73-15.5 19.07-15.61 18.89-29.4 38.58-45.44 57.19-2.39 3.28-1.78 3.6-4.88 4.64-2.32-2.14-2.99-8.89-3.65-12.41 5.08-8.08 20.01-25.17 26.63-33.21 9.09-11.02 22.13-29.26 31.75-38.82m-39.31-11.94c4.12 1.45 8.86 2.68 13.1 3.91-10.85 13.05-21.4 26.35-31.64 39.89l-5.26 7.22c-.85-5.38-2.19-11.45-3.27-16.85 7.78-8.21 20.77-24.86 27.07-34.17m95.48-515.742c22.18-2.001 42.94 21.618 53.65 38.811l-.66.768-2.03-1.347c-14.72-21.765-54.59-25.035-58.59-29.244-1.16-3.259-1.08-1.595.18-5.162 2.7-2.925 3.62-2.86 7.45-3.826M855.043 1140.8c6.889-.4 27.133 19.71 37.132 24.12 1.806 4.23 6.988 15.2 6.294 19.23l-2.178-.73c-15.834-14.2-31.828-25.15-47.377-38.44 1.218-2.15 3.503-2.76 6.129-4.18m957.657 22.02c2.57 4.89-3.77 47.29-8.71 51.16l-2.7-2.07c-3.21-2.76-3.58-2.97-5.79-6.48-.97-5.14 13.91-34.37 17.2-42.61"/></svg>