<svg xmlns="http://www.w3.org/2000/svg" preserveAspectRatio="none" style="display:block" viewBox="0 0 2048 1462"><path fill="#fff" d="M0 0h2048v1462H0z"/><path d="M1202.61 129.995c6.17-.779 35.16 20.726 41.98 25.238l67.5 44.312a22307 22307 0 0 0 245.3 161.367c33.94-13.035 81.94-26.403 117.53-37.826l49.88-16.254c7.72-2.502 20.66-7.056 28.25-8.452 11.89 7.908 32.71 24.574 43.96 33.919 1.41 60.161 1.98 126.749 5.07 186.44 16.3 12.123 40.07 26.719 57.45 38.167a5623 5623 0 0 1 104.73 69.907c7.89 5.365 47.94 29.672 49.68 36.623-5.77 9.167-46.42 7.318-56.16 13.886-8.69 5.867-19.93.743-28.83.748-10.89.006-89.94-9.8-93.86-7.517-.3 4.252.12 6.486-3.38 9.1-7.47.692-21.6-10.813-28.75-15.633l13.3 423.52c33.01 22.49 72.14 43.37 106.04 64.75 8.98 5.67 35.3 20.2 41.78 26.53.97 10.52.7 38.83-.22 49.34-13.48 2.31-33.89 2.2-48.05 2.59-21.31.57-42.6 1.37-63.89 2.41.13 7.08.97 25.27-.93 31.3-5.14 3.31-76.7 5.09-87.92 5.49l-46.42-31.22c-86.03 2.29-173.9 7-260.03 10.22-210.73 7.92-421.42 16.94-632.062 27.06.496 6.63 3.954 25.49-.311 30.03-9.17 3.67-76.098 5.3-89.925 5.42-4.865-5.26-6.348-7.54-10.215-13.66-3.046-5.24-5.946-11.12-8.75-16.54-26.967.98-53.925 2.22-80.869 3.7 2.966 18.5 6.966 38.04 9.268 56.48-17.713 36.4-103.397 61.9-136.473 34.2-4.902-21.15-9.14-64.05-12.436-87.3l-31.418 2.37c1.853 10.61 9.668 49.11 7.644 56.78-.605.76-2.208 2.83-3.283 2.89-89.933 4.62-180.297 6.1-270.354 9.51-1.712.01-11.01-.04-12.253-1.22-6.517-6.18-12.694-34.15-14.635-41.05l-15.379-54.59c-33.288-120.75-55.479-232.81-1.861-352.125-8.042-2.025-22.745-2.658-26.665-10.47-1.035-9.38 7.067-40.743 9.453-51.159a2747 2747 0 0 1 39.855-154.798c23.78-82.585 51.797-174.682 118.745-232.914 24.605-21.401 51.81-34.782 81.606-47.247-5.967-33.269-10.52-76.691-15.28-111.05 20.92-46.718 88.449-51.402 123.047-19.553 2.53 11.558 5.023 34.912 6.915 47.482 3.661 24.331 8.355 50.124 11.424 74.308 9.308-4.664 17.301-8.028 26.949-11.942-37.523-30.113-43.901-66.781 2.433-91.49 7.848-29.313 30.47-48.486 59.48-53.157 24.407-2.859 41.269-18.251 65.457-22.077 61.105-9.667 130.548 41.866 139.622 102.565l146.148-95.662 43.476-29.039c7.647-5.108 22.587-16.078 30.697-18.859 61.14-20.969 124.58-35.56 185.94-55.848"/><path fill="#fff" d="M418.555 275.257c23.889-1.554 35.637 1.983 56.054 14.155 10.702 86.052 26.308 176.665 39.537 262.897l52.667 352.66a24714 24714 0 0 0 40.269 271.641c6.759 45.18 13.642 98.94 22.382 143.27-23.328-6.8-48.006-3.18-70.732 4.05-19.511 7.17-29.435 13.45-44.433 27.53a42589 42589 0 0 1-63.284-464.158l-38.56-280.218-25.194-189.643c-4.627-35.668-8.974-77.917-15.297-112.678a79 79 0 0 1 3.288-5.154c11.054-15.706 24.822-21.304 43.303-24.352"/><path d="M458.766 311.836c1.903.486 2.945 1.1 4.67 1.967 5.223 11.216 17.821 113.48 20.303 130.679l50.304 346.762 32.48 219.496c5.009 33.93 10.379 68.24 15.056 102.22.371 2.69-1.15 3.42-3.354 6.07-3.61-.92-4.076-.85-6.762-3.24-2.049-7.13-5.299-33.11-6.527-41.49l-12.444-84.16-44.895-309.584-38.661-263.182-10.447-71.329c-1.337-9.365-3.111-20.064-3.713-29.579-.147-2.319 1.927-3.103 3.99-4.63m118.73 821.794c3.058.35 3.082.37 5.956 1.49.813.92 1.771 1.94 2.055 3.75 3.143 19.92 7.392 41.87 7.891 61.91-.941 1.65-1.694 2.96-2.26 3.95-2.021-.53-3.089-1.13-4.934-2.03-1.146-1.39-1.648-2.21-1.988-4.21-3.344-19.63-6.404-39.88-8.674-59.65-.179-1.56 1.144-3.93 1.954-5.21"/><path fill="#fff" d="M827.593 896.442c27.876-1.439 27.17 3.473 51.495 13.906 31.724 13.606 68.436 17.9 102.431 23.151-7.786 20.657-7.934 28.194-8.181 49.874-.046 4.064-.864 8.418 2.015 11.442l2.673.035c5.745-2.599 7.794-9.001 10.555-14.26 1.268-2.415 2.645-5.237 5.34-6.089.618-.196 1.229-.42 1.857-.585 6.022-1.578 33.992-25.367 40.762-31.176 10.86-9.321 15.53-17.242 16.62-31.566l131.56-7.319c14.66 11.93 33.71 30.526 48.2 43.749 15.14 13.809 36.58 32.448 50.06 46.965-4.9.029-14.06-.474-17.51 3.79 4.51 5.041 18.32 3.001 24.6 2.441 15.39 11.84 48.91 44.29 63.93 58.38-52.04 4.47-104.6 10.76-156.88 15.28-3.75-5.82-8.06-10.34-12.65-15.48-2.56-2.76-5.02-6.53-8.94-5.49l-.84 1.64c1.13 5.72 12.03 15.29 16.58 19.81-10.69 1.66-25.81 2.51-36.89 3.62-27.25 2.79-54.5 5.44-81.78 7.94l-204.609 19.28c-36.536 3.46-73.464 6.03-109.874 10.4l-35.179-70.12c9.749-1.16 12.844.4 21.934-4.15l.346-1.4c-6.123-3.59-17.954-1.19-25.081-.26l-57.064-114.367c6.871-.634 21.783.209 26.205-5.639l-1.031-1.738c-8.485-4.327-20.276-2.739-29.89-2.302-2.464-4.473-4.705-9.518-6.882-14.175z"/><path d="M864.259 910.427c4.167-.366 5.277-.506 9.373.153 2.782 1.831 2.674 1.683 4.087 4.688l-.845 2.172c-6.185 4.128-21.257 3.637-29.122 3.925-5.311.547-13.784 1.132-16.828-4.503l1.179-1.902c8.819-5.171 21.157-3.936 32.156-4.533m-91.224 2.822c8.66-.238 36.127-3.016 40.666 3.502-.641 3.739-.17 2.388-2.965 5.485-8.416.838-34.657 3.584-40.03-2.952.068-3.809-.13-2.452 2.329-6.035m-32.196 1.207c7.088-.369 7.558-.758 12.146 3.249 1.684 8.127-27.456 6.846-32.634 6.997l-1.025.054c-4.634.209-6.968.581-10.243-2.433-.843-3.522-1.096-2.284.415-4.945 6.154-3.82 22.755-2.686 31.341-2.922m401.721 103.154c6.36-.25 28.46 24.51 28.86 29.79-8.45-.22-28.5-21.61-28.86-29.79m103.98-20.163 2.99-.093c2.96 1.675 2.31.746 3.42 3.436-4.39 4-25.64 3.99-32.85 4.39-4.94-.09-4.13.72-7.1-1.78l.31-1.74c5.1-3.337 25.9-3.772 33.23-4.213m-280.7 22.133c6.249-.64 9.547-1.77 14.818 1.37l-.069 1.07c-6.558 3.8-19.093 3.8-26.838 4.12-5.97.83-6.782 1.12-11.979-1.68l1.253-2.02c5.646-2.47 16.37-2.55 22.815-2.86m69.31-5.12 2.41-.17c2.59 1.24 1.49.33 3.08 3.16l-1.17 1.67c-6.75 1.63-21.27 2.32-29.21 3.06l-4.62-.28-1.76-2 .57-1.52c5.48-3.29 23.72-3.51 30.7-3.92m70.21-40.752c7.49.017 26.07 20.243 25.96 26.652-1.98.27-3.75.81-5.49-.931-5.36-5.358-19.32-18.577-20.47-25.721m-260.131 55.882c6.369-.73 8.201-1.05 14.433.03l.126 2.23.637-2 .341 1.52c-6.918 4.33-14.968 4.27-23.006 4.86-3.243.2-10.758 1.65-12.465-1.84 5.117-4.58 13.281-4.44 19.934-4.8m234.311-86.891c6.91 2.165 24 20.421 24.43 27.862-7.38-.958-18.56-15.21-23.27-21.045-2.19-2.706-1.72-3.806-1.16-6.817m109.75 59.731c5.46-.16 3.57-.73 7.9 1.53l.13 1.32c-4.86 3.63-23.4 3.81-30.08 4.19l-3.79.36c-3.26-1.44-2.75-.61-3.89-3.13 4.48-4.2 22.15-3.8 29.73-4.27m-63.33 3.97c5.99-.59 11.72-2.36 16.2 2.06l-.88 1.93c-3.9 2.53-8.2 2.11-13.04 2.31-5.61.41-12.11 2.06-16.16-2.15l1.08-1.66c3.62-2.24 8.47-2.16 12.8-2.49m-44.83 4.01c4.32-.47 9.61-1.45 13.25.96l-.58 1.23c-6.84 4.13-10.54 3.65-18.55 4.22-4.61.42-11.16 1.74-14.75-1.57 4.62-4.68 14.19-4.48 20.63-4.84m-174.379 14.01c4.39-.41 7.321-1.1 11.383.5l.243 1.32c-5.031 4.68-12.341 4.22-19.132 4.58-6.04.62-10.181 1.39-15.891-1.02 5.501-4.86 16.185-4.93 23.397-5.38m-109.445 9.05 2.225-.14c2.718 1.71 1.864.54 2.731 3.55-3.538 3.61-20.828 3.86-27.492 4.5-3.694-.43-2.596.22-5.065-1.98l.005-1.57c3.684-3.58 21.699-3.93 27.596-4.36m257.034-117.975c6.58 1.519 21.91 17.518 23.25 24.075l-1.39.081c-7.37-.074-21.83-18.115-21.86-24.156"/><path fill="#fff" d="m1111.04 419.432 17.76-.677c2.33 141.629 11.49 283.993 13.22 425.723a8712 8712 0 0 0-104.01 3.624c1.45-6.177 17.26-46.343-12.44-37.659-7.52 2.199-13.17 28.696-15.72 38.009l-34.93-2.29c-30.681-.095-43.094-3.72-71.017-15.597a13458 13458 0 0 0-5.766-249.395l-2.52-100.683c-.44-16.764-.3-34.958-1.507-51.536 16.235-2.374 54.38-2.81 72.779-3.554zm203.23-7.932c3.78-.319 8.77-.34 12.65-.47 2.78 45.944 3.87 94.836 5.51 141.011l9.51 287.071c-40.33.76-80.64 1.933-120.94 3.519l-17.17.291c-1.01-14.057-.92-31.349-1.34-45.659-1.07-35.274-1.95-70.554-2.65-105.837l-7.03-274.561c40.02-2.339 81.25-3.484 121.46-5.365m224.64 114.629c6.46 2.508 25.49 15.612 32.38 19.77 29.41 17.766 61.77 42.493 91.46 58.742.84 131.241 5.81 263.213 6.36 394.023-13.68-7.025-30.8-17.92-44.07-25.975l-75.38-46.035zm207.6 29.303c3.1-.345 3.35-.41 6.38.179 2.24 2.743 1.99 38.754 2.17 44.977l2.81 94.069 10.83 364.703c-14.36-7.75-30.25-18.12-44.26-26.81-14.21-8.29-28.78-17.53-42.87-26.12l-5.33-274.316c-1.11-56.943-2.93-116.151-3.21-172.966 24.17-.851 49.26-2.483 73.48-3.716m-460.9 299.985c37.95-1.807 55.72 13.335 84.14 33.674l57.81 41.263c51.23 36.315 104.05 71.406 155.67 107.416-33.88 1.85-75.83 6.89-109.9 10.63l-104.74 9.83c-19.66-19.9-44.1-41.21-65-60.335a13878 13878 0 0 0-120.25-109.26c24.93-24.359 68.48-31.457 102.27-33.218M829.63 432.772c1.651 6.21 2.378 73.483 2.66 84.23l6.531 266.168c-10.984-11.492-23.884-22.59-35.018-34.227-16.444-17.186-33.046-35.453-48.07-53.864-31.04-38.699-72.297-98.905-95.738-143.154 54.49-39.71 113.847-80.942 169.635-119.153m558.93-10.036c22.29 11.72 59.74 37.718 81.46 51.968 1.43 23.164 1.6 48.662 2.29 72.009 1.46 42.712 2.7 85.431 3.7 128.156a14890 14890 0 0 1 6.09 211.306c-19.26-9.452-59.45-36.077-79.13-48.418z"/><path fill="#fff" d="M702.384 642.567c1.616 1.387 17.993 24.286 21.313 28.636 13.109 17.177 26.09 34.925 40.793 51.079 46.181 50.738 102.734 114.808 171.584 131.189 13.54 3.222 53.628 4.717 69.946 5.871-2.1 7.797-5.24 16.996-7.704 24.818-16.656 6.263-22.72 8.242-8.368 24.055l-4.709 15.25c-10.577-2.333-22.212-3.796-33.009-5.352-123.673-16.074-239.772-127.25-318.304-217.844 31.867-12.452 49.642-30.25 68.458-57.702m476.896-493.446 1.53-.101.43 1.087c-4.27 4.602-28.02 20.298-34.97 25.221a7169 7169 0 0 1-89.38 63.328 22770 22770 0 0 1-327.773 228.512c-.875.649-.309.414-1.824.248-.948-29.432 27.855-57.318 40.802-84.465 19.908-9.643 22.989-18.802 28.605-39.531 13.261-10.031 33.463-22.509 47.782-31.914l90.566-59.37 55.709-37.227c7.828-5.183 23.763-16.531 31.753-19.471 15.54-5.723 34.06-10.767 50.15-15.504z"/><path fill="#fff" d="M570.168 640.981c5.365 3.961 23.204 27.526 28.579 34.247q15.745 19.501 32.015 38.566c45.968 52.963 99.134 104.28 156.391 144.66l-11.653.451c-66.82 2.521-135.629 5.522-202.462 7.044a9408 9408 0 0 0-4.304-136.133c-.98-25.595-2.691-53.17-2.233-78.727.065-3.648 1.92-6.939 3.667-10.108M174.361 916.695c30.469 5.645 59.761 12.958 91.172 18.116a1068.6 1068.6 0 0 0 159.775 12.923c6.504 44.27 16.138 90.136 23.387 134.806-7.365-.48-32.609-9.69-39.597-12.37-76.204-29.18-180.748-92.497-234.737-153.475M1597.27 1046.43c4.69.03 29.91 16.32 35.8 19.89-32.65 1.69-65.68 5.29-98.24 8.26l-208.24 19.93-396.871 37.63c-44.39 4.39-88.793 7.8-133.212 12.74a398 398 0 0 0-23.385 2.19q-4.996-10.26-9.868-20.58l550.596-52.54c94.55-8.41 189.02-17.58 283.42-27.52M629.031 348.031c15.675-.945 20.969 2.801 24.798 17.923 36.846 10.427 63.776 20.208 102.204 18.279-9.549 16.855-23.214 31.464-31.032 48.785-3.62 8.022-6.998 23.789-9.319 33.173-8.375-3.804-24.468-16.348-31.486-12.866-2.097 3.189-1.433 5.66-1.188 9.6-6.556 8.912-32.926 23.208-44.135 26.948-5.483 1.829-14.026-1.087-19.016-4.592-16.099-11.307-33.222-34.005-40.835-52.069-3.873-9.19-6.443-21.752-8.582-31.281 41.73-13.225 37.327-43.468 58.591-53.9"/><path d="M643.445 446.378c11.84 2.041 3.218 11.645 14.353 18.073 1.208.698 4.941 3.214 6.365 4.141 1.118 2.829.505 2.365-1.054 6.244-13.935.607-23.869-15.712-19.664-28.458m47.478-39.055c4.316 1.242 5.05 5.261 9.599 8.671 4.762 3.569 7.085 5.202 12.347 8.062 1.389 3.526.86 2.736.117 7.098-12.05-1.387-28.745-8.869-22.063-23.831m14.049-14.476c12.789-.544 27.535 7.387 25.571 21.863-1.614-.3-2.592-.706-4.132-1.233-5.21-6.529-10.781-10.143-18.552-13.246l-1.147-.45c-2.349-3.254-1.623-2.179-1.74-6.934"/><path fill="#fff" d="M1486.94 372.566c27.11-1.861 28.72 2.546 50.79 18.478-30.83 1.935-64.44 2.608-95.6 3.986l-243.02 9.804c-99.25 3.672-202.03 9.307-300.871 11.341l-48.818 1.883c10.551-6.786 21.258-14.25 31.678-21.302 22.459-.522 46.833-2.107 69.498-3.05l170.903-7.079 232.54-9.176q66.465-2.107 132.9-4.885m-378.81-133.511c5.23 3.161 11.36 6.218 16.81 9.09 1.85 36.394 1.81 73.48 4.12 109.749-55.62.701-118.03 3.736-173.879 5.758l-25.635.693c17.697-14.149 46.275-32.633 65.63-46.109a10676 10676 0 0 1 112.954-79.181m72.55-52.308c6.81 1.287 223.03 143.886 248.28 160.268q-21.63.64-43.26 1.757c-11.05.271-22.11.664-33.16 1.177-6.97-4.743-14.7-9.624-21.9-14.002-64.13-38.999-126.57-83.852-192.78-119.028 13.87-10.125 28.68-19.901 42.82-30.172m584.15 374.309c7.93 4.808 15.36 9.842 23.06 15.013 1.41 17.758 1.58 37.794 2.32 55.877l5.11 163.992 5.49 162.734c1.4 40.129 3.33 82.538 3.2 122.618a681 681 0 0 0-23.64-14.55l-8.31-283.12c-2.32-73.316-5.99-149.411-7.23-222.564M1632.8 1075.47l.73.4c1.53 3.24 1.09 8.51 1.1 12.33-41.45 4.78-83.34 7.89-124.88 11.89l-238.23 23.12-501.573 48.95c-1.251-.43-.727-.28-1.786-1.64.629-4.3 3.049-9.1 4.842-13.22 21.543-.62 59.665-5.52 82.032-7.59l190.035-18.15zm111.96-762.292c3.35 3.793 5.85 157.432 6.32 173.617-14.13-10.217-31.28-20.813-46.03-30.574a1639 1639 0 0 1-34.28-22.834l-2.84-95.389c24.23-8.447 52.26-17.259 76.83-24.82m-248.38 91.396c7.19-.589 14.75-.628 22-.791 74.44 44.438 147.33 96.953 223.02 141.491l-46.41 1.922c-8.71.551-17.64.897-26.37 1.335-18.07-10.202-42.07-27.311-60.17-38.881-52.1-33.303-103.4-70.07-155.43-103.226zm-631.625 24.994 18.277-.778c.338 38.934 11.633 389.016 7.714 394.368-7.693-4.915-13.568-8.86-20.85-14.354l-4.429-241.624-1.782-89.587c-.264-13.983-.599-28.133-.753-42.119-.04-3.648-.21-3.983 1.823-5.906m308.765-12.122c4.19-.192 3.86-.812 7.08.834 1.21 13.574 1.17 32.055 1.55 45.953l2.33 83.766 7.53 294.906-11.82.817c-1.19.047-2.11-.205-3.32-.406-3.03-5.041-2.51-37.886-2.78-46.344l-2.98-84.22-10.19-294.568zM397.644 741.46c7.171 2.481 15.297 2.377 22.802 2.337l44.152 327.523c2.387 17.44 24.943 173 23.86 176.91l-1.382-.81c-27.361-38.01-36.944-78.48-31.458-124.78 1.635-13.8 5.035-32.45 2.946-45.94-13.126-84.75-31.629-168.612-46.306-253.112-4.774-27.341-9.404-54.925-14.614-82.128M1508.89 478.847c4.71 1.41 11.74 2.64 16.71 3.663 3.54 145.805 7.91 291.589 13.12 437.344-5.77-2.982-10.6-6.071-16.07-9.51-2.78-49.518-3.34-103.535-4.94-153.413zm-147.76-69.783c8.01-.261 9.03.78 15.78 4.913.04 14.589 1.25 31.928 1.84 46.758l2.86 81.486 10.14 295.417-16.66.658c-1.36-90.087-5.41-184.17-8.81-274.321zm120.76 64.553 15.1 2.892c.01 44.614 3.41 93.402 4.63 138.402 2.59 95.631 6.91 191.899 8.59 287.534-4.66-2.408-11.17-6.658-15.8-9.483a34700 34700 0 0 1-12.52-419.345m-281.18-323.924c1.03 2.962.83 3.609.7 6.829-1.49 3.758-34.01 26.217-39.7 30.323a6090 6090 0 0 1-87.86 62.172l-173.777 121.71c-20.478 14.076-41.786 27.359-62.009 41.568q-62.267 44.685-125.065 88.619c-17.097 12.072-41.545 30.77-59.062 41.209-1.769-2.371-1.801-2.54-2.987-5.291 2.232-4.401 102.331-72.784 113.619-80.544a25952 25952 0 0 0 362.581-253.537c24.75-17.472 48.76-35.674 73.56-53.058m557 167.675c4.37 2.452 23.86 17.914 27.49 21.219l4.59 172.028c-3.7-1.555-22.42-14.255-26.91-17.203-1.38-21.685-1.36-46.76-1.86-68.739-.8-35.777-1.91-71.547-3.31-107.305m-419.8 93.619c4.25-.229 7.56-1.094 10.67.895 4.23 10.218 13.94 383.239 14.5 426.91-3.15.18-4.98.261-8.13.029-2-2.263-1.81-1.865-1.93-4.969-5.77-140.79-7.96-282.152-15.11-422.865m-799.713-10.039c.794-.193 18.108 2.286 21.716 2.396 3.176 24.356 5.836 32.082 16.811 53.081-13.429 12.653-29.185 23.262-44.207 34.038-5.008 3.878-10.024 7.36-15.205 10.985l-12.844-86.809c11.23-4.416 22.536-9.137 33.729-13.691m1007.543-5.355c18.66 10.78 41.21 26.731 59.91 38.666l155.88 101.425 119.78 79 57.66 37.948c4.72 3.041 13.52 6.866 16.5 11.237l-.63 1.517-5.3 1.428c1.09.106-379.23-242.854-410.38-264.032 2.95-2.532 4.17-4.21 6.58-7.189m-400.81 21.96 3.69 1.001c1.65 2.204 2.64 51.292 2.88 58.221l8.84 249.112q1.665 41.615 2.67 83.251c.29 10.287.84 21.663.81 32.034 0 2.341-1.29 2.612-3.36 4.196-2.92-.743-3.53-.942-6.25-2.23-.9-5.223-1.06-26.621-1.23-32.93a6175 6175 0 0 0-2.02-66.663l-8.37-250.902c-.54-17.948-2.2-53.446-2-72.832.01-.906 3.03-1.744 4.34-2.258m67.43-258.205c7.8 4.489 20.66 13.655 28.48 18.885a5309 5309 0 0 1 55.95 37.56c79.98 54.23 162.65 105.316 243.92 157.576a8798 8798 0 0 1 236.79 155.77 7290 7290 0 0 0 127.77 84.971l41.71 27.351c4.64 3.049 17.74 11.285 21.26 14.495l-.1 2.069c-6.49-1.795-39.46-24.962-47.34-30.074-88.75-57.509-176.05-117.346-264.78-174.908-132.03-85.649-266.02-168.115-396.27-256.511-6.08-4.131-46.62-30.56-49.22-34.012zM593.203 1327.38c9.482-1.23 37.214-.97 40.763 9.65-.243 1.89-.569 3.67-1.951 5.08-19.12 19.54-47.16 29.85-72.868 33.68-9.416.9-36.278 2.99-41.222-7.01-.098-3.49.751-5.51 3.13-8.26 17.941-20.73 45.996-30.23 72.148-33.14M1799.19 582.658c5.74 3.515 12.17 7.832 17.67 11.724 34.68 24.512 73.34 45.877 107.64 70.585-19.81-.303-46.25-5.045-66.26-6.541-15.44-1.155-44.73-21.779-56.79-32.207-.58-14.529-1.33-29.051-2.26-43.561m-317.75-227.224c2.92-.08 7.81 3.599 10.6 5.347-20.53 1.926-47.12 2.162-68.13 2.971l-120.01 4.775-390.05 15.252-12.981.084 9.942-7.356c39.705.208 89.859-3.029 129.999-4.513l259.78-9.594 122.3-3.748c11.56-.364 49.36-.959 58.55-3.218m172.74-13.406 2.29.746c.89 7.783.87 21.338 1.09 29.651l1.5 53.511c-15.03-8.721-35.04-22.667-50.04-32.436l-38.49-24.794a4593 4593 0 0 0 83.65-26.678m-452.69-170.321c84.53 51.804 166.45 113.171 251.3 165.073 3.26 1.99 8.07 4.953 10.36 7.883l-.89 1.22-5.36.226c-2.93.007-9.17.515-11.4-.871-21.57-13.382-41.97-28.821-63.37-42.547l-190.85-122.982c3.06-2.62 6.97-5.492 10.21-8.002M841.453 430.084c4.335-.087 6.015-.836 9.409 1 1.881 5.208 2.293 89.73 2.494 101.371l2.417 149.913a7394 7394 0 0 1 2.2 117.543c-2.608-1.949-5.354-4.224-7.927-6.266.009-45.093-1.925-92.837-3.088-138.026zm346.497-131.775c4.2 1.524 31.45 19.557 36.68 22.977 15.2 9.928 32.82 20.047 47.67 30.186l-.68 1.22q-40.68.867-81.3 3.164c-.7-18.864-.79-38.859-2.37-57.547m-59.29-73.499c16.5 9.73 30.13 18.112 46.17 28.588 1.09 10.445 4.81 99.553 2.92 102.216l-3.5.258-14.87.335c-.95-35.421-2.1-70.836-3.43-106.244-10.61-6.628-24.88-13.56-36.2-18.918zm408.21 251.797c42.05 26.044 83.4 55.075 125.65 81.591-.01 3.721.1 7.966-.11 11.634-7.89-2.973-33.18-20.349-41.69-25.963a6912 6912 0 0 1-81.77-54.435zm-843.446-8.811c7.38 3.456 14.081 6.292 21.616 9.369-19.214 11.715-47.109 32.604-66.48 46.138-1.4.952-1.819.942-3.483 1.527-4.838-2.413-12.653-16.518-15.821-21.653 24.728-3.228 47.945-16.614 64.168-35.381M1158.45 883.45l8.47.282 9.55 9.622a5078 5078 0 0 1-109.72 5.912c-4.58.417-10.32.508-15.01.708l-2.8-13.296zm-129.13-10.951c10.8 6.303 13.42 33.03 12.52 44.099-.99 12.283-18.81 23.318-28.15 30.547l-7.12 5.787c8.43-19.539 11.09-29.275 13.53-50.401.77-6.639 7.01-23.32 9.22-30.032M391.196 1107.38c3.63.45 2.999-.15 5.517 1.79 7.035 25.18 13.192 64.07 18.842 90.91 3.93 18.66 12.877 59.44 14.753 77.21-3.213-.15-4.019.03-6.766-1.42-3.274-10.41-33.052-160.24-32.346-168.49M1186.4 258.488c10.06 3.373 56.84 35.39 67.75 42.328l49.19 31.139c8.43 5.319 21.11 12.824 28.74 18.696l-12.76.278c-8.67-6.374-21.62-14.27-30.85-20.272l-66.2-42.593c-10.89-7.022-22.26-14.271-32.89-21.727-3.03-2.13-2.49-3.968-2.98-7.849m351.45 243.039c5.38 2.911 15.69 10.144 21.28 13.827l41.28 27.112 39.91 25.869c6.68 4.301 13.61 8.719 20.26 13.112 2.26 1.49 2.01 4.277 2.39 7.078-12.07-3.336-109.24-68.102-123.85-78.426-1.57-2.275-1.21-5.664-1.27-8.572m-117.98-94.252 14.19-.047c9.39 7.43 22.56 15.384 32.79 22.041a3854 3854 0 0 1 45.67 30.413c4.7 3.156 20.84 13.59 24.35 16.925-5.29-2.226-27.32-10.607-29.99-12.161-16.91-9.839-35.25-22.948-51.84-33.916-8.1-5.352-28.65-17.809-35.17-23.255"/><path fill="#fff" d="M1136.69 252.318c2.56 1.406 5.69 3.628 8.19 5.285 1.24 33.159 2.31 66.325 3.22 99.494-3.11.107-4.12.042-7.2-.427-1.64-2.686-3.89-95.825-4.21-104.352m-106.83 567.065c2.1.586 2.07.722 4.03 1.741l.57 2.129a3543 3543 0 0 1-28.46 88.19c-4.69 14.335-12.584 41.808-19.815 54.096l-1.389 1.127-.629-1.096c1.855-13.896 12.665-41.236 17.313-56.179l17.86-57.986c2.82-9.081 6.88-23.643 10.52-32.022m157.49-542.767c4.95 1.888 39.32 24.259 45.41 28.461 22.68 15.645 49.51 30.84 71.6 46.48l-10.51-.018c-9.14-6.923-22.65-14.964-32.5-21.13a2827 2827 0 0 1-49.15-31.314c-7.52-4.899-15.28-9.962-22.63-15.134-2.43-1.71-1.95-4.15-2.22-7.345M553.542 667.738c2.319 3.566 5.519 103.686 5.205 112.566l-1.066-3.724c-4.248-29.6-10.311-65.666-13.047-94.94zm850.688-259.146a2137 2137 0 0 1 79.19 52.616c-1.91 1.205-6.2 1.277-8.76 1.544-25.15-17.277-56.32-35.689-79.98-52.901 2.27-1.402 6.66-1.16 9.55-1.259m398.15 234.231c4.23 2.006 18.85 12.452 21.95 16.247-6.9 1.206-11.98-3.515-17.44-7.466-4.34-3.14-4.09-3.887-4.51-8.781"/></svg>