<svg xmlns="http://www.w3.org/2000/svg" preserveAspectRatio="none" style="display:block" viewBox="0 0 2048 1462"><path fill="#fefefe" d="M0 0h2048v1462H0z"/><path d="M449.05 72.377c8.019-1.222 42.213 5.983 51.739 7.696l80.968 14.665c20.625 3.713 43.839 6.884 64.277 11.942 4.452 1.101 8.049 5.763 10.819 9.3 1.961 13.799.588 25.176 6.789 38.67 16.051 34.93 65.226 47.499 97.952 29.503 9.033-4.967 17.597-11.321 27.014-15.368l1.179-.496c34.366 2.531 72.457 11.506 107.104 14.885 13.395 1.306 12.084 20.077 13.035 30.613 3.737 41.402-2.649 78.883-12.337 118.767l16.829 22.05c11.594-6.999 24.39-13.55 36.397-19.948-5.247-24.126-11.88-50.509-13.231-75.033-.479-8.684 30.73-16.912 37.261-15.957 8.938 4.589 30.485 53.209 37.435 66.132 8.68-1.518 30.54-8.32 39.46-11.026-1.85-23.135-1.18-52.394 1.02-75.493.89-9.365 32.63-10.741 38.82-8.471 9.94 7.741 20.04 61.031 22.57 74.391 13.02.076 27.57-1.446 41.54-1.531 6.11-23.731 7.18-50.531 17.27-72.796 3.06-6.747 37.92-3.162 39.16-.504 8.6 18.414 6.58 55.843 7.96 76.15 14.11 2.648 26.28 4.712 40.54 7.837 7.12-17.844 20.28-53.3 33.38-68.024 1.83-1.88 9.1-2.038 11.05-1.082 18.51 9.045 33.04.467 29.28 27.245-2.9 20.674-6.46 40.022-10.98 60.461l15.05 5.968c2.08-24.173 14.5-33.252 36.92-38.476 9.58-14.627 19.12-21.412 37.36-22.517 45.12-2.735 88.41 15.23 129.66 31.241 34.26 13.3 68.29 28.364 101.32 44.47 50.72 24.534 91.86 59.358 117.15 110.28 8.62 17.373 19.91 36.528 29.59 53.777a11724 11724 0 0 1 112.65 203.058c11.89 21.714 21.41 43.125 38.08 61.461 5.26 5.785 13.33 13.775 8.77 21.718-9.51 6.034-18.02-4.214-23.77-10.416-53.24 73.031-121.34 144.429-200.28 189.721 40.2 66.94 91.1 130.99 138.96 192.72 18.82 24.28 38.81 47.98 57.21 72.65 2.41 3.23 5.94 8.2 5.69 12.42-.15 2.65-1.41 4.73-3.51 6.32-1.66 1.25-3.59 1.67-5.62 1.37-1.65-.14-5-1.78-6.01-3.04-62.6-78.41-125.71-156.75-181.94-239.96-6.06-8.97-12.24-17.675-17.77-26.972-9.17-15.4-17.62-31.326-27.86-46.067-15.75-19.877-32.87-39.523-48.84-59.505-19.05-1.699-34.72-3.58-53.54-6.943-3.31 13.007-8.1 26.278-12.6 38.952 13.26 7.194 54.53 30.092 62.47 41.795 1.5 7.466-8.82 34.72-16.43 38.526-14.5 1.674-58.3-15.512-72.38-22.217-5.68 10.07-13.31 24.609-20.24 33.351l1.37 1.03c10.77 8.14 48.67 40.68 52.27 54.81 1.48 5.79-18.41 25.36-23.94 30.78-16.35-3.75-53.3-27.29-66.71-38.3a756 756 0 0 1-29.13 29.18c16.44 21.99 27.58 39.66 38.98 65.09-7.63 10.13-21.19 21.2-31.96 27.99-23.22-16.49-38.3-32.57-57.36-52.84-11.02 8.05-19.24 13.03-31.07 19.71 8.81 19.34 20.26 53.58 23.08 74.45-.38.34-.77.67-1.16.99-6.04 5.01-29.81 17.84-35.01 15.74-10.81-4.36-34.79-46.19-40.5-55.77l-3.5-7.8a969 969 0 0 1-39.27 13.61c5.24 20.03 9.45 55.02 5.5 75.28-.73 3.77-35.27 12.42-38.22 8.57-12.98-16.97-21.77-50.1-26.33-70.59-13.68 3.03-29.71 3.81-43.93 5.71.29 19.39-1.53 53.56-8.47 72.3-2.44 6.61-34.43 5.64-40.52 1.76-7.15-8.45-10.09-61.32-9.43-74.33-13.84-1.45-27.66-3.07-41.46-4.85-4.99 21.44-14.08 49.68-25.91 68.27-3.86 6.08-37.34-2.34-38.45-6.03-5.65-18.78.99-58.64 4.09-77.12-11.71-4.37-26.285-8.84-38.486-13.09-9.894 20.09-24.376 44.23-40.283 60.01-7.874 7.81-37.741-13.33-37.747-15.57-.05-19.1 14.925-55.52 22.175-72.52-12.437-6.6-21.805-13.27-33.293-21.38-11.651 14.62-38.394 42.78-55.933 50.19-5.565 2.35-33.053-25.7-32.511-28.55 3.344-17.59 28.04-47.64 39.172-60.91a780 780 0 0 1-29.613-30.04c-17.216 11.46-44.335 30.25-64.397 35-4.858 1.16-25.732-26.48-23.173-31.76 8.652-17.86 34.638-41.58 49.64-53.62l-20.528-33.171q-1.466.744-2.944 1.465c-16.084 7.878-48.206 18.791-65.985 19.843-4.833.286-21.019-32.019-16.801-37.536 12.185-15.932 42.672-35.007 60.335-42.728-4.601-12.878-8.831-26.864-13.022-39.935-24.669 8.536-53.338 3.139-72.298 15.282-2.588 1.658-16.752 26.54-17.574 30.811-2.059 10.689-2.891 25.906-3.764 37.429a5249 5249 0 0 1-4.8 60.6c-6.342 76.69-12.293 157.12-20.244 233.5-25.551 34.57-64.941 25.31-100.607 19.27-15.26-2.51-30.553-4.82-45.873-6.92-.678 16.4-1.735 117.05-6.751 123.37-1.555 1.96-3.716 2.89-6.147 2.95-2.194.06-4.352-.97-5.78-2.63-1.64-1.9-2.642-4.84-2.875-7.31-1.497-15.97 1.029-48.5 1.611-65.73 1.961-57.99 5.874-115.94 7.497-173.92-24.659-.78-51.85 1.09-77.817.18-69.05-2.42-129.177-14.17-194.754-35.39-15.987 77.97-28.569 157.02-43.808 235.19-1.876 9.63-2.903 29.55-12.254 34.11-1.251 0-2.655.23-3.779-.34-2.726-1.37-4.935-3.21-5.743-6.3-2.275-8.69 24.625-139.14 28.289-158.59a6118 6118 0 0 0 36.594-204.697c15.977-102.296 29.566-204.609 49.59-305.562 20.172-101.703 91.497-137.611 182.332-166.604 15.198-4.851 30.729-10.071 46.252-14.718 4.759-49.869 7.467-100.437 11.239-150.42 1.271-16.842 2.699-34.298 3.27-51.128-12.533-2.358-29.952-3.604-29.849-20.955.189-31.832 7.095-64.057 10.204-95.765.434-4.425 1.249-8.373 1.27-12.887-10.824-5.433-100.291 31.002-117.915 36.962a223 223 0 0 1-31.07 8.034c-20.249 3.528-48.462 2.869-53.151-22.601-4.006-21.759 25.456-38.917 41.324-49.111 48.636-31.248 115.693-70.493 173.425-77.711"/><path fill="#fefefe" d="M1412.96 280.326c47.48-6.835 123.44 30.979 167.72 48.73 24.01 9.625 58.69 25.505 80.57 38.438a227.6 227.6 0 0 1 38.64 28.549c26.72 24.432 34.94 42.298 51.42 73.872a2233 2233 0 0 0 29.08 53.685 11233 11233 0 0 1 132.39 238.396c-44 66.169-126.14 151.157-196.55 187.79-15.81-26.667-29.44-40.742-49.03-64.466-21.34-25.859-42.08-52.009-61.06-79.653-27.07-40.909-40.75-69.223-47.97-118.072-3.09-20.915-3.37-44.445-13.68-62.68-23.37-41.322-71.16-65.15-98.17-103.626-4.76-6.568-10.95-17.961-8.89-26.374 4.42-18.133 39.4-4.516 49.11.254 16.84 8.281 32.79 19.539 48.55 29.657 25.3 16.25 50.98 30.981 77.87 44.446 13.9 6.99 26.49 14.469 41.55 18.939 4.93-1.073 8.67-5.911 6.73-9.709-6.37-12.436-40.38-25.477-52.67-31.384 9.55-7.796 22.62-13.951 28.49-24.717 4.61-8.446-6.13-33.731-14.26-35.279-22.41-4.268-55.3 12.445-75.35 21.346-6.17-9.304-2.24-11.798 4.17-21.2 13.25-19.439 25.51-42.562 20.22-66.829-11-50.452-63.05-60.769-99.89-85.647 10.13-50.938-54.27-19.755-78.19-15.982l-1.3.197a69 69 0 0 1-2.77-1.83c-2.88-2.024-4.54-4.017-4.6-7.632-.3-17.177 12.91-27.35 27.87-29.219M498.488 517.377c12.959-1.126 60.094.945 44.298 23.485-28.34 40.437-99.762 38.036-131.244 77.341-17.98 22.447-4.599 64.364-2.765 92.141a169.7 169.7 0 0 1-3.333 47.283c-6.007 29.378-18.384 55.107-32.554 81.365-4.688 8.687-23.495 30.11-20.675 38.932a8.06 8.06 0 0 0 4.866 5.151c8.467 3.26 14.825-10.048 18.818-15.715 19.421-27.564 32.218-57.726 42.289-89.67 6.251 18.381 8.937 48.182 10.865 67.75 1.756 29.486-11.432 48.272 30.046 39.532 53.079-11.186 104.378-1.19 158.069-1.683l-.26.491c-19.948 36.889-78.133 70.421-117.79 81.348-7.733 2.131-32.849 7.389-37.488 10.373-2.879 8.456-9.747 40.439-11.64 50.069-4.777 24.31-15.62 62.93-16.333 86.44-18.991.45-35.429 2.09-55.242 1.84a728 728 0 0 1-212.067-35.94l36.267-230.806a2431 2431 0 0 1 20.718-122.579c3.253-16.91 6.516-38.112 11.685-54.229a163 163 0 0 1 32.255-57.957c28.703-32.848 58.025-45.867 98.076-60.208 42.837-15.338 87.341-31.599 133.139-34.754M449.926 90.32c7.605-1.38 168.155 28.814 188.86 33.243 5.258 54.331 35.875 85.314 92.122 86.997 21.112.632 38.024-9.321 55.555-19.687-.386 46.564-6.014 89.328-26.234 131.92-12.079-14.062-23.042-23.578-41.822-28.115-36.803-8.893-75.951-13.873-103.954 17.568-10.649-1.21-21.664-2.861-32.316-4.313-9.633-.475-29.75-3.923-40.035-5.451a1536 1536 0 0 1-73.68-12.032c7.426-31.95 13.117-77.635 16.132-110.296-1.473-2.668-2.814-4.647-4.494-7.166-38.59-57.864-199.138 63.13-228.699 24.556-.095-2.11.048-4.923 1.83-6.459 49.774-42.898 132.357-89.491 196.735-100.764"/><path fill="#fefefe" d="M663.203 306.274c26.75-2.623 69.79 4.504 83.497 29.506 3.088 5.633 9.429 21.036 15.248 22.814 26.967 8.24 56.185 9.413 83.777 16.025 4.531 5.257 10.057 13.068 14.348 18.781-9.865 7.922-22.477 19.422-31.428 28.062-19.516-12.955-41.834-31.048-63.105-39.322-6.868 4.511-29.007 27.14-26.288 33.946 6.753 16.9 35.807 40.59 48.81 53.955-9.436 11.567-15.629 20.138-23.428 32.822-16.769-7.549-39.907-18.25-57.067-23.941-5.41-1.833-9.961-2.706-15.557-3.876-9.382 9.468-17.283 25.23-21.095 37.902l.678.843c10.179 12.8 47.413 34.093 63.096 44.428-4.461 9.496-9.602 24.189-13.668 34.426-5.304-1.184-8.138-2.138-13.274-3.993-.57-29.339-25.058-56.825-51.702-67.543-23.034-9.266-43.228-.423-64.416 9.295a5525 5525 0 0 0 11.112-120.37c2.271-26.15 5.132-53.183 6.778-79.302 28.402-1.165 19.257-19.148 53.684-24.458M602.966 928.99c.926 12.042-5.45 63.124-6.633 78.13a8993 8993 0 0 1-12.576 154.42c-1.477 17.13-3.902 58.04-7.242 73.1-5.114 5.14-9.077 7.44-15.655 10.22-11.522-.92-28.206-4.15-40.094-6.06l-71.931-11.53c.274-30.23 3.739-63.11 4.52-93.61.262-10.25-2.06-27.53-.504-35.96 4.735-25.69 10.742-52.88 16.564-78.31 1.899-6.52 5.619-27.309 9.775-30.456 5.664 13.376-17.099 164.466-17.156 188.716-.02 8.54-6.53 32.75-2.708 39.48l2.227.36c3.656-3.86 24.837-210.31 25.73-230.703 41.175-6.642 83.168-32.782 115.683-57.797"/><path d="m578.225 990.354 2.817 1.659c2.374 4.806-2.69 45.087-3.443 53.327l-10.022 107.28-4.909 52.09c-.691 7.75-1.139 19.52-2.632 26.64-2.39-.45-2.523-.66-4.588-1.81-.805-2.21-.726-2.53-.494-4.97 5.418-56.81 10.701-113.83 16.35-170.6 1.061-10.66 4.347-56.793 6.921-63.616"/><path fill="#fefefe" d="M484.898 312.029c33.281 5.991 73.306 8.946 106.051 16.275-6.929 77.633-11.084 156.012-21.953 233.197-2.157 6.708-8.904 12.5-12.4 18.223-7.501 12.281-5.169 33.75-2.53 47.173.436 2.219 6.586 12.951 7.911 16.055l-2.251 2.509c-3.722-.212-15.587-13.248-24.079-15.814-22.383-6.764-47.575-9.377-70.717-13.075.744-4.417.988-9.127 1.336-13.613 34.454-12.342 83.661-24.973 96.75-63.317 3.135-9.183 1.876-22.121 2.847-32.048l11.438-114.065c1.132-11.639 8.87-50.147.123-56.663-6.268-.631-8.128 3.109-8.82 8.978-2.202 18.655-4 37.41-5.881 56.107l-11.089 108.916c-20.949-11.863-35.352-11.587-58.757-11.556.745-16.374 2.971-35.533 4.445-52.09a4500 4500 0 0 0 5.985-72.992c1.193-14.511 2.6-29.119 3.345-43.638.247-4.804-4.05-8.086-8.551-8.521-7.271 4.945-6.796 25.322-7.613 34.302l-8.311 97.698c-1.102 12.757-1.571 25.617-3.05 38.32-.498 4.273-2.062 10.761-7.303 10.291-2.393-4.953 11.002-171.91 13.074-190.652M1296.75 492.82A289.86 289.86 0 0 1 1402 597.004c7.69 12.801 15.45 27.241 19.53 41.642a1884 1884 0 0 1-52.77 6.619 7816 7816 0 0 1-93.99 10.108c-4.7-6.262-13.7-15.793-19.17-21.924 15.08-46.5 26.31-94.56 41.15-140.629m-283.7 337.787c1.45-.21 7.13-1.022 8.11-.608 6.28 2.643 14.93 15.906 19.07 21.271l-38.16 138.063c-22.854-14.821-39.372-25.363-58.403-45.028-32.2-32.091-50.631-59.769-68.868-101.25 13.638.138 36.652-2.6 50.901-3.882a2946 2946 0 0 0 87.35-8.566M803.114 187.499c22.587 3.106 65.929 10.704 87.322 11.714 6.127 46.484 2.357 94.563-14.266 138.877-1.949 5.195-5.412 13.447-8.438 18.021-1.739 2.628-2.318 2.203-5.005 2.519-30.587-5.521-61.896-9.17-92.453-15.588 25.465-51.186 35.36-98.027 32.84-155.543M1187.52 883.2l1.75.26c25.63 30.948 68.1 88.814 90.42 118.17-15.21 7.72-43.92 17.06-60.48 20.64-31.35 7.45-53.2 7.87-84.59 7.87 7.26-25.22 13.79-55.957 20.09-81.909a2172 2172 0 0 1 16.64-61.957c4.78-.523 11.3-2.065 16.17-3.074m-28.93-430.69c1.81-.124.96-.326 2.49 1.001.72 8.298-31.37 128.494-35.85 143.678-4.98 1.587-10.24 2.631-15.36 3.751-12.84-15.907-25.59-33.057-38.04-49.356-17.77-23.177-36.26-45.876-53.69-69.274 47.77-21.791 88.69-28.872 140.45-29.8M910.533 568.468c6.086 3.68 82.329 101.577 93.197 115.236l-4.118 13.719a4470 4470 0 0 1-56.375 5.333 7019 7019 0 0 1-86.65 7.497c5.292-48.639 24.21-102.588 53.946-141.785m517.727 204.924c2.18-.311 7.53-.432 9.97-.564-8.19 52.662-20.32 94.488-50.84 139.169l-38.68-48.346c-17.49-23.26-39.89-49.776-58.27-73.134 43.74-6.989 93.1-11.58 137.82-17.125m-780.224-42.135c5.367-.04 25.321 29.912 24.724 35.972-2.524 25.594-34.692 20.248-52.951 24.689-28.59 6.954-52.068 14.369-81.559 15.096l-21.64.1c17.116-20.481 19.962-35.87 7.252-59.958 41.94-7.118 79.866-6.291 124.174-15.899m8.55-90.385c2.51.22 1.305-.176 3.345 1.331 26.15 19.308 19.088 52.447-6.717 67.843-4.302 2.567-14.462 4.894-20.097 5.958-31.755 5.996-64.488 8.374-96.685 11.596-1.525.261-8.646.59-10.53.713 21.314-19.197 27.156-38.111 18.229-65.385 3.219 2.175 11.44 7.61 14.723 8.56 24.014 6.952 76.208-20.083 97.732-30.616"/><path fill="#fefefe" d="M1150.17 395.46c10.53-.517 23.9 1.231 34.33 2.235 158.63 15.276 290.99 139.133 307.02 299.378.82 8.166 4.39 29.519-1.72 34.105l-2.5-.308c-3.92-.651-4.02-16.122-4.48-20.546-4.46-43.126-13.26-79.288-31.87-118.285-28.99-58.198-67.35-100.831-122.81-135.25a345.83 345.83 0 0 0-250.34-43.207c-13.03 2.848-27.01 6.615-39.73 10.756-11.3 3.68-22.36 8.858-33.96 11.562-2.75-1.224-2.66-1.088-4.372-3.534l.552-2.131c3.71-3.511 14.57-8.082 19.74-10.208 43.89-18.045 83.55-23.194 130.14-24.567M645.96 536.805c9.268.266 19.5 10.049 25.506 15.732 41.478 39.243 7.067 56.216-28.447 74.493-5.936 3.055-15.901 10.073-22.669 9.784-.582-2.422.26-2.535 2.004-5.523 7.754-17.659 9.453-38.444-8.975-50.722-11.524-7.678-26.229-4.322-38.854-1.446 16.067-12.333 52.978-33.764 71.435-42.318m-7.24 269.55c1.455-.195 9.787-.089 11.744-.101a86 86 0 0 1 1.208 9.116c1.557 18.737-1.834 30.179-13.771 44.285-24.696 8.85-53.306 5.312-79.118 3.443-5.285.046-12.223-.814-17.608-1.324 6.62-15.687 6.17-20.808 1.11-36.882 16.107-1.262 26.854-2.341 42.647-6.113 17.814-4.254 35.716-10.092 53.788-12.424m508.47-101.986c6.79-.195 11.81.515 18.08 3.246a46.57 46.57 0 0 1 24.95 25.676c8.03 20.609-2.27 34.454-21.5 41.569-41.49 3.088-46.75-29.616-45.1-63.334 8.87-4.174 13.89-5.901 23.57-7.157M910.363 977.973c2.527 1.468 12.69 10.649 15.881 13.417 10.024 8.69 18.939 16.26 29.844 23.91a336.24 336.24 0 0 0 200.572 60.68c16.06-.4 32.07-1.8 47.96-4.2 9.24-1.46 28.79-9.47 34.1-1.52-.55 2.62-.3 1.75-2.93 3.87-25.15 7.01-55.74 10.91-81.82 11.17-96.27.93-181.298-34.48-249.979-101.37zm-96.992-335.737c2.367.937 6.401 2.939 5.595 5.957-21.904 82.077-12.045 168.899 28.029 243.923 6.097 11.414 14.428 23.047 20.63 35.458-.798 2.554-2.467 2.976-5.106 4.808l-1.738.043c-4.633-4.571-11.058-15.895-14.471-21.802a350.6 350.6 0 0 1-43.368-117.925 319.8 319.8 0 0 1 1.593-123.678c1.78-8.552 3.871-19.728 8.836-26.784m-311.784 16.028c38.225-4.592 37.595 47.753 6.628 57.08-6.004-.204-10.583-.42-15.999-3.345a28.07 28.07 0 0 1-13.792-17.371c-5.14-18.51 5.822-31.545 23.163-36.364m963.263-305.19c17.42 8.067 45.64 23.206 61.48 33.782-9.41 3.895-14.07 4.022-24.09 4.948-15.39 1.554-32.09 2.223-47.62 3.125-2.79-2.015-6.01-4.915-8.68-7.194a570 570 0 0 0 18.91-34.661M489.124 748.193c27.867-3.294 34.878 34.71 10.298 47.793-22.86 6.839-28.556-17.423-22.774-34.006 2.844-8.157 4.949-10.059 12.476-13.787m4.65 77.945c6.703-.133 21.021-1.113 26.906.055 16.008 3.176 7.658 26.962-2.835 33.487-6.801 1.367-15.495 2.58-22.156.217-17.301-6.136-19.537-25.834-1.915-33.759"/><path fill="#fefefe" d="M592.198 593.25c9.992-.351 11.996 1.361 17.531 9.448l1.085 11.512c-4.68 10.718-9.753 20.532-21.628 23.607-18.166-5.137-20.581-23.078-19.609-39.09 7.991-2.248 14.52-3.769 22.621-5.477M454.81 176.309c5.866 2.751 8.329 4.753 12.588 9.401a3348 3348 0 0 1-16.253 100.068l-1.273 1.03c-3.537.258-3.997.254-7.346-.882l-1.161-1.64c2.975-30.783 9.997-78.841 13.445-107.977m649.71 553.471c2.18 2.685 1.13 14.501 2.43 18.668 6.07 19.235 17.74 36.997 37.97 43.07 17.24 5.18 30.03.74 45.18-7.206-2.67 2.688-5.52 5.004-8.41 7.453-5.09 3.447-10.42 6.491-16.36 8.168a51.2 51.2 0 0 1-39.5-4.845c-22.16-12.52-34.55-42.06-21.31-65.308M435.603 619.687l1.092 1.132c.338 6.227-7.521 89.063-8.879 90.787l-.535-2.441c-2.234-20.145-8.122-44.052-6.973-64.242.653-11.454 6.833-18.399 15.295-25.236m253.725 142.319c3.903-.182 5.802-.555 9.519.723 1.429 3.616 2.896 33.684 3.41 39.718l-20.136 2.427c-4.092.593-11.66 2.155-14.959-.254.832-9.169 20.961-7.663 22.166-42.614m679.142-459.25c2.93 3.162-.57 8.66.91 13.852 1.52 5.342 4.57 9.258 7.74 13.713 8.64 4.125 10.85 4.751 20.46 5.035-4.3 3.978-9 7.944-13.44 11.808-5.91-4.013-19.79-10.599-26.74-14.11l-3.1-10.475c3.06-11.191 5.14-13.214 14.17-19.823m84.72 595.809c1.96 1.122 7.48 4.002 6.62 6.471-5.22 15.039-21.02 39.327-32.01 49.897-2.33-.739-3.51-2.245-5.29-3.965-.72-4 26.82-46.471 30.68-52.403M687.745 648.387c5.202 1.042 14.295 3.972 19.676 5.522-2.678 14.568-4.074 29.912-6.82 44.676-3.996.367-8.877-.149-12.955-.417 7.968-18.505 7.203-31.129.099-49.781m797.225 111.332c3.47.054 3.87.008 7.14.99 2.99 4.77-1.46 33.367-2.91 40.07-3.77-1.054-4.79-1.253-8.09-3.299-1.41-3.733 2.63-32.553 3.86-37.761m10.07-352.201.38.271c-1.17 3.265-11.36 9.553-14.83 10.713l-2.22-1.56-7.83-7.674c9.34-.096 15.25-.67 24.5-1.75m44.8 49.402.65 1.409c-3.9 6.103-7.53 10.553-12.03 16.166-1.47-2.272-1.94-2.633-1.78-5.359 2.68-4.277 8.89-8.515 13.16-12.216"/></svg>