<svg xmlns="http://www.w3.org/2000/svg" preserveAspectRatio="xMidYMid meet" viewBox="0 0 2048 1462"><path d="M698.389 143.411c54.467-2.535 84.406 10.803 130.487 39.291 32.111 19.851 51.695 36.803 77.837 63.511 23.819-9.302 43.979-16.403 69.547-19.528 64.65-7.904 122.5 6.017 178.2 39.194 31.86-34.269 76.2-64.281 122.09-77.236 82.26-23.225 162.32-13.595 234.66 33.257 17.19 11.129 36.43 32.604 50.15 41.211 21.03 13.195 60.22-28.302 79.37-41.165a185 185 0 0 1 45.37-22.012c43.97-14.137 72.77-10.544 113.17 10.248-1.62-12.287-4.92-15.325-6.98-26.371-.38-2.061.93-2.831 2.21-4.17 8.95-1.929 13.78 15.667 16.37 22.537 6.62-5.106 24.98-16.299 33.24-10.909l.4 1.929c-2.95 7.791-11.86 11.588-18.94 15.871 9.86.169 32.69 1.425 36.73 12.557l-1.03 2.082c-6.84 3.893-30.4.203-42.8 1.031 17.84 17.713 30.14 31.62 35.98 57.022 12.97 56.406-10.56 108.019-39.48 154.737 17.03 49.394 38.46 34.206 64.37 67.946 82.55 107.482 80.9 262.741 71.89 391.545-3.44 49.186-2.15 95.451-7.48 142.771-4.95 40.47-10.25 80.89-15.89 121.27-3.47 24.42-7.63 48.58-9.73 73.16-8.55 1.1-23.2 5.14-32.22 7.07-16.6 3.49-33.41 5.94-50.32 7.33-16.97 1.35-35.23 1.78-52.4 2.88-27.46 1.76-65.41 4.46-92.75 2.19-22.69-1.88-68.16-16.36-88.45-27.75-6.17-3.45-20.2-14.25-26.66-19.2a842 842 0 0 1-99.79-91.57c-11.3-12.08-22.94-26.01-33.57-38.68-11-13.11-18.28-24.02-31.44-35.22-2.45 6.1-4.67 12.54-6.9 18.73-23.83 66.07-49.34 131.48-71.47 198.15-3.97 11.96-7.99 24.87-12.88 36.42-44.56 8.88-99.79 12.46-145.3 15.85-40.07 2.74-79.72 4.84-119.87 3.97-68.44-1.5-48.26-20.99-3.52-43.66-11.07-.57-27.21-2.3-36.78-7.92-2.73-1.6-5.31-3.93-5.99-7.15-.56-2.67.39-5.01 1.98-7.14 13.64-18.21 119.19-39.3 144.52-43.93 1.64-6.16 5.44-16.98 5.7-22.57-.84-1.7-1.79-3.5-2.29-5.34-1.61-5.85 48.02-205.316 53.15-227.016 7.96-33.68 14.21-68.08 23.85-101.316 5.39-18.604 12.29-36.845 21.88-53.714 9.62-16.928 25.17-36.478 44.9-41.706 12.72-3.371 25.29-.505 36.47 5.982 10.18-7.339 19.66-11.654 32.54-11.329 58.47 1.478 93.72 60.835 130.44 97.784 6.22 5.791 12.8 12.535 18.91 18.545-16.89-24.443-30.81-48.823-47.02-73.347-20.31-30.733-42.3-59.767-60.72-91.911-8.89-15.521-17.82-30.762-25.45-47.02-2.62-5.578-1.85-14.925-4.48-17.669-8.33-8.706-19.31-17.063-28.76-24.752-10.56 6.207-37.08 15.374-49.63 19.672-84.52 28.947-169.4 40.199-257.33 19.655-48.552 17.985-82.78 25.61-135.543 26.321-103.263 1.392-225.061-54.469-298.264-126.423-3.691 16.134-6.653 31.931-10.606 48.218a2388 2388 0 0 1-41.407 146.387c65.528-32.822 110.514.179 131.583 64.874 11.872 36.454 20.205 73.985 28.356 111.413l24.563 109.222a4323 4323 0 0 0 21.569 87.14c8.811 34.46 17.601 56.36 17.005 92.52 23.848 16.87 62.87 28.38 89.073 42.33 17.048 9.07 47.873 13.6 25.181 36.67 4.255 2.23 11.652 6.64 13.281 11.4 2.245 6.56-6.888 10.7-9.145 15.92-1.497 3.47-1.096 8.01-3.026 11.22-1.474 2.45-4.266 3.8-6.905 4.55-7.524 2.13-5.145 7.25-10.337 9.89-15.364 7.81-139.774-27.75-164.302-35.22-12.185-3.71-40.722-10.49-48.768-19.68-5.23-5.97-3.121-20.62-5.239-28.36-2.457-8.97-7.364-18.1-10.881-26.78-6.421-15.85-12.023-33.65-20.169-48.6l-.468-.85c-29.047 74.96-71.433 79.47-144.292 83.94-91.109 5.6-228.163-4.99-306.253-54.37a130.84 130.84 0 0 1-53.983-71.17c-3.753-12.04-7.201-30.54-10.088-43.34-7.149-.53-15.692.67-21.233-3.66-1.437-2.82-1.52-7.4-1.39-10.53 3.127-75.47 3.793-152.176 7.458-227.507a1707 1707 0 0 1 3.877-54.24c2.257-24.433 6.427-50.529 10.604-74.741 1.476-12.845 8.1-29.577 8.751-42.005.798-15.254-1.054-25.072 1.382-41.071a115 115 0 0 1-4.554-3.981c-24.293-22.652-8.907-61.939 8.966-83.177 6.498-7.722 13.788-15.252 20.726-22.605-11.356-57.018 14.711-96.59 50.386-137.049-11.362-59.659-4.304-124.008 47.432-163.841a146.12 146.12 0 0 1 108.948-28.911c70.285 8.973 113.264 50.82 103.063 125.444l12.09.718c12.829-33.684 23.706-64.819 48.305-92.202 40.28-44.842 115.733-87.882 176.163-91.961"/><path fill="#fefefe" d="M264.303 603.737c20.12 25.978 57.004 184.388 67.971 225.098 3.971 14.742 15.102 57.171 18.527 73.058-10.867-3.632-25.269-9.823-36.388-6.656l-.269 2.929c5.279 6.673 25.194 12.623 33.365 15.636 61.065 22.52 115.767 55.733 172.493 86.908 30.158 16.57 62.79 31.44 93.737 46.77-12.668 23.07-21.465 41.48-32.173 65.35-34.899-10.12-69.061-23-103.278-35.2-51.458-18.36-109.9-37.38-156.593-65.24-15.207-9.07-30.882-20.501-41.018-35.182-18.746-27.15-51.353-142.574-60.391-178.562-10.229-36.073-13.734-72.581-22.716-108.575-.299-1.197-2.81-1.533-3.808-1.777-3.405 1.383-2.415.487-4.571 3.231-.932 8.268 2.305 26.012 3.783 34.785 13.744 81.541 39.622 162.878 68.506 240.102 16.663 44.548 80.601 72.028 121.726 88.358-13.785 3.46-27.603 6.93-41.484 10.01-76.928 17.06-155.214 15.09-233.674 18.33l4.309-151.146c1.866-70.799 4.612-175.659 24.323-242.606 22.767 17.648 40.699 4.585 58.212-11.823 45.492-8.519 62.219-28.791 69.411-73.798m429.406-441.338c72.625-11.167 147.418 44.678 196.49 92.024-55.897 29.472-113.05 79.527-153.294 128.232-7.808-11.269-33.826-40.355-43.843-50.238-39.071-39.717-108.181-53.897-153.129-15.765-9.133 7.747-15.633 16.504-22.581 26.073-8.511-4.514-15.426-7.787-24.251-11.673 8.751-25.74 20.959-57.563 38.311-78.495 35.535-42.865 106.773-84.64 162.297-90.158m653.211 33.004c8.42-1.482 29.96-.137 38.6.829 56.96 6.376 115.26 28.166 152.09 73.858.59 37.296 19.83 55.336 56.91 55.144.25 11.088.45 16.471-1.75 27.359a190 190 0 0 0-12.21-7.621c-63.17-37.034-125.86-36.522-195.15-18.369-47.42 14.443-73.7 36.928-103.88 74.833-17.9-25.094-33.25-51.609-53-75.27-16.99-20.369-36.44-35.083-57.71-50.534 50.83-51.9 104.07-73.883 176.1-80.229m278.42 241.27c9.18 9.283 8.52 32.922 29.18 40.441 21.3 7.755 35.48 2.869 55.01-4.953 3.11 8.453 4.5 17.251 6.11 26.081-3.88 6.578-5.79 15.988-9.8 23.486-20.12 37.649-39.55 76.648-61.63 113.117-4.01 6.624-23.69 24.105-30.2 30.333a2618 2618 0 0 0-50.45 49.027c-5.46-6.349-11.05-13.572-16.33-20.151-36.71-46.791-71.93-92.798-121.42-126.231 6.75-3.124 17.38-6.702 24.69-9.628a268.7 268.7 0 0 0 47.51-24.344c11.36-7.489 26.73-23.638 36.37-28.641 36.61-18.998 67.63-31.316 90.96-68.537M901.513 268.155c4.444 2.999 23.677 24.525 28.371 29.821 32.396 36.551 62.52 75.278 95.886 110.971-32.876 34.528-117.019 75.158-161.526 93.45-6.664 2.773-13.908 5.351-20.696 7.904-35.286-37.693-60.43-77.104-95.485-114.071 35.603-43.99 103.108-103.103 153.45-128.075"/><path fill="#fefefe" d="M1451.66 333.428c49.85-5.53 96.13 11.845 138.06 37.076-9.48 40.592-28.09 83.573-59.91 112.744-16.87 15.462-75.12 15.88-98.22 13.502-52.82-9.452-103.13-43.12-139.76-81.275 45.68-56.745 86.24-76.81 159.83-82.047m-414.63 89.186c2.88 1.078 26.37 24.286 30.12 27.561 32.98 28.839 72.87 55.898 112.76 73.533-38.07 47.845-84.34 79.383-138.63 105.341-11-3.324-19.74-6.721-30.51-10.931-53.501-19.84-116.664-52.838-156.025-94.283 56.578-16.865 137.635-62.138 182.285-101.221m-576.182-37.391 3.018 1.117c1.551 4.131 1.33 24.456 1.853 31.071 4 50.633 19.851 87.177 66.002 113.483-28.51 60.516-50.266 110.383-69.78 174.006-5.995-4.923-18.747-12.944-25.607-17.537-15.899-10.197-32.354-21.966-47.862-32.854-5.661-26.873-11.375-51.983-19.358-78.308-3.303-10.893-14.67-33.181-15.431-42.185-1.846-21.862 3.303-51.296 7.308-72.651l1.279.39c60.671 17.998 84.177-26.484 98.578-76.532M289.253 521.835c19.012 8.647 32.91 14.72 53.248 19.046 29.237 69.355 39.469 141.613 53.083 215.158 11.942 64.512 27.52 123.756 44.534 186.819l-21.601-10.872c-17.446-8.192-35.802-17.217-53.72-23.898-26.843-95.464-45.533-194.185-78.994-287.686-7.847-21.926-21.436-36.945-30.004-58.006 15.429-13.314 25.222-21.39 33.454-40.561m869.517-234.042c59.4 41.7 72.32 66.156 110.29 127.528-2.48 3.377-5.22 6.531-7.98 9.684-23.91 27.382-45.72 56.417-68.1 85.069-6.83-2.835-13.26-5.866-19.95-9.001-41.71-20.009-90.59-56.446-122.24-89.925 11-10.549 23.77-22.23 33.43-33.852 25.12-30.209 47.98-60.342 74.55-89.503M623.277 522.016c76.939 28.284 134.732 28.461 212.857 8.216 38.354 42.251 95.553 73.731 147.36 95.625 9.856 4.166 21.306 7.983 30.636 12.964-1.29 1.628-4.54 2.134-6.75 2.731-20.359 6.46-57.901 12.601-79.238 13.81-86.772 4.917-175.239-27.923-246.506-75.679-25.322-16.968-43.799-32.913-66.213-52.686z"/><path fill="#fefefe" d="M538.253 543.011c20.619 14.186 31.739 25.269 57.182 32.929-13.406 57.853-32.272 117.478-49.202 174.415-2.461 2.357-5.7 4.864-8.39 7.029-19.005 15.294-34.637 33.625-51.002 51.681-17.852-5.318-44.593-18.786-60.648-27.963-5.057-2.894-9.704-5.876-14.6-9.015-8.306-28.055-13.411-72.273-20.375-102.272 6.699 4.484 66.506 45.068 67.32 46.839.816 1.775 1.61 3.566 2.371 5.364 3.201 2.051 1.791 1.534 5.877 1.458 1.115-.687 3.01-1.955 3.286-3.222 2.124-9.755 4.713-18.743 7.694-28.168a1115.5 1115.5 0 0 1 60.487-149.075M435.259 269.629c16.173 14.405 9.048 69.702 9.53 89.498.094 3.87 4.608 13.421 3.781 15.849-4.144 1.647-6.805 1.841-7.695 6.458 1.084 2.48 2.1 2.773 4.528 4.365l.866.558c.218 6.073-6.616 22.333-9.132 28.921-6.254-.266-12.883-.983-19.147-1.548-5.88-3.787-9.965-11.624-15.612-8.828-2.578 4.847-.505 9.636 3.304 13.248 7.291 6.915 17.476 6.675 26.851 6.246-17.829 32.957-37.994 35.039-71.77 25.634-11.16-3.107-12.784 20.508-14.045 27.857-2.839 16.55-4.542 34.056-4.84 50.912l-11.804-2.886c-13.732-4.442-23.5-8.343-36.455-14.718 9.627-28.841 3.201-39.205 5.022-65.183 1.405-20.048 9.566-50.349 14.744-70.023 3.637-3.562 23.383-.077 19.075-13.006-3.978-2.125-11.275 1.349-15.911-1.05-11.646-5.96-4.487-25.226 6.226-28.071 7.959-2.114 15.747 3.106 22.563 6.78 37.869.26 75.96-37.583 89.921-71.013"/><path d="M428.87 310.339a43 43 0 0 1 4.424.517c4.18.686 7.692 2.691 6.819 7.315-6.975 5.323-17.887 2.311-29.659 7.399l-1.067.468c-2.916 2.077-3.106 2.3-6.477 3.29-3.505-.748-2.43.005-4.407-2.516.73-11.782 21.287-15.386 30.367-16.473m-12.724 28.208c14.897 1.007 13.117 15.949 5.74 24.479-14.344-1.363-12.703-15.569-5.74-24.479m-96.068 5.307c5.407.252 10.671-.19 14.563 3.453 1.24 3.791.872 2.569-.343 7.072-5.486-.42-11.914-.12-15.63-4.026-.603-3.879-.602-2.431 1.41-6.499"/><path fill="#fefefe" d="M597.685 312.393c4.671-.401 9.318-.239 13.98.197 53.83 5.034 81.581 44.255 113.258 82.087-26.804 35.53-53.56 65.664-87.144 94.839a1340 1340 0 0 1-16.811 13.344l-11.735-4.757c5.644-10.8 12.366-24.862 9.478-36.946-4.321-6.038-36.642-34.261-45.253-36.843-3.223-.966-5.048-7.957-6.223-11.264-7.588-21.362-19.538-42.532-35.439-58.933 16.727-25.355 35.571-38.561 65.889-41.724m392.913-68.978c6.617-.813 18.622-.682 25.422-.714 48.54-.233 84.26 14.476 127.28 35.444-31.21 32.806-55.06 67.77-85.97 101.716l-18.12 18.309c-39.13-42.431-80.97-94.265-118.964-138.605 25.948-8.926 42.975-14.083 70.352-16.15m206.112 286.066c30.91 10.01 54.8 19.346 88.37 21.594 2.42.264 18.92 1.888 19.39 3.346 5.89 18.41 19.67 26.504 34.67 39.17a555.8 555.8 0 0 1-129.39 39.806c-51.99 9.317-88.58 7.598-140.86 2.166a396.5 396.5 0 0 0 127.82-106.082m490.07-209.891c1.75-.226 7.64-1.111 8.89.143 12.29 12.266 23.68 23.715 39.44 31.552 32.81-26.069 44.3 13.543 17.48 20.083-3.91.955-11-9.128-16.45-3.221-1 4.121-.44 5.149.88 9.113-14.72 33.427-39.19 73.015-80.69 70.246-6.17-1.304-15.25-2.647-18.25-8.885 2.71-6.462 17.25-3.065 22.01-10.353-.97-3.129-.62-2.129-3.23-4.651-6.66-2.135-16.57 2.029-23.44 4.22-5.76-12.201-2.61-12.506-5.37-23.675-6.22-5.413-24.1 2.761-32.74.35-5.69-7.622 10.33-21.514 14.02-31.134 5.5-14.344 4.58-34.245 4.6-49.314 23.31.066 49.68-1.961 72.85-4.474"/><path d="M1634.69 325.436c7.56-.782 20.93 1.709 23.37 10.18-2.57 6.046-8.74 3.429-13.46 1.566-8.54-2.172-21.71 1.133-26.33-4.061 1.1-7.851 10.55-7.266 16.42-7.685m1.47 23.161c1.78.258 3.8.53 5.33 1.48a9.28 9.28 0 0 1 4.38 6.555c.81 5.361-1.31 8.604-4.1 12.7-2.36-.141-4.52-.271-6.42-1.842a10.23 10.23 0 0 1-3.7-7.022c-.47-5.332 1.17-8.126 4.51-11.871m109.05 1.296c5.42.165 9.66-.3 13.18 4.506 1.33 3.663.85 4.776.04 8.659-4.83-1.058-10.21-2.207-13.41-6.099-1.23-3.994-1.04-2.345.19-7.066"/><path fill="#fefefe" d="M1280.75 428.131c40.95 45.206 106.02 85.643 168.17 88.329 15.04.65 31.76-1.201 46.74-2.664-26.59 19.307-49.22 27.498-81.9 30.347-6.73.972-15.78 1.341-22.72 1.821-8.82-5.616-31.2-21.519-40.24-20.718-2.67 1.078-2.99 2.288-4.54 4.866l-.55.943c-5.76 1.749-10.84-6.327-18.89.891-1.81 1.619-9.84.71-13.36 1.128-35.87 4.265-70.3-6.599-103.75-18.223 24.42-29.15 45.85-57.411 71.04-86.72m-72.23 774.459c42.92 11.68 81.42 14.65 125.61 11.53-4.35 15.25-11.73 34.74-17.37 49.58-39.91 9.46-97.54 11.02-139.51 13.22-41.27 1.98-85.31 4.45-126.41 4.15 51.59-26.28 101.03-37.63 152.89-57.14 1.66-5.18 3.58-15.67 4.79-21.34M735.976 409.591c6.617 2.713 75.232 92.316 88.007 106.104-35.941 8.622-57.752 11.015-93.949 10.195-35.602-2.62-54.473-4.256-88.135-15.601 36.701-33.579 63.524-60.138 94.077-100.698m17.977 823.429c24.808 29.47 136.003 52.76 144.667 66.27-13.497-1.85-55.109-24.29-65.394-19.68l-.73 2.02c3.968 10.18 50.104 18.41 64.243 30.13-13.984-3.98-64.534-25.39-74.308-20.91-1.522 3.04-1.237 1.7-.667 5.28.882 1.32 2.688 3.81 4.289 4.17 17.689 4.04 35.189 9.57 52.562 14.76 3.112.8 4.917.8 6.734 3.16-4.802 4.06-58.948-16.85-70.626-15.7-3.206 2-4.224 3.03-3.285 6.84 7.616 8 51.478 11.63 63.238 18.59l-.748 1.07c-21.98 3.67-172.521-40.81-197.427-50.94l-2.717-23.62c32.668-3.47 51.083-7.02 80.169-21.44M1757.23 396.691c5.62 10.013 18.39 56.377 33.39 51.17 5.02-4.882 5.04-11.368 5.99-18.291 10.55 10.922 13.84 19.596 17.24 34.394-9.82 10.382-19.05 14.941-31.66 21.009-19.48 8.896-35.46 11.482-56.41 13.341-1.6-11.773-4.27-18.847-8.23-29.873 24.66-20.692 32.14-42.008 39.68-71.75M621.64 1054.76c29.749 3.76 58.151.85 86.6 12.92 8.502 3.61 33.874 13.84 37.548 22.3l-1.439 1.06c-12.407.31-46.405-31.48-68.553-25.17-2.777 2.39-2.023.94-2.557 4.37 4.763 5.38 24.2 7.34 31.78 12.13 4.773 3.02 31.599 16.16 32.911 20.01-7.249 4.59-18.533-4.79-24.934-8.48-10.947-6.33-21.173-9.78-33.181-13.29-4.448-.87-9.019-2.72-12.242.89 2.35 10.66 39.681 13.81 54.245 30.79l-.427.95c-14.838-.92-47.023-23.98-59.335-17.94-1.017 2.9-.957 1.65.603 5.11 7.245 5.3 39.337 12.83 42.969 20.5l-1.488.91c-12.212.75-22.223-7.76-33.495-9.95-28.152-5.45-44.242-.49-69.747-16.13 5.688-12.99 14.153-27.97 20.742-40.98M488.075 348.548c8.903 3.361 12.331 4.839 20.59 9.688a73.9 73.9 0 0 0-5.507 31.019c.872 28.74 13.574 55.154 34.356 74.788-.749 16.873-.119 29.967.463 46.754l-1.105 1.027-1.615-.098c-55.842-27.697-56.641-112.933-47.182-163.178"/><path fill="#fefefe" d="M1353.07 535.712c13.6 3.804 76.34 47.956 90.44 57.935-16.91 9.107-33.81 22.144-48.69 34.243-18.91-16.099-39.07-31.541-57.45-48.711-6.65-6.201-17.19-14.113-22.42-20.861 12.7 7.368 52.93 40.087 63.16 38.128 4.69-5.819-13.75-16.202-18.63-19.649-4.57-3.334-43.23-30.276-44.18-32.288l1.14-.698c15.07 1.59 59.31 48.831 72.42 42.901l.6-1.971c-4.13-10.045-53.94-39.025-57.22-44.935l1.06-1.259c3.6.483 45.43 29.741 53.45 34.912 4.09 2.634 9.61 6.436 14.6 5.352l.95-2.53c-2.64-11.363-41.15-27.679-49.65-37.744zm-51.81 265.912 3.19 1.92.36 1.988c-4.37 10.884-10.61 20.774-14.95 31.283-44.75 108.425-66.72 224.535-95.46 337.835-.63.63-1.25 1.26-1.88 1.89-4.26-1.7-4.01-.78-5.7-3.89 7.89-42.49 23.24-98.53 34.01-141.06 15.43-60.935 43.02-182.141 80.43-229.966m-129.29 382.416c1.09.28 2.91.66 3.99.79 21.29 2.55 22.74 11.3 18.05 30.55-35.11 12.29-65.98 20.56-101.26 34.94-4.69-1.22-10.09-2.17-14.9-3.13-8.59-.87-21.61-3.14-30.01-4.98 24.8-9.37 55.8-15.15 81.68-21.8 10.71-2.76 23.97-4.84 34.15-8.69 1.7-3.55 6.53-22.07 8.3-27.68M413.844 787.624a576 576 0 0 0 65.343 31.34c-8.27 9.92-16.47 20.468-24.55 30.587-7.179 8.652-14.039 18.383-20.704 27.504-7.158-23.642-15.43-64.793-20.089-89.431m892.846 489.736c3.63-.45 2.73-.91 5.03.71.23 3.14.45 1.9-1.44 4.84-3.92 2.62-28.77 4.89-34.83 5.6-42.37 5.1-84.91 8.77-127.53 11-38.51 2.27-74.5 4.12-113.15 1.33-3.55-.33-5.08-.24-8.32-1.75l-.52-1.59c2.96-2.79 11.06-4.14 15.09-4.31 87.79-3.6 178.7-3.43 265.67-15.83m-528.029-61c16.821 13.48 75.56 36.66 97.972 46.52l-2.058 1.49c-6.964-2.98-32.696-15.97-38.972-10.36 2.924 12.26 40.942 17.02 48.935 24.48-9.612 2.08-108.987-40.41-121.636-49.81 5.877-4.24 10.212-7.68 15.759-12.32m826.979-332.513c.43 2.676-7.32 51.006-8.1 57.907-11.36-9.592-26.33-25.037-36.86-35.767l-21.28-21.655c26.46 19.432 40.49 23.552 66.24-.485M556.8 447.664c5.578 5.331-.293 24.888.985 28.586.832 2.409 13.491 28.465 15.119 29.765 1.838.099 3.186.247 4.599-.135 2.7-.73 3.8 4.355 9.324 7.664 8.566 1.608 10.333-7.008 19.189-4.026l-.068 1.771-2.813 2.083c-14.752 6.451-39.364 6.556-55.034 3.774 4.093-24.274-7.225-45.184 8.699-69.482m-34.012-76.059c15.577 12.759 26.054 43.156 33.215 61.873l-5.804 5.804c-1.341 2.31-1.345 2.49-3.321 4.45-4.232.003-7.721-4.645-9.666-8.049-11.082-19.394-20.16-41.482-14.424-64.078M592.1 533.383c4.104-1.069 5.712-.102 8.646 2.276 2.824 6.861-1.648 21.208-3.399 28.909-10.542-3.652-17.586-7.428-27.036-12.904-9.028-5.851-15.623-10.693-24.162-17.275 18.556 2.942 27.82 1.515 45.951-1.006M1595.71 415.94c7.09 2.159 10.39 2.018 17.89 2.153-8.39 21.351-20.32 32.177-38.11 45.125-4.13 2.776-8.71 5.445-12.99 8.037 13.62-16.457 24.31-35.969 33.21-55.315m-566 833.02c1.44.02 38.57 8.71 40.09 9.46l-.47 1.23-3.66.64c-4.42-.22-41.38-5.83-43.41-7.4 1.16-1.75 5.11-2.93 7.45-3.93M458.885 343.408l10.959 1.66-3.849 23.691-.283 1.811-1.019.548c-4.381-4.705-5.533-21.369-5.808-27.71"/><path fill="#fefefe" d="M606.422 464.646c6.052 5.823-9.389 30.443-13.315 36.684l-.437-.138-.568-1.152c4.107-11.533 9.583-23.998 14.32-35.394m-25.348-20.465c2.015.39 2.114.547 4.043 1.314.857 3.478-8.29 21.018-10.456 28.308l-.689 1.182-.673-.607c-.184-7.16 5.392-23.038 7.775-30.197m13.615 9.554 3.081 1.683c.946 3.536-8.827 21.792-11.274 27.367l-.999.945c-.671-5.565 6.541-24.313 9.192-29.995"/><path fill="#bbbabd" d="M713.875 977.577c4.23 3.113 11.227 44.383 13.26 52.963-4.376-3.98-11.646-44.563-13.26-52.963m-15.524-75.117c4.442 3.655 12.521 49.605 12.63 56.884-2.964-5.572-10.954-48.506-12.63-56.884m178.282 360.42c4.242 1.68 10.101 3.78 13.933 5.96l-.154 1.32.653-1.04 1.383 1.52.079-.59-.031.68-1.663-.27.372-1.06-1.287.84c-5.467-1.87-10.003-3.66-15.343-5.87zm-131.621-146.1c3.479 3.49 6.16 15.84 6.589 20.92l-.772.11c-1.833-3.42-5.19-17-5.817-21.03"/><path fill="#7e7f80" d="M145.36 1092.55c5.771-.58 13.299-.92 18.933.19-4.631 1.65-14.618 2.38-18.933-.19"/></svg>