<svg xmlns="http://www.w3.org/2000/svg" preserveAspectRatio="xMidYMid meet" viewBox="0 0 2048 2048"><path d="M1035.44 89.464c132.73-4.229 291.39 33.822 410.81 90.747 28.72 13.688 55.79 30.643 82.77 47.423 54.71 34.023 106.85 69.371 154.48 113.023 89.37 81.909 194.55 232.01 239.32 344.262 12.92 32.4 20.43 66.882 29.98 100.38 15.96 55.985 28.75 112.313 31.25 170.675 1.95 45.536 2.03 91.076-3.85 136.326-2.62 20.2-7.5 39.95-10.42 60.03-5.2 35.85-12.14 70.79-19.24 106.3-3.67 18.35-6.55 37.11-11.54 55.16-10.59 38.29-24.31 70.52-40.06 106.75-7.59 17.45-14.6 35.42-22.8 52.58-18.08 37.88-39.59 75.01-62.28 110.27-18.82 29.25-37.98 60.5-61.56 86.04-14.82 16.04-30.87 30.86-46.89 45.68-18.68 17.27-37.71 34.8-57.69 50.54-43.12 33.94-91.27 62.43-139.64 88.13-36.73 19.5-73.02 37.11-112.67 50-63.63 20.7-139.55 32.05-205.97 39.4-33.26 3.68-65.92 7.24-99.39 8.54l-1.9.1c-36.29 1.73-67.47-4.12-103.074-7.62-24.969-2.46-51.958-1.79-77.194-5.51a888 888 0 0 1-463.105-222.33c-40.999-37.54-79.242-81.51-113.211-125.25-20.958-26.98-45.915-54.14-63.785-83.34-51.997-84.96-89.049-183.12-113.492-279.48-6.49-26.28-8.033-52.79-12.032-79.27-18.697-123.78-3.893-249.099 26.36-369.782 14.316-57.11 38.605-114.717 61.477-168.74 10.848-22.651 24.246-45.014 35.97-67.041C338.295 407.756 439.137 292.46 574.528 217.21c37.977-21.108 71.22-42.265 112.846-57.356 19.913-7.219 40.205-20.321 61.413-25.893 20.63-5.941 42.859-9.402 63.353-15.819 73.056-22.874 147.255-25.54 223.3-28.678"/><path fill="#fefefe" d="M1055.72 111.472c83.97-1.69 147.26 6.903 227.69 32.277 18.56 5.855 39.46 10.586 58.1 16.945 44.14 15.435 88.07 33.738 129 56.516 18.32 10.199 37.66 24.483 56.26 35.157 12.67 7.279 26.69 19.373 39.03 27.779 14.92 10.172 29.83 21.32 44.48 31.894 26.16 21.579 55.94 45.59 80.38 68.883 17.57 16.749 39.35 44.471 54.66 63.699 44.14 56.207 87.4 116.404 118.68 180.904 16.67 34.346 29.23 79.558 42.12 115.95 4.03 12.085 5.93 26.154 9.84 38.077 14.31 43.648 21.09 87.474 26.7 132.887 1.04 14.894 2.06 29.607 2.61 44.565 1.14 30.823 3.5 65.915 3.2 96.605-.35 37.45-6.07 77.29-10.22 114.42-3.35 30.01-8.5 57.43-19.36 85.8-2.61 6.63-2.56 19.64-5.28 26.83-8.46 22.37-16.08 44.86-23.52 67.57-7.82 21.8-18.07 43.42-26.63 65.05-6.12 15.47-10.62 30.55-16.37 45.85a453 453 0 0 1-37.83 77.25c-11.1 17.78-24.89 32.38-37.72 48.58-10.73 13.54-20.36 28.56-31.34 42.19-10.9 13.52-21.86 23.98-33.9 36.27-4.22 4.32-10.15 14.93-14.65 19.89-14.67 16.16-32.72 29.68-48.6 43.95a732.8 732.8 0 0 1-314.78 163.12c-15.67 3.65-35.85 5.03-52.28 8.24-28.76 5.97-56.66 11.67-85.8 15.4-37.18 4.76-74.03.83-110.93 5.68-4.82.64-7.28-2.94-13.39-1.99-15.84-4.02-43.74-2.74-60.76-4.84-29.98-3.7-60.441-6.71-90.198-11.66a596 596 0 0 1-67.122-14.71c-10.457-2.91-22.892-7.63-32.775-10.04-41.94-10.21-83.859-21.21-123.831-37.77-16.938-7.01-38.093-21.58-55.211-30.76-12.194-6.54-26.978-13.11-38.255-19.4-55.131-30.76-107.872-61.39-154.148-104.74-17.301-16.21-24.445-27.06-39.972-44.1-13.48-14.8-27.322-28.25-40.01-44.22-8.145-10.24-16.413-21.78-24.739-31.6-10.612-12.5-22.881-21.93-32.003-36.47-30.668-48.89-56.434-102.37-77.215-156.22-8.256-21.39-19.294-42.66-26.661-64.14-18.666-54.4-33.108-114.41-40.533-171.46-2.504-19.23-3.44-49.2-4.589-68.67-2.164-31.19 3.47-61.25 6.545-91.822 2.918-29.003 5.499-53.634 11.554-82.473 5.369-25.567 7.692-52.203 14.375-77.772 11.365-43.478 25.848-86.523 43.769-127.741 7.434-18.396 13.742-39.067 22.468-56.795 21.24-43.15 45.374-87.038 71.54-127.437 29.78-45.977 67.875-89.203 104.097-130.264 24.942-28.275 57.919-55.014 87.201-78.669 32.572-24.893 68.798-51.577 105.182-70.628 27.58-14.441 59.206-28.325 87.285-42.473 20.252-10.204 47.869-15.743 69.305-22.804 22.094-7.277 44.565-13.97 67.101-19.777 68.192-16.86 137.404-23.742 207.45-26.783"/><path d="M1019.15 171.486c11.98.707 24.27-.044 36.27-.171 28.57-.302 56.78-.768 85.26 1.776 15.07 1.347 29.92 4.131 44.9 6.222 38.47 5.373 75.23 10.996 112.57 22.233 37.76 11.361 72.98 27.763 108.33 44.922 110.4 53.589 193.15 109.082 272.06 204.316 19.19 23.157 36.43 48.377 53.54 73.08 14.62 21.119 30.43 40.884 43.52 63.087 27.16 46.029 50.76 108.766 69.18 159.346 4.91 13.478 18.12 42.782 16.83 55.431l-.15 1.309c1.19 2.13 1.51 2.25 3.28 3.981 4.76 31.631 13.64 63.258 18.04 94.986-.21 4.201 4.99 17.789 4.69 20.881-1.33 13.516 2.69 27.196 3.5 40.337 1.98 32.284-1.4 63.968-2.79 96.098-1.07 24.93-1.71 50.04-4.1 74.9-2.84 23.35-7.87 47.23-10.8 71.11-3.5 28.44-14.23 60.93-21.36 88.77-12.67 45.38-26.29 96.16-47.12 138.55-18.26 37.17-41.7 79.75-65.71 113.09-21.01 29.16-45.39 62.15-69.71 88.36-37.97 40.94-86.83 72.7-130.96 106.37-9.72 7.4-19.77 12.73-30.17 18.97-15.69 11.58-33.63 19.31-50.13 29.21-33.65 20.17-71.64 29.57-108.56 41.96-12.41 4.17-25.39 9.11-37.88 12.9-10.61 3.23-25.68 3.8-36.71 6.6-43.25 8.32-87.04 12.94-130.71 18.37-6.98.87-39.11 2.16-45.33 1.29-6.56-2.07-5.13.16-10.75.11-53.78-.43-107.29-1.27-160.633-9.28-27.434-5.24-54.805-10.66-82.34-15.36-40.824-7.08-77.232-25.53-114.998-40.61-117.47-46.91-221.396-115.79-307.771-208.8-52.145-56.15-90.428-129.82-122.917-199.19-6.123-13.08-10.534-28.02-16.374-41.14-40.267-90.42-66.626-187.37-71.879-286.51-1.405-17.74-4.504-36-4.937-53.79-1.327-64.401 6.328-130.98 22.333-193.417a3884 3884 0 0 1 30.022-110.349c9.512-33.01 25.522-66.554 41.616-96.815a915 915 0 0 1 141.286-197.33c34.453-37.256 95.004-94.49 136.032-120.773 49.091-31.449 118.047-57.815 173.466-76.771 17.336-5.93 34.99-13.286 52.692-17.918 20.461-5.354 42.231-7.213 62.767-11.074 52.543-9.879 99.201-17.161 152.605-19.267"/><path fill="#fefefe" d="M462.311 432.056c20.47 16.042 42.385 52.447 59.207 72.17A6983 6983 0 0 1 735.799 764.63c-1.578 18.217-4.403 29.1-10.272 46.195-19.095 55.615-78.83 103.107-17.72 155.059 9.883 36.636 14.325 78.226 25.524 114.066-16.382 20.53-35.412 40.62-52.491 60.89L529.366 1319.6c-13.771 16-27.567 35.73-41.38 51.97-8.933 10.5-18.972 20.95-28.227 31.39-24.852 32.34-51.776 63.66-77.422 95.65-16.189-29.85-33.316-59.18-48.138-90.04-40.637-84.61-75.034-176.96-90.262-269.82-4.302-26.23-8.232-69.5-10.473-96.44-4.497-48.782-.28-96.443 4.042-144.547 12.401-138.039 74.021-265.031 152.916-377.058 10.595-15.044 25.34-30.222 36.889-45.057 11.348-14.577 22.935-29.422 35-43.592m1178.819 22.46c6.72 2.094 47.04 57.32 53.81 66.831 22.46 31.55 44.56 62.926 62.01 97.579 13.8 27.39 23.66 52.962 34.36 81.588 9.36 25.055 22.76 49.778 30.72 75.583 26.97 93.079 40.33 192.251 34.26 289.183-1.37 22.05.06 45.65-2.12 67.38-4.45 23.48-5.91 49.1-10.76 72.32-6.58 31.51-16.22 64.78-24.64 95.77-8.65 31.86-16.33 63.16-29.71 93.36-11.74 26.47-26.03 52.45-40.22 77.66-9.87 16.61-20.44 40.18-31.76 53.8-11.28-22.04-44.27-63.16-60.87-84.43-30.43-35.38-54.89-70.4-83.67-106.38L1375.1 1091.8c-.42-22.16-1.29-52.81.68-74.33 4.48-49.112 10.42-98.299 8.6-147.852-1.6-43.528-12.98-86.428-22.28-128.806 18.99-7.314 60.95-58.062 77.64-75.17a4146 4146 0 0 0 66.38-68.673c24.58-26.129 48.86-52.669 73.75-78.561 8.34-8.676 16.02-18.059 24.51-26.663 12.24-12.403 24.76-24.575 36.75-37.229"/><path d="M1393.33 1061.28c12.55 3.72 51.96 51.55 62.77 63.63 42.58 46.91 84 94.86 124.24 143.8 41.11 49.11 81.4 97.35 117.8 150.24 11.32 16.45 25.93 32.31 33.69 50.81 1.46 3.47-1.47 7.41-3.33 9.83-1.21.86-2.32 1.44-3.61 2.19-11.87-2.21-91.66-119.05-104.8-136.25-67.42-88.3-139.42-173.13-212.5-256.76-7.62-8.73-15.21-15.61-14.26-27.49m158.66 112.19c1.17.44 2.28.96 3.37 1.58 24.5 14.06 187.57 221.27 192.34 245.64.88 4.5.1 7.81-2.41 11.41-8.96-.17-13.17-6.53-17.86-13.53-25.25-37.63-50.1-77.89-78.47-113.3-19.01-23.74-38.24-47-57.21-70.93l-32.04-39.97c-3.62-4.59-7.95-8.54-10.94-13.45-.03-3.34 1.33-4.65 3.22-7.45"/><path fill="#fefefe" d="M1026.55 199.425c20.4-1.378 43.33.164 63.87.093 108.28-.344 210.05 25.133 307.14 72.456 39.45 19.231 76.6 43.716 114.45 65.613-5.87 6.727-14.31 13.844-20.71 20.833-31.94 34.846-65.14 68.744-98.02 102.693-13.58 12.332-25.1 31.432-38.02 43.561-24.38 22.88-46.29 50.035-69.74 73.167-9.3-9.775-18.3-20.649-28.12-29.718-48.71-44.955-91.05-62.625-154.63-76.985-104.214-22.365-245.087.635-327.781 70.857-6.929-9.14-12.978-19.154-20.522-27.872-32.891-38.011-65.528-77.19-99.185-114.502l-47.78-53.155c-5.063-5.725-14.092-14.876-18.019-20.875l.596-1.928c4.133-3.795 34.522-19.404 41.412-22.991 43.745-23.597 91.286-38.245 137.693-55.05 39.656-14.36 70.687-20.574 111.892-27.419 49.603-8.239 95.286-15.737 145.474-18.778M845.864 619.307c32.951-2.693 56.613 42.742 72.888 66.028 26.242 37.546 50.783 80.967 85.778 111.22 27.49 23.767 67.36 46.645 104.13 48.68 12.35.708 15.83.131 25.02-7.818 11.05-10.921 38.45-24.181 51.12-9.494 25.58 29.652 6.54 90.315-19.58 114.342-13.11 12.053-33.86 25.472-51.49 18-7.05-2.988-14.2-10.372-22.1-10.42-24.71 10.194-45.65 306.425-34.82 347.345 1.45 5.47 2.17 9.72 6.77 13.34 16.94 5.01 42.83-47.47 49.66-60.82 3.17 13.22 21.43 43.68 29.57 55.49 4.74 6.41 9.94 15.53 14.18 22.49-10.9 7.12-19.02 14.68-31 20.73-86.35 43.6-205.099 41.04-253.723-53.24 6.838-22.29 19.136-128.72 11.036-147.41-1.449-3.35-3.779-4.78-7.055-6.08-22.906-9.09-56.489-4.89-81.17-16.16-9.216-4.21-18.418-10.52-24.577-18.63-24.949-32.85-27.824-116.05-43.315-157.181-37.018-20.002-20.057-50.964-4.179-78.557 6.081-10.568 12.612-22.615 17.902-33.635a181.8 181.8 0 0 0 13.695-39.556c9.616-43.988 5.881-81.472 2.768-125.618 19.782-18.913 61.055-48.564 88.492-53.046"/><path d="M838.739 742.457c15.793-.245 50.325 1.822 57.731 18.507-.116 1.535.1 2.557-.892 3.838-6.621 8.545-63.803 9.439-75.498 10.145-19.636.383-36.053 4.64-55.914 4.213-.221-6.195.445-12.298.937-18.487 21.667-14.889 47.865-17.139 73.636-18.216m334.871 95.379c3.83.065 5.38.744 7.1 3.888-1.22 6.436-13.86 11.829-19.61 16.685a93.5 93.5 0 0 0-11.97 12.413c-13.74 17.023-15.39 25.47-22.01 45.192-3.37-.761-4.52-.692-6.86-3.24-2.75-6.525-.92-11.227 1.44-17.63 8.12-21.996 30.01-48.025 51.91-57.308M809.637 792.99c19.962-.67 34.819 19.204 13.523 33.542-16.41 3.186-28.18-9.905-22.981-26.367 1.342-4.251 5.504-5.68 9.458-7.175m-28.719 116.539c18.678 5.965 5.807 46.9-39.239 43.087-3.995-2.044-4.69-1.935-6.174-5.34 3.173-8.159 24.92-7.014 35.235-12.374 7.002-11.52 2.781-18.145 10.178-25.373m39.469 94.681 4.106-.24c3.149 1.65 1.789.53 3.855 3.89-1.26 12.95-53.252 14.98-64.592 13.97-3.566-.31-5.558-.11-8.465-2.16-.901-3-.501-3.35.318-6.37l1.756-1.92c5.667-.2 14.954-.31 20.273-.71 14.42-1.1 28.729-3.45 42.749-6.46"/><path fill="#fefefe" d="M862.631 1330.57c6.119 4.72 18.392 23.41 31.16 33.17 48.06 36.76 100.537 40.67 158.169 35.14 38.91-3.73 114.24-34.56 138.05-65.19-1.13 15.25-3.95 32.08-5.6 47.55-2.22 20.75-3.54 43.53-7.11 63.92 1.16 1.61 1.32 1.81 2.29 3.59l-2.46-.11c-1.85 5.57 2.47.75 1.52 3.94-2.74 9.15-3.43 13.99.21 21.9-.24 2.3-6.45 17.64-6.16 18.72 3.51 13.21-.69 23.51-1.71 36.79-.46 5.84-4.38 8.2-4.15 14.12.37 9.33.4 18.65.58 27.95-1.87.53-.91.22-2.88.91-1.7 17.75 1.82 35.57-3.35 53.04.02-.08 1.33 8.88 1.41 10.65-7.36 8.96 0 18.06-4.77 28.65.05-.12-4.24 4.43-5.16 6.02.16 4.19 2.7 8.4 4.59 12.33-5.61 22.2-6.54 56.18-8.8 79.61-.83 8.67-2.08 19.79-2.24 28.32-2.31 7.14-2.77 26.48-4.25 36.23-8.69 1.3-17.52 2.57-26.17 2.24-7.33-.28-9.08-.91-14.14 2.88-1.45 1.09-7.61-3.77-11.67-3-8.35 8.94-23.26-5.42-37.35 4.64-.56-.87-2.57-3.63-3.71-3.6-25.41 1.78-52.75-1.41-77.791-.46-28.898 1.09-45.654-6.15-72.515-10.94-14.064 4.71-18.137-7.68-30.531-6.33-3.573 1.64-20.12-1.42-23.216-3.24-12.451-7.31-26.449-7.11-40.707-11.94-2.049-8.94 10.872-97.71 12.385-112.85.93-9.29 1.439-27.04 2.74-36.77 1.373-10.27 4.38-22.69 5.744-33.76l17.324-138.14c5.208-45.08 9.153-102.54 20.268-145.98m-98.891-194.7c24.785 15.45 30.47 17.07 58.219 22.55-14.447 12.69-41.029 41.84-50.994 57.49-20.66 32.45-43.228 51.94-68.152 80.13-30.275 34.23-57.104 73.56-87.712 107.67-28.886 31.33-58.135 61.53-85.982 93.86-22.241 25.82-41.372 54.36-63.354 80.02-4.922 5.42-6.992 8-11.121 14.04-9.778-12-30.14-34.27-37.056-44.38 21.291-24.15 42.069-51.11 63.575-75.28 12.916-14.51 24.569-25.68 37.153-41.09 24.063-29.47 46.151-60.09 69.393-90.01 15.608-18.23 32.673-35.32 48.302-53.52 22.16-25.79 43.475-53.26 63.616-80.69 18.946-25.8 47.085-45.19 64.113-70.79m93.272 64.1.628.72c1.116 6.83-3.947 63.97-4.707 74.62-34.308 27.83-94.311 78.15-122.299 111-55.47 65.09-100.472 162.56-130.997 242.52-8.032 21.05-15.172 45.97-21.446 67.5-11.917-4.66-15.434-8.24-25.548-16.31 16.809-43.69 35.392-85.59 53.758-128.6 3.487-8.17 16.774-34.8 14.387-42.46-9.774-4.6-23.208 31.35-25.958 37.71a2989 2989 0 0 0-19.24 45.02c-4.663 11.29-9.188 23.94-14.828 34.62l-.845 1.58c-3.308 5.8-6.513 12.31-9.589 18.28 2.026-15.12 4.106-32.88 7.509-47.7 1.564-6.81 8.201-19.32 6.391-25.63-9.318-6.48-12.401 6.6-14.546 13.09-3.88 11.73-43.235 44.78-39.725 55.19l2.246.41c9.332-3.91 21.834-21.45 32.316-29.86-1.147 19.12-4.559 39.31-5.768 58.88-8.505-6.05-17.949-12.8-25.656-19.69-6.265-5.6-10.414-10.3-17.156-15.53 11.303-16.49 27.263-33.02 39.545-48.99 14.555-18.92 29.481-35.76 45.115-53.72 7.633-8.77 14.693-18.85 22.374-27.65l63.135-71.89c30.868-35.12 60.987-70.66 89.733-107.6 17.552-20.01 32.796-49.69 51.923-67.72 17.667-16.64 32.639-42.63 49.248-57.79M552.114 356.098c11.376 9.785 27.419 33.175 38.045 45.263 34.203 38.909 68.968 76.705 101.34 117.182 17.198 21.504 33.204 39.363 49.114 62.208a100 100 0 0 0-7.929 14.874c-12.616 29.921-7.08 44.751 4.027 72.345-7.447-7.466-12.171-14.475-18.04-23.186-11.81-13.462-22.939-28.481-34.876-42.098-5.944-6.781-11.854-16.321-18.294-22.863-12.73-12.931-24.689-26.524-37.127-39.686-3.753-3.972-11.467-8.045-14.812-12.164-13.087-16.12-26.001-32.483-39.338-48.392-10.926-13.032-22.721-25.446-34.095-38.144-11.784-13.156-28.193-33.143-41.441-43.788 6.239-7.441 43.709-34.827 53.426-41.551M1559.1 374.016c10.38 5.523 33.35 22.74 38.23 34.844 1.32 4.048-5 10.986-7.56 13.701-80.06 84.925-166.59 163.684-239.97 254.75l-7.02 7.294c-6.3-20.492-16.72-38.872-24.79-58.753l162.64-170.637c3.77-3.953 7.82-8.065 11.88-11.731 23.48-21.202 46.43-45.111 66.59-69.468m-182 809.334c10.13 6.48 26.85 33.01 36.34 43.41 42.78 46.94 78.18 99.48 117.78 148.64 52.06 64.62 98.51 132.04 147.55 198.66-2.76 5.12-6.43 10.11-9.75 14.93l-5.67 8.58c-4.21-4.55-9.47-11.34-12.88-16.61-40.44-62.41-89.02-119.24-137.92-175.1-24.63-28.13-50.49-51.65-78.94-75.96-16.01-13.67-35.16-26.24-50.43-40.33l-1.11-1.04c.3-8.33.84-18.91.25-27.08-1.76-24.38-7.14-53.7-5.22-78.1m-182.74 95.35c2.3 9.75-8.64 24.81-13.94 32.43-.11-5.79 10.07-26.7 13.94-32.43m143.05-15.12c2.69 2.73 7.16 10.22 9.03 13.72l-1.93.7-13.57-4.26c1.94-3.33 4.36-6.89 6.47-10.16"/><path fill="#929398" d="M1342.28 776.826c.44.455 1.23 1.188 1.31 1.787 1.13 8.075 6.8 25.547 4.27 32.93-3.36-4.891-5.09-27.74-5.58-34.717"/><path fill="#3d3d41" d="M896.873 507.057c.637.536.3.131.491 1.503l-7.866 3.175-1.192-.628c1.672-2.097 5.798-3.09 8.567-4.05"/></svg>