<svg xmlns="http://www.w3.org/2000/svg" preserveAspectRatio="xMidYMid meet" viewBox="0 0 2048 1462"><path d="m930.668 116.419.19-.025a130.53 130.53 0 0 1 90.092 26.624 132.18 132.18 0 0 1 49.41 88.207c7.56 64.468-23.66 93.876-73.502 125.947-12.459 8.651-27.912 13.126-38.736 23.885-3.66 3.638-10.988 17.008-15.398 16.944-9.798-.141-27.389-17.6-34.872-23.907-12.704 14.767-17.787 5.074-28.19-5.887l-7.562 15.226a7953 7953 0 0 1 44.746 143.65l16.917 56.525c5.411 18.753 10.817 42.344 20.122 59.412 3.498 6.416 21.388 28.883 27.701 31.846 1.278-.299 5.197-1.254 6.15-.882 16.654 6.498 38.394 15.636 54.374 22.259 7.57-10.776 43.8-62.794 51.76-68.516 7.86-2.273 33.12 11.836 41.69 16.004l60.9 29.721c15.85-11.042 47.7-35.231 62.2-43.31 10.14 2.703 30.55 12.323 40.9 16.904 11.97-2.311 64.38-8.36 72.9-3.522 4.18 5.623 5.76 30.776 7.75 40.199l.31 1.414 104.17 49.462c3.21-2.774 5.52-5.13 9.61-6.073 18.21 1.33 84.14 82.157 102.35 100.519 9.55-6.388 17.77-10.39 29.74-11.033 6.32-.339 8.45 2.623 12.88 6.971 6.14-2.692 22.11-11.562 28.57-9.311 12.43 4.326 73.88 111.486 84.07 129.22 8.52-3.912 17.89-13.954 26.86-13.152 6.07 3.948 33.65 46.576 37.63 53.947 11.51 21.323 105.46 156.773 102.87 168.723-7.22 10.23-72.44 44.92-85.57 52.06 4.52 3.84 8.51 6.62 7.36 13.04-3.42 6.27-9.71 7.85-16.3 10.56 10.54 2.86 41.2 10.31 46.86 17.97.63 3.49.81 2.04-.88 5.3-2.14 1.59-3.76 2.3-6.46 2.47-20.47 1.34-41.33 2.44-61.8 3.71l-137.16 8.34-.82 1.03c2.31 4.11 5.15 7.45 3.49 12.06-4.56 3.08-100.68 8.21-112.77 8.97l-189.67 11.69c-3.06 8.95-12.56 38.37-18.3 44.02-11.61 11.44-245.87-10.91-281.75-12.8-5.57 5.76-12.68 17.76-21.63 13.77-22.98-10.25-44.523-23.52-67.435-34-4.851 6.38-14.299 22.99-19.974 25.71-9.56.26-47.152-15.61-58.938-19.93-4.875 4.64-7.775 11.84-13.302 18.16-18.876 3.65-45.116 2.13-64.462 1.38-57.321-3.1-114.545-7.8-171.604-14.09-13.96-1.54-84.588-8.37-89.385-16.08-2.338-9.91 11.292-30.91 16.605-40.67-28.339-1.26-56.907-4.72-85.134-6.39 20.061 6.6 41.902 7.68 61.434 14.99 2.356.88 3.766 4.96 4.396 7.27 4.713 17.22-32.988 18.78-43.452 21.98-41.923 6.69-85.076 7.78-127.189 3.35-32.609-3.43-31.959-5.06-21.091-34.02 5.05-13.98 11.297-27.5 16.577-41.37 2.249-5.9 2.521-14.13 4.445-20.17 4.414-13.86 3.242-26.99 5.246-41.36l14.844-100.27 25.832-178.868c9.184-67.072 16.555-108.425 5.802-176.466-5.014 43.767-14.099 104.434-24.811 146.474-30.033 117.859-86.061 230.47-134.597 341.46 19.764 5.45 41.467 6.49 60.849 12.05 22.455 7.33 16.285 19.49-4.313 26.94-51.56 18.66-113.827 34.99-168.921 27.52-9.575-1.3 1.116-31.25 3.237-38.79 5.15-18.51 10.521-36.96 16.112-55.34 1.47-4.83 6.982-21.84 7.059-25.71.367-18.41.529-37.42.909-55.83l2.887-130.383a27268 27268 0 0 1 15.552-421.759c1.551-31.621 3.53-70.902 8.447-101.975a234 234 0 0 1 4.949-23.381c1.579-5.78 3.774-12.748 5.357-18.59.821-3.029-3.156-1.303-4.432-5.465 15.976-48.556 57.898-106.225 99.471-136.21 34.708-25.502 73.549-39.699 114.786-50.804 107.229-28.877 209.868-30.964 319.172-13.503 47.278-38.335 110.551-70.484 171.87-76.041"/><path fill="#fff" d="M613.458 196.551c44.326-2.208 91.938 2.111 135.469 10.197 44.192 8.21 65.178 55.803 79.811 93.5 13.73 35.371 24.505 72.447 36.009 108.754a8964 8964 0 0 1 47.411 153.468c7.523 25.037 16.117 58.459 26.068 82.102 5.285 12.556 29.221 38.179 39.461 50.061a1087 1087 0 0 1 36.603 44.812c25.01 32.615 41.73 62.6 63.21 96.436-10.33 18.65-27.61 30.31-47.08 38.005-21.05-17.455-42.066-31.086-62.708-50.378C873.157 735.14 814.039 628.055 764 510.606c-14.242-33.547-28.907-69.155-36.49-104.861-1.817-8.552-5.491-44.422-10.243-48.622-1.73-1.53-2.041-1.42-4.334-1.24-15.929 11.959 7.906 83.541 14.063 99.938-34.715 13.773-76.272 33.676-110.51 49.554-11.599-11.681-23.946-22.364-38.172-30.792-6.14-3.636-25.395-17.419-30.397-7.715-4.407 8.549 13.92 15.918 19.613 19.407 19.471 11.932 40.722 25.74 49.458 47.798-33.276-12.128-68.734-27.374-102.225-40.3L243.412 390.459c17.116-35.992 31.047-63.104 58.52-93.007 70.052-76.249 212.468-97.642 311.526-100.901M1773.67 948.829c4.01 2.696 117.8 179.881 129.32 200.391-77.85 47.33-147.01 84.19-238.54 98.01-25.21 3.8-49.19 6.94-74.81 6.57-2.65-.38-5.45-.57-8.04-1.25-10.81-2.88-110.4-184.31-124.35-207.96 22.75-2.8 48.83-4.6 72.2-7.29 98.81-11.38 160.75-37.04 244.22-88.471"/><path d="M1760.89 974.753c8.63 3.211 103.29 150.577 113.77 169.087-9.6 7.83-29.9 19.5-40.87 25.71-76.79 43.48-143.66 59.64-230.55 68.81-15.95 3.39-28.15-25.36-35.71-37.51a2169 2169 0 0 1-53.62-90.58c-4.9-8.89-22.62-39.08-22.39-47.69 5.21-8.55 39.65-10.08 51.55-11.85 86.74-12.88 142.74-31.84 217.82-75.977"/><path fill="#fff" d="M515.771 1032.97c25.651 4.08 57.308 7.19 83.217 9.27 72.211 5.77 152.695 10.1 224.937 6.75-17.95 67.85-40.45 138.43-60.47 206l-16.254.88a1796.5 1796.5 0 0 1-309.864-15.22l57.133-151.8c5.935-15.42 14.728-43.08 21.301-55.88"/><path d="M531.087 1049.86c6.117-.34 21.504 1.62 28.47 2.29q28.182 2.805 56.426 4.89c55.219 4.04 110.575 5.9 165.94 5.6 6.357.02 10.584-.41 15.037 4.04.437 3.34.009 7.16-.905 10.41-12.324 43.94-25.196 87.73-37.934 131.55-3.011 10.36-5.929 22.29-10.118 32.13-4.878.73-11.662.82-16.753 1.03-24.343.72-48.657 1.47-73.012.96-23.928-.51-184.1-8.68-193.649-16.84-1.162-.99-.991-.61-1.072-2.08-.217-3.89 55.244-150.19 62.927-167.23 1.174-2.6 2.695-4.67 4.643-6.75"/><path fill="#fff" d="M959.541 1026.98c24.06 8.53 54.949 24.67 78.359 35.86l171.55 83.74c-17.98 19.44-154.62 184.85-164.75 185.11-8.72-3.9-21.64-11.21-30.42-15.8l-59.446-30.95-115.252-59.96c-15.445-8.02-31.289-15.45-46.577-23.7 27.103-30.62 54.902-59.23 83.213-88.71q41.236-43.2 83.323-85.59"/><path d="M967.291 1052.82c6.928.18 36.029 16.25 43.589 19.98 30.36 14.85 60.65 29.86 90.86 45.04l41.13 20.58c6.81 3.42 28.34 12.99 27.34 17.79-1.99 9.52-37.21 48.38-42.48 54.57l-79.85 92.8c-2.8 1.54-5.2.85-8.51.51-37.6-18-76.38-39.51-113.863-58.41a4178 4178 0 0 1-55.814-28.33c-7.552-3.89-34.65-15.96-35.935-23.9 5.338-19.78 112.617-123.85 133.533-140.63"/><path fill="#fff" d="m730.253 470.931 1.462.188c2.128 2.853 10.432 25.165 12.365 29.989a1385 1385 0 0 0 20.094 47.741c26.403 58.284 49.08 102.226 84.65 155.335-39.901.174-29.798 6.592-31.289 43.985-16.804-2.898-114.03-20.255-124.849-18.18-5.691 4.751-6.996 43.387-7.753 53.205a4396 4396 0 0 1-6.745 77.568 1584 1584 0 0 0-2.497 30.772c-11.239-1.929-17.989-2.653-29.415-3.441-4.719 6.013-13.09 19.897-17.794 26.974 7.917-25.334 16.813-46.193 23.694-72.78 20.61-79.633 13.269-153.863-1.71-233.382-5.51-29.251-17.925-64.899-20.8-92.599 32.135-16.022 67.577-30.928 100.587-45.375m576.367 330.13c5.77-.142 32.42 28.273 39.89 34.959l158.56 143.041a4880 4880 0 0 1-197.18 55.599c-32.19 8.36-65.88 17.43-98.34 24.17-29.38-25.28-56.04-53.11-83.68-80.277-18.48-18.158-41.97-38.021-58.97-56.893 12.38 7.532 36.93 21.686 47.56 29.868 26.21 20.177 52.7 48.902 76.92 72.352 3.01 2.43 9.02 4.81 11.44.67.03-8.88-43.91-49.078-53.03-58.612 9.43 3.179 19.32 8.772 28.8 9.497 6.29.481 8.56-2.351 13.03-6.386 5.88 3.876 20.39 19.029 26.76 17.741 51.02-10.32 100.96-29.61 150.81-44.797 7.91-2.409 30.96-8.603 36.22-14.16 1.61-5.107.85-7.803-3.13-11.58-28.83-27.341-58.86-53.648-88.42-80.204-6.28-4.855-10.05-10.322-18.74-8.415-43.34 9.516-85.81 23.225-128.73 34.408-17.34 4.516-19.93-.393-32.8-8.428l-2.15.678c-2.51 2.944-2.48 6.043-3.07 9.998l-41.14-16.094 5.79-10.263c8.06 3.432 22.61 8.887 31.03 7.894 22.83-2.694 51.78-10.506 74.11-16.482 35.29-9.442 73.86-17.743 108.46-28.284"/><path fill="#fff" d="M652.922 902.868c26.342 4.023 55.228 6.618 81.831 9.887L858.412 928.8c22.672 2.832 48.063 5.089 70.217 8.843-18.563 40.34-40.252 80.937-60.285 120.667-18.395 36.48-35.577 78.37-63.749 107.87 6.099-22.73 14.772-49.76 22.658-72.08 1.498-4.24 10.924-21.31 13.532-26.17a1578 1578 0 0 0 38.76-81.444c4.245-9.453 9.645-20.561 12.823-30.425.74-2.299.075-2.913-1.236-5.084-1.032-1.709-5.181-3.413-7.208-3.697-24.429-3.424-49.338-5.994-73.796-8.996a8806 8806 0 0 1-128.957-17.281c-3.28-.451-10.861-2.14-13.791-1.011-9.113 3.511-56.839 101.048-65.825 106.788-1.113.71-3.37-.02-4.658-.21l-.803-1.23c5.079-13.25 12.035-43.709 15.81-51.298 10.913-21.944 28.494-49.158 41.018-71.174"/><path fill="#fff" d="m964.319 887.051.621.098c4.41 3.539 35.27 126.931 39.55 143.981-13.831-4.66-26.708-13.05-40.921-16.75-4.612-1.21-7.233.43-11.097 2.31-14.978 7.3-77.038 86.1-89.008 83.24l-.017-2.25a3763 3763 0 0 0 64.123-127.018c22.99-47.678 27.43-45.202-30.935-50.97a367 367 0 0 1-18.281-2.265c28.271-8.852 56.953-21.482 85.965-30.376m592.751-38.076c.65.519 77.59 136.687 83.72 149.253-19.02 6.162-34.5 10.222-53.91 14.582l8.91-19.512 3.98-12.068c-3.72-.861-13.33-2.873-16.21-4.961-11.35-8.218-21.95-19.762-32.14-29.487-20.96-20-41.3-40.709-62.57-60.333 19.62-9.674 48.99-26.29 68.22-37.474M1260.78 646.77c5.78 1.737 19.24 7.994 25.29 10.718 17.2 7.758 34.29 15.748 51.28 23.967 43.02 20.561 86.47 40.521 128.83 62.408-35.74 27.405-75.09 52.306-111.52 80.297-2.76-2.289-5.88-5.33-8.56-7.803a3337 3337 0 0 1 54.63-39.073c7.62-5.402 33-20.888 32.94-29.466-7.04-9.363-70.37-37.732-85.05-44.594-27.53-12.621-61.68-31.116-88.39-41.974-16.36 8.659-41.81 27.045-57.93 38.023l-91.71 62.348c-5.94 4.082-38.44 27.649-43.06 28.659-2.79-2.449-3.02-3.399-4.5-6.855 1.7-4.708 104.45-72.322 117.13-81.305 22.3-15.806 57.08-40.366 80.62-55.35M941.696 266.095c16.138 1.623 16.762 12.491 7.127 23.234a81 81 0 0 0 9.137 10.181c18.438 17.252 39.123 21.804 63.4 21.121-13.1 12.828-29.776 22.72-45.658 31.677-10.73 6.051-20.113 10.441-29.372 18.78l-7.527 9.454c-9.433-7.051-29.512-27.092-35.722-30.268-4.665 1.57-6.935 10.058-8.644 14.552l-9.629-6.188c11.058-23.491 20.08-49.148 31.712-72.366 5.706-11.388 13.384-16.617 25.176-20.177"/><path d="M928.59 337.87c10.592-1.159 16.741 4.837 12.253 15.269-8.966.286-15.351-6.125-12.253-15.269"/><path fill="#fff" d="M1392.64 1180.97c.4-.08 1.66.11 2.14.16.4 3.25-51.43 138.1-57.35 154.59-40.48 1.39-93.2-3.36-134.53-6.26-37.03-2.6-83.99-4.62-119.85-9.59l-2.2-.14-.98-1.17c1.92-3.96 7.94-9.53 11.28-12.91 32.06 2.06 210.94 19.58 227.57 13.71 6.7-6.11 47.06-111.48 55.09-131.33zm-314.27-321.749c15.49 6.862 33.16 11.88 48.92 18.523 16.08 7.034 32.46 15.105 48.04 23.154 9.38 4.848 29.95 12.847 35.47 20.743l-.38 1.45c-11.02 1.653-47.87-26.689-56.45-17.232-2.01 15.173 47.65 20.582 52.3 33.068l-1.01 1.957c-9.28 1.625-45.27-21.554-57.95-20.028-2.97 1.941-1.99.642-3.05 4.033 2.91 10.95 42.62 18.176 50.61 26.863-.09.779-.04.657-.4 1.448-.13.279-2.54 2.692-2.56 2.689-11.83-1.713-44.76-23.244-54.57-19.679-2.29 2.93-1.75 1.504-1.7 5.502 1.5 3.269 2.67 3.481 6.02 5.348 8.88 3.671 26.78 10.502 34.58 14.762-4.25 1.486-29.67-9.85-33.94-11.911l-1.4-.682c-37.19-16.424-66.52-36.868-94.22-66.179 13.5-7.058 21.39-13.072 31.69-23.829m-15.1 83.359c16.94 2.515 115.38 116.47 142.59 130.22 3.88 8.11 10.63 24.95 22.13 22.78 17.88-3.36 35.81-8.24 53.51-12.63 33.37-8.33 66.68-16.9 99.91-25.74 18.65-4.9 39.52-10.9 58.22-14.94 2.3 4.28 6.46 8.39 5.06 13.16l-3.9 1.49c-63.68 16.03-127.21 32.62-190.59 49.76-12.9-18.38-27.2-5.45-46-.77a1303 1303 0 0 0-66.93-80.65 1916 1916 0 0 0-44.61-46.813c-8.99-9.141-21.39-21.122-29.82-31.229-1.17-1.403-.19-2.867.43-4.638M959.612 836.999c1.071.092 43.038 34.092 47.768 37.769 4.12 38.659 9.98 78.007 13.34 116.891.08.879.23 7.808.06 8.169-1.68 3.432-5.93 5.382-4.8 10.012 2.49 10.15 9.73 18.53 10.6 29.46l-1.88.8c-2.68-1.07-4.95-3.58-5.76-6.3-2.77-9.29-5.39-23.87-7.74-32.76-6.13-23.196-24.861-110.008-36.365-126.971l-.756-1.101c-3.228-.549-5.458-.659-8.267-2.338l.562-2.096c4.572.733 7.02 1.177 10.652-1.901 2.23-8.447-6.962-13.925-13.534-16.947a9555 9555 0 0 1-104.626 41.436c-14.454 5.566-32.008 12.977-46.882 16.537-5.21 1.248-18.445-1.297-24.305-2.226 55.941-23.586 115.288-45.356 171.933-68.434m-378.77 450.831c39.74 5.46 85.055 8.34 124.985 11.07 38.541 2.89 77.1 5.53 115.674 7.93 9.202.54 52.144.05 57.035 3.25 2.871 4.67 1.394 10.63-2.922 13.66-34.036 2.74-77.839-.82-112.466-3.6-59.847-4.81-130.098-9.75-188.804-20.84 1.987-4.23 4.056-7.49 6.498-11.47m602.948-178.45c9.54-1.11 7.82 24.55 29.33 9.81 11.61 10.73 23.12 21.57 34.52 32.53 5.78 5.59 15.47 16.05 21.67 20.23 3.12.77 7.48.14 10.58-.68 38.5-10.18 77.04-19.64 115.95-28.14 4.09-.89 9.04-5.01 13.71-6.57 23.33-7.8 46.65-14.98 70.27-21.89 5.24 8.56 10.1 16.61 14.97 25.39-14.67.19-27.44-.75-42.01-2.32-5.92-.91-25.77-4.77-28.1 2.17 4.8 5.95 18.06 7.48 25.24 8.38-22.48.99-48.68 3-70.78 6.77-43.25 7.38-85.92 21.01-129.56 25.75-13.39 1.45-26.68 2.8-40.11 3.88l-8.29-5.79c8.78-10.63 17.73-21.14 24.85-32.97-9.81-17.78-35.98-23.39-55.73-34.01 4.48-1.19 8.92-1.81 13.49-2.54M703.452 744.604l44.367 7.02-4.519 61.97c-46.133-.216-35.93 8.336-39.578 50.881-1.27 9.069-1.478 19.015-2.658 28.449l-1.461 1.034c-3.45-.22-6.161.064-8.815-1.926-.594-6.422 2.879-35.891 3.64-44.482z"/><path fill="#fff" d="m1511.11 992.286 1.07.151c-4.52 2.392-8.72 3.975-10.38 8.763 1.01 3.72 3.2 5.36 5.92 8.18-35.19 8.54-69.24 18.3-104.18 27.6a5881 5881 0 0 1-173.32 44.34c-4.05-.94-6.79-6.57-9.09-10.21 41.82-11.71 87.13-22.62 129.4-33.79 53.77-14.13 107.3-29.14 160.58-45.034M781.308 1252.32c3.029 1.75 6.292 4.01 9.162 6.05 18.882 13.43 39.036 24.41 58.853 36.39l-182.077-12.56c-10.103-.79-75.549-4.43-79.047-8.87l.967-2.16c1.304-1.05 4.14-3.03 5.869-2.9 54.22 3.95 108.59 3.34 162.892 1.19 17.416-.68 16.455-2.34 23.381-17.14m13.53-26.75c3.172.71 36.444 22.28 41.267 25.19a622 622 0 0 0 28.838 16.22c4.751 2.5 65.099 32.49 68.691 31.69 17.61-3.9 13.106-3.26 29.695 6.68l-8.732 13.93c-.941 1.05-2.33 3.21-3.581 2.9-50.225-12.72-126.756-54.38-165.571-85.76 2.821-3.98 6.071-7.29 9.393-10.85m-31.92-470.911c13.394 1.541 27.111 5.225 40.592 6.702 4.183.459 8.217 1.108 12.275 2.255 1.51 1.589 2.263 3.251 2.213 5.511-.232 10.535-23.958 2.639-29.32 9.264-2.94 3.632-2.298 20.289-2.36 25.141-8.747 3.264-11.369 4.861-11.946 15.105-.88 15.611-1.558 31.245-2.382 46.863a946 946 0 0 1-2.023 31.528c-7.564 4.908-8.152 4.573-17.207 2.688 2.045-45.352 5.669-100.075 10.158-145.057M275.505 1151.42l9.48-.31c-6.833 16.18-14.555 32.76-21.591 49.03-19.079.23-31.766-1.76-50.224-5.77-5.895-1.64-10.673-3.03-16.41-5.13 2.49-10.83 7.17-23.89 10.247-35.21 21.871.19 46.64-1.34 68.498-2.61M1449.55 773.774c2.56 1.761 19.84 19.846 22.88 23.135 16.39 17.774 35.39 36.29 50.83 54.823l-15.01 8.487-7.1-4.556-80.94-61.784zM864.002 725.68c2.486 2.315 15.687 19.907 18.578 23.648-.547 8.905-5.386 31.456.596 37.383 3.453 1.176 2.03 1.213 5.356.159 4.845-5.218 5.045-15.287 5.931-22.568 4.717 5.873 8.273 10.502 12.592 16.749-6.017 12.069-15.503 26.795-22.653 38.559-7.216 12.252-17.486 30.98-26.639 40.996-.13-15.526 1.613-34.472 2.342-50.38a6132 6132 0 0 1 3.897-84.546m693.098 520.76c1.83.55 10.04 11.91 13.02 15.2-52.59 3.28-111.46 2.62-164.37 1.68-7.46.07-10.03-8.24-13.05-14.17 54.19-1.11 110.48-.96 164.4-2.71m-457.42-603.025c25.5 12.787 56.04 28.767 82.12 39.854-5.54 4.204-12.72 8.961-18.52 13.01-13.55-6.129-29.29-14.401-42.97-21.007-17.93-8.43-23.83-2.268-34.18 13.024-4.57 6.761-9.2 13.934-13.69 20.791-5.15-1.699-11.28-4.275-16.42-6.27 14.33-18.137 29.59-40.451 43.66-59.402m354.42 424.805c2.63 2.71 4.75 7.4 6.58 10.87-42.43 10.41-84.64 23.83-127.19 34.06-15.99 3.85-31.84 8.76-47.92 12.23-3.28.71-4.29-.17-7.07-1.47-3.93-2.2-7.96-4.68-11.85-6.99 63.23-16.88 123.83-33.26 187.45-48.7M833.151 719.967l15.943.101c.03 14.789-5.642 145.799-8.467 149.319l-13.732 4.656zm752.929 124.884c6.78 3.229 72.33 128.506 79.59 143.289-2.86 1.315-6.54 2.673-9.51 3.872-4.95-1.69-71.55-125.216-79.41-140.548 4.4-2.519 5.53-3.136 9.33-6.613"/><path fill="#fff" d="M1470.2 927.708c13.79 2.937 91.08 54.118 111.33 64.61-4.05 12.122-10.04 9.462-21.97 13.832a774 774 0 0 1-33.06 9.84c-1.28-5.66-1.72-7.04-4.15-12.3 4.18-5.639 12.25-2.01 14.46-11.934-1.16-7.036-56.96-54.026-66.61-64.048m-446.02-41.404c8.68 1.99 23.41 18.148 29.89 24.702-10.12 12.099-7.9 23.524-8.03 38.596 4.85 7.711 10.6 13.341 16.76 20.012-7.84 4.51-12.7 6.067-11.57 16.034 1.84 2.973 2.31 3.681 3.33 7.002-2.61 5.124-11.98 10.49-18.02 8.21-.72-.977-1.62-2.152-1.66-3.433-1.19-37.29-7.47-74.034-10.7-111.123m205.16 226.966c11.56-2.12 17.58 13.89 26.94 19.16 3.96 2.23 2.92-2.61 7.27-1.28 3.5 1.08 13.1 6.4 16.12 6.48 19.72.47 54.12-10.18 73.71-15.21 5.01 4.83 10.24 6.6 12.88 9.91l-.45 1.33-5.2 1.6c-22.46 6.91-63.79 18.54-86.57 22.86-6.6-5.98-43.57-39.51-44.7-44.85m178.35-310.023c4.2 2.272 22.24 16.571 27.19 20.375l57.73 44.368c-4.68 2.713-9.42 5.869-13.99 8.807a1648 1648 0 0 0-27-22.751c-9.92-8.344-39.61-32.419-50.63-35.045-7.35.722-20.95 13.715-28.92 18.967-2.85-.047-2.46-.685-5.27-3.438l.05-1.734c6.44-6.295 32.6-24.246 40.84-29.549m232.16 38.063c7.5 1.934 68.41 109.36 76.83 123.581-2.68 1.718-6.15 3.568-8.98 5.175l-2.73.663c-1.83-1.214-72.05-124.783-71.86-127.448zm-239.75 382.22c44.65-1.95 99.12-.59 144.12-.61 1.92 2.86 4.48 5.89 4.84 9.14-2.23 2.2-2.22 1.45-6.39 1.7l-150.56 1.46c1.73-6.4 1.24-10.63 7.99-11.69M788.852 818.15l25.411-.055c-.724 18.708-.976 41.386-3.601 59.963-.482 3.407-2.277 3.643-5.016 5.108-6.666 2.798-13.945 5.404-20.74 7.977 2.63-20.219 3.214-52.346 3.946-72.993m820.938 23.334 1.83.257c6.91 4.593 71.74 120.004 78.52 134.293-1.25 2.689-3.56 3.196-6.67 4.93l-3.48 1.187c-2.25-.904-36.87-69.948-41.96-78.691-10.14-17.411-22.52-39.254-32.72-56.936.62-2.626 2-3 4.48-5.04m-137.63-83.641c9.28 2.069 68.11 66.868 78 78.191l-11.05 6.106-1.99.12c-7.9-5.782-27.74-27.847-34.91-35.531a1311 1311 0 0 0-40.54-41.655zm-555.363 35.721c3.344 1.88 27.281 27.312 31.902 32.046q-20.878 9.001-42.029 17.342a1833 1833 0 0 1-25.113 9.769c8.749-16.845 24.939-41.694 35.24-59.157m80.243-99.545c8.97 1.177 57.49 22.897 68.18 28.01-3.72 6.102-9.02 13.607-13.06 19.681l-8.95 13.519c-5.94-7.118-44.26-56.534-46.17-61.21M721.796 827.845l20.333.77c-.204 15.173-2.59 55.54-4.598 70.142l-21.729-2.296c.257-16.678 4.093-51.319 5.994-68.616m944.824 10.738c8.99 4.946 66.04 100.364 70.84 113.354-1.13 2.655-3.28 3.394-6.04 5.254l-1.83.282c-3.61-4.416-18.95-30.967-22.58-37.386-14.83-26.213-29.39-50.011-45.35-75.476.71-3.118 2.18-3.545 4.96-6.028M421.228 1192.57c6.188-.36 12.744-.5 18.972-.74-2.827 7.09-15.384 44.24-19.161 46.92l-4.275-.88c-6.893-1.58-14.241-3.67-21.122-5.48 3.188-13.19 6.123-26.44 8.805-39.74zm958.392-23.13 1.59-.04c-5.18 4.42-114.93 39.42-127.53 42.4l-7.21-5.24c-4.36-3.33-8.8-7.06-13.07-10.55 12.72-.21 31.36-.43 43.64-3.07 34.33-7.38 67.76-17.97 102.58-23.5m-345.13-152.22c1.55-.13 3.11-.24 4.67-.34 1.35-.08 5.57-.19 6.3.6 5.8 6.32 12.95 13.79 18.97 19.77 15.45 15.41 31.34 30.36 47.66 44.84-7.53-1.64-57.66-27.38-67.23-32.11-2.24-10.51-6.76-22.45-10.37-32.76m457 159.2c6.61-.55 17.29-.48 24.2-.63 2.95 3.89 5.64 8.64 8.18 12.87l-81.37.2c-6.16.04-29.85 1.17-33.49-1.62.62-3.38.54-3.77 2.47-6.47 5.78-1.33 19.93-1.54 26.6-1.86zm-26.45-84.23 1.98-.14c3.13 2.48 4.68 6.41 6.59 10.07-14.74 3-83.99 25.7-91.94 21.65l-14.4-4.81c32.51-9.2 65.11-18.13 97.77-26.77m-403.63-87.79c2.32 1.02 18.69 16.92 20.91 19.74 13.09 16.62 73.69 60.47 72.05 79.34-10.7-3.98-82.91-78.45-94.63-91.57-.51-2.8.63-4.51 1.67-7.51m431.98-259.759c12.05 4.474 72.17 70.317 81.95 84.736l-3.05 5.156c-.52 1.175-.08.641-1.64 1.285-4.39-2.897-24.56-26.798-29.91-32.483-10.49-11.289-21.28-22.351-32.47-32.951-6.25-5.925-17.37-15.903-14.88-25.743m-90.04 457.419 85.73-.09c8.6.02 38.03-1.83 44.1 2.11 2.01 3.07 1.62 1.61 1.57 5.32l-1.66.58c-30.02.43-60.44 0-90.49.19-7.57.05-34.9.96-40.52.06-.99-2.66.36-5.34 1.27-8.17m-335.84-221.144c2.13-.015 5.02-.298 6.93 1.04 16.76 11.78 30.77 30.064 44.25 45.354 5.12 5.8 15.8 25.07 17.96 32.15l-1.26-.56c-9.18-9.31-73.54-68.58-71.71-76.456zm718.9 256.504c20.23-1.59 23.41.8 43.27 7.05a6327 6327 0 0 1-72.89 3.72c-13.27 1.02-27.84 2.42-41.04 2.73 30.78-8.28 38.46-11.54 70.66-13.5m-397.35 33.59c3.03 1.77 6.04 3.91 8.96 5.89 4.97-.04 9.68-.82 13.56 1.85l.15 1.6c-5.28 4.56-11.03 3.74-17.98 3.83l-21.8 1.63 4.8-11.17c6.03-.77 6.9-.92 12.31-3.63m-34.73-613.605c4.4-.382 3.34-.96 6.42.956 1.98 4.388 2.4 13.069 3.1 18.376-6.09-2.379-12.61-5.53-18.6-8.269a1105 1105 0 0 1-19.3-8.739q14.205-.986 28.38-2.324M801.067 789.842l15.494-.347-.519 13.285-15.218.068zm355.413 280.748c4.03 2.67 22.93 24.37 23.2 28.61-1.97.72-3.86 1.25-5.87 1.83-4.43-2.76-14.53-24.58-17.33-30.44m-5.01-196.722c6.38.442 20.21 5.524 25.89 8.891 2.08 1.23 1.69 2.692 2.12 5.373-8.03-.808-20.94-9.776-28.01-14.264m668.5 339.062 1.64 1.45-.23 1.69c-4.09 2.47-12.31 4.42-17.18 5.79l-1.41-.12c1.9-2.12 13.83-7.25 17.18-8.81"/></svg>