<svg xmlns="http://www.w3.org/2000/svg" preserveAspectRatio="xMidYMid meet" viewBox="0 0 2048 1152"><path d="M1385.62 86.407c20.16-4.817 62.81 3.467 81.23 14.913 39.06 24.273 17.11 51.91 24.11 82.589 7.18 8.794 16.2 14.111 27.5 16.007 18.17 3.009 36.56 1.763 54.88 1.261 54.07-1.485 108.07-4.846 162.16-5.608 6.08-.085 17.75-.874 22.36 3.535-.33 7.28-3.59 19.74-5.13 27.37a391 391 0 0 0-5.24 34.891c-4.3 40.843 2.92 102.578 9.72 143.366 1.5 17.023 11.88 41.196 3.17 56.596-11.97 21.192-80.56 9.332-90.02 23.196 2.21 4.426 28.41 12.902 37.08 18.025a67.1 67.1 0 0 1 19.07 16.695c10.71 13.68 13.73 26.915 15.07 43.188 4.97 60.094-42.59 104.234-53.28 160.445-1.77 9.295.63 14.241 6.43 21.572 17.45-2.438 22.71-1.603 35.36 10.578 5.5-19.347 15.4-47.267 23.76-65.507-4.15-11.201-18.26-51.872-2.89-58.682 9.81-.489 14.92 16.846 17.6 24.235 2.01-12.977 9.78-62.557 26.98-62.473 1.3.706 3.15 1.919 3.67 3.284 8.92 23.437-19.09 52.859-24.51 71.712l-.15.527c17-18.089 38.49-31.085 64.77-25.644 5.1 1.054 11.87 5.523 9.13 11.479-4.2 9.121-17.79 13.743-26.56 17.682 7.99 11.343 14.11 19.06 21.67 31.173 5.23-15.971 10.85-45.054 10.21-61.804.01.192-8.68-9.383-9.48-10.223-51.48-54.245-20.31-96.674 13.01-11.636 2.02-9.559 3.19-24.704 1.96-34.319-.67-5.305-2.51-10.61-3.61-15.855-4.92-23.326-2.94-56.924 10.45-77.348 2.1-3.2 5.12-7.814 9.26-8.378 2.61-.355 5.47.533 7.53 2.144 4.52 3.539 6.19 10.325 7.13 15.68 7.03 40.188-21.13 68.126-18.45 89.548 1.55-.195 5.72-7.356 7.04-9.689 6.6-11.721 47.02-41.623 56.53-22-.14 3.148-1.54 5.018-3.85 7.182-15.34 14.396-47.54 33.814-61.22 48.223.1 10.044-1.29 19.238-2.71 29.144l.59-.983c10.63-17.286 40-35.491 60.95-28.694 4.44 1.439 6.13 2.514 6.55 7.19-4.63 13.305-33.59 27.632-46.06 33.013-6.84 2.947-15.44 5.053-21.73 8.825-5.55 3.333-10.91 43.909-13.5 52.743 12.35-13.909 26.06-23.398 43.77-29.365 7.79-2.628 21.75-7.991 28 .15 1.85 2.41 1.62 3.458 1.03 5.977-6.3 7.28-68.04 43.522-79.02 48.974l-8.47 29.32c13.23-8.754 52.06-26.848 65.11-12.749 3.31 11.782-20.28 19.909-28.89 24.458-15.05 7.943-31.51 14.483-46.08 23.36-2.36 9.803-5.46 20.1-8.2 29.854 14.19-13.98 31.44-22.461 51.66-21.439 4.26.216 9.34.648 12.36 3.99 2.87 15.688-62.79 42.914-77.34 49.358-4.6 9.505-11.31 21.872-13.92 31.681 11-7.533 25.59-14.856 38.81-17.099 5.66-.96 23.08-2.641 23.82 5.473-5.27 16.24-60.34 34.404-74.42 46.323-7.22 6.106-20.47 38.09-23.42 47.025 1.67-1.531 3.6-2.958 5.19-4.508 10.23-9.917 58.86-24.758 66.5-11.027-1.9 13.07-67.96 33.062-81.21 38.459-2.78 5.09-3.83 8.41-5.68 13.82 6.83 7.11 34.17 37.15 31.2 46.02-8.83 4.24-96.27 2.38-110.59 2.48-84.77 1.05-169.55 1.25-254.33.6l-126.8.74c-19.2.06-28.91 2.49-47.76-2.07-.02.68-.04 1.37-.07 2.06-10.86-.08-21.72.05-32.57.39-6.32-1.69-56.38.29-65.79.38l-113.27.2c-8.8.07-17.57-.72-26.364-.71-9.095.01-18.164.94-27.256.96-57.364.18-633.375 3.19-638.441.37-1.143-.64-1.721-2.11-2.016-3.35-2.437-10.27 14.758-38.47 19.612-47.95-3.426-10.79-3.564-34.22-9.923-42.384-4.741-2.618-13.503-4.839-18.255-4.463-12.873 1.018-15.761 19.698-26.482 20.854l-1.728-1.902c-3.793-12.85 3.363-32.083 14.877-39.088 9.153-5.568 19.319-3.225 29.002-1.042-3.161-11.789-7.303-27.279-11.867-38.41-21.618-4.784-32.912-5.957-54.6 2.863-19.069 7.754-10.966 24.008-21.345 30.157-1.843-.443-3.531-.663-4.337-2.551-9.718-22.754 2.821-57.741 21.908-71.239 16.737-11.836 28.385-10.293 45.378-7.976-6.128-17.231-11.204-30.307-18.355-47.105-35.068-6.96-63.684 13.108-74.758 45.818-2.196 6.485-1.075 23.349-10.244 23.758-6.193-6.21-4.333-23.626-3.809-32.106 1.955-31.625 22.859-64.459 56.199-69.096 6.938-.964 12.503-.189 19.432.537-5.51-14.204-14.143-31.388-20.784-45.419a221 221 0 0 0-5.929-.052c-26.75.17-51.999 16.269-63.943 41.418-5.252 11.059-4.391 34.913-10.878 41.494l-1.987-.001c-3.025-2.328-5.105-7.425-5.558-11.148-3.942-32.376-3.066-71.892 23.841-94.905 13.361-11.426 26.643-12.749 43.245-11.332-6.076-10.617-16.422-23.862-24.331-33.25-21.582-.713-57.571 4.779-71.408 23.79-4.853 6.667-8.794 26.791-18.967 22.411-1.823-2.789-1.747-7.491-1.271-10.71 6.04-40.898 26.139-57.302 65.873-62.226-22.522-23.873-54.501-26.314-65.343-64.414-1.147-4.031-2.429-7.824-.458-11.401 1.012-.477 2.696-1.117 3.755-1.089 30.278.794 45.371 36.492 59.487 57.896 1.973 2.991 7.767 7.841 10.443 10.116 1.441-21.323.165-35.758 16.277-50.299-6.329-17.92-23.76-50.641-31.925-69.467-16.593-38.255-35.118-76.211-51.475-114.671-1.519-6.522-17.341-26.9-16.712-31.652 4.58-34.606 86.258-71.857 106.702-78.933a162 162 0 0 1-.557-6.178c-2.139-31.749-2.14-61.764 20.074-87.134 47.793-54.583 128.778-19.841 189.736-24.279 26.321-1.916 41.026-8.05 51.437-33.527 3.113-7.618 6.095-15.006 11.629-21.267 6.624-7.493 15.382-12.678 24.637-16.256 47.653-18.425 173.206-20.04 221.996-4.283 7.17 2.315 14.848 5.33 21.059 9.641 14.197 9.853 21.831 21.331 40.368 24.121 29.69 4.47 55.39-3.798 83.955-10.295a302 302 0 0 1 50.589-7.288c73.625-3.859 139.785 20.359 211.395 18.339 79.92-2.255 160.35-41.368 240.24-45.698"/><path fill="#fefefe" d="M1506.26 855.617c29.76-4.126 70.16 4.972 95.28 21.022 45.9 29.327 81.79 83.303 114.5 125.351-18.37-.94-33.99-1.25-52.41-3.624-19.01-2.451-37.25-7.081-56.02-9.629-65.87-8.939-102.72 1.948-159.9 30.393a366 366 0 0 0-58.31-50.616c-8.5 4.668-21.79 14.948-29.71 20.956a1051 1051 0 0 0-58.12 47.14c-74.7-31.89-131.71-41-205.35.75l-31.09-39.956c-5.61-7.182-13.88-18.285-20.19-24.478-42.71 21.742-87.927 42.794-131.177 63.894-15.589-19.43-31.628-42.093-46.893-62.278-6.213 2.957-12.468 5.946-18.753 8.744-46.257 20.594-90.913 44.164-137.352 64.374-17.438-22.82-33.592-48.839-51.333-72.207l-86.113 40.777c-14.621 6.98-34.99 17.51-49.776 23.09-15.396-20.67-32.826-47.109-49.677-65.962a536 536 0 0 0-35.19 20.139c-26.321 14.133-69.298 41.563-93.485 58.033 25.831-52.76 86.193-124.74 136.391-156.447 21.855-14.06 41.387-17.44 66.604-18.29 24.198-.816 22.444 4.962 13.337 26.876 45.008.633 98.917 6.907 141.96 5.981 10.061-7.204 30.079-16.799 41.392-24.055 8.561-5.491 31.27-17.95 40.346-19.58 5.525-.993 28.113 8.833 35.082 11.44 20.893 7.818 35.897 9.083 58.049 10.278-9.851 9.749-19.561 15.196-24.485 30.585-1.827 5.712-3.314 15.463-.565 20.961 8.482 6.154 18.31-9.26 25.15-10.888 17.331-4.124 52.273-19.341 68.534-19.107 16.058.23 43.41 13.533 60.704 14.753 18.93 2.502 12.57-5.452 34.31-1.955 23.01 3.701 39.24 11.728 61.14 16.067 11.82 2.342 30.71.707 42.91 3.226 6.45 1.333 20.2 9.174 26.3 9.967 1.41-1.312 2.71-2.068 2.8-4.164.61-14.86-8.13-29.186-21.36-35.828-8.75-4.393-17.71-5.822-26.67-9.071-9.91-3.596-18.32-10.085-28.95-11.523-11.58-2.112-21.87.266-32.46-1.294.27-.227 63.84-14.962 70.4-16.497 15.97 4.687 35.47 14.606 53.76 20.15 39.98 12.113 106.69 9.229 147.77 1.366-.05 5.02-1.04 12.504 2.75 16.006l1.59-1.208c2.29-4.499 1.91-10.57 2.03-15.746 41.79-8.21 74.69-16.159 115.75-27.318 3.26 9.579 14.35 46.258 20.45 50.537l1.37-.566c2.58-6.267-12.1-43.611-14.94-51.614 12.27-4.536 26.67-7.374 39.62-8.955M374.224 402.573c23.377-2.403 39.547 1.343 61.708 4.668 62.674 9.403 92.091 56.215 139.295 91.255 22.814 16.936 53.782 28.89 76.786 46.588 25.58 17.539 46.551 39.804 69.973 60.05 46.603 40.284 130.315 43.128 189.399 37.447-3.774 7.237-9.388 16.126-13.562 23.761a4111 4111 0 0 0-27.373 52.051c-2.751 1.665-2.713 1.002-6.48.474-46.276-12.963-94.333-27.628-137.267-47.795-64.472-30.285-119.049-67.768-192.116-74.122-29.505-2.565-57.775-5.353-87.698-2.691-12.733 1.133-27.245 2.393-40.005 2.842-6.151-19.528-20.453-50.694-28.847-70.538a8503 8503 0 0 0-50.143-116.961c14.538-5.306 30.969-6.079 46.33-7.029"/><path fill="#fefefe" d="M1500.25 569.568c10.54.362 18.81 2.624 27.54 8.764 41.93 29.491 31.72 84.776 63.35 122.675a87.24 87.24 0 0 0 42.8 28.058c5.81 1.675 11.46.611 15.08 3.911 3.17 10.71 15.95 15.402 26.45 21.297.67 2.164 1.89 7.215 3.86 8.261 15.77 8.362 28.78 17.754 43.03 28.475-2.8 11.346-4.51 22.253-7.58 34.096-1.32-.874-2.65-1.727-4-2.557-13.08-8.086-43.89-17.132-52.89.341a6.84 6.84 0 0 0-.34 5.513c.97 2.573 4.08 5.611 6.43 6.666 15.83 7.097 31.1 12.254 47 19.71-1.66 14.153-2.69 30.057-3.8 44.318-13.82-7.97-21.61-11.16-37.66-11.15-10.69 2.397-12.05 2.54-20.39 9.957-59.35-52.854-108.95-67.588-186.23-45.109-7.94-18.864-14.95-46.137-21.39-66.629l-35.17-109.881c-4.32-13.735-12.27-41.355-17.6-53.836 30.62-22.058 72.71-51.936 111.51-52.88M461.623 604.409c56.742-1.593 119.165 6.9 170.666 31.309 27.521 13.043 54.913 29.36 82.832 42.208a834.5 834.5 0 0 0 149.528 51.511c-7.991 17.518-14.95 34.068-21.793 52.022-5.337 11.844-13.196 22.087-16.218 34.971-7.775 33.151 3.844 44.537 31.49 59.44-28.095-5.53-41.383-10.639-67.728-22.481.552-3.704.678-5.481.633-9.037-.26-20.566-7.578-17.158-17.096-26.204-1.057-4.245 4.676-8.66 6.19-14.896-.43-6.59-.01-15.471.638-22.026-.87-1.579-3.743-6.366-5.638-7.206-19.399-7.48-54.908-16.81-75.337-17.142-9.658-.157-44.299 8.259-56.372 10.172a4153 4153 0 0 1-83.748 12.163c-7.621 1.019-16.681 1.382-23.313 2.398l-1.964 1.614c-.286 3.568 7.376 17.51 6.936 20.05-.943 5.454-3.47 14.052-4.785 19.231 3.651 5.518 19.163.782 24.736 7.178 3.95 10.186-5.013 14.942-3.445 23.42-.017-.094 5.612 10.927 6.039 11.86-9.204.487-30.446 2.072-38.368.628-6.792-4.859-102.237-230.075-112.665-256.133 14.911-2.975 33.39-3.886 48.782-5.05M271.932 308.703c5.87 4.071 139.371 325.501 155.615 363.47l57.418 134.338c8.86 20.597 19.878 42.729 27.686 63.428-24.929 7.786-44.022 16.061-63.446 34.425l-4.144-7.112c-19.163-38.033-38.211-80.433-56.527-119.128l-133.865-283.86c-19.681-41.362-39.205-85.626-60.439-125.992 29.679-16.728 58.607-30.071 77.702-59.569"/><path fill="#fefefe" d="M989.279 593.176c3.625.801 18.501 13.629 28.361 13.553 11.44-.087 18.84-4.26 27.27-11.458 25.62 4.78 44.85 14.418 59.52 37.02 17.86 27.519 29.21 58.521 40.04 89.3 5.65 16.037 11.13 36.874 19.28 51.563-6.54 3.685-14.32 6.295-21.4 8.944-2.31-.341-5.31-.58-7.41-1.613-9.24-4.544-27.53-56.673-31.83-67.211-3.46-8.466-15.79-37.125-23.94-40.12-1.42-.522-2.07.084-3.4.647-8.29 11.538-5.15 94.48-3.78 111.516-12.45 9.014-25.42 14.177-40.22 17.859-25.45 3.052-44.889-.021-67.542-12.078-5.923-41.204-3.908-73.891-2.648-115.011-1.714-2.647-.926-1.776-4.196-3.178-6.699 2.037-72.565 103.757-82.37 117.971-7.962-3.356-13.508-6.35-21.114-10.52 4.941-24.908 46.748-97.964 60.316-123.532 13.652-22.15 30.503-46.067 54.757-57.419 6.088-2.849 13.756-4.574 20.306-6.233m288.001-112.813c15.71-.851 23.51-.587 38.69 3.412 2.51 2.22 4.96 5.325 7.16 7.914-10.44 11.771-12.85 20.524-4.04 34.398-4.66 11.136-9.13 27.886-12.62 39.695l-17.51 58.462c-81.08-13.005-77.83-4.126-149.69 25.917-2.96.96-7.28 3.335-10.19 4.818-18.19-29.299-14.43-31.531-42.21-55.185 12.62-12.944 24.7-27.703 37.85-40 43.4-40.565 92.91-71.758 152.56-79.431"/><path fill="#fefefe" d="M1225.39 630.609c20.11-2.847 40.01.801 59.64 5.01-22.23 82.15-51.74 167.898-76.57 249.761-10.3-1.67-22.95-6.173-32.71-9.803-5.28-1.935-10.63-4.066-15.89-6.091 35.14-18.362 29.98-48.057 15.02-78.505-1.64-3.338-3.15-6.927-4.34-10.455l2.91-3.878c.89-3.842-35.33-100.458-40.09-111.86 29.86-12.865 60.27-30.771 92.03-34.179m-147.58 163.21c5.73-.508 46.8 20.195 55.32 24.339-.39 7.394-2.07 14 5.09 18.293 8.26-.307 9.58-11.02 11.11-17.367a271 271 0 0 1 4.06 27.949c-3.06 8.375-6.91 12.896-15.89 14.901-32.99 7.358-71.51 19.901-104.63 24.26l.21-13.004c-11.43-8.954-29.44-15.678-43.099-21.703 25.259-6.437 50.049-16.719 75.539-22.034 4.9-1.022 11.32-.073 14.86-3.992l-.15-2.53c-.66-1.039-1.91-3.431-2.76-3.492-21.24-1.516-82.58 20.937-100.048 26.663l-.53-.271c-8.003-4.053-39.634-20.01-47.042-17.587-1.817 2.552-1.293 1.509-1.536 4.922 2.339 3.012 8.49 5.393 12.173 7.142a5777 5777 0 0 1 84.803 37.481c-1.31 7.62-6.32 31.524-9.64 37.55-14.39 1.995-144.081-38.945-158.519-49.908-3.089-6.735-2.47-33.178-1.324-41.734 2.483 7.969-.007 12.593 8.328 18.362 10.999.738 13.056-21.339 14.22-29.497 22.113-.716 58.703-9.993 82-13.258a110 110 0 0 0 30.746 11.876c33.199 7.592 58.409.366 86.709-17.361m234.84-152.042c4.57.896 8.11.973 13.32 2.165 3.08 20.772 10.8 235.534 9.17 237.792-11.82 6.774-79.96 7.513-96.89 7.31-8-1.118-17.09-1.231-26.36-2.504 6.71-12.678 18.66-45.654 25.6-61.512 26.02-59.415 53.58-122.125 75.16-183.251M965.53 515.413c2.627-.401 9.862-.527 12.84-.662-.501 11.698-3.138 26.216-3.491 38.12-.7 23.599 15.069 18.877 19.977 24.124.433 7.173-5.454 7.794-10.937 8.583-28.426 4.087-46.374 22.098-64.195 44.693-33.085 7.819-77.362 2.89-110.85-.956-15.226-2.605-25.195-4.894-39.934-9.494a284 284 0 0 1 6.841-8.448c48.538-57.253 115.196-89.866 189.749-95.96m396.17 119.675c5.24 6.752 27.78 65.309 32.37 76.259a8936 8936 0 0 0 61.83 143.646c-9.96 3.481-21.78 6.183-32.12 8.8a936 936 0 0 1-79.36 17.512c2.12-19.057 2.45-44.846 3.2-64.582q2.37-51.343 3.75-102.723c.59-24.399.29-51.177 1.73-75.244zM184.127 373.056c7.444 7.48 54.737 112.679 62.223 128.776l75.437 161.157a17725 17725 0 0 1 80.042 168.212c10.759 22.909 28.742 58.277 37.161 81.107q-7.036 6.815-14.175 13.52c-13.109-25.233-25.907-55.698-38.069-81.8l-66.713-141.903-152.059-322.894c5.268-2.296 10.749-4.207 16.153-6.175m1217.833-25.014c2.85-.432 5.64-.807 8.04.679-.16 4.426-8.86 7.726-13.38 14.637l-.59.919c-1.15 19.588 5.39 37.995 25.92 42.936 7.1 1.709 10.15-3.049 13.87-2.113l-.31 1.043c-1.69 1.601-3.26 2.684-5.46 3.509-47.1 17.673-93.67 35.664-139.8 55.768-6.81 3.112-12.46 5.951-19.73 7.83q-1.815-.437-3.6-.984c-13.56-4.212-24.09-23.354-19.76-37.077 2.42-7.964 9.28-11.06 16.07-14.706 12.82-6.889 25.71-13.673 38.61-20.443a6434 6434 0 0 1 100.12-51.998m-726.414-78.025c28.945-3.462 55.278 17.034 59.028 45.943 3.749 28.91-16.486 55.445-45.357 59.48-29.278 4.093-56.27-16.49-60.072-45.807s17.047-56.104 46.401-59.616"/><path d="M680.107 275.825c26.049-1.034 47.979 19.296 48.917 45.349s-19.471 47.908-45.527 48.751c-25.921.839-47.64-19.443-48.574-45.361-.933-25.919 19.269-47.711 45.184-48.739"/><path fill="#fefefe" d="M676.272 295.465a27.746 27.746 0 1 1 10.213 54.539c-14.973 2.631-29.275-7.277-32.073-22.22s6.95-29.354 21.86-32.319m863.868-25.233.9.675q.12 1.362.3 2.72c3.76 28.764 13.8 54.031 37.43 72.128-28.2 11.76-57.46 22.51-86.11 34.388-30.51 9.307-54.26-52.459-32.61-65.756 22.03-13.527 56.47-32.826 80.09-44.155m-185.53 221.604c30.54-.819 91.16 47.563 105.75 74.129-12.09 5.413-23.31 10.353-34.99 16.629a407 407 0 0 0-40.17 27.743c-6.87-21.083-20.11-63.858-28.32-82.292 10.96-12.055 8.21-24.958-2.27-36.209m-30.16 37.724c11.24 4.188 14.29 4.447 26.12 2.009 15.9 54.178 38.07 107.48 53.35 162.291 8.27 29.656 20.35 59.62 28.97 89.557-5.59-10.28-9.83-22.164-14.35-33.044l-17.43-41.101c-16.22-39.099-32.98-78.342-45.26-118.895-3.13-10.323-3.49-27.504-3.94-38.381-.74-2.729-1.01-3.107-2.41-5.601-3.53-2.839-13.06-3.175-17.69-3.108-1.22.018-3.89.419-4.95 1.037-.16.095-1.83 1.063-1.85 1.225-1.47 10.743-.6 25.512-2.01 36.1-1 7.516-2.85 14.96-4.5 20.627-5.39 18.57-59.54 161.719-67.26 170.486 15.56-52.921 33.54-105.644 48.78-158.829 8.08-28.228 17.88-55.562 24.43-84.373m406.32-323.822 15.51-.17c-16.46 53.742-10.83 127.785-2.63 183.577 2.86 19.449 8.43 43.814 9.27 63.088l-6.11 6.993-4.53 1.543-1.65-.856c-18.41-85.537-38.83-168.628-9.86-254.175m-32.48 303.62c14.23 5.453 26.18 25.26 29.69 39.674 12.06 49.535-20.81 92.1-39.85 134.931-4.38 9.851-8.43 32.284-12.45 39.136-6.55-3.115-11.79-4.726-18.98-3.62l-1.07.171-.83-1.869c.45-30.116 36.73-78.152 47.15-106.846 13.83-38.074 12.41-65.064-3.66-101.577m-921.347-280.53c13.001-.718 31.524 5.517 41.763 13.433a42.64 42.64 0 0 1 16.206 28.632c2.116 16.86-3.707 33.241-13.905 46.495l-1.995 1.525c-3.15-1.143-6.004-4.521-8.52-6.834-12.504-11.495-29.079-18.872-44.324-25.657 8.403-21.83 11.113-34.141 10.775-57.594m-197.494-.757c3.497-.312 2.656-.709 5.532.543 1.523 4.843.35 17.786 1.175 23.758 1.629 11.788 4.945 21.746 8.781 32.885-24.109 9.816-31.867 14.182-49.873 32.865-12.639-11.873-21.44-46.594-11.642-61.936 11.121-17.415 27.555-23.083 46.027-28.115m-34.803 101.603c17.953 15.229 28.573 21.432 50.395 29.608-4.789 13.3-7.658 25.464-7.8 39.633-.035 3.47.213 15.69-1.327 17.847l-3.133.155c-21.255-2.667-39.152-13.54-52.275-30.307-1.286-21.544 2.794-38.809 14.14-56.936m273.322 1.124c12.867 8.391 21.216 49.77 8.73 62.649-14.07 14.513-25.625 19.791-45.241 22.221-2.543.399-2.688.354-5.248-.117-1.693-3.098.444-18.833-.601-24.775-2.058-11.708-4.212-19.556-8.015-30.798 21.997-8.126 33.424-12.956 50.375-29.18m205.202 153.218c6.22 8.425 26.64 18.762 26.01 25.488-2.24 24.054 2.09 56.706-30.75 58.689-24.054-3.623-25.348-30.575-24.434-49.51 1.4-28.974 12.214-19.442 29.174-34.667"/><path d="M1000.01 506.965c33.01 2.21 15.7 25.556 22.25 32.395 2.63-.302 5.25-.633 7.87-.994l1.03 1.121c-.68 3.913-.02 2.419-3.38 5.685-4.27-.078-8.68.633-12.11-1.617-2.63-3.467-3.02-4.884-1.46-9.182 9.44-26.06-10.62-16.079-17.597-23.246.673-2.913.314-1.92 3.397-4.162m9.03 42.144c9.99.103 19.45-2.712 26.62 4.621-5 2.457-18.32 1.761-24 .703-2.86-2.333-2.07-1.005-2.62-5.324m24.11-28.68c3.43 1.332 8.05 2.919 9.88 6.03-.6 3.009-.19 1.945-2.99 4.349-4.79-.459-9.7-.272-11.79-5.146 1.41-3.419 1.52-2.727 4.9-5.233m.3-11.393c5.29-.256 12.76-1.56 13.33 5.407l-1.27 1.226-1.69-.824c-4.78.061-10.56 2.098-13.83-.199.49-3.304.91-2.866 3.46-5.61"/><path d="M1007.57 521.174c3.4 1.02 5.31 1.53 5.7 5.119-2.48 3.053-2.01 2.174-6.62 3.281-3.4-.675-6.908-.904-8.283-4.32 3.113-3.146 4.333-2.662 9.203-4.08"/><path fill="#fefefe" d="M625.542 172.171a59 59 0 0 1 3.359-.259c19.521-.935 34.268 6.957 48.188 19.677a136 136 0 0 0-13.431 17.185c-3.003 4.52-15.116 26.281-17.448 27.934-17.944-8.695-33.529-14.085-53.569-14.974 4.062-23.259 10.449-39.264 32.901-49.563m20.964 235.839c1.36 1.419 4.487 8.836 5.67 11.279 6.843 14.132 15.004 24.875 25.691 36.255-18.637 12.865-28.722 18.324-52.16 19.628-15.267-3.786-27.922-37.774-31.652-51.51 19.541-.868 35.095-7.514 52.451-15.652m80.987-235.699c28.213-1.925 37.292 26.911 42.16 49.381-18.697.437-26.782 3.532-44.4 10.349l-10.55 4.321c-7.817-16.391-15.925-31.422-28.485-44.716 13.074-11.853 24.115-16.745 41.275-19.335M716.888 408.65c23.953 10.737 26.133 9.73 51.198 14.33-2.881 14.98-15.64 49.413-31.719 53.293-24.516-3.242-30.045-6.621-50.388-20.407 15.203-16.319 22.121-26.853 30.909-47.216m856.742-44.528c2.62 10.422 7.23 47.198 17.18 53.097 7.04 4.169 26.15 6.652 35.48 10.787l.27 1.041c-10.33 2.548-22.43 2.491-31.11 7.683-12.9 7.718-15.95 35.089-19.07 49.887l-.38.399c-1.32-.393-5.21-18.699-5.64-21.319-5.46-33.38-20.4-30.991-49.1-36.491 9.06-2.786 20.86-6.712 29.63-9.862 18.16-6.52 15-35.09 22.43-54.435zm-491.59 328.763c21.35 25.007 23.65 81.901 55.52 100.822-2.93 5.235-3.27 7.208-4.59 13.008l-.69.629c-7.8-1.634-40.67-18.306-50.96-22.764-.32-16.414-3.39-77.611.72-91.695m-164.719 50.684c7.096.6 22.965 4.716 32.584 5.943 2.358 13.147 3.235 28.088 4.129 41.464a2192 2192 0 0 1-43.878 7.349c-7.112 1.412-24.433 5.307-31.295 4.459l-.734-1.096c14.388-16.964 27.664-39.143 39.194-58.119"/><path fill="#fefefe" d="M678.535 139.467c23.854.321 37.296 6.266 52.532 24.818-21.434 2.932-32.487 8.947-49.583 21.634-19.339-14.598-29.06-20.337-54.223-20.724 15.167-18.176 28.603-23.589 51.274-25.728m-78.087 30.886 14.331-.586c-17.544 13.509-25.28 29.333-28.209 50.9-20 2.388-32.782 7.132-48.514 19.981-2.128 2.187-4.898 5.68-6.94 8.1a78.68 78.68 0 0 1 16.495-49.071c13.852-18.134 30.888-26.429 52.837-29.324m229.337 228.462.98 1.286c-.65 15.388-9.379 35.78-19.503 47.303-17.049 19.404-34.421 25.694-58.928 27.894-1.506-1.513 2.957-6.687 4.123-8.372 9.375-13.544 14.549-27.852 17.852-43.87q2.239-.225 4.475-.477c19.721-2.228 38.022-7.506 51.001-23.764m-149.046 61.997c1.754.873 9.57 5.985 11.644 7.259 15.592 9.582 23.981 11.495 41.54 14.397-12.439 13.687-33.021 21.231-51.163 23.253-20.749-.1-39.363-11.686-54.559-24.546 21.322-.226 35.999-7.396 52.538-20.363M521.558 268.765c1.14 1.781 2.942 21.466 4.762 27.104 4.273 13.242 6.087 16.434 13.943 27.396-6.299 10.729-11.297 21.542-14.168 33.716-1.2 5.091-1.022 17.722-3.116 20.699l-1.785-1.225c-30.114-34.124-29.351-73.25.364-107.69m227.783-97.771c21.162.406 43.041 8.051 58.757 22.443a77.9 77.9 0 0 1 25.577 54.687c-15.615-17.808-34.792-24.86-57.879-26.425l-.133-1.133c-2.334-19.165-10.859-37.529-26.322-49.572m92.182 97.762c13.212 6.832 21.65 32.999 22.426 46.949 1.33 23.903-5.577 43.382-21.212 61.104l-1.742 1.136c-1.466-2.111-1.536-9.666-1.912-12.751-1.889-15.492-6.997-27.547-15.896-40.286l.75-.863c14.158-16.416 19.172-34.075 17.586-55.289m-245.322 23.301c2.755 2.122 13.22 22.418 20.997 30.875-7.713 9.278-13.676 20.289-19.656 30.772-6.901-2.804-12.948-5.594-19.682-8.783-11.313-5.211-20.095-12.699-29.052-21.12 15.407-17.66 25.814-23.178 47.393-31.744m167.85.559c19.989 7.147 35.615 16.925 50.152 32.248-8.173 10.282-15.117 13.719-26.303 20.033-8.028 3.877-13.968 6.229-22.54 8.483-6.195-13.42-10.897-19.907-19.754-31.956 8.055-10.867 11.833-16.851 18.445-28.808M530.923 397.633c23.084 16.993 25.187 22.062 57.19 26.58 4.224 20.297 11.385 35.714 25.422 50.996-45.919-1.127-73.784-35.122-82.612-77.576M1800.48 677.976c.29-.032.58-.139.87-.096 4.15.613 22.63 37.46 26.02 43.554-21.54-3.73-39.55.274-59.79 6.665-9.73 5.267-13.24 7.943-20.5 15.64 3.83-13.865 12.83-37.047 18.87-50.432 14.67-9.089 17.78-10.163 34.53-15.331m-770.47 217.431c24.9 5.163 44.81 3.897 69.52 6.409 4.71.48 19.36 8.804 25.59 10.811 13.55 4.371 32.57 7.023 37.35 22.474l-1.01.381c-21.79-9.415-40.24-3.795-59.11-8.141-32.28-7.434-42.44-15.779-77.46-15.451 3.1-6.964 3.58-9.114 5.12-16.483M601.23 361.25c13.389 4.069 20.003 5.048 34.108 6.892a2249 2249 0 0 1 9.058 33.379c-6.353 3.586-10.436 5.315-17.135 8.091-14.12 5.044-18.803 6.548-33.58 7.879-.404-23.836-.178-33.719 7.549-56.241m-9.099-133.479c18.021.401 37.015 7.299 52.504 16.197l-10.671 30.634c-2.516 3.099-27.051 7.039-33.126 8.399-7.415-22.925-9.63-31.392-8.707-55.23m174.721.596 2.458 1.261c5.029 12.255-3.945 42.459-9.035 54.797-8.188-3.354-21.796-6.075-30.427-7.916l-11.954-33.261c16.733-9.716 30.012-12.834 48.958-14.881M680.383 386.94c1.174.278 26.495 16.475 30.882 18.748-7.942 18.148-15.456 29.852-28.603 44.408l-1.045-.204c-11.078-8.67-24.428-31.684-28.47-45.279 8.479-4.668 18.925-12.131 27.236-17.673m76.244-23.668 3.345-.429c9.734 5.844 9.311 42.88 8.888 53.269-11.198-1.53-17.7-1.871-28.752-4.838a508 508 0 0 1-20.999-8.488c4.343-13.057 6.784-23.47 9.496-36.869 9.761.417 18.489-.875 28.022-2.645m583.363 417.652c-1.49-71.187-8.51-142.336-7.53-213.686.08-5.723-.82-9.967 3.47-14.594 1.92-.861 1.25-.623 3.73-.067.23.217 2.73 2.499 2.73 2.499 4.7 33.682 3.66 67.211 2.9 101.115l-1.81 76.879c-.43 13.343-1.91 35.241-1.42 47.943zm101.44-437.911c2.11 1.043 2.77 5.937 3.73 8.596 4.35 11.957 9.88 20.931 19.06 29.936l-38.21 17.473c-13.71-.438-24.76-21.008-20.92-32.231 2.98-8.719 27.96-19.65 36.34-23.774m326.07 412.13c.21-.041.42-.143.64-.123 4.14.374 22.3 30.066 25.47 34.887-17.87 1.038-34.8 6.621-50.56 14.918-7.49 6.022-9.3 8.826-14.14 16.799 3.74-20.464 8.04-40.819 12.92-61.043 7.6-.721 17.99-3.57 25.67-5.438M681.002 196.556c9.323 4.521 24.075 33.975 28.429 43.24-8.629 4.732-18.477 11.277-27.361 16.384-1.796.082-24.62-13.296-28.89-15.231 6.418-15.577 16.468-31.929 27.822-44.393M1757.52 829.203c1.31.298 22.41 28.387 25.64 32.526-18.2.899-33.46 4.748-49.23 14.24-5.78 4.323-8.85 9.066-12.79 14.889-.27-14.867 3.54-38.128 6.18-53.064 9.31-4.068 20.25-6.321 30.2-8.591m-688.91-289.019c8.35 2.414 33.46 16.435 39.07 22.677-8.34 8.402-20.56 21.89-27.87 31.138-.63.338-2 .509-2.78.655-7.6-2.493-27.44-8.12-32.41-13.051-.53-5.286 17.36-9.518 24.16-22.989-.3-5.05-.78-13.609-.17-18.43M549.194 793.336a68 68 0 0 1 8.258-.238c17.649.56 36.534 4.401 54.175 6.091 8.938 1.416 18.333 1.768 27.099 4.028 10.758 2.774 13.878 26.832-.291 24.831-27.238-3.845-53.368-9.522-80.871-12.217-2.707-.277-3.942-.182-6.249-1.577-1.491-3.438-1.483-2.131-.605-5.14 8.853-5.444 82.948 13.146 90.667 9.853.446-2.737.523-1.653-1.192-4.511-9.666-6.847-71.403-12.303-88.138-14.857-2.407-1.913-1.96-2.761-2.853-6.263M1744.05 901.19c3.78 1.395 16.97 29.723 19.47 35.038-14.95 2.034-20.41 4.057-33.07 11.886-6.83 4.111-3.95 6.185-9.51 8.503-1.01-3.421-.5-37.805-2.11-47.363 9.19-3.363 15.77-5.741 25.22-8.064m-424.6-749.446c3 4.668 1.98 26.877 4.46 32.169 2.38.313 3.56-.782 6.04-1.965l1.17.604-4.07 9.245c10.64 3.426 25.95 5.624 37.39 7.779-8.01.524-27.12.909-33.26 4.576-1.33 4.181 2.49 2.255 2.89 7.475l-1.58 1.107c-2.27-1.15-4.24-2.103-6.57-3.111-4.59 3.048-5.39 37.514-8.36 45.74-2.12-12.191-3.66-35.311-4.42-48.148-2.41 1.867-3.83 3.179-6.75 4.211.19-3.889 2.51-3.897 1.53-7.898-6.16-3.781-27.08-3.348-36.97-5.333 7.36-1.072 31.32-3.836 36.57-7.199.19-3.277-.65-3.509-2.49-6.711l.29-.856 6.94 2.941c2.29-11.573 4.32-23.19 7.19-34.626M575.387 867.13c5.935 2.07 15.115 1.508 21.022 1.707 13.513.455 97.018 3.847 101.072 7.31l-2.409 7.666c-.367.259-107.398-4.257-117.383-5.364-1.962-2.78-1.968-7.716-2.302-11.319m414.81-660.447c4.119 17.591.329 34.134 23.243 37.889 4.25.697 10.9 3.046 14.96 4.554-7.85.619-23.63.587-28.546 6.236.306 2.482 1.046 3.185 2.616 5.095-4.104-.813-2.594-1.057-5.971.457-6.208 7.913-4.386 41.05-7.618 43.623l-.319-2.808c.079-7.34-2.158-40.469-7.022-44.265a120 120 0 0 0-5.988 3.824l-.556-1.186c1.587-1.906 2.399-2.978 3.729-5.069l-.753-1.283c-7.93-3.477-22.946-5.607-31.645-6.809 6.676-1.179 28.915-3.35 33.371-6.118.363-2.479-.757-2.948-2.636-5.533l1.805-.834 4.038 1.926c3.12-2.245 5.109-22.526 7.292-29.699m839.173 524.678c3.74.758 2.49.012 4.89 2.624 3.33 8.408-11.66 49.438-15.6 59.558-2-3.719-4-8.065-5.88-11.902-6.12-13.857-12.24-20.084-20.13-32.512 15.32-4.115 28.84-2.494 36.72-17.768m-489.7-280.388c13.64-.758 23.73 10.982 19.11 24.198-2.98 8.518-7.55 10.584-15.04 14.367-24.01.614-30.53-27.98-4.07-38.565M577.187 886.087c23.643 2.073 49.763 2.52 73.589 3.933 11.141.661 33.543-.11 43.188 1.636 2.313 2.494 3.069 6.371 1.736 9.446-21.412-.647-44.539-2.197-65.95-3.423-10.58-.606-44.063-1.139-51.939-3.808-1.285-2.162-.753-5.094-.624-7.784m-5.424-42.051c6.432 1.678 17.13 2.698 26.973 3.829 28.401 3.265 59.429 7.057 88.202 8.792l3.174-2.506.545.466c.148 3.724-1.684 5.181-3.975 8.908-6.633 2.719-104.817-7.352-117.137-10.005-.698-3.087 1.01-6.054 2.218-9.484m321.202 47.061c11.665 3.19 26.504 7.729 37.576 12.066-14.241 4.623-29.203 7.882-43.97 12.62-11.745 4.103-15.607 5.496-25.75 12.559 6.67-19.933 13.219-27.735 32.144-37.245m-672.744-288.38c2.8 3.1 14.11 28.583 17.304 34.867-1.498 9.225-4.939 21.449-7.282 30.739-.673.357-1.006.157-2.013.109-4.38-4.369-8.986-9.057-11.246-14.879-5.994-15.445-2.904-35.937 3.237-50.836M1148.16 791.92c4.04-1.99 9.64-4.17 13.89-5.973 3.21 6.858 25.47 49.079 13.08 53.217.36-4.918 1.67-14.042-3.11-16.694l-2.25 1.371c.44 10.201.73 15.159-1.53 25.356-.21-5.545-.96-17.483-.58-22.509-2.41-3.063-2.3-4.102-5.37-4.695-2.23 3.561.11 15.801-.06 22.062l-2.27-7.338c-.6-10.071-1.95-14.137-7.88-21.687 1.76-1.948 1.85-2.26 2.34-4.85l-.93-1.164c-7.39-1.751-10.14 4.305-13.02 9.653 1.48-12.831 1.96-15.243 7.69-26.749m68.07-447.344c2.87 1.966 8.57 6.97 11.48 9.369 3.5-3.533 7.47-6.343 11.44-9.329-4.61 18.895 1.72 13.175 9.05 22.102-2.33 2.502-7.8 4.244-11.2 5.575.84 6.973 1.27 9.239 3.18 15.976-2.9-1.466-10.42-7.267-13.38-9.498-4.04 3.526-8.51 6.965-12.72 10.322 4.58-16.9 4.35-16.909-11.8-22.858 17.1-4.247 16.43-4.746 13.95-21.659m-990.583-31.449c1.932 2.486 1.796 1.555 1.831 4.182-3.101 3.134-38.295 23.639-45.888 28.546-8.428 5.449-36.095 26.273-41.836 28.439l-1.299-.563c-.385-1.294-.802-1.632-.012-2.754 16.285-23.125 62.318-49.469 87.204-57.85M1665.18 913.746c8.84 1.885 31.7 12.121 41.2 16.066.91 9.558 2.48 28.584 2.16 37.688l-.32.489-1.28.21c-13.74-17.034-28.71-36.842-41.76-54.453m-814.187-124.34c5.965 2.766 11.927 5.391 17.604 8.708.613 12.027.161 17.139-1.275 29.188-2.085-4.559-.828-11.83-5.952-15.067-7.819.362-18.27 16.353-16.351 24.661-.975-2.862-1.851-7.045-4.11-8.528-2.833.985-3.098 2.751-3.705 5.646l-1.465-.198c-7.411-11.839 8.667-34.697 15.254-44.41m479.967-293.73c6.03 1.847 9.4 1.422 15.63 1.304 10.89 9.316 13.5 17.581 1.23 27.735-21.85 4.409-37.69-13.486-16.86-29.039M572.956 828.797c26.619 5.493 54.367 5.999 81.08 10.929 8.406 1.551 31.884 1.536 36.047 9.306l-.86 1.299c-27.421-4.204-56.474-5.161-84.114-9.515-9.596-1.512-21.19-1.963-30.52-4.291-2.049-3.082-1.395-3.447-1.633-7.728m186.863-52.379c3.513-.759 6.282-.998 9.195 1.298l.06 1.7c-3.237 2.408-103.11 17.75-117.611 20.868-5.136-.815-9.923-2.613-14.847-4.277 40.458-5.713 82.847-14.966 123.203-19.589M378.657 945.596c2.343 1.799 7.543 14.641 9.033 18.025-8.324 13.239-19.16 24.435-26.816 37.819-.468.83-1.179 1.46-1.85 2.17-2.795-2.89-4.435-15.72-3.473-19.639 7.749-5.651 17.241-28.134 23.106-38.375m625.823-374.377c12.91 4.072 17.36 4.874 30.68.753 1.03 6.907 4.13 15.679-.99 20.572-13.94 6.39-19.97 5.98-32.97-2.015 1.63-6.145 2.39-12.982 3.28-19.31"/><path fill="#fefefe" d="M220.659 300.096c.581.502 1.345 2.092 1.772 2.861-1.488 3.452-25.768 12.565-33.377 17.158-31.082 18.764-41.825 26.315-63.341 53.388-1.498-1.717-1.581-1.975-2.557-4.062.476-23.5 77.487-61.481 97.503-69.345m1338.101-47.45c39.26 1.781 58.19 81.733 41.87 85.578-.16-12.952 1.04-16.013-1.97-29.869-3.33-14.291-9.75-29.298-20.18-39.798-22.83-22.964-24.52-1.387-25.18 18.137l-1-1.129c-1.86-12.064-5.34-25.499 6.46-32.919m-530.91 212.281c22.36-.447 32.52 21.387 30.02 41.112l-.97-.171c-9.26-18.274-16.88-9.276-29.09-27.141.35-5.26.29-8.514.04-13.8m209.63-17.71.75.124c2.43 8.482 3.9 12.762 8.25 20.391-6.83 3.432-17.16 8.777-24.37 10.38-1.88-1.1-6.98-6.778-7.95-8.592-5.74-10.768 15.82-18.631 23.32-22.303m576.39 362.905.54.619c.72 5.538-11.75 33.61-14.53 40.426-1.73-3.575-3.97-7.293-5.97-10.762-4.04-6.825-8.73-12.353-13.68-18.516 8.02-1.469 25.33-8.561 33.64-11.767M357.682 901.611c3.249 2.15 8.89 16.055 10.826 20.38-5.091 8.762-10.654 16.197-15.844 25.603l-1.001 1.116-1.35-.378c-2.378-4.653-4.862-14.182-6.444-19.571a1601 1601 0 0 1 13.813-27.15m-128.223-575.81c2.476 2.126 4.059 6.309 1.752 8.422-14.943 13.684-50.239 30.951-67.957 36.099l-.853.289-.68-.749c14.997-13.292 49.977-30.999 67.738-44.061M1750.79 966.202l.69 1.067c-4.42 8.531-11.59 31.035-16.73 36.291l-1.55-.03-2.26-3.06c-7.24-11.082-7.6-12.437-9.42-25.567 8.86-2.411 21.22-5.067 29.27-8.701M950.357 697.589c1.672 3.436.361 34.343.262 40.553-7.79-.852-15.832-2.211-23.599-3.418l-2.009-.665c.252-3.963 21.697-31.561 25.346-36.47M772.319 826.287c2.771.922 3.146 1.068 5.386 2.929-1.098 1.591-69.902 34.234-79.011 38.866-2.292.714-1.703.91-3.594.286.092-.453.183-.908.309-1.354 3.007-10.708 64.795-34.354 76.91-40.727M249.211 668.671c4.267 4.17 14.08 26.349 17.147 32.935l-4.241 17.44c-5.811-9.453-11.106-18.186-17.644-27.198 1.386-8.467 2.681-14.849 4.738-23.177m372.453-341.849c1.452 1.664 1.643 5.121 2.184 7.522 2.538 11.271 5.749 18.011 12.398 27.227l-15.487-1.818c-6.705-1.251-10.419-2.457-16.825-4.558 6.032-10.781 10.841-18.262 17.73-28.373m2.317-42.538c3.462-.271 2.873-.779 5.218.719 1.607 4.872-5.188 26.659-7.293 30.985-2.206.091-3.222-1.642-5.358-3.558-5.341-8.227-8.651-13.857-12.918-22.617 7.538-2.488 12.498-4.257 20.351-5.529m-289.92 565.279c2.97 4.005 9.469 19.736 11.814 25.18-3.508 8.286-5.878 14.296-8.605 22.846-1.738-.963-9.892-27.45-11.184-31.386 2.686-6.463 4.327-10.593 7.975-16.64M245.096 293.39c7.244-.133 14.953-1.447 18.875 5.636-.977 7.501-15.2 26.508-22.274 26.535l-1.777-3.361-3.683-11.602c5.032-.94 15.699-.716 18.153-3.958-.822-8.186-15.132-6.652-22.055-6.89l-.265-2.138c3.896-2.418 8.535-3.184 13.026-4.222m405.781-47.049c6.587 4.386 18.843 10.762 26.309 15.154-5.286 2.015-13.287 4.28-18.854 6.024a422 422 0 0 1-18.703 9.863 1124 1124 0 0 1 11.248-31.041m91.028 80.432c6.836 8.053 13.042 18.909 17.267 28.571l-11.621 3.266c-6.698.786-10.328.603-16.991.34 7.05-10.239 8.876-20.29 11.345-32.177m-31.509-79.976 1.562.775c3.009 5.687 8.119 19.543 9.541 25.83-4.493 1.214-11.722-2.991-16.143-5.127-5.982-3.238-12.428-4.731-18.979-6.58a264 264 0 0 1 24.019-14.898m8.959 123.127 1.018.349c.706 5.775-4.956 22.266-6.973 28.762-4.786-2.469-9.283-5.112-13.932-7.814-4.048-2.39-6.989-5.203-10.483-8.303 12.06-2.445 20.231-6.536 30.37-12.994m293.745 95.301c3.07-.352 5.35-.766 8.45-.292l.91 1.442c-2.94 16.051-14.04 18.283-27.285 23.804l-6.315 6.116c6.124-16.193 7.942-23.654 24.24-31.07M278.9 729.504c4.727 5.077 14.19 28.278 17.444 36.018l-4.971 12.64c-1.566-1.611-14.533-30.689-16.383-34.609zM730.953 283.26c7.909 1.13 19.206 4.128 26.684 6.938-2.576 5.949-5.232 9.868-8.689 15.302-1.392 2.248-3.993 6.89-5.855 8.427-3.498-5.969-10.499-23.983-12.14-30.667m-87.121 87.504c12.168 6.571 16.09 8.64 29.545 11.45l-8.038 7.401c-4.604 2.968-10.469 6.079-15.314 8.814-2.267-9.848-4.405-17.508-6.193-27.665m118.274 444.665 1.91.483.517 1.285c-4.01 3.466-86.956 15.35-97.288 16.39l-2.202.029.127-1.119c6.503-3.331 84.615-15.995 96.936-17.068m294.984-299.897c2.05 2.84 2.17 16.135 2.21 20.664.16 17.997 4.67 22.859-13.39 31.265l-1.65-.675c-.91-1.881 2.72-8.126 3.96-10.767 6.03-12.768 5.52-26.943 8.87-40.487m729.86 365.425.49.447c.81 3.027-8.69 24.198-12.19 25.719l-2.08-2.454-7.79-11.981c8.95-4.44 13.27-5.843 21.57-11.731M985.52 524.879c2.81 3.608 1.268 18.288 2.634 22.379 2.117 6.338 6.507 13.835 10.133 19.368-24.087-.977-13.243-24.879-12.767-41.747M311.347 800.66c1.545 1.206 5.622 9.88 6.799 12.196a1073 1073 0 0 0-4.605 15.641c-3.567-4.387-5.425-10.921-7.367-16.354 1.571-3.848 3.42-7.703 5.173-11.483m1345.943-71.556c8.34-.468 20.74 5.245 23.22 14.077-5.08-.013-20.3-9.854-23.22-14.077M1324.2 608.669c1.34 5.152 2.79 18.676-.62 22.862l-3.94.274c-2.17-4.929 2.77-17.277 4.56-23.136m343.42-60.937a5.11 5.11 0 0 1 6.76 1.747 5.11 5.11 0 0 1-1.28 6.87 5.12 5.12 0 0 1-5.3.47 5.12 5.12 0 0 1-2.85-4.487 5.12 5.12 0 0 1 2.67-4.6m-29.52 111.813a5.08 5.08 0 0 1 7.33 4.952 5.079 5.079 0 0 1-9.64 1.79 5.08 5.08 0 0 1 2.31-6.742M892.101 155.643a4.99 4.99 0 1 1 3.81 9.224 4.99 4.99 0 0 1-3.81-9.224M1685.54 379.7a4.995 4.995 0 0 1 7.02.354 5.005 5.005 0 0 1-.29 7.022 4.99 4.99 0 0 1-7.09-.288 4.996 4.996 0 0 1 .36-7.088m-481.92 87.871c3.1 2.346 9.24 12.455 8.74 16.265-7.55-2.609-12.09-8.238-8.74-16.265M1113.7 343.58a4.9 4.9 0 0 1 5.03.952 4.907 4.907 0 0 1-2.27 8.442 4.91 4.91 0 0 1-5.73-3.42 4.9 4.9 0 0 1 2.97-5.974m549.11-97.001a4.83 4.83 0 0 1 5.07.29 4.85 4.85 0 0 1 2.02 4.667 4.839 4.839 0 1 1-7.09-4.957M339.119 215.511a4.742 4.742 0 0 1 7.529 3.549 4.743 4.743 0 0 1-8.663 2.945 4.743 4.743 0 0 1 1.134-6.494m591.866 206.968a4.717 4.717 0 1 1 5.54 7.637 4.717 4.717 0 0 1-5.54-7.637m3.087-88.92a4.703 4.703 0 1 1 4.409 8.305 4.704 4.704 0 0 1-4.409-8.305m199.078 101.01a4.68 4.68 0 0 1 4.75.111 4.7 4.7 0 0 1 2.22 4.21 4.7 4.7 0 0 1-2.6 3.984 4.69 4.69 0 0 1-6.24-2.018 4.69 4.69 0 0 1 1.87-6.287m285.74-282.841c2.1-1.498 5.03-.996 6.52 1.12a4.67 4.67 0 0 1-7.64 5.369 4.66 4.66 0 0 1 1.12-6.489m13.55 311.938a4.67 4.67 0 0 1 6.33 1.485 4.66 4.66 0 0 1-1.3 6.367 4.65 4.65 0 0 1-4.73.315 4.66 4.66 0 0 1-2.56-3.995c-.06-1.7.8-3.298 2.26-4.172m-65.24-155.915a4.664 4.664 0 0 1 7.01 4.334 4.665 4.665 0 0 1-8.8 1.831 4.663 4.663 0 0 1 1.79-6.165m-201.86-106.783a4.61 4.61 0 0 1 5.33 2.944 4.61 4.61 0 0 1-2.22 5.67 4.61 4.61 0 0 1-4.94-.445 4.63 4.63 0 0 1-1.69-4.668 4.64 4.64 0 0 1 3.52-3.501M398.505 317.746a4.544 4.544 0 0 1 5.805 5.44 4.542 4.542 0 1 1-5.805-5.44m150.382-186.218a4.53 4.53 0 0 1 7.176 3.732 4.533 4.533 0 1 1-7.176-3.732M1451.4 236.512a4.41 4.41 0 0 1 7.44 2.067 4.43 4.43 0 0 1-1.34 4.278 4.396 4.396 0 0 1-6.12-.217 4.4 4.4 0 0 1 .02-6.128m68.72 266.085a4.35 4.35 0 0 1 5.67 2.07 4.35 4.35 0 0 1-1.86 5.736 4.34 4.34 0 0 1-4.43-.205 4.35 4.35 0 0 1-1.95-3.987 4.35 4.35 0 0 1 2.57-3.614M763.429 532.61a4.199 4.199 0 1 1 3.113 7.799 4.199 4.199 0 0 1-3.113-7.799"/><path fill="#717072" d="m1159.96 836.717 2.27 7.338c-.15 3.628-.96 6.168-1.89 9.658-.72-1.836-.39-13.866-.38-16.996"/><path fill="#a5a4a6" d="m835.739 833.816 1.465.198c-.183 5.764.801 7.558-.075 14.343-2.19-4.374-2.287-9.809-1.39-14.541"/><path fill="#717072" d="m1339.99 780.924 2.07.089c0 3.49.33 7.7-1.03 10.82-1.43-2.82-1.04-7.547-1.04-10.909"/></svg>