<svg xmlns="http://www.w3.org/2000/svg" preserveAspectRatio="xMidYMid meet" viewBox="0 0 2048 1462"><path d="M218.068 195.537c1 .296 2.149.609 3.08 1.132 41.779 23.487 83.096 77.343 99.182 121.272 18.951 52.746-13.081 101.576-43.409 142.04-6.911 9.221-20.628 24.187-25.132 34.017 1.461 17.325 1.515 36.941 1.88 54.413l1.205 78.944c.101 17.841 1.845 49.727.588 66.239l14.713 5.919c10.743-12.114 16.033-19.243 22.709-33.811-2.212-35.217-12.192-69.068-14.628-103.916-3.624-51.865 60.575-68.144 90.935-97.327 9.707-9.33 16.615-30.929 26.88-28.615 8.393 5.457 17.978 34.787 22.308 45.503 25.56-20.367 34.645-27.209 66.958-34.944-6.362-25.195-13.275-49.534-10.285-75.708 4.22-36.952 22.745-71.061 51.65-94.353 24.127-19.441 51.031-28.665 81.914-25.089 32.167 3.102 67.541 15.034 87.614 41.076 36.552 47.421 21.455 106.826-4.16 155.069-1.727 3.254 8.505 10 6.891 16.008-3.884 14.457-14.653 7.697-24.584 11.848-21.802 29.062-38.061 45.293-78.123 37.449-1.355 5.676-3.166 11.571-4.793 17.201a494 494 0 0 1 22.041 13.863c10.659 7.162 42.374 31.731 48.06 42.39 13.493 25.294 21.229 65.173 27.572 93.357 5.9 26.216 12.446 51.235 17.553 77.266 28.495-21.849 53.611-69.539 96.8-67.404 29.497 1.459 51.655 28.315 70.142 48.669 68.937-29.87 100.296 6.607 136.071 58.272-6.69 8.433-23.313 21.123-32.14 28.194l-52.439 42.437c-9.099 7.248-25.059 18.9-32.828 26.585 1.535 1.841 3.323 2.395 5.155 3.935 3.444 2.897 5.556 8.557 7.25 12.678-5.646 14.253-10.077 19.099-22.229 27.878 51.612-6.836 79.597 12.122 83.321 65.556 1.902 27.28-1.199 43.39-14.431 67.43 2.374 6.9 3.547 11.55 5.199 18.56 45.902 2.19 93.352-1.32 139.972.38.84-6.46 2.42-10.99 4.34-17.14-9.61-13.99-14.38-26.15-16.36-43.42-2.88-25.08.7-54.236 16.36-74.774 10.79-14.156 24.72-15.059 41.34-16.95-12.2-19.514-2.1-31.867 14.63-43.456 5.14 1.205 10.48 2.975 15.55 4.551-8.82-7.881-25.92-19.787-35.81-27.19a3543 3543 0 0 0-65.42-48.54c-6.33-4.582-29.93-20.496-33.43-24.948-.14-1.592-.17-3.776.69-5.204 31.79-52.923 65.2-71.153 124.46-45.754 20.64-27.447 51.19-60.376 89.47-54.281 9.22 1.539 18 5.051 25.74 10.297 8.46 5.64 55.15 51.62 61.35 60.139 13.95-40.466 22.7-98.257 33.3-140.686 11.15-44.673 48.9-71.934 86.4-94.561-2.16-7.431-3.46-10.792-7.05-17.576-44.64 9.929-54.78-7.648-83.37-37.314-4.84-.844-8.28-1.829-12.99-3.169-10.56-11.078-7.5-12.29 0-24.826-3.89-11.545-11.68-23.385-15.22-35.259-18.3-61.339-6.3-120.21 56.74-147.843 75.01-32.886 140.51.666 171.84 72.08a191.88 191.88 0 0 1 2.55 148.036c8.79 8.768 19.45 15.435 29.37 24.02 6.1 5.286 23.98 28.976 26.68 29.395 2.94-6.194 3.03-17.784 5.05-26.633 4.37-19.209 9.19-54.131 21.77-69.578 1.22-1.5 5.73-2.574 6.54-1.996 7.73 5.555 19.07 19.973 26.63 27.229 26.35 25.307 59.87 33.171 82.09 62.11 4.31 5.616 12.06 21.742 11.5 27.531-3.24 33.511-14.24 73.949-19.34 107.059 10 14.942 13.98 25.025 19.98 41.638 6.24-3.063 12.51-5.755 18.87-8.532 2.04-21.376-.07-48.594.15-71.119-.27-44.066 4.23-88.382 2.71-132.362-.01-.326-18.43-24.121-19.81-26.171-22.24-32.934-46.62-68.546-53.01-108.608-4.84-30.37 16.92-65.178 33.1-89.635 18.87-25.139 43.13-55.636 72.78-67.915 8.71-1.778 19.03 25.024 22.5 30.806 22.41 37.328 72.68 98.386 47.65 145.087-19.8 36.939-60.71 86.155-88.7 118.787-1.46 24.292-6.84 182.072-2.07 196.901 4 1.836 8.59 1.568 13.11 1.745 2.86-9.824 6.65-19.098 10.37-28.624-3.34-11.987-7.16-44.325-8.36-57.07q-.42-5.44-.63-10.89c-2.45-68.204 33.27-91.398 81.96-129.252 6.16-4.792 30.06-27.305 35.66-27.502 5.73 3.642 4.87 12.627 6.1 19.45a215 215 0 0 0 5.55 23.206c4.86 16.874 12.94 40.994 13.62 58.473 1.78 45.126-34.56 81.953-71.24 102.777-15.39 8.738-36.98 14.661-49.87 27.847-4.13 4.226-8.18 16.674-10.5 22.772 8.48 6.961 18.9 7.891 31.37 21.001 11.57 12.16 11.1 21.286 20.76 29.433l2.22 140.731c.35 16.734.87 33.329.92 50.086.12 39.515 3.04 70.431-13.52 107.611 12.96 1.5 47.5-2.74 59.54 2.47 1.29.38 3.15 6.2 2.69 6.87-11.22 16.2-23.94 60.88-46.33 62.24-28.23 1.71-58.34 1.61-86.02.36 23.89 18.47-25.11 21.26-31.49 31.71 7.76 11.19 46.04-10.15 58.84-3.22 2.43 1.31 2.91 2.22 3.74 4.76-3.68 12.04-39.81 8.71-44.94 16.01l.94 2.72c10.41 9.53 59.34-13.84 65.26 1.02-2.09 16.33-38 7.36-47.39 17.16 4.92 3.44 58.93-2.37 68.54-.45 9.8 1.96 6.83 16.77-2.59 14.55-3.39-.81-7.04-.86-10.6-.46-11.87 1.34-25.8.56-37.37 3.3l-1.12.28 4.79 5.37c7.53-.52 19.56-1.99 26.53-1.95 11.17.05 23.18-5.75 32.74-1.46 14.01 15.38-20 13.25-24.24 16.79l-.08 1.38c4.12 1.28 37.63-1.73 43.87-2.36.58.34 1.15.69 1.72 1.06 3.46 2.21 4.74 3.51 5.58 7.2-1.45 3.98-4.22 2.82-6 6.37 6.55.6 25.98 1.06 20.31 12.38-6.55 5.37-13.25 3.41-21.02 2.68-20.34-1.9-37.47 6.98-55.95 10.8-17.43 3.61-44.89 3.06-62.83 3.26l-118.46.38-277.01 1.09c-20.83.03-42.66 1.48-62.72 1.37l-236.96-3.2-592.442 2.11c-111.754.52-225.43 4-336.99-3.33-18.006-1.18-35.381-13.86-55.23-9.36-4.948 1.12-26.123.11-27.516-6.91 7.473-15.72 54.653-6.1 67.548-2.98a435 435 0 0 0 5.679-6.87c-3.245-9.91-52.88 3.09-56.278-9.85.316-.56 1.662-2.99 2.406-3.34 10.646-4.14 31.378-5.52 42.852-4.43 16.388 1.54 16.78 11.49 32.271-2.62-14.561-2.55-45.863-1.61-52.852-4.09-2.577-2.33-3.173-2.52-3.896-5.72 5.812-10.26 46.119-5.53 56.418-3.06 2.617.63 7.441 2.51 10 3.48 3.166-2.35 6.789-5.51 9.882-8.09-8.912-1.52-47.19-2.82-50.837-6.12-2.111-1.92-2.875-3.7-2.948-6.44 7.963-10.42 49.862-.94 62.565 1.94 3.96-2.82 4.343-1.54 6.385-5.32-8.882-10.32-45.385 1.32-47.338-14.12 11.78-10.25 46.462-.77 60.469 1.11 0 0 3.141-1.98 3.407-2.15l.127-1.67c-11.337-9.11-45.701-1.98-51.567-12.83 3.982-9 26.738-5.62 34.547-5.81 9.168-.22 27.166 8.18 33.813 1.82-5.435-9.29-46.124-1.73-44.597-13.89 1.88-2.21 5.312-5.17 8.235-5.72 10.981-2.05 55 4.07 58.348 14.97-3.301 10.56-59.429 61.53-70.025 73.4-6.043 6.78-22.956 24.05-30.054 29.53 11.311.48 22.622 2.05 33.749 2.6 19.441.96 39.474 1.74 58.943 1.99 13.6.15 27.201.09 40.799-.17 10.364-.21 24.147-1.08 34.084.47 14.947-20.92 26.559-36.17 43.411-55.63-29.85-4.74-52.896 1.31-82.824-21.01-22.381-16.69-24.814-33.47-28.463-58.6-37.991 1.27-76.218-.07-114.244.12-3.804.01-6.879.02-10.676.47-6.898-10.88-35.566-54.99-37.19-65.49-2.462-15.91 49.001-1.65 58.201-9.28-3.553-14.68-9.182-37.38-9.68-52.424-1.812-58.133 1.343-116.184 1.241-174.307-.039-21.689 3.226-50.558-.938-71.276 17.342-19.681 18.15-38.194 52.207-47.999-2.841-9.81-7.624-18.533-12.4-27.479a787 787 0 0 1-11.817-5.969c-44.541-23.135-85.045-41.308-102.857-93.729-10.49-32.48 3.516-64.854 10.722-96.341 1.673-7.311 1.388-31.896 9.097-33.675 9.137 2.109 16.472 14.667 23.933 20.396 23.612 18.133 55.718 37.229 72.234 62.155 28.347 42.78 19.584 95.48 11.064 142.127 2.96 8.554 9.165 20.479 12.943 30.217l13.319-.574c.348-5.205.129-10.776-.034-15.997-1.188-38.214-1.043-76.469-1.938-114.678-.537-22.923-2.3-46.104-1.703-69.045-26.224-33.308-55.154-65.317-78.395-100.914-11.759-18.01-18.347-36.406-15.175-58.129a108.6 108.6 0 0 1 9.466-31.416c9.835-21.104 24.481-41.794 36.61-61.933 5.675-9.424 20.844-40.854 26.427-45.033"/><path fill="#fefefe" d="M497.948 514.463c17.913.484 61.682 16.34 78.227 24.161 21.41 10.12 59.833 34.927 72.964 54.413 10.44 15.491 17.818 57.709 22.857 76.922 13.23 50.453 22.131 102.241 34.013 152.769 6.101 25.946 13.757 64.653 22.227 88.916 13.881 1.212 28.341 1.708 42.298 1.83 5.285.047 11.498-1.002 16.651-.27 1.306.185 1.708 1.042 2.359 2.1 3.227 5.243 6.867 57.229 4.992 64.83-.707 2.866-2.603 4.278-5.087 5.688-21.734 12.337-103.689 24.558-127.129 17.838-19.819-5.684-29.665-24.11-37.406-41.867-10.858-24.906-17.161-62.878-22.688-90.268a4252 4252 0 0 1-23.545-121.766c-1.968-10.886-5.243-39.965-9.906-48.215-2.411-1.868-2.261-1.792-5.291-2.205-10.023 4.93.276 47.202 2.085 57.337a3390 3390 0 0 0 12.533 69.096c7.752 36.903 14.61 73.7 24.09 110.227 7.742 29.832 16.938 53.678 39.872 75.501-16.047 10.19-33.779 22.33-46.588 36.44-12.08 13.83-22.657 29.94-38.069 40.47-25.045 17.11-59.869 15.01-89.047 14.71-35.072-.47-70.125-1.87-105.123-4.18-23.091-1.53-44.672-4.04-68.068-4.21-.706-11.28 1.443-26.2 2.774-37.72 2.293-20.47 4.992-40.89 8.094-61.249a2891 2891 0 0 1 62.537-306.027c8.951-35.277 21.463-73.29 29.668-107.401a662 662 0 0 0 12.991-3.522c33.717-9.702 69.507-33.203 86.715-64.348M1771.93 791.348c24.76.968 49.29 1.596 74.08.823 11.82-.369 22.6-.507 34.37.592 1.18 7.043.73 18.501.79 26.124l.52 44.149c.57 44.405 2.64 89.134-.06 133.459-.93 15.175-8.17 31.375-12.28 45.755-34.88-.71-70.12 1.17-105.04.05-2.54-20.45-7.65-49.916-7.98-69.874-1-60.143 1.92-120.607.62-180.785 5.84.266 9.12.153 14.98-.293m-1591.556-1.003c16.249 1.648 35.262.783 51.741.709l75.835-.102c-.384 32.176 2.543 74.037-1.2 105.195-5.457 45.428-16.12 90.488-20.503 136.633-.432 3.61-.232 6.26-2.661 8.73-2.604 1.24-4.999 2.01-7.888 2.24-6.633.52-13.66-1.01-20.378-.92-19.434.24-39.588 2.02-58.948.59-2.748-.2-5.536-.4-7.304-2.71-15.648-20.37-10.347-161.865-9.867-193.989.272-18.151-1.628-38.579 1.173-56.376m775.302 312.735c10.718.56 23.671 1.25 34.318.99 16.406-.41 28.316-1.75 44.826.22-5.9 33.39-10.59 65.84-18.34 99.04-3.59 15.38-5.68 30.85-10.14 46.39-19.097-3.06-48.42.17-69.417-.26-8.495-.17-45.758-.5-51.688.56-2.807-1.83-50.026-.04-56.122.14-11.241.34-22.823-.35-34.324-1.44 4.473-6.11 12.622-21.64 16.784-28.88l33.401-57.69c35.362-1.96 90.716-14.27 107.384-50.42 1.175-2.55 2.319-5.97 3.318-8.65M221.702 212.782a97 97 0 0 1 4.738 2.592c28.53 16.747 75.633 81.86 83.537 115.325 13.767 58.292-33.408 100.698-58.909 142.567l-1.263-114.937c-.038-11.557 1.815-60.374-2.224-67.219-4.091-.255-4.753-.552-8.332 1.076-1.633 2.277-2.307 2.737-2.343 5.801-.685 57.375-.076 115.195 1.622 172.54-23.518-29.705-63.856-72.87-78.095-108.073-13.076-32.327 19.367-77.449 36.35-105.014a518 518 0 0 0 24.919-44.658"/><path d="M182.27 328.639c2.199.482 4.046.522 5.496 2.388 11.203 14.418 44.758 74.092 44.703 89.656-1.144 3.72-2.48 4.451-5.486 6.887-7.009-1.904-6.899-5.062-9.475-11.764-7.684-19.989-17.324-38.38-28.811-56.436-4.62-7.263-10.029-15.393-12.044-23.784.618-3.158 3.069-4.669 5.617-6.947"/><path fill="#fefefe" d="M1242.51 705.331c40.1 1.882 65.01 49.725 93.87 73.119l.75.603c-1.31 3.762-2.54 7.611-3.25 11.53-4.61 25.584-11.65 50.556-17.28 75.933-2.45 11.045-5 23.497-8.98 33.977-4 .996-8.91 1.864-13 2.693-8.85-4.643-33.01-24.792-41.58-31.902a3312 3312 0 0 0-53.44-43.604c-15.27-11.612-80.17-68.471-92.22-70.948-14.02-2.884-32.09 14.394-43.17 21.361 6.96-6.777 12.38-13.914 20.57-19.503 38.84-26.512 70.5 6.732 80.71 4.738 6.55-1.281 13.85-14.732 17.85-20.2 14.54-19.927 34.57-33.925 59.17-37.797"/><path d="M1234.64 727.254c9.74-.794 23.76.846 31.71 5.689 12.21 7.449 59.03 46.941 61.72 56.993-1.14 2.564-1.64 2.712-3.9 4.293-21.76 3.916-57.19-79.532-110.59-45.69l-1.19.763c-6.6 4.479-11.86 10.785-16.86 16.9 9.29 7.207 49.48 39.109 47.14 49.709-2.31 2.088-2.42 2.095-5.6 2.504-7.78-2.461-51.4-42.42-58.38-50.617 9.88-22.537 32.51-36.351 55.95-40.544"/><path fill="#fefefe" d="M1834.35 213.893c.48.226 1.36.586 1.58 1.062 19.16 40.591 60.04 81.23 63.59 126.999 2.28 29.401-30.45 64.76-46.91 86.715-9.17 12.235-22.32 29.175-32.52 40.517-1.28-18.546-.68-39.888-.67-58.526l-.4-63.863c0-15.875.3-32.292-.91-48.146-.34-4.497-1.23-5.426-4.66-7.837-4.32-.502-2.58-.757-6.59.982-2.65 9.59-1.85 17.203-1.73 27.018.64 50.457.89 100.931.19 151.39a940 940 0 0 1-16.19-21.689c-19.5-26.975-50.37-75.718-44.99-112.9 1.43-9.836 9.74-25.868 14.8-34.999 19.09-34.49 43.3-63.836 75.41-86.723"/><path d="M1867.95 329.139c3.04-.182 4.16-.083 6.86 1.105 2 .88 3.58 4.166 3.41 5.145-2.34 13.078-42.47 89.703-47.62 95.665-6.17-1.721-11.04-6.621-7.76-12.844 15.13-28.635 29.14-61.211 45.11-89.071"/><path fill="#fefefe" d="M1058.71 1103.45c5-1.52 28.69 1.25 37.33.8 15.35 37.99 65.08 46.04 101.39 49.22 2.3 15.83 16.6 84.43 14.91 94.73-7.56 1-30.66.63-39.81.88-5.27-1.07-24.53-.86-30.72-.92-25.6-.22-51.21-.14-76.82.24-10.73.09-34.52.86-43.88-.67 6.28-20.36 8.88-43.43 13.92-64.36 6.16-25.61 9.22-52.3 14.22-78.17 2.14-1.5 6.43-1.43 9.46-1.75M797.171 703.149c38.064-4.495 63.105 48.885 73.404 50.851 4.815.918 32.348-17.197 61.564-11.133 17.574 3.647 33.457 15.737 43.127 30.707-24.71-16.955-39.118-37.389-69.104-13.884-13.014 10.201-25.27 21.008-37.931 31.595l-83.857 71.032c-6.79 5.834-39.15 35.531-45.232 35.171-3.536-4.422-21.555-87.049-23.817-97.173l7.307-6.232c27.963-21.824 59.002-71.32 100.389-49.666 6.877 3.598 13.141 10.164 18.698 15.611-13.391 13.599-28.018 25.41-41.415 38.908-4.212 4.243-5.8 8.566-.116 12.292 1.574.121 3.065.106 4.57-.445 6.019-2.205 51.268-43.131 53.984-49.014.006-4.295-.946-6.148-4.171-9.258-15.51-15.07-26.936-25.634-49.297-27.114-38.02-2.518-66.751 35.874-93.412 60.41-.97-4.577-1.409-9.101-1.946-13.745 30.657-23.662 46.153-58.454 87.255-68.913m-93.667-346.171c4.276 12.332-6.992 50.84-14.511 63.491-4.114 6.921-11.446 17.936-13.004 25.194 2.2 7.23 2.652 8.548 6.537 15.099-4.657.942-10.657 1.371-15.5 1.85-11.339 12.83-16.363 25.748-34.906 34.287-12.562 6.215-26.468 3.62-39.248-.555-6.603-2.157-13.44-9.638-20.761-6.088-2.754 3.301-2.126 1.802-2.849 5.706 1.899 5.782 9.102 8.5 14.7 11.528-2.396 7.066-2.907 9.913-3.384 17.344-28.46-11.443-41.525-15.549-70.207-22.595l-2.708-1.532c-.924-7.135 28.777-30.379 33.992-38.155 5.322-7.934 10.728-16.517 16.09-24.483 1.335-1.984 7.597 3.368 13.434 1.679 6.803-8.868-.75-11.811-7.695-15.159-2.665-8.836-3.187-15.716-.476-24.661 2.322-7.664 11.247-27.143 21.374-22.896 7.542 9.037.202 27.221 9.736 33.929 6.855-.129 16.759-12.85 22.238-15.556 16.677-8.237 35.588-18.368 52.626-25.373 12.637-5.194 21.634-5.543 34.522-13.054"/><path d="M655.891 388.265c12.566-1.536 40.495 11.169 30.872 23.809-3.793 1.096-2.529.795-6.978-.724-15.521-10.739-13.608-10.839-31.449-10.617-2.535-1.345-2.385-1.294-3.728-3.886.94-5.981 5.764-8.021 11.283-8.582m-29.463 78.21c11.898 1.079 20.225 9.779 13.279 21.872-9.574-3.286-18.758-10.965-13.279-21.872m23.759-49.796c11.015.766 23.147 8.794 14.353 20.921l-2.193-.131c-8.017-5.252-15.789-10.335-12.16-20.79"/><path fill="#fefefe" d="M1660.77 454.627c.72.555 7.15 7.407 7.64 8.12 21.01 30.101 77.07 46.322 93.01 76.606a44.4 44.4 0 0 1 5.13 19.259c.3 9.885-11.81 68.196-15.24 79.13-6.36-13.906-62.75-94.342-71.76-99.923-2.4-1.485-3.47-1.398-6.09-.742-2.03 3.32-1.4 2.253-1.41 6.7 23.48 37.533 50.6 68.461 72.66 108.117a743 743 0 0 1-32.19-9.975c-32.01-10.94-44.08-17.181-53.92-49.345-2.92-9.568-18.94-30.66-18.33-40.963 1.9-32.223 9.75-66.676 20.5-96.984m-449.04 698.733c18.54-.94 15.69.82 33.08 7.4 40.52 15.33 83.23 25.07 125.98 31.77 13.26 2.08 26.77 2.53 39.73 4.71 4.97 13.71 14.51 40.83 20.92 52.79-4.56-.08-9.13-.12-13.69-.12-44.87-2.28-93.11 1.91-138.38-.76-12.65-.74-39.24 1.58-50.42-1.72-1.91-4.53-4.16-19.85-5.22-25.65a4387 4387 0 0 1-12-68.42m134.73-796.683c25.82 12.728 54.22 20.08 81.42 35.048 2.09 4.669 10.8 19.763 16.86 16.343 5.07-9.56-.99-22.227 1.32-30.185 6.62-22.791 24.69 1.068 26.04 13.493.91 8.378 4.4 15.873-.08 24.181-3.9 7.221-10.53 12.046-4.99 20.421 21.66 30.635 40.39 46.1 77.26 54.425-22.31 10.251-47.4 17.876-70.84 29.32l-.79.762c-2.21-.889-7.26-14.364-8.9-17.953 4.54-3.745 10.34-7.355 11.25-13.007-1.38-3.768-.53-2.376-3.9-5.258-15.55-2.353-25.92 31.283-63.69 8.505 6.93-5.189 13.67-9.839 15.28-19.028-5.27-7.689-19.96 4.636-25.15 8.544-9.55-6.889-14.39-13.952-21.35-23.22-3.26-.284-7.37-.216-10.71-.256l-.84-1.274c-.03-8.237 10.26-12.656 1.99-24.816-2.11-3.118-6.75-12.933-8.1-16.554 4.75-2.43 9.12-4.622 14.06-6.655 6.96-2.87 20.77-5.499 26.03-10.265 1.1-2.923.99-3.056.07-6.179-9.36-8.606-36.96 5.788-45.85 12.062-6.28-18.33-5.93-29.27-6.39-48.454"/><path d="M1371.95 377.131c5.79.109 7.48 2.168 7.22 8.01-4.07 6.308-12.61 5.968-20.5 10.301l-.95.53c-3.82.63-4.68.141-7.41-1.961.94-11.73 11.87-14.49 21.64-16.88m18.38 38.635c3.43.36 3.6.594 6.63 2.432 4.12 7.897-9.75 15.844-15.5 19.536-16.83-8.172.51-16.316 8.87-21.968"/><path fill="#fefefe" d="m825.675 1160.33 1.594.25c.324 4.35-42.535 76.22-48.327 88.65a4247 4247 0 0 1-179.524 1.76c-6.328-.99-11.756-.96-18.105-1.07 5.613-8.49 30.903-44.32 36.624-50.28 7.19-.83 14.614-1.25 21.865-1.95 48.548-4.69 97.285-11.98 144.145-25.79 14.135-4.16 27.04-9.6 41.728-11.57m806.295 34.11c8.32-.57 19.75-.37 28.3-.47l37.56 53.03-.31.77c-7.03 1.39-34.35.99-43.45 1.31-49.07 1.72-99.44-1.13-148.39.87-14.38-2.36-41.05 2.8-59.5-1.25-4.65-14.28-14.83-35.88-20.81-50.85 65.83 4.79 140.07-.14 206.6-3.41m307.29-731.693.98.707c9.3 25.735 23.06 68.058 17.34 94.931-6.43 30.275-36.06 57.118-62.36 71.485-9.77 5.337-20.84 8.554-30.41 14.863l-1.12.752c3.31-8.107 7.12-21.995 10.01-30.895a295 295 0 0 1 13.73-34.018c5.45-11.531 18.82-28.257 22.43-37.013-.19-3.392-2.12-5.197-4.24-8.02-1.21-.05-2.47-.089-3.67.154-4.24.865-9 8.261-11.31 11.58-10.48 15.008-41.97 80.247-38.8 96.22.05.233.11.462.16.694l-1.16-.278c-5.7-11.211-6.95-55.357-5.8-69.701 4.19-52.235 55.98-79.96 94.22-111.461m-1823.602-1.489c2.566 1.096 12.943 10.358 16.194 12.946 18.239 14.519 42.413 30.185 57.212 48.317 27.701 33.94 22.741 75.601 18.898 115.384-5.832-15.225-38.134-103.472-55.596-102.312-5.139 3.96-4.874 8.547-1.505 13.623 16.519 25.902 37.828 70.539 46.603 100.57-28.997-17.379-52.624-24.222-75.608-51.153-45.5-53.317-10.675-85.799-6.198-137.375m277.351-4.473c4.842 2.935 12.792 33.868 14.826 41.151-11.798 20.093-26.926 52.999-30.083 77.17-.399 3.048 2.862 5.839 5.11 7.659l.856.687c-.858 6.823-8.199 28.886-10.567 38.014-17.024 16.561-38.829 23.278-60.877 29.515 6.975-12.041 18.297-33.263 26.188-43.663 21.308-28.084 31.263-35.275 45.329-68.048-.119-5.651-1.547-9.11-7.864-9.466-7.764 4.423-12.096 23.056-17.883 30.359-21.154 26.69-41.509 48.711-54.27 81.019-2.616-21.061-6.482-46.233-10.527-66.644-9.641-48.65 33.472-62.156 66.288-85.068 13.467-9.402 23.253-19.295 33.474-32.685m13.992 738.065c63.543.51 127.583 5.62 191.227 6.47-9.397 15.11-23.384 34.04-33.703 48.89l-12.679-.37c-22.438.63-45.876-.83-68.058.14-39.808 1.74-80.762-1.42-120.244 1.1 14.165-21.63 27.989-36.1 43.457-56.23m1353.949-50.9 98.85 102.77c-24.7 1.21-58.48 1.96-83.04 1.59-12.85 1.53-49.04.61-62.43-.28-6.41-11.94-16.26-24.51-23.92-35.91-3.49-5.2-9.32-12.1-11.63-17.58 5.62-7.48 63.81 4.61 82.17-50.59m-83.98-503.669c17.52 9.095 38.75 15.858 57.5 21.829 24.67 7.858 26.04 24.794 36.41 47.046-13.82 13.254-16.05 18.687-26.01 34.783-.75 12.774-.51 29.715-.75 42.794l-1.68 100.022c-.01 9.305.79 20.235.18 29.228l-.56.131c-2.69-7.282-8.85-40.895-10.6-50.252l-14.72-75.987a1130 1130 0 0 0-39.77-149.594m-1312.147 4.753.443.411c.505 1.852-8.902 37.762-10.356 42.978a1339 1339 0 0 0-19.045 75.553c-2.827 12.649-9.385 45.444-13.408 55.821-1.261-10.942-.526-25.261-.256-36.552-.116-10.332.115-26.011-2.064-35.88-3.607-16.333-24.615-33.267-38.836-41.495 4.827-7.353 11.397-16.212 15.75-23.664 9.682-16.575 18.819-17.194 35.545-23.113a221 221 0 0 0 32.227-14.059m1108.017 51.275c1.86.733 4.42 2.712 4.12 4.83-1.99 13.78-5.09 28.347-7.69 41.993a4566 4566 0 0 1-31 154.188c-3.66 16.574-9.99 48.983-15.16 63.47a122 122 0 0 1-24.43 40.52c11.07 6.15 25.66 14.72 35.59 21.95 14.55 10.61 65.15 58.57 67.35 72.99l-2.3 1.32 2.06.08c-6.84-1.12-29.86-30.73-37.88-38.72-23.53-24.12-40.33-36.8-69.99-52.39-13.55 7.17-27.72 14.51-43.54 14.15-5.28-.12-14.92 1.53-16.94-4.15 1.48-3.01.37-1.95 3.4-3.32 14.75 5.5 52.05-7.69 61.08-20.732 6.96-10.048 16.41-25.581 19.73-37.56 8.36-30.206 14.72-61.379 20.88-92.069 9.08-43.046 17.64-86.2 25.67-129.453 1.33-7.2 5.01-33.744 9.05-37.097m-313.39 211.594c25.45 4.438 53.45 14.684 77.8 22.831l-.13 36.124a613 613 0 0 1-38.88-12.326c-13.03-4.12-49.24-15.852-49.45-32.99 5.46-4.53 28.43 19.027 34.74 8.055-.28-6.354-19.95-10.981-24.08-21.694"/><path fill="#fefefe" d="M1757.43 755.722c31.98 3.184 68.74-1.098 101.31.534 6.99.35 12.89-.19 20.02 1.017 1.37 2.279 2.3 15.702 1.55 18.323l-3.56 1.917c-27.28-.401-55.11.253-82.42.161-12.25-.041-24.59 1.916-36.52.577.03-7.511-.1-15.023-.38-22.529M865.626 898.088c2.709-.66 3.564.996 5.141 2.7-1.522 8.443-20.95 8.005-20.516 17.001 9.781 10.427 29.969-10.9 39.915-9.682.498 1.633.753 1.296.212 2.481-7.795 17.059-24.142 24.416-39.878 31.227-7.562 3.129-35.706 16.042-41.856 15.11-4.63-4.899-3.692-27.805-3.935-35.72 14.041-8.168 44.603-18.488 60.917-23.117m-685.333-141.34c9.964 1.626 32.713.459 44.026.43 27.503-.071 56.153.684 83.555-.809.079 5.01.76 15.861-.295 20.167l-2.329.499c-11.039.4-122.433.49-123.923-.436-1.5-5.517-1.061-13.914-1.034-19.851M1918.46 1056.46c2.34-.63 4.9-.51 6.93.89 1.49 5.83-4.5 14.32-11.3 14.34-15.34.05-30.66-.22-46-.25l-89.34.36c-5.29.03-7.21.83-11.12-1.78-2.14-3.87-1.74-8.49-1.88-13.1l84.09.48c24.41.18 44.07.78 68.62-.94m-1785.186.46c14.003 2.13 41.871.94 56.397.95 18.888.01 38.416-.34 57.324-.21 7.149.05 26.953-.91 32.863.25 2.374 3.26 1.648 4.64 1.916 9.28-.608 2.55-.537 2.39-2.053 4.52-5.764 1.23-23.299.85-30.034.84l-68.974-.3c-10.087-.01-27.598-.64-36.97.87-3.324-4.4-7.434-11.38-10.469-16.2m793.231-293.986c3.249.059 8.015-.013 9.99 2.727-16.451 10.187-43.763 34.924-59.118 48.166l-55.059 46.663c-15.095 12.956-32.604 28.739-48.192 40.692l-12.35-1.425c8.387-8.719 23.171-20.626 32.714-28.748a5016 5016 0 0 1 62.002-52.192c13.815-11.514 55.953-49.125 70.013-55.883m887.025 322.546c29.8 2.15 66.91-.25 98.07.73-11.02 21.75-29.86 12.37-50.14 14.32l-1.19.12c-31.1-.69-62.13-.18-93.3-.73-.45-4.17-.96-7.43-.42-11.65 2.94-2.56 39.68-2.31 46.98-2.79m-708.82-315.707c6.28 1.401 31.06 23.792 38.02 29.448l69.05 55.677c5.39 4.425 62.59 50.807 62.49 50.642l-1.03 1.437-5.99.911c-.89.307-2.81 1.064-3.69.338-50.94-42.005-102.88-83.003-154.58-124.181-3.43-2.737-8.16-6.99-10.24-10.721 1.34-2.474 2.75-2.311 5.97-3.551M150.014 1085.87c30.27.51 60.544.71 90.817.63 12.034.01 27.581-.81 39.044-.09l.34 13.41c-10 1.36-19.379.41-29.487.49q-28.289.48-56.582.42c-7.473.01-27.012.97-32.946.16-3.642-5.32-7.241-9.95-11.186-15.02m789.923-2.14c1.876 1.95 1.933 2.95 2.227 5.76a35.1 35.1 0 0 1-7.514 25.27c-18.174 22.31-60.426 30.82-87.741 33.56l-1.528-1.01c1.938-2.64 28.911-16.15 34.713-19.22 23.596-12.48 40.439-26.44 59.843-44.36m171.693-.1c18.86 17.12 46.28 35.37 69.25 46.81 3.6 1.8 11.9 5.79 14.13 8.55l-1.2 1.59c-4.72-1.63-16.9-3.46-22.29-4.33-25.41-4.06-37.49-9.49-57.14-24.93-4.5-10.55-5.46-16.21-2.75-27.69m658.72 30.79c16.27.26 33.35-.03 49.73.02-7.7 2.64-10.67 2.91-18.7 6.55-7.82 3.61-29.53 15.23-36.09 7.41-.82-3.94 1.08-9.35 2.57-13.08zm93.84 104.83c3.67-.29 7.33-1.43 9.18 2.25l-1.34 1.36-2.79-.45c-4.14.73-7.73 1.77-11.53-.23 1.88-2.2 3.3-2.01 6.48-2.93"/></svg>