<svg xmlns="http://www.w3.org/2000/svg" preserveAspectRatio="xMidYMid meet" viewBox="0 0 2048 2048"><path d="M1008.88 80.458c218.67-5.506 454.86 73.605 621.99 215.696a900.6 900.6 0 0 1 161.38 182.282c93.77 139.904 142.01 284.632 155.53 452.738a875.74 875.74 0 0 1-124.53 525.476c-39.7 65.85-80.6 118.1-130.02 176.16 9.57 10.95 65.31 58.78 32.01 66.25-10.41 2.34-42.23-35.69-50.1-43.94-143.6 147.67-320.28 252.48-527.53 273.72-17.05.83-34.03 2.79-51.11 3.44-15.47.58-31.06 0-46.49.9-6.73.39-13.27 2.22-20.02 2.4-16.48.44-33.631-4.84-50.389-5.63-40.741-1.91-80.561-7.27-120.668-14.59-131.432-24-231.274-68.92-338.026-148.71a934 934 0 0 1-88.247-73.42c-211.724-201-329.763-467.54-302.614-761.544a959.46 959.46 0 0 1 260.568-572.218C547.768 194.813 754.543 86.73 984.483 81.073c8.132-.2 16.267-.43 24.397-.615"/><path fill="#fefefe" d="M989.832 99.428c227.998-12.322 486.218 79.052 654.128 234.358 173.74 162.706 276.71 387.087 286.76 624.905 7.65 196.399-41.09 364.779-149.1 528.529a978.4 978.4 0 0 1-101.65 131.35 611 611 0 0 1-27.15-31.48c28.73-35.52 58.19-70.45 84.23-108.05a875.8 875.8 0 0 0 149.78-386.55c32.59-262.544-76.63-542.258-266.88-724.831-134.16-129.121-305.98-196.826-486.85-219.458-242.879-30.391-455.884 37.843-641.094 195.574-10.996 9.365-21.715 21.042-33.164 29.888l-1.018.772c-2.476-2.156-6.165-6.346-8.01-9.503-11.209-19.178-25.893-4.946-24.637 11.101.383 4.889 9.335 14.386 13.099 18.69a875.5 875.5 0 0 0-103.883 133.76c-57.176 92.045-102.397 219.37-119.937 326.318a906 906 0 0 0-10.761 121.949 563 563 0 0 0-.108 31.03c7.322 241.73 110.027 470.74 285.673 636.98a670 670 0 0 0 102.47 80.15c142.215 89.87 345.05 148.92 513.61 145.82 196.6-3.62 396.02-119.37 528.34-260.83 8.04 10.61 17.69 21.12 27 30.63-129.28 141.27-327.02 257.65-520.47 269.63-143.529 8.89-303.432-25.46-435.092-82.77-80.755-35.15-167.362-86.48-233.646-144.61-32.428-28.62-65.349-67.79-92.552-101.57-121.64-151.08-199.289-336.24-214.052-530.17-12.55-203.193 40.178-410.583 155.679-578.86 36.456-53.113 62.537-80.416 107.831-124.514 102.976-100.257 225.389-179.038 364.749-217.674 63.693-17.658 131.105-26.489 196.705-30.564"/><path fill="#fefefe" d="M1217.05 551.928c4.57 3.256 20.68 28.998 24.42 35.677 21.88 39.084 45.52 90.938 56.47 133.776 9.87 38.577-.16 99.014-10.62 138.015-21.73 81.086-61.16 180.264-133.51 228.804-29.68 18.82-77.49 21.21-110.69 11.85-60.326-17.02-100.48-53.37-131.336-106.572-13.576-24.886-26.956-54.714-35.05-81.88-1.984-6.661-3.373-15.437-8.814-19.111-14.67-2.169-7.94 11.516-8.593 20.236l-1.654 1.298c-48.703 8.372-81.214-64.611-71.587-105.03 12.496-52.469 49.037-35.99 69.414-.387 13.05 22.802 21.311 14.013 21.788-6.572 12.035-113.436 142.262-161.107 233.032-197.781 37.29-15.095 74.71-26.818 106.73-52.323"/><path d="M1018.91 684.377c18.92-1.496 47.41 7.291 66.65 10.345 11.85 1.882 32.09 3.928 42.19 8.363 2.29 2.716 1.44 1.167 2.13 5.047-1.98 7.399-10.62 10.868-16.92 13.999-9.9 4.913-14.55 8.245-25.78 6.496-25.59-7.083-55.34-15.771-81.42-20.811-4.82-.932-17.925 4.282-26.215 3.044-3.849-2.683-3.612-7.592-.7-10.638 9.083-9.498 27.415-14.477 40.065-15.845m125.96 60.371c3.21.116 3.32-.146 6.06 1.365 13.45 17.149 35.78 139.484 41.24 168.316.41 2.15.72 7.336-1.17 8.949-1.4 1.778-3.47 3.364-5.82 3.432-13.8.403-27.63-1.053-41.47-.933-10.67.092-21.1.594-31.74 1.389-5.28-.652-6.89-.159-8.45-5.448 1.48-6.518 5.98-8.177 12.25-9.085 20.15-2.917 42.02-1.215 62.12.512-2.32-14.53-6.77-33.171-9.94-47.815a3277 3277 0 0 0-16.01-71.298c-2.96-12.138-9.98-32.37-11.59-43.078.52-3.031 2.25-4.125 4.52-6.306m103.7-64.451c6.54-.688 7.05.187 14.92 2.751 7.83 2.55 18.15 12.597 8.32 20.344-1.17.922-16.05 2.504-19.72 3.355-13.32 3.084-26.63 6.845-39.96 10.499-4.66 1.333-17.62 5.934-21.74 2.519-16.23-13.418 17.41-24.318 26.01-28.555 10.47-5.157 20.57-9.275 32.17-10.913m-141.83 280.121c12.02-1.368 53.31-3.323 59.67 6.829-.17 4.321.34 2.221-2.34 6.302-7.36 4.086-39.99.766-53.32 1.53-13.66.744-39.49 7.303-47.33 7.035-3.76-2.035-2.25-.665-4.59-4.374-.69-14.497 36.89-16.305 47.91-17.322m-50.78-211.311c9.83-3.017 20.26 2.419 23.43 12.206 3.16 9.787-2.12 20.301-11.85 23.612a18.84 18.84 0 0 1-18.61-3.789 18.84 18.84 0 0 1-5.84-18.066 18.83 18.83 0 0 1 12.87-13.963m165.4-3.452c9.56-3.068 19.8 2.18 22.88 11.731 3.09 9.552-2.13 19.8-11.68 22.909-9.57 3.118-19.86-2.128-22.96-11.707-3.09-9.58 2.17-19.855 11.76-22.933m-86.75 255.775c6.32-.48 18.07.53 14.72 9.86-7.18 7.3-30.67 6.63-43.1 8.63-5.38.76-11.59 1.98-14.69-3.74-.75-1.39-1.17-4.12.1-5.24 9.49-8.44 31.06-8.71 42.97-9.51"/><path fill="#fefefe" d="M1517.83 508.592c4.28 2.005 11.11 9.709 14.36 13.383 104.54 118.263 182.59 272.94 197.61 431.439 3.08 32.488 2.7 66.486 1.02 98.806l-196.23-8.86c-71.91-1.69-149.66-7.64-222.31-10.91 4.9-22.6 12.77-54.74 14.27-76.996 2.91-53.021 11.76-93.057 34.29-141.623 29.89-64.446 49.72-117.418 44.09-189.993 9.79-8.707 23.95-23.973 33.52-33.825 26.55-27.331 52.34-54.51 79.38-81.421m-978.964 7.068c5.783 3.971 35.249 39.351 42.626 47.267a1610 1610 0 0 0 84.005 84.348c-10.678 35.722-13.225 69.215-21.013 104.928-5.373 24.641-13.691 49.495-19.439 74.625-18.586 81.245 1.712 144.242 37.992 215.592a2713 2713 0 0 1-170.787 9.52c-41.26 1.4-83.536-.1-124.83-.44-15.943-.14-32.424-.64-48.298-1.92a81 81 0 0 1-.511-4.32c-2.471-25.41 1.764-70.368 5.797-95.669C350.32 787.044 434.454 640.15 538.866 515.66m763.084 545.37c57.65 4.35 122.14 5.8 180.16 8.33 81.72 4.37 163.48 8.19 245.26 11.45-.93 15.42-5.79 40.94-8.83 56.17a739 739 0 0 1-113.37 269.06c-17.15 25.31-34.59 45.92-54.34 68.97-23.83-22.35-46.93-48.47-69.82-72.01l-169.32-171.64c-20.99-20.94-43.85-46.15-65.17-65.8 25.9-37.84 39.23-61.55 55.43-104.53m-632.842 10.47c3.68-.42 8.185-.44 11.955-.57 27.554 38.57 45.303 59.95 79.076 92.49-8.914 8.38-19.565 16.25-28.788 24.89-29.9 28.03-57.178 56.22-80.624 89.94a509.7 509.7 0 0 0-44.776 78.64c-3.945 8.82-14.172 37.51-18.775 43.64-17.656 23.52-38.984 52.41-56.811 75.42-20.732-22.2-37.511-43.53-56.135-67.44-62.38-79.42-147.99-227.49-151.481-330.86 18.424 1.79 40.782 2.19 59.497 2.95 95.717 2.91 191.522-.13 286.862-9.1"/><path fill="#fefefe" d="M1620.77 402.606c4.76 1.92 21.64 21.84 25.68 26.729 120.51 145.718 200.33 328.053 209.75 518.099 1.91 38.49.5 72.196-2.26 109.906-26.53-.4-54.49-2.18-81.09-3.56-7.73-.72-17.2-.74-25.09-.96l.87-11.16c11.73-159.792-53.04-327.194-143.5-456.193-23.69-33.775-45.98-60.676-72.64-91.553 23.05-23.036 44.64-47.532 68.08-70.226 6.81-6.59 13.67-14.208 20.2-21.082M539.118 1510.92a765.68 765.68 0 0 0 499.932 218.48c2.89 38.89 3.35 82.62 5.01 121.77-16.89-.57-38.75-3.78-55.866-5.89-181.681-25.2-387.473-105.5-514.106-242.13 18.973-27.74 44.7-66.36 65.03-92.23m1003.422 1.77c4.3 1.35 67.21 70.28 73.62 78.27-46.48 48.26-91.34 92.25-145.55 132.33a660.1 660.1 0 0 1-328.85 126.02c-20.85 2.45-47.65 2.63-68.65 2.79-2.16-39.47-4-83.47-4.19-122.94a660.52 660.52 0 0 0 398.28-145.44c24.61-19.93 52.26-48.47 75.34-71.03M1018.83 158.988c34.55-.174 77.33 5.78 111.47 10.627a970.45 970.45 0 0 1 380.54 140.279c32.4 20.555 63.91 44.728 95.14 67.342-7.12 9.739-36.84 39.022-47.21 49.764l-45.29 46.429c-106.47-104.001-235.57-178.301-383.44-202.663-39.08-6.438-67.96-7.405-107.05-9.659-1.34-11.251-1.27-26.091-1.96-37.577-1.3-21.562-1.98-42.934-2.2-64.542M462.977 425.795c3.478 2.892 25.594 31.536 29.863 36.865 11.586 14.466 22.277 26.21 34.911 39.939-104.858 115.603-196.884 286.132-221.049 441.902-5.362 34.564-6.504 69.749-5.408 104.619l-12.112-.91c-19.257-.6-46.771-3.22-66.123-5.14-.184-12.71-1.114-26.64-1.479-39.53-1.107-39.105 2.745-75.151 6.729-113.653 19.621-189.643 104.869-327.668 234.668-464.092m516.376-266.358 12.417-.232c.99 34.249 3.203 68.52 3.52 102.745-133.56 6.632-262.743 59.426-367.041 142.693-28 22.353-55.168 50.809-80.448 76.349-8.381-7.837-15.027-15.72-22.546-24.349-15.082-17.502-29.59-34.227-43.903-52.375a177 177 0 0 1 4.479-5.121c19.99-21.964 42.708-41.347 65.178-60.885 87.951-76.472 199.774-136.669 313.352-163.957 39.018-9.375 75.107-12.842 114.992-14.868"/><path fill="#fefefe" d="M981.588 280.407c3.196-.404 11.725-.492 15.294-.616.501 23.181 2.386 49.353 3.478 72.777-29.495 7.75-48.479 10.011-79.447 22.183-88.779 34.894-162.333 97.432-212.347 178.504-12.305 19.946-23.413 45.507-32.935 66.775a1152 1152 0 0 1-47.298-47.838 1546 1546 0 0 1-68.995-76.862c11.41-14.824 33.085-34.343 46.945-47.224a628.2 628.2 0 0 1 375.305-167.699m763.732 801.143c34.24 1.25 70.08 2.3 104.19 4.47-1.53 17.73-6.3 40.33-9.85 57.96a954 954 0 0 1-63.22 199.85c-20.74 46.12-47.51 94.61-73.06 138.43-13.43 23.02-34.4 46.83-51.66 67.32l-16.1 18.49c-16.92-13.68-55.92-59.46-71.9-77.26 13.1-14.22 24.08-28.68 35.75-44.02a746.6 746.6 0 0 0 145.85-365.24m-1520.389-10.64c25.606 2.3 53.503 2.9 78.705 6.22 10.878 116.22 82.684 247.48 153.243 337.32 18.289 23.29 41.654 54.57 61.861 76.03-11.813 18.22-25.564 37.31-38.169 55.02-8.708 12.35-17.218 24.58-26.457 36.54-22.193-24.93-45.181-51.48-64.327-78.8-87.731-125.19-150.482-279.65-164.856-432.33M1024 279.03q2.07-.059 4.14-.059c32.96-.055 71.12 4.59 103.54 10.505a691.3 691.3 0 0 1 368.53 196.632c-16.78 18.751-35.49 37.252-53.2 55.227-16.81 16.898-32.86 34.122-49.92 51.061-26.3-51.936-55.63-92.696-98.21-132.972-84.19-79.64-156.89-112.07-271.99-109.4-.64-23.518-2.15-47.367-2.89-70.994M880.109 971.61c3.139 2.712 16.336 28.257 19.627 33.96 29.311 50.75 69.607 87.04 125.324 106.36 1.79 46.43 3.18 92.87 4.16 139.33.28 14.67 1.69 33.73 1.21 47.79-2.83 1.21-7.32.18-10.62-.24-34.598-3.45-80.592-30.04-107.691-51.77-14.337-11.5-27.991-25.28-43.267-36.34 3.934-49.55 4.308-99.53 7.579-149.12 1.987-30.12 2.893-59.81 3.678-89.97m348.101 217.95c12.46 4.71 138.69 140.68 156.81 158.57 32.6 32.18 79.77 80.39 112.23 115.24 7.25 7.79 25.71 26.02 32.54 33.93-13.32 16.85-37.64 39.53-53.7 53.95a1720 1720 0 0 1-51.75 42.27c-7.5-30.51-16.01-56.07-25.09-85.63-37.98-123.68-89.43-212.82-183.57-302.75 4.26-5.13 8.44-10.32 12.53-15.58m-88.98-76.45c2.22 1.52-.79 19.35-.86 23.72-.64 39.39 5.05 80.73 20.84 116.67-29.08 22.54-46.35 33.05-82.76 41.65-5.42 1.07-10.84 1.67-16.32 2.34-2.77-59.24-4.63-118.53-5.58-177.84 32.02 3.76 53.81 3.22 84.68-6.54"/><path fill="#fefefe" d="M1204.02 1218.42c7.86 4.44 28.68 29.35 36.4 37.13 93.86 94.53 133.44 221.81 168.56 346.6.43 1.52-1.67 2.69-2.78 3.71-3.28 1.71-4.61 2.77-8.32 2.83-3.61-3.66-15.37-49.88-18.11-58.59-20.41-64.89-56.52-121.83-88.02-181.52-9.12-17.3-17.27-35.59-27.69-52.27-20.3-30.49-39.66-61.9-61.19-91.49-1.35-1.85.39-4.54 1.15-6.4m-493.862 13.33 1.208.83c-2.427 17.36-24.815 52.29-33.112 68.97A2911 2911 0 0 0 633.83 1394c-12.009 26.37-21.253 54.24-32.488 80.84-3.794 8.98-13.345 46.78-17.953 50.64l-2.679-1.25c-6.102-4.89-6.229-7.28-4.85-15.22 14.846-85.44 46.422-166.98 99.18-236.29 11.674-15.34 20.127-28.58 35.118-40.97m592.982 234.12c2.6 2.51 5.95 7 5.49 10.62-2.45 1.81-2.91 1.76-4.15 4.42 2.16 4.3 1.77-.96 8.37 1.99 5.48 9.29-2.16 7.11-2.69 16.5 1.49 2.7 1.68 3.18 4.33 4.77l-.06-.03-.98-.54 2.16-1.36c0-3.39.1-6.1.34-9.48l1.31-.02 2.67 3.78c1.24 2.43 2.29 3.72 1.79 6.35-4.83 2.88-2.67 6.3-6.63 8.81l-1.96-.94c-4.62-6.65-4.71-15.69-6.14-23.77-1.15.4-2.09.95-3.13 1.58-5.79-5.64-6.73-16.64-.72-22.68m-736.58 6.9c.694 3.7-4.68 25.72-5.864 31.01-1.797-.09-4.231-3.02-5.992-4.63l-4.621-4.99c5.477-6.51 11.273-14.54 16.477-21.39"/><path fill="#fefefe" d="M1310.76 1423.67c3.39.23 4.46.08 7.53 1.66-.79 6.95-3.39 6.19-.76 14.27l3.26-3.23c3.27 2.31 7.73 9.13 9.27 12.89l-1.35.2-5.11-4.92-1.14.84c-2.52 3.95.6 7.01-1.49 9.58-5.88-3.97-4.47-7.43-1.19-12.03l-.7-1.23c-5.07-.81-8.08-4.12-9.37-9.18l4.72 1.2.91-.8c-2.75-3.71-4.21-4.88-4.58-9.25m-38.61 58.93c3.05 3.29 7.2 15.88 10.29 20.43 1.12 1.64-1.64 5.82-2.75 7.97l.91 2.24c4.98 2.3 5.65 1.68 7.33 5.59-.39 3.55.16 4.11-1.7 6.48-2.09-2.78-1.41-2.98-1.76-7.13-1.88-1.12-5.1-2.66-7.15-3.71 1.11-5.47 3.44-11.46.1-16.13l-2.08.04-1.46 2.73-1.15-.79c-1.24-2.67-2.15-3.89-1.83-6.82 1.95-.06 1.44.16 3.15-.53-1.59-4.07-.31-2.37-4.46-4.89-.2-2.8.42-2.52 2.56-5.48m-532.351-278.8c1.206 1.25.715.94 1.2 3.14-4.975 11.64-6.382 28.12-13.747 34.66-.915-.62-1.966-1.58-2.837-2.31-.062-5.43 12.227-27.89 15.384-35.49m-75.875 194.62c2.456.7 1.375.07 3.216 1.94-2.851 4.42-8.566 19.12-11.668 25.33-.818.37-1.746.36-2.725.46-.331-1.92 3.307-5.31 4.315-7.45 2.151-4.56.144-.87-1.422-6.27 1.406-5.04 5.189-9.6 8.284-14.01m672.556 66.29c.58.66 6.31 12.05 7.44 14.14-1.65 2.83-2.63 5.1-5.23 7.08-3.25-1.15-2.96-2.14-5.41-5.74 4.36.31 3.31.91 6.26-1.06l.02-2.12c-3.76-3.75-2.19-2.61-8.66-3.28l-1.13-1.41c1.17-3.62 3.72-5.1 6.71-7.61m-707.819 47.06.951 1.7c-2.248 6.51-8.394 22.93-12.526 28.02-.299-.56-1.477-2.71-1.598-3.2-1.197-4.94 10.412-21.78 13.173-26.52"/><path fill="#fefefe" d="M1328.05 1452.76c4.01 1.98 9.63 9.99 12.56 13.79-4.75-3.1-8.17-8.59-13.65-7.11 1.63 2.84 1.75 2.93 2.64 6.05l-.95 1.25-2.47-.98c-2.5-3.16-2.43-2.95-3.11-6.9 1.14-4.06.95-2.88 4.98-6.1m-31.96-60.12 1.07 1.05c.05 3.92-.02 7.52 3.46 10.04 1.82-1.34.9-.84 2.7-1.61 3.26 3.6 5.75 7.02 8.66 10.88-1.91-.15-2.54.03-4.19-1.07-6.15-4.11-17.07-10.82-11.7-19.29m-74.85-126.19c3.48 1.03 4.57 1.79 6.29 5 .4 4.25-1.38 7.11-3.12 11.13l-1 .2-1.07-1.21c-.89-5.35-2.77-10.75-1.1-15.12m-538.197 168.84c2.388 1.6 3.199 2.4 3.694 5.03-9.319 4.94-3.01 8.44-11.206 16.18-1.115.35-.47.29-1.938-.13 1.421-5.25 6.82-14.82 9.45-21.08m75.817-185.1c1.721-1.15.753-.89 2.934-.63l.813 2.87c-.675 3.35-2.985 9.85-6.407 10.74-2.112-5.22-2.967-4.81-1.981-9.27-.261-.03-.522-.05-.784-.07 2.896.4 2.784.44 5.649-.06l.666-1.39-1.921-.73zm487.51 48.48 2.64 3.58c-.43 2.78-.46 2.27-2.15 4.55l1.19 1.89 3.78-.04 2.4 2.53c-3.93 2.7-1.91 2.22-6 2.41-6.39-3.77-4.4-9.29-1.86-14.92m-523.703-58.29c2.372 1.27 1.547.3 2.81 2.63-3.504 5.7-6.199 10.53-9.332 16.45l-1.528.32-.61-1.16c1.45-5.04 6.088-13.29 8.66-18.24m578.493 172.36c.94.65 7.14 5.94 8.46 7.04.41 3.31-.29 3.14-2.15 6.78-1.04.25-.28.13-2.29-.24-1.66-6.33-5.04-6.9-4.02-13.58m-466.133 245.2 3.298 2.4.02 1.78-5.334 5.21-1.81-.67-.651-1.59c1.523-2.96 2.604-4.45 4.477-7.13m-195.158-198.07.896 1.24c-.309 4.89-2.596 7.37-5.905 10.75l-1.36-1.65c1.054-4.06 3.772-6.92 6.369-10.34"/></svg>