<svg xmlns="http://www.w3.org/2000/svg" preserveAspectRatio="xMidYMid meet" viewBox="0 0 2048 1462"><path d="M578.259 126.551c4.066.307 7.714.252 11.76.437 24.422 1.119 54.816 5.5 74.215 21.521 7.384 6.098 11.941 13.189 18.059 20.127 14.026 15.908 36.661 6.703 55.163 7.712a36.4 36.4 0 0 1 25.581 12.231c18.026 20.496 8.054 54.903-8.889 72.776-6.897 7.276-14.785 13.835-22.378 20.384.903 18.562.107 41.38 6.019 58.909 1.954 5.795 13.767 11.653 12.709 20.745-3.136 5.666-16.202 10.087-23.044 13.687-6.711 13.483-7.518 23.436-17.432 38.187-26.561 39.518-64.781 53.196-109.106 62.288-1.197 5.97-1.597 10.647-2.145 16.736 8.553 12.676 24.343 28.327 33.852 41.038 18.153 24.265 37.906 47.253 56.676 70.811l66.657 83.625c10.763 13.69 30.37 40.179 41.22 51.085 16.225-4.778 33.209-8.244 49.662-12.379 55.021-13.83 110.581-25.254 165.892-37.845 6.41-1.46 17.72.74 25.4-.564 29.15-4.947 120.71-32.6 136.49 5.712 10.69 3.744 20.06 5.077 29.94 9.809 9.7-12.158 42.51-42.144 54.78-54.338 42.24-42.467 85.23-83.082 131.13-121.547 37.46-31.391 72.24-51.993 115.88-73.616-11.19-3.422-18.94-5.278-28.85-12.028-31.99-21.799-44.53-53.669-51.86-89.427-5.11-4.52-25.21-18.182-27.03-24.1-2.26-7.351 16.99-20.242 19.39-26.442 2.95-7.663 5.16-22.133 7.1-30.612 2.2-10.633 5.59-20.981 8.22-31.505.56-2.226-1.75-5.025-1.07-7.708 7.71-30.46 29.54-60.576 54.67-79.136 30.97-22.878 70.07-30.074 107.57-24.056 32.58 5.163 66.45 25.85 85.4 52.689 37.95 53.743 34.79 110.92 21.03 172.413-3.54 15.805-8.12 31.572-11.19 47.1-1.64 11.056-1.99 27.32 2.38 37.73 4.55 10.863 12.97 21.405 20.59 30.152 7.73 8.872 14.95 17.854 22.42 26.885 15.99 19.356 31.14 38.699 45.95 58.976 6.63-6.643 26.47-19.291 35.59-23.476 7.46-3.154 22.49-7.2 30.02-4.865 9.31 2.887 21.93 3.049 29.91 9.435 57.85 46.262 67.54 147.651 74.75 216.095 5.36 50.892-1.8 100.751.07 151.335.13 9.451-1.71 58.958.06 64.069.49 24.021-.3 48.464-.57 72.554-.13 11.47.41 22.92.22 34.39-.41 24.02-1.93 48.01.09 71.96.5 5.89.74 38.01-1.91 40.69-3 3.05-6.68 4.18-10.83 4.5-18.81 1.48-38.48-1.04-57.48-.41-40.46 1.32-80.75 1.19-121.2 1.87-35.32.59-71.01 2.22-106.31 1-7.97 8.33-32.72 26.2-43.04 32.5-102.38 62.48-232.1 88-349.84 102.79-30.71 3.86-76.32 8.05-106.08 9.66-180.747 9.75-489.459-7.64-634.629-122.96-7.949-1.22-18.9-.14-27.256-.32-94.749-1.99-189.454 1.89-284.152.45-21.961-.33-60.46 3.83-81.061-.96-7.464-8.03-4.663-56.89-4.624-69.32a4005 4005 0 0 1 11.516-325.476c1.38-17.479 2.107-35.669 4.21-53.066 5.845-48.345 13.828-98.913 25.563-146.162 10.454-36.006 28.214-84.424 63.488-102.72 63.075-32.715 98.212-8.764 128.82 46.464 9.632-8.494 19.151-22.498 28.409-31.767 11.14-11.155 21.44-19.985 32.101-31.897-22.485-21.054-24.992-41.743-16.291-71.005-12.763-5.935-21.313-9.697-29.895-21.192-25.795-34.554-2.405-70.478 28.677-90.81.86-.562 7.176-6.353 7.144-6.869-.647-10.508-3.622-20.911-2.099-31.503 3.651-29.209 30.974-51.752 53.978-67.169 9.858-6.607 22.377-12.18 31.62-19.471l.974-.78c16.397-48.563 35.328-61.534 87.246-66.026"/><path fill="#fefefe" d="M1028.23 849.579c7.19 1.932 43.23.429 53.98.909 63.76 2.843 128.19 10.942 189.28 29.999 22.64 7.06 52.72 24.912 74.52 35.733a8755 8755 0 0 0 106.57 50.805c-10.23 2.169-20.89 3.899-30.49 8.204-6.31 2.835-13.88 7.959-16.09 14.881-2.22 6.971 11.62 166.48 14.54 188.65.49 3.72 1.32 12.98 3.79 15.79 7.17 8.19 28.15 10.28 38.67 11.28 18.13 1.73 63.39 2.39 77.3-9.89 3.14-2.78 4.86-6.64 5.72-10.68 1.69-7.88 1.83-16.55 2.69-24.6 2.01-18.55 3.89-37.11 5.64-55.69 3.1-32.26 8.56-71.89 10.02-103.55 13.29-3.053 24.33-10.123 36.31-16.702l1.95 1.001c60.98 37.841 122.77 102.391 63.54 173.161-59.41 70.98-153.04 101.04-238.83 125.39a1365 1365 0 0 1-156.39 29.06c-199.13 23.27-426.885 18.11-618.628-45.82-34.449-11.48-84.113-33.31-112.589-55.81 13.034-4.62 34.018-12.26 45.478-19.84 56.73-37.52 111.766-80.57 165.848-121.91l90.966-70.551c18.572-14.275 37.708-28.328 55.69-43.33.417-.348 1.783-6.497 1.518-6.252 28.609-26.438 82.864-62.912 98.66-99.338 10.187-.161 20.177-.26 30.337-.9"/><path d="M1291.69 961.227c13.41.182 15.57 6.238 17 17.948 12.62-1.017 28.91-3.102 41.69-2.089 1.6.126 5.71 5.364 7.63 6.171 7.14 2.997 13.55 4.443 13.12 13.608.33 12.905-1.21 25.515-2.1 38.335-2.23 31.85-4.82 63.68-7.77 95.47-2.67 33.79-5.53 67.57-8.58 101.32-1.3 15.3-2.25 30.66-3.95 45.91-.67 5.92-5.01 9.48-10.83 9.67-28.38.91-56.85.71-85.25.86l-109.63 1.56c-27.26.2-56.1-.55-83.15.34-4.88.37-10.49.13-15.44.24-17.46.4-25.11-3.1-23.18-21.58 2.13-20.5 4.61-40.76 6.58-61.09l12.75-132.44c1.12-11.72 5.87-73.76 9.14-80.576 5.61-4.243 18.61-3.258 25.98-3.323 1.8-25.621 22.38-25.668 25.66-1.26a700 700 0 0 1 47.86-1.702c.16-1.444.74-8.139 1.18-8.961 12.6-23.291 20.32-5.644 25.83 5.838 7.4 2.404 31.3-.159 40.35-.806.25-.927.51-1.853.77-2.777 7.06-24.844 19.01-22.831 27.13.092 7.34 2.714 26.94.039 34.54-2.655 2.64-9.916 2.27-13.701 12.67-18.103"/><path fill="#fefefe" d="M1232.21 1040.41c4-.36 9.74-.32 13.9-.41-3.06 35.34-5.93 70.69-8.6 106.06-9.37.73-23.2.2-32.99.13-17.76-.04-35.52-.25-53.27-.62l-9.53-.42c2.46-30.68 7.09-71.16 7.47-101.41 19.17.26 63.75-1.71 83.02-3.33m-91.43 112.31c27.21 1.83 68.23 2.03 95.67 1.73-.84 30.63-4.72 62.71-6.66 93.38l-1.16 3.56c-.14.03-1.47.3-1.59.29-11.02-.94-88.1 2.6-93.36-1.31-.49-7.75 1.56-25.83 2.24-34.36zm171.86-116.32c5.82-.67 17.55-.45 23.87-.5-.88 19.93-3.57 42.51-5.13 62.58-.94 12.16-2.68 37.31-5.27 48.48-3.43 2.07-46.79.2-53.61.05-6.34.02-21.68.62-26.85-1.68.32-29.12 5.15-73.43 8.2-103.03 5.24-5.32 49.08-5.2 58.79-5.9m-192.9 9.21c6.76-.77 15.55-.66 22.5-.77-2.98 33.37-5.75 66.77-8.32 100.17-14.52-.59-49.66 1.61-61.47-.5-7.58-.05-15.16-.24-22.74-.56.81-21.32 4.15-43.49 5.45-64.86.62-10.26 1.78-21.53 3.51-31.65 20.36-.47 40.72-1.08 61.07-1.83m125.1 109.2c26.79.18 53.57.52 80.35 1.02-.81 30.51-6.76 64.33-7.7 94.91-5.83 1.76-66.94.45-79.56 1.23.38-27.96 4.47-56.89 5.7-84.92.18-4 .63-8.28 1.21-12.24m88.8-162.251c3.68-.023 2.59-.503 5.46 1.184 2.58 6.006.22 28.497-3.31 33.387l-180.45 8.87c-31.43 1.51-64.6 2.17-95.7 3.96.88-10.1-2.03-40.449 14.38-33.1 2.37 2.76 2.02 6.2 2.26 10.06 3.83 7.25 12.56 11.87 19.11 5.08 5.96-6.17 5.32-9.91 5.65-17.89l47.71-2.31c-.68 4.91-1.91 12.44 1.97 15.68 15.72 13.13 22.85-4.42 22.49-17.12 10.85-.23 32.73-2.615 42.26-1.697 3.61 6.727.09 16.457 10.34 20.047 6.55-.63 9.52-4.26 13.7-8.84 1.13-4.63 1.35-8.45 1.75-13.171 11.56.593 25.5-.748 37.23-1.565.26 4.702.18 12.786 2.92 16.476 3.79 5.08 17.97 6.34 22.64 2.32 4.24-3.66 3.23-15.489 3.24-20.838 9.08.006 17.28-.017 26.35-.533"/><path fill="#fefefe" d="M1351.64 1028.06c1.18-9.43 1.82-18 3.31-27.45 2.14 3.43-.17 22.32.17 27.4-2.44 16.43-3.35 48.41-5.11 67.52l-8.27 99.53c-2.27 26.19-5.08 51.42-6.91 77.79-80.24-.15-161.42 3.32-241.7 2.26-10.84-.14-48.02 2.63-55.82-1.16-1.13-2.58-.82-1.66-.04-4.99 1.68-1.37 2.62-2.42 5-2.39 90.96 1.08 182.19-.24 273.24-.3 3.73 0 9.43-.97 12.7-2.79 4.38-8.04 7.55-59.63 8.62-72.46l6.26-67.78c2.52-27.74 8.15-69.16 8.55-95.18"/><path d="M860.292 1063.38c24.982-2.77 68.388-1.02 90.343 11.48 6.937 3.95 14.007 9.73 15.902 17.87 2.258 9.69-14.519 157.11-17.131 175.3-.62 4.31-1.034 10.81-3.518 14.42-6.408 9.32-27.018 12.8-37.66 14.48-18.018 2.62-86.039 1.77-90.945-18.25a90 90 0 0 1-2.023-11.42c-6.346-55.17-7.169-113.3-13.05-168.77-.302-2.85.469-14.02 2.3-16.06 12.612-14.01 38.041-17.18 55.782-19.05"/><path fill="#fefefe" d="M818.83 1113.38c35.537 10.57 74.227 11.35 110.902 8.08 7.427-.67 13.624-5.44 20.446-5.56.964 6.81-4.109 44.13-5.171 53.19-3.444 29.38-5.738 59.51-9.389 88.78-.853 9.56-.745 16.89-12.01 20.1-29.812 8.47-63.917 6.78-92.324-5.73l-.112-.53c-3.528-16.06-4.052-49.08-5.516-67.22-2.43-30.12-5.016-60.99-6.826-91.11m43.33-16.97c10.373-.98 67.257-1.56 73.796 7.08-4.383 3.52-16.755 3.81-22.721 4.26-31.399 1.35-50.43-.84-80.518-6.25 9.866-2.9 19.289-3.82 29.443-5.09m3.566-20.03c29.571-1.01 66.831-1.08 89.878 18.64-19.57-7.82-34.059-13.06-55.835-11.93-13.985-3.28-46.642-1.03-60.802 2.47-6.504 1.6-17.817 5.39-24.924 7.51 15.594-14.57 30.959-13.94 51.683-16.69m-54.098-211.406c4.993 1.034 14.634 8.764 18.739 12.089 24.775 20.075 39.612 42.074 53.052 70.683-19.785 16.058-40.722 31.222-60.952 46.779l-103.48 79.325-62.807 47.39c-34.588 26.26-70.527 55.21-111.154 71.19-25.139 11.07-52.944-.5-66.22-24.27-14.946-26.77-26.337-62.63-36.373-91.9a2627 2627 0 0 1-31.033-95.476c-4.032-12.968-8.557-25.339-11.952-38.538 38.966-13.295 90.121-38.159 126.061-57.866 2.583 15.199 13.676 50.653 18.044 67.454a3060 3060 0 0 1 11.058 42.986c2.914 12.01 5.387 24.09 9.669 35.7 1.186 5.85 9.141 4.37 13.215 1.45 59.284-42.473 115.661-88.865 175.916-129.978 19.242-13.129 37.076-27.095 58.217-37.018m751.212-413.807c3.01 5.309-3.34 54.633 5.91 66.861 7.67 10.144 11.66 11.169 23.87 14.402-34.93 45.683-67.88 162.981-80.98 221.499-4 17.844-7.98 45.389-12.89 61.005l-.42 1.286c-17.96-10.703-41.74-22.273-60.64-31.616 1.7-66.524 1.6-137.396 14.95-202.806 2.09-10.242 6.02-20.65 6.3-31.129.07-2.596-2.53-5.132-4.35-6.593-15.78-2.229-23.28 69.682-24.91 81.799-1.55 5.135-4.11 47.983-4.63 56.406-18.59 21.026-53.82 48.51-75.7 67.105-7.55-3.347-21.81-7.408-30.26-10.493-19.51-7.117-41.89-15.629-61.48-21.607-17.86-5.451-16.53 3.611-37.42-9.428 10.06-8.441 19.31-18.305 28.7-27.547l36.14-35.116c71.2-69.953 150.32-148.283 245.54-182.998 10.13-3.695 21.46-5.613 31.12-10.446zM280.211 521.562c28.355.596 58.706 35.899 62.491 61.795-18.224 22.181-37.203 51.185-52.131 75.513-60.939 99.099-97.603 209.708-123.771 322.464-6.658 28.686-12.428 57.296-16.499 86.456-.883 6.32-1.767 13.21-3.96 19.18.733 3.1-4.081 36.61-5.822 38.74-.708-1.25-.009-16.13.199-18.84 1.522-19.87-1.002-40.58.023-60.22 7.384-141.406 6.382-286.574 41.523-424.55 6.558-25.75 20.684-55.643 38.011-75.637 15.063-16.994 37.783-23.794 59.936-24.901"/><path fill="#fefefe" d="M1023.33 701.351c7.34 2.451 10.14 8.898 13.7 15.039 9.02 15.551 29.76 92.09 25.61 105.258-4.5 3.263-65.351 11.404-69.973 7.973-.555-2.391-1.25-5.785-2.971-7.654-7.654-8.809-26.722-28.452-40.101-27.724-39.45 2.149-101.511 32.733-129.227 57.488-24.419-5.509-44.171 18.13-66.578 30.679a1055 1055 0 0 1-24.123-8.174c-13.377-6.407-50.736-33.255-62.235-44.048 9.969-8.51 18.845-18.472 28.01-27.784 24.698-25.095 46.806-52.014 69.061-79.288a1062 1062 0 0 0 23.962 29.973c14.335.868 65.84-13.423 82.358-17.306l78.104-17.577c25.117-5.766 49.064-11.802 74.403-16.855m-305.172-412.39 1.341.062 1.084 1.386c-1.114 8.476.763 8.745 1.012 15.456.826 22.279-.889 32.166 11.094 51.775-29.206 11.643-15.26 17.605-30.142 43.428-26.008 45.126-65.416 49.534-110.078 62.477-11.578 22.516-6.41 57.774-20.238 74.158-25.919 30.713-78.441-33.962-97.506-49.9-1.756-1.061-1.622-.997-2.571-2.833.895-2.895 23.399-21.514 28.845-28.671 12.778-16.335 26.332-38.846 32.056-58.767 8.117-28.249 19.493-.348 39.627-13.901 3.804-2.56 6.128-7.628 3.34-11.782-8.87-2.651-39.709 6.443-39.624-16.057.089-23.553 24.83-57.559 46.418-28.261 16.856 22.874 66.672-19.625 79.384-33.454 22.748 2.937 34.015 5.188 55.958-5.116"/><path d="M700.371 317.385c2.199.381 2.967.92 4.906 1.928 6.392 8.427 5.925 26.566-.506 35.279-14.717-2.733-11.775-27.933-4.4-37.207"/><path fill="#fefefe" d="M1790.41 572.325c14.63-10.12 23.89-22.392 43.63-27.428 6.88-2.187 27.66 3.553 32.76 7.295 29.38 21.587 41.83 65.309 50.87 100.161 10.29 44.935 16.45 95.093 16.04 141.204-.6 69.169-2.19 138.188-1.41 207.383.06 4.76-.14 26.66-1.93 29.67 1.47 6.52 1.71 15.33.37 21.85l-.78.41c-2.52-4.67-.8-10.6-1.92-12.69-.25-22.92-4.04-51.65-6.61-74.637-15.51-138.591-58.09-273.91-131.02-393.218m-368.76 441.035c32.19 16.58 90.87 9.69 125.75 3.02-.44 19.93-3.59 43.25-5.68 63.25l-9.26 94.02-.72 11.48c-28.44 9.02-67.42 10.98-95.45.27-6.1-36.58-6.59-77.81-10.68-114.91-1.99-17.98-3.61-39.13-3.96-57.13m164.03-698.169c9.74 3.821 12.66 4.312 23.3 3.699 11.69 33.376 31.74 61.996 64.43 77.863-2.79 26.571.37 45.682 15.73 67.486-18.71 5.388-30.11 12.299-46.76 22.27-10.23 6.402-45.6 38.674-54.28 30.863-17.66-15.896-5.07-58.308-10.69-81.109l-.29-1.137c13.09-36.029 9.83-82.118 8.56-119.935m-42.04-64.213 2.21.07c1.84 2.112 7.85 21.324 9.37 25.631-22.09 5.896-44.6 10.923-66.87 16.302-3.4-21.626-7.63-31.714-31.13-30.933-15.91 12.877-21.22 29.382-21.54 49.653-.2 12.913 3.87 27.785 13 37.24 9.05 9.392 21 5.372 28.89-2.966 10.2-10.561 11.35-25.432 11.24-39.393 18.42-4.122 52.09-11.253 69.28-18.263 3.74 14.794 4.5 26.38 5.87 41.628-.05 10.089 2.14 21.597 1.47 32.028-6.01-.683-10.29-3.717-16.66-1.433-8.68 3.114-12.04 13.066-15.62 20.937-20-7.505-28.91-16.965-43.58 7.692-12.46-9.89-10.75-13.949-27.89-16.227-6.94 3.459-7.83 4.507-12.74 10.176-6.01-12.163-7.4-25.158-11.06-38.401-5.25-5.382-14.27-10.652-21.61-17.968 6.83-9.723 14.17-15.272 17.56-27.929 4.12-15.43 6.35-31.471 11.21-46.645 31.77 13.499 66.83 9.903 98.6-1.199M620.703 809.774c19.03 23.171 65.895 56.808 91.643 73.245 5.469 3.492 18.026 8.563 24.704 11.677a743 743 0 0 0-46.565 33.728c-11.629 7.072-32.94 13.039-46.027 17.86-13.112 4.831-25.161 9.975-38.075 15.21 1.079-25.493 3.832-51.488 5.881-76.975 1.972-24.524 2.702-50.872 8.439-74.745m319.589-2.741c2.048-.437 2.506-.22 4.559.081-2.056 4.098-44.837 20.037-52.727 31.593-.635 3.62-.927 2.244.81 5.163 12.206 6.212 58.357-34.421 71.416-26.071-.981 8.547-62.016 30.419-62.145 45.483.889 1.35.956 2.005 2.548 2.59 7.825 2.879 54.85-30.262 66.5-35.037 2.569-1.053 3.954-1.647 6.544-.611.744 13.875-62.122 38.193-58.968 55.995l1.779 1.234c4.18.41 5.963-.986 9.769-2.889 18.582-12.609 38.145-27.448 56.013-41.068-9.617 25.416-69.771 76.646-92.979 91.593-10.813-26.33-39.712-60.917-63.564-75.908 37.825-27.603 66.723-39.238 110.445-52.148M1104.57 705.03c40.58-1.524 85.3 4.19 122.63 20.888-25.4 32.052-33.58 48.933-42.81 89.529-35.73-13.443-71.89-31.122-107.7-44.874-3.07-1.182-6.61-2.425-6.72-5.944 11.37-3.58 85.51 31.901 91.97 16.839-1.2-7.306-8.85-8.892-14.69-10.334-8.13-2.242-69.74-19.625-71.85-21.288l.1-3.372c.44-.686.68-1.558 1.33-2.057 5.83-4.507 76.6 15.756 88.19 16.688 2.4.193 5.32-.038 7.42-1.357 2.28-1.441 2.63-2.635 3.24-5.147-5.08-11.455-84.03-19.274-89.58-25.422.77-2.515 3.26-5.102 5.89-5.913 14.37-4.435 87.59 16.426 92.66 12.343 1.93-1.554 2.82-3.516 3.18-5.884-7.07-13.611-70.96-14.391-82.55-20.955zM421.721 315.758c4.675-14.474-7.789-29.048 1.481-46.099 12.31-22.645 33.89-38.087 55.635-51.029 4.805-2.794 19.757-11.25 22.499-15.091 13.911-19.484 6.466-33.992 30.219-48.268l.945-.557.966-.548c25.001-13.881 66.415-14.736 93.56-6.4 21.574 6.625 27.267 11.829 41.201 28.795-8.954-4.83-16.706-11.191-25.148-15.639-28.783-15.163-65.72-18.105-95.603-4.362-8.501 3.909-16.8 7.184-22.094 15.507-8.127 11.803-10.72 26.706-19.378 38.011-6.171 8.083-20.692 11.46-29.426 16.425-11.338 6.76-25.563 20.568-32.985 31.074-7.495 10.607-13.429 26.271-15.636 39.002-1.727 9.955.942 10.333-4.645 20.605-5.831 11.532-31.854 33.884-42.992 42.741 4.616-12.642 30.971-28.386 41.401-44.167m197.151 221.64c3.754 1.214 9.405 8.8 11.416 12.13 12.113 20.059 8.141 48.206 7.441 70.308-1.692 51.386-8.192 102.688-15.102 153.596-1.89 13.924-6.446 28.926-9.376 42.883-1.121 2.582-.293 1.466-2.873 3.197l-1.938-.594c-3.836-5.016-.954-11.258.017-17.122 5.739-34.626 11.885-69.288 17.082-104 2.749-18.361.988-39.552 2.878-58.231 1.385-22.815 3.541-46.523-.683-69.158-2.032-10.886-5.804-22.426-8.862-33.009m803.018 169.51c.16.155.35.285.48.464 2.78 3.783-.23 61.095-.51 70.34l-31.38-12.739c-8.18-3.089-15.11-5.504-22.81-9.724 17.97-15.077 35.83-32.691 54.22-48.341m-279.82 108.047c2.32-.443 39.5 13.969 41.66 16.516 10.99 12.929 15.49 12.111 31.81 19.165-7.17-.378-21.09-3.182-28.72-4.355-7.79-1.197-20.96-2.465-27.85-4.383-25.65-1.292-51.62-6.613-78.09-5.874 20.65-7.696 40.37-10.672 61.19-21.069m532.22 4.59 3.15 2.307c.42 4.129-4.69 17.728-6.83 22.073-20.09 40.811-30.17 88.286-67.24 117.113l-2.95-3.105c-1.63-6.091 4.18-9.615 8.38-13.681 15.78-15.288 23.53-36.242 32.83-55.848z"/><path fill="#fefefe" d="M1102.65 689.899c7.04-1.385 13.22-1.193 20.27.103-5.26.637-13.42 1.89-18.48 2.136-17.55 9.935-4.61 13.935-26.48 22.73-3.76 6.422-4.6 8.96-7.02 16.101-8.58 3.126-4.37 6.765-9.67 9.377l-1.12-.915c.21-7.682-11.9-30.454-15.66-37.799 12.71-4.031 44.93-10.15 58.16-11.733m495.96-427.159c11.7-.193 14.22 3.26 20.18 12.598 1.17 17.807-.91 23.578-17.17 31.601-10.85 2.113-19.14-5.781-17.42-16.804 2.01-12.906 4.54-19.056 14.41-27.395M639.264 964.958l.771.27c-1.176 3.779-56.723 42.432-64.93 49.772l-3.804-17.073c25.7-12.874 40.441-21.873 67.963-32.969m834.716 14.383c2.9-.485 9.43.081 12.95.074 27.23-.05 41.22 3.611 65.3 16.035-6.11-.922-15.67-4.39-22.39-6.008-14.05-3.383-24.29-3.568-38.64-4.099-9.04.562-17.66.037-27.49.806-18.94 1.481-29.86 5.893-47.39 10.245 20.46-14.503 34.81-13.432 57.66-17.053m-.77 20.21c1.69.222 11.04-.127 13.72-.091 15.79.214 28.52.71 43.74 5.52-9.43 1.42-18.9 2.62-28.4 3.6-12.28.55-45.74 1.25-56.15-3.68l-.23-1.24c6.14-3.63 19.89-3.739 27.32-4.109m.82-689.486c.44.098 1.15.657 1.59.95 1.17 9.862-4.5 36.315-19.76 25.853-4.84-6.01-5.77-12.011-7.51-19.354 8.14-2.594 17.24-4.849 25.68-7.449m-12.59-35.231c2.09.058 2.78.324 4.79.827 6.49 5.316 11.42 11.522 6.79 19.88-2.97 2.656-6.27 2.832-10.3 3.647-4.73 1.334-9.9 2.53-14.7 3.736 3.32-11.224 5.74-19.252 13.42-28.09m-389.07 510.257c4.89 1.39 26.42 10.453 29.89 13.186l-1.51.918c-8.17 2.344-16.83 3.228-25.28 3.7-1.84-5.6-2.37-11.914-3.1-17.804"/><path fill="#333435" d="m1111.74 808.745.35-.196.9.273c-2.75 2.315-4.25 2.43-7.76 3.378l-2.23-.546c1.71-1.91 5.69-2.205 8.74-2.909"/></svg>