<svg xmlns="http://www.w3.org/2000/svg" preserveAspectRatio="xMidYMid meet" viewBox="0 0 2048 1462"><path d="M0 0h2048v1462H0z"/><path fill="#fefefe" d="M0 0h2048v1462h-48.08c-3.7-3.98-4.63-42.74-5.59-51.67-7.6-73.25-14.56-145.55-35.96-216.41-12.72-42.13-29.88-81.95-75.38-98.47-5.04-1.83-22.56-7.89-26.67-5.9-2.01 9.91-1.91 8.13-.73 18.23l-2.15-.16c-1.75 8.14-3.31 18.56-7.78 25.67-3.46 5.5-31.28 32.34-38.37 38.77-4.01 3.63-8.72 6.31-12.61 10.15-13.66 13.45-24.59 28.99-39.11 41.85-48.21 42.68-65.03-12.46-92.56-13.2-15.74-.43-31.99 20.29-43.01 30.11-11.17 9.96-24.98 15.67-40.08 14.64-10.21-.69-16.48-4.89-23.94-11.56-22.23-19.88-36.8-47.65-57.46-69.17-5.07-5.27-10.26-10.53-16.01-15.07-10.45-8.27-23.89-16.25-32.52-26.27-5.78-6.71-12.48-15.07-16.73-22.82-1.85-3.36-2.02-7.68-4.53-10.55-10.52 1.59-16.48 4.04-25.68 9.77-38.16 23.79-48.48 70.51-57.5 111.09-1.03 4.61-1.69 21.81-4.71 24.55-8.37-5.48-14.16-30.68-32.97-40.19-6.97-3.51-16.94-6.31-21.99-8.55-14.29-6.59-28.29-12.86-43.23-18.06-27.9-9.7-56.66-18.21-84.74-27.26-.41-.13-5.97-21.58-8.3-23.28-1.34-.97-4.78-6.6-5-8.71 19.66-1.44 13.88-13.87 14.36-28.63.21-6.61-1-12.49-1.73-18.89-.48-4.21 3.78-8.52.64-14.1 1.81-6.6-.91-17.18-.39-25.8 4.2-4.61 22.27-46.982 23.05-53.592 3.73-3.113 44.8-2.045 53.33-2.078 31.05-.17 62.11-.177 93.17-.021 33.94.152 68.25.274 102.23.265 3.09-.001 4.55.649 6.41 2.623-2.71 3.371-2.04 9.349-3.23 12.631-5.2 14.412 10.64 30.512 10.64 41.292 0 19.44-11.46 38.68-2.46 58.76 6.64 17.32 12.82 22.7 27.14 34.1 4.74 3.78 7.79 6.96 13.82 9.66l.95.41.56 1.02c3.98 7.12 13.62 14.62 19.51 20.8 21.16 22.19 48.15 71.03 77.15 80.41 32.72 10.59 57.51-50.3 90.21-43.02 13.21 4.07 28.87 29.34 42.93 29.91 48.63 1.22 67.63-62.05 107.91-82.45 12.06-6.11 26.59-48.67 19.65-57.88.41-2.15 1.63-3.18 2.7-5 23.78-40.59 25.66-74.85-14.77-105.416-2.71-2.049-5.76-3.99-6.41-7.082l1.01-1.434c21.37-1.667 44.08 1.417 68.59-1.193 4.25 12.879 7.57 30.817 15.33 41.895 4.69 6.7 2.71 8.55 5.27 12.7 5.81.88 8.16-2.48 12.87-5.07 32.08-17.665 62.93-41.564 76.3-76.818 1.07-2.832-3.54-6.65-3.69-7.482-4.28-23.243-15.62-72.833-19.52-93.505a2379 2379 0 0 1-34.77-254.137c-3.24-41.206-5.44-84.946-6.34-126.157.04-6.425-2.69-14.098-2.71-20.294-.25-73.811-.78-147.543.71-221.361.64-31.72.51-64.064 3.2-95.549-.04.46 1.36-4.277 1.49-5.03-2.27-4.309-10.72-6.117-15.33-6.217-23.82-.518-47.76-.283-71.58-1.022a9338 9338 0 0 0-251.32-3.029c-37.05-.3-79.18 1.033-115.92-1.283l.43 1.412c-.98 1.183-19.27-.854-22.41-.842-19.4.077-39.54-.783-58.86 1.056-4.71-2.792-20.05-1.143-26.81-1.195l-76.78-.176-206.75-.226c-5.48.026-69.06.908-70.1.583-5.66-1.765-24.359-.251-31.269-.232l-106.022.662a32888 32888 0 0 0-547.379 4.6c-48.378 1.171-96.787 3.775-145.135 5.577-15.189.565-85.144.922-95.117 5.292-14.685 6.435-1.504 19.834-4.583 27.577l-1.433-.568-.961.53c.328 6.914.974 51.451 2.374 53.674-.215.427-1.04 2.158-1.04 2.492.264 50.52 1.32 101.306.425 151.942-.14 7.982-3.666 19.521.529 26.226-.668.941-2.103 3.018-2.538 4.146 0 .001 1.883 3.235 1.882 3.236-.32 9.461-1.331 21.552-1.496 30.813-.359 20.198-.774 39.954-1.333 60.088-.445 16.023-.929 31.857-.383 47.849.125 3.673-2.423 10.666-2.329 13.807 1.043 34.673-3.571 69.598-3.651 104.287-.011 4.582-1.67 11.611-1.883 16.734a3975 3975 0 0 1-4.93 91.319c-.855 12.097.373 15.317-2.53 28.002-.65 11.347-1.242 22.692-1.945 34.037-2.959 47.707-9.852 96.841-10.414 144.423-.111 9.469 33.195 43.469 41.786 49.779 17.807 13.09 44.678 30.76 67.888 29.09 12.024-.61 8.945-6.38 11.746-10.56 6.595-9.83 3.232-39.813 8.935-47.157 29.965 2.053 59.665.865 89.665.491 10.04-.125 19.7-.507 29.719.381 3.851 5.1 15.118 37.525 20.82 45.705 6.491 9.3 12.972 21.33 20.349 30.73 1.489 1.89 11.486 15.42 11.999 16.72 2.845 7.18 3.317 21.95 6.574 29.44 2.155 1.49 3.308 2.04 4.691 4.3l-.637 2.04c-6.643 6.28-27.826 6.31-32.268 10.75-6.538 6.54-14.734 35.71-20.697 42.89-7.447 3.31-14.702 3.33-22.236 6.71-23.343 10.5-47.029 20-69.539 32.26-22.598 12.32-46.462 22.49-67.335 37.67-6.39 4.65-4.182 7.49-6.404 14.39-1.336 4.15-3.535 8.14-4.683 12.41-4.695 18.93-11.44 40.35-13.877 59.66l1.657 1.31c.542 3.14-2.712 3.83-2.904 5.12-6.405 42.79-12.726 84.93-14.224 128.28H0z"/><path fill="#fefefe" d="m142.855 1462-1.069-2.25c.172-.4.353-.79.515-1.18 2.238-5.48 4.1-37.56 4.994-46.07 5.039-47.9 10.897-96.14 22.878-142.87.926-3.61 2.188-12.19 4.734-14.8 6.437-6.62 73.484-40.68 85.903-46.46 16.376-7.63 62.214-25.61 73.363-36.17 9.455-8.95 15.002-36.34 23.077-41.2 11.968-7.2 90.617-12.58 106.709-12.61 14.888-.03 66.113 2.14 79.222 7.16 1.649.63 2.571 1.37 3.676 2.72.175 11.46 7.684 24.2 12.617 34.26-12.757-1.42-26.722-5.04-39.766-5.61-52.431-2.3-107.438-2.14-158.824 9.52-5.646 1.28-15.856 6.28-20.745 8.99.796 1.65 4.947 4.74 6.531 4.84 14.342.88 29.965-3.16 44.525-5.07 38.863-5.09 78.48-5.49 117.609-3.83 15.898.68 32.058 4.38 48.026 4.68 2.799-2.21 5.363-4.97 8.648-4.96 10.503 3.62 20.179 8.85 30.477 12.65 47.616 17.57 95.188 35.31 142.973 52.41 2.13.77 6.814 2.7 7.588 4.89 7.497 21.19 15.742 42.15 23.23 63.33l34.832 97.62c4.402 12.67 15.151 45.94 20.742 57.59l-1.409 2.42z"/><path d="M689.144 1462c-14.658-28.07-16.176-62.82-15.715-93.99.081-5.49.523-12.98 4.699-16.94 6.012-1.33 7.967 1.91 8.642 7.45 3.954 32.46 4.248 65.16 11.963 97.11.561 2.33-1.271 4.86-2.937 6.37zm-430.828-104.49c1.592.05 2.959.03 4.552-.02l1.854 2.01c.646 4.73 1.986 16.59 1.55 21-1.614 16.32 6.713 65.13 3.056 77.84l-2.503 1.86c-.745-.23-1.487-.48-2.226-.73-16.183-5.67-13.174-80.2-11.343-95.11.561-4.57 1.214-5.3 5.06-6.85"/><path fill="#fefefe" d="M1805.12 199.734c6.11 1.974 21.6-1.556 28.7 2.58.85 2.669-.02 9.597-.15 12.716-1.23 28.445-1.22 56.981-1.99 85.437-.5 18.513 1.05 37.046 1.16 55.481.08 13.568-1.98 28.218-.69 42.065.43 5.93-.32 12.836.44 18.655.45 3.506 1.26 8.869 1.97 12.142 1.31 6.121-1.6 6.472-1.19 12.175l.12-.32c.97 29.941.46 60.042 3.48 89.702.4 3.887-1.31 9.184-1.05 13.018 3.45 49.488 4.77 99.265 8.9 148.745 2.34 26.642 5.05 53.251 8.13 79.818.83 6.736 2.05 11.029 3.23 17.396.46 2.323-.53 11.962.2 13.539 4 8.586 2.77 17.083 4.34 24.973 8.03 40.136 13.92 81.649 26.7 120.508.29.367.58.733.86 1.1-.88 2.404-.21 1.26-2.79 3.072-13.73-1.045-48.4.348-56.67-1.166-1.47-5.36 10.25-16.421 12.83-22.433 2.3-5.335.51-3.8.56-9.271.01-.739 2.42-.916 3.24-4.458 1.09-4.683.82-9.801 1.28-13.961 3.87-35.094-27.1-45.006-36.79-71.742-1.35-3.726 2.63-27.581 3.75-33.647 6.67-35.95 8.63-74.636-10.69-107.361-3.96-6.712-15.24-15.382-20.46-23.741-4.62-7.405-7.88-19.08-12.09-24.913-18.54-25.685-56.27-34.726-86.08-38.473-6-.755-16.65-.767-21.04-1.683-11.38-2.375-18.48 1.066-28.85.444-19.9-1.193-46.09 4.042-65.24 8.965-7.73 1.985-23.34 9.467-29.17 12.968-23.14 13.884-27.4 36.775-37.6 59.268-1.86 4.108-8.64 12.068-9.39 15.992-1.2 6.24-6.04 10.484-9.77 16.35-14.75 23.211-29.85 43.578-30.34 72.189-.39 23.082 10.51 27.037 17.87 46.072 0 .011-1.47 12.957-1.3 12.669-5.27 8.93-19.35 23.957-25.29 32.683-5.23 7.684-10.75 16.906-9.78 25.368.1.945.61 2.323.23 3.502-.46 1.438-.01 1.369.95 3.044-4.24 6.713 5.27 19.844 7.96 27.053 2.89 7.732 4.1 6.296-1.41 14.027-.22.314.3 5.564-.46 6.013-2.03 2.196-5.4 4.336-8.47 4.496-17.3-.26-34.92-.436-52.17-.38l-131.22.27c-6.72.014-60.62.462-62.47-1.198 4.77-13.364 8.59-28.593 11.64-42.503 1.78-8.111 3.33-22.569 6.26-29.852 3.82.457 8.32 2.868 11.88 4.35 54.93 22.854 89.15-24.396 106.02-68.029 28.45-73.609 46.44-146.737 56.44-224.517 2.09-16.314 4.91-31.4 1.33-47.305l2.25-1.775-.16-1.45c-3.1-2.724-5.22-4.303-8.55-6.683 5.24-12.932 21.03-33.035 30.95-42.925 18.74-18.696 38.16-36.41 28.38-65.53-6.57-19.581-26.32-39.83-48.25-38.695-20.4 1.3-38.59 18.783-52 32.804-4.54 4.749-15.39 21.095-20.46 22.91 1.38-6.083 2.16-24.838.21-30.08-15.51-41.832-34.37.564-39.11 20.921-3.68 15.832-5.84 23.104-5.29 39.912.36 11.386 10.22 29.464 7.54 36.91-5.74 4.926-13.94-1.466-15.48 6.114-13.15 64.72-28.94 132.896-50.43 195.309l-1.54.699c-5.06-3.022-12.26-11.884-16.54-16.431-21.07-22.386-39.84-46.799-60.35-69.698-2.23-2.49-6.23-5.921-9.1-7.624-30.1-17.87-65.2-29.36-99.87-33.637-5.51-.681-10.21 2.145-14.91-1.596.54-20.008.78-41.684.1-61.737.03.802 25.41-23.424 29.15-38.823 4.25-1.259 8.47-2.541 12.49-4.011 18.67-6.823 32.58-30.121 14.58-46.103-4.93-4.371-8.26-5.223-14.26-7.33a73 73 0 0 0 2.44-3.628c16.92-26.987 15.87-46.515 2.63-69.216.32.547.63-14.613.66-15.887.85-31.229-45.14-51.246-71.554-44.368-5.248 1.426-12.994 6.09-19.612 7.876l-1.862-3.133c-13.657-6.896-29.374-8.359-45.116-5.34-16.762 3.214-35.074 15.819-43.539 31.12-1.219 2.204-3.229 14.001-5.269 15.304-9.47 6.048-20.868 5.241-27.628 16.329-4.946 8.114-7.039 18.646-4.434 28.071 5.418 19.607 17.323 23.042 31.773 31.932l.513 2.408-1.102 1.29c-5.876-.157-6.882 1.453-11.995 3.394-22.959 7.355-25.418 45.051-4.509 54.366 19.911 8.869 17.537 3.646 25.438 24.643 2.476 6.578 24.887 18.006 23.156 26.216-2.964 14.059 1.082 46.487-2.003 57.971-4.016.151-13.81-.048-17.035.793-32.97 8.59-64.978 19.97-96.906 31.798-5.395 1.999-18.404 9.322-23.111 9.253-4.602-4.146-1.516-10.94-6.286-16.17 1.375-3.742-19.662-62.139-22.307-68.64-8.026-19.723-14.394-9.594-20.925-9.024-.268-2.906 9.49-18.77 10.124-22.595.488-4.918.975-10.613.679-15.555-1.11-18.647-4.776-35.154-9.999-53.293-3.095-10.751-14.304-31.186-27.692-16.471-10.143 11.148-2.054 29.129-4.897 38.29-1.564-.22-2.531-.165-3.699-1.581-13.444-16.29-26.768-34.132-44.488-46.017-1.233-1.053-5.365-2.009-6.276-2.881-8.362-8-17.916-8.223-29.38-7.563-30.105 1.731-52.191 36.991-41.2 64.865 8.235 20.885 29.065 29.955 41.832 47.544 5.081 6.999 10.423 14.056 14.733 21.623 3.591 6.78 4.535 9.751 9.336 16.142.412 5.78-11.763 7.788-6.951 23.464 6.142 20.007 11.705 40.892 17.656 61.012.909 3.073 2.579 5.268 3.544 8.254 17.672 59.344 37.584 120.406 63.463 176.674 5.512 11.984 13.784 28.679 21.415 39.306a71.6 71.6 0 0 0 22.99 20.301c16.42 9.047 35.567 9.462 53.298 4.322-2.146 9.831-6.065 44.305-6.323 55.754-.026 1.192 1.151.594.283 3.928-9.505.93-15.414.209-24.689-.712-5.327.368-9.275.621-14.662.397-39.269-1.629-79.042.535-118.402.045-7.84-.097-17.839 3.106-25.413.249-.243-3.994 5.007-13.869 6.221-18.477 7.05-26.749 14.219-54.149 17.424-81.684 1.852-15.918 1.929-32.435 3.467-48.464a69 69 0 0 0-3.185.239l3.13-3.536c.827-5.952-1.243-13.868-1.636-19.934-1.179-18.229-5.998-34.749-9.535-52.472-.767-3.843-3.989-6.305-5.456-9.547-8.315-18.373-24.195-28.33-41.649-36.949-44.883-17.665-95.096-22.095-142.986-20.386-14.759.526-25.72 1.59-40.204 4.594-28.302 5.869-56.367 17.709-74.953 40.769-3.573 4.433-8.409 9.724-11.453 14.691-23.053 57.502-16.399 122.765-10.665 182.921 1.014 10.639 11.896 49.713 11.547 54.92-11.871 6.344-94.916-.519-105.338 4.867l-2.6-1.125c-1.736.26-2.909.692-4.509 1.406-3.163-4.573 2.477-54.923 3.011-64.373 2.145-37.995 3.173-76.531 4.866-114.523l2.284-63.623c.184-5.979-.049-11.012-.144-16.919-.046-2.873 1.491-7.502 1.537-11.191l.297-52.096c.022-5.264-.524-10.404-.537-15.643-.006-2.278 1.883-7.028 1.781-8.877-.637-11.628-.721-23.552-.735-35.195l.04-94.136L206.18 384c-.162-14.268.52-27.734.112-42.402l-3.003-91.061c-.35-10.514-1.522-21.443-1.429-32.292.098-11.419 26.5 1.221 34.105-3.858 4.472-2.986 14.896 1.066 20.966.217 21.081-2.95 42.858-2.111 64.155-2.562l95.78-2.175L742.93 205.4l791.47-4.184 181.83-.404c25.57-.037 64.78 2.413 88.89-1.078"/><path d="M1076.12 526.215c21.13-1.211 39.22 16.118 16.45 30.945 5.14 4.684 19.41 22.162 7.38 25.977-6.22-1.82-8.08-6.937-11.58-12.724-2.62-4.355-6.06-7.561-9.6-11.205.13 7.212 1.28 18.148-3.92 23.699l-2.08-.009c-8.78-7.823-7.65-39.446-4.82-50.76.96-3.832 4.88-4.676 8.17-5.923"/><path fill="#fefefe" d="M1077.6 535.775c5.71-.017 11.07.508 13.72 6.144.28 3.443-.13 3.771-1.76 6.998-3.4 1.142-6.27 2.657-9.46 1.591-2.35-3.371-2.09-9.976-2.5-14.733"/><path d="M1040.34 527.06c4.89-.182 16.49 1.831 16.28 8.058-4.37 5.125-7.6 2.195-12.84 2.698-14.06 1.347-21.79 34.808-3.3 35.473 6.54.236 11.04-2.244 16.54 2.492-4.53 8.477-9.85 7.598-18.65 8.797-1.21-.408-2.4-.829-3.59-1.265-28.75-10.565-19.78-46.1 5.56-56.253m112.4-.759c5.65-.331 11.83-.381 14.04 6.043-3.59 4.647-14.39 1.95-16.35 9.843 3.63 10.663 42.53 25.976 3.2 41.3-4.06.736-12.07 1.161-12.62-4.343 4.02-5.033 11.15-5.915 16.2-11.195-.2-9.785-39.66-27.39-4.47-41.648m67.43-1.516c4.25 1.219 6.31 3.411 7.85 7.511-2.04 6.546-8.71 1.869-13.94 6.011-.52 10.147 39.68 32.557.16 46.005-4.49.43-7.28.762-10.75-2.015.04-6.078 10.1-8.333 15.62-14.771-.83-12.033-40.44-24.813 1.06-42.741m-33.77 1.698c8.87 4.83 8.63 48.715 3.02 57.724-3.08-.071-2.93-.011-5.45-1.773-5.88-8.649-5.01-47.391 2.43-55.951m-64.16.12c8.3 7.418 5.36 32.435 5.97 42.965.38 6.498-.41 11.416-5.3 15.963-2.44-1.51-4.66-3.25-5.16-6.199-2.44-14.383-2.92-40.323 4.49-52.729"/><path fill="#fefefe" d="M717.453 556.49c8.695 5.175 53.07 177.206 68.841 190.108l.978-1.282.013.032c.817-.263 1.761-.511 2.549-.872 10.759-4.928-25.424-88.966-22.493-96.415.727-.296 3.447-1.383 3.932-1.725 4.739-3.255 11.492-3.397 17.224-5.64 36.495-14.283 71.957-24.398 109.546-34.716 3.744 3.291 27.281 89.315 32.862 98.915 3.173 5.457 3.241 19.915 12.579 20.391 2.124-1.034 1.985-.937 3.189-2.978-.017-29.291-17.121-55.38-22.05-84.423-.379-2.235-3.684-8.884-4.786-11.752l.752-1.045c7.939-1.34 23.5 1.501 32.463 1.3 12.405-.278 24.693-1.136 37.059-1.934.749 2.328-1.784 8.527-2.348 11.932-4.477 27.025-14.305 53.224-14.615 80.964-.008 1.286-1.461 3.03-2.576 3.404-48.686 16.353-69.587 51.207-70.992 101.644-.815 29.279-1.545 56.863 3.501 86.246 2.177 12.678 4.886 24.759 7.844 37.276 4.751 29.973 16.757 56.45 30.64 83.04 1.05 2.01-1.283 13.1-1.903 16.29-.998 8.27-7.317 42.97-9.412 50.28-29.533 2.1-60.826-.61-90.681 1.58-8.514.62-47.771 5.06-51.683 2.77-.182-6.24 2.582-19.03 3.536-25.96l6.64-51.21c.721-5.22 2.807-15.94 1.729-20.52l1.606-1.58c-.431-8.891 2.667-20.449 2.826-26.862.773-31.215 27.485-194.585 18.023-213.292-2.969-1.459-3.109-1.634-6.298-1.383-7.864 7.751-8.49 30.591-9.708 41.375l-6.011 52.03c-1.276 11.341.326 22.926-9.717 27.969-10.975 5.511-26.058 4.786-36.841-.279-31.225-14.956-43.074-58.902-55.61-88.409-14.338-33.746-24.162-68.071-36.982-102.242-6.723-17.92-10.672-36.476-17.964-54.37-5.333-13.086-7.385-29.427-13.179-42.48-2.5-5.746-4.555-10.124-6.641-16.198 1.635-1.095 4.979 1.532 7.196 2.169 18.785 5.389 78.812-2.782 86.962-22.148"/><path d="m875.865 613.332 2.328 1.381-.202.834c-2.758 10.893-5.239 13.148-12.141 21.928 12.631 4.946 26.556 8.068 38.884 13.871 3.94 1.855 6.351 3.543 5.417 7.999-4.916 5.906-31.278 14.9-39.5 17.258 9.478 5.808 51.377 29.096 49.205 41.129-1.375 1.226-2.53 2.453-3.803 3.773a1155 1155 0 0 0-35.627-25.506c-6.109-4.224-25.965-15.315-25.585-22.457 6.096-5.555 29.963-11.678 35.733-14.536-2.606-5.185-31.423-9.384-38.862-16.019l-.114-2.208c1.929-4.265 20.212-23.921 24.267-27.447"/><path fill="#fefefe" d="M108.603 143.805c23.546 17.076 45.06 42.503 70.192 58.509 1.456.927 11.012 10.462 10.687 11.694-3.61 13.708-1.572 26.683-.777 40.585.322 5.399-1.219 11.614-.921 17.025 2.788 50.474 2.299 101.292 2.653 151.845 0 .002 2.202 2.017 2.202 2.018-.955 3.121-2.774 11.982-2.598 14.637l1.86-.238.959.89c-.691 4.531-2.683 16.523-2.535 20.553.257 7.015 1.641 14.327 1.859 21.855l-2.004 1.098.274 1.42 3.374.831c-.483.657-3.134 4.957-3.119 5.274.638 13.31-1.343 27.341.922 40.427-.052 3.488-.799 7.074-.745 10.559.16 10.348-.068 20.078-1.173 30.371l1.865 1.262c1.206 4.679-1.529 9.925-1.55 15.638q.087 25.921-.507 51.837c-.653 20.012-2.778 40.015-.056 60.41l-2.153 1.017c1.587 18.779-2.499 64.707-1.246 85.819-.003-.046-2.056 3.421-2.334 3.875 3.757 14.222-2.815 27.374 1.898 34.791-4.611 12.556-2.739 20.77-3.586 34.678l-5.671 90.276c-.551 8.785-1.808 37.634-3.47 44.257-.298 3.712-.913 26.352-.754 26.112-4.554 6.93-52.649-22.24-56.365-25.518-11.187-9.51-32.308-29.176-39.234-41.31-.995-1.743 4.457-18.949 4.724-22.824 3.692-53.609 11.167-107.405 11.96-161.116.032-2.189 2.762-8.302 2.57-9.951-3.124-26.694 7.611-60.107 2.756-85.784 4.07-7.58 2.041-13.603 2.361-22.009l2.389-51.822c.517-12.297 2.145-26.475 2.697-39.796a4264 4264 0 0 0 4.008-155.454c.774-45.367 1.897-90.892 1.247-136.262-.212-14.761-3.301-125.377-2.659-127.479m1810.937-11.016c2.33 3.581 1.88 1.94 1.72 6.176l-.34-.776c-.68 8.732-1.99 17.384-2.21 26.15-.26 10.295.55 20.601.24 30.871-.2 6.995-3.44 13.902-.94 20.738 2.5 6.844-2.99 49.627-1.03 54.87 2.8 7.47-.15 10.072-.11 17.45.04 6.438.94 12.789.75 19.302-.11 3.753-1.33 10.408-.53 13.872.21.908 2.28 2.146 2.48 3.052.67 2.962-2.88 9.023-2.82 12.709.43 24.525 1.59 49.125 1.93 73.671.07 5.454-1.47 21.025-.28 25.278.37 1.316 1.96 2.676 2.26 3.982 1.14 5.094-2.15 18.466-1.17 25.6l1.78 1.284c-1.26 19.93 2.05 51.9 3.49 72.621 2.77 39.565 7.61 80.484 9.77 120.054l2.05.68c-.58 27.843 6.82 61.014 10.82 89.042 3.91 16.696 3.99 36.192 7.61 52.66 7.93 36.143 14.05 72.962 23.09 108.825 2.09 8.312 7.27 17.69 8.13 25.81-4.94 16.757-41.89 46.047-55.31 57.888l-.19 1.486c-2.97 1.778-12.36 8.606-13.82 8.776 1.46 2.14-6.38-27.65-6.9-29.468-30.01-103.933-41.64-204.427-49.66-311.757a4071 4071 0 0 1-10.6-220.314c-.07-4.013 1.22-8.755 1.13-12.349-1.5-57.223-2.04-114.914-.94-172.151.46-23.734-1.6-51.173.89-74.098 22.06-16.306 46.79-36.706 68.71-51.934M766.117 119.558c2.211-.132 2.074-.017 4.231.045 41.966 1.205 84.573-.862 126.662.398l1.8 1.511c-.396 3.272.409 5.566 1.156 8.787-2.749 6.688-4.159 35.283-1.075 42.98 2.791 6.969 2.997 10.145 9.88 13.715l1.037.525-.282 1.145a1271 1271 0 0 0-41.652-.058c-6.28.136-15.182 2.071-19.982-.965-18.202 2.24-55.327 1.456-74.922 1.639l-153.609 1.044c-16.219.143-35.111-1.306-50.639 1.747-.601.118-8.535-1.796-12.771-1.455-27.191 2.188-55.09.36-82.198.885-11.053.215-21.839.817-33.088.967l-84.496 1.67q-22.962.546-45.913 1.473c-5.405.179-10.41-.671-15.147.451-13.238.533-91.783 5.775-98.42.699-4.139-3.165-7.183-8.181-11.24-11.692a924 924 0 0 0-48.415-39.145c-3.323-2.517-13.602-9.46-14.118-12.8 8.008-3.08 51.052-1.557 62.079-2.626 13.448-1.305 32.764-.736 46.772-1.378 29.736-1.064 59.209-1.94 88.932-3.746 10.897-.662 21.326 1.612 33.094-1.616 1.683-.461 18.87 1.273 23.316 1.135 17.135-.529 34.274-.916 51.414-1.701 24.571.8 48.106-.569 72.487.269 4.243.146 10.047-1.73 13.359-1.685 19.665.268 39.882.707 59.506.506 30.151-.309 60.743-1.893 90.875-.447 4.971.037 10.031-1.553 14.991-1.389 10.901.361 80.522 2.423 86.376-.888m381.113-.87c5.8 1.522 65.06.666 76.25.65l162.37.497c17.6-.039 35.17.396 52.77.64 154.32 2.131 309.82-.665 464 4.709-20.11 20.013-50.42 35.68-70.78 55.882-2.02 2.001-2.42 4.084-6.11 2.752-5.44 1.457-34.24.29-41.46.261l-68.93.294-390.98 1.663c-12.75-.013-84.91-1.325-89.45.201-6.07 2.04-12.5.543-18.81.194-24.9-1.374-50.61.091-75.6.391-9.58.115-20.19 1.167-29.63-.255-.1-.512 7.5-15.099 7.55-19.823.16-14.051 2.25-30.462-1.86-44.06-.67-2.202-.74-.53-.1-2.854 3.28 1.046 26.16-.735 30.77-1.142m-98.93 492.427.67-.799c12.87 1.985 61.07 20.384 69.58 30.071 27.53 31.335 52.67 65.508 83.84 93.795 7.12 6.428-.3 18.669 1.75 23.984 2.43 1.784 2.34 1.638 5.43 1.75 2.82-1.78 5.46-4.969 6.58-8.152 14.76-41.939 26.62-84.921 37.95-127.907 1.32-5.001 1.56-9.478 2.29-14.489.16-.983 3.09-4.637 3.6-7.864 3.14-19.823 6.91-40.579 12.33-59.892 1.43-5.123-1.55-6.009.53-10.331 5.17 2.093 14.81 8.168 21.44 11.416 20.46 10.038 51.63 17.318 74.25 14.774.61 1.613.84 1.321.65 2.934-4.87 42.39-11.56 84.101-21.32 125.669-.67 2.849-3.26 7.093-3.54 10.424-12.43 52.75-27.12 107.329-54 154.708-4.52 7.962-13.17 16.448-20.82 21.82-15.59 10.965-36.41 12.515-53.37 3.693-3.35-1.739-8.72-1.383-9.96-5.747-1.24-5.86 1.65-13.278 1.81-20.052.99-43.556.05-92.981-43.52-116.241-42.57-22.73-83.19-25.273-130.27-24.566-14.51.218-31.24 2.58-45.55 5.363-1.713.333-1.967-.849-2.42-1.87 2.09-11.564 20.96-102.929 23.91-108.446 6.36-2.32 20.13.066 26.22 2.669 2.17 3.013 3.21 4.479 5.84 7.083 3.78 3.592 13.28 11.172 12.94 16.444-1.79 1.381-2.01 1.562-4.03 2.553-3.7-.016-39.8 12.496-44.63 14.852-2.17 1.055-2 1.811-2.49 3.57 3.9 6.109 36.57 11.853 45.9 15.536-8.68 6.301-41.88 26.77-46.11 33.307l5.54 3.084c6.1-1.929 45.94-25.619 52.2-31.794 2.71-2.668 3.59-4.43 3.38-8.097-3.3-3.97-22.61-9.173-28.23-9.451-.39-.019-7.86-3.119-8.97-3.583 8.39-3.827 37.8-8.635 42.14-13.32.33-3.815.84-2.854-.99-5.128-2.5-5.975-15.43-17.021-20.55-21.77M683.712 971.532l60.447-.007c12.403-.07 29.882-.746 41.721.091l.844 1.042c-.356 16.616-4.831 33.212-4.926 49.982-.02 3.48.18 5.91-1.397 9.09-2.023 4.07-8.759 72.75-7.996 79.8 6.136 7.15 14.851.02 18.439 6.06-3.065 21.72-4.718 43.95-7.221 65.79-1.251 10.92 1.205 19.66-4.969 30.95-1.837 1.17-20.074 12.79-21.181 12.35-11.978-4.77-63.168-28.68-73.202-28.49-29.713-13.09-58.434-21.64-88.666-33.33-6.906-2.67-12.503-1.93-18.742-4.47-7.07-6.46-13.153-33.01-17.099-43.33-9.04-8.8-19.216-6.88-27.118-9.5 3.76-10.04 7.355-22.75 11.244-32.36 4.77-7.24 12.158-14.93 17.106-21.89 12.2-17.15 20.631-36.34 30.272-54.971 2.73-6.072 5.14-24.74 13.5-25.314 25.757-1.767 53.24.419 78.944-1.493m273.834-589.878c3.762.409 5.499 6.83 8.261 10.924 3.876 5.747 15.46 20.031 20.877 23.718 3.547 2.414 11.607 5.751 16.526 8.992l-.27 1.065c-11.116 1.009-19.093-3.668-30.789-2.83l-1.326.104-6.964 7.89c1.032.583 3.959 2.222 4.886 2.539 7.814 2.675 47.463 10.207 50.893 2.223-2.42-5.513-11.09-6.61-13.48-9.833 5.48.377 15.5-1.063 20.22 1.628 6.67 3.815-3.23 16.774.65 23.764 1.21 2.184-1.38 12.909-1.71 16.593-.81 9.104-.98 16.125-3.4 24.892-2.8 10.117-24.452 23.408-25.089 28.723-2.256 18.817-.562 42.167-1.435 61.464-.157 3.474.563 10.07-.344 12.565-.316 3.616.706 8.711.052 11.009-3.13.277-2.645.228-6.53 1.017-17.896 3.638-39.365.228-57.632 1.409-2.469.159-12.018-.688-14.554-.886-1.598-.125-2.867-2.419-2.867-2.381-.322-24.908 2.169-54.115 2.132-78.831-.02-13.064-20.274-15.574-26.093-26.369-4.298-7.974-7.894-76.643-6.939-79.165l2.366.897c35.127-4.541 48.735-15.892 72.559-41.121"/><path d="M952.902 431.928c3.221-.086 3.571.015 6.741.771 5.102 5.532 1.239 37.313 4.102 45.43 1.548 4.388 15.81 5.338 19.534 14.768-.087 3.074-.554 4.149-2.729 6.373-8.589 8.781-15.932 7.984-26.797 8.534-9.847.324-26.436-4.946-24.879-17.099 3.897-6.504 11.485-7.215 17.946-10.355.852-.414 3.452-1.826 3.406-2.68-.589-10.937-1.333-35.947 2.676-45.742m-28.12-10.447c9.001-.904 22.73-.775 21.944 11.685-3.675 3.519-17.499.167-24.884 1.999-8.25-.685-21.189 1.354-27.758-5.628l.084-2.057c6.698-6.157 21.803-5.758 30.614-5.999m1.059 22.895a6.848 6.848 0 1 1 3.754 13.17 6.848 6.848 0 0 1-3.754-13.17m63.685 3.35c4.986 1.246 7.688 1.487 9.337 6.642-.852 3.553-1.829 3.983-4.665 6.611-5.484-1.144-7.769-1.899-9.082-7.38.969-3.411 1.487-3.529 4.41-5.873"/><path fill="#fefefe" d="M1031.02 118.742c6 2.429 56.36-.022 66.77.424 7.17 5.496 2 14.717 2.11 20.191.1 5.236 3.3 35.432-4.09 36.127-21.09 1.984-61.69.352-83.94-.071-10.03-.19-23.423-1.412-28.074.184-13.173-2.91-60.206 2.582-69.235-4.913.418-2.383-1.22-5.889-1.729-8.261-2.078-9.678 1.648-30.214 2.722-41.44 8.728-3.009 95.446-.777 112.146-1.064 2.38-.041.38.899 3.32-1.177m-80.749 992.868c2.653 1.32 8.205-.73 12.778 1.03-2.062 4.5-9.446 10.76-12.387 15.48-2.222 3.57-3.498 9.64-4.538 13.85-.463 1.87-2.694 8.55-4.195 8.94-13.566 3.54-26.778 8-40.34 11.52-31.355 11.17-70.572 24.41-99.307 40.81l-3.129-.03c-1.684-3.82-.923-3.63-.417-7.76 3.235-26.37 4.269-54.1 6.89-80.48 4.505-.95 8.596-1.1 13.2-1.24 36.355-1.05 72.76-1.71 109.132-1.66 7.465.01 14.879.12 22.313-.46M584.924 428.072c19.129 15.467 37.515 29.892 54.907 47.418 1.98 1.995 5.386 3.513 8.196 3.779 12.145-13.772-40.755-46.181-47.679-53.395l.848-1.057c16.564-.044 42.987 31.928 55.622 42.151 3.34 6.516 20.306 21.724 22.249 25.707-2.846 5.512-11.574 12.048-15.336 17.324-2.188 1.814-.926 6.198-.541 5.716-2.428 3.037-2.89 8.126 3.258 11.474-.552.302 24.81-32.443 25.456-33.646 5.075-9.455-2.664-38.24 3.092-47.852l1.414.462c4.402 7.174 12.835 47.601 12.87 56.994.016 4.234-11.493 26.775-13.941 34.222 1.006 4.008 4.435 4.51 7.693 9.297-3.735 8.613-50.782 21.592-61.064 18.257-2.677-2.64-5.271-7.563-6.808-10.932-11.06-24.24-27.895-44.694-48.203-61.814-6.865-5.787-14.731-12.048-17.204-21.342l.916-1.015c11.763 3.706 33.19 31.372 44.344 25.017l.466-2.037c-5.727-15.941-36.448-26.79-45.226-38.602-.061-4.245.231-5.003 1.515-9.084 11.808 6.167 15.828 9.895 26.096 17.177 8.321 5.902 21.784 22.13 29.683 23.234l1.786-.75.277-2.028 2.211-1.571c-.104-10.818-24.204-25.536-32.219-31.797-4.735-3.699-19.59-9.804-22.207-13.374 1.266-4.326 3.49-5.216 7.529-7.933m796.506-19.165 3.49.2.33.93c-8.45 7.819-36.28 32.738-40.48 41.166-.08 3.165-.55 2.454.99 4.463 11.52 3.46 49.42-42.625 57.66-42.299l1.49 2.071c-1.15 5.89-41.03 38.908-46.07 47.009-1.66 2.676-1.22 3.183-.55 5.812 12.4 7.233 49.35-47.479 59.25-39.908-2.94 10.702-45.99 40.378-42.23 51.301 10.09 6.504 40.8-29.353 48.92-37.684-5.45 21.618-10.09 26.406-26.25 41.501-19.48 19.063-29.78 34.664-44.4 57.991-19.15-.618-48.32-6.746-64.77-16.388-3.81-6.283 3.61-9.718 3.38-15.169-.42-10.032-6.82-20.403-8.53-30.227-3.43-19.632 7.24-38.712 10.29-57.022l.16-.971c1.45-1.636 1.93-2.538 4.04-3.062 5.34 6.402-1.55 41.022-.5 49.827.41 3.459 13.26 11.821 17.1 19.132 6.44 12.233.7 11.092 3.47 18.276 2.63 2.756 1.36 2.195 4.76 2.745 8.28-2.821 10.1-12.028 8.49-19.853-2.02-9.864-8.08-15.046-16.01-20.565 22.44-23.191 38.45-42.032 65.97-59.276M454.237 1068.86c5.707 1.67 60.693-2.36 70.692 2.13 4.101 1.84-4.606 14.8-2.613 19.47 1.008 2.37-2.951 12.28-4.116 15.34-11.805-1.37-19.194-2.53-31.202-2.86-8.412-.23-33.622.35-40.326-1.02-6.734 2.1-17.395 1.82-24.859 2.54-12.498 1.21-25.416 2.14-37.53 5.39-.955-2.49.346-2.69 1.576-6.06 3.076-8.4-5.397-23.88-3.245-32.4 17.505-2.53 51.157.05 71.623-2.53m602.913-3.22c1.56.57 16.03.06 19.13.08 13.63.19 27.26 1.06 40.81 2.61-3.73 8.01-9.59 31.27-15.5 34.7l-.93-1.77c-4.92.06-12.88-.86-17.81-2.04-10.85-2.59-31.13.6-40.47-1.67l-.84-.03-.92.65c-10.27-.87-33.96 3.11-44.364 4.96-1.077-1.7-2.784-8.34-2.819-10.32-.122-6.81-8.291-17.44-5.401-23.47 18.844-2.18 54.574.04 69.114-3.7m-16.97 73.91c5.76.91 25.58-.59 34.04.16 21.11 1.89 47.13 5.32 67.45 11.77 3.36 1.07 4 5.12 5.28 8.51-3.61 1.26-14.13-2.3-17.83-1.8-4.29.71-7.56-1.99-11.96-2.66-17.76-2.7-39.75-2.17-57.04-4.5l-1.25.67c-23.8-2.6-53.03 3.38-76.847 5.35-6.848.57-23.312 6.46-27.843 1.36.275-2.97 4.892-8.98 7.078-9.39 26.582-5.07 51.832-8.58 78.922-9.47m-85.779-87.82c6.111 9.18 25.809 35.79 25.251 46.1-4.296 1.45-10.632-3.86-16.09-.34-3.05-2.15-12.366-.1-18.076-1.11-.128-2.29-.503-4.5.605-6.4 4.866-8.32 3.244-31.65 8.31-38.25m188.069 5.93c1.2 4.07 1.53 43.38-.34 46-6.04.79-13.56 2.47-19.28 1.56l-1.88-.28c-.91-5.77 17.06-40.47 21.5-47.28M868.579 437.266c-1.64 11.671 1.293 26.781.215 38.945-2.869.264-5.216-1.749-7.776-3.349l-6.072-5.111c-5.967-18.496-1.66-21.958 13.633-30.485m172.881 5.266c5.09.832 9.57 2.294 13.16 6.246a12.18 12.18 0 0 1 3.18 8.891c-.48 8.179-4.95 11.791-10.53 16.667-3.75 1.666-4.08 2.539-7.73 2.021-.86-4.21 2.23-25.677 1.98-32.592z"/></svg>