<svg xmlns="http://www.w3.org/2000/svg" preserveAspectRatio="xMidYMid meet" viewBox="0 0 2048 1152"><path d="M0 0h2048v1152H0z"/><path fill="#fefefe" d="M0 0h2048v1152h-108.71c37.14-32.33 47.48-53.7 58.54-102.99 15.31-68.272 2.9-142.271-20.04-207.459-29.3-83.237-81.68-159.257-128.08-233.972a4206 4206 0 0 0-33.29-52.444c-2.91-4.554-17.48-26.492-18.29-30.155-17.11-77.817-31.42-156.406-69.49-227.563-29.65-55.432-76.3-105.273-140.01-118.796a242 242 0 0 0-26.16-42.997c-69.3-90.06-215.69-101.631-304.51-35.311-39.83 29.743-40.32 64.25-45.78 108.866-19.66 8.705-49.22 18.616-42.39 47.336a28.4 28.4 0 0 0 13.19 17.903c12.65 7.467 27.57 3.836 40.74.495 19.28 49.483 39.78 97.279 69.82 141.319a254.5 254.5 0 0 0-56.9 82.969c-7.83-19.424-17.42-53.281-24.05-73.997l-46.52-145.761c-6.49-20.412-13.44-45.231-21.27-65.257-.95-2.429-3.38-3.716-5.88-4.396-7.45 1.105-25.6 6.867-33.09 9.091-12.76 3.791-35.29 9.196-46.28 12.691-36.98 11.756-208.883 52.397-232.802 71.522-1.528 14.202 59.56 211.871 68.372 242.427-14.362 9.217-13.718 21.527-9.75 36.382-24.637-1.617-51.613-2.245-76.351-3.144-3.298-43.554-7.88-80.993-12.993-131.198-2.643-25.964-9.923-126.395-21.677-150.956-1.826-3.815-42.097-2.673-53.784-2.756-.734-7.228-.41-17.288-.367-24.785 16.957.127 46.434-6.812 57.548-18.576 22.381-23.691-11.127-30.06-29.966-18.537-15.696 9.601-16.684 11.278-27.77 25.001-.052-9.5-.219-18.386.664-27.878 17.174.085 40.51-1.732 54.467-12.389 13.102-10.933 1.452-21.594-11.73-21.272-17.475.426-29.499 6.296-41.813 18.125 2.75-6.802 4.085-12.519 3.93-20.475.503-10.048-8.545-30.108-20.989-28.412-14.914 2.032-10.276 28.715-9.117 37.233-8.109-5.772-17.792-11.09-27.76-12.417-17.135-2.248-22.401 11.964-10.342 23.485 13.82 13.204 33.06 15.196 51.154 15.218 1.302 7.858 1.433 13.448 1.708 21.421-12.348-11.744-37.453-30.861-56.878-22.374-2.036.89-3.703 3.143-4.243 5.355.321 4.48 2.746 8.666 5.217 12.324 15.57 23.048 47.707 18.505 53.675 27.49 3.192 4.805 2.415 12.75 1.123 18.073-5.099 5.379-23.092 2.91-31.215 2.827l-66.256-.633c-10.273-.096-27.758-.804-37.53.473-1.116-9.378-1.041-18.79-.93-28.211 15.774-14.699 42.812-19.27 57.703-39.449 8.632-11.697 12.723-30.19-9.043-25.228-23.235 5.297-38.924 28.246-50.838 47.759.267-19.772-.453-55.417-2.039-74.468 31.095-3.122 73.724-7.588 88.947-40.48 2.597-5.612-1.113-12.299-7.338-13.404-23.453-4.164-47.105 8.432-64.598 23.037-4.735 3.899-11.296 11.598-15.79 14.345l-1.151-.963c1.487-6.788 18.784-19.852 24.598-27.872 8.96-12.359 27.054-37.861 10.826-51.183-3.037-2.493-9.559-.805-13.136.277-14.941 4.521-22.46 14.408-29.52 27.447-8.334-10.955-19.675-25.91-33.582-28.935-19.712-4.288-18.286 12.724-15.524 25.401 5.89 27.04 27.873 39.144 43.204 60.226-11.864-9.532-28.621-21.23-43.447-24.638-10.035-2.049-25.055-4.059-34.329 1.227-7.846 4.472-4.804 14.493-.15 20.317 12.645 15.825 33.565 21.57 53.126 19.6 7.062-.712 16.148-3.88 23.01-2.981 6.399 5.391 5.434 47.226 7.371 60.338-8.426-18.953-17.631-30.127-37.308-38.105-12.148-4.925-13.051-5.555-25.459-1.471-2.169-7.029-4.399-7.409-10.953-11.651-16.851.891-23.849 5.194-36.523 14.81-7.806-14.768-9.47-19.444-26.176-23.461-11.162 6.577-11.63 12.672-11.916 24.652-11.944-4.448-43.314-11.954-30.419 11.964 10.142 18.814 34.573 21.389 51.942 25.519q.598 11.028 1.36 22.045c-9.304-11.293-24.934-24.278-39.082-27.939-3.866-1.482-19.475-3.35-22.644-.209-15.645 15.506 22.888 35.915 32.541 37.661 11.332 2.049 17.1 2.686 25.498 4.05 4.22 3.797 4.568 12.719 5.339 18.448-18.94-1.457-94.34-7.025-96.801 25.171-.289 3.775 1.846 19.884 2.238 24.794l4.154 54.884 14.194 179.96q-74.672-.865-149.347-.895c-.059-16.914-1.452-37.922-2.699-54.885 34.563-3.13 96.731-28.376 107.585-69.802 2.593-9.895-29.741-8.932-35.649-7.978-34.692 5.604-54.011 31.359-73.208 57.957-.012-18.922-1.543-38.214-2.018-57.166-.46-18.314 4.093-12.15 17.98-14.879 15.278-3.003 31.79-6.882 45.985-13.257a101 101 0 0 0 32.264-22.9c25.559-27.177 17.483-41.705-18.837-36.332-36.246 5.362-58.045 30.543-78.43 58.046-.292-5.745-4.048-61.321-.692-62.967 8.767-4.3 31.155-5.278 42.722-9.016 20.094-6.494 38.372-14.015 52.915-30.001 5.541-6.157 20.04-22.751 9.479-29.734-8.202-5.423-28.15-5.069-37.453-3.191-34.098 6.883-51.622 31.673-69.797 58.815-.247-6.214-.152-13.226-.19-19.504 11.746-20.068 30.218-26.389 41.152-50.594 9.552-21.145 18.554-76.948-23.252-48.34-23.354 15.982-32.694 45.586-36.652 72.975-2.702-.888-12.405-2.065-11.801-1.672-3.791-2.47-10.246-7.174-14.125-10.085-12.808-9.611-30.301-17.502-46.274-19.19-2.329-.246-6.038.9-7.64 2.661-2.352 2.584-3.322 6.966-3.038 10.45 2.601 31.855 31.444 55.504 58.908 67.196 5.977 2.544 26.399 8.894 28.047 11.876 5.176 9.366 4.566 51.428 4.718 62.257-25.598-36.838-51.976-76.473-103.103-76.321-8.193.025-10.68 10.05-8.681 16.721 9.518 31.769 38.85 52.545 69.084 62.647 11.894 4.076 32.11 7.964 42.187 14.483l.963.633c1.079 13.165 3.132 55.243 1.957 67.503-23.456-30.966-52.485-61.951-91.988-69.037-22-4.439-23.66 10.567-15.05 26.786 18.178 34.237 54.575 47.699 89.891 57.41 6.273 1.725 12.129 2.802 18.426 4.718.131 18.064 1.572 37.719 2.728 55.745-26.125 29.333-129.44 147.335-135.458 175.047 26.24 60.314 61.762 127.637 91.372 186.965l25.932 51.861c4.095 8.127 11.786 24.234 17.023 30.854 7.522 3.34 179.555-3.73 204.288-4.2 35.552-.67 71.22-1.44 106.781-1.03 40.425.47 80.838 2.2 121.254 2.97l353.349 6.54c44.842.51 109.692 3.09 156.042.61 6-.32 23.45-42.587 28.6-52.225 36.4 41.445 73.09 82.625 110.06 123.555 10.22 11.34 40.49 46.33 50.87 53.51H0z"/><path fill="#fefefe" d="M1595.1 195.382c14.11 3.148 31.66 12.054 43.61 20.087 85.71 57.592 118.02 182.287 137.42 278.331-30.69-44.527-59.25-91.31-90.64-135.527-3.44-4.85-8.65-13.512-15.02-13.91-4.29 1.342-2.74.384-5.86 3.665-.59 2.35-1.48 4.633.15 6.938 17.62 24.991 35.01 50.414 52.07 75.813a7843 7843 0 0 1 141.94 219.786c12.55 20.493 36.19 56.018 46.65 76.384-17.49 4.014-34.53 8.879-52.27 12.301-131.12 25.289-265.73 37.09-396.73 61.763-21.75-23.818-51.48-71.643-68.31-98.57a3266 3266 0 0 0 15.08-79.071c2.39-12.708 4.9-29.271 9.27-41.551 4.07-11.434 32.26-36.365 34.43-44.619-7.07-13.964-21.66 5.364-27.38 11.371 1.16-3.921 2.49-7.719 3.82-11.575 2.22-6.463 18.44-33.936-.06-30.431-6.37 4.289-9.37 15.154-12.33 22.722-13.83 33.597-21.44 87.102-28.3 123.731-9 48.54-18.73 96.942-29.19 145.19-9.18 42.617-14.73 86.038-49.89 115.553a112.96 112.96 0 0 1-83.82 26.637c-77.11-6.948-151.97-112.407-199.17-168.763 31.88-28.907 61.47-61.642 94.34-90.685 20.95 12.869 53.88 35.67 74.43 46.425-3.38 21.313-6.77 43.026-9.66 64.418-.52 3.827-.65 7.292 1.85 10.368 2.75 1.893 3.11 2.027 6.43 1.802 2.47-1.535 3.93-2.501 4.64-5.853 3.82-17.986 5.58-37.313 8.55-55.521a8334 8334 0 0 0 14.45-87.42c4.28-28.057 8.93-63.179 14.77-90.676a303 303 0 0 1 21.37-65.197c29.4-62.627 85.76-114.477 153.68-131.832 29.91-7.642 35.46-5.778 64.62-1.6 22.82 3.155 46.07.718 67.74-7.101 75.43-27.459 81.72-96.097 57.32-163.383M81.67 759.007c33.634-.585 69.142 1.492 103.01 2.217 20.913.539 41.834.784 62.754.735 33.399-.301 66.601-.287 100.007.983 35.254 1.34 70.207-1.827 105.145-1.694l546.897 7.051c9.597 10.333 21.947 26.524 31.157 37.753a2859 2859 0 0 0 49.53 58.304 381 381 0 0 0 23.64 24.84c9.8 9.51 20.42 18.097 26.57 30.526 7.64 15.431 16.75 29.656 26.33 43.915-6.69 11.849-16.32 34.176-22.36 47.033l-.67 1.14c-2.04 1.22-29.83.89-33.93.88-83.37-.21-166.979-.92-250.334-2.61-47.762-2.01-95.572-3.35-143.347-4.95-26.696-.89-54.143.71-80.648-.72-96.456-5.218-191.672-1.02-287.974.76-25.362.31-50.72.83-76.073 1.57-21.917.44-32.832-.15-55.427 2.01-11.24-19.723-24.943-49.656-35.455-70.58zm275.186-418.729c31.296 9.904 55.084 8.092 87.632 8.208l65.822.208 153.465.31c35.128.018 71.582-.497 106.562 1.105a4738 4738 0 0 1 18.548 173.165c5.592 63.791 10.623 131.588 19.788 194.813l-19.772-.125a11300 11300 0 0 0-400.161-3.948c-4.197-66.771-11.709-138.105-17.803-204.842z"/><path d="m402.092 447.248 260.825 2.585c15.193.257 70.829-.987 81.538 2.825 4.562 6.482 9.609 64.553 10.932 76.254l-1.869 4.729c-3.231 2.144-36.125.951-43.069.885l-77.684-.492c-72.423-.126-152.73.65-224.864-2.206-.874-10.086-7.216-80.711-5.809-84.58"/><path fill="#fefefe" d="M518.867 477.628c17.072.459 20.855.309 19.295 14.779-.083.764 4.945 6.523 5.846 7.757.212 3.881-.327 4.704-1.885 8.104-7.073 4.049-12.981 2.967-21.196 2.805.188-9.285-1.808-23.075-2.06-33.445"/><path d="M524.971 495.942c3.898.05 9.107-.088 12.046 2.548 1.377 3.359 1.113 1.911.377 6.025-3.669.744-7.079 1.937-10.428.72-2.307-3.429-1.626-4.548-1.995-9.293m-1.29-13.205c3.434.081 5.664-.163 8.727 1.371 1.93 3.292 1.365 2.375 1.407 6.543-3.189.743-4.818 1.343-8.097.693-2.307-3.309-1.628-3.972-2.037-8.607"/><path fill="#fefefe" d="M655.45 478.194c17.502 1.92 26.776 13.841 16.17 29.728-3.704 2.277-11.056 5.014-14.785 2.073-.934-5.129-3.374-27.768-1.385-31.801"/><path d="M659.202 482.74c10.894 4.142 14.397 10.059 8.746 20.822-1.417.815-2.613 1.289-4.099 1.942l-1.857-1.049c-2.002-5.684-2.192-15.252-2.79-21.715"/><path fill="#fefefe" d="M488.591 477.025c24.204-1.795 24.063 5.768 17.223 18.806-.607 1.157 6.29 8.97 6.853 13.489l-1.624.973c-3.414-.688-2.142-.167-5.072-3.323-2.229-4.183-3.994-8.012-7.726-11.045-2.565 1.557-1.227 8.192-3.324 13.29l-2.184.518-1.493-1.461c-1.368-5.882-2.591-25.057-2.653-31.247"/><path d="M493.74 481.763c3.854.278 5.647.176 9.131 1.873 2.309 3.209 1.65 1.756 1.992 6.27-3.269.788-5.627 1.762-8.726.743-2.476-3.334-1.814-4.14-2.397-8.886"/><path fill="#fefefe" d="M626.034 478.116c12.049-.714 28.505 2.601 14.677 16.889 3.142 4.448 8.757 11.09 5.66 16.29-3.212-1.533-2.428-1.385-4.656-4.698-3.089-5.766-5.31-8.859-9.09-14.105-.305 6.076.264 10.127-.346 17.328l-.903.455a20.6 20.6 0 0 1-2.21-4.548c-1.624-4.646-5.179-23.211-3.132-27.611"/><path d="M630.547 482.603c3.14-.103 5.565-.487 8.35 1.018 1.618 3.277 1.079 2.556.539 6.739-2.886 1.139-3.375 1.567-6.323 1.182-2.291-2.882-1.912-4.85-2.566-8.939"/><path fill="#fefefe" d="m427.09 476.144 3.06 1.428c2.134 3.734 1.954 9.017 2.177 13.44l13.444.017c-.808-6.219-1.295-8.696.961-14.606l1.116.352c3.221 7.191 4.453 23.836 5.37 32.42-1.606-.069-2.974-.402-4.542-.717-2.585-2.962-2.113-8.137-2.382-12.452l-13.108.021c.443 3.993 1.968 12.048-1.97 14.448-4.606-5.125-4.094-27.152-4.126-34.351m278.703 2.058c6.976 1.179 14.948 16.991 18.682 23.26-.25-3.587-2.192-19.994-1.686-21.753l2.149-.498c3.259 3.51 4.227 24.381 4.776 30.481-1.077 1.352-.496.743-2.677 1.334-4.829-2.411-12.105-15.595-15.324-20.817.38 4.376 1.832 15.528-.418 18.793-3.449-3.456-4.93-25.147-5.502-30.8m-128.555-1.398c4.314.184 6.708 1.138 10.273 3.293l.34 1.658c-5.666 3.192-4.583-2.238-10.147.41-8.842 4.207-7.218 23.964 3.94 23.308 3.227-.19 6.255-1.268 6.522-5.044-3.225-2.476-2.653-1.738-7.277-2.16-1.375-2.406-.909-1.788-.58-5.151 3.804-.168 7.957-.903 10.867 1.11 2.731 4.129 2.122 13.649-2.243 14.997-21.29 6.575-31.159-19.938-11.695-32.421m-117.226.187a36 36 0 0 1 2.165-.214c4.678-.331 13.715-.504 17.104 2.539l-.701 2.035c-2.802 1.703-7.227.014-12.212.868-1.45 2.959-.687 3.456-.079 7.275 4.042 3.035 4.568.172 9.233 2.491-.031 2.876.393 1.912-1.286 3.855-2.983-.137-3.311-.249-6.108.606-1.769 3.404-1.098 3.4-.897 7.807 5.097 1.788 14.256-1.202 15.757 4.236l-.984 1.253c-4.769.829-13.734.496-18.873.465-1.287-7.489-3.092-25.894-3.119-33.216m145.972.195 2.442.894c4.718 4.55 12.448 23.287 13.253 30.365l-.858.971c-2.977-1.534-3.692-3.956-5.25-7.07-8.945-1.141-7.83.08-13.885 6.15l-1.145-.256c-.326-8.447 3.383-22.432 5.443-31.054m85.906 1.291c3.165-.023 3.902-.315 6.3 1.436l-.223 2.088c-3.982 2.567-7.194-.45-11.059 2.54-.726 10.914 7.889 4.653 12.207 8.153-.141 5.588-7.366 1.164-11.903 7.588.66 7.334 4.968 6.156 10.717 5.999 2.574.234 4.577.602 5.903 2.751-3.843 3.541-13.185 2.878-18.611 2.906-.777-6.324-3.831-27.129-3.291-32.303 2.224-1.321 7.074-1.079 9.96-1.158m538.16-289.145c2.42 1.083 9.62 5.827 12.98 7.584a192.3 192.3 0 0 0 39.25 15.499c15.24 4.085 26.81 4.929 42.37 6.358-.55-.052 1.76 5.305 3.74 6.991 8.97.973 13.15-9.345 20.72-10.2 18.01-2.035 27.89 10.99 30.52 26.8 3.68 22.23-8.06 27.948-27.66 29.98-4.86.503-9.14 4.143-7.92 9.15 6.7 5.962 22.76 1.829 30.17-1.424 8.64 30.379 19.9 53.043 48.15 69.109-30.88 6.652-54.72 14.533-82.12 30.338-12.58 8.158-25.07 18.373-36.99 27.682-17.34-26.515-35.42-62.235-47.93-91.258 9.68-3.198 34.69-15.296 34.88-26.372-1.83-3.499-6.59-6.722-9.81-4.508-10.5 7.214-18.83 13.357-30.5 18.996-6.13-13.265-10-28.034-17.01-40.601-5.62-10.081-27.43 5.234-36.88.626-34.02-16.578 4.68-35.343 21.82-42.134 10.61-4.208 8.99-21.684 12.22-32.616m-191.57 337.423c17.29 1.645 15.03 39.889 15.72 53.382 2 39.432 18.85 66.939 48.04 92.56-28.16 27.284-63.94 60.221-90.05 88.491-14.058-16.593-27.99-31.411-47.392-41.876-12.418-6.697-60.732-40.025-57.95-54.67 9.151-2.307 42.587 28.128 54.425 20.809 1.966-3.469 1.613-1.956 1.578-5.748-6.748-11.299-61.329-25.083-63.542-50.153l1.362-.649c16.581 10.654 34.863 22.777 53.338 29.495 4.858 1.767 5.107 1.623 9.174-.346 2.285-3.19 1.874-1.734 1.721-5.451-5.377-9.848-83.752-38.122-67.923-58.063 8.627 1.421 74.816 56.666 85.542 40.455.116-1.643.318-5.252-1.124-6.097-8.556-5.016-109.709-53.364-81.147-68.449 22.538 14.228 90.481 53.786 119.438 45.075 22.15-6.66-11.1-64.667 18.79-78.765m-839.836 73.047c1.755 2.717 2.162 26.059 2.414 30.989-12.842 13.294-73.241 81.375-76.58 93.797-.263.98.535 1.674 1.036 2.506 3.961 2.561 18.777 2.114 24.129 2.109 172.601-.156 345.112-2.082 517.722 1.134q85.406 1.226 170.784 3.732c41.566 1.227 88.64 3.665 129.844 2.745 5.77 4.071 14.105 12.117 19.572 17.109l-45.315-.835-860.743-7.882c34.012-49.266 78.444-99.864 117.137-145.404m935.406-374.587c.94.933 85.39 266.656 93.77 294.942a575 575 0 0 0-16.86 74.375c-19.02-68.8-43.1-147.851-64.91-215.792-5.47-18.068-30.04-106.105-36.88-115.975-9.85-2.169-64.16 8.758-78.03 10.755-52.355 7.535-106.942 19.023-159.34 25.852 29.872-12.432 67.741-19.576 99.04-28.828 53.56-15.833 110.43-27.335 163.21-45.329M493.9 210.197c2.118 2.777 4.533 10.382 8.707 14.443 10.499 10.215 24.684 15.739 36.913 23.52 7.98 5.077 13.636 11.272 20.109 17.904a410 410 0 0 1 1.519 26.217c-25.244-.376-50.658-.056-75.889-.318-7.272-.075-30.462.283-35.926-1.138l-1.698-4.128q.041-1.683.157-3.361c.801-10.288 5.356-8.287 14.704-11.469 8.86-1.329 41.748-19.735 39.845-31.181-4.845-29.137-45.689 1.865-52.81 9.238l-1.386-14.281c22.119-1.941 31.068-10.323 45.755-25.446m81.079 96.501c43.989.276 89.963-.194 133.76 1.365.967 6.268 1.066 18.743 1.296 25.529-4.613.752-34.218.342-40.676.327a6328 6328 0 0 0-94.461.027c.253-8.785.07-18.395.081-27.248m-124.912-.394c34.525-1.104 74.445-.033 109.41.112 1.491 8.438 3.711 19.095 3.394 27.497q-56.365-.482-112.732-.087c-.363-9.902-.56-17.66-.072-27.522"/><path fill="#fefefe" d="M213.068 589.104c49.813-.091 100.256 1.647 149.816 1.136.297 5.459 1.049 11.71 1.574 17.217l-18.881-.844c-6.579.57-25.5-.188-32.713-.277-26.748-.258-53.49-.924-80.218-1.998-4.463 3.186-13.544 11.517-18.425 15.538-.284-10.729-1.255-19.584-1.153-30.772M90.354 349.928c43.207 2.23 67.88 33.496 88.809 67.71-35.554-9.693-81.832-25.904-88.809-67.71m3.382 91.557q2.74.344 5.461.812c36.156 6.186 65.879 37.309 86.048 65.868-32.541-6.966-88.75-27.261-91.509-66.68m206.333-76.143c3.631.567 4.567.063 6.869 2.214-.632 2.696-2.66 6.184-4.26 8.451-19.904 28.195-47.788 35.743-78.913 42.175-2.515.446-4.343.502-6.848.621l-.999-1.288c.163-1.973 11.434-15.805 13.567-18.082 21.914-23.396 39.336-32.266 70.584-34.091m-5.99 86.947c3.012.029 8.981.8 12.204 1.118-22.03 34.215-41.449 41.196-79.626 54.032-3.579.861-6.557 1.851-10.201 1.357l-.679-1.092c1.476-4.458 12.617-17.876 16.097-21.998 17.959-21.263 34.318-30.882 62.205-33.417M109.322 271.944c24.739 2.15 49.879 19.529 62.691 40.59 5.115 8.409 9.338 19.018 13.249 28.098-31.165-7.766-72.746-33.289-75.94-68.688m174.404 16.434c7.074-.481 12.925.439 19.822 1.506a163 163 0 0 1-2.422 4.323c-14.416 24.603-40.108 33.382-65.965 40.109-4.611 1.093-14.192 3.725-18.317 2.361-.283-3.171 1.579-5.828 3.75-8.243 21.59-24.029 30.78-36.333 63.132-40.056m-46.288-66.477 1.176.28c10.707 11.492-9.155 55.361-20.6 63.224-4.687 3.221-11.929 14.022-18.364 14.259-2.431-1.741-3.136-2.207-5.061-4.472-1.514-7.679 1.794-18.499 4.577-25.766 8.651-22.597 15.616-36.808 38.272-47.525m148.3 83.447c16.687-.441 34.495.366 51.443.299.755 5.886 4.148 24.864 1.143 28.755l-3.219.189c-11.525-2.177-41.778 1.313-51.698-3.203-2.644-4.401 1.199-20.477 2.331-26.04m424.788 287.74c23.596.375 47.515 1.296 71.14 1.909.644 6.486 1.556 10.697 2.935 17.007-22.474 1.069-49.245-1.048-72.284-1.33-.999-5.899-1.341-11.634-1.791-17.586m-89.289-284.991 41.453-.154c2.043 7.941 5.678 18.824 3.867 26.658-13.78.385-31.298-.403-45.353-.641zm475.693 358.104c.98.067.85.197 1.83.783.34 6.664-5.73 38.417-7.25 46.502-4.05-3.141-9.63-6.495-14.04-9.309-7.75-4.979-11.44-6.484-11.2-16.788.1-4.403-.49-10.446-.8-14.972 9.58-.749 22.23-3.89 31.46-6.216M524.747 84.247c2.081 1.541 3.822 1.37 6.449 1.573 15.229 12.332 28.386 36.537 24.248 56.395a243 243 0 0 1-7.467-5.447c-12.018-9.152-24.413-25.148-26.517-40.41-.904-6.559-.276-7.497 3.287-12.11m112.81 45.009c4.008-.43 6.792-1.406 9.45 1.971-.03 6.427-10.215 13.157-14.923 16.454-11.823 8.281-26.849 10.818-40.848 13.059l-11.452.682c15.314-17.812 34.87-28.094 57.773-32.166m-40.293-43.36c15.847 7.086-19.403 46.517-26.666 52.112-.465-.014-1.61-.49-2.119-.671-1.355-5.246 1.973-25.901 4.624-31.757 5.491-12.13 12.961-15.116 24.161-19.684m-112.575 59.379c17.199-.946 30.47.052 45.653 10.279 2.766 1.863 8.968 7.091 9.538 10.423l-2.13 1.688c-14.37 2.62-28.794-.275-41.637-6.957-5.38-2.799-15.534-8.451-11.424-15.433m19.375 57.599c17.343-.953 48.31 17.446 44.559 38.544-11.065-5.292-46.514-24.737-44.559-38.544m-21.295-8.573c3.136-.411 3.503-.31 6.4.98 3.782 11.023-23.265 25.366-31.667 28.191-3.272.281-4.572-.477-6.266-2.81.77-14.117 18.742-24.389 31.533-26.361m-58.142-7.751c22.072-1.714 17.358 27.394 14.787 40.169-9.948-3.205-22.896-27.989-14.787-40.169m64.807 52.783c3.04.338 2.209-.218 3.763 1.684-3.092 10.826-25.027 21.868-35.107 24.921l-4.154-1.052c-9.393-11.865 26.159-24.789 35.498-25.553m137.463-30.139c5.401 11.993-29.44 30.505-37.852 34.717l-.837-1.022c-.642-16.287 25.399-29.36 38.689-33.695m-247.691 29.951c14.129-1.037 40.884 8.437 43.539 24.218-16.694 2.999-33.842-12.236-43.539-24.218m388.344-3.894c2.994-.327 5.041-.339 7.491 1.313 1.514 8.746-26.02 19.145-33.532 21.113-3.231.511-3.884.533-7.14.224l-1.068-1.615c1.623-9.873 24.98-19.819 34.249-21.035m-108.154-.668c18.374-1.592 34.251 10.281 44.805 24.145-15.769 3.431-36.866-10.596-44.805-24.145m.668-36.743c17.358 1.316 29.755 7.105 40.507 21.424-12.435 2.794-37.664-6.785-40.507-21.424m44.473-24.29c14.312 6.262 14.27 27.956 6.936 39.794l-1.138.134c-9.104-5.554-8.034-30.455-5.798-39.928m53.894 30.543c5.046-.376 11.901 1.071 17.045 1.919-11.196 6.945-16.895 10.267-30.049 12.344q-2.387.585-4.791 1.089c-3.27.67-5.728 1.213-8.55-.644l.124-1.784c5.883-6.855 17.631-10.729 26.221-12.924m-368.808.476c12.884.44 17.989 3.764 29.858 9.073 2.182 3.685 3.313 6.955 4.845 10.934-12.574-1.344-29.549-7.512-34.703-20.007m-20.57 103.412c2.01 1.614-.861 16.29-1.308 19.655-3.828-.771-6.974-2.495-10.495-4.18l-3.7-1.719c-1.338-2.184-1.007-1.272-.355-4.493 3.379-4.809 10.506-7.245 15.858-9.263m-91.057 344.161c7.397-.167 18.408 2.026 22.758 8.633l-.715 1.28c-3.707.618-6.889-1.423-10.395-3.068-8.6-4.068-13.678.961-23.117-.36l.163-1.294c4.011-3.431 6.147-3.739 11.306-5.191m-51.733 46.982c5.985-.325 17.459 1.836 20.431 7.733l-1.298 1.198c-4.109.423-6.598-1.059-10.401-2.713-9.737-2.598-10.553.851-20.393 1.081l-.913-.906c4.025-4.645 6.769-4.991 12.574-6.393m120.921-74.028c6.931.499 8.751.103 14.001 4.411l-.031 1.669c-3.789 1.375-3.413.752-7.948-.045-4.663-.75-10.441 1.462-13.507-.882 1.962-2.744 4.421-3.596 7.485-5.153m524.782 40.027c5.236.396 11.393.461 16.116 2.509 2.255 2.447 1.792 1.218 1.696 4.601-5.422.043-15.041.031-18.632-4.249zm27.143 28.872c6.477.255 14.908 1.117 15.522 8.676-6.73 1.007-15.674-.276-15.522-8.676m-724.199.227c5.45-.394 8.483-1.208 12.866 2.042l.024 1.525c-2.945 1.622-5.535.639-9.034.003-4.868 2.215-5.44 3.307-9.828 2.334l-.538-1.422c2.257-3.166 2.524-2.57 6.51-4.482m655.909-65.047c3.539-.329 5.112-.111 7.513 1.875l-.338 1.803c-2.21 2.495-4.478 2.452-7.749 2.944-4.683.184-4.26.879-7.752-1.131l.151-1.953c2.291-2.779 4.668-2.865 8.175-3.538m9.226 44.772c5.075-.26 10.641.448 15.275 2.621 2.06 2.518 1.625 1.24 1.334 4.953a195 195 0 0 1-6.519-.633c-3.853-.437-8.072-.751-10.602-3.936zm-509.512 4.985c4.113.136 9.68 1.754 10.698 6.189l-1.06 1.315-2.434.076c-4.78-1.523-11.217-.905-13.981-3.616 1.821-2.524 3.796-2.857 6.777-3.964m13.41-11.907c6.578-.774 16.328.443 16.423 8.618-5.098-.845-13.835-2.323-17.024-6.136zm498.904-37.95c5.068.02 13.451-.425 16.804 3.416l-.903 2.706c-5.563.1-13.675 1.142-17.024-3.57zm-595.848.181c4.938-.247 10.375-.418 14.365 2.983l-.498 1.179-3.055.612c-4.742 1.146-11.268 1.94-14.944-1.714 1.216-2.296 1.165-1.675 4.132-3.06m898.361 46.847c2.28-.237 2.17-.222 4.4.406 2.09 3.371 2.78 6.02.89 9.674l-2.08-.655c-3.37-2.074-7.95-3.768-10.19-6.54 1.81-2.188 3.7-2.023 6.98-2.885m-313.28-2.334c3.367 1.47 2.935.671 4.513 3.269-1.597 2.71-6.343 4.602-9.373 6.145-2.608-.013-2.908-.073-5.032-1.576l.224-1.883c2.909-3.306 5.643-4.168 9.668-5.955m-546.424 7.309c3.768 1.039 3.594.407 6.048 2.881l-.358 1.748c-3.994 2.073-3.302 1.343-8.528.823-1.702.217-2.973-.255-4.644-.669l-.424-1.249c2.673-2.851 4.158-2.838 7.906-3.534"/></svg>