<svg xmlns="http://www.w3.org/2000/svg" preserveAspectRatio="none" style="display:block" viewBox="0 0 2048 1462"><path fill="#fefefe" d="M0 0h2048v1462H0z"/><path d="M1837.39 47.58c6.19-.607 17.48-1.022 15.29 9.016-6.16 6.206-25.45 4.768-34.18 4.877-13.45.16-26.9.406-40.36.74 16.95 62.978 18.93 139.963 21.07 205.782l4.28 129.008q4.65 169.52 11.1 338.983c3.52 100.486 7.6 200.952 12.26 301.394 1.32 24.29 3.1 49.39 3.63 73.69 1.25 56.26 18.9 125.53-4.51 178.35 19.15-.3 38.88-1.59 57.9-.09 4.95.39 7.49 5.57 6.04 10.3-8.12 7.76-43.23 3.46-55.35 3.34-38.48-.18-76.97-.67-115.45-1.47l-322.12-2.24c-6.99 4.17-20.45 15.74-27.75 21.35-17.4 13.35-31.26 21.48-49.74 32.31 13.23 2.09 39.46 7.01 47.5 17.72 11.73 15.63-19.73 33.3-29.66 40.03-17.53 2.25-39.52-1.36-57.34-2.82-36.53-2.98-73.07-4.54-109.46-9.04-6.84-.34-16.26 3.04-22.79 2.68-37.91-2.06-75.76-.15-113.62-.61-22.82-.28-46.067-4.54-69.062-4.03-9.485.22-20.097-1.7-29.606-2.2-17.802-1.4-35.545-5.06-53.369-6.11-18.872.4-37.91 3.19-56.755 3.8-15.543.5-31.796 1.42-47.34.93-30.887-.97-62.416-1.88-93.013-6.18-25.247-3.54-26.813-12.65-22.329-34.81-.431-.82-.848-1.66-1.249-2.5-6.352-13.4-1.202-17.85 10.503-22.13l.734-1.74.339.52c-1.67-2.78-6.732-4.84-9.892-6.5-11.811.06-24.168.72-35.977 1.38-97.888 5.47-195.958 6.92-293.864 11.28-39.452 1.98-80.821-.19-120.384-.03-16.117.07-32.273 1.3-48.339.33-5.347-.33-8.714-4.31-8.812-9.58 7.443-9.07 48.486.37 60.983-5.71 4.656-2.27 1.022-11.39-.126-15.31-13.194-45.06-14.505-100.8-16.68-148.4a14744 14744 0 0 1-16.099-549.174c-2.119-156.884-9.892-362.554 27.933-514.034-12.602-1.21-24.725.108-37.593-.31-5.625-.184-46.385 3.859-34.422-11.52 2.515-2.727 9.787-2.564 13.047-2.577 87.896-.37 175.053-1.17 262.968 1.57 76.236 2.376 152.348 5.73 228.611 5.249 23.871-.151 47.923 1.071 71.885.94a23560 23560 0 0 0 598.718-16.457l381.27-14.401c45.98-2.072 95.6-2.334 141.18-5.595"/><path fill="#fefefe" d="M1590.73 93.513c10.5-.618 21.43-.52 31.98-.575l17.58 486.879a8443 8443 0 0 1 5.72 175.019c.33 14.168 1.24 27.612 1.32 42.003-20.24.084-52.7 5.712-74.82 7.345-34.86 2.574-56.22.291-89.79-1.299-33.07-24.668-67.9-73.92-91.05-108.234-30.99-47.444-52.61-95.146-74.2-147.058-61.42-147.636-88.52-282.049-93.79-441.079 12.69-.95 30.79-.801 44.03-1.149l97.21-2.77c74.71-2.802 151.07-8.162 225.81-9.082m-1221.094 21.7c25.6-.437 48.12 1.155 72.659 1.28l194.004.832c46.373.433 91.784-1.682 138.365-.726-2.463 35.01-1.435 67.944-5.441 104.589-13.422 122.761-39.689 243.294-84.586 358.54-12.782 32.81-30.439 67.099-46.849 97.799-10.285 20.259-24.262 40.022-35.959 59.615-15.439 25.861-35.059 49.52-54.208 72.697-12.272-.13-31.352 1.095-42.477 1.491-19.056.679-111.968-.46-124.261-8.085-3.316-10.004-.837-42.474-1.557-54.459-1.498-24.961-1.11-50.266-1.581-75.23z"/><path fill="#fefefe" d="M1200.71 107.502c2.31-.238 8.69-1.386 8.91 2.264.95 15.977.73 31.91 1.72 47.907a1179.6 1179.6 0 0 0 38.1 235.224c5.11 19.721 15.66 57.446 23.32 76.07-28.53-.533-58.56 10.912-78.55 31.204-16.6 16.861-18.9 27.05-44.41 14.384 8.3-13.189 18.2-25.471 24.34-39.92 13.38-31.481 10.06-72.092-2.88-103.415-13.74-34.973-46.37-67.904-80.4-81.897-38.09-15.662-69.42-1.89-103.504 12.715-5.873 2.517-19.978-.865-32.01 4.522-37.384 16.737-56.316 55.741-70.652 91.415-11.308 31.121-13.969 71.683 2.047 101.582 1.222 2.262 5.185 5.844 4.56 8.5-6.654 28.26-34.574 2.594-42.685-1.491a83 83 0 0 0-25.013-7.768c-45.233-6.782-73.667 9.773-107.621 35.165 6.883-17.006 14.442-45.573 19.95-64.028 35.531-119.034 50.011-229.633 51.45-353.495 28.309-1.965 66.273.336 95.731-.622zm-964.465 6.407c20.163-.007 40.945 1.011 61.236.904 5.762-.03 31.568.051 35.864.982 3.041 4.476 1.37 142.294 1.648 156.532l15.783 864.153c.448 16.88-.256 34.69.777 51.42 2.256 36.52.555 72.99 1.834 109.45-15.295-1.06-36.752-.49-52.397-.43q-23.572-.135-47.13-.93c.854-36.3-2.764-83.37-4.225-120.61l-6.317-190.892c-.662-20.976-2.166-41.234-2.611-62.48a27076 27076 0 0 1-4.462-808.099M1736.98 88.47l13.93-.555c-.22 7.782.86 18.855 1.25 26.948q.84 19.166 1.08 38.349l1.95 162.383c2.95 219.246 9.03 438.44 18.22 657.514.77 16.061 2.43 32.781 3.38 49.041l9.65 172.88c1.49 25.84 3.62 50.54 4.8 76.65-15.7-1.38-39.38-.73-55.65-.68-12.11.04-24.23-.04-36.34-.23l-30.93-816.792-9.49-274.082c-.87-29.467-2.76-59.1-3.07-88.546 27.05-1.452 54.13-2.412 81.22-2.88M380.203 817.711a900 900 0 0 0 108.866 6.807c20.186-.03 40.544-1.527 60.367-1.426 2.318 27.657 5.935 55.627 8.498 83.353A4556 4556 0 0 1 569.081 1058c4.125 65.21 7.466 131.26 4.502 196.59-.213 4.69-.829 29.51-1.866 31.97l-2.95.7c-19.347 2.5-49.48 3.26-69.598 4.14-35.659 1.56-73.376 4.19-108.903 4.87a22810 22810 0 0 0-6.938-361.774c-.451-25.823-2.031-52.224-2.429-78.113-.2-13.019-1.397-25.544-.696-38.672m1261.087-8.316c2.01-.463 3.24-.265 5.27-.144 3.13 3.448 4.01 60.147 4.36 70.233l3.79 88.347 10.4 301.579c-11.36.61-24.14-.37-35.74-.3-40.42.24-80.49-2.59-120.9-2.16l-10.61-.96c-8.84-59.21-11.21-127.12-13.24-186.99-1.75-51.69-3.22-105.122-1.74-156.668.96-33.221.42-74.16 5.22-106.652 50.34 6.194 103.25.016 153.19-6.285m-612.46 4.291c2.96 2.452 25.68 34.324 30.35 40.14 39.07 48.66 87.63 111.976 139.28 147.404 1 31.85 2.31 75.67.62 107.05-1.7 2.18-3.42 4.46-5.34 6.46-13.4 13.93-120 19.37-144.45 20.48-50.309 4.18-119.192 1.04-165.976-18.62.169-10.45 1.106-20.68 1.307-31.16.25-24.27.285-48.53.104-72.79-.088-14.359.199-35.363-1.865-49.166 31.534-27.414 64.266-63.105 93.881-93.092 14.416-14.597 41.559-41.531 52.089-56.706m96.33-190.443c28.47 10.702 82.68 25.736 101.81 48.464 36.3 43.134 70.69 219.303 65.1 276.631-1.64 16.811-7.51 36.695-21.21 47.731-8.37 6.751-19.85 9.161-30.4 8.031-42.97-4.566-106.09-78.194-133.22-111.322a2417 2417 0 0 1-77.16-100.277c-14.45-19.545-28.58-35.776-40.356-57.422-8.179-15.037-21.823-44.961-20.177-61.515l.944-.207c6.276 9.622 10.282 39.522 19.092 42.15 4.63-4.231.531-9.071-.179-14.48-1.392-10.598-9.353-36.177-7.834-45.291l1.301-.852c7.552 3.829 9.023 59.508 24.829 59.265 3.31-6.453-13.921-46.828-11.351-63.931l1.295-.751 2.546 2.373c3.77 16.088 12.33 37.411 17.09 53.653.89 3.061 4.12 6.969 7.42 8.348l1.63-.842c2.94-8.181-12.82-40.609-15.56-52.922l-.3-1.397c15.96 14.066 24.22 45.159 32.08 64.379 1.19 2.93 2.77 5.146 5.74 6.243 11.68-4.894-10.93-52.981-13.95-60.787 2.18 1.636 4.29 3.353 6.34 5.147 25.53 22.409 31.39 59.838 33.37 92.26 7.18 10.816 24.2 26.799 33.3 36.644 33.51 36.244 70.5 70.117 112.69 96.038 8.97 5.102 18.58 12.481 29.08 13.618 4.79.519 7.7-1.804 7.85-6.497-2.57-5.838-15.43-10.265-21.37-13.542-12.69-7.006-27.76-14.962-38.25-25.019l-.97-.942c-1.36-29.944-4.71-61.454-7.13-91.437-.32-3.904-1.2-4.784-3.99-7.031-4.1-.549-2.44-.771-6.27.876-3.1 4.093-1.76 12.357-1.4 17.615 1.56 23.022 3.3 46.038 4.68 69.071-21.16-14.106-75.59-71.659-94.39-91.515 11.44-9.069 23.6-22.927 29.19-36.391 5.2-12.549 4.47-20.099 4.2-32.904.56-6.318 4.2-9.506 1.13-15.808-3.28-6.764-4.13-5.252-9.65-8.393.7-5.006 4.61-15.467 6.27-20.834 2.95-9.525 4.45-16.423 6.14-26.228"/><path fill="#fefefe" d="m942.899 625.192.519.022c2.32 1.461 2.142 6.958 2.658 10.143 6.427 39.694 15.683 79.254 37.261 113.823-29.407 28.891-82.283 74.256-116.187 95.655 1.054-27.51 3.555-63.463 2.423-91.503-.096-2.378-1.989-3.747-3.721-4.899-3.315-.146-3.415-.119-6.457 1.341-4.179 5.997-1.618 66.748-3.537 77.473-.688 3.843-1.109 22.127-1.088 26.971-23.827 16.863-49.745 30.716-76.221 42.814l-1.331 2.914c.489 4.391-.177 2.8 2.326 6.184 7.93 3.414 38.107-13.408 45.871-18.017 44.124-26.193 85.575-57.682 124.291-91.293 12.974-11.264 28.967-24.292 40.093-37.187 3.058 4.302 5.967 8.824 8.873 13.241 8.568 10.566 15.608 19.583 23.518 30.656-11.57 10.494-21.8 24.213-32.642 35.645-15.543 16.383-31.787 32.202-47.668 48.265-34.562 34.96-97.975 102.662-144.925 116.54-10.064 2.98-21.908 3.54-31.366-1.67-9.18-5.054-15.236-14.662-18.012-24.559-14.847-52.933 33.84-178.413 54.667-231.429 7.784-19.816 14.991-41.264 25.456-59.789 16.992-30.079 43.833-40.304 75.171-49.714a1885 1885 0 0 1 40.028-11.627M817.334 1064.47c10.074-.12 45.586-2.24 51.976 1.91 4.095 5.05 2.389 11.91 2.181 18.02-.412 12.09-1.209 24.12-.939 36.24 1.765 2.48 2.214 3.1 3.454 5.85l-.764 1.84c-4.015 2.14-47.808 3.24-56.07 3.49-37.32.92-74.375 6.55-110.281 16.77-40.344 11.64-82.49 34.2-90.338 79.14-2.621 15.01-2.274 26.2 2.063 40.69 2.904 7.04 4.559 10.3 8.907 16.45a724 724 0 0 1-41.408 1.45c.646-24.76 2.514-51.29 2.261-75.99-.49-48.01-1.352-97.62-5.835-145.38 25.473 4.45 68.205.47 95.544.09 45.978-.64 93.48.79 139.249-.57m185.316-683.476c34.02 18.854 72.93 38.757 111.09 46.02l-4.08 32.245c1.95 3.609 13.57-2.087 20.67 3.264 13.09 9.857-.97 31.035-12.5 31.851-4.35-3.572 1.01-6.246-1.34-12.824-3.13-2.267-1.68-1.875-5.35-1.76-4.83 3.915-9.08 27.272-11.54 34.942a136 136 0 0 1-7.39 18.459c-9.2 18.529-17.95 26.678-36.96 33.197-53.99 14.476-85.139-9.897-96.532-62.86-1.775-8.252-2.394-21.867-8.842-26.594-6.793.565-5.348 11.073-4.923 16.097-16.656-5.563-33.344-20.044-17.02-34.458 12.098-10.683 23.967 16.272 24.179-18.602 22.62-19.32 33.931-34.597 50.538-58.977"/><path d="M980.237 426.312c6.119-.498 29.423-1.511 28.603 8.581-4.66 3.369-8.65 1.451-13.971.226-4.61-.228-7.332-.581-11.908.608-4.91 1.276-12.299 3.639-16.589.437.059-6.815 8.822-8.535 13.865-9.852m94.033 2.082c6.46-.006 22.19.507 21.6 9.804l-2.28 1.558c-4.54.726-9.36-1.507-13.91-3.071-8.48-.745-15.09 3.924-23.38.973l-.76-1.626c3.17-7.427 12.01-7.051 18.73-7.638m-44.8 36.982 3.55 1.465c8.34 9.382 6.22 30.997-2.07 40.378-12.05-2.469-3.02-10.174-1.13-16.692 2.58-8.916-5.17-16.526-.35-25.151m-18.19 53.173c6.03-.01 10.37 7.077 17.64 7.612 6.63.487 14.04-4.842 19.01-.607.47 2.765.02 3.185-1.25 5.664-10.98 3.57-41.04 6.555-35.4-12.669m-39.461-56.7c8.273.215 26.789-2.186 32.231 2.416 1.22 3.815.81 2.701-.38 7.235-10.545-2.012-22.838 2.554-30.573-2.568-1.934-3.47-1.309-2.56-1.278-7.083m87.001-.013c7.82.003 25.59-1.919 31.15 1.801 1.23 3.351.74 2.566-.24 6.732-7.36 1.595-23.58 1.883-30.47-1.669-1.68-3.123-1.05-2.496-.44-6.864"/><path fill="#fefefe" d="M1423.19 1056.53c15.32-.49 30.39.31 45.77-.34.67 4.27.94 8.75 1.14 13.07 2.46 54.03 4.06 108.04 9.09 161.92 1.02 10.92 4.3 22.55 4.59 33.3-4.69 3.15-48.4 1.8-56.1 1.53 3.78-8.39 11.14-16.97 15.98-25.07 13.18-22.09 18.15-46.78 13.24-72.15-4.41-22.81-18.21-36.98-36.53-49.48-48.5-29.76-119.05-9.04-170.04.83-16.38 3.23-32.94 5.4-49.59 6.5 1.07-.92 2.1-1.87 3.1-2.87 12.73-12.79 7.53-44.44 7.22-63.62 23.87-1.34 46.17-.95 69.99-1.34zM991.437 572.147c30.183 12.871 47.523 10.56 78.363.777.69 29.355 14.93 40.842 41.69 48.149-.99 7.064-5.81 34.583-10.54 38.734-8.27-.286-8.2 2.312-14.81 5.686a557 557 0 0 0-24.93 13.529c-6.8-6.532-20.23-16.388-28.6-20.638-2.41-1.338-8.21-1.044-10.31-2.356-7.23-4.532-22.699-19.67-31.311-17.271-6.992 6.864-9.598 3.114-15.31 8.765-1.888 4.148-1.314 11.041-1.274 15.894-3.927-.152-5.992-.173-9.919-1.029-2.772-2.687-7.193-34.751-8.134-40.584 28.098-11.406 28.294-21.557 35.085-49.656m198.033 745.073c27.07-2.23 39.08 16.16 61.92 28.21 20.4 10.76 91.21 17.45 103.48 32.07l-.57.82c-8.84-.61-27.23-9.49-36.8-10.51-1.75-.19-2.44 1.4-3.37 2.68 1.24 10.26 24.53 11.88 29.47 17.65-4.16 1.82-6.81.27-11.12-1.21-8.29-2.44-23.99-8.57-31.12-6.35-2.48 2.51-1.82 1.03-2.02 4.6 3.05 5.43 26.62 11.6 33.81 13.96-15.55.22-34.63-2.93-50.44-4.52-26.54-2.67-52.76-4.5-79.36-6.39-11.98-.86-23.77-3.92-35.75-4.55-.87-16.15-.09-41.1-.57-58.78 8.61-4.52 12.9-5.94 22.44-7.68"/><path fill="#fefefe" d="M1293.67 1158.84c3.3.43 3.4.54 6.22 2.43 1.58 3.09 1.36 1.49.48 5.01-7.15 8.66-120.63 55.01-140.17 63.73-29.86 13.31-87.69 28.87-120.56 36.24 31.01 12.78 85.9 23.23 118.39 35.08 1.49.54 1.48 3.09 1.6 4.48-.56 1.2-1.4 3.71-2.28 3.59-56.76-7.4-182.882-52.8-229.663-68.37-31.637-13.1-91.366-27.87-125.242-41.6-1.369-.56-1.404-2.97-1.582-4.44 1.686-3.28.499-2.03 3.696-3.89 7.733-.87 34.223 9.21 43.2 11.68 47.905 13.15 93.899 31.29 140.82 47.24 10.176 3.46 20.591 6.63 30.821 10.03a950 950 0 0 0 158.59-50.07c23.84-9.82 46.79-21.06 70.49-31.16 15.17-6.47 30.26-12.96 45.19-19.98m-621.986 180.38c8.217-.21 26.639-.07 34.309 1.69 25.963 7.05 51.276 14.85 77.286 22 22.508 6.19 46.669 9.21 68.516 15.18-26.519 3.48-56.849 1.94-84.045 1.87-17.037-.52-83.801-1.88-95.392-9.36 2.915-3.57 35.365 2.31 40.992-5.78l-.796-2.16c-8.074-5.21-26.616-1.79-38.817-5.49l.441-1.96c5.658-2.94 29.09 2.17 36.251-2.05 1.914-1.13 1.601-2.52 1.947-4.85-5.897-11.73-39.342 3.79-40.692-9.09m438.956-656.567c2.3 7.187-23.37 45.787-29.92 48.805-.15-2.682-.37-5.262-.61-7.937 10.51-12.804 17.36-30.666 30.53-40.868m-12.81-12.942c1.63 1.319 1.2 1.06 2.38 2.936-.7 6.896-17.94 31.121-23.27 40.821-1.95-2.38-3.27-7.048-4.36-10.12 7.24-10.631 17.33-23.717 25.25-33.637m12.92 37.16c4.74 8.71-18.07 36.8-25.25 42.38-.73-.687-.68-1.075-1.1-2.179 1.14-3.786 22.22-33.853 26.35-40.201"/></svg>