<svg xmlns="http://www.w3.org/2000/svg" preserveAspectRatio="none" style="display:block" viewBox="0 0 2048 1462"><path fill="#fefefe" d="M0 0h2048v1462H0z"/><path d="M486.693 131.485a36917 36917 0 0 1 882.697 9.346l301.12 4.823 88.95 1.684c13.93.242 29.31-.856 43.06.916 1.88.242 3.42 1.148 4.77 2.466 20.21 19.705-9.91 717.83-11.12 807.423a8120 8120 0 0 0 2.99 371.937c21.97-.29 48.7-1 70.51-2.8-.49-80.08 4.47-160.03 5.31-239.99.19-18.38-3.55-35.88 1.81-53.9.33-1.11-2.29-11.39-1.09-14-.18-20.616 6.26-41.008 2.87-61.386-2.43-15.782 5.96-34.174 2.5-49.349-1.32-5.764-.94-5.51-1.02-11.614-1.12-86.746 4.62-173.11.99-259.855-.56-13.17 1.5-27.474 1.64-40.783.29-28.024-1.95-55.767-2.47-83.753 2.27-41.953 2-83.715 2.21-125.63l-.22-97.655c.08-34.448 2.12-109.425 5.71-148.228.12-1.249 1.14-1.251 2.51-1.701 6.15 4.395 4.19 13.898 4.02 20.803-1.91 76.619 1.82 153.964.97 230.486l-1.48 76.521c-.12 4.636-2.18 13.341-1.99 15.844 2.93 37.816.92 75.919 1.59 113.808.49 28.155 4.17 65.585 2.43 93.186-1.22 19.457 3.65 101.564-2.36 114.301-1.45-1.069-.97-.839-2.65-1.5-.94 3.439-.97 1.787-.05 5.137 1.08.209 1.82.282 2.69 1.024 3.43 2.937.04 225.774-.72 250.874-.28 9.38-2.62 18.62-2.84 28.05-.28 12.81 1.34 25.6 1.66 38.4.42 16.73-.3 33.65-.55 50.38-.74 49.8-3.94 99.58-3.98 149.38 12.53 0 76.15-7.04 81.98-2.08 2.29 1.95 3.76 5.03 4.01 8 .2 2.35-.3 4.57-1.88 6.37-2.2 2.49-5.7 3.51-8.88 3.97-17.09 2.49-38.67 2.28-56.17 3.07-36.68 1.9-73.4 3.27-110.12 4.12-52.67 1.19-106.13 3.81-158.89 5.57-34.4 1.15-70.17 1.11-104.16 2.61-412.99 9.52-826.193 2.88-1238.664-19.91-42.803-2.27-228.667-10.62-257.194-26.82l-.008-2.49c15.95-7.14 91.383.15 113.127 1.63-.971-15.17-.448-27.92-.909-42.65a2425 2425 0 0 1-.936-141.4c.081-4.39 2.301-8.3 2.103-12.37-1.089-22.4-1.748-44.78-1.881-67.22-.118-19.92-.75-39.99-.52-59.908l10.463-505.76 1.962-245.229.906-58.187c.09-12.102-2.219-30.211 3.11-41.106l1.978.642-1.03-1.459-.822.776 2.11 1.472c3.892 14.58 2.739 45.454 3.275 61.383 1.819 54.043 2.496 107.83-.347 161.851-.438 8.307 1.245 17.762.794 25.996-2.052 37.436 1.315 74.859.179 112.358-.456 28.558-2.772 57.096-3.284 85.496l-1.502 184.37c-.005 13.185-2.396 31.752-1.512 43.75 1.18 16.012 1.23 30.248.139 46.637-1.823 9.979.971 28.412-.778 37.336-3.874 13.611.75 25.825.233 39.126-1.702 43.772.199 87.336 1.12 131.036.222 10.54.481 22.95.278 33.29-2.14 3.03-4.515 5.34-2.227 8.87l2.202-1.73c1.58 2.43-.104 33.96.201 39.34 3.11 54.93 2.381 109.35 1.984 164.33 26.698 2 54.661 3.51 81.125 6.54-2.304-24.3-1.976-67.76-2.425-92.8l-3.429-149.31-5.113-245.586c-5.065-210.231-8.905-419.998 1.59-630.218 1.836-15.561.531-51.269 6.293-64.042 2.433-5.394 79.829-3.725 86.32-3.749z"/><path fill="#fefefe" d="M258.383 149.096c13.679-.628 31.019-.139 44.918-.118l87.395.164 267.527.052c378.787 1.128 756.147 12.685 1134.657 16.743.21 18.664 1.59 37.409 1.72 56.072 1.87 271.777-17.22 543.119-18.49 814.821-.21 51.15.12 102.3 1.01 153.44.3 13.23 5.17 134.52 2.32 140.13l-3.2.43c-27.65 2.22-56.82 2.3-84.57 3.51-80.52 3.47-161.08 5.72-241.67 6.74-168.15 3.1-336.34 3.41-504.5.93a11553 11553 0 0 1-479.966-13.64l-122.382-5.98c-24.232-1.24-51.832-2.14-75.767-4.57-2.226-34.91-2.363-75.54-3.283-110.95l-5.543-224.603c-5.227-192.656-9.985-386.013-8.878-578.744.489-85.135 5.224-169.456 8.702-254.427"/><path d="M425.255 181.557c32.797-2.249 81.989-1.174 115.606-.896a8614 8614 0 0 1 251.212 6.659A23363 23363 0 0 0 1362 201.99c47.21.256 96.21 1.322 143.17.916l124.97-1.288c16.56-.239 106.15-2.681 116.43.705 4.46 4.797 5.59 15.966 5.96 22.368 11.99 207.333 2.15 415.496-2.99 622.864a8078 8078 0 0 0-2.64 302.645l.44 81.16c.17 15.23 1.2 30.75.39 45.94-.13 2.62-.31 7.85-2.19 9.74-7.58 7.57-114.48 8.85-132.79 9.05-320.11 10-640.486 8.1-960.457-5.71a8543 8543 0 0 1-229.1-10.09l-64.188-3.18c-8.029-.4-43.054-.94-46.889-6.12-3.14-18.51-3.669-61.31-4.411-81.74l-5.481-156.15c-9.084-249.347-23.608-498.993-15.221-748.548.56-16.676 2.078-78.31 8.726-89.12 11.522-9.466 109.802-13.235 129.526-13.875"/><path fill="#fefefe" d="M420.204 199.452c20.419-1.177 49.661-.528 70.597-.572a4186 4186 0 0 1 151.961 1.717l381.198 10.874c127.59 4.07 255.23 6.775 382.88 8.114l243.19-.663c28.73-.144 56.41-1.019 85.3-.785 10.3 183.439 3.51 354.445-1.56 537.78-2 64.8-3.47 129.615-4.42 194.438-.46 33.337.09 67.285-.7 100.435-5.93.33-12.69.17-18.69.17.63-14.02 5.32-26.16-.68-39.73-10.6-23.982-16.46-33.371-42.59-36.4-25.48-2.954-51.28-3.56-62.2 24.472-8.66 22.248-3.75 34.768 4.92 54.798-8.26 1.84-17.58-.11-25.6 2.15-2.76.78-3.9 2.99-5.27 5.31-.74 1.25-27.35 4.06-30.97 4.93-12.84 3.08-26.51 8.41-36.24 17.63-17.04 16.14-15.03 46.21-15.61 67.85 18.47 2.81 35.66 8.41 39.84 28.47 4.97 23.88 19.29 75.79 18.48 98.41l-1.22 1.09c-7.45-3.19-7.29-25.03-9.29-32.38-12.87-47.25-1.47-88.96-61.96-91.8-.85-3.9-1.75-7.79-2.68-11.67-4.78-19.8-15.38-63.3-33.95-73.85-21.35-12.12-62.07-7.38-82.17 6.3-7.61 5.19-11.67 13.02-16.12 20.83 9.98 10.09 13.01 18.93 12.61 33.34-.56 20.45-3.96 40.28-8.42 60.19 12.99 5.28 17.1 7.5 26.13 18.07 2.49 11.52 6.6 67.66 2.61 76.17l-1.91.33c-4.45-3.52-2.9-43.81-4.46-52.62-.84-4.72-.8-12.57-1.88-18.28l-.27-1.38c-8.61-10.4-16.83-13.88-29.38-18.07 8.38-23.14 16.11-81.08-10.31-95.64-63.15-34.83-108.5 23.37-95.09 86.1-14.59 4.11-20.53 5.81-31.59 16.73-5.93 24.1-7.79 51.96-10.07 76.8-.08.89-.92 2.06-1.39 2.75-2.72 1.75-3.08 1.59-6.46 1.66l-1.4-1.41c-4.65-23.07 1.14-65.4 8.06-88.32 3.03-10.06 11.17-8.14 19.64-7.73 4.33-3.25 8.69-6.46 13.08-9.64-1.04-22.66 2.61-45.99 15-65.26 20.81-32.36 64.53-35.91 94.7-16.06 10.11-12.97 13.79-19.27 27.98-27.91 1.98-28.87 1.82-60.6-25.5-74.936-16.99-8.911-35.18-10.856-53.84-6.754-13.84 3.044-28 23.3-34.6 34.62-17.18-57.531-33.21-115.467-54.36-171.711-2.07-5.489-3.95-11.032-5.73-16.622 17.85 8.247 38.8 14.683 57.05 21.098 76.92 27.044 77.67 12.9 74.44-61.177-2.88-66.198-12.51-130.666-21.75-196.284-2.09-14.834-6.55-29.957-8.39-44.77 2.22-27.438 41.65-36.57 17.9-65.243-15.31-18.469-9.59-27.07-37.13-32.376-22.05-22.586-44.2 1.34-59.06 19.467-4.21 5.13-1.99 10.24-3.83 12.745-5.34 7.042-16.36 13.935-18.15 23.122-3.12 16.021 13.99 32.913 21.59 46.363l.69 1.231c-1.25 4.057-2.32 7.837-1.77 12.095 5.83 45.183 13.21 90.18 18.12 135.506 1.64 15.155 3.5 30.574 5.96 45.559-11.63-2.987-30.04-12.146-41.86-16.673-25.42-9.736-52.55-21.726-78.19-30.397a390 390 0 0 0-31.38-8.851c-7.28-1.738-24.35-3.957-29.35-6.91-1.95-2.722-1.67-1.299-1.2-4.328 2.91-1.98 45.26 2.226 52.2 2.797 11.3.44 65.98 3.588 70.64-8.226-3.35-3.957-12.75-3.438-20.06-9.451-15.78-11.929-21.47-47.009-10.4-63.702 30.09-45.371 7.46-120.287-33.67-153.19-61.94-49.557-213.927-36.638-199.833 70.589-11.239 23.114-20.752 53.801-25.512 79.129-14.158 75.344 30.451 78.089 87.525 87.655l2.147 16.993c-35.783 16.735-79.749 68.268-107.474 98.999a1339 1339 0 0 1-38.487-84.273c-6.421-15.103-12.734-32.21-19.926-46.753 16.278-32.224 18.86-47.02-14.992-64.35-.129-2.509.223-2.056 2.067-4.688 4.2-.446 31.581 12.149 38.992 14.425l1.359.409c24.894-6.805 46.593-45.983 35.041-70.352-3.372-7.112-26.773-20.477-33.961-25.566-30.947-21.909-61.306-45.12-86.705-73.482-6.74-6.401-19.792-26.167-27.185-30.243-19.312-10.649-50.244 32.508-57.657 46.225-19.199 35.532-40.921 83.099-33.139 123.901 4.739 24.845 38.35 2.215 49.487-3.085 6.318-2.784 46.555-.213 51.856 2.654 1.518 9.21-29.219 56.722-28.88 68.327.604 20.667 24.461 36.063 32.045 54.769 14.05 34.652 69.89 211.372 90.122 229.144 4.443 3.903 10.977 6.901 16.977 6.368 19.504-1.731 53.301-43.174 66.652-58.466 2.956 16.703 2.925 33.506 4.769 50.229 8.603 78 .291 155.64.949 233.76.103 12.29 5 23.88 7.487 35.77 1.309 11.25 13.223 67.27 5.566 72.76-2.309-.62-5.365-3.71-5.565-5.89-1.783-18.33-2.213-36.99-5.362-55.27-2.136-12.4-2.898-36.37-18.32-39.53-3.777-.78-7.509-1.71-11.266-2.5 3.926-7.24 4.972-10.15 4.9-18.18-1.556-44.97-8.497-81.2-59.912-88.39-43.856-6.13-58.066 10.69-67.317 52.81-3.336 15.18-5.666 33.35-5.571 49.47l-14.167-1.65c-14.488 9.3-16.177 22.84-18.79 38.95-3.325 20.52-5.726 42.25-7.475 62.96l-11.937.33c-2.052-27.77-.808-56.06-2.323-83.75-1.195-21.85-15.932-17.54-26.794-24.23-7.364-4.53 4.363-50.73 2.136-60.23.056-8.69-2.869-23.18-10.923-28.73-50.942-35.11-83.715-9.84-97.601 43.32-7.576 29-1.356 47.8-32.277 40.67-32.146-7.41-28.576 96.91-37.092 104.9-5.206 1.19-12.325-.18-17.799-.87-1.697-30.39 1.436-60.67-.326-90.96-.991-17.03-30.492-21.54-25.798-31.1 11.782-23.98 26.006-48.61.113-70.38-22.828-19.2-62.512-30.58-84.227-1.1-13.156 17.48-22.181 41.72-19.417 63.63-10.771.27-25.049 2.25-34.789 1.61-1.828-2.45-1.247-1.72-1.298-5.44 4.037-2.71 18.212-2.5 23.748-2.65.361-15.25 3.133-28.5 9.784-42.32 6.977-14.5 19.191-30.77 35.083-36 6.477-2.13 12.994-2.78 19.856-5.23 4.634-8.02-24.784-62.991-34.737-68.676-16.003-9.141-41.31-6.342-58.545-3.613a14231 14231 0 0 1-15.801-531.282c-.258-47.29.009-94.667.494-141.955.322-31.401 2.759-63.518 2.961-94.754 11.922.546 34.314-1.914 46.985-2.754a1644 1644 0 0 1 68.083-2.804"/><path d="M531.739 971.07c23.742-2.844 60.396 5.405 70.988 30.06 5.243 12.2 1.528 31.19-3.455 43.1l3.888 12.63c-34.807 18.94-43.838 62.79-50.603 98.64-32.332-4.03-35.439 6.09-42.022 36.57-3.681 17.04-6.313 34.32-8.766 51.63-.582 4.84.141 12.39-3.724 15.43l-1.826-.83c-4.154-9.38 3.219-73.7-2.193-90.09-4.091-12.38-12.47-16.06-23.06-22.42q.639-.675 1.246-1.38c8.533-10.02 12.806-36.78 11.358-50.14-2.554-23.56-17.317-24.7-31.893-36.6l-.852-.7c10.603-17.33 16.764-18.9 36.772-18.66 6.134-30 12.154-56.552 44.142-67.24m182.899 9.284c3.951-.692 8.45-.325 12.28-.623 33.72-2.621 55.536 14.532 59.194 48.549 1.148 10.67 2.557 17.85-1.206 28.51 7.079 2.22 13.506 4.75 20.402 7.43-7.443 2.78-13.587 5.49-19.881 10.51-22.258 17.75-26.882 62.82-29.984 89.6-6.531.67-10.927.49-16.67 4.27-12.012 7.92-14.442 30.77-16.832 44.62-.941 6.48-2.132 12.07-3.5 18.45-.908-7.2-1.489-15.1-1.667-22.34-.716-29.16-1.227-41.11-31.603-48.55 1.649-33.98 21.05-77.33-21.729-97.2-3.961-1.84-8.402-3.18-11.972-5.59.64-6.72 13.032-4.13 13.589-7.32 6.267-35.91 8.247-63.929 49.579-70.316M589.547 295.681c9.731 2.295 19.741 16.699 26.494 24.339 15.086 17.064 29.419 34.88 44.415 52.056-.402-13.144.623-26.4.424-39.576-.099-6.504-1.469-18.088 6.458-19.95 7.908 6.442 1.809 54.514 3.013 65.658.303 2.802-.15 7.093-1.187 9.839-2.752 2.882-1.354 2.049-5.406 3.005-10.122-5.222-52.188-59.904-62.826-72.053 2.802 15.395 28.176 84.836 16.527 93.875-9.493.676-42.14-32.747-55.169-41.147 7.881 14.001 70.921 101.761 71.642 106.505-.679 3.17-.546 4.112-2.876 6.04-5.209 1.187-10.779.049-15.839-1.36-40.831-11.373-85.281-16.271-125.866-27.77 11.811 11.921 99.998 83.841 101.864 90.362-.269 2.705-.187 5.478-1.816 7.525-7.357 2.833-30.669-1.51-39.681-2.665-17.524-2.805-42.105-5.64-59.745-7.028 16.446 10.197 32.163 22.495 48.823 32.494 3.94 2.365 9.284 3.917 9.838 8.736-2.479 2.487-2.374 3.246-5.184 3.822-6.953-3.057-76.717-48.047-78.822-51.172-1.59-2.362-1.233-3.576-.697-6.117 6.551-3.811 90.806 7.904 103.809 9.54-16.926-15.359-98.944-83.328-105.372-95.033.681-2.855.372-1.903 2.618-4.266 11.336-.912 44.472 6.938 57.44 9.609l90.326 18.712c-17.38-27.615-36.484-54.335-53.388-82.225-5.268-8.691-22.358-31.388-21.132-40.366 6.658-7.651 27.109 13.726 33.302 18.949a4929 4929 0 0 0 38.604 31.943c-8.641-30.748-14.553-64.067-23.993-94.908-.848-2.772 1.809-5.365 3.402-7.373m880.633 678.654c6.08-.798 13.14-.895 19.26-.263 61.1 6.305 55.67 39.388 50.56 89.208-31.27 10.18-46.85 18.57-51.5 53.96-.44 4.46-1.64 10.57-2.4 15.12-9.69-16.87-13.94-40.93-25.42-57.2-9.18-12.98-21.04-14.65-35.48-17.07 3.54-30.05 6.13-79.065 44.98-83.755M351.334 251.412c22.727 9.067 64.973 49.983 89.659 64.414-1.297-8.466-8.502-42.491-3.48-47.967 12.276 2.323 55.979 64.106 65.258 76.427 1.491 1.98 1.813 9.325 1.816 12.274-2.397 1.177-2.972 1.267-5.603 1.88-7.046-1.415-20.358-13.505-27.871-18.856 2.261 9.832 11.54 36.088 3.979 43.031-4.32-.406-9.958-6.32-12.639-9.588-28.113-34.269-55.075-68.839-90.194-96.436-6.958-5.467-16.886-13.268-22.575-19.557-.582-3.323-.64-2.024 1.65-5.622"/><path fill="#fefefe" d="M448.793 291.637c5.848 5.367 28.81 36.367 34.285 43.672-5.534-4.853-16.577-16.676-23.375-9.932-2.668 7.152 1.306 19.726 3.098 27.395.552 2.12.847 2.417.204 4.517-1.576-.827-27.487-31.974-29.745-34.72 6.261 3.956 12.283 9.715 19.011 4.321 2.994-6.661-2.816-24.358-3.478-35.253"/><path d="M1674.73 386.267c3 .595 3.23.528 5.25 2.643 1.01 6.206-57.43 121.501-64.77 136.474-11.6 23.644-36.1 61.863-49.17 87.109-.98 1.439-.35.83-2.2 1.482-1.2-4.552 1.7-8.625 3.73-12.616 18.14-35.779 33.25-73.046 50.75-109.169a1795 1795 0 0 1 56.41-105.923m-51.24-80.721c3.19.022 4.36.728 5.62 3.436.39 10.89-46.7 96.307-54.2 111.523-10.24 20.772-27.22 69.822-39.93 86.602-2.8.125-1.5.425-4-1.103-3.03-9.187 38.27-89.644 45.1-103.705 12.07-24.851 29.58-78.484 47.41-96.753m53.87-30.055c22.09 3.745-45.55 92.996-53.48 103.859l-1.94 1.653-.97-.883c.79-10.571 45.55-93.776 56.39-104.629m-97.77-18.952c1.57 1.265 2.6 2.784 2.94 4.796.53 3.053-28.11 70.125-32.21 78.728-3.02 6.329-6.12 12.578-10.4 18.163-15.51-6.215 20.39-65.978 24.98-76.563 2.99-6.877 10.3-19.287 14.69-25.124"/><path fill="#fefefe" d="M985.378 465.961c7.713 7.008 15.932 22.515 23.882 30.12 22.8 21.832 44.13 48.933 66.43 70.675l-3.19 10.778c7.22-2.13 14.91-4.467 22.41-3.304 23.6 3.661 24.27 33.906 6.58 45.348-10.99 7.112-19.12 7.285-31.57 5.082-12.46 16.367-17.92 23.425-32.41 37.688 3.74 22.053 19.08 51.447-.82 69.7-18.45 7.485-30.76-.223-43.514-13.208-2.781-11.596-3.199-27.031-7.914-38.097-1.182-2.541-3.933-4.498-6.591-5.232-21.869-6.041-66.165-3.854-77.4-28.155-10.295-22.269.313-61.798 7.885-84.712 15.147-45.835 31.931-74.555 76.222-96.683"/><path d="M925.86 596.243c16.627-1.309 36.855 2.432 47.526 16.824 4.926 6.642-3.31 14.317-8.901 17.341-13.626-.015-70.724-20.343-38.625-34.165"/><path fill="#fefefe" d="M930.925 607.23c10.306.415 25.519 1.268 31.313 11.291-7.051 1.719-24.86-7.499-31.313-11.291"/><path d="M976.287 536.8c2.325 2.813 1.708 1.275 2.224 4.637-3.202 7.441-17.841 17.763-24.739 22.118 2.254 3.71 5.16 7.778 5.858 11.979-.89 3.398-.336 2.198-3.491 4.772-3.666-3.136-11.785-12.646-9.659-16.228 4.456-7.509 22.737-23.83 29.807-27.278m25.203-12.435c9.2-.176 35.32-3.601 36.26 7.55-2.06 2.66-1.77 1.804-6.37 2.467-8.39-.679-34.521.397-39.001-5.687l.891-2.238c2.428-2.226 4.775-1.884 8.22-2.092m-56.482-24.496c10.225.57 29.917 11.374 36.665 19.532 1.398 1.691.256 4.36-.177 6.337-8.376.289-24.131-12.82-31.114-17.679-3.459-2.406-4.702-4.075-5.374-8.19m142.322 89.117c3.94-.164 5.58-.289 8.4 2.48l-.4 1.937c-2.36 3.126-5.12 3.331-9.05 4.43-2.5 1.426-3.65 1.513-6.02 1.042l-.96-1.984c1.18-5.48 2.84-6.19 8.03-7.905m-90.924-48.507c4.464.732 5.854.726 7.864 4.929-.05 4.084-1.26 5.605-3.17 9.222-4.645-.474-4.894-.627-7.052-4.537-.234-4.085.833-5.82 2.358-9.614m-50.631-20.998c4.233.38 5.149.642 7.238 4.414.13 3.744-.561 4.549-2.427 7.871-3.73.447-4.717.526-6.791-2.646-.187-4.118.669-5.763 1.98-9.639"/><path fill="#fefefe" d="M1055.56 730.851c1.24 1.404 4.35 19.608 5.07 23.179 21.04 104.001 35.08 209.097 49.97 314.1 4.48 31.53 11.78 63.63 11.59 95.55 35.31 6.86 39.39 19.84 45.12 54.23 3.42 20.53 6.66 42.38 7.4 63.24-1.99 2.03-1.03 1.45-4.42 1.74-5.1-2.77-8.57-89.67-21.18-100.89-14.09-12.55-25.15-11.99-43.88-14.72 3.91-7.84 8.11-16.64 7.96-25.72-.38-24.32-4.32-60.68-31.62-69.38-20.85-6.65-40.66 6.52-58.57 15.91-10.74 5.86-16.1 11.8-19.25 23.76-5.868 22.25-.82 37.26 9.14 56.69-32.512 11.17-36.176.43-45.237 43.29-1.565 7.41-9.915 66.44-11.235 68.79-4.393.27-3.076.81-6.361-1.17-3.581-8.01 10.471-78.65 14.498-89.37 3.951-12.41 7.276-20.75 21.21-23.26 18.055-3.26 10.265-10.91 8.652-22.27-7.233-50.96 12.853-55.56 48.853-77.5-9-83.004-20.47-165.724-34.4-248.049-4.74-27.261-8.972-54.613-14.715-81.682 22.455 12.993 44.665 17.05 61.405-6.468M737.318 456.373c2.735 1.522 9.186 9.206 11.766 12.088 21.686 24.222 47.402 41.808 72.96 61.372-11.118 26.233-10.012 32.523-27.909 58.884l-14.621-5.114c-25.076-7.396-63.311-13.932-89.221-9.685 4.477-8.539 12.568-20.309 17.739-29.234 17.979-31.029 25.033-53.344 29.286-88.311m-21.291-23.815c12.617 6.014 2.446 50.193-1.774 61.442-11.312 30.157-31.686 77.283-61.881 92.418-1.898 1.036-.866.681-3.313.464-4.547-6.39-1.027-30.506.819-38.559 8.768-38.259 32.568-93.899 66.149-115.765m512.763 60.69c5.81-.012 16.13 2.146 19.87 6.825 1.7 10.127-17.92 8.623-22.26 15.067.82 3.146 16.32 20.166 18.29 25.762.38 1.08.88.89 2.37 1.437l1.97-1.393c3.49-11.337-11.56-18.024 5.64-25.241.72-.304 5.16-5.079 6.1-6.107 2.51 1.262 9.39 2.479 10.18 3.506 3.85 5.015 3.56 6.798 9.53 10.199 2.94.739 3.86.771 6.28 2.459.26 3.535-5.48 12.503-7.29 21.207-18.79-.298-35.15 1.813-52.93 7.607-10.27-22.132-46.52-51.162 2.25-61.328m496.5 570.202c.94-.05 1.67.23 2.65.46l.56 2.95c-4.49 4.29-27.84.59-42.31 13.11-17.75 15.35-20.57 48.69-22.83 71.61 40.57 14.13 40.93 55.34 53.1 90.93 2.71 7.93 7.28 22.18 8.18 29.76-2.02.99-2.72.65-4.93.27-4.74-4.49-19.75-67.54-24.41-78.57-3.94-9.32-4.67-11.4-10.89-20.98-1.22-1.36-2.47-2.7-3.75-4.01-12.01-12.1-25.44-12.9-41.21-13-4.47-25.79-8.52-61.91-29.09-80.07-3.47-3.07-10.02-6.71-14.16-9.17l16.49 1.67c23.17 18.25 26.24 51.63 32.13 78.48.22-.14.45-.28.67-.43.37-.25.73-.5 1.09-.75 14.45-9.78 10.33-44.27 28.11-64.11 13.54-15.12 31.5-17.22 50.6-18.15M833.747 536.267c19.82 14.413 38.809 13.961 22.829 44.997-5.2 10.098-10.549 16.657-19.434 23.767-7.277-2.376-18.58-8.461-28.031-11.753 11.056-14.814 22.465-38.721 24.636-57.011M776.9 621.174c7.62.653 11.058-.06 20.269 1.194 41.531 27.077-34.21 73.341-42.958 68.145l1.351-2.166c10.138-11.686 15.48-16.113 20.69-30.783 6.424-3.226 21.436-11.516 9.907-18.731-9.555-5.98-17.226 14.661-23.764 10.006-1.124-3.664.925-11.746 1.854-15.803 1.427-6.225 7.416-9.181 12.651-11.862m495.31-156.097c3.72-.33 5.91-.795 8.28 2.323-1.27 3.57-20.85 15.247-26.76 20.127-3.63-1.791-8.45-3.176-12.37-4.462 9.2-9.404 17.98-15.02 30.85-17.988m16.64 14.104c1.9 1.451 3.87 5.936 5.09 8.268-14.84 4.651-15.98 11.757-27.07 16.175-13.96-12.081 13.23-22.06 21.98-24.443M728.332 640.522c3.694 2.945 24.762 26.372 25.151 30.331l-1.957 1.784c-6.322-3.519-24.301-17.631-27.448-23.987.049-3.293 2.183-5.331 4.254-8.128m522.578-184.731c2.2-.423 4.43.16 6.69.529l1.08 1.591c-4.55 5.41-18.74 13.476-26.1 20.979l-.95.973-1.67 1.299c-3.36.203-1.81.562-4.76-1.218l-.19-2.424c4.84-8.774 17.26-16.825 25.9-21.729m44.39 42.277c4-.217 5.92-.606 8.63 2.53l-.29 2.554c-3.38 5.607-7.69 8.46-13.32 11.449-3.66.312-5.4.562-7.92-2.283-.08-6.738 7.67-11.402 12.9-14.25M747.076 603.696c3.994 3.391 9.033 8.884 12.801 12.756l-8.245 8.465-.683.718c-2.009-1.288-2.787-2.981-4.228-4.686-6.487-7.673-4.481-10.525.355-17.253m2.803-14.006c4.507.617 14.511 3.345 19.324 4.507 1.162 4.058 3.641 11.742 2.859 15.564-3.482-.654-19.999-13.971-22.5-16.875zm-26.567 74.882c4.501 1.999 19.009 13.662 22.291 18.049 1.521 2.033.508 3.429-.155 6.197l-2.42.785c-7.019-2.542-15.744-18.379-19.716-25.031m11.496-39.062c7.399 3.215 12.629 9.485 11.447 17.907-6.437-2.78-12.742-10.447-11.447-17.907"/></svg>