<svg xmlns="http://www.w3.org/2000/svg" preserveAspectRatio="none" style="display:block" viewBox="0 0 2048 1462"><path fill="#fefefe" d="M0 0h2048v1462H0z"/><path d="M1544.21 43.37c13.89-.214 50.24-2.836 59.5 4.294 5.84 12.516 6.01 87.034 6.4 104.715l2.91 120.467c1.37 55.744 5.45 112.678 6.15 168.53 16.98-11.656 22.68-16.768 43.55-18.251 3.13-9.573 4.71-14.56 6.74-24.486-15.01 1.489-24.64-.476-31.46-15.563-12.38-27.4-3.67-58.901.91-87.084.59-4.927-1.36-14.158 1.03-18.621 14.5-27.091 64.68-34.543 90.5-23.79 17.97 7.48 35.07 23.568 41.91 41.561 5.76 15.152 4.26 28.518-2.17 43.018 7.48 6.406 17.85 12.275 22.46 21.077 14.99 28.618-4.66 52.236-28.23 65.709 10.17 9.774 17.61 20.912 20.46 34.857 8.32 40.257 6.56 81.415 6.89 122.205.41 50.021 2.71 100.02 7.69 149.792 1.28 12.878 4.8 28.223 5.11 40.825-2.23 3.582-2.55 2.889-6.86 4.809 6.07 19.874 8.16 45.533 8.53 66.293 1.12 62.269-1.52 125.06-3.42 187.293-1 40.31-1.5 80.64-1.49 120.97.19 66.56 3.89 133.4 5.22 199.94.06 2.86-5.48 5.51-7.66 6.9-1.39 3.03.54 20.65.89 25.24 38.77-4.31 79.07-6.86 118.03-9.8 2.65-.2 5.26 2.12 6.79 4.09.77 3.67 1.02 2-.58 5.21-1.18.84-2.59 1.82-4.09 1.95-39.44 3.48-79.37 4.91-118.75 8.97-2.43 2.43-7.39 5.98-10.85 6.39-51.15 6.1-102.68 8.35-154 12.28l-94.14 7.4c-19.14 1.52-40.01 4.53-59.11 2.97-3.34-.28-12.11-.59-14.31-3.3-1.6-1.97-3.16-4.5-2.33-7.19 3-9.72 60.55-33.25 72.54-41.17-4.9-14.97-5.79-55.09-6.17-71.96-1.03-78.42.66-156.85 5.06-235.15-113.57 4.72-227.57 12.78-340.81 17.33l-1.25.14c-13.94 1.49-34.08 1.92-48.7 2.88-40.94 2.97-81.91 5.39-122.91 7.25l-301.018 14.54c-38.584 1.89-78.823 5.42-117.986 7.51l-276.538 12.16-81.91 2.93c-17.4.74-34.784 1.67-52.19 2.13-7.982.21-11.729-2.57-12.157-11.13-3.167-63.4-6.625-126.721-9.392-190.143l-10.666-223.924a19671 19671 0 0 0-37.706-612.33c-.529-7.492-2.642-21.044 8.034-20.906 14.033.18 28.107.07 42.144-.033q48.184-.271 96.358-1.156L1039.49 51.41l296.22-4.538c14.38-.16 29.67-.491 44.03-.054 55.09 1.674 109.44-1.178 164.47-3.449"/><path fill="#fefefe" d="M1561.6 61.46c9.13-.35 18.27-.492 27.4-.427 1.12 22.366 1.16 46.29 1.87 68.865l5.24 150.703c2.01 54.932 6.51 116.742 6.99 170.995-10.62 7.463-19.8 13.163-31.44 18.882-2.21-21.288-1.61-46.369-2.73-68.006-1.34-25.9-2.45-52.058-3.6-77.888-.41-9.02-1.17-40.601-3.39-47.817-11.97-15.283-105.23 19.913-93.31-35.443 7.99-37.09 70.38-20.305 88.54-31.547.7-1.834 1.14-3.706 1.38-5.653 1.48-11.765-1.28-106.46-5.37-110.928-2.03-2.217-8.62-2.391-11.56-2.47-16.55-.442-33.24.53-49.8.747-36.61.125-73.22.655-109.82 1.59l-277.95 5.793-321.533 5.82c-45.009.807-90.053.934-135.073 2.318-8.026.247-8.28 8.884-8.327 14.881-.203 25.552 10.173 60.606-9.183 81.172-3.502 3.72-11.731 6.224-17.064 6.18-43.948-5.292-20.478-82.865-33.039-98.491-5.596-2.791-121.444 2.067-134.178 2.281q-77.94 1.217-155.864 3.257c-27.476.559-55.028.753-82.497 1.465-2.237.058-4.576.104-5.935 1.86-1.38 1.782-2.576 4.957-2.456 7.121.701 12.721 1.205 25.647 1.859 38.357a5908 5908 0 0 1 3.426 71.525 27009 27009 0 0 0 17.91 324.557c4.598 5.981 15.01 3.769 22.065 3.852 18.391.215 37.711-2.814 55.695 2.256 17.385 4.901 25.031 21.916 18.615 38.44-10.462 25.812-47.084 21.064-69.413 23.236-6.704.653-13.196-.364-19.567 2.342-3.082 3.294-2.57 6.288-2.351 11.346 1.118 25.873 2.836 51.808 4.197 77.672l8.489 168.983a5532 5532 0 0 0 6.862 125.204c1.213 20.46 2.112 42.23 4.453 62.63.344 3 1.789 3.7 3.908 5.72 13.64 1.91 50.023-2.42 66.163-3.02 31.767-1.19 64.153-2.07 95.885-3.45a26206 26206 0 0 0 354.458-16.92c58.251-3.4 117.558-9.11 175.689-11.75 61.756-5.65 128.056-2.35 190.946-5.48 134.71-7.69 269.34-16.61 403.88-26.77-1.63 11.32-2.02 21.16-2.58 32.6-17.35.26-37.08 1.88-54.68 2.76l-114.34 6.08-324.05 18.34-849.589 42.14c1.816-51.44-2.326-98.63-4.726-149.983l-12.469-255.732a15545 15545 0 0 0-21.393-391.633c-4.763-76.167-7.56-152.226-17.488-228.005 30.01-1.95 65.284-1.542 95.887-2.354l167.473-5.543 253.578-6.482c9.473-.301 19.168-.765 28.616-1.426 69.387-4.856 138.887-3.75 208.331-6.474 19.473-.764 39.196-1.415 58.686-1.668l377.504-4.333c78.31-.669 152.07.199 230.77-2.276m221.54 717.908c1.07-.217 2.71-.232 3.85-.291 8.01 12.06-.12 191.938-.75 217.404-1 41.438-1.56 82.878-1.69 124.328-.07 76.08 1.67 153.42 11.89 228.88a646 646 0 0 1-55.85-.68c-2.19-8.16-3.92-25.61-5.38-34.51-4.76-28.95-7.76-58.17-11.19-87.31a4031 4031 0 0 1-18.67-188.4c-1.33-17.9-4.48-45.354-4.57-62.361-.05-10.387 5.82-42.136 7.67-54.354 5.01-32.948 8.01-68.969 13.52-101.444-5.84-1.47-9.64-1.746-15.66-2.306-2.4 10.337-4.84 32.664-6.41 43.869a4674 4674 0 0 1-11.7 78.123l-50.57 292.133a8230 8230 0 0 0-13.45 84.17c-2.17 13.83-5.32 37.23-8.85 50.29-19.6 1.68-43.96 1.92-63.84 2.14-6.49-124.82.38-259.2 11.37-383.55 6.06-68.515 15.72-136.508 21.27-204.843 60.2 8.063 138.59 7.309 199.01-1.288"/><path fill="#fefefe" d="m1298.65 716.438 4.51-.298c2.41 1.497 2.66 3.27 3.21 5.98 3.17 15.679.21 105.947 6.62 112.508 4.93 5.053 49.12-1.489 59.5-1.262 9.79.214 22.24 1.845 29.15 9.597 4.33 4.86 6.34 12.502 5.72 18.967-3.77 39.571-78.58 28.55-90.53 38.339-3.17 9.108 1.4 96.617 1.45 114.601-28.65 3.14-57.93 3.92-86.66 5.86.59-27.842 3.8-106.412-40.35-99.926-37.18 5.462-27.05 78.094-22.54 102.966-29.35 1.28-54.78 3.56-84.64 3.77-5.01-.31-10.76-.19-15.84-.21-.98-7.35-1.2-15.39-1.56-22.84-1.38-28.113-2.6-56.087-4.71-84.164 24.64-1.44 69.4-.664 83.27-18.671 33.53-43.524-14.25-68.253-54.38-59.99-6.2 1.276-26.54 1.457-31.74 1.541-2.47-34.698-4.74-80.217-5.49-115.09 22.48-2.335 45.13-2.472 67.68-3.91 9.21-.588 18.43-1.055 27.67-1.061.29 23.935-.51 70.553 17.97 87.419 12.23 10.609 31.6 8.644 41.38-3.994 16.09-20.815 12.49-61.139 9.53-86.419 26.4-.843 54.43-2.22 80.78-3.713M427.384 129.564c11.921-.856 26.534-.668 38.966-1.177 2.43 33.432 5.272 74.925 5.96 108.138a4870 4870 0 0 1-72.903 2.503c-4.781 5.557-16.456 22.983-19.81 29.259-8.089 15.139-54.71 78.434-49.255 91.872 6.183 5.403 17.643 3.968 25.456 5.989 8.358 2.163 13.02 7.457 17.233 14.699 12.898 22.175 21.551 101.656 14.459 126.859-2.25 7.996-6.359 16.291-14.073 20.248-4.835 2.481-12.478 3.399-17.707 1.396-8.879-3.401-13.91-13.588-17.36-21.797-5.021-13.429-5.978-32.692-7.134-47.191-.531-6.666.913-22.195-1.283-27.503-10.151-4.656-79.175 1.177-98.791-.023a16150 16150 0 0 0-16.419-297.201c20.471.783 57.092-.826 77.558-1.532a8772 8772 0 0 1 135.103-4.539m298.222 298.965c7.36-.73 18.597-.832 26.243-1.133.63 34.812 2.614 75.757 5.971 110.418-16.095 2.157-42.424 2.731-59.383 3.556-4.859 9.325-15.202 25.059-20.959 34.398l-40.288 65.531c-5.264 8.629-17.071 26.826-20.344 35.51 15.045-3.48 29.023-6.622 41.568 5.161 16.821 15.798 17.743 44.98 18.812 66.577 29.058.463 64.136-3.676 94.83-3.646-7.715 17.947-29.907 50.438-43.446 65.247-14.569 15.954-33.092 28.821-55.435 29.147-52.834.769-55.231-60.604-55.282-99.57a731 731 0 0 0-31.645 1.165l-72.118 3.342c-2.159-37.936-3.957-77.389-6.897-115.196 25.083-1.242 66.117 1.749 83.504-15.92a38.32 38.32 0 0 0 10.986-27.716 38.1 38.1 0 0 0-11.489-26.944 34.5 34.5 0 0 0-16.195-8.762c-10.796-2.486-57.811.433-73.011.636-.1-11.266-1.717-27.128-2.458-38.642l-4.71-76.347c28.26-.929 72.414-.367 99.059-3.188q.11 2.891.277 5.78c.724 12.445 2.834 28.395 3.366 42.342 1.186 31.071 26.497 67.539 56.607 37.887 16.749-16.494 9.244-62.702 6.601-87.266 20.228-1.497 45.197-1.763 65.836-2.367m265.634-10.018c6.318.454 26.55-.739 33.9-.974 1.5 12.385 1.99 30.622 2.62 43.345q1.83 31.602 2.7 63.244c-26.2 3.206-58.473-1.363-78.699 19.155-14.693 14.454-15.173 46.756.434 60.604 20.569 18.251 59.755 11.692 85.555 10.345.34 33.882 4.03 68.542 4.43 102.67a5588 5588 0 0 1-87.859 3.458c-.47-25.413-1.453-63.002-19.333-82.648-12.214-13.419-38.069-8.915-49.135 3.85-17.384 20.054-16.14 59.619-15.271 84.548a2479 2479 0 0 1-53.333 2.705c-12.466.175-23.968 1.192-36.88 1.141.177-10.525-1.224-27.474-1.758-38.575l-3.61-73.404c26.518-.976 63.774.821 83.866-18.81 15.187-14.837 13.719-37.514-1.359-51.828-21.17-20.095-57.63-10.743-84.216-10.06-.367-36.031-3.496-73.731-4.576-110.023 26.414-1.49 64.246-4.21 89.999-4.134 1.67 23.086 3.302 64.435 20.799 79.556a36.6 36.6 0 0 0 26.958 8.818c44.51-3.883 40.247-59.017 36.557-91.059a3244 3244 0 0 0 48.211-1.924M819.525 119.324l8.771-.231c5.478 10.012 14.255 26.224 20.503 35.382 21.419 31.395 55.78 59.335 90.118 75.397-17.275 17.79-24.106 40.998-5.306 61.269 19.862 21.415 59.967 14.146 87.019 15.108 1.11 31.546 2.62 63.076 4.54 94.583a4804 4804 0 0 1-82.88 3.113c-2.944-21.22-3.064-36.547-8.162-58.064-3.355-9.61-6.612-17.82-13.298-25.709-10.789-12.823-34.516-14.702-46.519-2.576-23.184 23.42-16.103 59.838-16.654 89.023-29.512 1.654-61.594 1.649-90.567 4.128-3.868-96.318-10.443-191.884-12.979-288.594a807 807 0 0 0 65.414-2.829M495.323 759.422c3.12-.359 9.303-.317 12.672-.395.648 5.667 1.107 11.87 1.35 17.56 1.331 31.246 4.011 62.939 4.465 94.178-26.212 3.211-66.939 2.041-87.203 20.781-12.081 10.575-11.646 36.011.627 46.051 20.493 16.767 64.934 9.32 90.291 8.431 1.254 36.07 4.042 71.452 4.572 107.832-10.25.93-20.526 1.56-30.814 1.89-38.938-30.7-80.306-67.086-118.195-99.474-37.884-33.492-82.006-65.516-118.984-99.871-.875-27.734-3.245-57.703-5.112-85.486 6.29-.721 14.055-.982 20.408-1.136 22.362-.539 45.15-2.79 67.466-2.685 2.345 31.089.574 68.193 26.45 90.153 14.82 13.432 37.504 10.634 49.527-5.254 16.241-21.461 10.834-62.973 7.804-88.914 24.516-1.885 49.997-2.506 74.676-3.661m903.237-424.805c3.43 3.045 8.64 26.208 8.98 30.906 4.66 64.436 15.38 139.067 63.48 186.668 24.61 24.356 54.03 27.892 87.4 26.374 2.94 34.14 2.12 71.705 4.66 106.415-23.32.548-49.69 2.573-73.14 2.188-.28-.005-3.05-.555-3.06-.62-4.41-25.862.37-56.346-16.45-78.713a40.27 40.27 0 0 0-27.04-15.562c-30.46-3.752-40.6 24.457-42.9 49.214.48 18.408 2.66 36.535 3.01 55.042-27.52 1.676-61.78 3.325-89.13 3.436-.05-29.635-2.79-67.696-4.1-97.783 22.94-.747 53.64-3.973 73.63-16.392 19.22-11.665 24.27-40.825 11.21-58.761-20.94-28.766-61.89-15.063-89.6-20.46a5310 5310 0 0 0-4.12-60.442c-.45-5.908-4.76-35.563.75-37.876 12.22-5.122 84.3-1.37 90.71-6.834 6.62-12.605-9.01-50.311 5.71-66.8"/><path fill="#fefefe" d="M1158.29 314.051c40.62-4.152 32.1 68.443 37.29 94.678 4.05.472 9.37.697 13.53.999-6.81 12.102-13.94 24.513-21.2 36.345-29.5 48.137-54.11 98.851-80.49 148.624-32 2.084-73.3 3.945-105.26 4.56-27.007 3.467-55.028-7.653-41.16-39.159 12.173-27.657 75.52-12.481 85.82-23.236 2.7-7.867-4.2-103.28-5.01-120.428 9.74-.034 91.45-2.09 93.14-4.194 15.18-18.875-15.53-83.169 23.34-98.189M774.925 825.854c2.818 3.269 2.83 34.33 3.002 40.322 14.373-2.393 35.929-2.005 50.866-3.153 14.826-.773 32.182-.258 43.522 10.822 17.369 14.575 1.529 42.624-16.699 46.471-20.534 4.333-53.938 6.658-75.206 6.66-.261 11.388.789 26.692 1.239 38.316a1601 1601 0 0 0 4.366 77.788c-26.176-.09-56.695 2.19-83.257 3.16-22.412 2.41-46.693 1.57-69.332 3.2-14.144 1.03-29.095.39-43.094 2.6z"/><path fill="#fefefe" d="M1054.27 228.553c12.32-.688 34.81-2.527 43.82 5.871 12.59 11.725 6.37 33.042-3.15 44.051 22.37 4.637 31.36 8.289 48.49 23.269-29.8 26.795-22.17 58.427-21.05 95.471-11.92.507-72.86 4.317-80.71 2.459l-.65-2.424-3.18-67.231c-.37-8.073-.87-31.386-3.04-37.925-9.99-9.401-78.916 8.43-91.931-16.175-10.218-19.316 1.275-32.583 16.965-41.802 31.179-.686 63.186-4.264 94.436-5.564m633.66 809.077c2.22 6.35 6.16 55.22 7.11 64.93 5.36 55.05 8.79 110.63 16.67 165.39 3.39 23.54 7.91 64.72 16.46 86.13 2.88.78 6.58 1.36 8.5 3.42-4.64 3.83-11.14 6.09-16.46 8.91-18.69 9.91-41.31 15.51-56 31.21-1.4 1.5-1.38 1.03-3.97 1.31-15.04 1.72-34.68 2.52-50.09 3.55.58-9.1.15-17.23-.19-26.32 15.17-.02 19.49 1.81 23.06-15 6.47-30.42 11.22-61.02 16.58-91.63zM725.773 236.535c5.719-.356 11.851-1.63 16.219 1.813 1.501 4.588 2.203 43.062 2.573 51.132q2.823 60.63 6.369 121.223c-42.362.979-86.015 3.921-128.684 5.335l-28.346.044c23.501-39.076 48.361-78.162 72.144-117.117 6.628-10.856 33.188-56.474 39.617-62.213q10.055.061 20.108-.217M1437.3 610.111c48.13-.672 19.12 93.114 40.54 94.219 14.78.762 66.17-2.148 84.93-2.327 4.12 29.406 5.2 134.308-1.32 160.892l-1.35.482-4.1-3.523c-6.53-6.265-16.36-18.044-22.89-25.14a3523 3523 0 0 1-58-63.926c-15.26-16.968-42.37-43.816-55.65-60.987-.37-26.894-13.25-89.712 17.84-99.69m-195.98-500.566q15.6-.227 31.17-.734c1.62 24.947 2.66 50.14 3.88 75.133.53 10.926.03 22.128 1.35 32.972 1.51 12.372 71.57-2.622 89.43 12.129 5.5 4.549 8.65 11.147 9.2 18.221.54 6.972-2.46 13.902-7.03 19.056-14.38 16.233-51.6 13.108-72.15 14.468-3.99-.045-6.09.396-9.97 1.028-13.42-12.568-29.98-38.361-40.97-53.674l-82.2-116.252c21.77-1.803 54.33-1.641 77.29-2.347m-249.37 5.883c5.727-.72 12.87-.469 18.75-.438.79 32.546 3.03 68.049 4.4 100.874-21.004-.056-43.947 1.361-65.101 2.271-17.577-9.237-32.782-19.39-48.557-31.321-26.597-20.989-37.235-39.314-53.814-67.764 44.605-.547 100.959-.981 144.322-3.622M371.596 668.064c39.063-1.131 31.972 71.866 34.666 98.029 2.115 20.542 5.131 51.508-2.778 70.643-3.164 7.655-9.872 11.036-17.119 13.555-30.5-4.709-31.598-42.339-33.394-66.934-1.826-24.992-5.008-50.768-4.485-75.744.373-17.845 5.173-33.126 23.11-39.549m921.594-142.651c14.61-1.65 66.08-2.751 78.98 4.335 9.26 5.087 11.38 9.693 14.39 19.061-7.72 33.984-44.87 32.931-73.8 35.445-6.56.663-13.12 1.277-19.69 1.844-20.02 1.659-71.04 9.445-71.65-23.212-.72-38.08 45.01-35.903 71.77-37.473m150.71-228.52c22.42 15.381 10.99 89.108 19.6 101.137 5.31 2.841 76.47-.104 88.25-.11 1.27 7.4 1.41 20.979 1.76 28.956q1.05 26.336 2.52 52.654c-5.07 1.894-10.51 3.003-15.79 4.221-72.12 12.467-92.94-84.102-101.89-136.717 6.17-6.756 11.61-11.542 15.63-19.708-.72-18.015-7.55-18.796-10.08-30.433M909.905 646.017c3.663.335 8.454 1.187 11.634 3.022 6.525 3.767 9.377 13.072 11.363 19.883 7.545 25.868 16.926 122.198 4.021 143.997-3.463 5.848-8.162 7.9-14.449 9.319-13.657-.117-22.066-7.12-26.868-19.782-5.951-15.69-6.214-35.867-7.042-52.707-1.441-29.294-5.083-61.581 5.047-89.719 3.243-8.616 8.6-10.98 16.294-14.013m-17.953-319.985c2.307-.158 4.971-.481 7.246-.003 5.98 1.259 10.929 7.988 13.703 13.068 11.309 20.704 20.541 115.106 12.952 138.986-2.89 9.095-9.551 12.728-17.464 16.801a40 40 0 0 1-6.896-.604 24.47 24.47 0 0 1-16.28-10.497c-7.33-10.969-14.346-115.02-10.042-133.761 2.448-10.656 7.336-18.012 16.781-23.99"/><path fill="#fefefe" d="M1420.96 310.429c35.48-1.444 19.01 18.934 5.17 33.289-.21 3.391-.18 6.793.1 10.18a218 218 0 0 0 7.41 41.926c13.15 46.802 36.85 106.728 95.97 101.766.87 29.026 1.58 41.159 11.39 68.452-9.41-1.452-15.37-2.454-24.56-4.938-72.37-19.9-88.12-124.505-94.81-187.162-2.09-19.558-2.77-28.797-13.31-45.75-.02-4.142.01-10.258 3.38-13.136l2.24.431c6.04 7.396-.7 11.957 1.93 18.386l1.8.566c3.55-2.341 5.81-7.016 8.14-10.811-2.35-5.03-6.06-8.156-4.85-13.199m224.25-5.657c3.31 3.226 14.96 23.343 19.38 29.092-6.71 25.944 11.62 7.882 15.86 7.96 2.24 1.534 3.49 3.605 3.89 6.349 1.09 7.667-6.82 5.413-10.97 11.203-3.31 15.292 14.52 6.903 13.9 26.907-.36 11.963 13.76 30.012 24.84 33.901 1.97.692 7.31 3.16 9.08 4.628-4.4 1.751-41.27.187-49.25.035 6.39-17.705 8.28-23.402 8.28-42.094-10.35 5.251-13 7.14-24.69 6.39-22.35-20.139-13.16-57.095-10.32-84.371m-46.26 260.39c3.82 8.103-15.28 125.88-17.9 143.621l-.8.3-.46-4.237c-.59-5.92-.71-12.615-.87-18.601-1-37.168-3.68-74.659-4.04-111.814 8.85-3.053 15.52-5.49 24.07-9.269m-164.29-285.725 2.07 1.236c.71 4.79-4.73 14.93-7 19.694l-4.97.391c-1.77.701-3.55 1.268-5.36 1.877 5.32-8.139 9.52-15.218 15.26-23.198"/></svg>