<svg xmlns="http://www.w3.org/2000/svg" preserveAspectRatio="none" style="display:block" viewBox="0 0 2048 1462"><path fill="#fefefe" d="M0 0h2048v1462H0z"/><path d="M868.698 85.31c2.764-.5 24.703-.096 28.038.134 81.947 5.665 151.504 52.425 187.874 125.975 8.99 18.183 12.42 34.459 20.01 51.893 8.64 19.824 22.54 37.141 27.77 58.98 4.37 12.375 5.38 61.177 7.85 65.237 22.61 1.57 53.48-5.739 76.46-7.644 32.01-2.652 63.91-5.694 95.75-9.897 12.84-1.694 28.88-3.012 41.07-6.305-11.79-7.234-30.03-15.718-38.6-26.525-1.7-2.135-2.72-4.508-2.3-7.268 2.29-15.065 67.11-62.171 82.11-72.407 44.28-30.212 114.18-62.536 169.48-52.136 9.43-4.544 20.16-12.868 29.96-17.833 28.67-14.529 55.01-21.285 86.86-15.604 36.79 5.988 70.98 38.72 90.77 70.125 57.22 90.831 46.07 217.677 34.2 320.018-5 43.031-17.8 91.011-26.45 132.987 8.03 8.172 31.21 41.356 39.65 52.283l63.56 82.494c9.73 12.802 20.03 26.104 29.18 39.348 2.18 3.166 1.85 2.63 1.17 5.595-4.1 5.479-11.49 7.601-17.89 10.094-15.34-16.631-37.03-51.745-51.07-63.938 6.89 13.892 12.45 22.29 21.93 34.387.26 12.503-4.54 25.196-1.2 35.419.88 2.688.22 3.911-.82 6.053-11.78 9.033-59.84 18.061-77.07 23.284-16.49 4.995-35.84 9.801-53.06 15.414 3.09 7.855 8.69 18.906 12.29 26.934l21.54 49.243 73.27 167.21c6.25 14.01 46.61 101.3 44.38 107.4-2.56 2.93-2.75 3.66-7.4 4.06-12.19 1.07-25.49.87-37.75.89-24.85-.19-49.7-.23-74.54-.12l-132.5 1.21c-22.86.39-46.2 1.87-69 1.7l-125.32.06c-27.81-.06-64.03-1.26-91.16 1.66-31.75-1.27-65.75 3.64-97.49 3.76-27.03.11-52.23 1.22-79.08 2.12l-165.43 4.33c-26.848.84-53.917 1.58-80.725 3.34-17.292 1.13-36.091 4.27-53.403 6.34-32.155 3.51-64.277 7.3-96.363 11.39-52.895 6.42-107.734 11.39-160.667 17.63l-122.293 15.26c-14.121 1.78-66.018 10.51-75.67 5.42-2.444-3.64-3.165-8.24-4.242-12.6 18.212-40.85 35.743-82.51 52.966-123.8 4.581-10.98 9.432-22.6 13.201-33.82-63.225 15.54-122.88 24.68-188.137 18.92-8.891-.78-21.267-3.65-29.745-3.01-6.141 6.98 23.273 141.16 14.147 158.06-22.405 41.5-29.885-34.28-32.291-41.7l-.406-1.21c3.192-8.22.425-12.9-.835-21.6a3021 3021 0 0 1-7.442-52.22 9531 9531 0 0 1-37.327-322.894c-1.53-15.357-4.871-30.918-5.848-46.443-.236-3.738-3.127-14.307-2.734-17.201 1.738-12.799 4.464-8.683-2.803-19.495-.379-20.104-5.968-49.296-8.554-71.087l-15.781-139.064c-1.927-16.255-7.297-35.263-8.673-52.008-.166-2.019 1.258-12.608 1.453-16.109-4.189-5.343-4.273-12.484-5.155-19.066-1.627-12.147-8.107-43.692 11.464-44.97 76.308-4.985 152.225-14.402 228.51-20.839 15.759-1.33 28.08-3.58 44.086-3.111 42.283-57.294 81.48-119.782 146.591-153.355 4.584-2.364 31.621-14.403 33.3-17.992 7.822-16.714 7.809-39.277 14.5-56.958 28.902-82.648 103.075-143.02 189.056-160.647a261 261 0 0 1 31.566-4.37c7.096-.475 14.332.311 21.212-1.41"/><path fill="#fefefe" d="M605.624 335.948c.052.05.123.086.155.151 1.414 2.823-6.506 50.926-7.509 58.662-4.143 31.939-3.812 72.292 5.337 103.281 14.21 48.132 54.497 91.792 100.471 111.4 30.309 12.926 85.475 20.935 106.017 48.082 18.905 24.984 26.953 70.183 31.149 101.135 1.014 7.482 3.022 16.287 2.049 23.714-1.61-.912-13.707-21.909-15.958-25.343a263.4 263.4 0 0 0-126.672-102.365c-6.754-2.658-12.855-6.361-19.634-8.358-10.763-3.329-18.23 15.961-9.011 20.47 33.255 16.169 64.509 29.032 92.191 54.865 20.287 18.932 33.017 33.275 47.555 56.631 20.193 32.444 31.988 68.419 50.667 101.561a531 531 0 0 0 27.121 43.95c4.955 7.278 19.259 24.945 19.658 31.985-7.733 24.654-55.344 69.161-74.133 88.471-11.006 11.31-29.43 30.73-40.861 40.89-55.012-39.8-105.446-77.25-156.667-122.178a74 74 0 0 0-1.333-1.354c-3.88-3.831-20.972-18.473-24.616-20.774-9.541-6.023-64.501-57.34-69.953-56.601-41.409 5.613 31.485 60.942 41.314 69.018-5.287 7.911-19.025 42.951-23.22 53.159l-37.131 89.08c-7.311 17.89-21.679 54.27-30.242 69.62-83.92 20.26-148.905 31.85-234.942 16.96-11.216-24.1-2.647-51.71-7.187-76.96-.385-2.14 2.898-14.05 2.949-17.73 1.358-98.265 21.55-197.298 52.236-290.417 1.612-2.459.02-8.79.876-10.756 2.453-5.636 6.462-10.735 8.532-16.601 11.883-33.675 23.622-68.177 39.334-100.314 46.866-95.814 98.134-190.581 168.849-271.218 5.469-6.237 12.666-12.039 18.469-18.013 18.559-19.104 41.347-30.65 64.14-44.103m726.166 564.11c21.01-.448 65.14 4.468 87.84 6.453 44.05 3.704 88.28 4.988 132.47 3.847 13.41-.244 38.48-.475 51.48-2.328 9.13 14.544 17.97 29.376 26.8 44.126 1.82 3.038 6.65 2.343 6.83 8.019.19 5.825 2.2 14.3 6.5 18.618 3.47 2.977 8.85 2.361 13.14 2.18 12.29-.518 24.68-.755 36.97-1.021-3.09-7.312-5.19-11.501-8.95-18.433-14.08-3.134-31.91-1.146-42.49-3.512l.7-.871.06 1.32c1.77-3.175 15.75-4.049 20.15-5.239 17.05-4.616 39.86-7.968 55.79-14.944l1.22-.545c5.17 13.187 12.52 27.988 18.4 41.192a6153 6153 0 0 1 27.39 63.63l43.87 101.66c8.53 19.92 17.36 42.11 26.45 61.53 4.06 8.83 25.94 57.87 26.14 64.17-8.03 3.63-74.91 1.58-88.2 1.72l-262.51 2.49c-17.05.05-34.06-.02-51.11.18-11.06.12-27.6 1.92-38.15.35-2.5-4.1-8.54-28.04-10.42-34.61-16.36-57.18-28.95-115.42-42.6-173.32-8.89-37.69-18.88-75.512-26.87-113.243-3.12-14.771-9.32-38.938-10.9-53.419"/><path d="M1516.6 1176.48c3.67-.7 7.87-.71 10.62 2.14 3.26 10.18 21.31 63.6 20.96 70.42-5.53 2.79-32.56 1.99-40.43 2-4.56.08-9.24.41-13.18-1.73-3.25-6.24-19.68-61.58-20.37-69.56 9.95-2.31 31.69-2.81 42.4-3.27m-115.74-249.636c8.71-.233 39.71.295 46.8 3.207 5.54 6.176 21.42 63.887 21.43 71.489-7.96 1.52-42.54-.72-51.34-1.848-2.01-14.004-19.1-64.462-16.89-72.848m164.7 168.576c4.8-.3 9.8-1.01 14.35.34 5.93 5.01 22.05 55.02 27.41 67.18-11.89 1.04-24.42 1.4-36.4 1.92-5.65.15-11.68-.01-17.37-.06-5.33-13.27-21.61-56.01-24-67.74 11.02-1.09 24.46-.96 36.01-1.64m80.39-33.82c8.95.23 25.35 50.52 28.1 60.34-16.1-.39-32.21-.33-48.3.17l-2.5-.5c-4.73-3.41-21.38-50.81-23.71-58.74 11.5-1.31 34.11-1.05 46.41-1.27m-147.88-63.995c12.73.446 24.65.851 37.36-.375 4.6-.444 8.33.487 11.78 3.52 5.08 4.47 19.23 44.68 19.21 49.3-8.01 1.9-42.93 3.57-50.02.71-5.13-5.62-17.13-44.75-18.33-53.155m225.15 71.875c3.08-.53 3.26-.54 6.33-.1 4.75 4.06 20.23 44.16 23.39 52.29-14.49.27-28.66 1.01-43.19 1.07-1.94.14-8.63-1.35-10.95-1.8-2.92-8.48-18.43-45.14-16.2-50.64 6.65-1.35 31.17-.29 40.62-.82m-103.72-72.998c1.17-.135 3.81-.695 4.28-.051 6.71 9.269 18.01 41.429 21.85 51.609-12.8 2.81-32.23 2.01-45.88 2.02-1.78-.21-4.09-.07-4.78-1.22-4.55-7.65-18.32-44.15-18.29-50.981 14.63-.422 28.14.091 42.82-1.377m125.95 222.748c17.19-.71 33.27 1.39 49.94.61 2.49 4.67 7.95 14.08 6.68 19.5-.56 2.4-2.26 2.7-4.6 4.05-9.32-3.1-37.75-1.55-48.92-1.15-1.42-2.67-2.82-5.35-4.18-8.05-3.15-6.27-6.64-12.13 1.08-14.96m-80.4.23c15.69.03 30.05-.07 45.94.37 2.21 6.28 8.19 13.86 7.15 19.67-2.42 2.47-1.21 1.76-4.89 2.34-17.61-.04-32.66-.74-50.66-.04-2.73-6.29-7.24-13.82-5.58-20.07 2.76-2.58 3.6-1.86 8.04-2.27m-75.79 1.13c27.04 1.22 36.1-9.56 44.91 21.23-6.36.66-10.32 1.04-16.67.91-11.16 0-28.08-.38-38.57 1.49-2.21-5.68-7.88-16.22-5.11-21.34 2.85-1.74 3.46-1.94 6.73-2.03zm136.46-40.45c16.47-.53 40.12-.82 56.38.04 2.75 6.46 8.91 14.51 4.64 20.83-14.44-1.15-38.4 1.46-52.41-1.05-3.02-.55-8.1-14.53-8.61-19.82m-158.76 1.21c7.84.93 37.22-.08 47.24.11 1.74 5.11 6.13 15.53 3.47 20.11l-2.43.27c-9.39.36-45.63 4.86-53-3.94-1.22-1.45-3.25-11.77-2.41-14.34 3.13-2.46 2.48-1.69 7.13-2.21m113.63-1.78 13.59-.45c5.13 7.99 6.95 11.44 9.62 20.56-8.16.98-33.35 1.46-41.03.9-17.58 1.82-16.71-3.85-21.94-18.88 13.78-2.01 25.92-1.89 39.76-2.13m72.88-39.09c.94-.18 3.93-.1 5.06-.1 6.02 2.68 11.25 12.19 8.2 18.91-4.91 3.25-31.54 2.25-39.49 2.48-15.72.37-15.29-6.86-19.96-20.15 13.08-1.17 32.18-.57 46.19-1.14m-125.75.8c17.85.47 35.71.46 53.56-.04 2.04 5.17 7.26 15.26 6.46 19.71-9.54.27-18.96.59-28.64.79-8.52.17-21.43 1.92-27.77-5.31-2.58-2.95-4.36-11.22-3.61-15.15m-107.72-77.2c17.51.88 36.1.2 53.71-.06 1.95 5.55 7.17 14.55 4.06 19.34-14.29 1.76-31.22.84-45.71 1.11-9.41.18-12.82-12.98-12.06-20.39m-20.52 73.44c3.39-.18 13.78-.5 15.22 4.02 1.2 3.78 3.57 11.33 2.47 14.93-6.55 2.84-29.01 2.3-37.42 2.4-6.08.3-10.64 1.75-15.04-2.71-1.15-3.82-4.22-12.17-2.66-15.48 7.52-3.22 26.92-2.08 36.47-3.05zm-32.38-80.05c3.42.25 16.53-.92 17.93.83 18.04 22.71.66 20.51-14.85 19.84-9.27.11-19.2-.28-28.52-.51-2.08-6.03-5.1-11.92-3.01-17.77 4.88-3.99 19.4-1.85 28.45-2.39m-17.23 39.81c15.43.69 33.17.53 48.7.66 3.17 5.65 8.08 12.95 6.96 19.36-10.47-.6-41.27.17-51.53 1.24-1.98-6.33-5.7-15.42-4.13-21.26m223.71-98.758c9.11-.019 18.22.121 27.32.421 4.12 7.617 5.59 10.647 8.61 18.857l-21.26.27c-6.37-.05-25.75 3.58-29.78-.5-3.21-3.27-6.87-12.22-6.69-17.11 2.89-2.637 16.9-1.895 21.8-1.938m-245.45 19.898c15.52-.58 31.11-.09 46.68-.23 2.35 5.68 6.84 14.31 5.48 19.72-10.59-.22-41.66 1.38-49.44-1.23-3.6-2.79-6.99-14.23-2.72-18.26m133.34-55.665c10.79 2.536 39.78 1.144 52.14.878 1.34 5.096 5.55 13.296 3.28 17.568-6.03-.022-11.98.657-17.95.756-21.83.366-34.28 7.786-37.47-19.202m106.52 71.315c15.44.03 32.19.37 47.53-.25 2.45 4.44 8.82 14.65 6.17 18.96-12.5-.36-24.79.32-37.28.51-12.29.19-18.09-7.65-16.42-19.22m-103.25-104.599c10.06-.353 25.17-.775 34.82.327a599 599 0 0 1 7.04 17.861l-10.35.377c-9.21.108-33.37 1.304-40.65-1.8-2.59-2.92-4.93-11.814-6.28-15.985zm-77.21 34.612c9.38-.722 39.61-.194 49.12.565 2.81 6.206 5.97 11.666 4.6 18.402-5.37-.808-39.16-.575-47.55-.952-3.15-6.609-4.55-10.942-6.17-18.015m-10.88-35.397c16.35.664 32.7 1.053 49.06 1.167 2.57 6.224 4.68 10.729 4.51 17.471-5.31-1.33-39.2-.172-47.16-.222-2.33-5.933-5.06-12.229-6.41-18.416m-76.66 158.794c2.52.03 3.34-.18 5.52 1.13 4.7 5.9 10.39 28.08 11.84 35.95-3.74-.09-6.12.14-8.75-2.02-2.29-6.11-8.86-28.98-8.61-35.06m15.94 3.33c2.71.03 3.95-.2 6.38 1.06 5.35 6.06 9.97 24.62 9.96 32.75-3.14-.06-4.13.22-6.64-1.4-5.01-6.42-9.42-24.51-9.7-32.41m24.61 92.04c2.68-.01 5.81-.44 7.87 1.02 2.65 5.32 9.3 22.86 8.22 28.34-1.51.25-5.11.87-5.89-.09-4.6-5.64-9.12-23.02-10.2-29.27m-43.21-164.05c5.41 1.84 5.79 2.18 8.55 8.02 2.68 5.69 5.87 15.75 3.82 21.76-1.46-.13-3.1-.4-4.56-.61-3.95-3.96-10.29-23.82-7.81-29.17m7.84 38.12c1.14-.04 4.29-.14 5.23.19 6.93 2.43 10.27 17.78 9.07 23.26-3.45.64-3.79.88-6.94-.29-5.72-5.59-6.04-15.07-7.36-23.16m20.98 125.62c1.52.12 3.22.39 4.75.59 2.34 2.43 10.13 21.78 12.02 26.18-1.2.01-2.55-.06-3.74-.05-8.79.02-13.64-19.74-13.03-26.72m-43-160.17c1.04.25 4.09 1.02 4.63 1.62 4.23 4.78 8.33 20.37 9.93 25.9-1.14-.04-2.43-.15-3.56-.19-8.9-.27-11.6-20.65-11-27.33m7.15 33.34 5.2.25c4.91 3.24 8.48 17.8 10.39 24.07-3.05 1.16-3.22 1.35-6.3.76-5.35-4.22-7.28-17.6-9.29-25.08m-.08-64.416c2.14.333 4.04.153 5.19 1.867 3.43 5.134 6.58 18.299 6.1 24.209-11.4-1.77-12.59-16.83-11.29-26.076m-14.63 1.182c1.35.209 2.98.63 4.34.935 4.73 4.061 6.23 15.729 7.53 22.089-11.83 1.17-11.45-14.08-11.87-23.024m63.27 226.224 5.19.31c5.6 3.14 7.38 12.27 6.62 18.1-10.65-.82-10.36-9.35-11.81-18.41m-51.89-256.569c4.9 1.722 7.1 8.077 7.48 12.966.33 4.2-.37 4.21-2.99 7.167-6.18-2.359-7.59-10.463-7.76-16.551-.04-1.605 1.93-2.523 3.27-3.582m47.98 179.409c6.7 3.78 10.4 12.54 4.74 18.92-2.31-.54-2.35-.62-4.46-1.74-4.02-6.79-5.82-10.87-.28-17.18m-64.68-178.015c8.98-.102 8.32 9.152 12.23 17.472-12.93 1.319-11.9-7.133-12.23-17.472m83.56 256.375c1.32-.04 4.09-.2 5.02.45 4.59 3.26 7.27 11.91 4.76 16.37-8.41.31-11.28-10.8-9.78-16.82m-77.89-295.176c11.4-.315 10.17 5.02 11.84 15.388-3.6-.073-5.12.256-8-1.724-2.77-3.524-3.1-9.027-3.84-13.664m-13.57-2.351c9.35 1.376 8.56 9.984 7.8 17.84-8.67-1.415-7.72-10.746-7.8-17.84m54.56 223.347c10.5.66 9.36 3.78 10.59 13.67-3.25-.09-4.37.17-7.03-1.43-2.9-3.5-2.89-7.55-3.56-12.24"/><path fill="#fefefe" d="M1186.47 485.627c8.48 1.554 17.31 1.677 25.73 3.115 68.84 11.757 140.54 16.322 210.35 15.691 15.64-.141 44.82-.898 60.25-3.549 6.99 11.097 15.85 31.389 22.81 44.051a3383 3383 0 0 0 69.37 122.538c5.65 9.522 39.38 63.646 40.38 69.975-6.18 14.249-74.83 8.435-89.88 8.657 2.79 6.562 5.94 11.55 9.91 17.425l18.93 1.459c.45 20.061-1.4 8.433-8.01 17.743-.01 4.167 3.3 4.957 2.7 6.93-4.46 14.55 2.35 20.87 9.7 34.764-14.44 1.422-42.39-1.203-58.36-1.756-22.95-2.106-46.95-2.863-70.08-4.373-40.07-2.435-80.1-5.528-120.07-9.277-14.67-1.286-51.36-3.466-64.47-6.731-3.12-5.79-6.47-15.703-9.62-22.263-12.65-26.293-25.92-60.59-42.41-84.162 16.49 5.753 20.71 6.368 32.03-7.511 5.47 2.142 8.55 2.958 14.19 3.058 16.24.286 12.48-13.224 17.18-17.901 9.72-.704 42.64 4.417 54.24 5.609-3.3-7.741-5.2-12.153-9.52-19.48-10.76-2.464-37.95.393-39.14-12.553-1.47-15.895 21.67-1.84 27.34-9.143-1.29-6.205-7.02-16.56-10.26-22.173-2.1-3.627-7.01-2.986-12.21-4.023-2.25-2.596-3.54-7.946-4.68-11.447l3.62-.458c3.21-.395 4.81-.114 7.09-2.176.47-7.327-33.58-79.636-38.74-90.007-11.14-2.451-20.86-4.719-32.35-4.689-5.33-5.152-11-11.769-16.02-17.343"/><path d="M1305.95 620.124c14.16-1.097 35.86 2.456 50.98 3.1 15.48 26.532 29.16 50.443 41.6 78.693 2.83 6.421 8.5 15.273 9.9 21.77a2486 2486 0 0 1-53.29-4.228c-4.46-6.163-47.44-93.211-49.19-99.335m93.38 34.971q26.19 1.316 52.35 2.944c9.58 16.603 17.95 34.148 27.83 50.622 3.65 6.101 7.1 12.491 10.03 18.975-9.49 1.263-40.73-.857-53.75-.442-4.72-7.428-35.64-66.527-36.46-72.099m-118.28 74.881c13.67-.673 39.96 2.713 54.67 4.038 10.88 22.451 23.54 43.989 33.97 66.715-10 .29-49.41-2.795-58.5-4.934-7.43-16.584-25.28-51.764-30.14-65.819m144.72-174.064c14.97-.305 31.21.763 46.11 1.89 7 10.185 36.02 61.047 38.17 71.133-13.34-.158-35.67-.08-48.45-2.12-7.24-15.388-33.53-58.502-35.83-70.903m35.84 222.319c9.52-.783 47.45.439 56.56 1.976 3.45 5.159 7.58 10.647 8.19 16.842-18.74-.113-37.48-.676-56.19-1.686-3.07-4.499-8.47-11.716-8.56-17.132m-195.91-85.865c14.19 1.763 41.56 2.735 53.32 5.193 4.78 5.974 6.62 11.08 8.84 18.281-18.68-1.13-37.43-2.473-55.91-5.441-3.33-6.814-4.5-10.706-6.25-18.033m115.78-70.702c10.75 1.277 22.25 1.244 33.06 1.22 17.38-.037 24.7 1.245 30.24 18.926-9.69 1.347-44.37-.642-54.11-1.304-3.01-6.303-6.08-12.584-9.19-18.842m64.39 120.361c16.83.567 36.78.793 53.35 2.357 1.78 4.212 8.06 14.288 7.55 17.555l-53.72-1.198c-2.16-4.572-7.97-14.6-7.18-18.714m-76.57-155.808c16.38 2.051 33.27 2.19 49.81 4.475 2.99 5.322 5.98 12.665 8.49 18.377-12.06.148-41.53-2.656-53.62-4.423-1.81-5.225-7.04-13.847-4.68-18.429m-7.33 149.875c12.8-.086 40.92 2.947 54.74 4.067 2.8 4.849 7.04 11.568 7.16 17.151-12.75.584-40.25-1.978-53.4-3.501-2.57-4.38-7.39-13.053-8.5-17.717m-87.95-191.567c9.93 2.869 41.43 5.452 53.48 6.868 1.91 6.198 5.26 9.99 7.36 16.415-13.22.698-40.31-1.971-54.25-3.047-3.29-7.02-5.76-12.511-6.59-20.236m16.15 36.659c14.89.742 37.88 2.846 52.55 5.171l8.35 17.501-53.78-3.922c-2.86-6.528-5.36-11.781-7.12-18.75m90.48 189.492c14.81 2.06 39.04 4.034 53.86 4.521l10.1 18.112c-17.39-.602-37.28-2.96-54.86-4.465-3.38-5.829-7.2-11.736-9.1-18.168m31.75-248.391c11.24 1.265 33.49 2.328 44.59 2.123 2.33 4.755 7.66 11.804 8.54 16.824.25 1.404-.6 1.547-2.06 2.832-7.39-1.668-35.87-2.104-46.86-3.35-2.57-4.903-9.16-12.13-7.39-17.305zm-61.77 29.321c12.63-.036 37.88 1.938 50.4 3.481 2.74 5.68 5.41 11.396 8 17.145-16.63-.25-33.95-.12-50.34-2.714-3.29-6.204-5.41-11.461-8.06-17.912m-89.64-38.556c16.7.563 35.92 4.167 53.19 5.217l6.18 16.528c-15.14.542-37.88-2.565-53.45-4.328-2.12-5.569-4.65-11.654-5.92-17.417m228.64 164.903c14.62-.235 34.94.021 49.35 1.085 2.38 6.636 6.73 10.584 8.52 16.767-16.71.285-32.79.757-49.42-1.012-3.23-4.75-8.04-11.13-8.45-16.84m-18.44-35.218c15.8-.287 31.37 1.877 47.1 1.057 2.91 4.183 9.17 12.301 9.25 17.367-6.04 1.871-37.73.019-46.09-.344-5.07-6.141-7.09-10.819-10.26-18.08m40.39 69.67 46.54.731c2.22 3.737 7.92 12.121 7.49 16.149l-2.27 1.231c-9.22-1.298-37.38 2.057-46.3-2.996-1.95-1.108-6.91-10.076-7.26-13.504zm-166.62-191.887c.75-.034 6.55.795 8.23.863 10.41.419 20.72.565 31.12 1.417 2.7 4.354 8.23 11.714 7.69 16.336-2.76 1.455-2.81.69-6.82-.131-13.74-.13-29.47-1.54-43.1-3.349-1.86-4.898-5.57-9.167-5.19-13.444 2.81-2.183 3.95-1.51 8.07-1.692M1242.45 740.76c7.21.426 17.38 2.054 24.71 3.052 1.98 4.374 3.44 8.472 5.08 12.977-5.91 1.409-15.86-1.109-22.15-2.277-3.76-5.604-4.98-7.605-7.64-13.752m14.49 31.26c14.23.062 22.91.881 25.63 16.098-16.44-.993-22.19 1.511-25.63-16.098m-21.98-57.448c9.69.723 11.97.704 15.57 10.063-9.47.074-14.14.091-15.57-10.063"/><path fill="#fefefe" d="M951.709 885.863c19.717.027 49.181 5.905 69.931 7.811 78.44 7.203 157.41 12.162 236.21 9.631 14.32-.46 45.46-1.833 59.12-4.955 3.23 7.688 92.75 379.05 92.93 375.69-2.82 1.86-36.9 1.74-42.89 1.97-85.55 3.46-171.13 6.33-256.72 8.63-58.71 1.33-128.871.65-186.626 5.65.436-30.14 3.756-59.39 5.695-89.38.727-11.23 1.149-22.56 1.78-33.81 6.526 7.47 11.696 15.24 19.562 21.62 1.873 1.52 8.416 6.65 8.777 8.48l-4.122 2.41c-1.265 3.16-1.26 3.55-.422 6.85 5.347 5.68 16.213 1.09 23.312 3.16 9.065 4.1 19.105 8 28.384 11.78-.08 12.09.73 25.21 1.24 37.37 9.31.39 50.34 2.66 56.02-2.55 1.71-4.27 1.06-11.18.93-16.01 24.16 7.39 50.21 15.71 75.61 17.68 14.32 1.12 36.72 2.57 50.25-2.4 2.3-.85 6.75-4.6 8.75-6.29l.61.14c10.69 2.37 47.44 4.46 55.97-.96 2.26-4.47-.66-18.15-1.51-23.88 12.59 2.04 24.99 4.7 35.31-4.31 2.44 7.98 2.98 22.45 6.49 27.27 7.05 1.94 49.46.35 58.06-.64-1.27-11.45-6.35-34.44-8.95-45.74-16.85.91-33.71 1.68-50.58 2.28-1.88-3.24-4.27-6.86-6.28-10.08l5.31-10.18c14.68-1.24 26.38.82 42.4-1.51-1.03-20.22-10.32-60.02-14.74-81.55-19.15-.25-38.03.75-57.22.27 4.3 19.04 5.77 33.42 9.33 51.77-5.42-2.56-20.49-9.65-20.09-16.4 2.52-.7 2.8-.68 5.14-2.05 1.3-6.34-1.85-25.52-4.05-31.83-4.8-5.43-45.91-3.51-54.64-4.55-1.19-.14-5.51 1.82-6.89 2.5l-1.27.63c-6.01-1.44-28.01-11.51-34.67-14.4-19.28-8.28-38.69-16.26-58.22-23.93-8.39-3.24-17.4-4.3-25.73-7.77-4.41-1.84-4.43-11.52-7.15-11.53-18-.06-48.17-.25-64.81 5.54 1.46-6.93 6.48-13.29 7.16-19.87 1.4-13.35-50.029-61.423-60.707-75.584l-.846-1.136c1.825-6.929 4.819-56.889 4.852-65.837"/><path d="M1016.3 914.071c7.42 1.272 43.94 4.891 46.58 6.836 6.15 4.527 3.17 84.563 4.47 96.153.54 4.78-1.42 8.1-5.1 8.82-14.53.36-35.16.28-49.58-.81-.41-4.21-.3-8.51-.21-12.75.62-30.776-.51-61.564-.47-92.334.01-3.427 1.9-4.02 4.31-5.915m156.68 84.887c17.67-.172 33.53.491 51.05.76 7.74 18.702 8.29 49.062 12.4 69.472.86 4.26 2.01 11.28-.52 14.83l-2.42.37c-14.3 1-35.78 1.77-49.96 1.2-3.42-12.19-13.44-77.46-10.55-86.632m-79.93-.866c8.97-.314 46.57-.707 53.46 1.928 3.24 5.59 9.78 62.94 7.21 67.75l-23.37-4.17c-4.33-.79-31.85-5.34-33.62-7.88-2.47-7.38-1.39-19.63-1.98-27.13-.78-9.83-4.4-21.4-1.7-30.498m168.39 1.466c9.2.492 33.16-.794 39.99 1.932 4.3 6.19 9.77 34.79 8.58 41.85-2.2 1.13-7.84.77-10.63.77-7.27.71-34.7 2.2-40.36.29-3.22-6.26-10.01-38.17-7.57-43.42 2.9-1.993 6.27-1.448 9.99-1.422m-1.01 59.442c18.49-.3 36.99-.37 55.49-.18 1.86 5.88 6.53 16.27 1.38 20.7-12.79-.54-39.64 1.31-53.52 1.79-1.87-8.28-3.23-13.79-3.35-22.31m-172.55-139.195c8.84.263 45.53 1.728 54.19 5.522 2.81 1.232 2.4 13.031 2.38 17.132-13.04 1.29-40.87-1.761-56.02-2.078-1.2-7.651-3.01-13.46-.55-20.576m3.4 38.237c11.81 1.326 42.96.802 51.75 3.093 4.12 3.261 4.92 13.227 2.67 17.527-16.83 1.445-38.08-.242-55.23-1.26-1.14-7.475-2.84-12.453.81-19.36m75.22-35.737c12.47 1.398 34.7 1.055 48.08 1.364 1.75 6.322 5.18 14.453.4 19.815-13.13-.715-26.38-.083-39.59-.529-12.45-.422-15.84-15.619-8.89-20.65m72.47 1.585c14.63.353 32.22-1.319 46.56 1.356 8.36 1.561 9.68 12.796 6.15 19.217-9.89-1.623-46.9.014-51.04-3.235-1.36-5.198-1.41-11.851-1.67-17.338m-70.81 37.198c16.14-.176 35.27.212 51.4.838 1.4 7.462 2.54 11.561.8 18.912-7.15.211-43.69-.341-48.84-1.622-4.4-4.17-5.5-12.746-3.36-18.128m77.76-.005c15.67 1.325 35.2.592 51.58 1.306.98 5.724 3.16 13.454.24 18.148l-50.95-.696c-1.33-6.42-3.1-12.54-.87-18.758m-275.35-42.44c6.992.282 19.537-1.662 24.236 3.104 1.57 3.651.39 6.495-.511 10.535-7.117-.024-18.735 1.941-23.791-3.071-1.744-3.573-.67-6.486.066-10.568m-.799 45.228c8.327.317 33.219-2.795 21.31 13.986-6.898-.111-17.034 1.337-21.714-3.894-1.687-3.676-.569-6.028.404-10.092m-9.244 267.469 5.537.1c5.442.07 11.552.87 12.705 7.01-.876 3.47-1.504 3.85-4.223 6.26-6.637.31-16.642 1.89-18.537-5.99.832-3.7 2.019-4.56 4.518-7.38"/><path fill="#fefefe" d="M598.427 966.527c8.374 5.593 19.862 16.651 28.416 23.673-5.043 7.627-14.629 26.22-11.268 35.12 2.551 2.4 1.114 1.88 4.295 1.99 4.923-2.97 11.866-23.8 14.921-31 6.166 4.17 11.779 9.2 16.952 14.53-5.549 20.01-18.569 43.9-24.672 65.38 16.137-1.74 46.312-4.61 61.269-7.51 5.46-4.63 7.775-15.08 10.037-22.19 5.886 3.71 10.167 7.44 15.471 11.86-9.988 29.3-28.901 81.44-37.119 113.33-.311 1.21 2.093 3.58 3.203 4.6 6.112.85 45.344-4.53 54.378-5.73 7.136-14.06 21.311-64.2 23.752-80.18 6.645 5.04 12.216 9.33 18.512 14.84-6.099 25.32-16.363 50.36-22.277 75.92-2.161 9.34-11.47 29.61-7.504 37.99 6.061 1.84 45.454-4.02 55.983-4.68 9.393-21.01 11.667-53.93 18.933-70.92l1.386-.5c6.174 3.08 13.325 9.11 18.038 14.14q-.705 2.265-1.307 4.56c-2.082 8.18-10.839 42.69-7.403 48.54 6.565 1.09 45.352-2.75 53.013-4.5.88-8.5 4.268-23.33 5.973-32.02 14.004-7.36 15.557-6.43 29.077-16.79.488 12.56-1.796 22.09-2.42 33.93-1.774 33.66-5.763 65.91-6.184 99.74-12.104.17-25.818 2.29-38.047 3.43-29.141 2.72-57.98 6.86-87.056 10.22l-213.27 25.82c-46.67 5.84-90.421 12.14-137.817 16.22 5.893-10.49 10.457-23.03 15.152-34.27a5353 5353 0 0 1 21.697-51.28l80.033-187.1 23.809-56.66c6.698-16.28 14.039-35.124 22.044-50.503"/><path d="M881.369 1231.45c.998.01 1.723.55 2.782 1.05 2.7 6.1-2.438 21.91-4.44 28.8-54.514 4.11-107.23 11.3-161.257 18.19l-176.567 22.5c-2.167-1.29-2.128-1.55-3.476-3.61-.737-6.59 8.335-22.49 11.571-28.92 85.799-8.28 171.355-20.56 256.984-30.22 24.235-2.73 50.389-6.55 74.403-7.79m-165.991-34.85c4.102-.57 7.292-1.39 11.246-.34 7.414 6.42-.66 19.15-4.102 26.86-10.483.19-24.356 2.28-34.976 3.67-37.308 4.89-76.142 7.44-113.19 13.42-4.735 1.78-7.805 3.7-11.51-.4-1.246-7.55 6.374-19.47 10.219-26.62 10.94-.18 38.859-4.73 50.876-6.25 30.457-3.63 60.936-7.08 91.437-10.34m-64.926-47.28c2.564-.8 10.109-.69 13.242-.74-1.758 4.77-8.447 23.58-10.788 25.28-6.859 4.99-47.15 8.15-56.788 9.47-3.633.88-7.401 2.06-10.608.32-1.012-4.82 7.655-21.35 10.716-25.69 5.253-3.19 44.787-7.16 54.226-8.64m18.223-55.94c4.031-.79 5.905-1.37 8.937 1.41 1.541 7.72-5.84 21.99-9.513 28.97-15.741.35-32.399 2.91-48.332 4.36-4.544.65-5.895 1.34-9.76-.32-4.175-7.05 3.764-18.56 7.662-24.42 3.158-4.74 14.712-4.9 20.434-5.81 10.004-1.6 20.472-2.85 30.572-4.19m-55.489-56.54 3.321 2.71c2.411 7.01-26.282 70.36-33.538 75.72-3.182-2.78-5.147-4.57-3.8-9.2 1.424-4.1 3.863-11.35 5.959-14.97 6.193-10.71 18.341-48.53 28.058-54.26m-66.985 163.15 4.274.93c2.438 2.18 1.621.84 2.215 4.34-2.05 7.02-23.767 55.36-28.057 60.27-2.299-.94-7.079-3.02-6.122-6.11 4.12-13.29 18.587-50.6 27.69-59.43m29.692-73.39c4.32.23 5.378.27 7.859 2.96-.018 2.57-19.171 44.33-21.793 52.21-10.015-1.67-10.531-3.37-5.938-13.1 6.041-12.8 11.398-31.02 19.872-42.07m-66.517 153.75c3.817.29 4.865.78 6.577 3.91.213 8.06-10.464 26.28-13.853 37.14l-5.782-.71c-8.285-7.38 8.353-32.24 13.058-40.34"/><path fill="#fefefe" d="M1382.7 383.232c7.15-.515 168.88 111.949 193.82 113.116 4.53.212 6.84-2.613 10.04-5.299 5.04 4.459 6.9 7.471 11.01 12.515 38.59 47.342 77.58 94.401 115.33 142.453 6.69 8.512 13.29 17.342 20.72 25.098-5.01 8.169-9.82 34.595-12.15 45.028-21.71 6.977-44.54 10.584-66.76 15.614-8.48 1.919-17.21 3.723-25.85 4.648a2624 2624 0 0 0-34.59-59.506c-6.33-10.795-14.35-23.671-19.64-34.62-13.92-27.659-30.63-54.375-45.38-81.662-13.27-24.544-24.68-49.922-37.45-74.659-23.24-.387-55.82 3.922-81.19 4.299-58.4.87-114.81-3.388-172.59-11.819-18.15-2.65-52.87-6.719-69.23-11.696-9.24-9.842-31.98-29.461-37.53-37.279 1.55-5.468 2.8-16.159 9.12-16.82 62.76-6.571 124.71-16.593 187.72-21.297 16.87-1.26 38.55-3.832 54.6-8.114m-370.6 208.389c3.83 2.086 7.67 15.341 8.93 19.946 4.66 17.091 31.28-4.661 35.74 10.282-2.4 2.381-19.87 3.667-28.29 6.807 4.93 18.224 18.21 47.97 25.95 66.6 13.85-1.762 28.97-2.962 42.96-4.392-.74-9.504-1.5-12.964-5.63-21.542 6.69-1.74 8.44-2.35 14.57-5.459 3.39-5.954 3.84-10.765 6.54-16.75.68-1.507 2.77-1.367 4.48-1.585 6.16-4.711-11.83-34.689-1.71-36.811 3.95 2.825 17.87 21.443 21.7 26.599 11.98 16.152 26.86 33.53 38.24 49.774 6.83 9.741 17.78 32.468 23.22 43.532 11.21 22.82 24.44 45.765 31.58 70.021-18.97 2.367-39.52 3.957-58.62 5.565-28.94.505-75.78 8.076-105.83 11.133l-87.268 8.778c-15.92 1.584-42.493 3.784-57.599 7.054-21.878-50.165-37.08-106.533-57.28-155.979 17.301 1.431 37.367-4.047 54.767-5.924 11.286-1.217 23.129-1.707 34.075-4.312 7.678-1.827 1.488-13.997-.365-18.757 21.062-21.407 30.777-16.011 56.16-21.57l1.21-.27c-1.88-8.678-2.78-15.457-8.31-22.502 4.09-4.773 5.84-6.259 10.78-10.238"/><path d="M1171.27 745.572c19.47-2.592 18.57 5.545 24.18 22.239-18.82 1.157-38.25 3.817-57.06 5.894l-107.5 11.918c-16.13 1.7-43.883 5.446-59.138 5.518-3.161.014-10.503 1.111-13.963 1.533-1.52-4.143-3.67-14.867-5.011-19.983 20.95-5.227 78.882-10.823 102.682-13.295 36.24-3.765 80.2-11.048 115.81-13.824m-76.86-35.184c.56-.12 3.3-.161 4.05-.187 4.13 3.251 10.68 16.023 7.29 20.62-10.25 2.837-44.66 5.853-57.23 7.448-30.82 3.911-64.107 8.92-94.91 10.754-3.625-.114-7.744-.457-11.406-.681-1.658-4.811-4.478-11.7-3.28-16.608 8.525-4.605 135.926-18.9 155.486-21.346m-62.94-31.926c1.64.022 3.77-.382 4.6 1.549 1.73 3.989 5.75 12.337 5.14 16.44-8.21 4.607-91.286 9.348-107.592 12.964l-1.363.313c-6.713 1.107-10.495-13.226-9.443-18.524 3.919-4.638 94.288-11.507 108.658-12.742m-20.93-38.984c3.48-.308 4.06-.374 7.43.451 4.37 3.126 8.95 13.834 5.12 17.314-7.02 6.374-30.169 6.395-39.929 7.778-2.888.493-3.829.499-6.779.496-4.963-3.087-9.246-13.442-6.115-19.447 5.589-4.563 31.073-5.468 40.273-6.592m133.2 27.072 1.08-.204c5.56 2.779 7.5 11.272 9.88 17.56a1119 1119 0 0 1-45.47 5.62l-3.03-.081c-3.98-2.217-9.26-13.8-6.65-18.467 6.14-1.782 35.86-3.733 44.19-4.428m-6.38 39.036c6.09-.688 11.89-.581 17.99-.585 2.92 5.019 6.7 13.282 9.47 18.706-7.66 1.665-17.3 2.462-25.23 3.341l-18.24 1.219c-1.66-6.406-10.79-19.977 1.04-21.927 4.46-.737 10.35-.646 14.97-.754m-244.106-27.092c1.873.11 2.761.455 4.563.959 4.786 5.146 13.361 26.032 9.463 32.483l-4.187-1.223c-4.984-5.133-12.554-25.444-9.839-32.219m34.897 94.084 3.745.808c4.714 3.289 12.279 23.609 10.26 29.858-11.752-.105-16.871-22.861-14.005-30.666m-15.619-44.254c8.689 1.422 10.217 15.049 12.681 22.301.895 2.632-1.208 4.783-2.689 6.833-7.324-3.526-11.322-15.476-12.925-23.089-.622-2.951 1.16-4.171 2.933-6.045"/><path fill="#fefefe" d="M1655.71 213.416c21.35-1.956 50.02 18.044 62.45 34.197 52.34 68.04 53.41 163.599 45.3 245.272-1.58 15.871-2.74 32.456-4.73 48.348-2.88 13.766-14.12 94.416-19.88 99.268-4.29-1.519-18.74-21.971-22.9-27.132-10.16-10.637-27.31-33.505-37.72-45.949a4268 4268 0 0 1-59.23-71.8c-5.37-6.699-16.68-19.49-20.22-26.19 32.25-66.634 50.92-157.004 17.92-226.804-1.91-4.031-5.81-8.031-8.05-12.84 6.42-9.226 36.19-15.492 47.06-16.37"/><path fill="#fefefe" d="M1529.19 227.536c15.81-1.943 46.05.535 57.9 12.132 16.66 16.31 20.4 48.973 21.91 71.471 3.38 50.312-10.21 100.865-30.2 146.657-2.01 4.617-3.32 9.366-6.74 13.168-7.63 1.055-84.19-46.8-95.54-54.207-17.28-11.959-40.48-24.915-58.91-36.658-26.69-17.005-52.98-34.483-79.49-51.546 8.38-8.384 22.15-18.173 31.67-25.675 41.56-32.751 104.79-72.544 159.4-75.342m-301.56 585.872c2.46-.648 78.15 9.346 88.43 10.36 47.89 4.72 96.13 6.663 144.18 9.169 34.64 1.806 69.64 4.884 104.33 4.267 9.64 18.364 20.22 36.266 29.46 54.875-14.97 9.288-214.43-3.65-245.55-8.566-32.99-5.21-62.35 1.716-94.87 2.61-40.77 2.8-88.44.227-129.68-1.766-58.38-3.979-116.15-11.327-174.126-18.087-7.422-.865-55.491 3.559-63.948 5.187-2.93-8.26-5.41-12.776-10.283-19.981 15.398-3.631 35.37-4.971 51.462-6.494l74.465-7.123zm-193.15 255.002c30.07-3.87 78.57 20.31 106.63 31.49 18.69 7.45 40.97 21.73 58.97 31.25 24.74 13.1 52.79 24.82 73.88 43.2 1.25 1.13.65 2.79.39 4.07-7.64 2.12-123.04-71.69-140.98-58.53-2.55 4.39-2.18 10.88 2.44 13.63 9.86 5.89 20.95 10.4 31.43 15.2 22.16 10.19 44.22 20.58 66.18 31.19 8.7 4.28 37.83 16.7 39.3 25.67-3.97 4.42-15.51.12-20.38-1.61-13.93-4.96-27.27-13.5-40.72-19.79-14.44-6.75-91.38-40.46-104.81-36.06-3.16 1.04-4.1 2.66-5.43 5.43 0 10.73 10.84 13.27 19.06 15.37 12.24 6.23 117.96 40.67 111.75 54-3.48 1.92-17.69-1.65-21.88-3.28-43.08-16.75-86.96-35.5-132.47-45.19-5.89 3.22-10.48 5.21-10.29 12.57 5.84 9.26 31.77 12.02 41.91 16 16.3 6.4 59.68 17.35 71.77 28.52 1.25 3.45 1.31 2.08.2 5.24-4.81 2.63-17.84.35-23.46-.15-41.6-3.67-145.2-28.76-178.66-52.7-15.606-11.17-26.151-26.7-38.302-41.22 5.329-9.32 14.054-16.18 19.899-24.51 10.697-15.26 20.816-32.07 30.634-47.96 10.869 1.41 32.119-.71 42.939-1.83m669.98-325.2c3.63-.59 4.18-.874 7.63-.006.72 1.959-5.28 37.193-5.74 44.188 3.89 5.048 10.88 13.395 17.05 15.023 25.55 6.741 34.48-31.654 39.91-47.873 6.3 4.035 11.4 8.762 16.19 14.487 10.23 12.243 18.19 26.634 27.3 39.738 7.42 10.681 16.04 20.548 23.37 31.262 1.41 2.054 3.06 4.318 3.71 6.753.39 1.474.5 1.103-.24 2.313-4.41 7.295-76.43 23.144-89.42 26.931-19.55 7.186-66.38 20.426-86.98 22.874-5.27-5.848-5.79-7.882-9.32-14.746-15.2-29.556-35.22-56.587-52.31-85.076-5.28-8.798-11.42-16.34-15.8-25.646 14.8-7.081 45.85-13.255 61.86-16.665zm-579.18-295.726c5.18 3.211 15.35 14.098 19.98 18.444 33.57 31.46 61.74 66.159 84.17 106.371 5.83 10.439 32.46 51.893 24.82 63.185l-1.92.191c-14.08-8.029-37.99-56.287-47.29-70.421-3.2-4.869-10.33-4.44-14.28.151-3.37 10.503 19.94 43.52 26.29 53.942a417 417 0 0 1 14.78 26.627c3.21 6.262 11.14 20.121 7.08 26.422l-2.42.245c-18.24-6.548-43.16-51.209-53.21-67.692-4.52-7.433-10.8-26.262-17.29-32.256-3.05-1.189-4.3-.51-7.51.39l-1.15.33c-21.9 17.321 57.16 98.665 48.67 107.62-4.8-.348-10.77-2.504-14.23-6.151-26.53-27.971-50.14-60.267-73.81-90.801-4.58-5.906-11.19-17.167-19.38-14.627-10.6 10.957 7.38 75.489-4.96 81.975-4.09-.894-7.2-2.408-8.39-6.701-7.15-25.781-26.45-54.364-32.38-79.435 6-10.947 15.86-22.216 23.18-32.645 9.17-13.08 17.32-26.179 25.75-39.721 9.12-14.655 13.91-31.286 23.5-45.443M929.142 968.389c5.898 2.693 51.099 54.721 55.642 62.251a63 63 0 0 1-.648 2.02c-12.363 37.12-55.521 94.49-90.23 113.87-3.275 1.83-15.087 6.03-19.153 4.65-10.753-2.86-25.185-20.2-34.329-27.83-4.873-4.06-21.42-18.62-23.278-22.91 7.104-13.93 40.882-40.47 52.293-52.76 16.315-17.57 33.035-37.54 46.842-57.11 4.853-6.879 8.483-14.894 12.861-22.181M412.277 503.49c2.071-.358 1.55-.216 3.735.124l.69 1.772c-1.107 4.615-10.662 18.467-13.773 23.774-22.468 38.319-41.178 78.166-61.453 117.633-5.686 11.069-10.4 22.425-16.297 33.518-2.565-8.137-4.084-16.19-5.566-24.558-2.141-17.291-9.445-39.838-12.917-57.31-5.492-27.64-11.413-55.496-15.901-83.297 11.391-.243 31.706-3.365 43.703-4.699a1951 1951 0 0 1 77.779-6.957m631.483 22.49.7 1.361c-11.68 22.578-58.998 59.354-77.9 78.572-13.135 13.354-35.898 29.65-52.724 38.298-11.474 5.897-28.322 8.717-41.336 9.161-15.493.557-21.33-2.793-32.348-13.136 5.329-.918 11.164.216 12.428-5.425-5.044-7.117-27.454-1.889-35.933-3.365-1.994-.347-7.871-3.532-9.909-4.615-7.498-7.129-7.452-13.174-7.751-22.725 6.342-11.857 8.846-15.026 20.392-21.829 35.607 3.598 29.76 26.664 61.168 33.49 8.104.813 21.34-2.036 28.267-5.794 45.082-24.457 94.816-53.116 134.946-83.993"/><path fill="#fefefe" d="M1651.93 190.201c5.03.384 10.1-.082 15.04.331 71.81 6.467 106.24 77.557 118.55 141.435 25.37 131.554-2.29 275.096-39.06 402.201-3.55 12.289-6.41 33.362-12.91 43.136-3.1 1.838-2.36 2.06-5.31 1.843l-1.4-2.044c-1.57-10.152 13.94-55.274 17.75-68.606 22.74-81.178 38.62-177.957 42.28-262.47 2.72-62.666-7.09-136.841-36.97-192.404-5.2-9.667-15.81-19.627-22.99-28.066-16.47-19.169-51.26-31.878-76.09-30.803-10.93.473-33.87 7.575-44.63 12.094-5.89 2.477-16.47 11.082-20.15 10.984l-.49-1.256c6.76-10.262 41.11-21.726 53.71-23.528 5.36-.766 7.24-.46 12.67-2.847M841.765 668.279a668 668 0 0 0 12.374 5.375c7.483 27.944 17.821 55.992 26.777 83.145 4.228 12.819 24.716 65.973 24.712 74.949-10.294.403-23.075 2.035-33.909 2.738-2.684-14.029-4.07-42.699-5.704-58.307-4.402-42.057-10.493-68.963-24.25-107.9m88.595 217.135c2.162-.346 7.469-.425 9.894-.532-1.701 17.466-2.488 40.388-3.234 58.066l-12.81-16.036c-8.759-9.349-22.389-26.791-27.675-38.242a475 475 0 0 1 33.825-3.256m907.94-9.262c2.85-.249 1.56-.527 4.03.756l.32 2.144c-5.57 7.222-42.97 14.351-53.83 17.3a4468 4468 0 0 0-114.57 31.807c-3.41-.717-1.99.035-4.5-2.161l.29-1.844c6.23-6.374 87.7-25.204 103.09-30.595 14.56-5.1 48.74-13.112 65.17-17.407m-269.9-76.44c1.48.978 4.43 3.277 6.09 5.899 22.14 34.911 47.35 71.984 65.34 108.929-.26 1.953-.47 3.52-.62 4.701l-1.11.039c-13.15-9.342-57.54-99.386-69.7-119.568m200.56-75.523c5.95 1.59 10.38 8.738 9.54 14.858-3.78-.981-7.5-1.897-10.01-4.793-1.59-3.654-.48-6.056.47-10.065"/></svg>