<svg xmlns="http://www.w3.org/2000/svg" preserveAspectRatio="none" style="display:block" viewBox="0 0 2048 1152"><path fill="#fff" d="M0 0h2048v1152H0z"/><path d="M1851.75 99.452c7.69.403 25.39.286 30.8 5.017 4.49 9.815-2.96 47.91-4.26 60.526l-9.67 85.494c-1.22 11.107-2.19 22.254-3.42 33.355-4.72 42.45-12.06 84.703-17.55 127.086l-46.77 381.359c-2.11 16.558-5.65 32.9-8.01 49.42-2.19 11.628-1.89 25.214-4.17 36.661-6.67 33.556-7.8 67.248-11.44 101.157-.81 7.546-1.75 14.679-1.74 22.313 5.53 7.39 133.95.39 152.16 4.84 8.7 2.13 5.56 34.6 2.26 40.63-2.87 2.41-5.41 2.51-9.01 2.52l-1607.753-12.98c-12.626-1.05-28.901-.11-41.933-.28l-89.822-1.34c-12.75-.09-55.726.93-64.334-2.69-3.379-4.22-5.169-36.534-3.069-40.675 3.833-1.982 4.887-1.169 9.828-1.031 4.38-11.949 14.066-31.432 19.604-43.41l38.254-82.485c2.508-5.427 16.502-32.941 16.762-37 1.812-28.331-2.917-67.579-1.924-95.146 1.484-41.184-.084-80.569.548-121.109l2.235-180.249c.397-28.651 1.62-57.908 1.637-86.417l.861-137.731c.121-23.261-1.153-59.64 1.653-81.861 41.686-4.3 88.132.104 129.956.128 72.667.04 145.782 2.119 218.394 1.807a32690 32690 0 0 0 1182.223-25.213c25.94-.766 52.29.439 78.26.024 8.07-.129 34.01 1.606 39.44-2.72"/><path fill="#fff" d="M1770.69 113.432c22.8-1.818 53.01 2.17 77.53-.224-3.87 40.903-10.63 82.168-16.51 122.867-4.08 28.242-7.74 57.463-12.98 85.483-5.47 21.559-4.93 44.65-8.75 66.223-6 33.827-10.17 68.224-15.5 102.075-17.96 2.463-70.56 1.258-90.76 1.228 11.53-54.428 19.53-109.556 30.18-164.168 5.98-30.666 14.48-60.75 18.91-92.003.76-5.395 9.8-45.682 8.54-47.851-3.27-5.657-27.51-6.066-34.08-7.081-5.83-.82-16.05-1.624-22.35-2.3-20.42-15.467-40.07-29.95-58.73-47.55-14.54 10.385-35.39 28.08-49.24 39.837-19.02-2.54-41.04-1.776-61.2-4.567-1.17 11.353-4.28 25.047-6.46 36.452q-5.58 28.994-10.74 58.064c-10.03 56.776-19.84 113.525-25.05 170.954-.64 7.041-6.02 39.734-2.55 43.372 2.05 2.146 46.48 3.673 52.75 4.136 28.36 2.16 56.67 4.92 84.91 8.278 12.33 1.358 32.73 2.679 44.15 5.103-27.27 1.556-55.76.745-83.13 1.138-40.39.581-80.82.936-121.21.983-8.09.009-16.5-.444-24.52.04 3.25-56.053 9.88-112.02 12.51-168.102.79-16.973 1.84-33.687 2.93-50.639-33.15-2.129-67.6 1.191-100.54 2.354-26.13.921-53.16.922-79.54 1.648-30.32.833-64.28 3.134-94.22 2.671 3.97-28.85-7.15-42.934-34.89-48.38-25.18-58.237-85.76-66.15-137.08-37.251-39.226-31.055-85.94-9.375-117.372 21.423-19.471 19.078-32.56 43.083-39.336 69.484-25.616.233-51.937-.597-77.44-.004-23.23.54-44.489 1.866-67.92 1.674-9.431-.766-45.957-1.742-53.553 1.523-4.282 5.781-35.167 196.864-39.089 223.157-89.206 2.458-178.726 6.688-268.006 5.519-16.174 28.353-34.676 68.435-49.318 98.491l-90.945 187.85c-.092-29.787-1.017-59.438-.631-89.241-.207-20.426 2.175-40.85 1.06-61.268-.776-14.21-1.694-28.354-1.624-42.591l3.523-263.086c.354-55.995-2.06-112.665.194-168.538.611-15.139 1.439-29.578 1.115-44.772a23628 23628 0 0 0 1128.292-10.068l270.89-8.051c16.87-.424 32.8.09 49.37-.125 36.17-.385 72.32-1.774 108.41-4.167"/><path d="m421.646 164.273 3.38.816c4.127 3.887 3.455 41.049 3.852 49.388 16.404 3.42 24.981 5.042 40.341 11.507 3.347-6.793 12.105-33.536 17.158-36.064l.959 1.018c1.146 7.281-9.72 29.604-13.234 37.965 24.633 12.558 43.308 33.515 54.837 58.65 2.417 5.269 3.334 12.276 5.972 18.704 4.716 3.034 9.408-2.72 12.68 2.873l-.583 2.225c-2.447 2.307-7.731 2.903-11.219 3.591 5.82 35.833-2.86 64.332-23.41 93.389 6.879 7.912 36.866 37.044 37.824 43.587l-.614.712c-2.278.617-8.718-2.033-10.169-3.693-9.88-11.301-22.667-23.557-31.801-35.145-11.796 12.097-25.962 23.875-42.253 29.186 1.708 8.181 8.702 33.582 4.44 39.74l-2.595-.226c-4.046-3.22-7.93-28.857-9.72-36.324-9.268 3.239-15.936 4.187-25.54 5.152-30.522 1.508-54.731-6.598-78.589-25.462-8.316 8.413-32.254 40.942-39.385 42.197l-.736-2.172c.906-4.3 29.879-37.456 35.158-44.034-17.143-15.46-27.621-31.727-36.333-53.117-7.576 1.979-30.486 9.411-36.393 5.043l1.079-1.796c8.648-5.298 22.984-7.569 33.282-9.785-1.123-5.023-1.744-10.293-2.446-15.404-8.264.333-34.678 6.392-39.972 2.037 5.188-6.171 29.665-8.001 38.342-9.316a112 112 0 0 1-.232-9.972c.448-30.904 11.073-61.141 33.628-82.867a117.15 117.15 0 0 1 82.801-31.943c.669-16.803-1.507-34.299-.509-50.46"/><path fill="#fff" d="M407.127 222.369c3.703-.624 11.659-.635 15.715-.755 1.997 34.493 1.816 69.145 4.458 103.601l-97.405 12.089c-5.607.598-11.506 1.547-17.113 2.349-5.373-60.566 33.355-110.426 94.345-117.284m20.946 115.264c6.881 3.271 26.469 91.179 28.439 101.081-22.758 7.139-40.19 6.512-62.763.676-14.534-4.963-24.033-10.093-36.568-18.965 23.691-26.281 46.487-55.854 70.892-82.792m43.687-102.659a58 58 0 0 1 2.928 1.582c28.526 16.484 45.669 42.071 54.018 73.339l-42.838 7.843c-16.06 2.76-32.854 5.878-48.942 7.944 1.262-4.162 3.062-8.836 4.724-12.854 10.49-25.378 18.745-52.964 30.11-77.854m53.928 81.277 2.812-.071 1.3 1.303c3.263 32.99-1.187 59.487-22.208 86.001-8.466-9.276-21.374-21.007-30.713-30.102-13.412-13.484-26.606-27.509-40.288-40.624 25.698-6.35 61.989-11.269 89.097-16.507m-110.637 23.992.385.329c-.323 2.865-55.316 67.706-62.644 75.977-5.68-4.637-10.276-10.298-15.101-15.829-7.648-9.326-14.525-22.79-18.991-33.938 32.412-8.837 64.05-17.143 96.351-26.539m27.611 10.49c3.352 2.121 16.694 15.903 20.233 19.396l40.101 39.066c-3.671 4.085-8.828 8.457-12.982 12.189-7.324 6.131-17.53 10.644-26.156 14.715a4181 4181 0 0 0-14.268-59.919c-2.201-8.663-4.934-16.714-6.928-25.447m-13.374-128.878c14.603 3.215 23.247 5.176 37.219 10.53a1051 1051 0 0 0-23.724 59.724c-3.465 8.358-6.474 17.074-9.525 25.606-1.486-26.901-4.194-69.612-3.97-95.86M407.49 334.5l2.283-.021c-7.509 2.995-19.674 5.745-27.972 8.079-19.887 5.592-43.4 12.89-63.575 16.496-3.199-1.865-4.871-8.49-3.801-11.983 4.085-3.322 81.086-11.382 93.065-12.571m1313.55 168.957c23.01-.737 47.28-.59 70.34-.451-6.94 45.921-12.56 92.783-18.91 138.756l-26.6 190.632c-3.15 23.317-8.59 46.371-10.4 69.86-2.62 34.12-9.75 67.817-13.29 101.726-84.98.27-169.96-.41-254.92-2.02-1.59-19.857-10.2-47.645-17.52-66.22-4.69-11.231-12.63-30.954-18.38-41.449-23.25-42.442-53.19-82.129-88.32-115.474-10.5-9.961-25.67-19.889-37.27-30.158 17.24.301 110.5 1.022 119.52-1.693 3.85-4.611 4.45-44.928 4.92-54.174l3.64-59.447 8.4-126.795c13.74.322 30.96-.39 45.1-.488l93.15-.778z"/><path d="M1634.28 529.756c10.95.664 44.79 1.606 52.36 7.058 2.95 9.588-14.74 119.428-17.13 140.383 3.91-5.437 8.22-10.6 13.38-14.903 6.24-5.199 13.73-9.102 22.08-8.241 4.79.494 9.26 2.478 12.28 6.324 3.77 4.816 4.43 11.367 3.8 17.263-3.27 30.637-44.2 63.294-44.85 69.224 2.18 1.172 3.21 1.816 5.2 3.279.96 2.528-2.27 33.55-2.83 36.446-3.08 16.151-6.4 108.855-14.86 115.049-4.09-.2-4.87-7.133-14.67-5.202.15-.029-14.98-.114-15.58-.192-11.99-1.554-76.78 2.129-83.46-1.707-6.47-8.906 2.28-33.931-3.53-40.326-7.57-2.094-85.51 5.912-100.88 5.851-1.76-4.736 10.13-178.391 13.65-194.267 5.38-3.836 43.71-6.479 52.76-6.983-4.72-12.879-8.04-14.147 3.12-24.005-5.53-14.187-7.9-51.46-10.03-67.918-.42-3.304.9-4.809 2.76-6.866 6.98 3.455 29.56 31.353 36.73 38.921 2.49 5.818 4.89 14.067 7.75 19.51 19.06 36.345 32.26 75.074 50.02 111.956 11.07-57.865 17-116.426 27.15-174.448 1.54-8.795 2.63-17.511 4.78-26.206"/><path fill="#fff" d="m1611.73 756.492 61.46-.009c-.43 6.312-.94 12.719-1.65 19.005-4.23 37.303-6.56 75.298-11.48 112.477-12.15-.139-24.63-.602-36.81-.901-22.41.029-44.64-1.018-66.83-.893-.77-10.987.55-24.464.26-35.644-.78-30.227 1.59-64.248.65-94.012 16.18.842 38.08.553 54.4-.023m-96.84-88.92c.63.658 34.01 80.882 34.11 83.333 1.13 27.706-1.18 62.203-1.01 90.706a2056 2056 0 0 0-58.23 3.994c-11.87.78-23.75 1.45-35.63 2.01 5.44-46.575 5.18-94.754 8.29-141.539.71-10.742.38-21.855 2.9-32.358 3.82-3.461 42.01-5.492 49.57-6.146m184.89-3.498c4.3-.54 6.36-.086 9.78 2.453 11.9 17.221-29.5 59.274-40.46 69.863l-7.7 6.298c5.41-29.447 3.91-66.524 38.38-78.614m-67.03-75.497c3.24.322 6.02.133 8.27 2.221.13 4.178-4.75 33.416-5.71 39.76-5.81 38.35-10.41 78.072-17.01 116.202-3.26.253-5.52.796-8.37-.657-.35-8.605 5.48-43.156 7-53.21 5.1-34.798 10.37-69.571 15.82-104.316m16.58 2.167c3.61.215 5.35-.117 7.54 2.076-2.59 37.557-12.45 78.528-16.91 116.211-1.46 12.369-2.94 27.254-5.56 39.17-3.25.003-6.21.308-8.11-2.356.35-4.98.98-9.719 1.8-14.635 7.76-46.696 13.36-93.804 21.24-140.466m-134.08 52.945c5.18.199 7.14 1.227 8.65 6.75 4.28 15.662 40.78 85.683 40.87 96.084-3.05.422-3.87.368-6.94.105-2.3-2.158-42.36-98.406-42.58-102.939m122.32-88.976q13.215.875 26.37 2.289c-.98 8.295-1.8 17.196-3.93 25.225-8.48.092-18.07-1.181-26.41-2.722 1.62-7.24 2.85-17.262 3.97-24.792m-122.58 24.13c3.32 2.222 17.86 19.263 18.55 23.142l-1.82 1.143c-4.56 1.76-9.2 3.76-13.72 5.638-1.21-9.68-2.05-20.157-3.01-29.923m-925.759-52.402q13.848-.363 27.701-.465l-20.97 137.902c-2.299 14.447-14.1 74.932-11.73 82.93 9.18 5.995 52.858 2.042 66.666 1.589-27.451 25.97-39.377 36.253-61.888 68.122.138-5.779 2.031-24.801-2.956-27.814l-2.092.933c-6.32 7.923-.603 33.043-7.01 45.014-26.857 50.182-55.582 103.538-69.978 158.773-38.41.952-77.486-1.136-115.923-.178-42.878 1.069-89.555-4.077-131.807-.612-10.181.933-23.4-1.91-33.68-1.287-30.091 1.824-61.51-1.561-91.263.191 7.918-11.644 20.035-39.773 26.396-53.535l39.995-85.435 96.436-199.16c20.003-41.198 38.948-82.142 59.653-123.073 32.533 1.865 74.814-.375 107.75-.987 41.342-.768 83.501-1.188 124.7-2.908"/><path d="M572.743 556.448c5.798-1.721 5.705 4.219 5.536 8.303-3.392 81.881-8.752 163.63-11.095 245.56-.32 11.16-.682 22.849-1.623 33.954-61.434 7.648-123.5 13.35-185.019 20.698-13.206 1.578-26.611 2.378-39.727 4.589-3.372-.896-2.188-.168-4.504-2.719-.168-.976 33.272-275.404 35.867-284.038 9.964-6.296 174.125-22.97 200.565-26.347"/><path fill="#fff" d="M564.579 565.352c3.693-.391 2.707-.852 5.199.806.68 6.149-.502 18.018-.899 24.804l-2.395 43.58-6.252 134.748c-.757 19.891-2.575 45.944-1.986 65.353-18.497 2.66-38.927 4.218-57.69 6.435l-149.767 16.81c-3.42.766-4.191 1.53-7.149.575 9.091-54.581 16.083-108.474 21.98-163.445 3.847-35.859 8.993-71.56 12.364-107.573 33.642-3.612 67.079-7.867 100.666-11.914 28.487-3.433 57.575-6.157 85.929-10.179"/><path d="M544.585 578.292c3.411-.327 7.802-1.198 10.291 1.275 1.654 8.191-1.292 67.04-3.499 75.861-5.122 5.796-135.49 16.587-152.341 18.493-4.156.706-8.79.763-13.038.93-1.181-13.156 2.647-67.481 6.485-76.862.387-.945 139.392-17.676 152.102-19.697m-80.768 178.132c20.955-1.772 14.422 7.253 14.133 24.693-26.945 5.245-60.934 7.439-88.921 10.994-2.358.111-10.226 1.627-12.946 2.081-.037-7.818-.067-19.901 3.7-26.595 6.176-5.349 72.04-10.409 84.034-11.173m7.177-39.006 5.651-.339c7.958 4.192 2.666 18.532.523 25.607-6.685.011-18.714 1.452-25.752 2.09L391 750.792c-3.373.647-6.243 1.653-9.29.437-6.337-6.369-1.962-16.61 1.722-23.193 6.544-4.214 75.631-9.492 87.562-10.618m5.235-31.988 3.006.121c4.554 3.281 3.515 10.15 1.315 14.726-1.75 3.639-9.283 3.042-13.116 3.563-25.365 3.449-53.151 3.905-78.099 8.841l-3.378.277-1.592-1.578c-.894-4.701.626-11.303 1.434-16.202 29.418-2.499 60.585-6.926 90.43-9.748m-15.824 109.916c2.155-.394 9.624-.642 12.196-.786-1.957 38.3-2.972 30.291-39.791 33.687-3.214.331-7.388.444-10.694.631 2.026-37.6 2.537-28.456 38.289-33.532m66.501-45.769c4.864-.55 11.495-.476 16.512-.566l-.935 28.033c-9.707 1.981-22.229 2.753-32.3 3.614-9.098.335-17 1.266-15.391-11.396.766-6.032 1.745-12.13 2.618-18.153 9.559.172 19.899-.817 29.496-1.532m12.791-42.13c2.069-.544 2.573-.306 4.627.096 3.743 4.398 1.331 21.129-1.707 25.97-9.393 4.033-27.557 4.228-38.37 4.895-2.395.262-2.651.394-4.883-.333-3.779-5.962-2.548-19.241 1.96-24.982 7.345-4.089 29.034-4.865 38.373-5.646m-14.011 82.095c4.373-.424 9.635-.537 14.089-.748a867 867 0 0 1-1.24 28.386 647 647 0 0 1-26.934 1.957c-5.657.579-8.785 1.313-14.289 2.632-.599-7.537-2.244-20.295 1.154-26.61 4.52-4.419 19.171-4.316 27.22-5.617m-121.954 15.784c4.043-.312 3.124-.886 5.535 1.034 2.139 5.995.839 18.494.474 25.23-9.678 2.099-21.991 3.378-31.814 4.421-2.83.191-3.319.433-5.671-.884-3.194-5.436-.208-18.716.786-25.453a2188 2188 0 0 0 30.69-4.348m131.964-128.875c2.339-.198 8.973.301 11.647.44.153 9.893 1.352 19.747-11.742 20.477-7.886.439-14.596.397-22.452 1.652l-13.222 1.054c.114-8.721.236-11.191 1.74-19.892 10.18-2.164 23.7-3.179 34.029-3.731"/><path fill="#fff" d="M931.703 667.459c9.881-.674 26.469.098 37.06.315 15.988.327 35.077.194 50.757 1.697 41.15 3.947 80.66 12.705 120.75 22.201 28.33 6.711 54.47 13.305 81.64 24.248 7.87 3.17 16.89 9.97 24.65 13.982 14.15 7.322 26.51 13.501 40.02 22.49 62.06 41.316 113.85 100.197 145.4 167.81 8.91 19.105 20.04 61.043 24.16 81.818-8.28.97-23.63.23-32.46.02-18.03-.54-36.07-.87-54.11-1.01a5524 5524 0 0 0-12.54-59.87c-1.46-6.822-2.9-22.415-7.52-26.623-3.45-.851-2.25-1.082-5.01.223-1.42 4.862 14.25 76.51 16.25 86.41-35.02.49-72.44-.42-107.51-1.09-2.78-36.823-16.16-74.563-34.43-106.156-23.64-40.895-56.21-68.677-98.69-88.598-14.7-6.894-30.14-15.229-46.17-19.403-15.95-4.152-31.83-6.046-48.1-10.366q-1.41-.204-2.82-.382c-53.285-6.732-118.407.627-167.696 20.793-79.979 32.72-147.837 111.314-158.647 198.062-8.971 1.161-19.192.365-28.383.296l-47.798-.429c2.733-36.459 16.568-71.822 23.559-107.247.34-1.724-.847-2.585-1.987-3.499l-2.077.984c-10.169 12.261-25.574 91.432-27.859 109.734q-43.973.02-87.94-.702c3.989-13.938 9.266-33.751 16.444-46.097 14.283-24.565 23.887-49.639 36.095-75.112 39.755-82.952 103.646-138.9 187.202-174.239 63.832-26.996 99.967-27.796 167.76-30.26m609.237-490.664c21.81 1.579 44.04 1.669 65.88 3.111a3431 3431 0 0 1 145.31 14.024c-6.09 25.275-10.63 51.062-15.71 76.558-3.4 17.01-8.67 34.817-11.69 51.704-8.7 48.597-18.3 97.502-26.93 146.039l-2.95 12.468c-41.54-2.526-83.56-8.3-125.09-11.507-23.84-1.842-47.79-2.967-71.56-5.388 5.16-43.707 8.97-88.813 16-132.081 8.35-51.407 17.06-103.763 26.74-154.928"/><path d="M1575.59 204.038c30.62-3.211 36.4 31.141 6.94 42.541-8.01.805-20.8.217-24.57-7.912-7.84-16.883 5.66-27.575 17.63-34.629"/><path fill="#fff" d="M1575.95 212.994c6.16-.678 12.38 1.236 15.28 7.161a11.6 11.6 0 0 1 .34 9.167c-1.76 4.587-4.91 5.924-9.04 7.968-21.21 3.044-22.68-14.563-6.58-24.296"/><path d="M1567.71 267.12c4.29-.34 8.6.376 12.55 2.085 8.89 3.801 12.86 12.364 8.66 21.51-3.93 8.557-10.74 11.336-19.11 14.379-33.42 1.375-30.92-29.586-2.1-37.974"/><path fill="#fff" d="M1564.82 277.078c6.74-.392 12.19-.829 15.88 6.043 1.36 7.625-4.58 10.084-10.34 12.636-5.07.572-10.94.743-14.06-4.118a7.07 7.07 0 0 1-.88-5.868c1.38-4.693 5.43-6.689 9.4-8.693"/><path d="M1561.37 318.283c18.26 2.653 23.02 10.215 16.99 27.779-7.13 6.971-9.61 7.407-19.11 9.764-16.82-.188-19.57-10.861-17.97-24.782l.36-.457c6.69-8.47 9.12-11.076 19.73-12.304"/><path fill="#fff" d="M1559.77 327.275c15.62 3.016 15.35 13.883 1.23 19.49-15.77-.775-15.4-16.348-1.23-19.49"/><path d="M1544.21 416.202c9.98-1.399 13.58.385 20.55 7.4 3.73 15.853.68 22.402-15.46 27.648-26.02 2.562-30.04-25.68-5.09-35.048"/><path fill="#fff" d="M1548.49 424.067c16.04 3.939 9.24 14.964-2.88 19.539-14.01-6.457-10.9-16.036 2.88-19.539"/><path d="M1552.59 365.947c21.6-.661 31.25 26.824 1.8 35.755-12.42.599-23.88-6.581-19.01-20.529 3.11-8.91 9.23-11.631 17.21-15.226"/><path fill="#fff" d="M1551.06 376.009c13.2.061 16.5 9.969 3.99 16.638-4.71.38-6.9.069-10.48-3.155-2.72-7.313.77-9.715 6.49-13.483"/><path d="M1592.9 420.955c10.94-.964 83.16 3.716 88.31 8.764.96 4.033.54 3.191-.75 7.611-1.47-.094-9.24-.785-10.32-1.043-13.32-3.193-71.35-2.412-78.38-9.273-.71-3.449-.69-2.066 1.14-6.059m36.32-212.066c20.04.04 40.69 3.171 60.76 4.443 7.01.445 21.89.747 25.97 6.181.24 3.181-.76 4.249-2.44 6.886-12.22-1.917-81.59-6.943-85.87-10.858-.59-3.653-.3-2.759 1.58-6.652m-26.12 170.13c15.57-.939 60.81 3.906 78.05 6.292 2.68.371 3.47 2.023 4.4 3.989-.54 3.318-1.29 3.85-3.6 6.228-19.25-4.691-54.2-3.449-74.54-6.495-4.25-.637-5.14-.999-7.38-4.095.57-3.697.49-2.707 3.07-5.919m13.29-83.931c22.98-.75 54.63 2.035 77.91 5.145 3.06.41 3.89 2.003 5.23 4.188.31 3.086-.66 4.137-2.27 6.716-25.99-4.129-52.38-4.662-78.52-7.173-1.22-.118-2.77-1.299-3.6-2.141-.92-3.542-.54-2.668 1.25-6.735m8.82-43.998c22.07-.415 55.58 2.92 78.16 5.813 2.29.293 2.76 1.503 3.62 3.111-.08 3.05-1.06 4.199-2.63 6.739-25.01-1.549-50.5-4.573-75.57-6.101-3.31-.202-3.79-.758-5.53-3.105-.33-2.956.5-3.834 1.95-6.457m-17.54 87.974c12.27-.232 76.85 1.981 81.94 8.618.88 2.964.15 4.195-.89 7.041l-53.83-4.508c-5.5-.457-24.27-.843-27.53-4.483-1.1-2.828-.59-3.705.31-6.668"/><path fill="#fff" d="M1405.27 288.546c14.22-.429 28.44-.713 42.67-.854-5.17 42.83-8.18 86.838-11.4 129.836l-16.53 225.725c-2.24 27.499-2.82 60.945-6.31 87.522-11.11 1.894-40.5.561-53.35.371-26.66-.362-53.33-.415-79.99-.16-13.96-7.463-31.12-15.312-44.06-23.001l.24-.761c8.13-1.478 34.1-.297 44.63-.359l100.94-.978c1.52-.328 3.31-.634 4.63-1.494 1.73-1.131 2.79-3.328 3.22-5.287 1.82-8.411.9-19.283 1.78-28.126 3.53-35.497 6.43-70.91 9.27-106.465 2.8-35.155 5.91-70.456 9.54-105.53 2.65-25.679 6.02-51.441 7.83-77.186.65-9.209 4.61-67.695 2.28-71.591-8.57-2.126-48.02.593-60.27.678-48.03.333-97.1 2.315-145.07 2.058-2.3-6.476-4.29-13.387-6.31-19.978 16.09-1.477 40.06-.745 57.28-1.182zm-576.534 9.083c9.071-.594 16.681-.884 25.768-.901a783 783 0 0 0-3.333 23.223c-32.694.507-66.11.978-98.755 2.532-11.359.541-60.679-.081-67.356 5.483-3.933 8.267-7.356 40.383-9.044 51.915a6853 6853 0 0 0-11.794 80.305c-9.963 67.443-22.313 134.399-29.066 202.428-1.021 10.286-5.9 38.16-4.933 47.207 7.105 3.903 61.289.604 73.775.104l-20.418 12.877c-3.144 2.206-8.541 6.991-11.678 9.598l-78.327 1.829c1.187-12.548 3.137-24.695 5.451-37.067 10.782-57.651 20.209-115.496 29.412-173.411a9913 9913 0 0 1 26.594-166.415c2.312-13.175 7.285-47.684 10.492-58.433a2479 2479 0 0 0 163.212-1.274m97.824 320.947c23.251-1.639 66.428-1.66 88.37 2.216 27.6 4.878 73.27 15.422 99.21 25.605 3.65 9.14 4.43 14.32 5.18 23.799-32.12-3.674-60.61-9.268-93.57-10.273-17.04-.664-34.686-3.803-53.16-4.239-48.723-1.149-91.816 2.104-139.875 6.681.824-11.248 2.017-22.817 3.033-34.078 34.183-4.554 55.028-8.213 90.812-9.711"/><path fill="#fff" d="M1358.69 322.461c12.79-.455 30.25.331 43.38.544-6.13 7.337-21.38 26.288-28.13 31.354-4.17-2.49-4.98-3.428-8.92-2.438-5.17 6.246 7.38 11.515-16.53 30.765-32.81-.627-71.42.508-104.74.764-16.88.618-33.79.641-50.67.068 1.05-.993 2.09-2.009 3.1-3.048 13.64-14.085 20.11-36.109 19.78-55.498 11.51-1.191 30.95.033 43.27-.31 32.59-.909 67.05-.211 99.46-2.201m-575.969 81.021c25.86-.85 54.667-.741 80.646-.685-3.311 23.115-3.187 55.376-2.974 78.471-6.633-.229-17.211-.743-23.447.723-20.824-1.616-59.682.875-81.947 1.166 2.571-23.91 5.169-55.441 9.565-78.485 5.368-.579 12.633-.843 18.157-1.19m567.559-9.417c12.3-.166 45.53.004 56.19.978-1.82 27.283-4.15 54.53-6.97 81.728-24.1.4-58.21-.725-81.16 1.076-16.1-.394-32.19-.587-48.29-.579 3.25-3.417 10.93-12.346 14.61-13.555 2.78 1.431 4.04 2.329 7.23 2.354 3.25-2.175 2.37-1.033 3.86-4.223-.9-2.613-1.39-3.449-2.75-5.884 1.39-6.88 21.46-23.465 26.61-28.766 3.67-3.762 6.29 3.154 12.65-2.141 1.46-4.893-.16-4.386-.23-8.007-.11-5.698 14.12-18.81 18.25-22.981m-212.67 99.677c1.55 5.757-1.87 15.331-3.21 21.097-10.36 44.835-19.96 82.284-61.88 107.223-51.06-19.414-143.433-19.555-197.268-12.699 1.709-8.398 2.396-14.212 3.04-22.702.994-7.435 1.403-20.405 6.734-24.803 3.431 2.07 10.766 11.068 14.355 14.124 4.823 4.108 10.672 8.043 16.08 11.287a112.32 112.32 0 0 0 85.009 12.064c40.17-10.148 90.79-38.72 115.97-72.11 7.31-9.695 14.83-22.807 21.17-33.481m-404.87-89.289c5.202-.487 15.91.038 21.981-.11a3844 3844 0 0 1-10.277 78.786c-15.248-.453-35.585.975-51.694 1.159l-23.108.97c2.573-25.7 7.749-53.278 10.803-79.416 16.835-1.073 34.619-.333 52.295-1.389m582.16 228.022c22.61-.942 48.65-.745 71.24-.239l-5.91 62.119-16.98.366-74.55.213c3.02-20.999 3.39-40.54 8.05-61.82 5.03-.454 12.9-.478 18.15-.639m-9.36-70.964c24.32-1.682 60.94-.737 86.01-.694-.32 12.17-3 47.47-5.09 58.816-2.15 2.162-2.67 1.551-6.31 1.91-25.8-.065-57.69 1.168-82.78-.12-.06-7.236 4.97-55.889 8.17-59.912m27.72-72.042c20.35-.854 44.5-.293 65.13-.288-.81 17.521-3.92 44.207-5.94 61.919l-18.39-.335c-10.39.086-61.88 1.987-67.2-2.31-1.6-8.657 4-48.488 5.99-58.211 6.54-.425 13.8-.535 20.41-.775M838.264 331.526c3.734-.129 8.788-.635 12.163.591 2.101 11.713 3.131 23.931 6.44 35.324 2.206 7.596 9.411 13.927 5.948 22.318-5.145 2.989-58.235 3.083-67.565 3.159l-28.509.248c.728-17.851 3.904-41.887 6.272-59.886 17.749-1.444 46.316-1.243 65.251-1.754M1234.7 490.562c17.86-1.537 48.58-.631 67.5-.571-1.92 10.94-5.54 55.064-9.51 59.706-3.15 1.868-6.7 1.345-10.44 1.258-21.58-.218-47.65 1.037-68.57-.137.62-15.219 5.7-42.959 7.46-59.763zm-4.3 71.003c8.86-.726 54.43-2.195 60.57 1.506 2.24 6.89-3.58 49.152-5.01 58.301-5.77.726-14.22.521-20.21.557-19.58.262-39.16.16-58.73-.305-.4-10.156 3.37-49.512 5.65-59.49q8.865-.083 17.73-.569m-11.17 70.959c21.64.421 43.27.533 64.91.335-1.59 11.803-5.17 53.079-7.73 60.761-2.72 1.898-6.32 1.37-9.87 1.361-10.31-.076-57.89 2.658-63.1-2.577-1.61-1.62-2.23-3.904-2.42-6.123-.87-10.181 3.22-40.206 4.01-53.155 4.74-.114 9.47-.314 14.2-.602m81.93-238.048 37.05-.486c-5.35 6.965-9.34 10.752-15.78 16.591-3.08-3.097-6.39-6.778-10.9-6.988-2.83 1.611-1.87.673-3.47 3.865.45 4.152 4.32 4.543 6.52 10.143-.41 6.02-23.49 26.497-28.86 31.447-6.38-5.887-35.51-35.703-39.24-42.041 2.03-4.33 3.38-5.38.02-9.127-1.38-.155-11.72 2.355-15.84 2.762-.39 2.045.55 8.411-.06 9.257-7.3 10.276-16.02 20.624-25.09 29.428.07-.067-3.68-.859-6.4.659-.77 2.186-.95 3.325-2.53 4.941-9.36-13.694-5-13.218-23.37-17.203 4.49-11.677 5.82-19.393 7.67-31.794 37.78-2.035 81.64-.649 120.28-1.454m-168.32 167.446c20 1.008 46.93.096 67.35-.036-1.15 10.571-4.25 51.551-6.45 58.881-2.51 1.985-3.12 1.478-6.65 1.882-20.75.25-49.83 1.234-69.85-.535 2.39-34.815 3.61-28.118 15.6-60.192M756.652 333.456c3.221-.135 3.76-.199 6.78.864.99 2.565-6.371 52.461-7.48 59.595q-32.564.388-65.122 1.204l-8.342.47c1.655-19.757 4.826-40.849 7.585-60.597 22.204.25 44.41-.263 66.579-1.536"/><path fill="#fff" d="M1238.2 413.639c6.02 2.412 35.19 35.7 40.46 42.515-7.63 7.575-13.27 13.238-20.16 21.606-6.02.613-15.88.445-22.25.501-14.06.351-26.09.593-40.14-.003 1.62-7.48 2.41-13.376 3.37-20.977 5.76.064 10.82 1.004 13.36-4.871-1.04-3.659-2.03-5.392.28-8.688 7.54-10.768 16.07-20.515 25.08-30.083m-517.639 81.857 22.003.267c-1.529 17.98-5.565 42.886-7.917 61.526-8.565.1-17.92.713-26.538 1.112 1.74-14.318 3.742-26.648 6.289-40.764-8.522-.624-20.841-.338-29.648-.392-2.207-.067-6.686.323-9.068.467-2.868 10.004-4.785 34.416-8.077 40.366-2.64.958-3.773 1.581-6.634 1.489-3.171-6.245 5.351-51.964 6.398-63.311 15.89.686 36.885-.401 53.192-.76m397.629 137.822c14.58 1.518 64.16-2.623 73.37 1.732 2.68 5.583-1.07 40.81-1.9 48.889-.54 2.815 0 2.062-1.76 3.912-17.7-3.883-37.87-10.266-56.51-14.667-1.52-8.501-1.07-20.185-4.23-28.018-1.45-3.595-7.83-6.735-8.97-11.848m86.53-142.791c2.01-.304 2.41-.066 4.31.482 1.98 3.754-6 52.703-7.77 59.586-18.06 1.862-40.94 1.392-59.51 1.419-2.29.062-2.22.092-4.39-.599-1.49-4.843 5.13-24.217 6.82-30.056 24.64-.715 34.14-11.606 47.39-30.368zm-450.136 4.347 44.347-.347a2317 2317 0 0 1-9.437 61.413q-21.807.539-43.619.337c2.806-19.658 3.543-42.461 8.709-61.403m93.842-1.446c3.526-.365 10.025-.323 13.787-.422.039 24.687 9.5 33.194 5.47 61.176l-14.433-.004-24.847.21c2.743-18.804 4.797-41.021 7.203-60.312zm-4.714 72.004q11.84-.473 23.687-.674c-2.556 12.706-4.51 32.985-6.284 46.459-11.793.978-17.756.867-28.696 5.745-4.804 2.531-4.461 5.028-8.074 9.994-2.952 1.25-1.696 1.136-4.749.524-1.421-3.888 6.171-54.746 7.985-61.485 5.943.137 10.277-.133 16.131-.563M1169.6 439.038c32.59.142 16.33 45.63 3.11 59.223-3.29 3.377-6.35 5.572-10.14 8.211-4.25 1.882-10.41 4.69-15.01 3.328-.44-1.463 13.13-57.905 16.33-64.358 1.71-3.464 2.35-4.561 5.71-6.404M745.315 567.18c13.875-.484 29.121-.274 43.146-.442a1620 1620 0 0 1-9.621 62.289c-5.246.028-11.726-.49-17.058-.77.507-6.293 1.084-14.771 2.364-20.787 5.011-23.546-.483-25.089-22.007-23.332.903-6.577 1.571-10.447 3.176-16.958m-36.41 2.439c8.204-.666 16.134-.698 24.359-.807-.862 5.537-.127 9.883-3.197 14.607-6.596 10.152-6.599 32.079-9.674 45.886-7.56-.05-14.013.19-21.566.615l.615-5.009c1.535-12.248 5.005-40.477 7.664-53.895zM1409.6 326.703c2.92 7.434-.72 45.286-1.59 55.361-15.28-.231-30.43.926-46.4.62l-.15-.998c5.37-13.86 14.94-6.177 20.7-13.945.2-3.432-.01-4.438-.57-7.749 5.53-8.344 20.86-25.037 28.01-33.289M713.566 640.502c2.328-.53 2.273-.665 4.407.202 1.73 4.808-6.706 47.881-8.349 56.166l-14.322 1.069c-2.658.016-3.13.209-5.299-1.109-1.546-5.399 6.089-46.79 7.418-55.899zm931.654-497.654c4.58 2.585 36.67 28.773 42.5 33.373-11.34-.286-20.76-1.331-31.96-2.594-13.03-1.581-35.14-2.099-45.93-4.344a1410 1410 0 0 0 35.39-26.435M760.269 639.057c5.323-.155 10.917-.117 16.267-.169-.845 11.279-3.428 27.026-5.77 38.138-.591 2.806-1.399 2.571-3.973 3.854l-12.917 4.264c2.345-15.187 4.114-30.804 6.393-46.087m-102.026-71.209c1.127.025 7.224.25 7.217 1.679-.085 17.619-2.834 43.44-7.006 60.406-3.389.24-6.133.864-9.003-.694-.352-6.496 6.943-54.977 8.792-61.391m-10.461 72.586c3.302.08 3.804.089 6.86 1.298 3.522 5.524-5 48.191-6.647 58.049-2.536.352-4.571.529-6.537-1.005-.243-9.446 4.701-48.542 6.324-58.342m457.968-32.577.76.824c.89 3.682-.53 9.823-1.17 13.784-12.25.909-8.97 4.035-16.44 5.269l-1.17-1.569c.81-2.536 14.72-15.043 18.02-18.308m-287.297 29.425c3.708 1.725 4.736 1.619 4.575 6.17-.239 6.726-1.286 15.849-4.319 21.817l-2.577-.874c-2.638-4.826.999-21.397 2.321-27.113"/></svg>