<svg xmlns="http://www.w3.org/2000/svg" preserveAspectRatio="none" style="display:block" viewBox="0 0 2048 1462"><path d="M0 0h2048v1462H0z"/><path fill="#fefefe" d="M0 0h2048v1364.4c-22.07 1.4-51.51.09-74.35-.1-35.55-.5-71.11 0-106.64 1.5 40.79-21.23 57.99-35.46 72.19-80.39 13.91-44.02 9.86-135.97 4.73-183.18-1.53-14.1-4.52-28.01-6.3-42.07-1.48-11.69-2.29-23.46-3.93-35.13-1.83-13-4.8-25.823-7.19-38.731-2.55-13.793-4.45-27.669-7.46-41.382-4.5-20.03-9.4-39.969-14.69-59.804-3.32-12.018-7.39-24.691-9.97-36.878-.81-3.789 8.65-8.138 11-12.531 10.07-18.821 15.79-36.564 18.55-57.281 5.6-41.98-27.84-78.748-38.6-115.852-9.12-31.424-1.92-62.227-20.04-94.741-15.66-28.098-35.27-46.714-66.59-56.357-2.83-.865-5.67-1.687-8.53-2.465 4.4-66.411 4.31-133.137 7.3-199.522 3.82-84.823 8.05-169.673 10.14-254.572.18-6.174.22-17.396-1.25-23.203-9.51-6.546-39.18-4.545-51.91-5.245-55.55-3.054-110.22 2.145-165.57 5.407-24.06 1.418-49.99.122-74.39.625l-134.7 3.709c-36 .657-71.81.12-107.8-.068a883 883 0 0 0-42.5.804c-29.48 1.285-58.75-1.122-88.2-.712-29.44.41-58.86 3.505-88.28 4.461-47.57 1.245-95.158 2.541-142.719 3.84l-285.664 5.402-77.831 2.927c-47.063 1.468-91.332 2.91-138.361 6.325-50.692 3.68-103.414-1.495-154.407 3.236-27.24 1.865-54.745.79-82.025 1.403-22.683.275-45.7 2.512-68.371 3.599-19.354 1.328-42.357-.95-60.74 2.515a43.4 43.4 0 0 0-6.402 1.653c-3.907 18.833-4.045 53.329-4.769 73.812l-3.799 149.401c-1.39 52.776-4.011 105.671-5.74 158.43-.297 33.879.113 67.784.28 101.667.135 27.235-.726 54.467-.068 81.691.212 3.076 2.067 8.125 4.085 10.318 2.496 2.71 8.706 5.541 12.489 5.657 25.904.794 52.144-.881 78.014-.273a9268 9268 0 0 0 265.9 1.468c22.092-.125 44.641-1.401 66.608-1.361l206.314-.817c22.582-.185 45.209.551 67.765.147 19.564-.35 39.593-3.636 59.141-4.123 95.58-2.383 190.886-6.481 286.53-4.021 15.76.406 31.55-1.554 47.3-1.126 122.98 3.942 245.54 6.206 368.53 1.28 13.15-.527 26.65.288 39.83.173 31.23.481 62.57-1.085 93.77-.925-9.26 14.647-6.24 24.251 12.66 23.004 10.79 33.073 25.83 57.491 61.65 66.556-.36 15.845-1.54 32.245-2.48 48.109-60.9 29.259-114.05 63.838-175.09 92.949-49.26 23.491-92.79 38.119-144.35 54.095-41.79 12.945-84.01 28.641-126.58 39.554-2.56-7.666-4.89-10.609-11.71-15.186-32.49-2.412-51.02 10.289-79.37 7.912 2.97-8.863 8.24-25.012-4.73-29.774-5.35-1.548-12.35 1.331-16.68 4.171-23.56 15.431-48.46 44.212-77.48 48.09-56.665 7.571-114.693 8.056-171.656 3.363-20.513-1.689-41.107-.531-61.273-5.282-18.447-4.341-37.872-7.467-56.164-12.23-32.427-8.443-60.859-17.523-94.767-19.564 11.419-27.934 13.734-30.612 44.288-35.752 22.203-3.735 41.785-20.34 50.03-41.051 9.446-22.243 8.423-50.679 6.741-74.37-.863-12.161-5.886-17.498 2.997-25.964 4.125-3.93-.379-20.114-2.399-24.489-7.48-18.808-29.704-39.392-48.679-45.875-45.889-15.679-101.219-15.05-146.174 3.343-41.237 16.661-64.803 51.395-77.048 92.711-7.073 23.865-20.171 51.153-10.794 76.482 8.446 22.813 59.243 20.131 78.718 18.939-27.656 32.715-55.645 62.673-79.288 100.023-26.218 41.416-37.8 94.926-58.211 139.796-5.745 14.54-8.723 30.88-14.474 45.33-14.034 35.25-27.145 70.76-45.313 104.22-11.998 22.1-24.565 50-42.181 68.34-6.486 6.76-20.111 9.74-28.815 10.19-25.493 2.16-54.152 1.7-77.621 12.91-1.121.54-14.91 13.92-17.131 15.89-65.573 3.13-139.365-1.38-205.306-.21z"/><path fill="#fefefe" d="M1167.94 1380.22c60.78.51 127.54-5.81 189.14-6.5 103.24-1.27 206.48-.79 309.7 1.43 9.61.19 19.3.76 28.9 1.3 73.18 4.18 145.35 2.24 218.5 1.5 44.62-.32 89.24.45 133.82 2.32V1462H0v-58.02c.998-.21 3.122-.63 4.47-.64 65.648-.86 131.86-.74 197.504-.12 2.727.03 4.042 15.56 10.287 19.15 16.525 9.51 40.576 2.62 57.148.78.544 1.18 1.105 2.2 1.151 3.51.633 10.19 14.597 11.88 22.334 11.56 15.55-.64 30.314-4.93 45.197-9.02 9.61-2.65 17.765-5.76 26.427-10.75 9-5.19 14.938-11.16 21.936-18.53 46.167.44 92.189-1.41 138.392-1.2 12.934.06 27.039-1.53 40.155-1.52 36.748.04 74.027.74 110.74-.22 36.908-.96 73.326-.77 110.221-.55 13.367.08 27.035-1.9 40.106-1.6 3.807.08 18.532 5.01 22.905 6.41-5.166 3.41-12.893 7.84-13.637 14.31-2.07 18 29.656 23.56 41.562 26.51 63.594 15.79 130.512 8.48 193.362-6.9 14.38-3.52 29.7-5.65 43.1-12.12 19.33-10.62 34.64-30.63 53.57-42.22zM1681.85 39.378c14.27-.712 107.09-.76 112.27 3.803 1.3 9.347.26 27.876-.11 37.84q-1.23 33.316-3.03 66.606l-6.7 160.301-4.24 135.263c-.6 16.265-.86 46.96-3.62 61.982-22.4-4.327-34.49-6.109-57.45-3.146 5.08-116.137 3.65-232.607 11.69-348.603.61-8.861 2.93-61.982-.43-65.884-9.86-2.875-65.61-1.425-80.9-1.364-23.33.093-53.5-1.025-76.37-.206-51.54 1.844-102.92 2.467-154.45 4.39-24.01.897-48.92-.082-73.17.733-32.35 1.088-65.13 4.388-97.39 4.831L429.075 106.99c-38.992.617-78.04.88-117.076 1.805-33.816.262-69.847-2.386-103.42 2.267-38.408 5.322-86.542-2.146-123.478 4.968-.439 2.863-.665 5.735-.877 8.622-3.387 46.163-3.534 92.312-5.288 138.513-1.369 36.062-14.754 319.744-4.885 329.839 5.172 5.291 80.793 3.074 91.483 3.164 36.569.307 73.255.081 109.806.853 28.976.612 57.767 2.407 86.784 1.966 53.7-.815 107.427-2.846 161.115-4.317 18.231-.5 36.466-.057 54.694-.708 64.002-2.288 127.933-5.918 191.99-6.547l567.327-1.3c42.81.567 85.28-1 127.91-1.213l150.15.525c3.84-19.176 1.21-25.528 13.29-44.383 12.94-20.192 37.97-34.807 60.98-40.606 3.78-.954 10.59-2.165 13.93 0l.14 1.78c-.64 1.254-1.7 2.952-3.06 3.487-33.29 13.09-72.67 30.268-74.72 71.694-.26 5.167.35 11.106.32 16.536-.07 11.687-.08 23.374-.02 35.06-23.6.076-47.54 1.249-71.28 1.301-23.22.796-47.2-1.085-70.35-.098-120.32 5.132-240.57 2.207-360.88-1.203-9.23-.262-18.56.329-27.79.528-63.26 1.273-126.261-2.678-189.547.756-39.849 2.163-80.015 1.609-119.917 3.323-21.559.927-43.658 3.49-65.15 3.748-28.036.337-56.205.063-84.261.268l-193.512 1.244-309.117.247-69.87-.466c-8.037-.041-16.068.092-24.103-.011-5.665.278-5.099-7.778-4.96-12.056 1.777-54.526-.376-109.123-.1-163.574.343-67.509 5.855-135.604 6.385-203.164.316-40.226 1.914-80.158 3.549-120.34.81-17.591-.207-40.5 2.421-57.21 17.98-3.412 40.878-.058 59.609-1.864 40.443-3.899 80.7-3.147 121.222-3.758 36.536-.551 73.302-3.97 109.954-3.24 31.877-.017 64.976.581 96.756-2.297 36.334-3.29 71.6-3.254 107.996-4.135 26.987-.652 54.055-2.567 81.097-3.312l304.863-5.86c43.333-1.232 86.565-2.841 129.955-3.66 24.49-.46 50.13-3.656 74.87-4.166 24.8-.512 49.13.678 73.86.828l135.84-.4a6319 6319 0 0 0 338.14-11.046m72.04 729.866c1.74.895 21.73 19.935 22.22 21.279 6.14 16.861 7.95 33.59 26.23 43.099 15.01 7.806 24.72.454 31.71-14.009l9.27-4.724c12.24 7.424 20.98 20.848 34.96 31.212 6.14 15.241 15.45 52.013 19.36 68.251a1424.5 1424.5 0 0 1 38.06 260.158c.46 10.11-1.33 82.93-4.9 86.84-31.58-1.09-91.28-52.44-112.94-75.2-16.27-14.66-29.53-34.04-44.92-49.21-25.36-25-49.57-51.28-74.79-76.32-17.16-17.03-37.6-31.91-56.11-47.45-10.75-9.02-21.34-19.107-32.6-27.281 20.92-12.435 45.06-22.333 66.56-33.915 7.06-3.806 16.5-10.479 23.25-15.066 9.4-6.14 41.31-25.229 46.33-36.874.45-1.043-.69-2.759-1.64-3.612-4.13-3.72-9.05-.17-12.77 2.299-15.46 11.423-31.69 21.908-47.56 32.76-4.27 2.583-8.77 6.33-13.25 8.497-37.95 18.33-72.36 37.965-112.65 50.697-56.07 17.725-111.41 27.735-169.57 35.175-17.38 2.23-35.24 2.47-52.69 3.82-18.24 1.41-37.02 4.42-55.18 4.69.28-15.66-5.03-46.665-10.38-61.517 37.46-9.574 73.11-22.965 109.95-34.113 49.36-14.943 94.85-30.666 141.5-53.164a1332 1332 0 0 0 67.01-34.743c37.08-20.914 125.38-73.605 165.54-81.579m-448.75 277.206c2.16-.41 1.57-.28 3.85.01-.57 1.47-37.14 31.08-41.91 35.24l-133.87 117.59c-22.45 19.92-45.14 40.58-67.81 60.26-9.26 8.04-29.45 20.04-40.44 26.79-21.83-23.13-47.555-42.7-69.982-65.12-44.803-44.79-83.384-106.37-145.729-129.52-35.552-11.97-69.364 3.98-100.903 19.52 7.12-12.72 12.653-21.59 16.998-35.55 37.79 6.49 73.788 8.61 112.038 7.54 13.591-.37 27.715.86 41.576.24 31.29-1.41 62.761-5.54 93.697-10.37 13.546-2 27.009-4.52 40.365-7.55 8.6-2.05 30.06-9.24 39.49-7.24 1.89.83.54 11.77 1.63 12.85 9 8.86 10.82 16.82 14.84 28.46 3.13 9.06 3.39 12.13 12.16 16.96l1.12.61c50.03-.26 98-27.99 142.07-49.16 33.2-15.95 45.05-18.77 80.81-21.56"/><path fill="#fefefe" d="M654.174 962.429c52.441-4.322 118.222 24.522 171.6 32.032 20.672 2.909 37.602 3.503 58.313 4.591 56.489 2.968 121.183 6.608 176.693-4.643-3.21 11.871-3.62 20.751-3.64 32.871-8.39 4.76-11.19 7.53-14.05 16.71-40.84 14.75-116.51 22.91-161.409 26.39-13.672 1.06-37.899-.4-52.692-.15-19.87.33-41.47.01-61.165-2.37-41.111-2.16-78.013-12.58-117.629-21.57-1.975-.45-3.492 1.85-4.556 3.18-.388 2.49-.928 4.22.553 6.52 2.847 4.42 56.806 15.89 67.093 18-11.174 37.29-42.998 62.31-74.953 80.42-7.073 4-14.144 10.2-21.05 14-19.67 10.81-52.467 5.49-73.162.25 13.521-57.92 35.936-126.24 60.31-181.536 4.024-9.131 20.181-13.715 26.521-23.841a358 358 0 0 0 23.223-.854m780.116 204.291c9.89 8.99 19.01 21.55 29.42 30.24 28.69 23.98 55.4 52.7 83.26 77a591.2 591.2 0 0 0 134.17 87.42c-24.38-.8-51.17 1.51-74.92.03-59.55-3.7-118.77-.31-178.09-1.48-25.74.85-53.53-.81-79.78 0l-112.56 3.98c-17.65.69-34.7 2.12-52.41 2.21 6.62-6.93 21.35-17.04 29.85-23.59l73.76-56.12c50.08-38.67 99.2-78.58 147.3-119.69M548.325 937.001c20.335 11.877 23.497 14.347 46.225 23.761-36.331 54.598-47.057 118.068-71.431 177.978-12.047 29.61-24.841 52.22-39.746 80.33-26.956 50.83-56.29 104.79-90.325 151.36l-.953.8c-4.219.26-36.09-19.77-42.7-23.68 40.284-62.25 70.715-133.22 91.639-203.94 1.519-5.13 4.312-12.04 6.516-17.01 10.805-24.4 18.434-49.58 27.607-74.55 14.976-40.47 43.047-84.378 73.168-115.049M801.81 1237.1c6.18-.4 12.601.3 17.748 3.86 22.276 15.5 42.875 33.56 64.166 50.55 19.596 15.63 42.943 27.02 62.069 42-40.105 6.83-83.27 9.85-123.896 7.4-38.5-2.33-60.323 16.14-19.33 41.26-18.285 1.39-41.736.94-60.317 1.02-58.29-.62-114.844 2.22-174.008.44 70.911-27.43 134.45-76.12 193.694-122.94 12.354-9.76 24.501-19.23 39.874-23.59m-43.872-456.813.402.565c5.431 23.763 4.612 68.125-5.628 88.159-15.835 30.979-33.408 28.675-61.894 36.854-15.597 4.478-23.388 18.78-29.328 31.214-34.186-9.046-43.555-10.568-74.923-26.106-4.005-1.816-7.806-4.674-11.449-7.186 3.603-4.42 4.784-6.203 7.632-11.157 27.357-4.223 26.575-7.886 38.79-33.204 1.293-2.732 15.36-29.623 12.941-30.55-4.975-1.908-32.097-20.335-3.51-32.8 4.665-2.034 7.575.763 12.373 3.766 26.524-8.057 55.204-11.55 82.71-14.399 10.878-1.127 21.318-2.231 31.884-5.156"/><path d="M728.202 799.864c16.579 3.483 11.014 27.568.712 34.32-13.961-3.509-13.58-27.248-.712-34.32m-13.074 63.408c6.839-.044 21.025-1.4 25.072 4.364-.876 3.813-.886 2.81-4.406 6.019-7.084-.486-18.761-.051-23.349-4.679.107-3.547-.031-2.342 2.683-5.704"/><path fill="#fefefe" d="M1084.9 1319.85c3.46 3.56 6.54 9.26 12.31 14.88 16.96 16.51 34.94 27.73 54.55 40.44-7.13 6.92-32.36 28.47-39.72 32.89-10.66 6.41-57.98 18.64-70.49 20.52-31.1 4.67-90.421 14.59-120.767 7.75-21.05-2.19-56.314-7.07-73.405-19.01 17.103-15.61 69.162-17.04 92.1-22.24 23.224-5.26 49.974-10.24 71.752-20.05 24.62-11.09 55.8-35.16 73.67-55.18m555.24-982.306c9.98.949 45.02-3.734 48.85 4.686-.72 5.363-4.71 7.008-10.02 7.054-122.61 1.06-245.07 3.498-367.74 2.684-77.61-.515-155.89 2.568-233.57 2.205a37732 37732 0 0 0-700.411-3.637c-10.269.3-45.63 1.219-52.705-3.624l.377-1.278c1.179-.819 3.346-2.059 4.75-2.152 72.133-4.809 144.631-3.492 216.829-3.385l532.99 3.73zm-490.5 635.882c3.08-.599 12.9.079 16.42.166 37.95.935 54.24 15.336 92.5 4.831a251.3 251.3 0 0 1 8.27 56.547c-17.03 7.6-34.63 14.39-51.57 22.25-33.8 15.61-65.39 35.05-102.28 42.9-7.28 1.54-23.99 6.69-29.38 1.05 3.43-8.34 52.04-14.64 60.36-24.24.69-3.59.83-1.86-.59-5.35-14.34-10.45-62.74 25.83-69.24 11.92l1.01-2.04c4.78-3.95 13.45-5.98 19.5-7.81 7.78-2.82 47.73-14.94 51.14-19.79 1.27-1.81 1.3-2.88.89-4.95-13.93-13.04-69.67 28.36-81.64 15.59 5.52-13.92 74.73-21.37 72.67-37.2-7.4-6.54-14.13.15-21.46 1.81-14.39 3.26-45.91 19.07-58.46 19.32-1.69-3.17-1.52-1.79-.91-5.12 11.87-11.79 79.6-39.03 98.39-46.105 4.35-1.639 7.03-3.054 9.11-7.695-.18-3.598.5-2.111-2.06-4.621-8.62-2.918-17.04 1.306-25.75 4.234-3.92-3.789-7.54-5.465-5.51-10.886 4.74-3.836 12.56-4.169 18.59-4.811m488.96-390.773c23.2.435 45.39 7.454 65.83 18.308 21.2 11.257 21.53 34.885 27.79 55.494 2.8 9.195 12.9 28.27 12.81 36.354-.28 25.252-5.81 40.47.59 66.335-6.06 1.077-12.23 3.023-18.16 4.738-6.51 2.116-17.53 7.295-24.17 10.219 1.5-13.258 2.08-26.844 2.81-40.184 6.59-.861 13.06-3.223 8.68-11.226-3.16-2.043-4.71-.679-8.09-.872-43.42-2.675-61.79-42.018-66.79-80.23-2.67-20.48-1.27-38.662-1.3-58.936"/><path d="M1670.59 616.045c18.39.323 14.67 22.55 9.22 33.935-3.02 1.256-3.16 1.405-6.25.811-7.95-5.744-6.07-26.717-2.97-34.746m18.97 58.003c1.37.024 2.74.04 4.11-.069l1.41 3.364.53-1.75c.22 10.636-20.8 17.153-29 18.678-3.92-.298-7.39-.837-7.61-5.136 3.02-5.631 21.46-9.875 29.47-14.458z"/><path fill="#fefefe" d="M954.521 1345.17c10.345-1.42 31.907 14.96 41.475 21.44-37.589 15.07-90.232 19.13-130.73 28-8.14-3.96-12.654-5.71-21.16-8.66-10.217-3.3-51.583-16.69-49.606-28.64 2.604-2.14 7.958-3.29 11.278-3.24 49.847.74 99.626 2.18 148.743-8.9m-612.565 10.53c1.877.6 19.107 13.66 23.261 16.08 5.315 3.09 13.024 7.58 18.827 10.77-3.564 4.56-7.732 9.82-11.759 13.93a64.9 64.9 0 0 1-17.886 12.88c-9.722 4.74-63.927 20.8-70.805 13.86 2.485-7.96 32.437-15.86 40.46-26.56.621-3.56.771-2.1-1.143-5.62-3.541-1.37-2.679-.81-7.278.58-28.55 15.39-66.809 27.96-99.169 20.32 9.355-4.46 19.425-6.47 29.432-8.85 24.33-5.8 50.229-10.15 71.226-24.53 1.841-3.5.506-2.32-.635-7.71 9.668-7.21 15.662-5.27 25.469-15.15M1054.13 165.097c4.32 1.202 10.31 1.551 14.9 2.167 20 2.639 34.56 25.184 30.84 44.621-2.39 12.493-9.3 18.549-19.22 25.386-7.4 3.728-29.66 10.372-35.19 1.68-1.09-11.917 1.42-54.847 1.92-69.051.08-2.241 4.51-3.801 6.75-4.803"/><path d="M1058.92 177.849c19.87 1.062 25.07 11.529 30.82 28.638-2.54 8.458-3.6 10.723-9.77 16.988-6.32 4.262-14.68 5.925-22.09 7.769.73-14.839 3.59-39.852 1.04-53.395"/><path fill="#fefefe" d="M1331.32 436.25c21.78 1.701 32.33 1.204 40 25.068-1.56 13.301-4.64 18.859-16.72 25.075 5.06 9.13 23.95 33.343 18.62 42.726-8.39 2.192-12.35-7.635-15.99-13.658-7.51-12.565-9.12-18.053-22.14-24.894-.41 6.742.23 29.152-3.71 34.549-1.34 1.83-3.95 2.145-6.21 2.157-1.54-.727-2.4-.859-3.41-2.309-2.16-3.098 1.65-78.677 2.87-84.938 2.76-3.216 2.04-2.24 6.69-3.776"/><path d="M1334.86 447.518c14.03.186 33.61 10.897 16.83 25.791-6.2 3.244-9.29 3.838-16.16 5.562-.45-10.651.04-19.942-.67-31.353"/><path fill="#fefefe" d="M213.99 309.073c12.251 2.095 22.223 9.175 26.349 21.201a35.28 35.28 0 0 1-1.909 27.231c-5.675 11.467-12.72 15.222-24.165 19.116-5.66-.247-11.114-.671-16.166-3.561a23.46 23.46 0 0 1-11.029-14.445c-5.442-20.17 5.42-44.319 26.92-49.542"/><path d="M210.556 322.136c20.636-1.473 28.786 30.384 5.852 40.884-26.841 5.058-20.266-31.827-5.852-40.884"/><path fill="#fefefe" d="M1030.3 432.559q3.18.272 6.3.985c6.41 1.516 13.02 6.077 16.21 11.866a21.78 21.78 0 0 1 1.75 17.362c-3.09 9.504-10.02 13.057-18.08 17.406 6.05 7.253 23.54 30.176 18.06 39.035-3.72 1.588-2.09 1.38-6.19.669-5.7-3.79-9.2-11.912-12.6-18.148-2.57-4.037-6.97-11.559-10.55-13.945l-1.53.734c-3.51 9.268.83 27.71-7.8 33.535-2.19-.008-3.15-1.036-4.96-2.329-1.26-5.704 1.11-80.36 2.26-82.508 4.61-3.928 11.21-4.107 17.13-4.662"/><path d="M1024.94 444.727c14.73-.204 26.64 9.43 13.09 21.659-5.22 1.363-8.42 3.328-12.75-.335-2.05-4.411-.65-15.611-.34-21.324"/><path fill="#fefefe" d="M514.453 167.858c23.303-.53 39.796-.894 46.569 24.899-7.764 21.307-19.292 24.355-39.802 29.494-2.046-.26-1.256-.244-3.343.391-4.056 7.404.184 20.705-8.271 25.515-13.06-.903-1.177-64.941-1.725-75.175-.12-2.236 4.665-4.128 6.572-5.124"/><path d="M520.154 179.841c9.672-.075 25.645.801 28.234 12.197-1.004 5.17-4.478 8.084-8.585 10.979-7.162 3.678-14.334 6.004-22.029 8.192a1797 1797 0 0 1 2.38-31.368"/><path fill="#fefefe" d="M1765.11 534.706c28.15 9.571 48.32 29.73 61.64 55.919 15.13 29.763-.92 51.339 5.11 80.131 2.65 12.656 24.3 23.779 30.17 35.444 7.76 14.932.17 34.057 5.4 48.069 5.99 16.011 23.74 29.124 27.29 47.625.94 4.844.45 5.236-1.78 8.427l-2.66-1.01c-4.45-5.408-4.89-12.648-8.73-18.143-7.38-10.568-14.52-17.252-20.31-28.914-7.94-15.987.62-36.175-6.16-50.047-7.59-15.546-28.08-21.096-32.16-41.466-3.85-19.254 4.67-36.16 2.39-55.764-3.08-26.526-23.47-48.33-44.39-63.278-5.82-4.16-12.11-5.466-18.1-10.212-.39-3.017.65-3.665 2.29-6.781M1137.58 434.43c13.27 4.056 26.37 39.315 32.57 51.909l1.45.377c2.95-12.146-1.07-43.53 7.34-51.044 5.84-.938 7.79 3.866 7.58 8.956-.87 21.259-1.62 43.009-4.31 64.093-.2 1.551-4.68 6.356-5.91 7.695-13.84-6.233-23.63-43.325-32.32-53.356l-.67.551c1.69 9.471 1.41 49.139-6.27 54.96-5.43.003-7.55-3.124-7.34-8.512.88-22.947.7-46.459 3.74-69.197.27-2.037 2.8-4.942 4.14-6.432M199.11 175.457c11.453 1.232 23.939 28.766 28.016 39.181 2.904 7.415 18.03 31.998 2.194 31.825-5.513-3.74-7.398-11.511-9.611-17.848-7.256.921-17.185.995-24.643 1.175-5.861-.355-11.109.209-16.939.641-2.61 4.19-8.848 15.023-13.664 16.928-3.879 1.533-7.862-2.365-8.7-6.575 1.813-5.725 38.57-61.459 43.347-65.327"/><path d="M200.377 192.649c6.227 6.603 10.983 17.549 14.238 25.979-5.065-.572-8.257-.569-13.364-.524-5.776.386-11.168.495-16.958.591a3001 3001 0 0 1 16.084-26.046"/><path fill="#fefefe" d="M614.971 170.395c16.777 3.567 30.017 48.762 40.778 56.446 6.246-1.262-1.222-54.319 13.271-53.364 1.645 1.306 4.213 2.91 4.055 5.289-.87 13.11-1.77 59.03-8.171 67.463-12.436 5.461-21.889-14.944-27.384-23.642-5.273-8.345-11.25-19.142-14.897-28.29-.683 13.615-1.169 27.276-2.176 40.872-.398 5.38-.837 10.038-6.387 12.368l-2.265-.982c-6.402-8.952-4.97-67.162 3.176-76.16M373.532 443.841c4.549 1.435 9.703 1.181 14.391 2.1 11.873 2.327 23.3 12.889 19.904 25.953-2.065 7.947-6.896 10.814-13.47 14.562 6.805 8.392 20.554 25.567 17.416 37.137-5.75 4.498-13.259-10.168-15.562-14.141-2.842-5.103-12.006-18.694-18.168-17.93-6.218 6.955 1.828 40.203-14.214 29.047-3.523-5.981-1.559-12.377-1.22-19.014.844-16.517.419-33.38 2.386-49.804.497-4.148 5.521-6.307 8.537-7.91"/><path d="M376.465 455.449c7.273.84 19.99 4.642 20.133 13.487-1.045 3.608-2.153 4.137-5.175 6.498-5.318 2.495-9.82 2.805-15.646 3.64.529-8.399.996-15.177.688-23.625"/><path fill="#fefefe" d="M1089.91 434.942c17.43-1.07 19.61 24.847 22.49 38.47 1.66 7.846 14.68 47.192-.86 43.359-5.28-4.738-6.93-14.837-8.76-21.91-6.44.012-10.26.018-16.59.905-1.36-.582-1.94-.437-3.52-.563-7.85 3.433-5.92 16.22-13.26 23.409-3.66 1.327-2.07 1.174-6.28.107-6.1-8.642 19.81-75.336 26.78-83.777"/><path d="M1094.26 455.718c1.08 5.729 7.5 23.598 4.77 28.03-2.6.219-2.94.156-5.42-.111-3.45.266-4.64.223-8.09-.128l-.57-1.857c1.12-6.003 6.23-20.727 9.31-25.934"/><path fill="#fefefe" d="M1015.36 168.325c2.89.676 7.89 2.69 7.94 6.165.28 17.945-.49 38.164-1.33 55.902-.7 14.798-13.19 13.7-18.51 5.226-8.876-14.13-19.366-29.77-28.622-43.284 1.341 12.109 2.3 28.767 1.235 40.926-.514 5.871-1.99 6.129-6.056 9.247-1.483-.601-5.743-2.941-5.805-4.6-.475-12.788-8.261-62.346 6.084-67.317 11.054 1.854 29.53 37.079 39.174 49.151-.43-11.941.75-33.819 2.5-46.015.17-1.242 2.56-4.353 3.39-5.401M748.589 440.046c9.738 2.219 10.074 7.678 8.931 18.394-.786 7.374 4.487 64.301-10.248 60.036-10.313-2.986-21.318-34.686-28.217-45.883-1.614 14.198-.293 23.903-1.651 37.698-.537 5.444-2.433 6.537-6.673 9.516-.508-.443-3.387-3.022-3.508-3.407-4.407-13.972-1.33-31.729-.951-46.491.179-6.969.444-27.748 10.451-26.949 8.126 4.754 24.241 42.262 29.566 53.132-1.667-11.618-3.512-46.434 2.3-56.046m165.785-272.324c16.518-.444 23.037 35.096 28.883 47.896 3.216 7.039 7.302 19.222 1.196 25.391-3.336 1.272-1.694 1.256-5.094-.042-5.246-5.381-6.827-12.658-8.927-19.784l-14.457.886c-3.485.77-12.299.102-13.73.81-6.585 3.258-3.667 17.973-12.972 19.857-1.565-.525-2.687-.556-3.631-1.879-4.153-5.817 1.4-19.047 3.403-24.636 3.834-10.694 7.396-20.638 12.16-30.804 3.82-8.152 6.075-12.354 13.169-17.695"/><path d="M915.159 182.584c2.803 2.772 10.074 22.052 13.366 28.194-3.779.406-6.654.759-10.498.696l-14.13 1.248c4.111-10.217 6.512-19.861 11.262-30.138"/><path fill="#fefefe" d="M1227.61 435.087c1.01-.067 2.02-.105 3.02-.115 8.12-.055 21.95 3.676 22.79 14.814.12 1.61-.48 1.528-1.76 2.591-8.8 1.283-20.56-8.02-26.9-3.015-13.13 9.901-21.2 40.527-11.32 54.527 8.32 11.792 28.56 4.728 27.73-10.199-.47-8.32-15.25-4.172-20.22-8.638l-.01-2.208c1.88-3.547 2.86-4.497 5.91-7.119 7.66-.788 24.04-3.294 26.8 6.152 4.22 14.478-3.49 33.703-18.18 39.186a28.84 28.84 0 0 1-21.98-.967c-22.19-10.319-19.65-45.379-9.82-63.41 6.53-11.98 10.9-17.291 23.94-21.599m-1079.265 5.497 3.114.341c9.651 5.701 30.522 61.252 27.04 70.612-3.399 2.347-1.906 2-5.724 1.927-5.619-3.544-7.614-12.17-9.86-18.605-6.449.04-12.831-.074-19.23.75-2.394-.402-10.701.218-13.704.26-2.517 5.747-8.763 19.58-15.91 19.47-6.995-9.486 24.303-66.547 34.274-74.755"/><path d="M149.059 457.537c3.733 4.329 7.047 18.31 8.618 24.224-4.341.289-8.921.765-13.279 1.144-2.856.166-5.177.779-7.431-.35 1.764-5.973 8.797-19.564 12.092-25.018"/><path fill="#fefefe" d="M862.975 162.234c10.13.887 9.127 11.058 8.664 19.336-1.061 18.997-1.433 39.188-3.949 58.016-.587 4.395-5.839 4.556-9.344 3.19-4.54-4.992-.339-24.304-2.495-31.525-1.659-.567-30.535-1.767-31.431-1.498-3.802 5.278-3.734 23.562-4.355 31.416-2.706 2.205-3.107 2.352-6.52 3.117-3.716-.982-2.36-.187-5.056-3.204-2.317-10.395 2.847-56.638 4.202-69.594.321-3.069 1.815-6.529 4.658-8.445 9.253 1.818 6.247 28.153 5.944 34.988a233 233 0 0 1 34.188 2.163c.652-10.245 1.248-29.237 5.494-37.96m-550.996 7.235c18.652 2.687 2.26 26.053 9.797 34.922 7.377-.972 21.646-.813 29.875-1.03 3.936-2.639 2.791-23.201 4.921-31.394 3.904-3.103 6.85-2.829 10.193.968 2.346 10.123-2.522 68.807-7.238 77.151-14.663-.869-7.734-23.931-6.342-34.181a925 925 0 0 1-33.712 1.263c-.207 8.224 1.037 29.13-5.513 34.591-3.566.408-2.124.634-5.393-1.173-4.486-5.553-1.344-74.228 3.412-81.117m498.605 268.773c6.277.327 19.191 6.097 15.726 13.355-2.445 1.598-3.17 1.425-6.205 1.673-4.712-2.248-5.893-2.869-11.109-3.332l-1.12-.091c-11.234 4.868-18.982 11.536-23.248 24.813-5.656 17.605 3.104 41.209 26.032 30.024 2.022-.986 7.697-8.644 7.374-10.754-1.638-10.694-16.926-3.236-23.996-10.727.385-8.459 9.187-8.218 15.2-8.552 4.96 1.294 9.011-.657 13.512 2.102 8.476 5.194 7.67 13.532 5.317 21.816-4.856 17.246-16.99 25.257-34.772 20.713-32.244-8.241-26.504-56.646-4.353-72.712 8.01-5.809 12.017-6.846 21.642-8.328M720.571 172.13c12.246-.967 17.903 5.349 20.178 16.396-3.436 5.859-16.811-6.446-27.76.631-11.732 7.583-21.876 32.084-15.081 44.524 5.859 10.726 32.422 7.048 35.137-7.186-3.072-4.903-13.696-1.414-21.504-4.132-2.654-2.55-1.994-1.037-2.112-4.66 1.846-2.814 4.278-3.406 7.46-4.805 26.688-5.979 37.599 8.657 18.939 30.189-10.597 12.229-38.944 14.523-47.062-1.93-2.521-5.109-4.91-10.416-4.489-16.592 1.455-26.123 11.263-44.204 36.294-52.435m-299.691-3.626c3.861.943 5.993-.606 10.81 2.051 2.442 3.229 2.11 1.929 2.594 5.62-5.478 8.192-24.944 3.741-33.053 7.273-2.159.94-1.117 14.348-2.061 19.459l-.212 1.107c9.116.06 28.085-3.695 33.519 3.758 2.129 15.427-22.1 6.758-32.337 9.81-2.03 3.519-2.617 15.666-3.081 20.293 3.899-1.124 6.719-1.402 10.691-1.903 7.955-.079 25.714-3.405 28.164 5.459-3.748 12.047-25.982 5.606-36.22 6.527-5.169.465-10.931-.165-14.159-4.639-1.799-8.554 1.001-63.402 5.89-71.683 4.813-1.819 22.826-2.548 29.455-3.132m93.59 274.546c9.196.075 15.577.364 21.912 7.974 1.111 8.655-18.922 4.326-23.698 4.527-15.587 6.781-29.208 59.379 4.43 55.556 4.609-.524 15.055-7.754 13.225-13.726-6.579-4.885-18.587-1.613-22.347-8.971 1.347-6.086 6.038-7.072 11.186-6.978l1.066.029c7.067.325 20.339.669 21.736 8.958 4.352 25.809-20.028 39.934-41.23 30.412a27.73 27.73 0 0 1-14.933-16.041c-8.399-22.804 5.256-53.086 28.653-61.74m73.352-.861c6.649-.006 15.137 1.84 16.257 9.515-3.746 7.889-10.333 4.437-17.124 2.332-10.901 4.747-15.067 8.614-20.343 19.957-8.35 17.953-2.002 38.159 21.222 33.47 3.907-.788 10.341-7.353 11.46-11.569-4.181-7.675-20.563 1.083-24.303-10.135 1.971-7.706 7.094-6.613 14.172-6.776 17.93.323 25.111 9.768 17.988 27.121-10.168 24.771-49.836 18.06-54.672-6.331-5.206-26.254 8.764-51.533 35.343-57.584m525.218 853.401c2.51.96 15.62 15.85 19.53 19.2 15.59 13.36 31.36 25.02 48.13 36.84-4.63 2.61-13.38 9.66-17.94 13.14-20.3-8.91-57.4-34.38-67.68-54.23 8.02-4.69 11.86-7.99 17.96-14.95M917.333 435.111c9.383-.527 20.716 1.828 21.464 13.062-4.528 5.897-14.292-2.896-22.222-1.077-4.795 3.181-8.03 6.214-10.188 11.666.842 12.725 28.381 7.79 35.094 18.421 15.386 24.362-1.6 46.02-28.267 44.647-7.783-1.882-22.322-4.926-21.272-15.221 6.715-11.708 16.872 7.624 31 2.097 4.644-1.694 8.008-3.766 10.205-8.366 9.186-19.234-15.097-18.84-26.405-23.145-12.378-4.712-14.618-13.537-9.795-24.999 3.976-9.448 11.346-13.457 20.386-17.085m373.897 1.424c6.02.296 20.48-1.726 18.72 8.742-5.2 4.478-18.39 2.423-26.93 3.828-1.54 2.048-1.2 19.122-1.24 23.138 6.17-.185 29.56-5.319 26.64 7.413-6.29 5.623-17.07 2.751-26.54 5.077-.85 4.361-2.7 23.928-.9 27.022l2.77.212c6.75.065 24.12-2.93 26.82 5.397-5.43 10.745-38.57 9.994-42.93 3.261-.39-4.389 2.52-78.531 2.78-79.22 5.48-5.403 12.86-4.417 20.81-4.87m-1029.753-.319a80 80 0 0 1 2.437-.269c6.426-.626 21.441 2.109 20.968 10.562-5.338 5.379-11.244 1.129-21.328 1.376l-1.406.041c-3.898 2.426-8.029 5.116-9.995 9.259 1.878 8.528 22.238 3.085 33.344 19.841a27.3 27.3 0 0 1 3.782 21.295c-2.296 10.185-7.42 15.431-15.913 20.675-6.489.237-14.737.335-21.018-1.024-6.547-2.482-19.948-8.719-15.474-17.691 10.004-4.401 27.54 18.165 37.489 1.293 5.485-9.301 5.218-18.201-5.461-23.132-12.911-5.963-38.702-5.641-26.817-27.319 5.035-9.183 9.612-11.848 19.392-14.907m167.722 9.138c5.604 3.16 5.671 6.853 5.657 13.059-.047 21.615-10.178 38.73 9.963 54.096 29.487-13.04 12.258-52.92 20-63.797 3.59-1.285 2.085-1.081 5.858-.43 4.91 4.11 4.362 9.786 5.012 16.477 1.38 21.953-4.862 67.169-38.787 56.988-8.071-2.422-15.52-14.737-16.389-22.812-1.259-11.696-.337-45.76 8.686-53.581m713.601 497.41 1.83.679c1.64 4.582-2.75 12.414-4.78 16.75-19.14 7.555-32.31 14.188-16.15 35.698a2765 2765 0 0 1-46.26 21.149c-2.69 1.15-4.95 2.78-7.11 1.97-.87-4.94 1.32-20.921 2.02-26.956 4.39-3.779 8.49-6.438 13.7-9.038 20.88-10.424 37.52-27.512 56.75-40.252M321.125 442.549c10.4 1.906 29.533-4.112 34.316 7.123-1.885 6.376-20.631 6.066-26.126 5.235-.533 16.871-1.212 47.089-3.396 63.001-3.35 1.929-4.275 2.086-7.858.968-7.036-7.09-1.933-49.996-1.891-63.819-7.351.06-17.104 1.532-22.162-3.178-1.229-3.336-1.186-1.952-.555-5.378 5.145-4.951 19.328-3.623 27.672-3.952m646.303-6.141c8.267-.625 36.142-3.426 35.332 8.848-6.593 8.227-13.256.785-19.18 5.632-1.978 10.597-2.674 47.403-3.715 61.69-.487 2.951-.406 2.876-1.839 5.463-1.629.865-2.308 1.283-4.214 1.116a7.42 7.42 0 0 1-5.195-2.833c-3.354-4.242 2.579-58.37 3.454-67.423-6.462.331-19.952 2.271-22.003-6.009 2.325-5.954 12.059-6.284 17.36-6.484M124.455 311.705c12.101-.025 44.484-3.791 52.82 3.229 1.158 3.138 1.029 1.802-.202 5.441-5.152 4.709-16.628 3.98-23.831 3.95l.042.831c.466 11.357-.452 21.061-1.247 32.344-.3 7.276.269 16.282-8.791 17.207-8.656-7.872 2.056-42.446-2.799-50.002-7.981-3.615-21.04 2.877-27.382-3.663-1.061-3.222-1.167-1.734-.067-4.624 3.382-3.278 6.762-4.439 11.457-4.713m333.369-142.454c13.523 6.165 3.288 48.767 4.759 64.02 3.94 3.369 22.602-4.697 27.254 5.209-.372 3.709-1.025 4.204-3.542 7.041-8.008 1.061-27.133 3.961-33.906.564-5.286-8.609-1.272-54.636.267-66.611.606-4.712 1.248-7.444 5.168-10.223M1702.4 548.839c.78.014 3.53.126 4.06.373 3.52 1.651 12.11 9.151 15 11.925 8.72 8.362 32.74 19.825 39.11 28.422 5.81 10.241 9.62 22.38 14.14 33.198 4.39 10.497 18.8 28.841 16.28 39.722-2.16.097-4.55-.128-5.76-2.242-12.06-20.178-21.18-38.939-29.32-60.818-5.02-13.479-54.72-31.525-53.51-50.58M629.737 441.511c2.928.571 2.764.571 4.942 2.686 3.252 7.669.617 51.211-.813 61.044 7.627-.203 24.075-3.047 29.233 2.736 1.168 5.868-.956 8.042-6.321 9.288-6.584.746-27.614 3.729-30.431.339-8.194-9.86-1.427-67.59 3.39-76.093m-63.209 474.165c5.063.751 30.131 14.765 37.289 18.018 15.9 7.228 32.651 9.265 47.485 14.578l.821.303-13.362 1.679c-31.626 4.274-57.483-7.449-83.968-23.071zm113.774-474.377c3.148 1.524 5.621 3.521 5.805 7.37 1.071 22.385-.055 45.622-1.919 67.931l-2.665 3.484c-2.593-1.005-4.061-1.937-6.474-3.343-4.814-5.726.257-58.3 1.605-68.449.301-2.26 2.241-5.155 3.648-6.993M579.587 172.493c3.234.8 3.081.698 5.428 3.049 4.008 8.4.333 56.193-.249 67.465-3.19 2.935-4.249 3.34-8.283 2.097-3.155-3.657-3.765-9.131-3.571-14.454.636-17.443.535-36.125 3.055-53.38.177-1.21 2.716-3.86 3.62-4.777M1795.55 707.377c7.8 2.918 11.33 12.497 13.93 20.132 8.17 24.009 10.82 49.469 19.81 73.372.83 2.201-.79 4.615-1.72 6.634-11.59-2.66-19.43-56.968-23.24-68.643-2.86-8.785-6.56-17.489-9.68-26.227-.71-1.985.23-3.319.9-5.268M1040.72 1313.6c6.34 5.23 10.29 8.81 17.72 12.57-8.04 9.64-21.8 18.63-32.29 26.18-4.16 2.4-7.45 5.24-12.22 3.45l-.4-1.97c2.61-9.21 20.65-31.49 27.19-40.23m25.77-38.87c1.49 1.53 5 6.94 6.65 9.15 5.19 6.93 9.57 10.76 16.09 16.17-4.09 2.91-7.84 6.64-11.52 10.09l-.64.63c-9.16 1.37-18.46-21.07-20.19-28.71 2.74-2.64 6.47-5.09 9.61-7.33m-772.984 102.4 2.01.16c-7.206 6.06-63.629 17.57-76.523 20.48l-2.18.05-.972-1.34c5.943-9.58 37.646-9.65 48.803-12.24 9.711-2.26 19.191-4.59 28.862-7.11m113.403-6.52c7.618 4.52 8.617 9.64 22.608 15.74-1.99.86-7.13.68-9.566.72-8.227-.1-16.455-.09-24.681.01zm637.881-81.63c2.32 3.45 8.41 17.23 11.12 22.24l-2.09-.85-17.35-15.76zm174.9-324.51c4.09-.324 7.67-1.059 10.42 2.739l-.99 1.401-4.36.238c-4.19-.538-6.43-.511-10.15-2.551l.8-1.142z"/></svg>