<svg xmlns="http://www.w3.org/2000/svg" preserveAspectRatio="xMidYMid meet" viewBox="0 0 2048 1462"><path d="M1846.58 73.294c5.22.011 8.3-1.478 12.38 1.777 4.19 10.987-.7 113.155-1.54 132.758a20519 20519 0 0 1-48.8 759.459 7298 7298 0 0 1-9.54 123.602c-1.29 16.72-2.25 45.41-5.1 60.82 19.26 15.87 33.78 26.75 39.82 52.78 6.21 28.89 8.16 59.29 10.6 88.72.89 10.78 4.77 38.47-.16 47.01-3.09 2.14-1.69 1.8-5.22 1.64-11.49-10.96-5.15-130.28-28.26-156.4-29.33-33.15-90.38-59.7-130.99-65.68a243.8 243.8 0 0 0-182.39 45.44c37.64 43.25 43.65 132.84 44.56 187.71.07 4.05-6.63 4.56-9.87 3.4-4.7-5.63-5.37-54.2-6.69-65.09-5.53-45.84-15.87-105.36-54.63-135.32-50.13-38.75-120.97-45.82-181.91-37.99-20.53 2.63-38.83 8.65-58.05 16.21-24.79 9.75-47.75 23.69-63.92 45.37-26.74 35.86-32.41 98.78-36.2 142.43-.71 8.21.59 25-4.18 31.16-3.36 1.63-1.85 1.47-5.44.68-2.63-2.66-3.91-7.01-3.73-10.67 3.01-63.02 8.16-136.81 51.67-185.46-31.32-18.01-74.37-35.26-110.21-40.35-48.44-6.87-95.198 3.55-138.819 24.59-13.167 6.35-21.846 9.68-33.793 18.74.196.18.395.36.588.54.322.3.634.61.956.91 21.309 19.99 31.746 56.36 38.139 83.84 3.424 14.71 17.636 114.09 10.898 123.27-1.689 2.31-3.472 2.79-6.136 3.17-2.634-1.4-4.304-2.68-4.588-6.04-5.258-62.33-4.877-147.34-47.908-197.01-30.76-35.51-97.915-54.15-144.16-55.23-3.876-.88-15.055-.1-19.866-.18-58.086-1.23-138.775 26.61-164.473 82.35-20.356 44.16-26.281 95.67-28.301 143.65-.142 3.38-2.252 8.12-4.616 10.53-3.464 1.2-2.032 1.26-5.264.01-1.227-1.58-2.6-3.92-2.623-5.92-.667-56.95 11.335-130.71 43.082-177.01l-12.726-4.16c-11.276 16.8-31.641 32.77-51.749 36.76-22.45 4.46-41.29-3.3-59.689-15.28-5.809 9.46-22.104 21.23-32.393 25.54-18.699 7.83-41.75 7.13-60.363-.6-26.833-11.15-39.85-31.93-50.457-57.33-97.936 43.94-56.845 174.89-75.345 186.15-3.655.12-2.34.59-5.047-1.46-4.14-8.31-2.014-48.57-1.294-59.13 3.663-53.67 9.102-83.67 50.824-120.11-2.444-40.41-6.678-82.83-10.096-123.24l-11.704-150.053A23305 23305 0 0 1 192.078 232.7l-4.157-106.646c-.353-10.537-2.27-40.534-.225-49.224 4.481-4.642 83.55 7.532 98.1 9.268a7487 7487 0 0 0 168.759 17.454 6118 6118 0 0 0 1029.265 9.119c89.18-6.434 176.54-12.592 265.24-25.185 33.14-4.705 64.29-8.073 97.52-14.193"/><path fill="#fff" d="M662.562 172.373c19.063-.223 51.392 2.985 72.217 3.66 29.499 32.792 72.621 59.734 112.616 78.223 7.838 3.624 25.344 13.96 32.962 8.275l.168-2.455c-4.332-7.783-25.802-14.752-36.117-20.043-26.797-13.745-72.742-41.925-92.525-63.692 38.937 3.486 80.474 4.399 119.636 5.431 137.661 3.629 278.181 3.108 415.571-3.813a390 390 0 0 1-56.6 51.941c-7.43 5.544-21.31 13.274-27.24 18.768-1.45 3.747-1.25 2.109-.48 6.329 2.52 2.919 1.21 2.207 4.78 2.951 9.4-2.109 30.39-19.398 38.61-25.493 20.87-15.484 39.83-35.041 57.04-54.418 8.64-1.109 24.38-1.26 33.53-1.661l47.16-2.504a881.9 881.9 0 0 0 143.24 317.591 661.5 661.5 0 0 0 80.37 92.113c6.35 6.153 22.53 19.892 27.75 27.517.46.677-2.3 3.782-3.14 4.867-.76 5.211-.55 17.959 1.18 23.094 1.32 3.88 8.69 6.263 12.38 7.653 1.08 8.55-2.54 27.147-4.11 36.117a1303 1303 0 0 1-25.13 112.85c-3.16 12.008-7.32 23.001-10.34 35.129-12.46 5.724-23.63 11.272-34.86 19.185-21.09 14.846-38.13 44.957-41.18 71.167-5.08 43.806-12.48 94.505-9.52 138.935.23 3.44 2.15 7.65 4.23 10.29 15.62 19.87 39.17 22.74 62.07 26.08l-.18 13.89c-38.68 9.26-64.81 22.35-97.49 44.84-24.79-22.54-46.53-32.45-78.29-42.2-6.13-1.89-22.26-6.41-26.89-9.77-1.35-5.62-1.38-16.57-1.59-22.73 25.86-13.34 48.96-47.3 59.37-73.6 20.28-51.624 10.74-110.883-32.9-147.507-47.42-39.786-91.71-37.392-145.29-13.395 9.91-22.648 33.31-53.65 47.01-74.515.03-8.498 2.98-65.163-4.72-66.121-9.48-1.179-32.94-.363-44.48-1.217-3.13-27.367-15.72-70.698-21.8-98.652-8.67-30.617-27.46-95.12-45.39-119.065-8.91-11.908-78.22-53.194-95.67-65.962 8.28-3.092 29.12-7.467 33.13-14.447.38-5.971-15.83-21.528-21.74-30.692 10.1-.157 32.32.715 38.87-7.415 1.83-12.435-33.55-14.798-40.43-34.898 3.47-5.009 9.28-12.966 11.88-18.233 9.11-21.594 1.05-56.618-6.76-77.696-17.57-47.448-44.62-53.351-87.76-37.842-35.297-19.381-67.437 2.863-87.973 33.456-12.659 18.858-8.831 32.25-3.934 52.961-6.88 8.067-7.246 8.974-9.158 19.47 3.978 13.361 7.838 17.945 18.291 26.935-8.741 10.079-16.709 18.275-28.802 24.282-4.544 2.257-9.467 4.678-11.391 9.551 2.15 10.457 29.008 9.22 37.709 8.829-23.741 29.908-28.832 30.175 9.345 44.973-8.669 7.633-20.115 13.221-30.092 19.063-17.862 10.458-35.988 20.727-53.425 31.878-5.038 3.223-10.465 6.69-14.095 11.543-27.655 36.968-62.85 174.555-73.269 222.315-7.867.163-27.576-.813-33.657 1.635-4.135 7.013-4.528 63.451-4.783 75.256 18.528 22.804 40.043 53.311 59.004 74.048-31.465-19.099-50.679-28.718-90.183-25.121a121.27 121.27 0 0 0-81.312 43.237c-40.201 48.516-35.522 120.034 2.021 167.856 12.255 15.6 26.459 26.86 41.666 39.24-3.617 23.03 5.718 21.31-18.98 27.68-24.064 6.2-49.826 18.62-70.706 32.19-7.252 4.71-13.632 10.69-20.91 15.53-4.471-1.47-8.542-3.33-12.848-5.22 5.167-11.86 8.816-24.8 8.878-37.81.105-22.34-9.326-66.1-13.296-90.02-5.59-33.692-9.364-68.436-17.21-101.664-8.268-35.009-28.915-64.028-60.984-81.216-7.91-4.24-17.843-5.681-25.257-10.364-4.444-2.807-36.064-162.854-39.987-180.963 2.533-1.158 6.594-3.081 8.011-4.151 11.918-9.002 10.259-20.125 2.296-30.97.006.009 2.224-2.659 2.947-3.352 7.667-7.35 15.893-14.362 23.716-21.597a451 451 0 0 0 38.972-40.248c83.974-97.555 161.866-248.973 186.248-376.092"/><path d="M1267.07 532.677c7.12.704 26.32 18.744 33.74 23.585 69.57 45.349 154.5 55.511 235.15 41.334 7.33-1.287 23.44-6.643 29.94-3.799 2.29 2.897 1.69 1.282 1.78 5.049-1.29 3.278-2.32 3.494-5.51 5.48-1.09.297-2.17.582-3.26.857-80.67 20.472-177.7 12.618-250.66-30.066-7.96-4.66-40.59-25.376-43.92-35.136-.78-2.272 1.41-5.22 2.74-7.304m-496.288 23.146c4.814.197 3.271-.455 6.727 1.876 3.728 9.319-18.207 18.293-25.361 21.982-76.585 39.502-175.752 51.133-257.902 22.936-1.646-.572-3.353-1.298-4.98-1.949-2.381-3.02-1.778-1.564-2.078-5.634 1.827-3.404.769-2.259 4.019-4.347 5.772.092 20.28 5.302 26.951 7.094 23.975 6.443 46.365 8.341 71.046 8.327 70.633-.04 121.128-16.16 181.578-50.285m613.508-291.278c4.3 1.825 6.66 2.507 7.18 7.275-2.74 6.724-14.95 17.495-20.47 22.774-36.88 35.227-81.32 68.883-127.48 90.99-4.31-.922-5.93-2.135-7.37-6.203 1.88-5.147 9.07-8.054 14-10.59 40.72-20.909 75.98-49.12 109.48-80.043 8.44-7.793 16.2-16.342 24.66-24.203m-714.369 4.911c7.151.643 31.335 25.494 38.434 31.605a488.3 488.3 0 0 0 77.971 54.751c7.192 4.053 34.686 16.818 36.609 21.514-.41 3.878-.872 3.348-3.656 6.671a30.4 30.4 0 0 1-5.215-1.334c-29.561-10.549-134.269-78.311-147.113-106.1-.144-3.027 1.24-4.44 2.97-7.107"/><path fill="#fff" d="M931.703 780.522c8.029-.713 25.714-.179 34.096-.047l60.101.978c76.33 1.002 154.49 3.295 230.48 2.247-1.75 7.762-3.51 23.949-4.63 32.519-1.54 11.717-5.06 31.841-4.92 43.068-33.95 34.105-44.9 67.376-39.42 115.815.77 8.754 7.32 22.463 6.66 30.938-3.24 41.81-7.33 84-13.15 125.53-.64 4.54-17.49 14.14-21.79 16.9-5.35-2.29-12.1-5.67-17.39-8.65-25.57-14.42-53.41-22.07-80.66-32.05-2.47-.9-1.14-10.57-.07-10.86 56.45-15.04 72.42-17.75 66.09-79.41-7.08-60.737 8.31-116.129-41.77-162.397-19.05-14.756-31.96-23.129-56.47-28.113-29.58-6.015-60.825 1.218-85.784 17.479-25.61 16.686-41.529 43.951-46.003 73.92-4.602 34.354-7.247 69.234-8.205 103.901-.322 11.65-3.28 39.02 3.752 47.84 14.319 17.94 39.767 22.82 61.158 26.8 6.273 13.15-5.941 13.27-14.442 15.98-29.438 9.37-56.623 22.38-83.78 36.89-5.886-4.33-11.123-8.28-16.811-12.91-2.679-22.52-6.58-46.14-9.736-68.76-3.071-22.01-5.573-49.79-10.075-70.984a127.17 127.17 0 0 0-2.955-95.936c-3.477-7.867-11.495-18.101-13.14-25.725-2.263-10.483-3.925-22.887-5.539-33.563a5445 5445 0 0 1-8.842-59.765c29.472-2.082 63.423-.155 93.35-1.197 9.625-.335 20.43.293 29.895-.438M1845.24 86.404l1.78-.138c2.75 2.955 1.42 21.682 1.29 26.676-14.26 4.341-36.38 6.708-51.46 9.176-47.58 7.788-94.56 12.274-142.4 17.388a6255 6255 0 0 1-1152.292 9.588c-73.631-6.284-147.791-12.475-220.984-22.733-22.298-3.124-47.109-6.231-69.049-10.661-1.336-.028-10.937-2.067-12.861-2.451-1.106-9.423-.837-16.291-.585-25.692a5279 5279 0 0 0 248.636 27.026A5982.2 5982.2 0 0 0 1845.24 86.404M932.971 444.099c1.287 1.915-1.361 6.566-1.691 9.251-7.679 62.338 2.211 126.021 6.458 188.336 1.405 20.603 3.741 41.961 5.917 62.73-14.236 1.346-39.676.749-54.956.786.22-3.906.789-8.439 1.402-12.309 9.093-57.45 1.262-114.865-.682-172.445-.158-4.664-4.078-12.602-9.883-11.736-3.314 3.814-3.792 8.119-3.47 13.026 1.014 15.435 2.412 30.895 3.427 46.329-.007 13.62 1.724 32.396 2.269 46.737 1.273 33.533-1.407 57.185-6.203 89.919l-84.56-.063c6.75-25.148 12.401-50.95 19.178-75.687a1084 1084 0 0 1 36.105-107.601c11.911-29.562 12.515-33.124 40.775-48.949 14.027-7.855 31.729-19.618 45.914-28.324m185.929 4.25c2.48 1.077 23.49 15.508 28.18 18.703 10.77 7.342 30.24 19.597 39.02 28.624 4.78 4.92 11.24 24.244 14.37 31.741 24.13 57.731 36.69 116.07 49.02 177.013-24 .872-50.4.643-74.48.285-.72-28.413-1.75-55.968-.73-84.429.45-12.728.1-27.654 1.68-40.14.01-10.662 5.89-41.55-4.2-45.961-3.57.543-2.38-.082-5.14 2.045-2.35 4.837-2.19 20.396-2.7 26.908-3.83 48.543-2.5 93.661-.8 141.98l-61.43-.073c10.22-78.546 18.67-178.877 17.21-256.696m-363.215 268.72c65.317-1.341 136.253.498 202.134.341q170.356-.994 340.711.32l.28 25.52c.13 2.807.1 3.938-.15 6.737-.55.421-1.11.843-1.66 1.265-23.81.805-81.74.113-102.47.09l-266.835-.08c-57.195-.118-116.411-1.051-173.46-.069-.047-6.302-1.119-30.332 1.45-34.124m268.875-492.381c1.04.225 40.97 31.712 43.79 34.598 7.51 7.684 11.1 36.471 19.24 44.986 7.84 8.187 13.49-8.752 22.33-8.686.96.925 2.45 2.006 2.64 3.247 2.18 14.437-9.36 27.04-23.51 28.34-.41.099-5.96.6-5.94.581-15.53 24.406-34.13 68.367-71.57 50.305-19.996-11.309-28.605-20.842-42.37-39.365-1.167-1.281-4.95-9.871-6.09-10.155-15.763-3.925-30.678-11.458-26.788-30.85l1.938-1.183c10.933.175 9.366 7.021 15.14 10 9.999 5.161 24.337-27.868 26.812-32.444 3.697-2.187 8.217-4.221 12.149-6.111 4.644.934 11.349 2.426 13.969-2.369-2-7.853-11.906-4.757-18.217-5.184l-.82-.938c1.925-5.729 29.357-26.315 37.297-34.772"/><path d="M1021.51 281.247c13.16 1.463 8.92 16.961 7.32 26.441-1.3 7.714-5.53 14.591-12.39 18.695-3.77-.673-4.39-.694-7.79-2.302-2.06-2.924-1.74-1.383-1.25-4.713 2.22-3.78 4.98-4.943 8.78-7.245 5.79-11.051 4.07-18.626 5.33-30.876m-23.958 45.963c9.448 1.366 7.898 7.68 16.568 9.92 5.32 1.377 17.26-3.402 21.93-1.242 1.08 3.277.46 2.889-.74 6.959-13.26 5.262-43.929 5.841-37.758-15.637m58.768-68.45c4.97-1.333 14.6 5.685 13.98 12.202l-1.91 1.317c-3.98.116-6.39-1.952-9.91-4.101-5.82-3.597-9.58 2.78-16.13-.389l-.95-2.759c1.95-6.768 8.98-6.399 14.92-6.27m-64.356 27.007c9.836 3.509 12.076 11.089 2.533 17.046-9.824-1.824-9.038-10.889-2.533-17.046m59.246-.999c9.81 3.815 11.69 11.343 2.1 17.074-4.96-3.226-6.94-3.635-7.46-9.715 1.33-3.765 2.52-4.615 5.36-7.359"/><path fill="#fff" d="M980.792 442.375c30.868 18.793 56.098 18.648 87.128-.106-4.3 77.525-15.52 145.668-27.22 222.188-1.95 8.601-4.73 34.943-7.67 39.733-5.62 1.183-12.1.679-17.91.499-6.77-56.845-17.983-115.191-25.192-172.105-2.515-19.853-10.602-72.045-9.136-90.209"/><path fill="#fff" d="m979.177 414.885.835.2.336 1.393c-2.023 4.824-7.656 11.385-11.05 15.714-1.752 24.183 3.95 70.092 7.271 94.315a7624 7624 0 0 0 16.321 110.44c3.535 22.595 7.83 45.421 10.42 68.129a1157 1157 0 0 0-25.06-.124l-22.125-.188a7181 7181 0 0 1-10.649-124.055c-2.956-36.773-5.89-73.205-4.789-110.174.372-12.498 4.508-21.95 5.49-32.956 13.036-10.883 18.115-14.596 33-22.694m88.853.759c8.67.436 30.88 18.498 37.21 24.913 4.45 26.18.39 67.549-.89 95.004-2.67 56.949-8.93 112.962-15.4 169.581q-7.725-.151-15.45-.031l-26.7-.381c13.67-90.082 31.72-182.042 32.4-273.013-3.43-6.827-7.81-8.894-11.17-16.073m439.06-249.01c2.37.491 7.56 1.398 8.01 4.423 17.24 114.152 57.58 227.88 132.37 317.304 10.06 12.028 21.64 23.463 30.4 36.252.52.771-1.74 4.477-2.22 5.423-6.35 2.825-12.19-4.367-16.4-8.77-82.96-86.727-133.49-204.796-152.75-322.305-1.67-10.21-7.66-24.621.59-32.327m-970.268-1.891c2.605.845 5.755 1.173 6.918 3.98 5.125 12.37-16.72 95.742-22.167 113.644-24.435 80.309-62.166 160.109-118.783 222.821-7.958 8.815-16.616 20.43-27.183 26.068-2.621-.417-3.097-.904-5.285-2.298-2.098-3.61-2.004-4.735 1.249-8.577 6.363-7.514 14.317-14.242 20.847-21.639a475.6 475.6 0 0 0 50.211-68.703 667 667 0 0 0 77.267-192.817 604 604 0 0 0 8.187-43.776c1.166-7.524 2.211-15.611 3.506-23.12.518-3.003 2.923-4.04 5.233-5.583m1154.578.772c3.59 1.073 4.19 1.229 7.2 3.415 2.81 4.909-1.65 32.297-2.04 40.891a794 794 0 0 0-.64 62.276 630.6 630.6 0 0 0 31.19 172.101c8.51 25.152 19.06 48.953 30.36 72.973 2.71 5.765 7.57 15.859 11.03 21.809-.45 2.159-.83 4.004-1.15 5.534-.25.05-.5.113-.75.15-2.97.433-7.13.542-9.49-1.495-7.73-6.688-12.41-21.325-16.74-30.63-30.41-65.403-47.33-129.85-54.75-201.622-2.56-24.683-6.78-129.98 5.78-145.402m-1339.304 4.274c13.595.45 10.698 15.443 11.379 26.249a705 705 0 0 1-8.728 160.22c-10.036 59.512-27.632 122.467-59.31 174.24-3.486 5.698-5.371 8.863-10.835 12.754l-1.374-.06c-2.785-2.305-2.701-3.953-4.087-7.712 40.406-67.253 63.567-156.59 69.594-234.502a1023 1023 0 0 0 2.466-87.993c-.292-12.052-1.855-24.294-2.479-36.334-.131-2.523 1.811-4.527 3.374-6.862m476.446 852.161c2.66 5.67 14.356 94.65 14.772 106.68-10.634-5.76-26.844-12.06-38.383-15.43-29.744-10.64-26.205.62-28.205-32.05 24-16.27 37.333-34.89 51.816-59.2m396.738 3.77c9.24 13.94 17.51 28.1 31.07 38.23 23.03 17.21 22.3 13.41 21.71 41.37l-25.21 7.47c-7.93 2.56-31.92 12.34-37.52 13.02-1.73-3.75 8.63-88.08 9.95-100.09M998.106 383.817c21.674 11.761 30.594 11.864 53.394 3.547 2.83 17.485 3.74 28.003 13.7 42.842-5.82 4.631-6.82 5.719-13.58 8.902-.58.236-1.17.467-1.76.693-16.45 6.286-36.33 6.593-52.286-1.344-5.071-2.523-8.685-5.599-13.99-7.819 13.262-16.304 13.645-25.924 14.522-46.821m738.774 328c2.91.734 3.13.933 5.73 2.516 1.2 1.696 1.84 2.906 1.79 5.072-1.12 50.561-3.83 101.467-4.6 152.02l-.94.547-2.92-3.587c-3.22-4.227-7.25-8.919-10.65-13.091.84-5.283.77-10.856 1.05-16.263 1.98-37.961 2.78-76.025 4.59-113.965.27-5.764 1.33-9.611 5.95-13.249m-74.25-93.317c31.06-1.01 71.12.361 102.64.693-.46 5.438-.46 10.344-.5 15.802-5.55.16-11.44.097-17.02.136-34.51-.723-70.17 1.352-104.42-.141q.045-8.123-.03-16.244zM307.063 712.92c2.1.414 4.219 1.03 6.299 1.582l1.976 1.917c2.47 33.639 5.13 112.106 6.156 142.058l-8.058 11.02-2.884 4.225-1.248.14a85 85 0 0 1-.85-5.538c-.746-6.27-.602-17.161-.844-23.851l-1.794-55.712-1.355-44.988c-.227-7.969-2.181-24.842 2.602-30.853m1384.817-33.275c3.94.219 5.55.942 7.97 3.541 2.92 16.377-9.78 70.504-10.62 90.702-.38 9.029-4.94 48.092-6.95 55.409l-1.98.549c-4.68-1.034-7.31-1.173-10.12-4.694-.06-2.54.6-11.457 1.08-13.404 5.05-20.597 13.25-122.633 20.62-132.103M285.688 620.21c36.531.511 73.246-.885 109.768-.182 2.639.051 5.472 1.195 7.7 2.543 3.56 5.512 2.538 12.476-5.056 13.387-3.224-.587-21.489-.456-25.56-.487l-62.207-.387c-6.023-.031-19.173.339-24.475-1.119-2.252-3.542-.746-9.22-.17-13.755m63.473 60.416c3.59.598 4.78.424 7.227 2.819 5.398 29.165 7.635 64.308 12.013 94.266 1.693 11.58 6.362 41.19 6.324 51.196-4.304.933-5.789 1.279-10.349 1.342-5.436-7.385-15.168-123.288-18.947-141.416-.753-3.613 1.577-5.558 3.732-8.207M1736.09 1079.06l.83 1.06c.55 6.19-.36 35.11-1.29 41.21-1.98.81-5.51-.55-7.79-1.15-2.44-.86-2.75-.8-4.75-2.53-2.63-7.97-.27-25.54 1.48-33.93 4.96-1.1 6.35-1.32 10.62-4.07z"/></svg>