<svg xmlns="http://www.w3.org/2000/svg" preserveAspectRatio="xMidYMid meet" viewBox="0 0 2048 1152"><path d="M1666.61 78.257c4.59-.59 7.26 1.317 10.66 3.994 3.58 7.215 4.23 59.57 4.59 70.003l3.35 102.701 6.14 191.306c6.01-14.057 45.77-103.811 52.18-110.05 3.54-.049 9.61 1.668 12.99 3.037 36.57 14.837 73.12 29.896 109.42 45.418 20.41 9.027 41.4 16.999 61.51 26.664 5.95 2.859 5.64 6.672 3.52 11.99-7.47 18.65-15.45 37.105-23.24 55.624l-42.63 102.27c4.56 1.361 9.74 3.365 14.27 4.994-6.72 27.783-15.29 56.856-22.86 84.51l-32.5 119.926-38.18 138.906c-2.92 10.533-18.6 70.86-22.62 75.37-6.97 1.45-39.89-8.389-49.13-10.776-.07 14.266 4.51 67.306-3.45 76.186-1.83 2.05-3.69 2.38-6.32 2.73-16.63 2.24-57.13-1.17-75.35-1.95l-117.5-4.76c-29.78-1.22-60.41-4.55-89.41 1.95-13.99 3.13-28.68 5.44-42.86 7.74-44.86 7.54-90.01 13.22-135.34 17.02-27.01 2.28-59.6 5.21-86.9 3.64-13.13-1.99-20.59-7.84-34.28-9.43-16.37-1.9-47.42 3.87-61.43-5.72-7.88-5.39-8.15-23.4-8.69-32.14-24 2.41-68.19 1.7-93.642 2.18-.967 5.27-4.643 23.74-10.965 26.32-14.873 6.06-117.42 33.92-114.93 1.86.67-8.63 30.156-19.41 43.6-25.9-117.522-.85-229.543 12.41-345.816 20.27-48.429 4.98-98.805 6.86-147.408 11.94-4.867.05-15.557 2.05-18.768-2.54-6.518-9.32-5.644-33.75-6.215-45.06l-3.072-62.697-9.363-191.8c-8.348-3.829-38.477-13.596-40.729-21.1 1.533-4.808 7.372-12.123 10.53-16.495-13.729-5.07-39.825-11.76-54.525-16.011l-107.208-31.216c-8.185-2.422-31.921-7.828-37.516-12.111-1.242-.951-1.506-1.941-1.736-3.425-.627-4.031 85.288-301.68 95.561-331.934 1.171-3.449 2.392-6.752 4.704-9.614 6.276-1.358 96.758 25.447 110.976 28.836.197-29.027-1.566-61.188-2.788-90.3l-3.952-99.036c-1.142-24.638-2.66-49.293-3.208-73.942-.154-6.917 4.522-14.613 12.099-13.739 12.287 1.417 24.751 3.927 36.967 6.08l66.012 11.193 176.715 29.291c38.584 6.418 81.244 13.713 119.922 18.679 19.29 2.476 64.66.589 85.074.241l123.901-1.241q118.08-.856 236.13-3.114l66.16-.791c12.7-.117 31.22.211 43.41-1.161 12.12-1.364 29.43-5.523 41.77-7.926l81.44-15.652z"/><path fill="#fefefe" d="m343.73 121.68 369.907 61.972c2.154 44.41 3.053 87.858 4.414 132.25-8.056 10.516-5.515 15.461 1.618 25.829l22.42 690.079c-6.563.47-13.482 1.25-20.062 1.9l-236.708 19.75c-33.042 2.8-65.883 4.71-98.963 7.93a36359 36359 0 0 1-31.004-643.507l-7.632-194.632c-.948-26.647-1.009-76.303-3.99-101.571"/><path d="M397.418 184.916c51.997 5.464 105.965 13.177 157.961 19.849l63.57 8.572c12.493 1.659 30.076 3.486 42.061 6.024 2.55 21.786 2.009 56.099 3.285 78.799 3.471 61.744 2.945 125.714 6.65 187.24 21.774 8.592 13.815 11.321 6.399 30.174-1.759 4.472-2.658 6.68-3.848 11.356-2.222 8.736 4.145 22.041-2.042 28.794-3.982 1.898-9.043 1.49-13.542 1.496-11.256 21.243-21.146 48.092-32.925 70.872 9.198-.838 44.999-4.659 51.273-1.515 3.658 8.789 4.98 93.188 5.535 108.684a19353 19353 0 0 1 7.635 215.989c.285 9.322 1.543 18.566 1.264 27.748-.193 6.356-6.21 10.064-11.958 10.54-55.776 4.617-111.88 10.572-167.649 14.892-15.603 1.2-64.532 7.38-76.993 4.97-3.598-4.69-3.549-30.715-3.916-38.408l-3.021-63.492-9.898-209.943a20374 20374 0 0 1-14.125-297.021 10859 10859 0 0 1-5.57-128.715c-1.097-25.669-2.386-51.543-3.006-77.227-.107-4.465.078-6.209 2.86-9.678"/><path fill="#fefefe" d="m662.701 636.486 2.612-.008c3.178 3.351 7.623 189.632 8.777 212.845 1.789 35.998 2.678 90.1 5.002 127.737-23.432 3.878-58.844 6.101-83.403 8.299l-151.623 13.868c-.757-8.149-.977-16.32-1.284-24.498-1.389-12.482-1.34-27.271-2.319-40.001-2.934-38.116-2.767-78.017-5.346-115.935 27.849 11.876 55.197 24.697 82.836 37.068 4.181-6.283 10.15-19.912 13.52-27.202l21.32-46.215c21.601-46.71 45.691-96.279 66.125-143.085zM406.179 197.034c79.995 12.059 162.889 21.038 243.639 32.479l9.245 249.724a2253 2253 0 0 0-39.357-17.896c-50.048-23.328-101.515-44.814-151.831-67.647-5.726-2.598-16.112-7.01-22.154-6.045-5.402 4.509-23.485 47.658-28.602 58.37-2.954-43.475-4.415-88.943-6.141-132.517z"/><path fill="#fefefe" d="M452.349 403.315c14.94 5.151 48.792 21.125 64.689 28.439 19.471 8.959 53.337 22.73 70.751 32.391-19.735 24.053-20.713 24.495-21.745 53.841-.485 13.803-15.258 28.274-2.442 48.056 11.03 17.023 13.395 22.364 32.757 28.112 5.075 13.101 6.228 16.2 15.019 27.073-4.429 10.64-22.204 51.309-30.537 61.211-3.82 4.54-13.159-2.879-15.975-10.771-.83-5.038-.265-10.863-1.767-15.791-7.584-24.884-27.531-6.124-39.076 3.116-8.264-3.035-14.687-6.621-22.468-10.735-3.33-13.888-3.179-29.539-3.728-43.938 9.747-15.102 6.976-29.242 14.459-40.012 4.912-7.069 24.113-7.41 22.439-28.783-1.767-22.579-30.421-15.79-45.653-20.399-6.898-2.087-12.701-5.421-19.637-6.995-4.565-.735-13.447-.231-18.211-.21a3516 3516 0 0 1-34.303-21.557c8.277-23.177 25.363-58.875 35.428-83.048"/><path fill="#fefefe" d="M418.837 502.02c26.269 12.945 20.577 18.1 52.491 16.963 5.731 3.485 7.763 4.605 14.691 7.285 8.025 3.103 37.046.129 37.758 11.042.54 8.262-18.592 17.353-22.914 23.088-5.172 6.862-3.889 18.808-6.514 26.728-11.012 17.282-8.142 31.111-6.274 52.108l-.129 2.204c-2.918 3.089-27.675 4.809-36.009 9.516-13.262 7.492-12.633 14.401-24.243 23.768-1.983-19.352-2.386-46.548-3.585-66.556-2.067-34.505-4.756-71.714-5.272-106.146m180.462-33.392c5.003 1.414 18.182 7.765 23.415 10.138a2750 2750 0 0 1 46.258 21.247l-43.808 94.422c-1.862 4.005-4.955 12.26-8.809 13.816-3.48-2.081-5.446-10.901-8.089-15.147-6.567-10.55-10.584-10.917-21.349-13.96-2.194-3.725-6.64-10.865-9.56-13.715-14.997-13.929-.982-33.264-.324-47.585 1.264-27.51 5.877-28.575 22.266-49.216M482.213 654.145c13.522-.496 25.516 11.316 38.798 16.213 16.197-3.681 20.071-14.886 28.617-14.038 9.028 10.974-5.014 29.78 27.396 38.287-22.541 45.94-44.316 96.029-66.179 142.742-10.21-5.197-17.244-8.51-27.951-12.523 7.967-13.943 15.474-19.264 16.398-35.577l.657-21.785c3.654 1.769 11.376 6.06 14.809 7.005 11.115 3.057 22.031-9.444 25.306-18.327 5.061-8.899-6.307-19.507-6.532-24.876-1.023-24.402 16.987-43.752-18.181-53.76-15.14 3.517-14.962 7.167-27.189 16.454-41.878 1.387-31.052 5.469-57.887 35.473-.236-8.063-2.308-38.111-1.455-43.659.835-.604 2.277-1.654 3.17-1.968 10.046-3.531 17.186-19.178 26.504-23.384 5.279-2.383 17.651-4.895 23.719-6.277"/><path fill="#fefefe" d="M430.973 734.929c13.275 14.797 28.146 13.12 19.369 36.879-19.946 11.284-19.381-5.082-19.344-19.979.013-5.534-.019-11.34-.025-16.9M1627.14 527.604c24.05 5.078 51.78 14.417 75.74 20.765 54.03 14.315 108.57 31.234 162.49 45.425-11.42 35.796-107.07 394.32-111.12 397.97-77.64-22.824-161.94-43.261-240.52-62.435 12.27-39.131 23.76-87.764 35.08-128.02z"/><path d="M1709.57 603.114c35.09-4.335 67.06 20.554 71.47 55.632s-20.41 67.103-55.48 71.582c-35.18 4.493-67.31-20.418-71.73-55.598s20.55-67.268 55.74-71.616"/><path fill="#fefefe" d="M1178.47 180.528q43.365-.78 86.76-.986c.09 12.736 1.6 116.939-.66 122.123l-2.62.524c-3.96-3.461-.89-8.575-5.63-13.421-9.93-4.892-10.93 5.141-16.06 6.6-3.97-4.393.15-7.722-5.39-13.383-14.61-4.05-20.51 25.847-23.36 36.225-2.99-5.43-12.58-22.701-20.29-9.7-5.56 9.384.68 34.298 3.26 45.279-23.63 22.051-97.67 84.935-126.51 90.841-8.84-20.17-14.53-34.49-37.74-37.513-8.72-43.584-60.499-39.524-72.59.691-27.652-.046-34.127 11.713-42.661 36.328l-1.02 1.409c-3.709-.762-7.1-3.789-10.325-5.805-37.273-23.303-68.953-53.306-101.317-82.727 3.158-8.862 9.486-41.111-1.449-47.235-8.573-4.802-12.713 3.759-16.077 10.162-3.284-11.545-9.872-38.008-26.077-35.178-6.038 4.84-1.697 7.729-3.537 12.784-5.837-3.033-2.271-4.679-10.298-10.151-2.423-30.558-3.45-70.315-3.895-101.158zM747.045 366.474c11.457 6.481 91.132 102.989 105.162 119.275-12.201 15.862-28.691 31.162-35.684 50.105-11.874 32.163 1.155 68.617 22.086 93.895 17.673 21.343 39.052 35.072 64.771 44.547-.608 10.343-4.9 42.6-4.052 50.154 4.344 4.836 5.126 17.577 5.007 24.027-1.388 75.069-9.384 153.023-12.498 227.773-.524 16.578-2.362 36.22-3.864 52.82a5205 5205 0 0 1-119.841 2.87c-.324-28.82-1.879-58.993-2.783-87.896l-5.72-180.258zm902.815-259.152 2.64-.171c3.48 3.974 12.99 372.222 13.7 418.724-5.37-1.504-40.26-11.67-43.12-11.596-2.79 1.352-2.98 2.451-4.29 5.132-1.61-4.905-1.78-55.398-1.98-63.617l-4.74-178.092c-.39-14.843-.43-98.247-6.16-106.498-9.58-.907-28.69 3.08-38.9 4.727l-64.14 10.35-126.03 20.546c-8.49 1.409-17.22 1.832-25.7 3.366-4.33.782-12.13 3.076-12.1 8.607.06 8.505.38 17.06.63 25.566l1.03 44.857c1.16 57.3 3.19 121.143 2.15 178.052-6.63 3.547-20.34 8.537-23.55 13.06-2.25 7.242 1.95 12.973 5.34 19.994 6.61 13.141 16.14 33.773 21.33 47.361-15.26 3.285-32.87 6.072-47.09 11.92-3.9 1.607.05 20.345.7 24.193 10.04 59.464 24.01 118.453 30.37 178.46.83 7.794 4.93 25.198 3.56 31.778l-1.39.724c-2.12-2.762-4.98-26.194-5.32-31.533-1.37-21.121-16.26-15.086-32.06-11.689.25-140.416-.39-280.833-1.92-421.241-.32-50.105-2.44-102.395-1.2-152.135 37.02-8.597 81.52-16.188 119.51-23.769zM1266.31 350.7c1.36 4.256 1.16 38.463 1.18 44.921q.195 62.75-.36 125.496l.96 234.524c-5.18.48-11.57 2.13-16.44 2.49-45.72 3.378-37.15 9.409-31.59 51.529-34.31 1.755-85.56 12.503-115.98 27.615-2.58-14.938-4.15-39.095-5.3-54.521-1.3-20.405-3.99-40.578-4.85-61.242l.48-.982c4.44-9.101.68-25.881-.52-36.514 25.37-20.961 29.63-35.001 48.89-61.186 10.34-14.073 24.66-28.53 32.83-43.809a89 89 0 0 0 10.43-33.716c4.13-42.444-13.65-55.886-53.67-59.213 13.6-11.164 35.17-36.939 48.61-50.627 20.14-20.505 39.93-43.117 60.27-63.487 6.57-6.582 17.24-14.161 25.06-21.278"/><path fill="#fefefe" d="m1594.93 182.374.48.376c3.62 10.216 5.25 136.201 5.58 155.998-25.49 11.022-57.01 28.638-82.77 40.885-53.23 25.303-106.57 54.717-159.89 79.629l-1.11-.372c-1.52-1.999-1.29-35.106-1.42-41.027l-3.79-195.402c78.94-15.378 163.15-25.735 242.92-40.087m-502.88 265.643c4.68 3.069 23.21 31.418 29.29 38.859a301 301 0 0 0-21.49 25.544c-10.86 14.49-20.6 30.282-24.94 48.047-7.79 31.913 4.79 117.29 9.78 152.17-52.28 6.304-122.162 7.969-173.923 5.284 2.405-14.343 3.901-30.809 5.5-45.434 3.23-27.705 5.313-55.337 8.028-83.052 4.053-41.365-28.759-70.431-54.564-99.367a1673 1673 0 0 1 28.3-39.137c27.714 19.454 41.901 24.822 75.601 24.754 13.778 21.164 28.888 19.491 42.018-.533 32.14-6.766 46.82-11.779 76.4-27.135m656.9-99.607c40.31 15.296 80.7 34.027 120.75 50.25 15.99 6.479 34.69 14.172 49.91 22.023-18.96 48.166-42.44 100.925-62.71 148.735-1.24 3.123-2.04 6.481-4.66 8.212-9.81-1.505-38.81-10.612-50.06-13.725a8427 8427 0 0 1-106.96-29.8c-.22-18.315-4.21-42.894-1.75-60.319 1.6-11.398 47-110.093 55.48-125.376m-183.56 174.978.28.046c1.95 1.539 11.69 37.111 12.47 42.141 1.53 9.984 11.78 36.599 11.11 44.794-2.18 27.021-16.51 55.921-21.8 83.16-.99 5.253-3.71 10.338-4.94 15.808-.53-1.867 2.05-13.769 2.23-18.04a99.6 99.6 0 0 0-3.52-30.489 97.1 97.1 0 0 0-45.45-58.018c-22.23-12.421-49.46-14.827-73.81-7.781a101.77 101.77 0 0 0-61.65 48.628c-25.35 46.325-4.81 104.163 40.52 128.779 21.75 10.605 36.66 11.428 60.09 9.257.45 3.879.66 5.379.4 9.32-6.01 7.266-26.56-9.216-37.12-8.697-27.8 1.366-62.43 5.457-89.65 9.888-2.95-23.445-11.52-63.719-16.16-87.919-7.98-43.9-16.29-87.737-24.94-131.509 17.51-2.984 37.98-8.045 55.92-11.464 65.03-12.395 130.72-27.083 196.02-37.904m34.43-168.439 1.38.46c2.31 6.603 2.1 67.256 2.23 78.584-13.22 4.72-43.4 20.152-58.05 27.023l-125.65 59.135c-14.8 6.97-29.63 15.3-44.4 22.225-1.58.741-11.16 2.15-13.42 2.475-2.6-4.462-5.41-10.613-7.75-15.351a877 877 0 0 0-20.12-41.49c14.23-7.942 29.56-15.68 44.24-22.789 73.92-35.794 146.95-76.177 221.54-110.272"/><path d="M1523.69 446.991c4.39 2.051 6.7 5.392 6.06 10.195-5.52 5.949-132.43 64.657-149.45 72.431-4.35-1.582-6.38-4.903-6.05-9.323 2.14-3.541 133.85-66.299 149.44-73.303m32.72-41.086c6.17.353 9.52 2.143 9.15 9.226-2.41 4.457-29.45 15.887-35.9 18.979a7263 7263 0 0 0-68.24 33.035c-4.15 1.622-4.71.814-7.81-1.781-1.52-3.156-1.61-3.557-1.27-7.041 3.07-4.533 91.88-46.17 104.07-52.418m-119.19 57.962c5.1 1.169 8.8 3.866 7.52 9.609-5.56 5.939-60.18 30.913-72.54 37.613-5.08.115-7.91-3.125-7.82-8.126 3.32-6.783 22.72-14.436 30.22-18.024a1172 1172 0 0 0 42.62-21.072m150.84-48.103c2.83.167 6.2 2.025 7.9 4.317 1.87 9.859-40.21 26.223-49.58 30.892-1.7.199-2.27-.251-3.82-.972-2.79-3.687-2.42-2.245-3.01-6.615 3.48-8.979 37.18-21.72 48.51-27.622"/><path fill="#fefefe" d="M222.927 355.483c7.671.898 30.011 7.722 38.315 10.086l65.709 18.367c.858 8.891 4.637 23.544-5.206 26.277-15.591 4.33-17.204 17.667-8.126 29.422 3.759 4.868 11.412 5.399 16.991 5.517 1.679 27.413 2.665 54.963 4.22 82.412 1.261 22.252 3.459 44.888 4.261 67.089-5.954-16.483-3.447-31.872-25.928-26.474-2.175-13.308-2.158-50.197-25.041-32.572-1.929 1.486-3.846 3.061-5.733 4.606l-13.286 10.833c-2.431-12.16-11.61-75.227-16.673-80.931-1.656-1.865-4.171-3.145-6.69-3.052-8.047.299-68.089 65.067-77.614 75.204 17.564-62.472 36.951-124.408 54.801-186.784"/><path d="M241.162 411.713c8.086-1.122 15.564 4.488 16.749 12.565s-4.367 15.598-12.435 16.846c-8.156 1.261-15.779-4.365-16.977-12.531s4.487-15.745 12.663-16.88"/><path fill="#fefefe" d="M1637.41 973.521c16.16 4.753 32.65 8.068 48.77 13.197l.86 61.402c-19.63.24-41.1-1.23-60.82-2.15l-76.47-3.02-46.44-2.03c11.35-19.22 9.36-25.23 6.71-47.008 14.72.717 120.6 6.228 125.43 3.085 4.03-5.938 2.36-16.089 1.96-23.476M862.441 478.876c-33.73-37.653-65.052-77.025-99.21-114.245-6.244-6.803-37.432-30.531-38.601-35.394l1.016-.607c6.687 4.665 14.561 12.994 21.783 13.57 9.395-4.649-12.122-32.49-12.044-37.061 7.229 5.921 14.474 27.103 23.251 27.98 2.736-2.299 2.739-5.004 1.316-8.175l.966-.662c2.271 2.165 2.671 2.982 5.585 3.257 3.067-2.224 2.243-1.843 3.873-5.807-1.128-4.781-2.421-9.332-2.45-14.252 2.405 3.154 3.602 8.402 4.77 12.347 2.161 8.428 2.525 14.177 9.025 19.853 8.616 2.355 11.768-10.511 13.579-16.58-1.041 16.874-1.409 21.326-6.446 37.135 35.091 33.515 60.578 55.812 99.618 84.355-8.96 11.052-17.521 22.855-26.031 34.286m365.169-174.121c.53 6.385-5.22 17.539 1.61 22.67 7.56-.54 12.87-17.099 18.51-22.844l-5.42 12.257c-1.78 4.126-3.46 7.999-1.7 12.397 3.13 2.688 2 1.912 6.35 2.676 1.76 4.189 1.78 6.382 5.93 7.657 7.03-1.524 12.81-10.849 20.15-16.347-9.42 21.207-27.14 27.174-42.37 41.977-9.75 9.477-20.24 21.85-29.72 31.891l-56.13 58.411-17.49 18.901c-7.99-10.229-17.29-22.82-24.41-33.533 30.2-19.54 54.27-37.903 81.32-61.518 34.47-30.087 19.93-19.369 15.4-59.871 2.52 7.211 4.29 18.79 13.3 18.929 8.14-3.939 11.02-23.778 14.67-33.653m-225.07 539.963c4.07 15.096 8.73 48.341 11.63 64.817 6.81 38.658 14.62 78.594 20.59 117.285l-21.01.52c-10.41.68-23.105.62-33.695.84 5.855-41.826 9.291-85.697 15.109-127.672 2.478-17.871 3.93-38.273 7.376-55.79m200.78-17.373c3.54-.479 4.24-1.177 7.1.103 1.89 3.605 34.43 242.692 34.23 251.672-2.35 1.92-5.77 1.94-8.95 2.37-2.94.51-3.66.71-6.6.28-1.68-1.77-1.73-2.44-2.1-4.98-7.59-52.92-14.15-106.246-21.29-159.183l-7.88-58.299c-.86-6.445-3.62-24.081-3.49-29.856 2.47-1.839 5.76-1.764 8.98-2.107M146.474 618.235c29.07-1.285 28.463 18.615 49.332 32.33 21.129 13.885 39.595 5.258 61.372 7.456 5.79.584 16.274 5.257 21.752 7.842 27.229 12.847 37.255 15.672 66.719 9.357.265 4.545 1.381 14.408-.766 18.371-.688 1.27-2.366 1.324-4.108 1.816-26.371 3.77-42.752 10.203-66.187-6.609-21.767-15.617-39.441-10.68-63.289-10.695-13.721-.009-26.308-13.615-33.648-24.377-8.982-13.17-22.743-14.759-37.718-16.62a1130 1130 0 0 0 6.541-18.871"/><path fill="#fefefe" d="M137.582 648.369c34.168 2.421 26.191 15.954 50.404 33.03 20.553 14.496 38.834 5.263 60.782 7.91 6.149.741 15.047 6.806 20.768 10.19 28.945 17.121 47.624 11.651 78.045 5.429-4.979 6.777-10.563 13.54-15.849 20.123l-7.737 9.63a9033 9033 0 0 1-195.366-56.567c3.099-9.53 5.412-20.501 8.953-29.745M1377.94 801.448l.96.364c3.33 5.018 35.55 227.028 40.59 254.238l-15.56 2.55-.49-.34c-2.14-3.66-9.43-54.59-10.57-62.655-9.09-64.253-20.49-128.153-29.75-192.352zm223.91-352.499 1.34.209.88 1.265c.19 2.393 1.16 6.03-.51 7.995-6.18 7.307-76.29 30.472-80.62 41.694-.93 2.396-.29 3.456.78 5.53 13.6 6.283 72.2-36.898 80.98-29.245 1.32 11.389-13.6 8.068-18.47 17.021-.04 3.21-.25 4.277 1.46 7.036 7.89 3.887 11.82-2.916 17.44-1.603 3.13 11.971-12.59 15.199-21.11 18.419-1.98-5.48-1.86-19.809-10.27-19.196-3.82.278-11.53 4.205-15.34 5.931-.42.219-.85.438-1.28.657l-.7.329c-5.08 2.447-41.91 10.184-48.04 10.307-.19-3.442-.07-4.686-1.84-7.762-8.72-4.806-40.08 16.279-51.43 18.98-9.6 2.283-18.94 4.003-28.58 5.661 22.59-12.618 56.19-27.61 80.23-38.691zm-38.32 506.416c4.55-.154 51.9 13.037 61.37 15.317l.66 16.245-51.09-2.785c-20.85.002-44.45-1.498-65.46-2.366l-1.7-17.393c18.62-2.451 37.37-6.427 56.22-9.018M152.577 596.451c43.04 13.296 35.168 8.591 67.117 37.101 20.382 18.188 98.387 2.922 125.46-3.575l-.152 16.008-.323.826c-2.326 1.61-58.595 6.461-66.166 7.225-19.088-9.642-26.681-6.964-46.579-6.161-33.737 1.361-36.252-18.025-58.229-34.47-6.114-4.575-18.159-3.143-22.781-7.368-1.119-3.018.55-6.267 1.653-9.586M1500.64 802.354l4.94-.55c3.41 2.375 13.85 45.193 16.33 52.844-5.92 19.761-13.18 46.182-17.67 66.34-.18.515-.99 1.612-1.34 2.127-2.24-5.756-2.76-19.2-3.94-25.898-4.17-23.706-6.52-72.19-14.29-92.958 5.17-.479 10.77-1.275 15.97-1.905m57.97-82.576c.54 4.036-27.5 100.501-31.1 112.964l-6.35-23.977c-4.12-15.683-2.64-19.377-19.7-17.647l-1.29-13.697c30.9-12.803 45.13-27.11 58.44-57.643M906.235 1046.86c14.475.46 24.932.72 39.392.18-.628 9.75-1.997 13.47-5.402 22.33-19.836 5.09-38.982 7.76-59.192 10.87-7.02 1.15-26.804 4.54-32.793 2.61l.282-1.64c7.052-6.39 43.77-20.47 55.464-26.32 2.094-2.2 1.914-4.84 2.249-8.03m617.705-423.11c.3.087.84.212 1.17.48 15.84 12.49 22.58 31.023 27.22 48.92l-21.4 2.132c-4.2.494-8.82 1.272-13.06 1.89-3.5-13.824-7.74-25.732-13.23-38.864zm-425.26 417.52c1.36-.15.78-.07 2.36.69l.31 5.44c2.48 3.04 9.44 5.64 13.34 7.42 2.05 6.6 5.03 13.82 7.54 20.34l-32.53-.4c-26.23-.28-23.93-4.09-25.02-29.04a270 270 0 0 0 34-4.45m166.78-273.936 1.55-.031c2.67 3.853 2.15 29.297 2.22 35.579-11.97 1.908-24.42 3.291-36.67 5.236-1.15-4.139-4.12-28.502-4.96-34.619 11.84-2.311 25.83-4.241 37.86-6.165m124.43-117.879 20.09 6.374c1.1 14.099 2.13 24.557 4.63 38.514l-15.92 4.211-16.26 4.475c-4.02-20.78-1.39-34.705 7.46-53.574m25.92 55.842c1.25.762 12.08 29.053 13.6 32.592-6.43 3.138-12.93 8.448-19.68 10.46-1.98.591-3.24-1.228-4.98-2.76-9.7-10.018-14.18-20.68-19.93-33.082 10.27-2.738 20.61-4.932 30.99-7.21M991.142 410.91c10.138 15.165 18.598 8.532 24.418 16.049 1.61 9.396-11.16 22.102-19.915 25.18-17.553.109-22.412-15.44-25.619-29.474 11.886-1.275 14.498-1.152 21.116-11.755m554.428 273.493c2.16-.382 3.24-.261 5.45-.178l1.37 1.542c2.98 11.828-4.44 30.265-9.67 40.924l-11.22-3.334-9.42-1.866c.25-13.984-.12-20.55-2.53-34.312 8.05-1.196 17.81-1.941 26.02-2.776m-92.43-25.925c.52-.122 1.99-.048 2.61-.039 2.42 3.697 5.1 21.001 6.02 26.036-10.32 2.536-22.9 4.884-33.47 7.198l-2.51-.153c-3.26-4.76-4.27-26.088-4.81-32.953 12.68 1.143 19.52 1.051 32.16-.089m7.41 37.734c1.42-.325 1.74-.096 3.23.15 2.29 4.026 5.39 22.535 6.39 27.799-8.26 1.328-22.21 6.01-30.47 8.572a193 193 0 0 1-12.18-29.996 2322 2322 0 0 0 33.03-6.525m33.77-51.018c4.26 3.004 10.94 27.01 12.55 32.57l-25.92 3.969c-2.88.656-3.88 1.105-6.75.487-4.06-4.119-5.79-18.591-7.96-26.325 8.84-2.306 19.81-6.935 28.08-10.701m8.68 44.158c1.39-.404 2.86-.223 4.33-.167 4.25 5.175 4.12 24.063 4.41 31.267-10.73-.308-17.57.117-28.32 1.058-.8.233-1.59-.016-2.55-.143-1.55-2.826-5.08-22.628-6.23-27.693 9.09-1.082 19.23-2.893 28.36-4.322m-60.22-82.346c2.29 2.807 10.02 34.028 11.66 40.005-8.18 1.336-12.34 1.74-20.61 1.915l-12.36-1.322c1.29-11.843 4.74-23.437 8.61-34.652zM1309.7 760.264l3.14.014c2.44 2.37 5.94 29.502 7.44 36.244l-12.51 1.444c-3.93.677-8.6 1.141-12.61 1.646l-.1-37.203c4.55-.217 10.07-1.349 14.64-2.145m145.5-156.125c1.17-.132 5.38-.57 6.27-.22 11.24 4.431 22.69 21.158 28.63 30.366l-7.76 4.079c-4.79 2.382-12.19 4.764-17.4 6.613-2.6-13.302-6.87-27.297-9.74-40.838m31.81 127.312c8.57-.669 15.95-.59 24.56-.519-3.17 12.708-6.29 20.894-11.88 32.758-2.35 3.211-6.34 3.919-10.25 5.194-1.2-6.207-7.26-31.909-5.3-36.531zm-15.93 3.817c.27.286 1.22 1.245 1.19 1.661-.61 7.375 11.63 31.813 1.68 33.835-3.88-.797-7.09-3.963-10.22-6.542-7.61-6.941-12.54-13.199-18.69-21.364 9.46-3.188 16.35-5.249 26.04-7.59m-383.02 203.776c3.42.067 5.04-.497 7.54 1.113 1.9 5.703 8.29 42.821 7.5 48.089l-2.33 1.27c-2.98.34-5.42.968-8.1-.162-3.01-8.897-6.43-35.527-7.57-46.085-.23-2.231 1.25-2.816 2.96-4.225M344.181 728.676c1.669 4.273 1.803 33.267 1.904 39.56-5.265-1.93-10.204-4.068-15.348-6.268l-7.516-3.941c5.976-9.548 14.189-20.158 20.96-29.351m-48.007-184.89.867.233c1.482 2.118 4.297 21.004 5.066 25.095-8.668 1.091-11.921.74-20.332-1.601l-11.23-3.834a514 514 0 0 1 25.629-19.893m-52.608-62.997c2.44 1.882 9.226 41.843 10.307 47.564-6.961-10.417-8.9-24.877-20.362-28.922-8.163 3.217-15.687 10.074-23.079 15.224 10.578-11.334 22.2-22.787 33.134-33.866M1479.71 603.163c14.94 1.294 24.43 5.283 36.67 13.226l-6.68 4.875-10.22 7.308c-6.82-9.413-12.16-16.468-19.77-25.409m-46.07 144.779c2.53.587 5.28 5.539 7.19 8.017 4.39 5.715 9.06 10.692 14.03 15.92l-11.16-2.585c-10.93-3.547-16.75-5.92-26.41-12.099 4.46-3.147 11.39-6.597 16.35-9.253M985.247 459.926c6.061 1.401 9.796.99 15.903.24.32 1.058.62 2.119.92 3.184 1.7 6.186 2.15 7.157-.92 12.598-12.771 9.244-17.27-4.957-15.903-16.022M344.061 658.614c1.584 2.486 1.399 1.407 1.029 4.039-6.855 7.102-32.514 4.942-41.481 2.695l-2.408-1.337c2.869-2.655 36.729-4.841 42.86-5.397M1521.3 731.597c3.89.643 10.66 3.226 14.61 4.594-3.84 6.339-6.89 9.235-12.05 14.289l-10.03 8.041c3.83-9.232 5.53-17.209 7.47-26.924m-107.44-109.705c1.56 2.551-2.61 18.593-3.49 22.956l-10.16-3.033-2.7-1.258-.22-1.811c3.79-6.877 10.53-11.796 16.57-16.854m190.78-98.86.52.411c1.41 2.502.44 6.404.08 9.537-5.76 3.45-9.06 5.542-15.36 8.023l-2.54-10.125c5.06-2.738 11.92-5.5 17.3-7.846m-100.7 415.331c6.64 2.158 20.9 5.377 26.47 8.097l-.67 1.091c-6.23 1.57-17.69 2.979-24.39 3.994-.25-4.466-.85-8.754-1.41-13.182"/><path fill="#b3b2b5" d="m233.434 626.983.749-.395c11.045 4.004 28.539-.326 41.969 3.091-5.193 2.472-39.072 2.001-42.718-2.696"/><path fill="#fefefe" d="M339.51 620.089c2.591-.053 1.478-.456 3.435 1.275-2.928 2.826-24.234 5.236-29.697 6.009l-1.7.271.083-.609a2225 2225 0 0 1 27.879-6.946m-13.186-198.571c4.897 2.922 4.125 9.32-1.58 12.15-2.197-2.341-2.743-2.736-3.177-5.865.801-3.251 2.27-4.132 4.757-6.285M1601.05 549.223l.59 1.252c-.7 5.136-2.81 9.93-4.68 14.776-1.13-3.451-2.65-7.082-2.52-10.656 2.17-3.684 2.36-2.955 6.61-5.372"/><path fill="#504f50" d="m156.945 587.062 1.454-.6c7.219 1.714 24.889 6.26 30.81 9.528-3.742.021-29.64-6.351-32.264-8.928"/><path fill="#878887" d="M759.952 324.944c-2.459-3.067-7.216-10.785-8.65-14.362l.528-.902c3.416 2.795 7.119 10.472 9.088 14.602z"/><path fill="#fefefe" d="m227.327 549.053 2.645 1.352c2.432 4.926.839 8.672-.593 13.846-2.66-3.244 1.044-7.378-2.052-15.198"/></svg>