<svg xmlns="http://www.w3.org/2000/svg" preserveAspectRatio="xMidYMid meet" viewBox="0 0 2048 1462"><path d="M1929.09 130.548c46.47-2.11 39.95 2.449 38.36 44.309-2.04 53.546-11.68 106.887-15.2 160.02-7.23 109.119-11.58 218.491-18.82 327.63l-11.57 178.985c-3.13 43.696-7.42 87.308-10.33 131.059a6317 6317 0 0 0-7.73 163.359c-.77 20.05-5.71 185.39-9.59 190.44-1.45 1.88-3.69 3.32-6 3.87-12.18 2.91-74.21-1.27-92.13-1.34l-240.95 1.12-327.04-.14-320.974-4.75c-162.504-.46-325.01.49-487.498 2.85l-100.59 1.44c-27.594.56-162.271 6.33-177.946-2.47a33.4 33.4 0 0 1-1.465-4.89c-1.955-9.09-2.112-37.04-2.463-47.68-.906-25.38-2.046-50.74-3.417-76.1-5.92-115.03-11.86-230.069-23.582-344.638-.824-8.052-5.798-49.459-2.66-54.331 6.919-3.444 36.22-2.218 45.523-2.327-10.001-31.978-19.481-70.115-28.512-102.878-2.781-11.769-10.733-36.37-11.449-47.08 2.906-4.36 3.727-1.746 7.64-5.562-16.012-34.182-31.954-69.156-45.944-104.253-1.862-4.672-4.312-12.601-2.08-17.367l1.98-.697c12.13 4.409 65.742 76.324 77.379 91.031 7.287-9.538 14.543-20.998 16.986-32.929 1.052-5.135.996-18.851 6.297-20.601 5.295 3.422 17.266 31.479 20.979 39.107 4.725-37.717 10.583-75.077 13.618-113.043.233-2.917.555-3.801 2.382-6.055l2.807-.154c3.351 2.827 30.372 103.182 33.813 115.181 13.606-28.591 26.051-58.26 39.804-86.846 2.138-4.445 3.856-10.368 8.531-12.473 1.312.362 1.471.155 2.318 1.382 7.691 11.131-16.699 130.869-19.644 149.821 6.855.176 16.621-1.086 20.728 4.976.869 12.597-39.638 125.458-45.708 148.514 40.739-1.954 30.339-.33 67.195-19.018a1904 1904 0 0 1 39.079-18.911c-11.212-.039-29.084 3.029-38.426-4.458-3.064-2.456-4.582-14.554-4.671-18.545-.56-24.837-.789-49.701-1.358-74.548l-3.686-171.707-2.187-183.925c-.117-19.219-2.721-70.857 1.378-92.576.398-2.11 7.293-4.06 10.289-4.059 18.835.005 37.716.751 56.609.609q88.231-.616 176.464.059l336.325-.853c65.195-.11 132.486 1.242 197.406.065 5.97-21.436 13.02-50.676 20.31-71.296l543.03-4.659c27.07-.311 54.28-.124 81.33-.884 65.24-1.832 129.79 1.039 195.06-1.784"/><path fill="#fefefe" d="m843.656 810.042 248.274-.073c3.39 2.292 9.58 5.68 13.58 5.685 81.02.114 162.29.132 243.29.298l415.67 1.726c47.28.331 94.11-.001 141.45.72.65 21.544-2.61 55.388-4.45 77.185a3919 3919 0 0 0-8.5 110.407c-.53 8.64-.91 17.38-1.56 26-3.22 42.86-2.58 85.72-4.25 128.64-2.4 51.14-5.13 102.25-8.21 153.35-10.3-.38-20.99-.37-31.23-1.02-56.57-3.55-112.59.08-169.09-.06l-309.38-.91-579.507-4.04c1.325-24.71 2.21-52.38 4.481-76.81 23.686 21.75 33.349 17.27 63.688 20.81l68.293 8.35 158.055 20.55c12.38 1.58 69.35 10.89 76.96 7.61 5.25-8.56 14.46-59.63 17.05-72.27l21.04-102.14c3.67-17.82 40.75-189.367 39.02-197.868-9.9-7.438-79.77-18.391-96.26-20.723-68.68-9.718-138.73-13.575-207.761-20.614-9.585-.466-28.287-5.231-37.039-2.157-8.613 3.026-11.939 30.166-14.193 38.536-10.916-34.872-12.447-71.369-39.421-101.182"/><path d="M1259.14 1207.9c-3.96.09-5.3.18-8.81-1.69-4.25-6.64 6.96-65.88 8.78-78.07l22.52-147.938 13.58-88.008c.94-5.863 4.79-34.174 6.97-37.936 7.06-1.9 158.91 16.414 179.31 18.604l56.19 5.994c8.32.896 23.1 1.958 30.59 3.992 3.57 4.264.74 7.548 2.53 8.798 4.98 3.455 21.39 4.21 20.08 13.864-1.65 12.234-4.74 25.804-7.29 38.353l-16.05 77.807-28.52 142.24c-3.46 17.42-11.35 63.04-17.03 76.85-15.34 2.06-261.2-20.7-262.86-22.11-.99-.84-1.58-2.29-1.61-3.6-.09-2.89 1.32-4.24 3.03-6.31 10.64.44 41.94 4.32 49.33 3.97 24.04 3.88 61.71 5.48 87.11 7.64 32 2.99 64.01 5.74 96.04 8.24 4.62.36 16.91 2.8 20.36 1.17.58-2.7.73-1.43-.53-3.94-6.51-1.56-38.51-4.24-47.49-4.85-45.94-3.15-99.15-9.46-144.83-10.04-6.36-1.47-57.58-4.98-61.4-3.03"/><path fill="#fefefe" d="m1310.61 864.42 166.4 18.404c22.23 2.398 62.63 5.23 82.49 9.674-5.35 29.849-42.06 313.532-46.35 320.192-.71 1.1-2.19.91-3.39 1.11-60.34-6.15-122.92-8.91-183.45-13.65-21.76-1.7-44.78-2.73-66.32-5.17 14.6-87.26 25.03-177.66 40.33-264.977 2.17-12.358 7.68-57.659 10.29-65.583"/><path d="M1385.58 896.649c4.92 1.221 12.78 7.301 7.88 12.254-18.23 18.429-37.09 36.14-46.13 61.183-1.97 5.433-8.54 7.909-13.53 4.933-5.13-3.065-6.76-11.17-8.24-16.447-1.89-7.324-12.41-34.133 1.22-33.218 5.28 3.955 7.41 15.083 9.36 21.768 12.19-19.234 31.34-36.854 49.44-50.473m-1.86 70.024c13.98 5.004 6.73 12.599-.06 19.589-14.78 15.218-30.02 30.798-36.74 51.438-1.84 5.65-8.68 9.07-14.1 5.92-5.33-3.2-6.66-11.8-8.06-17.39-2.31-8.93-8.61-27.197-1.36-34.668l1.92.113c6.57 4.88 7.93 16.235 9.42 24.015 12.57-18.37 30.13-37.031 48.98-49.017M1370.4 1107.6c5.26.57 12.07 5.68 10.01 11.13-1.75 4.64-9.32 10.34-12.84 14.16-4.36 3.95-7.24 7.23-11.53 11.49-9.24 9.2-14.72 31.53-25.2 37.26-8.35 4.56-12.18-10.36-13.66-16.39-1.92-8.65-3.85-17.24-5.59-25.93-1.36-6.75 3.48-12.46 9.77-8.41 3.01 4.7 4.42 14.72 5.71 20.79 12.08-18.15 26.69-30.23 43.33-44.1m1.77-63.84c5.75.32 12.85 4.88 10.79 9.6-6.51 12.15-18.99 20.3-27.76 31.79-7.17 9.39-13.78 31.85-25.9 31.18-5.74-3.16-6.28-6.59-8.27-12.66-2.03-8.76-9.35-30.12-2.08-36.49 9.24-.8 9.57 12.13 11.35 19.64a260.5 260.5 0 0 1 41.87-43.06m28.64 26.65c15.36.36 103.18-.39 111.03 7.26l-.26 2.03c-2.97 2.67-1.77 1.86-6.33 2.46-13.93.55-100.74 1.58-109-2.44-1.78-3.08-1.32-1.8-1.08-5.73 1.84-2.58 2.45-2.52 5.64-3.58m48.91-31.85c12.42-.66 58.47-3.01 66.41 3.02l-.24 1.61c-6.37 4.6-38.81 5.38-48.28 5.74-13.49-.06-55.95 4.01-64.86-1.77-1.37-3.09-1.13-1.79.2-5.79 4.71-3.95 37.19-2.49 46.77-2.81m-29.32-106.065c15.82-.052 103.36-2.65 111.21 3.534l-.59 1.706c-3.36 2.712-6.53 2.663-10.79 3.131l-27.18 1.346c-18.76.875-56.92 1.686-77.23.14l-1.98-1.806c-.99-3.573-.88-2.11-.02-5.731 2.94-2.589 1.95-1.783 6.58-2.32m-37 237.525c13.96-.43 101.58 3.34 111 6.52 2.07.7 2.23.99 3.13 2.84l-1.8 3.01c-12.37 1.65-107.63 2.05-113.23-3.99-1.01-3.31-.09-5.02.9-8.38m17.64-65.88c16.01-.06 94.42-2.7 104.17 1.94 2.02.97 2.05 1.46 2.75 3.44-1.78 3.26-.7 2.42-3.81 3.37-30.87 3.21-65.75 2.6-96.9 2.47-3.81-.01-5.21-1.14-7.44-3.88-.66-3.3-.04-4.03 1.23-7.34m11.37-142.508c14.72.568 104.38-1.85 111.6 5.489l-.05 2.112-2.06 1.74c-15.93.915-101.86 5.009-109.86-1.485-1.43-3.663-.71-3.529.37-7.856m-20.07 180.718c33.15 2.49 67.52.19 100.62 4.72 2.34.32 2.43.71 3.53 2.5-2.21 3.13-1.22 2.13-6.01 3.2-15.74.9-91.99 5.44-101.06-1.79-1.57-1.25-1.38-2.26-1.63-4.12 1.88-3.55.78-2.32 4.55-4.51m85.32-132.81c7.63-.42 35.89-1.21 41.13 2.93l-.53 1.32c-9.71 4.21-58.8 5.81-71.5 6.47-8.77.75-34.77 3.35-40.38-2.64-.42-3.16-.47-1.96 1.29-5.22 5.36-3.13 58.91-2.7 69.99-2.86"/><path fill="#fefefe" d="M348.627 238.452c16.78-1.206 45.883-.37 63.229-.382l143.209.394 519.075-.659c-1.08 39.578-4.52 83.427-6.76 123.219l-9.72 184.252-5.64 108.645c-.96 19.767-1.63 48.955-4.36 68.065l-261.81.561-72.421-.059c-12.339.03-25.627.307-37.937-.328-4.48-.232-12.045-5.021-16.075-7.427-4.65-25.611-8.151-55.664-11.703-81.706 29.747-16.914 38.344-40.256 40.594-73.275.667-6.013.537-13.747.606-19.92 23.435-17.917 24.928-50.085 25.047-77.338-2.779-16.021.368-21.396 4.972-36.171 21.157-67.883-.746-123.446-77.568-112.543-21.824-24.427-36.044-40.136-70.182-48.033-34.27-7.927-74.038 2.623-103.287 21.145a149.3 149.3 0 0 0-65.788 94.289c-12.047 54.796 6.177 107.087 34.907 153.691 11.37 18.444 25.36 35.409 36.662 53.176 1.456 39.093 1.92 81.247 3.763 119.79-8.105 3.965-38.964 17.931-46.355 18.598-25.088 2.262-59.695 2.186-84.97 2.296.075-62.673-2.743-130.943-4.329-193.802l-3.385-203.349c-.19-12.037-2.956-84.173-.714-91.359 3.33-2.291 6.261-1.574 10.94-1.77"/><path d="M914.943 591.544c9.014-.349 64.121-4.46 63.676 6.888-5.173 4.952-170.535 4.817-188.869 4.894-10.309.253-57.218.918-61.527-5.633l1.094-1.98c8.049-3.644 163.395-3.077 185.626-4.169m-2.52-58.071c10.715.142 64.903-3.727 66.716 6.272l-1.578 1.761c-14.107 3.039-61.005 3.043-76.855 3.144-31.912.204-64.991 1.459-96.791 1.49-10.393.033-63.186 2.458-68.285-4.997l1.282-1.978c6.8-3.754 155.597-5.147 175.511-5.692m-79.226-114.026c19.289-1.01 131.616-3.061 143.204 2.071 2.069.916 2.43 1.144 3.268 3.188l-1.292 1.99c-4.767 2.9-67.277 3.217-77.867 3.184-17.313.656-35.13.009-52.557.451-19.496.587-39.002.798-58.506.633-6.845-.01-34.266 2.374-35.662-5.396 5.676-6.96 67.121-5.646 79.412-6.121m97.211 57.105c8.661-.568 48.313-2.318 51.162 6.302-4.468 5.512-64.663 4.586-77.008 4.765a6678 6678 0 0 1-105.347 1.413c-12.498.189-41.122 2.353-50.761-5.185l.155-1.419c10.499-4.953 161.202-5.467 181.799-5.876m-61.996-114.068c28.364-.596 56.862-1.043 85.222-.614 7.086.107 18.905-.818 22.208 6.552l-1.098 1.853c-9.089 3.628-96.991 2.748-112.324 2.855-13.915.452-101.766 2.33-108.434-1.978-1.898-3.184-1.731-1.871-1.26-5.108l2.491-2.174c31.719-1.659 83.672.305 113.195-1.386"/><path fill="#fefefe" d="M486.086 720.034c5.376-.493 42.169 1.617 49.868 1.883 29.492.96 58.998 1.367 88.505 1.222 5.438.024 19.556-.352 23.592 1.251 19.926 7.911 40.758 17.753 60.204 26.69a3190 3190 0 0 1 67.185 31.75c44.548 21.229 64.924 26.508 79.846 78.098 9.841 34.025 15.361 67.56 22.613 102.132l16.725 83.16c6.831 33.5 15.114 70.12 15.845 104.38-.491 23.41-11.586 47.44-29.106 62.82-36.321 31.9-55.176 30.26-86.429-2.15.221-71.71 18.967-189.91-32.988-248.01-32.547-36.398-126.301-43.361-173.696-44.313-33.141.088-71.361-1.397-104.155.166-59.646 2.843-212.457 13.706-251.367 58.654-43.06 49.743 2.591 209.593 5.854 268.963a83.4 83.4 0 0 1-37.17-41.24c-22.817-55.89 3.168-270.65 27.115-328.182a121.6 121.6 0 0 1 31.926-44.873c30.037-26.494 92.849-54.45 130.471-71.223a2769 2769 0 0 1 95.162-41.178"/><path fill="#fefefe" d="M902.914 883.921c13.909 1.035 32.628 3.663 46.808 5.212a1705 1705 0 0 1 124.938 17.209q48.105 9.076 95.82 20.022c-1.54 16.291-9.9 55.079-13.28 73.329l-25.07 135.347c-4.68 24.46-11.15 52.36-14.77 76.58-40.9-4.89-81.83-9.48-122.796-13.78-21.977-2.32-57.463-5.34-78.592-9.19 5.107-14.31 7.56-20.48 9.309-35.85 12.316.65 27.987 2.68 40.511 3.93 34.02 3.96 68.088 7.54 102.188 10.74 5.21.48 10.67 1.05 14.69-2.33-.13-2.64.14-1.74-1.44-4.09-1.02-1.52-3.01-2.46-4.85-2.64-13.32-1.27-26.78-2.56-40.08-3.99a5455 5455 0 0 1-111.145-12.3c-.28-5.23-.753-10.66-1.131-15.9l1.891.33c50.461 5.41 101.015 10.08 151.555 14.73 2.7.25 3.83-.78 5.78-2.24.82-3.47 1-1.82-.75-5.1-5.23-3.7-140.015-15.82-160.119-17.22-5.528-36.76-13.885-73.78-20.673-110.23-2.186-11.733-11.764-48.633-10.905-58.406 1.495-17.004 8.498-46.297 12.111-64.163"/><path d="M918.066 1076.58c19.082.57 54.699 5.99 73.437 7.7 12.577 1.15 92.257 8.75 98.297 12.85 1.34 3.54.83 2.67-.13 7.07-10.54 1.45-164.815-15.53-170.758-18.81-1.823-3.58-1.084-4.42-.846-8.81m9.343-71.47c55.035 4.58 110.331 11.2 165.261 17 3.77.4 5.13.46 7.38 3.39.08 3.24-.11 3.37-1.86 6.25-10.51-.02-28.96-2.32-39.84-3.41l-74.336-7.68c-17.756-1.86-36.563-3.33-54.358-5.42-2.686-.32-3.311-1.5-4.517-3.28-.159-3.37.415-3.8 2.27-6.85m11.762-69.586c13.107.073 39.77 3.5 53.891 4.889l98.478 9.655c5.95.622 15.77.498 19.11 4.619.37 3.547.16 3.703-1.57 6.989-2.71.074-26.13-2.093-28.49-2.552-17.65-3.418-133.903-9.776-142.047-16.16-.998-3.335-.499-3.931.628-7.44m-6.173 34.409c6.592-.162 40.027 2.64 45.482 3.624 16.367 2.954 118.56 9.803 125.09 15.338 1.18 3.767 1.08 2.148-.28 6.513-1 .157-2.01.269-3.02.335-4.5.314-47.07-4.151-53.59-4.785l-69.351-6.981c-7.242-.743-40.513-2.991-44.752-6.863-1.06-3.839-.674-2.789.421-7.181m-9.743 70.977 111.055 12.11c17.63 1.94 35.55 3.83 53.19 5.87 3.69.43 4.35.71 6.8 2.91.4 3.82.16 2.83-1.64 6.85l-119.87-12.13c-15.83-1.68-32.934-3.39-48.792-5.5-2.315-.3-2.993-1.95-3.897-3.57.279-3.52.727-3.7 3.154-6.54"/><path fill="#fefefe" d="M124.633 814.323c41.97-.782 94.163-.847 136.279-.003-28.458 18.885-46.429 54.684-54.967 86.673-14.282 53.509-19.27 108.557-23.596 163.627-2.89 36.8-5.304 74.74-2.189 111.56 3.496 36.04 15.521 56.36 43.549 78.63 5.796 3.65 10.809 5.39 17.276 7.45 2.516 17.15 3.273 35.48 4.163 52.84-29.651.31-59.306-.06-88.941-1.11a9227 9227 0 0 0-16.217-316.849 6974 6974 0 0 0-9.905-117.203c-.865-9.22-6.354-60.197-5.452-65.615m980.607 87.064c13.31-1.56 107.5 17.312 122.47 20.572-1.5 10.77-5.07 26.064-7.28 36.963l-14.65 71.148-40.06 193.19c-3.73 18.51-8.06 36.96-11.5 55.49-74.11-7.94-157.445-19.6-231.457-30.06l-55.338-6.92c21.393-13.96 28.978-20.73 43.518-42 50.406 3.57 104.277 11.72 154.847 16.48 8.62.81 51.08 6.63 57.31 5.73.9-.75 2.47-2.08 2.77-3.22 6.8-26.11 12.38-58.78 17.36-84.8 8.72-45.53 17.18-91.12 25.35-136.76 2.79-15.3 14.52-66.735 10.99-77.363-7.47-6.342-61.37-12.892-74.33-18.45m272.86-378.213c35.02.693 75.19-.546 109.45 1.436l-2.41 160.013c-.39 28.748.05 56.123-.67 85.219-35.1.567-74.12-.7-109.69-.911z"/><path d="M1425.84 677.734c14.52-2.98 28.7 6.395 31.64 20.921 2.95 14.526-6.46 28.682-21 31.591-14.48 2.898-28.58-6.472-31.51-20.947-2.94-14.476 6.4-28.596 20.87-31.565"/><path fill="#fefefe" d="M1785.43 522.828c32.85 4.788 73.28 7.984 106.82 11.526-.92 13.745-3.47 31.486-5.06 45.404l-10.44 88.83c-4.15 34.276-7.9 78.689-13.87 111.971a3001 3001 0 0 1-106.3-12.91c1.52-20.841 6.08-50.861 8.61-72.306z"/><path d="M1813.69 684.588c14.3-1.839 27.39 8.246 29.26 22.544s-8.19 27.411-22.48 29.315c-14.34 1.909-27.5-8.186-29.38-22.529s8.25-27.486 22.6-29.33"/><path fill="#fefefe" d="M1123.27 520.802c34.51 1.376 74.68.911 109.76 1.399.21 27.398-.97 54.621-1.54 81.998a9819 9819 0 0 1-4.18 161.883l-.52 1.039c-6.77 2.338-91.31.148-105.21-.031-.97-18.8.36-50.041.39-69.836z"/><path d="M1171.63 675.633c14.6-2.052 28.08 8.161 30.05 22.767s-8.31 28.03-22.93 29.924c-14.51 1.879-27.8-8.311-29.76-22.806-1.96-14.494 8.16-27.848 22.64-29.885"/><path fill="#fefefe" d="M1498.86 524.795c35.95-.33 72.11.456 108.23.21.6 81.689-2.46 164.036-3.56 245.819-34.29.681-73.11-.659-107.84-.913-.02-16.786.91-33.223 1.07-49.925.08-65.069.78-130.136 2.1-195.191"/><path d="M1544.34 679.885a26.94 26.94 0 0 1 26.12 7.227 26.94 26.94 0 0 1 6.61 26.275 26.95 26.95 0 0 1-19.59 18.722c-14.35 3.447-28.8-5.3-32.4-19.613s4.99-28.858 19.26-32.611"/><path fill="#fefefe" d="m1504.54 244.449 109.56.957c.25 29.237-1.16 62.524-1.8 91.964-.75 49.448-1.98 98.887-3.7 148.31-36.56.235-73.03-.608-109.61-.923.27-65.51 2.99-169.615 4.22-238.73.44-.526.89-1.052 1.33-1.578"/><path d="M1530.5 414.214c8.1-1.32 43.64-2.1 49.14 2.563 1.2 3.577.98 2.198-.58 6.499-8.79.527-43.47 1.881-48.9-2.903-1.2-3.271-.88-2.121.34-6.159"/><path fill="#fefefe" d="M1128.06 240.251c22.99.614 47.13-.034 70.25.584 12.62.338 26.46-.252 38.88 1.374-.43 80.096-1.69 160.186-3.78 240.256-33.1 1.127-75.39-.559-109.65-.525-.05-40.241 1.26-81.767 2.06-122.06.41-39.882 1.16-79.76 2.24-119.629"/><path d="M1152.01 409.121c9.83-.43 50.08-2.551 55.91 3.905.53 3.368.34 2.342-1.4 6.013-9.19.351-51.28 2.821-56.27-3.577-.24-3.929-.35-2.492 1.76-6.341"/><path fill="#fefefe" d="M1381.83 243.169c35.97-.612 74.15.449 110.38.805-.86 79.967-2.27 159.927-4.21 239.874-2.7.725-19.89.528-24.08.557-28.39.195-56.77-.411-85.18-.56q2.355-120.328 3.09-240.676"/><path d="M1407.3 412.028c9.45-.132 45.36-2.364 50.97 2.778.64 3.622.57 2.305-1.03 6.135-8.43 1.002-45.19 1.993-50.53-2.721-.84-3.639-.72-2.277.59-6.192"/><path fill="#fefefe" d="M1258.3 522.185q54.39-.113 108.75.736c.34 18.6-1.1 37.797-.96 56.272.5 62.578-2.67 126.126-1.89 188.556-3.44 2.465-97.16.411-107.14.263z"/><path d="M1308.77 676.331c14.55-.999 27.15 9.966 28.18 24.509s-9.91 27.173-24.45 28.232c-14.58 1.061-27.26-9.916-28.29-24.501s9.97-27.238 24.56-28.24"/><path fill="#fefefe" d="M1261.11 241.779c34.63-.324 75.05-.199 109.64.667.35 20.918-.3 43.72-.45 64.786a9265 9265 0 0 1-2.95 174.84l-.84 1.239c-6.51 1.059-31.65.553-39.31.444l-68.44-.853c2.74-77.596 1.78-162.877 2.35-241.123"/><path d="M1288.86 410.383c11.33 1.03 42.14-1.83 49.07 3.524 1.04 2.952.97 1.68-.38 5.072-3.01 1.886-2.25 1.283-6.3 1.456-10.5.097-46.16 2.516-51.6-4.518l.56-2.552c3.52-3.348 2.83-2.346 8.65-2.982"/><path fill="#fefefe" d="M1816.34 241.855c30.76 5.651 75.91 10.045 107.81 14.253l-27.52 240.033c-8.69-.124-21.35-2.177-30.36-2.979-25.28-2.253-51.41-6.501-76.58-8.524l15.42-142.483c2.84-27.872 6.19-73.894 11.23-100.3"/><path d="M1823.42 414.851c8.46-.303 44.39 2.723 50.12 7.98 1.31 3.887 1.09 2.281-.36 7.109-6.9.218-46.55-3.735-50.56-7.77-1.12-3.891-.74-2.716.8-7.319"/><path fill="#fefefe" d="M1642.09 525.873c35.79.901 71.6 1.293 107.4 1.175-.2 81.34-4.01 163.524-5.46 245.018-34.71.655-71.66-.278-106.52-.834z"/><path d="M1686.41 682.512c14.54-1.986 27.93 8.204 29.89 22.747s-8.25 27.916-22.8 29.852c-14.51 1.931-27.84-8.252-29.8-22.759-1.95-14.508 8.21-27.859 22.71-29.84"/><path fill="#fefefe" d="M1649.03 246.31c18.23-.55 36.53.233 54.77.459 18.01.223 35.98.077 53.98.689.08 7.35.12 15.374-.27 22.705-3.76 71.557-1.84 145.233-6.53 216.589l-107.79-.536c.36-31.426 1.85-62.952 2.64-94.393 1.2-48.22 1.15-97.402 3.2-145.513"/><path d="M1671.14 416.06c10.26-.165 41.46-2.305 48.42 2.801 1.35 3.49 1.11 2.089-.29 6.391-7.94 1.241-42.95 1.823-48.4-2.524-1.24-3.689-.96-2.33.27-6.668"/><path fill="#fefefe" d="M665.551 527.735c4.743 4.765 1.511 5.929 10.294 11.175-.953 27.571-.358 53.838-22.693 74.707-5.644 5.273-13.517 7.452-18.073 12.227-2.607 6.335 7.837 71.156 9.423 83.33-36.129.928-72.279.628-108.388-.898-13.76-.532-32.127-.561-45.437-2.275.187-8.586.102-17.175-.253-25.756-.971-24.24-1.602-46.045-1.625-70.353 16.763 18.687 20.051 37.45 43.902 9.819 14.095 23.751 19.584 11.552 32.032-5.708 11.095 17.963 20.357 16.996 35.17 2.477 26.022-25.509 48.055-56.898 65.648-88.745M1095.14 367.11l1.11 6.273c-.87 14.914.57 31.101-1.11 45.818.81 8.751-.26 35.908-.52 45.728l-1.99 80.409c-1.73 82.786-3.99 165.56-6.79 248.317-56.61 1.176-119.303.291-176.104.119l-52.713-.179c-10.266-.027-21.265.078-31.511-.825-2.085-.184-8.719-4.699-10.836-6.065-3.352-11.633-6.325-24.111-13.68-33.703l162.433-.766c31.571.02 63.181.379 94.741-.122 9.57-.153 17.87-1.385 18.74-12.838 1.23-16.185 1.53-32.502 2.11-48.733l3.13-71.128a12965 12965 0 0 1 11.06-221.242c-.39-7.626 1.14-23.106 1.93-31.063m407.94-201.216c37.12-.062 74.79 1.117 111.65.794 1.27 6.71.29 29.674.17 37.74-11.39.767-29.32-.144-41.51-.373l-69.67-1.049c-.78-11.931-.58-25.062-.64-37.112m-119.96-1.424c33.4-1.021 77.07.6 111.15 1.025-.05 6.64.27 33.45-2.37 37.598l-109.46-.89c.11-6.165-.51-33.628.68-37.733m-121.07-1.414c31.2 2.22 77.72.994 109.87 1.118.06 12.689-.2 25.377-.77 38.053-35.63.462-73.3-.28-109.12-.321-.18-12.868-.54-26.015.02-38.85m-133.07-.042c35.64-.017 74.56-.628 109.97.86.09 11.699-.76 25.759-1.07 37.684-4.41.421-10.56-.019-15.18-.116-31.34-.655-62.69-.518-94.03-.521zm521.6 5.005c32.64-1.37 77.71.441 110.46 1.427-.47 12.215-.84 24.208-2 36.392-3.62.432-7.44.286-11.09.317-32.7.278-65.39-1.083-98.09-1.126.1-12.096-.01-25.006.72-37.01m173.68-1.51c35.9 5.105 70.64 8.214 107.13 14.242l-3.55 34.679c-10.78-.613-26.98-3.241-38.03-4.685l-69.45-9.071q1.68-17.613 3.9-35.165M217.192 523.69c2.521 4.421 6.84 21.589 8.599 27.851l16.65 59.717c-4.062 10.577-8.683 21.649-12.987 32.145-8-.469-18.375-.276-26.566-.335 2.848-15.769 3.251-33.026 5.618-49.003 3.405-22.991 4.5-47.604 8.686-70.375M1503.14 214.775c11.78-.63 29.18-.049 41.19.055q35.205.358 70.41.303l-.23 18.645c-8.44 1.036-31.27.29-40.98.135l-70.55-1.129zm-4.45 280.312c34.48-.707 74.04.769 108.79 1.482.32 5.591.08 12.251.02 17.931-9.65.812-27.25.529-37.16.494-23.9-.118-47.79-.495-71.68-1.13zm150.7-279.252 109.42 1.328c-.59 7.247-.57 12.126-.44 19.312-29.36-2.049-79.23-1.487-109.27-1.491-.19-6.157.13-12.944.29-19.149m-6.84 280.338c35.8-.168 71.95 1.553 107.9 1.734l-.72 18.057c-6.24.538-12.35.635-18.61.444-29.15-.89-58.93.615-87.99-1.193zm-260.37-282.45c37.14.019 74.27.239 111.4.659-.55 5.133-.43 12.721-.5 18.06-32.86.418-78.65.591-110.92-1.386zm-3.93 280.994c36.34-.352 73.42.435 109.88.458-.08 6.38-.16 12.125-.66 18.514-15.82.514-33.67-.309-49.73-.414-19.59-.128-40.21.278-59.6-.817zm-254.94-2.549 109.79 1.165-.14 17.68c-9.24.385-22.49-.259-32.26-.267l-77.31.035zm695.5-279.33c10.1 2.136 27.64 3.877 38.44 5.23 23.32 2.969 46.66 5.814 70.01 8.534-.16 5.835-1.23 12.67-1.98 18.541-5.23-.981-10.73-1.76-16.02-2.37-30.57-3.524-61.68-9.27-92.33-11.417.41-6.03 1.23-12.474 1.88-18.518m-556.63-.362c34.25.197 74.7-.449 108.26 1.473.06 4.828.46 12.619-.52 17.057-21.55.915-44.06-.396-65.72-.084-13.91.2-28.69-.055-42.53-.882-.1-4.49-.72-13.702.51-17.564m-3.88 280.562c11.77 1.115 28.74.786 40.94.894l68.33.76c.09 5.62-.09 11.635-.16 17.288l-108.83-.077c.09-6.087-.16-12.733-.28-18.865m-129.78-281.171 109.31.184c-.08 6.093-.07 12.186.01 18.279l-109.43-1.046c-.24-5.171.05-12.114.11-17.417m659.67 282.815c36.03 5.511 72.05 7.56 107.21 12.683-.71 5.433-1.64 11.011-2.47 16.442a3551 3551 0 0 0-58.95-6.721c-14-1.418-34.14-2.937-47.37-5.563zM283.691 542.984c1.27 1.733-14.089 89.195-14.931 100.301-8.766.246-16.951.102-25.707-.074l-.34-.343c-1.623-5.963 35.572-88.812 40.978-99.884M95.718 557.678c7.821 5.573 57.423 73.833 66.005 85.401q-13.498.15-26.997.05c-13.311-23.307-28.959-60.36-39.008-85.451m83.053 29.953c3.12 2.385 14.309 29.045 16.74 34.616-1.636 6.614-1.85 14.179-2.298 21.039l-16.165-.242c-3.216-1.688-13.644-15.869-16.855-19.938 4.832-10.729 12.9-24.52 18.578-35.475m521.989-120.66.618.909c.556 14.176-4.542 42.066-12.88 53.998-2.543 3.638-4.564 4.152-8.74 4.705-1.821-7.162-2.463-10.582-3.225-17.925 8.031-12.482 17.692-28.524 24.227-41.687"/><path fill="#2d282f" d="M1095.14 367.11c-.33-4.332-.77-8.355-.5-12.695l1.69-.996-.99-2.135c2.89 4.387 1.55 16.693.91 22.099z"/></svg>