<svg xmlns="http://www.w3.org/2000/svg" preserveAspectRatio="xMidYMid meet" viewBox="0 0 2048 2048"><path d="M991.612 159.429c15.388-1.405 53.778-.533 69.948.06a761.8 761.8 0 0 1 419.87 146.6c210.31 155.012 344.81 392.109 369.98 652.158a694 694 0 0 1 .88 131.293c-1.32 14.68-2.83 29.34-4.52 43.98-2.48 22.84-3.52 25.38 4.1 47.98 8.24 24.42 14.68 52.82 18.77 78.21a733 733 0 0 0 13.53-39.17c16.68-53.65 29.81-110.77 53.52-161.54 1.92-4.11 19.55-3.51 17.98 10.55-6.2 55.29 14.69 125.89-33.34 167.54-5.69 4.94-14.45 9.51-20.55 13.88-5.28 14.6-10.52 30.09-16.58 44.34-7.39 17.35-14.97 34.01-21.72 51.67 18.25-6.83 81.29-45.16 95.42-45.07 2.82.02 5.37.79 7.42 2.8 2.42 2.38 3.46 5.78 3.31 9.12-.67 14.64-76.63 85.08-92.17 98.29-15.09 12.82-31.36 25.19-47.52 36.65-14 9.93-30.59 15.75-44.13 26.02-12.4 9.4-23.69 21.37-35.16 31.94 9.39-1.22 69.7-8 74.79-5.43 2.07 1.05 4.51 3.74 5.21 5.95.83 2.63.31 6.18-1.1 8.54-9.93 16.51-154.82 70.76-180.75 77.89-2.47 2.89-4.97 5.75-7.52 8.57-77.31 85.25-146.77 146.83-250.96 199.37-108.55 54.74-210.07 79.41-330.96 85.32-284.217 6.88-492.36-96.23-671.892-299.99-1.487-1.68-15.502-4.53-18.376-5.2-44.588-10.38-88.99-24.95-129.003-47.51-8.483-4.79-34.371-15.59-22.67-28.29 1.852-2 7.639-3.36 10.366-3.45 21.107 1.02 42.449 3.49 63.551 5.45-24.4-30.46-57.883-48.61-88.743-73.04a860 860 0 0 1-97.583-90.31c-6.366-6.92-20.213-19.22-24.25-27.09-1.383-2.7-1.818-5.87-.607-8.73 1.198-2.82 4.228-5.49 7.154-6.32 12.492-3.53 83.909 37.8 98.999 46.26-4.019-6.21-9.442-19.68-12.452-26.97-9.46-22.9-17.925-46.55-26.676-69.79-15.018-9.15-26.93-17.87-36.764-32.73-23.243-35.1-17.49-80.42-18.092-120.52-.152-10.14-2.928-22.3-.704-32.15.809-3.59 2.528-6.97 6.025-8.6 2.901-1.36 6.916-1.47 9.743.08 10.512 5.73 38.936 108.95 44.489 126.45 8.27 26.06 17.388 51.81 25.206 78.02 5.975-24.28 10.311-49.49 16.049-73.9 1.526-6.49 8.61-23.5 8.437-28.11-.956-25.63-5.008-51.51-6.582-77.37a819.6 819.6 0 0 1 7.884-181.18c26.64-168.415 112.539-345.252 226.077-472.19 150.652-168.431 338.457-257.033 562.666-270.331"/><path fill="#fefefe" d="M991.398 182.569q4.605-.31 9.222-.437c202.91-7.54 400.23 67.378 547 207.684 173.68 162.779 275.76 387.77 283.85 625.674 6.58 248.12-114.84 507.48-303.46 667.33a762.4 762.4 0 0 1-474.89 181.27c-217.377 2.96-404.878-59.43-565.783-207.6-163.538-150.59-260.505-370.17-270.75-591.02a812 812 0 0 1 20.645-220.995c33.809-143.264 113.171-294.231 211.669-403.019 141.576-156.367 330.873-249.358 542.497-258.887"/><path d="M1016.67 210.467c193.33-4.801 380.46 68.415 519.21 203.144a853 853 0 0 1 84.62 95.058c13.95 17.981 28.25 36.387 40.81 55.337a856.75 856.75 0 0 1 142.86 446.764c4.69 209.28-84.45 433.75-229.11 584.49a759.03 759.03 0 0 1-428.14 227.2c-40.21 6.37-74.39 8.32-114.65 9.18-198.408-1.21-382.098-63.88-528.277-200.68a822.8 822.8 0 0 1-208.223-315.28c-6.657-18.18-12.286-37.59-17.804-56.19a791.6 791.6 0 0 1-33.164-195.83c-3.362-103.241 7.653-185.017 40.201-283.556 84.164-254.803 283.356-471.547 546.325-542.856 64.497-17.489 118.416-24.71 185.342-26.781"/><path fill="#fefefe" d="M1473.68 642.717c1.97 3.03 2.15 15.139 2.46 19.366l3.65 47.749 13.57 173.604c6.74 8.967 22.25 24.768 30.53 33.831l69.54 75.176 170.67 187.437c-3.48 25.52-11.55 52.96-19.13 77.64a849.7 849.7 0 0 1-124.65 247.98c-11.3 15.6-24.48 31.58-36.56 46.72-11.7-26.98-22.77-59.85-33.74-88.01l-44.15-113.63c-12.29-31.35-39.41-104.99-66.45-123.02-68.28-45.54-156.25-79.27-235.18-99.35 52.44-58.64 67.23-120.88 86.57-194.014 1.51-5.699 30.47-45.599 36.25-53.917 10.14 2.228 32.9 11.542 38.8 1.74 1.24-12.362-11.86-21.947-18.47-32.517-3.83-6.124-6.42-10.034-10.1-16.639 47.11-60.632 88.86-129.208 136.39-190.146M657.828 812.97c.151.179-.716 44.284 1.65 53.531 13.271 51.85 36.739 89.738 32.498 145.699-4.244 56 20.91 102.81 61.501 140.38-31.781 12.74-102.703 51.7-126.781 74.23-45.937 42.97-76.8 148.99-92.98 206.58a841 841 0 0 0-10.547 41.72c-2.484 10.73-6.813 35.02-12.665 42.57-12.574 16.24-26.431 32.62-38.672 49.33-14.225-16.38-25.711-30.29-38.965-47.58-74.692-100.2-120.112-199.6-148.605-321.19l103.899-104.73L558.48 917.523c33.205-34.745 67.47-68.622 99.348-104.553"/><path fill="#323232" d="M774.566 1143.06c-47.884-47.3-61.227-72.72-60.923-141.65.078-17.702-1.747-38.236-5.621-55.489-13.139-47.202-35.918-84.55-26.724-135.951 7.786-43.535 29.403-69.271 52.405-105.172a375 375 0 0 0 25.58-47.104 429 429 0 0 0 20.035-51.205c9.418-30.273 13.931-51.973 28.041-81.208 36.737-76.12 99.844-106.018 182.108-106.695 38.633-.318 74.653 7.921 103.623 35.879 5.14 4.952 23.12 34.606 32.96 19.169 8.7-13.645-19.59-35.603-28.51-44.423 31.63-12.885 54.55-7.504 86.08 5.182 38.41 15.456 71.29 55.072 86.62 92.9a292.2 292.2 0 0 1 20.59 108.293c-.06 21.128-1.43 43.072-1.51 64.434-.05 12.655 2.84 47.417 1.16 57.622-3.7-8.405-8.19-19.647-12.43-27.544-.86-67.229-4.22-139.942-55.05-189.914-53.16-52.274-145.46-50.76-195.92 4.119-52.621 57.231-50.707 143.511-128.475 178.461-16.678 7.762-35.024 13.742-53.633 14.431a106.7 106.7 0 0 1-34.009-3.999c-11.647-3.352-22.578-8.361-33.604-13.271-6.557-2.921-16.244-6.714-22.248-.959-5.322 16.097 27.512 27.66 38.212 31.753-4.677 22.968-4.705 46.667 8.816 66.691 18.562 27.49 52.608 39.992 84.521 32.212 5.338 13.017 22.805 53.848 25.591 65.517 6.369 35.443-6.507 84.961-20.418 117.001-8.372 19.28-30.436 66.29-45.621 76.06-13.745 8.85-55.338 27.12-71.646 34.86"/><path fill="#fefefe" d="M1117.97 524.394c27.62-3.102 60.09 8.046 81.57 25.372 36.28 29.276 49.52 75.492 54.46 119.897a219 219 0 0 0-9.77-4.436c-21.53-8.927-50.96-7.411-72.53.678-6.43 2.411-11.15 8.621-7.64 15.452 18.28 13.012 48.2-21.102 91.9 15.487.89 89.864-13.11 190.813-66.47 265.664-32.03 44.912-84.99 52.602-136.08 40.332-44.87-11.601-85.714-37.297-110.252-77.577-18.206-29.885-26.259-65.129-42.287-95.922-6.814-11.257-19.999.933-26.99.908-45.279-.164-68.705-31.654-59.894-74.323 53.391 6.517 103.909-7.953 141.236-47.286 59.807-63.023 55.067-172.687 162.747-184.246"/><path d="M1066.59 668.427c9.42-.668 43.96-2.935 37.77 14.159-3.44 9.5-23.82 6.25-32.22 6.531-15.57.52-26.78 2.723-41.64 7.023-8.54 3.123-27.55 12.124-33.234 1.717 1.538-21.099 53.154-28.422 69.324-29.43m83.75 57.097c3.32.359 3.9.129 6.67 2.007 3.8 6.166 26.34 101.774 25.83 116.006-.05 1.448-.68 2.366-1.86 3.323-7.93 6.415-28.75 4.726-38.22 3.927-4.45-1.149-6.07-1.364-8.04-5.44 1.14-9.515 28.71-5.398 37.44-5.753-5.06-32.062-16.08-68.063-23.01-99.902-1.33-6.116-2.22-9.058 1.19-14.168M1166 894.145c3.59-.379 4.21.319 6.33 2.792l-.18 2.103c-11.29 14.092-65.01 13.993-82.2 11.632-4.62-1.16-6.66-1.867-9.35-6.166l.57-1.771c6-3.546 13.53-.461 20.3.083 22.24 1.782 43.29-2.805 64.53-8.673M830.173 766.858c15.747-.399 32.741 12.417 37.664 27.785 1.339 4.181.033 7.33-2.293 10.883-13.095-.588-10.825-10.759-18.675-18.151-5.351-5.04-12.716-7.793-18.421-13.512-.666-3.589-.17-2.913 1.725-7.005m371.817-56.969c18.02-.628 20.71 22.216 5.74 32.965-17.63-.834-19.23-21.823-5.74-32.965m-145.88 11.068c15.95 3.921 21.01 23.787 4.88 32.371-17.01-3.142-20.73-26.072-4.88-32.371"/><path fill="#fefefe" d="M1009.92 233.455c19.42-.904 41.78-.052 61.39.397-1.83 5.771-4.63 12.199-7.35 17.618-24.15 48.001-46.44 97.814-72.71 144.676q-5.358-.002-10.715.156c-107.475 2.678-172.49 55.245-208.23 155.263-6.685 17.381-10.085 35.371-15.725 53.076-14.726 46.226-40.401 88.644-69.02 127.505-7.549 10.251-18.296 19.806-26.637 29.447-21.747 25.139-44.594 49.196-67.501 73.256-10.046 10.143-22.586 22.211-31.595 32.949 1.662-15.8 1.787-37.322 2.387-53.539l3.671-89.262c4.558-110.664 7.892-227.34 15.338-337.278a742.46 742.46 0 0 1 356.344-148.84c23.245-3.014 46.953-4.244 70.353-5.424m104.48 952.395.62.07c1.86 1.64 3.23 21.84 3.75 26.16l25.68 225.1 44.02 354.37c-13.99 1.1-35.42 6.58-51.1 8.54-45.03 5.64-89.22 9.97-134.61 6.87l-2.59-.35c-3.62-5.88-9.688-86.11-11.029-100.52-4.483-48.15-12.802-97.62-17.353-145.58a17056 17056 0 0 1-28.597-364.43c6.298 2.01 12.61 3.98 18.934 5.9 55.515 16.76 101.725 10.96 152.275-16.13m10.78-947.075c7.76.273 28.58 4.329 36.97 5.825 81.91 14.594 161.38 46.534 232.44 89.538 19.84 12.004 41.66 25.316 59.58 40.077 5.96 72.339 10.12 144.411 17.05 216.693-5.61 7.455-11.71 14.725-17.45 22.11-40.63 52.264-78.04 107.532-118.85 159.569l-13.82 17.954c-5.09-19.145-9.58-41.577-9.89-61.049-1.21-74.958 11.93-147.1-22.91-217.793-23.81-48.324-60.23-88.074-112.89-105.623-39.57-13.19-61.04-8.77-97.03 9.063-20.05-10.751-35.92-15.348-58.29-17.558l69.56-105.185c11.48-17.205 25.12-36.072 35.53-53.621"/><path fill="#fefefe" d="M935.404 951.698c2.248 2.181 6.088 7.624 8.655 10.379 52.409 56.243 108.101 68.313 181.171 64.803-9.78 53.61-15.6 79.77-12.62 135.02-18.86 12.29-33.62 18.61-55.01 24.75-16.1 3.44-32.03 5.28-48.5 3.7-51.436-4.94-106.94-35.19-139.894-74.71 9.153-10.93 16.63-24.54 23.615-36.96 24.415-43.38 35.143-78.23 42.583-126.982M541.82 782.79c1.264 5.547-.091 26.437-.307 33.368l-2.586 74.441c-10.487 12.377-23.602 25.482-34.95 37.302l-63.363 65.837-91.856 95.612c-21.757 22.76-43.556 45.24-65.43 67.87-1.675 1.73-2.356 2.21-4.742 2.73-2.624-1.91-1.911-2.36-2.868-6.53-4.707-28.06-7.891-62.97-9.831-91.05 6.508-7.14 13.295-14.95 20.103-21.72 85.793-85.236 169.766-172.935 255.83-257.86m967.26 8.993c5.66 4.713 21.23 21.612 26.84 27.467l60.02 63.535 183.87 194.775c-2.27 22.64-4.62 45.58-8.54 67.99l-1.69 8.21c-84.32-91.08-167.89-189.399-254.35-278.169-.7-27.085-4.15-56.703-6.15-83.808m-231.03-61.685c4.24 7.897 8.73 19.139 12.43 27.544 12.12 46.232 17.13 69.701 46.65 109.063-11.8-2.952-20.63-6.954-31.31-12.666-5.3-2.835-15.64-9.604-21.41-9.372-4.03 5.882-4.7 31.823-6.57 41.07-17.7 87.501-34.08 168.503-96.39 236.973-16.94-3.45-30.5-4.45-47.89-9.24.28-20.07 11.02-73.26 15.44-93.57 84.99-31.027 113.3-157.53 124.54-236.955 2.48-17.525 2.79-35.302 4.51-52.847m215.74-138.21c19.98 15.819 48.96 50.09 67.37 69.347 49.3 51.57 96.81 104.906 147.67 155.065 18.8 18.54 35.46 39.237 55.66 56.724 5.27 18.235 11.01 50.433 10.56 69.548-9.16-11.622-24.94-27.61-35.48-38.664l-66.83-68.875-174.08-181.089c-1.04-17.28-5.25-46.164-4.87-62.056m-944.392.923c2.483 2.634-.637 51.387-.854 58.744-9.633 10.53-21.92 21.685-32.288 31.991l-69.182 68.864-173.113 175.993-1.109-1.356c3.211-24.746 7.24-42.867 12.866-67.176l166.283-167.452c33.04-33.692 63.548-66.271 97.397-99.608m928.492-200.859a917.3 917.3 0 0 1 187.39 221.918c8.44 13.832 27.68 47.286 32.86 62.226-16.9-17.784-34.5-38.559-51.33-56.933a7609 7609 0 0 0-102.4-107.923c-20.24-21.11-41.48-44.702-62.21-64.861-1.56-16.328-4.14-38.296-4.31-54.427m-919.981 15.965c2.269 3.355.283 37.547.452 45.482-52.229 51.557-103.086 104.526-154.692 156.711-11.623 11.753-23.832 24.098-34.705 36.51l-1.051-1.092c7.731-16.129 17.713-31.943 27.141-47.146a796 796 0 0 1 162.855-190.465M502.483 1568.85c.311 4.74-1.398 18.86-5.631 21.53l-3.885-1.99-2.668-2.1c-.101-5.51 8.177-13.05 12.184-17.44m1314.607-287.22c5.08 15.85-1.62 88.24-2.79 108.1-.25 4.26-21.8 39.96-25.98 46.49.03-3.74 4.02-23.84 4.79-30.18 1.75-13.8 3.37-27.62 4.87-41.45.76-7.41 2.01-25.49 3.69-31.88 4.34-16.46 10.41-34.64 15.42-51.08m-1584.89 9.1c3.487 3.87 5.245 18.39 7.522 23.8 16.299 38.67 17.898 76.26 22.964 117.86-3.5-2.47-24.063-36.82-24.45-40.4-3.465-32.13-6.942-68.96-6.036-101.26m-90.246 59.86c9.812 3.01 45.278 23.45 55.296 29.05 10.79 6.04 29.855 39.95 37.81 52.82-12.949-7.03-82.524-68.9-93.106-81.87m1766.076-.44.48 1.18c-3.75 5-14.13 14.07-19.04 18.69-20.56 19.32-43.33 39.37-66.44 55.64l-.34-.28c-.03-3.08 19.86-37.57 22.87-42.37 20.81-9.23 42.38-21.76 62.47-32.86m-139.44 57.73c-.82 19-8.57 27.44-5.38 53.21-16.13 18.23-34.4 31.79-52.15 48.54l-.59-.47c.66-2.44 11.38-18.72 13.38-22.05 15.66-26.01 30.04-52.68 44.74-79.23M209.694 1217.51c6.037 12.53 1.062 43.71.105 58.56a466.5 466.5 0 0 0 .562 63.23l-4.356-8.15c-2.551-4.62-10.78-18.96-10.874-22.97-.609-26.09 9.989-65 14.563-90.67m75.232 205.2c2.75 2.47 21.488 40.92 25.015 47.91 9.12 18.09 23.819 36.51 32.554 53.61-10.241-7.13-39.354-40.75-50.937-52.17-2.877-12.94-4.48-34.77-6.632-49.35m1551.004-210.08c.31.63.98 1.96 1.21 2.83 7.89 30.24 15.82 65.49 15.39 96.78-.02 1.6-5.73 13.84-6.55 15.6-.94 2.31-.87 2.22-2.5 4.1l-1.09-1.44c-.42-2.83-1.25-30.53-1.24-34.55.08-21.91-9.16-64.62-5.22-83.32m-1720.513-67.79c1.411 1.55 20.396 65.75 22.917 73.57-19.26-15.32-23.24-50.82-22.917-73.57m1816.953-.12c3.98 22.25-5 55.63-20.62 72.34-.38-3.29 18-63.63 20.62-72.34M289.702 1530.38c7.498.63 16.378.5 23.89-.01 5.492 5.42 11.601 10.38 17.524 15.35-8.437-.56-32.97-11.63-41.414-15.34m1467.878-2.84 1.22-.09c-1.25 1.44-32.08 12.69-36.48 14.37l-1.62.02.09-1.15c4.58-4.81 8.87-7.76 14.19-11.71 8.5-.12 14.13-.5 22.6-1.44"/></svg>