<svg xmlns="http://www.w3.org/2000/svg" preserveAspectRatio="xMidYMid meet" viewBox="0 0 2048 1152"><path d="M442.703 174.974c3.722-2.382 7.772-4.766 10.514-8.298 3.055-3.936 5.492-8.627 7.16-13.314 2.242-6.301 5.409-28.664 15.518-26.426 16.621 3.68 33.578 57.701 84.645 59.791 11.302.462 22.98-1.681 32.772-7.501 9.403-5.59 17.247-14.186 19.98-24.971 1.811-7.143 1.553-16.308-.682-23.333-2.378-7.471-11.643-17.32-3.125-23.763 14.319-3.964 73.285 43.252 130.409 23.915 8.505-2.88 18.488-8.069 22.915-16.329 5.162-9.631-.101-21.729 2.614-31.456 4.858-.09 3.281 4.204 9.506 3.947 35.913-1.485 71.611-2.493 107.548-3.205l2.954 2.556c1.123-1.215 1.603-1.827 3.005-2.782a3021 3021 0 0 1 142.374-1.239c11.66.081 23.33.088 35 .021 7.57-.036 12.86-1.637 19.68 1.957l.56-.203c9.62-3.382 17.94-1.198 28.05-1.492q50.46-1.017 100.92-.285c7.31.17 33.86 1.361 39.19.301-2.36 6.891-5.76 16.031-7.19 22.947 2.76 5.266 3.48 7.044 5.14 12.754 69.07 57.858 203.79 25.352 274.39-14.999 12.48-7.135 25.92-16.005 38.15-23.82-6.97 19.142-9.71 42.853-.69 61.604 7.32 15.226 24.36 29.781 40.47 35.079 42.43 13.95 82 9.211 121.91-9.594 31.85-15.01 32.29-26.062 50.33-51.942 27.04 64.609 75.91 95.286 139.28 120.56 2.25.895 20.82 8.54 20.92 10.221 1.46 23.714-3.13 48.425-4.14 72.415-5.24 5.796 2.44 22.072-.63 28.885-4.54 10.048 1.05 25.024-1.56 35.251-1.99-2.698-1.31-7.289-3-8.842-2.09 3.97 2.81 25.956 1.45 32.649-9.32 45.767-2.44 91.025-6.57 137.018-.3 3.296-1.87 7.15-4.9 8.82-2.44-.381-2.87-.618-4.35-2.662-17.19-23.865-46.03-228.235-52.55-269.238-2-12.536-4.12-25.534-6.65-37.961-1.77-8.717-4.44-17.288-5.3-26.158-8.55-4.162-23.44-17.629-26.23-18.185-3.36 3.926-.21 6.07.84 11.504 7.58 39.029 15.47 79.085 20.27 118.243-.1-.812-1.87 3.211-1.98 3.613l.65.738 1.4-1.511c4.84 4.789 8.86 58.932 9.76 68.875 2.32 25.882 9.37 51.266 9.44 77.408.18 3.225 2.59 4.878 2.84 8.036.15 1.888-2.8 3.479-2.58 4.606 1.49 7.646 7.43 26.855 7.19 34.309-.7 22.026 3.85 41.831 5.81 63.621 1.34 19.534 5.21 93.32-6.2 106.158-2.35.582-3 .708-5.24-.6-16.85-9.826-54.34-104.86-59.93-128.294-.57-2.348-.44-4.93-1.2-7.185-2.09-6.222-5.58-12.356-8.23-18.392-5.7-13.027-11.31-26.421-15.83-39.897-3.3-9.847-4.61-20.219-7.75-30.095l-41.72-129.139c-15.94-50.121-34.14-93.059-42.48-146.153-13.19 5.881-33.64 5.197-48.1 4.189 6.1 19.701 14.27 38.676 20.11 58.442 23.69 80.21 43.8 161.502 68.54 241.395 5.7 18.384 13.47 36.051 19.26 54.298 1.25 3.931.19 7.675.97 11.555 1.69 8.479 6.38 16.634 9.5 24.667.92 2.355-.48 5.298.71 7.254 8.11 13.317 64.1 198.652 65.2 215.346 3.17 1.189 4.01.84 5.4 3.275-.9 2.117-.92 2.011-2.64 3.611l28.77 112.712c5.32 21.203 12.7 45.684 14.22 67.486 19.68-2.046 44.91-8.63 62.09-9.764-16.7 7.723-69.5 17.302-89.97 21.402-34.14 6.85-71.44 11.16-105.93 15.9-85.86 11.9-172.1 20.94-258.56 27.09-17.65 1.31-35.89 1.66-53.66 2.74a4623 4623 0 0 0-91.08 6.57c-6.73.5-13.5-.54-20.23-.12-17.51 1.1-35.29 3.44-52.79 4.02-9.28.31-21.34-3.02-29.86.24-8.83 3.39-65.79 3.33-79.32 3.66-13.03.31-25.87 1.53-38.85 2.06-30.68 1.24-61.63 1.9-92.34 2.3q-29.469.165-58.94-.15c-20.361-.34-34.933-.06-55.506 1.12-6.453-4.59-16.229.01-24.531-1.18-3.494-.5-10.291-.07-14.123-.12-39.084-.57-78.189-1.12-117.27-1.83-177.11-7.47-354.546-19.76-528.914-53.33-23.516-4.53-83.097-13.56-98.455-35.527-.592-.847.311-13.166.784-15.903 1.375-7.955 1.647-17.959 4.272-25.595.094-.274 1.932-2.023 2.306-2.369-5.009-19.618 10.685-69.018 11.839-90.798 1.537.027 1.776.083 3.285.41l.106-1.355c-2.899-2.363-2.182-1.16-3.03-4.448.591-2.763 3.525-10.794 5.359-12.485l-.24-.422c-.401-3.706-.14-6.335 1.71-9.555-.072-9.518 19.612-77.579 25.879-89.335 1.45-2.72-1.746-.51-1.653-5.624a163 163 0 0 0 5.183-4.228c.675-19.167 16.606-54.19 24.565-72.539-.173.401-.422-5.932-.426-6.14 7.719-13.493 12.875-30.846 19.27-45.308 12.654-28.622 24.458-57.23 37.203-85.875a1281 1281 0 0 1 33.612-68.511c6.47-12.456 13.625-24.842 19.359-37.717 2.521-6.442 7.938-10.342 11.246-16.502 17.075-31.798 36.975-62.066 55.753-92.879 2.915-4.783 6.423-11.372 9.628-15.559l.768-1.175c6.963-12.175 16.785-27.837 25.343-38.763 2.408-3.075.337-5.798 3.886-8.723l.999 2.604 1.014-.008c.22-1.911-.022-2.589-.392-4.429 6.446-10.112 23.817-35.786 31.55-43.99-16.334 3.228-14.274 2.176-31.005-.767-2.245-.395-2.492-.701-4.46-2.132-6.2 1.41-16.118 20.908-19.79 26.687-16.753 26.368-137.311 216.875-156.485 221.494-2.473-1.169-2.178-.576-3.361-2.547 2.657-7.536 4.199-15.212 6.517-22.844l14.25-45.909c2.349-7.745 7.273-14.399 9.004-22.102.802-3.569 1.264-6.536 2.303-10.136a3279 3279 0 0 1 14.722-48.711c2.829-9.02 5.957-18.19 8.78-27.214 1.044-3.338.601-8.667 2.589-10.871l2.724 1.182.054-1.001c.566-9.259 40.512-129.324 44.886-132.905.234-.192.484-.364.726-.546 3.106 6.017-4.143 34.261-6.145 41.457 7.793-10.012 11.093-16.554 13.961-29.009 1.377-5.978 3.282-13.776 9.983-15.65 7.771 1.688 10.188 17.384 13.926 25.042 12.666 25.951 40.509 44.159 69.095 45.854"/><path fill="#fefefe" d="M1221.78 517.089c-1.49 11.341-66.08 62.478-61.77 76.765 3.31 3.778 2.93 2.05 7.32 3.686 13.53 5.032 33.24-10.701 42.95-18.264-5.92 7.219-11.3 13.232-17.68 19.897-8.16 8.538-47.61 39.148-41.88 52.511 10.13 9.752 44.8-12.039 54.75-17.392a118 118 0 0 0-2.99 3.476c-8.3 10.017-48.77 59.056-47.45 68.538.31 2.264 1.36 4.17 3.23 5.512 2.68 1.924 6.64 2.108 9.81 1.668 18.54-2.568 44.93-27.938 55.99-42.382 10.53 2.821 30.23-.864 41.91-1.988-10.58 7.843-19.75 18.921-29.24 28.148-4.99 4.857-13.23 12.6-11.66 20.116 1.72 2.791 4.83 3.631 7.83 4.557 17.38 5.36 77.49-23.662 93.99-32.449-7.1 10.58-18.29 22.214-23.44 33.927-3.64 8.283.24 11.801 7.77 14.558 29.51-8.34 56.73-29.306 80.83-47.723-2.98 6.687-11.62 24.923-10.23 31.286 8.95 40.894 58.36-31.531 65.22-40.553 2.24 13.24 8.73 46.198 24.45 49.306 18.23 3.602 17.5-39.46 18.65-51.794 8.73 14.265 15.61 22.491 29.59 31.723 32.46-4.82 6.66-33.577 7.88-47.107l1.74-.648c5.08 1.493 19.92 13.215 28.87 17.708-17.77 20.388-35.44 40.732-52.49 61.768-3.44 4.246-4.67 6.649-2.6 11.895 15.31 10.671 85.66-39.306 96.7-50.874-3.65 9.83-18.83 47.099.88 45.137 17.77-1.77 46.58-42.429 57.16-54.838-2.13 9.402-11.02 41.136 5.78 39.703 12.65-1.08 31.73-29.222 40.2-38.355 2.78 4.089-1.88 16.136 9.81 21.807 14.62 1.97 27.3-32.38 30.93-43.378 1.73 9.385 4.89 21.804 13.12 27.919 8.74 6.483 13.74-2.856 17.08-3.434 9.57 18.693 18.4 59.972 25.37 81.357 5.65 20.542 16.21 42.243 21.45 62.635 9.27 36.042 22.68 73.42 30.28 109.538-5.32-7.444-8.45-14.86-11.95-23.211-2.33 5.297-3.69 9.835-5.4 15.314l-1.52.714.33.415c-3.51-10.846-.57-19.626-6.85-36.908-2.07 5.695-4.75 20.155-7.98 24.45-1.76-2.558.31-11.077-.25-15.015-1.55-10.948-.35-34.535-3.13-44.131-1.49 3.229-2.15 7.186-2.64 10.716-3.66 26.221-9.78 51.766-14.94 77.705-2.14-13.407-3.28-65.713-15.33-71.581l-2.48.924c-10.52 10.745-16.99 47.292-21.68 62.372l-.97.166c-2.96-8.065-1.42-30.173-8.99-32.974-11.47 5.496-16.76 45.328-22.06 51.761l-1.45.07c-3.57-5.632-1.37-50.366-.91-59.186 1.96-2.533 10.4-4.591 14.09-6.07 27.34-10.982 47.35-25.604 59.68-52.651-34.53-6.44-51.54 13.731-69.66 38.523l-1.31.075c-.7-3.638.25-17.737.72-22.326 1.56-15.273-1.15-33.737-.29-48.348 5.46-6.568 31.61 1.904 17.21-30.309 9.65-.386 18.16-.596 26.09-6.979 4.91-3.957 9.22-11.467 3.26-16.616-6.36-5.485-14.62-4.368-22.34-3.924 28.72-22.86 13.24-46.141-18.07-20.042-.14-6.464-1.62-14.866-6.53-18.979-25.74-21.557-25.61 18.631-25.45 29.494-12.36-1.986-32.75-4.457-41.64 7.61-6 8.151 12.74 12.987 17.66 15.86-3.33 5.12-22.84 10.407-24.73 19.184-5.32 24.785 18.67 14.124 28.61 10.03l.99.584.33 8.501c11.03 15.998 27.11 3.895 34.59-8.556 1.3 18.916.57 44.956-.35 63.963a60 60 0 0 0-5.34-6.433c-10.84-11.528-25.56-15.926-41-16.261-6.7-.146-16.99 1.069-16.8 9.798 5.81 12.021 51.52 26.443 62.24 21.063.43 8.906-3.58 71.253-7.13 75.966-1.89-4.4-4.89-12.985-8.5-15.629-3.56-.003-2.83.308-6.29 2.838-7.48.042-7.16-47.711-17.89-58.279l-1.67.019c-3.07 6.923 5.92 32.807 7.99 41.538 5.02 21.157 7.09 35.082 5.48 56.706-2.35-8.886-7.37-42.011-15.5-44.848-5.99 3.812-9.59 44.562-10.9 53.823-7.06-22.936-14.68-55.828-27.41-75.253l-2.21-.118c-6.63 8.521-7.49 72.403-10.11 85.614-2.09-7.714-10.75-37.396-15.95-41.071l-1.41.249c-7.35 10.039-8.76 41.732-12.83 51.782-3.73-7.01-4.78-29.074-12.1-29.595-2.87 1.955-3.77 6.095-4.94 9.504a686 686 0 0 1-.16-29.739c10.82-3.219 40.5-17.834 40.39-30.47l-1.98-1.497c-9.3-1.506-31.2 11.65-38.85 17.054.31-7.046-1.01-28.993 1.18-33.528 9.95-2.156 12.01-5.44 17.55-13.069.32-3.75.88-13.172 1.9-16.307 28.07 20.734 61.96-4.265 17.01-23.428 9.74-1.308 31.22-3.379 35.55-13.856a8.1 8.1 0 0 0-.09-6.462c-7.88-17.852-41.03-7.222-54.02-.316a100 100 0 0 0 2.84-11.696c3.85-22.704-27.25-23.875-30.37 11.776-12.29-9.809-33.37-19.756-28.63 7.101-5.82-.158-37.85-.492-27.99 16.194 3.67 6.213 19.19 6.644 26.43 7.079-6.43 5.133-22.12 16.543-16.89 26.384 11.37 11.287 33.7-5.409 42.74-12.948-1.93 14.018 1.64 16.377 2.05 28.218.32 9.409-.13 22.241-.26 31.922-9.4-5.131-38.05-23.557-47.81-11.998-3.17 15.681 35.41 28.82 47.15 31.012.48 16.475 1.85 41.465.57 57.335-3.21-11.09-9.4-45.18-15.92-51.46l-1.77.21c-2.67 3.732-7.22 35-7.28 40.55l-1.15.16c-2.13-10.51-7.38-39.314-12.79-46.79l-1.63-.245c-6.65 5.21-21.17 62.835-21.98 72.855-.3-1.27-.6-2.54-.91-3.81-1.9-7.81-8.75-37.787-14.09-41.047l-2 .806c-4.65 6.408-7.52 25.791-9.17 34.391-1.72-9.45-7.67-31.91-12-40.246 5.85-5.385 16.28-14.086 20.25-20.458 6.22-10.001 26-48.047 13.48-56.465-18.72-2.628-35.83 37.296-41.07 51.108-5.47-14.473-9.87-26.051-16.31-39.993-3.2-6.933-15.54-31.489-16.76-36.482l1.18-.514c29.26 13.526 60.06-6.52 22.55-23.365 39.79-11.207 35.84-41.673-7.22-26.001 4.62-6.272 10.05-14.362 5.23-21.852-13.94-8.502-32.25 9.625-40.65 19.304-3.8-5.623-7.5-9.112-13.9-11.665-8.04-3.202-16.34.571-18.78 8.988-2.68 9.252 1.37 15.77 5.63 23.556-24.35 1.922-57.5 21.24-15.87 27.962-7.36 5.405-28.87 24.277-5.24 31.247 9.52 2.809 27.24-10.846 35.27-17.548-5.46 32.43 19.57 33.989 30.81 6.85 7.85 16.721 12.2 29.335 18.89 46.178-8.92-2.819-17.34-5.724-26.77-6.253-12.64-.71-49.53-.17-50.5 16.756 8.79 19.558 65.29 2.021 80.04-3.012 2.14 11.767 10.34 35.247 14.15 48.045-12.99-7.676-20.58-9.943-35.13-13.409-4.31 2.317-5.99 2.257-6.96 7.11 3.98 16.869 46.17 24.139 45.86 35.649-6.23 5.44-278.86 20.62-307.45 21.07l-119.5 1.27c-99.819 2.02-199.821 1.94-299.573-1.81-7.593-.29-15.518-.87-23.072-.92-71.754-.52-143.796-10.84-215.26-14.09 11.517-7.58 24.677-19.67 34.548-29.3 4.921-5.62 14.804-15.296 10.814-23.162-15.103-10.686-58.352 26.292-69.424 35.642 3.038-8.96 17.939-34.051 14.65-40.855l-2.114-.309c-12.426 6.009-31.01 33.894-38.845 45.784-1.627 2.47-3.14 2.8-5.528 3.04l-1.786-1.91c3.638-10.19 18.922-49.946 14.151-58.327-1.937-.709-2.681-1.222-4.914-.048-24.171 12.708-44.112 39.085-54.889 62.615 1.019-20.07 4.768-25.38 4.154-50.01 13.334-6.736 32.424-11.459 46.639-18.003 1.031-3.342 1.164-2.044-.305-4.89-9.953-7.027-20.251-6.577-32.06-4.897 9.769-12.556 17.424-21.668 29.369-32.509 2.481 10.191 10.854 34.888 28.53 20.528 5.218-4.238 4.267-14.534 3.688-21.057 16.877 6.951 29.403 4.056 23.636-17.383-3.754-3.277-6.142-5.163-10.228-8.002.402-6.08 15.188-14.296 3.429-24.224-8.419-7.108-16.191 1.454-24.329 2.355-3.181-4.817-10.153-29.705-22.929-17.511-5.028 4.799-5.358 11.488-5.074 18.173l-1.015.998c-2.807-.958-11.748-4.504-13.978-4.253-23.702 2.667-16.776 18.295-3.419 28.282-13.59 11.274-23.013 22.766-.413 30.508-11.24 8.516-17.045 18.482-24.628 30.018-3.464-7.536-11.321-26.222-19.348-29.572l-1.337 1.064c-1.775 9.956 10.597 37.078 10.924 48.766.108 3.858-12.026 15.686-15.351 19.394.518-6.493 4.06-30.319 1.658-34.214-10.259.69-25.501 37.429-30.905 42.329-4.671-4.94 10.1-58.306 2.259-63.14-9.83.085-20.657 22.155-24.84 29.762-1.461-2.064 5.156-22.726.356-28.168-9.623 1.665-20.392 35.971-23.884 39.361-1.491-2.925 1.365-38.605 1.59-44.862 10.875-3.81 49.49-15.376 41.898-31.715-9.763-8.22-27 1.41-35.935 7.091 4.589-12.424 10.393-24.69 15.198-37.199 3.197 1.21 9.475 3.452 12.591 3.881 11.329 1.558 62.57-10.925 70.27-16.468 1.161-3.674 1.265-2.335.236-5.44-27.613-20.717-50.201-6.889-76.417 7.022 6.375-15.608 25.83-49.06 36.927-60.827a69 69 0 0 0 1.315 2.654c4.14 8.068 10.785 16.195 21.376 9.856 7.247-4.338 8.414-11.325 10.192-19.033 14.663 12.909 34.858 27.062 33.163-5.74-6.569-11.682-7.608-13.063-19.323-18.825 48.89-13.4 20.297-52.438-20.295-26.736 11.595-53.969-31.393-51.739-29.579 3.337-6.164-6.058-11.795-11.593-18.877-17.186-10.423-8.232-29.03-9.456-23.877 9.535 2.169 7.994 7.757 13.119 15.123 17.033-11.437 1.69-23.063 5.334-29.425 16.168-6.236 10.62 4.832 21.774 15.263 22.365 2.308.131 9.303-1.929 11.196-.998 2.957 4.648-.254 6.536.255 12 .608 6.514 6.273 4.443 10.276 7.632.043-.275-31.949 57.793-34.368 62.428-1.322-9.744-.69-36.147-5.859-42.065l-2.209-.006c-10.037 7.348-5.898 57.632-6.033 68.807-.11 9.034-15.654 52.153-20.041 57.868-4.121-8.626 11.186-56.228.816-59.504-8.579 4.006-19.267 30.143-25.387 37.888l-.654.811c.619-3.315 4.31-29.833 4.613-30.26 6.612-9.319 29.875-40.257 26.455-52.69-7.306-4.151-18.464 14.065-22.028 19.138 3.939-15.524 5.01-33.413 8.978-49.555 13.26 7 25.693 1.283 17.137-15.693 11.141-2.262 31.75-8.075 10.009-17.96 6.426-10.713 9.049-23.56-8.175-26.746-6.716-1.242-12.024 3.461-16.93 7.745-13.92-2.192-7.69-7.265-15.61-11.539-14.277-7.704-18.376 7.545-16.611 18.021.306 1.819-13.71 6.025-17.008 11.438-.47 4.199-.735 2.564.793 6.31 4.539 4.421 9.594 4.013 15.779 4.283-12.922 23.491.334 28.579 19.638 14.678-1.774 18.004-7.125 44.826-10.188 63.376-6.249-8.18-10.908-26.469-17.902-29.133-9.299 6.66 11.443 49.102 14.982 57.376-1.53 10.636-4.396 25.921-6.854 36.241-2.631-10.884-2.718-36.983-8.278-45.311l-1.76-.283c-6.618 5.261-10.532 26.812-15.076 32.254-3.753-6.751-.256-66.678-10.058-76.355l-2.403.07c-2.564 2.68-17.744 64.581-20.699 73.198.936-27.619 3.144-55.601 1.289-83.059-6.87 9.845-12.617 25.243-18.258 36.227-2.897 5.641-6.06 19.854-9.12 23.31-.358-.604-.655-1.049-.733-1.765-1.84-16.87 27.791-127.216 34.266-148.308 5.725-18.647 12.632-36.849 19.067-55.255 1.989-5.689 3.73-15.883 7.2-20.486 7.411 10.809 12.893 74.409 41.216 28.019 5.36-8.78 10.42-17.35 14.534-26.838 6.638 10.848 16.883 40.443 32.139 43.216 18.138 3.296 25.487-34.96 32.112-39.851 8.233 5.525 8.903 22.954 21.558 26.112 10.072 2.513 38.95-28.182 48.869-34.721l.916-.597c-.716 7.661.043 16.915 1.652 24.478 7.179 33.732 41.307-15.159 52.466-18.235 5.027 5.373-1.998 58.022 38.476 28.002 9.079-6.735 18.145-13.725 26.645-21.23 5.594 13.476 19.262 37.226 37.266 29.346 12.12-5.306 16.395-20.284 20.678-31.745 14.841 17.446 27.856 28.748 51.982 27.601 5.949-8.545 5.7-12.555 5.089-23.02 9.538 8.818 14.513 10.922 26.826 13.836-8.584 50.72-32.109 95.582-11.885 144.623q-1.454.434-2.887.934c-5.5 1.939-10.391 6.145-12.793 11.469a15.56 15.56 0 0 0-.213 12.572c3.063 7.436 8.974 10.106 15.92 13.141-5.332 23.05-9.618 47.529-15.371 70.754-2.338 9.439-9.962 43.15-9.681 51.57 5.056 5.73 29.74 5.48 35.582 1.96 3.536-6.62 25.02-110.344 25.068-119.775 6.363.129 14.406-.034 20.502 1.292 5.151 8.587-19.43 110.473-13.608 119.823l3.239.69c6.047-3.18 7.682-28.304 8.814-35.737a4084 4084 0 0 0 8.894-58.133c.834-5.662 2.617-21.813 5.189-26.299 4.338-.91 11.804.093 16.468.495.195 38.224-.546 76.424-.674 114.604 0 0 1.789 2.36 1.968 2.59 6.694 1.92 19.001 1.48 26.141 1.15 2.964-.14 3.438-1.85 4.874-4.01 1.981-.43 17.272 1.68 21.09 1.99 1.952 2.24 4.405 4.76 6.461 6.98 19.114 3.93 41.241-.77 62.354-1.02 10.39-.11 62.008 5.27 61.069-13.86-.374-7.617-16.859-15.816-24.358-17.98-13.666-3.944-25.794-8.114-38.278-16.423 7.398-8.954 19.811-32.21 26.528-43.042 16.911-28.24 37.197-54.411 46.945-86.313 15.747-51.536-24.403-74.244-67.527-82.924-8.915-1.794-17.973-1.355-26.722-3.852-3.484-3.938-3.304-7.657-.289-11.775 6.855-3.526 22.177-.939 30.539-.821l93.775 1.947c-3.526 17.849-5.709 238.04-1.058 246.556 8.339 5.421 25.133 3.452 34.647 2.737 3.059-.229 5.55-.548 7.503-3.232 3.375-4.641 1.631-187.953.864-210.768-.376-11.205-.771-22.982-2.757-34.014 13.855-2.931 43.775 1.659 58.835.112 4.31-.443 5.17 19.217 6.25 23.481l45.79 185.608c1.65 6.755 9.31 42.283 11.77 45.703 7.26 2.96 13.26 1.75 20.67 2 32.79 1.08 18.3-17.322 13.41-36.819l-28.12-108.007c-8.64-32.784-18.96-81.635-30.48-111.731 5.35.103 11.72.8 17.13 1.25 3.18-17.008 2.67-35.453 6.04-52.768 11.3-58.128 17.63-119.603 29.95-177.322 12 3.68 22.87 6.697 35.26 8.73 2.53 3.824 4.85 7.55 9.96 7.715 11.22.364 24.26-10.337 32.15-17.529M776.669 95.21c21.797-1.17 52.636 1.017 74.919 1.507 2.61.444 8.405-1.779 10.488-1.42 25.058 5.071 54.072-.042 79.124 1.777 25.557 1.857 48.843.223 73.96.415l38.13.672c2.73.045 6.82.199 9.67.335l4.33-2.724c4.03.181 8.05 1.343 12.08 1.552 48.38 2.518 97.02-.462 145.42.499.88.017 10.73.418 10.82.64 3.92 9.847 3.06 22.766 10.79 31.024 37.7 38.476 121.05 37.896 170.81 29.277a368 368 0 0 0 71.41-20.473c16.26-6.625 31.39-13.349 45.9-23.139 2.62-1.767 6.11-4.643 8.97-4.624 4.35 10.476-2.43 25.904 11.78 46.738 19.24 28.218 42.26 33.906 74.34 40.302 2.18.435 18.2 53.411 18.14 54.343-5.05 5.975-18.55 7.524-28.86 13.2-7.53 3.269-42.3 21.9-43.67 29.265-2.28 12.255 71.16 11.728 80.29 10.549 2.87-.371 5.39 10.711 8.09 14.859-.08 3.892 1.15 9.396.21 11.471-6.27 2.627-16.3-4.031-23.79-5.154-31.41-4.706-61.45 22.217-86.4 39.254-13.89-15.889-33.45-51.387-42.65-70.664 10.04 8.364 44.07 39.7 54.44 19.973 1.03-9.154-17.32-25.228-23.64-33.187-28.69-36.12-40.98-78.418-56.11-120.969-.91-2.562-2.19-2.753-4.47-3.443-4.67 1.598-12.56 21.721-14.65 26.517-7.4 17.018-16.89 33.042-26.56 48.863-14.48 22.234-38.85 56.176-58.9 73.573q.06-2.039.09-4.079c.56-33.455-9.74-62.558-33.32-86.779a126.46 126.46 0 0 0-88.36-38.119c-49.15-.631-92.37 23.45-117.75 65.908-8.45 14.128-15.9 36.609-16.09 52.99-37.63 2.637-79.22 3.738-117.07 3.575-2.91-.013-.16-17.636-3.28-22.356-4.63-2.641-25.153-.719-31.68-.381-.76 8.826-.699 16.094-.545 24.936a4482 4482 0 0 0-109.884 5.041c-10.181.562-40.076 1.649-48.257 4.323-4.67 3.31-12.014 35.713-14.123 43.54-20.155-6.283-47.043-3.744-63.876 8.888-27.152 20.378-35.283 65.362-40.464 96.571-7.481-6.267-29.733-23.081-38.058-25.853-11.654-19.902-23.887-46.278-34.7-67.183 10.571 8.929 40.942 34.862 54.691 22.967 2.67-7.242-42.19-77.4-46.999-93.599l.687-.62c8.364 6.748 25.628 26.014 37.708 18.938 1.794-3.288 1.255-8.159-.52-11.213-21.387-36.805-46.179-70.312-54.15-113.407-1.789-9.674 1.776-9.279 5.999-15.32 10.522-15.052 8.643-30.554 5.849-47.556 6.297 1.127 16.414 6.248 23.015 9.289 33.435 15.403 86.06 21.122 114.933-6.183 10.551-9.977 10.942-20.199 10.439-33.798z"/><path d="M792.546 224.409c9.566-1.121 49.084 6.591 54.101 12.325l-1.524 1.607c-12.843 3.224-31.287-5.429-44.875-4.801-43.025 1.99-42.282 14.973-86.498 1.973-24.595-5.439-33.633.834-56.89 8.464 30.548-32.125 53.781-12.569 88.231-11.454 12.589.407 32.691-7.095 47.455-8.114m177.506-69.925c25.644-.736 37.538 10.254 70.388 7.728-32.1 13.736-41.849-.639-69.632.534-28.126 1.187-43.39 13.009-75.564 11.468-29.372.372-28.268-13.637-69.32-4.156 31.114-19.059 44.569-.912 75.558-2.414 23.803-1.153 42.548-11.817 68.57-13.16"/><path fill="#fefefe" d="M1119.4 376.569c4.38-.586 7.12-1.64 10.6 1.321.61 2.63-5.91 36.422-6.77 41.654a9281 9281 0 0 1-33.14 193.917c-4.72 27.154-13.25 65.948-15.97 92.17-11.18.839-27.45-.456-39.2-.405-37.186.163-74.678-1.249-111.859-.176 21.269-24.233 28.264-49.554 43.784-74.702 33.895-14.91 20.111-20.554 34.235-46.822-1.725-9.829-3.008-13.85-10.162-20.689 2.156-8.638 18.652-37.567 12.292-43.38-9.181 2.41-22.404 26.894-26.876 35.035-10.015 15.967-18.506 5.93-30.213 20.813-7.611 9.676-6.897 19.887-10.451 29.526-6.518 17.68-26.147 40.215-39.85 52.467a1563 1563 0 0 0-8.439-29.724c-11.363-37.234-26.81-61.584-55.818-87.486-8.525-7.613-20.261-17.126-30.311-22.466-2.199-11.167-3.292-21.967-4.369-33.251 24.22 1.814 23.065-7.981 31.402-26.267 3.665-8.041 16.644-2.477 11.365-17.083-.701-1.94-3.563-13.17-3.578-14.446-.248-21.572 15.262-21.509 1.531-43.534 85.822.292 172.477-5.417 258.417-5.621 7.54-.018 15.89-.201 23.38-.851"/><path fill="#fefefe" d="M802.574 527.415c59.467 51.496 64.098 60.518 85.513 137.216-12.153 11.22-27.405 25.331-43.389 30.487-7.134-10.439-32.452-58.901-37.463-61.803l-1.157.826c-1.093 10.834 10.326 30.927 15.448 41.222-3.385 32.416-8.835 57.215.428 90.261-45.782 3.854-80.345 5.901-126.522 3.029-5.936.013-35.156-2.219-39.816-4.274-1.606-8.353 14.374-65.381 15.493-79.61.713-9.066 4.311-23.819 3.588-35.571-.518-8.44.774-42.278-5.24-48.507l-1.56.763c-4.672 8.777-1.873 43.531-2.853 57.408a259 259 0 0 1-5.735 37.752c-16.253-52.397-13.802-85.451.511-137.815l.809.134c20.61 3.182 47.561.378 68.998 1.215 16.933-.682 34.951 1.585 51.647-1.239 19.636-3.321 21.096-15.916 21.3-31.494m445.666-340.959c75-2.699 130.89 51.057 122.42 127.238-13.19 13.062-29.16 19.596-42.53 31.799-2.48 2.265-3.37 4.288-3.25 7.424 5.48 5.831 30.25-1.74 37.9-3.787-12.37 23.828-31.05 39.551-53.01 53.989-12.1-24.493-15.84-57.42-22.72-83.871-.63-2.425-3.08-4.085-5.03-5.394-5.63 4.552-9.1 20.986-12.12 28.925-8.41 22.082-18.29 46.386-30.74 66.414-30.37-3.408-51.18-18.262-70.45-40.678 2.38-8.862 11.4-62.676 10.7-70.401-5.64-8.744-35.97.38-44.97-3.526-.96-4.66 1.63-11.031 2.91-15.739 7.12-26.247 20.77-48.415 42.39-65.097 22.27-17.196 40.78-22.962 68.5-27.296"/><path fill="#fefefe" d="m1164.75 305.625 1.36-.685 1.37 1.29c.61 2.927-8.87 55.023-9.99 61.774l-35.78 214.546c-6.49 38.265-16.31 85.314-20.18 123.607-4.82-.094-10.37.191-15.25.323 15.47-97.684 34.07-195.448 49.23-293.258 1.45-3.606 6.84-42.528 6.41-46.418-3.96-3.047-282.675 6.024-311.357 7.144-8.454-7.016-11.626-9.947-21.085-15.412 3.596-14.595 5.459-29.159 8.667-43.889 12.933 1.355 32.24.462 45.461.059q28.25-.916 56.509-1.509zM477.563 146.556c3.245 1.573 7.356 10.535 10.316 13.859 32.302 36.277 55.717 44.706 103.142 37.835-12.033 17.448-49.59 47.749-68.029 58.902-15.605 9.44-32.541 17.589-48.36 28.269 2.615 2.365 6.143 4.826 9.034 6.957 27.77-3.607 41.19-9.185 67.119-19.708 2.445-1.024 1.615-1.091 3.818-.56-2.408 5.82-40.464 40.354-48.028 47.452-34.378-18.505-55.139-21.071-94.478-18.845-9.691.548-10.509-2.371-17.937-9.111 19.505-27.451 35.322-60.112 53.284-88.718 1.383-2.203 8.452-18.98 8.848-19.3 13.519-10.915 16.706-20.789 21.271-37.032M1624.66 335.263c12.46-1.495 18.56-.107 29.36 4.884-24.14 18.499-53.29 41.276-74.97 62.791-1.79 1.779-4.15 7.032-5.22 9.507 26.79 11.577 48.74 4.995 74.45-1.53-10.67 13.729-23.32 24.214-38.04 33.334-6.11 3.787-14.4 9.228-19.99 13.966-.78 1.998-1.43 3.663-1.96 4.998 6.31 16.957 64.05 3.349 78.2 1.038-23.22 22.266-60.05 53.319-85.52 71.76-18.75-18.494-34.11-46.357-47-69.545 16.73 11.733 36.5 23.194 58.26 21.759 2.59-.17 4.53-1.174 6.1-3.231.85-4.318.11-6.476-3.06-9.691-9.33-9.435-19.69-18.42-29.04-27.8a403.8 403.8 0 0 1-55.42-70.122c13.06 10.401 44.55 30.961 61.76 24.041 6.82-8.055-9.11-22.098-14.41-27.702 18.34-14.974 43.74-31.924 66.5-38.457m-457.58 45.336c2.3 1.974 6.31 7.317 9.9 10.479 17.44 15.358 33.91 23.074 56.51 27.373-6.57 8.739-13.24 17.476-19.69 26.299-4.08 5.579-13.34 15.57-8.46 22.273 11.64 4.531 32.93-18.693 41-26.548-4.16 10.812-9.45 17.997-16.13 27.459-12.21 15.928-31.76 36.226-45.75 51.454-11.2-2.308-26.93-7.266-38.33-10.536a7070 7070 0 0 0 13.31-83.154c1.59-10.3 4.93-36.062 7.64-45.099"/><path fill="#fefefe" d="M416.54 307.872c24.826 3.023 57.709 1.65 80.526 17.869-19.34 13.195-38.353 22.265-57.737 34.909-3.089 2.015-6.898 5.027-7.469 8.799 6.688 22.525 68.94-8.663 81.309-13.359-17.931 19.407-60.128 53.078-81.236 69.163-6.801 5.563-17.204 12.169-24.694 17.222-6.183-8.033-18.666-30.283-24.187-39.607 7.82 3.402 49.156 17.192 52.303 7.273-3.587-10.144-20.178-27.596-27.042-37.276-10.441-14.727-24.278-31.822-33.274-47.252 10.941 5.831 73.318 21.911 75.396 5.798-3.624-8.46-17.132-11.113-24.504-16.426-3.259-2.349-6.269-4.588-9.391-7.113m540.797 437.124c10.006.583 19.744.55 29.801 1.12.362 2.601-.587 19.876-.703 23.538l-1.573 56.054c-1.277 38.442.311 77.917-.677 116.472-.215 8.378-.818 18.138-.659 26.371.329 4.034.104 8.329-.012 12.397-4.963.335-12.183 1.955-16.905.683-1.147-.074-2.311-1.907-2.393-3.039-1.784-24.722-.784-53.567-2.116-77.85-1.45-26.449 4.405-136.978-4.763-155.746m5.603-173.078 1.565.371.523 1.649c-1.397 6.721-10.111 9.897-9.657 15.369 7.339 1.639 11.857.05 20.996 2.071 3.392-4.153 11.01-16.977 14.648-17.668 4.49 7.865-5.377 14.626-8.738 20.669-1.348 2.423 3.517 7.745 2.641 10.514-2.87 9.064-18.798 15.124-26.984 19.983-16.162 32.649-33.744 67.829-59.887 93.624-13.065 13.785-23.321 20.572-37.612 1.687-3.912-5.171-7.763-10.012-10.976-15.745 31.616-11.269 76.978-59.675 93.215-89.781 2.974-5.512 5.678-25.103 8.049-33.325 4.101-4.092 7.479-6.204 12.217-9.418M820.032 926.892q23.358.704 46.682 2.174c-5.343 9.352-20.933 31.712-22.949 39.878-5.833 23.628 50.412 26.271 57.529 37.096-1.652 3.1-2.62 2.74-6.391 4.54-15.401.88-31.686-.15-48.686-.52-9.169-1.36-50.764 8.51-53.61-2.78-4.061-16.107 22.476-65.627 27.425-80.388M359.329 132.679c1.404 1.334 3.211 5.262 4.255 7.157 8.691 15.761 23.203 32.547 41.543 37.215-14.707 19.782-31.834 43.271-44.996 63.732-2.186 3.268-3.505 5.802-5.32 9.292-9.319-12.336-25.146-41.502-33.871-50.191 3.057-7.988 11.091-31.347 11.388-38.51 15.792-5.913 21.613-12.839 27.001-28.695m710.921 613.894c2.33.595 10.33.256 13.16.212.34 16.859 16.4 72.745 21.13 91.256l35.64 142.602c.95 3.775 3.19 5.37 2.42 8.651-2.98 1.43-3.49.724-7.25.252-1.5-.132-11.25 1.016-11.69-1.209-2.24-11.354-5.06-22.555-7.85-33.778l-29.19-118.567c-6.52-26.207-14.99-62.316-24.21-87.775 2.63-1.845 4.2-1.353 7.84-1.644M648.89 862.224c11.764-.839 32.412 2.449 45.111 2.875 31.862.884 63.748.302 95.557-1.744 10.859 8.544 12.185 16.81-.302 24.382-22.657 1.684-124.138.559-143.108-5.58-3.678-1.191-6.745-2.838-8.496-6.46-.663-1.37-.399-3.672.165-5.037 2.061-4.987 6.481-6.499 11.073-8.436m268.2-147.51c5.138 2.625 38.238 1.924 46.588 1.997 30.11.065 60.222.336 90.322.815 7.36.065 31.02-.319 36.2 1.18.61 2.289-.49 14.385-.71 17.533-5.87.063-12.12-.238-18.02-.419-4.87.179-10.58.21-15.44-.109-51.41-3.38-106.678 1.24-157.742-2.975 6.4-5.725 12.648-11.999 18.802-18.022m859.53-577.684c1.68 9.038 10.97 21.419 16.33 28.919-18.39 15.924-35.52 31.322-56.53 43.769-8.66 5.129-16.05 11.696-25.06 16.266-2.8 1.372-4.78 2.78-7.75 2.386-3.45-10.148-5.32-22.598-7.62-33.083-.68-3.089 4.13-3.817 6.6-4.506 9.18-2.564 17.86-7.546 26.45-11.041 16.26-6.619 28.28-14.761 38.07-29.683 2.95-4.234 5.9-9.51 9.51-13.027M1648.5 572.924c1.5-.022 1.02.007 2.53.679-.58 3.724-56.21 66.615-62.84 73.727-13.78-10.803-21.04-16.132-30.81-30.683-3.92-7.152-7.13-13.144-10.51-20.555 9.4 5.932 26.56 18.104 36.89 10.474 1.98-11.459-11.26-17.642-11.58-22.895 4.45-1.726 20.42 1.951 28.68 1.145 17.14-1.671 31.65-5.51 47.64-11.892M653.955 892.378c6.381 2.297 11.549 1.945 17.348 4.342-.541 8.129-6.1 33.323-8.142 42.79-4.437 20.574-8.71 48.455-14.826 68.05-6.421.85-12.17.53-18.619.36 4.319-33.849 18.804-79.698 24.239-115.542m84.795 5.843c5.975.313 15.567-.169 21.809-.301-1.496 20.334 1.421 41.313.455 61.535-.593 12.44-12.454 34.916-5.213 47.055-2.787 1.21-14.261.57-17.222-.69-1.243-8.056.086-22.135.041-30.708-.126-24.07 2.326-53.322.13-76.891m678.36-580.147.66 1.015c-12.22 22.033-75.9 96.499-96.04 106.456l-1.92-.993-6.91-13.593c29.48-17.475 48.22-35.135 61.54-66.937 13.82-7.321 30.05-16.903 42.67-25.948m-600.321 89.845c5.15 6.969 10.273 1.393 14.046 7.832.05 3.863.536 2.507-1.535 5.312-4.061 1.883-11.389 1.522-16.768 2.264l-.9 1.387c4.255 7.073 10.972 4.977 17.634 3.626 1.274 5.632 3.605 10.235 3.139 16.105-2.758 4.32-2.287-.82-8.555 3.112-2.245 3.026-1.86 8.823-2.737 13.641-4.183 13.33-11.695 16.292-24.677 14.589-.443-17.932-.098-34.813.297-52.756 5.204-4.657 14.317-10.983 20.056-15.112m-32.82 516.779c6.423 1.988 19.129 1.665 26.398 1.76-5.609 12.779-25.676 56.948-27.107 67.868l-.929 1.968c-3.533 1.176-15.762.043-20.097-.21 3.45-17.937 14.122-54.454 21.735-71.386M619.907 437.882c9.467 3.594 33.454 29.447 45.145 22.322 1.196-2.785-.562-10.109-1.135-13.56 10.275 7.693 20.043 16.222 30.1 24.257-1.275 3.94-2.886 7.835-4.417 11.69-3.913 6.89-12.233 13.86-18.176 19.286-11.776-11.421-44.155-50.5-51.517-63.995m747.833 1.948 1.15 1.257q-.33.647-.69 1.279c-5.28 9.455-44.52 60.425-54.2 63.224-1.18-1.387-1.35-6.21-1.58-8.334.35-1.918-1.01-3.86.42-7.884 2.77-2.061 8.44-1.584 15.39-4.192 5.78-11.685 1.5-13.925-5.62-23.599 16.89-5.24 30.35-12.324 45.13-21.751m-76.48 189.234 1.15.256c-.22 2.602-12.59 16.839-15.64 21.454-8.56 1.98-27.13 4.264-35.95 4.635-.89-.374-.81-.541-1.54-1.391 1.75-4.66 6.41-11.416 9.21-15.818 16.25-1.579 27.48-3.572 42.77-9.136M405.8 749.1c5.815-.426 12.859-1.139 16.106 4.468.193 9.342-13.971 12.89-20.8 14.328-6.829.803-13.03.942-19.882 1.164 4.827-12.33 12.395-16.104 24.576-19.96m907.78-190.93.07.889c-5.61 11.815-34.37 32.901-45.84 41.024-.36-1.936 10.65-24.821 12.47-30.354 12.11-3.265 22.11-5.876 33.3-11.559M330.124 769.117c7.516-.467 9.047.657 15.905 3.545-8.572 7.217-14.172 11.696-24.036 16.94-4.816 1.215-12.914 1.509-15.886-3.099.331-10.312 16.086-15.08 24.017-17.386m45.01-50.506c7.182 8.43 5.689 32.649-2.046 38.292l-4.588-.833-3.531-.841c-3.937-8.919-.827-32.297 10.165-36.618M1689.7 781.109c2.97-.22 5.91-.871 8.31.547l-.01 2.008c-4.87 7.704-22.17 17.303-30.43 21.408-3.1 1.2-5.27 1.616-8.37.261l1.68.95-1.94-1.448c.03-12.308 21.17-20.446 30.76-23.726m-1306.946-4.216c13.319-.836 19.375 4.432 29.846 11.886 3.09 7.062 4.834 9.389 2.886 16.554l-1.965.519c-6.384-1.933-29.773-21.365-30.767-28.959m1069.356 61.104c4.23-.549 9.05-.734 11.36 3.299-2.16 7.232-24.49 13.53-31.57 15.506a79 79 0 0 1-3.59.288c-3.35.164-4.61-.086-6.89-2.116l.41-2.324c5.9-6.674 21.63-11.628 30.28-14.653m-625.806-122.81c5.789-.425 12.692-.09 18.575.037 3.118 4.695 11.878 14.143 13.174 16.778-4.211 1.26-25.51.488-29.483-1.157-2.418-2.934-2.053-11.178-2.266-15.658m789.146 124.619c5.65-.855 16.32-1.208 21.42 1.641 1.38 7.609-20.57 10.599-25.65 11.515-4.83.847-13.24 3.702-15.81-1.171 2.72-6.628 13.7-9.819 20.04-11.985m-189.95 24.159c6.95 1.508 29.73 5.857 26.17 15.534-3.26 2.487-1.69 1.846-6.34 1.981-9.61-3.079-15.43.359-29.35-8.075 3.45-3.878 5.63-6.001 9.52-9.44m-45.57-35.979c13.96-.569 19.12 14.181 17.26 25.957-3.7.404-6.44 1.073-9.63-1.224-8.85-6.366-14.54-14.559-7.63-24.733m3.86 51.012c1.68.106 2.63 1.062 4.04 2.074 1.19 8.611-21.8 21.031-29.61 22.913-2.98-.286-1.82.113-4.38-1.688-.09-8.953 22.13-20.825 29.95-23.299m22.39 1.359c1.48.18 2.62.836 3.98 1.465 7.91 9.086-.66 23.791-6.93 31.412l-4.22-.637c-5.52-7.374.63-26.442 7.17-32.24m115.85-25.039c6.57-.216 30.33 1.109 31.65 7.782-2.95 2.218-6.58 1.982-10.45 2.283-6.43 1.841-27.84 1.029-31.77-5.285l.53-1.952c2.74-2.538 6.23-2.422 10.04-2.828m-90.12-37.565c2.55 2.378 1.85 1.135 2.46 4.818-3.02 10.698-16.82 21.714-25.8 28.113-1.34-.203-1.87-.692-3.03-1.416l-.21-2.65c3.62-10.097 17.06-23.906 26.58-28.865m282.89-91.459c10.26 4.735 12.67 26.542 4.99 31.895l-.5.055c-3.3.347-5.89.662-7.26-2.853-3.15-8.05-3.25-22.768 2.77-29.097m-120.29 137.979c8.12 4.503 27.1 8.049 27.95 17.976l-2.54 2.453c-10.88 1.538-22.53-3.458-27.56-13.88-1.12-2.318.92-4.569 2.15-6.549m-14.15 12.543.72-.124c3.53 4.615 4.02 19.373.57 24.495-2.11 3.128-4.29 3.606-7.6 4.411-3.51-5.501-6.59-22.215-3.16-27.76 3.93.057 5.65-.021 9.47-1.022m123.49-88.005c3.26.342 4.33.268 6.97 2.294 4.07 7.722-6.84 19.708-12.14 24.34-2.68 1.042-4.65.547-6.81-.893-2.37-8.684 6.92-19.365 11.98-25.741m-150.5 83.044c3.56.132 3.06-.412 5.64 1.244l-.25 2.439c-5.09 7.699-17.06 14.575-25.31 18.721-4.13-.221-3.63.427-6.5-1.696l-.01-2.392c4.84-9.047 17.5-14.307 26.43-18.316m-184.55-10.673c5.88-.611 10.28.335 16.07 1.235-.9 2.767-1.49 4.282-2.71 6.92-4.38 3.623-9.48 3.755-15.17 4.368-4.76-.155-14.25.821-15.14-4.776 3.66-5.082 10.89-6.136 16.95-7.747M347.542 784.307c2.997 2.596 6.653 5.263 9.843 7.701-4.656 6.011-8.06 10.066-14.231 14.547-4.315 1.334-5.985 2.601-9.324-.885-1.848-8.285 7.296-17.342 13.712-21.363m1234.068 35.091c2.52.265 2.59.294 4.58 1.965 3.97 9.456-3 22.733-12.28 26.909-10.67-2.982 2.68-24.078 7.7-28.874M376.458 787.1c1.58.333 4.016 2.88 4.602 4.334 3.654 9.075 1.229 16.685-6.416 21.533-3.817-2.978-5.448-6.198-7.948-10.287-.158-3.522-.513-6.277.531-9.651 1.77-3.037 5.912-4.4 9.231-5.929m-56.152-49.496c8.954.523 29.81 16.389 29.954 23.854-11.124 1.716-29.679-10.162-29.954-23.854m1429.574 33.604c4.14-.377 9.84-1.155 13.16 1.202 1.81 3.158 1.6 1.758.83 5.228-3.31 4.153-7.14 5.1-12.18 5.863-5.65.547-15.49 2.709-15.38-5.225 3.57-5.285 7.54-5.775 13.57-7.068m.65-31.28c3.33-.236 3.26-.755 5.95.684l.51 2.256c-1.87 7.282-13.58 17.179-19.46 22.081-3.48.285-2.36.706-4.75-1.037-1.9-8.035 11.66-19.974 17.75-23.984M457.883 914.059c7.733 3.525 12.092 20.367-1.291 23.499-6.381-6.451-7.303-9.196-10.214-17.6a306 306 0 0 0 11.505-5.899M360.226 765.51c6.89-.752 13.904.517 13.676 9.039-1.844 3.734-2.532 4.215-5.579 6.949-14.968 2.718-22.455-10.601-8.097-15.988m1324.484-5.203c5.33 1.336 16.79-.852 18.21 7.382-5.11 5.023-8.99 4.012-15.54 3.45-5.61-.969-14.78-1.613-18.08-5.812 2.65-3.659 11.05-4.41 15.41-5.02m42.63 28.32c6.52 3.021 10.34 9.432 9.88 16.697-.29 4.631-2.07 5.307-5.21 8.151-9.58-1.292-9.62-11.641-9.26-19.703.12-2.713 2.51-3.689 4.59-5.145m-150.16 65.84c5.38.614 8.5.667 9.07 6.49-2.74 5.656-6.56 6.656-12.21 8.853-4.53-.803-6.99-1.062-9.22-5.553.11-7.973 5.91-8.927 12.36-9.79M367.898 494.277c8.3 2.988 16.248 5.339 24.708 7.852l-6.851 6.819c-3.27 2.363-6.205 5.014-9.247 7.662-3.365-6.912-6.044-15.045-8.61-22.333m46.905 385.492c6.357.01 22.254 1.831 24.453 8.776l-2.623 1.894c-11.016 7.135-22.213 2.898-21.83-10.67m354.363 18.5 13.85-.342c-3.255 9.92-7.052 19.939-10.646 29.763l-.848 2.262-1.057-.689c-1.184-8.346-1.092-22.138-1.299-30.994m640.554-38.932 1.69-.164c2.57 2.531 1.83 1.27 2.75 4.812-1.82 5.679-9.74 8.957-15.01 11.781-3.89-.766-4.79-.975-7.23-3.947-.67-7.919 11.4-11.852 17.8-12.482m309.91-94.67c12.11 2.29 8.29 14.056-1.36 19.148-4.04-1.59-5.38-1.935-7.99-5.573-1.58-7.786 3.27-10.151 9.35-13.575M476.532 876.877c4.56-.317 5.955-.608 7.317 3.584-1.399 6.565-9.265 11.025-15.172 12.849-3.281.358-5.352.799-8.082-1.019l-.142-2.062c3.465-5.855 10.358-9.757 16.079-13.352m506.384-590.501c4.449.032 9.466-.292 13.956-.479.417 5.127.62 8.491.478 13.614l-1.532.865c-4.198.928-6.694 1.204-10.933.705-5.514-3.542-3.884-8.854-1.969-14.705M633.867 508.678c8.124 3.036 16.241 8.991 25.423 8.513.65 1.754-3.083 9.081-4.126 11.496l-1.149 2.325c-4.876-1.357-17.162-17.654-20.148-22.334m-194.929 388.78c4.017.054 14.934 1.272 18.441 3.591l.293 1.813-3.284 3.469q-1.201.737-2.42 1.445c-5.341 3.054-13.062 4.848-15.984-2.144-.07-3.728 1.065-5.049 2.954-8.174m8.231-35.082c10.923 4.169 8.683 18.649 3.925 26.814l-1.533-.697c-5.675-5.734-6.319-18.907-2.392-26.117m-5.311-406.219a726 726 0 0 1 18.28-10.219c-4.984 4.816-8.45 8.233-14.053 12.401-5.825 5.613-10.985 9.074-17.59 13.739-2.415-2.453-4.246-3.809-3.952-7.183 3.021-3.409 12.336-6.531 17.315-8.738m28.581 446.094c7.011-.735 16.176 1.019 18.002 9.048-1.217 2.381-1.535 2.385-4.015 3.701-5.108-1.765-17.028-4.325-18.996-9.244 1.944-2.753 1.456-1.93 5.009-3.505m1070.851-64.58c7.97.722 20.85 7.765 20.26 17.133-7.16 1.213-23.05-7.02-20.26-17.133M425.412 906.855c5.293-.276 6.588 3.428 6.544 8.163-1.799 2.793-7.674 4.5-11.111 5.849-3.612.211-4.931.559-7.409-2.043.543-6.367 6.003-10.584 11.976-11.969M276.063 778.716c3.872.06 5.773.191 7.148 3.873-1.321 5.322-5.444 7.806-9.798 10.537-2.432-.142-3.56-.722-5.872-1.571-4.159-5.995 3.93-9.843 8.522-12.839m-23.829 27.629c7.89 1.221 13.748 13.546 17.1 20.037-9.17-.13-18.545-11.893-17.1-20.037m-1.838-21.91c2.616.002 3.225.469 5.696 1.537 4.123 5.342.82 8.446-3.323 12.316-1.386-.076-2.793-.541-4.167-.894-5.041-4.801-2.097-8.455 1.794-12.959M1857.17 973.627l1.19.986c1.7 5.197 7.21 19.528 7.4 23.772-2.82.375-3.37.453-6.17.01-3.77-4.51-2.26-17.522-2.42-24.768M239.863 772.444c3.8 1.905 3.296 1.013 5.453 4.233.499 3.509-1.669 6.631-3.362 9.837-4.257-1.891-5.171-2.226-6.624-5.933.318-3.212 2.551-5.55 4.533-8.137m2.465 31.891c2.715 1.024 1.832.267 3.334 2.671-.962 5.479-6.048 9.942-9.927 14.009l-1.528-.115-1.068-1.38c1.1-4.28 5.791-12.243 9.189-15.185m586.805-114.647c3.12 3.023 6.299 10.136 8.334 14.238-4.79.116-5.404.911-8.952-1.13-1.713-3.133-.049-9.294.618-13.108m-593.105 102.37c2.821 1.829 2.335.924 3.273 3.57-2.977 3.787-8.621 3.808-13.006 3.526l-2.238-.474.156-1.46c3.178-2.623 7.833-3.833 11.815-5.162m27.004 7.971c4.122.091 16.591 3.054 18.694 6.43-8.497.188-14.389 1.977-18.694-6.43m568.763-402.308c2.146.36 1.12-.067 2.894 1.836l-.835 2.654c-4.411 3.867-2.516 2.819-8.903 3.557l-1.502-1.072c1.253-2.605 5.716-5.172 8.346-6.975"/><path d="m277.791 111.908.797 1.579c-3.746 25.97-12.335 52.184-18.671 77.613-8.612 34.561-22.971 67.004-35.967 100.09l-36.719 93.659-2.694.826c.128 6.899.034 8.528-4.886 13.839-4.159 4.863-2.419 11.359-5.122 17.572-18.105 41.625-31.859 82.533-51.77 123.626-2.309 1.574-1.194 1.26-4.408.769-7.262-6.718-2.301-46.846-2.811-57.9-.538-11.665-.161-24.357-.117-36.101.005-1.249 2.026-4.8 2.745-6.001-.521-1.224-.958-2.506-1.52-3.709-3.323-7.109-.973-33.364-1.221-42.863 3.87-1.206-.507-17.332-.1-22.94 3.621-49.858.008-100.67 4.171-150.31 5.077 21.563 6.154 38.003 8.269 60.097-.253 17.993 2.512 32.23 1.016 51.1 21.194-14.57 68.412-43.201 85.413-62.967-11.678.14-73.687 13.654-71.622-4.115 6.188-9.606 79.924-45.885 96.72-57.521 4.097-8.331 7.31-18.639 11.182-27.624a73 73 0 0 1-1.86-.282c-16.288-2.637-24.558-9.17-33.564-21.844-4.653 8.305-5.939 12.016-11.865 20.341-15.754 22.125-42.788 35.185-68.539 41.564-4.062 1.006-12.563 1.326-15.058 3.728l-4.421-2.875c.876-1.73 15.186-6.066 18.609-7.421 24.664-9.761 50.534-26.327 64.39-49.577 5.086-8.535 7.655-32.446 12.684-36.051 8.218-1.47 8.026 13.777 10.958 19.367 3.756 7.159 9.658 12.458 16.478 16.656 4.122 2.537 9.598 4.152 14.376 2.869 5.395-1.448 20.304-47.055 25.127-55.194"/></svg>