<svg xmlns="http://www.w3.org/2000/svg" preserveAspectRatio="xMidYMid meet" viewBox="0 0 2048 1462"><path d="M0 0h2048v1462H0z"/><path fill="#fefefe" d="M0 0h2048v1164.92c-51.56 2.2-106.3 5.47-157.61 6.24-3.34-19.08-4.59-58.89-5.97-80.14a5967 5967 0 0 1-8.71-149.448c2.81-2.82 5.44-5.529 5.75-9.64 2.9-38.292-5.44-81.439-4.46-119.374 40.01-9.176 37.75-12.242 34.46-52.249 9.23-.571 32.43-2.322 41.34-4.219.84-15.123-.3-31.403-.57-46.731-.47-29.636-.78-59.275-.94-88.914-.05-35.778-.13-71.734.38-107.499 1.33-93.801-3.7-187.476-6.49-281.2-.63-26.291-.85-52.59-.67-78.887.03-14.41 1.03-41.702-1.64-54.366-5.78-4.764-18.42-3.615-25.77-3.58-47.49.223-94.52 3.068-141.89 5.972-72.89 4.467-146.09 3.679-219.03 5.451l-163.12 4.077c-25.53.626-50.98 1.831-76.54 1.899-76.57.204-158.04-7.108-233.72.132-4.39.42-14 .816-16.78 4.39-2.37 3.04-1.09 60.302-.97 69.035.61 45.807 3.85 91.593 4.9 137.394l6.15 311.117 1.92 92.167c.27 16.913.18 60.152 4.02 75.274 5.25 3.998 59.13-2.038 70.46-2.91l148.67-11.347c37.12-2.48 73.55-2.475 110.54-3.942 44.5-1.765 89.27-6.656 133.82-8.949 18.13-.934 36.87-2.88 55.02-3.624 2.01-.083 2.64-.166 2.87 1.505 1.19 8.638-2.44 19.854 4.8 25.957 4.77 4.017 10.96 6.784 16.88 9.331-.78 8.453-.58 10.089-7.46 15.605-8.49 6.814-18.94 12.446-27.19 19.45-7.66 6.505-15.53 17.821-23.28 23.879-8.33 6.514-22.26 10.01-31.64 15.532-11.08 6.519-20.47 17.564-30.46 24.631-12.28 8.68-29.61 13.951-43.25 20.119-11.24 5.087-24.05 12.773-35.48 16.814-10.76 3.81-26.45 3.459-37.73 6.287-18.14 4.549-30.47 11.388-50 8.903-8.98-1.144-18.64-3.178-27.49-4.167-16.19-1.808-33.87-1.521-49.5-7.253-8.96-3.29-19.63-11.64-28.95-15.295-9.06-3.551-21.7-4.848-29.54-9.892-12.03-7.732-22.39-18.987-34.35-26.995-9.88-6.618-24.25-10.306-33.14-17.878-6.51-5.549-14.08-13.541-20.29-19.717-9.35-9.305-17.39-15.793-27.98-23.531 10.07-61.077-81.02-51.366-58.48 3.242-11.66 15.493-23.58 29.762-38.884 41.834-7.283 5.746-15.453 10.424-22.379 16.618-11.805 10.56-20.65 22.074-34.189 30.992-10.086 6.643-21.577 10.804-32.394 16.071-5.314 2.588-10.119 6.021-15.298 8.823-7.625 4.125-54.141 18.083-54.605 19.397-.736 2.083-.579 6.854-.25 8.996.475 3.091 1.771 6.261 4.344 8.187 5.477 4.101 14.2 2.845 20.467 1.596 11.686-2.331 23.289-6.989 32.668-14.456 3.767-2.999 7.159-6.613 11.366-9.007 11.365-6.467 24.839-8.006 36.496-14.813 11.792-6.887 18.554-17.3 28.657-25.749 7.175-6 17.008-8.306 24.454-14.036 14.927-11.49 26.397-27.28 40.007-40.281.31 89.394 3.67 178.612 3.57 267.982-.03 21.37.91 43.45 2.18 64.78-89.105 6.28-177.822 15.79-267.174 18.85-3.678.12-7.278.39-10.974.39.814-12.26 1.389-27.87 2.752-39.82 20.15 7.52 66.163 5.92 77.745-14.24 2.82-19.9-7.349-73.34-9.082-96.03-5.004-65.56-17.389-132.587-19.92-198.256l3.798-6.221c-.989-15.001-3.951-35.668-7.959-50.194 24.158-2.855 49.061-3.803 73.343-6.113 49.754-4.734 99.397-11.266 149.271-14.36 2.37-.142 5.12-.92 7.11-2.202 3-13.137 1.11-42.056.87-56.886q-.78-44.726-1.02-89.459c-.09-33.657-.42-67.404.18-101.054.65-35.552 2.21-70.999 2.19-106.575-.01-28.771-2.34-57.521-2.9-86.284-.57-29.073.47-236.62-6.16-246.048-2.03-2.877-5.3-3.112-8.54-3.465-23.337-2.531-64.178 1.608-89.118 2.864a8171 8171 0 0 1-178.486 8.199c-70.363 2.199-141.816 1.963-212.3 3.663-47.234 1.139-95.09 3.175-142.253 3.832q-38.594.71-77.195.567c-31.957-.434-179.609-5.848-203.675 4.482-3.457 3.354-2.438 11.808-2.739 16.485-4.379 67.86 4.302 134.561 5.951 201.955l6.871 279.877c.552 24.683.101 49.607.526 74.392a2376 2376 0 0 0 4.338 107.396c.467 8.052 1.269 33.222 3.925 38.973 10.248 1.822 22.758.782 33.24.225 99.442-5.287 198.345-17.762 297.975-20.238 14.233-.353 28.901-1.523 43.124-2.508l-.382.944c-3.949 9.624-10.416 19.745-14.143 28.993-14.502 35.985-61.768 120.196-5.18 140.431 16.923 6.055 32.653 6.725 49.054.469 1.832 37.786-1.142 81.506-2.602 119.346-.771 20-4.485 45.5-3.476 64.97 27.939 12.95 50.451 17.57 80.732 7.08 2.776 12.15 4.009 26.42 5.341 38.95l-418.477 12.52c-64.317 2.25-136.183 7.57-199.681 8.05zm1890.09 1184.93c13.65-1.69 35.12-1.96 49.64-2.6 36.08-1.42 72.17-2.54 108.27-3.35V1462H0v-199.35c16.037-2.03 49.026-2.63 66.34-3.43 49.625-2.4 99.276-4.27 148.942-5.61l404.843-12.6c4.173 21.04 5.219 65.52 5.978 86.92-16.441 10.46-24.585 15.69-43.423 21.35-33.718 37.41 59.283 40.56 77.95 40.03 23.438-.67 24.314-8.27 21.008-30.54-.993-6.69-9.64-20.51-9.756-23.29-1.158-27.88 2.819-69.86 3.484-96.67l25.492-.09c2.853 29.96 5.15 59.82 6.34 90.05-.058 11.73-6.364 46.53 4.137 54.83 17.779 14.07 57.486 2.05 77.565-3.59 7.376-2.55 20.031-5.57 24.758-12.15 7.347-10.22-9.675-18.98-16.395-21.51-15.887-5.97-31.314-13.9-45.199-23.17-.746-22.27.99-63.34 4.162-86.17a5842 5842 0 0 0 187.499-11.5q27.015-1.845 54.001-4.08c10.944-.86 26.184-2.37 36.864-1.89 1.62 2.07 2.92 8.47.91 9.35-14.48 6.33-32.97 4.18-42.804 19.01-8.591 12.94-7.208 27.62 7.314 35.49 30.31 14.9 67.12 12.83 99.6 6.03 34.92-7.31 59.8-36.23 16.46-56.63-9.2-4.33-24.09-.36-26.94-13.5 1.99-1.89 6-1.99 8.82-2.1 159.69-6.12 318.8-20.25 478.62-23.57 35.87-.74 72-3.44 107.87-3.5 2.21 19.42 3.78 39.69 6.41 58.73 1.6 14.84 9.45 13.78 20.41 19.24 2.87 1.43 3.4 8.71 2.13 9.05-20.12 5.43-47.96 2.39-65.18 15.13-3.24 2.4-2.26 9.93-2.06 13.6l.51.54c17.92 18.74 80.26 25.5 106.23 26.25 34.71 1.01 30.01-26.34 9.59-44.22l-1.77-14.56c26.55-5.2 29.71-13.39 26.38-38.04-1.69-12.57-.93-28.26-2.45-41.25-.31-2.69 1.71-5.33 3.63-7.02 3.52-.91 2.13-1.06 5.36.18 4.02 4.63 6.65 61.33 11.21 70.72 3.37 6.94 14.51 9.97 21.63 12.87-10.37 5.41-55.48 13.46-35.37 33.89 12.94 13.15 43.12 15.63 60.84 17.69 6.99.81 21.36-1.8 26.5-7.39 14.73-17.55-7.62-32.67-7.93-44.83 5.99-6.31 22.75-5.04 22.83-18.4.13-22.46-2.86-44.9-3.25-67.37"/><path fill="#fefefe" d="M1891.56 109.442c12.55-.742 25.9-.437 38.53-.365l8.28 635.046c-10.33 1.28-17.65 1.772-28.07 2.113-.88-6.047-2.5-15.861-2.13-21.651.56-8.825 2.22-16.724 2.38-25.794q.405-39.648-.12-79.295l-1.65-214.417q-1.77-76.475-4.56-152.922l-2.35-72.288c-.37-10.22-.59-31.874-2.77-40.733-2.54-3.617-7.39-4.177-11.51-3.84-14.7 1.203-29.43 1.909-44.17 2.37l-174.35 6.904c-35.9 1.438-71.44 1.054-107.25 2.183-49.12 1.547-99.89 6.23-148.98 6.229-46.65-.001-92.83-1.27-139.65-.601-32.84.613-65.67.859-98.51.737-11.34-.03-58.14-2.259-65.88 3.408-4.16 9.116-4.24 42.692-4.14 54.473.65 100.364 5.96 200.723 8.3 301.045 1.41 60.278-.93 120.913 2.54 181.228.81 14.072-.19 48.231 3.65 60.274 7.08 5.129 65.05.364 78.19.016a5110 5110 0 0 0 251.13-13.211l112.07-6.794c7.36-.483 46.47-1.403 49.46-5.566-.01-3.423.36-6.458-1.1-9.446-7.17-1.296-67.7 3.454-77.73 4.134l-169.04 10.613a4331 4331 0 0 1-118.5 5.055q-36.585.789-73.11 2.937c-11.98.677-28.71 1.301-40.27 3.309-.15-12.371-.69-24.68-1.19-37.038-3.41-85.195-1.47-170.396-4.45-255.598-1.92-49.563-3.52-99.137-4.82-148.719-1.37-47.304-2.7-88.957-.66-136.387 27.21.172 54.41.105 81.62-.203 43.97-.643 87.81-.892 131.76-1.716 22.18-.415 45.77 1.465 68.49 1.135 162.02-3.623 324-9.017 485.9-16.179.07 19.274.66 38.416 1.49 57.66 5.55 129.436 6.18 258.738 7.11 388.244.14 19.345 1.07 39.318.12 58.614-4.32-20.569-8.32-37.201-18.95-55.907-11.37-20.007-38.04-22.792-59.96-27.94-.93-8.734-15.09-41.869-26.58-34.529-5.34 7.934-1.88 24.445-.69 33.841-9.7 3.121-35.96 5.098-44.22 1.113-.65-3.201 3.37-34.261 3.83-40.845.85-1.469 5-6.708 6.24-8.36 11.46 11.158 16.12 11.361 31.04 11.291 11.45-8.957 17.92-16.139 32.24-10.196 2.79 1.161 6.26 2.025 9.31 1.72 1-.75 1.94-1.164 2.28-2.09 2.75-7.489.94-23.551-1.7-30.833-3.23-8.914-12-15.781-17.52-23.478-5.93-8.269-10.42-17.208-17.55-24.387a42.8 42.8 0 0 0-13.6-9.375c-13.77-5.824-31.61-4.868-43.55.402-27.27 12.041-26.84 29.525-23.34 55.073-1.48 2.508-6.97 7.371-7.52 9.945-5.15 24.015 3.81 48.027 27.49 56.075-.6 4.641-1.43 8.616-2.38 13.187-5.1 3.97-14.29 8.451-20.23 11.548-25.27 13.176-47.41 31.284-60.76 56.939-7.46 14.324-12.58 32.176-17.66 47.775a2195 2195 0 0 1-23.75 71.112c-54.49 3.614-109.89 8.691-164.44 12.105-45.42 3.47-91.96 1.642-137.29 5.245-70.8 5.627-141.96 10.641-212.65 17.058a3814 3814 0 0 1-5.76-147.378l-4.98-249.567-5.95-268.355c11.58-1.135 23.44-1.439 35.08-1.831 65.97-2.219 132.61 3.438 198.52 2.144z"/><path d="M1432.15 214.5c9.31-.825 40.1-2.124 47.27 1.642 5.21 10.9 6.18 183.35 7.16 209.856l5.57 138.962c1.44 31.173 3.84 66.89 3.84 97.832-3.63 6.22-6.67 10.77-14.54 11.425-42.4 4.478-85.53 5.259-127.96 8.545-42.37 3.282-81.87 3.547-124.32 3.783-11.22.575-38.59 2.888-48.44-1.847-1.78-.854-2.96-2.653-3.19-4.681-2.07-18.388-2.06-39.639-2.69-58.18a6599 6599 0 0 1-3.47-186.639c-.66-63.482-3.64-126.803-3.16-190.288.04-6.585.94-14.811 4.47-20.485 8.58-5.359 54.89-2.183 68.69-3.458 31.17-2.88 65.03-1.671 96.48-2.397 31.44-1.041 62.88-2.397 94.29-4.07m364.51-5.025c11.95-1.248 17.6 3.104 18.31 15.599.8 13.801.55 27.67.55 41.491-.06 21.952.2 43.903.79 65.848 1.06 26.44 2.38 52.87 3.95 79.286.85 13.279 2.28 26.635 2.89 39.903.21 4.385-.27 5.11-2.7 7.643-4.85-.944-5.46-5.962-7.45-10.24-11.89-25.657-41.29-36.51-68.05-30.682a62.88 62.88 0 0 0-39.12 26.926c-10.76 16.772-4.51 27.496-10.42 45.932-8.66 27.007-3.31 56.766 21.61 72.166-6.07 4.108-15.71 7.511-22.65 11.643-25.65 15.267-43.96 31.752-56.58 59.071-3.32 10.921-6.65 22.088-8.13 33.412-12.8 2.719-39.94 6.337-41.52-12.429-4.13-49.085-3.94-98.544-5.33-147.742l-3.95-188.286c-.71-30.797-2.33-61.614-2.78-92.472-.16-11.336 13.69-11.703 22.56-12.852 16.67-2.158 35.38.697 51.97-.626 48.32-3.85 98.03.195 146.05-3.591"/><path fill="#fefefe" d="M968.984 162.461c2.77-.514 2.765-.405 5.415.036 2.222 6.683 1.828 67.939 1.538 78.663-1.045 38.633 1.849 75.563 2.845 114.036l4.221 212.803c.826 56.578-1.791 122.113.905 177.507-15.532 3.642-39.364 5.554-55.558 6.88a1358 1358 0 0 1-93.923 5.131c2.971-19.004-2.37-34.68-6.837-53.174 18.126-3.007 98.882-4.461 107.482-14.719 2.67-3.185 3.094-12.084 3.293-16.108.899-18.198-.335-37.014-.514-55.287-.41-41.932-1.157-83.487-2.805-125.407l-5.845-198.551c-.491-19.114.726-38.349.141-57.457-.214-7-.751-12.616-6.004-17.743-7.422-1.535-30.021.395-38.767.793-47.44 2.06-94.813 5.482-142.322 5.979-37.208.062-74.752-1.077-111.873 1.414-18.995 1.275-14.731 23.976-14.566 36.966.13 16.943.565 33.883 1.303 50.81.467 11.213.862 35.228 2.581 45.28 4.218 3.379 14.493-3.641 19.003-6.035 19.782-10.502 37.03-11.056 58.609-6.855 38.18 7.431 52.422 42.342 72.265 71.118 33.316 50.925 13.733 147.931-63.486 131.71-2.842-.598-3.348-1.64-4.448-3.892 3.706-4.494 20.681-7.273 27.392-9.403 49.199-15.466 52.01-75.693 26.922-113.184-8.453-12.632-16.572-25.711-25.26-38.211-22.481-30.897-62.765-34.749-95.676-19.301-53.244 24.993-85.369 95.169-48.888 146.718 18.985 26.825 35.321 28.756 66.92 32.638-28.039 17.905-74.681 30.275-98.243 54.41-5.771 5.912-11.348 19.788-14.587 27.721a1330 1330 0 0 1-2.105-46.996 11534 11534 0 0 1-5.375-213.432c-.467-39.504.841-79.434-1.119-118.989-.012-3.802-2.197-13.675-5.604-15.724-10.297-6.191-44.566-2.779-55.771-2.388l-78.865 2.726-102.325 2.291c-13.526.17-51.783-2.626-60.16 3.571-6.101 4.513-2.435 69.477-2.073 79.523a5701 5701 0 0 1 3.097 94.464l3.07 106.107c.527 26.022 2.89 200.732 10.806 208.988 9.192 2.487 39.873-1.147 51.445-1.273 72.973-.792 145.299-4.404 218.069-9.496-2.371 24.145-1.08 30.478 4.573 53.72-9.707.293-24.115 2.122-34.114 3.007a5484 5484 0 0 1-70.363 5.763 3114 3114 0 0 1-224.436 8.293c-.842-7.996-.651-23.403-.714-31.966a5469 5469 0 0 0-.585-56.415l-4.523-175.385c-1.275-58.977-6.25-117.396-9.318-176.304-2.91-55.883-2.983-111.143-4.886-166.89 53.12 1.86 105.463-.215 158.493.009 87.709.371 174.372-.028 261.975-5.707 36.963-2.396 75.769-.732 112.966-1.696a10096 10096 0 0 0 266.609-11.087m652.846 688.544c2.14 4.311-1.87 98.939 2.82 110.011 3.41 8.044 7.94 54.074 27.23 39.584 4.55-3.417 8.14-13.065 15.13-15.273l1.37 1.013c1.56 6.853 1.06 39.47 2.02 50.11 4.12 45.74 6.52 94.72 13.05 140.09-24.86 1.82-58.16 1.66-84.08 2.45a8737 8737 0 0 0-200.83 7.22l-197.64 12.44c-32.51 2.02-80.64 5.61-112.75 5.14-1.51-17.32-2.6-34.67-3.26-52.04-2.13-41.48-1.31-79.56-1.93-120.86-.85-56.554-4.27-118.349-1.59-174.561 14.83 14.169 28.4 28.591 43.02 42.755 8.82 8.55 24.8 13.075 34.53 19.407 10.06 6.548 18.62 16.382 29.85 23.056 12.24 7.267 22.47 8.145 34.33 12.823 13.14 5.183 22 12.585 36.36 17.396 18.3 6.133 27.35 2.857 43.94 4.684 7.95.875 21.37 6.202 31.41 7.394 25.6 3.038 34.8-4.85 57.22-10.882 10.68-2.872 25.9.758 40.08-3.559 19.11-5.817 23.18-12.953 39.09-22.051 10.27-5.877 27.16-5.573 39.48-12.632 13.54-7.757 18.2-17.255 29.69-25.989 7.65-6.363 25.12-9.458 32.25-15.592 16.88-14.528 31.32-28.489 49.21-42.134"/><path fill="#fefefe" d="m994.741 119.503 20.459-.67c3.82 34.989 3.85 83.726 4.04 119.178l1.15 111.406 1.66 436.649c-20.63-.067-52.77 4.293-74.174 6.549-45.49 4.794-88.886 9.494-134.585 12.265 9.34-13.38 13.17-19.691 18.728-34.639a1262 1262 0 0 0 89.461-4.484c15.514-1.303 66.043-3.354 75.063-14.033.968-5.895.022-32.822-.017-41.154l.007-89.664a16890 16890 0 0 0-4.713-275.673c-.515-19.072-2.539-38.534-2.664-57.508-.299-45.313 2.166-91.575-2.627-136.653-.567-5.335-18.468-1.901-22.923-1.751-37.13 1.248-79.617 4.023-116.2 5.326a13182 13182 0 0 1-489.404 12.413l-129.493.49c-10.364.064-63.834-1.084-69.487 2.145-7.195 15.585 1.209 175.476 2.167 199.545 1.677 16.866 2.45 34.625 3.449 51.628 5.669 96.423 8.031 194.745 9.32 291.302l.654 58.341c.02 7.055-1.88 23.125 1.31 28.678 5.462 3.386 42.746 2.052 51.883 1.915a2816 2816 0 0 0 211.822-9.806c26.101-2.132 55.594-4.303 81.357-7.716 1.622 5.529 8.289 23.691 3.944 27.375-18.653 3.463-54.873 4.347-74.926 5.06a2247 2247 0 0 0-73.005 3.964q-77.25 5.726-154.425 12.41c-11.982.974-66.747 5.552-76.029 4.081-2.171-6.581-3.187-36.066-3.587-44.067-2.591-51.895-3.432-103.557-3.939-155.486-.375-38.494-4.033-77.977-4.928-116.691-1.4-60.62-1.01-121.623-2.429-182.193-1.592-28.999-2.604-58.565-4.77-87.49-2.674-35.713 1.398-74.637-2.109-109.769 83.405-6.258 165.703.474 249.546-1.468a20377 20377 0 0 0 620.414-19.805"/><path fill="#fefefe" d="M695.063 558.262c19.073 5.852 38.377 9.387 56.774 17.725 15.413 6.986 34.517 10.471 40.031 28.863 13.32 44.429 21.693 89.951 30.223 135.466 3.993 21.311-9.752 44.76-22.013 61.263-7.591-41.347-11.632-79.896-13.14-121.787-.117-3.252-1.433-5.333-3.992-7.093-9.555 1.243-6.347 21.995-6.639 29.199-2.228 54.908 14.686 106.452 23.464 159.875l-1.366 1.871c-10.608 4.297-23.187 7.499-34.375 10.426a483.5 483.5 0 0 1-213.737 6.077c1.259-10.59.81-30.548 4.488-39.49 11.247-27.344 27.36-54.036 40.119-80.848a5336 5336 0 0 0 41.178-88.4c18.27-40.438 32.816-76.658 58.985-113.147M1860.38 946.176l.5.121c1.74 2.789 1.93 18.826 2.16 23.719l3 58.764c3.47 64.07 9.12 127.94 11.63 192.07.4 10.2 1.47 20.73 2.39 30.92-21.43 5.79-42.25 6.12-63.95 2.01-3.37-38.84-7.23-77.64-11.57-116.38-6.11-50.41-15.91-101.38-15.41-152.47.03-3.09-1.95-4.937-4.3-6.533-10.41.777-9.86 29.913-10.44 38.513l-3.28 48.65c.59 7.14-.43 21.76-.63 29.78-.52 18.78-.61 37.58-.3 56.36.41 22.21 1.24 44.42 2.5 66.6.55 10.49 2.06 25.79 1.71 35.61-20.04 11.87-49.49 2.85-70.39-2.78-1.01-23.81-4.37-50.65-6.93-74.49a2935 2935 0 0 1-10.76-111.17c-1.53-18.7-2.51-37.43-2.96-56.18-.45-18.676 1.9-40.697-3.11-58.05 51.01 12.192 129.87 10.142 180.14-5.064M663.759 552.185l9.917 1.279c-24.923 37.46-37.812 73.628-56.387 113.9-15.185 32.924-31.728 69.315-48.566 101.357-2.521-3.387 20.799-93.222 7.473-102.738l-2.103.618c-6.34 7.268-8.958 39.597-10.42 50.643-4.377 32.932-12.872 61.873-18.746 93.695-5.999-14.42-20.785-65.827-18.715-81.203 1.818-13.497 12.325-42.657 15.914-58.089 4.038-16.21 6.441-31.704 12.637-47.271 8.131-20.428 15.195-21.596 32.836-31.733 24.548-14.108 53.82-23.462 76.16-40.458m378.231 299.011c10.01 5.03 16.79 4.59 27.26 1.869-4.93 55.092-.98 115.237-.37 170.745.68 60.5.12 121.05 5.37 181.33.9 10.36 2.34 25.68.99 35.63-.03.09-.06.17-.1.25-1.5 2.27-2.44 3-5.13 3.59-4.4.97-14.83.44-18.45-2.39-5.94-4.63-7.88-354.393-9.57-391.024m636.71-232.345c3.4 3.684 6.11 17.636 7.19 22.803 11.09 53.192 2.21 106.411-2.13 159.578-15.97.745-31.97-.651-47.57-4.15-6.88-1.785-13.2-4.647-19.74-7.391 1.02-24.04 10.35-47.943 18.43-70.584 11.78-33.034 18.68-75.002 43.82-100.256"/><path fill="#fefefe" d="M1089.88 1240.68c9.69.91 36.69 5.93 35.31 19.27-14.16 22.62-77.14 21.84-101.39 17.81-6.74-1.66-20.97-4.98-22.69-11.92-3.829-15.4 28.05-21.76 36.37-23.77.99 3.19 2.43 6.49 3.7 9.61 18.21 10.17 39.47 11.19 48.7-11m773.93-636.979c20.35 26.043 32.12 144.856 35.48 181.857.41 4.493-.44 5.429-3.76 7.769-6.31 2.019-12.99 3.305-19.48 4.699-2.1-59.857-3.27-136.419-12.24-194.325m-225.35 208.206c9.28 1.966 19.08 2.716 28.63 4.378-4.3 20.314-20.8 84.169-17.63 100.999 1.91 10.18 15.9 21.197 16.27 26.811l-1.23.418c-13.5-7.242-21.82 4.971-27.66 15.405-1.36-31.62-1.71-63.276-1.06-94.918.18-13.267.34-40.318 2.68-53.093m66.13 481.493c14.22-1.69 12.65 13.05 29.33 17.38 12.66 3.29 21.11-5 26.92-4.43 3.44 3.04 3.93 7.74 1.17 11.39-6.57 1.95-23.68-.39-31.08-1.14-10.19-.97-67.26-8.65-69.6-16.85 5.05-1.83 37.42-5.73 43.26-6.35m-651.66-488.207c23.51-1.937 30.26 21.801 7.25 33.004-21.5-1.18-30.57-23.447-7.25-33.004M786.153 1357.04c3.393-.36 10.963 1.42 11.758 5.46-7.27 7.39-50.312 14.1-63.214 14.35-5.87-.77-10.818-.5-14.603-4.63-.718-2.06-1.581-3.57-.951-5.57 4.454-1.19 16.85-.93 22.08-.97 18.407-.14 28.095-2.63 44.93-8.64m1033.707-65.87c13.05-1.44 22.86 20.33 46.86.13 1.1 4.43 2.49 8.15 1.75 12.57-2.36 3.44-1.6 2.37-6.09 4.25-11.19 1.62-53.15-3.02-59.09-11.62 1.82-1.66 13.42-4.46 16.57-5.33m-1141.917-98.7c6.89 2.82 9.637 2.56 16.735 1.85 1.935 9.92 3.792 20.9 3.279 30.96-7.206.12-14.412.29-21.616.5.289-11.11.823-22.22 1.602-33.31m-90.275 169.55c3.839-.25 17.015 1.96 21.132 2.59 26.912 4.14 32.868 5.3 59.619 1.05 1.982 1.7 1.933 4.18 2.622 7.24-6.69 8.56-65.036-.95-75.651-5.09-5.521-2.16-5.107-.99-7.722-5.79m1196.202-264.39c3.29 7.99 8.86 66.12 9.75 76.45-3.61.09-6.64.71-9.19-1.16-1.37-13.21-1.69-61.57-.56-75.29m-55.89 176.07c5.33.02 13.78 1.13 19.3 1.69.82 5.36 3.12 14.98.39 19.08-21.29 7.47-18.85-4.45-19.69-20.77m-.73-774.743c17.04.461 18.45 14.553 7.26 23.899-18.23 4.598-16.42-14.154-7.26-23.899m107.85 772.303c6.8.64 16.38-.39 20.94 2.24 1.04 3.5.11 4.34-.98 8.29-13.21 5.75-19.4 4.24-19.96-10.53"/></svg>