<svg xmlns="http://www.w3.org/2000/svg" preserveAspectRatio="none" style="display:block" viewBox="0 0 2048 1462"><path fill="#fefefe" d="M0 0h2048v1462H0z"/><path d="M1053.53 115.323c.3.029 10.5.629 10.56.628 10.11-.199 22.4 9.342 29.17 11.156 19.35 5.187 34.23 5.079 48.01 23.649 13.78 18.59 15.22 37.573 12.35 59.741 22.49 20.294 11.93 40.07-10.45 54.178-4.08 19.725-12.66 24.23-25.91 38.489 39.51 12.054 67.08 33.849 100.02 57.926 30.92-20.554 32.47-24.11 68.65-38.98-14.41-28.121-22.39-71.99-28.42-102.805-6.06-30.933 10.73-46.772 39.09-49.613 71.57-7.173 117.04 30.894 103.89 104.27-2.44 13.592-4.79 24.491-3.28 38.116 30.61 10.098 49.55 23.229 73.37 44.106 24.08-16.75 33.52-21.194 60.57-32.246-9.77-25.542-18.84-54.572-23.97-81.404-3.17-16.565-9.19-42.304 1.17-56.463 7.28-9.967 20.46-15.427 32.22-16.919 28.43-3.604 58.92 3.173 81.8 19.719 38.75 28.023 22.34 70.788 20.11 110.433-.2 3.65 1.22 12.493 1.84 16.558 91.73 36.309 145.57 127.654 190.77 209.956 9.76 17.769 28.81 46.253 35.17 64.203-.66 3.766-1.69 8.903-3.29 12.367-5.18 11.212-14.03 21-21.66 30.575-29.22 36.641-60.9 71.299-91.82 106.486-7.01 7.97-14.7 15.379-21.85 23.215-1.32 1.45-2.47 3.314-3.53 4.961.16 8.636.96 19.33 1.51 27.819l7.3 101.419 28.31 438.797 125.21.31c17.99.02 35.99-.78 53.94-.22 6.17.2 12.58 1.75 12.75 8.83-3.54 8.88-31.92 7.12-40.85 6.59-1.65-1.31-2.21-2.05-4.31-2.21-3.09 5.36-13.25 4.11-17.71 1.5-15.75 1.53-39.03.61-54.88-.74-9.69 5.41-6-1.23-14.51-1.32-1.41 2.37-1.27 2.46-3.79 3.85-11.54.31-54.57.72-63.06-2.62-1.78-.7-3.07.11-4.85.76-1.41.51-2.78 1.1-4.22 1.52-3.38.98-7.81.96-10.83-.7-1.16.4-1.67.6-2.8 1.14l-.94.46.36-1.61-.58-.91c-6.27 1.49-5.9 1.07-12.1.79-6.47-.28-6.2-1.42-9.99 1.9-2.64-.37-2.17-.79-4.52-3.41-4.71.56-12.2 1.68-16.69 1.67l-1.8-2.88-1.12-.02c-1.62 1.77-2.09 2.61-4.4 3.31l.07-2.93-.97-.8-1.65 2.69-1.42.32.59-2.37-.96-.39c-9.13 3.41-68.11.52-83.69 2.5-13.93 1.76-38.05.7-52.82-.35-12.43-.89-32.86 2.05-46.56-.86-28.21 4.93-61.97 2.17-90.22 1.27-35.62-1.13-72.24 2.14-106.85 1.5l-101.37-1.47c-3.12-.04-8.16 1.61-13.09 1.36-23.79-1.22-48.92-.53-72.78.41-5.9.23-6.03.14-12.42-2.21-.81.9-1.62 1.81-2.42 2.71-7.75-.64-15.53-1.72-23.26-2.43-1.48-.13-2.5 2.29-3.09 2.4l-5.12-3.05c-1.35.48-5.43 2.76-6.93 2.5-3.7-.63-9.85-2.54-13.47-2.61-20.46-.4-39.3.38-59.563 2.44-.291-.55-1.535-2.58-2.003-2.49-4.895.98-10.085 2.59-15.107 2.84-6.903.34-14.401.33-21.345.91l-3.383-2.29c-5.368.36-30.583 1.5-34.467-.15l-3.642.45c-9.218 1.17-18.453-.28-29.964 1.11l-1.716-1.85c-25.595 2.28-51.527 2.54-77.297 2.64-15.485.06-33.981-1.77-49.55-2.25-20.801-.63-42.299 1.53-62.678 1.86-20.056.32-20.384-3.22-42.847-.1l-.873-2.35c-33.157 1.31-67.664 1.22-100.98 2.02-4.743.11-10.34-.24-14.966-1.23-.84-1.63-.991-1.92-2.114-3.35-.349 3.12.186 2.41-1.547 4.47-13.383-.75-16.205-.66-30.504-2.72l-.742 2.18c-3.878.35-13.011-1.6-17.268-2.35-.342.26-1.892 1.48-2.099 1.5-9.973.39-20.763.83-30.898.99-33.083.53-65.882-4.33-99.086-.98-7.977.81-14.346 3.05-22.214-.5-1.412-.64-4.364 2.87-6.056 2.95-22.444-6.47-45.934.62-68.453-.6-24.538-1.32-48.193-4.54-73.065-2.58-5.172.41-9.764-2.36-9.811-8.2 5.525-9.43 24.581-4.38 33.683-5.54 19.65-2.49 120.691 3.9 132.25-1.59.48-4.06-.887-19.96-1.174-24.85-1.57-24.8-3.285-49.58-5.144-74.35l-10.314-153.96c-2.843-40.22-6.204-80.24-7.447-120.65-.185-6.038 3.087-18.744 3.75-26.282 4.971-56.553 16.221-117.688 20.565-173.987-8.21-10.284-25.028-27.042-34.689-37.778a2608 2608 0 0 1-67.987-78.707c-9.333-11.229-38.347-41.701-32.915-57.157 13.264-37.744 53.872-69.483 59.927-109.459.37-2.439 16.716-26.297 18.903-29.207 40.11-53.375 83.677-98.609 145.161-126.8-17.152-32.675-26.033-74.867-28.598-110.352-4.879-69.507 124.762-46.539 139.895-.962 10.586 31.88 2.116 69.382 2.229 103.129 36.803 18.914 45.718 19.745 79.292 49.536 24.69-18.2 35.558-27.306 63.088-41.342-10.197-25.484-45.753-124.714-12.666-144.727 31.563-19.091 97.204-6.025 119.335 26.73a64.8 64.8 0 0 1 9.691 23.8c3.451 17.714.259 64.77-3.346 83.197 32.817 17.479 52.048 23.166 82.36 48.332 15.482-14.675 42.32-29.726 61.43-38.98-14.925-34.161-28.005-66.771-32.497-104.078-5.684-47.208 45.455-52.567 80.95-46.259-1.899 12.77-3.544 21.523-3.724 34.456-9.511 12.834-24.323 21.546-25.246 40.633-.739 15.277 9.372 30.445 20.656 39.983 4.337 3.666 10.387 6.624 14.116 10.818-5.021 9.423-18.038 2.26-29.17 35.817 12.455-7.899 24.7-14.936 38.42-20.496 6.413-2.599 28.084-6.985 29.744-12.241-.33-.901-.65-1.802-.98-2.703-7.09-3.592-17.31-3.588-24.442-6.91-16.001-7.584-33.309-24.75-34.145-43.399-.604-13.461 16.097-27.3 25.113-36.395-5.706-45.996 18.054-88.57 66.584-94.157"/><path fill="#fefefe" d="M813.557 441.514c5.564 3.769 9.895 7.761 14.906 12.183-21.219 26.674-44.512 55.739-63.407 84.314-5.066 7.661-1.346 23.842 3.919 31.085 13.627 18.746 29.716 36.297 44.683 54.186l48.26 57.061c9.186 10.808 18.819 23.079 28.762 33.022-2.394 6.972-4.554 13.967-6.631 21.036-12.664 43.1-26.396 85.844-40.201 128.593L732.147 1204.95c-22.461-11.05-54.232-18.12-79.162-17.8-.234.1-37.162.49-41.863.74-33.918 1.83-66.097 6.8-99.517 12.41 16.193-138.69 58.136-276.329 111.703-405.102 21.266-51.124 49.487-105.219 73.962-155.19a1489 1489 0 0 1 84.387-152.06c9.893-15.46 20.241-32.46 31.9-46.434"/><path d="M838.281 729.617c5.461-.154 8.148.62 10.383 5.519-.138 7.316-11.864 21.981-16.232 28.85l-36.414 57.597a10129 10129 0 0 1-103.313 162.164c-22.723 35.193-45.364 70.583-67.37 106.233-6.767 10.96-13.448 22.54-21.142 32.85-13.77 1.63-10.408-8-5.626-15.9 46.683-77.14 96.338-152.472 144.823-228.511l57.057-90.142c11.42-18.211 25.167-41.567 37.834-58.66m-66.61-49.808c2.488.243 5.164.699 7.268 2.17 1.655 1.157 2.97 3.071 2.872 5.161-.115 2.464-115.897 186.903-126.588 198.609-3.67-.198-4.089-.365-7.306-2.158-2.344-3.445-1.773-1.827-1.839-6.353 6.707-13.48 22.01-36.34 30.607-49.903a7564 7564 0 0 1 55.313-86.951c6.354-9.926 33.909-55.073 39.673-60.575m-8.594 316.859c3.164.711 10.57 4.412 8.545 7.822-10.516 17.7-50.203 93.53-62.684 102.98-2.706-.38-5.075-1.32-7.038-3.18-1.255-1.19-1.739-4.22-1.371-4.93 7.675-14.84 55.379-96.74 62.548-102.692"/><path fill="#fefefe" d="M1316.41 471.556c2.79 1.201 8.76 8.107 11.15 10.796 27.52 30.924 54.24 63.02 76.84 97.753 11.11 17.06.66 13.288-3.05 29.865 5.08 21.14 10.54 45.995 17.05 66.638-40 63.75-82.65 126.221-122.79 189.903-2.54 4.037-4.28 9.113-2.95 13.807 2.79 2.633 1.2 1.802 4.95 2.595 2.22-.612 4.47-1.39 5.82-3.396 34.58-51.586 67.34-104.421 101.68-156.18 2.45-3.698 16.15-25.219 18.35-26.799 5.91 11.608 6.84 25.128 10.44 37.438 9.91 33.869 17.88 67.702 26.34 101.919l63 248.005c6.34 28.26 14.62 57.65 21.27 85.87 1.91 8.13 11.73 41.94 11.75 48.62-3.71 3.53-16.42 3.88-21.82 4.27-55.85 4.01-111.79-1.04-166.92-9.84-4.48-11.54-12.92-43.9-17.01-57.76l-40.88-141.46c-4.59-15.954-10.51-32.285-15.34-48.357a10370 10370 0 0 1-69.1-234.315c8.92-8.481 19.53-21.299 28.01-30.887l38.2-42.578c21.76-24.427 43.55-48.883 65.16-73.422 33.49-38.016-21.13-78.95-40.94-110.038z"/><path d="M1427.94 819.772c.61-.027 1.21-.054 1.82-.05 2.38.016 4.63.57 6.3 2.384 1.3 1.409 1.86 2.801 1.66 4.727-.45 4.261-107.47 171.367-115.71 179.037-3.5-.06-5.28-1.11-7.66-3.53-.53-1.56-1.12-2.654-.91-4.332.5-4.128 100.68-160.246 110.09-173.894 1.21-1.747 2.71-3.084 4.41-4.342m-15.98 178.895c6.21.246 12.68 4.373 8.65 10.713-15 23.61-30.71 46.79-45.59 70.49-4.35 6.93-9.14 14.9-14.45 21.05-6.15-.32-9.16-1.9-9.8-8.14 2.39-6.46 56.85-90.14 61.19-94.113M1321.8 675.59c5.5.854 10.87 5.595 9.12 8.361-8.61 13.626-52.02 86.841-60.4 94.333-6.48-.245-9.26-1.482-9.85-8.071 1.29-3.161 17.61-28.545 20.15-32.061 11.23-15.554 29.15-49.65 40.98-62.562"/><path fill="#fefefe" d="M1053.68 792.856c3.05 3.282 39.35 120.526 45.5 138.05 26.17 74.664 59.45 144.964 93.98 216.004 13.51 27.79 29.13 55.15 41.32 83.49-7.96-.47-17.6-2.89-25.45-4.51-47.77-9.85-94.19-25.07-141.65-36.18-4.34-1.01-11.93-2.22-15.76.32-13.58 6.44-24.89 12.28-39.05 17.75-48.293 18.66-98.056 22.22-148.956 13.58l80.593-151.41c10.263-19.32 22.504-38.93 31.544-58.57 3.287-7.14 7.739-22.414 10.522-30.63a4410 4410 0 0 0 17.647-51.725c14.22-42.572 32.77-94.586 49.76-136.169"/><path d="M1051.86 953.72c2.26.439 4.96 1.047 6.74 2.631 1.33 1.187 2.22 2.973 2.11 4.768-.28 4.716-103.631 177.111-111.504 184.361-3.956-.4-4.75-.34-7.891-2.69-.518-1.09-1.299-2.29-1.308-3.37-.021-2.59.962-4.73 2.278-6.93 17.644-29.49 38.049-63.54 55.717-92.27 8.988-14.61 45.858-78.996 53.858-86.5m47.36 84.03c5.99 1.26 8.11 2.35 8.5 8.44-3.86 9.75-54.35 89.61-60.67 96.21-5.23-.5-7.51-1.29-9.25-6.21.98-6.58 55.11-92.88 61.42-98.44"/><path fill="#fefefe" d="M518.745 327.343c19.056-.311 64.859 32.449 78.501 46.148-21.163 19.569-43.277 44.141-60.546 67.483-7.121 9.626-20.893 28.567-24.295 39.518-.749 2.411 2.476 9.299 2.249 9.8-3.044 5.795-6.665 11.483-10.245 16.955-63.871 97.621-62.681 79.4 13.737 170.051-63.48-.062-100.397.374-163.262-15.427.399-22.62.866-46.623 2.461-69.103.55-16.053.836-49.813 5.077-64.833 7.128-23.069 20.318-44.296 26.96-67.364 1.087-3.774-3.224-8.048-7.862-7.435-2.483 1.656-4.119 3.334-5.444 6.039-14.373 29.349-24.802 62.945-40.881 91.313-25.219-13.626-52.728-44.737-70.631-67.275 35.14-54.881 92.492-120.512 155.543-147.058 3.722-1.568 5.982-1.103 10.651-3.501 29.463 13.502 60.541 11.438 87.987-5.311m1116.885.559c4.4-.588 17.78 8.397 22.78 10.924 67.08 33.903 110.77 101.287 147.79 164.128-4.34 2.976-10.34 8.97-14.67 12.64a171 171 0 0 1-27.93 19.153c-6.48 3.62-25.83 15.993-32.08 14.226-1.01-3.443.55-14.67.58-20.91.14-28.284 1.31-57.711-3.59-85.625-.73-4.144-7.02-4.78-10.85-2.759-4.56 6.544-.2 32.834.26 42.379 2.37 47.535-3.16 94.179-9.63 141.165-2.12 15.335-2.93 33.155-5.95 48.066-2.95 2.281-4.69 1.771-8.9 2.286-40.05 5.522-85.06 2.732-124.91 1.355 16.52-17.308 56.53-59.388 62.52-80.623-3.29-11.158-11.45-28.109-16.59-38.568a835 835 0 0 0-99.76-153.808c-4.96-6.127-8.92-11.1-14.4-16.766-5.59-5.792-13.72-12.5-18.39-18.711l-.59-.805c19.22-16.029 44.45-23.237 67.11-32.058 4.12 1.447 8.3 2.753 12.51 3.915 25.62 6.822 51.76 3.712 74.69-9.604"/><path fill="#fefefe" d="M775.815 324.732c14.207-.097 66.382 33.609 79.272 44.704-64.984 62.537-112.463 152.16-154.368 231.492-12.644 23.936-24.236 51.259-37.483 74.587-17.937-2.388-34.961-6.666-52.252-11.84 4.631-27.307 4.469-60.612 6.882-88.398.797-9.182.452-30.636 2.912-38.495 8.596-22.667 17.843-45.021 26.76-67.553 2.145-5.419 4.517-15.25-2.603-17.551-15.532 4.588-31.465 79.916-45.468 95.989-16.454-2.508-59.744-51.938-71.769-66.439 39.237-64.673 91.513-119.143 160.644-151.31 34.168 11.404 54.604 16.673 87.473-5.186m615.605.22c8.2.644 45.54 21.229 53.05 27.697 38 32.727 100.59 100.886 120.72 146.704-26.4 27.788-32.8 34.166-69.34 48.51 2.28-17.528 3.61-106.566-12.92-114.532-8.6 1.077-6.34 10.764-5.19 16.784 8.18 42.664 6.6 88.725 1.24 131.65-1.93 15.517-4.9 29.954-6.31 45.121-1.28 13.075-4.01 28.479-6.17 41.583-4.14 1.227-9.63 2.262-13.95 3.195-4.11-19.815-10.27-47.731-16.8-66.613-1.2-3.461-15.37-25.411-18.32-30.129-50.03-79.999-117.57-143.627-189.19-203.905 23.16-17.007 48.94-33.415 77.57-38.938 28.19 10.962 60.05 9.794 85.61-7.127m-334.28 877.958c12.4.64 45.1 10.93 58.5 14.42 39.86 10.37 85.66 24.75 126.38 29.11 4.98 7.2 8.08 15.04 12.16 22.59 11.93 22.09 20.35 45.83 33.69 66.98l-252.18-.09c-28.52 1.48-60.343-.34-89.151-.15-45.511.3-91.205.6-136.696.09 6.371-12.88 5.58-24.8 8.471-30.17 9.86-18.31 28.207-55.84 39.622-71.51 8.302 2.67 28.494 4.9 37.739 5.57 61.602 4.46 107.275-9.31 161.465-36.84M477.011 886.479c1.266 1.076 1.195.867 1.624 2.991a5748 5748 0 0 1 29.969 155.31c1.168 6.57 7.697 38.56 6.927 43.05-6.299 36.82-14.082 73.58-17.483 110.88-.511 5.61-1.244 12.15 3.4 15.93 7.981 1.97 25.919-3.4 35.089-5.42a3181 3181 0 0 1 44.911 127.54c-15.64.43-33.375.02-49.197.05-12.481-.22-86.71 1.28-91.755-1.97-1.262-15.84.491-38.01.714-54.58l3.01-134.76q.855-59.16 2.538-118.32c.398-16.36.092-36.088 1.658-52.036.638-6.502 7.999-27.523 10.347-34.557zM1301.6 481.776c5.26.837 25.64 28.696 29.58 34.585 11.44 17.071 31.97 37.914 15.25 57.915-11.23 13.451-22.56 25.541-33.94 38.446l-78.51 88.546c-3.89 4.401-8.46 8.545-12.74 12.598-3.25-7.671-14.56-46.308-13.49-53.385 2.33-15.444 5.28-28.969 5.44-46.069 10.84-10.018 33.55-37.203 42.35-48.506-6.29-15.399-9.54-23.805-13.04-39.954 18.42-15.474 39.44-30.312 59.1-44.176m-205.98-318.181c1.16.933 8.67 9.223 10.25 10.905 8.73 9.286 15.93 16.555 26.09 24.2-.12 7.048-1.13 16.677.19 23.24 3.49 4.171 26.97-2.751 17.51 18.474-3.25 7.292-10.65 9.783-17.55 12.462-8.34 28.704-18.95 44.281-51.53 39.634-3.96-.565-8.36 2.916-8.03 7.479 7.03 7.766 22.43 8.04 32.05 5.969 4.6 29.105 6.55 77.429-35.93 72.284l-.59-.184c-34.28-10.901-35.21-49.605-31.62-75.663.47-3.419-9.48-44.831-11.06-48.666-6.73-1.852-17.85 4.214-28.724 1.583-10.798-2.614-21.079-18.212-8.908-24.913 6.624-3.648 17.532.224 24.622 3.17l1.27-.376c34.92-10.599 65.12-37.489 81.96-69.598"/><path d="M1086.14 206.183c3.91-.215 7.73 1.445 8.2 5.596-3.58 5.089-13.13 5.141-19.75 7.02-3.69.854-2.38 1.104-5.41-.311l-.59-2.216c1.94-7.55 11.13-8.754 17.55-10.089m18.9 33.937c6.2-.571 13.54-.334 15.77 6.651-1.23 2.719-2.31 2.895-5.14 4.379-1.39.308-2.79.593-4.18.854-5.24.971-11.96.709-12.71-5.757 1.46-3.583 2.96-4.135 6.26-6.127m-24.43-7.739c2.54-.298 5.8.104 7.35 2.261-.13 8.097-8.15 8.831-14.46 10.151-3.36-.402-4.53-.289-7.39-1.916-.68-2.411-.6-1.117.6-3.984 2.59-2.246 4.34-4.072 7.7-4.929zm28.96-14.332c5.04-.628 13.09-1.347 13.15 5.775-2.35 3.442-1.75 2.404-6.21 4.356-4.1 1.061-5.7 1.884-9.75.695-2.98-2.436-2.3-1.151-2.75-4.6 1.2-3.457 2.53-3.985 5.56-6.226"/><path fill="#fefefe" d="M261.114 501.595c4.623 3.557 15.029 17.747 20.014 22.818 12.703 12.92 27.378 26.188 42.407 36.205-4.703 7.423-18.869 28.031-19.107 35.226 2.689 8.598 28.919 36.897 36.316 44.191-2.367 30.76-10.538 72.952-10.842 101.844-3.264-2.5-9.798-9.526-12.946-12.733-17.498-19.848-110.689-120.113-112.157-136.332-.313-3.465 2.394-7.969 4.067-10.938 6.69-11.869 15.105-23.112 22.527-34.556 9.855-15.198 19.134-31.048 29.721-45.725m579.296-37.996c8.579 5.527 15.099 13.78 22.65 20.545 12.428 11.134 24.092 24.128 36.822 34.837a498 498 0 0 1-24.492 43.369c7.55 14.732 29.884 36.885 36.976 47.939 5.918 9.222-15.07 75.347-18.429 85.887l-8.444-9.476-57.946-69.01c-14.014-16.474-28.921-32.854-41.763-50.239-2.476-3.352-9.484-12.566-9.361-16.924.281-9.985 54.429-76.13 63.987-86.928m970.66 52.038c3.02 1.335 40.61 67.731 44.28 75.547-1.39 4.595-3.57 9.803-6.44 13.683-24.74 33.463-52.6 64.666-79.98 95.977-10.52 12.037-21.15 24.637-32.42 35.907l-9.74 10.862c-4.69-15.718-8.6-58.849-10.19-76.652-.19-2.226 2.21-23.457 2.6-28.125 14.1-12.557 28.91-26.761 39.64-42.376a509 509 0 0 1-14.77-40.22c34.37-17.741 36.5-16.109 67.02-44.603m-237.72-3.979c9.1 7.116 37.52 70.304 43.44 82.554-8.27 20.749-63.99 76.703-81.54 97.318-9.26 10.877-35.75 40.68-45.78 50.793-4.66 4.154-7.04 6.518-11.14 11.208.94-33.172 2.47-81.516 6.86-113.428 6.63-4.986 33.78-36.714 38.65-44.363-5.49-11.657-12.53-24.598-18.48-36.178 24.65-8.955 51.28-27.779 67.99-47.904M525.461 500.484c2.127 1.823 5.285 5.579 7.203 7.774 16.243 18.592 33.075 34.083 53.184 48.401-8.218 13.206-13.438 27.253-21.444 40.535 8.852 12.319 24.893 25.44 35.542 40.386-1.436 24.32-6.185 75.337-11.434 99.091-3.165-3.711-7.297-7.927-10.676-11.557l-64.696-75.617c-12.547-14.654-26.357-30.014-37.676-45.537-1.859-2.55-3.87-9.157-4.863-12.348 8.033-20.219 41.518-69.929 54.86-91.128M1554.49 892.727c2.58 34.992 15.25 73.396 22.03 107.683 20.69 104.66 52.34 206.38 76.31 310.25 1.56 6.75 7.07 18.43 4.27 24.15-3.36 1.89-7.4 1.05-11.48.78q-10.14.405-20.28.42c-6.18-18.28-11.82-46.41-16.92-66.01l-41.99-165.97c-8.64-33.34-17.07-66.72-25.3-100.16-1.71-6.805-10.31-37.992-9.8-42.557 1.92-17.016 16.34-52.362 23.16-68.586m3.43 340.473c1.77.01.89-.13 2.55.95 3.67 12.86 24.87 90.73 24.53 100.68-4.38 2.07-53.68 1.37-61.75 1.28-8.2-.1-16.41.01-24.54-1.03-.91-26.58 4.37-55.67 3.24-82.63-.17-4.03.65-8.93 1.34-12.92 3.24-1.2 15.66-1.29 19.9-1.57 12.6-.84 22.52-1.21 34.73-4.76m-141.11-627.592c.88.217 1.48.308 2.31.779 12.56 7.107 140.27 531.363 154.96 589.813l24.24 93.44c3.77 14.51 9.28 32.82 11.8 47.29-3.47.29-4.25.51-7.59-.21-2.17-2.44-7.69-28.47-9.04-33.79l-23.59-92.37-89.89-355.456c-9.53-37.456-18.17-75.438-28.41-112.73l-23.58-85.907c-2.75-10.015-13.37-43.679-11.21-50.859M676.767 1202.69c13.072 1.27 39.412 9.99 51.223 15.68-7.572 20.2-14.758 53.06-23.568 69.96l-.674 1.14c-4.281 7.42-10.664 12.3-16.643 19.22a3415 3415 0 0 0-7.461-77.72c-.752-6.98-1.783-22.05-2.877-28.28m248.827-572.523c98.316 27.034 166.796 32.122 268.806 16.701.52 3.203.04 6.397-.23 9.661-.9.823-1.51 1.223-2.79 1.435-78.47 13.053-161.27 11.42-238.394-9.024-8.396-2.226-19.871-4.505-26.929-8.647-1.601-3.269-.829-6.36-.463-10.126m11.52-297.364c2.874 1.208 2.724 1.124 4.373 3.798l-.448 1.73c-35.958 29.138-69.303 58.674-99.401 93.931-2.269 2.659-3.778 5.436-7.091 6.667l-2.394-1.722c-3.22-2.594-7.228-5.427-10.594-7.941 30.702-39.636 68.368-77.276 115.555-96.463m-488.395-37.156c25.357 6.764 41.082 4.263 66.298 2.905 1.224 3.505.511 11.144.343 15.245-3.001 2.383-4.862 3.345-8.151 5.196-19.203 8.41-35.728 10.848-56.763 6.928-3.685-.687-6.34-2.425-8.273-5.612-.188-5.236 4.675-18.781 6.546-24.662m1114.851 1.382c27.54 4.579 40.05 2.652 66.3 3.309.83 4.653 1.21 9.89 1.65 14.642l-6.18 3.218c-23.41 10.297-42.54 10.905-67.14 5.227 2.59-8.756 2.88-17.333 5.37-26.396m-243.93-.963c8.4-.045 56.36 2.018 62.15 3.64 1.9 3.775 1.8 8.947 2.11 13.34l-11.28 5.643c-22.08 9.07-39.78 7.963-61.71.866 3.47-7.258 6.05-15.793 8.73-23.489m-614.184-2.386c20.478 8.311 44.405 5.349 65.604 2.608.714 12.219 1.51 13.384-8.224 20.903-21.681 12.083-39.516 10.696-61.916 2.674zm10.59 993.66c2.58.44 15.834-.07 19.196-.08 13.956-.04 28.441-.03 42.36.07 7.438.06 25.577-.9 31.993.44 1.311 3.17 1.029 5.19 1.022 8.61-2.942 2.57-1.485 1.9-5.662 2.28-32.256.05-65.117-.2-97.309.2 2.875-4.61 4.547-7.66 8.4-11.52m477.584-853.3c4.07-.297 5.97-.701 9.94.385 4.19 12.109 19.29 77.086 19.93 87.454l-2.97 2.393-7.81 5.371c-4.07-11.353-6.58-31.177-8.94-43.878-2.68-14.399-9.24-38.007-10.15-51.725m152.67 853.44c8.62-.69 32.55-1.8 38.41 4.19.29 2.78.25 1.84-1.89 4.79-4.9 1.39-58.35 2.35-63.58 1.28-11.9.99-22.9.84-34.84.54-1.87-3.55-2.59-4.92-3.86-8.82 2.53-1.64 58.2-1.48 65.76-1.98"/><path fill="#fefefe" d="M911.718 528.484c2.341 1.379 5.321 4.411 7.434 6.357-1.003 16.138-.913 42.462-3.62 57.186-2.767-2.727-5.252-5.765-7.783-8.721-4.751-6.948-10.694-14.363-15.873-21.116 6.917-9.797 13.721-23.008 19.842-33.706m38.987-74.473c3.357 1.166 5.779 2.063 7.718 4.798-3.548 10.505-25.607 51.845-31.879 62.848-3.214-2.205-6.509-4.955-9.585-7.395 6.577-12.313 25.751-53.345 33.746-60.251m278.275 82.062c1.72 2.213 9 23.815 10.64 28.215-6.7 7.935-12.85 14.628-20 22.172l-5.94 5.253c.7-13.892 2.5-32.444 2.13-45.758zm-885.355 25.768 1.204 1.625a834 834 0 0 0-3.333 39.064c-.333 5.752 1.032 11.04-.445 15.439-2.114-.823-6.178-6.151-7.918-8.189-6.172-6.239-9.156-10.076-14.133-17.186 5.103-7.665 11.019-19.506 16.474-25.767 4.307-1.193 5.199-1.621 8.151-4.986m254.602.104c3.411.806 4.613.404 6.262 2.718.237 9.106-1.899 42.83-3.765 51.307l-.751.187-2.722-2.883-14.907-16.826a1391 1391 0 0 1 15.883-34.503m1131.413 4.07c6 8.137 9.5 24.734 12.3 34.846l-13.41 12.462c-1.54 1.973-4.22 6.026-6.3 6.761-.96-1.999 6.01-48.558 7.41-54.069m-235.96 3.595c3.15 2.614 11.27 20.673 13.33 25.12-3.23 4.497-9.39 10.832-13.29 15.081-2.15 3.232-4.63 6.256-7.04 9.314 3.39-15.873 5.22-33.319 7-49.515m-121.67 660.03c3.88.34 7.91.95 11.25 2.94 1.97 6.33-.08 22.73 0 31.04.04 2.04.27 2.98-.8 4.72-2.56-3.96-9.11-32.59-10.45-38.7m180.21-964.266c2.96 1.133 2.92.997 5.15 3.159 3.07 8.032-.71 17.127-7.52 21.876-10.91-5.827-2.98-17.971 2.37-25.035m-1118.7 1.04c9.852 3.642 6.246 19.034 1.807 25.914-2.008-.164-2.522-.751-4.236-1.852-5.739-8.16-3.241-16.899 2.429-24.062m256.903.067c8.27 6.175 8.007 18.069 1.113 25.123-10.913-4.991-7.752-17.674-1.113-25.123m613.247.971 2.37.675c6.36 5.762 1.97 16.609-2.32 22.437-1.37-.346-2.52-.894-3.83-1.43-5.32-6.343-1.27-16.321 3.78-21.682m-363.762 1.149c2.007 1.143 2.841 2.01 4.595 3.487 2.105 4.569 1.5 9.876-.104 14.514-2.744-.419-2.891-.577-5.343-1.635-4.236-5.183-2.145-11.041.852-16.366"/></svg>