<svg xmlns="http://www.w3.org/2000/svg" preserveAspectRatio="none" style="display:block" viewBox="0 0 2048 1462"><path fill="#fefefe" d="M0 0h2048v1462H0z"/><path d="M1010.34 169.635c-1.03-5.109-2.04-9.976-.67-15.153.69-2.595 1.98-4.937 4.1-6.635 3.33-2.672 7.73-1.841 11.01-4.349 3.5-2.678 6.64-6.621 9.71-9.802 7.32-7.575 15.02-14.045 24.28-19.158 14.13-7.801 34.77-13.889 49.71-4.609 6.82 4.241 13.75 10.21 21.89 11.538 9.76 1.594 19.59-4.642 29.14-1.552 9.17 2.969 16.84 10.519 22.63 17.944 31.01 39.793 8.21 76.7 13.03 84.572.95 1.556 3.06 3.231 4.86 3.238 8.28.031 18.59-3.792 26.92-5.217 19.97-3.417 41.15-1.703 60.91 2.084a79 79 0 0 1 3.38-3.637 47.45 47.45 0 0 1 34.13-13.77c26.89.22 68 26.213 86.11 44.9 7.16-.197 13.54-.709 20.18 2.588 26.92 13.379 108.75 103.222 118.34 132.52 4.53 13.824 3.58 29.718-3.16 42.669-8.76 16.836-21.02 23.426-38.39 29.04 35.17 71.69 9.95 92.336-30.66 149.679-28.97 40.912-60.84 81.721-89.06 123.012 1.09 3.234 2.49 6.294 3.92 9.393 13.32 29.004 28.27 57.291 41.1 86.519 10.84-5.043 66.51-18.981 77.58-19.668 1.65-11.878 1.8-14.922 8.14-24.993-6.73-3.723-28.64-17.468-34.19-22.224-.74-10.124 20.37-13.115 28.74-15.051 15.8-3.658 34.53-9.977 50.42-9.451 1.26-8.73 3.85-14.738 7.08-22.769-6.77-5.45-13.02-10.844-20.33-16.524-32.09-24.846 26.7-18.708 37.47-24.976 15.03-8.747 25.32-25.998 40.03-36.903 43.11-31.941 124.73-32.203 162.71 8.731 7.63 8.221 13.08 18.534 22.01 25.267 9.79 7.52 29.48 4.182 37.19 10.48 4.43 11.042-24.03 24.86-32.67 27.304 1.93 8.983 2.85 16.503 7.87 24.226 21.08 2.579 42.86 9.39 63.79 13.588 5.09 1.021 6.22 3.04 7.11 7.719-1.41 6.188-24.6 20.315-30.92 24.712l9.18 23.653c25.62 7.607 47.05 21.943 74.71 24.458 1.53.139 2.08 1.811 2.58 3.023-3.05 11.565-29.34 19.191-37.35 28.509-3.2 4.437 8.1 15.147 7.74 20.571-2.24 34.133-3.49 67.559-2.43 101.815 11.41-2.737 40.72-1.785 53.57-1.808q37.125-.103 74.22-.961v15.189c-13.84-.581-27.83.374-41.71.385l-91.2-.055c.03 7.177-.7 15.894-1.59 23.094-4.34 35.04-4.56 70.93-10.36 105.68-2.1 12.6-30.05 7.19-37.67 11.26l-.36 1.98c5.81 5.22 23.74 1.41 30.28 4.83 12.5 6.55 9.45 53.17 6.05 63.27-6.23 18.54-47.71 7.48-61.7 13.07-2.24 2.63-1.79 1.25-1.49 4.99 7.6 4.73 44.05-3.52 54.75 5.6 12.66 10.79 9.25 49.18 6.47 62.85-4.21 20.62-80.96-.31-85.69 14.42l1.1 1.42c10.87 4.72 55.27.82 69.02 2.23 13.25.39 17.2 13.17 17.38 23.62.15 9.41 6.09 44.23-10.3 43.39-33.81-1.72-68.87-1.62-102.63-1.52l-507.19 5.12c-10.9.04-21.89-.71-32.83-.91-11.13-.21-22.54.92-33.6.65-27.57-.68-55.19-1.14-82.78-.76l-165.902 1.1c-18.646.11-37.545 2.78-56.119.2-5.483-.77-26.632 4.43-25.264-6.38 1.799-14.21 11.406-62.14 20.092-71.24 9.182-4.57 37.89-3.27 49.671-3.21 2.704-13.13 14.192-61.62 22.828-71.01 4.917-5.34 40.564-3.58 50.054-3.65 4.43-15.18 14.67-65.78 23.02-74.94 5.9-6.49 36.46-3.85 46.01-3.95 3.68-13.73 7.4-29.15 12.43-44.23 5.86-17.56 44.83-4.98 57.3-10.47 6.25-2.75 8.45-40.67 17.64-46.94 15.28-10.41 35.19 2.98 49.44-6.56 4.01-4.25 17.85-33.475 17.44-38.629-3.56-2.151-9.43.381-13.83-.373-13.19-2.258-43.5-.435-58.4-.44-33.28-.011-67.54-1.825-100.72.148-25.12 28.824-58.62 58.004-83.895 86.564-28.903 31.82-57.369 65.18-87.172 96.12-42.735 44.37-86.702 90.47-131.783 132.31.223 19.62 12.813 70.21 9.578 84.21-2.492 10.78-94.331 4.06-105.45 9.47-1.672 2.92-1.817 3.56-4.433 5.49-9.737.48-6.131-5.52-8.919-5.82-75.224-8.04-151.774-2.84-226.977 2.91-4.861.37-15.636-2.79-20.105-5.1-2.111 5.62-3.475 11.91-10.884 9.89-5.942-6.92-1.474-16.07.456-23.84 1.876-7.55 3.849-15.09 5.732-22.64a8490 8490 0 0 0 19.97-82.72c10.458-44.36 20.965-88.95 30.87-133.42 22.801-102.37 43.358-255.956 121.882-331.024-9.285 2.02-18.736 3.331-27.945 5.707-97.816 25.248-143.517 274.507-162.947 360.837-11.878 52.78-23.684 105.56-38.161 157.7-4.463 16.07-15.248 59.26-23.477 72.06-1.441 2.24-3.482 3.79-6.165 4.12-1.786.22-1.78-.27-3.118-1.3-2.243-7.29 2.496-19.94 4.769-27.56-4.5-3.75-21.474.27-27.024-.98-11.256-2.52-20.1-.22-30.634-.43-42.498-.84-80.947-4.33-118.37-25.55-3.238 6.42-6.424 16.39-14.095 16.79-1.209-.68-2.655-1.38-3.464-2.54-4.18-6 19.384-46.48 21.787-56.59.104-.43.197-.87.296-1.31-8.232 5.27-51.591 38.68-55.124 39.03-2.835.28-4.116-1.06-6.24-2.61-2.811-6.8 8.098-19.28 11.954-25.16 7.615-11.61 15.58-22.73 22.428-34.85a792.4 792.4 0 0 0 71.984-167.61c26.345-89.07 60.035-257.775 150.818-301.833-12.631-20.536-16.516-35.646-5.906-58.779 9.273-20.218 30.657-29.066 39.545-49.293 6.061-13.795 3.283-30.072 4.792-44.708 4.406-43.893 42.727-67.629 84.656-61.394 35.493 4.215 89.845 25.972 86.977 69.014-.691 10.372-7.319 16.533-14.967 22.332 7.532 20.755-.167 44.987 3.445 56.636l4.402.336c19.786 1.435 12.543 17.622 1.084 24.611-3.982 2.429-7.229 3.663-11.555 5.306-8.23 14.938-21.021 35.56-41.009 36.514-4.879.233-9.334-1.333-15.118-.93-2.512 1.604-1.577.482-2.416 3.835 1.582 2.613 13.701 3.859 20.273 6.824l1.238.57c15.994-13.296 34.164-25.271 55.142-28.109 5.226-.707 19.999-.346 23.226-2.318 3.763-8.438 3.064-37.882 2.918-48.191l-12.127.033c-20.288-14.095-24.165-34.749-10.473-55.281 5.221-2.553 14.4-2.347 14.779-8.148.542-15.256-2.477-29.38-1.697-44.977 1.108-44.398 58.977-71.328 97.193-59.747 25.025 7.583 36.638 16.239 62.699 5.632 6.108-2.485 9.267 1.462 10.6 1.557 9.899.703 19.513-14.318 26.959-17.316 2.329.172 4.796.387 6.288 2.363 11.753 15.562 6.211 49.175-5.872 62.81-11.34 12.795-20.407 16.152-35.528 17.523 3.753 22.865 1.021 41.965-1.886 64.544 4.979.519 8.686.049 12.599 3.753 6.851 6.487 5.777 16.052-.552 22.482-5.904 5.997-9.737 5.983-17.494 6.043-11.772 47.783-43.429 61.913-88.834 50.753-1.128-.277-1.715 1.345-2.241 2.163l.557 2.176c5.55 4.588 67.972 13.095 79.711 15.336 4.268.814 8.965 3.193 13.175 3.437 14.771.858 81.018-39.842 93.516-50.198-.195-19.033 2.426-39.799 4.898-58.762.669-4.486 2.979-8.899 7.156-11.036 9.264-4.738 11.975 14.49 13.686 19.928 5.21-1.729 10.138-13.766 12.608-18.563 2.755-5.349 20.497-41.01 19.533-44.587-.308-1.142-5.669-4.143-6.961-8.197 1.302-10.478 18.956-23.299 26.499-30.814 8.618-7.18 22.516-25.102 31.741-29.906 27.407-14.271 35.395-24.887 55.148-47.829l40.351-46.122c17.87-20.629 40.9-43.947 56.8-64.763-1.26-27.931 30.12-86.971 41.97-114.998 3.16-7.463 5.2-15.371 7.9-23.016-8.33-6.772-18.3-21.004-24.45-29.969-11.07 3.689-19.73 9.586-33.12 8.434-15.06-1.295-25.03-15.239-34.09-26.24-28.76-3.247-21.57-13.277-13.65-33.927-2.89-11.89-5.34-24.42-7.86-36.437-9.26-4.651-12.68-6.89-19.7-14.482"/><path fill="#fefefe" d="M1251.97 440.877c2.09 1.477 16.43 18.91 19.31 22.059 20.78 22.684 38.27 40.462 65.73 54.512l-89.4 133.279c-13.9 20.777-28.39 41.052-41.32 62.503-11.12 18.45-4.28 31.044 2.63 49.374 5.35 14.188 11.21 27.964 17.4 41.797l52.31 117.626c6.67 15.015 19.24 39.555 23.67 53.986-9.16-.153-23.84-.745-32.75.138-12.57 1.245-21.97 3.169-35 3.194-53.3.099-108.7-.965-161.75.747-10.44 7.082-46.72 47.458-58.14 58.948-37.793 38.22-72.546 79.27-109.465 118.35-32.589 34.5-66.323 67.81-99.072 102.16-11.072 11.61-22.874 23.68-35.177 33.96-1.871-22.75-5.105-45.66-6.874-68.23a1614 1614 0 0 1-4.321-176.29c.519-15.99.936-33.2 1.946-49.225.031-.493.843-3.119.902-3.127 24.998-3.625 77.282 5.342 97.533-7.735 13.442-8.681 18.034-39.066 20.214-54.399 42.585.541 58.25-8.146 90.154-33.195 47.99-34.611 93.44-80.38 134.96-122.529 4.37-4.429 15.88-6.174 18.84-9.218 21.97-22.541 44.1-45.73 64.15-70 3.52-4.264.21-10.452-4.42-12.192-7.96-2.993-15.16 7.022-22.62 11.022l-1.07.567c5.64-5.526 39.91-46.746 11.31-45.384.04-.002-11.7 10.762-14.37 12.805 2.06-5.461 9.57-19.879 8.61-23.646-6.8-26.645-38.18 26.512-41.25 31.059 3.15-10.353 13.69-28.151 4.76-36.81-4.76-1.162-8.52 1.129-11.2 5.264-12.58 19.344-22.47 40.451-34.27 60.378-1.36-8.073-1.98-19.853-12.4-20.464-11.21 3.916-7.01 55.028-5.13 65.112-8.59 7.925-21.45 15.29-31.22 22.01-27.98 19.07-57.127 35.951-86.42 53.019-20.049 11.682-44.461 23.188-67.037 28.816-7.138 1.779-11.447-6.622-19.181-9.516-7.2-2.695-24.732 1.446-28.912-2.82 11.233-10.419 21.401-22.066 32.656-32.367 2.708-2.478 16.732-6.213 21.137-9.451 20.464-15.039 41.529-35.156 58.488-53.991a12.5 12.5 0 0 0 3.087-10.301c-1.568-2.873-1.886-3.091-4.887-4.424-3.693-.316-4.528.353-7.859 1.975l-1.077.531c.313-3.657 6.556-12.038 10.422-12.914q.918.968 1.867 1.904c3.16 3.06 3.046 2.768 6.531 2.693 7.386-3.672 59.615-57.345 69.535-68.323 2.34-2.594 7.36-16.137 9.58-18.837 6.89-7.234 32.7-33.025 40.1-37.568 15.13-9.287 108.48-108.088 115.55-109.808 2.44 3.418 4.29 66.021 4.01 74.845 10.49 5.059 22.93 9.599 34.62 8.74 45.71-3.359 37.36-10.679 33.91-46.642-2.57-26.813-8.52-57.503-9.31-83.206z"/><path fill="#fefefe" d="M604.285 819.839c18.39.081 40.17 6.367 58.16 9.924 22.051 4.361 46.731 10.124 68.776 13.134a1365 1365 0 0 0 79.667 8.295c11.399.775 40.113 1.377 49.384 3.518 7.872 35.067 16.296 94.354-8.051 124.531-24.039 8.672-87.898 1.118-114.115 6.581-4.404.918-11.973 25.928-14.318 32.538-28.362 79.98-39.885 159.35-48.603 243.41-.552 18.08-2.385 37.85-3.221 56.31-13.739-7.28-30.77-14.2-45.124-21.11l-121.642-59.14c-14.476-7.2-28.247-13.42-42.644-21.09 11.28-43.02 19.609-92.61 28.727-135.8 14.787-70.06 50.297-219.417 113.004-261.101m-210.732 6.44c3.961-.504 4.968-.68 8.895-.159-.042.625-19.356 26.429-21.863 31.135-54.899 103.054-55.783 224.395-87.752 334.775-5.554 19.17-19.744 64.47-30.308 77.39-15.46 3.01-31.818 4.88-46.973 9.17-26.45 7.5-52.214 19.66-75.382 34.3l-8.674 5.77c37.293-55.18 66.356-130.19 85.544-193.5 7.01-23.13 13.043-49.95 19.731-73.84 16.677-59.565 38.739-120.21 74.157-171.382 21.007-30.351 46.198-47.413 82.625-53.659"/><path fill="#fefefe" d="M423.74 825.858c5.048.34 17.934 4.595 23.762 6.151a3659 3659 0 0 1 51.931 13.759c-16.262 19.089-29.394 45.042-39.853 67.652-44.209 95.57-63.148 201.62-85.202 304.02l-2.939 9.83c-9.609-4.82-57.393-31.65-63.321-37.24l.008-.6c29.021-103.7 36.076-289.585 115.614-363.572m1071.34 65.682c32.74 1.883 82.95.335 116.23.231l184.23.082 64.99.107c13.54-.038 33.63-.755 46.43.843l.77 1.091c.22 7.682-.83 75.648-2.21 81.199-6.14 3.312-84.37 1.315-97.98 1.78-1.97-.74-70.97-.155-80.75-.772-.07-10.029 7.08-74.305-2.26-74.62-17.03-.573-55.94-1.896-72.17.703-8.3 1.328-1.95 63.251-7.39 73.586-13.17 3.972-120.86 1.402-138.84 1.355-3.61-10.167-10.18-20.294-14.74-30.196-8.54-18.557-18.78-36.516-27.6-54.886 9.48.014 22.13.359 31.29-.503m-249.45-642.169q2.175-.059 4.35-.051c11.97.064 24.31 2.294 34.53 8.793 8.26 5.248 12.19 14.974 19.57 21.617 30.76 27.721 63.81 53.204 92.15 83.501 4.94 5.28 10.11 10.429 15.19 15.574-50.13 3.99-99.87 10.897-149.1-8.588 2.38-7.371 19.31-42.913 16.8-47.136-9.53-16.04-20.67 21.088-23.03 27.297-18.79 42.347-35.71 87.31-54.17 129.77-21.78-18.947-46.55-27.773-71.75-40.128 3.56-12.004 12.16-33.861 16.9-45.805 15.25-38.37 30.14-85.205 53.01-119.288 13.65-20.325 23.85-22.121 45.55-25.556m470.57 565.128c22.65.858 157.58-2.344 165.13 1.132 5.57 2.559 17.93 37.846 19.95 45.207-4.02.816-18.93.551-24.01.606l-56 .472c-48.55.062-100.94 1.503-148.84.563-20.94.594-46.18-.065-67.44.02l-128.25.34c7.36-14.426 9.26-33.573 21.89-45.467 9.11.303 20.76-.789 30.22-1.112q23.835-.646 47.67-.679l85.68-.572c17.25-.068 36.93.306 54-.51"/><path fill="#fefefe" d="M1245.13 405.594c5.37.947 20.31 7.627 30.44 9.995 43.61 10.197 84.28 10.607 128.43 3.678 10.47-1.643 25.82-3.371 35.91-6.191 14.1 14.236 20.35 23.512 37.17 39.231-8.37 5.903-14.84 9.993-23.67 15.197-23.32 13.917-71.06 37.219-98.04 38.635-36.41 1.91-69.63-49.135-92.17-72.19-5.61-5.733-17.96-19.783-18.07-28.355m500.13 339.938c5.29.43 17.35-.007 23.05-.023l45.96-.152c8.64-.089 20.94-1.03 28.77 1.077a517 517 0 0 1 12.23 36.572c-1.64.978-182.48 2.673-198.54 1.669-12.05.516-125.03.925-125.93.446-.05-.352-.09-.705-.14-1.058 6.64-12.107 6.01-36.988 22.56-37.167 64.15-.694 128.12-.105 192.04-1.364m-295.81-462.418c26.18 24.087 52.33 53.152 73.83 81.295 8.81 12.404 19.53 26.736 16.62 42.731-5.02 27.67-24.41 40.01-51.88 35.065-5.19-2.217-10.86-5.369-14.67-9.569-27.12-29.89-50.96-61.302-79.71-89.865 22.84-5.955 52.46-36.059 55.81-59.657M1005.5 604.186a4403 4403 0 0 0 84.36-102.463c11.65-14.43 30.15-34.857 38.98-49.887 14.44 6.961 36.47 17.271 49.1 26.844-23.73 21.669-46.08 45.838-69.87 68.118l-56.12 52.204c-7.1 6.572-17.51 15.411-24 21.839-7.91 7.835-10.71 22.402-20.35 31.945-13.172 13.046-30.247 25.429-42.157 39.246l-.363-1.136c5.966-8.769 20.422-22.824 20.192-29.499-4.914-8.048-15.764-.095-20.252 4.768 3.585-5.001 6.387-8.176 5.985-14.548-1.346-3.246-1.76-3.474-4.86-5.191-4.037-.219-16.904 13.5-19.308 13.814 4.334-4.723 8.578-9.44 13.175-13.913-2.076-3.682-3.411-7.229-7.013-8.992-2.947-.122-2.836-.12-5.669.737-3.789 3.344-13.937 14.849-18.225 12.153 3.377-3.613 13.603-11.012 18.147-13.045 4.377-2.289 10.653-4.39 13.145-7.475 2.021-9.875-6.797-11.948-14.186-8.634-6.999 3.139-14.619 7.094-21.093 11.154 2.819-2.726 9.925-9.727 12.837-11.58 18.083-11.505 46.702-11.238 67.545-16.459m37.84-448.871c4.57.964 16.31 10.011 21.51 13.208-6.51 1.053-15.04 3.221-17.89 9.836.04 3.199.28 3.314 2.31 5.991 3.41.763 5.88-2.901 9.68-3.534 7.83-1.305 13.65 4.19 18.85-3.687-.11-4.026-.96-4.042-3.38-7.76l1.32-.824c23.04.58 24.13 12.026 46.29 18.001 3.58-4.292 20.8-25.203 29.32-13.294 4.01 5.613 2.29 24.645-6.78 25.405-5.81.487-4.86 13.103-1.24 16.017 9.47 12.298 26.26 18.962 41.16 21.45-7.73 9.492-16.2 22.787-22.38 33.429-3.82 6.646-8.5 13.683-12.64 20.202-6.67-5.706-17.4-20.18-23.22-27.726l.22-.621c2.64-7.381 5.95-16.234 2.44-23.673-3.38-2.939-1.76-2.089-6.27-3.084-4.89 3.813-4.94 15.003-7.28 20.804-1.32 3.303-3.6 5.932-5.86 8.663-24.94 8.139-26.32 7.237-43.79-11.738 6-1.924 22.92-6.145 17.93-15.277-8.57-5.378-25.09 9.117-27.59 1.384-5.99-18.572-16.83-65.653-12.71-83.172"/><path d="M1059.46 195.81c12.44-.271 15.96 5.021 12.36 16.358-10.84.457-16.92-5.801-12.36-16.358"/><path fill="#fefefe" d="M1594.54 686.979c9.47 1.682 45.45.539 57.25.495l93.06.188c17.91-.015 39.67-.751 57.16-.015 1.32 9.086 3.78 19.259 5.78 28.341-5 .019-9.66.249-14.56-.749-1.08.385-32.35.321-35.77.351l-107.6.876c-20.71.115-46.38-.458-66.77.873 2.58-10.931 5.35-20.844 11.45-30.36m-274.61-468.542c7.67-.049 11.24.789 18.42 1.627 14.51 1.693 58.28 29.562 65.25 40.21 2.19 12.242-31.32 38.744-35.69 52.072 2.13 5.287 4.32 8.404 7.4 13.214-22.75-25.242-68.86-47.579-79.43-82.373-.48-1.58.08-9.034.23-11.134 8.82-9.209 11.26-11.137 23.82-13.616m-81.51 207.258c.34 1.49 2.6 29.169 2.58 30.805-.21 14.43 12.34 90.753 8.99 96.647-8.34 5.821-21.47 5.535-31.27 4.709-5.54-.696-9.54-.555-13.3-4.721-1.27-7.526-3.7-53.407-1.48-58.603 1.05-2.475 7.91-4.728 9.72-8.25 4.16-8.127 7.03-17.698 10.31-26.253 4.48-11.649 9.36-22.961 14.45-34.334m86.17 385.89c3.95 3.657 38.49 62.93 43.48 70.962l38.5 61.289c3.76 6.043 17.66 24.821 15.7 30.411l-2.96.554c-8.77-1.698-31.27 1.817-40.04-.497-1.82-1.915-3.27-4.844-4.02-7.367-15.43-52.272-34.54-103.249-50.66-155.352m-67.45-431.681c31.4 20.245 100.63 16.51 135.91 14.026 9.27-.653 32.89-9.687 34.5 6.951-2.13 2.129-3.25 1.847-6.5 2.658-14.46 1.675-28.91 4.867-43.56 6.27-36.68 3.513-76.58 1.826-111.48-10.754-3.12-1.124-12.05-2.775-13.44-5.294 1.35-4.642 2.58-9.465 4.57-13.857m-150.15 66.763c2.73-.177 5.87.373 7.54 2.562-.87 4.669-35.97 45.134-41.43 51.788l-48.87 60.149c-7.24 8.809-16.97 21.459-25.58 28.916-3.555 3.077-19.657 5.583-25.417 6.719-2.887.446-3.344.506-6.244.427.402-2.007 6.33-4.509 9.052-6.71 5.168-3.99 9.77-8.593 14.159-13.425 30.31-33.364 59.96-67.204 89.65-101.106 8.61-9.831 17.86-20.218 27.14-29.32m798.27 426.962c3.02 1.306 3.58.786 4.59 3.722l-1.61 1.059c-11.5.953-30.52.542-42.59.541l-84-.291-267.51.948c-6.46-.038-39.52.637-42.95-.606l-.72-1.55 1.54-1.698c2.46-.512 2.89-.356 5.3-.029l.73.103c7.86-2.023 77.49.27 89.97-.342 3.42-.167 20.56-.87 24.26-.851l192.37-.131 77.82.057c9.29.02 34.95.498 42.8-.932"/><path fill="#fefefe" d="M1420.26 261.592c3.28 1.641 12.99 7.457 14.15 10.498 7.93 20.861-23.14 47.112-38.2 55.905-1.74.623-2.74.505-4.6.555-6.56-3.258-8.42-10.196-11.35-16.976 20.65-12.172 26.47-31.16 39.2-48.879zM1249.23 230.6c2.61.759 27.71 2.424 32.43 2.831-.18 2.569 0 5.618.07 8.236-72.8-19.457-91.63 18.77-118.43 76.07-2.39 5.141-6.82 20.329-10.68 22.907-13.61-18.514 24.56-70.883 33.78-86.653 13.16-22.499 40.5-19.388 62.83-23.391m-199.87 1001.89c22.76 2.99 153.92-2.1 161.6 1.9l.47 2.03-1.82 2.49c-5.08 3.35-55.45 1.14-66.2 1.18-11.81.77-27.84.52-39.95.66-29.36.52-58.74.43-88.1-.27-8.07-.16-26.822 3.47-31.37-2.82l.775-2.41c9.232-4.06 50.755.49 64.595-2.76m708.61-435.849c11.33.548 100.82-1.762 103.66 1.359l-.93 1.637c-7.08 3.111-16.18 1.372-23.87 1.5l-68.99.638c-33.15.547-66.31.711-99.47.493-11.99-.018-25.36.614-37.13.243-3.99.584-17-.069-21.71-.031-21.4.336-42.79.402-64.18.195-5.3-.027-18.11 2.177-21.03-1.322l.92-2.043c5.74-3.249 18.59-.628 25.48-.92 54.12-2.294 108.9.024 163.16-1.003 11.32-.214 34.18 1.186 44.09-.746m-675.33 509.949c-1.17.17 12.46.36 11.63.29 9.69.85 38.05-3.15 44.64 3.24l-.75 1.8c-2.01 1.63-3.78 1.99-6.39 2.04-54.83.85-110.04-.57-164.851.89-9.47-.99-49.572 1.8-54.003-1.77l.33-2.3c6.034-5.86 147.954-2.88 169.394-4.19m45.92-152.13c1.91.47 25.31.31 29.45.27 35.91-.31 71.86-.85 107.77-.02 3.58.08 3.27.19 5.12 2.3l-.68 2.25c-4.56 3.93-32.89 1.81-40.91 2.35-4.41.3-17.67.74-22.07.43-36.01-1-72.36.81-108.41-.5-6.98-.25-35.82 2.34-39.43-1.63l.59-2.38c6.14-4.6 56.54-1.84 68.57-3.07m74.45-54.13c7.25 5.01 121.64-4.08 125.09 3.31-5.52 7.95-15.72 3.71-23.15 4.01-12.98.52-25.97-.07-38.93.11-5.52.07-15.89-1.04-20.42 1.12-12.21-4.72-84.04 2.3-101.45-1.07-5.77-1.12-18.94 3.53-21.93-2.99l1.16-2.13c4.06-2.41 68.06.72 79.63-2.36m46.01-52.99c11 5.7 129.45-5.07 136.89 2.49l-1.09 1.91c-5.72 3.82-8.22 3.49-14.78 3.33-12.58-.31-25.28-.52-37.87-.15-1-.74-132.3 2.74-137.63-1.88l.62-1.82c7.97-5.87 39.81-.24 53.86-3.88m-108.65-702.662c2.29 2.563 5.08 7.175 7.04 10.166-9.06 26.483-19.19 53.53-29.26 79.676-.63 1.626-4.1 1.982-5.94 2.461-3.51.115-3.73-.422-5.85-2.397-2.2-9.803 28.36-79.989 34.01-89.906m230.95 643.878c19.03.478 38.42-.138 57.35 1.362 5.26.417 15.7-1.595 17.05 5.066-3.27 1.987-91.46.737-104.47 1.014-10.99-.146-65.89 2.491-72.03-1.92l-.21-2.052c5.4-4.606 99.34-1.329 102.31-3.47M1703.19 728.4c4.4 1.307 24.31.426 30.47.539 24.41.45 50.98-1.348 75.21-.448 2.77 1.696 2.01.541 2.79 3.246-.58.454-1.17.908-1.76 1.362-36.17-1.351-89.78 1.188-124.17.249-21.08.875-42.96.132-64.1.487-10.23.172-35.67 3.004-43.56-2.229l.38-1.81c5.14-1.432 21.56-.599 27.83-.553 20.57.15 41.18.384 61.76-.139 10.18-.259 24.28.904 33.98-.523zm-263.13 112.219c6.35 2.522 16.95 10.153 25.83 13.953-1.93 6.255-3.61 8.276-7.39 13.731-.65 2.474-1.25 4.919-2.02 7.359-5.74-11.134-11.32-23.602-16.42-35.043m28.19-11.336c3.79-.29 4.65-1.071 7.14.776.25 1.599.95 3.924.2 5.187-4.36 7.303-4.67 7.593-10.71 4.492l-11.54-4.942c5.84-3.136 8.69-2.49 14.91-5.513m56.32-75.149 2.61.48c1.14 3.724-1.19 10.167-4.76 11.958-1.22.612-3.26-.477-4.62-.92l-8.59-6.542c6.2-2.577 8.81-3.4 15.36-4.976m379.81 73.886c5.72 1.192 13.18 1.033 16.56 5.641-.98 2.069-.65 1.406-3.43 2.567-3.69 2.026-4.34 3.14-8.17 3.058-3.18-2.993-3.47-6.627-4.96-11.266m-46.14-78.053c3.54.893 14.54 1.628 15.77 4.615l-2.96 2.301-9.86 5.459c-1.51-4.855-2.35-7.302-2.95-12.375m-296.62-62.932c6.02.811 10.47-.862 14.86.984 1.67 3.254.78 3.386-.41 7.754l-.59 1.782-1.41.629c-4.12-2.161-9.01-7.654-12.45-11.149M1021.09 155.94c3.75-.069 5.73-.498 8.94 1.382 1.44 4.029.32 5.373-1.08 9.919-1.28.833-1.35.474-3.35.561-4.41-3.06-4.9-6.805-4.51-11.862"/><path d="M1112.93 94.739c10.68.276 12 .7 16.82 10.546 6.09-5.523 10.69-11.016 19.92-8.128 3 2.581 2.29 1.277 3.25 4.862-.81 2.856-.78 3.051-3.02 4.799-3.65 1.906-12.87 9.387-14.68 9.762-8.5 1.768-21.68-8.422-24.66-16.233-.65-1.685 1.61-4.364 2.37-5.608"/></svg>