<svg xmlns="http://www.w3.org/2000/svg" preserveAspectRatio="none" style="display:block" viewBox="0 0 2048 1152"><path fill="#fefefe" d="M0 0h2048v1152H0z"/><path d="M974.624 41.444c4.063-.705 25.816-.535 30.566-.457 56.95.943 134.32 15.502 181.88 46.331l719.6 10.87c14.97.252 18.55 1.277 28.26 11.345 1.85 10.827-2.06 22.564-2.4 32.904-.08 2.642 3.16.18 1.23 11.432-1.66 9.741-.19 29.047.01 40.53.29 16.533-3.01 32.903-3 47.73.02 14.195 1.35 28.6 1.21 43.959l-3.34 320.147c-.08 21.034 1.96 41.196-.82 62.672-1.03 7.95 2.54 22.813.61 30.538l-2.2.99c.61 2.948 3.07 9.662 2.95 11.987-.72 13.458-2.91 24.431-.29 37.888.93 4.729-6.24 3.122-.4 13.902-1.57 30.469 4.5 145.332-4.61 165.36-3.05 6.688-15.09 9.017-21.76 10.006-8.59 1.271-17.95.345-26.64.289-9.42-.061-18.83 1.102-28.24.956-9.12-.141-18.23-1.507-27.35-1.457-7.48.04-14.75 2.383-22.2 2.646l-91.33 2.782c-8.59.296-20.87-3.368-26.95-1.093-3.09 4.757 32.51 61.389 33.06 77.059-1.32 3.13-.39 2.21-3.42 3.48-3.12-.34-4.82-2.74-7.02-4.88-42.04-40.88-125.55-51.405-168.06-5.51-3.98 4.3-13.88 15.36-19.68 15.89-8.05-6.54-3.65-.19-10.9-1.34-4.22-4.84-13.88-69.781-14.68-79.786-17.25-2.159-54.48.711-74.15.472-49.81-.606-100.14-.2-149.9 1.771-15.22.603-38.51-1.186-52.62 1.405.01.951 0 1.902-.02 2.853-.35 12.911-.86 25.097-10.14 33.964-20.69 4.267-61.83.541-84.49 1.653-15.52-.125-31.43 2.682-46.85 3.071-34.21.863-67.67 5.574-101.632 8.267-21.247 1.68-43.488 2.67-64.79 3.68-25.937 1.24-62.015 9.79-86.641 6.43-10.541-9.19-10.25-4.06-19.838-19.507-6.557 15.927-10.271 17.817-24.384 8.197-8.38-16.2-8.24-32.962-12.956-43.247-17.812 4.535-52.156-1.29-71.146.254-39.696 3.227-79.501 2.413-119.345 1.911-10.62-.134-9.475 8.102-13.727 16.532-7.704 15.271-21.621 61.02-34.24 68.64-1.093.13-2.671.56-3.504.15-8.443-4.13-4.164-12.9-2.45-17.53 4.672-12.62 8.763-24.37 13.991-36.312l24.621-55.809c4.761-10.935 12.19-30.584 18.711-39.808 11.676-15.275 30.454-24.589 43.731-37.943 18.765-18.873 31.63-41.307 53.113-57.635 5.113-3.885 16.796-12.629 19.918-17.636.509-3.276.47-3.672-.524-6.837-10.594-11.122-46.929 14.512-57.305 21.185-7.762 2.731-16.884 15.072-27.595 14.523-1.545.081-5.182-.601-6.12-2.178-9.242-15.521 8.031-58.26 12.732-72.44a3493 3493 0 0 0 22.914-69.617c3.576-11.179 12.001-27.166 2.21-36.296-1.422-.371-2.374-.885-3.801-.363-12.906 4.72-39.358 86.618-47.299 102.069-2.516 4.895-5.65 10.01-11.175 11.734-2.45-.093-4.46-.412-6.559-1.778-4.587-2.985-6.284-9.019-6.787-14.149-.887-9.06 1.471-18.785 2.568-27.813 1.792-14.749 13.595-96.425 11.761-104.529-.736-3.251-2.059-4.838-4.776-6.621-15.36 9.238-23.013 114.886-33.714 136.431-6.305 12.696-11.421 9.947-22.03 4.263-8.431-19.475-4.72-71.923-3.318-93.784.481-7.501.484-13.076-4.841-19.122-21.214 5.854-12.901 105.206-20.768 116.31-1.345 1.899-3.253 2.84-5.514 3.177-21.944 3.27-12.976-64.633-26.383-73.596-1.315-.879-2.226-1.05-3.765-.716-1.997.434-4.121 2.233-5.171 3.955-5.413 8.882-.577 29.284.902 39.164 2.437 16.281 6.836 33.233 8.106 49.557 1.49 19.137-.615 39.02-1.057 58.192-.209 9.094.829 18.007.888 27.051.202 30.851-80.908 146.14-100.569 176.311 47.608-19.642 111.156-13.03 151.649 21.14 2.008 1.69 1.837 3.95 1.611 6.17l-1.528 1.12c-12.435-3.24-25.821-8.94-37.736-13.13-38.25-13.42-66.454-14.91-103.813 1.64-6.528 2.55-13.084 5.27-19.638 7.72-7.175 2.69-19.479 14.84-26.559 12.19-.776-1.17-2.638-3.96-1.97-5.52 9.256-21.55 21.774-41.9 33.73-61.884 3.973-6.638 14.91-20.05 15.791-25.727-5.745-1.084-22.043 1.106-29.148.577-23.61-1.758-47.55-1.096-71.308-2.729-5.422-.373-12.566 1.873-17.987 1.731-37.874-.987-79.612-2.322-117.209-.125-1.7-2.02-5.917-6.687-6.163-8.981-1.301-12.118-2.035-24.959-2.796-37.082a5044 5044 0 0 1-4.674-83.636 14837 14837 0 0 1-14.601-274.399c-.517-12.207 1.25-25.549.143-37.173-5.31-55.806-1.123-111.472-6.992-167.258-.982-9.342-.035-22.978-.21-32.806l-1.985-79.834c-1.406-44.682-2.964-89.289-2.372-134.009.236-17.78 12.866-17.699 27.443-17.588 24.207.183 48.383-.01 72.58-.13 7.76-.038 16.129 2.196 23.861 1.564 64.281-4.385 129.04-1.923 193.415-2.434 4.834-.038 11.45-2.108 15.926-1.797 29.794 2.068 59.12 3.4 88.973 1.072 7.991-.292 16.305.744 24.256.496 68.069-2.119 136.05 2.56 204.14-1.433 18.526-1.086 37.52.21 56.102-.392 12.406-.402 21.515-7.647 32.885-11.806 46.972-18.758 95.465-27.915 145.826-30.623"/><path fill="#fefefe" d="M589.597 177.584c27.785 2.17 62.218-.635 90.44.094 51.987 1.342 104.01 1.624 155.966 2.345l136.644 1.888 307.013 4.077 133.42 2.048 52.64.541c38.41.448 27.59-2.225 32.39 35.409 4.94 38.728 9.73 77.545 16.75 115.996 1.9 10.378.37 19.73 7.1 27.425-.79 2.301-2.26 5.837-1.43 8.236 9.48 27.397 11.73 66.425 24.09 91.708l-1.99.957c-.14 2.834.97 3.373 2.87 6.144-.53 4.136 1.88 10.491 2.23 15.982-2.31 1.702-24.14.619-28.53.581l-198.33-3.35c-49.45-.626-98.91-.775-148.37-.446-43.84-.658-89.63.634-133.78.69 4.1-21.88 5.39-43.683 1.64-65.611 8.77 6.358 17.28 15.51 26.98 20.861 4.86 2.684 7.37 4.042 11.78 7.531 3.77-3.168 11.25-10.218 11.08-15.281-5.69-5.496-15.68-5.644-23.68-13.084-15.36-14.277-12.24-27.965-30.9-37.591-.89-9.972-5.65-32.194-15.38-36.48-15.08-1.369-19.66 25.101-22.879 36.148-20.85 14.083-23.645 29.908-43.814 46.369-4.348-.965-6.757-2.473-10.316 1.049-7.306 7.227.196 17.957 9.595 16.05 4.852-.984 10.117-4.131 14.276-7.177 9.687-7.093 19.724-14.972 26.882-24.752-4.574 27.017-4.129 45.906 1.568 73.093l-324.643-1.08-106.077.583c-21.033.25-46.116 1.214-66.847.368 2.585-13.161 8.677-28.025 10.986-41.887 1.198-7.197 3.493-14.959 4.501-22.4.801-2.796.263-8.865 1.104-11.248 7.039-19.95 7.511-41.802 11.323-62.894 4.417-24.436 10.336-49.804 11.569-74.568 1.085-21.798 8.564-41.105 8.796-62.887.058-7.118-1.34-17.837 2.644-22.707 2.027-2.478-2.711-2.552-2.091-8.69l2.124-3.004c9.992-1.311 32.045 2.021 40.656-1.036"/><path d="M1010.19 269.417a183.5 183.5 0 0 1 64.72 7.555c55.21 16.179 90.51 49.26 139.78 74.492 27.86 14.263 56.65 23 87.33 28.671 43.42 8.025 88.84 7.636 132.79 5.1 10.62-.614 64.68-9.609 69.81-7.633 1.79.691 1.84 1.599 2.49 3.2l-1.39 1.97c-11.47 6.126-62.14 9.507-79.02 10.602-79.62 5.168-160.68-2.888-231.08-43.082-58.91-33.637-87.14-63.426-159.78-72.376-54.28-3.822-82.627 16.087-126.19 44.585-21.044 13.766-42.392 26.814-65.103 37.684-73.869 35.356-165.214 46.026-245.722 32.387-14.449-2.448-29.215-5.197-43.045-10.146-3.258-1.166-7.358-2.431-8.931-5.757l.774-1.637c2.39-.737 4.472-.615 6.905-.244 8.055 1.228 16.193 4.124 24.114 6.114a311 311 0 0 0 37.951 6.751 447.8 447.8 0 0 0 144.359-7.801c37.493-8.481 72.247-21.763 105.902-40.395 46.98-26.008 87.212-65.941 143.336-70.04"/><path fill="#fefefe" d="M113.601 108.073c16.08 5.778 49.912.843 67.594.886l245.523-.263c56.919-.03 114.699 2.04 171.807 2.077l482.135-1.746c214.75 1.378 429.48 4.524 644.17 9.439 18.71.319 178.27 1.717 183.52 4.731 1.01 7.815-.43 34.74-1.13 43.475-11.88-1.081-25.69-.287-37.86-1.261-2.64-.21-5.28 2.411-8 2.279-3.04-.134-6.09-1.038-9.13-1.085-31.2-.486-61.94-1.363-93.09.291-14.46.019-29.66-2.685-44.07-1.997-29.96 1.431-59.41 2.181-89.41 1.901l-604.91-7.892c-12.81 2.008-43.486-1.243-57.393-1.455-8.897-.135-18.089.388-26.853.296l-69.84-1.326c-8.423-.149-17.334.834-25.795.763l-412.558-3.928c-82.325-.852-163.958-1.062-246.27.779-1.828.041-6.446 3.436-8.082 4.572-9.286 16.641-1.314 55.385-.651 74.713 1.835 53.467 7.892 106.713 9.358 160.319.389 14.251 3.018 30.333 3.971 44.819l17.523 242.456c2.121 33.242 3.185 66.666 5.419 99.904.539 8.011 2.729 15.906 3.409 23.906 1.727 20.343 2.536 40.667 4.678 61.024-13.502-.504-63.865 2.548-76.639 5.033-1.258 1.087-1.792 1.76-3.425 2.109-.348-.531-3.241-78.751-3.522-86.544l-10.614-297.981c-.993-29.818-5.123-60.825-3.99-90.806.024-.623-2.221-2.084-1.936-4.87 4.064-39.662-2.692-79.259-1.128-118.996.32-8.78-5.142-21.09-1.882-31.616 1.354-4.374-.441-7.468-2.722-11.119.594-2.301 1.056-4.805 1.825-7.098 3.038-9.055-2.38-23.006-2.342-32.901.015-3.815.905-6.249.79-9.21l-1.254-37.563c-.241-9.882-1.208-20.181-1.136-30.059.027-3.751 1.253-3.926 3.91-6.056M1503.41 586.365c.27.058.56.093.82.175 14.29 4.305 20.18 122.319 30.91 142.097 2 3.701 5.22 6.118 9.19 7.302 1.74-.051 3.22-.212 4.69-1.221 20.1-13.803 11.03-85.394 15.39-108.699.55-2.922 2.12-5.271 4.7-6.798 1.26-.746 2.54-1.152 3.95-.735 16.97 5.032 3.31 98.081 12.89 113.572 1.35 2.186 3.05 3.701 5.64 4.137 19.99 3.361 28.49-65.12 39.8-71.345 2-1.1 2.71-.597 4.78-.007 7.4 8.663-5.61 43.797-8.28 54.721-2.79 11.354-5.1 22.887-7.31 34.366-3.46 17.929-2.39 35.801-2.57 53.939-.14 13.251-3.83 27.137-2.09 40.289 3.48 26.199 24.12 59.811 36.32 83.365l25.55 50.003c-5.33-2.709-10.62-5.27-16.27-7.219-33.54-11.559-73.55-12.715-105.86 2.943-16.75 7.327-29.06 19.111-40.36 33.17-2.54-11.951-2.81-24.629-4.04-36.789-1.37-13.468-3.52-26.879-5.46-40.274-1.39-9.551-2.3-20.026-6.45-28.825-8.18-17.365-37.98-34.309-51.69-48.824-6.3-6.668-10.43-15.248-15.24-23-5.82-9.374-12.69-17.079-20.86-24.477-6.92-6.27-28.7-21.714-30.32-29.469-.58-2.782-.16-3.706 1.32-5.887 18.78-8.14 66.09 39.352 82.64 36.105a9.26 9.26 0 0 0 6.13-4.278c1.8-2.912 2.29-6.562 2.12-9.934-.27-5.252-2-11.169-2.89-16.431-7.32-43.159-21.56-85.998-33.35-128.172-1.71-6.097-3.73-14.971-.07-20.763 1.02-1.629 1.44-1.674 3.28-2.119 5.33 2.499 9.4 10.75 12.08 15.902 8.84 16.943 15.73 34.598 21.63 52.759 3.35 10.321 5.87 21.271 10.25 31.189 1.89 4.275 4.67 9.636 8.27 12.733a9.67 9.67 0 0 0 7.82 2.18c3.13-.483 6.13-2.487 7.85-5.116 2.55-3.872 2.98-9.171 3.02-13.675.16-17.621-3.32-36.341-5.29-53.905-2.71-24.033-4.52-48.654-8.59-72.476 1.67-3.718 3.78-7.071 5.95-10.509"/><path fill="#fefefe" d="M1859.46 188.165c-.14.011 8.08.738 8.61.801 9.13 1.095 30.49-2.113 38.27-.06 1.43 4.418.11 40.098.04 47.197l-1.04 112.363c-.29 42.705 1.25 85.361-.65 128.133-.72 16.04.55 31.761-1.47 47.909 1.2.934 1.79 1.146 2.27 2.559-4.85 20.658-1.38 16.188-.95 35.697l2.71 88.031c1.72 52.524-.43 106.595.02 159.296.06 6.577 1.66 34.802.03 37.551-3.6 1.362-12.74-2.046-19.13-1.192-7.89-.099-35 .358-40.69-2.365-.34-3.627-.09-6.664.1-10.265 3.08-56.663 3.29-113.545 1.81-170.257-.24-9.229.92-18.348 1.01-27.558.05-5.407-2.11-10.893-2.27-16.3.24-8.09 1.31-16.106 1.41-24.26.14-11.394-1.39-22.591-1.54-33.955-.09-6.988 1.4-14.206 1.35-21.234-.56-13.098-1.81-26.009-2.14-39.231-.19-7.548.77-14.855.93-22.982.21-10.617-1.46-22.648-2.1-33.422l2.6-4.142c-.5-4.323-1.72-11.014-1.54-15.206.64-15.057-1.66-30.318-1.69-45.107-.01-5.978 2.04-17.803 2.74-24.521l-2.15-.87c.05-8.221-2.99-25.393-2.39-30.698 4.48-39.206-.13-79.368-.5-118.862-.24-25.112 2.04-10.727 16.35-17.05M777.129 556.509c16.999.445 34.05-.302 51.057-.118q61.594 1.011 123.196 1.239c59.348-.244 118.638-1.781 177.998-1.154 95.12 1.006 190.02 7.413 285.06 10.799 35.69 1.062 71.41 1.276 107.11.641 14.56-.18 35.12-2.638 49.06-.47 2.12 5.916 4.27 11.776 5.74 17.897.46 1.879.7 1.936-.31 3.605-8.19 2.688-40.55 1.007-50.81 1.045-2.68-4.827-4.88-9.09-9.51-12.35-4.11-2.891-8.95-4.165-13.93-3.233-9.06 1.696-14.03 8.629-19.01 15.637-32.94-.278-65.88.034-98.81.933-34.92 1.224-69.78 3.794-104.72 4.965-49.72 1.051-99.35-1.425-149.02-3.416a6340 6340 0 0 0-137.065-4.012c-79.12-1.471-158.449.574-237.597.714-54.73.097-109.33-1.651-164.043-2.223a30.5 30.5 0 0 0-4.267-5.813c-4.169-4.425-10.48-6.127-16.415-6.16-8.19-.047-8.631 5.426-13.688 9.792-4.009 3.462-78.706 2.24-88.626 1.612-.132-.294-.282-.579-.395-.88-.9-2.39 4.074-16.337 5.394-18.816 12.451-5.726 267.061-9.489 303.601-10.234"/><path fill="#fefefe" d="M668.624 523.509c21.98-1.474 44.595-.673 66.65-.653 64.743.059 129.437 3.129 194.17 3.915 30.883.374 61.755-1.123 92.636-1.468 48.68-.36 97.37-.17 146.06.568l247.53 4.148c47.93.935 95.88 1.208 143.83.82 2.06 9.278 6.5 18.053 8.79 27.353-9.58 3.347-27.97 1.617-38.76 1.756-52.33.674-104.51.767-156.78-2.348-67.28-2.855-134.62-6.956-201.95-8.496-71.83-1.644-143.52.051-215.346.269-69.728.211-139.351-1.06-209.095-.102a8772 8772 0 0 0-201.271 5.361c-20.039.573-40.579 3.06-60.534 2.902-2.202-.017-4.298.323-5.868-1.295 1.901-8.807 4.487-18.239 7.987-26.532 16.368-3.243 35.468-2.08 52.253-2.693q64.832-2.387 129.698-3.505m846.406-333.777c12.44.971 28.02-.222 38.99 1.122 3.16 9.366 3.11 30.154 4.49 40.623 1.83 13.877 3.7 27.634 5.07 41.578 1.06 9.003 4.43 18.027 5.75 26.939 4.68 31.468 10.62 62.699 17.95 93.66 2.44 10.304 2.63 20.794 5.81 31.276 3.29 10.862 5.41 21.749 10.38 32.151.54 1.132-.34 5.067.24 6.432 5.03 19.947 10.57 39.764 15.28 59.794 1.27 5.233 5.44 11.742 5.98 16.955 2.39 23.677 15.69 43.659 18.37 67.333 1.16 3.569 2.72 7.605 4.23 10.998 6.72 15.075 8.5 32.35 14.95 47.685 23.35 55.461 45.34 111.505 73.57 164.781 2.65 4.996 11.46 10.838 12.64 16.243-3.87.983-9.95.007-15.22.615l-.86.104c-10.49-.429-22.42.201-33.02.526-11.56-33.018-28.13-64.918-40.09-97.829 0-.003-3.75-3.055-4.11-3.348-1.99-12.043-7.58-16.451-11.52-28.437 3.88-14.798 14.06-47.217 3.67-61.022-3.99-5.311-11.1-5.555-17.31-5.922-2.56 1.635-6.47 4.777-9 4.69-13.81-42.156-28.04-84.354-38.97-127.404-5.63-22.183-13.32-44.273-16.26-66.924-.29-2.253-3.53-6.97-4.01-9.208-1.88-8.781-3.47-17.585-6.22-26.166-.21-1.091-3.62-11.673-3.6-11.702 2.44-4.104-1.17-10.152-2.14-14.978-7.85-39.158-18.78-78.065-22.26-118.002-.3-3.43-3.37-8.022-3.62-10.333-2.89-27.213-8.61-54.715-9.16-82.23m-923.487 404.53c9.831 3.322 33.183 1.598 44.497 1.911 111.464 3.078 223.149-.255 334.654-.253 88.356.001 176.556 6.985 264.866 7.963 49.3.546 97.87-3.309 147.03-5.051 32.81-1.162 65.63-.237 98.46-.966a228 228 0 0 0 3.17 35.092c-6.59-.067-13.09-.233-19.65-.803-3.61-4.141-7.16-8.472-10.99-12.401-5.09-5.225-9.37-6.53-16.51-6.647-9.29 4.611-12.72 9.619-16.83 18.858-57.08-6.204-112.52-8.634-169.87-4.495l-90.84 6.906c-14.91 1.116-31.94 3.963-46.67 2.304-4.94-.556-9.68-3.235-14.14-5.324-12.31-5.769-22.37-9.65-36.01-10.908-5.86-.54-12.24-.613-17.95-1.877-8.41-1.862-16.54-5.942-24.9-8.276-49.147-13.712-100.614-.509-143.791 23.978-20.849-1.948-42.162-1.32-63.104-1.916l-110.811-3.655c-10.522-.326-36.622.979-45.348-1.397-4.127-1.125-8.391-5.714-11.91-8.202-4.345-3.072-9.142-4.5-14.465-3.454-6.895 1.356-12.896 7.073-16.709 12.685-8.128-.346-16.3-.303-24.435-.416 1.005-11.166 2.374-22.436 2.256-33.656M443.57 367.939l.789.709c-3.272 17.141-7.646 34.19-11.58 51.195a1803 1803 0 0 1-42.2 156.47c-8.375 27.159-16.469 54.789-26.14 81.51-4.374 12.084-9.622 23.793-14.287 35.758-14.114 36.204-28.468 71.926-43.885 107.607-8.209 18.998-13.885 39.3-22.957 57.868-5.302 4.959-42.945 4.437-52.015 4.798.079-21.217-3.776-42.439-3.447-63.553 27.352-40.678 50.627-85.276 73.342-128.691 29.926-57.195 59.481-114.294 86.211-173.07 19.606-43.113 36.825-87.331 56.169-130.601"/><path fill="#fefefe" d="M1602.2 249.418c3.23 2.351 3.51 5.401 4.53 9.116 9.85 35.926 17.66 72.405 27.64 108.223 1.29 4.607.75 11.178 2.11 15.214 18.78 56.077 28.63 114.997 50.54 170.023 1.23 3.111.59 7.591 1.98 11.434 2.35 6.49 5.67 12.925 7.89 19.391a1511 1511 0 0 0 38.39 101.896c2.08 4.932 7.72 14.563 8.98 18.77 6.37 21.233 16.98 39.744 25.57 59.955 7.62 17.929 15.62 34.868 26.18 51.278 2.02 3.132 2.54 8.56 4.33 11.875 4.02 6.532 9.47 11.99 13.2 18.838l.47.881c-6.1.682-9.85 1.048-16.09.997-6.51.394-29.54 2.841-31.88-3.905 1.25-2.507 1.74-3.147 2.1-5.865l-4.38-2.411c-1.14-3.995.22-6.206-2.53-13.631-6.51-18.041-18.32-33.809-26.98-50.527-9.84-18.992-14.27-42.309-25.95-60.562-1.2-2.23-3.04-4.748-3.88-7.131-5.65-16.061-10.03-32.913-16.21-48.774-31.89-81.837-53.2-169.077-68.58-255.453-.87-4.871-2.78-6.085-4.54-10.141-.43-.999 1.65-8.18.62-9.98-6.17-24.398-7.7-48.528-9.65-73.51-1.48-18.909-4.3-36.745-3.86-56.001m-231.28 619.14c22.57-2.046 45.49.522 68.12-.833 14.09 11.615 32.87 23.728 42.19 39.495 2.97 5.026 3.45 11.364 4.37 17.052-24.06-2.726-47.22.834-71.19 1.359-27.79.609-56.09-1.398-83.78.399-38.63.4-77.31 1.293-115.96 1.157 2.22-18.705 5.92-39.33 3.17-58.068 14.31.634 28.64.019 42.96.189 36.51.431 73.63.778 110.12-.75m-955.35 10.643c-2.876 6.841-7.704 13.251-11.565 19.595-8.012 13.164-15.933 26.357-24.542 39.144-28.276 2.887-57.966-.357-86.406-.237-28.843.123-57.492.847-86.368.528-14.067-.156-27.804.179-41.806-1.704-6.789.936-19.982 4.68-25.737 1.225-.776-6.726-1.991-46.369.551-50.07 42.937 2.345 86.878-1.443 129.796-3.218l86.342-3.56c14.931-.553 29.916-.463 44.823-1.475 4.457-1.045 10.293-.281 14.912-.228m1489.06-21.021 1.07.095 1.16 1.669c.31 9.621 1.82 43.35-1.51 50.391-23.57 4.647-52.2 1.603-76.18 2.309l-164.6 5.397c-2.93-1.717-4.94-6.539-6.63-9.502-7.66-14.401-15.53-28.74-22.65-43.419 11.82 1.336 23.99.671 35.87.658l72.38-.784c35.8-.468 71.58-.326 107.35-1.662 18.87-.705 35.34.408 53.74-5.152M501.272 300.618c.196.438.491 1.019.606 1.511 1.97 8.423-3.781 30.644-5.069 40.102-6.661 48.916-15.19 97.414-27.753 145.2-10.532 40.064-24.107 79.469-36.148 119.102-9.087 29.912-19.482 59.404-28.602 89.277-4.469 14.639-7.449 29.899-12.435 44.349-3.955 11.461-9.167 22.72-13.662 34.001-7.621 19.122-14.826 38.247-22.725 57.285-3.108 7.491-3.852 18.187-8.146 24.805-9.072 4.95-25.239 3.357-35.588 3.662-3.108-.215-6.088.53-9.195-.095 11.516-18.734 20.554-38.523 30.318-58.203 51.842-104.489 89.619-216.376 120.256-328.778l26.747-100.895c4.913-18.785 11.807-55.401 21.396-71.323M1111.7 495.48a8830 8830 0 0 1 306.64 2.16l80.53.991c14.82.16 30.04-.244 44.8 1.007 2.38.201 4.74.517 6.72 1.965 4.02 2.931 4.68 15.181 5.17 19.91-4.07 3.227-69.63 1.514-80.31 1.449-40.02-2.448-83.7-.787-124.18-1.383l-233.53-4.391c-16.12-.245-76.2 2.26-88-1.144 1.2-.508 2.63-1.07 3.58-1.999 3.41-3.36 2.94-13.27 3.15-17.864 25.12-.643 50.3-.254 75.43-.701m150.61 183.9c54.95-.97 109.83-.11 164.77-.156 4.39 13.86 7.97 27.963 11.63 42.025-28.71 1.548-57.78 3.338-86.52 1.885a5024 5024 0 0 1-157.29-3.282c-6.43-14.151-16.79-26.578-26.59-38.5 31.27-1.573 62.8-.004 94-1.972M729.128 873.487c6.356-.186 12.737-.459 19.096-.414 3.997.029 6.991-.001 9.899 2.935.403 1.317.523 55.1-.108 59.633-34.644 3.573-70.888 1.57-105.765 2.063-12.141.172-25.097 2.723-37.043 1.884-3.575.824-8.286-.639-12.054-.8-10.651-.456-20.716-.538-31.233 1.42 4.72-14.876 11.992-29.652 18.405-43.894 11.927-5.516 19.881-11.985 29.272-21.125zM574.207 496.518c99.574-2.028 199.258 2.212 298.84 2.416 22.902.047 45.774-.51 68.673-.804 17.776-.229 36.619.626 54.137-2.473.388 8.019 1.294 14.989 4.423 22.436l-87.03-.109c-33.498.332-67.21-1.565-100.722-2.347a3465 3465 0 0 0-134.487-.177 8061 8061 0 0 0-126.694 3.732c-18.451.703-43.627 3.654-61.287 2.027-2.028-4.904 4.12-18.477 5.162-24.151a5993 5993 0 0 0 78.985-.55m709.673 136.923c24.95-1.976 114.66-.075 134.39 6.94 4.98 5.329 4.38 22.901 6.38 30.713-53.21 1.697-106.6-1.091-159.88.527-34.24.6-68.6 2.249-102.82 2.208-10.73-12.018-24.02-21.263-37.6-29.762 15.99.399 32.51-1.859 48.48-3.01 36.99-2.666 74-6.119 111.05-7.616M968.796 49.566c57.814-5.933 151.514 9.674 201.734 37.485-47.37.47-95.86-1.162-143.28-.562-46.825.363-93.749-1.265-140.633.458-9.55.35-20.399-1.537-30.092-1.758-11.971-.272-23.905-.323-35.882-.336 43.666-21.504 99.705-31.527 148.153-35.287m701.294 268.337c8.75 9.649 43.89 152.579 51.36 177.229A3913 3913 0 0 0 1768.79 640c6.12 17.237 14.38 33.939 21.6 50.746 4.91 11.408 8.76 23.29 14.23 34.45 7.83 15.98 19.26 31.972 24.92 48.79 3.64 10.829-3.74 30.27-.11 40.371.74 2.064.41 3.237-.25 5.286-3.89-4.94-6.7-12.071-9.67-17.735-9.75-18.623-19.34-37.807-27.5-57.18-3.23-7.648-5.48-15.67-8.7-23.3-3.16-7.473-7.92-14.205-10.77-21.831-7.63-20.411-16.62-49.937-27.84-68.121-5.59-9.062-6.86-22.506-10.09-32.675-1.34-4.206-4.03-7.453-5.63-11.443-4.76-11.897-8.69-25.517-12.28-37.841-11.99-41.071-21.91-83.791-30.5-125.714-1.34-6.526-1.38-13.25-2.73-19.714-3.61-17.364-17.03-70.874-13.38-86.186M1197.3 727.874c26-.768 52.55 1.208 78.58 2.028 35.59 1.147 71.2 1.592 106.81 1.335 11.56-.024 51.25-4.705 58.75-.852 7.02 11.77 9.79 30.808 12.64 44.339.84 4.005 3.73 12.395 1.61 15.643l-3.16-1.786c-16.61-11.861-33.33-24.702-53.46-30.002-11.26-2.964-25.41-.338-37.03.198a3149 3149 0 0 0-89.99 5.522c-20.66 1.547-41.83 4.179-62.55 3.53-3.5-13.62-7.29-26.768-12.2-39.955m-541.132-91.809c70.127.406 140.23 4.746 210.348 5.913-9.865 7.313-18.477 14.26-26.61 23.522-3.846 3.77-7.19 8.284-10.643 12.424-36.357-2.677-73.479-.229-109.899.757-24.219.656-48.55-.077-72.734 1.261 4.782-11.907 11.902-31.113 9.538-43.877"/><path fill="#fefefe" d="M1346.27 767.538c8.41-.475 16.81-.878 25.22-1.21-.98 1.628-1.95 3.272-2.79 4.975-2.31 4.639-2.1 9.499-.4 14.287 3.64 10.278 16.84 22.586 26.47 27.268-42.63 2.529-85.83-.636-128.52-.948-17.19-.044-34.38-.242-51.56-.594a334 334 0 0 0-4.06-36.518c44.4 1.112 90.99-5.312 135.64-7.26m-535.074-82.993c3.524-.299 7.226-.976 10.655.06-.557 5.337-11.247 16.952-14.463 22.041-4.859 7.69-9.011 15.744-13.098 23.862-46.607-5.157-94.213-6.483-141.04-9.528l-20.172-.962c3.516-10.881 6.842-21.876 11.268-32.429 55.491.891 111.351-1.992 166.85-3.044m-179.487 43.248c52.776 4.723 106.602 7.831 159.575 9.401-5.479 12.026-11.101 24.297-15.062 36.915-11.269-1.341-22.658-1.994-33.972-2.878-13.628-.733-27.134-1.361-40.787-1.094-4.733-5.951-9.266-10.013-16.927-11.555-21.575-4.342-56.401 22.53-73.689 33.818 7.323-21.399 13.214-43.25 20.862-64.607m583.511 91.614 187.29 2.224c5.85 6.48 17.26 16.919 19.14 25.451l-.93 1.302-3.99-.117c-18.54 1.346-38.33-.412-56.95-.728-47.4-.804-94.71-2.691-142.12-2.487-.29-8.608-2.16-17.043-2.44-25.645m-464.335-.873 13.496-.494c-.729 10.257-1.95 20.903-4.755 30.809-13.65-.983-28.28.197-42.005.462-18.998.366-38.337.038-57.265 1.682l-17.153-.011c9.444-10.773 18.291-21.475 28.771-31.314 26.17-1.337 52.68-.385 78.911-1.134"/><path fill="#fefefe" d="M703.171 778.398c19.708-1.799 49.82 1.896 70.55 3.095-1.739 7.528-2.729 21.014-8.513 26.311-3.244 2.973-9.729 2.129-13.958 2.114a1897 1897 0 0 1-71.758 1.003c15.738-14.049 18.895-10.573 23.679-32.523m296.138-386.569c16.461 4.001 19.191 1.16 34.691.628 1.99 1.466 3.73 3.191 5.38 5.021 6.1 6.764 10.38 15.092 16.12 22.18 5.31 6.561 12.02 11.665 17.05 18.428-8.96-5.233-17.26-12.158-24.49-19.616-3.74-3.862-7.42-9.23-11.98-12.044l-1.45.811c-3.49 8.552.88 20.658 1.12 29.722.07 2.75-.04 3.269-1.8 5.167-12.16.899-24.33 1.051-36.515 1.222 1.14-7.099 2.428-14.25 3.185-21.398.5-4.667 1.62-12.336-1.516-16.187-2.325-.153-2.64-.051-4.589 1.221-4.763 3.11-9.194 8.515-13.367 12.448-7.196 6.781-14.73 12.801-23.055 18.135 3.326-4.764 8.103-8.875 11.885-13.338 9.395-11.086 17.116-24.219 29.331-32.4m-535.8 203.049c28.993-.648 58.104.002 87.12-.208-2.426 10.798-6.147 21.499-8.98 32.232-4.091.364-12.381 2.054-15.859-.315-1.764-1.202-1.541-3.349-1.803-5.315-1.44-4.193-2.731-8.813-5.667-12.223-4.451-5.17-10.827-5.243-17.098-5.758a53 53 0 0 0-3.178 1.642c-8.893 5.027-13.209 12.901-15.814 22.469-5.82-.082-11.646.349-17.47.279-3.789-.046-6.729-.215-9.425-2.966-.563-6.009 7.474-20.613 8.115-28.927q.033-.454.059-.91M394.98 816.993c13.68 1.603 27.978.375 41.753.023 2.116 16.46 4.915 21.676-.915 38.024l-17.951.44c-7.082.118-37.361 3.653-41.885.86.797-6.286 8.29-14.616 11.395-20.636 2.891-5.605 5.478-11.627 7.295-17.669zm17.052-44.865c8.695.794 17.582.611 26.303.483-.44 12.31-1.156 24.594-1.339 36.915-3.741-.049-7.509.111-11.251.174-9.524.486-19.087.308-28.621.273 6.072-11.806 11.342-25.052 14.908-37.845M1631.1 823.964c13.01-.444 26.24.164 39.27.288 1.79 5.382 10.22 19.58 9.95 23.942-16.37.261-32.84-1.146-49.18-.234-.25-7.982-.07-16.009-.04-23.996m-69.79-226.474c5.66-.204 14.58-1.605 19.53 1.288 1.41.825 2.33 6.396 2.76 8.125-2.84 2.055-15.18-2.628-21.96.653-7.48 3.623-9.84 10.378-12.49 17.66-.99 3.47-1.22 6.262-3.82 8.82-3.49.559-6.97.439-10.49.4-3.04-12.004-4.46-24.268-8.03-36.184q17.235-.52 34.5-.762M997.5 450.183c12.46.475 25.24-.285 37.72-.473-.73 10.772 0 28.745-5.47 37.884-.89 1.488-1.08 1.377-2.74 1.825-4.69-4.115-4.92-11.381-5.79-17.185-.26-3.187-.62-7.451-2.08-10.322-.93-1.817-1.21-2.437-3.17-3.084-6.66 4.903-6.69 19.826-9.81 27.325-.81 1.967-1.26 3.184-3.29 3.997-4.206-5.382-5.318-32.649-5.37-39.967M1633.64 775.2c5.44-.362 10.56-.019 15.97.51 4.09 11.065 13.83 28.708 15.75 39.055l-1.43 1.142c-10.11.241-20.97-1.928-30.87.318.82-9.403-1.35-35.621.58-41.025M451.97 636.279c8.414-.177 18.345-1.37 26.544.362 3.609 7.115-4.365 41.669-2.297 53.264.056.316.12.631.18.946-.355 1.712-.309 2.306-1.563 3.578-2.548-12.649-4.716-38.879-18.605-44.097-2.243-.843-7.165-1.677-8.363-3.598.979-3.871 2.031-7.03 4.104-10.455m-26.526 95.609c3.25-.078 6.613-.409 9.709.752 3.436 7.929 4.372 23.23 2.918 31.733-2.036 1.419-7.022.765-9.571.721-4.412 0-8.642-.013-12.991-.82l-.786-1.594c.52-8.389 4.684-24.802 10.721-30.792m162.663-95.779c6.335-.187 12.632.1 18.96.363-8.148 18.15-13.723 37.404-22.539 55.264-.91 3.462-2.245 5.974-4.146 8.986 1.781-21.577 7.611-42.815 7.725-64.613m880.883 4.17c5.46-.023 11.01.552 16.46.873 1.71 21.781 6.86 43.849 9.61 65.618-4.83-7.288-6.9-18.837-9.76-27.253-4.59-13.496-9.49-26.688-16.31-39.238m-942.569-4.941 13.939-.27c-6.374 18.961-6.609 39.08-12.549 57.916-.382.489-.79.37-1.384.452-.167-.701-.316-1.22-.402-1.919-.58-4.715-1.403-53.025-.871-54.603.215-.639.845-1.051 1.267-1.576m1069.899 5.795c2.63 9.762 8.57 20.19 13.19 29.189-3.33 9.884-5.58 20.105-8.02 30.239-.76 2.239-1.35 4.128-2.91 5.961.35-21.81-3.27-43.663-2.26-65.389m-61.22.332c3.68.099 8.03-.241 11.32 1.522-.59 17.749-1.05 35.502-1.39 53.257l-.43 1.726c-2.26-3.303-8.19-48.327-9.5-56.505m-524.31-145.506 5.93.117c6.85 5.497-.24 13.098 5.86 20.38l-.79.635c-3.7.5-7.13.876-10.87.606l-1.1-1.415c.64-3.438 1.64-7.372 1.61-10.859-.02-3.437-1.83-6.028-.64-9.464m625.89 252.983c.62.717.51.515.9 1.212 2.21 3.964 6.32 11.701 5.15 16.145-3.32.087-5.65.599-8.62-.95-2.28-5.717.63-10.873 2.57-16.407M430.26 710.706l1.86 1.754c1.001 3.129 1.983 6.322 1.591 9.653-.332 2.814-1.113 2.916-3.287 4.606-1.243-.704-1.939-1.423-2.885-2.463-.291-4.561 1.779-9.083 2.721-13.55"/></svg>