<svg xmlns="http://www.w3.org/2000/svg" preserveAspectRatio="none" style="display:block" viewBox="0 0 2048 1462"><path fill="#fefefe" d="M0 0h2048v1462H0z"/><path d="M160.087 110.177c28.248-.386 58.454 2.61 86.75 4.184l128.367 6.79c38.192 2.32 77.865.367 116.362 2.609 21.561 1.255 45.34 4.207 66.615 4.621 31.296.609 61.789 4.534 92.652 5.967l448.287 19.838 195.65 7.895c7.34.307 14.67.228 22.03.187 18.53-.102 37.58.507 56.04 2.145 20.23 1.796 40.05 1.264 60.23 2.05 30.51 1.189 60.94 3.725 91.48 4.236 32.71.724 65.53-.529 98.13 2.835 3.71.384 7.89.981 10.62 3.792 2.18 2.29 3.41 12.069 3.57 15.171.65 12.145.74 24.411 1.27 36.553l4.01 117.849 4.57 135.089c1.01 30.8 2.91 65.564 1.83 96.004-15.05-4.263-35.51-16.935-44.4-30.062-1.31-16.76-1.09-35.875-1.66-52.989A5303 5303 0 0 1 1598.92 378l-4.23-121.087c-.51-13.714-1.68-26.788-1.88-40.658-26.1-2.236-50.47-2.653-76.42-3.693-26.81-.291-55.46-5.095-82.07-5.105-61.98-.022-123.98-2.914-185.92-5.519l-176.44-8.211c-36.15-1.9-69.37-5.155-105.735-5.002-.566 23.988 1.847 48.582 2.403 72.705l2.441 163.569c2.569 74.519 4.457 149.06 5.663 223.614.027 3.194.396 5.564-1.105 8.261-5.307 4.586-32.969 6.756-38.539 2.362-5.631-4.442-3.986-26.063-4.241-33.416a4128 4128 0 0 1-1.694-83.861l-5.885-230.569c-.886-37.933.407-87.687-3.036-124.564-31.29-1.659-58.186-3.507-89.849-3.82 1.58 31.343 1.393 68.219 2.122 99.994l4.674 157.152 17.31 616.778c25.211.4 59.622 2.17 83.515.64-.201-5.82-.15-11.7-.034-17.53 1.056-52.749-3.044-105.299-2.094-158.068l7.139-6.311c-20.737-11.648-20.995-23.565-5.537-40.713-6.472-5.089-9.601-8.435-15.054-14.462-2.274-10.566-2.056-11.672 1.34-22.035l6.627-5.84c-9.545-28.815-23.885-73.366-34.867-100.56 1.384-3.982 3.067-6.973 5-10.687 31.582-8.98 79.555-3.359 112.906-6.881 12.66-1.337 13.02 7.087 17.69 15.634 9.14 16.733 29.21 81.365 39.02 91.269 6.31-5.831 13.67-10.517 22.78-4.804 2.67 1.679 5.48 9.512 7.03 12.597 21.71 43.441 50.64 85.229 48.68 136.073-.07 1.778.91 4.421 2.47 5.527 15.9-7.495 18.21 4.64 23.85 16.449 5.93-10.493 10.94-23.034 16.89-33.664 24.87-43.774 44.77-94.633 79.45-131.843 19.77-21.22 49.74-46.616 73.22-63.659q-.93-10.845-2.01-21.68c-17.76 3.5-35.88 7.554-53.28.012-30.11-13.054-42.7-50.152-54.15-78.258-15.78 1.417-59.83 4.788-35.79-22.125 24.49-27.424 18.76-47.729 8.87-79.415a407 407 0 0 1-8.81-31.6c-48.42-19.029-57.36-98.601-12.26-126.227 14.32-8.768 21.57-9.612 37.62-10.857 30.14-35.983 63.11-55.558 109-64.682 138.46-22.723 249.87 62.957 247.27 204.335-.25 14.109-2.86 53.726 3.79 63.901 22.05 33.746 73.17 43.711 90.71 83.495 9.78 22.068 12.2 45.133 4.38 68.148 34.35.291 70.26 2.358 105.26 2.787q31.035.34 62.04 1.197c8.72.224 27.32.146 35.01 1.842 24.2 5.341 36.97 54.226 32.49 74.673-3.97 18.106-8.24 35.354-12.38 52.609l-27.81 116.017a8826 8826 0 0 0-50.88 224.866c-6.03 28.5-13.1 57.04-18.39 85.68l129.74 1.25c21.99.1 44.68-.34 66.71.28 5.37.15 9.35 6.04 9.36 11.39-3.87 10.91-31.99 6.29-42.48 5.91-17.65-.54-35.3-.97-52.96-1.31-34.09-.67-68.05-.31-102.14-.35-17.92.52-37.29-2.43-55.1-1.73-34.76 1.37-68.95.15-103.63-.1l-154.69-.78c-39.74-.14-79.37.12-119.19-.36-19.7-.24-39.46 1.71-60.03 1.4l-145.78-2.6c-19.98-.44-40.27-1.63-60.2-1.76l-717.705-1.09c-31.611-.24-62.108.74-93.595 1.18-27.222.46-54.097-2.13-81.354-1.14-56.391 2.05-113.119 2.58-169.505.72-4.62-.16-5.84-7.65-4.608-11.7 1.095-1.49 2.74-3.35 4.68-3.53 42.785-4.01 86.168.78 129.032-.34 9.488-.25 21.233-.49 30.31-2.27l1.224-.24c.997-20.5-.119-44.05 1.756-64.15-3.521-2.46-6.106-4.13-7.957-7.96-.086-3.67-.527-2.37 1.247-5.38.485-.26 4.122-2.22 4.254-2.45 5.527-9.35-2.587-35.33 5.607-42.38 9.467-2.21 31.024-1.89 41.83-2.29 62.528-2.36 125.02-5.34 187.334 2.1 10.012 1.2 31.185.62 39.34 5.36 3.368 4.69.717 26.47.385 33.99-.821 18.05-1.245 36.13-1.27 54.2-.036 9.69-.281 20.45 1.23 29.98l.231 1.41c12.505.19 24.399.33 36.866-.79.028-8.77-2.171-33.43 1.67-39.42 7.816-3.27 19.862-1.76 28.426-2.13 66.828-2.89 133.782-1.07 200.713-.18 10.825-23.22 25.768-29.51 40.656-48.05 10.919-13.6 19.198-42.04 36.901-48.69 19.815-7.45 83.401 1.05 101.301 7.58 18.327-5.59 53.672-5.21 73.711-6.26 24.04-1.26 49.42-2.84 73.41-3.1 3.56-6.08 15.22-21.61 14.62-27.03-4.47-4.97-26.79-3.92-34-4.04-23.23-.22-46.45-.7-69.663-1.45-10.104-.33-22.183-.3-32.098-1.96-6.688-1.11-8.923-3.95-12.291-9.17-21.08-1.26-48.659-.27-70.391-.62l-389.18-5.58c-16.068-.15-32.374.53-48.385.22-83.564-1.65-167.096-5.28-250.685-5.69-11.475-.06-18.067-1.18-18.044-14.1.276-155.177-5.131-310.285-7.855-465.407l-4.357-215.615a8243 8243 0 0 1-3.911-166.027c-.416-26.549-1.043-53.83-.47-80.371.104-4.836.584-6.437 3.877-9.983"/><path fill="#fefefe" d="m170.939 152.681 545.402 24.364c34.76 1.881 67.701 2.62 103.035 4.93-.321 14.352.637 31.94 1.059 46.475l2.386 84.893 10.972 362.73c1.005 44.087 1.206 88.228 2.728 132.308.222 6.431 1.215 12.116-1.839 18.101l-1.831-.15c-3.432-6.134-10.281-62.64-12.301-75.11-2.814-17.37-5.194-34.984-8.571-52.241-4.675-23.888-33.524-163.106-44.446-175.556-3.222-3.673-42.728-6.911-49.176-7.683a293 293 0 0 0 4.135-4.911c17.243-20.978 34.266-58.722 31.625-85.488-2.782-30.009-38.1-54.079-67.079-49.035-52.604 9.157-63.661 58.948-57.674 103.447 2.047 10.297 5.001 18.779 7.425 28.827-15.729.898-35.766.973-48.853 9.945-8.571 14.999-43.855 115.444-47.733 118.07-4.24-3.01-11.918-45.145-14.169-53.314-9.029-32.764-15.335-66.787-25.014-99.292-9.816-9.492-54.693-16.544-70.34-19.844 4.883-13.279 12.713-23.326 16.844-38.014 7.997-28.438 14.204-90.6-22.959-99.707-37.529-9.196-74.14-7.103-83.28 37.57-5.918 28.927-1.721 68.021 13.785 93.311-16.508 4.937-77.197 9.802-87.48 16.906-15.766 10.891-55.677 232.372-60.458 260.829-4.364 25.977-6.882 52.273-11.412 78.152l-11.793-.375c.181-67.407-2.68-137.139-4.266-204.762l-6.088-330.926c-.54-39.568-3.234-85.448-2.634-124.45"/><path d="M691.721 253.731c4.993-.212 7.881 1.639 9.335 6.254-.709 6.797-26.721 27.739-33.272 33.945-10.735 10.17-23.265 21.764-34.568 31.355-2.819.737-4.5-.269-6.643-1.856-.85-1.65-1.596-2.634-1.561-4.531.148-8.031 56.764-55.978 66.709-65.167M314.32 209.836c3.518 1.597 9.285 7.2 6.215 9.904-12.064 10.628-53.058 50.947-65.154 55.919-4.354-1.337-5.89-4.765-5.576-9.004 4.078-7.727 56.682-54.207 64.515-56.819m227.086-1.173c4.049-.152 4.905-.312 7.992 1.957 4.726 10.925-44.738 48.219-54.697 55.417-3.23.099-3.336.112-6.184-1.523-1.029-1.73-1.696-2.399-1.376-4.503 1.198-7.876 45.575-44.698 54.265-51.348"/><path fill="#fefefe" d="M1450.14 749.436c7.45-1.404 21.44 5.799 29.09 8.168 9.51 2.942 17.99 4.549 27.79 6.326-11.67 25.659-20.5 59.296-28.58 86.469-15.86 53.341-26.65 108.254-40.3 161.831-8.47 32.25-17.14 64.44-26.02 96.57-10.55 38.2-29.73 108.39-29.27 146.94-26.15.05-51.84 1.83-77.96 1.38-24.71-.43-49.52-2.93-74.21-3.22 9.54-21.64 18.08-32.98 29.11-52.99 13.15-23.88 25.72-45.54 39.74-69.16 16.61-27.96 30.79-56.1 47.35-84.68 16.05-27.68 37.37-61.311 46.91-91.82.75-2.414-.35-17.195-.58-20.769-2.45-38.563-6.37-80.677-27.88-113.975-6.03-9.325-21.13-28.073-32.93-31.597-2.58-.77-4.1.778-5.75 2.082-.59 1.389-1.97 5.244-.97 6.263 18.49 18.783 34.86 36.586 42.61 63.163 8.67 29.741 11.56 67.67 5.21 98.416-1.83 8.863-8.15 20.19-12.55 28.453-24.6 43.034-58.95 84.104-87.93 124.174-20.53 29.13-41.54 57.56-62.98 86.06-8.19 10.88-40.89 52.4-54.27 53.13-22.26 1.21-50.85-1.38-73.63-1.77-52.87-.68-105.746-1-158.619-.95-3.949-14.07-9.846-21.25-9.147-37.05 1.12-25.3 13.663-55.16 32.504-72.13 8.865-1.55 30.54-2.45 40.614-3.04 27.378-1.61 59.598-4.69 86.888-3.77-2.58 5.22-9.16 20.75 1.73 20.72 7.73-4.17 16.78-23.81 22.31-32.4 5.66-9.3 12.19-18.31 17.73-27.66 47.76-80.59 85.76-166.073 131.5-247.707 19.04-33.981 23.25-41.836 59.59-58.716a406.9 406.9 0 0 1 142.9-36.741m202.62-31.393c13.2.14 27.17 1.329 40.53 1.657l118.08 3.203c21.76.789 47.69.382 68.67 1.757 8.53 12.278 14.99 34.855 13.53 49.823-1.03 10.535-4.92 22.667-7.42 33.169a4571 4571 0 0 1-13.86 58.882l-44.96 185.046c-9.2 39.5-18.09 79.07-26.67 118.7-4.24 19.43-10.85 53.55-17.12 70.75-11.47 1.83-46.95 1.06-59.07 1.04-50.94-.41-101.87-1.32-152.78-2.74 2.36-13.72 8.19-35.23 11.51-49.84 8.98-40.45 18.49-80.78 28.54-120.99 13.65-55.79 25.64-113.837 38.83-169.933 5.34-23.629 10.85-47.22 16.54-70.768 2.57-10.463 9.01-32.646 9.93-42.025 2.11-21.353-10.93-51.19-24.28-67.731"/><path fill="#fefefe" d="M1606.71 718.436c6.79-.256 15.37-1.019 21.74 1.161 18.97 6.497 27.75 43.542 24.61 60.517-4.85 26.2-12.22 53.019-18.48 79.058l-47.22 189.918q-15.96 65.82-31.05 131.85c-4.41 19.72-11.74 58.8-18.18 77.09l-86.75-.18c-12.88.32-36.82.08-48.96-2.26-9.45-38.38 28.38-153.88 39.35-198.85 21.76-89.144 42.48-181.839 72.02-268.815 17.71-52.162 40.02-65.775 92.92-69.489m-386.76-308.73c4.37 4.679 13.95 19.898 20.88 27.424 41.34 44.853 72.47 56.821 126.88 78.383 15.35-11.065 41-50.432 59.66-20.228 11.67 18.88 10.86 47.861-1.07 66.469-7.51 11.717-15.14 14.645-27.05 21.694-1.68 6.849-1.81 20.135-2.67 27.97-2.99 27.3-8.56 45.189 1.24 72.094l-.04.331c-1.43 2.378-33.4 19.803-38.76 22.841.22-5.692-.18-12.34-.38-18.103 5.34-4.225 8.07-7.282 7.73-14.661-4.83-4.841-25.21 6.667-31.85 9.081-44.91 16.318-66.44-22.488-80.18-58.968-11.78-31.29-9.9-19.984-40.9-19.717 32.87-39.452 18.61-67.273 4.23-110.347-8-23.983-3.41-59.896 2.28-84.263"/><path d="M1405.44 495.601c3.48.279 4.35.614 6.15 3.436.53 6.575-4.05 14.571-6.94 20.747 2.52 1.174 6.53 3.072 8.64 4.819a10.9 10.9 0 0 1 3.93 8.115c.22 7.125-7.9 16.363-12.69 21.381-5.01-1.553-3.62-.435-6.51-3.846-1.33-8.498 5.68-9.539 7.93-16.903-2.55-1.976-5.42-3.212-7.7-4.992-10.33-8.06 2.21-25.94 7.19-32.757m-149.48 19.412c2.14-.09 4.3.018 6.42.321 14.6 2.221 16.71 22.505 2.17 30.486-1.62.21-3.25.215-4.86.015-13.32-1.663-17.73-22.334-3.73-30.822m60.28 98.13c3 1.269 4.76 2.654 5.91 5.661-1.17 12.393-32.5 16.167-41.98 16.364-2.76-2.499-4.56-4.737-4.78-8.38 3.53-7.364 30.81-9.834 40.85-13.645m-49.72-139.816c4.06-.329 7.95.458 11.41 2.624 1.58 2.883 1.18 2.082.75 5.888-.05.468-1.39 2.349-1.54 2.366-6.17.725-15.39 2.035-21.12 3.434-5.48 1.339-10.04 3.792-14.58 6.122-3.59 2.048-1.99 1.737-6.01 1.245-3.36-2.674-2.41-1.274-3.72-5.224 1.9-12.176 25.1-15.267 34.81-16.455"/><path fill="#fefefe" d="M184.13 831.591c5.094.138 6.598-.277 9.834 2.982 1.24 3.949-.359 9.648-1.172 13.965 18.213 5.1 42.018 8.036 59.472 14.655-5.502 38.698-11.415 77.034-15.019 115.965-1.452 15.684-4.337 31.172-5.527 46.972-.813 8.14-1.459 12.41-3.116 20.42-12.478-.73-26.241-.48-38.835-.48-.266-41.74-2.251-84.684-3.183-126.513-.672-30.195-.101-57.738-2.454-87.966m797.668-114.177a714 714 0 0 1 36.772-.098c6.06 11.969 14.65 35.276 20.17 48.679 15.29 37.138 31.48 76.245 45.14 114.051l-25.13.729c-9.9.386-19.91.967-29.82 1.465-8.97-20.894-71.825-155.758-68.014-162.801 5.972-1.592 14.522-1.697 20.882-2.025M540.581 862.183l2.799-.002c3.701 3.865 7.15 3.373 7.033 8.293-.988 41.442-5.347 83.188-7.133 124.533a1593 1593 0 0 0-1.23 57.663c-11.149.63-26.65-.48-38.126-.99-.899-.08-5.206-.44-5.373-1.43-1.676-12.46-.834-26.39-.721-39.18.3-33.944-4.146-67.623-4.409-101.574-.104-13.328-2.057-25.762-.419-39.189 14.504-.549 33.524-4.979 47.579-8.124m291.407-6.835 2.947.982c3.775 5.573 5.847 175.97 6.013 199.71-7.583 1.02-32.701 1.23-39.542-.8-2.366-2.4-1.628-1.63-2.436-5.47-1.756-10.02-2.93-24.96-4.207-35.64a4088 4088 0 0 1-7.94-65.506c-1.564-13.708-6.868-50.513-6.168-62.514 3.358-3.55 39.787-8.485 47.736-9.811 1.529-6.716 2.078-13.927 3.597-20.951m8.434 275.032c32.159-1.25 55.122 1.43 86.781 7.81-17.692 25.1-28.129 48.05-27.856 79.61-15.209 1.1-35.473-1.19-47.636.13-6.896-.61-14.943-1.54-21.767-1.33-5.609-3.55-11.696-8.02-17.185-11.87-9.685 1.93-27.285 13.14-35.75 8.43l-.269-2.24c4.957-12.22 31.249-28.24 40.87-38.23 1.569-1.53 2.118-4.81 1.678-6.91-1.37-6.53 2.551-9.44 6.928-13.91 3.659-3.73 2.714-6.82 2.515-12.11 3.916-2.59 8.054-6.3 11.691-9.38m-181.129 102.14 143.208.7c32.616-.05 65.228-.57 97.777.87 2.328.11 9.456 17.56 10.619 20.2-40.623 1.85-77.628 1.16-118.147 1.38-43.341.42-86.685.34-130.024-.25-25.768-.4-51.463-1.96-77.244-1.54-14.001.22-28.051.17-42.054.01-.517-5.79-.328-13.84-.355-19.81 38.747.67 77.505.15 116.22-1.56"/><path fill="#fefefe" d="M1084.35 786.448c2.63 1.691 5.44 8.196 6.89 11.309 15.17 32.626 35.78 63.469 42.94 99.288 2.64 13.203 1.57 28.479 3.12 41.821-17.13 10.136-40.54 28.966-54.27 43.313-8.54-3.248-19.05-5.15-27.8-8.914-18.36-7.897-37.62-18.958-54.53-29.438-13.421-9.431-22.37-15.132-33.772-26.792 6.577 1.295 15.951 3.485 22.106 5.85 5.995 2.304 16.916 9.875 23.026 10.616 27.53 3.335 61.24-.882 88.96-1.575 14.01 11.762 22.31 3.427 18.35-11.887-9.42-36.473-25.47-71.506-36.25-107.652-3.45-11.573-4.67-15.199 1.23-25.939M981.978 945.425c4.965 2.965 19.552 13.987 25.072 17.879 22.1 15.573 37.15 21.633 62.48 29.847-10.65 8.929-17.02 13.539-9.01 28.049 3.12 5.65 6.29 12.58 9.16 18.46 1.71 2.97 3.4 6.17 5.06 9.18-29.95-.26-58.63-.54-88.563-1.99-1.424-33.5-4.219-67.792-4.199-101.425m176.562.541c2.58 1.009 8.08 9.867 11.65 13.818l-34.81 66.836c-8.29 15.96-17.95 35.53-27.42 50.5-3.06-5.98-5.03-10.16-9.13-15.57-3.39-4.95-23.97-44.61-26.45-50.3 33.78-30.716 45.38-44.663 86.16-65.284M382.703 1181.52c.489-.02 2.901.36 3.549.45 2.471 3.49 2.093 24.99 2.524 31.94-13.099 1.09-26.835.78-39.776 2.04-35.386 3.44-70.817 1.78-106.09 3.75l-10.828-.11c.93-9.57.774-19.76.844-29.42 36.505-3.19 75.901-4.32 112.571-6.23 12.571-.66 24.476-1.97 37.206-2.42m-12.298 48.05c6.204-.41 12.943-.56 19.201-.82 1.264 7.8 1.84 18.67 2.473 26.8-18.283 1.09-40.283.19-59.076.55-26.248.51-54.973 1.65-81.064.08-6.455.22-13.485-.1-19.985-.26.393-6.86.3-14.44.36-21.36 10.569.69 21.078-.76 31.405-.61 35.88.5 70.963-3.23 106.686-4.38m-21.916-86.06c12.387-.46 24.943-.28 37.35-.22.614 5.79 2.811 17.72-.404 22.11-8.407 1.85-20.57 1.59-29.397 2.42-26.806 2.52-61.156 1.34-87.113 5.19-10.626-.38-26.01.81-36.721 2.04l-.486-26.2c33.467.15 81.827-3.51 116.771-5.34M1401.08 699.817c3.53.375 9.8 9.925 12.44 13.115 7.77 9.403 15.3 15.611 25.19 22.401-37.93 6.659-69.86 10.451-106.6 24.64-10.59 4.274-18.62 6.594-28.07 13.253 16.58-19.303 74.1-62.001 97.04-73.409M403.423 1181.24c22.055 2.64 45.712 3.88 68.405 6.38.216 10.12-.311 23.33-.629 33.55-20.918-3.08-45.125-6.12-66.086-7.22-1.192-9.85-1.655-22.73-1.69-32.71m265.008-236.245c7.867 13.724 15.287 91.025 16.706 108.925l-15.939-.29c-7.142.36-9.867.07-17.03-.85a203 203 0 0 0 2.456-15.33c3.712-30.97 9.402-61.595 13.807-92.455M402.945 1144.06c10.848.37 23.494 2 34.561 2.68 11.537.71 24.518 1.12 35.809 2.58.052 8.56-.287 14.92-.922 23.44-2.625 1.67-59.582-5.73-68.842-5.95-.414-7.08-.43-15.58-.606-22.75m2.929 85.87c19.913-.52 45.988 2.69 65.992 5.2.166 5.55.927 16.74-.247 21.59l-1.863.89c-20.967 0-41.453-1.07-62.39-2.04.577-9.01-.481-16.76-1.492-25.64m-36.262-256.223c4.207 3.952 8.319 65.273 8.917 75.033l-17.778-.22c-3.179-.08-4.565.24-7.055-1.46 5.676-24.58 8.732-49.236 15.916-73.353M912.586 692.15c2.454-.07 4.645.028 7.098.125 4.161 2.584 35.205 91.019 39.068 102.522-5.528-2.711-7.309-3.452-13.22-5.108-2.725-9.429-6.976-19.025-9.877-28.34-7.234-23.225-15.851-46.023-23.069-69.199m34.135 154.22c6.801.88 9.812 2.045 16.068 5.284 13.015 6.74 27.669 9.051 41.041 14.114.97.364.63 1.748.61 2.725l-2.96 1.82c-13.271 3.793-72.645-2.956-54.759-23.943"/><path fill="#fefefe" d="M955.406 885.876c14.221 1.201 20.473 8.59 33.416 13.44 5.459 2.046 13.668 1.948 19.178 4.617 1.73 3 1.2 2.016.69 6.225-14.173.055-59.908-1.276-53.284-24.282m-17.875-83.491c3.359.809 7.456 3.295 10.478 5.082 12.116 7.165 24.488 12.955 37.409 18.527l.551 1.959-1.724 3.032c-13.516 1.181-55.926-8.852-46.714-28.6"/></svg>