<svg xmlns="http://www.w3.org/2000/svg" preserveAspectRatio="none" style="display:block" viewBox="0 0 2048 1462"><path fill="#fefefe" d="M0 0h2048v1462H0z"/><path d="M1219.38 124.549c26-1.158 57.88-.552 84.04-.553 54.57-.234 109.14.322 163.69 1.668q221.895 5.469 443.67 14.463c5.34 4.063 6.18 4.729 10.2 10.088-.01 28.741-2.78 71.074-4.32 100.297-6.45 122.828-17.04 246.393-26.61 369.111a13402 13402 0 0 0-22.93 432.047c-2.42 51.66-4.55 103.33-6.37 155.01-.6 17.39.13 80.28-6.26 92.23-10.36 9.04-22.51 3.4-34.48 3.98-10.73.51-21.61 1.41-32.35 2.08-84.64 4.54-169.33 8-254.06 10.37l-447.48 14.45-156.75 4.51c-35.222.83-72.08.94-107.12 2.55-53.378.27-105.856 2.47-159.427 2.19a8769 8769 0 0 1-289.622-7.46 4197 4197 0 0 1-123.863-5.96c-6.981-.4-15.674-1.1-22.468-1.16-40.426-.36-37.353-1.61-37.729-38.81a2056 2056 0 0 0-1.036-36.69c-1.305-45-3.058-89.98-5.259-134.93a15113 15113 0 0 0-33.492-550.847c-9.771-132.247-22.826-264.095-26.712-396.75-.239-8.125 2.103-18.393 11.772-20.178 19.245-3.554 40.972-3.171 60.645-3.632a7657 7657 0 0 1 85.861-1.601 20524 20524 0 0 1 222.471-4.606 67311 67311 0 0 1 715.989-11.867"/><path fill="#fefefe" d="M1180.22 158.516c43.28-1.223 87.57-.108 130.89-.105 104.82-.636 209.63.888 314.38 4.572l138.58 5.013c39.83 1.432 83.35 2.722 122.97 5.772-5.86 193.01-26.27 386.162-37.47 579.372a31940 31940 0 0 0-17.7 354.04l-4.99 116.43c-.7 14.96-.74 29.96-1.98 44.85-34.02 3.76-81.69 5.06-116.69 6.75-87.92 4.25-175.89 7.32-263.89 9.19l-586.07 18.46c-74.72.36-149.95 3.27-224.983 2.78a7669 7669 0 0 1-409.915-14.87 18857 18857 0 0 0-40.09-689.577c-10.506-141.398-26.077-280.055-29.112-422.148 31.006-2.497 76.698-2.559 108.778-3.483A13490 13490 0 0 1 479 170.135z"/><path d="M1124.58 198.5c12.39-.677 27.87.127 40.84-.14 68.22-1.404 136.45-.066 204.69-.199l116.01-.207c16.03.001 47.67-.799 62.49 1.039 1.66 1.976 2.59 3.637 2.57 6.306-.35 38.079-1.08 76.421-1.83 114.475l-4.16 219.665-5.03 333.064c-.4 65.766-1.19 131.527-2.39 197.287a4975 4975 0 0 0-2.49 123.37c-.16 9.79 1.31 36.99-1.07 44.41-.2.61-1.62 2.16-2.12 2.58-3.24 2.68-67.12 2.81-76.85 3.24-37.53 1.68-75.01 4.53-112.55 6.25-145.57 6.62-291.23 11.11-436.94 13.46-102.056 1.27-203.89-.89-305.914-2.57-14.783-.25-74.528 1.34-84.044-2.48-1.027-.41-1.597-.97-2.026-1.94-4.411-9.9-4.168-86.11-4.699-104.03l-7.366-268.798-16.729-500.388c-1.606-50.711-3.183-101.492-5.353-152.177-.199-4.668-.099-10.794 1.573-15.152 2.708-2.612 3.7-2.924 8.244-3.127 20.9-.938 42.178-1.216 63.077-1.793l135.095-3.449a22392 22392 0 0 1 436.972-8.696"/><path fill="#fefefe" d="M1146.68 210.476c28.23.331 57.91-.351 86.33-.377 101.66-.351 203.33-.121 304.99.69.19 34.578-1.02 68.62-1.62 103.11a10770 10770 0 0 1-3.11 177.021l-8.45 550.89c-29.72-46.404-82.81-123.705-122.19-159.133l.48-1.219c4.9-12.608 8.79-33.507 9.89-46.926 6.92-84.426.43-170.095-3.83-254.603-.96-18.976-4.16-98.667-9.3-110.161-7.57-6.04-60.6-5.849-72.51-6.166q-64.92-1.271-129.84-1.483c2.02-16.952 3.68-35.079 2.79-52.917-4.96-98.917-83.33-210.05-193.99-187.051-6.608 1.099-18.002 6.395-24.296 6.776-26.358 1.595-39.311 3.877-62.481 17.712-21.022 14.023-39.538 33.877-52.14 55.709-33.272 57.642-37.373 106.6-21.37 169.725-21.288-.272-213.526 3.748-220.033 9.206-5.469 9.816-4.064 34.057-4.043 45.972l.065 53.198c.228 93.261-1.836 201.504 20.092 291.491-49.223 45.226-85.617 95.167-123.662 149.86-1.111-22.784-1.008-47.766-1.677-70.8l-5.078-155.976-19.721-569.393c57.726-4.146 126.515-3.864 185.504-5.426z"/><path fill="#fefefe" d="M650 879.679c11.274 3.877 38.089 5.403 50.978 6.498-10.948 50.163-38.708 176.703-26.75 221.853 3.777 14.27 11.55 26.88 24.622 34.31 27.189 15.46 63.406 4.99 91.451-2.72-.25 35.48-2.791 76.17-2.143 110.51-28.042 1.05-60.346.09-88.662-.15l-174.556-3.65c-2.963-66.23-2.403-137.39-6.537-202.51A875.8 875.8 0 0 1 650 879.679m167.842-395.215c8.391-.747 23.19-.255 31.775-.169 6.933 18.043 16.405 40.803 21.245 58.941 7.572 28.372-.413 68.376-9.893 96.093-27.893 8.143-54.857 21.719-80.369 35.42-19.792 10.629-31.111 26.645-38.995 47.276-18.674 48.865-24.963 102.198-38.659 152.206l-9.818-.977a1066 1066 0 0 1-39.26-3.594c-15.905-49.604-15.885-117.12-17.902-169.531-2.696-70.06-1.177-139.566-1.441-209.656 55.971-5.047 126.55-5.067 183.317-6.009"/><path d="M727.6 590.714c7.305 1.556 24.302 22.032 27.991 29.161.958 1.851-.544 3.732-1.381 5.338-7.873-1.118-23.475-21.303-27.671-28.362-1.18-1.985.267-4.346 1.061-6.137m63.28 20.521c6.935.606 19.584 16.494 23.321 22.32 1.391 2.169.058 4.171-.809 6.12-9.669.684-18.165-14.958-23.696-21.855-1.387-1.728.416-4.822 1.184-6.585m-20.368 27.18c7.89 1.282 17.485 13.556 21.926 19.94 2.225 3.197 1.724 4.239 1.012 7.609-9.171-.87-18.543-14.053-23.902-21.152-1.386-1.836.214-4.595.964-6.397m-12.226-59.693c7.231.083 13.116 6.771 17.671 11.979 3.422 3.913 3.562 5.019 2.973 9.794-6.459.391-12.701-6.303-16.786-10.817-4.026-4.448-4.329-5.324-3.858-10.956m-22.306 72.876c5.464 2.253 13.718 9.733 17.232 15.171.246 3.999.201 2.703-2.626 6.812-6.356-3.341-14.289-9.111-17.592-15.66.148-3.985-.063-2.595 2.986-6.323"/><path fill="#fefefe" d="M1195.26 475.007c61.55-1.537 133.85.982 195.21 3.179 1.5 13.85 2.21 31.648 3.14 45.77 2.38 35.289 4.3 70.607 5.78 105.946 2.99 67.955 11.34 187.728-8.8 249.408-4.35.542-10.33.613-14.84.792-10.13.872-19.01 1.7-29.17 1.672a2973 2973 0 0 0-24.84-105.393c-5.98-24.146-11.41-46.575-19.83-70.072-11.43-35.553-50.26-47.468-81.22-60.267-12.84-5.313-28.35-7.684-37.18-19.502-19.48-26.078-12.33-63.952-4.08-93.012 5.59-19.669 11.67-38.499 15.83-58.521"/><path d="m1324.58 565.618 3.5.666c.9 1.074 2.16 2.158 1.78 3.726-2.32 9.447-26.1 33.989-32.38 40.356l-3.06-.642c-1.07-1.101-2.49-2.029-2.06-3.73 2.31-9.216 26.08-34.305 32.22-40.376m-71.46 35.821c3.43 2.008 3.61 1.783 4.53 5.513-1.8 7.779-14.13 19.382-20 25.712-3.2-1.139-3.73-1.979-4.38-5.091 2.14-8.246 13.72-19.921 19.85-26.134m62.25 36.107c3.55 1.316 4.56 1.586 5.38 5.367-1.89 6.901-11.22 13.489-16.92 18.378l-2.75-.85c-2.47-2.73-1.9-1.176-1.84-4.786 3.06-6.338 10.86-13.088 16.13-18.109m-32.16-80.23c3.83 1.312 3.62 1.428 5.32 4.293-.24 6.897-8.09 14.854-12.66 20.452-12.93-4.428 2.46-18.816 7.34-24.745m-14.84 71.215c4.15 1.275 5.12 1.888 5.21 6.284-3.2 6.637-8.83 10.886-14.34 15.794-3.43-1.052-4.16-2.171-4.63-5.549 1.9-5.902 9.13-12.045 13.76-16.529"/><path fill="#fefefe" d="M1376.62 890.441c5.53-.468 11.65-.593 17.23-.825 31.79 23.885 108.84 138.264 130.29 174.644l-2.33 163.84c-51.5.31-104.94 4.29-156.45 7.47-34.76 1.6-69.87 2.45-104.53 4.31-2.33-32.53-2.6-70.91-3.82-104 123.77 36.05 129.26-37.07 112.55-134.32-6.39-37.206-11.96-72.637-21.14-109.658a717 717 0 0 0 28.2-1.461m-353.36 13.072c2.55 1.864 21.24 27.473 25.32 32.261a923 923 0 0 0 55.31 59.59c-1.04 83.256-3.09 166.496-6.15 249.706-24.82 1.14-49.65 1.84-74.49 2.09-23.12.61-49.302 1.56-72.23.57-2.386-22.16-2.49-59.26-3.489-82.57-2.575-55.12-4.731-110.27-6.466-165.423 29.024-30.293 59.225-60.848 82.195-96.224m-30.289-604.786c3.551 2.03 16.099 13.961 19.759 17.5 26.44 25.631 59.77 43.065 82.9 71.885-9.72-2.629-45.8-9.726-49.34 3.529 2.82 7.771 15.81 1.671 22.64 1.956 8.64.361 17.44 3.504 25.89 2.266 1.03-.151 2.13-3.467 2.6-4.517 6.6 5.043 15.75 26.723 18.71 34.597 25.32 67.352-17.62 134.731-82.55 156.767-44.211 10.595-103.805-37.481-117.444-77.926-4.099-12.154-5.687-25.543-10.177-37.297-2.828-1.728-1.799-1.659-4.615-1.433-2.856 5.319 1.7 11.197-2.333 17.441l-2.484.518c-20.481-5.085-25.132-28.677-24.65-46.635 10.871-17.838 16.735-2.639 27.301 1.319 6.285-2.163 9.508-20.684 13.693-25.734 26.972-32.542 50.612-85.442 80.1-114.236"/><path d="M1049.02 516.842c3.2.559 5.52 2.118 6.96 4.911-1.03 3.259-3.39 4.847-6.49 6.344-20.28 9.789-38.87 8.384-59.319 1.85-3.9-1.955-4.828-2.734-5.983-7.068 1.196-2.733 2.954-3.642 5.921-3.051 25.761 5.13 33.221 10.34 58.911-2.986m-94.458-128.584c7.526-.881 25.196-2.479 29.468 4.519l-.677 1.935c-5.487 3.528-21.416 2.59-30.368 3.567-7.913.992-18.448 6.279-23.993 4.008-1.505-2.678-1.198-1.239-.626-4.515 5.09-6.291 18.373-8.057 26.196-9.514m116.338 35.997c1.33.104 2.66.269 3.98.497 5.16.845 7.86 1.701 11.07 6.082 1.76 8.03-3.56 9.165-10.02 11.601-7.93-.035-15.58-1.192-18.19-9.808 1.5-7.588 6.38-7.552 13.16-8.372m-114.74 3.844c6.38-.44 12.711.545 17.037 5.616 2.226 7.627-3.575 9.212-9.46 11.791-6.856.766-13.672.488-17.761-5.968-.89-7.655 3.95-8.892 10.184-11.439m60.9 48.715a6.255 6.255 0 0 1 8.1 3.572 6.258 6.258 0 1 1-8.1-3.572"/><path fill="#fefefe" d="M1031.43 623.373c1.14.345 2.01.703 3.07 1.305 20.23 11.475 20.1 47.787 26.38 70.224 7.1 25.337 15.02 53.679 22.54 78.679 6.22 20.71 19.03 74.067 28.84 89.806 11.91 19.119 71.61 67.25 91.48 78.93-10.54 32.618-30.39 56.866-57.13 77.613-10.4-8.46-22.12-20.741-31.63-30.385-21.45-21.537-42-43.952-61.59-67.189-10.77-13.306-16.57-21.249-25.39-35.918.55-14.497.35-29.193-.25-43.689-1.07-25.55-11.37-158.682-1.8-172.24.99-1.397 1.19-1.046 2.75-1.246 20.43 12.052 16.69 125.598 29.76 125.105 1.52-1.858 2.91-3.396 2.58-6.127-2.5-20.319-5.52-40.718-7.2-61.128 4.04 11.94 11.59 53.745 18.31 58.706l2.01-.417c1.06-.996 2.27-1.61 1.98-3.283-6.29-35.865-17.14-73.848-30.36-107.674-3.53-9.055-13.96-21.928-19.49-27.785-.04-9.163-.61-16.004 5.14-23.287m-23.6-1.849 2.99.773c4.18 4.038 4.18 9.979 4.91 15.749-7.13 19.952-25.475 39.674-27.916 61.354-1.325 11.773-16.778 91.049-13.61 97.312 2.823 1.814 1.308 1.407 4.727 1.178 10.098-8.425 11.678-116.294 33.089-124.908 1.54 2.112.36 62.458-.05 71.902-2 45.984 17.62 117.479-3.19 159.218-6.24 12.521-37.43 45.563-47.426 56.675-19.223 20.767-39.814 42.943-59.975 62.623-25.452-18.08-46.688-45.647-58.276-74.641 8.211-5.929 22.674-18.544 30.718-25.744 20.848-18.662 47.265-38.541 62.778-61.857 4.292-6.449 10.438-28.529 12.971-36.539 13.609-43.042 25.146-86.707 33.743-131.038 3.172-16.355 3.928-33.904 8.567-49.479 2.506-8.413 9.88-16.459 15.95-22.578"/><path fill="#fefefe" d="M954.011 567.723c13.989 10.515 21.371 14.608 37.252 20.57-2.591 21.52-4.24 41.711-11.006 62.438-1.804 5.527-3.11 27.992-5.895 30.799l-3.611-.254a183 183 0 0 1-31.299-10.907c-2.972-13.644-5.56-30.296-8.066-44.248 23.962-14.599 25.456-31.774 22.625-58.398m166.799 54.01c4.05 1.064 12.38 5.056 16.53 6.908-3.94 36.71-7.55 73.453-10.84 110.227a8683 8683 0 0 0-9.94 103.097c-3.86-5.082-15.49-43.525-16.1-52.002-.38-5.243 1.61-24.907 2.24-31.686a3614 3614 0 0 1 7.99-75.59c1.99-17.628 4-35.94 6.26-53.553.38-3.01 1.9-5.145 3.86-7.401m-35.03-57.705c1.48 28.023-5.46 38.615 21.93 55.933-1.26 14.104-4.6 34.738-7.19 48.652-11.82 5.551-18.01 7.592-30.31 10.432l-1.37-.52c-3.64-7.116-3.35-18.612-6.03-25.576-8.53-22.144-11.26-41.736-14.95-64.973 14.75-4.958 25.98-14.374 37.92-23.948m-166.277 62.956c3.175 4.791 4.639 16.775 5.706 22.982 8.018 46.623 16.554 94.021 21.222 141.062.536 5.4-11.661 43.891-14.365 50.428-.8-2.912-2.768-19.951-3.281-23.756l-7.435-54.125a4405 4405 0 0 0-10.991-73.294c-2.457-16.007-6.361-38.804-6.502-54.447 5.554-4.507 9.121-6.093 15.646-8.85m21.178 54.357c12.861 5.216 19.485 6.9 32.786 9.283-4.116 20.235-8.265 39.668-13.841 59.606l-4.794 17.287c-2.69-26.138-9.486-60.058-14.151-86.176M1226 829.433c9.95 3.425 7.44 12.028 6.91 21.708-1.31 24.094-.23 49.207-3.59 72.869-.13.919-4.09 1.165-4.99 1.302-3.24.728-4.51 1.683-6.83.38-.1-1.073-.18-2.148-.22-3.224-.81-19.654 4.18-66.235 5.29-87.546.09-1.744 2.21-4.151 3.43-5.489m-130.23-148.402c1.92-.19.99-.29 2.74.624 1.4 7.495-6.08 67.505-7.14 78.464l-3.91-12.373c-6.32-18.426-12.56-41.02-17.31-60.052 10.69-1.067 15.78-2.963 25.62-6.663M814.822 840.402c3.2.756 3.303.839 5.974 2.722 3.853 5.349 11.71 79.976 10.99 87.291l-1.995.712c-3.078-.805-7.092-1.524-10.281-2.195-1.967-26.595-7.402-54.644-8.294-81.408-.081-2.418 2.141-5.263 3.606-7.122m405.168 96.972c.71.06 3.6.356 3.97.548 10.57 5.44 58 36.279 61.95 42.92.25 3.89-.31 3.551-2.27 7.301-6.96.401-59.64-36.293-65.29-42.991-.75-3.028.42-4.796 1.64-7.778m-397.313 5.435c4.021 1.444 6.051 3.073 5.839 7.386-4.46 6.382-51.597 38.319-59.947 42.284-2.886-.561-3.054-.786-5.57-2.437-1.274-2.835-1.072-1.601-.222-4.997 5.475-6.127 51.384-37.944 59.9-42.236m215.013-349.261c2.19 5.41 4.19 19.23 5.22 25.426l-.71-.562c-4.97-3.943-4.79-4.484-10.98-6.483-2.28 1.32-3.44 1.896-5.86 2.933l-1.57-.944c-1.72-3.631-.79-14.697-.82-19.647zm-37.39-1.807c3.35.831 7.95 1.499 11.44 2.114.68 4.309 2.67 15.173.56 18.852l-1.61-1.276c-5.94.178-6.78 1.449-11.828 4.803-.057-8.413-.148-16.207 1.438-24.493"/><path d="M1586.5 199.276c15.69 1.681 36.39 1.698 52.45 2.148 28.75.904 57.51 1.596 86.27 2.074 18.95.304 90.96.053 103.44 5.291 8.03 8.041 2.37 46.319 1.76 58.499-2.78 55.495-12.93 110.573-17.28 165.872-9.31 118.282-16.52 236.756-25.73 355.049-5.88 78.784-13.17 157.868-17.13 236.741-2.73 58.89-3.64 117.85-2.74 176.8-.33 22.78 6.23 30.66-22.75 29.49-6.77-.27-19.55.97-26.76 1.36-33.3 1.87-66.61 3.47-99.93 4.81-12.43.48-52.9 3.74-61.66-1.77-3.26-9.13 3.03-173.36 3.71-196.51l16.52-670.446 2.07-102.917c.28-18.512.22-42.955 2.05-61.737.22-2.254 3.74-3.67 5.71-4.754"/><path fill="#fefefe" d="M1592.93 213.046c35.68-.579 77.91 2.249 114.39 2.65 33.03.363 79.17-.382 110.71 2.508-17.72 35.049-26.36 75.736-19 114.687 1.34 9.318 8.68 21.712 7.72 31.014-4.83 47.078-10.8 94.616-11.91 141.986-23.17 10.728-46.5 26.694-65.18 44.106-20.33 18.952-24.36 41.051-29.88 66.942-3.54 16.595-7.05 33.301-10.23 50.098a2979 2979 0 0 0-26.8 159.004c-4.28 29.641-9.68 61.955-10.77 91.663-.54 14.69 5.55 32.861 16.66 42.845 21.21 19.068 43.68 20.93 70.16 20.66.22 34.291-2.08 74.161-2.81 109.041-.04 7.14-.5 17-.66 24.06-.37 17.37 11.17 9.38 16.15 14.29 1.73 24.28.32 63.68.21 89.05-38.47 1.21-77.05 4.51-115.54 5.92-22.42.82-44.85 1.55-67.27 2.53.1-29.74 1.45-59.93 2.28-89.71l4.36-163.262 10.3-451.077 4.73-216.302c.66-30.792 2.13-61.964 2.38-92.703"/><path fill="#fefefe" d="M1763.76 801.505c2.65-.032 3.28.364 5.71 1.276 1.11 1.408 2.74 3.036 2.02 5.096-4.94 14.213-32.18 35.02-43.33 42.825-4.9-.341-6.41-.699-8.24-5.226.43-2.315.22-3.375 2.12-5.098 14.36-12.994 29.29-23.769 41.72-38.873"/><path d="M413.403 214.539c8.185-.295 29.381-1.898 35.729.949 3.953 5.494 5.265 95.848 5.735 109.71l8.112 219.844 14.022 335.297a21209 21209 0 0 1 10.928 268.951c.58 15.14 6.704 100.84 1.484 106.84-10.244 2.67-50.558-.08-63.208-.3-44.899-.78-91.09-3.77-135.946-3.73-8.276-2.83-7.862-3.74-8.555-11.42-.426-4.72-.658-8.69-.67-13.46a3667 3667 0 0 0-7.193-228.976c-4.74-66.192-13.106-132.954-18.419-199.067-8.575-106.709-15.532-213.513-25.593-320.109-7.15-78.208-18.382-156.059-22.718-234.51-.623-11.269-1.545-22.859 13.64-23.456 19.765-.778 39.564-1.398 59.337-2.093z"/><path fill="#fefefe" d="m436.4 226.511 1.642-.001c1.68 2.091 6.6 154.942 7.179 171.207l24.285 610.993 6.118 146.29c1.279 29.27 3.095 60.03 3.488 89.16-20.387.12-43.19-1.07-63.705-1.75l-120.313-4.37c-.297-31.66-.929-63.32-1.896-94.97 19.482-.7 17.552-2.49 17.032-20.82.827-35.87-3.326-89.35-5.236-126.12 46.903-1.918 90.948-18.629 85.86-73.871-2.39-25.947-6.107-50.517-10.055-76.262a3846 3846 0 0 0-25.709-148.075c-6.563-34.344-12.776-81.116-26.169-112.567-11.385-26.738-55.537-49.466-82.252-59.569-2.386-50.251-11.621-101.305-15.522-151.503-.673-8.662 6.726-20.508 9.061-29.83 10.22-40.787-2.255-73.521-16.576-111.068 19.795.913 51.712-1.036 72.446-1.762z"/><path fill="#fefefe" d="M277 817.877c9.033 3.109 39.118 23.398 43.125 31.852.022 4.366.354 2.653-2.507 6.997-8.232-.483-42.206-23.739-44.078-31.229.278-3.767 1.154-4.542 3.46-7.62"/></svg>