<svg xmlns="http://www.w3.org/2000/svg" preserveAspectRatio="none" style="display:block" viewBox="0 0 2048 1462"><path fill="#fefefe" d="M0 0h2048v1462H0z"/><path d="M360.197 99.459c1.621-.383.446-.21 1.682-.202 174.115 1.131 347.926 14.696 521.146 31.704 6.236.724 11.847 2.6 18.111 3.373 45.557 5.617 105.484 8.774 142.414 37.956 24.07 19.015 29.8 51.748 34.81 79.802 10.73 60.062 15.15 121.485 19.31 182.305l10.88 168.127c2.66-22.838.7-47.974 2.43-71.034.55-7.356 2.48-10.823.32-18.717-.46-1.691.73-10.332.86-12.873l2.62-46.406 6.36-117.427c2.41-38.31 1.93-84.283 26.78-115.6 16.32-20.55 47.52-24.996 72.16-27.298 100.99-9.438 202.28-12.612 303.63-15.277a3413 3413 0 0 1 174.81-.733c45.64 1.31 116.12.979 152.8 30.757 35.88 29.119 32.98 101.965 34.25 145.006a8218 8218 0 0 1 2.42 135.061l5.18 285.248c1.87 83.222 3.13 166.457 3.75 249.699.54 56.62 1.65 111.11-3.84 167.57-9.28 95.25-69.65 104.68-151.14 111.29-149.58 12.13-298.19 9.27-447.89 3.34-41.2-1.66-87.02-1.4-127.49-8.94-14.4-2.69-29.74-16.1-40.91-25.59-2.19 2.82-3.07 7.24-4.21 10.64-4.41 13.23-11.44 23.97-22.71 32.43-35.85 26.91-164.564 34.66-213.394 39.02-8.523.77-25.666 5.48-33.217 3.69-2.473-.59-3.964-2.71-4.814-4.98-2.955-7.91-1.776-44.48-2.111-55.45-1.171-38.26-1.931-76.7-3.665-114.93-.718-15.83-2.228-31.61-3.065-47.43-4.809-90.9-9.245-217.675-61.83-294.58-24.97-36.518-68.027-64.356-108.425-81.075-5.417-2.242-10.44-6.277-16.303-7.219-19.516-3.136-48.023-.282-68.925-1.194a1492 1492 0 0 1-155.177-13.537c-8.719-1.159-24.312-3.464-32.842-2.29-35.082 4.829-73.368 17.841-105.616 32.347-5.876 2.644-15.424 6.367-20.291 9.817-1.174 9.44.561 34.042.986 44.75l2.108 67.605 8.707 230.106c.306 7.93 2.579 16.69 2.979 25.08 1.089 22.83 4.36 45.83 3.29 68.69-.165 3.97 2.699 9.03 2.709 12.77.06 22.8 3.694 46.1 4.914 68.71.807 14.97 1.53 29.17 3.092 44.08.613 5.84 2.38 22.5.892 27.17-3.882 4-10.154 2.04-14.387-.63-3.82-6.53-5.698-47.17-6.572-57.17a8920 8920 0 0 1-26.482-537.028l-14.495-436.229c-1.387-19.325-2.004-38.827-2.927-58.205-1.583-33.24-13.025-74.191 14.6-100.14 24.59-23.098 63.128-22.453 94.747-24.918 58.858-4.589 117.791-4.706 176.733-2.431 71.539 2.849 143.45 8.536 214.528 17.153 50.017 4.72 99.487 11.06 149.239 18.22 34.136 4.912 69.551 8.119 103.254 15.994 8.51 1.989 19.48 8.154 25.54 15.049 18.44 21.016 22.44 52.324 27.47 78.793 11.38 77.515 17.05 157.845 22.09 235.961a12457 12457 0 0 1 18.65 410.768l7.05 188.593c1.17 31.05 4.37 66.07 3 96.89-.57 12.83-3.21 26.42-12.41 35.97-34.06 35.34-206.071 36.51-215.371 44.95-1.295 4.42-.891 30.32.298 32.58 2.543 1.14 17.966-1.51 22.316-1.82 34.102-2.41 68.528-6.55 102.406-11.14 26.641-3.62 55.021-6.94 80.631-15.36 9.95-3.27 21.11-7.75 28.04-15.95 8.63-10.18 11.81-24.53 13.3-37.45 2.1-18.16.83-36.81 1.05-55.08.55-47.29-.53-94.44-1.16-141.72l-.51-103.623c-.05-4.604-1.76-9.114-1.94-13.118l-11.14-249.048c-.38-7.748-.43-15.513-.91-23.251-8.27-131.499-11.1-264.081-29.97-394.639-4.44-30.716-8.03-74.015-34.66-93.793-11.35-8.427-24.54-14.471-38.211-18.024-41.453-9.227-84.122-14.683-126.352-18.944-28.277-2.854-56.282-7.574-84.73-8.348-5.102-.254-10.693-2.4-15.685-2.73-44.526-2.937-89.139-5.771-133.666-8.596a4266 4266 0 0 0-192.114-9.379c-35.768-.981-68.934-2.746-104.723.281-144.05 12.18-150.763 68.268-142.627 192.149a8296 8296 0 0 0 6.294 94.024 14911 14911 0 0 1 12.78 236.579c9.985 233.789 8.892 467.56 28.082 701.26.588 7.16 2.421 19.39-2.144 24.78-14.681-.09-47.831 5.39-46.465-13.28.353-4.83 1.263-9.84.897-14.76a3214 3214 0 0 1-6.307-102.56l-3.989-91.94c-.491-9.98-.89-18.98-2.33-28.92-.249-1.72.995-8.57.795-12.18q-4.27-67.471-6.043-135.054c-.817-32.903-1.946-65.783-2.796-98.677-.599-5.77 1.92-11.605-.219-17.045-1.868-4.754-.63-13.157-.744-18.715l-1.616-59.519-5.021-172.41c-.143-3.982 1.285-9.938 1.063-12.424-2.435-27.301-3.124-54.758-4.273-82.172l-5.412-107.712c-2.287-47.065-7.516-93.641-6.696-140.894.573-33.022 2.637-69.121 24.45-96.194a105 105 0 0 1 31.473-25.881c11.989-6.531 21.766-8.649 34.124-13.104 25.989-9.371 50.154-16.229 77.639-19.801 14.513-1.887 29.426-1.794 44.023-3.35"/><path fill="#fefefe" d="M1573.38 192.502c3.91.48 7.81-.057 11.75-.001 38.15 1.09 74.26-.968 112.73 1.365 42.71 2.47 113.04-1.236 146.11 29.455 28 25.994 24.62 114.678 25.06 150.362l2.11 128.977 8.93 540.62c.79 50.65 7.19 175.07-28.62 211.32-9.87 10-23.86 15.98-37.15 19.81-23.08 6.65-46.9 8.34-70.65 10.91-95.54 10.35-191.7 8.4-287.61 8.59-1.15-.41-.55-.3-2.01-.29-59.58-.01-119.16-1.56-178.66-4.64-26.04-1.1-52.12-2.27-78.09-3.97-16.57-1.06-33.5-5.32-47.33-14.82-7.13-4.9-12.75-12.23-16.75-19.83-1.38-2.6-3.45-7.33-3.64-10.27-1.8-28.38-.91-57.01-1.07-85.46l-1.53-174.666c-.27-74.089-2.6-149.258-2.67-222.879.18-96.843 2.31-193.672 6.39-290.429 1.45-41.417 3.52-82.81 6.21-124.164 2.17-32.826 2.01-81.712 21.62-109.569 13.39-19.005 40.45-21.582 61.57-23.704 19.66-1.976 39.59-3.542 59.59-4.882a6846 6846 0 0 1 220.08-10.13c15.24-.362 30.49-.619 45.74-.771 8.81-.089 19.38.405 27.89-.934"/><path d="M1558.24 213.532c12.59 1.005 25.94-.796 38.69-.57 60.79 1.079 122.39-1.571 182.82 5.931 25.87 3.212 41.37 17.496 45.02 43.678 7.51 53.818 6.33 109.309 8.16 163.602.15 4.386-1.14 9.639-1.22 14.104.27 5.108.87 9.473.92 14.721l.39 54.304 1.2 170.359.5 99.902c.16 11.279.49 22.164-.81 33.373-.15 1.261 1.66 4.13 1.61 5.432-.59 14.866-.25 29.721-.14 44.598l.79 121.282 1.4 118.322c.49 28.68 2.33 74.13-.88 102.16a48.24 48.24 0 0 1-11.42 26.4c-26.53 30.38-87.17 28.53-125.09 30.45q-84.63 4.17-169.35 5.79c-20.24.3-41.06-.49-61.36.08-4.58.13-14.13-.3-17.96-.01l-1.37.11c-19.19.76-40.54-1.03-59.96-1.14-42.22-.14-84.43-1.17-126.6-3.09-8.52-.44-17.17-.84-25.76-1.69-33.66-3.34-78.76-.98-81.86-46.06-1.62-23.44-1.02-47.41-1.39-71.11l-2.57-105.5a6502 6502 0 0 1 11.33-694.258c2.14-26.786 2.75-56.49 7.05-83.049 2.74-16.943 24.96-26.573 40.35-29.046 27.35-4.395 56.35-5.697 84.32-7.698a5217 5217 0 0 1 154.4-8.331c34.37-1.055 75.11-.877 108.79-3.046"/><path fill="#fefefe" d="M1619.25 228.696c2.72 1.084 49.16.386 55.22.588 35.5 1.179 72.02.744 107.32 6.194 7.4 1.142 19.6 8.286 21.86 14.232 8.95 23.557 9.72 62.585 10.65 87.237 1.22 38.204 1.86 76.423 1.93 114.646.21 33.649-.26 92.641.08 128.329l1.29 1.967c-1.46 2.668-.82 35.268-.77 41.377q.63 47.937.6 95.878c.04 5.29 1.86 20.985-.19 23.747a425 425 0 0 0-3.31-5.802c-27.04-46.618-50.79-61.201-101.99-74.846 4.6-16.816 10.1-33.931 14.4-50.719a631.5 631.5 0 0 0 20.3-141.092c2.51-115.099-40.85-215.162-169.6-219.175-64.04-1.996-122.68 38.545-168.08 79.853-27.35 24.888-47.48 55.94-40.65 94.34 1.68 9.98 5.12 25.25 4.68 34.8-.32 10.121-.02 55.528-2.48 56.527-21.66 8.797-65.5 50.811-75.71 76.517-9.12 22.948 12.67 64.735 22.5 85.434-56.02 66.491-101.46 136.645-141.19 214.162-2.89 5.639-7.67 22.018-11.42 25.313-.12-.352-.1-51.178-.13-55.748a6405 6405 0 0 1 11.82-476.424c1.52-24.484 6.02-106.833 12.51-126.319 6.08-6.216 16.86-10.186 25.36-11.207 111.71-13.425 224.82-15.027 337.17-18.381 15.35-.458 57.1 1.173 67.83-1.428"/><path fill="#fefefe" d="M1501.47 592.762c12.52 2.795 28.56 46.007 33.76 57.998 2.88 6.635 4.42 21.943 9.34 26.218 4.21.54 2.52.757 6.43-.764 12.53-13.476-22.04-71.708-29.79-85.448.74.388 1.47.798 2.18 1.23 23.67 14.571 44.33 42.799 50.94 69.858-7.85 30.418-40.55 50.071-48.33 83.222-8.73 37.212 58.35 195.193 74.52 239.765 4.7 12.983 10.02 39.969 16.21 49.959 3.29 2.22 1.82 1.88 5.55 1.75.9-.69 3.16-2.18 3.26-2.99 2.03-17.57-15.9-62.2-21.07-76.092 8.9-4.979 17.63-10.944 26.14-16.583 9.4 11.358 19.71 26.358 28.49 38.433a2059 2059 0 0 1 38.07 53.072l20 28.26c-37.76 33.65-102.96 69.06-152.45 79.95-38.96 8.57-56.84-12.38-68.32-46.95-9.85-29.68-15.81-60.97-20.88-92.02a1635 1635 0 0 1-19.72-210.371c-.42-17.164-1.45-35.247.18-52.301 3.4-35.739 30.01-63.91 31.31-100.214.51-14.19 1.29-24.959-.98-39.146 12.93 18.333 17.98 41.653 24.62 62.659 1.99 6.27 2.61 11.915 10.12 13.129 3.58-1.034 2.12-.088 4.52-2.941 2.25-11.544-17.66-66.78-24.76-77.615zm-133.73-60.752.79.871c-.61 2.367-9.51 11.633-11.66 13.985-10.7 11.791-19.92 23.379-27.97 37.256-6.06 10.45-16.69 28.928-7.92 40.789 1.28 1.725 2.1 1.329 3.95 1.332 5.55-3.499 6.13-16.845 8.52-23.473 4.46-12.399 41-63.095 51.86-64.321.32 2.017-.07 3.324-1.41 5.01-16.53 20.797-31.64 47.144-33.57 74.136-.35 4.961 2.13 15.307 8.76 14.878 3.17-2.941 3.47-6.462 3.61-10.577.94-26.71 15-47.542 30.67-68.227-3.09 17-12.94 49.777-8.13 66.933 1.45 5.19 12.69 18.539 16.41 23.643 12.52 17.127 21.03 35.899 17.69 57.589-4.12 29.143-13.15 57.068-22.1 84.984a1659 1659 0 0 1-72.68 189.957c-8.68 18.898-15.45 31.695-25.91 49.495-21.44 34-56.13 74.68-100.96 57.32-17.59-6.81-27.95-32.28-28.84-49.45-1.3-25.18-3.87-54.061-2.65-79.065.37-7.591 14-35.372 17.83-43.627 7.39 9.261 17.54 17.165 28.1 22.517-4.31 10.498-20.77 34.689-11.38 43.011 1.5.166 3.21.586 4.32-.521 7.56-7.53 15.73-28.305 20.18-37.421l31.69-64.015c22.32-44.798 45.87-89.478 66.81-134.929 3.7-8.036 12.75-28.084 12.89-36.269.5-28.615-36.65-76.523-29.85-104.037 4.84-19.599 42.37-57.135 60.95-67.774"/><path fill="#fefefe" d="M1455.58 336.782c1.7 1.896 5.25 20.435 7.16 24.946 18.23 43.023 48.9 86.894 93.58 104.952 6.11 2.468 16.65 7.692 22.29 9.598 41.77 14.111 28.04 55.509-9.65 62.033-2.45.425-2.69 2.34-3.38 4.206.51 3.935 2.22 5.391 4.73 8.526-.72 23.062 3 49.667 2.83 74.218-12.69-17.044-20.93-29.285-40.14-38.855-.29-16.353 7.1-84.623-7.91-91.826-12.15 1.122-13.16 24.556-13.35 34.115-1.43 8.199-1.84 43.876-2.14 53.537-11.51-4.656-14.38.721-20.17 9.714-29.8-12.824-7.19 31.28-18.09 41.43-5.91 1.75-22.9-2.73-29.36-4.351-18.31-4.594-36.83-10.966-47.13-27.649 5.57-20.483 17.59-46.41 2.31-62.3-.57-.589-1.61-7.846-1.84-9.283-2.26-3.35-5.87-4.032-9.93-6.142-1.14-7.447.87-53.225 1.23-63.623 10.93-3.401 28.24-4.7 31.97-6.145 2.07-2.441 2.11-2.527 2.29-5.807-4.47-10.111-26.62-2.018-34.12.922 21.52-41.362 38.46-76.334 68.82-112.216"/><path d="m1434.07 488.623 4.64.898c9.98 9.167-3.12 29.483-7.36 39.364-3.1 7.221 2.1 8.38 5.02 14.63-.38 4.042.15 2.465-2.77 6.066-9.98-3.693-12.08-8.509-16.56-17.485 1.95-6.672 6.19-13.631 9.19-20.233 3.72-8.214 5.44-14.519 7.84-23.24m48.73-40.753c10.2 1.407 38.1 4.726 42.31 15.633-.76 4.309-.2 2.69-3.38 6.595-12.5-4.41-24.02-7.304-36.85-10.446-4.39-1.076-6.47-2.315-7.06-6.848 1.8-3.608 1.16-2.456 4.98-4.934m-81.92 32.07c15.27-1.812 13.96 11.321 5.06 19.752-14.07 1.553-13.8-11.539-5.06-19.752m36.76 91.471c2.35.554 7.39 2.085 9.37 2.283 5.46.544 13.02-1.905 17.89.796 1.38 2.667 1.04 3.356.68 6.514-7.54 3.014-20.61 5.373-27.05-1.586-2.25-2.433-1.25-4.958-.89-8.007m144.34-72.364c2.19-.157 3.97-.09 6.15-.035 3.01 1.825 2.23.582 2.98 3.447-4.36 9.138-7.95 5.603-11.41 18.743-3.14 1.685-4.24 1.877-7.18.085-3.3-8.176 3.49-17.248 9.46-22.24m-89.96-12.48c13 4.508 11.15 13.998 1.87 21.407-12.07-2.509-11.76-14.83-1.87-21.407"/><path fill="#fefefe" d="M1284.56 1066.95c.03.11-3.23 179.82-3.49 180.74-6.61 3.15-48.81-1.74-60.2-2.55-21.4-1.52-33.41-2.5-47.27-18.99-.24-2.53-.92-5.19-1.46-7.69.36-10.93-.84-29.01-1.16-40.54l-1.72-73.21c-.14-5.44 1.57-21.01-.17-24.6l.97-.55c17.04 29.18 67.78 26.68 91.34 8.44 9.55-7.4 14.99-12.35 23.16-21.05m535.2-82.996.56.738c1.26 40.568-.17 83.168.64 124.278.61 31 1.93 68.04-.83 98.84-.92 10.29-13.5 18-21.56 23.49-7.57 4.27-13.52 6.69-21.9 8.77l3.74-136.3c.42-16.27-.13-41.25 2.22-57.13.61-4.15 15.42-25.24 19.08-31.16a716 716 0 0 0 18.05-31.526m-199.75-303.527c1.98-.349 1.79-.171 3.86.071.42 4.152-2.11 7.713-4.69 11.105-21.29 28.032-41.83 40.622-75.91 46.043l-1.84-.206c-.08-6.11 38.3-55.357 39.89-55.53 10.64-1.156 26.66.174 38.69-1.483m-163.26-34.635c5.94.266 9.84.831 15.75 1.766-1.76 9.126-5.28 19.489-8.12 28.443l-1.25-.05c-6.93-.22-8.67-.83-15.54-2.739 1.98-8.242 6.46-18.628 9.16-27.42m65.69-136.105.98.937c3.51 9.682 1.3 59.833-1.03 71.444-1.08.715-.61.396-2.35.325-2.3-4.67.96-64.009 2.4-72.706M415.118 162.608c14.221 1.463 53.071.214 69.381.533 44.688.782 89.35 2.667 133.945 5.654 7.082.412 14.25 2.486 21.501 3.003 63.14 4.503 126.266 12.763 189.064 20.773a4909 4909 0 0 1 94.597 12.52c71.903 10.13 88.854 7.355 99.514 87.687 29.49 222.34 33.38 448.253 42.09 672.201l6.65 185.661c.9 27.73 3.29 56.4 2.18 84.31-.47 3.72-3.11 9.22-5.33 12.16-14.16 18.72-48.99 22.02-70.124 25.36a1309 1309 0 0 1-80.359 10.92c-19.27 2.17-35.741 3.08-54.894 6.32-3.81-4.28-3.407-36.46-3.631-44.26a4322 4322 0 0 0-5.964-140.17c-5.396-88.5-15.775-230.42-81.124-296.182-19.126-19.305-24.301-23.8-47.176-37.976 24.019-62.364 16.078-58.616-12.805-116.926 19.522-32.676 19.432-100.132 27.731-138.126 3.054-13.982 2.39-33.215 5.371-47.677 1.733-9.411 7.441-18.902 8.903-28.264.601-3.85 2.652-13.424 2.253-16.705-4.157-34.192-28.479-70.872-46.374-98.331-68.367-104.902-190.145-139.039-295.631-64.932-18.789 13.2-33.748 28.677-48.765 45.986-88.45 97.636-59.649 235.294-37.053 351.95 1.667 8.606 18.543 67.673 18.222 69.526-3.75 1.944-20.806 7.105-25.197 8.138-10.011 2.353-46.472 21.37-53.59 20.736a34 34 0 0 1-.582-2.698c-.592-3.324-.671-15.378-.809-19.434l-1.529-38.864-5.219-162.895-8.625-229.6c-1.045-26.002-10.695-91.421 2.903-109.459 27.376-36.317 122.438-23.751 160.476-30.939"/><path d="M854.754 289.103c-.191 2.133-8.31 12.895-10.187 15.224-13.568 16.835-38.911 54.966-57.973 64.023l-.554-1.984c2.89-11.063 57.951-66.696 68.714-77.263m44.838 289.941.019.672c-12.167 20.999-49.903 74.83-65.963 87.01-1.923-11.041 54.452-75.212 65.944-87.682m87.184-179.937-.144.756c-10.447 17.924-34.981 57.198-51.898 66.706-2.52-9.305 42.708-58.325 52.042-67.462m-24.954 661.933c-.349 2.68-12.496 20.24-14.879 22.98-10.621 12.2-29.326 44.79-43.144 52-2.564-9.88 49.493-65.81 58.023-74.98m-39.267-291.074-.126 2.112c-7.872 12.53-27.016 42.256-38.66 50.239-2.078-10.434 30.77-44.533 38.786-52.351M804.337 522.709l1.097.244.541 1.475c-2.411 7.153-10.028 14.566-16.497 18.377l-1.972-1.47c.717-6.338 11.78-15.094 16.831-18.626m213.023 349.087c1.68 7.226-10.28 20.712-16.77 23.609-2.044-7.98 11.21-18.272 16.77-23.609M328.41 253.417c7.407 4.701-6.641 17.439-10.674 21.01l-2.372-1.153-.12-2.131c3.038-6.123 8.448-12.774 13.166-17.726m654.569 665.126 1.502.842c.239 5.8-9.338 17.941-13.735 21.716-1.445-1.411-2.349-1.64-2.127-3.019.95-5.919 10.577-15.549 14.36-19.539M844.965 459.884l.903 1.218c-1.577 7.746-7.887 14.92-14.424 19.064l-1.394-2.249c1.486-7.742 8.794-13.67 14.915-18.033M288.844 300.527l2.122 1.092.413 2.107c-2.251 6.045-6.929 10.29-11.58 14.593-1.248-.723-1.847-1.271-3.001-2.173.302-5.642 7.739-11.451 12.046-15.619"/><path fill="#fefefe" d="M729.733 489.797c.286 2.541-1.753 17.463-2.206 20.481-6.043 40.283-12.213 80.657-22.233 120.123-13.241-24.157-27.368-24.181-34.558 3.851-.221.861-9.423 3.117-12.967 5.63-9.258-4.737 11.269-72.484 14.638-82.959 2.735-8.504 6.337-15.761 12.475-22.61 9.404-10.496 20.582 2.27 30.073-6.886.8-3.214.92-1.659-.6-4.799-5.905-2.711-8.232 1.857-14.176-.192.377-2.351 26.528-29.347 29.554-32.639"/><path d="M703.912 546.06c14.905 8.173 9.415 33.416-3.649 42.442-5.627-1.957-8.393-4.307-9.748-10.532-1.975-9.08.036-19.215 4.9-27.084 2.532-4.094 4.147-3.822 8.497-4.826"/><path fill="#fefefe" d="M703.19 555.657c2.911 7.338-.009 12.922-2.883 19.91-4.121-2.289 1.23-16.632 2.883-19.91m-18.291 75.17c4.088 2.333 38.138 80.271 39.67 91.346.502 3.633-10.31 33.503-12.381 39.599-9.888-4.989-49.315-23.363-58.307-25.442 1.05-19.997-3.295-40.708-3.537-60.752-.065-5.377-2.033-15.128 2.549-18.466l1.154 1.074c6.716 27.798 15.849 40.92 13.096 68.58-.449 6.405-1.492 9.412 3.684 13.849 3.53.92 1.897 1.109 5.078-.454 12.576-15.495 1.626-52.549-3.764-69.804-1.899-6.08-7.096-16.918-1.388-21.109l1.845.3c10.353 14.28 22.964 52.37 28.213 70.071 1.525 5.144-6.763 17.227-.673 24.8l2.6.017c7.656-4.11 15.068-20.891 12.832-28.568-8.642-29.68-23.835-54.42-30.671-85.041"/><path d="M742.246 970.826c2.399.006 8.129.171 9.183 2.816 2.204 5.524 2.709 15.141 2.944 21.161 3.196 81.917 4.234 163.897 5.794 245.857l1.153 74.01c.096 8.69.719 31.89-.746 39.52-4.192 3.81-2.215 2.82-7.442 4.1-5.299-2.7-7.211-4.22-7.672-10.38-1.387-18.52-.698-37.24-.789-55.8l-1.285-97.03-2.773-135.65c-.798-26.67-1.866-53.76-2.65-80.471-.09-3.043 2.384-5.743 4.283-8.133"/></svg>