<svg xmlns="http://www.w3.org/2000/svg" preserveAspectRatio="xMidYMid meet" viewBox="0 0 2048 1462"><path d="M1021.73 131.444c-23.693-14.887-7.79-28.179 9.77-35.815 9.21-4.006 18.14-11.068 27.98-15.2a93 93 0 0 1 20.71-6.151c20.86-3.497 37.57.611 55.31 11.75 21.54 13.52 24.96 42.513 37.33 52.07 26.69 20.622 74.96-5.991 84.3 45.651 3.12 17.248-1.44 33.245 15.62 45.445 9.67 6.919 25.31 11.234 33.63 19.28 11.7 11.294 23.5 23.662 34.92 35.25l77.54 78.469L1530.6 473.55c11.47 11.364 47.49 45.391 54.88 55.932.62 8.201-4.19 11.073-10.02 15.793 18.91 24.008-3.12 20.955-16.63 31.716-15.07 11.997-15.89-.438-24.38.542-7.82 5.778-10.75 10.031-19.26.523-2.79-3.113-6.04-7.523-9.01-10.328-27.31 16.324-23.1-3.639-20.57-23.496-9.27-9.79-23.7-24.459-31.58-35.039 5.25 34.261 11.72 67.924 17.13 102.126 1.47 9.301 4.1 20.832 5.22 29.723 22.05.741 49.45-.826 71.86-1.533 40.24-1.185 80.48-2.624 120.7-4.315l2.89-73.819c.62-20.838-2.4-50.92 10.79-67.322 11.11-2.849 20.98-1.806 32.24-2.001 66.75-1.16 133.55-3.709 200.34-4.942 3.15-.058 3.61-.031 5.68-2.049.83-2.972-.89-15.146-.99-19.45-.98-39.152-7.16-81.36-6.01-120.097.18-6.026 24.31-19.896 26.34 14.4 2.27 38.264 4.42 77.264 6.48 115.644l8.16 139.204 6.94 106.708c1.2 16.896 3.39 33.37 3.61 50.497.26 19.149-1.77 25.321-22.67 23.499-40.44-3.523-81.33 2.707-122.09 1.133-20.16-.778-40.27 1.805-60.73-1.574-7.62-.775-14.26 2.124-21.86 2.143l-115.83.384c-11.33.125-32.77-5.704-44.04-.384-5.57 9.744 9.46 103.478-.25 122.052-12.95 24.739-22.23 9.368-39.38 12.775a170 170 0 0 1-25.72 2.865c-6.61.198-12.6-.961-18.75-1.037-4.61-.058-10.36.671-15.58.705l-81.01.846c-8.89.084-58.7-2.813-62.55.636-3.07 19.161 2.92 53.104 2.03 74.34.38 21.63 6.95 53.85-11 69.85-1.03.92-3.58-.06-4.93-.31-13.25-2.43-25.2 6.17-37.67-.3-1.35.7-7.13 3.82-8.29 3.67-20.38-2.57-40.84-1.16-61.37-1.77-11.09-.32-23.06.87-34.24 1.23l-60.14 1.55c-12.96.41-27.07-1.55-40.63.25-2.03.27-1.45.3-2.71 2.25 3.8 5.9-.13 20.2 2.6 28.09 1.66 4.8.36 11.74-1.61 16.44 3.43 7.93 3.49 16.22 3.8 24.71.14 3.85-3.47 11.67-1.85 14.55l.39.71c-.12-.23 1.07 1.93 1 1.56.76 3.92.64 29.67.06 31.68-7.27 7.31.75 12.7-8.45 21.14-9.19 8.43-76.43 8.65-91.459 8.67-13.993.03-124.468-.11-127.775 3.1-10.813 10.51 13.822 115.37-8.23 138.4-1.75 1.82-8.11 2.54-10.674 2.73-4.195.3-33.226 2.39-35.294 2.04-.474-.08-1.568-.92-1.793-1.14-.875-.83-1.612-2.26-2.266-3.29-.763 1.69-.992 2.47-1.52 4.26-4.237 2.16-9.1-.29-13.937.92l-1.99-1.39c-8.804 3.6-23.346-.21-32.76-.81-3.192-.2-6.338 2.21-10.209 2.21l-81.321-.33c-10.403-.07-16.142-3.15-25.472 1.06-1.236-.71-3.037-2.1-4.344-2.47-1.163-.34-34.484 1.03-36.29 1.54-1.599.45-1.781.85-2.416 2.3-4.155 9.47-1.011 65.39.294 78.55H81.027c1.082-16.19 2.214-32.81 3.122-48.99 1.183-21.06 6.383-17.63 24.347-19.38l-.202-1.08c-7.507-2.1-7.787-9.75-10.767-16.69 9.875-25.9 19.956-51.71 30.241-77.45 4.995-12.48 15.685-37.21 18.59-49.7-9.19-2.89-22.912-3.8-28.835-9.06-3.419-7.88 20.393-76.49 23.43-90.99 3.593-17.15 11.502-42.56 16.192-60.14 24.844-93.124 46.244-187.72 78.785-278.513 13.066-36.49 37.909-76.499 65.179-103.995-3.932-1.26-8.836-2.384-11.878-4.914-.553-4.3 1.189-11.066 2.602-15.226 29.909-88.062 59.248-176.481 89.782-264.315 12.877-37.042 42.094-55.897 80.336-60.046 14.649-1.59 37.844-3.234 51.075 6.355 11.94 11.337 15.771 50.32 19.946 66.782 1.407 5.544 11.666 15.669 13.272 21.912-3.989 12.923-18.641-.267-18.733 19.667-.13 28.555-45.124 36.737-66.765 37.509 35.592 14.473 72.382 27.711 107.734 42.399 22.851 9.495 50.015 23.575 74.645 29.599 55.463-41.949 117.725-83.103 176.036-121.257 3.923-2.567 10.942-2.47 15.595-2.355 15.762-10.041 36.372-26.598 51.75-38.157l88.01-65.709c45.434-33.847 90.224-68.43 136.464-101.211 6.13-4.352 12.36-8.662 18.16-13.451-6.91-11.784-5.93-14.588-8.49-27.709-29.22 19.941-65.25 10.482-81.34-20.841-4.37 1.346-8.17 3.086-12.48 2.186-2.41-1.515-2.67-1.399-3.76-4.089.1-7.82 4.99-12.661 4.23-21.027-1.4-15.512-5.35-24.447-5.57-40.67"/><path fill="#fefefe" d="M1698.52 517.116c26.42 1.72 215.76-7.195 223.54-3.289 1.73 8.295 1.93 21.084 2.49 29.91 1.44 21.174 2.58 42.368 3.39 63.576 2.4 52.987 5.77 107.954 7.56 160.685-6.68-.133-13.35.689-19.95.537-7.29-.167-14.65-1.466-21.94-1.154-11.45.489-22.69 2.449-34.2 2.506-15.52.077-116.82-4.666-122.96.923-.71.647-1.35 1.359-2 2.07-8.05-4.268-9.71-1.366-18.3-2.183-32.5-3.094-62.98-2.369-95.36.458-16.7 1.457-37.78-5.891-54.85-.02-4.11 1.183-12.1 5.478-13.05 9.799.58 1.025 1.99 4.039 1.85 5.182-1.84 15.05-1.87 30.472-1.73 45.633.07 7.246 2.77 15.002 3.47 22.206-.05 7.745-1.61 14.004-.23 21.704 1.19 6.701 3.47 18.532 1.04 24.834-.88 2.3-3.93 5.84-6.69 6.221-27.66 3.821-55.63 1.367-83.43 1.461-22.37-.059-44.79 2.499-66.89 2.495-23.66-.004-48.63-2.535-72.31 1.324-8.77 1.429-12.51 4.092-19.53 9.151.72 6.975 3.86 13.519 2.36 19.955-5.79 24.875 7.25 94.93-.17 114.3-11.54 6.01-97.61-.38-117.05 2.17-22.67 2.98-54.67 2.17-78.4 2.48-16.39.22-53.49-4.74-64.16 12.41-1.44 3.01.95 8.68 1.58 11.7 2.44 11.72-.14 26.5-.01 39.39.19 19.42 3.31 43.57 3.01 62.17a99.3 99.3 0 0 1-3 21.89c-3.74 3.61-19-.03-25.1.05-35.571.47-70.959 1.31-106.509 3.09-29.078 1.45-64.114-5.46-90.818 7.87l-.638 1.03c-4.608 7.49-2.032 23.7-1.99 33.35l1.344 95.24c.017 2.37.914 5.1-2.111 5.34-51.863 4.17-103.849-2.5-156.016 2.35-26.855 2.51-55.434-1.42-82.377 1.23-4.501.34-23.346 3.27-27.466 8.8-5.362 22.63 1.219 75.39-.415 96.04h-455.34c.463-13.38.254-35.12 1.71-47.58 62.341-.37 124.677-1.39 186.998-3.04 27.882-.57 56.625.01 84.512-1.63 3.476-.21 6.217-1.61 8.688-4.03 2.287-2.24 3.162-8.03 3.429-11.34 1.351-16.71 1.798-34.03 2.536-50.81 1.214-25.75 2.595-51.48 4.141-77.21l181.008-4.74c20.081-.49 96.288.95 107.242-6.73 4.543-10.45 7.544-122.19 7.619-138.69 49.762-2.38 99.552-4.13 149.358-5.25 21.506-.55 44.18-.51 65.717-1.43 6.344-.27 11.118-5.41 11.509-11.83 2.614-42.9 5.415-88.74 5.407-131.637l165.932-6.653c24.13-1.002 48.36-1.145 72.4-2.914 3.53-.259 9.54-1.914 11.3-4.837 5.42-9.016 4.78-29.914 5.25-40.149l2.85-59.889c.63-12.629 1.03-28.246 3.02-40.505 46.54-1.062 92.83-2.85 139.39-3.06l52.36-.07c10.39.028 24.24.479 33.78-.765 10.88-1.418 27.93-19.921 29.39-30.447 4.87-35.088.4-75.61 2.36-110.676 80.15-.642 160.62-5.132 240.81-5.836 13.84-.122 10.31-37.82 10.97-47.776 2.09-31.546.39-63.905 3.67-95.36"/><path fill="#fefefe" d="M1128.9 367.06c4.1 4.138 35.17 58.2 39.85 66.85.69 1.27 1.67 3.964.66 5.017-4.22 4.394-14.32 9.923-19.4 12.968l-117.45 70.215c-29.28 17.498-73.645 37.899-87.509 69.837-15.053 34.68 1.4 69.233 13.646 101.964l30.991 81.815a1936 1936 0 0 1 12.522 34.281c2.23 6.452 4.77 15.531 7.59 21.48 8.54 18.004 24.34 3.908 30.59 6.342.87 3.349.74 15.287 1.37 20.915-16.79 31.267-89.017 31.006-86.085 74.333.117 1.73.736 2.743.767 5.137-7.141 4.409-38.096.65-50.092 4.198-6.483 7.233-5.905 41.224-6.347 52.47l-2.935 89.318c-50.419 4.67-105.715.97-156.479 5.69-13.76 1.28-55.961-.57-65.828 6.26-4.692 9.9-7.467 88.06-8.361 104.28-12.34-6.19-50.822-23.26-63.306-25.95q-5.685-10.65-11.194-21.39c3.702-9.79 6.887-17.17 8.998-27.47 7.53.79 14.706 2.18 21.946.3 1.502-1.47 3.451-3.83 4.394-5.71 19.101-38.21 35.677-77.6 49.176-118.14 8.763-26.309 23.818-50.168 29.416-77.689 6.236-30.661-8.048-60.203-33.101-77.918-13.421-9.469-29.688-14.338-44.469-21.291-24.806-11.025-50.193-21.08-74.5-33.229-10.877-18.995-25.366-38.216-35.826-57.415-4.02-7.379-7.356-29.409-9.299-39.097a2788 2788 0 0 1-11.659-59.333c9.073 3.14 44.985 18.931 51.066 16.378.95-1.134 3.811-4.912 5.391-4.439 25.513 7.632 49.993 22.107 76.368 26.387 10.834 1.086 27.616-1.314 37.239-6.846 21.374-12.289 43.483-29.818 63.469-44.022l53.329-37.673c12.958-9.003 27.668-18.667 39.925-28.461 4.462 3.523 13.3 6.34 18.701 4.205 21.997-8.697 43.172-27.921 62.528-42.061l132.888-97.557c10.92-7.854 21.75-16.064 32.47-24.235 9.38-7.143 12.28.897 18.83-2.93 13.99-8.179 25.52-19.297 39.72-27.784M384.11 921.389c34.883 11.096 71.54 20.446 106.445 31.746 14.726 4.768 30.081 8.207 44.718 13.639-6.923 21.381-47.958 124.026-42.789 140.366 4.851 4.74 19.629 5.04 27.199 6.09-1.252 2.68-2.694 6.43-3.676 9.26-6.16 17.32-16.974 28.86-23.313 46.4-9.144 25.3-19.963 44.34-21.945 71.83-17.241.52-74.132-.91-91.051 3.77-7.136 1.98-7.632 39.36-8.242 50.46l-4.099 75.8-.726 14.99-60.659 1.21c-.059-6.54 2.429-27.2-2.112-31.1-21.308-18.32-50.667-28.88-74.341-44.18-6.405-4.14-9.481-9.65-14.717-14.69 3.495-10.65 6.781-20.22 10.802-30.67 8.902 1.81 30.022 7.07 37.838 4.86 7.272-5.31 34.624-92.75 39.012-105.94l54.197-163.09c6.229-19.046 19.847-64.711 27.459-80.751m898.85-335.512c5.07.371 7.45 18.051 8.87 23.106 17.79 63.113 29.76 126.863 76.57 175.411-6.66.513-13.08.38-19.74.359-58.03-.18-116.27 1.321-174.2 3.383-4.05.145-8.83 5.279-11.53 8.097-2.6 13.072-2.64 29.091-3.24 42.618q-1.155 24.71-2.79 49.393c-.22 3.904-.86 7.904-1.39 11.791-1.62-3.121-2.96-10.756-4.68-14.941-9.85-24.046-19.43-47.61-28.64-71.9 11.3-3.674 23.32-5.558 18.5-20.46-13.53-41.847-26.28-83.985-38.54-126.233 14.82-7.677 36.77-16.333 52.5-23.037a4188 4188 0 0 0 73.7-32.703c16.89-7.489 38.63-16.409 54.61-24.884"/><path fill="#fefefe" d="M1136.3 252.846c6.61 2.407 16 10.544 25.26 13.031 13.13 3.526 25.88 3.309 38.34 8.15 22.35 8.677 37.61 28.665 63.78 25.153 14.5-1.945 24.11-10.213 32.71-21.383 11.17 15.86 20.93 33.879 31.72 50.111 5.83 8.774 12.27 18.891 16.81 28.314-15.15 8.669-42.97 20.778-59.59 28.413l-102.95 47.345-6.52-9.493a2223 2223 0 0 1-38.33-63.157c10.11-9.235 21.66-16.889 32.22-25.569 4.66-3.833 8.1-6.049 8.64-11.831-1.35-3.62-.38-2.574-3.38-4.356-5.12.079-26.18 18.167-31.14 22.077a3417 3417 0 0 1-56.18 43.799c-11.11-11.764-34.12-46.046-45.93-61.618 9.06-8.256 24.9-18.616 35.08-26.21 19.56-14.591 39.33-28.976 59.46-42.776m-493 343.951c8.853-3.912 22.727-14.351 31.139-20.312l43.826-31.074c32.529-23.058 65.41-45.155 98.275-67.708 3.684-2.527 6.693-5.131 11.232-4.327 2.709 2.553 2.197 1.331 2.555 4.56-3.756 8.262-23.296 17.082-30.67 23.532-7.211 6.308-15.733 13.66-23.052 20.021-1.786 1.552-1.65 3.767-1.624 5.709 6.263 7.936 15.264-2.366 21.007-7.034 3.836.051 7.703-.092 11.541-.19-6.765 5.056-20.35 13.697-22.6 21.107.905 2.99.178 1.93 3.256 3.81 10.785.249 20.483-18.947 30.316-14.844-1.658 5.006-21.369 11.168-20.65 21.339 1.945 2.673 2.658 2.658 5.922 3.888 11.596-9.855 37.52-34.245 50.868-37.076l.394.973c-5.983 7-12.657 8.442-19.315 13.592-10.957 8.474-18.524 15.952-30.437 23.428-31.039 23.897-65.76 47.505-97.592 70.668-12.417 9.035-34.866 25.904-47.525 32.085-23.507 11.478-45.575 1.189-67.831-7.61l-36.961-14.576c9.366-19.999 16.437-42.134 26.436-62.514 12.81 6.457 47.535 19.027 61.49 22.553"/><path fill="#fefefe" d="M1032.72 328.136c3.68 2.795 34.23 47.149 39.8 54.518-28.73 23.356-67.85 49.22-98.424 72.084a4577 4577 0 0 1-95.016 70.097c-7.172 5.158-36.21 30.574-45.074 24.54 3.076-3.855 10.176-9.296 14.229-12.636 1.975-1.092 7.274-4.416 9.034-5.115 16.02-6.202 10.963-32.083-7.059-24.03-8.797 3.931-16.378 10.398-25.326 13.932l-1.588-1.154c.835-8.312 17.954-11.159 23.064-22.432.056-5.029-.796-5.143-4.548-9.512.196-3.921 1.411-5.423 3.308-8.86.253-3.337-1.388-5.604-2.956-8.701 12.599-11.109 37.694-28.295 51.896-39.16 45.578-34.869 93.333-68.464 138.66-103.571m276.35-59.711c2.62.809 5.47 3.621 7.44 5.551l248.9 248.634c3.25 3.278 10.27 9.829 5.2 13.802-11.29-.762-25.38-34.522-37.29-24.422-3.52 10.605 35.94 34.378 36.46 47.889-6.17 6.694-30.38-25.957-36.16-31.791-2.87-4.003-3.3-4.74-7.56-7.411l-3.11 1.005c-5.11 17.731 30.16 34.486 28.94 47.541l-2.25 1.696c-7.75-.528-29.52-40.34-41.48-35.692-6.22 10.986 19.68 22.849 20.57 34.113l-1.47 1.221c-7.16.358-9.8-6.858-14.62-12.006l-41.17-44.138c-5.64-6.059-17.25-17.469-21.06-23.829-4.61-8.832-7.48-19.391-11.05-28.687-12.58-32.791-34.75-59.712-59.73-83.885-5.06-4.906-17.39-16.449-20.78-22.151-16.54-27.768-34.86-54.659-50.78-82.733.4-1.874.73-3.443 1-4.707M452.804 522.642c11.23 3.184 29.19 10.886 40.789 15.386l78.403 30.745c-7.737 22.526-19.787 45.999-27.968 68.955l-1.831 2.786c-2.376.33-101.008-36.26-111.903-40.071 6.672-27.128 15.568-51.327 22.51-77.801m-24.967 88.841c16.805 6.175 34.403 10.732 51.056 17.263-2.785 12.017-12.229 35.943-16.733 48.615-6.691 18.826-13.512 40.187-20.857 58.445-.647 3.881.027 3.29-2.159 5.903-7.076-.523-35.656-15.006-43.403-18.959 10.896-37.428 21.654-73.656 32.096-111.267m82.955 543.237c9.552 2.4 41.944 4.77 54.155 6.05l18.456 59.51c-10.089-.48-22.108-.21-32.342-.23-6.777.76-59.447.77-65.001-.52-1.174-6.66 20.492-55.84 24.732-64.81M147.26 1300.78c3.712 1.75 40.268 4.82 45.787 4.49 4.027 14.96 9.942 28.33 15.405 42.74 2.391 6.31 1.576 9.41.259 15.79-10.925.6-23.2.31-34.247.28-9.374-.17-55.482 4.39-59.763-.22 3.855-14.51 16.089-48.51 22.907-61.85 2.704-1.8 6.189-1.27 9.652-1.23m339.268-661.009c1.715 2.711 2.954 15.363 4.129 19.628 6.169 22.382 9.864 54.572 16.657 75.873 2.721 8.532 26.196 44.367 32.192 52.38-8.623-4.138-18.185-7.82-27.192-12.06-19.085-9.536-43.852-19.54-63.966-28.848 4.952-11.183 9.644-27.122 13.799-39.035zm545.132-499.143c19.12 7.223 31.7 11.255 51.93 13.173 3.33-2.899 6.92-6.453 10.17-9.523l10.17.454c3.2 4.448 5.76 6.884 5.37 12.31-1.96 5.057-4.86 3.931-8.08 8.086.08 12.456 39.52 25.038 9.13 44.123-17.56 9.007-39.8 9.119-53.58-6.58 5.25-3.511 16.13-10.375 11.54-17.103-7.22-3.14-9.89 5.97-16.48 7.285-5.54 1.105-2.6-6.009-8.3-9.908-3.33-.257-5.13 1.369-8.09 3.167 4.19-20.185.32-25.166-3.78-45.484"/><path d="M1044.66 153.603c11.84 3.034 13.1 10.414 3.08 17.554-9.24-3.933-9.91-10.321-3.08-17.554"/><path fill="#fefefe" d="M515.714 398.323c3.7 13.536 4.112 26.373 7.386 39.505.54 2.165 7.058 13.424 8.447 15.888-1.853 2.381-8.152 4.133-11.689 5.663-1.849 2.333-1.992 7.038-2.398 10.222-3.617-.901-4.931-5.565-10.255-8.648-3.106.136-1.937-.17-4.692 2.097-3.045 8.628 8.65 15.353 14.875 18.941-12.106 12.769-27.397 16.703-44.174 19.967-3.957.224-13.612 2.048-17.943 2.735 2.931-15.146 10.166-35.941 11.095-50.295-3.51-3.482-22.982-1.584-13.665-18.204 14.093-9.27 28.439 24.434 63.013-37.871"/><path d="M509.941 423.742c12.639 2.925 10.474 10.467 3.636 18.328-13.235-1.967-10.324-10.866-3.636-18.328"/><path fill="#fefefe" d="M1127.26 855.194c5.79 4.717 18.48 48.379 20.37 59.855-20.69-.71-44.6.767-65.88 1.149-1.78.134-3.48-.048-5.26-.17-3.19-2.884-13.55-44.833-15.58-52.027 20.07-.386 47.61-2.693 66.35-8.807m26.69 67.522c1.26 2.931.02 7.261-1.8 9.784-9.86 1.801-43.8 2.447-56.09 2.871l-126.54 3.257c-.834-1.923-1.11-3.568-1.564-5.598l1.004-2.025c26.794-3.004 171.35-1.008 184.99-8.289M482.487 1230.29c45.367-.12 132.282.5 180.568.31.82 0 1.459 4.21 1.773 5.61-5.572 1.74-176.637 4.25-181.929 2.6-1.568-2.67-.788-5.26-.412-8.52m-269.458 144.17 1.404-.3c24.714.64 49.455.83 74.161.31 2.97-.06 4.227.91 6.057 2.49.029 3.37.547 2.88-.99 5.24-8.59 1.15-23.563.62-32.675.64l-60.236.11-56.085.02c-10.221.05-27.706 2.46-35.941-3.68l.031-1.79c3.686-1.84 92.409-2.63 104.274-3.04m817.851-490.44c2.61 3.325 8.72 26.37 11.04 33.02-16.22.5-45.437.673-60.335 2.847-3.426.174-5.733.097-9.164-.087l-.921-1.038c3.422-8.101 48.56-29.186 59.38-34.742m-425.352 302.14c10.295 3.36 57.436 21.53 60.566 30.02l-1.21 1.63c-3.706 1.92-6.384 1.29-10.613 1.01l-.621.45c-8.357.38-46.911 2.24-51.097-.64-1.279-4.26 4.122-12.58 4.407-18.34.268-5.41-.508-8.85-1.432-14.13m-372.932 141.12c7.962 1.41 58.774 30.01 61.855 35.92-2.35 1.7-4.727 1.1-8.175 1.18-7.945.14-48.585 1.14-55.154-.65.695-5.13 3.831-6.1 5.717-10.29 3.493-7.76-1.373-18.75-4.243-26.16m-76.577-75.8c14.933 1.47 42.16 8.21 59.155 11.05l-3.938 10.86c-17.401-.67-42.663-4.15-60.388-6.29 2.163-5.66 3.528-9.79 5.171-15.62m959.751-419.284 1.69.684c1.78 3.981 3.99 8.713 3.01 13.023-6.3 3.865-57.82 8.251-64.38 5.346l-3.13 2.8-1.67-.424c-1.12-2.537-.66-6.066 1.35-8.035 7.77.356 54.61-11.061 63.13-13.394M146.782 1277.31c20.659 2.7 40.233 3.72 60.837 7.79-1.337 3.22-3.107 6.73-4.622 9.92-9.419.03-53.349-2.97-60.325-6.18.201-3.46 2.646-8.17 4.11-11.53m384.583-163.55c6.337.06 55.795 8.1 58.61 10.42.342 3.27-.129 3.75-1.512 6.89l-2.305.88c-12.925.05-45.793-3.15-59.867-5.16-.385-3.15 3.485-9.91 5.074-13.03m519.405-243.062c1.61 1.727 13.38 41.201 13.99 44.855-1.98 1.669-4.86 1.827-7.51 2.284l-4.18-1.021c-3.49-3.566-9.24-32.428-10.87-39.171 3.06-3.132 5.07-4.458 8.57-6.947M522.352 1136.84c9.149 2.73 48.044 5.79 59.035 6.62l.987 1.32c-.443 3.36-.5 3.82-2.552 6.49-8.721-.82-54.496-4.29-60.107-6.13-.562-2.68 1.381-5.66 2.637-8.3m-318.385 170.58c11.311.43 16.206 17.75 20.128 26.87 2.79 6.49 5.105 11.32 2.068 17.96-1.7 1.03-1.653.97-3.6 1.43-7.645-17.82-12.773-27.46-18.596-46.26m373.708-144.71c1.9.03 3.327.23 5.19.46 9.655 9.36 15.918 31.63 10.523 44.52-1.123.49-.685.25-2.351-.17-3.801-4.96-12.402-37.72-13.362-44.81m533.445-347.568c.78.225 1.89 1.168 2.64 1.702l-.22 3.172c-7.26 5.71-47.85 13.666-58.29 14.853l-2.67-.533.34-1.242c5.83-2.86 11.29-3.3 17.24-5.305 13.6-4.582 27.21-8.586 40.96-12.647M827.871 494.547q2.301.264 4.598.567l-.345 1.821c-3.358 3.971-12.784 9.545-17.519 12.617l-3.999-.804-.042-.916c2.784-3.241 12.827-9.759 17.307-13.285"/></svg>