<svg xmlns="http://www.w3.org/2000/svg" preserveAspectRatio="xMidYMid meet" viewBox="0 0 2048 2048"><path d="M1003.67 86.58c12.65-1.039 24.09.617 36.67.73 38.65.352 77.94 2.74 116.36 6.725 96.23 9.981 193.17 44.896 280.55 85.472 8.11 3.768 81.52 46.642 83.55 49.621l-1.77 2.426.82.486 2.51-1.647c13.28 4.861 76.24 54.596 89.83 65.974A887.55 887.55 0 0 1 1906.8 797.74c13.14 65.503 19.41 134.122 19.58 200.966.05 20.224-.77 28.794-4.97 48.694-3.2 15.16 1.61 39-1.13 54.72-8.44 41.81-22.83 83.53-33.29 124.99-4.14 16.41-13.88 34.83-18.96 51.22-11.89 40.86-28.82 77.04-48.6 114.2-126.16 237.07-355.93 420.69-621.3 473.36-40.24 7.99-78.74 17.76-121.07 21.32-12.77 24.68-27.38 60.24-39.51 86.54-2.67 6.38-8.18 21.07-12.55 25.22l-1.71-.43c-6.95-7.91-43.485-96.78-49.791-111.15-18.594-2.86-38.369-5.14-56.737-8.43a1388 1388 0 0 1-108.701-24.72c-21.65-5.7-43.912-13.32-65.06-20.7-.758-.27-3.673.51-5.253-.2-18.429-8.29-36.486-17.85-55.048-25.81a904.13 904.13 0 0 1-394.131-332.92c-38.882-58.4-71.747-119.69-93.7-186.07-3.932-11.88-9.92-23.76-13.921-35.74-32.257-96.64-49.05-197.86-45.841-299.817.304-9.893 2.454-21.794 3.158-32.037a928 928 0 0 1 17.376-131.729c15.435-76.269 46.923-152.654 80.93-222.434 7.748-15.899 9.332-21.761 22.45-33.429l-1.814-1.578c-.137-3.49 6.976-14.461 9.12-17.995 27.891-45.965 65.627-97.239 102.179-136.709A901.2 901.2 0 0 1 707.843 145.8c20.501-8.125 43.958-18.162 64.844-24.442 13.851-3.743 29.091-4.733 42.961-8.066 60.511-14.54 125.826-24.325 188.022-26.713"/><path fill="#fefefe" d="M956.192 1842.23c-229.425-24.96-435.621-145.91-579.537-324.86a838.15 838.15 0 0 1-187.406-476.2c-4.954-74.949-.343-147.016 14.034-220.832a848.17 848.17 0 0 1 192.029-395.767c77.45-89.728 170.185-160.104 276.689-213.26 18.631-9.03 37.187-15.695 56.469-23.428 137.449-55.125 281.93-67.343 428.17-51.471 25.37 2.753 51.6 10.418 76.46 16.493 82.31 20.11 167.75 56.087 240.23 100.132a853.87 853.87 0 0 1 334.52 386.515c90.88 210.09 93.44 447.898 7.1 659.898-114.28 284.98-367.58 484.04-666.24 534.94-17.94 3.05-35.99 5.64-53.89 8.85 3.88-12.1 8.45-23.57 13.04-35.41 47.11-3.87 97.4-16.1 142.54-29.82a828 828 0 0 0 399.91-262.82c9.11-10.74 19.42-25.19 27.91-36.59a838.3 838.3 0 0 0 148.89-327.68c8.32-38.32 10.23-65.63 16.19-102.35-31.85-29.52-73.14-61.528-107.11-90.281l-220.33-185.988-188.75-160.583c-26.54-22.764-53.49-47.248-80.48-69.163-3.61 4.356-5 6.392-7.94 11.234 18.71 19.247 56.12 50.473 77.19 68.565l98.19 84.828 216.46 184.261c39.13 32.675 78.1 65.549 116.9 98.621 26.66 22.556 51.97 43.136 77.86 66.686-3.85 28.28-8.25 63.88-14.42 91.37a834.4 834.4 0 0 1-216.35 403.58c-38.51 39.56-78.79 73-125.14 102.88-13.16 8.48-26.61 17.05-39.54 25.86 25.4-53.15 49.7-107.02 80.95-156.9 1.58-2.52 3.88-6.34 2.12-9.12-3.53-5.55-10.98-10.19-16.59-13.42-41.06-23.6-86.24-36.36-131.9-47.68-47.8-11.85-96.24-19.37-145.22-24.36-9.47-.96-20.95 1.76-30.32-1.77-34.58-15.16-41.37-72.42-43.87-102.96 14.22 4.87 25.99 6.06 40.72 2.26 7.66-1.97 23.27-6.42 28.04-12.69-6.85-1.77-17.66-.91-25.39-4.34 7.08-.9 14.53.77 23.11.15l1.43-.11c22.08-4.64 46.21-15.39 61.89-31.95-15.76-2.76-25.09-6.62-37.78-16.94 37.04 10.9 72.58 2.73 104.43-18.33-21.66-.64-41.42-5.35-60.73-15.58 27.03 1.02 40.02.29 65.29-12.11-27.86-18.56-46.35-39.49-53.2-73.08a137 137 0 0 1-2.58-29.29c.12-9.98 6.14-72.45 11.43-79.55 21.58-28.98 24.38-41.96 20.96-79.367 19.8-37.953 11.07-119.328-2.1-159.438-17.65-53.785-52.19-90.446-95.35-125.116-9.51-7.637-25.06-20.168-35.15-26.448-4.35 15.235-8.83 33.046-13.62 48.272-.52 1.662-3.07 4.26-4.78 5.318l-1.87-.452c-4.26-10.978 36.15-119.618 43.39-136.033 14.87-33.736 41.18-70.557 77.3-83.598 91.76-38.167 157.07 91.083 183.73 159.731 18.73 48.228 16.31 75.659 52.9 120.686-2.17-37.476-7.84-87.633-20.24-122.778-30.96-87.781-97.6-224.439-206.99-217.141-145.48 9.706-175.32 146.373-208.46 260.389-.78 2.679-3.17 4.776-5.92 5.357-1.38-1.027-2.22-1.152-2.13-2.507.93-14.626 7.18-37.136 10.84-51.284-38.88-4.483-97.856-4.12-136.803.264 3.828 13.276 7.707 26.472 9.669 40.181.721 5.035.591 9.19-4.649 11.476-4.41-3.271-5.727-13.707-7.496-19.268-26.797-84.239-50.812-197.41-142.945-233.47-101.168-39.596-175.088 19.502-217.296 107.832-30.595 64.026-64.903 135.119-59.628 208.136 4.208-4.07 21.239-19.713 22.91-24.355 6.532-18.156 9.968-38.019 16.568-56.321 5.704-15.815 10.571-33.256 17.301-48.55 24.583-55.867 70.698-146.154 141.926-143.789 76.05 2.525 111.61 100.612 133.354 160.594 4.338 12.358 11.916 26.336 14.563 39.221-1.112 2.645-.21 1.666-2.889 2.943-7.813-3.325-14.561-29.881-18.544-38.771-62.312 37.976-141.243 85.578-159.06 161.051-11.683 49.489-1.427 114.873 24.659 158.199-4.431 24.798-4.508 41.71 9.052 63.756 2.745 4.47 9.049 8.2 10.182 13.14 11.91 51.96 34.23 115.04 8.813 165.98-13.619 27.3-34.13 39.06-61.353 46.67 24.372 15.05 33.12 12.09 58.442 16.05 24.398 3.82 26.845 9.27 54.4 5.18-20.89 13.78-55.461 17.06-79.926 15.37 12.723 10.49 22.604 15.14 38.064 20.99 3.572 1.35 8.017 7.67 11.487 9.37 32.754 16.03 64.57 14.52 99.015 5.99l-.996.63c-5.219 3.28-13.316 6.09-16.445 9.02 7.431 6.19 35.056.5 44.448-1.57-.216 31.51-7.327 101.46-49.764 104.39-23.695 1.63-47.666 3.54-71.336 7.08-71.553 12.02-174.161 32.41-230.799 80.59 30.14 38.74 49.823 74.56 69.673 119.62 7.446 16.9 15.567 34.86 21.009 52.52-34.386-21.5-62.533-40.56-94.571-66.23-144.938-116.11-249.453-275-292.461-456.21-7.43-31.3-14.971-78.88-14.263-111.01 36.773-33.86 77.123-65.227 115.114-97.761l322.202-273.414c35.007-30 70.739-59.251 105.292-89.652 7.614-6.698 29.203-24.23 35.049-30.596-2.188-5.753-3.736-9.458-6.462-14.989-123.694 102.715-245.947 209.739-369.143 313.57l-146.47 123.247c-19.066 16.125-54.986 44.955-71.906 61.705-.753 142.91 72.149 309.03 154.898 422.97a884 884 0 0 0 80.265 93.83c52.087 52.75 106.672 97.99 170.49 135.78 11.673 6.91 28.547 18.64 40.077 24.16 49.931 23.92 101.699 44.73 154.795 60.45 31.601 9.36 60.623 18.3 93.519 23.09 7.163 1.04 18.858 3.64 25.693 3.84 4.734 10.26 9.715 20.74 14.288 31.04"/><path d="M1028.17 229.515c2.17 1.855 5.81 8.359 7.43 11.177 10.8 18.795 18.71 29.805 38.21 39.969l-1.41.502c-21.73 7.798-34.53 27.419-43.95 47.3l-1.29-.075c-6.11-13.749-13.62-26.048-24.52-36.65-4.471-4.356-8.99-9.684-15.562-10.279-1.362-.123-1.005-.118-1.953-1.171 1.311-.587 6.826-2.487 7.177-2.72 18.338-12.127 25.338-32.68 35.868-48.053m-50.89 148.322 10.245 8.989c-22.405 22.947-60.976 53.815-86.5 76.241-2.997-3.063-7.583-7.004-10.843-9.992 10.792-10.404 22.064-19.361 33.406-29.117a5489 5489 0 0 1 53.692-46.121m99.88 1.281a2210 2210 0 0 1 84.74 75.403c-3.03 3.176-6.33 6.322-9.48 9.408-22.17-17.903-43.15-38.273-64.75-56.933-6.76-5.845-14.93-12.628-20.6-19.391 3.33-2.449 6.91-5.74 10.09-8.487m-51.4-27.787c11.75 3.045 10.2 19.125 9.78 28.901-.29 6.797-.21 11.008-5.49 15.497-3.51.043-3.82.342-6.86-1.511-7.14-9.084-5.45-33.946 2.57-42.887m86.24-78.063a8.94 8.94 0 0 1 9.11.872 8.95 8.95 0 0 1 3.58 8.427 8.94 8.94 0 0 1-5.7 7.16c-4.5 1.696-9.53-.456-11.4-4.875a8.943 8.943 0 0 1 4.41-11.584m-166.751.14a8.6 8.6 0 1 1 3.296 16.881 8.6 8.6 0 0 1-3.296-16.881m81.411-95.631a8.42 8.42 0 0 1 8.2 2.364 8.43 8.43 0 0 1 1.92 8.312 8.42 8.42 0 0 1-6.33 5.719 8.42 8.42 0 0 1-9.9-6.349 8.41 8.41 0 0 1 6.11-10.046"/><path fill="#fefefe" d="M1102.57 785.791c5.51 11.455 9.61 28.682 16.02 41.958 24.97 51.764 61.63 99.829 108.7 132.959-7.47 53.952-15.96 111.772-30.32 164.002-3.8 13.84-8.16 29.62-14.39 42.55-21.88 45.39-76.7 89.62-123.66 106.04-34.78 12.17-63.132 6.1-95.304-9.53-11.765-5.51-22.997-12.7-33.38-20.48-21.154-15.86-42.818-37.01-56.496-59.82-31.541-52.59-44.758-160.07-53.994-222.838a65.5 65.5 0 0 1 18.253-12.853c5.45-2.627 11.148-4.468 16.863-6.391 53.87-18.129 107.733-38.679 158.398-64.597 26.9-13.764 54.82-32.27 73.19-56.538 6.71-8.863 12.46-24.131 16.12-34.462"/><path d="M931.89 921.387c3.29-.019 6.579.159 9.847.533 16.755 1.775 34.22 6.816 45.279 20.504 5.366 6.402 10.409 21.098 1.191 26.494-6.933 4.059-15.231 1.18-21.594-2.619-6.049-3.612-11.004-5.492-17.887-7.667-14.655-4.013-25.767-5.039-41.01-5.352-10.051-.206-24.158.303-33.616-2.023l-1.176-2.431c1.788-14.936 45.396-26.247 58.966-27.439m175.85-.048c23.61-2.473 46.48 4.134 64.2 20.542 2.02 1.871 1.37 3.649.84 5.725-8.23 8.577-46.95 3.734-66.17 7.82-6.27 1.559-12.43 3.472-18.35 6.183-4.8 1.607-13.03 7.553-17.58 8.324-21.87 3.709-17.14-16.775-8.7-26.949 12.62-15.23 27.95-19.105 45.76-21.645m7.97 44.994c1.73-.163 3.46-.302 5.2-.415 7.62-.488 41.74.245 41.41 10.586-4.85 6.115-56.24 39.506-65.32 44.816-13.57-2.19-.28-25.785-10.34-29.564-8.07 2.483-9.83 15.294-18.55 14.814-3.19-1.86-3.42-1.69-5.06-5.11-.18-4.152 1.19-6.95 3.82-10.18 14.11-17.335 28.29-21.567 48.84-24.947m-195.359.089c22.695.142 50.366 6.052 61.442 30.567 1.688 3.731-1.187 9.391-6.259 9.631-7.383-3.77-11.502-15.515-18.934-14.447-3.42 3.96-1.902 15.547-1.62 21.077-.236 4.95-1.058 7.32-5.994 7.49-8.408-3.89-56.684-35.418-62.676-41.624.684-10.999 25.546-12.049 34.041-12.694m45.961 196.108c4.766 1.24 4.995 3.8 7.068 8.12 29.49 2.83 53.41 6.31 83.04 1.85 6.12-.92 13.09-.64 18.83-3.16.9-2.34 1.3-3.29 2.48-5.48 12.24-1.45 11.75 15.02 4.5 22.85-3.26-1.19-5.75-3.32-8.64-5.37-19-.42-33 4.02-50.45 4.34-10.17.18-31.518-6.06-43.866-4.76-3.185.33-8.89 3.37-12.592 4.75-10.838-5.92-6.789-15.6-.37-23.14m21.539-60.12c3.41 1.28 12.979 15.8 17.749 20.45 7.5 7.32 8.51 8.47 17.56 14.47 9.47-5.49 17.57-10.95 25.23-18.9 4.27-4.44 8.02-14.54 13.87-14.04l1.37 1.94c.79 4.57.52 5-.52 9.66-8.49 16.7-33.67 40.09-52.3 26.68-10.825-7.8-32.416-25.75-22.959-40.26m25.559 96.91c9.47-.32 28.16-3.57 30.21 8.03-1.89 2.08-1.75 1.42-5.37 1.87-7.01.13-27.65 1.55-31.73-3.14l.28-2.15c2.55-2.78 3.32-2.97 6.61-4.61"/><path fill="#fefefe" d="M1123.9 1256.33c.9 3.31.21 31.9.86 38.57 4.07 41.7 8.15 105.23 39.74 135.37 13.83 13.19 28.17 13.32 44.92 12.38-4.06 18.14-8.63 37.59-19.16 53.16-29.12 43.02-84.87 60.47-133.2 68.45-5.01-10.29-22.79-55.32-31.16-58.47-1.64-.62-2.96-.5-4.52.13-8.12 3.26-25.824 49.58-30.524 60.07a448 448 0 0 1-34.383-8.83c-66.777-23.39-97.376-43.09-113.205-113.66 3.341.15 6.688.17 10.031.07 15.083-.52 24.575-4.8 34.913-15.88 30.747-32.94 36.952-127.57 35.245-171.02 74.765 54.78 125.583 48.88 200.443-.34m-100.26 388.31c4.15 4.01 38.31 85.83 42.37 95.69-12.33 33.21-27.95 66.41-39.63 99.85-4.29-4.6-37.985-86.11-42.517-97.07 10.476-31.6 26.567-67.36 39.777-98.47m253.91-699.414c9.28-.196 18.56 1.49 23.49 9.863 19.3 32.751-11.82 67.691-34.48 88.511-13.64 12.53-25.11 21.54-39.88 31.2l4.32-27.02c1.24-7.77 2.06-15.87 5.14-23.18 7.86-18.67 43.48-41.678 44.6-45.069-9.92-15.805-34 10.159-41.49 18.32 1.55-10.615 4.18-22.217 6.06-32.967a66.7 66.7 0 0 1 32.24-19.658m-515.056 1.018c17.241.704 26.874 10.147 39.768 20.429.661 9.473 3.074 21.726 4.69 31.303-8.193-6.043-33.766-33.036-43.686-20.138 1.909 9.513 47.022 33.212 49.759 54.402 2.138 13.99 4.101 26.78 7.048 40.6-27.889-16.65-67.495-51.88-78.306-83.946-6.197-18.382-.299-38.189 20.727-42.65m211.038 809.546c2.658 2.84 39.998 93.98 44.048 103.9-7.94 11.85-15.75 23.77-23.455 35.77l-.659.33c-4.463-2.57-36.721-87.25-42.242-100.63 6.755-13.42 14.617-26.47 22.308-39.37m101.648 1.78c2.93 3.02 19.37 30.78 23.57 37.09-8.8 19.86-16.01 40.73-24.26 60.83-5.92 14.42-12.68 28.03-18.31 42.66l-1.07-.05c-7.22-12.37-14.13-27.16-21.47-40.25 11.41-30.13 28.52-71.02 41.54-100.28m-82.681-165.93c5.42 5.13 19.521 30.55 22.461 37.42-12.56 33.03-28.633 63.31-40.801 98.57a574 574 0 0 0-23.074-36.99c9.986-27.55 28.668-73.51 41.414-99m63.191 1.21c6.69 8.24 33.91 79.89 39.96 93.95-4.66 9.07-15.65 31.2-21.65 38.72-12.7-32.62-26.41-64.83-41.09-96.61 7.66-12.21 15.66-23.4 22.78-36.06m47.05 111.89c2.08 2.26 6.41 10.1 7.6 13.06 9.3 23.07 4.22 41.99-4.03 63.68l-4.99-9.09c-5.44-9.47-13.3-21.19-19.23-30.65 4.02-11.19 14.17-26.59 20.65-37m-159.473 1.95c6.679 6.88 17.746 26.14 21.896 34.49l-15.705 26.4-5.018 8.15c-11.986-24.93-10.947-43.78-1.173-69.04m87.353 176.72c3.36 3.09 15.38 25.5 18.8 31.46-3.33 8.73-8.59 19.67-12.47 28.37l-5.54 11.63c-.62-23.82-.88-47.64-.79-71.46"/><path fill="#fefefe" d="M1016.41 1541.67c2.3 8.34 1.61 55.84 1.58 66.94l-6.04-11.55c-4.19-6.86-8.25-13.8-12.171-20.81 3.501-9.89 11.601-25.27 16.631-34.58m14.42-.08c6.06 9.12 11.58 25.2 18.51 36.69l-11.48 17.68c-2.14 3.4-4.64 6.91-6.92 10.25-.6-20.63-.07-43.81-.11-64.62m-14.92 346.19c3.12 3.18 1.12 55.78.96 63.75l-4.99-10.81c-4.33-9.13-8.68-18.04-12.349-27.47 5.399-7.36 11.449-17.58 16.379-25.47"/><path fill="#343437" d="M1354.89 163.139c3.36-1.49 10.05 3.665 11.57 6.618-2.53-.007-8.81-4.839-11.57-6.618"/></svg>