<svg xmlns="http://www.w3.org/2000/svg" preserveAspectRatio="xMidYMid meet" viewBox="0 0 2048 1152"><path d="M1691.67 185.301c68.83-4.257 96.68 94.69 113.68 144.716 9 26.573 18.76 52.88 29.27 78.89 28.26 69.407 66.02 129.286 116.32 183.915 2.78 3.012 6.25 10.006 2.29 13.368-11.76 3.497-34.56-27.642-41.67-36.31-48.53-59.148-83.55-128.757-108.78-200.69-12.8-36.491-23.54-74.469-39.93-109.457-13.91-28.853-31.89-51.071-62.88-61.441-42.51 9.615-52.52 55.364-74.28 86.499-29.8 42.637-73.68 106.155-117.74 133.771 9 6.159 24.57 21.034 33.75 28.754 23.61 19.851 45.61 38.683 70.8 56.634 16.96-26.208 45.23-84.183 74.09-96.194 3.65-1.521 6.91-2.732 10.67-1.152l.48 2.021c-.28.975-.62 2.133-1 3.474-6.4 3.631-20.41 13.379-24.82 19.049-19.23 24.711-34.84 52.465-51.46 78.694 43.37 39.873 68.84 66.242 99.03 117.257.4-1.754.84-3.5 1.31-5.234 4.12-14.784 9.94-22.176 22.8-29.506 2.47.165 6.91-.068 9.55-.134 23.36 13.215 38.65 39.942 53 61.977 16.91-33.531 57.57-82.279 82.12-22.265 9.62 23.514 10.65 53.586.22 76.729-4.19 9.315-8.69 18.959-12.96 28.473 16.5-11.07 55.1-35.768 64.67-1.087 3.67 13.331-11.98 33.487-19.55 44.549 12.16 5.523 10.05 13.158 10.43 24.45 1.03 31.518-26.94 54.764-51.27 70.634 16.86 14.328 37.08 24.762 55.59 39.342 29.32 23.086 45.67 52.618 53.16 89.043.64 3.11-.42 4.68-2.2 6.87-3.4 2.14-77.43.53-87.33.51l-220.01.39c-23.16.23-46.86-.48-70.05-.3-9.84.08-11.88 7.84-22.92 8.27-26.98 1.03-54.11.92-81.08 1.28l-183.85 1.82c-244.55 3.2-489.123 2.32-733.636-2.66-39.768-.81-80.598-1.36-120.342-3.66-.785-.05-4.855-6.46-10.151-6.24-35.169 1.44-70.393-.69-105.521 1.33-2.951.17-7.342-1.35-10.6-1.36l-124.532.39c-10.891.08-43.682-.69-53.086.17l-3.024.25c-10.801-.69-80.58 1.37-84.85-2.48-1.308-1.18-1.868-3.58-1.877-5.26-.098-18.254 39.34-72.156 52.531-86.211l-.573-.499c-24.726-21.769-52.907-69.179-56.633-102.827-1.597-14.425 6.461-20.2 19.987-20.915-6.317-28.794-24.465-77.701 6.629-98.117 27.468-.844 26.616 18.575 41.78 29.443l.898-.632c.766-5.323-1.309-12.533-1.615-18.68-.891-18.819-2.883-37.201-1.705-56.112 1.364-21.884 8.546-50.209 28.444-62.373 5.765-3.525 9.806-3.375 16.407-3.013 22.685 13.506 34.219 75.941 40.887 101.614 8.871-10.962 14.69-26.452 24.47-37.401 9.086-10.171 22.922-21.191 35.46-9.347 18.534 17.507 19.991 44.815 21.57 68.487 7.933-4.731 15.222-11.47 22.314-17.366 55.039-45.757 83.721-113.394 126.006-169.437 21.994-29.15 52.315-58.368 79.987-82.627-8.851-4.851-18.43-13.059-25.817-19.583-54.623-47.994-83.888-115.44-124.209-174.039-19.3-28.049-47.424-8.636-63.599 10.631-40.439 47.302-70.725 102.843-107.023 152.934-15.9 21.941-87.733 134.616-108.185 132.951-4.15-2.56-5.904-7.937-2.579-11.812 56.916-66.082 101.307-140.076 149.521-212.37 23.618-35.487 95.491-148.88 143.35-82.59 47.294 65.506 77.463 145.769 148.097 193.114 5.939-4.683 13.994-12.513 20.113-17.827-.324-12.59 1.304-51.832 2.791-63.982-27.513 1.381-20.168-7.697-19.152-30.99-4.228.192-18.212 2.04-18.986-3.21-2-13.566-.747-28.818-.839-42.452-.037-5.413.46-16.638 7.373-15.551 20.985.185 41.791-1.536 62.74-2.7a6165 6165 0 0 1 190.071-7.408q28.024-.48 56.052-.662c34.02-.373 32.813-.973 63.557-14.315 80.578-34.969 190.329-53.074 270.629-8.027 53.13 29.809 49.64 16.065 99.74 18.915 32.2 1.832 235.26-.485 247.79 7.016 8.6 10.337 2.16 50.595 4.45 64.377 1.51 9.053-9.84 7.409-14.97 7.984-8.37 14.483 12.78 27.877-19.53 26.041 1.36 20.188 3.44 49.837 3.06 69.856 48.05-42.585 83.82-83.404 118.1-138.036 14.75-23.509 28.3-50.041 45.89-70.883 8.51-10.082 20.23-16.103 32.89-19.458"/><path fill="#fefefe" d="M982.933 306.537c6.289.844 40.827-.266 50.257-.312l101.39.432c-.51 12.071 2.76 36.44 4.07 49.591q3.09 32.939 5.43 65.939c6.71 89.439 13.44 183.31 15.69 272.948-22.08-1.849-58.78-.939-83.29-1.684-6.76-7.75-9.23-7.464-17.37-13.175-2.23-6.346 4.21-48.939 4.2-59.831-.01-8.99.13-15.325-.78-25.681 7.08 3.202 19.36 13.891 25.15 5.922.06-10.242-15.27-15.284-19.09-28.29-6.19-21.301-1.73-44.492-10.93-65.528-2.97-6.769-11.2-13.251-14.64-18.863.15-11.237-.01-15.366-2.81-25.946-3.89-2.784-8.08-5.433-13.53-4.791-11.27 1.329-8.64 27.204-10.49 30.537-5.28 9.496-12.89 13.765-17.299 25.689-5.096 13.787-5.851 54.866-13.798 64.727l-.454.556c-6.484 8.083-15.857 12.367-21.219 19.31-.083 2.58.473 3.025 1.902 5.342 9.922 5.465 27.656-6.881 34.552-14.056-.42 32.762 4.646 59.565 7.706 91.682-7.42 5.096-13.929 5.438-20.718 12.156l-74.246.795a9797 9797 0 0 1 9.457-245.603l4.752-95.94c.686-14.558 2.105-30.558 2.109-44.905 18.054-1.202 35.923-.24 53.999-1.021M479.814 954.353c21.528 1.533 52.273.554 74.933.754l177.256.73 586.097 2.099 188.08.037c15.54.034 59.78-1.699 71.99.706 2.56 4.495 2.8 35.47 4.27 44.141l.19 1.08c-9.4 1.34-20.28-.27-26.88.98-5.44.54-27.67-.01-34.65.04l-81.62.82c-87.19 1.92-174.4 2.98-261.61 3.18a26466 26466 0 0 1-445.52.67l-149.06-1.15c-33.742-.13-76.21.62-109.452-.74.204-7.22-.794-49.615 1.099-52.635z"/><path fill="#fefefe" d="M1105.12 246.624c1.77-.483 19.56.072 23.01.11l77.89 1.055 162.68.414c47.76.489 99.68 2.308 147.57 4.184-.87 11.986.89 45.816-1.15 55.447-6.41.853-59.78-2.076-69.51-2.584a6105 6105 0 0 0-103.29-3.736c-134.07-3.979-268.2-5.317-402.316-4.013-33.503 2.027-400.464 9.514-405.907 6.449-1.438-7.318-1.156-32.624-1.24-41.785 62.62-1.426 127.467-6.275 190.835-8.233a37313 37313 0 0 1 381.428-7.308m200.75 648.036c5.55.71 15.73-.239 20.57.063 17.23 1.073 108.15-2.393 116.67 1.036 2.05 6.977.01 40.082-.79 48.66-8.05-1.866-50.52-.75-60.44-.697l-142.83.894-481.802-.501c-7.893.71-27.928.155-36.973.19l-79.478.271c-13.261.065-30.972-.358-43.939.622 2.375-13.471 5.328-37.171 6.439-50.595 33.169 1.124 67.582-.365 100.524 1.483 143.466 8.048 286.779 5.093 430.449 2.143l108.75-2.902c20.47-.4 42.51.471 62.85-.667m-598.301-53.471 628.971 1.401.03-.008c2.46 4.416 2.82 19.554 3.06 25.334.07 5.051.22 10.101.44 15.147-142.41.267-285.64 6.088-428.569 6.801a4931 4931 0 0 1-126.92-.886c-26.238-.713-53.558-2.753-79.443-2.942-.06-7.302.506-39.32 2.431-44.847m665.691-442.515c41.22 3.131 47.69 30.043 77.38 50.299 10.78 7.353 24.88 10.97 37.24 15.394.83 7.146.96 17.025.99 24.226-7.08 9.589-25.03 31.607-28.74 40.267-7.97 18.609 30.18 41.597 33.88 56.145.77 2.999-9.06 18.928-11.52 22.42-6.4 7.738-9.17 21.703-15.04 29.085-11.72 14.731-29.04 17.519-43.83 30.752-15.77 17.923-18.94 28.24-28.21 50.186-2.79 6.6-5.82 14.464-9.66 20.403-1.6-2.069-12.04-309.021-12.49-339.177M589.067 561.831c2.795 2.045 11.177 13.481 13.413 16.58 26.46 36.661 26.002 42.984 64.708 65.775 1.305 35.653-.298 91.354-1.792 127.61-29.527 17.101-46.586 11.685-73.488 24.616-12.269 6.791-38.976 28.452-49.787 32.595-2.024-3.775 4.002-69.02 4.635-78.012l10.295-157.561c13.486-11.281 20.48-18.457 32.016-31.603"/><path fill="#fefefe" d="m1495.01 605.542 1.64 1.941 9 183.946c1.29 21.348 2.43 42.705 3.43 64.068.36 6.327 2.88 29.319 1.08 33.353l-1.06.135c-14.3-13.819-30.83-27.57-43.74-42.271-22.88-33.937-42.12-41.078-78.22-56.84.27-8.218-.97-24.386-1.48-32.995 17.47-18.82 22.11-50.966 38.25-72.862 15.76-21.396 34.82-20.624 50.56-39.062 7.33-8.595 13.65-27.698 20.07-38.622zm-282.83 194.015c7.4.565 50.93.237 57.97-.435-.27 11.81.18 20.021 2.26 31.731-32.43 1.735-73.74.894-106.91 1.171l-190.764.995-94.508-1.003c-18.778-.037-52.256.829-69.781-1.342-12.441.524-27.064.282-39.662.344.717-6.589.537-26.757 3.31-30.45 12.284-.771 30.993.07 43.708.31q41.398 1.009 82.803 1.566c69.557.737 139.114-1.228 208.644-1.722 33.82-.241 69.26.745 102.93-1.165M602.228 344.642l2.96.405.525 1.038c-21.733 40.282 18.82 60.198 28.021 86.044 3.053 8.575 1.618 40.144 6.569 59.548-28.852 20.679-41.477 39.585-62.579 67.714-4.668 5.495-13.473 15.088-19.192 19.034 2.449-40.037 3.976-79.869 6.269-119.927 2.072-36.192 6.562-77.768 6.115-113.923 7.752.779 23.212.338 31.312.067m-33.34 483.632c13.575-1.36 26.684 3.745 39.661 7.259 18.912 5.123 36.121 1.826 54.309-3.796 1.309 7.389.86 12.428.851 18.906.098 43.917.241 32.808-37.182 33.871-26.392.75-31.437-7.34-34.85 19.735l-5.032 40.655c-10.658-.674-45.913-1.092-55.202.393a6518 6518 0 0 0 5.439-66.064c.735-9.004 1.589-26.599 3.578-34.392 4.759-5.95 21.113-14.381 28.428-16.567m248.656-63.289c22.589 1.492 52.636 1.04 76.106 1.61a5857 5857 0 0 0 216.99 1.21l72.22-1.592c10.52-.3 40.73-1.776 48.87.009 2.37 5.312 3.04 18.305-1.68 22.476l-4.5-.426c-27.43-.387-57.56.821-85.11 1.146l-149.911 1.387c-55.22.671-119.113 1.58-174.206-.813.53-9.395-.604-15.181 1.221-25.007m553.696-425.892c6.48-.306 24.55.891 31.64 1.131 26.62.87 53.23 2.105 79.82 3.706l4.96 106.763-.93 1.728c-2.21.728-6.52-1.061-8.88-1.684-32.88-8.666-46.58-41.851-76.48-54.486-9.41-3.975-17.83-5.587-27.92-7.398-1.4-14.639-1.15-33.963-2.21-49.76m-212.73 392.399c8.53-.709 30.14.325 39.22.519.28 8.839.8 14.828 1.93 23.608-38.15-.25-77.99 1.033-116.37 1.413-62.35.885-124.712.668-187.055-.65-.978.274-39.467-1.233-44.227-1.135.805-8.737.938-15.022.925-23.82 9.335 1.161 22.857 1.186 32.484 1.482q28.199 1.06 56.415 1.349c72.238.067 144.468-.855 216.678-2.766"/><path fill="#fefefe" d="M1388.03 801.406c16.58 6.517 47.3 23.886 57.48 37.976 20.19 27.941 43.91 44.523 67.44 68.326.34 5.429 1.57 30.909.49 34.876-2.7 2.143-5.73 1.653-9.38 1.693-8.25-2.271-36.58.55-48.25-1.113-4.45-4.744 2.5-51.096-2.17-57.289-5.32-7.049-48.65.101-61.17-4.379-4.02-7.217-4.28-67.797-4.44-80.09M609.382 345.257c5.228-.921 19.413-.564 25.021-.524q20.463.28 40.926-.02a6327 6327 0 0 0-3.177 119.612c-.181 14.14-1.351 38.402.046 51.648l-2.287 13.629c-17.976-20.074-25.747-54.282-24.194-81.31 1.742-30.327-17.568-39.745-31.591-63.085-8.932-14.864 2.223-31.687-4.744-39.95m274.573 357.439c9.72 2.037 44.335.087 53.747.298 26.668.598 228.928-1.339 235.568 2.818q.765 6.608 1.05 13.253c-2.14 1.436-7.23 1.169-10.27 1.311a6292 6292 0 0 1-203.39 3.526c-25.116.044-51.418-1.355-76.324-.827-.386-6.56-.313-13.762-.381-20.379M642.016 502.949c2.227 2.425 9.241 20.458 13.435 26.135 5.542 7.502 8.594 9.004 14.759 15.628 1.037 9.218-.677 78.151-2.546 86.77-5.883-1.556-16.23-9.789-21.244-13.641-19.747-16.756-33.21-48.022-51.717-63.063a209 209 0 0 1 47.313-51.829m264.999-195.546c2.788.136 10.225-.653 13.346-.9-1.757 14.077-2.218 32.637-2.793 46.945l-2.839 72.214-10.902 260.317c-.128 3.246.111 4.543-1.618 7.287-3.165 2.008-8.795 1.125-12.791.902 8.085-128.124 6.858-259.109 17.597-386.765m235.075-.736 13.67.275c.44 18.918 3.25 38.045 4.42 56.984 4.99 80.774 13.08 159.764 17.79 240.725l3.16 55.674c.37 6.609 1.61 22.377 1.19 28.053.48 3.218 1.15 3.938-.06 6.526-4.49 1.811-9.26 1.647-12.96-2.01-.97-.967-1.01-9.606-1.09-11.405a6634 6634 0 0 0-10.34-184.871c-3.8-62.8-7.86-127.499-15.78-189.951m727.35 323.788c2.73 1.5 5.49 5.012 6.56 7.958 8.38 23.055 9.97 42.994.43 65.901-10.31 24.751-30.17 37.067-47.68 55.87-1.25 1.355-2.34 1.85-3.91 2.763l-2.05-.674c-2.03-3.225-3.08-6.853-4.32-10.465 6.54-45.108 24.22-84.524 50.97-121.353"/><path d="M1870.24 639.6c11.89 24.025 7.36 54.621-6.99 76.636-9.16 14.049-23.14 24.593-35.18 36.119l-2.1 1.768c-6.11-5.731 11.86-58.085 16.28-65.554 8.33-14.075 17.7-36.631 27.99-48.969"/><path fill="#fefefe" d="M1025.85 555.17c20.32-.582 19.04 3.867 24.41 22.557 7.51 26.155 4.11 52.921 1.17 79.453-.81 7.3-.09 15.092-1.75 22.194l-1.1.648c-6.75-4.994-12.14-95.438-14.49-107.81-2.87-1.412-1.82-1.402-4.55-.917-1.68 4.369-1.26 26.33-1.85 31.536-1.16 10.109-7.32 73.207-9.73 78.461l-1.26.123q-.42-1.091-.72-2.217c-.57-2.049-1.1-13.691-1.71-18.177-4.24-31.318-11.72-69.927.03-100.296 1.41-3.633 7.75-4.592 11.55-5.555M687.982 312.41c3.271.776 5.48-.628 8.496 1.177 3.875 2.319 2.544 15.471 2.94 22.396-36.483-1.062-90.054-1.846-126.707-.067-7.687-.23-13.139-.246-20.808.233.826-6.902.348-15.042.172-22.072 11.294 1.093 41.902.489 54.34.236 26.338-.535 55.471-.332 81.567-1.903m663.228-1.466c15.06-.408 34.61 1.111 50.02 1.732l99.72 4.487-.03 16.55c-2.43 2.024-42.79-.373-48.76-.606q-49.8-2.038-99.63-3.279zm558.25 424.141c3.32-.159 5.65-.596 8.64.753 11.1 16.911-54.99 67.317-67.09 77.93-2.3 1.863-2.84 2.446-5.64 3.299-6.48-3.567-1.5-18.559 1.06-23.61 12.08-23.87 38.02-48.894 63.03-58.372"/><path d="M1908.5 740.859c3.41-.09 2.89-.596 5.34.892 2.19 12.319-51.47 53.043-62.21 64.14l-1.33 1.221-1.3-.169c-.94-5.409 5.08-16.647 8.35-21.07 14.46-19.573 30.18-33.076 51.15-45.014"/><path fill="#fefefe" d="M171.024 614.671c1.51.102 4.808.644 5.625 1.711 8.944 11.676 10.052 43.538 11.487 56.982a3150 3150 0 0 0 7.062 61.274c2.726 21.531 7.16 44.322 8.992 65.869.309 3.637-1.061 4.617-3.202 6.718-1.6-3.247-4.273-25.327-4.96-30.266-4.636-32.922-9.676-65.677-13.145-98.738-1.136-10.828-4.112-49.232-9.222-56.985l-1.115.555c-3.233 9.728-3.647 11.904-5.016 21.968-2.654 20.57-2.858 47.615-.124 68.094a615.4 615.4 0 0 0 21.379 94.931c1.326 4.33 6.303 16.798 1.814 19.557-2.184-1.134-1.662-1.257-2.701-4.29-18.376-53.654-42.739-154.28-16.874-207.38m492.851 169.563.605.541c.003 12.976.034 22.576-.427 35.98-30.451 9.508-38.38 8.369-68.535.952-4.772-1.641-11.27-3.056-16.279-4.298 34.2-24.991 47.551-15.467 84.636-33.175m351.965-279.13c3.66 4.068 8.23 9.955 13.82 10.403 3.73-4.737-4.75-9.131-4.17-12.45 1.36-7.65 6.11-5.038 1.22-14.072 1.5-2.098 6.8-2.745 9.17-1.657-.26 1.693-.5 3.388-.71 5.087l3.72 3.047c-2.58 1.042-3.3 1.294-5.59 2.82-1.25 6.7 3.06 5.35 3.06 10.23l-2.66 2.669c.26 2.955-.35 1.775 1.77 3.71 4.35.179 9.21-4.402 12.48-7.151 7.13 13.779 6.87 24.516 9.22 39.436-2.32-6.6-5.53-17.068-8.93-22.711l-1.52-.612c-4.29 7.106 1.04 22.953-1.64 27.527-14.92-5.086-18.06-3.8-33.76.547 1.81-6.754 5.94-17.69 3.32-23.76-2.32-1.701-1.3-1.461-3.88-1.371-3.53 4.475-2.84 11.807-5.89 17.283-.55 3.696.27 9.439-.4 11.42-3.86 11.243-8.094 19.625-11.369 31.342l-9.316 5.409c13.597-14.968 15.715-30.366 18.385-49.469 1.17-10.026 2.43-28.975 10.47-35.328 1.04-.82 2.11-1.603 3.2-2.349M100.876 715.511c20.709 6.073 72.885 109.322 78.956 132.512-5.449-6.277-15.741-27.003-20.264-35.407-16.589-30.821-34.105-64.408-57.521-90.764.888 4.646 1.096 13.777 1.34 18.782 3.811 38.31 21.763 72.874 45.33 102.756 4.978 6.311 19.099 18.038 18.655 25.283l-1.427.809c-.334-.149-1.566-.734-1.756-.922-39.107-38.658-68.343-89.886-66.7-146.216.052-1.817 2.394-5.365 3.387-6.833M1745.36 609.439c5.75.503 9.57 5.954 13.36 9.994 25.96 27.624 30.46 70.525 35.99 106.344.07.226.15.452.23.679-.73 2.166-1.76 6.193-3.25 7.627-9.98-32.134-6.67-60.349-25.01-95.379-5.66-10.221-10.13-14.112-18.39-22.112a57 57 0 0 0-1.72 3.701c-9.95 23.743-1.22 47.238 10.06 68.605 2.77 5.254 8.19 13.855 10.24 18.76-.87.16-1.82.524-2.53-.288-21.55-24.908-39.39-67.744-18.98-97.931M265.609 656.447c3.251.637 5.253 1.873 6.553 5.356 3.973 10.646 5.393 67.792-4.686 70.967-1.825-5.762 1.597-25.783 1.875-33.298.582-15.775 1.48-22.441-2.149-37.792-5.225 9.633-10.586 23.277-14.238 33.604-8.018 20.421-11.263 41.919-16.956 62.915-.411 1.516-4.234 5.255-5.541 6.531 5.909-30.459 15.839-83.483 35.142-108.283M1489.16 505.632c1.63 3.715 3.76 52.872 4.91 61.637l-8.75-10.724c-23.36-27.042-14.34-23.998 3.84-50.913m407.44 307.694c5.25-1.467 15.94-.926 19.15 4.354-2.05 10.883-43.21 38.01-53.37 40.735l-.57-1.361c4.13-7.088 25.46-19.499 33.48-24.845 3.17-2.229 11.69-9.272 13.69-12.29-9.52-11.221-50.49 19.654-58.34 18.92l-.2-.822c6.12-9.917 34.37-23.017 46.16-24.691m-587.9-503.808c7.2 1.838 27.49-2.098 34.47 1.457 4.6 10.913-13.07 27.851 19.33 27.04l.43 14.459c-8.27-5.489-18.15-15.355-26.98-21.435-4.94-3.4-26.42-17.697-28.29-20.202zM101.552 839.716c1.202.208 3.131.726 3.999 1.625 9.046 9.363 16.549 18.833 25.909 28.119 5.852 5.806 13.452 11.677 20.034 16.875l.46 2.772c-1.886.704-2.354.556-4.31.428-10.069-5.385-46.936-38.278-46.092-49.819m930.728-199.018c2.68 10.463 5.29 38.247 5.05 49.82-.06 2.616-.63 2.558-2.33 3.833-3.23-.215-4.33-.25-7.53-1.148-1.69-5.497 3.51-45.93 4.81-52.505M723.57 311.523l2.224-.45.538 1.062c-4.939 3.43-11.572 6.278-17.096 8.881l-1.342.431c-1.567-2.085-1.33-6.191-1.557-9.261 5.563-.027 11.635-.418 17.233-.663"/><path d="M1696.33 286.327c66.56-2.689 77.3 107.451 94.57 153.639 10.99 29.391 20.08 53.909 39.28 79.531 3.62 4.833 12.54 17.756 11.38 23.437l-1.74 1.1c-10.08-1.116-27.55-32.188-33.27-41.373-27.62-44.367-35.23-95.024-51.04-143.642-6.68-22.587-29.51-69.105-59.29-61.566-35.07 8.874-52.12 59.072-69.25 86.365-6.4 10.187-35.78 63.743-45.73 65.73-3.05-1.856-2.12-.71-3.27-4.526.58-5.235 32.68-52.597 38.24-62.455 17.8-31.595 39.72-90.738 80.12-96.24m-1341.123 24.88 11.853-.756c17.89 9.379 30.089 37.088 42.01 54.351a366 366 0 0 0 28.916 36.507c6.524 7.143 23.127 19.055 23.965 24.433-1.496 3.209-.535 2.123-3.822 3.981-15.967.075-54.597-53.719-65.205-68.237-10.499-14.369-14.168-33.32-31.653-40.083-23.1 12.273-27.454 22.848-44.009 41.402-25.3 28.353-37.511 59.717-56.727 91.909-22.434 40.474-55.877 70.161-89.777 100.604-4.04 3.628-11.76 10.908-16.199 5.309.483-5.908 9.06-13.22 13.381-17.129 31.077-28.117 64.846-58.479 84.501-96.076 19.546-37.39 37.506-73.592 66.53-104.926 12.542-13.54 18.962-22.92 36.236-31.289"/><path d="M346.532 435.276c37.374 3.49 45.2 36.919 73.786 55.203 4.24 2.711 10.107 4.066 12.258 9.086-.259 3.629.365 2.327-2.383 4.839-21.528 5.712-51.715-51.106-80.549-58.854-30.996 8.426-45.124 53.832-57.995 80.094-9.419 21.545-26.571 45.305-43.466 61.561-4.55 4.378-18.753 19.087-24.4 12.929-.45-5.589 1.457-5.817 5.577-9.634 5.581-5.171 11.269-10.187 16.715-15.508 34.613-33.821 41.725-83.844 71.48-120.46 8.765-10.782 15.564-15.925 28.977-19.256m1383.208-6.595c3.53 1.276 6.65 2.981 8.77 6.133 11.81 17.608 19.02 39.797 27.19 59.287a399.5 399.5 0 0 0 26.2 51.675c6.53 10.672 14.11 21.457 23.57 29.763 2.91 2.551 5.27 4.045 7.16 7.565.3 3.932.27 2.713-1.88 6.572-37.96-8.018-75.65-121.278-92.63-154.531-1.21-2.389.53-4.513 1.62-6.464"/><path d="M375.434 517.11c15.953-.763 31.521 8.686 38.736 24.666.809 1.793-1.127 3.908-2.255 5.259-6.559.754-13.715-11.301-20.024-15.348-27.578-17.688-43.422 35.772-52.17 52.548-4.063 7.791-7.137 14.494-11.869 22.207-4.265 7.445-18.657 29.726-27.583 29.161-2.76-6.239 5.43-16.464 9.343-20.853 25.598-28.707 27.566-82.116 65.822-97.64"/></svg>