<svg xmlns="http://www.w3.org/2000/svg" preserveAspectRatio="none" style="display:block" viewBox="0 0 2048 1462"><path fill="#fefefe" d="M0 0h2048v1462H0z"/><path d="M1602.07 102.975c4.97 1.244 9.61 2.991 14.43 4.7 12.2-8.061 13.75-.339 23.48 1.323 17.78 3.219 36.18 5.915 51.64 15.984 39 25.412 45.23 60.571 32.53 102.694-1.58 5.248-4.12 14.237-2.7 19.532 3.14 3.687 25.08 10.053 31.53 12.438 26.49 9.349 50.59 26.556 69.26 47.378-2.55-2.837 21.83 43.088 21.47 42.098 10.2 28.061 10.63 63.302 1.69 91.519-19.15 60.445-66.38 86.149-122.65 105.313-11.22 4.056-24.32 6.4-35.2 11.536-4.46 5.243-1.98 16.165-3.01 23.346-6.77 47.315-45.9 76.78-88.58 91.289-4.15 1.413-7.18 1.227-11.33 3.286-.1 3.11 5.2 15.733 6.35 20.061 7.94 30.08 4.58 47.587-1.77 76.371 5.49-.58 10.98-1.118 16.48-1.617 50.73-4.405 103.42 13.051 123.31 64.478 7.44 19.231 3.84 33.921 5.53 54.013 6.63 2.328 19.15-2.016 26.86-1.796a275.4 275.4 0 0 1 111.14 27.617c5.89 2.901 2.45 4.102 7.03 6.624 80.9 44.548 115.49 142.898 101.5 231.248-1.73 10.89-6.93 28.64-10.47 38.49-28 78.06-81.25 112.81-150.58 148.4 35.08 1.34 69.94-1.49 105.12.65 14.8.91 29.81-1.69 45.28.03 4.68 3.55 4.94 5.4 3.31 10.78-1.59 4.64-13.64 3.84-17.68 4.07-27.94 1.56-56.52-.53-84.26-.49-42.41.05-84.73-.11-127.13.3-9.61.09-19.43-1.18-29.06-1.2-10.13.15-20.56 2.04-30.75 2.04l-302.14.7-256.48-.35c-11.33.04-26.88-2.97-37.02-2.18-15.17 1.19-31.87-.11-46.5 1.43-41.09 4.33-82.299.13-123.477 3.39-2.788.22-9.424-3.41-12.746-3.81-13.278-.32-26.625-.88-39.917-1.42-1.861-.07-7.559 2.64-8.672 2.79-11.597 1.51-28.758-.24-40.385-.33l-152.493-1.42c-27.65-.31-55.362 2.5-82.805 2.11l-202.335-1.03c-41.679-.34-82.991-3.53-124.811-.5-26.266 1.9-54.083-2.66-80.35-2.39-29.159.92-59.007.21-88.117 1.5-21.856.97-15.102-16.51-6.28-16.53 20.926-.05 35.981 2.48 57.651.02 14.313-1.62 30.955 3.27 47.183-.07.357-1.76-.159-3.28-1.877-3.98-86.279-34.73-145.657-129.57-110.215-221.47 2.756-7.14 8.006-14.61 11.602-22.37l2.897-1.4c2.827-7.72 11.515-16.29 17.244-22.13 23.075-23.51 49.157-35.08 80.902-42.37 10.223-2.35 21.723-.24 27.082-4.84-1.005-2.98-13.089-1.94-16.549-2.71-39.385-8.76-80.478-13.4-118.29-28.106-3-1.166-4.533-3.755-5.332-6.614.23-3.775.76-4.373 2.8-7.614 8.928-1.488 31.57 7.312 42.425 9.47 34.485 6.856 72.629 19.004 107.842 18.874-2.003-3.104-10.223-15.599-10.871-18.016-8.763-32.668-6.057-51.5 7.599-80.54a62 62 0 0 1-2.515-.31c-46.39-6.674-95.553-17.765-140.836-30.083-2.257-.614-4.618-3.15-5.985-4.999-1.156-7.436 3.577-9.018 9.671-11.209 44.972 14.652 93.638 23.868 140.347 30.901 3.687.555 7.051.686 10.772.479 3.921-2.815 15.739-10.647 17.189-14.169-3.66-3.191-18.777-5.527-20.411-6.653-9.4-6.483-25.881-15.821-33.877-23.678-10.446-10.265-20.45-24.768-29.946-36.248-1.548-1.872-1.941-10.741-3.016-12.072-7.148-8.855-11.443-19.184-14.454-30.109-1.452-5.267-.47-15.351-1.452-19.832-1.561-7.129-4.373-12.313-3.924-20.727.173-3.242 2.586-4.039 2.581-4.912-.051-8.201 1.98-15.616 3.575-23.234 5.266-25.159 28.663-55.329 47.585-72.167 7.849-6.984 21.802-14.516 29.192-22.12-.099-3.087-5.032-8.959-7.238-12.169-15.72-22.878-30.482-54.663-29.647-82.892.087-2.947 1.953-11.936 2.582-15.282 7.787-7.963 10.05-21.551 17.667-30.542l3.068.525c3.435-2.097 4.127-9.912 6.85-11.075 12.714-5.431 27.868-19.259 39.987-23.595 41.304-14.778 85.014-19.029 128.572-15.441 5.85.481 11.409 3.859 17.243 4.486 6.79.816 22.413.256 28.072 2.008 23.304 7.213 46.696 13.246 69.69 21.413 4.237 1.505 16.066 2.627 21.224 3.462a168.7 168.7 0 0 1 43.262 12.79q.236-.973.504-1.939c6.872-24.847 17.834-37.764 42.1-43.061 1.664-.512 4.786-4.344 6.086-4.661 26.389-6.422 54.499-2.584 81.297-1.09 9.314.519 18.931 2.781 27.822 5.51 10.769 3.305 21.507 6.071 32.199 9.653 14.504 4.859 27.151 14.339 41.023 19.901l1.221.481c-2.326-5.147-4.96-10.838-6.927-16.116-2.744-7.365-2.533-12.785-6.837-19.713-10.148-16.335-12.154-36.4-12.865-54.933-30.434 7.719-74.442 17.588-104.713 20.8-48.943 5.194-101.976 4.37-151.144 1.696-8.356-.455-24.573-3.48-33.503-4.728-25.706-3.703-51.417-6.281-76.557-13.07-10.191-2.753-41.006-2.759-42.262-18.038 5.48-9.74 23.431-1.071 31.807.867 87.996 20.356 176.94 27.117 266.938 18.818 17.847-1.645 36.383-6.699 53.986-10.296 19.045-3.892 38.384-7.035 57.117-12.28 5.577-18.129 9.969-29.391 31.727-27.188a318 318 0 0 1 5.656-10.071c15.428-25.848 40.74-16.857 61.275-4.187 10.735-2.071 22.779-3.715 32.56 1.935 35.884 20.729 16.333 68.341 2.461 94.484.985 12.611-.444 23.019-2.538 35.302-.985 5.775-5.419 14.856-4.939 18.842 5.778-.42 33.638-7.997 37.818-10.976 19.124-13.628 31.592-34.834 55.84-42.212 12.225-3.72 23.795-5.938 36.695-5.431 7.26.013 28.4 6.519 31.97 4.601 8.84-4.74 18.31-19.475 27.32-26.401 10.89-8.363 18.78-12.315 30.66-18.568-5.4-4.833-10.47-19.913-10.08-27.076.05-.751 5.95-1.462.73-7.914-.21-.257.53-5.432.89-6.035 4.06-12.319 9.08-29.656 18.84-38.412 6.31-4.292 3.76-11.782 8.63-18.219 3.62-4.782 4.49-.686 8.45-4.571.25-1.686.68-3.186 1.11-4.829 9.56-8.269 17.87-18.623 26.88-26.347 16.05-13.771 37.28-26.231 55.5-36.681 23.61-13.534 60.84-26.882 87.91-18.342 23.7 7.479 26.28 15.738 36.22 34.423 23-10.228 46.16-21.975 69.51-31.536 1.12-.457 3.55-2.956 4.35-3.874 17.13-2.601 36.83-17.086 52.76-23.46 25.99-10.018 52.86-17.788 80.16-23.274 8.2-1.649 33.35-1.249 38.18-4.929"/><path fill="#fefefe" d="M1500.52 627.406c57.24 4.839 82.98 66.793 76.59 117.439-1.43 11.278-12.46 37.476-4.91 45.558 9.56 2.504 42.27-4.529 58.29-3.265 29.24 2.306 47.84 10.055 68.63 31.514 18.49 19.076 19.2 43.825 16.81 68.237-.55 5.552 0 14.722 4.11 19.164 6.23 3.018 34.5-.66 43.8-.626a206 206 0 0 1 144.57 61.934c72.54 73.359 76.14 203.539 6.99 279.789-6.03 6.65-10.53 14.67-17.37 20.82-33.5 30.11-75.14 53.77-118.52 66.07-10.73 2.93-39.05 1.78-51.3 2.73-5.5.42-20.45 1.37-25.46 1.26-33.11 1.37-64.98-.09-97.98.38l-58.64.47c-8.04.05-23.78.64-31.16-.44 0 .01 33.32-13.67 38.32-16.42 93.45-51.48 168.38-150.15 141.21-261.43-16.41-67.224-93.26-125.072-162.97-104.356-15.1-36.475-29.91-52.951-59.89-78.021-1.34.177-2.51.541-3.76 1.035l-1.88-1.824 1.74-1.739c-4.2-7.111-34.91-15.984-43.36-18.786 3.71-16.75 18.27-54.602 24.47-73.295zM495.168 742.39c27.51-1.863 68.971 11.571 92.775 25.145 12.844 7.324 28.691 17.646 41.559 23.671l1.326.612c-6.816 18.585-23.13 53.521-31.858 71.698-5.985-.414-11.077-2.818-16.791-4.175-51.036-12.12-101.036 9.956-134.85 47.998-24.462 27.521-35.652 52.702-44.388 87.447a147.6 147.6 0 0 0-38.007 9.364c-33.403 13.49-62.759 47.43-77.047 80.31-39.763 91.51 33.527 184.35 106.11 232.99 13.534 9.07 34.078 16.23 49.259 22.48l.168.8c-7.738 1.54-16.744-.71-24.613-.4-24.126.96-59.172-4.57-82.476-.63l-.719.61c-5.486-4.61-80.079-2.89-93.391-5.2-87.739-15.28-174.744-94.14-159.435-190.11 10.655-66.79 76.873-105.69 140.031-108.09 11.124-.42 36.347 4.78 42.109.21 1.072-2.53.382-6.22-1.054-8.44-21.003-32.501-48.922-71.724-27.349-111.505 22.928-42.28 80.923-44.49 122.685-34.958 5.802 1.325 16.816 3.566 22.506 2.308 3.061-5.26-.253-18.729-.993-25.216-6.766-59.281 34.307-103.501 90.73-113.806 7.645-1.396 15.77-2.223 23.713-3.113"/><path fill="#fefefe" d="M1419.14 872.527c34.87 10.412 49 22.757 72.91 49.764 14.85 16.776 16.42 24.287 24.35 43.55 15.04 36.549 16.12 71.719 13.6 110.739-.96 14.73-4.27 24.42-7.35 38.35-13.28 59.86-45.84 107.41-92.32 146.56-46.01 38.75-93.43 60.53-153.37 68.69-13.54 1.84-27.31 4.9-41.3 5.65-29.39 1.57-58.98 1.5-88.4 1.1-33.19-.44-67.02 1.21-100.03-1.31-1.28-2.63-3.06-5.52-4.55-8.08-5.79-2.29-18.81-5.15-25.7-7.32-21.872-6.86-34.789-20.36-50.183-36.19 16.527-9.96 13.205-18.16 12.702-35.78l-.075-1.49.963-.27c6.996 7.35 10.676 7.86 17.605-1.68 34.488-47.49 69.368-96.82 100.438-146.61 12.8 25.71 66.18 175.46 76.55 183.33 2.17 1.65 3.71 2.02 6.38 1.74 7.11-6.06 42.61-63.27 49.75-74.46l64.01-99.61c6.67 6.95 20.79 29.06 29.72 29.92 2.81-2.82 5.8-9.23 7.16-12.97 24.26-66.74 46.24-134.318 68.99-201.584 5.9-17.442 12.51-34.499 18.15-52.039m-864.439-1.05c10.648-.227 23.346.547 33.557 4.284 3.6 1.317 3.392 2.801 2.209 5.404-5.421 11.929-11.065 23.843-16.454 35.784a4060 4060 0 0 1-38.918 84.971c-8.291 17.66-17.411 36.43-24.83 54.55-1.129 2.76-.729 5.08.237 7.79 2.247 2.66 2.523 2.6 6.069 3.46 3.208-.37 6.549-1.72 9.257-3.5 72.71-47.92 144.662-96.905 217.274-144.976 2.564 26.898 2.259 54.094 4.561 80.946 3.161 36.86-3.439 73.42-7.517 110.19a3443 3443 0 0 0-11.753 128.38c-.832 9.91-2.093 19.8-2.317 29.75-.123 5.46 1.595 6.15 5.747 10.21.355 4.84-7.905 32.05-8.99 39.04-1.073 6.92-1.367 12.04-1.729 19.23-7.009 1.87-31.797-2.58-39.943-3.61-71.126-9.06-127.148-34.92-180.28-83.05-55.398-48.7-84.93-113.3-88.536-186.88-2.54-51.82 13.01-105.54 47.588-145.424 23.516-27.123 58.356-45.108 94.768-46.549"/><path fill="#fefefe" d="m1594.49 287.763.91 1.376c-3.54 14.372-11.04 35.059-15.85 49.328l-24.79 74.948-89.57 272.519-95.98 284.328-27.78 80.908c-6.24 18.55-14.5 44.92-22.33 62.57-11.81-16.85-38.9-45.58-53.58-63.63-14.02-16.09-27.46-32.93-41.21-49.26-7.24-8.595-15.5-19.618-23.46-27.295 12.2-23.411 27.58-48.814 40.72-72.197a9392 9392 0 0 1 106.7-185.706l160.12-279.478c17.15-29.995 35.62-60.054 52.84-90.071 10.81-18.831 23.49-39.074 33.26-58.34M795.858 477.362c8.484-1.516 7.389 1.355 12.646 7.885 31.96 39.707 56.008 54.719 63.568-7.975 26.1 9.368 44.771 4.217 67.362 27.488 3.926 18.891 12.381 43.204 17.272 62.304 4.867 19.006 9.423 37.765 14.552 56.704 3.902 14.409 12.35 40.19 13.878 54.063-10.115 25.947-31.976 50.182-45.24 73.18-1.663-16.126-3.296-53.031-4.217-70.936.728-3.744 12.291-10.031 12.869-12.844 3.344-16.301-11.19-6.652-15.962-3.686-1.809-7.484-3.038-26.667-3.78-35.195a3935 3935 0 0 1-5.597-70.385c-.596-9.089 1.412-29.014-7.274-32.7-4.428.88-7.511 6.653-7.24 10.725 3.877 58.411 9.432 116.073 16.557 174.156-14.138.551-31.429.211-45.736.291-6.39.047-13.141.289-19.494.11-30.993-.874-62.286 1.143-93.19-.6-11.456-22.482-14.955-45.015-13.533-70.033.791-13.917 22.228-51.6 15.17-61.607-4.439-1.168-9.903 4.285-11.142 7.82-6.1 17.404-12.158 34.813-18.418 52.187-5.406-2.481-9.004-5.031-13.546-.302-2.259 6.102 21.367 57.511 25.098 67.493 7.076 18.928 13.8 38.891 20.278 58.013-3.466 13.999-7.366 26.616-11.701 40.319-16.935-36.896-71.303-108.062-78.575-144.931-5.843-29.625 34.639-132.507 53.165-161.097 11.435-17.648 42.377-18.285 62.23-20.447"/><path fill="#fefefe" d="m1552.74 283.068.64 1.098c-12.36 11.54-32.85 25.015-46.98 35.521-30.67 22.803-61.2 45.779-91.61 68.928a9645 9645 0 0 1-427.905 312.987c5.681-9.122 8.683-13.609 11.169-24.179.276-7.503-6.65-29.48-8.581-37.537-7.447-31.075-19.39-65.152-25.809-96.056a38281 38281 0 0 0 589.076-260.762m-25.57 61.887.27 1.425c-2.64 6.062-16.03 22.91-20.59 29.249-18.39 25.562-38.5 50.394-57.05 75.756a37966 37966 0 0 1-392.77 520.401c-11.86.789-95.302 3.643-99.366.989-2.306-16.581-2.883-39.677-3.659-56.627 8.33-7.393 18.858-18.558 26.959-26.606l46.526-45.894 146-144.65zm29.1 625.481c67.38 3.982 116.3 52.324 123.88 117.564 7.08 86.84-41.47 154.28-109.43 201.48-55.37 38.46-71.94 32.53-134.47 40.29-27.16 1.99-54.91 4.36-82.08 4.67-5.43.06-13.04.89-17.9.1-1.07 2.39 50.13-23.4 54.67-25.85 55.31-29.82 121.55-95.24 139.97-157.69l-1.4-2.53c-.07-3.03 6.08-12.55 7.63-17.95 3-10.48 5.85-21.09 8.09-31.75 2.94-6.1.62-21.7 1.93-26.28 3.52-12.36 2.25-15.37 1.37-27.99-1.02-14.74-1.09-29.44-3.21-44.17-1.3-9.023-8.74-19.355-5.65-27.986 3.74-1.236 12.26-1.584 16.6-1.908m-30.39-647.264.09.048c-.19 5.292-525.83 528.176-571.949 571.46-1.521-1.25-1.172-2.305-1.616-4.871-3.93-33.845-8.673-89.18-9.46-122.973 10.789-11.031 19.016-29.138 28.979-38.348 5.792-5.355 25.062-17.276 32.596-22.143a1330 1330 0 0 0 39.17-26.546 9357 9357 0 0 0 167.03-119.506 19552 19552 0 0 0 315.16-237.121M395.785 1012.26l1.049.08c.583.92.811 1.22.721 2.38-1.585 20.52-3.595 35.94-2.202 56.49a297.5 297.5 0 0 0 20.404 89.99c25.376 64.44 84.94 120.67 145.112 153.68 17.007 9.33 33.646 14.25 50.614 21.64-4.596 1.95-84.174-4.48-92.205-6.61-6.696 1.36-15.162.13-22.071-.31-31.19-1.97-69.105-11.34-95.723-27.56-27.078-16.49-65.034-54.76-81.347-82.15a213.4 213.4 0 0 1-23.758-59.91c-5.931-26.29 2.979-63.76 17.639-86.13 20.244-30.89 44.938-53.36 81.767-61.59M1576.06 254.304l-.58 1.595c-10.63 6.175-22.91 10.464-34.01 15.823-22.77 10.859-45.79 20.905-68.92 30.931-58.07 25.17-115.4 52.341-173.11 78.216a12864 12864 0 0 1-199.46 87.611 7973 7973 0 0 1-140.2 60.779c-7.078-25.267-8.087-37.984-33.264-50.108-15.223-7.346-34.505-9.599-51.152-13.8 20.186-8.691 32.144-8.075 52.118-14.364a4192 4192 0 0 1 187.228-55.87 10895 10895 0 0 0 331.93-99.847c41.47-13.154 88.57-26.703 129.42-40.966M701.332 521.042l2.67-.388 1.118 1.182c-15.218 39.79-33.039 87.942-40.25 130.049-23.962 6.386-38.305 16.133-58.047 29.913a8027 8027 0 0 0-132.576-53.343c-16.253-6.444-42.304-16.515-57.188-24.313 26.817-5.539 70.295-19.928 98.181-28.151zm151.137 425.962 33.507 264.286c2.088 14.88 3.987 29.8 5.694 44.73.852 7.67 1.254 15.22 2.262 22.85.855 6.48 4.267 7.08 9.719 11.06-.007 3.36-2.921 43.97-3.553 47.23-5.715-1.25-23.709-1.38-30.512-1.57-2.48-5.64-1.53-5.71-6.111-10.6-9.298-3.79-20.73-4.48-30.406-8.72-8.727-3.82-40.585-19.32-33.873-32.52 11.568-5.99 11.597-14.64 13.266-26.33 3.148-22.06 7.579-43.93 11.646-65.84l12.706-70.39c2.447-13.37 7.181-35.21 8.242-47.84 3.505-41.77 5.202-84.479 7.413-126.346m299.011 35.539c7.62-.265 15.11-1 22.7-1.299 16.93-.665 14.26 7.542 10.05 19.196 1.32 3.99 2.66 7.97 4.04 11.95-3.45 7.4-4.93 10.69-7.21 18.74 5.84 12.17 4.43 13.38-1.05 25.51 4.81 12.8 3.56 11.09-.09 24.55-2.23 8.26-2.08 7.96 1.49 14.39-.75 2.69-1.5 5.91-2.27 8.45-1.86 6.14.91 14.63.58 20.77-.1 1.9-3.46 11.43-4.28 13.76 1.47 3.2 2.88 7.01 4.19 10.32-2.22 5.83-4.33 11.71-6.33 17.62l4.77 12.33-5.29 15.6c.98 3.86 2.6 8.75 3.76 12.66-5.77 19.29-.31 18.1-3.13 36.51-4.21-9.18-8.35-18.4-12.42-27.64-24.62-65.17-53.6-128.75-77.94-194.06-4.43-11.89-9.67-25.472-15.23-36.734 25.77-1.817 57.58-2.017 83.66-2.623M708.332 746.958c4.038 1.315 31.257 46.477 35.747 53.308l-.411.743c-2.077 3.622-3.348 7.21-6.938 8.839-13.491 6.121-19.165 13.588-22.572 27.672-4.473 9.197-9.8 7.964-16.369 9.879-7.682 2.241-16.293 17.97-18.127 24.767-1.231 4.562-6.379 10.82-9.596 12.113-.869-.45-3-1.658-3.68-1.201-15.925 10.691-20.735 29.512-32.348 43.062-2.154 2.512-4.885 1.743-7.218 1.694-5.254 2.802-17.879 18.334-22.216 23.842-2.219 2.818-1.292 4.005-.69 7.379-5.697 8.65-15.222 14.279-22.565 21.179-4.22 3.966-9.048 10.679-12.59 15.441-2.519 5.105-17.522 25.215-23.239 23.885-.507-4.36 2.063-9.29 3.867-13.19 27.61-59.752 55.606-119.377 82.43-179.479 6.368-14.268 13.503-28.499 19.288-42.908zm318.118 240.634c9.47-.961 19.69-.636 29.26-.581-4.87 9.652-5.29 22.789-9.1 33.219-2.06 5.64-1.32 11.55-1.61 17.63-12.59 17-9.14 41.18-21.53 59.69-.68 1.01.96 10.45 1.27 12.3-11.27 14.26-6.48 13-11.34 29.65-.34 1.16-6 9.19-7.14 10.8.83 4.13 1.56 8.4 2.33 12.55-4.97 8.66-5.72 10.16-5.67 20.04-15.082 17.18.54 15.08-14.174 34.09.364 3.87.31 5.07-.073 8.94-1.989-2.7-4.322-15.82-5.479-19.93-11.493-40.78-13.827-79.05-16.898-121.14l-7.041-95.377c20.53-1.724 45.725-.777 67.195-1.881"/><path fill="#fefefe" d="M847.992 325.862c6.36-.284 18.16 7.8 26.859 9.205 7.177 1.159 9.987 1.058 17.216 1.062 2.947 7.459 4.815 13.215 7.141 20.819-4.455-.912-9.81-2.495-14.127-1.559-2.789 2.031-1.971.724-2.697 3.947 9.291 12.105 19.443-5.489 16.601 27.737-2.169 25.356 2.745 43.251-18.261 63.362-2.975.282-4.108 1.37-7.559 1.329-1.804-3.582-2.049-4.682-5.254-7.033-2.968-.791-3.178-.978-5.993-.098-7.986 8.776 2.174 52.884-11.066 59.952-3.247.504-4.163-.397-7.274-2.007-12.831-9.182-21.069-19.417-30.84-31.563 1.217-15.077.42-51.537.167-67.595l-8.37-4.86c-2.503-5.813-3.112-8.626-4.544-14.867 11.489-14.558 10.394 1.493 18.651-1.799 3.936-4.444 2.367-7.999 3.931-10.076 3.7-4.913 11.712-8.551 13.189-15.297.32-1.465.392-1.052 1.983-2.132.481 2.116.379 1.998 1.919 3.514 5.479.414 15.251-.212 20.441-1.916 2.036-3.008 1.746-1.69 1.617-5.037-4.762-4.728-17.215-3.734-22.241.2l-.382-1.226c1.977-8.201 3.185-16.512 8.216-23.177z"/><path d="M844.432 405.376c9.699 2.075 7.923 12.098 16.412 18.735 10.256 8.018 19.19-6.154 26.913-.508.651 2.769.426 2.851-.322 5.516-1.742 1.243-3.635 2.623-5.494 3.671-17.212 9.695-43.988-7.068-37.509-27.414m28.444-43.949 2.703 1.013c3.105 4.271 5.791 20.872 6.022 26.723.248 6.302-.954 13.856-5.453 18.857-1.879 2.09-5.7 1.329-8.575 1.192-2.913-1.955-5.085-3.544-6.11-6.822 2.772-4.14 7.316-.728 12.357-5.749.955-11.205-9.212-25.299-.944-35.214m-28.796 4.564c3.411-.201 4.016-.253 7.305.602 2.807 2.472 2.102 1.17 2.808 4.708-.984 3.65-1.489 3.854-4.26 6.659-3.046.226-3.344.164-6.371-.429-2.725-2.316-1.849-.915-2.775-4.318.777-3.711 1.066-4.133 3.293-7.222m40.462 5.754a6.143 6.143 0 1 1 7.361 9.838 6.143 6.143 0 0 1-7.361-9.838"/><path fill="#fefefe" d="M399.629 614.841c6.94.838 67.849 27.212 78.021 31.353l162.896 66.765c17.656 7.323 40.517 15.702 57.393 23.27-4.059 1.77-20.615 13.309-24.988 16.272-12.994 8.398-24.628 17.125-37.115 25.312-8.143-10.058-32.758-24.329-45.185-32.845l-121.843-82.427c-21.447-14.366-50.028-31.38-69.179-47.7M1272.65 200.82l.91 1.289c-5.72 15.852-4.88 14.819-3.45 31.367 3.15 2.176 11.81 7.106 11.75 11.004-4.12.393-9.79-2.164-13.92-3.66-10.53 1.919-17.26 2.008-24.54 10.72-2.72 3.259-4.94 5.95-8.43 8.432 7.36-27.432 7.25-26.863-12.7-47.363 27.16 6.318 30.31 12.479 50.38-11.789m430.3 68.859c2.37 1.541 10.69 14.712 15.53 19.768 6.28 1.718 12.47 2.988 18.83 4.342-6.22 3.505-8.24 4.862-13.67 9.476-3.69 9.008-4.45 12.801-5.33 22.501l-.76 2.638-1.21.034c-3.11-5.422-7.38-12.396-11.39-17.225-2.97-3.571-11.97-6.781-13.2-11.186 2.04-3.547 8.1-7.668 11.62-10.382 1.42-8.866 2.24-11.5-.42-19.966M265.036 737.562c3.953 3.201.978 11.252 3.652 16.638 2.562 5.158 10.479 8.621 13.82 12.447-5.809 3.181-14.161 2.508-18.755 4.362-4.582 1.848-8.428 14.687-13.395 18.431-.271-7.556-.286-11.948.324-19.506-7.484-10.481-11.143-10.952-22.947-15.99 18.291 1.661 26.233-1.298 37.301-16.382m477.662 543.028c11.057 1.7 21.735 2.65 32.869 3.53 4.452.35 11.192.62 10.705 6.06-2.346 3.26-3.711 3.54-7.331 5.26-8.891 3.28-29.354 9.77-36.817 1.72-1.21-3.67.136-12.25.574-16.57M1781.03 368.522c3.18 4.864 2.01 14.158 8.1 16.823 3.7 1.62 6.74 2.368 10.36 4.443l.06 1.572c-5.75 4.078-7.19 5.689-11.97 10.999-1.25 5.073-.71 11.168-3.04 13.908l-3.15-2.112c-.88-14.701-10.59-16.946-22.7-20.4 2.44-1.149 4.84-2.389 7.18-3.719 11.03-6.252 11.93-9.67 15.16-21.514M954.346 1286.46c1.166.41 1.77 1.2 2.779 2.1.579 16.13-26.284 15.86-37.174 15.21-1.065-.49-1.888-1.18-2.871-1.87-1.408-4.01-.609-8.57-.285-12.96 13.694.12 24.013-.24 37.551-2.48M440.632 558.842l.829.982c-1.541 8.896-2.57 17.78-1.871 26.423l.113 1.26c-6.118 2.13-14.211 3.911-20.622 5.509-1.93-1.624-2.299-5.347-2.897-8.009-3.049-2.559-5.303-1.902-9.747-5.743l-.093-1.848c7.179-3.509 12.761 2.977 20.918-5.926 2.901-3.167 9.945-9.264 13.37-12.648M1482.58 166.246c1.16 15.514-1.31 15.108 13.94 21.322-14.97.789-13.13 8.169-18.95 15.944l-1.58-.792c-2.77-27.267-12.03-12.292-17.59-20.099 11.12-4.099 14.26 7.854 23.8-15.411zM391.393 620.777c3.701 2.426 12.703 9.579 13.202 13.793-2.119.879-2.019.891-4.295 1.049-2.063-2.704-6.359-10.875-8.907-14.842"/><path d="M895.747 211.973c5.11.508 6.758.478 10.158 4.194 1.923 5.872-1.594 10.066-6.931 12.636-24.232 11.67-48.819 21.241-74.435 29.384a764.84 764.84 0 0 1-387.443 16.456c-14.288-2.962-27.253-5.161-41.391-8.952-5.354-2.864-8.181-5.35-6.573-11.696 5.749-8.157 16.934-1.321 25.599.485 15.723 3.277 32.35 5.081 47.951 8.493 59.757 13.073 122.546 14.179 183.454 11.421 83.598-4.343 175-23.536 249.611-62.421"/></svg>