<svg xmlns="http://www.w3.org/2000/svg" preserveAspectRatio="none" style="display:block" viewBox="0 0 2048 1462"><path fill="#fefefe" d="M0 0h2048v1462H0z"/><path d="M1972.33 99.262c5.97-.575 15.16-.345 13.19 8.477-7 8.857-47.2 12.804-59.87 14.678 9.2 12.481 20.43 21.807 31.03 32.821 6.4 6.642 21.32 15.397 18.18 24.769-1.61 1.244-3.3 2.74-5.69 1.848-14.36-5.352-49.86-44.538-58.6-56.09-20.47 3.475-44.89 7.501-64.94 12.253 2.65 4.249 5.26 7.67 8.2 11.641 34.16 46.162 72.73 88.374 111.07 131.02 5.23 5.809 10.48 11.107 15.13 17.462-.26 2.626-6.14 13.721-7.76 18.484 4.49 14.198-2.26 60.883.52 81.388l-2.22 2.253c.78 13.073.69 25.542.4 38.59-.21 9.177-5.16 26.344-.73 33.102-1.21 12.567-.33 24.998-1.25 37.486-.98 11.854-.42 23.722-.77 35.563-.98 32.982-3.28 66.023-2.33 99.017.04 1.529-1.76 4.437-2.63 5.613l2.13 2.356c1.85 7.089-1.24 17.006-1.16 23.74.63 50.421-4.36 114.273-2.25 163.687-5.56 8.998-.4 5.997.76 10.299 1.15 4.279-4.78 7.362-2.27 15.136 2.21 6.853-.22 18.369-.34 25.534.38 17.149-2.08 33.544.54 50.604-.05-.324-2.47 2.051-3.03 3.986 4.79 5.854 3.26 7.147.18 14.006 3.6 28.923-1.52 62.905.67 92.425.55 7.4-5.22 13.37-.46 20.2-.37 5.54-.33 21.5-3.63 25.52-6.58 8.03-2.87 14.4-3.07 23.19-.29 12.34 4.05 51.36-3.47 60.91-3.36 1.47-8.94 2.88-12.6 3-43.44 1.36-86.79 5.04-130.23 5.98-8.61.18-17.1-.28-25.66-1.82-4.98-.89-8.4-2.13-11.29-6.95-11.89-25.72 72.88-51.75 81.02-71.78.72-1.77-.35-3.61-1.27-5.18-1.47-2.49-7.29-2.92-10.25-3.36-14.28-55.09-32.42-112.111-48.79-166.865-7.9-26.435-18.38-69.808-28.02-93.269-2.46 9.051-3.34 19.472-4.62 28.909a4133 4133 0 0 1-6.25 42.881l-34.63 214.684a1228 1228 0 0 0-6.5 46.38c-1.12 9.6-1.97 19.16-3.47 28.71-1.89 12.11-8.17 13.89-19.14 15.21-26.5 3.16-53.1 2.04-79.71 3.1-23.05.08-50.91 5.46-73.49 2.07-32.83-4.94-18.48-23.85.43-35.2 12.51-7.5 23.81-15.41 36.52-22.69 8.58-4.9 18.84-12.68 26.83-18.23-.32-3.2-.52-7.31-.93-10.38-1.14-7.31-8.22-5.98-9.54-13.89-3.99-23.91-7.99-48.57-10.86-72.63-7.91-66.297-15.25-132.619-20.94-199.141-.3-3.52-1.67-6.433-2.13-9.865-.9-7.663.02-14.292-2.95-21.571-2.88 6.456-2.76 25.617-4.26 33.39-4.08 21.105-5.73 43.057-9.26 64.207-8.03 48.055-16.49 96.04-24.94 144.01-.43 2.44-.98 6.07-1.8 8.28-.98 2.65-5.94 8.46-6.16 10.98-1.96 22.41.76 53.94-8.37 75.04l-.52 1.19c-18.88 5.67-52.4 3.72-73.72 5.99-21.11 2.25-45.41 3.43-66.7 4.76-9.28-.31-23.94 1.47-30.87-5.36-19.04-18.79 26.45-34.2 38.12-42.02 10.72-7.18 18.2-10.07 28.23-19.33.18-3.69.9-8.57-.74-11.8-5.37-10.59-6.32-19.31-7.4-31-6.16-66.556-16.78-132.601-22.53-199.2-.19-2.202-.84-5.741-2.32-7.355-6.65 4.193-10.85 48.677-12.78 58.878a6519 6519 0 0 0-32.62 185.147c-2.66 16.8-5.01 33.54-7.01 50.43.29 2.52-7.19 5.76-7.37 7.07-2.81 20.79 4.85 58.61-8.62 75.18-8.8 8.5-35.08 6.96-46.41 7.29-32.03.93-63.82 3.39-95.67 1.04-12.09-.89-17.58-17.37-7.29-24.25 23.09-15.43 45.97-26.47 66.86-45.27-1.13-6.55-.63-8.78-5.87-13.42-3.22-3.01-4.53-7.17-5.57-11.24-11.83-46.52-18.1-100.26-33.1-145.633a1286 1286 0 0 0-14.71 70.613c-2.34 12.37-4.25 33.61-11.35 43.35l.14 1.02c1.54 11.23 3.93 53.78-3.87 61.78-7.97 8.18-44.22 6.45-56.39 7.35-11.91 1.04-27.49 2.65-39.08 3.19-67.343 3.14-38.993-25.06.02-42.59 4.06-1.82 12.99-8.47 16.43-11.38l.16-1.31c-3.64-13.55-4.8-44.71-6.23-60.44-4.14-45.35-6.4-90.908-10.3-136.408-2.58-30.023-3.04-54.811-7.45-85.152-7.94 27.467.43 64.667-.62 94.197-.6 16.914-1.83 31.133-3.15 47.898l-7.47 84.655c-1.06 10.92-2.42 22.12-3.47 32.95-1.43 14.74 1 26.93-6.01 41.07-7.814 6.43-39.143 4.57-50.682 4.72-1.407 7.36-2.32 18.26-7.682 23.82-6.493 6.75-85.069.61-98.737.25 7.137 5.25 15.361 8.24 22.339 13.44 5.823 4.33 9.881 10.92 14.918 16.09 4.441 4.57 9.392 8.59 13.789 13.23 14.833 15.67 30.179 50.69 29.181 72.81-.207 4.57-1.497 10.37-5.243 13.39-18.132 14.61-176.919 25.66-206.004 21.59-5.803-.81-13.352-3.88-16.765-8.8-2.411-3.47-4.235-10.22-3.165-14.46 1.144-4.52 5.705-8.19 9.52-10.57 6.959-4.36 15.372-6.97 23.006-9.91 15.259-5.86 31.547-11.5 45.882-19.34-44.98-16.84-90.505-47.29-133.704-68.92-4.897-2.46-11.599-5.89-16.228-8.67-38.813 1.72-70.209-4.92-108.426-7.75-61.027-4.54-121.736 1.94-182.459 9.97-1.818 8.3-8.992 35.64-17.071 39.33-12.883 5.89-8.71 30.41-11.629 42.29-4.751 19.33-3.51 43.49-21.082 56.25-52.831 1.75-129.132-17.32-177.11-39.84-12.918-6.06-39.713-24.85-28.768-42.09 11.238-17.71 38.744-9.61 56.842-9.95 28.496-.53 52.105-4.16 79.599-10.21 2.529-11.22 3.302-20.73 6.481-32.91-22.588-3.74-109.801-9.75-124.722-23.14-1.734-8.6 7.195-61.94 9.038-75.37l23.766-171.811a17355 17355 0 0 0 50.945-406.976c-6.518-7.763-18.098-20.861-15.896-32.152.062-.318 4.673-6.544 4.665-6.681-1.111-17.91-5.039-16.262 11.071-27.988 1.22-9.596 5.435-16.357 14.384-16.539 1.478-.03 3.633-7.039 4.52-8.836 5.224-10.58 17.492-9.339 27.339-8.563 10.251.579 20.163 1.537 29.243 6.898 6.81 4.021 12.285 8.884 19.429 12.445 15.196-1.424 30.096 2.304 45.58 4.699 31.73 5.072 63.781 9.51 95.973 9.441 5.742-.012 8.261-2.497 7.795-8.126-4.786-7.23-21.658-5.529-29.121-11.708-13.9-11.508 3.178-22.241 10.297-30.843-7.826-25.468-2.204-45.742 7.688-69.438l-.745-.225c-37.699-11.784-18.542-32.447 6.849-42.67 45.662-18.386 93.109-28.957 140.546-9.717 34.905 14.158 51.725 44.375 47.342 81.086-1.912 16.982-5.622 25.388-12.21 40.758 4.219-1.061 8.341-2.379 12.466-3.759 32.793-10.971 65.111-23.405 98.025-34.014a2737 2737 0 0 1 231.923-64.851c42.374-9.972 83.208-17.498 125.938-25.784l241.71-45.162z"/><path fill="#fefefe" d="M1041.91 286.018c-18.01 16.321-13.57 41.825 1.34 58.919 10.54 12.086 33.49 22.578 48.15 29.797-13.5 92.263-28.64 185.862-44.57 277.745-9.39 54.174-22.94 108.624-35.03 162.207a9321 9321 0 0 0-50.097 234.784c-2.813 14.6-20.37 109.65-23.961 114.24-8.796 1.38-30.796.39-40.804-.1-21.017-1.03-42.63-1.52-63.579-2.68-20.613-15.63-38.99-26.26-60.6-40.17a3029 3029 0 0 1-67.925-45.43c-4.594-3.15-31.482-21.22-33.535-23.91-6.487-8.51-1.352-60.732-.827-72.555 1.691-34.745 2.5-69.529 2.424-104.315.042-9.096.709-32.832-.893-40.369 8.554-5.159 31.38 7.563 38.432-3.996 1.283-8.977-22.55-102.629-26.18-120.785 18.637 8.536 37.778 15.951 58.235 8.414a57.34 57.34 0 0 0 32.118-30.428c36.257-82.421-130.541-291.643-235.913-251.973l-1.938-1.18c111.162-40.842 219.046-78.946 333.773-109.077 57.658-15.143 113.799-26.149 171.38-39.138M198.073 523.429c6.115 3.111 55.453 29.176 57.54 31.974 1.808 2.425 2.827 14.568 5.807 19.564 4.659 7.808 87.984 66.827 99.968 74.081 3.982 2.41 8.007 4.22 12.543 5.312 29.796 7.169 47.926-9.082 71.479-23.371 1.453 30.307 1.421 61.984 2.296 92.399.451 15.681-.277 43.346 2.141 58.609l-63.419 19.675c-23.363 7.234-53.239 14.745-73.763 27.497-22.309 15.26-27.601 55.344-32.743 80.627-8.498 41.782-18.686 84.229-26.731 125.854l-26.073 138.4c-30.173 1.64-83.627-7.8-112.748-16.07 10.186-58.7 17.981-126.52 25.941-186.102l38.679-293.556c6.35-50.514 10.847-105.204 19.083-154.893"/><path fill="#fefefe" d="M555.765 445.256c11.947-1.706 24.909-.316 34.932 6.841 46.015 32.856 67.732 203.373 79.202 262.594 6.724 34.718 15.889 68.745 21.982 103.619a843.6 843.6 0 0 1-172.193-25.433c-16.909-4.177-40.526-12.77-55.331-15.967l-.991-.208c.301-34.805-2.105-70.781-2.348-105.72-.119-17.045-.405-34.619-1.304-51.628l73.275-52.152c9.599-7.152 45.488-28.588 47.496-39.001-5.013-13.838-21.578 2.548-27.526 6.957-5.201 3.856-10.635 7.433-15.893 11.254l-72.099 51.401c-16.945 12.269-38.684 29.668-56.771 39.197-8.346 4.397-27.843 6.762-36.36 1.782-16.691-9.759-34.737-24.372-50.715-35.791-15.031-11.186-31.439-21.352-45.907-33.228-8.3-7.808-4.785-25.235-.337-33.576 13.596-25.499 39.018-37.593 64.249-19.559 11.303 8.078 27.112 19.035 39.256 25.138 31.899-14.935 55.664-30.038 85.709-48.116 27.714-16.674 60.077-42.675 91.674-48.404m-54.489 479.022c1.344-.217 2.704-.045 4.091.025 2.423 2.302 3.396 7.368 3.757 10.61 5.684 50.499 10.199 100.147 18.294 150.277 9.654 59.77 33.151 55.03 75.878 85.64l.732.53c-26.085-1.1-51.731-5.55-77.792-7.9-26.7-2.41-50.471-1.83-76.985-1.77-35.913 2.57-71.336 7.41-107.534 10.46 5.902-13.62 8.77-28.33 13.379-42.44 19.897-60.92 31.505-124.43 47.29-186.193.727-2.843 88.944-17.296 98.89-19.239m845.904-694.863c2.88.662 7.94 11.083 9.46 14.086 16.32 32.219 34.5 63.446 51.28 95.413 11.19 21.304 19.96 36.361 39.95 50.77 8.78 6.326 22.32 15.666 30.1 22.689l.79.718c-4.21 4.808-8.72 8.726-8.35 15.224 4.46 7.423 18.07 4.644 21.1 8.397 15.35 19.025-11.37 19.833 17.12 36.614-23 11.87-43.07 25.312-15.66 49.28-4.51 3.205-9.1 6.304-13.76 9.296-7.69-10.402-18.75-33.409-25.23-45.293-6.04-11.06-13.7-24.693-18.97-35.809 5.6-13.525 9.6-27.631 6.74-42.319-5.28-27.184-33.75-41.398-59.53-36.208-11.07 2.853-9.05 6.761-15.29 10.927-8.58.364-11.46-2.987-19.44 2.075-8.38 5.312-8.24 11.883-10.37 20.79-1.76 7.368-2.57 6.465-8.62 10.174l-2.81-13.977c-9.64-9.182-11.56-14.504-14.14-27.715-6.24-31.945-28.48-62.895-64.66-57.758-9.93 1.409-16.1 7.734-21.51 15.815l-.49-.344c-19.91-13.678-33.84-11.346-50.39 5.958-18.89-20.965-27.99-42.82-52.2-55.083-6.47-3.277-8.81-5.673-16.59-7.009l-1.03-.168-.39-1.355c8.42-3.324 28.52-6.109 38.6-7.925l57.38-10.676 92.11-16.595c18.29-3.37 36.4-7.352 54.8-9.992m295.74-35.656c3.26 1.828 17.3 13.025 21.25 16.009a5886 5886 0 0 1 55.61 42.29c53.96 40.858 106.94 82.131 159.71 124.517 24.23 19.464 49.77 37.487 74.1 56.829-14.22 2.558-34.95 8.583-49.53 12.42-15.13 5.14-28.73 8.63-44.24 12.323-14.44-11.245-26.99-22.723-40.93-34.284-21.94-18.191-44.32-35.52-65.94-54.136-27.98-24.085-53.8-50.047-80.53-75.253a1207 1207 0 0 1-48.22-47.308c-6.21-6.392-15.17-15.059-20.3-22.088a376 376 0 0 0 39.02-31.319m188.09-53.335c2.76 2.882 9.74 13.742 12.47 17.616a675 675 0 0 0 18.44 24.509 812 812 0 0 0 77.42 87.672c-3.31 3.822-14.08-.614-19.31-1.471-13.9-3.06-22.32 6.76-31.16 15.616-4.64 4.686-2.19 3.644-7.96 1.898-28.62-8.652-40.99 12.109-51.81 31.958l-38.42-29.364-100.09-75.294c-13.09-9.903-38.05-26.954-49.02-38.264 12.84-3.412 28.23-5.791 41.42-8.12 49.26-8.696 98.69-18.599 148.02-26.756"/><path fill="#fefefe" d="M1423.43 215.298c7.72-.486 23.79 24.535 28.84 31.671l29.34 41.448c10.71 15.409 23.3 35.419 37.09 47.574 27.07 23.855 57.15 39.056 84.71 62.458-12.43 30.476 3.08 42.187 30.69 51.128 12.43 4.026 34.91-1.359 41.46 5.056 3.03 13.129-21.25 7.234-29.15 12.974.99-.721-23.33 4.576-25.11 5.065-7.1 2.586-19.94 5.314-27.76 7.182-7.51-3.55-16.61-11.544-23.56-16.743l-42.43-31.483-54-39.98c-6.08-4.543-27.08-20.235-30.86-24.667-14.19-16.617-73.82-124.784-77.62-140.493 14.17-3.895 43.17-8.416 58.36-11.19m-245.49 144.377c9.15 5.453 25.84 17.623 35.48 24.058l96.76 64.862 90.76 59.522c20.35 13.243 43.91 27.729 62.89 42.499-13.67 4.361-28.86 11.574-41.09 14.911-10.42 4.101-27.44 8.148-36.17 12.804-9.97-8.601-19.46-15.855-30.19-23.478-62.78-44.609-122.74-92.856-184.4-138.932-8.76-6.551-17.56-12.418-26.06-19.418 5.88-7.606 25.45-29.816 32.02-36.828m-564.08 96.169c11.207 4.487 33.989 21.647 43.904 29.861 48.29 40.009 98.434 107.009 106.797 170.662 1.808 13.761-3.014 26.736-11.986 37.146-23.459 21.216-49.628 11.291-72.99-4.539-7.858-61.787-26.108-147.251-48.812-206.185-2.069-5.37-13.109-21.307-16.913-26.945"/><path fill="#fefefe" d="m1531.54 194.216 2.43-.078c4.95 2.178 11.61 9.405 17.85 13.122 6.73 5.363 24.57 10.448 30.15 15.522 15.43 14.048 34.72 35.462 48.43 50.794l-3.51 12.914c1.62 4.697 3.41 9.212 6.58 13.059 5.01 6.072 3.76 8.166 3.11 15.641-8.64 10.141-14.3 15.227-19.11 27.751-3.83-12.351-11.09-26.915-20.3-36.041-2.17-2.15-7.36-5.831-10.35-8.504-.02-2.488 4.14-8.322 5.52-12.496l.41-1.268c-3.31-9.794-3.88-12.044-11.45-18.834-9.79-4.08-7.94-1.23-17.59-.425-7.25-6.467-20.83-14.168-28.9-7.457-11.91 9.907-11.53 20.045-3.54 30.593-12.92 4.069-15.38 3.957-23.39 14.39-19.56-28.923-44.33-65.636-66.45-91.857zM430.77 328.861c13.613.825 35.13 1.18 47.623 3.468-.35 15.397 3.641 47.123 19.157 57.225 8.652 5.633 15.355-17.044 25.98-20.76 2.945.431 4.28.781 6.52 3.528 10.315 12.653-11.366 23.096-12.353 34.276.94 3.163.953 3.285 3.51 5.188 4.765.729 8.855-2.715 13.033-5.422 2.477 1.091 6.397 7.693 8.314 10.447-2.756 1.662-6.149 3.358-9.031 4.896-32.532 13.099-58.407 21.287-93.153 24.794-.77-31.056-8.515-25.327-33.985-29.414 3.661-4.037 9.236-8.197 11.471-13.217 7.094-15.932-11.295-41.684 12.914-75.009"/><path d="M430.435 359.385c4.502.552 5.814.812 8.255 4.571.335 3.902-.584 5.037-2.271 8.576l-3.479.396c-6.052-2.822-4.166-8.273-2.505-13.543"/><path fill="#fefefe" d="M286.585 444.889c52.782 10.445 126.931 22.183 179.635 12.719 15.475-2.778 35.275-9.773 50.449-14.891l.318 1.319c-14.371 6.614-26.994 17.145-40.491 25.047-32.469 19.008-63.516 41.084-98.016 56.057-26.537-14.623-42.202-34.764-73.478-30.273-5.942-18.703-10.252-32.009-18.417-49.978m-70.582-19.997c7.378 4.584 17.379 30.464 31.586 28.973 2.865-1.424 2.938-1.483 4.35-4.254-1.18-8.508-10.525-9.892-17.432-22.117l-.686-1.226c40.898 6.686 48.6 38.573 58.31 73.292-19.999 11.046-25.708 20.334-33.13 41.14-7.707-3.322-15.089-7.393-22.51-11.319-16.692-9.006-42.082-21.245-52.557-36.561-1.552-2.27-3.795-8.501-4.809-11.31 4.869 3.046 11.501 9.268 16.36 10.255 2.658-2.193 2.952-2.494 4.022-5.756-.832-10.532-17.452-12.569-15.793-24.117 7.142-2.924 19.035 16.789 26.218 10.392.458-10.083-13.926-19.58-13.454-28.262l1.529-.741c7.493.937 14.533 17.758 23.235 13.068 7.461-14.825-15.206-15.165-5.239-31.457m890.197-41.46c2.98 1.867 23.93 13.151 24.24 13.647 8.26 13.312 15.04 18.073 27.43 27.608-7.26 18.745-25.9 12.298-10.19 38.631-14.25 11.772-28.52 31.579-20.42 51.027 2.47 8.13 4.12 10.196 9.68 16.524-11.23-6.355-37.6-26.875-49.28-35.496 4.56-29.78 11.41-84.552 18.54-111.941m-42.92-97.987c27.01-3.344 62.12 8.085 78.02 30.619 9.01 12.768 15.01 22.176 26.23 33.305-9.36 10.946-18.27 23.324-27.83 34.732-5.02-1.852-14.12-6.707-18.88-9.38-22.27-12.505-59.21-25.654-73.57-46.576 9.29 4.824 41.59 24.583 49.44 24.18 9.17-18.209-45.54-30.958-51.51-41.112l1.04-.995c11.72.56 45.35 20.797 55.25 23.481 3.32-1.066 2.14-.356 4.4-3.654-.06-14.856-44.96-28.674-57.88-33.106 14.29 1.837 26.59 4.602 40.24 9.277 7.19 2.46 22.59 17.477 28.04 10.106-1.56-18.064-38.48-27.381-52.99-30.877m564.23-108.23 1.58.119c3.11 2.085 2.19.867 3.45 4.364-.55 7.826-27.89 25.734-35.6 32.568l-1.03.921c-8.38-5.302-14.23-8.299-23.16-12.687-7.63-3.692-13.73-6.94-21.1-11.13 20.48-2.371 54.71-10.069 75.86-14.155m67.69 948.225c2.46-.28 1.32-.47 3.54.59-.15 4.16-.67 10.05-2.4 13.79-4.93 2.68-67.35 4.44-80.49 5.81-2.83-.88-3.22-.99-5.74-2.5-2.09-3.46-1.19-8.07-.96-12.4 27.61-2.65 57.4-2.76 86.05-5.29m-221.14-46.02c4.09-.28 9.23-1.26 12.49.62 2.19 3.08 1.5 6.76 1.39 10.79-18.53 3.22-51.56 5.06-71.38 6.75-4.46.43-8.88 1.35-12.34-1.33-2.01-3.47-1.39-7.15-1.28-11.34 21.24-2.76 49.14-3.89 71.12-5.49m-217.9 72.06c6.65.37 18.85-.19 25.92-.29l-.04 14.25c-13.44 2.06-23.77 1.2-36.78 2.55-8.62-.82-35.33 2.89-26.63-14.41.91-1.82 32.61-1.81 37.53-2.1m523.15-742.893c3.91 2.133 18.87 14.969 23.65 18.792-14.81 3.041-22.28 5.591-25.99 21.853.74 3.164 1.26 4.337.78 7.465-2.64.688-1.78.496-4.71-.265-5.74-4.526-8.74-18.104-12.09-26.132 8.69-6.899 13.04-12.156 18.36-21.713M234.034 1221.83c25.957 7 39.859 6.9 66.553 6.49l-3.597 12.47c-.29.37-1.518 1.13-1.979 1.44-19.739.06-45.439-4-62.926-13.56-.826-2.23.692-4.04 1.949-6.84m627.512-22.96c8.889 4.55 12.354 8.9 18.941 16.48-9.096 9.76-13.652 12.3-26.144 16.96-6.91 1.76-10.785 2.54-17.853 3.42 7.849-12.6 17.711-23.98 25.056-36.86m1072.304-100.23.83.33c1 3.19 1.71 6.79-.55 9.62-13.37-1.5-51.74.66-65.93 2.67l-1.09.16c-2.05-.62-3.66-1.25-5.64-2.02-1.71-2.94-1.83-5.51.36-7.98 6.85-1.25 21.04-1.12 28.55-1.28q21.75-.555 43.47-1.5m-817.73 10.72c2.7-.48 2.68-.4 5.26-.02l1.64 2.65c.19 3.52.67 2.05-.9 4.7-9.31 4.73-34.55 6.24-45.42 7.15-3.99.09-5.13.73-8.35-.98-.62-3.03-.92-3.49.05-6.27 4.96-1.89 39.08-5.79 47.72-7.23m-146.024-23.01c6.886.95 28.188-.58 31.634 2.62-.12 3.17.46 1.82-1.964 4.12-8.311 1.36-21.34 3-29.104-.05-1.937-2.88-1.277-2.09-.566-6.69m644.824-725.555c.98.207 1.12.516 2.04 1.175.21 6.488-8.62 13.685-13.21 17.485-5.43-9.433 3.73-13.68 11.17-18.66"/><path fill="#515154" d="M516.669 442.717c4.21-2.613 15.284-7.135 20.088-8.484l1.938 1.18c-7.43 2.749-14.383 5.695-21.708 8.623z"/><path d="M1354.34 882.736c2.49 14.537 21.27 161.534 18.42 166.004l-4.16.43c-.45.44-.9.88-1.35 1.31-.95 15.13-1.89 31.66-4.14 46.6-1.43 9.54-4.99 14.53-12.15 19.69-11.35 1.04-24.68 1.35-36.16 1.83-1.33-2.75-.7-3.26-.43-6.84 1.78-16.28 5.95-34.99 8.05-52.57 8.13 1.1 26.53 2.06 31.66-5.19l-.73-1.87c-6.47-4.58-20.94-3.1-28.64-2.22 7.03-36.51 12.16-74.546 19.43-111.282 3.5-17.659 4.92-38.666 10.2-55.892"/></svg>