<svg xmlns="http://www.w3.org/2000/svg" preserveAspectRatio="none" style="display:block" viewBox="0 0 2048 1462"><path fill="#fefefe" d="M0 0h2048v1462H0z"/><path d="M1027.13 383.202c.95-.053 1.89-.097 2.84-.133 32.59-1.236 38.1 23.582 38.18 50.231.07 19.762-2.88 37.203-17.16 51.655 6.62 42.711 22.74 26.175 50.04 41.79 22.9 13.106 26.18 52.511 31.57 75.64 3.98 17.086 9.55 39.92 18.03 55.326 3.16 5.332 15.39 16.837 20.05 21.514a1894 1894 0 0 0 37.48 36.764l99.35 96.867c31.35 30.294 62.32 61.766 94.41 91.283 6.37 5.863 31.18 29.777 37.36 33.128 16.61 9 36.71 19.392 53.58 28.355l111.46 59.418c16.12 8.54 32.39 16.96 48.29 25.88 4.42 2.49 4.73 7.58.89 10.96-10.22 2.54-39.36-15.99-50.22-21.7l-79.87-41.97c-14.86-7.801-32.7-17.791-47.77-24.312 16.13 17.168 47.06 43.192 65.51 60.782 18.59 18 37.31 35.86 56.16 53.59 9 8.47 19.94 19.61 29.51 26.95 12.85-2.37 54.24-10.56 62.25 2.36 1.26 9.86-10.36 8.58-17.39 8.38-11.31-.33-19.28.07-30.36 2.54a6003 6003 0 0 0 77.23 73.31c26.38-4.14 47.25-7.4 71.95 6.35 3.8 2.12 8.87 5.62 9.84 10.1.44 1.97 0 4.04-1.21 5.66-1.1 1.51-4.3 3.69-6.07 2.84-24.38-11.67-32.01-14.29-58.84-10.93 9.89 11.95 24.5 22.08 35.38 33.41 8.8 9.16 18.76 17.44 27.44 26.78 21.94-3.97 59.17-3.6 78.36 9.38 7.3 4.95 19.25 11.17 13.3 21.34-9.78 5.52-17.15-5.76-26.23-9.82-16.23-7.26-32.26-6.27-49.53-5.77 3.27 3.56 6.79 6.79 10.45 9.95 18.52 15.98 36.33 32.79 54.67 48.98 9.8-1.23 67.63-2.86 74.93-.3 4.47 3.68 5.03 7.77 1.54 12.41-8.3 6.15-93.96 5.69-111.96 5.88-41.09.81-82.19 1.13-123.29.97-102.32.64-204.63.67-306.94.09l-195.92-.14c-31.25.07-84.39 1.64-113.65-.96l-795.875-6.78c-47.457-.4-95.629-3.25-143.016-.96-6.649.32-41.292 5.57-44.201 4.28-2.753-1.22-3.748-3.51-4.646-6.21 1.963-17.05 75.789-17.21 89.779-16.94 27.078-24.13 53.372-48.96 80.161-73.4 7.887-7.2 16.105-14.28 23.21-22.25a333 333 0 0 0-52.569 10.22c-13.508 3.7-26.428 8.88-39.929 12.42 0 0-2.605-.88-2.864-.96-25.841-25.3 106.982-39.97 118.001-41.68 8.091-9.2 20.211-18.76 29.266-27.58 21.674-21.11 48.261-43.44 68.462-65.42-21.342 4.46-38.448 11.16-58.372 19.56-2.04.86-3.805.69-5.894.15-2.795-2-2.793-2.2-4.166-5.47 1.114-18.95 72.586-30.81 88.191-33.07 15.565-12.6 34.593-32.03 49.567-46.37l82.919-78.509c-48.554 23.579-96.055 51.439-144.85 74.779-5.921 2.83-11.165 5.7-14.691-1.75.373-3.72 2.724-7.53 6.015-9.29 60.658-32.45 122.039-64.236 183.487-95.256 5.365-2.708 29.347-26.71 35.135-32.174 48.506-45.789 95.492-93.326 144.028-139.062a8756 8756 0 0 0 71.978-68.446c3.606-3.449 32.73-30.317 34.201-33.713 10.138-23.415 18.685-68.431 26.07-93.048 5.748-19.16 6.325-42.359 20.016-56.088 24.396-24.463 57.837-9.73 60.227-53.864-17.771-22.394-25.651-67.518-.2-87.563 7.54-5.946 15.65-8.584 24.92-10.384"/><path fill="#fefefe" d="M1011.36 488.189c12.45 5.783 18.33 7.528 31.19 1.138 1.3 6.715 2.83 16.529 6.38 22.264 16.59 26.79 45.62 7.105 61.14 40.717 11.22 24.299 11.75 45.006 18.9 69.462 13.27 45.384 27.49 90.7 44.28 134.876 7.06 18.602 14.27 18.256 25.12 32.95 1.84 2.504 2.19 8.559 1.02 11.811-2.48-.131-5.99-4.198-8.93-6.375l-2.03.391c-.62 5.736 7.5 9.663 3.89 15.215l-2.47.312c-26.12-8.567-56.47-97.767-67.31-123.746-15.01-35.958-31.05-74.459-40.02-112.398-.32-1.362-2.37-1.373-3.38-1.531l-1.13 1.268c-1.01 8.686 0 16.852-.28 25.441-1.41 42.66 2.15 84.386 5.01 126.878 2.5 35.687 4.51 71.406 6.03 107.148 1.58 36.715 2.86 73.7 3.5 110.504.11 20.366-1.64 40.481-.21 60.826 1.53 21.78 18.34 27.41 34.63 37.64 3.62 2.27 11.58 4.93 11.46 9.44-7.84 3.33-19.03.43-27.48.39-13.45-.07-44.67-2.76-45.49-21.44-.93-21.43-.02-42.742-1.78-64.339a1370 1370 0 0 0-12.07-97.033c-5.11-33.802-10.77-68.807-19.92-101.726-1.45-2.249-.48-1.428-3.09-2.427-14.72 8.862-44.49 262.935-56.429 273.305-17.362 15.07-48.558 13.75-70.358 12.34 14.777-13.54 31.967-19.63 49.82-36.81 8.766-62.102 4.613-117.95 7.797-179.604 1.159-23.733 2.528-49.781 4.199-73.188 1.838-25.743 19.701-187.645 4.646-195.854-1.142.523-2.735.989-2.775 2.49-1.976 74.619-39.133 148.084-73.099 213.097-8.619 16.498-11.663 23.354-30.356 30.284 3.837-5.097 12.334-10.999 12.313-17.862-3.804.02-9.646 6.238-14.492 5.708-3.391-6.156 16.437-30.479 19.87-38.575 26.697-62.945 41.624-132.383 59.123-198.211 13.884-52.231 57.538-15.24 72.781-74.776m77.85 816.361c31.23-3.31 203.19.89 224.53 15.96 2.15 1.52 3.19 3.02 3.71 5.56-3.67 2.95-18.53-2.05-23.76-2.48-62.86-5.08-127.51-7.99-190.45-6.59-55.51 1.24-111.258 7.68-166.581 7.08-56.631.25-112.551-6.23-169.255-5.7-20.163.19-37.875 6.11-55.82 7.48l-.493-.76c6.472-10.19 37.531-17.05 49.682-17.59 62.509-2.76 124.739 4.03 187.595 2.72 47.606-.99 93.542-3.56 140.842-5.68m-193.272-60c36.848-2.34 95.809-.24 132.562.14 34.23.36 232.31-4.19 251.75 17.21l-.1 1.64c-9.76.03-24.7-2.01-35.21-2.85-20.24-1.67-40.51-2.84-60.81-3.53l-204.53-.04c-57.832.13-113.539-7.09-169.522 10.91-2.538.82-5.59 1.23-7.914-.13 4.06-19.16 77.169-22.71 93.774-23.35m131.522-759.828c-7.23-1.944-14.76-5.076-19.14-11.481-24.808-36.278-15.298-89.011 37.91-78.273-2.46 5.557-7.29 15.008-3.04 20.373 2.72.094 3.2-.506 5.45-2.004.87-4.092 1.02-5.286 3.03-9.046l1.42-.67c.82 3.019.06 3.781-1.16 6.84l-1.14 2.848c2.43 7.359 6.23 6.426 7.11 12.452 3.94 26.933-.78 52.867-30.44 58.961M902.825 1185.6c8.09-1.03 17.109-.38 25.336-.56 36.99-.82 73.779 6.53 110.509 7.77 15.04.51 34.35 1.29 49.45.86 23.67-.68 46.27-3.94 70.68-2.62 11.05.6 37.8.68 47.65 8.25 1 .76.35 3.07.18 4.82-5.25-1.13-14.9-1.46-20.75-1.86-38.24-2.61-76.45 2.36-114.67 2.98-38.21.62-76.165-3.59-114.077-7.82-10.768-1.2-50.444-1.42-54.308-11.82m-22.557-103.19c36.807-3.16 79.709 1.38 116.866 2.54 24.476.71 48.936 1.58 73.406 2.6 9.03.32 44.92.23 49.55 4.25l-1.13 1.6c-10.07 5.12-26.65 6.45-37.99 6.69-35.54 4.39-104.474-4.46-142.127-6.62-39.568-2.26-64.151.06-102.661 1.72 14.701-10.46 26.389-11.44 44.086-12.78m460.502 16.04c24.45-1.71 174.68 3.71 184.48 20.3l-1.21 1.55c-4.04 1.68-11.51 2.31-15.71 1.38-32.6-7.23-68.77-6.56-101.15-11.33-3.68.05-43.26-1.08-44.54-1.5-18.7-6.16-137.5 11.68-142.86 9.26l-.52-1.82c6.51-11.96 104.77-17.27 121.51-17.84m-443.485 35.67c2.296-.17 17.51 1.75 19.415 2.26 35.818 9.58 245.8-5.36 262.66 16.14l-.52 2.65c-31.34-4.76-64.57-2.81-94.86-3.47-32.8-.72-167.429 7.07-186.695-17.58m-242.79-.64c12.133-.8 31.368.52 43.612.6 19.176.13 112.581 10.02 121.531 26.86l-.981 1.37c-9.067 2.94-69.474-10.6-84.412-12.98-36.774-5.92-87.218-9.88-124.226-1-8.495 2.04-22.531 11.24-31.269 13.96l-1.266-1.77c.623-6.53 15.057-15.67 20.612-17.89 17.31-6.93 37.913-8.2 56.399-9.15m-251.059 122.91c15.011-2.05 118.256 2.05 119.752 17.61-5.19 2.33-46.311-3.93-57.435-4.35-24.942-1.7-57.294-3.69-81.934 1.03-9.566 1.83-26.893 7.96-36.677 11.28 13.04-21.28 33.018-23.35 56.294-25.57m894.184-264.826c21.43-2.143 96.3-.086 112.17 11.596l.07 1.57c-5.71 2.42-18.6.22-25.11-.66-16.54-2.24-31.54-3.12-48.25-3-18.31-.23-36.47 1.1-54.69 2.04-10.1.53-52.61 7.77-58.13.3 6.1-7.651 61.62-11.227 73.94-11.846m127.22 272.936c15.8-1.24 94.56-1.14 104.23 9.15l-.28 1.47c-6.39 2.96-43.38.07-53.63-.32-22.51-.29-43.63.58-66.04 3.16-6.86.79-30.26 4.65-32.66-2.41 4.93-8.88 38.69-10.67 48.38-11.05M679.61 984.488c24.364-1.339 90.502-1.066 109.321 14.96l.011 1.402c-6.751 2.5-32.362-2.15-41.181-3.191-27.548-3.793-64.049-4.571-91.592-2.201-5.073.436-16.747 2.011-20.518-.758l1.062-1.525c14.678-7.349 26.806-7.48 42.897-8.687m889.06 207.932c13.24-2.12 85.43.05 93.12 10.79l-.74 1.53c-7.91 3.25-52.38-1.42-63.59-2.33-25.36-1.17-51.77.67-77.08 2.67-5.03.4-11.09 1-15.92-.54l-.19-1.33c11.83-7.59 48.75-9.57 64.4-10.79m84.57 99.01c4.5.61 10.39.06 14.78-.16 13.25-.68 81.68-.23 86.81 10.24-5.17 3.91-26.33 1.5-33.53 1.06-15-1.35-101.76 1.57-105.85-2.69 6.02-5.39 29.47-7.42 37.79-8.45"/><path fill="#fefefe" d="M992.786 1039.44c14.884.11 48.894 1.01 62.364-.64 1.7 4.02 4.12 7.62 6.43 11.32-5.04.43-10.73.58-15.83.82-22.42 1.07-49.288 1.83-71.357.16 6.866-6.85 8.201-11.44 18.393-11.66m-1.955-31.41c12.769 2.64 59.749.55 65.389 9.1.05 3.12.17 3.34-1.53 5.8l-66.149-3.94zm-84.389-1.74c6.054-.56 28.529-1.57 32.38 2.78l-.724 3.69c-9.194-1.22-19.486-1.87-28.702-3.25-2.112-.32-2.053-1.35-2.954-3.22"/><path d="M1765.31 642.539c7.54-1.112 16.11-2.314 19.27 6.544-.27 3.786.24 2.33-2.01 5.496-8.08 4.82-376.83 35.415-428.34 42.383-7.28.903-12.07 2.307-16.63-4.935.14-6.664 8.56-7.818 14.09-8.532 45.73-5.916 91.75-9.702 137.65-14.215zm-1452.478 4.54c13.395-.714 67.012 6.089 82.263 7.829l147.412 15.985 135.272 13.847c19.348 2.021 39.793 3.919 59.175 6.39 2.919.372 3.466 1.789 4.719 3.731.465 4.22.041 4.873-1.751 8.778-16.509 1.773-63.014-4.885-82.105-6.838l-196.28-20.761-108.623-11.899c-10.774-1.265-21.574-1.903-32.351-2.979-4.832-.482-7.214-2.119-9.545-6.056-.342-3.744.231-4.554 1.814-8.027M1697.79 439.136c1.77-.077 3.92.027 5.73.06 3.71 2.261 2.51 1.001 4.6 4.732.1 3.922-1.66 6.825-5.43 8.392-11.56 4.81-23.36 9.183-35.05 13.682l-67.81 26.466c-95.52 37.83-192.88 73.791-287.81 112.56-2.19.596-2.16.459-4.45.585-3.49-1.885-2.31-.788-4.43-4.228-.36-4.63 1.16-7.555 5.58-9.496 27.41-12.042 55.59-22.338 83.42-33.306l162.51-63.005c44.38-16.882 99.34-41.872 143.14-56.442m-121.33-186.277c3.69.015 3.94-.107 6.92 1.816 1.43 2.476 2.08 2.664 1.54 5.814-.4 2.321-3.51 6.625-5.44 8.024-14.44 10.488-28.78 21.654-42.92 32.497a6535 6535 0 0 0-92.65 72.073l-117.48 93.268c-22.31 17.844-47.25 39.058-70.16 55.54-3.49-.058-3.89-.142-6.84-1.992-3.13-5.206-.61-9.974 3.88-13.637 13.19-10.74 26.82-21.018 40.21-31.525l76.52-60.593c69.02-53.938 136.48-108.17 206.42-161.285m-1066.402-1.29c8.21-.118 31.002 20.419 38.493 26.59l70.036 58.49L742.07 437.67c25.648 20.654 51.466 41.408 77.198 61.945 3.697 2.951 8.27 7.291 9.675 11.91-.121 3.234-.892 3.712-3.007 6.431l-4.369.622c-7.182-2.465-24.741-18.978-31.918-24.715-87.89-70.255-174.623-142.108-261.318-213.839-10.79-8.928-24.853-15.033-18.273-28.455m873.262-145.894c9.78-.485 11.56 5.462 6.98 13.195-15.34 25.941-30.95 51.718-46.66 77.438l-70.9 116.883-48.09 78.654c-8.4 13.894-27.11 45.858-36.54 57.378-3.41.043-3.55.084-6.58-1.334-4.57-5.699-.89-10.563 2.35-16.239 19.81-34.706 42.06-68.238 62.45-102.526a10619 10619 0 0 1 96.02-158.135c9.2-15.051 30.02-55.475 40.97-65.314M725.384 790.281c3.834.498 4.518 1.828 6.083 4.88-.457 5.39-3.443 8.376-8.952 9.505-12.152 2.49-24.349 4.699-36.509 7.19a4209 4209 0 0 1-116.679 21.792c-76.836 13.945-158.175 30.632-235.097 41.915-2.704-.473-4.902-2.162-5.721-4.839a6.95 6.95 0 0 1 .687-5.645c1.949-3.226 4.94-4.17 8.502-4.517 10.112-.984 20.126-2.787 30.126-4.532l90.374-16.2zM706.444 98.7c5.518.708 6.486 2.536 9.063 7.304 57.264 105.964 113.453 212.509 170.867 318.384 4.043 7.455 8.956 15.981 11.486 24.048-.152 2.572-1.665 3.99-3.265 6.118-1.882.012-7.812-.148-8.757-1.849-60.697-109.319-118.536-220.971-177.774-331.29-3.049-5.68-5.756-12.19-6.443-16.274 1.223-3.918 1.652-3.436 4.823-6.442M388.769 439.705c13.863.488 91.305 34.119 107.487 40.451l240.393 94.201c8.824 3.48 27.487 10.385 36.422 15.738l1.161 2.672c.048 4.011-1.027 5.333-2.974 8.734-6.62-.348-59.638-22.617-70.614-26.943l-168.43-66.072-86.721-34.106c-17-6.647-34.129-13.097-50.898-20.289-8.715-3.737-9.749-5.994-5.826-14.386m971.191 355.459c32.99 4.138 76.31 14.031 110.4 19.88l266.02 46.267c6.45 1.158 15.37 1.366 16.94 8.48-1.19 3.848-1.91 4.273-5.02 6.921-5.73.07-17.82-2.159-23.86-3.025-19.27-2.764-38.46-6.959-57.67-9.999-57-9.018-113.52-20.156-170.39-29.988-42.77-7.394-85.68-15.154-128.43-22.747-2.87-.51-8.4-2.486-10.4-4.448-2.19-2.138-1.87-2.865-2-5.457 1.32-3.347 1.56-3.7 4.41-5.884M821.347 82.867c3.459.024 4.036.143 7.357 1.134 4.089 3.798 19.597 51.659 22.69 60.638a5732 5732 0 0 0 63.26 173.386c14.12 37.081 30.027 74.127 40.596 112.393.748 2.707-1.822 5.721-3.351 7.667-10.02-.084-11.73-9.914-14.724-18.745-9.658-28.485-20.269-56.235-31.125-84.247a5749 5749 0 0 1-64.96-178.839c-7.096-20.294-16.107-44.623-21.727-65.632-.542-2.027 1.123-5.804 1.984-7.755m442.323-1.278c18.24 1.652 3.47 25.486-.17 35.185-3.56 9.465-7.46 18.769-11 28.294a6922 6922 0 0 1-71.56 187.931c-11.36 29.306-22.9 58.653-34.11 88.018-1.41 3.687-2.66 5.768-5.5 8.573-4.92-.944-4.15-.107-7.63-3.043-2.53-4.788-.34-10.622 1.6-15.444 42.94-106.757 82.48-214.821 123.87-322.177 1.24-3.216 1.88-4.96 4.5-7.338m-223.02-61.884c3.6.467 4.14.499 7.02 2.668 3.64 6.042 1.57 28.412 1.46 36.597l-.99 75.508a7246 7246 0 0 1-2.43 142.935c-.56 19.442-.85 39.296-1.93 58.742-.24 4.268-.92 4.302-3.43 7.327-3.65-.386-4.37-.372-7.55-2.144-2.91-10.376-.73-45.75-.5-58.264l2.28-108.016 1.18-95.55c.09-17.347-.06-35.099.4-52.457.07-2.628 2.72-5.292 4.49-7.346m453.26 407.198c20.88 8.33-12.38 23.184-19.9 27.576a2320 2320 0 0 0-42.57 25.076l-75.89 45.076c-21.63 13.109-46.26 28.956-68.32 40.507-3.53-.629-2.23-.118-5.06-2.686-2.53-5.765-.79-8.862 4.34-12.142 12.08-7.714 24.52-14.992 36.78-22.409a4915 4915 0 0 1 79.78-47.649c25.07-14.78 65.99-41.041 90.84-53.349M705.642 285.454c8.789 1.48 16.483 13.256 22.688 20.183l32.053 35.435c27.371 30.468 55.463 60.217 83.343 90.216 5.605 6.03 27.891 26.253 28.401 33.286-.994 3.033-3.067 3.945-5.786 5.846-8.551.027-18.049-13.032-23.985-19.336l-35.44-38.216a5079 5079 0 0 1-71.044-77.507c-6.862-7.693-33.969-36.072-34.606-43.404.849-3.459 1.709-3.871 4.376-6.503M672.331 742.51c7.861-.154 15.926-.456 23.775-.394 7.451.058 22.604-1.439 23.772 8.159-.612 1.47-1.367 3.689-2.656 4.686-4.642 3.594-176.819 1.328-198.722 1.392-11.915.09-33.643.878-44.884-.681-4.706-3.208-5.003-6.249-1.881-10.995 4.131-3.277 61.819-1.985 70.581-1.981q65.008.266 130.015-.186m880.459-157.166c6.53-1.522 9.98 2.911 7.88 8.936-6.93 7.048-32.03 11.634-42.8 14.556l-69.24 19.259c-31.52 8.495-81.04 23.388-111.86 29.554-5.41.29-8.91-4.181-7.37-9.574 3.64-4.635 41.26-13.503 48.64-15.482l78.69-20.966c28.32-7.533 68.86-20.431 96.06-26.283M1358.21 735.02c11.5-.573 29.85.752 41.79 1.176 25.86.78 51.71 1.708 77.57 2.784 34.87 1.328 69.63 2.148 104.53 2.462 6.96.062 20.08-.114 25.77 3.24 1.89 2.86 1.45 1.295 1.1 4.925-2.55 3.012-1.89 3.244-4.96 4.014-26.29.017-239.09-1.924-246.3-6.905-1.95-1.348-3-2.83-3.13-5.251-.15-2.724 1.87-4.656 3.63-6.445m15.91-443.519c4.62.717 6.19.871 7.9 5.419-.4 6.216-14.77 22.269-19.51 28.183l-37.81 46.798c-27.99 34.624-62.21 79.241-92.17 111.526-4.46-.884-5.99-1.791-7.83-5.876.1-3.615.55-4.527 2.81-7.509 13.03-17.13 27.27-33.919 41.05-50.457l55.48-67.243c12.7-15.305 37.74-48.712 50.08-60.841M611.154 437.597c5.1 1.103 21.697 12.127 27.295 15.526l46.828 28.072 77.553 46.345c7.687 4.692 37.732 21.253 40.055 27.88-.576 3.697-2.589 5.174-5.207 7.985l-.382-.045c-1.736-.193-3.104-.474-4.634-1.416-60.556-37.304-122.245-72.828-182.362-110.829-3.379-2.136-3.611-3.111-4.243-6.67 1.202-3.72 2.069-4.092 5.097-6.848M1405.3 847.835c9.18 1.383 52.14 20.547 64.11 25.528 40.37 16.786 81.49 33.797 121.73 51.015 5.22 2.237 9.89 3.545 11.85 8.658-.05 3.458-.91 4.181-2.87 7.25-7.26.13-31.35-10.898-39.8-14.347l-66.08-27.003a2248 2248 0 0 1-64.65-26.901c-8.87-3.896-34.04-11.011-24.29-24.2M542.626 585.984c10.683-.443 40.889 7.854 53.012 10.652l143.916 34.657c6.683 1.599 15.831 2.598 19.054 7.847-.02 3.923-.644 4.438-2.695 7.994-5.299.195-20.485-3.876-26.688-5.239-60.854-13.367-121.284-28.762-182.031-42.662-4.339-.993-4.604-1.303-6.641-4.861-.198-3.875.505-4.802 2.073-8.388m401.752-373.586c2.8.374 3.376.651 6.051 1.668 4.446 3.914 7.169 24.997 8.535 31.969a2013 2013 0 0 1 15.375 87.727c2.101 13.122 4.641 27.487 6.081 40.756.239 2.21-1.172 5.152-2.176 7.122-3.167.273-3.532.258-6.684-.245-3.189-2.819-3.296-4.219-4.102-8.545-7.561-40.899-14.136-81.966-21.581-122.888-1.854-10.189-7.181-29.054-1.499-37.564m184.462 3.034c3.2.869 3.61 1.139 6.35 3.026 1.89 4.21 1.38 5.211.57 9.864-8.86 50.768-20.02 101.116-30.17 151.611-.29 1.471-3.46 3.3-4.82 4.287-3.25-.563-3.34-.603-6.03-2.584-3.02-5.273 2.27-26.446 3.62-33.506 3.78-19.611 7.71-39.192 11.8-58.741 4.54-22.194 8.29-45.687 14.13-67.544.79-2.94 2.26-4.497 4.55-6.413M665.7 854.087c5.688.055 10.638 1.596 9.723 8.395-1.378 2.021-3.24 3.515-5.584 4.301-48.421 16.257-96.559 35.257-145.062 51.029-5.572.164-9.072-2.331-8.67-8.165 2.921-5.095 40.129-16.704 48.858-19.812zM927.711 58.958c6.301 1.722 7.783 2.448 8.567 9.321 4.224 37.068 8.578 74.168 12.643 111.242.411 3.745-1.614 5.708-4.104 8.133-3.514-.556-3.741-.568-6.862-2.175-5.864-7.369-12.239-102.779-14.621-118.602-.449-2.982 2.255-5.992 4.377-7.92m239.029 2.422c6.32 1.49 8.72 3.479 7.64 10.158-2.95 14.983-5.52 33.822-8.86 48.248-2.58 11.135-7.18 56.609-13.36 63.002-3.55.198-4.17.312-7.37-1.148-1.2-1.762-1.87-2.317-1.55-4.941 4.42-36.029 11.94-72.771 19.25-108.372.55-2.713 2.47-5.178 4.25-6.947M482.085 941c1.838.065 3.122.398 4.92.741 3.069 2.812 2.202 1.406 3.401 5.279-.188 1.274-.345 2.538-1.062 3.646-4.042 6.239-78.476 27.367-90.495 30.119l-2.346.372c-5.289-1.968-6.549-4.815-4.207-10.152 4.879-5.037 76.934-25.556 89.789-30.005m-79.718-384.266c13.424-.16 67.869 13.79 83.935 17.696 1.849.45 2.33 3.02 2.733 4.533-.744 3.842-2.094 5.062-4.523 8.024-23.241-3.018-57.793-12.058-81.04-18.263-2.91-.777-3.273-2.512-4.147-4.697.421-3.681.915-4.208 3.042-7.293m93.336-188.252c9.928 1.289 61.768 36.601 73.848 44.09 2.191 1.358 2.69 3.038 3.39 5.29-.586 3.736-1.92 4.699-4.427 7.57-9.694-2.789-58.138-34.832-70.107-41.58-3.94-2.222-5.724-4.038-6.537-8.411.55-3.678 1.239-4.021 3.833-6.959M1684.94 557.248c2.84-.074 2.82.159 5.15 1.637 1.97 4.008 1.91 2.447 1.05 6.236-6.99 8.56-59.94 17.521-74.92 20.954-4.52.032-5.11-1.561-7.05-4.94.02-12.86 64.27-21.567 75.77-23.887M375.816 747.535c8.332-.235 16.711-.518 25.046-.564 7.552-.041 25.467-1.057 18.469 11.757-6.88 5.11-22.973 2.996-32.081 2.656-7.235-.099-56.917 5.472-44.739-11.121 7.203-4.111 24.296-2.764 33.305-2.728M1597.84 363.843l4.11 1.594c2.18 3.099 1.65 1.648 1.87 5.56-3.66 9.911-48.9 31.23-60.51 36.759-2.73-.462-2.7-.676-4.82-2.333-.7-1.914-1.87-4.765-.59-6.549 7.55-10.513 49.35-30.299 59.94-35.031m78.12 380.65c10.29-.48 62.79-1.823 64.81 7.517-3.52 6.391-9.25 6.18-15.52 6.178-16.96.021-34.15-.086-51.12-.805-6.52-.277-11.89-.371-15.5-6.299.96-8.589 10.27-6.594 17.33-6.591m-219.72-541.928c4.26.701 5.27 1.213 6.83 5.293-.61 11.269-36.24 46.761-45.99 55.557-3.89-.439-2.89.186-5.79-1.863-.59-1.591-1.37-2.938-1.04-4.531 2.22-10.713 38.54-48.725 45.99-54.456m-823.812 3.946c11.247.4 44.754 41.109 50.898 52.142 1.261 2.265-2.578 6.873-3.97 8.541-1.781-.519-3.452-1.132-4.962-2.238-5.89-4.316-44.41-46.316-44.984-51.962-.277-2.724 1.402-4.481 3.018-6.483M1653.65 946.92c8.63-.257 53.76 11.762 57.67 21.087-.25 4.14-.14 2.825-2.62 6.731-8.05.759-43.75-10.701-52.54-15.014-3.28-1.607-4.84-3.133-5.81-6.599.45-3.42.82-3.553 3.3-6.205"/></svg>