<svg xmlns="http://www.w3.org/2000/svg" preserveAspectRatio="xMidYMid meet" viewBox="0 0 2048 2048"><path d="M1023.63 237.807c8.53-1.387 12.05.611 20.03.689 21.03.207 40.76.985 61.69 3.318a763.2 763.2 0 0 1 312.2 108.696c26.38 16.449 63.07 43.873 87.08 63.31 157.73 128.574 263.46 310.021 297.53 510.649 2.12 12.997 5.3 29.664 6.63 42.548-4.26 6.408.12 7.698 1.44 15.108 1.34 7.493-2.68 6.23-3.33 11.174.67.555 3.78 3.002 3.87 3.864 1.05 9.467-.06 20.147 1.89 29.507 1 4.77-.18 6.1-2.38 10.52 6.65 48.04-7.5 143.54-20.29 191.68a715.7 715.7 0 0 1-191.92 330.08c-10.95 10.73-35.55 35.96-47.89 43.12.65 4.22 1.56 8.43 2.33 12.63 5.59 30.27 8.44 60.92 15.04 91.01-5.48 4.12-11.37 8.33-16.68 12.64-27.65 22.45-58.61 38.69-89.36 56.06a950.2 950.2 0 0 1-190.59 82.76 878.77 878.77 0 0 1-594.048-34.94 1152 1152 0 0 1-127.765-64.65c-11.937-7.14-47.393-31.79-58.882-33.17-4.226-.51-7.479-.66-10.284-4.34-1.752-2.3-2.363-5.38-2.436-8.2-.309-11.94 2.894-24.89 4.975-36.61a3914 3914 0 0 1 13.194-69.28c-22.17-19.35-41.116-40.84-60.452-62.98a813.2 813.2 0 0 1-189.588-388.93c-6.034-30.79-9.294-64.47-10.165-95.87-.305-10.99.934-19.01-2.012-29.95l-.413-1.51-.077-.16c4.304-9.69 3.27-15.6 1.643-25.14.465-5.119 1.621-11.838 2.037-16.772 17.027-201.838 109.507-389.462 257.401-529.274a793.02 793.02 0 0 1 467.039-215.512c18.65-2.097 41.323-1.564 60.453-2.674z"/><path fill="#fefefe" d="m1021.8 266.816 2.05-.356c5.74 1.252 19.04 2.033 25.15 2.197 466.67 12.483 834.27 508.419 710.44 961.833a667.8 667.8 0 0 1-159.6 283.73c-17.27 18.55-37.09 39.06-57.34 54.28-3.76-13.79-5.78-30.17-8.42-44.55q-10.71-59.04-23.04-117.75c-7.86-38.23-14.34-84.58-38.87-116.07-16.24-20.84-43.41-33.02-62.45-50.44 27.2-35.68 54.73-119.86 63.28-164.36 3.18-16.55 1.22-31.88 8.5-46.51-4.47-12.2-.27-51.022-1.54-68.037-.99-13.392-3.25-26.418-5.14-39.69-.88-6.168-.99-12.426-1.92-18.582-2.16-14.266-6.3-28.908-10.3-42.762-27.96-96.848-80.48-184.136-159.71-247.485-12.2-9.749-24.68-20.937-38.35-28.49-19.11-77.352-73.86-127.471-145.95-156.583-66.18-26.722-139.443-29.765-205.568-.936-24.97 10.887-43.841 24.23-61.514 45.203-9.833 11.469-16.93 24.124-31.322 30.783-19.814 9.168-30.088 27.815-38.95 46.792-4.877 10.444-6.66 23.379-13.14 33.032-.359.512-15.915 10.657-17.825 11.998a462 462 0 0 0-33.745 26.128C621.925 701.517 561.653 811.65 548.674 936.18c-.955 9.163-5.646 46.704-2.822 53.309l3.486.311-.121 1.773c-.834.75-4.631 4.278-4.591 5.074.77 15.353 5.106 17.783.758 33.093 4.824 7.84 7.705 51.15 11.328 65.75 14.175 57.1 34.56 102.08 65.563 152.81-18.309 15.17-47.279 35.38-59.571 55.07-14.222 22.78-29.172 113.59-35.538 144.95l-24.694 121.31c-133.243-126.42-223.17-309.14-236.893-492.96-6.29-84.262 4.925-161.841 29.266-242.807A785.6 785.6 0 0 1 423.479 579.29a778.9 778.9 0 0 1 475.113-299.752c35.018-6.851 73.765-10.79 109.678-12.11 5.09-.187 8.32.278 13.53-.612"/><path fill="#c9cfcf" d="m1021.54 237.208 2.09.599c-.52 9.11-.75 19.575.22 28.653l-2.05.356c-1.3-8.151-1.04-21.37-.26-29.608"/><path fill="#fefefe" d="M909.269 630.72c8.939 4.824 32.209 24.7 44.686 32.339 40.491 24.793 80.925 47.149 123.795 67.548l-5.31 1.004c-5.77 1.057-12.19 2.065-12.45 9.469 3.28 8.301 14.02 7.812 21.37 6.869 34.74-4.457 66.44 7.571 98.24 19.829 6.38 2.457 16.94 6.137 22.59 9.204 2.65 6.757-2.88 40.691-4.53 50.271-7.28 42.295-12.79 86.713-25.27 127.78-1.48 4.887-11.37 22.865-14.49 26.852-10.21 13.032-27.99 25.095-41.54 35.075-21.82 15.64-67.71 41.89-94.33 43.44-32.885 1.93-97.674-37.69-121.211-60.498a78.8 78.8 0 0 1-16.947-23.685c-18.646-39.497-37.899-141.819-39.535-185.08-1.777-46.992 31.609-125.586 64.932-160.417"/><path d="M929.08 732.46c18.135-.185 37.895 2.491 55.142 7.941 8.303 2.994 5.428 15.632-2.532 14.387-20.404-3.191-38.281-4.2-58.922-3.006-11.332.885-44.517 11.687-49.143 9.961-2.606-2.212-2.4-2.071-3.275-5.408 3.194-19.644 43.348-22.873 58.73-23.875m-.551 36.967c9.964.025 38.54 2.808 38.389 18.227-.027 2.753-4.037 4.4-6.301 5.846a101 101 0 0 1-1.344 3.686c-6.854 17.546-15.552 22.336-33.047 14.909-13.428-11.162-2.871-21.322-9.31-27.247-9.044-2.049-14.148 9.902-23.557 7.483-12.809-15.15 26.171-22.307 35.17-22.904m167.921-1.262c13.75-1.77 52.44 4.346 51.58 22.349l-1.53 1.22c-6.49.845-18.49-7.245-27.05-10.705 6.41 10.578 6.99 11.433 2.52 23.303-8.19 13.757-23.4 14.848-33.57 2.274-6.87-8.494-.99-17.652-2.92-21.741-5.26-.342-12.31 9.653-17.39 1.024 2.1-7.989 21.02-15.029 28.36-17.724m-90.78 18.538c4.3-.056 5.5-.091 8.42 2.358 1.59 3.654 1.99 8.511 2.22 12.515 1.15 20.538 23.97 71.471 8.59 87.833-4.04.874-7.55 2.261-11.16.682-3.14-4.135.26-17.343.49-23.431.74-19.173-20.899-64.74-8.56-79.957m9.95 162.725c10.13-1.015 42.69-1.257 47.43 9.514-.3 4.223.42 2.416-2.13 5.666-5.56 2.908-29.57-.296-37.81-.648-12.9-1.993-40.771 5.4-49.555-2.054-.922-3.58-1.033-1.836.64-5.385 5.96-4.875 32.565-6.479 41.425-7.093m-17.644-54.298c12.814-1.066 14.164 5.293 27.314 6.614 9.88.994 15.33-4.072 23.93-3.128 3.21 2.02 2.17.674 3.49 3.954-.8 3.856-1.28 4.117-3.83 6.982-15.48 8.889-32.96 7.293-48.54-.841-2.917-1.525-4.573-3.752-5.346-6.925.338-3.82.635-3.749 2.982-6.656m1.916 80.066c9.988-.326 39.248-4.046 43.978 5.235-.39 4.145-.31 2.9-3.13 6.749-8.63.817-37.33 2.287-42.092-4.771-.515-4.554-.618-2.794 1.244-7.213"/><path fill="#fefefe" d="M759.681 621.87c2.221 2.094-3.841 39.763-4.561 45.278-8.924 68.368-3.785 151.772 22.897 216.04 11.393 27.442 29.79 54.799 56.013 69.894 8.898 5.122 18.602 8.597 28.076 12.481 5.38 20.254 18.984 38.597 34.599 52.257 2.327 12.08 1.581 23.04 1.25 35.26-9.393 6.12-20.63 12.33-30.38 18.4a3142 3142 0 0 0-59.579 38.69c-41.591 27.97-87.456 62.94-126.454 94.43-12.359 9.33-21.862 17.16-34.866 26.12-6.539-8.41-11.092-19.5-16.364-28.65-21.549-37.23-35.409-77.34-45.17-119.1-3.438-14.71-3.701-32.37-8.571-46.18 4.127-10.31-.211-7.69-1.417-16.37-.597-4.3-.252-12.81-.303-17.46-.248-22.826.895-45.763 3.83-68.4.509-3.888 0-7.927.61-11.789 1.352-8.568 4.441-16.793 6.336-25.233.558-2.452.057-8.754.39-10.059 3.262-12.772 8.196-27.732 12.265-40.151A460.4 460.4 0 0 1 759.681 621.87m515.439 7.551c15.65 6.562 46.28 41.407 57.72 54.015 120.32 132.577 150.43 328.094 76.62 491.054-7.83 17.3-13.97 31.87-25.81 46.85-12.09-8.4-25.01-18.23-37.14-26.93l-83.33-59.96c-16.93-12.1-35.2-24.85-52.27-36.77-16.98-11.85-46.73-38.39-63.55-47.13-.7-12.35.21-24.06-.23-36.36 19.12-16.633 29.41-30.863 38.09-54.73 70.82-19.268 89.17-116.99 94.8-179.536.82-9.087-4.92-21.972-4.12-32.365.97-12.787 2.41-25.847 3.17-38.605 1.58-26.576.26-53.245-3.95-79.533M924.706 1246.27c53.551 27.63 118.014 32.29 172.624 4.59-.98 14.87-4.28 30.37-6.2 45.36l-11.96 98.03-30.38 257.23c-5.27 45.38-11.05 88.69-15.51 134.31-1.33 24.79-6.32 62.8-9.42 87.28-13.87.82-25.056 1.41-38.954-.05-.172-17.81-6.606-64.22-9.147-83.35a4904 4904 0 0 1-11.661-99.24 9749 9749 0 0 1-27.976-301.32c-3.646-44.85-9.504-98.56-11.416-142.84m204.214-218.33c.52.48-1.05 54.14-2.56 57.67-12.15 28.27-16.86 76.46-21.47 105.2-29.02 18.01-44.85 25.69-79.07 28.26-29.421 1.75-58.969-5.19-84.062-20.75-15.865-9.83-21.426-5.95-22.146-26.72-2.593-49.79-5.56-92.32-4.068-142.18 22.137 19.58 60.978 40.6 89.656 46.76 39.4 8.46 91.54-26.7 123.72-48.24"/><path fill="#fefefe" d="M797.014 766.085c8.877-.202 19.38 7.395 27.901 11.836.684 20.75 4.761 48.755 7.91 69.537 2.134 14.089 6.687 29.582 8.893 44.412-3.855-2.035-7.779-4.371-11.574-6.55-24.077-15.079-42.484-48.701-49.69-75.363-5.038-18.64-5.507-38.317 16.56-43.872"/><path d="M792.579 783.559c4.082 1.376 5.69 2.87 9.253 5.421 5.944 12.184 14.708 34.831 18.576 48.519.334 1.183-.814 5.572-1.215 7.027-13.687-4.577-25.154-40.281-29.446-53.486-.968-2.979 1.283-5.278 2.832-7.481"/><path fill="#fefefe" d="M1252.98 759.807c9.49 4.544 11.06 19.773 10.04 29.008-3.67 33.394-27.17 71.756-51.88 93.496-1.72 1.264-3.05 2.04-4.89 3.134-.83-2.656 12.61-94.524 15.02-99.559 5.89-12.32 19.35-21.251 31.71-26.079"/><path d="M1243.87 782.623c2.56.585 3.04.842 5.51 1.76 9.2 10.757-13.34 46.595-22.31 54.993l-2.15.429c-2.01-1.127-2.74-1.234-3.21-3.693-.81-4.182 18.73-49.732 22.16-53.489"/><path fill="#fefefe" d="M693.911 1550.47c.791 7.93-3.129 37.72-4.21 47.29l-8.766 79.73-9.05 80.5c-.7 6-1.899 28.46-4.664 31.89-3.955 1.41-3.383.78-8.149-.01-1.769-.07-.879.17-2.6-.95-.651-6.24 4.777-52.56 5.727-61.37 4.552-38.73 8.662-77.52 12.33-116.34 1.627-17.13 3.946-37.62 4.572-54.66 5.015-2.35 8.919-3.12 14.81-6.08m227.32-344.98c4.406 2.24 9.77 6.24 14.492 8.73 15.516 8.18 33.111 15.16 50.288 18.76 40.179 8.47 82.079.81 116.659-21.32-.57 6.31-.87 8.61-2.34 14.84-2.11 6.32-11.91 10.24-17.79 12.78-46.06 19.83-95.012 16.69-140.611-2.82-21.508-9.21-19.006-7.95-20.698-30.97m436.709 337.37c6.67 6.51 29.21 216.87 33.48 246.73l-11.75 6.65-1.25-.38c.51-6.82 1.97-25.3.67-31.67-5.64-27.49-8.44-55.01-11.95-82.84-5.54-43.79-9.29-87.79-15.3-131.53-.24-1.78 4.76-5.74 6.1-6.96m-240.24-264.3 1.38 1.95c.49 26.56-8.64 78.99-12.35 106.23-3.67 26.93-6.19 69.6-11.79 94.64l-6.12 5.16-.55-.31c-1.82-7.28 14.76-129.77 16.94-146.13 1.74-13.03 4.15-38.22 6.37-52.36.86-5.5 1.78-6.17 6.12-9.18m-34.27 243.92c4.25.63 3.21-1.28 6.91.78-.14 22.74-8.48 62.31-12.48 85.59-.13 2.06.18 1.03-1.18 3.01l-1.4.08c-3.01-4.95 4.71-81.56 8.15-89.46m446.62 96.38c-1.12.76-1.87 1.08-3.07 1.69-1.83-1.88-2.86-15.53-3.64-20.03a1047 1047 0 0 0-8-42.01c-1.98-9.36-4.45-19.59-5.73-29.12-.33-2.47.88-3.02 2.39-4.44l1.45.49c2.08 14.01 5.47 27.97 8.31 41.85 3.27 15.96 4.41 35.48 9.98 50.55l-.21 5.36c-.13 3.94 2.73 16.76 3.27 21.42 1.59 13.64 5.29 32.31 6.02 45.79-6.03-18.43-8.04-41.84-13.88-63.13zm-394.26-477.98c.24.53.93 2.36.86 2.84-3.81 28.19-6.59 56.63-11.84 84.63l-2.55 2.85c-.66-.1-1.99-.63-2.68-.87-1.27-11.2 11.53-77.59 16.21-89.45m24.72-58.51c8.3 4.08 18.33 10.76 18.82 21.31.07 1.57 1.75 3.01 2.78 4.29l-1.61.15c-8.92-8.18-7.17-11.59-19.6-19.18l-1.6-.96zm340.13 641.15c2.27 1.44 2.68 1.97 2.93 4.35-2.93 3.71-11.83 7.58-16.5 9.98l-.33-.24c-.26-3.25.53-3.77 1.99-7.05 6.73-4.5 6.1-.79 11.91-7.04m-439.21-14.88 1.33 1.21c4.22 10.79 1.26 15.66-2.94 26.48l.11 1.18-.74-.38c-.69-7.61 1.48-20.14 2.24-28.49"/><path d="M1023.98 82.007c11.15 1.485 25.84.92 37.5 1.436a962 962 0 0 1 62.47 5.21c157.56 18.53 311.47 85.868 438.17 180.113a968.7 968.7 0 0 1 360.96 517.828c17.05 58.419 29.92 118.535 36.67 178.995 1.11 9.977-.95 16.819 1.36 26.847 3.45 15.024.84 34.484.8 50.044 1.71 24.08 1.03 46.44-.28 70.51-.55 10.2-3.42 19.54-.93 28.78-.11 5.25-5.11 18.37-5.12 22.75-.01 16.14-1.35 27.28-6.94 42.49-.7 1.92-1.41 12.59-2.16 16.34a785 785 0 0 1-12.07 49.22c-4.55 16.41-8.73 34.61-14.06 50.57-62.99 188.41-196.73 348.31-357.27 461.15a951.36 951.36 0 0 1-455.13 168.24c-26.98 2.39-57 4.67-84.12 4.16.87-10.62 1.09-18.7 1.17-29.28 3.36-1.99 32.79-1.63 38.64-1.84 85-3.05 167.33-21.35 248.4-46.38 4.36-1.39 8.57-2.44 12.89-4.06 319.94-120.38 583.73-408.34 606.74-758.6 1.59-24.2 2.33-48.83 4.01-72.55.72-10.19-5.39-14.09-.87-23.97 2.4-5.26-1.57-9.09-1.91-14.2.04-22.525-1.41-44.508-4.88-66.804a1011.3 1011.3 0 0 0-165.19-423.368c-125.49-187.689-354.35-343.257-575.8-386.922a851 851 0 0 0-96.26-14.135c-6.87-.547-13.79.664-20.09.124-118.487-10.162-237.233 17.951-346.989 61.778-95.064 37.961-181.392 89.602-260.273 155.41a969 969 0 0 0-310.43 460.248c-10.974 36.231-19.058 70.322-25.615 107.433-3.382 19.138-5.058 37.519-8.79 56.403l1.962 2.224c-2.006 12.544-2.285 22.201-5.253 34.875l2.498 2.076c.878 5.818-1.562 18.068-3.367 23.828 1.442 3.15 2.764 6.94 4.008 10.21l-3.907 9.08c4.624 25.59 1.653 52.38 6.603 78.23.872 4.56.443 10.45 1.075 15.35 17.536 135.95 68.458 265.18 143.755 379.4a906 906 0 0 0 69.084 91.85c4.71 5.58 30.592 32.95 32.092 36.45l-1.806 3.16c1.181-.41 3.646-1.38 4.379-.56 7.39 8.26 19.176 19.8 26.716 26.88 28.133 26.49 57.877 53.04 88.939 76.11 129.345 96.06 281.515 158.79 442.023 176.17 22.182 2.4 45.733 3.63 68.056 5.27 6.31.46 23.03-.62 27.65 1.6-1.08 6.4-1.06 22.1-1.03 29.09-20-1.53-40.674-1.25-59.706-2.78a938 938 0 0 1-159.248-26.1c-12.996-3.2-25.768-6.58-38.537-10.57-5.718-1.79-13.662-6.5-18.509-4.51-48.373-17.21-97.344-36.3-142.928-59.97-37.644-19.54-72.18-41.66-106.771-66.04-9.589-6.76-19.781-12.46-29.181-19.54-111.841-84.24-214.638-203.06-278.128-328.32-57.498-113.44-94.27-238.72-100.439-366.09-.303-6.26-.758-12.53-.526-18.8.178-4.82 1.425-10.93.782-15.63-.552-4.04-3.144-7.18-1.75-11.34 2.786-8.32 2.265-46.32 3.17-59.103a666 666 0 0 1 8.273-69.492 959.75 959.75 0 0 1 195.132-435.893c37.167-45.952 82.538-96.485 126.875-135.429A1016.35 1016.35 0 0 1 786.42 122.532c10.335-3.257 20.739-6.772 31.121-9.801 60.57-17.672 123.698-26.303 186.639-29.041 6.04-.263 11.68-.748 17.71-1.389 1.21 7.617.83 18.826 2.53 24.59l.38-.468c-.22-8.845-1.15-14.863-.82-24.416"/></svg>