<svg xmlns="http://www.w3.org/2000/svg" preserveAspectRatio="xMidYMid meet" viewBox="0 0 2048 1462"><path d="M757.388 71.017c15.887.04 18.008 13.84 21.253 26.045 33.73 13.719 16.594 32.865 1.909 54.286 10.753 11.058 19.308 31.723 26.659 45.631 13.65 25.825 38.982 86.542 55.641 106.652 5.452 6.58 71.074 43.035 81.128 48.324 17.802-11.01 29.191-30.972 48.448-36.902l.9-2.376-.515-1.485c-27.604-8.449-52.415-6.642-62.021-39.576-3.844-13.18-3.899-23.569-5.651-36.538-4.414-32.696-3.345-59.138 12.57-88.654 12.372-23.906 36.189-42.207 61.858-49.414 12.523-3.809 28.573-6.463 40.943-.65 8.27 3.89 5.37 5.77 15.67 4.911 41.19-3.434 64.44 47.381 73.18 80.766 6.45 25.112 13.83 49.375-.34 73.521-6.69 11.419-11.81 16.137-20.01 25.324-15.4 17.247-19.31 18.105-41.04 24.325 1.77 2.77 15.13 7.553 17.54 10.352 18.01 20.918 20.83 23.771 47.01 32.766 16.1 5.532 48.85 15.547 62.99 23.941 7.66 13.143 12.92 28.703 18.73 42.785 17.53 42.417 33.08 85.382 48.23 128.69 11.54 32.977 28.3 75.154 30.69 109.89 1.22 17.585-4.26 32.952-5.92 50.023-1.42 14.519 4.97 40.049-5.67 51.759-5 5.506-75.09 2.791-87.78 3.184-3.11 14.951-4.95 31.578-7.09 46.85 15.29 1.403 48.69 11.972 56.7 24.536 23.12 34.828 11.16 85.971-8.4 120.236-21.77 38.134-29.91 50.371-35.46 94.801 3.39 1.61 8.11 4.59 11.44 6.56 3.34-11.51 8.14-22.28 14.04-32.69 14.41-25.408 37.49-47.423 66.22-55.107 14.37-3.843 32.9-4.275 46.09 3.471 14.06 8.257 23.41 21.403 31.48 35.176 37.45 63.88 25.11 108.42 42.94 176.42 10.63-5.04 30.55-11.87 42.2-16.08 6.14-22.12 13.21-26 34.9-32.3-15.28-12.15-24.5-23.39-36.68-38.39-1.81-1.46-3.95-5.28-6.4-4.88-10.04 1.62-17.27-5.98-21.54-10.66 1.59-37.24 7.91-107.039 35.78-130.023 92.41-76.209 149.28 35.149 147.92 116.993-.35 21.12-2.21 20.55-20.44 20.37-5.76 4.07-30.9 35.86-38.13 43.66 19.54 5.32 31.22 9.89 37.32 30.58q14.745 4.725 29.7 8.7c-2.62-45.78-3.88-90.44-.72-136.22.74-10.67 4.53-27.73 3.42-37.604-5.19-4.929-17.46-.964-22.22-9.575-.33-4.312 1.65-6.187 3.78-10.503-.93-5.023-7.77-9.161-10.59-13.482-2.29-3.512-4.32-7.176-6.32-10.842 1.53-24.988-1.5-48.121-7.49-72.251-3.3-15.992-8.2-32.208-8.18-48.648.01-17.408 10.73-15.213 22.93-14.047 2.81-52.422 15.21-76.246 75.51-62.66 20.78 4.683 59.94 22.343 67.77 42.237 7.84 19.9-4.28 63.913-16.14 81.649-8.28 12.471-17.1 21.378-27.01 32.314-15.93 22.696-31.36 46.194-45.49 70.046-3.31 5.582 2.39 13.963-4.42 17.949-4.46.311-7.7-1.349-11.95-2.921-.49 13.798-2.58 28.968-3.77 42.868-3.88 45.26.55 89.32 1.96 134.49l14.46 5.43c13.31-4.23 26.73-8.15 40.22-11.75 7.31-20.88 11.02-23.43 31.29-30.88-3.28-4.11-32.9-44.4-32.9-44.4-2.16 1.82-2.37 2.08-4.93 3.17-10.6-1.78-16.48-7.6-23.9-14.89.55-7.87 2.61-30.14 2.2-37.13-1.33-22.99-6.25-45.39 3.03-68.193 5.93-14.562 16.29-19.72 29.91-25.284-.04-4.045-.09-11.062.66-14.873a28.92 28.92 0 0 1 12.48-18.729c30.81-20.274 108.04 19.923 129.42 46.917 11.84 17.065 12.45 41.222 11.42 61.342-.25 4.92-1.86 12.54 4.07 13.45 7.85-4.99 3.74-36.337 3.08-45.389-2.07-28.44-18.76-42.701-39.98-59.033.53-20.712-4.03-48.102 25.65-35.138 2.61-16.276 7.87-46.692 25.14-52.39 34.46-11.371 97.44 15.509 112.73 47.629 7.55 15.865-7.45 59.089-15.06 74.404-1.4 2.82-10.64 10.676-12.67 14.207-11.38 15.489-39.95 53.79-46.71 70.74l-.41 1.05c4.85 3.29 11.32 7.15 6.31 13.7-6.26 1.88-19.38-4.89-26.26-7.67-9.57 25.07-22.4 89.76-24.33 116.33 9.62 5.07 24.9 11.16 35.09 16.09 19.41 7.11 23.54 19.75 31.15 37.46 7.35 17.1 20.22 86.91 13.12 102.19-2.69 2.23-1.17 1.56-4.81 1.89-1.58-.88-3.58-1.76-3.59-3.95-.16-38.17-4.55-75.14-18.86-110.82-1.51-3.76-3.03-5.05-6.66-6.31-2.82 5.45-10.81 29.79-12.86 36.57-9.89 32.6-22.91 66.02-29.92 99.16-1.07 5.03-1.57 7.63-5.8 10.28-3.17-.29-1.87.34-4.05-1.93-4.9-15.52 37.95-128.29 44.22-152.34-14.92-7.13-37.63-17.6-52.79-22.82-14.49-4.99-76.71-23.9-89.48-17.69-.78 4.71.9 24.82 1.21 31.49 1.24 29.6 3.35 59.16 6.32 88.64 1.8 17.36 5.94 43.78 5.78 60.77-1.73 3.36-.45 2.21-4.03 3.53-7.26-1.82-5.95-10.45-6.74-17.1-6.66-55.94-10.46-111.01-12.24-167.32-27.94 5.79-54.24 14.25-81.51 22.47 6.81 3.48 16.93 10.73 24.66 15.15q1.035 1.785 1.89 3.66c8.32 18.26 17.35 152.83 2.69 158.3-1.76-.89-3.2-1.34-3.23-3.58-.2-18.11 4.2-146.38-12.41-150.88-7.71 4.39-36.44 104.35-41.82 118.31-1.6 4.14-1.59 7.14-6.36 7.3-1.23-1.07-1.58-1.11-2.1-2.76-3.85-12.46 32.05-111.79 40.69-129.06-21.25-18.34-66.96-26.37-93.84-35.24-14.69-4.85-33.02-5.75-48.48-4.65 4.97 59.39 12.02 119 15.85 178.54.27 4.15.44 6.09-2.37 9.39-5.33.69-7.62-5.82-8.04-10.25-5.59-58.88-9.08-118.31-14.74-177.15-16.51 2.59-111.05 30.83-117.64 44.44 3.09 7.66 39.07 16.06 49.33 35.28 14.36 27.18 20.27 60.71 24.27 91.01.93 7.05 3.59 16.12-3.04 20.17-8.77-2.61-7.5-31.68-10.19-40.35-7.19-23.16-8.15-53.28-25.41-71.32-10.12 29.57-18.27 60.08-27.21 90.03-2.88 9.63-3.81 29.77-13.3 35.22l-1.39-.62c-6.5-15.22 26.71-109.06 32.72-131.23-11.08-6.83-19.13-9.92-30.44-15.06-30.14-13.69-49.74-19.08-82.7-18.89 2.35 25.75 1.82 52.88 4.28 78.89 2.09 22.22 2.56 44.92 4.91 67.18.39 3.64-.32 9.49-4.33 10.53-8.02-4.49-6.33-14.68-6.77-22.44l-1.86-28.06-5.87-104.96c-23.62 2.1-48.32 8.85-70.74 16.42 6.36 20.67 27.8 118.39 23.57 136.08-.64 2.7-1.22 3.51-3.46 5.01-2.34-.57-4.61-1.1-5.21-4.11-8.2-40.78-11.14-118.01-34.87-151.47-.92 6.73-4.37 17.93-6.22 24.88-2.82 10.77-5.46 21.59-7.92 32.45-4.14 17.49-8.16 35.01-12.06 52.55-2.19 10.12-5.25 27.3-8.73 36.43-2.9 2.26-1.6 1.89-4.95 1.95l-1.77-1.78c-4.48-10.42 28.72-135.98 34.32-152.8-41.23-16.91-87.73-36.67-132.87-34.76 3.05 22.43 3.72 45.92 6.32 68.53 4.12 35.95 6.47 72.11 7.86 108.26.1 2.5-1.51 3.59-3.1 5.01-2.94.53-1.63.82-4.07-.87-4.34-7.21-5.95-55.75-6.84-67.73l-9.06-112.96c-45.05 11.95-74.015 18.93-117.154 39.29 10.925 44.87 25.323 89.29 36.967 133.97 2.507 9.62 11.282 29.48 4.47 37.12l-1.328-.18c-7.137-5.08-11.953-32.23-14.704-41.46a2792 2792 0 0 1-33.701-123.69c-5.438 4.71-7.932 7.85-11.834 13.79-15.605 32.29-17.6 65.48-16.612 101.04.22 7.93 3.237 20.03 1.041 27.14-2.668 2.49-1.451 2.03-4.741 2.54-11.444-6.49-6.666-84.04-2.441-97.12 1.527-4.72 7.361-28.07 6.895-29.36-5.624 4.43-31.409 105.51-38.46 110.88-3.994.26-2.629.75-5.414-1.39-5.352-16.19 38.095-106.2 32.812-115.63-16.03-10.87-49.233-19.9-67.77-27.64-4.567-1.91-37.996-2.03-44.997-2.01 2.431 30 2.449 63.63 4.453 94.48q1.379 21.12 3.194 42.21c.702 7.65 4.649 18.1-1.221 23.93-10.722-.39-9.565-41.14-10.194-50.62a2034 2034 0 0 1-5.239-109.19c-34.301 7.17-67.991 12.37-97.178 33.87 3.93 36.8 16.974 70.48 27.167 105.75 2.869 9.92 5.771 19.4 7.032 29.7-1.031 2.53-.813 1.81-3.281 3.73-1.466.07-2.116.44-3.339-.5-3.512-2.7-29.045-92.01-31.611-102.65-2.268-9.42-3.788-18.91-4.932-28.52-33.641 32.63-29.869 67.52-24.697 110.2.764 6.31 5.866 27.47-1.643 30.2-6.969-2.99-7.932-20.71-8.954-27.68-10.566-72-1.534-108.76 64.455-146.93-19.204-8.52-34.562-12.41-53.016-19.03-38.016-13.63-54.304-21.2-95.073-20.76 2.199 35.31 3.962 74.02 7.318 108.99q1.895 19.8 4.124 39.57c1.365 11.4 3.694 22.91 2.975 34.3-2.32 2.84-.891 2.04-4.3 2.72-.719-.43-1.001-.54-1.583-1.05-10.155-8.92-16.549-158.98-17.861-182.63-22.775.29-92.205 24.91-114.289 35.24 6.868 15.78 12.022 46.42 17.488 64.32 4.021 15.72 8.686 31.38 12.556 47.14 1.733 7.05 11.999 30.41 4.183 34.26-1.459-.29-4.805-1.31-5.274-2.98-12.867-45.71-26.061-92.08-35.814-138.54-6.527 7.51-14.915 19.05-18.402 28.55-12.996 35.38-7.818 78.27-4.305 115.03 1.007 10.54 3.645 21.82 3.836 32.32.046 2.52-1.155 2.86-3.029 4.45-3.432.45-1.895.83-4.74-1.27-3.668-5.96-7.47-43.25-8.387-52.6-3.264-33.27-5.652-76.38 9.138-107.25 4.915-10.25 13.785-20.73 21.027-29.52-29.431-8.16-75.646-22.01-105.597-18.8.056 14.28 1.826 33.32 2.792 47.85 1.737 27.12 3.616 54.22 5.637 81.31 1.115 14.34 2.685 33.14 3.007 47.77.04 1.79-1.676 2.61-2.972 3.56-5.367.06-6.869-5.26-7.21-10.05-4.007-56.38-9.335-113.63-10.18-170.16-37.539 3.8-92.018 20.83-125.103 38.88 8.947 19.49 41.22 114.73 39.605 132.22-.258 2.8-.638 3.55-2.814 5.19-1.313-.16-4.604-1.05-5.008-2.45-12.346-42.81-21.026-90.68-40.779-130.83-34.071 36.47-24.102 92.49-19.903 137.5.694 7.45 5.975 26.25-2.578 29.4-1.056-.49-1.756-.98-2.413-1.96-9.729-14.57-11.654-99-8.487-118.88a109.3 109.3 0 0 1 10.422-31.63c19.031-38.05 54.979-36.78 89.959-54.92 11.208-5.81 4.058-13.77 13.233-21.35 6.452-5.34 19.435-4.34 26.164-9.16-.233-1.6-9.89-9.58-11.952-11.15-13.298-10.12-17.614-26.16-27.346-38.97-3.102-4.22-9.915-2.82-13.889-6.05-7.622-7.57-9.868-22.34-4.218-31.65.386-1.56 6.559-7.38 6.391-8-8.321-30.45-26.293-60.581-3.961-90.644 19.607-25.208 51.108-28.705 79.558-35.785 33.358-8.3 78.149-22.875 83.409 26.746 35.479 26.731 14.063 69.803 8.016 104.273 3.528 2.27 6.859 5.09 10.146 7.72q.613 2.595 1.113 5.19c4.503 23.41-10.706 29.76-25.303 33.31-1.641.4-9.48 16.52-12.316 19.82-7.021 8.16-15.738 16.43-21.826 25.46 21.233 4.47 23.76 2.78 31.013 23.88 17.717 4.7 37.571 9.32 54.749 15.1 20.397-6.49 41.457-14.24 61.836-21.2.529-4.25 1.51-9.38 2.21-13.69 9.079-8.22 16.163-10.03 27.525-13.58-4.519-6.04-31.164-42.49-34.661-43-13.427-1.95-38.133-8.82-21.288-38.42-5.162-15.54-11.932-26.65-12.767-43.92-1.761-36.437 4.613-54.075 36.747-70.26.801-18.254 11.891-28.236 29.582-29.618 46.766-3.653 124.491 41.004 124.822 92.916.139 21.822 3.092 61.592-8.445 80.192-5.171 8.33-13.448 2.58-18.109-2.56-8.241 14.93-18.706 36.68-25.636 52.37 12.844 2.84 17.576 4.69 27.015 13.7l1.539 10.87 53.612 19.46c-11.338-46.34-14.859-95.89-13.82-143.44.189-8.66 3.824-34.595 1.264-40.987-2.89-1.723-5.572-.789-9.113-.275-2.537-2.544-2.832-9.895-4.241-13.706-7.621-20.608-22.683-31.985-39.014-45.706-5.298-17.741-24.168-81.004-23.257-95.177 10.842-6.423 11.106-5.424 21.832-3.405 3.441-3.3 3.682-26.815 4.731-33.27 1.83-11.257 5.432-23.108 15.2-29.995 13.481-9.505 37.455-7.023 53.137-4.475 21.509 3.494 52.607 14.278 65.71 32.927 6.747 9.604 6.966 21.634 7.116 32.947.967 73.17-44.657 78.993-66.398 132.459-2.205 5.422-5.068 11.232-6.074 17.008 4.505 2.813 9.458 3.369 10.552 9.047-3.741 7.614-13.206.782-18.285 4.646-1.985 14.042-1.585 30.832-1.963 45.142-1.181 44.69 2.435 96.64 14.543 140.03 11.385 4.39 20.696 6.98 28.672 16.39 4.855-1.33 11.163-2.27 13.625-6.52-.23-15.44 9.331-17.8 21.275-24.77-16.965-11.11-27.738-19.52-38.415-37.59-8.059.57-15.523-1.79-19.278-9.21-5.744-11.34 2.369-35.1 5.422-46.42 11.532-41.5 25.606-79.05 64.146-102.454 27.913-20.72 78.949-4.679 93.724 26.74 14.071 29.924 33.109 87.314 26.384 121.304-1.594 8.06-19.745 15.34-26.615 20.67-9.797 7.6-19.208 16.79-30.166 22.71 9.755 3.39 13.544 4.2 21.042 10.97l1.738 13.5a164 164 0 0 0 29.378 12.1 1671 1671 0 0 1 6.496-43.26c1.731-17.77 11.624-44.05 9.248-61.7-4.135-30.72-14.339-67.78-27.405-96.043-6.805-14.718-19.141-25.097-26.216-39.731-9.008-18.632-20.379-42.024-19.213-62.874.7-9.208 18.308-4.123 23.412-2.317.029-28.202 1.118-50.943 19.064-74.361-.584-11.71-3.111-27.067-4.743-38.954l-6.435-8.118c-21.771-27.207-47.957-54.554-71.833-80.11-.873-.935-7.173-1.299-8.875-1.49-2.141-14.097-1.82-38.334-1.71-52.963 5.028-.366 10.648-.265 15.736-.394 43.115-1.089 86.597-3.453 129.697-3.968.809-39.642 1.037-79.294.684-118.943-24.683-25.314-49.012-44.215-74.637-72.564-7.655 6.045-24.996 19.389-33.381 23.673-20.562 10.505-33.298 20.977-51.648 34.911.729 50.987 5.04 102.26 6.807 153.139 1.885 54.245 6.149 103.866 14.275 157.416a819 819 0 0 0 19.168 94.676c3.277 12.16 10.196 30.96 11.016 43.377.115 1.744-1.174 2.174-2.85 3.532-7.092.109-8.77-9.687-10.449-15.392-32.453-110.223-40.49-224.927-43.83-339.188-.879-30.063-3.903-60.311-4.439-90.404-17.442 12.739-28.775 20.868-47.672 32.612l4.504 147.806a1644 1644 0 0 1 1.462 52.303c.134 8.937 1.621 12.09-.157 21.074-2.692 1.925-1.238 1.572-4.505 1.107-5.301-5.554-4.903-17.591-5.079-25.049-1.503-63.86-6.135-128.846-6.242-192.644-10.605 4.599-22.916 9.619-34.46 10.662-3.62.327-8.6.196-11.373-2.559-1.698-1.687-2.472-3.619-2.322-6.004 1.558-24.715 103.747-98.448 126.786-116.314 15.725-12.195 30.966-25.125 46.602-37.465-4.268-4.265-17.388-16.606-19.866-20.809-12.763-21.659-21.179-45.579-29.092-69.253-8.727-26.105-17.846-51.477-25.391-77.98-3.312-11.635-7.969-24.018-11.085-35.797-.726-2.746 1.42-5.562 3.004-7.936l.714-1.059c.796-7.156-12.347-16.5-14.92-26.382-3.247-12.47-16.308-38.434-9.901-51.003 5.371-10.537 34.698-19.692 46.21-23.12 5.005-1.413 7.709-.205 15.348-2.9z"/><path fill="#fff" d="M1115.82 676.555c15.23-.361 30.01-.792 45.26-.536-1.94 14.34-3.06 32.579-4.37 47.29-2.33 27.424-5 54.819-8 82.178-49.47 13.463-42.69 41.871-36.65 85.366-6.54-.316-11.31-1.354-16.25 3.011-3.47 5.987-.72 13.066.82 20.013 41.24 32.152 80.65 43.236 63.52 107.313-1.05-1.08-2.38-2.45-3.98-4.11-2.15-10.51.63-21.976-1.56-32.64-4.81-23.308-33.55-41.823-51.87-54.975-20.96-15.052-49.92-29.127-76.27-23.009-20.04 4.654-26.482 14.445-20.96 34.619-48.964 15.318-40.055 45.557-33.729 88.565.294 2 4.201 19.75 3.797 20.38-7.317 11.31-7.491 20.64 1.555 31.08 4.54 5.41 9.779 6.14 17.295 2.32 3.667 6.2 7.392 12.27 11.762 18 9.37 12.28 16.24 16.94 22.18 31.18-23.57 8.59-23.03 7.88-31.206 31.35l-15.411 5.63c-28.922 11.91-59.897 17.99-76.351 46.24-9.02-8.11-17.905-13.36-29.781-16.45l8.552-61.52c5.001-36.47 6.717-49.43.852-85.89 7.985-1.93 32.107 3.16 34.134-5.08-4.476-8.01-11.068-6.88-19.206-7 4.9-10.37 14.131-37.15 19.158-44.103 30.477-42.171 63.463-81.434 53.398-137.553-6.342-35.367-82.531-57.84-111.613-51.233-2.637-28.455-8.312-56.881-11.288-85.317-1.329-12.697-3.029-25.326-4.861-37.96 18.262-1.812 54.074-1.473 74.261-1.984l96.212-2.637c32.84-.634 67.97-.743 100.6-2.538m-99.27-546.305c4.78 3.089 17.28 20.98 21.86 25.956 8.51 9.259 51.37 53.487 59.63 54.592 4.41-1.61 5.57-4.51 9.21-8.298 13.58-.539 7.15 30.066-.52 35.255-4.74 3.207-6.84 2.084-12.05 1.446-12.55 7.473-5.14 55.183-56.56 62.494-16.08 3.051-36.2 1.832-50.925-5.791-10.449-5.41-17.039-19.277-21.79-29.304-3.093-6.529-2.93-13.53-6.141-19.876-6.396-.462-11.38-1.109-16.638-4.358-8.012-4.952-8.283-17.693-1.582-23.391 3.482-2.961 8.823 3.788 13.431 4.771 4.923-2.389 9.532-12.668 11.908-18.021 12.6-28.391 31.555-50.749 50.167-75.475"/><path d="M1031.63 253.577c5.17-.523 11.67-1.918 14.81 3.474 5.93 10.227-3.92 24.549-13.27 29.206-7.11 3.535-11.78 3.294-18.98 1.012-7.77-4.222-18.949-18.166-12.34-28.587 3.38-5.338 22.26-4.424 29.78-5.105"/><path fill="#fff" d="M1019.95 264.552c5.63-.459 11.83-.667 17.52-.98-2.39 9.933-2.56 11.1-11.85 15.512-7.57.453-19.24-7.294-15.05-13.898 3.22-.48 6.14-.513 9.38-.634"/><path d="M1015.78 219.423c10.97 1.013 14.19 11.736 6.58 20.02-12.01.536-13.68-12.11-6.58-20.02m-24.267-39.374c2.811-.372 3.561-.176 6.417.182 2.97 2.061 2.21.727 2.79 3.851-2.354 5.119-10.505 5.563-16.152 8.433-3.146 2.674-3.096 2.954-6.88 2.203l-1.03-1.885c.806-8.102 8.35-10.433 14.855-12.784m44.767-4.034c4.8-.281 9.61.079 14.31 1.071 4.43.954 5.59 1.397 7.81 4.816-.54 3.455-.11 2.185-2.45 5.049-7.59-2.135-16.62-.947-20.89-5.087-.58-3.289-.41-2.238 1.22-5.849m12.13 28.432c10.21 1.324 11.39 8.049 5.47 15.745-2.38-.176-2.63-.385-4.81-1.189-4.58-4.695-4.61-9.368-.66-14.556m-59.189 5.501a6.139 6.139 0 1 1 5.009 11.209 6.139 6.139 0 0 1-5.009-11.209"/><path fill="#fff" d="M1201.6 629.425c4.34-.464 17.53-.168 22.41-.164a1094 1094 0 0 1 1.3 34.827l-430.063 10.553c-9.431.361-17.87.299-27.312.135l.096-32.719c62.209.385 131.538-4.029 194.089-5.512l172.12-5.168c21.87-.788 45.84-.375 67.36-1.952m-126.58-308.744c11.68 5.31 26.9 32.68 34.09 44.353-6.46 11.552-17.67 24.159-25.11 36.806 6.86 14.495 12.57 28.871 19.79 43.718-9.51 25.97-15.4 54.649-21.17 81.661-5.58 26.048-10.82 52.062-13.99 78.536-.85 5.994-2.12 12.184-3.24 18.153-7.32-.023-15.62.375-23.01.579-.9-36.838-3.75-73.87-4.74-110.727-.34-12.389 7.34-31.915 10.36-44.621 8.71-36.691 19.22-72.508 23.53-110.124 1.61-13.767 3.98-23.927 3.49-38.334m-89.534 8.077 1.209 1.763c-2.729 32.375 16.295 82.199 23.105 114.409 4.01 18.953 13.8 40.19 16.95 59.485 2.39 14.692 2.31 32.466 2.89 47.368q1.605 36.53 2.55 73.084c-6.43.626-11.44.891-17.9 1.012-2.41-6.46-5.33-20.446-7.03-27.705-10.477-38.015-30.886-110.78-50.007-143.595 7.314-13.308 15.922-34.967 21.314-49.331-7.142-10.739-19.426-22.432-28.485-31.972a240 240 0 0 1 35.404-44.518m183.624 718.182c13.81.91 27.14 8.17 38.04 16.19-2.92 12.98-6.88 34.99-4.13 47.71 5.01 23.23 37.28 46.04 56.52 58.37-10.62 3.78-16.24 5.61-23.26 14.31-3.67 6.71-4.08 9.56-5.11 16.97l-12.59 5.12c-1.69-2.85-4.15-6.82-5.96-9.46-7.86-11.48-32.9-22.63-46.48-24.8-.76-45.82-.08-79.05 2.97-124.41m669.02-3.52c10.14 2.3 19.01 5.93 28.87 9.09-8.8 19.84-14.75 58.12-19.89 80.03-2.01 8.56-2.55 28.2-6.34 35.05-1.65.27-18.6-4.99-21.68-5.7-2.8-4.11-5.92-8.02-8.97-11.95-15.61-14.64-24.08-17.1-43.73-24.15 3.49.12 13.34 1.75 15.69.69 9.95-4.52 18.21-36.1 24.96-40.42 5.82 1.86 7.34 16.25 16.71-.71 7.34-13.27 10.56-27.44 14.38-41.93M1205.06 674.5c7.17-.551 13.49-.348 20.64-.201 12.56 24.406 29.77 49.062 42.76 73.829l-33.16.153c-11.45.73-28.31.394-39.53-.156-4.22-20.705-17.11-51.188-24.2-72.464 11.16-.481 22.33-.868 33.49-1.161M751.807 440.067c4.469 5.677-1.542 10.543 13.894 24.958-28.94 24.023-78.418 61.124-113.671 72.235-3.541.713-9.246 1.308-12.986 1.82 6.583-6.817 11.791-14.082 19.33-21.406 27.895-27.097 61.578-55.274 93.433-77.607m250.563-67.376c20.17 6.683 37.18 5.998 57.13-.215-3.83 24.675-12.76 63.016-19.6 87.079-2.5 9.141-4.73 18.998-6.98 28.253-10.95-40.071-21.4-74.213-30.55-115.117m154.95 672.809c1.95 1.62 1.94 1.88 1.88 4.1-.51 18.96-2.63 37.8-3.58 56.77-.99 19.77-.01 39.65-.97 59.37-5.16-1.65-11.51-3.15-16.83-4.55-3.06-7.92-3.56-9.64-8.75-16.34-9.73-7.85-12.83-8.96-24.55-12.75.25-4.15.69-8.5 1.04-12.66 8.71-9.65 16.38-26.04 21.91-37.93 5.18.82 9.04 2.15 13.75-.77 11.62-7.22 5.04-28.96 16.1-35.24M829.935 381.905c10.925.52 24.055 13.822 20.07 20.845-9.254 16.308-51.729 43.764-66.344 53.168-18.042 6.458-29.381-18.214-8.46-33.758 18.134-13.474 33.718-29.691 54.734-40.255m224.925-73.682c3.37 3.959 2.58 11.945 2.62 17.454a46 46 0 0 0 2.28 2.977c5.93 7.251 1.54 22.942.32 31.793-21.07 7.292-31.63 9.039-53.87 2.554-9.29-3.244-8.779-15.893-9.571-24.454l6.441-9.719c.3-4.897.12-11.588.13-16.622 15.73 3.78 36.58 1.55 51.65-3.983m335.13 820.637c2.58 2.77 11.27 47.86 12.88 54.94-4.14 2.08-8.27 4.04-12.3 6.33-5.06 2.87-9.92 9.45-15.81 9.12-3.6-3.52-3.81-10.18-4.62-15.4-9.55-16.31-26.33-13.91-29.43-19.59.99-2.1 2.76-3.82 4.71-5.02 16.51-10.19 29.45-17.96 44.57-30.38M774.466 106.428c30.157 1.757-1.264 36.191-6.272 47.811l-.233.551a592 592 0 0 1-38.401 13.132c-4.946-9.82-11.112-13.302-15.214-22.105-1.291-3.771-2.324-4.426-1.015-7.312 6.2-3.319 13.662-2.964 20.74-4.919 4.693-1.296 7.897-4.138 11.16-4.895 3.406 3.166.833 7.857 4.923 12.851 3.17.629 1.671.823 4.627-.752 3.925-7.193-5.514-9.947 7.013-21.407 3.3 3.302 6.648 7.101 10.945 8.616 3.553-.63 2.08.108 4.716-2.005.471-3.838-2.953-8.451-5.094-12.033-.3-3.678.3-4.313 2.105-7.533m53.967 577.048c3.19-.709 4.497-.167 6.924 1.665 1.565 7.517 2.053 18.62 2.873 26.556a1305 1305 0 0 0 5.399 42.493c-7.569-7.678-14.574-16.038-21.437-24.339-6.203-7.058-35.906-38.815-38.74-43.281 2.357-2.022 38.771-2.662 44.981-3.094m354.437-239.73c1.09.509 4.23 2.025 4.28 2.963 2.84 55.984 2.37 113.318 3.7 169.604.04 1.748-3 2.936-4.42 3.782l-3.46-2.017c-2.03-2.987-5.5-154.297-5.07-170.653 1.77-3.08.97-2.066 4.97-3.679"/><path fill="#fff" d="M1292.62 1173.36c12.32-2.35 71.84.15 67.6 20.33-1.42.22-42.72-6.03-48.39-6.56-26.83.42-44.1 3.73-70.32 10.9l5.26-11.09c12.61-8.57 30.84-11.63 45.85-13.58m-123.27-471.571c2.49 2.484 16.15 43.103 15.62 46.917-2.48 18.075-6 36.89-8.64 55.076-2.81.452-13.5.241-16.89.242 2.81-33.456 6.8-68.577 9.91-102.235m65.38-64.331c8.72 6.351 34.71 64.944 42.11 78.261 1.18 2.119.7 17.388.29 21.158l-.29 1.431-1.37-.031c-4.57-5.276-35.9-59.024-38.79-68.036-1.97-6.113-1.9-24.971-1.95-32.783M775.414 1163.36c10.54-.74 33.633.47 43.026 5.73 5.44 3.05 5.225 4.65 6.964 10.54-14.147-2.19-33.316-2.82-47.65-2.22-16.481.48-31.462 4.56-47.603 7.18-.567-.29-1.134-.59-1.701-.89-.697-12.61 36.458-19.09 46.964-20.34m279.296-26c7.09-.5 14.2-.68 21.31-.55 19.79.51 35.26 5.47 48.81 19.73-15.4-5.29-29.02-6.56-45.06-7.62-29.03-.7-41.49 2.04-69.17 10.52 1.18-3.96 2.42-6.39 4.17-10.07 12.46-6.78 25.97-10.15 39.94-12.01m452.84-2.92c5.95-.12 11.89-.17 17.84-.15 22.46.29 34.4 3.83 49.7 19.5-14.66-3.23-24.84-5.75-39.84-6.57-14.01-.63-32.96 1.63-46.78 4.72-6.64 1.49-12.42 4.05-19.93 5.5l-1.12-1.04c3.7-12.64 28.23-16.63 39.17-21.52zm-1203.315 11.11c7.628.43 49.199 5.56 47.831 15.01-2.558 1.32-7.368.02-10.79-.49-17.541-2.62-32.831-3.81-50.51-2.68-9.353 1.24-42.035 7.72-46.799 6.63l-.499-1.46c3.728-12.45 48.217-16.62 60.767-17.01m1439.645-10.16c2.79.32 4.36-.42 6.57-.22 19.2 1.81 34.86 6.71 48.73 20.53-18.94-4.54-34.21-7.92-53.69-8.87-3.79-1.14-45.61 10.71-52.28 12.6 11.78-16.71 31.28-19.91 50.67-24.04m-1202.919-.99c2.757.35 7.449-.1 10.766.05 11.909.56 34.873 2.93 44.549 10.76 1.307 3.23 1.455 2.28.924 5.25-11.075-2.04-36.044-6.83-46.236-5.67-14.161.6-28.244 2.41-42.1 5.39-5.512 1.19-12.53 3.9-17.255 4.4l-.84-1.56c2.753-10.42 40.355-16.92 50.192-18.62M898.13 414.414c8.597 4.615 7.07 9.416 6.82 18.435-.55 19.852-.211 39.654-.745 59.503-2.413-.222-5.411-3.808-7.64-5.854.179-23.56-.138-48.752 1.565-72.084M738.734 83.57c1.352-.032 5.343-.143 5.677.655 3.024 7.232 8.407 26.904 4.56 33.149-6.102-4.756-10.188-17.655-11.821-25.057-.997-4.515-.584-5.08 1.584-8.746M725.42 89.73c3.081 4.133 9.806 27.725 8.073 32.668l-3.524 1.077c-3.394-5.768-11.557-21.888-9.879-29.031.711-3.03 2.884-3.481 5.33-4.714m28.61-7.686c16.081-1.722 16.096 12.148 10.465 23.209l-1.71 2.021-1.121-.023c-2.871-4.176-6.169-19.393-7.634-25.207m-47.64 15.24 2.56 1.337c2.217 5.647 9.286 24.133 8.361 29.231-11.547-6.366-16.601-18.304-10.921-30.568m403.57 157.801 1.02 1.363c-1.07 8.977-6.86 12.537-14.3 16.412l-.65-.629c-.41-5.677 1.8-11.847 7.3-14.298q3.3-1.46 6.63-2.848m-168.279 7.174c4.117 1.15 7.696.706 10.76 3.461 1.65 3.449.68 7.065.202 11.053-3.525.539-5.23.208-8.031-1.67-2.526-3.491-2.502-8.448-2.931-12.844"/><path d="M1381.89 765.384c18.33-1.925 39.22 3.504 55.5 10.145 44.1 18.615 46.11 33.214 40.55 78.386-4.04 32.887-21.78 47.188-37.66 74.848-5.46 9.523-10.4 18.606-15.12 28.478 4.42 3.224 7.36 4.405 7.76 10.186l-1.68 1.764c-7.78 2.351-26.86-2.239-38.65-2.425l6.2 58.984c.38 9.41 1.84 21.64 2.74 31.16-16.29-39.73-16.75-45.66-17.72-89.981-10.54.755-28.74 7.197-34.98-2.001.4-3.648 1.78-4.153 4.49-7.361.09-4.83-2.31-13.235-3.5-18.156a358 358 0 0 0-11-37.561c-5.3-14.938-11.08-29.839-16.09-44.866-6.65-19.973-2.26-23.154 17.23-22.903.89-18.335-4.47-37.321 8.62-54.394 8.17-10.654 20.77-12.916 33.31-14.303m-930.249 18.044c28.845.597 74.897 11.394 89.676 39.512 11.127 21.17 2.193 53.599-5.046 75.359a81 81 0 0 0-2.979-.447c-21.878-2.874-44.389-2.514-58.869 17.177-2.839 3.862-2.788 11.152-5.348 13.652-4.389 4.287-12.345 7.981-17.274 11.958-13.745 11.09-18.614 33.765-20.661 50.248-1.8 14.483 3.679 29.053 3.858 42.623.433 32.74.617 68.24-3.242 100.7-1.039 6.7-2.539 19.72-5.947 24.98l-1.286-.59c-3.36-9.95-.238-36.86.197-48.75.533-16.16.914-32.31 1.142-48.47.088-18.19-1.28-35.9-2.75-53.98-7.195 1.41-19.92 4.3-25.804-1.74l.178-1.51c3.343-4.13 7.974-4.937 12.824-5.936-6.113-20.147-9.736-47.768-15.278-69.73-4.59-22.256-12.975-43.916-16.973-66.187-1.598-8.898 17.382-8.161 22.279-8.119 1.154-16.927 2.202-45.287 13.757-57.73 11.088-11.941 22.766-12.013 37.546-13.02m-263.134 42.977a54 54 0 0 1 4.975-.206c23.898.121 59.968 8.096 77.586 25.351 14.067 13.778 11.746 39.399 11.492 58.209-28.346 8.626-55.942 10.051-77.25 35.429-15.187 18.088-16.177 40.211-12.323 62.502 1.106 6.4 9.642 25.04 6.171 29.17-4.42 1.06-9.278-.35-13.845-1.24-10.505 42.17-9.303 66.13-3.814 110.14.469 2.56.787 5.13.954 7.72.216 3.62-.233 7.72-2.731 10.49l-1.883.06c-7.376-5.03-6.794-17.81-7.731-26.29-3.82-34.58-5.773-67.8 4.518-101.43-7.925 1.56-25.084 6.45-30.655.15-.268-3.63-.702-2.04 1.108-4.98 3.942-2.44 8.819-2.67 13.547-3.37-6.84-17.99-12.746-43.909-19.332-63.02-5.034-18.097-12.688-35.846-17.438-53.954-4.251-16.208 14.932-16.744 25.255-11.326-3.769-18.358-5.938-44.552 6.858-60.034 9.124-11.039 21.189-12.334 34.538-13.371"/></svg>