<svg xmlns="http://www.w3.org/2000/svg" preserveAspectRatio="xMidYMid meet" viewBox="0 0 2048 1462"><path d="M1017.09 361.912c17.22.325 18.17 17.041 27.89 20.079 7.55-7.367.28-34.878 31.65-9.008 4.76 3.924 6.78 7.685 10.02 12.72 19.62 1.503 17.29 8.874 22.07 24.764 1.37 4.544 6.02 8.077 7.23 13.406 1.89 8.256 2.8 16.608 3.96 24.978a424 424 0 0 0 6.8 38.273c7.36 31.327 22.01 65.837 37.86 93.889 4.67 8.268 16.21 17.805 22.17 26.395 31.95 46.099 65.66 90.985 97.98 136.855 12.68 17.945 24.97 36.619 38.1 54.146 41.51-11.815 83.57-29.483 127.4-41.695-24.64-25.735-31.15-49.045-35.37-82.727-21.16-12.955-27.75-30.7-3.34-45.909-.62-9.174.38-25.004.72-34.677-19.05-29.227-32.12-58.838-14.37-92.773a74.9 74.9 0 0 1 23.53-26.661c18.46-12.973 37.01-13.464 55.19-23.921 18.41-10.588 29.12-30.398 51.63-36.463 11.6-3.126 19.43-3.628 31.15-2.615 38.92 3.365 53.47 33.406 84.44 49.949 15.93 8.51 35.57 7.151 51.49 16.135 14.59 8.229 24.78 20.07 30.77 35.472 14.58 37.504 4.32 58.809-10.61 92.82-3 6.836-6.95 18.989-6.83 26.402.29 17.815 15.09 32.663 19.49 50.3 8.31 33.332-13.29 47.982-32.86 69.383-1.95 2.132-6.31 10.104-7.92 13.032 44.07 34.77 61.01 97.101 80.16 146.709.85-2.08 3.28-18.836 3.93-22.528 2.75-16.306 5.56-32.75 7.68-49.137 4.05-31.227 6.41-65.546 37.57-82.564 21.76-11.89 53.25-8.725 76.51-2.083 8.12-2.732 16.79-5.057 25.37-5.659 14.25-1.002 29.49 3.31 40.28 12.889 8.61 7.639 16.26 21.393 13.32 33.156-1.17 4.664-3.84 9.207-4.63 13.906-.8 4.772 1.68 10.607 1.69 15.47 0 3.693-3.7 6.523-4.39 10.017-1.57 8.048.62 23.189-4.82 29.078.98 16.767-3.75 29.985-5.98 46.248a2752 2752 0 0 1-20.32 133.387l-2.57-.74-.82.78c.4 2.36.71 4.74 1.12 7.1 1.2 6.96-8.79 58.32-10.44 69.47-1.1 7.49-1.17 15.12-2.16 22.63-2.72 20.52-6.19 40.99-9.29 61.45-2 13.22-3.54 26.47-7.1 39.38 16.63 2.16 80.19-1.48 88.83 1.9 6.08 5.39 3.45 13.21-6.24 13.25-18.01.06-37.68-.3-55.6-.39l-141.51.48-352.18-.17c-56.51-.02-119.38 1.72-175.49.11l-777.089-.06-252.061.16c-55.129.14-110.55.16-165.684-.54-3.986-.05-11.237-.94-14.586-3.37-1.335-.96-1.003-1.91-1.257-3.97 6.523-15.93 85.605-.73 98.349-9.15.993-5.08-1.386-5.84-2.336-12.05l-13.884-90.86-40.115-252.843 1.712-2.33c-7.066-14.423-6.06-39.509-9.85-55.298-7.935-33.057-16.412-64.603 24.886-77.684 16.377-5.188 33.425-1.468 48.178 6.498a70 70 0 0 1 2.104-.949c37.162-15.882 87.776-9.31 104.706 31.769 17.431-33.339 41.673-68.161 57.174-100.959a891 891 0 0 0 27.428-65.085c19.719-53.435 38.217-119.749 91.402-150.225 45.297-25.956 86.288-26.877 136.653-22.841 91.566 7.338 139.729 83.504 107.922 169.36-1.864 5.03-1.943 6.906 2.292 10.062 18.134 13.513 15.03 30.142-4.427 39.632-1.435 25.238-8.142 55.443-24.403 75.017-4.916 5.917-10.279 9.597-13.349 13.625 1.248 1.845 2.787 2.688 5.005 3.292 41.415 11.277 82.606 24.965 124.009 36.12 5.015-7.983 14.224-19.401 20.013-27.676l53.018-75.951a4488 4488 0 0 1 47.789-68.48c5.596-7.908 10.737-16.634 16.955-24.044 3.04-3.622 4.863-3.243 9.559-4.318 21.962-38.761 42.981-81.265 53.619-125.194 2.78-11.481-4.527-43 1.599-53.219 6.826-4.233 12.325 3.411 11.449-10.441-.463-7.325-.6-15.824 4.661-21.542 7.249-3.18 10.529.527 15.529 5.537.91-10.986-.57-22.518 9.87-28.681"/><path fill="#fefefe" d="M919.553 614.819c23.661 15.114 58.806 53.305 81.477 67.154-3.506 5.242-6.329 11.13-9.493 16.611-12.946 22.422-25.935 44.723-38.599 67.31a7482 7482 0 0 1-61.876 106.018c-20.112 33.879-68.737 120.831-115.585 119.299-52.698-1.725-112.967-18.723-165.926-25.612-12.529-1.63-48.408-15.551-57.089-6.698-.353 5.68 5.593 39.735 6.951 48.479a2673 2673 0 0 0 32.636 177.53c4.43 20.4 7.044 37.18 12.562 58.01-14.936 1.27-40.399.05-56.25.24-42.858.5-86.43-.64-129.206.78-9.226.3-20.264-1.17-29.386-.35-19.636-1.27-45.636.39-65.769-.05-10.146-.22-37.136-.73-45.676 1 1.721-8.91 2.683-18.87 4.085-28l8.463-51.93c5.708-36.41 12.732-77.73 16.858-114.16 11.8-5.77 23.245-11.35 33.003-20.72 50.482-48.492 74.261-135.032 90.208-201.574 5.119-17.541 10.556-48.005 20.55-62.753 8.646-12.758 49.007-15.995 63.631-15.444 71.832 2.703 141.581 29.815 210.466 48.277 17.154 4.598 34.833 12.161 52.346 14.275 4.302.44 34.087-44.255 38.363-50.313a8912 8912 0 0 0 67.415-96.718c11.559-16.589 23.478-34.902 35.841-50.661"/><path fill="#fefefe" d="M1045.12 598.624c1.81 2.579 3.06 5.557 4.65 8.28 11.2 19.192 23.1 38.261 36.37 56.071-3.73 5.204-15.4 14.589-12.78 21.446 3.53 9.25 9.72 18.808 14.76 27.431l37.42 62.534 60.82 101.977c75.33 125.587 97.6 152.637 246.91 110.359-4.09 10.508-7.03 20.878-9.27 31.818-1.63 5.62-2.21 21.3-5.04 25.85-20.91 33.63-40.34 68.59-60.81 102.43-18.68 2.86-127.7-2.58-134.06 2.58-2.94 2.39-3.12 7.71-3.57 11.16-7.72 3.91-106.31-24.29-122.41-17.82-2.62 1.05-6.11 2-8.93 3.17 5.3-26.87 12.76-54.7 19.16-81.36l31.88-131.48c1.55-5.606 5.39-16.882 2.89-21.814-4.79-6.894-20.8-5.805-28.11-6.782-12.74-1.701-23.38-1.812-35.64-1.669-10.37.12-22.15-3.972-32.89-3.557-10.4.403-11.91 3.747-14.86 12.864-4.77 18.291-8.59 36.81-12.96 55.191l-25.78 107.307c-3.546 15.3-8.408 40.85-13.04 54.58-7.277-.34-16.318-.08-23.584-.15-14.539-.14-7.462-3.55-13.744-10.13-6.346-3.47-29.149-1.05-37.868-1.13l-67.034-.61c-10.074-.03-27.793-.55-37.175 1.21-6.759-5.99-12.84-12.15-19.135-18.69-26.847-27.92-55.97-54.32-81.525-83.37-2.684-3.05-7.467-16.575-9.16-20.964 34.744 4.844 72.811 19.704 107.687 6.434 36.781-13.994 61.071-48.454 81.37-80.344 11.991-18.838 23.633-37.861 34.948-57.303l59.629-103.475c13.969-24.767 33.081-54.379 45.091-79.58-3.08-4.981-9.79-10.852-14.17-15.137 14.92-22.5 25.83-44.521 39.96-67.327M114.491 760.219a139 139 0 0 1 7.36-.394c22.942-.472 47.545 17.005 51.961 40.091 5.92 30.942 10.058 62.091 15.076 93.19l28.984 171.934 19.867 116.51c1.977 11.29 9.72 52.2 9.872 61.39-1.891 1.4-1.711 1.75-4.949.92-10.89-2.81-49.382 3-56.764-2.2-3.07-5.23-9.808-60.39-11.891-72.11-.891-5.01-4.167-14.67-4.191-19.05-.004-.8 1.539-2.24 1.624-3.1.297-2.98-5.891-35.03-6.921-40.55-.323-1.73-3.947-11.87-3.745-12.25.763-1.43 1.523-.84 1.986-2.98-1.409-.78-1.795-.95-3.292-1.41l-1.266-.38c.993-.68 1.441-.94 2.542-1.55l1.079-.58c-.096-4.61-2.715-5.72-3.2-9.51-.792-6.18.073-12.77-.882-18.99-.631-8.5-5.228-18.91-5.805-27.14-.554-7.9-1.836-8.65-3.443-15.71l-.164-.75-2.082.26-.5-.87 2.492-1.75c.948-4.64-.182-12.45-.451-17.351-.188-3.424-2.609-8.387-2.826-11.122-1.377-17.374-5.179-33.473-7.442-50.695-1.255-9.548-2.224-21.733-4.697-31.579l-3.067-2.861c.374-6.6-.198-16.312-1.036-22.619-1.075-11.408-4.559-22.888-5.894-34.16-1.432-12.102-3.056-23.471-5.211-35.479-2.529-14.088-3.254-28.979-7.443-42.781l-.375-1.211c.917-2.234 1.6-1.82 4.694-3.163M1905.75 963.324c-.95 3.162-5.44 32.285-4.91 34.691l2.77.519.29 1.359-3.4 1.477c-1.38 3.56-2.03 6.47-2.44 10.36l1.46 3.3c-2.57 8.32-5.27 15.23-3.94 24.27l1.81-.89.24 1.17-2.86 1.94c-1.53 3.75.63 7.83.75 13.51-2.15.99-2.29.97-4.18 2.55-1.07 8.49-2.67 18.92-3.25 27.32 1.61 1.97 1.85 2.05 2.74 4.53-3.98 6.06-6.58 10.86-5.88 18.36l2.99-.44.71.63c-1.07 1.49-6.4 8.92-6.62 10.11-1.81 9.83-1.72 20.27-3.75 30.16.62 1 2.36 2.15 1.81 3.57-1.39 3.77-3.65 7.66-4.21 11.68-2.51 17.89-5.33 35.71-8.15 53.55-.16 1.03.87 3.79 1.28 4.86l.26.66c-6.32 8.31-1.41 15.91-5.3 20.24-8.16 1.24-25.49 1.18-33.96.64-5.56-4.25-13.03-77.77-13.32-89.1-.19-7.19 5.54-36.15 7.03-45.2l12.32-76.84 27.79-166.865c3.24-19.134 5.65-38.334 8.81-57.559 2.58-15.646 7.63-25.226 20-35.77 14.58-12.422 27.69-12.043 45.67-10.398-4.57 17.822-12.29 63.637-12.13 81.478-7.48 11.016-2.52 38.374-7.35 44.315-4.06 4.988-1.95 12.577-1.48 18.711-2.77 3.938-4.08 5.306-2.87 9.959 1.68.266 2 .246 3.56.903l-.71 1.55-2.5-.12c-2.16 5.336-6.26 21.394-5.04 27.163-2.64 3.679-3.42 12.78-4.04 17.647"/><path fill="#fefefe" d="M707.197 1050.53c6.901 4.53 21.903 20.7 28.538 27.33l44 43.53c3.037 3.04 10.803 10.7 14.751 11.17 11.232 1.32 26.477.41 37.903.41l97.535.09c.752 21.62 1.438 82.37 1.076 108.16-.015 1.03-1.636 1.09-3.011 1.42-21.364.81-45.573.18-67.178.24-48.091.24-96.183.23-144.274-.05-2.477-11.92-.944-25.55-1.819-38.24-3.533-51.28-4.861-102.7-7.521-154.06m-68.672-530.837c21.368 20.496 27.835 67.906 30.727 96.278 1.617 15.863-6.019 15.387 12.657 22.383l.642.992c11.106 17.34-9.587 14.937-11.182 21.805-2.164 9.323-4.251 24.953-7.43 35.16a233 233 0 0 1-4.008.012c-34.528-.226-34.121-24.08-45.843-24.172-7.417 6.276 5.636 18.131 10.39 22.181 11.328 9.651 22.58 11.557 36.753 12.54-9.526 24.348-14.055 31.354-34.496 47.229-10.324-3.903-25.692-7.322-36.521-9.92-27.564-7.956-62.273-10.413-90.829-10.571 13.297-21.253 21.414-44.244 28.498-68.114-6.348-4.1-10.958-7.388-17.418-12.429-19.202-14.982-22.711-46.576 8.465-48.522 7.66-.478 13.375 4.034 18.781 9.739 12.017-2.218 16.332-5.159 26.903-10.669 35.644-18.578 55.993-49.45 73.911-83.922"/><path d="M626.608 566.268c10.734.92 26.574 4.634 29.441 17.017-1.384 6.704-7.353 6.518-13.303 6.657-8.278-.969-35.653-5.058-32.027-17.695 4.442-4.793 9.546-4.98 15.889-5.979m1.958 37.765c8.365-.527 26.285 1.107 23.126 13.535-3.036 1.638-1.44 1.271-4.989.996-2.689-2.144-4.102-3.209-7.309-4.441-7.764-.42-20.817 4.414-25.686 1.265l.134-2.055c4.567-6.133 7.658-6.734 14.724-9.3m-120.519 10.353c4.589 3.229 18.797 17.903 21.251 23.203-.186 3.476-.193 2.443-2.862 5.751-5.822-3.006-18.889-16.487-21.683-22.938.439-3.927.113-2.558 3.294-6.016"/><path fill="#fefefe" d="M1448.39 536.617c.36.347 9.49 26.64 11.02 30.412-8.66 3.391-31.38 11.991-29.34 23.495 6.93 12.182 28.79-1.408 41.05-4.744 18.43 20.239 63.6 45.746 91.89 33.144 6.76-3.012 11.37-7.222 19.21-9.885l1.19-.391c.77.348 1.46.683 2.23 1.039l1.23.564c13.46 6.255 18.97 20.653 12.07 34.131-6.52 12.715-15.03 18.36-28.11 22.727 17.71 36.417 21.58 39.493 49.47 69.712-19.06-4.383-25.3-3.877-45.17-4.013-39.11.183-69.85 8.102-106.87 19.029-17.23-10.469-25.1-23.677-33.23-41.339 17.23.705 41.54-11.564 47.09-31.399.57-2.034-1.93-4.532-3.3-6.073-.68-.179-1.37-.357-2.05-.535-11.01 8.478-15.5 21.309-30.66 25.792-5.91 1.748-10.38 1.627-14.51-.479-4.37-8.407-1.71-20.937-3.43-29.581-1.32-6.617-17.05-8.429-18.9-17.724-3.9-9.225 14.64-11.532 14.58-16.101-.52-37.242 5.01-64.257 24.54-97.781"/><path d="M1450.87 604.164c10.25-1.585 24.82 1.593 21.28 14.942-2.57 2.614-1.2 1.965-4.93 2.281-3.29-1.203-3.94-2.766-6-5.7l-.77-1.116c-11.89-1.727-9.53 11.639-17.32 10.108-4.88-8.884 1.29-15.344 7.74-20.515m131.87 18.385c17.4 4.869-2.07 20.274-8.87 24.75-3.5-.114-4.1-.312-6.34-2.767-.24-6.331 10.49-16.603 15.21-21.983"/><path fill="#fefefe" d="M1067.64 383.579c.5.631 1.15 1.17 1.51 1.891 3.71 7.452-48.47 102.532-44.57 114.792.61 1.896 1.15 1.908 2.83 2.676 12.68-5.052 54.59-92.012 65.18-97.637 1.72 12.546-44.97 96.648-42.11 107.218 2.89 2.238 1.31 1.767 4.88 1.57 8.47-7.791 25.72-40.646 33.3-52.441 5.68-8.835 9.11-14.076 15.95-22.792-13.8 41.509-42.86 101.629-64.89 139.696-13.88 27.024-30.12 52.967-45.845 78.995-21.416-17.245-41.807-36.144-63.158-53.593 11.719-19.514 30.137-49.193 37.496-70.841 17.604-51.785 32.037-95.491 62.497-142.216-2.7 13.084-28.83 81.431-24.58 88.757 7.42-.554 13-16.977 16.82-23.051 13.49-21.485 25.74-54.322 43.84-72.195zm-9.92 547.781c21.1 1.73 45.19 2.04 66.74 3.147-3 23.047-11.43 49.244-17.07 75.033-10.38 46.61-20.93 93.67-33.95 139.55-.38 1.31-21.59 13.22-24.75 15.37a155.8 155.8 0 0 0-27.28 24.12c-11.88 14.72-14.2 20.74-23.792 35.99-2.694 1.43-2.242.91-5.833.68-2.011-3.93 3.915-22.7 5.086-27.78l13.569-60.01c11.65-49.17 22.79-98.47 33.43-147.872 4.42-19.626 9.83-38.285 13.85-58.228m790.45-169.923c11.61-1.142 22.46.404 33.73 2.875-17.67 21.075-20 33.384-23.7 60.303-2.13 15.438-5.14 32.263-7.77 47.701a14960 14960 0 0 0-29.26 173.434c-1.78 11.6-7.09 57.07-10.57 64.84-5.57-30.7-8.76-62.88-15.98-93.78-3.63-15.53-7.17-31.234-10.95-46.71-1.7-6.975-7.39-25.767-7.23-31.496.99-26.666 7.24-53.484 11.44-79.84 6.89-43.191 3.01-94.195 60.29-97.327M1106.1 1156.19c7.97-.91 104.79 17.33 114.18 20.97-.01 17.49 1.33 47.63-.53 63.56-13.87.54-29.95 1.71-43.97.38-6.97-.67-2.72-10.84-5.82-12.92-14.3-9.58-50.96-4.13-66.42-2.89-9.86.8-19.66 3.56-25.56 2.74l.07-1.24c10.29-8.36 48.12-20.1 62.07-21.35 3.16-.29 16.6.08 21.22.03l1.04-2.06-1.07-1.86c-12.75-6.23-13.39-5.22-27.54-5.65-23.87-.33-48.97 6.62-68.79 20.03-9.26 6.25-17.65 13.46-27.77 18.25l-.56.26 2.56-5.04c9.31-17.98 33.02-40.96 52.72-47.99 4.18-1.49 4.05-1.83 5.67-4.99l-.61-1.18c-14.49-4.48-50.78 20.83-59.46 32.5-5.27 7.08-10.59 15.14-16.38 21.86-1.49 1.73-2.17 1.13-4.48 1.03l-.9-1.27c11.35-37.86 53.84-63.9 90.33-73.17m2.64-685.386c1.9 1.989 7.99 32.285 9.83 37.89 10.06 30.622 22.87 64.871 41.31 91.315-19.17 15.886-37.55 32.522-56.46 48.127-2.48 2.217-3.2 2.784-6.08 4.431-7.75-2.773-37.98-58.602-43.94-67.978 21.12-41.853 38.36-68.248 55.34-113.785M565.29 971.293c7.087 1.761 31.383 4.671 33.129 7.527 21.987 35.97 27.787 146.83 29.929 182.01l4.735 71.42c.355 1.74.829 9.54 1.001 11.73-6.35.05-11.473-.06-17.809-.46-16.725-80.51-34.423-161.23-46.266-242.63-1.438-9.881-4.661-19.666-4.719-29.597m921.66-.265c.28 1.586-12.78 52.432-13.97 60.012-8.81 56.29-13.06 111.74-16.54 168.55-.72 11.86-3.78 30.81-1.8 41.38l.22 1.14c-2.8 3.16-9.52.96-14.17 1.38-1.9 0-7.94.4-8.15-3.09-.22-10.71 1.39-21.45 1.94-32.29 2.18-43.24 1.05-86.36 1.53-129.6.13-11.28-2.05-29.14-.6-39.4 2.13-15.09 9.29-41.019 15.64-54.39 5-4.769 27.42-10.693 35.9-13.692M220.03 1015.78c1.854 1.92 5.588 8.13 7.653 10.6 20.124 24.11 35.918 24.54 63.554 28.13 1.961 2.81-20.802 145.24-23.583 162.17-1.03 7.11-1.771 22.21-6.721 26.31l-1.769-.93c-.822-7.66-2.359-14.39-3.63-21.88-11.559-68.08-23.602-136.38-35.504-204.4m-35.269-255.479c31.616-3.991 61.876 7.494 71.839 39.935-15.367 29.39-34.013 66.208-42.55 98.456-2.848 7.588-6.259 19.998-8.767 28.058-6.323-30.951-9.083-64.221-14.913-95.495-5.225-28.029-2.445-43.963-23.196-66.324 7.297-2.58 9.98-3.475 17.587-4.63m476.936 230.325c1.793.252 7.811 1.104 8.7 2.023 4.533 4.967 6.409 13.011 8.883 18.951 13.093 31.42 13.619 56.7 15.395 90.13l4.475 89.77c.594 13.36.624 32.79 1.857 45.56l.083.8c1.169 1.48.662.9.943 3.28-3.322 2.74-12.773 2.61-17.467 2.9-4.51-49.28-3.832-103.06-7.387-152.66-1.209-16.87-.562-38.95-3.358-55.06-2.134-12.29-8.271-33.61-12.124-45.694m887.613-41.584 1.55.902c-3.12 28.402-10.2 59.046-14.97 87.476-.94 8.25-6.84 21.32-7.29 28.89-2.13 35.49-14.19 65.63-23.23 99.64-6.44 24.23-9.27 51.47-18.42 75-1.35 3.48-8.71 3.18-11.59 1l.04-2.25c7.18-12.25 52.99-209.3 52.67-228.53-.05-3.08 3.58-4.19 4.45-6.67 1.14-3.25 1.03-8.734 1.48-12.256 1.63-12.682 2.85-26.286 6.17-38.619 1.99-2.228 6.19-3.438 9.14-4.583M956.158 1144.57c2.934 1.29 14.632.24 18.715.26 2.129 4.7-13.801 67.66-15.806 75.93-3.086-.25-9.672-.6-11.909-2.48-1.078-10.4-1.543-61.71-.582-71.86 1.339-1.06 6.749-1.01 9.582-1.85"/><path d="M1259.88 204.311c3.85 1.272 5.17 1.524 7.38 4.683 2.28 9.605-32.42 60.129-36.84 72.214-.42 1.145-3.09 3.193-4.21 3.873-3.26-1.37-3.61-1.72-6.44-3.934-.86-1.887-1.93-3.297-1.15-5.323 4.71-12.205 34.31-66.944 41.26-71.513m-247.53-90.792c9.42.949 10.8 5.91 10.46 15.298-.55 15.099 6.21 53.813.81 66.372-.89.426-1.95 1.031-2.95 1.175-2.09.302-4.56-.218-6.04-1.79-4.25-4.511-5.55-61.348-5.62-70.792-.03-4.802-.07-6.797 3.34-10.263M734.797 286.617c3.596.007 5.485.705 8.287 2.961 8.327 6.704 47.683 41.211 48.854 48.818-.729 3.232-2.711 4.375-5.293 6.631-6.531.308-54.389-45.272-55.792-51.469.739-4.254.794-3.261 3.944-6.941m106.61-122.798c2.61.061 3.591.268 6.172.767 5.876 4.391 26.745 54.793 29.848 64.542.842 2.643-1.597 4.839-3.273 7.044-4.429.883-5.385.442-8.546-1.497-5.91-9.261-22.169-50.334-26.376-62.548-1.011-2.938.326-5.836 2.175-8.308m177.063 57.987c3.41.709 5.39.738 7.88 3.121 3.05 8.123 3.38 56.261 4.11 68.559.12 2.021-3.97 4.38-5.93 5.804-2.12-.643-4.28-1.155-5.93-2.722-3.03-2.876-4-55.395-3.97-63.039.01-5.297-.07-7.841 3.84-11.723m-131.1 40.906 5.727.464c6.201 4.079 24.34 47.94 26.956 57.321 1.867 6.696 1.436 6.516-1.465 11.825-3.48-.046-4.3.117-7.507-1.01-5.759-8.574-21.844-49.735-26.698-61.515-.905-2.196 1.66-5.14 2.987-7.085m418.2 94.361c3.08.175 3.21.273 6.05 1.582.95 1.429 2.39 3.015 1.76 4.66-4.25 11.012-37.68 38.213-46.55 45.19-1.88-.256-3.4-.651-5.25-1.075-2.9-2.865-2.16-1.434-2.87-5.364 2.22-8.606 38.48-38.866 46.86-44.993m28.07 142.786c3.29.055 3.88.502 7.02 1.787 2.38 2.758 1.82 1.404 2.31 4.981-3.09 9.372-37.78 26.457-48.38 32.426-2.91.222-3.3-.021-6.17-.836-2.59-2.856-1.82-1.53-2.62-5.386 2.72-9.982 36.67-26.079 47.84-32.972m-87.4-88.1c2.95-.001 2.98.037 5.86.802 2.44 2.628 1.88 1.328 2.37 4.78-2.36 8.299-36.17 37.843-44.01 42.98-5.13-.401-6.62-1.337-7.67-6.279 2.24-9.761 34.05-34.526 43.45-42.283M658.862 220.585c7.635.265 49.214 30.083 51.81 37.463-.412 4.13.242 2.6-2.483 5.76-1.867.402-5.452 1.233-7.015.222-10.28-6.652-40.8-25.932-44.585-36.093-.139-3.765.214-3.985 2.273-7.352m95.633 330.988c6.751.1 51.26 10.605 54.369 15.694.607 3.707-.398 5.353-1.716 8.898-10.791-.258-33.543-7.379-44.971-10.003-4.621-1.061-8.321-2.437-10.514-6.524.1-3.881.809-4.68 2.832-8.065m42.351-92.607c8.144 2.406 31.22 15.233 39.483 19.952 4.305 2.459 4.909 3.592 5.735 7.608-.585 3.252-1.911 3.937-4.478 6.35-6.857-1.073-36.077-16.14-41.996-21.273-2.79-2.418-3.335-3.498-3.62-6.974 1.597-4.079.686-2.605 4.876-5.663m26.967-89.38c.343.171 1.17.543 1.51.928 8.431 9.565 18.452 18.123 26.338 28.094l.192 3.277c-1.4 3.373-3.329 3.889-6.636 5.673-6.975-4.58-28.958-24.728-27.819-33.283 1.84-3.109 2.879-3.166 6.415-4.689M702.39 405.595c6.76.052 30.642 10.352 33.681 17.84.072 3.558-.222 3.976-2.139 7.01-8.294-.309-31.841-10.325-34.896-18.418.598-3.89.617-2.887 3.354-6.432m493-96.896c2.16.314 3.36.924 5.35 1.734 5.5 7.005-3.23 18.631-8.48 23.703-2.62-.852-3.09-1.233-5.46-2.717-4.87-8.391 2.73-16.668 8.59-22.72"/></svg>