<svg xmlns="http://www.w3.org/2000/svg" preserveAspectRatio="xMidYMid meet" viewBox="0 0 2048 1152"><path d="M903.103 43.494c3.697.704 45.653-.485 52.353-.543a9909 9909 0 0 1 118.814.345c210.47 2.52 432.53 7.53 639.03 54.471 34.73 8.888 71.76 19.357 101.58 39.569 37.07 25.138 22.4 78.995 11.51 114.591-42.11 137.603-113.19 293.863-201.81 407.811a159 159 0 0 1 7.18-2.626c20.26-6.885 58.88-9.834 78.79-.052 11.11 5.46 14.62 12.009 18.14 22.86 30.05-4.167 55.22 4.265 75.08 27.352-8.83-21.185-15.8-40.323-15.41-63.545.12-7.187-1.81-18.356 5.15-22.686 7.1-1.466 14.29 5.909 19.41 10.155 18.76 15.547 31.17 31.491 42.23 52.992.99-8.394 2.05-12.966 4.15-21.19-17.24-23.09-31.33-42.847-30.1-73.136 2.22-54.733 13.92-46.072 40-9.325l.17-.649a119.1 119.1 0 0 1 25.4-47.26c2.54-2.885 4.49-4.892 8.45-5.125 14.8 5.699 11 46.917 7.78 59.979 16.52-14.32 45.93-30.956 68.41-32.236 3.54-.201 3.4.292 5.79 2.356 3.83 8.927-17.7 49.374-22.8 59.917a1278.8 1278.8 0 0 1-250.98 348.456c-57.21 57.175-150.64 131.835-231.39 142.175-33.07 4.23-85.82 2.8-120.93 2.77l-214.6-1.02-358.1.14q-55.29 0-110.578.57c-47.138.41-100.604 4.6-144.663-10.25-69.597-23.47-131.674-74.12-183.642-124.376a1253.9 1253.9 0 0 1-251.72-336.906c-10.048-19.28-25.201-49.064-32.002-68.711-12.666-36.587 61.43 9.624 70.316 13.915 1.354-4.538-2.716-12.707-2.358-17.466.5-6.636-.114-50.223 15.133-36.62 15.689 13.997 27.776 33.497 30.451 54.526 4.503-7.193 21.791-38.16 31.914-34.128 4.049 4.179 6.616 14.875 7.284 20.787 4.443 39.302-4.504 62.355-26.909 92.775 1.18 6.795 2.744 13.707 4.181 20.466 6.991-13.059 44.763-67.237 59.172-65.031 11.08 9.827-2.696 65.259-8.537 78.695 22.9-15.242 43.335-23.451 71.935-18.483 9.85-17.009 19.586-25.453 40.374-27.476 24.605-2.394 48.021-5.65 69.074 10.304-10.667-10.161-25.216-31.118-33.861-43.953-63.339-94.044-113.879-200.061-152.013-306.733-13.011-36.393-24.505-72.599-30.793-110.742-2.664-16.158-2.332-38.133 8.232-51.007 22.335-27.218 74.734-41.185 107.911-49.49C478.974 62.238 637.665 55.441 795.122 46.95c20.215-1.09 40.36-1.595 60.564-2.154 14.478-.4 33.447.605 47.417-1.302"/><path fill="#fefefe" d="M900.521 57.56c34.713-1.227 73.057-.557 108.039-.588 77.03-.444 154.06.662 231.05 3.319 64.91 2.112 130.28 5.19 194.99 10.615 73.97 6.2 326.29 31.511 373.83 83.25 8.07 8.785 11.18 19.037 10.64 30.846-.69 15.189-22.07 105.145-30.06 112.544-3.05.596-3.32.813-6-.419-1.27-4.775 24.26-37.745 19.05-52.878-8.24-8.404-31.31 8.882-38.92 14.354-2.11-21.412 1.46-56.418-11.2-75.447-6.89-10.369-37.28 28.268-40.96 33.15-5.44-8.145-17.77-27.119-25.93-31.095-13.35-6.511-21.13 39.265-22.45 46.584-8.73-8.159-47.05-43.42-59.07-38.954-11.32 13.16 16.51 63.931 13.08 71.882-9.27-1.549-34.97-15.493-43.55-10.213-2.09 9.498 2.73 9.331 5.71 18.021-1.71 3.873-4.09.352-7.06 4.855 1.65 8.428 4.95 15.393 8.31 23.078 12.47 28.537 22.18 37.998 46.81 55.628-25.12 15.916-28.97 29.106-45.37 53.707-41.19-17.708-64.43-36.932-85.4-76.75-17.43-33.106-48.09-53.184-86.26-46.28-11.38 2.06-23.63 7.489-32.31 15.622-25.7 24.086-42.53 57.376-63.2 85.787-9.65 13.54-17.35 28.356-26.89 41.921-26.59-18.522-50.42-29.372-82.64-31.949-4.1-6.25-8.96-17.839-12.76-24.864-8.38-15.511-17.42-27.028-29.56-39.589-13.24-12.79-24.45-22.896-40.66-31.896-44.32-24.609-99.38-31.86-148.295-17.741-43.552 12.57-83.45 41.795-107.956 80.106-7.778 12.16-12.104 24.605-18.893 36.922-35.711-1.858-60.56 4.786-86.372 31.116-28.076-37.948-69.201-127.045-113.767-142.291-11.994-4.103-25.234-4.704-37.694-2.628-46.141 7.688-53.392 49.805-80.164 79.51-17.291 19.186-38.89 32.167-61.834 43.427-12.119-19.404-25.305-38.914-42.771-53.86 17.065-12.229 29.89-29.66 39.808-47.923 3.756-6.917 13.48-26.019 11.297-33.476-2.969-1.701-3.796-.333-8.363.23-.985-6.265 8.671-15.573 3.912-21.082-8.082-2.692-31.963 8.717-40.754 12.341 3.071-13.434 22.45-64.463 13.497-74.646-11.207-.658-50.378 31.283-57.269 41.565-4.103-16.802-10.633-40.902-22.923-53.646-8.624 8.047-19.505 26.711-24.481 37.421-7.075-7.302-34.853-37.061-41.568-36.232-13.545 1.674-13.275 66.064-13.104 76.077-9.463-5.573-23.166-13.523-33.536-17.323-3.32-1.217-7.001 2.16-10.196 4.138-5.697-25.564-24.032-68.537-2.405-89.962 18.331-18.159 52.251-27.396 76.712-34.618 52.928-15.586 107.792-24.879 162.344-32.624C578.219 72.23 681.517 65.437 783.663 60.743a5395 5395 0 0 1 116.858-3.183"/><path d="M882.95 93.732a5.044 5.044 0 1 1 5.948 8.148 5.044 5.044 0 0 1-5.948-8.148m234.77 161.737a4.89 4.89 0 0 1 6.08 3.339 4.89 4.89 0 0 1-3.36 6.07 4.89 4.89 0 0 1-6.04-3.349 4.89 4.89 0 0 1 3.32-6.06m-107.63-47.885a4.85 4.85 0 0 1 6.7 1.219 4.853 4.853 0 0 1-5.99 7.196 4.87 4.87 0 0 1-2.82-4 4.86 4.86 0 0 1 2.11-4.415m-136.627-18.251a4.814 4.814 0 1 1 .956 9.581 4.814 4.814 0 0 1-.956-9.581m31.718 46.321a4.79 4.79 0 1 1 5.555 7.803 4.79 4.79 0 0 1-5.555-7.803m56.657-97.282a4.717 4.717 0 1 1 4.338 8.378 4.717 4.717 0 0 1-4.338-8.378M834.181 317.46a4.715 4.715 0 1 1 2.75 9.02 4.715 4.715 0 0 1-2.75-9.02m234.749-178.95c2.22-1.2 5-.376 6.22 1.844a4.603 4.603 0 0 1-8.08 4.414 4.604 4.604 0 0 1 1.86-6.258"/><path fill="#fefefe" d="M1195.94 782.246c33.94 2.86 317.6.427 319.57 1.716-4.32 2.708-12.58 2.406-16.87 4.533-16.43 8.149-21.87 12.255-28.39 28.802-32.1 9.639-83.84 6.062-117.47 3.324-8.9-.725-36.07-6.976-42.01-3.109-.65 1.25-1.05 1.516-1.09 2.763-.34 1.639 2.54 5.857 3.98 6.267 40.8 11.606 117.99 12.51 157.01 3.844 7.39 20.044 18.57 30.21 36.61 40.58-19.45 1.178-45.72-2.813-64.87-7.219-8.29-1.907-19.28-6.159-27.84-7.524-2.21-.351-3.74 1.629-5.18 3.033-1.22 4.037-1.28 2.426-.05 6.154 11.09 10.367 79.85 19.954 97.69 17.953 7.54-.844 33.31-3.756 38.71-2.966 1.64 3.226-.25 6.295-.48 9.616-3.02 43.365 71.21 35.945 95 22.933 6.86-3.752 15.43-10.771 21.42-15.649 16.78 17.922 41.43 25.205 65.22 27.179-71.67 71.529-164.47 161.414-270.58 170.684-28.29 2.48-65.25.8-94.07.83l-221.38-.69-202.577.45c-71.936.66-143.875.88-215.814.64-27.395-.32-54.793-.38-82.189-.17-17.935.05-50.033.72-67.013-2.22-73.695-12.78-137.759-62.21-191.873-111.089-20.194-18.239-41.109-36.921-57.163-58.315 6.71-1.079 10.872-1.898 17.475-3.67 17.571-6.255 27.39-13.279 41.192-25.317 8.221 8.756 35.016 31.248 45.968 33.593 20.082 4.299 49.856 11.613 68.963 15.244 19.514 3.708 121.051 20.14 135.131 13.58 2.894-3.403 3.628-4.315 1.509-7.995-2.22-1.469-5.308-2.755-8.036-2.883-39.181-1.831-77.999-6.273-116.611-13.22-13.321-2.396-26.134-5.618-39.348-8.051 7.758-1.268 15.736-2.582 22.271-7.255 11.951-8.548 4.288-23.158 6.081-35.065 16.376-1.735 29.201-4.922 45.092-8.002 6.395-1.24 21.643-.569 28.701-.724a830 830 0 0 0 45.105-2.213c10.907-.852 22.376-1.144 33.209-2.637 5.071-.699 8.634-2.022 9.837-7.294-.96-2.712-2.395-5.794-6.071-5.589-11.733.655-23.451 2.09-35.184 3.005a1108 1108 0 0 1-63.22 2.787c10.991-11.659 16.211-17.126 22.144-32.461 28.384 4.746 171.923 10.235 195.392 2.795 2.837-.899 5.065-2.017 6.517-4.753-.267-3.69.153-2.238-2.116-5.607-3.221-2.203-8.891-1.101-12.791-.91-50.551 2.472-101.507 2.941-152.018-.655-11.198-.798-24.065-2.272-35.212-1.657-9.193-22.931-25.725-29.945-48.046-35.44 17.578-.817 40.592-.244 58.555-.273l120.056.097 87.515-.091c16.912-.004 38.464-.416 54.884.931-1.106 8.16-2.606 15.489 2.629 22.769 7.635 10.617 31.431 9.695 43.46 9.265 5.22-.186 11.316-2.618 17.078-1.762l-.151 1.414c-2.048 2.925-6.837 6.566-10.329 6.615-44.87.626-81.758 4.734-121.757 27.885-30.306 17.541-42.017 38.889-21.697 71.239 10.301 16.399 21.158 30.596 41.677 35.418 27.187 5.423 56.229 5.543 83.769 3.921 10.696-.697 28.398-3.807 37.878-3.597 35.347.867 71.186 3.095 106.528 3.103 42.39.01 82.91-5.322 125.13.836 13.64 1.99 36.09 1.134 50.21.66 17-.571 42.63-4.405 57.82-12.575 18.89-11.996 48.2-54.276 32.58-76.238-9.88-13.876-27.5-22.467-42.85-29.153-20.18-8.787-40.7-17.199-62.8-19.505-15.91-1.481-34.16 2.097-50.11-1.194-4.78-.986-7.37-6.012-9.85-9.934 17 3.558 42.09 5.26 58.23-1.73 8.41-12.391 7.94-15.235 7.31-30.057"/><path d="M1285.4 939.726q2.73.285 5.43.806c12.29 2.339 30.31 8.505 37.21 19.335 1.75 2.294 3.09 7.149 1.98 9.997-7.74 19.932-45.46 28.001-62.84 31.956-64.47 14.67-131.69 17.21-197.47 18.45-73.974 1.4-147.909-1.73-221.238-11.59-18.679-2.54-50.875-7.55-68.573-12.92-12.368-3.088-48.872-13.607-38.763-34.363 3.279-6.733 18.573-12.736 26.011-14.297 19.229 15.053 23.943 17.214 48.55 20.914 49.563 7.452 94.841-1.429 144.533-.275 51.24 1.189 103.29-.45 154.53.275 29.06.411 60.79 4.921 90.3 2.528 19.54-1.585 49.99-4.142 65.63-15.95 4.89-3.696 10.58-10.233 14.71-14.866m387.37-7.521c3.83 1.978 4.21 3.375 4.56 7.3-2.38 6.852-19.67 10.387-26.33 11.935-64.54 15.005-152.24 18.371-216.82 3.924-3.28-2.867-4.19-4.025-3.31-8.137 8.59-7.877 36.68 2.523 48.52 2.622 6.01.05 13.68.539 19.78.944a506.2 506.2 0 0 0 173.6-18.588m-243.11 93.645c3.3.19 3.67.36 6.53 2.02 2.46 3.58 2.02 2.03 2.27 5.96-.35.83-1.26 2.67-1.97 3.1-47.04 28.26-123.32 20.92-174.07 18.4-5.24-.62-6.76-2.21-7.82-6.98 1.37-3.6 4.52-6.77 8.58-6.59 52.29 2.29 118.55 10.98 166.48-15.91m-838.725-14.96c1.606-.09 5.114-.28 6.34.44 28.535 16.85 60.611 25.22 92.778 32.21 16.251 3.53 33.961 5.2 50.252 8.28 2.22.42 3.145 2.62 3.884 4.5-.174 3.83-.97 4.66-3.039 7.73-25.515-.54-142.925-24.64-152.741-46.08-.24-3.4.674-4.31 2.526-7.08"/><path fill="#fefefe" d="M621.229 301.528c.164-.015.328-.045.494-.045 12.783.031 23.958 3.52 34.272 11.188 27.92 20.758 77.724 107.044 97.838 140.117 4.963 8.161 9.019 20.12 15.511 26.837 1.937 2.005 3.896 2.657 6.702 2.471 2.802-.185 3.793-.97 5.599-2.857 2.675-8.534-9.157-25.376-13.713-34.81 13.114-11.12 25.041-19.976 41.829-25.04 6.879-2.074 26.139-5.498 32.019-2.321 1.002 2.648-2.06 13.963-2.659 17.515-10.407 61.724 7.881 118.519 50.483 162.789-5.048 8.313-11.843 15.012-15.802 25.135-18.086 46.246-16.766 103.251-22.675 150.974-4.872-.226-29.208-.432-31.435-.941-11.39-16.283-24.427-32.409-37.862-48.749-20.77-25.264-43.198-62.527-76.428-72.23-20.462-5.975-31.985 5.511-47.439 15.324-27.206-21.508-53.365-72.428-73.893-101.676-18.478-26.325-20.745-43.195-57.366-51.838-16.718-22.557-36.192-67.554-53.128-88.969 31.815-15.307 61.881-35.399 80.805-65.838 7.991-12.854 12.764-24.667 23.314-35.972 13.632-14.607 24.013-20.022 43.534-21.064"/><path d="M647.24 393.805c15.769-.179 41.509 32.987 49.403 45.003 19.941 30.351 34.467 64.228 53.944 95.065 4.784 7.574 22.669 27.483 23.852 34.178-.821 3.371-2.815 4.91-5.259 7.326-2.269.144-4.943.164-6.573-1.333-27.701-25.429-50.283-78.189-68.136-109.61a235 235 0 0 0-18.027-27.018c-4.284-5.628-9.685-12.277-14.566-17.438-6.904-7.3-17.049-8.169-19.291-17.984.534-3.789 2.184-5.248 4.653-8.189"/><path fill="#fefefe" d="M1420.15 301.31c56.3 1.479 55.95 41.184 87.2 76.372 19.7 22.176 39.88 34.157 66.42 46.347-7.91 13.047-46.44 75.853-54.94 84.06l-.61.588c-10.11 9.749-22.37 11.879-33.76 25.483-13.37 15.854-12.38 18.824-25.42 38.052-16.23 23.955-44.63 73.986-67.43 90.163-5.47 3.883-28.16-16.082-44.48-12.812-34.96 7.008-51.87 36.954-72.07 61.385l-42.83 51.55-7.53 8.601c-8.63.449-20.56.118-29.53.25-1.78-42.072-10.77-141.776-32.42-175.755 48.81-50.65 59.43-114.833 46.62-181.851 29.95 3.6 45.01 12.253 70.34 29.522-6.01 11.154-19.47 28.051-12.92 40.287 4.63 2.991 8.9-1.345 11.21-5.361 22.78-39.515 45.94-78.54 72.57-115.631 20.2-28.137 31.77-56.414 69.58-61.25"/><path d="M1395.41 393.991c3.99 1.734 5.07 2.221 7.82 5.613 1.18 5.085-1.02 8.398-5.45 11.029-12.89 7.652-19.54 16.926-28.3 28.045-20.56 26.067-60.65 124.379-87.92 136.809-3.72-1.297-10.95-5.871-8.02-10.526 7.16-11.394 16.56-20.131 24.19-31.583 25.34-38.044 53.64-120.366 97.68-139.387"/><path fill="#fefefe" d="M1012.36 289.347c.28-.104.74-.295 1.17-.323 44.87-2.935 90.53 10.745 124.62 38.747a178.1 178.1 0 0 1 64.88 120.212c5.47 56.054-13.21 97.392-47.63 139.444-21.27-17.15-39.19-24.425-66.44-30.556-6.92-1.557-16.51-.316-23.95-2.966-4.26-3.908-3.99-14.675-4.38-20.592 8.83-4.834 13.53-9.356 20.58-16.219 23.94 1.31 31.32-24.739 33.58-44.033-10.97-27.832-21.24 4.748-19-39.329 1.38-27.21-26.69-43.165-52.85-47.984 3.41-12.893 1.3-20.058-11.21-26.388a65 65 0 0 0-4.73-.59c-18.12-1.499-24.96 7.102-23.04 23.745.01.043-.13 2.106-.15 2.117-6.915 4.158-15.892 4.361-23.212 7.944-19.231 8.259-31.338 26.707-29.448 47.796.434 4.839 1.095 10.354 1.253 15.238.053.389-.551 3.839-.652 3.842-10.084.241-19.665.444-19.747 13.985-.072 11.711 5.351 26.83 14.119 35.855 7.131 7.341 10.726 7.764 20.72 7.84 6.866 7.936 12.118 10.422 19.608 17.276 2.549 2.333.537 18.85-1.047 19.133-36.758 6.577-58.495 13.21-87.952 36.267-5.932-7.198-11.317-12.513-17.054-20.446-17.387-24.041-28.441-55.602-31.577-85.031a179.26 179.26 0 0 1 38.728-129.666c33.02-40.835 73.622-59.774 124.811-65.318"/><path fill="#fefefe" d="M1052.86 535.31c2.68 3.733.72 12.091 3.17 17.741 2.98 6.855 7.46 12.809 11.63 18.978-6.59 36.695-10.37 56.297-24.78 91.137-3.39-9.246-12.65-26.092-23.8-19.5-25.409 15.036-19.447 58.988-26.134 82.501-2.933 10.315-31.543 19.742-42.187 23.435-7.012 2.488-16.723 4.869-23.982 6.761a157 157 0 0 1-.167-3.356c-1.015-26.505.438-84.642 10.236-108.653 4.262-10.448 18.32-30.534 25.192-40.981 8.518-12.949 16.538-29.544 27.115-40.357 6.355-6.497 5.287-18.642 4.819-27.39 19.598 5.663 39.408 5.274 58.888-.316m-53.386-109.801c8.716-2.197 48.186 2.346 59.886.427 9.78-1.603 20.76 10.289 22.26 20.031 2.96 19.248-.26 49.071-7.1 67.349-2.95 7.89-21.07 15.486-28.65 17.391-19.6 5.581-49.366 4.066-64.752-10.1-15.001-14.122-15.774-41.092-16.853-60.869-1.508-27.638 12.427-33.57 35.209-34.229"/><path d="M1018.41 454.261c2.64.383 2.71.43 4.73 2.102 4.3 11.718 2.33 21.952.98 33.999 1.1 1.714 2.04 1.964 3.86 2.897l.7.352.98 3.773c-4.5 2.147-6.06 1.915-10.16-.277-5.51-7.615-1.88-32.645-1.09-42.846m-35.418-9.025c6.696.096 26.718 1.667 25.608 12.016-2.52.937-1.41.891-4.27-.233-9.212-5.172-10.992-4.781-21.725-5.893-2.94-.305-5.101-.34-6.706-2.437 2.434-2.931 2.672-2.214 7.093-3.453m70.298.049c4.58-.464 15.35-1.9 17.75 3.407-3.91 3.074-13.81 1.396-19.69 3.38-4.1 2.321-8.52 5.918-13.06 4.065l.22-2.15c4.14-5.621 8.12-6.389 14.78-8.702m18.61 21.326c1.31.637 2.22 1.738 3.32 2.794l-.01 1.772c-7.68 8.131-19.38 7.917-29.44 6.146-2.72-2.312-2.73-1.558-3.3-4.319 6.52-3.805 12.24 4.863 29.43-6.393m-97.072 1.363c4.959 1.278 11.982 4.047 16.956 5.837q.961-.233 1.924-.454c3.53-.811 7.402-2.044 10.382-.186-.49 2.669-.64 2.089-2.84 4.462-7.507 2.003-23.944-.674-30.035-5.209l.1-1.753zm36.952 37.718c2.45.603 5.04 1.293 7.52 1.746 5.21.956 13.58-2.092 18.06.135l.31 3.306c-7.99 4.178-24.27 7.326-25.89-5.187"/><path fill="#fefefe" d="M1015.38 657.728c1.73 2.787-.84 14.17-1.35 18.167-2.78 21.874 16 58.159-3.05 78.174-23.895 25.099-80.788 48.537-115.198 52.555-2.154.415-3.347.188-5.551.011l-1.296-1.819c.016-8.882 18.572-31.155 24.997-37.611 25.117-6.934 53.567-12.734 76.175-26.457 14.563-8.839 13.273-21.68 12.903-36.178-.29-11.665 6.4-35.432 11.84-45.851zm12.61-3.181c16.59 8.418 13.62 66.284 19 76.964 12.05 23.937 64.51 29.71 85.83 40.195 7.1 3.495 21.34 28.571 26.16 36.119l-8.23-1.189c-32.82-5.092-59.81-16.44-88.8-32.518-21.87-12.241-35.49-19.949-37.41-47.054-1.4-19.709 4.67-27.477 8.08-45.735.9-4.839-3.02-21.143-4.63-26.782m637.71 66.01c9.26 5.795 19.73 42.837 20.84 54.714 2.72 29.219-2.48 50.658-21.27 73.465-14.15-26.549-24.94-41.646-20.18-72.9 3.48-22.881 7.5-36.106 20.61-55.279m-1286.179-.818c6.593 7.902 23.974 56.841 23.924 69.807-.07 18.43-9.664 42.982-21.954 56.376-10.921-14.716-19.498-37.279-27.006-53.988 1.28-5.406 1.384-11.539 2.692-17.409 4.61-20.692 11.466-36.856 22.344-54.786m72.038 35.029.693.7c1.535 5.38.608 36.135-.138 42.749-3.085 27.339-12.93 52.932-34.66 70.588-9.23.358-16.702 1.16-26.182 1.134-2.085-2.059-1.412-8.973-1.362-11.99 13.907-22.298 19.858-36.969 26.484-60.708 1.255-4.498 29.505-35.166 35.165-42.473m1143.091 9.047c9.38 8.153 24.17 17.78 31.19 27.994 5.54 9.171 8.83 20.452 12.69 30.459 4.43 11.469 20.43 36.673 17.97 48.555-55.74 7.594-67.24-66.886-61.85-107.008m-1286.053-4.358c7.496 2.913 19.431 19.779 25.566 26.154 12.126 12.787 16.587 30.213 24.159 45.95 4.336 9.013 19.186 30.029 18.349 38.57-4.903.161-11.475-.536-16.378-1.007-37.603-3.607-55.643-80.998-51.696-109.667M362.3 201.768c5.671 12.364 22.485 66.686 13.551 77.795-11.788 14.655-19.576 19.566-27.216 39.96l-2.068.885c-4.526-3.567-9.755-23.934-10.857-30.574-4.736-28.516 10.289-65.256 26.59-88.066m1321.84-.415c7.69 5.45 16.88 24.763 20.62 33.766 13.38 32.159 10.57 52.505-2.4 83.286-1.23-.988-5.41-7.068-6.51-8.71-6.61-9.855-13.27-18.106-21.43-26.721-3.73-24.822-1.89-58.999 9.72-81.621"/><path fill="#fefefe" d="M1627.63 674.581c4.12-4.013 13.79-10.386 19.64-10.328 1.71.732 3.13.973 4.02 2.466 3.69 6.175 3.4 33.943 2.22 40l-.1.475 1.39 1.58c-.03-3.197 1.13-44.142-.02-42.986 4.3-4.304 32.64-2.961 38.2-.216-7.29 19.208-7.16 34.825-11.8 50.591l-1.97.037c-3.8-3.803-8.71-13.079-11.84-18.199-8.42 8.446-18.23 25.485-23.55 36.216.24-4.263 1.23-13.788-1.3-16.99-2.12 2.371-4.42 11.726-6.64 16.227l-1.03-.21c-2.17-7.106-1.11-20.392-3.01-23.397l-2.68 4.47-1.53-.315c-6.84-10.814-2.62-27.901 0-39.421M301.655 199.229c5.373 3.261 25.669 25.701 31.213 31.679-13.688 28.659-15.245 65.555.561 93.73l1.405 2.496-1.168.247c-7.277-3.017-21.55-8.874-24.988-15.8-16.088-32.418-13.535-79.15-7.023-112.352M1731.82 763.153c2.89 6.19.45 29.072-.32 36.427-2.76 26.481-24.48 75.312-57.51 70.447-2.66-.999-1.79-.13-2.93-2.431 2.25-11.109 15.87-26.023 20.67-38.191 3.55-8.995 5.17-24.501 9.59-30.668 8.73-12.186 21.53-23.182 30.5-35.584m11.87-565.063c3.11 3.393 5.1 17.877 5.54 22.915a221.1 221.1 0 0 1-13.13 94.965c-8.39 5.453-11.2 5.747-20.83 7.143-.66-4.496 7.25-19.461 8.32-25.573 4.38-25.212.44-42.781-6.24-66.187 6.05-12.851 16.66-22.927 26.34-33.263m32.79 109.486 8.99.032c-9.92 21.733-17.37 46.199-28.15 69.38-9.9-3.907-19.83-7.754-29.78-11.541-2.47-5.566-17.39-21.407-22.27-26.833 10-1.946 25.97-5.144 34.72-10.23 13.98-8.128 19.14-18.115 36.49-20.808m-257.94 488.621c12.78-.977 11.74 13.013 18.65 23.959-12.09.839-38.9-.033-48.35 4.346 2.25 1.463 44.22-1.236 50.48-1.552 5.44 8.602 6.3 10.154 12.94 17.945l1.47 2.026c-2.93 4.172-36.11 7.254-46.58 12.552-.71-.409-1.4-.838-2.09-1.288-8.81-5.803-19.16-15.353-21.27-26.054a21.9 21.9 0 0 1 3.54-16.992c7.26-10.437 19.76-12.722 31.21-14.942M273.427 304.732c14.421 12.339 27.467 19.673 43.639 29.586 2.627 10.764 7.961 22.176 11.812 32.997-4.355.972-9.229 1.78-13.652 2.613-11.326 1.317-16.87 2.379-27.506 6.254-3.104-5.285-17.944-54.402-19.998-62.027zM1800.49 637.669c35.65 24.833 53.65 60.92 46.29 104.016l-1.09.769c-.65-.59-1.93-1.766-2.43-2.402-23.6-29.853-44.73-63.317-42.77-102.383m-3.32 79.036c13.78 20.79 3.48 49.411-9.04 68.065-17.72 1.104-28.28 1.139-44.71 8.379 7.07-7.572 13.85-12.564 22.07-18.781 2.75-1.747 3.23-1.804 4.39-4.663l-1.09-1.009c-6.39 1.573-15.9 13.717-23.7 14.634l-1.21-1.827c2.85-10.025 43.98-54.267 53.29-64.798m-236.83-23.935c4.84.842 43.81 52.33 53.23 60.696-.13 2.861.41 7.109.69 10.064-8.27-7.065-15.8-15.434-23.58-23.177-11.1-1.335-4 18.016-9.02 22.833-4.87-1.758-34.39-36.898-42.88-44.842 6.25-13.056 10.58-17.014 21.56-25.574m-1073.775 2.042c7.374-.262 17.945 14.055 18.381 21.184-6.583 7.667-33.383 45.475-40.783 48.019.126-5.466 2.74-29.834-8.206-27.398-7.269 1.619-18.146 14.616-23.025 20.752-1.785-3.648-1.144-8.317.207-12.011 7.51-8.07 14.551-17.084 22.324-24.847 9.201-9.189 20.633-17.887 31.102-25.699M1589.87 291.31c5.34 1.612 12.27 6.035 17.56 8.345 22.49 9.804 43.35 25.381 67.17 31.552 4.47 1.16 8.97 3.029 13.25 4.794l-8.19 5.52q-1.92 1.073-3.93 1.962c-11.43 5.02-15.38 1.879-26.36 3.177-28.65 3.387-49.95-33.27-59.5-55.35m-1135.275.544 1.841.002.646 1.576c-6.545 17.814-29.899 45.388-46.715 55.538-17.323.691-20.48 1.754-36.694-4.222l-12.548-5.677c10.249-6.04 21.855-8.555 31.523-13.787 20.809-11.259 40.531-23.127 61.947-33.43M76.933 569.867c40.352 13.544 66.829 35.013 85.274 73.721-3.77-.524-12.961-3.523-16.759-4.87-34.635-12.28-53.275-36.877-68.515-68.851m165.978 70.746 1.067 1.008c1.68 9.37-8.351 47.636-13.575 57.781-3.28 6.369-21.592 43.588-25.775 45.197l-.822-2.834a1542 1542 0 0 1-6.915-38.89c13.697-22.766 27.231-43.21 46.02-62.262m4.158 77.458c4.569-8.419 8.776-15.93 19.23-15.199 2.561 2.888 10.161 7.491 13.683 10.157 13.055 9.881 25.15 20.712 37.679 31.239l4.363 2.767c1.002 2.294.805 2.591.414 5.179-4.621 2.242-12.142-10.613-18.957-12.686-9.698 2.242-7.264 29.102-7.24 37.821-16.185-20.776-32.067-39.264-49.172-59.278m259.168-.029c4.643 22.259 7.803 35.882-.54 57.981-7.739 6.221-31.027 16.365-40.899 20.104-.033-5.311-.822-26.9 1.292-29.86 13.222-11.544 30.667-33.982 40.147-48.225m1081.433-33.764c7.67-.188 24.59-.695 29.99 5.153 8.23 8.926-6.37 40.376-4.7 52.954.19 1.445-.14 3.982-.29 5.262l-1.12.175-3.24-3.501c-13.55-16.301-30.55-38.908-44.35-53.636 8.54-2.913 14.79-5.074 23.71-6.407m-49.36 38.128c5.2 2.939 32.97 37.162 43.52 45.971.07 8.224.08 16.449.06 24.674-4.29-4.082-22.57-18.744-27.78-19.089l1.76 2.492 22.73 16.975-.33 1.568 1.42-.522-.2.723c-5.14-1.078-25.28-9.752-31.58-12.171-14.76-17.39-17.62-39.531-9.6-60.621m428.73-152.527 2.04.309.28 1.264c-20.8 38.686-37.42 54.483-80.06 70.271-.76.19-.9-.037-1.88-.308.21-.888.57-2.174.98-2.946 18.91-35.665 43.04-53.903 78.64-68.59m-1634.062-190.4.988-.122c2.429 1.333 9.252 10.358 12.259 13.457-5.74 11.94-22.013 34.962-29.574 48.798l-4.17-7.698c-3.582-8.955-19.513-43.469-20.472-50.218a1660 1660 0 0 0 40.969-4.217m1220.692 173.94c6.14-1.628 27.46-.7 31.54 5.504l-.75 2.393c-3.23 1.798-8.07.524-12.02.083-17.85-1.987-41.85 2.199-56.46 13.568-20.31 15.807-34.71 44.357-49.19 65.563-6.52 9.546-13.21 18.8-19.99 28.129-3.77 4.91-10.6 15.732-17.13 14.971l-1.16-1.923c2.82-8.953 33.18-49.648 40.52-61.342 22.35-35.614 40.55-62.155 84.64-66.946m-1081.974-.981c62.028-8.533 88.237 41.843 117.909 85.254 8.782 12.848 20.132 27.3 27.799 40.42l-.502 1.598c-5.957 1.433-6.577-.516-10.078-4.408-28.207-35.526-45.798-75.195-82.367-103.82-22.071-17.276-62.229-6.855-69.01-12.015.601-7.193 10.797-6.772 16.249-7.029M1724.76 372.709c8.51 4.274 20.21 8.152 29.36 11.467-3.79 12.818-17.46 41.878-23.86 53.403l-.29.495-1.06.212c-4.03-4.972-6.25-10.521-9.48-16.117a2276 2276 0 0 0-17.11-28.731c8.26-6.653 15.01-13.21 22.44-20.729"/><path fill="#fefefe" d="M425.419 708.577c1.047-6.03.974-17.085 4.66-21.183 10.769-5.335 49.567-4.073 55.199 6.39-16.748 9.084-26.45 19.563-39.62 33.394-2.683 2.817-11.664 14.412-13.659 15.126l-1.052-.88c.102-12.611.098-21.203-5.528-32.847"/><path fill="#fefefe" d="M402.027 665.7c42.554 13.721 10.215 47.16 1.992 72.702l-.944 1.445c-3.044-3.254-14.608-33.081-19.218-40.671 4.431-9.036 12.276-26.145 18.17-33.476m-59.408 2.982c6.866-.452 22.117 35.836 25.739 42.888l-16.083 33.049-1.141 1.029c-3.268-2.496-7.229-21.276-10.819-26.023-3.063-4.522-10.547-9.466-11.283-14.996-1.935-14.556 1.612-27.152 13.587-35.947m1378.121 80.196c.63-4.73 1.25-11.422 1.06-15.878-.74-17.614-7.73-41.035 17.89-42.696 7.71-.501 27.15 1.727 33.36 7.035-4.42 4.667-26.97 33.639-30.02 39.447l-2.66 2.399-1.94-.411c-2.08-3.077-2.56-10.039-3.12-14.057-7.4 8.216-9.73 14.237-14.57 24.161M265.767 699.499c14.61-6.917 36.17-11.466 52.155-7.985 10.615 2.312 4.474 27.061 4.506 34.423.017 4.058.823 13.852-.276 17.24-1.907.549-1.017.615-2.758-.027-13.512-15.604-37.837-31.018-53.034-43.173zm1428.593-33.57c32.12.656 20.95 47.032 15.29 65.389-1.42-8.037-2.63-18.285-4.22-25.821-7.14 17.331-11.64 32.534-8.62 51.279-4.01-10.76-8.35-21.308-12.76-31.903-1.7-4.086-2.04-4.428-.72-8.526 2.11-14.297 7.68-35.855 11.03-50.418m-1448.711 55.52c3.19 3.015 5.832 5.968 8.665 9.303 13.881 16.344 28.135 32.423 41.664 49.056 2.598 3.195 1.385 7.687.573 11.346-13.165-5.542-17.509-6.796-31.647-8.674-17.792-17.55-28.538-35.462-19.255-61.031m262.288 101.968c17.359-.223 41.944.53 58.877 1.914-4.761 12.454-8.551 16.582-18.194 25.347-14.509 6.206-41.07-2.258-56.309-6.159 7.075-7.323 10.3-12.608 15.626-21.102M1774.02 697.73c9.73 3.299 15.67 8.597 22.12 16.547-15.74 15.815-35.1 38.987-49.81 56.327-.76-8.461-5.04-27.519-2.06-32.282 6.66-6.992 26.03-32.523 29.75-40.592m-237.98-93.858c3.83.514 2.71-.119 5.28 1.944.86 5.961-6.13 6.575-11.11 9.566a80.5 80.5 0 0 0-13.22 10.063c-27.53 25.416-58.03 84.8-79.75 116.834-3.56.177-4.36-.438-5.77-3.176.1-.883.35-2.499.82-3.277 18.58-31.177 36.69-62.816 57.97-92.268 12.24-16.922 26.03-31.952 45.78-39.686m73.25 263.459c-19.49-10.631-39.77-23.659-53.3-41.66-4.13-5.492-15.68-22.327-16.21-28.719l1.15-1.043c5.81-.723 4.59 1.204 9.29 1.915 12.23 1.853 21.96 8.557 32.29 15.386l5.05 17.097c-7.69-5.389-25.97-19.212-33.93-21.19.31.919 28.82 21.87 31.86 23.328 6.71 5.31 11.1 20.439 16.86 27.301 2.26 2.699 4.46 5.077 6.94 7.585M502.811 604.583c17.476.176 35.38 15.57 46.174 28.313a228 228 0 0 1 15.781 21.154c12.264 18.755 35.432 59.897 48.794 80.973l-.312 3.778c-8.828.282-14.654-13.041-18.969-20.037-18.919-30.679-36.204-66.177-61.95-91.67-7.774-7.696-19.128-10.659-28.23-16.238-1.305-.799-1.162-4.404-1.288-6.273m-57.366 271.612c9.499 2.619 45.287 12.426 42.675 27.078-1.272 7.131-10.892 8.249-17.236 7.164-15.404-7.268-35.852-16.883-49.204-27.251 7.683-2.57 15.934-4.774 23.765-6.991M1843.26 566.664c3.76 2.777 8.98 10.562 11.44 14.735 12.22 20.772 15.28 40.916 9.63 64.091l-.4 1.462c-1.36-.671-1.72-.959-2.63-2.221-18.36-25.352-21.68-48.275-18.04-78.067m-229.14-357.847c12.07 5.968 39.13 30.599 46.24 42.475.17 6.813.55 13.513.68 20.445-34.34-18.115-36.95-25.586-46.92-62.92M376.141 664.466c5.467-.185 15.459-1.035 19.927 1.575l.303 2.114c-2.205 6.818-13.887 27.201-20.198 32.113-3.149 2.45-3.582 3.314-5.339 7.586l-.18.447c-2.221-2.47-17.128-33.25-22.276-41.105 9.717-2.204 17.872-2.363 27.763-2.73m43.952-251.58c34.63-.677 68.55 70.461 83.917 97.372 1.66 2.908 1.717 3.956.613 6.783-5.944-.8-6.691-1.889-9.872-7.009-20.519-33.02-36.901-74.615-74.54-91.522-1.416-.636-.339-4.382-.118-5.624m1201.057-.154c2.98.703 3.87 1.773 4.29 4.497-1.68 3.17-23.14 13.935-29.45 22.565-10.65 14.57-19.83 27.724-28.84 43.467-4.09 7.14-16.53 29.571-22.1 33.639-1.41-.721-2.97-1.784-4.33-2.651-.32-.997-.98-2.283-.55-3.032 15.31-26.619 34.01-58.587 53.9-81.776 5.55-6.47 20.26-13.572 27.08-16.709M202.37 568.528c1.223 1.139 2.182 2.44 2.444 4.102 4.359 27.66-5.755 51.915-18.903 74.335l-.294.019c-1.404-1.459-2.204-3.151-2.491-5.159-4.845-33.9 2.215-47.186 19.244-73.297m-72.071 92.103c15.869 11.958 43.891 38.83 51.307 57.147 3.767 9.304 6.437 22.304 8.597 32.41-8.046-5.322-56.16-76.806-59.904-89.557m1784.531 3.424.5.538c.95 12.581-46.2 69.522-57.37 77.213l-.54-.462c-.13-.822-.28-1.472-.11-2.302 6.16-30.881 33.2-58.018 57.52-74.987M414.809 268.009l.265.281c1.412 5.995-9.012 22.99-11.789 28.859-1.031 2.18-5.968 10.071-7.55 11.139-8.271 5.587-25.434 13.86-34.71 16.519l-.675-.459-.292-1.699c6.302-21.162 37.023-41.176 54.751-54.64m14.984-55.08.949 1.165c-.567 9.937-5.664 24.204-8.895 34.023-8.665 4.369-22.43 14.886-30.751 20.874-1.124-6.213-1.121-13.825-1.335-20.222 14.327-17.793 20.917-22.667 40.032-35.84M1598.56 876.857c5.29-.272 16.55 4.691 21.88 6.77-5.05 3.835-32.3 25.235-36.05 25.703-7.61.095-15.06-.448-21.89-4.321-2.04-2.761-1.72-1.498-1.34-4.702 3.52-5.596 29.45-18.492 37.4-23.45m-1076.2-81.874q1.085.126 2.159.313c18.924 3.205 32.165 12.511 42.996 27.897-4.238-.64-8.921-.981-13.224-1.382-9.596-1.255-35.894-2.136-45.284-.799 3.732-7.018 6.739-17.217 10.371-24.583zm-201.093 78.569c7.58 2.412 14.928 5.406 22.337 8.305-7.147 5.301-31.322 20.502-35.909 25.345-3.741-2.759-16.981-16.943-20.089-20.619 10.17-4.866 21.904-7.293 33.661-13.031M1699.08 881.7c9.8-1.979 17.23-8.14 23.56-6.773 5.19 3.828 24.92 17.416 29.98 19.53-.7 4.86-11.13 14.469-14.97 18.475-8.91-8.832-28.63-23.963-38.57-31.232m-66.3-609.403c2.83.811 9.33 4.631 12.23 6.333 19.92 11.699 30.99 23.102 42.31 42.821-33.41-6.919-44.32-17.511-54.54-49.154M345.207 883.309c7.294-.969 22.266 1.302 29.912 2.415-12.118 11.609-51.342 36.397-66.001 23.891 6.111-4.574 33.371-21.645 36.089-26.306M1814.57 814.42l1.09.172c-.78 3.86-13.52 19.011-16.63 22.127-13.19 2.92-31.23 7.458-41.55 16.364l-1.52-1.1c.29-2.456 12.46-16.701 16.36-25.339 15.66-8.568 24.65-10.373 42.25-12.224M391.55 884.986c8.266.094 22.707-2.829 28.337-.097 9.85 10.191 35.32 20.438 48.364 27.744-30.14 4.155-54.513-8.583-76.701-27.647m1279.59-1.737c7.76.217 14.47.657 22.22-.337 14.83 7.655 26.38 18.806 39.04 29.268-16.77 2.768-57.15-11.018-63.27-27.534zM504.754 790.906l1.15.116 1.099 1.398c-5.46 26.552-23.756 29.074-46.483 37.621l-.857-.177c-1.085-1.988 2.546-17.033 3.244-20.754 10.509-2.311 32.284-13.048 41.847-18.204m1121.416 92.329c9.67 2.05 18.69 1.605 28.47 1.03-11.04 14.116-20.12 18.482-36.4 23.704-9.38 2.811-18.31 2.021-28.1 1.871z"/><path fill="#fefefe" d="M489.329 847.384c5.133-.2 20.71 4.73 27.334 6.086 11.175 2.288 15.714 2.575 27.236 2.608-4.895 2.759-10.345 5.547-15.336 8.212-9.891 4.345-18.436 5.094-29.139 5.092-10.012-.002-11.912-6.864-19.444-15.238 3.051-1.923 6.416-4.568 9.349-6.76m1234.001 24.928c6.53-3.751 14.4-7.882 20.38-12.208 12.2 6.293 16.88 8.446 25.21 19.846-3.37 3.32-11.06 11.617-15.1 12.971-10.36-8.186-19.09-13.997-30.49-20.609M144.518 546.486c3.671 1.606 4.283 4.651 6.866 7.357 11.892 12.457 16.334 44.923 13.644 62.065-17.49-21.386-20.247-43.043-20.51-69.422m87.375 270.196c12.951 1.304 25.179 4.077 37.859 6.955 4.261.937 10.165 12.951 12.655 17.11-10.938.519-22.265.174-33.243.004-2.763-3.222-16.969-21.2-17.271-24.069M1812.67 755.59c3.42 2.123 22.8 25.899 26.22 30.075-.94 1.465-1.89 2.913-2.88 4.344-2.29 3.276-3.05 3.825-6.5 4.414-10.14-4.246-18.26-6.471-29.12-8.244 6.61-10.4 10.48-18.3 12.28-30.589m-1580.552 4.305c3.15 2.719 12.929 20.51 17.702 26.002-7.153 2.443-17.963 4.55-25.582 6.209l-8.595 1.598-7.949-12.268.492-.306c10.542-6.689 15.357-12.062 23.932-21.235M1899.57 547.738c11 11.056-8.14 53.22-16.72 64.146-.49-1.101-.6-1.435-.77-2.614-4.04-27.563 2.81-40.397 17.49-61.532m-342.82 299.469c3.29.312 6.5 5.111 8.79 7.868-13.5 13.279-24.73 12.915-42.53 9.547-3.53-1.609-9.41-4.17-11.65-7.094 2.76-3.543 38.5-9.068 45.39-10.321m57.64-395.542c3.67.493 2.42-.133 4.97 2.12.02 2.186.14 3.72-1.62 5.416-17.43 16.872-27.16 37.678-40.65 57.68-7.57-3.68-6.34-6.369-2.12-13.46 11.25-18.874 22.68-37.271 39.42-51.756m84.52-107.371c8.02 7.851 13.23 13.592 20.48 22.189-5.48 3.82-10.78 8.933-15.76 13.458-4.84-5.262-11.08-11.146-16.23-16.249-3.25-3.335-6.93-4.504-8.09-8.315l1.7-1.519c7.35-.647 13.16 8.485 19.04 10.439-2.31-6.5-7.72-10.278-12.96-14.693 4.92-2.829 6.43-3.742 11.82-5.31M425.301 452.477c17.26 1.636 42.242 43.471 49.866 58.24 1.275 2.471-.359 4.437-1.444 6.572-8.42-4.031-23.3-33.663-30.97-41.917-5.487-5.904-12.197-11.449-18.212-16.792-1.027-2.995-.494-2.625.76-6.103M231.89 814.426c-2.511-1.81-4.453-2.882-5.854-5.684.151-9.114 26.137-10.718 33.876-11.86 3.011 8.546 5.659 16.193 10.537 23.93-9.659-.828-29.5-7.649-38.559-6.386m1346.77 48.288c5.69 5.788 10.51 8.603 17.56 12.115-7.99 5.151-18.87 10.737-27.37 15.391-2.38.986-6.98 3.762-9.44 5.16l-1.27-1.529c-1.79-14.938 9.28-23.623 20.52-31.137M492.968 820.055c1.087 13.045-34.977 31.516-45.289 36.281-.16-1.836 6.9-16.868 8.492-21.387a1070 1070 0 0 1 36.797-14.894M1785.67 258.951l1.04 1.554c-3.15 15.278-18.73 32.041-31.19 41.02l-.97-1.328c.31-5.737 4.65-21.071 6.52-27.001 5.49-4.488 18.22-10.9 24.6-14.245M339.878 344.613c12.853 4.481 12.437 18.179 18.159 31.59l-6.567 9.349c-5.003 1.656-14.33-16.253-16.206-20.268a348 348 0 0 1 4.614-20.671M1795.88 798.207c5.97.168 25.55 1.618 26.2 8.857-4.44 5.217-15.07 5.049-22.32 6.087-8.75 1.537-15.85 3.963-23.83 7.688 4.81-8.185 10.32-20.577 19.95-22.632M300.257 861.288c5.483 2.869 11.73 7.04 18.155 10.416-9.102 3.431-17.288 6.468-26.106 10.666-8.627 4.167-12.242-4.777-16.788-11.271 8.982-5.067 14.98-7.019 24.739-9.811M259.21 257.861l26.212 14.871c1.246 6.216 3.994 22.919 4.192 28.665a25 25 0 0 1-2.028-1.414c-8.585-6.592-26.773-31.433-28.376-42.122m14.283 539.391c10.866 1.91 16.765 4.247 27.003 8.126l4.427 21.042c-6.826-3.265-14.089-5.265-21.325-7.507-4.318-8.142-6.82-13.1-10.105-21.661m1499.137 2.353.89.58c-12.77 20.188-19.32 14.497-35.78 30.177-.93-3.457 4.04-17.961 5.25-21.974 11.59-6.796 16.58-7.913 29.64-8.783m-1305.041 62.29c6.124 3.421 21.141 21.217 17.532 27.288-3.767-.15-5.57-2.189-9.177-4.542-9.302-4.722-17.716-7.729-27.433-11.342 8.205-4.261 11.604-5.892 19.078-11.404m-183.356-18.314c3.01 1.927 4.592 4.634 6.728 7.561-8.224 2.82-16.25 7.202-24.126 11.02l-2.08-1.677a576 576 0 0 1-13.229-16.501 364 364 0 0 0 32.707-.403m1.162-20.774c7.153.891 14.632 4.05 21.387 6.634 5.722 10.891 10.466 19.509 16.939 30.049-14.847-6.008-29.794-23.485-38.326-36.683M138.499 651.646c8.777 1.264 21.106 4.715 29.982 6.935 3.299 7.645 5.637 19.574 9.447 28.952-1.797-1.37-4.035-3.979-5.715-5.629-10.863-10.676-21.611-20.955-33.714-30.258M1759.26 819.075l.23 1.382c-7.34 16.299-21.44 29.525-36.56 38.687l-.17-1.008c9.18-18.614 17.78-29.599 36.5-39.061m149.19-170.157 1.72.491c-2.14 2.897-7.56 6.86-10.5 9.29-10.87 8.998-18.61 14.112-26.68 25.656l-.79.414-.78-1.036c1.16-6.782 5.5-18.407 8.57-24.62 8.92-3.743 19.23-7.032 28.46-10.195m-112.86 191.38c-.19 2.165-8.8 14.09-10.92 15.996-7.47 6.742-11.42 9.826-19.01 2.273l-5.24-4.739c10.78-6.42 23.21-9.815 35.17-13.53M941.614 467.437c6.215 2.238 9.226 2.612 12.761 8.176l-.343.98c-3.623-.998-4.99-1.433-8.779-1.689l-1.362 1.214c-.387 8.704 7.661 12.93 13.864 16.676 1.261.761 1.604 6.397 1.729 7.959.898 2.908 1.92 5.405.288 7.862l-2.627-.284c-10.027-6.496-20.43-29.183-15.531-40.894m153.716.376c2.21.036 4.41.1 6.61.192 13.93 7.499-4.86 37.51-14.21 40.427l-.75-1.198c1.43-3.128 5.47-17.568 6.21-17.888 3.29-1.422 13.86-6.957 8.89-16.654-3.3-.44-3.76 2.825-7.88 3.018-.68-2.58.4-5.197 1.13-7.897M453.19 271.066c4.512 9.174-24.284 18.968-31.406 22.336l-.951-1.365 1.051-5.136c4.016-6.071 23.888-12.9 31.306-15.835m-101.818 78.469c7.759 2.233 16.145 6.416 23.57 9.867l-6.343 6.269-7.965 8.171c-3.113-7.036-6.495-16.92-9.262-24.307m67.341 389.826c2.423 13.288 5.504 29.668-4.222 40.071-5.606-17.853-2.711-22.883 4.222-40.071M1591.99 270.648c9.42.87 21.78 6.911 29.89 11.851 1.34 3.544 2.89 7.223 4.31 10.753-17.72-7.265-20.57-9.195-34.2-22.604M321.191 336.476c5.507 1.17 11.594 4.974 16.501 7.838l-5.076 14.448-.884 1.574-1.347-.348c-4.874-6.043-8.66-15.773-9.194-23.512m13.797 405.171c5.485 6.046 9.349 26.26 8.657 34.447-3.382-1.66-6.664-5.805-9.291-8.71.733-9.613.844-16.085.634-25.737m1368.472 20.648c3.22.681 7.93.076 11.35-.186-3.93 6.562-4.99 8.766-10.39 14.251l-2.1 2.01c-2.93-2.43-3.42-6.501-3.26-10.217.22-4.954-.14-4.664 4.4-5.858m-1475.841-30.39c1.516 2.044.752 5.501 1.142 8.12 1.018 6.849-11.642 17.94-16.99 23.573l-1.01-.515c5.983-9.785 11.268-20.948 16.858-31.178m1586.021-6.27c4.68 5.638 21.96 27.495 22.55 33.552-3.29-2.601-16.1-17.279-20.65-21.903zm-189.69 35.928c3.34.097 5.96-.259 8.54 1.629 2.35 5.076.64 10.262-.24 16.262-6.35-6.115-11.28-8.606-8.3-17.891m53.14-401.837c6.29 2.358 16.26 13.516 20.87 18.904 3.01 3.502 2.66 2.898 2.27 6.49-.64.158-1.98.167-2.63.198-6.44-10.286-12.02-17.066-20.51-25.592M252.455 276.685c3.104 3.443 7.214 9.087 9.076 13.465 1.156 2.719-.287 4.305-1.605 7.021-.348 1.094-.087.564-1.373 1.388-1.808-2.132-5.818-18.684-6.098-21.874m767.725 394.001c.35 1.035.28 7.689.07 8.72-1.04 5.043 2.42 18.612.74 22.044-4.63-12.059-4.33-18.499-.81-30.764"/><path fill="#9a9a9d" d="M1630.35 735.715c.78 3.536 1.48 4.083.55 7.219l-3.13.884c-1.33 3.306-.11 8.349-.45 12.463-1.85-4.427-5.13-12.839.99-15.31 1.44-1.742 1.38-2.227 1.89-4.543z"/><path fill="#fefefe" d="M1025.27 673.767c3.11 4.062 1.54 14.478 1.18 20.037-3.23-4.757-1.66-14.153-1.18-20.037m686.94 58.904c1.08 4.295-1 11.539-2.51 15.694-2.11-5.3.54-10.49 2.51-15.694"/></svg>