<svg xmlns="http://www.w3.org/2000/svg" preserveAspectRatio="xMidYMid meet" viewBox="0 0 2048 1462"><path d="M1373.63 374.606c.91-3.112 2-6.168 3.27-9.151 12.87-29.788 54.11-26.811 62.31 4.031 2.07 7.799-1.27 12.227.6 18.183 25.4 14.572 28.64 36.693 26.45 63.132-.4 5.897 6.03 6.359 9.45 10.177 14.64 16.351-6.5 54.632-16.83 69.696-1.98 2.893-8.71 1.22-12.22 1.186-.74 1.21-1.33 2.426-1.78 3.78-2.87 8.526-4.36 23.757.39 31.74 16.31 27.423 89.47 29.007 119.97 72.996 4.89 7.066 8.12 15.024 10.35 23.299 6.03 22.361 8.52 46.462 12.17 69.35 5.2 33.909 11.11 67.705 17.73 101.367 1.86 9.694 1.93 24.005 6.66 32.517 3.02 5.453 84.54 47.262 96.03 52.376 6.02 2.674 12.22 5.314 18.82 6.035 18.95 2.07 53.49-6.73 68.03-2.778 9.51 2.584 17.76 7.618 26.77 11.414 8.29 3.492 17.68 6.023 25.43 10.576 6.98 4.11 8.54 9.869 10.41 17.22-2.04 5.725-3.41 10.561-9.02 13.997-27.19 16.638-59.5 11.931-89.42 9.885-17.34-1.186-30.99-1.661-47.52-4.681 7.46 3.998 15.67 8.576 22.21 13.932a55.8 55.8 0 0 1 20.57 38.185c.47 5 .06 10.6 1 15.47 1.27 6.56 10.39 6.4 15.77 7.15 11.98 1.66 23.6 4.49 35.45 6.84 42.58 8.47 118.17 24.86 152.37 51.81 7.79 6.15 14.39 14.02 15.48 24.21.87 8.13-1.93 16.17-7 22.47-27.25 33.88-128.81 53.38-171.97 61.89-16.17 3.19-32.67 7.23-49.05 9.04-5.78.64-9.87.75-14.64-3.02-1.35-2.98-1.33-3.08-.73-6.39 1.9-2.64 2.09-3.37 5.67-4.08 61.93-12.17 125.7-22.74 184.91-45.17 18.51-7.01 32.21-14.88 40.05-33.51-1.29-2.55-2.76-5.13-4.53-7.38-25.09-31.87-163.57-57.62-206.9-62.37-3 4.27-6.07 8.5-9.21 12.68 16.47 4.75 80.35 20.75 91.26 31.97.65 3.8.95 2.41-.6 5.6-14.8 11.36-78.24-26.44-101.91-23.35-13.88 1.81-11.58 4.66-25.42 8.96 20.97 4.53 57.42 18.82 25.04 44.33-17.97 14.15-58.67 19.14-81.95 22.95a1339 1339 0 0 1-121.19 13.07c-21.98 1.55-42.63 3.8-64.86 4.59-59.29 1.77-118.62.71-177.81-3.18-44.78-2.53-90.32-5.63-134.74-13.21-19.3-3.29-50.34-10.54-67.1-21.77-4.73-3.17-10.43-11.81-13.87-16.75-.13-3.68.04-7.84.1-11.56 11.17-11.14 12.54-12.13 27.12-18.14-8.98-3.78-14.45-6.02-22.84-11.01-9.96 2.83-21.99 5.3-32.1 7.86-10.24 2.59-53.728 23.18-58.979 12.47 2.436-15.12 67.019-27.74 74.819-33.64-2.14-3.26-6.55-8.34-10.23-9.83-23.25 2.3-60.725 11.74-83.405 19.81-3.319 1.18-12.927 10.93-19.753 14.62-11.817 6.37-29.965 10.61-39.944 15.72.4 4.18 7.002 7.91 8.899 14.11 5.562 18.19-16.715 28.61-31.317 32.74 2.131.41 4.255.86 6.371 1.33 9.697 2.19 29.474 7.97 38.066 11.33 19.082 7.45 101.423 23.1 110.703 37.84l-.43 1.43c-10.47 5.67-65.041-11.12-79.622-14.71-20.211-4.96-71.297-19.64-84.337-34.52-42.761 9.38-88.426 13.31-132.105 16.32-3.523.25-10.389.09-12.528 2.84 2.974 3.2 4.286 3.85 2.536 7.94-5.37 3.14-20.314 6.35-26.625 7.58 26.232 6.06 52.934 9.61 78.835 16.59 5.972 1.61 21.976 1.41 23.304 7.43-8.632 11.94-84.483 9.78-109.209 23.35 10.417 3.04 21 5.48 31.697 7.3 13.945 2.51 82.343 11.65 89.807 18.59v2.04c-7.905 8.94-107.018 6.5-124.948 9.45-6.338 1.04-16.679-.34-23.284 2.47-3.727-.75-10.912-.97-14.255 1.21l.106 1.6c3.759 2.08 9.739 1.54 13.17-1.02 5.849 4.84 22.573.97 29.554 9.14-.323 1.51-.225 1.95-1.339 3.16-5.942 6.45-66.437 8.12-79.467 9.12 8.964 1.02 33.103 3.03 37.692 10.63l-.502 1.96c-7.649 6.31-28.922 5.91-38.89 6.33-23.053.9-46.12 1.4-69.191 1.49-20.997.24-42.195 1.2-63.161.71-6.31-.14-26.019.27-27.265-6.51 9.366-14 107.082-6.72 125.177-15.33-6.366-11.22-63.612-12.04-71.133-22.11 3.825-7.5 33.82-5.47 39.897-10.27-5.981-5.92-59.862 1.31-68.148-7.7l.597-1.78c15.561-11.43 76.477-4.12 97.665-4.41 5.808-.08 18.796 1.23 23.932-.68l-.037-1.18c-11.358-6.03-62.764-10.18-67.904-19.68 1.74-7.99 19.392-9.72 26.803-12.03a310 310 0 0 0-45.489-10.74c-8.12-1.28-40.98-4.31-44.107-9.76 3.353-9.71 47.127-3.65 56.995-9.35-5.717-2.08-12.55-2.89-18.533-4.05-41.184-8.04-162.157-10.88-189.319-37.17-6.404-6.2-7.941-12.76-7.995-21.41 8.645-12.96 16.148-16.29 29.832-22.35-11.869-2.45-24.156-4.73-35.668-8.42-23.985 5.02-48.953 11.65-71.963 20.04-3.964 1.45-12.834 1.16-13.276-5.08 7.117-16.32 60.262-20.13 67.938-27.09-7.111-7.61-9.033-10.04-14.737-18.58-46.452 9.7-159.69 27.22-183.94 70.03 19.471 35.93 102.583 52.33 140.871 61.87 14.743 3.68 34.435 4.9 48.975 10.96 2.054.85 6.538 5.3 8.3 7.03-6.168 1.07-12.674 2.02-18.936 1.78-41.114-1.54-154.075-30.94-181.829-61.21-5.57-6.08-9.277-13.34-8.833-21.79 2.304-43.89 124.813-69.82 160.208-77.15 7.025-1.45 24.765-1.84 29.882-5.52 3.85-2.76 2.798-14.88 3.95-19.58a97 97 0 0 1 5.357-15.72c6.376-14.48 16.577-26.06 28.336-36.436-31.311 3.876-64.479 7.436-94.996-3.162-12.181-4.228-17.084-15.844-10.791-27.457 4.472-8.253 17.402-10.616 25.906-12.71 4.682-6.017 7.095-6.667 13.449-10.368 24.947-14.532 45.85 3.245 73.022-4.94 35.824-10.792 73.734-32.873 110.113-39.501 7.164-59.639 6.939-120.874 15.694-181.06 4.221-55.418 21.04-88.876 75.901-108.477 29.632-10.587 4.017-47.214 4.424-67.424.643-31.89 22.146-60.415 28.816-91.701 2.526-11.848 16.042-29.474 28.263-34.357 13.757-3.14 18.081-5.505 29.583-14.75 10.062-7.163 32.885-6.295 45.13-.501 30.696 14.525 54.582 64.723 53.599 97.903-.847 17.544-5.201 40.023-5.042 54.969.088 8.266 14.734 38.721 18.984 49.431 4.271 1.914 10.551 4.181 15.035 5.787 33.85 12.06 50.4 39.049 57.949 72.747 12.496 55.782 18.632 112.69 27.364 169.124 1.502 9.713 3.862 40.179 8.091 46.967 15.928 9.421 90.611 32.595 112.572 39.579 5.043 1.604 20.542-1.479 26.32-2.174 12.905-1.552 27.81-14.869 39.743-14.882 18.87.198 37.7 6.693 56.52 7.886 7.81.495 22.73-10.305 30.16-14.62a2182 2182 0 0 1 38.95-21.688c13.37-7.19 44.67-19.529 53.98-27.748.87-28.671 5.49-61.009 9-89.999 4.77-39.421 6.99-95.257 25.96-129.671 22.81-41.375 84.37-42.692 117.71-69.534 10.75-8.648 6.03-30.692-.2-40.869-.04-.074-13.36 1.016-16.91-4.171-3.65-5.073-8.47-15.626-11.11-20.666-9.81-18.761-16.36-34.29.11-51.395.8-.833-.31-14.425-.15-18.41.62-15.38 5.96-31.612 17.53-42.451 13.62-11.19 26.96-21.96 45.05-21.725"/><path fill="#fff" d="M721.574 617.584c27.206 10.011 44.318 23.611 53.29 52.131 10.505 33.392 14.102 67.517 19.447 101.915l14.879 98.986c1.318 8.808 3.162 32.03 7.259 37.583 11.929 7.887 106.566 39.068 125.887 43.35 8.599.886 18.141-1.646 26.687-1.563 3.574.035 18.67 1.488 20.506 3.305-5.664 2.339-13.04 4.374-17.925 7.691-8.713 16.264 25.014 12.371 30.536 13.665 3.97.931 25.24 2.268 26.12 2.607l-.39 1.046a38 38 0 0 1-4.75 1.97c-56.542 18.854-129.616-8.602-185.591-21.207-22.813-5.137-58.136-10.169-78.203-19.93-13.977-31.9-12.889-88.114-13.216-122.912a2162 2162 0 0 0-1.183-47.971c.043-10.768 2.76-41.14-6.678-46.148-3.394.301-3.503.545-6.252 2.797-.875 1.572-1.311 2.26-1.267 4.148 1.274 55 1.572 109.947 1.54 164.955-.013 22.132 2.575 44.18 2.921 66.1-.959.496-2.397 1.387-3.317 1.746-47.049 18.413-98.229 22.228-148.258 18.292-26.511-2.086-51.296-9.397-76.535-17.484 23.396-41.786 20.089-103.76 23.283-150.262.71-10.333-2.732-29.321-.602-38.451l1.566-.293c1.291 1.827 2.601 4.033 3.944 5.707 14.883 18.557 32.217 2.881 49.146 8.149 11.546 3.593 21.999 15.795 36.407 12.89 14.806-1.804 29.984-23.545 44.622-23.062 22.826.754 42.648 12.489 51.289-18.67 7.928-28.588-15.856-56.531-14.266-80.798 1.282-19.569 17.913-34.207 19.104-60.282m-210.943 7.269 1.677.424c.108 3.027-2.944 13.049-3.866 15.762-6.488 17.211 1.071 31.654 6.974 47.746 5.527 11.163-2.748 27.041-1.651 36.463 4.376 37.569-4.843 67.352-11.601 104.284l-14.263 75.062c-1.727 8.708-5.68 31.872-9.312 38.93-9.066 6.415-53.954 14.006-67.929 17.171-48.642 10.935-96.985 22.326-146.714 27.339-9.153.923-22.515-3.48-32.72-2.086-4.118.562-20.191-5.836-19.585-11.808l1.81-.735 4.097 1.867c.561.145 7.204-.96 10.85.486 8.234 3.266 44.733-.386 43.83-12.786-6.304-7.526-20.465-5.456-26.417-7.631l.27-1.273c2.908-1.86 1.388-1.581 4.688-.991 4.966-2.703 18.092-2.836 24.186-2.791 8.404.062 24.798 4.825 32.551 3.158 32.48-6.985 62.517-23.981 93.778-34.803 11.11-3.879 20.301-5.14 30.937-8.944 2.738-.834 4.911-4.707 5.081-7.436 2.583-41.541 6.625-82.941 10.759-124.367 3.431-34.388 3.485-69.935 13.067-103.305 6.889-23.991 28.221-39.135 49.503-49.736M1670.75 1115.55c11.41.66 50.15 2.6 51.29 18.36-2.66 6.72-14.56 10.9-21.13 12.55-61.87 15.5-127.12 21.21-190.61 25.09-35.44 2.16-69.65 5.18-104.98 5.21-34.81.33-69.57-2.48-104.27-3.54-61.08-1.87-117.43-6.21-177.28-19.05-12.6-4.01-32.09-10.13-40.29-20.95-1.34-6.21 4.15-5.77 8.84-8.29 20.32-10.94 36.56-4.92 57.43-1.9 45.98 6.64 89.25 22.86 134.98 30.07 36.67 5.73 73.65 3.86 110.41 3.47 49.61-.51 99.53-.48 148.21-12.13 42.35-10.13 84.65-20.06 127.4-28.89m-784.126 10.95 1.162-.19c18.593 10.54 11.331 21.45-5.487 26.54-32.366 9.79-68.095 12.61-101.374 16.06l-96.243 9.74c-28.846 2.78-62.108 7.15-90.617 8.24-11.437.43-41.587-2.06-54.161-2.77-54.636-3.08-148.558-3.22-197.332-23.76-4.736-2.37-10.162-4.75-12.829-9.38-.974-8.75 8.499-10.1 14.858-12.57 24.82-9.74 46.849-3.32 71.349 3.73 70.629 20.34 142.842 25.93 216.047 25.16 22.174-.23 43.593.94 66.12-.55 64.965-4.27 125.351-28.3 188.507-40.25m542.226-584.391c2.1 2.513-.59 17.174 2.66 25.479 6.87 17.525 25.94 25.843 41.8 33.275-13.22.768-34.27.571-47.93.771-15.04.22-49.45.932-63.11-1.543-13.41.166-28.3-.359-41.98-.383 12.04-4.584 24.26-10.156 32.96-20.374 6.79-7.983 4.54-23.151 3.54-33.196 4.67-.983 15.96 1.301 21.3 1.498 10.7.395 42.65-.096 50.76-5.527"/><path fill="#fff" d="M1079.59 981.263c1.72-.403 3.06-.301 4.81-.293-.81 3.432-35.45 16.351-40.19 57.51-17 1.13-53.873 5.93-69.468 10.2-3.544-11.84-5.342-16.94-11.967-27.42-3.819-4.6-26.683-24.407-26.648-24.328l1.394-.916c3.692 1.617 11.367 2.007 15.733 2.385 22.416 1.939 42.311 3.299 64.306-2.769 7.77-2.147 25.16-11.096 29.85-11.949 9.6-1.749 19.38.356 32.18-2.42m624.51-47.888c12.21 3.959 20.63 6.088 33.65 6.365 28.55.609 45.03-10.762 70.89 3.866-8.04.649-23.74.285-28.25 7.527-.49 12.443 44.65 10.424 53.68 10.289 3.78-.826 7.87-3.949 10.71-.533-.55 1.206-1.03 1.979-2.08 2.832-23.04 18.788-114.93 5.426-145.56 1.587 1.83-10.143 4.7-21.761 6.96-31.933m-696.14-.21c26.4 2.13 47.92 13.441 72.38 4.655 4.46 6.437 9.51 18.875 14.03 26.858-4.51 1.582-8.36 3.258-13.14 3.336-10.89.918-40.83 3.231-49.01-3.537.47-.338.94-.686 1.4-1.041 3.58-2.785 3.9-3.659 4.39-7.412-4.47-10.265-15.99-6.426-24.99-9.586-1.01-.353-.13-3.706-4.39-6.39-4.96.187-6.12.218-10.905-1.161l-1.065-.313zm-637.705 60.796c21.468-.485 100.044 5.377 113.185 20.649.475 3.23-1.247 5.75-2.714 8.85l-.026.81c-2.802-.28-14.288-4.42-17.776-5.5-9.779-3.03-19.7-5.59-29.728-7.65-12.817-2.57-52.53-6.55-61.41-9.37-1.948-3.043-1.359-3.839-1.531-7.789m487.422.491c5.967-.481 20.81.025 24.885 4.767.089 3.571-1.136 3.841-3.802 7.231-24.265-2.34-57.037 2.48-80.512 8.28-6.538 2.36-16.08 7.06-21.699 1.22 3.775-16.546 66.223-20.47 81.128-21.498m765.533-7.954c3.84-1.336 28.69.524 28.63 7.721-4.32 4.076-9.27 3.639-15.21 3.913-23.02 1.061-44.89 3.718-67.3 9.228-5.18 2.62-16.57 10.02-21.33 5.56 2.17-19.549 58.79-25.676 75.21-26.422m-473.74.101c27.63-2.907 60.43 2.858 86.45 12.439 4.16 1.532 18.45 11.192 17.71 16.542-3.41.99-3.56.27-7.35-.87-30.14-14.3-60.74-17.882-93.82-17.764-5.34.019-11 1.197-12.92-4.953 1.64-3.89 6.14-5.057 9.93-5.394m130.6-125.953c2.96 8.351-6.55 62.61-9.42 73.3-1.63 6.122-4.45 15.204-6.23 21.571l-14.2-3.615c-2.41-.985-1.45-.225-2.94-2.391.35-4.114 6.3-11.405 8.58-15.54 12.41-22.469 18.52-48.29 24.21-73.325M513.935 839.6c5.615 10.977-6.663 80.426-11.123 94.569-2.691 8.532-8.428 23.192-10.423 31.617l-.254 1.103-16.93-3.95-.844-.708c1.059-2.308 9.903-5.029 12.87-6.158 9.461-13.374 10.478-28.654 13.509-44.35zm-81.51 131.591c2.207.649 7.479.321 11.819 1.252 16.497 3.539 29.206 7.055 44.881 13.106l-4.131 8.987c-6.84-1.771-13.996-4.25-20.751-6.442-9.738-2.907-59.331-8.707-60.648-9.675 4.321-2.536 20.555-4.422 28.83-7.228m376.735 1.372c4.195-.933 27.891 3.779 30.551 5.988-3.309 1.179-7.274-.031-11.885.682-12.621 1.952-24.824 3.57-37.081 7.265-5.179 1.823-21.931 10.644-25.503 9.201-8.627-15.308 34.657-22.755 43.918-23.136m707.95-95.057c4.83 2.076 4.94 11.737 5.68 16.454 2.38 15.065 8.37 29.494 13.78 43.666 1.4 3.665 5.16 9.432 5.39 12.633l-13.85 2.901a251.8 251.8 0 0 1-11-75.654m77.2 86.899c4.76.577 13.03.608 15.8 4.366-.98 1.589-2.25 2.386-4.23 2.54-19.97 1.548-35.49 4.262-54.14 12.018-4.15 2.072-8.73 5.19-13.29 3.35l-.63-2.001c6.89-15.024 41.69-19.33 56.49-20.273m-399.7 2.773c19.26.213 41-.988 56.86 11.084 3.83 2.921 5.65 3.459 6.69 8.274-1.91 1.841-1.04 1.311-4.5 1.297-17.24-7.322-42.45-14.24-60.96-14.877-3.13-.108-2.91-.064-4.31-1.748 2.36-2.551 2.93-2.599 6.22-4.03m-162.62 87.202c3.26.2 6.77.06 10.05.02 1.29 2.29 1.01 1.03.37 3.96-3.06 1.13-21.78 3.34-26.61 4.13-10.9 1.78-19.771 3.79-30.573 6.44-3.774.34-7.376 3.27-10.641.3 2.832-9.59 46.874-12.89 57.404-14.85m283.87-583.507c8.01 4.257 12.7 30.88 16.21 39.481 2.01 4.926 2.35 7.363-.17 11.949-5.43-7.959-15.72-28.528-18.16-38.096-1.4-5.495-.77-8.675 2.12-13.334m148.25-5.346c10.38 9.428-5.33 41.566-11.16 51.521l-1.13.42-.81-1.553c1.24-11.4 7.21-41.389 13.1-50.388"/><path d="M1360.69 72.5c12.56-1.771 35.83-.686 48.48.02a423.44 423.44 0 0 1 240.38 93.088 427.08 427.08 0 0 1 157.88 288.761c13 113.088-25.28 234.541-96.56 322.403-12.94 15.957-59.85 70.014-77.9 72.025-3.33-1.108-2.13-.076-3.74-3.204-.06-12.001 18.25-22.51 27-30.657 126.4-117.758 177.31-311.245 108.27-473.299a416.7 416.7 0 0 0-230.49-227.213c-171.41-69.157-365.7-8.127-472.03 140.888-23.89 33.486-39.11 64.391-54.48 102.589 5.31 10.271 12.04 36.321 14.62 48.148 18.65 85.563 11.85 150.205-9.58 232.93 8.91 18.74 15.6 37.648 25.55 56.699 18.92 36.627 44.77 69.866 72.44 100.261 5.55 6.094 28.79 21.247 19.84 29.715-11.82 2.413-23.58-14.494-30.91-22.118-40.63-42.243-71.58-90.05-93.26-144.448-14.6 34.382-30.175 67.98-51.571 98.771-11.98 17.239-75.554 97.5-95.999 99.659-2.773.293-3.667-.246-5.738-1.951-2.606-8.422 10.684-18.03 17.188-23.857 42.917-38.448 77.535-82.924 104.023-134.215 10.77-20.853 16.964-38.32 24.113-60.955-25.298-69.347-31.139-152.293-17.405-224.832 8.606-45.459 21.929-39.537 1.006-84.486a402 402 0 0 0-105.219-136.344c-167.42-143.047-418.422-121.063-560.13 47.033-148.086 175.661-120.421 428.63 42.746 583.248 3.763 3.566 6.269 5.183 6.696 10.719-1.316 3.234-.488 2.105-3.698 4.115-10.056 1.292-20.207-12.095-26.919-19.125a477 477 0 0 1-92.206-136.641 431.14 431.14 0 0 1-8.037-333.22 423 423 0 0 1 219.512-230.319c214.137-95.133 453.277 8.819 546.978 220.378 11.37-34.877 45.93-88.721 69.72-116.535 76.91-89.9 172.32-137.958 289.43-148.031"/><path fill="#fff" d="m1001.36 382.798 1.28 1.379c2.68 11.914 8.08 29.914 9.88 40.942 7.55 47.288 9.99 96.717 1.23 144.004-1.99 10.759-3.73 27.839-8 37.296l-1-.124c-4.47-8.714-7.478-27.559-9.607-37.681-13.561-64.47-9.073-122.121 6.217-185.816"/><path d="M1319.84 1222.7c-6.14-1.21-29.08-4.61-32.01-9.91 6.04-8.52 45.19-.75 49.73-2.95l-.56-1.39c-6.11-.66-41.85-9.29-44.68-12.09l.13-1.78c5.59-2.68 63.06 1.52 72.64 2.7 46.14 5.65 88.94 1.25 134.68-5.16 9.76-1.37 20.11 1.17 30.4-1.87 1.3-.38 18.34.56 20.82.73l.44 1.13c-8.54 6.64-32.56 11.15-35 14.38 5.82 8.38 40.85 2.26 43.25 12.1l-1.21 1.97c-16.6 9.73-76.07 4.24-95.09 6.35 4.38 4.78 17.23 4.82 19.57 11.17-3.16 3.94-48.26 5.37-53.55 12.11 10.08 10.44 120.98 13.68 138.75 26.61 3.92 2.85 5.73 3.19 6.48 8.26-3.26 11.56-22.29 6.09-31.07 6.03-22.97-.16-49.96-6.43-72.48-5.38-2.71.11-7.71-.12-9.69 1.27 3.33 1.75 4.91 1.89 8.55 2.57 1.18.04 2.36.13 3.54.26 3.57.38 12.46 2.51 15.97 3.61 10.91 3.44 68.34 13.7 64.17 29.31-11.68 12-67.2 2.11-79.24 5.65 1.81 3.47 11.97 3.57 16.22 9.28l-.75-1.62-.34 2.6.84-2.05-1.67 2.39c-9.28 2.95-83.68-8.2-88.81-14.97 5.29-8.11 41.77-7.16 49.8-12.85-3.75-6.13-101.15-15.67-102.86-26.95 7.06-7.45 56.21-7.71 67.61-8.35 4.09-.23 14.65.32 17.98-1l.21-1.22c-12.14-3.63-77.71-21.24-84.24-25.77l.86-3.37c-6.44-4.54-47.69-4.34-52.58-12.91l1.33-2.22c7.99-5.12 12.63-5.25 21.86-6.67m47.3-1056.124c6.1-.696 17.59-.585 23.84-.379a336.5 336.5 0 0 1 234.48 106.831c65.86 70.545 95.17 155.607 90.7 250.75-.31 6.56-1.1 15.906-10.03 14.882-5.68-4.254-4.42-18.692-4.06-25.159 7.28-131.164-76.05-256.852-196.01-307.681-23.41-9.919-49.06-15.953-73.92-21.154-6.94.634-30.7-3.625-41.12-3.694a304.5 304.5 0 0 0-152.8 39.268c-79.63 45.753-135.77 123.5-154.14 213.475-2.68 12.926-4.79 24.527-5.91 37.772-.9 10.773.5 22.714-2.22 33.066-.91 3.441-2.27 4.355-4.96 5.691-3.81-.585-7.15-3.438-7.25-7.489-1.99-78.141 24.43-148.647 70.55-210.567a319.2 319.2 0 0 1 170.43-114.906c21.11-5.591 41.09-7.609 62.42-10.706m-761.383 9.931c1.223-.354.18-.137 1.377-.186 162.201-6.585 306.301 114.488 330.25 274.492 2.417 16.15 8.468 83.793.106 95.355-15.721 8.198-11.778-15.174-10.895-22.836 1.811-15.719 1.519-29.85.242-45.541a313.8 313.8 0 0 0-61.174-163.515 304.03 304.03 0 0 0-200.586-119.727c-11.888-2.025-33.023-3.55-45.182-3.487a301.7 301.7 0 0 0-194.791 71.196 318.66 318.66 0 0 0-108.757 187.28c-3.551 20.629-4.852 41.58-5.716 62.463-.19 4.607-2.532 10.447-8.005 9.351-7.439-6.993-5.264-22.456-4.788-31.767a340.2 340.2 0 0 1 29.438-122.509c47.535-104.156 146.248-175.274 257.511-188.904 5.954-.729 16.721.234 20.97-1.665"/><path d="M1375.11 247.247c11.99-1.028 24.84.902 36.62 2.034 127.79 12.204 226.02 131.508 220.3 258.539-.63 13.966-7.44 69.99-17.67 77.972-3.04 1.011-3.14 1.041-6.07.036-2.13-2.652-2.82-4.406-2.68-7.996.39-9.992 5.37-21.845 7.7-31.69 2.42-10.226 3.23-21.263 3.79-31.744 3.79-71.066-17.78-127.975-65.27-180.544-32.31-35.76-91.96-68.539-140.69-70.623l-.99-.035c-16.22-2.669-38.38-1.52-54.71.798-133.88 18.999-223.57 159.217-184.71 288.751 2.24 7.447 11.08 25.689 5.76 32.441-9.17 1.595-12.03-9.137-14.43-15.978-25.13-71.446-14.28-152.328 27.78-215.189a237 237 0 0 1 140.24-99.26c16.78-4.18 28.95-4.339 45.03-7.512m-767.968 11.221c26.901-4.562 85.322 9.981 109.603 21.016 104.017 47.277 159.739 160.367 137.549 271.764-1.691 8.489-6.614 51.051-21.083 44.219-4.198-6.87 2.656-24.067 4.575-32.069a286.4 286.4 0 0 0 7.131-48.133 229.16 229.16 0 0 0-57.54-166.613c-10.094-11.247-23.571-24.279-35.772-33.28-26.983-19.905-73.896-39.378-107.628-40.943l-1.222-.05a57 57 0 0 0-4.485-.832c-9.37-1.349-21.088-.521-30.548-.146-40.284 1.598-84.952 17.419-117.575 41.532-69.004 50.775-104.189 135.607-91.378 220.315 1.531 9.747 12.834 49.898 12.055 53.971-.444 2.317-.795 2.539-2.681 3.913-11.38.579-13.871-17.353-16.067-25.433-40.852-150.298 57.79-297.197 215.066-309.231m-238.06 976.322c.382-.09 12.23.81 12.818.91 15.243 2.4 101.53.42 108.957 11.46l-1.177 1.69c-10.214 4.55-87.812 2.85-103.328 2.01-11.474-.62-3.385 7.47-9.056 12.44-10.086 8.85-51.29 4.2-65.472 3.58-34.375-5.28-64.572-4.13-100.052-13.03-2.986-.75-8.604-1.59-11.011-3.32-1.242-.89-1.495-2-1.7-3.45-.307-2.18.416-4.72 1.911-6.34 4.154-4.51 77.4 8.19 88.259 9.26 13.051 1.28 26.758 1.72 39.825.76l3.294-10.59c18.13-9.15 28.035-2.37 36.732-5.38m597.367 130.42c16.244 1.03 40.121.25 56.821.21 36.82-.28 73.63-.19 110.44.26 45.37.26 86.68-.27 131.42 8.82-15.31 4.12-33.98 4.13-49.97 4.74l-1.37.2c-8.49 1.12-35.24.93-44.58.94l-91.92-.49c-31.18-.19-62.35-.13-93.524.16-19.708.33-39.451 1.78-59.185 1.34-5.79-.12-14.622.31-15.116-6.79 7.062-11.06 45.21-6.46 56.002-9.13zm-112.222-57.63c19.717-2.56 144.814-1.63 159.683 7.93l-.57 1.44c-18.61 8.67-82.277 1.42-104.824 3.21-5.569.45-16.698.08-22.42-.73-11.112 1.95-32.629.75-45.209.97a458 458 0 0 0-58.116 5.12c-11.758 1.7-36.668 7.7-46.953 3.89l-.395-1.57c4.325-4.35 13.224-5.73 18.938-7.57 33.278-10.67 65.356-10.68 99.866-12.69m16.515-62.19c7.189.44 17.118 2.83 24.329 4.39 26.203 5.68 52.117 4.55 78.818 4.55 23.609-.15 47.221.04 70.821.55 9.74.13 41.14-.74 47.51 4.39l-.25 1.23-2.23.97c-29.62 7.25-68.86 5.13-99.736 5.77-19.818.41-114.772 4.33-122.452-17.22.942-3.59.122-2.3 3.19-4.63m963.518-93.33c4.44 1.18 6.75 6.27 6.23 10.5-10.65 14.51-123.78 32.3-148.02 36.6-4.03-1.39-6.17-2.18-8.78-5.47-.57-6.14 8.27-9.34 13.37-10.45 20.38-3.73 40.91-7.54 61.35-11.05 26.87-4.61 49.92-12.7 75.85-20.13m-134.82 120.48c12.56-1.17 61.43-4.51 66.98 7.46-2.86 17.38-59.81 16.1-72.92 16.03-19.03.01-36.6 1.42-54.63-4.97 11.44-3.72 25.82-5.73 37.76-7.42l.19-.74c-3.75-1.14-12.83-3.28-14.87-6.24l.94-1.55c7.09-3.93 26.19-1.91 36.55-2.57m-626.33-723.949c3.25.349 3.48.601 6.43 2.172 2.53 2.818 8.64 32.387 11.22 40.24a315 315 0 0 0 30.11 66.605c5.43 8.935 18.33 27.416 24.36 37.109 1.22 1.973-2.61 6.818-4.47 8.898-9.79-.285-16.95-15.336-22.07-22.903-20.1-29.672-34.08-62.626-43.95-96.982-2.34-8.14-4.57-16.774-5.48-25.2-.49-4.848.73-6.393 3.85-9.939m-766.835 11.375c2.992.182 3.237.347 6.072 1.465 1.617 1.593 3.3 3.923 3.814 6.174 10.185 44.545 28.108 86.779 55.557 123.541 2.92 3.91 7.045 8.662 8.112 13.089.718 2.975-2.437 6.713-3.657 8.264-24.14-5.124-72.092-113.578-73.095-141.481-.223-6.219-.042-6.122 3.197-11.052m668.869 593.054c14.558-.92 45.076 11.28 61.006 14.63 16.09 3.39 86.41 12.88 93.45 24.98l-.82 2.33c-11.84 4.05-26.51.13-38.76-1.89-36.75-6.06-76.19-10.69-109.373-28.64-5.706-3.09-5.605-5.86-5.503-11.41m-755.494 9.08c7.106-.18 21.596 6.25 29.049 8.87 32.578 11.49 66.477 14.84 99.853 22.72 4.472 1.06 13.34 5 16.096 8.72.099 4.13.317 2.54-2.041 6.75-21.479-.95-135.939-21.33-145.771-38.56-.282-3.67 1.027-5.22 2.814-8.5m1009.58 160.42c4.78.11 5.49-.22 7.88 3.72-5.32 20.52-115.23 20.3-136.17 18.39-4.82-.53-9.03.02-11.35-4.6l1.25-2.25c3.86-2.53 9.75-4.54 14.35-4.65 41.71-.96 82.76-7.09 124.04-10.61m461.75-729.828c5.96.198 11.61 2.69 9.77 9.509-7.74 28.614-34.16 84.864-55.94 103.227-5.54-.286-7.23-.527-9.53-5.438-.2-5.079 2.75-8.648 5.82-12.25 18.15-21.3 30.04-46.562 40.01-72.51 2.34-6.084 5.66-17.836 9.87-22.538m-777.067 11.799c2.123-.037 4.99.2 6.601 1.59 1.573 1.357 2.476 4.188 2.291 6.014-2.485 24.534-37.423 85.764-53.597 101.282-4.808-.034-6.627.313-9.012-4.098-.011-5.728 3.318-10.562 6.629-14.843 13.695-17.509 23.366-35.329 31.96-55.77 3.741-8.9 9.408-27.278 15.128-34.175M1598.49 1232.5c8.48-1.36 40.79-2.35 46.36 4.36l-.53 2.13c-7.99 7.7-24.33 8.03-35.23 9.57-9.65-.09-41.86.03-47.49-6.65l.71-1.52c8.77-6.21 25.66-7.47 36.18-7.89m-320.57 45.75c5.65.45 19.87.25 21.56 5.91l-1.41 2.28c-11.5 7.69-51.2 6.65-65.82 6.62-13.08-.3-15.95-.62-28.43-5.38 20.36-7.67 42.57-6.83 64.02-8.12 3.74-.22 6.42-.46 10.08-1.31m-185 18.26c10.18-.57 59.12-2.38 63.6 5.13-3.32 3.91-18.03 5.99-23.29 6.25-12.87 1.4-53.33 2.59-66.02-2.87-1.4-.6-1.15-1.28-1.53-2.96l1.7-1.96c6.98-2.85 17.81-3.16 25.54-3.59m316.74 64.96c3.87-.49 9.77-.69 11.31 3.37-4.45 14.4-48.17 11.54-60.73 9.33-4.93-.48-9.72-1.37-13.78-4.35l.53-1.66c7.96-4.05 50.63-5.74 62.67-6.69"/></svg>