<svg xmlns="http://www.w3.org/2000/svg" preserveAspectRatio="xMidYMid meet" viewBox="0 0 2048 1152"><path d="M391.717 98.91c6.897-.102 64.306 21.306 75.963 25.244a28116 28116 0 0 1 284.212 96.997c2.381-6.335 9.281-29.26 17.054-33.781 8.502-4.947 28.821 4.639 24.977 15.527-2.461 6.97-6.679 17.049-9.692 25.194 20.126-1.746 46.7-1.032 67.512-1.095l121.438-.099 222.549-.01c22.53.084 50.16-.953 71.84-.412-4.59-11.685-6.1-18.116-9.08-30.366 26-27.266 32.85 8.13 37.65 26.842 13.08-6.377 50.63-17.78 65.96-22.843 41.07-13.863 82.23-27.476 123.46-40.838l108.05-35.604c22.64-7.608 54.59-19.196 77.32-24.266 11.05 2.08 9.6 28.585 10.71 37.931 1.88 15.839 5.3 32.695 5.74 48.464 15.18 9.877 33.88 20.09 49.78 29.173l64.05 36.767.2-.402c25.8-49.923 91.77-22.198 58.5 33.912 19.66 14.092 113.59 62.126 122.35 74.236 1.13 5.26-11.49 28.646-14.44 34.564a3443 3443 0 0 0-22.24 45.03c-74.48 151.893-141.12 308.195-214.82 460.555-3.09 6.385-3.92 11.751-10.55 14.817-6.86-.695-86.44-52.587-98-60.267-.79 1.75-2.19 4.818-3.18 6.335-24.67 37.636-54.21 60.117-96.99 71.159-.54 15.389.85 36.835 1.41 52.738 1.06 7.311.51 25.228.63 33.798 15.51 1.26 32.37 2.99 46.57 9.87 3.52 1.71 13.57 7.34 15.06 11.02.63 1.54.5 3.66 1.29 5.14 3.76 7.04 149.92-2.29 169.4 4.71 2.7.97 4.63 2.86 5.68 5.56.96 2.46.83 5.36-.45 7.69-1 1.83-2.9 3.25-4.95 3.64-7.65 1.47-16.66 1.06-24.47 1.36l-48.08 1.86c-103.01 3.77-206.06 6.08-309.13 6.94l-414.992 2.54-392.65-3.61c-85.779.18-171.553-1.18-257.283-4.07l-61.114-1.6c-11.036-.24-32.438 1.39-42.216-4.24-3.828-2.27-5.668-10.4-1.631-13.05 11.525-7.59 37.934-5.22 51.175-5.16-5.969-28.44-15.277-58.673-22.894-86.928l-29.762-113.718-93.894-360.708a6468 6468 0 0 1-29.972-122.937c-3.04-13.569-10.469-47.316-10.92-59.972 8.217-2.863 27.656-15.233 33.604-16.596 16.889-3.871 50.743-3.864 68.523-4.298-.359-16.765 1.855-46.32 17.523-56.306 27.853-17.751 48.133 15.135 53.591 38.757.65 2.814 1.73 10.566 3.065 12.537 3.239.797 11.587-.698 15.808-.861 8.145-.313 18.732 1.089 26.399-.256 8.893-1.56 23.994-12.814 32.6-13.583 14.163-1.266 29.324-.78 43.872-1.634 3.846-49.447 12.588-98.888 21.286-147.684 1.116-6.256 1.157-9.952 6.599-13.712"/><path fill="#fefefe" d="M811.364 271.616c6.548 2.05 72.008 1.145 82.48 1.122l159.166.213 108.35 1.138c22.51.317 47.07 1.054 69.52.328 1.43 30.228 1.19 61.763 2.34 92.077l7.03 147.005c1.15 29.505 7.92 297.276 4.49 303.224-11.22 1.59-57.99.548-71.92.384-28.43-.335-62.92 1.323-90.66-.192-.21-30.77-4.81-64.596-4-95.939 15.18-15.222 29.37-32.026 30.97-54.688 1.77-24.952-11.88-72.286-28-90.723l-7.47-7.423c14-11.628 21.89-24.996 10.87-43.006-5.66-9.259-14.47-13.97-24.97-16.259-.28-4.357-.52-8.377-1.63-12.639-5.14-19.78-27.34-30.477-46.69-24.238a34.1 34.1 0 0 0-20.264 17.37c-6.237 12.468-3.199 25.479.874 37.984-20.314 10.128-30.259 23.969-15.806 44.582-21.488 13.491-68.408 77.45-68.692 104.114-.22 20.654 35.25 56.01 51.936 68.881-1.168 19.499-5.994 53.603-9.403 73.269-24.717-1.891-58.288.023-83.221.674-19.288.503-39.83-.767-58.913.181 2.789-27.04 1.637-66.503 1.521-94.282l-.145-148.567c.483-78.137 3.025-156.099 2.763-234.127-.086-25.59 1.006-44.361-.526-70.463"/><path fill="#fefefe" d="M1557.65 631.125c15.35 6.21 34.46 23.042 43.87 36.583 26.69 38.388 36.11 76.314 28.4 122.642-7.37 44.358-25.11 76.86-61.5 104.17-27.54 20.669-60.65 29.005-94.98 24.318-6.05-.825-17.16-6.634-25.39-7.924-4.2 1.526-2.99.494-5.33 3.612-1.89 15.501 32.97 18.125 43.88 20.011-1.4 19.414.8 63.916 1.85 84.353-16.32 1.08-45.42 3.64-58.4 14.55-4.56 3.84-4.85 7.13-5.16 12.58l-748.411.58c-2.994-17.75-17.534-57.268-22.755-75.82-13.73-48.782-30.123-97.158-42.604-146.324 18.738 3.217 31.731 7.386 49.715 12.09a4240 4240 0 0 1 67.055 17.431c17.923 4.713 36.611 11.532 54.876 9.699 3.584-.36 8.451.259 12.115.648 30.205-.944 60.588.764 90.806-.111 19.439-.562 38.779-.301 58.215-.057-2.651 21.303-5.258 42.974-7.113 64.381-.275 3.173-.308 5.906 2.038 8.069 4.392 1.239 10.672.408 15.386.08-3.754 22.299-3.109 50.036-5.032 72.944-7.82 8.94-39.08 23.72-43.921 31.34l1.173 1.63c3.787.61 17.579-.34 21.524-1 12.086-2.03 40.126 1.16 49.886-3.96 4.243-6.22 17.099-87.14 19.862-101.418 9.645.523 26.345.605 35.755-.412 2.43 33.005 2.97 69.75 6.32 101.98 16.97-.06 33.96 1.89 50.86 3.05 5 .34 19.5 2.59 23.13.65l.54-2.08c-1.78-4.89-33.84-25.88-40.5-30.41.14-24.894 2.51-48.518 2.36-74.095 2.75.388 5.67.91 8.46.988 1.61.046 3.57-.176 4.69-1.416 5.3-5.866-2.79-59.671-2.89-70.732 43.01 1.539 88.92.985 132.06 1.286 16.3.114 58.82 1.19 73.38-.712 27.06-3.534 58.95-12.207 87.68-16.903 12.61 19.201 28.97 38.278 49.29 49.502 62.32 34.414 137.81 7.633 171.9-52.718a160.95 160.95 0 0 0 15.15-123.463c-10.03-35.696-29.95-62.732-62.34-80.911zM325.169 272.476c3.364-.529 18.095.018 23.189-.114 30.209-.783 60.566.482 90.791.259 6.403 16.525 15.363 50.724 20.406 68.679a3368 3368 0 0 0 26.497 88.651 10729 10729 0 0 1 104.122 361.572c10.764 39.352 24.617 82.261 34.301 120.92-5.802.493-15.224 2.989-21.235 4.413-31.591 4.844-69.14 14.961-102.327 20.484l-1.2-1.02c-6.484-21.799-11.711-44.338-17.125-66.444-8.288-33.835-16.673-67.735-25.183-101.518a18535 18535 0 0 0-47.976-182.162c-26.414-101.388-54.26-204.642-82.622-305.687-1.001-3.566-2.667-4.264-1.638-8.033"/><path fill="#fefefe" d="M1667.26 185.594c21.93 15.13 55.35 33.762 78.98 48.044l179.45 106.115c13.94 8.144 28.21 15.679 42.01 23.867-55 108.512-102.87 215.402-154.28 324.971l-57.81 124.417c-12.92 27.481-28.03 56.77-38.97 84.986-27.89-17.921-59.48-38.162-88.01-54.686 9.58-23.237 10.93-33.682 15.43-58.58 8.09 5.183 36.59 24.885 44.62 24.782 6.91-6.09 41.95-81.21 49.42-96.516l71.84-145.707 60.62-122.223c7.45-14.933 25.99-49.888 30.66-64.377-13.22-10.576-29.35-19.176-44.04-27.693a2477 2477 0 0 1-37.37-22.552c-16.83-10.183-119.95-75.645-130.83-75.487-7.2 8.985-16.16 29.83-21.7 41.056q-28.74 59.286-56.52 119.031l-74 154.802c-9.38 19.791-19.79 39.648-28.42 59.7-23.32-1.172-40.17-.192-62.29 7.415 6.37-16.233 16.37-35.94 23.84-51.879l31.31-67.794c17.73-37.553 36.74-79.71 55.2-116.62l87.46-170.772c7.66-14.862 15.89-29.359 23.4-44.3m-32.89-30.643 1.35.081c3.23 3.441 3.32 44.49 6.93 55.766l-32.39 62.261c-11.19 21.153-23.2 42.696-33.65 64.149-14.1 3.596-30.02 10.308-43.69 15.032-61.73 21.318-104.36 47.528-149.2 95.274-17.17 18.291-45.64 49.55-63.97 65.68-.68.513-.62.271-1.84.273-1.66-4.069-5.83-167.297-6.16-179.012 40.75-12.719 98.48-62.449 130.7-91.339 37.09-33.253 49.78-39.448 96.71-54.659 29.47-9.551 66.45-22.027 95.21-33.506m-719.288 82.533c2.671-.534 13.41.092 17.057.091l57.839.519 175.012-.493c23.74.111 76.64 2.537 98 .074-1.43 22.721 2.28 49.325 2.86 72.326.85 33.912 2.6 67.978 3.54 101.862l7.07 197.14c2.59 82.7 4.05 163.087 7.87 245.969-45.21 1.139-91.07-.813-136.33.353-20.41.526-42.01-2.538-62.55-.299-.89-9.576-1.46-17.075-1.55-26.661 16.41-.061 169.14.842 172.12-2.255 4.61-4.804 2.66-19.727 2.64-26.19-.13-41.154-1.9-82.383-3.29-123.51l-7.04-190.5-5.51-141.212c-.65-21.574.08-43.338-1.07-64.861-.15-2.862-.05-11.036-2.11-12.851-8.13-7.161-72.75-3.344-86.39-3.07-61.1-2.991-123.05.256-184.201-1.619-25.346-.777-50.881-.127-76.249.094a964 964 0 0 1-43.845-.182c-13.787-.396-31.871-1.55-45.303.107-5.62 7.44-3.819 26.922-3.952 36.777a3953 3953 0 0 0-.128 78.679l-1.324 186.227c-.516 63.764-1.771 127.769-.385 191.573.487 22.426-1.769 49.978.469 71.987 5.295 3.568 129.966.591 149.25 1.475-.173 7.323-1.765 17.294-2.749 24.784-36.258.689-72.411.044-108.65.216-18.715.09-38.376.882-57.013-.305l-.933-1.088c-1.715-44.716 1.291-94.199.795-139.353-.902-82.23-1.978-164.562-1.082-246.789a5742 5742 0 0 1 2.625-159.981c.411-19.599-.615-50.06 1.121-68.361 12.764 1.086 42.9.205 57.31-.219 21.624-.635 56.068 1.485 76.076-.454m603.498 212.46 1.05 1.52c-1.99 6.367-5.14 10.788-7.73 16.67-25.38 57.652-54.95 114.655-78.71 172.973-4.38 3.09-9.94 5.857-14.54 8.965-54.76 36.998-68.58 94.531-56.07 156.349-11.75.433-24.43 4.556-36.1 6.484l-1.42-1.081-3.81-171.476c-.36-23.113-1.86-48.226-1.25-71.122 19.84-16.432 38.67-31.182 61.2-44.031 24.76-14.119 52.41-25.579 77.09-39.673 21.65-12.357 37.08-24.651 60.29-35.578"/><path fill="#fefefe" d="M1650.35 120.08c.47.007 1.44.404 1.95.58-.96 3.592-11.86 17.753-15.03 22.346-22.23 9.353-51.93 18.136-75.3 25.893l-145.38 48.885c-35.63 11.71-85.59 26.936-119.48 42.323-.99 10.911-.12 34.094.21 45.572.66 25.996 1.66 51.983 2.98 77.953 7.08 144.714 6.84 289.152 12.71 433.764.34 8.513 11.47 6.219 17.14 5.167 11.55-2.141 23.44-4.117 34.8-7.073 1.74 4.855 5.73 13.127 7.96 18.071l-24.14 4.522c-17.02 4.187-37.11 8.224-54.37 11.239L1282 457.079l-5.03-141.173c-.93-24.165-2.5-47.569-2.94-71.846 30.01 6.662 15.23-8.018 32.84-13.929 73.64-24.716 147.9-47.03 221.79-71.027 39.7-12.894 81.73-27.731 121.69-39.024M103.363 299.031c.116.034.249.034.348.103 3.344 2.326 23.089 88.206 25.997 99.781l126.813 490.156a4356 4356 0 0 0 22.707 85.278c6.564 23.051 14.814 49.091 19.993 72.311l-23.471.03-3.18-.13c-.985-.79-1.262-.94-1.585-2.23-44.266-177.138-94.503-352.918-139.752-529.752L95.915 373.274c-5.69-22.435-9.677-41.865-16.656-64.198 6.185-1.709 17.788-7.235 24.104-10.045"/><path fill="#fefefe" d="M1459.15 650.091c20.74-2.413 44.38 30.891 53.97 46.153a378 378 0 0 0-32.37 9.084c-6.7 2.191-18.52 5.206-21.67 11.412 2.58 5.22 6.11 4.734 10.95 3.459 16.29-4.288 32.54-8.36 49.04-11.803 8.61 14.366 17.47 44.804 22.57 61.703-10.79 2.382-33.29 6.202-42.87 11.996-1.63.986-1.38 2.573-1.47 4.263 3.57 6.539 9.16 6.071 15.86 4.83 11.12-2.059 22.24-5.09 33.11-8.19.44 7.416 2.35 17.433 3.21 25.188 1.63 14.736 1.86 26.332 1.31 41.045-1.86 14.639-3.93 34.736-21.99 37.887-25.84 4.509-34.31-42.627-42.41-59.517-5.83-12.16-11.04-22.954-18.34-34.281-16.99-27.157-34.72-23.306-60.46-32.634-6.91-2.503-26.03-14.746-33.32-19.244 11.44-47.152 37.14-77.85 84.88-91.351m-426.9-84.67c39.43-6.052 55.12 48.14 61.33 77.358 6.31 29.74-.79 40.042-16.93 63.462-4.18-26.534-2.71-57.253-5.92-84.182-.47-3.95-1.95-4.947-4.95-6.609-4.61 1.146-5.79 5.123-5.57 9.614 1.6 33.438 3.18 67.254 4.91 100.676-20.85 5.383-72.129 8.966-93.808 9.13 1.692-8.73 3.225-26.353 4.355-35.649 1.412-13.586 2.761-26.891 4.638-40.429 1.249-9.013 6.376-34.718 1.806-41.467l-1.949-.221c-12.787 7.672-6.756 28.168-13.177 37.541-1.557 2.273-24.282 15.357-25.085 19.839-1.573 8.773 14.748 35.198 19.415 43.467-.504 3.536-.7 8.723-.955 12.412-9.397-9.382-42.52-42.989-41.088-55.967 1.54-13.966 32.529-59.745 42.951-71.992 21.946-25.79 37.089-34.416 70.027-36.983M312.793 278.036l.917.354c4.898 4.602 133.569 497.421 145.917 544.038 3.245 12.251 16.564 69.298 20.808 86.001 11.334 44.611 24.248 92.761 33.091 137.641l-21.325.27c-1.257-2.49-7.192-30.59-8.514-35.83l-32.67-128.645a16745 16745 0 0 0-118.51-450.802L303.83 328.354c-4.085-14.131-6.813-27.469-12.123-41.26 7.317-2.897 14.072-5.471 21.086-9.058m86.391 456.566c5.765 12.274 17.023 59.257 19.056 74.344.538 3.994-1.976 31.574-2.497 37.09l-6.398 66.731a7898 7898 0 0 0-6.831 81.157c-1.373 17.096-2.359 35.616-4.972 52.446-28.457.01-56.914.21-85.369.59l-2.502-8.86c-.924-4.89-2.578-10.77-4.044-15.54-9.466-30.804-17.819-61.992-27.674-92.661 13.526-2.339 96.511-8.153 102.387-11.81 5.037-12.152 8.288-74.554 10.029-90.323 3.191-28.897 4.715-64.375 8.815-93.164m369.704-486.286c2.174 3.865-.476 116.836-.739 127.597a6218 6218 0 0 0-.925 178.652l-.104 298.875c-12.229-1.744-24.844-6.149-36.886-9.348l-75.557-19.691c-12.728-3.369-34.684-9.912-46.825-11.777-2.675-7.928-5.42-19.149-7.713-27.432 19.008 4.406 133.588 39.433 141.675 36.602 3.122-9.018 2.161-94.241 2.156-109.402l.47-145.018 1.497-243.81c.001-21.002 1.287-40.363.881-61.541 7.007-4.954 14.669-9.329 22.07-13.707m797.472 103.632c.81.182.79.381 1.53 1.039-1.13 6.147-35.24 71.542-40.07 81.356-33.4 12.855-50.51 28.835-79.78 45.224-28.33 15.858-58.84 27.737-87.03 45.716-16.99 10.838-26.81 20.593-42.09 31.759-.73-10.316.16-20.991-.78-30.676 15.89-10.1 44.8-42.638 59.22-58.214 39.22-42.376 77.91-73.726 132.26-95.648 18.59-7.5 37.96-13.391 56.74-20.556M590.314 931.206c1.621-.337 1.772-.145 3.437.1 6.151 6.779 35.001 100.724 38.934 115.064l-84.186.31-20.952.12c-5.445-15.85-9.438-33.49-13.401-49.917-3.839-15.911-8.689-33.185-11.788-49.14 9.807-.213 25.801-3.873 35.798-5.903z"/><path fill="#fefefe" d="M1372.53 750.051c8.87 3.126 25.57 17.017 36.56 20.311 7.02 2.106 13.93 1.772 20.3 3.394 25.68 6.531 41.09 38.083 49.35 61.066 4.33 12.063 6.82 24.438 12.11 36.452 4.21 9.542 10.31 13.262 15.01 20.805l-1.08 1.523a105 105 0 0 1-21.74.933 108.58 108.58 0 0 1-74.85-36.847c-27.53-30.934-38.08-66.998-35.66-107.637M408.873 114.65l217.552 75.626c43.155 14.872 95.774 32.089 137.72 48.777-1.839 1.626-5.393 3.917-7.524 5.387-5.674 3.336-9.803 5.977-16.025 8.257-58.142-18.362-116.712-40.722-174.494-60.441l-99.869-33.77c-12.456-4.342-27.094-8.824-39.116-13.776-5.321-8.57-14.746-21.401-18.244-30.06m17.589 40.796c21.429 5.718 53.431 17.971 75.254 25.41-7.412 27.293-15.828 44.905-33.696 67.501a150 150 0 0 1-6.816 7.334c-3.149 3.192-10.21 11.262-14.332 11.286-1.689-5.319-2.689-5.225-8.1-5.509-8.395-.44-16.961-.46-25.357-.575 2.33-9.995 3.902-24.57 5.281-35.104a1671 1671 0 0 0 7.766-70.343m1031.258 59.716.68.783c-3.76 4.733-18.23 14.535-23.61 19.41-27.27 24.729-90.23 78.929-124.03 88.473-1.89-14.444-1.62-41.925-1.62-56.799 13.85-4.294 31.39-11.708 45.89-16.761zm-858.644 41.025c21.622-4.976 43.165 8.59 48.022 30.239s-8.828 43.117-30.503 47.854c-21.508 4.701-42.773-8.854-47.592-30.335s8.619-42.821 30.073-47.758M426.281 839.621c3.78 3.257 14.338 50.021 16.139 58.167 1.057 4.786-2.485 37.923-3.078 45.096l-5.245 70.456c-.494 6.51-1.405 24.83-3.056 31.93-.22.95-2.378.85-3.791 1.01l-18.595-.03c5.898-55.342 9.251-111.51 14.65-166.946 1.292-13.271 1.553-26.315 2.976-39.683M1580.53 696.332c2.6-.52 5.29-.886 6.99 1.655 10.22 15.296 16.96 41.074 16.43 59.334-16.08 3.433-31.51 5.927-47.73 9.789l-1.1-.191c-2.2-1.75-4.32-11.548-5.33-14.988a255 255 0 0 0-18.65-46.386c16.18-3.204 33.14-6.945 49.39-9.213M397.693 123.412c2.616 1.902 19.167 26.632 18.702 29.605-1.059 6.763-4.349 16.18-5.221 23.362l-9.237 70.845c-.672 5.087-.287 8.546-1.059 13.803-8.691.052-14.598.116-23.174-.931 8-43.862 11.034-92.027 19.989-136.684m226 800.712 2.83-.252c2.801 1.653 3.952 6.305 4.906 9.549 11.086 37.684 22.037 75.359 34.044 112.769l-17.723.18c-1.413.03-1.376-.18-2.823-.74-4.242-8-12.924-37.16-16.387-47.484-7.62-22.714-15.104-47.043-23.708-69.393zm977.767-151.793c2.21-.336 1.19-.546 3.11.762q-.015.927-.06 1.853c-1.67 37.267-19.71 69.386-46.72 94.275.08-3.272.67-7.631 1.14-10.978 2.86-19.963 2.65-40.223 1.11-60.29-.42-5.586-2.3-9.942-2.12-15.825 3.37-3.313 36.39-8.472 43.54-9.797M1485.4 645.372c30.12-4.315 74.45 12.748 92.17 38.207l-17.6 2.669c-12.06 1.435-24.83 4.27-36.63 7.163-6.33-11.304-18.52-28.841-29.53-35.733-5.25-3.287-12.21-6.191-18.12-10.012 2.86-1.945 6.15-1.897 9.71-2.294M201.82 231.886c19.28-1.022 27.846 31.435 31.471 45.791-6.426.281-12.884.891-19.298 1.43-10.625.106-21.498.926-32.123 1.588 1.418-18.367.887-40.639 19.95-48.809m1303.75 799.684c22.11-2.18 49.9 2.28 68.87 14.69-21.39.56-46.29-.03-67.92-.07-23.61.16-47.22.08-70.83-.26 22.5-12.78 44.54-13.31 69.88-14.36m329.19-794.426c27.83-1.989 27.04 24.454 16.16 42.844-2.75-1.262-6.58-3.464-9.35-4.942-7.34-3.911-25-12.13-28.97-19.295-4.82-8.686 15.79-16.988 22.16-18.607M963.48 937.05c7.534-.42 14.55-.222 22.082-.069-3.944 21.72-6.303 44.326-10.134 66.519-.456 2.26-.485 2.13-2.102 3.84-3.696.58-9 1.18-12.092-.99-2.387-13.754 3.911-49.497 2.246-69.3m81.26-.775c5.99-.061 14.87-.865 20.29.501 1.85 2.465-1.8 59.189-2.23 66.064l-.82 1.26c-2.94 1.03-8.63.8-12 .84-3.31-20.235-2.93-47.317-5.24-68.665m620.87-814.521c1.78 3.711 6.3 48.423 6.82 55.127l-.83.662c-2.27-1.808-2.39-2.063-5.15-2.33-6.98 3.023-9.89 11.054-13.44 17.886-.98.888-.73.621-2.03 1.132-1.85-3.725-4.12-37.212-5.51-45.329 5.59-9.698 13.09-18.437 20.14-27.148m-167.23 812.547 11.3-.313c.73 8.759 3.96 78.902.98 83.812-3.31.17-5.38.61-8.37-.75-1-2.35-3.96-76.026-3.91-82.749M447.391 981.733c3.358 3.213 20.8 57.847 20.855 63.767l-1.996.68-24.519.04c3.169-21.11 2.874-43.25 5.66-64.487M628.45 452.946c4.907-.906 9.609 2.366 10.467 7.281.857 4.915-2.46 9.586-7.383 10.395a8.972 8.972 0 0 1-3.084-17.676M450.405 933.787c2.331 2.289 14.942 54.405 15.586 62.027-4.722-7.846-13.907-36.9-16.397-47.383-.372-1.566.587-12.25.811-14.644m513.894-265.269c1.889.618 1.008.11 2.419 1.991-.159 5.408-.938 16.766-3.156 21.646l-1.026-.602c-2.988-5.093-5.252-7.848-8.896-12.388 2.985-3.696 7.145-7.358 10.659-10.647M680.287 375.855a6.307 6.307 0 1 1 1.234 12.554 6.307 6.307 0 0 1-1.234-12.554m1050.223 16.846 1.23 1.788c-.85 4.313-11.56 22.46-14.54 27.713l-1.07-1.69c1.23-7.277 9.13-22.417 14.38-27.811m51.64 115.909.24.681c2.04 5.492-6.45 20.677-9.38 26.292-.98-4.257 6.4-22.997 9.14-26.973M579.922 534.599a4.217 4.217 0 0 1 5.922 4.332 4.219 4.219 0 1 1-5.922-4.332m1147.358-16.583c.62 4.748-4.65 12.567-7.12 16.893-1.66-4.167 4.81-13.471 7.12-16.893"/></svg>