<svg xmlns="http://www.w3.org/2000/svg" preserveAspectRatio="xMidYMid meet" viewBox="0 0 2048 1462"><path d="M1452.02 161.411c34.03-2.821 81.08 3.878 111.55 20.287 22.79 12.271 36.63 27.386 44.04 52.226a128 128 0 0 1 28.9 14.345c17.52 11.783 30.33 28.485 34.12 49.517 5.17 28.745-7.05 52.078-22.51 74.844 20.71 44.336 14.17 81.147-20.76 116.086-18.76 18.768-30.02 15.312-20.25 46.878 51.63 1.803 93.78 11.344 138.87 36.883 39.69 22.485 77.94 61.554 96.82 103.304 9.69 24.954 19.73 52.79 26.33 78.68 27.57 108.142 50.64 218.475 68.47 328.649 4.31 26.62 13.36 75.31 2.04 99.89-7.96 17.28-47.54 33.55-66.35 38.26 16.58 22.69 42.48 41.87 56.26 66.11 1.82 3.2-2.05 11.4-8.54 11.82-17.23 1.11-34.36.28-51.62.07-26.32-.17-52.64-.19-78.96-.07l-327.75-.19-1019.504-2.11-215.745.15-71.922.06c-11.562.01-40.824 2.52-50.305-4.71-8.07-6.15 7.204-21.39 12.056-26.49 14.985-15.76 29.746-32.11 44.475-48.29-13.644-5.31-45.238-18.25-51.185-30.2-15.043-30.23-.514-102.24 4.757-132.66 2.391-15.2 6.449-32.9 9.532-48.12a3980 3980 0 0 1 25.415-117.113 2937 2937 0 0 1 29.54-122.401c11.562-44.073 21.671-87.34 48.736-124.403 22.36-30.62 56.164-56.986 94.073-63.048 17.436-40.02 49.574-90.183 78.066-123.206 34.473-39.954 51.022-54.614 66.983-107.159 14.153-46.593 45.935-89.658 91.077-111.66 90.089-43.907 216.062-1.264 260.886 88.452 19.899 41.051 18.863 102.655-17.388 131.612-1.665 1.33-8.772 23.243-10.285 27.306 41.531 23.153 96.97 50.757 126.143 90.348 11.032 14.972 22.882 50.389 30.094 69.08 24.964 64.698 50.627 130.452 67.081 197.923 7.39 30.292 9.53 56.1 14.06 85.975a2567 2567 0 0 1 24.97 16.468c-1.54-33.358-4.54-69.094-6.18-102.39-2.81-57.068-7.2-82.466 29.51-130.935 41.18-54.363 92.42-101.637 161.41-116.257 21.8-4.619 37.17 15.856 22.04 33.365l-.79.911c4.42.259 8.84.973 13.23 1.594 33.22-23.032 45.79-32.782 84.95-42.831-28.44-21.08-38.09-39.656-50.19-71.847-22.77-3.434-41.74-24.559-42.2-48.803-.13-6.962 8.82-12.744 14.21-16.992-17.6-9.328-29.44-19.18-37.13-38.274-10.85-26.922-9.7-65.911 1.71-92.37 12.6-29.188 29.39-41.124 57.31-52.692 18.54-66.192 85.39-100.905 149.85-105.872"/><path fill="#fefefe" d="M1610.78 555.749c11.09.47 30.13 2.61 40.84 4.234a232.23 232.23 0 0 1 152.65 91.973c7.72 10.56 15.65 22.48 20.39 34.725 14.23 36.758 24.93 76.811 34.54 115.02 14.5 57.636 73.2 327.709 65.92 365.719-1.21 6.34-5.9 9.95-10.99 13.39-13.15 8.9-47.12 25.87-62.23 22.52-4.55-1.01-7.59-4.45-10.57-7.8-10.5-11.86-19.25-26.43-28.25-39.48-15.22-22.07-30.7-44.02-45.14-66.61l7.16-55.34c1.24-9.31 2.72-18.63 3.52-27.99 1.09-12.916-3.27-17.444-12.37-25.195 3.6-20.87 8.76-44.305 13.49-64.993a5580 5580 0 0 1 61.32 99.868c7.27 12.06 39.96 70.97 46.85 76.41 2.18 1.73 4.96 2.31 7.69 1.9 3.73-.56 6.06-2.52 8.23-5.47 1.8-11.05-44.83-82.56-53.57-96.51l-64.32-104.347c2.38-13.146 5.34-26.562 8.97-39.411 5.43-19.219-14.73-20.299-28.26-23.118 2.69-14.434 12.76-52.996 11.9-64.616-4.25-7.69-40.39-15.172-47.58-11.997-4.84 4.954-5.63 15.099-6.84 22.152-.19.731-.93 2.411-1.25 3.196.05.006-69.77-60.417-89.44-63.819-20.11-3.477-49.39-32.175-61.22 6.512 2.72 7.364 4.96 10.596 10.05 16.431-22.74-.263-26.33 1.482-34.75 17.001-1.68 3.081-27 3.844-32.28 12.237-.46 3.489.04 8.715.74 12.167 7.4 36.532 14.99 73.203 22.68 109.667 7.42 35.219 13.12 70.934 21.83 105.793-10.53 2.768-16.96 3.253-16.26 16.282.64 11.8 2.28 23.5 3.6 35.25l7.35 65.59c-23.87-4.46-61.41-4.03-85.74-3.87-3.59-23.15-17.91-165.044-24.95-174.21-6.65-4.057-19.78-2.537-27.93-2.299-4.87-34.28-4.63-28.979-38.58-37.855-58.6-15.318-113.09-10.97-171.88-1.872 11.98-44.639 21.4-85.792 34.93-130.505 18.26-12.166 60.12-37.971 70.15-56.38 5.05-5.682-6.29-20.08-6.28-20.15 2.77-18.36 8.35-21.8-16.7-32.009q.78-.864 1.59-1.702c24.83-25.847 75.59-45.559 111.46-42.661 8.32.672 16.76.47 25.09.373 6.14 23.548 12.42 46.508 30.52 63.986 43.25 41.77 115.44 12.751 142.95-33.439 16.31-27.378 18.19-48.491 10.97-78.748M830.74 900.44c87.5-3.397 155.232 21.058 226.73 68.855.55 17.378-.25 37.285-.13 55.125.35 51.14.23 102.28-.37 153.42-28.73-19.54-59.599-41.12-93.166-51.62-12.898-5.54-34.476-10.94-48.303-14.04-70.637-15.84-138.389-7.5-205.329 19.18 8.124-70.44 19.171-143.819 28.374-214.667 30.569-10.311 60.148-14.818 92.194-16.253"/><path fill="#fefefe" d="M1281.26 898.524c38.4-1.12 76.71 4.047 113.44 15.296 9.98 72.777 19.24 145.65 27.75 218.62-83.78-35.81-147.67-40.37-235.29-15.17-36.5 10.29-81.27 35.17-110.87 58.57 1-70.26 1.06-140.53.18-210.796 63.69-44.597 127.33-63.205 204.79-66.52M787.692 373.912c2.031 2.502 1.835 14.814 1.969 18.53 1.028 27.462-3.237 53.714-13.049 79.377-4.381 11.458-9.324 24.645-12.117 36.493 3.128 9.208 11.999 19.76 16.846 30.197-9.512 3.963-20.104 6.031-30.2 8.402-4.238 8.502-5.971 25.545-11.496 36.608-13.845 27.721-55.411 28.804-82.457 28.437-8.963-.122-24.105-3.375-32.263-.793l-.404 2.263-.578-1.455 2.811 2.926-1.716-.932c4.067 3.07 5.897 3.399 10.739 4.913-.884 6.198-3.302 17.073-4.896 23.136-4.909 18.672-9.274 44.101-27.432 54.547-17.815 10.248-47.539 8.655-67.009 3.876l-10.326-3.43c18.122-48.174 28.287-91.236 37.646-141.583 4.103-22.068 8.935-43.861 10.859-66.276-10.433-17.424-19.801-41.789-1.287-59.792 16.242-14.401 33.24.459 48.313 3.909 64.191 14.691 122.161-19.948 166.047-59.353"/><path d="M729.188 429.359c9.261-.836 49.482.861 49.35 14.167l-1.792 1.222c-3.676.663-5.472-.227-9.063-1.295-17.646-6.609-29.242-5.373-47.391-4.707-2.768.101-3.04-.533-4.562-2.461-.236-6.847 7.959-6.266 13.458-6.926M688.645 550.38c8.555 3.311 10.638 12.152 19.247 15.511 6.431 2.508 14.072-.68 18.224 5.589.09 3.37-.267 3.595-2.123 6.604-12.886-.778-47.099-9.194-35.348-27.704m57.333-86.639c6.18-.813 11.873 3.47 12.806 9.632.933 6.163-3.239 11.939-9.383 12.991a11.445 11.445 0 0 1-12.557-15.521 11.44 11.44 0 0 1 9.134-7.102"/><path fill="#fefefe" d="M1534.93 378.274c31.92.798 34.78 38.257 21.49 59.938-3.7 6.053-7.13 9.769-11.86 15.006-2.01 30.139 6.76 66.022 39.06 75.781 7.24 28.761 18.58 58.835 3.82 86.99-18.83 35.953-65.57 66.159-105.7 46.263-22.73-11.268-29.49-39.38-36.26-61.535 4.57-2.013 7.37-2.381 8.65-7.599l-1.62-1.986c-8.1-3.162-29.88-1.683-40.63-2.059-43.01-4.108-70.45-30.989-83.78-70.403-1.73-5.11-1.12-6.105 1.34-10.776 8.13 2.819 20.59 8.251 28.68 3.713 2.18-3.357 1.56-1.875 1.87-6.371-4.38-6.363-15.36.45-22.02-3.573-2.24-2.506-4.21-6.142-4.27-9.483-.28-15.93.72-29.649-1.11-45.695l13.51-4.961c3.94 13.063 9.01 31.372 21.64 38.579 18.22 10.393 47.45.326 57.5-17.59 7.8-13.901 5.28-27.681 1.4-42.171 18.85-5.442 40.75-15.888 60.14-19.586 1.23-.236 5.91 1.133 7.37 1.577 13.28-12.779 22.12-20.97 40.78-24.059"/><path d="M1398.45 522.538c2.54.313 2.61.547 4.75 1.825 3.92 6.329-1.68 11.645-6.71 15.706-9.99 8.067-17.84 8.787-30.23 7.278-4.19-1.946-6.48-3.942-5.98-8.827 4.39-3.606 17.17-1.36 22.16-1.295 4.31.055 13.07-11.108 16.01-14.687"/><path fill="#fefefe" d="M786.18 506.63c3.946 1.31 13.596 6.786 17.754 9.163 32.243 18.433 76.792 40.565 97.266 72.665 12.589 19.737 22.141 49.854 30.943 71.875 27.656 69.188 54.243 140.276 68.987 213.474 2.52 12.68 4.23 29.311 5.85 42.364a1678 1678 0 0 0-31.116-12.225c-27.344-10.194-64.771-19.637-93.928-22.258-10.526-63.991-21.389-128.356-34.428-191.887-2.869-13.984-5.213-32.38-12.423-44.768-5.933-10.192-63.685-45.276-78.09-54.766 3.956-9.217 5.688-16.19 8.101-25.77 8.426-2.677 16.579-5.314 24.879-8.386 26.101-9.662 4.266-32.762-3.311-48.465zm454.46 108.45c2.08-.316 2.04-.225 4.13.192-1.08 2.31-2.82 3.78-5.06 5.013-29.77 16.37-59.1 33.093-86.22 53.708-6.74 5.121-16.96 13.46-7.86 21.803 4.85 4.443 9.25 2.033 14.13-1.084 20.28-15.249 41.08-30.952 64.79-40.528 13.79-5.567 27.95-6.652 42.61-6.846l-14.49 6.309c-13.37 5.903-87.65 38.423-78.02 57.786 10.05 9.549 30.24-9.185 40.4-15.116 12.42-7.251 58.63-33.693 71.85-30.63-.11 1.767.15 2.628-1.63 3.802-25.01 16.385-52.37 26.794-76.64 44.75-5.9 4.367-22.38 14.562-9.27 23.984 2.72 1.956 9.59 1.124 12.31-.988 23.15-18.023 49.51-32.587 76.44-44.028l.71-.18c-2.83 13.172-108.97 74.695-121.11 98.753-10.61 21.01-10.21 17.301-6.71 42.719 2.88 20.896 5.51 41.404 9.06 61.93-40.91 13.935-61.32 24.25-96.15 47.737-1-31.699-4.56-63.952-6.04-95.281-1.63-37.852-8.21-73.449 13.46-107.165 36.99-57.555 91.3-109.386 159.31-126.64m-779.781 32.031 1.538.487.533 1.289c-4.797 4.396-12.229 7.265-17.553 11.031-13.439 9.507-83.597 53.708-68.689 72.465 3.038 1.53 6.996 1.631 9.66-.527 20.27-16.412 63.176-57.74 91.543-58.125l.976 1.186c-5.993 11.311-69.84 44.952-78.817 62.789-5.175 10.28 1.053 19.251 8.813 14.165 14.328-9.389 77.145-62.902 92.946-53.766-2.225 10.797-102.651 55.299-78.714 74.686 8.069 2.665 23.145-11.8 30.025-16.528 18.966-13.034 39.982-27.414 62.073-34.31-10.197 10.933-31.66 23.972-44.791 32.484-36.772 26.425-65.173 50.018-94.759 84.405-3.787 4.402-15.665 12.642-17.625 17.039-20.201 45.32-35.39 92.933-54.253 138.886-1.181 2.876-2.141 6.993-4.836 8.143-2.66-.82-4.618-2.03-5.741-4.8-9.695-23.902-17.595-49.106-26.492-73.32-3.269-8.898-6.905-21.083-11.794-28.421-4.195-2.462-3.607-.667-9.246-1.577.192-2.939 40.532-89.094 43.591-93.196 35.752-47.941 113.446-139.509 171.612-154.485m40.554 475.909c52.857-.03 107.389-.68 160.149.35-5.634 50.3-12.934 102.85-17.125 153.09l-9.187.35c-53.464.42-107.253-.79-160.691-.13 3.476-14.15 6.906-38.62 9.563-53.76 6.1-33.24 11.864-66.55 17.291-99.9M183.509 839.214c19.617 4.908 39.041 8.551 58.769 13.986-8.723 17.731-16.85 35.733-25.701 53.59a192 192 0 0 0-5.428 1.547c-19.952 6.033-6.266 24.126-1.213 38.519-6.792 19.291-65.548 137.804-63.566 146.004.679 2.81 3.31 5.52 5.781 6.87 1.735.95 3.565 1.12 5.423.4 3.15-1.22 5.401-4.41 7.088-7.2 6.643-10.98 11.559-24.21 17.083-35.9a5363 5363 0 0 0 37.8-81.497c3.29 8.467 6.431 18.901 9.29 27.667l-14.076.83c.615 11.12 2.888 24.82 4.473 36.06 4.03 37.51 11.92 83.03 17.314 121.07-6.552 13.03-22.822 36.71-35.792 43.6a78.5 78.5 0 0 1-14.241-1.76c-15.676-3.42-50.102-13.47-58.422-27.46-16.767-28.19 25.247-204.175 34.109-243.967 6.846-30.739 12.793-62.047 21.309-92.359M1471.66 1122.09c28.87-.39 57.75.81 86.49 3.59 6.93 49.8 12.22 102.83 18.8 153.33-27.76.88-59.21.11-87.22-.18-4.39-42.01-10.24-83.75-15.04-125.7-1.18-10.33-2.49-20.66-3.03-31.04m-113.14-811.752c41.82-1.088 56.44 38.55 83.85 63.288 11.75 10.612 18.22 14.469 32.31 20.393-14.36 5.282-36.12 13.245-50.51 17.04-8.16-4.621-14.63-6.38-24.17-5.909a68.96 68.96 0 0 0-47.13 22.491c-.62-4.696-.74-9.658-.95-14.415 17.21-15.995 41.05-21.252 63.84-19.543 3.86.39 5.22.48 7.39-2.927-1.75-10.328-17.15-8.375-25.02-7.59-21.4 2.136-42.59 10.522-56.45 27.189.19 7.146 1.21 13.876 2.15 20.943-12.33 3.902-17.79 3.28-30.67 3.467-4.22.061-9.31 3.493-12.82 2.385-4.75-13.253 26.4-14.414 27.94-22.543-8.37-7.097-23.44-.485-31.13 4.822-.4-22.954-.53-48.897 4.72-71.256 8.4-4.063 13.14-4.292 22.2-5.562 7.08-18.372 14.37-28.346 34.45-32.273m401.43 840.732 24.22.17c16.6 20.43 29.9 44.68 47.25 64.51 4.89 5.58 8.09 6.79 15.31 7.57 14.27 13.53 37.11 40.42 50.8 55.56l-12.45.22c-42.68 1.87-95.74-.01-139.43.25.77-11.75 2.9-26.63 4.14-38.63 2.91-29.93 6.3-59.82 10.16-89.65m-527.13 85.36c6.74-.79 22.77-.67 29.69-.56 56.46.86 115.43 13.82 164.29 42.82-52.56.47-107.29-.44-160.04-.7q-63.63.12-127.26-.42c-19.32-.03-47.54 1.3-66.03-.36 41.91-22.87 111.93-37.83 159.35-40.78m-371.72 0c61.384-4.99 139.97 16.59 195.66 41.4-52.3 1.09-105.85-.64-158.414-.76l-198.098-.24c53.276-26.74 101.995-37.28 160.852-40.4M715.73 937.902c.231 2.84-4.608 34.736-5.245 39.54l-16.241 121.468c-2.096 16-5.408 32.77-6.325 48.72-.233 4.05.264 6.31 3.048 9.06 9.059 4 27.354-7.26 37.176-10.98a342 342 0 0 1 60.641-16.26 321.62 321.62 0 0 1 220.766 40.03c17.09 9.97 31.43 21.24 47.58 32.53l-.43 13.95-14.19-10.16c-38.63-25.29-75.295-43.98-120.874-54.39-84.716-19.25-173.602-4.39-247.46 41.34.978-18.58 4.985-44.4 7.297-63.38l15.592-119.36c3.07-21.832 6.92-43.61 9.547-65.475zm547.18 225.528c56.33-4.51 117.09 9.96 167.25 35.37 2.07 8.73 3.39 20.22 4.65 29.31-49.19-21.39-86.61-33.37-141.38-38.37-65.8-7.8-125.95 5.28-188.1 24.09 7.27-5.49 19.99-11.63 28.33-15.67 43.54-21.11 81.27-31.94 129.25-34.73m329.47-447.185c46.71 11.017 95.09 49.462 126.07 84.793-1.94 6.61-3.57 14.898-5.1 21.721-10.86-3.707-18.85-3.457-21.65 10.529-2.58 12.854-3.75 26.893-5.57 39.997-3.57-10.04-5.01-40.72-23.5-29.141-5.49 3.441-6.44 13.631-7.57 19.819-4.86 3.739-6.32 7.005-9.04 12.309-20.29-14.894-44.16-37.263-65.32-48.89-1.13-4.069-1.73-8.285-2.44-12.459 10.26 6.61 19.72 13.261 30.23 20.44 9.5 6.483 22.06 19.118 34.27 19.93 2.65.176 3.96-1.238 5.62-2.954 4.71-14.608-22.23-30.051-32.94-37.908-14.5-9.904-25.94-17.553-41.86-24.792l-2.31-12.464c18.53 7.675 36.83 16.554 53.74 27.411 8.38 5.384 19.32 16.71 29.47 17.63 3.05.276 6.07-.195 8.31-2.412 1.59-1.567 2.52-3.487 2.52-5.736 0-17.039-67.35-47.897-83.14-54.525-4.01-1.684-10.24-1.24-13.18-4.076l.34-1.876c21.51-17.312 108.07 47.217 108.96 47.184a11.1 11.1 0 0 0 7.96-3.914c17.21-20.591-76.77-67.405-91.16-76.008-2.53-1.512-2.39-2.041-2.71-4.608"/><path fill="#fefefe" d="M1272.37 1121.41c49.72-3.42 110.22 10.8 153.36 35.9l2.53 18.88c-67.07-33.24-146.99-41.01-219.93-25.66-37.37 8.92-68.39 21.41-102.29 40.05-10.05 5.52-19.31 12.36-28.66 17.32-2.38-.65-1.33-.03-3-2.32-.02-1.93 1.4-4.84 2.85-6.02 57.08-46.45 121.55-73.63 195.14-78.15"/><path fill="#fefefe" d="M1421.71 946.895c2.71.2 3.24.252 5.86.898 4.13 5.197 10.5 66.087 11.96 78.417 9.99 83.95 21.66 168.18 29.66 252.32-5.45-2.22-14.51-7.82-19.98-10.82-12.04-6.58-23.54-13.07-36.12-18.82-77.64-35.5-168.01-39.96-250.83-22.64-24.95 5.22-47.31 13.07-70.95 21.68-4.9 1.95-10.06 4.95-14.7 3.14 1.81-8.01 40.14-19.63 48.26-22.23 81.32-26.87 169-27.74 250.84-2.48 21.59 6.68 50.95 18.2 71.31 29.53 2.85 1.58 10.52-2.7 9.88-9.72-2.09-22.9-5.84-45.77-8.6-68.7-7.25-60.53-14.97-121.01-23.18-181.428-1.84-14.447-4.59-32.177-5.58-46.741-.07-1.053.85-1.302 2.17-2.406M833.726 1163.43c55.081-6.26 133.246 16.75 179.274 47.31-63.124-19.33-129.112-30.99-195.241-26.51a272.46 272.46 0 0 0-149.291 57.52c.577-9.2 1.271-14.82 2.822-23.9 17.842-11.33 34.055-22.14 53.725-30.09 34.932-14.12 71.211-22.12 108.711-24.33m918.234-119.17c1.83 3.28-1.63 24.49-2.29 29.2-12.77 2.63-25.06 6.41-38.35 8.77-43.42 7.7-95.22 9.41-138.86 3.21l-4.36-31.7c54.07 5.94 132.17 4.39 183.86-9.48m-8.31 50.86c.78-.12 2.25.06 3.12.12 2.05 4.49-1.02 23.33-1.72 28.94-47.95 15.08-115.83 21.22-165.7 14.41-1.57-5.45-3.8-26.72-4.79-33.92 12.45 2.78 29.94 3.19 42.73 3.5 43.72 1.03 83.99-2.18 126.36-13.05m-1503.268 97.56c2.665 3.96 11.607 74.31 13.102 84.3l-106.906.04-12.532.42c15.225-17.92 33.893-36.69 50.235-53.8 31.733 3.96 37.383-6.96 56.101-30.96m1497.928-46.55 2.5-.04c1.9 3.59-1.95 24.93-2.77 30.45-40.5 15.1-109.91 19.65-152.59 13.49-2.2-10.09-3.63-22.09-5.09-32.45a412.4 412.4 0 0 0 157.95-11.45"/><path fill="#fefefe" d="M825.14 1203.42c24.493-2.61 56.408.83 79.868 3.19 27.62 2.77 138.942 27.57 152.702 45.43l-1.26 1.88c-5.01.43-41.65-13.49-49.68-16.04-39.636-12.57-71.153-19.3-113.093-20.9-95.234-2.59-139.127 13.45-224.209 50.31 44.15-39.74 96.785-59.89 155.672-63.87m909.52-5.22c1.37 3.18-1.97 26.21-2.59 31.23a401 401 0 0 1-37.45 9.07c-16.26 3.01-93.92 9.67-103.33 3.22-1.1-10.58-2.38-21.15-3.83-31.69 45.56 6.95 102.85.47 147.2-11.83M534.849 864.399c7.377 2.291 19.481 9.174 26.232 13.117-1.886 4.643-4.487 9.996-6.832 14.521-18.83 36.34-36.509 73.401-55.82 109.443-1.152 2.15-2.108 1.83-4.18 2.16l-30.172-.68c23.975-43.379 47.962-93.914 70.772-138.561m-138.227 16.023c8.247 1.096 21.614 4.447 30.104 6.314a2501 2501 0 0 0-27.456 116.684l-32.168-.32zM1755.08 1008.2c1.6-.24.79-.34 2.41.47.4 4.6-.94 9.18-1.91 13.78-41.35 14.73-145.83 19.52-189.63 11.34-1.22-7.36-1.71-15.09-2.33-22.55 57.88 9.25 134.92 10.5 191.46-3.04m-168.81-151.887c11.14 5.305 38.87 30.24 54.35 38.993-6.46 24.206-13.58 48.535-20.26 72.738-1.94 6.702-3.7 13.901-5.49 20.683-3.45-8.493-9.44-40.288-11.5-50.413zM858.688 820.87l1.34.37c3.326 4.864 9.414 51.044 10.626 59.91-23.737-.776-37.14-.82-60.891 1.02-3.928.611-9.898.94-14.013 1.289l3.596-28.753a4636 4636 0 0 0 59.342-33.836m540.902-405.646c14.82-1.076 19.31 7.271 20.6 20.559 2.62 26.974-14.9 36.42-38.06 37.921-17.37-3.564-20.24-16.621-23.7-31.998 6.3-18.153 23.69-23.509 41.16-26.482"/><path d="M1386.12 436.064c15.58-1.365 20.11 10.09 10.14 21.553-11.3 2.408-21.28-11.403-10.14-21.553"/><path fill="#fefefe" d="M1728.88 1250.15c.76 4.02-1.63 23.88-2.18 28.88l-88.6.13c-7.85 0-35.2.57-41.66-.48l-2.27-16.39c44.64 2.77 91.76 1.15 134.71-12.14m-1456.814 13.01 184.195.01c-.239 3.76-.976 8.39-1.474 12.19l-129.816-.2c-8.036 0-46.504.49-51.808-.71-1.616-3.43-1.137-7.36-1.097-11.29M1316.06 445.836l4.47.145c6.19 3.84 4.28 46.01-.74 53.621a13.14 13.14 0 0 1-9.09 5.805c-6.63.957-14.9-3.354-20.11-7.265-4.16-4.49-15.81-20.507-12.85-26.661 5.41-11.264 32.82-10.626 34.9-24.095z"/><path d="M1299.93 469.741c11.45 1.676 19.34 13.233 11.47 23.53-13.31.303-21.24-13.222-11.47-23.53"/><path fill="#fefefe" d="M1709.64 842.967c3.85.772 6.33.58 8.89 2.868-.52 12.294-5.62 43.246-7.67 56.8l-14.05 94.379-1.74 1.116c-4.06.266-5.94.526-10.02-.256-1.41-3.724 22.13-138.923 24.59-154.907m55.03 3.566c3.76.706 5.09.696 8.27 2.809.29 1.19.44 1.946.21 3.192-8.63 45.18-19.05 90.002-28.29 135.061-.56 2.768-.95 3.13-3.07 4.604-3.82.728-5.32 1.248-9.23.699-1.08-4.51 28.77-132.283 32.11-146.365m-552.63-69.716.7.668c.38 2.939-23.73 95.883-25.1 98.099l-1.17-3.381c-2.2-19.109-6.58-40.263-7.83-59.155 6.33-14.502 21.5-26.096 33.4-36.231m531.91-7.902c4.87.921 9.67 2.245 14.48 3.491-2.88 15.874-6.95 31.262-10.45 46.999-3.9 17.542-6.95 34.981-11.6 52.35l-.79 2.363c-2.37-3.743 4.86-30.825 3.52-37.641-1.2-6.112-1.61-5.893-6.87-10.05 4.19-19.113 8.09-38.285 11.71-57.512m-82.46 119.551c3.42.533 3.77.475 6.71 2.16 1.42 4.976-27.04 98.736-29.91 108.463-2.68.223-4.55.745-6.79-.589 1.44-9.622 7.32-29.526 10.17-39.826 6.38-23.011 12.47-47.649 19.82-70.208M241.458 920.932l1.56.246c2.517 3.297 3.626 8.467 4.865 12.602l-16.659 5.499c-.691.298-1.573.152-2.454.138-2.539-3.28-3.467-7.542-4.735-11.597a1821 1821 0 0 1 17.423-6.888m12.195 35.086 2.266-.05c2.584 2.965 3.169 7.507 4.146 11.52-5.144 2.264-11.54 4.581-16.857 6.674l-1.658.199c-2.647-3.188-3.889-8.353-5.243-12.458zm14.333 36.145c2.829 2.389 3.49 6.712 4.882 10.787l-20.993-.14c-.881-.1-2.5-.83-3.41-1.19l-.341-1.39c2.667-4.235 14.461-6.57 19.862-8.067m110.556-325.726c1.99.932 2.035 1.121 3.688 2.618-.485 2.118-19.398 22.852-22.398 26.246l-1.167 1.002c.155-8.486 12.976-24.414 19.877-29.866"/></svg>