<svg xmlns="http://www.w3.org/2000/svg" preserveAspectRatio="none" style="display:block" viewBox="0 0 2048 1462"><path fill="#fefefe" d="M0 0h2048v1462H0z"/><path d="M1283.68 346.369c2.39-.229 8.23-.741 10.61-.335 26.24 4.479 65.62 24.749 82.97 44.682 8.49 9.765 13.06 24.941 11.29 37.214-4.32 30.048-23.15 46.149-44.98 63.428.25 2.238.38 7.89 1.52 9.678.71 1.107 24.61 9.309 28.41 11.062 9.91 4.572 19.63 10.291 27.6 17.817 22.48 21.231 23.43 53.059 24.73 81.992 2.13 47.57-.42 100.81-7.09 147.92-3.34 23.608-10.7 47.463-11.56 71.299-.81 22.651 1.04 45.648.67 68.411-.72 44.996-3.72 90.137-3.46 135.103.21 34.49 3.05 69.13 4.03 103.62l4.45 196.57c10.25-2.92 41.27-12.69 43.85-20.43 4.44-13.34-1.07-64.33-2.04-78.77l-10.74-142.13c-1.85-21.37-3.48-42.76-4.89-64.16-.88-12.95-1.54-30.691-3.63-42.863l-6.26-4.532c-4.57-20.228-4.57-37.823.32-57.881-8.1-11.431-6.25-10.733-3.33-23.556 13.95-61.13 8.47-127.519 9.63-190.117l2.16-79.228c.89-24.827 1.11-61.565 8.79-85.219 6.43-19.804 63.88-36.19 68.48-49.716-10.74-4.778-24.71-9.227-28.22-21.936-3.11-11.477-.07-26.093 2.97-37.321 6.04-22.284 19.75-40.934 29.96-61.179-9.7-44.126 45.34-26.092 64.07-12.826 16.7 11.832 39.46 23.74 43.92 45.678 5.75 28.279-8.32 55.85-30 73.36-4.76 3.914-11.84 6.591-13.84 9.758 1.68 6.878 31.45 14.837 40.77 19.233a69.9 69.9 0 0 1 16.74 10.992c15.43 13.776 23.94 29.839 25.44 50.334 2.46 33.606 1.23 64.189-.58 97.771a2475 2475 0 0 1-8.31 110.85c-1.26 13.434-6.87 31.016-7.19 42.466-1.45 51.767-1.23 104.1-3.84 155.813-4.19 82.979 3.27 166.239 4.96 249.259.86 36.01.35 73.18 2.15 108.99 11.42-2.4 47.47-14.51 54.49-23.15 3.71-4.56-1.03-45.61-1.64-53.95-2.82-39.02-5.97-78-9.45-116.96l-7.37-92.8c-1.57-20.74-2.46-40.16-5.04-60.929-1.62-2.699-6.07-4.946-8.96-6.745-.4-14.644-2.8-30.72-1.38-45.137-.13-11.272 3.34-8.389-6.12-17.64.39-14.011 5.61-24.027 7.13-36.926 4.34-36.794 3.11-73.284 3.58-110.132l2.64-138.682c.54-23.73 1.65-54.747 3.18-78.037 1.49-22.745 53.1-42.302 72.6-57.343.89-2.88.82-1.68-.4-4.883-2.85-2.831-9.32-5.019-13.23-6.507-26.1-9.957-14.49-38.608-6.92-57.142 7.08-17.328 15.32-33.909 23.08-50.916-2.35-6.213-3.48-16.002.84-21.614 15.03-19.532 45.61-6.691 62.31 3.786 20.61 12.918 44.29 26.697 50.75 52.095 7.47 33.182-29.02 59.288-44.1 83.615 21.51 5.306 34.23 6.703 52.99 21.044 36.69 28.043 32.11 66.395 32.27 106.593.22 53.262-2.19 104.193-10.94 156.834-1.88 11.286-1.08 25.459-6.83 34.791-1.25 2.256-.85 34.617-.86 38.307l-.72 126.27c-.1 12.462-1.22 27.838-.96 39.568 1.7 76.93 5.26 154.1 6.1 231.03.21 19.2 2.64 80.14.02 93.93-2.31 12.11-99.27 2.06-112.62 7.84-2.46 1.06-3.22 2.8-3.9 5.45-.65 2.54-.73 2.93-2.39 4.92-5.71 3.12-52.3 1.47-61.87 1.73-29.24.77-59.32-.04-88.66.93-10.09.34-13.43-4.39-12.57-13.63l.12-1.2c-6.95-1.12-25.35-.46-33.39-.4-15.4.1-33.52-.83-48.6.35-1.48 5.02-4.72 14.29-11.3 14.24-46.01-.37-92.01.97-138.03.37-6.73-.09-20.56.41-20.56-8.71 1.56-3.92 4.38-5.21 7.97-7.67-14.51 0-28.65.44-43.28.14-9.05-.18-29.68-.71-37.68.69-4.86 3.56-2.08 12.58-10.26 13.04-17.94.99-36.14.41-54.14.47l-68.67.1c-9.85-.07-34.25 3.68-36.08-8.36 5.9-13.55 76.65-27.01 90.12-40.26 6.04-5.94 2.5-29.94 1.99-38.51-1.27-20.41-2.65-40.8-4.15-61.19-3.47-45.54-6.37-91.12-8.68-136.74-1.56-27.89-3.73-59.45-3.63-87.079-5.44-2.146-9.13-8.878-12.71-13.312-12.62-14.834-4.25-31.807-5.54-47.874-2.34-29.268 1.55-56.937 3.79-86.261 2.73-35.062 4.74-70.176 6.03-105.32 1.36-34.88 2.19-69.779 2.47-104.684.14-19.489-.9-50.083 1.78-68.079 3.83-25.679 36.1-48.434 59.01-56.468 2.8-.981 15.63-4.534 16.01-4.789 5.06-20.193-23.03-11.03-30.6-25.531-4.18-8-2.31-13.673-1.77-22.082 1.27-19.714 4.36-38.219 16.53-54.445 4.59-6.696 9.49-13.087 12.99-20.437 6.8-14.254-.23-26.567 14.68-36.71"/><path fill="#fefefe" d="m1885.78 823.047.6.771c1.02 3.935-.09 34.886-.14 41.18l-1.35 143.772c-.07 23.73 1.17 48.3 1.85 72.14l3.35 137.11c.17 10.93 1.81 56.72.54 64.28-3.39 3.07-48.79 5.64-57.28 6.31.3-9.24-2.82-32.38-3.79-42.52-3.86-40.35-10.11-80.56-15.14-120.78.18-13.55-7.83-40.83-6.4-53.1 2.59-22.18 8.11-54.87 12.67-76.292q5.31-25.205 11.46-50.217c2.06-8.292 14.52-46.096 4.95-48.906-8.35 5.299-20.07 65.276-22.81 77.525-8.48 33.04-11.46 66.55-19.56 99.48-.51 4.56-.11 9.86-.44 14.36-2.85 39.49-6.72 79.01-10.2 118.46-2.42 27.46-2.81 56.74-6.78 83.92-17.05.79-40.46 3.11-56.73 2.18l-16.6-205.21-4.97-62.32c-.9-11.04-1.96-22.57-2.32-33.681-.12-3.714 5.02-4.761 7.72-7.78 7.12-7.953 5.14-35.174 5.63-46.209 25.55-24.899 27.56-58.561 35.29-92.615 39.03 7.416 78.68 1.64 115.76-11.519 7.66-2.717 18.03-5.975 24.69-10.339m-247.63 2.115c1.88 2.863.04 66.616-.12 73.762l-2.35 82.955c-.53 14.685-1.94 32.721-1.54 46.901l5.75 178.72c.46 14.17 3.13 66.23 1.45 76.52-3.54 2.51-53.83 5.72-57.77 4.17-1.63-7.79-2.53-20.39-3.39-28.63-1.62-15.25-3.34-30.48-5.16-45.71L1563 1110.14c-1.48-13.78-4.35-36.15-3.91-49.49.23-7.13 4.91-28.91 6.46-36.65a3660 3660 0 0 1 13.11-62.142c2.02-9.022 12.89-52.882 11.64-59.509-2.68-2.698-1.4-2.168-4.8-2.569-8.56 5.416-15.75 49.529-18.91 62.519-6.96 38.371-18.5 76.611-21.85 115.461-.77 9-1.66 18-2.49 26.99l-8.94 107.46c-.96 11.83-3.95 70.27-7.55 75.25-6.76 2.85-46.07 3.42-56.51 4.04-.33-14.8-1.99-32.64-3.03-47.61q-2.97-44.34-6.57-88.65c-4.27-55.79-8.15-111.6-11.66-167.445 7.78-3.547 8.82-4.376 13.35-11.569 1.51-10.68 1.42-24.986 2.74-36.621 19.73-28.647 28.18-63.614 36.03-97.289 57.02 8.173 85.06 3.676 138.04-17.154m-243.45 1.852c5.73 7.006-2.6 181.816-1.67 209.096 2.76 81.18 8.06 166.53 7.86 247.54-17.65.72-40.17 3.31-58.3 4.76-4.69-42.14-9.76-84.24-15.19-126.29-3.84-29.41-8.1-60.2-10.74-89.72-1.2-13.41 5.86-41.29 8.87-55.35a6700 6700 0 0 1 16.76-75.535c2.14-9.205 8.74-31.829 9.1-39.918-1.59-3.631-2.46-4.717-6.44-3.937-7.75 6.839-15.63 49.461-18.65 62.556-3.6 21.137-10.69 42.944-13.85 64.164-1.89 12.67-7.23 29.85-8.1 42.03-4.25 59.07-10.06 117.94-15.57 176.9-1.02 10.95-1.9 38.3-5.5 46.9-7.52 2.83-43.22.66-52.92-.06-3.21-28.94-23.32-295.252-17.09-307.475 6.46-12.676 1.35-30.078 5.46-44.057 2.62-8.879 10.39-16.502 13.88-25.232 9.23-23.068 15.92-47.86 23.04-71.666 34.41 7.355 82.25 3.196 115.66-6.83 7.63-2.289 16.41-4.135 23.39-7.876m-114.63-443.998c5.41 6.042 8.57 19.894 10.37 27.817-6.85 13.097-11.77 13.993-11.96 30.392 2.66 2.568 5.87 5.333 8.65 7.837-.21 4.509-.67 11.722.1 15.976 4.26 23.777 25.11 35.651 47.52 32.751a552 552 0 0 1 1.68 14.049c-8.1 2.833-11.83 3.066-20.23 4.033-13.37-.333-23.05-2.662-34.88-8.713 4.47-20.525-1.42-22.58-20.69-26.455-20.43-4.109-8.49-39.347-5.89-53.05 2.71-14.296 21.05-30.995 25.33-44.637"/><path fill="#fefefe" d="m1310.21 1135.08 3.26.95c2.46 39.15 9.75 79.59 13.66 118.76 1.27 12.73 4.99 36.09 3.64 47.57-5.7 9.78-27.2 12.08-37.67 17.88zm492.56-10.31c.17.41.33.82.5 1.23 6.87 55.35 13.53 110.78 20.38 166.15.39 3.2 1 7.51-.59 10.05-4.73 7.55-14.18 10.12-22.3 12.48-3.85 1.29-11.51 4.26-15.16 2.71-.92-5.15 2.23-11.02 2.66-16.33 4.15-50.98 7.78-102.06 12-153.05.58-6.94.69-16.84 2.51-23.24m-250.7 1.88c1.38 4.63 4.36 38.15 5.28 45.47 3.71 28.21 7.19 56.46 10.45 84.73 1.21 10.02 5.22 34.96 3.96 44.74-.83 6.5-14.76 11.18-21.36 13.29-3.39 1.48-10.82 3.64-14.64 4.86 3.55-48.28 8.98-96.68 12.04-145.07.95-15.06 2.1-33.34 4.27-48.02m214.27-737.795c1.93 2.625 3.95 7.378 5.31 9.825 10.4 18.731-.51 20.998-3.74 36.828-1.17 5.72 4.58 11.443 8.34 15.811 3.07 26.723 4.73 40.393 37.54 44.444 2.3.283 5.05.495 6.42 2.325.28 4.019.93 7.088-.71 10.666-3.85 2.16-11.63 1.238-16.75 1.209-27.4-1.609-34.4 1.531-34.11-21.96-3.75-11.25-27.26-2.629-29.82-17.288-3.96-22.655 17.86-61.022 27.52-81.86m-241.04-3.172c22.67 36.6-21.21 42.885 4.64 63.202.57 31.834 10.32 49.694 45.07 46.674.12 4.69.74 10.523 1.12 15.296-9.4 3.256-10.76 3.314-20.65 1.875-10.04-2.226-20.76-6.814-30.34-10.691.86-4.467 2.03-8.353 1.18-12.741-8.52-5.708-27.75-4.849-30.05-18.81-4.77-28.988 15.66-60.66 29.03-84.805m-329.65 544.855 11.48 3.803c-.33 4.39-2.25 29.523-3.73 31.904l.33.43c-.95-1.835-.75-4.978-.79-7.198-.92-3.648-1.23-5.692-4.28-7.516l-1.43.929c-2.52 5.072-2.51 9.999-2.96 15.64-2.21-11.687-3.82-26.897 1.38-37.992m244.02-.285c4.89 2.802 8.45 5.229 13.09 8.469-.09 4.7.23 9.363-1.39 13.678-1.3.783-1.57.765-3.04.923l-1.4.14c-2.44 3.021-1.94 3.761-2.69 7.866-.85-3.271-1.22-4.616-2.6-7.682l-2.11-.699c-2.18 1.924-1.7 5.754-1.97 9.391-2.23-13.077-1.38-19.253 2.11-32.086m244.69 1.357 14.6 3.828c-.09 8.967-.01 18.738-.42 27.625-2.64-4.328-2.11-8.382-4.98-10.674-1.97 2.315-2.36 5.67-2.59 8.728l-1.66-.196c-4.05-13.217-4.32-15.858-4.95-29.311"/><path fill="#515054" d="m1689.31 960.921 1.66.196c.61 2.806 1.98 10.445.28 12.673-1.94-3.852-1.71-8.423-1.94-12.869"/><path fill="#c0c1c3" d="M1310.21 1135.08c-.09-2.6-.37-5.92.09-8.4l.79-.25c1.64 4.34 1.28 6.24 2.38 9.6z"/><path d="M1261.32 86.864c22.68 6.026-8.74 29.247-16.21 36.25l-37.78 35.413c-56.03 53.052-111.15 107.092-168.22 159.03-8.56 7.788-17.75 14.821-25.68 23.263 3.05 29.429-.75 28.029-21.652 46.723-2.555 15.889-5.943 29.38-9.762 44.987 21.364-13.984 43.594-30.388 64.954-45.022L1240 253.026a6607 6607 0 0 1 65.82-46.327c11.24-7.885 22.38-15.791 33.77-23.57 4.57-3.675 10.97-5.428 15 .376 6.01 8.643-12.28 17.575-17.6 21.259-5.45 3.777-10.16 7.061-15.22 10.679l-73.41 52.469c-45.65 31.971-92.31 66.051-138.02 97.217l-87.99 60.545c-17.74 12.072-37.375 24.359-54.467 37.003-9.38 21.736-18.528 35.036-28.629 55.177 47.448-31.45 98.396-53.916 148.886-79.874l99.75-51.434c12.76-6.56 25.44-13.305 38.18-19.888 2.54-1.496 8.95-3.487 11.39-.826 11.37 12.424-9.86 17.679-17.51 22.337-4.43 2.694-9.04 4.562-13.05 6.605L1003.83 498.95c-25.57 12.934-56.741 24.678-81.225 39.351-3.213 1.926-22.918 25.217-29.446 31.772-15.609 15.675-35.526 28.659-49.864 43.124-.433 28.441-1.893 57.002-2.29 85.685l-1.055 59.914c-.182 18.675 2.348 41.954-3.375 58.875-1.992 5.891-1.334 7.979-.448 14.333 8.882 10.463 26.877 49.095 33.491 63.011l43.102 91.413a14361 14361 0 0 1 86.656 187.002c17.084 36.65 35.424 73.11 51.644 110.32 1.52 4.16 6.61 14.29 5.9 18.46-1.43 8.48-12.54 9.3-16.09.99-9.57-22.47-20.74-44.15-31.07-66.27l-67.132-144.66c-3.556-8.43-7.534-16.71-11.48-24.97-33.299-69.689-64.633-140.241-97.758-210.007-1.831 14.761-1.387 34.565-1.996 50.05l-4.225 89.383-12.528 300.244c12.155 6.12 72.715 29.01 75.477 36.4.625 1.68.411 4.08-.341 5.68-1.177 2.49-2.876 3.53-5.515 4.27-7.262 2.04-15.933 1.86-23.445 2.41a1159 1159 0 0 1-81.884 2.96c-7.993.03-21.824-1.29-29.144.74-5.137 1.42 1.627 6.41-.924 11.97-7.21 4.51-34.71 2.02-43.796 1.79-22.427-.34-44.847-.98-67.256-1.91-10.624-.38-22.428-.26-32.935-.73-20.873-.16-14.178-9.68-11.515-24.36 2.758-15.19 8.275-31.51 9.961-46.85 2.198-20.01 3.587-40.48 5.258-60.62 3.101-34.21 5.824-68.45 8.167-102.73l16.421-217.408 7.775-107.26c.698-10.991 2.891-22.278 2.423-33.243-2.789 8.056-6.219 15.004-9.969 22.647-13.159 26.822-23.354 55.217-38.06 81.241-1.139 2.017-9.087 6.214-9.43 6.852-8.811 16.364.521 44.109-13.5 58.387-39.814 16.267-25.359-48.864-20.561-67.363l-7.406-10.413c.203-3.222.728-6.246 1.495-9.382 5.656-23.128 13.363-45.684 19.665-68.634 11.094-40.399 43.301-175.851 66.979-199.096 24.798-24.346 62.847-35.183 92.333-53.167l.096-13.082c-26.238-7.069-50.821-38.101-48.368-65.757 2.664-30.033 26.024-47.982 52.031-58.573 28.092-11.44 58.379-19.009 51.023 25.517 5.975 9.522 14.229 32.543 15.022 43.372-7.403 14.367 29.906 30.08-16.863 52.872.241 5.981.203 12.086.233 18.081 12.705-5.896 32.345-9.802 47.78-16.162.404-.641.816-1.278 1.269-1.885 11.272-15.087 23.665-29.611 35.604-44.176 25.648-31.288 52.479-64.392 83.941-90.081 2.325-1.898 7.082-6.492 9.888-6.624 1.033-.048 2.06-.061 3.095-.118 10.759-.592 24.586-72.633 35.094-80.846 3.111.7 1.745-.023 4.052 2.553 2.419 7.596-2.062 21.994-3.777 30.989 1.773 1.337 4.066 3.383 5.836 4.856 20.68-17.214 45.95-43.009 65.94-61.822a9091 9091 0 0 0 121.52-114.726c11.92-11.4 61.18-60.919 72.99-66.675"/><path fill="#fefefe" d="M962.107 385.154c6.373 6.118 9.794 7.412 17.868 10.952-8.769 50.958-50.147 124.551-87.833 159.943-10.515 10.228-21.66 19.806-32.701 29.428-6.361 5.544-24.673 17.755-25.556 25.653-2.319 20.747-2.138 42.479-2.55 63.412l-2.66 135.587c-20.379 12.593-49.973 22.555-73.919 24.655-28.315 2.482-77.484.745-102.951-13.387-.316-4.921 1.115-28.754 1.725-34.497 1.428-13.421 1.226-37.093 3.796-49.164 3.85-18.076 15.642-44.918 23.158-62.234 3.964-9.133 10.94-18.962 15.852-27.687 1.13-2.007.202-3.528-.518-5.271-2.893-2.029-1.598-1.713-4.884-1.617-11.464 6.719-26.047 45.462-31.566 59.315-7.323 19.312-66.327 162.769-73.59 167.221-3.037 1.861-6.604 1.548-9.928.789-5.544-1.267-18.604-6.196-21.64-10.994q.465-2.875 1.149-5.706c2.472-9.929 7.552-24.702 10.625-35.136a7405 7405 0 0 0 21.249-74.09l19.554-69.481c6.647-23.388 16.846-62.037 31.763-80.919 16.083-20.359 63.408-36.724 87.295-50.802 36.617 25.184 36.012 8.841 69.479-4.017 31.381-12.057 64.944-17.761 90.526-42.335 32.271-31 54.774-70.928 76.257-109.618M730.652 1062.81l.869 1.04c3.034 41.99 3.752 91.94 5.145 134.19.839 21.99 1.481 43.98 1.927 65.98.126 5.62 1.058 26.13.598 30.66-1.473 14.55-4.589 30.38-6.053 45.52l-20.58-10.34c-14.828-7.71-24.436-12.12-37.981-22.5 1.993-17.54 7.889-40.47 11.71-57.87a3392 3392 0 0 1 21.07-93.58c4.979-20.9 9.286-41.98 15.04-62.78 2.737-9.9 4.748-20.71 8.255-30.32m-118.977 244.3c14.007 2.66 29.18 1.67 42.948 5.18 4.88 1.24 67.024 35.3 71.824 38.89l-.917.97c-3.083-.48-4.037-.49-6.946.66l-.634-.78c-11.15.72-39.143-.94-51.589-1.25-19.001-.48-44.93-.03-62.872-1.92.725-13.01 4.233-29.33 8.186-41.75"/><path fill="#fefefe" d="m773.078 424.667 1.287.609c9.449 16.557 6.219 35.946 13.981 52.748 2.284 4.941 2.822 9.787 3.478 15.174-8.525 6.741-14.592 8.099-22.776 13.976-9.373 18.928 13.908 43.015-26.549 32.378-9.502-5.496-6.127-14.597-5.657-24.741 31.644-26.503 3.58-34.274 3.459-45.118 3.061-3.073 6.682 2.962 12.941 1.31 8.883-7.214 5.851-25.483 2.591-34.902 7.643-3.442 11.225-5.695 17.245-11.434m-23.653 878.123c14.012 1.23 50.256-1.59 60.066 4.03 6.207 3.55 54.56 24.78 56.021 26.72l-3.747.65c-10.78 1.76-111.829 5.32-115.173 2.27-.532-8.03 1.432-25.49 2.833-33.67m191.072-904.783c.05 1.186-.3 2.602-.892 3.725-16.666 31.622-42.011 69.796-69.876 92.499-7.081 5.769-25.871 13.65-34.068 17.264-.31-3.728 3.187-6.087 5.772-8.219 36.457-30.061 71.84-67.319 99.064-105.269m49.874-61.535 1.007.846c21.432 21.011 6.284 29.483-8.788 42.482-1.066.783-2.306 1.111-3.585 1.591-3.041-.698-1.953-.247-4.36-2.685-1.311-9.494 10.489-33.531 15.726-42.234M560.428 873.009c5.378 1.464 7.724 2.407 12.856 4.652-.095 5.416.236 25.374-2.359 29.078-2.233-.388-2.227-.544-4.386-.002l-1.383 2.596c-.781 1.868-1.805 3.688-2.754 5.483-.057-5.888-.287-7.404-5.276-10.531-.554-6.165 2.376-24.104 3.302-31.276"/><path d="M842.31 775.535c21.014 7.336 234.37 337.355 261.87 380.945 10.45 16.55 31.17 44.17 40.67 62.58 2.81 5.46 2.15 6.8.35 12.25-4.25 2.04-6.01 2.82-10.42 1.19-9.57-11.03-21.58-30.5-29.94-43.29l-51.38-79.23-130.336-197.767c-21.11-32.304-42.454-62.754-60.729-96.832-6.752-12.591-15.541-26.17-20.085-39.846M557 745.07l.692.728c-37.83 40.244-101.385 78.599-147.953 108.702l-112.47 72.813a6706 6706 0 0 1-106.843 68.407c-10.801 6.8-50.2 33.88-60.469 34.5-4.093-5.59-4.981-10.36 1.127-14.79 20.39-14.8 41.971-27.433 63.045-41.149l117.368-76.268c75.725-48.248 149.354-100.867 228.377-143.538 5.727-3.093 11.42-6.273 17.126-9.405M149.617 351.832c5.926 1.727 30.363 12.86 36.526 15.579a6447 6447 0 0 0 70.096 30.674L419.9 469.976c24.362 10.847 59.595 25.232 82.351 37.011 12.518 6.479 90.08 46.122 94.964 52.735l-2.469-.354c-42.755-16.183-85.882-31.602-128.083-49.174-25.474-10.607-319.915-142.171-321.771-144.428-1.691-2.056-2.117-4.073-1.589-6.669.665-3.269 3.837-5.364 6.314-7.265m390.962 462.065c1.601.256 1.09.196 2.57 1.143 2.073 11.803-52.941 62.761-63.401 72.648-87.507 82.707-173.746 166.872-264.804 245.702-2.793 2.42-5.994 3.81-9.495 4.84l-3.596-3.21c-.817-1.85-1.758-5.63-.663-7.01 11.475-14.49 36.912-35.72 49.913-48.03a18074 18074 0 0 1 151.549-142.597c36.172-33.747 71.603-68.46 108.289-101.649 8.196-7.415 20.164-16.346 29.638-21.837M205.142 261.958c4.491-.604 5.91-.292 9.776 2.085 10.076 6.195 19.588 13.233 29.427 19.793l71.26 47.878a10307 10307 0 0 1 222.368 151.201c17.833 12.713 44.592 32.438 60.325 46.417l-.785.853c-91.291-43.09-175.36-106.378-258.955-162.339-43.012-28.794-85.246-59.43-128.712-87.693-8.093-5.262-11.147-9.807-4.704-18.195m-101.547 196.71c6.191-.252 73.574 16.663 82.747 18.81 112.889 26.426 227.729 48.081 337.874 84.617 8.417 2.792 29.466 9.531 36.188 14.335l-2.681.125c-105.478-16.639-214.504-46.598-319.558-70.19-44.753-11.174-91.616-18.458-135.209-33.254-6.833-2.319-1.844-11.015.639-14.443M82.178 574.256c13.573-.802 37.431.824 51.064 1.654l70.137 3.858 174.73 9.096c54.322 3.073 109.738 5.279 163.141 16.137 4.836.983 8.496-1.101 14.087 1.229l.224 1.069-1.711-.556c-.314.115-.627.233-.942.344-12.909 4.548-91.851 2.345-111.388 1.79-58.847-1.671-117.556-6.681-176.31-9.72l-83.834-4.398c-29.563-1.306-58.892-3.06-88.412-4.889-6.283-.39-12.492-1.192-14.549-7.69.625-4.13 1.128-4.626 3.763-7.924M1086.06 98.053c5.13.85 9.72 2.725 10.83 8.395-.59 3.989-183.485 260.622-202.327 285.584a1170 1170 0 0 1-66.225 81.044c-1.432 1.711-3.488 3.621-5.122 5.225 1.419-7.179 23.684-41.732 28.273-49.739 18.581-32.42 41.482-62.98 63.007-93.545L1023.4 182.838c9.22-12.83 53.63-77.694 62.66-84.785M854.753 741.574c5.387.03 22.383 18.168 26.936 22.665 18.906 19.976 40.484 38.556 59.164 58.564 61.747 66.142 124.257 131.721 184.977 198.817 5.28 5.84 22.45 23.04 25.3 29.14.42 3.97-.23 4.78-2.06 8.4-3.3 2-3.71 2.58-7.36 2.46-5.55-2.19-30.04-30.64-36.13-37.23l-58.25-62.442c-51.085-55.132-104.319-109.002-152.198-167.011-13.598-16.476-29.252-35.208-40.379-53.363m-279.265-78.92.146-.023.274.388c-25.53 10.224-47.135 17.04-72.974 25.83a3496 3496 0 0 1-245.595 71.766 2829 2829 0 0 0-49.119 12.99c-10.177 2.811-25.788 7.834-35.604 9.115-3.168-3.048-3.995-3.619-5.016-7.872.53-2.594.032-2.202 1.499-4.015 1.767-2.184 5.064-3.783 7.775-4.618 17.675-5.44 35.709-10.476 53.482-15.557a4509 4509 0 0 1 105.036-29.327c70.342-18.955 139.379-40.977 211.234-53.849 9.732-1.744 18.898-4.362 28.862-4.828M384.02 190.865c9.992-.842 15.303 7.942 21.593 15.329 27.593 32.399 53.745 66.089 80.49 99.156 32.092 39.68 65.564 78.148 96.876 118.507a1834 1834 0 0 1 57.001 78.079l-.94 1.205c-4.027-3.343-8.093-7.771-11.87-11.441-82.08-79.775-151.202-171.882-222.269-261.278-7.949-9.998-17.694-20.445-23.235-31.881-1.143-2.358 1.277-5.731 2.354-7.676m155.666 443.721c7.149-1.357 24.501-1.026 33.901-1.933-2.903.711-14.19 3.671-16.513 3.784-20.833 6.149-54.188 12.058-75.841 15.167-74.064 10.636-149.255 16.72-223.675 24.71-12.583 1.351-84.028 9.893-91.199 7.948-4.445-4.233-4.22-7.756-.653-12.176 8.471-4.147 38.607-6.199 49.469-7.353l66.21-7.346c62.443-7.044 125.505-13.922 188.053-19.937 17.473-1.68 52.847-3.211 70.248-2.864m-91.811-505.948c1.946.289 4.223.796 5.929 1.8 6.061 3.566 134.155 221.709 147.057 245.335 11.773 21.559 39.249 70.922 44.798 92.753l-.913-.122c-50.535-64.148-94.127-144.862-135.929-215.376-8.357-14.098-65.176-108.442-66.111-117.107.838-3.691 2.399-4.632 5.169-7.283M318.276 244.544c6.464.812 27.299 21.048 33.984 26.751a3646 3646 0 0 1 69.313 59.87c42.086 36.69 85.524 72.041 126.385 110.094 8.038 7.486 65.474 63.602 65.337 67.644l-1.442-.743c-21.105-15.623-43.14-31.384-63.765-47.544-79.996-62.676-155.219-131.81-230.79-199.718-6.756-6.07-5.106-10.764.978-16.354m642.102-143.73c2.615-.027 5.801-.195 8.101 1.293 1.635 1.059 2.753 2.333 3.153 4.259 2.055 9.891-112.831 258.578-126.455 285.146-8.331 16.244-18.917 32.12-28.96 47.37-1.683 2.248-1.879 2.396-4.02 4.254l-1.142-.538c-.549-13.075 28.424-76.043 34.937-91.018a8907 8907 0 0 1 80.736-178.08 3294 3294 0 0 0 19.534-42.827c3.201-7.265 9.898-24.003 14.116-29.859M559.291 703.1l.985.354c-11.129 16.265-327.675 154.21-349.627 154.914-1.274-1.33-2.882-3.122-3.481-4.916-.756-2.265-.44-4.339.767-6.372 4.208-7.085 227.065-99.22 253.334-109.415 31.963-12.404 65.018-25.437 98.022-34.565m-27.697 210.891-.084 1.721c-66.279 109.468-151.03 211.558-227.724 313.918-1.761 2.35-6.652 1.9-9.113 1.62-4.861-6.71-3.269-10.17 1.324-16.89 8.017-11.72 16.967-22.97 25.44-34.4a4036 4036 0 0 1 53.894-71.79c50.901-66.36 98.713-133.154 156.263-194.179m49.073 50.866c.138 5.982-28.139 68.943-32.501 77.583-29.161 57.55-59.246 115.47-90.125 172.07-7.4 13.56-42.222 85.02-49.409 90.1-3.544 1.14-4.436.46-8.211-.77-1.4-1.8-1.662-2.73-2.507-4.79.535-7.13 23.14-49.87 27.98-58.94 49.209-92.23 95.66-188.98 154.773-275.253m-45.365-867.24c6.504 2.476 8.239 5.393 10.444 12.079C556.22 141.452 670.439 418.5 663.293 431.952l-1.829-.445-.575-.705c-43.357-74.193-70.566-159.701-101.547-239.483-5.881-15.143-30.845-80.641-29.966-87.731 1.469-3.622 2.389-3.78 5.926-5.97m84.779-38.019c1.922.135 4.739.192 6.268 1.396 8.821 6.948 62.975 286.71 66.979 318.488-1.917 2.881-4.498 6.083-6.629 8.874l-1.14.953c-.251-.179-.531-.325-.755-.539-11.271-10.763-45.302-204.06-51.943-237.133-3.675-18.303-7.855-36.517-11.653-54.797-2.001-9.632-4.669-19.735-5.26-29.553-.224-3.727 1.851-5.163 4.133-7.69m271.59 4.991c4.696.407 11.203 1.912 10.512 7.505-2.32 18.805-11.784 40.405-16.925 58.345a3676 3676 0 0 1-43.176 139.076c-10.936 33.502-24.479 81.326-40.546 112.161-.899 1.593-.887 1.351-2.227 2.681-2.966-2.047-3.457-4.87-5.174-8.633 14.351-63.48 36.182-122.135 55.204-183.614l21.883-70.831c3.944-12.706 13.632-46.933 20.449-56.69M706.294 48.823c2.224-.127 6.987-.054 7.787 2.185 6.248 17.497 5.599 47.235 6.524 65.533l4.353 74.518a3416 3416 0 0 1 6.194 121.017c.546 17.135 1.691 36.468-.153 53.421-.335 3.079.007 2.064-2.493 3.919-3.827.789-3.511 1.349-6.629.247-1.298-1.426-2.194-2.693-2.529-4.634-.904-5.236 1.108-10.957.106-16.072-5.502-28.066-5.668-60.414-7.285-89.242-3.325-59.308-7.533-118.737-9.836-178.082-.296-7.634-2.301-20.048-.244-27.123.603-2.074 2.763-4.129 4.205-5.687m92.539 1.761c4.054.344 5.916.874 8.55 3.705 2.933 7.46-27.915 247.844-31.413 271.783a390 390 0 0 1-6.046 32.739c-2.218 2.294-6.302 3.188-9.326 2.467-6.082-6.315 2.653-63.015 3.995-73.993l14.731-116.073 9.425-76.421c1.573-12.458 3.077-25.495 5.356-37.863.422-2.288 3.046-4.679 4.728-6.344m409.217 417.509c6.69-1.134 9.39.875 12.88 6.682.16 1.77.56 2.337-.23 3.644-2.61 3.144-9.81 6.036-13.63 7.324-65.53 22.064-131.55 42.766-197.64 63.084-10.029 3.084-21.184 4.481-31.391 7.116-12.668 3.27-25.303 6.45-38.044 9.427q-.939.192-1.881.365c-3.501.645-7.342 1.412-10.345-.645 17.206-15.781 244.391-84.855 280.281-96.997M877.435 728.701c6.713 1.191 18.28 9.918 24.208 14.062 49.472 34.58 97.31 72.802 142.997 112.234 11.82 10.198 54.77 42.885 61.58 53.443.96 3.476.03 5.575-.88 9.111a13.5 13.5 0 0 1-5.84 1.707c-5.03.313-11.73-5.245-15.19-8.594-17.74-17.173-37.42-31.285-56.38-46.898a3883 3883 0 0 1-87.064-74.941 2134 2134 0 0 1-43.681-41.029c-6.091-5.851-13.561-14.03-19.75-19.095m4.864-31.692c5.745 1.164 33.982 14.504 40.677 17.898 22.82 11.569 47.951 23.824 70.172 36.164 23.322 12.953 48.012 27.799 71.042 40.8 10.34 5.839 67.41 35.742 72.57 42.372 1.14 3.59.5 4.913-.33 8.574-1.8 1.107-3.72 2.188-5.88 2.35-10.38.784-152.215-83.629-173.444-97.045-15.746-9.952-31.098-20.657-46.478-31.167-9.412-6.431-19.628-12.604-28.329-19.946m31.412-15.811c13.306.254 42.075 9.886 55.794 13.637a2288 2288 0 0 1 148.575 45.438c8.9 3.024 39.53 11.95 43.34 18.142.72 3.668.14 4.502-1.35 8.004-4.15 3.343-6.77 2.609-11.78 1.352-18.02-4.53-35.34-12.41-53.03-17.83-43.72-13.399-88.14-27.576-130.648-44.566a425 425 0 0 1-50.901-24.177m139.919-67.715c22.9.427 45.8.462 68.71.102 10.77-.07 21.69-.516 32.44.125 8.55.51 12.46 8.425 6.36 14.913-7.14 3.57-104.23 1.311-117.89.95-29.91-.686-90.57-1.503-118.165-6.659 44.638-6.84 83.615-8.163 128.545-9.431m95.37-55.888c7.8-.956 13.48-1.878 16.97 7.025-.18 2.244-.21 3.409-1.88 5.048-8.86 8.703-194.18 23.047-220.651 23.436L926.085 593c17.41-5.363 61.588-13.719 79.825-16.602 45.41-7.178 97.3-14.779 143.09-18.803M917.121 651.27c8.023-1.497 27.41 2.072 36.67 3.138 62.739 7.221 124.579 20.228 186.779 30.823 8.23 1.403 10.55 6.038 8.36 13.751-3.26 2.742-6.18 2.937-10.25 2.34-27.42-4.028-212.048-38.294-221.559-50.052M1413.5 284.016c3.01 1.219 6.46 2.481 8.05 5.568 1.11 2.163 1.02 4.192.05 6.386-2.85 6.507-53.87 29.826-62.97 33.921-4.33-.185-6.32-.791-9.03-4.234-2.23-12.745 52.2-36.179 63.9-41.641"/></svg>