<svg xmlns="http://www.w3.org/2000/svg" preserveAspectRatio="xMidYMid meet" viewBox="0 0 2048 1462"><path d="M1333.67 101.397c3.21-.715 16.59-.75 20.51-.758 41.79-.079 82.54 11.278 118.48 32.565 45.19 25.598 73.07 58.928 85.22 109.866 11.18 46.875 4.68 97.773-35.84 128.861-16.82 12.904-31.59 16.318-51.33 21.38a423 423 0 0 0-14.48 20.089c-5.69 8.559-13.28 24.925-21.5 30.669-2.98 2.081-14.21-2.783-18.1-4.267-2.1 3.272-5.15 6.18-7.86 9.026 21.57 16.292 55.12 36.12 64.67 62.933 22.62 63.494-3.47 145.999-17.82 208.725-9.24 40.404-20.29 84.381-34.92 121.153 2.78 2.55 5.73 5.128 8.68 7.489 28.45 22.742 54.7 50.56 83.59 72.569 30.22-8.047 55.09 22.417 70.76 44.315 10.56 14.767 28.37 38.428 20.42 57.118 30.87 2.41 66.43.14 97.85.62 37.94.57 75.68.92 113.68 1.28 21.34.2 44.64-1.87 65.89.35 5.71.59 8.22 4.7 11.41 9.05.11 14.21 8.25 74.33 4.52 82.35-3.62 7.77-15.82 15.8-22.35 21.83-8.34 7.69-19.56 20.83-29.81 25.29-6.58 2.85-16.4 1.43-23.49 1.43-12.31 0-86.94-1.33-93.65.95-2.5 5.33-.23 40.56.08 48.56 47.91-.24 96.18.87 144.14.69 10.99-.05 30.11-1.25 39.59 3.33 6.67 8.41 10.58 89.21 9.35 103.12-10.75 11.28-27 28.74-41.22 34.78-9.86 4.19-81.04 1.22-97.25 1.29l-599.98-2.89c-20.49-.07-173.85 5.45-185.437.67-32.858 2.23-80.968.81-114.586 1.15l-231.65 2.28-233.593 2.77c-25.301.08-50.626.4-75.856.72-8.498.11-14.516-3.85-14.998-12.18-1.543-26.66-.502-55.22-1.251-81.75-36.798 1.21-75.358-1.06-112.22-1.39l-51.562-.2c-10.75-.01-33.838 2.52-40.669-5.9-2.607-8.72-4.598-89.47-2.923-99.68 16.262-11.37 51.57-31.82 70.933-36.95 4.271-1.13 22.301-1.05 28.026-1.16l51.761-.97c.353-12.81-2.039-42.6.43-53.82 1.173-5.33 53.17-31.66 59.502-36.45 2.679-2.03 4.387-1.96 4.041-4.79-1.742-14.23-5.657-28.737-7.018-43.133-5.029-53.223-11.954-113.321-2.104-166.11 1.454-7.792 7.148-18.137 14.039-21.137 40.678-17.714 101.132-12.171 141.407-1.003-47.027-51.057-59.515-130.375-42.378-196.184.643-3.897.632-7.854.664-11.79.452-55.473 37.088-114.774 68.534-157.473a642.3 642.3 0 0 1 297.546-221.679c91.351-32.356 224.872-54.367 314.682-9.227 7.62 3.833 26.75 12.07 33.36 18.121.76 2.155 1.4 3.961 1.91 5.419 1.37-2.521 2.9-7.449 4.23-9.211 4.84-5.113 16.94-4.167 23.31-6.622 19.53-7.517 37.73-28.78 50.5-45.095 26.68-34.071 58.21-56.391 102.13-60.989"/><path fill="#fefefe" d="M462.873 607.487c20.652 2.055 43.801 2.028 64.82 3.252a894 894 0 0 1 130.449 16.005c14.891 2.833 33.262 5.58 48.884 10.961 51.287 17.663 105.159 51.405 147.124 85.161 10.806 8.691 34.251 47.933 43.479 60.405 25.343 34.251 51.24 69.744 74.76 104.995a1011 1011 0 0 1 53.081 90.316c23.6 45.298 43.84 90.398 27.75 141.448-20.92-.53-62.524 1.68-81.591-1.19-16.357 7.86-35.887 21.65-52.349 31.1-7.778 4.47-3.045 34.07-4.246 42.04-.848 5.61 3.009 25.22-2.986 26.66-7.131-10.28 5.487-86.97-12.917-100.86l-.976-.73c-16.368-.58-34.826 1.41-51.715 1.59L691.647 1120c-2.161-16.51-2.414-33.48-3.593-50.06-.918-12.92.661-25.8-6.696-36.93-10.563-7.44-90.672-.12-108.385-3.86-6.199-1.3-26.058-10.52-32.669-13.41l-67.384-29.424c-3.748-58.907-3.297-116.314 21.878-170.827 7.094 8.804 37.323 37.784 46.42 45.81 64.941 57.301 135.429 107.387 205.637 157.881 9.971 7.17 40.296 34.92 49.221 34.45 2.842-1.83 3.267-1.88 4.538-4.84.801-17.17-71.992-66.795-87.868-79.469-50.886-40.621-103.756-79.75-151.581-124.035-66.926-61.973-125.998-141.801-98.292-237.799M1160.83 244.68c1.65 1.675 6.73 8.754 8.91 11.284 12.58 14.582 20.89 18.093 37.7 25.667l-.35 1.177c-5.96.417-15.13-.14-16.63 6.749 3.5 11.967 22.9 17.753 33.91 18.91-3 7.098-8.17 16.478.67 21.456 8.24.453 12.41-5.37 17.73-10.22 14.07-13.417 5.72-24.301 10.9-41.445 5.84-19.324 32.37-37.228 52.23-30.618 20.23 6.731-1.52 36.322-7.2 46.771-8.85 18.111 10.22 18.889 21.27 12.974 27.7-14.823 45.37-4.543 71.27 6.29 27.49 11.502 87.47 17.139 114.84 4.99-6.41 11.403-14.42 24.834-22.69 35.018-19.83 24.401-40.77 44.883-55.1 73.43-8.74-3.055-25.05-14.266-33.11-10.658l-.44 2.269c1.64 6.186 4.2 7.153 9.51 10.49-7.05 7.387-15.81 14.362-24.37 19.89-14.61 9.44-31.44 17.45-49.21 13.544-9.93-2.185-18.81-7.631-26.02-14.718-29.66-29.181-20.78-77.156-27.68-84.871-2.14-2.395-4.2-3.03-7.25-3.008-2.79 1.649-4.87 4.508-5.27 7.806-4.92 41.394 15.13 98.907 59.96 109.706q2.745.655 5.52 1.133c25.17 4.236 43.18-5.764 63.24-19.84 45.92 27.498 73.46 55.419 67.15 113.329-4.36 39.933-14.15 79.459-24 118.384-10.92 43.167-20.89 90.196-37.44 131.531-23.34-22.175-49.01-42.892-72.66-65.377 10.64-17.244 8.78-25.831-5.97-39.309 1.11-28.005-7.83-28.084-19.57-39.171-.29-.269-6.23-46.862-7.11-53.417a1358 1358 0 0 0-17.7-103.734c-2.72-13.007-7.25-34.784-11.36-47.119 2.49-7.407 5.6-18.77 2.88-26.598-19.93-57.408-61.82-104.415-88.5-158.793-7.31-14.896-12.43-28.696-18.06-43.902"/><path d="M1385.79 326.813c11.97 1.135 68.77 27.884 44.64 40.715-5.46-.542-14.11-10.66-19.37-14.578-7.82-5.821-28.64-11.047-30.55-20.239 1.79-4.045 1.1-2.686 5.28-5.898m-59.19 66.919c12.48.759 13.46 13.347 22.89 20.917 2.42 1.938 12.86 12.274 13.93 14.553-.61 4.061-1.1 3.649-3.75 7.112-4.97 1.667-8.02-.732-12.28-3.373-10.74-6.671-20.87-17.704-23.89-30.251-.99-4.121 1.01-5.874 3.1-8.958m75.54-30.155c17.04 4.721-.07 25.94-7.56 30.857-18.33-5.315-.7-26.835 7.56-30.857"/><path fill="#fefefe" d="m1126.57 763.893 1.2.34c1.72 4.101-4.43 21.254 1.15 32.566 6.59 13.361 13.5 16.568 26.78 21.89 1.34 19.643 7.47 24.47 24.21 34.213-5.7 38.209-16.87 77.048-21.07 115.83-1.89 17.484-2.82 21.487 15.94 23.412.35 6.657 1.35 26.486.15 32.126-7.48 3.44-28.49.6-37.27.86-14.01.42-49.14 22.09-58.32 31.4.36 9.78 2.92 59.3-1.43 64.18-3.23.03-1.74.47-4.5-1.72-.81-2.11 2.34-33.26 2.51-39.24-3.8-78.73-77.879-188.879-124.634-252.455 14.115-2.623 28.255-7.628 41.996-11.774 33.658-10.155 66.998-21.82 99.038-36.338 11.42-5.175 22.64-10.508 34.25-15.29m176.77-5.297c6.03 2.192 13.75 9.979 18.45 14.517 41.24 39.819 84.9 76.592 127.75 114.527a3040 3040 0 0 0 34.81 30.298c6.24 5.402 13.04 11.904 19.9 16.388 5.35 3.494 7.19 3.19 12.9 1.7l.87-.232c12.94 3.177 14.61 25.347 15.26 36.067-8.02-3.153-26.1-14.731-29.2-.389 4 13.967 51.07 19.507 53.2 38.308l-1.24 1.42c-7.65 1.29-42.99-13.025-52.99-14.729-6.15-1.048-8.18-1.525-15.3-1.884-3.82 2.124-5.81 2.599-7.89 6.613-.4 9.3 11.46 9.99 18.68 11.57s14.3 3.16 21.49 4.89c6.55 2.09 13.05 4.34 19.48 6.75a2467 2467 0 0 1-48.22 27.56c-30.92-14.25-35.72-31.06-35.66-62.695 3.04-3.491 4.37-4.663 4.93-9.158-1.69-6.296-6.83-6.784-12.32-9.109-75.89-32.147-151.9-69.23-220.38-115.054-6.63-25.227-1.84-55.411 16.25-75.02 15.45-16.76 37.28-21.6 59.23-22.338m-255.22 405.944c14.99 2.03 51.08-.81 67.9-.56 36.91.55 74.38 1.28 111.25.65 10.43-.18 58.84-1.21 66.54 1.24 1.4 5.79.69 13.58 1.2 19.52 1.57 18.11-.23 42.96 1.85 60.24l.15 1.24c-12.07 1.38-35.95 1.29-48.18 1.35-21.86.27-43.72.39-65.58.35l-93.75-.88c-15.33-.25-41.82-.99-56.56-1.52-18.06-.65-88.478 3.77-99.47-.03-.943-4.82-.716-20.62-.783-26.4l-.68-53.88c30.794.16 86.033 1.41 116.113-1.32m20.61-573.573c6.38 7.149 18.78 60.754 23.13 74.375 8.52 26.689 17.66 46.581 29.44 71.864-15.3 5.324-41.07 18.226-57.26 24.977a910 910 0 0 1-96.433 33.27c-5.425 1.555-28.997 8.009-33.333 8.106l-1.959-2.155c-17.232-22.619-39.24-60.36-58.228-80.229A574 574 0 0 1 1025.5 609.974c14.32-7.217 28.89-12.076 43.23-19.007m389.47 572.673c3.52.94 9.27.02 13.21.49 20.79 2.48 40.77 1.25 61.56 1.23 42.9-.25 85.8-.02 128.69.71-1.28 13.5 4 76.2 1.41 82.23-6.5 3.89-111.65.69-126.82 1.92-4.33.35-21.71.39-26.77 0-.16.04-36.09-.93-39.21-1.09-51.68-2.73-105.73 1.96-157.13-1.36 1.02-26.21-1.87-55.99-1.78-82.81 23.58-1.08 47.82.41 71.45-.45 24.53-.89 51.06 1.37 75.39-.87m-774.384 3.81c37.742-.44 75.488-.12 113.217.95 7.986.24 30.956.55 37.491 2.35 3.277 5.06 4.22 71.32 1.685 78.07-6.777 3.95-176.883 2.9-196.627 2.63-21.051.81-46.984.26-68.45.67-20.622.4-60.641 1.95-80.06-1.43-3.386-5.75-1.01-65.71-3.443-80.02 13.972-1.13 35.261-.82 49.77-1.04l91.689-1.45c17.703-.2 37.242.22 54.728-.73m388.724 97.15c-.87.19 17.74 1.64 19.09 1.71q.81 23.745.51 47.49c-.08 8.22-1.13 18.16-.13 25.99l-57.78.08c-9.57.02-25.2-.56-34.06.72-1.273 1.77-.614 1.32-2.409 2.25l-1.544-.66c-9.614-4.03-11.93-2.39-22.019-2.34l-41.082.1c-62.25.21-125.134 2.92-187.075 2.26-3.702 1-26.256.44-30.341-1.69-2.468-8.9-2.521-60.85-.489-70.47 1.881-1.82 2.77-1.95 5.92-2 24.249-.39 48.861-.08 73.095-.33l198.605-2.43c23.269-.36 58.319.74 79.709-.68m624.63-2.12c22.85 1.38 155.18-1.7 164.99 2.71 1.92 7.59 2.87 65.13 2.95 75.94-21.25 2.44-63.36.19-86.52.28l-80.71 1.03c-9.39.05-30.55.43-39.18-1.15-6.75 3.1-139.27-1.61-158.46.5.95-11.67-2.44-70.26.76-74.69 7.26-1.06 13.66.39 20.68.15 51.45-1.78 102.99-.29 154.44-1.73 7.5-.21 13.73-2.39 21.05-3.04m-439.61 2.02c.84-.24 34.03.36 37.28.36l110.04.26c24.69.13 51.57-.01 76.09 1.62 2.41 5.23 4.01 69.28 1.74 73.51-19.8-1.08-41.34.84-61.17.37-16.66-.4-32.66-.25-49.28-.1-12.79.12-25.16-1.48-37.98.12-4.37.86-14.31-1.04-19.5-1.09-68.45-.57-137.04-2.6-205.5.13-.28-9.4-.78-66.52.63-72.15 5.8-3.12 127-1.03 147.65-3.03m-801.229 3a7126 7126 0 0 0 239.794.43c.398 4.54.499 9.06.431 13.63-.3 20.15.797 40.35.435 60.49-28.479.92-66.257 1.6-94.867.89-39.847.88-81.002.41-120.289 1.59-31.827 1.16-63.676 1.6-95.523 1.3-10.772-.07-31.503.28-41.25-1-2.889-3.48-2.896-67.76-2.85-75.88 23.89-.55 48.316.17 72.36-.62 13.992-.46 27.568.4 41.759-.83"/><path fill="#fefefe" d="M1095.92 1067.48c7.69-.86 23.12-.49 31.62-.49l59.19.21 166.18.72c23.06.14 54.05 1.37 76.24.76-.78 23.75.55 54.87.96 79.22-5.5.78-16.65.42-22.58.4l-83.09.17c-11.49.01-22.93-.08-34.41-.38-1.72-.04-7.03 2.62-8.96 3.46-1.39-.9-5.63-3.55-7.19-3.51-24.75.66-49.54-1.3-74.25-1.66-19.87-.29-40.06 1.36-59.98.94-12.41-.26-24.82.56-37.22.57-3.13.02-3.26-.2-4.72-1.89-.31-6.53-2.54-76.76-1.79-78.52m-696.1 104c23.118.12 49.22-1.21 71.883-.19-.292 10.39 1.883 71.33-1.942 75.65-11.464 6.49-40.065 3.52-54.419 4.66-16.793 1.34-35.397.5-52.317.43l-156.798-.85c-2.542 1.01-65.739-.68-69.442-2.76-1.249-6.48-1.28-20.6-1.485-27.81l-1.446-46.47c32.456 2.52 80.053-.01 112.869-.32l107.327-1.47c14.97-.29 30.928.07 45.77-.87m134.214-91.77c6.742 2.85 74.709-1.14 91.719 1.47 1.498 23.59 2.677 47.21 3.536 70.84-19.98-1.6-60.552.59-82.139.84l-103.639 1.86c-21.575.38-43.001.16-64.592 1-29.778 1.25-65.792 1.1-95.247.73l1.28-74.42c20.702-.83 44.988.03 66.097-.15l114.89-1.45c17.406-.1 53.439 1.63 68.095-.72m961.136-6.78c14.99 2.54 24.47 1.68 39.45 1.68l50.33.27 140.03 1.98c11.72.09 99.24-.95 103.96 3.25 2.34 7.75 5 62.49 3.85 70.31l-11.54-.39c-70.16.45-140.32.23-210.47-.66-36.9-.21-77.35 1.3-113.55 0-.98-6.45-.96-22.58-1.18-29.78-.47-15.1-1.53-31.69-.88-46.66m-292.32-203.647c12.5 7.726 15.77 10.445 30.53 9.384 52.35 33.835 83.98 48.685 139.2 75.001-.77 5.266-.52 13.581-.53 19.12l-26.29.535c-10.09 1.121-157.89 4.734-162.14 2.581-3.99-10.756 15.18-91.403 19.23-106.621m338.53 169.767 223.34.94c28.45-.02 74.34 1.55 100.8-.44-12 7-18.2 15.39-33.19 23.32l-9.08-.74c-36.5-1.02-74.72-.68-111.36-1.05l-107.9-1.85c-23.56-.21-46.99.58-70.48.02-6.41-.15-16.71.16-22.77-.63.88-2.84 26.29-17.02 30.64-19.57m-1115.069 6.47c15.336-1.52 55.725.17 72.481.23l158.502-.39c-7.477 6.23-22.472 14.62-31.062 19.6-23.247-1.39-47.115.67-70.401-.7-2.826-.17-8.456-.03-10.545-.3-77.123 1.74-154.795-1.01-231.935 1.71-2.943.1-6.464.38-9.059-.95l.742-1.75c4.584-3.35 28.2-15.01 33.059-15.37 27.992-2.06 60.278-1 88.218-2.08m713.139-5.03c4.83-.76 17.78.17 23.53.24 16.37.17 32.85.65 49.23.71l171.35.27c15.2.18 52.48-.81 66.25 1.64-4.27 2.89-12.75 7.09-17.57 9.64-29.74.37-62.87-.63-92.78-.9l-122.8-.29-69.41-.35c-6.31-.06-25.52.12-30.93-.97 2.65-5.03 16.82-9.85 23.13-9.99m255.28-75.29c11.83 5.953 35.85 13.651 44.28 21.082-.28 17.208-1.2 24.908 5.48 41.028-9.8.51-34.98 2.03-43.04-2.26-18.4-10.7-38.15-20.16-56.96-30.716 13.51-.242 25.91-.474 39.42-1.511 4.18-2.93 5.39-4.418 8.81-8.158 1.88-7.127 1.92-12.149 2.01-19.465m-560.699 169.35c12-.23 25.775-.77 37.585.2-8.156 5.95-23.825 14.52-32.994 19.89-43.132-2.14-79.993-2.68-122.915-3.24-13.434.04-26.868-.16-40.295-.62a358 358 0 0 0 16.459-14.57c45.249-1.72 96.348-1.27 142.16-1.66m966.119 96.06c10.49 3.69 77.24-2.41 83.46 1.95-3.09 1.85-17.01 14.04-17.97 14.08-23.15 1.11-47.07.41-70.39.38-30.84.22-59.47-1.06-90.91-.42 10-7.57 13.2-10.31 24.12-16.02 17.37 1.05 54.23 1.07 71.69.03m-823.289-96.51c11.968 3.12 65.039-.21 80.559.97 6.78.51 14.93-1 22.69 1.11 1.28 2.94 1.05 9.06 1.14 12.55-5.37.52-22.89.37-25.47 1.06-8.66-.55-22.01-.04-31.04.02l-81.084 1.3c9.722-5.28 23.266-13.14 33.205-17.01m-722.697 4.4c5.291-.01 8.75.25 14.031.8-.197 3.98-.386 14.85-1.93 17.61-14.497 1.13-31.453.52-46.286.74-14.524.21-29.456.81-43.878.49-6.983-.01-14.539.39-21.563.62 39.907-26.44 53.352-18.48 99.626-20.26M1544.92 944.507c4.44 2.892 9.8 8.986 13 13.328 8.55 11.594 45.32 53.395 27.21 67.325-5.8-.23-9.39-1.29-15.05-2.67l5.68-8.29c-3.25-26.817-13.98-19.773-24.75-39.821-1.59-2.957-3.76-22.14-6.09-29.872M901.001 1233.17c2.562.82 11.902.8 15.152.87-.099 4.9-.541 10.11-.881 15.02l-23.509-.48c-3.985-.3-14.389.75-16.318-1.06 4.888-5.11 18.778-11.11 25.556-14.35m-429.106-222.42c11.398 5.14 27.359 11.75 37.709 17.78l-.382.88c-11.482 1.81-25.852-1.11-37.135.52z"/></svg>