<svg xmlns="http://www.w3.org/2000/svg" preserveAspectRatio="none" style="display:block" viewBox="0 0 2048 1152"><path fill="#fefefe" d="M0 0h2048v1152H0z"/><path d="M1046.67 106.164c28.22-2.171 37.19 14.565 45.8 37.638 11.3 8.729 55.77-12.293 49.41 23.23-1.9 10.573-35.43 1.939-42.43 6.759l-1.74 9.899c11.62 21.234 5.34 39.851-15.49 52.429-4.46 2.69-10.67 4.469-14.45 7.934.95 2.724 6.96 6.655 9.65 8.684 18.79 2.419 27.82 7.849 47.55 2.904 18.39-4.61 32.25-16.957 41.81-32.537 5.99-10.446 12.44-26.392 5.47-37.574-9.76-15.64-7.59-13.405-2.28-27.117 6.41-16.583 12.82-31.8 32.22-35.612 19.1-3.753 40.13 8.063 43.19 27.752 1.83 11.567-3.41 20.549-9.79 29.62 5.23 17.589-9.34 23.741-23.82 26.738-10.18 44.655-30.85 70.286-70.02 87.332.12-.052-.82 4.544-3.62 6.977-6.71 1.841-29.69-2.924-36.52-5.576 1.35 33.07 5.61 74.094 8.54 107.374 22.23.277 43.51-.212 66.41.017 9.74.097 19.8 2.2 34.49 3.017 25.4 1.412 69.39-4.034 92.49 3.104 6.92 2.136 2.55 33.514 2.8 39.316.01.175.33 1.919.37 1.927 12.31 2.586 37.51-3.735 47.96 5.071 7.56 6.363 7.43 28.485 8.13 38.435 48.16.389 42.21 9.257 47.89 53.273 41.13-1.308 35.82 3.487 42.95 42.625 40.98.158 30.18 18.116 35.9 52.7 46.85-2.81 41.35 14.406 45.86 55.352 19.44.019 38.02-2.377 42.24 21.895 2.47 14.231 3.98 28.957 5.94 43.27 9.55.095 18.17-.728 27.45 3.177 15.81 6.655 11.23 47.145 22.71 52.55l2.35-.897c6.07-6.3 7.73-20.287 11.84-30.124-7.96-4.325-14.44-8.228-21.76-13.545-27.63-20.068-60.63-72.703-36.03-104.782-17.26-33.602.47-71.896 21.79-98.934-7.45-7.373-11.84-7.107-20.62-11.116-11.91-5.441 3.11-25.859-1.82-38.285-2.56-6.449-6.02-10.098-12.44-13.412-14.07-7.252-39-8.912-54.05-4.524-14.79 4.313-10.78 13.665-14.97 23.424-3.85 8.946-19.15-.691-27 2.142-6.76 2.438-7.11 3.781-10.77 10.283.22 5.657 1.12 9.825-1.22 15.241-3.66 8.519-20.63 9.981-20.9-.778 2.56-2.92 6.64-2.647 10.81-2.997 2.72-3.18 2.37-10.822 3.44-15.204 4.47-18.402 21.95-18.035 37.13-14.677 5.33-30.576 27.17-29.712 53.06-29.152 30.23.654 50.4 16.362 45.78 48.449-.13.921-2.12 10.161-1.23 11.771 10.01 2.03 13.59 6.546 21.55 12.137l2.52-1.057c2.88-6.636-2.7-11.669-4.06-18.056-5.65-26.565-3.83-54.094 16.89-74.142 14.81-14.321 27.28-15.514 46.61-15.435-2.31-18.456 5.12-36.332 21.03-46.437 39.01-24.782 107.88-34.075 138.07 9.163 12.7 18.19 10.37 42.232 6.24 62.879 4.97 1.801 10.34 3.838 15.02 6.314 41.2 21.781 16.96 70.289 1.33 99.714 34.68-5.632 60.31 3.269 65.49 43.528 1.55 12.016-5.73 21.248-9.9 32.581 3.9 3.413 9.77 8.377 13.07 12.179a30.7 30.7 0 0 1 7.32 22.871c-1.02 11.046-8.87 21.741-17.42 28.253-15.54 11.837-29.03 14.831-47.65 12.686-9.67 14.001-16.63 21.27-30.9 30.818-20.29 13.572-64.05 26.57-87.91 21.294-3.66 4.315-15.25 18.273-13.09 23.528 2.11.302 2.9.574 4.94 1.232 7.78 10.48 6.43 37.446 10.21 52.13 13.89-24.701 31.56-43.803 58.48-54.285 9.88-3.848 62.76-19.945 68.41-7.807-1.21 6.689-25.29 24.915-31.68 32.582-19.03 22.845-30.85 50.952-42.35 77.889 34.21-22.363 78.27-35.678 119.17-31.315 7.86.838 26.37 1.054 30.19 8.733-.46 9.01-8.78 7.47-15.71 9.362-55.99 15.287-94.48 52.365-131.31 95.057 49.53-25.08 95.58-28.393 150.08-23.278 6.19.581 13.59 1.682 17.64 6.749 1.79 8.527-13.07 16.885-19.45 21.413-36.3 25.75-78.31 39.49-122.48 42.48-12.84.87-39.87-4.05-47.66-2.58-.71 1.03-3.88 5.41-5.14 5.37-28.83-.94-57.65-1.8-86.53-1.75l-322.62.98c-32.97.25-65.71 2.49-99.31 2.33l-148.18-1.4c-14.09-.22-28.74-1.94-42.65-1.93-16.12-.96-36.19 3.53-51.92 2.54-32.81-2.07-63.873-1.87-96.639.18-9.541.6-22.784.1-32.286-.45-23.335-1.36-45.943.87-69.17 1.16-38.212.39-76.429-.01-114.625-1.2-83.494-3.12-167.892 2.95-251.373.2-5.46-.18-10.92-.36-16.381-.5-36.657-.73-73.32-1.13-109.984-1.22-25.546.15-54.178 3.17-78.031 2.84l-5.463-6.79c-39.11 4.89-66.223 4.76-104.318-6.82-26.22-7.98-49.464-20.47-71.366-36.9-3.866-3.116-11.935-8.666-13.8-13.259-3.988-9.82 15.932-11.294 20.723-11.74 35.34-3.29 71.317-2.349 105.554 7.593 13.246 3.847 27.442 10.848 39.555 17.284-16.848-34.856-76.322-76.477-111.571-90.601-5.743-2.302-29.496-10.423-31.226-12.583-1.445-9.484 16.016-12.429 23.31-13.652 47.477-7.959 90.153 12.025 128.471 38.253-12.623-34.768-36.626-76.168-67.423-99.073-3.623-2.693-7.612-4.245-11.49-7.21-7.942-15.724 22.792-13.484 31.096-12.345 39.193 5.375 76.269 30.369 100.233 61.197 1.112-10.991 3.361-42.087 7.215-50.225.365-.771.675-1.311.796-2.177.63-4.47-10.107-16.13-13.113-19.972a208 208 0 0 1-27.076-.839c-41.863-4.018-63.043-17.876-88.849-49.01a87 87 0 0 1-3.614-.005c-25.686-.572-60.012-17.17-58.966-47.549.466-13.534 8.829-21.05 18.23-29.5-3.412-7.825-6.945-14.716-8.596-23.144a49.4 49.4 0 0 1 7.829-37.23c15.324-22.217 30.939-17.428 51.724-21.123-19.557-39.485-34.698-85.541 21.59-101.799-5.297-24.839-6.412-49.779 12.253-70.233 33.471-36.679 90.349-24.117 128.813-3.338 21.445 11.585 23.949 26.238 23.949 48.737 12.773.135 25.89 1.977 37.039 8.562a56.02 56.02 0 0 1 25.87 34.98c5.273 21.499 1.093 40.532-10.223 59.145 10.574 10.178 14.964 16.075 23.756 28.119 7.167-6.94 12.641-11.145 22.247-14.115-10.952-32.326 13.906-64.604 47.551-51.8 4.504-24.701 19.183-31.03 42.136-29.92 24.151 1.167 59.231 11.145 66.144 36.885 2.532 9.426-5.412 32.646-14.496 35.4-2.812-1.556-1.977-1.185-3.786-4.496-.195-2.641 7.344-17.93 9.329-24.655-2.683-16.475-15.722-22.753-30.356-28.547-13.392-5.303-34.478-7.292-48.097-2.107-11.265 4.289-9.947 18.949-13.21 28.067-6.706 5.845-28.544-17.275-44.962 9.748-10.83 17.826 4.264 28.676-.651 35.991-2.943 4.381-18.933 8.283-26.931 19.889 9.327 16.122 20.836 48.655 13.515 67.492-.708 1.825-3.966 4.826-5.524 6.234a71 71 0 0 1 3.039 6.036c6.34 14.551 4.881 35.236-1.5 49.407-16.429 36.486-20.752 44.928-56.617 60.09 2.418 5.709 6.625 19.861 7.879 22.353 4.016 2.498 16.627 2.765 21.86 3.203.669.269 4.842-.636 4.879-.974 5.427-49.714 5.715-49.069 54.506-47.145 4.325-17.735 2.67-36.391 6.207-53.701-5.987-4.116-22.722-13.736-21.637-21.542 7.685-2.081 20.216 8.138 26.126 12.375l8.427-3.755c7.24-27.027 17.634-54.164 27.639-80.237-4.04-6.919-19.846-46.835-12.554-52.01 7.585 3.085 14.998 31.98 17.607 40.124 7.526-15.409 15.327-32.083 24.494-46.686 1.828-2.912 3.447-2.828 6.444-2.773l1.716 1.814c1.181 6.809-8.771 22.207-12.465 29.098 10.108-2.044 32.222-11.046 38.686-8.004 2.093 2.776 1.741 1.44 1.243 5.004-4.983 7.962-38.304 11.669-43.318 14.758-9.726 5.991-25.323 55.464-29.643 67.515 8.143-4.983 11.058-7.148 20.005-11.025 11.757-26.257 29.447-5.766 44.314-14.795 3.241-11.387 1.241-33.35 6.738-43.954 3.627-6.997 25.518-1.784 31.667-6.423 2.179-3.685 1.32-11.532 1.652-16.111 1.843-25.474 25.634-24.832 45.731-23.497.021-5.549.54-10.73.95-16.185 2.502-33.29 5.707-38.58 39.64-40.249-.723-53.099 10.319-43.604 57.383-44.02-1.226-13.776-2.152-26.431 2.501-39.665 1.881-1.269 5.984-3.811 8.225-4.009 22.399-1.983 46.618 1.109 69.121 1.582 6.277.131 17.361-4.682 23.698-4.629 38.566.321 77.192 1.354 115.75.223 1.815-13.495 16.395-105.719 15.205-109.515-8.56 1.135-11.06 3.387-19.015 5.628-15.112 4.257-24.823-4.927-36.734-10.622-35.602-17.023-48.114-51.439-59.174-87.433-5.938-1.209-10.515-2.375-15.086-6.505-2.262-3.582-.442-7.801-.641-12.136-.338-7.332-4.348-15.048-2.898-22.534 1.413-7.298 8.079-7.168 12.923-10.528 2.084-1.445 2.639-5.823 5.845-7.752 2.896-1.743 6.547-.518 9.921.199 5.294-2.398 13.288-21.974 24.623-1.107 2.005 3.691 5.443 3.028 9.419 3.809 16.334 13.156 6.835 33.311-3.714 46.51 3.616 20.761 13.981 53.668 36.649 60.222.466-2.267-.367-4.652.384-8.219 3.057-5.068 9.865-6.267 15.476-7.911a256 256 0 0 0 14.962 3.874c-9.713-10.327-21.459-12.951-8.541-27.681l9.831-1.609.71-2.317 2.07 1.331.24-.096c-22.293-14.094-5.4-21.85-5.91-34.382-4.77-6.36-22.688-1.269-30.954-7.454-6.141-4.595-1.836-18.856 1.204-20.653 5.996-3.545 26.78-1.5 34.97-1.962 1.69-3.873 3.43-7.723 5.21-11.551 7.49-15.859 15.02-20.91 30.5-26.414"/><path fill="#fefefe" d="M1760.8 398.329c20.91-3.812 48.68 2.014 64.25 16.599 20.76 18.935 13.75 42.967 12.22 67.32-.61 9.596 22.77 11.895 28.92 19.934 4.47 5.861 9.01 14.331 8.31 21.863-3.39 35.942-26.65 73.347-52.06 98.222-8.89 8.328-18.43 14.107-27.57 21.673-1.82 1.507-1.67 3.709-1.5 5.565 5.81 5.151 9.42.595 13.96-3.663 4.31 28.27-5.95 37.948-22 59.765-8.29 11.265-17.02 22.18-27.14 31.986-19.72 19.105-43.08 38.222-71.31 41.678-9.26 1.07-18.66.748-27.65.718 6.15-18.365 11.93-39.891 19.04-57.198 3.05-7.415 45.87-24.848 46.99-35.413-5.52-7.913-36.51 15.628-42.93 19.778.89-2.893 1.59-6.026 2.36-8.967 10.67-40.609 23.81-80.542 41.3-118.684 16.95-7.691 65.12-20.395 76.78-28.674 1.09-3.214.79-4.896-1.78-6.991-4.79-.666-56.48 19.203-68.27 22.162 15.7-30.848 34.52-60.346 50.48-90.956.84-1.62-1.34-4.107-2.3-5.624-8.13 1.535-10.06 13.259-15.47 17.134-.44-4.338-1.3-9.903-1.49-14.032-.44-9.453 1.19-20.589-1.15-29.812-2.63-2.718-1.79-2.745-4.71-3.056-5.97 6.125-2.13 50.814.36 59.87-10.42 15.8-24.95 46.056-35.44 64.024-3.29-21.894-4.19-45.7-8.23-67.501-.68-3.636-2.15-6.353-5.29-8.163l-2.05 1.188c-3.8 6.765 6.17 75.363 8.73 87.991-3.93 9.552-7.78 19.138-11.69 28.696-13.5 32.979-21.98 67.601-32.86 101.345-7.43-16.383-10.56-35.503-14.88-52.726-.8-3.186-2.43-3.93-4.86-5.094-3.09.886-2.08.144-3.82 2.723-1.97 12.273 13.56 57.558 19.34 69.886-2.78 13.282-13.09 42.098-17.74 56.059-11.74-7.511-23.5-14.569-32.42-25.412-17.74-21.562-31.6-44.003-23.41-72.59 15.94-14.838 1.83-12.565-.3-28.027-5.49-39.839 16.46-64.696 41.7-91.036-13.69-22.174-17.05-53.001-1.46-75.499 7.86-11.323 21.14-20.955 35.57-19.767 33.44 2.752 12.06-21.178 26.9-39.03 14.42-17.847 42.79-24.575 64.57-28.264m-1494.357-.935c25.196-2.955 58.562 8.188 80.015 21.424 15.884 9.799 11.59 26.583 14.791 42.724 4.581 5.456 22.63 3.195 32.955 7.689 12.41 5.402 19.766 10.44 25.962 23.233 5.947 12.278 6.329 33.575 1.183 45.959-2.958 7.118-7.279 13.696-10.19 21.634l-.376 1.042c29.64 31.009 43.387 51.621 46.663 96.262-4.691 5.128-8.086 8.337-11.146 14.634 10.322 14.106 13.588 27.281 7.298 44.816-5.69 15.858-16.216 37.32-29.698 47.779-5.067 3.93-15.607 8.779-21.684 11.866-6.514-12.747-16.764-44.443-18.324-58.117 4.114-8.238 26.087-61.678 20.665-67.17-.745.036-1.337.056-2.015.407-7.875 4.088-20.093 43.567-22.401 52.937-4.972-9.451-13.833-39.657-17.812-51.3-8.241-24.112-16.684-48.527-27.114-71.84 5.078-21.582 9.671-65.666 9.285-88.999-.034-2.066-1.106-2.388-2.543-3.28-4.085.101-2.609-.42-5.767 1.711-1.102 3.212-.984 5.215-1.163 8.552-1.233 23.06-4.122 45.898-5.687 68.964-11.488-19.478-24.796-46.939-35.674-67.609.902-13.468 4.038-45.324-.162-58.216-.481-1.476-1.796-1.492-3.384-1.979-8.641 5.113-.998 32.84-4.817 44.173l-1.524-.153c-2.557-4.916-4.831-12.917-10.473-12.621-7.694 5.567 7.257 25.629 11.229 32.658 11.836 20.941 22.409 42.323 33.706 63.536-21.701-9.141-43.171-15.686-65.243-23.604-4.154-1.49-7.694-.026-8.516 4.341 1.548 3.085 3.435 4.07 6.815 5.285 25.286 9.087 49.078 15.521 73.609 26.936 9.068 23.214 18.437 45.731 26.504 69.441 6.499 19.102 11.782 39.383 18.863 58.152-7.689-4.923-37.669-25.702-44.012-25.908-2.906 1.815-2.384.911-3.533 3.612 2.509 8.302 40.264 29.107 49.873 34.842a1777 1777 0 0 0 19.058 57.48c-6.481.34-12.976.294-19.452-.137-45.612-2.798-69.199-26.537-100.325-58.755-11.177-11.569-29.432-36.125-28.136-52.976.564-7.336 9.193-14.048 14.544-18.723-13.856-14.897-32.371-25.462-46.75-43.241-19.023-23.52-37.511-51.382-37.266-82.942.198-25.35 28.006-26.016 39.276-35.492 3.308-5.038-2.878-19.534-3.375-26.225-2.658-35.816 21.578-59.655 56.268-62.802M1392.15 891.447c5.39-.686 10.97.431 16.32.19 21.27-1.224 43.6 2.569 64.59.783 22.56-1.918 42.97-.933 65.41.679 8.04.577 18.6-1.146 27.03-1.241 36.12-.235 72.24-.044 108.35.573 9.14.188 20.07.236 29.22.136 18.83-.207 17.53 35.553 19.29 48.283.57 4.096.75 9.789 1.06 14.007-32.95-3.049-84.49-1.1-118.46.4-30.72-2.753-65.19-.489-96.36-.96-2.28-.234-6.73.559-8.82.134-14.65-2.996-31.6 1.579-45.23.903-41.21-2.044-82.18.161-123.38-1.112-12.07-.373-27.84.681-39.34-1.257-1.61-4.774-2.85-14.796-3.92-20.385-2.63-13.808-4.97-26.706-8.66-40.302 18.7 1.693 34.37-.32 52.59-.15 21.9.204 38.22 1.233 60.31-.681m-866.668-1.004c11.933-.236 23.595 2.072 35.214 2.052 8.539-.015 17.66-1.127 26.459-1.225l117.159-.215c15.713.038 47.956 2.934 62.32.077-1.126 5.223-14.312 64.114-13.659 63.2-10.081-2.012-36.346-.889-47.051-.693l-68.968.825c-8.227.087-14.403-1.962-21.903-2.03-10.526-.094-24.707 2.587-34.956.642-2.866-.107-6.26-.005-9.102.29-18.927 1.965-37.474-1.564-56.301-.622-5.215.261-10.468.775-15.696.752l-168.704-.401c-2.691-21.362-.486-41.75 12.704-59.488 57.16-5.256 124.895.235 182.484-3.164m354.274-477.3 14.892.025c-3.397 18.063-7.443 35.871-10.903 53.89-1.826 9.51-2.202 20.086-3.849 29.67-7.297 42.617-13.542 85.429-23.03 127.644-3.252 14.465-4.062 30.106-6.327 44.721-.781 5.04-7.364 10.42-9.545 14.348.596 2.771 3.197 4.397 5.508 6.386-5.793 32.95-13.129 65.229-19.542 98.014-1.654 8.458-2.799 21.145-4.195 30.321-8.231 5.541-1.052 12.867-3.015 18.088-11.644 30.959-7.082 61.96-20.915 92.8.514 2.711.82 2.895 2.524 5.177-2.927 10.632-5.647 22.215-8.251 33.009-.422 2.203 1.543 6.558 1.034 8.568-5.196 20.52-7.174 42.876-12.683 63.166-2.78 1.45-7.337 1.03-10.709 1.03-6.323.19-15.681-.5-21.811-1.76-1.167-4.15 8.861-52.004 10.561-58.608.001-.001-1.651-5.116-1.651-5.116 1.084-4.777 5.508-3.188 6.977-8.418-.908-1.508-2.389-3.648-2.577-5.432-.423-4.01 1.987-10.216 2.682-14.314 1.268-7.466 1.911-15.132 3.655-22.504 4.093-17.305 15.336-50.924 13.862-67.242-.26-2.877 2.971-9.09 3.787-12.359 2.117-8.487 3.093-17.257 5.171-25.767 3.34-13.674 7.705-27.079 10.641-40.857 3.995-18.75 8.43-37.491 12.179-56.282 3.261-16.347 5.708-32.899 9.006-49.267 2.211-10.972 5.448-21.764 7.52-32.74 1.745-9.246.073-19.34 2.094-28.421.779-3.5 2.624-2.847 4.178-5.261 1.338-2.079 4.445-22.069 5.283-26.033 9.437-44.612 18.443-89.202 28.605-133.657 1.8-7.872 3.862-24.383 6.747-30.468.335-.708 1.54-1.727 2.097-2.351M1258.66 773c15.33 3.268 38.72 1.516 54.87 1.222l69.6-.9c69.11-1 153.94-.307 223.64 2.039 5.94.2 9.81 32.877 10.71 39.353-5.96-.726-14.07-.64-20.23-.756-86.92 4.143-178.49-2.919-265.82.716-14.66.611-54.25-4.355-64.71 1.965-3.5-8.782-6.4-32.77-8.06-43.639"/><path fill="#fefefe" d="M187.135 590.291c2.18.828 7.784 9.456 9.642 11.985 13.033 17.746 29.813 31.728 46.997 45.341-24.219 25.118 3.844 58.286 20.79 78.689l-1.915 12.106c-13.931-15.647-26.061-26.795-41.5-40.677a78 78 0 0 0 1.549-9.98c.631-7.556 6.088-44.495-3.774-45.19-8.744 6.772-2.32 36.9-6.606 45.298-5.485-.949-21.702-26.847-32.734-25.503l-1.036 2.27c1.085 9.535 9.222 11.34 16.005 19.853l.535.683c-8.885-.945-28.761-5.645-35.771-2.839-1.853 2.421-1.482 1.204-1.061 4.743 4.102 4.222 30.031 7.009 38.506 8.725.867.122 4.64.721 5.216.895 11.363 3.435 46.59 38.529 51.929 47.035-7.401.249-13.129-.527-18.767 4.367.686 8.479 22.088 5.414 27.456 4.858 10.871 10.824 14.863 16.142 23.705 28.9-46.784-2.338-75.586-11.058-104.01-48.822-1.96-2.605-46.093-1.086-55.548-25.485-11.276-29.099 8.06-22.769 14.238-43.576 1.713-5.77-16.319-31.152-8.043-42.204 11.543-36.734 37.29-22.627 53.304-30.996z"/><path d="M146.837 604.484c9.084 3.373 21.314 15.522 26.249 24.052 1.401 2.42.119 4.212-.858 6.644-8.87.817-21.86-16.331-26.66-23.406-1.212-1.786.551-5.333 1.269-7.29m39.043 12.952c5.554 1.713 11.834 15.081 12.607 20.694.29 2.106-1.827 3.677-3.201 5.188-5.752-3.869-11.234-12.886-12.661-19.833-.481-2.343 1.852-4.396 3.255-6.049"/><path fill="#fefefe" d="M1871.73 594.313c29.98-5.102 42.2 12.673 47.97 39.06-3.44 9.131-11.84 22.599-11.93 32.314.67 5.948 9.97 10.098 14.47 13.954 12.43 10.644 4.61 27.273-4.88 37.271-11.37 11.978-29.64 13.818-45.43 12.602-7.15-.55-11.51 12.209-16.06 16.351-23.15 25.149-62.54 35.816-95.58 36.857 5.67-7.749 15.53-18.349 22.08-26.751 7.67.113 29.38-1.004 32.09-9.68l-1.17-1.145c-8.19-2.73-12.57-.996-21.04.645 13.47-15.713 37.28-37.227 52.43-50.711l13.57-.232c7.5.297 29.34-1.926 35.23-6.683 1.23-2.9 1.2-1.672.12-4.59-.24-.19-2.35-1.889-2.35-1.889-12.31.412-24.67 2.836-37.13 3.554q6.06-5.026 12-10.17c4.3-3.769 7.74-6.572 8.12-12.187-7.22-7.349-30.12 18.432-35.92 24.252-.8-7.94-.75-13.678-.49-21.554.23-7.002 2.8-20.586-4.2-24.04-1.51.626-3.3 1.071-3.58 2.834-2.48 15.429-5.23 36.449.5 50.546-14.63 12.118-34.1 30.962-45.86 46.076-1.79-4.417-3.29-7.71-5.44-11.964 18.41-21.489 49.36-58.008 35.28-87.345 3.46-4.773 11.35-8.64 15.82-13.269 9.63-9.961 17.8-20.614 26.25-31.522 4.63-.97 10.38-1.778 15.13-2.584"/><path d="M1899.55 603.818c1.65.685 2.74 1.514 4.2 2.505 4.49 11.88-18.58 26.235-27.32 30.44-3.57-2.025-3.03-.992-4.1-4.037 1.62-5.143 14.19-13.734 17.95-18.298 2.92-3.544 5.94-7.539 9.27-10.61m-42.72 18.506c1.01.553 2.38 1.537 3.38 2.198 2.33 5.208-1.13 19.463-4.5 24.011-1.47-.707-2.39-1.305-3.76-2.142-3.35-7.836-.83-18.002 4.88-24.067"/><path fill="#fefefe" d="M1173.6 412.946c3.92-.101 9.11-.774 12.2 1.187 2.63 3.518 2.49 13.233 3.68 18.255 11.95 50.787 18.66 102.286 27.95 153.642l17.69 93.248c1.52 8.057 1.75 7.585-2.89 14.372l.58 2.111c1.72.901 3.47 1.752 5.24 2.551 4.02 6.172.94 18.329 2.19 24.392 1.25 5.127 3.78 11.56 4.23 16.829 1.17 13.58 4.15 27.611 5.6 41.029 2.09 19.343 7.93 38.438 10.66 57.281 4.64 31.984 10.45 63.184 17.45 94.75 4.98 28.675 7.88 58.324 13.16 87.057 1.21 6.59 3.48 11.24 4.33 18.37-1.47 1.33-4.78 1.09-7.25 1.3-8.39.09-17.19 1.23-25.12-1.57-1.15-1.54-1.24-2.4-1.58-5.36-2.34-20.35-5.25-40.899-7.42-61.234l2.25-3.002c-.44-5.705-8.07-14.418-7.66-22.703.29-6.018 4.75-10.782 3.68-15.093l-3.76-1.351c-1.74-1.919-3.09-4.983-3.26-7.581-1.96-30.746-7.2-61.03-11.27-91.53-.65-4.874 2.17-10.36 1.36-15.65-1.21-1.139-5.01-4.627-5.09-6.209-2.17-41.484-9.25-82.139-16.17-123.062.21-.243 2.59-3.057 2.57-3.342-.64-7.905-9.66-22.333-8.64-29.808 1.44-10.604 3.73-7.678-3.63-15.983-.69-1.965.49-4.939 1.03-6.922 1.86-6.987-11.09-83.096-13.05-95.434-1.1-6.911-4.35-17.091-3.38-23.858l3.91-1.246.6-1.358c-1.67-3.17-5.82-5.806-8.82-8.072 1.35-25.683-8.03-58.661-11.37-86.006M614.402 772.48l126.957.635c18.416.024 32.408.662 51.161-.074-2.061 8.641-6.255 33.258-9.491 39.514-5.404.982-22.838.551-29.808.607l-81.262.43c-13.698-.014-24.492-1.953-37.846.21-7.101.443-15.16-.042-22.372-.225-52.937-1.341-110.445 1.435-162.851-1.446.095-9.812 1.011-27.478 6.47-35.748 2.684-4.067 22.426-2.703 27.707-2.837 43.966-1.112 87.362.996 131.335-1.066m626.778-122.385c18.1 4.819 96.37 1.293 120 .919 12.07-.191 24.14 1.134 36.22 1.176 15.2.054 113.69-2.942 119.35 2.382 5.35 5.034 8.56 30.8 8.41 38.631-.05 2.721-.15 3.054-2.03 4.889-10.36-1.012-20.61-.878-31-.758-68.79.793-137.52.32-206.3.667-10.38.053-27.92-.56-37.58.701-2.06-15.664-6.24-30.632-8.29-46.231zm-675.946 1.487c8.277-.833 18.159.371 26.574.237 13.593-.216 27.249.015 40.815-.07l184.985-.858c-1.478 6.21-8.378 46.022-9.946 47.533-9.855-1.636-40.472-.554-51.448-.609l-131.173.14c-18.667.099-52.504-2.145-68.963-.193.423-11.134.037-39.31 9.156-46.18m657.136-93.486c62.11 1.075 124.9.579 187.06.445 8.06-.017 17.5-1.304 25.34-.331 3.6 4.283 9.76 27.658 7.89 32.645-47.1 1.263-95.19.906-142.33.07-21.13-.374-51.99 1.646-72.35-1.166a499 499 0 0 1-5.61-31.663m-480.592.283c2.497.451 18.003.581 21.28.612 24.567.234 49.072-.264 73.691-.233-2.357 10.121-4.24 24.53-7.526 33.573-19.926-2.34-66.762-1.425-87.689-1.239-32.244.87-64.506.781-96.745-.267.594-13.384.334-30.085 17.358-30.635 26.438-.854 53.205-.338 79.631-1.811m289.002-299.303 1.06.177c2.92 2.526 1.68 5.762 3.92 9.7.57 2.453 7.32 4.287 7.64 5.949 1.48 7.52-4.04 17.348.84 24.417 2.85 1.568 1.56 1.225 5.16.943 5.87-5.176 2.31-22.602 5.61-27.261 4.58-.986 9.89 2.226 14.89 1.743 3.03.352 7.99-11.386 9.39-11.17 17.5 2.699 29.72 3.547 47.38 2.209.46 7.821 2.66 18.13 4.12 26.049-11.23-2.023-18.87-3.612-29.5-7.65-2.68-4.2-3.38-6.281-7.9-7.401l-1.65 1.272c-2.67 6.53.99 29.535 1.78 37.706.58 7.762.6 12.363 1.63 20.303-16.92-.712-34.31.34-51.29-.294-8.03-.3-16.39-.393-24.41-.115.73-14.116 9.11-51.326 6.4-60.273-3.68-2.665-7.38 1.668-10.74 4.246-11.92 9.164-22.251 11.037-36.86 9.168.551-2.806 4.513-22.729 7.331-22.847 16.209-.678 29.889-1.348 45.199-6.871m-13.41 86.03c22.2.935 57.69-.956 77.47 1.292 1.25 8.259 6.16 50.265 4.52 56.196l-2.12.603c-24.45-.402-65.58-.806-89.11.563 3.24-12.097 7.86-45.8 9.24-58.654m-707.086 423.11c5.518 2.714 11.901 7.186 18.47 10.359 21.962 10.608 41.832 10.74 65.481 10.444 3.755 8.595 6.073 16.006 8.679 24.976-4.587.874-8.597 1.405-12.149 4.712-12.848 11.961-12.107 45.937-13.109 63.153-6.573.625-10.22.807-16.909.695-2.543.504-3.157.336-5.782.091-3.016-1.56-4.273-5.39-5.773-8.578 5.694-9.292 19.325-38.689 16.749-48.809-7.326-9.579-26.763 7.212-33.701 12.584-6.183-15.687-19.624-35.783-29.616-49.704 4.812-7.697 5.435-11.241 7.66-19.923m896.276-308.404c30.06 1.57 60.67.409 90.77.999 15.4.303 36.25-2.068 50.61 1.775 4.37 3.813 4.87 23.002 5.33 29.521l-.17.947c-3.05 1.722-127.18.066-142.76-.871-1.09-11.041-3.27-21.146-3.78-32.371m534.35 305.234c3.05 6.346-.17 5.499 7.66 17.564-14.46 19.064-22.71 35.865-31.01 58.28-7.67-6.664-20.31-18.739-30.56-18.695-14.33 6.875 12.79 51.544 18.41 60.145-3.03 1.052-6.33.455-9.62.201l-14.71.411c-6.5-25.028 5.2-64.049-32.28-65.505 3.04-12.812 3.42-27.85 18.31-27.873 28.08-.044 52.21-5.487 73.8-24.528M112.476 982.571c48.467-2.126 115.285 10.313 149.242 47.989a558.5 558.5 0 0 0-94.534-30.69c-7.706-1.837-23.003-7.483-29.097-1.828-.232 7.988 7.76 8.038 13.691 8.838 33.489 6.88 63.34 16.73 95.573 27.68-3.274.55-6.565 1-9.869 1.34-55.68 5.23-112.569-15.42-155.371-50.683 10.717-.907 19.224-2.212 30.365-2.646m1803.714-.069c14.95-.376 36.74.457 51.17 3.271-48.37 35.547-102.93 55.437-163.56 47.757 18.31-7.83 55.35-18.1 74.94-23.25 7.4-2.13 29.59-4.55 32.4-10.578-.34-3.5.25-2.301-2.06-4.617-12.41-4.155-75.98 18.415-92.19 22.845-5.82 1.59-17.07 7.15-22.48 7.71l-.17-1.76c2.93-7.34 14.77-12.3 21.45-16.06 32.51-18.288 63.98-23.128 100.5-25.318M748.032 460.465c11.124-.604 25.001-.056 36.53-.14q36.61-.542 73.222-.097c-4.647 10.802-2.645 21.273-7.956 31.298-.994 1.878-4.058 1.471-6.591 1.637-32.696-.515-65.503.373-98.193-.727-4.925-.166-8.067-.36-13.067.247.148-8.567-3.439-29.078 7.796-31.851 1.172-.29 6.734-.344 8.259-.367m234.843-306.041c7.268-.96 28.915.357 37.705.155 27.48-.63 55.31.779 82.87.211 8.14-.168 16.87 1.802 25.08 1.004l.96-.102c2.5 1.971 1.77.945 2.85 3.849-5.69 6.997-44.15 1.914-53.8 2.003-1.33.012-2 1.776-2.56 2.875.33 1.474.6 2.689 1.09 4.127l.35.982-9.22 9.39c-2.33.7-2.64.551-5.15.292l-.72-.08-1.56 1.698 1.06 3.812c-3.49 7.763-10.67 3.346-14.96 10.14.06 4.625 2.76 7.939 5.59 11.308 6.68 7.933 19.27-1.987 24.74 4.368l-.62 2.139c-9.78 11.998-33.1-1.395-39.28 1.512l-.28 1.871c3.14 4.984 7.94 6 13.46 7.993 7.95.528 24.37 1.041 30.34-4.474 7.78-7.182-3.22-18.476-2.49-26.385 2.14.177 5.59 2.205 5.73 2.176 2.48-.532 5.33-.79 8.08-.839 2.09 2.211 2.15 7.456 2.52 10.773-3.66 8.355-5.78 13.189-12.94 19.46a37.5 37.5 0 0 1-28.24 9.258c-12.19-1.087-20.81-6.143-28.41-15.352-.16-5.452-.22-15.876-5.22-19.107-2.93-.324-4.13-.337-6.85-1.59-3.63-4.481-3.96-7.094.63-11.316 8.6-2.399 8.27 15.395 25.7-2.095.35-4.889-.92-9.364-.67-13.902.08-1.451 7.85.364 11.99-2.316l.34-1.622c-3.5-6.855-9.01-7.601-15.48-9.884-8.54-3.012-15.07.55-21.79 5.618-8.32-1.297-22.838-.341-29.961-3.837-1.156-.567-.814-2.375-.884-4.113m-45.712-.585c12.489 9.505-.584 25.37-7.771 32.904 3.348 30.411 15.048 63.432 46.448 75.101-2.937 6.513-5.166 14.493-6.979 21.384l-19.319-11.935c-18.273-13.663-29.251-35.715-35.435-57.008-1.249-4.301-4.167-13.737-6.348-17.249-2.572-4.142-10.767-5.486-14.519-9.493 1.4-2.347 5.601-4.26 8.199-5.747 16.265 10.793 10.705.124 17.31-6.819 4.507-2.071 3.873-.624 10.069-.073 3.401-.946 4.863-3.81 6.876-6.723.289-5.35.459-9.011 1.469-14.342m238.387 13.788c9.17 3.708 11.12 19.24 23.43 17.94-.5.052 2.48 4.724 4.9 6.174 7.99.956 15.63-4.515 23.52-6.595l.59 1.998c-2.92 9.084-17.81 8.722-24.99 13.349-2.33 2.67-1.38 8.88-2.17 11.863-6.02 22.526-16.12 38.543-32.39 54.801a99.3 99.3 0 0 1-21.02 14.458c-2.93 1.475-4.55 2.287-7.41 1.367-2.15-4.19-3.79-14.618-4.79-19.75 26.69-11.418 55.1-45.516 47.97-76.128-1.69-7.247-8.6-9.814-7.64-19.477m34.01-35.362c26.01 2.12 41.29 30.515 6.21 26.528-12.37-1.294-21.27-5.762-29.9-14.678 8.2-8.654 11.96-10.092 23.69-11.85m-195.55 86.77c2.33 1.243 6.14 11.537 10.03 13.862 5.58 3.329 13.03 4.679 18.14 8.555l-.01 1.417c-17.09 8.573-19.03 9.895-37.93 12.999l-11.38.342c-2.405-3.145-5.494-5.795-3.78-9.598 6.597-2.154 17.12 5.374 23.44-.476 5.13-9.623-.79-17.341-7.31-24.038l.79-1.167c3.14-.245 5.06-.969 8.01-1.896M328.748 854.829c3.813 3.629 5.761 10.554 7.607 15.626-4.162 11.778-6.188 22.712-11.877 34.379-.883-9.507 2.48-17.361-6.811-22.46-6.851 6.214-1.542 11.93-3.937 15.769-1.883-6.153-2.499-9.114-6.882-14.114 6.6-9.613 13.833-21.029 21.9-29.2m1391.882 2.71c11.26 11.548 17.09 19.058 26.65 31.877l-2.58 12.534-7.01-15.829c-2.34-.926-3.22-.844-5.77-1.023-7.02 3.413-.69 14.209 1.21 20.716-6.24-9.027-12.37-17.34-18.32-26.619 1.76-7.869 3.05-14.082 5.82-21.656m18.68-41.862c3.42 12.432 6.5 42.917 7.29 55.347l-7.15-8.424c-3.48-4.474-10.39-11.727-14.78-15.15 4.56-11.565 8.91-20.794 14.64-31.773M547.585 668.037c.292 1.082-1.217 25.69-1.365 29.064l-20.061 1.108c-5.895-3.431.319-15.244 2.305-20.953zM273.977 737c8.851 7.567 19.589 18.13 28.252 26.232-1.606 3.906-2.978 10.218-4.043 14.473l-.479 1.011c-2.736-.419-21.528-25.944-25.133-30.183.263-4.693.421-6.968 1.403-11.533m1497.943.738c1.92 1.355 4.15 7.84 5.21 10.422-4.42 4.637-18.67 23.374-22.9 24.816-3.47-3.365-6.12-7.229-8.98-11.117 9.02-7.106 18.23-16.171 26.67-24.121m-746.64-601.007c10.24.011 47.49-.01 55.52 2.748 2.2 2.141 2 1.299 2.34 3.779-1.13 1.383-1.03 1.014-2.97 1.737-10.47-.439-51.39.335-58.49-1.204.14-2.794 1.92-4.668 3.6-7.06M312.033 821.724c4.301 3.644 10.345 18.42 12.706 23.857-4.781 4.947-9.475 11.307-13.756 16.777l-5.536 6.795c1.945-16.293 3.832-31.273 6.586-47.429m733.437-705.425c6.57-.861 27.08 2.453 26.63 10.004-2.77 2.054-7.18 1.448-10.87 1.389-9.7.096-21.31-.586-31.14-.909 5.43-5.148 8.45-7.646 15.38-10.484"/><path fill="#fefefe" d="M1083.02 171.832c3.7.116 4.5.937 6.33 3.766.22 2.432.08 4.143-1.23 6.165-6 9.226-8.73 2.653-14.94 4.414-6.09 7.074.21 10.409-2.54 16.289l-2.59-.048c-5.74-.049-8.82.592-12.71-4.136 1.65-3.097 6.38-2.699 10.06-4.832 3.03-1.753 3.45-8.444 4.39-9.233 7.64-6.411 7.62-3.094 13.23-12.385m-29.5 69.62q.645.236 1.29.5c4.45 1.833 2.54 2.445 2.56 5.694.03 4.669 7.78 9.082 5.38 14.349-2.98 2.062-6.28 1.503-9.98 1.392-4.6.462-4.91 1.199-8.65-.386-1.91-3.052-2.6-3.868-3.01-7.576 1.91-2.615 3.96-2.304 7.87-3.276 3.16-3.21 2.5-5.506 4.54-10.697m639.52 594.214c6.48 3.249 14.95 11.019 20.91 15.898l-4.36 13.173c-.71 2.121-.05 1.462-1.73 2.33-4.53-4.212-12.09-24.53-14.82-31.401m-1337.714-1.697c.896 3.501-8.047 25.628-11.385 27.397l-.763-1.58-6.594-12.156c5.748-5.349 12.066-9.595 18.742-13.661m566.51-691.164 2.699 1.682c3.575 5.957 1.875 11.275.846 18.077-4.886-3.985-6.518-14.072-3.545-19.759m-17.526 8.501c8.508 4.239 5.304 13.394 4.337 21.8l-1.968-1.245c-1.766-6.045-2.801-14.27-2.369-20.555m276.49 2.178c1.01.55 12.87 8.908 14.5 10.052l-.28 2.841-2.99.474c-3.87-2.33-7.98-4.936-11.01-8.403-1.13-1.288-.47-2.669-.22-4.964m-288.704 7.337c3.627 2.511 3.475 9.555 2.914 13.453-4.23-2.894-4.595-9.001-2.914-13.453"/><path d="M1551.84 555.312c3.38 2.12 2.66 1.085 4.23 4.063.27 8.812-8.14 26.232-11.49 35.91 6.07-3.345 32.1-13.077 34.87-3.546-3.72 5.648-17.41 6.347-23.86 8.619-4.91 1.731-9.9 3.619-14.79 5.355-2.92 6.936-7.47 28.015-14.09 30.564-6.18-3.417-3.08-9.812-1.43-15.161-4.06-4.498-13.58-14.798-18.14-18.12-5.5-4.004-13.53-6.737-19.34-12-1-3.212-1.11-1.9.41-4.898 11.11-6.383 33.68 16.451 40.73 25.221 3-9.763 16.36-50.578 22.9-56.007m-981.896-43.94c3.892.288 4.599.452 6.698 3.288.155 3.794-8.885 20.908-11.429 28.973-2.169.186-2.62-.089-4.633-.75-6.593-7.974 3.775-25.062 9.364-31.511m721.666-379.085c1.71-.19 2.07.161 3.79.71 2.77 2.819 2.52 1.698 2.69 4.812-3.33 4.688-18.31 6.918-24.55 8.268l-5.03-.117c-3.08-1.883-2.04-.841-3.88-4.084l.75-2.151c4.81-4.303 19.29-6.162 26.23-7.438m-17.89-32.554c3.69.205 4.8.609 6.71 3.514.13 5.69-10.67 16.116-15.13 21.44-3.95.699-5.29.341-7.36-2.758.06-6.312 11.19-17.102 15.78-22.196m-9.22 90.584q1.215.356 2.4.809c6.13 2.306 16.39 7.54 19.22 13.808-.1 4.156-.01 2.873-3.13 6.671-5.55-1.325-19.34-10.008-21.43-15.651.53-3.456.54-2.607 2.94-5.637m4.28-31.677c7.35 2.776 20.91 3.125 24.57 9.688-.85 4.042-.14 2.503-3.24 5.828-7.57-2.346-20.5-1.999-24.65-8.65.56-4.251.5-3.116 3.32-6.866m271.64 356.794 4.07.764c6.29 4.451 6.16 19.172 3.28 25.459l-3.71-.119c-5.85-4.725-6.95-20.426-3.64-26.104"/></svg>