<svg xmlns="http://www.w3.org/2000/svg" preserveAspectRatio="xMidYMid meet" viewBox="0 0 2048 2048"><path d="M1034.35 61.425c28.87-1.94 60.23-.057 88.63 1.938 139.91 9.83 272 66.436 381.01 153.741 14.38 11.515 34.22 20.725 48.31 33.476 7.52 6.809 16.86 13.053 24.37 20.084 173.13 148.669 264.32 385.458 281.3 609.061a1139.36 1139.36 0 0 1-171.56 680.795c-151.81 244.29-376.64 406.52-668.16 428.26l-1.5.07c-155.11 6.17-320.877-20.69-454.497-102.08-186.611-113.66-307.935-311.49-351.09-522.92-11.658-57.11-21.091-115.84-23.591-174.14-12.382-322.544 103.356-636.886 321.943-874.389C645.446 167.716 832.371 69.413 1034.35 61.424"/><path fill="#fefefe" d="M1146.63 228.48c2.8-.281 5.62-.456 8.44-.525 130.43-3.677 277.3 43.733 373.3 134.231 20.61 19.425 36.61 45.16 51.73 69.101 80.85 128.082 124.21 285.951 127.89 436.777 9.16 300.596-101.67 592.486-308.02 811.246-23.34 24.29-47.37 44.14-73.11 65.19-83.97 68.68-172.84 109.12-280.83 122.52-15.64 1.94-30.36 2.79-46.161 3.05-9.848.16-22.179-1.27-31.051-.98l-1.893.08c-21.975-2.96-40.781-2.37-64.557-6.54a579 579 0 0 1-289.712-144.19c-143.421-131.86-212.78-338.08-219.073-528.96-7.046-213.726 59.646-418.468 178.556-594.763a1008.5 1008.5 0 0 1 91.799-117.729c65.809-71.164 125.574-124.086 211.015-171.061 87.535-48.127 172.027-73.568 271.677-77.447"/><path d="m1101.71 407.096 3.36 1.533c4.86-.9 9.7-.011 14.51-.42 40.02-3.4 77.64-.748 115.7 13.023 11.13 4.028 24.01 6.159 35.53 11.042 43.31 18.365 83.41 49.205 109.73 88.445 11.3 17.506 23.58 45.04 30.42 64.556 5.15 14.712 13.24 34.849 16.89 49.909 9.71 42.487 15.98 95.558 10.44 138.921-3.26 25.546-12.64 75.177-21.75 98.109-27.24 68.561-86.92 133.686-148 174.186 14.08 11.92 29.87 24.98 43.47 37.33 23.43 21.3 46.88 44.15 68.54 67.29 13.43 14.35 26.57 31.84 39.16 47.25 5.5 7.49 21.88 24.87 21.28 34.3-.87 13.59-39.3 14.71-47.71 14.93 18.86 13.48 85.47 83.54 93.08 104.52 9.48 26.11 44.28 104.62 45.14 128.63-121.68 186.39-299.62 374.29-542.575 374.94-6.357.02-12.834-.29-19.201-.45.053-9.09.931-19.42 1.324-28.7 1.639-9.91 1.888-20.11 2.375-30.16-21.657.95-48.913-.86-68.511-10.69-.112 20.16 2.125 40.59 2.497 60.8l-1.198.75c-8.477.6-24.569-3.63-33.291-5.72a575.4 575.4 0 0 1-181.484-79.74c-41.897-27.7-86.033-66.97-117.133-106.64-3.318-4.23-4.143-8.8-5.19-13.95 3.856-7.41 7.053-28.7 8.668-38.07 12.357-71.75 32.451-141.1 60.776-208.2 6.512-15.42 12.272-34.06 20.049-49.03 13.401-25.81 34.562-49.36 54.192-70.57 8.534-9.09 17.968-16.35 26.058-25.92l1.054-1.27c-4.181.34-8.491.79-12.685.61-7.466-.32-19.403-1.89-24.382-7.84-1.77-2.11-2.503-4.36-2.244-7.11 2.167-23.02 97.687-103.83 118.335-119.33 17.475-13.12 38.265-23.6 54.672-37.79.297-.26.588-.52.881-.78-23.292-4.28-69.652-12.08-86.745-28.06-31.337-29.29-32.56-88.519-31.681-128.525.274-12.447 1.998-35.537-.32-46.872-3.684-18.013-33.767-30.828-33.053-52.737 1.004-30.766 40.017-66.39 60.583-87.139 22.102-22.299 12.669-59.044 12.246-89.595 5.676-8.376 9.094-19.358 14.536-29.158a396 396 0 0 1 51.438-72.719c-9.618-31.542.166-54.801 23.862-76.833 51.191-47.597 127.507-54.971 194.297-54.309 6.07.06 17.2.026 22.06-2.747"/><path fill="#fefefe" d="M878.071 558.462c7.786 3.997 21.483 7.27 27.701 13.247 24.82 23.854 38.736 61.581 49.769 93.653 4.432 12.883 7.206 30.688 12.29 42.8 8.19 19.511 18.201 38.969 29.615 57.666 8.394 13.743 33.814 54.51 50.194 59.568 6.86 2.118 20.47-16.59 28.17-21.882 10.66-7.649 25.44-14.891 38.95-12.088 26.74 5.546 35.39 27.711 29.02 52.161-8.55 32.833-30.28 52.463-61.95 62.458-6.67 2.104 4.32 24.339 4.87 28.953 14.86 44.547 35.32 89.452 63.77 126.912 11.68 15.37 23.28 28.36 34.83 42.58-7.88 10.42-17.43 27.77-24.18 39.39a1936 1936 0 0 0-48.45 88.84c-11.68 2.66-14.22.82-24.34 1.37-46.69 2.51-80.16 1.47-125.962-7.42-10.802-2.45-17.848-6.26-27.823-10.91-.248-4.31 10.528-35.59 11.076-42.73 1.137-14.8 14.956-93.21 1.336-100.59-27.866-15.1-95.072-21.78-125.707-31.89-41.18-13.61-40.919-79.441-41.636-113.981 15.078 2.84 31.774 4.834 46.709.23 6.44-1.985 12.679-6.802 9.183-14.307-6.091-4.507-28.131 1.446-38.273.346-6.549-.71-9.504-1.107-16.289-2.526.205-13.975 1.506-41.657-4.471-53.888-6.132-12.549-21.567-23.95-29.558-37.021l-.826-1.368c10.087-26.047 33.351-47.557 53.165-66.838 22.76-22.149 22.58-56.587 21.675-87.368 18.01.587 39.66 4.897 55.284 14.236 10.479 6.265 18.231 22.89 32.87 17.156 1.159-1.308 3.128-3.346 2.357-5.426-12.589-33.983-56.724-46.732-89.176-45.704 10.46-25.786 36.825-65.69 55.807-85.629"/><path d="M1098.17 801.415c5.4-.648 8.9-1.702 13.5.93 2.74 3.749 2.22 1.798 2.52 5.771-4.2 8.697-23.73 7.967-26.75 18.363 6.15 2.104 24.08-5.523 26.17 8.917-.74 3.335-.76 3.09-3.12 5.623-7.26 2.386-23.44-2.725-31.28-4.799-6.3 9.286-9.3 15.713-13.37 26.069-2.4 5.984-3.43 10.213-3.48 16.645-.04 5.938-.22 18.086-8.71 17.59-19.68-16.946 15.56-84.573 38.12-91.978 2.4-.787 4.16-1.869 6.4-3.131M853.235 691.996c2.64-.128 3.482.092 6.125.494 13.556 8.641 10.641 36.784-4.254 45.677a52 52 0 0 1-1.602-.283c-20.075-3.88-17.016-35.705-.269-45.888"/><path fill="#fefefe" d="M911.488 1377.77c41.896 25.5 88.198 26.05 136.182 22.21-4.3 12.53-7.17 24.87-10.83 37.58a1334 1334 0 0 0-31.19 132.38c-2.27 7.17-4.25 16.54-6.034 24-26.586 5.29-73.969-3.58-98.575-16.04-2.592-61.63 8.849-137.59 10.447-200.13m20.124-139.99c22.771 20.17 91.648 21.37 122.318 21.26 16.21-.05 33.76-1.93 50.34-2.12-4.71 12.56-13.71 30.32-19.46 43.02a607 607 0 0 0-22.46 58.31c-2.93 8.11-5.97 16.2-9.1 24.25-44.83 3.99-101.874 5.76-140.693-21.68 1.02-5.25 1.694-10.33 2.195-15.65 3.457-36.7 8.529-71.44 16.86-107.39m-30.533 357.68c5.025 1.95 9.087 4.82 15.1 6.71 19.359 6.07 60.343 11.19 80.728 7.99-4.072 15.81-7.524 46.92-9.751 63.63-4.151 31.13-8.561 63.21-11.372 94.45-.56 3.54-.529 8.26-.625 11.92-34.361-2.63-37.324-.51-71.483-11.55-1.155-61.17-5.816-110.1-2.597-173.15"/><path d="M1595.95 699.725c3.76 2.489 2.82.886 3.95 4.304-1.57 8.558-31.06 57.466-38.21 71.063-15 28.49-29.34 57.317-43.03 86.461-20.28 44.278-36.86 92.543-53.93 138.23-3.46 9.257-13.5 44.597-18.68 49.837-4.32-3.26-4.43-7.61-3.16-12.54 5.44-21.06 12.3-41.863 19.39-62.421a1405.5 1405.5 0 0 1 80.81-190.69c9.22-17.847 38-74.123 52.86-84.244"/><path fill="#fefefe" d="M560.029 383.488c3.544.604 7.603 4.426 10.425 6.739 21.163 17.348 34.395 38.873 47.521 62.359a122 122 0 0 0-5.508 5.57c-18.839 20.221-46.521 59.061-62.36 82.194a1104.8 1104.8 0 0 0-155.516 333.153c-13.483 48.683-23.538 102.079-29.918 152.227-1.031 8.1-5.396 25.52.98 31 4.113.69 3.064.33 7.605-1.58-.3 21.88-3.081 45.06-4.137 67.29-14.634 307.96 138.278 654.94 459.929 746.44a765 765 0 0 0 84.701 18.37c9.571 1.44 33.916 3.08 41.588 5.32-5.477 3.52-18.827 1.06-26.1 3.88-4.263.9-13.022.41-17.761.46-447.203 4.34-674.156-441.42-636.989-840.78 17.18-225.335 103.217-442.393 241.34-620.883 12.79-16.528 28.196-38.313 44.2-51.759M1778.33 1080.61c25.81 11.48 28.55 29.9 45.22 47.91-8.08 47.85-19 95.17-32.69 141.73-88.55 297.1-308.28 587.51-620.21 667.6-12.9 3.31-27.54 5.44-39.95 9.6l-2.01-1.55c47.27-17.54 95.71-37.23 139.26-62.66 115.35-67.5 216.02-161.37 294.25-269.57 43.3-59.88 83.81-128.4 115.37-194.95 33.78-71.25 59.53-144.63 78.27-221.02 9.74-39.73 19.18-75.75 22.49-117.09"/><path fill="#fefefe" d="M507.008 353.62c6.499 3.138 21.087 16.782 26.213 21.842-31.084 34.096-57.035 72.591-83.323 110.376-44.868 64.49-79.784 133.456-110.791 205.509a1142.4 1142.4 0 0 0-90.552 496.233c1.019 23.28 2.539 50.76 5.338 73.73a969 969 0 0 0 23.378 120.29c8.237 31.93 16.5 61.77 28.735 92.44a416 416 0 0 0-18.363 6.85c-4.777 2.59-9.687 4.68-14.647 6.9-7.679-13.64-18.342-51.98-22.937-67.92-34.286-118.98-43.385-236.09-35.859-359.48a1208.73 1208.73 0 0 1 225.209-622.193c14.913-20.52 29.177-39.721 45.603-59.109 7.485-8.836 13.205-17.682 21.996-25.468M1063.2 144.607c61.51-2.48 167.11 13.62 223.23 38.954-13.78-.994-31.25-3.945-45.77-5.429-195-19.929-362.689 44.847-512.279 167.906a718 718 0 0 0-59.271 51.856c-11.184 10.867-23.589 26.369-35.573 34.513-12.635-26.609-35.201-49.796-57.066-69.02a788 788 0 0 1 5.757-5.945c130.566-133.484 293.33-210.746 480.972-212.835m435.47 1453.933c8.1 2.12 23.84 14.87 30.23 20.78-10.21 15.86-28.69 35.79-41.52 50.24-58.02 65.35-120.62 122.09-193.76 170.09-30.17 19.81-63.07 38.78-95.95 53.66-115.9 52.47-272.467 81.21-398.005 55.45-9.582-1.75-21.345-3.47-30.334-6.72 3.031-8.84 5.736-28.71 9.421-33.69 12.549.78 29.299 5.09 42.367 6.95 249.841 35.5 490.451-86.55 647.001-276.99 10.53-12.81 19.79-27.03 30.55-39.77"/><path fill="#fefefe" d="M1073.9 83.037c63.74-.009 140.5 13.315 200.6 34.173a690.8 690.8 0 0 1 150.88 72.536c107.24 69.721 198.29 181.268 253.33 296.229l-13.22 6.828c-5.91 3.31-12.46 8.219-18.09 12.207-8.09-13.535-14.64-30.284-22.39-43.881-13.42-23.583-29.77-51.708-45.16-73.902-92.24-131.77-231.5-223.156-389.09-255.343a520 520 0 0 0-74.54-10.09c-4.57-.301-41.6-.709-42.24-3.735-1.77-8.436-1.7-26.536-.08-35.022M313.781 1496.29c3.734 3.88 27.712 59.87 31.737 67.95a653.94 653.94 0 0 0 331.58 313.28c16.123 6.7 36.035 12.44 52.911 17.56 8.802 2.67 17.256 3.95 26.522 7.09l1.326.46c-1.277 6.93-4.777 30.56-9.423 34.93-4.837-.05-12.666-2.75-17.592-4.17-10.829-4.1-23.628-6.91-34.707-10.79-14.495-4.75-29.029-10.72-43.033-16.6-162.154-68.13-288.626-208.33-360.454-366.79-2.837-6.26-12.781-25.05-12.124-31.34 6.542-.5 22.751-9.18 33.257-11.58M1046.6 84.455c3.01-.358 3.13-.638 5.9.362 2.85 4.976.35 27.24.84 36.205-117.162 1.724-235.226 36.796-334.72 98.6-29.936 18.596-59.065 36.949-85.948 59.909-16.665 14.234-33.797 27.963-49.591 43.187-12.398 11.725-23.66 24.754-36.493 36.038l-6.32-7.029c-6.236-5.858-11.652-10.542-18.254-16.001 44.495-45.286 93.408-89.612 145.543-126.025A692.5 692.5 0 0 1 1046.6 84.455"/><path fill="#fefefe" d="M1643.19 375.596c5.43 3.417 32.36 42.641 37.89 50.576 101.44 145.693 151.2 342.774 155.13 516.331.64 31.977-.25 63.967-2.64 95.857-1.41 18.76-3.7 37.32-4.93 56.13l-6.46-7.17c-14.98-19.17-16.65-22.06-39.58-29.33 6.6-63.762 12.44-128.609 8.78-192.684-1.31-22.903-1.21-47.184-3.76-69.905-8.69-77.242-24.11-153.635-49.4-227.213-23.72-69.478-56.64-130.518-95.03-192.592m76.98 692.954 36.04 6.92a1144.6 1144.6 0 0 1-151.9 428.07c-16.8 28.21-40.78 65.87-60.54 92.14l-1.5 1.67c-4.1.24-12.97-7.79-17.18-10.26-5.07-2.98-8.03-4.21-13.47-6.12 8.63-12.18 18.26-23.8 26.18-36.49 14.66-23.5 30.23-47.03 44.01-71.03a1159.9 1159.9 0 0 0 138.36-404.9"/><path fill="#fefefe" d="M1685.08 504.062c7.36 8.652 20.07 45.068 24.61 57.254 56.81 152.445 68.93 322.985 50.94 483.934-.31 2.79-2.5 4.03-4.52 5.29-5.35.78-10.04-1.17-15.37-2.71-7.07-1.91-9.56-2.53-16.84-3.21 3.87-18.67 4.26-41.88 5.58-61.468 8.72-129.515-3.14-261.32-44.96-384.649-8.47-24.985-19.54-49.128-27.77-74.039 8.73-7.602 18.96-12.04 28.33-20.402m-520.79-306.538c8.43-1.108 25.32.276 34.23.509 73.92 1.932 168.29 19.754 227.85 64.744-28.51-9.588-55.62-22.573-86.32-32.097a583.85 583.85 0 0 0-318.62-7.98c-7.73 1.184-20.22 5.187-28.105 7.26-51.538 13.555-97.765 37.3-144.281 62.597-15.019 8.168-29.84 19.561-45.697 26.382 1.544-2.977 26.287-18.637 31.114-21.717a619.9 619.9 0 0 1 237.669-90.227c19.21-3.112 37.97-5.201 57.28-7.211 7.1-.739 30.41-.955 34.88-2.26"/><path fill="#757678" d="M1130.7 1947.45c-5.9 1.78-20.14 5.76-25.92 5.48 6.86-2.88 16.53-5.1 23.91-7.03z"/></svg>