<svg xmlns="http://www.w3.org/2000/svg" preserveAspectRatio="xMidYMid meet" viewBox="0 0 2048 1152"><path d="M942.171 75.475a7503 7503 0 0 1 390.679 4.742 14714 14714 0 0 1 514.09 31.611c17.17 1.23 131.09 8.04 139.01 12.988.68.425 1 .495 1.16 1.282 1.23 6.027-10.07 31.716-12.45 39.139-12.67 39.674-21.33 80.819-30.27 121.469a4304 4304 0 0 0-77.54 476.912 5423 5423 0 0 0-13.83 155.916 791 791 0 0 0-1.95 34.405c-.26 8.449 1.25 21.015-3.43 27.961l-2.4 1.442c-47.04-9.645-173.75-17.967-211.48-20.359a7758 7758 0 0 0-393.79-12.396 13190 13190 0 0 0-488.72 4.343c-49.86.366-101.724 3.122-151.903 4.11a1371 1371 0 0 1-4.869 42.96c-.138 1-3.024 20.32-3.118 20.07 6.034 15.62 70.158 40 65.139 57.35-5.479 5.4-20.127 2.95-27.336 2.03-22.694-2.88-42.435-10.87-62.635-21.16l-8.117 3.74c-6.069-.49-11.12-.16-15.627-4.2-4.394-7.63-3.747-83.98-3.556-98.813-8.138.012-16.433.225-24.584.35-3.965 14.842-10.114 56.703-18.542 65.483-.192 9.64 2.28 27.58-2.541 34.48-1.931 2.76-6.56 2.91-9.9 3.29-14.245 14.08-23.526 23.59-44.871 24.89-30.235 1.83-27.169-13.07-11.218-31.09 7.494-8.46 19.812-26.59 22.599-37.8-5.992-14.08-1.562-40.922-.676-56.731-48.473.476-110.566 5.042-159.319 8.186a3949 3949 0 0 0-60.922 4.197c-8.998.713-20.339-.811-26.935 5.161q-1.074.954-2.121 1.937c-3.477.416-2.051.558-5.563-.974-3.856-5.685-4.108-30.667-4.892-39.989-7.845 2.036-23.383 7.223-30.325 3.933-10.248-12.888-47.226-441.401-52.613-495.936A4871 4871 0 0 0 95.739 355.9a4073 4073 0 0 0-22.134-148.988c-2.099-13.028-4.296-28.273-7.952-40.875-6.89-23.75 8.409-20.674 25.293-21.407-1.968-8.888-9.826-28.74-3.468-35.42 8.705-1.85 48.634-2.857 60.666-3.385l138.673-6.184a20036 20036 0 0 1 655.354-24.166"/><path fill="#fefefe" d="M1004.47 87.525c53.85-.466 107.69-.166 161.53.898 270.73 3.791 536.32 24.63 806.04 45.663-22.01 65.4-36.93 135.483-51.28 203.036a4409 4409 0 0 0-83.14 631.176c-222.28-25.077-443.25-30.21-666.74-30.346-108.66-.33-217.319.451-325.962 2.341l-243.949 6.425c2.392-23.642 6.39-47.23 10.198-70.689 23.339-.172 46.702-.693 70.05-.92 8.723-.085 27.837 1.555 35.189.568 1.425-1.686 2.917-3.536 2.85-5.865-.283-9.701-.845-19.416-1.226-29.113l-2.362-64.881-2.886-123.938c-.84-36.01-2.191-77.214-1.542-113.113 17.34-13.883 34.4-33.586 47.779-51.268l-1.211 187.828-.176 52.946c-.006 9.451-.742 19.353.5 28.722.276 2.084.739 3.432 2.527 4.659 6.026 4.136 71.904.583 83.519.512a9399 9399 0 0 1 297.452 1.903l104.94 3.499c8.57.292 39.84 1.898 46.49.651 8.34-10.686 23.29-294.245 25.27-329.693.47-8.383 4.07-41.916-.14-46.617-10.38-4.486-66.12-4.325-82.13-4.706a7197 7197 0 0 0-273.776-1.912 18609 18609 0 0 0-210.231 5.798c2.562 41.725-9.568 56.156-41.451 80.989-.943-22.212-.491-48.569-.653-71.046q-.72-49.343-.666-98.693.084-19.29.654-38.574c.368-11.182 1.466-24.406-.06-35.287-5.363-3.023-87.539.489-98.298.816l-218.369 8.788c-28.927 1.307-57.906 2.795-86.828 4.327-7.563.401-14.394-.744-18.398 6.373.064 3.695-.446 2.318 1.929 5.168 8.652 4.196 37.72.152 48.93-.426l113.154-5.66c83.537-4.045 162.68-6.326 246.001-8.522-.78 80.755-.767 161.517.041 242.272-7.431 5.264-12.733 8.691-20.616 13.241-28.947-16.813-55.3-35.409-83.763-52.633-5.781-3.497-20.178-6.227-27.529-10.147-1.184-2.434-2.49-10.336-1.582-11.268 13.391-13.558 12.012-23.911 15.115-40.882 5.845-31.978-33.92-54.603-58.485-34.524-9.709 7.936-11.136 17.769-12.02 29.892-14.756 7.25-11.902 18.436-1.961 28.678 4.77 4.914 7.876 1.569 13.414 3.731 2.497 6.192 3.239 17.219 3.195 24.085-.017 2.592-1.373 3.13-3.072 4.425-11.677.772-25.537 10.807-36.05 16.256-23.387 12.123-40.731 30.446-57.511 50.233-.166-10.433-.9-47.484-4.209-49.41-8.802-5.122-108.688.87-116.28 6.512-7.172 12.822-.201 57.228-.768 73.526-.269 7.724.55 38.131 5.843 43.334 7.937 2.121 83.638-2.407 97.401-3.33 8.392 9.159 15.229 18.619 24.547 27.309 12.159 11.342 24.637 21.506 37.688 31.772 4.554 3.583 8.539 8.506 12.97 12.582-9.254 74.16-17.863 148.4-25.827 222.71-53.062 1.121-113.467 4.443-166.385 8.497-.196-22.048-2.996-52.3-4.425-75.096l-7.305-123.377a8020 8020 0 0 0-40.848-476.649c38.334-1.3 83.469-5.345 122.39-7.77a11619 11619 0 0 1 278.53-15.031 10778 10778 0 0 1 727.554-1.146c162.74 7.07 314.46 12.981 477.41 28.195-12.74 49.255-25.44 120.903-34.1 171.328-28.68 166.953-48.96 338.007-69.72 506.27-53.05-8.162-112.83-13.099-166.43-16.719a3420 3420 0 0 0-250.64-8.877c4.4-29.561 7.34-63.221 10.47-93.204a6095 6095 0 0 0 19.37-217.171c6.4-75.276 12.26-150.597 17.59-225.956 2.02-26.771 4.86-53.2 6.44-80.105 8.73-1.089 19.78-.872 28.76-.94-.41 22.162-4.05 55.741-6.03 78.225l-9.67 115.62c-2.08 24.44-4.9 49.06-6.01 73.551-.18 4.037-1.12 10.641 1.84 13.645 3.78 3.847 52.48 1.367 61.46 1.266 70.74-.34 141.49 1.33 212.14 5.006 31.86 1.582 68.87 5.101 99.92 5.738 4.43-23.021 7.87-53.611 11.31-77.399a7204 7204 0 0 1 22.07-140.898c2.15-12.377 13.18-61.896 11.06-69.478-.35-1.248-1.36-1.851-2.43-2.442-13.14-7.25-407.51-21.636-432.34-14.731-1.36.379-1.67.304-2.33 1.53-4.23 7.826-26.25 317.288-29.28 353.495a10121 10121 0 0 1-17.3 186.462c-1.38 13.665-11.54 91.015-9.48 96.021.7 1.688 1.52 2.9 3.23 3.53 5 1.847 84.08 1.308 98.67 1.697 80.65 1.99 161.21 6.804 241.52 14.434 24.47 2.279 49.92 5.416 74.39 8.576 2.34.238 18.04 5.247 19.33 2.714 6.13-12.021 11.46-67.825 12.83-78.402l22.76-182.275a4722 4722 0 0 1 71.37-421.405c1.05-4.689 3.82-14.581 1.44-18.341-8.07-4.334-30.78-5.082-40.62-5.918a3666 3666 0 0 0-63.78-5.108 6540 6540 0 0 0-195.23-11.936 10069 10069 0 0 0-1182.442 6.763c-19.96 1.166-138.194 5.767-148.039 12.121-2.234 6.838 5.771 65.173 7.01 76.344a8671 8671 0 0 1 12.641 130.227 12221 12221 0 0 1 26.935 381.991l4.452 73.24c.513 7.631.387 28.506 5.291 33.479 5.185 1.797 89.724-4.115 102.298-4.71a2981 2981 0 0 1 70.999-2.524c-.927 20.525-4.728 50.643-6.601 71.731-78.537 1.437-168.1 8.519-246.667 14.304-1.784-17.721-2.739-36.924-4.237-54.912l-13.06-150.638a6977 6977 0 0 0-49.668-416.928 3633 3633 0 0 0-25.333-154.205c-3.855-21.085-8.047-48.961-13.368-69.242 40.282-.81 83.566-3.498 124.067-5.302l276.626-13.138a13500 13500 0 0 1 505.526-14.208"/><path d="M408.05 293.444c5.058.165 5.615.447 8.459 4.227 2.789 13.909 1.392 40.446 2.791 56.016.943 10.492 4.759 49.705 2.447 56.349-6.273 6.14-38.715 5.676-49.298 6.137l-64.313 3.358c-10.877-2.095-10.803-17.296-10.592-26.339.457-19.527-8.745-76.249-1.108-90.997 6.124-4.599 98.835-8.181 111.614-8.751m554.154 3.042c42.716-.263 341.306 1.669 354.156 7.944 2.43 1.187 2.83 2.185 3.71 4.537-.5 3.049-.48 3.672-2.63 5.821-4.48 1.983-81.66-1.556-93.96-1.965q-55.98-1.466-111.96-2.114c-28.86-1.634-69.46-1.051-99.16-1.084a4785 4785 0 0 0-172.447 2.101c-24.037.785-48.105 1.615-72.116 2.944-6.961.385-11.882 1.553-14.665-6.684 1.319-4.847 7.476-6.306 12.045-6.523 65.656-3.125 131.305-4.004 197.027-4.977m-75.692 35.057c30.785-1.048 64.157-.556 95.077-.404a8440 8440 0 0 1 214.231 3.842c27.86.504 55.72 1.415 83.55 2.731 8.38.377 26.79-1.863 31.41 5.337.32 4.136.63 2.523-1.03 6.184-2.31 1.511-2.5 2.079-5.33 2.059-12.82-.093-26.33-.77-39.09-1.26a4449 4449 0 0 0-87.58-2.954c-36.86-.038-74.41-1.391-111.32-1.883a8769 8769 0 0 0-201.336-.019c-14.61.218-101.909 4.117-108.071 1.813-2.837-2.99-2.064-1.538-3.012-5.474.75-2.665 2.001-5.801 5.377-6.094 11.664-1.015 23.51-1.065 35.227-1.47a3587 3587 0 0 1 91.897-2.408m5.675-71.021a7587 7587 0 0 1 315.243 2.486l63.06 1.658c10.1.257 23.67-.563 33.23 1.886 2.4 1.945 2.62 2.229 3.32 5.234-2.84 10.843-32.98 5.333-42.83 5.176l-95.96-2.047c-32.59.277-68.67-1.076-101.62-1.522a5895 5895 0 0 0-183.734.43c-35.152.834-70.28 1.233-105.397 3.186-7.936.441-19.251 4.112-23.595-3.454.13-4.569-.434-3.04 1.625-6.549 5.301-4.683 120.552-6.246 136.658-6.484m117.323-37.023c94.25.396 188.49 2.003 282.71 4.818 6.25.246 13.44-.57 17.53 3.855 1.02 3.963 1.16 2.444-.15 5.904-3.07 2.85-7.91 3.868-11.91 3.68-18.9-.887-37.51-1.99-56.43-2.312-60.16-1.314-120.34-2.144-180.51-2.488a6779 6779 0 0 0-221.475 1.844c-22.135.466-44.271 1.318-66.379 2.47-7.418.387-11.822 2.169-15.207-5.251.238-1.075.321-2.461 1.024-3.168 5.497-5.529 19.465-4.908 26.372-5.146a13607 13607 0 0 1 52.247-1.709 7151 7151 0 0 1 172.178-2.497M972.625 856.5a5481 5481 0 0 1 215.345 3.345l47.17 1.338c8.06.242 26.09-1.314 30.22 5.654-.12 3.121-1.12 3.967-2.97 6.518-4.67 3.174-58.01-.591-67.05-.907a4433 4433 0 0 0-149.09-3.739 5043 5043 0 0 0-247.719 3.025c-10.969.416-42.92 5.947-48.009-4.371 3.784-8.528 53.989-7.865 64.534-8.301 52.5-1.95 105.034-2.804 157.569-2.562m410.155-221.947c44.55-2.621 338.99 1.541 361.49 12.863 1.76 2.213 2.21 2.521 1.82 5.635-1.02 8.114-13.03 5.165-18.04 4.588-78.02-7.926-173.19-10.61-251.72-11.425-21.42-.18-42.84-.058-64.25.366-8.87.191-33.49 1.553-40.75.159-4.08-3.233-4.83-6.686-1.34-10.733 3.12-1.561 9.06-1.352 12.79-1.453m28.27-37.096c13.18-.729 30.89-.364 44.32-.426 33.82-.249 67.64.122 101.45 1.113 59.13 1.575 118.15 3.326 177.12 7.943 6.37.499 13.56.114 16.75 6.435-.2 2.859-.35 3.153-2.24 5.318-5.15 2.776-27.38-.048-34.4-.643-23.37-.485-50.67-2.845-74.72-3.809a5074 5074 0 0 0-170.62-3.628c-24.55.01-49.04.285-73.58.818-7.59.165-21.31 2.406-23.86-5.671 2.2-10.62 29.22-7.207 39.78-7.45M1428.3 710.5c35.49-.494 286.61 6.305 302.83 15.015 3.41 4.212 3.79 6.798-.53 10.7-3.79 1.288-52.49-3.207-60.17-4.048-21.29-.794-44.3-2.989-65.92-4.165a5454 5454 0 0 0-119.81-4.452c-25.19-.606-50.39-.703-75.58-.289-9.88.122-42.48 3.248-48.56-3.389.77-10.635 19.26-8.477 26.64-8.608zm-13.35-38.039c30.19-1.045 64.71.207 95.05.838 65.56.961 131.07 4.164 196.42 9.601 9.04.76 29.12-1.358 31.82 8.481-2.77 8.773-15.94 5.784-23.24 5.227-8.18-.623-16.52-1.621-24.69-2.455-104.24-5.232-207.45-12.747-311.98-8.069-5.14.23-13.91-.861-15.56-6.503.41-1.09.77-1.969 1.56-2.84 4.71-5.129 41.47-4.06 50.62-4.28m-40.2 77.084c99.46-3.967 207.31 2.317 306.61 10.495 8.8.725 37.13 2.947 42.91 6.065 1.89 2.455 1.72 3.239 1.71 6.402-4.09 7.739-13.3 4.23-21.22 3.224-19.13-1.533-38.62-4.168-58.02-5.737a3522 3522 0 0 0-141.03-7.67c-27.04-.78-54.1-1.11-81.16-.988-10.96.064-58.67 1.694-64.1.258-1.66-1.827-2.79-2.771-2.83-5.472-.12-8.229 12.01-6.582 17.13-6.577"/><path fill="#fefefe" d="M1259.74 464.928c.09.101.21.185.27.303 1.84 3.187-13.89 227.441-15.53 251.863-37.17.541-78.89-.984-116.69-1.109a8576 8576 0 0 0-314.345 2.291l1.495-106.302 16.265-19.484c10.769-12.896 22.365-25.746 33.309-38.605 15.755 9.275 53.795 44.018 66.465 49.291 7.648-1.592 103.541-110.715 117.471-125.718 8.11 6.767 19.42 17.921 27.29 25.274a7626 7626 0 0 1 76.85 73.931c16.36-14.797 34.54-35.637 49.72-52.042a3440 3440 0 0 1 57.43-59.693m-636.455 70.45c18.308 8.114 42.696 16.452 62.241 19.418l12.867-6.421c2.335 43.749 1.944 92.352 2.83 136.599a13759 13759 0 0 0 5.153 178.119l-19.626.159-74.673.765c9.173-59.935 8.756-132.126 3.549-192.435a1728 1728 0 0 0-5.324-48.947c-.876-7.487-3.366-24.414-2.477-31.022 2.322-17.244 9.849-39.625 15.46-56.235"/><path fill="#fefefe" d="M565.052 444.687c26.613 6.27 45.232 22.532 68.031 37.191 16.704 10.74 27.888 17.964 45.54 27.307 19.235-9.6 48.508-34.814 64.43-49.764 6.069 3.785 9.383 5.691 15.909 8.723-22.756 28.315-44.33 56.665-76.64 74.281-21.48-5.642-37.609-10.855-57.689-20.578-3.116-8.743-10.533-35.935-19.972-36.997-2.811.876-3.085 1.079-4.899 3.401-2.108 5.757 9.918 30.358 13.11 37.849-7.945 22.83-13.728 44.309-19.77 67.728a471 471 0 0 1-33.855 3.727c-14.851 1.801-38.104-.294-53.273-1.614-.357-15.64-5.721-65.729-16.419-76.097-7.739-2.202-45.097 23.595-47.724 31.209 1.54 4.717 33.919 49.564 39.507 57.787l-5.24 11.082c-23.137-17.454-50.395-41.675-65.013-67.012q.386-1.725.946-3.401c3.382-10.338 9.41-19.951 15.523-28.848 26.699-38.852 55.835-54.942 96.206-75.28 21.659 19.848 26.852 36.889 41.292-.694m322.177 5.555c37.122-1.634 42.516 54.536 7.201 62.647-35.306 1.738-43.164-52.998-7.201-62.647M462.711 1022.76c7.512 1.35 13.271 1.9 20.883 2.55.243 8.13 1.19 18.14-1.175 25.74-12.111 9.36-21.7 18.43-35.65 24.62-7.221 2.03-11.816 2.2-19.169 2.65 14.306-15.94 28.719-34.85 35.111-55.56m89.299-1.14c9.135.98 16.213 1.56 25.383 1.83 13.41 24.72 39.035 30.82 55.984 45.85l-.809.7c-28.815-5.55-41.8-10.88-67.045-24.04l-12.721 5.43c-.102-9.81-.514-19.93-.792-29.77"/><path fill="#fefefe" d="M481.958 534.761c5.683 3.183 17.696 60.657 9.325 64.725-3.295-1.303-5.551-5.797-7.541-8.959a4053 4053 0 0 0-26.871-38.605c8.134-5.786 16.811-11.519 25.087-17.161m50.417 342.142c3.219-.014 6.309-.502 8.747 1.267 1.648 7.404-1.345 59.758-1.629 70.816l-12.993.035c-3.658.193-4.892.394-8.528-.654-.502-1.673 12.686-65.148 14.403-71.464m238.826-469.569c5.517 2.304-.256 11.174 3.311 16.592 5.375 1.292 25.69-10.923 33.062-14.562-6.871 10.315-15.238 20.99-22.739 30.959-6.876 9.164-9.599 10.804-19.025 16.752l-13.326-5.71c3.397-12.172 13.009-31.607 18.717-44.031m-219.672-35.755c3.153 1.019 8.903 4.559 15.057 6.601-.915 17.263-1.594 39.274-25.736 30.177-7.281-4.464-12.832-11.615-17.488-18.896.635-2.66 2.335-2.565 5.879-3.331 12.25-2.646 14.854-5.344 22.288-14.551"/><path d="M555.696 378.412c7.671 3.556 5.465 16.813-.614 21.545-10.267-5.821-3.887-13.965.614-21.545"/><path fill="#fefefe" d="M534.998 417.574c5.861 3.063 9.259 3.928 15.732 4.701 1.56 10.072 2.945 18.065-1.229 27.396l-1.489 1.01c-3.291-1.491-9.662-10.498-12.438-14.016-.71-6.205-.555-12.82-.576-19.091m-29.254 190.482c4.769.154 11.129 1.783 15.927 2.832-13.353 4.906-15.736 6.268-24.644 16.74-2.274 3.738-2.284 5.219-6.794 4.869-9.588-9.43 6.05-21.594 15.511-24.441m38.133 181.592 2.307-2.53c-.966 21.345-1.942 56.515-4.399 76.818-2.439 1.548-1.473 1.119-4.784.994-4.056-4.388.16-11.926.309-17.51.445-16.63 7.463-41.988 6.567-57.772"/><path fill="#828082" d="M543.877 789.648c.377-3.933.582-10.871 2.532-13.963 1.074 3.367.197 7.774-.225 11.433z"/></svg>