<svg xmlns="http://www.w3.org/2000/svg" preserveAspectRatio="xMidYMid meet" viewBox="0 0 2048 2048"><path d="M982.729 123.024c497.921-21.983 919.331 363.96 941.101 861.892 21.77 497.934-364.35 919.174-862.29 940.734-497.644 21.54-918.579-364.3-940.334-861.93C99.45 566.093 485.107 144.992 982.729 123.024"/><path fill="#fefefe" d="M986.785 145.471c485.655-19.73 895.305 358.08 914.835 843.742 19.54 485.667-358.43 895.157-844.1 914.507-485.398 19.34-894.618-358.38-914.146-843.77C123.845 574.558 501.4 165.19 986.785 145.471"/><path d="M990.415 236.788c435.225-17.033 801.895 321.916 819.045 757.14 17.15 435.222-321.69 801.982-756.91 819.252-435.393 17.29-802.325-321.72-819.485-757.12-17.161-435.395 321.95-802.232 757.35-819.272"/><path fill="#fefefe" d="M1227.99 314.604c10.07 1.315 30.36 7.071 41.36 9.558 79.34 17.929 151.76 48.971 219.28 94.437-32.44 29.644-62.54 62.478-93.31 93.848-29.84 30.422-57.74 62.157-84.98 94.919-64.01 8.415-117.26 25.759-172.28 59.94-33.28 21.396-76.35 53.493-84.71 94.841-14.25 70.491 2.1 134.495 39.17 194.385-1.39 17.983-6.19 40.256-8.2 59.528a339.15 339.15 0 0 0 26.27 170.87c4.8 11.21 9.88 20.74 16.76 30.88 3.82 5.62 9.14 11.31 9.61 17.81l-1.43 2.43c-11.55-4.92-166.911-162.96-185.006-180.9l-95.384-94.303c-24.801-24.344-51.922-50.265-75.602-75.639 15.269-21.403 32.395-51.276 47.098-74.296a3161 3161 0 0 1 84.73-125.236 3232 3232 0 0 1 253.574-308.908c21.22-22.904 42.51-42.455 63.05-64.164M511.688 958.419c43.856-4.238 112.377 15.468 146.706 43.571 49.911 40.87 81.837 130.17 100.143 190.86 4.461 14.79 11.006 35.4 12.722 50.21-13.336 5.4-22.748 16.77-25.991 30.64-.813 9.78-35.276 55.78-12.742 56.18 16.042.28 32.687-37.89 38.251-50.73 1.963-4.53-4.076-11.4 2.242-17.18l1.505 1.14c3.169 10.04 3.781 40.46 3.477 50.81-1.718 65.7-35.882 139.22-97.193 169.27-31.905 15.65-92.89 11.36-126.693-.26-11.882-4.09-18.433-13.38-23.306-24.4l2.478-10.68c32.483-17.53 69.948-41.8 68.302-83.14a151 151 0 0 0-3.166-24.34c-2.479-11.95-20.722-79.33-27.068-85.16l-1.665.55c-13.086 29.07 20.562 87.69 11.004 128.81-10.833-23.52-34.006-17.6-56.087-19.09-12.408-.84-29.367.48-41.164 3.81-4.7 1.32-13.736 9.63-17.668 13-4.539-43.47 11.99-69.67 12.052-111.29.008-5.42-1.031-15.89-5.107-19.61l-1.322.76c-4.826 9.19-7.128 22.28-9.783 32.49-23.101 88.82-28.717 117.23 56.557 163.5l-.018 1.88c-.068 5.95.138 9.96-2.832 15.28-15.977 28.63-66.32 27.04-93.572 26.66l-10.4-.31c-16.266-21.21-35.651-50.48-48.608-73.74 5.718 4.44 14.322 11.73 19.35 17.11 12.369 13.24 22.102 11.71 31.702-3.64 11.078-17.71-28.549-24.12-39.079-29.1-7.917-3.74-22.063-8.33-28.258-16.01-13.471-20.97-28.325-50.99-34.737-74.81 9.928 13.35 14.748 18.04 30.45 23.88 10.059 21.64 29.87 58.68 58.138 60.57 12.747.85 13.739-14.1 6.542-22.08-10.143-11.26-24.467-18.79-34.203-30.68-12.916-15.23-13.211-31.92-19.845-49.64-7.585-19.12-19.727-30.89-25.05-51.84 5.631 7.95 15.154 20.93 22.075 27.53 4.165 3.97 16.56 8.28 20.976 14.32 5.945 8.71 8.347 15.33 12.721 25.28 6.602 15 31.189 40.47 49.019 34.6 2.03-.67 7.282-6.6 7.216-9.03-.363-13.43-23.638-19.73-30.781-30.16-7.68-9.97-12.258-19.27-19.86-28.2 2.303.99 4.619 1.96 6.947 2.89 3.123 1.24 7.014 2.93 10.191 1.57-.009-2-10.081-12.21-12.336-15.06a166.5 166.5 0 0 1-13.972-20.95c-7.114-12.64-11.816-25.97-14.765-40.32-2.622-12.77 4.661-56.17-10.742-59.9-12.208 2.61-13.298 16.74-13.704 26.71-1.577 38.68.959 62.09 27.367 90.82-2.388-1.17-9.985-4.97-11.977-4.77-39.11 4.01-24.812-93.21-48.208-88.74-2.63 2.18-4.382 4.58-4.784 8.02-5.154 44.13 5.071 94.26 28.037 130.98-4.559-1.84-20.805-7.97-22.209-11.76-9.356-25.25-13.07-48.67-25.65-73.51 8.023-31.41 17.935-62.66 27.195-93.73 5.49-18.42 11.631-37.1 20.074-54.38a244.2 244.2 0 0 1 34.681-52.01c36.321-41.717 92.703-59.765 146.425-63.451"/><path d="M684.755 1143.88c12.08.1 17.596 7.17 17.599 19.37.008 34.06-2.17 76.26-24.475 103.81-2.915 3.6-2.904 7.7.705 10.34l2.066-.88c5.185-12.88 23.044-20.37 31.664-39.42 7.995-17.68-2.651-66.85 13.379-70.97 14.007 2.65 15.415 36.26 16.847 47.83 2.517 20.35-3.562 37.58-16.858 52.93 8.729 16.04-5.441 50.27-12.402 66.06-5.779 13.1-17.958 26.47-27.709 37.02-11.781 12.74-24.371 30.14-43.522 28.95-4.232-2.15-12.644-7.58-9.359-13.44 7.482-13.36 24.627-21.61 34.653-33.21 20.912-24.2 31.623-53.37 41.039-83.38-5.508 6.15-15.515 17.1-24.34 19.03-2.884.63-5.015-2.39-7.183-4.46-9.422 20.53-19.225 48.84-41.477 60.27-6.319 2.72-11.5 4.47-18.116 2.42-5.681-1.77-8.25-11.25-5.479-15.44 5.27-7.97 18.17-13.05 24.451-20.43 7.461-8.77 13.391-20.11 19.276-30.16-5.202.84-11.236 1.49-16.525 2.17 33.15-31.26 38.191-63.4 39.748-106.73.352-9.77 1.319-22.99 6.018-31.68m-169.13-179.45c7.833-.433 18.379-.145 26.422-.17a1213 1213 0 0 1 54.257 59.09c9.335-5.91 23.878-12.33 35.054-9.48 12.58 3.21 15.469 16.61 15.241 27.8-.037 1.79-.764 6.35-.24 7.89 1.062 3.13 21.457 6.91 24.986 14.41.68 1.44.101 1.91-.408 3.29-2.187 1.63-4.177 3-6.952 3.44-31.168 4.9-34.703-10.64-40.547-35.46-7.108 3.1-26.294 19.59-33.446 15.13-20.265-12.62-39.08-30.72-57.23-46.4-1.726-1.49-5.315-10.158-6.397-12.677-1.875-3.252-.585-1.985-4.256-3.659-7.825 1.074-8.849 15.486-14.17 19.526-17.343 13.17-33.386 35.54-52.495 44.73-9.207-3.46-28.506-18.84-37.112-13.76-.395 3.16-.835 6.32-1.322 9.46-3.346 20.96-18.782 28.28-38.693 25.01-14.338-13.47 18.459-16.59 17.634-21.68-6.208-38.28 21.604-45.17 52.864-27.67 6.415-9.02 15.115-16.94 22.652-25.148 10.151-11.06 20.035-22.341 30.757-32.842z"/><path d="M511.799 1017c26.755.09 24.819-2.86 35.558 22.15 11.253 7.78 21.866 13.01 31.139 23.62 9.548 10.91 21.089 20.81 29.052 32.99 4.743-3.18 11.32-7.66 16.45-10.09a36.2 36.2 0 0 1 35.582 2.93c1.014.69 6.733 5.38 7.286 5.46 8.05 1.23 17.741-3.54 21.594 6.04-.541 7.44-5.32 16.03-13.105 17.79-13.137 2.79-21.125-6.2-31.228-12.18-21.24-12.56-27.111 28.83-51.599 10.02-9.6-7.37-10.002-16.57-17.403-23.35-14.694-13.47-35.134-22.36-47.01-38.75-1.308-1.85-2.995-11.62-3.513-14.41l-.976-1.56c-3.859 3.8-4.194 14.82-9.862 20.87-11.495 12.28-26.9 20.17-39.297 31.01-9.977 8.72-7.102 21.48-22.218 27.68-19.338 7.94-25.473-6.07-40.456-13.57-12.476-2.99-19.581 9.77-29.606 15.22-9.557 5.19-35.047.58-28.923-13.75 4.964-5.37 12.742-5.4 20.311-6.62 24.203-23.68 39.689-17.76 65.649-1.86 9.876-12.78 23.847-30.3 34.708-42.29 3.103-3.42 19.097-9.84 23.395-15.32 8.277-10.54 2.624-14.53 14.472-22.03"/><path d="m512.496 1078.82 4.412.53c2.361 1.94 2.716 2.62 5.708 3.12 12.078-7.23 15.037-.75 21.041 10.13 5.606 10.17 10.039 17.47 17.196 26.54 7.139 1.03 26.232 3.22 20.966 16.51-4.135 10.44-23.244 8.71-31.563 4.14-14.636-8.04-21.663-24.81-26.362-40.12-.933-3.64-1.558-10.31-2.061-14.27-.134 1.63-.31 3.26-.53 4.88-2.081 15.81-9.733 35.63-23.279 47.06-8.693 7.34-36.976 11.98-35.742-7.59.422-6.69 15.86-9.17 22.52-11.71 6.859-9.23 21.48-34.43 27.694-39.22m241.752 276.98c2.411.48 2.797.74 5.124 1.63 8.343 11.3-17.734 31.71-24.402 41.2.613 20.06-4.734 35.9-25.526 18.45-18.359 7.07-40.743 22.37-57.019 25.5-6.274-.64-19.87-5.99-16.215-12.83 14.505-24.47 54.497-27.45 78.911-41.59 15.939-9.23 26.364-24.78 39.127-32.36m-133.004-214.57c15.807 1.23 55.331 19.63 47.007 38.14-6.503 3.12-33.108-6.71-44.562-8.69-29.285-1.19-39.595 36.42-47.226-8.6 18.589-9.16 23.252-16.88 44.781-20.85m-202.947 1.16c13.529.54 19.23 4.66 31.105 10.84 12.571 6.55 18.882 8.35 15.083 24.92-.954 4.17-1.782 6.62-5.643 9.05-5.321.69-20.284-11.48-27.991-15.71-15.241-6.18-50.884 11.95-57.514-1.19.857-17.42 30.134-26.79 44.96-27.91m207.842 54.59c4.317.09 7.797.3 11.944 1.73a22.17 22.17 0 0 1 13.038 11.96c7.194 16.49-4.106 32.65-19.91 38.32-38.835 4.74-32.185-38.98-5.072-52.01m-219.956 2.14c21.239-1.35 36.059 18.46 31.755 39.18-1.446 6.96-7.805 10.49-13.859 13.36-28.94 4.95-47.492-38.61-17.896-52.54"/><path fill="#fefefe" d="M1471.03 1289.51c3.87 1.77 10.77 8.39 14.46 11.25 38.3 29.69 73.27 20.15 109.76-5.32 10.97 3.28 19.76 8.05 29.22 14.36-6.59 1.51-17.51 3.89-23.05 7.35-87.09 54.33-90.68 217.53-97.37 302.94-109.12 86.85-259.86 152.67-399.38 165.35 6.63-47.32 14.73-86.78 23.46-132.74l25.95-135.83c5.98-29.99 14.65-71.43 20.82-102.18.61-3.05-3.29-6.37-5.77-8.32-8.13-.21-11.54.71-13.73 8.99-3.22 12.14-5.67 24.46-8.25 36.75l-13.62 66.4a8178 8178 0 0 0-36.1 184.94c-4.78 27.21-9.66 57.28-12.92 84.64-26.67 2.03-57.75 3.51-84.32 2.11 18.97-77.18 35.33-153.33 61.59-228.59 39.9-114.38 84.29-229.84 217.73-256.58-2.01 18.91-3.43 44.61 13.13 56.82 63.33 46.68 142.74-32.74 178.39-72.34m-397.12-986.079c33.43-2.42 93.91 1.128 126.71 7.017-8.2 9.788-18.96 19.074-27.84 28.452-125.04 132.062-241.121 273.338-340.792 425.635-22.335 34.127-48.383 71.902-67.356 107.926-18.077-16.063-35.203-33.571-52.079-50.889-29.679-27.48-59.59-60.425-88.736-89.006L566.76 676.4c-10.589-10.377-23.567-22.13-33.173-33.072 12.48-17.538 26.67-35.71 39.548-53.075l60.11-81.829c16.095-21.728 33.515-47 50.154-67.796 9.479-11.846 44.846-31.068 59.294-39.521 106.336-62.211 208.951-91.051 331.217-97.676m128.43 492.265c2.23 2.192 11.88 22.208 14.11 26.564 18.47 36.16 44.58 59.922 74.54 86.246-7.98 3.322-27.42 10.691-20.46 23.289 5.03 4.376 11.75 2.709 17.62 1.086 10.33-2.856 18.4-4.246 29.18-4.452 11.07 6.151 24.3 14.591 36.01 20.104 21.73 10.236 83.89 35.425 106.34 19.145 8.68-6.292 19.72-24.729 37.28-25.281 8.13-.577 20.53 2.46 26.24 8.683 31.86 34.693 3.8 88.72-39.46 94.91-4.36.62-28.29 1.63-28.86 2.71-7.23 13.91-6.44 33.76-12.04 48.79-8.07 24.59-13.93 38.66-31.08 57.27-38.44 39.89-105.12 48.42-158.05 44.02-24.66-2.05-53.34-19.82-67.03-40.41-36.66-55.12-49.78-126.98-59.23-191.487-.75-5.128-5.84-40.151-.44-41.674 18.34-5.174 38.86 2.553 56.17 8.208 11.19 3.654 15.62-11.087 7.81-17.716-12.93-10.547-33.85-9.84-49.69-9.931 30.07-36.66 46.3-65.116 61.04-110.074"/><path d="M1493.38 963.151c6.63-.721 14.72-1.434 20.64 2.214 4.73 2.918 7.77 6.881 3.67 11.987-9.9 4.057-33-8.933-32.95 16.69.01 3.082.96 4.462 3.03 6.618 3.3 3.01 3.6 2.76 4.23 6.33-.68 1.97-2 4.64-4.04 5.33-20.4 6.92-20.56-22.513-14.02-33.795 5.6-9.675 9.68-12.104 19.44-15.374m-266.52 7.001 3.18.761c10.99 10.775-13.71 61.167-8.29 76.127 6.64 18.32 33.94 6.88 40.71 10.74.86 3.61.95 1.83-.65 5.49-21.34 6.72-51.32 3.46-49.55-26.31.58-9.72 6.61-22.1 8.58-32.16 2.13-10.896 2.42-24.609 6.02-34.648m85.69-4.104c17.36.802 20.34 26.353.36 32.937-19.55-3.578-20.43-26.358-.36-32.937m-151.49-2.99c21.54-1.545 26.91 17.458 10.62 30.437-18.98 2.746-27.66-17.848-10.62-30.437m58.03 139.412c11.56 1.75 22.75 8.28 38.02 8.64 10.52.24 20.87-5.7 26.17-3.42 1.36 3.34 1.14 1.55-.11 5.57-16.93 7.98-46.64 7.35-62.36-3.74-2.36-1.66-1.74-4.52-1.72-7.05"/><path fill="#fefefe" d="M1503.69 430.611c3.97 1.257 21.51 16.47 25.37 19.847 39.48 34.54 75.14 70.199 106.26 112.515 10.92 14.844 20.09 25.341 29.3 42.04-3.52 5.355-7.13 10.409-11 15.517-20.7 27.325-40.22 55.423-60.91 82.76-18.66-19.799-24.01-28.996-47.29-46.967-63.59-46.637-133.23-53.467-209.55-51.125 10.22-12.743 25.74-28.58 37.07-41.158 41.66-46.225 86.52-89.71 130.75-133.429m171.32 193.178c5.99 4.989 20.03 31.38 24.46 39.609 38.8 72.094 72.89 161.799 81.67 243.749-6.34 10.424-18.39 26.929-25.57 37.496-16.87 24.827-34.8 51.23-52.82 75.237-1.74 2.56-1.61 2.77-4.18 4.38-1.08-.76-15.16-34.163-18.36-40.616-22.47-45.29-59.97-83.696-48.97-137.557 9.66-47.273-5.02-86.254-26.27-125.669 17.65-28.307 49.32-69.282 70.04-96.629m109.35 311.808c4.29 10.305 5.06 45.532 5.6 58.393a767.94 767.94 0 0 1-74.74 357.21c-7.74-7.37-21.72-21.35-30.07-26.97-8.46-5.69-13.67-6.26-23.7-14.37-15.53-10.99-29.12-20.46-46.15-29.16 24.65-25.03 42.34-43.46 61.44-73.61 29.54-46.62 40.5-102.87 27.95-156.97 26.92-36.55 53.19-77.016 79.67-114.523M752.505 1439.7c6.453 7.73 37.518 239.26 35.277 242.25-1.323-.16-2.003-.27-3.393-.32-8.938-.33-53.59 39.23-62.14 47.36-10.755-2.55-21.903-7.58-32.083-12.02 17.029-13.93 34.897-23.24 53.055-39.11 17.271-14.02 29.117-34.45 32.653-56.37 1.779-5.61-8.312-17.57-14.094-15.54-22.526 7.88-14.014 37.33-41.211 46.05-5.262 1.69-21.437 11.83-26.045 14.44-15.016 8.52-27.14 19.18-37.515 32.56-6.689-2.69-10.453-4.6-16.82-8.05 14.553-24.64 25.988-35.41 49.375-52.67 18.269-12.4 36.061-24.75 45.498-45.66 3.676-7.55 13.547-35.06 9.293-42.61-11.292-17.29-32.93 20.23-38.338 27.31-11.588 15.18-22.737 22.81-38.456 32.93-26.771 17.22-55.084 28.17-81.505 46.27-16.901-9.32-69.98-54.02-86.207-68.94 32.284-.25 83.72 2.92 111.408-11.05 25.615-12.92 48.089-43.89 56.908-70.82 40.001-11.61 59.074-34.93 84.34-66.01m884.315-112.3c31.1-.39 48.38 21.72 68.94 41.65-42.23 82.26-81.38 134.58-145.1 200.73a615 615 0 0 1-35.58 34.25c3.91-71.32 17.06-268.16 111.74-276.63m-843.94 236.42c2.769 2.11 14.265 14.59 17.465 17.94a899 899 0 0 0 32.769 33.23c46.811 45.81 98.859 95.02 144.138 142.2l-6.154 26.58c-.405 2.05-.759 2.62-1.536 4.58-4.761 1.94-20.248-.12-26.228-.72a847.5 847.5 0 0 1-141.364-25.37c1.754-57.89-8.165-142.14-19.09-198.44m631.67-393.95c2.37 3.66 4.08 36.6 6.03 44.37 6.25 24.92 13.38 40.22 27.61 61.06-35.33 38.22-76.34 81.92-132.26 81.71-42.19-6.25-26.86-41.35-21.08-67.21 3.8-16.96.83-54.6-2.44-72.58 48.39-4.14 85.71-12.84 122.14-47.35"/><path fill="#fefefe" d="M522.98 1475.73c2.314 1.47 9.867 9.82 12.755 11.93 29.901 21.82 82.61 21.15 116.876 19.29-9.529 20.07-25.678 44.66-45.953 55.31-15.613 8.2-36.582 9.23-53.894 9.96-24.113.72-46.506-.44-70.453-1.01-22.216-22.56-38.557-40.55-59.263-64.46 22.838-.82 47.374-1.11 69.338-7.99 14.043-4.39 21.593-11.78 30.594-23.03M716.892 333.863c4.239.335 6.679.641 7.287 4.905-3.468 8.054-23.193 14.901-31.642 19.248a808 808 0 0 0-373.72 415.014c-18.211 45.734-30.396 91.573-41.053 139.396-.562 2.519-4.243 3.167-6.435 3.981-2.015 1.463-.926.911-3.258 1.671-1.896-5.723 1.424-18.916 2.73-25.41a714 714 0 0 1 39.652-128.945A813.5 813.5 0 0 1 612.52 391.587c32.11-21.353 68.805-42.819 104.372-57.724m38.99 640.418c9.576-.629 11.642 5.004 11.652 13.741.031 27.678-6.465 82.058-28.83 100.328-2.625-6.59-5.786-13.39-8.695-19.89-9.76-20.16-16.557-31.9-30.423-49.65 1.126-1.79 2.27-3.57 3.432-5.33 12.697-19.235 29.832-34.498 52.864-39.199m-475.758-4.578c4 .92 7.932 2.112 11.77 3.566 24.972 9.33 39.02 25.873 49.762 49.301a403 403 0 0 0-21.428 35.89c-3.867 6.82-7.966 15.53-11.549 22.65-21.051-30.89-34.863-73.97-28.555-111.407m228.502 412.767c10.673-.27 66.502-6.82 59.222 14.71-4.612 13.64-18.907 28.27-31.744 35.27-7.506 2.79-11.014 3-18.858.96-12.29-3.19-43.835-32-38.802-45.06 7.5-6.33 20.676-5.76 30.182-5.88"/><path fill="#fefefe" d="m624.916 479.93.853.938c-6.294 9.746-15.565 21.015-22.414 30.775-16.638 23.71-33.671 46.995-51.515 69.808-11.309 14.459-22.117 32.011-34.259 45.575l-8.858-7.526c-3.41-2.963-7.081-6.809-10.327-10.04 40.217-50.674 75.773-89.381 126.52-129.53M749.88 942.268c58.02-7.92 38.651 63.462 28.494 94.692 3.803-27.48 18.453-89.487-30.487-79.583-26.333 7.409-44.699 25.975-60.867 47.003-5.229-4.952-9.083-7.955-14.824-12.342 17.995-22.605 49.056-44.133 77.684-49.77m-462.664-4.024q4.24.233 8.464.67c33.43 3.689 55.636 30.53 74.739 54.625-3.408 3.074-7.451 6.321-11 9.311l-4.075 4.3c-1.807-.73-8.621-12.045-11.047-15.039-17.633-21.76-38-30.676-63.644-40.081 2.069-6.162 2.652-8.597 6.563-13.786m649.532-670.841c6.108-.806 22.118-2.989 24.427 4.021l-1.048 1.988c-14.907 6.146-43.809 8.577-60.704 11.27-21.653 3.45-36.738 6.899-57.828 12.639-8.561 2.245-14.076 3.602-22.827-.3l-.302-1.953c13.459-14.161 97.225-25.298 118.282-27.665M788.449 1703.82c3.473 4.69 2.716 44.05 2.488 52.11-7.675-2.17-14.253-4.64-21.744-7.4l-10.077-3.67c10.459-13.54 20.719-26.21 29.333-41.04m364.271-454.45c3.01.95 9.42 7.31 11.87 9.75 17.54 17.48 37.97 28.71 59.08 41.41l-.42 1.56-3.57 1.88c-3.8 1.93-8.09 3.67-12.03 5.36-16.9-15.21-38.69-37.86-55.16-54.76-.95-.98-.09-3.4.23-5.2M782.191 304.958c4.447.237 2.734-.6 5.712 1.657 1.177 3.843 1.204 2.001.093 5.722-5.409 6.096-19.664 10.867-27.323 12.123-3.76-1.35-6.443-1.862-8.058-5.645 2.669-5.163 22.54-11.166 29.576-13.857"/></svg>