<svg xmlns="http://www.w3.org/2000/svg" preserveAspectRatio="xMidYMid meet" viewBox="0 0 2048 1152"><path d="M1133.66 195.619c39.94-59.229 98.7-111.448 169.36-129.699 7.22-1.865 28.32-7.724 33.93-2.31-1.42 4.025-44.81 18.993-52.92 22.37-60.84 25.32-102.69 67.083-140.45 119.652 4.36 6.74 16.07 15.22 21.87 21.635 3.97 4.378 7.2 8.594 11 13.078 5.3-5.618 10.57-15.241 15.43-21.803 6.32-8.547 13.09-16.321 19.67-24.598 35.07-44.102 91.53-77.739 145.48-93.06 63.02-17.894 165.89-8.891 223.25 23.756 7.06-4.879 14.21-9.784 21.55-14.238 38.54-23.397 85.32-34.408 129.64-23.557 40.8 9.989 73.74 40.538 95 75.872 72.76 120.955 79.09 339.127 88.74 479.548 1.53 22.185 8.82 115.508 4.6 132.616-2.52 2.427-2.86 2.743-6.18 3.765-1.87-.951-3.63-1.865-4.18-4.239-3.01-13.164-3.27-26.043-6-39.856-12.68-64.23-32.32-127.37-66.1-183.819-4.5-7.53-11.26-19.169-16.77-25.686-14.45.341-39.5 9.801-54.83 12.521-6.67 8.079-8.95 16.059-13.46 24.029-7.76 13.727-26.58 51.736-37.06 61.083 1.96 15.538 1.01 40.886 1.2 57.248.32 26.829.38 54.538.61 81.36.07 7.887-.26 49.986 1.59 55.416-.66 6.175.46 29.218.61 36.654 2.18-3.83 2.69-29.413 3.59-36.257.43-12.355 3.56-51.267 14.94-56.902 1.42.285 4.62 1.571 3.18 8.623-10.52 51.225-11.51 104.216-12.56 156.304.58.456 1.17.913 1.75 1.369 3.3.462 4.67 1.329 6.86-.134 2.65-8.941 2.54-18.922 2.91-28.06.95-24.087 15.41-175.686 45.32-172.5 12.68 11.09-6.21 92.982-8.11 111.479 9.72-20.585 18.04-42.064 27.47-62.793 3.38-7.409 10.33-29.453 17.73-31.766 4.92 3.288 3.57 5.729 2.49 11.165-3.42 17.133-51.46 110.396-48.2 121.766 2.37-3.902 5.32-8.604 7.11-12.72 9.01-20.649 66.23-93.855 90.95-83.086 4.23 6.12-3.68 14.826-7.63 19.793-14.55 18.336-91.51 118.917-87.11 136.578 2.11 2.157 1.03 1.689 4.03 1.753 2.68-1.445 20.56-28.291 22.53-33.215 7.46-18.592 88.16-86.064 104.59-70.718.83 6.793-15.25 22.248-20.36 27.212-17.46 16.947-33.77 34.807-50.63 52.304 12.41-1.853 19.28-6.805 30.69-10.516 14.9-4.841 33.21-5.808 48.78-5.818 5.85-.004 18.16-1.053 19.38 6.089-1.49 1.989-2.05 2.828-5.1 3.113-11.6 1.085-53.1 2.771-61.92 6.719 2.73 3.614 39.6-2.026 48.29 13.025l-.34 1.819c-6.35 4.126-18.51-.136-25.54-1.838l.44.288c6.98 4.447 16.78 8.504 23.42 13.218 20.48 14.549 35.62 37.742 40.99 62.219 4.66 21.27 3.2 35.14-4.38 55.15l-354.8 10.19-119.86 3.71c-14.46.52-28.96 1.16-43.42 1.8-32.44 1.42-65.16-.13-97.64-.43l-265.67-3.87-421.697-7.26-105.339-2.67c-19.434-.37-38.92-.35-58.356-.74-9.618-.2-19.996-5.95-29.888-6.12-95.595-1.6-191.202-5.57-286.722-9.51-9.221-.38-10.022-8.61-9.883-16.01.95-26.21 15.079-52.023 34.45-69.312 21.573-19.407 35.505-25.653 62.935-32.452-7.35-11.506-47.275-62.725-45.192-71.599.201-.855 1.155-1.088 1.878-1.517 3.186.3 6.967 1.939 8.777 4.612 9.879 14.593 21.356 28.92 30.712 43.78-5.945-20.205-37.314-107.784-30.089-122.594.692-1.418 1.669-1.442 3.044-1.896 17.868 4.761 48.32 125.509 53.137 145.751l1.691.851 1.73-.28c1.066-3.788-.57-10.141-.99-14.129-5.736-54.415-15.681-109.419-40.067-158.886-.898-1.821-.481-3.43.147-5.224 7.648-3.259 11.985 6.903 14.672 12.685 7.375 15.871 13.798 32.908 18.22 49.844a501 501 0 0 1 11.754 59.029c1.11 7.564 5.661 52.255 7.525 56.414l1.406.109c2.737-4.223.46-14.401-.092-20.065a5831 5831 0 0 0-6.932-70.437c-.751-6.762-6.915-41.289-2.172-44.443 3.986 1.296 6.886 6.146 7.387 10.132 2.081 16.547 4.434 32.99 5.364 49.644 2.51 13.859 1.664 30.64 4.845 42.505 1.357-5.439 1.176-36.945-.116-40.38.852-9.443-.994-27.472-1.539-37.518l-3.53-70.052-6.629-137.679c-1.484-33.008-2.399-66.898-4.709-99.786-15.409 17.937-51.015 54.51-75.878 36.202-27.57 53.773-46.516 118.462-54.54 177.898-.698 5.533-3.397 11.8-3.941 17.242-2.968 29.682-6.399 58.831-7.389 88.671-.494 14.925-.093 28.479.282 43.387.076 2.994-.829 6.392-3.135 8.405-3.207.649-1.918.829-4.841-.699-4.984-6.223-5.708-17.826-6.896-25.872-2.657-1.878-8.13-5.127-9.146-8.213-4.203-12.778-4.386-26.568-6.019-39.822l-8.502-65.59c-1.153-8.838-3.716-19.929-5.24-28.913.331-.721 1.969-5.944 1.69-6.473-4.136-7.842-7.82-9.043-1.183-16.815-1.333-1.286-4.486-4.475-4.645-6.065-1.224-12.286-2.321-27.673-3.241-39.787a646.1 646.1 0 0 1 11.688-181.699c6.937-34.932 16.703-67.759 32.748-99.127 73.372-141.913 223.945-228.01 384.325-201.32 55.79 9.284 78.98 16.934 129.716 41.69-4.649-4.974-12.517-11.422-17.64-16.133-22.56-20.746-53.121-43.304-83.357-50.68-16.579-4.044-40.237-9.101-57.281-10.898-6.272-.662-20.255.15-27.384.01a443.5 443.5 0 0 0-262.122 77.539c-19.426 13.048-36.355 28.705-55.346 42.313-6.204 4.446-16.604 20.346-23.96 18.034l-.918-2.492c1.051-7.158 32.294-37.085 38.721-42.983 39.707-36.442 89.325-63.711 139.099-83.802 13.65-5.134 28.373-6.596 42.053-11.481 60.003-21.43 124.104-19.918 186.077-10.23 9.667 1.511 19.28 6.939 28.36 9.475 48.98 13.68 80.941 39.297 114.716 77.216 20.104-9.543 40.182-28.514 62.885-38.474 23.972-10.517 33.601-13.866 58.877-20.168 39.015-11.951 75.216-15.167 115.726-14.533 25.709.403 47.296 2.883 72.892 6.285 26.047 3.461 47.087 21.314 73.617 20.61 17.7 14.725 36.61 19.11 53.36 34.228 6.66 6.004 12.92 10.44 20.29 15.466"/><path fill="#fefefe" d="M503.342 165.296c11.688 1.333 70.959 11.75 80.143 16.907 11.253 6.319 46.604 37.919 57.746 47.495a3704 3704 0 0 1 110.293 97.148 5708 5708 0 0 1 52.762 50.209c8.421 8.226 16.646 16.941 25.123 25.076 5.686 5.457 16.55 10.067 22.341 15.547 19.377 18.335 38.749 36.712 58.212 54.952l133.778 124.539c10.4 9.588 61.02 60.265 70.4 62.199l.53-1.323c-5.87-11.193-93.27-88.998-107.13-101.951l-78.279-72.97c-20.896-19.787-43.361-42.093-65.068-60.781 67.178 16.813 78.924-28.371 93.266-26.477 11.648 12.917-4.115 83.715 67.101 72.694 33.9-5.246 32.62-6.653 61.16-23.822-.69 31.62 1.59 76.829 44.28 78.463 40.48 1.549 84.39-24.258 107.11-56.923 7.36-10.579 11.9-21.973 16.85-33.923 1.3 2.392 2.69 4.771 4.29 6.983 35.81 49.703 119.42 87.433 179.74 90.52 11.6.593 23.6.47 35.21.04 9.05-.335 22.3-2.863 30.89-.929 12.35 2.781 103.97 151.291 117.12 173.496-.16 18.704-5.07 227.957-6.57 230.421-5.76-12.237-6.11-65.729-12.7-77.525-2.87-1.993-4.34-2.417-6.95-.137-3.27 7.915 1.83 32.823 2.77 42.542-1.18-.72-11.06-19.26-12.75-22.245-11.12-19.603-64.72-84.478-89.47-77.927-12.91 10.401 17.47 46.068 24.97 55.878 26.71 34.948 51.52 66.318 72.58 105.194-10.37-9.812-22.6-24.814-32.54-35.576a225.4 225.4 0 0 0-78.7-55.074c-7.46-3.156-28.42-13.495-35.11-7.633-2.17 11.664 27.49 33.51 35.87 40.815 4.82 5.247 15.52 11.803 21.41 16.544 11.3 9.1 24.9 18.459 35.72 27.716-1.07.539-16.95.682-19.94.581-20.19-.68-66.95 6.578-77.17 26.688l.56 1.632c7.59 2.625 26.51-11.551 37.91-14.078 11.4-2.525 12.17-3.218 24.79-3.491a140.2 140.2 0 0 0-44.51 26.943c-23.73 21.157-34 46.397-35.82 77.557-12.97-2.42-63.03-2.04-77.92-2.15l-149.59-1.5-340.497-4.34c-4.964-.02-10.391-1.03-15.057-.99-39.726.27-81.326-1.32-120.992.16-24.105-39.4-59.238-56.94-100.769-71.859-2.086-6.39-5.316-8.306-10.364-12.467 18.135-29.387 37.437-36.283 67.055-52.411 3.371 15.496 4.541 61.97 9.599 74.006 3.209 2.676 9.473 3.674 13.54 4.322 11.005 1.754 63.094 5.425 70.018-.63 1.651-1.443 2.164-2.878 2.082-5.006-.148-3.828-3.942-7.968-6.562-10.516-10.041-9.764-22.713-9.97-35.841-9.851 4.07-26.604 8.179-57.392 13.203-83.321 33.688-.883 59.611-2.665 94.72-1.751-5.633 16.944-19.458 73.836-20.477 90.159-.302 4.849.033 10.224 2.249 14.636 1.777 3.54 5.309 5.693 8.975 6.905 5.699 1.883 55.716 2.933 60.255.41 1.676-.93 3.044-2.32 3.475-4.192.662-2.875-.55-5.315-1.993-7.735-6.072-10.182-14.243-14.134-25.209-16.78 9.066-17.181 16.193-30.097 27.084-46.225 5.767 19.307 14.008 42.058 23.344 59.867 6.835 13.04 38.832 10.203 51.738 10.346 7.716.086 26.333 2.163 27.211-8.045a15.72 15.72 0 0 0-3.499-11.399c-8.221-10.115-23.432-11.797-35.359-12.909-1.891-16.377-5.975-36.934-8.64-53.623-1.672-10.474-5.623-42.537-8.818-50.251 8.421-15.732 20.258-26.993 32.912-39.181 11.763 6.45 16.093 7.342 29.297 9.633 5.81 1.009 7.79.475 10.46 4.425 4.89-.541 5.35-4.175 9.28-4.409 19.37-.294 15.51-2.326 22.46-18.05 1.77-4.023 12.11-5.024 11.19-14.832.94-6.511-7.16-12.533-8.38-16.841-5.21-18.487-6.68-27.447-21.91-41.273-4.56-21.01-18.03-35.909-33.384-11.722-12.549-1.818-25.103-4.052-37.703-5.887-11.252-11.96-24.817-29.737-35.311-42.784l-65.329-82.12-134.912-169.056c-6.887-8.766-13.061-18.195-20.086-27.217a5209 5209 0 0 0-99.652-123.104 3031 3031 0 0 0-66.746-75.47c-8.331-9.091-18.311-19.551-26.964-28.505z"/><path d="M1164.4 650.443c-25.96-6.282-13.81-15.369-18.05-33.494-3.43-14.621-14.57-34.496 4.48-45.843 15.09-6.645 35.22-7.179 50.63-2.472 27.79 8.486 30.92 28.671 37.7 52.89 4.47 15.995 30.8 42.989 10.01 56.984 23.22 46.14 35.96 90.243 42.87 141.485.93 6.883 5.39 32.87 1.32 38.225-1.7.435-21.05 2.349-22.21 2.009-8.01-9.115-7.03-55.076-17.16-64.35-.83 5.853 9.56 72.351 11.54 81.245-5.65 1.746-8.12 2.432-13.93 3.252 8.27 30.768 23.82 84.552 28.77 114.807-8.97 3.255-47.31 21.409-52.04 11.839.4-6.32 14.97-20.205 19.96-26.047-11.73-22.711-25.63-43.64-36.86-66.568-3.02-6.164-7.34-27.403-9.68-30.236-3.96 2.854-23.13 105.495-26.67 116.121-2.81 8.43.73 9.87-13.9 9.62-9.63-.6-37.45 2.01-43.05-5.1 2.37-8.216 23.96-14.255 31.95-18.034-.72-36.598-2.18-67.719-1.72-104.843-4.2-3.784-9.52-.156-9.9-7.246-.29-5.277 1.2-3.477-1.28-7.879-6.3-2.526-11.32 4.967-13.98-5.696l-2.36-4.703c.27 5.231 1.17 10.025-3.57 13.459-3.07-2.787-3.25-9.776-3.44-13.8-2.08-44.98 10.64-149.011 41.54-182.545 3.68-3.996 7.96-7.351 12.33-10.543z"/><path fill="#333336" d="M1120.84 856.409c.11-3.615.02-7.378 1-10.836 1.54 4.87 1.29 10.385 1.36 15.539z"/><path fill="#fefefe" d="m1179.43 665.039.84.187c4.68 13.436 21.15 6.122 29.32.819 5.21 4.099 9.65 6.151 15.43 11.003 12.35 34.153 16.44 80.098 21.06 116.003 3.67 26.538 7.71 53.024 12.09 79.453-6.57.958-13.17 1.776-19.78 2.451-25.79 2.491-66.86 3.672-92.23-2.712-3.95-.996 2.99-19.512-4.59-26.653-.19-5.959 3.2-22.771 4.33-29.343 6.03-25.291 13.08-51.181 25.45-74.149 2.07-3.829 7.28-12.468 3.29-15.645l-2.13.896c-16.16 22.172-29.26 67.905-34.23 95.107l-16.83-2.274a464.4 464.4 0 0 1 17.14-98.717c4.64-16.253 12.09-35.647 25.33-47.155 2.68-2.327 12.01-7.325 15.51-9.271m-10.53-88.724c48.32-6.973 50.28 21.265 63.66 56.242 3.68 9.636 15.47 23.123 14.62 33.601-4.43 8.267-13.06 4.53-20.05 1.679-6.2-2.719-20.72-13.362-20.96-13.393-25.89-3.303-35.68-10.297-20.18-35.613 8.44-13.767-26.89-17.072-34.26-33.255.37-8.314 10.44-8.199 17.17-9.261m-14.58 305.366c10.41-.02 28.95 1.106 39.09 2.364-6 24.617-9.54 49.821-15.68 74.207-.97 5.399-2.73 11.558-4.12 16.935l-17.46-.612c.2-12.255-1.09-28.248-1.52-40.871a1308 1308 0 0 1-.31-52.023m79.33.737 11.47-.726c7.58 23.539 15.3 57.739 21.31 82.227-4.1 1.596-12.57 5.617-16.35 5.704l-.96-1.248c-17.12-28.71-35.23-51.466-38.36-84.476 7-.712 15.59-.924 22.89-1.481m-.2-203.65c2.67.108 4.12.42 6.71.916 16.34 12.615 36.92 92.985 40.9 116.402.7 4.094 3.28 15.568 2.41 19.14-4.92.405-10.2.587-15.16.849-4.84-17.844-12.52-30.647-17.82-46.86-4.11-12.589-4.72-34.187-7.53-48.263-2.84-14.305-6.68-28.163-9.51-42.184"/><path fill="#fefefe" d="M1158.55 603.47c3.63 1.762 22.63 7.389 20.18 12.835-4.05 9.023-6.54 13.381-7.12 23.701.06.883-.09.718-.63 1.744-5.52.555-9.13 1.036-13.91-1.931-3.97-6.429.26-27.762 1.48-36.349m123.64 219.159 1.86-.278c2.84 3.188 4.77 19.666 4.53 24.745-1.03-4.534-1.39-6.679-4.06-10.502l-3.95 2.78c-3.54-1.485-5.18-1.834-8.16.185l-.58-.847.79.173c-1.72-2.159-2.09-12.3-2.39-15.744 4.04-.025 7.92-.274 11.96-.512m-161.64 4.965c5.65.374 10.81.431 16.45.482-.97 4.281-1.68 10.341-2.35 14.805-15.07 3.389-14.85-4.093-14.1-15.287m146.39 143.477c2.61 2.482 3.07 8.919 3.89 13.12-3.72 1.24-8.7 3.431-12.44 4.944l-2.66-.479c-1.32-3.082-.91-9.554-.89-13.233 3.97-1.494 8.1-2.915 12.1-4.352m-109.64 9.858c4.4.885 10.62.788 15.25.878-1.48 4.612-2.86 10.061-4.18 14.788-13.24 4.355-12.83-6.88-11.07-15.666m29.44-323.418c4.93 1.534 13.96 1.117 16.7 3.855l-2.12 2.901c-5.26 1.904-8.46 3.792-13.53 1.007-1.74-2.873-1.31-4.477-1.05-7.763"/><path d="M1040.74 498.77c4.7.039 8.47 3.895 8.4 8.593-.06 4.698-3.94 8.445-8.64 8.353a8.467 8.467 0 0 1-8.3-8.592c.06-4.661 3.88-8.394 8.54-8.354m194.35 14.139a4.5 4.5 0 0 1 6.11 1.845c1.18 2.2.34 4.936-1.86 6.104a4.51 4.51 0 0 1-6.09-1.86 4.51 4.51 0 0 1 1.84-6.089"/><path fill="#fefefe" d="M623.21 410.464c7.153 4.253 13.347 12.793 22.613 17.169 26.701 12.611 43.692 13.902 58.79-13.063 4.369 7.125 20.648 26.618 26.638 34.118l52.488 65.788 159.709 200.601c-11.231-.333-27.071-1.163-37.78.367-24.46 3.495-46.13 8.924-71.154 9.825-39.277 1.414-82.393-3.723-121.033-1.954-65.609 2.982-108.919 53.966-131.181 111.551-11.937 30.873-22.611 67.657-52.631 85.825-6.943 4.202-16.989 7.607-22.269 13.856-7.149 8.461.059 25.181 12.391 21.759 61.311-16.478 69.836-91.762 102.81-137.174-4.017 19.543-6.165 30.676-13.247 49.513-9.755 25.946-44.024 75.704-39.22 102.705l.092.494-1.296 2.561c-4.525 1.207-16.464 1.031-21.013 1.147-43.355 1.105-76.786 9.066-111.75 35.838 16.927-32.803 40.513-72.86 62.156-103.084a367 367 0 0 1 18.499-23.468c4.104-4.709 13.814-12.328 11.928-18.535-1.1-.713-2.737-2.096-3.85-1.341-25.06 16.991-55.225 67.272-69.02 90.642l-.703-.202c1.22-6.265 12.181-27.918 15.572-34.851 7.34-17.837 52.428-100.37 51.516-111.171-.233-2.763-1.436-4.258-3.517-5.943-26.434-9.73-86.085 99.255-91.524 123.351-2.31 10.232-7.002 21.421-9.754 31.782-2.537 9.554-4.225 23.038-8.22 31.714l-1.862-.751c-3.564-5.747 5.136-32.602 7.069-41.156 13.624-57.96 32.486-117.076 61.226-169.544 22.223-40.571 51.827-81.008 76.093-120.544 3.832-6.243 7.121-14.829 1.212-20.624-1.983-.852-3.589-1.209-5.735-.703-24.416 5.755-96.715 123.398-109.449 150.17-6.767 14.228-11.977 29.624-17.647 44.322-2.577 6.682-4.722 14.05-8.649 20.059l-.532.805c3.096-14.762 22.789-86.125 20.938-93.207-3.149-1.681-1.808-1.436-5.123-1.231-6.967 5.991-22.248 79.451-24.429 93.354-1.771 11.285-8.399 69.419-11.876 75.317-1.257-6.349-1.165-17.605-1.634-24.451-2.833-41.31-2.601-82.769-5.46-124.102-.478-6.904-.978-19.418.7-26.047 3.132-12.377 8.992-25.035 13.204-37.129 14.269-36.64 29.691-72.779 45.452-108.786 7.85-17.72 17.228-39.384 26.443-56.167 18.005-1.302 29.049-6.217 45.263-14.163A217.82 217.82 0 0 0 623.21 410.464"/><path d="M660.832 479.695a7.85 7.85 0 1 1 5.702 14.626 7.85 7.85 0 0 1-5.702-14.626"/><path fill="#fefefe" d="M1004.34 720.475c1.65.383 5.02 1.923 6.73 2.641 3.97 3.575 3 12.526 5.43 17.458 1.58 3.204 4.3 3.573 5.2 6.268-2.34.659-3.34.72-5.77.96-4.06 8.272 4.19 21.512 11.58 25.691 3.62-.026 3.08-.407 6.6-2.509 2.51 3.961 6.98 14.061 8.25 18.508-2.01 4.756-12.38 7.261-17.26 9.543-11.68 5.472-16.69 6.961-23.72 18.224 3.59-23.838 3.72-18.52 14.69-36.799l-.59-1.128c-19.718 3.631-20.237 30.659-22.986 33.211-7.528 2.034-17.435-8.774-20.767-14.844-.043-16.735 1.873-22.039 5.897-38.015-9.098 13.986-16.554 29.039-10.221 45.773-28.859 23.666-42.765 49.7-65.36 79.348-.533-18.79-.754-24.817-6.031-42.699-.162 12.778.604 36.35 2.454 48.574l-7.535 9.259c-7.011-6.668-21.04-17.78-29.884-21.537l-.427.77c4.182 5.993 20.17 20.706 26.713 28.32-4.218 6.554-8.27 12.775-12.088 19.575-7.229-12.36-13.889-17.406-26.078-23.809 5.449 9.033 27.966 25.553 19.44 34.41-3.683-.87-22.571-9.745-30.386-12.405 6.361-27.571 21.263-75.716 20.727-101.446-11.792 18.235-11.446 30.482-18.865 48.859-3.874-.195-10.52-.04-13.23-2.639-4.231-13.616 1.139-52.348 1.777-69.149-7.754 21.111-13.879 49.023-6.767 70.933-6.622.11-24.597.935-30.47-.865-4.583-7.619-1.61-38.708-1.151-48.397-6.005 15.474-10.228 33.527-5.301 49.775-13.812-.594-41.508 1.781-56.211 2.551 24.352-32.18 26.016-48.71 25.251-89.874-9.2 25.404-10.562 50.828-27.058 73.491-11.096 15.243-19.443 21.934-33.788 33.589 5.406-23.333 7.58-41.639 14.121-66.802-14.279 25.505-19.195 41.479-19.49 70.682-.112.175-7.171 4.254-7.888 4.672-9.563-11.238-11.925-17.112-23.993-26.784 3.143 8.042 12.547 22.898 17.247 30.871l-1.481 1.659c-3.546 1.479-7.349 3.316-10.873 4.93-4.659-13.204-22.57-38.262-33.405-48.226 2.641 6.634 8.495 15.595 12.05 22.153 5.359 9.886 10.514 19.698 15.697 29.68-4.288 2.129-8.546 4.54-12.748 6.852-8.711-15.748-12.487-24.09-26.486-35.518 4.416 7.723 18.013 31.762 19.654 39.203-1.12 2.535-5.227 4.869-7.822 6.751-7.087-15.196-11.171-18.722-23.892-29.393 1.508-3.25 3.805-8.027 5.634-11.054 21.934-36.299 19.876-79.832 37.997-117.523 4.109-8.547 9.22-16.744 13.991-24.991 7.419-4.234 12.687-5.846 20.775-8.636-12.36 25.982-14.635 54.702-14.661 83.174 1.407-3.991 2.447-8.226 3.472-12.335 6.485-25.983 15.15-51.831 29.101-74.941 7.268-1.94 17.989-2.46 25.523-2.289-12.204 29.988-14.376 45.907-10.192 77.824 4.132-31.539 8.331-48.165 21.178-77.736 8.285 1.15 30.589 1.18 39.946 1.404-8.466 22.292-14.524 60.47-13.323 83.994 6.153-28.021 16.946-56.098 26.616-83.192 9.59-.032 18.278.671 27.807 1.394-9.424 23.56-15.069 44.974-13.135 70.473 1.751-13.853 14.084-57.675 20.716-68.569 3.979-3.489 21.85-3.433 29.33-4.481-5.46 23.143-5.915 37.43-3.032 61.266 3.561-19.055 11.425-43.847 17.001-62.481 9.521-2.093 16.061-3.264 25.161-6.807a194.6 194.6 0 0 0-11.12 61.565c-.026 2.532.008 4.364 1.652 5.998l1.474-1.311c-.919-8.83 18.018-56.268 22.667-67.556q12.39.07 24.778-.151c-8.989 18.576-11.494 27.327-13.629 47.415 7.478-17.455 14.833-30.549 26.596-45.745 11.53.624 28.327 2.001 39.647 4.416 2.966.632 3.643 3.895 8.077 5.242 2.855-1.369 6.637-12.391 10.467-16.713"/><path d="M946.602 764.8c1.138 17.479-4.811 37.377-9.384 54.165-4.696-11.483 4.155-43.181 9.384-54.165m58.608-40.506 2.39.754c4.73 4.547 5.49 16.78 1.39 21.943-8.05-5.857-9.505-14.577-3.78-22.697m-1.23 28.205 2.19 1.36c1.3 5.194-7.858 14.555-10.946 24.157-.792-.346-1.779-1.272-2.496-1.861-3.275-8.343 5.694-18.415 11.252-23.656m14.82 32.985 1.76 1.197c.16 3.295-3.25 7.861-5.16 11.587-1.47-1.216-1.46-1.577-2.24-3.301.25-3.457 3.4-6.646 5.64-9.483"/><path fill="#fefefe" d="M1695.26 390.292c.93-.161 1.99.108 2.98.257 2.85 4.816 5.45 376.062 6.13 416.865q.765 40.752 2.13 81.488c.39 10.009 1.15 22.371 1.52 32.404.13 3.443-20.27 1.389-25.22 1.83-21.27 1.896-36.23 8.852-54.56 18.859 2.34-23.067 1.7-43.879 2.48-66.812 2.01-58.914 1.82-118.795 3.95-177.668-4.36-5.66-13.1-21.814-17.42-29.045a1282 1282 0 0 0-35.13-56.231c-5.05-6.799-9.7-13.755-14.38-20.719-30.6-45.501-63.94-88.183-100.55-128.966-10.67-11.897-19.91-24.819-31.1-36.868 9.47-4.026 19.23-8.606 28.66-12.852 4.1 6.78 12.46 16.469 17.76 23.062l32.16 40.151c29.55 37.435 57.39 77.271 86.54 115.115 5.77 7.493 26.5 41.582 33.56 43.351 3.27-.621 3.03-.02 4.85-1.978 2.43-15.165-1.71-56.227-2.24-74.257-1.52-51.369-3.13-103.48-6.55-154.716 23.42-6.299 40.4-9.239 64.43-13.27m-1149.167-5.895.875.712c-2.201 5.624-13.549 23.589-17.344 29.919-12.939 21.583-26.526 42.721-38.852 64.758-40.788 72.925-74.58 151.602-105.147 229.309-2.161 5.493-14.792 38.403-14.949 43.009-.511 15.007.719 38.883 1.372 54.496l3.564 87.256c.802 19.059 2.252 44.301 1.506 62.936-18.77-15.403-32.419-24.991-56.557-29.812-1.97-64.955-1.587-129.938-6.3-194.866-.705-9.713-.533-20.881-1.74-30.352.495-18.205-1.833-39.301-2.791-57.852l-5.544-109.466-2.919-55.876c-.548-10.684-.884-29.388-3.499-38.862 5.782-6.259 30.559-26.203 37.725-29.835 4.585 3.757 15.741 212.352 21.063 240.492.502 2.654 1.514 4.461 3.732 6.012 3.171 1.059 3.813.799 7.123.079.187-.171 1.804-1.662 1.805-1.664 23.948-81.33 74.834-154.061 116.921-226.631 3.077-5.307 53.863-41.913 59.956-43.762m350.009-245.924c8.243-1.84 51.826 2.349 62.617 2.61 17.046.412 44.411 10.621 62.371 13.717 9.38 1.619 24.09 8.378 33.03 12.405 24.98 11.593 96.23 66.279 108.64 87.44a746.3 746.3 0 0 0-144.18-55.783 386 386 0 0 0-29.431-6.925c-8.791-1.671-18.801-2.736-26.986-5.807-4.108-1.742-6.078-.654-9.894-1.403-77.819-15.283-153.81 1.976-225.532 32.94-8.006 3.456-15.311 8.334-23.626 10.962l-1.05.322c-6.872-7.187-12.871-15.39-18.342-23.671 7.951-6.963 18.325-11.944 27.063-17.417 17.726-11.101 30.901-16.476 50.615-22.892 11.485-3.694 23.424-10.11 35.12-12.913 20.746-4.973 43.017-7.314 64.016-11.639 10.182-2.097 24.861-1.334 35.569-1.946"/><path fill="#fefefe" d="M1560.81 399.057c4.3 3.661-5.61 22.266 20.66 17.818 11.49-1.943 24.45-6.005 35.64-8.078 2.52 7.348 2.64 37.747 3 46.751 1.42 29.524 2.53 59.062 3.35 88.609.59 17.925.77 39.918 2.33 57.548-4.54-5.656-7.71-10.106-11.77-16.124-14.72-20.369-29.63-39.557-44.86-59.484-17.91-23.453-35.28-50.037-55.3-71.73 3.08-12.273 10.32-30.357 10.65-42.265 12.04-3.543 24.59-8.433 36.3-13.045m-174.12 10.733c.96.811 6.05 13.774 9.68 16.424 7.13 5.199 18.77 4.064 26.44 3.696l71.16 83.475c-4.66 6.355-56.93 2.426-67.14 1.39-3.48-1.085-8.97-2.11-12.69-2.836-38.32-7.477-69.66-23.754-103.05-43.035 35.33-15.202 54.28-24.657 75.6-59.114m328.48-21.348c19.1-.789 35.74-2.511 53.43 5.312-3.82 11.369-10.16 22.177-12.7 34.11-5.36 25.216-4.95 46.174 17.32 62.567-11.21 24.791-26.33 49.616-37.48 74.673-2.17 3.662-18.03 31.35-19.28 32.336.34-8.061-1.61-9.875-1.59-14.85.28-63.957-1.73-128.325-2.75-192.136-.02-1.07 1.8-1.486 3.05-2.012M351.791 440.62c1.424 2.073 3.613 6.954 4.818 9.419 11.826 24.18 30.862 42.91 57.264 50.102 3.966 1.08 9.056.779 11.578 3.582-14.103 25.671-27.229 49.041-40.417 75.301-2.782 5.961-14.455 35.861-17.89 37.321-1.797-4.882-16.289-171.648-15.353-175.725m580.832 482.733c4.383-.452 3.059-.897 6.25.793 2.304 3.771 2.424 9.884 2.882 14.457-7.148.653-15.21.85-21.363 4.611l.532 1.265c7.64 2.118 13.648.866 21.569.11 1.479 6.669 2.739 16.396 7.363 21.312 4.24 4.508 8.998 2.537 14.803 2.583 9.013.072 14.589 4.481 20.672 10.554-7.461 2.439-48.83 1.24-57.463-.529-8.948-9.152-18.83-39.127-23.531-52.584 10.177-1.115 17.232-.841 28.286-2.572m-330.088-18.628c8.549 8.322 15.295 20.83 20.681 31.264-6.681 6.347-20.656 23.554-23.932 32.281-2.783 7.415 9.057 4.872 13.39 12.452-5.565-.279-28.289-1.438-30.944-3.417-13.647-10.173 16.387-64.241 20.805-72.58m118.666 28.942c.937.15 2.333.564 3.295.813-.005 3.43.285 6.484-1.298 9.539-7.608 4.055-24.032 3.306-28.584 10.035l1.247 1.183c4.419 1.33 20.99-2.618 26.378-3.645-5.333 37.782 10.146 18.476 34.894 30.83l2.699 2.918-.856.51c-10.87.4-57.346 1.53-63.996-3.255-2.265-10.206-4.066-35.654-5.159-47.139 10.36-1.8 20.902-1.776 31.38-1.789M503.584 483.558c15.676 11.405 30.541 12.618 49.009 9.813-14.933 13.596-23.234 20.181-40.989 29.329-14.539 7.691-20.714 9.862-36.612 14.509 6.936-16.225 20.208-36.952 28.592-53.651m333.807 444.698c8.735 3.884 19.4 11.663 26.694 17.728-3.829 6.34-13.35 19.325-10.814 26.482 6.385 5.231 20.377-.565 28.1 13.737l.406.77c-62.498-4.868-61.955 14.217-44.386-58.717m92.21-63.496c2.214 2.353 4.581 24.945 5.233 29.825-6.473 2.101-25.039 6.474-26.075 14.079l-.456-1.001-.374.955c5.643.814 20.64-9.442 28.015-4.207 1.929 2.788 1.312 6.827 1.198 10.345-9.346 1.319-24.893 3.207-32.657 7.977l-1.738-1.026c-1.994-3.255-2.514-7.922-3.206-11.757 6.617-12.667 21.522-32.611 30.06-45.19m606.549-490.543 1.24.35c1.14 15.035-52.58 24.477-45.38 38.764 5.44 4.189 12.67 3.416 19.33 3.228 1.88 3.696-4.25 20.964-6.31 24.683l-1.76-.423c-9.43-10.366-19.64-22.944-28.59-33.851 16.11-8.277 45.93-29.827 61.47-32.751m-813.416 510.7c2.944-.057 4.656-.343 7.37.806 2.882 4.46-.582 15.972-1.365 23.291-11.989-.201-20.556 1.386-32.347 3.429-3.849.932-4.616 1.816-7.867.688l-.278-1.621c3.471-5.03 29.115-24.688 34.487-26.593M1784.41 495.395c7.59.878 24.44 7.432 25.63 16.064-2.97 4.7-8.98 3.346-14.23 5.233-8.36 2.132-15.1 3.992-23.27 6.722 2.24-7.13 8.61-19.829 11.87-28.019M718.536 915.524c8.399-2.441 11.3 3.263 7.993 10.677-3.06 1.936-19.615 1.24-27.963 2.509-2.707.339-6.976 1.325-9.782 1.89-.469-3.912-.721-8.511-1.035-12.495 9.77-1.256 20.878-1.875 30.787-2.581M638.425 765.95c.333 2.279-1.579 5.671-2.331 8.158-5.372 17.76-13.66 27.163-23.526 42.139-1.954-21.582 9.69-37.5 25.857-50.297m874.055-499.614c5.48.181 12.14-.68 12.98 5.998-2.6 4.721-7.29 5.994-12.22 7.964-5.43 1.991-9.08 1.334-11.75-3.766-.25-7.581 4.85-8.781 10.99-10.196M557.691 907.737c7.491 7.75-8.802 20.67-13.758 25.592-.427-.21-1.065-.945-1.45-1.332l.472-10.03c6.407-5.393 9.303-7.917 14.736-14.23m39.082-82.745c.55 4.231 1.746 9.056 2.683 13.282-2.428 5.575-5.406 13.284-8.916 18.022l-1.987-12.363c2.025-6.502 5.273-12.778 8.22-18.941M522.721 933.87l1.404.188c2.069 6.316 4.321 5.175 3.372 11.67-3 2.68-3.748 2.098-8.27 3.078-4.508.002-5.574-1.149-6.144-5.069 2.017-6.036 4.314-7.038 9.638-9.867M1038.1 797.452c.98 12.684-7.58 14.264-17.75 14.085l-1.5-1.625c2.08-4.668 14.34-9.986 19.25-12.46M365.488 239.636c5.363-.04 7.6 1.124 8.212 6.261-1.083 3.743-2.412 4.494-5.329 6.931-2.833.199-3.184.085-5.839-.946-4.387-5.25-1.845-8.547 2.956-12.246m688.832 31.336c5.22-.387 7.03-1.105 9.36 3.902-.03 3.851-1.83 6.353-3.72 9.732-5.54-.872-6.59-.673-8.72-6 .2-3.821.97-4.597 3.08-7.634m813.33 234.59 3.4 2.007c2.96 6.537-4.5 9.468-9.57 12.382-1.54-.952-2.3-1.788-3.64-3.005-1.58-6.439 4.8-8.971 9.81-11.384M575.623 875.695c6.161 5.917-1.993 16.813-5.533 22.289l-.705-.122c-.492-8.927 2.628-13.989 6.238-22.167"/><path d="M231.502 595.545c6.54-.928 11.909 3.721 10.923 10.688-1.56 3.357-2.958 3.9-6.039 5.789-5.108.506-9.641.507-12.033-4.95a6.87 6.87 0 0 1 .093-5.71c1.411-2.895 4.156-4.697 7.056-5.817"/></svg>