<svg xmlns="http://www.w3.org/2000/svg" preserveAspectRatio="none" style="display:block" viewBox="0 0 2048 1462"><path fill="#fefefe" d="M0 0h2048v1462H0z"/><path d="M1405.96 45.553c3.87.701 18.52.265 23.21.27l48.12.213c78.45-.105 156.9.547 235.34 1.953 26.88.51 53.6 1.093 80.42 3.12 10.04.758 41.61-3.927 42.99 10.747-5.26 8.908-27.34 5.269-36.41 5.15q-37.74-.73-75.45-2.475c1.06 6.974 1.09 26.484 1.28 34.222l1.62 75.379 6.68 234.066 18.28 573.669 3.48 200.533c.36 29.02-.34 59.86.77 88.62 17.17.35 105.06-1.99 110.81 8.68.04 2.49-.3 4.89-2.36 6.4-10.06 7.39-40.79 3.78-52.53 3.62l-94.55-1.13c-38.68-.09-77.37-.54-116.05-1.37-20.14-.24-46.12.34-65.74-1.18 16.49 11.26 26.18 19.59 44.2 30.25.62 11.78 4.7 60.64-1.76 71.6-2.02 1.88-8.87 2.71-11.52 2.64-143.61-4.18-287.38 2.95-430.79 3.11l-486.75-2.51c-16.571.79-33.475.46-50.287 1.11-21.286.81-42.376 1.73-63.746.27-13.016-.89-11.786-18.12-12.883-27.76.117-11.77-5.325-46.31 5.878-53.69 13.348-8.79 33.518-18.23 48.264-28.04-24.822.02-52.904 1.58-78.313 2.05a4819 4819 0 0 1-207.896-.26c-9.349-.31-20.456-.23-29.74-1.5-3.236-.44-5.019-3.78-5.78-6.79.351-4.55 3.216-8.61 8.117-8.7 29.307-.55 59.174 2.43 88.451.03l7.797-8.58c-.079-51.45-5.083-102.74-5.002-154.21.544-345.562 8.861-693.023-10.636-1038.056l-83.217.146c-9.115.046-42.08 4.745-42.914-6.205-1.267-16.63 33.584-9.66 44.063-10.042 75.472-2.754 151.498-.144 227.03-.081l563.464-2.323 219.69-1.19 72.67-.772c19-.096 42.87.31 61.7-.984"/><path fill="#fefefe" d="M1609.55 114.496c13.44-.222 40.39-1.634 52.41.556-1.01 7.957.32 30.295.78 39.353l3.27 63.675c3.48 66.555 6.1 133.152 7.86 199.775a31282 31282 0 0 1 16.59 846.645c-5.02-.15-10.19-.06-15.21.04-62.9 1.18-125.63-.05-188.52-.54-22.06-.34-46.15.59-67.84-1.36.59-21.7-1.83-58.12-2.47-81.36-1.99-61.69-3.62-123.39-4.91-185.089l-7.86-354.227c-4.37-126.6-7.09-253.253-8.15-379.925-.15-17.778-3.61-130.404-.26-140.661 10.89-3.715 191.53-6.569 214.31-6.882"/><path d="M1441.14 610.104c49.52.292 98.99 1.853 148.5 2.54 16.28.226 40.78-4.023 52.83 7.571 1.89 14.65 1.76 34.792 2.09 50.13l1.44 78.007 2.81 175.563c1.31 69.523 2.24 139.055 2.79 208.585l.45 62.16c.08 9.6.36 19.41.36 29.02 0 2.89-2.25 4.58-4.36 6.47-6.18 2.29-11.73 2.75-18.26 2.75-55.68.01-111.52 1.01-167.14-1.56-3.3-.15-8.7-.89-11.27-3-3.68-7.3-2.32-53.81-2.38-65.29l-1.33-97.41c-1.45-105.817-6.32-214.002-9.06-320.058l-2.57-80.242c-.47-14.522-1.24-29.521-.75-44.029.2-5.913 1.45-7.357 5.85-11.207"/><path fill="#fefefe" d="M1452.1 627.252c56.49 2.003 117.35.761 174.18 1.785 1.33 12.019 1.01 35.502 1.32 48.909l2.24 115.088c1.59 73.195 2.69 146.4 3.3 219.606.87 60.1 2.7 124.67 1.99 184.61l-.05 18.47c-11.16 1.52-31.8 1.22-43.45 1.26-24.24.13-48.49.01-72.73-.34-9.79-.16-41.46-.09-49.97-1.8-4.26-4.93-3.02-80.04-3.12-91.05-2.3-119.83-5.28-239.654-8.96-359.454-1.26-42.589-4.94-95.545-4.75-137.084"/><path d="M1556.14 148.586c10.77.338 53.29-2.398 66.28 1.131 4.3 1.169 5.95 7.968 6.03 13.515.91 61.016 5.45 125.016 7.52 185.71 1.54 49.25 2.6 98.513 3.17 147.783.38 18.021 5.48 69.512-.91 81.624-6.98 5.447-44.84 3.686-55.7 3.649l-78.78-.083c-18.01.03-50.57 2.066-66.01-3.226-9.87-3.384-5.74-65.16-5.26-75.263 4.95-104.991-3.43-210.111-7.63-314.995-.34-8.428-1.74-25.378 1.26-33.844 4.52-7.082 38.53-2.943 46.5-4.387 27.91-.819 55.74-.514 83.53-1.614"/><path fill="#fefefe" d="M1577.05 164.461c8.57.476 24.94-.491 34.64-.502l9.32 278.367a6425 6425 0 0 1 2.31 80.937c.38 13.234 1.67 30.135.98 42.886-6.88-.507-14.5-.538-21.41-.573-40.27-.203-81.21-1.703-121.46-.565-2.37-.575-27.7-.594-32.02-.659-2.86-34.597 2.89-87.755 2.31-125.354a6642 6642 0 0 0-5.55-162.124c-.49-12.121-5.68-103.691-3.93-108.587 3.41-2.76 44.95-1.948 52.05-2.03 27.59-.397 55.18-.995 82.76-1.796"/><path d="M1517.26 275.73c2.55 1.17 3.68 2.082 5.98 3.718.69 1.421 1.68 2.801 1.31 4.148-4.13 15.167-42.52 59.79-52.59 67.534-5.64-2.897-8.33-5.672-7.39-12.262 3.82-6.949 17.24-21.974 22.7-28.597 6.72-8.134 21.79-29.918 29.99-34.541m-4.96 57.324c9.66 4.052 8.72 10.67 2.38 17.371-11.97 12.655-23.77 31.421-38.02 41.299-3.42-1.456-6.01-2.002-8.03-5.029-.16-1.27-.74-3.711-.05-4.712 9.19-13.229 30.21-42.09 43.72-48.929"/><path fill="#fefefe" d="M590.355 124.5c2.281.497 24.302.316 27.878.3 18.186-.077 36.475.434 54.635.185a9511 9511 0 0 1 3.517 208.921l3.917 279.183 1.544 105.408c.237 18.48.241 37.017.891 55.481.514 14.602 5.161 11.999 14.738 16.215 1.029 1.251 2.44 3.345 2.485 4.9.435 14.804.755 32.408.987 47.021.33 20.686-2.748 10.605-13.585 19.417-1.367 1.111-2.597 4.808-2.612 6.925-.137 19.344.297 38.781.806 58.11l1.922 82.424c1.282 83.78 3.087 167.54 5.415 251.29-10.866 1.34-169.404 3.48-176.124 1.63-8.248 1.56-86.887.44-93.859-1.76-3.899-9.12-4.188-126.61-4.533-145.59l-7.39-639.602-3.055-234.788c-.436-37.434-2.139-77.562-.836-114.754 15.499-.846 30.975.134 46.566.112l90.014-.428c13.232-.031 34.172.506 46.679-.6"/><path d="M459.322 609.576c23.35-1.824 51.329 1.053 75.147 2.589 35.028 2.259 77.724-5.758 111.308.388.57 4.945.569 9.96.77 14.93 1.44 35.658 1.565 71.353 2.911 107.014a11296 11296 0 0 1 8.425 334.563c.7 34.55 1.207 69.12 1.523 103.68.124 11.68 1.139 39.91-.624 50.41-3.472 3.27-6.77 5.46-10.656 8.2l-25.875-.26c-41.272 1.72-84.494-.01-125.912.4-11.632.12-33.748.82-42.903-6.3-2.109-13.31-1.531-36.49-1.572-50.67.041-29.12-.143-58.23-.554-87.35a18357 18357 0 0 1-6.631-325.73q-1.08-46.635-1.52-93.28c-.166-12.574-1.262-41.1 1.022-52.409 4.566-4.282 9.203-5.227 15.141-6.175"/><path fill="#fefefe" d="M460.267 624.824c9.918 1.381 20.805.29 30.571 1.469 46.691 5.637 92.242.234 138.944.374l10.526 464.023c.568 29.51 2.695 91.47 1.647 122.62-.031.93-3.945 1.57-5.465 1.96-6.541-1.43-42.516-.02-51.679-.03-38.217.15-76.434-.32-114.636-1.41-.463-6.93-.549-14.79-.516-21.79.387-79.71-1.711-159.31-3.622-238.988l-3.734-219.602c-.513-30.736-3.573-79.416-2.036-108.626"/><path d="M444.966 158.001c7.698-.309 16.599.026 24.357.35 52.428 2.187 104.833-.329 157.132-.495 3.476 2.203 5.236 3.816 8.267 6.483 1.775 22.635 1.446 48.932 1.785 71.948l2.073 101.359 3.191 157.123c.596 25.807 1.324 51.606 2.128 77.404.373 11.969-4.605 11.995-14.648 12.285-55.203 2.936-115.986-1.106-171.556-2.25-2.522-.052-14.81-3.457-15.342-6.086-6.637-32.803-.961-68.589-.517-101.969 3.105-59.875-2.04-119.327-3.042-179.234-.718-42.931-7.138-86.801-1.644-129.594.503-3.92 4.71-5.602 7.816-7.324"/><path fill="#fefefe" d="M453.406 174.78c20.592 1.998 42.209 1.428 62.94 1.355q50.701-.06 101.385-1.419L623.719 440c.296 12.939 4.06 121.749 2.08 126.755-2.44 1.845-6.29 1.301-9.551 1.271-51.256-1.715-108.589 1.571-159.118-1.729-3.467-40.909 2.861-98.703 2.207-142.05a10227 10227 0 0 0-3.23-127.733c-1.738-42.038-4.72-79.438-2.701-121.734"/><path d="M581.306 291.754c5.093.2 10.121 3.13 10.228 8.618-5.992 12.298-84.236 97.692-97.451 109.601-3.782.507-4.644.417-7.801-1.574-2.072-3.144-2.299-2.932-1.811-7.374.191-1.742 2.448-5.099 3.642-6.377 7.625-8.16 20.591-23.607 27.876-31.038 11.818-12.054 55.908-65.968 65.317-71.856"/><path fill="#fefefe" d="M973.041 176.443q13.48-.228 26.959-.301c1.32 18.693.58 38.273 1.07 57.073.67 25.85 1.01 51.327.97 77.193-7.749 6.752-9.745 10.711-14.755 19.547-12.086-.376-23.215-.724-34.197 5.437-41.531 23.302-37.285 95.592-9.201 127.199-1.715 12.552-10.33 38.938-16.285 50.136-82.752 13.864-111.276 117.051-118.315 187.582-1.468 11.874-1.481 36.419-4.248 47.184-6.282 6.79-11.33 14.19-17 21.472-5.745 7.378-10.552 13.316-3.822 22.175 1.848 2.433 10.758 9.732 10.733 11.808-.166 13.969 2.033 19.129 11.105 30.201 1.146 48.002-2.577 97.619-.622 145.843.225 5.529 5.25 12.636 5.83 18.443.986 9.855.748 19.805.814 29.705.069 15.18.31 30.37.722 45.55.497 19.32 9.725 183.37 6.91 187.17-20.322.94-44.826.33-65.286.13-1.604-32.13-1.561-66.12-2.173-98.42l-3.307-142.72-10.308-396.849a14513 14513 0 0 1-4.745-321c-.315-39.13-3.059-82.776-1.737-121.352 18.054-.891 41.193-.297 59.851-.49l118.676-1.964c21.165-.343 40.944.175 62.361-.752"/><path d="M811.776 253.005c10.935.543 18.045 5.219 20.808 16.311 4.689 19.519-5.304 38.664-13.842 55.403-10.318 20.228-26.267 10.696-41.183 1.021-11.188-8.657-22.349-17.934-26.306-32.276-3.422-12.407.672-29.826 15.498-32.361 10.316-1.764 16.813 2.125 24.964 7.879 6.662-9.248 9.417-12.058 20.061-15.977"/><path fill="#fefefe" d="M812.752 269.421c12.576 6.075-5.473 42.238-9.409 51.865-9.947-3.786-21.646-13.054-29.214-20.432-4.213-5.916-13.336-18.731-4.921-24.627 9.214-.275 17.426 12.74 26.725 16.554l1.663-.379c5.606-9.847 6.027-15.776 15.156-22.981"/><path d="M800.344 424.699c25.306-.317 18.927 63.351 9.203 68.749-9.947 1.893-20.063-5.684-28.584-10.79l-.532-.371c-35.646-25.36-17.88-53.933 8.954-31.019.902-12.543-.193-18.957 10.959-26.569m53.072-58.969c9.548 2.049 12.937 9.591 15.63 17.872 4.773-5.612 13.261-15.292 21.409-12.77 9.995 8.198-.731 26.472-5.537 35.088-8.296 12.341-9.312 18.927-25.108 14.086q-.466-.705-.898-1.432c-6.631-10.918-16.889-30.953-13.483-44.264 1.254-4.903 3.952-6.171 7.987-8.58"/><path fill="#fefefe" d="m1332.82 1318.53 161.77.38c14.01.12 56.72-.56 66.81 2.06 4.27 5.51 3.36 44.42 3.46 53.63-20.78-.99-42.61-.51-63.58-1.03-100.35-2.48-200.47 1.34-300.83 3.09-91.55.99-183.11.88-274.661-.31a9105 9105 0 0 1-155.038-1.28c-14.993.38-31.336-.25-46.477-.25l-92.218.64c-29.404.31-61.984 2.86-90.984 2-3.322-18.7-3.538-36.49-3.227-55.43 21-.9 42.556-.48 63.627-.66l152.758-.36c143.617.42 287.24.01 430.85-1.25 48.4-.45 99.6.23 147.74-1.23m-163.06-410.149c3.29-.416 1.91-.809 4.38.519 21.28 35.427 34.86 58.563 48.1 99.32 26.9 82.88 46.2 167.24 66.67 251.84-10.52.95-26.55.31-37.75.23-19.66-.24-39.32-.07-58.97.49-19.11-.45-38.24-.66-57.37-.61-18.05.17-37.75 1.05-55.56-.12.42-87.05-.17-174.1-1.78-261.136 1.2-1.522 3.71-4.705 4.15-6.543 3.33-13.964 1-69.702 4.87-79.973 5.92-1.08 25.02-.615 32.24-.807a848 848 0 0 0 51.02-3.21M920.588 531.114l1.934.567.328 1.327c3.476 13.921 6.503 12.102 19.55 11.689 52.044-1.647 89.29 66.817 113.08 103.858 33.53 52.231 64.82 103.908 113.66 142.85 9.43 7.523 18.47 15.269 28.68 21.365-3.94 11.601-14.01 31.109-16.18 41.748-16.94-4.227-25.75-4.707-43.76-11.017-67.01-23.474-122.71-70.503-165.638-125.988-9.587-12.182-19.209-28.206-27.334-40.254-8.274-12.271-36.81-72.846-44.493-78.119-3.202-.772-3.595-.805-6.726.192-9.336 8.653 4.362 24.209 9.219 33.57 16.826 32.427 36.535 70.269 60.722 97.789-15.008 16.193-47.92 33.82-67.784 43.91-34.17 17.358-38.272 18.072-59.212-11.929-3.466-1.819-15.201-3.925-15.238-7.74-.649-67.649 19.803-204.478 99.192-223.818"/><path fill="#fefefe" d="M1288.31 116.561c22.8.226 45.61-1.196 68.86-.075 1.31 12.696.97 29.468.69 42.203-30.04.711-60.76-.276-90.69.996-61.8 2.626-123.16.123-184.9.157a19702 19702 0 0 0-263.517 3.203c-30.793.515-61.582.282-92.376.457-6.649.037-11.97.251-12.097 8.721-.144 9.602.274 19.297.503 28.903l1.364 58.633 3.487 187.142 16.37 732.849c.176 26.04 2.459 54.42 1.652 80.15l-13.533-.12A60537 60537 0 0 1 700.7 121.744c70.724-1.061 144.407.258 215.502-.065a16175 16175 0 0 0 372.108-5.118"/><path fill="#fefefe" d="M1020.56 791.196c2.58 1.562 12.11 9.734 15.24 12.223 13.32 10.59 23.92 19.174 39.15 26.669-5.74 49.12-2.81 107.358-7.15 156.947l-125.874-5.558c-18.04-.828-39.402-.652-56.98-2.279a6381 6381 0 0 1-63.828-2.437c-1.254-16.88-.213-35.77-.286-52.925-.114-26.44-.399-52.728.278-79.164 17.867.301 57.633-4.592 75.482-8.09 37.899-7.427 91.045-24.724 123.968-45.386M1399.2 61.665c4.91 1.304 30.98.704 37.43.676 59.06-.256 118.07.707 177.13.875l55.83.345c11.3.105 27.43-.066 38.33 1.463-1.01 22.525 1.55 56.198 1.9 80.027 1.24 76.406 3.14 152.8 5.72 229.173l18.76 638.286 2.38 146.78c.55 23.79.92 47.58 1.13 71.38.11 11.77.69 28.09-.07 39.46-2.7 1.42-7.71 1.05-10.99 1.08-8.68.47-6.59-4.16-6.74-11.68l-1.95-125.48-15.26-657.943-7.2-250.69c-1.21-39.078-.81-78.546-3.28-117.744-.21-3.305-1.54-5.223-3.7-7.609-16.86-6.906-264.06 2.842-296.43 3.83-1.34-8.138-2.63-32.196-1.15-40.014 2.18-1.739 5.3-1.803 8.16-2.215m-68.92 1.791 41.86.381c1.04 8.636 1.35 19.374 1.76 28.187-2.16 3.156-4.17 5.303-6.68 8.137-9.99-.382-21.23-.105-31.26.165-149.89 4.039-299.79 4.826-449.709 4.668l-101.963.318c-14.957.053-32.851.741-47.521.146-19.219.628-43.6-.314-63.094-.65l.157-38.852c23.636.22 49.032-.904 73.133-.928l280.757.08c70.51.496 141.03.216 211.54-.837 27.54-.307 64.42.857 91.02-.815m-679.224 2.098c2.298.074 3.839-.181 5.603 1.203 1.151 10.698.792 29.667.43 40.763l-198.94.269c-9.461.02-74.358-1.695-78.848.89-4.225 6.432-1.559 11.96-1.793 18.938-.246 7.354-.52 14.553-.464 21.926l9.184 611.992a24705 24705 0 0 0 4.263 318.175c.719 51.41-.596 112.04 2.172 162.88-.843 6.96 2.713 15.68-3.208 19.18-5.696-.69-6.028 1.01-10.402.3-2.768-3.88-2.134-41.51-2.654-48.77-5.432-75.97-2.844-151.85-2.931-227.957l-.634-255.847c1.088-105.308.985-210.625-.308-315.931a14140 14140 0 0 0-3.616-183.852c-1.773-53.857-4.912-109.738-5.925-163.292a8719 8719 0 0 0 288.071-.868M826.118 1276.57c17.531 1.03 42.093.41 60.104.44l110.27-.25 265.078.22c43.29.04 86.31-2.19 129.7-.7 1.1 7.97 1.75 16.68 2.5 24.74-38.26 2.79-82.63-.15-121.38 1.68-3.52-.75-26.13.11-31.05.16l-100.38 1.23c-108.38.77-216.762.85-325.144.23-33.371-.24-67.952.36-101.177-.44-.607-6.35-2.83-20.25.245-25.33 9.408-3.38 94.384-1.71 111.234-1.98M1353.39 196.939c4.47-.033 7.49.08 11.75 1.526 2.01 4.631 3.63 194.284 4 212.871l13.01 583.393 4.6 186.861c.49 20.76 3.57 60.66 1.94 79-3.94.07-7.89.66-11.15-1.19-1.61-1.74-3.28-4.12-3.22-6.56.29-11.93-.32-23.72-.78-35.63l-3.72-103.76a19573 19573 0 0 1-9.82-403.968l-6.73-375.058c-.58-43.124-2.29-86.354-2.82-129.476-.05-4.859.36-4.843 2.94-8.009m-221.12 234.379c44.46-3.892 33.06 27.019 37.72 55.78 2 12.348 7.81 26.028 13.09 37.441 13.02-9.765 18.9-11.604 29.95 1.66.93 3.774 1.32 9.405 1.73 13.444-10.6 24.205-24.07 17.547-40.6 8.224-1.41-.796-3.07 1.102-4.09 2.039-7.69 17.813 3.78 70.931 8.45 89.631-22.98 1.466-35.81 7.176-55.74 17.165 1.8-22.758-.73-39.498-7.8-61.008l15.94-1.293c4.89-.957 9.71-2.252 14.42-3.876 5.2-1.841 10.41-3.967 12.8-9.083-.34-3.747.19-2.312-2.18-5.266-2.97-1.508-6.43-.851-9.45.186-10.68 3.677-19.74 4.761-31.05 5.244-41.02 1.751-41.02-28.913-41.74-60.08 26.85 46.035 65.11 5.479 55.92-6.396-6.65 1.117-12.05 13.51-16.66 16.316-11.69 6.103-24.43-3.198-29.75-13.271-5.43-10.287-.69-20.62 2.56-30.856 5.62 1.941 8.94 4.233 13.81.109 1.66-6.958-4.43-8.894-9.78-11.107 8.45-16.877 22.38-41.603 42.45-45.003"/><path d="M1113.56 479.26c12.1-1.585 46.13 2.298 33.64 21.259-3.75-1.417-10.26-9.227-15.27-10.595-7.04-1.925-15.61 1.343-20.89-3.902.1-4.134-.14-2.592 2.52-6.762m74.92 49.301c5.32.505 8.61-.092 10.9 5.262-1.2 3.957-.85 2.749-4.13 5.994-3.87-3.1-4.51-1.065-8.65-4.53-.37-3.792-.17-2.729 1.88-6.726"/><path fill="#fefefe" d="M1018.79 387.492c25.78 26.071 49.28 34.542 84.95 40.209-18.46 19.767-24.4 42.541-35.93 66.149-2.93 5.997-16.45 3.446-21.15 3.34-23.33-.526-21.56-28.688-28-33.637-3.74.193-2.11-.39-5.11 1.701-1.43 3.916-.98 5.857-.64 9.725 1.86 20.899 19.86 33.48 39.82 34.053 3.83.109 7.98-.152 11.86-.318-10.58 26.115-25.16 27.47-49.17 21.791-6.24-1.477-10.94 6.842-10.75 12.697 12.93 10.859 10.51 1.128 13.1 21.723l-13.7-20.946c-18.46-23.043-30.061-28.231-56.779-39.628 3.225-7.605 19.34-57.237 16.405-61.362-6.173-8.672-14.313-11.038-17.984-22.564-1.351-4.244-1.931-8.93.432-12.937 3.758-6.377 11.948-9.288 18.725-10.721 22.385 6.857 23.65 32.565 50.301 8.446 2.45-7.15 2.7-10.159 3.62-17.721"/><path d="M1030.95 425.249c11.39-.079 44.11 5.059 43.22 20.41-2.13 3.293-.87 2.277-4.93 3.624-11.7-10.966-17.19-13.895-33.26-13.852-4.14.011-10.37-1.558-13.29-4.994l.5-1.795c3.86-3.338 2.08-2.31 7.76-3.393m8.28 20.515c14 .263 23.39 15.062 16.82 27.977-.51-.109-3.22-.86-3.45-1.33-3.81-7.746-9.05-14.377-14.16-21.212-1.15-1.55.16-3.691.79-5.435m-78.537-40.128c4.057.041 6.296.335 9.371 3.319a9.6 9.6 0 0 1 2.869 7.19c-.12 3.503-1.817 8.323-4.59 10.775-2.754.199-1.564.587-3.672-1.237l.044-2.545.05-2.377-.875-.712.837-.814-.786-2.379c-.506 3.139-.611 5.045-2.031 7.891l-1.952-.008c-6.029-5.294-3.621-13.545.735-19.103"/><path fill="#fefefe" d="M1017.12 175.094c7.47.142 38.12-1.608 42.56 1.846 4.25 9.727 2.73 100.698 4.33 117.944l.14 1.449c12.12 4.184 25.89 9.398 35.99 17.318 24.67 19.355 41.56 49.539 46.33 80.205 8.43.152 17.62-.91 26.11-.926 63.04-.116 103.65 40.931 116.93 100.512 5.09 22.838 5.7 42.727 7.88 66.032 23.55 27.964 34.59 64.226 24.25 100.42-2.93 10.255-12.63 22.325-18.87 31.273 1.04 18.259 3.75 29.432-3.99 48.506-12.24 30.166-40.58 47.383-69 59.72-3.67 1.227-4.34 1.636-8.11 1.631-2.85-2.356-1.88-.951-3.18-4.259 1.3-8.396 22.31-13.685 29.64-18.304 36.55-23.06 50.97-48.464 41.11-90.863q3.255-2.761 6.3-5.735c31.34-30.7 18.87-91.356-9.36-120.068-.57-15.293-1.57-30.884-3.22-46.127-8.81-81.059-64.47-125.925-146.57-114.744-3.15-34.273-25.74-72.253-57.4-87.122-20.18-9.481-38.49-9.243-59.95-8.691-1.12-42.744-3.02-87.291-1.92-130.017"/><path fill="#fefefe" d="M1174.12 655.342c42.61 2.536 37.45 30.918 35.36 64.529-1.62 25.969-1.62 54.282-4.88 79.807-6.73-4.393-49.82-37.531-50.12-43.178l3.08-2.638c5.52-4.095 17.65-12.076 13.85-20.004-9.17-3.828-20.07 8.401-25.63 14.222-19.72-20.74-30.24-35.395-47.22-58.186 24.14-16.213 46.38-30.761 75.56-34.552m-201.013 87.659c12.994 15.007 20.816 23.494 35.373 37.111-31.434 17.743-72.957 32.282-108.032 40.405a423 423 0 0 1-23.02 4.268c-.618-10.143-3.623-16.224-9.399-24.304 10.367-4.062 22.209-7.27 32.296-11.55 26.988-11.453 50.584-27.104 72.782-45.93m116.133 93.703c23.81 14.084 61.29 30.016 89.26 30.399-.4 5.978-.59 23.295-5.47 25.817-13.55.286-28.69 1.9-42.6 2.438-13.04.503-32.04.009-44.4 1.815 1.56-20.056 1.59-40.223 3.21-60.469m-27.47-299.526c1.32 5.827 1.64 19.484 2.24 26.303 2.4 27.136 4.63 48.946 2.63 76.165-3.13-5.442-6.96-11.196-10.35-16.535-4.71-9.138-10.56-17.236-15.23-25.924-6.4-11.92-7.39-33.937-8.45-47.693 12.7-2.073 18.41-5.182 29.16-12.316M997.1 1088.25c3.15 1.15 5.54 2.52 5.53 6.23-.04 13.44-.34 26.87-.5 40.31l-1.01 79.04c-.21 14.88-.89 31.28-.34 46.02q-1.506.33-3.026.6c-3.467.61-6.448.84-9.284-1.12l5.17-115.59c.607-16.6.967-33.77 1.219-50.41.028-1.86 1.125-3.61 2.241-5.08M844.839 798.738c4.443 1.079 5.837 2.101 9.656 4.379 2.167 7.252 4.906 14.917 7.334 22.132-8.891 2.283-31.596 6.221-39.596 3.861-5.402-5.719-7.416-8.218-11.633-14.826 7.494 2.642 11.999 4.229 19.906 5.848 15.088-5.996 18.643-4.263 14.333-21.394M1106.88 642.04l.98.699c1.82 7.011.27 15.022-.73 22.171-5.12 3.577-10.23 6.446-15.63 9.563l-5.96-6.803c-2.22-2.678-6.52-9.954-8.57-13.23 8.29-5.292 20.49-9.069 29.91-12.4m114.5 174.547c3.56.644 1.97-.046 4.89 2.295 4.13 17.342-9.21 23.565-22.78 29.176l-5.57.584-.49-1c6.3-10.187 8.06-19.037 14.43-28.431 1.67-2.468 6.34-2.284 9.52-2.624m-398.304-43.353c2.612.78 3.96 2.51 5.212 4.71-6.003-1.026-9.55-1.795-12.889 4.115-.291 9.226 11.688 16.443 10.749 21.323l-4.256-1.415c-6.424-3.454-23.147-13.108-23.021-20.686 4.337-5.807 16.721-6.705 24.205-8.047M940.46 519.816c8.205 1.552 18.039 6.581 25.58 10.373l.321 1.568c-7.377-1.628-22.617-2.299-26.234-3.961-1.504-3.244-.592-3.866.333-7.98"/><path d="M186.467 671.524c17.213 3.954 45.194 38.484 55.408 53.738a277.5 277.5 0 0 1 25.444 48.177c8.016 19.347 26.257 82.822 26.183 106.53-.008 2.501-2.937 3.779-4.819 4.784-3.812-.087-4.474-.126-8.092-1.283-3.897-4.303-7.003-27.712-8.723-35.191-9.72-42.46-22.418-85.897-48.899-121.201-12.245-16.325-26.502-29.74-40.978-43.882-1.292-1.263-1.493-3.517-1.548-5.234 1.15-3.18 3.28-4.306 6.024-6.438m1658.923-25.583c22.67 5.324-5.26 24.09-10.88 30.681-33.65 39.467-40.03 92.139-48.09 141.429-2.32 14.205-2.33 28.527-3.82 42.777-.24 2.333-4.37 4.671-6.27 5.922-3.56-1.173-5.19-1.363-7.76-4.081-4.42-13.209 8.53-89.679 12.53-106.348 9.26-38.5 28.6-88.693 64.29-110.38M235.491 675.793c2.377-.044 4.882-.193 6.947 1.175 13.269 8.789 42.714 78.19 45.504 95.677.836 5.241.137 6.996-2.885 11.227-3.861.388-4.692.75-8.152-.625-6.175-5.696-10.829-27.882-15.089-37.492a605 605 0 0 0-16.148-33.025c-3.463-6.53-13.128-23.421-14.831-29.762 1.026-4.349 1.233-3.517 4.654-7.175m50.678 127.24c13.973-1.18 15.087 5.338 19.039 18.039 7.807 25.089 15.642 51.982 16.725 78.339.092 2.23-3.532 4.794-5.232 6.199-3.041.672-3.54.325-6.672-.511-7.037-6.389-9.995-47.907-14.591-59.804-3.982-10.306-7.817-24.161-12.052-34.798-.865-2.17 1.627-5.645 2.783-7.464M1776.17 695.724c5.7.109 9.74.362 12.73 5.537-.52 5.163-1.62 9.882-2.87 14.876-6.12 24.541-11.3 48.997-14.46 74.108-.27 2.177-1.83 3.987-3.36 5.497-2.62.282-6.57.78-8.93-.522-1.58-.871-2.85-2.636-3.02-4.235-1.77-17.208 12.55-83.069 19.91-95.261"/></svg>