<svg xmlns="http://www.w3.org/2000/svg" preserveAspectRatio="xMidYMid meet" viewBox="0 0 2048 1462"><path d="M1019.38 85.132c33.72-.74 64.98.5 94.69 20.641 29.09 19.717 39.14 49.14 37.18 83.403-.94 9.831-5.34 20.642-4.57 30.502 1.04 13.429 5.45 27.135 8.25 40.352 2.56 12.062 3.24 23.737 5.29 35.702 25.04-14.01 49.81-30.866 75.97-45.091a2156 2156 0 0 1 83.99-43.453c12.63-6.045 25.64-11.053 38.11-17.027 32.88-15.858 64.01-45.985 102.71-42.576 39.06 3.44 70.64 35.025 66.7 75.437-1.25 12.858-7.67 19.515-17.41 27.149 15.66 28.904 89.14 176.368 84.64 198.179-6.61 11.679-44.12 16.205-44.65 17.403-8.56 19.012-11.83 32.932-37.16 48.983 14.94 4.268 24.42 7.876 36.6 18.231 24.18 20.558 26.62 42.514 37.78 69.253.41-6.517-.05-14.013-.29-20.614 5.62 13.264 6.78 14.144 16.61 24.09-22.24 12.696-35.6 17.806-47.78 43.352-4.68-25.807-15.33-45.13-40.08-55.877-71.4-31.002-136.37 55.385-75.96 110.915-30.39 8.033-46.36 24.872-59.42 52.634a419 419 0 0 0-5.18-9.404c-12.35-21.613-31.77-35.801-55.62-42.313 2.69-3.179 5.9-6.588 8.37-9.838 26.3-34.609 9.5-86.663-30.24-102.38-9.66-3.818-17.38-4.665-27.43-6.225l3.89 9.914c2.97 2.006 6.13-.125 9.68.738 51.45 12.527 66.45 81.97 17.73 110.531 2.25 3.499 14.74 6.112 19.69 7.565 25.34 7.334 44.57 28.218 52.14 53.104.85 5.976-1.62 16.529-3.24 22.214-7.13 24.985-6.37 45.479-6.58 70.915l-.26 69.174c.02 8.628-1.21 34.83 2.12 41.253 2.96 1.969 1.97 1.363 6.34 1.075 2.34-2.364 2.64-5.858 2.63-9.288-.11-46.962-3.57-95.472.25-142.224 1.97-24.016 10.7-51.572 21.57-72.868 13.36-26.198 36.75-33.279 62.91-40.948-7.74-6.471-14.59-9.315-21.31-18.052-36.47-47.455 10.47-108.992 68.49-90.571a58.48 58.48 0 0 1 34.18 29.333c14.38 28.18 5.55 64.433-23.31 78.621 3.39 1.369 7.33 2.757 11.1 3.755 84.43 22.375 79.37 149.295 88.17 217.622 1.01 7.819-.19 38.589 1.97 42.846 3.14 1.441 1.99 1.055 6 .299 2.46-5.849 1.67-18.154 1.53-24.886-1.16-58.387-7.24-120.726-25.48-176.366-11.6-35.399-28.14-53.953-63.07-66.104 17.31-17.549 19.31-33.471 28.8-54.513 10.93-24.257 32.1-32.185 54.98-40.734-18.28-15.096-30.08-28.258-28.73-53.65a58.78 58.78 0 0 1 19.99-41.12c11.62-10.361 28.36-15.219 43.76-14.218a59.22 59.22 0 0 1 40.73 20.266c16.2 18.614 19.14 46.664 6.43 68.12-5.33 9.007-12.73 15.164-20.5 21.946 11.27 5.461 17.79 6.233 29.97 13.785 36.22 22.469 23.94 50.568 54.63 80.543l-3.85 1.827c-22.67 10.858-34.01 18.151-47.5 39.793-15.55 24.948-20.23 48.192-25.59 76.716a807.6 807.6 0 0 0-13.6 122.886c-.26 6.107-1.68 21.936.49 26.478 3.33 1.424 1.93 1.133 5.62.697 1.93-2.074 2.39-2.516 2.59-5.9.7-12.489 1.1-25.207 1.82-37.691a744 744 0 0 1 6.89-71.313c4.41-31.341 11.08-72.896 26.08-100.893 15.78-29.44 38.18-39.852 68.42-48.822-14.87-9.993-21.57-16.37-28.57-33.461-9.99-23.673 5.71-58.288 26.81-71.019 66.76-40.265 127.36 60.323 60.02 103.705 18.89 7.785 37.17 11.581 52.38 26.826 27.17 27.235 31.04 64.8 36.44 100.501 7.22 47.73 9.95 93.751 10.61 141.813l2.47-.012c6.06-.018 11.86-.92 16.15 3.347l-.27 1.944c-4.95 3.961-8.68 3.394-15.28 3.409-41.73.098-84.07-.03-125.94 1.84-7.58.338-16.9-3.773-21.85.897-6.76-3.414-5.27-3.354-13.06-2.527-31.14 3.305-62.55.397-93.75-.187-3.14-.059-7.88 2.247-10.1 2.036-15.53-1.871-31.33-.703-46.82-1.413-19.24-.882-37.06.101-56.18 1.475-12.29.883-26.08-3.877-38.72.508-.05.019-6.42-3.287-7.03-3.6a267 267 0 0 1-8.07 3.807c-1.39-.695-1.96-1.568-2.85-2.808l-2 2.67c-9.59.624-13.31-5.119-21.29.186 1.68-1.117-27.37.696-27.96.708l-2.55-2.576c-33.29 1.106-66.85-.452-100.13 1.21-8.96.448-46.34-1.789-51.15 2.212 1.93 5.093 1.94 30.914 4.74 37.354 4.73 10.92-4.31 23.41-4.21 27.2 1 40.08 14.44 77.41-5.98 114.96 16.64 24.56 54.48 119.54 64.24 151.16.55 10.98 9.5 13.31 14.75 21.06 7.7 11.37-27.97 24.61-35.52 27.27-61.37 21.64-119.59 16.92-178.31-10.02-.98 6.36-2.55 21.37-8.34 24.61-2.61-.5-1.73-.25-3.9-2.62.2-8.01-2.87-19.95-1.91-26.99 2.33-17.16 5.06-32.25 4.52-49.79.38-9.81 4.02-21.46 4.22-31.11.3-13.85 1.38-27.65 2.5-41.5l7.18-82.11c.58-6.96 2.41-12.69 3.41-19.47.41-2.8-1.92-5.6-1.46-8.53 1.35-8.54 5.69-30.19 4.53-37.86-15.83-5.53-82.15-7.1-100.3-9.86-27.1-4.12-221.377 2.43-232.486 13.03l.299.75.466 1.27c5.483 14.55 6.857 42.87 8.585 58.26l11.378 107.98c.902 8.56 3.328 14.94 3.875 24.4-1.04 1.29-1.279 1.66-2.101 3.1 2.115 2.36 2.095 2.22 3.191 5.16l-1.339 1.65c.776 12.77 11.33 85.59 1.539 90.41l-2.431-.9c-2.978-3.76-5.489-21.72-5.954-27.09-40.533 31.35-122.022 35.68-170.01 23.32-13.269-3.42-49.684-17.58-56.117-29.32-.145-3.72-.604-2.32 1.491-5.22 3.485-1.81 5.358-1.72 9.192-2.01 4.078-9.41 7.37-24.73 11.389-35.64a1166 1166 0 0 1 45.639-106.82c4.205-8.63 10.85-23.38 15.748-31.12-18.376-25.67-9.606-59.53-7.418-89.29.415-5.63 3.6-17.15.803-21.31-7.949-11.81 5.22-61.103 1.538-70.107-1.441-.589-17.469 1.429-21.105 1.563-18.475.1-40.095 2.778-58.35 1.011-19.38-1.877-34.887-3.389-54.442.383-1.644.317-6.372-2.889-9.147-2.733-13.732.772-28.329 2.997-42.044 2.922l-165.154-1.743c-41.818-.178-83.974-.478-125.732 1.473-2.55.119-11.699-2.111-15.307-2.581-3.491 4.313-7.166.87-12.934-.292l-4.033 3.09c-4.749.15-13.296 1.149-17.397-1.018-4.29-2.266-2.603.362-5.594 1.113-.794-1.916-.816-2.117-2.033-3.769-1.693.533-9.756 3.136-10.337 3.025-9.35-1.789-50.729.387-54.708-4.705-1.568.819-1.743.916-2.914 2.164l-.887.964c-7.357-.08-46.62-.244-49.343-5.02l2.1-2.097c3.253-1.238 12.62-.794 16.64-.773.15-65.581 5.357-128.495 22.15-192.088 9.596-36.335 25.448-62.717 64.197-71.9 4.743-1.124 10.453-1.192 14.591-3.518l.273-1.469c-6.5-5.03-11.004-8.036-16.442-14.471a56.8 56.8 0 0 1-13.232-43.063c1.801-17.744 9.67-33.982 23.785-45.133a55.18 55.18 0 0 1 41.988-11.706c50.221 6.777 74.582 69.576 36.365 105.647-3.14 2.964-11.121 7.384-15.315 10.494q6.128 1.26 12.209 2.729c13.866 3.362 29.66 8.583 40.062 19.952 41.519 45.375 43.865 134.695 49.685 193.126 1.068 10.719-1.408 36.524 2.963 43.712 3.19 1.672 1.854 1.528 5.151 1.037.62-.717 1.836-2.253 1.838-3.269.146-73.091-4.816-155.914-37.58-222.344-10.732-21.758-32.482-32.995-53.286-38.944 34.917-32.959 19.803-87.925 86.946-96.701-57.354-37.586-23.219-114.16 36.364-109.391a60.3 60.3 0 0 1 41.518 21.307c11.05 13.154 15.952 27.702 14.262 44.859-2.022 20.516-13.518 31.669-28.322 44.066 20.412 6.714 43.195 20.131 50.816 41.82 7.709 21.941 13.054 33.732 26.602 52.809-71.661 18.137-75.689 134.246-83.124 194.25-1.471 11.874-5.399 62.115-2.331 70.45 2.522 1.615 1.933 1.042 5.78.57 3.503-2.503 3.993-33.708 4.535-40.542 4.901-57.944 7.42-119.402 30.537-173.594 15.877-37.221 35.297-35.809 67.029-47.073-23.634-15.425-33.827-33.994-28.838-62.907 5.845-33.876 38.039-55.709 71.904-48.386a56.54 56.54 0 0 1 36.123 25.154c11.47 17.974 12.727 44.548 1.791 63.027-6.093 10.296-14.613 16.277-24.464 22.407 10.78 3.637 19.512 3.93 31.078 8.78a68.3 68.3 0 0 1 27.908 21.285c36.453 46.903 39.697 147.917 42.121 205.492.297 7.03-1.416 26.028 6.664 28.187 5.539-4.604 2.847-20.551 3.064-28.524 1.124-41.311-4.006-85.621-11.18-126.25-4.404-24.938-14.457-35.912-3.234-60.748 10.902-24.125 24.888-34.814 50.021-42.373 5.242-1.56 13.333-.844 17.036-4.162-2.053-4.598-20.462-12.888-26.142-28.845-6.802-16.367-5.543-32.348.797-48.455 7.276-18.488 21.365-29.413 40.532-33.951 6.117-1.448 13.597-1.037 19.412-3.491 1.879-2.914 1.546-1.342.799-4.919-3.108-2.472-2.678-1.831-6.572-2.114-37.389-2.684-66.919 30.159-69.194 65.947-1.373 21.602 6.857 35.552 20.425 51.116-37.257 12.475-44.44 22.198-59.916 56.848-10.387-30.224-31.714-48.179-61.206-58.301 7.762-8.688 13.11-15.095 16.608-26.513 11.277-36.817-11.036-77.63-47.821-88.57a64.92 64.92 0 0 0-49.858 5.677c-22.459 12.421-30.04 32.753-36.682 55.808-13.996-23.128-20.87-28.106-42.451-44.188 4.579-6.004 4.668-5.184 11.629-5.438 2.328-1.818 6.604-16.309 8.08-20.253 13.125-35.059 33.68-51.396 68.248-62.39-31.794-26.072-40.557-42.65-25.081-82.708-3.806 2.006-8.605 5.015-11.638 8.079-4.799 4.85.126 9.454 1.207 14.391.527 2.408.718 6.654.811 9.312-11.072-1.495-21.66-5.026-33.045-6.253-.421 1.664 3.879 10.575 4.893 13.198 5.807 15.011 7.502 31.373 12.832 46.338 3.823-.291 12.919-1.047 15.02 2.58-17.291 12.879-21.876 18.061-34.127 35.684-2.113-20.953-5.88-33.307-21.443-48.574-37.92-37.198-102.852-19.141-115.971 32.25-2.241 8.779-1.791 17.623-1.473 26.568-13.43-29.105-20.205-40.623-50.86-53.823 15.755-14.981 26.185-25.869 43.767-39.399 20.178-16.776 41.369-38.294 64.829-49.831 20.515-10.088 55.265 23.29 69.318 22.917l1.188-1.477c-.639-.84-3.306-4.335-2.772-5.348 3.181-6.042 5.812-12.271 8.341-18.601a2422 2422 0 0 1 46.402-107.137c9.424-20.544 20.975-43.593 29.362-64.27-7.336-6.565-11.527-11.536-13.229-21.486-6.785-39.597 19.857-71.881 58.353-78.991 44.064-8.139 81.361 22.31 115.654 45.724 2.755-.325 4.767-1.037 7.434-1.829 19.377 3.116 183.511 100.753 213.57 117.122 5.051-22.052 13.607-43.123 18.437-65.086 3.468-15.771 3.956-32.09 5.315-48.137 2.724-32.173 7.504-63.121 30.766-87.548 6.366-6.684 12.725-12.246 21.142-16.12 5.904-2.716 24.916-6.842 27.986-9.547.21-.186.41-.385.62-.578"/><path fill="#fff" d="m1051.46 367.884 14.54 10.528c.53 7.932-1.76 30.333 2.05 35.574 4.91 6.765 36.93 19.078 44.99 22.543a551 551 0 0 1 51.98 25.38c39.69 22.549 62.38 43.55 78.05 86.811 10.59 25.318 16.19 51.228 22.72 77.594 6.53 26.389 11.4 49.034 12.52 76.284.35 8.237 4.14 20.497 4.99 29.793 1.89 20.743 5.06 40.878 4.78 61.872 1.12 20.226 3.73 41.547 6.9 61.506.75 4.728-1.09 12.639-.61 18.04l11.54 120.21c.89 8.501 7.35 39.391 4.04 47.171-6.44 7.33-56.85 14-64.45 9.98-5.99-6.23-3.89-28.87-4.55-37.58-1.44-18.981-.14-41.061-1.25-60.004l-8.11-161.491c-.38-8.354.03-20.118-.37-29.767-1.54-46.166-4.8-92.258-9.77-138.181-.92-8.358-1.79-37.576-8.61-41.24l-1.86 1.405c-6.64 14.865 1.05 99.2 2.11 119.626l4.04 88.495q.795 17.966 1.17 35.946c.07 3.854-.41 11.704-.1 14.88.46 4.593 1.85 9.367 2.4 14.768-1.56 1.167-1.53 1.042-2.44 2.74.5 1.431 3.61 10.282 3.54 10.484-3.45 9.982-1.5 23.486-1.12 33.559l5.97 135.42c1.44 36.78 14.99 17.14 27.3 28.59 1.75 4.04 1.25 8.97-2.73 11.37-1.85-1.41-4.4-3.78-6.75-4.08-14.42-1.86-28.78-6.57-43.28-8.9-9.34-1.5-100.4-11.01-103.03-9.8-1.23.56-2.23 1.24-3.61 1.42-3.3.43-8.01-1.25-11.51-1.56-5.77-.52-39.33-2.18-43.05-.51-.39.17-.77.37-1.15.55l-.66-.62c-5.26-.6-9.4.45-14.7.25-42.892-2.04-85.316 4.49-127.845 8.21-23.045 2.01-40.289 6.65-62.502 10.29-1.318-1.98 2.54-27 .497-33.69 3.813-5.86 4.133-69.395 6.905-80.717.833-3.402 1.47-6.052 1.617-9.574-4.093-8.811 1.304-4.13 1.36-9.146-.529-12.442-3.321-19.557.332-31.775 3.01-10.064 1.011-28.416 2.854-39.387 3.567-21.237 3.745-42.936 5.72-64.362l11.341-119.759c1.245-13.531 15.686-110.495 6.241-114.878l-2.153 1.545c-6.601 12.501-17.655 113.26-18.574 133.603-1.133 8.501-3.235 17.442-4.098 25.921-2.82 27.715-4.621 55.55-8.205 83.178-.749 5.225.682 12.092-.014 17.131-6.802 49.201-8.081 99.075-13.143 148.532-2.357 23.018-1.342 47.298-4.731 70.228-14.228 1.76-70.098-2.74-82.317-8.5 2.603-8.83 4.642-15.27 4.211-24.58-.143-3.09.089-8.84.484-11.88 4.344-33.311 5.86-67.158 9.151-100.624 1.307-13.289 2.851-26.506 5.833-39.503.654-2.849-1.902-10.825-1.437-13.618 1.38-8.301 4.315-16.4 5.462-24.805 1.061-1.936-.215-18.629.073-18.828 7.258-4.997.209-20.124 4.986-27.304 1.023-1.538 1.475-3.632 1.954-5.064a329 329 0 0 1-1.899-2.807c7.73-43.904 14.186-87.128 22.996-130.989 7.146-35.576 9.998-62.937 23.728-97.263 29.327-73.321 93.151-101.379 163.889-123.702 5.715-1.79 13.647-6.757 18.83-4.71 2.413-1.104 4.428-3.588 6.324-5.556 1.01-5.175-.67-24.102-1.16-30.394 6.83 1.657 10.32 2.777 17.35 2.37a49.9 49.9 0 0 0 34.02-16.649"/><path d="M1054.51 556.652c16.99 12.23 42.5 96.377 50.01 118.72 4.54 13.538 10.5 43.199 11.6 57.832-.73.079-1.26-.308-2.1-.659-20.58-46.774-55.55-125.295-59.51-175.893m-55.207 45.057c1.227.962.777.59 1.437 2.249-10.495 28.793-23.001 52.345-36.468 79.753-13.042 26.54-22.911 47.981-39.304 72.813l-1.182-1.914c6.873-43.978 41.508-123.275 75.517-152.901"/><path fill="#fff" d="M582.421 246.753c19.111.621 33.443 10.617 49.677 19.717 5.04 2.825 11.398 11.639 18.312 15.683 72.658 42.495 147.14 84.21 213.85 135.721 7.492 5.789 20.743 16.189 26.374 23.326-26.483 12.572-33.603 19.632-55.527 38.777a114 114 0 0 0 1.478-7.312c8.414-51.928-54.686-90.011-96.602-57.738-14.343 11.043-20.118 24.421-22.8 41.823-.341 28.163 4.089 38.947 25.166 57.896-37.745 12.372-56.652 29.086-68.889 68.858-1.773 5.763-1.075 13.09-5.438 17.469l-2.005-.315c-6.88-6.5-9.837-30.905-17.103-41.643-17.957-26.536-32.285-34.417-60.782-42.632 11.402-8.495 20.34-16.687 26.849-29.657 2.888-5.753 3.786-21.232 7.13-24.22 4.964 4.499 9.177 2.475 15.472 2.328 15.185-.355 22.229-3.311 34.03-12.482-1.624-6.119-6.592-16.345-9.34-22.598l-17.69-40.573-49.903-118.832c-3.284-7.68-10.1-17.437-12.259-23.596"/><path d="M702.533 470.105c3.797 3.044 5.423 9.745 7.029 14.442 3.654 10.685 6.956 17.189 13.819 26.289-33.789 17.676-41.505 26.24-56.991 62.1-5.221-10.104-7.808-15.435-14.067-25.088-10.397-15.346-27.258-30.216-45.19-35.734 15.636-10.767 76.247-35.683 95.4-42.009"/><path fill="#fff" d="M1451.61 247.185c3.37-.431 6.29-.877 9.06.637-2.02 6.028-11.3 23.021-14.78 31.047-23.74 54.883-45.91 104.943-65.38 161.56-6.11 2.181-10.37 4.242-11.18 11.078 5.18 13.014 42 12.995 53.14 18.024 2.27 1.024 7.19 16.983 10.62 22.106 8.08 12.07 12.84 15.578 24.46 23.34-33.11 10.256-54.46 31.131-65.26 64.437-3.09 9.535-4.71 19.646-7.92 29.079l-.33.952c-3.09-13.9-6.17-28.515-12.69-41.123-17.88-34.595-33.73-42.084-67.81-53.73 15.74-10.469 21.57-21.531 26.42-39.374 3.81-19.698-1.94-40.128-17.3-54.331-25.33-23.406-64.75-21.212-87.96 4.021-10.35 11.258-13.23 30.758-13.72 45.567-.08 2.264 1.43 5.085 1.67 8.001-2.52-1.069-7.21-5.782-9.51-7.881-14.22-12.959-32.66-20.472-49.4-29.891 34.47-26.577 65.31-52.414 102.76-75.577a3086 3086 0 0 1 83.83-49.657c10.68-6.142 51.06-29.122 58.9-36.324.2-.746 1.3-4.827 1.9-5.1 17.87-8.123 32.31-19.368 50.48-26.861"/><path d="M1340.7 471.611c20.49 3.952 81.59 26.27 97.75 40.509-19.78 10.366-30.24 19.138-42.43 37.834-5.34 8.719-8.4 13.855-10.77 23.754-16.86-32.142-29.18-49.691-64.44-62.292 12.56-14.875 13.35-22.833 19.89-39.805"/><path fill="#fff" d="M700.635 209.525c19.232 8.553 45.291 23.322 63.787 33.662l100.233 56.72c16.757 9.641 33.233 20.151 50.267 29.182 3.775 18.246 8.327 34.692 29.761 39.716 10.947 2.566 18.972-2.441 27.839-8.26 5.969 8.501 10.443 12.494 17.968 19.417.399 6.784-.572 18.73-.449 26.74-15.068.917-31.35 6.642-45.952 11.095-11.844 4.482-26.22 9.396-37.069 15.671-13.92-9.256-37.147-30.166-52.907-41.521a1681 1681 0 0 0-146.51-93.019c-13.937-7.959-36.86-21.893-50.596-28.19 13.696-17.15 31.41-42.768 43.628-61.213m645.455-1.631 1.01.112c1.63 1.045 38.8 58.924 42.07 64.695-10.42 6.652-22.94 12.477-33.91 18.547-63.38 35.059-126.78 71.602-183.1 117.45-7.61 6.2-24.41 18.89-29.53 26.496-4.68-2.463-10.53-4.945-15.41-7.171-17.31-7.459-32.42-14.339-51.2-16.902 0-8.463.87-19.645 1.69-28.03 3.94-.982 16.66-1.685 18.95-2.761 21.05-9.871 38.29-17.922 48.43-40.309 2.66-4.341 7.2-19.449 10.86-22.403 32.14-25.874 78.52-49.745 113.72-69.02 27.63-15.127 51.9-25.889 76.42-40.704m-67.77 973.686c9.24 8.51 48.18 105.6 55.52 122.13 3.08 6.94 5.39 16.07 10.19 24.11-18.3-1.5-41.09-3.04-59.22-2.98-3.59-1.9-58.57 1.9-66.66 2.31 4.9-15.01 11-26.02 16.5-39.8 14.08-35.29 30.09-70.4 43.67-105.77m-514.2 1.22c7.05 9.05 61.266 136.92 61.263 144.21l-1.523.69c-12.084-3.87-48.177-3.57-62.103-3.47-5.173-1.3-50.612 4.92-57.545 3.37l-.483-1.21c2.199-5.73 2.285-11.68 4.255-16.39 17.954-42.9 36.788-84.93 56.136-127.2m52.05-118.18 2.184 1.37c2.064 5.97-1.051 12.08-.242 17.51 1.848 12.44 20.757 4.25 28.122 3.64 3.721 2.76 6.533 57.13 7.311 66.52 2.539 30.68 6.501 61.32 9.158 91.94l5.795 60.67c.914 8.94 1.575 20.6 3.11 29.15l.19 1.03c-3.301.2-2.899-.76-3.945-3.4l-35.347-88.69c-12.053-29.77-22.73-57.18-39.616-84.83 17.74-19.1 13.089-46.38 15.744-70.69.788-7.21-.955-15.23 2.012-22.4zm669.41-783.632c8.56 8.982 58.09 125.704 66.33 144.564-2.79-.586-13.85-2.704-15.75-3.726-19.25-10.323-24.86-18.888-47.94-21.58-23.88.364-37.45 6.067-53.28 24.387-3.4.428-7.68 1.454-11.11 2.166 4.34-14.907 11.83-28.208 16.94-42.415 12.48-34.748 32.07-69.289 44.81-103.396m-39.95-119.799c25.33-2.03 51.07 5.976 61.3 31.286-16.76-16.488-33.77-22.054-57.44-19.723-6.33.624-12.62 1.502-17.52 5.896-1.88 4.485.93 8.679 3.01 8.692 16.75.108 35.91-4.458 51.26 5.946 12.72 8.62 28.46 32.929 16.73 47.558-2.15 2.681-1.89 2.932-5.11 3.35-4.13-4.68 4.12-12.681 1.86-18.64-12.03-31.736-38.22-28.625-61.92-24.778-.66.077-4.64 1.469-5.52 1.765-2.33 2.516-2.64 2.854-3.23 6.204 2.52 9.412 17.36 5.053 24.42 3.582 12.09-2.517 21.82 2.726 31.43 9.382 1.24 2.754 3.02 8.429 4.07 11.513-19.12 5.786-30.2-1.641-49.81 5.048-11.66 3.976-31.53 24.034-40.62 23.683-5.81-5.085-38.85-53.912-40.75-60.147.77-.761 1.09-1.064 2.22-1.247 11.21-1.82 17.08-7.093 26.77-12.288 21.24-11.388 35.06-21.615 58.85-27.082m-886.102 121.58c2.782 3.509 14.288 33.616 17.05 40.229a10818 10818 0 0 0 42.433 99.889c-4.552-1.009-6.612-.946-11.159-1.006-19.422-15.208-27.684-23.379-53.888-21.672-20.505 2.211-25.568 10.274-42.7 20.058-2.156 1.232-12.575 4.081-15.538 4.901 21.518-48.569 40.126-94.086 63.802-142.399m22.092-118.827c52.27-5.853 66.341 22.547 104.957 41.487-12.816 16.738-28.371 39.645-40.327 57.201-15.703-8.922-34.297-25.116-51.842-27.565-15.484-2.162-21.834 9.657-33.515-7.225 11.85-12.161 24.763-17.518 41.992-16.635 6.465.331 9.232 4.844 14.568-.816.882-3.685 1.054-1.963-.423-5.357-4.264-3.441-10.977-4.463-16.379-5.609q-4.656-.24-9.317-.111c-19.246.649-33.445 8.91-43.491 25.71-2.663 4.453-3.637 9.44-7.024 13.094-5.17.294-6.877-6.108-7.206-10.403 6.168-5.347 7.096-6.909 11.352-13.935 9.608-15.861 26.766-24.419 44.851-26.271 7.146-.732 22.612 3.726 28.466-.284 3.88-11.094-9.651-13.439-17.529-13.692-29.178-.936-50.714 9.473-67.293 33.051 11.023-27.117 20.364-33.351 48.16-42.64m623.35 919.938c8.77 1.2 38.5.01 42.96 4.05 6.26 13.8-19.25 35.41 7.9 62.4-18.63 30.92-38.18 81.62-53.44 116.42-4.06 9.65-8.85 19.68-13.23 29.24-.93-18.89 3.82-39.53 4.59-58.55.02-.63-2.52-2.19-1.64-4.97 1.33-4.22 3.28-8.51 4.3-12.83.81-7.23-1.46-17.89-.23-24.78 5.52-30.99 4.09-62.68 8.49-93.85.7-4.96.38-12.01.3-17.13m-464.591-25.46c13.57 4.86 26.748 7.12 41.098 8.24 6.229.49 10.12-3.63 14.28 1.86.919 3.9-4.764 70.33-6.367 76.2-2.925.59-7.418-10.66-10.23-12.91-3.357-2.7-6.894-4.15-10.699-5.85-.598-7.13 2.226-18.61 4.411-25.38 1.646-5.31 6.912-12.36 2.628-16.05-17.427-1.04-17.28 30.08-18.403 41.68-1.058 10.92-12.2 17.58-17.805 27.98-9.778-25.59-.459-66.53 1.087-95.77m565.931.34.95.24c4.73 4.9 8.31 84.21.21 92.65-4.72-3.62-6.96-13.67-13.71-16.85-.71-.34-6.52-4.91-6.92-5.73-4.81-9.97-3.6-25.28-6.27-36.44-.64-2.69-2.76-3.09-5.05-4.27-10.52 5.18-3.82 31.99-1.67 41.89-3.89 1.97-6.8 3.64-10.53 5.89l-2.86-1.06c-8.89-9.79 3.03-37.93 4.67-50.48.97-7.45 1.16-10.65 1.3-18.28 9.25-.22 32.21-2.79 39.88-7.56m-546.125 279.66c5.925 2.08 26.689.39 34.006 1.2 7.926.87 55.559 3.01 60.609 6.4l-1.07 1.8c-16.456 9.56-64.354 13.31-83.98 13.16-13.461 2.92-80.712-3.84-90.07-12.86l.679-1.5c12.606-5.72 43.308-5.02 58.155-6.48 7.622-.75 13.704.53 21.671-1.72m562.435-.18 1.43 1.64c12.43 1.36 34.15 4.5 45.83 7.03-8.59 2.8-23.82 7.55-32.21 9.28-23.84 4.9-89.25 9.15-111.17 2.15-14.82-2.27-21.61-4.19-34.95-10.69 33.33-7.18 64.49-8.46 98.36-7.55 4.02.11 12.51-.94 14.28-.75 5.88.63 9.1 1.27 15.75 1.47z"/><path fill="#fff" d="M767.952 1140.9c.316.32.788 1.56 1.005 2.05-1.662 4.48-4.247 8.44-6.304 12.8-26.674 56.58-52.343 114.05-74.371 172.52-1.17 3.11-6.272 3.7-9.501 4.46l-.488-.51c-1.656-9.14 21.339-65.64 27.552-77.13 15.459-28.59 36.675-96.11 62.107-114.19m518.708 8.3 5.43.75c13.59 33.1 32.23 66.66 45.09 99.89 4.14 10.72 30.84 74.41 30.59 81.54l-1.33.63c-1.94-.39-5.96-1.06-6.87-2.73-10.61-20.34-20.72-49.32-28.94-70.07-4.87-12.27-48.69-103.22-47.76-108.32zM553.424 247.479c2.853 2.049 1.745.767 3.253 4.139-.503 4.52-2.67 9.72-4.581 13.905-24.529 53.705-48.865 107.472-72.006 161.788-.867 2.033-6.736 2.595-8.868 2.954l-1.651.367-.483-1.524c1.88-7.536 15.752-36.725 19.981-46.21l35.981-79.772c7.055-15.48 18.773-43.089 28.374-55.647m17.931 7.188c5.567 5.978 36.084 81.263 41.608 95.073 9.205 23.015 26.991 58.129 34.759 80.775l-1.13 1.594c-6.562-2.856-9.138-3.482-12.671-10.049-6.555-12.185-11.384-24.892-16.824-37.556l-27.052-63.482c-7.41-17.786-16.384-37.606-21.948-56.099-1.194-3.97 1.119-6.952 3.258-10.256m902.345-3.028c2.27 2.058 3.72 5.731 5.14 8.599-6 19.7-18.38 43.216-26.6 62.635-14.7 34.749-30.97 68.431-43.69 104.033-1.54 4.316-3.18 4.881-7.13 7.404l-4.01-.848c-1.93-10.27 66.83-158.184 76.29-181.823M1266.19 1157.6c1.23 1.12 4.84 5.76 6.1 7.29-23.82 53.55-46.31 107.65-69.28 161.55-1.15 2.72-3.2 3.9-5.72 5.18-3.55.79-3.01 1.31-5.24-.09.15-11.57 66.28-157.01 74.14-173.93m-491.493 5.11c2.568 1.54 3.806 1.16 6.519 2.31 13.775 23.19 27.094 56.32 37.484 81.5 11.176 27.09 23.221 56.37 32.224 84.05l-.865.1-2.06-2.18c-3.619-.23-4.272-.16-7.616-1.36-3.214-5.8-9.735-23.67-12.551-30.79a5396 5396 0 0 0-23.612-58.91c-9.378-23.02-19.248-44.7-30.69-66.76-1.368-2.63.105-5.37 1.167-7.96m716.173-907.045c2.7.482 4.81.942 7.46 1.621 5.94 9.118 15.72 29.385 20.86 39.601a1254 1254 0 0 1 42.38 92.417c5.31 12.899 11.98 28.326 15.65 41.611-5.84 1.413-6.73-.002-11.35-3.229-6.97-22.887-17.22-44.34-26.84-66.222-8.25-18.764-17.22-37.874-25.44-56.642-4.92-11.23-21.11-38.596-22.72-49.157m-466.73-78.619c4.88.073 9.59 1 14.01 3.065 1.08 6.075-15.13 8.629-18.89 17.924-7.65 18.873 11.43 27.437 14.2 38.059-.57.363-1.15.714-1.73 1.052-19.9 11.385-28.04-33.309-21.41-45.589 5.2-9.621 3.48-9.44 13.82-14.511M613.684 434.763c5.665 2.004 6.868 2.565 11.93 5.79 1.459 3.367 2.674 5.003 3.826 8.757l-1.194 1.549-5.524.66c-.567 2.461-.586 2.936-1.919 5.192-1.585-1.844-5.462-17.227-7.119-21.948m928.106 4.157c5.47 1.654 22.03 4.783 24.96 6.89l-.96 1.301c-6.69 1.521-12.03 2.405-18.78 3.408-2.43-4.478-3.4-6.842-5.22-11.599m-117.19 3.018c1.22-.129.57-.234 1.85.657-.19 5.425.42 6.95-4.07 9.843-3.88-.222-4.53-.815-8.13-2.605-2.64.263-3.3-.349-5.65-1.564 2.25-2.317 12.33-5.098 16-6.331"/><path d="M1812.24 399.222c5.37-.569 12.13-.644 17.46.054a62.42 62.42 0 0 1 41.83 24.524c9.7 13.072 13.49 31.399 10.75 47.312-3.59 20.829-14.87 31.054-30.87 42.619 28.55 11.675 53.4 24.392 64.74 56.039 21.63 60.385 29.36 127.084 30.43 190.962.2 11.834-.61 23.418-.41 35.283 5.34-.291 17.96-1.281 21.62 3.349l-1.49 1.659c-9.37 3.289-16.15 1.997-26.04 1.379-8.6-49.403-23.59-79.176-72.86-97.4 53.61-50.572-10.21-149.102-78.5-114.304-23.27 11.858-34.02 33.191-41.29 57.241-13.16-22.905-24.21-27.95-45.99-40.778 2.26-3.185 5.24-6.291 7.87-9.218 5.96 1.486 8.87 2.034 14.28 4.844 13.59-48.697 22.49-69.304 73.05-87.316a62 62 0 0 1-9.94-4.876c-12.94-7.712-21.31-19.544-24.95-34.083a64.9 64.9 0 0 1 7.8-49.707c10.06-16.161 24.75-23.456 42.51-27.583m-1587.682.213c1.572-.254 6.711.055 8.411.225a61.93 61.93 0 0 1 41.85 22.34c16.666 20.366 17.696 51.4 2.887 72.912-6.716 9.755-14.46 15.621-23.616 22.791 39.409 7.826 60.077 38.835 66.323 75.668.574 3.385 1.445 6.494 4.164 8.661 5.299-1.031 5.59-2.307 6.768-7.237l.262-1.124c2.528 4.12 4.813 6.796 7.869 10.518-22.311 13.429-29.964 18.887-44.068 40.959-.688-11.445-9.247-28.312-16.615-36.913-19.849-22.684-49.948-29.224-77.723-19.127-42.752 15.542-60.267 75.411-29.344 109.976 2.999 3.446 3.221 2.526 3.156 5.937-3.402 2.942-7.856 2.889-12.012 4.386-40.259 14.504-51.216 56.836-59.902 93.397-5.939.274-18.704.859-23.244-2.795l.003-2.27c4.824-3.699 20.891.295 20.671-5.234-1.906-47.916.886-96.648 8.406-144.271 8.831-55.931 19.094-122.271 87.88-129.936-18.162-12.072-29.369-27.134-31.768-49.367a63.84 63.84 0 0 1 13.901-47.021c12.268-14.954 27.146-20.471 45.741-22.475"/><path d="M1648.11 429.226c30.59-3.167 61.75 32.993 86.13 48.965 11.98 7.846 27.06 18.806 37.21 28.536.38.358.91 5.707-.44 6.125-16.98 12.427-38.47 32.602-49.04 50.964l-.58 1.022c-1.16-29.406-9-49.722-35.84-65.247-34.96-20.288-81.44-4.145-96.56 32.86-4.03 9.868-5.16 17.686-6.83 28.061-4.63-8.393-10.82-17.19-15.94-25.563-1.75-18.855 7.02-44.554 17.06-60.223 16.7-26.062 35.27-38.695 64.83-45.5m-618.46 657.194c2.05.49 2.86 1.08 4.65 2.1 3.24 4.63 3.34 12.05 3.87 17.96 1.46 21.36 2.57 43.47 2.72 64.96.1 14.42.98 27.57 1.71 41.98.65 11.51 1.43 23.02 2.36 34.51-.98 1.84-1.27 2.28-1.93 4.31l3.53 5.74c-.04 5.81-1.22 2.75-3.02 8.3 2.05 2.62 3.59 4.01 3.99 7.27-1.39 2.87-1.73 3.14-1.49 6.15 1.07 13.28 7.66 88.59-1.7 95.08l-2.3-.67c-4.02-5.12-4.9-16.62-6.86-23.61l-.18-.61-1.09.25c-.8 5.7-1.71 22.93-5.87 25.76l-1.97-1.57c-1.34-2.57-2.05-6.41-2.04-9.32.12-34.21-.73-68.63.48-102.8.53-15.2 1.91-31.09 1.79-46.21-.31-40.18-2.3-80.39-.08-120.57.25-4.54.43-5.58 3.43-9.01m526.53-580.142 1.87.114.97 1.507c-.79 4.992-1.04 13.662-2.2 17.472-3.62-.425-6.46-3.321-9.85-5.731-4.91-3.489-11.37-6.413-16.85-9.118 8.71-1.271 17.4-2.685 26.06-4.244"/></svg>