<svg xmlns="http://www.w3.org/2000/svg" preserveAspectRatio="xMidYMid meet" viewBox="0 0 2048 1462"><path d="M90.483 104.337c9.521.516 22.571.043 32.45.156q39.534.671 79.074.494l170.663 1.205 1102.12 10.725 312.82 2.872 119.63 1.059c20.24.18 40.54.208 60.77.484 4.4.06 9.21.482 12.6 3.339 1.22 1.035 2.23 2.223 2.04 3.8-1.26 10.653-33.5 58.491-39.33 63.813-8.26 1.573-12.6 1.007-20.93.638-7.74 14.701-22.55 44.497-35.4 52.793l-17.04.226c-13.97 20.891-22.85 32.252-38.73 51.73-2.57 35.101-2.56 79.229-3.51 115.307l-5.93 213.433c-6.15 196.896-14.68 395.599-18.7 592.339-.5 22.54-1.92 45.7-2.31 68.28-.19 11.32.28 51.66-4.99 59.68-12.71 3.35-53.03 1.35-68.67 1.11l-96.68-1.3-267.83-3.19c-290.7-2.78-581.409-3.84-872.121-3.19l-187.578 1.29q-33.662.705-67.33.87c-10.444.12-34.527 2.66-41.785-3.84-1.993-9.94-.278-37.01.173-48.99l1.724-54.52 8.193-241.478 20.429-710.996c-9.711-17.386-23.404-33.896-32.712-51.484-9.902-.141-17.001-.293-26.808-1.428-11.973-10.843-14.592-35.895-18.142-52.493-5.352.005-27.493.583-30.759-2.469-11.424-10.676-24.906-35.424-34-48.363-9.219-13.117-7.987-20.303 8.599-21.902"/><path fill="#fefefe" d="m244.257 285.922 116.259.865c22.533.197 52.331-.376 74.354 1.325.397 25.278-1.291 55.814-2.17 81.409l-4.642 136.766-16.441 466.317c-1.91 52.996-6.429 107.836-4.489 160.656.413 11.25 61.211 7.79 71.725 8.01 74.959 1.15 149.929 1.53 224.896 1.15l657.351 5.16c66.94.7 172.43 1.77 243.12 1.75 1.45-1.01 2.68-1.87 3.71-2.59 3.68-9.31 3.98-101.72 4.36-118.34l4.9-203.548 13.13-526.649c17.63-1.402 173.16.507 180.03 3.132 1.45 10.945-.39 50.639-.69 64.369-.8 45.349-1.89 90.692-3.24 136.028-2.11 53.492-2.88 108.761-4.51 162.431l-12.94 402.537c-2.39 88.1-5.46 176.18-9.19 264.23l-1045.774-9.9q-118.246-.51-236.49.45c-24.827.14-50.215-.62-74.852-.18-45.522.81-91.047 1.37-136.575 1.69-19.996.23-55.942 1.75-74.887.16 2.408-33.93 3.026-76.47 3.893-110.59l3.897-121.4 16.66-542.565 5.774-191.479q.882-20.697 1.414-41.405c.21-8.764.047-21.419 1.417-29.789"/><path d="M286.905 330.2c15.702-.673 95.474-2.197 104.312 4.334 1.588 16.834.188 37.464-.217 54.781a7735 7735 0 0 1-3.429 108.546 25541 25541 0 0 1-13.041 359.091l-6.442 162.218-2.19 55.47c-.357 8.96-.506 25.94-2.307 34.23-4.339 5.88-15.589 7.09-21.819 5.32-11.91-3.38-82.173 5.23-81.985-11.93.637-58.02 3.708-116.336 5.288-174.471l14.63-477.129c.576-24.27 1.244-48.175 2.348-72.467.602-13.241-.369-28 .955-41.335.216-2.174 2.496-4.919 3.897-6.658"/><path fill="#fefefe" d="M300.451 348.019c24.278-.026 49.556-.173 73.794.838l-17.369 521.578a11830 11830 0 0 1-5.177 142.575c-.855 24.72-.901 60.34-3.894 84l-9.555-.02c-7.3.08-56.875-1.25-60.527-3.95-.72-7.43.14-21.05.415-28.86l1.934-52.53 5.981-170.711 9.633-314.223 3.046-105.724c.57-23.928.532-49.182 1.719-72.973"/><path d="M1677.5 350.139c23.8.115 47.75 1.366 71.56 1.839 5.66.112 17.01.299 20.3 5.631 1.42 9.076-1.15 67.814-1.58 80.48l-4.72 161.467c-2.9 144.669-7.04 289.309-12.4 433.904-.45 13.2-.87 86.01-3.86 93.78-9.38 6-62.36-.01-76.23.81-4.31.25-15.02-1.66-18.22-5.27-2.01-13.64.66-66.9 1.13-83.57l4.56-173.898 9.13-352.094 3.12-116.461c.3-11.946-.05-28.909 1.24-40.814.29-2.64 3.72-4.552 5.97-5.804"/><path fill="#fefefe" d="M1689.02 368.987c20.51-.235 41.78 1.704 62.29 1.432a38314 38314 0 0 1-12.87 493.549l-5.07 172.532c-.74 24.08.03 52.1-1.9 75.67-21.19-.06-40.69-1.82-61.61-2.31-1.03-31.08 1.2-69.64 2.02-101.11l4.41-174.94c4.08-154.3 6.63-310.721 12.73-464.823"/><path d="m575.39 1272.5 981.15 7.67 105.98 1.26c15.26.22 30.51.11 45.78.61 16.44.55 15.05 18.82.71 18.66-18.07-.2-36.19-.42-54.27-.76l-102.03-1.77-89.97-1.19c-15.21-.11-39.66.5-54.1-.73l-.93-.09-246.98-3.19a44308 44308 0 0 0-655.238-1.4c-66.855.64-133.805 2.41-200.681 2.21-10.768-.03-23.704 1.08-34.242.37a13.3 13.3 0 0 1-5.754-1.74c-6.521-3.82-5.371-9.87-1.446-15.08 8.366-5.62 275.764-2.96 312.021-4.83m-78.328-48.95c24.021-.57 46.465.01 70.189-.1l216.249-.27c172.079-.18 344.16 1.04 516.22 3.65l290.98 4.08 82.82 1.35c11.69.24 23.43.36 35.09.69 6.86.2 12.92 3.41 11.29 11.12-2.33 11.05-28.85 7.08-38.76 6.97l-58.99-.83c-46.45-.95-94.6-1.28-140.9-2.99-53.54.7-109.71-1.51-163.48-2.11l-330.27-3.22-323.733-1.38c-125.274.61-250.908 3.7-376.225 4.39-5.104.03-19.483.79-22.765-2.04-6.584-5.69-4.878-17.37 7.452-17.37 15.419-.01 30.504.33 45.683.09 35.367-.67 70.737-1.14 106.109-1.42 23.089-.12 50.443.54 73.041-.61m64.586-51.09c6.404-.42 16.273.26 23.123.21 20.502-.3 41.008-.33 61.512-.11l144.45.37a46065 46065 0 0 1 736.937 5.54l103 1.5c16.09.2 85.82-3.63 92.13 9.07.19 5.41-4.55 11.17-9.98 11.2-24.14.12-48.28-1-72.41-1.21l-198.66-3.05-919.706-4.78c-27.329.04-248.288 4.07-254.761 1.1-2.841-1.3-4.308-4.01-5.29-6.81 1.289-14.4 32.643-10.56 43.097-10.54 16.617.06 33.234.02 49.851-.13 46.025-.09 92.048-.64 138.062-1.64 23.535-.34 44.773.24 68.645-.72"/><path fill="#fefefe" d="M456.443 287.581c18.86-.959 40.013.176 59.057.328q46.97-.063 93.94.432l294.316 2.793 422.404 3.49 158.84 1.984c41.4.286 86.19-.722 127.39 1.362-5.85 160.058-8.1 323.161-12.09 483.533-2.33 75.533-4.24 151.077-5.76 226.627-.97 39.99-2.75 82.55-2.51 122.32-18.09.62-168.6-.77-171.17-2.86.31-.75.58-1.51.91-2.25 8.09-18.25-24.52-125.07-30.07-150.585 59.31-6.739 102.03-42.145 114.18-99.567 2.1-4.796 8.98-13.373 4.9-18.958-7.18-9.835-19.63 4.613-25.69-9.341l-68.89-162.536c-14.84-35.008-31.06-69.778-44.11-105.36 4.31-13.447 9.98-12.799 13.85-27.361-1.53-7.469-4.59-14.607-11-19.229a19.58 19.58 0 0 0-15.16-3.418c-19.53 3.501-20.97 22-18.2 37.799-1.97 2.095-4.29 4.19-6.4 6.184-12.39 2.386-21.57 1.535-33.98.64-22.23-2.179-39.31-7.627-60.71-11.75a552 552 0 0 0-88.48-9.054c-2.62-50.78.99-103.789-6.12-154.533-.9-6.471-3.82-14.049-5.77-20.364-30.42-98.587-174.012-97.99-219.378-12.489-19.31 36.393-18.722 63.204-21.558 103.724-1.859 26.559-3.023 55.448-6.011 82.045-22.175-.411-64.995 3.345-87.044 7.555-42.833 8.177-63.429 21.302-109.344 9.858 1.61-2.946 4.248-6.628 6.171-9.49-.069-5.42-.737-11.921-1.157-17.409-7.449-10.39-13.109-12.354-25.433-13.686-26.24 9.93-28.011 31.614-3.758 46.065-5.948 13.933-11.693 29.613-17.664 43.92l-62.453 148.048c-12.139 29.022-23.892 59.105-36.383 87.793-8.571.427-22.188-.191-27.42 7.637-1.261 6.031 3.322 9.735 8.267 12.135 17.593 62.387 61.251 98.724 126.271 101.504-1.809 8.927-3.992 18.08-6.142 26.943-9.805 40.42-17.415 81.93-28.361 122.03l-203.66-3.22c-.909-16.7 1.697-56.17 2.429-74.01l3.808-117.005a40599 40599 0 0 1 15.298-416.46c1.805-45.525 4.267-95.129 5.355-140.534l1.205-56.175c.169-6.613.222-22.192 1.443-28.055zM107.38 121.86c102.291 2.23 205.256 2.314 307.611 3.516l1009.629 9.123 353.35 3.224 109.78 1.095c19.66.211 45.19-.199 64.28 1.462-5.43 7.054-18.03 31.377-21.09 33.975-5.93.615-32.53-.333-39.45-.412l-86.34-.659-315.44-3.187-882.543-8.172a26487 26487 0 0 0-306.46-2.951c-41.707-.434-83.323-1.826-125.049-1.048-14.52.27-28.706-.499-43.305.384-11.718-11.791-16.323-22.876-24.973-36.35m62.2 54.332c80.098-1.073 166.433 1.292 246.623 2.541l230.431 1.991 870.056 8.567 294.24 2.906c28.98.202 57.69 1.007 86.71.886l-10.97 18.273c-3.33 7.834-5.12 10.64-10.32 17.352L807.655 217.82l-436.722-3.67c-60.162-.646-120.336-.708-180.504-1.642-23.468-.364-16.276-15.283-20.849-36.316m47.309 54.772c87.562 2.27 178.905 1.758 266.757 2.392l418.314 3.984 941.76 9.638-14.74 21.413a453 453 0 0 0-10.1 13.494c-27.43-1.429-59.72-.728-87.7-1.039l-212.83-2.148-902.154-8.684-262.075-1.749c-35.385-.365-79.292.914-113.75-1.106-7.249-12.64-17.633-23.95-23.482-36.195"/><path fill="#fefefe" d="M1075.71 662.129c1.95 2.032 16.04 72.795 18.47 83.633a14244 14244 0 0 0 70.95 299.658c-8.05.41-16.1.72-24.16.92a60 60 0 0 0-4.11-4.77c-28.24-28.86-63.35-30.65-101.02-30.61 1.33-52.753-.39-107.37.66-160.449-1.31-24.049-.41-58.074-.5-83.043l.34-55.859c.08-10.917-1.03-22.171-.65-33.119.17-4.631-.24-7.435 4.98-7.4 5.79.04 3.51 3.262 5.22 7.613 13.66 78.032 26.86 156.153 40.81 234.138 1.27 7.085 5.39 7.125 11.57 5.791 3.54-5.266-1-22.304-2.16-29.3l-9.47-56.026-29.72-165.468c7.03-1.629 12.04-3.372 18.79-5.709m-399.16-57.627c6.433 5.156 45.409 125.523 56.392 145.787-10.134 33.17-20.746 70.706-30.13 104.039-24.15.487-48.308.491-72.458.011-11.861 1.101-44.045-.189-57.385-.372 6.836-20.7 23.657-58.863 32.417-80.146zm688.65 4.197c2.6 2.804 17.76 38.034 19.96 43.026a5162 5162 0 0 1 85.6 201.859c-13.3.648-28.9-1.147-43.51-.339-20.7-.902-45.92 1.036-66.07-1.548-13.23-38.685-29.84-79.071-41.66-117.508 6.53-14.076 16.65-45.039 22.34-60.852 7.34-20.434 16.97-44.495 23.34-64.638m-336.32-247.056c12.36-.931 49.91 29.025 57.38 39.237 3.45 3.431 11.83 23.248 15.38 24.674 12.42 3.806 20.54-1.844 20.46 15.594-.07 14.703-19.39 7.526-21.3 11.639-9.46 20.314-13.22 39.987-31.08 56.11-15.14 13.663-29.93 13.696-49.19 12.951-33.501-4.97-49.658-22.11-61.331-53.938-2.431-6.629-1.822-14.394-5.122-20.941-4.992-2.724-18.661 3.456-22.431-3.7-9.876-18.747 6.184-21.096 19.228-19.227 3.78-6.081 10.772-17.664 15.383-22.274 19.71-19.701 39.393-21.223 62.623-40.125"/><path d="M1030.97 419.387c1.54.383 4.13.68 4.9 1.809 6.09 8.922.01 37.761-6.75 43.66-1.07-.145-3.79-.475-4.37-1.105-6.87-7.492 1.51-38.556 6.22-44.364m-25.26 54.524c8.61 1.98 31.83.653 33.6 8.858-1.01 3.536-1.9 3.933-4.91 6.17-9.2-.196-28.65 1.809-32.43-8.476.98-4.368.32-2.733 3.74-6.552m-9.936-63.798c4.776.174 7.666-.082 10.576 3.862l-.43 2.539c-5.56 6.738-9.537 7.176-17.688 9.788-3.304.937-6.134-.053-8.74-2.044l.509.742c-1.271-2.684-.918-1.728-.309-5.193 5.264-7.139 7.417-6.928 16.082-9.694m57.526-1.319c7.76.178 18.87 2.784 23.65 9.314 2.17 2.958 1.01 5.28.41 8.524-7.23.342-21.14-4.312-25.14-10.758-.8-3.206-.23-3.815 1.08-7.08"/><path fill="#fefefe" d="m994.381 670.998 6.529.761c2.21 3.168 1.14 62.353 1.14 72.236l-.04 272.415-2.76.89c-30.988 10.18-54.048 30.78-68.678 59.73 4.485 6.82.059 13.45.828 23.43 1.584 2.27 2.859 3.6 3.214 6.33-2.317 1.77-4.027 1.43-7.134 1.56l-20.5-.74c2.318-16.28 6.463-32.61 10.007-48.71l14.274-67.391 42.464-210.805a5769 5769 0 0 0 14.025-69.668c1.983-10.105 6.361-30.617 6.631-40.038m-86.04-111.474c25.941.654 83.201 11.384 98.739 32.14.75 3.056 1.1 3.525.11 6.345-10.149-5.019-18.566-10.951-29.986-16.25-27.106-12.579-54.059-16.787-83.652-17.341-1.92 10.762-2.441 29.615-3.715 41.878-40.731 9.499-65.266 9.874-97.356 41.836-8.512 8.478-16.933 16.62-23.978 26.679-14.94 20.614-18.277 30.979-29.29 52.447l-1.077-.359c-6.374-20.501-50.259-132.692-49.953-143.361 2.438-2.49 18.118 2.023 22.907 2.658 6.91.917 13.889 1.217 20.852.897 28.313-1.126 55.134-10.807 82.784-15.908 24.382-4.497 49.668-5.725 74.31-7.9 8.245-.728 8.131-3.558 19.305-3.761m205.069 2.841c41.46-2.697 98.91 8.232 140.07 14.844 28.49 4.578 65.72 18.171 94.66 5.866 2.92 1.012 5.44 4.153 7.74 6.49-5.2 19.804-14.98 39.942-21.42 59.555-7.12 21.66-16.28 42.705-23.99 64.133-6.97-15.235-11.11-22.634-20.3-36.733-24.52-36.573-59.57-56.388-101.82-66.124-10.72-2.473-24.16-2.845-35.25-3.559.31-12.692-.02-26.116-.13-38.864-37.89-.759-66.24 2.136-100.08 20.752-4.29 2.36-11.34 6.303-16.17 4.954l-.38-1.523c7.21-16.612 60.55-27.727 77.07-29.791"/><path fill="#fefefe" d="M1024.3 1023.25c28.36-1.22 59.28-2.2 84.88 11.78 8.17 4.45 26.21 22.06 28.81 31.03 4.09 14.14 7.8 29.28 11.91 43.57-33.31-1.66-64.95-2.31-98.29-1.07-21.74.82-44.18-.74-66.064-.73l-.002-1.02c13.278-10.77 28.866-14.3 45.256-12.29 6.66.82 12.54 1.78 15.2-5.53-1.65-8.34-11.93-6.94-19.28-7.23-22.01-.88-46.002 11.21-61.395 26.47-4.876-.05-11.561.82-15.915-.69l-.164-1.45 4.056-3.26c16.432-12.93 26.562-17.41 46.012-24.85 10.386-3.98 23.546-2.03 29.906-7.78 1.43-3.88 1.5-2.48.69-6.12-9.87-8.91-56.91 10.03-67.73 17.98-6.529 4.79-14.431 10.12-21.183 14.65 16.968-42.04 81.583-45.61 85.973-53.54.79-1.42.19-2.01-.24-3.47-2.07-2.24-4.42-3.51-7.52-3.23-25.79 2.3-55.501 17.71-73.371 34.99a90 90 0 0 1 3.699-5.89c10.384-15.28 32.245-31.05 49.868-36.89 6.554-2.17 17.854-4.11 24.894-5.43m-203.865 95.24c4.814.62 19.009.16 24.964.17 16.066.07 32.132.23 48.196.49 69.13.98 137.945 2.04 207.075.74 20.52-.39 41.91 1.92 62.56 1.66 11.71-.15 23.5 1.28 35.19-.49l7.2 11.7c-5.18.87-24.22.34-30.62.29-22.63-.14-45.26-.43-67.89-.88-69.39-1.16-139.131-2.22-208.505-1.78-12.262.08-76.883 1.88-82.844-2.62-1.457-1.1-1.154-1.59-1.459-3.28 1.848-3.49 2.699-3.71 6.133-6m193.745-502.628c4.57 1.439 6.08.404 9.38 3.355 1.42 16.689.93 41.275 1.06 58.46l-.16 124.024-.5 136.768c-.06 23.542.84 49.969-.35 73.191-3.61.7-5.2 1.68-8.12.43-3.56-7.76-1.63-68.792-1.65-82.635-.54-56.211-.41-112.427.37-168.635l.12-96.437c-.04-15.724-1.03-32.951-.15-48.521m-33.713-94.629a156 156 0 0 0 17.614 8.052c23.529 8.917 44.389 7.377 66.899-2.588 1.47 12.091 4.14 20.622 7.57 32.209-8.25 2.285-14.1 3.963-22.12 7.047-12.77 4.732-19.91 12.367-29.62 21.448-16.35-17.928-24.943-21.343-47.809-29.095 2.676-11.603 5.869-25.452 7.466-37.073m96.533 71.76c2.56.568 10.12 10.651 15.32 13.279 9.91 5.007 21.12 6.979 31.8 9.429-15.18 14.634-33.42 24.877-52.86 32.75-13.63 5.031-20.85 6.255-35.07 8.268-.61-12.905-1.2-26.955-.46-39.79 20.21-16.076 15.54-14.643 41.27-23.936m-111.414.396c18.07 1.529 24.651 8.647 37.624 20.613-.63 14.515-.58 29.938-.68 44.504-8.67-3.051-16.82-6.571-25.277-10.142-19.381-7.705-35.681-15.587-48.609-32.427a846 846 0 0 0 15.922-4.596c11.451-3.48 15.61-7.793 21.02-17.952m195.474 464.001c3.47-.48 5.12-1.05 8.4.22 5.88 7.38 15.96 41 20 52.26l-11.96-.03c-4.75.06-13.41.77-17.2-1.6-.02-.17-.25-2.31-.24-2.4.69-12.06-11.46-37.47-10.66-47 4.46-1.01 7.11-1.13 11.66-1.45M787.241 878.323c4.134-.134 7.298-.581 11.166.794l.746 1.75c-.509 5.466-3.108 8.834-4.849 13.739-13.918 39.222-47.703 63.007-88.42 68.238q-1.74.342-3.488.638c-2.099.337-5.273.978-6.839-.178 36.401-7.65 65.654-26.809 82.335-61.107 3.588-7.377 6.267-16.148 9.349-23.874m537.779 83.87c-35.75-13.021-54.28-26.382-71.7-60.653-2.86-5.627-8.15-15.18-6.19-21.366 2.87-1.657 6.81-1.133 10.33-1.091 15.14 43.278 30.11 60.898 71.23 81.555 5.15 1.929 11.24 3.949 15.82 6.828-5.7-.492-13.91-3.353-19.49-5.273M743.486 757.634c7.952 5.153 34.279 82.914 37.185 95.753l-1.622 1.45c-2.535-.152-4.642-.406-7.163-.728l-1.716-1.351c-8.599-27.165-20.947-63.287-30.823-89.134.715-3.162 1.702-3.386 4.139-5.99m567.124-11.873c.74 7.396-29.26 96.734-33.87 105.4-2.5 1.554-6.11.998-9.21.898-.52-3.039 19.32-52.307 21.85-59.771 4.49-13.292 14.54-33.903 21.23-46.527M676.393 540.732c16.12 1.558 19.032 11.805 4.547 20.054-12.966.805-17.971-11.418-4.547-20.054m682.847.108c8.1-.633 15.17 4.043 11.9 12.599-2.69 2.371-1.19 1.885-4.56 1.765-6.22-.403-9.98 2.926-14.22-2.917.17-4.737 3.71-8.116 6.88-11.447m-254.82 38.546c8.78 1.703 14.75 5.449 8.86 13.949-4.7-.754-8.67-2.661-10.87-6.995-.29-4.374-.6-2.598 2.01-6.954m-173.752 1.47c2.05.158 3.78.439 5.803.736 2.832 2.213 2.001.827 2.731 4.203-.938 3.737-2.539 4.98-5.125 7.858-2.446-.257-3.289-.604-5.561-1.35-2.679-2.909-2.134-1.522-2.559-5.185 1.071-3.504 1.787-3.749 4.711-6.262"/></svg>