<svg xmlns="http://www.w3.org/2000/svg" preserveAspectRatio="xMidYMid meet" viewBox="0 0 2048 2048"><path d="M997.422 161.443c238.608-7.772 471.738 72.552 654.918 225.655 179.96 152.71 293.64 362.929 300.71 600.706 1.29 43.556.43 92.116-4.41 135.326-1.45 12.9-3.19 25.76-5.21 38.59-1.59 9.57-4.02 20.76-4.66 30.48-.16 7.99 1.69 16.09 3.24 23.88 5.99 30.14 9.2 60.42 11.67 91.05q3.18 42.96 4.44 86.01c.34 11.28 1.62 23.58.31 34.79-.63 5.35-2.04 11.61-5.81 15.69-15.33 16.59-104.41 19.18-127.58 19.43-31.6 52.42-56.28 85.91-98.54 129.99-176.78 183.55-418.8 290-673.56 296.25-65.517 2.97-137.801-3.44-202.2-14.56a961.07 961.07 0 0 1-551.81-306.36c-30.221-33.7-56.67-69.5-82.747-106.4-34.779-1.36-89.509-2.79-118.631-23.45-11.773-8.35-7.823-39.21-7.319-52.93 1.28-45.14 5.025-90.17 11.22-134.9 2.682-18.27 7.052-36.67 9.266-54.93.068-7.66-1.601-16.43-3.102-23.88-7.852-38.97-10.586-77.56-12.105-117.29-9.694-217.759 68.853-430.225 217.864-589.315a954.98 954.98 0 0 1 581.177-296.286c35.372-4.586 67.519-6.206 102.869-7.546"/><path fill="#fefefe" d="M1021.91 247.501c12.86 2.792 12.44 14.213 13.39 25.31 43.05 2.102 99.55 6.244 141.8 14.363 2.14-8.331 4.28-20.695 14.9-21.609 10.48 2.911 7.62 17.014 6.68 24.996 15.22 4.109 33.32 7.344 48.99 11.095a685 685 0 0 1 78.46 23.932c4.45-6.932 9.99-17.477 17.45-20.311 3.77.272 3.61.35 6.7 2.17 7.07 11.095-10.15 22.324 6.14 29.124 47.02 19.616 101.04 43.559 142.21 73.589 19.09-16.054 32.18-9.878 17.29 12.737 11.99 9.444 26.31 18.877 38.81 28.419 32.21 24.563 58.91 47.851 86.75 76.938 15.04-2.798 20.69 2.481 12.37 16.592 10.4 7.414 30.69 31.852 38.21 42.898-10.16 7.084-21.78 14.27-32.29 21.433-16.73-13.3-28.75-14.698-46.2-3.385-4.54-3.394-7.63-4.88-12.59-7.448 7.69-7.911 59.15-56.669 52.16-66.285-8.3-1.791-21.85 8.825-29.06 13.149-32.08 19.247-59.94 40.88-86.54 67.24-18.31 18.138-37.09 35.246-53.49 55.599l34.99-6.078c2.04 31.818 4.72 40.833 20.23 67.544 14.67 25.257 16.87 27.251 37.57 47.901-10.17 8.535-32.34 23.271-44.02 31.296 18.71-4.485 48.91-7.727 64.82-12.842 45.9 35.457 53.77 45.267 69.24 104.139-15.22 2.783-34.61 6.822-49.07 12.025-21.87 7.866-43.03 17.361-64.98 25.405 30.47-.308 95.81.702 122.64-5.064 7.23 43.065 16.29 72.417 29.17 113.787-38.04-4.99-92.07 3.21-129.96 10.97 8.63 3.19 23.22 6.7 32.6 9.28 39.25 10.8 67.81 18 108.88 16.41 7.75 27.08 15.75 60.17 18.3 88.24-9.77-4.44-19.84-9.98-30.1-14.62a813 813 0 0 0-76.24-29.93c-53.19-17.87-91.24-24.26-144.25-35.99a454.75 454.75 0 0 0-38.8-214.93c-44.44-101.936-133.98-195.273-238.17-236.319a178.8 178.8 0 0 0-56.02-78.469c-43.43-34.987-91.07-41.103-144.84-35.42-84.58 9.721-142.196 51.25-166.935 134.011-54.009 29.086-105.767 75.094-143.526 122.869-54.39 68.817-87.768 152.607-96.699 239.708-2.602 25.37-4.77 52.91-1.717 78.38a3104 3104 0 0 0-254.402 61c-11.317 3.32-21.019 7.8-32.199 11.21 5.769-30.42 14.247-58.67 21.267-88.59 45.777-2.06 104.488-11.11 145.702-31.48-43.049-7.21-89.866-8.73-133.464-7.47 11.544-38.92 19.226-71.294 27.498-111.131 31.561 5.434 82.759 3.719 114.3.17-21.627-12.879-81.145-34.277-106.019-35.221 17.341-63.649 19.291-67.616 72.49-103.797 23.549 6.799 34.36 9.372 58.187 12.668-10.164-8.56-28.417-24.582-39.52-30.951 5.122-4.638 10.086-9.881 14.272-15.205 18.978-24.142 33.9-38.837 38.626-70.55 1.747-11.719 3.644-17.601 2.398-30.237 13.136 7.249 22.46 11.541 36.352 16.744-35.695-53.655-79.963-92.611-132.36-129.206-7.43-5.189-27.584-25.569-34.645-24.367-11.251 10.003 42.331 70.93 50.095 80.831-6.947.002-9.499.197-16.117 2.17-12.627-8.42-18.115-7.882-32.103-3.412-5.975-2.297-11.257-3.575-17.438-5.182-6.283 2.017-9.618 3.249-15.273 6.768-5.272-5.387-7.059-7.126-13.184-11.505 10.344-15.558 30.496-37.14 43.256-52.587-3.736-6.383-8.713-14.684-1.369-20.23 6.696-1.168 9.662 1.933 15.265 5.706 16.163-13.974 32.139-31.644 49.454-46.546 27.027-23.26 51.156-40.238 79.522-60.847-4.813-6.161-11.08-13.434-6.211-21.287 9.309-5.469 15.459 3.858 20.363 10.515 17.437-7.218 41.575-25.237 59.983-33.945 17.135-8.105 33.319-16.781 51.041-24.443 13.43-5.807 30.773-12.321 43.255-18.955-1.976-8.456-6.898-19.285-2.265-27.384 9.015-4.361 18.453 14.155 22.387 20.615 6.977-1.858 15.258-4.736 22.064-7.22 38.184-13.938 77.8-20.288 116.877-30.222-.435-8.191-2.289-19.424 4.453-25.45 10.519-2.246 13.676 14.694 15.807 22.002 4.404-.298 9.598-.958 14.011-1.594 38.169-5.498 75.92-7.165 114.421-8.795.87-10.82.43-17.396 7.97-25.439"/><path d="M534.249 399.545c.389.028.779.041 1.167.085 11.911 1.375 85.626 83.617 95.31 96.468 8.477 11.249 45.839 69.754 44.513 79.029-52.452-34.136-86.193-65.477-116.586-121.036-7.302-13.349-16.267-28.123-23.092-41.838-2.591-5.205-3.317-7.611-1.312-12.708m173.038-93.179c.509.16 2.085.651 2.407.793 6.215 2.735 52.158 80.197 57.156 90.297 5.621 11.36 9.893 23.344 13.661 35.429 3.622 11.618 18.245 64.724 14.436 71.988-42.123-50.116-64.346-92.546-80.759-155.923-3.002-11.593-6.971-23.578-8.829-35.323-.707-4.469-.207-4.433 1.928-7.261m807.003 97.248 3.7 1.702c.61.94 1.92 2.323 1.53 3.567-3.96 12.439-12.44 23.292-19.04 34.654-30.05 51.8-68.24 94.767-116.51 130.672l-1.56 1.304-1.06-.435c1.24-6.652 10.02-24.509 13.37-30.652 22.44-41.24 48.04-76.479 82.61-108.403 11.75-10.858 23.62-23.101 36.96-32.409m-170.81-94.049c3.27.511 3.52.636 4.49 3.346-14.21 73.682-43.39 133.105-90.08 191.422-.71.881-.21.424-1.73 1.058-1.36-16.469 12.67-63.441 18.31-79.463 9.26-26.305 27.97-54.503 42.58-78.554 6.62-10.902 17.34-29.552 26.43-37.809m-154.34-41.1c10.39 2.354 5.59 25.398 5.28 34.57-2.04 60.541-18.48 112.804-47.52 165.637l-1.63 1.806-.9-1.285c-3.62-61.554 4.95-107.531 29.02-163.658 4.55-10.598 8.28-28.567 15.75-37.07m-317.927-4.24c.994.279 3.194.597 3.579 1.509 25.76 60.968 48.844 135.801 40.401 201.073-15.592-21.955-35.525-71.03-39.995-96.918-3.387-19.606-11.2-89.953-3.985-105.664m150.587-11.842c3.48.399 3.47.121 6.16 2.254 5.22 10.91 4.89 28.449 6.94 40.705 9.86 58.939 7.2 106.525-10.57 163.968l-1.13-.277c-8.05-26.433-17.49-78.681-15.34-105.644 1.22-15.364 8.69-90.559 13.94-101.006"/><path fill="#fefefe" d="M992.613 183.443a1081 1081 0 0 1 124.287 3.785c247.46 21.728 476.05 141.235 635.11 332.045a801.5 801.5 0 0 1 78.18 114.126c95.07 164.996 113.25 325.461 94.94 511.621a515 515 0 0 0-21.56-79.93c-3.07-8.58-13.18-28.07-14.03-35.22-1.7-14.36-1.66-33.925-2.34-48.695a628 628 0 0 0-7.15-69.485 737.9 737.9 0 0 0-192.97-396.424c-167.87-180.936-389.02-273.847-633.83-282.935-192.566-7.319-397.526 49.911-554.816 162.193C330.268 514.57 210.61 678.978 171.918 883.923a640 640 0 0 0-10.741 87.991c-.933 19.62-.605 42.346-3.067 61.576-.643 5.02-9.672 23.5-11.721 30.22-7.984 26.17-18.071 58.2-22.571 84.97a772 772 0 0 1-6.437-73.56c-2.058-45.24-2.059-101.82 3.16-146.57 19.739-169.23 91.429-321.52 206.741-446.411C503.714 291.051 735.56 194.873 992.613 183.443"/><path fill="#fefefe" d="M1700.06 606.899c5.65.987 8.59 2.542 12.76 6.798 18.78 17.685 14.9 44.393 21.39 65.839 9.29 30.715 11.18 58.265 15.21 89.738.34 2.63 2.21 10.276 3.24 12.802 32.83 80.874 71.26 159.567 110.32 237.604 21.55 43.24 34.39 91.61 45.02 138.5 5.5 24.28 11.83 48.1 16.76 72.46 10.23 63.21 14.52 136.34 14.25 200.8-45.17 13.36-158.51 15.3-205.14 8.24-1.42-6.83-2.89-11.68-4.97-18.35 5.15-1.98 8.78-4.51 11.75-9.91 4.27-7.74-12.34-15.97-12.9-18.18-1.34-5.34-4.04-15.12-5.59-20.75 29.9-16.39 11.18-22.33-1.11-40.26-4.13-6.03 9.6-11.08 13.26-19.89.96-5.57.9-12.23-3.85-16.06-8.71-7.02-5.04-15.35-2.73-24.61 21.81-5.87 19.52-15.22 9.07-31.05-.17-4.48 2.84-17.89 4.42-22.47l1.28-.39c3.39 4.74 9.62 15.35 15.59 14.47 10.92-13.57-15.22-129.34-21.24-150.4-8.37-29.33-20.57-62.11-28.34-91.999-14.13-54.304-19.45-111.879-48.07-161.275-16.39-28.007-57.87-47.848-80.49-73.233-14.14-14.312-20.98-33.426-31.85-49.928-6.71-10.194-18.98-51.304-6.59-57.5 19.64 1.218 17.58 31.369 23.27 42.571 9.66 14.448 22.51 45.1 33.99 56.526 9.49 9.437 32.34 14.817 42.5.091l.69-1.005c10.11-2.124 16.8-2.383 22.39-11.941 6 3.059 13.72 7.125 20.73 5.258 6.2-1.405 13.18-6.004 19.35-6.998 7.92-1.276 25.4-.382 26.39-12.281 1.4-16.731-10.96-35.38-14.75-51.654-3.11-13.347-3.88-27.445-8.35-40.393-1-2.833-10.27-14.88-12.6-17.992l.56-1.396zm-1360.537 3.437c4.15.322 4.447.202 7.613 2.641 5.211 8.232-1.354 24.282-3.66 33.5-4.099 16.39-6.591 33.137-14.638 48.16-3.041 5.678-4.641 11.05-4.494 17.517 1.46 2.359 19.823 19.871 23.578 21.879.86.981 4.518-.007 5.344-.47 13.648-5.836 5.691 12.022 22.962 6.405 17.148-5.576 8.402 23.988 36.159 3.813 8.036 10.495 22.386 23.349 32.862 8.571 15.287-21.566 27.894-49.883 38.137-74.281 4.63-11.029 2.757-24.091 10.608-34.004 2.258-.911 3.325-1.406 5.79-.414 2.597 1.045 4.503 3.408 5.596 5.902 5.026 11.464 1.814 24.545-.61 36.173-6.044 28.989-7.818 28.476-25.383 51.611-9.675 12.744-19.311 25.242-31.596 35.65-27.742 23.506-55.708 32.354-69.794 68.549-19.711 50.649-26.825 104.152-40.236 156.421-6.31 24.591-14.964 48.511-21.807 72.951-6.274 22.4-36.762 142.36-30.353 155.12 1.4 2.79 2.76 4.02 5.701 4.92 6.257-1.86 8.842-8.81 12.293-14.52 2.263 5.2 6.41 8.07 11.041 11.14-.594 15.29-2.069 9.05-7.694 19.69-7.636 17.89 15.861 20.06 19.797 32.24 2.375 7.35-9.309 11.52-13.463 18-9.135 25.24 16.899 20.31 15.164 36.13-1.679 15.31-33.854 15.07-7.778 40.5.123 7.91 3.44 13.06 1.815 19.53-7.399 9.24-30.67 4.45-11.277 35.35-.5 5.1-.865 8.3-1.896 13.38-44.843.76-165.94 5.74-200.418-19.61-.44-17.77 1.067-37.32 1.784-55.22 1.81-45.18 6.034-90.76 13.794-135.31 2.62-15.05 7.689-31.08 10.896-46.16 5.329-25.06 10.188-50.1 16.999-74.81 10.983-39.86 26.337-78.28 44.408-115.438 18.165-37.355 36.559-74.64 54.49-112.147 13.407-28.045 27.151-56.051 37.588-85.424 9.084-25.566 12.385-51.928 20.438-77.777 4.196-13.469 11.53-24.582 15.299-37.75 1.739-6.072 1.6-15.248 1.693-21.844.281-19.853 2.455-33.816 13.248-50.564m-52.355 851.094c4.152-.36 10.687-.32 15.067-.42a929 929 0 0 0 188.689 187.43c195.003 140.17 437.456 197.68 674.636 160.04 206.92-31.44 396.43-133.98 535.93-290 15.17-17.22 32.56-37.37 46.07-55.9 18.05.59 36.11 1.04 54.17 1.35-11.48 18.48-23.8 34.76-36.96 52.09-59.89 73.58-122.85 134.31-201.71 187.15-214.54 144.47-478 197.04-731.56 145.98a940.72 940.72 0 0 1-548.988-335.06c-13.076-16.54-26.736-33.92-38.442-51.39 14.599-.21 28.532-.41 43.098-1.27m926.642-796.11c45.57 17.882 95.31 57.624 128.66 92.769A440.23 440.23 0 0 1 1462 1018.31c2.21 23.11 1.83 45.65 1.2 68.81-4.37-.54-8.96-.94-13.36-1.4-35.03-4.31-74.29-4.41-109.42-.4-13.61.42-33.51 8.03-46.57 7.29-16.26-.93-33.98-11.34-51.4-12.97-1.04-21.2-6.4-50.86-9.74-72.54-6.71-43.52-12.62-84.967-15.49-129.112-4.82-74.359 9.24-137.947-3.41-212.668m-380.018 19.778c1.044 2.434-1.286 41.808-.939 49.771 2.089 47.924 6.47 91.072 4.617 139.162-2.656 68.918-16.065 137.299-19.596 205.389-15.79 7.39-42.356 17.91-59.372 19.27-5.088.41-24.141-5.16-33.034-6.08-32.952-3.43-62.122-1.77-94.707 2.8l-15.323 2.09a488.4 488.4 0 0 1 10.807-123.197c27.675-125.358 100.254-220.572 207.547-289.205"/><path fill="#fefefe" d="M661.68 1324c1.429 2.03 6.96 55.44 7.735 62.03a9884 9884 0 0 0 28.893 229.83c6.357 47.81 10.394 91.02 20.886 138.33l-2.404-3.82c-6.205-9.91-7.401-18.86-8.196-30.2-43.86-15.05-74.135-31.83-113.965-53.34a482.5 482.5 0 0 0 44.111-49.09c15.901-20.02 38.147-53.24 44.09-79.23.933-4.08-1.425-21.97-2.022-27.2a76 76 0 0 0-5.517 5.01 367.7 367.7 0 0 0-81.258 121.4c-3.516 8.53-8.25 18.83-9.66 27.95-1.028 6.64 3.394 4.73 3.358 9.87-2.813 3.29-2.697 3.25-6.342 5.51l-1.276-.64c-.919-5.27.747-15.86 1.312-21.85-17.713-6.85-58.95-36.63-75.162-48.41-22.201-16.76-42.624-32.67-62.732-52.08 56.457-31.59 122.098-87.78 147.625-148.24-47.276 17.13-106.333 80.4-137.775 118.55-6.051 7.34-24.013 28.54-30.467 31.93l-1.594-.91-.031-1.9c2.825-3.85 8.645-7.76 12.617-10.78-30.423-24.78-56.018-59-80.993-89.01 20.105-3.02 44.116-10.95 63.578-17.4A1185 1185 0 0 0 661.68 1324m360.92-684.426c2.21 1.996 6.6 7.743 8.94 10.376 25.65 28.943 69.37 31.561 98.24 54.992 29.13 23.639 23.24 63.153 22.29 96.16-.82 28.357-1.71 52.741-14.26 78.843-21.63 44.989-55.23 81.447-107.64 84.329-68.367-.138-120.36-77.282-128.562-139.064-2.619-19.726-5.138-77.067 2.263-94.439 9.57-22.465 67.122-41.134 86.1-57.652 16.419-13.505 19.119-16.007 32.629-33.545"/><path d="M971.032 862.353c18.165-1.309 36.708.349 54.898 1.596 12.64.867 61.31-6.938 68.07 4.311-1.41 4.144-6.27 5.384-9.95 6.737-17.8 4.618-118.386 13.581-118.16-7.986 1.554-3.134 2.057-3.023 5.142-4.658m-12.434-137.071c10.751-.657 36.487-.42 38.223 13.409l-1.605 1.881c-6.997 2.909-10.65.562-17.855-1.999-10.702-.662-35.966 5.253-42.616-1.485l.183-2.115c6.251-7.526 14.361-8.052 23.67-9.691m114.722-.059c10.52-.739 35.59-1.847 37.51 12.13l-1.7 2.119c-6.96 3.31-10.76 1.323-18.36-.569-11.72-1.931-33.51 5.488-40.18-1.073l.27-2.304c5.35-7.625 13.69-8.531 22.46-10.303m-64.52 96.659c2.23.02 10.04.893 11.59 1.67 8.27 4.139 25-5.264 30.33 2.725-.46 3.195-1.07 3.357-3.29 5.725-10.19 5.513-35.47 8.553-40.6-3.561 0-3.687-.01-3.42 1.97-6.559"/><path fill="#fefefe" d="M1401.58 1333.64c97.47 57.45 183.31 98.25 294.62 120.99-30.98 37.47-52.29 58.68-86.46 92.33 3.08 5.82 13.53 23.64 12.2 29.58l-2.6-.04c-6.84-5.09-15.54-10.29-23.22-15.97-27.27 23.79-55.64 46.3-84.99 67.47-14.67 10.65-33 22.12-46.67 32.69 2.81 6.43 5.33 12.65 5 19.81l-.87 1.46c-2.43-.03-4.44-.86-5.63-3.23l1.88-.73.81-1.92c-6.23-52.85-55.4-123.9-89.01-164.01 1-14.91 5.48-39.15 7.56-54.56 5.58-41.22 12.41-82.56 17.38-123.87"/><path d="M1459.97 1419.94c25.27 10.37 55.41 26.2 74.5 46.05 30.65 31.85 67.42 66.74 85.11 107.71-8.54-5.2-15.14-10.74-24.68-16.26-19.04-15.39-38.76-28.77-57.71-43.42-27.93-21.59-61.79-61.79-77.22-94.08"/><path fill="#fefefe" d="M925.937 924.607c38.712 47.969 94.483 74.48 153.383 45.237 21.13-10.49 34.47-23.688 49.68-41.122-1.03 81.568 19.75 125.498 91.33 167.708-10 12.67-23.66 22.1-37.77 29.61-48.53 21.58-75.5-9.9-126.74-6.91-29.63-.69-75.942 27.74-103.904 17.63-34.844-12.6-50.194-41.33-89.59-53.96 44.79-50.3 64.578-89.985 63.611-158.193m445.543 619.233c16.21 40.17 33.99 74.98 62.84 108.15 8.37 9.62 21.64 18.55 28.64 26.74-6.02-3.3-9.6-5.62-14.53-10.78a673.5 673.5 0 0 1-100.9 48.84c4.14-33.49 8.97-75.52 14.92-108.58 2.13-16.42 5.55-49.33 9.03-64.37M305.818 657.808l.986 1.282c1.692 20.808-4.883 28.77-12.629 47.448-3.153 7.603-6.029 16.205-9.074 24.015-7.326.555-33.138-3.015-33.22 6.406 4.34 7.016 20.321 16.674 27.631 21.552-11.81 47.303-33.521 92.87-57.927 135.048-9.524 1.165-11.786 2.994-19.127 8.649 3.644 4.216 7.346 7.248 10.724 11.289 1.125 1.347.262 2.208-.431 4.777-2.645 7.073-4.459 12.51-8.698 18.816l3.479-25.502c-15.849-11.241-8.747-14.411 4.97-20.4 5.538-23.859 10.088-46.824 17.006-70.547 7.485-25.67 16.716-49.069 26.39-73.918-3.975-4.614-9.367-7.542-9.677-13.751 3.759-5.26 12.676-4.832 20.494-6.485 5.941-8.07 14.276-26.934 19.606-36.552 6.497-11.723 12.229-20.816 19.497-32.127m48.29 517.242 3.487-.23c5.658 2.77-.289 12.71.92 19.38 1.445 7.97 13.497 15.58 14.517 22.58.919 6.31-4.26 21.58-5.845 27.67 3.157 6.52 11.467 17.81 15.893 24.43-6.006 15.58-11.429 23.61-.63 37.72 7.971 10.41-5.005 33.61-7.933 46.71 8.549 14.94 6.573 16.26-3.739 29.96 5.211 19.59 12.323 14.61.17 35.04-.952 4.93-.922 11.98-1.095 17.15-4.94 1.06-10.517 2.59-15.475 3.84 6.675-26.87 15.187-97.98 13.532-124.42-1.984-31.69-14.017-106.28-23.73-136.06zM1796.57 740.215c4.3 1.385 3.28.415 5.92 3.464-.34 9.416-11.52 10.425-6.57 24.077 4.96 13.686 10.48 27.031 15.18 40.786 10.17 29.719 14.68 60.918 22.52 90.922 7.08 5.946 10.8 6.542 19.59 9.15l-11.32 6.64c.63 7.503.88 14.888 1.18 22.409l-6.59-15.428c-3.03-6.015 5.17-8.741 1.83-16.498-3.4-3.18-6.6-3.68-11.1-5.068a2494 2494 0 0 0-20.09-44.397c-12-25.58-37.14-70.534-38.68-99.976-.54-10.292 26.28 6.538 28.13-16.081m-100.59 441.015c16.26 1.89 7.26 8.08 4.58 20.67-2.99 14.04-2.46 25.79-1.01 39.94-14.49 14.62-20.84 33.6-10.69 52.88-9.94 17.35-13.94 38.58-.66 55.59-8.7 20.24-11.17 35.44 2.55 54.51-11.78 11.89-4.27 17.14-7.31 25.25-3.5 1.09-3.99.27-8.18-.63-1.36-.33-2.38-.9-3.69-1.49-6.8-8.55.92-19.64 5.62-27.42-10.06-21.83-10.42-31.36-.55-53.83-11.08-22.16-19.49-30.04-1.48-54.51-10.34-36.97-1.53-28.93 12.46-58.01l-1.91-2.58c-11.97-15.85-5.67-25.27 8.06-36.35.32-4.66 1.35-9.41 2.21-14.02"/><path fill="#fefefe" d="M330.874 1183.29c.94 1.57 8.415 43.72 9.385 47.99 12.491 54.9 13.77 106.68 5.096 162.26-2.649 16.98-3.348 35.78-10.045 52.48-3.744.78-8.307 1.35-12.15 1.94 1.952-3.26 3.489-6.54 5.158-9.94 2.008-7 2.56-14.55 4.365-21.68 2.625-10.37 7.744-21.93 8.449-32.63.447-6.8-6.452-15.94-3.25-23.08 2.551-.76 1.978-.51 4.37-1.79 4.752-17.01 5.176-35.68-3.281-51.48 3.626-4.43 4.974-7.1 5.248-12.94.876-18.7.654-27.51-11.112-41.96 5.181-17.12 5.058-29.7-9.201-41.46l3.271-14.47c-1.505-3.06-3.349-6.11-3.654-9.43 2.126-3 2.905-2.37 7.351-3.81m111.919-561.591q1.528.168 3.046.396c6.638 1.01 15.937 3.787 20.056 9.37-1.117 4.511-10.097 15.954-12.995 20.281-14.383 21.485-36.869 46.138-45.342 70.002-1.369 4.703-2.712 9.981-8.175 9.958l-1.956-2.023c-2.853-9.461 9.764-31.143 14.065-40.439zm1147.117-5.691c7.12 1.526 11.16 3.659 14.29 10.695 5.69 12.81 45.68 92.943 44.48 97.639-2.41 1.499-2.62 1.146-5.57.971-22.33-25.863-40.43-65.728-60.46-94.04-5.71-8.062.26-11.217 7.26-15.265m-1182.735.832c5.483.914 11.298 1.732 14.377 6.7-.409 8.028-36.419 79.738-42.545 93.07-1.128 2.754-1.11 2.814-2.884 5.177l-2.065.061c-1.605-1.437-2.744-3.286-2.775-5.247-.232-14.384 29.405-91.091 35.892-99.761m1218.985.449 1.65-.15c8.38-.813 12.92 3.178 20.22 7.631 6.93 26.238 15.64 53.501 26.98 78.239 2.11 4.595 4.32 9.14 6.36 13.765l-2.42 2.912c-2.86.321-2.74.44-5.45-.376-7.22-6.154-48.39-92.241-49.02-100.149zm42.16 7.174c28.59.496 23.06 30.841 28.84 50.323 3.9 13.113 9.67 26.442 14.53 39.327-3.72-.088-5.07-.187-8.74-.817-5.57-3.809-31.72-78.178-34.63-88.833m-1289.692-7.557c4.479-.267 2.685-.912 5.919.942 1.41 5.223-30.07 81.816-32.166 99.17l.163 1.247-1.039.1c-.719-.965-1.116-1.429-1.688-2.394-4.584-7.736 13.564-79.64 16.856-92.963 3.859-2.422 7.838-4.155 11.955-6.102M1702.72 1306.64c5.84 5.79-1.4 14.57.64 26.12 2.08 11.79 2.82 12.67 7.57 23.69-14.03 18.99 3.29 41.12-.5 56.92-3.29 13.68 2.77 20.98 2.08 24.22-4.03-.31-4.68-.82-8.47-2.5-6.07-11.92-5.04-17.66 4.72-26.56-6.19-20.22-19.88-25.21-3.99-49.02 7.41-11.1-22.95-26.91-2.05-52.87M469.852 658.864c.129 13.176-28.361 68.489-37.031 80.444l-2.055.284c-7.4-16.771 3.431-28.731 12.318-42.411 8.437-12.986 17.753-25.706 26.768-38.317m1097.268-18.25c4.13 2.438 7.95 9.564 9.88 13.887 12.96 29.025 32.84 54.807 47.53 82.557-1.51.035-5.28.057-6.66-.276-9.87-2.394-30.72-43.548-34.32-52.33-6.95-16.892-4.7-26.1-16.43-43.838m185.49 33.988c3.67 2.893 27.93 44.539 30.67 52.964 1.02 3.155.72 2.745-.45 4.837-4.9.529-10.2 1.582-15.09 2.433-3.82-22.836-11.61-40.69-15.13-60.234m-29.02 512.918c3.07 1.44 5.49 2.67 7.83 5.12l-.17 2.4-1.29 1.52c-7.49 8.91-5 12.13-7.34 23.24-2.21 10.48-6.11 20.7-6.9 31.42.6 2.1.46 1-.28 3.43l-1.31.11c-7.11-12.35 4.02-53.72 9.46-67.24m-12.91 67.45.53.4c-.09 5.48-3.24 15.44-3.56 22.33-.4 8.31-.25 14.01 1.22 22.29.42 2.38-2.27 4-4.19 5.76-4.82-19.39-9.84-34.76 6-50.78"/></svg>