<svg xmlns="http://www.w3.org/2000/svg" preserveAspectRatio="none" style="display:block" viewBox="0 0 2048 1462"><path fill="#fefefe" d="M0 0h2048v1462H0z"/><path d="M670.095 68.089c1.763-.143 4.27-.587 5.996-.274 2.96.537 135.1 104.976 142.79 113.927 62.535-1.157 129.351-.045 192.009.332l197.61.7c28.96.244 57.81-.027 86.79.34 38.06.483 76.43-1.159 114.52.201 11.97-8.666 28.79-34.158 39.93-36.975 7.65 1.535 33.76 29.637 41.13 37.089l63.36 64.988a5881 5881 0 0 1 85.82 88.978c16.73 17.579 33.7 35.407 49.83 53.565 3.24 3.652 5.37 7.067 4.88 12.028-1.75 3.67-4.32 5.258-7.52 7.853-5.24-.608-9.47-3.893-13.18-.199-1.56 5.027-2.49 30.871 1.86 34.097 6.28-1.486 14.96-12.404 24.93-14.353 11.34-2.215 16.15.025 25.91 5.637 1.85-1.536 6.75-5.875 8.69-6.683 22.04-9.149 39.86.683 49.75 20.279 8.22-6.282 10.99-7.951 20.89-10.949 15.58 2.535 29.65 10.116 33.85 26.751 1.08 4.265.99 8.625 2.09 13.084 5.38 2.445 15.09-2.985 23.23 2.519 12.05 8.137 8.53 17.631 10.47 29.592.05.293.94 2.137.97 2.139 5.79.507 12.62 1.245 17.82 3.628a29.77 29.77 0 0 1 15.47 16.878c4.16 11.271 1.62 14.001-2.7 23.194l1.62 1.119 2.06-.649c20.28-24.068 28.38 19.198 16.32 40.334 23.74 17.949 23.03 54.326-5.15 66.464 6.19 23.382 4.7 41.609-21.32 46.936-8.16 1.67-1.62 13.63-5.79 20.68-8.34 14.108-17.1 7.17-27.93 10.316-3.13 2.765-2.61 3.983-3.9 8.619-9.25 9.499-15.59 14.264-28.72 9.479-10.92 9.993-18.56 12.261-30.71 1.87-14.59 6.381-13.84 5.271-28.49 1.28-.3.779-.43 1.417-.41 2.255.42 14.374 17.93 163.596 22.16 167.634 1.87 1.786 30.3 1.677 35.06 2.179 30.28 3.193 61.62 15.963 89.8 26.858 5.62 2.171 12.72 3.297 17.03 7.706 2.17 2.21 2.08 2.455 1.97 5.372-8.57 6.465-21.26-3.237-29.04-5.814-26.57-8.365-56.19-22.216-84.18-23.623-48.52-2.439-98.16-1.763-146.81-2.132 8.75 4.579 36.31 14.16 46.75 18.067a2066 2066 0 0 1 108.1 43.465c11.55 5 23.29 9.75 34.7 15.08 3.66 1.7 6.26 2.82 7.32 6.75-1.03 3.13-.9 3-3.48 5.03-14-2.71-37.56-15.04-52.12-21-56.12-23.134-113.34-46.061-170.84-65.387-2.3-.773-58.26-1.021-60.58.383-.15.484-.54.955-.44 1.452.69 3.622 71.47 47.116 75.06 61.592.53 2.13.01 2.61-1.02 4.41l-2.39.51c-6-1.57-39.73-30.905-49.55-37.894-11.68-8.311-37.51-23.7-46.71-31.569-18-1.114-44.78-.108-63.8-.573 3.05 2.829 6.03 5.728 8.95 8.695 8.82 9.029 37.71 39.565 37.56 51.701-2.26 2.91-1.11 1.97-4.49 3.33-2.74-.72-3.68-1.42-5.39-3.77-13.92-19.092-32.84-46.024-52.7-59.08l-.99-.643c-22.9.505-46.02-.416-68.94.029-5.96.116-34.5-1.693-37.38 1.324-1.69 11.109-3.14 103.59.22 110.73 3.99.68 41.9-.5 48.66-.6 37.17-.21 74.34-1.24 111.47-3.1 27.2-1.57 53.99-4.48 81.03-5.49 40.79-1.58 81.62 7.76 122.13 9.77 48.84 2.42 97.65-8.94 146.28-10.9 8.59-.34 30.52-2.32 37.01 3.07.78 3.15.79 1.85-.81 5.27-4.22 3.77-34.28 1.55-43.6 2.26-33.12 2.58-66.2 7.4-99.28 10.31-50.76 4.46-99.54-7.09-149.85-8.79-21.66-.73-42.46 2.19-63.95 3.85-23.88 1.77-47.8 3.12-71.72 4.07-26.09.92-53.07.17-79.23 1.03-9.84.33-25.87-.2-34.95 1.48l-1.14.22c4.09 16.66 12.24 39.26 17.77 56.03a3006 3006 0 0 1 31.81 100.7c6.15 20.22 12.13 40.47 17.15 61.01 2.05 8.39.06 12.69-7.94 15.81-43.86 17.11-87.22 36.77-131.93 51.41-3.34 1.09-6.5-.3-9.05-2.2-2-5.8 2.82-15.22 7.14-18.52 18.87-14.43 44.65-42.82 63.85-54.78l.89-.55c-37.27-59.7-75.56-119.77-104.8-183.9-2.19-4.78-2.44-11.55-2.58-16.71-11.5.76-24.38.22-35.87-.28-1.92 5.85-6.14 25.71-5.43 31.23 3.05 23.56 8.71 49.16 13.07 72.64l25.78 144.93c1.74 10.03 8.42 37.62 6.83 46.3-.66 3.57-2.78 6.79-5.94 8.64-4.42 2.58-142.64 10.69-149.95 8.66-2.19-.61-4.61-1.91-5.73-3.96-1.07-1.96-.99-4.26-.18-6.3 1.03-2.6 3.43-5.27 5.88-6.61 5.15-2.81 12.23-4.31 17.83-6.3 19.97-7.12 41.31-13.03 60.36-22.25l-58.03-154.45c-6.84-18.7-16.48-43.84-20.79-62.76-2.18-9.6 3.49-33.66 5.77-44.65-25.46-1.29-52.61-1.34-78.16-1.35-19.66-.01-39.873 1.86-59.621 1.08-11.659-.47-23.277-2.63-35.052-3.46a1169 1169 0 0 0-75.577-2.55c-39.382-.54-79.686 3.11-118.969-.83-6.199-.62-13.052-2.57-19.181-1.82-1.754.21-2.07.42-4.101.42-4.894-2.48-5.562-6.16-3.991-10.99 4.215-2.58 22.91.27 29.227.77 15.19 1.21 29.863 1.39 45.059 1.52 8.741-32.43 22.616-68.134 33.368-100.202 3.639-10.853 9.05-21.003 12.599-32.211-21.073-.047-42.091-.897-63.238-.875-15.781 23.541-35.566 44.588-48.131 70.578-2.427 5.02-6.888 13.72-12.649 14.23-2.053-1.83-2.684-2.47-3.092-5.22-1.459-9.82 43.185-69.082 51.749-80.5-8.602-.115-46.165-.549-51.825-3.692-2.033-2.978-1.51-1.632-1.66-5.325 6.453-8.168 39.419-2.424 50.891-2.219l129.579 1.179c6.648.068 33.931 1.462 38.778.012l-.692-.972.453 1.179-1.423.654-.728-2.601c-6.798-2.41-45.562-11.349-51.586-10.246-4.23 5.132-5.072 6.085-10.447 9.933-18.001 2.776-46.017-2.213-58.719-15.108-4.514-4.582-10.77-10.924-16.689-12.636-26.788-7.748-54.383-12.53-81.431-19.343-.574-.713-3.067-3.95-3.235-4.412-3.278-9.042 4.823-62.369 6.814-69.32-3.429-8.755-19.954-36.544-25.479-47.019-4.214 33.801-18.438 61.554-27.82 88.589-3.364 9.693 14.158 71.246 17.452 87.462 10.588 56.559 24.678 115.135 30.573 172.395 3.735 36.28-6.791 90.15-8.613 127.81-1.258 25.98-7.85 54.43-9.385 80.97 18.124 18.28 34.067 20.24 57.551 28.8 6.564 2.4 22.886 5.85 19.553 15.23-4.302 12.1-22.823 7.86-33.026 7.82l-49.99-.11c-13.64-.08-29.18.23-42.591.04-10.087-.15-5.963-6.85-22.66-8.52-14.287-1.43-88.536 1.03-95.524-1.91-4.634-6.66 1.999-35.44 3.598-44.86-5.27.15-22.584-.36-27.33-1.03-15.557-2.21-73.241-.55-83.801-8.96-5.276-10.37 6.609-39.95 7.182-52.14.549-11.66-.217-25.04-.375-36.78l-1.006-79.81c-.15-17.72.055-34.78 1.42-52.42.164-2.12-.427-2.22-1.748-3.44-1.554 2.4-1.704 3.25-1.485 6.07.59 7.63-13.724 9.14-19.572 9.94-11.225 1.54-24.123 2.39-35.584 1.91.508 5.17-1.621 20.47-2.256 26.18l-6.6 57c-2.85 25.56-4.028 51.23-7.372 76.77 7.594 16.74 61.903 49.05 56.681 66.72-8.787 10.6-92.098-3.81-107.342-7.93-3.28-3.86-.638-23.67-.127-26.85 5.941-36.91 3.226-72.78 1.237-109.86l-4.286-80.17a398 398 0 0 1-19.689-3.35c-2.316 20.23-15.176 145.49-12.625 157.22 4.118 18.93 21.563 35.74 23.582 55.14.399 3.84-.367 5.71-2.757 8.47-5.635 2.65-62.192 2.82-72.867 2.82-7.427 0-21.223.29-26.92-5.55-4.135-10.46 27.96-50.04 30.292-61.14 1.979-9.42-1.445-37.76-2.44-47.94a3063 3063 0 0 1-7.241-91.5c-.473-6.95-2.573-34.94-2-40.61-21.058-11.54-46.739-23.98-53.975-48.66-5.481-18.332 2.135-39.521 5.285-58.073 7.602-44.761 18.137-89.014 28.397-133.217 2.47-10.641 5.822-23.589 7.095-34.175-1.535-1.35-4.287-1.373-6.54-1.456-4.189-.155-10.482-4.154-14.498-6.334l-4.416-11.726c-16.675-9.111-17.01-23.628-14.309-40.458-23.456-9.126-23.189-32.982-16.907-53.495-13.079-12.029-16.597-21.169-11.058-38.298-19.932-17.171-27.044-48.28-6.336-67.305-10.499-14.127-13.662-34.328.283-47.333-2.771-6.698-4.325-11.376-6.433-18.299 5.033-21.968 7.485-29.65 30.806-34.606-1.267-20.147 11.979-34.417 30.687-20.559 5.729-6.442 8.123-7.972 16.016-11.336 5.367 2.036 8.353 4.103 13.23 7.171 1.628-3.088 4.622-7.503 6.592-10.584 4.983-2.032 9.071-2.878 14.288-4.117 3.818 2.476 6.503 5.271 9.777 8.409 2.83-4.133 5.063-7.061 9.017-10.208 8.632-6.871 12.434 4.963 20.59-3.936 7.61-8.304 14.317-.748 19.897 5.459 3.241-1.904 8.009-14.849 16.86-10.097 19.581 10.514-8.01 27.677-14.824 37.269l-.597.857c-.748 11.382-1.644 14.496-4.933 25.63-.99 4.438-.427 9.888 2.251 13.54 5.1 6.952 24.894 12.62 31.81 7.176l.098-2.196c-4.972-4.514-19.775-1.941-23.711-10.301-2.21-4.693 4.871-32.533 7.74-35.304 14.868-14.358 15.853-24.098 19.716-43.46 9.857-29.947 38.867-44.705 69.679-34.143q2.211-.732 4.448-1.383a35.2 35.2 0 0 1 27.347 2.739c30.302 16.705 33.278 58.818 27.726 88.574-1.613 8.647-3.52 19.702-4.317 28.194-.622 6.631 8.796 15.824 4.112 24.128-17.02 14.946-65.617-17.277-79.601-28.897-11.93 17.565-25.725 20.327-44.803 28.081-48.049 19.528-24.917 95.203-8.631 129.867 19.707-12.483 39.56-22.313 58.359-36.441-6.385-14.87-15.12-29.329-21.134-44.32-1.359-3.388-.751-8.244 1.115-11.631 9.191-4.429 31.648 56.498 37.246 65.616 9.942 16.195 19.703 32.289 29.827 48.386.585-9.092 1.329-18.168 1.963-27.253 1.687-24.191 6.278-48.044 7.309-72.271.142-3.325 5.584-10.411 7.711-13.149-9.888-17.569-40.237-26.189-44.675-33.18-.249-3.226-.267-3.335 1.07-6.206 13.169-8.975 49.506 24.23 57.4 36.595 5.498-6.74 23.425-22.454 25.128-27.794 1.367-4.281 3.573-8.256 4.961-12.552 1.078-3.334 5.307-224.381 3.997-229.678-.208-.841-.762-1.556-1.143-2.334-3.683-.267-14.985 15.799-21.554 13.584-20.871-7.037-7.165-20.959.581-28.57 29.52-29.005 59.741-56.971 89.17-85.747l78.274-75.554c9.534-9.191 32.728-33.206 43.042-39.24"/><path fill="#fefefe" d="M1450.13 181.564c2.25.906 211.03 211.421 212.7 214.428l-7.87 353.597c-1.29 57.198-5.3 127.047-3.5 183.622-22.74 1.034-49.03-.167-72.26-.299l-136.08-.188c-15.84.061-38.41-1.437-53.28-.323-1.74-.459-10.44-.433-12.8-.47-1-10.401-.82-25.153-1.37-36.122a697 697 0 0 0-7.22-71.379c-5.77-35.531-18.19-65.835-28.53-100.157-14.55-48.343-24.23-96.852-41.59-144.45-10.24-28.059-22.34-46.963-41.04-70.459-2.11-2.664.5-63.622-.06-71.448-.56-4.243 1.38-16.11-7.42-15.877-9.71 8.153-1.49 70.818-4.66 76.943-12.14-.918-16.33-45.478-17.01-55.94 16.4-14.667 12.83-23.208 12.89-43.232 28.76-32.244 63.91-67.389 94.38-98.466 38.27-39.021 76.38-81.316 114.72-119.78"/><path d="M1360.39 432.918c56.02 1.827 113.28-.968 169.42.283 5.65.126 19.07-.464 23.13 3.358 3.78 28.838-1.44 66.695.78 96.214.6 7.951-5.13 9.53-11.47 10.133-5.48.387-17.14-.143-23.27-.16l-48.47.069c-16.24-.007-104.16 1.633-112.77-2.875-4.24-8.452-.17-33.192-.91-43.4-.36-8.652-1.46-18.907-.8-27.496.76-9.843-2.25-29.138 4.36-36.126"/><path fill="#fefefe" d="M1366.89 444.652c27.58.539 56.04.223 83.71.333 1.18 28.4-.36 56.71.58 85.694l-13.93.322c-18.41.543-52.37.97-70.14-.35.96-19.515 1.24-66.547-.22-85.999m115.36-.084c4.02 1.368 54.26.238 60.68-.357.66 27.694-.35 58.636-.37 86.705-7.93.442-12.08.689-20.1-.107l-.43-.153c-3.02 1.237-52.85.004-60.06-.169q.12-42.156-.36-84.31c2.62-1.811 16.44-1.562 20.64-1.609M673.061 98.624c3.261 1.459 41.89 44.91 47.38 50.995 31.133 34.507 63.585 67.934 95.008 102.162 10.08 10.981 27.496 28.401 35.871 39.511-1.378 27.434-.722 57.146-.68 84.707l-.283 94.872c.139 30.854-1.654 75.717.129 104.887-3.033.274-7.867.772-10.633 2.048-28.404 13.101-58.579 24.124-85.844 39.34-9.014 5.029-10.637 24.165-12.636 34.02-6.639-21.498-17.955-51.739-32.667-69.232-5.881-6.993-24.092-17.983-25.592-21.089 5.479-16.241 3.193-13.744 19.885-19.417 25.558 26.96 35.442-31.446 37.443-46.861a95 95 0 0 0 3.755-3.544c6.214-6.276 3.72-12.42 3.587-19.45 2.596-3.694 7.81-8.807 8.791-13.298.359-9.191-6.887-10.959-7.715-20.589-1.582-18.395-17.264-2.107-22.947-19.141-3.006-9.009-20.308.797-20.837.336-8.444-7.361-13.472-10.627-23.549-1.843l-.96.845c-3.943 1.059-7.331-.493-11.412-1.693-8.246 6.241-13.403 8.059-21.583 13.459-1.682 1.11-3.739 9.056-5.287 10.243-3.227 2.559-10.873 4.603-12.232 8.805-1.453 4.759-2.319 11.907-.058 16.537 1.762 3.607-.823 7.566-2.571 10.646-1.588 2.798-2.968 5.727-4.38 8.62.255 2.22 1.412 7.181 1.35 8.994-.183 5.337-1.266 18.079 2.143 22.36 3.115 3.912 8.784 4.029 11.493 11.401 2.812 7.653 7.228 11.758 13.753 15.996 8.199 5.325 12.023 2.904 19.663 6.431.243 2.545.475 1.279-1.377 3.746-7.273 2.449-28.306-3.607-36.811-5.69-3.935 2.879-4.974 3.691-9.51 5.667a184 184 0 0 0-9.27 3.657c-45.67 19.229-67.919 75.648-85.402 118.59-5.917-5.564-18.33-24.934-23.575-32.781 2.612-9.081 12.137-35.192 13.06-41.904-1.312-3.891-.41-2.467-3.719-5.31-9.699-1.522-15.758 26.909-18.551 35.047-13.348-21.288-27.314-42.532-40.898-63.716 10.704-16.831 25.015-27.805 45.066-30.46 5.681-.753 8.521.769 13.665-1.704l.721-.341c6.601-3.194 26.456 27.397 44.539 5.824 7.915 4.349 29.321 19.701 35.149 9.645-1.462-10.086-27.677-13.732-31.493-22.185 1.698-2.392 4.815-4.016 7.379-5.543 13.5-7.608 20.205-13.258 26.047-27.902 12.711-29.857 9.951-72.448-23.064-84.808-36.429-13.637-76.033 18.216-75.786 53.618-.01-1.352-6.443 8.932-7.151 10.294 1.656-61.057 1.677-122.042 1.929-183.11.022-5.437.088-11.158-.583-16.532l-.131-.991c9.357-9.452 18.958-18.602 28.728-27.621 51.801-47.814 100.896-98.771 152.653-146.548"/><path d="M607.857 334.845c8.589 1.425 35.836.9 45.673.877l75.946.117c5.927-.009 28.124-.352 32.351.72 8.108 9.424 3.091 54.055 3.823 67.816.182 3.429-1.418 6.98-4.885 8.3-2.975-1.181-5.439-5.242-5.419-8.323.128-19.352.712-38.751-.05-58.109-19.922 1.14-36.59.012-56.057.469-3.84-.493-4.833-.861-8.484.033-4.032 10.594 4.783 49.778-4.396 59.205-11.808 1.99-5.105-21.954-6.436-29.079-1.506-8.06-.576-21.489-.323-29.924-10.006-.942-55.833-.92-65.264-.216-5.412 7.448 1.955 51.195-4.071 60.481-3.654 1.39-5.083 1.101-7.685-1.643-2.25-11.791-.533-49.692-.084-63.547.127-3.924 2.688-5.315 5.361-7.177"/><path fill="#fefefe" d="M864.97 933.654c1.229.339 7.172.603 9.511 1.108 22.578 4.878 46.935 2.866 70.207 3.664 23.179.795 47.156-.069 70.462 1.283 9.75.566 28.92-1.738 37.49.937-.33 6.572-1.63 8.056 3.85 11.867 8.96.817 9.43-4.688 12.07-12.117 9.58 1.085 23.09.678 32.98.737 14.98.119 29.96.448 44.93.987-10.03 40.408-18.73 86.48-27.72 127.56-6.01.22-19.36.75-24.95-.67-7.06 1.54-33.2.19-42.44.06-19.4-2.09-45.06 3.25-63.393 1.5-60.699-5.77-120.158-6.41-180.991-6.36 7.807-20.46 13.707-43.03 20.968-63.73 7.824-22.297 16.601-44.7 25.087-66.768 4.337.434 7.818 1.176 11.939-.058m363.44-426.083c2.17-.273 5.07-.332 6.94 1.114 51.98 40.237 62.53 113.524 79.21 172.946 4.32 15.396 8.4 31.383 13.23 46.888-38.53 39.971-75.31 55.285-130.96 45.953-6.92-22.102-16.22-65.714-21.46-88.721-1.12-7.958-2.89-16.476-4.39-24.42 6.55-11.357 38.41-57.774 34.9-69.778-2.29-2.47-2.67-2.62-5.96-3.399-3.78 1.187-7.46 10.088-9.55 14.467-11.42 23.87-23.48 42.42-39.02 63.908-8.02-2.997-57.44-23.715-55.05-32.748 9.1-34.261 23.92-68.431 46.52-96.03 27.42-33.49 47.02-27.598 85.59-30.18M862.253 383.027c24.358 1.835 53.495.808 78.201.759 59.816-.12 118.846-.067 178.646.944-3.33 8.64-7.21 22.915-.98 30.902 2.58 3.571 6.81 6.956 8.51 11.032 10.61 25.494 12.62 49.011 41.03 60.406-.11 3.616.07 4.727-1.21 8.013-2.87 1.933-35.54.989-41.1.98l-68.89.096-195.486-.076.135-62.521c-.065-12.436-.861-39.467 1.144-50.535"/><path fill="#fefefe" d="M867.35 507.42c43.243-1.026 93.035.464 136.37-.098 14.2-.184 151.9-.26 152.81.327-2.37 3.299-12.64 10.136-17.71 15.838-19.69 22.147-28.98 39.5-40.75 66.078a223 223 0 0 0-13.08 35.952c-2.15 7.805-.34 14.463-4.45 19.641-5.67 3.53-52.38.143-62.25-.116-5.64-.148-12.5-27.87-17.95-29.623-45.549-14.661-93.451-23.937-139.477-36.88-.575-7.977-1.103-67.178 1.1-70.295zM431.962 767.261c20.504 14.901 44.87 29.635 66.386 43.859q.174.909.308 1.825c3.073 21.136-2.999 55.234-2.577 78.803.78 43.577 6.058 85.544 9.729 128.892.799 9.44 7.905 47.74 4.071 53.01-5.142.94-11.274-.47-16.543-1.33-7.537-1.25-65.864-10.6-68.283-17.97-1.965-5.98-1.609-34.39-1.697-42.47a4548 4548 0 0 0-3.332-130.836c-.527-14.627-3.353-38.423-2.724-51.959.776-16.711 9.657-46.068 14.662-61.824m708.298-528.175c6.78 1.397 45.89.301 55.89.406-1.03 11.482 1.07 33.445-1.56 42.882-2.35 8.413-35.13-6.74-41.84 7.884.83 7.469 10.98 6.437 17.06 6.501 8.43.09 17.04-.207 25.48-.361-.26 7.581.69 38.739-1.14 43.181-50.54-4.931-56.11 28.553-71.58 32.197-9.03 2.126-112.09 2.393-116.72-.24-1.94-6.966.85-111.216 3.7-116.298 5.72.699 20.89.079 27.46.142 22.91.219 46.01-.541 68.92.005-.03 13.064-2.4 108.428.42 112.207 3.01 1.94 3.53 1.941 7.13 2.142 7.31-6.63-3.13-105.32 6.05-115.284 5.31.108 12.55 4.924 12.67 9.954.55 23.609.34 47.907-.92 71.522-.26 4.897 2.09 14.192 7.58 14.161 6.72-6.261 3.56-78.361 4.13-91.862.16-4.012-6.1-12.797-5.45-17.36zm-46.09 410.507c2.77 1.117 17.48 10.435 21.41 12.554 8.96 4.822 18.26 9.25 27.09 14.133-36.72 44.094-81.74 81.812-127.81 115.691-17.328 12.745-38.717 33.962-62.208 25.713 1.421-3.383 16.305-1.918 18.414-10.315-.845-2.525-1.748-2.913-3.923-4.724l-.762-.624-.125-1.349c2.514-1.648 4.463-2.499 5.714-5.099.877-7.417-1.031-14.549-9.395-15.381-4.394 2.758-25.086-.93-16.255 13.234-4.741 6.649-10.282-2.195-15.093 14.797-27.373-7.43-58.461-13.485-86.465-20.433-21.287-5.64-44.488-10.686-66.076-15.805-4.292-6.724-16.613-33.786-20.077-41.843l.446-.883c5.286-.623 30.717 5.962 37.463 7.513a5777 5777 0 0 1 105.815 25.126c20.281 5.042 41.603 10.443 62.207 15.02 2.882.641 28.684.265 33.686.676 4.494.37 5.744-10.797 5.834-10.886 12.07-11.866 27.66-28.794 38.06-41.515a492 492 0 0 0 34.43-47.022c5.66-8.89 10.65-19.343 16.8-27.498zm608.76 129.059c10.88 4.162 17.6 6.817 29.66 4.486 4.04-.782 9.9-4.284 13.18-2.057 1.33 7.133.93 28.739 1.08 37.088q.525 33.666.15 67.332c-.05 14.607.35 31.781-.8 46.176-2.89 2.516-33.78 1.464-39.45 1.311-14.95.096-29.9.086-44.86-.029-.09-24.428 1.56-51.556 1.9-76.222.17-11.739.42-50.241 2.28-59.445 2.09-1.786 1.4-.921 4.91-1.065 13.63-.56 23.07-8.41 31.95-17.575M279.399 559.642c2.166 5.347 1.166 23.275 2.083 30.703 2.278 21.963 9.128 40.585 17.925 60.585 7.251 16.487 11.331 13.004 26.239 4.625 8.492 9.302 19.231 26.752 27.911 37.385 16.667 20.417 31.804 35.239 50.992 52.97a561 561 0 0 1-40.747-1.16c-31.115-3.065-107.257-16.223-131.32-32.085a459 459 0 0 1 7.207-23.957c14.093-42.504 24.087-87.101 39.71-129.066"/><path fill="#fefefe" d="M759.702 626.675c12.301 1.506 33.875 6.884 46.516 9.777 28.505 6.524 57.841 12.67 85.979 20.424 39.97 11.014 84.895 19.586 124.253 31.395-3.87 10.78-4.41 28.087-12.26 34.437-11.876-2.927-24.786-5.119-37.076-8.158l-64.597-16.083c-45.951-11.512-91.957-22.052-137.865-33.608-4.158-1.046-8.723-2.59-12.437-4.761-.913-3.272 6.119-28.182 7.487-33.423m-11.251 46.473c8.556.682 55.191 13.319 67.248 16.198a4960 4960 0 0 1 132.381 32.625c15.546 4.013 37.626 8.475 52.19 13.356 2.36 4.971-4.436 21.001-6.409 26.419l-.905 3.222c-8.609 7.264-129.673-24.741-150.262-29.413l-60.523-13.995c-16.47-3.807-42.839-4.322-30.213-29.349-1.514-6.804-2.518-12.167-3.507-19.063m322.409 121.777c2.07 3.448-.86 118.516-2.89 130.089-3.08.937-79.047-2.118-88.219-2.255l-14.526-.969c7.563-17.689 10.056-36.827 16.852-52.8 24.773-16.812 67.063-53.845 88.783-74.065m281.65-600.926c8.87-.757 38.14.108 48.75-.021-26.52 33.655-62.17 63.296-91.33 94.595-25.92 27.818-50.81 53.903-78.24 80.235-6.02-8.172-9.32-12.461-17.28-18.764-2.36-1.74-5.49-3.403-8.07-4.881.13-9.61-.03-39.135 1.57-46.451 3.6-2.871 46.01-1.903 53.76-1.847-.59 6.652-2.07 13.107 5.03 16.411 8.18-2.723 6.61-10.012 6.44-17.332l16.78.15c3.13-3.462 7.75-7.861 4.1-11.975-6.43-2.126-16.43 1.774-20.31-2.048-1.21-7.392-.11-34.018.23-42.404 18.51.464 46.61.177 65.95.806l3.93 2.817c6.24-.635 10.19-4.228 12.02-10.252.85-2.792-1.42-4.911-2.92-7.088a540 540 0 0 1-.41-31.951"/><path d="M1242 324.387c3.65.112 2.56-.453 4.88 1.606 1.08 3.95 1.24 2.471.03 6.046-4.84 4.511-11.28 3.589-17.51 4.592-3.79-.87-4.23-1.211-7.37-3.55-.85-2.694-.88-1.325.6-4.205 7.7-4.791 10.43-4.134 19.37-4.489"/><path fill="#fefefe" d="M493.322 1084.97c6.358 1.13 13.745 1.97 20.217 2.87.246 10.41 3.625 31.54 4.81 42.81 3.939 35.72 7.571 71.48 10.897 107.26.609 7.02 3.11 30.47 2.031 36.23-4.47 2.16-15.037-3.19-19.712-5.13-10.104-4.71-20.962-8.05-31.135-12.59-8.322-3.71-11.353-6.02-10.01-15.53 7.337-52 14.648-104.06 22.902-155.92m240.823-376.113c3.095 1.742 15.725 35.324 19.206 42.17 17.824 35.052 34.391 66.559 59.349 97.212 7.124 8.75 22.117 21.594 26.147 28.643-3.668 13.218 7.851 20.333 16.77 28.352-10.945-7.581-16.153-12.943-29.591-10.547l-1.7 2.684.949 1.934c-2.476-1.152-9.242-6.842-10.713-8.991-11.46-16.744-26.852-28.554-40.935-43.05a372 372 0 0 1-64.283-89.024c-4.347-8.41-11.679-22.391-14.035-31.315 12.838-5.465 26.169-12.063 38.836-18.068M372.29 624.781c1.228.452 24.242 37.399 26.755 41.968 21.668 39.401 58.011 69.871 93.816 95.747 14.711 10.632 9.003 17.027 6.845 33.847-5.793-3.744-12.712-7.746-18.669-11.369-45.578-27.982-96.332-68.127-127.832-111.629-5.114-7.064-13.018-17.191-16.418-25.09 13.183-7.863 22.995-14.492 35.503-23.474M216.601 1067.06c8.716 4.88 37.25 13.45 47.6 16.47-1.857 10.79-2.708 21.24-3.671 32.11-3.67 41.46-7.585 82.9-9.921 124.45-.611 10.87 6.955 14.52 6.225 21.94-9.624 1.04-27.392.81-37.632.98 2.453-4.48 9.532-16.95 9.391-21.61-1.432-47.17-8.106-94.52-9.965-141.78-.315-8-3.836-26.6-2.027-32.56m570.083-280.534c5.05.454 35.11 7.595 41.111 8.934a5001 5001 0 0 1 63.045 14.64c13.694 3.271 35.133 6.802 46.164 15.335 10.914 8.442 29.295 5.776 41.882 3.854-1.615 8.591-4.527 18.885-6.759 27.498-1.174 3.223-1.342 4.706-3.855 6.812-8.361-.419-29.659-6.938-39.237-8.848-37.705-7.516-75.219-16.966-113.01-24.088-10.084-10.818-22.353-31.178-29.341-44.137M437.049 1073.57c5.647.3 37.637 8.19 44.177 9.87-1.393 10.9-3.946 21.92-5.5 32.85-6.338 44.58-14.807 88.91-19.431 133.73-.665 6.44 3.646 10.29 7.635 14.77-2.65 2-5.615 4.57-8.216 6.71l-11.428 8.64c-4.441-.03-10.055.79-12.915-2.8-.091-11.78 7.643-28.8 7.346-38.4-.43-13.92-.874-28.55-1.189-42.61a4776 4776 0 0 1-.965-78.39c-.085-9.21-.673-36.36.486-44.37m726.361-379.78c1.95 4.699 22.25 84.624 21.83 85.896-9.79 29.941-26.19 121.312-35.37 148.065-2.02 1.229-4.25 1.352-6.48.842-4.47-5.31 3.64-185.509 3.53-207.037-.02-4.424 12.87-21.7 16.49-27.766m-826.027 395.7c4.244-.59 11.879-.03 16.455.16-2.086 14.61-3.254 29.38-4.954 44.06-4.78 39.55-8.55 79.22-11.308 118.97 2.415 4.24 6.46 8.89 3.591 13.25-3.382 1.54-13.922 1.27-18.401 1.48l-9.119-.25c3.611-17.61 2.263-43.56 1.774-61.44-1.051-38.41-4.965-77.31-6.461-115.61 5.248.17 24.127.5 28.423-.62m390.241-966.832c10.593 2.571 53.784 43.192 65.752 50.857 14.687 9.405 70.775 79.371 80.337 79.71 5.086-2.52 5.972-6.537 7.84-11.783 15.141.868 30.489-.206 45.614.8-1.863 6.776-3.222 17.92-5.121 25.968-.726 4.627-1.384 11.323-3.541 15.247-3.32.953-37.791.984-39.453-.55-10.681-9.864-21.347-22.544-31.404-33.208l-86.292-91.288c-11.054-11.596-22.423-24.683-33.732-35.753M1157.4 392.734c7.08 9.223 11.45 29.913 36.1 18.662 1.53-.7 1.62-6.975 5.45-8.97 4.97 2.983 6.89 13.183 12.95 15.554 3.53-1.263 5.06-4.4 8.2-7.727 2.39-.366 3.74-.517 5.89.906a8.1 8.1 0 0 1 3.63 6.033c.48 4.657-2.05 9.166-4.84 12.689-3.31 4.17-5.97 3.55-11.23 4.181-1.9 1.676-5.26 11.372-7.33 15.416a79 79 0 0 1-3.82 6.614c-5.03 7.773-13.79 17.657-23.65 18.977-25.09 3.192-32.08-27.559-38.29-45.568-1.68-4.851-4.6-12.904-1.51-17.218 2.83.139 3.38.154 6.16-.291 6.31-4.279 9.11-12.324 12.29-19.258"/><path d="M1164.03 449.801c6.06.369 16.98-1.202 19.28 5.017-.45 3.539-.88 3.739-3.29 6.604-10.35 5.175-17.87-.14-15.99-11.621m13.2-35.34c9.11.207 12.79 8.84 9.08 16.742-11.44-1.774-11.09-6.731-9.08-16.742m-26.48 1.986c10.81 1.275 10.58 7.284 7.12 15.879l-3.87-.522c-6.24-4.119-5.06-9.037-3.25-15.357m10.5 19.556c4.25-.464 5.68-.797 8.78 2.375 1.23 3.423.9 3.984.28 7.734-3.41-.68-5.14-.75-8.04-2.746-1.94-3.873-1.43-2.269-1.02-7.363"/><path fill="#fefefe" d="M870.865 853.813c20.026 5.804 48.211 9.407 68.963 15.056 7.393 2.013 18.533 3.386 25.186 6.76 1.558 5.111-5.565 26.403-7.061 32.876-.575 2.487-2.385 3.048-4.239 3.858-20.942-7.263-53.72-10.774-77.139-18.328-3.4-3.35-15.367-17.645-16.347-22.361 3.302-8.275 11.067-3.605 10.637-17.861M617.182 1128.36c.604.6 1.208 1.19 1.812 1.79 6.234 39.17 12.895 117.94 16.139 152.77-6.621-2.53-11.498-4.83-17.833-7.88-9.304-4.84-18.789-9.93-28.3-14.3 4.314-13.12 5.464-25.06 8.425-38.13 6.472-28.57 11.347-66.85 19.757-94.25m314.866-833.299c12.229.56 24.475.613 36.708.159-.616 20.842-1.756 56.717-.286 76.999-13.482.209-27.278.62-40.718-.081-2.224-.215-9.257-.01-11.838-.005 1.854-8.223 3.089-20.866 5.259-28.34 2.308-7.951 23.597 3.032 28.695-7.918-1.237-10.402-18.819-6.309-26.724-5.501 2.016-9.648 3.325-19.359 5.13-29.03.853-4.569.827-4.309 3.774-6.283M436.267 562.92c6.19 5.836 13.327 18.421 18.277 25.813 10.765 16.077 20.91 33.476 32.178 49.176-6.106 4.947-12.11 11.861-17.433 17.708l-15.503 14.573c-6.954-6.514-15.603-15.538-21.801-22.681-.187-27.093 3.97-56.647 4.282-84.589m465.577 51.426a22 22 0 0 1 2.186-.302c8.271-.644 63.369 42.458 72.385 50.638-23.282-5.875-48.37-13.133-71.684-17.583-23.455-6.466-47.278-11.645-70.907-17.43-6.489-1.589-12.977-3.294-19.671-3.7l.461-.773c9.348-2.742 19.058-2.96 28.851-4.181 19.286-2.405 39.184-3.749 58.379-6.669M408.271 430.921c4.168 3.576 7.726 6.698 11.649 10.533a170 170 0 0 0-4.958 2.006l.265 1.668c2.531 2.321 2.625 2.386 5.85 3.427 3.725-.858 2.523-.53 5.615-3.718l1.246.732c1.307 6.584-5.394 22.589-8.794 28.4-9.936 16.986-21.404 27.904-41.09 16.362-11.48-10.083-6.918-13.024-10.342-24.634-.628-2.127-15.711-6.319-10.033-19.379 5.397-4.803 22.595-2.2 32.553-2.585.384 2.355.568 4.439.786 6.814l1.469 1.066c2.655-.772 2.895-1.222 4.821-3.115.99-3.824.847-2.353-.44-6.492.804-1.726 8.351-6.675 11.403-11.085"/><path d="M414.578 449.603c6.681 5.492.089 15.968-10.487 15.433l-3.049-3.846c.283-4.04 3.447-2.567 6.992-5.106 2.702-1.935 4.113-3.469 6.163-6.004zm-24.173 19.181c5.717 1.289 10.613 3.292 17.265 3.399.987.016 1.589 3.145 1.938 4.265-7.501 4.65-17.12 1.891-19.203-7.664"/><path fill="#fefefe" d="M491.636 646.588c6.38 5.384 20.382 28.992 32.482 40.788-3.472 14.285-9.311 26.692-11.215 41.918-3.209-2.293-6.413-4.904-9.525-7.349-15.063-12.255-30.02-28.789-41.754-44.208 14.133-11.799 19.411-16.282 30.012-31.149m716.094-407.017c15.66.608 37.45-.21 53.7-.206-.02 8.72 2.87 40.755-2.56 45.039-17.08.629-33.43-.145-51.41.657-.76-13.632-.15-31.608.27-45.49m-52.84 442.412c.24.3.5 1.493.63 1.947-3.66 6.536-10.84 15.637-15.27 21.855-24.92 35-57.77 63.858-90.23 91.758-16.84 14.475-40.65 35.604-58.587 48.558-.524-.515-1.093-1.483-.746-2.185 8.336-17.393 8.251-25.947 24.953-37.455 39.47-27.196 76.41-59.659 110.52-93.276 9.85-9.701 18.39-22.952 28.73-31.202M513.498 824.814c34.85 13.07 98.078 19.327 134.605 16.745.206 4.023 1.008 12.472-.615 15.869l-2.64.436c-23.25 5.228-108.405-6.137-132.325-14.398-.141-8.012-1.123-10.762.975-18.652m759.782-631.012c12.61.372 57.42-.255 66.9 1.632 1.37 5.138.38 24.145.22 30.41l.03 1.375c-5.76 2.541-48.48-.784-58.55 1.273-1.36.277-4.32-1.044-5.63-1.851-4.69-5.43-2.83-24.268-2.97-32.839m-15.58 747.99c.17.171.39.304.51.512 2.68 4.575 4.51 114.196 3.4 123.006-7.45.54-14.77.62-22.23.77-3.73.06-5.01.31-8.53-.92-1.78-5.21 23.19-110.735 26.85-123.368m-101.67-748.107c7.17.55 35.03-.556 39.5 1.827q.33 1.27.54 2.567c.43 2.636.4 26.57-1.25 28.72-6.4 2.29-16.69-.162-23.94.67-6.63.038-36.74 1.125-40.93-2.231.49-8.986.49-22.327 1.58-30.606 4.15-1.241 19.16-.859 24.5-.947m-144.76 33.786c5.78 1.608 14.55.376 20.68.287 16.16-.233 74.89-3.679 85.95 3.298 4.1 2.585 6.95 7.077 8 11.761-2.47 1.842-6.3 1.12-10.05 1.143-8.01-.776-27.45-.056-36.57-.068-29.17.234-58.35.168-87.519-.2 6.141-7.93 9.259-15.305 19.509-16.221m-16.4 27.869 1.575.469c-.23-.484-1.258 110.948-1.998 116.028-2.342 1.565-8.494.881-11.695.798-3.803.284-3.059.849-5.29-.939 2.64-33.237.342-67.111 2.845-100.361.611-8.129 5.699-15.454 14.563-15.995m27.1 401.565c17.61-.128 35.08.607 52.69.059-12.93 21.363-21.07 35.186-37.84 55.349-6.74 8.102-13.59 16.545-20.78 24.22 2.63-11.284 12.06-44.128 16.94-53.586-1.35-8.222-7.74-15.972-11.01-26.042m186.89-463.145c11.31 1.693 37.39-.232 51.46.936 2.9 3.988 1.35 25.015 1.43 31.717l-1.49 1.136c-9.29.054-43.93.842-51.24-1.001-.92-3.978-.2-27.246-.16-32.788m-260.359-.653c8.669 1.397 34.459.442 43.834.096-.117 9.919-2.542 24.06-3.416 34.381-.256 3.016-1.049 3.458-2.901 4.792-16.315-3.528-28.572-.686-43.754-2.836-1.817-3.989 4.134-31.541 6.237-36.433m-61.992 101.942c7.218.775 22.734-1.169 28.411.491 2.138 6.306-1.542 26.506-4.154 32.878-1.016 2.477-18.194 1.408-21.54.948-2.035.705-23.53.105-26.726.029-.718-8.818-.928-15.927-1.006-24.78l1.764-1.289c10.381 2.018 12.742-6.367 23.251-8.277m20.647-101.494c8.992.351 20.381.599 29.167-.53-2.953 12.282-4.903 24.67-8.071 36.823l-15.505.391c-2.232-.757-24.824-.729-30.081-1.311 2.075-11.552 4.409-23.296 5.907-34.913 5.767-.38 12.716-.34 18.583-.46m32.846 47.634c8.927.73 35.236-.265 40.408 2.174 4.327 8.306-13.849 16.301-10.979 37.259l.166 1.167c-2.171 4.548-31.121 2.822-36.433 1.874l-.73-1.125c.239-6.874 4.803-35.61 7.568-41.349m-20.101 365.543c4.607.667 14.835 3.901 19.792 5.094 17.14 4.122 35.032 9.736 52.29 13.128 5.591 9.541 17.067 35.197 21.927 46.061-1.59-.275-4.56-.844-5.85-1.753-29.569-20.804-59.433-40.539-88.159-62.53M723.5 822.471c4.822.327 9.816.203 13.372 3.397 9.92 9.069 17.704 20.306 26.789 30.3 3.774 4.152 15.236 13.541 15.666 17.833l-2.541.243c-8.083-1.65-50.43-12.113-55.799-14.731-2.26-5.035 1.82-29.104 2.513-37.042m144.9-482.15c9.598 1.264 30.939.601 41.43.461-1.479 7.667-3.321 22.98-6.273 30.644-.357.925-2.907.66-4.308.706q-18.785.111-37.563.655c-.148-9.63-.597-21.18.158-30.603 1.874-1.874 3.405-1.467 6.556-1.863M448.316 682.675c3.313 3.01 16.665 18.128 20.7 22.446 13.905 14.88 23.928 23.631 39.954 36.099-1.196 5.088-1.721 8.709-4.55 13.116-14.261-5.318-49.181-38.152-62.561-50.035 1.939-8.565 3.555-13.398 6.457-21.626m378.759-489.612c8.349.823 41.684.554 50.767.028a1032 1032 0 0 1-6.155 30.818c-.08.718-1.056 4.091-1.301 5.005-3.134 2.264-6.939 1.92-11.003 2.136-6.115-4.526-29.825-31.548-32.308-37.987m17.065 395.863c5.683-.66 50.913 10.739 53.569 13.034-2.342 2.149-51.35 6.602-57.948 7.22a632 632 0 0 1-51.563 5.875c14.266-8.09 40.227-18.967 55.942-26.129m159.88-394.967c11.03-.979 39.26-.175 51.14.095-.14 5.477.26 16.969-1.29 21.64l-2.64.613c-13.06-.62-39.51-.201-51.483 2.243 1.843-6.775 3.163-17.401 4.273-24.591m85.21-.4c7.37.554 24.13.296 31.24-.442-.53 7.134-1.32 15.879-2.57 22.821-6.87-.07-13.73-.092-20.59-.064-6.75-2.091-25.33 1.633-29.16-.107-4.18-5.167-1.97-15.111-1.29-22.024zm128.37 261.086c.77 2.203 2.28 11.763 3.04 15.064 2.01 8.77 4.13 17.298 6.34 26.029a921 921 0 0 1-35.73 3.078c-7.45.566-7.38 1.61-12.61-4.213-1.14-9.034 8.2-8.812 14.47-12.116 11.08-5.844 17.5-17.894 24.49-27.842m-628.037-7.974c4.373 16.396-2.566 59.301-24.381 64.831-2.463.624-10.018.619-12.769.669 2.078-4.372 3.989-8.818 6.766-12.772 4.571.886 9.537 2.783 13.131-.512-.27-3.009.348-1.854-1.398-3.797-1.816.091-2.631.178-4.437-.091l-1.173-.185-1.236-.35c-1.546.758-1.115.743-2.747.944 1.813-5.061 2.876-12.784 4.27-18.523l3.105-1.281c3.067 2.418-1.214 5.103 1.562 8.905l2.913-.674c4.169-4.224.727-7.803-2.725-11.709l-.654-.725 5.95-6.246c4.128 2.091 8.319 5.288 12.189 1.722-.367-1.826-.496-1.482-1.75-3.175-2.717-1.574-4.014-1.142-7.21-.847l-1.161.112-.717-.974c4.774-8.017 8.459-6.214 12.472-15.322m77.687 210.696 2.611 1.22c5.063 6.585 3.713 36.069 7.75 45.664.592 1.407 1.945 8.878 2.052 10.512l-2.861 3.079c-2.644-.307-3.222-.205-5.439-1.772-5.915-10.755-11.671-48.632-4.113-58.703m-67.866 646.913c6.522-.41 31.139.39 37.417 1.16.944 3.01-.164 7.02-.727 10.32l-1.163.88c-7.34-.32-28.68-8.76-35.527-12.36m-52.433-785.347 3.524 2.565c2.166 6.012 1.532 9.532-3.069 13.782-3.161 1.029-5.091.046-8.353-.901-3.376-1.238-7.332-1.909-7.277-5.921 2.179-2.739 11-6.861 15.175-9.525M432.827 666.697c1.555 1.376 5.098 5.616 6.646 7.368l-4.864 12.482-1.071 1.782-1.031-.604c-1.128-5.643-1.24-15.433.32-21.028m422.898 187.087 1.65.465.43 1.716c-2.332 3.407-5.765 5.138-9.308 7.422-1.689-1.084-.928-.439-1.973-2.351 1.83-3.12 5.974-5.195 9.201-7.252m103.666-51.532.435.027.693.819c-3.567 2.456-10.491 3.083-16.071 5.288l-1.017.408-1.138-.641c2.796-3.696 12.627-5.066 17.098-5.901"/></svg>