<svg xmlns="http://www.w3.org/2000/svg" preserveAspectRatio="xMidYMid meet" viewBox="0 0 2048 1152"><path d="M144.579 0H1916.08c.29 39.532-2.11 83.69-2.61 123.948-1.39 95-1.44 190.014-.18 285.016 1.82 119.814 4.71 239.61 8.66 359.372 1.94 58.187 5.39 117.898 6.4 175.834 10.77 9.588 86.11 62.76 86.81 69.31.32 2.95-.01 5.76-1.83 8.16-4.04 2.66-72.95 1.48-82.39 1.52l-167.19.84c-109.15.28-220.63 2.07-329.54 1.15l-.52-14.11c13.23-1.46 36.69-.93 50.67-.96l82.12-.43 295.36-1.1c26.54.03 53.09-.14 79.63-.53 13.29-.12 30.83.59 43.7-1.11-9.9-8.834-30.08-23.194-41.41-31.7l-74.6-56.427c-68.12-52.084-138.15-108.203-208.07-157.693-109.52-1.106-221.86 3.034-331.13.712-3.64-3.138-8.59-9.699-11.76-13.632 8.9-1.064 24.35-.639 33.8-.618q26.82.136 53.64-.097l216.42-.988a18313 18313 0 0 1 95.43-329.703l48.54-161.94c8.1-26.906 15.93-55 24.45-81.603-17.88-5.141-40.9-9.482-59.33-13.287a1960 1960 0 0 0-132.35-23.328 3868 3868 0 0 0-539.98-42.555c-3.93 17.204-6.15 41.243-8.17 59.034l3.4.871c46.71 12.043 63.4 25.594 96.39 62.511 13.41 15.016 18.78 21.322 34.28 33.189 12.7 9.721 43.45 14.069 47.15 20.336 1.7 6.699-4.96 16.494-8.79 21.851-10.24 14.782-21.71 26.719-35.45 38.173-9.27 7.732-22.82 13.099-27.2 24.043 35.09 25.73 9.33 102.354-39.26 76.571-27.07 17.31-41.63 9.743-54.84-18.033 2.02 14.029 2.91 24.843 3.99 39.032 8.05 1.825 24.4 2.591 33.38 3.726 24.25 3.065 66.87 15.006 86.95 28.456 65.72 44.025 100.93 180.076 117.63 252.61a404.5 404.5 0 0 0-114.96-82.475c1.64-7.65 3.91-58.139.25-62.936-3.88-.663-3.05-1.147-5.82.339-2.33 6.972-.81 48.457-.81 59.076-24.88-9.978-44.05-16.77-69.77-25.174.95-27.9 5.21-59.263 6.3-87.82.59-15.183 1.02-50.646 3.35-63.585-4.94-1.673-15.24-3.251-20.81-4.242-11 50.106-29.24 104.549-61.81 145.072-4.84-.499-12.59-.457-17.65-.589.53-18.739.24-95.922 4.76-109.832l.96-.441c2.62 6.191 2.42 91.589 1.99 102.297q3.24-4.626 6.42-9.288c2.77-4.071 13.72-19.202 12.91-23.502-1.96.537-2.55.895-4.47.229-1.86-5.086-2.61-17.001 1.17-21.185 2.9-.367 1.72-.576 4.33.957 3 5.2 1.11 13.633.31 19.686 5.7-10.106 12.46-24.186 15.87-35.105-1.87-4.548-4.09-16.411-.67-20.744 2.14-2.716 4.63 2.52 8.39 1.748 4.82-11.721 12.91-39.834 14.34-52.606-11.8-1.925-15.69.665-27.42 4.901-31.92 11.523-55.95 10.677-86.973-3.417-5.616.549-13.753.851-18.374 3.722-2.823 8.218 19.01 70.106 24.94 77.374 2.2-1.402 2.856-2.271 4.663-4.193l1.616.264c3.698 5.408 1.392 11.659.164 17.707 2.886 7.157 6.663 13.162 10.744 19.666-1.81-12.21-1.34-74.305 3.8-82.798l1.69-.206c1.58 1.652 2.84 3.866 2.6 6.143-3.01 27.321-2.72 53.458-.76 80.804.65 9.078 10.25 23.867 9.67 27.15-7.49 1.396-12.57-1.841-16.87-7.691-28.028-38.109-46.192-85.105-56.207-131.163-3.994.539-10.714.873-13.588 4.12-4.232 4.783 2.167 130.083 3.267 148.56-26.072 8.27-42.727 14.264-67.351 26.362 1.999-17.546.701-39.613 2.193-57.757.386-4.695.409-9.453-2.82-12.882-2.82.241-2.589.746-5.051 2.811-1.51 7.984-.79 59.522-.448 69.868-53.819 29.661-96.654 59.544-136.875 107.391-26.694.174-54.043-.821-80.917-.991l-197.463-1.224c-12.963-.121-97.581-3.016-102.901 1.371-51.2 42.22-100.263 89.331-148.993 134.489a6366 6366 0 0 1-76.717 69.629c-16.363 14.62-36.788 32.126-51.952 47.539 40.1 1.65 89.191.18 130.236.13l276.724-.92 90.138-.28c16.934-.07 34.441-.02 51.405.46 2.907.09 3.81 1.2 5.581 2.93 1.493 3.57.241 8.67-.354 12.68-8.482.64-26.066 0-35.243-.06l-60.345.09-205.188.32-182.39.94c-21.613.15-75.135 2.34-92.718-1.23-12.443-18.02 56.141-61.415 65.797-75.121 1.222-1.735 16.137-13.722 16.231-15.3 1.661-27.978 2.576-56.23 3.715-84.289a16276 16276 0 0 0 17.193-580.163c.543-79.163-.777-158.479-2.069-237.628-.196-12-2.404-24.328-.661-36.409"/><path fill="#fefefe" d="M158.156 0H1901.01c-1.3 7.534-1.53 22.182-1.85 30.457q-1.23 33.242-1.92 66.5a6352 6352 0 0 0-1.39 294.441c1.37 121.901 4.46 243.776 9.26 365.589l3.8 110.995c.64 19.873.46 44.803 2.43 64.132-12.4-9.945-31.04-24.852-43.96-33.794.7-13.112-1.05-39.203-1.49-53.246l-4.51-124.308a14709 14709 0 0 1-8.39-370.993c-.87-74.768-.19-156.563 1.14-231.433l1.7-69.891c.26-10.386.92-22.196.32-32.521-.2-3.426-2.58-4.808-5.29-6.807-13.71-2.065-11.32 36.149-11.56 45.05l-1.56 61.804c-.16 7.228-.03 20.981-1.22 27.687-1.78.371-87.55-19.098-99.04-21.57a2778 2778 0 0 0-212.73-34.993A4440 4440 0 0 0 957.438 55.84c-231.995.634-469.101 14.29-694.929 71.771-12.708 3.234-25.39 8.107-38.026 11.909l-2.059-73.81c-.227-12.16 3.568-51.633-10.329-54.985-4.64 1.422-7.932 7.744-7.377 11.857 1.446 10.726 1.538 21.965 1.811 32.694a4588 4588 0 0 1 1.569 98.005c-.149 38.387.976 76.571.658 115.131a14569 14569 0 0 1-7.668 308.344c-.284 10.269.002 18.269.447 28.441.134 3.057-2.308 10.429-2.469 15.687l-5.319 168.101c-.266 7.211-1.443 15.047-1.633 22.058-.634 23.356-1.5 46.252-1.943 69.608-10.296 11.026-34.924 32.079-46.912 43.146a11500 11500 0 0 0 19.469-836.852c-.257-13.377.155-79.295-4.572-86.945"/><path fill="#fefefe" d="M932.443 94.529c23.167-.942 48.556-.14 72.077-.503-2.25 17.274-6.311 44.723-7.18 61.59-38.882 11.853-70.492 32.026-99.905 59.452-21.379 19.934-43.785 39.159-74.491 39.721-5.697.104-14.038 2.014-17.741 6.69-3.128 7.79 4.943 17.097 9.457 23.05 16.402 21.63 36.439 38.816 60.119 51.888-10.561 22.313-8.131 37.395 11.582 52.099q-.435.56-.853 1.134c-10.152 14.021-17.616 34.229-.485 46.277 12.369 8.699 27.332 6.728 41.257 4.208 9.501 7.757 21.272 13.244 32.98 7.584 6.34-3.065 16.707-3.882 21.818 1.86-.551 3.151-1.814 6.488-5.54 7.1-25.538 4.192-59.793 8.568-82.426 21.854-62.86 36.9-108.497 114.234-136.868 179.606-11.723 27.011-21.107 62.053-29.678 89.675-36.842 1.355-75.121-1.664-112.047-1.101-24.732.378-49.541.109-74.269-.498a2650 2650 0 0 0-57.988-.374c-12.095.114-29.089.674-40.952-.331-18.752-53.077-36.759-114.238-53.573-168.305l-79.2-257.276-26.066-86.925c-6.232-21.173-12.643-44.618-19.741-65.276a1761 1761 0 0 1 210.19-41.635c159.577-22.954 299.232-28.687 459.523-31.564"/><path fill="#fefefe" d="M907.765 71.471c91.482-2.3 188.475 1.108 280.015 4.844 175.52 7.164 350.6 23.564 523.14 57.34 41.6 7.773 82.95 16.838 123.99 27.181-5.32 14.048-12.02 39.132-16.52 54.153l-38.6 132.777a31613 31613 0 0 0-116.09 399.107c-10.24-1.239-22.51-.764-32.96-.65 3.22-6.019 13.29-43.78 16.05-53.466l34-117.855 116.95-390.984c4.51-15.457 5.66-18.57-11.32-22.391-173.25-39.004-350.21-59.566-527.42-69.515a4629 4629 0 0 0-185.11-7.091l-23.51.193c-3.12 13.998-7.69 52.109-8.9 66.877-12.15-1.211-22.07-.032-34.16 1.412.77-20.861 5.71-42.985 6.27-63.83.06-2.25-.24-2.046-1.58-3.22-9.96-2.301-31.22-1.612-42.31-1.595a2647 2647 0 0 0-81.428 1.223c-199.329 5.836-399.957 16.606-594.679 64.25-7.711 1.886-36.3 6.316-39.333 12.815 1.383 15.627 14.175 56.497 19.369 74.185l46.088 152.143 69.549 224.001 26.073 83.257c4.911 15.637 9.883 33.297 15.524 48.433q-16.608.183-33.212-.071c-13.839-39.054-26.084-81.567-38.687-121.154a10206 10206 0 0 1-96.29-318.966l-21.686-75.346c-6.881-23.837-16.083-49.134-17.036-73.565 33.35-13.55 92.723-26.101 128.412-33.448 184.057-37.887 368.18-46.929 555.401-51.044M1836.5 199.724c.66 3.558-.08 45.323-.04 52.663-.08 54.031.31 108.062 1.19 162.086l7.34 303.248c1.67 54.444 4.82 112.49 5.06 166.629-23.67-16.438-54.22-41.848-77.66-60.112-18.9-11.805-38.42-28.466-56.61-41.645-13.77-9.967-28.47-20.309-41.75-30.738 9.16-37.351 24.04-82.915 34.94-121.055l81.17-277.098 29.18-99.48c4.08-14.016 11.39-41.84 17.18-54.498M225.109 216.568c3.347 6.749 10.501 35.871 13.359 45.148 10.731 34.835 19.762 71.1 30.134 105.904a23572 23572 0 0 0 116.133 377.379c-9.103.228-41.066-1.985-45.83 1.847-18.837 15.155-38.672 33.94-56.952 49.822-17.939 16.057-35.594 33.026-53.621 49.022-7.62 6.761-15.098 14.703-22.945 20.858.469-30.045 3.162-64.173 4.6-94.715l7.274-171.897a14061 14061 0 0 0 7.848-383.368"/><path fill="#fefefe" d="M1021.72 167.409c9.84-1.56 27.63.729 37.28 2.947 34.96 7.299 60.33 31.01 82.53 57.836 22.47 27.156 40.32 39.448 74.15 49.183-14.83 20.963-28.33 39.378-51.69 51.83-18.66-31.765-43.24 1.522-33.29-36.96-.43-2.168-2.17-4.652-3.83-5.755-27.69-18.365-81.52-20.794-111.78-19.064-16.73 1.537-97.611 12.471-103.899 25.495.429 3.571-.128 2.193 2.605 5.188 3.818 1.623 9.152.925 13.443.709-.816 1.221-3.482 5.169-4.546 5.406-18.585 4.13-27.626 3.514-41.109 19.719-23.193-13.565-44.897-32.74-60.343-54.74 48.598-2.105 69.471-30.908 104.753-59.503 27.243-22.079 60.409-39.08 95.726-42.291"/><path fill="#fefefe" d="M974.896 295.68c4.738-13.293 17.718-12.427 30.064-13.929 28.76-3.498 52.81-1.012 80.46 6.802-6.64 26.527-6.81 39.135-4.18 66.856-10.19 10.05-12.34 13.834-16.34 27.45 1.62 6.854 2.55 8.875 5.49 15.033-.42.381-.84.757-1.28 1.127-25.39 21.854-68.07 16.884-90.886-6.447-2.885-2.949-5.596-6.106-8.281-9.239 7.338-18.521 6.55-25.747-9.896-37.146 2.251-6.287 14.433-45.714 14.849-50.507"/><path d="M974.896 295.68c5.968-4.47 18.579-7.714 25.244-3.199l1.8 3.557c-4.436 3.504-18.187 4.802-23.687 4.289-2.738-1.965-1.807-1.023-3.357-4.647m43.574 14.475 3.08.636c5.34 5.049-.73 17.772 1.24 26.082 2.68 11.345 12.66 11.883 14.21 22.409-26.12.63-21.96-32.637-18.53-49.127m-12.02 55.536c8.65.02 14.16 6.837 24.35 8.569 6.55-1.432 10.52-4.983 16.5-5.343 3.39 1.668 2.19.744 4.43 4.656-12.57 10.23-43.02 11.747-45.28-7.882m32.31-75.591c6.84-.357 20.05-1.732 25.43 2.563 2.46 1.964 1.87 3.718 1.93 6.671-5.52-.421-19.59-2.157-24.57-3.409-2.9-2.596-2.03-1.225-2.79-5.825m14.78 26.637a5.179 5.179 0 0 1 3.64 9.565 5.17 5.17 0 0 1-5.62-.317 5.177 5.177 0 0 1 1.98-9.248m-67.856 1.929a4.773 4.773 0 1 1 4.737 8.227 4.774 4.774 0 0 1-4.737-8.227"/><path fill="#fefefe" d="M1056.01 417.372c1.83 2.663 3.09 37.762 4.96 45.758-24.04 11.363-39.22 10.531-63.751 3.212l-9.399-4.416c6.341-17.942 7.321-25.997 8.916-45.075 20.454 7.846 38.734 6.922 59.274.521"/><path d="M1032.17 621.448c1.73-.094 3.88-.099 5.65-.036 114.08 4.065 229.41 66.822 298.95 156.68 28.78 37.178 58.73 98.103 72.42 143.887a512.2 512.2 0 0 1 20.79 148.091c-18.49-.06-38.89-.51-57.2.36 1.56-13.2 2.28-23.38 1.41-36.63-7.45-.17-14.32.69-21.77-.3-4.03-2.82-.76-3.29-3.59-7.79-4.28-.36-42.65 4-50.26 4.58-45 3.44-82.34 4.32-127.09-1.77 2.49 14.37 4.42 25.94 4.73 40.47-49.41-.91-101.86.05-151.46.12l-142.368.1c-.755-11.87.879-28.92 3.262-40.56-9.315 1.63-22.029 2.19-31.589 2.92-46.77 3.57-92.665.74-139.186-4.52-5.792 4.2-7.868 5.59-15.001 6.96-7.873 1.51-11.423-4.22-15.491-4.2-2.979 4.8 2.256 32.92-1.81 39.21-7.21 1.44-43.944.22-54.102.06.334-20.48.007-46.62 2.249-66.69 8.832-79.112 46.986-175.951 100.388-235.564 63.602-70.999 151.659-125.194 246.402-140.332 18.543-2.963 35.896-4.061 54.666-5.046"/><path fill="#fefefe" d="M777.752 789.052c6.119 9.096 5.551 11.003 15.106 16.752l12.091.76c2.831 4.957 6.112 9.332 9.273 14.05 30.931 46.169 65.246 86.559 105.564 124.54a178.3 178.3 0 0 0-26.059 51.019 783 783 0 0 0-71.977-4.488c-40.215-.506-67.984 1.499-107.763 5.927-5.443-4.419-7.585-5.445-14.126-8.017-4.828.866-9.001 2.212-13.662 3.626 1.854-12.379 1.894-20.997 5.014-34.265 13.277-56.448 47.076-127.459 86.539-169.904m507.148 5.722c.32.224.65.448.97.672 45.82 51.41 78.34 129.009 85.85 195.837-6.46.045-14.66-1.013-20.72.572-2.46 2.017-1.8 2.392-2.4 6.25-1.28.524-52.82-4.73-59.67-5.171a735 735 0 0 0-59.07-1.419c-22.05.525-44.63 2.957-66.16 3.302-9.11-22.082-14.61-31.298-27.28-50.988 46.17-33.962 94.68-93.755 125.74-141.507 12.22 1.192 13.7 1.241 22.74-7.548m-235.37-121.832c9.51-.131 27.12 3.128 36.49 5.085a365.63 365.63 0 0 1 165.63 84.039c-13.07 12.124-5.24 21.131-10.39 25.638-44.91 39.322-94.61 84.085-131.7 130.89-24.41-17.194-36.93-21.627-66-27.05 2.41-17.296 4.15-32.997 4.68-50.543 2.22-22.111-.02-54.798-2.36-77.146 53.54-1.085 107.18.488 160.73-.509 11.62-.216 23.16.059 34.73-1.418-13.74-11.5-27.03-21.623-43.07-29.678 1.19 5.469 4.43 14.162-1.02 17.498l-2.04-.551c-3.69-5.89-.69-14.694-4.5-21.087-6.71-11.281-67.91-32.495-82.47-36.734-1.82 18.917-4.33 39.836-5.23 58.648-16.38-.435-32.56-.212-48.92.449-1.87.076-4.32-1.09-5.86-2.121-4.28-5.168-6.38-35.994-7.79-45.742 13.15-7.152 9.89-16.426 9.09-29.668m-54.915 1.458 10.605-.836c-1.27 12.733-4.49 21.802 7.59 29.683-1.24 9.419-2.81 38.434-6.15 44.766-6.704 3.221-47.052 1.463-57.278 1.165-.311-16.297-3.48-40.122-4.602-57.816-21.042 5.483-60.78 23.89-78.382 35.198a659 659 0 0 0 1.377 23.338c-9.142-1.075-25.552-.992-35.24-1.237-6.576 4.616-13.216 9.691-19.684 14.504 14.876 1.813 42.88.639 58.732.808 45.058.479 90.259-1.068 135.357-.09-2.23 23.705-3.88 52.932-2.05 76.554.17 13.047 2.92 38.773 5.51 50.963-20.734 5.18-45.767 12.176-62.136 26.799-38.415-47.785-78.062-90.71-126.105-129a174 174 0 0 0-1.763-7.433c-2.728-10.205-7.057-12.674-15.579-17.598 10.496-12.246 26.653-23.814 40.05-32.746 44.594-29.728 95.97-51.921 149.748-57.022"/><path d="M1626.24 789.525c.97.136 12.85-.111 14.66-.125l37.18-.266c19.59 13.811 46.61 38.087 65.71 53.91a2603 2603 0 0 1 79.33 67.328c12.56 11.012 26.29 22.611 38.08 34.331-1.66 6.378-9.9 25.629-14.04 30.966-4.62 2.882-59.11 2.845-69.89 3.059l-133.37 3.148c-44.46-.348-96.52 3.511-139.87 2.128-5.74-6.045-17.5-28.019-22.91-36.724-23.62-38.063-48.19-76.526-70.62-115.286 1.05-8.64 4.84-28.922 7.07-37.133 49.49-3.046 101.46-2.244 151.25-4.267 18.39-.747 39.36.361 57.42-1.069"/><path fill="#fefefe" d="m1555.67 799.523 120.24-.949c4.34 3.126 8.37 6.394 12.51 9.769 43.59 35.533 86.92 71.115 128.4 109.116 8.93 8.182 20.49 18.941 30.49 25.357-42.59 1.399-85.64.836-128.23 1.73-30.09.755-60.26.384-90.37.655l-118.92 1.749c-1.92-3.034-3.69-6.202-5.45-9.335-21.36-38.053-46.1-74.055-68.12-111.747-4.65-7.963-10.3-17.341-16.26-24.194 45.24-.466 90.48-1.183 135.71-2.151"/><path d="M1600.25 809.528c25.78.445 52.4-1.897 78.16-.275 2.31.62 5.09 2.597 6.83 4.174 35.56 32.318 72.06 63.584 107.86 95.638 4.85 4.343 16.71 13.97 19.6 18.945.34 3.736.72 2.269-1.58 5.476-8.99 3.334-136.83.891-156.05 1.163-46.1-.925-93.2 1.109-138.88-.062-7.39-8.667-77.62-116.586-77.87-121.212 8.7-4.395 58.26-2.526 70.69-2.531 30.42-.24 60.83-.679 91.24-1.316"/><path fill="#fefefe" d="M1449.4 819.901c32.72 1.683 77.81-.289 112.25-.186 10.75 10.435 22.59 19.797 33 30.285-6.94 1.478-10.8 2.577-17.53 4.856-8.68 4.888-11.37 7.557-17.39 15.037q-37.26.173-74.52.815c-10.57-13.012-24.8-35.76-35.81-50.807"/><path d="M1525.84 851.477c5.05-.303 11.13-1.052 14.52 3.284-1.24 2.572-.86 1.756-4.27 3.225-4.71.165-12.13 1.252-14.92-3.081 1.04-2.084 2.4-2.353 4.67-3.428"/><path fill="#fefefe" d="M1696 878.114c6.67 1.343 39.33-.063 48.22-.13 18.41 13.664 36.12 33.722 56.92 48.139-12.12-.669-25.48.242-37.89-.169-21.63 1.268-49.03.21-71.69.856-6.41-8.11-25.63-25.668-33.6-33.294 14.2-2.853 27.5-4.932 38.04-15.402"/><path d="M1735.92 899.318c4.73-.059 12.72-.496 16.07 3.357-.51 2.464-.22 1.621-2.96 3.519-5.73.25-12.45 1.111-16.77-2.771.89-2.857.62-1.963 3.66-4.105"/><path fill="#fefefe" d="M1490.4 878.109c3.65.705 17.32.266 21.82.24l46.86-.258c14.77 9.353 20.4 10.883 37.47 14.123l-16.83 16.443c-5.57 5.702-13.71 14.722-20.42 18.396-12.18-.302-25.16.024-37.4.124-5.42-7.108-30.48-42.495-31.5-49.068"/><path d="M1527.76 904.258c5.11-.346 12.94-1.585 17.38.384 1.37 2.54 1.01 1.572.13 5.193-5.72.232-14.1 2.025-17.9-2.398z"/><path fill="#fefefe" d="M1595.07 818.583c4.61.829 23.85.448 29.41.368 17.59-.167 35.18-.548 52.76-1.145 7.07 6.102 14.64 13.318 21.6 19.672l-21.66 12.283c-1.2.843-3.78 3.046-5.05 2.733-22.43-5.542-43.09-5.965-66.35-4.492-8.77-6.383-24.3-20.791-32.91-28.36z"/><path d="M1631.11 828.264c7.56-.293 18.42-2.16 23.51 2.368l.13 3.019c-5.11.287-18.17 1.856-22.36-.959-1.35-.9-1.05-2.389-1.28-4.428"/><path fill="#fefefe" d="M1607.06 893.815c14.45.596 25.3 1.04 39.86.475a511 511 0 0 1 33.13 32.665c-10.61-.168-21.66.018-32.3.041-20.29.449-55.41.974-75.29-.799 12.04-10.231 23.25-21.388 34.6-32.382m19.2-37.654c12.89-.25 56.14 1.925 59.1 17.2-2.7 8.53-24.12 10.294-32 11.281-2.81.635-3.16.823-5.96.479-3.85-1.92-6.55-7.163-8.98-10.941q.675.114 1.35.202c5.44.726 23.73 1.999 27.92-1.167l.22-1.858c-5.55-6.536-26.99-6.442-35.17-7.619-3.51-2.283-4.29-4.024-6.48-7.577m78.55-13.068c4.91 3.286 25.22 21.406 30.72 26.097l-23.78-.16-16.04.556c-4.43-5.949-8.59-8.844-14.5-12.986 7.75-4.868 16.31-7.954 23.6-13.507m-105.16 14.17c5.4-.424 10.81-.753 16.22-.987 1.85 2.872 3.52 4.75 3.2 7.771-6.02 3.408-14.22-4.405-22.2 2.516l-.13 2.101c3.69 3.452 6.78 1.993 10.43 4.632-2.68 1.619-3.74 2.421-6.13 4.437-7.16 7.799-22.81 3.848-28.61-3.625-2.84-11.817 18.58-15.495 27.22-16.845m25.44 16.431c3.36 1.882 8.6 8.712 11.34 11.947-5.91.131-11.81.435-17.67-.289-5.4-.167-9.91-.751-15.24-1.41 7.18-4.278 13.9-6.973 21.57-10.248"/><path d="M408.756 788.04c9.703-.342 25.206.481 35.573.616q50.118.77 100.214 2.353c16.027.429 107.437-.041 114.532 3.346 1.97 5.076 4.849 29.97 6.671 38.192-6.779 12.167-13.947 30.455-19.4 43.564l-30.852 74.561c-4.762 11.606-9.884 25.958-15.059 36.962-28.558-1.311-61.338-.457-90.109-.286-44.065 1.984-96.173-.06-140.577-.736l-65.742-1.232c-8.201-.135-41.073.398-45.267-2.682-4.596-6.457-7.854-24.368-7.664-32.28 8.177-7.848 17.389-19.744 25.852-28.612a7861 7861 0 0 0 84.169-88.279c9.328-9.803 37.131-39.746 47.659-45.487"/><path fill="#fefefe" d="M410.003 796.783c4.33-.106 33.218.964 36.164 1.248 17.549 1.689 202.63 2.425 204.976 4.642-1.514 7.569-28.65 62.231-34.028 73.418a1808 1808 0 0 0-35.331 77.765c-21.915 1.248-47.844.764-70.034.629-22.385.307-46.305-.508-68.86-.672a6019 6019 0 0 1-114.491-1.111c-22.262-.525-43.876-1.711-66.333-1.952 11.828-10.502 22.494-25.884 34.168-37.162 38.86-37.543 73.807-80.56 113.769-116.805"/><path d="m408.168 805.316 194.066 2.87c6.344.032 25.627-.219 29.423 3.623.542 6.873-8.03 21.309-11.076 28.515-15.355 36.321-31.787 69.332-52.595 102.89q-25.368.369-50.737.084c-73.708-1.763-147.855 1.188-221.551-1.606-1.814-.069-2.145-1.317-2.922-2.601 6.538-13.21 39.883-48.007 51.102-61.907 9.058-11.224 53.405-66.983 64.29-71.868"/><path fill="#fefefe" d="M399.833 879.402c3.055-.386 8.18-.466 11.418-.615 3.534 8.902 5.284 11.191 11.709 17.928-16.732 7.819-48.542 27.327-66.56 37.024-1.942.31-11.722.369-14.253.435-12.706-20.626-9.146-31.002 5.752-47.791 11.368-2.381 40.465-5.917 51.934-6.981m2.971-58.848c5.362 2.133 26.151 19.655 32.444 24.513-13.583 6.704-18.752 10.674-24.476 24.703-6.731 1.226-20.029 2.062-27.415 2.853a588 588 0 0 0-29.046 4.149c16.537-18.882 31.475-37.5 48.493-56.218m175.623 15.565c4.126 1.077 18.546 24.313 21.506 29.364-1.705 3.254-3.548 7.563-5.123 10.974a1148 1148 0 0 0-29.687-.886c-6.22-.404-12.808-.599-19.065-.886-.4-9.563-1.786-12.827-5.522-21.305 6.161-3.881 30.831-14.759 37.891-17.261m-149.978 65.724c6.372.893 18.461 7.471 30.594 9.047-4.176 7.437-7.623 15.627-11.083 23.452-11.75.987-29.816.354-41.93.151a713 713 0 0 1-36.324.427c14.101-5.496 45.664-24.379 58.743-33.077m92.141 1.097c1.842-.254 42.992 20.278 48.799 23.088l-5.701 8.608c-4.827.569-8.054.522-12.938.464a963 963 0 0 1-35.727-.025c-3.122-7.592-9.151-17.503-13.155-25.312 6.154-1.922 12.653-4.53 18.722-6.823m22.638-19.894c14.16.019 33.952.755 47.896 2.069-6.303 10.567-11.464 21.415-16.665 32.53l-.718.754c-3.288-.005-38.347-17.711-45.087-20.882 7.437-4.835 10.236-6.789 14.574-14.471m-51.297 27.525c2.334 1.302 12.065 20.486 14.233 24.495q-18.18-.046-36.357-.358c-4.709.1-8.639 1.3-10.673-3.304.022-3.729 6.274-15.087 8.395-19.722 7.015.048 17.161-.763 24.402-1.111m-13.046-49.43c24.823-.355 35.92 18.283 7.131 25.008-26.688-.353-37.711-16.633-7.131-25.008m47.569-37.484c11.391 1.197 27.776 5.486 40.899 7.175-5.467 3.51-11.879 6.499-17.725 9.419-6.134 3.401-10.057 5.105-16.488 7.778-6.006-5.156-10.63-7.133-17.669-10.292 4.154-6.278 5.789-8.552 10.983-14.08m92.272-4.621.622.9c-.013 3.491-12.071 30.47-14.281 35.64l-5.979-7.287a1177 1177 0 0 1-11.935-17.38c7.62-1.817 23.765-8.763 31.573-11.873m-127.36 1.509 25.29 1.367c-3.052 4.87-7.043 14.174-12.858 13.863-6.994-1.167-17.152-1.49-24.267-1.824-1.492-3.563-2.993-9.282-4.131-13.134zm-27.76 1.525c1.462-.219 1.627.083 3.016.738 1.946 4.239 2.826 7.277 4.18 11.763-5.678 1.022-24.213 6.396-26.333 5.769-5.058-3.198-6.634-4.88-10.923-9.164 8.382-3.402 21.259-6.672 30.06-9.106m-23.297 29.741c4.469.429 10.912 6.219 15.249 9.337l-4.709 6.223q-8.544.468-17.098.633c-4.871.648-10.105 2.426-13.397-1.629 1.222-6.234 14.331-12.099 19.955-14.564m-16.583 24.766c6.718-.616 21.013-2.122 26.58 1.451l.195 1.92c-2.097 3.175-5.961 4.214-9.601 5.718l-12.548 6.296c-3.546-3.751-10.521-9.518-8.3-14.619zm121.003-60.547c17.948.377 37.169 1.122 55.026.972-29.755 11.67-26.234 5.774-54.096 2.02l-17.17-2.785zm-88.053 69.886c3.629 2.628 7.17 3.551 9.259 6.989.64 3.514-1.652 7.032-3.312 10.479l-9.975-1.781c-4.08-1.005-9.078-1.77-11.736-4.853l.182-1.911c3.153-3.429 11.091-6.741 15.582-8.923m-131.102 25.89.89 1.021c.307 8.507 2.421 13.893 6.213 21.232-6.695-.046-13.719.153-20.443.24-2.712.455-1.86.694-4.103-.277.117-4.605 13.542-17.966 17.443-22.216m204.424-54.752c4.44 2.539 5.779 12.281 6.898 17.155l-17.671-2.141c-5.035-.572-5.958-3.727-8.487-7.803 6.354-2.212 12.94-4.815 19.26-7.211m-118.791-43.088c9.252-.539 39.847-.017 48.93.648-1.047 1.359-4.069 1.519-6.202 1.967-9.919 2.546-18.786 4.765-28.492 8.184zm59.853 27.267 1.023.384c2.254 2.961 3.164 8.181 4.095 11.947-4.284 1.56-10.45 4.219-14.732 2.366-3.9-2.698-7.002-5.218-10.678-8.224 7.42-3.509 12.484-4.775 20.292-6.473m41.736 36.772c5.581 1.186 15.792 2.179 22.183 3.234-2.492 3.014-5.722 6.058-8.533 8.84l-3.46 1.48c-6.424-1.51-8.647-1.76-12.573-7.035-.417-3.507.001-2.809 2.383-6.519m-30.36-37.862c6.143.268 13.679-.341 18.217 3.01.324 3.897-.92 4.215-3.524 8.336l-1.725 2.485c-3.278 1.27-6.694.146-10.33-.523-1.055-4.349-1.826-8.895-2.638-13.308m-7.69 54.034 14.462-.354c1.261 3.832 2.574 5.512 1.698 8.87l-3.091 1.079c-6.152.117-12.013.675-18.134 1.201zm24.651-4.689c4.019.531 13.681 3.828 13.028 8.926l-4.61 1.986c-6.037 1.363-12.007 2.58-13.363-5.412 1.59-3.984 1.009-2.767 4.945-5.5m11.893-44.967c4.314 1.081 10.37 4.214 14.555 6.191-4.52 1.767-9.118 3.778-13.602 5.668-2.939 1.243-4.456 2.295-7.498 1.602l-.727-1.421c.998-4.397 4.507-8.361 7.272-12.04"/><path d="M986.955 492.311c2.507.791 2.56.86 4.217 2.994 1.729 6.976-3.237 29.346-6.859 35.937-1.578.314-1.98-.039-3.502-.62-3.367-7.819 2.664-30.528 6.144-38.311m62.915 3.225c9.22 3.77 9.16 31.301 5.18 39.145-7.17-4.775-8.93-32.895-5.18-39.145m-71.446-23.062c10.086 3.503-1.129 16.71-5.064 21.116-9.234-3.905 1.378-16.409 5.064-21.116m93.806 4.794c9.75 1.076 10.9 13.066 8.43 20.531-9.51-1.936-9.15-12.613-8.43-20.531"/></svg>