<svg xmlns="http://www.w3.org/2000/svg" preserveAspectRatio="none" style="display:block" viewBox="0 0 2048 1462"><path fill="#fefefe" d="M0 0h2048v1462H0z"/><path d="M1868.27 107.397c10.46-1.666 18.17 3.808 20.92 13.666 8.19 27.68 7.28 57.686 10.48 86.023 5.87 51.898 7.49 103.211 10.41 155.243 3.5 69.418 8.33 138.764 14.47 207.999l27.6 368.465c3.16 47.474 7 95.007 8.87 142.557.54 13.76 1.19 27.04.31 40.82-23.16 20.13-119.67 37.05-158.85 58.29.75 3.73 1.53 7.48 2.08 11.24.53 3.6.37 7.92-2.15 10.81-5.19 5.94-56.81 16.17-67.39 18.52-41.22 9.16-82.3 18.82-123.77 26.86-68.94 13.36-138.74 24.11-208.03 35.61-64.29 10.68-128.4 22.64-193.22 29.67-49.21 5.33-98.55 8.25-147.91 11.7l-214.454 14.24c-63.196 3.56-126.421 6.57-189.668 9.04-40.682 1.56-81.6 3.61-122.309 3.69-56.666.1-113.757-3.27-170.405-5.26-10.737-.38-61.248.09-66.483-5.34-3.299-3.42-2.46-11.51-2.527-16.08-27.672-.03-24.939-19.16-25.547-40.37-13.85-1.45-40.686-5.63-53.422-10.37-9.753.22-57.758-13.21-67.529-17.43-5.773-8.51-5.712-11.08-5.594-21.44.947-82.79 2.644-166.55-.554-249.262L123.68 536.043c-2.465-55.137-22.239-267.995-7.644-304.652 3.003-7.541 7.523-9.826 14.594-12.781 28.777 3.234 83.383 23.222 116.535 30.399-.938-14.536-8.993-36.413 9.224-40.399 41.788-9.143 84.339-12.729 126.728-17.544a4821 4821 0 0 1 324.392-23.668c20.149-.826 40.466-.761 60.546-1.615 28.499-1.212 59.031-3.924 87.456-4.759 51.085-1.501 102.462-2.071 153.529-3.335 86.36-2.138 172.07-8.839 258.18-14.938 47.33-2.888 94.76-5.143 142.09-8.099 88.25-5.559 175.72-18.52 264.01-23.108 9.47-.492 33.62-4.973 41.75-2.29 6.18 2.041 7.17 22.028 8.59 29.138 51.3-10.547 91.06-24.887 144.61-30.995"/><path fill="#fefefe" d="M1700.84 128.51c1.12-.148 1.58 0 2.73.12 2.49 12.48 4.22 26.992 5.88 39.689 18.68 142.222 42.62 283.493 55.32 426.499 4.87 54.873 4.63 109.982 8.91 164.579 5.69 72.631 8.23 145.736 14.66 218.17a3885 3885 0 0 0 20.62 178.723c-35.24 14.91-89.33 23.34-127.05 32.88-44.52 12.26-91.44 18.86-136.06 29.43-70.85 16.78-138.33 25.08-210.13 34.39-61.34 7.95-121.61 13.94-183 20.78-119.36 13.3-238.561 18.18-358.43 24.66-98.344 5.62-196.708 13.58-295.246 15.75-47.968 1.05-95.328-1.25-143.21-3.34-18.84-1.74-46.645-.59-64.265-5.31-3.524-21.19-2.515-54.66-4.378-77.11-4.374-52.73-5.855-105.83-7.938-158.7a20311 20311 0 0 1-11.924-537.296c-.674-101.19 4.649-205.772-2.557-306.149 37.355-6.533 76.474-11.008 114.108-15.342a2728 2728 0 0 1 95.164-10.145c13.766-1.115 27.672-1.352 41.495-2.407a7683 7683 0 0 1 344.617-18.73c89.405-2.969 179.004-2.504 268.294-8.495 41.38-2.776 82.77-5.67 124.15-8.347l120.95-7.044c18.47-.949 42.9-1.072 60.85-2.902 48.16-4.91 96.48-10.294 144.64-15.444 41.38-4.424 80.76-5.34 121.8-8.909"/><path d="M881.277 238.428c11.689-1.144 83.213-3.916 85.249 5.527 9.592 44.469 10.703 105.148 12.847 150.044l8.351 171.295c.919 17.933.82 35.886 2.049 53.632l21.047 272.405c6.69 84.207 15.12 169.109 20.01 253.449 1.02 17.59 10.14 76.38 4.86 90.45-7.24 5.32-56.302 8.63-69.148 10.17l-77.097 9.21c-11.3 1.38-22.838 3.68-34.124 4.7-76.114 6.82-152.511 11.43-228.821 14.38a2106 2106 0 0 1-165.377 1.42c-18.176-.27-112.086.19-122.051-9.16-4.641-11.17-6.658-111.62-7.236-129.26L320.65 647.002l-9.75-269.19c-.528-14.73-5.158-73.474-3.078-83.534 6.418-4.755 45.459-10.238 55.438-11.811a2626 2626 0 0 1 232.54-26.834c8.132-.629 16.142-1.019 24.286-1.364 74.088-3.137 147.328-14.305 221.635-14.111 12.841.034 26.663-1.055 39.556-1.73"/><path fill="#fefefe" d="M939.463 256.519c4.22-.401 6.852-.95 10.544.919 3.75 4.404 9.755 102.766 10.399 116.163 5.967 124.148 10.877 248.517 19.894 372.454l24.36 298.855c4.09 48.89 6.35 98.38 11.61 147.18.47 4.42 2.53 25.33.47 27.88-11.3 3.46-34.149 3.93-46.839 5.32-50.742 5.58-103.472 15.64-154.354 18.88-85.721 5.47-173.803 13.25-259.593 13.36-49.83.03-99.655-1.06-149.436-3.26-16.963-.61-33.144-2.26-50.241-2.49-2.535-13.93-3.113-49.4-3.7-65.32q-2.833-61.77-3.754-123.6c4.411-3.79 13.836-9.92 18.925-13.44 15.306 35.56 62.236 95.06 89.201 121.62q1.332 1.23 2.702 2.43c37.682 32.66 72.266-12.42 96.556-37.05a1525 1525 0 0 0 118.126-137.124c30.984-40.909 61.035-85.739 93.654-125.172 10.776 20.113 15.039 52.619 18.88 75.476 4.98 29.631 11.59 55.99 18.919 85.05 10.176 40.36 13.596 83.86 44.829 115.27 12.654 12.73 36.277 20.84 54.255 21.39 91.568-3.55 32.579-129.33 14.665-174.144-4.911-12.285-15.624-33.147-17.914-45.372-3.886-20.752-5.074-44.045-7.589-65.168-5.904-49.591-9.997-99.13-13.243-148.946a10609 10609 0 0 1-19.253-479.865c23.583.303 54.045-.589 77.927-1.296"/><path fill="#fefefe" d="M517.28 725.314c2.127.242 4.469.244 5.823 2.232 21.151 31.056 47.123 67.553 81.672 84.949 34.464 17.353 40.603-55.847 47.099-73.598 2.677-1.773 53.401 6.809 62.182 7.388-9.075 18.405-18.172 63.421-22.259 84.826-50.559 48.216-100.393 93.052-152.377 139.635-8.12-26.655-13.6-70.791-25.225-98.078-1.174-2.756-3.32-2.718-5.733-3.176-.859 1.713-1.943 4.015-1.41 6.149 8.125 32.51 17.465 65.048 23.394 97.97.287 1.595-1.854 4.458-2.397 4.487-13.022.68-38.399 4.38-49.737 7.757a380.5 380.5 0 0 0-130.514 67.175c.929-26.43-2.348-56.816-2.765-83.784l-1.387-104.705c-.154-9.543-.181-40.795-1.814-49.037 5.579-12.538 14.558-20.498 24.572-29.568 42.846-38.806 95.292-51.677 150.876-60.622"/><path fill="#fefefe" d="M798.721 690.779c2.636-.047 2.604.044 4.977.857 5.767 12.775-51.789 64.423-42.298 76.433l2.164.036c12.011-6.759 34.323-58.187 49.097-58.56l1.867 1.741c-1.626 14.692-41.279 58.031-40.251 68.701l1.854 1.439c13.158-.887 38.631-59.484 49.459-57.833 2.136 2.458 1.884 4.934 2.176 8.323-11.24 21.838-22.974 37.172-38.631 56.004-2.89 3.475-2.632 2.835-2.221 6.308 2.62 2.674 1.096 1.927 4.636 2.501 6.932-2.613 30.956-39.913 39.458-48.284l.945-.914c-3.596 12.937-13.135 31.128-19.67 42.961-8.533 15.453-17.672 36.599-27.995 50.515-16.402 22.111-35.226 40.511-51.817 63.255-33.276 45.616-66.747 91.972-102.254 135.868-29.316 36.25-63.354 71.75-95.5 105.6-4.514 4.75-9.503 9.24-14.421 13.57-9.421 8.29-23.112 17.4-36.33 16.14-26.131-2.49-74.498-74.03-89.209-96.75-6.945-10.73-12.82-23.43-21.083-33.1l-.846-.97c29.388-21.11 78.285-41.87 113.047-51.82 10.192-2.918 24.431-4.743 34.951-6.13-12.805 12.6-26.659 25.49-38.466 39.08-2.779 3.2-3.928 5.08-1.743 8.87l2.261.33c7.187-2.49 39.382-36.723 47.516-44.188l76.247-69.242c22.994-20.485 45.68-40.208 67.705-61.726 23.138-22.605 25.423-18.561 31.36-51.011 5.322-29.095 13.793-67.231 34.753-88.984-5.726 9.524-19.207 35.547-5.781 43.663 2.855-.045 6.014-2.678 7.593-4.89 16.881-23.652 28.525-52.139 55.175-67.085zm-144.34-232.908c6.029-.197 15.82 4.1 20.832 7.481 18.659 12.587 28.917 39.716 32.74 61.287-8.141-.607-25.323-.388-30.351 7.293 2.065 8.202 27.482 3.816 33.621 3.159 2.514 7.527 6.179 15.465 3.46 22.719-9.266 8.267-23.721-4.455-33.194-1.877-1.995 2.356-1.396 1.429-1.555 5.174 4.898 8.585 30.648 8.108 39.696 8.209 4.814 18.959 6.17 27.247 2.945 46.992-5.254 32.171-34.12 62.483-64.124 73.79-4.355 1.931-21.331 3.445-24.16 6.381-8.807 9.14 2.068 28.502 8.283 34.877-1.697 23.865-9.356 57.711-27.858 74.051-23.071-8.684-47.757-35.25-62.487-54.361-6.292-7.53-14.302-19.738-20.104-28.078 7.357-3.924 13.909-10.465 18.827-17.135a66.45 66.45 0 0 0 12-50.746c-.54-3.303-4.538-22.811-6.24-24.044-6.295-3.476-24.239-.396-29.993-6.546-30.071-32.139.868-68.485 37.949-36.165 4.955-2.29 23.77-17.421 24.198-17.484 1.994-.298 8.747 3.154 11.675 3.44 19.582 1.917 41.706 2.241 61.04-1.707 5.868-5.346 14.575-11.786 11.121-20.351-9.586-6.847-21.509 5.439-26.776 12.465-24.152-3.58-28.026-5.073-51.701.296 5.308-5.78 8.835-12.97 12.921-19.816 11.024-3.666 27.557-3.66 32.327-9.896-.12-4.157.421-2.663-1.782-5.838-6.029-2.937-14.154-.213-20.927 1.195 12.136-26.843 16.427-54.829 37.617-74.765"/><path d="M679.872 622.641c3.972.92 6.331 2.205 6.342 6.322-9.53 15.727-39.472 10.377-53.525 5.34-2.05-.813-2.703-1.373-4.458-2.612-1.413-3.176-1.575-2.206-.691-4.717 11.927-5.159 30.322 16.268 52.332-4.333m-14.36-44.231c5.476.961 12.843 2.428 15.991 7.24.026 3.844-.028 2.698-2.413 6.508-5.43-.724-11.852-1.978-15.082-6.713-.653-4.254-.805-2.495 1.504-7.035"/><path fill="#fefefe" d="M831.45 771.61c.285.263.621.479.854.789 6.046 8.03 4.65 75.179 8.753 91.05 3.621 14.011 20.267 44.445 27.417 59.564 20.481 43.308 75.652 163.617 68.453 205.477-1.473 8.56-5.057 16.88-12.48 21.89-9.742 6.57-23.069 4.53-33.803 2.18-51.999-18.63-50.429-54.65-63.567-101.19-2.7-9.56-5.538-19.42-7.597-29.12l-13.971-65.369c-5.96-29.001-10.498-69.561-27.165-93.923 24.982-29.555 35.666-56.976 53.106-91.348M576.79 403.515c8.315.341 22.135.159 29.655 2.743 17.938 6.164 35.132 7.513 53.241 10.63 28.495 4.903 51.357 30.602 64.606 54.843 5.043 9.226 9.677 21.088 14.671 30.541 19.302 27.234 34.35 54.02 18.42 87.574-3.209 6.757-10.302 15.016-13.143 21.809-2.411 5.764-3.25 17.414-4.872 24.244-2.321 2.576-.955 1.72-4.201 2.738l-1.831-1.157c-9.07-18.824 10.545-42.636 17.251-58.435 2.654-6.252 1.69-20.947.758-27.522-2.464-17.366-15.13-30.056-23.848-44.431-14.32-26.503-18.19-47.277-44.876-65.901-16.718-12.312-35.135-13.269-54.765-15.736-5.984-.752-16.193-4.897-22.964-6.416-16.33-3.665-31.324-4.383-47.813-1.073-26.314 5.284-44.855 15.505-60.007 37.647-10.295 15.581-15.243 39.075-23.333 56.203-7.462 15.8-17.216 26.51-27.387 40.488-8.898 12.226-14.843 29.659-6.265 43.72 3.742 6.134 8.819 10.377 12.104 17.621 4.182 9.221 3.381 17.549 5.511 26.354 3.559 23.121 39.776 15.112 49.629 22.275 22.995 16.718 12.973 22.034 46.995 14.13-1.939 7.239-3.215 10.609-6.965 17.015-22.652-10.371-23.625 1.352-46.687-23.83-14.351-4.236-27.154 2.643-43.034-10.251-13.185-10.605-12.65-28.291-18.108-42.735-2.104-5.185-8.229-9.982-10.87-14.596-21.057-36.778 16.315-64.48 31.543-92.751 13.034-24.198 13.927-49.865 33.796-70.976 25.747-27.355 47.82-32.427 82.789-34.765m162.977-129.613c3.471.335 3.851.554 6.745 2.524 3.64 6.951-1.882 11.58-6.794 16.654-23.61 24.39-48.41 47.85-72.633 71.648-8.79 8.636-29.482 31.915-38.667 37.613-4.174-.162-5.957-1.599-7.846-5.248.037-1.855-.219-3.092 1.148-4.603 13.973-15.441 28.85-30.739 43.694-45.288zm60.317 13.836c3.895.717 4.347.593 7.114 3.171 2.216 6.195-1.984 10.156-6.139 14.655-18.592 20.132-38.907 38.554-57.962 58.276-14.938 15.462-29.549 32.01-46.163 45.648-4.769-.284-6.46-.01-8.667-4.42.74-10.041 98.624-103.712 111.817-117.33m-80.239 364.683c14.002 1.355 28.503 5.283 39.756 13.893-9.326 8.657-21.029 26.141-29.953 37.141-2.609 3.487-5.574 7.082-8.301 10.512-9.997-10.267-17.76-22.731-23.868-35.651 8.59-9.593 14.266-15.539 22.366-25.895"/><path d="M743.199 672.873c3.5.576 2.233-.274 4.183 2.208-1.752 7.099-15.598 17.139-22.912 18.43-2.542-4.004-1.799-10.854.38-14.87 5.253-1.661 5.504 2.916 9.672-.088 2.753-1.984 5.811-3.84 8.677-5.68"/><path fill="#fefefe" d="M767.02 673.701c5.985 2.783 15.73 8.529 22.022 11.863-20.576 14.801-40.747 45.547-52.065 68.078 1.121-8.112 1.541-12.621 4.903-20.119 4.089-7.517 21.938-33.449 19.088-39.458-7.817-.345-8.662 8.94-15.719 11.353-2.796.955-4.954 2.342-7.481 3.846 2.741-7.341 22.681-30.194 29.252-35.563"/><path d="M1609.36 182.406c11.81-1.07 39.02-1.384 50.2 2.355 4.28 1.431 5.01 28.786 5.42 34.209l3.77 44.569c3.69 41.31 9.26 84.826 13.49 126.564 19.5 184.635 36.76 369.5 51.76 554.555 4.38 51.634 8.32 102.792 16.08 154.032.65 4.31 3.71 26.12.64 27.79-31.84 17.36-74.25 19.08-109.61 26.28-60.47 12.89-112.15 23.18-172.85 30.64-19.59 2.42-37.85 4.23-56.72 6.76l-249 34.5c-10.92 1.34-58.49 6.18-66.09 1.88-7.5-10.86-9.5-87.47-10.41-104.77l-9.44-151.262-38.05-576.046c-2.45-35.287-6.23-70.386-9.88-105.564-1.58-15.192-4.76-31.758-4.81-46.93 0-1.786.55-3.612 1.66-5.027 11.43-14.467 458.61-47.312 506.54-50.578 25.76-1.755 51.56-2.326 77.3-3.957"/><path fill="#fefefe" d="M1382.6 910.343c2.42 1.882 9.87 12.448 11.88 15.745 29.66 48.777 78.04 83.242 103.86 134.732 4.51 8.99 9.51 20.26 15.74 27.7.86 1.02 2.83.26 4.02.05l.93-1.84c-.2-4.79-4.14-12.17-6.21-16.96 12.63-3.91 29.85-5.21 43.04-8.06 27.34-5.89 53.84-10.21 81.36-14.8 28.61-4.77 54.73-12 84.18-15.36 3.99 14.23 8.81 65.08 10.4 81.82-30.79 11.39-72.28 15.05-104.78 21.66-29.74 4.97-60.69 14.05-90.53 17.92-41.99 5.46-84.92 14.11-126.92 17.39-19.07 2.35-37.87 6.18-56.84 8.93-20.19 2.93-40.52 5.1-60.7 8.23-20.62 4.06-41.94 5.92-62.54 9.33-38.24 6.32-81.14 6.62-118.76 13.31.9-9.6-1.58-29.34-2.61-39.22-1.51-14.66-2.54-26.95-1.94-41.8 16.69.27 35.2-2.86 51.89-4.38 54.65-4.98 108.28-17.07 162.87-23.7 20.73-2.52 40.1-6.34 61.35-7.94 1.82 6.39 3.69 18.18 10.45 19.83l1.34-.96c2.47-8.05-8.42-32.59-10.9-41.65-13.72-49.99-28.67-98.544-38.43-149.628 10.83-2.22 26.17-7.364 37.85-10.349m19.52-414.216c26.07-1.042 79.08 36.804 96.49 56.449 4.11 4.647 20.32 21.387 23.11 23.438 10.86.318 21.08-37.031 45.07-6.235 1.68 23.64-5.26 37.719-30.14 42.326.43 10.572 5.7 34.699 7.75 46.48 4.72 27.056 10.32 54.926 15.37 81.915 1.54 8.281 8.16 32.636 7.15 38.857-2.57 15.775-10.84 39.128-15.96 54.888-3.75-4.328-8.52-11.927-11.83-16.872-13.05-19.823-28.74-41.385-42.51-60.858-4.49-6.357-4.4-24.916-11.03-34.827-13.35-5.027-55.06-12.993-71.35-17.585-3.93-1.109-17.58 2.752-21.81 4.026-8.29-28.077-19.56-69.3-24.12-98.168 5.83 1.914 10.34 3.46 15.15-1.48.64-3.188.48-3.335-.74-6.474-1.71-1.583-3.09-3.117-5.75-3.014-7.53.291-6.69 3.965-9.04 6.372-1.99-3.696-4.36-16.412-5.41-21.184 5.37-2.243 11.65-3.337 16.56-5.992 1.41-.763 1.16-1.763 1.5-3.702-3.07-7.498-12.72-2.845-19.28-1.097-6.04-44.41-1.06-57.363 40.82-77.263"/><path d="M1463.73 635.637c4.03.371 4.5.613 5.61 4.47-3.68 17-36.99 26.106-52.64 25.604l-.64-.204c-3.49-1.158-8.61-1.705-8.64-5.933 6.28-6.314 18.53-.667 30.36-5.867 13.53-5.95 15.55-8.001 25.95-18.07m-10.03-105.459 2.02.181c2.34 2.513 1.65 1.049 1.97 4.628-.59 1.485-2.38 5.033-4 5.187-15.82 1.499-24.11 6.83-37.54 14.982-3.01-.105-3.3-.441-6.05-1.901l-.48-2.083c5.66-11.123 32.15-18.586 44.08-20.994m-52.33 70.279c1.1.273 2.48.814 3.58 1.202 5.74 6.487 10.84 19.01 6 27.07l-2.94-.604c-4.82-4.645-9.31-21.754-6.64-27.668m148.03-28.804c3.93.19 3.32-.436 6.01 1.498.25 5.149-7.29 8.62-11.91 16.241l-.65 1.097c-3.13 1.239-1.61 1.187-4.68.424-3.37-6.764 6.48-15.673 11.23-19.26m-110.73-4.636c6.15.329 11.93 1.68 10.06 9.214-2.34 3.166-3.21 3.091-7.2 4.361-2.83.417-3.12.134-5.9-.927-4.6-5.381-1.45-8.598 3.04-12.648"/><path fill="#fefefe" d="M1604.07 201.558c13.12-1.08 27.21-1.048 40.36-.538 1.57 15.101 2.4 31.372 3.44 46.595-27.76 4.071-59.86 6.747-88 9.41a6316 6316 0 0 1-164.54 13.718l-309.7 24.363c-10.38-.085-26.03 1.37-36.76 2.044-3.04-14.391-4.16-32.113-5.18-46.923 34.91-2.17 77.3-10.448 113.88-13.947 89.92-9.008 179.95-16.813 270.07-23.412 57.67-4.507 118.9-9.535 176.43-11.31m-554.49 111.3c5.55 1.031 11.2.427 16.85.091.07 17.406 5.69 42.065 7.44 60.365 11.51 120.405 15.16 241.029 24.11 361.682 7.47 100.584 15.89 201.17 21.26 301.874 1.17 22.42 4.25 48.71 3.9 70.62l-1.36 1.15c-5.18 1.09-11.66 1.39-17.05 1.8-1.25-6.13-1.48-21.3-1.86-28.5q-1.365-22.605-3.06-45.18l-13.87-219.87-22.41-331.983zm432.07 110.482c26.45-2.294 51.23 2.635 74.64 15.184 68.23 36.569 72.69 122.568 127.3 171.674 3.58 3.213 7.01 8.83 6.79 13.74-1.43 2.931-.66 2.455-3.06 3.719-6-1.658-12.12-8.953-16.62-13.388-52.72-51.956-59.39-141.664-133.75-172.147-41.47-16.999-72.2-5.26-109.7 9.973-4.81 1.648-12.44 4.74-17.14 5.723-100.4 20.986-55.45 140.865-44.04 208.037 2.87 16.895 5.84 38.801 11.23 55.082-4.15 3.418-7.67 7.885-11.16 12.009-.42-13.937-4.1-26.829-6.18-40.304-8.92-57.517-45.78-161.184-7.19-212.732a69.6 69.6 0 0 1 21.27-18.999c15.33-8.925 33.29-12.513 49.39-19.157 20.9-8.621 35.62-15.14 58.22-18.414m-106.61 343.065c7.41-.276 12.37.439 19.66 1.309 2.66 37.705 6.47 75.614 7.11 113.651l-.49-.261c-24.32-12.625-56.69-6.272-78.83 8.339-3.36 2.711-7.25 4.905-10.95 7.161 10.13-12.039 26.77-29.896 33.49-43.882 2.24-4.653.07-7.892-2.06-12.502.06-4.247 1.43-6.114 3.36-9.913-1.68-5.507-8.21-8.59-13.36-11.901 7.43-12.967 13.61-20.029-1.21-29.753 12.83-16.312 23.62-18.473 43.28-22.248m105.5-29.349c1.37 2.5 2.39 8.323 3.05 11.356-20.97 8.826-35.21 19.13-51 35.159 2.03 43.964 12.04 92.54 17.61 136.422 2.84 22.407 8.39 45.074 11.38 67.911l-.93.064-5-4.737c-9.82-9.616-9.87-31.965-12.69-45.857-10.37-51.118-16.71-102.978-22.73-154.753 7.96-18.437 41.89-37.711 60.31-45.565m-223.25-438.36c3.38.951 3.86 1.066 6.34 3.514.34 1.293 1.2 3.917.34 4.86-17.7 19.376-104.42 109.344-118.38 116.993-4.83-2.277-6.15-3.14-6.29-8.32 3.83-8.024 111-113.003 117.99-117.047"/><path fill="#fefefe" d="M1409.84 714.117c39.45.449 10.77 52.84-2.61 55.96l-.32-4.656c-2.44-2.896-7.38-5.031-10.9-6.899 7.26-6.558 14.25-12.435 19.65-20.643l-3.19-1.677c-5.07.686-20.92 16.168-26.46 20.898-8.27.31-13.28.648-21.54 1.804 6.57-22.501 21.73-39.802 45.37-44.787m-256.69-384.281c15.29 5.57 2.54 16.191-3.98 23.202-12.25 13.182-25.41 25.891-39.41 37.22-5.17-2.238-6.74-2.458-7.67-8.082 1.61-6.5 43.99-47.271 51.06-52.34m180.36 514.898 2.1.179c7.43 5.451-20.02 34.809-24.81 40.978l-.68.429c-1.66-1.186-3-10.921-3.57-13.797 6-8.237 18.7-22.212 26.96-27.789m-5.44-20.209c4.06 1.087 5.5 1.815 7.06 5.677-1.03 5.038-21.49 22.253-27.81 29.157l-2.09 2.074-1.55-.927c-5.33-11.929 16.14-27.108 24.39-35.981m-5.01-28.019c1.31.458 5.11 1.719 5.83 2.61 7.44 9.105-16.66 29.31-21.27 33.706l-2.27 2.2-1.31-.491c-1.68-8.079 13.9-30.793 19.02-38.025m77.9 106.9c2.15 2.523 3.49 13.88 2.05 17.031l-1.77-1.32-8.99-11.065zm464.97-777.088c.22.037.45.059.66.112 1.78.431 3 .684 3.99 2.244 10.77 17.022 23.74 315.624 27.33 362.26l15.69 187.851c9.56 103.843 18.44 207.115 22.17 311.401.8 22.194 8.44 105.854 3.97 123.494-3.03 3.69-100.46 31.59-112.97 35.06-.46-8.3-1.14-15.46-2.06-23.71-10.04-86.67-17.47-166.171-22.89-253.225-5.87-94.387-11.01-190.611-19.01-284.523-12.27-144.165-38.01-288.215-56.55-431.836 11.43-.986 43.51-9.235 56.03-12.535 30.51-8.043 52.64-12.402 83.64-16.593M133.618 238.6c24.028 4.675 48.918 12.618 72.291 19.752 13.175 4.021 27.649 9.08 41.119 11.375 1.569 31.836 3.353 64.629 2.747 96.486-.715 37.611-1.6 75.444-1.325 113.051l5.824 401.624a12187 12187 0 0 0 9.372 268.982q1.692 38.115 3.813 76.2c.51 9.58 2.147 26.78 1.836 35.56l-.881 2.38c-5.771 2.88-100.333-18.4-103.948-23.02-1.261-9.06-.535-26.12-.522-36-.075-25.19.124-50.39.597-75.58 2.044-152.773-11.906-306.287-17.623-458.898-1.935-51.661-3.473-103.698-6.25-155.274l-8.427-156.335c-1.53-34.621-4.219-86.896 1.377-120.303"/></svg>