<svg xmlns="http://www.w3.org/2000/svg" preserveAspectRatio="none" style="display:block" viewBox="0 0 2048 1462"><path fill="#fefefe" d="M0 0h2048v1462H0z"/><path d="M1470.04 100.518c10.44-.683 26.31-.235 37.03-.24l74.17.129 50.28-.377c9.12-.084 18.22-.447 27.29.081 18.88 1.099 18.65 19.333 19.03 33.483.25 9.449.54 18.981.83 28.413q1.275 43.463 3.09 86.907c20.78 7.682 35.71 14.665 49.08 34.146 23.79 34.657.94 83.696-12.78 118.113-6.89 17.284-13.03 19.372-17.03 39.314 27.29 4.116 46.83 12.69 63.84 35.418a101.2 101.2 0 0 1 19.24 45.743c3.32 23.387.49 59.816-.55 84.307l-4.84 120.625-1.92 54.434c-.26 7.786-.43 16.367-1.01 24.157-.4 5.451-5.49 3.671-9.95 6.486-1.73 7.128 2.36 71.525 2.82 82.878a8538 8538 0 0 0 24.75 409.475c6.83 7.69 24.28 61.87 22.13 69.77-5.78 21.16-78.23 8.48-91.75 4.63a198.2 198.2 0 0 1-85.49 5.19c-7.98-1.34-25.18-6.19-32.14-6.25-.59 1.93-.45 3.35-.45 5.35-2.74 3.92-3.8 4.55-7.73 7.17l-1.14.76c-19.11.7-49.18.64-66.39-7.1-2.43.85-4.89 1.64-7.36 2.37-27.8 8.1-88.53 4.36-115.93-8.74-4.17-1.4-12.36-10.35-7.73-14.54 29.18-26.43 62.32-3.87 85.29-43.9-7.33-21.98-15.06-60.54-20.13-83.67-15.17-69.16-30.78-127.06-29.32-198.25-75.83-.9-157.8 1.97-234.27 2.92l-377.5 3.49c-50.792.43-104.385 3.09-154.814 2.15-1.835 26.6-9.733 73.32-13.959 100.29-11.225 71.65-22.694 143.99-34.776 215.5 16.316 7.89 113.224 41.34 118.045 51.4 1.435 2.99.615 4.94-.573 7.71-2.673 2.43-6.424 3.81-10.037 3.33-40.24-5.39-80.636-10.19-120.941-15.1a11101 11101 0 0 1-143.156-17.58c-20.237-2.58-41.297-4.46-61.373-7.94-5.341-.93-8.807-4.44-12.509-8.13a3494 3494 0 0 0-62.137-5.95c2.937-15.11 4.681-34.84 6.526-50.37l9.427-74.84c8.29-64.94 18.235-130.01 26.29-194.66-14.381-1.92-176.153-1.27-179.857 1.03-2.389 8.65.376 33.25.321 43.41-.024 4.35.967 5.79 2.966 9.5l-4.946 8.78c-.117 4.1 6.643 7.98 2.13 15.16-13.677 21.74-32.738 19.5-39.975-6.25 3.333-15.48 2.006-25.52.428-41.31 7.774-10.19-2.166-12.4-2.006-24.39 6.278-5.4 3.634-4.54.985-12.07 1.13-2.74 1.7-3.79 3.211-6.36-1.769-6.36-3.627-2.76-3.121-10.33.941-14.1-.244-26.615 1.632-40.749-5.279-9.951-3.316-11.354-.904-22.011.013-.06-4.048-7.268-3.693-8.824 3.734-16.361.453-32.983.747-49.569.088-4.116 4.804-10.087 5.313-16.602-1.038-1.954-2.358-3.083-4.023-4.526-3.386-2.935-3.767-109.366-4.075-123.219-.076-3.429 1.335-11.906.519-14.681-.323-1.098-1.461-2.607-1.998-3.695-2.824-5.718 1.704-11.364 1.74-17.357.062-10.426-2.631-26.612-3.244-37.848-.354-6.493 1.078-12.839.551-19.441-.455-5.703-4.53-19.191-2.501-24.189.41-1.012.955-1.955 1.33-2.99 2.3-6.346-1.428-40.494-2.127-49.093-.434-5.335 2.321-11.878 1.312-16.608-.607-2.851-2.606-5.968-4.001-8.529 2.371-4.988 3.904-9.518 5.746-14.725-2.828-6.445-4.14-9.5-5.901-16.24 4.533-14.305.168-75.048.687-94.682-7.134-7.606-3.49-10.734 1.218-18.839-1.424-7.638-2.699-14.027-2.766-21.876-.045-5.237.876-12.011.412-16.89-3.924-5.358-5.672-7.494-1.515-13.877 1.154-1.771-2.654-10.98-2.454-13.729.294-4.024 4.312-6.851 4.024-10.736-8.146-13.817 1.96-54.771-4.032-71.15-2.391-5.161-1.225-14.304-.38-20.285 4.08-28.859-4.129-71.25 1.237-98.98-9.435-21.145-1.647-57.886 26.61-34.255 2.379 9.927 2.535 43.321 3.007 55.469a8140 8140 0 0 1 4.787 142.065l14.418 445.989a8482 8482 0 0 1 4.117 159.244c.759 29.85 2.664 64.798 2.163 93.968 12.709 3.26 57.894 1.62 72.719 1.76 37.9.36 75.517.3 113.417-.36 3.845-17.92 7.377-44.981 9.785-63.492-10.859-.708-26.757-.178-38.104-.154q-32.798-.067-65.594.255c-14.806.186-29.67.803-44.42-.395-14.705-1.683-18.629-6.507-21.354-20.18-2.787-13.981 2.145-16.925 3.451-29.721.574-5.618-3.907-14.977-3.95-21.378.548-.964 3.016-5.293 3.005-6.173-.069-5.842-2.39-14.029-2.36-19.705.046-8.81 1.637-18.337 1.689-27.17.016-2.834-4.098-8.532-3.616-11.768.028-.189 3.418-7.532 3.386-7.772-.48-3.647-1.332-8.423-1.674-12.084-1.038-11.115-2.008-22.344-2.972-33.444-.244-2.812 5.65-12.969 6.109-15.662.642-3.765-7.514-6.094-7.039-12.061.14-1.766.05-3.487 1.896-5.008 8.784-7.237-7.541-23.713-1.145-32.763.955-1.351-1.824-14.578-1.906-17.974-.534-22.127 2.422-63.137-4.191-83.652 8.131-16.126-5.091-27.962 2.722-42.739-.053.1-2.951-9.642-3.416-11.123-1.446-4.606-1.608-7.454-.395-12.474.818-32.795-3.495-67.063-4.186-100.123-.115-5.476-3.682-35.23-3.133-37.885 3.192-15.436-6.109-67.043-1.864-77.254-1.278-4.344-2.42-8.662-2.813-13.187-.962-11.066.83-54.443-2.944-60.667a22 22 0 0 1-1.545-3.044c-2.31-5.561 1.474-11.337 3.714-16.5l-.419-1.056c-6.246-15.752-4.719-38.86-5.757-56.111-.396-6.576 1.226-11.471 7.663-13.44.061-.018 2.823-6.976 3.708-7.358 7.341-2.872 18.042-1.137 26.176-1.752 92.717-.117 185.425-.021 278.136-.489l1078.246-1.981c5.11-.059 30.35-.73 32.34 1.835 6.87 8.882 4.85 41.882 5.16 52.443.53 18.159 1.02 34.544.86 51.614 16.11-5.068 21.71-6.031 38.13-6.063-1.16-11.932-.99-28.769-1.41-41.054-.94-27.949-1.08-56.125-2.45-84.067-15.41-.771-39.79.216-56.1.228l-134.29.394-830.109 1.477-326.866.454-93.647.183c-15.217.077-30.546.305-45.759.3-2.37-.001-5.536-.633-7.331-2.255-1.011-.99-2.196-2.776-2.244-4.222-.23-6.825 4.624-8.455 10.438-8.461 30.95-.029 61.936.454 92.88.21l309.367-.899z"/><path fill="#fefefe" d="M1367.33 155.529c16.03-.649 35.15.136 51.54.257l80.58.025 64.32-.133c10.7.046 24.95-.321 35.29.966 2.98 7.979 2.61 81.343 3.35 97.67-8.31 10.113-17.82 15.114-24.05 28.349-10.08 21.421-9.47 40.696 2.57 60.485-1.5 7.169-.72 17.368-.71 24.59.02 7.281 6.76 33.319 4.29 37.474-18.76-4.026-39.72-11.664-58.56-16.928l-145.58-40.905-131.46-36.038c-31.75-8.466-68.64-17.752-99.78-27.905-12.89-15.233-28.45-33.508-50.1-34.363-4.63-.44-14.27 1.209-18.41.336-40.21-8.483-63.91-3.099-91.954 28.291-19.595 5.788-50.857 11.938-71.304 16.394l-98.111 21.891-93.217 20.088c-14.223 3.055-39.15 9.161-52.666 10.633l-.854-1.607c1.662-7.378.352-28.428-.034-36.422 14.407-13.691 19.246-29.677 16.785-49.206-4.199-33.333-33.279-48.603-64.556-44.895-28.538-17.748-56.054-14.008-84.156 2.659-47.108 28.075-52.099 79.18-28.139 124.926 13.007 24.833 15.333 48.579 9.125 75.598l-11.424 5.414a326 326 0 0 0-27.913 16.191c-45.274 29.568-80.486 75.113-106.229 122.028-19.867 36.205-44.753 82.583-18.65 121.746l-115.704.812c-1.008-7.289-2.919-12.198-4.46-18.707-.423-1.785 2.897-9.809 2.623-14.443-1.562-26.428-2.24-52.842-4.636-79.228-.545-6.003.815-14.239.953-20.427.081-3.6-5.516-9.31-5.091-12.066.704-4.57 3.328-10.43 3.1-15.278-1.757-37.401-3.381-74.981-5.074-112.371l-7.416-172.489c-.116-3.16-.368-8.88-.848-11.839-.471-2.901-4.042-3.148-4.027-7.507.895-1.297 1.789-2.606 2.529-4 .563-1.059-2.309-53.353-3.101-55.592-.394-1.113-.411-.477-.042-1.613 14.395-.891 31.344-.477 46.047-.486l71.98-.142 238.294-.269L936 156.196c142.93.028 288.57 1.282 431.33-.667m-159.58 594.957c23.74-1.216 41.74 1.164 63.12.954l186.1-1.529c-1.38 18.636-4.49 37.953-4.51 56.653-.01 5.97 1.67 8.34 5.69 12.412-2.34 29.609-7.8 67.127-11.36 97.138l-507.143 2.055-253.919 1.013a1321 1321 0 0 0 7.324-110.723c43.039-11.118 80.273-22.794 112.42-54.432 25.09-2.005 55.182.849 80.766-.783 4.17-.266 9.797.409 14.258.349l206.004-2.571c33.14-.22 67.8 2.343 101.25-.536"/><path fill="#fefefe" d="M1626 455.554c19.33-1.019 38.57-.445 57.85-.773 26.22-.445 48.3 5.32 66.5 25.376 25.44 28.026 22.04 64.968 20.54 99.773l-2.22 55.305c-2.17 52.987-3.4 108.527-6.33 161.211-72.27 20.832-221.88 25.267-295.94 10.721 1.3-27.607 5.79-57.6 9.56-84.93a254.3 254.3 0 0 1 16.68-59.262c6.25-15.161 12.75-29.582 21.34-43.598 3.64-5.956 8.6-13.314 3.43-19.402-2.87-1.637-2.99-1.609-6.38-1.26-13.73 8.298-39 76.994-44.65 94.516a73 73 0 0 1-37.77 12.607c-37.74 2.076-56.11-35.433-40.95-67.827 2.73-5.83 5.37-11.145 9.04-16.512 17.09-24.971 36.67-50.972 57.45-73.045 31.62-33.6 66.56-71.542 111.78-85.632 18.79-5.854 40.65-6.491 60.07-7.268M528.667 431.066c3.091 1.047 23.71 4.517 27.615 5.072 43.864 5.54 75.659 7.268 113.169 34.356 69.726 50.353 110.884 143.317 132.973 223.903 16.704 60.936-63.901 89.464-110.335 97.671l.174-14.418c2.782-.844 6.021-1.607 8.241-3.571 5.524-4.889 7.299-49.703 8.285-59.886 7.649 6.487 27.287 25.21 37.172 19.877 2.057-2.616 2.21-2.702 2.485-5.906-1.124-3.966-32.447-27.659-38.686-33.607 1.006-10.982 1.48-11.292-6.375-19.404-17.574-18.149-33.658-36.829-45.818-59.133-3.348-6.142-7.367-14.667-15.179-14.306-2.279 2.125-3.233 3.547-3.386 6.787-.64 13.61 34.63 57.071 44.767 68.088 3.691 4.262 8.421 8.779 12.452 12.822-2.068 24.745-3.54 48.712-6.112 73.493-61.324 11.57-206.409-1.608-264.555-23.166 4.625-28.804 13.216-58.361 17.187-87.183 1.857-13.48.364-74.898-8.062-82.012-3.115-.748-2.987-.872-5.869.327-6.025 5.751-2.938 19.68-1.64 27.904 6.17 39.085-1.402 76.095-10.603 114.398-57.036-31.174-71.016-59.188-40.815-120.254 30.358-61.383 84.88-138.43 152.915-161.852m664.893 520.429c82.41.817 167-.325 249.65-.382-2.43 15.541-3.77 39.333-5.39 55.787-74.91 1.9-151.67 1.4-226.71 2l-285.669 3.47c-8.405-.12-17.125.27-25.571.43-75.249 1.43-151.112.76-226.274 2.02 3.511-16.974 5.749-42.164 8.719-60.677zm-27.51-588.168c9.09 3.585 23.24 7.758 32.81 10.903l63.97 20.959q82.365 27.033 164.43 55.013c26.42 8.873 54.69 17.353 80.71 26.85-16.88 13.621-26.05 21.477-41.34 36.789-6.45 6.592-12.47 12.722-18.52 19.691-11.85-1.009-29.43-4.331-41.66-6.147l-89.13-13.163-81.94-11.881c-12.21-1.797-34.51-4.532-45.57-7.73 5.59-5.712 7.42-17.115 7.21-24.885-.3-11.439-6.89-18.752-14.9-26.14 31.21-52.212-14.44-42.444-16.07-80.259"/><path fill="#fefefe" d="M626.867 417.467c11.995 2.516 26.375 8.388 38.303 12.401l61.694 20.072a7344 7344 0 0 0 117.947 37.74c19.004 5.922 39.087 12.65 58.28 17.705 6.658 1.754 24.363 3.758 31.802 4.819a2435 2435 0 0 1 44.383 7.019c-41.688 16.616-66.397 39.137-96.415 70.587-24.143 28.938-42.41 57.698-59.815 91.056-.834 1.598-2.75 1.294-4.293 1.382-8.264-3.645-12.898-25.136-15.869-34.233a326 326 0 0 0-10.315-27.216c-22.979-54.506-59.461-119.961-107.696-155.932-18.407-13.727-39.148-22.134-60.107-30.691.874-4.379 1.494-10.171 2.101-14.709M293.594 752.499c35.181-.481 85.041-1.691 119.979.198-.649 12.332-5.238 37.871-7.194 51.143l-17.845 116.238c-13.841.895-28.831.742-42.784.852l-58.891.154c-12.229.023-27.228.502-39.084-.94 3.294-13.664-.184-27.396-.626-41.325-.211-6.636 1.298-12.639 1.13-18.881-.425-15.764-2.369-31.647-1.456-47.43.398-6.694-2.452-7.125-3.245-12.298-.198-1.295 4.233-10.588 4.431-13.08.228-2.869-4.611-8.787-4.549-9.802.483-7.873.442-16.795.469-24.581zM1163.3 304.244c12.43 2.258 33.44 8.599 46.55 11.927a7192 7192 0 0 1 138.35 37.511 8669 8669 0 0 1 151.76 42.509c26.42 7.6 63.34 17.255 88.28 27.276-.13 6.625-.74 12.59-1.37 19.16l-19.05 3.955c-15.95 4.033-32 12.409-46.35 20.149-8.03-3.604-21.85-7.772-30.4-10.607l-60.91-20.119-128.36-43.593c-43.76-14.39-90.53-28.977-133.76-44.468.9-19.915.75-24.52-4.74-43.7m-197.459 31.022 1.714.874c1.106 5.483 1.331 12.803 1.684 18.517-32.037 3.406-45.828 21.976-34.463 52.98-17.914 9.972-20.07 20.544-13.767 39.369-9.134 5.724-10.906 8.75-14.568 18.525-19.07-4.571-41.266-12.582-60.316-18.51a3869 3869 0 0 1-114.275-36.37c-20.001-6.396-48.11-14.293-66.878-22.71l144.529-29.955c36.385-7.623 69.536-17.621 106.811-16.456 14.723.46 35.088-3.087 49.529-6.264m125.739-18.716c1.57 1.227 7.04 7.636 9.26 9.684 9.92 9.139 16.42 12.222 28.27 17.59 1.01 9.556-.36 20.227-1.61 29.754 1.08 1.008 5.24 5.019 6.27 5.136 5.86.663 12.59-10.321 18.93-6.606 1.88 5.518-4.04 23.722-9.17 27.804-5.66 4.499-8.49-2.541-14.13-3.604-6.06 2.943-11.83 26.941-17.65 34.95-4.5 6.192-6.21 8.327-11.59 14.252-1.44 24.072-1.83 56.645 15.64 74.687-10.77 23.583-27.24 35.865-53.36 32.212-19.02-6.596-27.64-16.274-36.2-34.142 17.57-19.107 14.52-47.231 16.9-73.263-5.94-7.428-6.92-8.74-11.21-16.692-4.29-7.944-8.59-28.436-13.89-33.175-7.28-.889-13.52 10.497-19.646-3.29-3.095-6.959-8.254-13.26-2.532-20.035 8.388-3.202 8.458 4.926 16.238 5.242 7.46-4.476 2.65-10.737 4.68-11.294 31.84-8.721 54.43-20.806 74.8-49.21m517.54 754.27c3.89 5.9 11.86 33.93 14.58 42.59l38.81 125.89c4.11 13.74 18.4 65.56 24.26 75.62l-.23.52-1.49 3.21c-6.02 12.74-12.5 16.21-25.31 20.82-20.76 5.66-37.53 4.61-56.35 14.12-.64-18.97-9.17-34.36-9.41-47.36-.37-21.25 1.86-49.44 3.24-71.06q3.72-60.435 8.25-120.81c.56-7.31 2.01-38.55 3.65-43.54"/><path fill="#fefefe" d="M1119.46 500.285c29.67 4.936 62.64 8.979 92.47 13.236l143.35 21.095c24.6 3.663 58.23 6.788 81.59 11.791-8.26 8.846-17.52 20.471-25.54 29.896-3.6 4.692-16.33 23.332-20.6 25.09-1.44.597-157.83-35.385-167.33-39.989-7.97-3.863-15.1-12.223-22.59-17.198-16.78-11.147-35.86-18.921-54.52-26.239-10.14-3.974-22.14-6.954-26.83-17.682M1280.35 691.5c30.69.087 64.06.243 94.62-.446 5.69 11.058 8.91 12.927 18.31 20.857-36.54-.914-75.09.514-111.7.805-30.61.244-61.24.233-91.85.291-56.75.08-113.49.502-170.23 1.264-27.139.206-56.389-.819-83.221.261-38.346 1.176-79.006-.863-117.176.902-.128-7.985-.262-12.41-1.45-20.448 48.186-1.959 99.496-.781 147.928-1.189zm-612.917 88.785c3.899-.281 5.923-.592 9.832.229 2.961 4.129 1.828 28.311 1.627 35.37-2.503 88.012-15.726 176.23-28.578 263.326a17522 17522 0 0 1-42.232 267.33c-.571 3.3-.557 4.92-2.857 6.49l-11.778-5.11a16714 16714 0 0 0 50.618-325.13c7.824-55.614 15.883-109.485 19.325-165.704q1.311-22.053 2.291-44.123c.23-6.147.28-28.052 1.752-32.678m575.957-197.662c7.05.777 34.76 7.811 42.88 9.894 31.29 8.022 65.9 14.904 96.82 23.321-9.54 16.937-15.45 29.677-14.71 49.407.4 4.334 1.03 8.616 1.62 12.927-19.64.392-39.28.524-58.93.397-5.56-8.341-12.27-20.746-17.87-29.757-15.55-24.991-29.65-44.664-49.81-66.189M477.729 1009.43c4.371-.2 8.717.03 13.092.18.08 35.42 1.807 71.67.78 107.03-.238 8.2-4.795 26.75-6.783 35.68a4775 4775 0 0 0-11.873 53.91c-8.341 39.63-15.108 84.92-25.648 123.76l-12.856-3.92c1.7-14.06 7.145-38.62 10.127-52.67l20.324-95.78c4.254-19.99 8.795-41.26 11.965-61.08 2.559-16-2.444-98.65.872-107.11m1301.311 300.6.88.21c4.47 4.2 8.03 17.84 9.95 24.07-39.37.65-41.68 14.75-74.22 29.45-21.62 9.76-56.66 7.31-80.14 3.97-7.28-1.21-15.17-2.86-22.47-4.26 37.76-10.77 66.35.18 87.77-42.88 30.07 1.73 49.75-.14 78.23-10.56"/><path d="M1695.26 1351.53c2-1.29 4.55-1.38 6.63-.22a6.46 6.46 0 0 1 3.31 5.75 6.44 6.44 0 0 1-3.52 5.63c-3.06 1.55-6.8.44-8.51-2.53s-.79-6.76 2.09-8.63"/><path fill="#fefefe" d="m1579.69 1321.09 1.1-.01c2.37 2.08 5.7 17.87 6.88 22.16-31.23-1.97-34.31 4.51-57.29 20.8-23.58 16.73-73.6 11.04-101.14 5.62-3.64-.83-7.04-2.05-10.71-2.99 3.09-.52 5.65-2.65 10.06-3.18 25.56-3.07 58.69-10.63 70.99-36.37 29.62 2.75 51.57 2.1 80.11-6.03"/><path d="M1494.21 1358.02a6.778 6.778 0 0 1 4.37 12.82c-2.32.9-4.95.46-6.85-1.15a6.78 6.78 0 0 1-2.24-6.58 6.78 6.78 0 0 1 4.72-5.09"/><path fill="#fefefe" d="m974.485 296.126 2.064.242c.511 2.858-5.659 18.89-7.11 23.005-16.819 3.363-29.541 5.66-46.673 6.696-12.563.759-31.596.288-43.527 2.639-18.456 3.637-37.181 7.845-55.678 11.647a7005 7005 0 0 1-152.327 30.357c-2.965.516-1.598.695-4.265-.367l-.016-2.458c2.251-3.725 4.825-5.269 9.1-6.287 23.156-5.513 47.274-9.227 70.445-14.742 75.004-17.851 153.392-31.885 227.987-50.732M652.258 401.641c15.346 3.136 49.803 15.293 66.388 20.628l129.326 40.782c22.67 7.173 46.395 15.329 69.147 21.652 6.808 1.891 28.877 3.682 37.515 4.579l68.236 7.009-6.44 10.196c-.64.279-.72.33-1.47.558-4.41 1.326-101.315-14.322-111.639-16.855-21.489-5.273-42.605-12.994-63.718-19.595a6289 6289 0 0 1-124.047-39.465c-19.919-6.573-41.62-13.922-61.646-20.6-2.6-.868-3.502-2.263-4.216-4.68zm-38.067-45.666a603 603 0 0 0 6.269 6.22c-.545 20.346-4.314 47.117-9.253 66.898-22.301-2.571-39.95-5.383-61.96-9.044l-12.643-2.085c1.625-9.854 2.132-18.684 2.753-28.612 35.219 7.995 55.876-3.105 74.834-33.377M256.335 698.521c37.334-.798 75.714-.424 113.105-.453 8.374 5.612 18.131 13.521 26.26 19.791l-16.156.846q-43.834.393-87.672.218c-12.791-.01-37.016-.649-48.902.854-3.309-15.706-6.92-21.579 13.365-21.256m234.159 493.319.742.83c.619 6.13.076 18.96-.025 25.59l-.572 44.7c-.188 17.74.885 65.45-1.407 81.41l-17.142-5.01-10.592-3.27c5.149-29.41 11.832-59.03 17.811-88.3 3.578-17.52 9.357-38.27 11.185-55.95m166.429-882.906 1.606.385c2.182 7.534.597 37.948-1.393 47.304-4.495 21.133-9.433 34.346-27.291 46.676a1116 1116 0 0 0 2.844-19.261c1.47-11.48 6.928-34.431-8.875-37.773-9.257-1.958-5.491-17.336 1.837-19.923 7.772 1.003 10.066 7.644 17.896 5.238 4.694-5.135 3.924-11.087 3.832-17.778zM1776.8 1348.11c4.91-.94 10.3-.36 15.35-.07 2.87 5.22 5.51 14.39 7.44 20.31-12.67 2.52-27.55 1.78-40.67 1.66-6.43-.07-16.46-1.31-23.12-1.92 16.15-8.24 22.33-14 41-19.98m-197.2 8.15c1.97-.36 7.23.74 9.48 1.12 1.63 5.33 3.02 13.02 4.2 18.64-11.6.81-23.46.27-35.04-.6-6.33-.35-10.57-.83-16.84-1.8 12.91-10.37 22.2-14.67 38.2-17.36m23.95-936.858c3.59 1.996 7.76 5.593 12.46 8.204 16.32 9.314 35.27 9.073 53.45 8.671 5.57-.123 14.67-4.576 17.98-.88l-.97 4.564q-23.175-.006-46.35.717c-9.33.362-30.86 1.865-38.82.672-.51-5.227 1.26-16.623 2.25-21.948m-8.03-71.194 3.3 1.144c7.77 7.79 6.65 15.056 2.06 24.249-2.8 1.428-2.2 1.682-4.73 1.295-4.01-5.581-1.67-20.006-.63-26.688"/></svg>