<svg xmlns="http://www.w3.org/2000/svg" preserveAspectRatio="xMidYMid meet" viewBox="0 0 2048 2048"><path d="M984.502 116.105c501.438-21.8 925.548 367.171 947.078 868.625 21.54 501.45-367.66 925.35-869.13 946.62-501.085 21.25-924.595-367.59-946.113-868.67-21.519-501.075 367.098-924.792 868.165-946.575"/><path fill="#fefefe" d="M985.603 157.426c21.857-1.692 55.147-.534 76.737.352 102.43 4.204 207.1 25.516 301.38 66.348 22.56 9.775 52.26 22.654 73.48 34.979-39.94-12.896-87.57-19.288-124.84 4.82 33.33 6.232 74.8 19.132 103.39 36.98 31.44 19.627 47.17 46.439 55.76 81.461-59.27-30.119-97.8-17.068-142.19-76.137 18.68 64.002 67.33 99.214 122.14 130.963 18.42 10.669 33.28 24.128 55.56 28.721 10.94 2.255 18.08 1.982 27.97-4.631 7.02-5.23 28.94-19.202 30.76-27.166 1.07-7.243-2.34-16.144-3.94-23.016-9.8-42.172-27.58-79.292-59.22-109.406-3.37-3.208-13.41-11.215-15.49-14.414 3.75 1.202 28.51 18.696 32.99 22.002 36.27 26.727 72.26 55.44 104.74 86.731 167.28 160.484 264.19 380.704 269.49 612.467a865.97 865.97 0 0 1-144.47 490.57c-25.87 39.35-47.71 69.44-80.81 103.87-7.55-9.29-15.44-21.72-23.47-31.88a2279 2279 0 0 0-83.14-99.13c-42.17-47.99-81.23-93.45-137.1-126.09-.57-10.66-1.57-21.29-3-31.87-5.02-4.94-10.32-7.39-16.5-10.47 3.21-27.61 2.9-68.65 2.57-96.66 10.53 1.13 48.67 6.62 55.17-1.24-.92-36.37-28.13-34.47-57.48-35.76-2.23-26.75-4.66-48.26-8.63-74.7 20.36-1.74 48.97-4.82 67.12-14.31 8.72-4.55-4.62-24.91-8.97-29.84-22.05-.47-42.89 5.37-63.76 11.91-6.13-27.92-10.82-47.53-20.82-74.072 36.64-15.998 77.27-37.053 106.95-64.058 6.42-5.844 16.43-15.306 16.61-24.692.15-7.653-17.04-14.545-21.45-21.294-.3-.336-.61-.671-.91-1.007-.37-6.328.48-25.119-8.68-23.953-16.07 2.049-33.3 27.143-43.59 37.848a444 444 0 0 1-64.92 55.022c-6.13-11.115-12.36-25.446-18.3-37.063a1045 1045 0 0 0-45.41-81.694 221 221 0 0 0 4.89-15.879c27.2-99.772 1.14-214.903-49.45-302.823-20.65-35.627-74.66-118.256-116.36-127.767-65.19-14.869-140.731-15.09-204.614 5.634-4.007 1.3-12.09.567-16.383 1.01-53.775-.244-107.325 15.593-154.722 40.461-14.198 7.45-26.047 12.769-37.191 25.096-7.126-.92-12.16-1.578-19.483-.537-31.767 4.519-77.943 56.413-96.554 80.983-23.752 31.358-34.523 88.05-26.976 126.915 9.613 49.501 36.568 90.225 78.494 119.073-.053 15.817-1.414 34.667-2.013 50.771a1451 1451 0 0 0-.985 68.426c-14.931-13.199-30.17-27.517-45.276-40.508-2.862-2.1-8.424-4.926-11.988-4.444-8.063 1.09-5.758 12.488-5.363 18.734-3.802 6.388-10.123 16.975-17.362 19.385-4.025 1.204-8.264 2.612-12.122 4.108-4.329 1.679-3.514 7.959-1.301 10.329 18.159 19.449 69.763 54.775 94.667 61.49 10.636 18.957 25.515 23.462 46.563 21.095 2.443 12.631 6.697 27.341 17.369 35.051-.216 2.89-.368 5.79-.456 8.69-.305 13.64 2.718 17.58 10.988 26.2-1.742 10.14-1.713 12.8-.518 22.61-22-4.59-109.52-37.68-123.482-33.69-2.436.69-4.037 2.8-5.259 4.92-3.028 5.26-9.126 19.48-7.573 25.06 4.606 4.95 48.086 15.64 57.488 18.44a1919 1919 0 0 1 83.629 27.65l9.268-5.81c7.925 16.01 14.756 28.48 32.88 35.26 4.923 1.84 9.684 2.47 14.466 4.35-3.931 8.82-.998 36.82 5.028 44.15 1.968.24 2.711.59 4.263-1.44 14.167-18.49 28.791-34.9 47.583-49.17-11.758 19.28-35.703 42.17-46.228 58.97 2.585 14.6 4.149 21 9.75 34.65-42.763 13.23-88.245 34.18-129.778 51.64-10.366 4.35-39.028 16.83-46.922 22.26-4.542 9.07-5.624 17.69-10.318 26.33-1.011 1.87-6.948 1.11-8.688 2.97-8.314 8.91-16.875 17.29-25.665 25.71a1802 1802 0 0 0-141.171 150.31c-24.263 28.78-42.227 50.52-64.115 81.65-17.483-17.86-35.289-40.79-50.439-60.58a871.84 871.84 0 0 1-175.027-475.41c-11.036-230.362 68.989-455.825 222.791-627.685a856.84 856.84 0 0 1 389.872-249.268c73.527-21.636 141.995-31.684 218.066-35.861"/><path d="M663.286 248.372c28.416-2.886 54.353 2.599 77.792 19.236-73.572 16.605-139.734 30.683-162.038 113.453 66.173-22.683 106.804-20.636 149.1-82.568-6.187 29.842-15.483 45.257-36.532 67.701-35.925 35.296-99.242 92.534-150.793 102.429-14.557 2.491-21.616-4.011-31.825-12.744-6.076-4.834-21.165-11.288-20.867-20.744 1.252-39.798 25.474-85.235 48.72-115.284 31.401-40.59 76.639-65.441 126.443-71.479m907.154 196.29c3.36.501 8.37 1.865 10.34 4.647 9.52 13.482 11.52 38.351 17.15 53.867 17.06 46.959 44.83 92.179 45.76 143.424.23 12.693-3.51 30.05-13.09 38.605-8.85 7.908-16.31 9.018-27.38 8.961-30.7-5.979-52.33-23.306-57.74-55.427-8.24-48.908-12.62-100.021-15.59-149.468-.53-8.802 33.32-39.289 40.55-44.609m-1093.535 5.225c8.176.388 15.508 6.416 21.67 11.38 10.244 8.255 21.489 17.609 22.913 31.465 3.564 34.678-12.515 163.03-34.761 188.5-8.38 9.594-20.654 11.35-32.595 12.34q-1.86-.087-3.718-.218c-12.526-.899-21.433-7.582-29.518-16.741-8.092-9.294-12.584-20.213-10.971-32.848 6.14-48.093 28.938-93.29 44.662-138.834 5.629-16.303 10.535-31.853 16.278-48.001.94-2.642 3.976-5.281 6.04-7.043M1552.08 684.675c8.44.751 18.41 8.382 26.12 11.835 8.01 3.639 17.26 5.658 25.26 9.149 36.17 15.802.42 59.228-13.02 78.038a1103 1103 0 0 1-60.67 78.59c-4.86 5.543-8.92 10.775-14.29 16.244-9.05 10.685-36.4 1.345-30.89-12.783 8.76-22.474 18.16-43.954 25.99-66.977 11.13-32.735 18.32-65.892 29.82-98.319 2.29-6.458 5.79-12.14 11.68-15.777M498.4 686.676c17.784 1.607 20.036 31.345 24.595 47.02 8.736 30.032 17.362 55.671 30.081 85.007 4.297 9.909 20.015 35.55 24.297 47.13-11.074 37.268-36.349 7.98-43.008 1.572a281 281 0 0 1-8.384-8.897c-29.366-32.701-66.084-76.584-86.053-116.886-2.757-7.035-4.286-15.78-3.739-23.194.863-11.692 5.587-12.733 16.054-13.483 20.724-1.485 30.27-4.382 46.157-18.269m258.522 477.554c16.161 1.94 14.807 19.82 15.64 32.6.385 5.92-1.153 12.51-5.59 16.73-13.135 4.2-124.171-6.03-147.877-6.67-8.09-.34-18.328 1.26-22.04-6.85-.06-8.08 6.013-25.39 15.503-26.69 22.172-3.03 45.902.25 68.368 1.23 10.545.36 21.101.15 31.624-.63 17.919-1.38 27.551-5.83 44.372-9.72m798.648-276.19c13.25-1.618 16.4 9.924 16.58 20.99.83 49.148-40.63 104.3-70.78 140.33 1.15 13.46-1.01 21.69-14.04 27.21-12.05-6.32-15.64-22.81-18.82-35.23 3.1-8.3 7.17-11.9 12.71-18.58 28.96-34.97 61.41-72.669 69.31-118.815 1.03-6.011 1.52-10.867 5.04-15.905m17.34 313.78c6.66 1.08 11.7 4.8 9.11 12.29-15.38 44.34-59.51 77.02-96.56 103.36-7.5 5.32-17.69 10.01-25.67 14.78-.86 6.7-.41 12.61-5.21 16.54-3.41.57-5.1-.49-8.34-1.75-5.8-3.48-7.1-4.19-11.94-9.08-2.89-24.03-2.75-25.84 18.14-38.47 35.13-21.23 69.39-44.81 97.95-74.55 5.94-6.18 15.94-19.36 22.52-23.12M496.867 886.656c.858.022 3.942.177 4.505.413 14.677 6.162 4.136 35.753 14.006 51.483 15.034 23.959 29.665 43.898 47.709 65.348 8.07 9.6 21.41 23.51 27.504 33.03l.736 1.17c-4.409 11.32-7.895 20.93-11.615 32.49-3.717 4.71-8.585 2.59-11.889-1.57-8.251-10.37-15.36-21.95-22.891-32.88-15.38-22.31-31.44-43.645-42.467-68.556-8.24-18.616-23.717-64.916-5.598-80.928M479.511 1204.8c9.392 1.2 22.973 24.32 32.057 31.66 23.14 18.7 47.638 34.55 73.279 49.5 7.11 4.14 31.207 14.67 35.183 19.58.993 7.84-5.43 26.05-8.946 33.35-2.984 3.25-1.259 2.52-4.94 3.09-7.148-3.46-19.503-15.35-26.993-20.52-31.915-22.02-70.821-39.93-92.087-73.68-5.002-7.94-16.832-26.2-14.211-35.76 1.225-4.46 2.922-5.01 6.658-7.22m-6.17-154.91c3.056-.39 3.62-.18 6.623.2 6.709 3.9 21.105 29.64 30.722 40.91 23.644 27.72 57.84 50 81.369 76.28 3.384 3.78-4.963 25.65-7.34 31.73-12.614 13.68-31.248-20.55-40.047-28.92-20.619-19.61-90.184-90.23-71.327-120.2m1103.189-3.04c7.03.77 12.02 3.25 10.88 11.3-7.1 50.06-54.51 87.56-89.22 118.95-2.24 13.99-3.64 22.2-19.48 23.44-10.49-8.35-10.16-21.74-11.83-34.86l.92-1.39c3.18-4.85 6.57-8.47 10.87-12.29 29.54-26.21 59.92-51.14 82.79-83.72 4.4-6.27 9.77-16.53 15.07-21.43"/><path fill="#fefefe" d="M675.211 589.658c10.986 37.005 22.735 64.544 49.736 92.852 58.89 61.742 133.713 83.763 215.551 96.425 28.967 4.482 59.982 9.687 89.202 10.734 31.88-58.493 111.43-108.216 125.01-7.103 4.97 36.968-6.02 89.773-36.63 113.67-12.85 10.024-29.88 6.223-39.68 16.991-13.99 35.627-19.71 84.594-46.47 114.013-47.78 52.52-138.947 109.17-209.566 117.38-16.743 2.8-43.632 1.72-56.094-10.58-16.795-16.57-27.27-48.82-28.738-71.8l12.555-2.57c-3.453-1.54-6.714-3.24-9.89-5.3-7.01-4.55-11.456-9.44-12.958-17.87-.529-2.97-.481-6.4 1.647-8.78 6.104-6.85 52.138 1.26 62.97-.51 2.228-.36 3.004-.88 4.296-2.76-5.571-6.3-26.13-8.39-34.624-7.82-43.427 2.94-40.534 3.63-53.222-36.095a78 78 0 0 1 19.297-6.55c13.236-2.669 27.523-.742 37.573-10.222 10.492-9.898-13.342-32.809-20.744-31.852-1.922 6.865 17.177 19.729 11.226 28.997-7.843 3.661-20.095 4.818-28.874 6.88-14.128 3.087-28.963 9.538-43.612 9.304-11.497-.936-18.845-10.389-19.495-21.356-2.088-35.219-.188-70.774.74-106.044.52-19.79.898-40.341 2.518-60.046 36.168-16.168 99.162-24.977 138.49-17.072 1.959-8.372 5.976-16.838 9.4-24.795l-9.197 12.636c-7.001-12.719-11.535-14.164-26.279-14.598-38.685-1.137-80.114 2.77-116.035 17.65-11.894-55.753-13.428-121.746 11.897-173.809"/><path d="M1104.46 749.174c12.82-.806 24.24 2.401 26.65 17.293 3.39 20.944-2.37 47.986-13.57 66.031-3.79 7.312-16.28 15.995-23.89 8.379-16.76-16.762-13.75-53.152 12.79-58.116 2.24-.418 2.5.162 3.8 1.459-1.4 3.083-3.13 3.366-6.5 5.612-27.96 22.859-3.59 64.372 10.79 34.116 6.37-13.4 11.05-43.686 6.88-58.199-5.68-19.801-34.24 2.642-43.99 7.368 6.63-12.927 13.47-18.991 27.04-23.943m-354.975 63.667.785-.443.807.506c-6.1 23.528-16.803 34.095-39.583 18.677-5.909-4.415-8.159-6.36-13.335-11.61 14.379-1.603 38.594-6.903 51.326-7.13"/><path fill="#fefefe" d="M892.98 1244.29c1.184 2.23-3.636 9.03-4.873 11.39-32.776 62.44-58.961 127.23-82.769 193.57a2415 2415 0 0 0-77.771 263.8c-9.045 39.83-15.768 79.34-23.373 119.37a935 935 0 0 1-111.342-54.53c-17.262-9.69-38.436-22.28-54.286-34.12-1.389-15.05 1.73-49.56 3.328-64.98a986.3 986.3 0 0 1 54.942-241.85c8.05-22.64 24.717-58.07 29.721-79.08 56.974-30.63 114.674-59.14 175.28-81.85 30.183-11.32 60.054-23.09 91.143-31.72"/><path fill="#fefefe" d="M1124.93 910.055c-.66 4.791-14.51 38.268-17.13 46.041a786 786 0 0 0-24.66 89.544c-33.23 150.58-27.04 323.41 4.47 474.34-64.94 1.26-122.641-8.96-180.323-40.06-22.903-13.36-31.864-20.4-49.06-40.47a1978 1978 0 0 0 53.623-183.68c2.673-11.05 10.139-39.15 9.394-48.85-1.763-22.94-11.994-49.45-19.905-70.56 2.96-1.28 5.884-2.64 8.767-4.07 50.588-25.36 128.974-75.17 151.694-127.54 10.75-24.765 19.41-57.741 28.31-84.322 13.91-2.283 22.61-3.388 34.82-10.373m272.9 445.135c25.15 8.91 62.53 39.82 82.26 58.15-7.62 7.55-15.44 15.12-22.73 22.98-105 113.29-129.01 249.16-123.4 398.7-92.75 38.47-187.69 52.88-287.21 57.1.34-22.75 4.81-50.54 8.24-72.89 3.47-25.1 8.15-44.04 12.92-68.52a4039 4039 0 0 1 35.45-165.03c10.67 38.41 23.12 76.31 37.3 113.57 6.19 16.52 12.78 35.3 20.71 50.9 9.67-8.06 21.77-16.05 31.99-23.77 11.3-8.7 22.14-17.97 32.51-27.76 99.16-93.29 148.07-210.69 171.96-343.43"/><path fill="#fefefe" d="M1494.83 1427.75c6.61 5.38 28.31 32.28 35.71 40.44 33.43 36.88 66.08 74.6 96.59 113.95 9.05 11.66 19.88 25.07 28 37.24-55.55 61.6-124.87 113.09-195.61 155.73-36.06 20.05-67.88 37.31-106.63 51.97-.07-1.41-.13-2.83-.19-4.25-4.13-114.86 16.18-236.42 85.72-330.42 17.59-23.77 36.37-43.1 56.41-64.66m-906.21-27.88c.078 3.64-5.063 17.18-6.731 21.44-32.106 82.09-50.552 168.32-60.059 255.79-1.88 17.29-2.485 35.34-3.735 52.95-24.211-18.35-44.524-34.44-67.693-54.35-16.8-14.69-42.964-37.67-57.264-54.67 58.288-79.29 127.215-150.8 195.482-221.16m101.744-838.174c.862.866 12.091 32.258 14.404 37.493 25.46 57.629 71.774 102.451 126.939 131.585 14.326 7.566 46.038 16.965 54.762 22.779l-2.701.162c-11.838-2.022-24.398-6.303-35.717-10.405-67.857-24.591-136.444-71.829-156.168-145.054-2.046-7.595-3.824-17.975-7.02-24.86 1.701-3.914 3.65-7.843 5.501-11.7m76.953 1257.584c5.554 2.1 12.221 5.17 17.498 7.81 47.299 23.66 96.501 40.9 148.989 48.54 18.931 2.76 38.677 3.14 57.957 4.7 1.673 3.31.92 3.86.665 8.23-61.998-2.25-119.74-13.37-176.812-38.16-7.687-3.34-47.259-20.18-50.241-25.38zm58.758-286.63c4.827 3.44 9.563 7.06 14.39 10.44 52.066 36.45 115.664 54.68 178.675 58.47 11.64.7 24 .49 35.65 1.71 1.71 2.61 1.13 3.18 1.3 6.83-73.639.38-147.927-13.4-210.456-54.29-6.558-4.28-14.881-7.97-19.79-14.28-1.888-2.42-.366-6.07.231-8.88m-43.818 191.61c15.331 6.23 34.884 19.42 52.035 27.41 59.767 27.84 108.99 34.89 173.908 38.69 1.64 3.25.99 3.06.72 7.32a419.76 419.76 0 0 1-198.88-49.62c-8.075-4.34-19.59-9.78-26.714-15.63-2.178-1.79-1.258-5.1-1.069-8.17m20.832-97.26c62.255 42.32 124.726 63.13 199.811 68.15 6.41.43 23.86-1.21 27.55 3.11l-.88 4.35c-16.06 1.65-47.101-1.68-63.68-3.93a387.6 387.6 0 0 1-139.662-47.23c-6.822-3.81-18.061-9.29-22.799-15.78-2.065-2.83-.944-5.13-.34-8.67m218.061-89.91c18.82 2.3 37.29 2.54 56.2 3.12-2.38 8.95-4.62 16.75-7.5 25.56-5.75 4.01-44.12-1.95-52.98-3.22 2.72-9.35 3.63-15.87 4.28-25.46m-65.692-14.79c21.246 5.49 32.947 9.93 55.162 13.17-3.16 8.32-4.87 15.37-6.21 24.09-5.781 1.23-46.443-10.47-53.913-12.6 1.837-7.35 3.096-16.6 4.961-24.66m-59.751-25.56c15.562 8 35.657 15.27 48.429 22.15-3.789 8.88-5.11 14.43-7.483 23.83-16.549-6.18-33.513-13.18-49.027-21.57 2.903-8.27 5.592-15.99 8.081-24.41m-45.97-38c13.219 15.14 18.959 20.67 35.43 31.77-5.536 9.39-7.326 13.34-9.983 23.84l-1.233.39c-10.265-5.49-25.431-18.79-33.393-27.27 3.476-9.99 6.346-18.49 9.179-28.73M626.405 525.055c-.149 2.463-18.164 41.383-20.577 48.679-7.678 23.217-12.492 47.495-12.306 71.638.075 9.771 4.056 36.674 3.077 39.359l-1.615-1.948c-5.762-17.118-8.957-30.439-9.101-48.768-.293-37.262 14.184-81.993 40.522-108.96m112.13 1229.595c5.939.89 12.879 2.83 18.821 4.32-.488 7.53-5.189 44.85-8.647 50.49-7.066-.86-13.192-2.26-20.137-3.76 2.698-16.6 6.627-34.46 9.963-51.05m16.549-69.37 16.183 3.45q-6.355 26.43-11.986 53.04c-5.63-1.28-11.27-2.5-16.919-3.68 2.931-16.75 8.374-36.17 12.722-52.81m19.588-77.44 11.828 4.77c-5.097 16.65-8.591 45.71-13.934 59.06-4.662-.81-7.218-.89-11.287-3.4-2.819-5.89 10.551-51.62 13.393-60.43m579.838-181.63c2.73.89 2.55.8 4.58 2.85 1.71 8.86-27.09 81.8-32.03 94.64-3.72-1.45-3.77-.8-5.91-3.47.33-2.89 11.58-31.25 13.53-36.43 6.83-18.19 12.34-40.3 19.83-57.59m-557.954 106.28c3.562.41 4.061.29 7.432 1.72 2.063 4.86-10.415 51.62-12.766 58.66l-11.424-1.24zm233.874 251.4c3.22.24 6.9.13 9.17 2.24-.46 9.85-7.61 45.62-9.6 56.89-4.03.21-4.65.39-8.46-.64-1.87-5.4 6.17-51 8.89-58.49m19.38-82.58c2.89 1.15 3.61 1.11 5.56 3.51-.38 8.02-10.67 58.99-13.94 64.11-3.14-.74-3.51-.67-6.39-2.31-2.14-7.18 11.47-55.38 14.77-65.31m-226.403-241.76c3.529.56 4.989.66 7.158 2.86-1.008 5.6-15.631 48.85-17.819 53.5-3.175-.65-7.078-1.26-9.009-3.73 1.492-7.12 15.94-46.39 19.67-52.63m71.773-290.85c1.495 1.77 1.431 1.86 2.591 3.91-1.864 6.71-32.704 46.94-38.916 55.6l-10.699 3.75c-.597 0-.129.06-1.826-.54 2.781-7.13 41.628-54.04 48.85-62.72m412.14 380.75c2.55 2.01 3.5 2.96 3.9 5.66-5.72 12.8-25.31 48.03-33.75 59.4-2.63-1.19-1.91-.84-4.21-2.69-.12-.85-.23-1.7-.34-2.55 7.55-13.68 26-48.58 34.4-59.82m-580.562 272.92c6.754 1.68 13.523 2.88 20.359 4.18-.563 7.6-1.244 13.8-2.295 21.35-6.116-1.61-15.211-5.47-21.374-7.88.542-5.87 2.037-11.87 3.31-17.65m123.502-435.9c1.944 1.5 1.328.82 2.457 3.04-.046 5.66-12.885 50.47-15.328 53.52l-5.14.44-2.325-2.01c-.783-4.61 17.124-48.01 20.336-54.99m166.32 473.52c4.13.57 8.22 1.47 12.32 2.29-1.58 9.98-3.01 19.98-4.29 29.99l-12.08-.52c.84-9.17 2.02-23.16 4.05-31.76m50.55-223.79c1.72.78.81.23 2.59 1.87.79 8.17-7.39 34.54-8.63 44.13-.15 1.2-1.75 2.83-2.66 3.64-1.29-.66-1.89-1.2-3.05-2.06-1.93-8.65 8.61-38.91 11.75-47.58m-192.87-306.72 1.364.55c3.585 4.85-6.513 32.2-11.43 35.5-1.836-1.03-1.796-1.07-3.437-2.38-.409-6.11 8.916-28.95 13.503-33.67"/></svg>