<svg xmlns="http://www.w3.org/2000/svg" preserveAspectRatio="xMidYMid meet" viewBox="0 0 2048 1462"><path d="M1098.66 159.53c25.39.684 81.96-1.538 103.54 0 26.46 1.885 231.91 3.712 242.09 12.21 4.36 11.367 5.06 55.225 6.04 69.629l6.02 103.219c.47 7.598 1.38 15.168 2.15 22.74 4.96 49.173 3.62 99.189 6.44 148.276 13.64-3.625 57.04-5.813 73.22-6.736 2.3-10.624 18.14-65.258 26.82-65.744 7.63 7.817-10.95 53.978-14.88 66.329 22.76 1.154 64.13 8.319 85.65 15.873 4.28-8.675 8.2-17.518 11.77-26.508 3.27-8.226 9.86-35.985 19.92-36.331 1.38 1.264 2 2.268 2.54 4.09 2.69 8.99-17.8 52.692-22.92 62.472 16.51 4.185 64.89 23.014 80.06 31.046 17.57-9.925 31.83-24.624 48.19-36.312 5.7-4.069 13.74-13.179 20.61-11.074 4.93 8.313-5.18 14.452-10.95 18.497-16.06 11.245-30.99 23.247-45.69 36.178 15.39 5.952 58.84 33.51 73.5 43.683 11.81-6.136 53.1-28.766 63.87-22.689 1.54 3.081 1.25 1.476.75 5.009-3.21 3.856-18.64 8.337-24.21 10.8-10.53 4.651-20.13 9.712-30.27 15.165 21.11 17.024 63.71 46.983 78.82 66.891 8.58-3.475 22.34-9.163 31.23-8.864 3.38 1.919 2.28.792 4.11 4.349-1.43 10.724-27.8 11.325-34.15 17.122-10.6 9.673-21.34 23.867-31.3 34.546 6.86 6.855 13.63 14.746 20.15 21.973 5.23 5.796 15.9 15.564 13.82 23.684-3.19 2.275-1.76 1.875-5.5 2.114-7.12-3.996-29.06-31.85-36.03-39.878-15.47 15.55-34.98 28.384-52.03 42.088-2.77 2.229 2.53 7.982 3.54 9.837 5.57 10.285 36.25 28.744 31.65 40.226-10.34 5.839-41.58-33.787-48.03-42.617-25.93 16.542-40.1 23.98-67.04 38.537 5.31 12.413 10.31 24.983 15.33 37.52 1.8 4.52 10.55 21.979-.25 20.991-9.21-6.542-20.86-42.264-24.72-53.706-34.91 19.5-52.26 26.564-92.04 37.224.69 13.894 4.4 22.412 5.62 35.588.23 2.481-1.8 3.492-3.46 4.722-10.85.701-12.29-28.84-13.33-37.503-40.15 13.072-94.17 20.07-136.28 13.346-.13 18.502 2.23 40.57 2.7 59.584l3.75 176.504 3.52 118.28c.41 15.96-.8 34.36 1.81 49.98 1.28 7.65 14.17 7.42 16.87 16.19l-2.43 3.33 1.75 4.19c-10.52 16.41-51.88 30.38-70.57 39.33-11.65 3.98-23.13 8.18-34.75 12.28-6.35 2.24-5.68.69-11.6-.32-1.16-.2-12.43 7.03-15.69 6.5-25.66-4.19-42.82 10.22-66.59 9.22-5.13-.22-11.68-1.57-16.57-.69l-2.11 4.2c-8.17 4.58-13.9 1.5-22.32 2.85-1.07.17-1.71 3.61-6.04 3.74-5.21.15-9.11-1.3-14.16-1.3-.88.07-7.48 3.1-8.03 2.76-12.28-7.72-12.26 1.83-22.7 4.02-5.65 1.19-2.8-2.97-7.07-6.18-5.13.02-5.73-.12-10.24-2.57-12.39 12.65-7.04 6.95-17.19 4.95-6.06-1.19-10.25 9.47-20.84.53-4.57-.67-10.46 4.76-15.02 3.85-.75-.15-8.72-3.85-9.72-4.29-4.01 1.3-3.6 3-7.37 6.6-9.32-2.16-3.98-5.43-8.61-9.98l-2.21.19-2.1 2.78c-4.07 1.63-4.97-2.62-9.56-2.95-2.08-.15.13 1.37-3.63 4.32-4.51.01-5.51-2.32-9.66-6.12-4.72.23-4.9 5.11-11.27 7.59-3.26-.83-10.48-6.01-13.7-8.14-2.1 1.34-2 3.05-2.89 5.98l-1.19.01-1.27-4.17c-11.24-1-10.86-6.62-20.38.8-6.58-2.07-6.15-7.96-13.53-6.96l-2.51 3.33c-5.04-.12-8.9-2.08-13.94-2.63-3.11-.34-4.41 2.15-7.44 4.73-14.962-9.19-21.395 8-30.421-5.29l-1.733-.29c-4.932 7.12-5.608.02-10.252.45-7.868.72-7.408 8.09-14.813 1.26-5.917-.99-12.101.78-17.996 1.13-4.06 1.49-7.94-2.28-8.403-2.28-17.604.24-35.911.05-53.556-.35.233.01-6.09-5.44-6.36-5.66l-1.696.14c-7.475 10.29-18.466-.82-24.565-.17-6.927 6.45-3.639.56-8.857-1.25l-4.056 3c-4.66.08-1.232-2.43-6.499-4.33-2.597 1.58-4.5 2.92-6.955 4.72-7.603-.59-10.742-8.18-18.113-5.56-1.446 2.03-2.039 3.26-4.246 4.45a169 169 0 0 0-4.011-3.03c-6.373 1.24-2.098 2.68-7.312 3.8l-3.739-3.18c-4.764-.58.036 1.01-6.025 2.92-3.21-.71-3.793-1.06-6.678-2.73l-.77-.45-2.354 1.85c-6.546-.88-12.953-5.38-20.519-6.89-1.146.38-2.189.72-3.356 1.05l-1.23.34c-5.202 1.48-16.496-5.6-22.577-7.18-10.913-2.84-9.711-2.37-19.86 1.09-10.973-6.39-22.663-7.67-34.938-10.33-1.217 1.13-2.748 2.28-4.63 1.39-11.4-5.43-21.527-8.84-33.965-11.11-3.904-1.47-9.467-3.25-13.011-5.31-8.719-5.05-13.745.14-23.157-5.7-3.184-1.98-4.329 4.1-8.131 2.36-13.949-6.38-11.797-9.35-27.867-9.37-12.455-5.93-15.025-25.27-3.247-33.31 2.543-1.74 7.817-4 10.656-5.32-.881-13.46 1.019-32.91 1.052-46.94.087-37.25 1.893-73.97 3.741-111.13q5.145-106.92 8.538-213.908c1.925-29.608 1.249-62.039 2.516-91.795.84-19.704 2.697-38.704 3.258-58.55-33.382 45.69-88.613 71.283-145.224 60.247-62.66-11.877-120.186-76.431-104.222-142.468 25.122-103.921 182.444-154.133 245.788-54.78 3.272 5.131 6.567 10.23 9.845 15.341 1.107-30.129 4.783-65.884 4.398-95.336-126.449-34.678-273.482 35.875-369.193 114.973-14.614 12.078-30.91 22.475-44.545 35.672 104.285 97.513 229.652 174.175 375.831 178.401 2.485.072 4.943.9 6.522 2.853.335 3.873.766 2.467-1.263 5.409-19.999 10.88-101.215-10.587-125.097-15.489-.802 7.229-.92 34.017-9.666 35.274-6.705-6.139-2.358-29.76-1.392-38.021-33.321-12.737-53.883-16.881-88.056-34.43-7.301 14.765-13.506 29.732-20.067 44.81-1.623 3.73-3.442 5.896-7.531 6.388-4.793-2.762-3.569-8.069-1.997-12.695 5.1-15.01 12.495-30.047 19.227-44.359-13.725-5.461-53.157-28.625-65.475-38.053-7.434 8.819-37.147 40.262-47.35 41.951-3.374-1.035-2.177-.217-4.306-3.35.35-8.895 32.667-34.633 41.775-44.416-23.334-16.01-37.655-27.353-57.8-46.81-5.889 7.96-28.4 40.667-36.439 41.933-3.466-1.362-2.478-.399-4.049-3.354.259-10.789 25.954-37.144 33.655-45.474-10.958-14.316-19.606-18.528-29.195-35.828-9.299-1.199-33.602-5.62-36.113-15.746.933-3.876.047-2.62 3.047-4.809 5.953-1.106 13.193 3.625 19.268 5.239 5.799 1.542 11.065 2.404 16.96 3.338 14.135-15.658 29.167-29.056 45.032-42.907 8.81-7.691 18.732-15.079 26.996-23.228l-.13-1.363c-8.699-6.792-28.931-12.241-39.178-17.645-5.234-2.761-14.288-5.611-10.665-13.1 9.502-4.395 51.274 17.235 61.747 23.139 21.752-13.528 50.894-32.672 72.968-43.936-18.046-16.72-42.566-27.558-58.364-46.911-2.93-3.59-2.967-4.57-2.569-8.778 6.484-3.556 14.405 4.004 18.694 8.115 16.065 15.399 36.667 26.429 52.799 41.753 24.306-11.589 54.056-23.205 79.461-32.138-7.141-20.907-16.568-41.154-24.61-61.721-.922-2.358-.325-3.573.488-5.752 3.113-2.442 1.78-2.109 5.252-2.145 10.009 5.85 25.57 53.13 30.248 66.253 36.687-10.159 52.792-12.38 89.68-15.825-4.607-11.253-25.538-58.169-14.395-66.436l2.068.599c6.089 5.776 19.633 53.83 25.113 66.233 8.225 1.219 22.403 1.472 31.132 2.131a584 584 0 0 1 43.23 5.047c1.499-16.914 1.857-34.202 2.997-51.19a3643 3643 0 0 0 7.585-129.874c.981-21.815 2.445-152.634 7.198-163.322 9.412-4.345 187.528-5.613 212.2-7.504 91.97-7.045 190.334 1.904 283.954-4.773"/><path fill="#fefefe" d="M1052.42 619.361c1.05-.265 4.89-.653 5.85-.473 33.88 6.317 85.35 37.599 109.34 61.633 17.92 17.96 29.36 50.494 35.1 74.209 3.9 15.732 3.39 32.592 5.71 48.481 8.86 60.596 10.5 122.564 12.2 183.732.43 15.497 2.15 30.927 2.91 46.417 1.15 25.14 1.59 50.31 1.33 75.48l-36.85 9.1c-5.27-24.86-8.9-41.8-11.76-67.57-8.43-73.757-6.26-147.337-11.52-221.124-.59-8.329 2.24-48.881-9.3-48.43-1.23.823-2.63 1.721-3.49 2.957-4.48 6.459 3.23 79.04 3.77 91.038.97 21.334.14 42.776.81 64.137 1.18 38.176 4.02 77.022 7.61 115.062 2.22 23.41 7.88 46.11 10.71 69.41-36.88 12.36-63.05 17.35-101.84 22.58-30.82 4.15-57.85 6.92-88.958 8.6-28.686 4.09-82.117 3.62-109.073-5.09-.313-10.64.87-21.7 1.219-32.41.495-15.15.08-30.5 1.653-45.58 5.417-51.93-4.32-104.321-.073-156.365 3.402-41.672 5.588-82.831 5.436-124.654-.018-5.099-3.841-7.441-8.518-5.785-8.631 9.543-3.403 54.271-5.075 69.258-7.06 63.274-4.713 126.133-1.984 189.526.52 12.06-2.133 25.82-2.325 38.13-.3 19.29-1.089 38.31-2.495 57.59a946 946 0 0 0-26.573-2.47c-4.154-55.28-11.491-100.88-10.425-157.24.731-38.71-2.034-69.423 2.146-109.876 5.765-55.789 2.581-118.072 38.489-166.07 26.66-34.219 77.522-63.773 117.945-78.139 3.547-1.26 22.851-1.894 28.361-2.235a461 461 0 0 0 39.67-3.829M611.902 193.478c12.913 6.989 34.33 33.318 46.188 43.019 5.044 4.126 9.563 10.467 15.234 14.937.666 37.954-3.262 66.372-4.23 102.153l-5.612 166.826c-.879 23.952-1.084 48.373-2.031 72.232-.734 18.482-2.605 37.699-3.509 56.386l-22.816 570.259c-8.451 9.39-32.142 29.85-42.398 38.91-8.698 7.92-20.076 17.75-27.74 26.32-.169-19.75 1.452-40.71 1.729-60.6.91-65.35 5.611-130.88 7.95-196.14a15003 15003 0 0 1 12.327-333.178c.914-18.25 3.154-36.558 4.159-54.955a16314 16314 0 0 0 20.749-446.169m822.618-4.531c2.81 7.547 1.81 36.53 2.85 46.685 3.69 36.06 4.47 72.715 6.83 108.817 2.01 28.586 5.55 57.987 6.13 86.66 2.79 138.405 11.74 276.675 19.33 414.88.91 16.62.12 34.057 1.36 50.509 4.67 62.137 2.81 124.232 4.76 186.442l3.61 128.56c.72 23.55 2.56 49.09 2.37 72.43l-31.27-29.2c-11.21-10.63-23.48-21.46-34.24-32.46-2.98-3.05-4.85-7.51-5.06-11.82-1.41-28.85.32-57.98.4-86.91.04-15.81-1.46-29.19-2.01-44.56-.61-16.73-1.02-33.12-1.77-49.87a9302 9302 0 0 1-5.22-211.27c-.55-26.185-2.33-52.038-2.44-78.297-.16-36.425-.94-73.959-2.94-110.348l-9.06-149.934c-.32-4.944-.84-10.602-.84-15.531.11-33.246-6.89-66.208-7.19-99.329-.24-27.159-1.2-54.131-2.54-81.252-.54-10.912-1.61-22.942-.52-33.726 10.11-13.517 44.46-48.75 57.46-60.476m-290.6-17.461c21.39.841 46.85.058 68.87.52 70.95.964 141.86 3.692 212.68 8.182a3228 3228 0 0 0-60.42 63.68c-17.24-2.287-39.55-1.465-57.04-2.075l-127.83-4.134c-15.31-.382-30.97-2.143-46.79-2.594-48.34-1.375-96.54-.606-144.872-.417-25.183.098-49.483-1.037-74.752 1.129-43.288 1.978-85.586 3.592-129.016 3.782-24.028.106-49.491 5.408-74.198 3.66-9.265-.655-18.475.811-28.301-.216-1.348-.822-60.327-57.046-62.587-60.404 9.044-2.27 25.735-1.717 35.902-1.989l64.942-1.74c6.28-.229 13.17-.814 19.383-.759 49.994.709 99.704-4.994 149.576-4.894 67.16.135 134.553 2.537 201.713-1.009 17.36-.917 35.19.323 52.74-.722"/><path fill="#fefefe" d="M1176.86 1135.06c1.92 3.59 12.36 155.06 13.37 173.56-28.23 4.6-50.51.68-76.84 1.66-26.69 1-48.3 2.67-75.54 2.8-1.77-25.92-3.66-51.84-5.69-77.74-.69-8.93.41-28.96-7.13-33.23-3.78.44-2.34-.14-5.28 2.51-2.28 5.65 5.09 98.54 6.48 110.44-9.68.16-19.77-.01-29.48-.03-29.479.43-58.687-1.29-88.163-1.02-10.672.11-21.187.65-31.87.23-1.615-11.6-1.858-28.12-2.525-40-2.092-37.27-1.304-74.26-.19-111.55 44.086 7.63 78.718 7.18 123.17 2.86 58.328-5.66 124.908-9.13 179.688-30.49m347-593.606c77.89-.756 135.19 18.52 203.62 53.689 58.74 30.188 97.79 71.359 152.36 105.663-6.41 6.87-14.12 12.87-21.04 19.127-47.4 42.856-99.01 79.852-156.45 108.099-12.4 6.097-24.41 12.848-37.38 17.973a497.3 497.3 0 0 1-130.29 31.651c-16.63 2.077-34.97 1.611-51.61-.087-1.47-22.22-2.1-45.902-3.3-68.336a163.6 163.6 0 0 0 67.69 17.987c53.51 2.256 79.46-10.051 120.16-45.514 24.6-19.862 39.92-50.644 39.73-83.245-.4-70.304-73.1-124.785-139.59-125.163-41.13-.233-71.07 17.114-98.55 43.201-.62-11.733-1.38-23.458-2.27-35.174-2.26-27.497-7.32-33.926 23.66-37.181 11.3-1.188 21.71-2.193 33.26-2.69M685.166 264.799c7.775 6.344 22.741 29.864 36.939 42.567l-19.3 665.865c-1.544 53.229-8.312 106.329-8.195 159.749.04 18.23-5.849 40.68-4.928 58.78-.21 4.44-.263 18.57-1.932 21.38-7.039 3.73-31.429 2.77-40.194 2.31.256-30.91 2.793-57.1 4.009-87.18l7.888-192.73 9.99-272.365a11452 11452 0 0 0 11.758-311.909c.941-29.432 3.507-55.95 3.965-86.467m678.464-1.083c1.6 8.252 1.39 22.593 2.08 31.548 2.29 29.718.51 63.219 2.98 92.403a5123 5123 0 0 1 18.38 293.31c.95 26.038.64 52.096 1.16 78.105l3.74 148.895c2.73 102.633 8.98 203.573 7.04 306.273-12.75-.22-24.58.06-37.67-.37-.02-10.28-1.27-16.66-.34-27.63 1.45-26.23-.54-56.32-.43-82.93.05-11.35-2.16-23.99-2.46-35.59l-3.27-173.867c-.18-14.232-2.31-29.082-1.89-43.537.1-3.389-2.4-4.291-2.73-7.769 1.03-1.375 1.79-2.406 2.31-3.093-.25-7.848-1.2-20.103-1.51-27.454l-5.8-119.838-11.44-205.349c-1.7-27.277-1.87-52.129-4.64-80.92-2.65-27.666-4.03-68.861-4.8-96.856-.01-.625 34.99-40.249 39.29-45.331m-403.268-17.249c15.891 1.118 30.417.215 46.128.221l81.98.087c70.6.815 141.18 2.957 211.71 6.426 18.77.924 36.26.531 55.33 1.885-11.34 13.518-27.52 31.558-39.44 44.986-11.45.118-24.13-.962-35.86-1.01-17.24-.071-34.75-.643-51.98-.919-8.44-.135-19.47-1.963-27.6-1.738-24.67.681-48.58.089-73.22-1.154-9.69-.49-20.1-.404-29.62-1.938-27.13-.099-51.85-.12-79.04.646-19.423-.354-39.614-1.848-59.043-1-35.961 1.569-71.375 4.077-107.422 3.219-13.404.983-27.332 1.056-40.671 2.086-22.793 1.761-59.314-2.726-80.131 1.954-12.855-12.264-27.672-30.954-39.318-44.861l172.715-5.072c32.27-1.035 62.811-3.237 95.482-3.818m47.888 148.93c90.6-10.954 103.77 159.513 10.99 167.138a64.37 64.37 0 0 1-47.652-14.171c-16.762-13.803-21.958-33.833-23.436-54.66-3.511-49.486-.176-93.445 60.098-98.307M744.402 1225.53c21.334-1.09 41.263 1.38 62.248 1.93 18.588.48 35.883.78 54.532 1.71.512 19.8 1.25 39.6 2.215 59.38a4437 4437 0 0 1-99.899 2.15c-21.95.33-43.796 1.13-65.748.47-40.298-.21-80.969-1.52-121.28-1.06 21.222-21.12 45.555-42.75 67.867-62.81 32.357.55 67.532-1.08 100.065-1.77m516.228-.07c20.15-1.33 40.45.31 60.56.17 27.23-.19 54.5-.66 81.65 1.82 23.95 20.6 46.65 43.29 70.16 64.65-18.76-1.54-43.76-1.39-62.75-1.19-31.78.46-61.87.58-93.62-.97-23.56-1.15-48.78 1.8-72.56.03-14.02-1.04-28.83-1.06-42.88-.88-.77-16.03-2.95-47.77-5.05-62.6 20.01-1.64 43.19.13 64.49-1.03m-208.44-660.631 1.56.787c1.31 4.488 1.95 34.28 2.31 41.404-20.45 4.456-48.01 3.679-67.905 7.304a1242 1242 0 0 1-1.344-43.744c24.059 6.226 43.299 6.36 65.379-5.751m169.25 557.401 2.58-.15c1.51 2.71-2.09 21.84-2.56 26.41-1.63 15.59-13.43 48.98-26.11 58.2-2.36-25.51-2.96-49.84-5.82-75.53 9.38-4.09 21.91-6.77 31.91-8.93m-378.901 27.06c6.844.6 12.061 1.46 18.76 2.65 1.065 18.55-.139 44.87-.551 64.05-2.511-.27-5.309-.79-7.823-1.2-8.006-4.96-16.461-56.39-13.879-64.5z"/><path fill="#fefefe" d="M1560.43 677.748c9.5-1.216 18.28 5.271 19.91 14.715 1.62 9.443-4.48 18.493-13.84 20.528a17.89 17.89 0 0 1-15.84-4.249 17.89 17.89 0 0 1-5.03-18.623 17.89 17.89 0 0 1 14.8-12.371m-1106.835 2.361a17.665 17.665 0 1 1 5.984 34.8c-9.452 1.329-18.249-5.091-19.867-14.498-1.617-9.407 4.531-18.397 13.883-20.302"/><path d="M1970.13 227.844c3.37-.344 4.16-.221 6.71 1.712 1.16 5.557-3.02 9.55-7.8 11.927-13.6 6.761-26.98 13.671-40.4 20.783l-109.24 56.941c-15.24 7.77-33.47 15.857-48.13 23.935-37.78 20.821-75.58 41.333-113.7 61.546-17.06 9.05-35.4 20.305-52.68 28.385-2.28-.025-3.13-.569-5.19-1.455-2.36-3.008-1.83-1.347-1.67-5.145 3.99-7.573 29.89-19.185 38.47-23.752l73.16-39.082a13232 13232 0 0 1 260.47-135.795m-1894.644-.065c3.626.943 15.9 7.59 19.967 9.672l44.636 22.887A5968 5968 0 0 1 435.043 419.52c4.257 2.474 6.963 3.884 8.249 8.666-1.034 4.246-.439 2.718-4.331 6.392-6.886-.686-83.181-47.287-94.449-53.518a4987 4987 0 0 0-123.937-65.524c-45.858-23.869-91.457-48.159-137.733-71.264-5.301-2.647-11.67-4.71-12.125-11.256 1.379-3.231 1.677-3.26 4.77-5.237m374.194 739.666c7.8-.084 23.429-3.381 27.17 3.577-.438 3.913.134 2.397-2.557 5.719-5.561 2.853-24.482 1.925-32.275 2.651-12.231.426-25.907 3.444-38.014 3.322-34.575-.349-68.099 1.788-102.379 6.301-13.889 2.101-31.608-.396-45.11 1.734-30.946 4.882-59.003 6.837-90.266 8.209-8.237.024-27.83 4.262-29.139-7.046 1.688-2.969 7.526-4.351 10.704-4.433 34.105-.874 67.086-2.841 100.869-7.652 14.548-2.072 31.749-.777 46.696-2.428 35.912-3.965 71.298-6.814 107.477-6.089 14.161.115 31.736-3.35 46.824-3.865m1125.899-1.537c9.27 1.465 27.36 1.724 37.17 2.06 45.27 1.548 89.26 1.429 134.25 8.606 17.2 2.744 36.79 2.125 54.17 4.442 17.22 2.055 34.86 4.437 52.14 5.797 9.31.801 18.66 1.183 28.01 1.144 8.71.005 27.33-3.178 27.68 8.034-1.82 3.176-.88 2.085-4.04 4.029-35.65.12-63.99-3.664-99.02-7.17-21.26-2.127-42.57-3.348-63.83-5.666-15.58-1.7-31.21-4.101-46.84-5.212-14.98-1.066-114.5-2.488-121.03-5.927-2.21-1.163-2.55-2.113-3.24-4.412 1.51-4.109.59-2.606 4.58-5.725M154.732 119.511c18.151 8.103 68.361 54.172 85.734 69.304a3848 3848 0 0 0 116.002 97.186c10.678 8.525 28.88 22.007 39.663 31.405l.73 2.999c-.878 3.562-1.74 3.902-4.619 6.508-6.035-2.26-14.955-9.364-20.238-13.43-75.914-58.435-145.882-123.876-220.646-183.609l-.892-3.281c.765-3.827 1.428-4.115 4.266-7.082m1737.558 1.239c3.03 1.003 3.2.993 5.2 3.354.33 1.46 1.03 3.226.22 4.361-5.95 8.428-24.47 20.403-33.19 27.844-57.36 48.929-114.82 99.144-175.98 143.225-9.21 6.634-28.54 22.239-37 26.427-4.09-1.493-5.29-2.099-5.76-6.575 2.08-5.971 15.03-13.462 20.71-17.524a1180 1180 0 0 0 35.74-26.213 2621 2621 0 0 0 103.31-83.991c18.42-15.896 66.99-59.948 86.75-70.908m-1507.548.617c1.812.608 4.111 1.62 5.258 3.218 14.258 19.848 28.559 40.079 40.716 61.314 11.414 19.94 26.713 37.892 37.652 57.778 9.821 17.851 19.609 33.588 30.895 50.566a283 283 0 0 0 20.143 26.406c3.736 4.314 14.609 15.588 16.574 19.393.394 3.946-.266 4.457-2.331 8.12-26.583-6.257-74.208-100.124-92.303-124.134-16.014-23.224-29.56-47.749-45.796-70.893-6.98-9.949-18.434-20.605-10.808-31.768M522.29 1033.55c1.826.4 4.127.81 5.578 2.04 1.577 1.33 2.161 2.74 2.087 4.78-.423 11.72-93.208 132.45-107.837 155.54-6.421 10.13-29.573 54.13-33.663 57.91-4.736-.96-6.119-1.33-8.017-5.72.582-22.65 97.778-150.85 116.62-176.99 5.049-7 19.961-31.41 25.232-37.56m1134.19-908.712c3.36-.186 3.49-.199 6.59.995 3.01 4.189 1.89 6.051-.66 10.235-21.86 37.304-48.26 72.67-70.27 109.672-22.38 37.635-42.95 68.307-71.09 101.989-4.01.053-5.47-.132-7.81-3.35-.11-2.171.05-4.368 1.39-6.14 9.95-13.249 20.28-26.109 29.96-39.587 12.57-17.03 22.43-35.813 33.9-53.497 20.71-31.912 41.68-63.586 61.58-96.023 4.87-7.937 10.52-17.172 16.41-24.294m-136.14 907.792c1.75.17 3.74.5 5.51.75 3.73 2.37 13.17 21.74 16.73 27.53 22.01 35.81 50.17 67.35 74.47 101.57 7.14 10.04 18.14 25.57 23.48 36.5 6.05 12.35 30.53 43.26 22.65 54.3-5.88-.51-7.1-1-9.92-6.19-7.11-13.05-13.64-26.36-21.15-39.21a562 562 0 0 0-35.86-54.14c-25.27-33.33-57.26-69.77-75.89-108.21-2.43-5.01-2.35-7.82-.02-12.9M59.231 414.266c12.686.453 31.604 4.52 44.71 6.509 44.542 6.761 87.637 17.301 131.678 26.785 20.33 4.377 45.561 7.24 65.433 14.165 2.428.846 3.091 2.829 3.814 4.812-.791 3.282-1.207 3.422-3.746 5.883-11.111-1.545-22.456-5.324-33.627-7.189-64.484-10.781-127.496-29.15-192.5-37.043-7.99-.971-17.652.868-19.62-8.146 1.45-4.227.469-2.69 3.858-5.776M1646.04 1039.49c5.88 1.95 17.64 16.08 23.99 20.64 35.85 25.7 71.71 50.78 104.75 80.24 12.14 10.81 64.42 41.82 66.54 52.73-1.18 3.46-1.93 3.65-5.05 5.94-7.97-4.46-16.07-11.91-23.94-17.06-34.09-22.34-64.67-48.66-95.98-74.65-13.52-11.21-71.58-45.01-75.02-61.33 1.27-4.1 1.3-3.22 4.71-6.51m-1248.099-.85c4.38.36 6.075 1.03 8.366 4.73-.037 16.54-61.282 50.79-74.757 61.74-35.676 28.99-76.696 66.71-116.69 89.38-3.693.53-4.788.51-7.204-2.18-.143-4.21 2.023-6.97 5.388-9.58 16.537-12.82 34.37-24.88 51.335-37.4 20.753-15.32 42.498-36.7 62.298-50.92 28.477-20.45 46.661-28.15 71.264-55.77M1980.75 415.371c3.57-.624 6.09-.499 9.68-.491 3.24 1.606 4.67 2.606 4.15 6.345-2.46 2.929-7.73 5.292-11.48 5.735-75.68 8.935-148.39 28.103-222.86 43.602-5.78 1.785-11.88 3.142-13.09-4.581 1.57-3.715 5.65-5.585 9.41-6.388 52.81-11.262 105.95-24.288 159.04-33.926 21.64-3.901 43.36-7.334 65.15-10.296"/></svg>