<svg xmlns="http://www.w3.org/2000/svg" preserveAspectRatio="xMidYMid meet" viewBox="0 0 2048 1462"><path d="M1535.38 78.38c32.75-5.559 121.94 14.934 151.83 32.397 20.18 11.79 54.55 58.071 71.72 77.51 36.18 40.958 68.74 88.981 109.16 126.148 48.21 42.202 27.99 88.137-35.08 81.084-47.71-5.336-88.75-38.074-118.38-75.781 10.11 33.564 26.69 74.85 39.83 107.312l47.68 116.329c2.14-3.426 4.34-6.818 6.58-10.175 19.8-29.184 61.46-58.826 96.14-35.959 23.54 15.522 14.86 43.816 9.91 66.573-5 22.937-10.32 45.699-15.08 68.639-7.86 38.863-15.2 77.83-22.02 116.89-6.95 38.242-13.45 82.335-30.98 117.029-29.25 57.89-65.24 114.67-103.24 167.214a2540 2540 0 0 0 51.85 199.79c4.18 14.07 29.44 85.61 27.18 94.9-.68 2.82-1.4 3.34-3.83 4.82-11.88.16-13.77-15.54-16.42-24.21-3.42-11.19-6.94-22.35-10.54-33.48a2784 2784 0 0 1-42.98-149.1c-6.31-24.13-12.02-51.04-18.8-74.42-5.88 7.34-15.51 27.23-24.88 28.03-8.82-2.88-6.89-9.29-2.72-15.57 11.46-17.27 23.94-33.83 35.84-50.79a1591 1591 0 0 0 56.64-87.427c14.75-24.468 34.16-55.676 43.99-81.987 13.07-34.964 20.4-81.882 26.74-119.237 7.51-44.272 15.34-83.832 24.42-127.584-4.72-4.178-8.4-8.506-9.77-14.98-2.23-10.599 3.52-56.062 15.74-57.454l1.53 1.271c3.82 11.863-15.19 48.194-5.99 56.442l1.67-1.082c2.4-4.783 3.2-9.967 4.31-15.166 2.35-10.937 5.56-22.319 6.32-33.406.9-14.231-7.83-27.018-22.97-26.887-36.45.316-59.74 33.714-72.52 64.034-7.85 18.609-13.65 37.078-12.06 57.483.48 6.285-3.94 15.432-6.31 21.516a1114 1114 0 0 0-26.01 74.516c-2.64 8.5-4.66 24.559-10.05 30.666-7.2 4.597-27.04-2.426-33.28-4.984-41.17-16.865-70.25-48.667-95.52-83.976-53.43-74.643-100.41-155.158-160.71-224.478a2528 2528 0 0 0-61.76-68.329c-13.48-14.384-75.31-88.194-98.72-56.557-2.66 3.592-2.95 13.86-.54 17.527 16.96 25.799 39.85 54.147 57.92 78.9a2253 2253 0 0 1 46.96 66.534c13.12 19.624 25.54 41.245 38.42 61.366l30.95 49.462c4.77 7.547 19.2 26.873 19.35 34.952-3.49 9.072-31.14 11.548-40.14 15.332-9.36 3.938-21.48 16.362-31.54 14.4-4.36-3.247-3.82-7.144-2.17-12.07 8.75-10.942 38.98-21.086 52.98-24.169-5.48-11.911-21.98-36.214-29.88-48.675-16.79-26.497-33.13-55.063-50.5-80.934-27.27-40.621-57-80.192-86.47-119.29-16.41-21.611-30.87-47.663-52.58-64.356-10.64-8.189-28.89-16.78-37.78-2.59-3.18 5.089-6.15 18.952-3.34 24.165 8.11 15.044 18.67 27.311 27.22 42.571l114.07 203.116c6.29 11.168 49.31 84.959 50.33 91.345a7.07 7.07 0 0 1-1.49 5.546c-3.81 4.708-29.52 9.526-40.66 17.275-27.16 18.882-52.61 49.947-81.35 66.143-1.16.653-3.05-1.088-4.02-1.832-1.92-3.59-2.44-7.533.7-10.581 10.18-9.883 21.16-19.035 31.89-28.293-7.21-15.846-16.61-31.276-24.22-46.821-12.58-25.73-25.31-51.856-37.49-77.769-22.69-48.259-42.22-99.35-65.96-147.068-9.45 7.01-15.37 16.7-14.56 28.78 1.62 24.228 7.84 48.64 13.91 72.099 19.23 74.332 46.48 146.321 68.16 219.915 2.83 11.013 5.01 22.386 6.65 33.62 11.31 77.608 25.81 156.167 57.55 228.546a531 531 0 0 0 64.02 108.58c13.98 18.55 24.36 30.76 43.37 44.37 3.1 2.21-.68 8.34-.22 10.78.01.01 4.31 6.86 4.68 7.52 2.49 4.57 4.56 9.36 6.16 14.31 16.62 51.89 29.92 107.75 39.38 161.35.38 2.16-2.21 5.08-3.63 6.45-4.14 1.45-2.41 1.34-6.58.6-3.69-2.47-6.22-6.66-7.04-11.01-11.66-61.99-26.58-121.89-48.94-180.94-6.83-4.21-17.77-15.59-23.28-21.81-40.66-45.95-66.31-95.66-91.27-150.7-31.68-17.254-51.23-32.345-76.95-57.325l15.37 421.635c-138.01 8.38-263.565 11.3-402.337.1.3-20.94 1.658-42.09 2.269-63.05C834.89 1188 842 1061.31 843.316 935.343c-26.498 20.937-62.272 51.25-86.191 76.087-2.701 2.8-13.95 30.11-17.04 36.24a581 581 0 0 1-40.385 67.78c-11.664 17.71-25.066 34.72-38.92 50.75-6.279 7.27-14.314 14.36-19.732 22.2-12.072 17.45-33.907 108.59-39.897 133.2-2.252 9.26-9.481 51.07-15.385 54.08-2.116 1.07-4.363.72-6.518.09-2.52-2.19-3.322-4.2-3.636-7.53-1.324-14.07 36.604-163.45 45.523-174.24 1.069-1.29 2.056-2.63 3.085-3.96-.588-1.45-1.666-4.06-1.75-5.48-.265-4.52 11.759-14.33 15.167-17.93 43.086-45.48 79.852-104.26 103.29-161.9a526.4 526.4 0 0 0 29.085-93.975c9.422-44.705 14.555-92.159 25.969-136.056 19.832-76.274 45.564-151.143 66.058-227.249 7.259-26.955 14.692-54.398 15.514-82.462.374-12.775-3.827-20.146-12.528-28.828-6.257 11.244-14.145 31.001-19.34 43.09a6653 6653 0 0 1-27.746 63.266c-26.122 59.021-52.251 113.428-80.048 171.466 7.448 5.559 34.479 25.851 30.389 35.521-6.596 5.256-9.336-.372-14.353-4.444-23.23-18.851-46.052-38.426-70.703-55.341-12.644-8.675-32.483-14.166-42.493-22.254 1.349-7.685 68.461-122.923 76.726-137.73 30.253-54.196 58.708-109.692 90.293-163.109 7.574-12.808 15.58-25.048 24.793-36.738 1.293-11.249 5.935-23.814-5.437-31.876-12.571-9.209-29.551.923-38.878 10.444-18.231 18.608-33.588 41.47-49.364 62.297a2185 2185 0 0 0-91.577 127.746c-24.763 37.316-50.796 80.291-74.807 118.573 11.871 2.79 56.954 19.773 58.065 32.775-2.611 8.494-8.896 7.37-14.809 3.105-20.573-14.84-38.929-19.662-63.509-23.67-16.557-20.096-49.318-22.488-56.196-31.583-.634-3.638-.741-2.148.609-5.551 9.391-6.049 49.014 15.722 57.35 22.833 21.725-29.47 46.72-72.88 66.76-104.42a2188 2188 0 0 1 96.261-137.882c5.788-7.564 26.753-33.931 29.09-39.826a19.98 19.98 0 0 0-.698-16.092c-18.39-36.803-92.263 50.53-105.36 64.507-66.362 70.115-122.272 145.744-176.032 225.718-30.896 45.961-63.297 103.138-112.022 131.676-11.211 6.566-42.883 19.262-54.907 15.832-3.654-3.987-42.788-109.286-48.069-122.857 8.177-39.738-13.915-80.357-41.375-110.097-18.569-20.111-58.545-30.87-61.964 10.184-.39 4.694 10.838 50.521 13.478 52.851l2.656-.639c6.688-10.876-16.012-48.465-8.965-58.73 3.289-1.423 1.974-1.096 5.81-.574 5.613 4.147 13.033 40.533 15.489 49.296 3.234 11.535-1.336 18.34-12.856 21.602l-1.249.348c5.272 22.086 9.001 46.341 12.82 68.742l15.361 88.095c7.412 41.958 12.783 79.305 33.559 117.234 17.596 32.123 35.767 63.219 55.657 94.03a2097 2097 0 0 0 42.244 62.422c9.373 13.27 18.996 26.42 28.045 39.9 2.506 3.45 4.862 8.83.912 12.36-8.993 8.03-15.159-5.87-19.869-11.86-3.716-4.72-7.332-10.03-10.926-14.92a2797 2797 0 0 1-64.758 239.97c-2.166 6.79-4.122 13.82-6.443 20.53-2.595 7.51-4.504 19.56-14.091 19.5-11.548-5.88-4.045-19.05-.698-29.23a2568 2568 0 0 0 50.313-174.01c8.087-31.91 16.419-63.85 21.648-96.37a526 526 0 0 1-4.862-6.8c-34.085-48.476-91.891-134.792-109.536-190.133-8.903-27.924-13.472-57.821-18.431-86.679-7.079-41.187-13.564-82.58-21.485-123.614-4.685-24.275-22.882-83.89-19.157-104.122a40.06 40.06 0 0 1 17.182-25.89c20.025-13.399 44.403-5.725 62.18 7.746 15.097 11.44 24.913 26.126 35.119 41.704 9.855-20.025 20.128-45.202 28.903-66.032a3216 3216 0 0 0 62.874-162.806c-19.817 22.268-36.968 43.008-64.909 57.817-30.733 16.29-88.856 38.296-113.156-.111-9.032-14.275.812-34.723 10.773-46.239 16.47-18.467 34.482-33.23 50.316-52.561 36.864-45.005 70.881-92.949 109.724-136.241 9.45-9.196 27.345-28.759 39.51-33.229 52.329-19.226 128.565-37.388 182.241-17.383 70.083 26.119 133.907 69.614 184.73 123.538 8.091 8.585 16.044 22.773 21.128 32.962 16.833 7.684 29.589 22.505 40.464 36.969 23.353-9.094 44.493-1.261 51.792 23.866 2.121 7.303 2.044 12.867 2.256 20.383 10.525-36.086 26.611-67.731 63.82-83.244 19.621-8.18 40.191-2.773 60.749-6.021 14.996-2.369 27.264-7.923 41.554-12.59 30.63-9.226 69.01-6.028 98.12 7.448 40.92 18.948 66.57 47.655 82.76 89.072-.16-30.715 18.97-48.5 49.49-39.378 8.64-9.946 17.97-20.774 27.09-30.279 3.94-4.104 11.33-3.647 15.63-10.794 2.95-4.924 11.12-17.769 14.48-21.629 48.38-55.569 156.77-131.463 230.22-139.62"/><path fill="#fefefe" d="M485.394 95.399c73.354-11.04 190.447 75.494 238.25 125.97 9.468 9.997 14.716 24.252 22.163 35.404l.572.848c15.979 5.61 27.776 19.179 37.745 32.395-8.8 7.597-15.634 15.055-23.011 23.941-29.217-66.029-108.711 31.131-132.919 56.833-52.025 10.128-101.991 27.231-152.29 43.464-6.176 1.994-13.862 3.577-16.396 10.073.928 3.146.366 2.019 2.902 4.392 5.342.903 33.117-8.558 39.96-11.238 36.901-14.455 75.059-22.251 112.596-33.478a2296 2296 0 0 0-77.286 92.869c-9.643 12.228-23.483 28.944-31.695 41.799-8.312-3.62-16.821-5.104-25.045-8.589-4.761-2.017-.76-7.425-7.302-11.211-3.593.168-5.876.077-7.861 3.669-38.026 68.8-79.967 135.613-122.599 201.658-5.445 8.435-24.828 29.857-35.92 29.087-5.923-3.15-19.816-46.599-23.924-56.201 34.885-60.404 71.483-125.179 107.361-184.672 15.611 7.935 31.383 13.571 48.336 18.059 4.201 1.113 5.63.632 8.745-1.951 4.064-12.903-38.45-19.394-46.36-26.378-2.873-2.538-2.075-5.81-2.762-9.587-4.929-7.253-8.949-3.459-14.172-.61l-2.941-1.401c-6.752-4.351-40.973-30.223-44.098-30.045-2.906.165-4.163 1.195-6.079 3.095-2.99 13.839 35.353 33.424 46.32 39.01a15529 15529 0 0 1-101.435 174.415c-1.701-3.899-10.248-23.128-9.91-25.634 3.665-27.188-1.987-45.027-12.123-70.685 9.169-18.216 17.575-36.849 25.37-55.682 27.362-66.109 55.675-133.705 77.507-201.812 46.669 20.26 123.125 11.679 168.32-11.222 3.254-1.648 4.862-3.579 5.705-6.984-2.022-3.17-1.101-2.113-4.705-3.968-7.451 1.342-22.101 8.664-30.52 11.517-38.18 12.937-100.872 16.336-137.368-.78 7.903-6.088 16.032-11.831 24.548-19.257 9.626-8.392 28.597-23.484 31.414-36.594 1.199-5.581-8.47-10.14-12.667-4.862-17.874 22.474-41.915 37.127-62.199 57.012-12.286 12.412-23.133 26.958-35.246 39.661-25.555 26.814-54.864 44.026-91.806 49.959-26.873 4.315-56.045-7.614-33.392-37.88 13.759-18.382 36.83-33.104 52.093-50.387 1.189-1.347.827-4.191 1.312-5.945 30.893-38.468 60.968-77.503 92.078-115.8 13.078-16.099 29.777-33.697 46.965-45.518 11.432-7.863 30.824-11.012 44.146-14.42 22.612-4.847 46.663-10.183 69.623-12.34"/><path d="M644.43 207.593c5.004.215 6.438-.053 8.279 4.774-.614 7.045-12.367 26.914-16.735 33.333-47.768 70.196-124.393 131.745-207.75 149.302-4.407.242-4.723.256-7.648-2.849-.652-3.323-.809-1.939.893-5.146 4.289-3.16 20.776-7.108 26.891-8.987 85.633-26.321 154.606-92.489 196.07-170.427m-408.027 80.776c4.333.438 6.919 1.904 9.567 5.362 6.639 18.946-38.852 47.857-53.725 55.96-4.606 1.349-5.558 1.871-8.95-1.697.161-10.232 17.579-16.405 26.595-23.085 18.305-13.564 16.369-19.919 26.513-36.54m44.946 254.097c8.63.716 26.935 13.228 32.525 20.14 1.493 1.845.317 4.918-.186 6.928-8.184.158-28.981-13.587-33.285-20.181-.861-3.171-.372-3.642.946-6.887m64.93 62.095c7.439.551 21.345 7.456 25.681 13.836 1.635 2.405.101 5.548-.653 8.085-7.083-.142-22.411-8.804-26.024-15.061-.627-3.234-.238-3.632.996-6.86"/><path fill="#fefefe" d="M1540.58 94.412c31.47-2.548 101.06 13.066 131.57 26.974 7.57 3.453 16.04 10.905 21.47 16.327 13.88 13.851 120.6 140.685 122.69 146.903-7.34 4.56-9.1 10.902-13.48 19.106 3.83 7.755 10.46 15.295 17.14 20.714 6.93 5.629 36.57 31.211 43.87 22.673-.53-11.908-45.39-30.814-47.62-43.606.97-5.257 3.79-8.477 9.35-7.917 4.77 5.12 9.61 10.881 14.59 15.777 12.53 12.281 27.01 22.885 35.65 38.534 6.42 11.624 1.32 21.129-10.16 26.096-7.6 3.291-17.81 3.724-26 3.336-43.56-2.064-81.12-32.102-107.97-64.262-4.24-5.11-9.33-18.831-13.03-22.264-6.25-5.797-17.23-13.076-24.31-18.718-14.7-11.736-28.91-23.516-43.33-35.598-3.68-3.088-9.71-9.189-14.01-11.103-2.3-1.026-3.93-.23-5.89.618-8.85 10.614 7.09 19.51 14.29 25.741a3994 3994 0 0 1 43.28 37.833 224 224 0 0 1-136.49.516c-7.98-2.442-28.8-11.923-32.08-12.122-3.86 1.311-5.18 1.38-4.63 5.576 1.81 2.643 5 5.133 7.89 6.543 52.22 25.448 112.18 25.356 167.03 10.361 15.32 46.622 35.01 95.397 53.39 140.953a4240 4240 0 0 0 49.2 119.728c-8.73 22.557-13.95 42.243-13.15 66.305.04 1.15-7.76 19.417-8.98 22.893-13.74-21.446-26.03-44.136-39.05-66.099a3970 3970 0 0 0-64.21-102.934c9.17-3.674 15.85-8.389 24.09-13.718 6.45-3.98 33.84-16.901 21.1-26.337-3.29-.572-5.74.091-8.76 1.422-4.48 1.974-39.13 23.661-40.15 26.874-.49 1.549.1 3.059-.59 4.86-2.6-4.186-3.27-5.946-7.79-7.623-3.91.342-2.39-.179-5.74 2.177-.47 1.028-2.06 4.626-2.77 5.105-12.96 8.735-27.42 15.625-39.87 25.075-4.73 3.591-4.67 7.516-.4 11.296 9.87 2.425 34.55-15.627 46.34-21.923 10.96 14.905 24.22 37.302 34.25 53.456a4396 4396 0 0 1 76.48 128.732c-6.33 22.577-14.72 42.061-20.99 66.669-29.82-17.22-64.66-80.476-83.39-111.051l-70.7-114.475c.14-1.862.22-3.727.26-5.594.09-6.329.03-7.024-4.34-11.567-7.12-2.533-9.28 6.888-12.6 12.377-6.74 2.464-22.44 4.618-30.22 5.888a1034 1034 0 0 0-108.28-131.134c33 8.668 65.79 18.123 98.34 28.357 9.41 2.979 51.16 18.034 57.27 17.09 2.65-2.203 1.89-.845 2.47-4.152-3.72-7.966-24.76-12.828-33.54-15.636-36.68-11.727-73.71-23.047-110.88-33.079-5.5-1.483-22.85-6.034-26.35-9.077-27.8-24.155-49.48-57.519-84.79-72.242-21.43-8.894-39.42-4.566-48.2 17.871-9-9.976-15.38-15.862-25.85-24.078 12.77-14.198 20.26-24.993 36.49-35.355 2.63-1.68 16.15-22.456 20.67-27.153 49.33-51.359 149.06-126.246 221.42-131.939"/><path d="M1394.37 203.44c3.43.404 5.52.391 7.48 3.149 6.43 8.983 10.1 19.751 16.12 28.994 42.28 64.86 107.99 118.359 181.94 142.452 6.83 2.223 22.93 2.93 27.49 7.651.95 3.197.29 3.94-.99 7.273-13.7.846-42.15-8.615-55.97-14.611-72.82-31.613-138.58-90.551-175.11-161.422-2.47-4.791-2.97-8.569-.96-13.486m367.38 342.423c2.64.848 3.27 1.469 5.46 3.046 1.62 3.252 1.55 1.946.87 5.111-4.31 5.923-16.62 10.071-23.67 13.033-3.38.233-4.59-.174-6.87-2.129l.17-3.146c3.87-7.277 16.83-12.748 24.04-15.915m-62.96 57.846c3.67.042 4.92.66 7.32 2.845l.05 2.607c-3.04 6.154-15.56 13.531-21.64 17.604-2.78.563-4.74.559-6.78-1.312l-.05-3.176c2.88-6.987 14.7-14.151 21.1-18.568"/><path fill="#fefefe" d="M1141.55 436.653c4.21 3.516 12 11.54 16.2 15.642l-.23.821c-11.15 40.816 27.66 150.07 40.99 192.983-34.28 7.517-53.14 17.572-79.2 40.592-26.39-13.364-50.19-16.327-79.21-15.456-13.89-21.683-15.39-22.559-28.7-.606-26.203-2.115-55.226 4.496-76.881 19.594-6.123-6.476-9.381-9.364-16.189-14.966-23.482-18.857-39.271-23.939-67.8-29.941 1.757-5.576 3.478-11.631 4.971-17.284 12.284-46.509 29.293-93.449 35.767-141.185 33.368-.272 52.637 20.068 81.156 32.691 24.666 10.917 49.896 14.897 75.326 4.199 38.07-16.016 77.24-48.994 93.8-87.084"/><path d="M1024.84 598.475c9.76 3.826 8.89 24.32 1.32 29.615-6.67-2.159-7.36-8.652-7.11-15.174.26-6.922.56-9.898 5.79-14.441m-3.63-46.735c2.23-.058 3.58.11 5.76.342 7.11 4.691 5.4 19.494 1.47 25.465l-4.98-.731c-7.29-4.895-4.75-18.017-2.25-25.076"/><path fill="#fefefe" d="M1193.57 338.977c17.01-2.239 33.98 36.305 41.57 50.039a3476 3476 0 0 0 30.33 54.12l122.45 216.101c-15.09 5.399-23.91 10.061-37.11 18.773-9.65 7.225-17.46 14.434-26.36 22.567a2994 2994 0 0 1-111.69-238.942 940 940 0 0 0-9.68-21.928c-12.12-26.598-44.29-79.591-9.51-100.73"/><path d="M1299.52 541.798c3.87 1.843 4.43 2.692 5.04 6.72-2.59 6.678-20.1 14.745-27.01 18.557l-3.7-1.978c-1.97-3.286-1.72-1.853-1.39-5.426 3.97-6.742 19.37-13.794 27.06-17.873m-65.27-105.781c4.59 1.674 6.23 1.876 6.64 6.937-3.15 6.309-13.95 10.95-20.47 14.469-4.41-.403-6.82-.836-6.99-5.616 3.18-6.284 14.51-12.018 20.82-15.79"/><path fill="#fefefe" d="M850.556 338.993c9.085.511 16.181 6.359 18.077 15.25 7.648 35.868-17.582 70.355-30.945 102.13A3838 3838 0 0 1 725.374 702.81c-8.258-7.575-14.87-13.264-23.667-20.192-15.184-10.021-23.927-14.171-40.717-21.232l110.274-196.862c20.918-37.655 41.595-77.758 65.323-113.671 3.943-5.969 7.748-8.636 13.969-11.86"/><path d="M749.792 541.645c7.266 2.05 25.227 11.486 27.89 18.842-.104 3.507-.692 3.815-2.986 6.752-7.575-2.263-26.388-10.843-28.687-18.709.873-4.562.225-2.845 3.783-6.885m62.615-105.144c7.445-.086 20.639 6.537 24.175 13.578.386 3.551-.271 4.105-2.073 7.434-7.63.798-19.157-6.516-23.216-13.126-.707-3.732-.289-4.161 1.114-7.886"/><path fill="#fefefe" d="M852.532 665.285c30.61-2.193 71.669 28.194 84.297 55.839 5.942 13.01 4.06 24.171-1.114 36.883-10.231-9.906-35.309-51.871-56.113-40.817-1.99 1.057-2.326 3.852-2.687 5.911 3.115 8.296 14.19 5.501 17.466 9.351 19.226 22.598 27.63 34.921 52.824 52.346 13.819 12.237 22.01 20.265 26.309 38.245-4.683 17.732-16.674 27.241-31.891 13.268-28.088-25.792-56.092-57.002-80.923-85.925-10.736-12.503-18.248-28.752-29.389-41.935 3.92-12.406 6.697-29.388 13.073-40.498 1.37-2.387 5.297-2.303 8.148-2.668m337.868 3.123c16.38.615 18.12 5.436 22.41 20.848 1.8 6.459 3.42 13.264 5.08 19.786-12.62 15.339-23.25 32.384-35.73 47.888-11.35 14.1-69.33 77.107-83.72 83.81-3.67 1.707-7.63 2.545-11.53 1.041-6.14-2.372-8.91-8.661-11.38-14.252 3.01-15.8 7.75-22.929 18.9-34.355 10.99-10.123 23.85-19.377 33.84-30.513 8.15-9.124 14.87-19.844 22.98-28.949 3.95-4.434 23.33-5.656 15.69-16.794-18.95-9.624-42.12 25.816-51.66 37.716-20.18-40.522 38.14-84.018 75.12-86.226"/><path fill="#fefefe" d="M1102.82 699.711c2.3-.142 2.15-.2 4.31.599.14 3.608-9.9 17.497-11.24 28.728-1.83 15.242-1.11 23.813 7.8 36.957-26.5 20.93-53.97 45.878-36.22 81.355-10.76 9.293-16.42 12.538-30.36 12.738-11.55-4.841-1.4-16.779-6.38-26.254-1.95-.747-2.67-.785-3.99-2.372 17.6-16.496 31.4-44.177 44.06-65.09 8.45-13.969 1.11-31.03-4.17-45.006 12.29-4.6 24.67-14.344 36.19-21.655m469.73-175.576 1.98-.509c4.93 2.129 85.91 137.139 95.67 153.244-2.69 3.041-5.19 6.516-8.73 8.193-3.11-.397-2.15-.327-4.83-3.598-25.25-31.429-47.58-69.774-71.57-102.442-12.03-16.395-22.12-34.067-34.58-50.664 8.47-.776 13.98-2.163 22.06-4.224m-1100.416-1.64c9.056 4.361 14.818 6.664 24.309 10.017-34.858 47.926-66.964 99.092-101.9 146.965-2.814 3.669-4.633 7.345-9.435 7.729-3.325-1.843-3.479-2.738-5.458-6.21 2.848-12.144 51.17-84.941 60.85-102.171 7.884-14.033 23.068-40.43 31.634-56.33m472.075 179.087c10.548 2.707 26.84 14.127 37.452 20.189-6.087 10.924-11.805 22.975-9.174 35.8 2.214 10.794 36.913 64.38 45.363 69.852 1.94 1.254 3.74 2.661 5.59 4.042-11.09 6.349-1.41 15.652-7.45 26.663-14.78 7.173-24.879-2.863-35.161-12.063 24.491-30.134-11.654-61.642-32.706-79.14 12.718-22.68 9.244-43.834-3.914-65.343m-62.085 100.367c2.302 1.789 3.103 3.152 3.535 5.651-4.085 5.543-65.703 48.451-74.27 53.243-2.41-1.198-2.324-1.32-3.925-3.35l.355-2.06c5.034-4.917 16.768-13.054 22.804-17.438a2171 2171 0 0 1 51.501-36.046m141.826 88.757c2.43.908 2.53.764 4.18 2.896.37 2.415.84 9.367.6 11.707-1.3 13.129 2.81 71.106-2.19 78.807l-3.86-1.888c-3.81-6.299-.83-75.821-.99-87.018-.02-1.236 1.4-3.449 2.26-4.504M919.522 845.54c2.548 1.812 3.889 2.33 4.944 5.096-5.827 10.195-41.348 54.311-50.616 65.223-2.996-.543-3.585-1.07-4.843-3.5 1.696-7.885 42.374-56.465 50.515-66.819m250.608-45.309c7.73 3.028 61.07 41.781 69.36 48.989.82 3.319.02 3.83-1.13 7.446-6.07-2.714-62.52-43.645-69.74-49.601-.74-2.944.18-3.55 1.51-6.834m-44.3 41.53c9.1 9.433 42.55 57.673 50.83 71.976.47.798-2.22 3.479-3.21 4.666-7.68-7.828-46.37-62.197-51.88-71.54.69-2.993 1.28-2.585 4.26-5.102M997.707 685.418c2.289-.486 2.185-.622 4.363.134.31 5.372-10.042 18.135-13.557 23.026-4.195-2.115-8.921-5.18-12.99-7.678-5.1-3.408-10.023-5.695-15.488-8.38 14.507-4.454 22.483-5.497 37.672-7.102m80.643 191.27c5.95 6.768 20.54 50.001 23.28 60.019.22.793-3.1 3.097-3.83 3.689-4.94-5.528-22.06-50.413-24.52-59.709 1.15-2.693 1.7-2.205 5.07-3.999m-31.63-190.854c15.28-.02 27.32 1.153 42.03 4.803l-9.28 6.516c-6.57 4.538-12.21 7.769-19.1 11.711-4.07-8.036-8.87-15.408-13.65-23.03m-76.884 191.623c2.927 1.078 3.517 1.113 5.732 3.179.689 6.468-16.057 47.317-19.525 57.926-2.631-.289-3.367-.173-5.557-1.725-1.265-5.443 16.17-50.573 19.35-59.38m53.934 121.191c1.93.952 3.95 1.412 4.36 3.382 1.58 7.65 1.49 36.84-1.53 42.63-1.26-.24-3.16-.51-3.65-1.52-3.62-7.36-3.37-39.59.82-44.492m185.79-245.958c5.57 1.144 23.58 6.068 25.74 11.022.07 2.724.24 2.724-1.3 5.1-6.29-2.407-25.53-6.297-27.09-12.131zM835 756.909c2.319.141 2.22.401 4.363 1.561l.363 2.314c-2.615 4.876-16.407 10.647-21.904 13.301-2.499.539-1.427.811-3.387-.221.658-10.941 11.559-12.996 20.565-16.955M360.51 706.7c1.997 9.732-2.8 10.654-10.579 15.736.456-3.738 7.731-11.991 10.579-15.736"/><path d="M451.532 694.401c8.792 1.353 16.225 14.111 20.966 21.734 48.58 78.115 65.639 180.897 66.751 271.812.122 10.042-.562 34.793-5.475 41.893-2.821-.5-3.536-.82-6.229-1.88-2.628-4.15 1.57-37.593 1.395-47.925a644 644 0 0 0-10.612-103.28c-8.6-46.638-21.499-93.004-43.002-135.49-7.514-14.845-16.984-25.287-25.477-39.13-1.411-2.301.589-5.487 1.683-7.734m1137.828 6.171c3.94.153 5.37.141 6.92 3.969-.68 6.817-11.2 14.361-14.68 20.31-36.77 62.709-54.75 144.176-60.04 215.817a374 374 0 0 0-.76 50.903c.46 8.16 4.1 30.679-.21 36.219-2.87-.54-2.73-.55-5.2-2.2-6.9-10.29-5.49-62.373-4.85-76.288 2.98-64.989 29.67-204.935 78.82-248.73m-994.946 3.84c2.381.363 6.659.877 7.49 3.19 5.593 15.57 8.771 28.608 18.128 42.808 27.657 41.966 67.604 73.971 106.159 105.41 8.562 6.981 28.957 21.133 34.658 28.09.631 3.026-.323 4.363-1.546 7.39-7.811.082-21.238-11.449-27.337-16.545-47.431-39.633-102.992-79.932-130.637-136.636-4.474-9.176-10.616-23.776-6.915-33.707m851.236 3.957c3.34.137 3.45.183 6.43 1.638 1.47 2.072 2.74 3.958 1.99 6.821-12.45 47.241-51.45 84.443-86.28 116.524-23.02 21.196-48.51 41.593-72.88 61.492-4.02.46-4.65.214-6.73-2.991-.06-9.069 30.7-29.969 38.31-36.631 40.67-35.625 87.23-71.749 110.61-121.721 3.52-7.515 5.11-16.494 8.19-24.263zM513.318 746.62c5.564.416 7.035 1.046 9.917 6.088 5.498 9.617 11.874 18.842 18.032 28.058a770.6 770.6 0 0 0 83.749 104.638c10.117 10.789 30.659 28.535 38.203 37.998.979 3.435.344 4.089-1.091 7.634-8.33.079-16.52-9.667-22.523-15.408a792 792 0 0 1-110.031-132.896c-5.877-8.843-12.986-19.13-17.221-28.849-1.149-2.637-.163-4.714.965-7.263m1015.772-.043c4.51.484 5.91.76 7.4 5.21-.66 4.491-3.45 8.137-5.74 12.057-33.01 56.476-74.93 107.11-120.59 153.756-5.71 5.836-11.41 11.913-17.45 17.343-3.73-.828-4.73-1.312-6.5-4.49.17-5.506 11.83-15.671 15.93-19.881q13.425-13.657 26.37-27.775c26.5-28.871 49.92-58.367 72.36-90.561 9.65-13.845 18.48-32.55 28.22-45.659M354.73 1089.61c8.149.3 62.977 32.5 67.342 38.76.512 3.07-.232 3.94-1.57 6.95-7.406-.51-61.438-31.66-66.602-37.6-1.042-4-.387-3.83.83-8.11m1332.87-1.89c2.49.01 2.6.27 4.77 1.39 2.64 5.28-.36 8.26-4.58 11.67-16.59 13.43-37.41 25.61-56.5 34.64l-3.24-.67c-2.78-2.46-2.08-1.21-3.13-4.66.59-1.91 1.33-3.52 3.18-4.51 21.46-11.48 39.95-23.32 59.5-37.86m-152.55-493.759c4.21-.483 4.32-.06 7.24 1.911 1.7 3.345 1.55 1.868.74 5.367-4.65 5.631-22.31 11.485-30.74 15.358-4.8 1.032-5.13.45-7.9-3.188-1.56-10.86 21.68-16.211 30.66-19.448m-27.53 582.929c2.49-.16 3.44.51 5.7 1.51 1.43 3 1.19 1.68.32 5.34-5.15 6.94-23.21 14.54-31.72 18.41-2.22-.32-2.72-.76-4.78-1.69-1.78-3.03-1.51-1.45-.86-4.9 4.14-5.69 23.79-14.68 31.34-18.67m-969.638-1.53c6.965 1.43 30.168 12.81 32.819 20.12-.015 3.33-.681 3.75-2.741 6.63-7.315-.96-29.607-12.71-32.82-20.11-.083-3.35.607-3.76 2.742-6.64m838.068-677.74c4.21 1.73 5.58 2.103 5.57 6.816-3.71 6.713-19.92 14.399-27.21 18.157-2.03-.094-3.32-1.069-5.12-2.066-1.69-3.043-1.39-1.439-.75-5.008 3.77-5.828 20.24-13.536 27.51-17.899m-705.444-1.139c8.724 1.238 24.317 11.069 29.225 18.711 1.464 2.279.042 5.3-.664 7.598-8.865-1.109-25.687-11.656-30.14-19.078-.558-4.234-.607-2.58 1.579-7.231m122.869 126.977c7.144.396 26.084 9.673 29.889 16.292 1.313 2.283-.287 5.428-1.083 7.609-7.096-.357-26.519-10.012-30.037-16.422-.737-3.318-.067-4.125 1.231-7.479M1473 484.809c2.41-.075 3.56.6 5.78 1.487 2.04 2.759 1.62 1.237 1.18 4.752-4.19 6.307-19.32 13.796-26.3 17.722-2.99.113-4.85-.31-6.66-2.576l.55-3.727c3.86-6.427 18.6-13.808 25.45-17.658m-902.82.842c9.763.441 24.277 9.009 29.621 17.462 1.246 1.972-.485 5.535-1.253 7.463-7.991-1.183-24.704-11.538-29.172-18.221-.781-3.146-.409-3.505.804-6.704m89.527-103.016c6.231 1.154 21.879 12.452 23.805 19.353-.017 3.477-.872 4.198-2.834 7.293-6.204-1.679-22.795-13.745-24.373-20.244.488-3.427 1.002-3.662 3.402-6.402m80.021 18.699c6.901 1.798 21.3 10.514 23.309 18.144-.973 4.314-.288 2.687-3.657 6.412-6.86-2.121-20.701-10.373-23.005-17.883.165-3.449.955-3.862 3.353-6.673m646.742-18.689c4.4 1.335 5.72 2.057 6.61 6.511-2.4 6.631-15.37 13.53-21.62 17.373-4.49-.933-6.02-1.447-6.44-6.187 2.58-5.773 15.47-13.315 21.45-17.697m-79.57 19.265c4.65-.239 7.59.543 7.79 5.448-3.22 6.931-15.32 12.81-21.96 16.36-1.82-.002-3.27-.735-4.98-1.389-2.03-2.433-1.6-1.092-1.56-4.077 3.13-6.606 14.23-12.342 20.71-16.342m-57.63 224.889c3.72 1.364 5.13 2.119 5.92 5.971-1.92 5.176-15.79 10.703-21.44 13.472-4.08-1.801-5.56-2.546-5.46-6.976 3.27-5.606 14.77-9.72 20.98-12.467m-37.34-91.992c2.86.445 4.34 1.56 6.31 3.484.8 7.639-10.91 11.703-16.89 14.518-3.4-.725-3.74-1.093-6.25-3.538-1.47-7.176 11.24-11.706 16.83-14.464m-377.186 1.78c6.602.617 14.043 4.407 17.62 10.129.485 4.421.595 2.661-1.443 7.336-6.153-.814-15.256-4.367-18.385-10.144-.455-3.447.339-4.099 2.208-7.321"/></svg>