<svg xmlns="http://www.w3.org/2000/svg" preserveAspectRatio="none" style="display:block" viewBox="0 0 2048 2048"><path fill="#fefefe" d="M0 0h2048v2048H0z"/><path d="M979.235 121.417c14.208-1.203 38.415-.656 53.225-.601a903.4 903.4 0 0 1 357.19 75.258c226.24 98.662 403.6 283.747 492.53 513.986 88.15 227.384 83.49 480.28-12.96 704.27a947.07 947.07 0 0 1-435.5 463.22c-46.08 23.65-90.76 39.68-138.81 58.4.4 14.69 4.18 54.98-2.03 69.36-2.2 1.83-11.49 2.68-13.92 2.66-70.21-.48-140.54 1.32-210.71.86-68.08.55-136.172.35-204.251-.6-10.382-.09-106.105 1.8-111.68-3.49-6.312-5.98-1.462-56.59-.739-70.56a853.9 853.9 0 0 1-259.765-127.82c-56.436-40.12-110.222-88.99-156.09-140.83a925.18 925.18 0 0 1-232.564-547.32c-18.668-247.873 62.1-492.98 224.466-681.197a911.46 911.46 0 0 1 478.648-291.162 1023.7 1023.7 0 0 1 172.96-24.434"/><path fill="#fefefe" d="M999.598 231.425c19.292-1.315 48.652-.251 67.772.675a814.5 814.5 0 0 1 434.42 156.28c208.47 151.81 331.62 401.761 331.13 659.15-.34 179.66-59.67 342.61-165.32 487.14-10.97-.83-25.64-3.77-36.72-5.72-21.26-3.88-42.57-7.47-63.92-10.76a5397 5397 0 0 0-196.83-23.51c3.42-12.21 8.05-28.12 9.68-40.38 4.17-31.36 5.38-64.74 6.13-96.41 2.16-71.95-.31-143.96-7.4-215.59-4.12-43.88-9.86-88.5-21.93-130.94-8.75-30.751-20.45-48.219-45.28-68.078-11.99-9.589-14.92-12.894-29.19-20.465 33.93-42.074 19.46-116.114 1.02-161.486-9.53-23.467-17.56-48.667-22.28-73.499-1.91-10.02-3.16-21.133-6.1-30.874 13.54-23.042 16.53-42.403-1.95-64.328 1.04-14.555-.08-27.504-.4-41.797-2.81-126.057-58.35-235.086-191.61-258.761-38.06-5.724-70.616-.362-103.843 19.024-5.43-.434-13.342-.694-18.679-.132-127.904 13.468-149.935 178.664-142.688 276.892-19.129 30.588-18.488 34.852-2.157 67.191-5.714 30.999-11.061 57.576-21.03 87.804-7.612 22.303-16.501 45.137-22.764 67.782-8.894 32.159-7.308 87.494 10.747 116.409-18.216 10.254-43.812 30.501-54.146 49.109-26.489 47.699-30.701 121.049-36.158 174.709-3.852 37.88-7.712 80.99-8.806 118.34-1.254 42.81.073 87.23 1.607 129.81 1.114 30.95.683 63.81 7.579 94.11-21.379 2.86-50.102 4.39-72.498 6.59a2938 2938 0 0 0-137.506 16.06c-28.509 3.85-58.344 7.49-86.126 15.17-11.146-11.39-32.936-46.8-41.697-61.36-62.025-103.08-107.439-232.14-116.708-352.36-4.589-59.52-4.811-128.208 4.104-187.39 22.124-146.858 93.274-304.886 190.776-417.048a808.3 808.3 0 0 1 488.517-271.813c36.366-5.846 63.837-7.056 100.254-9.544"/><path d="M261.363 857.947c9.547-.195 10.08.909 13.92 9.464-33.166 202.109-24.15 398.109 83.796 575.999 5.838 9.62 29.879 42.28 30.89 50.72-.743 4-2.218 4.82-5.259 7.87-2.108.5-3.573.53-5.719.7-10.681-3.74-38.239-53.24-45.098-65.2-92.909-162.08-111.31-355.7-83.267-537.859 1.793-11.648 2.868-33.914 10.737-41.694M1771.37 970.954c11.49-.036 14.81 5.919 15.34 17.017 1.53 32.099 5.34 63.969 3.3 96.109-1.8 28.31-3.07 56.12-6.44 84.34a899.8 899.8 0 0 1-73.85 261.59c-5.32 11.87-13.47 33.65-22.54 40.8-5.32 2.28-9.74 2.82-12.69-2.61-.14-3.37.42-7.49 1.93-10.5 57.52-114.87 87.41-231.5 93.64-359.96 1.27-23.95 1.09-47.95-.52-71.87-.92-14.72-2.82-30.982-2.84-45.69 0-3.54 2.5-6.566 4.67-9.226M438.067 516.85c23.903.683 7.938 19.522.926 29.272-3.439 4.781-6.866 10.439-9.989 15.461a694 694 0 0 0-37.41 69.851 814.2 814.2 0 0 0-55.279 171.869 977 977 0 0 0-13.554 88.182c-1.718 15.6-2.514 32.22-5.133 47.724-.368 2.18-3.595 5.381-5.219 7.064-19.626-.491-13.326-17.618-11.815-31.68a3640 3640 0 0 1 5.624-48.748c8.482-70.312 29.712-152.615 56.266-218.34 12.389-30.664 52.751-112.736 75.583-130.655"/><path d="M301.674 976.01c3.912-.082 6.527.344 9.37 3.136 3.401 6.544.565 40.034.47 49.434-.067 6.64-1.502 10.11-6.444 14.28-5.189.19-7.632.55-11.154-3.79-2.501-8.88-2.443-49.474-.615-58.624 2.14-2.76 4.963-3.239 8.373-4.436m1464.656-87.93c1.84.37 5.8 1.235 6.67 3.89 4.22 12.966 9.77 36.994 8.33 50.152-.32 2.95-6.09 5.049-8.4 6-1.85-.528-4.27-.96-5.91-1.948-1.92-1.15-2.74-2.678-3.36-4.726-1.91-6.316-8.97-45.711-5.95-49.562 1.99-2.526 5.69-3.107 8.62-3.806"/><path fill="#fefefe" d="M993.225 140.504c27.125-1.904 53.175.101 80.155 1.317 535.2 24.124 925.44 524.399 841.06 1048.769-8.78 52.17-22 103.5-39.51 153.43-20.53 58.6-52 126.18-84.77 179.41a931.8 931.8 0 0 1-354.04 331.1c-42.27 22.4-100.41 46.49-145.39 62.09-14.6-30-25.75-29.67-56.25-29.87 29.02-8.19 73.19-21.38 101.25-32.26a843.5 843.5 0 0 0 200.97-113.79c39.43-29.72 80.02-65.4 113.75-101.48a862.37 862.37 0 0 0 232.53-543.48 881.8 881.8 0 0 0-155.82-549.797c-124.62-179.908-317.81-304.157-531.7-348.118-45.1-9.27-87.42-13.548-133.21-16.334-8.65-1.307-37.98-.559-47.55-.578-119.463-.236-249.385 31.114-357.768 81.188-206.413 97.248-365.951 272.235-443.761 486.734a862.4 862.4 0 0 0 5.039 610.555c7.397 19.11 18.194 42.28 26.978 61.03a877.6 877.6 0 0 0 413.997 413.77c31.282 14.65 64.297 28.26 97.536 37.8 14.193 4.08 27.859 8.28 41.727 13.34-21.643 3.19-36.009 6.03-44.197 29.25A836.6 836.6 0 0 1 415 1718.83c-183.117-167.64-289.884-402.75-295.603-650.95A917.2 917.2 0 0 1 298.56 504.602c48.067-65.204 104.749-123.309 168.321-173.375a892.28 892.28 0 0 1 526.344-190.723"/><path fill="#fefefe" d="M955.76 473.685c4.026 4.166 9.214 12.715 12.826 17.778 53.064 74.393 122.044 119.917 217.064 119.342-1.94 7.303-3.28 15.227-4.43 22.651-7.76 49.948-22.67 92.515-57.4 130.384-17.93 19.554-25.94 27.673-49.38 40.612-20.29 10.729-36.11 18.1-60.14 14.89-56.924-7.605-107.261-62.867-131.269-111.845-16.078-32.8-25.55-94.752-21.097-130.636 24.353-14.958 61.742-47.914 79.41-71.538 6.443-8.615 11.065-21.538 14.416-31.638"/><path d="M992.196 743.112c14.304 3.69 26.534 5.323 41.244 3.697 8.61-.951 25.21-4.892 31.57 1.693 1.39 7.439-2.75 9.706-8.76 12.449-11.45 4.429-23.65 5.424-36.94 4.956-6.03-.213-35.833-3.602-35.557-14.452.079-3.143 5.352-6.779 8.443-8.343"/><path fill="#fefefe" d="m1119.47 1526.57.61-.07c1.15 1.34 3.97 50.12 4.61 57.18 5.26 60.36 14.54 120.31 27.79 179.43 3.69 15.76 7.44 33.79 13.37 48.67-24.31 2.52-67.57 1.32-93.22 1.18l-147.88-.63-44.471-.25c11.139-31.18 17.789-67.09 23.374-99.78 10.484-61.37 18.193-123.16 19.261-185.51 36.682 4.03 73.138 6.65 110.086 5.95 29.26-.56 57.44-3.98 86.47-6.17m.7 375.13c5.79 1.94 26.4.99 33.75 1.34 34.4 1.64 74.19-1.56 108.18 1.06 6.61 7.48 10.47 16.7 12.33 28.59 1.59 5.39 6.36 53.52 1.71 54.53-11.97 2.61-112.72 1.25-123.55 1.25l-225.09.53q-79.795.27-159.587-.48c-.267-20.26.777-40.72 3.612-60.79 1.928-13.65 6.269-22.12 21.262-23.52 30.114-2.83 60.688-1.15 90.941-1.2l177.652-.63c13.28.03 47.4 2 58.79-.68m-99.1-680.28c26.71-3.02 61.81 12.89 81.04 30.9 45.27 42.4 53.36 116.25 9.27 162.76-18.94-1.79-56.77-.87-78.08-1.22-4.88.28-9.96.11-14.87.18-27.867.38-55.373.84-83.248-.05-17.042-17.54-24.53-41.01-26.447-65.07a117.26 117.26 0 0 1 28.194-86.4c22.341-25.97 50.498-38.53 84.141-41.1M1206 1546.94c28.33.68 58.61 3.44 86.8 6.43.61 8.41.06 18.92.12 27.63.17 21.52.15 43.03-.07 64.55-.22 45.58.34 91.16 1.68 136.72.22 10.69-.68 20.57-.29 30.9-7.35 2.74-15.39 5.32-22.85 7.87-9.3 3.2-49.41 15.45-56.93 14.47-1.02-1.22-8.68-11.48-8.73-12.65-2.46-63.52.57-127.1-.39-190.65-.41-27.12 2.42-57.27.74-84.14zm-492.11 8.47c2.22-.35 7.961-.45 10.467-.57-.752 21.8.074 44.76.127 66.66l-.398 92.84c.092 29.98-1.407 59.46-.963 89.46-21.969-6.89-38.62-15.84-59.226-25.64-4.018-2.07-32.814-15.77-32.876-19.83-.994-65.15.304-130.1-.801-195.34 16.997-3.51 64.684-6.1 83.67-7.58m380.18-739.4c-1.59 37.275 7.74 64.268 17.99 98.284-8.23 16.957-10.11 20.39-23.31 33.567-13.76 11.655-29.36 20.252-47.06 24.134-5.99 1.314-13.47.309-18.15 3.679-7.45-.582-33.905-7.693-40.718-10.332-24.394-9.451-37.804-22.605-48.443-45.923 15.004-26.379 17.295-72.857 18.689-102.657 12.548 4.699 24.272 12.924 37.555 17.129 44.307 14.027 65.767.888 103.447-17.881M865.547 1830.15c19.657 1.71 59.886.43 81.689.48l163.864.32c23.71.02 47.35-.07 71.04.6 26.5.76 19.91 36.01 17.54 53.95-5.34.15-11.1.09-16.47.13-38.59-1.48-81.93-.76-120.83-.69l-113.392-.49c-22.658.25-45.317.35-67.976.32-11.161 0-24.737.68-35.61-.69-3.63-22.89-5.659-45.07 20.145-53.93m-30.99-282.66c.95-.24.278-.13 2.026.23.93 3.85.515 34.7.509 40.51l-.164 103.39.755 92.83c-.005 12.99.12 26.78-.469 39.75-.07 1.55-4.636 10.9-5.79 13.66-16.745-3.66-32.622-8.12-49.115-12.76-2.524-.67-7.769-2.93-10.417-3.97-1.489-88.94-.352-180.82-.231-269.91zm507.773 8.91c26.96 2.7 54.92 5.15 81.72 8.47.43 11.66-.76 22.46-.58 33.7 1.03 40.31 1.16 80.64.39 120.95-.47 37.96 5.51 31.95-28.56 49.12-14.05 7.02-41.67 21.2-55.91 26.36.86-11.4-.02-28.05.35-40.53 1.35-38.63 1.96-77.29 1.82-115.94-.29-26.94-1.7-55.4.77-82.13m-455.632-57.9.597.64c-1.204 13.9 3.849 18.1 14.589 25.72-8.059 1.01-16.118 1.65-24.226 2.09-49.524 2.69-99.201 5.47-148.652 9.31a4517 4517 0 0 0-246.294 24.7c-24.853 3.23-49.622 7.77-74.457 11.29-7.129-8.54-12.889-15.49-17.778-25.49 20.881-7.28 89.63-15.36 114.236-18.35a5005 5005 0 0 1 254.376-24.32c42.556-2.72 85.486-2.89 127.609-5.59m270.682.5c32.54-.24 79.98 3.27 113.48 5.32 85.7 4.93 171.12 13.92 255.97 26.92 42.14 6.06 84.25 12.02 126.01 20.5-6.83 8.83-12.65 15.5-20.05 23.77-4.82 2.71-22.97-1.7-29.38-2.79-16.84-2.99-33.73-5.73-50.65-8.21a3531 3531 0 0 0-277.2-30.67c-44.11-3.43-93.68-3.93-136.45-8.44l4.26-2.99c11.07-7.71 11.23-10.54 14.01-23.41m-576.626 68.3c2.707 2.56 1.531 18.07.871 21.72-3.675 20.34 4.039 127.21-1.802 138.09-7.611-2.3-31.797-20.2-39.915-25.93-9.883-6.58-24.341-17.88-33.609-25.46-.808-5.83-1.234-11.67-1.222-17.56.056-27.26-.232-54.7.77-81.93 21.891-1.05 52.469-6.07 74.907-8.93m891.536 3.7c23.89 5 54.51 7.81 80.17 12.59-2.11 24.87-3.51 55.14-4.1 80.19-6.27 6.27-25.35 20.29-33.02 26.14-11.47 9.44-31.68 22.67-44.11 31.36.81-11.09.44-24.03.56-35.28l.09-74.97c-.07-10.71 1.1-30.48.41-40.03m-496.792-140.47c48.292.45 96.852.08 145.102 2.08-.69 10.55 2.31 26.68.83 34.14-6.66 3.48-41.74 5.57-51.67 6.52-42.48 4.6-104.871 1.89-147.09-5.49 1.977-12.06 3.301-24.52 5.237-36.76 15.865.09 31.731-.07 47.591-.49m157.302 54.93 1.19-.14c5.92 1.97 10.55 13.91 3.34 18.12-5.57 3.78-12.84 3.79-19.29 4.46-51.52 5.34-102.59 9.72-154.43 5.35-18.013-1.52-35.268-2.45-53.288-5.22-14.273-6.09-6.413-16.75 2.661-22.68a731 731 0 0 0 146.847 7.06c23.05-1.36 49.43-4.79 72.97-6.95M803.28 702.683l.971.969c3.351 11.529-15.582 77.522-18.157 92.742-5.147 30.414-13.814 68.866-15.346 99.779l-.958.812-1.592-2.187c-15.834-50.204 1.186-87.365 17.778-134.176 6.264-17.674 12.225-39.65 17.304-57.939m34.495 35.458c3.185 13.592 10.945 51.097 10.319 63.75-1.672 33.763-4.861 66.336.008 100.487 1.596 11.19 4.709 22.517 5.847 33.864l.137 1.441c-24.209-45.038-18.072-105.567-17.121-155.195.276-14.41-.47-28.996-1.121-43.383zm385.245-136.868c14.86-1.396 25.38 11.644 24.17 26.011a28.65 28.65 0 0 1-10.62 20.097c-11.74 9.39-25.45 7.719-39.06 5.956l2.41-18.068c13.56-1.646 10.2-8.274 20.79-11.734 4.89-1.596 12.55 6.35 18.13-4.837-.46-6.184-6.79-8.043-12.26-8.78-10.7-1.441-16.97 2.288-25.17 8.41.25-3.329.16-5.622 1.56-8.662 5.66-5.162 12.48-7.406 20.05-8.393m17.38 73.442c5.92 64.098 45.07 116.234 45.32 185.5l-.93-.866c-7.08-27.92-15.21-45.965-25.76-72.399-11.8-29.565-21.48-80.27-18.63-112.235m-418.475-74.199c5.344-1.784 16.559 1.679 19.561 6.676l-.862 1.346c-11.786-.289-29.897-.26-32.32 14.869 1.133 3.663.077 2.299 3.089 4.371 3.895.43 11.73-4.007 15.96-5.957 5.167 3.971 16.523 11.478 17.769 17.404l3.546 17.338c-12.729-.461-21.366.627-32.569-8.128-12.177-9.515-22.839-26.511-10.598-40.813 4.919-5.748 8.945-6.542 16.424-7.106m66.214 944.574c6.964.71 8.943.58 15.8.01-1.54 11.59-1.347 29.76-2.361 42.43-2.839 35.45-5.176 68.14-11.485 103.24-.216 3.2-.731 4.46-1.65 7.46-1.043-3.04.633-23.8.528-28.2-.354-14.89 2.005-116.35-.832-124.94m252.761-.16c5.51-.12 9.1-.42 14.56.6 1.77 2.39.1 115.29.15 126.04.28 2.39.66 3.3-.56 5.43l.87-.54-.47 1.86-.95-1.38.93-.37-1.19-.58c-5.91-24.19-6.4-50.18-9.21-74.97-2.11-18.53-4.13-37.45-4.13-56.09M910.3 779.374c6.09 3.258 18.882 17.07 24.326 22.644 1.053 19.224-2.658 41.031-1.84 58.054l-.082.672-.966.63c-2.099-11.673-4.516-27.748-7.744-38.958-4.237-14.718-10.628-27.473-13.694-43.042m-20.932 7.225c.152-8.326-.492-17.825-.401-26.734 1.228 6.334 2.59 12.4 2.938 18.845 6.046 44.335 5.133 91.389 10.977 135.791.623 4.731-3.244 5.754-1.227 15.484l-1.294 1.123c-6.321-11.598-2.351-30.136-3.616-42.672-1.665-16.499-3.252-32.12-4.273-48.726-1.037-16.888-.928-33.894-3.212-50.586-.211-1.541-.193-.885.108-2.525M449.238 1585.4c2.399-.36 1.263-.53 3.416.47 2.456 8.72.187 25.23.743 36.19l-11.308-11.8c-6.035-6.55-12.014-13.96-17.757-20.83 7.754-1.01 16.975-2.81 24.906-4.03m670.392-792.541c2.94 5.033 1.91 76.453 1.04 85.614l-.97-.852c-1.08-6.825-3.03-12.826-3.96-20.233-2.52-20.017-2.61-38.351-2.05-58.4zM848.57 676.787c5.308 6.618 5.153 14.769 7.801 22.127 8.577 23.835 14.648 46.074 13.65 71.733-.248 6.383-.236 15.103.362 21.519l.111 1.075-1.376 4.884c-1.806-8.045-2.921-27.081-4.451-37.131a1025 1025 0 0 0-16.097-84.207m15.137 185.792c5.5 12.473 18.529 77.871 18.836 93.08l-2.086-.187c-9.868-13.639-15.735-74.458-16.75-92.893m306.223-40.048c6.37 7.275 4.73 54.173 3.76 64.576l-1.11.199c-2.09-3.794-5.07-9.387-6.05-13.517-3.08-13.039.03-38.27 3.4-51.258m419.08 768.179c8.71 1.48 17.43 2.87 26.17 4.2-3.67 4.81-7.51 8.67-11.68 13.04-4.98 4.8-7.43 7.54-11.8 12.92-1.26-10.03-2.8-20.06-2.69-30.16m-331.49-696.915c1.83 2.611 2.22 3.671 5.17 4.905 4.1.187 8.24-2.932 11.98-5.115-4.12 11.288-5.47 14.218-13.03 23.819-3.97 4.762-6.81 7.048-11.44 11.018 2.26-11.526.46-18.172 2.1-28.142 3.09-2.541 3.41-2.922 5.22-6.485m-96.21 8.201c3.52 2.295 4.96 3.024 8.79 4.801l2.24-.874c-3.75 11.419-7.34 31.576-17.47 38.793l-1.25-.231c-.34-4.519 4.76-20.431 5.85-26.178 1.22-6.406 1.48-9.577 1.84-16.311m76.74-76.219c.37.349.75.698 1.12 1.046 11.6 20.134 12.39 31.511 9.25 52.627l-.84 1.162c-.85-1.292-8.3-48.349-9.53-54.835m-73.71-86.912c-.77 25.468-2.66 41.282-6.68 66.331-2.14-3.151-1.69-9.585-1.77-13.686-.1-22.304 2.79-31.173 8.45-52.645m40.01 19.987c3.96 4.98 13.71 62.255 14.74 72.499-6.16-14.809-13.95-56.505-14.74-72.499m-60.79 130.025c1.28 7.825 3.3 25.187-.1 32.213l-2.09-2.234c-1.57-8.838.79-20.917 2.19-29.979"/><path fill="#b2b3b8" d="m835.844 739.105-.224-1.575c-1.862-12.515-8.627-34.525-12.314-47.445l.609.048c4.281 8.818 12.156 38.401 13.86 48.008z"/><path fill="#fefefe" d="M1234.99 929.623c1.53 4.379.28 9.795-.35 14.476-2.86 2.324-5.75 4.851-8.58 7.248-.32-1.578 7.57-18.63 8.93-21.724"/><path fill="#b2b3b8" d="M1157.66 805.196c.61 6.123-.71 14.432-1.51 20.642-1.71-5.832-1.2-27.996-.26-34.328.08 4.101-.37 10.535 1.77 13.686"/><path fill="#38373a" d="M870.494 793.241c.686 1.611 1.653 24.057 1.169 26.758l-1.085-.314c-1.49-3.686-1.591-16.981-1.46-21.56z"/><path fill="#7e7d84" d="M912.987 840.631c2.608 3.959 5.879 27.327 5.871 32.653-3.803-7.676-5.709-23.983-5.871-32.653"/><path fill="#fefefe" d="M814.155 859.655c1.555 4.838 1.457 17.53-.387 22.683-1.764-5.426-1.425-16.99.387-22.683"/><path fill="#7e7d84" d="M1170.1 906.797c.46-2.108 2.34-11.682 3.2-12.845l-.15.453 1.06.834c-.55 3.976-.98 6.786-1.87 10.684z"/></svg>