<svg xmlns="http://www.w3.org/2000/svg" preserveAspectRatio="none" style="display:block" viewBox="0 0 2048 2048"><path fill="#fefefe" d="M0 0h2048v2048H0z"/><path d="M1013.33 128.446c15.06-4.484 93.71 4.237 112.18 6.743a890.67 890.67 0 0 1 510.55 254.942c167.76 169.712 260.67 399.474 258.03 638.089-.43 56.44-5.85 98.94-17.02 154.43-6.79 33.7-11.16 58.7-22.13 92.62-43.65 135.01-126.1 276.45-227.68 376.14a934.9 934.9 0 0 1-385.47 226.49c-35.63 10.79-70.55 21.2-107.9 24.31-42.45 3.53-85.1 9.9-127.74 9.44-220.467-5.32-408.742-75.2-575.687-220.25-173.955-151.73-283.282-364.26-305.573-594.01-.589-6.53.347-13.73.176-20.33-.163-6.3-1.023-12.74-1.441-19.06-8.212-124.188 21.811-271.412 70.672-385.961a951.7 951.7 0 0 1 152.836-242.943 889.86 889.86 0 0 1 561.941-294.787c38.558-4.952 67.419-3.517 104.256-5.863"/><path fill="#fefefe" d="M994.762 166.452c43.458-.797 96.198 4.265 139.088 11.398 294.42 48.965 543.4 242.641 654.19 520.951 15.88 39.883 30.01 81.22 40.25 123.074 3.72 15.223 10.34 42.911 12.29 57.947 3.64 28.057 6.61 56.197 8.91 84.395a505 505 0 0 1 1.45 34.334c.02 2.739 5.12 8.489 6.57 11.439-8.17.36-4.8 13.09-4.96 21.06-3.22 166.22-61.24 335.42-157.32 470.89a1198 1198 0 0 1-69.02 86.61c-19.08 22.02-40.34 42.1-62.15 61.84-115.35 104.39-262.02 172.12-413.53 204.31-39.84 8.46-87.34 11.28-127.94 14.2-12.31.27-24.852-.81-37.201-1.01-109.816-1.86-223.594-30.58-322.896-76.57-198.177-91.24-353.923-254.86-435.276-457.3-26.165-65.53-45.685-133.37-54.771-203.47-1.453-11.21-2.639-38.83-7.94-46.66l-1.022-1.47 2.254-5.55c-3.02-5.95-1.959.71-5.403-4.9l.764-2.03 4.359-1.77c2.432-5.57.852-18.04.383-24.48-2.361-32.49-.299-65.267 2.575-97.715A875.14 875.14 0 0 1 389.35 443.789a844.82 844.82 0 0 1 525.832-271.562c24.87-3.105 54.569-4.58 79.58-5.775"/><path d="M1022.69 251.43c5.16-.464 13.92-.547 19.21-.236 187.16 11.003 374.25 92.862 504.77 227.183a770.7 770.7 0 0 1 203.9 379.502c8.22 39.94 14.2 75.776 11.81 116.61-.85 14.633 2.71 34.761 2.42 50.551-2.77 199.97-84.47 390.74-227.29 530.74-96.35 93.5-218.16 169.63-349.33 202.4-6.1 1.52-12.25 2.98-18.37 4.44a722 722 0 0 1-119.28 18.6c-19.1 1.19-39.62.66-58.78.36-178.094-4.91-348.986-71.37-483.587-188.1-156.476-138.32-251.131-333.47-262.879-541.99-1.544-24.9 1.893-77.679 4.571-102.411a781.83 781.83 0 0 1 193.081-439.698 768.6 768.6 0 0 1 410.46-238.024c37.991-8.055 74.995-13.458 113.735-15.135 18.669-.808 36.959-3.666 55.559-4.792"/><path fill="#fefefe" d="M972.967 288.579c23.997-1.678 48.083 1.05 72.233 2.29 147.24 7.557 281.66 56.096 400.02 144.435 157.92 119.85 261.47 297.762 287.7 494.263 25.44 178.433-30.06 374.403-138.15 517.643-5.54-20.85-6.73-44.11-11-64.84-8.38-40.7-17.76-86.81-31.34-125.95-22.3-64.28-61.31-119.09-89.47-182.3 6.79 6.12 34.04 24.52 43.04 19.74 1.37-8.07-44.57-57.72-36.62-107.04.84-5.197 7.01-31.218 11.02-33.467 1.06-.592 71.55-8.161 79.28-8.576 3.16-.169 5.82.097 8.88.853 7.51 5.461 19.15 37.082 24.69 47.53l.54.986c28.64-48.296 28.71-105.333-1.39-153.503-19.33-30.938-49.43-40.378-83.41-46.342-12.92-2.266-29.05-8.559-42.04-12.006-13.25-3.686-26.66-13.156-39.61-18.082-30.4-13.606-55.7-20.846-88.09-27.656-.65-46.707-1.04-97.885-19.61-141.063-16.87-39.235-60.64-82.247-101.75-96.551-91.1-30.644-194.63-39.45-289.813-23.996-42.461 6.894-120.948 32.143-138.622 76.301-6.737 16.834 3.284 37.558 10.788 53.233a98 98 0 0 0-3.782 7.734c-10.124 22.688-37.246 102.644-36.805 125.683.112 5.875 3.351 12.353 5.431 17.804l-.369 1.058-.654 1.749c-6.493 17.829-28.164 39.773-38.091 60.452-10.898 22.701-26.449 58.363-20.618 84.798 2.455 11.13 27.605 8.083 34.261 11.922 7.363 4.248 2.028 27.253 2.618 34.448.198 2.419 2.373 7.987 3.276 10.375-8.715 16.503-1.841 23.397 9.297 34.84 6.19 23.856-20.442 43.136 2.876 84.696 44.435 72.63 160.93-32.23 157.233 157.79-17.953 7.51-36.539 14.71-54.621 22.03-12.696 25.02-23.8 52.74-37.996 77.88-4.886 8.66-11.349 22.94-16.393 32.24.033-.06.645 5.82.609 5.86-5.583 7.43-15.511 19.74-20.587 26.92-20.903 29.54-40.875 58.08-57.759 90a2856 2856 0 0 0-56.88 115.24c-6.073 12.76-19.567 44.09-25.721 53.71-33.039-14.72-81.234-52.13-108.568-75.58 11.601-5.16 154.773-60.46 126.15-82.37-18.263-13.98-99.117-16.02-125.921-17.87 24.188-12.15 45.615-26.36 67.177-42.65 7.241-5.47 36.897-26.19 37.282-34.73.129-2.87-1.626-5.49-3.744-7.28-16.588-13.98-112.357-5.62-136.816-3.13 32.643-24.16 59.46-44.29 85.769-76.27 5.811-7.38 13.275-14.55 18.147-22.57 14.759-24.31-7.034-20.92-22.197-19.35-44.492 4.58-85.764 18.16-128.255 30.84 11.211-8.52 33.936-34.82 43.332-45.35 16.5-18.5 76.167-101.11 69.628-121.88-1.872-2.06-2.861-3.21-5.715-3.63-18.219-2.7-104.026 44.3-122.222 55.4a561 561 0 0 0-46.982 32.68c8.176-14.97 18.652-33.61 27.188-48.42 11.022-19.12 57.269-137.89 42.902-152.68-5.81-2.87-11.151-.93-16.364 2.34-52.791 33.11-94.806 79.03-135.317 125.25 18.306-45.84 25.544-105.11 26.071-154.33.088-8.281 2.811-21.229-3.836-27.042-17.319-6.479-53.492 53.622-61.829 67.162-.312-1.93-.716-4.24-.744-6.19-2.635-185.594 66.313-362.551 188.418-501.404a733.05 733.05 0 0 1 392.895-228.412c38.11-8.129 81.994-13.151 120.95-15.665"/><path fill="#fefefe" d="M812.426 625.516c8.933 6.95 16.457 25.768 22.983 33.881 15.012 18.66 31.54 41.959 48.72 58.139a482 482 0 0 0 75.139 57.178c12.893 7.938 33.964 17.865 44.882 27.095l1.12.95c3.76-3.054 7.83-7.912 11.43-11.486 11.84-11.761 23.78-18.495 39.91-22.452 3.06.677 5.96 1.501 8.85 2.742 9.85 4.241 17.26 13.223 21.05 23.099 3.33 8.69 4.27 18.566 3.7 27.807-3.07 50.464-55.31 63.459-59.03 76.791-.92 3.299 12.08 51.111 13.34 59.707a847 847 0 0 1 8.85 112.263c.17 9.56-1.45 57.41 1.13 62.8l1.74.53c9.86-6 52.68-85.1 61.19-100.86 2.52 19.49 4.5 30.27 4.03 50.6-.18 7.67-3.44 25.53-3.04 28.11l1.69.76c15.57-6.03 40.69-42.18 50.94-56.59 3.98 26.58 13.01 52.9 16.3 80.69-44.71 15.15-94.29 32.54-138.23 49.71-12.47 5.38-31.97 11.94-45.41 16.96l-66.033 25.28c-1.626-38.08-.198-53.89-17.251-90.36-26.128-55.87-67.21-40.46-116.825-52.53-8.406-2.04-18.443-6.64-24.145-13.3-22.427-23.87-4.735-48.7-1.515-75.283 1.689-13.948-15.475-21.27-15.051-28.702 6.302-4.976 26.943 2.972 37.938-1.482 2.315-2.938 1.748-1.303 1.697-5.095-4.972-7.409-29.674-12.172-39.576-15.6-1.48-3.125-.737-26.402-1.913-31.506-1.577-6.851 11.14-4.787 15.555-8.513l-.019-2.609c-6.013-10.496-37.153-6.172-47.704-10.742-7.994-3.462-2.797-18.568-1.438-24.966 8.833-41.566 36.469-70.378 58.551-104.519l14.294 3.229c.375 8.179-.569 23.503 7.786 27.233 7.722-.812 19.763-12.642 26.53-18.129 6.279 2.572 10.783 2.772 17.336 3.205-8.634-10.295-17.949-20.427-30.35-26.195a52.7 52.7 0 0 0-14.686-4.315c-8.902-1.315-24.97 2.495-24.706-9.85 9.897-12.451 66.001 8.789 70.107 7.272l.478-1.968c-2.315-5.926-9.432-13.915-14.983-16.617-23.245-11.319-31.206-18.834-56.659-11.092 11.48-29.882 19.154-63.498 31.298-91.27"/><path d="M1059.77 787.247c5.99.773 9 3.153 12.5 7.997.43 6.755-12.36 8.177-17.84 14.12-3.9 4.22-4.3 5.209-7.22 10.077 3.88 8.651 14.16 45.548 3.91 50.313-2.41-2.332-2.45-5.086-3.11-8.52-2.87-13.365-4.69-18.174-13.56-28.471-5.33 2.247-7.03 3.781-12.07 2.173-1.09-1.45-2.1-2.157-2.08-3.921.28-18.437 23.26-41.19 39.47-43.768M783.941 881.41c13.052 4.096 15.795 21.132 4.388 29.793-2.978-.161-6.077-.377-6.989-3.528 6.424-10.36 4.436-13.969 2.601-26.265"/><path fill="#fefefe" d="M1397.15 846.089c5.09-.041 22.91 2.566 28.35 3.641-1.61 7.996-24.1 48.039-29.26 57.905 11.23 34.396 39.92 40.494 71.79 42.971a113 113 0 0 0-8.29 20.897c-11.35 39.037 1.14 67.647 19.85 101.347-6.5-5.42-25.55-21.69-32.56-22.9-6.37 8.94 20.29 62.75 25.34 72.61a2816 2816 0 0 0 29.06 54.52c9.56 17.19 20.55 35.17 27.77 53.37 25.7 64.74 39.27 134.28 50.01 202.88 1.5 9.55 2.59 18.92 4.76 28.37-13.06 20.25-73.53 88.64-92.31 97.84-7.7-18.8-13.93-38.47-21.8-56.93a742.8 742.8 0 0 0-123.3-203.96c-17.11-20.5-41.25-39.2-54.98-61.64-9.64-15.73-17.9-35.48-25.78-52.33-6.38-13.67-10.97-29.11-17.73-42.74-8.79-20.46-16.92-16.01-36.05-12.12 5.31-23.77 26.42-63.61 35.25-89.03 4.97 22.45 13.67 59.01 28.4 77.06 8.98-18.05 11.35-58.19 15.25-79.96l31.57-173.647c27.33 14.175 55.66 3.998 74.66-18.154"/><path d="M1336.05 1050.49c1.14.48 3.3 1.91 3.25 3.32-.51 16.05-2.26 47.22-10.62 60.52-2.16-2.48-4.42-14.51-4.74-18.04-1.66-18.6 1.15-31.12 12.11-45.8m53.53 15.11c.71.67 1.36 1.41 1.93 2.21 5.32 7.57 15.41 43.62 13.32 54.28-.32 1.65-.87 1.43-2.59 2.39-13.44-14.44-22.65-40.46-12.66-58.88m34.46-96.387c1.83.484 4.2 1.456 4.33 3.582.69 11.977-3.43 42.375-9.27 52.085-9.74-12.99-7.26-44.96 4.94-55.667m-47.9 25.359c2.45.08 1.57-.034 3.92.901 2.72 7.627-4.33 39.497-9.67 46.057-9.29-9.15-7.92-27.34-2.25-38.08 1.86-3.509 5.08-6.249 8-8.878m-45.85-26.001c2.21.487 1.21.001 2.79 1.951.43 8.662-13.63 39.908-19.22 46.708-11.74-14.52 4.4-38.848 16.43-48.659m14.15-67.055c2.5-.01 2.36.035 4.71.947l.62 2.032c-1.34 7.944-16.98 29.392-22.53 35.943l-2.45.013c-8.3-12.369 11.23-31.381 19.65-38.935m25.01 37.292c4.01.328 3.42-.371 5.7 1.804.86 6.397-8.8 21.842-12.24 28.454-3.34.11-1.77.474-4.79-1.408-5.03-9.622 3.85-22.856 11.33-28.85"/><path fill="#fefefe" d="m543.951 1162.1.97.16.773 1.06a490.3 490.3 0 0 1-110.33 140.86c-27.76 24.92-46.797 38.18-81.555 52.57l-6.406-13.1c-8.234-16.13-12.486-23.59-17.393-41.22 44.065-45.29 106.806-88.8 163.145-117.65 15.266-7.81 34.364-18.04 50.796-22.68m919.799-362.66c38.96 17.452 83.63 12.547 109 44.444 23.19 29.159 25.72 77.134 21.88 112.589-6.72-15.023-9.06-22.168-20.45-33.929-45.29-40.106-152.26-11.185-159.28-18.431 2.77-7.108 9.83-19.957 13.48-27.18 13.78-27.22 26.1-48.235 35.37-77.493"/><path d="M1485.46 824.612c4.82-.176 8.23 1.265 9.52 6.008-1.61 9.623-16.66 21.635-24.23 28.586-3.18.097-3.99-.688-6.75-2.259-5.65-9.991 14.09-26.612 21.46-32.335"/><path fill="#fefefe" d="M446.787 1047.91c-.061 6.31-3.281 20.28-5.026 26.53-12.996 46.62-31.681 91.92-57.139 133.07-18.994 30.71-35.964 52.7-63.79 75.93l-5.58-17.21c-7.258-20.63-15.937-42.42-18.855-63.94 8.325-9.38 22.005-30.92 31.706-42.81a611 611 0 0 1 118.684-111.57m138.051 248.68.609.74c-8.738 12.99-23.469 26.95-34.53 37.95-45.556 45.3-94.265 74.6-157.131 89.41a653 653 0 0 1-10.554-15.76c-5.052-10.29-12.636-21.3-18.333-32.02 10.439-7.71 26.376-14.63 37.924-20.81 44.334-23.75 89.677-40.82 138.795-51.82 12.782-2.86 30.143-6.74 43.22-7.69m-8.373 113.96c12.67-1.44 25.693-.04 38.265 1.6-11.121 12.92-23.626 21.39-37.58 30.77-41.921 28.16-78.862 43.66-128.255 53.48l-1.358-1.08c-12.136-12.4-32.867-36.85-40.089-52.06a477 477 0 0 1 169.017-32.71m645.825-262.42 1.45.02c2.81 1.46 2.59 1.49 4.44 4.13.33 2.66.26 5.98-3.19 6.97-17.13 4.94-34.19 10.79-50.85 17.2l-204.013 80.44c-21.107 8.5-40.944 17.85-62.072 26.14-10.2 4-18.892 8.28-29.588 11.21-.036 12.75 2.661 29.36 3.887 42.65-11.42 3.65-18.727 6.46-30.582 9.07l-11.426 3.14a1706 1706 0 0 0 35.977-72.74c22.574-10.33 41.135-16.99 64.118-26.08a4394 4394 0 0 1 145.229-54.9c39.58-14.54 96.25-37.89 136.62-47.25m-665.177 356.33c25.676.72 58.412 3.29 83.011 10.2-21.697 19.9-69.253 40.29-96.845 49.78l-20.876 6.88c-20.331-15.01-41.103-37.47-58.037-56.03 24.327-6.49 67.761-10.21 92.747-10.83m782.337-753.8c36.88 8.997 76.85 21.343 108.99 41.991-2.45 19.31-5.05 23.23-14.48 39.861-10.14 16.866-58.44-17.497-71.9-21.715-10.05-3.153-20.01-2.453-30.29-2.078 3.61-19.661 4.15-39.378 7.68-58.059m-135.89 527.21 1.53.34c-6.02 11.18-85.5 56.45-100.98 63.17-23.96 10.41-176.488 76.52-192.254 73.42-2.128-8.46-4.09-17.08-6.103-25.57 29.628-5.74 66.28-19.32 95.467-29.1 46.18-15.46 93.9-32.79 138.98-51.24 17.5-7.16 45.71-22.33 63.36-31.02M319.6 999.741l.753.719c1.345 3.69 1.18 12.93 1.064 17.08-1.551 55.57-19.001 107.13-34.376 159.25l-2.224-14.98c-3.485-11.2-5.451-27.48-7.209-39.34-2.435-16.43-5.193-33.64-6.789-50.13 11.807-21.22 32.476-55.45 48.781-72.599m787.76 446.989c1.03 8.18-19.54 35.64-22.93 45.2-10.7 30.08-22.46 62.22-28.31 93.54-4.05 21.79-7.55 43.67-10.52 65.63-.92 6.68-5.63 48.72-6.83 51.46l-.99-.99c-1.81-7.89-3.13-15.88-3.94-23.93-4.95-51.23 11.23-136.73 35.53-182.81 4.17-7.91 30.86-39.43 37.99-48.1m337.67-529.246c7.55.194 17.03-.665 25.05-.635 29.5.111 55.54 1.397 83.69 10.658-8.52 1.498-19.24 2.123-28.02 2.868-37.81 2.739-76.29 7.621-109.96-11.197 10.44-.225 18.89-.809 29.24-1.694M973.907 1566.83c36.843 43.66 24.919 79.66 24.864 132.87-.696.68-.253.46-1.403.51-1.188-11.63-6.403-33.99-8.879-46.4-5.832-29.24-11.233-57.25-14.582-86.98m375.873-738.007c17.75 1.416 16.67 10.595 10.12 24.83-3.29-.023-3.72-.096-6.96-.744-6.86-5.186-7.13-17.305-3.16-24.086m-19.62-5.465c1.85.239 1.83.327 3.62.927.15 4.692-2.05 11.749-3.08 17.12 2.05 5.34 3.71 10.156 5.5 15.568l-11.26-4.023c.38-9.233 1.71-21.072 5.22-29.592"/></svg>