<svg xmlns="http://www.w3.org/2000/svg" preserveAspectRatio="none" style="display:block" viewBox="0 0 2048 1462"><path fill="#fefefe" d="M0 0h2048v1462H0z"/><path d="M922.881 175.432c11.026-1.203 45.147.427 57.686.255a5240 5240 0 0 1 182.933.14 9538 9538 0 0 1 706.89 34.508c13.62 1.183 75.76 4.774 84.99 9.117 3.62 3.521 5.07 7.094 4.7 12.194-1.89 25.528-7.71 50.288-8.22 76.097-.17 8.359-3.61 18.762-4.16 27.274-1.47 22.857-3.83 45.318-6.93 67.993-1.24 9.518-.81 20.169-1.91 30.036l-32.77 273.091-11.42 90.297c-1.44 10.612-3.7 21.234-4.96 31.862l-23.07 194.894c-2.26 18.73-3.06 37.36-5.98 56.2-2.73 17.61-4.58 19.24-23.25 17.79-8.67-.68-16.94-1.75-25.57-2.52-79.59-6.98-159.09-18-238.66-24.8a6282 6282 0 0 0-398.94-22.71c-6.45-.19-16.32-3.52-21.96-3.5-14.36.04-28.97 1.38-43.39 1.09-9.01-.18-19.79-2.46-28.45-2.58-13.11-.19-25.72-.01-38.9-.45a6398 6398 0 0 0-145.934-3.88c6.37 16.84 14.328 33.82 20.798 51.43 16.499 44.47 32.982 89.1 45.761 134.81 4.854 19.99 15.369 44.7 8.185 65.16-11.056 31.48-35.602 49.1-65.867 59.53-13.311 4.59-25.566 11.24-39.527 14.36-21.084 4.71-44.258 7.86-65.734 5.73.721 10.69 1.957 55.36-1.542 64.15-2.831 2.51-1.621 2.18-4.774 2.22-.305-.33-.626-.64-.916-.98-12.504-14.85-19.553-320.88-15.44-355.08.388-3.23.871-6.29 3.514-8.33l1.988 1.3c4.605 7.11 6.411 46.51 6.768 57.41 2.502 76.43 10.277 155.54 10.283 231.84 15.107-1.25 56.64-9.63 70.291-14.99 31.886-12.69 65.971-20.8 82.066-54.86 9.902-20.96 2.314-35.65-3.305-56.36a1469 1469 0 0 0-39.532-121.92c-19.783-55.51-44.316-111.92-76.576-160.246-39.042-58.491-104.151-77.707-169.289-90.387-19.489-5.115-39.194-9.349-58.783-14.016-52.136-12.42-107.173-15.044-160.612-14.618-19.039-1.332-39.195 6.828-56.925 8.794-35.75 3.963-64.866 21.325-94.486 41.226-20.403 13.708-45.117 34.453-60.665 54.178-10.932 13.87-19.061 33.849-26.998 49.587-30.008 61.722-49.02 128.342-61.302 195.702-5.107 28.01-6.885 56.64 10.799 80.86 30.961 42.39 85.096 61.75 134.558 70.52-1.472-12.88-3.969-37.04-5.018-49.25-2.366-27.55-30.896-247.93-20.334-254.49.751.64 1.384 1.16 1.903 2.01 2.085 3.43 3.281 7.94 4.043 11.84 7.089 36.34 53.848 393.71 50.105 406.8-.632 2.22-1.406 2.93-3.353 3.99-11.226-4.89-22.779-94.09-25.604-109.89a182.9 182.9 0 0 1-55.908-9.31c-38.218-12.58-81.738-38.46-100.444-75.97-20.01-40.12-1.573-96.4 6.64-138.23.676-6.03 8.631-25.29 7.131-30.69-3.377-12.16-5.764-19.27-6.571-32.71-1.359-22.62-2.106-44.83-2.022-67.525.123-9.979-2.646-22.219-2.201-31.929.94-20.507-2.357-40.884-3.08-60.952a3923 3923 0 0 0-3.988-85.56c-.623-10.769-2.598-21.416-3.381-32.124l-12.524-183.996-10.409-165.565c-1.849-26.973-.981-49.908-5.333-77.582-4.755-30.235-1.887-64.089-7.096-94.664-1.284-7.533-2.343-21.795.011-28.87 8.673-4.715 107.641-11.026 124.757-12.404l165.299-14.578a12048 12048 0 0 1 253.105-16.092c59.251-3.084 118.552-5.167 177.782-8.095 36.084-1.783 75.595-1.152 111.027-3.582"/><path fill="#fefefe" d="M995.579 208.434a8738 8738 0 0 1 798.161 30.258c-1.77 26.838-6.51 56.527-9.41 83.67-8.79 82.284-20.27 168.071-24.64 250.625-21.38-43.703-65.94-80.895-106.72-107.978-170.59-113.293-372.01-151.98-574.09-151.372-5.86.017-2.15 11.341-4.29 15.331-3.56 1.768-16.48-.265-21.41-.508-32.19-1.585-66.249-3.099-98.148 1.561.269-5.607 1.344-10.735-2.07-14.939-5.292-2.656-30.694-1.111-38.377-.875a1502 1502 0 0 0-279.486 34.524c-11.628 2.615-83.832 19.231-87.586 25.159l.905 1.958c9.653 4.752 35.098-7.002 47.71-8.141l.991-.079a524 524 0 0 0 3.849 7.446c1.94 3.667 4.484 9.174 8.6 10.438 2.559-4.9-1.606-15.043-3.348-20.682 9.8-2.566 19.814-4.955 29.659-7.401l6.688 21.991c-13.217 2.295-18.271 4.061-30.179 9.277 17.907 6.804 20.551 2.353 39.128-1.679l50.916-10.609c71.252-14.6 169.696-23.71 242.629-24.743l-.228 14.22c-71.774.995-148.73 10.733-218.979 24.994-25.893 5.256-51.234 9.147-76.143 18.585l9.138 6.109c22.481-4.593 55.883-13.018 76.824-16.279.978 7.547 1.982 13.131 3.507 20.512-9.998 3.652-48.848 13.266-46.854 23.928l2.471 1.393c8.325.671 14.775-2.586 22.436-5.63l21.333 13.537c-2.386.948-22.421 9.398-24.304 8.314-4.92-2.832-10.393-8.038-16.341-9.884l-.848.752c1.265 5.386 14.213 30.866 18.488 36.081 8.118-3.023 23.659-8.596 28.431-15.487 2.554-3.689 1.353-7.085.638-11.587 5.088-1.689 8.413-2.981 13.764-3.569 5.418 3.199 3.041 13.525 16.216 9.177 5.199-1.716 8.241-2.975 13.283-5.623l.365-13.306c5.641-3.298 8.454-1.914 10.587-5.677-.42-12.306-45.233-40.711-56.274-45.138 11.39-3.009 89.253-15.919 95.925-12.62l-2.925 17.054c-10.983 1.115-49.982 4.833-54.067 15.813 1.958 7.81 21.784 13.491 24.133 27.147 1.56 9.07 20.702 7.124 29.001 4.309 10.936-3.71 26.63-6.334 39.329-8.495-.058 5.824.205 12.2.324 18.07-17.508 2.425-34.858 8.612-52.11 9.331-3.262.136-18.683-24.347-26.274-18.94-2.68 9.045 6.777 15.502 12.809 21.569-10.949 5.273-50.252 10.985-59.307 18.019l-.112 2.32c1.825 4.114 6.638 7.652 10.176 10.705-7.577 2.722-33.136 9.481-33.217 18.164l1.833 1.798c7.207.882 27.189-8.573 36.872-11.303 6.202 4.37 8.902 7.11 14.19 12.368-9.135 4.69-12.755 11.01-18.255 19.317-5.014-3.889-14.001-13.339-19.694-14.078l-1 1.511c4.58 37.541 122.787 61.011 153.789 50.035 8.921-3.159-5.893-19.374 24.977-13.269-6.186 7.496-20.237 29.284-25.879 38.005-45.704-.824-80.21-6.047-122.749-23.42-7.435-3.037-34.087-15.555-38.841-16.592-7.193 5.896 1.772 29.811-3.461 39.121 1.681 15.913 114.9 31.129 133.716 32.858 12.021 1.02 22.304 2.212 34.385.728.922-7.689.85-12.916.803-20.585 9.822-13.579 24.314-40.794 33.758-50.539-1.517 16.44-1.696 40.796 1.368 56.965-3.704 8.596-8.46 16.573-12.74 24.897-19.65 38.214-42.328 74.779-63.838 111.922l-41.92 74.03c-4.471 8.015-19.803 38.247-25.789 42.527-13.525-.964-30.094-7.386-43.571-10.027-24.847-4.869-51.662-13.566-76.182-18.308-9.351-20.639-13.39-42.083-19.011-64.096 7.794-3.18 11.095-4.601 18.265-9.366 31.713-21.075 42.078-66.744 48.353-102.305 3.138-17.781 6.937-46.179 6.073-64.234-.314-6.569-6.062-19.868-5.984-25.09.151-10.027 1.247-19.423 1.006-29.853a178.2 178.2 0 0 0-32.851-98.998c-55.804-77.284-181.566-92.923-256.475-38.171-41.518 30.345-69.19 86.275-76.515 136.082-9.834 66.868 12.373 135.358 51.552 188.933-2.363 22.697-2.097 36.51.706 58.937-12.955 7.745-22.52 19.476-35.402 26.799-11.753 6.681-26.873 11.427-38.797 17.648-15.983 8.338-32.277 18.447-47.873 27.623-.918-38.037-4.793-75.732-6.52-113.853-1.09-24.09-5.139-38.164-2.42-63.84 5.472 7.42 10.363 17.167 16.2 25.588 24.082 34.747 61.95 69.293 101.362 85.618 2.285-2.377 5.189-6.272 7.313-8.945-9.303-9.826-33.752-25.534-47.051-36.913 9.085-5.178 34.952-16.956 40.702-23.005l-.691-1.971c-7.221-3.15-39.259 16.271-47.073 20.455-8.936-10.419-22.285-20.828-30.769-31.385 14.087-2.84 32.31-9.919 45.043-16.774 3.618 3.837 14.05 15.988 19.055 15.853.294-4.519-9.9-16.258-13.32-20.529-18.876-23.572-37.314-56.485-42.746-86.232-4.209-24.342 6.866-43.824 17.803-64.29 2.156-4.034 12.871-28.176 12.66-31.454l-1.652-.916c-5.194 1.921-12.423 14.851-15.685 19.684-12.132 17.972-27.07 42.712-26.242 65.004 1.033 27.815 24.896 78.635 44.908 97.657l.824.77c-14.565 4.972-32.123 10.472-45.456 17.618-8.725-12.533-20.926-32.572-27.325-45.937 7.797-1.895 35.225-6.656 38.726-13.5l-1.353-1.21c-9.856-1.183-30.575 6.151-40.515 9.427-.664-7.228-3.392-16.373-4.712-23.822-1.487-8.395-1.678-15.05-2.002-23.594 7.28-.014 27.375-.488 32.009-6.03l-.703-1.643c-8.157-3.418-22.467-.149-31.149 1.671 1.107-12.38-1.023-17.965-3.818-30.105 2.415-5.22 4.441-10.286 6.585-15.625 8.052 1.004 29.24 3.412 35.817.272l-.123-1.403c-7.067-4.488-24.224-5.377-33.082-6.167 6.722-12.211 19.332-30.495 30.036-39.228 5.781 1.546 26.565 6.286 30.554 1.086-3.353-4.813-19.751-6.486-25.802-7.453 7.994-9.418 19.029-20.258 29.114-27.294 5.049 2.498 15.413 8.35 19.633 2.509l-.891-2.29c-2.919-3.186-7.802-4.189-12.03-5.514 5.806-5.37 32.906-23.477 32.208-29.607-2.108-.557-6.057.843-7.967 1.883-38.438 20.938-89.857 68.558-106.1 108.686-1.209-6.781-2.135-20.501-2.91-27.922 6.186-5.493 10.071-12.146 6.402-20.443-2.872-1.684-2.44-.986-6.787-.172l-1.266-.901c-1.178-17.927-.155-40.065-1.246-59.609l-13.575-206.81c10.532-1.73 34.189-3.02 45.768-4.024l107.957-8.799a8571 8571 0 0 1 410.55-23.752c42.371-1.415 85.771-1.199 128.249-2.756 19.207-.704 38.686.035 58.007-1.034"/><path d="M732.875 631.902c11.198-1.228 44.432 9.476 57.027 12.028 23.095 5.293 45.549 9.037 68.77 14.183 15.371 3.407 15.002 6.053 13.191 21.444-.849 7.213-1.708 22.027-8.399 25.53-3.516-.722-2.9-1.073-6.003-4.014-5.045 5.954-8.442 34.426-10.262 43.297-.94 4.587-1.905 13.284-6.26 15.761-5.348 3.041-110.951-19.238-123.03-21.971-2.03-.727-6.983-2.705-6.439-5.246 2.822-13.204 9.872-54.974 15.73-65.188 8.416-1.367 69.561 16.787 83.42 18.28 4.107.443 39.836 6.537 43.144 8.225 1.329 2.107 1.48 2.619 3.659 3.947 1.79-3.707 5.224-22.693 7.141-29.034-41.222-7.756-85.785-15.936-125.533-30.411-4.534-1.651-4.642-2.997-6.156-6.831M335.176 778.764c4.76 4.062 9.097 18.754 10.723 25.195 4.162 16.481 6.045 25.688-11.937 31.825-4.292.702-7.019 1.548-11.145.269-7.418-6.214-1.711-19.823.782-27.644 3.021-9.475 6.271-21.274 11.577-29.645m107.373-433.392 2.076.596c6.993 5.585 13.216 33.399 12.669 42.732-.154 2.619-10.875 5.472-13.27 6.209-4.425.896-8.908 1.553-13.09-.305-6.757-7.313 5.466-42.519 11.615-49.232m1114.991.106c1.32.596 3.3 1.525 3.98 2.732 3.18 5.704 12.74 37.764 11.87 42.104-3.09 2.72-6.61 2.958-10.76 3.832-14.19-.631-20.61-2.964-16.53-18.437 2.9-10.997 3.62-21.222 11.44-30.231M290.914 359.424l2.494.705c6.133 4.995 14.134 39.5 11.559 44.712-3.135 2.73-5.941 3.031-10.009 4.055-5.748 1.087-12.931 2.265-14.585-5.231-2.28-10.333 5.697-35.59 10.541-44.241m1427.156 13.015c.31.057 2.24.256 2.58.481 6.75 4.456 13.24 38.522 11.18 43.366-3.7 2.592-6.91 2.173-11.78 2.854-5.46-.539-11.14-.932-14.48-5.622-.73-8.132 6.95-34.174 12.5-41.079m-83.16-10.074c3.56.366 5.61 1.2 6.85 4.718 2.15 6.101 9.78 35.052 8.18 39.728-2.62 2.237-5.98 2.447-9.5 3.136-7.32-.118-11.69.218-16.14-5.99-1.47-8.542 6.36-33.793 10.61-41.592m-1261.81.195c2.718.249 2.789.104 5.245 1.524 4.757 5.863 11.05 34.247 6.969 40.68-3.096 2.664-5.884 2.732-9.969 3.476-26.828 3.469-7.765-33.961-2.245-45.68m335.546 414.776c1.899.77 14.57 7.28 16.56 8.386 1.274 3.084 1.031 1.822.097 5.543-6.419-1.392-13.35-2.58-17.534-7.574-.963-3.648-.853-2.231.877-6.355m43.565 18.706c3.813.009 5.72-.255 9.181 1.523 2.493 3.242 1.971 1.75 2.209 5.601-4.075 1.223-6.352 1.798-10.072-.151-2.043-3.531-1.429-2.331-1.318-6.973"/><path fill="#fefefe" d="M1084.64 350.149c9.53 2.36 46.52 3.004 58.8 3.653 27.35 1.571 54.63 4.115 81.8 7.63 138.05 18.134 251.66 53.374 371.33 126.198 88.66 53.949 152.58 120.065 61.54 214.194-80.6 83.335-219.54 130.307-330.78 155.226-20.92 4.57-41.94 8.652-63.05 12.24-7.36 1.267-32.83 4.148-37.4 8.275-6.16-5.579-49.05-81.381-56.03-93.509-13.44-19.287-30.51-56.572-41.8-77.954-13.62-25.793-27.27-50.411-41.32-75.921 1.51-8.648-.65-47.539-.08-61.036 13 20.739 26.42 40.666 37.25 62.662.91 1.847 2.34 1.628 4.12 1.861l1.06-1.138c.44-4.705-.21-8.162-.83-12.824 10.1-1.82 51.98-9.349 59.46-6.781 1.5 2.241 1.03 1.502.63 4.938-8.61 14.839-47.73 9.719-52.81 20.023 1.19 3.272.17 2.006 3.25 3.843 1.68.124 45.44-5.899 49.05-6.501 40.95-6.811 83.39-15.769 122.7-29.36 11.74-4.059 27.66-12.796 40.97-17.84 17.63-6.681 37.45-16.871 54.07-25.599 2.01-1.057 7.99-7.079 12.04-9.725 1.22.697 5.65 2.858 6.82 2.32 20.01-9.19 114.79-50.59 120.02-70.572-5.39-12.257-71.58-53.008-85.83-55.171-8.7 3.779-16.21 6.537-25.16 9.711-18.22-10.959-45.61-15.65-65.52-27.914-6.34-3.901-45.64-11.987-55.68-14.622-73.53-19.299-152.1-29.549-228.15-30.793-.85-5.496-1.57-10.051-.47-15.514"/><path d="M1579.65 494.072c23.81 7.175 42.48 27.077 57.77 45.559 5.14 6.22 23.11 16.391 23.88 24.838-7.19 12.708-89.7 57.165-107.94 70.271-4.66-2.586-45.24-18.707-46.2-25.044-2.31-15.362-.6-11.673-15.12-20.602-7.67-4.717-18.79-9.903-25.09-15.42-24.04 11.89-74.23 32.538-99.81 41.268a2140 2140 0 0 1 33.6 19.033c6.82-2.081 13.88-5.637 20.63-8.215 17.93-6.85 35.86-13.71 53.57-21.111 4.72-1.973 12.93-5.823 17.71-6.253 9.64 4.445 22.19 25.573 29.91 34.012 3.77 4.124 13.88 14.282 11.78 19.845-5.78 4.414-15.66 8.734-22.46 12.294-26.53 13.885-52.85 24.299-80.6 35.317-8.56 3.665-15.57 5.513-23.37 10.74-8.41-5.452-16.77-10.806-24.95-16.586-18.71 9.694-20.28 13.588-38.55-.823-2.44-1.927-10.13-5.911-13.26-7.659 5.56 14.956 13.74 20.372 19.59 32.226-.26.281-.97 1.12-1.33 1.327-6.85 3.924-19.5 6.629-26.89 9.17-31.05 10.664-124.22 34.677-154.24 30.202-6.9-23.754.02-38.166-9.8-63.282-.49 6.607.48 12.504-6.46 14.44-7.69-7.805-11.43-43.962 1.25-46.695 39.6-8.536 79.93-14.32 119.34-24.087 12-2.976 24.95-5.088 36.16-10.303 11.96 4.382 14.05 12.147 20.17 22.642 9.53-2.982 24.43-11.095 33.84-15.864-.67-5.534-1.15-11.02-3.54-16.046-4.71-2.731-20.47 11.692-27.79 4.764-.82-4.135-1.23-2.936.42-5.887 8.02-5.428 34.33-14.269 45-18.41a3613 3613 0 0 0 65.88-26.679 667 667 0 0 0 32.29-14.769c9.75-4.723 16.96-10.592 27.8-8.725-.8-3.084-.81-2.961-.54-6.123 3.88-4.67 69.59-45.908 77.35-49.365"/><path fill="#fefefe" d="M1502.84 549.56c3.77 5.118 2.84 28.112 3.19 35.963-5.07-2.397-11.15-5.071-16.04-7.621-5.16-2.76-10.45-5.476-15.37-8.636 10.2-4.518 24.39-8.617 28.22-19.706m-194.62 90.522.8.156c3.48 3.449 12.42 17.369 15.63 22.173-12.12 7.7-134.1 30.348-153.44 33.677l-1.58.022c-3.62-1.6-12.89-20.046-15.28-24.465a1402 1402 0 0 0 105.52-19.805c15.79-3.481 33.1-6.913 48.35-11.758m274.98-134.906c7.29.154 26.9 17.297 33.37 22.745-16.1 10.68-49.7 27.799-67.25 35.729-9.89-5.235-24.49-13.114-34.67-16.749 11.24-7.907 24.45-14.482 36.29-21.757 8.53-5.244 23.5-19.046 32.26-19.968m-208.48 133.725c3.22 2.158 15.01 6.932 20.58 10.186 1.99 6.437 10.46 43.131 9.94 48.019-33.24-23.601-33.84-12.271-30.52-58.205m142.57-71.365c7.59 2.894 13.15 4.082 21.28 7.616.45 7.358 7.68 41.387 5.1 44.933-7.55-4.675-19.31-9.759-28.08-14.771.39-11.867.52-26.146 1.7-37.778m-183.79 96.305c6.42.971 32.86 18.413 39.99 22.942l-9.79 5.108-1.73 1.216c-8.54-4.379-27.7-15.946-35.48-21.504 5.74-2.878 3.92-1.401 7.01-7.762m28.04-19.02c1.63.325.85-.034 2.09 1.693.48 6.066 1.94 18.94.11 24.115-2.9-.578-9.4-5.101-12.23-6.902-4.56-2.863-8.31-4.657-13.16-7.015 6.99-3.926 15.93-8.194 23.19-11.891"/><path d="M1557.86 698.609c7.43-.025 14.13 3.241 13.51 11.361-7.63.717-13.82-3.187-13.51-11.361m21.71-4.768c4.04 1.162 6.84 1.525 9.74 4.475 1.22 3.667.97 2.282-.17 6.515-4.28-.383-6.6-.606-9.66-3.609-1.27-4.299-1.11-2.488.09-7.381m-128.96 70.404c3.75.612 6.86 2.226 8.94 5.423.58 4.335.75 2.548-1.15 6.941-3.72-.607-5.32-1.727-7.76-4.414-1.46-4.745-1.32-2.707-.03-7.95m-32.13 4.761a4.88 4.88 0 0 1 4.91-.336 4.9 4.9 0 0 1 2.72 4.111 4.895 4.895 0 0 1-8.97 2.968 4.894 4.894 0 0 1 1.34-6.743m-103.42 23.826a4.79 4.79 0 0 1 4.89-.485 4.8 4.8 0 0 1 2.74 4.081 4.79 4.79 0 0 1-2.31 4.341 4.774 4.774 0 0 1-6.44-1.429 4.78 4.78 0 0 1 1.12-6.508m-43.43-8.101a4.75 4.75 0 0 1 4.85-.129 4.77 4.77 0 0 1 2.44 4.197 4.76 4.76 0 0 1-2.52 4.151 4.753 4.753 0 0 1-6.35-1.804 4.75 4.75 0 0 1 1.58-6.415"/><path fill="#fefefe" d="M1063.21 614.867c.67-.059 1.33-.108 2-.149 2.68-.164 4.76-.16 6.64 2.034 3.73 4.364 9.41 20.673 13.36 27.458 5.85 10.041 12.57 19.543 17.95 29.86 17.75 34.021 123.05 249.808 139.75 262.781 5.61 4.361 8.69-3.536 13.96-4.449 3.54 5.539 7.84 8.916 13.81 3.603 1.04-5.486.76-5.622 5.85-6.986 5.15 1.419 1.95 5.682 7.88 7.106 12.57-3.409 5.65-9.715 16.24-11.634 1.87 4.524 1.08 4.439 4.52 7.183 11.52 1.349 6.85-6.573 10.81-9.562l2.32.392 2.91 4.242c7.45 4.334 11.5-3.249 14.25-8.53 9.63-4.051 10.65 11.445 20.14 2.183.01-2.693-.17-3.58.92-6.094 11.77-6.58 6.9 15.056 22.78-4.04 3.8-1.445 2.36-1.435 6.16-.881 2.02 2.278 2.15 2.608 4.85 3.829 8.97-.941 5.3-6.612 10.3-8.479 6.48-2.425 6.64 5.826 15.68.746 2.41-5.606 2.3-5.581 8.02-6.654 4.29 6.164 9.26 5.643 13.19-.598.99-1.589 1.97-3.189 2.93-4.801 2.75-1.472 2.61-1.385 5.76-1.185 1.8 1.546 2.68 2.237 4.63 3.579 3.41.067 2.45.532 4.9-1.105l.85-5.642 1.97-1.182c3.97-.618 4.45.418 7.85 1.94 7.59 3.396 11.41-7.927 16.72-7.897 6.43 4.528 11.9 4.125 12.83-4.587 3.1-3.294 5.34-2.467 8.59-.354l1.08.71c3.2-.527 3.06-.416 5.39-2.629.61-4.319.07-4.674 4.09-6.328 12.98 4.589 6.68-3.81 15.23-6.41 11.82 12.198 10.71-5.688 18.64-8.309 3.86 1.29 6.08 2.58 9.81 1.307 4.34-2.794 1.87-5.724 5.7-7.889 14.72 5.474 10.81-4.863 16.5-8.313 11.62 3.653 21.61-13.126 32.25-15.414 5.87-1.264 5.48 4.908 13.68-2.814.18-1.191.6-4.63 1.5-5.161 9.49-5.571 19.5-10.4 29.41-15.064 3.56-1.677 3.2-6.612 4.61-9.39.03-.043 7.75-1.493 8.81-2.468 1.38-.629 3.89-7.584 4.78-7.747 7.98-1.458 16.5 3.933 14.89-10.723l1.51-1.698c3.64-.147 4.35-.134 7.74-1.379 3.29-2.814 3.36-4.784 4.41-9.069l.31-1.338c2.27-.101 4.03-.059 6.29.017 5.31-2.372 21.83-24.63 25.75-30.178 1.12-1.597 5.86-3.515 6.24-4.64 1.71-4.977.48-8.028 2.9-13.341l1.55-.508c.51 5.226-.85 18.622-1.35 24.614l-4.65 51.409-13.76 142.285c-2.57 26.751-4.55 56.25-7.61 82.654-46.44-5.96-91.69-9.02-138.35-12.676a7191 7191 0 0 0-295.89-17.082c-41.62-1.727-88.04-2.164-129.13-4.742-65.87.082-133.85-3.722-199.947-3.753-31.022-.015-65.234-3.129-96.028-1.638-5.123-9.564-11.19-18.265-17.236-27.258 17.157 1.701 52.052 3.015 70.017 6.298 2.95.539 1.867 9.794 5.466 12.284 1.51 1.334 4.245 2.626 6.329 2.661 52.462.872 105.069 1.388 157.529-.063 5.37-.148 11.24.326 14.85-3.616 1.39-4.168.24-7.514-.61-11.943 27.61-2.532 56.74-3.355 84.51-6.016 9.62-.922 28-1.328 36.84-3.416 3.35-7.201-6.15-17.466-9.7-23.789-25.74-45.748-53.04-91.185-78.34-137.139.17-4.267 7.58.208 13.05-5.515.01-.772.07-1.101-.22-1.906-.6-1.664-2.2-3.168-3.85-3.663-4.63-1.391-48.43 1.979-57.14 2.245-35.9 1.096-72.05 1.894-107.963.849-21.811-.635-43.572-2.676-65.321-3.286-7.008-.197-27.11-2.964-32.037-.015l-.579 2.48c1.311 4.395 1.071 3.222 4.713 6.707-5.482 10.141-12.106 20.485-17.803 30.737l-55.892 100.698c-5.179-4.374-9.514-8.377-14.406-13.013 2.393-4.953 8.26-14.163 11.305-19.491a3332 3332 0 0 0 19.384-34.946c22.876-41.602 44.61-83.068 68.663-124.099 18.704-31.907 34.666-66.688 53.694-98.543 3.363.06 5.994-.07 9.272.745 3.374 6.279-8.972 14.005-7.261 23.75 2.898 1.95 1.367 1.622 4.716 1.16 7.37-5.356 11.308-17.323 17.316-25.598 9.905 1.616 19.593.527 29.769 1.965 1.62 2.326-2.005 20.733-.749 27.934 1.809 2.861 2.629 4.312 6.109 3.245 5.1-5.73 5.01-23.221 5.62-31.616 9.57-.079 32.9.366 40.78-2.275 3.24 8.11 5.41 24.368 13.13 28.109 3.61-1.145 2.71-.308 4.77-2.917-.49-6.816-4.83-16.158-6.2-24.85z"/><path d="M983.425 689.529c27.875-2.475 67.185 1.94 96.045 1.168 11.08-.296 9.72 31.915 11.66 39.779.88 3.548 3.8 18.047 3.28 21.171-7.13 4.903-55.51 4.234-67.66 4.358-13.17.398-101.622 1.356-107.006-3.706-2.144-10.397 8.147-46.49 10.241-58.902 1.042-6.173 46.641-2.677 53.44-3.868"/><path d="M1057.65 653.435c4.57-.916 22.09-.945 26.7.389 6.6 6.627 14.6 35.778 17.61 45.579 4.58 3.823 6.31 4.87 4.78 10.813-2.73 2.407-1.39 1.873-4.91 2.201-10.89-3.619-16.66-38.077-24.3-49.83-12.5 2.393-29.04 1.655-42 2.184-29.01 1.185-56.624.893-85.587-.207q-4.913-.171-9.824-.422c-4.682 6.589-9.406 15.058-13.634 22.095-4.461 7.425-10.09 32.166-20.015 33.029-2.692-2.59-3.44-6.062-1.666-9.627 8.501-17.074 15.983-34.227 24.625-51.236 3.489-6.867 35.181-2.692 41.825-3.543 28.294-.567 58.316 1.648 86.396-1.425m479.55 243.14c18.11.598 14.92 3.376 19.14 19.827 2.61 10.178 5.16 20.143 6.58 30.605l-1.27 1.628c-4.15 1.735-7.64 1.433-12.17 1.533-6.9-.004-20.23.428-24.36-5.653 1.15-8.732 4.87-17.71 7.05-26.308 1.82-7.175 3.36-14.415 5.03-21.632m154.57-92.511c4.76.12 10.06-.292 13.69 2.664 1.13 6.434 9.81 45.588 8.45 48.572-3.74 2.122-6.83 1.797-11.2 1.954-5.33.059-15.41.89-19.13-2.634-1.25-1.186-2.76-1.893-2.53-4.097 1.53-14.816 7.44-29.268 8.74-44.201zm-69.62 49.987c5.02-.309 8.54-1.126 12.71 1.515 3.41 6.449 13.93 39.104 12.18 45.67-2.22 2.19-4.74 2.169-7.96 2.718-34.17 5.417-25.26-9.636-20.14-33.354 1.16-5.392 1.84-11.06 3.21-16.549m-146.28 76.762a4.82 4.82 0 0 1 5.03-1.012 4.84 4.84 0 0 1 3.1 4.088 4.84 4.84 0 0 1-2.34 4.57 4.825 4.825 0 0 1-5.79-7.646m209.45 3.949a4.82 4.82 0 0 1 6.55 1.055 4.824 4.824 0 0 1-.71 6.593 4.82 4.82 0 0 1-4.9.806 4.83 4.83 0 0 1-3.01-3.945c-.19-1.77.6-3.504 2.07-4.509m-15.59.61c3.57 1.46 4.56 1.521 6.74 4.467.27 4.243.45 2.586-1.99 7.022-3.34-1.699-4.23-1.984-6.52-4.888-.44-4.034-.54-2.515 1.77-6.601"/><path fill="#fefefe" d="M955.017 342.963c5.697-.106 8.855.069 14.535.634-3.63 44.117-10.039 90.566-12.305 134.826-25.457 1.255-148.785 13.881-166.645 28.081-1.726 1.373-1.876 1.646-2.11 3.794 1.976 1.304 4.128 2.074 6.586 1.488 25.837-6.008 52.451-12.156 78.833-15.156 23.29-2.648 47.497-6.616 70.871-7.436 89.828-3.15 185.608-3.853 271.838 23.753 3.09.991 5.2 4.2 6 7.123-2 6.986-13.92 9.846-20.88 12.334a419 419 0 0 1-55.61 15.518c-17.32 3.592-34.88 6.262-52.28 9.438-10.34 1.885-13.58 1.735-14.68 13.372l-.09 1.019c-.64 11.184-1.52 21.028-.08 32.237l-10.57 3.134c4.55-30.498-.72-57.614-23.52-80.228-22.63-22.45-45.725-23.796-67.827.052-20.508 22.127-23.569 43.448-22.796 72.525-29.167-13.263-1.997-13.648-18.083-41.315-45.498-4.007-95.259-13.691-134.618-36.558-17.013-9.885-23.164-11.293-36.956-26.586 35.891-15.098 86.987-20.966 125.325-29.413 6.568-1.447 58.061-.613 52.1-14.001-6.396-3.662-19.322-1.077-27.4-.435-.202-3.83.032-8.608.114-12.515l6.416-.276c25.824-1.151 26.432.829 27.506-28.087.495-13.356 8.449-57.774 6.326-67.322"/><path d="M931.085 511.47a4.413 4.413 0 1 1 4.179 7.773 4.413 4.413 0 0 1-4.179-7.773m143.495 1.329a4.3 4.3 0 0 1 5.94 1.128 4.296 4.296 0 0 1-5.37 6.318 4.295 4.295 0 0 1-.57-7.446"/><path fill="#fefefe" d="M1042.63 343.339c2.99-.403 3.2-.54 5.94.48 2 6.597 4.85 31.198 6.07 39.726 4.52 31.634 9.65 62.646 12.13 94.505-23.51-1.499-50.51-3.015-73.932-.859-9.367-.031-17.487-.132-26.829.709 4.625-44.212 7.776-88.91 12.193-133.339 19.496 1.01 45.338 1.315 64.428-1.222M706.709 652.925c.804 5.898-7.925 40.893-10.052 47.583-10.668 33.545-18.004 56.408-49.92 74.298-3.059-3.135-4.585-5.59-8.986-5.497-1.922 4.104 7.437 48.531 9.134 55.583-57.37-28.803-133.804-50.398-198.439-36.385-4.151.9-8.47 2.091-12.602 3.156-6.555 1.88-13.209 4.19-19.698 6.344-1.57-13.511-1.979-32.692-3.096-47.268 7.513 5.067 14.454 9.682 22.734 13.712 36.712 17.871 92.973 17.39 131.11 4.977 33.317-10.844 68.209-34.775 87.95-63.971 6.27-9.273 14.021-25.854 19.032-36.36 14.208-4.117 21.569-6.165 32.833-16.172m235.868 191.932c26.731.454 52.071 2.032 79.233 1.453 8.15-.173 41.49-.752 46.98.02.8.765 13.87 40.826 16.26 46.603l-17.3.286c-46.96.047-91.692.607-138.78-.689 5.594-17.039 8.748-30.872 13.607-47.673m-50.57-68.993c11.897.916 23.965 1.897 35.875 2.305 8.14.279 14.46-.448 22.748.531-8.169 19.78-12.311 39.9-18.542 60.304-2.375 7.78-5.103 20.114-8.948 26.898-2.441 1.425-2.485.781-6.062.347-21.699-3.202-43.451-5.705-65.252-8.979 13.599-21.448 30.055-57.75 40.181-81.406m413.233-251.61c6.65.779 20.31 4.861 27.38 6.661a736 736 0 0 0 33.35 7.366c-55.75 33.367-134.46 50.362-197.41 64.255-15.1 2.212-28.73 4.847-44.22 6.772-3.17-6.24-5.68-9.977-9.54-15.699 48.95-8.145 94.73-17.345 140.76-36.373 15.08-6.232 43.08-17.677 49.68-32.982m-192.11 253.232c2.36.404 6 .016 8.49-.136 5.59 19.08 30.99 65.638 41.75 83.374-14.25 1.944-32.46 1.841-47.61 3.331-8.66.09-16.97.874-25.59 1.586-8.56-23.091-17.87-61.758-24.99-86.204 15.57-.837 32.94.132 47.95-1.951m-43.75-436.892 2.39-.1c6.12 10.792 5.94 93.032 16.61 99.843 12.81-2.972.42-10.451 25.92-5.199.8 7.281 1.3 10.415 3.24 17.454-7.45-.244-27.37-5.265-28.06 4.407 1.58 2.496 3.93 4.768 6.98 4.969 17.95 1.179 131.5 16.259 142.39 27.516 4.12 5.968 4.67 9.992 6.09 16.958-4.3 4.548-6.58 6.085-11.74 9.75-1.15-1.845-4.24-6.901-6.07-7.939-30.92-17.557-78.01-22.343-113.17-26.442-9.45-1.102-28.97-1.055-35.68-3.866-2.39-5.487-20.32-131.149-18.63-135.589 2.45-2.08 6.23-1.644 9.73-1.762m95.54 529.888 2.29-.001c6.88 8.081 26.81 45.828 33.3 57.069-7.95-.497-26.12 1.783-34.82 2.463-12.19.954-26.08 1.441-37.98 2.871-6.09.109-25.81 2.63-29.14.04.48-9.379-1.46-26.148-.37-36.267.09-.887-4.8-18.436-5.46-21.635 21.98-.552 50.69-2.239 72.18-4.54m-318.155-3.378c4.52-.292 18.303 2.455 23.699 3.292l49.519 7.459c-7.472 28.292-4.367 29.94-6.257 57.912-4.333-1.08-9.35-1.889-13.792-2.702-22.11-.403-44.816-2.856-67.199-3.587l-12.14-12.283c8.887-15.843 16.858-35.301 26.17-50.091m446.765-463.775c14.73 2.59 62.94 14.278 78.65 21.062 2.32 1.001 3.22 14.939 2.98 18.823-2.1 33.611-19.19 54.584-41.27 76.468-17.34-2.86-39.39-11.306-57.09-16.049-2.83-1.018-6.2-1.661-7.85-3.644 7.73-6.627 21.48-19.741 30.36-25.103 1.08-.649 1.62.054 3.04.807.78 4.478 1.06 6.164 5.53 7.891 7.23 2.791 14.91 5.153 22.22 7.766 10.34-9.925 17.76-23.55 21.71-37.26 3.66-11.776-3.52-15.153-13.49-17.926-18.93-5.264-38.67-9.194-57.86-13.211 5.14-2.876 9.96-5.894 14.95-9-1.12-3.898-2.21-6.59-1.88-10.624"/><path fill="#fefefe" d="M1382.06 428.369c12.36 3.145 29.48 10.39 43.88 14.356-21.25 8.775-32.67 11.006-46.26 29.226 4.89 3.454 6.43 4.658 11.98 6.782.29 8.123 1.79 26.216-1.18 32.698-6.11 1.808-21.08-8.017-25.5-2.696l.55 2.431c3.37 3.223 28.5 12.575 34.11 14.818.85-10.568 1.24-21.609 1.77-32.233 5.78 3.728 11.84 7.353 17.69 11.047-.14 11.692-1.85 27.361-1.43 38.226-26.76-8.287-47.49-13.21-74.77-19.604 25.33-28.828 45.21-53.369 39.16-95.051M474.327 798.545c49.755-5.646 115.998 15.459 161.692 34.56 3.902 1.631 10.939 3.572 13.549 6.514l-.357 1.83c-5.075-.175-17.661-5.086-23.976-6.719a1064 1064 0 0 0-51.472-11.557c-34.532-7.517-91.234-11.991-127.047-7.553-14.411 1.786-38.913 8.005-55.347 10.673 19.992-18.875 56.052-26.259 82.958-27.748m202.635-216.477c11.604-.631 20.069 6.15 24.892 16.046 13.048 26.771 8.422 43.44-16.147 57.141-4.538 1.76-10.691 3.6-15.423 5.173a96 96 0 0 1-2.505-3.764 61.28 61.28 0 0 1-7.672-46.425c2.489-10.758 7.203-22.105 16.855-28.171m332.278 197.076a427 427 0 0 0 46.89.6c1.42 1.998 2.54 15.405 3.24 19.666a325 325 0 0 0 7.82 35.314q-28.545.336-57.09.23c-.25-13.964 1.79-43.966-.86-55.81m-53.272-.017c10.4-.679 33.557.881 45.712.824-.96 17.8-1.09 35.635-.39 53.447-3.374 2.142-3.717 1.492-8.04 1.668-15.965.765-32.308.144-48.312-.225 3.038-14.68 10.705-36.408 12.632-51.819z"/><path fill="#fefefe" d="M1461.48 438.059c11.51 5.475 24.8 14.158 38.7 20.794-10.38 8.247-56.64 23.287-71.89 28.566l-1.8 1.19c-3.89-1.01-28.26-16.727-32.68-19.865l.2-.967c10.5-7.961 53.63-24.242 67.47-29.718m237.84 231.464c11.93 5.483 32.44 10.131 45.56 13.264-5.35 14.479-14.57 25.457-24.05 37.415-1.56.036-39.95-15.885-44.38-17.682 7.15-10.538 15.55-22.463 22.87-32.997m48.9-43.923c3.19.299 2.6-.202 4.93 1.4 2.91 9.001-1.28 37.609-2.79 47.912-8.75-1.539-23.52-5.347-31.85-8.184l-16.09-4.277c5.56-13.479 8.85-22.389 12.37-36.502 10.92.095 22.62.429 33.43-.349m-114.45 117.115c5.2.347 31.14 16.682 37.62 20.428-8.27 9.019-28.24 20.254-38.94 26.607l-2.8 1.705c-5.56-.521-25.43-18.127-32.11-22.988 11.94-9.623 23.88-14.588 36.23-25.752m36.78-34.282c14.71 6.034 30.75 12.294 45.05 18.962a424 424 0 0 1-29.71 25.368c-5.43 4.433-5.02 5.305-11.31 1.901-11.02-5.975-22.01-12.059-32.99-18.122 10.21-7.997 21.5-17.546 28.96-28.109m74-139.264 1.46.337c3.88 5.186 8.36 14.024 11.58 19.929a430 430 0 0 1-2.52 27.744q-15.15.115-30.3.523c-1.18-.072-8.44-.606-8.23-1.647.81-3.907-6.44-36.864-6.4-37.106 5.82-2.865 24.66-6.193 34.41-9.78m-561.43-187.586c31.14 4.441 64.56 9.95 95.23 13.917-9.35 7.155-14.9 11.154-25.32 16.288-1.39.721-3 1.225-4.58.91-28.14-5.585-55.56-10.29-84.03-13.783 1.48-.68 3.37-1.552 5.68-2.617 4.65.034 6.75 2.002 10.99.022 1.89-3.588 1.79-10.394 2.03-14.737m404.79 392.174c7.14 1.644 24.55 18.074 31.93 23.905-12.12 5.791-25.16 14.896-39.44 21.778l-1.2.061c-8.16-8.104-20.31-16.973-29.53-24.803 11.21-6.982 25.89-13.505 38.24-20.941m-48.2 25.136c6.04 1.996 26.39 20.094 31.14 25.322-10.88 6.512-24.74 12.296-36.47 18.064l-2.23.07c-8.33-7.239-20.04-19.398-27.46-27.684 10.74-5.258 23.76-10.514 35.02-15.772m-137.36 51.205c4.62.696 22.99 23.087 27.08 28.156-8.45 4.014-27.35 8.82-36.6 11.105-3.08.758-3.77.676-6.99.662-2.83-1.454-18.65-25.624-21.31-29.791 11.66-3.531 25.76-6.815 37.82-10.132m-48.73 13.03c4.83-.201 18.85 25.222 21.75 30.237-11.91 3.948-27.32 6.651-39.86 9.381l-.99.011c-3.99-2.569-18.25-25.528-21.01-30.389 10.24-3.193 28.83-6.602 40.11-9.24m96.64-28.879c9.89 8.834 20.57 18.224 28.83 28.614a727 727 0 0 1-37.25 12.399l-4.59.729c-3.13-1.426-12.67-16.989-16.4-20.766-2.9-2.941-5.39-5.36-8.65-8.204a984 984 0 0 0 38.06-12.772m-147.83 40.134c5.4.135 17.57 25.718 19.22 31.602-13.14 2.581-24.1 5.148-37.57 7.24l-2.5.353c-2.76-1.876-14.98-28.542-17.07-33.228 8.61-2.513 28.2-4.599 37.92-5.967M935.962 376.462c3.745-.335 2.812-.813 5.499.79 2.332 5.062.459 12.726-.303 18.552-13.912-3.512-39.485.177-54.359-.223-8.172-.219-17.11 3.717-24.407-.56-3.988-2.613-12.673-7.182-13.187-11.793 8.72-4.154 72.461-6.132 86.757-6.766m150.888-2.404c24.37 1.222 62.66 2.345 86.04 6.047l-12.88 8.676c-5.26 2.546-12.01 7.05-17.1 10.242-14.72-3.413-38.57-3.411-54.46-3.923-.69-6.356-1.89-14.836-1.6-21.042m407.76 444.88c5.92.904 23.12 21.254 28.61 27.126-8.31 5.155-23.37 9.964-32.98 12.909-6.11-2.143-24.35-21.835-29.32-27.517 11.27-4.077 22.49-8.25 33.69-12.518m218.51-291.864c12.29 9.505 20.08 22.018 28.66 34.688l-26.29 7.443-9.77 3.029c-5.77-9.782-10.53-17.944-18.25-26.431 7.17-6.639 17.44-13.23 25.65-18.729m-931.284-3.717q23.565 11.55 47.339 22.668c-3.147 6.808-7.633 13.112-11.796 19.376-5.308-1.481-18.515-4.406-20.721-9.044 3.875-4.098 10.933-11.906 10.037-17.861l-1.785-.434c-7.514 3.491-11.268 10.49-16.032 17.294-8.529-2.875-14.578-5.004-22.025-10.068 6.279-6.932 12.797-12.869 14.983-21.931m897.534-26.747c10.26 7.433 19.33 15.731 28.79 24.123a804 804 0 0 0-24.57 18.023c-.93-.164-24.05-21.142-27.16-23.684 6.43-6.2 15.65-12.359 22.94-18.462M846.748 393.945c5.593 3.136 9.722 2.961 13.267 5.26l-1.951 2.064.114 1.572c7.339 7.917 13.527 10.076 23.21 14.753-17.001 3.521-35.36 6.649-52.555 10.003-4.507.361-6.762 1.229-10.985 2.573-3.141-2.038-14.346-8.692-15.876-11.27l.802-1.088c7.686.123 40.321-6.395 48.407-9.402 1.877-4.618-1.638-5.304-4.266-8.856zm797.232 78.721c8.14 3.854 21.68 13.49 28.17 19.531-7.67 6.447-13.48 11.054-21.65 16.826l-1.69.396c-7.08-3.757-18.2-12.643-25.08-17.825 6.82-6.655 13.03-12.702 20.25-18.928m-345.77 108.358c1.42-.342 1.67-.145 3.2-.024l1.48 1.972c.39 4.005.85 5.688-.37 9.551-6.8 5.595-46.53 15.471-57.28 18.273-1.19.195-1.85.037-3.09-.052-1.62-3.888-.66-8.246-.24-12.625 15.97-6.418 38.43-10.824 56.3-17.095m275.36-148.663c5.76 1.396 25.88 12.925 32.22 16.4-5.22 6.181-10.38 12.42-15.46 18.718l-.82.762c-4.88.481-23.17-11.609-28.77-14.997 5.36-7.521 9.1-12.354 12.83-20.883M1138.21 559.3c1.82-.414 1.58-.214 3.55.019 4.22 5.898 7.1 12.185 10.08 18.764-12.73 2.134-25.21 5.153-38.07 6.392-.52-.021-1.96-.499-2.53-.666-3.29-4.167-7.71-13.331-10.32-18.345 10.22-.937 26.72-4.321 37.29-6.164m110.8 323.257c2.58.27 3.81.151 6.42-.013 4.51 5.037 12.26 25.426 15.06 32.32l-17.26 3.056-3.15.118c-3.89-2.372-18.16-29.578-17.53-34.25a407 407 0 0 0 16.46-1.231m15.98-372.802c9.44 4.391 22.66 8.299 32.86 11.653-7.08 7.242-15.78 12.134-24.45 17.195-.53.178-3.53.822-3.79.677-9.24-5.186-17.21-11.298-26.78-16.052zm238.73-111.992 30.03 13.127c-3.96 7.574-7.8 15.21-11.51 22.904-4.52-1.083-21.53-9.911-29.65-12.66 4.5-8.371 7.38-14.627 11.13-23.371m-232.39 65.23c5.62 1.621 14.91 3.516 19.68 6.175-9.88 7.177-19.94 17.455-30.06 25.321-2.23.874-5.98 1.889-8.39 2.626-3.06-7.298-4.96-10.755-9.65-17.064 10.62-7.52 16.97-11.342 28.42-17.058m195.91-79.638a666 666 0 0 1 30.68 12.028c-4.17 6.482-7.72 14.206-10.9 21.242-4.43.873-23.87-7.892-29.15-10.034 3.28-8.567 6.44-13.726 9.37-23.236M740.304 577.516c11.819 6.27 25.779 12.644 38.46 16.875.315 6.038.317 12.369.414 18.434a1298 1298 0 0 1-38.171-11.157c-.081-7.889-.459-16.233-.703-24.152m625.156-25.591c.38.08 1.21.755 1.6 1.03-.36 4.494.09 9.139.37 13.668-7.53 5.291-33.14 14.389-42.91 19.179-2.67 1.309-3.34 1.181-5.33.212l-7.65-10.077c19.98-7.51 34.87-14.659 53.92-24.012m174.7-136.888c10.49 3.936 18.81 8.805 28.58 14.213a725 725 0 0 0-14.14 20.234c-2.01.269-23.57-10.974-27.12-12.717 4.58-5.599 9.18-15.12 12.68-21.73M823.024 608.796c4.474.11 9.264.963 13.688 1.714 17.117 2.908 34.233 3.962 51.544 5.108-.316 4.196-.688 7.031-1.378 11.169l-1.557.794c-10.178-.263-53.544-3.886-61.28-8.917-1.037-3.419-.902-6.297-1.017-9.868M1155.57 405.77c6.17-.343 34.7 5.28 42.68 6.68l-.27 16.598c-3.96-1.006-8.68-1.88-12.74-2.726-15.78-3.231-30.94-7.826-46.94-9.894 7.16-3.886 10.58-5.966 17.27-10.658m197.41-56.186c11.22 3.028 22.68 5.46 34.04 7.976-2.7 7.143-4.95 13.973-7.31 21.215-3.67 1.145-26.5-5.526-31.59-6.878 2.17-5.837 3.75-15.916 4.86-22.313m-84.03 79.325c5 2.502 25.49 5.396 33.48 8.198-.22 6.409-.15 13.262-.2 19.71l-10.99-4.22c-12.26-4.258-25.1-7.14-37.81-11.595 4.88-5.518 9.44-8.21 15.52-12.093m342.41 23.737c9.58 4.724 17.06 8.52 25.41 15.216-5.93 5.876-11.99 12.382-17.81 18.424l-1.34.381c-7.99-4.574-14.41-8.763-22.07-13.889 3.99-6.062 10.81-12.926 15.81-20.132m-375.97 74.053 8.49 5.886c6.33 3.801 12.96 7.937 19.41 11.458-6.51 3.679-29.04 12.48-36.2 13.041 1.22-6.222-6.8-14.671-10.83-19.247 7.06-4.593 11.67-7.263 19.13-11.138m-35.67-200.333a618 618 0 0 0 33.77 4.555c-1.76 6.212-2.9 14.684-3.97 21.208-10.28-1.382-21.53-2.085-32.1-3.34.66-7.485 1.42-14.96 2.3-22.423m193.15 33.537 31.99 9.798-7.7 19.617c-.52.536-1.35.772-2.13 1.118-6.62-1.834-21.78-5.692-26.92-9.187zm-153.94-29.06c11.43 1.685 21.96 2.746 33.65 4.702-2.07 6.288-3.69 14.514-5.18 21.096-2.24.921-26.71-3.053-30.72-3.646 1.74-7.25 2.5-14.7 2.25-22.152m39.2 5.162c11.28 2.333 21.85 3.252 33.58 6.094-3.14 7.71-3.91 11.673-5.62 19.677l-.47.424c-2.96 1.077-26.61-4.022-31.24-4.913 1.5-6.07 2.7-14.926 3.75-21.282m-605.602 14.224 1.255.088c2.285 2.058 6.775 15.947 8.168 19.788-10.354 2.066-19.434 4.024-29.647 6.663l-2.474-.132c-2.523-4.681-5.343-14.519-7.073-19.921 10.149-2.645 19.464-4.479 29.771-6.486m759.042 21.314 29.82 9.947-9.56 19.088c-1.25 1.575-.77 1.012-2.82 1.943-7.2-1.975-17.87-6.485-24.76-9.509 3.26-8.111 5.23-12.9 7.32-21.469m-254.26 178.682 3.18.04c2.33 1.511 9.56 14.86 12.02 18.695-8.46 2.315-18.6 4.273-27.29 6.14l-2.69.504c-4.62-2.123-9.62-13.944-12.03-18.838 8.96-2.061 17.9-4.241 26.81-6.541m-16.41-111.017c24.67 5.795 33.75-3.029 33.59 25.39-4.18.959-28.14-3.246-33.14-4.929-1.07-2.912-.5-16.495-.45-20.461M863.621 325.424c2.923-.195 1.747-.634 3.793.808 1.651 5.011 1.618 12.871 1.859 18.354-7.901 1.592-21.214 2.138-29.995 3.183l-1.678-.13c-1.549-1.731-3.387-15.377-4.322-19.567 9.069-1.47 20.953-1.997 30.343-2.648m297.139-1.697c8.05 1.481 22.82 2.122 31.2 2.431-1.77 7.304-1.89 14.216-2.29 21.69-3.84.239-24.82-1.886-30.81-2.212.07-8.233.84-13.786 1.9-21.909m-41.57-1.507c7.57-.283 25.32.832 32.81 1.956-.04 5.19.58 16.779-2.34 20.395-29.61-1.048-27.51 5.255-30.47-22.351m-189.747 83.272c3.717.288 5.451-1.039 8.635 1.062 1.773 4.524.155 10.334-.426 15.989-9.31 1.564-14.318 1.977-23.705 2.507-2.453-3.206-4.387-4.637-7.436-7.172-7.024-4.556-8.945-4.249-16.379-10.734 10.838-.467 29.697-.368 39.311-1.652m-180.655-68.107c1.189-.222 1.703-.037 2.96.086 1.003 1.752 2.794 17.38 3.406 20.971a612 612 0 0 0-26.995 3.665l-1.422-.83c-2.428-4.689-4.227-14.339-5.477-19.822 9.06-1.191 18.455-2.726 27.528-4.07m567.812 5.494c11.44 1.753 18.82 2.4 29.96 5.826l-5.62 20.54c-3.39-.142-22.06-3.949-27.84-4.744 1.37-6.426 3.66-15.271 3.5-21.622m-604.337.469 1.439.682 4.659 19.584c-8.344 1.102-19.914 3.693-28.313 5.368-2.417-5.945-4.868-13.972-7.45-20.542 8.978-1.952 20.432-3.557 29.665-5.092m66.794-9.954c2.048-.326 6.819-.511 9.099-.672 1.938 6.896 3.261 11.82 4.559 18.938-7.902 2.044-13.954 2.716-21.942 3.44-1.301.022-6.645.907-8.243 1.134-.55-5.232-3.89-16.221-2.538-19.687 3.802-2.096 14.206-2.642 19.065-3.153m97.086-8.685c7.589.281 25.397-2.58 29.572-.508 3.175 4.779 2.693 12.677 2.959 18.727-9.446.028-20.824.85-30.396 1.296zm-119.692 98.065c-2.818-4.178-5.029-2.68-8.274-9.168l.997.602 1.131-.413c1.807.789 5.06 3.557 6.785 4.9 8.217 5.4 15.724 11.53 23.446 17.615-6.733 2.283-20.251 7.269-26.629 8.717a889 889 0 0 1-17.512-12.958c4.873-2.282 16.793-6.861 20.056-9.295m327.809-100.819q14.385-.084 28.77.349c.04 5.305.44 16.527-1.46 21.211-10.44-2.94-20.5.991-25.68-2.266-1.92-4.012-1.47-14.297-1.63-19.294m-266.689 7.449c4.251-.457 3.883-1.058 7.3.38 2.814 4.552 3.309 12.865 4.247 18.642-6.789.444-13.694 1.401-20.458 2.237l-7.913 1.034c-1.515-7.276-2.35-13.257-3.297-20.564zm97.66-5.921c8.769-.719 21.82-.534 30.91-.677-.026 3.771.251 15.853-1.408 18.068-8.452.085-19.016.929-27.682 1.344-.442-4.985-.717-13.087-2.388-17.566zM902.13 426.135c.927.047.843.251 1.854.913.522 8.448.271 18.789.256 27.415-6.044.952-11.976 1.495-18.056 2.1-1.818-1.846-1.924-19.412-3.137-25.486zm-66.1 121.492c8.79 2.175 17.091 4.09 25.652 7.076l-8.252 15.577-1.674.255c-5.922.275-19.558-2.712-25.561-4.08 4.41-6.536 8.221-11.152 9.835-18.828m254.6-144.628c12.4 1.74 26.69 2.406 39.32 3.266l-11.46 7.893c-3.21 2.426-3.24 5.71-6.72 9.352-3.7 1.07-14.34-1.105-18.76-1.782zm33.58 31.879c6.99.187 20 2.298 27.64 3.143-.84 6.768-1.76 11.866.76 18.243-23.25-1.598-28.87 3.767-28.4-21.386m65.77 113.468.82-1.738 17.44-5.976c4.36 6.164 11 14.841 18.85 16.452-4.61 3.01-20.12 7.508-26.45 9.795-3.61-6.146-7.16-12.324-10.66-18.533m121.81-109.694c8.3 2.432 23.25 6.301 30.38 9.968-2.64 2.179-5.31 4.68-7.86 6.979-3.96 3.151-3.99 4.895-7.39 7.994-17.88-.843-14.96-11.735-15.13-24.941m191.87 22.817c4.89 2.625 26.63 17.762 30.17 21.536-.52 2.937-.82 2.326-3.65 4.879l-8.77 5.521c-6.56-6.804-11.58-11.585-18.69-17.82zm-265.22-7.416c9.36 1.663 13.57 2.295 22.72 5.267-6.26 3.638-12.38 7.5-18.35 11.577-13.39 10.341-18.11-.234-13.85-12.792l1.67 2.744c3.29-1.584 5.26-4.12 7.81-6.796M868.988 556.868c8.535 2.48 17.824 3.593 26.648 4.919-1.914 4.415-2.938 8.24-6.608 10.752-9.135 1.27-18.709.411-27.796-.892zm334.122-108.796c17.7-.859 13.86 7.308 14.36 22.293-5.25-1.756-8.47-.471-12.53-3.62-3.27-4.295-2-12.712-1.83-18.673m4.95-34.372c6.62 1.516 17.88 3.694 23.71 6.374l-.06 1.359c-1.73 1.089-2.27 1.017-4.29 1.522-6.33 4.127-12.68 6.758-19.54 9.84-.33-5.892.03-13.101.18-19.095m12.66 190.237.85 1.197c.73 9.499-.73 10.323-9.29 12.287l-.94-1.247c-.81-8.554 2.05-9.284 9.38-12.237m60.98-196.163c.47.354 1.64 1.759 2.09 2.26-.69 3.25-.78 1.671-4.4 4.419-4.52 3.433.03 2.75-.82 7.454l-1.78-.629c-2.9-.544-4.3-.554-6.71-2.145l-.28-2.055c2.06-3.426 8.27-6.916 11.9-9.304m25.9 65.442c4.15-.466 17.24 3.334 21.72 4.547l.04 1.949c-.98.556-2.25 1.091-3.29 1.571-6.88-1.46-11.48-2.819-17.82-5.993z"/></svg>