<svg xmlns="http://www.w3.org/2000/svg" preserveAspectRatio="none" style="display:block" viewBox="0 0 2048 1152"><path fill="#fefefe" d="M0 0h2048v1152H0z"/><path d="M989.567 133.276c18.513-3.214 28.133 15.999 34.783 29.69 20.38.013 39.56 2.736 60.66.408 8.64-.953 23.14 2.157 32.68 1.614 21.41-1.218 42.66-1.124 64.05.218 11.33.712 24.01-1.156 35.55-.554 10.98-.507 24.92 2.955 35.59 2.225 31.72-2.171 62.69.611 94.19 1.523 27.85.807 55.25-2.27 83.3.248 10.34.928 23.26-1.331 33.79-.561 13.43.548 26.75 1.6 40.17 1.933 13.23.599 28.74-2.12 41.74-1.127 25.26 1.931 48.87 2.108 74.12.554 11.01.008 22.89 2.058 33.81 1.906 37.99-.529 75.61-1.454 113.59.466 8.97.453 28.98-.764 37.83-1.669 34.66-3.544 56.78 12.137 81.43 34.153 16.14 14.308 27.05 35.197 26.4 57.28-1.59 54.462-5.48 109.365-9.69 163.686-5.52 71.137-10.19 142.165-17.93 213.106-2.47 22.657-2.45 45.886-5.82 68.545-5.43 41.479-12.9 82.104-19.12 123.439-2.33 15.463-7.05 33.332-8.91 48.387-1.27 10.293-1.1 29.655-1.32 40.752l-1.84 63.571c-.42 14.216-.61 27.681-3.18 42.071-5.44 30.37-32.72 65.15-63.94 71.02-16.68 2.22-34.76-.63-51.52-2.22-18.5-1.76-33.59-2.53-52.08-1.81-129.13 5.64-258.34 9.13-387.58 10.48-23.64.05-46.52-2.43-70.49-1.71-51.38 1.54-102.64-3.38-154.08-1.61-22.37-1.44-45.99-.28-68.245-1.12-74.552-2.79-149.628-.08-224.227-.99-47.247-.55-94.913-3.71-142.147-3.82-69.199-.16-138.443-1.16-207.626-.65-18.57.13-36.92-.54-55.65-.29-25.537.34-51.862 2.97-77.047-1.32-14.369-2.75-49.777-25.73-60.444-35.52a100.8 100.8 0 0 1-17.279-20.75c-.819-8.41.132-19.06-.552-27.81-.119-9.346-2.718-20.305-2.467-29.551.619-22.752-1.674-44.417-3.701-66.992-.961-10.707.716-23.067.039-34.006-.667-10.791-3.111-21.495-3.674-32.162l-10.481-227.808-14.556-259.091c-.65-10.769-2.852-21.853-3.414-32.739-.944-12.45.409-26.984-.936-39.167-3.236-29.328-7.287-53.746 6.269-81.527 10.718-21.965 24.694-35.611 48.848-42.765 22.57-7.201 45.326-2.033 68.042-2.532 24.272-.534 47.676-.953 72.011.718 10.184.699 22.299-1.217 32.485-.367 22.404 1.87 44.016 1.776 66.438.724 9.41-.395 20.723 1.89 30.451 1.753 13.749-.193 27.503-1.409 41.211-1.279l308.269 2.906c24.66.44 48.517 1.579 73.352-.085 14.102-.945 45.824 3.861 58.274-.673l-.486-1.589c-8.478-8.936-25.445-6.529-28.339-15.771 1.256-5.415 5.093-7.392 9.57-10.338 12.944 1.323 17.128.918 29.829-1.403"/><path fill="#fefefe" d="M266.199 227.961c11.677-.278 24.583 2.724 35.603 2.289 25.085-.989 48.386-1.393 73.463.614 13.002 1.041 29.702-2.259 43.112-1.642 22.701 1.046 45.135 1.162 67.817-.084 9.546-.66 21.371 1.66 30.644.922 22.087-1.756 43.31.724 65.094 1.016 20.826.279 41.359-2.791 62.443.316 8.081 1.19 17.906.092 26.157 1.028 23.428 3.807 45.156.872 68.762.775-7.298 7.416-43.907 34.398-21.339 42.696 12.013 4.418 40.83-18.23 52.31-24.826-3.757 8.174-7.914 13.912-12.424 21.576-7.96 13.525-4.935 18.116 8.824 21.392l41.621-31.676c-5.585 10.815-14.174 23.064-18.741 34.14-4.255 10.318 2.857 13.792 11.835 15.948 7.057-6.075 24.658-25.724 27.965-27.785 3.347 2.06-8.91 45.445 31.328 15.778 12.29 14.465 17.008 14.536 33.215 5.449l.775.737c12.858 12.116 17.549 7.58 29.421 3.211.907-.334 5.967 3.713 8.608 4.491 8.464 2.492 18.453 1.673 27.154 1.362-5.298 27.846-18.454 50.179-23.104 77.393 10.325 27.83 74.488 31.25 98.158 22.001 16.05-6.271 28.8-4.22 36.8-21.612-2.11-15.589-23.83-72.657-23.2-76.996 8.35-7.077 16.06 6.263 30.99-7.635 23.1 12.911 20.11 2.651 33.63-2.295 6.86-2.511 14.69 21.161 33.47-8.761 4.95 6.546 16.01 19.65 25.46 10.88 6.15-5.708 5.64-17.412 5.7-25.361 8.3 7.994 30.76 42.783 42.33 21.596 2.72-4.993-11.2-29.931-13.8-37.356 8.83 5.951 28.58 28.656 40.66 25.189 14.71-4.221 1.54-21.745-1.54-29.502-1.27-3.213-2.41-8.1-3.38-11.974 14.74 8.211 25.88 24.698 44.26 25.558 5.25.819 13.56-4.954 12.06-10.649-3.05-11.542-21.37-26.284-30.19-33.703 14.16 1.451 28.73 3.043 42.95 3.231 8.65.828 22.32-2.475 30.43-1.379 23.2 3.134 45.4.352 68.19.667l162.21.637c12.32.1 25.02 1.878 37.27 1.597 25.87-1.861 51.97.248 77.6-.053 28.6-.337 55.11-.339 83.7.664 9.46-1.181 22.32-.824 32.11-.795-6.17 22.034-5.53 51.195-7.2 74.083-.89 12.075-2.94 24.611-4.09 36.746l-5.54 64.391c-.92 9.891-.46 20.016-1.32 29.827-1.25 14.022-4 27.888-5.01 41.972-.32 4.481.19 13.857-1.11 17.651-7.36-.305-14.51-3.477-23.08-5.464-16.2-2.728-103.66-34.773-112.58-30.589-38.88 18.253-135.51 53.538-172.59 71.548-12.56-3.225-26.98-8.121-39.93-11.741l-100.66-27.669c-18.69-5.142-38.88-11.384-57.68-15.173-12.36 4.051-24.91 8.59-36.93 13.569-39.68 16.433-82.53 31.28-120.73 50.849-.9-12.703 2.8-32.028-4.4-40.817-7.89-2.697-152.077-2.961-167.053-.841-8.931 6.922-.216 31.095-4.558 38.625-22.083 6.916-42.751-8.174-60.496 9.467-32.099-11.239-68.378-21.013-101.035-31.341-29.438-9.309-65.259-21.644-94.964-28.862-63.75 18.038-157.343 48.206-222.997 65.451-10.171 2.671-82.925-29.573-97.83-27.373-24.937 3.682-51.87 12.243-75.683 18.631-.719-12.311.372-25.514-.346-37.943.24-9.346-3.456-21.478-3.167-30.492.704-21.893-2.514-43.006-3.641-64.516l-7.525-128.321c-1.409-22.091-1.951-37.984-4.266-60.737"/><path fill="#fefefe" d="M251.805 169.409c15.881-.857 28.918 1.406 44.279 1.498l137.506 1.803c21.874.454 42.945-1.418 65.343.992 9.679 1.041 27.376-1.48 38.308-1.4l200.942 3.451c11.501.116 26.069-2.541 36.936-1.686 24.127 1.898 46.797 1.152 70.882.665 12.231-.318 26.102 1.895 38.179 1.182 23.391-1.381 46.279-1.379 69.693-.306 8.886.407 19.069-1.064 27.796.395l.96 1.868c-.215 4.054-.062 5.474-1.996 9.064-2.847 1.915-3.696 1.894-7.673 1.98-26.265.567-52.982.551-79.207.633l-165.566.051c-10.43.011-20.841-.175-31.262-.23-8.04-.044-21.969-2.347-27.06 5.14l.794 2.86c6.919 5.529 36.482 3.769 47.698 4.033-12.998 4.442-28.747 5.638-41.048 11.148-1.198.536-4.292 4.865-5.255 6.223-19.937 2.38-34.242-1.382-53.28-1.381l-241.393 1.304c-26.231-.062-51.326-3.151-78.192-.141-12.262 1.374-30.648-6.593-43.767.401-1.59 2.275-1.965 4.081-1.656 6.955 3.557 21.524 2.483 44.504 4.723 65.784 2.242 21.308 2.935 39.049 3.839 60.295l3.347 65.915c.678 11.654 2.973 23.149 3.73 34.77.618 9.487-.313 19.082.334 28.568.706 10.347 2.993 20.482 3.434 30.894.434 10.261-.262 20.595.428 30.839.831 12.358 3.536 24.595 4.122 36.973.506 10.673-.706 21.449-.035 32.103.691 10.958 3.536 21.76 4.074 32.745.533 10.881-.169 21.852.135 32.751.314 11.234 2.174 22.38 2.78 33.602.533 9.867-.174 19.778.446 29.648.7 11.145 2.58 22.22 3.374 33.37.762 10.707.138 21.489.929 32.19.78 10.553 2.625 21.013 3.407 31.56.662 8.92.305 17.893.99 26.804.841 10.932 2.655 21.783 3.466 32.731.739 9.983.397 20.013.975 30s2.157 19.925 2.857 29.914c.751 10.724.602 21.507 1.13 32.245.277 5.604 1.52 34.668 4.393 37.028 1.249 1.03 2.724 1.42 4.319 1.48 12.573.48 25.857-1.18 38.551-1.18 17.343-.01 34.765 1.51 52.089 1.07 17.274-.44 34.376-2.47 51.713-2.41 13.109.04 26.167 2.34 39.266 2.15 26.425-.4 52.435-3.35 78.935-2.03 10.797.55 21.507 1.3 32.333 1 13.127-.36 26.275-1.85 39.402-1.85l159.379.27c12.589.1 25.357 1.74 37.974 1.93l162.005 1.7c18.18.1 36.02-.71 54.14-1.01 11.26-.74 26.82 2.03 37.59.63 21.75-2.82 38.81-1.33 60.44.58 11.92 1.05 28.63-2.42 41.25-2.02 15.24.5 30.57 1.38 45.82 2.04 28.05-1.86 53.14-2.08 81.18.34 10.93.94 28.11-2.41 40.02-2.47l278.23-.29c20.54-.02 41.38-.31 61.9.1 11.24.22 23.2 2.51 34.34 1 3.06-.42 4.2-.76 6.04-3.46 5.35-7.86 8.71-92.832 10.18-109.212l48.95-566.129 6.02-74.883c1.23-13.723 6.34-35.785 3.56-48.186-10.87-2.287-35.49.736-48.33.549l-155.94-.894c-23.55.015-36.95-1.964-62.75-.674-17.53.832-33.3-1.949-49.92-1.46-28.61.843-54.56 1.577-83.16-.429-20.07-1.408-55.69 3.947-74.93-2.097-1.76-3.262-2.59-4.736-6.07-6.119-15.65-6.212-34.46-9.454-51.16-9.926l-.54-.011c1.62-.237 2.25-.346 3.83-.764 13.76-3.625 30.86-1.09 45.05-2.095 3.68-.261 5-1.88 6.87-4.29.63-4.241.87-2.621-.55-6.355-3.84-2.65-76.08-1.232-87.83-1.201q-79.185.12-158.37-.746c-14.97-.202-30.33.135-45.29-.37-5.97-.202-11.84-2.354-15.15-7.638-.17-3.364-.55-2.059 1.53-4.88 4.04-2.285 19.89.211 25.44-.377 21.36-2.261 42.47.825 63.49.819l68.03.209c23.29-.111 43.61-.713 66.96 2.016 10.24 1.197 26.28-2.706 38.01-1.98 20.76 1.284 41.55 3.438 62.32 3.758l294.75 2.607c40.75.509 82.09-2.064 122.94-.002 16.01.808 37.17-2.414 52.23-.866 25.11 2.58 62.39 28.615 60.53 56.605-.23 17.247-1.47 31.808-2.44 48.306l-7.84 114.037c-4.83 66.416-8.24 132.956-14.93 199.261-2.45 24.304-3.35 51.825-6.67 75.561-6.55 46.942-15.5 93.981-21.9 141.016-1.13 14.369-6.67 31.879-7.16 45.973-1.45 41.444-1.61 82.73-4.27 124.211-2.44 37.846-28.16 80.786-69.63 83.046-18.2.98-38.44-3.5-56.83-3.86-51.19-2.02-102.57 1.01-153.75 2.66-45.48 1.47-90.72 5.28-136.34 4.37-13.42-.27-27.63 1.77-41.3 1.42-13.35-.34-27.17-.58-40.56-.89-33 2.58-64.93-.55-97.7-1.08l-293.44-3.33-450.08-3.97c-39.783-.12-83.493-.66-123.005.22-13.75.18-27.498.53-41.239 1.04-45.003 1.85-59.911 3.03-90.736-34.46-.074-21.92-1.532-34.966-2.811-56.265l-3.177-61.333-7.067-137.009-18.198-356.927c-.49-10.58-2.687-21.68-3.223-32.273-1.053-9.545 1.013-21.654-.177-30.936-3.934-21.979-2.631-45.369-4.21-66.962-2.512-34.351-9.99-66.04 13.461-95.894 13.69-17.429 31.262-23.277 52.767-25.712"/><path fill="#fefefe" d="M1352.71 844.571c2.29-.343 8.16-1.043 10.03.067 10.65 6.291 21.61 13.068 32.08 19.558l64.69 39.679a13474 13474 0 0 0 190.18 109.935l-140.6.42c-12.56.15-25.95 1.98-38.54 1.99-10.81.46-23.98-2.43-34.52-1.87-24.36 1.31-46.56 2.74-71.04.28-8.68-.88-25.82 1.69-35.24 2.44-15.9.14-31.84-1.83-47.69-1.91-14.58-.08-30.18 2.11-44.69 1.95-12.25-.14-25.65-2.19-37.96-2.12-12.74-.69-29.07 2.87-41.39 1.84-25.35-2.12-48.86-2.23-74.29-.65-8.54.52-22.44-1.36-31.35-2.16-1.2-5.93-4.71-19.31-2.53-24.486 3.55-.107 6.44.447 8.25-2.865-.66-6.109-6.71-10.965-11.07-15.208-.11-4.789.15-10.311.47-15.117 2.55-37.098 3-73.217 2.39-110.354 86.39 1.739 174.1.794 260.55-.193 13.71-.157 28.66-.004 42.27-1.226"/><path d="M1208.11 947.917c6.79-.798 22.15 6.191 27.44 10.554 5.16 4.248 5.49 3.877 6.3 9.899-1.66.39-3.86.718-5.36-.223-7.86-4.94-25.15-11.619-28.38-20.23m119.21-4.937c9.73.3 32.6 11.309 33.06 23.12-5.56.394-31.61-16.378-33.06-23.12m-63.68 2.174c7.95.988 23.08 9.519 27.71 16.169 2.35 3.369 1.75 3.169 1.23 6.945-6.94-1.554-24.82-15.215-29.36-20.329zm16.51-50.43c8.63-.327 12.42 3.497 13.14 11.869-8.49-.431-12.84-3.329-13.14-11.869m-117.51 15.601c7.74 1.158 9.54 6.103 7.35 12.906-7.04-2.322-10.04-5.884-7.35-12.906"/><path fill="#fefefe" d="M680.637 841.884c10.268 2.797 52.594 3.188 64.46 3.675 30.395 1.247 61.611 2.107 92.084 2.8 39.468.898 81.95-.823 120.969 1.092-.871 40.241.174 86.216-2.188 125.385-7.872 10.117-29.285 30.774-38.82 40.284-13.923.21-28.503-1.46-42.712-1.33-10.466-.61-23.079 1.79-33.261.9-27.856-2.46-54.611-1.3-82.455-.38-11.32.38-24.367-1.69-35.953-1.81-19.173-.2-39.06 3.3-58.054.7-27.04-2.49-51.919 3.28-78.158 1.09-32.586-2.72-63.259-.08-95.708 1.08-13.926.49-29.411-2.61-43.521-2.01-21.451.53-42.44 2.52-63.923 2.21 35.214-21.368 76.853-43.459 113.213-64.148a5671 5671 0 0 0 184.027-109.538"/><path d="m570.202 953.762 3.273.634 1.091 1.641c-1.276 4.916-13.353 11.674-18.036 14.749-3.279-.043-2.218.406-4.734-1.248l.088-2.227c2.712-5.668 12.754-10.576 18.318-13.549m67.632 2.053c2.227.423 1.166-.008 3.072 1.752l-.226 2.317c-2.812 3.76-9.832 8.826-13.765 11.915-3.306-2.186-3.389-2.596-3.175-6.028 2.998-5.161 8.782-7.595 14.094-9.956"/><path fill="#fefefe" d="M968.574 556.11c37.366.887 75.336-.614 112.766-.018 15.29.244 31.54.453 46.78-.035 16.69 23.975 32.71 45.313 50.45 68.558 12.07 15.819 23.46 32.876 35.57 48.951a6564 6564 0 0 0 58.95 75.877l40.58 51.704c8.38 10.647 18.3 22.576 25.42 33.91-33.57.901-71.99 2.782-105.36 1.22-14.59-25.209-32.51-62.262-45.56-88.612a3618 3618 0 0 0-64.72-127.424c-9.6-18.026-22.59-42.56-33.49-59.78 4.12 15.439 11.64 28.987 18.46 43.325l31.81 65.629c19.89 41.097 39.14 82.908 60.21 123.371 7.2 13.809 15.49 30.691 23.51 43.736-33.18.035-73.73 1.509-106.27.268a4642 4642 0 0 0-26.91-102.556c-7.3-31.127-16.08-63.185-23.59-94.324-3.02-12.508-14.63-65.936-19.57-74.339-1.17 4.638 3.36 21.325 4.33 27.262 11.26 68.853 27.91 136.547 45.66 203.971 3.4 12.918 6.41 27.904 11.44 40.041a559 559 0 0 0-28.84.53c-1.68-4.783-3.46-9.581-4.05-14.55-3.85-32.037-7.63-62.416-20.45-92.346-6.74-15.733-7.61-25.128-22.99-35.552-.66-14.51-3.02-32.601-8.5-46.219-2.53-6.291-8.39-12.702-15.09-14.516-3.24-.878-3.92.155-8.14-1.471-1.407-6.803-.51-47.832-1.345-59.663-2.695 16.398-3.5 44.354-4.361 61.315-21.442 16.014-19.084 39.811-19.374 63.811-21.805 9.78-21.881 31.004-28.64 50.27-3.847 10.963-6.975 38.165-11.418 46.202l-2.785-1.303c-3.719 1.593-6.858 4.168-7.931 8.196 1.093 2.61.374 1.709 2.932 3.234 3.105-.737 4.996-3.311 7.343-5.713.475 10.933-1.036 27.591-5.744 37.381-4.216 3.469-80.579 1.388-92.93 1.797A3670 3670 0 0 0 938.005 633.95c10.298-22.737 26.903-53.559 30.569-77.84"/><path d="M1124.35 772.445c8.94.544 16.76 13.274 15.43 22.235-1.62-.338-2.47-.682-4.01-1.216-5-5.767-11.66-13.122-11.42-21.019m-204.2-43.542c3.303.228 5.236.066 7.959 2.042l.167 1.813c-4.266 4.389-7.768 3.449-13.627 8.784l-.753.697c-2.365 2.037-1.213 1.612-4.203 1.774l-1.357-1.688c-.528-7.208 6.466-10.625 11.814-13.422m326.98 33.784c2.58.196 3.65.694 5 2.702-1.69 5.241-7.87 7.751-12.75 10.284l-2.87-.081-1.22-1.306c1.23-5.144 7.43-8.611 11.84-11.599m7.13 45.167c2.42.305 2.53.522 4.52 2.085l-.07 2.027c-2.56 3.288-5 4.048-8.79 5.782-3.63-.657-3.69-.051-5.96-2.383l.38-2.004c2.91-3.189 5.89-3.956 9.92-5.507m-34.35-75.219c3.27.524 2.48-.087 4.49 1.887l-.5 2.406c-2.77 3.654-5.38 4.935-9.29 7.366-.88-.263-2.18-1.063-3.04-1.536l-.45-2.242c1.56-3.073 5.88-5.758 8.79-7.881m-62.76.143c2.71.676 3.49.96 4.7 3.251-.83 3.511-3.53 5.38-6.28 7.976-4.05-.156-2.87.432-5.46-1.611l.01-2.37c2.22-4.205 3.02-4.592 7.03-7.246m-35.05-20.056c2.24.086 2.54.512 4.32 1.825l-.16 2.018c-3.06 3.156-5.16 4.799-8.62 7.52-3.06.13-2.02.511-4.31-1.041l.29-2.084c2.77-4.298 4.29-5.175 8.48-8.238m-229.456 93.861c3.112.714 3.616 1.108 4.956 3.63-.565 3.503-2.25 4.743-4.695 7.247-3.337-.412-4.657-.893-5.881-3.997.745-3.579 2.753-4.67 5.62-6.88m270.346-5.122c3.9 1.997 2.86.841 4.68 4.172-.47 3.45-3.29 5.638-5.84 8.33-3.21-.546-3.55-2.463-3.98-4.992 1.27-4.012 2.15-4.607 5.14-7.51m35.51-109.842c3.32.565 2.33-.045 4.7 1.973l-.02 1.915c-2.25 3.617-3.77 4.185-7.49 6.244l-2.5-.94-.77-1.828c1.08-3.369 3.45-5.033 6.08-7.364m-280.868 76.768a4.482 4.482 0 1 1 3.957 8.043 4.482 4.482 0 0 1-3.957-8.043m258.228-108.949c3.1.292 4.15.411 5.42 3.04-1.05 3.147-3.06 4.185-5.76 6.245-1.16.26-1.62-.019-2.92-.286l-.88-2.029c1.41-5.074.49-3.323 4.14-6.97M951.778 670.56a4.383 4.383 0 1 1 2.768 8.318 4.383 4.383 0 0 1-2.768-8.318m182.622-76.747c1.57.136 2.2.818 3.47 1.77l.1 1.986c-1.76 2.91-4.35 3.953-7.33 5.555l-2.43-1.33-.47-1.884c1.32-2.895 4.01-4.313 6.66-6.097"/><path fill="#fefefe" d="M1661.8 767.745c8.01.366 8.53 9.081 16.22 10.529 8.32-.898 8.39-6.577 19.54-7.923 13.13 11.629 14.64 5.393 28.48-.225 14.31 6.956 15.17 7.627 29-.754-1.3 10.994-.43 21.683-1.57 33.179l-16.73 174.768-139.38-66.106-91.97-43.609c-10.25-4.814-43.31-19.406-50.42-25.048.11-1.622.18-3.248.2-4.874.1-7.549-17.19-23.109-23.38-29.422 18.86-.304 165.54.5 170.02-3.079 6.78-5.409.36-19.519 1.79-27.332.76-4.099 4.07-5.299 7.24-7.437 4.37 2.065 8.55 3.483 13.08 5.089 2.84-1.613 6.21-3.86 9.03-5.629 14.28 13.403 14.9 6.132 28.85-2.127"/><path d="M1563.52 831.377c5.46.963 12.24 7.407 14.69 12.387 1.37 2.792.29 4.001-.86 6.535-5.16-1.26-11.85-7.127-14.27-11.926-1.66-3.284-.8-3.857.44-6.996m99.71 65.027c7.87.705 16.58 9.952 16.25 17.895-7.98-.262-16.61-9.72-16.25-17.895m-39.4-69.019c8.79 1.774 10.12 7.32 4.79 14.012-8.41-2.56-8.7-7.481-4.79-14.012m85.92 71.046c6.83 1.161 11.52 7.917 9.48 14.843-8.18-.774-11.49-7.136-9.48-14.843m-23.69-71.913c5.19 2.379 12.16 10.024 8.24 16.177-3.66-2.881-8.05-5.817-10.22-9.84-.4-3.824-.43-2.542 1.98-6.337m23.33-29.099c6.71.763 11.79 5.954 9.16 13.141-6.33-2.073-10.98-6.198-9.16-13.141m-107.17 57.025c7.02.536 11.42 5.128 9.8 12.291-7.38-.036-10.44-5.654-9.8-12.291m116.16 22.046c6.43 1.08 10.54 7.258 8.65 13.63-5.36-3.14-10.65-6.967-8.65-13.63"/><path fill="#fefefe" d="M387.46 766.008c2.361.418 11.678 8.348 14.376 10.43 6.534-2.597 8.984-4.9 14.087-9.675 17.666 7.231 17.461-.227 15.276 22.621-1.063 11.108 4.892 16.391 15.61 17.176 15.206 1.114 30.623.549 45.964.813 39.669.799 79.348.98 119.023.543-6.527 5.939-13.766 11.976-19.217 18.869-2.531 3.2-1.935 9.202-1.947 13.325-2.194 3.539-41.714 19.936-48.392 22.974a9336 9336 0 0 0-85.755 40.065c-47.022 21.565-97.548 43.19-143.803 65.062-.903-23.081-4.422-50.033-4.312-73.24.117-24.477-13.328-106.294-7.673-124.741 3.285-.974 5.149-1.075 8.487-1.393 21.164 15.052 12.326-.911 35.542 4.818 14.009-6.332 12.59-1.903 25.356.715 2.659.546 12.545-6.427 17.378-8.362"/><path d="M346.395 874.226c8.069 1.319 13.344 11.793 11.487 19.344-2.238.556-2.42.47-4.749.177-4.986-4.035-8.416-13.246-6.738-19.521m3.324-50.719c7.122 3.151 10.389 12.074 7.424 19.235-7.329-2.517-10.699-12.136-7.424-19.235m99.91 12.8c6.779 1.915 11.109 8.446 6.663 15.26-6.521-2.373-11.691-8.549-6.663-15.26m-66.254 30.953c8.039.671 9.156 7.792 8.275 14.431-8.392-.801-9.144-7.572-8.275-14.431m87.109-37.822c6.66.828 10.15 7.217 6.546 13.653-7.238-1.041-8.856-7.595-6.546-13.653m-59.917 27.03c4.203 2.197 3.548 1.157 5.972 4.808.354 3.558-.381 4.366-2.172 7.335-7.376-.364-7.258-7.045-3.8-12.143"/><path fill="#fefefe" d="m1427.2 622.674 204.96 1.267c44.21-.041 93.26-1.455 137.07.319-2.51 40.453-7.82 79.161-10.63 118.914-7.48-3.284-9.8-4.776-15.91-10.256-12.22-10.258-25.23-10.103-36.43 1.038-22.38-9.035-33.89-8.251-56.37 2.05-13.16-5.479-13.07-1.987-20.54-14.884-2.17-3.747-15.44-9.522-20.45-11.966-8.18.651-12.11 1.539-19.7 4.122-.18-6.548-3.94-15.964-6.94-21.142-7.96-13.725-24.25-6.767-35.62-2.572-1.24.454-5.68-.502-7.35-.869-3.85 2.183-7.78 4.569-11.62 6.825-9.71-7.335-16.96-8.502-25.22 1.353-3.35.28-12.18 1.831-14.99.747-11.5-4.44-.12-33.749-4.9-42.411-7.19-13.027-38.54-1.151-52.23-6.443-4.83-4.998-3.25-18.602-3.13-26.092m-860.616-3.215q28.424-.112 56.844.419-1.077 13.492-1.726 27.013c-14.168 1.112-29.77-.697-44.076-.625-9.308.046-13.876 4.661-14.423 13.783-.699 11.641-.851 23.5-.872 35.127-9.245.124-53.221-1.708-57.518.13-5.875 8.505-.667 31.601-6.899 35.071-3.929-2.653-1.95-4.078-4.54-7.612-1.18-1.61-7.022-5.484-8.852-6.737-7.294-.16-9.645-.136-16.942 1.071-10.709-11.241-15.526-15.179-30.729-16.953-2.032-1.874-5.794-4.652-8.07-6.435-18.005-1.2-21.795 3.179-33.872 15.764-6.849-3.613-7.536-3.008-15.438-1.571-19.174 4.964-22.205-11.644-40.2 11.263-5.38-3.421-36.448-13.025-43.425-13.466-4.134-31.249-.442-53.087-5.415-82.658l.657.062c13.92 1.166 28.529.246 42.611.079l76.014-1.139c39.342-.819 78.676-2.007 118.029-2.089 12.944-.028 25.906-.004 38.842-.497m354.222-63.405c14.215.002 33.82-.498 47.542.649-7.91 12.956-15.147 30.517-21.945 44.262l-43.035 86.558c-24.55 50.331-51.999 100.425-76.86 150.623a3866 3866 0 0 0-45.298-1.441c-4.88-.139-18.923-.249-23.062-1.094-15.106.587-40.625-.838-55.086-2.797 23.913-25.07 45.789-55.005 68.133-81.233 36.827-43.227 70.333-86.502 104.149-132.01 17.843-24.012 29.378-37.716 45.462-63.517"/><path d="M801.604 755.275c1.034.292 2.423.921 3.454 1.342 3.943 4.87 7.533 10.714 4.425 16.966l-3.46-.795c-5.089-4.601-6.831-11.035-4.419-17.513m-42.566 43.564 2.743 1.396c3.787 4.579 3.673 11.417.117 16.095-6.885-2.272-6.578-13.475-2.86-17.491M864.41 670.467c2.956 1.627 3.179 2.464 3.268 5.347-1.502 3.099-5.493 5.47-8.427 7.562-3.05-1.927-2.393-.883-3.205-3.798 1.309-3.29 5.564-6.576 8.364-9.111m-30.286 74.98c3.164 1.119 3.452 1.345 4.709 4.071-.537 3.309-3.619 5.822-6.036 8.307-3.462-1.017-3.948-1.496-4.558-4.725 1.226-3.477 3.256-5.065 5.885-7.653m.292-44.804c3.801 1.011 2.701.165 4.64 2.869-.382 3.385-1.868 4.434-4.202 7.008-3.201-.953-3.71-1.291-5.116-3.587 1.213-4.035 1.184-3.09 4.678-6.29m62.64-52.048a4.488 4.488 0 1 1 4.854 7.55 4.488 4.488 0 0 1-4.854-7.55m1.306-27.852a4.234 4.234 0 1 1 5.867 6.105 4.234 4.234 0 0 1-5.867-6.105m-33.18 79.441a4.17 4.17 0 1 1 1.892 8.125 4.17 4.17 0 0 1-1.892-8.125"/><path fill="#fefefe" d="M890.673 555.224c7.072.175 13.872.307 20.931.87-14.784 13.835-42.304 47.859-56.495 64.425L741.903 754.733c-18.545 21.745-43.749 51.748-63.699 71.778-14.946.378-49.719-2.237-60.477 1.139-3.737 2.071-11.36 7.215-15.278 5.477 1.276-3.507 49.022-47.303 57.43-55.334l143.747-139.229a5052 5052 0 0 1 53.416-52.56c10.262-9.946 22.418-22.356 33.631-30.78m251.227.501c5.68 1.866 7.43 1.204 11.63 1.407 2.72.132 14.91 11.853 17.46 14.258a11353 11353 0 0 1 211.51 205.387c9.51 9.29 57.52 52.967 61.15 60.212-26.35-10.792-48.25-12.094-76.79-9.289-8.35-8.016-17.84-21.678-26.18-31.056-42.19-47.525-83.01-96.258-123.09-145.579-19.87-24.459-40.84-48.172-61.01-72.371-4.09-4.904-16.26-17.568-14.68-22.969m238.67 281.381c9.77-.809 33.71.087 42.81 3.507 28.33 10.654 57.32 27.076 84.82 39.987l227.95 108.111c-.62 9.533-1.15 18.489-2.49 27.979-4.37.43-32.21-2.31-35.67-4.11-17.26-8.97-34.77-20.173-51.9-29.525l-146.64-81.403a3186 3186 0 0 0-80.42-43.525c-10.41-5.571-29.83-15.065-38.46-21.021m-750.117-1.699c9.464.339 17.932.601 27.374 1.758-26.252 11.696-67.014 37.118-93.724 51.703A7711 7711 0 0 1 333.4 1012.75c-6.401 3.85-11.03 3.4-18.35 3.48-.05-11.23-1.956-23.698-2.044-36.478 90.923-38.974 179.471-82.888 269.887-122.941 9.565-4.238 40.211-21.183 47.56-21.404m-181.878-81.343c16.46-.198 37.63 1.188 55.168 1.281l163.057.377c-8.156 8.337-15.182 15.463-23.945 23.234-6.636 6.533-10.892 11.099-16.855 18.242-11.617-.31-23.784.915-35.346.464-48.808-1.906-100.086 1.561-148.576-2.047-.401-9.992.272-23.167 1.499-33.119.703-5.706 1.136-5.574 4.998-8.432m1082.555 1.488c5.68 1.093 50.13-.155 58.71-.28 1.69 14.055 2.5 26.562 3.34 40.697-11.61-.026-23.47.745-35.2.862l-116.23 1.087-20.21.574c-15.89-12.517-29.64-29.829-45.04-42.609 11.48.926 33.64.259 45.81.285zM512.599 705.049c66.933-.338 136.862 5.436 203.377 3.628-6.466 6.561-13.551 13.225-20.186 19.674-2.905 2.685-17.481 18.49-20.657 17.995-13.59-2.114-26.497-1.175-40.115-1.101a7598 7598 0 0 1-78.159.082c-14.511-.083-31.642.158-45.928-1 .131-13.788 2.212-24.753 1.668-39.278m63.409-47.699c48.863-.358 97.944 1.368 146.815 1.928 14.161.163 30.909 1.263 44.749-.722-4.295 5.4-14.193 14.713-19.435 19.916-3.739 3.681-18.908 19.859-23.477 19.773-50.04-.942-101.758.153-151.639-2.929 1.024-9.875-.654-30.48 2.987-37.966m778.742 2.12c32.8 2.124 83.97.259 118.14.068-.86 12.221-.51 25.801-1.08 38.362-24.74.143-49.11 1.082-74.06 1.101-25.33.088-50.66.417-75.98.987-14.06-13.554-28.35-25.285-41.9-39.359 24.97-1.292 49.88-.126 74.88-1.159m120.66 49.064c17.66-.529 35.33-.717 53-.562 2.42 11.945 1.98 24.707 3.77 37.161-16.54-.873-42.79.147-59.69.488-26.91.51-53.83.447-80.74-.189-8.12.31-16.48.408-24.63.606-11.84-11.626-23.16-23.96-35.33-35.175 11.08-2.462 50.68-1.496 63.49-1.563 26.65-.14 53.46-.454 80.13-.766"/><path fill="#fefefe" d="M417.166 705.294a44 44 0 0 1 4.301-.281c6.031-.042 8.841 3.906 12.945 8.123 13.492-.209 13.677-.112 22.062 9.764-1.846 4.196-4.617 8.069-2.118 12.617 9.892.634 21.322-19.692 31.266 1.724 5.996 3.954 5.821 3.938 13.386 4.968l.142 1.403c-8.169 3.255-50.827-5.358-60.956 4.202-5.106 4.819-4.445 5.705-5.411 12.724l-13.691-5.564c-16.55 2.435-10.852 10.183-27.247-.335-5.088-3.264-15.473 4.371-21.497 6.967-11.17-5.376-16.195-2.81-28.088-.949-1.904.17-9.61-3.212-11.734-2.011-10.147 5.74-5.865 6.7-15.651.195-4.519-.228-11.196.078-15.877.146-3.504-12.932-3.538-27.767-2.954-41.027 15.358 6.712 17.219 8.294 33.817 7.981-2.478 2.121-13.302 16.572-13.411 18.4 3.026 3.608 10.764 4.973 14.932 3.248 1.591-3.068.059-5.534-.344-10.073 2.94-3.764 9.044-2.13 10.982-3.94 9.488-8.859 6.172-10.375 18.108-17.991 3.956 2.762 8.73 5.456 12.917 7.95 12.23-8.581 13.333-5.877 23.26 2.917 1.38.196 3.004.772 3.773-.323 7.539-10.732 6.064-13.355 17.088-20.835m218.486-92.489c14.226 1.449 45.39.896 60.73 1.11l115.282 2.212-16.395 15.641c-3.382 4.031-11.433 11.306-15.934 16.229-20.74 2.12-59.395.475-80.964.453-16.043-.016-52.229.152-67.015-1.655 1.826-7.566 3.354-25.556 4.296-33.99m370.578 239.759c2.82 6.016 3.93 27.055 5.81 34.878 7.08 29.57 11.07 62.916 19.88 91.838-11.95 15.218-26.2 28.04-43.503 36.78-5.544.14-11.845 0-17.447-.02.022-5.84-.904-19.674 2.699-24.342 1.002-1.299 4.246-1.1 6.08-1.103 8.915-8.977-11.19-9.711-5.403-28.62 11.085-36.222 20.435-73.265 31.884-109.411m227.15-235.466c12.9-.236 26.27.722 39.27.921 21.98.182 43.95.232 65.92.15l49.34-.06c6.74-.022 20.68-.454 26.91.359 2.63 5.821 2.57 22.891 2.06 29.545l-1.86.859c-39.25 2.598-81.2-.601-120.76 1.029-8.24.339-15.92-.106-24.28.804-8.02-5.674-29.84-26.022-36.6-33.607M1001.5 514.525c32.82-.572 69.31.267 102.44.497-.38 9.368-.06 20.764-.19 30.417-17.08-.427-36.72.079-53.86.619-17.89-1.561-42.95.101-61.416-.625-9.401-.369-29.474 1.567-37.93-1.091-1.204-9.06-.401-19.287-1.591-29.571 16.101.424 36.548.243 52.547-.246m564.53 179.498c4.99 1.502 9.23 12.643 19.11 19.822-4.17 3.147-10.05 7.906-8.48 13.515 10.89 8.77 17.42-8.185 28.85-7.929 3.51 2.345.82 2.083 3.02 7.483 3.94 1.939 5.65.812 10.52-.092 3.02 1.591 2.01.649 3.81 3.602.09 2.981-2.55 5.857-4.41 8.531l.67 1.692c4.07 1.622 6.75 1.32 11.12 1.285.76 1.557 1.5 2.561 2.46 3.97 3.44 2.297 5.17.493 9.17 1.374 6.19 1.363 7 14.515 2.59 17.569l-1.9-.541c-2.29-1.651-6.7-3.867-9.36-5.297-9.36 4.328-19.42 3.333-30.19 2.987-5.73-5.313 1.04-16.018-12.58-18.072-10.32-1.555-38.94 3.969-46.53-.563-1.73-6.02-5.85-38.541-3.27-41.561 5.75-2.47 11.61 5.538 18-4.552 1.14-1.79 5.17-2.685 7.4-3.223m156.27 40.624c8.03 2.144 26.37 12.645 30.32 19.927.18 3.837.65 2.419-1.67 5.343-8.41 4.274-17.48 1.443-26.21-.605-23.06 9.552-17.92-7.512-37.82 1.934l-7.65 4.59c-2.64-2.944-6.27-7.613-9.71-9.043-3.44.462-9.22 1.365-11.79-1.244-.16-4.594-.41-7.248.5-11.738 2.3-2.045 16.22-3.324 24.97-6.795 6.48 2.741 14.31 5.289 21.33 8.19 8.5-4.138 10.98-6.91 17.73-10.559m-451.44-242.12c44.87 11.101 89.52 24.804 134.43 36.388l-.77 2.453c-29.54-6.652-58.99-14.337-88.47-20.644-33.89-7.251-46.79-11.394-80 2.639-11.49 4.854-27.28 8.666-39.47 13.192-15.04 5.587-30.53 11.2-46.3 14.419 15.58-7.498 37.03-15.558 53.53-22.073a4395 4395 0 0 1 67.05-26.374m-592.914 12.508c3.992-.327 5.987-.224 9.921.901 40.647 11.625 81.49 24.11 121.726 37.055 12.106 3.894 49.302 13.172 57.861 18.523-1.749 5.739-10.599 2.004-14.668.674-34.862-11.144-68.11-21.235-103.746-29.637-20.324-4.792-42.051-15.669-62.929-19.084-9.258-1.514-21.076-.802-30.941-1.684 7.744-1.836 15.197-4.329 22.776-6.748m357.914 239.508c9.17 7.655 16.91 39.711 19.98 51.162 2.54 9.491 14.48 33.206 7.56 40.519l-2.79.051c-3.24.084-5.44.397-8.48-.75-4.6-4.576-4.16-16.579-5.8-25.253 3.03-2.984 4.81-4.411 6.56-8.299-.05-4.033.47-2.654-1.55-5.613-2.62-1.28-3.8-.866-6.58-.305l-.94.195c-5.13-8.521-7.56-41.051-7.96-51.707m-64.286 1.232.931 1.064c1.437 9.985-1.435 38.846-5.134 48.126-4.783-.918-6.024-1.633-9.728 1.228-1.464 3.258-1.751 3.75-1.294 7.257 1.774 3.34 3.56 4.263 6.659 6.427-1.263 7.624-1.415 21.589-4.794 28.316-.307.61-1.976.521-2.964.612-3.83-.012-8.161.382-11.431-1.356-3.983-11.094 21.945-75.265 27.755-91.674m670.876-270.789c3.42-.185 8.05-.772 10.35 1.998-4.08 3.994-27.81 9.362-34.58 11.128-3.28.69-5.63 1.358-9.02 1.235 10.93-4.149 22.5-9.574 33.25-14.361m-634.04-106.204 1.17 1.784c.73 11.066 1.68 25.934 2.63 37.345-.55.836-1.03 1.546-1.42 2.13l-2.55-1.72c-2.29-6.7-.27-31.262.17-39.539m21.86 10.897c3.68 2.532 6.99 19.848 8.19 25.026l-3.9.096c-3.07-3.446-3.27-18.342-4.29-25.122"/><path fill="#b0afb1" d="M1046.57 356.526c2.51 3.556 10.78 34.332 10.19 38.03l-1.37.132c-2.44-8.518-8.15-29.901-8.82-38.162m358.72 172.389c11.48 2.929 21.37 4.549 31.81 10.086a1474 1474 0 0 1-32.58-7.633z"/><path fill="#fefefe" d="m982.392 387.792 2.052-1.314c-.337 3.6-.937 19.686-1.946 21.087l-2.397-.281c-2.292-5.116.906-13.511 2.291-19.492"/><path fill="#b0afb1" d="M982.392 387.792c.126-3.616.298-9.517 2.68-12.259.965 3.088-.106 7.565-.628 10.945z"/></svg>