<svg xmlns="http://www.w3.org/2000/svg" preserveAspectRatio="none" style="display:block" viewBox="0 0 2048 2048"><path fill="#fefefe" d="M0 0h2048v2048H0z"/><path d="M1001.22 110.458c185.77-4.199 368.59 51.751 521.19 157.786a986.6 986.6 0 0 1 110.03 90.405c18.99 17.802 44.92 43.241 62.09 62.55 26.76 30.089 54.55 69.978 74.96 104.649 18.62 31.621 42.95 74.899 56.63 109.23 39.52 99.222 60.81 203.998 66.25 310.564 1.32 25.96 1.16 49.095 1.22 74.758.08 30.68 1.64 59.65-.28 90.55a436 436 0 0 1-9.01 67.68c-2.99 13.92-8.15 30.92-10.47 44.39-10.71 62.27-26.78 122.44-48.08 181.92-9.37 26.16-20.82 43.72-32.87 67.7-12.35 24.59-22.91 46.98-37.14 71.29a790.8 790.8 0 0 1-150.99 183.81c-165.56 148.81-384.14 224.56-606.274 210.11-45.145-4.4-87.432-4.33-132.93-10.48-138.672-18.75-246.868-58.62-362.685-137.38-19.756-13.44-40.246-26.5-58.897-41.45-10.328-8.28-19.939-17.55-29.681-26.5-93.872-86.26-158.842-189.73-213.114-303.86-54.902-115.45-95.454-237.39-100.651-366.08-6.718-166.363 44.266-318.864 123.55-462.95 34.422-62.556 77.813-128.103 126.186-180.545a1015 1015 0 0 1 151.502-133.794c75.909-54.833 164.759-103.183 255.699-127.643 78.298-21.059 162.82-33.454 243.765-36.71"/><path fill="#fefefe" d="M1009.31 323.439a650.48 650.48 0 0 1 393.75 109.872c29.37 19.775 56.96 43.616 84.39 66.188-4.99 10.408-18.69 36.067-18.02 45.621 1.23 17.315 21.87 6.203 27.68-3.403 1.03-1.708 12.62-14.584 14.19-16.501 14.07 17.473 29.82 33.429 43.13 51.544 31.82 43.291 58 91.637 82.72 139.246 13.72 26.435 28.36 53.631 37.64 82.029 5.95 18.221 9.09 37.544 12.67 56.342 3.04 15.956 6.8 31.904 9.05 47.989 5.75 40.968 6.65 85.576 4.02 126.874-6.72 105.6-79.95 279.56-141.26 365.7-29.49 41.43-65.85 79.39-103.96 112.9-17.38-68.67-27.81-140.47-42.73-209.06a357.42 357.42 0 0 0-158.04-225.98c13.65-6.52 74.46-38.12 56.3-57.66-46.34-49.876-87.57-103.666-113.21-167.312-.12-.365-.23-.729-.35-1.094 16.22-12.768 26.79-26.837 33.79-46.345 10.02-27.905 16.97-73.946-17.43-87.318 4.46-22.995 5.51-67.91 2.71-90.476-4.45-35.851-25.01-78.1-55.01-99.463-58.12-41.38-149.75-43.232-217.261-34.834-33.123 5.215-61.484 10.899-92.492 25.238-20.226 9.352-22.142 16.506-37.023 27.146-19.734 14.111-49.921 36.15-56.524 61.422-6.22 23.804-4.359 113.567 5.739 132.821-18.997 38.23-3.469 82.873 25.147 111.729-23.066 66.764-60.667 119.477-107.8 171.316-3.376 3.72-6.637 7.55-9.814 11.44-3.177 23.02 18.405 43.14 35.244 55.95 8.774 6.68 18.751 11.48 27.566 18.62-47.928 35.15-80.247 81.67-100.776 137.05-5.671 15.3-12.056 23.04-15.461 40.46-7.587 38.81-18.249 77.4-24.139 116.51-.558 3.7.659 7.65 1.725 11.16-7.56 20.22-11.846 35.02-14.666 56.54-.666 5.07.414 17.3-.403 20.94-5.215 23.21-9.598 39.49-9.546 63.66-12.707-11.88-21.954-21.04-33.887-33.68 5.897-5.85 14.373-13.19 15.809-21.39a16.92 16.92 0 0 0-3.004-12.98 15.33 15.33 0 0 0-11.288-6.17c-10.451-.8-20.346 11.27-28.621 18.29-12.306-16.13-26.395-32.65-38.181-48.26-26.641-35.28-58.071-83.23-75.977-123.65-16.17-36.5-29.044-85.09-40.845-123.41-14.242-46.23-26.313-95.43-32.616-143.34-4.898-37.23 2.734-68.42 8.978-103.953 5.284-27.535 6.724-60.557 15.467-87.29 13.399-40.965 30.765-87.455 48.31-126.694 25.444-56.904 61.597-109.99 99.957-158.779 6.927 9.97 15.951 32.407 32.282 21.971a16.74 16.74 0 0 0 7.414-10.762c2.102-10.481-10.175-28.971-15.786-37.681 19.045-19.208 36.561-33.871 56.421-51.352 71.034-64.413 142.418-104.141 231.814-136.298 75.092-27.012 121.393-37.039 202.207-41.433m506.26 1159.351c.43.55 4.46 8.99 5.25 10.41 6.12 10.96 12.32 21.88 18.59 32.76 21.89 37.9 38.5 51.84 69.56 79.22l-.91.99a857 857 0 0 1-202.24 161.68c-101.9 57.92-245.1 99.16-361.57 103.17-32.64.92-61.724.9-94.424-2.22 13.896-47.06 27.498-98.03 44.085-143.85 8.539-.03 20.369-1.19 29.029-1.99a765.2 765.2 0 0 0 318.57-105.23c24.81-14.96 53.17-35.64 76.73-52.4 34.51-24.55 70.15-49.84 97.33-82.54"/><path fill="#fefefe" d="M370.123 436.563c40.95 17.844 91.034 86.979 115.28 123.854a212 212 0 0 0-11.375 11.978c-15.275 17.103-27.718 35.174-40.629 53.919-30.651 44.189-56.747 90.765-75.976 141.061-12.314 32.209-25.431 62.366-34.806 95.756-8.214 29.253-10.131 57.2-15.51 86.342-7.202 39.014-11.874 66.167-9.506 106.247-16.172-.69-28.88-1.98-44.82-3.95-39.776-3.85-80.194-10.54-120.022-13.92.28-160.379 42.516-290.972 120.182-429.609 38.561-68.832 65.41-111.372 117.182-171.678m591.005-291.98c12.235-1.06 24.513-.817 36.786-.733-5.221 53.48-14.28 106.231-18.825 160.321a719.8 719.8 0 0 0-333.31 116.781c-42.819 28.121-83.773 63.396-121.708 97.674-5.613 5.073-10.873 10.037-16.066 15.562-11.451-16.407-21.578-30.963-34.176-46.485-23.654-30.281-46.559-55.293-79.854-75.345a77 77 0 0 1 2.223-2.726c7.156-8.209 16.918-16.984 24.638-24.836 30.713-32.754 66.333-56.898 102.108-83.21 131.26-96.539 274.617-145.655 438.184-157.003m70.492-2.535c4.17-.034 8.33.043 12.5.228 134.19 6.591 246.11 33.159 365.23 97.022 44.27 23.732 85.51 47.287 125.06 78.82 21.58 17.208 52.68 40.948 71.08 61.087-20.98 16.353-44.82 36.944-63.21 56.195-12.69 13.962-28.54 32.1-41.33 44.943-21.75-17.646-35.04-30.43-59.21-48.012a645.93 645.93 0 0 0-317.31-123.497 854 854 0 0 0-60.41-3.992c-6.38-.195-46.88-.387-49.37-3.303-1.44-14.04 2.04-33.656 2.97-47.735 2.48-37.785 8.99-74.309 14-111.756m597.84 260.549c4.31 1.642 15.31 15.419 19.49 19.692 21.47 21.938 40.06 45.37 58.12 70.132a813.5 813.5 0 0 1 149.21 398.617c3.74 38.766 3.63 82.62 4.11 121.892-30.94-2.17-61.76-5.9-92.33-11.15-13.91-2.289-27.19-4.532-41.21-6.046-1.29-12.606-.89-29.734-1.3-42.847a620 620 0 0 0-6.26-71.842c-5.67-36.485-16.8-85.099-31.3-118.585-10.96-26.568-26.53-51.481-38.92-77.187-32.91-68.305-72.83-122.804-122.19-180.139 12.42-25.206 79.16-81.281 102.58-102.537M897.312 655.785c74.289 26.359 218.248 34.866 267.358 95.581l-.68 5.539c-5.8 45.917-14.82 98.632-32.48 141.759-10.8 26.353-37.76 53.726-60 70.995-18.52 12.935-34.56 19.809-57.27 21.652-89.234 7.499-152.519-82.909-170.329-160.449-4.522-19.69-13.812-47.386-15.168-66.864 7.551-4.638 13.77-7.145 21.045-12.68 32.966-25.083 41.876-56.569 47.524-95.533"/><path d="M986.336 767.009c2.814-.31 4.016-.205 6.816-.096 14.648 9.217-5.065 58.592-3.76 75.438 1.582 20.419 20.608 14.559 25.068 25.404-.46 3.598-1.13 4.117-3.23 7.005-19.547 3.449-38.242-12.579-36.264-32.651 1.43-14.507 4.599-28.011 7.157-42.328 1.871-10.47.368-22.835 4.213-32.772m86.224-39.625c10.8-1.788 52.43.324 57.56 15.547.48 1.442-.27 1.748-1.21 3.038-6.63 2.751-10.47 1.009-17.11-1.061-22.42-5.262-34.36-2.762-56.64-1.708-4.4.208-4.65-6.461-2.48-10.541 5.73-4.543 12.58-4.486 19.88-5.275m-164.895-.019c8.717-.929 31.701-.402 36.106 8.216-.997 12.18-29.707 5.471-42.138 7.685l-1.38.258c-7.308 1.574-29.781 9.245-33.234-.678 4.354-11.152 30.061-14.071 40.646-15.481m56.801 179.659c8.859-.516 23.453 3.028 33.159 2.877 9.465.029 18.805-2.16 28.235-3.016 7.05-.641 8.3 3.714 8.42 9.632-1.96 3.351-1.3 2.291-5.28 4.354-12.64 3.299-64.695 8.152-69.058-7.034.784-3.803 1.679-4.199 4.524-6.813M1081.1 761.122c8.29-.669 15.61 5.354 16.55 13.613.94 8.258-4.84 15.774-13.06 16.986a15.4 15.4 0 0 1-14.53-5.942 15.4 15.4 0 0 1-1.78-15.598 15.42 15.42 0 0 1 12.82-9.059m-174.833 2.121a15.215 15.215 0 1 1 10.263 28.639c-7.855 2.645-16.381-1.484-19.177-9.286-2.796-7.803 1.167-16.407 8.914-19.353"/><path fill="#fefefe" d="M134.991 1074.7c8.254.02 18.501.35 26.701 1.36 46.764 5.79 95.694 8.42 142.179 15.09 12.074 71.62 42.204 172.06 69.399 239.86 23.44 58.44 79.311 130.88 119.781 178.64-14.101 13.92-26.759 26.45-41.975 39.09a3735 3735 0 0 1-56.002 44.89c-15.212-15.45-35.385-41.93-49.245-58.9-38.764-47.45-75.318-97.72-107.417-149.92-16.123-26.23-30.583-50.36-42.531-78.89a451.6 451.6 0 0 1-20.782-60.92c-3.716-13.87-7.223-29.07-11.198-42.72-2.532-8.7-12.449-18.24-15.246-29.65-8.026-32.74-10.054-64.66-13.664-97.93m1590.569-44.6c17.86 2.38 36.03 6.17 53.92 8.81 26.6 3.7 53.36 6.17 80.18 7.4-4.64 169.07-84.23 329.14-179.61 465.23-9.56 13.63-19.19 26.98-29.67 39.92-6.28 8.18-12.83 18.02-18.8 26.56a248.8 248.8 0 0 1-89.24-120.73c16.5-21.27 34.84-41.38 49.03-64.39 19.41-31.46 38.76-62.47 53.37-96.5 35.35-82.39 74.9-176.45 80.82-266.3M519.052 1533.74c4.659 2.11 29.443 28.34 36.152 34.11 11.635 10 22.572 20.15 35.377 29.55a665.64 665.64 0 0 0 298.641 121.94c22.395 3.27 44.648 4.68 67.195 6.26-9.634 35.57-21.977 70.32-31.993 105.78-3.439 12.18-6.742 22.75-7.904 35.37-17.843-2.71-35.642-5.7-53.389-8.98-126.133-23.72-252.5-73.34-354.159-152.93-34.017-26.64-61.916-54.5-91.849-85.48 12.119-9.96 24.963-19.33 36.96-29.39 21.973-18.41 43.066-37.71 64.969-56.23"/><path fill="#fefefe" d="M1182.83 1461.46c1.4-.12.6-.17 2.35.5-3.42 41.13-7.08 82.31-10.33 123.42-2.04 25.94-1.93 53.65-2.67 79.81-17.5 7.91-39.11 12.09-57.86 16.96-55.75 14.47-113.8 21.94-171.389 17.35-20.984-1.67-42.677-4.98-63.674-7.92l-2.203-.6c-1.516-2.18-1.615-4.22-1.488-6.9 3.339-70.58-1.298-141.81-.15-212.22 24.4.73 51.253 3.7 75.155 3.47 21.578.06 43.385-3.02 64.919-3.37 56.28-.9 111.3-6.17 167.34-10.5"/><path fill="#fefefe" d="M1821.64 1333.81c-.03 5.89-5.14 24.56-7.47 30.93-44.49 121.55-111.81 238.32-205.15 328.99-18.33 17.8-39.94 34.38-59.56 49.79a842.7 842.7 0 0 1-132.15 85.95c-100.91 52.94-225.61 83.37-339.58 87.76-35.23 1.79-70.28-3.11-105.364-4.3-83.374-2.83-169.762-15.63-249.623-40.29-53.047-16.39-111.782-44.97-159.199-73.47a815.7 815.7 0 0 1-311.414-330.66c-2.281-3.83-4.29-8.51-6.191-12.6a1783 1783 0 0 0 96.981 127.42c73.749 88.46 151.196 166.66 255.701 218.54 52.599 26.11 111.923 50.03 168.479 66.69 76.305 22.48 160.277 35.43 239.72 38.14 29.16.99 61.73-2.89 90.88-5.59 90.02-12.23 176.4-39.02 259.62-74.18 172.6-72.93 299.41-207.13 394.74-365.32 25.24-41.88 47.06-84.26 69.58-127.8m-728.31-353.973c7.95 5.979-8.04 42.113 26.07 65.483-1.23 5.83-3.22 11.92-5.23 17.54-15.04 42.14-33.37 90.34-76.14 110.97-40.665-2.74-58.645-17.24-86.811-46.49-20.453-26.66-40.473-46.24-47.74-79.9a84 84 0 0 0 3.083-3.52c15.222-18.59 12.907-37.26 10.469-58.79 28.819 15.68 49.093 25.2 82.73 26.15 39.439 1.1 62.819-8.29 93.569-31.443"/><path fill="#fefefe" d="M771.023 1109.88c2.277 1.52 2.923 5.25 3.331 7.89 7.709 50.11 16.797 100.08 24.768 150.12 3.417 25.56 4.21 52.11 7.71 77.6 12.393 90.25 14.226 181.05 12.077 272.02-.193 8.15-1.37 55.5-4.211 59.9l-1.993.08c-5.703-1.32-11.216-2.12-16.985-3.04 2.192-15.54 1.768-44.15 2.38-60.98.816-22.43 2.407-47.42 2.714-69.69.419-31.91-.347-63.83-2.297-95.69-.69-12.89-1.575-24.8-2.472-38.04-2.288-22.21-6.384-41.15-5.842-63.61 1.325-54.92-6.56-110.46-14.228-164.73-1.273-9.01-12.829-64.5-11.59-68.49zm464.487-18.02c20.2 4.7 20.02 8.04 17.7 27.2-7.99 66.08-19.22 132.3-23.46 198.74-1.83 43.61-3.06 86.69-6.33 130.23-4.23 56.36-9.85 112.93-12.81 169.33-.61 11.52.27 24.02-1.82 35.3l.57 1.51c-2.77 2.36-9.59 3.72-13.42 4.77-4-49.66 8.17-113.8 10.77-165.03 6.67-131.53 9.55-271.87 28.8-402.05m-426.637-2.7c1.551.51 3.444 1.35 4.991 1.98 5.38 6.88 8.354 49.3 9.927 60.47a2843 2843 0 0 1 23.703 221.43c1.205 18.41 3.528 38.68 3.587 56.96.168 52.54 1.758 105.02 2.567 157.54.516 33.46-2.834 67.66-1.848 101.03-5.65-1.47-7.783-2.19-13.128-4.52l-.659-.33c-.375-.55-.75-1.11-1.126-1.66 4.14-22.3 3.455-44.91 4.592-67.39 1.354-26.79 1.83-53.27 1.265-80.1a2259 2259 0 0 0-20.114-262.9c-.881-6.56-2.201-13.32-3.419-19.84-9.607-51.43-14.4-104.52-27.994-155.12 7.4-4.06 9.634-4.88 17.656-7.55m468.397 26.31 3.16 2.85c1.59 3.47-.54 18.97-1.14 23.44-8.67 64.81-13.18 129.34-17.89 194.5a4381 4381 0 0 0-11.37 302.29c-5.59 2.14-10.94 3.94-16.61 5.83l-.86.13c-2.86-6.59 5.12-75.24 5.96-88.68 3.19-51.27 7.67-103.01 12.06-154.19 1.43-16.65-1.06-35.05.42-51.27 2.28-24.99 3.44-50.21 5.79-75.05 5.61-53.43 12.44-106.73 20.48-159.85m-516.893 414.3.842.88c4.444 16.04 3.051 69.61 4.125 89.29.625 11.46 1.868 31.1 1.324 42.43-8.754-2.63-13.023-4.33-21.416-8.11l-16.033-7.08c3.695-17.4 9.697-36.01 14.455-53.22 5.924-21.41 11.104-42.73 16.703-64.19m443.983-795.12c1.83.6 4.25 1.92 5.37 3.483 19.84 27.722-7.36 79.779-28.74 96.692-3.21 2.055-6.59 4.493-9.75 6.673 2.4-20.754 9.23-42.984 11.47-64.268 2.25-21.52 3.95-29.685 21.65-42.58m-417.99 10.692c8.223.928 11.156 3.073 17.844 7.488 1.231 12.606 19.729 86.967 18.243 89.984l-3.059-.718a85 85 0 0 1-1.974-1.263 85.48 85.48 0 0 1-37.12-54.952c-2.84-14.133-2.124-28.191 6.066-40.539m336.55 272.398c31.89 4.61 74.54 27.35 98.03 49.41-19.51-3.29-34.87-11.26-52.76-19.34-13.6-6.14-39.91-14.26-45.27-30.07m152.57 531.89c7.03 24.67 12.98 42 22.89 65.37l-10.93 6.75c-3.93 2.45-8.14 4.89-12.13 7.28.29-13.19-1.99-71.38.17-79.4m-384.333-524.72c1.796.1 1.037-.25 2.283 1.03-6.566 13.83-66.652 39.54-82.425 42.63l-2.013-.85c4.878-9.1 68.991-37.17 82.155-42.81"/></svg>