<svg xmlns="http://www.w3.org/2000/svg" preserveAspectRatio="none" style="display:block" viewBox="0 0 2048 2048"><path fill="#FEFEFE" d="M0 0h2048v2048H0z"/><path d="M991.215 145.426c53.745-3.68 114.645.988 167.775 10.3 224.22 39.301 404.81 157.908 535.47 343.936 32.92-11.604 81.66-8.706 114.05 3.351 64.16 23.89 86.19 57.26 114.18 115.752-3.25-.068-6.5-.084-9.74-.048-15.91.256-41.88 8.119-53.23 19.787-12 12.344-7.02 31.822 1.48 44.937 23.07 35.613 51.05 68.644 70.21 106.726 68.41 146.127 13.65 353.793-64.55 484.293a295 295 0 0 1-26.74 37.05c-6.75 7.84-22.37 22.81-26.11 31.49-10.86 25.25-19.63 50.06-31.48 75.08a895 895 0 0 1-128.94 195.93 858.13 858.13 0 0 1-478.56 275.68c-42.28 8.05-74.29 10.56-116.78 13.23-205.278 8.37-406.263-60.35-563.446-192.64-104.933-87.4-195.277-204.8-247.831-331.29-5.022-12.08-8.978-25.6-14.38-37.29-3.321-7.19-15.535-19.03-21.01-25.25a217 217 0 0 1-22.881-31.04c-52.773-87.77-92.44-203.68-100.699-305.416-6.884-90.807 11.608-184.243 65.465-259.115 11.004-15.298 21.415-24.004 33.775-37.191 13.468-14.37 7.631-42.425-8.701-53.662-17.729-12.198-33.137-13.332-54.116-10.468 3.681-9.21 8.842-17.107 13.103-25.805 43.266-88.322 123.004-111.793 217.838-95.099 17.208-26.77 52.631-70.462 73.628-93.612 149.301-164.615 342.447-247.885 562.22-259.616"/><path fill="#FEFEFE" d="M1002.02 598.578c18.13-1.566 47.88-.513 66 1.312 114.98 11.666 210.63 65.592 283.41 154.035 137.36 166.904 129.05 408.635-17.15 566.655-11.27 12.19-21.21 24.36-34.35 35.08-13.14-1.9-25.25-2.53-38.49-3.34 6.24 6.03 13.24 11.43 20.01 16.86-6.08 4.56-18.56 11.84-25.75 16.11-68.64 40.78-132.56 56.91-210.96 62.56a453.9 453.9 0 0 1-275.881-76.79c8.497-7.12 12.891-11.43 20.056-19.78-15.945-.47-31.122 1.03-47.293.21a231 231 0 0 1-5.989-5.12c-81.659-72.13-130.742-183.62-137.062-291.7a424.72 424.72 0 0 1 109.083-314.065 430.27 430.27 0 0 1 294.366-142.027"/><path d="M1022.68 605.749c4.7 4.792 18.09 28.345 22 34.849 19.73 32.793 39.49 65.049 55.88 99.695 31.07-23.605 90.11-55.379 125.73-71.345 7.46 46.488 7.81 99.356 6.11 146.387 11.61-.688 24.4-2.97 36.12-2.834 36.16.421 78.46 4.759 113.7 11.796-17.08 39.867-48.78 91.366-74.53 125.814 14.56 8.071 30.92 15.1 45.38 23.154 26.49 14.753 57.9 34.545 81.09 53.985-9.87 8.02-20.57 14.4-31.1 21.37-32.36 21.44-60.69 36.64-96.95 50.44 5.82 9.28 16.93 23.69 23.7 33.63 22.28 32.66 36.92 58.18 52.59 93.97-7.88.26-16.63 1.15-24.52 2.05-43.81 5.04-84.44 6.08-128.35 2.72 7.15 52.17 4.38 101.41.15 153.61-32.84-14.05-100.93-58.29-129.61-80.03-7.7 16.52-17.89 38.59-26.94 54.39-4.89 8.56-45.92 76.08-50.44 77.16l-3.09-4.21c-29.894-46.05-49.818-79.5-70.306-130.51-29.138 24.81-64.59 45.25-97.998 63.88-9.959 5.56-19.632 11.6-29.733 16.85-10.023-43.85-7.271-106.69-4.074-151.71-6.312.24-12.75.82-19.066 1.26-44.704 3.1-91.092 2.02-135.611-3.74 11.609-20.77 24.734-45.65 37.521-65.41 13.454-20.8 29.272-42.43 43.4-63.07a651 651 0 0 1-83.186-41.62c-16.83-10.03-32.684-21.22-49.645-31.36 12.714-8.53 26.406-19.61 39.591-28.654 30.612-21.004 57.55-35.265 90.954-50.775-32.432-41.388-52.275-74.948-73.445-122.969 10.055-2.471 22.472-3.651 32.805-5.303 40.768-6.516 75.586-6.304 116.477-2.759-.078-5.1-.424-10.507-.944-15.583-4.797-46.816.174-92.352 7.48-138.792 15.675 11.208 35.02 21.813 51.739 32.332 24.516 15.426 48.466 31.455 73.039 46.73 11.309-28.532 26.448-54.411 41.917-80.802 10.635-18.149 21.045-36.764 32.165-54.596"/><path fill="#FEFEFE" d="M751.393 958.977c30.109 30.066 52.203 45.243 89.648 64.213-30.135 15.58-46.05 25.17-70.956 48.69-5.421 5.15-11.806 12.25-17.063 17.77-15.757-8.78-35.152-23.42-45.427-38.38-28.725-41.85 12.562-72.113 43.798-92.293m6.625 146.573c38.136 10.67 64.558 13.27 103.829 13.38-18.686 23.56-31.354 54.66-39.385 83.41l-2.837 14.06c-43.922 8.03-97.624-16.04-83.703-69.26 4.186-16.01 12.65-28.31 22.096-41.59m471.792-277.51c31.42 1.062 75.04 11.992 81.78 48.351 4 21.508-5.6 51.081-17.94 68.578-5.16-1.228-12.49-3.789-17.7-5.471-23.91-9.39-63.55-10.504-89.36-11.278 20.97-32.716 34.54-62.148 43.22-100.18m61.34 277.03 2.2.59c12.09 13.07 21.54 37.75 21.63 55.7.22 45.87-50.07 57.34-86.8 56.55l-2.38-12.32c-7.58-34.35-19.33-57.66-38.04-86.48 41.19.36 63.7-1.87 103.39-14.04m-267.09 105.72c21.5 35.11 34.56 56.07 65.33 84.49-14.17 25.13-32.6 48.43-63.07 51.88-33.543-.15-51.107-27.84-66.829-53.05 29.33-26.28 44.959-50.29 64.569-83.32m274.13-249.807c64.96 36.813 66 92.557-.79 127.767-6.97-6.58-15.14-13.62-22.33-20.07-21.97-19.15-41.53-32.64-68.59-43.87 31.2-15.4 67.71-38.465 91.71-63.827M927.597 1188.84c2.486 2.54 1.487 21.51 1.86 27.25a292.2 292.2 0 0 0 14.595 72.94c-25.403 18.24-58.423 32.92-87.466 13.92-23.04-19.6-27.223-46.81-24.73-75.37 36.765-8.52 64.097-17.76 95.741-38.74M799.733 831.387c7.316-.891 12.888-.531 20.237-.278 9.349 40.986 18.639 62.238 39.667 97.887-29.052-.724-43.422-.222-72.34 4.954-11.382 2.742-20.621 5.213-31.793 8.692-8.489-14.013-18.651-30.333-20.326-46.744-4.449-43.615 28.657-60.461 64.555-64.511M1020.24 698.27c3.26-.095 6.51.126 9.72.662 30.54 5.382 44.51 28.229 60.43 50.604-25.92 20.127-47.46 53.352-63.41 81.864l-1.97 2.757c-2.04-.856-10.26-16.16-12.25-19.752-14.178-25.49-32.225-43.965-52.534-64.495 11.678-23.265 33.167-47.306 60.014-51.64m-138.225 37.001c22.537-1.509 42.03 7.298 61.042 18.695-12.721 34.414-14.245 70.724-13.948 106.785-7.58-5.211-13.518-9.056-21.475-13.645-27.683-15.675-45.3-20.062-75.081-28.447-3.529-38.554 7.053-73.903 49.462-83.388m237.855 452.719c29.95 22.62 58.91 33.34 95.17 41.85.85 26.92-5.85 52.71-24.34 73.03-27.91 21.83-59.55 5.49-85.15-11 13.73-35.71 14.31-66.69 14.32-103.88m33.72-450.669c47.58-3.788 62.64 41.412 64.23 79.825-27.66 6.376-40.25 10.454-65.18 22.864l-31.65 17.689c-.63-42.533-2.31-62.8-15.72-103.625 14.49-8.033 31.83-14.541 48.32-16.753m-198.487 27.085c23.418 18.67 50.417 60.856 62.767 89.012-9.23 26.775-14.71 40.99-17.22 69.531l-.64 2.44c-1.173-.16-17.34-19.353-20.541-22.854-10.772-11.787-21.752-20.517-34.33-30.042-6.838-31.29.004-78.181 9.964-108.087m138.687.384c10.69 10.082 14.96 87.479 13.04 104.276-13.76 11.262-26.71 23.429-39.34 35.915-4.22 4.166-15.77 18.842-18 20.442-2.15-27.093-8.11-47.046-16.79-72.272 11.05-30.915 36.66-66.796 61.09-88.361m92.54 177.788c31.19-3.055 67.83 3.224 97.3 13.391a278.7 278.7 0 0 1-77.38 53.621l-16.76 7.05c-28.55-10.06-40.35-13.15-70.37-16.749 21.2-17.195 41.63-33.439 56.66-56.814 3.46-.076 7.08-.32 10.55-.499m-91.58 151.672c30.79 10.79 37.81 19.91 75.55 23.01 20.38 28.88 36.82 63.63 43.1 98.63-36.94-7.72-65.9-23.1-95.76-45.33-7.26-37.73-6.33-39.93-22.89-76.31m-238.037-62.28c26.077 8.23 45.232 12.76 72.559 15.39-7.322 7.39-18.302 15.6-26.365 23.16-12.516 11.73-19.242 20.43-29.208 33.91-11.157.64-22.337.65-33.513.77a254.6 254.6 0 0 1-72.976-11.09c19.702-26.56 59.354-48.64 89.503-62.14m-21.444-90.534c10.993-.475 25.088 1.164 36.219 2.22 13.637 19.583 37.877 40.686 55.707 56.124-17.568 2.62-34.228 4.93-50.965 11.09-4.537 1.66-12.901 5.05-17.394 5.2-29.304-13.8-72.94-36.756-93.589-61.885 26.665-8.454 42.678-11.268 70.022-12.749m375.121-109.305c2.4-.466 1.56-.516 3.95.345.24 4.084-2.68 12.256-4.03 16.552-9.96 31.706-22.42 55.487-42.48 81.803-30.7 6.203-38.01 7.963-66.82 20.2-2.3.803-1.46.636-3.87.651-.13-3.046 2.47-8.784 3.69-11.847 8.77-22.15 14.67-39.237 18.4-62.939 30.21-21.826 55.29-35.434 91.16-44.765m-159.97 292.499c1.98 1.78 8.96 9.78 11.13 12.15 15.64 17.06 23.36 26.83 43.04 38.9 4 32.21 2.9 59.15-5.26 91.03-1.03 4-2.88 11.72-4.76 14.82l-1.9-1.18c-25.16-24.99-45.91-52.79-60.69-85.19 10.36-29.74 12.78-39.58 18.44-70.53M835.142 834.26c36.259 7.423 64.857 22.367 94.807 43.307 7.096 30.705 12.015 45.768 22.148 75.36-23.444-12.204-47.738-18.332-73.605-22.254-20.554-26.454-36.784-63.374-43.35-96.413m117.364 263.77 1.212.81c-13.21 19.63-18.267 48.21-23.378 71.41-30.575 22.69-57.724 33.34-94.19 42.55l-1.815-.28c-.727-4.02 2.125-12.21 3.317-16.33 8.616-29.77 23.729-56.06 43.898-79.5 23.072-3.14 49.199-10.67 70.956-18.66m236.344-65.8c24.92 6.61 76.45 41.06 92.65 61.51-23.31 7.6-44.49 10.69-68.73 12.56-12.68 1.19-21.34.7-33.98-.64-20.08-26.32-31.15-35.87-56.67-56.06 25-3.17 43.13-9.53 66.73-17.37m-190.166 91.53c2.146 2.29 2.986 14.37 3.666 18.58 2.92 17.99 8.2 34.15 13.7 51.4-10.13 28.24-35.684 63.67-58.499 83.53l-2.342 1.29c-2.684-3.49-6.535-22.28-7.822-27.88-5.484-23.89-6-49.65-3.677-73.99 25.586-19.52 34.965-28.27 54.974-52.93M889.571 945.94c25.08 2.059 82.009 24.468 93.865 51.133-.32-.72 1.276 4.387.758 2.606l-2.8 2.711.697.68-.492.74c-41.356-8.985-65.586-24.519-92.028-57.87m57.004-56.322c13.663 9.423 31.004 29.676 40.03 43.578 6.052 9.324 19.705 36.24 19.045 47.374-5.821 1.497-9.731 3.37-14.795-1.188-23.39-21.056-39.776-59.32-44.28-89.764m104.915 176.542c.81.17 2.22.65 2.88 1.19 26.32 21.31 39.64 52.53 46.85 84.82.62 2.78.76 4.15-.52 5.89l-2.86-2.07c-18.49-17.39-56.35-59.47-53.84-86.5 2.59-.83 3.5-1.06 5.88-2.41zm16.98-21.93c3.32.51 6.61 1.22 9.85 2.11 27.14 7.35 43.36 17.4 63.35 37.21 4.78 4.75 11.37 11.39 14.71 17.22l-.76 1.44c-32.39-5.8-68.15-22.87-90.14-47.89 1.4-3.55 2.05-6.38 2.99-10.09m-90.301-.09 1.15.3 4.45 7.65c-21.974 30.91-51.443 39.8-86.546 48.95l-2.865.36.141-1.66c4.205-6.73 9.271-11.67 14.679-17.36 20.724-21.79 40.507-30.54 68.991-38.24m123.591-154.253.6.632c.71 4.647-5.7 22.949-7.89 29.302-7.26 21.098-22.16 49.998-41.77 62.285-2.06 1.29-3.93-.011-6.33-.886-2.26-.221-1.3.209-2.93-1.175 7.09-40.946 29.36-62.417 58.32-90.158M996.197 1065.86c4.003 3.04 4.693 1.53 8.313 3.77.43 3.75-3.27 13.29-4.44 17.26-8.141 27.76-25.57 47.59-46.909 66.35l-4.352 2.88-1.029-.69c.403-8.34 3.499-17.17 5.988-25.09 8.542-27.19 21.339-45.75 42.429-64.48m156.073-118.645 1.25.168-.02 1.353c-30.96 35.138-39.23 45.563-84.49 54.204-1.51-2.69-3.69-5.06-5.68-7.447 24.56-27.006 53.71-40.65 88.94-48.278M1023.4 1073.59c2.78 2.73 3.62 5.52 5.49 8.84 17 30.13 6.12 59.87-3.95 91.14l-.29.6-1.03-.48c-14.02-46.11-16.11-57.99-.22-100.1m74.74-60.28c21.31-2.03 53.51 1.36 72.51 11.89-10.1 3.29-19.37 5.47-29.66 7.95-7.12 1.34-14.35 2.1-21.6 2.27-8.16.25-49.54-1.46-48.67-12.84 4.9-5.44 20.17-8.06 27.42-9.27M1025 874.518c.42.795.93 1.686 1.19 2.526 11.86 37.919 15.94 64.623-.98 100.481-7.31-5.638-11.68-26.207-11.9-35.215-.52-20.848 4.11-48.596 11.69-67.792m-99.983 138.852c14.093-1.52 36.813.74 50.435 6.17 2.285.91 2.089 1.92 2.676 3.96-3.71 9.76-34.084 12.52-43.431 12.69-18.556-.47-38.869-6.16-56.309-12.11a239.7 239.7 0 0 1 46.629-10.71"/><path fill="#FEFEFE" d="M991.571 381.422c8.999-.847 23.429-.498 32.559-.58 50.21-.454 96.86 7.131 145.8 17.796 11.31 102 69.63 208.854 148.87 273.541 19.96 16.291 45.6 31.715 67.64 45.515a1069 1069 0 0 0 108.01 60.196c20.74 40.546 46.16 95.514 41.27 141.607 14.81 1.359 53.89 12.243 67.03 21.346 15.24 9.431 64.29 74.177 64.24 91.427-.32 99.27-34.26 210.98-83.97 296.44-19.4 33.35-37.05 56.37-55.48 82.04-25.81-6.43-38.34-15.51-60.03-30.17-45.59-30.8-82.25-37.9-135.72-31.8 84.26-84.25 130.16-185.94 135.26-304.33 8.04-187.012-108.95-368.503-284.23-435.338-41.48-15.818-83.67-26.331-128.07-28.495-110.12-8.058-228.39 30.561-312.899 101.61a445.85 445.85 0 0 0-160.133 303.067C571.205 1108.8 607.694 1226.13 685.957 1321.7c7.908 9.66 17.592 18.4 25.745 28.08-93.912-25.77-109.044 36.4-187.846 62.98-7.011-7.75-14.046-16.78-20.417-25.1a580.83 580.83 0 0 1-119.552-305.26c-.681-8.69-3.503-46.71-1.847-54.09 5.768-25.73 44.342-70.689 66.249-86.284 22.289-15.867 40.564-20.888 66.446-16.637-12.808-43.421 13.269-106.721 40.084-140.902 6.406-8.164 26.659-19.226 35.692-25.562 41.51-29.12 89.474-47.766 129.634-78.783a385.8 385.8 0 0 0 73.764-74.239c39.4-52.987 74.934-141.039 83.434-206.463 42.417-11.164 71.116-15.332 114.228-18.018"/><path fill="#FEFEFE" d="M1288.48 1385.83c10.32 7.59 24.45 42.03 35.46 56.03 26.63 33.86 43.8 46.02 84.94 52.84l10.77 18.62c-64.23 56.17-133.03 97.76-214.21 124.6a580.88 580.88 0 0 1-371.27-1.83c-26.806-9.37-58.178-24.4-83.514-37.13-36.484-18.38-94.117-55.41-118.618-87.38q2.782-8.1 5.374-16.26c89.133-17.45 76.264-43.52 121.367-108.56 51.297 32.46 106.632 58.46 166.549 70.25 128.402 25.25 254.472 1.9 363.152-71.18m-87.8-1042.13c10.97 10.786 12.26 20.619 34.47 25.472 24.5 5.354 55.48-.566 82.17-1.069 68.88-1.296 101.4 14.75 162.04 36.492q0 2.707-.21 5.405c-2.56 33.457-20.63 88.854-38.09 117.309-7.94 12.938-17.56 24.359-29.13 34.109-27.88 21.077-59.54 28.227-92.05 38.834-13.94 4.547-26.86 9.434-40.56 14.726-47.31-60.36-81.65-127.143-96.03-203.799-4.55-24.255 2.59-47.724 17.39-67.479"/><path d="M1372.77 405.404a37.55 37.55 0 0 1 36.36 10.318 37.54 37.54 0 0 1 8.96 36.715 37.55 37.55 0 0 1-27.51 25.91c-20.04 4.647-40.08-7.69-44.96-27.67-4.88-19.981 7.23-40.166 27.15-45.273"/><path fill="#FEFEFE" d="M845.13 343.917c6.877 7.555 16.488 19.292 18.21 30.164 8.582 54.176-29.421 131.601-52.107 179.533-7.415 15.666-22.546 39.078-30.906 52.119-51.084-1.678-110.065-17.532-149.988-49.928-42.114-37.781-53.661-99.462-67.946-151.723 11.577-6.007 23.361-9.843 35.682-14.043 47.567-16.216 95.024-23.817 145.318-20.768 21.714 1.316 46.272 6.552 67.593 3.023 16.007-2.65 25.691-15.802 34.144-28.377"/><path d="M664.726 401.776c20.919-.225 38.057 16.557 38.271 37.476.215 20.919-16.576 38.048-37.496 38.252-20.903.203-38.017-16.573-38.231-37.477s16.553-38.026 37.456-38.251"/><path fill="#FEFEFE" d="M668.433 1569.67c13.184 7.9 27.353 19.09 42.381 27.92 68.333 40.14 129.753 64.77 207.517 79.02a563.9 563.9 0 0 0 160.829 5.97c115.02-11.23 205.49-47.96 300.76-113.66-16 37.78-17.52 61.71-6.96 102.46a990 990 0 0 1-53.52 33.96c-9.17 4.97-18.45 9.74-27.83 14.31-28.74-17.44-65.63-29.59-93.76-51.52-11.16 18.53-24.68 35.17-37.49 52.52-13.77 18.65-30.24 35.31-44.09 53.78-44.64 7.81-133.18 9.27-177.662-.09-30.189-37.63-49.086-63.04-75.819-103.58-35.674 17.99-65.571 32.9-101.975 49.49-28.713-13.53-60.96-35.76-86.578-54.05 11.134-37.09 7.162-59.95-5.803-96.53m972.517-772.964c3.4 1.421 11.08 10.467 13.64 13.724 83.37 106.236 141.36 248.1 107.9 384.15-5.49 22.3-11.52 44.68-22.33 64.69-18.27 33.8-35.67 68.29-62.64 96.12-13.03 13.49-25.42 22.33-41.08 32.16-8.46 5.03-15.44 8.88-24.22 13.32 54.87-74.61 81.64-136.45 93.36-229.75 10.3-82-24.95-157.34-74.77-220.449 28.95-27.104 35.26-73.346 26.77-110.528-3.43-14.992-9.84-29.689-16.63-43.437M412.563 789.95l.434.293c.337 3.403-7.127 14.099-9.114 17.712-19.603 35.648-24.476 76.5-5.692 113.599 5.868 11.592 12.853 21.023 20.522 31.702-36.252 43.688-79.642 112.774-83.332 171.134-4.361 68.98 26.85 164.45 59.504 225.1 9.639 17.91 28.223 39.3 41.483 55.09-5.788-2.4-10.687-4.86-16.281-7.66-112.315-60.33-156.392-237.51-133.811-355.24 16.831-87.751 63.743-187.435 126.287-251.73M980.439 175.5c6.78-.468 14.59-.582 21.461-.85-26.429 32.392-49.623 58.836-77.814 89.789-62.802 12.703-111.404 24.502-169.355 52.948-16.499-8.446-42.547-18.918-60.483-26.88-14.374-6.528-33.054-14.254-47.67-19.645 23.469-14.089 51.978-26.479 77.297-37.003 83.17-34.57 166.573-53.629 256.564-58.359m37.861 95.937c29.78-.79 68.25 2.819 97.7 6.965 2.69 3.83 5.52 6.926 8.58 10.423 18.63 21.296 36.89 42.197 56.95 62.149-6.46 11.909-7.48 14.435-9.91 27.733-52.37-10.96-84.33-15.276-137.57-17.581-61.817-1.25-98.838 5.959-158.158 16.543-1.255-13.24-1.671-15.087-9.227-25.482 22.046-21.858 45.197-48.837 65.113-72.743 28.002-5.632 57.98-6.617 86.522-8.007M1045.17 175c117.6 3.585 242.21 31.538 345.1 90.126-10.94 6.37-21.72 11.734-33.01 17.437-24.85 12.097-46.66 20.675-72.3 30.691-7.27-3.013-14.52-6.192-21.78-9.269-44.94-19.064-90.43-29.549-138.05-39.106-5.58-7.449-15.16-17.226-21.44-24.637-18.83-22.231-39.51-43.253-58.52-65.242M759.336 1737.91c6.11 1.32 16.249 6.04 22.255 8.67 48.249 21.14 97.741 32.62 149.112 43.71 16.523 18.63 31.844 38.43 49.058 56.49 8.928 9.37 17.71 18.92 26.529 28.4-30.837-.64-67.728-4.62-98.058-9.14-77.166-10.1-189.3-47.3-257.441-85.3 35.192-15.05 73.916-26.91 108.545-42.83m532.164-1.11c2.14 0 100.23 38.95 106.33 42.28-78.9 43.41-164.25 69.56-252.6 84.97-35.41 5.71-61.59 7.68-97.02 9.98 12.41-14.65 25.21-27.83 37.95-42.09 12.33-13.79 24.45-28.46 36.5-42.58a562.6 562.6 0 0 0 168.84-52.56m-935.754-224.21c8.628.81 27.878 6.44 37.05 8.56 25.356 5.87 50.985 12.79 76.63 17.37 6.65 7.66 19.027 28.04 25.705 37.73 27.824 40.38 55.273 57.56 97.201 79.09 12.418 35.06 23.577 73.51 33.991 109.28-67.66-31.24-160.448-115.91-209.452-172.24-21.31-24.5-42.07-53.26-61.125-79.79m1334.854 2.69.78.35c-2.74 5.25-25.03 33.21-29.67 39.15a852.8 852.8 0 0 1-228.17 204.44l-1.15-1.11c2.85-16.56 11.29-42.17 14.87-59.57 2.22-10.78 7.73-38.35 11.14-46.89 11.93-7.52 27.73-13.62 40.51-21.01 34.29-19.82 55.91-56.14 72.16-91.39 38.96-4.24 81.43-14.55 119.53-23.97M396.066 524.951c3.975 2.531 6.021 15.282 7.205 20.334-107.326 64.79-200.8 197.283-223.582 320.998-6.747 36.636-8.349 77.641-7.574 114.864l-17.365.031c-1.415.148-5.005.281-5.172-1.643-4.54-67.481 4.797-137.601 29.873-200.612 27.32-68.653 70.71-129.812 122.216-182.283 28.415-28.947 57.05-55.162 94.399-71.689m1261.424-.224c17.7 1.249 69.67 52.857 83.28 67.005 47.41 49.269 97.85 115.925 123 179.661 25.35 64.247 38.16 141.286 36.68 209.859l-14.82-.069c-4.54-.128-4.91.595-8.19-1.435-1.9-14.858-.8-34.415-2.03-50.294-5.58-72.01-20.69-140.815-57.37-203.884-10.79-18.768-23.77-35.901-36.53-53.307-30.36-41.392-66.31-79.526-107.84-109.855-10.29-7.512-22.67-14.561-32.04-22.94 4.95-6.634 9.18-10.185 15.86-14.741m-237.68-242.329c9.65 3.901 27.47 16.689 36.32 22.566 50.27 33.36 94.68 71.978 135.88 115.937 14.52 15.482 28.51 29.833 40.78 47.452-3.1-1.048-9.13-5.195-12.21-7.242-51.08-34.008-106.39-58.465-163.99-78.378-4.09-8.013-7.45-17.65-10.31-26.239-8.27-24.868-18.04-49.311-26.47-74.096m-802.978 5.651.523.535c.96 5.084-18.574 80.713-21.271 89.828-57.999 17.983-129.556 54.064-178.721 89.571l-.422-.262-.015-1.179c59.145-72.68 118.879-130.001 199.906-178.493m405.148-112.458c12.52 6.918 69.24 73.032 79.28 85.965-25.31-3.113-44.26-4.475-69.9-5.401a583 583 0 0 0-81.564 4.979c21.095-29.45 47.924-58.467 72.184-85.543m378.86 101.207 1.24.388c5.35 7.589 29.88 85.417 33.96 97.853-19.39-5.964-38.47-11.664-58.52-14.924-5.95-.966-12.54-1.896-18.11-4.079-20.71-12.536-37.37-22.602-58.79-33.615 33.6-9.634 70.15-27.962 100.22-45.623m36.75 1386.142 1.73.35c.55 7.32-23.01 95.17-26.12 105.86-24.89-9.74-50.52-20.88-75.36-31.16-9.2-3.88-18.99-7.59-28.31-11.29 22.12-10.91 49.94-27.26 69.88-41.5 2.23 3.98 4.53 6.87 7.24 10.5 20.08-12.62 27.53-21.35 50.94-32.76"/><path fill="#FEFEFE" d="M404.662 1250.67c3.495 3.69 15.109 32.59 18.326 39.73 20.926 46.43 45.944 83.88 78.252 122.68l-20.49-.1c-8.988-.84-15.594-1.51-24.407-3.21-29.742-26.9-57.923-71.71-71.857-109.23 6.521-16.7 13.246-33.33 20.176-49.87m1281.298 169.41c.9 1.6 14.77 68.55 15.66 74.28-25.65 9.46-77.27 20.88-104.52 25.87l-14.18 2.48a251.9 251.9 0 0 1 103.04-102.63m-45.9-170.39c9.1 15.45 11.28 34.31 18.31 49.85-16.42 37.46-38.31 79.14-65.52 109.86-9.22 2.53-19.09 3.42-28.6 4.05-4.5.36-11.93-.37-16.66-.68 7.16-12.15 23.17-32.13 31.92-45.14a545 545 0 0 0 60.55-117.94m-545.52 542.74c2.93-.55 1.92-.97 3.7.18-3.76 6.18-13.95 17.1-18.88 22.99-17.11 20.41-35.03 39.55-53.84 58.4-10.22-11.81-21.76-23.93-32.49-35.32-11.863-12.75-28.286-32.12-38.46-45.86 53.13 4.35 87.12 5.25 139.97-.39M634.557 281.847c12.76 3.906 30.3 12.202 42.732 17.805a6043 6043 0 0 0 58.799 26.261c-15.609 7.928-26.677 14.562-41.175 24.075-14.518 10.588-25.927 9.176-42.829 12.701-12.536 2.614-25.017 5.744-37.431 8.899 5.333-28.647 13.631-60.674 19.904-89.741M612.915 1671.98q4.096 3.705 8.325 7.26c19.146 16.09 29.619 24.35 46.77 2.13 12.139 7.1 24.563 16.59 36.446 24.49 12.702 8.44 24.238 14.93 37.645 22.18-6.066 3.08-12.525 5.5-18.848 8.03l-81.165 30.85-17.424-57.88c-3.769-12.13-8.523-24.99-11.749-37.06m-247.013-247.62c47.234 23 71.79 50.61 94.232 98.3l-15.565-3.48c-27.936-8.3-66.939-16.76-95.908-24.11 1.639-16.18 12.851-52.45 17.241-70.71m489.875 266.53c4.842 1.48 38.778 57.68 47.164 64.74 1.305 1.1 9.506 12.27 10.953 14.41-21.892-3.86-37.676-7.59-59.137-13.6a473 473 0 0 1-75.424-27.39c20.373-8.84 56.373-27.16 76.444-38.16m347.143-1.08c23.4 14.03 47.7 26.49 72.75 37.29-28.26 13.07-47.44 20.29-77.45 29.77-19.03 5.79-38.84 10.08-58.27 14.29 22.2-27.13 41.55-53.9 62.97-81.35m-853.934-538.16a563 563 0 0 1 29.229 16.23c6.12 22.7 11.245 40.15 18.967 62.39-3.668 12.27-7.79 23.16-12.587 34.98-2.032 5.55-4.153 10.51-6.487 15.94-12.613-28.11-28.25-98.61-29.122-129.54m555-868.351c.606-.109 2.238-.045 2.928-.04-1.661 7.733-41.348 47.896-49.338 56.243-9.598-13.776-17.625-16.114-25.766.448l-32.594-9.153a1641 1641 0 0 1-23.992-7.209c17.743-8.038 42.952-15.824 61.407-21.878 22.026-7.224 44.594-13.951 67.355-18.411m236.254-.554c37.2 8.829 90.91 23.124 125.92 39.143l-18.49 5.915c-11.66 4.362-21.27 7.558-33.37 10.366-11.31-11.651-13.27-10.171-24.85-.241-18.49-18.05-32.98-34.872-49.21-55.183m552.69 868.355c2.12 32.97-14.38 94.68-26.37 125.95l-5.06-12.51c-4.92-12.21-9.22-22.71-13.33-35.25 7.89-22.11 12.62-40.94 19.29-63.03 4.82-3.5 19.41-11.48 25.47-15.16M278.473 1377.81c5.607 2.46 23.841 14.56 31.182 18.62 13.738 7.61 30.239 14.94 43.047 22.73l-13.587 50.34-3.212 14.78c-18.201-28.48-44.169-74.58-57.43-106.47m1488.587-1.69.67.94c-4.11 19.59-42.52 85.19-54.16 103.31l-1.5-9.6c-3.75-19.55-7.71-39.06-11.89-58.52 25.12-10.01 43.76-22.57 66.88-36.13m-227.91 92.1c7.05-.58 9.82 9.96 12.41 15.72-37.55 11.37-79.08 21.13-117.32 31.38l-1.67.31c-3.4-2.87-7.9-12.7-9.9-17 38.45-8.87 77.81-21.84 116.48-30.41m-1041.492 5.16c33.345-.13 69.082 12.57 101.59 19.61 9.67 2.09 19.352 2.61 29.215 3.47l.667 1.45c-1.386 4.95-6.43 7.52-10.655 10.09-6.113 3.1-9.589 4.55-16.745 5.11-13.985 1.11-107.358-26.11-106.898-38.42zM284.516 555.264c3.12-.39 8.357-.981 10.939.813-3.015 11.87-78.776 65.581-93.725 71.322 9.421-23.325 42.603-40.138 64.13-54.271 3.33-2.192 7.27-5.384 10.503-7.854-36.75 12.639-61.933 35.061-95.868 42.08 28.609-28.423 64.632-44.823 104.021-52.09m1461.134.129c59.19 8.778 84.11 18.119 126.42 59.858-34.85-16.614-61.5-37.688-101.84-47.135-.67-.083-2.07.044-2.81.082 5.22 3.678 19.07 10.898 25.09 14.256 26.08 14.551 39.06 24.353 58.57 46.426-30.89-8.289-58.19-33.83-82.79-53.552-4.96-3.976-19.02-15.496-22.64-19.935M551.008 723.801c4.083-.091 2.648-.859 5.055 1.221.68 11.704-39.587 51.473-49.356 64.869-18.827 25.819-31.877 55.291-48.726 80.501l-1.98.629-1.442-1.259c-.383-1.897-.6-3.478-.214-5.392 7.827-38.822 65.851-119.209 96.663-140.569m938.732 1.75c27.59 3.242 60.68 52.642 74.52 74.591 11.66 18.497 27.82 44.72 26.82 67.177-7.5-4.403-28.79-46.608-35.22-57.107a524 524 0 0 0-22.41-33.297c-10.67-14.565-22.33-28.054-35.01-40.89-3.39-3.423-6.16-6.371-8.7-10.474m20.72-2.562c33.27.631 106.29 79.922 108.67 112.023-10.81-6.418-34.62-39.071-44.72-50.543-20.46-23.228-42.51-40.083-63.95-61.48m-984.595 2.006c.796.695.265.156 1.134 1.964-10.809 19.246-60.025 69.398-76.57 87.884-3.459 3.865-11.339 9.401-16.013 12.13-.506-.707-.894-1.163-1.197-2.032-.934-2.683-.115-5.355 1.024-7.81 9.531-20.564 71.533-85.02 91.622-92.136m230.22-391.096q3.335.64 6.636 1.438c8.738 2.203 52.858 13.811 56.157 19.445l-.734 1.883c-9.608 4.894-28.291 3.6-39.19 3.185-19.246-2.026-47.09-2.809-66.33-3.263 15.82-9.51 26.792-15.165 43.461-22.688m527.485-2.718c15.5 7.144 27.92 14.158 42.68 22.601-19.32.552-38.74 2.994-58.05 4.799-18.16 2.215-25.84.149-42.1-6.36 17.92-7.078 38.82-13.95 57.47-21.04M549.935 750.658c3.281 3.003-3.646 17.605-5.679 20.989-18.756 31.236-36.105 63.023-53.993 94.734-1.737-2.027-1.773-3.058-1.53-6.149 2.546-32.449 38.73-89.269 61.202-109.574m943.825 2.229c5.24 4.138 21.42 20.26 25.45 25.659 23.19 31.112 36.26 47.143 32.92 85.498l-.86-.167c-10.62-25.521-26.68-52.621-39.68-77.106-4.78-8.996-14.54-25.072-17.83-33.884M296.591 531.383c2.474-.449 10.964-.647 13.91-.787-15.55 10.11-33.372 12.904-50.433 18.708-20.654 7.025-38.061 12.599-59.296 17.499l-11.689 1.821c24.663-26.559 72.66-33.027 107.508-37.241m1452.659 1.992c22.11-2.031 40.47 4.525 61.47 10.312 9.5 2.617 42.8 16.196 45.17 25.783l-1.3.877-4.73-.965c-20.54-5.811-40.18-13.015-60.52-19.32-17.59-5.452-35.57-9.786-53.32-15.007 4.19-.678 8.97-1.153 13.23-1.68M362.197 1066.63c1.11 3.46 3.236 25.63 3.87 30.71 2.309 17.73 4.862 35.43 7.657 53.09l-10.333-5.98-14.802-8.87c.51-19.51 5.79-51.17 13.608-68.95M1728.35 504.398c31.12-5.518 77.55 10.216 103.19 28.071-5.44-1.754-9.75-2.874-15.27-4.224-31.35-4.326-75.16-14.369-106.41-21.596 5.82-1.112 12.54-1.629 18.49-2.251m-1433.08-.007c6.791-.679 35.434-1.684 39.486 3.03-1.903 1.272-69.949 14.238-78.178 16.073-12.224 2.473-23.141 4.642-35.489 6.377 22.209-16.003 47.389-22.763 74.181-25.48m1389.98 569.359c5.84 21.73 8.28 38.9 9.69 61.22-4.46 2.11-9.19 4.69-13.6 6.98-2.84 1.8-5.35 3.74-8.33 3.47.32-8.05 3.65-22.5 5.13-30.92 2.33-13.28 4.23-27.77 7.11-40.75m-143.01-357.179c17.78 5.201 57.44 39.366 69.51 53.762-29.14-6.715-53.17-29.699-69.51-53.762M502.322 726.975l1.818.43c-2.7 9.379-37.065 34.488-47.87 37.045-3.29-2.004-3.15-1.235-4.616-4.148 2.287-13.556 38.435-29.292 50.668-33.327"/></svg>