<svg xmlns="http://www.w3.org/2000/svg" preserveAspectRatio="xMidYMid meet" viewBox="0 0 2048 1462"><path d="M676.18 104.503c42.026.346 84.067-.424 126.095-.315 306.105.789 612.585-2.875 918.535 7.978 14.04.498 82.59 1.232 90.29 6.251 3.3 2.151 6.02 7.166 6.49 11.026.29 2.345-.39 4.617-2.01 6.351-8.16 8.7-46.1 3.304-58.44 3.096 2.68 16.836 3.39 46.997 4.37 64.946 2.6 48.823 4.64 97.674 6.13 146.544 6.46 163.162 9.22 326.45 8.28 489.737 16.27 3.185 21.47 15.372 29.95 28.324-7.29-26.195-12.67-52.539-14.66-79.816-.71-11.04-2.91-31.676 5.05-40.464 9.37-10.339 24.71 14.446 28.6 20.228.13-2.662.28-5.324.44-7.985 1.6-25.677 4.88-59.854 23.42-79.541 1.79-1.904 6.39-3.351 8.99-2.7 15.8 3.95 18.11 23.529 18.99 37.021 1.55 26.074-2.1 51.391-5.72 77.028 25.74-39.282 49.44-27.849 43.08 11.159-2.57 15.751-32.58 65.609-41.93 82.08 9.96-7.47 37.41-36.804 50.3-27.767a16.08 16.08 0 0 1 6.58 10.794c3.11 21.632-33.69 54.818-47.7 72.379 6.37-4.345 34.58-18.855 35.2-1.396.7 19.523-21.39 39.236-34.47 52.167-11.57 11.442-22.01 23.612-32.82 36.282 15.02.63 32.73.21 48.06.28 4.48 3.4 6.05 5.35 9.77 9.63-.01 5.42-.47 10.87-.85 16.28-2.27 32.4-5.58 64.72-7.03 97.18 13.35.61 61.39-4.05 69.87 3.36 2.44 2.12 3.86 5.42 4.02 8.62.15 3.02-1.01 5.64-3.22 7.7-2.92 2.72-6.93 3.99-10.79 4.64-13.38 2.27-46.02.42-61.26.45-1.9 13.53-3.4 20.57-7.91 33.37 14.62 15.81 97.89 103.99 100.13 115.74-.77 3.96-2.18 6.3-6.49 6.45-39.47 1.38-78.91 4.1-118.35 6.22-29.74 1.59-59.72 2.06-89.4 4-38.43.93-78.91 4.33-117.46 5.67-106.82 3.73-214.87 8.29-321.73 9.42-121.97 1.29-245.78-3.48-367.903-5a16762 16762 0 0 0-361.578 1.07c-93.573.98-187.582 4.63-280.809 12.68-36.518 3.16-70.506 6.42-107.307 4.55-37.82-1.91-82.355-5.29-92.39-50.23-5.06-23.07-1.65-49.27 16.611-65.94 6.465-5.9 14.968-10.97 20.207-18.17 11.874-18.49 23.626-37.9 35.309-56.51-35.835-.38-72.205 2.06-107.968.21-4.373-.23-10.185-.21-13.2-3.88-3.126-3.8-3.265-9.83-2.586-14.48.522-3.57 2.153-6.4 5.242-8.36 5.253-3.32 123.142-2.58 134.663-.57 8.677-12.02 27.913-40.75 38.562-47.94 3.908-2.64 41.352 1.53 49.366-2.38 1.026-5.13.508-25.81.491-32.34l-1.071-85.165-9.239-325.041a15781 15781 0 0 1-7.789-268.991c-1.14-83.736-.163-166.124-.284-249.631-14.508.008-37.809 5.886-50.789-1.802-2.045-1.211-4.186-4.988-4.036-7.483 1.219-20.285 27.541-16.561 41.988-17.336a5159 5159 0 0 1 70.986-3.573c110.084-4.744 222.805-4.168 333.124-6.105"/><path fill="#fefefe" d="M1643.46 141.958c2.07.281 1.17-.124 2.76 1.345 1.29 9.309 1.17 26.295 1.43 36.203q1.11 31.422 1.2 62.866l.16 170.959c.08 62.371 1.03 124.738 2.84 187.082.78 20.738 1.6 41.538 2.71 62.256.74 13.675 2.55 27.385 2.72 41.066-53.74 10.556-116.17 26.642-169.71 40.366-7.29-18.237-11.8-35.698-20.77-54.507-20.21-42.399-54.43-82.18-89.25-113.31-18.95-16.934-29.48-19.826-53.17-17.922-7.84-8.773-13.15-20.427-18.04-31.067 20.89-14.435 20.93-35.446 32.11-57.553 5.48-10.849-1.64-27.179-7.22-37.687 5.58-20.433 11.83-43.502-9.29-57.558-11.39-7.577-24.84-10.573-36.49-17.695-11.67-7.139-21.43-18.341-34.86-22.49-15.42-4.566-33.85 2.124-49.29 2.75-13.99.425-26.95-6.415-41.03-5.628-11.32.633-20.48 3.999-29.44 10.886-15.75 12.086-20.38 35.727-40.98 41.172-11.72 3.098-27.19 8.566-30.86 21.64-2.25 8.403 1.36 20.693 5.6 28.108 7.16 13.014 19.25 17.157 32.64 20.938-.67 24.456 3.23 39.893 5.71 63.822.55 5.294-3.76 13.339-2.54 19.813 1.51 7.955 7.58 11.11 13.86 15.519 18.46 46.025 39.52 47.545 84.3 43.985 4.34 6.828 14.1 27.654 17.07 35.097a5134 5134 0 0 1-64.78 68.748 573 573 0 0 0-7.16-23.303c-18.98-56.941-36.88-86.459-91.76-113.93 8.26-19.923 6.74-45.507-14.92-55.712 15.34-27.955 17.42-58.47 2.26-87.319-21.04-40.046-81.429-60.178-121.511-37.883-30.824 17.147-44.639 50.2-54.155 82.218-2.942 1.716-6.193 4.001-9.071 5.911-14.084 11.528-13.133 26.374-9.267 42.656-24.429 32.006-31.607 75.06 21.299 75.193-39.957 16.91-59.809 27.233-93.259 53.658-21.962-16.916-43.365-32.323-67.56-43.785-19.851-9.405-24.827-16.285-29.118 7.841-.406 2.281-6.895 1.186-10.101 3.372-3.843 6.254 9.863 55.473 12.083 67.631-62.845-15.538-106.507 58.943-129.602 106.606-14.522-.691-34.186-3.791-48.723-5.595-41.678-5.172-81.801-12.46-122.34-23.633-1.833-15.024-2.019-32.299-2.517-47.589l-2.107-65.194a3330 3330 0 0 1 .621-233.787 4622 4622 0 0 1 10.292-158.722c1.605-21.309 5.105-84.578 9.517-101.222 27.234 6.005 52.943 13.214 81.356 18.839a2251 2251 0 0 0 217.753 30.316c68.884 6.341 146.476 9.353 215.64 10.632a4061 4061 0 0 0 459.7-18.111c70.89-6.817 139.27-15.467 208.86-31.359 22.84-5.217 44.18-9.174 66.4-16.933M935.719 879.042c3.078 1.688 6.375 3.692 9.433 5.474-8.411 9.981-19.237 19.366-28.13 29.043-18.512 20.141-38.784 41.115-56.371 61.984a3411 3411 0 0 0-85.016 106.757c-10.742 13.93-33.816 48.27-45.646 57.35 1.32-5.27 3.9-9.43 5.685-15.19-.767-2.3-1.426-3.1-3.769-4.19-9.823-4.55-12.969 12.87-14.462 18.35-29.034 9.54-48.61 23.53-75.918 35.8-17.348 7.8-40.709 8.98-56.974 20.04-21.44 14.58-16.124 28.61 5.515 38.06 24.645 11.14 50.895 25.27 77.832 28.49 18.361 2.36 41.578-5.13 59.125-4.51 68.031 2.41 98.277 16.15 104.235-67.57 26.243-4.74 31.579-8.54 49.248-27.96 12.439 7.53 22.313 7.51 34.569 13.37 17.047 8.15 11.55 35.45 3.331 48.39-9.336 14.7-29.751 17.77-45.865 16.11-5.969-.59-15.26-2.99-20.991-1.79-4.137 3.53-3.693 6.67-.319 10.44 29.521 10.18 41.283.03 66.037.92 46.563 1.67 95.012 5.82 141.612 5.63 69.32-1.01 138.24-4.29 207.59-4.02 58.13-.54 108.3 22.4 166.93 20.92 91.5-2.31 118.66-46.33 117.27-131.94 14.89-2.84 22.38-5.61 22.03-23.23-.2-9.79-1.34-19.98-2.11-29.75 51.97 10.95 82.9 38.03 121.37 71.26-.41 24.13 2.39 52.4 17.11 72.14 20.8 27.89 46.99 19.45 76.97 23.96 4.22 5.86 7.68 9.85 12.84 15.01 17.87 17.86 34.78 37.79 53.45 54.77-25.17 2.45-52.29 3.25-77.59 4.49l-131.54 6.03c-66.34 3.02-132.71 5.28-199.1 6.8-28.06.62-56.79 1.89-84.85 1.5-8.33.84-28.1.33-37.19.35-28.14.01-56.27-.22-84.4-.7-72.62-.47-145.24-1.49-217.84-3.07-110.705-1.4-221.419-1.61-332.125-.62-51.425.41-105.032 2.04-156.038 1.83 10.742-21.88 16.693-43.6 14.558-68.16-1.075-12.37-4.709-26.64-15.057-34.64-28.46-21.99-201.577-27.32-244.591-20.62 5.265-13.07 26.206-54.68 33.496-66.85 22.505 13.71 49.656 21.07 75.247 26.96 22.391 5.16 46.091-3.74 68.834-5.38 20.701-1.62 41.733 2.45 62.334.98 34.966-2.49 33.088-46.3 37.556-72.71l168.489-8.56c4.7 4.6 9.244 9.34 13.624 14.24 13.547-20.15 33.504-44.53 48.346-64.86-4.913-10.92-22.413-37.52-29.185-49.879-10.927-19.948-24.425-42.852-36.68-62.176-1.705-2.689-3.617-3.329-6.445-3.705-8.332 4.412-47.92 64.346-59.706 78.71 20.705 27.69 36.363 47.78 58.888 74.64-11.76 1.41-23.447 1.1-35.185 1.76-30.318 1.71-62.615.78-92.643 3.13l73.065-101.979c12.982-18.488 25.901-37.02 39.077-55.374 20.982-29.227 32.243-3.045 43.855 16.396a2443 2443 0 0 1 26.883 45.996c8.188 14.531 16.127 30.601 26.578 43.431 32.42-46.331 91.569-113.263 132.724-152.078"/><path fill="#fefefe" d="M1332.95 569.101c22.23-2.06 43.96 25.49 57.98 38.933 51.26 49.111 74.4 104.64 92.95 171.853 16.74 60.662 31.37 122.978 43.62 184.86 7.18 34.482 18.78 68.093 25.31 102.683 1.37 7.26 10.98 53.85 1.72 55.15-59.7 8.36-115.43-28.68-163.77-58.33l-90.49-56.41c-18.31-11.553-34.05-22.197-53.05-33.232-.35-18.719-1.87-47.706-5.86-65.911 7.78-9.417 22.34-23.632 31.3-33.397a6616 6616 0 0 0 63.65-71.185c5.06-6.014 22.6-20.655 15.16-27.522-2.48-.544-4.55-1.445-6.92-.013-8.44 5.098-25.74 26.599-33.41 35.283-29.99 33.946-99.99 117.276-141.5 129.837-9.77 2.956-19.97 3.52-30.09 2.634-45.71-3.999-124.72-34.944-166.252-56.924-17.446-9.235-33.041-21.578-50.517-30.915 26.443-11.758 35.906-43.249 36.382-70.005 26.107 5.082 53.877 13.757 80.447 20.617 25.32 6.535 57.29 18.952 83.42 21.141 4.88-.155 12.36-2.945 15.91-6.202 56.17-51.562 67.8-127.947 113.46-186.541 22.8-29.256 45.68-51.909 80.55-66.404m328.81-433.914c22.47-.461 47.24 1.531 69.98 2.512a10924 10924 0 0 1 17.01 498.894l.62 104.18c-.03 10.649.77 34.545-.83 43.437-4.5.729-8.41-1.054-11.54 2.924-3.23 3.792-1.92 9.607-2.41 14.125-2.94 27.144 9.18 50.963 12.32 76.384l.17 1.423c-7.02-8.856-15.73-38.08-25.54-51.877-11.48-17.808-28.4-32.415-49.34-37.49-11.01-2.669-25 .98-25.74 14.401-1.54 27.781 19.18 56.032 34.85 77.056-5.42-1.633-16.63-5.527-21.45-5.331-21.18.972-15.74 16.696-6 28.153 15.46 18.162 35.98 30.221 54.97 44.669-31.5-7.442-50.93-2.823-26.31 31.842 9.93 13.985 25.13 25.301 39.01 35.201 6.34 4.44 12.78 7.88 19.65 12.82-55.79 1.27-52.92-9.96-53.16 51.55l-52.13 1.12c-4.28.11-27.75.87-30.25.13-12.12-3.59-25.57-7.65-38.12-11-5.98-30.78-15.79-62.59-22.78-93.525-16.31-72.044-30.45-150.325-53.89-220.147 7.57-1.392 16.65-4.106 24.41-5.921l72.88-17.526c16.12-3.785 32.26-7.456 48.43-11.012 10.72-2.351 24.09-4.762 34.11-8.251 1.54-1.806 1.55-5.678 1.39-8.082-9.7-146.483-8.61-294.303-8.44-441.103q-.075-42.249-.78-84.492c-.31-14.676-1.37-30.568-1.09-45.064M354.132 136.47c8.389-.051 17.026-.343 25.435-.53-6.762 43.807-9.209 92.54-12.547 136.745a3354 3354 0 0 0-7.93 385.997c1.041 33.473 1.393 71.395 3.716 104.529 27.111 16.166 145.71 32.611 179.919 35.01-28.89 49.911-51.577 108.035-76.213 160.416-9.769 20.772-16.877 41.091-27.649 61.893-35.061 60.47-42.081 63.09-108.04 82.94-1.117-15.49-.821-35.24-.979-50.93l-.864-93.541q-1.624-96.02-4.854-191.998c-5.813-208.068-16.106-419.811-10.357-627.786 13.331-1.378 26.964-1.991 40.363-2.745m240.462-4.997c51.045-1.08 104.406-.275 155.664-.38l338.582-.144c111.29-.454 222.59-.14 333.87.941 64.49.431 132.3.276 196.67 2.518-68.39 17.488-155.13 31.202-225.35 38.279a3899 3899 0 0 1-360.68 21.178c-198.347 2.854-400.958-5.336-595.529-48.83-13.72-3.067-30.424-5.537-43.395-10.449 65.922-2.412 134.142-1.881 200.168-3.113m364.977 310.061c2.844 1.898 5.625 12.032 8.229 16.148 12.48 19.728 27.701 31.229 49.74 37.129-1.12 5.646-2.43 15.885-.53 21.3 3.42 9.715 11.38 5.274 18.83 8.774 3.25 5.274.86 10.22-1.17 15.472-6.18 15.932-18.6 11.501-30.02 16.868-4.11 1.929-13.683 19.863-17.965 23.631-22.378 24.503-56.124 30.954-81.835 7.86-22.332-22.661-21.483-40.492-25.164-68.923-4.334-.44-12.585-.071-15.977-2.106-10.03-6.02-10.773-23.733-5.095-33.057 1.964-3.225 6.134-7.32 9.904-7.741 10.39-1.16 14.031 12.892 21.327 17.398 7.288.645 15.472-5.816 21.8-9.839 4.938 5.48 22.833 14.489 27.582 4.763-2.18-9.425-14.695-9.85-22.515-10.349 19.57-10.621 29.487-20.47 42.859-37.328"/><path d="M920.386 547.544c7.688 1.21 6.635 4.004 10.899 9.634 6 7.923 24.975.62 29.775 8.041-1.108 4.164-.493 2.661-4.118 6.261-14.405 5.742-24.79 2.598-36.113-7.416-3.172-7.86-5.391-9.165-.443-16.52m28.775-30.235c10.634 6.626 1.43 25.629-7.701 29.306-9.542-9.688.291-21.103 7.701-29.306m29.668-22.24c7.961-.088 21.721 3.445 22.971 12.568-1.14 2.169-1.4 2.103-3.459 3.356-6.346-2.655-22.551-5.584-24.406-10.793 1.613-3.691 1.056-2.518 4.894-5.131m46.551 33.726 1.88-.05c3.03 1.841 2.05.571 3.09 3.894-1.05 7.437-8.3 14-13.75 18.651-2.25-.214-2.18-.418-4.06-1.776-2.48-7.506 6.75-17.151 12.84-20.719M868.046 490.48c10.685 1.376 13.067 11.058 6.193 18.707-10.072-2.66-11.734-10.506-6.193-18.707m112.461 26.169c12.741 1.045 9.25 10.785 4.258 18.284-1.701-.315-3.343-.652-4.872-1.501a7.32 7.32 0 0 1-3.639-4.971c-.864-4.256 1.92-8.572 4.253-11.812m-64.111-14.083c4.789-.13 5.834.098 8.434 3.931.721 5.733-1.179 8.129-4.508 12.483-12.49-1.584-8.789-9.107-3.926-16.414"/><path fill="#fefefe" d="M1227.66 476.045c25.32 1.214 22.04 27.304 10.14 41.807-2.03 2.484-5 6.785-6.14 9.696.69 3.653 4.05 7.535 7.72 5.467 10.04-5.65 14.47-14.256 18.79-24.534 11.64 7.747 21.95 12.551 34.39 18.721 6.52 15.057 10.45 23.978 19.44 37.542-32.88 14.947-57.35 46.744-78.99 73.653-3.66-13.609-15.58-36.839-23.54-48.469-9.3-9.158-24.94-2.918-37.16-3.473-5.57.483-10.86-1.477-16.18-2.001-2.4-.238-16.09-5.546-11.44-8.84 8.98-6.372 29.01-16.506 20.1-30.364l-2.03-.42c-9.35 3.942-15.46 22.599-27.41 20.661-10.9-5.409-5.4-15.547-8.52-21.533-3.07-2.759-7.18-2.515-11.92-3.686-4.36-5.342.85-20.387-.79-32.231l-.19-1.284c6.44 11.033 18.58 27.574 33.6 12.06 5.53-5.721 3.86-16.581 2.85-24.118 11.2-1.982 33.71-7.93 44.54-11.218 13 16.812 17.05-1.575 31.52-6.988z"/><path d="M1231.82 487.38c11.97 5.326 3.66 15.463-1.71 22.155-13.31-5.015-5.29-15.577 1.71-22.155"/><path fill="#fefefe" d="M735.361 1159.78c2.629.23 14.52 8.54 20.607 10.91 20.217 7.87 40.899 15.65 62.3 19.54-3.719 33.22-6.397 62.32-48.076 55.34-24.532-4.11-50.914-2.83-75.428.97-36.936 5.12-55.613-5.44-88.487-21.28 22.078-21.43 47.943-15.78 72.178-26.26 15.868-6.86 42.503-27.82 56.906-39.22m-265.28-84.88c4.68 1.15 24.026 10.03 32.268 12.73 17.558 5.75 31.413 8.35 49.132 12.79-2.535 10.29-6.045 42.63-9.847 48.26a23.93 23.93 0 0 1-15.329 10.08c-10.264 2.04-34.767-1.45-47.333-1.54-21.473-.15-34.345 2.52-55.218 6.26-3.042.58-5.617.96-8.713 1.15a74.6 74.6 0 0 1-18.206-1.19c-10.741-1.98-45.718-12.48-56.864-18.8-1.166-.67-.863-1.44-.926-2.93 7.306-7.37 35.027-9.86 45.087-12.32 35.868-8.78 68.327-20.06 85.949-54.49m407.543-458.899c4.587 4.601 19.282 92.781 21.922 107.398-6.815-.532-20.265-2.531-25.2 1.355-.469.198-6.049 3.97-6.017 3.975-11.732-1.826-62.628-25.416-68.395-7.37l-.303 2.747c-2.049 1.798-3.791 3.572-5.716 5.502l-.809-.126a1414 1414 0 0 1-21.979-76.245c42.042-11.139 66.219-20.395 106.497-37.236m341.656 32.685 1.56 1.199c.86 4.019-4.24 13.768-6.25 17.551-20.41 38.375-51.96 124.627-89.28 147.599-20.56-1.105-66.39-16.839-89.4-22.867-9.43-2.536-17.37-4.799-26.61-7.936 112.17-20.673 134.28-56.144 209.98-135.546"/><path fill="#fefefe" d="M810.562 726.925c29.266-1.84 76.164 30.677 91.192 28.975 2.5-2.165 1.713-.834 2.311-4.202-3.263-7.566-14.757-10.034-20.739-16.162l1.363-.979-1.131 1.238 1.443-1.271c4.809-.034 13.142 1.533 17.867 2.5 7.929 23.411 23.651 31.487 43.186 46.913a65 65 0 0 1 .052 4.346c-.48 21.498-6.623 37.46-22.149 52.457-25.06-9.427-92.052-35.129-107.172-55.116a617 617 0 0 0 19.863 9.373c7.61 3.548 23.831 11.366 29.907 3.46-.108-6.971-15.153-10.41-21.311-12.75-18.453-7.011-33.296-14.638-47.596-28.68 17.408 5.111 49.978 30.285 69.758 25.533l1.173-2.246c-6.716-12.398-65.704-24.651-65.306-40.682 3.743.093 11.307 7.132 15.153 8.288 11.977 3.603 49.333 29.274 57.384 14.299-.893-2.123-1.539-3.163-3.833-4.166-21.719-9.498-43.423-14.73-61.415-31.128M1834.31 1040.47c6.72.14 55.91-.24 58.3 1.31 1.07 5.51-.35 15.01-.95 20.91-39.31 1.63-87.42.58-127.41.43l-64.12-.18c.62-8.1.67-12.8.47-20.82l.73-.07c15.32-1.4 32.88-.97 48.53-1.01q42.225.195 84.45-.57M679.185 623.262c7.335 2.363 17.229 8.105 24.712 11.218 17.723 7.372 35.786 13.832 54.512 18.081 2.592 8.784 4.865 18.523 7.395 27.48 2.08 7.366 6.059 19.391 7.316 26.466l-1.583.306c-19.193-13.857-52.999-20.113-75.917-13.541-3.199-19.414-11.634-50.265-16.435-70.01m-63.941 149.442c4.186-.125 5.557-.201 7.957 3.191.215 5.672-14.052 31.509-17.504 37.94-31.002 57.513-58.629 116.832-90.079 174.114-11.904 21.681-24.675 46.131-38.635 66.361l-.71.32-2.472-1.02c-.861-1.16-2.16-2.72-2.305-4.19-.63-6.41 26.802-52.516 31.497-61.225A8542 8542 0 0 0 576.551 847.1c9.508-18.663 28.183-58.972 38.693-74.396M438.952 1045.12c7.428 3.43 17.361 9.78 24.211 14.21-11.56 35.56-47.228 48.85-80.599 56.39-20.533 4.64-38.885 4.02-55.873 18.49-.984 1.53-1.125 1.42-2.758 2.31-5.715-.83-17.942-2.37-16.653-10.09 4.959-5.53 17.816-6.96 25.361-9.28 51.195-15.69 78.54-21.79 106.311-72.03M1902.61 1252.4c2.05-.45 3.23-.27 5.34-.22 6.94 3.19 20.23 19.16 24.88 25.68-30.34 2.83-61.68 2.94-91.9 6.47-1.52.35-2.66.61-4.2.84-8.94-4.8-19.52-17.45-26.7-25.34 23.79-4.09 66.63-5.25 92.58-7.43m41.85 39.04 1.38.01c3.84 2.19 19.49 22.4 23.62 27.55-5.27-.39-10.5-.32-15.78-.1-26.57 1.12-53.1 2.85-79.67 3.8-6.71.91-21.13-17.85-25.98-23.81 2.15-2.17 87.55-6.86 96.43-7.45m-833.37-844.001c14.37-1.232 24.63 7.74 39.2 9.326 11.99 1.305 24.15-1.794 35.54 1.289 3.88 1.05 7.05 12.465 8.41 16.361-10.72 3.527-34.76 8.559-47.02 11.662-11.4 2.88-22.81 5.681-34.24 8.405-.74-6.371-1.17-12.909-1.93-19.411 9.06-2.049 24.21-2.34 31.86-5.779 1.38-3.352 1.11-1.976.34-5.872-6.27-6.469-26.54-1.215-34.2 1.3-.21-5.089-1.63-13.995 2.04-17.281M341.487 1267.39c10.629.48 36.865-1.75 42.328 2.43 3.908 5.9.641 29.04-.622 36.93-11.854.17-33.797 2.35-44.059 1.18-.608-12.76-.278-28.13 2.353-40.54m668.453-214.19c4.85 1.28 15.33 9.3 17.64 13.92l-1.17 2.41c-3.68 1.52-12.03-9.66-22.62.14-31.171 28.81-59.322 55.96-94.301 80.47-3.428 2.01-7.187 4.52-10.578 6.67l-8.615-4.03c25.55-20.44 50.555-39.93 74.534-62.3 9.706-9.06 33.895-33.93 45.11-37.28M890.539 592.495c7.928 4.63 11.354 12.939 25.235 18.102 22.007 8.185 35.977 4.81 56.521-3.373-3.814 5.519-5.975 9.08-10.975 13.519-18.107 15.315-49.244 27.727-66.284 3.054-6.777-9.813-6.882-20.016-4.497-31.302M202.884 1200.11c19.784.12 55.313 3.32 73.432 1.81l-7.524 13.95c-7.326.68-14.639 1.51-21.933 2.47-9.773.44-53.856 9.01-63.445 11.78 4.471-8.64 13.409-22.25 19.47-30.01m50.869 68.47c3.058-.19 6.556-.84 9.147.52 1.126 5.08-.082 35.01-.255 41.83-8.588.46-19.14.22-27.894.22-2.119.08-2.18-.09-4.227-.77-3.449-6.3-1.987-32.2-1.363-40.23zm160.345 1.31c12.678 1.4 27.256 1.75 40.052 2.18-1.528 7.89-.076 29.99-2.285 33.02-12.77-.41-27.793.54-40.909.74-.852-12.07.208-24.2 3.142-35.94m-190.984-104.15c17.83 2.82 52.542 4.16 70.813 4.66-2.395 4.42-7.149 13.91-10.228 17.29-15.931 1.31-55.809-1.68-73.695-1.74 4.869-8.87 6.269-12.48 13.11-20.21m145.386 154.8 15.015-.57c1.577 9.49 3.113 18.34 5.112 27.76-9.969.24-19.929.78-29.866 1.61-5.003.78-10.019.48-15.089.37-3.019-11.04-3.728-15.85-3.814-27.28 9.429-.96 19.137-1.22 28.642-1.89m-15.412-93.56 42.885 1.72c-3.634 8.14-4.885 19.2-8.156 25.64l-2.571.59c-28.114-2.55-53.369 11.85-32.158-27.95M1787.79 959.5c2.32 2.537 12.72 25.544 14.81 30.382 6.14 14.158 15.5 24.788 22.18 36.718l-.81 1.68c-11.77-.47-23.54-.69-35.32-.63 1.2-20.44-.43-47.162-.86-68.15M451.286 1317.46l2.083.35c2.12 1.94 4.355 17.65 8.269 24.91-12.943.13-27.577.71-40.362 2.69-3.277-.37-1.982.27-4.292-1.41-3.16-7.88-3.931-15.63-5.189-24 13.947-1.85 26.433-.64 39.491-2.54m-24.853-88.04q20.742 3 41.446 6.27c-5.232 7.74-7.929 14.94-11.562 23.5-10.564-.59-30.748-1.46-40.583-3.38zm-179.29 94.14c2.943.49 12.326.25 15.785.25 1.092 10.3 3.186 21.32 3.697 31.45-2.327.91-11.417 1.3-14.465 1.51-5.83.13-12.015-.05-17.874-.12-1.338-10.84-2.467-21.85-3.674-32.71 5.501.11 11.03-.17 16.531-.38m55.059-56.09 12.919-.37c-.63 14.33-1.408 28.38-.979 42.74l-9.829 1.26-13.814-.05c-1.094-8.73-1.55-34.48 1.306-42.41 3.144-1.59 6.738-1.17 10.397-1.17m-100.735 2.95 9.606-.28c-1.255 8.45 1.086 34.98-1.844 39.33-4.69.09-6.492.12-11.192-.58-4.322-.26-8.826-.69-13.159-1.06-1.742-15.2-.455-21.36 1.513-36.39q7.544-.42 15.076-1.02m62.257-40.02c2.026-.17 2.582-.01 4.566.26 2.613 4.41-2.546 17.01-3.473 24.24l-.145 1.18c-9.091-.46-19.278.71-28.428 1.47-.82.13-1.263.34-2.27.36-6.954.12-1.088-21.13-.429-24.71 9.057-.39 20.944-1.89 30.179-2.8m964.256-311.421c4.55 5.805 5.1 37.642 4.95 46.082q-10.26-6.025-20.43-12.181l-17.13-8.307c10.85-8.861 21.25-15.986 32.61-25.594M186.012 1320.8c8.801 1.07 16.734 1.74 25.581 2.36.681 12.56 1.94 20.83 5.2 32.9-9.451-.69-18.122-1.73-27.526-2.9-1.225-10.47-2.938-21.93-3.255-32.36m535.436-170.85 2.364.72.815 1.71c-2.181 4.22-10.424 9.61-14.538 12.58-12.923 9.32-24.44 18.49-40.053 22.88-1.162-1.03-3.42-9.69-4.081-11.89 24.393-12.51 28.791-16.92 55.493-26m-481.958-8.24c13.048 2.83 60.036-2.57 65.782 6.82-.698 3.33-1.154 2.81-4.121 5.73-21.45.1-47.929-1.6-69.869-2.37 2.841-3.19 5.558-6.8 8.208-10.18m52.83 182.48c7.832-.09 14.312-.27 22.154-.87.874 9.78 2.311 19.63 3.614 29.37-8.634.15-14.398.13-22.966 1.59zm21.822-96.61 9.352.61c-2.673 7.66-4.86 17.67-7.234 25.8l-14.759.54-9.136-.6c2.35-7.74 4.297-17.47 6.117-25.5zm379.672-517.237c4.822.072 9.127.054 12.22 4.402-2.163 7.599-23.43 7.132-32.037 11.736-8.946 4.785-8.302 4.035-16.083 11.787-2.604 1.783-2.488 1.655-5.699 1.811-2.667-1.902-1.779-.64-2.497-4.082 4.174-16.41 29.798-23.297 44.096-25.654M146.46 1270.24c3.433 1.83 8.746 1.97 12.813 2.4-2.566 9.04-2.632 25.16-4.93 29.54l-1.663.33c-5.89-1.81-8.278-1.52-14.495-1.37 1.493-14.56 1.131-18.35 8.275-30.9m475.588-77.11c1.763.18 1.063.17 2.873 1.59l-.441 2.99c-4.887 4.36-11.849 6.87-17.115 10.58-3.48 2.46-7.795 8.46-11.712 10.84-1.663 1.01-2.44.23-4.948-.45-2.548-1.55-2.957-2-5.119-4.11-3.198-12.78 27.593-18.9 36.462-21.44m-413.853 45.03c4.291-.11 4.14-.87 6.503 1.2.575 3.99-1.853 13.57-2.613 18.69l-12.401.4c-4.872.6-7.928 2.18-10.645-2.24-.132-4.12 2.426-9.59 3.984-13.64a576 576 0 0 1 15.172-4.41m277.963.61c4.89 1.29 14.26 1.35 17.088 5.12-.061 2.62-6.875 14.82-8.668 18.84-2.329 1.79-11.499-.49-17.522-.55a708 708 0 0 0 9.102-23.41m-11.772 35.21c4.639.22 10.548 1.04 15.189 1.64-2.051 8.92-2.77 19.31-3.132 28.44-3.016.11-5.59.06-8.609-.01-8.469-4.12-4.228-21.76-3.448-30.07m-215.334-156.95c6.61 1.32 32.479.1 34.977 2.15-1.109 3.04-2.126 5.49-3.439 8.44l-2.34.56a981 981 0 0 0-39.112.05c2.814-3.58 6.796-7.75 9.914-11.2m-119.848 196.34 17.974 4.34c.328 9.94 2.146 17.57 4.592 27.01-13.627-5.04-19.6-18.22-22.566-31.35m1545.626-207.03c2.61-.52 3.05-.79 5.5.32 1.79 3.22.73 8.32.39 12.32-6.83.25-14.27.7-21.04.37-3.1-2.22-6.71-4.09-7.86-7.44l1.09-1.8c3.47-1.72 16.84-3 21.92-3.77M475.271 1317.03l11.861.05c2.462 10.52 3.868 14.76 9.373 24-4.597.12-8.895.48-13.472.86-2.75-8.93-5.832-15.34-7.762-24.91m1408.329-94.48c4.08 2.81 11.29 11.72 14.85 15.83-4.37.32-8.73.61-13.1.87-4.33.73-12.63.98-17.28 1.26 5.5-5.88 10.91-11.35 15.53-17.96m-744.24-723.084.46.042c4.48 5.209 1.98 15.07-8.18 14.852-3.33-3.564-6.62-6.58-4.29-11.27 3.68-2.614 7.48-2.818 12.01-3.624M653.653 1183.07c2.814 2.45 2.407 5.75.807 8.64-4.069 2.61-9.042 3.1-13.864 4-1.007-2.49-1.29-2.83-1.072-5.58 3.088-3.92 9.048-5.2 14.129-7.06m979.277-89.66c10.87.78 20.85-1.13 32.16 1l-.38.76c-8 .22-15.78 1.61-23.69 2.82-3.49-1.53-4.9-2.47-8.09-4.58"/></svg>