<svg xmlns="http://www.w3.org/2000/svg" preserveAspectRatio="xMidYMid meet" viewBox="0 0 2048 1462"><path d="m212.762 116.089 596.088 4.187 185.368 1.05c16.402.229 55.052-.873 69.792 1.405 5.39 6.545 16.65 83.461 18.97 97.019a16126 16126 0 0 1 36.91 221.712l66.3 379.941 22.28 130.691c3.28 19.27 5.87 40.047 9.88 58.986 6.12-2.57 14.27-6.55 20.09-9.68 32.54-17.478 67.55-27.43 101.55-40.864-2.14-8.032-2.74-82.369-2.92-95.421-18.72-8.224-34.61-12.409-53.32-23.022a147.8 147.8 0 0 1-50.08-46.982c-39.12-59.618-30-129.072-36.4-196.654-.78-8.342-22.54-23.333-27.53-34.818-17.36-39.951-11.68-84.702 1.07-125.491a259.12 259.12 0 0 1 128.9-153.358c32.89-17.187 69.08-26.323 105.87-30.659 8.02-.945 17-.53 24.96-1.196 6.14-.514 10.91-1.404 17.35-1.665a369.9 369.9 0 0 1 124.57 15.869c52.78 16.526 104.86 50.783 132.03 100.644 6.48 11.88 19.73 54.829 23.95 69.645 21.22 75.359 34.37 156.277 25.83 234.632-1.98 18.16-10.24 55.01-15.8 72.189-9.86 32.937-28.45 67.677-51.45 93.219-9.89 10.969-20.96 20.765-30.58 31.782 6.09 15.998 7.92 30.295 15.84 47.833 37.68 1.762 87.69 7.38 118.24 30.945 20.46 15.783 35.83 41.726 44.11 66.192 3.23 9.14 4.59 20.58 7.81 29.56 26.17 72.88 25.36 150.47 35.5 226.4 2.29 17.07 1.52 35.47 3.69 52.83 11.45-.19 50.14-4.01 56.26 6.09.68 6.14-4.35 10.88-10.17 11.23-14.88.87-30.34.58-45.26.67l-84.43.8c-76.52.58-153.03 1.65-229.53 3.22l-959.022 18.58-212.018 3.5-59.947.9c-10.509.22-49.919 6.78-37.67-15.13 1.732-3.1 43.175-2.95 48.507-3.12-.336-11.15-3.285-27.89-5.046-39.24a3384 3384 0 0 1-8.826-58.4 23599 23599 0 0 0-45.596-292.442l-85.053-528.502c-14.207-88.657-25.521-180.7-42.045-268.635 11.148-10.506 22.775-20.273 34.159-30.498 6.034-5.42 10.411-10.73 16.819-15.944"/><path fill="#fff" d="M227.532 133.783c20.717-.165 43.531 1.131 64.938 1.187l374.358 2.784 205.95.955 77.292.116c14.593.042 32.062-.439 46.17.886 2.702 5.756 11.4 65.287 13.3 77.476q9.675 62.032 20.07 123.947l119.95 707.816c-4.16 1.7-8.95 4.06-13.1 5.97-15.9-7.13-31.59-14.73-47.64-21.54-5.01-2.13-10.03-4.22-14.74-6.96-10.88-40.949-11.72-53.423-43.99-80.61 23.41-19.711 36.96-42.74 41.64-72.97 7.7-49.812 2.23-100.467-5.34-149.945-1.65-10.735-2.03-22.556-8.34-31.429-44.04-20.405-87.107-33.914-136.655-30.751a986 986 0 0 0-4.033-37.678 63 63 0 0 0 3.175-2.701c20.491-18.699 24.892-41.881 26.079-68.098-.899-20.669-3.585-39.383-11.18-58.875a225.08 225.08 0 0 0-121.595-126.255c-71.696-31.002-166.347-28.251-237.843 1.151-38.199 14.982-90.411 54.62-104.64 94.781-31.232 88.158-38.86 218.107-3.56 304.981a233.37 233.37 0 0 0 77.122 100.32c7.842 5.908 18.477 13.397 27.448 17.199 1.372 12.425-2.57 36.795-5.6 49.036-6.753-3.844-13.635-8.52-20.179-12.784-9.422 2.338-31.769 13.827-41.381 18.452l-99.524 48.91c-7.721 3.802-31.024 16.436-37.129 18.796-2.586-12.435-4.639-28.851-6.748-41.717l-16.454-103.16-51.899-328.314a15272 15272 0 0 0-43.595-266.175 8257 8257 0 0 1-14.88-89.946c-2.443-14.778-5.675-30.063-7.447-44.855"/><path d="M386.968 236.93c9.234 2.732 8.07 19.8 8.813 28.797 2.933 35.53 8.478 72.497 40.052 94.613 5.173 3.624 19.007 5.365 21.817 10.992-.273 1.457-.545 4.613-1.447 5.323-3.33 2.619-9.081 3.966-12.87 6.142-13.98 8.083-26.114 22.253-32.851 36.792-12.277 26.495-12.335 56.859-12.475 85.464-.014 2.802-2.629 5.956-4.387 8.005-9.183-3.045-8.499-5.368-8.708-14.443-.993-42.963-10.272-102.105-55.725-120.043-4.182-1.65-8.686-1.458-8.632-7.573.028-5.634 7.951-5.824 12.027-7.736 48.918-22.941 47.47-75.686 49.686-121.694.109-2.273 2.918-3.488 4.7-4.639"/><path fill="#fff" d="M388.562 308.761c1.961 1.654 7.131 20.5 9.49 25.226 9.963 19.953 18.434 28.423 36.217 39.944-22.763 14.256-35.199 36.798-43.169 61.592-2.308-2.497-6.036-10.848-7.447-14.182-9.547-22.556-18.398-36.276-39.41-49.895 25.864-18.182 36.21-31.745 44.319-62.685M707.637 435.54c64.31 16.727 110.034 92.072 155.47 138.393-21.901-8.205-50.139-16.32-72.055-2.009-2.401 1.568-2.816 2.795-3.263 5.375 4.568 8.552 37.186-2.276 48.633 1.597 9.95 3.366 21.684 6.522 31.754 9.806 1.111.362 3.925-4.158 4.755-5.282 7.454 7.269 14.179 12.215 22.636 18.322 3.651 17.586 5.943 41.146 7.91 59.236-6.406 1.493-16.259 2.416-23.186 3.591-21.931 3.721-45.373 10.781-63.441 24.101l-.558 1.544-.263.822c-3.447 10.439-.7 45.07.11 57.391-19.506 3.631-32.085 4.079-52.418 4.178-11.081.054-35.508-8.429-41.13-4.968-1.981 3.283-1.535 1.775-1.461 5.841 8.646 15.151 80.118 12.956 96.072 6.516 2.722 11.883 4.959 36.421 7.32 50.651 2.115 14.594 5.67 28.542 9.654 42.714-9.851 2.267-19.821 4.53-29.821 6.026a210.5 210.5 0 0 1-38.668 2.075c-43.372-2.009-145.412-17.437-178.138-52.449-17.457-18.676-23.892-75.375-36.165-93.032-15.107-16.049-56.93-33.675-57.918-59.057-1.719-44.191 34.107-52.521 65.895-26.584 61.258-23.354 136.466-130.701 148.276-194.798"/><path d="M687.668 626.121c21.807-2.367 27.913 1.868 37.501 20.951-6.666 17.07-19.442 22.358-37.355 19.147-8.714-2.92-14.596-4.449-15.906-14.353l-.147-1.157c-3.152-1.059-4.906 4.429-11.575 5.694-2.956-.504-3.078-.765-5.483-2.737-3.961-11.321 23.991-24.878 32.965-27.545m136.33 1.325c9.882-.29 31.544 7.437 34.103 17.704-.901 3.799-.106 2.576-2.706 5.25-8.006 1.605-8.214.985-11.084 8.723l-.486 1.327c-6.051 3.524-7.91 4.319-14.583 6.56-19.132 2.782-24.603-3.351-33.656-18.542 4.03-16.107 12.809-19.838 28.412-21.022m-149.28-60.105c8.624-.298 41.343-.893 41.622 11.976-5.862 7.041-23.995 1.289-32.502 1.422-4.971.078-8.229.322-13.218.854-8.709 1.065-29.723 9.602-34.564 8.301-14.128-13.489 30.681-21.405 38.662-22.553m95.845 89.462c2.537.607 4.687.639 6.344 2.669 8.031 9.833 19.061 28.475 19.334 41.064.233 10.758-8.05 19.064-14.689 25.629-4.572.179-6.258-.411-8.606-4.231.072-6.492 5.511-11.697 9.705-16.787-2.578-20.916-15.942-33.363-16.16-43.634 1.379-3.507.643-2.291 4.072-4.71m-257.1-14.118c11.142 2.675 19.533 7.334 27.858 15.231 7.379 6.999 14.664 14.008 5.681 22.638-10.566-1.768-15.732-16.771-24.607-22.392-6.259-3.964-11.128-.638-13.907-8.663.681-3.394 2.388-4.413 4.975-6.814"/><path fill="#fff" d="M914.395 674.423c37.448.083 65.157 1.534 101.025 13.898 11.75 4.048 21.87 6.96 31.58 15.353 10.75 39.751 16.1 133.679 7.44 173.631-5.18 23.878-19.48 46.225-40.36 59.669-12.03-8.068-24.866-16.406-39.46-15.633-15.387 5.194-29.622 10.009-44.168 17.238a100.3 100.3 0 0 1-24.477-7.805c-28.104-12.879-42.287-35.77-52.124-64.13-16.645-47.986-21.482-100.421-25.054-150.841-.451-6.372-1.672-13.642 1.027-19.521 13.959-13.684 64.589-19.748 84.571-21.859"/><path d="M897.566 756.191c4.023-.45 5.058-.572 9.05-.079 3.054 2.047 3.317 3.439 2.324 6.696-4.933 4.799-23.087 8.074-31.559 10.699-4.301 1.919-8.039 3.111-11.992.186-.25-11.317 23.777-15.706 32.177-17.502m91.294 2.022c9.909-.497 38.25 2.227 42.96 12.256-.1 4.517.39 2.729-2.21 6.761-6.84-1.425-39.099-8.914-42.118-13.199-.293-3.845-.607-2.302 1.368-5.818m-12.724 114.092c3.206.227 4.207.681 5.952 3.082l-.72 2.648c-1.45 1.451-2.493 2.291-4.332 3.215a43.7 43.7 0 0 1-33.229 2.512c-3.752-1.968-6.365-2.565-6.765-6.923 3.292-3.34 29.162-2.873 39.094-4.534"/><path fill="#fff" d="M393.531 1016.2c2.925.02 3.627-.38 6.136 1.84 8.736 7.74 17.578 16.05 26.049 24.01a3241 3241 0 0 0 53.592 49.99l106.963 98.36a6058 6058 0 0 1 115.849 108.06c3.815 14.33 7.296 31.41 10.662 46.02-8.48-.39-39.78 1.4-43.04-1.36-11.355-9.61-35.414-32.25-46.724-42.73L491.31 1179.18c-23.905-21.98-47.634-44.18-71.905-65.75-3.748-3.33-11.935-9.69-16.892-7.05-3.073 9.12 22.646 29.75 29.106 36.06a5278 5278 0 0 0 73.229 69.15c30.57 30.46 65.457 61.73 97.148 91.07 10.237 9.48 35.698 35.35 44.969 42.05-9.985 1.04-21.297.43-31.538.55-15.572.17-31.503.82-47.033.56-10.815-8.93-23.926-21.84-34.351-31.63l-66.383-62.72c-6.039-5.66-32.526-32.1-38.32-32.24-3.43 1.81-2.477.72-4.135 3.94.581 9.52 30.319 35.46 39.124 44.19l80.359 79.21c-4.724.27-9.516.19-14.252.24-36.055.33-71.77 1.67-107.849 1.59-1.521-9.27-2.471-20.64-4.08-30.75l-27.426-166.33c-6.765-41.52-13.108-85.05-20.866-126.23 9.738-1.48 14.601-4.55 23.316-8.89m194.788-180.67c7.716 4.624 21.509 12.877 30.262 15.928 43.249 15.074 91.553 23.968 137.141 28.459 11.224 1.106 24.342-.067 35.811.568 2.292 31.498 13.39 75.821 21.167 106.947a5810 5810 0 0 1 30.571 125.288c-7.262 2.73-14.784 5.85-22.018 8.74-41.192 14.34-94.501 13.18-136.702 2.45-9.058-31.43-14.373-72.35-21.66-104.75-2.852-12.68-4.63-27.73-8.635-39.937-5.332-3.479-23.136-9.966-29.988-12.92a410 410 0 0 1-41.007-20.524c9.978-36.374 9.23-72.895 5.058-110.249M209.553 141.689c1.3 3.509 3.585 20.038 4.257 24.497l7.257 48.292 25.744 165.519 85.345 539.515 44.945 282.768 17.127 103.15c1.86 11.68 4.268 23.6 5.854 35.28 1.56 11.48-20.102 8.67-27.566 8.75-2.307-2-2.41-4.15-2.919-7.26L209.744 344.507a5924 5924 0 0 0-19.945-114.51c-3.46-19.655-6.494-43.485-11.779-62.174 9.922-6.391 22.273-18.088 31.533-26.134m932.717 937.961.64.16c1.67 1.55 70.32 235.2 74.29 254.88-5.1-.32-10.97.35-16.27.44l-40.51.65c-35.7.73-71.4 1.24-107.1 1.54-25.99.19-53.796 2.1-79.658.63 6.818-10.57 12.309-24.04 17.599-35.64a1158 1158 0 0 1 19.479-40.11c31.12-60.31 82.79-135.07 131.53-182.55m-129.04-940.506c12.76.18 25.52.451 38.27.812 22.43 124.104 41.26 249.844 62.66 374.314a41379 41379 0 0 1 86.76 506.81l-10.33 5.08c-7.59 3.62-17.61 9.46-25.2 13.59-2.2-27.41-11.02-69.639-15.87-97.373l-27.46-161.669a46235 46235 0 0 1-108.83-641.564"/><path fill="#fff" d="m843.877 1123.95 2.039.66c3.481 7.6 12.408 50.31 14.84 60.54l22.7 96.47c3.152 13.45 11.271 46 12.206 59.18-6.111.19-12.683.59-18.774.49-47.489-.78-95.209 2.43-142.626 2.66-4.18-5.01-44.574-187.9-48.106-207.87 23.181 11.27 50.973 13.67 76.476 12.44 29.411-1.41 55.075-12.1 81.245-24.57m141.246-185.645c1.722.638 3.459 1.59 5.003 2.43 34.524 17.887 56.554 48.963 64.554 86.705 1.4 4.93 2.67 9.96 4.06 14.88 6.98 24.68 7.58 51.64 14.22 76.23l.22.79c-18.98 27.33-40.48 52.27-58.01 81.14-8.75 14.41-17.586 32.1-26.924 45.27l-1.821-.28c-4.36-.68-12.233-1.36-14.86-4.96-.669-8.18-3.423-11.68-3.778-15.49-2.068-21.9.612-48.92-8.336-69.18-2.91-6.59-15.637-1.67-19.654 2.15-1.253 2.73-1.045 3.01-.503 6.11 3.778 4.14 7.446 2.1 8.201 3.97 2.991 7.43 3.873 39.87 4.076 46.3-5.238.06-3.851-18.4-5.721-24.44-2.819-11.74-13.06-15.36-21.776-22.62-7.631-6.36-15.36-37.87-5.264-42.59 24.866-11.63 51.804-21.15 75.041-36.21 1.633-1.06.345-2.19 2.733-4.25 6.186.41 15.346 5.31 22.706 6.41 12.72-9.07-9.86-21.57-19.597-20.23-8.588 3.2-21.85 10.87-30.891 15.01-17.506 8.01-44.764 17.2-59.957 28.11-10.727-10.18-14.094-20.33-6.83-33.78 19.238-12.71 72.865-26.31 88.482-44.67 6.417 4.86 16.773 12.76 24.993 8.81 5.86-9.9-13.25-18.12-20.291-20.97-8.663 2.28-18.203 7.01-26.683 10.33-25.502 9.98-49.321 21.97-75.005 31.67-2.079-7.58-9.117-31.1-1.609-34.98 24.443-12.62 54.597-22.87 80.449-33.108 5.918-2.343 27.146-7.535 27.22-13.555.163-13.181-19.791-6.452-26.524-3.536-17.606 6.589-35.372 12.978-52.884 19.796-3.48.723-18.412 9.413-20.882 5.713-4.489-6.72-4.446-21.66-4.048-29.426 16.673-10.239 70.904-35.831 89.89-37.549m-521.54 42.511 1.751.315c15.56 13.113 31.924 29.389 46.885 43.559l74.52 70.11 51.951 47.77c10.662 9.7 27.936 21.8 35.195 33.91 4.133 6.89 18.859 78.82 22.164 92.55-7.008-5.03-19.85-17.34-26.722-23.59-3.785-3.65-7.818-7.18-11.715-10.74-82.769-75.52-165.617-150.82-247.921-226.85 18.047-9.243 35.791-17.496 53.892-27.034m1097.027-40.254c22.54-1.409 55.91.232 78.88 1.034 29.42 1.028 66.46.046 94.04 8.731 1.21 7.504 1.02 9.979.11 17.5l-7.67 6.996c-17.14 1.177-42.81-1.323-60.5-2.376a1668 1668 0 0 0-73.78-2.083c-103.51.097-201.65 27.973-298.73 61.516a824 824 0 0 0-43.88 17.95c-9.37 4.26-79.74 39.95-82.49 39.21-3.6-4.74-5.49-12.65-7.44-18.56 53.93-28.81 105.66-58.52 164.22-77.638 79.8-26.054 152.94-48.29 237.24-52.28m-1035.455 9.272 1.809.342c15 12.534 121.302 108.524 124.82 115.794 2.747 5.68 15.641 73.05 16.544 81.97-7.785-7.23-16.098-14.48-24.032-21.6a12001 12001 0 0 0-125.252-115.33c-8.114-7.3-35.146-32.769-42.501-36.38 14.212-6.14 34.622-17.277 48.612-24.796m836.735-75.707c30.36 8.007 74.25 38.539 107.96 38.512 22.66-.018 35.41-17.968 49.61-33.401 18.81 19.482 34.56 30.311 62.56 26.922 22.63-2.739 33.41-12.971 52.09-24.165 2.02 7.064 3.98 14.142 5.9 21.235l3.92 11.756c-22.39.415-45.39-1.179-67.97-.625-40.06.984-74.15 4.59-113.15 13.303-34.05 7.607-64.27 14.502-97.85 25.413.03-23.324-.53-55.766-3.07-78.95m66.76-610.619c3.19.237 3.68.185 6.63 1.291 2.76 2.944 2.29 1.627 2.77 5.188-1.23 2.57-4.84 5.181-7.27 5.378-105.67 8.563-201.88 79.395-234.93 181.284-3.97 12.241-9.98 36.14-10.16 50.403a164.8 164.8 0 0 0 4.04 37.496c1.71 7.427 5.87 15.765 2.92 22.519-4.03-2.486-6.68-5.938-8.2-10.432-25.03-75.87 13.44-157.052 65.86-211.403 51.77-53.662 107.82-68.702 178.34-81.724M885.776 1221.89c6.717 4.71 16.212 13.08 23.21 18.49a2859 2859 0 0 1 61.575 48.12c-4.637 6.75-9.936 18.82-13.637 26.63l-6.208 12.65c-15.772-9.75-32.828-26.54-47.717-36.08-6.626-19.24-9.802-52.26-17.223-69.81m-17.85-78.14c22.171 20.9 36.356 34.68 63.652 47.48.88 12.27 2.748 24.56 7.586 35.9 5.038 3.1 7.792 4.14 13.35 6.34l1.195 13.1c13.273 18.45 14.822 10.56 26.755 17.78.595 3.51-.712 4.46-2.573 8.2-.271.54-1.761 2.54-2.207 3.17-4.163.05-14.412-9.7-18.172-12.62-24.467-18.98-49.359-39.85-74.787-57.32-2.61-6.02-13.399-53.78-14.799-62.03m-29.098-272.4c1.828 1.296 4.007 7.563 5.076 10.103 14.044 33.379 27.945 50.088 60.824 65.612-5.73 3.459-13.049 6.882-19.126 9.918l-9.899-5.731c-6.666-3.752-10.63-5.022-17.939-7.185-9.614 2.387-19.665 7.058-30.113 9.967-5.533-17.736-13.011-57.345-14.882-76.42 8.499-1.894 17.827-3.627 26.059-6.264m413.832-275.944c2.33.576 6.14 2.707 5.77 5.604-4.73 36.639-4.28 72.066.84 108.769 7.63 54.605 51.38 103.078 94.41 134.604 3.61 2.646 9.3 6.48 9.99 11.022l-.85 1.125-2.13-.03c-17.89-8.121-29.25-17.391-42.83-30.129-43.48-40.656-73.88-93.313-72.67-154.237.46-23.322-1.11-48.401 3.53-71.434.27-1.323 3.02-4.317 3.94-5.294M738.83 368.831c16.777-1.191 33.484 3.825 49.522 7.878C875.77 398.798 966.42 519.26 920.02 607.644c-1.627 2.462-1.055 2.397-3.33 3.491-1.972-5.045 5.091-23.852 5.715-31.282 1.471-17.514 2.956-33.655-1.063-51.025-16.186-69.94-72.367-127.524-141.463-146.523-11.249-3.094-28.586-3.926-39.464-8.044-1.637-.62-1.413-3.47-1.585-5.43"/><path fill="#fff" d="M1222.14 553.027c1.29 1.46 1.64 3.56 2.42 5.585 3.32 8.713 7.77 15.513 13.06 23.068-1.42 7.105-4.04 14.673-4.71 21.86-7.07 75.933-7.41 151.096 50.38 207.607-2.76-.727-14.86-10.937-17.1-13.046-40.33-37.978-41.83-99.222-46.49-150.845-1.98-21.88-3.14-44.71-4.19-66.724-.22-4.609 0-16.988 1.32-21.557.18-.62 4.5-5.106 5.31-5.948M823.117 974.275c7.095 2.574 49.65 34.175 59.235 40.925-13.383 15.53-16.249 26.46-7.827 45.75l5.924 9.28c-10.149-7.69-28.78-23.94-39.18-28.38-2.414-5.87-4.377-16.42-6.083-22.97-3.899-14.97-7.432-29.816-12.069-44.605m-273.672-36.388a95 95 0 0 1 12.861 10.14c21.086 19.822 47.775 31.392 74.224 42.115 1.667 6.731 10.914 40.798 9.229 45.378l-2.483-1.2c-31.166-27.79-61.496-56.515-93.407-83.508-2.426-2.051-6.073-4.947-7.803-7.542 1.454-2.367 4.85-3.916 7.379-5.383m297.769 121.683c3.441 2.29 28.42 24.97 31.564 28.31-.77 19.22 6.162 27.8 20.122 39.38a46.6 46.6 0 0 0-2.438 16.56c.203 2.68.35 3.31-.225 6.03-2.877-.53-30.388-20.75-31.374-23.53-7.462-21.03-12.588-44.85-17.649-66.75m231.326-13.39c10.44 3.11 32.3 16.38 46.74 21.03-5.75 6.04-12.28 12.31-18.22 18.23-6.43 6.7-13.01 14.36-19.22 21.36-1.08-17.91-5.15-43.42-9.3-60.62M860.6 959.073c1.531.341 12.532 7.894 15.043 9.467.48 9.477.465 17.409 1.328 27.087l-13.54-9.438-29.232-19.521c9.099-2.488 16.921-5.349 26.401-7.595m393.87-455.693c10.04 1.923 8.68 7.85 7.57 16.637-2.26 17.91 2.1 35.395 2.65 53.278 0 0-2.93 3.726-3.21 4.085l-2.78.036c-6.79-5.154-7.61-64.215-4.23-74.036M906.662 1308.5c3.923 1.87 35.056 27.79 36.609 31.21-34.037 2.14-29.279.95-36.609-31.21"/><path d="M1849.66 326.529c11.41 3.547 7.85 32.334 9 43.022 3.21 29.584 12.13 62.789 37.01 81.533 5.73 4.323 21.29 3.478 19.57 13.788-2.3 2.815-4.38 3.287-7.57 4.745-36.01 16.489-48.17 57.64-49.92 94.243-.52 10.92.68 21.544-.67 32.346-.48 3.793-3.33 4.736-6.2 6.56-4.37-1.693-7.09-2.689-7.43-7.857-1.19-17.879-.23-35.158-4.33-52.825-5.49-23.749-18.04-47.702-36.47-63.88-6.06-5.323-18.19-7.861-19.49-15.197 2.9-8.013 12.22-6.886 19.07-12.653 34.79-29.281 37.94-75.239 41.37-117.296.27-3.344 3.48-4.729 6.06-6.529"/><path fill="#fff" d="M1848.51 394.766c1.98 2.163 4.56 12.914 5.79 16.497 7.43 21.634 18.05 37.641 35.68 51.873-17.4 15.775-28.46 29.522-36.07 51.896-1.39 4.096-2.67 11.728-5.52 14.419-10.25-32.205-19.13-43.336-43.58-65.033 25.85-22.734 33.08-37.323 43.7-69.652"/></svg>