<svg xmlns="http://www.w3.org/2000/svg" preserveAspectRatio="xMidYMid meet" viewBox="0 0 2048 1462"><path d="M303.91 135.433c23.196-1.769 66.307-.342 91.164-.47a7063 7063 0 0 1 164.042.579c36.765.735 73.737 2.74 110.394 3.173a46774 46774 0 0 1 835.19 14.971l214.55 2.396c56.53.643 111.96.351 168.37 5.704 8.36.794 1.68 39.418 1.69 45.678 0 1.885-6.53 4.082-8.04 4.605-.52 11.545 1.24 25.045 1.45 36.82.15 8.71-.32 17.378-.14 25.958.14 6.339 2.7 14.268 2.85 21.238.94 43.32 2.49 86.722 4.48 130.009l13.31 322.233c2.42 56.923 5.7 113.902 7.79 170.871 1.17 31.684-27 24.332-49.02 25.099-13.36.465-26.9-.114-40.05-.14-13.95 24.906-20.92 44.908-41.12 66.123-6.93 7.29-11.87 46.11-11.89 58.33 12.76 6.23 24.46 7.65 37.61 12.41 23.29 8.44 58.4 19.5 76.67 36.87 4.99 4.75 11.05 16.65 14.35 22.53 15.11 26.66 20.25 55.74 23.2 85.99.67 11.04 6.97 41.65-3.98 49.32-19.36 13.57-60.4 13.51-82.94 15.27-54.48 4.24-108.29 7.22-162.84 5.4-17.69-.58-34.74-.34-52.25-1.98-16.78-39.29-41.29-70.11-61.36-107.38-11.15-20.72-26.06-39.68-44.6-54.15a186.8 186.8 0 0 0-40.93-24.49c-27.68-11.89-95.13-26.82-126.23-22.91-22.25 2.81-38.7 9.23-59 14.88-79.16 22.03-125.76 59.52-165.57 131.42-9.43 17.57-20 34.92-27.25 53.53-2.33 5.97-3.1 12.33-10.45 12.35-6.11-5.03-1.94-12.78-5.17-20.6-7.74-18.71-17.07-32.11-29.12-48.23-.17 17.36-.99 34.16.02 51.58.31 5.31 1.46 19.6.27 24.1-2.11 2.42-2.2 2.45-5.44 3.16-10.92-4.2-7.45-73.41-4.45-86.61-36.23-32.15-64.25-43.89-114.04-40.56-36.106 2.42-60.984 9.43-94.346 23.24 12.707 23.56 19.745 46.88 25.205 73.05 1.584 7.59 9.469 21.44 2.39 27.07-3.148.32-2.974.32-5.767-1.22-6.063-8.39-15.909-63.1-24.523-79.27-10.624-19.94-19.125-27.68-32.649-45.46-1.514-1.99-2.266-6.04-2.661-8.63-21.995-16.73-60.302-35.42-86.276-44.24-61.613-20.93-138.777-18.79-197.666 10.28-28.438 14.04-74.301 38.97-93.894 64.27-9.679 22.06-14.882 47.21-18.072 70.84-1.992 14.75-2.156 24.72-4.749 38.73-.379 2.05-3.574 2.87-5.146 3.43-10.302-3.08-3.678-32.34-2.447-40.96a365 365 0 0 1 7.853-40.93c5.703-22.67 8.035-24.91 5.472-48.46-1.671-15.35 1.267-41.81 5.165-56.5-1.744-3.14-20.02-9.66-25.974-13.08-12.991 31.74-11.558 93.64-9.385 127.8.307 11.14 3.366 22.03 3.958 33.06.225 4.21.376 10.72-4.201 12-1.424-.54-4.452-3.4-4.793-4.59-12.75-44.45-9.447-120.66-.612-162.45-14.355 4.08-27.203 7.48-41.896 10.04-3.856 33.45-8.766 65.78-8.358 99.65.144 11.99 7.953 55.45 4.517 61.98-.891 1.69-1.211 1.54-3.032 2.13-3.582-1.82-6.796-6.22-7.519-10.06-9.373-49.79-5.107-103.21 3.197-152.41-13.386.13-25.892.22-39.3-.32-6.04 47.79-11.199 97.41-3.771 145.27.973 6.27 3.003 15.2-2.889 19.14-3.904-.39-2.396.16-5.683-2.26-1.925-3.89-5.394-26.8-5.784-32.07-3.233-43.7-.248-88.2 6.831-131.41-10.893-1.54-16.363-2.51-27.059-5.12-9.727 43.91-17.774 86.46-15.554 131.7.445 9.06 4.445 36.23-3.065 40.8-14.414-3.69-8.208-81.32-7.126-94.32 1.986-23.86 7.315-48.58 12.022-72.07-8.118 5.05-25.557 18.99-32.068 25.55a441 441 0 0 0-10.905 66.79c-1.712 20.92-1.547 39.82-.554 60.65.121 2.54-.651 5.08-2.004 7.23-10.263 5.52-10.238-7.35-10.539-13.22-1.745-34.02.341-74.5 9.264-107.4-18.226 16.47-33.025 46.38-32.032 71.24.432 10.79 2.165 27.6-.696 37.14-3.102 2.68-7.594 7.09-11.242 8.31-12.2-3.67-5.771-43.68-2.946-53.56a191.7 191.7 0 0 1 90.616-114.45c-8.208-3.28-19.514-9.71-25.365-16.33-61.176-69.19-36.021-223.2 26.074-283.24a108.98 108.98 0 0 1 78.664-30.938c22.785.44 38.493 6.485 59.479 13.135 12.654 3.122 24.776 4.108 36.771 9.687 41.213 19.168 40.453 54.224 39.676 93.809 21.724-.781 45.25-.396 67.114-.416-.959-18.553 2.775-47.071 12.469-62.921 20.452-33.436 45.803-59.469 84.982-38.711 10.684-26.11 24.282-36.038 54.5-34.328 46.211 2.614 137.535 73.273 96.881 124.042-3.234 4.038-11.989 12.345-13.263 17.072-1.24 4.597 1.953 15.123 2.018 20.309.681 51.451-7.785 72.25-46.992 103.59-2.767 8.84-5.624 23.04-7.803 32.42 5.841 2.08 5.957 1.76 10.116 6.39 3.65 4.07 10.538 38.69 12.662 39.47 33.908 12.4 65.345 29.06 95.888 47.46.624.32 1.242.66 1.854 1.01 3.848 2.21 5.03 3.19 6.068 7.03-.482 1.1-2.017 4.56-1.675 5.26 2.107 4.27 16.262 19.36 19.24 22.51l13.759-5.98c-2.641-10.89-4.747-20.97-5.827-32.16-21.534-15.77-66.206-22.69-86.322-51.04 10.87-27.26 20.796-54.42 27.81-82.96 6.747-27.459 14.007-54.83 22.354-81.844-14.148.166-44.102 1.038-57.065-.591a688 688 0 0 1 2.856-33.84c23.427-2.491 48.491.897 70.623-1.116 10.797-18.872 27.444-38.043 47.614-46.94 56.466-24.908 127.147-3.231 152.763 54.937 12.81 30.472 10.52 60.757 15.94 93.574 6.19 37.15 24.45 86.24-.13 120.36-4.32 5.99-37.495 17.53-46.213 21.29-1.899 10.55-2.167 14.18-1.928 24.74 6.094 1.15 13.984 4.33 19.751 6.84a166.3 166.3 0 0 1 86.95 90.63c4.04-5.95 8.28-15.32 11.94-21.82 8.86-15.76 18.62-34.85 28.94-49.51-6.36-20.51-7.88-47.79-12.8-69.03-12.95-55.95-21.46-114.42-37.26-169.535-3.08 12.257-3.84 26.719-5.08 39.324-5.13 52.321-5.6 104.851-11.79 157.121-1 8.5-.69 27.08-3.86 34.04-6.12 5.28-18.28-9.46-24.38-13.61-8.61-5.84-26.76-11.83-33.325-18.67 3.285-7.17 33.215-7.61 45.525-27.23 26.66-41.63 4.69-91.76-.07-134.839-7.53-68.05-5.68-102.519-67.271-145.303.774-13.138 3.057-28.501 4.844-41.68-16.15-20.641-3.806-52.648-3.514-76.87.457-37.967 1.329-75.492 3.413-113.41-18.849-27.548-33.756-56.161-50.67-84.7-35.923-60.613-58.088-130.264-70.15-199.687-13.499-10.499-12.07-15.712-22.051-25.85-11.821-12.008-24.226-17.488-35.142-32.185l2.8-11.854c-10.288-24.481 1.669-13.827 7.724-17.601 2.44-3.486 2.503-4.476 2.839-8.554l.086-1.134c3.62-4.166 9.717-3.84 15.618-4.531l7.602-8.232c24.292 2.791 27.631 8.932 43.699 26.959.553-5.922 1.616-22.089 6.328-24.86 19.414-11.418 28.184 36.478 27.803 47.112.544 8.744-3.039 20.601-2.556 28.92.296 5.107 9.055 17.992 11.984 25.617 12.532 32.621 30.252 63.457 45.496 94.6 15.933 32.548 33.768 55.28 56.238 83.275 4.31-2.418 9.41-6.61 13.44-9.719-12.96-13.976-15.06-19.841-21.65-37.374-20.62-9.95-19.62-27.307-1.36-39.22 1.14-10.825-5.03-26.373.43-37.253 13.86-27.579 58.29-44.943 86.89-32.493 35.46 15.442 52.27 37.669 36.78 74.703l.2.809c3.88 16.999-2.09 28.529-18.79 33.955-.85 7.574-2.35 16.363-3.47 23.972 6.75 10.366 14.28 25.288 23.14 34.659 1.31 1.381 15.89 8.562 18.77 10.116a416 416 0 0 1 24.9 14.659c4.26 2.719 9.84 7.216 11.65 11.9 28.72 74.177 51.24 157.746 68.4 234.755 15.17-17.383 24.17-34.103 46.47-44.853 22.34-10.777 45.86-9.045 65.43 6.662 12.01 9.633 16.58 18.819 23.28 32.064a67.7 67.7 0 0 1 9.11-8.07c5.78-4.243 18.33-10.474 25.54-9.838 56.32 4.975 60.46 92.119 53.39 133.134 4.83-4.277 5.58-4.538 10.98-4.71 15.81-.503 59.47-40.616 67.22-13.478 1.3 4.555 3.83 13.844 5.01 18.564 7.67-.13 26.93-.039 33.54-1.308.1-1.804-19.64-22.456-18.81-39.031 1.09-21.864 4.98-30.296 20.34-46.502 27.34-28.506 65.39-54.005 105.92-55.917 31.57-1.49 53.26 14.504 54.39 46.686 62.12 6.028 78.86 48.722 65.8 105.39l43.66-.422c-.43-24.06-2.23-48.173-3-72.249l-12.96-321.323c-.57-13.774-.17-27.646-.63-41.41l-6.95-166.414c-.42-10.111.32-20.348-.02-30.365-.62-18.303-1.56-36.704-2.44-55.002-38.38-1.101-76.93 1.723-115.37.157-44.03-1.794-88.21-.936-132.22-1.46l-224.28-4.595c-30.06-.856-60.05-2.806-90.13-3.424-42.74-.878-85.97 1.416-128.59 1.283-70.5-.221-141.01-5.564-211.523-4.946-13.589.119-28.351-2.499-42.021-2.395-30.591-.04-61.255-1.434-91.814-1.608-57.317-.327-115.183.875-172.468-.211l-84.271-2.084c-51.697-1.76-101.098-1.79-152.792 1.479-15.993 1.191-33.769-1.242-49.522-.422-28.108 1.463-51.773 2.388-79.823-.436-19.221-1.936-44.031-.234-63.179 1.489l-2.291 2.001c-2.439 16.279-1.149 34.882-3.622 51.567-.846 5.708 1.111 15.941.527 22.53-2.777 31.332-3.624 62.677-5.005 94.087-5.753 118.955-14.945 237.711-20.768 356.663a5064 5064 0 0 1-4.113 75.631c-.75 10.995-.778 23.341-3.218 34.076-1.046 4.603-26.141 53.711-28.353 55.78-1.73-1.401-.911-5.278-.751-8.172a46670 46670 0 0 0 33.075-603.463c.901-20.445 4.993-41.44 4.004-62.47-.362-7.712 1.792-17.136.878-25.097-.399-3.476-5.627-4.116-6.293-7.779-.778-8.722-1.861-43.389 1.592-49.69 10.669-3.925 103.13-2.985 121.661-4.058"/><path fill="#fefefe" d="M315.692 147.474c35.343-1.167 72.094-.732 107.574-.807a5001 5001 0 0 1 155.551.983c21.672.53 43.38 2.04 64.849 2.52l390.344 6.382 487.18 9.056q57.015.298 114.03-.037c34.6.08 69.86 2.414 104.33 2 47.67-.572 93.31 2.546 140.77 4.675a1315 1315 0 0 1-1.65 25.861c-41.57.227-83.61-2.213-125.93-2.195-29.7.145-54-1.172-83-1.829l-271.41-7.29-683.428-8.677c-20.407-.39-41.423-2.388-61.625-2.712a6777 6777 0 0 0-317.335.405c-39.312.586-78.631-.013-117.92 1.718-8.684.383-17.348.575-25.982 1.659l.389-30.635c13.993.652 31.837-.053 46.266-.226zm818.938 379.161c7.78.735 52.91 26.412 55.83 34.174 27.39 72.638 50.1 148.225 66.24 224.228.85 4.003 3.09 18.407 1.75 21.591-2.87 6.793-11.3 29.493-14.83 34.926-3.91.443-7.82.836-11.74 1.177-22.21-55.915-42.68-119.84-61.7-177.389-1.72-5.192-.87-31.972-.82-39.092-.28-8.158 1.31-25.179-1.12-31.495-6.02-5.882-11.11-2.101-10.98 5.201.85 50.298-.37 100.668.65 150.954.29 14.031 2.42 28.602 3.46 42.678-9.77 1.91-20.27 4.828-29.81 6.324-19.87 3.12-41.47 4.179-61.55 4.218 1.32-22.188 4.16-53.747 2.93-75.284-3.14-54.604 2.89-104.735 9.77-158.725.8-6.239-1.24-34.391 1.31-37.347 9.84 2.541 6.19 43.564 36.11 9.058 3.82-4.407 10.28-10.767 14.5-15.197M919.263 340.877l1.308.326c3.388 4.243 21.279 45.281 25.287 53.076 9.691 18.853 20.301 39.554 30.204 58.389 12.922 23.542 31.878 42.806 47.078 64.895 6.51 9.46 9.24 36.784 17.52 39.651 10.78-2.298 18.82-23.555 28.08-22.958 10.41 13.005-9.2 112.772-8.13 134.581 2.19 44.246-.3 90.655-1.56 134.907-4.1.169-9.66-.208-13.87-.379-8.02-.148-57.038.82-58.193-9.162-4.24-20.921 6.215-58.526 4.045-77.109-2.248-19.253 6.72-115.622 1.837-125.403-5.715-2.89-5.752 2.771-10.966 4.467-21.75-34.743-50.881-83.819-68.017-120.717-12.978-27.945-27.851-82.394-35.167-112.67 14.928-10.022 24.065-15.225 40.544-21.894m-487 596.096c24.795-.211 49.653.573 74.47.7 11.428 32.257 27.106 56.445 41.896 86.817 5.043 10.36 8.984 33.33 11.489 45.36-9.961 3.75-23.199 7.97-32.156 12.88-5.144 10.17-7.902 24.45-10.625 35.79-9.48 4.38-18.411 8.46-27.596 13.42-8.461 4.28-17.334 9.38-25.684 14-21.547-20.07-46.146-28.58-72.974-39.76 9.201-4.33 30.772-7.08 33.186-18.11-.954-5.9-12.199-12.64-18.27-18.74 22.549-24.17 30.373-61.68 28.625-93.603-.717-13.097-2.825-25.54-2.361-38.754m757.367 5.933 43.41-.329c5.19 10.157 17.44 33.499 24.38 41.542 26.82 31.081 27.12 22.871 28.69 62.941-4.26 1.79-12.49 3.6-13.93 7.63-4.42 12.35-3.78 26.83-8.08 39.16l-.42 1.17c-12.21 3-43.08 18.78-55 24.85-6.29-59.72-11.25-116.84-19.05-176.964m412.73-34.391c4.08.164 3.83-.526 6.38 1.505.24 4.968-.74 10.712-.89 15.758-.81 27.426 3.03 51.39 16.56 75.642 8.17 14.64 25.36 33.49 26.25 50.4-.51.37-1.03.74-1.54 1.11-.66.49-4.45 3.57-4.62 4.07-3.23 9.36-5.53 22.7-6.96 32.25-12.41 4.76-24.76 9.68-37.05 14.74-6.76 2.55-13.33 6.42-19.23 10.55l-12.2-46.22c-2.02-7.48-8.04-27.33-7.97-33.97.12-11.64 1.93-25.8 2.09-38.201.88-10.697-.65-24.029 3.41-34.166 3.68-9.186 8.39-20.047 12.81-28.927 4.58-9.206 9.23-12.481 11.36-23.276 3.19-1.599 7.83-1.211 11.6-1.265m-545.21-527.908c.77.335 15.21 16.966 17.15 19.397 10.4 13.045 22.44 15.254 35.64 23.984.24.156-.81 6.162 1.08 9.757 8.08 3.553 11.91-6.703 20.91-5.373 2.28 2.635 2.77 7.665 1.76 10.882-2.35 7.487-11.27 5.67-17.7 9.129-2.97 3.28-3.48 15.542-4.99 20.518-3.2 10.606-5.6 17.836-5.8 29.064-10.42 9.008-21.6 15.62-31.7 25.133-4.58-5.937-13.22-13.321-15.28-20.515 2.82-2.532 32.91 1.114 31.59-14.172-5.81-4.431-21.43 4.668-28.73 1.929-21.78-8.179-22.37-20.913-29.44-39.998-1.84-4.951-5.48-3.342-10.9-5.003-7.8-12.744 5.96-11.855 10.39-16.343 4.25-4.317 3.28-14.681 3.35-20.184.11-9.424 16.21-22.144 22.67-28.205"/><path d="M1060.33 454.465c7.26-.304 32.5-2.089 22.49 14.744-2.25 3.786-6.61 7.421-10.61 9.456-.71.081-1.42.151-2.12.21-10.27.813-27.08-11.327-19.64-22.354 1.66-2.467 6.82-1.903 9.88-2.056m-13.49-32.615c6.52-.157 3.37-.51 8.91 2.373 11.89 6.195 7.03 15.669.55 24.25-3.57-1.91-4.86-3.196-5.9-7.098 1.04-3.822 1.46-4.776 1.35-8.773-4.25-.245-7.32.261-9.65-3.614.4-3.5 2.15-4.591 4.74-7.138m38.28-3.35c5.49.762 10.99 3.922 11.59 9.881-.69 3.524-2.15 4.586-4.59 7.248-5.78-2.872-10-3.591-11.7-9.966.72-3.434 2.29-4.578 4.7-7.163m-34.96-16.561c3.54 1.11 5.02 1.642 5.42 5.473-3.56 4.671-7.98 5.228-13.49 6.428-1.59-.026-2.59-.471-4.14-.926l-.8-1.67c2.07-4.42 8.7-7.23 13.01-9.305"/><path fill="#fefefe" d="M1477.19 939.566c4.22 6.426 1.24 20.178 10.41 34.845L1484.28 1101c-17.36-7.78-25.41-9.99-44.03-14.49-2.55-.59-2.68-.77-4.9-1.98-5.33-7.04-4.45-23-7.45-31.68-3.08-8.93-4.33-8.51-11.7-13.16-.99-5.57 6.96-26.78 9.2-33.47 18.01-5.91 34.17-15.436 38.84-34.752 3.88-16.051 3.44-18.495 12.95-31.902"/><path fill="#fefefe" d="M1246.12 873.588c2.3 6.152 2.77 18.704 6.23 26.124 1.58 5.7 10.53 11.311 12.8 15.862 14.23 29.806 30.17 55.968 51.42 81.121 17.27 20.435 41.52 34.885 68.33 22.205 15.94-7.53 36.82-29.111 52.09-39.579 5.88-4.036 13.01-11.799 19.06-16.649-6 18.349-14.83 27.307-33.82 31.861-11.51 8.697-14.37 31.107-17.71 45.667-3.71-.03-7.42-.21-11.12-.43-32.07-1.9-64.39 1.42-96.17 5.29-.42-7.34-.89-24.44-3.17-30.68-8.16-22.357-27.52-32.124-38.82-55.545.6-7.928 20.03-16.383 5.24-26.533-8.32-1.059-3.06 8.395-9.99 12.198-7.38-3.259-12.19-26.17-10.7-33.486 3.31-1.879 5.88-2.71 5.71-6.697-2.45-3.357-4.6-3.988-8.34-5.84 2.43-9.637 4.24-16.177 8.96-24.889m-827.285 30.181a55 55 0 0 1 1.449 7.019c1.51 10.874.138 23.092 1.016 34.082 3.549 44.42 6.92 75.17-21.503 113.17-9.583-15.36-15.7-26.89-22.839-43.45-2.872-7.17-8.694-19.807-8.572-27.438.103-6.438 7.158-2.955 10.779-5.949.349-1.248.118-6.308-.584-6.669-7.345-3.542-14.559-.541-21.966-6.026-12.299-9.11-11.798-39.098 7.031-40.072 8.117-.42 11.387 3.552 17.032 8.582 3.711-3.571 6.722-4.863 10.957-7.632 11.401-7.455 19.841-13.991 27.2-25.617m1206.485-6.063c16.84 6.625 16.5 29.519 16.73 44.933-4.24 6.006-17.06 16.558-17.69 20.879 7.12 14.976 22.61-7.978 26.68-13.841 4.55 8.2 12.18 18.287 18.05 25.818 13.56 17.425 31.43 44.825 53.3 51.975 13.68 4.48 22.96 1.67 35.1-4.37 2.09-1.38 2-1.36 4.4-2.05 2.37 4.31-2.17 20.85-3.37 26.47-20.15.17-39.42-1.51-60.06-.43-7.56.4-30.22 3.79-34.3 3.2-2.06-5.71-5.66-16.59-8.33-21.36-13.37-23.88-27.84-36.547-33.44-65.112-3.33-16.956-6.41-51.217 2.93-66.112m-456.05-196.934c2.74 3.548 13.55 39.659 15.74 46.335 10.65 32.42 23.78 64.044 33.95 96.526 1.16 3.718 5.63 10.494 5.97 11.968 2.45 10.742-.77 10.967 7.14 19.317-4.59 11.72-5.81 15.152-5.41 27.654l-.25 1.332c-2.68 1.459-37.29.576-43.05.527-3.39-32.086-10.23-62.964-14.64-94.929-1.08-6.197 4.18-12.796 3.94-18.832-.53-13.152-2.83-26.533-3.29-39.675-.59-16.63-.61-33.592-.1-50.223M687.673 960.738c10.637 10.079 19.35 10.631 32.194 4.496-6.524 33.586-14.983 36.306-38.851 57.336-6.278 5.53-11.062 31.7-11.932 40.92-33.102-3.45-56.782-2.7-89.836 3.22l-7.116 1.03c-4.266-13.49-6.652-27.12-11.268-41.43 37.27 27.46 46.57 25.4 80.44-5.38 19.983-18.16 37.493-33.628 46.369-60.192m870.167-78.281c6.41 3.64 9.82 33.936 9.71 41.095-.22 14.035-8.72 27.203-13.79 39.929-18.32-1.309-40.12.673-58.11 3.773-3.31-9.173-5.77-24.826-8.47-35.486-3.19-22.122 5.64-13.618 17.91-28.033 4.33 2.618 6.05 4.206 10.9 3.759 5.56-4.238 1.39-9.725 8.72-9.849 1.84 1.85 2.82 2.988 4.45 5.026 3.69.68 2.38.575 6.29-.875 2.45-3.679 1.21-4.407 1.74-9.755 2.44-2.873 1.18-2.069 4.7-3.405l1.22.844c.21 4.536.87 26.148 1.4 29.179 2.43 3.327 1.13 2.413 4.82 3.648 10.72-4.375-.91-26.317 8.51-39.85M621.919 1073.43c20.922-.78 37.288.22 57.966 3.03l9.412 30.52c-34.536-6.63-60.7-8.22-96.489-6.9-23.206 2.25-40.427 6.59-62.666 13.83a514 514 0 0 0 5.45-22.07c24.695-11.95 59.163-16.92 86.327-18.41m741.541-22.89c17.8-.82 35.26.73 52.99 2.02 2.21 10.11 4.18 20.65 6.23 30.82-34.96-9.79-58-13.15-93.53-6.9-11.53 1.5-39.38 10.71-52.54 14.65 1.47-9.51 3.36-20.7 5.71-29.95 21.76-7.98 58.07-9.83 81.14-10.64M875.561 256.905c2.987 3.72 4.487 4.481 8.567 6.78-1.629 11.114-21.355 41.934-3.252 49.539 5.592-4.217 2.524-19.313 4.465-25.386 2.79-8.73 9.344-16.11 10.952-25.232 1.354-7.344-.889-15.418.588-22.482l1.177-.751c2.967 3.537 3.361 5.974 5.115 10.021 9.307 21.474 1.14 39.75 2.006 61.797-14.598 3.124-23.159 7.213-36.198 14.15-12.057-8.915-13.309-16.683-22.725-26.311-7.437-7.604-18.453-13.04-26.853-21.403 5.871 3.082 30.33 19.58 33.581 17.242 10.905-7.842 29.209-21.202 22.093-35.977zm815.919 801.675c8.93-.79 59.95-3.06 64.91 2.13.06 3.7.16 4.7-.8 8.24-2.71 2.38-44.2 5.16-50.46 5.84a512 512 0 0 0-56.42 10.19c1.39-7.87 3.07-14.91 4.92-22.65 13.02-1.15 24.32-2.92 37.85-3.75m-724.182 93.55.603.08c1.46 1.89.494 13.84.56 17.99-55.526-4.67-66.18.01-118.848 12.49l-4.54-19.79c33.501 4.89 89.748-1.39 122.225-10.77M716.523 912.913c9.224 1.331 4.822 30.404 3.8 37.328a70 70 0 0 1-1.689 1.531c-6.043 5.274-9.42 6.163-16.973 5.714-10.877-10.722-12.968-23.808-1.258-35.494 5.075-5.064 9.671-6.437 16.12-9.079M413.509 1128.16c6.572 2.83 10.468 4.24 17.329 6.27-.622 11.31-2.316 23.58-3.034 35.34-2.724 2.71-6.305 5.81-9.209 8.44-2.704 2.25-6.357 5.93-9 8.46-1.252-18.47 1.691-39.95 3.914-58.51m704.861-626.078c3.31 2.858 7.29 9.238 9.91 13.098-7.52 8.471-16.68 17.576-24.61 25.815-3.11-4.307-5.79-12.313-10.31-18.856 8.12-4.421 18.95-13.047 25.01-20.057M910.219 320.21l2.389.906c2.46 3.243 2.035 1.845 2.545 5.658-3.02 6.37-29.605 18.68-37.622 22.77-2.28-1.573-1.549-1.113-2.31-4.792-.871-3.128-1.276-5.283-1.816-8.49 2.589-4.444 22.367-11.088 27.837-12.622 2.254 3.518 4.51 8.976 9.009 7.2 3.805-5.595 2.918-5.176-.032-10.63m135.561 188.766c3.21 1.181 9.62 10.687 12.15 14.022-3.91 4.619-8.07 10.426-11.76 15.318-.59.207-.96-.117-1.83-.415-2.43-4.353-6.52-17.752-8.31-23.17 2.99-1.951 6.62-3.937 9.75-5.755"/><path fill="#fefefe" d="M825.699 245.315c10.01 5.444 21.615 16.479 30.214 24.222 2.546 2.293 2.402 2.39 2.359 4.921-8.58-5.126-23.907-17.472-33.565-23.953zm-8.047 13.588c14.465 7.285 16.876 10.247 28.923 21.216-2.765-.681-23.35-11.072-27.63-12.953-1.557-2.276-1.224-5.385-1.293-8.263m20.838-17.027c12.211-.367 24.147 12.999 28.162 23.577-4.138-1.436-21.584-18.592-28.162-23.577M441.819 1142.64c4.643 2.31 9.655 5.29 9.574 10.79l-2.788 2.37c-2.369 1.99-2.695 2.22-5.449 3.59l-1.787-.83c-1.313-3.94-.027-11.42.45-15.92"/><path fill="#6c6f71" d="M875.077 258.892c-3.838-4.827-7.867-8.488-11.14-13.886 5.523 4.59 7.054 6.289 11.624 11.899z"/><path d="M593.728 1131.59c4.32.11 6.286.15 9.207 3.33.688 8.16-1.052 21.69-1.611 30.29-3.322 51.07 3.256 101.56 11.254 151.88.403 2.53-1.205 5.15-2.509 7.18-3.079.2-3.011.23-5.994-.5-7.575-6.95-14.934-99.6-14.901-113.93.037-16.47-1.542-65.52 4.554-78.25m762.562-27.91c3.54.18 4.49-.09 7.15 1.93 2.57 5.05 1.29 34.66 1.56 41.77 1.81 46.23 2.89 93.41 10.49 139.04 1.1 6.57.55 7.39-3.38 12.12-1.65-.32-3.55-.56-4.99-1.47-2.01-1.29-2.12-2.75-2.6-4.98-5.22-24.29-17.01-174.97-8.23-188.41m-425.465 94.93c2.349.04 8.675-.06 8.881 3.58 1.873 33.14-1.845 69.46 10.345 101.07 2.958 7.67 5.28 5.37.326 14.04-1.224-.02-4.629-.13-5.349-.76-16.098-14.27-20.46-104.63-14.203-117.93m60.947-.54c1.936.39 4.013.66 5.391 1.92 1.971 1.79-.724 16.69-1.177 19.55-3.319 20.94-3.895 38.4-2.215 59.5.716 8.99 3.105 24.54 2.8 32.75-1.419 2.99-2.955 3.25-6.158 4.8-12.107-14.15-12.931-108.79 1.359-118.52m-108.249 4.42c2.803.36 3.646.79 6.319 1.82 1.586 2.28 1.973 3.02 1.935 5.82-.296 21.59.028 41.33 4.377 62.69 2.354 11.57 4.193 22.03 8.425 33.21.884 2.34-2.467 5.56-3.817 7.11-1.727-.44-3.146-1.1-4.8-1.77-11.069-11.45-21.957-97.39-12.439-108.88m325.427 1.17c5.21-.07 6.33.12 8.63 4.44.38 6.32-2.18 12.82-2.85 19.51-1.97 19.96-4.98 39.67-5.6 59.74-.21 6.78 1.08 20.79-2.53 25.45-1.71-.22-3.29-.59-4.97-.94-9.23-8.07.36-98.41 7.32-108.2m-749.065 29.03c1.968.1 3.552.34 5.494.59 1.179.98 2.534 1.6 2.635 3.08 1.896 27.95 4.008 55.92 6.2 83.87-.851 1.61-1.515 2.87-1.99 3.77-4.245.12-4.087.73-7.674-1.1-1.058-1.66-1.758-3.08-2.03-5.33-3.144-25.93-5.395-53.69-5.099-79.78.015-1.32 1.736-4.03 2.464-5.1m1031.925-28.54c1.17.24 5.21 1.32 5.56 2.61 6.63 23.98 11.35 48.48 18.39 72.42 1.77 6.01 4.2 15.87.94 21.39-3.08-.22-3.1-.19-5.99-1.21-6.14-7.51-18.91-73.15-22.42-86.49-1.2-4.57.47-5.86 3.52-8.72m-760.388 36.31c2.709.04 3.287.22 5.95.87.942.7 2.235 1.69 2.541 3.01 5.568 24 10.317 48.8 14.685 73.07.355 1.98-.728 4.42-1.521 6.06-3.317.51-3.467.58-6.637-.3-1.081-.97-2.417-2.34-2.623-3.81-1.906-13.59-16.688-69.55-12.395-78.9"/></svg>