<svg xmlns="http://www.w3.org/2000/svg" preserveAspectRatio="xMidYMid meet" viewBox="0 0 2048 1152"><path d="M461.155 64.49c5.538.943 55.506.348 63.311.341l158.742-.135 638.102-.027 259.95-.154c32.96.02 66-.736 98.95-.285 3.32.045 14.55-.245 16.82 1.686 5.61 4.763 4.36 81.157 5.07 94.273 38.07-7.016 91.16-12.065 118.21 22.76 4.62 5.96 7.31 12.412 10.19 19.294 113.49-15.848 101.91 84.159 105.06 162.459 1.02 25.411 2.22 53.021 3.41 78.595l8.29 181.087c.63 14.433 2.38 29.432 2.75 43.714a4388 4388 0 0 1-1.25 256.267c-.26 9.248 1.44 16.644-4.18 21.947.84 1.679 1.59 2.763 2.61 4.305.18 13.353-3.08 91.823-10.33 98.683-2.71 2.57-7.86 3.7-11.45 4.2-10.31 1.42-21.5.72-31.92.76-22.76.02-45.53-.17-68.3-.57-1.8-1.75-4.97-4.15-7.01-5.8-23.7 2.25-53.91 3.03-77.92 4.14-1.3 8.51.85 18.99-4.04 25.19-6.08 2.57-105.71-2.97-120.47-3.39-94.83-5.41-198.5-6.15-293.51-7.39-190.24-2.69-380.516-2.16-570.74 1.6-133.03 2.55-266.029 6.33-399.057 8.77-57.81 1.06-46.229 2.41-45.636-45.4-20.397 2.06-42.423 1.63-62.997 2.86-11.152.66-23.749-1.35-35.258-1.3-28.006.13-56.164.79-84.134-.22-24.753-1.15-20.604-15.97-19.679-34.077 3.781-74.023-2.065-148.424-1.133-222.411.044-3.453-1.935-6.895-2.045-10.462l-6.198-198.031a2858 2858 0 0 1-.145-145.399c.565-19.726 2.291-39.591 2.975-59.278.638-21.28-2.465-42.627-.925-63.897 4.31-59.531 64.012-55.149 107.539-51.012 2.031-12.244 3.652-25.024 7.596-36.79 19.601-58.476 86.215-38.616 128.644-24.139.386-14.864 1.431-114.336 4.418-119.95 8.321-4.037 99.243-2.5 115.69-2.814"/><path fill="#fefefe" d="M356.654 77.231c21.195.919 42.997.153 64.269.062l95.972-.108 269.297-.005 901.148-.196c-.26 60.874 1.43 125.279 2.44 186.21l3.33 224.454c.53 29.047 7.56 318.205 4.42 325.986-14.35 8.187-185.85 4.845-212.42 4.564l-225.18-1.331-60.65-.208c-12.61-.055-26.51-.442-39.06.998-6.34.727-10.5 3.251-8.64 10.387 6.06 6.564 29.34 4.011 38.87 4.152l104.69.816 227.48 1.388c53.31.321 108.59.766 161.83-2.331 10.75-.624 13.81-1.997 22.6-7.776 1.72 18.421 2.01 39.751 2.56 58.343a2800 2800 0 0 1 1.31 122.944 9653 9653 0 0 0-349.17-9.787c-50.87-.627-110.63.749-160.55-1.534-16.37-12.27-34.86-20.398-51.38-32.515-10.03-7.351-.53-12.118-.9-17.558-1.42-20.559-5.27-50.796-7.41-70.645-8.95-89.655-19.1-179.187-30.43-268.573a1904 1904 0 0 0-12.37-79.495c-4.04-23.049-7.94-37.209-9.42-60.902 2.98 5.844 6.29 15.22 8.73 21.608 8.98 23.14 18.29 46.173 27.55 69.199 3.54 8.818 2.48 22.671 10.78 28.602 13.97 2.158 10.69 10.935 20.58 12.566 8.46 1.394 16.74-10.309 16.24-18.704-1.47-24.688-9.75-48.932-15.93-72.898-15.78-61.283-27.92-125.118-52.49-183.481-4.57-10.737-43.4-20.77-52.05-30.092-1.91-5.629 4.79-17.046 7.31-25.196 3.45-.899 6.45-1.98 8.8-4.768 4.1-4.882 10.3-41.046 9.59-48.141-.77-7.705-3.77-14.27-9.92-19.105-11.73-9.221-44.43-10.678-59.13-8.957-8.69 1.016-17.112 4.214-22.62 11.314-7.877 10.152-8.209 24.685-6.585 36.904-11.477 11.902-11.654 29.506 6.548 33.768 2.698 8.407 9.315 18.634 7.873 26.264-5.693 9.789-52.011 19.06-59.138 34.886-13.177 29.259-24.202 58.888-37.023 88.399-8.994 20.704-15.789 42.041 14.371 47.789 13.881 2.646 34.805-14.662 45.196-23.14-.252 15.797 1.062 36.422-.571 51.608-1.316 12.239-5.866 30.557-8.479 43.41a968 968 0 0 0-9.21 55.077c-10.124 73.674-15.842 147.929-22.123 221.988-3.804 44.861-13.226 90.071-15.524 134.96-.114 2.232 4.468 3.675 6.164 4.416l.433 1.763c-11.009 9.119-54.051 32.05-59.657 40.523-37.825-.426-80.796.807-118.755 1.463l-144.308 2.057c-56.74.661-113.47 2.017-170.177 4.067-18.775.72-37.608.68-56.433 2.09 3.319-52.608.743-115.929-.167-169.048 23.819 3.122 62.09 3.394 86.056 3.248l91.376-.867 361.332-4.139c1.086-4.454 3.098-10.228.924-14.209-7.119-3.894-425.275 4.41-473.572 3.655-11.993-.188-65.017.873-71.214-5.907-2.986-3.267-3.926-7.454-4.222-11.749-1.46-21.227.389-43.441.35-64.783l.838-172.853c.33-121.82 1.544-243.636 3.644-365.438.707-42.111.65-83.224 1.977-125.489"/><path d="M397.183 98.595c7.753 2.112 60.548.434 71.381.353l124.554-.033 798.242.24 185.41.052c14.83.034 75.57-1.168 84.91 1.919 3.5 12.067 2.34 54.786 2.48 70.343l1.28 69.177 7.68 381.699c.53 20.139 7.06 165.803 5.13 170.241-1.37 3.153-3.82 6.912-7.33 7.938-5.54 1.623-34.58-.868-42.56-1.104l-98.44-2.324c-85.8-1.225-171.61-1.731-257.41-1.518l-85.14.106c-10.78-.022-37.26 4.684-40.23-7.328 2.85-10.907 34.33-7.689 44.76-7.821q37.35-.522 74.7-.469 108.315-.147 216.63.836c-.86-21.784-.1-43.681-.21-65.655-.07-13.308-9.86-7.453-19.9-8.383-7.47-.693-20.32 2.498-26.26-3.037-3.32-7.166-2.57-47.881-2.19-57.598-58.44-48.919-92.68-159.381-110.53-231.75-22.94-90.597-41.37-208.921-44.21-302.541l-513.59-.033c-3.761 89.513-19.236 194.765-39.284 281.51-17.461 75.548-45.643 165.321-93.494 227.586-6.607 8.597-15.515 19.774-24.701 25.545.266 12.154 2.472 48.454-1.96 58.395-4.171 2.961-35.713.992-43.852 1.162.303 16.699.778 67.847-1.207 82.047 21.556-1.034 46.028-.822 67.738-1.042l109.786-1.416 106.593-1.762c17.853-.278 39.791-1.189 57.408-.572l-1.923 14.37c-79.325 3.062-164.93 2.819-244.767 4.036l-124.958 1.546c-40.022.751-80.015 1.407-120.151 2.017-5.808.088-33.259.26-38.77-2.698-1.879-1.695-2.767-5.421-2.693-7.619 2.798-83.446 3.554-167.058 4.664-250.517l3.01-220.975 1.066-133.07c.134-24.199-.024-48.405.322-72.601.235-16.408 2.013-18.857 18.016-19.252"/><path fill="#fefefe" d="M509.031 645.523c28.844-.104 60.222-.016 88.91-.979-.223 7.532 1.515 45.252-.724 48.497-7.138 1.428-20.606 1.041-28.326 1.08l-55.343.259c-8.88.041-21.761-.511-30.312.658-5.537-.867-24.916-.256-31.394-.215l-65.961.296c.396-15.633.252-32.055.357-47.752 38.193-.736 85.806.495 122.793-1.844m977.479.025c55.62 1.101 116.87-.069 172.86-.435-.48 14.708-.18 31.117-.22 45.957-15.08 1.225-33.24.399-48.9.796-15.96-.104-159.05.736-162.71-2.096-1.86-12.777.1-29.741-1.45-43.696 13.36-.423 27.2.16 40.42-.526m-104.86-275.586c2.38 4.908 6.01 19.681 7.69 25.803 4.46 16.3 8.53 30.753 14.47 46.569-13.65 8.748-31.57 28.24-44.62 39.983-.95.375-.6.176-2-.247-6.01-23.495-13.4-44.794-19.14-69.229 13.55-9.076 32.22-30.398 43.6-42.879m31.01 97.717c.77.727 26.82 56.421 30.2 63.013-16.32 14.237-26.74 25.854-45.02 40.302-4.75-2.832-25.36-51.26-29-59.77 20.86-16.566 26.98-23.727 43.82-43.545m-749.084-98.091c11.187 9.791 29.28 36.618 44.251 41.578-2.283 15.226-15.39 54.973-21.21 70.31-2.864-1.956-10.14-9.093-12.975-11.74-10.963-10.232-19.844-18.961-32.3-27.357 7.81-19.693 16.393-51.786 22.234-72.791m-31.01 96.942c1 .646.917.58 1.581 1.427 8.092 10.318 31.395 38.125 41.783 43.06-8.822 22.339-16.126 39.032-27.828 59.831-5.047-2.141-37.776-34.308-43.208-40.062 10.488-20.842 18.505-46.739 27.672-64.256m-41.583 89.901c10.389 9.775 21.206 20.177 31.199 30.295 9.271 9.387 6.403 3.389 11.802 6.095.1 4.252-24.099 35.037-28.438 40.808l-13.304.179q-23.956.329-47.913.077c18.072-26.35 32.789-48.621 46.654-77.454m757.637-371.653c3.06 3.071 7.01 52.578 8.41 61.031.96 5.856-38.58 36.831-45.06 42.534-4.39-4.715-9.21-59.83-11.36-69.971 17.57-7.451 36.02-18.42 48.01-33.594m107.17 371.988c3.22 2.985 38.29 68.669 42.5 77.083-13.38-.062-28.28-.453-41.52.379l-15.04-.359c-5.48-8.666-19.76-24.651-27.23-34.998 17.41-17.229 24.56-21.504 41.29-42.105M698.177 186.513c12.029 8.55 28.537 29.957 45.265 28.234 1.109 7.33-7.456 63.161-9.16 73.017l-.894 2.829c-2.354-1.752-4.285-3.948-6.327-6.042-12.043-12.349-24.582-24.166-37.43-35.68 2.066-19.772 5.871-42.38 8.546-62.358m592.573-74.535c16.72-.459 35.32-.009 52.18.042-.03 14.326 2.62 31.802 3.47 46.735q-8.805 4.995-17.49 10.198c-9.96 7.084-20.47 11.919-30.26 19.264-3.07-9.717-6.34-61.962-7.9-76.239m72.79 171.904c1.49 1.472 9.76 49.968 11.04 56.48-13.74 10.225-29.75 29.935-44.67 38.699-3.94-7.29-11.89-51.683-13.83-61.56 23.47-13.406 26.32-11.881 47.46-33.619m-680.193-2.365c17.206 14.243 18.606 26.377 44.108 36.609 2.111 4.43-9.872 54.113-12.255 61.428-.498.811-.393.492-1.588 1.01-12.328-14.009-28.706-29.435-42.156-42.923 4.551-18.582 7.305-37.953 11.891-56.124m21.642-169.54 48.168.042c-.655 17.29-3.444 60.767-6.336 76.494-3.321-2.592-14.474-9.004-18.552-11.423-10.947-6.493-17.672-11.287-27.468-19.358 2.451-14.566 2.496-30.805 4.188-45.755M567.692 212.585c4.534 2.984 10.988 16.423 13.674 21.553 6.817 2.784 17.604 5.707 25.212 8.364-5.167 5.203-14.223 13.753-17.958 19.533.775 9.291 2.352 15.095 2.616 25.244-7.489-3.026-17.483-8.279-24.872-11.954-8.292 3.739-16.749 7.878-24.995 11.779a1177 1177 0 0 0 5.441-25.692c-4.717-7.071-11.421-13.744-16.71-21.166 8.02-2.094 16.437-4.011 24.52-5.979 3.645-5.136 9.161-15.497 13.072-21.682m908.128 2.803c4.07 1.339 10.84 15.071 13.44 19.719 9.12 2.482 17.23 3.02 27.06 6.063-4.88 6.407-14.04 14.794-20.06 21.05 1.1 7.314 1.76 17.119 2.49 24.653-7.85-2.544-14.86-6.468-22.19-10.262-6.67 2.208-17.69 8.237-23.87 11.582 3.03-37.237 5.54-18.745-15.85-46.159 7.57-3.014 16.3-3.615 25.09-6.913 4.78-6.03 8.57-13.044 13.89-19.733m98.99-65.032c4.3 1.938 8.35 9.662 11.01 13.856 7.3 1.557 11.73 2.639 18.79 5.012-4 4.777-9.51 10.437-13.82 15.11.14 5.395.48 10.996.74 16.407-5.43-2.48-9.97-4.535-15.61-6.609-5.43 1.828-11.07 4.295-16.39 6.498l1.18-17.458c-5.06-4.923-8.72-8.713-13.35-14.033 17.22-4.65 18.04-3.898 27.45-18.783m-1107.047-.981c4.068 1.339 5.818 7.246 7.966 10.493 4.413 6.673 14.305 7.804 21.599 9.369-4.685 5.031-9.55 9.589-14.409 14.914l2.551 18.341-13.966-8.287-.877-.763c-6.71-.203-13.255 4.668-19.01 8.179.34-5.476 1.156-11.562 1.769-17.062a1615 1615 0 0 1-12.931-16.433c17.731-3.289 19.007-2.291 27.308-18.751M1565.69 306.55c3.24 1.986 6.35 6.992 8.69 10.261l11.65 3.123c-2.38 3.183-5.34 6.462-7.96 9.499l-.07 12.785a308 308 0 0 0-13.03-4.094c-2.88 1.891-8.33 4.563-11.56 6.26 2.42-14.128 2.33-14.233-7.62-24.652 4.14-.96 7.76-1.536 11.96-2.192 2.86-3.062 5.57-7.43 7.94-10.99M559.238 388.51c2.362 1.445 5.554 7.808 7.157 10.588l10.997 4.787c-6.489 6.473-6.861 6.552-8.477 15.605-.478 2.676-.465 2.956-2.28 4.049-3.154-.992-5.25-2.047-8.193-3.452-4.857 1.412-6.975 3.2-11.306 2.345-2.152-4.043-.799-9.222-2.152-13.072-.58-1.649-4.376-7.345-5.478-9.005 12.942-.777 12.947-1.256 19.732-11.845m-81.939-82.005c9.1 7.135 1.384 11.131 19.074 13.264l-8.98 11.732.948 11.733c-3.832-2.274-8.021-4.479-11.947-6.633-2.957.922-8.839 4.169-11.859 5.731l1.709-12.809-7.994-10.103c4.032-.791 7.846-1.825 11.817-2.864 2.296-2.918 5.012-6.956 7.232-10.051m1008.711 83.047c3.22 2.031 6.26 7.759 8.45 11.232 3.29.511 6.13.724 9.02 2.425.35 3.294-5.55 6.943-5.66 8.295-.23 2.867-.87 8.865-1.21 11.881-2.26.399-7.67-2.284-10.29-3.333-3.89 1.097-6.92 3.914-10.81 2.258-.24-11.973-.15-12.127-9.58-19.142 4.55-1.238 8.65-1.887 13.27-2.672z"/><path d="M1257.3 293.256c5.03-.402 9.64-.252 8.6 6.642-5.44 7.884-58.64 16.577-71.78 19.696-6.2.915-10.19-1.954-8.63-8.613 5.5-6.084 60.02-15.37 71.81-17.725m-437.589-65.911c3.444.271 6.321 1.661 8.678 4.089 7.8 8.035 51.471 43.145 53.666 50.426-.51 4.401-.385 3.151-3.18 7.05-8.671-.227-54.763-44.338-61.642-53.672-1.442-1.956 1.372-6.172 2.478-7.893m362.139 126.732c21.79 6.493 47.05 8.023 69.05 14.288 2.29.653 2.66 2.85 3.21 4.693-.82 3.72-1.79 4.341-4.48 6.868-15.82-2.05-31.9-5.722-47.63-8.593-7.45-1.361-23.5-3.071-24.95-11.56 1.02-3.338 2.02-3.766 4.8-5.696m39.52-125.282c4.35 1.051 2.73.205 6.08 3.336.28 1.159 1.03 3.362.44 4.16-7.3 9.816-48.1 44.985-56.39 49.239-4.19-1.157-6.05-3.974-5.68-8.07 3.91-5.173 49.24-44.524 55.55-48.665m-436.72 65.064c11.955.56 52.305 11.8 66.255 14.713 4.086.853 6.558 2.243 8.401 5.794-.004 3.389-.901 4.395-2.647 7.2-2.889-.301-15.003-2.806-17.45-3.683-9.64-3.453-51.947-8.651-56.747-16.252-.562-3.28.656-4.865 2.188-7.772m69.047 63.49c3.227-.42 4.228-.694 7.401.245 2.75 2.661 1.961 1.349 3.061 4.957l-1.316 2.429c-6.667 4.494-48.83 11.542-61.07 14.667-2.075.56-4.238.9-6.357 1.282-3.566-.97-3.978-1.145-6.635-3.7-1.708-11.531 54.487-18.249 64.916-19.88"/><path fill="#fefefe" d="M1726.79 168.541c28.05-.823 76.62.906 86.92 34.07 13.81 44.447 6.32 99.647 8.06 146.668 2.38 64.678 6.1 128.806 9.26 193.426.42 11.114.06 53.615 4.19 59.737-2.72 6.902-2.88 12.005-1.89 19.341 1.59 11.659-2.61 36.105 3.77 45.417l.28.401c-.62.401-2.48 1.595-2.61 2.179-1.36 8.37-1.26 18.516-.85 27.028 1.48 30.935-.23 61.539-.68 92.464-.05 3.502 1.15 5.019 1.87 7.944-.11 4.083-2.55 8.357-2.59 12.619-.47 42.694-1.48 86.174-5.34 128.651-1.57 17.196-.8 34.007-3.02 50.652-1.61 12.122-.81 34.532-4.56 44.632-3.16 2.32-3.73 1.59-8.35 1.91-23.48 1.95-47.67 1.23-71.14 3.04.19-6.44 1.2-22.16-.37-27.78-2.71-3.28-10.5-4.48-14.75-5.46-1.3-9.763.64-48.555.4-61.91-.66-37.31-1.13-74.544-2.79-111.892a774 774 0 0 0-3.27-49.077c-1.59-15.261-4.28-30.181-4.65-45.49-1.49-62.099-2.35-124.258-3.59-186.365l-6-241.578c-1.08-45.569-1.07-93.569-3.22-138.91a524 524 0 0 1 24.92-1.717M272.67 185.447c24.946.456 45.458 5.913 68.604 15.378-2.09 33.93-1.506 76.305-2.171 110.925l-3.799 236.244-1.671 162.688c-.375 33.527-1.293 67.906.134 101.388.444 10.419 2.616 13.954 10.411 20.721.826 9.752.778 23.579 1.048 33.616.837 28.302 1.007 56.62.508 84.931-.198 13.647.036 40.007-2.003 52.342-4.721 6.26-21.037-2.66-32.603 4.44-2.491 2.74-2.301 4.39-2.578 8.01a968 968 0 0 1-70.623 2.93c1.449-10.76 1.169-28 1.213-39.131.238-29.245-.339-58.491-1.73-87.704-8.246-184.93-34.118-369.94-17.8-555.066 3.83-43.455-8.362-99.424 15.827-138.272 6.375-10.239 26.286-12.75 37.233-13.44"/><path fill="#fefefe" d="M1834.63 213.29c2.97.604 9.05.97 12 .751 84.2-6.239 70.5 99.088 73.32 157.346l6.73 145.38c1.09 26.477 3.06 52.598 2.13 79.134-.17 4.807 2.75 13.65 3.06 18.707 0 0-2.01 3.094-2.19 3.363 2.24 31.43 1.3 63.105 1.31 94.568.01 5.99 1.3 11.916 1.34 17.889.08 10.182-3 64.649-.62 69.834 3.15 6.865-.71 20.635-.83 28.548l-3.34 167.147c-.34 12.093-2.43 26.653-2.84 40.773l-10.95.78c-11.84.31-67.48 3.02-75.21 1.18 2.58-15.47 4.19-33.78 5.78-49.498a2117 2117 0 0 0 9.04-150.823c.39-12.03.67-27.34.79-39.554 0 .206-2.97-5.512-2.7-5.813 2.1-2.306 2.51-1.197 2.69-5.182.89-20.179-.06-40.607-.03-60.643a3331 3331 0 0 0-8.12-221.844c-1.78-25.863-5.27-65.073-6.67-92.45-.01-.091-2.28-3.303-2.5-3.72-.49-1.053 1.99-4.837 1.98-5.117-2.28-49.102-1.41-98.091-.72-147.21.13-9.192-1.29-18.447-2.1-27.579-.44-4.867-1.76-11.195-1.35-15.967M158.029 265.627c10.947-1.742 34.815-.744 45.832.794-1.108 9.69-.528 22.59-.291 32.468 1.488 61.959-5.896 123.26-6.825 185.309-1.077 71.971 1.852 143.489 5.371 215.367.319 6.506 1.6 12.782 2.34 19.225.452 7.448.218 15.481.659 23.209l5.872 91.501c3.68 56.833 8.398 126.113 7.015 182.59-9.668-.2-19.686-.55-29.319-.23-18.928-.48-45.913-.98-64.569-.23 3.474-31.294 3.841-73.397 3.817-104.737.26-34.104-.123-68.209-1.15-102.299-3.046-112.605-11.569-224.791-14.125-337.406-1.524-46.516 5.207-92.705 3.699-139.013-1.297-39.81-4.239-61.047 41.674-66.548M1021.83 642.4c2.8 4.379 10.23 38.714 12.23 46.53l18.84 73.533c5.45 20.98 10.6 39.505 13.84 61.019 8.51 56.416 14.31 113.685 23.24 169.965-15.15 1.066-37.55.537-53.22.615q-41.161.463-82.321.029c1.82-23.826.95-33.121 5.819-57.334 6.982-34.262 12.686-69.297 19.84-103.397 21.592-.485 44.272.355 65.882-1.011 4.4-.278 6.87-1.587 9.08-5.345.04-2.605.31-4.044-1.58-6.104-6.44-7.036-59.453-3.23-71.032-3.079 1.711-7.222 2.887-13.405 4.138-20.722 16.314-.458 33.004.509 49.344-.115 6.3-.24 8.88-1.141 10.31-7.464-3.94-11.491-44.56-7.222-56.741-7.263a2434 2434 0 0 1 20.381-89.771c3.96-16.686 7.47-33.545 11.95-50.086m25.25-339.97c13.55 8.798 44.37 18.512 49.46 29.104 10.25 21.327 56.6 192.832 53.76 200.801L1132.6 540a1859 1859 0 0 1-25.77-65.28c-8.28-18.891-17.38-53.677-24.61-74.159-.63-1.761-2.65-2.103-4.21-2.311-8.6 7.365-.98 76.267 1.12 90.466l-26.1 2.195c-.51-10.786-2.84-24.553-4.12-35.681-2.57-22.273-5.25-44.413-7.24-66.759-.69-7.781 3.92-15.729 3.2-20.093-2.48-15.114-5.82-22.561-5.06-38.386 7.42-11.813 7.37-14.748 7.27-27.562m-46.17 2.633c1.97 1.951.17 12.088-.15 15.128 6.48 13.391 9.51 5.12 9.4 25.758-4.64 3.334-5.3 1.427-10.555 3.676-3.912 3.628-5.244 12.25-6.12 17.343-6.481 4.6-13.242 9.658-20.167 13.451-.564-8.048.996-17.45-7.477-20.125-9.571 3.88-3.906 27.077-7.234 29.215-6.813 4.377-29.695 14.803-30.131 24.088l1.333 1.008c2.411.355 7.809.28 9.655-.863 15.478-9.591 33.444-21.129 48.621-30.812 1.901 7.503 3.718 11.99 7.337 18.724l-7.829 5.649c-11.55 8.091-57.315 41.522-68.186 45.73-15.387-2.749-20.046-4.852-14.007-21.923 5.967-15.171 12.213-30.636 18.831-45.544 7.831-17.64 14.257-38.194 23.045-55.172 10.453-6.252 41.357-19.657 53.634-25.331m29 89.201c2.19 4.677 5.7 46.822 6.67 55.012 4.6 38.712 9.47 77.391 14.62 116.035l47.84 353.186q3.645 28.78 7.68 57.505c1.24 8.261 3.13 17.186 4.24 25.498.35 2.59-.74 3.46-2.15 5.73-4.67-2.23-5.05-3.25-5.9-8.166-3.82-21.967-6.54-44.097-9.51-66.19l-14.57-107.916c-5.85-43.218-12.99-86.904-19.05-130.222a7714 7714 0 0 1-16.29-128.569 10234 10234 0 0 1-14.11-118.422c-1.68-14.998-3.49-31.288-4.94-46.442-.3-3.143 2.92-4.879 5.47-7.039m-17.48 10.53.65-.2c1.58 2.347 8.98 77.88 9.82 86.334-15.71.202-31.431.307-47.15.314-2.908.002-3.509.183-6.081-.965-2.007-7.757 1.812-43.986.514-56.325 8.407-6.185 34.677-28.206 42.247-29.158m-2.31-187.959c12.53 3.245 23.51 4.863 36.24 6.826-3.7 33.468 6.32 17.557 15.52 23.14.9 3.956.57 5.351-2.16 7.974-10.42 1.835-8.34 3.483-11.79 12.978-3.22 8.882-3.19 19.746-14.8 15.374-7.92-2.599-18.47-.789-25.72 3.096-8.855-10.919-7.743-18.39-14.938-29.05-1.416-2.098-4.389.731-9.088-3.302-1.022-3.489-1.217-4.014-.629-7.573 3.945-2.285 5.073.723 11.25-.493 9.045-6.604-1.469-17.329 16.115-28.97"/><path d="M1009.12 258.415c5.48 2.306 11.23 4.39 16.81 6.496 4.44-1.935 10.85-6.631 14.38-2.914.42 3.586-.91 5.871-2.34 9.148-12.63 14.324-29.8 4.443-28.85-12.73m11.4-16c4.17.918 3.93.933 6.22 3.595.82 3.602-.09 5.496-1.19 8.963-3.58-1.082-4.65-1.812-6.41-4.925-.52-3.648-.04-4.39 1.38-7.633m15.45-8.039c3.67 1.31 3.72 1.402 5.08 4.076-.19 3.185-1.31 4.188-3.24 6.649-3.52-1.34-2.35-.397-4.41-3.547-.15-3.306.86-4.426 2.57-7.178"/><path fill="#fefefe" d="M915.406 965.932c8.373 3.774 18.993 9.632 27.28 13.904-.074 4.543-.499 9.729-.766 14.316q-21.102-.18-42.198.36c-4.04-.694-23.931.412-29.316.653 13.038-10.721 31.269-18.962 45-29.233m218.934.965c1.03-.016 40.62 24.86 44.8 27.21l-16.39-.103c-7.52.081-34.34 1.112-39.94-1.27-2.3-3.754-3.24-12.417-4.29-17.371 5.55-3.537 9.94-5.611 15.82-8.466m-125.42-611.695c9.86 3.249 6.48 14.812 22.21 4 2.18 2.068-.06 5.118.82 7.318 2.39 5.995-1.22 12.476-6.03 17.692-5.15 4.853-10.27 6.912-16.63 9.538-11.809-15.434-6.51-21.642-.37-38.548m145.86 188.789c4.42 3.384 10.49 33.196 3.11 39.537l-1.72-.235c-2.3-2.84-2.45-5.858-3.07-9.483-.5-3.904-.59-7.527-2.81-10.725-4.25-2.355-3.9-.99-9.87-1.074-2.76-3.11-2.4-5.386-3.28-10.014 6.09-2.481 11.71-5.186 17.64-8.006M919.669 954.227c5.973-1.184 17.124-.936 22.773 2.708 1.794 2.652 1.057 5.421.767 8.818-.376.299-1.612.657-2.143.843-5.08-2.709-18.825-8.738-21.397-12.369m101.861-624.429c2.41.407 2.53.382 4.3 1.959 1.82 4.893 2.51 12.475 2.61 17.731l-2.93.875-1.23-.685c-2.06-4.763-2.24-14.168-2.75-19.88m101.81 624.205c2.67.414 1.66-.197 3.32 1.5-1.03 2.253-5.19 4.22-7.55 5.624l-1.56.624c-1.76-2.255-1.37-1.131-1.08-4.406 2.64-3.182 2.03-2.251 6.87-3.342"/></svg>