<svg xmlns="http://www.w3.org/2000/svg" preserveAspectRatio="xMidYMid meet" viewBox="0 0 2048 1462"><path d="M1529.6 66.205c27.18-.439 57.92.089 60.25 36.665.99 15.479-1.35 32.316-2.45 47.903l-5.87 84.362-15.46 240.87c-2.16 34.34-6.66 77.836-7.42 111.09 25.41 26.255 25.87 81.163-6.44 102.758-5.39 51.365-7.07 110.109-10.86 162.337-5.46 69.823-10.2 139.702-14.22 209.62-2.67 38.92-5.04 77.85-7.12 116.8 29.19 20.04 67.17 52.78 95.63 75.46l74.91 59.6c12.61 10.01 32.6 23.94 43.47 36.37 1.86 2.11 1.77 4.62 1.05 7.23-8.92 8.58-22.63-7.4-29.44-12.93l-40.93-32.97c-48.33-39.04-97.17-79.51-146.72-116.96.38 34.86-5.07 72.51-5.43 107.67-.09 9.15-2.11 25.27-8.28 32.44-29.29 34.01-84.9-4.35-115.12-20.79-23.29-12.4-46.49-24.94-69.62-37.64-8.91-4.83-28.41-15.84-37.28-18.58-3.52-1.09-38.19-.75-42.24-.17-3.84 3.49 5.23 20.83-1.13 32.38l-.54.97c11.05 10.24 67.63 55.18 69.49 60.47 14.45 41.08-122.6.59-134.93-4.01-2.25-5.53-4.2-12.66-5.79-18.5-6.44-23.78-15.26-46.84-22.17-70.44-11.22-1.52-25.32-1.02-36.9-1.03l-56.45-.02c-56.241.02-113.465-.78-169.597-.04-13.458 25.4-20.929 57.32-33.272 83-2.492 5.19-64.059 17.64-72.876 19.69-14.412 3.21-64.456 15.7-64.627-7.64-.095-12.85 53.337-43.34 63.751-52.66 2.166-1.94 15.835-11.19 15.957-13.44.55-10.11 1.998-19.39 3.609-29.2-62.95.94-126.515-1.01-189.529.15-7.944.15-24.306.75-30.968-3.33-2.909-6.86-1.127-43.89-1.577-54.95-71.39 50.46-140.59 104.47-211.421 155.73-4.562 3.3-11.966 7.31-17.077 3.71-.819-2.89-.507-7.63 2.026-9.58 8.204-6.31 16.69-12.32 25.052-18.43l47.198-35.11 108.902-80.66c14.927-10.91 29.587-22.47 44.862-32.84.537-23.43-.004-49.18.044-72.86.295-58.74.135-117.473-.478-176.207l-.655-248.144c-9.346-6.967-14.135-11.604-17.972-23.621-6.443-20.176-8.265-55.484.946-74.896 4.13-8.705 9.225-11.467 17.588-14.147-1.686-31.086-.526-77.229-.566-109.526l-.393-198.293-.051-94.375c-.038-12.615-1.213-45.342 1.479-56.405 10.024-3.163 52.286-2.169 65.737-2.171l88.373-.001 409.325-.145c21.66-14.837 50.6-19.024 70.98.263l102.96.035c12.68.019 42.92 1.372 54.25-.924 55.21-11.186 110.88-33.187 166.03-43.938"/><path fill="#fefefe" d="M1514.5 84.161c9.9-1.229 11.74 10.166 11.55 17.606-.66 25.56-3.38 51.304-5.03 76.844l-10.41 161.346-46.03 688.253-12.51 198.23-3.69 63.86c-.59 9.21-1.52 27.43-3.52 35.92-5.28.42-81.01-41.51-91.38-47.21-15.32-8.05-46.09-25.78-60.27-31.31 2-21.23 2.77-44.72 4.03-66.18l7.59-129.04 22.04-347.981a34987 34987 0 0 1 24.34-352.995c6.12-75.853 11.57-151.758 16.36-227.707l86.43-22.91c20.07-5.464 40.38-11.716 60.5-16.726m-307.86 97.12.74.513c10.99 32.588 23.66 127.06 15.69 158.533-14.77 58.344-61.23 139.043-97.8 186.409-.04-.89-.1-1.78-.16-2.669-.58-7.692-2.92-35.519-7.64-38.35-11.28-4.398-9.95 8.162-9.4 13.667 3.42 33.9 8.25 67.119 9.43 101.188.94 8.835.2 21.977 2.7 30.289 15.88 52.976 36.53 106.585 49.84 160.235a108.1 108.1 0 0 1-50.96 33.515c-6.93-28.355-37.18-209.744-44.09-215.967-1.43-1.279-3.22-1.712-5.12-1.426-1.84.277-3.11 1.417-4.04 2.958-1.54 2.571-1.24 6.145-.9 9.019.8 6.628 3 13.218 4.33 19.766 3.32 16.302 6.12 32.685 9.55 48.981 4.24 20.193 7.29 40.848 12.44 60.816-40 10.773-103.722 12.911-144.192 4.057 7.272-36.836 25.066-97.246 31.579-136.516.297-1.793-2.593-3.715-4.051-4.739-5.596-.2-8.257 4.546-9.677 9.556-4.4 15.531-7.898 31.428-11.614 47.15l-18.732 78.491c-3.445 14.835-6.107 29.8-10.065 44.484-2.295 11.185-4.434 22.218-7.521 33.223-16.5-6.427-30.513-15.432-45.119-25.363 8.469-30.651 15.969-60.996 24.925-91.735 6.31-21.657 15.279-50.887 18.782-72.737 2.357-21.554-2.947-43.433-2.461-64.866.248-10.899 4.092-25.132 5.525-36.158 1.043-8.022 4.353-15.016-3.037-20.665-3.244-.331-3.065-.351-5.921 1.248-4.621 5.871-8.917 42.028-10.442 52.007a1113 1113 0 0 0-139.335 103.891c-9.29 8.014-24.659 20.313-31.642 29.441-9.61-8.334-21.584-21.317-26.819-32.629 6.991-10.166 19.877-24.911 28.005-34.677 53.263-64 116.205-122.255 186.893-166.515 16.296-10.204 36.203-18.285 53.839-25.519.911 12.555 1.371 19.458 8.494 30.531 13.142 20.677 42.596 26.834 62.606 12.428 14.58-10.504 19.4-20.758 22.47-37.678 20.59-16.81 43.78-38.449 60.39-58.87 33.92-41.694 41.29-70.618 44.13-122.557 1.55-24.248.98-48.585-1.68-72.736 15.09-2.766 25.31-5.692 40.06-10.024"/><path fill="#fefefe" d="M636.212 169.448a16077 16077 0 0 0 349.864.347c49.864-.067 104.804-1.184 154.434.268l12.3 15.248c1.93 32.799 3.46 49.346.84 82.821-17.79-1.454-34.06.72-48.52 11.959a49.56 49.56 0 0 0-18.97 33.548c-3.39 27.763 10.22 44.942 25.6 64.339-8.18 14.599-26.7 29.844-44.36 30.685-2.28.108-2.76-.778-4.09-2.307-.41-10.001 8.15-15.336 15.51-19.704 14.46-8.593 12.73-31.206 3.39-42.709.22-34.372-8.93-69.87-43.09-84.728-42.782-18.609-79.317-1.1-97.303 40.069-18.117.267-35.403 4.457-48.915 17.228a45.1 45.1 0 0 0-14.43 32.466c-.152 13.874 8.902 41.873 16.926 53.443 2.81 4.053 7.304 8.65 10.863 12.271.844 4.207 3.061 9.958 2.199 13.75-2.137-.221-8.732.715-11.745.823-10.985.397-21.785.959-32.801.78-.712-3.362-2.054-7.433-1.073-10.49a56 56 0 0 0 2.918-3.517c12.482-16.109 9.206-35.993 7.751-54.59-2.232-28.521-14.925-48.997-46.045-47.991-.584.294-6.14 3.952-6.14 3.952-21.085-2.83-41.258 9.916-48.756 29.356-12.334 31.981 3.112 56.388 29.418 75.036-.064 7.264 1.049 13.265 2.189 20.417-1.716 8.118-40.96 20.655-52.756 30.198-23.823 19.274-15.446 42.56-24.224 50.224l-1.308-.463c-1.168-7.185 3.991-28.686 7.395-35.356 12.186-23.878 44.425-33.65 67.655-44.255-.93-3.169-1.718-7.696-2.402-11.027-22.961-22.684-34.405-18.238-55.005-32.352-.436-3.289-1.5-9.618.116-12.125 3.966-6.153 9.976-31.512 12.9-35.23.363-5.919-.297-20.523-.607-26.691-.717-14.245.53-21.278-10.47-31.209-13.064-12.18-24.492-17.656-42.389-16.966-26.195 1.011-29.959 7.906-47.368 23.463-2.297 9.656-4.532 15.27-8.261 24.533 2.448 15.857 19.128 49.272 32.127 58.788.873 9.395 1.183 14.166.821 23.629-6.507 3.546-14.145 6.156-20.915 9.51-8.388 4.155-16.474 8.838-24.597 13.479 2.015-15.442.38-54.934.407-71.62l.417-112.239c.04-25.132-.424-52.062.5-77.061"/><path fill="#fefefe" d="M584.875 125.049c38.96-.776 80.164.03 119.326-.001l238.964-.152 118.885.08c16.74-.004 50.07-.937 65.33.92 1.51 9.56 2.4 21.275 7.51 29.245-15.88 1.337-36.5.777-52.71.792l-83.883.118-281.28-.038c-12.271.014-85.359-1.242-93.156 1.588-3.862 15.573-2.288 67.924-2.12 86.498l.046 90.644.308 430.007.602 345.07.155 84.68c.017 12.44.482 36.67-1.242 48.31l-35.483-.13c-.707-9.26-.163-19.95-.231-29.4-.742-104.53.254-209.11-.032-313.633zm950.355-45.123c29.89-.484 42.3 2.995 40.38 37.045-1.37 24.481-3.11 49.161-4.79 73.636l-10.72 154.892-32.5 500.936-19.44 299.275-6.46 102.99c-1.17 22.04-1.86 44.16-3.6 66.15-.64 7.98-4.65 11.86-10.59 16.43-6.58 3.04-18.97 4.1-26.19 1.91-.91-.27-1.89-1.02-1.83-2.12.65-12.05 1.4-24.15 2.14-36.2l52.7-804.943 18.53-273.887a5522 5522 0 0 1 4.34-66.809c1.22-15.968 2.69-32.156 3.41-48.158.37-8.228-2.18-13.654-5.38-21.147m-315.96 90.329c43.59-.229 87.61.566 131.15.005-.62 27.534-3.95 56.437-5.75 84.007-.8 12.127-2.32 25.634-2 37.687-17.93-18.513-42.24-25.409-66.53-12.133-14.47 7.909-20.58 22.344-24.43 37.792-4.13 22.462 5.23 51.348 25.29 63.79l.65 15.49c-4.55 2.42-9.22 5.136-13.73 7.669-5.42-28.124-6.43-37.809-28.78-59.414 11.01-46.762-4.53-127.548-15.87-174.893m13.06 686.511c7.76 10.331 50.13 269.454 51.75 298.364.25 4.52-.49 26.36-.77 32.9-.78 18.06-1.61 36.68-3.37 54.7l-14.69.32c-9.83.18-19.67.16-29.51-.08-1.66-15.73-5.83-32.36-7.24-48.27-1.11-6.49 3.83-12.09 2.8-18.59-7.87-49.26-5.7-96.25-4.36-146z"/><path fill="#fefefe" d="M1028.72 306.182c5.76 4.728 14.52 18.931 23.7 25.535 6.51 4.682 14.35 6.404 16.22 9.291-.68 4.143-3.77 1.91-6.17 8.385 2.49 9.266 7.8 2.835 13.39 8.609 1.9 6.566-.8 14.697-2.54 21.202-1.56-4.239-2.79-9.287-6.78-11.192-3.72 2.895-7.41 13.32-8.92 17.937-2.05 6.284-9.83 20.63-10.49 26.075-1.69 16.055 3.4 29.862-1.85 45.724-5.53 16.706-24.99 22.822-40.74 17.338-8.809-3.065-15.332-12.104-18.982-20.88-1.403-5.359-1.633-25.539-.188-30.477 8.513-.689 27.88 13.989 38.08 4.503 3.9-13.049-16.23-9.823-25.737-14.219-11.811-5.464-18.581-7.731-25.451-19.807-3.694-6.494-5.617-19.119-11.451-22.576-3.114.25-5.095.79-7.708-.657-13.625-23.171 16.047-20.675 31.342-29.174 18.885-10.492 29.975-19.636 44.275-35.617"/><path d="M1027.85 367.02c13.22 2.854 6 15.464 1.8 23.089-13.49 7.392-20.38 8.029-31.407-4.016-1.906-4.272-6.079-13.211-1.156-16.559 6.303 3.184 12.813 15.78 20.733 14.611 7.74-1.142 4.77-11.821 10.03-17.125m4.22-28.016c6.18-.056 14.26-1.049 18.07 4.409-.54 3.954.03 2.427-2.96 5.894-6.26.926-12.76 2.412-16.82-3.449-.36-3.541-.19-3.663 1.71-6.854m-31.99 2.404c3.42.184 4.24-.056 6.91 1.812 1.87 3.34 1.67 1.833.76 5.37-2.6 2.776-3.41 2.833-7.15 3.788-5.768.169-7.519.76-11.395-3.89-.501-3.387-.735-1.764 1.053-4.976 2.815-2.33 5.967-1.932 9.822-2.104"/><path d="M1012.19 364.901c5.03.819 8.63.488 11.04 5.411-.59 3.296-1.19 3.501-3.77 5.947-4.88-.052-8.11.078-10.37-4.605.22-3.427.91-3.858 3.1-6.753"/><path fill="#fefefe" d="M690.241 878.799c1.863 1.964 2.547 39.726 3.009 46l19.643 256.141c.503 6.01 3.905 7.29 4.083 11.06.446 9.41-1.078 19.54.71 28.82 2.118 10.99 12.599 16.72 21.434 22.44-12.383-1.72-33.376-.86-46.555-.64-9.488-1.2-52.275 2.52-56.835-1.37-.329-3.37-.829-5.41.274-8.6 3.43-2.79 12.437-4.16 18.576-6.94l1.094-.5c9.537-14.95 7.355-20.09 10.386-36.22 6.854-36.46 8.182-73.33 10.492-110.44l9.111-136.552c.675-10.913 2.754-55.013 4.578-63.199m283.427 165.081c3.68 4.32 20.205 130.5 25.505 144.99 9.807 26.81-1.995 31.94 28.177 54.66-17.02.83-36.793.05-54.117-.28-4.251 1.18-41.085-.04-47.772-.18 3.026-2.31 5.765-4.42 7.67-7.81 13.988-24.89 8.275-99.82 14.95-131.63 3.918-18.68 17.284-42.02 25.587-59.75M705.812 735.66c4.805 3.443 114.375 221.474 130.151 247.188-1.025 9.492-1.995 14.752-4.564 23.862l-1.533-.19c-8.668-13.079-23.74-45.48-31.819-61.015l-66.451-129.731c-11.57-22.242-23.773-46.525-36.669-67.953 5.07-4.805 6.822-6.559 10.885-12.161m505.518-610.857c45.32-.875 95.99.336 141.86.287-.12 9.804-1.14 21.728-1.74 31.663-11.39.598-31.09-.259-43.03-.335-31.11-.25-62.22-.304-93.32-.163-.22-12.421-.98-19.61-3.77-31.452m-209.09 140.496c43.69-.36 57.85 22.557 66.94 61.68-16.03-11.634-20.15-15.436-31.55-31.852 1.61-4.736 4.76-11.782-2.05-13.719-8.17 2.484-9.64 6.516-14.36 13.592-13.02 17.91-50.229 43.315-72.647 43.983-.267-.506-.871-1.621-.821-2.237 2.768-34.234 16.455-66.773 54.488-71.447m218.2 1026.991c2.77-1.06 4.11 1.67 6.04 3.57 21.74 21.46 45.89 40.99 70.03 59.71-18.55.06-29.9-.55-48.27-2.99-23.35-3.8-43.66-10.69-64.42-14.45-4.28-14.16-8.36-30.66-12.49-45.23 13.77 2.65 35.36 2.2 49.11-.61M797.145 972.892c.276.374.566.737.827 1.122 3.073 4.535 3.861 12.13 4.744 17.504 1.985 12.092 14.382 113.362 13.458 118.382-2.057 11.18-2.992 22.63-4.886 33.86-5.39 31.99-11.276 63.99-15.579 96.14-.869 2.2-.139 1.34-2.471 2.46l-1.364-1c-2.162-6.81-.271-10.02-.231-17 .075-12.83-1.62-26.56-1.023-39.34 2.919-62.47 4.043-124.87 5.05-187.403.11-6.772-.001-18.443 1.475-24.725m4.567 318.588c16.77 7.54 29.063 8.82 46.912 10.6-3.029 10.8-6.018 19.18-9.925 29.74-21.873 4.3-47.727 11.15-70.283 16-15.83 3.93-26.813 5.39-43.002 4.98 18.224-18.87 62.471-40.7 76.298-61.32M1170.75 112.415c36.09-4.408 30.06 33.841 30.68 56.88-9.67 2.866-17.89 5.068-27.72 7.328q-1.74.406-3.51.714c-17.57 3.01-28.52-39.3-30.79-52.437 9.6-9.978 18.11-11.147 31.34-12.485"/><path d="M1183.2 126.099c3.95.6 5.17.891 6.85 4.45-.43 3.484-2.66 5.462-4.98 8.293.17 5.174 10.22 13.567 4.4 20.121-6.87.886-12.85-7.771-16.09-12.51-5.5-3.601-14.29 2.675-21.42-1.447-2.13-2.988-1.72-1.582-1.76-5.176.7-1.456 2.15-4.005 3.67-4.392 12.85-3.273 17.24-2.623 29.33-9.339"/><path fill="#fefefe" d="M1064.89 1185.17c7.96 8.34 16.7 44.48 18.64 56.82-15.2 2.85-30.3-.06-44.07-6.91-23.12-13.01-21.16-23.56-25.96-47.86 19.05 5.58 33.1 3.86 51.39-2.05M691.056 679.625c1.678.833 21.281 24.487 24.851 28.536-10.113 11.657-30.111 34.899-43.606 41.591-13.859 2.729-29.843-13.935-23.724-21.918 11.746-15.321 30.18-32.902 42.479-48.209m83.021 510.565 1.356.28c1.842 5.93 1.638 43.39 1.711 52.18-11.408-2.5-20.941-7.08-31.586-11.74-18.417-10.25-15.461-19.53-15.301-38.62 16.996 3.55 27.463 2.16 43.82-2.1m115.065-361.606c1.469.86 2.65 1.871 3.998 2.918.517 1.785-9.991 39.144-11.46 44.938l-20.081 81.467c-10.712 42.383-23.167 90.993-31.49 133.913-.733-.13-1.002-.16-1.783-.4-1.272-.4-2.719-.8-3.296-2.04-2.984-6.42 55.586-239.003 64.112-260.796m194.128 313.196c4.74 3.48 11.71 46.9 14.29 53.8 7.88 21.05 17.27 34.03 36.62 45.29 1.56.91 1.29 1.47 1.41 3.09-12.71.12-26.33-.52-38.93.21-1.1-15.29-8.76-43.98-17.41-56.74 2.34-12.62 3.83-32.79 4.02-45.65m88.19-225.268c2.26.319 2.96.666 5.03 1.47 1.86 2.424 32.61 201.338 33.39 222.568-3.95.07-2.6.61-5.42-1.58-4.47-19.16-8.4-54.62-11.53-75.02l-15.03-97.557c-1.18-7.567-7.18-43.904-6.44-49.881M928.77 1188.36c.08 8.44-1.174 20.23-3.179 28.5-3.273 13.51-9.655 17.49-20.807 24.2-5.77 2.21-11.872 1.84-17.964 1.75 7.087-17.46 14.272-36.1 22.054-53.15 6.628-.5 13.26-.93 19.896-1.3m98.48-247.045c1.59.38 2.55.791 4.07 1.358 7.72 10.361 37.48 95.667 44.03 112.777 6.23 16.26 12.32 32.57 18.26 48.92 2.54 6.93 10.9 25.85 8.41 31.89-1.89-.28-2.03-.6-3.67-1.65L1058.98 1030c-4.23-10.93-32.92-81.333-31.73-88.685M636.191 617.732c4.724 4.028 30.152 54.523 36.818 64.749l-5.213 5.179-5.71 6.517c-9.01-15.709-16.826-31.876-25.968-47.337a689 689 0 0 1 .073-29.108m367.399 321.814c.64.465 2.19 2.045 2.85 2.678.84 6.633-38.528 87.756-43.664 101.206-2.105-.94-1.974-.87-3.57-2.54 1.774-10.42 37.106-88.745 44.384-101.344M571.323 587.538c.162.354.992 2.17.953 2.51-1.036 9.088 2.006 70.967-.285 74.564l-2.12-.745c-9.208-17.352-12.705-61.341 1.452-76.329m657.937-139.673c7.3.027 42.01 14.43 50.92 17.223 10.33 3.237 41.77 25.01 42.56 36.225-3.63-1.215-21.48-16.637-26.34-20.266a125 125 0 0 0-15.11-9.571c-16.04-8.721-34.65-11.09-50.42-19.871-1.66-.922-1.25-1.521-1.61-3.74M635.055 1185.88l17.167.66c-.278 7.92.617 20.74-5.804 25.87-3.555 1.7-6.954 2.95-10.618 4.36-.992-6.42-.52-23.07-.745-30.89"/><path fill="#fefefe" d="M1109.81 1171.2c5.1 1.01 19.12 42.7 20.4 49.04l-1.99.62c-8.25-7.53-24.07-33.51-23.17-45.2.16-2.11 3.08-3.37 4.76-4.46m50.05-330.917c.54.15 1.17.29 1.64.602 4.35 2.895 8.82 37.892 9.3 44.686.27 3.776.08 4.574-2.35 7.309-2.53-1.731-2.69-1.868-3.42-5.154-3.06-13.732-6.86-30.214-7.1-44.192.79-1.329 1.43-2.413 1.93-3.251M938.049 349.614c.818 2.093.77 11.117.309 12.988-3.476 14.117 16.962 20.587 16.996 29.424l-2.18 1.249c-3.179-.518-8.07-1.092-10.602-3.03-11.622-8.897-13.121-29.35-4.523-40.631M1557.01 611.62c7.96 15.335 4.77 39.619-1.46 55.134-.43.165-1.46.23-1.98.289-1.08-4.767 2.37-48.378 3.44-55.423m-335.92-224.97c11.08 4.725 24.9 40.137 20.71 50.231-5.26-3.616-10.26-29.851-15.58-36.189-2.31-2.754-5.72-10.12-5.13-14.042m-388.33-38.212 1.899 1.405c4.968 8.879 8.168 44.462 7.186 55.315-1.135-.355-2.648-.536-2.771-1.417-1.152-8.238-7.825-50.098-6.314-55.303m500.85 27.369.96 1.298c.2 7.997 1.24 11.964-1.78 19.092-3.02 1.811-2.43 1.103-7.06.202l-2.28-1.128c-2.42-7.178 5.73-14.635 10.16-19.464"/><path d="m536.332 1085.48 1.718-.16c3.528 1.7 3.896 1.7 5.944 4.85.592 4.95-13.123 52.38-17.716 59.18-2.032 3.01-3.335 3.67-6.585 4.28-10.731-5.24 2.236-31.52 4.815-41.92a8479 8479 0 0 0-121.856 77.78l-229.061 147.52c-2.074 1.3-4.31 2.87-6.909 2.74-4.382-.21-7.867-4.85-6.653-9.13.422-1.49 1.435-3.08 2.783-3.95 14.633-9.48 29.364-18.8 44.073-28.16l95.117-60.7a9540 9540 0 0 1 134.305-86.2c24.475-15.74 56.467-37.58 81.124-51.3-9.981 1.28-34.441 6.57-41.648-.08-1.154-3.94-1.055-2.26.049-6.59 6.437-6.85 48.733-7.32 60.5-8.16m1093.488 5.94c8.12-.67 11.44-1.96 16.57 4.98.94 11.26-35.52 10.32-44.09 10.76 25.31 12.98 55.75 32.32 80.48 47.17l141.37 85.91 70.7 43.22c9.76 6.02 30.02 13.95 31.35 26.19-.98 3.1-.07 2-2.4 3.69-9.95 2.17-26.93-11.35-36.44-17.34-40.2-26.75-88.97-54.69-130.82-80.48l-108.93-66.06c-15.93-9.5-31.76-19.87-48-28.67 2.92 8.99 5.98 17.89 9.16 26.78 1.89 5.3 2.63 11.99-4.12 13.62-9.47-3.41-27.99-58.42-23.89-64.86 7.29-3.39 39.38-4.33 49.06-4.91"/></svg>