<svg xmlns="http://www.w3.org/2000/svg" preserveAspectRatio="none" style="display:block" viewBox="0 0 2048 2048"><path fill="#fefefe" d="M0 0h2048v2048H0z"/><path d="M1001.16 147.435c10.82-1.142 13.24-.064 23.93 2.274 14.18-4.886 20.19-2.324 34.32-2.006 350.93 7.9 672.5 234.663 794.13 564.727a986.6 986.6 0 0 1 51.43 222.134c5.33 45.295 5.75 79.566 4.12 124.306a885.4 885.4 0 0 1-188.37 516.88c-18.75 23.75-37.76 47.17-58.57 69.18a882.13 882.13 0 0 1-478.98 262.75c-29 5.43-61.55 8.42-91.03 11.18-11.05 1.04-22.76.95-33.2 2.17-17.17.84-39.94-.15-57.81-.41-245.619-3.55-486.101-121.43-640.576-312.62-152.04-185.82-223.989-424.45-200.003-663.344 26.609-238.324 145.874-456.625 332.047-607.774a857.3 857.3 0 0 1 428.41-182.314c17.167-2.189 63.456-8.502 78.976-6.317z"/><path fill="#fefefe" d="m1017.09 176.454.7.061c4.95 4.261 5.02 2.135 11.2 1.426.82 1.979.55.934.13 3.368 4.61 1.263 43.4.842 51.39 1.511 28.39 2.377 57.3 4.749 85.46 9.137a854.8 854.8 0 0 1 446.58 216.353 789.3 789.3 0 0 1 105.34 122.386c102.22 145.721 147.63 305.916 154.25 482.754 8.07 215.48-86.62 439.6-233.46 595.88a862.16 862.16 0 0 1-503.71 267.23c-35.34 5.1-67.72 6.58-103.22 7.66-11.04 1.73-51.427-.54-64.57-1.13-65.411-2.93-134.721-16.9-197.668-34.88-4.655-1.33-17.241-3.96-19.942-6.79-.683-.66-1.368-1.88-2.388-2.14-17.242-4.3-34.039-10.26-50.407-17.33-203.322-86.87-363.289-251.68-444.049-457.5-37.451-94.3-54.904-194.37-62.18-294.82-.308-4.25-1.117-8.69-1.152-12.96a879.2 879.2 0 0 1 69.828-352.248c107.879-248.323 311.026-432.139 575.726-498.466a751.7 751.7 0 0 1 123.551-21.188c15.74-1.451 40.48-2.348 56.741-4.631 1.4-.198 1.36-1.847 1.85-3.683"/><path d="M1376.15 1722.95c-3.89 3.3-34.66 19.21-37.74 18.59q-1.125-2.715-2.37-5.37l-1.69 1.23c-.89 2.51-1.02 2.95-1.23 5.52l-.16 2.01c-10.25 5.87-32.02 14.25-43.58 18.89a683.1 683.1 0 0 1-227.38 49.93c-8.08.44-27.21 2.57-34.43 1.16-11.75-2.32-25.16-.23-38.219-.53a575 575 0 0 1-49.611-3.05 761.8 761.8 0 0 1-303.587-96.97c-115.033-66.66-214.521-176.25-277.67-292.55-21.985-40.48-39.89-83.64-55.16-127.08-13.513-38.44-24.825-77.38-32.126-117.53-7.919-43.55-12.025-87.39-14.291-131.56-.729-14.2 2.594-28.18.724-42.05-1.58-11.72 7.599-71.01 10.764-86.836 8.442-42.201 18.297-83.25 32.355-124.009 7.062-20.476 15.878-40.23 24.619-60.026a830.4 830.4 0 0 1 127.428-206.644c82.564-97.732 193.358-170.134 313.138-213.082 15.667-5.617 61.672-23.577 76.83-24.817-2.221 1.465-3.537 2.302-5.601 4.015 5.044-1.173 30.43-5.613 32.126-8.69.314-.57.538-1.185.807-1.778 10.857.217 16.805-.508 27.21-3.995 2.063-.692 11.511-3.915 12.913-3.797 10.938.916 8.028 2.769 19.636-1.213l-.134-1.182-3.855-.987.311-.527c5.719-.359 13.641.391 19.539.78.956-1.199 1.311-1.693 2.149-3.029l.691-1.127 2.772-.478-2.472 2.639c5.134 3.068 26.281-6.745 32.786-2.827 8.65 5.209 15.975-5.235 16.639-4.92 11.939 5.659 17.669 6.299 30.759 5.397l1.48-3.889c17.28 1.511 22.53 5.377 40.88 1.76 9.2-1.813 14.81 4.398 27.1 2.069 20.14-3.815 54.13 5.638 74.62 9.163 14.61 2.513 28.8 4.15 43.37 7.467 18.79 4.275 37.17 9.991 55.53 15.755 168.7 52.931 320.16 163.62 414.48 314.271 107.29 171.384 148.51 375.413 102.28 573.787-45.92 197-163.5 362.76-325.49 481.64-25.84 18.96-52.97 34.67-80.06 51.54-.27-4.15.49-4.84-1.73-7.01-3.03.54-3.31 1.14-5.39 4.17-.86 1.27-1.7 2.55-2.53 3.84.99 1.81.3 1.02 2.57 1.93"/><path fill="#fefefe" d="M990.453 295.43c12.847-1.118 34.417-.667 47.537-.549 87.12.627 179.91 17.912 261.54 48.232 16.34 6.066 86.06 78.312 102.27 94.283l187.69 188.693 96.36 97.852c5.66 5.867 34.88 35.516 36.97 40.154 12.37 27.353 29.53 85.815 32.55 114.664l-201.15 201.931c-31.66 32.2-63.5 64.22-95.51 96.06-19.14 19.16-42.74 44.3-63.26 60.92-17.76-49.83-56.61-112.69-96.7-147.46-14.46-12.54-34.37-23.95-50.3-35.21-6.09-4.86-22.76-8-28.01-12.59-20.1-17.61-38.55-33.03-60.63-48.359 36.64-74.093 56.04-149.938 45.86-233.033-.24-1.914 12.84-21.85 14.81-25.397a95.5 95.5 0 0 0 8.39-20.214c4.29-14.903-31.44-133.209-40.99-150.218-14.06-6.007-31.99-18.641-45.71-27.004-28.36-17.282-52.56-31.019-82.89-43.908-.92-.396-1.85-.779-2.79-1.139-50.98-19.473-104.883-21.025-155.284 1.12-42.474 18.663-133.971 88.089-150.478 131.814-5.825 15.428-4.358 33.91-3.892 50.181 1.985 69.187 15.816 85.635 51.353 141.43 6.174 9.692 13.059 19.451 18.43 29.611 2.979 5.635 2.48 14.005 3.723 20.315a105.4 105.4 0 0 0 7.433 23.072c9.737 21.041 19.721 30.037 40.971 37.724-5.281 11.839-18.55 28.401-25.839 41.635-13.716 24.902-23.943 51.23-36.778 76.11-69.625 40.28-130.757 86.37-183.698 147.62L422.137 995.156a4989 4989 0 0 1-74.448-73.844c-10.529-10.465-27.528-25.98-36.719-36.671 4.507-25.955 40.86-139.554 56.457-158.026 9.248-10.954 19.784-20.944 29.661-31.33l61.131-63.261a11353 11353 0 0 1 180.303-180.78c30.54-30.358 71.134-74.077 105.346-101.755 2.545-2.059 28.862-10.337 33.865-12.093 71.746-25.187 137.577-35.559 212.72-41.966"/><path fill="#fefefe" d="M1114.14 1084.78c2.98 3.58 9.86 23.68 11.42 28.82 26.97 88.9 33.33 182.45 40.58 274.4l14.86 173.07c5.13 56.73 11.05 113.36 15.37 170.17.5 6.5 1.06 12.1.9 18.64-4.71 4.5-39.33 10.36-47.03 12.34-14.22 3.64-120.92 15.86-127.63 11.44-2.16-6.41-3.73-27-4.31-34.42-1.53-31.95-5.12-63.01-8.34-94.74-3.9-42.47-8.56-84.86-13.972-127.16-6.129-49.05-11.914-99.38-19.992-148.1a1710 1710 0 0 0-28.32-134.12c-7.438-29.51-14.334-56.44-24.434-85.15 47.853 34.77 135.188 50.19 175.228-3.17a84.82 84.82 0 0 0 15.67-62.02m31.58-461.348 3.79-.361c8.76 4.969 32.92 90.241 38.25 106.166-14.54-.71-44.76.407-51.75 18.311-.98 2.521-.27 3.617 1.04 5.478 11.39 3.201 52.08-29.601 55.44.506 8.97 80.133-7.66 170.769-49.84 239.924-5.48 8.984-17.5 21.134-28.21 22.654-60.3 9.39-102.12-11.22-149.109-44.997-20.765-14.481-52.798-43.908-68.016-63.777-6.911-9.023-20.618 15.231-38.934-1.106-25.803-23.014-28.857-66.212-11.625-94.476 2.295-3.596 10.167-6.442 14.193-6.25 19.676-1.381 23.15 15.419 34.628 26.782 2.401 2.332 4.284 2.401 7.115 2.063 13.994-11.027 51.947-118.777 59.966-142.522 3.257-9.645 12.021-42.644 15.121-53.864 53.811-6.563 112.971-8.888 167.941-14.531"/><path d="M1122.79 780.321c6.08 3.312 9.43 12.024 10.46 18.542 3.75 23.745 19.64 48.451 21.02 71.36-6.23 8.527-17.13 16.693-26.37 21.763-4.54.529-8.01.677-9.82-3.94 1.32-7.808 15.59-16.458 21.23-24.311-1.95-8.15-6.84-18.613-9.5-26.803-4.52-13.927-10.81-42.757-7.02-56.611m-95.22-41.894c10.78-.91 46.98 1.048 50.25 13.714-.41 3.323-.38 3.084-2.46 5.733-6.02 2.594-20.97-4.844-31.9-5.848l-1.21-.101c-17.83-.208-29.48 3.397-46.757 7.217-4.256.941-7.545-3.758-6.762-8.363 7.215-8.013 28.079-11.401 38.839-12.352m7.77 29.405c12.12.859 15.75 7.629 18.73 18.637-1.9 10.412-2.3 12.708-12.12 16.924-24.01 4.324-22.09-25.748-6.61-35.561m126.61-6.66c8.31-.83 12.92-1.13 18.56 5.96 7.59 9.545 6.77 20.503-2.74 27.997-22.91 9.482-25.37-21.178-15.82-33.957m-31.21 156.181c3.94-1.069 6.61-.728 8.79 2.666-1.49 12.359-32.21 12.167-42.08 12.707-6.62-.531-15.35-1.206-10.24-10.576 2.02-1.142 36.34-3.676 43.53-4.797"/><path fill="#fefefe" d="M873.581 963.788c1.561 2.992 1.327 14.293 1.699 18.617 3.512 40.785 10.565 81.885 16.907 122.315 3.087 19.67 13.138 42.4 18.694 61.95a1994 1994 0 0 1 34.283 136.14 1814 1814 0 0 1 21.585 123.14c15.934 111.1 25.51 224.81 36.071 336.59.58 6.1-.58 10.8-6.891 12.12-1.802-1.71-1.643-2.73-1.783-5.52-2.382-47.37-6.311-94.96-11.648-142.04-.3-2.65-2.396-3.67-4.387-4.79-3.925.12-2.307-.51-5.232 1.32-1.203 3.09-1.889 6.37-1.523 9.69 4.582 41.59 7.743 83.24 10.842 124.97.348 4.69 1.575 11.95-1.498 15.51l-2.304-.07c-2.015-.09-2.871-.12-4.871.04l-1.732.15c-5.751-4.25-11.783-92.84-15.942-107.38-1.597-5.59-2.42-8.4-8.424-9.52-4.185 1.39-2.609.2-5.253 3.15-1.514 8.37 11.674 97.21 14.729 112.67-2.387-.08-14.309-.2-15.047-2.04-4.084-10.17-7.983-58.07-13-62.48-3.523-.7-3.736-1.04-7.117.31-8.786 8.81 8.006 51.72 4.054 61.22l-5.797.17c-5.352-4.16-6.013-18.96-7.048-25.82l-6.319-40.82c-3.935-24.54-9.242-48.84-13.05-73.18-9.555-61.05-17.522-121.91-32.798-181.93-6.223-24.44-10.886-49.63-17.68-74.03-4.032-14.48-5.754-29.67-9.637-44.26 10.15-9.44 17.572-18.27 28.79-28.29 4.613 21.73 11.282 43.49 14.183 65.68.695 5.32 6.265 5.94 10.829 3.23 3.046-4.91-.518-19.66-1.677-25.41-13.047-64.69-30.074-127.56-30.706-194.16-.108-23.76-.038-47.53.212-71.29.153-10.71 4.314-30.03-5.44-37.11-4.939 1.51-5.978 11.43-6.242 16.08-3.437 60.55-5.611 121.02 5.074 181.05 2.353 13.22 3.464 26.72 8.026 39.36l.528 1.44c-25.496-10-36.972-15.61-60.586-29.17.917-33.39 2.662-99.18 10.639-130.02 9.802-37.88 43.555-127.022 66.487-157.582"/><path d="M908.167 1328.4c5.053.5 7.208 2.15 8.359 7.13 2.61 11.28 3.876 22.81 5.373 34.28l6.996 51.19c7.737 54.52 16.204 109.14 21.826 164.04.391 3.82.044 3.84-1.606 6.78-5.131 1.13-7.124 2.01-11.504-1.17-2.376-4.58-5.451-37.27-6.45-45.2a4701 4701 0 0 0-10.662-77.88l-11.956-93.59c-1.694-12.5-4.466-25.8-5.186-38.42-.155-2.73 2.818-5.18 4.81-7.16m19.039-44.41c4.403-.11 4.183-.82 7.314 1.08 7.834 17.93 28.498 158.22 30.09 187.92.083 1.56-1.61 2.06-3.434 3.29-3.159-.08-3.801.05-6.886-.84-3.046-4.23-3.19-12.83-3.788-18.04-6.47-56.34-19.658-111.8-27.773-167.86-.33-2.28 2.853-4.17 4.477-5.55m-58.502-230.83c4.7 2 7.119 3.02 8.304 8.56 2.539 11.87 3.274 24.07 4.482 36.13 1.685 15.93 3.487 31.85 5.406 47.75l6.989 54.09c1.099 8.15 2.431 16.87 3.224 25.07.254 2.63-1.354 4.19-2.884 6.67-2.85.02-8.143.05-8.949-3.36-5.281-25.33-9.444-54.29-11.501-80.08-1.953-24.5-11.368-73.11-5.071-94.83m22.231 473.81c3.557.06 6.255-.38 9.012 1.64 2.131 5.72 7.6 41.47 8.908 49.16 4.132 24.3 8.842 50.25 12.293 74.76.679 4.82.231 4.84-2.086 7.65-3.179-.1-6.714.4-9.011-2.19-1.964-2.21-22.36-120-21.827-127.48.131-1.84 1.429-2.36 2.711-3.54m-44.575-196.39c3.705.6 9.96 2 10.64 6.21 3.488 21.6 25.241 91.11 18.905 108.47-3.045-.07-3.15-.13-6.111-.94-3.242-2.91-5.688-14.44-6.015-18.7-1.294-16.83-22.161-82.34-17.419-95.04m-29.562-194.62c3.619.18 5.322-.07 8.434 1.8 3.657 6.26-2.094 68.81-.117 80.35.652 3.8-.356 21.61-1.247 25.77-5.218 1.14-7.213 2.24-10.711-2.02-2.026-11.24 1.216-93.27 3.641-105.9m142.496 373.89c3.709.14 5.941-.16 9.121 1.72 4.157 11.28 7.577 55.66 9.249 69.77.764 6.44.304 10.16-3.97 14.86-2.578-.75-3.765-1.4-6.18-2.54-2.867-3.26-5.518-28.65-5.733-33.97-.528-13.11-8.935-39.57-2.487-49.84"/><path fill="#fefefe" d="M1766.53 1101.73c.69 2.78.38 7.96.01 10.81-24.08 183.37-122.88 350.28-260.36 471.95-16.34 14.46-32.06 27.26-48.99 41.02-.03-7.21-.91-14.2-1.67-21.37.41-3.5-1.24-24.16-1.59-28.67-3.64-47.45-10.73-93.57-17.55-140.5 10.92-12.82 20.06-20.8 31.67-32.21l46.5-46.2 174.97-175.7c14.67-14.75 28.59-29.3 42.94-44.33 10.92-11.43 24.09-22.22 34.07-34.8m-1469.578-.23c5.843 4.2 16.268 18.4 23.465 23.85 5.129 3.88 13.628 13.15 18.437 17.95a8074 8074 0 0 0 78.349 78.37l77.458 75.68c20.151 19.88 39.401 40.68 61.155 59.23-4.77 16.92-6.537 36.38-9.69 53.8-9.874 54.56-11.807 108.36-11.893 163.88.497 3.81 1.76 14.58.814 17.83l-1.521.24c-5.302-3.55-9.594-9.55-14.233-14.19-92.564-92.57-159.123-208.34-194.27-334.27-13.047-46.75-25.852-94.21-28.071-142.37m844.578-85.99c27.12 8.53 48.81 112.79 58.27 119.56 2.4 1.72 2.94 1.52 5.61.93 11.08-11.08-23.26-81.46-29.41-94.08 14.23 15.72 45.78 55.95 54.13 74.92-4.14 9.93-21.98 51.55-22.58 59.81 3.1 5.4 23.7 15.55 30.05 19.88 5.11 3.49 13.89 10.34 18.99 13.14-.44 34.24 2.83 74.92 3.89 109.55 3.42 89.3 4.84 178.66 4.27 268.02-.1 19.34-.04 38.67.18 58.01.01 5.52.34 20-.43 24.98-.56 18.65.67 42.42-.81 60.26a562 562 0 0 1-47.53 15.35l-29.51-318.7c-9.37-112.21-13.98-232.63-52.44-339.75-7.75-21.59-18.27-32.67-23.82-57.09 6.98-1.08 10.82-2.53 17-5.42 5.62 7.9 12.96 26.12 18.84 28.75 3.5-.27 3.34-.1 6.34-1.83 4.96-10.07-10.02-23.74-11.04-36.29"/><path d="M1165.65 1090.71c1.89.5 4.25.7 5.15 2.78 40.16 92.29 44.34 192.57 43.65 291.74-.02 3.87-1.31 4.82-3.96 6.65-1.83-.73-4.53-1.51-6.07-2.69-3.91-2.98-3.3-46.5-3.68-54.12-2.51-50.59-4.5-103.54-16.21-152.97-3.09-13.04-6.19-26.58-10.33-39.32-5.02-15.45-12.29-31.04-14.83-47.13 1.7-3.09 2.65-2.83 6.28-4.94m39.79 339.69 3.78 1.45c3.37 3.77 6.6 55.73 7.29 63.88 4.4 52.19 9.11 104.34 14.13 156.47l5.37 55.56c.79 7.73 1.77 16.78 2.41 24.56.23 2.78-2.91 5.01-5.05 7.15-3.52.84-4.52.94-6.92-1.29-2.77-9.47-5.67-44-6.8-55.72q-5.88-64.59-11.1-129.24c-2.9-33.67-6.62-67.21-7.57-101.02-.17-5.76-2.45-9.67-2.35-15.39 1.82-3.55 3.34-4.09 6.81-6.41m25.53-128.52c16.58.27 11.14 6.69 11.94 18.23 2.47 35.85 2.85 71.69 4.18 107.56l4.15 90.47c.79 19.26 4.64 68.41 2.07 83.99-4.51-.1-7.36.02-10.48-3.71-1.65-4.54-3.62-49.84-3.95-57.99-2.47-62.05-7.54-124.24-7.46-186.32.02-15.48-4.59-37.52-.45-52.23m-8.89-103.44c2.74.13 9.37.05 10.05 4.01.76 6.01 1.32 14.09.96 20.15-.81 13.32 3.75 33.59-.71 45.78-2.8.47-3.72.24-6.53.01-1.16-.86-3.02-1.81-3.26-3.24-2.73-16.53-6.2-51.57-.51-66.71"/><path fill="#fefefe" d="M893.465 923.957c30.672 36.121 78.945 73.552 122.425 92.793 17.78 7.87 61.82 17.42 80.6 12.44 2.37 11.9 4.58 46.32 4.87 59.92.47 22.08-5.37 38.01-21.19 53.57-2.98 2.7-5.97 5.47-9.18 7.89-20.13 15.19-49.85 17.25-73.938 13.66-24.299-3.63-64.582-20.14-79.146-40.84-12.439-17.67-25.271-125.55-26.517-152.004-.746-15.842-.647-31.777 2.076-47.429m876.245 49.895c1.86 1.896.58 14.182.41 17.45-23.5 21.488-46.66 46.758-69.39 69.268l-194.88 195.03-57.52 58.1c-6.74 6.73-20.86 21.43-28.11 26.82l-4.02-14.47c119.22-116.29 235.14-235.34 353.51-352.198m-1473.764 5.109c10.132 7.321 20.4 18.147 29.588 26.679 20.036 18.61 38.648 38.89 58.189 57.84 41.43 40.14 82.552 80.6 123.362 121.37 25.206 24.86 53.999 51.74 77.728 77.79l-3.079 9.13-1.69 1.12c-7.528-2.81-165.575-160.51-184.531-178.99l-66.18-64.79c-9.08-8.98-27.46-26.38-34.239-35.908-.026-5.23.355-9.095.852-14.241"/></svg>