<svg xmlns="http://www.w3.org/2000/svg" preserveAspectRatio="none" style="display:block" viewBox="0 0 2048 1462"><path d="M0 0h2048v1462H0z"/><path fill="#fefefe" d="m874.668 315.983 229.852.043 65.42.213c8.88-.009 19.01-1.332 27.72-.235 1.59.201 2.42.356 3.12 1.87 1.96 4.216.37 15.492-.92 19.714-6.84 22.388-25.58 31.047-44.39 41.242-10.71 6.246-20.58 15.883-23.73 28.213-1.02 4.019-2.91 15.676 3.41 15.692 11.88.03 23.81.113 35.72.208 30.98.441 61.97.19 92.95-.751 7.77-.262 22.57 3.57 28.33-1.2 1.96-3.138 1.13-7.851.33-11.38-9.37-41.157-71.43-34.081-76.31-79.165-.47-4.389-.97-10.768 1.96-14.235 7.7-1.102 109.71-.913 114.67.704 2.92 7.736.68 93.011.76 107.122.92 128.512.9 257.03-.06 385.542-.29 23.761.4 48.216.05 71.96-.02 1.583-6.38 12.916-8.14 13.999l-1.13-1.392c.33-12.349-13.18-33.731-25.93-36.505-5.19-1.131-11.27-2.637-15.97.339-2.83 4.151-2.12 10.674-2.26 16.157 6.13-.484 9.29-.598 15.19 2.034 17.11 1.705 20 32.919 17.01 45.02-4.24 17.141-9.38 58.523-16.66 72.727l-1.47.795c-11.44-7.621 36.27-93.504.87-117.605-6.37-.255-11.98-1.032-19.02-1.191-17.17 2.65-34.75 8.286-46.94 21.282-39.89 42.505-38.66 108.28-53.95 161.4-.15.52-3.6 3.29-4.52 2.89-11.11.9-38.68-1.5-48.08.81-4.47 6.04-9.19 37.8-8.76 46.01 4.19 4.4 23.88 9.63 30.86 12.56-2.68 13.1-7.48 48.2-10.87 57.82l-1.24.78c-4.43-8.07-5.91-40.17-13.05-47.64-2.82-.73-1.68-.7-4.87.88-1.98 2.81-2.57 4.07-1.93 7.63 2.5 13.86 5.73 27.61 8.51 41.39.45 2.21-1.57 9.48-1.27 12.59-.17 2.23 5.78 7.68 5.96 8.7 1.01 5.63.24 12.32.63 18.11.37 5.39 1.72 9.86 3.21 15 1.14 3.95 1.17 9.98 3.3 13.32 7.08-4.78 25.47-121.33 32.5-125.97 3.35 3.94 7.91 48.45 12.89 61.61-7.79.3-15.57.65-23.35 1.05-1.62 5.55-5.91 16.41-3.62 21.58 3.52 7.43 28.7-3.46 30.96 4.28 7.92 27.09 11.44 56.31 17.4 83.99 2.1 9.78 2.6 33.27 16.31 30.91 2.1-1.5 3.33-2.75 3.8-5.36.84-4.73-18.9-103.05-21.75-112.79 8 1.01 75.08 1.1 77.39-.18-4.77-7.8-1.58-21.78-9.46-23.81-5.37-1.38-11.82 1.22-18.24-1.55 4.99-17.6 11.53-24.22 16.14-47.09 6.71 25.33 9.76 52.79 15.84 78.15 8.53 33.19 12.63 66.92 20.18 100.26 1.98 8.75 14.18 9.47 15.75 4.19 1.18-3.99-2.66-16.38-3.77-21.06-15.45-65.05-25.12-131.26-35.82-197.17-1.53-9.44 2.66-26.24 3.34-36.11.31-3.81 2.56-6.63 3.35-9.86l-.03 1c-.34 12.95 9.48 126.9 13.01 130.63l2.32.86-2.36 3.3c-1.13 6.94 4.65 34.29 5.53 42.55.86 8.15 4.21 8.42 1.33 17.57l.84 1.74 1.41.14c4.58-9.28 1.49-38.24 9.57-43.33.81-.51 22.91.03 24.83.96.35 4.85-.69 8.89-1.59 13.69-4.64 24.67-7.31 49.7-11.36 74.47-.29 1.8.28 3.41 1.15 4.94 4.04 3.28 10.21 3.94 14.69 1.22 4.55-8.14 6.69-33.18 8.16-43.1 5.3-36 13.09-71.06 21.38-106.45 2.1-8.95 4.91-29.53 9.33-36.76 5.09-.12 73.95 7.18 74.91 7.76.15 6.8-2.91 19.33-4.02 26.68-4.15 27.17-11.44 53.44-16.3 80.5-2.45 13.44-6.07 26.27-6.23 40.02-.12 10.64-.25 12.52 11.3 13.43 6.01.48 8.39-7.95 8.57-12.46.19-4.44 1.48-8.48 2.86-12.66 7.73 2.03 45.05 2.68 51.47-.89 1.65-3.92.85-9.54.52-13.94-25.47.88-23.01-6.31-45.09-16.47 1.05-5.44 2.79-15.59 3.42-20.95.89-5.21 3.87-29.77 5.64-31.75 3.7-16.82 8.11-37.8 9.3-54.98 11.31-1.2 36.63-6.82 45.42-5.73 1.18 1.87-1.22 59.59-2.16 65.17-4.9-.69-3.27-2.96-11.14-2.97-10.34-.02-25.52 1.33-35.58-.62l-3.73 1.05c-3.7 8.57-1.99 20.89-5.25 28.67 5.01 2.52 45.86 3.96 51.31.13 3.05-2.14-1.71-19.05 2.97-22.74l1.39.88c1.65 37.14-2.71 76.73-1.58 114.08.11 3.85 1.86 7.25 4.6 9.93 13.47 3.99 12.49-10.53 12.32-18.73-.58-27.58 1.92-55.41 2.03-82.94 10.26.32 21.36.88 31.54.75 2.29-2.5 1.85-3.15 2.67-6.74l1.13.13c2.59 13.27 1.48 28.2 3.04 41.53 1.27 10.79-3.46 47.55 13.77 45.12 2.01-1.08 4.39-2.8 4.66-4.96 1.04-8.37-1.55-67.03-2.95-72.26l.16-.2c-.32-5.23-1.09-10.73.71-15.58l-.37 2.51 1.21-.59c.78 3.32.45 7.02.36 10.47 8.91.32 18.27.9 27.13.29 3.29 11.43 6.18 34.17 10.52 43.54 2.84 2.42 3 2.73 6.48 3.72 11.13-4.06-1.75-33.4-1.99-42.43-.06-2.2-1.08-7.27-1.85-9.4-.74-1.64-3.97-19.5-3.58-21.39-1.84-3.22-20.59-90.25-22.7-99.11 15.62 2.38 40.19-3.72 56.69-4.42 2.49-.26 21.39-2.85 22.15.05 6.91 26.21 8.54 53.77 16.33 79.99 1.32 4.44 4.74 15.8 4.11 19.62 1.56 3.35 4.87 19.14 5.13 23.06 3.2 11.76 6.62 40.03 10.96 46.63 5.62 3.09 11.61 1.18 11-5.75-.81-9.19-4.13-18.28-5.71-27.4-.87-5.06-.27-11.22-1.39-15.87l.09-.05c1.19 3.31-.26 2.85 2.07 7.16 7.27 4.17 284.45 3.03 318.6 3.3V1462H0v-251.93c28.682-1.13 62.063-.57 90.787-.46l141.852.29c-.785 5.73-2.465 12.98-3.568 18.79l-9.222 49.95c-1.836 9.83-4.339 21.08-5.131 30.95-1.166 14.5 15.954 17.89 19.449.92 3.088-14.99 6.871-30.5 9.56-45.6 3.157-17.72 9.445-37.04 10.717-54.85 18.591-.75 37.853.47 56.495-.04 40.376-1.09 81.633 1.13 121.904-.32.372-6.13 2.33-16.58 3.054-23.59-.803-.41-155.074-.75-173.356-1.28 4.936-22.53 9-45.36 14.5-67.71 8.97-1.12 39.585-.13 51.013-.26l73.361-.21c17.686-.12 36.097-.72 53.751-.06 1.263 3.35-39.573 203.91-38.578 220.9.377 6.43 6.297 8.39 10.827 7.27 2.898-1.96 5.049-5.07 5.747-8.51 12.026-59.25 20.159-119.51 34-178.38 2.259-9.62 4.475-28.05 7.745-36.15 2.782.05 24.449 5.51 28.995 6.5a758 758 0 0 0 48.69 8.96c-2.158 12.48-6.958 36.69-10.665 48.35-18.739.3-55.526-1.65-72.514-.33-10.838 7.11-9.886 73.13-9.296 87.12.442 10.48-3.853 36.95 6.44 42.21 10.552-4.85 7.456-32.89 7.31-42.87-.299-20.34.128-41.55-2.688-61.66 12.581.24 54.958-.46 64.892 1.55 4.989 8.08-29.041 118.91-22.29 132.17 16.95 13.51 19.99-22.47 22.326-31.9 8.112-32.74 14.667-66.01 22.416-98.77 5.784-24.45 13.746-50.93 17.321-75.3l90.624-12.79c13.761-1.99 36.647-4.83 49.545-8.72 4.378 29.59 14.06 63.02 18.114 93.51 3.459 26 7.022 52.08 10.561 78.13 2.026 12.89 1.085 26.47 5.538 38.87 1.441 4.01 6.934 5.19 10.299 3.62 3.868-1.8 4.813-10.76 5.797-14.7 2.427-1.01 1.202-.95 3.795.02l-2.004 1.92 2.006 1.42c6.091.22 25.542-.46 28.572 1.68.209 4.76.034 8.48 5.654 10.51 10.883 3.84 9.794-8.07 12.457-10.47 4.329-3.92 36.458 4.38 36.783-5.08-5.389-7.12-35.12-11.53-34.18-18.86 7.311-57.03 17.673-113.72 25.484-170.73.987-7.21 3.084-7.49 9.711-7.65 25.527 1.24 51.364 5.88 76.65 9.73 10.645 1.61 40.838 3.55 47.472 9.89 5.455 13.81-4.508 24.39-7.567 37.38-12.556 53.35-25.329 106.48-31.947 160.97-.43 3.54-.033 5.56 2.387 8.27 3.776.24 4.341.13 8.013-.82 5.644-5.07 25.648-114.3 32.295-131.88 5.734-1.2 6.171-1.95 5.544-7.67-.569-5.18-2.044-16.23 1.036-20.6 1.749 2.32 2.185 7.4 2.5 10.36 1.235 11.61 4.872 22.36 7.31 33.72q6.534 31.89 12.667 63.84c2.1 10.92 3.73 23.19 6.99 33.65 1.25 4.01 8.74 4.82 12.66 1.92 3.6-5.74 1.07-11.65.04-19.45-2.37-17.02-6.19-34.18-9.45-51.17-3.36-17.42-5.98-35.33-9.66-52.61-4.01-18.81-11.34-37.37-13.779-56.54-.601-4.73-.16-5.25 2.899-8.94 5.78-2.71 75.45-5.71 86.15-5.53 4.82 23.34 8.91 46.8 13.62 70.04 7.01 34.59 15.41 68.87 21.08 103.78 1.92 11.82 3.75 23.8 7.16 35.28 1.73 5.73 6.81 6.58 11.83 4.53 2.13-2.86 2.99-5.77 2.35-9.28-2.84-15.36-5.79-32.07-8.67-47.28l-15.87-84.64c-4.59-23.18-9.42-46.8-12.79-70.24-.67-4.68 1.34-14.52 1.87-19.97 3.56-39.27 14.63-76.27 21.77-115.06 6.23-33.903 14.69-72.026 14.43-106.741-.05-6.466-7.36-16.274-12.63-20.044-11.07-7.919-26.42-9.929-39.7-7.917-62.87 10.141-71.26 51.798-81.05 104.395a1947 1947 0 0 0-11.676 67.977c-4.269 29.38-1.325 41.84-37.41 41.22-8.319-.14-17.899-.08-26.337-.16l-68.66-.56c-5.934-.03-36.369-2.26-37.159 5.2-7.252 68.53-17.221 137.02-26.257 205.43-.431 3.26-1.616 7.96-3.601 10.61l-1.56-.46c-.278-.92-1.256-4.12-1.623-4.71-3.913-6.36-24.5-12.69-31.459-15.13l.171.73c1.308 5.8 5.438 30.05 2.626 34.46-3.897-5.4-7.172-45.36-8.492-54.77a4635 4635 0 0 0-19.231-122.79c-3.24-18.77-4.997-37.29-10.61-55.38l-92.43-1.72c-19.088-.39-41.539-1.63-60.424-.96-3.963-18.29-6.094-36.72-9.29-55.12-3.391-19.52-7.948-38.855-12.315-58.171-4.962-21.947-7.778-43.334-21.272-62.235-13.272-18.59-35.519-30.336-57.961-33.918-13.588-2.168-29.838-.974-41.232 7.507-13.077 9.735-14.429 27.962-12.752 42.855.494 4.396 2.034 10.318 1.294 14.563-1.374 7.885-79.321-2.725-89.687 5.088-.787 3.082-2.113 32.737 1.848 34.756 11.963 6.096 90.748-2.203 97.144 3.634 5.625 22.671 10.945 45.371 16.935 67.961 1.731 6.53 7.443 19.88 6.793 25.07-55.889 3.21-116.179-.69-172.484.08-8.991-28.17-10.925-62.34-19.366-91.094-12.029-40.988-10.787-79.9-50.326-105.191-2.276-20.003-1.19-58.123-1.126-79.579l.272-134.997.954-271.845c.108-10.134-2.326-65.858 1.853-71.191 9.053-1.652 57.354-.629 69.672-.695 54.052-.288 108.534-.31 162.595.113 3.468.028 8.651-.16 10.872 2.181 1.337 5.647.714 11.972.456 17.824-6.202 10.961-9.529 17.039-19.14 25.986-14.091 13.118-32.87 12.95-44.1 28.868-5.236 7.357-9.537 19.779-9.102 28.631 1.231 6.741 19.486 3.42 24.132 3.463 20.337.19 40.538.523 60.835.239 17.705-.248 35.272.446 52.91-.783 8.045-.56 15.456 3.485 23.502-.356 2.044-3.49 1.503-9.63.826-13.569-7.063-41.064-69.041-38.003-75.336-78.633-.766-4.943-.994-9.423 2.115-13.57 2.962-.639 16.624-.508 20.234-.533a2395 2395 0 0 1 56.419.191l143.444.132c-1.477 8.477-.778 34.542-.73 44.617l.081 83.051c.028 6.486.731 12.443.694 19.016l-.812 451.28c-.034 6.08-.99 11.773 3.148 15.957 3.89.443 4.634.571 8.444-.197 3.684-5.158 1.592-42.957 1.583-51.284l.319-95.39-.158-288.316a7600 7600 0 0 1-.274-179.046l94.188-.038c14.45-.06 45.545-.97 58.544 1.164l.846 1.287c.949 30.262-8.8 42.666-36.357 56.635-9.497 4.815-16.649 7.473-24.115 15.625-6.205 6.776-12.391 20.256-11.898 29.249.872 1.052 1.737 2.574 3.3 2.599 49.788.796 99.704-.257 149.533.471 2.93.043 5.519-.092 8.087-1.557 1.459-2.378 1.22-3.863.932-6.739-3.714-37.123-35.779-38.759-59.263-59.004-15.491-13.355-15.459-21.124-17.118-39.849"/><path d="M1003.51 713.23c35.07-2.469 55.55 18.217 45.26 55.354-.56 2.051-8.9 6.558-9.48 9.955-1.86 10.851-1.07 20.822-2.81 31.888 11.06 1.812 26.98 3.768 36.49 8.627 11.2 5.723 19.62 19.057 23.56 30.507.73 2.118 2.48 3.671 3.5 6.937-3.25 2.871-10.14 2.567-14.44 3.352-38.4 7.016-62.38 30.726-72.68 68.204-1.46 5.321-3.94 17.577-7.53 21.54-8.062 1.124-44.103-.252-54.36-.355l-111.067-.473-195.492.123c-25.147.148-57.555 1.071-83.231-.097-2.521-.115-4.928-2.58-6.216-4.988.6-8.311 6.779-7.025 13.236-6.753 16.926-.601 31.332.552 47.563.365 26.315-.765 52.671-.279 79.005-.424 13.965-.077 27.991.344 41.934 1.084 2.195.117 6.47-1.86 8.26-1.752 13.114.796 26.154.869 39.293.897l110.107.268c32.19.051 64.72-.876 96.912-1.188 1.628-.016 1.07-.164 2.513-1.33l-.069-2.547c-5.664-8.852-15.744-3.419-22.91-4.209-12.905-1.424-52.47 3.459-61.774-2.487-7.87-17.336 28.426-72.647 40.909-86.735 21.252-23.983 31.233-27.847 61.527-30.268-.43-4.379-1.38-8.713-2.23-13.035-28.712 7.345-17.864-10.481-23.992-24.759-7.211-16.801-4.76-4.778-2.485-23.357.906-7.396-14.872-24.045-2.269-32.356 3.265.146 3.7 1.537 6.641 4.19 3.221-.058 10.169-4.51 16.325-6.178M561.417 964.114c3.74.735 9.126.608 13.05.624 44.528.189 89.283.084 133.793-.067l160.268-.504c10.673.047 21.759 1.451 32.288 1.194 34.691-.848 69.524.168 104.184-.478-4.78 26.651-8.771 53.307-13.147 80.027-1.182 7.21-1.99 14.39-4.454 21.31-4.004 3.91-27.487 3.17-34.738 3.34-3.816-4.21-.885-33.94-1.918-39.53-1.216-.51-2.256-.91-3.552-1.17-3.216-.63-9.174-1.15-11.872.98-6.966 5.48-1.394 26.49-3.196 34.92-.403 1.88-1.09 3.49-2.787 4.53-2.14 1.3-39.979 1.17-43.211.56-9.635-7.82 3.534-45.02-13.529-39.36-13.717 4.55-6.547 28.61-12.218 38.58-4.011 3.06-6.394 2.01-11.962 1.61-2.011-3.24-.456-11.37-.842-15.77-2.046-23.37 8.041-33.57 21.865-50.9 9.211-9.292 34.047-21.488 36.45-25.906l-1.343-1.417c-8.298-2.072-20.989-.056-29.803-.737-16.628-1.284-11.939 13.749-11.334 25.48-3.523 4.51-12.013 19.12-16.66 19.64-4.802-6.53 2.565-36.072-2.699-44.364-14.153-1.058-32.882.333-47.572.156-11.795-.142-25.994-.925-37.287.032-.42 64.356-.238 128.716.544 193.066.263 21.78 5.843 47.44.772 68.54-6.631-44.67-11.377-120.57-26.815-161.12-8.796-5.46-22.297-5.92-33.035-7.27-4.18-7.08 1.101-74.652-2.318-90.765l-1.283-1.707c-35.618-2.502-73.837.131-109.609-.85-9.255-.254-18.842.837-23.906-.617-2.574-3.65-2.066-7.405-2.124-12.057"/><path d="M710.171 1127.61c3.403 4.13 21.214 102.76 23.12 114.22 3.392 20.4 6.411 54.85 10.35 76.86-13.682 2.04-148.434 2.88-156.136.24-.947-.32-.962-1.01-1.375-1.87.801-2.02 2.874-3.62 4.889-4.31 27.37-9.3 53.288-21.12 79.557-33.13 18.86-8.48 30.499-12.44 29.02-36.06-.638-10.2-.109-23.32.387-33.46-17.958-.03-129.29.82-134.304-2.8 1.201-7.92 2.936-14.57 4.869-22.32 15.714 1.19 37.621.71 53.8.85 25.021.21 51.623.89 76.409-.8-.392-8.09-1.923-45.49 1.637-50.46 6.385-1.4 5.699-1.01 7.777-6.96m171.816 2.29c7.945-.43 41.852 3.18 47.909 6.94 4.75 11.74-.691 58.24 1.15 74.13 1.546 13.34 6.446 32.32-8.211 38.19-8.874 2.78-34.493 8.59-40.593-.18.494-7.75 6.388-8.04 12.368-16.41l.694-.98c-1.786-6.04-2.162-14.37-3.156-20.81-3.532-22.87-5.397-45.93-7.996-68.91-.488-4.32-.601-7.86-2.165-11.97m533.123 3.67c3.35.56 8.91.88 10.18 4.37 1.91 5.43 2.74 12.09 3.07 17.87 1.83 32.24 4.01 75.83-8.37 105.97-6.9 3.2-38.76 5.19-41.67-1.95 3.45-4.55 18.15-6.39 24.44-7.84 3.58-.79 8.82-2.65 10.15-6.39 3.39-9.5 1.52-25.28-1.58-34.4-3.52-2.92-38.82-1.62-46.43-1.62 7.68-35.92 13.38-28.84 47.35-28.14.06-13.19-1.03-26.89-.38-40.12.26-5.12.24-5.08 3.24-7.75"/><path d="m851.392 1125.61.516.08c15.728 2.12 8.904 12.08 9.425 22.8.496 10.21-2.373 39.53 1.229 47.73l-.694-.91.373 1.3 1.2-3.28c1.22-3.41 1.112-4.65 3.975-6.55 19.341-1.83 17.39 5.95 17.709 21.89-3.172 4.77-15.224.35-23.183 2.4-1.253 2.15-1.004 9.67-1.053 12.65-.656 6.05-.706 20.32-3.73 23.8-3.087 1.37-3.483 1.51-6.73.67-7.449-5.38-6.808-30.47-3.935-37.9-2.537-2.49-2.139.96-5.542-1.04-3.025-6.82 3.73-22.94 4.661-31.02 2.01-17.45 4.466-35.1 5.779-52.62m780.788 56.98.85-2.29c3.13-1.97 63.18-1.65 72.81-1.5-.84 6.35 2.32 14.76 3.57 20.9.51 3.94 1.25 4.75-.15 8.1-5.4 1.27-65.04 2.32-69.69.88-1.84-2.32-1.67-2.78-1.92-5.88-.1-3.91-3.97-16.13-5.47-20.21m-575.82 2.94c29.09-.35 33.98-7.92 40.18 22.69-11.44 2.2-31.91-3.72-38.91 2.29-1.87 3.65-1.22 10.44-.25 14.43-.92 8.66 4.75 28.08-8.06 29.23-8.27-4.52-5.85-57.03-5.89-68.17zm-103.692-47.28c4.987.67 12.781.98 16.081 4.51 1.755 11.52-8.041 54.67-12.946 65.26-3.152 2.29-6.78 2.03-10.843 2.32-1.78-.13-5.917-.25-6.676-1.81-2.634-5.38-3.056-15.81-2.078-21.48 5.852-3.46 13.217 3.44 18.959-3.6-1.223-6.46-7.068-40.58-5.526-44.15zm483.612 41.53c5.37 5.51 2.63 9.58.3 15.9l-.99.66c-2.07-3.67-.14-12.44.69-16.56"/><path fill="#fefefe" d="M0 0h2048v1197.64c-11.46.67-23.52.79-35.03.62-37.39-.56-75.37 1.2-112.69-.22-.99-37.65.03-78.12.07-116.01l-.22-186.904-.02-525.303-.02-199.319c0-32.626.15-65.257.01-97.878-.01-2.672-.14-7.986-2.46-9.38-5.53-3.329-21.38-1.765-27.86-1.68l-52.18.192-244.33.14-1018.893.08-294.094-.235-73.479.191c-9.672-.043-30.946-1.932-38.602 1.43-2.631 4.036-.915 80.865-.995 91.197a27024 27024 0 0 0 .363 455.568l.756 587.761c-42.762 1.09-85.93.19-128.721.35-6.272.02-13.376.13-19.605-.21z"/><path fill="#d2d3d6" d="M1298.17 1187.01c2.83-1.12 8.17-.2 13.1-.61l1.31 2.47-.42-2.41 1.35 2.24-.25-2.14.55.06 1.12 1.75c-6.82 1.09-12.4 1.22-19.12 1.94z"/><path fill="#fefefe" d="M1655.11 314.713c4.75 2.037 150.8.304 169.63 1.609-2.3 85.773 1.75 171.548.19 257.292-.5 27.399.83 54.6.93 81.897l-.83 524.319c-28.65.86-57.41-.92-86.08-.48-4.1.06-11.41.7-15.24.14-7.69-29.94-9.99-73.16-17.2-104.19l4.64-5.36c.55-9.22 1.86-13.21-5.04-20.2.46-1.05.89-2.11 1.29-3.19 7.57-20.38 11.82-55.159 16.33-77.028 5.74-27.857 22.91-81.332-13.09-94.389-14.72-5.337-41.08-2.401-55.12 4.979-23.57 11.734-33.93 32.978-42.04 56.763-9.75.09-27.74.746-36.73-.468-39.89.715-80.83-.692-120.85.069-3.87.074-12.22-27.04-15.32-32.216-10.21-17.06-26.63-27.46-45.46-33.068-12.64-3.687-36.08-6.491-47.87-.004-2.03-30.531-.34-76.28-.31-107.635l.14-188.531.59-161.219c-.02-28.559-1.29-68.078.5-95.811l1.43-1.197c7.3-1.644 26.55-1.041 35.22-1.03l65.25.204 62.21-.134c10.41-.015 27.42-.383 37.31.8 1.66 2.152 2.34 3.021 2.03 6.283-1.39 14.667-16.93 39.698-29.74 47.221-7.82 4.396-19.13 6.517-25.65 12.814-7.31 7.07-25.54 29.916-15.59 39.64 10.42 1.596 42.02.448 54.61.45l62.37.106c11.68.026 31.85.553 42.74-1.609l1.32-.272c-2.03-25.446-15.76-38.533-38.7-48.704-14.03-6.223-30.43-21.419-35.5-36.354-1.51-4.445-3.59-15.626-1.57-19.686 6.49-1.632 12.58.046 17.84-.831 17.16-2.862 57.15 3.21 71.36-.98"/><path fill="#fefefe" d="M204.862 73.517c8.72 1.078 30.314.502 39.948.5l79.028-.042 246.38-.076 922.282.421 309-.096c12.79.023 79.56-2.196 85.26 1.177 2.45 8.907.88 61.64.87 75.238l-.06 192.915 1.29 451.464c-.59 134.346-.5 268.692.26 403.042-8.24.16-32.69 1.3-38.97-1.01-2.27-7.58-1.22-54.76-1.2-65.24l-.08-117.56 1.16-735.45.27-101.876c.18-16.407 2.09-63.891-1.31-77.354-5.58-3.57-51-1.66-61.74-1.884-54.73 1.465-113.58.53-168.45.234l-128.39.114c-14.61-.062-29.46-.998-43.91-.95l-839.367.963-265.634.361a5518 5518 0 0 0-99.074.272c-18.481.07-37.359-1.174-55.746.814-1.59.172-1.975-.089-2.625 1.545-1.043 2.621.008 109.3.095 124.523-.761 313.387.166 626.776 2.78 940.148.028 4.78-.354 28.04-2.9 31.21-2.164 1-21.85.98-23.352.65-3.149-8.08-1.388-142.69-1.525-162.21a52559 52559 0 0 1-.703-820.05l-.006-92.301c.003-11.387-.598-36.981.962-47.297 3.083-3.294 37.642-1.7 45.457-2.195"/><path fill="#fefefe" d="M484.008 132.506c29.294 1.976 73.717-.034 104.022.307 90.618 1.02 183.323-1.735 273.825.004q.38 40.79.193 81.582c-.019 12.477.558 33.402-.624 45.319-3.17 2.195-11.943 1.395-15.924 1.223l-373.494-.362c2.045-28.005-.812-59.012.479-87.279.587-12.865-.819-26.402.382-39.23 3.136-1.606 7.457-1.392 11.141-1.564m731.172-.08c23.08-.775 48.72-.354 71.91-.377l127.62.019 85.43.132c16.07.03 35.75-.535 51.48.717-.36 41.937.7 83.904-.09 125.807-.46.48-.93.96-1.39 1.44-4.73 1.703-9.34 1.232-14.38 1.13-22.77-2.163-60.47-.136-84.51-.151l-157.75-.345c-26.03-.014-52.33 1.044-78.4-.014-.4-37.146.63-74.333-.09-111.491-.11-5.639-.07-11.232.17-16.867m-339.435-.19c11.676 1.031 28.074.171 40.362.209q45.48.2 90.953-.214c64.21-.283 130.41 1.469 194.45-.082-.75 41.58.19 86.729.37 128.573l-7.91-.074c-91.53 1.995-184-1.382-275.636.196-14.064.243-29.681-.988-43.555.397.578-17.578-2.011-120.805.966-129.005m688.445.03c61.23-1.825 123.78.607 185.15-.353 24.46-.382 52.4-.692 76.62.665l.7 84.785c.01 11.046.5 30.93-1.05 41.058-1.78 2.107-2.63 1.591-6.14 2.304-17.36.911-42.61.123-60.25.076l-108.14.376c-28.73-.116-58.85-1.269-87.49.419.9-42.883-.17-86.522.6-129.33m-1305.84.241c2.756.374 12.914.064 16.271.104 16.658.198 33.356-.243 50.03-.277l134.236.753c1.001 9.578.352 30.956.362 41.313q.088 43.208-.271 86.414c-12.61-.177-25.932.194-38.729.117l-127.188.088c-25.235.113-54.656.865-79.571-.474-1.962-41.08 2.469-83.776-1.089-127.217 15.165-.7 30.523-.227 45.949-.821m1280.86 836.065c8.3 2.494 58.1-2.489 67.29 1.382 4.02 8.546-5.48 48.836-2.38 59.386-3.98 3.87-83.33 3.8-96.81 13.77-2.41 3.15-1.77 5.83-1.65 9.97l.62 1.4c2.06 2.06 9.48 3.05 14.02 4.7l-.75.65c-6.32.96-38.74.1-44.47-1.87-1.44-1.91-1.2-6.83-1.46-9.38-2.71-26.6-7.15-53.789-13.64-79.691 10.41.147 72.76 1.638 79.23-.317M211.929 908.757l2.233 2.452c12.164 61.402 23.408 124.191 32.773 186.161.5 3.32 3.316 18.93 2.981 20.88a6612 6612 0 0 1-10.767 60.79c-.653 3.61-.955 3.25-3.704 4.83-9.734.09-13.745-.15-23.325-1.36-.963-21.23-.057-44.86-.182-66.43q-.947-77.597-.12-155.183c.044-7.815-1.27-46.882.111-52.14M1227.6 1121.46c4.5-.97 29.93-1.7 32.22 2.1-.7 5.21-19.26 51.5-24.98 58.19-2.8 3.26-12.51 2.37-17.12 2.23-6.58.07-18.52.58-24.58-.54-.27-.58-1.84-12.02-1.84-13.01-.07-10.29-11.03-36.97-6.05-44.5 6.22-4.02 33.41-3.97 42.35-4.47m111-13.95c5.4-1.26 21.42-2.4 19.96 7.11-3.25 21.14-11.32 44.62-12.93 65.9l-.09 1.31-8.29 1.12c-4.55.16-17.21 1.26-20.23-1.44-.28-5.93 13.37-67.97 16.63-72.88 2.15-.08 3.01-.36 4.95-1.12m220.04 1.82c3.42-.78 6.42-1.04 9.45.87 1.17 2.83 4.31 63.95 3.46 68.35-3.77.97-13.61.57-17.96.54-5.15 0-8.76.09-13.87.56.77-22.2 2.53-45.9 3.57-68.33 4.49-.25 10.74-1.33 15.35-1.99M1455.4 948.307c60.07 1.503 120.68-.177 180.78.369 4.57.041 8.15 1.669 11.97 3.956l-.68 1.372c-6.2 4.151-63.1 3.274-73.94 3.256l-115.95-.175zm-144.54 13.196c2.18 5.193 3.14 17.623 4.21 24.341 4 25.036 6.85 54.406 15.07 78.286 2.97 8.63 11.43 1.68 20.14 4.75l-.22 1.36c-3.59 1.99-7.5 1.93-11.89 2.65-.64-.46-21.29-1.91-29.3-7.66-2.96-15.37-3.53-58.26-4.8-76.015-.37-5.13 4.94-22.164 6.79-27.712m278.46 114.207c4.58 4.27 26.74 106.14 27.05 118.35l-.83-.61c-.27-3.14-.5-3.41-1.84-6.38l-.37-.81c-.5-4.63.3-3.89-2.23-6.78-8.59-3.5-11.9.55-19.85.57-1.85-6.24-3.01-58.57-4.71-69.7-.12-.79 5.16-8.4 5.11-10.62-.18-8.8-5.86-16.52-2.33-24.02M358.216 948.563c11.537 1.28 62.584-1.905 68.211 2.252 2.101 3.725 2.143 7.894 2.542 12.163-3.283 3.275-13.678 1.709-19.555 1.759-19.771-1.193-43.617.454-65.223-.761l.926-14.818zM1291.68 1106.2c7.65-.13 28.11-.72 34.64.73l-.72 1.42c-6.14 1.15-26.84 1.92-32.85.46z"/><path fill="#d2d3d6" d="M1569.76 1183.31c4.08 2.1 3.49 11.65 3.89 16.24l-1.61-.7c-1.49-2.28-1.98-12.17-2.28-15.54"/></svg>