<svg xmlns="http://www.w3.org/2000/svg" preserveAspectRatio="none" style="display:block" viewBox="0 0 2048 1462"><path fill="#fefefe" d="M0 0h2048v1462H0z"/><path d="M1625.25 100.523c21.38.693 45.49.072 67.06-.015l74.22.095c19.65-.15 44.47-1.67 63.8.915 6.93.927 14.52 8.11 19.47 12.814 10.38.427 21.94-.501 31.86.568 22.95 2.475 28.1 34.041 3.27 39.305-5.11 1.084-11.31.653-16.49.574 2.66 11.352 3.38 43.975 3.89 57.271l3.69 128.776 10.67 380.787c1.31 72.879.52 146.601 2.08 219.392a8476 8476 0 0 1 3.33 262.975c-.06 30.89 2.43 67.46-2.53 97.51-2.45 14.85-9.82 24.62-22.33 32.59 6.28-.22 15.63-1.61 20.05 2.27-.29 2.79.24 1.57-1.8 3.69-8.36 2.37-32.67 1.81-42.42 1.84l-67.34.08-270.86 2.04-1083.117 13.73c-8.566-.83-46.695.88-57.754 1.07l-125.197 1.4c-17.301.11-35.113.78-52.316-.75-17.929-1.6-23.575-15.1-34.578-23.61-1.082.09-2.166.15-3.25.2-5.767.23-13.659.17-18.039-3.85l-.018-1.91c5.327-4.86 12.523-3.46 19.877-3.25-3.795-20.7-3.233-49.08-3.403-70.7l-.877-75.14-2.296-278.028.041-442.932q-.191-88.817.674-177.631c.23-35.361-.613-81.761 2.853-116.077-4.754-.463-11.879-.31-16.844-.345-17.715-19.806-15.607-38.445 14.517-40.953 5.911-.493 12.411-.185 18.383-.173 10.445-9.108 18.413-13.009 32.5-14.144 24.903-2.008 50.757-1.816 75.744-1.909l85.64-.637 219.52-1.044 696.82-5.044 243.86-.978c35.93-.193 71.68.202 107.64-.772"/><path fill="#fefefe" d="M1369.19 157.542c4.31.427 14.31-.043 19.03-.138 5.63 27.839 16.7 68.908 25.95 95.671 61.76 178.818 163.09 338.097 310.99 457.895 29.23 23.674 76.22 59.586 109.28 75.787-17.65 14.42-27.99 24.54-37.8 45.563-19.99 42.819-29.27 88.28-39.74 133.972a1253 1253 0 0 1-22.36 86.138c-4.16 14.33-7.72 28.18-13.18 42.13-.04-1.92-.13-3.84-.27-5.75-2.38-32.37-12.46-69.5-22.38-100.387a842.7 842.7 0 0 0-110.32-227.424c-22.76-32.747-49.16-62.569-80.22-87.869-11.79-9.604-23.25-18.817-34.77-28.788 3.92-.715 8.85-1.725 12.64-2.794 11.62-3.281 36.81-19.258 39.36-31.701-3.66-11.006-18.21-2.649-28.12-9.717-17.26-12.42-16.36-39.076-16.26-59.305.22-46.004-35.47-103.836-83.69-110.393-27.52-3.742-69.75.4-97.59 5.493-22.77 4.165-54.53 24.076-66.34 44.865-16.24 28.963-10.26 45.149 3.37 71.504 5.28 10.215-5.6 19.193-9.99 26.842-9.81 16.78 6.2 24.679 9.55 36.279 11.05 38.303 41.35 45.399 80.49 40.075 9.69 6.924 62.46 52.577 56.05 63.466-19.09 32.416-33.45 66.039-48.38 100.368-17.03-27.573-21.18-55.363-27.5-86.09-5.04-24.518-19.34-72.962-47.1-79.096-2.5-.553-23.54 12.244-25.84 15.73-22.73 22.075-14.58 64.814-13.35 93.342 1.71 28.173 4.99 56.318 8.6 84.258 1.35 10.42 5.42 26.206 5.42 35.799-4.1.973-26.53-10.037-39.74-9.077-19.38-.014-39.14 8.724-51.73 23.77-56.6 67.669 19.64 168.61 50.65 232.11 2.69 5.52 10.87 18.94 12.8 23.06 3.1 6.65 34.1 56.87 34.18 58.62-4.34-.41-9.29-1.92-11.64-5.8-34.57-57.05-68.26-115.42-95.52-176.38-12.48-27.91-21.31-59.711-17.6-90.512 3.59-29.87 20.42-40.877 42.82-57.68-16.78-1.049-30.69 1.04-44.75 10.889-17.11 11.993-28.25 30.288-31.61 50.817-2.18 13.273-1.48 22.244 1.92 35.112 10.06 37.944 25.59 73.844 41.15 109.844 18.43 42.65 36.4 86.08 58.13 127.21 1.53 2.9 7.88 3.69 10.91 4.2 5.69 10.83 8.28 23.17 9.6 35.23l-144.24 2.27c-18.25.25-57.428-1.19-73.241 2.34-5.421-3.05-12.785-8.85-17.966-12.69 17.913-2.68 29.228-3.67 30.324-23.94 7.334-2.44 23.143-4.66 23.553-13.93.57-12.67 1.93-25.28 3.68-37.97 8.57-62.55 17.88-125.19 22.71-188.179 1.96-25.566 4.78-53.674.79-79.256-3.83-24.547-15.86-38.849-35.42-53.349-21.831-16.182-41.569-13.121-67.214-9.863-7.903 1.004-31.954 8.674-36.354 14.918 1.053 1.309 4.734-.104 7.324-.537 14.169-2 30.589-3.46 44.791-.945 41.231 6.182 66.553 49.986 66.673 90.19.2 65.211-17.77 136.031-29.401 200.411-4.175 23.11-7.801 44.99-10.901 68.15-.76 5.67-1.431 12.98-6.053 16.31l-1.457-.36c-1.194-3.1.269-9.48.67-12.99 6.005-52.57 18.536-103.75 27.192-155.83 3.92-26.9 10.43-56 12.31-83.038 2.23-31.946 1.24-72.966-23.469-96.472-29.729-28.284-61.91-21.509-97.466-14.952 13.372-15.227 32.575-58.661 37.782-79.648 4.983-20.09 7.721-58.082-3.195-76.342-9.742-5.11-17.993-9.101-26.753-15.859-4.01-3.094-25.551 4.368-29.888 7.88-15.666 12.682-31.652 30.623-42.242 48.011-4.965 8.184-7.441 20.258-12.55 28.639-11.313 16.883-23.209 35.094-35.275 51.206-2.008-8.786-3.223-15.59-7.504-23.539 11.409-14.726 20.573-24.79 29.242-41.662 15.264-29.706 3.33-72.55-7.295-102.993 33.419-4.273 51.491-21.282 53.821-55.662 10.026-6.181 10.54-7.22 13.594-18.262-3.688-6.195-12.977-20.49-14.916-26.605-6.206-19.57 10.9-39.089 4.709-60.528-5.988-20.735-19.525-35.973-37.858-46.758-36.387-21.404-81.411-31.413-122.765-21.866-49.684 11.47-71.102 65.784-82.163 109.935-5.082 20.285-5.578 31.972-14.557 51.962-13.733 30.57-36.43 50.704-53.418 78.489-15.649 25.596-26.368 54.515-18.887 84.811-12.911 15.828-30.404 44.149-41.019 61.653a1336.3 1336.3 0 0 0-110.702 230.08c-11.776-27.66-22.859-54.857-34.447-82.591-26.962-64.532-42.302-142.325-108.237-177.753 10.66-6.307 22.381-11.865 32.686-18.453C454.799 644.125 585.22 437.369 638.444 213.759c3.989-16.759 8.723-33.782 9.94-50.933l454.186-3.551 157.25-1.143c35.9-.113 73.63.458 109.37-.59"/><path d="M1156.59 618.444c3.48.154 4.31.682 6.02 3.539-.45 6.217-9.49 21.148-12.79 27.242-20.26 37.404-42.65 73.087-68.19 107.112-9.89 13.166-20.24 28.823-31.89 40.427-1.72.252-2.26-.068-4.02-.444l-1.22-1.958c.78-4.95 27.34-40.407 32.85-47.248 32.43-40.295 53.06-84.964 79.24-128.67m-77.76 71.97c3.39 1.579 2.38.551 4.12 3.652-.82 7.73-22.87 34.24-28.99 40.073-3.32-.176-3.74-.842-4.61-3.579 1.63-8.471 22.74-32.112 29.48-40.146"/><path fill="#fefefe" d="M547.189 163.546c25.12.272 50.242.05 75.353-.667a461 461 0 0 1-9.552 46.084c-60.229 235.454-193.188 444.832-405.15 570.436l-6.802 4.544c-13.396.013-19.118.665-31.894 3.033-1.247-34.223-.371-75.011-.393-109.825l.634-248.986-.643-148.026c-.215-36.77-1.492-77.443 2.338-113.783 28.52-1.614 70.219-.317 99.648-.363l153.471-1.109c37.079-.146 86.344.417 122.99-1.338"/><path d="M365.706 228.364c4.087.354 5.858.294 7.917 4.02.501 13.699-24.267 101.534-29.914 120.35a1382 1382 0 0 1-49.749 136.699c-6.998 16.262-17.254 40.053-25.781 55.135-3.017.317-4.12-.203-6.271-1.685-1.834-4.831 4.239-13.625 6.519-18.515a1200 1200 0 0 0 15.47-34.706c33.42-77.992 65.9-177.226 81.809-261.298M233.124 186.7c2.958.421 3.2.352 5.577 2.014 4.179 12.996-5.272 124.22-7.153 142.058-2.003 2.011-2.693 2.305-5.343 2.31-5.704-5.58-1.145-27.155-.575-35.386q1.407-23.31 2.557-46.634c.914-19.042.919-38.409 2.158-57.473.19-2.927 1.111-4.515 2.779-6.889"/><path fill="#fefefe" d="m1438.44 156.508 404.43-.421c3.79 26.002 3.73 59.816 4.39 86.495l3.26 120.888c3.94 137.453 8.93 279.112 9.97 416.285-.67 1.317-.15.747-1.76 1.497a138 138 0 0 1-8.92-4.594c-42.16-23.927-96.79-68.175-132.6-100.811a977.6 977.6 0 0 1-258.75-380.336c-17.63-46.032-31.03-91.211-44.32-138.669 8.23.012 16.07.021 24.3-.334"/><path d="M1610.7 212.269c1.88.522 4.66.874 5.46 2.457 2.46 4.804 3.98 15.808 4.95 21.201a311.6 311.6 0 0 0 11.94 46.279 670 670 0 0 0 69.52 147.272c12.55 19.752 25.55 37.932 40 56.311 1.43 1.82.73 5.296.57 7.642-4.87-.541-6.16-1.136-9.33-5.12-54.49-68.546-95.48-149.44-117.1-234.391-2.63-10.325-7.56-31.64-6.01-41.651m163 16.065c1.54.33 2.59.772 4.06 1.3 4.21 6.074 4.05 41.963 5.4 52.217 1.56 11.796 7.6 33.691 6 44.264l-3.24-.055c-9.78-6.269-17.67-87.531-12.22-97.726"/><path fill="#fefefe" d="M665.12 730.325c3.561.206 7.367.637 10.687 2.006 30.998 12.785 64.025 101.26 77.224 132.296-7.732 11.684-18.258 22.785-26.687 34.02-5.063 6.751-17.343 18.07-15.555 26.843 1.8 1.907 2.318 1.811 4.875 2.26 6.233-1.843 50.664-58.924 57.294-68.221a2089 2089 0 0 0 50.259-75.129c3.636 1.892 7.213 4.047 10.649 6.28 21.037 13.673 42.492 26.33 64.118 39.05-3.676 8.787-12.037 22.526-16.707 31.327-26.028 48.938-59.803 95.572-98.728 134.987-16.038 16.236-44.213 47.846-68.817 33.666-56.23-32.424-85.461-118.411-102.796-176.73l-11.886-40.993c-1.715-5.75-1.802-12.933-7.898-14.94l-1.336.876c-3.983 6.946-3.759 7.674-2.613 15.315 12.05 56.511 41.196 138.496 75.287 184.851-6.73 3.091-26.612 19.451-33.449 24.771-31.715 24.73-60.481 52.97-91.395 78.73-36.802 30.66-59.889 52.6-109.659 56.74-20.134-31.56-34.288-61.25-50.886-94.42 9.673-20.99 18.578-48.34 28.44-70.801 32.777-74.631 74.236-157.698 121.831-223.871 19.816 29.876 33.099 40.846 58.246 10.449 20.474-24.749 45.961-46.85 79.502-49.362"/><path fill="#fefefe" d="M189.573 798.521c15.628.577 27.913 5.773 40.548 15.067 8.894 6.542 20.092 18.187 26.14 27.42 21.101 32.217 33.412 68.936 47.251 104.35 11.202 28.664 22.784 60.302 35.213 88.212 25.153 56.47 52.609 115.03 89.577 164.8 15.12 20.36 35.811 40.87 54.257 58.62 17.18 16.53 37.928 31.68 51.498 51.95 3.166 4.73 3.941 11.26 4.745 16.79-20.133 6.11-44.821 3.77-66.16 4.39-19.021.55-45.132-2.75-62.171-11.11-9.301-5.24-18.469-15.24-25.772-22.71-59.68-61.06-101.457-135.09-141.557-209.55-.695-1.29-3.968-.95-5.302-.94-.233.72-.916 3.17-.679 3.7 31.066 69.33 98.496 179.05 153.736 226.25-57.573-.05-112.548 53.67-154.673-17.26-2.882-4.86-10.159-21.92-16.385-20.2-6.342 13.47 28.271 48.9 38.085 56.2-19.807 2.2-42.209 1.09-62.222 1.41-16.405.27-22.614-11.19-23.014-26.13-.857-31.99-.751-64.06-1.218-96.08l-1.737-242.52-.379-106.217c-.229-18.834-.465-38.432-.291-57.337.037-3.95 1.209-6.717 4.386-8.998 5.255.309 10.834.041 16.124-.107m1668.847-2.748 1.88.672c1.73 6.63 1.28 59.203 1.33 70.185l1.44 97.354 3.53 210.036c.61 36.55 1.56 75.69.71 112.14-1.4 60.35-96.3 26.91-129.66 18.58-7.74-1.93-15.92-2.5-23.81-3.1 8.01-8.78 16.37-16.55 24.42-25.61 18.37-20.66 35.01-42 50.83-64.66 6.38-9.15 17.02-23.59 21.7-33.72-.37-3.32.32-1.94-2.24-4.23-7.26.62-21.95 24.99-26.4 31.41a765 765 0 0 1-26.37 35.7c-22.1 27.3-58.86 71.74-94.36 80.31-33.15 8.01-75.48-7.94-103.71-25.18 43.75-17.76 97.37-52.09 128-88.38 56.53-66.98 74.77-160.15 94.75-243.059 11.47-47.629 26.77-149.009 77.96-168.448m-609.26-130.889c11.18 10.426 8.19 50.995 20.5 52.925 8.67-5.463.86-26.699-1.17-35.904 18.95 24.479 18.27 80.027 29.7 109.14 15.16 38.568 34.9 74.581 54.73 110.922 3.91 7.165 14.62 28.134 22.43 29.656 2.97-1.461 1.96-.643 3.68-3.945-.1-6.506-14.58-28.269-19-35.425 5.48-6.991 12.33-20.025 16.38-27.963 10.9 11.889 23.3 22.904 34.29 34.911 10.66 11.639 20.46 23.399 30.5 35.559a483 483 0 0 1-11.95 18.776c-6.44 10.7-10.92 16.173-18.76 25.972-23.18-11.412-47.45-25.821-70.74-38.095-19.82-10.448-42.24-20.891-61.19-31.54-4.72-11.21-12.64-40.895-16.29-53.449-11.04-38.032-22.78-76.283-29.99-115.215-2.85-15.365-5.66-26.365-5.98-42.197 1.19 6.017 3.86 22.869 9.06 26.013l2.49-.824c3.7-4.014 2.8-5.727 1.96-11.188-2.22-14.574-2.87-27.821-2.41-42.554 3.73 15.183 5.33 31.869 9.44 46.099 2.68 1.927 1.56 1.396 5.5 1.231 7.04-7.836-3.51-37.086-3.21-51.919zM815.326 491.591c11.177 7.369 17.336 26.58 21.534 38.666-7.742 35.476 1.335 34.643 12.163 62.599l-.889 1.558q-.925.245-1.845.512c-.785.229-4.554 1.542-4.701 2.13-11.251 45-28.196 51.035-72.047 53.988-13.225.891-26.265 34.742-32.981 47.41-2.637-9.351-4.6-16.846-8.426-25.794-10.255-25.085-26.827-47.335-9.714-74.627 2.391-3.813 2.596-4.08 7.16-4.961.601-7.959-21.049-16.302-21.669-27.547-.418-7.583 4.884-14.575 11.937-15.726 10.98 1.652 12.155 15.51 17.832 21.422l1.024-1.23c.745-4.867-1.809-10.768-3.435-15.602 38.747-6.248 61.338-32.817 84.057-62.798"/><path d="M806.615 531.31c5.513-.435 9.196-1.192 13.798 2.049l.052 1.482c-5.157 5.68-9.763 5.086-17.43 5.684-4.314 1.357-8.346 4.084-11.613.194 1.371-6.917 9.431-8.148 15.193-9.409m-.834 72.26c8.589 3.002 14.295 9.697 11.681 19.013-10.461-.793-15.522-9.303-11.681-19.013m6.575-47.338c9.595 3.956 7.393 10.93 3.204 18.243-10.782-3.76-9.343-10.718-3.204-18.243"/><path fill="#fefefe" d="M1310.24 128.553c20.2 1.633 49.43-.754 70.84-.094 1.46 5.609 2.76 11.997 4.07 17.706l-394.978 2.63q-94.554.017-189.1 1.27c-24.42.268-52.648-.609-76.572.507-14.71.04-60.216 1.068-72.336-.702-2.134-3.747.208-14.017.97-18.28 18.371-.96 40.808-.397 59.433-.344q43.858.083 87.715-.291l375.958-1.569 84.57-.375c15.68-.03 34.1.489 49.43-.458m-50.81 366.093c1.61 1.522 4.72 12.236 6.25 15.352 14.02 28.55 39.85 38.087 66.92 48.418 8.43-5.824 10.99-7.37 20.95-9.779 26.89 16.616 2.98 29.487-7.8 41.96-1.2 7.824 5.26 1.342 10.2 8.225 2.33 22.231 4.08 50.567-.64 72.141l.14 1.131-1.38.316c-5.87-4.015-26.02-23.527-32.64-29.541-16.77.539-30.24 4.058-47.72-.956-21.79-6.254-28.65-32.217-38.74-51.803 9.29-17.249 14.12-22.927 11.99-42.974-1.95-18.353 3.23-36.533 12.47-52.49"/><path d="M1258.72 535.043c6.94-.363 23.61-.018 26.15 7.976l-1.26 2.13c-7.89-1.382-21.44-.674-25.71-3.184-1.11-3.468-.62-2.639.82-6.922m4.47 26.833c10.54-.332 13.91 4.613 9.32 14.377-9.43-.02-13.87-5.493-9.32-14.377m10.89 47.032 1.78 1.681c.68 5.117-5.12 10.979-9.86 12.182-2-1.611-2.63-1.858-3.39-4.334 1.46-3.873 7.66-7.034 11.47-9.529m74.08-46.519c8.65 1.479 3.33 11.069.94 15.402l-1.77-.119c-5.25-4.345-2.17-10.377.83-15.283"/><path fill="#fefefe" d="M802.411 1159.68c3.011 11.47-3.705 54.31-4.881 67.22-1.941 9.23 7.615 7.48 7.086 14.16-2.461 31.06-14.126 53.74-4.946 84.72l-87.65 1.16c-11.906.06-46.193-.36-57.113.95-7.568.34-15.863.17-23.49.16 64.257-33.23 128.476-110.77 170.994-168.37"/><path d="M749.83 1260.43c8.663-.26 43.774-3.64 47.777 3.41l-1.161 2.68c-3.857 2.07-9.11 1.8-13.693 1.99-10.601-.7-40.805 3.01-47.623-1.98-.676-6.61 10.015-5.84 14.7-6.1"/><path fill="#fefefe" d="M931.125 1248.62c1.618-.26 6.943-1.23 8.21-.29 9.335 6.92 18.013 14.74 27.529 21.4 26.713 18.71 57.046 32.23 87.836 42.64 10.36 3.51 21.07 5.58 31.49 9.04-25.76 3.92-62.05 2.83-88.94 2.7-19.625-.04-39.251.14-58.873.52-24.854.43-63.524 2.78-86.24-4.63-6.446-17.36 1.328-45.12 4.376-64.03 27.29-2.19 47.125-3.66 74.612-7.35M605.967 131.551c5.079.499 15.834.325 21.362.401-.194 6.485-2.181 13.59-3.687 19.977-26.264-1.22-59.121-.133-85.779.011l-133.924.595q-59.169.814-118.344.973c-25.464.064-54.147-.449-79.349.463-10.64.049-21.772-.084-32.343.68 6.582-13.004 9.572-18.768 25.199-19.836 15.569-1.065 30.857-.353 46.436-.253l71.254-.248c95.307-.517 194.048.064 289.175-2.763m1097.163-5.964c3.3.841 19.86.314 24.13.226l48.63-.616c26.87-.457 47.91-6.321 63.65 19.014-28.23-.457-57.37.267-85.72.306l-199.57.431-141.6 1.106c-1.85-5.234-3.19-11.608-4.5-17.081 20.1-2.213 64.69-1.309 86.97-1.429l126.62-1.046c25.72-.169 56.02.295 81.39-.911M1359.84 1207.3c2.83.85 59.84 46.49 68.33 52.39-8.3-.03-34.11-2.54-37.67 4.93l1.08 2.11c7.99 2.93 31.66.03 42.7.76l1.43.1c21.93 15.42 35.44 27.98 59.82 42.49 3.8 2.36 12.46 6.03 17.41 8.72-15.85-.77-39.65.36-55.93.67-27.01.45-54.02.65-81.04.59 22.35-23.2 7.83-46.98-2.09-72.49-5.17-13.28-10.69-26.39-14.04-40.27m-233.81 57.16c16.28-.92 41.08-.35 58.56-.83-9.23 4.12-19.16 7.42-28.6 11.28-14.79 6.23-29.46 12.78-43.97 19.64-6.45 3.02-17.8 8.02-23.19 12.17-11.09-2.74-21.16-5.31-32.08-8.65-27.7-9.49-43.91-17.34-68.515-32.08 45.305-.01 92.565.27 137.795-1.53M896.201 704.059c-3.674 9.953-16.757 44.079-14.536 53.254l1.654.388c3.978-1.991 9.659-18.887 11.695-23.982 3.101-7.925 5.369-16.084 7.792-24.242 1.981 32.871-1.288 68.713-23.802 94.416-16.607-11.214-33.55-21.239-50.711-31.573 4.193-19.748 11.291-30.105 25.154-44.598 6.839-7.15 12.481-14.377 20.181-20.915 1.543 7.239-25.282 33.599-17.134 40.378 1.397-.199 3.427-.295 4.305-1.732 6.541-10.707 11.191-22.255 19.445-32.078l.739-.868c-4.554 12.9-11.697 23.777-14.177 37.755 10.469-10.509 16.549-31.202 29.395-46.203m531.779-58.182c14.12 7.892 20.92 7.668 36.3 3.665 6.06 8.114 17.67 16.946 25.71 23.36-30.63.213-53.71 11.217-77.49 29.157-7.83 6.05-12.65 10.401-19.83 17.24-9.12-12.573-18.14-22.6-28.74-33.993 26.75-.99 62.77-5.624 64.05-39.429M894.786 992.201c3.285.986 2.029.086 4.089 2.495-.435 3.542-13.822 39.084-15.864 45.204a778 778 0 0 0-19.597 72.32 899 899 0 0 0-15.012 93.39c-1.043 8.92-1.098 28.56-2.75 35.71l-3.054 1.76c-1.517-1.22-2.829-2.18-2.952-3.87-.727-10 .449-22.32 1.56-32.22 6.877-61.26 18.023-122.97 39.01-181.06 3.399-9.41 8.873-25.79 14.57-33.729m326.424-249.454c1.46 4.709 2.45 9.045 3.5 13.841 10.54 48.286 25.31 95.995 37.61 143.829-6.39-2.002-15.89-6.83-22.17-9.852-3.23-12.267-5.58-27.95-7.64-40.6a815.5 815.5 0 0 1-11.3-107.218M821.02 1237.15c3.972.25 3.978-.47 5.964 1.64.924 12.4 2.459 15.48 14.688 17.32-3.347 15.23-6.309 36.15-7.125 51.89-.051.99 1.451 6.71 1.701 9.51l-.922.58q-3.664.105-7.332.15c-5.918.06-11.081.15-15.752-4.56-2.379-2.2-1.87-7.21-1.768-10.27.308-9.25 2.103-18.45 3.561-27.59 1.965-12.34 4.113-24.77 5.41-37.2zm432.21-22.13c28.85 5.36 71.02 8.47 97.23 14.6 2.19 4.39 4 7.58 5.1 12.39l-1.3.79c-21.19-5.25-40.16-8.6-62.08-9.87-10.3-.6-24.15.66-33.82-.61-2.37-3.29-4.88-13.06-5.13-17.3"/><path fill="#fefefe" d="M1263.05 1244.51c20.19-1.96 63.28 2.26 82.52 9.83 12.31 4.85 17.49 7.1 23.03 18.81-15.2-4.43-44.05-23.95-57.32-19.94-2.27 2.46-1.7 1.21-1.75 5.02 2.47 4.96 17.62 9.22 23.82 11.78 14.46 6.28 27.59 14.76 40.46 23.76-.92 3.24-2.46 7.47-3.55 10.74-22.86-23.46-51.14-39.09-81.35-52.05-10.61-4.55-18.29-2.21-26.97-6.04zm-4.77 10.93c14.57 3.57 29.49 8.6 42.84 15.53 11.97 6.22 64.95 32.16 56.13 49.28-.58-.08-3.56-.64-3.89-1.05-24.89-31.67-57.96-46.65-95.29-58.44-1.05-1.87-.35-2.53.21-5.32m-23.45 24.29c11.84.71 60.42 29.17 66.57 38.6l-2.16.91c-1.69.05-8.56.29-9.63-.32-8.75-5.05-18.07-11.73-26.73-16.9-11.23-6.7-22.43-11.95-33.62-18.28l.2-.82zM920.449 744.723c3.25 13.647-7.501 65.525-18.186 74.045-2.5-.306-3.648-1.876-5.888-3.69-1.565-1.186-4.047-3.507-5.619-4.88 13.989-18.35 25.14-42.862 29.693-65.475m279.081 473.687c14.3 1.7 27.68 6.58 40.21 7.89 1.14 6.52 2.07 10 4.02 16.35-13.63-2.64-24.92-6.65-39.02-7.78zm53.31 54.44c22.25.31 70.4 27.51 80.87 46.89l-13.31.54c-11.16-20.74-46.78-37.29-67.56-47.43m605.15-1148.564c13 .012 33.35-3.645 30.36 15.79-.36.409-1.97 2.13-2.39 2.225-23.58 5.358-19.62-3.084-27.97-18.015M1208.03 1294.1c8.24 4.23 37.69 19.06 42.56 25.08-1.89 1.67-3.64 1.24-6.64 1.48-15.24-.92-29.96-15.58-46.76-22.64 3.53-1.18 7.31-2.64 10.84-3.92M143.351 135.448l15.325-.644c-4.856 6.452-6.769 12.627-9.584 20.079-10.704.545-24.313-1.946-14.768-17.09 1.501-2.381 6.148-2.123 9.027-2.345m618.925 678.376c2.261.912 7.864 23.111 8.971 26.921l-7.417 10.393-.812.09c-1.761-2.512-7.194-25.43-8.517-30.32 2.074-2.195 5.441-5.008 7.775-7.084m444.554 433.126c7.33 1.64 34.2 5.87 37.23 12.12l-2.5 2.95c-.42.2-3.51 1.65-4.1 1.49-9.34-2.49-23.43-6.84-31.07-12.24-.91-.65.08-2.94.44-4.32m223.06-275.236c1.94 1.413 12.15 21.846 13.94 25.241l-.78.82-5.13-2.461c-5.69-3.202-11.33-6.5-16.91-9.891 4.01-5.165 5.65-7.968 8.88-13.709m-255.4 308.686 16.98 9.48c-3.98 2.31-6.88 3.98-11.08 5.9-4.4-3.61-14.9-8.57-20.33-11.32 6.01-2.24 8.17-3.04 14.43-4.06m159.87-437.742c5.75 3.903 19.94 16.13 22.19 22.922 1.34 4.074.09 5.176-1.56 8.479l-1.02 1.487c-3.8-1.555-16.82-27.442-19.61-32.888m371.03 466.322c5.06-.01 27.83 3.42 32.19 6.01-2.35 1.66-4.97 1.02-8.4 1.04l-.85-.52c-1.09.23-2.18.42-3.29.57-4.62.65-22.99 1.45-26.59-1.21 1.21-2.98 4.03-4.1 6.94-5.89m-563.76-14.91 18.03 11.01c-3.38 1.91-4.68 2.77-8.48 3.84l-19.91-10.37.04-.09c4.19-2.58 5.44-3.62 10.32-4.39m36.54 13.01c5.73 2.66 18.44 7.76 21.65 12.55l-.91 1.19-4.55.05c-5.38-.3-17.89-5.92-23.87-8.13zm-67.52-.34c5.27 1.49 17.1 8.33 20.5 12.81l-1.9.8c-7.39.68-17.95-4.68-22.87-9.94l.27-1.56zm91.7-41.59c4.79-.61 16.61 3.33 19.51 7.4l-.67 2.41c-6.07 1.68-17.02-4.71-18.84-9.81m-14.1 7.94c5.02-.62 14.17 3.48 18.07 6.66l-.13 2.29c-5.36 1.05-16.74-3.83-17.94-8.95"/></svg>