<svg xmlns="http://www.w3.org/2000/svg" preserveAspectRatio="xMidYMid meet" viewBox="0 0 2048 1462"><path d="M545.197 79.518c1.933.26 11.065-.108 14.07-.06 40.238.646 83.68 24.975 105.209 58.864 3.117 4.907 5.456 9.644 3.955 13.514-11.926 6.346-28.272 12.412-41.026 17.86a5365 5365 0 0 0-64.997 28.754c-54.957 24.721-114.898 54.552-170.474 76.342-3.866-5.444-5.47-10.12-7.918-16.237-63.214 60.194-115.827 135.368-155.71 213.555-3.984 7.81 10.846 8.49 1.33 28.391 6.326 8.867 12.51 20.219 18.482 29.6l49.861 79.228c4.797 7.638 17.69 29.969 22.865 35.649 33.837-19.853 83.992-17.375 118.903-.922 3.293 1.551 5.826 3.321 9.402 4.737l1.059-.805c-1.562-13.751-2.765-24.767-2.845-38.567-20.648-11.073-9.789-52.726-13.874-74.748l-.552-.277c-23.312-12.171-7.093-35.169-2.491-53.388 1.538-6.089 2.041-11.408 2.658-17.671-38.473 2.848-24.87.187-36.38-31.76-11.605-7.875-36.605 17.546-17.863-42.706 3.254-10.46-2.431-48.231 1.688-53.933 6.783-4.98 16.563-3.32 25.225-5.204 33.982-7.389 65.47-12.06 100.212-14.06 15.816-.91 34.358.842 48.667-.81 19.032-2.198 41.181-9.485 60.69-10.707 4.419-.276 10.035.517 14.316 1.609 27.983 7.142 54.639 19.133 82.705 25.257 6.735 1.469 26.421 4.36 29.437 8.315 7.651 10.029.147 18.649-6.383 25.712-.563.61-1.1 10.129-1.222 12.254-1.698 2.079-4.129 4.586-5.985 6.62-.454 10.32-10.019 33.161.495 37.135 13.046 4.93 7.938 22.759 6.447 33.138-.138.957-6.454 1.114-7.511 1.188-3.037 3.428-1.816 8.559-1.364 12.97.897 8.75.029 7.578-5.067 13.709.45 3.675 2.954 6.542 5.125 9.72-.382 7.48-1.067 27.844-2.76 34.322-9.859 6.792-2.353 12.321-3.9 19.267-4.649 3.545-20.983 3.482-27.508 3.839 2.063 17.8-.105 38.184 1.876 50.398 12.751-13.837 26.989-31.088 39.842-45.185-3.232 3.545 4.306-58.53 5.639-63.118 6.859-23.609 17.855-42.362 40.347-53.105 18.254-8.72 50.231-12.771 69.546-8.147 35.41-27.338 15.985-30.469 66.152-44.312-10.847-24.189-4.814-48.375 12.343-67.64-6.672-49.022 3.69-93.139 47.167-123.331 24.733-17.175 53.51-24.128 83.04-18.436 12.43 2.396 23.43 7.656 35.03 12.396 22.98 6.639 38.42 8.91 52.6 31.243 23.99 37.764 13.01 84.285 4.17 125.125 6.36 19.077 7.23 22.869-.85 41.89 35.63 10.836 82.03 72.436 107.44 99.754 4.3 4.625 17.33 20.523 20.91 22.781 4.18-4.315 5.47-5.71 10.82-8.441l1.14-.571c-.32-12.698-2.72-7.823-5.37-18.41-.73-2.918 3.33-5.251 3.87-11.572 1.71-20.177.93-31.801-1.59-51.645 3.42-4.29 7.77-9.08 11.4-13.298-.35-4.758-4.06-17.11-1.39-20.915 5.97-8.501 33.26-28.246 43.22-29.958 28.7-4.938 100.65 5.324 134.03 7.977 41.36 3.288 83.48 4.848 124.96 4.082 7.98-.147 50.08-2.755 54.88 1.07.24.193.46.414.69.617 2.41 2.093 4.42 4.324 4.59 7.687.13 2.512-1.47 5.275-3.17 7.003-4.37 4.435-9.41 3.727-15.19 3.778.39 4.061 1.05 6.775-.44 10.526-3.21 2.832-4.4 1.937-9.39 2.934-3.3 4.286-2.07 9.46-4.79 14.927-2.72 5.486-8.74 3.551-9.32 6.3-4.51 21.327 4.57 43.605-6.55 64.047-2.4 4.401-7.73 1.77-11.87 5.381-1.58 4.71-.08 12.341.44 17.714l1.73.856c1.71 1.207 3.46 2.458 4.92 3.974 6.19 6.438-1.43 52.641-1.66 63.347-.26 12.127 1.66 24.226 1.36 36.494l-8.43 4.675c-.37 12.575-2.58 24.904-1.99 37.53.39 8.302 3.68 10.457 6.22 17.601.67 1.886 1.41 12.853 1.61 15.55 71.4.143 143.21 3.003 214.65 3.321 11.55.051 19.64 2.474 18.73 16.357-3.61 54.741 8.49 53.506-44.89 53.475l-72.81.01c-1.76 11.444-10.3 75.933-14.93 82.809-6.46 2.513-35.44.353-45.13.311-2.64 32.351-1.93 72.182-2.52 105.361l-2.79 191.811-2.21 173.04c-.11 20.73-1.02 41.66-.34 62.39 9.9.61 54.06-1.43 54.78 8.71l-1.76 1.86c-16.16 4.03-34.36 1.28-51.74 1.71-56.74.45-113.16-2.1-169.93-2.97-71.8-1.1-143.9 2.36-215.48 2.13l-295.982-2.35c-28.161-.08-55.247 1.06-83.012 1.24-56.419-.17-112.839.29-169.248 1.37-16.829.36-33.349.41-50.18.06-48.916-1.02-98.033 3.23-146.933 1.79-12.647-.37-82.23 6.3-84.565-4.04 3.763-6.47 11.544-6.41 18.403-7.47 1.461-19.5-1.149-50.6-1.545-71.06l-3.334-162.67-3.523-213.143c-.562-25.269.781-63.739-2.027-88.439-7.109-4.686-50.53 2.61-60.968-1.201-5.754-6.088-6.352-17.254-7.153-25.211-1.981-19.657-4.475-39.25-6.888-58.858-10.503-.615-21.742.692-32.321.722-22.127.061-44.246-.276-66.373-.097-5.923.047-11.682.133-17.418-1.53-6.191-5.118-3.183-18.063-3.581-25.171-2.089-37.323-4.904-40.142 33.484-40.071q.318-2.441.701-4.873c2.693-17.031 13.196-26.538 26.774-36.399l-69.353-111.832c-5.261-8.352-15.254-25.047-20.774-32.156-2.592-3.337-20.832-1.473-20.354-20.589.325-13.023 11.619-9.602 15.21-16.453 33.639-64.178 73.173-124.047 119.881-179.458 15.683-18.621 34.112-34.713 50.917-52.532 2.447-21.86 4.278-39.186 13.574-59.516 27.411-59.946 80.468-94.772 146.005-99.655"/><path fill="#fefefe" d="M665.243 841.556c15.931 1.508 52.347.609 69.661.291 31.068-.571 72.236 1.946 102.265-.168q-.111 16.569-.69 33.129c-9.771.394-19.683.681-29.397 1-20.658.678-46.91-2.82-64.255 10.471-14.065 10.777-18.614 41.542-7.573 55.47 5.165 6.388 18.376 13.477 26.552 13.894 28.217 1.437 54.985-.222 83.331 2.402 1.595 16.706 14.662 97.805 20.964 112.345-43.986 2.84-281.333-11.76-300.162 2.46-3.367 7 .384 32.04.416 40.88.542 13.33-.514 27.1 2.036 40.27.991 5.11 2.351 5.46 2.051 11.38 3.054 18.02-1.715 34.86.413 52.63.52 4.34 5.481 4.99 8.483 8.24 1.565 5.63 1.738 24.08 1.95 30.43 1.16 34.68 2.415 87.66-5.813 121.18-23.909 1.57-49.997.56-74.29 1.22-1.934-19.11-1.341-31.08-2.104-49.32-2.03-41.31-3.17-82.65-3.418-124l-4.627-195.19-3.157-115.424c-.321-15.204-1.783-38.373-.051-52.974 3.458-.041 6.962.361 10.42.399 36.433.395 72.847.898 109.254-.623 19.045-.796 38.572.514 57.741-.392m461.507-443.113c4.41-.626 17.38.831 22.47 1.265 4.55 15.575 8.22 70.972 10.16 91.451 4.29 42.982 9.03 85.918 14.2 128.803-15.02 10.001-31.28 18.937-45.82 29.228-25.34.304-50.68.965-76.01 1.983-6.28.48-12.27.585-18.55.72-.69-6.839-.74-14.618-.48-21.519 1.69-44.504.38-88.931.92-133.433.15-12.177-.25-24.623 1.53-36.659 8.08 6.762 15.09 15.012 23.3 22.194 19.08-16.786 35.09-46.992 49.67-68.379 2.39-3.502 3.95-8.589 7.34-13.588 3.42-2.138 7.1-1.843 11.27-2.066m455.63 444.547c10.28.895 20.68 1.09 31 1.409-2.06 56.24-1.26 117.855-1.89 174.561l-5.53 358.04c-13.38.1-27.71.19-41.03-.34l-.33-20.25c-1.49-18.08-3.47-16.79-20.48-16.58l-.77-16.38c4.08-.81 5.17-.92 8.79-2.9 9.29-10.37-4.76-45.67-1.86-54.15.43-1.24 4.37-2.46 5.61-3.34 9.63-6.79.51-58.37-.35-70.65-.95-13.44-.43-26.95-1.2-40.39-.51-8.96-2.24-17.86-2.43-26.82-.27-12.44 1.45-24.33 3.36-36.56 1.46-9.39 2.5-18.72-3.37-26.79.34-6.06.02-17.06 1.74-21.95 1.16-1.05 4.92-4.37 5.11-5.62 2.34-15.32.01-36.948 2.6-51.702 1.2-1.945 2.24-2.383 4.15-3.632l.76-.486c2.75-6.454 9.99-41.405 7.68-48.136-4.02-5.122-9.31-4.74-16.02-5.634l2.41-19.013c4.43.462 14.98 2.078 18.04.146 11.3-7.155 2.12-37.599 1.25-48.29-.19-2.351 2.18-12.072 2.76-14.543M943.408 387.796l2.282.436c9.088 16.448 24.2 84.939 38.435 93.682 7.99.169 19.655-17.326 28.445-24.179l1.02-.787 10.38 2.555c1.71 26.134.98 61.654.39 87.919l-2.45 104.618c-17.78-.588-26.95 4.958-41.407-4.864-15.898-14.388-37.479-32.469-49.861-49.464-8.462-15.448-13.276-37.522-31.018-45.379-8.188-3.626-11.926 7.11-13.472 13.117-3.425-1.72-8.4-3.416-12.146-4.837-1.398-8.333 6.133-43.167 7.806-53.038 6.025-35.552 13.957-69.722 18.673-105.603 17.019-6.248 24.186-4.919 42.923-14.176m-56.749 22.109c3.917 4.442-10.555 66.821-12.021 75.137l-7.971 45.329c-5.873 35.118-6.967 40.034-26.641 70.699-14.203-5.128-127.557-20.511-119.903 8.43 5.995 3.308 11.36-1.286 17.658-3.033 23.762-6.592 96.922-.988 116.016 10.478-20.881 8.968-25.116 13.201-38.285 31.541q-3.414 5.743-6.76 11.528c-26.363.01-55.735 2.282-82.3 3.833-11.224.656-8.24 17.629-10.826 21.492-5.52-5.976-.868-51.137-5.84-59.24-5.122-8.349-10.363 2.368-8.852-17.536 4.599-4.677 8.905-9.434 13.27-14.335 25.516-28.654 51.597-57.749 77.833-85.706a7464 7464 0 0 1 55.38-58.124c14.084-14.387 25.599-24.926 39.242-40.493m275.281-3.381c21.65 10.369 103.62 106.575 118.89 128.691.34 7.958 1.04 12.029 2.45 19.724-5.1 9.038-3.03 14.787-.89 24.381-5.13 10.413-4.42 13.051-3.47 24.669l.72 6.506c-1.92.352-8.74-3.044-11.92-3.93-8.9-2.471-16.99-3.127-26.07-3.86-15.1-12.986-53.69-44.572-64.97-57.606-2.12-11.322-2.18-22.183-3.6-33.271-4.35-33.97-4.67-72.108-11.14-105.304m54.55 596.566c1.9.1 1.02.01 2.95 1.47 1 8.92-5.6 10.6-6.5 13.79-3.38 11.99-6.61 39.05-3.65 51.19 1.61 6.58 2.13 4.84 1.2 11.81-16.73 5.85-12.04 21.14-9.57 35.49 1.15 6.68 10.93 5.28 15.98 7.24 4.49 7.18-1.17 15.87-.28 19.99 2.21 10.21 2.75 10.85 3.01 21.55-10.43 8.64-2.82 24.24-5.41 36.35-1.03 4.81-7.49 1.54-12.04 5.3-2.69 4.77-2.46 26.93 1.73 31.23 2.76.65 3.22.65 5.6 2.08 1.3 2.65 1.01 3.16 1.58 4.78.97 2.74 1.96 28.82.96 29.16-5.4 1.84-13.11 2.26-14.29 12.81-1.25 11.1 3.12 51.77-2.24 59.43-8.51-5.19-44.63-28.11-47.73-42.36-1.02-4.05 1-10.25 2.45-14.18 33.76-91.76 38.43-189.17 57.89-283.95.28-1.35 6.97-2.79 8.36-3.18"/><path fill="#fefefe" d="M1075 337.725c2.81 1.632 10.51 13.614 13.37 17.204 8.22 10.304 15.54 16.228 25.74 24.278-1.55 3.938-5.76 11.777-7.84 15.499-13.6 24.41-58.26 46.824-84.77 53.292-10.57-3.29-14.2-5.348-23.168-11.871-27.318-20.07-40.024-34.089-45.329-68.257 6.413 4.848 12.146 6.909 20.05 8.437 38.937 7.527 76.457-9.558 101.947-38.582"/><path d="M1025.29 400.812c2.05-.047 7.14-.079 7.07 2.637-.13 4.848-1.05 31.675-2.34 34.333-1.01-.038-4.37-.171-5.13-.406-11.96-3.726-2.45-28.496.4-36.564m-53.209-15.196c3.834 2.275 6.845 4.167 11.154 5.41 5.87 1.693 18.835.14 22.725 4.198.33 3.679.3 2.434-1.72 6.208-8.775 1.553-32.596.443-35.986-9.491.782-4.267.118-2.653 3.827-6.325m78.199 14.07c8.97.385 20.57 8.123 31.95 5.217 1.34-.344 2.36 1.498 3.04 2.622-.63 3.722.19 2.191-2.47 4.79-9.12 2.16-36.11 2.406-32.52-12.629"/><path fill="#fefefe" d="M1177.36 661.467c.4-.034 3.11.49 3.7.593 3.55 4.469 1.9 16.384-2.09 20.481-12.23 1.622-39.57.726-52.63.645q-38.205-.024-76.41.445l-307.945 2.392c-4.763-.375-13.364-.304-14.733-5.535 1.302-3.064 2.67-3.663 5.444-5.767 10.882-.433 22.879-1.915 34.375-2.386a8713 8713 0 0 1 236.779-7.462c43.33-.986 86.65-2.455 129.99-2.647 14.34-.064 29.25.181 43.52-.759M694.352 1176.56c9.198-1.3 27.695.04 37.811-.04 40.846-.29 82.49 4.74 122.988 5.67.607 9.36 1.076 18.32.209 27.67-27.551-3.96-85.219-4.69-112.808-3.92-27.198-.36-142.762 10.07-157.662 4.96-1.648-2.61-.442-12.62-.095-15.93.856-8.15.013-11.98 9.51-12.03 33.403-.17 66.818-3.12 100.047-6.38m94.849 73c12.338-.35 24.684-.19 37.009.46 11.819.71 31.77 3.74 42.692 1.56l1.248 26.83c-9.439-1.94-29.314-1.81-39.585-2.2-51.582-1.93-103.138 1.15-154.717 2.95-3.872.6-7.796.52-11.701.75-22.864 1.37-45.709 3.24-68.624 3.51-.447-6.5-2.04-21.96-.179-27.47 3.364-1.18 20.108-1.29 25.204-1.7 56.186-4.58 112.38-3.39 168.653-4.69m17.133 38.08c10.306.69 73.652 1.34 76.828 4.18 1.823 6.9 1.709 15.79 1.941 23.06-54.867-3.99-108.813-1.66-163.663.78-16.532.74-33.146 1.51-49.69 1.17-26.702-.07-49.592.24-76.271 1.74.258-8.2.189-14.29-.205-22.48 26.992.34 65.469-4.11 94.195-5.29 23.219-.88 46.444-1.59 69.674-2.14 14.931-.26 32.67-.02 47.191-1.02m218.236-326.474 11.37.288c2.35 55.436.37 111.986 3.06 167.096 3.98 81.86 3.65 162.55 4.31 244.48-1.39-.31-13.07-.66-15.95-.9.39-73.57-9.07-146.59-5.45-220.67 2.22-45.5-2.07-92.01 2.32-137.86 1.52-15.912-.61-35.49.34-52.434m307.61-39.563c8.13 2.67 33.71 4.766 43.93 5.802 32.03 3.377 64.16 5.717 96.33 7.015 25.8.873 63.03.793 87.69 2.853 3.33 4.786-1.61 22.391-3.11 28.506-.31 1.559-.61 2.039-1.23 3.546-2.97 1.11-15.02.821-19.1.837-68.32.279-136.92-10.809-203.18-26.766-6.05-1.458-3.08-17.852-1.33-21.793m-58.92 425.407c19.83-.59 49.99 2.38 71.37 3.07l132.72 3.16c19.58.66 57.1 3.02 75.51 1.36l-.67 20.21a5442 5442 0 0 0-160.6-.39l-69.34.92c-14.19.29-33.14 1.52-46.94.65-3.8-4.34-2.31-22.51-2.05-28.98m-577.457-242.54c17.844.36 35.362.07 53.366.61 27.567.83 56.989 3.09 84.472 2.48 1.682 5.69 2.707 15.16.442 20.76-2.86 1.87-19.375.28-24.26.23-29.196-.31-62.773-1.75-91.615 1.2-27.711.63-57.149 4.52-84.9 6.38-16.27 1.09-37.551 3.39-53.54 1.48.396-7.48.566-16.17 2.079-23.4 4.464-1.78 34.174-2.13 42.022-3.3 23.523-3.51 48.328-3.66 71.934-6.44m44.691 248.91c47.968-1.31 98.15 2 146.358 2.73-.621 5.07-1.1 13.29-3.041 17.54-6.376.97-41.541.76-50.661.73-29.194-.1-59.468 1.4-88.439 1.05-21.106-.53-45.265 1.46-67.157 1.33-27.912-.18-59.969-1.54-87.489 1.18.86-7.04 1.768-12.38 3.191-19.33 46.06.41 101.446-1.6 147.238-5.23"/><path fill="#fefefe" d="M1244.61 614.565c14.12-1.471 27.87 6.183 37.64 15.61-4.32 13.556-1.14 15.896-.81 29.12.02.557-5.22 7.306-4.87 10.364.55 4.883 2.58 9.106 2.23 13.822-3.83 2.998-11.01 2.899-15.28 2.477-6.15-.608 1.05-10.695-2.5-17.079-2.96-2.021-1.71-1.76-4.96-1.706-4.75 3.149-6.15 14.035-7.45 19.883l-17.34-.188c-.03-8.42 4.47-23.993-.44-30.051-7.49-.194-7.95 7.715-9.29 13.55l-4.17 15.567c-6.37.161-13.15-.604-19.54-1.158.58-8.853 4.97-30.743 4.2-34.933-5.99-3.296-44.47-.774-54.2-.449 32.53-20.719 57.67-34.677 96.78-34.829M762.796 1140.58c24.738-.46 45.023.97 69.356 1.7.077 9.04-.755 16.97-1.57 25.97-44.573-2.69-129.17-7.78-170.47-1.35a1706 1706 0 0 1-73.261 2.99c-1.711-6.36-2.564-11.62-3.636-18.08 51.222-3.06 102.186-7.26 153.389-10.3 8.711-.52 17.437-.23 26.192-.93M1290.4 948.583c14.01-.459 80.05 15.425 99.12 18.965 58.55 10.873 98.97 14.279 158.42 14.531.06 5.153.34 9.312-.83 14.348l-1.63.938c-66.16 5.105-144.41-4.91-209.6-16.522-10.66-1.899-33.22-5.026-42.55-7.619-3.12-3.877-2.78-19.097-2.93-24.641m55.72-96.283c35.66-1.143 93.92 6.443 130.56 9.872 29.3 2.74 64.32 4.797 92.99 8.074.69 6.274 2.52 18.198.96 23.854-28.25.814-79.01-6.195-108.65-9.7-35.87-4.24-81.07-7.144-115.96-12.836.23-6.419.26-12.843.1-19.264m-4.5 31.593c18.75 1.117 41.19 4.119 60.11 6.158l80.69 8.42c16.98 1.9 49.88 6.434 65.91 6.019-.95 5.739-3.38 14.412-4.82 20.271-26.41.85-186.16-7.21-201.45-14.786-1.02-4.986-.51-20.207-.44-26.082m-56.97 403.117c17.64.96 34.88 1.56 52.56 1.7 68.56.56 137.32 3.64 205.82 4.53.28 4.85 1.22 11.74-.6 15.98-2.81 2.6-2.12 1.76-6.93 2.18-30.15-1.66-245.87-.2-252.46-4.85-1.58-4.72-1.35-15.39 1.61-19.54m30.62-147.1c20.08 1.76 40.96 1.45 61.26 2.94 55.49 4.09 110.81 8.4 166.48 9.08-.86 5.23-1.31 12.42-1.8 17.83l-.41 1.33c-2.44 1.62-4.8 2.12-7.78 1.92-47.51-3.05-94.94-5.3-142.53-6.55-25.17-.67-51.61-.82-76.56-2.8-.15-6.49-.74-17.82 1.34-23.75m-584.511 78.61c4.482-2.14 75.603 1.37 85.825.99 12.659-.46 33.589 3.97 47.662 1.56.104 6.34-.121 12.62-.301 18.95-50.554-3.91-83.435-3.07-133.793-2.1-46.25-1.16-90.764 4.37-136.104 5.14.037-7.09-.304-11.94-.954-18.99 3.913.3 8.127.36 12.065.29 41.922-.77 83.704-3.98 125.6-5.84m559.421-44.68c18.25 3.08 41.1 2.86 59.8 3.25l67.52 1.84c42.36 1.14 83.6 4.81 125.37 6.2.15 2.51.26 5.01.35 7.52.12 3.91.45 6.2-2.23 9.07-3.27 1.45-3.94 1.11-7.66.73-2.06.52-23.09-.79-27.24-.89-35.48-.81-72.06-4.79-107.38-5.02-35.48-.23-72.99.72-108.39 2.21-1.25-6.62-2.54-18.64-.14-24.91m-3-92.61c15.4 1.2 28.99.87 44.23 1.35 36.51 1.46 73.03 2.5 109.56 3.13 29.47.78 69.27 1.79 98.21 5.47.2 6.17-.18 13.28-.36 19.53-10.4 6.46-211.91-16.65-239.33-12.61-1.3.2-11.33-.14-13.56-.17-.07-4.72-.43-12.56 1.25-16.7m1.18-95.74c7.09.525 21.08 3.34 28.65 4.594l57.37 9.299c55.02 8.657 117.56 13.547 173.34 10.647-.7 6.76-1.28 13.52-1.75 20.3-13.89 1.18-32.04-.26-46.16-.47-59.47-.86-118.29-8.01-175.87-23.12-10.62-2.79-24.03-6.31-34.68-7.498-.8-5.642-.94-8.049-.9-13.752m-17.77 334.43c3.82-.19 8.98-.27 12.77-.04 82.02 4.91 165.52-.81 247.36 3.15-.05 6.17.25 12.44.46 18.61-3.64 2.06-235.41-5.66-259.4-7.16-.55-4.48-.83-9.98-1.19-14.56m14.54-309.4c15.48 1.55 50.28 11.59 67.42 15.19 50.87 10.68 99.05 16.1 151.11 16.33 12.1.05 24.56.98 36.64.13-.19 4.69.19 13.23-1.16 16.99l-2.01.68c-41.36.8-74.26-7.5-114.58-11.98-18.08-2.01-44.46-1.84-63.04-2.34l-73.26-2.63c-.67-12.06-1.55-20.18-1.12-32.37M529.22 663.542c2.535.766 16.966-.162 20.538.182 16.848 1.622 110.281-1.452 120.887 3.586 2.539 4.673.808 13.207.087 18.462-19.698.374-40.872-1.125-61.218-.831-50.099-.905-98.66.677-148.541 1.215 2.595-5.454 3.537-14.112 6.727-18.731 2.901-4.202 52.855-3.068 60.089-3.743zm762.63 595.938c11.84-.6 28.55.22 40.81.44l79.23 1.7c38.39.91 88.89.3 126.53 3.2.37 4.57 1.32 10.33-.24 14.41-3.02 2.48-2.04 1.7-6.84 1.9l-247.93-5.59c-.11-4.95-1.26-9.19.28-13.73 3.23-2.72 3.4-1.93 8.16-2.33m6.89-149.2c5.07.41 11.43.06 16.65.15 53.28.88 106.19 7.41 159.37 10.84 14.1.92 28.21 1.76 42.32 2.51 12.32.6 25.08-3.82 20.87 14.14-2.06 2.39-.94 1.72-4.7 2.07-52.45.46-110.13-7.01-162.9-9.59-22.82-1.12-54.77-4.03-77.15-2.29-.48-3.16-1.08-6.43-1.34-9.62-.56-6.93 1.21-7.12 6.88-8.21m-447.715 214.28c2.949.68 13.187 1.36 16.712 1.68.308 5.24.126 11.13.078 16.44-10.943-1.28-38.355-.75-50.695-1.07-67.255-1.75-136.846 1.47-204.37 4.25-7.451-.34-11.315 2.16-16.932-1.21-1.883-3.86-1.18-8.98-1.056-13.5 65.997-3.01 131.964-1.61 197.965-5.43 19.274-1.11 39.216.39 58.298-1.16m-222.213-244.99c34.073-2.77 78.461.61 113.519 1.29 38.411.73 77.053 1.34 115.442 2.3.341 4.54 1.503 10.91 2.217 15.56a585 585 0 0 0-53.244-3.33c-10.765-1.11-24.507-1.06-35.503-1.63-32.208-1.67-64.196-1.37-96.04-.08-16.93.68-80.582 9.11-93.784 6.37-2.152-4.45-2.473-11.46-3.948-17.3 13.419-2.37 37.161-2.7 51.341-3.18M1376.2 616.522c72.07 1.91 136.82 1.887 208.82.994-.45 7.356.24 13.844-4.75 19.057-3.03 1.324-10.45.762-13.48-.373-46.28-1.061-92.95-1.578-139.25-1.661-24.62-.044-50.85 1.572-75.27-.138.4-4.393-.08-12.8-.21-17.49zm-755.765-74.026c18.474 1.092 33.081-5.673 23.037 22.196-30.94 6.092-54.293 5.067-84.967 6.494-28.28 1.315-55.082 3.439-83.811 3.159-5.375-.266-22.652.757-25.178.057-2.725-2.931-1.997-1.476-2.634-5.564 2.926-9.832 14.109-7.124 23.1-8.059a2640 2640 0 0 0 48.49-5.645c8.12-1.095 16.801-2.511 24.83-4.174 25.404-5.261 51.269-6.894 77.133-8.464m734.945 665.954c16.85.37 33.72-.57 50.6-.1 27.35.74 54.48 3.54 81.76 4.8 7.54.34 56.21.67 58.78 2.29.91 2.85 1.34 3.49.92 6.34-2.82 2.14-59.39 3-67.69 3.45-42.73 1.17-85.47 1.76-128.22 1.79-15.79.05-50.03 1.01-64.45-1.38-.38-4.57-1.27-9.01.26-13.2 4.94-3.43 58.12-3.66 68.04-3.99m38.87-539.948c66.64.87 126.25-1.45 193.48 5.896l.04 13.459c-10.9.039-22.31.289-33.13-.7-65.37-.073-132.42-2.533-197.09-2.052l-1.79-16.191q19.245.054 38.49-.412m65.27-79.802q2.085-.21 4.17-.353c13.9-.998 121.23 1.696 129.2 8.592.48 4.435 1.04 3.691-.46 7.3-4.42 3.273-98.46 3.184-111.68 3.117-14.05.288-27.64-.813-41.64-1.1l-95.13-1.654c-.08-4.072.36-7.698.77-11.725 11.1.599 28.93-.854 40.6-1.432 25.1-1.241 49.01-2.632 74.17-2.745M567.571 463.451a496 496 0 0 1 21.93-.332c12.862.018 57.271-.234 65.675 8.195.263 1.335.632 3.762-.767 4.26-9.209 3.27-29.063 1.514-38.599 2.514-21.383 2.243-41.581 2.361-62.513 6.075-13.043 2.315-25.66 6.06-38.494 8.717-28.594 4.881-51.358 7.488-79.777 11.158 2.22-6.401 5.172-14.967 9.055-20.484.681-.967 1.442-1.825 2.602-2.004 14.468-2.248 29.076-3.932 43.526-6.283 26.088-4.244 50.991-9.024 77.362-11.816m28.21-124.851c4.354-.353 5.798-1.062 9.328.72 1.921 3.351 1.105 9.016.926 13.222-56.764 23.002-93.491 25.091-153.381 26.188-15.335.281-39.277.819-53.709 2.89-2.758.233-3.808.614-6.151-.826-2.224-4.041-2.392-2.833-1.589-6.285 3.839-3.383 41.648-4.348 50.82-5.781 30.649-4.787 59.472-15.373 89.447-22.557 19.663-4.713 44.055-6.354 64.309-7.571m45.881 149.828c1.421-.208 5.586-.758 6.284.821 2.674 6.054-.883 16.335-2.44 22.453-15.354-2.293-37.546 2.418-53.438 3.283l-149.314 7.12c-3.42.385-7.639 1.479-10.319.282-.223-3.523-.741-3.192.623-5.884 4.914-1.442 9.513-2.054 14.568-2.601 28.429-3.072 56.35-7.525 84.322-13.606 35.948-7.816 72.994-10.3 109.714-11.868m760.428 30.064c42.13-.962 85.95-.668 128.11.167 21.85.433 43.68 2.963 65.95 3.204.02 6.119-.44 9.681-1.25 15.793-13.83-2.177-33.72-2.912-48.09-3.848-13.19-1.538-32.65-.395-46.47-.945-35.96-1.432-72.1.096-108.05-.219-7.45-.066-38.81 1.224-43.89.261-1.42-3.361-.72-8.028-.53-11.873 12.55-1.858 40.71-2.087 54.22-2.54M622.13 633.595c17.201.205 36.408-.595 54.016-.642l-.739 22.616c-23.771-2.174-46.002-2.465-69.773-2.849-27.257-.44-54.453-1.246-81.726-.494-11.209.973-51.265 2.198-61.036.871-.351-2.995-.265-8.028-.31-11.193 28.043.423 61.396-3.612 89.767-5.37 23.43-1.452 46.458-1.844 69.801-2.939m20.216-56.225c4.313-.982 16.526-.234 21.452-.023.281 7.756 1.855 12.076 4.292 19.415-22.266 2.939-65.81.919-89.383.57-34.758-.515-63.931.659-98.656 2.455-11.011-.117-30.482 2.003-31.988-12.057 4.512-5.505 41.032-2.073 50.203-2.872 47.237-4.119 97.434-.316 144.08-7.488m636.634 478.98c22.21-1.68 50.44.11 72.94.71 24.61 1.29 50.48-.23 74.9 2.85 38.07 4.82 75.54 13.12 114.2 11.73 2.22-.08 3.11 1.28 4.23 2.77.02 3.6.5 2.47-1.27 5.19l-2.21-.19c-83.95-6.64-167.64-6.77-251.75-9.77-2.78-.09-9.92.21-12.12-.91-1.65-3.89-1.35-8.97 1.08-12.38M606.66 317.422c1.365-.366 2.359-.222 3.798-.205 1.959 2.3 1.354.977 1.595 4.215-2.43 5.806-6.67 5.196-12.29 5.67-13.326 1.124-27.603 1.137-40.791 3.316a647 647 0 0 0-46.31 9.048c-47.555 11.528-65.02 20.501-116.912 20.533-1.794.011-1.74-.16-3.3-1.129-1.621-4.96-1.187-11.501-1.146-16.851 10.045-.691 19.186-2.091 29.047-4.001 36.251-7.024 73.15-13.123 110.203-11.719 7.817.297 15.228.693 23.053.248 18.192-1.034 35.047-7.173 53.053-9.125m-85.123 292.112c17.789.122 35.097-.702 53.707-.284 31.6.709 64.181 2.539 95.461-.554l1.418 11.353c-18.124 2.193-41.785 1.676-60.371 1.742-3.176-.372-30.74 1.678-36.243 1.917-38.594 1.671-75.897 5.504-114.629 6.514.035-6.158-.705-11.632-1.408-17.709 4.416-.974 8.314-.985 12.812-1.011 16.44-.097 32.838-1.075 49.253-1.968"/><path fill="#fefefe" d="m618.76 364.276 1.808-.461.975.624c-12.406 7.678-88.584 28.423-107.197 35.574-27.398 10.526-97.239 16.565-127.503 16.066-1.24-.088-.614.061-1.791-1.063-.342-4.613 3.026-14.948 4.403-19.888 54.13-7.422 110.4-2.048 164.031-13.218 21.994-4.581 43.422-13.017 65.274-17.634m924.74 871.314c.84-.26 1.83-.14 2.8-.14 2.44 3.32 1.66 12.22 1.64 16.81-34.19-1.66-73.37-1.63-107.78-2.14q-72.705-1.74-145.41-2.58c-4.45.48-5.63.75-8.88-1.3-1.83-3.6-1.67-2.09-1.17-5.86.6-.52 1.19-1.04 1.79-1.57 55.94 2.29 213.14-1.77 257.01-3.22m-138.6-671.014c9.71-.729 18.93-.473 28.58-.487 45.14-.066 90.7 1.803 135.39 8.378 5.37.791 18.83 1.256 22.06 4.516-.23 3.072-.03 3.712-1.81 6.023-5.52.378-17.17-1.215-23.09-1.766l-38.89-3.242c-14.91-.292-29.56-1.499-44.66-1.412-46.66.268-93.58 2.701-140.15 5.489l-.59-14.619c13.11.913 47.67-2.17 63.16-2.88m-533.851 58.689c22.932-1.899 57.681 1.317 72.852 20.206 2.564 3.194 5.238 6.78 7.904 10.03-4.168.302-21.219 1.849-23.288.366-5.36-3.843-9.317-17.709-21.049-12.498-1.586.704-1.111.745-1.65 2.538 1.228 3.471 5.152 6.684 7.93 9.434l-.29 1.384c-7.668 1.332-16.845.078-23.956.771-20.292 1.978-48.256.826-67.521 5.108 13.243-21.431 23.083-31.137 49.068-37.339M633.767 522.438c6.591-.403 11.318.084 17.835.632-.128 3.029-.583 6.925-.849 10.025-69.27-2.317-120.357 13.147-187.745 17.512l-.86-.028c-6.72-.262-8.928.414-15.634 1.908l-.599-19.258c15.723.186 41.179-3.059 58.099-3.966zm751.333 21.094c3.55.858 31.58-.035 37.61.077 25.2.467 158.08-.523 170.6 6.367 1.17 4.164.31 9.601-.07 14.098-.25-.064-.51-.128-.77-.192l-1.3-.297c-9.74-2.291-27.33-4.16-37.44-4.623-61.76-9.455-137.16-6.281-199.52-3.243-4.68.228-8.09 1.887-11.97-1.241-.02-3.279-.45-6.027 1.14-8.747 7.45-2.517 30.4-.806 40.67-2.064zm-65.01 339.829c3.13-.281 4.2-.627 7.09.37 3.7 5.524 1.2 16.357.37 23.3-26.88-1.345-81.32 10.955-108.9 18.057l-11.16 2.142c.34-6.659.25-14.308.33-21.049 38.26-13.277 73.54-15.602 112.27-22.82m109.98-237.776c3.84.48 8.89.315 12.85.322 38.21.066 76.39 1.847 114.59 2.181 8.9.079 16.8.041 25.62 1.41-.11 3.713-.75 8.476-1.14 12.253-7.63.069-19.1-1.312-27.01-1.872l-48.16-2.939c-7.9 1.308-157.85-.697-157.47-.445-.88-3.567-.95-4.06-.54-7.703 1.75-1.639 2.17-1.762 4.8-1.843 25.12-.778 51.43.578 76.46-1.364m-112.81 187.183c23.45.802 248.3 11.37 248.83 11.81 1.14 3.991.19 7.981-.43 12.099-5.53-.633-16.27-.792-22.43-1.215a2716 2716 0 0 1-54.74-4.476c-57.64-5.604-112.17-14.792-170.17-8.825-1.85-2.56-1.19-5.987-1.06-9.393m40.79-337.497c19.21 1.863 51.02.007 68.57 1.715 20.87 2.033 151.94 4.471 159.45 10.018l-1.57 1.719c-3.43 1.333-4 1.082-7.66.756l-1.07-.105c-2.33.251-23.36-.865-26.56-.997q-25.425-1.221-50.88-1.244c-46.87-.385-101.96 2.355-147.53.61-.2-3.779-.58-6.448.24-10.161 2.71-2.563 2.74-1.839 7.01-2.311M893.858 1216.43c.235.33.954 1.27 1.044 1.73 5.625 28.51 11.118 63.11 17.742 90.69 1.15 4.79-21.063 19.42-21.454 25.28-.432 6.47-7.378 9.23-11.617 5.53-1.939-18.44 5.903-8.08 13.627-13.64 5.698-4.1 5.421-39.25-1.736-43.95-2.855-1.88-6.036-1.67-9.164-5.04-2.236-8.42-1.357-18.54-3.003-27.13-2.042-10.64-3.62-14.21-2.259-25.15 4.152.74 7.987 2.13 11.788.81 3.191-2.33 3.683-5.27 5.032-9.13m-252.77-774.864c4.784-.561 7.323-1.45 11.072 1.464 1.718 3.713 1.079 9.156.959 13.499l-3.995-1.024c-11.165-2.946-23.979-2.295-35.407-3.264-53.765-4.558-101.949 9.071-154.848 14.757-4.214.624-10.201 1.83-13.951.385-.653-1.826.051-3.478.536-5.446 3.336-1.924 22.232-4.401 27.638-5.305 35.902-6.005 71.457-13.344 108.011-13.036 20.029.169 40.184-1.071 59.985-2.03m690.482 410.716 2.36.013c1.9 2.54 1.16 14.421 1.1 17.967-34.71 3.334-78.12 9.849-111.8 18.707l-2.21-.101c-2.09-2.82-2.7-11.737-3.25-15.717a8971 8971 0 0 0 113.8-20.869m-56.93 97.002 2.67.088c2.97 3.954 1.4 18.195 1.12 23.682l-66.21 19.117c-1.92.939-.9.808-3.17.09-1.09-4.303 2.15-19.919 3.08-25.185 19.34-7.341 42.15-14.265 62.51-17.792m241.34-506.305c-23.28-.195-57.38 5.99-79 5.261-14.19-.478-77.59-1.31-88.43-5.021-2.08-3.542-1.84-4.825.43-8.002 7.23-3.73 30.78.438 40.88.288 25.35-.377 50.71-1.568 76.03-.145 15.71.883 32.77 6.006 48.34 5.654l1.35-.039zm-247.76 570.191 1.2.1c2.64 2.88 2.4 23.65 3.79 31.01-16.76 4.59-33.42 9.52-49.98 14.76l-2.59.34c-2.28-3.79 1.01-26.29 1.58-32.69 13.86-5.21 31.65-10.11 46-13.52m-60.16 333.93c9.14-.01 42.98-.63 50 1.23 2.89 4.39 1.95 21.98 1.91 27.96-10.22-.4-41.41.65-48.81-1.57-3.2-4.66-2.89-21.31-3.1-27.62M661.317 489.573c12.273 3.287 35.928 4.072 52.18 7.858-.133 5.408 1.122 20.048-3.442 22.587-11.335-.609-42.732-1.384-51.052-8.795-.946-3.139 1.749-17.058 2.314-21.65M553.97 416.896c-18.92 4.711-38.318 13.612-56.289 18.98-15.716 4.695-67.89 17.29-82.046 14.899-2.703-2.531-2.077-2.839-3.005-6.886 2.013-2.262 18.701-3.823 23.196-4.883 16.07-3.793 32.159-7.63 48.312-11.05a3806 3806 0 0 1 69.35-13.316zm87.196-1.791.61.127c1.783 2.076 2.185 11.99 2.557 15.571-6.569.942-25.372 1.477-32.949 1.731-36.055 1.206-63.193 1.727-99.05 10.074l-2.567.045c2.067-2.022 9.659-4.842 12.784-6.129 32.756-13.488 67.711-12.76 102.146-17.808 6.143-.9 10.649-1.404 16.469-3.611m629.464 759.185c2.54-.13 2.36-.15 4.72.83 3.45 5.36 1.21 16.82.5 23.49-14.35 1.41-28.03 3.2-42.48 3.51-2.83.43-2.79.5-5.57.03-3.42-4.44-1.44-16.77-1.58-23.88 15.39-1.13 29.1-2.44 44.41-3.98m25.81-33.01 2.06-.16 1.35 1.4c1.02 5.43.43 13.88.25 19.63-.28-.03-.56-.07-.84-.1l-1.39-.14c-15.18-1.68-46.04 2.01-62.66 3.53-3.46.15-2.02.65-4.6-1.15-1.22-4.43.06-9.12.82-13.81 3.9-.29 7.75-.98 11.61-1.61 17.75-2.91 35.69-4.44 53.4-7.59m-54.42 146.27c6.6.74 19.84.05 26.87-.14-.23 7.13-.02 13.25.25 20.34-10.45.3-20.91.53-31.37.68-9.23-.63-18.67.03-27.91.48-.13-6.77.13-14.24.22-21.07 7.65.12 25.17.79 31.94-.29m25.44-203.32c2.65-.28 3.42-.6 5.79.65 1.31 2.69 1.45 3.25 1.26 6.16l-.57 10.29c-19.15 3.06-35.76 7.14-55.81 9.8-5.13-.29-4.24.59-7.09-2.16-1.7-3.84-.74-10.03-.43-14.48 16.21-4.07 38.93-6.48 56.85-10.26m45.19-164.817c1.41-.311 2.9-.194 4.38-.19l1.4 1.474c1.47 5.709.14 13.256-.85 19.119-29.37-4.226-37.46-5.373-66.54 2.799l-11.22 2.622V932.74c18.16-6.188 53.16-11.005 72.83-13.327m-9.62-86.062 1.45.477c.97 3.702.95 6.682-1.13 9.864-7.62 3.041-81.98 16.263-91.1 16.716-1.43-2.08-1.81-8.434-2.15-11.306a2051 2051 0 0 1 92.93-15.751M638.674 364.514c23.304 2.766 53.669 10.171 77.221 15.288l-.44 11.955c-3.712.377-13.139-1.222-17.23-1.782-18.982-2.595-41.098-5.27-58.019-14.822-1.984-3.001-1.494-6.826-1.532-10.639m864.516 88.002c9.6-1.518 89.9 1.043 98.72 3.223 2.79 2.267 2.33 1.2 2.82 4.11-2.72 7.658-14.5 3.584-20.99 3.089a809 809 0 0 0-33.97-1.602c-13.07-2.791-98.75-2.591-102.41-4.824 8.24-4.606 42.76-2.04 54.47-3.781zm-74.32-31.368c16.8-.649 44.92-2.964 60.49-3.655 14.77-.656 103.83 1.63 112.27 6.488-7.07 6.831-149.22-1.766-173.23-.866l-1.25-.393zm-250.25 142.287c6.17 3.657 39.46 34.154 45.92 39.979l-9.08 1.691c-11.82 3.052-19.86 5.786-31.13 10.262-1.15-16.807-4.57-34.289-5.71-51.932M657.797 410.891c21.382 8.317 41.183 14.744 63.41 20.299 1.404.351 1.764.838 2.611 1.877 1.076 3.423 1.359 7.329-1.741 9.528-17.035-2.109-35.331-3.068-51.593-8.872-3.641-1.3-7.253-2.37-10.955-3.449-.687-6.361-1.061-12.929-1.732-19.383m821.583-8.817c36.11.437 72.77-7.44 109.35-3.752 7.93.8 24.15-2.575 28.24 6.135-.51 1.53-1.01 3.111-3.04 3.415-32.76 4.903-98.85-6.547-128.78-3.805zM847.189 1109.94c9.675 1.66 19.475 2.12 29.268 2.65 12.939.71 15.791 14.35 13.791 24.93-11.935-1.86-31.238-2.83-43.762-3.86 1.07-10.03 1.238-13.68.703-23.72M621.548 334.591c11.434 3.8 23.887 3.888 34.628 7.38 15.009 4.88 29.759 13.26 45.25 17.495 7.147 1.954 14.252.448 20.538 3.169 1.305 2.945.598 3.03-.117 6.933-34.733-9.974-64.383-17.206-100.354-20.216-2.205-3.146-.558-10.931.055-14.761m722.382 49.431c16.49-.482 36.68 1.044 53.79 1.421 28.49.626 57.33.409 85.62 3.072 5.7.536 14.05.488 19.13 2.032l-.64.762c-35.89 1.681-71.68 3.615-107.41-.487-8.8-1.011-44.51-.927-49.74-3.532zm-6.91 235.009 1.54 1.198c1.02 4.478.47 11.091.3 15.891-15.2 5.196-29.73 11.596-45.61 16.811-1.69-5.833-2.16-8.889-2.99-14.95 11.37-6.459 33.74-14.106 46.76-18.95m-61.08 494.189c2.42-.05 1.36-.42 3.23 1.23.9 4.24-.12 11.62-.56 16.24-13.02 1-32.42 4.68-45.77 6.98-1.99.31-1.01.41-2.9-.74-1.04-4.54-.38-10.51-.11-15.31 11.17-.44 35.18-5.81 46.11-8.4m-7.23 98.29c2.06-.42 2-.29 4.08.22 1.88 3.78.67 8.67.17 13.27-18.25 1.1-37.36 1.15-56 2.18l-3.99.52-1-1.2c-.34-4.67-.27-5.46.51-10 1.58-1.48 49.22-4.36 56.23-4.99M665.173 443.348c3.684.46 13.721 3.779 18.254 4.78 10.549 2.328 19.49 3.193 30.257 4.304l.406 15.799c-22.604-.695-28.816-6.427-49.099-8.819.236-5.232.166-10.796.182-16.064M1209.1 1319.84c15.15.62 32.93.21 48.29.2.87 4.85 3.44 11.97-.39 15.31-10.01-.5-40.32 1.15-47.17-1.43-1.32-3.77-.81-9.86-.73-14.08m256-847.884c-6.03.324-17.5-.832-23.23-2.513 2.99-1.6 19.82-.38 24.33-.122 13.08-1.213 127.88 2.249 134.03 6.329l.11 1.65c-13.02 1.891-124.54-2.543-135.24-5.344M845.022 1145.68c9.412.49 19.486 1.71 28.933 2.7.121 5.68.762 18.42-.278 23.48-9.261.34-21.117-1.52-30.769-2.33 1.472-7.84 1.68-15.87 2.114-23.85m490.628-648.599c.4-.017 1.9.442 2.36.566 1.11 2.835.49 8.26.34 11.549-10.58 4.893-32.9 12.22-44.87 16.898-1.82-.005-1.22-.012-3.03-.82-1.53-4.355-.72-8.604-.35-13.317a501 501 0 0 1 45.55-14.876m-3.88 152.882c2.02-.125 1.56-.06 3.61.388 3.55 10.626-7.38 13.921-15.05 18.172-9.4 5.202-18.66 10.345-27.91 15.831l-1.2.463c-1.78-2.196-2.45-13.954-2.88-17.762a941 941 0 0 0 43.43-17.092m-2.21-251.196c1.51 2.254 2.44 17.228 2.85 21.022-10.84 6.754-21.41 13.081-31.46 21.001-3.19-3.711-2.05-14.425-1.9-19.887 10.23-7.048 20.42-14.793 30.51-22.136m-709.478-19.585c1.458-.369 1.003-.223 2.633.101 1.005 2.636 1.112 8.433 1.308 11.499-22.539.309-75.747 14.578-98.726 19.938l-3.041-.217c3.527-3.402 87.015-28.487 97.826-31.321m813.458-4.065c-9.95 1.094-88.53-1.789-91.26-6.137 2.26-2.318 8.83-4.182 11.87-4.083 31.92 1.044 63.92 6.056 95.73 8.315 3.29.166 6.59.297 9.87.588l5.23 2.249c-9.31.15-22.4.246-31.44-.932m-807.334-59.833c17.255 8.571 57.671 19.121 76.973 24.969 5.894 1.786 24.996 4.527 27.902 7.243l-.339 3.236c-23.127 1.881-48.514-12.611-70.021-19.665-9.688-3.177-30.474-5.246-36.104-7.486-.638-2.469.783-5.712 1.589-8.297m638.084 945.356c1.83-.38.86-.35 3.09.99 1.47 3.48.73 9.23.54 13.31-10.96.22-24.72.84-35.44.45-3.05.28-3.72.59-6.34-.69-1.98-2.88-1.29-7.64-1.22-11.46 13.11-1.08 26.24-1.94 39.37-2.6m63.19-689.604 1.82.718c2.49 7.756-.57 11.637-7.4 15.133-9.1 4.655-19.35 7.831-29.04 11.089l-2.36-.741c-.71-2.465-1.28-7.098.07-9.096 5.76-8.547 27.47-14.048 36.91-17.103m6.29-137.19c1.96 2.462 2.07 10.696 2.38 14.436-11.48 7.6-23.28 14.402-34.41 22.608l-.68-.297c-1.43-2.507-.97-10.454-.95-13.764 11.52-8.28 21.63-15.314 33.66-22.983m-73.2 803.664c3.21-.2 4.17-.46 7.18.43 2.92 2.83 5.01 3.98 3.29 7.97-5.14 4.57-29.23 3.83-37.87 4.21l-6.35.63c-3.35-1.6-2.22-.87-4.51-4.23-.38-3.88-.77-2.41 1.16-5.6 6.31-3.06 27.95-2.67 37.1-3.41m70.23-641.506c1.69 3.638 1.24 8.532 1.25 12.732-11.95 5.145-26.09 9.995-38.56 13.661-.19-3.284-1.3-7.619-2.02-10.923 12.96-6.213 25.96-10.205 39.33-15.47M969.454 425.598c9.776 6.638 21.81 17.528 33.906 25.678l-8.205 7.926-8.636 8.061c-7.861-16.023-12.373-24.369-17.065-41.665m303.866 561.63.73.12c1.77 2.742 1.24 7.849 1.37 11.699-13.86 2.423-28.18 6.863-41.72 10.783-1.06-.17-.72-.23-1.79-1.26-.04-6.73-.07-8.32 6.83-11.294 10.68-4.605 23.34-7.38 34.58-10.048m-388.31-415.52.604.166c4.038 4.331 15.396 32.009 16.879 39.016-1.824 1.129-6.234.2-8.656-.075l-1.588-.155c-3.362-3.998-16.785-32.721-16.928-37.316 2.526-2.04 6.176-1.564 9.689-1.636m379 487.462 1.43.65c1.45 3.79.93 8.33.84 12.52-14.49 2.65-29.03 5.06-43.6 7.23l-1.21-.67c-.89-2.92-.77-1.39.23-4.73 3.67-4.44 35.03-13.07 42.31-15m69.17-536.253 1.59 1.088c.33 3.673.38 7.012.44 10.682-13.55 4.856-26.2 10.481-40 15.172-1.65-1.757-1.9-7.988-2.23-10.789 14.85-5.153 25.9-9.878 40.2-16.153m-252.14-89.912.81 1.392c-3.13 5.245-18.89 30.286-23.17 32.472-3.33-.701-4.54-2.744-6.9-5.369l-8.38-8.948c13.07-7.131 24.57-11.441 37.64-19.547M866.516 1183.39c5.078.98 12.959 1.78 18.293 2.51.179 7.25-.561 19.76-1.293 26.93-4.422-.98-12.082-1.73-16.79-2.34-.28-4.34-.691-23.8-.21-27.1M667.421 400.756c-2.567-.787-29.418-10.463-30.138-11.02l.24-2.281c4.714-.414 23.801 8.663 30.528 10.946 6.345 1.02 41.697 4.679 44.269 7.437a928 928 0 0 1-.758 12.019c-11.61-4.248-34.407-11.858-44.141-17.101m674.269 269.207c2.75 3.725 2.72 12.315 2.97 16.983-10.03 2.213-22.67 5.078-32.74 5.95-1.93-1.126-3.55-2.393-5.33-3.718l.25-1.179-.43.503c5.97-4.406 28.3-15.607 35.28-18.539M659.024 546.53c7.862 1.438 13.89 2.353 21.863 3.225.377 6.758.597 12.186.47 18.998-4.54.961-17.653-3.328-22.538-4.816-.222-6.214-.069-11.181.205-17.407m3.953-20.591c13.606 2.825 29.138 2.959 42.061 6.216 1.737.438 2.115 3.76 2.66 5.801-11.88-.442-34.371 2.697-43.162-2.464-1.807-2.808-1.456-6.06-1.559-9.553m234.182 39.322c12.245 4.279 15.381 20.406 20.855 31.219 1.115 2.204-.542 3.637-1.75 5.458-1.647 1.99-1.602 3.328-4.03 4.743l-.724-.398c-3.513-14.717-10.774-26.636-14.351-41.022m-209.06 68.738c3.998.599 8.088.57 12.142.67-.101 4.104.569 22.062-.566 24.265l-12.661-1.05a560 560 0 0 1 1.085-23.885m537.411 301.108c1.83-.294 1.82-.159 3.65.329 1.78 3.514 1.08 8.543.96 12.732-5.47 1.11-12.03 3.199-17.49 4.777-1.99.55-1.23.521-3.25-.048-1.56-3.938-.66-8.747-.32-13.161 4.8-1.056 11.58-3.234 16.45-4.629m105.33-564.082c1.84 3.054 1.28 8.512 1.28 12.399-6.7 3.536-17.01 11.43-23.62 16.19-.55-3.238-.92-6.64-1.34-9.91 6.59-5.846 16.52-13.121 23.68-18.679m135.67 112.449c3.2-.304 22.21.33 25.38.9 12.78 2.294 89.12 1.964 94.82 6.173-4.42 2.338-112.17-4.131-120.2-7.073m-139.37 67.542 1.72 1.006c1.1 3.39 1.23 1.838.05 4.827-5.16 3.614-28.69 11.239-35.4 13.56l-1.59-.276c-1.1-2.894-1.11-1.513-.24-4.274 6.35-5.33 26.61-11.727 35.46-14.843M685.228 669.887c4.388.114 11.103-.264 14.602 1.821 1.871 2.195 1.918 2.391 2.292 5.25l1.21 9.016c-6.634-.044-9.751-1.239-18.429-.857q.022-7.618.325-15.23M568.563 412.068c28.681-6.365 44.786-11.096 74.249-8.507-10.747 1.686-21.34 3.681-32.083 5.276-11.23 1.667-24.665 2.284-35.647 4.428zm99.706 57.618c9.099 2.169 12.349 5.835 20.247 8.38 4.574 1.474 17.585-.417 22.256 2.961v1.452l-1.852 1.554c-8.863-1.197-36.879-3.013-43.269-6.334zM885.94 1150.53c2.792.11 4.489-.16 6.64 1.55q1.056 14.445 2.392 28.86c-3.573-5.7-10.702-7.91-9.747-15.58.61-4.89.61-9.89.715-14.83"/><path fill="#cac9cc" d="M1394.43 422.974c-11.34.096-41.43.656-50.05-3.999 2.39-1.367 46.03 2.467 52.48 2.813 10.9.584 20.72.487 32.01-.64l-1.72 1.574 1.25.393c-6.78 1.459-27.17 1.401-33.97-.141"/><path fill="#434244" d="M1394.43 422.974c10.45-.632 22.15-.322 32.72-.252l1.25.393c-6.78 1.459-27.17 1.401-33.97-.141"/><path fill="#fefefe" d="m1310.43 479.887 1.31.103c1.67 1.173 1.49 1.263 2.21 3.227-1.01 8.58-4.6 9.927-11.96 11.689l-1.26-.75c-1.57-4.018-1.47-2.351-.63-6.337 2.72-3.809 6.3-5.519 10.33-7.932m59.06-75.682c-4.88.338-23.18 1.138-26.57-1.741l.91-1.632c9.8-1.571 31.51 2.114 43.05 2.311l1.2.015c-5.95.395-12.7 1.006-18.59 1.047M866.831 584.807c2.551 2.516 8.515 14.249 8.417 17.632-11.233-1.981-12.547-8.405-8.417-17.632"/><path fill="#969698" d="M444.066 425.442c2.271-.605 5.803-.525 8.174.023-14.607 2.82-16.705 3.279-32.482 3.978-4.394.511-5.406.435-9.817-.087 5.028-1.895 27.727-3.394 34.125-3.914"/><path fill="#5e5e60" d="M1568.5 440.52c.52-.061 1.04-.115 1.57-.161 7.19-.578 22.66-1.015 30.29.004l2.67 2.233c-7.94 1.717-26.14-.642-34.53-2.076"/><path fill="#fefefe" d="M675.726 580.367c2.405.163 2.273.061 4.341 1.261 2.597 6.439 2.427 11.855 2.927 18.811-4.942-3.866-5.88-13.476-7.268-20.072m6.655 32.493c3.694.151 5.122-.368 7.192 1.776.023 3.499.277 4.825.947 8.278-3.16-.241-4.889-.085-7.618-1.53-1.525-3.297-.809-4.563-.521-8.524m272.734 26.59c5.315 2.537 11.331 8.784 15.127 13.268-3.387.402-4.475.802-7.609-.22-2.946-2.621-5.396-9.132-7.518-13.048M213.394 483.51c3.511.755 4.534.651 6.992 3.016 1.124 3.186.777 3.542-.308 6.956-3.668.787-3.984.589-6.381-1.766-1.031-3.715-.87-4.359-.303-8.206"/><path fill="#969698" d="M1459.75 373.8c10.15.787 23.73 2.42 33.61 4.5l-.3.411 2.01.268c-4.8-.348-26.52-1.668-30.09-2.93z"/><path fill="#fefefe" d="M869.486 1084.45c3.893 3.57 5.479 10.12 6.765 15.1-9.4-1.4-7.205-6.5-6.765-15.1"/><path fill="#434244" d="M1388.08 403.158c5.53-.718 11.37-.162 16.97.17-8.3 1.597-27.59 3.204-35.56.877 5.89-.041 12.64-.652 18.59-1.047m97.07.909c-5.27.201-15.22 1.07-19.43-1.508l1.06-.314.54 1.215.75-1.343c3.97-.123 7.33-.153 11.31-.043z"/><path fill="#969698" d="M553.488 414.64c4.678-.937 10.391-2.251 15.075-2.572l6.519 1.197c-9.149 1.177-11.998.893-21.112 3.631z"/><path fill="#434244" d="M1546.41 439.486c8.59-1.174 12.32-1.044 20.65 1.158-7.36.806-13.42.669-20.65-1.158m-120.67 16.068c4.91-.468 7.08-.951 11.85.351-1.91 1.667-2.14 1.162-5.22 1.556a471 471 0 0 1-11.63-1.028zm89.84-14.579c3.81-.073 8.34-.641 11.55.959-2.59 1.527-8.09 1.294-11.15 1.045z"/></svg>