<svg xmlns="http://www.w3.org/2000/svg" preserveAspectRatio="none" style="display:block" viewBox="0 0 2048 1462"><path fill="#fefefe" d="M0 0h2048v1462H0z"/><path d="M574.22 70.562c43.819 2.008 84.305 6.813 127.747 12.783 8.614 1.183 20.176.577 29.586 1.697 18.5 2.201 37.03 4.44 55.573 6.226l392.784 35.712c9.13.843 18.92.597 28.19 1.321l112.3 9.371c19.22 1.446 41.22 1.563 59.91 3.736 33.47 3.891 66.83 5.638 100.21 9.144 27.32 2.869 55.16 7.403 82.53 10.31 44.45 2.156 88.54 6.362 132.07 15.959 5.69 1.254 6.56 7.39 4.03 12.15-8.73 6.909-49.25-2.381-61.98-3.975-33.06-4.142-65.67-6.903-98.82-9.679l-595.967-55.194c-14.351-1.31-29.021-1.226-43.472-2.319-73.597-5.57-147.161-11.132-220.562-18.854-11.265-1.185-69.927-11.825-74.279-7.462.749 3.858.37 15.686.511 20.354.743 24.559-.805 48.823-1.334 73.437l-2.458 213.229-.761 64.196c-.042 5.477-1.289 10.666-.984 15.261 2.39.643 5.489-3.19 7.742-5.054 27.154-22.474 60.115-41.802 95.388-47.397 14.476-2.296 55.073-6.722 67.085 2.021-.026 2.58-.453 2.717-1.985 4.795-6.413 4.277-18.933.439-27.13.726-90.7 3.176-156.916 72.75-210.517 138.517-2.796 3.43-5.631 7.353-8.568 10.618-43.44 48.395-78.469 102.192-105.546 161.31-6.614 14.439-18.13 31.488-23.439 45.969-18.821 51.343-28.113 106.82-28.457 161.454-.02 3.215.485 5.076 2.733 7.047l1.771-.586c4.289-6.887 2.676-27.244 3.871-36.554 5.819-45.351 15.046-92.536 32.7-134.853 12.574-32.107 32.142-61.801 47.999-92.138 16.586-31.732 31.848-52.127 54.221-79.503 34.588-42.324 67.069-85.566 110.278-119.938 45.459-36.16 87.026-57.507 146.224-51.764-3.101 7.725-5.565 13.883-7.975 21.898-25.754 3.05-55.449 13.933-68.991 37.458-7.043 12.234-18.128 34.033-18.587 48.039l1.026.843c7.568-5.513 15.275-29.338 21.421-39.272 10.401-18.369 26.187-28.763 46.495-33.8 5.464-1.355 22.101-2.823 25.109-7.615 3.933-6.267 6.614-16.285 9.485-23.538a160 160 0 0 1 10.26-21.328c7.082-12.311 16.683-26.634 31.457-30.303 14.453-3.633 35.238-.305 41.062 15.853 8.736 24.237 7.559 54.891 13.754 79.757l.318 1.245c10.237 10.431 26.859 14.457 39.28 25.298 19.032 16.611 18.211 43.73 21.729 66.858 1.366 8.985 4.224 17.964 4.846 26.898-7.292 15.086-87.997 7.462-104.277 4.127-25.032 14.723-38.378 13.408-64.517 2.24-1.689 10.342-4.535 91.605-2.977 99.57 8.206 5.239 123.168 4.998 137.384 2.639 1.735-1.392 2.613-1.52 2.859-3.979 2.936-29.392-.026-61.927 3.678-90.874 14.294 1.621 23.627-.711 36.209-7.988-1.959-31.712-3.984-77.401-24.017-103.248-9.021-11.639-40.541-21.398-42.117-29.198-3.852-19.067-5.065-41.855-8.449-61.269-5.724-32.842-22.073-42.582-54.267-35.861-19.976 4.328-30.375 17.691-40.938 34.073-37.735-9.932-44.004-8.082-80.103-.454l-.545-1.141c6.869-33.656 12.73-214.359 25.506-227.978 14.009-3.49 64.268 2.369 82.233 2.794 10.102.239 28.701.582 39.018 1.163a3443 3443 0 0 1 136.438 10.48c12.83 1.221 41.139 2.858 52.229 5.78 1.84 2.588 2.62 3.373 2.44 7.07-1.04 20.64-3.87 42.23-5.87 62.798l-13.46 136.77a4361 4361 0 0 1-10.844 106.049c-3.838 33.912-8.386 67.396-11.734 101.509l-12.248 122.787c-2.233 20.54-4.823 41.389-7.476 61.901-.687 5.312-.925 6.203-4.143 9.678-11.197 1.184-41.644-4.372-54.626-6.122l-75.366-9.577c-47.521-6.296-95.658-10.231-142.842-18.82-5.288-.963-23.199-3.889-25.835-7.705-7.039-10.192 6.899-172.254 8.893-195.871-5.488-2.438-15-8.085-18.488-13.024-7.048-13.179 7.877-48.57 14.22-60.981 11.144-21.805 13.248-20.305 16.426-44.808-21.404 9.004-74.989 50.491-92.455 68.424-1.33 56.095-3.076 113.585-3.701 169.594l-.114 53.147c.041 15.811 1.111 33.192-2.467 48.409 16.517-.075 37.181 3.07 54.206 4.633 43.365 1.507 82.506 6.664 125.147 10.925a6195 6195 0 0 1 264.757 30.707c.54-5.178 1.01-10.362 1.43-15.55-50.739-29.77-51.418-160.357 34.09-165.181 4.93-3.538 10.51-8.863 15.91-12.936a105.6 105.6 0 0 1 61.21-21.845c42.4-1.506 76.04 11.584 107.9 38.977 36.89 31.717 39.46 74.507 52.04 118.149 6.89 23.901 28.13 48.357 5.65 71.843 9.16.003 17.15.081 26.26 1.002 6.32.64 17.22 2.914 23.04 2.693-1.94-9.84-25.54-12.534-33.32-12.396 10.4-34.12-4.02-39.495-11.37-68.369-10.95-46.009-15.48-88.579-53.89-121.593-54.48-46.827-145.55-59.367-197.71-1.606-.3-19.839 3.74-47.951 5.42-68.451 1.98-24.669 4.2-49.317 6.67-73.942 1.37-14.957 2.81-51.255 11.03-62.328 6.77-3.691 35.07-.524 43.77-.985 41.18-2.182 82.04 1.877 123.18 4.065 47.65 2.256 95.28 5.113 142.86 8.57 53.57 4.266 106.98 11.273 160.64 13.8 14.22 1.254 28.45 3.547 42.46 6.187 12.35 2.327 18.39 1.496 17.91 16.107-.41 12.488-1.62 24.376-3.35 36.71-5.76 41.134-6.6 82.263-8.53 123.653a4192 4192 0 0 1-5.08 79.211c-3.58 49.786-11.5 101.526-16 151.484-.27 2.95-1.36 6.865-3.52 8.97-12.65 4.149-114.83-.108-134.68-.941 49.61 27.548 99.75 84.706 134.46 129.347 19.57-81.082 101.23-216.836 188.95-238.059 48.95-11.842 89.7 5.408 124.93 39.39 28.17 22.288 40.6 39.196 49.77 75.259 31.31 123.07-8.04 256.48-43.1 374.81-5.99 20.18-33.66 98.66-42.72 112.78-35.23 2.61-80.69-.35-116.71.3l-332.27 5.71c-12.81.33-26.33 1.86-39.27 2.51l-93.17 4.04c-46.23 1.84-93.41 1.84-139.75 3.6-41.78 1.9-83.6 2.78-125.43 2.64-19.875-.23-57.861.25-75.611-6.35-44.722-16.61-91.125-36.51-135.29-54.78l-124.955-50.61c-33.371-13.81-66.181-28.59-99.336-42.87-33.464-14.42-67.314-28.17-100.671-42.83a2829 2829 0 0 1-73.588-33.72c-17.683-8.5-34.223-17.23-52.289-25.06a13184 13184 0 0 0-133.257-57.01l-53.573-22.37c-6.799-2.84-28.586-11.03-31.793-15.2-10.656-13.86 43.275-24.31 50.989-26.36l65.856-17.75c6.203-1.68 20.442-4.92 25.168-7.87-12.126-10.67-5.873-46.218 4.951-57.778 15.654-16.72 50.495-33.472 73.333-35.185 2.474-13.971.709-21.409 4.65-37.053-39.362 8.4-76.782 21.417-115.51 32.136-39.127 10.829-78.167 22.211-117.182 33.437-8.253 2.375-17.608.373-13.873-10.078 6.21-6.997 43.692-16.404 53.988-19.433l83.692-24.229c33.855-9.843 76.251-25.365 111.262-30.471 9.971-49.208 19.375-79.363 43.72-123.211-24.064 6.499-143.219 35.896-160.288 26.321-6.368-10.543-6.432-70.208-6.831-86.12l-2.596-79.963-6.595-204.609c-.499-17.455.622-38.372.961-56.045l1.181-88.165c.634-40.289.061-80.832 3.247-121.026.719-9.072.978-18.502 2.447-27.476.554-3.384 1.578-6.519 4.196-8.88 8.558-7.72 221.118-18.143 251.614-20.074 28.375-1.797 56.163-5.04 84.623-5.676"/><path fill="#fefefe" d="M1305.49 876.951c9.63.317 17.77.836 27.3 1.703 98.53 8.966 176.38 90.85 234.65 164.656 49.24 64.26 84.53 145.35 107.47 222.67 5.42 18.24 23.22 99.14 21.47 114.6-1.81 1.76-5.51 1.92-8.07 2.01-59.88 2.24-119.73.55-179.56 3.42-60.45 2.28-121.02 2.57-181.49 4.37-27.62.82-55.11 4.04-82.76 3.75.22-11.22-1.29-36.8-2.66-47.92 1.42-2.56 3.02-5.04 4.5-7.56 39.87-67.68 84.35-204.14 64.27-281.24-9.77-37.53-39.72-92.344-73.97-112.091-11.39-6.566-20.47-7.979-33.13-4.543 20.26-17.452 32.12-27.956 55.61-40.64 10.8-5.835 39.4-17.249 46.37-23.185"/><path fill="#fefefe" d="M1216.54 950.166c23.93-.799 64.7 67.034 72.54 87.824 23.51 62.32 4.92 133.27-14.58 194.71-11.54 36.46-37.98 118.21-78.48 131.73-69.72 23.29-203.888-29.85-264.662-56.42-16.831-8.26-34.524-16.54-50.18-26.75 1.54-4.72 2.325-10.56 3.786-15.77 6.256-22.32 14.109-45.47 29.732-63.09 32.503 5.39 63.909 14.69 95.504 23.86 30.02 8.71 60.31 14.87 90.53 22.19-5.22 9.03-24.16 20.52-19.63 27.5 2 1.03 3.35 1.17 5.57.68 41.96-9.26 68.6-145.1 75.67-183.07 6.82-36.58 10.35-100.521 30.09-131.344 5.08-7.918 15.45-10.139 24.11-12.05m-501.24-25.48c9.597.726 19.767 4.368 29.328 6.084 34.458 6.185 67.485 16.112 102.226 20.901 33.972 4.683 67.572 10.492 100.89 18.702 11.982 2.953 25.265 4.483 37.5 7.112-16.191 15.067-42.418 49.895-55.81 60.405-33.279 3.6-38.286 9.01-55.144 36.11-26.498-7.05-31.226-6.35-57.872-9.76 6.666-12.85 17.524-25.48 25.8-37.89 18.716 4.95 37.895 5.26 54.661 10.16 8.055-13.75 21.596-31.21 30.751-46.026-4.707-7.728-55.21-16.394-64.929-18.421l-79.554-16.303c-18.596-3.637-41.169-10.075-59.435-12.142-4.301 7.241-14.148 17.081-19.84 23.553-16.756 19.051-33.951 36.429-52.582 53.599-2.957 2.73-11.808 12.26-11.853 15.94 11.127 6.08 123.165 26.51 141.552 29.99 4.464.65 9.886 1.33 14.207 2.43 25.132 6.4 50.41 7.07 75.271 14.65-3.58 10.3-16.532 44.28-2.721 51.91 7.282 4.03 15.71-6.93 22.475-6.04 1.786 6.06-5.056 10.14-.162 16.12 10.548 2.71 10.382-7.59 16.588-13.25 1.689 1.92 3.029 3.26 4.864 5.03 8.064 1.67 7.72-4.26 13.574-7.26 6.581-3.37 15.302-5.73 22.433-8.05-6.723 10.18-42.16 52.14-51.067 59.61-16.379-10.51-63.266-28.71-82.756-35.97-14.5-5.4-42.252-9.53-54.27 2.33-4.876 4.81-10.858 10.58-16.951 13.8l-1.293.67c-33.341-3.53-77.545-12.25-111.33-18.12l-159.17-27.27c21.448-14.09 44.631-27.98 65.643-42.54 44.482-30.81 86.897-65.21 127.386-101.067 18.999-16.828 35.614-29.006 51.59-48.997"/><path d="M778.861 1088.57c3.999.86 3.087.04 5.076 2.65-1.49 11.88-40.245 47.89-51.253 57.09l-2.727-.85c-2.625-2.91-2.118-1.55-2.481-5.14 15.478-14.63 38.559-43.14 51.385-53.75m-170.253-29c.66.2 2.34 1.1 2.92 1.4.527 1.58 1.158 2.41.549 3.78-5.417 12.21-44.622 45.99-54.573 51.85-2.967-.81-3.345-.98-4.662-3.55.883-7.25 40.432-37.59 46.679-45.44 1.231-1.55 7.157-6.44 9.087-8.04"/><path fill="#fefefe" d="M580.835 814.763c16.821 8.805 81.835 11.459 103.525 13.277l142.139 12.756c67.729 6.71 138.612 17.822 205.741 22.391-4.48 28.725 6.68 28.986 30.73 26.595 6.41 13.533 14.28 29.816 23.65 41.444 27.45 34.044 52.56 16.319 78.83-4.168 6.04 5.715 15.68 13.309 22.2 18.781-7.33 9.81-11.01 15.841-16.98 26.359-30.66-8.246-61.46-18.54-92.12-26.87-16.27-4.42-35.69-6.876-52.15-10.977-16.73-4.167-34.019-9.213-50.659-13.888a3104 3104 0 0 0-88.065-29.492c-24.181-7.657-66.112-20.406-87.728-30.57-42.939 14.686-88.892 24.636-131.942 39.374-59.895 20.505-119.463 40.956-180.321 58.589-20.346-30.683-68.984-39.425-103.11-41.44a1496 1496 0 0 1 6.999-40.995c17.488-5.863 45.067-12.867 63.382-18.087a1662 1662 0 0 0 102.503-31.801c8.141-2.752 18.383-4.495 23.376-11.278M479.602 391.215l1.702.126c3.649 5.931-2.019 76.283-1.582 90.42.282 9.139.33 45.803-1.228 53.05-5.748 2.813-59.215 10.65-68.971 12.32-11.156 1.909-28.098 5.585-39.447 7.579-4.581.71-9.28 1.09-13.902 1.54.592-48.967-2.707-98.829-2.403-147.915 30.161-3.046 58.762-5.897 88.61-11.312 12.468-2.262 24.426-2.462 37.221-5.808m-.768-145.749c1.568-.256 2.446-.13 4.024-.076 3.365 5.9-.815 115.227-.979 133.468-11.229 2.554-25.835 4.058-37.671 5.876a1418 1418 0 0 1-88.26 11.613l-1.32-.62c-3.479-9.479-.92-127.784-.45-142.651 44.625-4.112 80.258-5.495 124.656-7.61m3.671-150.948 1.747.187c2.429 5.719-.82 58.095-1.099 67.554-.682 23.177.658 47.34.253 70.397-42.777 2.696-85.415 4.908-128.083 8.599-1.421-6.112-.907-20.527-1.186-27.499-1.495-37.291 3.283-74.551 2.051-111.634 12.801-1.918 25.788-1.754 38.769-2.655a1948 1948 0 0 1 87.548-4.95"/><path fill="#fefefe" d="M705.663 902.149c12.897-.57 27.698 2.907 40.567 4.814 36.805 5.388 72.699 14.682 109.148 21.944 22.167 4.96 44.907 5.325 67.09 9.355 19.177 3.484 38.377 7.865 57.583 11.26 24.039 4.249 47.459 7.492 71.059 13.971-8.25 16.812-39.4 59.087-51.713 76.457-6.414.58-17.698.26-24.521.25 8.803-15.4 41.334-49.659 46.374-61.862-.1-5.035-3.39-8.054-8.33-8.504-35.059-3.194-68.301-11.684-102.651-18.603-28.55-5.75-59.357-8.009-87.893-13.389-35.54-6.702-74.992-19.766-111.102-22.617-19.523 20.93-33.834 32.287-55.487 50.852-39.994 34.293-82.188 70.413-125.406 100.503-7.415 4.19-70.72 46.68-73.173 50.21-.982 1.42-.863.85-.479 2.54.679 2.99 2.722 4.98 5.52 6.08 6.83 2.69 14.661 3.81 21.86 5.28 22.438 4.57 44.706 7.14 67.232 10.75 45.124 7.23 90.037 15.81 135.204 22.92 8.014 1.26 40.337 4.55 45.115 7.66.746 3.55-.495 4.66-2.042 8.59l-8.734 4.99c-22.977-3.55-46.042-8.83-68.893-12.45-39.567-6.26-80.444-10.95-119.604-19.29-41.908-8.93-83.471-20.48-124.798-31.11 5.79-4.58 12.683-8.88 19.002-12.7 84.287-50.94 161.334-112.036 238.25-173.222 13.303-10.583 26.093-26.294 40.822-34.679m-231.51-353.946 3.893-.254c2.822 4.633 1.044 55.933.559 65.198-23.582 32.383-50.164 73.006-67.344 109.38a2025 2025 0 0 1-52.987 12.03c-1.796-3.059.201-27.148.084-33.03-.897-45.136-2.906-87.759-2.097-133.148 6.234-1.324 13.105-1.551 19.038-2.837 31.652-6.858 67.818-9.75 98.854-17.339m562.757 211.298c1.95.874 26.91 32.053 31.82 36.988-5.32 1.405-14.67 2.781-13.81 10.041 6.08 5.626 14.51.553 20.85-2.256 20.15 14.923 41.74 22.554 66.88 22.679 3.95.02 6.29.832 10.08 1.509 11.92-6.473 2.27-19.996 29.78-16.176 21.12 20.007 10.21 33.271-9.04 46.377 21.77 25.452 59.07 24.704 89.59 22.687-5.06 1.988-9.88 4.9-14.62 7.587-22.82 12.697-36.42 26.481-53.09 46.254-3.43-3.063-25.01-24.981-27.9-23.581-20.09 9.751-27.32 22.211-51.52 24.377-27.93-18.428-28.7-38.766-46.58-62.057-5.89 1.807-18.64 6.389-24.01 2.445-2.89-11.422 1.48-40.661-.67-54.639-3.14-20.414-5.16-41.719-7.76-62.235"/><path d="M1115.32 883.424c15.14 9.337 2.93 17.634-5.89 25.958-2.13-.026-2.86-.238-4.93-.6-6.46-6.174 5.83-21.084 10.82-25.358m-40.27-55.605c13.01.349 13.88 12.583 6.88 21.418-3.38.251-4.2.585-7.13-.803-6.66-6.604-5.89-13.986.25-20.615"/><path fill="#fefefe" d="m569.072 705.028.637.175 1.187 1.213c.862 28.049.078 70.378.126 97.083-12.483 2.644-39.001 13.402-52.82 17.718a5773 5773 0 0 1-118.876 34.668l-2.267-.457-.612-1.774c11.004-45.346 23.594-76.745 47.405-117.648a130 130 0 0 1 12.489-2.745c39.122-6.678 75.393-14.765 112.731-28.233M340.378 570.281l1.398-.052 1.518 1.602c1.934 5.181-.076 8.436.082 13.655l.817 36.074c.854 39.252 3.468 77.259.624 116.488-12.089 1.667-26.615 5.526-38.771 8.265a634 634 0 0 1-44.813 8.369c-2.565.477-2.692.357-5.186.069-1.887-3.099-4.853-155.688-4.865-170.713 4.808-.576 10.076-1.185 14.803-2.155 24.663-5.062 49.354-8.79 74.393-11.602m-2.83-160.743c2.972-.585 1.74-.913 3.926.438l1.232 71.039c.654 26.637 1.78 51.26 1.124 78.029-19.903 2.481-38.998 3.837-58.802 8.126-7.942 1.72-26.574 6.378-34.123 5.454-2.346-18.188-1.229-37.115-2.558-55.447-2.322-32.016-1.393-64.441-2.792-96.424 33.45-4.012 57.272-9.772 91.993-11.215m-5.157-154.963c3.516-.439 6.162-1.18 9.376.079 1.239 4.485-.014 35.241-.265 41.452-1.372 33.936.643 67.381.118 101.288-36.412 2.008-60.643 6.942-96.634 13.134-1.326-24.307.889-55.882.854-80.918-.019-14.296-.926-59.419 2.007-70.551 3.303-1.472 74.353-3.76 84.544-4.484m-4.962-150.984c6.119.163 10.253-.371 16.374-1.071.635 26.88-.577 50.301-1.652 76.96-.822 20.378.378 41.699-.222 62.287-26.548 1.714-55.519 3.291-81.682 5.909-4.543.079-9.048.831-13.561 1.445 1.473-37.471-.43-76.613 2.02-114.263.564-8.669 1.5-17.619.421-26.225 18.83.253 56.696-3.848 78.302-5.042m223.779-15.039c4.714 1.531 26.294-3.328 34.559.196 1.832 3.492-1.539 123.317-2.206 136.043a1109 1109 0 0 1-52.805 5.475c-13.328 1.073-22.442 2.097-35.833 1.611.479-22.043-.313-44.733.365-66.642.767-24.776 2.173-46.991 1.812-71.988a1059 1059 0 0 0 54.108-4.695m25.037 288.802c2.808-.395 5.136-.865 7.248.466 1.863 22.271-2.589 50.449-1.259 73.31.628 10.797.241 25.833-.564 36.315-.9 11.714-14.951 26.88-25.136 31.717-6.521 3.213-14.14 2.733-21.111 4.431-14.386 3.601-28.526 7.74-43.225 9.873-.601-3.316-.568-22.012-.632-26.294-.589-39.491 3.499-78.868 2.867-118.439zm6.781-139.892.898 1.057c.846 10.759.097 39.098-.196 50.876-.492 19.772 1.419 55.38-1.032 73.969-2.818 2.871-69.719 10.669-78.758 11.915l-10.153 1.327c.893-41.041 3.168-91.821 2.214-132.219 29.069-1.471 58.09-3.78 87.027-6.925m199.388 914.828c21.684-4.08 100.076 33.12 121.503 43.79-17.396 22.03-34.019 52.49-34.073 81.1-4.821-2.38-9.922-4.9-14.577-7.56-35.238-20.19-73.494-39.16-111.381-53.61-8.098-2.68-13.869-5.65-20.969-10.27 4.916-3.02 6.569-3.56 12.034-5.49 13.79 2.04 27.883 8.7 41.197 8.92 1.772.03 2.331-1.34 3.146-2.54l-.616-1.82c-6.059-6.03-32.473-13.55-41.581-15.83 23.259-10.15 45.506 7.96 55.239 2.4l.578-2.29c-2.849-10.54-38.175-16.15-48.068-15.26 29.097-17.74 54.831 9.08 65.317.95 1.458-12.16-33.985-17.6-43.885-18.12 6.155-2.4 9.559-4.15 16.136-4.37M383.153 929.764c33.781 1.07 70.314 8.791 94.602 34.016 8.002 8.31-1.776 13.968-7.908 18.143-37.58 25.587-78.462 25.577-121.605 17.336-24.81-4.323-46.971-12.304-65.194-30.562 17.413-21.45 44.323-28.082 68.666-36.886.036 7.155-1.055 27.19 3.569 33.56 8.038 11.075 23.768 5.784 25.559-8.388 1.014-8.019 1.559-18.254 2.311-27.219m1522.577-62.048c20.8 18.106 33.68 101.117 33.14 128.466-2.62 132.478-43.7 261.408-90.3 384.198-.65 1.72-1.72 1.51-3.32 1.89l-17.76-.08c13.32-29.09 23-59.64 33.71-90.6 42.04-121.59 75.93-256.66 53.98-385.68-2.18-12.818-6.43-25.615-9.45-38.194M572.772 552.763c3.252 3.604.327 47.607.021 55.562a1764 1764 0 0 0-.993 79.486c-4.603.627-9.625 1.818-14.068 3.166-21.042 6.383-42.037 11.452-63.489 16.249-1.893-.28-1.039.046-2.462-1.257q-.04-26.83.271-53.658c2.718-3.669 5.891-7.241 8.717-10.861 23.522-30.137 47.228-59.578 72.003-88.687M1152.5 1032.38c3.09-.44 1.75-.74 4.24.39 1.16 3.15-9.93 68.73-12.12 76.18-2.7 2.35-75.69 2.72-86.75 2.62-3.54-.56-3.1.05-5.45-1.92-2.35-16.91-1.91-48.1.98-64.88 21.32-6.15 75.2-10.31 99.1-12.39m-125.86 328.43c28.17 12.14 78.28 20.94 109.59 25.21 20.26 2.77 52.29.97 70.5-8.5 5.17-2.7 15.48-11.35 20.45-15.42.22 10.14 1.41 22.53 1.97 32.95-14.46.63-28.93.94-43.4.92-1.61-.16-11.03.31-13.61.32-19.22.11-38.75 2.3-57.93 2.81a3979 3979 0 0 1-148.192.81c21.918-13.31 39.622-24.65 60.622-39.1m-55.763-315.92c22.299 2.07 47.553 1.7 70.123 2.4-3.98 16.18-6.25 44.17-3.45 60.58-22.39.49-43.451 2.79-65.601 5.89-14.378 1.11-28.439 5.5-43.207 7.13 10.271-6.26 19.929-9.29 31.15-13.39 6.283-2.29 18.051-10.03 18.088-17.48.079-16.14-16.068-18.46-28.322-19.33a1100 1100 0 0 0 21.219-25.8"/><path fill="#fefefe" d="M279.704 980.495c28.571 27.485 66.794 32.645 104.761 35.175 33.197 2.21 71.864-8.06 97.811-29.451.036 8.901.262 11.543-2.934 19.851-1.918 3.42-5.361 6.92-8.698 9.03-43.295 27.38-160.751 32.5-191.482-14.63-.363-7.593-.232-12.482.542-19.975m411.377 15.581c10.406-.18 52.881 9.964 65.58 12.784-3.783 4.94-27.76 34.05-30.827 36.54l-3.057-.34c-12.558-1.86-24.473-5.12-36.846-7.48-10.63-2.04-22.075-3.65-32.815-5.32 12.604-11.97 24.627-25.12 37.965-36.184m76.175 15.384c7.719 3.32 54.177 11.42 63.894 13.2-5.45 8.11-19.539 29.1-25.437 35.67l-1.934-.04c-9.203-.41-55.193-9.94-67.514-12.15 10.731-11.39 20.3-24.78 30.991-36.68m32.948-42.328c14.306.975 47.018 9.802 64.191 12.825-6.12 6.202-21.334 26.123-27.909 34.163-14.785-1.51-47.878-9.59-63.63-12.66 8.407-11.429 17.901-23.783 27.348-34.328M728.77 952.71c10.715 3.505 52.277 12.267 62.865 13.821-9.269 9.215-20.289 23.248-30.065 33.709-16.061-4.471-47.697-10.936-64.251-12.544 10.737-12.004 21.747-21.422 31.451-34.986m19.817-385.079c5.793 1.122 8.944 1.329 14.881 1.631 8.489 30.611 35.299 34.46 53.25 7.045 7.01 1.938 14.576 3.633 21.68 5.356-1.076 2.534-1.961 5.294-2.86 7.908-2.535 3.31-5.186 6.815-8.126 9.762-18.376 18.424-52.635 17.107-69.029-3.315-6.915-8.614-7.734-17.879-9.796-28.387m123.155 415.987a1016 1016 0 0 1 45.17 9.131c-5.879 8.851-17.286 25.651-24.139 32.991l-1.251.29c-3.627-1.3-38.187-6.94-43.564-7.73 8.342-10.83 16.205-23.218 23.784-34.682m105.426 135.802c2.281-.32 3.789-.8 5.875.1-.714 3.16-50.58 62.59-57.625 71.43-2.713 1.48-5.994.55-9.284.13-3.614-1.08-6.52-1.64-8.436-4.57 6.734-12.63 45.738-55.02 56.437-65.85zM538.634 536.288c2.271-.357 1.745-.24 4.105.037-1.676 4.055-42.579 50.968-47.991 57.242-.767 1.117-.704.838-1.964 1.626-1.545-4.668-.945-43.172-.947-50.394 16.165-1.674 30.959-5.736 46.797-8.511m449.097 456.567c1.637 2.211 1.601 2.62 2.135 5.23-1.898 4.465-14.151 19.185-17.944 23.795-18.936 23.02-36.251 48.7-55.118 71.61-3.421-8.89-.327-20.64 5.604-27.37 21.179-24.03 44.256-49.29 65.323-73.265M849.677 585.43c18.478 6.009 36.877 12.292 55.777 16.857a138 138 0 0 1 14.099 4.211 326 326 0 0 0-15.464 1.809c-18.921 1.894-47.991-.449-67.127-1.882 7.442-8.134 8.79-10.609 12.715-20.995m-183.443-23.093c23.474 1.872 48.051 2.752 71.655 3.971q.74 7.735 1.188 15.493c-13.935-.249-65.491-6.258-72.843-19.464m455.636 627.473 1.09 1.31c-.1.79-.21 1.58-.34 2.37-2.56 16.26-22.05 28.73-35.09 36.92-3.71 2.33-8.37 1.17-12.52.47l-1.32-1c1.95-3.95 42.47-35.85 48.18-40.07m-214.004-136.8c.19 3.95-8.943 12.45-10.266 16.34-9.012 26.51-4.451 32.47-21.689 55.56-2.655-5.39.476-19.82 2.521-25.52 6.819-18.99 9.714-36.95 29.434-46.38m-124.16-587.591c9.11-1.789 49.077 3.554 54.27 12.697l-.971 1.895c-3.939 1.642-2.339 1.506-6.216.964-16.01-3.589-30.137-5.128-46.45-6.509-4.108-.348-11.132-1.487-13.704-4.86 1.943-3.715 9.401-3.844 13.071-4.187m156.299 616.061 1.45.2c6.215.88 18.867 1.89 22.64 6.89l-.442 2.27c-4.521 5.31-18.474 9.42-26.179 13.15-7.334 3.77-11.799 6.35-18.726 10.76 4.959-9.8 14.667-24.19 21.257-33.27M479.893 672.771c1.988 2.127.984 31.599 1.162 37.889-9.261 1.064-16.67 2.727-25.773 4.677l-.767-1.358c8.49-13.269 16.92-27.68 25.378-41.208"/><path fill="#fefefe" d="M772.659 569.87c6.81.219 27.654-.218 31.608 5.255-.491 3.334-.898 2.85-3.392 5.933-12.958 8.443-22.884 1.325-28.216-11.188m126.962 528.69c3.088 2.24 4.85 3.26 7.516 6.05.182 3.45-.995 3.93-3.222 7.3-2.397 1.97-1.069 1.58-4.079 1.32-3.301-4.38-1.495-9.86-.215-14.67"/><path d="M1351.73 174.353c30.96-3.453 62.9 11.217 79.52 37.735 25.79 3.066 181.45 13.63 194.56 25.127 2.01 1.761 2.5 6.353 2.66 8.942.8 12.311-1.26 25.84-2 38.215-1.22 20.307-.81 42.119-4.75 62.095-.73 3.711-1.66 7.04-4.24 9.926-12.29 4.811-73.17-3.699-89.09-5.388l-127.35-13.704c-52.89-3.602-110.24-10.272-163.18-15.282-31.85-3.013-91.01-8.24-121.23-15.119-3.75-10.903-5.05-10.138-3.45-22.204 3.7-27.865 4.33-56.531 9.89-84.094.53-2.649 5.22-4.697 7.5-5.956 42.04 2.915 83.51 8.666 125.92 8.798 13.42.041 27.23 2.704 41.2 2.686 10.8-19.03 33.15-29.13 54.04-31.777"/><path fill="#fefefe" d="M1353.61 189.198c15.67-.59 24.39.091 38.94 7.006 41.51 19.718 34.5 73.909 4.35 100.347-8.72 7.646-16.72 10.534-27.64 13.784-31.45 3.793-61.22-11.71-69.3-44.332-5.79-23.403 4.6-52.973 24.71-66.382 8.99-5.999 18.36-8.264 28.94-10.423"/><path d="M1354.88 207.516c4.72.217 7.05 1.083 8.27 5.934 2.13 8.474.82 19.694.41 28.329 8.38-3.423 22.78-14.123 30.96-10.992 2.67 6.733-6.05 10.399-11.05 13.597-5.89 3.971-22.15 15.514-28.13 17.373-6.8-3.424-3.04-47.354-.46-54.241m-177.09 152.45c24.42 7.063 24.56 45.946.29 55.442-8.23-1.856-13.36-5.705-16.14-13.973-3.24-9.645-1.78-21.153 2.42-30.292 3.48-7.591 6.07-8.529 13.43-11.177"/><path fill="#fefefe" d="M1176.15 368.405c13.99 3.954 12.42 26.088 4.05 36.071-17.83-.225-10.06-26.637-4.05-36.071"/><path d="M1433.09 380.244c20.82.513 33.73 13.058 12.51 28.779 3.84 5.325 16.85 21.929 15.44 28.039-2.92 1.892-1.76 1.687-4.94 1.769-3.38-2.286-4.66-5.742-6.63-9.468-3.81-6.588-9.06-13.912-13.39-20.293.28 6.766 2.58 24.061-5.26 26.699-6.09-5.503-2.83-34.559-3.74-43.649-.55-5.453 1.36-9.133 6.01-11.876"/><path fill="#fefefe" d="M1435.26 389.511c3.77.269 8.27.226 10.85 2.761.29 3.867.03 2.876-2.2 6.917-3.41 1.698-4.09 2.764-7.4 2.343-1.99-2.859-1.29-8.17-1.25-12.021"/><path d="M1135.29 353.919c.78.07 1.55.158 2.32.263 4.08.528 7.45 1.676 10 4.982-.27 2.89.2 1.49-2.16 4.031-4.09 1.338-4.42-.078-9.71-.619-11.67 4.664-12.23 22.927-10.46 33.511 2.24 2.882 3.92 5.192 6.74 7.582 5.01 4.248 13.91-3.221 12.67-8.25l-2.95-.153c-4.35-.247-10.21-.037-13.12-3.31l.27-1.634c5.17-5.318 6.3-4.835 13.8-5.482l.7-.005c6.37.003 14 3.454 11.48 10.537-19.52 54.741-67.02-18.735-19.58-41.453m80.87 8.753c2.22.299 5.31 1.236 6.38 3.392 3.88 7.842 17.66 47.037 7.64 51.851-8.54-2.038-3.59-9.286-8.41-15.74-3.12-.746-5.11-1.554-8.21-.791-3.78 3.021-4.47 7.637-5.83 12.433-2.56 2.289-1.23 1.748-5.11 1.669-5.1-6.813 8.21-45.582 13.54-52.814"/><path fill="#fefefe" d="M1217.2 379.674c2.92 2.78 4.06 10.862 2.88 14.762-2.67-.734-2.93-.57-4.82-2.651-1.06-4.335.57-7.704 1.94-12.111"/><path d="M1346.65 372.461c2.93.291 2.85.22 5.48 1.465 3.47 4.788.96 18.053.61 24.814 3.71.064 8.07-.118 11.83-.189.06-6.848-1.32-19.158 3.84-23.53l2.15.338c3.93 4.339 3.72 49.176 1.23 54.181-1.85-.022-3.01-.396-4.79-.83-4.06-4.766-2.15-14.04-2.29-21.811l-12.8.344c-.05 5.501.19 19.33-5.67 21.564-7.24-7.304-1.2-46.004.41-56.346m52.17 2.937c5.65 4.236 19 49.249 18.69 55.964-2.03 2.799-.73 1.849-4.05 2.921-6.97-4.497-3.91-11.083-8.15-16.758-3.1-.673-5.81-1.09-8.92-1.548-3.78 2.745-2.7 10.803-8.24 15.094-3-.008-1.85.269-4.59-2.03-.7-5.104 12.34-48.604 15.26-53.643m69.8 8.708c8.61.668 31.07-2.16 33.59 7.256l-.9 1.554c-4.48 1.781-10.99 1.447-15.97 1.512.61 11.124.63 22.924.83 34.115.15 4.666.33 6.869-2.29 10.691l-1.84.146c-9.15-5.524-.12-38.706-6.64-44.879-4.74-.481-6.01-.724-10.57-2.061-2.59-2.495-2-1.051-2.23-4.291 2.9-3.44 1.45-2.308 6.02-4.043m-221.31-18.563c3.57.752 6.01 1.31 6.54 5.555 1.56 12.514.22 27.626-.6 40.127 6.57.374 14.91-.002 18.65 6.074-.89 3.695-.25 2.334-2.94 5.145-6.74-.491-17.54-.378-23.56-1.942-2.85-4.693-.4-49.315 1.91-54.959m76.02 6.41c5.99-.542 11 .328 13.69 6.533-.61 3.814.12 2.843-2.26 5.02-2.66.029-4.93-1.924-7.26-3.436-13.69 2.21-14.37 30.18-3.29 37.609 3.39.669 6.98-1.294 10.42-2.634 1.29 5.691-3.7 13.654-10.56 11.463-13.3-4.091-18.77-22.629-15.71-35.061 2.24-9.069 7.29-14.675 14.97-19.494"/><path fill="#bdbcbe" d="M803.261 686.846c.72.079 4.714 2.771 4.914 2.778 11.526.421 21.4-2.531 32.476 1.559 4.383-1.215 7.362-4.509 11.65-2.636l.531 1.769c-3.134 2.87-12.669 4.418-17.016 3.711-2.463.344-2.653-1.348-5.683-1.026-8.054.857-15.757-.579-24.139-.07l-1.947-2.385c-6.077.971-9.212 9.062-15.815 1.218l.284-1.616 2.1-1.369 1.054 2.344 1.818.28c3.74-2.464 5.256-3.77 9.773-4.557m58.299-31.768 1.714 2.305c7.682 2.919 8.802.157 15.542-2.073l-.169 1.64c-3.119 3.09-3.744 3.355-7.767 5.177-7.062-.544-12.746-.765-19.781.153-7.131.93-4.755-1.717-11.666 2.421l-1.281-.085-1.358-1.933c-4.777-1.86-7.324-1.147-11.711.581l-1.155.463-1.15-.88.041-2.833.981-.809.648 2.733c8.501-7.097 21.985 2.422 37.112-6.86m-27.561 16.484 1.454.668c.921 2.782.938 1.421-.136 4.216-4.755 3.159-8.219 2.186-13.737 1.425-4.348 4.256-3.615 4.098-9.036 1.888-7.605-3.102-15.924-3.118-21.929 2.883l-1.377-.161c1.574-2.605 1.164-1.216 1.161-4.348 5.954-6.175 31.633-1.265 40.005-3.27zm46.978-29.009c-1.869 7.42-20.274 5.233-25.278 3.664-.716-.225-5.051 4.733-9.186 4.545l.473-2.071c-2.182-.651-9.834-.116-12.6-.014 1.538-3.375 4.466-3.687 7.745-3.782l-.901.681c15.186-1.051 24.469-1.017 39.747-3.023m-42.063-11.886c4.561 4.204 7.069 1.002 12.23 1.032 9.216.052 18.412-.36 27.619-.503l.181 1.372-.294-1.372-.487 1.762c-3.605 1.861-5.599 1.471-9.671 1.434-2.353 1.108-6.78.703-8.898-.367-5.624-2.793-10.745 1.726-16.925 1.201-4.121-.351-8.954-2.05-12.803-1.554 3.479-1.423 5.43-1.998 9.048-3.005m-41.001 26.248c.897 1.136.513.54.76 2.189l3.198.884c3.941-1.106 5.112-1.545 9.283-1.52l1.219 1.247-1.059 2.791c3.513.59 4.463-5.007 10.486-4.287-.313 2.766.258 1.632-1.733 3.533-2.654.453-4.096.823-6.687 1.571l-.409 1.049c-3.571 1.586-2.221-2.621-6.468-2.016-3.26.466-6.336 3.728-9.493 3.486l.161-3.216c-4.064-.018-1.668 3.297-6.912 4.066l.084-1.538-1.83-1.254.339-.894c4.607-1.793 5.76-2.212 9.061-6.091m83.331 25.822c.424.141 1.319.884 1.736 1.194-3.596 10.412-17.823 8.407-26.738 8.301-1.198-.039-.844-.175-2.172-1.187l.65-1.568c12.868.41 16.146-.422 26.524-6.74m.53-14.034.482-.005c-.256 3.836.063 2.42-2.15 5.831-7.238 3.162-10.952 6.819-17.611 2.423l-1.164-1.065 1.439-1.514 2.337.004 1.143.852c7.034-.579 9.96-1.785 15.524-6.526m-32.867 4.423.589-.07-.212 1.16c1.629 1.364 4.922 1.434 7.389 1.811 1.741-2.317 1.987-2.794 4.261-4.513l1.685.767c-1.438 2.111-4.363 4.8-6.261 6.68-3.146-.178-5.277-.936-7.275-1.013-3.668-.14-6.963 2.045-11.124.598l-.238-1.466c3.863-4.203 4.441 1.236 11.186-3.954"/></svg>