<svg xmlns="http://www.w3.org/2000/svg" preserveAspectRatio="none" style="display:block" viewBox="0 0 2048 2048"><path fill="#fefefe" d="M0 0h2048v2048H0z"/><path d="M1006.07 127.579c1.98-.153 3.95-.26 5.93-.323 242.24-7.009 486.78 77.838 663.05 245.856 174.34 166.17 257.47 365.341 284.77 601.008 5.23 41.98 8.49 84.19 9.76 126.48 5.62 221.6-75.36 492.28-221.24 662.55a751 751 0 0 1-20.12 22.5c-3.59 3.79-7.6 7.65-11.18 11.36-3.2 3.32 1.76 8.14-1.09 13.6-3.59 2.46-5.13 2.33-9.91 2.43-27.79.58-55.79.57-83.58.67l-159.55.15-425.07 1.39c-19.56 1.86-54.797 1.23-75.857 1.52l-139.489 1.9-399.092 4.56c-14.928-10.71-27.082-21.11-40.805-33.35-180.881-163.99-289.5-392.91-302.12-636.73-2.807-50.36 2.224-106.4 8.475-156.33a1037.2 1037.2 0 0 1 196.244-497.73c152.487-202.614 381.815-335.173 633.811-364.77 29.338-3.445 57.608-5.129 87.063-6.741"/><path fill="#fefefe" d="M1031.8 348.423c13.53-1.189 32.3-.945 45.89-.802a646.34 646.34 0 0 1 405.13 144.017c30.62 25.083 51.72 47.977 79.01 75.85-4.46 14.867-10.71 29.707-16.27 44.248a3631 3631 0 0 1-31.48 80.584 15417 15417 0 0 0-69.19 178.712c-7.83 20.566-16.27 40.896-23.9 61.523-4.02 10.881-11.24 23.214-7.69 34.975l2.93.703c8.39-6.151 32.87-76.271 38.29-90.497l42.98-110.499a8521 8521 0 0 0 47.15-121.536c8.65-22.163 18.53-45.356 26.43-67.658 37.24 42.426 54.75 62.974 83.63 112.533-12.64 37.695-31.13 79.516-45.4 116.902l-97.63 257.232q-18.255 46.65-35.13 93.81c-3.29 9.12-11.07 17.85-5.2 26.62 3.09 1.56 1.54 1.43 4.81.49 2.53-2.46 4.07-5.16 5.36-8.46 61.21-156.64 117.04-316.491 181.15-471.928a1127 1127 0 0 1 30.07 55.067c-11.29 31.189-25.06 62.371-37.01 93.404L1542.5 1146.92c-10.97 29.06-23.65 57.52-33.86 86.83-1.62 4.66-10.83 20.95 1.35 21.07 6.68-3.8 20.56-44.78 23.88-53.42l28.18-72.12 83.85-215.638c17.3-45.186 34.07-93.014 53.27-137.401 13.25 23.648 28.92 63.494 37.7 89.074a899 899 0 0 1 37.33 145.125c5.64 32.4 11.96 72.79 11.91 105.83-.13 76.49-17.01 155.78-34.71 229.74-15.28 63.9-31.61 126.15-60.52 185.33a91 91 0 0 0-5.05-2.93c-12.3-6.55-19.67-5.35-31.86-1.56-12.82-27.05-39.9-67.49-58.15-91.21-11.52-14.26-24.59-30.26-37.33-43.13-17.98-18.18-35.92-34.7-52.64-53.95-70.21-80.83-156.45-132.89-260.35-158.56-40.06-9.9-86.5-19.22-128.68-21.07-1.03-14.51-.39-53.39.74-68.15 23.15-5.9 35.33-8.74 54.92-23.23 49.61-36.68 48.11-85.703 54.68-140.732q6.615-51.796 13.77-103.518c1.11-8.422 2.49-35.295 4.59-41.468 7.64-22.477 20.05-32.482 23.29-58.569 7.37-59.289-9.74-116.735-70.07-138.838-12.48-4.57-21.97-5.419-34.92-7.122-6.75-7.452-14.96-17.435-22.38-23.954-40.24-35.068-94.77-44.7-146.413-46.747-53.06-2.103-97.4 6.113-139.43 40.812a211 211 0 0 0-22.043 21.309c-3.726 4.214-16.198 19.475-19.661 21.332-53.446 28.657-81.74 68.04-96.903 129.335-22.162 89.585 43.32 164.347 72.62 245.668a349 349 0 0 1 10.71 36.802c13.681 60.98 14.061 77.17 79.863 91.8.934 18.57 1.189 37.17.763 55.76-1.407.45-2.824.87-4.227 1.33-18.293 6.01-37.663 9.16-56.276 14.23-76.142 20.73-151.386 44.99-214.781 93.69-113.442 87.13-134.783 222.58-152.107 355.58-15.912-23.62-28.569-52.65-43.027-78.17-13.742-24.44-28.655-48.85-42.452-73.2-81.653-144.11-78.707-286.26-46.318-445.09 31.72-155.536 86.56-305.647 196.129-425.042a815 815 0 0 1 119.565-107.976A734.1 734.1 0 0 1 1031.8 348.423"/><path fill="#fefefe" d="M992.116 149.609a130 130 0 0 1 5.541-.325c238.563-10.591 473.743 65.345 651.003 227.526 203.69 182.855 292.41 448.458 300.57 717.25 7.19 236.72-80.73 507.48-242.64 683.75 1.4-24.21-2.31-60.15-5.8-84.26 13.53-7.77 27.53-19.5 36.48-32.39 6.33-9.1 5.12-17.77 8.26-27.74 2.04-6.48 6.6-13.8 9.91-19.76 14.24-25.69 30.96-52.17 43.02-78.95 16.85-37.43 31.66-77.98 43.82-117.15 53.64-171.9 63.4-354.49 28.39-531.126-22.97-122.26-56.89-211.394-127.51-312.832-70.41-101.141-141.27-170.633-242.83-240.025-175.65-118.047-390.57-162.556-598.656-123.98-473.366 81.308-754.402 507.271-722.496 975.003 15.191 222.7 116.779 440.84 290.036 583.83 13.444 11.1 28.313 21.05 41.523 32.49-23.818.35-59.519-1.03-81.999.95a420 420 0 0 1-28.139-22.82c-179.06-160.79-286.995-386.06-300.108-626.37-2.758-49.34 2.264-108.9 9.182-158.094 27.702-199.782 101.444-383.573 235.824-536.043C516.314 264.731 735.3 164.134 992.116 149.609"/><path fill="#fefefe" d="M1184.18 680.154c26.15 12.095 32.68 75.578 37.48 100.754-14.18-4.894-30.59-9.15-45.58-5.827-6.1 1.352-12.75 8.912-9.77 15.595 9.73 8.435 24.47 3.117 35.85 6.011 6.71 1.705 13.44 5.374 19.43 8.712-1.81 33.558-7.53 65.799-11.42 99.128-6.76 58.056-1.16 122.623-60.46 155.633-30.48 16.96-66.93 11.89-99.07 3-10.84-3-36.62-23.83-40.43-5.98 3.47 20.8 70.65 31.11 89.21 33.34.47 15.89-1.26 31.41-1.26 47.02 0 13.21-8.43 47.87 14.12 40.95-.53 9.82-8.06 26.42-11.66 36.71-14.16 2.24-31.39 2.54-45.96 4.53-27.84 3.82-54.08 8.77-81.335 15.39-13.476 2.96-26.555 7.21-39.753 11.24a259 259 0 0 1-8.609-4.54c-30.23-16.62-45.693-35.09-55.317-67.98 8.102-2.3 22.608-5.08 27.942-10.71 2.686-9.57 4.002-224.153 1.438-237.514-4.29-6.701-15.188-6.94-23.364-11.035-22.415-9.248-10.981-54.006 8.134-56.768 23.053-3.33 19.092 52.519 34.953 62.202 4.073.051 2.158.56 5.777-2.116 2.749-4.85-7.729-35.216-9.584-43.785-6.607-30.528-2.618-66.804 14.634-93.232 7.983-12.349 26.954-33.643 41.644-37.938 43.32-12.664 87.42 2.828 132.76-6.971a124.64 124.64 0 0 0 80.2-55.819"/><path d="M1054.24 772.318c12.24-1.912 66.79-2.914 48.03 22.427-3.37 4.558-25.14-1.113-32.18-1.433l-1.69-.069c-9.78.767-17.55 2.143-26.9 4.878-4.25.781-12.57 4.166-16.29.886-21.75-19.16 19.49-25.063 29.03-26.689m85.17 35.035 5.26.296c3.9 3.403 8.33 45.414 12.28 54.928 4.68 11.287 12.87 29.681 15.59 41.229 3.21 13.662-17.47 16.4-27.08 16.586-2.66-.397-4.64-1.028-7.2-1.765-2.9-2.846-2.12-1.218-2.91-4.769 5.6-6.074 20.91-1.804 27.16-6.879.62-1.621 1.09-3.84.32-5.474-14.2-29.886-22.66-60.749-23.42-94.152m-78.36 17.524c18.45-.03 18.76 15.93 18.25 30.035-4.07 7.373-4.91 9.941-12.56 13.796-23.75-.312-25.74-31.98-5.69-43.831m129.64 3.323c25.43-2.377 25.27 29.905 8.1 41.713-24.62 1.55-22.63-30.203-8.1-41.713m-104.23 143.104c8.49 1.699 20.59 5.527 28.65 5.055 8.73-.512 19.27-3.168 28.22-3.599 3.14-.151 3.49.519 5.12 2.224-.08 4.028.38 2.095-1.98 5.848-15.47 5.296-46.51 8.404-60.11-2.161-1.49-3.766-1-2.63.1-7.367"/><path fill="#fefefe" d="M1112.13 1305.42c7.3-.76 21.67-.42 29.35-.4 71.75.46 142.51 16.75 207.24 47.73 8.34 27.97 13.64 58.72 19.16 87.43 2.76 14.33 4.18 29.73 7.52 43.91-12.24 10.93-38.72 28.83-52.68 38.73a8928 8928 0 0 0-102.86 73c-56.55-25.41-116.88-27.45-176.84-15.21-18.34 4.89-29.15 9-46.699 15.9-10.268-4.43-47.6-31.59-59.835-40.23-55.641-39.28-109.349-79.31-165.492-118.09 16.761-16.35 39.135-31.51 58.836-44.27 88.712-57.44 178.11-81.56 282.3-88.5m-485.755-36.46c23.745 7.18 67.494 84.97 78.684 107.72-9.597 11.61-29.235 28.6-41.34 41.7-32.195 34.85-82.106 101.78-99.447 144.87-25.234 3.83-31.709 8.51-33.458 30.01-.133 1.64-4.391 1.51-6.287 2.32-19.192 8.19-21.027 23.3-15.527 42.32-15.482 9.4-15.501 19.08-13.725 35.56 1.989 2.5 4.734 5.26 5.38 8.09-.721.7-1.435 1.41-2.141 2.12-15.776 16.05 2.908 40.43 15.208 52.38 5.513 4.92 7.519 6.95 13.999 10.53-.892 9.8-5.153 22.93-8.184 32.33-11.514-6.92-49.023-37.12-59.575-46.9 9.221-49.88 10.818-87.38 16.683-136.94a1010 1010 0 0 1 20.842-115.39c19.276-78.95 56.449-166.62 128.888-210.72m897.805 226.92c8.2 3.32 44.92 69.07 49.66 79.27-10.65 8.75-23.07 22.92-23.23 37.29a29.05 29.05 0 0 0 8.42 21.03c.76 13.49.91 20.96 12.89 29.28-.13 9.4-.4 19.66 5.29 27.69 4.54 6.42 8.47 6.07 15.15 7.7 1.22 11.11 7.8 13.91 8.79 23.17 2.42 22.81 2.86 48.86 3.06 71.68l-93.66.12c-19.55.17-39.1.18-58.64.03l-29.73-80.59c-5.77-15.82-15.53-37.51-15.55-54.2-.03-23.47-2.74-46.84-2.97-70.15 13.91-12.01 30.4-24.21 45.11-35.57a3778 3778 0 0 1 75.41-56.75m-793.247 28.59c10.311 5.97 42.582 33.07 53.576 41.53 49.893 38.39 98.187 79.16 147.352 118.54-10.753 31.43-25.788 65.5-42.988 93.9a104 104 0 0 1-13.251 18.51c-18.837 1.08-44.357.62-63.402.74-33.446.52-66.898.69-100.348.5 4.469-21.37 8.691-53.01 11.245-75.05 7.25-62.56 17.362-136.19 7.816-198.67M845.7 1179.16c1.293-.14 2.901-.52 3.306.43 3.289 7.7 9.436 22.42 13.082 29.19 12.823 23.81 25.238 32 46.383 46.48-15.092 7.17-31.737 12.78-47.096 19.81-43.723 19.99-85.312 44.47-123.222 74.11-5.641 4.41-11.82 11.55-18.403 13.62-3.154-1.12-2.221-1-4.296-5.07-16.323-35.93-39.83-76.64-72.711-99.67 59.963-39.3 133.502-62.31 202.957-78.9M708.412 1507.8c17.214 43.42-4.469 242.5-17.041 290.26-26.769.69-52.119 1.44-78.904.99 1.215-5.45 2.228-11.57 3.255-17.12 2.167-11.68 3.164-22.76 4.372-34.55 16.323-6.06 20.868-12.04 21.841-29.32 18.844-9.15 31.527-23.12 22.989-44.59 9.267-27.65-1.366-44.12-20.181-63.29 12.037-30.26 44.039-76.22 63.669-102.38m675.278 95.11c1.53 3.29 7.5 168.21 9.04 189.55-11.85 1.07-31.24.56-43.73.55-10.97-10.77-17.17-18.28-25.1-31.21-10.84-18.9-34.25-63.29-40.08-83.51 16.58-14.21 34.91-25.97 52.3-39.1 16.04-12.11 31.04-24.76 47.57-36.28m-249-422.62c41.66 1.54 149.25 26.28 186.08 45.82 2.28 7.46 4.69 14.87 7.23 22.25l-11.85-3.15c-67.79-22.17-122.86-28.73-193.52-29.54 6.1-14.09 7.36-21.77 12.06-35.38M837.848 303.333c3.181-.352 1.722-.703 4.545.454l.306 2.369c-4.177 9.181-23.108 11.242-32.656 13.955a745 745 0 0 0-50.757 16.381 719.6 719.6 0 0 0-223.387 129.901c-18.487 15.675-37.84 34.446-55.802 51.146-2.394-2.098-4.536-4.507-6.729-6.831 23.641-27.072 48.588-47.129 75.866-69.288 63.273-51.4 133.757-89.604 210.763-116.192 23.01-7.945 53.691-17.704 77.851-21.895m545.172 32.557c108.01 39.363 233.89 147.464 289.92 250.166-.13 1.152-.25 2.305-.38 3.457l-5.07.504c-3.73-1.412-8.21-9.807-10.93-13.867a603.5 603.5 0 0 0-52.2-66.903c-44.02-47.969-85.54-85.302-140.97-120.551a555 555 0 0 0-51.01-29.158c-7.65-3.785-21.03-9.507-27.86-14.695-2.17-1.647-1.53-6.008-1.5-8.953M966.554 524.316c2.706-.369 2.729-.487 5.378-.023-4.613 3.046-18.363 6.708-24.091 8.653-29.832 10.323-71.474 22.591-91.759 49.143-15.57 20.379-26.075 26.157-44.283 42.749-29.968 27.308-54.125 62.139-63.412 102.022-11.862 50.945 7.557 91.274 29.155 136.13 14.661 31.617 30.746 69.55 37.691 103.524-4.739-1.807-9.325-15.618-11.202-21.035-15.313-44.2-39.787-85.842-56.292-129.219a153.4 153.4 0 0 1-8.848-33.186c-12.625-81.912 31.799-132.08 90.282-180.789 8.016-7.178 13.076-17.615 20.787-25.043 33.252-32.031 71.661-46.079 116.594-52.926m405.566 841.734c23.33 8.51 63.54 41.93 85.72 56.42-5.49 5.23-20.83 16.3-27.51 21.38-11.64 9.01-27.18 19.38-37.9 28.94-1.19-27.78-11.95-80.19-20.31-106.74"/><path fill="#fefefe" d="M1666.13 1541.06c6.39-.65 18 3.53 21.55 9.03 4.24 20.04-81.89 58.63-98.64 65.04-5.11 1.6-13.02 4.74-18.01 3.97-9.89-7.28 5.29-23.01 11.47-28.23 24.72-20.89 52.25-40.73 83.63-49.81m-1128.586 71.35c6.614-.19 7.611.88 12.605 5.11 25.565 21.64 51.094 47.88 83.179 59.32 4.799 1.71 10.846 2.84 14.933 5.85 3.569 9.69-6.463 14.72-13.999 17.99-28.763 1.9-70.034-34.36-91.936-51.48-10.826-8.46-33.068-35.81-4.782-36.79m1161.736-45.79 8.97 9.58c-10.88 39.63-83.42 78.17-121.62 75.41-4.87-1.82-8.12-3.25-10.05-8.39.88-3.61 2.08-4.76 5.53-6.45 36.73-17.96 92.06-36.73 117.17-70.15m-1145.469 18.29c15.773-.67 24.748 3.91 38.66 10.66 17.927 8.71 68.137 43.66 54.831 67.31-11.012.59-13.465-2.49-23.251-6.54-15.466-6.4-68.699-48.42-73.367-62.83.205-4.1 1.015-4.88 3.127-8.6m-34.332 68.62c8.829.48 33.078 23.68 41.993 29.62 20.18 13.44 38.703 24.42 61.53 32.62 4.327 1.55-3.478 10.33-5.222 12.14-24.504 7.54-64.865-21.6-83.219-35.94-11.751-9.18-28.438-23.56-15.082-38.44"/><path fill="#fefefe" d="M1717.65 1598.6c2.27 2.3 4.37 7.47 5.92 10.64-8.47 16.1-17.21 28.59-32.74 38.53-14.23 9.12-73.89 38.11-89.65 34.21-1.79-.44-1.03-.5-2.79-.39-.32.02-.63.09-.94.13-5.73-.55-6.54-1.22-9.3-6.25.03-4.08-.54-2.27 1.76-5.63 5.25-2.48 10.28-1.66 15.27-3.15 41.8-12.49 86.55-31.72 112.47-68.09M1174.66 287.264c44.62-4.706 141.63 14.105 179.56 37.588l.24 2.1c-1 .595-3.08 2.202-4.14 1.895-36.42-10.518-72.39-23.044-110.17-28.367-18.86-2.657-38.5-3.067-57.21-6.697-5.28-1.023-5.82-2.342-8.28-6.519m552.06 1346.496c4.43 22.76-32.02 42.18-47.95 51.59-18.16 10.72-44.18 22.23-65.56 18.26-2.59-3.02-2.37-1.7-3.02-4.91 3.58-3.21 18.96-6.82 24.2-9.08 32.21-13.94 72-25.71 92.33-55.86m-1211.077 60.8c18.877 14 36.789 28.84 58.246 38.85 6.043 2.82 24.753 7.12 26.894 12.11l-2.688 3.1c-7.536 4.25-27.736-1.51-35.992-4.55-17.977-6.63-38.034-19.52-46.997-37.07-2.313-4.53-1.132-8.04.537-12.44m830.207-455.81c34.2 14.32 66.29 38.01 94.82 61.52-4.35-.7-10.47-3.83-14.43-6.02-24.14-13.32-48.9-24.57-74.15-35.65-3.47-6.64-4.69-12.65-6.24-19.85M451.44 532.767c3.947 2.048 4.031 1.257 5.607 4.441-3.375 8.164-57.59 71.245-65.276 77l-2.27-.274c-2.288-1.84-1.5-.653-2.025-3.923 3.928-13.986 52.236-65.296 63.964-77.244m543.581-253.346 6.189-.297c3.14 1.714 1.84.559 3.82 3.82l-.82 2.039c-3.45 2.346-76.947 11.263-89.182 13.278l-9.783 1.826c16.261-13.911 27.257-14.285 47.874-16.791 13.988-1.7 27.851-2.791 41.902-3.875M1410.14 1734.67c6.27 13.46 15.07 42.61 20.77 58.43l-19.12-.06c-.84-19.65-1.68-38.68-1.65-58.37"/></svg>