<svg xmlns="http://www.w3.org/2000/svg" preserveAspectRatio="xMidYMid meet" viewBox="0 0 2048 1462"><path d="M0 0h2048v1462H0z"/><path fill="#fefefe" d="M0 0h2048v611.368c-24.04-6.829-43.17-18.994-64.1-25.305l22.65-164.603c3.12-23.632 6.78-48.358 8.66-72.173.76-9.576-3.78-19.123-13.86-21.877-20.29-5.539-41.88-8.206-62.72-12.053a3157 3157 0 0 0-252.78-37.305c-60.13-6.408-124.56-10.82-184.66-6.98-14.19.906-31.04 1.383-44.79 4.344-14.01-6.253-27.45-13.726-41.39-20.255a1596 1596 0 0 0-85.13-36.394c-114.33-44.63-238.65-72.398-359.1-94.292-19.83-3.604-39.712-8.499-59.679-11.053-12.532-1.163-21.604 1.984-25.709 14.575-19.227 58.968-36.822 118.679-52.256 178.762-7.313 28.467-17.317 61.553-21.037 90.589-12.966-.377-29.297-.761-42.023 1.345-36.674 6.07-72.525.575-109.56 1.451-89.625 2.121-183.111 19.066-250.333 83.122-68.892 64.655-109.793 174.644-115.732 267.15-7.154-.973-53.07-5.133-55.051-6.003-47.34-20.792-102.045-21.515-144.774 10.766-49.929 37.72-59.08 106.873-66.982 165.23-10.3 76.058-11.615 159.291 4.481 234.561 5.816 26.3 17.065 66.86 48.63 68.88 30.696 1.96 61.21 3.37 91.943 4.67 72.683 2.94 145.403 4.9 218.139 5.88 23.452.47 47.08.37 70.522.38 8.445 0 23.407 9.3 32.763 12.14a373.7 373.7 0 0 0 78.851 14.81c67.11 5.71 159.248 2.28 228.686-.05a5525 5525 0 0 0 151.708-6.51c39.203-2.11 74.193-3.7 113.113-9.08a908 908 0 0 0 103.33-20.81 937 937 0 0 0 124.87-41.95c13.48-5.65 31.89-15.88 43.12-20.25 114.46 21.8 232.74 40.54 347.73 60.28l121.85 21.13c22.69 3.97 45.83 8.22 68.68 11.35 4.34.59 8.44-.15 12.21-2.43 5.09-3.08 8.1-13.43 9.02-19.08 6.04-37.33 9.94-75.24 16.12-112.53 44.87.15 89.74 1.06 134.59 2.73V1462H0z"/><path fill="#fefefe" d="M1951.27 843.851c31.63 5.668 65.05 12.093 96.73 16.571v248.718c-36.86 3.21-93.79-1.13-133.37-.76 13.23-88.23 23.53-176.621 36.64-264.529M1982 598.456c20.57 10.512 44.11 21.878 66 29.625V844.73c-17.67-1.192-76.89-11.219-94.42-16.195 2.03-20.9 5.52-43.935 8.14-64.927l11.53-94.106c2.98-22.975 6.96-48.138 8.75-71.046M650.951 415.55c20.334-1.017 56.118-1.322 76.074.239-8.307 11.283-14.549 26.261-17.639 39.958-7.118 31.549-7.694 55.515 9.302 83.611-14.499 1.66-35.177 6.619-50.008 9.641a9522 9522 0 0 1-111.815 23.102c-24.703 4.724-50.238 9.55-75.187 12.416-6.621.76-14.648 6.232-11.185 13.63 10.536 7.583 107.832-16.683 127.561-19.048 8.411-1.008 15.8-1.218 24.541-.231 41.927 4.732 84.872 6.712 126.667 11.841 4.252 5.319 6.133 7.323 11.318 11.616L712.739 861.89l-15.601 87.291c-3.466 18.753-7.507 37.387-9.836 56.319-3.008 24.45 26.074 25.32 43.413 28.31l59.348 9.76c10.651 1.75 24.586 3.61 34.613 6.58-1.093 1.11-11.128.07-13.314-.06-63.107-3.83-127.489-9.05-190.481-1.6-7.972.94-23.184 1.88-25.239 10.63 1.634 5.83 5.345 7.65 11.599 6.41 28.368-5.6 57.101-5.65 85.903-5.66 91.309-.04 181.622 6.61 272.475 14.86 21.536 2 43.031 4.43 64.471 7.3 9.19 1.22 38.01 6.21 46.23 4.94 69.73-10.78 139.07-22.83 207.73-39.39 27.89-6.72 55.73-14.36 83.63-20.8l4.94 9.57c10.24 20.52 21.9 48.61 31.36 70.19-9.34 7.75-39.45 26.07-49.67 31.73-76.28 42.19-156.11 67.63-241.13 85.19-50.03 10.34-91.95 13.09-142.246 16.33-49.39 3.09-98.824 5.44-148.286 7.04a6006 6006 0 0 1-129.425 2.98c-63.54.83-125.888 2.3-187.669-15.01-60.221-16.87-100.316-68.38-129.214-120.77 31.008-51.64 58.601-109.3 72.725-167.843 8.003-33.166 17.395-84.757-2.52-114.593-28.528-42.741-91.41-67.27-138.933-78.338C338.413 540.077 427.248 423.77 650.951 415.55"/><path fill="#fefefe" d="M902.149 127.868c5.137-.52 10.776.633 15.83 1.504 169.771 29.246 339.681 66.201 496.031 140.9 13.3 6.353 26.71 13.062 40.29 18.847 9.73-2.648 35.27-3.84 46.52-4.521 76.63-4.641 155.33 2.98 231.42 12.555a3259 3259 0 0 1 189.77 28.832c22.81 4.026 53.17 8.407 75.69 14.959.78.228 4.16 1.993 4.1 3.109-3.02 48.943-15.18 121.607-21.6 167.958l-23.26 172.745-50.88 383.924c-2.55 18.84-21.42 165.89-25.11 172.04-.68.46-1.37.93-2.06 1.39-135.12-21.42-399.79-70.09-521.19-89.03 17.35-9.87 31.49-19.48 48.25-29.95 36.68 6.79 75.01 12.09 111.96 17.76a9381 9381 0 0 0 191.02 27.64l83.59 11.16c12.24 1.6 45.51 7.43 55.89 3.91 5.79-9.72 14.78-100.14 17.25-119l36.95-280.362c1.71-6.95 4.2-32.095 5.6-41.301a7014 7014 0 0 0 19.83-151.495l16.39-127.518c3.22-23.468 10.23-65.151 10.41-87.806-8.87-3.563-55.17-11.738-67.69-14.236a2248 2248 0 0 0-253.17-34.947c-13.41-1.033-26.94-2.161-40.36-3.083-47.11-3.239-93.16-1.253-140.28 1.401l-73.03 455.283a12243 12243 0 0 1-39.09 237.844l-16.6 4.55c2.18-8.48 4.06-22.33 5.51-31.314l9-55.709 35.63-223.832 37.74-237.645 13.4-82.438c4.27-25.435 8.31-44.942 10.67-70.851a1131 1131 0 0 0-173.02-71.401 2018 2018 0 0 0-297.606-71.573c-9.115-1.447-37.268-7.196-44.335-3.627-13.234 16.8-56.431 196.861-63.593 227.823-10.452-2.012-21.315-3.207-31.899-4.518a2795 2795 0 0 1 57.645-213.727c4.464-14.432 12.267-44.271 18.387-56.25M219.778 760.367c46.004-4.255 115.94 10.971 156.159 33.079 23.389 12.858 58.126 32.546 64.134 59.564 15.243 68.535-29.602 167.32-59.571 224.19-3.699 7.37-16.927 30.74-22.637 36.05-1.663-.5-6.316-2.55-7.248-2.59-15.846-.72-29.199 6.38-42.499 13.94-.548-37.58-6.114-76.24-10.316-113.56-10.242-90.94-43.231-171.973-93.294-248.341z"/><path d="M334.579 811.072c2.919.206 6.42.269 8.745 2.799 8.301 9.031 12.257 32.373 3.795 42.063-1.508 1.725-3.697 1.299-5.716.975-.917-.679-3.583-2.684-3.745-3.52-1.794-9.257-.99-16.376-3.229-26.016-15.281 6.935-23.939 9.435-40.191 12.797-8.399 1.526-31.322 6.64-38.492 3.838-2.793-2.864-4.935-10.107.081-11.382 15.01-3.814 68.824-10.394 78.752-21.554m-38.195 84.829c28.988-2.518 50.313 58.078 22.981 81.056-4.654.394-5.613-.042-8.695-2.46-2.334-5.543 1.799-12.358 4.092-18.187 7.315-18.593 1.541-29.664-12.11-42.963-2.998-2.921-6.918-6.456-8.688-10.368-.153-3.57.363-4.083 2.42-7.078m78.134-79.317c28.744 1.421 21.484 69.719 4.883 88.168-3.241-.126-3.522-.328-6.609-1.517-5.995-7.391 4.288-26.182 6.733-36.868 4.022-17.579-12.623-37.894-5.007-49.783"/><path d="M250.027 764.106c9.083-.611 12.884.13 20.296 5.282 16.541 11.498 27.911 38.544 15.531 56.517-1.931-.38-3.971-1.006-5.885-1.534-7.586-7.455-1.077-23.348-9.449-35.055-7.005-9.795-20.203-10.013-23.388-18.675.471-3.473.74-3.619 2.895-6.535"/><path fill="#fefefe" d="M778.563 554.802c12.842.49 27.015 2.696 40.959 3.275-5.656 34.109-13.929 71.239-20.522 105.652l-35.431 186.409a4305 4305 0 0 0-16.157 84.199c-2.126 11.166-7.126 32.921-7.807 43.424 6.764 3.448 44.254 9.105 53.811 10.785l134.109 23.044a7685 7685 0 0 1 239.885 45.46c-7.53 1.41-15.08 2.77-22.64 4.06-28.83 3.68-65.48 14.26-91.79 10.3-28.96-4.36-58.835-9.56-87.854-14.24a8972 8972 0 0 1-150.284-24.49l-74.46-12.74c-7.916-1.32-34.078-3.58-37.942-8.69-.944-8.78 12.336-76.665 14.688-89.834a14115 14115 0 0 1 59.763-316.192c28.542-8.649 9.5-33.683 1.672-50.422m729.347 340.679 1.79.902c7.95 13.875-46.61 67.625-48.58 86.771 1.15 3.535.22 2.408 3.25 4.194 16.73-1.153 56.89-77.916 67.36-78.236 10.27 11.235-23.86 49.656-30.11 60.256-5.37 9.103-30.2 26.394-17.07 35.162 17.07 1.17 49.29-61.947 57.28-64.986l.98 1.728c-.73 18.447-18.43 42.336-29.53 56.428-4.78 6.07-13.27 10.81-11.14 19.29 2.01 2.64.71 1.85 4.02 2.41 10.73-2.93 27.7-23.511 34.44-32.771 2.26-2.349.97-1.797 3.65-2.373.29 1.183.45 1.998-.04 3.2-14.15 34.664-46.87 51.324-77.06 69.754-17.82 10.87-36.45 22.65-54.96 32.55-11.53-23.12-21.5-49.11-32.5-72.89 4.53-31.513 25.83-77.952 54.12-94.163l1.26.509c-1.14 12.641-23.54 36.707-24.6 52.172-.4 5.811 7.29 9.499 11.33 8.383 37.93-10.476 61.74-62.053 86.11-88.29"/><path fill="#fefefe" d="M781.655 412.408c17.909-2.731 52.957 1.987 70.318 6.913-15.055 1.305-30.146 2.531-45.184 3.969-5.818.556-13.938 2.418-17.542 7.391-2.058 2.842-1.714 7.17-.997 10.446.598 2.731 2.233 4.586 4.663 5.984 7.516 4.323 17.458 5.809 25.367 8.4 16.57 5.43 49.239 13.594 63.328 22.447l1.209.769c-27.566-1.844-58.68-15.171-86.255-19.3-5.85-.875-14.597 6.895-13.358 10.928 6.95 22.62 76.308 31.277 88.827 43.52l-.497 1.397c-8.087 3.024-59.534-14.866-70.977-18.722-4.656-1.543-8.01-2.102-12.327-2.97-7.594-1.524-13.61 10.313-11.85 14.829 8.723 22.384 63.769 25.574 79.457 37.412l-.305 1.096c-11.284 4.539-78.236-12.959-93.537-5.977-16.079 7.337 18.085 35.34 13.895 48.488l-2.583.87c-1.38-.157-4.866-.552-5.669-1.56-13.017-16.347-45.344-66.57-47.335-84.663-2.708-24.6 3.959-60.876 18.547-79.355 9.389-11.893 28.245-11.05 42.805-12.312m303.775 92.965c11.07 4.779 16.55 21.204 28.33 25.99 8.78 3.568 30.5-1.931 36.04 5.596 1.46 6.142-8.41 18.48-10.83 24.823-1.46 3.846-2.27 6.257-3.39 10.284 2.91 11.953 14.23 27.344 12.08 34.592-11.42 6.338-38.79-18.864-61.26 2.729-4.93 5.758-17.51 23.946-24.99 21.894-4.81-6.468 1.44-29.742-1.97-39.977-3.17-12.569-15.91-14.978-25.69-20.667-25.25-14.675 15.44-18 26.06-25.183 15.12-10.232 16.06-25.231 25.62-40.081m391.49 247.324c11.03.878 15.56 14.828 25.68 19.739 10.12 4.917 33.27-.532 40.66 5.383 2.65 7.836-12.32 23.013-12.66 33.79-.37 11.645 12.22 25.589 8.46 34.587-13.35 8.523-36.3-18.541-60.1 8.305-4.12 5.166-12.34 15.875-18.46 17.289-8.51-4.373-.08-30.445-6-42.969-7.9-16.729-33.17-12.527-36.97-22.302 3.29-9.965 36.21-15.318 44.08-22.294 7.44-6.607 9.66-22.709 15.31-31.528m349.16-332.992c9.42 1.167 5.86 21.502 14.61 29.012 7.87 6.754 23.73 4.294 32.7 10.105l1.29 2.026c-7.77 9.363-15.09 16.328-22.2 26.356-7.77 10.961 1.82 43.749-6.8 48.589-7.45-2.109-27.63-21.04-35.63-27.112-18.05-6.763-38.79 6.85-52.07 4.55-.9-.774-2.35-1.509-1.61-2.956 5.55-10.835 10.65-15.255 13.72-27.522 4.57-18.199-11.89-27.989-13.83-36.908 2.51-4.403 10.41-3.2 15.79-3.127 27.27.37 33.86-9.001 54.03-23.013m-286.52 84.672c13.46.717 16.46 12.078 30.01 13.157 10.54.84 24.74-11.516 34.05-10.027 7.69 6.4-3.22 21.271-1.79 33.586 1.95 16.761 15.05 20.402 16.44 31.341-5 14.631-27.03-2.295-47.87 20.677-4.3 5.878-11.22 18.437-17.4 19.809-10.25-3.744-7.83-22.83-12.9-31.981-6.33-11.455-39.8-10.232-43.89-18.042 2.55-12.298 31.82-16.62 36.77-27.58 4.02-8.891 2.84-21.057 6.58-30.94m203.23 269.162c2.24.049 2.29.228 4.41 1.075 2.9 4.004 3.55 13.018 5.19 18.33 4.54 14.693 24.36 15.954 37.99 23.228l1.22.661c-4.78 7.427-19.21 19.496-20.96 24.875-11.68 36.07 9.33 61.253-38.58 21.344-24.2-18.678-46.96 5.507-54.67-6.785-.48-7.035 5.21-12.421 8.53-18.25 9.33-16.343 3.69-23.231-1.86-38.665-.89-2.491-.42-2.773.65-4.435 7.11-1.145 17.34-.253 24.92-.61 15.72-.739 23.28-9.942 33.16-20.768m-882.041 35.794c12.015 1.635 15.903 12.666 28.97 15.334 8.72 1.78 26.381-4.237 32.59-1.827 3.304 7.867-4.812 16.671-3.659 27.658 1.401 13.348 13.737 19.418 12.587 29.478-9.167 9.984-33.089-12.942-55.907 18.543-3.291 4.9-8.547 14.671-14.815 14.702-3.36-2.944-2.031-20.807-2.258-27.355-.845-24.418-42.787-10.532-43.293-21.202 4.206-8.594 22.98-15.549 31.296-23.245 12.794-11.837 13.055-15.771 14.489-32.086m106.58-449.227c7.672 1.367 19.73 14.617 29.858 17.046 9.963 2.389 22.863-2.931 31.833-.415 2.22 3.668-4.01 16.078-5.72 21.575-3.87 12.406 14.7 26.688 8.62 34.105-18.33 7.567-26.7-11.277-49.876 10.218-31.836 34.546-18.425 12.238-27.223-12.502-3.615-10.166-22.401-8.415-31.875-16.057l-.725-2.169c4.82-4.554 23.929-14.27 28.193-17.476 9.747-7.326 12.223-22.964 16.915-34.325M1192.41 672.57c8.88 5.349 2.51 15.576 6.81 24.921 5.42 11.756 25.29 7.474 30.78 17.365 3.45 6.217-16.06 13.542-19.88 20.184-4.69 8.17-.1 38.32-7.54 41.318-7.14-2.701-23.37-18.959-29.88-25.07-16.45-13.391-37.58 7.02-47.11-1.241.67-6.435 11.05-15.365 12.56-27.595 1.48-11.977-6.08-21.025-4.6-28.119 6.88-5.624 22.56 2.695 31.57-1.097 10.51-4.43 17.29-14.464 27.29-20.666m33.54 251.099c10.93-.356 2.17 18.542 7.56 26.814 4.49 6.879 24.47 12.073 26.8 16.714-3.23 8.211-21.12 13.276-25.59 20.476-4.86 7.815-2.19 29.817-10.27 35.957-7.65-.74-21.09-18.99-26.57-25.598-14.37-14.811-40.01 3.338-46.57-5.945 1.25-9.062 17.78-17.674 20.24-28.627 2.19-9.8-8.4-19.377-4.99-27.397 5.85-2.782 13.56 1.728 20.45 2.917 16.05 2.77 26.52-6.659 38.94-15.311m392.66-18.294c6.73 4.08 12.53 10.165 19 14.865 9.14 6.645 28.65-.033 36.04 6.856 1.42 6.5-5.53 12.494-8.41 19.064-4.99 11.417 9.38 21.563 6.3 30.307-8.34 5.364-24.24-4.104-39.87.803l-1.05.336c-7.05 4.896-14.71 15.155-22.15 16.37-5.36-3.299-4.13-19.084-7.22-23.578-4.9-7.138-19.53-12.684-22.39-22.035 1.85-6.357 13.63-7.546 19.91-12.582 10.81-8.655 11.15-20.719 19.84-30.406m-386.12-615.986c11.24.819 18.52 13.425 30.15 16.793 9.43 2.731 27.86-6.87 32.77.792.16 6.929-5.21 11.194-5.41 22.079-.2 11.458 6.87 18.956 5.02 26.754-5.58 4.944-23.99-1.03-38.26 2.644l-1.18.31c-6.23 3.846-9.66 11.076-15.48 12.554-5.93-2.468-6.64-11.945-10.14-18.002-7.04-12.183-29.59-2.087-35.3-11.324 2.13-8.344 24.12-15.917 29.52-25.093 5.41-9.196 4.93-17.625 8.31-27.507m-510.753 262.89 2.224-.058c4.979 2.87 11.276 17.067 14.174 22.742-19.928-1.18-42.381-2.494-62.115-4.779-7.642-.256-17.489-1.341-25.277-1.995 19.686-6 50.68-12.043 70.994-15.91M1788.29 944.271c6.01 2.947 5.44 14.389 6.33 20.906 5.94 2.694 11.61 3.166 15.06 8.837l-.75 1.877c-3.64 2.409-6.89 2.048-11.35 2.245-4.91 6.18-7.15 12.791-11.71 18.772-1 1.31-1.99.878-4.04.896-.69-3.702-2.11-14.742-4.14-16.752-2.64-2.625-18.86-7.62-18.79-13.132 1.74-.804 12.96-2.173 17.59-3.745 5.37-5.294 8.52-13.07 11.8-19.904m-206.42-265.748c6.28 3.076 1.34 11.702 4.15 17.802 2.72 5.891 12.52 5.294 15.82 10.804-.74 3.928-11.02 5.671-14.83 9.182-4.85 4.48-5.09 18.495-12.38 17.309-5.72-31.191-16.76-18.981-21.9-28.667 3.82-3.978 15.81-3.266 20.3-9.622 3.87-5.475 5.78-10.924 8.84-16.808m238.08 25.689c7.47 3.299 1.23 10.185 5.49 16.076 3.18 4.411 13.15 7.668 15.62 12.726-1.73 6.779-10.77 4.476-16.26 10.212-5.04 5.261-4.95 12.331-10.37 16.411-2.67-3.379-3.34-12.215-4.89-17.922-5.25-2.561-11.91-5.192-15.98-9.066l.42-1.508c17.02-7.111 20.46-8.757 25.97-26.929m-62.13 343.128c7.75 1.78 7.38 12.92 9.83 20.27 4.28 2.34 10.43 4.86 11.44 9.88-1.68 1.77-8.22 2.78-11.23 3.1-7.75.85-12.47 11.49-17.35 18.6-8.35-1.99-2.62-10.25-3.51-15.9-1.3-8.3-10.9-10.73-16.64-15.73 4.82-6.05 15.87 7.74 27.46-20.22m-245.24-668.136 2.81 1.454c2.35 3.164 1.7 4.926 2.1 8.886 1.34 13.131 12.47 11.221 16.47 14.578-.46 6.208-12.72 9.753-15.27 13.629-3.14 4.777-3.68 10.877-8.32 15.827-6.08-5.949-2.27-11.71-7.18-17.992-3.71-4.754-11.44-5.066-15.26-8.724l.83-1.699c4.18-3.362 9.27-4.626 14.39-6.302 4-6.424 6.49-12.738 9.43-19.657m200.24 174.95c6.06 2.498 2.99 10.967 7.72 15.762 4.61 4.662 15.82 4.719 14.68 12.454-3.71 3.204-9.73 3.886-14.76 4.96-4.75 5.992-5.42 11.35-10.33 17.477-5.5-4.948-3.33-11.277-8.14-17.198-4.22-5.208-14.77-3.368-14.63-10.301 9.88-10.053 18.57 3.506 25.46-23.154m-93.49 492.086 3.35 1.21c4.3 7.47-6.25 14.28-1.66 23.87 3.66 7.62 16.11 7.55 17.7 12.4-7.75 11.11-21.78-19.47-35.07 22.95-3.55.31-2.48.73-5.01-.91-1.09-5.36 5.14-17.36 4.14-22.54-.43-2.26-16.48-6.68-19.05-11.03 2.49-2.06 13.02-1.21 18.35-2.75 10.43-3.03 11.6-13.38 17.25-23.2m-410.85-592.089c1.81.565 1.93.797 3.6 1.783 2.41 4.154 2.3 9.896 3.34 14.847 1.4 6.643 9.36 7.274 16.42 11.411l-.03 1.43c-4.65 3.195-11.96 3.028-15.95 5.348-6.23 3.628-6.73 15.452-8.91 22.819-8.67-3.259-2.53-12.967-7.23-19.561-3.03-4.236-13.46-6.282-16.38-11.187 2.37-2.142 11.84-2.988 14.2-4.357 4.58-2.658 9.13-17.605 10.94-22.533M860.846 681.452c4.66 2.768 5.023 9.722 9.864 16.884 3.436 1.14 9.052 2.587 11.32 5.028-1.281 3.425-9.684 3.606-13.527 7.738-6.494 6.983-3.856 13.175-10.325 21.068-8.134-5.302-6.738-12.689-11.029-19.816-1.334-2.215-9.55-4.207-10.867-8.53 2.28-2.607 13.869-6.036 18.56-9.197 1.967-4.532 3.834-8.737 6.004-13.175M343.018 1125.16c5.199 4.86-23.142 44.85-57.724 32.58l-.684-1.29c-.219-3.02 4.657-12.34 6.173-11.92 6.762 1.99 9.585 3.04 15.906-1.01 12.113-7.75 22.802-13.48 36.329-18.36m749.302-869.382c3.53 3.58 1.46 15.138 2.72 20.38 1.64 6.879 8.51 3.99 16.47 8.464l.47 1.759c-4.03 3.226-15.27 2.58-18.35 5.917-5.41 5.868-6.06 17.02-11.38 23.433-6.33-6.65-1.33-10.02-2.21-19.158-.93-9.668-10.45-7.383-16.47-12.954l.2-2.135c5.41-4.083 11.15-.798 15.8-4.521 5.98-4.793 7.03-16.452 12.75-21.185m54.9 580.692c5.68 2.434 3.07 8.799 6.38 14.145 5.79 9.36 15.25 11.371 24.82 14.182-8.37 3.24-13.34 3.81-20.82 8.863-1.42 6.624-.71 15.229-4.89 19.544-2.82-4.625-4.23-10.105-6.62-14.632-2.99-5.648-14.94-.946-18.98-3.753-.63-6.072 8.82-8.053 12.27-12.552 5.34-6.95 5.92-17.507 7.84-25.797m314.77-215.967c5.5 3.565 4.03 12.827 3.99 18.956l6.5 6.222c3.97.77 14.63.922 16.67 4.262-5.96 2.332-11.72 1.279-17.03 2.835-7.81 2.284-6.14 16.623-9.8 22.706-1.29 2.139-2.21 1.741-4.95 2.258-.19-37.06-14.41-14.63-27.75-26.858 2.86-4.986 20.27-4.601 25.29-7.304 5.63-3.031 3.25-15.296 7.08-23.077m-333.37-245.126 2.53 1.507c3.33 7.47-1.24 14.231-1.36 21.675-.1 6.18 9.86 6.588 15.51 11.131.92 2.95 1.09 1.612-.24 4.168-4.2 1.713-9.5.379-14.07.556-9.79.38-7.33 14.772-13.51 21.347-7.47-7.343.32-14.166-2.98-22.139-1.85-4.478-13.56-6.674-16.36-11.649l1.29-1.932c9-3.131 19.51 5.955 23.58-8.453 1.54-5.419 2.71-11.415 5.61-16.211m-113.86 412.927c9.66 2.849 10.54 19.315 12.85 28.59a144 144 0 0 1 10.53-4.159c3.51-1.189 6.61-1.966 10.07-.287l.11 1.854c-4.7 6.151-11.88 7.894-19.13 10.635 2.68 9.164 4.06 13.294 3.53 22.794l-2.79 1.606-2.25-1.129c-2.92-4.409-5.4-14.331-7.12-19.76-4.61 1.681-15.64 6.359-19.77 2.878 2.3-5.555 12.28-7.918 17.75-9.803-1.23-11.619-4.63-20.894-3.78-33.219m-54.674-554.121c.855.366 2.161 1.201 3.009 1.7 1.807 5.438-.758 14.513-.022 20.457 1.233 9.958 12.997 4.637 18.826 8.687l-.113 1.807c-4.192 2.837-11.149 3.063-15.857 4.901-9.869 3.853-3.423 20.049-13.843 22.747-.592-5.507.7-10.987-.565-16.353-2.449-10.387-17.321-8.01-21.735-15.698 3.465-2.052 13.073-.207 19.806-2.184 5.737-4.995 7.264-17.61 10.494-26.064m30.238 443.933c.914.232 2.442.89 3.38 1.254 1.589 2.951 2.835 12.115 3.864 16.438 4.742 1.107 11.802 2.456 15.342 5.685-.34 5.581-15.113 7.347-17.503 10.872-3.839 5.661-1.958 13.261-5.899 20.5-3.052-4.084-6.095-17.798-7.537-23.311-4.472-3.356-11.26-5.076-14.201-9.302 16.291-5.159 17.392-5.182 22.554-22.136m313.376-23.498c9.34 2.254 8.15 17.686 15.42 23.413 2.22 1.75 11.1 2.124 16.15 4.649l-.09 1.796c-3.96 2.882-9.23.982-15.56 3.905-4.98 5.713-4.1 17.927-5.54 26.362l-2.94-1.4c-2.29-4.32-4.07-14.174-6.25-20.37-6.06-.806-12.73-1.027-18.01-3.725l-.42-1.537c3.66-2.921 14.69-6.28 19.79-8.098-1.05-5.41-2.6-19.598-2.55-24.995m536.45-68.4 2.89.875c4 4.026.87 17.109 2.79 25.226 2.34 2.077 14.05 4.524 19.46 7.493l-.13 1.342c-1.64.452-15.85 1.625-20.57 2.492-1.95 8.105-3.59 18.379-5.13 26.739-2.83-.463-1.61.092-3.82-1.696-1.02-4.51-.91-15.063-1.29-20.555-4.37-1.794-19.34-6.022-20.35-10.178 2.96-1.646 2.5-.971 5.95-.926 18.29.236 18.45-18.302 20.2-30.812m-799.73 331.225c3.32.596 3.3.755 4.59 3.535-.18 5.849-4.68 15.067-7.13 20.823 5.67 2.094 12.21 3.488 14.88 8.739l-.73 1.859c-6.3 2.273-12.49-1.337-18.86-3.898-5.06 6.788-8.74 16.378-16.04 19.976l-2.25-3.002c-1.22-5.802 5.44-15.242 8.58-20.643-5.03-1.41-14.84-3.004-16.57-8.358l1.04-1.59c7.1-2.235 12.58.855 19.67 3.417 4.51-6.296 7.68-13.695 12.82-20.858m625.34-534.236c1.55.509 3.52 1.597 3.66 3.087 2.66 26.611 13.05 8.003 25 17.343l.07 1.752c-4.72 4.501-13.61 5.343-17.55 9.059-1.02.96-5.78 17.158-6.44 19.324-7.63-3.582-3.31-11.292-7.76-15.622-2.93-2.854-15.94-1.175-20.73-5.306 1.4-2.046 14.56-7.45 18.45-9.432 4.77-7.764 4.44-11.336 5.3-20.205m-392.67 409.349c7.84 5.665 1.47 15.602 5.34 22.057 2.19 3.656 17.38 4.912 20.27 8.244-3.21 2.215-12.4 1.961-15.98 3.682-7.37 3.549-7.47 15.57-10.74 24.239-7.56-3.584-2.36-13.979-7.32-20.185-3.53-4.418-15.36-3.775-18.14-8.928 2.77-2.646 10.98-1.774 16.36-4.084 7.36-3.159 7.01-15.435 10.21-25.025m2.12-249.332c6.29 2.133 8.45 12.682 14.66 14.966 4.68 1.718 14.48-2.504 19.32-.335-1.31 5.127-14.66 11.049-16.17 15.554-1.82 5.469 7.31 13.756-1.52 18.327-2.61-4.843-4.5-8.979-6.74-14.015-7.24.038-20.3 3.142-25.59 1.713 1.13-2.176 8.31-6.57 10.79-8.113 14.71-9.17 2.95-15.277 5.25-28.097m43.66-125.894 2.37.946c6.48 9.399-8.69 22.049 8.33 26.027 3.03.708 8.59 2.81 11.07 4.461l.08 1.478c-3.85 2.449-13.66 1.898-17.96 4.12-5.42 2.8-6.12 16.474-8.78 24.194-7.45-3.763-1.79-13.336-2.78-20.201-1.39-9.575-13.03-5.423-18.87-10.026l.07-1.559c5.34-2.323 11.81-1.853 18.87-4.158l1.04-.347c1.62-6.947 3.83-18.903 6.56-24.935M919.983 532.524l2.036 1.383c1.46 3.092.269 13.359.961 19.445l.154 1.297c7.979 4.26 12.546 5.031 19.503 8.445l.448 1.443c-4.081 2.767-12.413 2.833-18.485 5.388-2.566 5.733-.625 13.597-3.63 22.477-1.882-.524-2.079-.74-3.86-1.614-4.022-5.373-2.458-14.881-2.126-21.863-6.515.253-12.826 1.46-17.974-2.254l-.058-1.377c3.282-2.707 11.228-4.442 15.815-5.852 4.348-8.745 3.041-18.755 7.216-26.918m778.137 125.84c6.46 2.337 1.35 14.241 5.65 21.857 3.34 5.919 10.02 4.858 17.61 7.32l.34 1.19c-5.75 3.886-17.51.227-20.74 7.816-3 7.036-3.5 14.253-7.28 21.046-5.62-4.07 1.12-15.606-2.53-20.224-3.35-4.251-16.07-5.832-20-10.91l.45-1.122c3.36.043 14.51.56 16.61-.337 7.7-3.303 5.54-18.002 9.89-26.636"/><path fill="#fefefe" d="M829.163 436.516c5.698-.475 15.621-1.867 20.485.237l.781 3.378c-4.977 1.561-16.724-1.503-21.266-3.615"/></svg>