<svg xmlns="http://www.w3.org/2000/svg" preserveAspectRatio="xMidYMid meet" viewBox="0 0 2048 1152"><path d="M162.968 57.807c8.681-.462 31.612 2.942 41.569 4.19a5282 5282 0 0 1 84.71 11.05C340.134 79.904 403.57 86.144 455.083 90.2a9725 9725 0 0 0 687.807 28.172c181.74.561 363.45-4.65 544.87-15.623 51.77-3.291 103.88-7.089 155.81-11.747 26.01-2.333 58.79-9.164 85.39-10.915 2.33-.153 4.62 2.046 6.06 3.867 2.14 5.045-15.49 66.978-17.96 76.182l-27.32 102.994-23.04 87.006c-4.48 17.128-8.87 36.999-14.33 53.536 4.52 20.059 11.92 38.652 25.88 54.091 6.93 7.659 23.47 11.43 24.37 21.038-2.39 4.955-7.73 7.043-12.76 4.54-21.99-10.961-34.32-29.744-44.2-51.459-4.41 13.158-11.79 46.192-15.4 60.996-8 32.828-18.81 71.26-24.82 104.225a154.4 154.4 0 0 0 58.4 80.238c7 5.034 24.12 9.543 14.53 20.325-3.48 1.465-7.15 1.083-10.42-.665-29.54-15.803-53.96-46.736-68.31-75.979-6.79 22.505-15.63 65.715-20.54 89.281a4634 4634 0 0 0-22.98 111.931 5237 5237 0 0 0-29.63 153.619c-3.21 17.913-8.75 57.148-14.56 76.398-.5 1.64-3.23 2.2-5.05 2.42-3.77-1.28-4.39-2.42-6.94-5.47l-153.37-9.07a15818 15818 0 0 0-328.7-17.94c-208.48-5.49-417.065-6.03-625.575-1.64l-184.539 4.71c-29.818.99-59.659 2.72-89.467 3.87-2.749.11-7.615.21-9.774-1.29-2.573-1.78-3.2-2.55-3.674-5.6-2.727-17.55-5.003-35.625-7.227-53.209l-12.388-99.88c-11.465-93.918-24.842-190.373-37.589-284.215a7326 7326 0 0 0-12.825-94.726c-2.718-19.745-5.447-42.339-9.528-61.718-8.473 10.745-46.411 46.12-59.6 42.258-10.582-10.838 9.204-15.422 16.139-21.112 14.728-12.084 28.075-25.279 41.702-38.544-.531-8.162-4.551-29.397-6.116-38.681-4.003-23.745-7.469-49.936-12.891-73.136-15.717 14.305-31.555 29.345-50.888 38.669-6.257 3.018-22.203 8.21-27.395 1.611.923-10.543 21.744-14.839 30.238-19.869 17.293-10.242 31.071-24.151 44.756-38.641-1.716-7.558-3.153-15.986-4.424-23.728-10.583-64.462-25.305-127.913-38.359-191.808-.488-2.389 2.954-5.918 4.522-7.704"/><path fill="#fefefe" d="M264.496 82.973c10.955 2.038 45.862 4.438 59.024 5.666l135.755 12.401a6399 6399 0 0 0 143.712 12.415c29.831 1.953 61.641 2.971 91.739 4.591a7736 7736 0 0 0 466.854 12.035 7106 7106 0 0 0 667.59-25.343l-94.6 442.961c-20.13 97.664-41 195.172-62.62 292.516-4.41 23.68-10.8 49.378-15.94 73.192a4757 4757 0 0 0-24.13 117.643c-22.61.07-49.77-1.99-72.57-3.21-36.65-1.98-73.3-3.75-109.97-5.29-158.45-6.9-316.65-15.39-475.308-16.65-130.408-1.3-260.828-.67-391.217 1.91-52.464 1.01-104.9 2.65-157.364 3.44-11.513.18-24.254 1.47-35.59-.26-2.996-5.43-26.713-201.355-29.626-224.182l-61.137-471.244-21.371-146.498c-4.087-26.193-10.8-60.512-13.231-86.093"/><path d="M347.905 154.943c7.215-.446 20.33 2.613 28.249 3.434 90.39 9.382 181.588 16.391 272.346 21.121 50.148 2.613 101.652 3.099 151.93 4.63a19487 19487 0 0 0 365.2 7.35c89.46.993 178.94.559 268.39-1.301 43.89-.533 87.78.02 131.66-1.509 37.18-1.295 74.67-2.932 111.77-5.652 15.81-1.159 48.1-7.846 61.4-5.598 2.71.459 5.35 1.735 6.86 4.12 7.23 11.426-89.88 413.826-99.16 454.153a11611 11611 0 0 0-43.59 195.084c-9.54 43.301-18.36 86.986-26.01 130.65-2.75 15.661-19.38 9.616-32.31 8.798l-51.78-3.109a3591 3591 0 0 0-135.87-4.921c-37.93-.695-76.23-1.783-114.12-3.67-12.17-.606-24.17-1.373-36.37-1.719-84.48-1.615-168.98-2.573-253.476-2.875-43.052-.227-89.236-1.795-132.056-1.175a9784 9784 0 0 0-246.087 6.743l-78.955 3.647c-16.688.859-34.131 2.472-50.805 1.262-4.272-.31-6.267-6.691-6.778-10.28a38606 38606 0 0 1-78.006-615.664 6960 6960 0 0 1-13.713-116.275c-2.112-18.014-6.499-41.591-5.678-59.55.14-3.053 4.522-5.942 6.959-7.694"/><path fill="#fefefe" d="M1052.24 516.633c9.44 3.589 16.72 8.152 25.43 12.87 49.49 26.81 80.37 73.657 96.2 126.72 4.3 13.583 5.42 32.34 13.25 44.174 2.38 3.596 28.78 2.359 33.86 2.447l70.29 1.265c71.6.659 143.18 2.33 214.73 5.013 33.97.998 76.9.767 109.95 3.292-4 24.152-11.62 55.814-17.05 80.19a3518 3518 0 0 0-17.73 85.024c-8.7-5.393-23.09-11.063-33.07-13.412-.12-4.752.52-10.195.95-14.986 29.51-19.284 35.73-70.12-4.25-78.111a47.2 47.2 0 0 0-36.26 7.723c-23.35 16.171-30.9 45.43-13.98 69.173-2.55 27.713-14.26 16.8-30.9 5.742 13.67-12.101 18.91-22.046 21.23-40.259 5.2-40.669-37.36-63.574-67.56-36.032a52.43 52.43 0 0 0-16.96 36.967c-.65 16.626 4.38 26.288 15.1 37.887-5.2 1.152-11.74 1.851-17.11 2.571-11.85-7.38-16.48-9.861-29.69-14.233l-2.93-9.134c18.97-16.986 26.96-36.728 19.96-62.152-5.38-21.296-29.55-32.505-50.23-26.285-30.7 9.232-42.21 57.575-21.85 81.224 3.63 4.221 9.07 5.62 10.56 10.007-.55 1.544-1.07 4.331-2.73 4.54-16.94 2.133-27.34 6.995-40.67 18.018-12.92-10.326-14.69-12.131-30.94-14.532-3.21-7.088-3.54-10.923-4.8-18.514 11.35-13.692 13.45-22.39 13.56-40.249 1.11-43.364-52.97-77.68-85.19-40.713-22.47 25.778-23.36 57.465 2.53 80.489-6.65 27.086-7.52 15.728-28.04 25.131-23.51 10.779-35.08 45.842-41.97 69.288-20.32-45.844-26.35-53.224-71.69-74.1-.62-9.164-1.21-17.256-2.44-26.343 10.08-13.274 12.63-19.901 13.27-36.168-.02-13.742-7.04-34.532-18.51-42.225-60.968-40.879-116.987 40.944-56.026 86.614-.76 8.519-1.664 12.116-3.85 20.517-35.029 11.259-53.199 21.806-66.573 58.78-4.605 12.731-10.486 23.317-12.515 37.409a211 211 0 0 0-4.554-11.902c-18.371-43.322-33.912-59.313-75.619-76.164-.365-7.239.005-16.844.088-24.255 13.661-15.743 22.276-33.242 13.638-54.084a46.95 46.95 0 0 0-25.605-25.144c-25.27-10.431-60.923-1.364-70.313 26.412-11.087 32.797-.845 50.389 29.843 61.94l1.585 13.208-.508.094c-13.974 2.68-24.462 6.262-36.358 14.652 1.125-27.64-10.565-49.905-39.438-55.937a50 50 0 0 0-37.087 7.155c-30.266 19.904-27.829 54.554-9.9 81.995l-12.415 4.722c-3.345-23.478-10.106-43.248-31.099-56.676a89.1 89.1 0 0 0 23.098-55.241c1.582-34.808-17.95-53.808-52.295-56.244-50.437-3.576-69.56 64.197-35.928 94.66 2.976 2.696 7.156 3.164 10.68 6.823.19 1.605.702 2.556-.981 3.383-31.921 15.674-50.14 50.713-66.25 80.869-4.56 8.535-9.347 19.146-15.676 27.772-1.13-8.519-3.649-17.749-5.032-26.583a3709 3709 0 0 1-10.516-76.14c17.849-.332 36.879-2.533 54.855-3.082 3.339-.102 7.813-3.127 7.758-7.124-5.485-4.443-52.093 1.575-64.107 1.722-4.534-35.394-8.669-72.561-14.948-107.553 10.93-.861 22.103-.415 33.122-1.467 76.296-7.2 152.376-15.771 228.942-19.822 28.741-1.521 57.688-2.574 86.422-4.89 15.565-1.254 39.195 1.506 53.874-2.289 8.494-15.16 11.55-34.406 17.663-50.824 12.329-33.114 26.72-66.756 49.392-94.225 19.843-24.04 45.385-31.82 73.678-40.825 1.474 1.507 4.426 6.896 6.266 9.435 9.593 13.239 16.825 29.115 23.691 43.713 3.604 7.66 8.068 21.992 15.838 23.6 2.84-.796 6.12-3.174 7.16-5.895 10.29-26.79 17.82-48.34 35.68-71.416"/><path d="M834.984 831.313c12.282-.655 87.925-2.423 93.94 3.442.793 2.956.923 1.743-.554 4.536-3.712 2.065-2.035 1.587-6.545 1.534-12.785-1.621-88.508.671-92.454-1.692-1.882-3.224-1.679-1.877-1.172-5.119 2.729-2.641 2.434-1.897 6.785-2.701m239.176.132c11.43.518 61.53-.756 67.28 5.717-1.73 8.241-20.38 4.586-27.12 4.121-17.66-1.099-35.18-1.07-52.85-.798-4.33.067-12.2-.467-15.4-3.716l.21-1.934c4.29-3.964 21.22-3.2 27.88-3.39M899.044 655.408c3.855.543 4.544.567 6.424 3.688.475 8.182-4.808 69.725-7.295 74.06-1.841-.187-6.51-1.139-6.423-3.364.592-15.205 1.868-62.114 7.294-74.384m202.706-.184 3.27.637c5.92 4.903 12.27 65.652 8.37 72.323-2.24-.3-7.23-1.133-7.38-3.86-.62-11.618-7.92-61.071-4.26-69.1m-36.12 122.929c8.91 1.44 51.51-2.983 52.34 6.641-1.96 2.7-1.16 1.798-4.98 3.308-10.43-.95-48.3.276-54.22-4.768l-.02-2.08c2.02-2.121 4-2.312 6.88-3.101m-391.431-13.736c2.201-.538 3.511-.234 5.799-.014 2.547 1.504 3.103 1.564 4.141 4.14l-.973 1.929c-6.069 3.953-25.795 4.5-33.927 5.248l-6.759.356c-2.664-1.439-1.766-.73-3.351-3.705l.775-2.071c5.866-4.461 26.093-5.119 34.295-5.883m176.852 11.866c7.73-.762 37.197-2.518 42.206 2.134.701 3.448.675 2.074-1.235 6.099-10.007-.907-35.039 1.872-40.877-2.215-1.39-3.09-1.073-1.808-.094-6.018m-385.562-8.768 5.12.388 1.882 2.707-.811-2.129.509.467c.707 2.398.723 1.191-.39 3.715-4.849 4.523-14.627 4.264-21.1 4.582l-5.177-.012c-2.802-1.832-1.894-.817-3.369-3.934l.592-1.617c4.635-3.799 16.535-3.748 22.744-4.167"/><path fill="#fefefe" d="M1016.56 317.427c52.13-9.101 91.93 95.682 101.3 134.557 6.87 38.072-18.58 46.132-49.08 50.014-36.44 4.64-31.37 2.179-33.68-32.38 21.56-11.079 24.55-21.106 24.43-44.812 28.26-22.702-4.8-42.333-15.08-29.196-.98 4.044-1.26 2.802-.07 5.943 5.83 2.801 10.7-2.92 16.29 1.99 2.33 9.28-6.3 11.478-11.49 16.248-3.08 2.831 1.06 12.858.88 17.413-.55 13.93-15.24 19.543-23.79 28.05-2.31 5.874 1.36 32.187 2.11 39.825 5.34 7.877 6.98 4.392 10.03 9.143.19 7.075-17.02 19.769-23.03 22.585-16.479 1.077-33.732-6.681-40.792-22.117 16.671-4.72 17.177-14.176 17.584-30.189 1.189-46.87-25.584-4.659-22.478-64.468l-.935-.596c-4.198-2.701-12.744-9.521-13.823-14.454 3.545-7.244 10.376-.089 16.905-7.29-.433-12.364-31.816-8.109-26.155 8.792 3.189 9.522 4.372 12.083 13.047 17.559.54 23.878 1.513 34.501 23.266 46.693.894 12.552.588 16.263-.989 28.42-19.951-.255-69.967-10.185-68.943-36.848 2.04-53.174 44.162-140.668 104.493-144.882"/><path d="M1007.57 345.485c3.94.435 3.99.613 6.23 2.894 1.07 12.584-27.909 31.662-38.513 36.152-3.85-1.035-2.586-.226-5.171-2.821-.247-2.085-.645-3.574 1.304-5.327 14.232-12.804 24.203-14.718 36.15-30.898m15.46 3.63c5.89 2.103 22.01 24.187 24.98 31.279.98 2.333-1.35 4.974-2.55 6.766-7.73-3.409-26.89-26.611-25.78-35.484z"/><path fill="#fefefe" d="m1576.49 292.388 11.15 5.273c-12.51 21.569-22.24 44.766-32.8 67.315-5.25 11.195-12.02 22.62-15.96 34.324-.69 2.058-1.76 5.329-.6 7.308 4.17 7.115 74.36 32.995 84.91 35.358 2.2.494 2.61.291 4.48-.919 1.47-2.624 1.88-3.118 1.65-6.07-3.32-4.055-67.13-25.52-79.33-32.423 2.35-6.086 5.08-13.285 8.76-18.579 19.32 9.271 40.52 17.478 60.26 26.114 8.04 3.517 38.79 18.724 44.38 19.689 5.84-3.779 7.26-12.904 9.21-19.755l11.34 5.606c-4.59 17.572-7.94 36.255-12.62 54.367-10.61-1.93-47.71-19.442-50.51-19.347-2.23 2.415-3.22 3.91-2.49 7.471 8.81 42.511 19.15 85.301 24.25 128.467.85 7.233-4.18 25.858-6.02 33.754-7.36-27.1-28.8-160.784-38.42-172.773-3.3-.719-1.99-.858-5 .418-2.1 2.909-3.09 6.764-2.79 10.347 3.62 43.545 10.27 87.335 13.06 130.906 3.08 34.881 3.91 72.709 4.91 107.804l-17.12.831c-.79-11.148-.53-25.26-.88-36.778-.75-20.117-1.75-40.224-3.01-60.317-2.96-46.655-8.66-93.678-9.07-140.399-.05-5.784-2.17-10.281-8.71-9.565-8.85 17.283-21.14 55.728-28.67 75.719-20.95 55.615-41.53 112.112-68.2 165.366l-15 .045c3.95-12 9.84-24.966 14.65-36.765 10.71-26.28 22.36-52.241 32.69-78.689l35.26-91.023c6.55-17.421 14.1-40.834 21.74-56.863-14.56-9.462-31.79-13.135-45.4-24.6 6.68-15.861 18.89-38.61 26.95-54.115 8.75-16.846 22.19-41.937 32.95-57.502m-378.92 558.036c19.21-2.359 48.85 1.84 67.65 6.483-2.44 26.767-2.32 64.283.7 91.048-14.76-.861-30.8-1.073-45.67-1.545a2103 2103 0 0 0-71.94-2.778c-1.03-17.576-6.9-67.555-3.88-81.108 17.48-11.087 32.95-10.703 53.14-12.1m-647.793-1.195c9.066-1.09 23.727 2.692 31.596 6.706 29.294 14.942 31.486 59.219 34.894 88.768-28.996.886-57.98 2.15-86.943 3.791-18.509-.41-42.947 2.622-63.535 2.445 17.535-35.426 41.778-92.691 83.988-101.71m115.78-652.898c9.437-.7 14.933-.635 24.287.159a3466 3466 0 0 0-14.162 373.516c.445 28.472.296 55.532 2.548 84.023 1.029 13.02.685 24.368 2.643 37.744.209 2.943.693 4.69-.83 7.133-4.385 2.661-11.299 1.779-16.85 1.737a4693 4693 0 0 1-3.282-303.051l2.812-128.904c.742-24.259 1.044-48.071 2.834-72.357M769.2 860.316c13.39-.998 28.812 1.756 41.368 6.337 36.784 13.421 48.985 38.829 64.378 71.784-19.307.615-38.124-.29-58.614.599a5818 5818 0 0 0-66.716.091c-5.885-20.326-20.169-34.02-39.648-41.122 14.499-21.274 18.741-27.953 45.45-34.8 5.201-1.333 8.307-.814 12.933-2.562zm728.26-626.293c28.1-2.648 22.74 26.009 16.07 43.206-11 28.341-29.31 68.709-58.16 82.566-31.02 3.882-20.73-34.9-14.67-51.611 10.09-27.826 27.51-62.813 56.76-74.161"/><path d="M1497.76 242.818c16.41.977 9.57 23.774 6.31 33.417-8.58 25.375-25.91 59.408-50.66 72.13-2.93 1.069-5.92-.423-8.09-2.236-5.64-11.765 11.45-50.47 17.43-61.929 8.19-15.708 18.64-33.312 35.01-41.382"/><path fill="#fefefe" d="M1204.12 737.195c38.16-.799 58.41 47.086 36.13 76.997-5.79 7.787-16.73 8.887-26 9.054-68.87.159-55.88-77.489-10.13-86.051m-651.137 10.137c53.846-2.255 57.792 40.952 39.171 79.917-7.974-6.673-12.964-7.431-23.045-7.359-19.43 7.259-40.831 15.609-48.382-13.986-6.795-26.633 3.427-52.057 32.256-58.572m967.287 124.155c24.14-.75 38.01 6.703 58.45 16.715l-13.43 70.959c-3.75-.161-8.25-.676-12.05-1.012-12.79-.244-24.65-1.186-37.74-1.179-.47-18.664-4.69-42.113-10.87-59.888-2.07-5.968-9.75-18.055-10.14-22.576 4.55-3.118 19.84-2.826 25.78-3.019M990.261 738.905c22.369-2.55 42.619 13.386 45.409 35.728 2.78 22.342-12.95 42.758-35.26 45.772a41.065 41.065 0 0 1-43.271-56.809 41.07 41.07 0 0 1 33.122-24.691m329.709 110.413c17.91-2.636 48.59-.677 64.69 9.177-25.78 18.818-37.77 41.972-53.6 69.534-2.89 5.924-7.9 16.943-11.62 21.747l-1.85.228c-10.12-6.634-22.19-64.549-31.86-81.998l-.54-.959c10.15-10.483 20.54-15.605 34.78-17.729m-651.977-28.949c19.549-.234 37.624 12.239 40.709 32.615 2.651 17.503-6.647 26.879-16.45 39.761-6.438.962-16.112 1.256-23.014 1.851l-23.048 2.441c-27.507-26.992-17.846-69.815 21.803-76.668m94.077-62.249c12.403-.703 23.253-.986 34.748 5.402 15.905 8.838 22.911 29.731 13.396 45.822-6.687 11.308-15.937 14.642-27.982 17.913-11.462 2.926-25.352 3.117-35.797-3.048a29.48 29.48 0 0 1-13.654-18.181c-5.562-21.638 7.87-42.37 29.289-47.908m579.45-5.939c50.69-2.448 46.33 61.734 8.93 73.626-34.74 4.568-44.57-26.775-32.53-54.176 5.1-11.58 12.5-15.458 23.6-19.45m101.06 24.017c9.99 1.363 15.22.318 23.48 8.176 19.93 18.963 3.93 66.348-24.14 65.856-5.62-1.618-13.62-2.637-18.51-5.517-17.04-10.032-16.17-36.227-6.24-50.925 6.58-9.752 13.85-15.275 25.41-17.59m83.88 5.03c31.68-2.614 44.78 14.493 30.56 45.514-4.24 9.246-15.15 14.373-24.71 16.863-52.39 10.061-43.68-49.36-5.85-62.377m-3.32-499.611c5.77 5.81 17.24 32.825 21.31 41.698-6.12 13.549-15.95 31.074-23.02 44.563-2.57-.804-6.68-2.718-9.32-3.86-9.15-3.807-18.33-7.53-27.55-11.167 17.1-22.545 30.57-43.983 38.58-71.234m62.32 42.716c27.49 15.304 59.4 35.988 87.25 52.566-1.84 4.665-4.36 15.035-7.52 18.074-21.74-8.702-67.77-35.741-89.73-48.21 3.13-7.393 6.71-15.068 10-22.43m-549.63 530.654c11.18 3.94 19.4 9.731 29.09 16.353.45 21.761-.32 46.738-3.43 68.342l-.46.865c-3.91.969-20.26.23-25.28.111.71-7.384.13-22.938.05-30.885-.3-18.261-.28-36.526.03-54.786m-54.93-1.726 11.126-.521c-.136 26.558 1.003 60.458 3.397 87.193l-12.671-.245-11.817-.737c-.004-19.083-2.902-63.418-5.534-81.953 4.629-1.39 10.694-2.62 15.499-3.737"/><path fill="#fefefe" d="M1597.51 302.373c7.49 3.572 16.44 9.114 23.51 13.619 24.55 15.659 51.84 29.368 75.7 45.874-2.12 10.047-6.97 33.589-10.34 42.402l-1.9.689-7.58-5.011c2.65-7.008 5.49-15.054 7.35-22.33.51-4.366 1.23-5.694-2.7-8.119-28.6-17.644-63.97-34.834-90.73-54.687 2-4.786 4.04-8.035 6.69-12.437M1003.1 851.19c7.77-.271 15.19.458 22.93 1.063-.1 9.827.44 85.353-1.19 88.035-6.37.105-13.35-.097-19.78-.159-2.31-22.27-2.02-62.639-3.51-86.514.6-.949 1.12-1.758 1.55-2.425m545.08-649.154c6.42-.351 12.31-.329 18.72-.302-.1 26.24 3.62 54.565 3.1 80.63-5.41 5.89-6.74 8.41-10.7 15.235l-6.86 10.807a3443 3443 0 0 1-3.53-72.54c-.29-7.085-1.58-27.618-.73-33.83m23.15 153.449c20.45 10.725 40.4 24.597 61.14 35.096 9.9 5.009 19.86 9.736 29.9 14.428-1.41 4.211-2.29 7.095-4.37 11.01l-1.45.214c-4.85-1.432-30.14-13.807-36.39-16.79-16.91-8.066-42.2-16.733-57.67-25.603zM439.838 422.35c6.886 3.937 9.464 23.229 19.225 28.37 12.86 6.772 27.052 2.249 39.99-.877-20.78 16.569-29.372 23.007-20.68 52.024l-.83 1.203c-23.217-25.772-22.819-32.438-59.11-19.382 8-5.103 12.776-7.888 19.346-14.954 13.34-14.35 2.857-29.904 2.059-46.384m514.427 438.516c.133.047.289.054.398.142 4.303 3.484 5.712 67.659 6.144 77.992-5.141.105-12.795 1.683-15.138-3.049-3.501-20.562-7.041-43.107-12.45-63.058 8.005-5.957 12.177-8.113 21.046-12.027m320.215 8.899c7.43 6.563 21.87 63.315 28.49 79.228-10.03-.105-18.18-.349-28.15-1.178-.08-27.509-2.01-49.64-.34-78.05M595.487 424.556c6.167 15.15 13.417 18.685 27.81 23.772-13.55 7.213-9.898 14.887-7.954 28.262-5.619-5.111-8.7-7.821-15.763-10.593-8.854-.076-16.148 3.798-23.654 7.889 3.761-13.081 6.222-18.701-3.91-29.37 15.468-3.386 17.804-5.549 23.471-19.96m327.872 457.141c4.804 5.267 9.83 45.573 12.284 56.416q-12.942.516-25.893.697c-3.338.023-7.469-.24-10.874-.361 3.822-14.887 16.804-43.516 24.483-56.752m-441.98-609.76c7.097 20.593 18.657 26.68 40.085 27.477-19.267 7.106-24.585 12.893-29.244 33.266l-.356.438c-2.663-.378-7.858-22.602-35.859-24.285.38-1.663 9.375-4.407 13.169-7.299 10.703-8.159 10.548-17.112 12.205-29.597m891.081 611.796c1.17 4.157-9.4 57.355-11 66.448q-14.13-.225-28.26-.025c-1.85-8.115 32.07-58.155 39.26-66.423m-297.33-.259c8.02 5.577 29.65 52.955 25.68 58.539q-14.625-.05-29.25-.541a639 639 0 0 0 3.57-57.998m56.26-2.842c3.72 4.92 5.6 51.851 7.03 62.437-6.75.056-13.91-.269-20.69-.466-4.37-.711-3.08.12-5.42-2.694-3.05-10.733 13.46-48.577 19.08-59.277M517.479 600.796c1.068 1.125 3.024 4.806 3.767 6.308 9.255 18.728 15.838 20.01 35.305 24.252-13.257 6.245-15.115 13.213-17.463 26.411l-.642 3.952-1.341.733c-14.089-10.809-4.179-18.273-31.73-18.601 18.417-15.89 15.634-20.629 12.104-43.055m504.011 224.41.53-.018c1.46 2.082 1.83 14.731 2.07 18.229-12.68-2.885-33.033-1.976-45.921.234-.166-1.619 2.389-12.252 2.878-15.758 2.304.807 4.678 1.603 7.045 2.201a44.67 44.67 0 0 0 33.398-4.888m163.58 3.428c19.41 4.472 30.12 6.795 50.45 1.593l2.13 10.781c-19.24-.499-37.98-.091-57.21.269 2.58-5.27 3.21-6.954 4.63-12.643M991.701 543.541c13.749 4.517 19.209 6.215 32.219-.302-3.39 6.606-6.87 14.895-9.95 21.785-1.51 2.853-3.83 10.447-4.96 13.83-5.36-11.443-11.096-24.445-17.309-35.313m503.719 364.194c5.21 4.744 11.8 43.234 8.4 48.87l-2.76-.211c-3.98-.015-7.08.259-10.77-1.241-.46-4.119 4.79-38.603 5.13-47.418m-699.374-73.653.55.242c1.967 2.638 1.318 13.092 1.428 17.682-10.87-2.418-16.31-2.222-27.275-2.074-1.729.294-2.384.037-4.067-.315-1.126-2.322-.849-3.302-.759-5.979 4.228-5.728 19.333-5.846 30.123-9.556m708.274 18.274c6.34 1.873 16.84 3.874 23.6 3.075 3.77-.445 3.73-1.407 9.13-1.544l.72 1.031-1.51 7.589c1.19-.363-30.55-.635-33.18-.507.66-2.68.94-6.798 1.24-9.644M457.397 571.474a8.433 8.433 0 1 1 5.641 15.894 8.433 8.433 0 0 1-5.641-15.894m860.693-214.445c3.94.259 5.16.101 8.48 2.453 3.45 6.748-1.62 9.092-7.04 11.839-5.14.744-6.47 1.016-9.98-3.034-.62-6.672 2.7-9.174 8.54-11.258M569.618 831.13c5.586-.418 11.205.468 13.866 5.823-2.492 7.612-10.37 3.909-16.04 2.195-5.108-.178-11.318-.236-16.282-1.002l-.768-.124 2.016.462-1.165-1.156.445-.164.467 1.301.491.064.433-1.804c6.23-1.55 10.583-3.298 16.537-5.595m20.267-617.725a8.047 8.047 0 1 1 4.24 15.525 8.047 8.047 0 0 1-4.24-15.525m-8.175 108.869a7.902 7.902 0 0 1 11.469 7.797 7.904 7.904 0 1 1-11.469-7.797m-66.119 61.074c3.873.416 5.951.223 8.672 3.06 2.519 6.875-.957 9.609-6.37 13.136-9.625-1.86-11.993-12.452-2.302-16.196m250.238-152.212a7.837 7.837 0 1 1 2.592 15.459 7.837 7.837 0 0 1-2.592-15.459m-361.385-6.508a7.557 7.557 0 1 1 8.713 12.35 7.557 7.557 0 0 1-8.713-12.35m364.18 127.785a7.357 7.357 0 1 1 5.247 13.746 7.357 7.357 0 0 1-5.247-13.746m481.006 304.232c6.25 1.602 7.39 4.403 5.98 10.267-3.03 3.357-1.97 2.359-6.56 3.87-4.81-.773-5.39-.74-8.09-3.959-1.03-6.519 3.1-8.627 8.67-10.178M501 201.782a7.19 7.19 0 0 1 7.698 6.44 7.191 7.191 0 1 1-13.687-2.272 7.19 7.19 0 0 1 5.989-4.168m110.359 366.437a7.177 7.177 0 1 1 4.05 13.772 7.177 7.177 0 0 1-4.05-13.772m116.582 23.989a7.148 7.148 0 1 1 4.643 13.52 7.15 7.15 0 0 1-4.643-13.52m235.887-348.575c10.44.993 9.751 9.103 1.893 14.588-2.863-.067-3.562-.375-6.295-1.294-5.185-5.65-.167-9.296 4.402-13.294m280.012 187.122c3.12-.263 3.57-.161 6.61.64 2.59 2.47 1.92 1.18 2.38 4.935-1.3 4.145-2.43 4.869-5.59 7.822-3.24-.022-3.83.006-6.87-1.057-2.52-2.713-1.97-1.402-2.24-4.883 1.27-3.849 2.7-4.74 5.71-7.457m424.08-204.06c3.49.586 3.95.68 6.86 2.677 3.27 6.098.23 8.332-4.9 11.629-2.93-.03-3.29-.222-5.9-1.61-4.13-5.919-1.11-9.017 3.94-12.696m-808.842 27.418a6.818 6.818 0 1 1 4.242 12.96 6.818 6.818 0 0 1-4.242-12.96M433.505 367.67a6.767 6.767 0 1 1 1.638 13.435 6.767 6.767 0 0 1-1.638-13.435m433.778 34.03c2.912.199 3.434.681 5.927 2.271 3.085 5.744-.63 8.694-5.305 11.659-2.812-.417-3.185-.704-5.792-1.959-2.171-2.979-1.787-1.61-1.577-5.116 1.793-3.748 3.33-4.496 6.747-6.855m206.547-132.076c2.62-.015 3.6.173 6.19.659 2.76 2.208 1.98 1.015 2.85 4.536-.83 3.873-2.28 5.085-4.91 8.045-11.1.414-10.76-6.597-4.13-13.24M538.297 514.426a6.642 6.642 0 1 1 6.203 11.747 6.642 6.642 0 0 1-6.203-11.747m606.163-81.448c3.21-.145 3.81-.122 6.94.578 2.81 2.568 2.14 1.288 2.75 4.749-1.08 3.873-2.01 4.416-5 7.068-5.35-.236-7.61-.604-9.06-5.745.62-3.345 2-4.302 4.37-6.65m291.1-9.292c1.18.152 3.1.643 4.33.912 3.02 2.629 2.32 1.323 3.04 4.835-.86 3.685-1.87 4.263-4.64 6.665-2.09-.104-3.4-.463-5.44-.921-2.74-2.466-2.12-1.24-2.63-4.532.89-3.529 2.64-4.606 5.34-6.959m-42.99 192.966c4.53 1.032 5.7 1.451 6.42 5.8-1.05 3.519-2.74 4.294-5.69 6.38l-5.23-1.373c-2.4-2.451-2-1.332-2.25-4.284 1.33-3.539 3.53-4.479 6.75-6.523m-13.04-384.241c4.72.247 5.98.123 8.42 3.944.08 3.249-.89 4.206-2.71 6.815-4.53.196-5.79.522-8.32-3.012.02-3.768.74-4.616 2.61-7.747M757.44 450.518a5.296 5.296 0 0 1 6.272 6.761 5.298 5.298 0 1 1-6.272-6.761M460.46 667.295a5.21 5.21 0 1 1 .799 10.388 5.21 5.21 0 0 1-.799-10.388m828.79-384.947a4.93 4.93 0 0 1 4.77 1.392 4.97 4.97 0 0 1 1.15 4.839 4.95 4.95 0 0 1-3.65 3.384 4.94 4.94 0 0 1-5.89-3.682 4.943 4.943 0 0 1 3.62-5.933M609.542 651.347a4.728 4.728 0 1 1 3.968 8.583 4.728 4.728 0 0 1-3.968-8.583m725.588 183.948c6.55.88 12.83-.312 18.97.763 1.54.27 1.74 1.503 2.66 3.178-5.26-.16-18.92.821-22.35-1.808zM821.68 549.304a4.64 4.64 0 1 1 3.853 8.431 4.64 4.64 0 0 1-3.853-8.431m367.34-20.029a4.603 4.603 0 0 1 3.71 8.421 4.602 4.602 0 1 1-3.71-8.421m98.05-1.914a4.255 4.255 0 0 1 5.33 2.797 4.25 4.25 0 0 1-2.81 5.326 4.245 4.245 0 0 1-5.31-2.802c-.7-2.24.55-4.621 2.79-5.321M172.462 72.597c25.973 3.293 53.012 5.65 79.144 8.478l90.927 680.18a16209 16209 0 0 1 21.969 171.225 4808 4808 0 0 1 7.265 56.486c.682 5.443 2.953 18.604 3.009 22.944-19.193 1.5-37.962.66-57.349 2.3-.838-22.558-7.444-60.607-10.39-84.614a11540 11540 0 0 0-25.522-196.971c-14.966-108.65-27.252-217.258-44.429-325.749-17.848-112.736-42.055-222.649-64.624-334.28M1907.07 98.614c3.53-.561 5.86-1.2 9.3-.079-.08 7.14-14.75 57.008-17.65 68.197-4.16 16.012-9.12 35.717-13.36 52.092a12921 12921 0 0 0-80.69 322.132 10077 10077 0 0 0-80.57 372.649c-8.04 40.19-14.54 82.48-22.88 122.055l-41.64-2.46-12.51-.78c3.36-24.55 9.75-51.995 14.66-76.518a8054 8054 0 0 1 31.93-153.012l93.86-445.147 37.68-172.053c5.38-24.381 14.35-58.237 18.2-81.933 20.7-2.572 42.73-2.565 63.67-5.143"/></svg>