<svg xmlns="http://www.w3.org/2000/svg" preserveAspectRatio="xMidYMid meet" viewBox="0 0 2048 1462"><path d="M1113.02 95.595c19.95-3.321 49.35.774 69.03 5.971 44.6 10.687 90.03 43.875 111.95 84.613 19.74 36.675 15.76 52.775 66.52 52.073 36.35-.502 72.74-.991 104.46 20.34 25.46 17.122 40.97 43.04 62.94 63.994 15.28 13.848 35.13 24.317 48.66 39.975 19.23 22.258 19.28 67.087 6.09 92.516-2.98 5.753-10 7.533-15.86 8.599 4.33 8.382 13.91 20.856 19.7 29.04a1513 1513 0 0 1 27.97 41.164c38.16 58.51 72.92 121.436 106.7 182.57 19.93 36.083 42.67 69.927 55.63 109.798 5.68 17.468 7.45 55.849 4.95 74.385-4.25 34.765-17.39 59.756-36.92 87.875-18.15 26.122-29.38 35.202-54.28 53.962 5.3 3.06 30.3 14.23 33.12 17.26 16.75 18 39.07 22.87 56.92 36.01 23.8 17.52 45.26 41.9 68.85 59.71 23.04 17.41 50.4 29.86 75.61 43.63 21.52 15.45 56.53 29.13 69.08 52.99 1.7 7.63-5.72 9.87-10.5 9.74-53.69-1.43-107.04-.42-160.7 1.65-15.04.58-36.37-.98-50.5 1.07l-.54 1.31c6.34 5.01 18.19 4.32 20.67 11.98-6.3 16.08-41.02-11.86-52.55-12.39-15.1-.71-30.71.48-45.95.49 13.6 5.18 27.37 9.9 41.29 14.13 8.35 2.63 22.58 3.85 24.93 12.78-.83 3.69.09 2.21-2.79 4.6-2.05.57-4.82 1.02-6.85.23-22.32-8.63-45.8-13.72-67.11-24.83-4.37-2.28-9.46-4.38-13.98-6.41-5.53 7.47-11.09 7.52-20.16 7.03-34-1.84-62.47-7.47-96.77-2.03-8.15 1.29-32.92-.18-43.27.05 8.12 2.43 26.49 4.78 29.85 12.66l-1.25 2.92c-8.88 6.57-39.48-10.25-48.93-12.13-5.01-1-20.82-.66-26.43-.68 7.79 2.76 36.01 9.81 36.61 18.54-3.38 3.95-4.84 4.58-9.86 2.91-15.45-5.13-32.89-10.28-46.7-18.64-10 .21-19.82-.39-29.83.28l-.26 1c4.23 2.59 4.78 2.36 4.6 7.36-5 6.73-23.14-4.43-29.19-7.54-7.52 1.12-25.03.96-33.44 1.06 9.67 3.67 37.97 8.41 40.51 19.34-1.89 1.84-4.73 3.37-7.3 2.89-16.41-3.1-47.49-16.4-61.4-20.43-4.4-1.27-48.01-1.07-54.84-1.12 7.92 4.05 18.05 4.87 22.87 11.55.54 3.66.75 2.16-.9 5.47-7.56 4.17-35.39-13.96-46.04-15.56-14.02-2.11-23.79-1.11-37.68-.15 11.89 5.7 62.32 22.26 67.42 31.13 1.11 1.93.98 2.26.37 4.24-6.21 3.24-22.89-5.06-29.53-7.72-11.71-4.69-24.2-9.83-35.75-14.87-4.08-1.78-17.13-11.04-20.12-11.43-18.83-2.4-42.47-3.92-61.14-5.09 8.3 2.67 27.82 8.09 32.47 14.64.65 3.8.96 2.44-.64 5.52-10.62 5.16-47.72-17.04-60.69-21.07-24.14-7.52-10.51-1.43-21.06 4.62-9.39-.5-35.01-19.24-42.81-26.07-7.09 2.53-14.53 2.06-22.02 2.07 5.56 2.78 17.76 7.66 19.71 12.95-.1 3.94.39 2.48-1.7 5.63-2.5.74-2.03 1.07-4.65-.04-21-8.91-35.381-16.35-58.043-20.55-8.377-1.55-38.438-8.05-42.144-13.83-.541-3.4-.998-4.5-.078-7.69 1.735-.88 4.809-.76 6.594-.09 15.212 5.74 31.274 8.14 46.667 12.53-.536-3.4-1.837-15.31-3.618-17.2-6.087 5.72-21.703 3.24-22.909-5.86 3.405-6.86 12.368-2.03 18.232-.03q-8.082-12.09-15.907-24.33c-.052-.02-.103-.04-.155-.05-12.44-.83-40.186-11.06-51.539-15.92-8.848 2.92-11.081 7.44-18.467 12.41-6.531 4.4-13.406 6.98-19.624 12.1 5.302 1.16 14.308 2.33 13.71 9.38-7.119 6.76-20.546-.65-27.689-4.18-18.88 2.78-11.868-.44-28.224-4.55-3.066-.77-22.286 3.45-27.385 4.41l-12.358-5.24c-6.081 1.02-15.564 1.32-20.917 3.34 9.672 5.97 65.414 11 65.642 23.52l-1.683 1.44c-14.705 2.77-49.042-10.02-64.526-13.84-4.106-1.01-8.988-3.21-10.989-7.3.385-3.79 1.353-3.75 4.245-7.03 1.017-4.87-5.583-3.59-8.828-10.65.576-3.46.792-2.68 3.81-5.76-2.305-3.19-5.749-2.53-8.888-7.82-.179-7.3 5.224-5.08 11.675-13.08l.705-.89c-11.128-4.64-18.269-7.12-29.965-12.61-4.867 1.66-7.909 8.14-10.465 12.59 5.869 1.7 20.631 4.34 19.466 12.22-6.942 5.49-18.821.13-25.414-3.75-9.828 13.08-19.864 24.52-30.933 36.56 12.277 1.91 98.264 22.1 105.908 26.52 1.896 3.3 1.585 1.78 1.375 5.58-3.939 3.71-12.13 2.87-16.708 1.18-18.417-6.83-83.912-15.97-97.119-27.04l-10.028 10.85c7.365 2.58 19.764 2.27 22.426 9.67-3.442 9.58-26.046 1.46-35.981.64a680 680 0 0 1-16.539 11.13c3.978-.29 5.267-.56 9.245.29 3.026 2.56 2.307 1.25 3.208 4.85-.914 1.98-3.714 6.15-6.09 5.61-17.561-3.99-36.183.98-52.329 9.81 3.174 2.37 5.252 3.67 5.839 7.33l-1.344 1.47c-9.999 4.17-15.651-3.52-22.575-2.71-10.359 1.39-22.246 4.12-32.442 5.37-38.199 4.67-72.845-3.44-108.789-15.15-4.489-1.46-14.523-1.4-20.265-2.7-21.691-4.89-43.784-8.8-65.383-14.03-3.478-.84-5.488-2.1-7.064-5.2.326-3.98-.359-3.13 1.844-5.45 10.294-3.32 39.523 10.65 43.889 6.16-2.383-3.02-8.855-5.34-12.237-7.97-13.368-10.42-25.679-22.01-43.473-23.66-6.495-.61-16.372-2.2-17.018-10.2l2.093-1.78c8.562-2.1 17.089 1.47 25.567 4-4.5-5.1-9.031-10.17-13.595-15.2-9.53-.29-41.774-7.69-43.928-17.81 7.295-5.07 30.395 4.63 38.706 7.42-.827-2.13-1.686-4.26-2.577-6.36-1.101-2.58-2.7-6.08-5.223-7.85-9.449-6.61-39.756-5.28-44.102-16 .732-3.56.013-2.48 2.376-4.82 9.168-1.32 28.785 5.75 38.554 8.64-6.076-25.73-8.735-55.15-8.538-81.54.745-100.122 6.502-204.616 36.221-300.729 6.238-20.174 12.106-41.306 20.8-60.658 8.276-18.42 16.779-36.711 27.194-54.016 8.541-14.193 18.146-28.206 25.87-42.77 3.035-6.488 3.095-14.894 4.452-21.918 8.605-44.545 29.935-67.045 68.228-89.136 59.736-34.461 131.344-36.004 198.438-35.663 21.662-21.515 27.26-33.423 55.016-52.471 37.638-26.999 82.038-39.761 128.01-31.968 62.767 10.639 117.419 56.321 124.647 121.85 2.185 19.811 3.916 34.227.399 54.084 66.914-46.868 99.964-94.126 155.464-147.919-54.58-5.623-107.96-56.765-134.33-102.377-12.21 1.732-16.675 3.529-28.399.11-6.401-14.71-9.736-26.911-11.583-42.895-10.864-93.969 54.032-163.681 145.302-172.94"/><path fill="#fefefe" d="M1348.63 386.421c26.6-2.236 38.89.789 63.36 10.663 34.93 14.094 67.61 31.707 101.49 48.033 5.12 3.195 28.32 10.494 31.22 14.27 64.35 83.715 117.37 177.403 167.72 270.047 14.15 26.026 28.07 46.855 39.31 72.573-22.93 6.839-43.69 7.766-67.26 10.727a2567 2567 0 0 1-153.3 14.988c-10.53.684-21.1 1.307-31.65 1.713-5.34.394-11.99-1.077-17.19-.42-20.34 2.571-41.12 6.43-61.63 7.313-17.23.742-34.32 2.052-51.5 2.853-17.87-35.167-52.53-78.572-80.15-107.516 32.16-49.188 61.01-102.651 90.85-153.454 2.02-3.436 3.58-8.842 2.29-12.701-10.63-5.746-24.09 24.941-28.19 31.785a4377 4377 0 0 1-38.87 64.615c-56.24 99.677-121.49 198.197-201.52 279.917-39.06 39.88-79.49 77.943-118.21 117.913-18.922-13.76-42.85-34.86-62.989-50.29 12.245-15.371 28.791-28.612 40.829-43.619 52.34-65.249 109.55-126.537 151.12-199.701 16.44-28.948 28.88-59.081 42.45-89.201a5938 5938 0 0 0 59.98-136.998c16.34-38.734 31.8-92.542 57.42-124.527 18.36-22.919 37.13-27.131 64.42-28.983m-133.16-4.946c2.63.736 16.71 7.466 21.54 9.26 18.69 6.945 28.62 5.789 47.29 6.902-27.31 29.663-33.06 43.655-46.95 81.759-1.81 4.945-9.95 26.86-12.65 30.027-11.35 13.279-27.36 27.689-40.18 40.644-60.09 60.676-128.97 130.803-214.411 152.147-7.166 1.79-23.772 5.94-30.712 6.162-18.861-24.522-43.754-41.465-72.707-51.645 9.458-1.609 18.939-5.793 27.614-7.532 15.229-3.053 30.602-1.319 44.751-10.288 22.615-14.337 37.86-35.412 44.718-60.817 10.764-5.193 23.447-15.862 33.017-23.134 53.19-40.427 93.97-93.952 141.66-139.56 32.33-5.65 34.47-12.868 57.02-33.925"/><path fill="#fefefe" d="M1210.38 541.882c.58 2.601-2.71 10.652-3.9 13.134-31.22 64.6-54.92 133.301-88.82 196.586-23.76 44.367-54.18 83.991-86.02 122.681-7.44-19.4-15.37-36.591-24.61-55.266-8.992-20.798-21.574-43.88-33.558-63.047-7.45-11.917-16.757-23.492-23.872-35.169 90.23-20.697 140.94-61.641 206.72-125.047 18.69-18.023 36.18-34.673 54.06-53.872m71.99 201.686c2.91 2.499 12.25 15.184 15.74 19.324 22.61 26.849 41.39 49.302 58.53 80.219-10.28 11.727-70.1 42.964-87.02 53.786-48.85 31.237-100.95 58.739-146.27 95.308a1926 1926 0 0 0-38.63 32.675c-.91-10.99-2.39-20.31-4.15-31.221 5.84-5.95 12.32-11.975 18.44-17.673 74.42-69.327 127.59-147.991 183.36-232.418m408 377.192c5.2.08 14.35 8.61 20.76 11 23.98 8.93 48.24 19.28 69.87 33.19 20.43 13.14 38.97 30.75 60.07 43.55 16.55 10.03 53.01 25.38 66.52 38.36l-.84 1.21c-13.4-.28-24.69.16-38 .14l-197.15 4.58c4.63-45.57-2.37-76.82-4.15-119.64 9.34-3.62 14.63-7.09 22.92-12.39m-768.984-102.59c10.529 2.23 52.489 39.93 61.185 48.34-33.069 48.68-63.371 96.28-116.502 126.27-5.2 2.93-17.064 9.33-22.533 7.66 3.197-2.78 21.005-11.89 27.8-17.17 10.304-8.01 37.692-27.88 39.956-40.8-.995-3.61-.267-2.28-2.941-4.85-1.776-.42-4.428-1.38-6.069.2-14.464 13.87-28.822 29.08-45.979 39.7-13.591 8.42-31.794 18.48-47.485 21.05 15.263-11.82 78.157-48.69 79.76-66.04-1.538-3.05-.535-2.05-4.034-3.48-7.924.45-10.402 4.86-15.99 9.88-12.661 11.37-26.455 21.47-40.119 31.59-13.032 8.53-36.554 25-51.822 23.91-3.744-.27-7.882-.18-10.415-3 11.49-10.11 25.942-16.55 39.047-24.48 17.603-10.65 36.259-25.93 51.913-39.52 3.679-3.2 6.868-8.35 6.792-13.41-6.187-9.63-26.531 12.38-32.779 17.56-19.819 16.45-39.863 28.64-62.392 41.06 4.856-6.62 10.445-12.59 16.455-18.18 11.915-11.08 83.829-69.39 84.141-77.14.109-2.72-.925-4.32-2.65-6.26-6.222-2.09-15.072 3.47-21.346 6.11-9.562 4.01-49.204 18.67-57.467 13.71 2.844-4.61 118.784-65.89 133.474-72.71m238.924-759.187c22.65-.481 31.02 21.498 22.3 39.671-3.41 7.118-6.14 9.604-11.66 15.2 4.58 21.763 15.49 45.055 32.95 59.356-35.69 44.235-69.92 31.901-113.5 7.378-21.83-12.728-57.9-50.22-70.94-72.949 8.05-2.862 16.83-4.014 24.83-6.363 18.85-5.534 43.14-11.375 60.9-19.913 63.58 21.719 21.33-7.23 55.12-22.38"/><path d="M1126.03 356.528c4.41 1.202 2.88.259 5.94 3.425 3 9.237-7.66 25.329-15.6 29.719-1.94-.701-8.86-2.857-8.08-5.214 2.51-7.506 12.14-23.134 17.74-27.93m-46.69-40.138c11.91 3.98 4.25 28.331-9.09 31.292-4.08-2.188-7.07-2.925-6.95-7.956 2.58-3.831 6.56-5.374 10.75-7.648.82-6.754.75-10.427 5.29-15.688"/><path fill="#fefefe" d="M804.773 512.033c36.867-2.669 12.052 32.221 11.588 44.04 5.308 16.142 64.768 68.925 80.974 81.031-14.357 1.775-29.758 7.842-43.592 10.548-23.967 4.687-40.922 5.838-63.868 15.641-6.072-7.603-15.385-17.386-22.059-24.831-32.182-40.592-65.994-70.924-101.658-107.261 42.31 10.802 59.243 12.532 101.153 12.407 5.619 3.825 1.749 12.236 10.042 12.921 8.439-4.966-4.972-33.549 26.065-44.044z"/><path d="M818.075 612.367c2.462.511 2.461.686 4.432 2.106 2.079 3.9 2.662 12.708 3.345 17.559 5.055 1.777 10.627 2.69 12.706 7.858-1.586 3.676-1.399 2.687-5.261 5.379-3.589-.31-5.867.75-9.305-1.17-13.158-7.349-12.713-20.287-5.917-31.732"/><path fill="#fefefe" d="M639.147 482.533c11.229-.001 22.721-.303 33.971-.475-10.842 11.284-17.041 22.159-26.53 32.589-22.04.689-71.811-.939-92.102 6.218-17.484 12.133-20.812 38.897-28.852 57.138-2.619 5.942-4.341 14.809-10.03 14.458-11.966-11.88 13.462-63.364-.262-66.959-1.907.632-3.469 1.061-4.762 2.96-9.348 13.734-20.594 82.495-36.808 84.839l-1.668-1.621c-3.644-10.827 13.994-62.076 17.722-74.442 1.214-4.029-2.01-6.06-5.504-6.058-6.069 3.54-8.889 14.188-11.548 21.084-3.286 8.672-17.4 65.494-21.319 68.823-1.277 1.084-1.635.654-3.19.498-6.339-10.115 15.626-60.332 12.202-68.509-3.656-2.053-2.084-1.741-5.978-1.513-13.494 8.142-15.325 62.81-26.946 76.029-3.15 1.315-1.58 1.278-4.864-.051-7.995-13.649 11.485-66.716 21.785-78.085 30.567-33.742 75.503-52.235 119.562-60.287 25.395-4.64 50.153-4.017 75.121-6.636m217.175 453.2c7.055 5.88 14.346 33.907 18.113 43.831 4.982 13.126 10.415 27.086 15.377 40.256-9.515 6.69-28.601 15.32-39.846 21.1a784 784 0 0 0-50.651 28.38c-7.101 4.24-37.516 19.23-17.299 32.11 10.074 6.42 38.667-1.33 51.189-4.88-7.208 5.41-14.026 11.65-20.802 17.62-9.762 9.2-20.967 18.72-31.009 27.84-10.905-3.22-20.321-7.48-30.911-10.56-2.915-.84-2.079-.03-5.951-1.72.233-2.42 7.208-12.76 8.843-15.32 36.978-57.9 68.643-119.108 102.947-178.657m772.828 171.207c7.99-.12 12.42.35 20.23 1.26 3.29 20.75 19.58 141.65 5.87 152.92-6.02-1.55-13.77.29-20.91-2.17 5.79-35.38 2.48-117.98-5.19-152.01m-315.02-31.26c7.1.36 25.43 4.15 33.74 5.14 29.44 3.5 59.4 8.12 88.89 10.94 30.08 2.93 60.22 5.19 90.39 6.79 27.68 1.43 58.68 3.33 86.35 7.47 2.93.43 3.81 1.57 5.14 3.66l-.85 2.44c-3.21 2.56-3.1 1.79-7.76 2-23.7-3.92-62.11-3.5-87.76-5.76-47.06-4.16-94.85-6.41-141.87-12.33-6.39.09-12.14-3.13-18.15-4.15-8.96-1.51-45.27-3.61-50.1-9.96-.17-3.92-.35-2.46 1.98-6.24M672.531 752.954a259.6 259.6 0 0 0 29.32 29.201c-4.614 10.962-11.919 24.833-17.189 36.408-9.239 20.296-18.725 44.182-28.664 63.721-.67.937-7.657 18.496-9.468 22.173 1.468-22.091 7.928-55.5 11.83-77.864 3.997-22.912 8.545-51.553 14.171-73.639M835.69 395.525c3.092-.832 11.698.55 15.291.956 51.355 5.808 99.082 37.507 116.919 87.415-5.594-7.584-9.444-15.115-15.864-22.895-26.273-31.839-52.846-43.337-90.801-54.356-8.456-2.365-26.339-1.8-34.769-1.014-29.596 2.76-57.084 13.992-81.797 30.179-11.017 7.216-25.026 16.861-37.04 22.102 37.274-41.332 73.411-57.402 128.061-62.387m877.38 693.465c19.48 3.41 56.79 22.31 74.11 32.86 18.22 11.1 41.32 35.15 61.67 49.27 23.71 16.44 109.94 59.2 124.27 75.91-10.53-2.03-20.14-12.47-29.76-17.56-17.02-9-33.84-18.5-50.83-27.57-10.43-5.97-25.07-10.59-34.9-17.33-36.27-24.86-67.68-57.7-108.69-75.2-11.99-5.12-23.51-11.51-35.49-16.63zm-592.19-980.591c6.34-.909 15.92-.18 22.57.098-9.2 3.804-27.76 5.844-38.64 8.754-48.75 13.04-79.14 32.452-107.664 73.979-4.122 6.711-5.979 9.606-11.132 15.573 18.776-63.157 73.136-92.191 134.866-98.404"/><path fill="#fefefe" d="M1637.62 1077.89c3.52-.07 44.6 17.49 52.21 20.27l-2.31 8.64c-6.64 4.78-15.07 11.55-23.46 11.89-3.18-15.2-5.47-23.77-24.08-23.75-10.79.01-21.98-.43-32.73-1.42 11.99-5.03 19.07-9.11 30.37-15.63m-699.714 71.67c11.513 4.94 14.374 26.71 17.699 38.65-6.336-2.9-9.206-4.07-15.862-5.97-9.318-2.71-16.72-5.62-25.768-9.16 10.659-9.33 14.324-12.83 23.931-23.52m59.14 77.82c4.984-.39 20.444-1.89 23.474 1.84 3.19 3.91 12.37 13.52 7.02 17.66-8.4.06-11.47.19-19.8 1.6-10.569-4.01-19.611-8.45-10.694-21.1m-259.762-89.03c11.878 3.92 21.709 9.98 33.558 13.09l-7.166 6.58c-3.219 1.85-26.727-7.5-31.649-9.27 1.588-3.38 3.547-7.05 5.257-10.4m939.606-85.61c7.81 2.56 37.93 14.81 41.8 20.58l-4.5 2.48c-11.02-4.4-21.71-11.23-33.28-14.72-2.99-.9-6.81-2.16-9.41-3.74z"/><path d="M186.182 1017.45c7.914 2.63 8.225 11.26 10.994 18.51 12.89 33.74 17.229 69.03 24.668 103.94 4.897-11.64 24.609-55.59 33.095-60.01 3.72-.01 2.275-.45 5.53 1.43 9.693 14.01-13.593 92.98-9.548 108.55 5.199 3.31 48.531 3.83 45.169 16.62-3.697 3.9-9.263 4.94-13.64 2.6-8.521-4.55-38.871-4.63-44.162-10.08-4.53-12.6 9.211-72.22 11.303-90.81-9.27 17.97-16.507 35-21.253 54.66-1.021 4.24-2.358 9.25-5.5 12.34-3.288 1.1-1.894 1.01-5.448-.11-3.367-2.91-4.484-5.72-5.422-9.99-6.131-27.86-6.401-61.81-15.764-88.68l-.429-1.2c-1.287-5.41-3.934-16.64-6.793-21.12l-.97.74c-.083.78-.551 5.24-.419 5.68 1.51 6.05-.707 13.27-.677 19.97.1 22.32 2.031 44.28 4.113 66.47.722 7.69 5.746 16.78 3.648 24.54-2.23 3.16-2.878 3.39-6.364 5.14-5.773-.38-16.099-19.92-21.278-25.13-4.047-4.08-6.505-6.35-10.926-10.09 15.26 24.55 15.243 46.19 21.019 73.37 9.431 9.13 33.624 5.67 38.808 16.74-.88 3.63-.061 2.37-2.855 4.74-7.902 2.11-57.686-10.41-62.106-19.27.384-3.48-.074-2.17 2.427-5.04 3.668-1.43 7.115.1 11.15 1.16-3.332-27.11-9.081-53.97-23.89-76.94-2.155-3.35-7.136-13.34-6.049-17.3 2.238-2.51 2.316-2.57 5.502-3.33 9.043 1.98 30.224 18.29 38.014 24.29-4.96-27.69-3.596-82.38.987-110.86 1.081-6.72 2.046-8.23 7.066-11.53m668.376 216.53c14.983 2.56 38.836 12.4 55.751 16.77 24.845 6.42 54.236 15.18 78.82 23.83 2.082.74 2.542 3.66 2.808 5.48-.954 3.11-1.086 3.16-3.78 5.18-15.47-2.53-39.471-12.76-55.454-17.18-25.195-6.97-50.743-13.6-75.485-22.03-3.758-1.28-5.024-2.61-6.627-6.08.927-4.02.499-2.68 3.967-5.97m-676.521 43.13c12.696-.93 44.052 13.12 58.673 17.03 10.397 2.78 53.424 12.55 58.095 19.32.366 3.03-.873 4.28-2.538 7.09-6.697 1.67-109.069-29.97-114.27-36.58-1.037-3.2-.819-3.46.04-6.86m-8.725-29.1c10.259-.54 93.63 21.47 98.455 26.83.617 3.1-.404 4.23-1.917 7.26-4.966.84-18.136-2.88-22.702-4.59-9.809-3.66-69.402-16.2-74.705-22.5-.71-3.41-.575-3.81.869-7m488.669 15.96c17.683.53 64.604 15.38 84.665 19.86 2.56.57 2.8 1.72 3.599 3.6-.347 3.06-1.249 3.61-3.392 6.08-9.155.3-83.072-18.07-86.894-22.39-.302-3.54.176-3.89 2.022-7.15m992.479 11.63c4.49-.04 76.3 27.33 79.94 31.06.98 3.22-.21 5.09-1.44 8.35a1139 1139 0 0 1-19.89-6.03c-13-4.08-46.11-16.66-59.77-23.59-.41-.78-.81-1.55-1.21-2.33.1-3.55.7-4.17 2.37-7.46m-878.536-16.09c5.136.86 11.436 2.73 16.588 4.01 17.984 4.46 36.064 8.79 53.866 13.93 2.948.85 3.435 2.07 4.671 4.58-.685 4.46-.068 2.74-3.201 6.7-21.844-3.59-43.477-10.04-64.741-16.16-4.946-1.42-9.001-2.19-11.283-6.46.764-3.7 1.43-3.53 4.1-6.6m-237.865 30.3c7.61 5.75 65.665 12.95 69.924 17.09 1.37 3.81 1.266 2.21.53 6.07-2.965 2.03-2.313 1.37-6.595 1.47-14.162-1.21-65.571-8.58-74.565-18.81-.928-5.61 6.676-5.56 10.706-5.82m1022.181-17.23c1.58-.05 3.16-.02 4.73.07 7.35.4 69.98 17.99 72.81 21.09.88 3.12-.11 4.69-1.27 7.86-8.24-.51-70.19-15.72-74.95-20.53-1.61-3.63-1.46-4.47-1.32-8.49m-690.919 18.28c21.569 5.24 49.439 10.02 70.54 17.35 1.742.61 1.515 1.39 2.016 3.17-.992 3.71-1.808 4.38-4.351 7.33-.882-.15-1.282-.23-2.179-.52-21.538-6.98-45.682-8.96-66.88-16.69-2.381-.87-2.969-3.16-3.495-5.08.957-3.29 1.452-3.38 4.349-5.56M355.135 1292c14.084.4 64.093 9 71.183 19.15.742 3.11.349 3.46-.975 6.58-9.714-.85-23.692-5.43-33.661-7.71-8.965-2.05-33.046-4.63-38.359-11.1-.213-4.13-.194-2.79 1.812-6.92m-259.373-43.47c11.652 3.54 64.094 12.58 68.225 20.8.124 3.61-.431 3.98-2.485 7.21-18.527-3.24-48.928-11.51-67.431-17.67-1.99-.67-2.199-2.8-2.57-4.43.796-3.27 1.578-3.55 4.261-5.91m562.281 42.76c10.833 1.08 69.169 12.29 72.675 20.99-.834 3.2-3.053 4.73-5.525 7.1-21.052-8.75-48.362-12.33-69.969-20-.951-.33-.97-1.68-1.303-2.8.959-3.04 1.506-3.18 4.122-5.29m-155.189 18.29c8.959.03 67.653 12.48 72.786 17.74-.054 3.65-.914 3.92-2.899 7.35-1.079.17-2.175.2-3.262.09-5.839-.53-19.377-4.64-25.686-6.03-9.148-2.01-36.801-5.11-42.023-11.68-.809-3.73-.209-3.55 1.084-7.47m-89.698-31.12c9.205 6.34 60.796 5.1 60.922 20.12-1.485 2.73-2.205 2.77-5.184 4.2-10.841-4.6-67.109-8.72-63.864-21.22 3.113-2.34 4.247-2.36 8.126-3.1m396.138-30.12c8.154.85 62.729 13.34 67.268 18.41.923 3.99.357 3.6-.965 7.78-6.139 1.83-59.848-13.58-65.707-17.76-1.75-2.97-1.053-4.92-.596-8.43m734.226 65.25c1.94.28 3.87.65 5.77 1.11 7.64 1.86 53.73 17.08 56.33 21.39.09 4.28-.06 3.11-2.39 7.41-6.82.7-54.95-15.58-60.5-20.36-1.16-3.02.04-6.2.79-9.55m-454.9-19.89c8.47.44 60.27 16.41 65.09 21.59.43 3.9.24 2.77-1.79 6.9-9.71.04-57.98-14.32-64.75-21.06-.86-3.03.14-4.32 1.45-7.43m-259.865 11.65c8.306.22 61.877 14.84 66.271 19.42.493 3.7-.331 4.71-1.905 8.19-8.096.58-61.613-15.89-65.657-22.04-.187-3.77-.47-2.27 1.291-5.57m828.645-4.05c5.58-.02 60.97 19.62 64.98 23.51 1.19 3.92.81 2.72-.27 7.24-.58.15-3.31.79-3.6.72-10.21-2.54-54.1-17.36-60.59-22.22-1.76-3.31-1.02-5.45-.52-9.25m-342.55-8.65c9.49.13 54.62 16.15 62.23 21.79 1.17 3.78.54 3.61-.46 7.77-7.96.92-53.06-15.06-60.06-20.36-2.15-3.05-1.7-5.37-1.71-9.2m103.41-3.77c9.96-.83 59.23 15.72 65.26 21.09.91 3.77.41 3.1-.89 7.42-5.28.89-58.61-16.69-63.46-20.19-1.94-3.95-1.27-3.38-.91-8.32M69.83 1272.81c7.709-.17 51.87 12.11 55.604 18.52.552 3.48.239 3.73-1.319 7.09-8.887-.51-53.074-10.92-57.152-18.81.094-3.9.31-2.96 2.866-6.8m166.827-32.14 1.381.2c9.308 1.39 54.26 9.76 58.799 15.94.362 3.12-.611 4.05-2.283 6.95-4.374.7-6.183.82-10.443-.63-15.734-5.35-32.517-7.07-48.177-12.26-.527-.77-1.054-1.55-1.581-2.33-.357-3.41.709-4.72 2.304-7.87m508.648 62.2c17.677-.36 38.454 6.82 56.034 10.07 2.94.54 3.455 2.27 4.6 4.56-.081 3.81-.726 4.26-2.938 7.61-7.902-.41-54.042-11.42-59.439-16.19-.492-3.44-.366-2.32 1.743-6.05m662.146 7.78c11.96 3.79 42.56 14.3 55.5 19.86.41.79.83 1.58 1.24 2.37-.4 3.31-.79 3.47-3.07 6.13-.22-.01-.44-.02-.66-.02l-1.1-.06c-8.93-.42-50.64-13.96-55.03-20.28-.28-3.54 1.14-4.93 3.12-8m176.41-10.37c2.12.48 11.96 5.52 15 6.8 7.72 3.25 15.83 5.85 23.57 8.79 5.84 2.2 13.18 3.17 15 8.96-.55 3.66-1.19 4.05-3.56 7.1-11.28-3.33-49.69-14.55-53.56-24.89.67-4.3.22-2.74 3.55-6.76"/><path d="M207.217 1200.59c7.281.95 52.358 16.71 57.337 20.36.368 3.75-.307 3.73-2.005 7.44-11.284 2.01-46.616-11.53-54.779-20.55-1.781-1.97-.933-5.01-.553-7.25m-116.666 21.26c10.453-.01 51.445 7.04 56.898 15.72.26 4.04.149 2.83-1.869 6.96-13.612-2.62-40.522-10.32-55.008-13.3l-1.948-1.98c-.511-3.95.012-3.45 1.927-7.4m224.917 39.68c3.152.28 12.272 2.11 15.481 3.09 8.643 2.64 37.524 5.3 41.809 12.16-.679 3.57-.861 2.82-3.595 6.01-10.356-.45-51.736-7.09-56.329-15.67.067-3.53-.151-2.26 2.634-5.59m381.785-19.4c2.339.48 11.881 3 13.551 3.81 7.567 3.69 38.804 7.06 41.129 15-.866 3.6-1.659 4.12-4.141 7.07-11.984-6.66-49.186-8.54-53.495-19.85.414-3.35.592-3.43 2.956-6.03m286.207 56.19c7.394.86 49.66 14.87 52.43 19.01.27 3.57-.13 3.88-1.85 7.22-13.36-1.75-35.158-9.6-48.487-14.11-3.497-1.18-4.067-2.17-5.148-4.95.475-3.78.67-4.19 3.055-7.17m23.03-18.79c6.73-.34 52.31 10.88 55.38 15.8.27 3.64-.27 4.28-1.73 7.79-5.84-.04-49.97-11.36-54.81-15.96-.93-3.05.01-4.42 1.16-7.63m-734.584-56.66c9.964.85 45.003 7.12 48.851 16.56.051 3.55-.661 3.96-2.934 7-9.509-2.75-42.2-10.77-47.14-15.67-.953-3.08.094-4.77 1.223-7.89m927.834 84.96c10.41 1.96 44.91 10.3 50.66 18.33.59 3.92.5 2.56-1.09 6.66-7.13.02-44.21-12.21-50.39-16.14-.91-3.06.08-5.63.82-8.85m-569.252.79c2.654.16 12.065 2.33 14.359 3.2 7.489 2.87 32.888 5.54 37.168 10.47.522 3.16-.755 4.85-2.198 7.8-11.325-.68-42.732-5.24-50.196-14.34-.963-3.89-.649-2.7.867-7.13m-335.028-23.83c5.355.55 45.949 11.8 48.123 14.91-.388 3.71-1.186 3.74-3.563 7.02-12.395-2.31-39.083-3.93-46.116-14.23-.607-4.44-.589-2.76 1.556-7.7m761.76 25.37 33.18 8.3c4.83 1.25 10.59 3.11 13.15 7.46-.2 3.41-.66 3.62-2.95 6.41-11.68-1.45-31.75-7.6-43.62-10.99-2.82-.81-3.34-2.26-4.31-4.48.7-3.53 1.8-4.05 4.55-6.7m-326.529 15.14a539 539 0 0 1 27.663 4.78c6.128 1.27 11.703 2.29 15.064 7.46-.482 3.96-.076 2.54-3.193 5.95-4.197.52-9.083.12-13.076-1.19-7.736-2.53-31.255-3.56-31.192-13.62 1.654-2.25 2.214-2.3 4.734-3.38m-269.177-3.99.76.15c9.203 5.82 35.596 9.18 40.746 18.07.275 4.03.31 2.63-1.813 6.67-10.447-2.27-38.274-8.09-42.362-18.2.288-4.17.129-2.81 2.669-6.69m1059.956 6.68c8.36 3.54 37.67 11.78 40.54 18.44-.54 4.35.09 2.67-2.57 6.34-9.84-1.73-37.92-9.68-41.55-19.17.97-3.84.46-2.51 3.58-5.61m-809.482-134.27c7.721 4.89 30.749 7.09 36.061 15.79.172 3.62.2 2.39-2.622 6.06-7.516.88-34.31-7.5-37.14-15.5.796-4.28.134-2.66 3.701-6.35m192.192 3.89c1.696.2 3.381.49 5.05.85 7.928 1.79 24.557 5.12 28.957 11.9.988 3.49.307 4.4-.905 8.04-9.27-2-27.816-5.97-33.743-13.15-1.148-3.04-.345-4.31.641-7.64m742.11 135.94c7.78 1.33 30.28 7.8 35.15 14.58.94 3.18.4 3.92-.63 7.28-8.43 1.02-27.45-7.84-33.39-14.15-1.93-2.06-1.46-5.19-1.13-7.71m-1041.562.3c8.926 2.6 29.981 3.02 33.45 11.01-.394 3.2-1.087 3.55-3.374 6.1-8.349-2.01-30.554-3.73-34.098-11.49.954-3.77.608-2.56 4.022-5.62m335.009-46.56c8.017 2.43 23.761.97 26.078 10.16-.972 3.39-1.363 3.69-4.114 5.95-8.094-2.46-21.609-1.39-26.334-8.79-.968-5.68-.543-5.71 4.37-7.32m-43.234-16.31c7.42.85 25.467 1 28.429 8.39-.571 3.02-1.084 3.25-3.279 5.61-7.84-.58-27.165-.38-29.803-8.88 1.857-3.83.801-2.45 4.653-5.12m-6.249-50.28c6.309.11 24.327 3.57 28.219 8.94.433 3.97.369 2.64-1.352 6.71-7.355 2.44-22.118-2.42-27.252-8.46-1.168-3.97-.95-2.4.385-7.19m-58.334 109.76c7.132 3.36 21.958 6.06 24.451 13.43-1.286 3.58-.691 2.37-3.864 5.06-6.829-1.52-22.722-5.3-24.844-12.35 1.187-4.04.871-2.83 4.257-6.14m-687.657-37.26c7.643.94 20.758 2.09 23.567 10.31-.056 3.53-.524 3.75-2.855 6.68-6.029-1.07-20.245-4.74-23.369-10.28.002-4.02.004-2.77 2.657-6.71m464.523-14.73c8.269 2.98 19.616.69 24.439 8.53.22 3.36-.359 3.73-2.345 6.72-7.157-.63-22.087-1.76-25.352-8.78.472-4.11.242-2.76 3.258-6.47m900.484 20.47c7.5-.14 19.56-1.91 24.39 4.11.52 3.5.09 4.01-1.7 7.13-7.46.15-20.67 2.11-24.81-4.7.04-4.09-.12-2.66 2.12-6.54m-753.231-21.23c5.963.42 21.173 3.77 23.76 9.75.016 3.14-.992 3.82-3.059 6.47-6.302-1.07-20.818-3.96-24.077-9.52.499-4.07.499-2.95 3.376-6.7m636.321 52.78c7.72 2 19.22 3.76 23.29 10.66.56 3.23-.32 4.03-2 7.11-7.74-1.9-18.15-3.29-22.46-9.88-.8-4.59-.78-2.78 1.17-7.89M352.333 1317.8c6.268.94 16.834 2.25 19.801 8.31-.507 4.01-.477 2.86-3.736 6.49-6.393-.52-19.318-1.44-20.569-8.97 1.355-3.31 1.69-3.61 4.504-5.83m816.717 1.86c5.64.78 16.77 4.33 19.74 9.36.09 4.07.22 2.62-1.96 6.53-6.04-.16-18.29-2.9-20.74-8.99.08-3.66.54-3.87 2.96-6.9m143.73 4.81c2.57.48 5.16.91 7.75 1.31 5.56.9 7.24.92 10.35 5.23.09 4 .3 2.52-2.08 6.31-6.57-.04-14.22.65-18.19-5.22-.39-3.71.21-4.17 2.17-7.63m-357.359.14c6.01.19 15.648.88 19.251 5.85.044 3.6-.884 4.25-3.124 7.37-5.682-.33-13.202-1.73-17.107-6.09-1.08-3.84-.773-2.58.98-7.13m-156.108-33.64c3.178-.5 3.03-.58 6.034.44 3.182 5.52-1.813 9.84-5.867 13.13-3.761-.73-4.28-.85-7.499-2.9-1.888-3.12-1.632-1.63-.863-5.35 2.405-3.39 4.309-3.72 8.195-5.32"/></svg>