<svg xmlns="http://www.w3.org/2000/svg" preserveAspectRatio="xMidYMid meet" viewBox="0 0 2048 2048"><path d="M1009.11 79.432c3.75-.154 7.5-.27 11.26-.348a819.64 819.64 0 0 1 458.4 125.714c333.78 206.183 474.67 613.436 408.51 990.752-6.18 35.25-16.37 70.36-19.59 106.18-1.3 14.45 7.85 15.32-7.19 30.09-1.46 9.33-.15 14.29-1.14 21.88-13.14 100.62-74.54 199.16-128.71 283.07-23.77 36.81-49.92 74.86-78.32 107.66-12.69 14.65-35.97 36.39-50.96 48.48-35.41 28.57-77.46 53.89-115.75 78.78-17.74 11.54-40.57 26.06-59.09 35.15-15.48 7.61-39.27 12.74-56.17 18.12-20.01 6.38-43.38 15.72-63.95 19.38-28.33 5.04-56.76 6.38-85.74 10.88-48.39 7.53-95.84 16.22-144.91 11.35-19.08-1.82-34.96-7.93-52.79-10.28-15.24-2.01-32.839-2.84-48.465-4.36-27.87-2.73-55.622-6.55-83.194-11.45a839.26 839.26 0 0 1-404.707-197.67c-192.411-172-299.491-420.99-312.021-676.54-12.348-251.863 71.866-516.6 240.871-705.119A838.24 838.24 0 0 1 860.533 98.324c51.649-11.232 96.135-16.028 148.577-18.892"/><path fill="#fefefe" d="M1034.57 177.72c100.73.54 227.71 22.492 319.67 64.472-10.28 24.897-20.13 57.329-30.53 83.993a1227 1227 0 0 1-64.05 136.559c-3.69 6.841-9.85 18.187-14.5 24.285-18.5 23.488 1.52 41.865 19.04 11.119 43.65-76.581 84.45-162.703 109.6-247.418 89.3 32.582 184.04 101.976 247.35 172.372-9 10.256-17.49 20.781-26.71 30.852a2153 2153 0 0 1-188.77 180.114c-20.4 17.443-42.5 32.775-63.74 49.091-5.21 4.002-9.26 11.055-5.51 17.259 14.61 9.059 41.97-17.535 53.68-26.536 89.8-69.047 170.01-148.771 244.83-233.587 24.97 26.786 53.49 68.958 72.37 100.223a894 894 0 0 1 127.37 366.465 909.32 909.32 0 0 1-147.01 607.637c-25.43 38.39-49.09 63.62-76.93 98.78-27.95-46.68-212.25-416.57-220.9-422.41-2.7-1.82-7.4-.79-10.28.16-2.61.86-4.35 2.47-5.39 5.04-1.76 4.32.69 10.5 2.41 14.42 5.56 12.73 13.45 25.1 19.95 37.44q22.425 42.285 44.34 84.84a29129 29129 0 0 0 153.21 297.15c-10.15 9.06-21 20.42-31.21 29.95-24.24 22.61-48.75 43.02-77.32 60.05-10.74-66.21-22.02-132.33-33.83-198.35-14.67-83.14-39.2-275.23-110.04-327.16 8.17-4.26 16.6-8.53 24.2-13.74a118.44 118.44 0 0 0 49.82-76.8c17.9-96.26-75.45-167.79-93.02-258.47-13.55-67.828-.84-141.082-23.05-207.521-9.58-28.668-33.74-42.117-52.94-62.486-10.41-12.32-17.36-27.21-26.63-40.313-27.51-38.919-72.54-60.841-118.69-68.321-119.129-19.306-250.019 15.971-338.132 99.865-10.769 10.253-22.735 20.141-24.926 35.957-1.616 16.622-6.018 32.396 4.689 46.872-.146 2.838-4.994 17.137-6.156 20.971-3.062 10.108-4.825 17.439-6.543 27.911-5.34 32.545-1.589 67.311-13.895 98.257-5.935 14.923-14.505 27.809-23.006 41.965-9.798 17.023-35.546 40.153-33.84 60.994 2.249 27.465 54.352 19.825 70.998 18.113 2.529 40.12 7.473 82.866 16.302 122.116 17.911 79.62 105.677 71.38 166.613 55.43 2.892 11.08 5.215 28.58 7.391 40.51 5.473 30.02 10.247 59.62 16.71 89.49a498 498 0 0 0-29.082 21.59c-6.484 5.23-17.568 14.93-24.213 18.88-7.192 4.27-18.655 9.12-26.564 13.2a268 268 0 0 0-43.082 27.77c-31.431 24.34-61.209 54.62-76.505 91.85-4.926 12.75-11.761 31.88-10.447 45.94 2.122 22.69-2.951 38.48-6.622 60.85a860 860 0 0 0-7.217 60.93c-5.868 66.76-8.994 133.82-14.86 200.6-.443 5.03-.961 9.96-1.602 14.97-80.868-30.52-181.235-107.13-237.294-172.21 8.442-13.17 17.845-31.89 25.83-45.88l72.487-128.03 113.839-201.39a4138 4138 0 0 0 48.81-87.76c6.781-12.26 13.785-24.45 20.66-36.66 1.731-3.07 3.25-8.07 2.266-11.49-.812-4.32-8.02-8.73-11.934-6.25-12.321 7.8-23.424 34.14-30.395 46.59l-39.673 70.58-104.593 186.19-78.175 137.26c-8.07 14.05-29.711 47.97-34.877 60.01-108.461-121.81-183.201-310.12-201.816-470.92-5.676-33.59 7.008-66.83 10.701-99.98 3.049-27.375 7.228-53.797 14.734-80.427.416-1.478 2.398-18.001 1.613-17.313 6.902-4.352 1.788-18.3 4.164-22.695 18.248-33.745 20.15-71.812 31.382-107.812 5.661-20.063 21.024-42.195 27.531-60.987 17.768-51.321 42.225-90.011 70.09-136.323a2136 2136 0 0 1 38.297-61.478c8.106-12.647 16.291-26.14 25.583-37.849 20.306 13.677 42.529 30.996 62.392 45.692l101.525 74.988c21.918 16.318 43.795 32.819 66.258 48.364 4.184 2.895 10.201 5.066 14.232.605 7.043-7.897 5.835-12.777-2.523-18.991-8.698-6.466-17.872-12.6-26.727-18.824a1693 1693 0 0 1-39.811-29.035 8060 8060 0 0 0-160.09-117.781c15.328-18.312 28.245-36.202 43.124-54.412 9.06-11.088 30.045-24.919 41.141-35.661 8.931-6.4 18.682-23.695 26.737-29.498 19.625-14.135 46.537-39.168 66.805-49.943 8.382 10.328 15.456 22.421 23.027 33.402 26.64 38.634 51.268 78.27 76.831 117.604 7.85 12.078 14.811 25.024 23.208 36.692 2.013 2.798 4.363 6.088 7.639 7.485 2.832 1.209 6.447 1.181 9.217-.192 1.976-.979 3.554-2.729 3.939-4.951 2.563-14.777-108.035-173.579-125.184-201.555 19.464-11.598 52.335-22.668 72.995-34.31 22.162-12.727 44.445-25.241 66.662-37.874 60.001-34.116 126.485-50.878 195.762-49.789-2.58 51.113-5.01 99.948-8.93 151.052a4650 4650 0 0 1-4.44 55.315c-1.119 12.277-12.267 64.154 14.71 48.806 1.34-1.807 3.05-4.63 3.25-6.913 6.07-67.25 11.97-134.921 14.78-202.387.66-15.76.72-31.495 1.44-47.255"/><path fill="#fefefe" d="M827.419 635.181c34.09-2.342 69.82 11.692 85.594 43.396-1.266 8.521-4.057 21.98-4.184 30.4-.601 39.93 10.965 122.504 68.679 112.226 19.857-3.537 31.582-18.483 46.622-30.072 8.36-6.449 15.85-5.127 25.48-3.378 30.45 30.091 7.15 94.313-24.1 116.653-20.56 14.696-23.82.263-38.407 3.279-13.868 9.361-.994 17.672 9.033 21.125 15.514 5.342 28.364-1.006 41.844-7.692 1.08 22.5 2.56 48.728 6.92 70.707 12.74 64.295 27.48 130.465 9.04 195.385-2.41 8.49-7 16.88-9.23 25.78-3.98 15.88 12.56 16.18 23.58 18.12-27.11 3.18-54.74 9.77-81.876 13.3-19.085 2.48-37.061 6.34-55.654 11.16 11.995-12.68 28.626-20.84 41.291-32.68 3.893-3.64 5.477-7.51 4.113-12.67-6.998-7.46-14.077-3.34-20.363 2.01-1.406-10.67-4.362-23.48-6.393-34.31a3971 3971 0 0 1-12.148-67.27l-4.27-21.9c17.371-7.17 35.457-17.41 51.469-27.32 6.149-3.81 15.691-11.51 13.593-19.67-1.121-4.36-5.986-5.96-9.723-7.73-8.044 3.13-23.567 13.67-31.864 18.74a229.1 229.1 0 0 1-77.258 28.93c-28.288 4.91-64.341 7.67-89.092-10.04-24.102-17.24-27.005-51.65-31.418-78.781 25.386 1.065 45.273-.252 68.777-11.124 25.068-11.594 11.995-34.49-13.769-17.663-14.437 9.43-39.988 9.946-57.236 6.203-4.371-20.117-4.049-41.691-5.361-62.083-.087-2.154-1.709-9.224-3.454-10.439-13.356-9.296-84.661 18.319-57.739-18.272 27.88-37.894 54.792-76.29 55.1-123.99 13.289-3.48 38.382-5.517 52.079-2.953 8.603 1.158 29.518 13.61 37.805 10.709 25.757-9.021 1.056-28.752-8.818-34.671-25.979-15.572-50.448-10.552-77.361-3.561 3.267-27.32 8.861-46.442 15.95-72.621 33.457-1.632 35.935-11.822 62.749-17.233"/><path d="m781.565 770.177 1.151-.103c29.6-2.446 26.694 42.786 12.169 58.04-23.03 5.523-28.717-42.527-13.32-57.937"/><path fill="#fefefe" d="M834.8 1369.26c49.321-1.3 79.358 51.62 90.958 92.55 19.401 68.47 21.146 138.28 26.59 208.69 4.66 60.28 9.617 120.2 12.656 180.57-32.899-4.22-65.608-9.8-98.044-16.73-52.08-12.5-98.48-23.55-148.349-44.05.493-35.88 5.994-82.86 8.624-119.87 5.473-64.58 6.552-131.43 21.407-194.71 9.529-40.59 41.316-98.38 86.158-106.45M1017.93 102.5l15.25-.347-.01 52.868c-397.751 4.816-692.147 258.026-788.143 633.223-2.804 10.959-5.566 21.207-8.014 32.318a1134 1134 0 0 0-19.45 123.117c-1.324 13.003-1.9 55.58-4.728 64.311l-1.802.79-15.733 1.18c2.074-49.68 4.484-95.843 11.991-145.292a950.3 950.3 0 0 1 242.598-507.274C597.605 199.989 802.145 108.207 1017.93 102.5"/><path fill="#fefefe" d="m197.637 1031.47 15.293-.29c.071 39.44 5.095 76.91 10.918 115.91 36.077 241.66 165.511 478.58 376.367 609.69 123.675 76.89 288.351 114.13 433.285 120.66.02 7.08.64 46.27-.77 51.52l-1.71.81c-43.772.79-87.511-2.8-130.567-10.72-216.263-38.99-408.067-162.57-532.951-343.38a972.8 972.8 0 0 1-166.945-457.52c-1.273-12.12-6.802-75.17-4.876-85.44zm856.323-928.511 1.19-.007c207.87-1.02 416.3 93.945 561.68 240.049 176.42 177.314 262.07 420.819 263.1 667.869-5.36.03-10.72-.57-16.07-1.04-1.12-14.318-1.1-30.084-2.03-44.804a1235 1235 0 0 0-10.48-97.829 907.3 907.3 0 0 0-234.4-480.439c-138.59-146.283-364.94-225.424-563.2-230.831zm809.18 927.501 16.67 1.72c.32 38.03-4.76 86.04-10.19 123.65a962.27 962.27 0 0 1-223.79 495.92 790 790 0 0 1-117.22 110.76c-138.89 108.03-285.69 153.92-459.85 166.69l-14.05.98c-1.31-15.66-.87-37.02-.98-53.11a800.3 800.3 0 0 0 241.18-43.29c46.36-15.58 93.29-35.34 138.64-53.72 12.04-4.88 24.72-9.8 36.06-16.09 4.79-2.65 9.54-11.04 14.48-14.12 35.5-23.85 69.48-50.3 100.34-79.83 174.36-167.57 274.68-397.76 278.71-639.56m-551.83 175.48c5.35-.85 8.4 2.57 12.39 5.67-25.88 14.48-49.06 25.88-77.15 35.75-139.11 48.89-279.967 31.94-420.641 78.5l-12.787 4.58c50.293-36.72 89.091-49.8 149.402-61.16 81.316-15.33 162.756-19.38 244.246-32.15 35.52-5.56 71.2-18.15 104.54-31.19"/><path fill="#fefefe" d="M1415.52 1452.01c-1.29-9.27-2.31-21.61-2.72-31 2.27 8.04 3.5 17.81 4.8 26.18 17.91 95.72 32.27 192.97 48.49 289-10.2 7.28-22.07 13.93-32.93 20.34 1.88-52.3-1.31-106.15-4.96-158.34-2.95-48.83-7.17-97.57-12.68-146.18M908.898 508.045l2.965 2.194.223 1.934c-4.517 6.809-37.163 19.086-45.776 23.825-20.456 11.257-40.878 22.985-58.557 38.476-9.136 8.004-17.344 17.879-25.335 26.899l-1.795.336-1.268-1.809c.02-.723.068-2.824.479-3.461 25.993-40.366 85.721-72.809 129.064-88.394m23.865 23.197c2.042.872 1.424.691 3.089 2.503l-.309 2.023c-3.447 3.447-8.093 5.121-12.682 6.623-19.15 6.268-37.84 15.352-55.453 25.122-11.791 6.541-22.403 14.05-34.734 19.711-1.723-.532-.877-.051-2.34-1.748l.893-2.172c28.025-20.948 67.084-44.591 101.536-52.062"/></svg>