<svg xmlns="http://www.w3.org/2000/svg" preserveAspectRatio="xMidYMid meet" viewBox="0 0 2048 1462"><path d="M1470.84 116.221c14.73-1.66 26.91 3.918 35.88 15.335 5.84-6.147 9.7-9.468 17.79-12.639 10.4-4.088 22-3.798 32.18.807 12.14 5.489 16.76 12.323 21.22 24.151 20.59-4.213 38.99-2.213 44.08 22.181 1.34 6.438 1.16 6.811-1.04 13.109l1.06 1.188c9.06-1.618 17.22 4.674 22.94 11.242 7.39 8.5 5.79 20.048 4.91 30.45l1.1 1.044c5.23-.788 8.07.466 12.4 3.379 24.78 16.649 19.64 40.525 1.56 58.51 3.77 6.966 6.94 13.43 7.17 21.502.81 27.667-26.78 26.188-29.62 31.348-4.44 8.096 2.14 19.824-9.11 30.806-8.78 8.571-22.59 9.351-34.09 9.263 11.69 31.145 27.93 61.48 39.44 91.931 19.95 52.828 35.85 108.94 47.45 164.217 5.08 24.261 10.91 46.837 12.35 71.743 11.57-29.178 18.79-62.025 29.07-91.848 18.77-54.428 33.88-113.835 69.16-160.33 10.73-12.672 24.94-22.913 41.93-24.124 6.46-.771 15.16 1.526 21.23 1.509 58.86-.161 65.27 50.666 35.03 91.142-2.01 2.684-7.82 12.234-9.23 15.646-32.63 78.904-60.13 160.194-82.91 242.476-15.94 58.018-26.01 117.821-47.14 174.366-4.34 11.616-14.28 23.906-22.56 32.83 9.34 34.955 72.26 343.235 73.19 344.265 3.06 3.41 48.09 1.98 55.39 1.91 13.49-.12 77.77-2.64 85.66 3.58 1.72 2.85 1.78 2.94 1.44 6.32-5.07 6.46-29.55 3.6-38.28 3.64-31.49.32-62.99.31-94.49-.02l-341-.61c-36.57.06-73.51-.81-110 .5-6.19.22-21.74 2.15-28.18 1.11-.29-.04-2.59-1.92-3.85-1.93-8.95-.04-18.31.12-27.21.24-18.39.27-36.78.34-55.16.22-86.44-.82-172.88-.84-259.311-.06l-678.886-.46c-22.38.04-210.917 2.03-216.89-.69-1.769-.8-3.378-2.7-3.9-4.58-.734-2.63-.152-3.8 1.088-6.11 6.77-4.31 124.649-1.57 144.701-2.34l48.541-218.96c8.863-40.73 18.864-83.76 26.727-124.5-16.166-17.869-19.309-25.886-27.176-48.242-15.368-44.465-27.724-101.646-39.321-147.636a2089 2089 0 0 0-44.544-152.279c-11.318-34.351-24.418-69.143-39.326-102.131-7.708-17.056-20.836-32.666-25.869-50.8-3.096-11.157-1.892-23.14 3.961-33.184 7.247-12.437 19.932-19.326 33.548-22.759 16.898-4.259 41.697-4.184 56.988 5.127 42.462 25.855 93.364 183.059 109.625 235.764 2.627 8.516 3.466 17.626 6.167 26.031.666 2.07 1.155 2.79 3.05 3.802 15.005-89.629 30.04-156.722 64.821-241.829-28.267-22.758-14.6-29.91-26.471-54.911-4.162-8.764-28.964-15.701-32.702-40.451-3.049-20.189 5.563-34.999 19.737-49.554 4.744-4.872 12.442-8.973 16.159-14.603-.622-2.571-12.869-12.359-16.837-18.188a38.33 38.33 0 0 1-5.918-29.043c7.82-40.324 56.006-32.17 77.32-51.454 16.836-15.232 22.876-38.849 45.852-53.817 24.652-16.061 60.42-15.906 88.45-9.698 33.371 7.391 87.216 26.17 106.919 55.864 7.942 11.968 8.007 52.939 4.875 67.047 5.916 2.924 13.384 5.901 17.732 10.927 16.811 19.435-4.102 36.651-24.293 34.675-6.419 13.662-18.121 37.002-29.926 46.417-28.8 22.969-19.649 54.991-10.568 84.888 10.343 34.049 32.313 58.125 52.018 86.702 18.283-19.732 37.191-35.623 54.353-56.243-6.421-13.739-13.137-44.878 12.304-48.632 4.961-.732 10.813 5.319 14.14 8.676 9.163-7.754 18.735-29.825 26.977-39.821 10.191-12.36 13.433-16.914 27.101-4.617 4.187-1.139 6.15-6.327 10.266-9.102 13.426-9.049 18.193 14.553 18.01 14.46 17.274 8.765 12.301 18.221 7.444 33.156 28.131 11.818-.345 37.22 4.6 47.253 2.986.056 12.721-.841 13.464 3.159 7.009 37.696 6.672 94.448-34.661 111.781-.591 14.853-.449 32.286.029 47.244-.014.354.678 3.706.758 3.741 12.549 5.499 70.557-8.431 38.22 22.761 9.118 1.618 23.582 1.692 33 1.023 18.457-1.462 42.35 3.591 59.008-5.222 6.605-3.494 13.28-12.853 14.135-19.781 4.291-34.178.6-73.208 2.564-107.09.658-11.342 30.217 3.31 8.127-21.803-4.68-5.318 2.32-40.82 10.02-44.233 7.13 2.466 14.86 36.355 13.47 44.136-.52 2.962-6.25 7.122-7.11 12.531 1.25 3.943 18.26 2.977 18.03 14.886-.58 29.159-.79 59.054-1.02 88.135-.32 38.73 30.42 38.958 60.59 38.468 15.43-.155 31.43-.168 47.01-.63-26.97-23.016 2.91-22.777 20.15-21.813.61-10.389 1.04-50.848-1.02-51.936-27.75-14.632-35.16-35.624-37.85-67.755-.75-8.846-1.91-37.732 5.14-45.319 3.26-3.502 23.35-1.322 29.06-1.036-5.61-22.068-22.37-37.402.49-52.759 4.18-2.811-17.07-24.962 10.91-31.966 2.97-4.383.52-12.665 6.33-15.022 11.76-4.775 13.38 5.754 19.44 8.309 2.23-2.037 3.53-5.89 5.58-7.219 7.5-4.796 15.58 3.821 19.65 9.415 10.46 14.367 20 29.987 29.16 45.19q1.83-1.975 3.75-3.856c17.92-17.342 35.78 12.147 29.86 29.423-1.23 3.575-1.87 18.839.62 22.119 16.95 22.331 37 43.419 55.76 64.477 27.06-22.944 49.59-51.267 69.14-80.753 21.44-32.332 43.94-74.611 33.58-114.3-28.52-26.029-28.94-39.7-36.1-76.368-18.12-5.86-24.34-11.48-24.58-31.137 16.76-30.619 34.22 1.304 41.24-30.689.52-2.369 3.59-8.559 4.66-10.89-15.2-17.815-20.84-45.113 8.1-51.384 6.94-18.062 10.74-23.137 30-28.391"/><path fill="#fff" d="M801.26 673.693c5.335 1.453 28.961.891 36.245.893l92.918-.54 159.387.2 160.36-.246c23.2.038 46.83-.498 69.95.535 16.23.726 30.7 12.159 35.71 27.511 7.56 23.139 13.41 47.239 19.18 70.9a2233 2233 0 0 1 30.97 141.017c5.55 29.127 13.43 74.052 13.21 103.447-17.49-20.421-53.01-39.098-78.32-48.108-2.18-.774-24.55-3.43-29.75-4.416-2.52-3.905.42-19.754.89-25.011 2.9-31.361 7.29-62.232 5.07-93.769-.46-6.625 5.16-20.689-4.42-26.927l-1.86.453c-1.67 2.358-2.83 5.626-2.82 8.525.19 46.357-4.81 91.404-10.27 137.422-16.26 2.611-32 .639-48.21-1.172-5.32-.594-11.17-2.021-16.24-1.94-3.66-1.07-8.45-1.983-12.31-2.544-68.96-10.037-135.09-43.642-205.49-42.803-23.547.28-47.794 9.491-70.294 15.244-55.887 14.289-112.244 37.094-170.75 34.493-6.471-.305-20.738-.001-25.858-1.673-7.53-12.324-9.662-93.651-12.032-113.069-.883-7.231 1.73-30.21-4.612-32.652-1.428.532-3.177.831-3.481 2.02-5.796 22.683 4.289 128.039 8.758 143.625-44.86 2.974-80.909 23.62-116.585 49.572.248-9.9 2.635-20.285 4.116-30.137 3.014-20.054 7.1-39.555 11.263-59.374a5206 5206 0 0 1 31.07-141.922c6.145-26.752 10.637-53.78 16.835-80.467 1.117-5.085 3.173-8.651 5.844-12.91 11.37-18.153 30.519-14.411 47.985-15.497 17.524-1.089 47.244 2.808 63.541-.68"/><path fill="#fff" d="M527.47 386.16c70.688-3.354 94.723 98.997 128.002 145.319 5.43 7.558 11.71 17.435 16.146 25.469-8.615 12.296-14.776 26.983-19.563 41.536-.757 2.302.735 4.118 1.904 5.715 3.349 1.259 1.949 1.048 5.59.368 2.864-2.838 2.587-4.114 3.799-7.787 12.124-36.769 43.218-61.257 67.67-89.609 4.251-4.929 11.818-13.945 17.04-16.687 40.309 6.116 50.826 18.436 82.382 36.855-15.215 31.879-34.082 62.139-54.664 90.805-10.676 14.87-25.282 29.049-38.036 42.214-14.933 1.303-25.232-2.546-41.924 5.819-18.454 9.247-23.339 23.455-29.721 41.732-26.594-5.441-49.802-12.04-72.923-27.434-54.626-36.37-111.862-138.563-124.632-201.299-.117-1.432-.662-2.58-1.152-3.968-3.046-1.854-1.696-1.61-5.029-1.244-1.089 1.035-2.753 2.529-2.464 4.186 8.778 50.342 43.735 117.351 73.166 155.766 36.098 47.118 75.514 76.034 132.832 83.408-3.642 12.214-8.289 48.516-12.353 56.13-2.315.932-3.502 1.279-6.08.465-20.149-6.37-41.664-11.555-62.55-14.919a342.84 342.84 0 0 0-185.952 20.527c-12.459 4.968-31.569 13.492-42.313 21.242-1.529-14.547-.294-33.222 1.57-48.653 11.555-95.656 31.2-194.637 70.281-283.122 2.411-5.459 15.722-2.534 20.49-4.808 32.061-15.295 42.864-70.196 78.484-78.026m13.431 610.416c6.181-.641 13.81-.448 20.131-.46 11.048 23.264 22.834 58.134 31.818 83.014-1.735 7.21-5.829 18.74-8.152 26.21-4.388 14.16-8.508 28.4-12.358 42.71a3488 3488 0 0 0-21.046 79.99c-2.403 9.87-4.007 20.28-6.558 29.94-5.947 22.51-17.894 51.52-16.598 74.6-43.738-.56-87.48-.7-131.221-.4-22.111.08-48.882 1.06-70.596.03-6.594-.21-52.258.63-54.307-1.03 1.057-6.23 6.05-20.37 8.133-26.89a1733 1733 0 0 0 13.033-42.74l50.86-172.52c7.106-24.9 19.004-63 23.251-87.77l1.579-1.68c34.256 1.69 146.285-1.115 172.031-3.004m942.709-.965c20.55 6.339 179.96 3.635 189 3.645 4.34.005 27.39 89.164 32.27 106.854 14.58 51.1 29.55 102.08 44.9 152.95 2.45 8.07 22.07 68.43 20.67 73.11-11.31.98-25.91-.62-36.02 1.2-7.78-1.41-44.65-.77-53.59-.78l-115.88-.28c-8.59 0-37.49.55-43.79-.92-4.28-7.6-11.99-41.51-14.48-51.62l-16.5-65.65c-11.04-43.49-23.65-87.24-34.33-130.93-.49-2-2.43-9.57-1.51-12.36 7.96-24.24 17.01-49.41 26.34-73.226 1.21-.826 2.18-1.49 2.92-1.993m362.32-551.1c4.93-.382 25.35 1.642 30.29 3.163 12.06 3.711 15.26 8.669 20.86 18.873.21 30.962-8.92 34.241-23.11 59.106-6.14 10.755-11.32 29.583-16.41 41.673-4.84 11.471-9.72 24.331-13.98 36.11a1916 1916 0 0 0-47.38 146.387c-13.43 46.747-41.7 187.716-66.06 218.813-3.1 3.947-6.68 8.008-11.47 9.815-15.09 5.697-38.3 5.416-54.6 6.04a1568 1568 0 0 1-123.79-.111c-28.39-1.069-56.63-3.813-84.81-3.79-7.31.006-18.57-2.14-25.18-1.218l-1.15.168c-3.17-2.678-3.08-11.142-3.31-15.185 3.35-6.563 22.23-3.593 28.86-3.174 11.91.754 24.05 2.148 35.97 2.206 3.08.015 5.87-1.142 8.95-1.101 28.43.376 57.06 2.095 85.42-.931 13.82-1.474 27.09-7.81 40.65-8.855 20.19-1.556 52.89 3.37 70.39-6.801 23.28-13.528 46.17-127.417 52.47-154.115 3.92-16.662 8.41-33.196 12.53-49.812 1.84-7.513 4.07-15.096 6.18-22.442 20.32-70.723 43.64-140.149 78.52-205.223 4.74-8.848 14.77-19.59 16.81-29.332-1.96-2.702-1.03-1.806-4.17-3.268-6.23.895-10.2 7.846-13.15 13.016-62.78 109.97-92.72 233.838-121.57 355.964-6.32 26.752-14.93 57.76-29.95 80.63-5.27 8.027-37.66 6.079-47.53 6.832 49.75-41.001 57.58-101.453 59.33-162.502.23-8.059-2.08-20.171-1.49-27.563 2.25-28.265 15.15-57.441 22.57-84.802 15.65-49.375 30.66-100.184 52.16-147.411 12.8-28.109 31.73-70.637 67.15-71.16"/><path fill="#fff" d="M199.194 443.495c9.18 1.581 17.085 1.511 25.056 7.104 40.134 28.161 91.453 190.788 106.031 240.779 4.89 16.768 10.752 33.744 13.337 51.047 1.835 12.282-1.29 27.316-1.714 39.838-.688 20.327 1.638 40.478 5.227 60.465 4.523 25.181 12.705 58.684 29.603 78.381 5.765 6.719 12.614 11.471 19.814 16.49-20.742-1.365-26.817.11-47.243-6.076-19.423-24.931-32.157-94.554-39.787-127.579a3330 3330 0 0 0-19.52-81.207 1300 1300 0 0 0-29.564-97.582c-4.209-12.135-13.332-39.106-17.973-50.097-7.568-17.924-41.738-95.598-54.351-101.712-3.052.399-1.829-.277-3.788 2.096-.216 4.727 28.163 58.63 32.372 67.675 27.071 58.17 45.641 120.071 62.816 181.703 6.02 31.184 16.441 63.52 22.622 95.047 4.127 19.603 10.988 45.348 15.598 63.804 17.151 68.67 32.56 69.372 99.474 68.532 5.789-.072 24.074 7.186 34.454 8.187 43.956 4.24 88.229.305 132.194-2.253 9.643-.561 22.808-.541 31.483-3.121-1.113 8.522-1.992 15.862-3.914 24.265-21.747-1.751-48.052 1.965-70.166 3.141-33.201 1.765-195.15 9.541-216.868-3.734-25.25-15.434-51.189-139.038-59.84-173.224-15.88-62.754-33.506-131.853-56.573-192.262-9.649-25.272-19.233-50.871-30.275-75.573-7.577-16.952-25.14-39.796-28.119-57.326-1.176-6.919.3-13.686 4.48-19.309 10.185-13.7 29.564-15.371 45.134-17.499m858.666 543.883c10.34.97 28.77 9.37 39.2 12.099 26.24 6.863 57.58 16.973 84.08 20.803-1.04 9.82-9.82 43.08-12.32 55-8.28 40.9-15.39 82.02-21.32 123.33-2.48 16.61-7.36 44.73-7.38 60.44-13.34 7.45-18.78 10.92-30.47 20.72-.89.58-1.78 1.18-2.65 1.79-8.46 5.88-39.62 34.45-40.39 43.45-2.62 3.05-5.56 3.03-9.3 2.34.52-17.1-.8-37.51-.57-55.32zm-76.525.937c1.952-.642.944-.448 3.214.044 2.234 5.961.955 28.091.952 35.871.215 24.53.26 49.06.136 73.6l-.423 177.44c-.051 9.87 2.442 45.82-1.645 52.63-3.24-1.35-7.168-7.12-9.586-10.11-10.845-13.37-22.887-24.76-35.46-36.52-8.275-6.75-15.161-11.44-24.176-17.06-3.647-2.73-9.095-5.22-9.624-10.32-2.521-24.34-3.515-47.8-7.926-71.99-7.089-38.87-13.582-77.86-21.301-116.62-2.853-14.32-9.116-28.54-12.017-43.15.927-1.79 4.065-2.85 6.058-3.3 28.131-6.21 55.686-14.47 83.321-22.588 9.259-2.719 19.586-4.818 28.477-7.927m32.825-5.916c7.46-1.41 21.74.219 29.85.97-1.18 80.181-.31 162.261-.39 242.631l-.2 59.97c-.05 11.58.65 30.3-1.56 40.82-2.66 1.15-16.11 1.28-20.01 1.39-4.31.64-17.85.82-21.95-.91.69-21.43.016-41.48.2-62.77l.58-158.1c.2-29.08.16-58.16-.13-87.23-.09-11.6.48-23.986-.32-35.4 4.47-.568 9.41-.938 13.93-1.371m467.52-773.882c9.27 6.007-7.88 25.366 24.37 36.091-3.28 5.369-10.63 17.088-5.98 22.552 10.04 10.999 26.5-15.95 38.7-11.307 21.2 8.07-5.4 31.812-16.21 35.539-5.8 2.002-17.06.383-18.92 6.864 2.29 4.057 7.94 5.164 12.22 5.037-.13 24.686 1.38 41.449 27.14 50.296 11.29-1.658 12.6-2.841 22.48-8.33 6.74 12.628 11.65 21.884 17.9 34.917-26.43-22.77-47.42-29.6-81.94-20.18-18.65 6.212-26.84 14.439-41.67 26.659 2-18.818 3.24-28.413-2.19-47.192-7.59-6.663-13.79-12.652-20.4-20.268 2.98-.229 5.93-.483 8.86-1.065a34.9 34.9 0 0 0 22.65-15.407c4.23-6.489 8.8-17.894.57-22.946-5.59-.083-13.8 5.592-19.55 8.168-7.03 3.154-14.57 4.943-21.18 8.387-3.77-10.758-4.24-23.656-8.64-33.185-4.01-8.697-28.5-6.317-21.29-24.463 3.84-9.676 18.46-1.69 26.88-6.821 8.73-5.32 9.66-13.539 12.46-22.552 13.04 15.077 33.58 20.394 43.74-.794"/><path d="M1444.49 225.782c3.59.772 5.25.936 7.52 3.45a9.32 9.32 0 0 1 2.3 7.35c-.55 4.463-1.71 5.733-5.06 8.436-11.91-.743-11.89-12.277-4.76-19.236"/><path fill="#fff" d="M681.722 236.75c8.483 7.306-7.423 28.022 6.705 33.549 12.481 5.385 26.845 13.069 10.332 25.869-5.566 4.315-10.915 1.881-17.338.653-7.928 3.73-5.607 17.005-12.79 22.725-14.681 3.856-28.008-19.51-37.914-13.478-1.628 3.155-1.715 5.234-1.565 8.705.741 17.082 6.712 22.7 18.402 33.59-11.506 8.612-16.801 17.56-21.091 31.372-6.049-2.214-22.919-9.839-27.566-3.611 2.034 7.636 19.228 10.701 25.976 12.392-.201 51.817 21.95 92.836 52.617 132.37 3.426 4.417 7.124 10.018 9.907 14.852l.657 1.155c-2.66 2.928-5.565 6.941-9.082 8.05-3.501-1.312-3.25-2.103-5.75-5.43-38.054-50.87-59.622-138.091-118.209-160.064 29.154-11.524 56.421-53.362 45.008-85.203-1.876-5.233-27.349-40.059.802-38.186 7.162.477 11.085 23.445 22.766 25.758 7.742-2.621 4.919-10.083 3.665-15.911 4.447-2.712 14.387-8.253 16.624-12.423l3.158-5.828c9.481-4.65 19.33 4.42 34.686-10.906"/><path d="M637.677 285.401c3.411-.755 3.916-.863 7.362-.389 3.235 2.219 2.525 1.107 4.007 4.367-1.949 4.352-6.026 6.03-10.42 7.704-6.093 2.321-7.111 3.593-11.979 7.897-.934.705-3.505 1.995-4.659 2.62l-2.541-1.104-.475-1.937c2.352-8.521 11.519-14.947 18.705-19.158m30.443-38.008c11.839 1.321 11.589 11.185 5.006 18.731-12.184-.431-9.096-11.303-5.006-18.731"/><path fill="#fff" d="M887.33 1263.56c14.774-2.42 73.299 49.2 78.176 63.32l-.973 1.03c-7.852 1.16-25.294.42-34.351.49l-90.035.02c-21.637.43-54.894.05-77.626-.15-.491-.41-.981-.83-1.472-1.24-1.812-4.79-8.102-43.91-6.26-48.28 16.032-8.83 109.587-14.55 132.541-15.19m292.24.85c14.21-.74 101.12 8.46 107.58 18.57 1.07 9.88-4.87 35.47-7.73 45.52-27.8-.09-59.52 1.01-86.86-.12-36.98-.61-79.15 1.29-115.61-.49.7-1.15 1.45-2.27 2.24-3.37 15.37-21.4 47.11-48.05 71.98-57.53 6.97-2.65 20.65-1.13 28.4-2.58m-624.926 5.43c9.353 2.04 24.711.73 34.883.65q34.054 0 68.101-.75c2.55 5.78 18.957 55.71 17.945 59.15-5.263 1.05-19.596-.04-25.19-.75-7.05 1.3-107.345.54-110.797-.8-1.044-7.17 10.961-51.52 15.058-57.5m832.436-1.09c7.02 1.19 25.72.97 33.59 1.04l70.33.16c3.58 18.24 11.16 37.59 13.42 56.44-5.35 3.96-15.3-.08-22.08 1.49-5.04-2.59-98.3 3.14-113.57-.62-1.34-5.03 15.35-51.21 18.31-58.51m331.81-275.979c3.09 6.37 5.37 26.039 7.26 34.269 22.39 97.52 41.19 195.76 62.84 293.43.77 3.47.79 6.43.19 9.91l-1.27-.06c-3.27-3.88-3.81-7.64-5.08-12.57-6.01-22.15-14.93-47.89-21.65-70.52a6110 6110 0 0 1-51.4-180.15c-4.06-14.76-8.2-29.5-12.42-44.21-1.91-6.74-5.47-18.04-6.37-24.519 9.35-2.746 18.78-2.047 27.9-5.58m-872.781-606.01.952.624c5.025 14.129-34.474 67.865-34.596 78.356 2.048 3.201.917 2.173 4.28 3.91 11.424-2.116 30.772-47.489 36.164-57.518 1.952-3.63 1.759-6.674 5.14-10.121l1.656.23c8.58 12.988-33.084 69.124-24.956 78.436 12.434.814 24.502-42.349 33.394-45.534 3.19 9.84-16.601 56.474-22.881 66.349-3.169 5.018-6.788 11.933-9.759 17.225-7.883-4.314-13.754-9.732-20.907-14.257-15.471-9.787-42.281-21.787-60.468-22.934 13.669-13.415 57.51-86.533 65.355-91.125l1.02.862c.824 22.554-25.457 44.899-29.572 62.19 1.873 3.384.794 2.223 4.304 4.284 7.106-1 10.513-10.494 14.574-15.944 11.86-15.917 22.066-41.776 36.3-55.033M327.424 994.664c7.732 2.718 18.012 3.551 26.292 4.527-3.241 14.449-8.403 30.719-12.257 45.189-10.41 39.06-22.633 77.51-33.857 116.35l-30.027 102.6c-4.534 15.02-10.514 36.77-16.06 50.93-1.352 4.76-3.108 16.19-7.581 17.84-3.079-4.21 2.512-21.02 3.748-26.39a3270 3270 0 0 0 9.418-42.97l41.138-183.2c3.597-16.44 6.957-32.41 11.035-48.8 2.771-11.14 3.715-25.19 8.151-36.076m1104.046-.303c9 .465 25.63 1.625 33.82 1.592-1.96 7.137-4.22 14.297-6.77 21.247-10.7 29.07-20.31 58.38-30.24 87.71a7899 7899 0 0 1-71.38 207.4c-3.06 8.14-5.66 15.26-9.53 23.1.39-16.38 7.59-35.93 10.37-52.27 11.63-68.42 34.26-133.51 51.7-200.25 4.09 1.61 8.57 3.75 12.61 5.58 21.44-7 14.13-31.63 13.38-49.09-.6-14.07-4.7-31.19-3.96-45.019m-244.5-611.579c5.69 3.871 13.31 24.592 18.08 32.056 7.73 11.593 14.76 29.398 26.66 36.718 2.91 1.788 6.66-5.285 5.79-6.907-9.08-16.846-25.4-32.194-28.72-51.891-.46-2.741.79-4.936 2.56-6.757 2.55.779 4.4 1.958 5.78 4.38 15.03 26.309 34.15 49.311 51.19 73.981-31.62 6.432-52.67 21.158-67.47 50.029-4.42-8.966-10.5-18.609-15.72-27.247-6.95-12.421-23-40.853-20.94-54.232l1.38-.46c7.8 5.369 20.69 38.369 26.83 44.268 4.86.746 6.54 1.61 8.86-2.941.63-10.828-34.4-54.887-28.1-73.301l1.56-.444c3.46 4.143 37.28 85.113 47.45 61.825-.22-8.681-14.21-21.158-17.93-30.845-5.63-14.69-20.62-31.511-17.26-48.232m25.39 174.745c1.61 1.453 12.67 19.199 14.26 21.791 12.82 20.975 27.12 39.745 41.78 59.383l-43.1-1.228c-14.1.633-30.95.073-45.57.438.83-8.606 1.29-45.226.02-52.52 18.62-7.512 21.89-11.782 32.61-27.864M629.056 1076.61l1.623 1.39c8.495 27.72 70.25 237.29 66.78 249.47l-1.428.33c-3.172-2.26-2.163-1.46-4.044-5.31-21.553-53.97-38.757-109.96-58.23-164.74-7.444-20.95-13.748-42.74-20.219-64.01 3.913-3.62 11.219-12.58 15.518-17.13m189.459-503.05c7.38 6.608 10.623 7.984 19.968 11.508.446 10.442 2.154 44.694-1.271 52.111-7.387 2.45-24.894.24-33.934 1.286-8.253-.755-19.635-.595-28.177-.697a1527 1527 0 0 0 43.414-64.208m-91.558 402.067c4.857-.538 6.654-1.428 9.403 2.796.271 11.682 5.781 26.107 4.131 36.637-.313 1.14-1.906 2.36-2.956 2.4-9.973.34-17.97-1.05-27.794 2.41-2.96 1.22-6.977 3.14-9.837 2.59-2.503-5.67-5.679-30.264-6.748-37.323 13.54-5.312 19.808-6.984 33.801-9.51m395.473-28.416c11.98 3.583 23.85 7.363 36.13 9.702 4.85 9.984 2.26 30.666.3 41.756-.09.247-.98.732-1.28.929-7.18-.199-27.75-6.27-35.22-8.368-1.01-10.303-1.68-34.559.07-44.019m-252.847 15.78 1.438.271c3.775 4.52 6.676 32.816 8.187 40.968-12.018 2.56-24.018 5.2-35.997 7.94-2.214.63-1.384.46-3.79.22-3.233-4.95-4.936-34.03-3.636-40.267 11.767-2.734 22.37-5.026 33.798-9.132m44.775-11.908c3.766-.189 4.181-.793 7.271.787 1.932 8.804 3.003 28.642 3.785 38.388-9.128 2.913-23.441 7.856-32.331 9.737-2.172-.397-.936 1.565-4.913.175-2.552-10.149-4.397-28.402-5.656-39.341 9.102-2.138 22.11-6.911 31.844-9.746m160.732-16.216c10.91 3.281 24.73 5.932 36.85 9.44-.12 6.956 1.55 41.086-.59 43.39-11.41-2.842-28.18-9.811-37.88-11.608 1.42-13.258-.32-31.605 1.62-41.222m95.11 25.545c12.87 3.572 28.4 6.525 41.63 9.272-1.22 1.506-2.22 2.607-3.52 4.02-1.49 8.004-1.55 26.546-1.16 34.956-5.01 3.69-31.39-4.35-37.98-6.04.26-9.494-.62-34.782 1.03-42.208m47.04 10.239c52.13 11.039 34.19-4.281 38.05 46.759-6.35 1.38-33.12-1.39-37.94-5.54-1.03-5.78-.16-33.908-.11-41.219m-248.87-33.528c.832.029.801.268 1.731.919 2.211 9.849 2.973 27.93 2.972 38.293-11.169 2.69-25.5 7.302-36.991 10.47l-1.14-.572c-1.38-6.05-3.365-30.617-4.464-39.011a1629 1629 0 0 1 37.892-10.099m341.61 39.48c10.21 2.159 19.2 2.536 29.44 3.545 5.33-.311 11.31 6.397 9.53 11.817-2.79 8.515-2.25 23.815-4.17 31.525-11.37-4.04-25.61-6.2-37.69-6.78.16-6.8.46-36.527 2.89-40.107m-487.19-2.308c1.302.159.687.043 1.949 1.236 1.754 12.803 3.444 25.349 3.55 38.279-14.159 2.79-22.91 3.44-37.302 4.52-2.667-1.93-3.752-34.462-4.269-40.297 11.412-1.336 25.506-1.33 36.072-3.738m319.41-461.651c5.4 1.169 18.09 1.481 23.6.968 22.34-2.077 24.76 2.485 34.06 21.069l-6.98 6.986q-.69.655-1.38 1.297c-21.63 19.926-50.96-8.96-49.3-30.32m-130.72 415.892c4.01-.275 4.65-.511 8.38.646 1.9 3.468.73 31.473-.22 37.029-5.13 1.868-20.127 2.165-28.096 3.865l-1.312.288-8.317 2.167c-.125-9.474-3.71-31.994-.658-37.119 5.667-5.298 22.073-6.144 30.223-6.876m144.76-278.302c14.65 1.388 32.02 1.011 46.94 1.074l87.56-.046c11.36.095 23.21-.124 34.59.112 3.27.067 3.38.698 5.89 2.584-1.94 1.3-3.93 2.506-6.14 3.322-3.74 1.388-7.82 2.47-11.81 2.785-16.87 1.331-141.85 1.965-151.44-3.368-2.76-1.537-4.91-3.382-5.59-6.463m-127.27 277.557c12.15.569 24.42 3.549 37.02 4.61-1.07 7.904.07 28.098-.6 39.247l-.39.581c-.19.067-31.04-5.128-36.04-5.47.35-12.686.06-26.217.01-38.968m329.27 60.792c7.7 3.253 25.09 11.997 30.62 17.787.08.37-1.78 40.34-1.78 40.34-32.11-25.45-36.45-5.48-28.84-58.127m-714.607 22.557c3.144 4.31 7.601 27 7.645 32.65-2.441 2.95-14.832 10.79-18.959 13.98-5.598 4.33-9.32 7.65-14.601 12.53l-2.828 2.14-1.182-.86c-.63-6.41 1.774-11.5 2.165-17.23.298-4.37-1.719-5.6-.311-12.44 3.15-15.32 16.247-22.6 28.071-30.77m621.407-33.815c6.79 1.181 27.77-1.172 32.2 1.233 1.74 3.892-1.72 25.132-.67 33.922l.14 1.05-1.3 2.6c-1.55.36-27.13.44-30.05.29-1.68-1.9-.49-33.978-.32-39.095m-655.159 16.128.427.48c1.148 4.539-6.735 60.177-7.4 69.717l-6.268-14.9c-7.357-16.82-14.057-36.16-20.371-53.537zm733.849 279.327.69.69c.55 2.68-9.96 49.5-11.05 54.86-8.06.15-23.31.49-30.71-.77-2.72.07-2.73.22-5.29-1.02.59-8.49 38.39-46.44 46.36-53.76M682.156 989.974l1.421.674c2.33 9.692 5.08 25.942 3.908 35.892-2.173 2.7-21.246 9.28-26.665 12.41-.108-6.9-5.297-26.72-7.027-35.07 9.69-5.868 17.986-9.613 28.363-13.906m66.894-13.989c5.656.083 22.658.319 27.348 1.856 1.292 4.821 4.915 37.439 3.27 40.929q-11.064-.27-22.123-.69c-3.586-2.92-7.538-35.976-8.495-42.095m-48.296 297.505c10.222 5.22 39.597 42.1 42.09 54.03l-1.205.93c-9.087.05-19.434-.11-28.394.38-3.359-19.42-9.029-36.71-12.491-55.34m85.391-622.736c2.852 1.443 6.111-.153 9.431.235 12.874 1.504 79.799-2.322 86.708.208-6.87 6.516-23.106 7.259-33.07 8.413-12.771-.505-86.85 1.64-93.335-1.175 10.926-13.111 14.97-4.811 30.266-7.681"/><path fill="#fff" d="M1397.85 1012.64c4.7 3.28 22.39 17.72 22.82 23.23.52 6.67 3.9 32.36-.59 35.74-30.76-19.93-23.34-25.71-22.23-58.97M862.362 512.471c2.943-.519 10.775-.402 14.158-.429-4.614 19.866-9.935 29.354-29.603 36.803-5.603.686-8.314.825-13.961.76l-.669-1.555c3.714-9.059 12.398-26.1 19.173-33.493 2.367-2.583 7.231-2.06 10.902-2.086m449.078 719.219c3.4 3.57 8.68 36.55 9.82 43.02.76 4.37-16.58 22.08-20.54 26.42l-3.88 3.53-1.31-.07c4.81-24.4 10.12-48.71 15.91-72.9m-576.068-5.95c2.965 26.04 6.291 55.26 10.63 80.8-1.959-2.84-4.07-6.59-5.879-9.61-6.586-8.63-10.474-13.19-19.132-19.67 2.777-12.22 9.59-41.29 14.381-51.52m407.068-742.167c6.35-1.003 18.65-.628 25.5-.619 3.47 3.453 9.81 12.118 9.93 17.064l-1.35.355c-8.97-.817-26.72-.592-36.58-.901zM740.707 1132.39c2.009.46 1.867.47 3.465 1.8 1.598 7.88-11.951 61.86-14.997 73.15-1.917-.63-1.19-.32-2.736-1.93-.681-5.08 11.906-68.35 14.268-73.02m723.163-843.317.68.818c.05 15.217-19.63 20.677-32.08 20.659-1.13-3.144-1.76-5.002-2.49-8.254l1.88-1.193c12.21.955 22.07-4.991 32.01-12.03M637.472 315.66c6.559 4.535 19.615 10.616 23.202 14.331.259 3.349-.516 3.139-2.995 6.412l-2.487 2.761c-11.167 1.723-16.28-14.818-17.72-23.504m233.567 165.921 1.657.299c4.398 3.043 5.308 10.65 2.72 15.498-4.191 2.702-4.698 1.7-10.664 1.62-2.407.095-3.187.321-5.368-.768-.734-6.135 6.007-14.274 11.655-16.649M1331.63 1138.8c.78 1.46 2.81 9.56 3.62 12.03-5.32 11.16-9.05 24.17-14.21 36.03l-1.61 1.56c-.61-4.83 10-43.38 12.2-49.62m-63.96-707.622 4.33.833c3.19 2.68 5.14 7.228 7.19 11.032-.09 6.946-.04 11.535-1.31 18.442l-1.37.827c-1.54-11.55-12.57-17.242-8.84-31.134m-507.198.584c5.483 1.88 7.481 1.881 9.099 7.681-.708 4.9-5.742 11.414-8.621 15.874l-1.932 1.906c-4.821-4.861-1.834-19.739 1.454-25.461"/></svg>