<svg xmlns="http://www.w3.org/2000/svg" preserveAspectRatio="xMidYMid meet" viewBox="0 0 2048 1462"><path d="M863.871 110.489c15.719-.605 36.343.125 52.607.135l115.242.076q253.17.018 506.28 5.372l209.66 3.376c42.05.735 84.31 2.834 126.37 1.848 10.45-.245 34.85-1.442 42.32 6.144 1.89 1.913 1.58 6.288 1.65 8.916.4 14.425-1.1 29.083-1.58 43.512-.96 28.509-1.62 57.415-1.45 85.934.25 40.597-1.3 81.276-1.84 121.875l-.72 201.802 3.69 309.714c.55 41.472 2.02 83.5 1.76 125.037-.04 5.82-.83 12.66-5.12 16.97-9.66 4.42-49.63 2.25-62.92 1.92-.1 19.74 12.11 102.45 10.25 108.53-1.06 3.44-4.17 4.65-7.09 6.26 1.77 12.12 5.02 44.33 3.02 55.01 12.22.22 77.48-1.41 82.83 3.71l-.75 1.4c-10.68 4.25-69.29 7.85-82.12 7.5-2.08 2.44-4.52 11.89-5.63 15.53 14.17-2.68 99.67-4.05 111.45 1.76l-.04 1.44c-12.61 7.22-97.86 7.98-116.92 7.7-2.56 4.53-6.5 9.64-9.62 13.94 18.61-.01 115.7-5.9 123.98 2.44-5.15 9.09-123.04 8.78-138.59 13.04-10.44 2.85-26.86 11.28-36.56 15.2 23.42.33 115.16-5.09 130.95.84l.42 1.31c-15.65 9.72-157.96 11.94-183.75 11.85-8.07-.02-21.58 3.05-29.84 3.8-15.27 1.37-31.54 2.26-46.85 2.8a8224 8224 0 0 1-487.11 2.43c-38-.64-80.11-.52-117.79-3.69-20.76-1.74-126.304-2.67-134.455-14.47l1.186-1.55c15.141-5.65 182.529 5.03 209.219 5.6 103.41 2.58 206.87 3.25 310.31 1.99l75.97-.33c16.28-.01 37.96.31 54.18-.89-1.79-1.27-16.74-2.72-20.5-3.15-16.99-1.96-45.95-10.85-61.57-11.47-29.68-1.16-61.56.36-91.67.13l-184-2.74c-37.19-.72-86.11-1.31-122.98-4.05-9.5.3-48.04-.25-53.09-8.43 5.53-8.95 64.35-4.48 76.61-4.1l93.85 2.84c74.03 2.69 149 1.42 223.13 2.77 5.54.11 11.54.01 16.83-1.72-2.38-1.69-33.41-14.12-37.82-16.19-2.74-1.3-23.21-.75-27.77-.74l-47.78-.06c-50.34-.39-100.67-1.62-150.98-3.66-15.47-.73-76.39-1.77-84.63-10.82l.65-1.63c10.51-4.77 88.25-1.19 104.65-.81 60.34 1.9 120.7 3.11 181.07 3.64-10.27-6.48-20.68-13.19-31.22-19.18-7.88.17-27.98.36-35.11-.37-17.11-1.74-115.38 2.71-123.19-10.22l1.23-1.52c11.87-4.64 115.73-1.67 136.78-2.72-46.47-30.5-121.66-132.11-15.56-135.32l2.81-16.74c-6.31-.1-12.93-.1-19.23.05-47.26 1.09-95.17.51-142.35 2.32 5.27 9.96 37.66 55.17 35.8 62.35-9.52 5.99-34.96 11.27-47.2 14.69a7398 7398 0 0 1-90.32 24.93c-26.87 7.4-53.61 15.32-80.19 23.73 7.361 16.55 21.886 47.22 26.674 63.66-8.626 17.7-21.303 19.74-39.77 26.73l-13.104-2.12c-9.13-12.32-27.917-59.2-38.251-77.77-11.802 2.44-29.987 8.24-41.767 11.77a2302 2302 0 0 0-82.758 26.22c-38.749 12.84-78.203 24.73-117.35 37.07-12.293 3.38-32.194 12.02-43.893 13.83-5.623.87-29.303-41.46-33.256-47.72a6463 6463 0 0 1-60.615-96.51c-9.952-16.1-27.384-45.98-37.936-60.19l-.813-1.09a3246 3246 0 0 1-172.883 1.28c-61.488-.74-122.165-2.6-183.411-9.4-9.606-1.06-34.502-2.74-41.166-8.75-1.661-1.5-2.902-4.02-2.958-6.34-.538-22.26.204-45.52.508-67.725l2.015-150.893a28912 28912 0 0 1 7.855-460.178l5.555-218.181c.181-10.175-8.473-36.041 11.075-37.047 3.462-.178 5.792 3.102 7.794 5.674 12.705-2.006 43.424-2.243 57.543-2.7l102.249-3.984c60.221-2.776 119.596-3.833 179.772-5.465l220.114-5.436c59.541-.897 120.712-.501 179.928-2.326"/><path fill="#fefefe" d="M898.634 128.542c41.64 1.157 81.998.278 123.576.303l215.64 1.07L1898 141.051c.19 7.833-.11 16.23-.28 24.106-1.93 90.424-3.52 180.91-4.62 271.344-.58 123.022.36 246.047 2.81 369.046.53 52.906 1.37 105.807 2.54 158.703.38 16.324-.37 47.38 1.4 62.06-17.32.6-34.65.84-51.98.72-1.2-20.92-2.62-44.764-4.89-65.48 4.07.607 16.06 3.092 18.21.102 13.03-18.094-12.93-17.228-20.51-17.951-.48-4.898-1-10.954-2.01-15.736-5.5-26.023-3.93-51.373-3.79-77.817l1.76-124.773c1.45-119.052 5.35-237.98 5.19-357.13-.07-52.374 1.55-107.548-3.51-159.895-.58-5.975-8.9-10.391-14.46-10.269-36.84.804-74.24 2.551-111.11 2.113l-217.79-3.686-109.24-3.496c-12.62-.443-56.05-3.482-65.09-.85-4.27 6.011-3.85 63.683-4.03 74.726l-2.06 159.17a29575 29575 0 0 0-4.21 356.182c-.41 49.939-.96 99.966-.97 149.906.57 7.233-.84 25.273 3.27 30.951 5.99 8.266 28.36-1.104 33.08 7.659-.4 5.13-9.36 29.444-11.67 36.234-4.03 12.08-7.89 24.22-11.59 36.41-40.39 2.29-81.72 1.21-122.2 2.92-17.87.75-35.78.51-53.6 2.12-2.72-3.19-4.92-6.68-7.14-10.23-9.58-15.36-19.6-30.45-29.56-45.572 18.49.959 115.75 3.165 125.47-5.764 12.4-11.389 14.99-181.625 16.41-207.625.19-51.444 3.12-107.594 4.36-159.462l6.91-317.763c.73-35.569 2.63-71.235 2.53-106.836-.01-.674-6.22-8.339-7.02-9.316-17.42-1.953-44.39-1.241-62.55-1.73a4889 4889 0 0 0-162.06-1.731 11468 11468 0 0 0-370.037 6.908l-271.34 11.687-138.244 4.714c-13.495.37-62.221-.596-72.098 2.67-2.348 3-2.987 4.953-3.108 8.75-1.366 42.991-.223 86.827.419 129.859l2.355 189.197 4.031 324.12c.623 37.014.06 74.272 1.441 111.239.165 4.427.629 20.555 3.58 23.009 8.85 7.366 223.14 4.717 249.148 4.344 12.699 18.662 27.431 44.302 39.492 63.932-18.069.25-36.083 1.48-54.056 1.76-57.228.86-114.468.12-171.656-2.19-45.43-1.62-100.484-4.23-145.523-10.25 1.106-23.36.606-48.66 1.006-72.313l2.762-219.512 5.834-337.282a24829 24829 0 0 0 6.022-275.197c22.148 1.092 51.116-2.049 74.061-2.643 78.969-2.044 157.58-6.504 236.647-8.515a22677 22677 0 0 1 346.768-7.522c38.635-.72 78.279 1.321 117.13-.634"/><path fill="#fefefe" d="M1334.92 204.909c27.07.373 62 4.69 89.91 6.186a7055 7055 0 0 0 184.42 6.725c49.07 1.172 100.68-.494 149.72-1.477 21.82-.437 43.07-2.656 65.33-2.787 1.88 23.912.42 57.982.27 82.462a7196 7196 0 0 1-3 178.731 11403 11403 0 0 0-2.37 358.636c-5.14-10.964-8.62-28.593-12.87-40.902-12.67-36.73-31.73-89.96-57.65-118.811-19.32-21.502-71.61-43.236-98.53-52.115 5.52-7.098 11.74-13.767 17.3-20.952 41.21-53.238 53.21-123.885-.08-174.95-15.24-13.806-33.42-24.86-53.97-28.114-30.88-4.889-63.51.347-89.17 18.95-16.75 12.138-31.51 31.592-32.61 52.792-.29 9.347 1.08 18.306.67 27.702-1.47 33.635-19.15 72.952 2.84 103.373 8.16 11.277 21.05 18.16 34.56 20.116l-.41 15.568c-19.81 19.579-34.38 25.912-58.55 37.173-18.86 8.788-43.01 28.937-53.74 46.58-14.14 23.25-22.53 56.99-30.45 83.417a5123 5123 0 0 0-28.06 94.048c-5.11 17.759-9.9 37.78-15.56 54.998-6.19-.319-12.92-.346-19.16-.498 3.04-33.882 1.92-69.915 2.63-104.004l2.75-233.862c.75-135.955 5.51-272.884 5.78-408.985"/><path fill="#fefefe" d="M1587.13 633.399c14.39-.738 28.42-1.069 42.69 1.33 30.03 5.051 77.63 26.76 100.56 46.568 46 39.738 81.75 188.943 90.58 250.93 6.37 44.723 8 90.003 12.32 134.943 2.49 25.83 7.04 51.54 9.05 77.37-24.42 8.9-42.21 10.19-67.21 14.57-81.35 14.27-160.63 13.05-241.95-.95-14.4-2.48-29.87-4.18-44.19-7.16-2.19-10.81-3.18-26.69-4.22-37.95l-6.03-66.29c-.8-7.34-3.71-26.17-1.44-32.54 3.56-1.47 7.54-3.19 8.92-6.79 10.67-27.781 17.83-223.287 12.16-239.057a9.49 9.49 0 0 0-5.96-5.825c-3.06-1.021-3.51-.361-6.02.742-7.7 8.404-4.2 46.013-4.31 58.577-.67 38.361-2.17 76.703-4.5 114.999-1.02 16.578-1.94 41.924-5.3 57.302-21.26-2.609-51.87-12.463-71.9-20.419-13.46-5.344-26.17-12.04-40.26-16.689 2.22-10.96 5.18-20.832 8.43-31.53 18.21-59.819 33.44-120.872 54.77-179.675 7.98-21.985 21.19-37.414 40.97-49.795 13.49-9.375 32.37-14.455 45.91-23.078 28.76-18.323 39.68-35.761 76.93-39.583M459.759 980.846c41.687-43.699 185.504-85.747 246.039-85.305 5.776.042 13.47.035 19.422.182 3.584 4.318 5.544 6.535 8.253 11.409-3.631 1.435-6.42 2.033-8.723 5.049l-.32 2.384c3.389 2.424 6.356 1.078 10.148-.246 5.428 2.264 11.244 11.853 12.901 17.228-3.961 3.21-6.721 2.435-8.881 6.282.831 2.93.289 1.882 2.891 4.035 4.307-.102 6.249-1.063 10.276-2.479 2.514 4.023 8.665 12.655 8.605 16.67-2.399 1.106-3.871 1.834-6.147 3.17-.614 3.625-.741 2.144.865 5.62 3.515 1.734 6.518-.417 10.1-2.031 2.658 4.327 7.666 11.639 8.741 16.265-2.907 5.515-8.348.739-7.919 8.942 3.694 3.924 7.768.608 12.311-1.433 3.344 5.77 6.948 11.766 10.076 17.622-3.577 1.75-6.396 2.31-8.176 5.22l.249 2.99c4.718 3.46 10.029-1.83 11.938-.03 2.501 2.36 9.437 13.56 8.809 17.15-3.105 1.47-6.506 2.31-7.742 4.79 1.569 3.34.449 2.04 3.415 4.11 6.32-1.22 3.36-2.64 8.83-1.25 4.692 3.69 6.826 9.52 9.31 14.98-5.132 1.96-6.486 1.71-8.905 6.4 9.837 4.75 13.816-6.17 21.737 16.51-2.079 3.28-7.638 1.4-10.744 5.67.895 3.23.053 1.86 2.877 4.08 4.35.77 8.543-1.21 12.921-2.66 1.668 3.16 7.217 12.85 7.464 15.73-5.538 3.46-6.155 1.08-8.588 5.6 1.086 5.04 5.335 4.02 9.373 2.66 1.351-.46 2.693-.95 4.027-1.45l9.37 17.17c-3.615 1.04-5.688 1.19-8.033 4.04l-.579 2.32c2.152 2.38 1.067 1.68 4.745 2.22 2.502-1.04 4.68-1.98 7.122-3.15 3.478 5.74 7.265 12.34 10.959 17.86-3.237 1.48-7.302 2.77-9.143 5.53.594 3.63-.076 2.28 2.544 4.87 6.892.66 8.538-4.39 11.655-.04 4.257 5.94 9.76 14.67 12.834 21.22-3.994 4.23-24.178.8-29.738.14-72.729-8.58-164.9 10.35-220.691 59.63-18.989-29.57-142.793-238.282-159.602-250.39-3.409 1.509-3.599 3.632-6.474 6.15 8.49 16.78 26.788 44.56 37.033 61.14l60.333 98.64 47.714 76.6c3.741 6 12.251 22.1 15.778 26.5 8.465-1.48 12.093-8.87 18.448-13.62 60.304-45.09 140.949-59.14 214.428-51.98-45.001 13.73-85.647 12.52-131.498 27.39-38.441 12.46-63.075 34.09-100.394 47.12-.674-1.4-3.326-6.45-3.32-7.57-10.506-13.36-21.761-32.97-30.695-47.8l-41.744-69.36-55.041-90.65c-11.676-19.04-24.132-38.16-34.96-57.617zm518.799-155.535c3.244-.606 6.624-1.247 9.774.141 10.036 4.421 115.698 181.138 130.868 205.628l29.07 46.25c5.64 8.91 17.67 27.25 21.04 36.69-2.31 2.86-36.05 5.97-41.72 6.28-61.49 3.46-109.54 20.45-166.529 42.93l-4.88-9.92c10.7-3.12 29.718-12.8 41.556-17.49a449 449 0 0 1 99.433-26.49c13.15-2.27 52.29-3.97 58.35-5.98 2.24-2.93 1.58-1.76 1.9-5.9l-1.11-1.24c-5.41-1.47-21.35-.21-28.05.04-43.73 1.65-89.55 12.9-130.262 28.56-14.934 5.74-29.874 13.46-45.167 19.42-13.757-26.33-27.988-58.43-40.697-85.62L848.72 923.699c-9.21-19.538-18.884-41.699-28.762-60.625 46.517-19.938 108.713-30.613 158.6-37.763"/><path fill="#fefefe" d="M1307.33 1092.37c9.05.48 14.71 3.23 22.09 8.32 24.91 17.21 41.59 18.01 70.82 12.51 16.35 15.69 64.77 40.41 85.88 51.36 11.74 6.1 47.55 11.2 62.09 13.85 98.04 17.84 191.07 7.98 287.43-13.09 4.2 28.21 6.46 58.62-9.79 84.05-5.27 8.24-12.01 12.77-19.86 18.23-43.43 29.63-124.32 30.86-174.82 28.53-102.4-4.73-202.57-29.54-285.74-91.98-27.14-20.38-60.33-52.58-67.88-86.79-4.43-20.37 15.01-23.11 29.78-24.99M788.362 853.298c1.79.178 6.179-.04 8.181-.08 23.179 45.815 45.443 95.11 67.048 141.607l64.787 137.905c11.12 23.9 21.629 48.45 33.194 72.07-5.529 6.16-8.896 7.55-16.578 10.57-3.92.97-4.502 1.84-7.731.53-3.36-4.56-9.518-18.09-12.219-23.73l-24.896-52.98a10200 10200 0 0 1-65.409-140.472c-6.877-14.815-61.669-131.862-61.263-136.563 2.935-5.518 8.988-6.772 14.886-8.857"/><path fill="#fefefe" d="M1363.77 976.993c32.54 16.516 57.68 23.767 92.38 32.427-10.45 27-28.37 56.1-48.13 77.26-20.22 20.67-60.46 18.19-77.47-5.39 7.18-32.67 20.66-73.42 33.22-104.297M384.285 382.272c7.72-1.278 19.804 1.842 26.258 6.221 24.694 16.754 21.399 54.856 6.303 76.945-10.513 15.382-20.805 22.679-38.737 26.461-65.02 5.003-65.307-97.674 6.176-109.627m16.549-163.244c6.404-.137 9.357.16 15.755.993-84.725 56.385-142.142 99.424-213.394 172.648l-8.336 10.066.238-20.965c5.482-7.953 19.285-20.575 26.628-27.579a987.6 987.6 0 0 1 132.66-106.766c14.259-9.591 31.167-20.967 46.449-28.397m835.856 388.556 1.13.922c1.67 2.973.94 6.874.34 10.109-9.42 50.356-77.55 136.913-113.89 172.439-17.92 17.512-38.19 33.336-58.75 47.606l-1.2.02c1.03-3.668 17.1-18.726 21.05-22.85 41.71-43.566 87.1-94.427 117.81-146.555a499 499 0 0 0 17.28-31.535c4.63-9.216 10.22-22.25 16.23-30.156m-1.93 111.958 2.37 1.409c5.79 12.246-17.09 28.1-24.12 37.359-45.73 60.219-100.37 99.036-161.41 141.924-1.72-1.575-2.1-2.616-3.17-4.645.05-4.364 2.2-7.492 5.8-9.889 54.81-36.543 102.53-80.594 147.6-128.444 11.19-11.879 21.43-25.587 32.93-37.714m271.77-207.617c20.21 9.067 2.21 25.316 4.23 39.883-.32 6.601 9 3.344 9.79 4.621 14.82 23.849 32.85 45.649 56.75 61.512-9.67 1.18-14.7 2.422-23.71 6.034-2.15.98-2.84 1.556-5.14 1.105-5.02-9.037 4.28-31.152-7.4-35.813-4.61 1.885-6.06 10.446-10.63 12.544-10.59 4.851-24.12-12.748-27.75-20.578-7.29-15.701-1.79-54.608 3.86-69.308M348.854 221.115c3.207-.028 3.093-.545 5.35.874-1.59 2.844-42.008 31.637-48.695 36.629a1504 1504 0 0 0-106.548 87.395l-2.675 1.758-1.122-.62c-.298-3.213-.769-6.67 1.108-9.378 19.793-28.562 123.913-108.696 152.582-116.658M968.056 1221.93c2.491 1.77 12.303 23.93 14.462 28.4-9.188 5.08-14.282 7.35-23.991 10.66l-1.541-.2c-2.877-2.6-11.772-24.03-14.048-29.04 11.996-1.07 15.264-2.97 25.118-9.82M758.555 802.438c7.652 2.913 28.074 27.299 31.851 34.663l-.493 1.012-7.662.535c-5.51.733-11.973 4.383-16.697 7.082-3.232-9.227-9.305-34.322-6.999-43.292m.193 74.5c2.863 1.668 7.671 13.201 9.442 16.861a173.4 173.4 0 0 1-22.572 11.093c-4.089-5.969-5.722-8.49-10.857-13.45 9.24-7.511 12.978-10.094 23.987-14.504m11.299 23.925c4.179 2.826 7.559 13.863 9.298 18.93l-20.317 8.072c-2.726-3.372-7.884-12.307-10.37-16.359 9.256-3.393 13.158-5.605 21.389-10.643m684.683 212.687c-.32.14 11.84-.43 12.84-.5 1.11 8.11 1.6 16.46 2.21 24.63l-11.54-6.46c-8.86-5.83-17.77-11.56-26.75-17.2 8.16.05 15.08.04 23.24-.47M791.891 949.919c3.746 2.216 8.512 15.609 10.398 20.289-5.568 1.824-10.89 3.915-16.35 6.019-3.962-4.822-8.372-12.773-11.101-18.397 6.757-2.707 10.716-4.396 17.053-7.911m667.549 91.781c1.88 10.74 2.83 22.32 3.9 33.23-5.84-.57-13.58-.2-19.59-.09-.51.06-2.24-.27-2.84-.37-.46-3.56 15.54-27.77 18.53-32.77M780.874 926.965c.542.067 1.721.657 2.295.907 3.28 4.972 4.885 9.808 6.996 15.335-6.034 2.588-11.892 5.658-17.752 8.626-4.035-5.058-6.941-11.054-9.497-16.946a1815 1815 0 0 1 17.958-7.922m22.958 49.95 1.462.449c3.308 3.794 6.656 11.495 8.979 16.256-4.976 1.744-9.58 3.947-14.371 6.137-4.44-3-7.887-11.515-10.218-16.536 5.172-1.864 9.203-3.892 14.148-6.306m11.418 24.265.54.13c2.556 2.2 7.861 14.47 9.678 18.29-4.11 1.45-8.012 3.25-11.995 5.01-3.781-5.3-7.778-12.85-10.965-18.67 4.432-1.42 8.427-3.04 12.742-4.76m12.882 25.53c3.117 1.92 6.78 13.01 8.04 16.48a959 959 0 0 0-10.25 4.47c-2.406-3.47-7.111-12.91-9.297-17.02 4.779-1.3 6.98-1.84 11.507-3.93m9.54 23.5 1.327-.01c3.006 3.39 7.086 13.31 7.997 17.81-1.7 1.83-5.165 2.58-7.81 3.5-3.544-5.29-9.384-12.62-8.638-18.68 2.639-2.66 2.86-1.96 7.124-2.62m11.646 24.77c3.252 1.69 9.519 12.23 7.787 16.61l-4.69 1.7-.752.21c-3.493-3-7.332-9.14-7.669-13.83 1.361-3.45 1.094-2.41 5.324-4.69m-41.441-781.24c3.908.318 2.841-.308 5.602 1.79l-.058 2.513c-3.047 5.311-6.388 7.304-11.701 9.592-3.079.108-3.008.27-5.479-1.402l-.227-2.267c2.942-5.585 6.505-7.497 11.863-10.226m2.567 109.253c3.484-.496 6.3-1.218 8.107 2.193-2.164 5.796-7.215 7.5-12.469 9.834-3.075.147-4.904.163-6.833-2.124.76-4.578 7.443-7.773 11.195-9.903m-117.493 17.645 3.037 1.331c1.917 2.699 1.517 1.229 1.168 4.576-3.137 4.898-6.749 6.874-12.123 8.489-3.538-.973-4.447-.957-4.732-4.667 2.551-5.055 7.734-7.299 12.65-9.729M585.134 307.964c4.269-.302 5.251-.442 8.258 1.669l-.224 2.283c-2.329 3.559-5.291 4.744-9.009 6.729-3.344.628-5.031 1.049-7.491-1.114.565-4.686 4.767-7.269 8.466-9.567m876.996 783.506 1.54.64.17 1.64c-4.06 3.37-30.35 2.03-36.68 1.86l-1.05-.91c3.41-3.79 26.08-1.69 36.02-3.23m-606.132 7.29c2.28-.15 2.683-.39 4.753.59 4.351 5.34 6.652 8.56 8.057 15.55l-1.69 2.4c-4.456-1.32-11.717-13.32-11.12-18.54m14.19 23.64c5.727 1.58 10.317 12.58 10.182 17.93l-2.828-.87c-3.057-4.34-7.533-11.72-7.354-17.06"/><path d="M913.637 1324.17c30.136-.84 77.25 3.63 109.013 5.21 63.94 3.04 127.92 5.15 191.92 6.35 112.51 1.31 225.03 1.03 337.53-.82 76.89-1.89 153.77-4.34 230.63-7.35 16.36-.5 34.99-1.02 51.28-1.34 13.35-.26 84.81-6.12 89.77 2.15l-1.9 2.12c-65.01 9.63-151.5 10.28-218.52 12.87a7974 7974 0 0 1-578.41 4.04c-66.08-2.18-134.117-4.66-199.75-14.36-4.809-.71-9.878-1.82-12.576-6.03z"/></svg>